0
SECTION
2
HEADER
9
$INSUNITS
70
4
9
$ACADVER
1
AC1014
9
$HANDSEED
5
FFFF
0
ENDSEC
0
SECTION
2
TABLES
0
TABLE
2
VPORT
5
8
100
AcDbSymbolTable
0
ENDTAB
0
TABLE
2
LTYPE
5
5
100
AcDbSymbolTable
0
LTYPE
5
14
100
AcDbSymbolTableRecord
100
AcDbLinetypeTableRecord
2
BYBLOCK
70
0
0
LTYPE
5
15
100
AcDbSymbolTableRecord
100
AcDbLinetypeTableRecord
2
BYLAYER
70
0
0
ENDTAB
0
TABLE
2
LAYER
5
2
100
AcDbSymbolTable
70
2
0
LAYER
5
50
100
AcDbSymbolTableRecord
100
AcDbLayerTableRecord
2
0
70
0
6
CONTINUOUS
0
ENDTAB
0
TABLE
2
STYLE
5
3
100
AcDbSymbolTable
70
1
0
STYLE
5
11
100
AcDbSymbolTableRecord
100
AcDbTextStyleTableRecord
2
STANDARD
70
0
0
ENDTAB
0
TABLE
2
VIEW
5
6
100
AcDbSymbolTable
70
0
0
ENDTAB
0
TABLE
2
UCS
5
7
100
AcDbSymbolTable
70
0
0
ENDTAB
0
TABLE
2
APPID
5
9
100
AcDbSymbolTable
70
2
0
APPID
5
12
100
AcDbSymbolTableRecord
100
AcDbRegAppTableRecord
2
ACAD
70
0
0
ENDTAB
0
TABLE
2
DIMSTYLE
5
A
100
AcDbSymbolTable
70
1
0
ENDTAB
0
TABLE
2
BLOCK_RECORD
5
1
100
AcDbSymbolTable
70
1
0
BLOCK_RECORD
5
1F
100
AcDbSymbolTableRecord
100
AcDbBlockTableRecord
2
*MODEL_SPACE
0
BLOCK_RECORD
5
1B
100
AcDbSymbolTableRecord
100
AcDbBlockTableRecord
2
*PAPER_SPACE
0
ENDTAB
0
ENDSEC
0
SECTION
2
BLOCKS
0
BLOCK
5
20
100
AcDbEntity
100
AcDbBlockBegin
2
*MODEL_SPACE
0
ENDBLK
5
21
100
AcDbEntity
100
AcDbBlockEnd
0
BLOCK
5
1C
100
AcDbEntity
100
AcDbBlockBegin
2
*PAPER_SPACE
0
ENDBLK
5
1D
100
AcDbEntity
100
AcDbBlockEnd
0
ENDSEC
0
SECTION
2
ENTITIES
0
ARC
5
100
100
AcDbEntity
8
0
100
AcDbCircle
10
282.81624599999998
20
-130.89249599999999
30
0
40
2.2499999999999964
210
0
220
0
230
1
100
AcDbArc
50
-90
51
0
0
LINE
5
101
100
AcDbEntity
8
0
100
AcDbLine
10
285.06624600000004
20
-130.89249599999999
30
0
11
285.06624599999998
21
-96.492532000000011
31
0
0
LINE
5
102
100
AcDbEntity
8
0
100
AcDbLine
10
285.06624599999998
20
-96.492532000000011
30
0
11
282.31636200000003
21
-96.492532000000011
31
0
0
ARC
5
103
100
AcDbEntity
8
0
100
AcDbCircle
10
282.31636200000003
20
-95.242532000000011
30
0
40
1.25
210
0
220
-0
230
1
100
AcDbArc
50
90
51
270
0
LINE
5
104
100
AcDbEntity
8
0
100
AcDbLine
10
282.31636200000003
20
-93.992532000000011
30
0
11
285.06636200000003
21
-93.992532000000011
31
0
0
LINE
5
105
100
AcDbEntity
8
0
100
AcDbLine
10
285.06636200000003
20
-93.992532000000011
30
0
11
285.06624599999998
21
-41.192495999999998
31
0
0
ARC
5
106
100
AcDbEntity
8
0
100
AcDbCircle
10
282.81624599999998
20
-41.192495999999998
30
0
40
2.2499999999999787
210
0
220
0
230
1
100
AcDbArc
50
0
51
90
0
LINE
5
107
100
AcDbEntity
8
0
100
AcDbLine
10
282.81624599999998
20
-38.942495999999998
30
0
11
277.03952800000002
21
-38.942496000000006
31
0
0
ARC
5
108
100
AcDbEntity
8
0
100
AcDbCircle
10
277.03952800000002
20
-40.442495999999998
30
0
40
1.4999999999999947
210
0
220
-0
230
1
100
AcDbArc
50
90
51
152.46013954984537
0
ARC
5
109
100
AcDbEntity
8
0
100
AcDbCircle
10
272.91642200000001
20
-38.292496
30
0
40
3.1499987640540041
210
0
220
0
230
1
100
AcDbArc
50
207.53983908514482
51
332.46014270032629
0
ARC
5
110
100
AcDbEntity
8
0
100
AcDbCircle
10
268.793317
20
-40.442495999999998
30
0
40
1.5000006812183921
210
0
220
-0
230
1
100
AcDbArc
50
27.539916361686217
51
90.000055911869694
0
LINE
5
111
100
AcDbEntity
8
0
100
AcDbLine
10
268.79331553623001
20
-38.94249531878171
30
0
11
251.614352
21
-38.942496000000006
31
0
0
ARC
5
112
100
AcDbEntity
8
0
100
AcDbCircle
10
251.614352
20
-40.442495999999998
30
0
40
1.4999999999999947
210
0
220
-0
230
1
100
AcDbArc
50
90
51
152.46013954984753
0
ARC
5
113
100
AcDbEntity
8
0
100
AcDbCircle
10
247.49124600000002
20
-38.292496
30
0
40
3.1499987640540041
210
0
220
0
230
1
100
AcDbArc
50
207.53983908514482
51
332.46014270032498
0
ARC
5
114
100
AcDbEntity
8
0
100
AcDbCircle
10
243.36814100000001
20
-40.442495999999998
30
0
40
1.5000006812183921
210
0
220
-0
230
1
100
AcDbArc
50
27.539916361686217
51
90.000055911870788
0
LINE
5
115
100
AcDbEntity
8
0
100
AcDbLine
10
243.36813953622999
20
-38.942495318782719
30
0
11
190.23992799999999
21
-38.942496000000006
31
0
0
ARC
5
116
100
AcDbEntity
8
0
100
AcDbCircle
10
190.23992799999999
20
-40.442495999999998
30
0
40
1.4999999999999947
210
0
220
-0
230
1
100
AcDbArc
50
90
51
152.46013954984585
0
ARC
5
117
100
AcDbEntity
8
0
100
AcDbCircle
10
186.11682200000001
20
-38.292496
30
0
40
3.1499987640544029
210
0
220
0
230
1
100
AcDbArc
50
207.53983908514468
51
332.46014270032578
0
ARC
5
118
100
AcDbEntity
8
0
100
AcDbCircle
10
181.993717
20
-40.442495999999998
30
0
40
1.5000006812179927
210
0
220
-0
230
1
100
AcDbArc
50
27.53991636168648
51
90.000055911869694
0
LINE
5
119
100
AcDbEntity
8
0
100
AcDbLine
10
181.99371553623001
20
-38.942495318782711
30
0
11
132.551928
21
-38.942496000000006
31
0
0
ARC
5
120
100
AcDbEntity
8
0
100
AcDbCircle
10
132.551851
20
-40.442495999999998
30
0
40
1.500000001976328
210
0
220
-0
230
1
100
AcDbArc
50
89.997058816654075
51
152.46010135660205
0
ARC
5
121
100
AcDbEntity
8
0
100
AcDbCircle
10
128.42874599999999
20
-38.292496
30
0
40
3.1499987640539961
210
0
220
0
230
1
100
AcDbArc
50
207.53983908514539
51
332.4601524775569
0
ARC
5
122
100
AcDbEntity
8
0
100
AcDbCircle
10
124.30564099999999
20
-40.442495999999998
30
0
40
1.5000006812183995
210
0
220
-0
230
1
100
AcDbArc
50
27.53991636168524
51
90.000055911869694
0
LINE
5
123
100
AcDbEntity
8
0
100
AcDbLine
10
124.30563953623
20
-38.94249531878171
30
0
11
103.438928
21
-38.942496000000006
31
0
0
ARC
5
124
100
AcDbEntity
8
0
100
AcDbCircle
10
103.438928
20
-40.442495999999998
30
0
40
1.4999999999999947
210
0
220
-0
230
1
100
AcDbArc
50
90
51
152.46013954984633
0
ARC
5
125
100
AcDbEntity
8
0
100
AcDbCircle
10
99.315822000000011
20
-38.292496
30
0
40
3.1499987640540041
210
0
220
0
230
1
100
AcDbArc
50
207.53983908514482
51
332.46014270032572
0
ARC
5
126
100
AcDbEntity
8
0
100
AcDbCircle
10
95.192717000000016
20
-40.442495999999998
30
0
40
1.5000006812183921
210
0
220
-0
230
1
100
AcDbArc
50
27.539916361686466
51
90.000055911679723
0
LINE
5
127
100
AcDbEntity
8
0
100
AcDbLine
10
95.192715536234999
20
-38.94249531878171
30
0
11
42.064352000000007
21
-38.942496000000006
31
0
0
ARC
5
128
100
AcDbEntity
8
0
100
AcDbCircle
10
42.064352000000007
20
-40.442495999999998
30
0
40
1.4999999999999947
210
0
220
-0
230
1
100
AcDbArc
50
90
51
152.46013954977653
0
ARC
5
129
100
AcDbEntity
8
0
100
AcDbCircle
10
37.941246
20
-38.292496
30
0
40
3.1499987640540001
210
0
220
0
230
1
100
AcDbArc
50
207.53983908514499
51
332.46014270035903
0
ARC
5
130
100
AcDbEntity
8
0
100
AcDbCircle
10
33.818140999999997
20
-40.442495999999998
30
0
40
1.5000006812183959
210
0
220
-0
230
1
100
AcDbArc
50
27.539916361685982
51
90.000055911678913
0
LINE
5
131
100
AcDbEntity
8
0
100
AcDbLine
10
33.818139536235002
20
-38.94249531878171
30
0
11
14.639352000000001
21
-38.942496000000006
31
0
0
ARC
5
132
100
AcDbEntity
8
0
100
AcDbCircle
10
14.639352000000001
20
-40.442495999999998
30
0
40
1.4999999999999947
210
0
220
-0
230
1
100
AcDbArc
50
90
51
152.46013954977565
0
ARC
5
133
100
AcDbEntity
8
0
100
AcDbCircle
10
10.516246000000001
20
-38.292496
30
0
40
3.1499987640540001
210
0
220
0
230
1
100
AcDbArc
50
207.53983908514499
51
332.46014270035937
0
ARC
5
134
100
AcDbEntity
8
0
100
AcDbCircle
10
6.393141
20
-40.442495999999998
30
0
40
1.5000006812183939
210
0
220
-0
230
1
100
AcDbArc
50
27.539916361686025
51
90.000055911679041
0
LINE
5
135
100
AcDbEntity
8
0
100
AcDbLine
10
6.393139536235001
20
-38.942495318781717
30
0
11
2.6162459999999998
21
-38.942496000000006
31
0
0
ARC
5
136
100
AcDbEntity
8
0
100
AcDbCircle
10
2.6162459999999998
20
-41.192495999999998
30
0
40
2.2499999999999964
210
0
220
-0
230
1
100
AcDbArc
50
90
51
180
0
LINE
5
137
100
AcDbEntity
8
0
100
AcDbLine
10
0.36624599999999979
20
-41.192495999999998
30
0
11
0.36624600000000002
21
-93.992532000000011
31
0
0
LINE
5
138
100
AcDbEntity
8
0
100
AcDbLine
10
0.36624600000000002
20
-93.992532000000011
30
0
11
3.1163620000000005
21
-93.992532000000011
31
0
0
ARC
5
139
100
AcDbEntity
8
0
100
AcDbCircle
10
3.1163620000000005
20
-95.242532000000011
30
0
40
1.25
210
0
220
0
230
1
100
AcDbArc
50
-90
51
90
0
LINE
5
140
100
AcDbEntity
8
0
100
AcDbLine
10
3.1163620000000005
20
-96.492532000000011
30
0
11
0.36636200000000008
21
-96.492532000000011
31
0
0
LINE
5
141
100
AcDbEntity
8
0
100
AcDbLine
10
0.36636200000000008
20
-96.492532000000011
30
0
11
0.36624550022862346
21
-130.89249600000312
31
0
0
ARC
5
142
100
AcDbEntity
8
0
100
AcDbCircle
10
2.6162459999999998
20
-130.89249599999999
30
0
40
2.2500004997713763
210
0
220
0
230
1
100
AcDbArc
50
180
51
270
0
LINE
5
143
100
AcDbEntity
8
0
100
AcDbLine
10
2.6162460000000003
20
-133.14249700000002
30
0
11
8.3926409999999994
21
-133.14249599999999
31
0
0
ARC
5
144
100
AcDbEntity
8
0
100
AcDbCircle
10
8.3926409999999994
20
-131.64249599999999
30
0
40
1.5000000000000036
210
0
220
0
230
1
100
AcDbArc
50
270
51
332.46013955078485
0
ARC
5
145
100
AcDbEntity
8
0
100
AcDbCircle
10
12.515746
20
-133.792495
30
0
40
3.1499992264189998
210
0
220
-0
230
1
100
AcDbArc
50
27.539855213266208
51
152.46015041796582
0
ARC
5
146
100
AcDbEntity
8
0
100
AcDbCircle
10
16.638852
20
-131.64249599999999
30
0
40
1.5000006431764685
210
0
220
0
230
1
100
AcDbArc
50
207.53983096258054
51
269.99997051258691
0
LINE
5
147
100
AcDbEntity
8
0
100
AcDbLine
10
16.638851228021
20
-133.14249664317578
30
0
11
48.105641000000006
21
-133.14249599999999
31
0
0
ARC
5
148
100
AcDbEntity
8
0
100
AcDbCircle
10
48.105641000000006
20
-131.64249599999999
30
0
40
1.5000000000000036
210
0
220
0
230
1
100
AcDbArc
50
270
51
332.46013955078485
0
ARC
5
149
100
AcDbEntity
8
0
100
AcDbCircle
10
52.228746000000008
20
-133.792495
30
0
40
3.149999226419002
210
0
220
-0
230
1
100
AcDbArc
50
27.539855213266193
51
152.46015041796588
0
ARC
5
150
100
AcDbEntity
8
0
100
AcDbCircle
10
56.351852000000008
20
-131.64249599999999
30
0
40
1.5000006431764625
210
0
220
0
230
1
100
AcDbArc
50
207.5398309625806
51
269.99997051258651
0
LINE
5
151
100
AcDbEntity
8
0
100
AcDbLine
10
56.351851228020998
20
-133.14249664317578
30
0
11
95.192640999999995
21
-133.14249599999999
31
0
0
ARC
5
152
100
AcDbEntity
8
0
100
AcDbCircle
10
95.192640999999995
20
-131.64249599999999
30
0
40
1.5000000000000036
210
0
220
0
230
1
100
AcDbArc
50
270
51
332.46013955078496
0
ARC
5
153
100
AcDbEntity
8
0
100
AcDbCircle
10
99.315746000000019
20
-133.792495
30
0
40
3.149999226419002
210
0
220
-0
230
1
100
AcDbArc
50
27.539855213266318
51
152.46015041796596
0
ARC
5
154
100
AcDbEntity
8
0
100
AcDbCircle
10
103.43885200000001
20
-131.64249599999999
30
0
40
1.5000006431764625
210
0
220
0
230
1
100
AcDbArc
50
207.53983096258045
51
269.99997051254826
0
LINE
5
155
100
AcDbEntity
8
0
100
AcDbLine
10
103.43885122802
20
-133.1424966431758
30
0
11
181.99264099999999
21
-133.14249599999999
31
0
0
ARC
5
156
100
AcDbEntity
8
0
100
AcDbCircle
10
181.99264099999999
20
-131.64249599999999
30
0
40
1.5000000000000036
210
0
220
0
230
1
100
AcDbArc
50
270
51
332.4601395506798
0
ARC
5
157
100
AcDbEntity
8
0
100
AcDbCircle
10
186.115746
20
-133.792495
30
0
40
3.149999226419002
210
0
220
-0
230
1
100
AcDbArc
50
27.539855213266073
51
152.46015041801593
0
ARC
5
158
100
AcDbEntity
8
0
100
AcDbCircle
10
190.23885200000001
20
-131.64249599999999
30
0
40
1.5000006431764783
210
0
220
0
230
1
100
AcDbArc
50
207.53983096258068
51
269.99997051254826
0
LINE
5
159
100
AcDbEntity
8
0
100
AcDbLine
10
190.23885122802
20
-133.1424966431758
30
0
11
229.08064100000004
21
-133.14249599999999
31
0
0
ARC
5
160
100
AcDbEntity
8
0
100
AcDbCircle
10
229.08064100000004
20
-131.64249599999999
30
0
40
1.5000000000000036
210
0
220
0
230
1
100
AcDbArc
50
270
51
332.46013955067838
0
ARC
5
161
100
AcDbEntity
8
0
100
AcDbCircle
10
233.20374600000002
20
-133.792495
30
0
40
3.149999226419002
210
0
220
-0
230
1
100
AcDbArc
50
27.539855213266318
51
152.46015041801638
0
ARC
5
162
100
AcDbEntity
8
0
100
AcDbCircle
10
237.32685200000003
20
-131.64249599999999
30
0
40
1.5000006431764783
210
0
220
0
230
1
100
AcDbArc
50
207.5398309625802
51
269.99997051254718
0
LINE
5
163
100
AcDbEntity
8
0
100
AcDbLine
10
237.32685122801999
20
-133.1424966431758
30
0
11
268.79364099999998
21
-133.14249599999999
31
0
0
LINE
5
164
100
AcDbEntity
8
0
100
AcDbLine
10
277.03985122801998
20
-133.1424966431758
30
0
11
282.81624599999998
21
-133.14249599999999
31
0
0
CIRCLE
5
165
100
AcDbEntity
8
0
100
AcDbCircle
10
9.3662500000000009
20
-47.94250000000001
30
0
40
1.9939
210
0
220
0
230
1
0
ARC
5
166
100
AcDbEntity
8
0
100
AcDbCircle
10
268.79364100000004
20
-131.64249599999999
30
0
40
1.5000000000000036
210
0
220
0
230
1
100
AcDbArc
50
270
51
332.46013955067787
0
ARC
5
167
100
AcDbEntity
8
0
100
AcDbCircle
10
277.039852
20
-131.64249599999999
30
0
40
1.5000006431764783
210
0
220
0
230
1
100
AcDbArc
50
207.53983096258068
51
269.99997051254826
0
ARC
5
168
100
AcDbEntity
8
0
100
AcDbCircle
10
272.91674599999999
20
-133.792495
30
0
40
3.149999226419002
210
0
220
-0
230
1
100
AcDbArc
50
27.539855213266073
51
152.46015041801638
0
ENDSEC
0
SECTION
2
OBJECTS
0
DICTIONARY
5
C
100
AcDbDictionary
3
ACAD_GROUP
350
D
3
ACAD_MLINESTYLE
350
17
0
DICTIONARY
5
D
100
AcDbDictionary
0
DICTIONARY
5
1A
330
C
100
AcDbDictionary
0
DICTIONARY
5
17
100
AcDbDictionary
0
ENDSEC
0
EOF
