G04 #@! TF.GenerationSoftware,KiCad,Pcbnew,(5.1.11)-1*
G04 #@! TF.CreationDate,2022-09-22T16:50:08+07:00*
G04 #@! TF.ProjectId,Satxri6key,53617478-7269-4366-9b65-792e6b696361,rev?*
G04 #@! TF.SameCoordinates,Original*
G04 #@! TF.FileFunction,Copper,L1,Top*
G04 #@! TF.FilePolarity,Positive*
%FSLAX45Y45*%
G04 Gerber Fmt 4.5, Leading zero omitted, Abs format (unit mm)*
G04 Created by KiCad (PCBNEW (5.1.11)-1) date 2022-09-22 16:50:08*
%MOMM*%
%LPD*%
G01*
G04 APERTURE LIST*
G04 #@! TA.AperFunction,ComponentPad*
%ADD10C,1.700000*%
G04 #@! TD*
G04 #@! TA.AperFunction,ComponentPad*
%ADD11C,2.000000*%
G04 #@! TD*
G04 #@! TA.AperFunction,ComponentPad*
%ADD12O,2.000000X3.200000*%
G04 #@! TD*
G04 #@! TA.AperFunction,ComponentPad*
%ADD13C,3.800000*%
G04 #@! TD*
G04 #@! TA.AperFunction,ComponentPad*
%ADD14O,1.000000X1.600000*%
G04 #@! TD*
G04 #@! TA.AperFunction,ComponentPad*
%ADD15O,1.000000X2.100000*%
G04 #@! TD*
G04 #@! TA.AperFunction,ComponentPad*
%ADD16C,0.500000*%
G04 #@! TD*
G04 #@! TA.AperFunction,ViaPad*
%ADD17C,0.600000*%
G04 #@! TD*
G04 #@! TA.AperFunction,Conductor*
%ADD18C,0.400000*%
G04 #@! TD*
G04 #@! TA.AperFunction,Conductor*
%ADD19C,1.000000*%
G04 #@! TD*
G04 #@! TA.AperFunction,Conductor*
%ADD20C,0.200000*%
G04 #@! TD*
G04 APERTURE END LIST*
D10*
X25981600Y-10039400D03*
X25981600Y-9785400D03*
X25981600Y-9531400D03*
X25981600Y-9277400D03*
D11*
X24515104Y-10275040D03*
X24765104Y-10275040D03*
X25015104Y-10275040D03*
D12*
X24205104Y-9525040D03*
X25325104Y-9525040D03*
D11*
X24515104Y-8825040D03*
X25015104Y-8825040D03*
D10*
X27457400Y-8864600D03*
X27277795Y-9044205D03*
X27637005Y-8684995D03*
D13*
X23872051Y-8691570D03*
X29467993Y-14168449D03*
X29467993Y-8691570D03*
X23872051Y-14168449D03*
D10*
X29349029Y-10009229D03*
X29349029Y-9755229D03*
D14*
X27102112Y-8177689D03*
X26238112Y-8177689D03*
D15*
X27102112Y-8595690D03*
X26238112Y-8595690D03*
D16*
X28111400Y-10064800D03*
X28228900Y-10064800D03*
X28346400Y-10064800D03*
X28463900Y-10064800D03*
X28581400Y-10064800D03*
X28111400Y-9947300D03*
X28228900Y-9947300D03*
X28346400Y-9947300D03*
X28463900Y-9947300D03*
X28581400Y-9947300D03*
X28111400Y-9829800D03*
X28228900Y-9829800D03*
X28346400Y-9829800D03*
X28463900Y-9829800D03*
X28581400Y-9829800D03*
X28111400Y-9712300D03*
X28228900Y-9712300D03*
X28346400Y-9712300D03*
X28463900Y-9712300D03*
X28581400Y-9712300D03*
X28111400Y-9594800D03*
X28228900Y-9594800D03*
X28346400Y-9594800D03*
X28463900Y-9594800D03*
X28581400Y-9594800D03*
G04 #@! TA.AperFunction,SMDPad,CuDef*
G36*
G01*
X28086400Y-10064800D02*
X28086400Y-9594800D01*
G75*
G02*
X28111400Y-9569800I25000J0D01*
G01*
X28581400Y-9569800D01*
G75*
G02*
X28606400Y-9594800I0J-25000D01*
G01*
X28606400Y-10064800D01*
G75*
G02*
X28581400Y-10089800I-25000J0D01*
G01*
X28111400Y-10089800D01*
G75*
G02*
X28086400Y-10064800I0J25000D01*
G01*
G37*
G04 #@! TD.AperFunction*
D17*
X25664960Y-13698690D03*
X25667269Y-12077131D03*
X27569960Y-13692340D03*
X27569960Y-12079440D03*
X26914520Y-9255080D03*
X27752040Y-9108440D03*
X28956000Y-10393680D03*
X28956000Y-9545320D03*
X27716480Y-10256520D03*
X27843480Y-9774560D03*
X27700440Y-13996200D03*
X27700440Y-11801640D03*
X25795440Y-11804180D03*
X25795440Y-13991120D03*
X26992500Y-9385380D03*
X26620745Y-10039625D03*
X26428288Y-9476328D03*
X29095700Y-10458920D03*
X24305083Y-11863000D03*
X26545000Y-9323800D03*
X26600785Y-10239375D03*
X26802080Y-9326880D03*
X26913840Y-9525000D03*
X27971750Y-9215760D03*
X28547231Y-9253086D03*
X28982600Y-11863000D03*
X29020700Y-13768000D03*
X28168600Y-10528300D03*
X28613100Y-10528300D03*
X23825200Y-11176000D03*
X23825200Y-13081000D03*
X25730200Y-11176000D03*
X25730200Y-13081000D03*
X27635200Y-11176000D03*
X27635200Y-13081000D03*
X26670000Y-10323200D03*
X28473400Y-9271000D03*
X26731103Y-10378440D03*
X28529635Y-9326240D03*
X23880440Y-11887200D03*
X23926170Y-10433680D03*
D18*
X25664960Y-12075960D02*
X25664960Y-13698690D01*
X27569960Y-12075960D02*
X27569960Y-12079440D01*
X27569960Y-12079440D02*
X27569960Y-13692340D01*
X26067625Y-9700625D02*
X25982625Y-9785625D01*
X26513170Y-9255080D02*
X26067625Y-9700625D01*
X26914520Y-9255080D02*
X26513170Y-9255080D01*
X28956000Y-9545320D02*
X28956000Y-9545320D01*
X27752040Y-9108440D02*
X28519120Y-9108440D01*
X28519120Y-9108440D02*
X28956000Y-9545320D01*
X28956000Y-9545320D02*
X28956000Y-10393680D01*
X27569960Y-12079440D02*
X27569960Y-10403040D01*
X27569960Y-10403040D02*
X27716480Y-10256520D01*
X27716480Y-10256520D02*
X27716480Y-9901560D01*
X27716480Y-9901560D02*
X27843480Y-9774560D01*
X27853640Y-10393680D02*
X27716480Y-10256520D01*
X28956000Y-10393680D02*
X27853640Y-10393680D01*
X27605400Y-9255080D02*
X27752040Y-9108440D01*
X26914520Y-9255080D02*
X27605400Y-9255080D01*
X27700440Y-13996200D02*
X27700440Y-11801640D01*
X25795440Y-13991120D02*
X25795440Y-11804180D01*
X26992500Y-9667870D02*
X26992500Y-9385380D01*
X26620745Y-10039625D02*
X26992500Y-9667870D01*
X25982625Y-10039625D02*
X26358575Y-10039625D01*
X26428288Y-9969912D02*
X26428288Y-9476328D01*
X26358575Y-10039625D02*
X26428288Y-9969912D01*
X25795440Y-10226810D02*
X25982625Y-10039625D01*
X25795440Y-11804180D02*
X25795440Y-10226810D01*
X27700440Y-11801640D02*
X27700440Y-10704360D01*
X27945880Y-10458920D02*
X27700440Y-10704360D01*
X29095700Y-10458920D02*
X27945880Y-10458920D01*
X26386680Y-10443680D02*
X25982625Y-10039625D01*
X27724100Y-9632950D02*
X26913370Y-10443680D01*
X28346400Y-9829800D02*
X28149550Y-9632950D01*
X26913370Y-10443680D02*
X26386680Y-10443680D01*
D19*
X28149550Y-9632950D02*
X27724100Y-9632950D01*
D18*
X24765104Y-10275040D02*
X24050726Y-10989418D01*
X24050726Y-10989418D02*
X24050726Y-11608642D01*
X24050726Y-11608642D02*
X24305083Y-11863000D01*
X24305083Y-11863000D02*
X24305083Y-11863000D01*
D20*
X26545000Y-10183590D02*
X26600785Y-10239375D01*
X26545000Y-9323800D02*
X26545000Y-10183590D01*
X26802080Y-9413240D02*
X26913840Y-9525000D01*
X26802080Y-9326880D02*
X26802080Y-9413240D01*
X27971750Y-9215760D02*
X28509905Y-9215760D01*
X28509905Y-9215760D02*
X28547231Y-9253086D01*
X29317950Y-13470750D02*
X29020700Y-13768000D01*
X28982600Y-11863000D02*
X29317950Y-12198350D01*
X29317950Y-12198350D02*
X29317950Y-13470750D01*
X28168600Y-10528300D02*
X28613100Y-10528300D01*
X23825200Y-11176000D02*
X23825200Y-13081000D01*
X25730200Y-11176000D02*
X25730200Y-13081000D01*
X27635200Y-11176000D02*
X27635200Y-13081000D01*
X27722200Y-9271000D02*
X28473400Y-9271000D01*
X26670000Y-10323200D02*
X27722200Y-9271000D01*
X26731103Y-10378440D02*
X27783303Y-9326240D01*
X27783303Y-9326240D02*
X28529635Y-9326240D01*
X23880440Y-11887200D02*
X23880440Y-10479410D01*
X23880440Y-10479410D02*
X23926170Y-10433680D01*
X25015104Y-10275040D02*
X25206344Y-10083800D01*
X25206344Y-10083800D02*
X25666700Y-10083800D01*
X25666700Y-10083800D02*
X25793700Y-9956800D01*
X25793700Y-9956800D02*
X25793700Y-9156700D01*
X25906195Y-9044205D02*
X25793700Y-9156700D01*
X27277795Y-9044205D02*
X25906195Y-9044205D01*
X26035962Y-8864600D02*
X25758459Y-9142103D01*
X27457400Y-8864600D02*
X26035962Y-8864600D01*
X25758459Y-9142103D02*
X25758459Y-9942203D01*
X25758459Y-9942203D02*
X25652103Y-10048559D01*
X24741585Y-10048559D02*
X24515104Y-10275040D01*
X25652103Y-10048559D02*
X24741585Y-10048559D01*
X25015104Y-8825040D02*
X27204860Y-8825040D01*
X27344905Y-8684995D02*
X27637005Y-8684995D01*
X27204860Y-8825040D02*
X27344905Y-8684995D01*
M02*
