M48
; DRILL file {KiCad (5.1.12)-1} date 11/23/22 00:37:34
; FORMAT={-:-/ absolute / inch / decimal}
; #@! TF.CreationDate,2022-11-23T00:37:34+07:00
; #@! TF.GenerationSoftware,Kicad,Pcbnew,(5.1.12)-1
; #@! TF.FileFunction,NonPlated,1,2,NPTH
FMAT,2
INCH
T1C0.0256
T2C0.0689
T3C0.1200
T4C0.1570
%
G90
G05
T1
X12.2711Y-0.9011
X12.2711Y-0.9011
X12.4986Y-0.9011
X12.4986Y-0.9011
T2
X1.2161Y-1.3085
X1.2161Y-2.246
X1.3098Y-3.746
X1.3098Y-4.496
X1.3098Y-5.246
X1.4036Y-2.996
X1.4036Y-5.246
X1.4973Y-3.746
X1.6161Y-1.3085
X1.6161Y-2.246
X1.6848Y-4.496
X1.7098Y-3.746
X1.7098Y-4.496
X1.7098Y-5.246
X1.8036Y-2.996
X1.8036Y-5.246
X1.8973Y-3.746
X1.9661Y-2.246
X2.0848Y-4.496
X2.1536Y-1.3085
X2.1536Y-4.496
X2.2473Y-5.246
X2.3411Y-2.996
X2.3411Y-5.246
X2.3661Y-2.246
X2.5286Y-3.746
X2.5536Y-1.3085
X2.5536Y-4.496
X2.6473Y-5.246
X2.7161Y-1.3085
X2.7161Y-2.246
X2.7411Y-2.996
X2.7411Y-5.246
X2.9036Y-1.3085
X2.9036Y-4.496
X2.9286Y-3.746
X3.0911Y-2.996
X3.1161Y-1.3085
X3.1161Y-2.246
X3.1848Y-5.246
X3.2786Y-3.746
X3.2786Y-5.246
X3.3036Y-1.3085
X3.3036Y-4.496
X3.4661Y-1.3085
X3.4661Y-2.246
X3.4911Y-2.996
X3.5848Y-5.246
X3.6536Y-1.3085
X3.6536Y-4.496
X3.6786Y-3.746
X3.6786Y-5.246
X3.8411Y-2.996
X3.8661Y-1.3085
X3.8661Y-2.246
X4.0286Y-3.746
X4.0536Y-1.3085
X4.0536Y-4.496
X4.2161Y-1.3085
X4.2161Y-2.246
X4.2411Y-2.996
X4.4036Y-1.3085
X4.4036Y-4.496
X4.4286Y-3.746
X4.5911Y-2.996
X4.6161Y-1.3085
X4.6161Y-2.246
X4.7786Y-3.746
X4.8036Y-1.3085
X4.8036Y-4.496
X4.9661Y-1.3085
X4.9661Y-2.246
X4.9911Y-2.996
X5.1536Y-4.496
X5.1786Y-3.746
X5.3411Y-1.3085
X5.3411Y-2.996
X5.3661Y-1.3085
X5.3661Y-2.246
X5.5286Y-3.746
X5.5536Y-4.496
X5.7161Y-2.246
X5.7411Y-1.3085
X5.7411Y-2.996
X5.9036Y-4.496
X5.9286Y-3.746
X5.9973Y-5.246
X6.0911Y-1.3085
X6.0911Y-2.996
X6.1161Y-2.246
X6.2786Y-3.746
X6.3036Y-4.496
X6.3973Y-5.246
X6.4661Y-2.246
X6.4661Y-5.246
X6.4911Y-1.3085
X6.4911Y-2.996
X6.6536Y-4.496
X6.6786Y-3.746
X6.8411Y-1.3085
X6.8411Y-2.996
X6.8661Y-2.246
X6.8661Y-5.246
X7.0286Y-3.746
X7.0536Y-4.496
X7.2161Y-2.246
X7.2411Y-1.3085
X7.2411Y-2.996
X7.4036Y-4.496
X7.4286Y-3.746
X7.5911Y-1.3085
X7.5911Y-2.996
X7.6161Y-2.246
X7.7786Y-3.746
X7.8036Y-4.496
X7.9661Y-2.246
X7.9911Y-1.3085
X7.9911Y-2.996
X8.1536Y-4.496
X8.1786Y-3.746
X8.3411Y-1.3085
X8.3411Y-2.996
X8.3661Y-2.246
X8.5286Y-1.3085
X8.5286Y-3.746
X8.5536Y-4.496
X8.7161Y-2.246
X8.7411Y-1.3085
X8.7411Y-2.996
X8.8098Y-5.246
X8.9036Y-4.496
X8.9286Y-1.3085
X8.9286Y-3.746
X9.0911Y-2.996
X9.1161Y-2.246
X9.2098Y-5.246
X9.2786Y-1.3085
X9.2786Y-3.746
X9.3036Y-4.496
X9.4661Y-1.3085
X9.4661Y-2.246
X9.4911Y-2.996
X9.6536Y-4.496
X9.6536Y-5.246
X9.6786Y-1.3085
X9.6786Y-3.746
X9.7473Y-5.246
X9.8411Y-2.996
X9.8661Y-1.3085
X9.8661Y-2.246
X10.0286Y-1.3085
X10.0286Y-3.746
X10.0536Y-4.496
X10.0536Y-5.246
X10.1473Y-5.246
X10.2161Y-1.3085
X10.2161Y-2.246
X10.2411Y-2.996
X10.4286Y-1.3085
X10.4286Y-3.746
X10.5911Y-2.996
X10.5911Y-5.246
X10.6161Y-1.3085
X10.6161Y-2.246
X10.6848Y-4.496
X10.6848Y-5.246
X10.7786Y-1.3085
X10.7786Y-3.746
X10.9661Y-1.3085
X10.9661Y-2.246
X10.9911Y-2.996
X10.9911Y-5.246
X11.0598Y-4.496
X11.0848Y-4.496
X11.0848Y-5.246
X11.1786Y-1.3085
X11.1786Y-3.746
X11.2473Y-3.746
X11.3411Y-2.246
X11.3661Y-1.3085
X11.3661Y-2.246
X11.4598Y-4.496
X11.5286Y-2.996
X11.5286Y-5.246
X11.6223Y-5.246
X11.6473Y-3.746
X11.7161Y-1.3085
X11.7161Y-2.246
X11.7161Y-4.496
X11.7411Y-2.246
X11.8223Y-3.171
X11.8223Y-3.571
X11.9286Y-2.996
X11.9286Y-5.246
X12.0223Y-5.246
X12.1161Y-1.3085
X12.1161Y-2.246
X12.1161Y-4.496
X12.6536Y-1.3085
X12.6536Y-2.246
X12.6536Y-2.996
X12.6536Y-5.246
X13.0536Y-1.3085
X13.0536Y-2.246
X13.0536Y-2.996
X13.0536Y-5.246
X13.4036Y-1.3085
X13.4036Y-2.246
X13.4036Y-2.996
X13.4036Y-4.496
X13.4036Y-5.246
X13.8036Y-1.3085
X13.8036Y-2.246
X13.8036Y-2.996
X13.8036Y-4.496
X13.8036Y-5.246
X14.1536Y-1.3085
X14.1536Y-2.246
X14.1536Y-2.996
X14.1536Y-5.246
X14.5536Y-1.3085
X14.5536Y-2.246
X14.5536Y-2.996
X14.5536Y-5.246
T3
X1.4161Y-4.221
X2.3536Y-4.221
X4.2288Y-5.521
X4.4161Y-5.521
X8.1658Y-5.521
X8.9161Y-5.521
X10.7911Y-4.221
X10.9786Y-4.021
X11.0723Y-1.971
X11.7286Y-4.221
X11.9161Y-4.021
X12.0098Y-1.971
X12.0973Y-2.901
X12.0973Y-3.841
T4
X1.4161Y-1.3085
X1.4161Y-2.246
X1.4161Y-4.821
X1.5098Y-3.746
X1.5098Y-4.496
X1.5098Y-5.246
X1.6036Y-2.996
X1.6036Y-5.246
X1.6973Y-3.746
X1.8848Y-4.496
X2.1661Y-2.246
X2.3536Y-1.3085
X2.3536Y-4.496
X2.3536Y-4.821
X2.4473Y-5.246
X2.5411Y-2.996
X2.5411Y-5.246
X2.7286Y-3.746
X2.9161Y-1.3085
X2.9161Y-2.246
X3.1036Y-1.3085
X3.1036Y-4.496
X3.2911Y-2.996
X3.3848Y-5.246
X3.4786Y-3.746
X3.4786Y-5.246
X3.6661Y-1.3085
X3.6661Y-2.246
X3.8536Y-1.3085
X3.8536Y-4.496
X4.0411Y-2.996
X4.2286Y-3.746
X4.2288Y-4.921
X4.4161Y-1.3085
X4.4161Y-2.246
X4.4161Y-4.921
X4.6036Y-1.3085
X4.6036Y-4.496
X4.7911Y-2.996
X4.9786Y-3.746
X5.1661Y-1.3085
X5.1661Y-2.246
X5.3536Y-4.496
X5.5411Y-1.3085
X5.5411Y-2.996
X5.7286Y-3.746
X5.9161Y-2.246
X6.1036Y-4.496
X6.1973Y-5.246
X6.2911Y-1.3085
X6.2911Y-2.996
X6.4786Y-3.746
X6.6661Y-2.246
X6.6661Y-5.246
X6.8536Y-4.496
X7.0411Y-1.3085
X7.0411Y-2.996
X7.2286Y-3.746
X7.4161Y-2.246
X7.6036Y-4.496
X7.7911Y-1.3085
X7.7911Y-2.996
X7.9786Y-3.746
X8.1658Y-4.921
X8.1661Y-2.246
X8.3536Y-4.496
X8.5411Y-1.3085
X8.5411Y-2.996
X8.7286Y-1.3085
X8.7286Y-3.746
X8.9161Y-2.246
X8.9161Y-4.921
X9.0098Y-5.246
X9.1036Y-4.496
X9.2911Y-2.996
X9.4786Y-1.3085
X9.4786Y-3.746
X9.6661Y-1.3085
X9.6661Y-2.246
X9.8536Y-4.496
X9.8536Y-5.246
X9.9473Y-5.246
X10.0411Y-2.996
X10.2286Y-1.3085
X10.2286Y-3.746
X10.4161Y-1.3085
X10.4161Y-2.246
X10.7911Y-2.996
X10.7911Y-4.821
X10.7911Y-5.246
X10.8848Y-4.496
X10.8848Y-5.246
X10.9786Y-1.3085
X10.9786Y-3.421
X10.9786Y-3.746
X11.0723Y-2.571
X11.1661Y-1.3085
X11.1661Y-2.246
X11.2598Y-4.496
X11.4473Y-3.746
X11.4973Y-2.901
X11.4973Y-3.841
X11.5411Y-2.246
X11.7286Y-2.996
X11.7286Y-4.821
X11.7286Y-5.246
X11.8223Y-3.371
X11.8223Y-5.246
X11.9161Y-1.3085
X11.9161Y-2.246
X11.9161Y-3.421
X11.9161Y-4.496
X12.0098Y-2.571
X12.8536Y-1.3085
X12.8536Y-2.246
X12.8536Y-2.996
X12.8536Y-5.246
X13.6036Y-1.3085
X13.6036Y-2.246
X13.6036Y-2.996
X13.6036Y-4.496
X13.6036Y-5.246
X14.3536Y-1.3085
X14.3536Y-2.246
X14.3536Y-2.996
X14.3536Y-5.246
T0
M30
