M48
; DRILL file {KiCad (5.1.12)-1} date 11/23/22 00:37:34
; FORMAT={-:-/ absolute / inch / decimal}
; #@! TF.CreationDate,2022-11-23T00:37:34+07:00
; #@! TF.GenerationSoftware,Kicad,Pcbnew,(5.1.12)-1
; #@! TF.FileFunction,Plated,1,2,PTH
FMAT,2
INCH
T1C0.0079
T2C0.0118
T3C0.0157
T4C0.0197
T5C0.0236
T6C0.0409
T7C0.0669
%
G90
G05
T1
X2.0427Y-3.9232
X2.0755Y-3.8905
X2.0755Y-3.9559
X2.1082Y-3.8578
X2.1082Y-3.9232
X2.1082Y-3.9886
X2.1409Y-3.8251
X2.1409Y-3.8905
X2.1409Y-3.9559
X2.1409Y-4.0213
X2.1736Y-3.7924
X2.1736Y-3.8578
X2.1736Y-3.9232
X2.1736Y-3.9886
X2.1736Y-4.0541
X2.2063Y-3.8251
X2.2063Y-3.8905
X2.2063Y-3.9559
X2.2063Y-4.0213
X2.239Y-3.8578
X2.239Y-3.9232
X2.239Y-3.9886
X2.2717Y-3.8905
X2.2717Y-3.9559
X2.3044Y-3.9232
T2
X1.2247Y-1.2085
X1.2247Y-2.146
X1.2661Y-1.1672
X1.2661Y-1.2499
X1.2661Y-2.1047
X1.2661Y-2.1874
X1.3009Y-4.872
X1.3074Y-1.2085
X1.3074Y-2.146
X1.3185Y-3.646
X1.3185Y-4.396
X1.3185Y-5.146
X1.3598Y-3.6047
X1.3598Y-3.6874
X1.3598Y-4.3547
X1.3598Y-4.4374
X1.3598Y-5.1047
X1.3598Y-5.1874
X1.4012Y-3.646
X1.4012Y-4.396
X1.4012Y-5.146
X1.4122Y-2.896
X1.4122Y-5.146
X1.4536Y-2.8547
X1.4536Y-2.9374
X1.4536Y-5.1047
X1.4536Y-5.1874
X1.4747Y-1.1085
X1.4747Y-2.046
X1.4949Y-2.896
X1.4949Y-5.146
X1.506Y-3.646
X1.5161Y-1.0672
X1.5161Y-1.1499
X1.5161Y-2.0047
X1.5161Y-2.0874
X1.5234Y-4.0878
X1.5473Y-3.6047
X1.5473Y-3.6874
X1.5574Y-1.1085
X1.5574Y-2.046
X1.5685Y-3.546
X1.5685Y-4.296
X1.5685Y-5.046
X1.5887Y-3.646
X1.5971Y-1.4818
X1.6098Y-3.5047
X1.6098Y-3.5874
X1.6098Y-4.2547
X1.6098Y-4.3374
X1.6098Y-5.0047
X1.6098Y-5.0874
X1.6384Y-4.6142
X1.6512Y-3.546
X1.6512Y-4.296
X1.6512Y-5.046
X1.6622Y-2.796
X1.6622Y-5.046
X1.6718Y-4.6142
X1.6935Y-4.396
X1.7036Y-2.7547
X1.7036Y-2.8374
X1.7036Y-5.0047
X1.7036Y-5.0874
X1.7348Y-4.3547
X1.7348Y-4.4374
X1.7449Y-2.796
X1.7449Y-5.046
X1.756Y-3.546
X1.7762Y-4.396
X1.7973Y-3.5047
X1.7973Y-3.5874
X1.8387Y-3.546
X1.8681Y-1.598
X1.8782Y-4.1931
X1.8927Y-4.1459
X1.9016Y-1.598
X1.9223Y-4.0353
X1.9238Y-4.1695
X1.9245Y-3.8265
X1.9435Y-4.296
X1.9436Y-2.4272
X1.9509Y-3.9789
X1.9509Y-3.8536
X1.9672Y-2.3957
X1.9747Y-2.146
X1.9848Y-4.2547
X1.9848Y-4.3374
X2.0161Y-2.1047
X2.0161Y-2.1874
X2.026Y-3.7244
X2.0262Y-4.296
X2.0358Y-3.313
X2.0364Y-4.1909
X2.0574Y-2.146
X2.0594Y-3.3366
X2.0614Y-3.7431
X2.0853Y-5.4272
X2.0977Y-4.1791
X2.109Y-5.3957
X2.1179Y-4.1459
X2.1342Y-3.4035
X2.1576Y-1.4818
X2.1578Y-3.4272
X2.1622Y-1.2085
X2.1622Y-4.396
X2.1815Y-3.4035
X2.2036Y-1.1672
X2.2036Y-1.2499
X2.2036Y-4.3547
X2.2036Y-4.4374
X2.2051Y-3.1772
X2.2051Y-3.4272
X2.2247Y-2.046
X2.2287Y-3.1457
X2.2287Y-3.4035
X2.2354Y-3.7222
X2.2449Y-1.2085
X2.2449Y-4.396
X2.256Y-5.146
X2.2661Y-2.0047
X2.2661Y-2.0874
X2.2752Y-3.6379
X2.2766Y-3.72
X2.2973Y-5.1047
X2.2973Y-5.1874
X2.3027Y-3.6927
X2.3074Y-2.046
X2.3387Y-5.146
X2.3497Y-2.896
X2.3497Y-5.146
X2.3911Y-2.8547
X2.3911Y-2.9374
X2.3911Y-5.1047
X2.3911Y-5.1874
X2.3983Y-3.967
X2.4122Y-1.1085
X2.4122Y-4.296
X2.4143Y-3.7854
X2.4324Y-2.896
X2.4324Y-5.146
X2.4361Y-3.9658
X2.4536Y-1.0672
X2.4536Y-1.1499
X2.4536Y-4.2547
X2.4536Y-4.3374
X2.4949Y-1.1085
X2.4949Y-4.296
X2.506Y-5.046
X2.5372Y-3.646
X2.5473Y-5.0047
X2.5473Y-5.0874
X2.5786Y-3.6047
X2.5786Y-3.6874
X2.5887Y-5.046
X2.5997Y-2.796
X2.5997Y-5.046
X2.6199Y-3.646
X2.6411Y-2.7547
X2.6411Y-2.8374
X2.6411Y-5.0047
X2.6411Y-5.0874
X2.6824Y-2.796
X2.6824Y-5.046
X2.7247Y-1.2085
X2.7247Y-2.146
X2.7661Y-1.1672
X2.7661Y-1.2499
X2.7661Y-2.1047
X2.7661Y-2.1874
X2.7872Y-3.546
X2.8074Y-1.2085
X2.8074Y-2.146
X2.8286Y-3.5047
X2.8286Y-3.5874
X2.8699Y-3.546
X2.9122Y-1.2085
X2.9122Y-4.396
X2.9536Y-1.1672
X2.9536Y-1.2499
X2.9536Y-4.3547
X2.9536Y-4.4374
X2.9747Y-1.1085
X2.9747Y-2.046
X2.9949Y-1.2085
X2.9949Y-4.396
X3.0161Y-1.0672
X3.0161Y-1.1499
X3.0161Y-2.0047
X3.0161Y-2.0874
X3.0574Y-1.1085
X3.0574Y-2.046
X3.0997Y-2.896
X3.1411Y-2.8547
X3.1411Y-2.9374
X3.1622Y-1.1085
X3.1622Y-4.296
X3.1824Y-2.896
X3.1935Y-5.146
X3.2036Y-1.0672
X3.2036Y-1.1499
X3.2036Y-4.2547
X3.2036Y-4.3374
X3.2348Y-5.1047
X3.2348Y-5.1874
X3.2449Y-1.1085
X3.2449Y-4.296
X3.2762Y-5.146
X3.2872Y-3.646
X3.2872Y-5.146
X3.3286Y-3.6047
X3.3286Y-3.6874
X3.3286Y-5.1047
X3.3286Y-5.1874
X3.3497Y-2.796
X3.3699Y-3.646
X3.3699Y-5.146
X3.3911Y-2.7547
X3.3911Y-2.8374
X3.4324Y-2.796
X3.4435Y-5.046
X3.4747Y-1.2085
X3.4747Y-2.146
X3.4848Y-5.0047
X3.4848Y-5.0874
X3.5161Y-1.1672
X3.5161Y-1.2499
X3.5161Y-2.1047
X3.5161Y-2.1874
X3.5262Y-5.046
X3.5372Y-3.546
X3.5372Y-5.046
X3.5574Y-1.2085
X3.5574Y-2.146
X3.5786Y-3.5047
X3.5786Y-3.5874
X3.5786Y-5.0047
X3.5786Y-5.0874
X3.6199Y-3.546
X3.6199Y-5.046
X3.6622Y-1.2085
X3.6622Y-4.396
X3.7036Y-1.1672
X3.7036Y-1.2499
X3.7036Y-4.3547
X3.7036Y-4.4374
X3.7247Y-1.1085
X3.7247Y-2.046
X3.7449Y-1.2085
X3.7449Y-4.396
X3.7661Y-1.0672
X3.7661Y-1.1499
X3.7661Y-2.0047
X3.7661Y-2.0874
X3.8074Y-1.1085
X3.8074Y-2.046
X3.8497Y-2.896
X3.8911Y-2.8547
X3.8911Y-2.9374
X3.9122Y-1.1085
X3.9122Y-4.296
X3.9324Y-2.896
X3.9536Y-1.0672
X3.9536Y-1.1499
X3.9536Y-4.2547
X3.9536Y-4.3374
X3.9949Y-1.1085
X3.9949Y-4.296
X4.0372Y-3.646
X4.0786Y-3.6047
X4.0786Y-3.6874
X4.0997Y-2.796
X4.1199Y-3.646
X4.1411Y-2.7547
X4.1411Y-2.8374
X4.1824Y-2.796
X4.2247Y-1.2085
X4.2247Y-2.146
X4.2661Y-1.1672
X4.2661Y-1.2499
X4.2661Y-2.1047
X4.2661Y-2.1874
X4.2872Y-3.546
X4.3074Y-1.2085
X4.3074Y-2.146
X4.3286Y-3.5047
X4.3286Y-3.5874
X4.3699Y-3.546
X4.4122Y-1.2085
X4.4122Y-4.396
X4.4536Y-1.1672
X4.4536Y-1.2499
X4.4536Y-4.3547
X4.4536Y-4.4374
X4.4747Y-1.1085
X4.4747Y-2.046
X4.4949Y-1.2085
X4.4949Y-4.396
X4.5161Y-1.0672
X4.5161Y-1.1499
X4.5161Y-2.0047
X4.5161Y-2.0874
X4.5574Y-1.1085
X4.5574Y-2.046
X4.5997Y-2.896
X4.6411Y-2.8547
X4.6411Y-2.9374
X4.6622Y-1.1085
X4.6622Y-4.296
X4.6824Y-2.896
X4.7036Y-1.0672
X4.7036Y-1.1499
X4.7036Y-4.2547
X4.7036Y-4.3374
X4.7449Y-1.1085
X4.7449Y-4.296
X4.7872Y-3.646
X4.8286Y-3.6047
X4.8286Y-3.6874
X4.8497Y-2.796
X4.8699Y-3.646
X4.8911Y-2.7547
X4.8911Y-2.8374
X4.9324Y-2.796
X4.9747Y-1.2085
X4.9747Y-2.146
X5.0161Y-1.1672
X5.0161Y-1.2499
X5.0161Y-2.1047
X5.0161Y-2.1874
X5.0372Y-3.546
X5.0574Y-1.2085
X5.0574Y-2.146
X5.0786Y-3.5047
X5.0786Y-3.5874
X5.1199Y-3.546
X5.1622Y-4.396
X5.2036Y-4.3547
X5.2036Y-4.4374
X5.2247Y-1.1085
X5.2247Y-2.046
X5.2449Y-4.396
X5.2661Y-1.0672
X5.2661Y-1.1499
X5.2661Y-2.0047
X5.2661Y-2.0874
X5.3074Y-1.1085
X5.3074Y-2.046
X5.3497Y-1.2085
X5.3497Y-2.896
X5.3911Y-1.1672
X5.3911Y-1.2499
X5.3911Y-2.8547
X5.3911Y-2.9374
X5.4122Y-4.296
X5.4324Y-1.2085
X5.4324Y-2.896
X5.4536Y-4.2547
X5.4536Y-4.3374
X5.4949Y-4.296
X5.5372Y-3.646
X5.5786Y-3.6047
X5.5786Y-3.6874
X5.5997Y-1.1085
X5.5997Y-2.796
X5.6199Y-3.646
X5.6411Y-1.0672
X5.6411Y-1.1499
X5.6411Y-2.7547
X5.6411Y-2.8374
X5.6824Y-1.1085
X5.6824Y-2.796
X5.7247Y-2.146
X5.7661Y-2.1047
X5.7661Y-2.1874
X5.7872Y-3.546
X5.8074Y-2.146
X5.8286Y-3.5047
X5.8286Y-3.5874
X5.8699Y-3.546
X5.9122Y-4.396
X5.9536Y-4.3547
X5.9536Y-4.4374
X5.9747Y-2.046
X5.9949Y-4.396
X6.006Y-5.146
X6.0161Y-2.0047
X6.0161Y-2.0874
X6.0473Y-5.1047
X6.0473Y-5.1874
X6.0574Y-2.046
X6.0887Y-5.146
X6.0997Y-1.2085
X6.0997Y-2.896
X6.1411Y-1.1672
X6.1411Y-1.2499
X6.1411Y-2.8547
X6.1411Y-2.9374
X6.1622Y-4.296
X6.1824Y-1.2085
X6.1824Y-2.896
X6.2036Y-4.2547
X6.2036Y-4.3374
X6.2449Y-4.296
X6.256Y-5.046
X6.2872Y-3.646
X6.2973Y-5.0047
X6.2973Y-5.0874
X6.3286Y-3.6047
X6.3286Y-3.6874
X6.3387Y-5.046
X6.3497Y-1.1085
X6.3497Y-2.796
X6.3699Y-3.646
X6.3911Y-1.0672
X6.3911Y-1.1499
X6.3911Y-2.7547
X6.3911Y-2.8374
X6.4324Y-1.1085
X6.4324Y-2.796
X6.4747Y-2.146
X6.4747Y-5.146
X6.5161Y-2.1047
X6.5161Y-2.1874
X6.5161Y-5.1047
X6.5161Y-5.1874
X6.5372Y-3.546
X6.5574Y-2.146
X6.5574Y-5.146
X6.5786Y-3.5047
X6.5786Y-3.5874
X6.6199Y-3.546
X6.6622Y-4.396
X6.7036Y-4.3547
X6.7036Y-4.4374
X6.7247Y-2.046
X6.7247Y-5.046
X6.7449Y-4.396
X6.7661Y-2.0047
X6.7661Y-2.0874
X6.7661Y-5.0047
X6.7661Y-5.0874
X6.8074Y-2.046
X6.8074Y-5.046
X6.8497Y-1.2085
X6.8497Y-2.896
X6.8911Y-1.1672
X6.8911Y-1.2499
X6.8911Y-2.8547
X6.8911Y-2.9374
X6.9122Y-4.296
X6.9324Y-1.2085
X6.9324Y-2.896
X6.9536Y-4.2547
X6.9536Y-4.3374
X6.9949Y-4.296
X7.0372Y-3.646
X7.0786Y-3.6047
X7.0786Y-3.6874
X7.0997Y-1.1085
X7.0997Y-2.796
X7.1199Y-3.646
X7.1411Y-1.0672
X7.1411Y-1.1499
X7.1411Y-2.7547
X7.1411Y-2.8374
X7.1824Y-1.1085
X7.1824Y-2.796
X7.2247Y-2.146
X7.2661Y-2.1047
X7.2661Y-2.1874
X7.2872Y-3.546
X7.3074Y-2.146
X7.3286Y-3.5047
X7.3286Y-3.5874
X7.3699Y-3.546
X7.4122Y-4.396
X7.4536Y-4.3547
X7.4536Y-4.4374
X7.4747Y-2.046
X7.4949Y-4.396
X7.5161Y-2.0047
X7.5161Y-2.0874
X7.5574Y-2.046
X7.5997Y-1.2085
X7.5997Y-2.896
X7.6411Y-1.1672
X7.6411Y-1.2499
X7.6411Y-2.8547
X7.6411Y-2.9374
X7.6622Y-4.296
X7.6824Y-1.2085
X7.6824Y-2.896
X7.7036Y-4.2547
X7.7036Y-4.3374
X7.7449Y-4.296
X7.7872Y-3.646
X7.8286Y-3.6047
X7.8286Y-3.6874
X7.8497Y-1.1085
X7.8497Y-2.796
X7.8699Y-3.646
X7.8911Y-1.0672
X7.8911Y-1.1499
X7.8911Y-2.7547
X7.8911Y-2.8374
X7.9324Y-1.1085
X7.9324Y-2.796
X7.9747Y-2.146
X8.0161Y-2.1047
X8.0161Y-2.1874
X8.0372Y-3.546
X8.0574Y-2.146
X8.0786Y-3.5047
X8.0786Y-3.5874
X8.1199Y-3.546
X8.1622Y-4.396
X8.2036Y-4.3547
X8.2036Y-4.4374
X8.2247Y-2.046
X8.2449Y-4.396
X8.2661Y-2.0047
X8.2661Y-2.0874
X8.3074Y-2.046
X8.3497Y-1.2085
X8.3497Y-2.896
X8.3911Y-1.1672
X8.3911Y-1.2499
X8.3911Y-2.8547
X8.3911Y-2.9374
X8.4122Y-4.296
X8.4324Y-1.2085
X8.4324Y-2.896
X8.4536Y-4.2547
X8.4536Y-4.3374
X8.4949Y-4.296
X8.5372Y-1.2085
X8.5372Y-3.646
X8.5786Y-1.1672
X8.5786Y-1.2499
X8.5786Y-3.6047
X8.5786Y-3.6874
X8.5997Y-1.1085
X8.5997Y-2.796
X8.6199Y-1.2085
X8.6199Y-3.646
X8.6411Y-1.0672
X8.6411Y-1.1499
X8.6411Y-2.7547
X8.6411Y-2.8374
X8.6824Y-1.1085
X8.6824Y-2.796
X8.7247Y-2.146
X8.7661Y-2.1047
X8.7661Y-2.1874
X8.7872Y-1.1085
X8.7872Y-3.546
X8.8074Y-2.146
X8.8185Y-5.146
X8.8286Y-1.0672
X8.8286Y-1.1499
X8.8286Y-3.5047
X8.8286Y-3.5874
X8.8598Y-5.1047
X8.8598Y-5.1874
X8.8699Y-1.1085
X8.8699Y-3.546
X8.9012Y-5.146
X8.9122Y-4.396
X8.9536Y-4.3547
X8.9536Y-4.4374
X8.9747Y-2.046
X8.9949Y-4.396
X9.0161Y-2.0047
X9.0161Y-2.0874
X9.0574Y-2.046
X9.0685Y-5.046
X9.0997Y-2.896
X9.1098Y-5.0047
X9.1098Y-5.0874
X9.1411Y-2.8547
X9.1411Y-2.9374
X9.1512Y-5.046
X9.1622Y-4.296
X9.1824Y-2.896
X9.2036Y-4.2547
X9.2036Y-4.3374
X9.2449Y-4.296
X9.2872Y-1.2085
X9.2872Y-3.646
X9.3286Y-1.1672
X9.3286Y-1.2499
X9.3286Y-3.6047
X9.3286Y-3.6874
X9.3497Y-2.796
X9.3699Y-1.2085
X9.3699Y-3.646
X9.3911Y-2.7547
X9.3911Y-2.8374
X9.4324Y-2.796
X9.4747Y-1.2085
X9.4747Y-2.146
X9.5161Y-1.1672
X9.5161Y-1.2499
X9.5161Y-2.1047
X9.5161Y-2.1874
X9.5372Y-1.1085
X9.5372Y-3.546
X9.5574Y-1.2085
X9.5574Y-2.146
X9.5786Y-1.0672
X9.5786Y-1.1499
X9.5786Y-3.5047
X9.5786Y-3.5874
X9.6199Y-1.1085
X9.6199Y-3.546
X9.6622Y-4.396
X9.6622Y-5.146
X9.7036Y-4.3547
X9.7036Y-4.4374
X9.7036Y-5.1047
X9.7036Y-5.1874
X9.7247Y-1.1085
X9.7247Y-2.046
X9.7449Y-4.396
X9.7449Y-5.146
X9.756Y-5.146
X9.7661Y-1.0672
X9.7661Y-1.1499
X9.7661Y-2.0047
X9.7661Y-2.0874
X9.7973Y-5.1047
X9.7973Y-5.1874
X9.8074Y-1.1085
X9.8074Y-2.046
X9.8387Y-5.146
X9.8497Y-2.896
X9.8911Y-2.8547
X9.8911Y-2.9374
X9.9122Y-4.296
X9.9122Y-5.046
X9.9324Y-2.896
X9.9536Y-4.2547
X9.9536Y-4.3374
X9.9536Y-5.0047
X9.9536Y-5.0874
X9.9949Y-4.296
X9.9949Y-5.046
X10.006Y-5.046
X10.0372Y-1.2085
X10.0372Y-3.646
X10.0473Y-5.0047
X10.0473Y-5.0874
X10.0786Y-1.1672
X10.0786Y-1.2499
X10.0786Y-3.6047
X10.0786Y-3.6874
X10.0887Y-5.046
X10.0997Y-2.796
X10.1199Y-1.2085
X10.1199Y-3.646
X10.1411Y-2.7547
X10.1411Y-2.8374
X10.1824Y-2.796
X10.2247Y-1.2085
X10.2247Y-2.146
X10.2661Y-1.1672
X10.2661Y-1.2499
X10.2661Y-2.1047
X10.2661Y-2.1874
X10.2872Y-1.1085
X10.2872Y-3.546
X10.3074Y-1.2085
X10.3074Y-2.146
X10.3286Y-1.0672
X10.3286Y-1.1499
X10.3286Y-3.5047
X10.3286Y-3.5874
X10.3699Y-1.1085
X10.3699Y-3.546
X10.4057Y-3.8602
X10.4747Y-1.1085
X10.4747Y-2.046
X10.5161Y-1.0672
X10.5161Y-1.1499
X10.5161Y-2.0047
X10.5161Y-2.0874
X10.5574Y-1.1085
X10.5574Y-2.046
X10.5997Y-2.896
X10.5997Y-5.146
X10.6411Y-2.8547
X10.6411Y-2.9374
X10.6411Y-5.1047
X10.6411Y-5.1874
X10.6824Y-2.896
X10.6824Y-5.146
X10.6935Y-4.396
X10.6935Y-5.146
X10.6962Y-2.3602
X10.7348Y-4.3547
X10.7348Y-4.4374
X10.7348Y-5.1047
X10.7348Y-5.1874
X10.7762Y-4.396
X10.7762Y-5.146
X10.7872Y-1.2085
X10.7872Y-3.646
X10.8286Y-1.1672
X10.8286Y-1.2499
X10.8286Y-3.6047
X10.8286Y-3.6874
X10.8497Y-2.796
X10.8497Y-5.046
X10.8699Y-1.2085
X10.8699Y-3.646
X10.8911Y-2.7547
X10.8911Y-2.8374
X10.8911Y-5.0047
X10.8911Y-5.0874
X10.9324Y-2.796
X10.9324Y-5.046
X10.9435Y-4.296
X10.9435Y-5.046
X10.9747Y-1.2085
X10.9747Y-2.146
X10.9848Y-4.2547
X10.9848Y-4.3374
X10.9848Y-5.0047
X10.9848Y-5.0874
X11.0161Y-1.1672
X11.0161Y-1.2499
X11.0161Y-2.1047
X11.0161Y-2.1874
X11.0262Y-4.296
X11.0262Y-5.046
X11.0372Y-1.1085
X11.0372Y-3.546
X11.0574Y-1.2085
X11.0574Y-2.146
X11.0685Y-4.396
X11.0786Y-1.0672
X11.0786Y-1.1499
X11.0786Y-3.5047
X11.0786Y-3.5874
X11.1098Y-4.3547
X11.1098Y-4.4374
X11.1199Y-1.1085
X11.1199Y-3.546
X11.1203Y-3.0
X11.1512Y-4.396
X11.1635Y-3.1457
X11.1635Y-3.1772
X11.2247Y-1.1085
X11.2247Y-2.046
X11.256Y-3.646
X11.2661Y-1.0672
X11.2661Y-1.1499
X11.2661Y-2.0047
X11.2661Y-2.0874
X11.2973Y-3.6047
X11.2973Y-3.6874
X11.3074Y-1.1085
X11.3074Y-2.046
X11.3185Y-4.296
X11.3387Y-3.646
X11.3497Y-2.146
X11.3598Y-4.2547
X11.3598Y-4.3374
X11.3911Y-2.1047
X11.3911Y-2.1874
X11.4012Y-4.296
X11.4324Y-2.146
X11.4347Y-3.1457
X11.4347Y-3.1772
X11.506Y-3.546
X11.5372Y-2.896
X11.5372Y-5.146
X11.5473Y-3.5047
X11.5473Y-3.5874
X11.5786Y-2.8547
X11.5786Y-2.9374
X11.5786Y-5.1047
X11.5786Y-5.1874
X11.5887Y-3.546
X11.5997Y-2.046
X11.6199Y-2.896
X11.6199Y-5.146
X11.631Y-5.146
X11.6411Y-2.0047
X11.6411Y-2.0874
X11.6723Y-5.1047
X11.6723Y-5.1874
X11.6824Y-2.046
X11.7137Y-5.146
X11.7247Y-1.2085
X11.7247Y-2.146
X11.7247Y-4.396
X11.7661Y-1.1672
X11.7661Y-1.2499
X11.7661Y-2.1047
X11.7661Y-2.1874
X11.7661Y-4.3547
X11.7661Y-4.4374
X11.7872Y-2.796
X11.7872Y-5.046
X11.8074Y-1.2085
X11.8074Y-2.146
X11.8074Y-4.396
X11.8286Y-2.7547
X11.8286Y-2.8374
X11.8286Y-5.0047
X11.8286Y-5.0874
X11.8699Y-2.796
X11.8699Y-5.046
X11.881Y-3.221
X11.881Y-5.046
X11.9223Y-3.1797
X11.9223Y-3.2624
X11.9223Y-5.0047
X11.9223Y-5.0874
X11.9637Y-3.221
X11.9637Y-5.046
X11.9747Y-1.1085
X11.9747Y-2.046
X11.9747Y-4.296
X11.981Y-3.471
X12.0161Y-1.0672
X12.0161Y-1.1499
X12.0161Y-2.0047
X12.0161Y-2.0874
X12.0161Y-4.2547
X12.0161Y-4.3374
X12.0223Y-3.4297
X12.0223Y-3.5124
X12.0574Y-1.1085
X12.0574Y-2.046
X12.0574Y-4.296
X12.0637Y-3.471
X12.1542Y-1.4582
X12.1542Y-1.4897
X12.1567Y-2.3957
X12.1567Y-2.4272
X12.256Y-1.8117
X12.2579Y-1.0576
X12.3258Y-1.3637
X12.375Y-0.8784
X12.4439Y-1.3637
X12.5118Y-1.0576
X12.607Y-1.4582
X12.607Y-1.4897
X12.6075Y-2.3957
X12.6075Y-2.4272
X12.6075Y-1.8117
X12.6622Y-1.2085
X12.6622Y-2.146
X12.6622Y-2.896
X12.6622Y-5.146
X12.7036Y-1.1672
X12.7036Y-1.2499
X12.7036Y-2.1047
X12.7036Y-2.1874
X12.7036Y-2.8547
X12.7036Y-2.9374
X12.7036Y-5.1047
X12.7036Y-5.1874
X12.7449Y-1.2085
X12.7449Y-2.146
X12.7449Y-2.896
X12.7449Y-5.146
X12.9122Y-1.1085
X12.9122Y-2.046
X12.9122Y-2.796
X12.9122Y-5.046
X12.9536Y-1.0672
X12.9536Y-1.1499
X12.9536Y-2.0047
X12.9536Y-2.0874
X12.9536Y-2.7547
X12.9536Y-2.8374
X12.9536Y-5.0047
X12.9536Y-5.0874
X12.9949Y-1.1085
X12.9949Y-2.046
X12.9949Y-2.796
X12.9949Y-5.046
X13.4122Y-1.2085
X13.4122Y-2.146
X13.4122Y-2.896
X13.4122Y-4.396
X13.4122Y-5.146
X13.4536Y-1.1672
X13.4536Y-1.2499
X13.4536Y-2.1047
X13.4536Y-2.1874
X13.4536Y-2.8547
X13.4536Y-2.9374
X13.4536Y-4.3547
X13.4536Y-4.4374
X13.4536Y-5.1047
X13.4536Y-5.1874
X13.4949Y-1.2085
X13.4949Y-2.146
X13.4949Y-2.896
X13.4949Y-4.396
X13.4949Y-5.146
X13.6622Y-1.1085
X13.6622Y-2.046
X13.6622Y-2.796
X13.6622Y-4.296
X13.6622Y-5.046
X13.7036Y-1.0672
X13.7036Y-1.1499
X13.7036Y-2.0047
X13.7036Y-2.0874
X13.7036Y-2.7547
X13.7036Y-2.8374
X13.7036Y-4.2547
X13.7036Y-4.3374
X13.7036Y-5.0047
X13.7036Y-5.0874
X13.7449Y-1.1085
X13.7449Y-2.046
X13.7449Y-2.796
X13.7449Y-4.296
X13.7449Y-5.046
X14.0022Y-1.5085
X14.0259Y-1.4306
X14.0496Y-1.3991
X14.1622Y-1.2085
X14.1622Y-2.146
X14.1622Y-2.896
X14.1622Y-5.146
X14.2036Y-1.1672
X14.2036Y-1.2499
X14.2036Y-2.1047
X14.2036Y-2.1874
X14.2036Y-2.8547
X14.2036Y-2.9374
X14.2036Y-5.1047
X14.2036Y-5.1874
X14.2449Y-1.2085
X14.2449Y-2.146
X14.2449Y-2.896
X14.2449Y-5.146
X14.3823Y-4.6693
X14.4122Y-1.1085
X14.4122Y-2.046
X14.4122Y-2.796
X14.4122Y-5.046
X14.4295Y-4.4355
X14.4295Y-4.4689
X14.4295Y-4.3687
X14.4295Y-4.4021
X14.4536Y-1.0672
X14.4536Y-1.1499
X14.4536Y-2.0047
X14.4536Y-2.0874
X14.4536Y-2.7547
X14.4536Y-2.8374
X14.4536Y-5.0047
X14.4536Y-5.0874
X14.4949Y-1.1085
X14.4949Y-2.046
X14.4949Y-2.796
X14.4949Y-5.046
T3
X1.8258Y-1.602
X1.9439Y-1.602
X2.0348Y-3.2647
X2.2178Y-3.5157
X2.2641Y-3.2647
X2.3509Y-3.4535
X2.502Y-3.3405
X12.2421Y-1.5349
X12.256Y-1.7428
X12.2864Y-1.0881
X12.2864Y-1.1353
X12.3258Y-1.0881
X12.3258Y-1.1353
X12.3652Y-1.0881
X12.3652Y-1.1353
X12.4045Y-1.0881
X12.4045Y-1.1353
X12.4439Y-1.0881
X12.4439Y-1.1353
X12.4833Y-1.0881
X12.4833Y-1.1353
X12.607Y-1.5349
X12.6075Y-1.7428
T4
X12.2864Y-1.1117
X12.3258Y-1.1117
X12.3652Y-1.1117
X12.4045Y-1.1117
X12.4439Y-1.1117
X12.4833Y-1.1117
T6
X1.4598Y-3.946
X1.5598Y-3.946
X1.6473Y-3.946
X1.7473Y-3.946
X13.5536Y-1.5085
X13.6536Y-1.5085
T7
X1.2661Y-1.2085
X1.2661Y-2.146
X1.3598Y-3.646
X1.3598Y-4.396
X1.3598Y-5.146
X1.4536Y-2.896
X1.4536Y-5.146
X1.5161Y-1.1085
X1.5161Y-2.046
X1.5473Y-3.646
X1.6098Y-3.546
X1.6098Y-4.296
X1.6098Y-5.046
X1.7036Y-2.796
X1.7036Y-5.046
X1.7348Y-4.396
X1.7973Y-3.546
X1.9848Y-4.296
X2.0161Y-2.146
X2.2036Y-1.2085
X2.2036Y-4.396
X2.2661Y-2.046
X2.2973Y-5.146
X2.3911Y-2.896
X2.3911Y-5.146
X2.4536Y-1.1085
X2.4536Y-4.296
X2.5473Y-5.046
X2.5786Y-3.646
X2.6411Y-2.796
X2.6411Y-5.046
X2.7661Y-1.2085
X2.7661Y-2.146
X2.8286Y-3.546
X2.9536Y-1.2085
X2.9536Y-4.396
X3.0161Y-1.1085
X3.0161Y-2.046
X3.1411Y-2.896
X3.2036Y-1.1085
X3.2036Y-4.296
X3.2348Y-5.146
X3.3286Y-3.646
X3.3286Y-5.146
X3.3911Y-2.796
X3.4848Y-5.046
X3.5161Y-1.2085
X3.5161Y-2.146
X3.5786Y-3.546
X3.5786Y-5.046
X3.7036Y-1.2085
X3.7036Y-4.396
X3.7661Y-1.1085
X3.7661Y-2.046
X3.8911Y-2.896
X3.9536Y-1.1085
X3.9536Y-4.296
X4.0786Y-3.646
X4.1411Y-2.796
X4.2661Y-1.2085
X4.2661Y-2.146
X4.3286Y-3.546
X4.4536Y-1.2085
X4.4536Y-4.396
X4.5161Y-1.1085
X4.5161Y-2.046
X4.6411Y-2.896
X4.7036Y-1.1085
X4.7036Y-4.296
X4.8286Y-3.646
X4.8911Y-2.796
X5.0161Y-1.2085
X5.0161Y-2.146
X5.0786Y-3.546
X5.2036Y-4.396
X5.2661Y-1.1085
X5.2661Y-2.046
X5.3911Y-1.2085
X5.3911Y-2.896
X5.4536Y-4.296
X5.5786Y-3.646
X5.6411Y-1.1085
X5.6411Y-2.796
X5.7661Y-2.146
X5.8286Y-3.546
X5.9536Y-4.396
X6.0161Y-2.046
X6.0473Y-5.146
X6.1411Y-1.2085
X6.1411Y-2.896
X6.2036Y-4.296
X6.2973Y-5.046
X6.3286Y-3.646
X6.3911Y-1.1085
X6.3911Y-2.796
X6.5161Y-2.146
X6.5161Y-5.146
X6.5786Y-3.546
X6.7036Y-4.396
X6.7661Y-2.046
X6.7661Y-5.046
X6.8911Y-1.2085
X6.8911Y-2.896
X6.9536Y-4.296
X7.0786Y-3.646
X7.1411Y-1.1085
X7.1411Y-2.796
X7.2661Y-2.146
X7.3286Y-3.546
X7.4536Y-4.396
X7.5161Y-2.046
X7.6411Y-1.2085
X7.6411Y-2.896
X7.7036Y-4.296
X7.8286Y-3.646
X7.8911Y-1.1085
X7.8911Y-2.796
X8.0161Y-2.146
X8.0786Y-3.546
X8.2036Y-4.396
X8.2661Y-2.046
X8.3911Y-1.2085
X8.3911Y-2.896
X8.4536Y-4.296
X8.5786Y-1.2085
X8.5786Y-3.646
X8.6411Y-1.1085
X8.6411Y-2.796
X8.7661Y-2.146
X8.8286Y-1.1085
X8.8286Y-3.546
X8.8598Y-5.146
X8.9536Y-4.396
X9.0161Y-2.046
X9.1098Y-5.046
X9.1411Y-2.896
X9.2036Y-4.296
X9.3286Y-1.2085
X9.3286Y-3.646
X9.3911Y-2.796
X9.5161Y-1.2085
X9.5161Y-2.146
X9.5786Y-1.1085
X9.5786Y-3.546
X9.7036Y-4.396
X9.7036Y-5.146
X9.7661Y-1.1085
X9.7661Y-2.046
X9.7973Y-5.146
X9.8911Y-2.896
X9.9536Y-4.296
X9.9536Y-5.046
X10.0473Y-5.046
X10.0786Y-1.2085
X10.0786Y-3.646
X10.1411Y-2.796
X10.2661Y-1.2085
X10.2661Y-2.146
X10.3286Y-1.1085
X10.3286Y-3.546
X10.5161Y-1.1085
X10.5161Y-2.046
X10.6411Y-2.896
X10.6411Y-5.146
X10.7348Y-4.396
X10.7348Y-5.146
X10.8286Y-1.2085
X10.8286Y-3.646
X10.8911Y-2.796
X10.8911Y-5.046
X10.9848Y-4.296
X10.9848Y-5.046
X11.0161Y-1.2085
X11.0161Y-2.146
X11.0786Y-1.1085
X11.0786Y-3.546
X11.1098Y-4.396
X11.2661Y-1.1085
X11.2661Y-2.046
X11.2973Y-3.646
X11.3598Y-4.296
X11.3911Y-2.146
X11.5473Y-3.546
X11.5786Y-2.896
X11.5786Y-5.146
X11.6411Y-2.046
X11.6723Y-5.146
X11.7661Y-1.2085
X11.7661Y-2.146
X11.7661Y-4.396
X11.8286Y-2.796
X11.8286Y-5.046
X11.9223Y-3.221
X11.9223Y-5.046
X12.0161Y-1.1085
X12.0161Y-2.046
X12.0161Y-4.296
X12.0223Y-3.471
X12.7036Y-1.2085
X12.7036Y-2.146
X12.7036Y-2.896
X12.7036Y-5.146
X12.9536Y-1.1085
X12.9536Y-2.046
X12.9536Y-2.796
X12.9536Y-5.046
X13.4536Y-1.2085
X13.4536Y-2.146
X13.4536Y-2.896
X13.4536Y-4.396
X13.4536Y-5.146
X13.7036Y-1.1085
X13.7036Y-2.046
X13.7036Y-2.796
X13.7036Y-4.296
X13.7036Y-5.046
X14.2036Y-1.2085
X14.2036Y-2.146
X14.2036Y-2.896
X14.2036Y-5.146
X14.4536Y-1.1085
X14.4536Y-2.046
X14.4536Y-2.796
X14.4536Y-5.046
T5
G00X12.2148Y-0.7456
M15
G01X12.2148Y-0.7692
M16
G05
G00X12.2148Y-0.7692
M15
G01X12.2148Y-0.7456
M16
G05
G00X12.2148Y-0.9436
M15
G01X12.2148Y-0.9003
M16
G05
G00X12.2148Y-0.9003
M15
G01X12.2148Y-0.9436
M16
G05
G00X12.5549Y-0.7456
M15
G01X12.5549Y-0.7692
M16
G05
G00X12.5549Y-0.7692
M15
G01X12.5549Y-0.7456
M16
G05
G00X12.5549Y-0.9003
M15
G01X12.5549Y-0.9436
M16
G05
G00X12.5549Y-0.9436
M15
G01X12.5549Y-0.9003
M16
G05
T0
M30
