0
SECTION
2
HEADER
9
$INSUNITS
70
4
9
$ACADVER
1
AC1014
9
$HANDSEED
5
FFFF
0
ENDSEC
0
SECTION
2
TABLES
0
TABLE
2
VPORT
5
8
100
AcDbSymbolTable
0
ENDTAB
0
TABLE
2
LTYPE
5
5
100
AcDbSymbolTable
0
LTYPE
5
14
100
AcDbSymbolTableRecord
100
AcDbLinetypeTableRecord
2
BYBLOCK
70
0
0
LTYPE
5
15
100
AcDbSymbolTableRecord
100
AcDbLinetypeTableRecord
2
BYLAYER
70
0
0
ENDTAB
0
TABLE
2
LAYER
5
2
100
AcDbSymbolTable
70
2
0
LAYER
5
50
100
AcDbSymbolTableRecord
100
AcDbLayerTableRecord
2
0
70
0
6
CONTINUOUS
0
ENDTAB
0
TABLE
2
STYLE
5
3
100
AcDbSymbolTable
70
1
0
STYLE
5
11
100
AcDbSymbolTableRecord
100
AcDbTextStyleTableRecord
2
STANDARD
70
0
0
ENDTAB
0
TABLE
2
VIEW
5
6
100
AcDbSymbolTable
70
0
0
ENDTAB
0
TABLE
2
UCS
5
7
100
AcDbSymbolTable
70
0
0
ENDTAB
0
TABLE
2
APPID
5
9
100
AcDbSymbolTable
70
2
0
APPID
5
12
100
AcDbSymbolTableRecord
100
AcDbRegAppTableRecord
2
ACAD
70
0
0
ENDTAB
0
TABLE
2
DIMSTYLE
5
A
100
AcDbSymbolTable
70
1
0
ENDTAB
0
TABLE
2
BLOCK_RECORD
5
1
100
AcDbSymbolTable
70
1
0
BLOCK_RECORD
5
1F
100
AcDbSymbolTableRecord
100
AcDbBlockTableRecord
2
*MODEL_SPACE
0
BLOCK_RECORD
5
1B
100
AcDbSymbolTableRecord
100
AcDbBlockTableRecord
2
*PAPER_SPACE
0
ENDTAB
0
ENDSEC
0
SECTION
2
BLOCKS
0
BLOCK
5
20
100
AcDbEntity
100
AcDbBlockBegin
2
*MODEL_SPACE
0
ENDBLK
5
21
100
AcDbEntity
100
AcDbBlockEnd
0
BLOCK
5
1C
100
AcDbEntity
100
AcDbBlockBegin
2
*PAPER_SPACE
0
ENDBLK
5
1D
100
AcDbEntity
100
AcDbBlockEnd
0
ENDSEC
0
SECTION
2
ENTITIES
0
CIRCLE
5
100
100
AcDbEntity
8
0
100
AcDbCircle
10
207.37348241975067
20
-101.12531899113712
30
0
40
1.7500000000000002
210
0
220
0
230
1
0
CIRCLE
5
101
100
AcDbEntity
8
0
100
AcDbCircle
10
111.36651758024932
20
-101.12531899113716
30
0
40
1.7499999999999574
210
0
220
0
230
1
0
CIRCLE
5
102
100
AcDbEntity
8
0
100
AcDbCircle
10
311.00875000000002
20
12.779999999999967
30
0
40
1.7500000000000002
210
0
220
0
230
1
0
CIRCLE
5
103
100
AcDbEntity
8
0
100
AcDbCircle
10
8.2300000000000182
20
-91.119999999999962
30
0
40
1.7500000000000047
210
0
220
0
230
1
0
CIRCLE
5
104
100
AcDbEntity
8
0
100
AcDbCircle
10
311.00875000000008
20
-91.119999999999948
30
0
40
1.7500000000000002
210
0
220
0
230
1
0
CIRCLE
5
105
100
AcDbEntity
8
0
100
AcDbCircle
10
8.2300000000000182
20
12.779999999999996
30
0
40
1.7500000000000002
210
0
220
0
230
1
0
CIRCLE
5
106
100
AcDbEntity
8
0
100
AcDbCircle
10
199.18304833616742
20
4.9223239642487346
30
0
40
1.7500000000000002
210
0
220
0
230
1
0
CIRCLE
5
107
100
AcDbEntity
8
0
100
AcDbCircle
10
118.23774861921748
20
3.2418593181070725
30
0
40
1.7500000000000002
210
0
220
0
230
1
0
LWPOLYLINE
5
108
100
AcDbEntity
8
0
100
AcDbPolyline
90
77
70
1
43
0.0
10
154.54950450079872
20
-7.5434644448780999
10
122.26021465024982
20
-0.68016401547870387
42
-0.33333333333331983
10
121.47088937093413
20
0.22369748023470137
10
121.22945952961778
20
3.4647176331683438
42
0.74999999999999478
10
115.59532934939105
20
4.66228897227864
10
114.05653055737187
20
1.7996680966333176
42
-0.33333333333333481
10
112.96781244327863
20
1.2949970472900318
10
73.15181952849791
20
9.7581476007337837
42
0.052407779283084384
10
72.943907837680115
20
9.7799999999999763
10
12.980000000000022
20
9.7799999999999851
42
-0.33333333333334336
10
12.020000000000033
20
10.499999999999986
10
11.110000000000039
20
13.619999999999987
42
0.749999999999996
10
5.350000000000021
20
13.619999999999987
10
4.4400000000000279
20
10.499999999999991
42
-0.33333333333333415
10
3.4800000000000111
20
9.7799999999999834
10
-4.3657864376267783
20
9.7799999999999851
42
0.19891236737963783
10
-5.0728932188133236
20
9.4871067811865437
10
-9.4871067811865277
20
5.0728932188134346
42
0.19891236737962498
10
-9.7799999999999834
20
4.365786437626884
10
-9.7799999999999851
20
-72.870000000000033
42
0.4142135623730866
10
-8.7799999999999816
20
-73.870000000000019
10
1.4700000000000499
20
-73.870000000000019
42
-0.41421356237309503
10
2.4700000000000495
20
-74.870000000000019
10
2.4700000000000495
20
-87.120000000000033
42
0.41421356237309798
10
3.4700000000000566
20
-88.120000000000033
10
3.4800000000000386
20
-88.120000000000047
42
-0.33333333333335097
10
4.440000000000027
20
-88.840000000000032
10
5.3500000000000156
20
-91.959999999999965
42
0.749999999999997
10
11.110000000000039
20
-91.959999999999965
10
12.019999999999996
20
-88.840000000000032
42
-0.33333333333333498
10
12.979999999999992
20
-88.120000000000033
10
64.084984129076815
20
-88.120000000000033
42
-0.052407779283047844
10
65.124542583165592
20
-88.229261996331005
10
107.344051549217
20
-97.203295657551379
42
-0.33333333333333276
10
108.13337682853266
20
-98.107157153264808
10
108.37480666984901
20
-101.34817730619842
42
0.74999999999999667
10
114.00893685007573
20
-102.54574864530868
10
115.54773564209486
20
-99.683127769663372
42
-0.33333333333334675
10
116.63645375618816
20
-99.178456720320085
10
158.3304415459113
20
-108.04078740721535
42
0.10510423526567124
10
160.40955845408877
20
-108.04078740721535
10
202.10354624381179
20
-99.178456720320085
42
-0.3333333333333558
10
203.19226435790515
20
-99.683127769663429
10
204.73106314992424
20
-102.54574864530869
42
0.75000000000000988
10
210.36519333015093
20
-101.34817730619841
10
210.60662317146728
20
-98.107157153264865
42
-0.33333333333331711
10
211.39594845078295
20
-97.203295657551436
10
253.3896351715797
20
-88.277261996330992
42
-0.052407779283049183
10
254.42919362566846
20
-88.168000000000021
10
306.27275000000003
20
-88.16799999999995
42
-0.33333333333331122
10
307.23275000000007
20
-88.888000000000034
10
308.12875000000003
20
-91.959999999999994
42
0.74999999999999478
10
313.88875000000013
20
-91.959999999999994
10
314.78475000000003
20
-88.888000000000019
42
-0.3333333333333065
10
315.74475000000007
20
-88.168000000000021
10
323.6045364376269
20
-88.168000000000021
42
0.19891236737969495
10
324.31164321881346
20
-87.875106781186616
10
328.72585678118662
20
-83.460893218813581
42
0.19891236737965615
10
329.01875000000007
20
-82.753786437626999
10
329.01875000000013
20
4.3657864376267241
42
0.19891236737967891
10
328.72585678118668
20
5.072893218813296
10
324.31164321881334
20
9.4871067811865579
42
0.19891236737971227
10
323.6045364376269
20
9.779999999999955
10
315.75875000000002
20
9.779999999999955
42
-0.33333333333338444
10
314.79875000000015
20
10.499999999999961
10
313.88875000000013
20
13.620000000000021
42
0.74999999999996758
10
308.12875000000008
20
13.620000000000021
10
307.21875000000006
20
10.499999999999961
42
-0.33333333333333071
10
306.25875000000002
20
9.7799999999999621
10
236.4658203102868
20
9.7799999999999621
10
204.45298451210633
20
2.9754616934316944
42
-0.3333333333333795
10
203.36426639801303
20
3.4801327427749773
10
201.82546760599391
20
6.3427536184203195
42
0.75000000000000522
10
196.19133742576713
20
5.1451822793100046
10
195.94990758445084
20
1.9041621263763759
42
-0.33333333333331483
10
195.16058230513522
20
1.0003006306630036
10
154.96532788243425
20
-7.5434644448780785
42
-0.10510423526568514
0
ENDSEC
0
SECTION
2
OBJECTS
0
DICTIONARY
5
C
100
AcDbDictionary
3
ACAD_GROUP
350
D
3
ACAD_MLINESTYLE
350
17
0
DICTIONARY
5
D
100
AcDbDictionary
0
DICTIONARY
5
1A
330
C
100
AcDbDictionary
0
DICTIONARY
5
17
100
AcDbDictionary
0
ENDSEC
0
EOF
