0
SECTION
2
HEADER
9
$INSUNITS
70
4
9
$ACADVER
1
AC1014
9
$HANDSEED
5
FFFF
0
ENDSEC
0
SECTION
2
TABLES
0
TABLE
2
VPORT
5
8
100
AcDbSymbolTable
0
ENDTAB
0
TABLE
2
LTYPE
5
5
100
AcDbSymbolTable
0
LTYPE
5
14
100
AcDbSymbolTableRecord
100
AcDbLinetypeTableRecord
2
BYBLOCK
70
0
0
LTYPE
5
15
100
AcDbSymbolTableRecord
100
AcDbLinetypeTableRecord
2
BYLAYER
70
0
0
ENDTAB
0
TABLE
2
LAYER
5
2
100
AcDbSymbolTable
70
2
0
LAYER
5
50
100
AcDbSymbolTableRecord
100
AcDbLayerTableRecord
2
0
70
0
6
CONTINUOUS
0
ENDTAB
0
TABLE
2
STYLE
5
3
100
AcDbSymbolTable
70
1
0
STYLE
5
11
100
AcDbSymbolTableRecord
100
AcDbTextStyleTableRecord
2
STANDARD
70
0
0
ENDTAB
0
TABLE
2
VIEW
5
6
100
AcDbSymbolTable
70
0
0
ENDTAB
0
TABLE
2
UCS
5
7
100
AcDbSymbolTable
70
0
0
ENDTAB
0
TABLE
2
APPID
5
9
100
AcDbSymbolTable
70
2
0
APPID
5
12
100
AcDbSymbolTableRecord
100
AcDbRegAppTableRecord
2
ACAD
70
0
0
ENDTAB
0
TABLE
2
DIMSTYLE
5
A
100
AcDbSymbolTable
70
1
0
ENDTAB
0
TABLE
2
BLOCK_RECORD
5
1
100
AcDbSymbolTable
70
1
0
BLOCK_RECORD
5
1F
100
AcDbSymbolTableRecord
100
AcDbBlockTableRecord
2
*MODEL_SPACE
0
BLOCK_RECORD
5
1B
100
AcDbSymbolTableRecord
100
AcDbBlockTableRecord
2
*PAPER_SPACE
0
ENDTAB
0
ENDSEC
0
SECTION
2
BLOCKS
0
BLOCK
5
20
100
AcDbEntity
100
AcDbBlockBegin
2
*MODEL_SPACE
0
ENDBLK
5
21
100
AcDbEntity
100
AcDbBlockEnd
0
BLOCK
5
1C
100
AcDbEntity
100
AcDbBlockBegin
2
*PAPER_SPACE
0
ENDBLK
5
1D
100
AcDbEntity
100
AcDbBlockEnd
0
ENDSEC
0
SECTION
2
ENTITIES
0
LWPOLYLINE
5
100
100
AcDbEntity
8
0
100
AcDbPolyline
90
8
70
1
43
0.0
10
237.49450335004326
20
-6.3935037686784995
10
234.99956306023017
20
5.3442674401271937
42
0.41421356237305701
10
233.81350376867854
20
6.11450335004319
10
222.07573255987285
20
3.6195630602300772
42
0.41421356237307044
10
221.30549664995681
20
2.4335037686785341
10
223.80043693976987
20
-9.3042674401271821
42
0.41421356237311718
10
224.98649623132152
20
-10.074503350043202
10
236.72426744012714
20
-7.5795630602300879
42
0.41421356237309048
0
LWPOLYLINE
5
101
100
AcDbEntity
8
0
100
AcDbPolyline
90
8
70
1
43
0.0
10
218.44043693976994
20
-29.914267440127162
10
215.94549664995679
20
-18.176496231321483
42
-0.41421356237304452
10
216.71573255987286
20
-16.990436939769925
10
228.45350376867856
20
-14.49549664995682
42
-0.41421356237305179
10
229.63956306023019
20
-15.265732559872827
10
232.13450335004336
20
-27.003503768678513
42
-0.41421356237298546
10
231.36426744012724
20
-28.189563060230078
10
219.62649623132151
20
-30.684503350043233
42
-0.41421356237310269
0
LWPOLYLINE
5
102
100
AcDbEntity
8
0
100
AcDbPolyline
90
8
70
1
43
0.0
10
130.01663203189381
20
-77.14565689891343
10
132.51157232170692
20
-65.407885690107747
42
-0.41421356237315937
10
133.69763161325852
20
-64.637649780191708
10
145.43540282206413
20
-67.132590070004824
42
-0.41421356237311446
10
146.20563873198017
20
-68.31864936155641
10
143.71069844216706
20
-80.05642057036205
42
-0.41421356237309304
10
142.52463915061557
20
-80.826656480278118
10
130.78686794180985
20
-78.331716190465016
42
-0.41421356237304907
0
LWPOLYLINE
5
103
100
AcDbEntity
8
0
100
AcDbPolyline
90
8
70
1
43
0.0
10
137.17463915061555
20
-60.216656480278104
10
125.43686794180985
20
-57.721716190464988
42
-0.4142135623731083
10
124.66663203189381
20
-56.535656898913416
10
127.16157232170687
20
-44.797885690107734
42
-0.41421356237313267
10
128.3476316132585
20
-44.027649780191702
10
140.08540282206417
20
-46.522590070004824
42
-0.41421356237314155
10
140.85563873198021
20
-47.708649361556397
10
138.36069844216709
20
-59.446420570362058
42
-0.41421356237307561
0
LWPOLYLINE
5
104
100
AcDbEntity
8
0
100
AcDbPolyline
90
8
70
1
43
0.0
10
123.96663203189379
20
-36.905656898913435
10
126.46157232170694
20
-25.167885690107745
42
-0.41421356237311191
10
127.64763161325848
20
-24.397649780191706
10
139.38540282206415
20
-26.892590070004815
42
-0.4142135623731778
10
140.15563873198016
20
-28.078649361556405
10
137.66069844216707
20
-39.816420570362077
42
-0.41421356237314927
10
136.4746391506155
20
-40.586656480278116
10
124.73686794180983
20
-38.091716190464993
42
-0.41421356237305723
0
LWPOLYLINE
5
105
100
AcDbEntity
8
0
100
AcDbPolyline
90
8
70
1
43
0.0
10
137.24663203189382
20
-20.255656898913422
10
139.74157232170694
20
-8.5178856901077378
42
-0.41421356237313994
10
140.92763161325848
20
-7.7476497801916935
10
152.66540282206415
20
-10.242590070004805
42
-0.4142135623731551
10
153.43563873198016
20
-11.428649361556396
10
150.94069844216705
20
-23.166420570362057
42
-0.41421356237311446
10
149.75463915061553
20
-23.936656480278103
10
138.01686794180989
20
-21.441716190464994
42
-0.41421356237307361
0
LWPOLYLINE
5
106
100
AcDbEntity
8
0
100
AcDbPolyline
90
8
70
1
43
0.0
10
240.75450335004325
20
-44.653503768678497
10
238.25956306023016
20
-32.915732559872836
42
0.41421356237303963
10
237.07350376867851
20
-32.145496649956812
10
225.33573255987289
20
-34.640436939769941
42
0.41421356237308593
10
224.5654966499568
20
-35.826496231321499
10
227.06043693976989
20
-47.564267440127175
42
0.4142135623731158
10
228.24649623132149
20
-48.334503350043221
10
239.98426744012716
20
-45.839563060230105
42
0.41421356237306656
0
LWPOLYLINE
5
107
100
AcDbEntity
8
0
100
AcDbPolyline
90
8
70
1
43
0.0
10
117.84092735663656
20
-36.625938770199809
10
106.10315614783083
20
-34.130998480386694
42
-0.4142135623730685
10
105.33292023791481
20
-32.944939188835122
10
107.82786052772794
20
-21.207167980029439
42
-0.41421356237312013
10
109.01391981927951
20
-20.436932070113404
10
120.75169102808516
20
-22.931872359926523
42
-0.41421356237314966
10
121.52192693800119
20
-24.117931651478095
10
119.02698664818811
20
-35.855702860283763
42
-0.41421356237313273
0
LWPOLYLINE
5
108
100
AcDbEntity
8
0
100
AcDbPolyline
90
8
70
1
43
0.0
10
106.03292023791477
20
-52.574939188835117
10
108.52786052772788
20
-40.837167980029434
42
-0.41421356237310158
10
109.71391981927948
20
-40.06693207011341
10
121.45169102808516
20
-42.561872359926511
42
-0.41421356237311902
10
122.22192693800118
20
-43.747931651478098
10
119.72698664818807
20
-55.485702860283759
42
-0.41421356237313284
10
118.54092735663653
20
-56.255938770199805
10
106.80315614783083
20
-53.760998480386696
42
-0.41421356237312884
0
LWPOLYLINE
5
109
100
AcDbEntity
8
0
100
AcDbPolyline
90
8
70
1
43
0.0
10
111.38292023791479
20
-73.184939188835116
10
113.87786052772789
20
-61.447167980029434
42
-0.4142135623731083
10
115.06391981927948
20
-60.676932070113409
10
126.80169102808514
20
-63.171872359926496
42
-0.41421356237311902
10
127.5719269380012
20
-64.357931651478111
10
125.07698664818805
20
-76.095702860283751
42
-0.41421356237312157
10
123.89092735663652
20
-76.865938770199818
10
112.15315614783083
20
-74.370998480386717
42
-0.41421356237307272
0
LWPOLYLINE
5
110
100
AcDbEntity
8
0
100
AcDbPolyline
90
8
70
1
43
0.0
10
236.52350376867841
20
-72.745496649956721
10
224.78573255987271
20
-75.240436939769964
42
0.41421356237305834
10
224.0154966499567
20
-76.426496231321551
10
226.51043693976993
20
-88.164267440127148
42
0.41421356237309503
10
227.69649623132153
20
-88.934503350043229
10
239.43426744012726
20
-86.439563060229986
42
0.41421356237308782
10
240.20450335004324
20
-85.253503768678399
10
237.70956306022998
20
-73.515732559872745
42
0.41421356237311285
0
LWPOLYLINE
5
111
100
AcDbEntity
8
0
100
AcDbPolyline
90
8
70
1
43
0.0
10
234.62426744012717
20
-66.449563060230091
10
222.88649623132156
20
-68.944503350043249
42
-0.41421356237310447
10
221.70043693976993
20
-68.174267440127153
10
219.20549664995684
20
-56.436496231321492
42
-0.41421356237308071
10
219.97573255987288
20
-55.250436939769934
10
231.71350376867855
20
-52.755496649956811
42
-0.41421356237308177
10
232.89956306023012
20
-53.525732559872822
10
235.39450335004324
20
-65.263503768678504
42
-0.41421356237310375
0
LWPOLYLINE
5
112
100
AcDbEntity
8
0
100
AcDbPolyline
90
8
70
1
43
0.0
10
222.12079155606426
20
-48.614221478756825
10
219.62585126625112
20
-36.876450269951178
42
0.41421356237305768
10
218.43979197469949
20
-36.10621436003516
10
206.70202076589388
20
-38.601154649848262
42
0.41421356237306906
10
205.93178485597778
20
-39.787213941399827
10
208.4267251457909
20
-51.524985150205502
42
0.41421356237311885
10
209.6127844373425
20
-52.295221060121548
10
221.35055564614817
20
-49.800280770308454
42
0.41421356237307921
0
LWPOLYLINE
5
113
100
AcDbEntity
8
0
100
AcDbPolyline
90
8
70
1
43
0.0
10
199.80672514579098
20
-33.874985150205497
10
197.31178485597783
20
-22.137213941399821
42
-0.41421356237307788
10
198.0820207658939
20
-20.951154649848277
10
209.81979197469954
20
-18.456214360035148
42
-0.41421356237307283
10
211.00585126625117
20
-19.226450269951165
10
213.50079155606437
20
-30.964221478756826
42
-0.41421356237305312
10
212.73055564614822
20
-32.150280770308427
10
200.99278443734252
20
-34.645221060121557
42
-0.41421356237308604
0
LWPOLYLINE
5
114
100
AcDbEntity
8
0
100
AcDbPolyline
90
8
70
1
43
0.0
10
205.16672514579091
20
-13.264985150205501
10
202.67178485597779
20
-1.5272139413998078
42
-0.41421356237305956
10
203.44202076589386
20
-0.34115464984825483
10
215.17979197469955
20
2.1537856399648763
42
-0.41421356237303342
10
216.36585126625118
20
1.3835497300488386
10
218.86079155606427
20
-10.354221478756836
42
-0.41421356237305706
10
218.09055564614818
20
-11.540280770308428
10
206.35278443734254
20
-14.035221060121559
42
-0.41421356237311141
0
LWPOLYLINE
5
115
100
AcDbEntity
8
0
100
AcDbPolyline
90
8
70
1
43
0.0
10
199.02426744012715
20
-93.499563060229747
10
187.28649623132154
20
-95.994503350043232
42
-0.41421356237303908
10
186.10043693976991
20
-95.224267440127178
10
183.60549664995648
20
-83.486496231321581
42
-0.41421356237310014
10
184.37573255987246
20
-82.300436939770009
10
196.11350376867816
20
-79.805496649956552
42
-0.41421356237310575
10
197.2995630602297
20
-80.575732559872563
10
199.79450335004316
20
-92.313503768678174
42
-0.41421356237309798
0
LWPOLYLINE
5
116
100
AcDbEntity
8
0
100
AcDbPolyline
90
8
70
1
43
0.0
10
118.61292023791479
20
-16.294939188835123
10
121.10786052772795
20
-4.5571679800294334
42
-0.41421356237313117
10
122.29391981927949
20
-3.7869320701133939
10
134.03169102808516
20
-6.2818723599265089
42
-0.41421356237310658
10
134.8019269380012
20
-7.4679316514780991
10
132.30698664818811
20
-19.205702860283758
42
-0.41421356237312223
10
131.12092735663651
20
-19.975938770199807
10
119.38315614783085
20
-17.480998480386688
42
-0.41421356237305779
0
CIRCLE
5
117
100
AcDbEntity
8
0
100
AcDbCircle
10
207.37348241975067
20
-101.12531899113712
30
0
40
1.7500000000000002
210
0
220
0
230
1
0
LWPOLYLINE
5
118
100
AcDbEntity
8
0
100
AcDbPolyline
90
8
70
1
43
0.0
10
165.79930155783299
20
-80.056420570362178
10
163.30436126801985
20
-68.318649361556481
42
-0.41421356237312917
10
164.07459717793589
20
-67.132590070004937
10
175.81236838674155
20
-64.637649780191822
42
-0.41421356237306328
10
176.99842767829318
20
-65.407885690107832
10
179.49336796810627
20
-77.145656898913501
42
-0.41421356237309503
10
178.72313205819017
20
-78.331716190465087
10
166.98536084938453
20
-80.826656480278245
42
-0.41421356237308377
0
CIRCLE
5
119
100
AcDbEntity
8
0
100
AcDbCircle
10
111.36651758024932
20
-101.12531899113716
30
0
40
1.7499999999999574
210
0
220
0
230
1
0
CIRCLE
5
120
100
AcDbEntity
8
0
100
AcDbCircle
10
311.00875000000002
20
12.779999999999967
30
0
40
1.7500000000000002
210
0
220
0
230
1
0
CIRCLE
5
121
100
AcDbEntity
8
0
100
AcDbCircle
10
8.2300000000000182
20
-91.119999999999962
30
0
40
1.7500000000000047
210
0
220
0
230
1
0
CIRCLE
5
122
100
AcDbEntity
8
0
100
AcDbCircle
10
311.00875000000008
20
-91.119999999999948
30
0
40
1.7500000000000002
210
0
220
0
230
1
0
CIRCLE
5
123
100
AcDbEntity
8
0
100
AcDbCircle
10
8.2300000000000182
20
12.779999999999996
30
0
40
1.7500000000000002
210
0
220
0
230
1
0
CIRCLE
5
124
100
AcDbEntity
8
0
100
AcDbCircle
10
199.18304833616742
20
4.9223239642487346
30
0
40
1.7500000000000002
210
0
220
0
230
1
0
CIRCLE
5
125
100
AcDbEntity
8
0
100
AcDbCircle
10
118.23774861921748
20
3.2418593181070725
30
0
40
1.7500000000000002
210
0
220
0
230
1
0
LWPOLYLINE
5
126
100
AcDbEntity
8
0
100
AcDbPolyline
90
8
70
1
43
0.0
10
172.55236838674153
20
-26.377649780191817
10
160.81459717793592
20
-28.872590070004907
42
0.41421356237311541
10
160.04436126801988
20
-30.05864936155648
10
162.53930155783291
20
-41.796420570362173
42
0.4142135623731103
10
163.72536084938457
20
-42.566656480278191
10
175.46313205819018
20
-40.071716190465096
42
0.41421356237308932
10
176.23336796810631
20
-38.88565689891351
10
173.73842767829319
20
-27.14788569010782
42
0.41421356237307094
0
LWPOLYLINE
5
127
100
AcDbEntity
8
0
100
AcDbPolyline
90
8
70
1
43
0.0
10
177.91236838674152
20
-5.7676497801918067
10
166.17459717793591
20
-8.2625900700049328
42
0.41421356237310458
10
165.40436126801984
20
-9.4486493615564768
10
167.89930155783287
20
-21.186420570362174
42
0.41421356237310747
10
169.08536084938453
20
-21.956656480278216
10
180.82313205819017
20
-19.461716190465125
42
0.41421356237308837
10
181.59336796810629
20
-18.275656898913503
10
179.09842767829315
20
-6.5378856901078253
42
0.41421356237306095
0
LWPOLYLINE
5
128
100
AcDbEntity
8
0
100
AcDbPolyline
90
8
70
1
43
0.0
10
181.17236838674157
20
-44.027649780191808
10
169.43459717793584
20
-46.522590070004945
42
0.4142135623730645
10
168.66436126801983
20
-47.708649361556496
10
171.15930155783292
20
-59.446420570362157
42
0.4142135623730645
10
172.34536084938452
20
-60.216656480278203
10
184.08313205819016
20
-57.721716190465088
42
0.41421356237308904
10
184.85336796810626
20
-56.535656898913508
10
182.35842767829314
20
-44.797885690107847
42
0.41421356237307
0
LWPOLYLINE
5
129
100
AcDbEntity
8
0
100
AcDbPolyline
90
8
70
1
43
0.0
10
184.43301335181201
20
-76.095702860283836
10
181.93807306199886
20
-64.35793165147814
42
-0.41421356237309759
10
182.70830897191487
20
-63.171872359926617
10
194.44608018072057
20
-60.67693207011348
42
-0.41421356237306978
10
195.63213947227214
20
-61.447167980029505
10
198.12707976208532
20
-73.184939188835159
42
-0.41421356237310575
10
197.35684385216916
20
-74.370998480386746
10
185.61907264336352
20
-76.865938770199875
42
-0.4142135623730398
0
LWPOLYLINE
5
130
100
AcDbEntity
8
0
100
AcDbPolyline
90
8
70
1
43
0.0
10
199.80608018072053
20
-40.066932070113488
10
188.06830897191486
20
-42.561872359926596
42
0.41421356237304602
10
187.29807306199882
20
-43.747931651478169
10
189.79301335181194
20
-55.485702860283851
42
0.41421356237311285
10
190.97907264336354
20
-56.255938770199876
10
202.71684385216915
20
-53.760998480386746
42
0.41421356237308377
10
203.48707976208527
20
-52.574939188835181
10
200.99213947227213
20
-40.83716798002952
42
0.41421356237302981
0
LWPOLYLINE
5
131
100
AcDbEntity
8
0
100
AcDbPolyline
90
8
70
1
43
0.0
10
181.17301335181196
20
-37.835702860283845
10
178.67807306199882
20
-26.097931651478167
42
-0.41421356237309076
10
179.44830897191491
20
-24.911872359926605
10
191.18608018072055
20
-22.416932070113511
42
-0.41421356237306201
10
192.37213947227218
20
-23.187167980029496
10
194.86707976208533
20
-34.924939188835175
42
-0.41421356237305818
10
194.09684385216923
20
-36.110998480386741
10
182.35907264336356
20
-38.605938770199877
42
-0.41421356237309886
0
LWPOLYLINE
5
132
100
AcDbEntity
8
0
100
AcDbPolyline
90
8
70
1
43
0.0
10
186.53301335181195
20
-17.225702860283832
10
184.03807306199883
20
-5.4879316514781431
42
-0.41421356237310569
10
184.80830897191493
20
-4.3018723599265938
10
196.54608018072054
20
-1.8069320701134772
42
-0.41421356237305651
10
197.73213947227217
20
-2.5771679800294933
10
200.22707976208528
20
-14.314939188835162
42
-0.41421356237310575
10
199.45684385216919
20
-15.500998480386754
10
187.71907264336357
20
-17.995938770199892
42
-0.41421356237311191
0
LWPOLYLINE
5
133
100
AcDbEntity
8
0
100
AcDbPolyline
90
8
70
1
43
0.0
10
203.066725145791
20
-72.13498515020548
10
200.57178485597785
20
-60.397213941399819
42
-0.41421356237312934
10
201.34202076589389
20
-59.211154649848268
10
213.07979197469959
20
-56.716214360035131
42
-0.41421356237306345
10
214.26585126625113
20
-57.48645026995117
10
216.76079155606428
20
-69.224221478756846
42
-0.41421356237310014
10
215.99055564614815
20
-70.410280770308418
10
204.25278443734254
20
-72.905221060121562
42
-0.41421356237307833
0
LWPOLYLINE
5
134
100
AcDbEntity
8
0
100
AcDbPolyline
90
8
70
1
43
0.0
10
106.44327485420908
20
-72.134985150205438
10
108.93821514402221
20
-60.397213941399798
42
0.41421356237309398
10
108.16797923410617
20
-59.211154649848226
10
96.430208025300459
20
-56.71621436003511
42
0.41421356237310181
10
95.244148733748887
20
-57.486450269951135
10
92.749208443935757
20
-69.224221478756817
42
0.41421356237305418
10
93.51944435385181
20
-70.41028077030839
10
105.25721556265752
20
-72.905221060121534
42
0.41421356237311813
0
LWPOLYLINE
5
135
100
AcDbEntity
8
0
100
AcDbPolyline
90
8
70
1
43
0.0
10
84.18426744012713
20
-34.640436939769906
10
72.446496231321461
20
-32.14549664995679
42
0.41421356237310569
10
71.260436939769932
20
-32.915732559872829
10
68.765496649956759
20
-44.653503768678526
42
0.4142135623730685
10
69.535732559872812
20
-45.839563060230084
10
81.273503768678523
20
-48.334503350043221
42
0.41421356237311596
10
82.459563060230053
20
-47.564267440127168
10
84.954503350043197
20
-35.826496231321499
42
0.41421356237313023
0
LWPOLYLINE
5
136
100
AcDbEntity
8
0
100
AcDbPolyline
90
8
70
1
43
0.0
10
68.065496649956799
20
-25.023503768678523
10
70.560436939769914
20
-13.28573255987283
42
-0.41421356237311863
10
71.746496231321515
20
-12.515496649956791
10
83.484267440127184
20
-15.010436939769914
42
-0.41421356237315538
10
84.254503350043194
20
-16.19649623132149
10
81.75956306023005
20
-27.934267440127151
42
-0.41421356237312268
10
80.573503768678577
20
-28.704503350043204
10
68.835732559872852
20
-26.209563060230092
42
-0.41421356237309731
0
LWPOLYLINE
5
137
100
AcDbEntity
8
0
100
AcDbPolyline
90
8
70
1
43
0.0
10
62.360000000000007
20
-33.240000000000009
10
50.359999999999985
20
-33.240000000000009
42
0.41421356237309115
10
49.359999999999992
20
-34.240000000000009
10
49.359999999999985
20
-46.240000000000016
42
0.41421356237308982
10
50.359999999999985
20
-47.240000000000023
10
62.360000000000007
20
-47.240000000000023
42
0.41421356237309243
10
63.359999999999999
20
-46.240000000000016
10
63.359999999999999
20
-34.240000000000009
42
0.41421356237309764
0
LWPOLYLINE
5
138
100
AcDbEntity
8
0
100
AcDbPolyline
90
8
70
1
43
0.0
10
99.979208443935775
20
-12.33422147875682
10
102.47414873374892
20
-0.59645026995113493
42
-0.41421356237310375
10
103.66020802530048
20
0.1737856399649032
10
115.39797923410617
20
-2.3211546498482121
42
-0.41421356237314433
10
116.16821514402218
20
-3.5072139413997938
10
113.67327485420907
20
-15.244985150205455
42
-0.41421356237310702
10
112.48721556265757
20
-16.015221060121508
10
100.74944435385184
20
-13.520280770308393
42
-0.4142135623730962
0
LWPOLYLINE
5
139
100
AcDbEntity
8
0
100
AcDbPolyline
90
8
70
1
43
0.0
10
37.849999999999994
20
-28.190000000000012
10
25.849999999999987
20
-28.190000000000012
42
-0.41421356237310025
10
24.849999999999987
20
-27.190000000000008
10
24.849999999999987
20
-15.19
42
-0.4142135623731022
10
25.849999999999987
20
-14.189999999999996
10
37.849999999999994
20
-14.189999999999994
42
-0.41421356237309503
10
38.849999999999994
20
-15.19
10
38.850000000000001
20
-27.190000000000008
42
-0.41421356237309631
0
LWPOLYLINE
5
140
100
AcDbEntity
8
0
100
AcDbPolyline
90
8
70
1
43
0.0
10
87.399208443935791
20
-48.614221478756825
10
89.894148733748949
20
-36.876450269951128
42
-0.41421356237313162
10
91.080208025300479
20
-36.106214360035096
10
102.81797923410619
20
-38.601154649848212
42
-0.41421356237312695
10
103.5882151440222
20
-39.787213941399799
10
101.09327485420904
20
-51.52498515020546
42
-0.41421356237313078
10
99.907215562657541
20
-52.295221060121506
10
88.169444353851816
20
-49.80028077030839
42
-0.41421356237304546
0
LWPOLYLINE
5
141
100
AcDbEntity
8
0
100
AcDbPolyline
90
8
70
1
43
0.0
10
32.400000000000013
20
-46.240000000000016
10
32.40000000000002
20
-34.240000000000002
42
0.41421356237308854
10
31.400000000000013
20
-33.240000000000009
10
19.400000000000006
20
-33.240000000000009
42
0.41421356237308399
10
18.399999999999999
20
-34.240000000000002
10
18.399999999999995
20
-46.240000000000016
42
0.41421356237307944
10
19.400000000000006
20
-47.240000000000009
10
31.400000000000013
20
-47.240000000000009
42
0.41421356237308332
0
LWPOLYLINE
5
142
100
AcDbEntity
8
0
100
AcDbPolyline
90
8
70
1
43
0.0
10
62.659999999999997
20
-27.190000000000008
10
62.659999999999997
20
-15.19
42
0.4142135623730937
10
61.659999999999997
20
-14.189999999999996
10
49.659999999999982
20
-14.189999999999989
42
0.41421356237309243
10
48.659999999999989
20
-15.19
10
48.659999999999982
20
-27.190000000000008
42
0.41421356237309115
10
49.659999999999982
20
-28.190000000000012
10
61.659999999999997
20
-28.190000000000012
42
0.41421356237309243
0
LWPOLYLINE
5
143
100
AcDbEntity
8
0
100
AcDbPolyline
90
8
70
1
43
0.0
10
100.39327485420907
20
-31.894985150205457
10
102.88821514402221
20
-20.157213941399799
42
0.41421356237315238
10
102.11797923410617
20
-18.971154649848213
10
90.38020802530049
20
-16.47621436003509
42
0.41421356237310719
10
89.194148733748932
20
-17.246450269951133
10
86.699208443935802
20
-28.984221478756815
42
0.41421356237307594
10
87.469444353851856
20
-30.170280770308388
10
99.207215562657581
20
-32.665221060121524
42
0.41421356237312573
0
LWPOLYLINE
5
144
100
AcDbEntity
8
0
100
AcDbPolyline
90
8
70
1
43
0.0
10
61.940000000000012
20
-6.0000000000000062
10
61.939999999999998
20
6.0000000000000133
42
-0.41421356237309404
10
62.940000000000005
20
7.0000000000000142
10
74.940000000000012
20
7.0000000000000115
42
-0.41421356237308526
10
75.940000000000012
20
6.0000000000000133
10
75.940000000000012
20
-6.0000000000000062
42
-0.41421356237308821
10
74.940000000000012
20
-7.0000000000000062
10
62.940000000000005
20
-7.0000000000000071
42
-0.41421356237309631
0
LWPOLYLINE
5
145
100
AcDbEntity
8
0
100
AcDbPolyline
90
8
70
1
43
0.0
10
81.3454966499568
20
-8.3735037686785141
10
83.840436939769916
20
3.3642674401271675
42
-0.41421356237311646
10
85.026496231321488
20
4.1345033500432073
10
96.764267440127156
20
1.6395630602300977
42
-0.41421356237314061
10
97.534503350043181
20
0.4535037686785115
10
95.03956306023008
20
-11.284267440127156
42
-0.41421356237313367
10
93.853503768678536
20
-12.054503350043204
10
82.115732559872825
20
-9.5595630602300918
42
-0.41421356237308476
0
LWPOLYLINE
5
146
100
AcDbEntity
8
0
100
AcDbPolyline
90
8
70
1
43
0.0
10
43.29999999999999
20
-8.1400000000000077
10
43.29999999999999
20
3.8600000000000021
42
-0.41421356237309798
10
44.29999999999999
20
4.8600000000000101
10
56.300000000000011
20
4.8600000000000119
42
-0.41421356237310153
10
57.300000000000004
20
3.8600000000000021
10
57.300000000000011
20
-8.1400000000000077
42
-0.41421356237309925
10
56.300000000000011
20
-9.1400000000000112
10
44.29999999999999
20
-9.1400000000000059
42
-0.41421356237309537
0
LWPOLYLINE
5
147
100
AcDbEntity
8
0
100
AcDbPolyline
90
8
70
1
43
0.0
10
24.249999999999993
20
-8.1400000000000077
10
24.249999999999993
20
3.8600000000000021
42
-0.41421356237309925
10
25.249999999999993
20
4.860000000000003
10
37.250000000000007
20
4.8600000000000074
42
-0.41421356237309243
10
38.250000000000014
20
3.8600000000000021
10
38.250000000000014
20
-8.1400000000000077
42
-0.41421356237309176
10
37.250000000000007
20
-9.1400000000000112
10
25.249999999999993
20
-9.140000000000013
42
-0.41421356237310025
0
LWPOLYLINE
5
148
100
AcDbEntity
8
0
100
AcDbPolyline
90
8
70
1
43
0.0
10
81.81350376867853
20
-88.934503350043229
10
70.075732559872847
20
-86.439563060230157
42
-0.41421356237305818
10
69.305496649956808
20
-85.253503768678556
10
71.800436939769952
20
-73.515732559872845
42
-0.41421356237315116
10
72.986496231321482
20
-72.745496649956806
10
84.724267440127164
20
-75.240436939769936
42
-0.41421356237312523
10
85.494503350043203
20
-76.42649623132148
10
82.999563060230074
20
-88.16426744012719
42
-0.41421356237311646
0
LWPOLYLINE
5
149
100
AcDbEntity
8
0
100
AcDbPolyline
90
8
70
1
43
0.0
10
87.809563060230062
20
-68.174267440127181
10
90.304503350043191
20
-56.436496231321456
42
0.41421356237312884
10
89.534267440127152
20
-55.250436939769912
10
77.796496231321456
20
-52.75549664995679
42
0.41421356237311957
10
76.610436939769912
20
-53.525732559872836
10
74.115496649956754
20
-65.263503768678504
42
0.41421356237304657
10
74.885732559872807
20
-66.449563060230091
10
86.623503768678518
20
-68.944503350043206
42
0.4142135623731118
0
LWPOLYLINE
5
150
100
AcDbEntity
8
0
100
AcDbPolyline
90
8
70
1
43
0.0
10
274.52999999999997
20
4.8599999999999959
10
262.52999999999997
20
4.8600000000000101
42
0.41421356237307227
10
261.52999999999997
20
3.8599999999999959
10
261.52999999999997
20
-8.1400000000000148
42
0.41421356237307161
10
262.52999999999997
20
-9.1400000000000166
10
274.52999999999997
20
-9.140000000000029
42
0.4142135623731259
10
275.52999999999997
20
-8.1400000000000148
10
275.53000000000003
20
3.8599999999999959
42
0.41421356237314705
0
LWPOLYLINE
5
151
100
AcDbEntity
8
0
100
AcDbPolyline
90
8
70
1
43
0.0
10
256.17000000000007
20
-27.190000000000008
10
256.17000000000002
20
-15.19
42
-0.41421356237310153
10
257.17000000000002
20
-14.189999999999996
10
269.17000000000002
20
-14.189999999999985
42
-0.4142135623730846
10
270.17000000000002
20
-15.19
10
270.17000000000007
20
-27.190000000000008
42
-0.41421356237308593
10
269.17000000000002
20
-28.190000000000012
10
257.17000000000002
20
-28.190000000000044
42
-0.41421356237310153
0
LWPOLYLINE
5
152
100
AcDbEntity
8
0
100
AcDbPolyline
90
8
70
1
43
0.0
10
299.04000000000002
20
-27.190000000000008
10
299.04000000000002
20
-15.19
42
-0.4142135623730846
10
300.04000000000008
20
-14.189999999999996
10
312.04000000000002
20
-14.189999999999978
42
-0.41421356237312817
10
313.04000000000002
20
-15.19
10
313.04000000000002
20
-27.190000000000008
42
-0.41421356237312756
10
312.04000000000002
20
-28.190000000000012
10
300.04000000000008
20
-28.190000000000026
42
-0.41421356237308593
0
LWPOLYLINE
5
153
100
AcDbEntity
8
0
100
AcDbPolyline
90
8
70
1
43
0.0
10
250.54000000000002
20
-27.13000000000001
10
238.53999999999999
20
-27.130000000000031
42
-0.41421356237306772
10
237.54000000000002
20
-26.130000000000003
10
237.54000000000002
20
-14.129999999999999
42
-0.4142135623730599
10
238.53999999999999
20
-13.129999999999997
10
250.54000000000002
20
-13.129999999999992
42
-0.41421356237309243
10
251.53999999999999
20
-14.129999999999999
10
251.54000000000002
20
-26.130000000000003
42
-0.41421356237309243
0
LWPOLYLINE
5
154
100
AcDbEntity
8
0
100
AcDbPolyline
90
8
70
1
43
0.0
10
275.22000000000003
20
-27.190000000000008
10
275.21999999999997
20
-15.19
42
-0.41421356237311191
10
276.22000000000003
20
-14.189999999999996
10
288.22000000000003
20
-14.189999999999985
42
-0.41421356237307422
10
289.22000000000003
20
-15.19
10
289.22000000000003
20
-27.190000000000008
42
-0.41421356237307549
10
288.22000000000003
20
-28.190000000000012
10
276.22000000000003
20
-28.190000000000044
42
-0.41421356237311191
0
LWPOLYLINE
5
155
100
AcDbEntity
8
0
100
AcDbPolyline
90
8
70
1
43
0.0
10
29.620000000000012
20
-85.340000000000032
10
17.619999999999997
20
-85.340000000000032
42
-0.41421356237307422
10
16.620000000000001
20
-84.340000000000032
10
16.619999999999997
20
-72.340000000000018
42
-0.41421356237310675
10
17.619999999999997
20
-71.340000000000003
10
29.620000000000012
20
-71.340000000000003
42
-0.41421356237308982
10
30.620000000000012
20
-72.340000000000003
10
30.620000000000026
20
-84.340000000000032
42
-0.41421356237307422
0
LWPOLYLINE
5
156
100
AcDbEntity
8
0
100
AcDbPolyline
90
8
70
1
43
0.0
10
278.21000000000015
20
-33.240000000000009
10
266.20999999999998
20
-33.239999999999988
42
0.41421356237306123
10
265.21000000000004
20
-34.240000000000002
10
265.21000000000004
20
-46.240000000000016
42
0.41421356237306384
10
266.20999999999998
20
-47.240000000000009
10
278.21000000000015
20
-47.240000000000038
42
0.41421356237306384
10
279.21000000000009
20
-46.240000000000016
10
279.21000000000009
20
-34.240000000000002
42
0.41421356237306123
0
LWPOLYLINE
5
157
100
AcDbEntity
8
0
100
AcDbPolyline
90
8
70
1
43
0.0
10
254.80000000000004
20
-65.290000000000035
10
254.80000000000004
20
-53.290000000000006
42
0.414213562373069
10
253.80000000000001
20
-52.290000000000006
10
241.80000000000004
20
-52.289999999999992
42
0.41421356237307944
10
240.80000000000001
20
-53.290000000000006
10
240.80000000000001
20
-65.290000000000035
42
0.414213562373069
10
241.80000000000004
20
-66.29000000000002
10
253.80000000000001
20
-66.290000000000049
42
0.41421356237306384
0
LWPOLYLINE
5
158
100
AcDbEntity
8
0
100
AcDbPolyline
90
8
70
1
43
0.0
10
272.85000000000002
20
-66.29000000000002
10
260.85000000000002
20
-66.29000000000002
42
-0.41421356237306384
10
259.85000000000002
20
-65.290000000000035
10
259.85000000000002
20
-53.290000000000006
42
-0.41421356237307161
10
260.85000000000002
20
-52.29000000000002
10
272.85000000000002
20
-52.289999999999999
42
-0.41421356237313406
10
273.85000000000002
20
-53.290000000000006
10
273.85000000000002
20
-65.290000000000035
42
-0.41421356237312884
0
LWPOLYLINE
5
159
100
AcDbEntity
8
0
100
AcDbPolyline
90
8
70
1
43
0.0
10
259.16000000000008
20
-47.240000000000002
10
247.16000000000003
20
-47.240000000000023
42
-0.41421356237309503
10
246.16
20
-46.240000000000009
10
246.15999999999997
20
-34.240000000000002
42
-0.41421356237310542
10
247.16000000000003
20
-33.240000000000009
10
259.16000000000008
20
-33.239999999999995
42
-0.41421356237308204
10
260.16000000000008
20
-34.240000000000002
10
260.16000000000014
20
-46.240000000000009
42
-0.41421356237308204
0
LWPOLYLINE
5
160
100
AcDbEntity
8
0
100
AcDbPolyline
90
8
70
1
43
0.0
10
296.16000000000003
20
-46.240000000000016
10
296.16000000000003
20
-34.240000000000002
42
-0.41421356237307161
10
297.16000000000003
20
-33.240000000000009
10
309.16000000000003
20
-33.239999999999988
42
-0.41421356237313667
10
310.16000000000008
20
-34.240000000000002
10
310.16000000000008
20
-46.240000000000016
42
-0.41421356237313667
10
309.16000000000003
20
-47.240000000000009
10
297.16000000000003
20
-47.24000000000003
42
-0.41421356237307422
0
LWPOLYLINE
5
161
100
AcDbEntity
8
0
100
AcDbPolyline
90
8
70
1
43
0.0
10
256.90000000000003
20
-6.0000000000000062
10
256.90000000000009
20
6.0000000000000133
42
0.41421356237308365
10
255.90000000000003
20
7.0000000000000142
10
243.90000000000001
20
7.0000000000000231
42
0.41421356237308948
10
242.90000000000003
20
6.0000000000000133
10
242.89999999999998
20
-6.0000000000000062
42
0.41421356237309176
10
243.90000000000001
20
-7.0000000000000062
10
255.90000000000003
20
-7.0000000000000062
42
0.4142135623730856
0
LWPOLYLINE
5
162
100
AcDbEntity
8
0
100
AcDbPolyline
90
8
70
1
43
0.0
10
316.79560000000009
20
-85.388000000000019
10
304.79559999999998
20
-85.388000000000034
42
-0.4142135623730846
10
303.79559999999998
20
-84.388000000000019
10
303.79559999999998
20
-72.388000000000019
42
-0.41421356237305079
10
304.79559999999998
20
-71.388000000000005
10
316.79560000000009
20
-71.388000000000005
42
-0.41421356237307422
10
317.79560000000009
20
-72.388000000000005
10
317.79560000000009
20
-84.388000000000019
42
-0.41421356237307422
0
LWPOLYLINE
5
163
100
AcDbEntity
8
0
100
AcDbPolyline
90
8
70
1
43
0.0
10
1.2300000000000366
20
-6.0000000000000266
10
1.2300000000000089
20
5.9999999999999707
42
-0.41421356237309548
10
2.2300000000000386
20
6.9999999999999716
10
14.23000000000002
20
6.9999999999999716
42
-0.41421356237309892
10
15.230000000000024
20
5.9999999999999707
10
15.230000000000024
20
-6.0000000000000266
42
-0.41421356237309798
10
14.23000000000002
20
-7.0000000000000275
10
2.2300000000000382
20
-7.0000000000000275
42
-0.41421356237311402
0
LWPOLYLINE
5
164
100
AcDbEntity
8
0
100
AcDbPolyline
90
8
70
1
43
0.0
10
67.709999999999994
20
-66.29000000000002
10
55.70999999999998
20
-66.290000000000035
42
-0.41421356237307944
10
54.70999999999998
20
-65.290000000000035
10
54.70999999999998
20
-53.290000000000006
42
-0.41421356237309503
10
55.70999999999998
20
-52.29000000000002
10
67.709999999999994
20
-52.289999999999999
42
-0.41421356237309764
10
68.709999999999994
20
-53.290000000000006
10
68.709999999999994
20
-65.290000000000035
42
-0.41421356237308204
0
LWPOLYLINE
5
165
100
AcDbEntity
8
0
100
AcDbPolyline
90
8
70
1
43
0.0
10
-2.9299999999999882
20
-25.050000000000026
10
-2.9300000000000166
20
-13.050000000000029
42
-0.41421356237309037
10
-1.9299999999999873
20
-12.050000000000027
10
10.069999999999995
20
-12.050000000000026
42
-0.41421356237308204
10
11.069999999999997
20
-13.050000000000029
10
11.07
20
-25.050000000000026
42
-0.41421356237309892
10
10.069999999999995
20
-26.050000000000026
10
-1.9299999999999873
20
-26.050000000000033
42
-0.41421356237310575
0
LWPOLYLINE
5
166
100
AcDbEntity
8
0
100
AcDbPolyline
90
20
70
1
43
0.0
10
311.54300000000285
20
-11.140000298231957
10
306.54300000000563
20
-11.14000029823201
42
-0.41421356237279133
10
305.54300000000597
20
-10.140000298232181
10
305.54300000000615
20
-9.1400000000000023
10
288.66700000000299
20
-9.1400000000000023
10
288.6670000000027
20
-10.140000298231959
42
-0.41421356237360102
10
287.66700000000327
20
-11.140000298231957
10
282.66700000000429
20
-11.14000029823201
42
-0.41421356237279133
10
281.66700000000463
20
-10.140000298232181
10
281.6670000000048
20
-9.1400000000000023
10
281.58000000000004
20
-9.1400000000000201
42
-0.41421356237308399
10
280.57999999999998
20
-8.1400000000000077
10
280.57999999999998
20
3.8600000000000021
42
-0.41421356237308399
10
281.58000000000004
20
4.860000000000003
10
312.63
20
4.8600000000000199
42
-0.41421356237314805
10
313.63
20
3.8600000000000021
10
313.63000000000005
20
-8.1399999999999988
42
-0.41421356237314966
10
312.63
20
-9.1400000000000023
10
312.54300000000404
20
-9.1400000000000023
10
312.5430000000041
20
-10.140000298231959
42
-0.41421356237202717
0
LWPOLYLINE
5
167
100
AcDbEntity
8
0
100
AcDbPolyline
90
13
70
1
43
0.0
10
311.00800000000595
20
-67.290000298232158
10
311.00800000000618
20
-54.290000298232172
42
-0.4142135623732589
10
312.00800000000692
20
-53.290000298231341
10
312.23874999999998
20
-53.290000298231341
42
-0.41421364972294433
10
313.23874999999998
20
-52.29000000000002
10
325.23875000000004
20
-52.289999999999964
42
-0.41421356237306123
10
326.23875000000004
20
-53.290000000000006
10
326.23875000000004
20
-65.290000000000035
42
-0.4142135623730534
10
325.23875000000004
20
-66.29000000000002
10
318.00800000000413
20
-66.29000000000002
10
318.00800000000424
20
-67.290000298231945
42
-0.41421356237208046
10
317.00800000000288
20
-68.290000298231945
10
312.00800000000572
20
-68.290000298231973
42
-0.414213562372723
0
LWPOLYLINE
5
168
100
AcDbEntity
8
0
100
AcDbPolyline
90
8
70
1
43
0.0
10
311.59799999999728
20
-45.239999701768056
10
311.5979999999974
20
-32.239999701768042
42
-0.4142135623735711
10
312.59799999999677
20
-31.239999701768042
10
317.59799999999575
20
-31.239999701767953
42
-0.41421356237275686
10
318.59799999999558
20
-32.239999701767772
10
318.59799999999547
20
-45.2399997017678
42
-0.41421356237317047
10
317.59799999999558
20
-46.239999701767744
10
312.59799999999689
20
-46.239999701767786
42
-0.41421356237303258
0
LWPOLYLINE
5
169
100
AcDbEntity
8
0
100
AcDbPolyline
90
8
70
1
43
0.0
10
46.198000000003404
20
-54.290000298230964
10
46.198000000003418
20
-67.290000298230979
42
-0.41421356237333956
10
45.1980000000028
20
-68.290000298231888
10
40.198000000005571
20
-68.290000298231902
42
-0.41421356237278806
10
39.198000000005841
20
-67.290000298232101
10
39.198000000006125
20
-54.290000298232073
42
-0.41421356237316009
10
40.198000000006729
20
-53.290000298231234
10
45.1980000000028
20
-53.29000029823122
42
-0.41421356237283491
0
LWPOLYLINE
5
170
100
AcDbEntity
8
0
100
AcDbPolyline
90
8
70
1
43
0.0
10
294.72199999999424
20
-32.239999701767942
10
294.72199999999407
20
-45.239999701767957
42
-0.41421356237315748
10
293.72199999999339
20
-46.239999701768795
10
288.72199999999731
20
-46.239999701768852
42
-0.41421356237338897
10
287.72199999999634
20
-45.239999701768227
10
287.72199999999606
20
-32.239999701768213
42
-0.41421356237202195
10
288.72199999999725
20
-31.239999701768202
10
293.72199999999441
20
-31.239999701768113
42
-0.41421356237276075
0
LWPOLYLINE
5
171
100
AcDbEntity
8
0
100
AcDbPolyline
90
14
70
1
43
0.0
10
293.13200000000342
20
-68.290000298231945
10
288.13200000000438
20
-68.290000298231973
42
-0.414213562372723
10
287.13200000000461
20
-67.290000298232158
10
287.13200000000489
20
-66.29000000000002
10
287.04500000000002
20
-66.290000000000092
42
-0.41421356237310802
10
286.04500000000007
20
-65.290000000000035
10
286.04500000000002
20
-53.290000000000006
42
-0.41421356237313667
10
287.04500000000002
20
-52.29000000000002
10
308.56999999999999
20
-52.289999999999992
42
-0.41421356237313667
10
309.56999999999999
20
-53.290000000000006
10
309.56999999999999
20
-65.290000000000035
42
-0.41421356237310802
10
308.56999999999999
20
-66.29000000000002
10
294.13200000000307
20
-66.29000000000002
10
294.13200000000279
20
-67.290000298231945
42
-0.41421356237355028
0
LWPOLYLINE
5
172
100
AcDbEntity
8
0
100
AcDbPolyline
90
8
70
1
43
0.0
10
23.760000000000009
20
-65.290000000000035
10
23.760000000000005
20
-53.29000000000002
42
-0.41421356237311324
10
24.760000000000009
20
-52.29000000000002
10
36.759999999999984
20
-52.290000000000006
42
-0.41421356237310414
10
37.759999999999998
20
-53.290000000000006
10
37.760000000000019
20
-65.290000000000035
42
-0.41421356237308204
10
36.760000000000005
20
-66.29000000000002
10
24.760000000000009
20
-66.290000000000035
42
-0.41421356237309503
0
LWPOLYLINE
5
173
100
AcDbEntity
8
0
100
AcDbPolyline
90
8
70
1
43
0.0
10
181.78309695645436
20
-81.829177749535916
10
184.48594893708503
20
-94.545096559075645
42
-0.41421356237315721
10
183.71571302716856
20
-95.731155850627928
10
178.82497502350344
20
-96.770714304715966
42
-0.41421356237340934
10
177.63891573195079
20
-96.000478394799529
10
174.93606375131952
20
-83.284559585260098
42
-0.41421356237199913
10
175.70629966123678
20
-82.09850029370827
10
180.59703766490313
20
-81.058941839620005
42
-0.41421356237278251
0
LWPOLYLINE
5
174
100
AcDbEntity
8
0
100
AcDbPolyline
90
8
70
1
43
0.0
10
21.32200000000406
20
-68.290000298231604
10
16.322000000005055
20
-68.290000298231604
42
-0.41421356237314899
10
15.322000000004639
20
-67.290000298232101
10
15.322000000004778
20
-54.290000298232073
42
-0.41421356237316853
10
16.3220000000045
20
-53.290000298232123
10
21.322000000003236
20
-53.290000298232115
42
-0.4142135623734215
10
22.322000000003786
20
-54.290000298231853
10
22.322000000003786
20
-67.29000029823186
42
-0.41421356237309892
0
LWPOLYLINE
5
175
100
AcDbEntity
8
0
100
AcDbPolyline
90
8
70
1
43
0.0
10
-7.0000000000000062
20
-44.100000000000001
10
-7.0000000000000107
20
-32.100000000000009
42
-0.41421356237310281
10
-6.0000000000000053
20
-31.100000000000001
10
6.0000000000000053
20
-31.100000000000001
42
-0.41421356237308071
10
7.0000000000000062
20
-32.100000000000001
10
7.0000000000000098
20
-44.100000000000001
42
-0.41421356237308693
10
6.0000000000000053
20
-45.100000000000009
10
-6.0000000000000053
20
-45.100000000000016
42
-0.41421356237308693
0
LWPOLYLINE
5
176
100
AcDbEntity
8
0
100
AcDbPolyline
90
8
70
1
43
0.0
10
205.13734907157598
20
-76.865078219570592
10
207.84020105220665
20
-89.58099702911035
42
-0.41421356237314405
10
207.0699651422909
20
-90.767056320661624
10
202.17922713862311
20
-91.806614774750216
42
-0.41421356237295626
10
200.99316784707199
20
-91.036378864834347
10
198.2903158664412
20
-78.320460055294845
42
-0.4142135623735711
10
199.06055177635665
20
-77.134400763743386
10
203.95128978002472
20
-76.094842309654709
42
-0.41421356237279194
0
LWPOLYLINE
5
177
100
AcDbEntity
8
0
100
AcDbPolyline
90
35
70
1
43
0.0
10
117.34350376867857
20
-94.954503350043154
10
105.60573255987286
20
-92.459563060230025
42
-0.024024055625530203
10
105.51285773675534
20
-92.435106957327008
10
103.31429155140781
20
-91.967787288365557
42
-0.41417043669291642
10
102.54402503865239
20
-90.781872023991909
42
-0.023636216218985595
10
102.45077286136697
20
-90.766614774749343
10
97.560034857701794
20
-89.727056320661404
42
-0.029842482062461064
10
97.445063590935774
20
-89.695347622183078
10
95.274004366482146
20
-89.233874738251217
42
-0.41421356237231344
10
94.503768456565425
20
-88.047815446699772
10
97.206620437196293
20
-75.331896637160412
42
-0.41421356237347406
10
98.392679728748277
20
-74.561660727244458
10
103.28341773241806
20
-75.601219181333477
42
-0.029842482058916965
10
103.39838899917076
20
-75.632927879807866
10
105.56944822363454
20
-76.094400763741874
42
-0.41421356237283591
10
106.33968413355038
20
-77.280460055293148
10
106.13180305638858
20
-78.258463630098248
42
-0.023636213495556689
10
106.22505522285657
20
-78.27372087809222
10
117.96282643166101
20
-80.768661167905194
42
-0.024024055624663952
10
118.05570125477809
20
-80.793117270808139
10
120.25426744012718
20
-81.260436939769889
42
-0.024892862965454645
10
120.35045275743261
20
-81.285943469769023
10
120.56087255231722
20
-80.295996167125182
42
-0.41421356237402968
10
121.7469318438699
20
-79.525760257209726
10
126.63766984754832
20
-80.565318711300591
42
-0.029842482053664601
10
126.7526411143034
20
-80.597027409775194
10
128.92370033875622
20
-81.058500293706828
42
-0.41421356237280216
10
129.69393624867206
20
-82.244559585258116
10
126.99108426804096
20
-94.960478394797562
42
-0.41421356237314699
10
125.80502497648972
20
-95.730714304713587
10
120.9142869728219
20
-94.691155850625094
42
-0.029842482052013675
10
120.79931570608011
20
-94.65944715215457
10
118.62825648160147
20
-94.197974268217422
42
-0.024892862965006059
10
118.53207116429653
20
-94.172467738218501
10
118.52956306023009
20
-94.184267440127144
42
-0.41421356237308082
0
LWPOLYLINE
5
178
100
AcDbEntity
8
0
100
AcDbPolyline
90
8
70
1
43
0.0
10
132.82750536021024
20
-97.21867394453227
10
135.32244565002335
20
-85.480902735726545
42
-0.41421356237307466
10
136.50850494157493
20
-84.71066682581052
10
150.57426744012713
20
-87.700436939769901
42
-0.4142135623731103
10
151.34450335004317
20
-88.886496231321473
10
148.84956306023011
20
-100.62426744012717
42
-0.4142135623731234
10
147.66350376867854
20
-101.39450335004319
10
133.59774127012631
20
-98.404733236083814
42
-0.41421356237310414
0
LWPOLYLINE
5
179
100
AcDbEntity
8
0
100
AcDbPolyline
90
77
70
1
43
0.0
10
154.54950450079872
20
-7.5434644448780999
10
122.26021465024982
20
-0.68016401547870387
42
-0.33333333333331983
10
121.47088937093413
20
0.22369748023470137
10
121.22945952961778
20
3.4647176331683438
42
0.74999999999999478
10
115.59532934939105
20
4.66228897227864
10
114.05653055737187
20
1.7996680966333176
42
-0.33333333333333481
10
112.96781244327863
20
1.2949970472900318
10
73.15181952849791
20
9.7581476007337837
42
0.052407779283084384
10
72.943907837680115
20
9.7799999999999763
10
12.980000000000022
20
9.7799999999999851
42
-0.33333333333334336
10
12.020000000000033
20
10.499999999999986
10
11.110000000000039
20
13.619999999999987
42
0.749999999999996
10
5.350000000000021
20
13.619999999999987
10
4.4400000000000279
20
10.499999999999991
42
-0.33333333333333415
10
3.4800000000000111
20
9.7799999999999834
10
-4.3657864376267783
20
9.7799999999999851
42
0.19891236737963783
10
-5.0728932188133236
20
9.4871067811865437
10
-9.4871067811865277
20
5.0728932188134346
42
0.19891236737962498
10
-9.7799999999999834
20
4.365786437626884
10
-9.7799999999999851
20
-72.870000000000033
42
0.4142135623730866
10
-8.7799999999999816
20
-73.870000000000019
10
1.4700000000000499
20
-73.870000000000019
42
-0.41421356237309503
10
2.4700000000000495
20
-74.870000000000019
10
2.4700000000000495
20
-87.120000000000033
42
0.41421356237309798
10
3.4700000000000566
20
-88.120000000000033
10
3.4800000000000386
20
-88.120000000000047
42
-0.33333333333335097
10
4.440000000000027
20
-88.840000000000032
10
5.3500000000000156
20
-91.959999999999965
42
0.749999999999997
10
11.110000000000039
20
-91.959999999999965
10
12.019999999999996
20
-88.840000000000032
42
-0.33333333333333498
10
12.979999999999992
20
-88.120000000000033
10
64.084984129076815
20
-88.120000000000033
42
-0.052407779283047844
10
65.124542583165592
20
-88.229261996331005
10
107.344051549217
20
-97.203295657551379
42
-0.33333333333333276
10
108.13337682853266
20
-98.107157153264808
10
108.37480666984901
20
-101.34817730619842
42
0.74999999999999667
10
114.00893685007573
20
-102.54574864530868
10
115.54773564209486
20
-99.683127769663372
42
-0.33333333333334675
10
116.63645375618816
20
-99.178456720320085
10
158.3304415459113
20
-108.04078740721535
42
0.10510423526567124
10
160.40955845408877
20
-108.04078740721535
10
202.10354624381179
20
-99.178456720320085
42
-0.3333333333333558
10
203.19226435790515
20
-99.683127769663429
10
204.73106314992424
20
-102.54574864530869
42
0.75000000000000988
10
210.36519333015093
20
-101.34817730619841
10
210.60662317146728
20
-98.107157153264865
42
-0.33333333333331711
10
211.39594845078295
20
-97.203295657551436
10
253.3896351715797
20
-88.277261996330992
42
-0.052407779283049183
10
254.42919362566846
20
-88.168000000000021
10
306.27275000000003
20
-88.16799999999995
42
-0.33333333333331122
10
307.23275000000007
20
-88.888000000000034
10
308.12875000000003
20
-91.959999999999994
42
0.74999999999999478
10
313.88875000000013
20
-91.959999999999994
10
314.78475000000003
20
-88.888000000000019
42
-0.3333333333333065
10
315.74475000000007
20
-88.168000000000021
10
323.6045364376269
20
-88.168000000000021
42
0.19891236737969495
10
324.31164321881346
20
-87.875106781186616
10
328.72585678118662
20
-83.460893218813581
42
0.19891236737965615
10
329.01875000000007
20
-82.753786437626999
10
329.01875000000013
20
4.3657864376267241
42
0.19891236737967891
10
328.72585678118668
20
5.072893218813296
10
324.31164321881334
20
9.4871067811865579
42
0.19891236737971227
10
323.6045364376269
20
9.779999999999955
10
315.75875000000002
20
9.779999999999955
42
-0.33333333333338444
10
314.79875000000015
20
10.499999999999961
10
313.88875000000013
20
13.620000000000021
42
0.74999999999996758
10
308.12875000000008
20
13.620000000000021
10
307.21875000000006
20
10.499999999999961
42
-0.33333333333333071
10
306.25875000000002
20
9.7799999999999621
10
236.4658203102868
20
9.7799999999999621
10
204.45298451210633
20
2.9754616934316944
42
-0.3333333333333795
10
203.36426639801303
20
3.4801327427749773
10
201.82546760599391
20
6.3427536184203195
42
0.75000000000000522
10
196.19133742576713
20
5.1451822793100046
10
195.94990758445084
20
1.9041621263763759
42
-0.33333333333331483
10
195.16058230513522
20
1.0003006306630036
10
154.96532788243425
20
-7.5434644448780785
42
-0.10510423526568514
0
ENDSEC
0
SECTION
2
OBJECTS
0
DICTIONARY
5
C
100
AcDbDictionary
3
ACAD_GROUP
350
D
3
ACAD_MLINESTYLE
350
17
0
DICTIONARY
5
D
100
AcDbDictionary
0
DICTIONARY
5
1A
330
C
100
AcDbDictionary
0
DICTIONARY
5
17
100
AcDbDictionary
0
ENDSEC
0
EOF
