G04 #@! TF.GenerationSoftware,KiCad,Pcbnew,(5.1.5)-3*
G04 #@! TF.CreationDate,2020-09-25T08:39:15-07:00*
G04 #@! TF.ProjectId,H_c v_ m_ch c_ng anh S_n,48cd6320-76bd-4206-9da1-63682063f96e,rev?*
G04 #@! TF.SameCoordinates,Original*
G04 #@! TF.FileFunction,Copper,L2,Bot*
G04 #@! TF.FilePolarity,Positive*
%FSLAX46Y46*%
G04 Gerber Fmt 4.6, Leading zero omitted, Abs format (unit mm)*
G04 Created by KiCad (PCBNEW (5.1.5)-3) date 2020-09-25 08:39:15*
%MOMM*%
%LPD*%
G04 APERTURE LIST*
%ADD10C,0.100000*%
%ADD11C,0.800000*%
%ADD12C,0.250000*%
G04 APERTURE END LIST*
G04 #@! TA.AperFunction,SMDPad,CuDef*
D10*
G36*
X219500288Y-86220903D02*
G01*
X220348816Y-87069431D01*
X219358866Y-88059381D01*
X218510338Y-87210853D01*
X219500288Y-86220903D01*
G37*
G04 #@! TD.AperFunction*
G04 #@! TA.AperFunction,SMDPad,CuDef*
G36*
X217944653Y-87776538D02*
G01*
X218793181Y-88625066D01*
X217803231Y-89615016D01*
X216954703Y-88766488D01*
X217944653Y-87776538D01*
G37*
G04 #@! TD.AperFunction*
G04 #@! TA.AperFunction,SMDPad,CuDef*
G36*
X219146734Y-88978619D02*
G01*
X219995262Y-89827147D01*
X219005312Y-90817097D01*
X218156784Y-89968569D01*
X219146734Y-88978619D01*
G37*
G04 #@! TD.AperFunction*
G04 #@! TA.AperFunction,SMDPad,CuDef*
G36*
X220702369Y-87422984D02*
G01*
X221550897Y-88271512D01*
X220560947Y-89261462D01*
X219712419Y-88412934D01*
X220702369Y-87422984D01*
G37*
G04 #@! TD.AperFunction*
G04 #@! TA.AperFunction,SMDPad,CuDef*
G36*
X216719826Y-98685301D02*
G01*
X216725893Y-98686201D01*
X216731843Y-98687691D01*
X216737618Y-98689758D01*
X216743162Y-98692380D01*
X216748423Y-98695533D01*
X216753350Y-98699187D01*
X216757894Y-98703306D01*
X216762013Y-98707850D01*
X216765667Y-98712777D01*
X216768820Y-98718038D01*
X216771442Y-98723582D01*
X216773509Y-98729357D01*
X216774999Y-98735307D01*
X216775899Y-98741374D01*
X216776200Y-98747500D01*
X216776200Y-99697500D01*
X216775899Y-99703626D01*
X216774999Y-99709693D01*
X216773509Y-99715643D01*
X216771442Y-99721418D01*
X216768820Y-99726962D01*
X216765667Y-99732223D01*
X216762013Y-99737150D01*
X216757894Y-99741694D01*
X216753350Y-99745813D01*
X216748423Y-99749467D01*
X216743162Y-99752620D01*
X216737618Y-99755242D01*
X216731843Y-99757309D01*
X216725893Y-99758799D01*
X216719826Y-99759699D01*
X216713700Y-99760000D01*
X216588700Y-99760000D01*
X216582574Y-99759699D01*
X216576507Y-99758799D01*
X216570557Y-99757309D01*
X216564782Y-99755242D01*
X216559238Y-99752620D01*
X216553977Y-99749467D01*
X216549050Y-99745813D01*
X216544506Y-99741694D01*
X216540387Y-99737150D01*
X216536733Y-99732223D01*
X216533580Y-99726962D01*
X216530958Y-99721418D01*
X216528891Y-99715643D01*
X216527401Y-99709693D01*
X216526501Y-99703626D01*
X216526200Y-99697500D01*
X216526200Y-98747500D01*
X216526501Y-98741374D01*
X216527401Y-98735307D01*
X216528891Y-98729357D01*
X216530958Y-98723582D01*
X216533580Y-98718038D01*
X216536733Y-98712777D01*
X216540387Y-98707850D01*
X216544506Y-98703306D01*
X216549050Y-98699187D01*
X216553977Y-98695533D01*
X216559238Y-98692380D01*
X216564782Y-98689758D01*
X216570557Y-98687691D01*
X216576507Y-98686201D01*
X216582574Y-98685301D01*
X216588700Y-98685000D01*
X216713700Y-98685000D01*
X216719826Y-98685301D01*
G37*
G04 #@! TD.AperFunction*
G04 #@! TA.AperFunction,SMDPad,CuDef*
G36*
X217219826Y-98685301D02*
G01*
X217225893Y-98686201D01*
X217231843Y-98687691D01*
X217237618Y-98689758D01*
X217243162Y-98692380D01*
X217248423Y-98695533D01*
X217253350Y-98699187D01*
X217257894Y-98703306D01*
X217262013Y-98707850D01*
X217265667Y-98712777D01*
X217268820Y-98718038D01*
X217271442Y-98723582D01*
X217273509Y-98729357D01*
X217274999Y-98735307D01*
X217275899Y-98741374D01*
X217276200Y-98747500D01*
X217276200Y-99697500D01*
X217275899Y-99703626D01*
X217274999Y-99709693D01*
X217273509Y-99715643D01*
X217271442Y-99721418D01*
X217268820Y-99726962D01*
X217265667Y-99732223D01*
X217262013Y-99737150D01*
X217257894Y-99741694D01*
X217253350Y-99745813D01*
X217248423Y-99749467D01*
X217243162Y-99752620D01*
X217237618Y-99755242D01*
X217231843Y-99757309D01*
X217225893Y-99758799D01*
X217219826Y-99759699D01*
X217213700Y-99760000D01*
X217088700Y-99760000D01*
X217082574Y-99759699D01*
X217076507Y-99758799D01*
X217070557Y-99757309D01*
X217064782Y-99755242D01*
X217059238Y-99752620D01*
X217053977Y-99749467D01*
X217049050Y-99745813D01*
X217044506Y-99741694D01*
X217040387Y-99737150D01*
X217036733Y-99732223D01*
X217033580Y-99726962D01*
X217030958Y-99721418D01*
X217028891Y-99715643D01*
X217027401Y-99709693D01*
X217026501Y-99703626D01*
X217026200Y-99697500D01*
X217026200Y-98747500D01*
X217026501Y-98741374D01*
X217027401Y-98735307D01*
X217028891Y-98729357D01*
X217030958Y-98723582D01*
X217033580Y-98718038D01*
X217036733Y-98712777D01*
X217040387Y-98707850D01*
X217044506Y-98703306D01*
X217049050Y-98699187D01*
X217053977Y-98695533D01*
X217059238Y-98692380D01*
X217064782Y-98689758D01*
X217070557Y-98687691D01*
X217076507Y-98686201D01*
X217082574Y-98685301D01*
X217088700Y-98685000D01*
X217213700Y-98685000D01*
X217219826Y-98685301D01*
G37*
G04 #@! TD.AperFunction*
G04 #@! TA.AperFunction,SMDPad,CuDef*
G36*
X217719826Y-98685301D02*
G01*
X217725893Y-98686201D01*
X217731843Y-98687691D01*
X217737618Y-98689758D01*
X217743162Y-98692380D01*
X217748423Y-98695533D01*
X217753350Y-98699187D01*
X217757894Y-98703306D01*
X217762013Y-98707850D01*
X217765667Y-98712777D01*
X217768820Y-98718038D01*
X217771442Y-98723582D01*
X217773509Y-98729357D01*
X217774999Y-98735307D01*
X217775899Y-98741374D01*
X217776200Y-98747500D01*
X217776200Y-99697500D01*
X217775899Y-99703626D01*
X217774999Y-99709693D01*
X217773509Y-99715643D01*
X217771442Y-99721418D01*
X217768820Y-99726962D01*
X217765667Y-99732223D01*
X217762013Y-99737150D01*
X217757894Y-99741694D01*
X217753350Y-99745813D01*
X217748423Y-99749467D01*
X217743162Y-99752620D01*
X217737618Y-99755242D01*
X217731843Y-99757309D01*
X217725893Y-99758799D01*
X217719826Y-99759699D01*
X217713700Y-99760000D01*
X217588700Y-99760000D01*
X217582574Y-99759699D01*
X217576507Y-99758799D01*
X217570557Y-99757309D01*
X217564782Y-99755242D01*
X217559238Y-99752620D01*
X217553977Y-99749467D01*
X217549050Y-99745813D01*
X217544506Y-99741694D01*
X217540387Y-99737150D01*
X217536733Y-99732223D01*
X217533580Y-99726962D01*
X217530958Y-99721418D01*
X217528891Y-99715643D01*
X217527401Y-99709693D01*
X217526501Y-99703626D01*
X217526200Y-99697500D01*
X217526200Y-98747500D01*
X217526501Y-98741374D01*
X217527401Y-98735307D01*
X217528891Y-98729357D01*
X217530958Y-98723582D01*
X217533580Y-98718038D01*
X217536733Y-98712777D01*
X217540387Y-98707850D01*
X217544506Y-98703306D01*
X217549050Y-98699187D01*
X217553977Y-98695533D01*
X217559238Y-98692380D01*
X217564782Y-98689758D01*
X217570557Y-98687691D01*
X217576507Y-98686201D01*
X217582574Y-98685301D01*
X217588700Y-98685000D01*
X217713700Y-98685000D01*
X217719826Y-98685301D01*
G37*
G04 #@! TD.AperFunction*
G04 #@! TA.AperFunction,SMDPad,CuDef*
G36*
X218219826Y-98685301D02*
G01*
X218225893Y-98686201D01*
X218231843Y-98687691D01*
X218237618Y-98689758D01*
X218243162Y-98692380D01*
X218248423Y-98695533D01*
X218253350Y-98699187D01*
X218257894Y-98703306D01*
X218262013Y-98707850D01*
X218265667Y-98712777D01*
X218268820Y-98718038D01*
X218271442Y-98723582D01*
X218273509Y-98729357D01*
X218274999Y-98735307D01*
X218275899Y-98741374D01*
X218276200Y-98747500D01*
X218276200Y-99697500D01*
X218275899Y-99703626D01*
X218274999Y-99709693D01*
X218273509Y-99715643D01*
X218271442Y-99721418D01*
X218268820Y-99726962D01*
X218265667Y-99732223D01*
X218262013Y-99737150D01*
X218257894Y-99741694D01*
X218253350Y-99745813D01*
X218248423Y-99749467D01*
X218243162Y-99752620D01*
X218237618Y-99755242D01*
X218231843Y-99757309D01*
X218225893Y-99758799D01*
X218219826Y-99759699D01*
X218213700Y-99760000D01*
X218088700Y-99760000D01*
X218082574Y-99759699D01*
X218076507Y-99758799D01*
X218070557Y-99757309D01*
X218064782Y-99755242D01*
X218059238Y-99752620D01*
X218053977Y-99749467D01*
X218049050Y-99745813D01*
X218044506Y-99741694D01*
X218040387Y-99737150D01*
X218036733Y-99732223D01*
X218033580Y-99726962D01*
X218030958Y-99721418D01*
X218028891Y-99715643D01*
X218027401Y-99709693D01*
X218026501Y-99703626D01*
X218026200Y-99697500D01*
X218026200Y-98747500D01*
X218026501Y-98741374D01*
X218027401Y-98735307D01*
X218028891Y-98729357D01*
X218030958Y-98723582D01*
X218033580Y-98718038D01*
X218036733Y-98712777D01*
X218040387Y-98707850D01*
X218044506Y-98703306D01*
X218049050Y-98699187D01*
X218053977Y-98695533D01*
X218059238Y-98692380D01*
X218064782Y-98689758D01*
X218070557Y-98687691D01*
X218076507Y-98686201D01*
X218082574Y-98685301D01*
X218088700Y-98685000D01*
X218213700Y-98685000D01*
X218219826Y-98685301D01*
G37*
G04 #@! TD.AperFunction*
G04 #@! TA.AperFunction,SMDPad,CuDef*
G36*
X218719826Y-98685301D02*
G01*
X218725893Y-98686201D01*
X218731843Y-98687691D01*
X218737618Y-98689758D01*
X218743162Y-98692380D01*
X218748423Y-98695533D01*
X218753350Y-98699187D01*
X218757894Y-98703306D01*
X218762013Y-98707850D01*
X218765667Y-98712777D01*
X218768820Y-98718038D01*
X218771442Y-98723582D01*
X218773509Y-98729357D01*
X218774999Y-98735307D01*
X218775899Y-98741374D01*
X218776200Y-98747500D01*
X218776200Y-99697500D01*
X218775899Y-99703626D01*
X218774999Y-99709693D01*
X218773509Y-99715643D01*
X218771442Y-99721418D01*
X218768820Y-99726962D01*
X218765667Y-99732223D01*
X218762013Y-99737150D01*
X218757894Y-99741694D01*
X218753350Y-99745813D01*
X218748423Y-99749467D01*
X218743162Y-99752620D01*
X218737618Y-99755242D01*
X218731843Y-99757309D01*
X218725893Y-99758799D01*
X218719826Y-99759699D01*
X218713700Y-99760000D01*
X218588700Y-99760000D01*
X218582574Y-99759699D01*
X218576507Y-99758799D01*
X218570557Y-99757309D01*
X218564782Y-99755242D01*
X218559238Y-99752620D01*
X218553977Y-99749467D01*
X218549050Y-99745813D01*
X218544506Y-99741694D01*
X218540387Y-99737150D01*
X218536733Y-99732223D01*
X218533580Y-99726962D01*
X218530958Y-99721418D01*
X218528891Y-99715643D01*
X218527401Y-99709693D01*
X218526501Y-99703626D01*
X218526200Y-99697500D01*
X218526200Y-98747500D01*
X218526501Y-98741374D01*
X218527401Y-98735307D01*
X218528891Y-98729357D01*
X218530958Y-98723582D01*
X218533580Y-98718038D01*
X218536733Y-98712777D01*
X218540387Y-98707850D01*
X218544506Y-98703306D01*
X218549050Y-98699187D01*
X218553977Y-98695533D01*
X218559238Y-98692380D01*
X218564782Y-98689758D01*
X218570557Y-98687691D01*
X218576507Y-98686201D01*
X218582574Y-98685301D01*
X218588700Y-98685000D01*
X218713700Y-98685000D01*
X218719826Y-98685301D01*
G37*
G04 #@! TD.AperFunction*
G04 #@! TA.AperFunction,SMDPad,CuDef*
G36*
X219219826Y-98685301D02*
G01*
X219225893Y-98686201D01*
X219231843Y-98687691D01*
X219237618Y-98689758D01*
X219243162Y-98692380D01*
X219248423Y-98695533D01*
X219253350Y-98699187D01*
X219257894Y-98703306D01*
X219262013Y-98707850D01*
X219265667Y-98712777D01*
X219268820Y-98718038D01*
X219271442Y-98723582D01*
X219273509Y-98729357D01*
X219274999Y-98735307D01*
X219275899Y-98741374D01*
X219276200Y-98747500D01*
X219276200Y-99697500D01*
X219275899Y-99703626D01*
X219274999Y-99709693D01*
X219273509Y-99715643D01*
X219271442Y-99721418D01*
X219268820Y-99726962D01*
X219265667Y-99732223D01*
X219262013Y-99737150D01*
X219257894Y-99741694D01*
X219253350Y-99745813D01*
X219248423Y-99749467D01*
X219243162Y-99752620D01*
X219237618Y-99755242D01*
X219231843Y-99757309D01*
X219225893Y-99758799D01*
X219219826Y-99759699D01*
X219213700Y-99760000D01*
X219088700Y-99760000D01*
X219082574Y-99759699D01*
X219076507Y-99758799D01*
X219070557Y-99757309D01*
X219064782Y-99755242D01*
X219059238Y-99752620D01*
X219053977Y-99749467D01*
X219049050Y-99745813D01*
X219044506Y-99741694D01*
X219040387Y-99737150D01*
X219036733Y-99732223D01*
X219033580Y-99726962D01*
X219030958Y-99721418D01*
X219028891Y-99715643D01*
X219027401Y-99709693D01*
X219026501Y-99703626D01*
X219026200Y-99697500D01*
X219026200Y-98747500D01*
X219026501Y-98741374D01*
X219027401Y-98735307D01*
X219028891Y-98729357D01*
X219030958Y-98723582D01*
X219033580Y-98718038D01*
X219036733Y-98712777D01*
X219040387Y-98707850D01*
X219044506Y-98703306D01*
X219049050Y-98699187D01*
X219053977Y-98695533D01*
X219059238Y-98692380D01*
X219064782Y-98689758D01*
X219070557Y-98687691D01*
X219076507Y-98686201D01*
X219082574Y-98685301D01*
X219088700Y-98685000D01*
X219213700Y-98685000D01*
X219219826Y-98685301D01*
G37*
G04 #@! TD.AperFunction*
G04 #@! TA.AperFunction,SMDPad,CuDef*
G36*
X219719826Y-98685301D02*
G01*
X219725893Y-98686201D01*
X219731843Y-98687691D01*
X219737618Y-98689758D01*
X219743162Y-98692380D01*
X219748423Y-98695533D01*
X219753350Y-98699187D01*
X219757894Y-98703306D01*
X219762013Y-98707850D01*
X219765667Y-98712777D01*
X219768820Y-98718038D01*
X219771442Y-98723582D01*
X219773509Y-98729357D01*
X219774999Y-98735307D01*
X219775899Y-98741374D01*
X219776200Y-98747500D01*
X219776200Y-99697500D01*
X219775899Y-99703626D01*
X219774999Y-99709693D01*
X219773509Y-99715643D01*
X219771442Y-99721418D01*
X219768820Y-99726962D01*
X219765667Y-99732223D01*
X219762013Y-99737150D01*
X219757894Y-99741694D01*
X219753350Y-99745813D01*
X219748423Y-99749467D01*
X219743162Y-99752620D01*
X219737618Y-99755242D01*
X219731843Y-99757309D01*
X219725893Y-99758799D01*
X219719826Y-99759699D01*
X219713700Y-99760000D01*
X219588700Y-99760000D01*
X219582574Y-99759699D01*
X219576507Y-99758799D01*
X219570557Y-99757309D01*
X219564782Y-99755242D01*
X219559238Y-99752620D01*
X219553977Y-99749467D01*
X219549050Y-99745813D01*
X219544506Y-99741694D01*
X219540387Y-99737150D01*
X219536733Y-99732223D01*
X219533580Y-99726962D01*
X219530958Y-99721418D01*
X219528891Y-99715643D01*
X219527401Y-99709693D01*
X219526501Y-99703626D01*
X219526200Y-99697500D01*
X219526200Y-98747500D01*
X219526501Y-98741374D01*
X219527401Y-98735307D01*
X219528891Y-98729357D01*
X219530958Y-98723582D01*
X219533580Y-98718038D01*
X219536733Y-98712777D01*
X219540387Y-98707850D01*
X219544506Y-98703306D01*
X219549050Y-98699187D01*
X219553977Y-98695533D01*
X219559238Y-98692380D01*
X219564782Y-98689758D01*
X219570557Y-98687691D01*
X219576507Y-98686201D01*
X219582574Y-98685301D01*
X219588700Y-98685000D01*
X219713700Y-98685000D01*
X219719826Y-98685301D01*
G37*
G04 #@! TD.AperFunction*
G04 #@! TA.AperFunction,SMDPad,CuDef*
G36*
X220219826Y-98685301D02*
G01*
X220225893Y-98686201D01*
X220231843Y-98687691D01*
X220237618Y-98689758D01*
X220243162Y-98692380D01*
X220248423Y-98695533D01*
X220253350Y-98699187D01*
X220257894Y-98703306D01*
X220262013Y-98707850D01*
X220265667Y-98712777D01*
X220268820Y-98718038D01*
X220271442Y-98723582D01*
X220273509Y-98729357D01*
X220274999Y-98735307D01*
X220275899Y-98741374D01*
X220276200Y-98747500D01*
X220276200Y-99697500D01*
X220275899Y-99703626D01*
X220274999Y-99709693D01*
X220273509Y-99715643D01*
X220271442Y-99721418D01*
X220268820Y-99726962D01*
X220265667Y-99732223D01*
X220262013Y-99737150D01*
X220257894Y-99741694D01*
X220253350Y-99745813D01*
X220248423Y-99749467D01*
X220243162Y-99752620D01*
X220237618Y-99755242D01*
X220231843Y-99757309D01*
X220225893Y-99758799D01*
X220219826Y-99759699D01*
X220213700Y-99760000D01*
X220088700Y-99760000D01*
X220082574Y-99759699D01*
X220076507Y-99758799D01*
X220070557Y-99757309D01*
X220064782Y-99755242D01*
X220059238Y-99752620D01*
X220053977Y-99749467D01*
X220049050Y-99745813D01*
X220044506Y-99741694D01*
X220040387Y-99737150D01*
X220036733Y-99732223D01*
X220033580Y-99726962D01*
X220030958Y-99721418D01*
X220028891Y-99715643D01*
X220027401Y-99709693D01*
X220026501Y-99703626D01*
X220026200Y-99697500D01*
X220026200Y-98747500D01*
X220026501Y-98741374D01*
X220027401Y-98735307D01*
X220028891Y-98729357D01*
X220030958Y-98723582D01*
X220033580Y-98718038D01*
X220036733Y-98712777D01*
X220040387Y-98707850D01*
X220044506Y-98703306D01*
X220049050Y-98699187D01*
X220053977Y-98695533D01*
X220059238Y-98692380D01*
X220064782Y-98689758D01*
X220070557Y-98687691D01*
X220076507Y-98686201D01*
X220082574Y-98685301D01*
X220088700Y-98685000D01*
X220213700Y-98685000D01*
X220219826Y-98685301D01*
G37*
G04 #@! TD.AperFunction*
G04 #@! TA.AperFunction,SMDPad,CuDef*
G36*
X220719826Y-98685301D02*
G01*
X220725893Y-98686201D01*
X220731843Y-98687691D01*
X220737618Y-98689758D01*
X220743162Y-98692380D01*
X220748423Y-98695533D01*
X220753350Y-98699187D01*
X220757894Y-98703306D01*
X220762013Y-98707850D01*
X220765667Y-98712777D01*
X220768820Y-98718038D01*
X220771442Y-98723582D01*
X220773509Y-98729357D01*
X220774999Y-98735307D01*
X220775899Y-98741374D01*
X220776200Y-98747500D01*
X220776200Y-99697500D01*
X220775899Y-99703626D01*
X220774999Y-99709693D01*
X220773509Y-99715643D01*
X220771442Y-99721418D01*
X220768820Y-99726962D01*
X220765667Y-99732223D01*
X220762013Y-99737150D01*
X220757894Y-99741694D01*
X220753350Y-99745813D01*
X220748423Y-99749467D01*
X220743162Y-99752620D01*
X220737618Y-99755242D01*
X220731843Y-99757309D01*
X220725893Y-99758799D01*
X220719826Y-99759699D01*
X220713700Y-99760000D01*
X220588700Y-99760000D01*
X220582574Y-99759699D01*
X220576507Y-99758799D01*
X220570557Y-99757309D01*
X220564782Y-99755242D01*
X220559238Y-99752620D01*
X220553977Y-99749467D01*
X220549050Y-99745813D01*
X220544506Y-99741694D01*
X220540387Y-99737150D01*
X220536733Y-99732223D01*
X220533580Y-99726962D01*
X220530958Y-99721418D01*
X220528891Y-99715643D01*
X220527401Y-99709693D01*
X220526501Y-99703626D01*
X220526200Y-99697500D01*
X220526200Y-98747500D01*
X220526501Y-98741374D01*
X220527401Y-98735307D01*
X220528891Y-98729357D01*
X220530958Y-98723582D01*
X220533580Y-98718038D01*
X220536733Y-98712777D01*
X220540387Y-98707850D01*
X220544506Y-98703306D01*
X220549050Y-98699187D01*
X220553977Y-98695533D01*
X220559238Y-98692380D01*
X220564782Y-98689758D01*
X220570557Y-98687691D01*
X220576507Y-98686201D01*
X220582574Y-98685301D01*
X220588700Y-98685000D01*
X220713700Y-98685000D01*
X220719826Y-98685301D01*
G37*
G04 #@! TD.AperFunction*
G04 #@! TA.AperFunction,SMDPad,CuDef*
G36*
X221219826Y-98685301D02*
G01*
X221225893Y-98686201D01*
X221231843Y-98687691D01*
X221237618Y-98689758D01*
X221243162Y-98692380D01*
X221248423Y-98695533D01*
X221253350Y-98699187D01*
X221257894Y-98703306D01*
X221262013Y-98707850D01*
X221265667Y-98712777D01*
X221268820Y-98718038D01*
X221271442Y-98723582D01*
X221273509Y-98729357D01*
X221274999Y-98735307D01*
X221275899Y-98741374D01*
X221276200Y-98747500D01*
X221276200Y-99697500D01*
X221275899Y-99703626D01*
X221274999Y-99709693D01*
X221273509Y-99715643D01*
X221271442Y-99721418D01*
X221268820Y-99726962D01*
X221265667Y-99732223D01*
X221262013Y-99737150D01*
X221257894Y-99741694D01*
X221253350Y-99745813D01*
X221248423Y-99749467D01*
X221243162Y-99752620D01*
X221237618Y-99755242D01*
X221231843Y-99757309D01*
X221225893Y-99758799D01*
X221219826Y-99759699D01*
X221213700Y-99760000D01*
X221088700Y-99760000D01*
X221082574Y-99759699D01*
X221076507Y-99758799D01*
X221070557Y-99757309D01*
X221064782Y-99755242D01*
X221059238Y-99752620D01*
X221053977Y-99749467D01*
X221049050Y-99745813D01*
X221044506Y-99741694D01*
X221040387Y-99737150D01*
X221036733Y-99732223D01*
X221033580Y-99726962D01*
X221030958Y-99721418D01*
X221028891Y-99715643D01*
X221027401Y-99709693D01*
X221026501Y-99703626D01*
X221026200Y-99697500D01*
X221026200Y-98747500D01*
X221026501Y-98741374D01*
X221027401Y-98735307D01*
X221028891Y-98729357D01*
X221030958Y-98723582D01*
X221033580Y-98718038D01*
X221036733Y-98712777D01*
X221040387Y-98707850D01*
X221044506Y-98703306D01*
X221049050Y-98699187D01*
X221053977Y-98695533D01*
X221059238Y-98692380D01*
X221064782Y-98689758D01*
X221070557Y-98687691D01*
X221076507Y-98686201D01*
X221082574Y-98685301D01*
X221088700Y-98685000D01*
X221213700Y-98685000D01*
X221219826Y-98685301D01*
G37*
G04 #@! TD.AperFunction*
G04 #@! TA.AperFunction,SMDPad,CuDef*
G36*
X221719826Y-98685301D02*
G01*
X221725893Y-98686201D01*
X221731843Y-98687691D01*
X221737618Y-98689758D01*
X221743162Y-98692380D01*
X221748423Y-98695533D01*
X221753350Y-98699187D01*
X221757894Y-98703306D01*
X221762013Y-98707850D01*
X221765667Y-98712777D01*
X221768820Y-98718038D01*
X221771442Y-98723582D01*
X221773509Y-98729357D01*
X221774999Y-98735307D01*
X221775899Y-98741374D01*
X221776200Y-98747500D01*
X221776200Y-99697500D01*
X221775899Y-99703626D01*
X221774999Y-99709693D01*
X221773509Y-99715643D01*
X221771442Y-99721418D01*
X221768820Y-99726962D01*
X221765667Y-99732223D01*
X221762013Y-99737150D01*
X221757894Y-99741694D01*
X221753350Y-99745813D01*
X221748423Y-99749467D01*
X221743162Y-99752620D01*
X221737618Y-99755242D01*
X221731843Y-99757309D01*
X221725893Y-99758799D01*
X221719826Y-99759699D01*
X221713700Y-99760000D01*
X221588700Y-99760000D01*
X221582574Y-99759699D01*
X221576507Y-99758799D01*
X221570557Y-99757309D01*
X221564782Y-99755242D01*
X221559238Y-99752620D01*
X221553977Y-99749467D01*
X221549050Y-99745813D01*
X221544506Y-99741694D01*
X221540387Y-99737150D01*
X221536733Y-99732223D01*
X221533580Y-99726962D01*
X221530958Y-99721418D01*
X221528891Y-99715643D01*
X221527401Y-99709693D01*
X221526501Y-99703626D01*
X221526200Y-99697500D01*
X221526200Y-98747500D01*
X221526501Y-98741374D01*
X221527401Y-98735307D01*
X221528891Y-98729357D01*
X221530958Y-98723582D01*
X221533580Y-98718038D01*
X221536733Y-98712777D01*
X221540387Y-98707850D01*
X221544506Y-98703306D01*
X221549050Y-98699187D01*
X221553977Y-98695533D01*
X221559238Y-98692380D01*
X221564782Y-98689758D01*
X221570557Y-98687691D01*
X221576507Y-98686201D01*
X221582574Y-98685301D01*
X221588700Y-98685000D01*
X221713700Y-98685000D01*
X221719826Y-98685301D01*
G37*
G04 #@! TD.AperFunction*
G04 #@! TA.AperFunction,SMDPad,CuDef*
G36*
X222969826Y-98260301D02*
G01*
X222975893Y-98261201D01*
X222981843Y-98262691D01*
X222987618Y-98264758D01*
X222993162Y-98267380D01*
X222998423Y-98270533D01*
X223003350Y-98274187D01*
X223007894Y-98278306D01*
X223012013Y-98282850D01*
X223015667Y-98287777D01*
X223018820Y-98293038D01*
X223021442Y-98298582D01*
X223023509Y-98304357D01*
X223024999Y-98310307D01*
X223025899Y-98316374D01*
X223026200Y-98322500D01*
X223026200Y-98447500D01*
X223025899Y-98453626D01*
X223024999Y-98459693D01*
X223023509Y-98465643D01*
X223021442Y-98471418D01*
X223018820Y-98476962D01*
X223015667Y-98482223D01*
X223012013Y-98487150D01*
X223007894Y-98491694D01*
X223003350Y-98495813D01*
X222998423Y-98499467D01*
X222993162Y-98502620D01*
X222987618Y-98505242D01*
X222981843Y-98507309D01*
X222975893Y-98508799D01*
X222969826Y-98509699D01*
X222963700Y-98510000D01*
X222013700Y-98510000D01*
X222007574Y-98509699D01*
X222001507Y-98508799D01*
X221995557Y-98507309D01*
X221989782Y-98505242D01*
X221984238Y-98502620D01*
X221978977Y-98499467D01*
X221974050Y-98495813D01*
X221969506Y-98491694D01*
X221965387Y-98487150D01*
X221961733Y-98482223D01*
X221958580Y-98476962D01*
X221955958Y-98471418D01*
X221953891Y-98465643D01*
X221952401Y-98459693D01*
X221951501Y-98453626D01*
X221951200Y-98447500D01*
X221951200Y-98322500D01*
X221951501Y-98316374D01*
X221952401Y-98310307D01*
X221953891Y-98304357D01*
X221955958Y-98298582D01*
X221958580Y-98293038D01*
X221961733Y-98287777D01*
X221965387Y-98282850D01*
X221969506Y-98278306D01*
X221974050Y-98274187D01*
X221978977Y-98270533D01*
X221984238Y-98267380D01*
X221989782Y-98264758D01*
X221995557Y-98262691D01*
X222001507Y-98261201D01*
X222007574Y-98260301D01*
X222013700Y-98260000D01*
X222963700Y-98260000D01*
X222969826Y-98260301D01*
G37*
G04 #@! TD.AperFunction*
G04 #@! TA.AperFunction,SMDPad,CuDef*
G36*
X222969826Y-97760301D02*
G01*
X222975893Y-97761201D01*
X222981843Y-97762691D01*
X222987618Y-97764758D01*
X222993162Y-97767380D01*
X222998423Y-97770533D01*
X223003350Y-97774187D01*
X223007894Y-97778306D01*
X223012013Y-97782850D01*
X223015667Y-97787777D01*
X223018820Y-97793038D01*
X223021442Y-97798582D01*
X223023509Y-97804357D01*
X223024999Y-97810307D01*
X223025899Y-97816374D01*
X223026200Y-97822500D01*
X223026200Y-97947500D01*
X223025899Y-97953626D01*
X223024999Y-97959693D01*
X223023509Y-97965643D01*
X223021442Y-97971418D01*
X223018820Y-97976962D01*
X223015667Y-97982223D01*
X223012013Y-97987150D01*
X223007894Y-97991694D01*
X223003350Y-97995813D01*
X222998423Y-97999467D01*
X222993162Y-98002620D01*
X222987618Y-98005242D01*
X222981843Y-98007309D01*
X222975893Y-98008799D01*
X222969826Y-98009699D01*
X222963700Y-98010000D01*
X222013700Y-98010000D01*
X222007574Y-98009699D01*
X222001507Y-98008799D01*
X221995557Y-98007309D01*
X221989782Y-98005242D01*
X221984238Y-98002620D01*
X221978977Y-97999467D01*
X221974050Y-97995813D01*
X221969506Y-97991694D01*
X221965387Y-97987150D01*
X221961733Y-97982223D01*
X221958580Y-97976962D01*
X221955958Y-97971418D01*
X221953891Y-97965643D01*
X221952401Y-97959693D01*
X221951501Y-97953626D01*
X221951200Y-97947500D01*
X221951200Y-97822500D01*
X221951501Y-97816374D01*
X221952401Y-97810307D01*
X221953891Y-97804357D01*
X221955958Y-97798582D01*
X221958580Y-97793038D01*
X221961733Y-97787777D01*
X221965387Y-97782850D01*
X221969506Y-97778306D01*
X221974050Y-97774187D01*
X221978977Y-97770533D01*
X221984238Y-97767380D01*
X221989782Y-97764758D01*
X221995557Y-97762691D01*
X222001507Y-97761201D01*
X222007574Y-97760301D01*
X222013700Y-97760000D01*
X222963700Y-97760000D01*
X222969826Y-97760301D01*
G37*
G04 #@! TD.AperFunction*
G04 #@! TA.AperFunction,SMDPad,CuDef*
G36*
X222969826Y-97260301D02*
G01*
X222975893Y-97261201D01*
X222981843Y-97262691D01*
X222987618Y-97264758D01*
X222993162Y-97267380D01*
X222998423Y-97270533D01*
X223003350Y-97274187D01*
X223007894Y-97278306D01*
X223012013Y-97282850D01*
X223015667Y-97287777D01*
X223018820Y-97293038D01*
X223021442Y-97298582D01*
X223023509Y-97304357D01*
X223024999Y-97310307D01*
X223025899Y-97316374D01*
X223026200Y-97322500D01*
X223026200Y-97447500D01*
X223025899Y-97453626D01*
X223024999Y-97459693D01*
X223023509Y-97465643D01*
X223021442Y-97471418D01*
X223018820Y-97476962D01*
X223015667Y-97482223D01*
X223012013Y-97487150D01*
X223007894Y-97491694D01*
X223003350Y-97495813D01*
X222998423Y-97499467D01*
X222993162Y-97502620D01*
X222987618Y-97505242D01*
X222981843Y-97507309D01*
X222975893Y-97508799D01*
X222969826Y-97509699D01*
X222963700Y-97510000D01*
X222013700Y-97510000D01*
X222007574Y-97509699D01*
X222001507Y-97508799D01*
X221995557Y-97507309D01*
X221989782Y-97505242D01*
X221984238Y-97502620D01*
X221978977Y-97499467D01*
X221974050Y-97495813D01*
X221969506Y-97491694D01*
X221965387Y-97487150D01*
X221961733Y-97482223D01*
X221958580Y-97476962D01*
X221955958Y-97471418D01*
X221953891Y-97465643D01*
X221952401Y-97459693D01*
X221951501Y-97453626D01*
X221951200Y-97447500D01*
X221951200Y-97322500D01*
X221951501Y-97316374D01*
X221952401Y-97310307D01*
X221953891Y-97304357D01*
X221955958Y-97298582D01*
X221958580Y-97293038D01*
X221961733Y-97287777D01*
X221965387Y-97282850D01*
X221969506Y-97278306D01*
X221974050Y-97274187D01*
X221978977Y-97270533D01*
X221984238Y-97267380D01*
X221989782Y-97264758D01*
X221995557Y-97262691D01*
X222001507Y-97261201D01*
X222007574Y-97260301D01*
X222013700Y-97260000D01*
X222963700Y-97260000D01*
X222969826Y-97260301D01*
G37*
G04 #@! TD.AperFunction*
G04 #@! TA.AperFunction,SMDPad,CuDef*
G36*
X222969826Y-96760301D02*
G01*
X222975893Y-96761201D01*
X222981843Y-96762691D01*
X222987618Y-96764758D01*
X222993162Y-96767380D01*
X222998423Y-96770533D01*
X223003350Y-96774187D01*
X223007894Y-96778306D01*
X223012013Y-96782850D01*
X223015667Y-96787777D01*
X223018820Y-96793038D01*
X223021442Y-96798582D01*
X223023509Y-96804357D01*
X223024999Y-96810307D01*
X223025899Y-96816374D01*
X223026200Y-96822500D01*
X223026200Y-96947500D01*
X223025899Y-96953626D01*
X223024999Y-96959693D01*
X223023509Y-96965643D01*
X223021442Y-96971418D01*
X223018820Y-96976962D01*
X223015667Y-96982223D01*
X223012013Y-96987150D01*
X223007894Y-96991694D01*
X223003350Y-96995813D01*
X222998423Y-96999467D01*
X222993162Y-97002620D01*
X222987618Y-97005242D01*
X222981843Y-97007309D01*
X222975893Y-97008799D01*
X222969826Y-97009699D01*
X222963700Y-97010000D01*
X222013700Y-97010000D01*
X222007574Y-97009699D01*
X222001507Y-97008799D01*
X221995557Y-97007309D01*
X221989782Y-97005242D01*
X221984238Y-97002620D01*
X221978977Y-96999467D01*
X221974050Y-96995813D01*
X221969506Y-96991694D01*
X221965387Y-96987150D01*
X221961733Y-96982223D01*
X221958580Y-96976962D01*
X221955958Y-96971418D01*
X221953891Y-96965643D01*
X221952401Y-96959693D01*
X221951501Y-96953626D01*
X221951200Y-96947500D01*
X221951200Y-96822500D01*
X221951501Y-96816374D01*
X221952401Y-96810307D01*
X221953891Y-96804357D01*
X221955958Y-96798582D01*
X221958580Y-96793038D01*
X221961733Y-96787777D01*
X221965387Y-96782850D01*
X221969506Y-96778306D01*
X221974050Y-96774187D01*
X221978977Y-96770533D01*
X221984238Y-96767380D01*
X221989782Y-96764758D01*
X221995557Y-96762691D01*
X222001507Y-96761201D01*
X222007574Y-96760301D01*
X222013700Y-96760000D01*
X222963700Y-96760000D01*
X222969826Y-96760301D01*
G37*
G04 #@! TD.AperFunction*
G04 #@! TA.AperFunction,SMDPad,CuDef*
G36*
X222969826Y-96260301D02*
G01*
X222975893Y-96261201D01*
X222981843Y-96262691D01*
X222987618Y-96264758D01*
X222993162Y-96267380D01*
X222998423Y-96270533D01*
X223003350Y-96274187D01*
X223007894Y-96278306D01*
X223012013Y-96282850D01*
X223015667Y-96287777D01*
X223018820Y-96293038D01*
X223021442Y-96298582D01*
X223023509Y-96304357D01*
X223024999Y-96310307D01*
X223025899Y-96316374D01*
X223026200Y-96322500D01*
X223026200Y-96447500D01*
X223025899Y-96453626D01*
X223024999Y-96459693D01*
X223023509Y-96465643D01*
X223021442Y-96471418D01*
X223018820Y-96476962D01*
X223015667Y-96482223D01*
X223012013Y-96487150D01*
X223007894Y-96491694D01*
X223003350Y-96495813D01*
X222998423Y-96499467D01*
X222993162Y-96502620D01*
X222987618Y-96505242D01*
X222981843Y-96507309D01*
X222975893Y-96508799D01*
X222969826Y-96509699D01*
X222963700Y-96510000D01*
X222013700Y-96510000D01*
X222007574Y-96509699D01*
X222001507Y-96508799D01*
X221995557Y-96507309D01*
X221989782Y-96505242D01*
X221984238Y-96502620D01*
X221978977Y-96499467D01*
X221974050Y-96495813D01*
X221969506Y-96491694D01*
X221965387Y-96487150D01*
X221961733Y-96482223D01*
X221958580Y-96476962D01*
X221955958Y-96471418D01*
X221953891Y-96465643D01*
X221952401Y-96459693D01*
X221951501Y-96453626D01*
X221951200Y-96447500D01*
X221951200Y-96322500D01*
X221951501Y-96316374D01*
X221952401Y-96310307D01*
X221953891Y-96304357D01*
X221955958Y-96298582D01*
X221958580Y-96293038D01*
X221961733Y-96287777D01*
X221965387Y-96282850D01*
X221969506Y-96278306D01*
X221974050Y-96274187D01*
X221978977Y-96270533D01*
X221984238Y-96267380D01*
X221989782Y-96264758D01*
X221995557Y-96262691D01*
X222001507Y-96261201D01*
X222007574Y-96260301D01*
X222013700Y-96260000D01*
X222963700Y-96260000D01*
X222969826Y-96260301D01*
G37*
G04 #@! TD.AperFunction*
G04 #@! TA.AperFunction,SMDPad,CuDef*
G36*
X222969826Y-95760301D02*
G01*
X222975893Y-95761201D01*
X222981843Y-95762691D01*
X222987618Y-95764758D01*
X222993162Y-95767380D01*
X222998423Y-95770533D01*
X223003350Y-95774187D01*
X223007894Y-95778306D01*
X223012013Y-95782850D01*
X223015667Y-95787777D01*
X223018820Y-95793038D01*
X223021442Y-95798582D01*
X223023509Y-95804357D01*
X223024999Y-95810307D01*
X223025899Y-95816374D01*
X223026200Y-95822500D01*
X223026200Y-95947500D01*
X223025899Y-95953626D01*
X223024999Y-95959693D01*
X223023509Y-95965643D01*
X223021442Y-95971418D01*
X223018820Y-95976962D01*
X223015667Y-95982223D01*
X223012013Y-95987150D01*
X223007894Y-95991694D01*
X223003350Y-95995813D01*
X222998423Y-95999467D01*
X222993162Y-96002620D01*
X222987618Y-96005242D01*
X222981843Y-96007309D01*
X222975893Y-96008799D01*
X222969826Y-96009699D01*
X222963700Y-96010000D01*
X222013700Y-96010000D01*
X222007574Y-96009699D01*
X222001507Y-96008799D01*
X221995557Y-96007309D01*
X221989782Y-96005242D01*
X221984238Y-96002620D01*
X221978977Y-95999467D01*
X221974050Y-95995813D01*
X221969506Y-95991694D01*
X221965387Y-95987150D01*
X221961733Y-95982223D01*
X221958580Y-95976962D01*
X221955958Y-95971418D01*
X221953891Y-95965643D01*
X221952401Y-95959693D01*
X221951501Y-95953626D01*
X221951200Y-95947500D01*
X221951200Y-95822500D01*
X221951501Y-95816374D01*
X221952401Y-95810307D01*
X221953891Y-95804357D01*
X221955958Y-95798582D01*
X221958580Y-95793038D01*
X221961733Y-95787777D01*
X221965387Y-95782850D01*
X221969506Y-95778306D01*
X221974050Y-95774187D01*
X221978977Y-95770533D01*
X221984238Y-95767380D01*
X221989782Y-95764758D01*
X221995557Y-95762691D01*
X222001507Y-95761201D01*
X222007574Y-95760301D01*
X222013700Y-95760000D01*
X222963700Y-95760000D01*
X222969826Y-95760301D01*
G37*
G04 #@! TD.AperFunction*
G04 #@! TA.AperFunction,SMDPad,CuDef*
G36*
X222969826Y-95260301D02*
G01*
X222975893Y-95261201D01*
X222981843Y-95262691D01*
X222987618Y-95264758D01*
X222993162Y-95267380D01*
X222998423Y-95270533D01*
X223003350Y-95274187D01*
X223007894Y-95278306D01*
X223012013Y-95282850D01*
X223015667Y-95287777D01*
X223018820Y-95293038D01*
X223021442Y-95298582D01*
X223023509Y-95304357D01*
X223024999Y-95310307D01*
X223025899Y-95316374D01*
X223026200Y-95322500D01*
X223026200Y-95447500D01*
X223025899Y-95453626D01*
X223024999Y-95459693D01*
X223023509Y-95465643D01*
X223021442Y-95471418D01*
X223018820Y-95476962D01*
X223015667Y-95482223D01*
X223012013Y-95487150D01*
X223007894Y-95491694D01*
X223003350Y-95495813D01*
X222998423Y-95499467D01*
X222993162Y-95502620D01*
X222987618Y-95505242D01*
X222981843Y-95507309D01*
X222975893Y-95508799D01*
X222969826Y-95509699D01*
X222963700Y-95510000D01*
X222013700Y-95510000D01*
X222007574Y-95509699D01*
X222001507Y-95508799D01*
X221995557Y-95507309D01*
X221989782Y-95505242D01*
X221984238Y-95502620D01*
X221978977Y-95499467D01*
X221974050Y-95495813D01*
X221969506Y-95491694D01*
X221965387Y-95487150D01*
X221961733Y-95482223D01*
X221958580Y-95476962D01*
X221955958Y-95471418D01*
X221953891Y-95465643D01*
X221952401Y-95459693D01*
X221951501Y-95453626D01*
X221951200Y-95447500D01*
X221951200Y-95322500D01*
X221951501Y-95316374D01*
X221952401Y-95310307D01*
X221953891Y-95304357D01*
X221955958Y-95298582D01*
X221958580Y-95293038D01*
X221961733Y-95287777D01*
X221965387Y-95282850D01*
X221969506Y-95278306D01*
X221974050Y-95274187D01*
X221978977Y-95270533D01*
X221984238Y-95267380D01*
X221989782Y-95264758D01*
X221995557Y-95262691D01*
X222001507Y-95261201D01*
X222007574Y-95260301D01*
X222013700Y-95260000D01*
X222963700Y-95260000D01*
X222969826Y-95260301D01*
G37*
G04 #@! TD.AperFunction*
G04 #@! TA.AperFunction,SMDPad,CuDef*
G36*
X222969826Y-94760301D02*
G01*
X222975893Y-94761201D01*
X222981843Y-94762691D01*
X222987618Y-94764758D01*
X222993162Y-94767380D01*
X222998423Y-94770533D01*
X223003350Y-94774187D01*
X223007894Y-94778306D01*
X223012013Y-94782850D01*
X223015667Y-94787777D01*
X223018820Y-94793038D01*
X223021442Y-94798582D01*
X223023509Y-94804357D01*
X223024999Y-94810307D01*
X223025899Y-94816374D01*
X223026200Y-94822500D01*
X223026200Y-94947500D01*
X223025899Y-94953626D01*
X223024999Y-94959693D01*
X223023509Y-94965643D01*
X223021442Y-94971418D01*
X223018820Y-94976962D01*
X223015667Y-94982223D01*
X223012013Y-94987150D01*
X223007894Y-94991694D01*
X223003350Y-94995813D01*
X222998423Y-94999467D01*
X222993162Y-95002620D01*
X222987618Y-95005242D01*
X222981843Y-95007309D01*
X222975893Y-95008799D01*
X222969826Y-95009699D01*
X222963700Y-95010000D01*
X222013700Y-95010000D01*
X222007574Y-95009699D01*
X222001507Y-95008799D01*
X221995557Y-95007309D01*
X221989782Y-95005242D01*
X221984238Y-95002620D01*
X221978977Y-94999467D01*
X221974050Y-94995813D01*
X221969506Y-94991694D01*
X221965387Y-94987150D01*
X221961733Y-94982223D01*
X221958580Y-94976962D01*
X221955958Y-94971418D01*
X221953891Y-94965643D01*
X221952401Y-94959693D01*
X221951501Y-94953626D01*
X221951200Y-94947500D01*
X221951200Y-94822500D01*
X221951501Y-94816374D01*
X221952401Y-94810307D01*
X221953891Y-94804357D01*
X221955958Y-94798582D01*
X221958580Y-94793038D01*
X221961733Y-94787777D01*
X221965387Y-94782850D01*
X221969506Y-94778306D01*
X221974050Y-94774187D01*
X221978977Y-94770533D01*
X221984238Y-94767380D01*
X221989782Y-94764758D01*
X221995557Y-94762691D01*
X222001507Y-94761201D01*
X222007574Y-94760301D01*
X222013700Y-94760000D01*
X222963700Y-94760000D01*
X222969826Y-94760301D01*
G37*
G04 #@! TD.AperFunction*
G04 #@! TA.AperFunction,SMDPad,CuDef*
G36*
X222969826Y-94260301D02*
G01*
X222975893Y-94261201D01*
X222981843Y-94262691D01*
X222987618Y-94264758D01*
X222993162Y-94267380D01*
X222998423Y-94270533D01*
X223003350Y-94274187D01*
X223007894Y-94278306D01*
X223012013Y-94282850D01*
X223015667Y-94287777D01*
X223018820Y-94293038D01*
X223021442Y-94298582D01*
X223023509Y-94304357D01*
X223024999Y-94310307D01*
X223025899Y-94316374D01*
X223026200Y-94322500D01*
X223026200Y-94447500D01*
X223025899Y-94453626D01*
X223024999Y-94459693D01*
X223023509Y-94465643D01*
X223021442Y-94471418D01*
X223018820Y-94476962D01*
X223015667Y-94482223D01*
X223012013Y-94487150D01*
X223007894Y-94491694D01*
X223003350Y-94495813D01*
X222998423Y-94499467D01*
X222993162Y-94502620D01*
X222987618Y-94505242D01*
X222981843Y-94507309D01*
X222975893Y-94508799D01*
X222969826Y-94509699D01*
X222963700Y-94510000D01*
X222013700Y-94510000D01*
X222007574Y-94509699D01*
X222001507Y-94508799D01*
X221995557Y-94507309D01*
X221989782Y-94505242D01*
X221984238Y-94502620D01*
X221978977Y-94499467D01*
X221974050Y-94495813D01*
X221969506Y-94491694D01*
X221965387Y-94487150D01*
X221961733Y-94482223D01*
X221958580Y-94476962D01*
X221955958Y-94471418D01*
X221953891Y-94465643D01*
X221952401Y-94459693D01*
X221951501Y-94453626D01*
X221951200Y-94447500D01*
X221951200Y-94322500D01*
X221951501Y-94316374D01*
X221952401Y-94310307D01*
X221953891Y-94304357D01*
X221955958Y-94298582D01*
X221958580Y-94293038D01*
X221961733Y-94287777D01*
X221965387Y-94282850D01*
X221969506Y-94278306D01*
X221974050Y-94274187D01*
X221978977Y-94270533D01*
X221984238Y-94267380D01*
X221989782Y-94264758D01*
X221995557Y-94262691D01*
X222001507Y-94261201D01*
X222007574Y-94260301D01*
X222013700Y-94260000D01*
X222963700Y-94260000D01*
X222969826Y-94260301D01*
G37*
G04 #@! TD.AperFunction*
G04 #@! TA.AperFunction,SMDPad,CuDef*
G36*
X222969826Y-93760301D02*
G01*
X222975893Y-93761201D01*
X222981843Y-93762691D01*
X222987618Y-93764758D01*
X222993162Y-93767380D01*
X222998423Y-93770533D01*
X223003350Y-93774187D01*
X223007894Y-93778306D01*
X223012013Y-93782850D01*
X223015667Y-93787777D01*
X223018820Y-93793038D01*
X223021442Y-93798582D01*
X223023509Y-93804357D01*
X223024999Y-93810307D01*
X223025899Y-93816374D01*
X223026200Y-93822500D01*
X223026200Y-93947500D01*
X223025899Y-93953626D01*
X223024999Y-93959693D01*
X223023509Y-93965643D01*
X223021442Y-93971418D01*
X223018820Y-93976962D01*
X223015667Y-93982223D01*
X223012013Y-93987150D01*
X223007894Y-93991694D01*
X223003350Y-93995813D01*
X222998423Y-93999467D01*
X222993162Y-94002620D01*
X222987618Y-94005242D01*
X222981843Y-94007309D01*
X222975893Y-94008799D01*
X222969826Y-94009699D01*
X222963700Y-94010000D01*
X222013700Y-94010000D01*
X222007574Y-94009699D01*
X222001507Y-94008799D01*
X221995557Y-94007309D01*
X221989782Y-94005242D01*
X221984238Y-94002620D01*
X221978977Y-93999467D01*
X221974050Y-93995813D01*
X221969506Y-93991694D01*
X221965387Y-93987150D01*
X221961733Y-93982223D01*
X221958580Y-93976962D01*
X221955958Y-93971418D01*
X221953891Y-93965643D01*
X221952401Y-93959693D01*
X221951501Y-93953626D01*
X221951200Y-93947500D01*
X221951200Y-93822500D01*
X221951501Y-93816374D01*
X221952401Y-93810307D01*
X221953891Y-93804357D01*
X221955958Y-93798582D01*
X221958580Y-93793038D01*
X221961733Y-93787777D01*
X221965387Y-93782850D01*
X221969506Y-93778306D01*
X221974050Y-93774187D01*
X221978977Y-93770533D01*
X221984238Y-93767380D01*
X221989782Y-93764758D01*
X221995557Y-93762691D01*
X222001507Y-93761201D01*
X222007574Y-93760301D01*
X222013700Y-93760000D01*
X222963700Y-93760000D01*
X222969826Y-93760301D01*
G37*
G04 #@! TD.AperFunction*
G04 #@! TA.AperFunction,SMDPad,CuDef*
G36*
X222969826Y-93260301D02*
G01*
X222975893Y-93261201D01*
X222981843Y-93262691D01*
X222987618Y-93264758D01*
X222993162Y-93267380D01*
X222998423Y-93270533D01*
X223003350Y-93274187D01*
X223007894Y-93278306D01*
X223012013Y-93282850D01*
X223015667Y-93287777D01*
X223018820Y-93293038D01*
X223021442Y-93298582D01*
X223023509Y-93304357D01*
X223024999Y-93310307D01*
X223025899Y-93316374D01*
X223026200Y-93322500D01*
X223026200Y-93447500D01*
X223025899Y-93453626D01*
X223024999Y-93459693D01*
X223023509Y-93465643D01*
X223021442Y-93471418D01*
X223018820Y-93476962D01*
X223015667Y-93482223D01*
X223012013Y-93487150D01*
X223007894Y-93491694D01*
X223003350Y-93495813D01*
X222998423Y-93499467D01*
X222993162Y-93502620D01*
X222987618Y-93505242D01*
X222981843Y-93507309D01*
X222975893Y-93508799D01*
X222969826Y-93509699D01*
X222963700Y-93510000D01*
X222013700Y-93510000D01*
X222007574Y-93509699D01*
X222001507Y-93508799D01*
X221995557Y-93507309D01*
X221989782Y-93505242D01*
X221984238Y-93502620D01*
X221978977Y-93499467D01*
X221974050Y-93495813D01*
X221969506Y-93491694D01*
X221965387Y-93487150D01*
X221961733Y-93482223D01*
X221958580Y-93476962D01*
X221955958Y-93471418D01*
X221953891Y-93465643D01*
X221952401Y-93459693D01*
X221951501Y-93453626D01*
X221951200Y-93447500D01*
X221951200Y-93322500D01*
X221951501Y-93316374D01*
X221952401Y-93310307D01*
X221953891Y-93304357D01*
X221955958Y-93298582D01*
X221958580Y-93293038D01*
X221961733Y-93287777D01*
X221965387Y-93282850D01*
X221969506Y-93278306D01*
X221974050Y-93274187D01*
X221978977Y-93270533D01*
X221984238Y-93267380D01*
X221989782Y-93264758D01*
X221995557Y-93262691D01*
X222001507Y-93261201D01*
X222007574Y-93260301D01*
X222013700Y-93260000D01*
X222963700Y-93260000D01*
X222969826Y-93260301D01*
G37*
G04 #@! TD.AperFunction*
G04 #@! TA.AperFunction,SMDPad,CuDef*
G36*
X221719826Y-92010301D02*
G01*
X221725893Y-92011201D01*
X221731843Y-92012691D01*
X221737618Y-92014758D01*
X221743162Y-92017380D01*
X221748423Y-92020533D01*
X221753350Y-92024187D01*
X221757894Y-92028306D01*
X221762013Y-92032850D01*
X221765667Y-92037777D01*
X221768820Y-92043038D01*
X221771442Y-92048582D01*
X221773509Y-92054357D01*
X221774999Y-92060307D01*
X221775899Y-92066374D01*
X221776200Y-92072500D01*
X221776200Y-93022500D01*
X221775899Y-93028626D01*
X221774999Y-93034693D01*
X221773509Y-93040643D01*
X221771442Y-93046418D01*
X221768820Y-93051962D01*
X221765667Y-93057223D01*
X221762013Y-93062150D01*
X221757894Y-93066694D01*
X221753350Y-93070813D01*
X221748423Y-93074467D01*
X221743162Y-93077620D01*
X221737618Y-93080242D01*
X221731843Y-93082309D01*
X221725893Y-93083799D01*
X221719826Y-93084699D01*
X221713700Y-93085000D01*
X221588700Y-93085000D01*
X221582574Y-93084699D01*
X221576507Y-93083799D01*
X221570557Y-93082309D01*
X221564782Y-93080242D01*
X221559238Y-93077620D01*
X221553977Y-93074467D01*
X221549050Y-93070813D01*
X221544506Y-93066694D01*
X221540387Y-93062150D01*
X221536733Y-93057223D01*
X221533580Y-93051962D01*
X221530958Y-93046418D01*
X221528891Y-93040643D01*
X221527401Y-93034693D01*
X221526501Y-93028626D01*
X221526200Y-93022500D01*
X221526200Y-92072500D01*
X221526501Y-92066374D01*
X221527401Y-92060307D01*
X221528891Y-92054357D01*
X221530958Y-92048582D01*
X221533580Y-92043038D01*
X221536733Y-92037777D01*
X221540387Y-92032850D01*
X221544506Y-92028306D01*
X221549050Y-92024187D01*
X221553977Y-92020533D01*
X221559238Y-92017380D01*
X221564782Y-92014758D01*
X221570557Y-92012691D01*
X221576507Y-92011201D01*
X221582574Y-92010301D01*
X221588700Y-92010000D01*
X221713700Y-92010000D01*
X221719826Y-92010301D01*
G37*
G04 #@! TD.AperFunction*
G04 #@! TA.AperFunction,SMDPad,CuDef*
G36*
X221219826Y-92010301D02*
G01*
X221225893Y-92011201D01*
X221231843Y-92012691D01*
X221237618Y-92014758D01*
X221243162Y-92017380D01*
X221248423Y-92020533D01*
X221253350Y-92024187D01*
X221257894Y-92028306D01*
X221262013Y-92032850D01*
X221265667Y-92037777D01*
X221268820Y-92043038D01*
X221271442Y-92048582D01*
X221273509Y-92054357D01*
X221274999Y-92060307D01*
X221275899Y-92066374D01*
X221276200Y-92072500D01*
X221276200Y-93022500D01*
X221275899Y-93028626D01*
X221274999Y-93034693D01*
X221273509Y-93040643D01*
X221271442Y-93046418D01*
X221268820Y-93051962D01*
X221265667Y-93057223D01*
X221262013Y-93062150D01*
X221257894Y-93066694D01*
X221253350Y-93070813D01*
X221248423Y-93074467D01*
X221243162Y-93077620D01*
X221237618Y-93080242D01*
X221231843Y-93082309D01*
X221225893Y-93083799D01*
X221219826Y-93084699D01*
X221213700Y-93085000D01*
X221088700Y-93085000D01*
X221082574Y-93084699D01*
X221076507Y-93083799D01*
X221070557Y-93082309D01*
X221064782Y-93080242D01*
X221059238Y-93077620D01*
X221053977Y-93074467D01*
X221049050Y-93070813D01*
X221044506Y-93066694D01*
X221040387Y-93062150D01*
X221036733Y-93057223D01*
X221033580Y-93051962D01*
X221030958Y-93046418D01*
X221028891Y-93040643D01*
X221027401Y-93034693D01*
X221026501Y-93028626D01*
X221026200Y-93022500D01*
X221026200Y-92072500D01*
X221026501Y-92066374D01*
X221027401Y-92060307D01*
X221028891Y-92054357D01*
X221030958Y-92048582D01*
X221033580Y-92043038D01*
X221036733Y-92037777D01*
X221040387Y-92032850D01*
X221044506Y-92028306D01*
X221049050Y-92024187D01*
X221053977Y-92020533D01*
X221059238Y-92017380D01*
X221064782Y-92014758D01*
X221070557Y-92012691D01*
X221076507Y-92011201D01*
X221082574Y-92010301D01*
X221088700Y-92010000D01*
X221213700Y-92010000D01*
X221219826Y-92010301D01*
G37*
G04 #@! TD.AperFunction*
G04 #@! TA.AperFunction,SMDPad,CuDef*
G36*
X220719826Y-92010301D02*
G01*
X220725893Y-92011201D01*
X220731843Y-92012691D01*
X220737618Y-92014758D01*
X220743162Y-92017380D01*
X220748423Y-92020533D01*
X220753350Y-92024187D01*
X220757894Y-92028306D01*
X220762013Y-92032850D01*
X220765667Y-92037777D01*
X220768820Y-92043038D01*
X220771442Y-92048582D01*
X220773509Y-92054357D01*
X220774999Y-92060307D01*
X220775899Y-92066374D01*
X220776200Y-92072500D01*
X220776200Y-93022500D01*
X220775899Y-93028626D01*
X220774999Y-93034693D01*
X220773509Y-93040643D01*
X220771442Y-93046418D01*
X220768820Y-93051962D01*
X220765667Y-93057223D01*
X220762013Y-93062150D01*
X220757894Y-93066694D01*
X220753350Y-93070813D01*
X220748423Y-93074467D01*
X220743162Y-93077620D01*
X220737618Y-93080242D01*
X220731843Y-93082309D01*
X220725893Y-93083799D01*
X220719826Y-93084699D01*
X220713700Y-93085000D01*
X220588700Y-93085000D01*
X220582574Y-93084699D01*
X220576507Y-93083799D01*
X220570557Y-93082309D01*
X220564782Y-93080242D01*
X220559238Y-93077620D01*
X220553977Y-93074467D01*
X220549050Y-93070813D01*
X220544506Y-93066694D01*
X220540387Y-93062150D01*
X220536733Y-93057223D01*
X220533580Y-93051962D01*
X220530958Y-93046418D01*
X220528891Y-93040643D01*
X220527401Y-93034693D01*
X220526501Y-93028626D01*
X220526200Y-93022500D01*
X220526200Y-92072500D01*
X220526501Y-92066374D01*
X220527401Y-92060307D01*
X220528891Y-92054357D01*
X220530958Y-92048582D01*
X220533580Y-92043038D01*
X220536733Y-92037777D01*
X220540387Y-92032850D01*
X220544506Y-92028306D01*
X220549050Y-92024187D01*
X220553977Y-92020533D01*
X220559238Y-92017380D01*
X220564782Y-92014758D01*
X220570557Y-92012691D01*
X220576507Y-92011201D01*
X220582574Y-92010301D01*
X220588700Y-92010000D01*
X220713700Y-92010000D01*
X220719826Y-92010301D01*
G37*
G04 #@! TD.AperFunction*
G04 #@! TA.AperFunction,SMDPad,CuDef*
G36*
X220219826Y-92010301D02*
G01*
X220225893Y-92011201D01*
X220231843Y-92012691D01*
X220237618Y-92014758D01*
X220243162Y-92017380D01*
X220248423Y-92020533D01*
X220253350Y-92024187D01*
X220257894Y-92028306D01*
X220262013Y-92032850D01*
X220265667Y-92037777D01*
X220268820Y-92043038D01*
X220271442Y-92048582D01*
X220273509Y-92054357D01*
X220274999Y-92060307D01*
X220275899Y-92066374D01*
X220276200Y-92072500D01*
X220276200Y-93022500D01*
X220275899Y-93028626D01*
X220274999Y-93034693D01*
X220273509Y-93040643D01*
X220271442Y-93046418D01*
X220268820Y-93051962D01*
X220265667Y-93057223D01*
X220262013Y-93062150D01*
X220257894Y-93066694D01*
X220253350Y-93070813D01*
X220248423Y-93074467D01*
X220243162Y-93077620D01*
X220237618Y-93080242D01*
X220231843Y-93082309D01*
X220225893Y-93083799D01*
X220219826Y-93084699D01*
X220213700Y-93085000D01*
X220088700Y-93085000D01*
X220082574Y-93084699D01*
X220076507Y-93083799D01*
X220070557Y-93082309D01*
X220064782Y-93080242D01*
X220059238Y-93077620D01*
X220053977Y-93074467D01*
X220049050Y-93070813D01*
X220044506Y-93066694D01*
X220040387Y-93062150D01*
X220036733Y-93057223D01*
X220033580Y-93051962D01*
X220030958Y-93046418D01*
X220028891Y-93040643D01*
X220027401Y-93034693D01*
X220026501Y-93028626D01*
X220026200Y-93022500D01*
X220026200Y-92072500D01*
X220026501Y-92066374D01*
X220027401Y-92060307D01*
X220028891Y-92054357D01*
X220030958Y-92048582D01*
X220033580Y-92043038D01*
X220036733Y-92037777D01*
X220040387Y-92032850D01*
X220044506Y-92028306D01*
X220049050Y-92024187D01*
X220053977Y-92020533D01*
X220059238Y-92017380D01*
X220064782Y-92014758D01*
X220070557Y-92012691D01*
X220076507Y-92011201D01*
X220082574Y-92010301D01*
X220088700Y-92010000D01*
X220213700Y-92010000D01*
X220219826Y-92010301D01*
G37*
G04 #@! TD.AperFunction*
G04 #@! TA.AperFunction,SMDPad,CuDef*
G36*
X219719826Y-92010301D02*
G01*
X219725893Y-92011201D01*
X219731843Y-92012691D01*
X219737618Y-92014758D01*
X219743162Y-92017380D01*
X219748423Y-92020533D01*
X219753350Y-92024187D01*
X219757894Y-92028306D01*
X219762013Y-92032850D01*
X219765667Y-92037777D01*
X219768820Y-92043038D01*
X219771442Y-92048582D01*
X219773509Y-92054357D01*
X219774999Y-92060307D01*
X219775899Y-92066374D01*
X219776200Y-92072500D01*
X219776200Y-93022500D01*
X219775899Y-93028626D01*
X219774999Y-93034693D01*
X219773509Y-93040643D01*
X219771442Y-93046418D01*
X219768820Y-93051962D01*
X219765667Y-93057223D01*
X219762013Y-93062150D01*
X219757894Y-93066694D01*
X219753350Y-93070813D01*
X219748423Y-93074467D01*
X219743162Y-93077620D01*
X219737618Y-93080242D01*
X219731843Y-93082309D01*
X219725893Y-93083799D01*
X219719826Y-93084699D01*
X219713700Y-93085000D01*
X219588700Y-93085000D01*
X219582574Y-93084699D01*
X219576507Y-93083799D01*
X219570557Y-93082309D01*
X219564782Y-93080242D01*
X219559238Y-93077620D01*
X219553977Y-93074467D01*
X219549050Y-93070813D01*
X219544506Y-93066694D01*
X219540387Y-93062150D01*
X219536733Y-93057223D01*
X219533580Y-93051962D01*
X219530958Y-93046418D01*
X219528891Y-93040643D01*
X219527401Y-93034693D01*
X219526501Y-93028626D01*
X219526200Y-93022500D01*
X219526200Y-92072500D01*
X219526501Y-92066374D01*
X219527401Y-92060307D01*
X219528891Y-92054357D01*
X219530958Y-92048582D01*
X219533580Y-92043038D01*
X219536733Y-92037777D01*
X219540387Y-92032850D01*
X219544506Y-92028306D01*
X219549050Y-92024187D01*
X219553977Y-92020533D01*
X219559238Y-92017380D01*
X219564782Y-92014758D01*
X219570557Y-92012691D01*
X219576507Y-92011201D01*
X219582574Y-92010301D01*
X219588700Y-92010000D01*
X219713700Y-92010000D01*
X219719826Y-92010301D01*
G37*
G04 #@! TD.AperFunction*
G04 #@! TA.AperFunction,SMDPad,CuDef*
G36*
X219219826Y-92010301D02*
G01*
X219225893Y-92011201D01*
X219231843Y-92012691D01*
X219237618Y-92014758D01*
X219243162Y-92017380D01*
X219248423Y-92020533D01*
X219253350Y-92024187D01*
X219257894Y-92028306D01*
X219262013Y-92032850D01*
X219265667Y-92037777D01*
X219268820Y-92043038D01*
X219271442Y-92048582D01*
X219273509Y-92054357D01*
X219274999Y-92060307D01*
X219275899Y-92066374D01*
X219276200Y-92072500D01*
X219276200Y-93022500D01*
X219275899Y-93028626D01*
X219274999Y-93034693D01*
X219273509Y-93040643D01*
X219271442Y-93046418D01*
X219268820Y-93051962D01*
X219265667Y-93057223D01*
X219262013Y-93062150D01*
X219257894Y-93066694D01*
X219253350Y-93070813D01*
X219248423Y-93074467D01*
X219243162Y-93077620D01*
X219237618Y-93080242D01*
X219231843Y-93082309D01*
X219225893Y-93083799D01*
X219219826Y-93084699D01*
X219213700Y-93085000D01*
X219088700Y-93085000D01*
X219082574Y-93084699D01*
X219076507Y-93083799D01*
X219070557Y-93082309D01*
X219064782Y-93080242D01*
X219059238Y-93077620D01*
X219053977Y-93074467D01*
X219049050Y-93070813D01*
X219044506Y-93066694D01*
X219040387Y-93062150D01*
X219036733Y-93057223D01*
X219033580Y-93051962D01*
X219030958Y-93046418D01*
X219028891Y-93040643D01*
X219027401Y-93034693D01*
X219026501Y-93028626D01*
X219026200Y-93022500D01*
X219026200Y-92072500D01*
X219026501Y-92066374D01*
X219027401Y-92060307D01*
X219028891Y-92054357D01*
X219030958Y-92048582D01*
X219033580Y-92043038D01*
X219036733Y-92037777D01*
X219040387Y-92032850D01*
X219044506Y-92028306D01*
X219049050Y-92024187D01*
X219053977Y-92020533D01*
X219059238Y-92017380D01*
X219064782Y-92014758D01*
X219070557Y-92012691D01*
X219076507Y-92011201D01*
X219082574Y-92010301D01*
X219088700Y-92010000D01*
X219213700Y-92010000D01*
X219219826Y-92010301D01*
G37*
G04 #@! TD.AperFunction*
G04 #@! TA.AperFunction,SMDPad,CuDef*
G36*
X218719826Y-92010301D02*
G01*
X218725893Y-92011201D01*
X218731843Y-92012691D01*
X218737618Y-92014758D01*
X218743162Y-92017380D01*
X218748423Y-92020533D01*
X218753350Y-92024187D01*
X218757894Y-92028306D01*
X218762013Y-92032850D01*
X218765667Y-92037777D01*
X218768820Y-92043038D01*
X218771442Y-92048582D01*
X218773509Y-92054357D01*
X218774999Y-92060307D01*
X218775899Y-92066374D01*
X218776200Y-92072500D01*
X218776200Y-93022500D01*
X218775899Y-93028626D01*
X218774999Y-93034693D01*
X218773509Y-93040643D01*
X218771442Y-93046418D01*
X218768820Y-93051962D01*
X218765667Y-93057223D01*
X218762013Y-93062150D01*
X218757894Y-93066694D01*
X218753350Y-93070813D01*
X218748423Y-93074467D01*
X218743162Y-93077620D01*
X218737618Y-93080242D01*
X218731843Y-93082309D01*
X218725893Y-93083799D01*
X218719826Y-93084699D01*
X218713700Y-93085000D01*
X218588700Y-93085000D01*
X218582574Y-93084699D01*
X218576507Y-93083799D01*
X218570557Y-93082309D01*
X218564782Y-93080242D01*
X218559238Y-93077620D01*
X218553977Y-93074467D01*
X218549050Y-93070813D01*
X218544506Y-93066694D01*
X218540387Y-93062150D01*
X218536733Y-93057223D01*
X218533580Y-93051962D01*
X218530958Y-93046418D01*
X218528891Y-93040643D01*
X218527401Y-93034693D01*
X218526501Y-93028626D01*
X218526200Y-93022500D01*
X218526200Y-92072500D01*
X218526501Y-92066374D01*
X218527401Y-92060307D01*
X218528891Y-92054357D01*
X218530958Y-92048582D01*
X218533580Y-92043038D01*
X218536733Y-92037777D01*
X218540387Y-92032850D01*
X218544506Y-92028306D01*
X218549050Y-92024187D01*
X218553977Y-92020533D01*
X218559238Y-92017380D01*
X218564782Y-92014758D01*
X218570557Y-92012691D01*
X218576507Y-92011201D01*
X218582574Y-92010301D01*
X218588700Y-92010000D01*
X218713700Y-92010000D01*
X218719826Y-92010301D01*
G37*
G04 #@! TD.AperFunction*
G04 #@! TA.AperFunction,SMDPad,CuDef*
G36*
X218219826Y-92010301D02*
G01*
X218225893Y-92011201D01*
X218231843Y-92012691D01*
X218237618Y-92014758D01*
X218243162Y-92017380D01*
X218248423Y-92020533D01*
X218253350Y-92024187D01*
X218257894Y-92028306D01*
X218262013Y-92032850D01*
X218265667Y-92037777D01*
X218268820Y-92043038D01*
X218271442Y-92048582D01*
X218273509Y-92054357D01*
X218274999Y-92060307D01*
X218275899Y-92066374D01*
X218276200Y-92072500D01*
X218276200Y-93022500D01*
X218275899Y-93028626D01*
X218274999Y-93034693D01*
X218273509Y-93040643D01*
X218271442Y-93046418D01*
X218268820Y-93051962D01*
X218265667Y-93057223D01*
X218262013Y-93062150D01*
X218257894Y-93066694D01*
X218253350Y-93070813D01*
X218248423Y-93074467D01*
X218243162Y-93077620D01*
X218237618Y-93080242D01*
X218231843Y-93082309D01*
X218225893Y-93083799D01*
X218219826Y-93084699D01*
X218213700Y-93085000D01*
X218088700Y-93085000D01*
X218082574Y-93084699D01*
X218076507Y-93083799D01*
X218070557Y-93082309D01*
X218064782Y-93080242D01*
X218059238Y-93077620D01*
X218053977Y-93074467D01*
X218049050Y-93070813D01*
X218044506Y-93066694D01*
X218040387Y-93062150D01*
X218036733Y-93057223D01*
X218033580Y-93051962D01*
X218030958Y-93046418D01*
X218028891Y-93040643D01*
X218027401Y-93034693D01*
X218026501Y-93028626D01*
X218026200Y-93022500D01*
X218026200Y-92072500D01*
X218026501Y-92066374D01*
X218027401Y-92060307D01*
X218028891Y-92054357D01*
X218030958Y-92048582D01*
X218033580Y-92043038D01*
X218036733Y-92037777D01*
X218040387Y-92032850D01*
X218044506Y-92028306D01*
X218049050Y-92024187D01*
X218053977Y-92020533D01*
X218059238Y-92017380D01*
X218064782Y-92014758D01*
X218070557Y-92012691D01*
X218076507Y-92011201D01*
X218082574Y-92010301D01*
X218088700Y-92010000D01*
X218213700Y-92010000D01*
X218219826Y-92010301D01*
G37*
G04 #@! TD.AperFunction*
G04 #@! TA.AperFunction,SMDPad,CuDef*
G36*
X217719826Y-92010301D02*
G01*
X217725893Y-92011201D01*
X217731843Y-92012691D01*
X217737618Y-92014758D01*
X217743162Y-92017380D01*
X217748423Y-92020533D01*
X217753350Y-92024187D01*
X217757894Y-92028306D01*
X217762013Y-92032850D01*
X217765667Y-92037777D01*
X217768820Y-92043038D01*
X217771442Y-92048582D01*
X217773509Y-92054357D01*
X217774999Y-92060307D01*
X217775899Y-92066374D01*
X217776200Y-92072500D01*
X217776200Y-93022500D01*
X217775899Y-93028626D01*
X217774999Y-93034693D01*
X217773509Y-93040643D01*
X217771442Y-93046418D01*
X217768820Y-93051962D01*
X217765667Y-93057223D01*
X217762013Y-93062150D01*
X217757894Y-93066694D01*
X217753350Y-93070813D01*
X217748423Y-93074467D01*
X217743162Y-93077620D01*
X217737618Y-93080242D01*
X217731843Y-93082309D01*
X217725893Y-93083799D01*
X217719826Y-93084699D01*
X217713700Y-93085000D01*
X217588700Y-93085000D01*
X217582574Y-93084699D01*
X217576507Y-93083799D01*
X217570557Y-93082309D01*
X217564782Y-93080242D01*
X217559238Y-93077620D01*
X217553977Y-93074467D01*
X217549050Y-93070813D01*
X217544506Y-93066694D01*
X217540387Y-93062150D01*
X217536733Y-93057223D01*
X217533580Y-93051962D01*
X217530958Y-93046418D01*
X217528891Y-93040643D01*
X217527401Y-93034693D01*
X217526501Y-93028626D01*
X217526200Y-93022500D01*
X217526200Y-92072500D01*
X217526501Y-92066374D01*
X217527401Y-92060307D01*
X217528891Y-92054357D01*
X217530958Y-92048582D01*
X217533580Y-92043038D01*
X217536733Y-92037777D01*
X217540387Y-92032850D01*
X217544506Y-92028306D01*
X217549050Y-92024187D01*
X217553977Y-92020533D01*
X217559238Y-92017380D01*
X217564782Y-92014758D01*
X217570557Y-92012691D01*
X217576507Y-92011201D01*
X217582574Y-92010301D01*
X217588700Y-92010000D01*
X217713700Y-92010000D01*
X217719826Y-92010301D01*
G37*
G04 #@! TD.AperFunction*
G04 #@! TA.AperFunction,SMDPad,CuDef*
G36*
X217219826Y-92010301D02*
G01*
X217225893Y-92011201D01*
X217231843Y-92012691D01*
X217237618Y-92014758D01*
X217243162Y-92017380D01*
X217248423Y-92020533D01*
X217253350Y-92024187D01*
X217257894Y-92028306D01*
X217262013Y-92032850D01*
X217265667Y-92037777D01*
X217268820Y-92043038D01*
X217271442Y-92048582D01*
X217273509Y-92054357D01*
X217274999Y-92060307D01*
X217275899Y-92066374D01*
X217276200Y-92072500D01*
X217276200Y-93022500D01*
X217275899Y-93028626D01*
X217274999Y-93034693D01*
X217273509Y-93040643D01*
X217271442Y-93046418D01*
X217268820Y-93051962D01*
X217265667Y-93057223D01*
X217262013Y-93062150D01*
X217257894Y-93066694D01*
X217253350Y-93070813D01*
X217248423Y-93074467D01*
X217243162Y-93077620D01*
X217237618Y-93080242D01*
X217231843Y-93082309D01*
X217225893Y-93083799D01*
X217219826Y-93084699D01*
X217213700Y-93085000D01*
X217088700Y-93085000D01*
X217082574Y-93084699D01*
X217076507Y-93083799D01*
X217070557Y-93082309D01*
X217064782Y-93080242D01*
X217059238Y-93077620D01*
X217053977Y-93074467D01*
X217049050Y-93070813D01*
X217044506Y-93066694D01*
X217040387Y-93062150D01*
X217036733Y-93057223D01*
X217033580Y-93051962D01*
X217030958Y-93046418D01*
X217028891Y-93040643D01*
X217027401Y-93034693D01*
X217026501Y-93028626D01*
X217026200Y-93022500D01*
X217026200Y-92072500D01*
X217026501Y-92066374D01*
X217027401Y-92060307D01*
X217028891Y-92054357D01*
X217030958Y-92048582D01*
X217033580Y-92043038D01*
X217036733Y-92037777D01*
X217040387Y-92032850D01*
X217044506Y-92028306D01*
X217049050Y-92024187D01*
X217053977Y-92020533D01*
X217059238Y-92017380D01*
X217064782Y-92014758D01*
X217070557Y-92012691D01*
X217076507Y-92011201D01*
X217082574Y-92010301D01*
X217088700Y-92010000D01*
X217213700Y-92010000D01*
X217219826Y-92010301D01*
G37*
G04 #@! TD.AperFunction*
G04 #@! TA.AperFunction,SMDPad,CuDef*
G36*
X216719826Y-92010301D02*
G01*
X216725893Y-92011201D01*
X216731843Y-92012691D01*
X216737618Y-92014758D01*
X216743162Y-92017380D01*
X216748423Y-92020533D01*
X216753350Y-92024187D01*
X216757894Y-92028306D01*
X216762013Y-92032850D01*
X216765667Y-92037777D01*
X216768820Y-92043038D01*
X216771442Y-92048582D01*
X216773509Y-92054357D01*
X216774999Y-92060307D01*
X216775899Y-92066374D01*
X216776200Y-92072500D01*
X216776200Y-93022500D01*
X216775899Y-93028626D01*
X216774999Y-93034693D01*
X216773509Y-93040643D01*
X216771442Y-93046418D01*
X216768820Y-93051962D01*
X216765667Y-93057223D01*
X216762013Y-93062150D01*
X216757894Y-93066694D01*
X216753350Y-93070813D01*
X216748423Y-93074467D01*
X216743162Y-93077620D01*
X216737618Y-93080242D01*
X216731843Y-93082309D01*
X216725893Y-93083799D01*
X216719826Y-93084699D01*
X216713700Y-93085000D01*
X216588700Y-93085000D01*
X216582574Y-93084699D01*
X216576507Y-93083799D01*
X216570557Y-93082309D01*
X216564782Y-93080242D01*
X216559238Y-93077620D01*
X216553977Y-93074467D01*
X216549050Y-93070813D01*
X216544506Y-93066694D01*
X216540387Y-93062150D01*
X216536733Y-93057223D01*
X216533580Y-93051962D01*
X216530958Y-93046418D01*
X216528891Y-93040643D01*
X216527401Y-93034693D01*
X216526501Y-93028626D01*
X216526200Y-93022500D01*
X216526200Y-92072500D01*
X216526501Y-92066374D01*
X216527401Y-92060307D01*
X216528891Y-92054357D01*
X216530958Y-92048582D01*
X216533580Y-92043038D01*
X216536733Y-92037777D01*
X216540387Y-92032850D01*
X216544506Y-92028306D01*
X216549050Y-92024187D01*
X216553977Y-92020533D01*
X216559238Y-92017380D01*
X216564782Y-92014758D01*
X216570557Y-92012691D01*
X216576507Y-92011201D01*
X216582574Y-92010301D01*
X216588700Y-92010000D01*
X216713700Y-92010000D01*
X216719826Y-92010301D01*
G37*
G04 #@! TD.AperFunction*
G04 #@! TA.AperFunction,SMDPad,CuDef*
G36*
X216294826Y-93260301D02*
G01*
X216300893Y-93261201D01*
X216306843Y-93262691D01*
X216312618Y-93264758D01*
X216318162Y-93267380D01*
X216323423Y-93270533D01*
X216328350Y-93274187D01*
X216332894Y-93278306D01*
X216337013Y-93282850D01*
X216340667Y-93287777D01*
X216343820Y-93293038D01*
X216346442Y-93298582D01*
X216348509Y-93304357D01*
X216349999Y-93310307D01*
X216350899Y-93316374D01*
X216351200Y-93322500D01*
X216351200Y-93447500D01*
X216350899Y-93453626D01*
X216349999Y-93459693D01*
X216348509Y-93465643D01*
X216346442Y-93471418D01*
X216343820Y-93476962D01*
X216340667Y-93482223D01*
X216337013Y-93487150D01*
X216332894Y-93491694D01*
X216328350Y-93495813D01*
X216323423Y-93499467D01*
X216318162Y-93502620D01*
X216312618Y-93505242D01*
X216306843Y-93507309D01*
X216300893Y-93508799D01*
X216294826Y-93509699D01*
X216288700Y-93510000D01*
X215338700Y-93510000D01*
X215332574Y-93509699D01*
X215326507Y-93508799D01*
X215320557Y-93507309D01*
X215314782Y-93505242D01*
X215309238Y-93502620D01*
X215303977Y-93499467D01*
X215299050Y-93495813D01*
X215294506Y-93491694D01*
X215290387Y-93487150D01*
X215286733Y-93482223D01*
X215283580Y-93476962D01*
X215280958Y-93471418D01*
X215278891Y-93465643D01*
X215277401Y-93459693D01*
X215276501Y-93453626D01*
X215276200Y-93447500D01*
X215276200Y-93322500D01*
X215276501Y-93316374D01*
X215277401Y-93310307D01*
X215278891Y-93304357D01*
X215280958Y-93298582D01*
X215283580Y-93293038D01*
X215286733Y-93287777D01*
X215290387Y-93282850D01*
X215294506Y-93278306D01*
X215299050Y-93274187D01*
X215303977Y-93270533D01*
X215309238Y-93267380D01*
X215314782Y-93264758D01*
X215320557Y-93262691D01*
X215326507Y-93261201D01*
X215332574Y-93260301D01*
X215338700Y-93260000D01*
X216288700Y-93260000D01*
X216294826Y-93260301D01*
G37*
G04 #@! TD.AperFunction*
G04 #@! TA.AperFunction,SMDPad,CuDef*
G36*
X216294826Y-93760301D02*
G01*
X216300893Y-93761201D01*
X216306843Y-93762691D01*
X216312618Y-93764758D01*
X216318162Y-93767380D01*
X216323423Y-93770533D01*
X216328350Y-93774187D01*
X216332894Y-93778306D01*
X216337013Y-93782850D01*
X216340667Y-93787777D01*
X216343820Y-93793038D01*
X216346442Y-93798582D01*
X216348509Y-93804357D01*
X216349999Y-93810307D01*
X216350899Y-93816374D01*
X216351200Y-93822500D01*
X216351200Y-93947500D01*
X216350899Y-93953626D01*
X216349999Y-93959693D01*
X216348509Y-93965643D01*
X216346442Y-93971418D01*
X216343820Y-93976962D01*
X216340667Y-93982223D01*
X216337013Y-93987150D01*
X216332894Y-93991694D01*
X216328350Y-93995813D01*
X216323423Y-93999467D01*
X216318162Y-94002620D01*
X216312618Y-94005242D01*
X216306843Y-94007309D01*
X216300893Y-94008799D01*
X216294826Y-94009699D01*
X216288700Y-94010000D01*
X215338700Y-94010000D01*
X215332574Y-94009699D01*
X215326507Y-94008799D01*
X215320557Y-94007309D01*
X215314782Y-94005242D01*
X215309238Y-94002620D01*
X215303977Y-93999467D01*
X215299050Y-93995813D01*
X215294506Y-93991694D01*
X215290387Y-93987150D01*
X215286733Y-93982223D01*
X215283580Y-93976962D01*
X215280958Y-93971418D01*
X215278891Y-93965643D01*
X215277401Y-93959693D01*
X215276501Y-93953626D01*
X215276200Y-93947500D01*
X215276200Y-93822500D01*
X215276501Y-93816374D01*
X215277401Y-93810307D01*
X215278891Y-93804357D01*
X215280958Y-93798582D01*
X215283580Y-93793038D01*
X215286733Y-93787777D01*
X215290387Y-93782850D01*
X215294506Y-93778306D01*
X215299050Y-93774187D01*
X215303977Y-93770533D01*
X215309238Y-93767380D01*
X215314782Y-93764758D01*
X215320557Y-93762691D01*
X215326507Y-93761201D01*
X215332574Y-93760301D01*
X215338700Y-93760000D01*
X216288700Y-93760000D01*
X216294826Y-93760301D01*
G37*
G04 #@! TD.AperFunction*
G04 #@! TA.AperFunction,SMDPad,CuDef*
G36*
X216294826Y-94260301D02*
G01*
X216300893Y-94261201D01*
X216306843Y-94262691D01*
X216312618Y-94264758D01*
X216318162Y-94267380D01*
X216323423Y-94270533D01*
X216328350Y-94274187D01*
X216332894Y-94278306D01*
X216337013Y-94282850D01*
X216340667Y-94287777D01*
X216343820Y-94293038D01*
X216346442Y-94298582D01*
X216348509Y-94304357D01*
X216349999Y-94310307D01*
X216350899Y-94316374D01*
X216351200Y-94322500D01*
X216351200Y-94447500D01*
X216350899Y-94453626D01*
X216349999Y-94459693D01*
X216348509Y-94465643D01*
X216346442Y-94471418D01*
X216343820Y-94476962D01*
X216340667Y-94482223D01*
X216337013Y-94487150D01*
X216332894Y-94491694D01*
X216328350Y-94495813D01*
X216323423Y-94499467D01*
X216318162Y-94502620D01*
X216312618Y-94505242D01*
X216306843Y-94507309D01*
X216300893Y-94508799D01*
X216294826Y-94509699D01*
X216288700Y-94510000D01*
X215338700Y-94510000D01*
X215332574Y-94509699D01*
X215326507Y-94508799D01*
X215320557Y-94507309D01*
X215314782Y-94505242D01*
X215309238Y-94502620D01*
X215303977Y-94499467D01*
X215299050Y-94495813D01*
X215294506Y-94491694D01*
X215290387Y-94487150D01*
X215286733Y-94482223D01*
X215283580Y-94476962D01*
X215280958Y-94471418D01*
X215278891Y-94465643D01*
X215277401Y-94459693D01*
X215276501Y-94453626D01*
X215276200Y-94447500D01*
X215276200Y-94322500D01*
X215276501Y-94316374D01*
X215277401Y-94310307D01*
X215278891Y-94304357D01*
X215280958Y-94298582D01*
X215283580Y-94293038D01*
X215286733Y-94287777D01*
X215290387Y-94282850D01*
X215294506Y-94278306D01*
X215299050Y-94274187D01*
X215303977Y-94270533D01*
X215309238Y-94267380D01*
X215314782Y-94264758D01*
X215320557Y-94262691D01*
X215326507Y-94261201D01*
X215332574Y-94260301D01*
X215338700Y-94260000D01*
X216288700Y-94260000D01*
X216294826Y-94260301D01*
G37*
G04 #@! TD.AperFunction*
G04 #@! TA.AperFunction,SMDPad,CuDef*
G36*
X216294826Y-94760301D02*
G01*
X216300893Y-94761201D01*
X216306843Y-94762691D01*
X216312618Y-94764758D01*
X216318162Y-94767380D01*
X216323423Y-94770533D01*
X216328350Y-94774187D01*
X216332894Y-94778306D01*
X216337013Y-94782850D01*
X216340667Y-94787777D01*
X216343820Y-94793038D01*
X216346442Y-94798582D01*
X216348509Y-94804357D01*
X216349999Y-94810307D01*
X216350899Y-94816374D01*
X216351200Y-94822500D01*
X216351200Y-94947500D01*
X216350899Y-94953626D01*
X216349999Y-94959693D01*
X216348509Y-94965643D01*
X216346442Y-94971418D01*
X216343820Y-94976962D01*
X216340667Y-94982223D01*
X216337013Y-94987150D01*
X216332894Y-94991694D01*
X216328350Y-94995813D01*
X216323423Y-94999467D01*
X216318162Y-95002620D01*
X216312618Y-95005242D01*
X216306843Y-95007309D01*
X216300893Y-95008799D01*
X216294826Y-95009699D01*
X216288700Y-95010000D01*
X215338700Y-95010000D01*
X215332574Y-95009699D01*
X215326507Y-95008799D01*
X215320557Y-95007309D01*
X215314782Y-95005242D01*
X215309238Y-95002620D01*
X215303977Y-94999467D01*
X215299050Y-94995813D01*
X215294506Y-94991694D01*
X215290387Y-94987150D01*
X215286733Y-94982223D01*
X215283580Y-94976962D01*
X215280958Y-94971418D01*
X215278891Y-94965643D01*
X215277401Y-94959693D01*
X215276501Y-94953626D01*
X215276200Y-94947500D01*
X215276200Y-94822500D01*
X215276501Y-94816374D01*
X215277401Y-94810307D01*
X215278891Y-94804357D01*
X215280958Y-94798582D01*
X215283580Y-94793038D01*
X215286733Y-94787777D01*
X215290387Y-94782850D01*
X215294506Y-94778306D01*
X215299050Y-94774187D01*
X215303977Y-94770533D01*
X215309238Y-94767380D01*
X215314782Y-94764758D01*
X215320557Y-94762691D01*
X215326507Y-94761201D01*
X215332574Y-94760301D01*
X215338700Y-94760000D01*
X216288700Y-94760000D01*
X216294826Y-94760301D01*
G37*
G04 #@! TD.AperFunction*
G04 #@! TA.AperFunction,SMDPad,CuDef*
G36*
X216294826Y-95260301D02*
G01*
X216300893Y-95261201D01*
X216306843Y-95262691D01*
X216312618Y-95264758D01*
X216318162Y-95267380D01*
X216323423Y-95270533D01*
X216328350Y-95274187D01*
X216332894Y-95278306D01*
X216337013Y-95282850D01*
X216340667Y-95287777D01*
X216343820Y-95293038D01*
X216346442Y-95298582D01*
X216348509Y-95304357D01*
X216349999Y-95310307D01*
X216350899Y-95316374D01*
X216351200Y-95322500D01*
X216351200Y-95447500D01*
X216350899Y-95453626D01*
X216349999Y-95459693D01*
X216348509Y-95465643D01*
X216346442Y-95471418D01*
X216343820Y-95476962D01*
X216340667Y-95482223D01*
X216337013Y-95487150D01*
X216332894Y-95491694D01*
X216328350Y-95495813D01*
X216323423Y-95499467D01*
X216318162Y-95502620D01*
X216312618Y-95505242D01*
X216306843Y-95507309D01*
X216300893Y-95508799D01*
X216294826Y-95509699D01*
X216288700Y-95510000D01*
X215338700Y-95510000D01*
X215332574Y-95509699D01*
X215326507Y-95508799D01*
X215320557Y-95507309D01*
X215314782Y-95505242D01*
X215309238Y-95502620D01*
X215303977Y-95499467D01*
X215299050Y-95495813D01*
X215294506Y-95491694D01*
X215290387Y-95487150D01*
X215286733Y-95482223D01*
X215283580Y-95476962D01*
X215280958Y-95471418D01*
X215278891Y-95465643D01*
X215277401Y-95459693D01*
X215276501Y-95453626D01*
X215276200Y-95447500D01*
X215276200Y-95322500D01*
X215276501Y-95316374D01*
X215277401Y-95310307D01*
X215278891Y-95304357D01*
X215280958Y-95298582D01*
X215283580Y-95293038D01*
X215286733Y-95287777D01*
X215290387Y-95282850D01*
X215294506Y-95278306D01*
X215299050Y-95274187D01*
X215303977Y-95270533D01*
X215309238Y-95267380D01*
X215314782Y-95264758D01*
X215320557Y-95262691D01*
X215326507Y-95261201D01*
X215332574Y-95260301D01*
X215338700Y-95260000D01*
X216288700Y-95260000D01*
X216294826Y-95260301D01*
G37*
G04 #@! TD.AperFunction*
G04 #@! TA.AperFunction,SMDPad,CuDef*
G36*
X216294826Y-95760301D02*
G01*
X216300893Y-95761201D01*
X216306843Y-95762691D01*
X216312618Y-95764758D01*
X216318162Y-95767380D01*
X216323423Y-95770533D01*
X216328350Y-95774187D01*
X216332894Y-95778306D01*
X216337013Y-95782850D01*
X216340667Y-95787777D01*
X216343820Y-95793038D01*
X216346442Y-95798582D01*
X216348509Y-95804357D01*
X216349999Y-95810307D01*
X216350899Y-95816374D01*
X216351200Y-95822500D01*
X216351200Y-95947500D01*
X216350899Y-95953626D01*
X216349999Y-95959693D01*
X216348509Y-95965643D01*
X216346442Y-95971418D01*
X216343820Y-95976962D01*
X216340667Y-95982223D01*
X216337013Y-95987150D01*
X216332894Y-95991694D01*
X216328350Y-95995813D01*
X216323423Y-95999467D01*
X216318162Y-96002620D01*
X216312618Y-96005242D01*
X216306843Y-96007309D01*
X216300893Y-96008799D01*
X216294826Y-96009699D01*
X216288700Y-96010000D01*
X215338700Y-96010000D01*
X215332574Y-96009699D01*
X215326507Y-96008799D01*
X215320557Y-96007309D01*
X215314782Y-96005242D01*
X215309238Y-96002620D01*
X215303977Y-95999467D01*
X215299050Y-95995813D01*
X215294506Y-95991694D01*
X215290387Y-95987150D01*
X215286733Y-95982223D01*
X215283580Y-95976962D01*
X215280958Y-95971418D01*
X215278891Y-95965643D01*
X215277401Y-95959693D01*
X215276501Y-95953626D01*
X215276200Y-95947500D01*
X215276200Y-95822500D01*
X215276501Y-95816374D01*
X215277401Y-95810307D01*
X215278891Y-95804357D01*
X215280958Y-95798582D01*
X215283580Y-95793038D01*
X215286733Y-95787777D01*
X215290387Y-95782850D01*
X215294506Y-95778306D01*
X215299050Y-95774187D01*
X215303977Y-95770533D01*
X215309238Y-95767380D01*
X215314782Y-95764758D01*
X215320557Y-95762691D01*
X215326507Y-95761201D01*
X215332574Y-95760301D01*
X215338700Y-95760000D01*
X216288700Y-95760000D01*
X216294826Y-95760301D01*
G37*
G04 #@! TD.AperFunction*
G04 #@! TA.AperFunction,SMDPad,CuDef*
G36*
X216294826Y-96260301D02*
G01*
X216300893Y-96261201D01*
X216306843Y-96262691D01*
X216312618Y-96264758D01*
X216318162Y-96267380D01*
X216323423Y-96270533D01*
X216328350Y-96274187D01*
X216332894Y-96278306D01*
X216337013Y-96282850D01*
X216340667Y-96287777D01*
X216343820Y-96293038D01*
X216346442Y-96298582D01*
X216348509Y-96304357D01*
X216349999Y-96310307D01*
X216350899Y-96316374D01*
X216351200Y-96322500D01*
X216351200Y-96447500D01*
X216350899Y-96453626D01*
X216349999Y-96459693D01*
X216348509Y-96465643D01*
X216346442Y-96471418D01*
X216343820Y-96476962D01*
X216340667Y-96482223D01*
X216337013Y-96487150D01*
X216332894Y-96491694D01*
X216328350Y-96495813D01*
X216323423Y-96499467D01*
X216318162Y-96502620D01*
X216312618Y-96505242D01*
X216306843Y-96507309D01*
X216300893Y-96508799D01*
X216294826Y-96509699D01*
X216288700Y-96510000D01*
X215338700Y-96510000D01*
X215332574Y-96509699D01*
X215326507Y-96508799D01*
X215320557Y-96507309D01*
X215314782Y-96505242D01*
X215309238Y-96502620D01*
X215303977Y-96499467D01*
X215299050Y-96495813D01*
X215294506Y-96491694D01*
X215290387Y-96487150D01*
X215286733Y-96482223D01*
X215283580Y-96476962D01*
X215280958Y-96471418D01*
X215278891Y-96465643D01*
X215277401Y-96459693D01*
X215276501Y-96453626D01*
X215276200Y-96447500D01*
X215276200Y-96322500D01*
X215276501Y-96316374D01*
X215277401Y-96310307D01*
X215278891Y-96304357D01*
X215280958Y-96298582D01*
X215283580Y-96293038D01*
X215286733Y-96287777D01*
X215290387Y-96282850D01*
X215294506Y-96278306D01*
X215299050Y-96274187D01*
X215303977Y-96270533D01*
X215309238Y-96267380D01*
X215314782Y-96264758D01*
X215320557Y-96262691D01*
X215326507Y-96261201D01*
X215332574Y-96260301D01*
X215338700Y-96260000D01*
X216288700Y-96260000D01*
X216294826Y-96260301D01*
G37*
G04 #@! TD.AperFunction*
G04 #@! TA.AperFunction,SMDPad,CuDef*
G36*
X216294826Y-96760301D02*
G01*
X216300893Y-96761201D01*
X216306843Y-96762691D01*
X216312618Y-96764758D01*
X216318162Y-96767380D01*
X216323423Y-96770533D01*
X216328350Y-96774187D01*
X216332894Y-96778306D01*
X216337013Y-96782850D01*
X216340667Y-96787777D01*
X216343820Y-96793038D01*
X216346442Y-96798582D01*
X216348509Y-96804357D01*
X216349999Y-96810307D01*
X216350899Y-96816374D01*
X216351200Y-96822500D01*
X216351200Y-96947500D01*
X216350899Y-96953626D01*
X216349999Y-96959693D01*
X216348509Y-96965643D01*
X216346442Y-96971418D01*
X216343820Y-96976962D01*
X216340667Y-96982223D01*
X216337013Y-96987150D01*
X216332894Y-96991694D01*
X216328350Y-96995813D01*
X216323423Y-96999467D01*
X216318162Y-97002620D01*
X216312618Y-97005242D01*
X216306843Y-97007309D01*
X216300893Y-97008799D01*
X216294826Y-97009699D01*
X216288700Y-97010000D01*
X215338700Y-97010000D01*
X215332574Y-97009699D01*
X215326507Y-97008799D01*
X215320557Y-97007309D01*
X215314782Y-97005242D01*
X215309238Y-97002620D01*
X215303977Y-96999467D01*
X215299050Y-96995813D01*
X215294506Y-96991694D01*
X215290387Y-96987150D01*
X215286733Y-96982223D01*
X215283580Y-96976962D01*
X215280958Y-96971418D01*
X215278891Y-96965643D01*
X215277401Y-96959693D01*
X215276501Y-96953626D01*
X215276200Y-96947500D01*
X215276200Y-96822500D01*
X215276501Y-96816374D01*
X215277401Y-96810307D01*
X215278891Y-96804357D01*
X215280958Y-96798582D01*
X215283580Y-96793038D01*
X215286733Y-96787777D01*
X215290387Y-96782850D01*
X215294506Y-96778306D01*
X215299050Y-96774187D01*
X215303977Y-96770533D01*
X215309238Y-96767380D01*
X215314782Y-96764758D01*
X215320557Y-96762691D01*
X215326507Y-96761201D01*
X215332574Y-96760301D01*
X215338700Y-96760000D01*
X216288700Y-96760000D01*
X216294826Y-96760301D01*
G37*
G04 #@! TD.AperFunction*
G04 #@! TA.AperFunction,SMDPad,CuDef*
G36*
X216294826Y-97260301D02*
G01*
X216300893Y-97261201D01*
X216306843Y-97262691D01*
X216312618Y-97264758D01*
X216318162Y-97267380D01*
X216323423Y-97270533D01*
X216328350Y-97274187D01*
X216332894Y-97278306D01*
X216337013Y-97282850D01*
X216340667Y-97287777D01*
X216343820Y-97293038D01*
X216346442Y-97298582D01*
X216348509Y-97304357D01*
X216349999Y-97310307D01*
X216350899Y-97316374D01*
X216351200Y-97322500D01*
X216351200Y-97447500D01*
X216350899Y-97453626D01*
X216349999Y-97459693D01*
X216348509Y-97465643D01*
X216346442Y-97471418D01*
X216343820Y-97476962D01*
X216340667Y-97482223D01*
X216337013Y-97487150D01*
X216332894Y-97491694D01*
X216328350Y-97495813D01*
X216323423Y-97499467D01*
X216318162Y-97502620D01*
X216312618Y-97505242D01*
X216306843Y-97507309D01*
X216300893Y-97508799D01*
X216294826Y-97509699D01*
X216288700Y-97510000D01*
X215338700Y-97510000D01*
X215332574Y-97509699D01*
X215326507Y-97508799D01*
X215320557Y-97507309D01*
X215314782Y-97505242D01*
X215309238Y-97502620D01*
X215303977Y-97499467D01*
X215299050Y-97495813D01*
X215294506Y-97491694D01*
X215290387Y-97487150D01*
X215286733Y-97482223D01*
X215283580Y-97476962D01*
X215280958Y-97471418D01*
X215278891Y-97465643D01*
X215277401Y-97459693D01*
X215276501Y-97453626D01*
X215276200Y-97447500D01*
X215276200Y-97322500D01*
X215276501Y-97316374D01*
X215277401Y-97310307D01*
X215278891Y-97304357D01*
X215280958Y-97298582D01*
X215283580Y-97293038D01*
X215286733Y-97287777D01*
X215290387Y-97282850D01*
X215294506Y-97278306D01*
X215299050Y-97274187D01*
X215303977Y-97270533D01*
X215309238Y-97267380D01*
X215314782Y-97264758D01*
X215320557Y-97262691D01*
X215326507Y-97261201D01*
X215332574Y-97260301D01*
X215338700Y-97260000D01*
X216288700Y-97260000D01*
X216294826Y-97260301D01*
G37*
G04 #@! TD.AperFunction*
G04 #@! TA.AperFunction,SMDPad,CuDef*
G36*
X216294826Y-97760301D02*
G01*
X216300893Y-97761201D01*
X216306843Y-97762691D01*
X216312618Y-97764758D01*
X216318162Y-97767380D01*
X216323423Y-97770533D01*
X216328350Y-97774187D01*
X216332894Y-97778306D01*
X216337013Y-97782850D01*
X216340667Y-97787777D01*
X216343820Y-97793038D01*
X216346442Y-97798582D01*
X216348509Y-97804357D01*
X216349999Y-97810307D01*
X216350899Y-97816374D01*
X216351200Y-97822500D01*
X216351200Y-97947500D01*
X216350899Y-97953626D01*
X216349999Y-97959693D01*
X216348509Y-97965643D01*
X216346442Y-97971418D01*
X216343820Y-97976962D01*
X216340667Y-97982223D01*
X216337013Y-97987150D01*
X216332894Y-97991694D01*
X216328350Y-97995813D01*
X216323423Y-97999467D01*
X216318162Y-98002620D01*
X216312618Y-98005242D01*
X216306843Y-98007309D01*
X216300893Y-98008799D01*
X216294826Y-98009699D01*
X216288700Y-98010000D01*
X215338700Y-98010000D01*
X215332574Y-98009699D01*
X215326507Y-98008799D01*
X215320557Y-98007309D01*
X215314782Y-98005242D01*
X215309238Y-98002620D01*
X215303977Y-97999467D01*
X215299050Y-97995813D01*
X215294506Y-97991694D01*
X215290387Y-97987150D01*
X215286733Y-97982223D01*
X215283580Y-97976962D01*
X215280958Y-97971418D01*
X215278891Y-97965643D01*
X215277401Y-97959693D01*
X215276501Y-97953626D01*
X215276200Y-97947500D01*
X215276200Y-97822500D01*
X215276501Y-97816374D01*
X215277401Y-97810307D01*
X215278891Y-97804357D01*
X215280958Y-97798582D01*
X215283580Y-97793038D01*
X215286733Y-97787777D01*
X215290387Y-97782850D01*
X215294506Y-97778306D01*
X215299050Y-97774187D01*
X215303977Y-97770533D01*
X215309238Y-97767380D01*
X215314782Y-97764758D01*
X215320557Y-97762691D01*
X215326507Y-97761201D01*
X215332574Y-97760301D01*
X215338700Y-97760000D01*
X216288700Y-97760000D01*
X216294826Y-97760301D01*
G37*
G04 #@! TD.AperFunction*
G04 #@! TA.AperFunction,SMDPad,CuDef*
G36*
X216294826Y-98260301D02*
G01*
X216300893Y-98261201D01*
X216306843Y-98262691D01*
X216312618Y-98264758D01*
X216318162Y-98267380D01*
X216323423Y-98270533D01*
X216328350Y-98274187D01*
X216332894Y-98278306D01*
X216337013Y-98282850D01*
X216340667Y-98287777D01*
X216343820Y-98293038D01*
X216346442Y-98298582D01*
X216348509Y-98304357D01*
X216349999Y-98310307D01*
X216350899Y-98316374D01*
X216351200Y-98322500D01*
X216351200Y-98447500D01*
X216350899Y-98453626D01*
X216349999Y-98459693D01*
X216348509Y-98465643D01*
X216346442Y-98471418D01*
X216343820Y-98476962D01*
X216340667Y-98482223D01*
X216337013Y-98487150D01*
X216332894Y-98491694D01*
X216328350Y-98495813D01*
X216323423Y-98499467D01*
X216318162Y-98502620D01*
X216312618Y-98505242D01*
X216306843Y-98507309D01*
X216300893Y-98508799D01*
X216294826Y-98509699D01*
X216288700Y-98510000D01*
X215338700Y-98510000D01*
X215332574Y-98509699D01*
X215326507Y-98508799D01*
X215320557Y-98507309D01*
X215314782Y-98505242D01*
X215309238Y-98502620D01*
X215303977Y-98499467D01*
X215299050Y-98495813D01*
X215294506Y-98491694D01*
X215290387Y-98487150D01*
X215286733Y-98482223D01*
X215283580Y-98476962D01*
X215280958Y-98471418D01*
X215278891Y-98465643D01*
X215277401Y-98459693D01*
X215276501Y-98453626D01*
X215276200Y-98447500D01*
X215276200Y-98322500D01*
X215276501Y-98316374D01*
X215277401Y-98310307D01*
X215278891Y-98304357D01*
X215280958Y-98298582D01*
X215283580Y-98293038D01*
X215286733Y-98287777D01*
X215290387Y-98282850D01*
X215294506Y-98278306D01*
X215299050Y-98274187D01*
X215303977Y-98270533D01*
X215309238Y-98267380D01*
X215314782Y-98264758D01*
X215320557Y-98262691D01*
X215326507Y-98261201D01*
X215332574Y-98260301D01*
X215338700Y-98260000D01*
X216288700Y-98260000D01*
X216294826Y-98260301D01*
G37*
G04 #@! TD.AperFunction*
G04 #@! TA.AperFunction,SMDPad,CuDef*
G36*
X221525704Y-93286204D02*
G01*
X221549973Y-93289804D01*
X221573771Y-93295765D01*
X221596871Y-93304030D01*
X221619049Y-93314520D01*
X221640093Y-93327133D01*
X221659798Y-93341747D01*
X221677977Y-93358223D01*
X221694453Y-93376402D01*
X221709067Y-93396107D01*
X221721680Y-93417151D01*
X221732170Y-93439329D01*
X221740435Y-93462429D01*
X221746396Y-93486227D01*
X221749996Y-93510496D01*
X221751200Y-93535000D01*
X221751200Y-98235000D01*
X221749996Y-98259504D01*
X221746396Y-98283773D01*
X221740435Y-98307571D01*
X221732170Y-98330671D01*
X221721680Y-98352849D01*
X221709067Y-98373893D01*
X221694453Y-98393598D01*
X221677977Y-98411777D01*
X221659798Y-98428253D01*
X221640093Y-98442867D01*
X221619049Y-98455480D01*
X221596871Y-98465970D01*
X221573771Y-98474235D01*
X221549973Y-98480196D01*
X221525704Y-98483796D01*
X221501200Y-98485000D01*
X216801200Y-98485000D01*
X216776696Y-98483796D01*
X216752427Y-98480196D01*
X216728629Y-98474235D01*
X216705529Y-98465970D01*
X216683351Y-98455480D01*
X216662307Y-98442867D01*
X216642602Y-98428253D01*
X216624423Y-98411777D01*
X216607947Y-98393598D01*
X216593333Y-98373893D01*
X216580720Y-98352849D01*
X216570230Y-98330671D01*
X216561965Y-98307571D01*
X216556004Y-98283773D01*
X216552404Y-98259504D01*
X216551200Y-98235000D01*
X216551200Y-93535000D01*
X216552404Y-93510496D01*
X216556004Y-93486227D01*
X216561965Y-93462429D01*
X216570230Y-93439329D01*
X216580720Y-93417151D01*
X216593333Y-93396107D01*
X216607947Y-93376402D01*
X216624423Y-93358223D01*
X216642602Y-93341747D01*
X216662307Y-93327133D01*
X216683351Y-93314520D01*
X216705529Y-93304030D01*
X216728629Y-93295765D01*
X216752427Y-93289804D01*
X216776696Y-93286204D01*
X216801200Y-93285000D01*
X221501200Y-93285000D01*
X221525704Y-93286204D01*
G37*
G04 #@! TD.AperFunction*
D11*
X214401400Y-99263200D03*
X225983800Y-95326200D03*
D12*
X216651200Y-99222500D02*
X214772300Y-99222500D01*
X214772300Y-99222500D02*
X214731600Y-99263200D01*
X214731600Y-99263200D02*
X214401400Y-99263200D01*
X224542600Y-93885000D02*
X222488700Y-93885000D01*
X225983800Y-95326200D02*
X224542600Y-93885000D01*
X221626190Y-93410010D02*
X219151200Y-95885000D01*
X221926190Y-93410010D02*
X221626190Y-93410010D01*
X221951200Y-93385000D02*
X221926190Y-93410010D01*
X222488700Y-93385000D02*
X221951200Y-93385000D01*
X218151200Y-94885000D02*
X219151200Y-95885000D01*
X218151200Y-92547500D02*
X218151200Y-94885000D01*
X221151200Y-97885000D02*
X219151200Y-95885000D01*
X221151200Y-99222500D02*
X221151200Y-97885000D01*
X217151200Y-97885000D02*
X219151200Y-95885000D01*
X217151200Y-99222500D02*
X217151200Y-97885000D01*
X217651200Y-91961978D02*
X216595822Y-90906600D01*
X217651200Y-92547500D02*
X217651200Y-91961978D01*
X216595822Y-90906600D02*
X213360000Y-90906600D01*
X213360000Y-90906600D02*
X212928200Y-91338400D01*
X212928200Y-91338400D02*
X212928200Y-99669600D01*
X212928200Y-99669600D02*
X214223600Y-100965000D01*
X221651200Y-99760000D02*
X221651200Y-99222500D01*
X221651200Y-99808022D02*
X221651200Y-99760000D01*
X220494222Y-100965000D02*
X221651200Y-99808022D01*
X214223600Y-100965000D02*
X220494222Y-100965000D01*
X220631658Y-88342223D02*
X220631658Y-90340542D01*
X219151200Y-91821000D02*
X219151200Y-92547500D01*
X220631658Y-90340542D02*
X219151200Y-91821000D01*
X217378967Y-89190752D02*
X217378967Y-90632967D01*
X217873942Y-88695777D02*
X217378967Y-89190752D01*
X218651200Y-91905200D02*
X218651200Y-92547500D01*
X217378967Y-90632967D02*
X218651200Y-91905200D01*
M02*
