G04 #@! TF.GenerationSoftware,KiCad,Pcbnew,(5.1.5)-3*
G04 #@! TF.CreationDate,2020-09-25T08:39:15-07:00*
G04 #@! TF.ProjectId,H_c v_ m_ch c_ng anh S_n,48cd6320-76bd-4206-9da1-63682063f96e,rev?*
G04 #@! TF.SameCoordinates,Original*
G04 #@! TF.FileFunction,Soldermask,Bot*
G04 #@! TF.FilePolarity,Negative*
%FSLAX46Y46*%
G04 Gerber Fmt 4.6, Leading zero omitted, Abs format (unit mm)*
G04 Created by KiCad (PCBNEW (5.1.5)-3) date 2020-09-25 08:39:15*
%MOMM*%
%LPD*%
G04 APERTURE LIST*
%ADD10C,0.100000*%
G04 APERTURE END LIST*
D10*
G36*
X216806555Y-91960083D02*
G01*
X216811229Y-91961501D01*
X216815530Y-91963800D01*
X216821902Y-91969029D01*
X216842276Y-91982643D01*
X216864915Y-91992020D01*
X216888949Y-91996800D01*
X216913453Y-91996800D01*
X216937486Y-91992019D01*
X216960125Y-91982642D01*
X216980498Y-91969029D01*
X216986870Y-91963800D01*
X216991171Y-91961501D01*
X216995845Y-91960083D01*
X217006841Y-91959000D01*
X217295559Y-91959000D01*
X217306555Y-91960083D01*
X217311229Y-91961501D01*
X217315530Y-91963800D01*
X217321902Y-91969029D01*
X217342276Y-91982643D01*
X217364915Y-91992020D01*
X217388949Y-91996800D01*
X217413453Y-91996800D01*
X217437486Y-91992019D01*
X217460125Y-91982642D01*
X217480498Y-91969029D01*
X217486870Y-91963800D01*
X217491171Y-91961501D01*
X217495845Y-91960083D01*
X217506841Y-91959000D01*
X217795559Y-91959000D01*
X217806555Y-91960083D01*
X217811229Y-91961501D01*
X217815530Y-91963800D01*
X217821902Y-91969029D01*
X217842276Y-91982643D01*
X217864915Y-91992020D01*
X217888949Y-91996800D01*
X217913453Y-91996800D01*
X217937486Y-91992019D01*
X217960125Y-91982642D01*
X217980498Y-91969029D01*
X217986870Y-91963800D01*
X217991171Y-91961501D01*
X217995845Y-91960083D01*
X218006841Y-91959000D01*
X218295559Y-91959000D01*
X218306555Y-91960083D01*
X218311229Y-91961501D01*
X218315530Y-91963800D01*
X218321902Y-91969029D01*
X218342276Y-91982643D01*
X218364915Y-91992020D01*
X218388949Y-91996800D01*
X218413453Y-91996800D01*
X218437486Y-91992019D01*
X218460125Y-91982642D01*
X218480498Y-91969029D01*
X218486870Y-91963800D01*
X218491171Y-91961501D01*
X218495845Y-91960083D01*
X218506841Y-91959000D01*
X218795559Y-91959000D01*
X218806555Y-91960083D01*
X218811229Y-91961501D01*
X218815530Y-91963800D01*
X218821902Y-91969029D01*
X218842276Y-91982643D01*
X218864915Y-91992020D01*
X218888949Y-91996800D01*
X218913453Y-91996800D01*
X218937486Y-91992019D01*
X218960125Y-91982642D01*
X218980498Y-91969029D01*
X218986870Y-91963800D01*
X218991171Y-91961501D01*
X218995845Y-91960083D01*
X219006841Y-91959000D01*
X219295559Y-91959000D01*
X219306555Y-91960083D01*
X219311229Y-91961501D01*
X219315530Y-91963800D01*
X219321902Y-91969029D01*
X219342276Y-91982643D01*
X219364915Y-91992020D01*
X219388949Y-91996800D01*
X219413453Y-91996800D01*
X219437486Y-91992019D01*
X219460125Y-91982642D01*
X219480498Y-91969029D01*
X219486870Y-91963800D01*
X219491171Y-91961501D01*
X219495845Y-91960083D01*
X219506841Y-91959000D01*
X219795559Y-91959000D01*
X219806555Y-91960083D01*
X219811229Y-91961501D01*
X219815530Y-91963800D01*
X219821902Y-91969029D01*
X219842276Y-91982643D01*
X219864915Y-91992020D01*
X219888949Y-91996800D01*
X219913453Y-91996800D01*
X219937486Y-91992019D01*
X219960125Y-91982642D01*
X219980498Y-91969029D01*
X219986870Y-91963800D01*
X219991171Y-91961501D01*
X219995845Y-91960083D01*
X220006841Y-91959000D01*
X220295559Y-91959000D01*
X220306555Y-91960083D01*
X220311229Y-91961501D01*
X220315530Y-91963800D01*
X220321902Y-91969029D01*
X220342276Y-91982643D01*
X220364915Y-91992020D01*
X220388949Y-91996800D01*
X220413453Y-91996800D01*
X220437486Y-91992019D01*
X220460125Y-91982642D01*
X220480498Y-91969029D01*
X220486870Y-91963800D01*
X220491171Y-91961501D01*
X220495845Y-91960083D01*
X220506841Y-91959000D01*
X220795559Y-91959000D01*
X220806555Y-91960083D01*
X220811229Y-91961501D01*
X220815530Y-91963800D01*
X220821902Y-91969029D01*
X220842276Y-91982643D01*
X220864915Y-91992020D01*
X220888949Y-91996800D01*
X220913453Y-91996800D01*
X220937486Y-91992019D01*
X220960125Y-91982642D01*
X220980498Y-91969029D01*
X220986870Y-91963800D01*
X220991171Y-91961501D01*
X220995845Y-91960083D01*
X221006841Y-91959000D01*
X221295559Y-91959000D01*
X221306555Y-91960083D01*
X221311229Y-91961501D01*
X221315530Y-91963800D01*
X221321902Y-91969029D01*
X221342276Y-91982643D01*
X221364915Y-91992020D01*
X221388949Y-91996800D01*
X221413453Y-91996800D01*
X221437486Y-91992019D01*
X221460125Y-91982642D01*
X221480498Y-91969029D01*
X221486870Y-91963800D01*
X221491171Y-91961501D01*
X221495845Y-91960083D01*
X221506841Y-91959000D01*
X221795559Y-91959000D01*
X221806555Y-91960083D01*
X221811229Y-91961501D01*
X221815531Y-91963800D01*
X221819304Y-91966896D01*
X221822400Y-91970669D01*
X221824699Y-91974971D01*
X221826117Y-91979645D01*
X221827200Y-91990641D01*
X221827200Y-93084001D01*
X221829602Y-93108387D01*
X221836715Y-93131836D01*
X221848266Y-93153447D01*
X221863811Y-93172389D01*
X221882753Y-93187934D01*
X221904364Y-93199485D01*
X221927813Y-93206598D01*
X221952199Y-93209000D01*
X223045559Y-93209000D01*
X223056555Y-93210083D01*
X223061229Y-93211501D01*
X223065531Y-93213800D01*
X223069304Y-93216896D01*
X223072400Y-93220669D01*
X223074699Y-93224971D01*
X223076117Y-93229645D01*
X223077200Y-93240641D01*
X223077200Y-93529359D01*
X223076117Y-93540355D01*
X223074699Y-93545029D01*
X223072400Y-93549330D01*
X223067171Y-93555702D01*
X223053557Y-93576076D01*
X223044180Y-93598715D01*
X223039400Y-93622749D01*
X223039400Y-93647253D01*
X223044181Y-93671286D01*
X223053558Y-93693925D01*
X223067171Y-93714298D01*
X223072400Y-93720670D01*
X223074699Y-93724971D01*
X223076117Y-93729645D01*
X223077200Y-93740641D01*
X223077200Y-94029359D01*
X223076117Y-94040355D01*
X223074699Y-94045029D01*
X223072400Y-94049330D01*
X223067171Y-94055702D01*
X223053557Y-94076076D01*
X223044180Y-94098715D01*
X223039400Y-94122749D01*
X223039400Y-94147253D01*
X223044181Y-94171286D01*
X223053558Y-94193925D01*
X223067171Y-94214298D01*
X223072400Y-94220670D01*
X223074699Y-94224971D01*
X223076117Y-94229645D01*
X223077200Y-94240641D01*
X223077200Y-94529359D01*
X223076117Y-94540355D01*
X223074699Y-94545029D01*
X223072400Y-94549330D01*
X223067171Y-94555702D01*
X223053557Y-94576076D01*
X223044180Y-94598715D01*
X223039400Y-94622749D01*
X223039400Y-94647253D01*
X223044181Y-94671286D01*
X223053558Y-94693925D01*
X223067171Y-94714298D01*
X223072400Y-94720670D01*
X223074699Y-94724971D01*
X223076117Y-94729645D01*
X223077200Y-94740641D01*
X223077200Y-95029359D01*
X223076117Y-95040355D01*
X223074699Y-95045029D01*
X223072400Y-95049330D01*
X223067171Y-95055702D01*
X223053557Y-95076076D01*
X223044180Y-95098715D01*
X223039400Y-95122749D01*
X223039400Y-95147253D01*
X223044181Y-95171286D01*
X223053558Y-95193925D01*
X223067171Y-95214298D01*
X223072400Y-95220670D01*
X223074699Y-95224971D01*
X223076117Y-95229645D01*
X223077200Y-95240641D01*
X223077200Y-95529359D01*
X223076117Y-95540355D01*
X223074699Y-95545029D01*
X223072400Y-95549330D01*
X223067171Y-95555702D01*
X223053557Y-95576076D01*
X223044180Y-95598715D01*
X223039400Y-95622749D01*
X223039400Y-95647253D01*
X223044181Y-95671286D01*
X223053558Y-95693925D01*
X223067171Y-95714298D01*
X223072400Y-95720670D01*
X223074699Y-95724971D01*
X223076117Y-95729645D01*
X223077200Y-95740641D01*
X223077200Y-96029359D01*
X223076117Y-96040355D01*
X223074699Y-96045029D01*
X223072400Y-96049330D01*
X223067171Y-96055702D01*
X223053557Y-96076076D01*
X223044180Y-96098715D01*
X223039400Y-96122749D01*
X223039400Y-96147253D01*
X223044181Y-96171286D01*
X223053558Y-96193925D01*
X223067171Y-96214298D01*
X223072400Y-96220670D01*
X223074699Y-96224971D01*
X223076117Y-96229645D01*
X223077200Y-96240641D01*
X223077200Y-96529359D01*
X223076117Y-96540355D01*
X223074699Y-96545029D01*
X223072400Y-96549330D01*
X223067171Y-96555702D01*
X223053557Y-96576076D01*
X223044180Y-96598715D01*
X223039400Y-96622749D01*
X223039400Y-96647253D01*
X223044181Y-96671286D01*
X223053558Y-96693925D01*
X223067171Y-96714298D01*
X223072400Y-96720670D01*
X223074699Y-96724971D01*
X223076117Y-96729645D01*
X223077200Y-96740641D01*
X223077200Y-97029359D01*
X223076117Y-97040355D01*
X223074699Y-97045029D01*
X223072400Y-97049330D01*
X223067171Y-97055702D01*
X223053557Y-97076076D01*
X223044180Y-97098715D01*
X223039400Y-97122749D01*
X223039400Y-97147253D01*
X223044181Y-97171286D01*
X223053558Y-97193925D01*
X223067171Y-97214298D01*
X223072400Y-97220670D01*
X223074699Y-97224971D01*
X223076117Y-97229645D01*
X223077200Y-97240641D01*
X223077200Y-97529359D01*
X223076117Y-97540355D01*
X223074699Y-97545029D01*
X223072400Y-97549330D01*
X223067171Y-97555702D01*
X223053557Y-97576076D01*
X223044180Y-97598715D01*
X223039400Y-97622749D01*
X223039400Y-97647253D01*
X223044181Y-97671286D01*
X223053558Y-97693925D01*
X223067171Y-97714298D01*
X223072400Y-97720670D01*
X223074699Y-97724971D01*
X223076117Y-97729645D01*
X223077200Y-97740641D01*
X223077200Y-98029359D01*
X223076117Y-98040355D01*
X223074699Y-98045029D01*
X223072400Y-98049330D01*
X223067171Y-98055702D01*
X223053557Y-98076076D01*
X223044180Y-98098715D01*
X223039400Y-98122749D01*
X223039400Y-98147253D01*
X223044181Y-98171286D01*
X223053558Y-98193925D01*
X223067171Y-98214298D01*
X223072400Y-98220670D01*
X223074699Y-98224971D01*
X223076117Y-98229645D01*
X223077200Y-98240641D01*
X223077200Y-98529359D01*
X223076117Y-98540355D01*
X223074699Y-98545029D01*
X223072400Y-98549331D01*
X223069304Y-98553104D01*
X223065531Y-98556200D01*
X223061229Y-98558499D01*
X223056555Y-98559917D01*
X223045559Y-98561000D01*
X221952199Y-98561000D01*
X221927813Y-98563402D01*
X221904364Y-98570515D01*
X221882753Y-98582066D01*
X221863811Y-98597611D01*
X221848266Y-98616553D01*
X221836715Y-98638164D01*
X221829602Y-98661613D01*
X221827200Y-98685999D01*
X221827200Y-99779359D01*
X221826117Y-99790355D01*
X221824699Y-99795029D01*
X221822400Y-99799331D01*
X221819304Y-99803104D01*
X221815531Y-99806200D01*
X221811229Y-99808499D01*
X221806555Y-99809917D01*
X221795559Y-99811000D01*
X221506841Y-99811000D01*
X221495845Y-99809917D01*
X221491171Y-99808499D01*
X221486870Y-99806200D01*
X221480498Y-99800971D01*
X221460124Y-99787357D01*
X221437485Y-99777980D01*
X221413451Y-99773200D01*
X221388947Y-99773200D01*
X221364914Y-99777981D01*
X221342275Y-99787358D01*
X221321902Y-99800971D01*
X221315530Y-99806200D01*
X221311229Y-99808499D01*
X221306555Y-99809917D01*
X221295559Y-99811000D01*
X221006841Y-99811000D01*
X220995845Y-99809917D01*
X220991171Y-99808499D01*
X220986870Y-99806200D01*
X220980498Y-99800971D01*
X220960124Y-99787357D01*
X220937485Y-99777980D01*
X220913451Y-99773200D01*
X220888947Y-99773200D01*
X220864914Y-99777981D01*
X220842275Y-99787358D01*
X220821902Y-99800971D01*
X220815530Y-99806200D01*
X220811229Y-99808499D01*
X220806555Y-99809917D01*
X220795559Y-99811000D01*
X220506841Y-99811000D01*
X220495845Y-99809917D01*
X220491171Y-99808499D01*
X220486870Y-99806200D01*
X220480498Y-99800971D01*
X220460124Y-99787357D01*
X220437485Y-99777980D01*
X220413451Y-99773200D01*
X220388947Y-99773200D01*
X220364914Y-99777981D01*
X220342275Y-99787358D01*
X220321902Y-99800971D01*
X220315530Y-99806200D01*
X220311229Y-99808499D01*
X220306555Y-99809917D01*
X220295559Y-99811000D01*
X220006841Y-99811000D01*
X219995845Y-99809917D01*
X219991171Y-99808499D01*
X219986870Y-99806200D01*
X219980498Y-99800971D01*
X219960124Y-99787357D01*
X219937485Y-99777980D01*
X219913451Y-99773200D01*
X219888947Y-99773200D01*
X219864914Y-99777981D01*
X219842275Y-99787358D01*
X219821902Y-99800971D01*
X219815530Y-99806200D01*
X219811229Y-99808499D01*
X219806555Y-99809917D01*
X219795559Y-99811000D01*
X219506841Y-99811000D01*
X219495845Y-99809917D01*
X219491171Y-99808499D01*
X219486870Y-99806200D01*
X219480498Y-99800971D01*
X219460124Y-99787357D01*
X219437485Y-99777980D01*
X219413451Y-99773200D01*
X219388947Y-99773200D01*
X219364914Y-99777981D01*
X219342275Y-99787358D01*
X219321902Y-99800971D01*
X219315530Y-99806200D01*
X219311229Y-99808499D01*
X219306555Y-99809917D01*
X219295559Y-99811000D01*
X219006841Y-99811000D01*
X218995845Y-99809917D01*
X218991171Y-99808499D01*
X218986870Y-99806200D01*
X218980498Y-99800971D01*
X218960124Y-99787357D01*
X218937485Y-99777980D01*
X218913451Y-99773200D01*
X218888947Y-99773200D01*
X218864914Y-99777981D01*
X218842275Y-99787358D01*
X218821902Y-99800971D01*
X218815530Y-99806200D01*
X218811229Y-99808499D01*
X218806555Y-99809917D01*
X218795559Y-99811000D01*
X218506841Y-99811000D01*
X218495845Y-99809917D01*
X218491171Y-99808499D01*
X218486870Y-99806200D01*
X218480498Y-99800971D01*
X218460124Y-99787357D01*
X218437485Y-99777980D01*
X218413451Y-99773200D01*
X218388947Y-99773200D01*
X218364914Y-99777981D01*
X218342275Y-99787358D01*
X218321902Y-99800971D01*
X218315530Y-99806200D01*
X218311229Y-99808499D01*
X218306555Y-99809917D01*
X218295559Y-99811000D01*
X218006841Y-99811000D01*
X217995845Y-99809917D01*
X217991171Y-99808499D01*
X217986870Y-99806200D01*
X217980498Y-99800971D01*
X217960124Y-99787357D01*
X217937485Y-99777980D01*
X217913451Y-99773200D01*
X217888947Y-99773200D01*
X217864914Y-99777981D01*
X217842275Y-99787358D01*
X217821902Y-99800971D01*
X217815530Y-99806200D01*
X217811229Y-99808499D01*
X217806555Y-99809917D01*
X217795559Y-99811000D01*
X217506841Y-99811000D01*
X217495845Y-99809917D01*
X217491171Y-99808499D01*
X217486870Y-99806200D01*
X217480498Y-99800971D01*
X217460124Y-99787357D01*
X217437485Y-99777980D01*
X217413451Y-99773200D01*
X217388947Y-99773200D01*
X217364914Y-99777981D01*
X217342275Y-99787358D01*
X217321902Y-99800971D01*
X217315530Y-99806200D01*
X217311229Y-99808499D01*
X217306555Y-99809917D01*
X217295559Y-99811000D01*
X217006841Y-99811000D01*
X216995845Y-99809917D01*
X216991171Y-99808499D01*
X216986870Y-99806200D01*
X216980498Y-99800971D01*
X216960124Y-99787357D01*
X216937485Y-99777980D01*
X216913451Y-99773200D01*
X216888947Y-99773200D01*
X216864914Y-99777981D01*
X216842275Y-99787358D01*
X216821902Y-99800971D01*
X216815530Y-99806200D01*
X216811229Y-99808499D01*
X216806555Y-99809917D01*
X216795559Y-99811000D01*
X216506841Y-99811000D01*
X216495845Y-99809917D01*
X216491171Y-99808499D01*
X216486869Y-99806200D01*
X216483096Y-99803104D01*
X216480000Y-99799331D01*
X216477701Y-99795029D01*
X216476283Y-99790355D01*
X216475200Y-99779359D01*
X216475200Y-98685999D01*
X216472798Y-98661613D01*
X216465685Y-98638164D01*
X216454134Y-98616553D01*
X216438589Y-98597611D01*
X216419647Y-98582066D01*
X216398036Y-98570515D01*
X216374587Y-98563402D01*
X216350201Y-98561000D01*
X215256841Y-98561000D01*
X215245845Y-98559917D01*
X215241171Y-98558499D01*
X215236869Y-98556200D01*
X215233096Y-98553104D01*
X215230000Y-98549331D01*
X215227701Y-98545029D01*
X215226283Y-98540355D01*
X215225200Y-98529359D01*
X215225200Y-98240641D01*
X215226283Y-98229645D01*
X215227701Y-98224971D01*
X215230000Y-98220670D01*
X215235229Y-98214298D01*
X215248843Y-98193924D01*
X215258220Y-98171285D01*
X215263000Y-98147251D01*
X215263000Y-98122747D01*
X215258219Y-98098714D01*
X215248842Y-98076075D01*
X215235229Y-98055702D01*
X215230000Y-98049330D01*
X215227701Y-98045029D01*
X215226283Y-98040355D01*
X215225200Y-98029359D01*
X215225200Y-97740641D01*
X215226283Y-97729645D01*
X215227701Y-97724971D01*
X215230000Y-97720670D01*
X215235229Y-97714298D01*
X215248843Y-97693924D01*
X215258220Y-97671285D01*
X215263000Y-97647251D01*
X215263000Y-97622747D01*
X215258219Y-97598714D01*
X215248842Y-97576075D01*
X215235229Y-97555702D01*
X215230000Y-97549330D01*
X215227701Y-97545029D01*
X215226283Y-97540355D01*
X215225200Y-97529359D01*
X215225200Y-97240641D01*
X215226283Y-97229645D01*
X215227701Y-97224971D01*
X215230000Y-97220670D01*
X215235229Y-97214298D01*
X215248843Y-97193924D01*
X215258220Y-97171285D01*
X215263000Y-97147251D01*
X215263000Y-97122747D01*
X215258219Y-97098714D01*
X215248842Y-97076075D01*
X215235229Y-97055702D01*
X215230000Y-97049330D01*
X215227701Y-97045029D01*
X215226283Y-97040355D01*
X215225200Y-97029359D01*
X215225200Y-96740641D01*
X215226283Y-96729645D01*
X215227701Y-96724971D01*
X215230000Y-96720670D01*
X215235229Y-96714298D01*
X215248843Y-96693924D01*
X215258220Y-96671285D01*
X215263000Y-96647251D01*
X215263000Y-96622747D01*
X215258219Y-96598714D01*
X215248842Y-96576075D01*
X215235229Y-96555702D01*
X215230000Y-96549330D01*
X215227701Y-96545029D01*
X215226283Y-96540355D01*
X215225200Y-96529359D01*
X215225200Y-96240641D01*
X215226283Y-96229645D01*
X215227701Y-96224971D01*
X215230000Y-96220670D01*
X215235229Y-96214298D01*
X215248843Y-96193924D01*
X215258220Y-96171285D01*
X215263000Y-96147251D01*
X215263000Y-96122747D01*
X215258219Y-96098714D01*
X215248842Y-96076075D01*
X215235229Y-96055702D01*
X215230000Y-96049330D01*
X215227701Y-96045029D01*
X215226283Y-96040355D01*
X215225200Y-96029359D01*
X215225200Y-95740641D01*
X215226283Y-95729645D01*
X215227701Y-95724971D01*
X215230000Y-95720670D01*
X215235229Y-95714298D01*
X215248843Y-95693924D01*
X215258220Y-95671285D01*
X215263000Y-95647251D01*
X215263000Y-95622747D01*
X215258219Y-95598714D01*
X215248842Y-95576075D01*
X215235229Y-95555702D01*
X215230000Y-95549330D01*
X215227701Y-95545029D01*
X215226283Y-95540355D01*
X215225200Y-95529359D01*
X215225200Y-95240641D01*
X215226283Y-95229645D01*
X215227701Y-95224971D01*
X215230000Y-95220670D01*
X215235229Y-95214298D01*
X215248843Y-95193924D01*
X215258220Y-95171285D01*
X215263000Y-95147251D01*
X215263000Y-95122747D01*
X215258219Y-95098714D01*
X215248842Y-95076075D01*
X215235229Y-95055702D01*
X215230000Y-95049330D01*
X215227701Y-95045029D01*
X215226283Y-95040355D01*
X215225200Y-95029359D01*
X215225200Y-94740641D01*
X215226283Y-94729645D01*
X215227701Y-94724971D01*
X215230000Y-94720670D01*
X215235229Y-94714298D01*
X215248843Y-94693924D01*
X215258220Y-94671285D01*
X215263000Y-94647251D01*
X215263000Y-94622747D01*
X215258219Y-94598714D01*
X215248842Y-94576075D01*
X215235229Y-94555702D01*
X215230000Y-94549330D01*
X215227701Y-94545029D01*
X215226283Y-94540355D01*
X215225200Y-94529359D01*
X215225200Y-94240641D01*
X215226283Y-94229645D01*
X215227701Y-94224971D01*
X215230000Y-94220670D01*
X215235229Y-94214298D01*
X215248843Y-94193924D01*
X215258220Y-94171285D01*
X215263000Y-94147251D01*
X215263000Y-94122747D01*
X215258219Y-94098714D01*
X215248842Y-94076075D01*
X215235229Y-94055702D01*
X215230000Y-94049330D01*
X215227701Y-94045029D01*
X215226283Y-94040355D01*
X215225200Y-94029359D01*
X215225200Y-93740641D01*
X215226283Y-93729645D01*
X215227701Y-93724971D01*
X215230000Y-93720670D01*
X215235229Y-93714298D01*
X215248843Y-93693924D01*
X215258220Y-93671285D01*
X215263000Y-93647251D01*
X215263000Y-93622747D01*
X215258219Y-93598714D01*
X215248842Y-93576075D01*
X215235229Y-93555702D01*
X215230000Y-93549330D01*
X215227701Y-93545029D01*
X215226283Y-93540355D01*
X215225200Y-93529359D01*
X215225200Y-93240641D01*
X215226283Y-93229645D01*
X215227701Y-93224971D01*
X215230000Y-93220669D01*
X215233096Y-93216896D01*
X215236869Y-93213800D01*
X215241171Y-93211501D01*
X215245845Y-93210083D01*
X215256841Y-93209000D01*
X216350201Y-93209000D01*
X216374587Y-93206598D01*
X216398036Y-93199485D01*
X216419647Y-93187934D01*
X216438589Y-93172389D01*
X216454134Y-93153447D01*
X216465685Y-93131836D01*
X216472798Y-93108387D01*
X216475200Y-93084001D01*
X216475200Y-91990641D01*
X216476283Y-91979645D01*
X216477701Y-91974971D01*
X216480000Y-91970669D01*
X216483096Y-91966896D01*
X216486869Y-91963800D01*
X216491171Y-91961501D01*
X216495845Y-91960083D01*
X216506841Y-91959000D01*
X216795559Y-91959000D01*
X216806555Y-91960083D01*
G37*
G36*
X220067387Y-89827147D02*
G01*
X219005312Y-90889222D01*
X218084659Y-89968569D01*
X219146734Y-88906494D01*
X220067387Y-89827147D01*
G37*
G36*
X218865306Y-88625066D02*
G01*
X217803231Y-89687141D01*
X216882578Y-88766488D01*
X217944653Y-87704413D01*
X218865306Y-88625066D01*
G37*
G36*
X221623022Y-88271512D02*
G01*
X220560947Y-89333587D01*
X219640294Y-88412934D01*
X220702369Y-87350859D01*
X221623022Y-88271512D01*
G37*
G36*
X220420941Y-87069431D02*
G01*
X219358866Y-88131506D01*
X218438213Y-87210853D01*
X219500288Y-86148778D01*
X220420941Y-87069431D01*
G37*
M02*
