M48
; DRILL file {KiCad (5.1.10)-1} date 02/05/22 22:18:55
; FORMAT={-:-/ absolute / metric / decimal}
; #@! TF.CreationDate,2022-02-05T22:18:55+07:00
; #@! TF.GenerationSoftware,Kicad,Pcbnew,(5.1.10)-1
; #@! TF.FileFunction,NonPlated,1,2,NPTH
FMAT,2
METRIC
T1C0.650
T2C0.991
T3C1.750
T4C3.000
T5C3.048
T6C3.988
%
G90
G05
T1
X15.564Y-43.542
X21.344Y-43.542
T2
X18.034Y-74.32
X23.114Y-73.304
X23.114Y-75.336
T3
X4.286Y-47.942
X6.668Y-124.143
X9.049Y-124.143
X9.049Y-66.992
X11.43Y-86.042
X14.446Y-47.942
X16.193Y-105.093
X16.828Y-124.143
X19.209Y-124.143
X19.209Y-66.992
X21.59Y-86.042
X23.336Y-47.942
X26.353Y-105.093
X30.48Y-124.143
X32.861Y-124.143
X32.861Y-66.992
X33.496Y-47.942
X37.624Y-86.042
X40.64Y-124.143
X42.386Y-47.942
X43.021Y-124.143
X43.021Y-66.992
X47.149Y-105.093
X47.784Y-86.042
X51.911Y-66.992
X52.546Y-47.942
X54.293Y-124.143
X56.674Y-124.143
X56.674Y-86.042
X57.309Y-105.093
X61.436Y-47.942
X62.071Y-66.992
X64.453Y-124.143
X66.199Y-105.093
X66.834Y-124.143
X66.834Y-86.042
X70.961Y-66.992
X71.596Y-47.942
X75.724Y-86.042
X76.359Y-105.093
X80.486Y-47.942
X81.121Y-66.992
X85.249Y-105.093
X85.884Y-86.042
X87.63Y-124.143
X90.011Y-66.992
X90.646Y-47.942
X94.774Y-86.042
X95.409Y-105.093
X97.79Y-124.143
X99.536Y-47.942
X100.171Y-66.992
X104.299Y-105.093
X104.934Y-86.042
X109.061Y-66.992
X109.696Y-47.942
X113.824Y-86.042
X114.459Y-105.093
X118.586Y-47.942
X119.221Y-66.992
X120.968Y-124.143
X123.349Y-105.093
X123.984Y-86.042
X125.731Y-124.143
X128.111Y-66.992
X128.746Y-47.942
X131.128Y-124.143
X132.874Y-86.042
X133.509Y-105.093
X135.891Y-124.143
X137.636Y-47.942
X137.636Y-124.142
X138.271Y-66.992
X142.399Y-105.093
X143.034Y-86.042
X147.161Y-66.992
X147.796Y-47.942
X147.796Y-124.142
X151.924Y-86.042
X152.559Y-105.093
X156.686Y-47.942
X157.321Y-66.992
X159.068Y-124.143
X161.449Y-105.093
X162.084Y-86.042
X166.211Y-66.992
X166.846Y-47.942
X169.228Y-124.143
X170.974Y-86.042
X171.609Y-105.093
X175.736Y-47.942
X176.371Y-66.992
X180.499Y-105.093
X181.134Y-86.042
X185.261Y-66.992
X185.896Y-47.942
X190.024Y-86.042
X190.659Y-105.093
X194.786Y-47.942
X195.421Y-66.992
X197.168Y-124.143
X199.549Y-105.093
X200.184Y-86.042
X204.311Y-66.992
X204.946Y-47.942
X207.328Y-124.143
X209.074Y-86.042
X209.709Y-105.093
X213.836Y-47.942
X214.471Y-66.992
X218.599Y-124.143
X218.599Y-105.093
X219.234Y-86.042
X220.98Y-124.143
X223.361Y-66.992
X223.996Y-47.942
X228.124Y-86.042
X228.759Y-124.143
X228.759Y-105.093
X231.14Y-124.143
X232.886Y-47.942
X233.521Y-66.992
X238.284Y-86.042
X242.411Y-124.143
X242.411Y-66.992
X243.046Y-47.942
X244.793Y-124.143
X244.793Y-105.093
X251.936Y-47.942
X252.254Y-80.963
X252.254Y-91.123
X252.571Y-124.143
X252.571Y-66.992
X254.318Y-105.093
X254.953Y-124.143
X254.953Y-105.093
X261.461Y-47.942
X262.096Y-47.942
X264.16Y-80.963
X264.16Y-91.123
X264.478Y-105.093
X266.224Y-124.143
X268.605Y-124.143
X270.986Y-47.942
X270.987Y-105.093
X271.304Y-61.912
X271.304Y-72.072
X271.621Y-47.942
X273.685Y-71.438
X273.685Y-81.598
X276.384Y-124.143
X278.765Y-124.143
X281.146Y-47.942
X281.147Y-105.093
T4
X6.826Y-53.023
X7.938Y-121.603
X10.319Y-64.453
X11.589Y-129.223
X12.7Y-83.502
X13.176Y-50.482
X14.288Y-119.063
X16.669Y-61.912
X17.463Y-102.552
X17.939Y-126.683
X19.05Y-80.962
X23.813Y-100.012
X25.876Y-53.023
X31.75Y-121.603
X32.226Y-50.482
X34.131Y-64.453
X35.401Y-129.223
X38.1Y-119.063
X38.894Y-83.502
X40.481Y-61.912
X41.751Y-126.683
X43.656Y-45.402
X45.244Y-80.962
X48.419Y-102.552
X50.006Y-42.862
X53.181Y-64.453
X54.769Y-100.012
X55.563Y-121.603
X57.944Y-83.502
X59.214Y-129.223
X59.531Y-61.912
X61.913Y-119.063
X62.706Y-45.402
X64.294Y-80.962
X65.564Y-126.683
X67.469Y-102.552
X69.056Y-42.862
X72.231Y-64.453
X73.819Y-100.012
X76.994Y-83.502
X78.581Y-61.912
X81.756Y-45.402
X83.344Y-80.962
X86.519Y-102.552
X88.106Y-42.862
X88.9Y-121.603
X91.281Y-64.453
X92.869Y-100.012
X95.25Y-119.063
X96.044Y-83.502
X97.631Y-61.912
X100.806Y-45.402
X102.394Y-80.962
X105.569Y-102.552
X107.156Y-42.862
X110.331Y-64.453
X111.919Y-100.012
X115.094Y-83.502
X116.681Y-61.912
X119.856Y-45.402
X121.444Y-80.962
X122.238Y-121.603
X124.619Y-102.552
X126.206Y-42.862
X128.271Y-129.223
X128.588Y-119.063
X129.381Y-64.453
X130.969Y-100.012
X134.621Y-126.683
X135.414Y-91.123
X135.731Y-61.912
X138.906Y-45.402
X138.906Y-121.602
X141.764Y-88.582
X143.669Y-102.552
X145.256Y-42.862
X145.256Y-119.062
X148.431Y-64.453
X150.019Y-100.012
X153.194Y-83.502
X154.781Y-61.912
X157.956Y-45.402
X159.544Y-80.962
X160.338Y-121.603
X162.719Y-102.552
X164.306Y-42.862
X166.688Y-119.063
X167.481Y-64.453
X169.069Y-100.012
X172.244Y-83.502
X173.831Y-61.912
X177.006Y-45.402
X178.594Y-80.962
X181.769Y-102.552
X183.356Y-42.862
X186.531Y-64.453
X188.119Y-100.012
X191.294Y-83.502
X192.881Y-61.912
X196.056Y-45.402
X197.644Y-80.962
X198.438Y-121.603
X200.819Y-102.552
X202.406Y-42.862
X204.788Y-119.063
X205.581Y-64.453
X207.169Y-100.012
X210.344Y-83.502
X211.931Y-61.912
X215.106Y-45.402
X216.694Y-80.962
X219.869Y-121.603
X219.869Y-102.552
X221.456Y-42.862
X223.52Y-129.223
X224.631Y-64.453
X226.219Y-119.063
X226.219Y-100.012
X229.394Y-83.502
X229.87Y-126.683
X230.981Y-61.912
X234.156Y-45.402
X235.744Y-80.962
X240.506Y-42.862
X243.681Y-121.603
X243.681Y-64.453
X246.063Y-102.552
X247.174Y-83.503
X247.333Y-129.223
X249.714Y-89.853
X250.031Y-119.063
X250.031Y-61.912
X252.413Y-100.012
X253.683Y-126.683
X254.476Y-53.023
X256.858Y-110.173
X259.08Y-83.503
X260.826Y-50.482
X261.62Y-89.853
X262.731Y-45.402
X263.208Y-107.633
X267.494Y-121.603
X268.605Y-73.978
X269.081Y-42.862
X271.145Y-80.328
X271.145Y-129.223
X272.257Y-102.552
X273.526Y-53.023
X273.844Y-119.063
X273.844Y-63.182
X276.384Y-69.532
X277.495Y-126.683
X278.607Y-100.012
X279.876Y-50.482
T5
X9.335Y-98.108
X33.211Y-98.108
X80.772Y-131.128
X80.811Y-131.128
X85.566Y-131.127
X104.648Y-131.128
X152.21Y-131.128
X176.086Y-131.128
X180.811Y-131.128
X199.866Y-131.127
X247.46Y-112.078
X252.222Y-93.028
X254.603Y-40.957
X266.7Y-64.58
X266.7Y-88.456
X271.336Y-112.078
X276.098Y-93.028
X278.479Y-40.957
T6
X9.335Y-113.347
X9.366Y-47.942
X11.748Y-124.143
X14.129Y-124.143
X14.129Y-66.992
X16.51Y-86.042
X21.273Y-105.093
X28.416Y-47.942
X33.211Y-113.347
X35.56Y-124.143
X37.941Y-124.143
X37.941Y-66.992
X42.704Y-86.042
X47.466Y-47.942
X52.229Y-105.093
X56.991Y-66.992
X59.373Y-124.143
X61.754Y-124.143
X61.754Y-86.042
X66.516Y-47.942
X71.279Y-105.093
X76.041Y-66.992
X80.772Y-115.888
X80.804Y-86.042
X80.811Y-115.888
X85.566Y-47.942
X85.566Y-115.887
X90.329Y-105.093
X92.71Y-124.143
X95.091Y-66.992
X99.854Y-86.042
X104.616Y-47.942
X104.648Y-115.888
X109.379Y-105.093
X114.141Y-66.992
X118.904Y-86.042
X123.666Y-47.942
X126.048Y-124.143
X128.429Y-105.093
X130.811Y-124.143
X133.191Y-66.992
X137.954Y-86.042
X142.716Y-47.942
X142.716Y-124.142
X147.479Y-105.093
X152.21Y-115.888
X152.241Y-66.992
X157.004Y-86.042
X161.766Y-47.942
X164.148Y-124.143
X166.529Y-105.093
X171.291Y-66.992
X176.054Y-86.042
X176.086Y-115.888
X180.811Y-115.888
X180.816Y-47.942
X185.579Y-105.093
X190.341Y-66.992
X195.104Y-86.042
X199.866Y-47.942
X199.866Y-115.887
X202.248Y-124.143
X204.629Y-105.093
X209.391Y-66.992
X214.154Y-86.042
X218.916Y-47.942
X223.679Y-124.143
X223.679Y-105.093
X226.06Y-124.143
X228.441Y-66.992
X233.204Y-86.042
X237.966Y-47.942
X247.46Y-96.838
X247.491Y-124.143
X247.491Y-66.992
X249.873Y-124.143
X249.873Y-105.093
X252.222Y-77.788
X252.254Y-86.043
X254.603Y-56.197
X257.016Y-47.942
X259.398Y-105.093
X264.16Y-86.043
X266.541Y-47.942
X271.304Y-124.143
X271.304Y-66.992
X271.336Y-96.838
X273.685Y-76.518
X273.685Y-124.143
X276.066Y-47.942
X276.067Y-105.093
X276.098Y-77.788
X278.479Y-56.197
X281.94Y-64.58
X281.94Y-88.456
T0
M30
