G04 #@! TF.GenerationSoftware,KiCad,Pcbnew,(5.1.10)-1*
G04 #@! TF.CreationDate,2022-02-10T22:40:46+07:00*
G04 #@! TF.ProjectId,Plate,506c6174-652e-46b6-9963-61645f706362,rev?*
G04 #@! TF.SameCoordinates,Original*
G04 #@! TF.FileFunction,Profile,NP*
%FSLAX45Y45*%
G04 Gerber Fmt 4.5, Leading zero omitted, Abs format (unit mm)*
G04 Created by KiCad (PCBNEW (5.1.10)-1) date 2022-02-10 22:40:46*
%MOMM*%
%LPD*%
G01*
G04 APERTURE LIST*
G04 #@! TA.AperFunction,Profile*
%ADD10C,0.200000*%
G04 #@! TD*
G04 APERTURE END LIST*
D10*
X30206118Y-8153473D02*
X30206118Y-14706575D01*
X30006118Y-7953473D02*
G75*
G02*
X30206118Y-8153473I0J-200000D01*
G01*
X23333926Y-7953473D02*
X30006118Y-7953473D01*
X23133926Y-8153473D02*
G75*
G02*
X23333926Y-7953473I200000J0D01*
G01*
X23133926Y-14706575D02*
X23133926Y-8153473D01*
X23333926Y-14906575D02*
G75*
G02*
X23133926Y-14706575I0J200000D01*
G01*
X30006118Y-14906575D02*
X23333926Y-14906574D01*
X30206118Y-14706575D02*
G75*
G02*
X30006118Y-14906575I-200000J0D01*
G01*
X25970000Y-12635000D02*
X25970000Y-14035000D01*
X27370000Y-12635000D02*
X25970000Y-12635000D01*
X27370000Y-14035000D02*
X27370000Y-12635000D01*
X25970000Y-14035000D02*
X27370000Y-14035000D01*
X23548926Y-14606575D02*
G75*
G03*
X23548926Y-14606575I-115000J0D01*
G01*
X27370000Y-12130000D02*
X27370000Y-10730000D01*
X25970000Y-12130000D02*
X27370000Y-12130000D01*
X25970000Y-10730000D02*
X25970000Y-12130000D01*
X27370000Y-10730000D02*
X25970000Y-10730000D01*
X25465000Y-12635000D02*
X24065000Y-12635000D01*
X25465000Y-14035000D02*
X25465000Y-12635000D01*
X24065000Y-14035000D02*
X25465000Y-14035000D01*
X24065000Y-12635000D02*
X24065000Y-14035000D01*
X30021118Y-14606575D02*
G75*
G03*
X30021118Y-14606575I-115000J0D01*
G01*
X30021118Y-8253473D02*
G75*
G03*
X30021118Y-8253473I-115000J0D01*
G01*
X27875000Y-10730000D02*
X27875000Y-12130000D01*
X29275000Y-10730000D02*
X27875000Y-10730000D01*
X29275000Y-12130000D02*
X29275000Y-10730000D01*
X27875000Y-12130000D02*
X29275000Y-12130000D01*
X29275000Y-12635000D02*
X27875000Y-12635000D01*
X29275000Y-14035000D02*
X29275000Y-12635000D01*
X27875000Y-14035000D02*
X29275000Y-14035000D01*
X27875000Y-12635000D02*
X27875000Y-14035000D01*
X23548926Y-8253473D02*
G75*
G03*
X23548926Y-8253473I-115000J0D01*
G01*
X25465000Y-12130000D02*
X25465000Y-10730000D01*
X24065000Y-12130000D02*
X25465000Y-12130000D01*
X24065000Y-10730000D02*
X24065000Y-12130000D01*
X25465000Y-10730000D02*
X24065000Y-10730000D01*
X25465104Y-8825040D02*
X25165104Y-8825040D01*
X25465104Y-10225040D02*
X25465104Y-8825040D01*
X25165104Y-10225040D02*
X25465104Y-10225040D01*
X25165104Y-10425040D02*
X25165104Y-10225040D01*
X24365104Y-10425040D02*
X25165104Y-10425040D01*
X24365104Y-10225040D02*
X24365104Y-10425040D01*
X24065104Y-10225040D02*
X24365104Y-10225040D01*
X24065104Y-8825040D02*
X24065104Y-10225040D01*
X24365104Y-8825040D02*
X24065104Y-8825040D01*
X24365104Y-8675040D02*
X24365104Y-8825040D01*
X25165104Y-8675040D02*
X24365104Y-8675040D01*
X25165104Y-8825040D02*
X25165104Y-8675040D01*
M02*
