G04 #@! TF.GenerationSoftware,KiCad,Pcbnew,(5.1.5)-3*
G04 #@! TF.CreationDate,2021-05-11T09:46:13+07:00*
G04 #@! TF.ProjectId,uso!VNC,75736f21-564e-4432-9e6b-696361645f70,rev?*
G04 #@! TF.SameCoordinates,Original*
G04 #@! TF.FileFunction,Other,Fab,Bot*
%FSLAX46Y46*%
G04 Gerber Fmt 4.6, Leading zero omitted, Abs format (unit mm)*
G04 Created by KiCad (PCBNEW (5.1.5)-3) date 2021-05-11 09:46:13*
%MOMM*%
%LPD*%
G04 APERTURE LIST*
%ADD10C,0.150000*%
%ADD11C,0.100000*%
%ADD12C,0.075000*%
%ADD13C,0.105000*%
G04 APERTURE END LIST*
D10*
X291877000Y-94066000D02*
X291877000Y-102466000D01*
X291877000Y-102466000D02*
X293277000Y-102466000D01*
X293377000Y-102466000D02*
X293377000Y-100866000D01*
X293377000Y-100866000D02*
X295577000Y-100866000D01*
X295577000Y-100866000D02*
X295577000Y-102466000D01*
X295577000Y-102466000D02*
X297077000Y-102466000D01*
X297077000Y-102466000D02*
X297077000Y-94066000D01*
X297077000Y-94066000D02*
X295577000Y-94066000D01*
X295577000Y-94066000D02*
X295577000Y-95666000D01*
X295577000Y-95666000D02*
X293377000Y-95666000D01*
X293377000Y-95666000D02*
X293377000Y-94066000D01*
X293377000Y-94066000D02*
X291877000Y-94066000D01*
X295477000Y-98266000D02*
G75*
G03X295477000Y-98266000I-1000000J0D01*
G01*
X293377000Y-95666000D02*
X291877000Y-97166000D01*
X293377000Y-100866000D02*
X291877000Y-99366000D01*
X295577000Y-100866000D02*
X297077000Y-99366000D01*
X295577000Y-95666000D02*
X297077000Y-97166000D01*
D11*
X241728500Y-120762000D02*
X241728500Y-119522000D01*
X239728500Y-120762000D02*
X241728500Y-120762000D01*
X239728500Y-119522000D02*
X239728500Y-120762000D01*
X241728500Y-119522000D02*
X239728500Y-119522000D01*
X285699000Y-90293000D02*
X284699000Y-91293000D01*
X282499000Y-88793000D02*
X285699000Y-88793000D01*
X282499000Y-91293000D02*
X282499000Y-88793000D01*
X285699000Y-91293000D02*
X282499000Y-91293000D01*
X285699000Y-88793000D02*
X285699000Y-91293000D01*
X280964000Y-101798000D02*
X286964000Y-101798000D01*
X286964000Y-101798000D02*
X286964000Y-94798000D01*
X286964000Y-94798000D02*
X279964000Y-94798000D01*
X279964000Y-94798000D02*
X279964000Y-100798000D01*
X279964000Y-100798000D02*
X280964000Y-101798000D01*
D10*
X265250000Y-93800000D02*
X265250000Y-96700000D01*
X265250000Y-96700000D02*
X268150000Y-96700000D01*
X268150000Y-96700000D02*
X268150000Y-93800000D01*
X268150000Y-93800000D02*
X265250000Y-93800000D01*
X266050000Y-93800000D02*
X266050000Y-96700000D01*
X267350000Y-96700000D02*
X267350000Y-93800000D01*
X267350000Y-95150000D02*
X268150000Y-95150000D01*
X268150000Y-95800000D02*
X267350000Y-95800000D01*
X266050000Y-94700000D02*
X265250000Y-94700000D01*
X265250000Y-95800000D02*
X266050000Y-95800000D01*
D11*
X291100000Y-101458000D02*
X291100000Y-100218000D01*
X289100000Y-101458000D02*
X291100000Y-101458000D01*
X289100000Y-100218000D02*
X289100000Y-101458000D01*
X291100000Y-100218000D02*
X289100000Y-100218000D01*
X279258000Y-91075000D02*
X278018000Y-91075000D01*
X279258000Y-93075000D02*
X279258000Y-91075000D01*
X278018000Y-93075000D02*
X279258000Y-93075000D01*
X278018000Y-91075000D02*
X278018000Y-93075000D01*
X272462500Y-99392500D02*
X270462500Y-99392500D01*
X270462500Y-99392500D02*
X270462500Y-100632500D01*
X270462500Y-100632500D02*
X272462500Y-100632500D01*
X272462500Y-100632500D02*
X272462500Y-99392500D01*
X272462500Y-98251250D02*
X272462500Y-97011250D01*
X270462500Y-98251250D02*
X272462500Y-98251250D01*
X270462500Y-97011250D02*
X270462500Y-98251250D01*
X272462500Y-97011250D02*
X270462500Y-97011250D01*
X272462500Y-95870000D02*
X272462500Y-94630000D01*
X270462500Y-95870000D02*
X272462500Y-95870000D01*
X270462500Y-94630000D02*
X270462500Y-95870000D01*
X272462500Y-94630000D02*
X270462500Y-94630000D01*
X272462500Y-103013750D02*
X272462500Y-101773750D01*
X270462500Y-103013750D02*
X272462500Y-103013750D01*
X270462500Y-101773750D02*
X270462500Y-103013750D01*
X272462500Y-101773750D02*
X270462500Y-101773750D01*
X290168400Y-123494800D02*
X290668400Y-123494800D01*
X290168400Y-123094800D02*
X289568400Y-123494800D01*
X290168400Y-123894800D02*
X290168400Y-123094800D01*
X289568400Y-123494800D02*
X290168400Y-123894800D01*
X289568400Y-123494800D02*
X289568400Y-122944800D01*
X289568400Y-123494800D02*
X289568400Y-124044800D01*
X289168400Y-123494800D02*
X289568400Y-123494800D01*
X288518400Y-122594800D02*
X288518400Y-124394800D01*
X291318400Y-122594800D02*
X288518400Y-122594800D01*
X291318400Y-124394800D02*
X291318400Y-122594800D01*
X288518400Y-124394800D02*
X291318400Y-124394800D01*
X295402000Y-107184000D02*
X295402000Y-107684000D01*
X295802000Y-107184000D02*
X295402000Y-106584000D01*
X295002000Y-107184000D02*
X295802000Y-107184000D01*
X295402000Y-106584000D02*
X295002000Y-107184000D01*
X295402000Y-106584000D02*
X295952000Y-106584000D01*
X295402000Y-106584000D02*
X294852000Y-106584000D01*
X295402000Y-106184000D02*
X295402000Y-106584000D01*
X296302000Y-105534000D02*
X294502000Y-105534000D01*
X296302000Y-108334000D02*
X296302000Y-105534000D01*
X294502000Y-108334000D02*
X296302000Y-108334000D01*
X294502000Y-105534000D02*
X294502000Y-108334000D01*
X273968400Y-123494800D02*
X273468400Y-123494800D01*
X273968400Y-123894800D02*
X274568400Y-123494800D01*
X273968400Y-123094800D02*
X273968400Y-123894800D01*
X274568400Y-123494800D02*
X273968400Y-123094800D01*
X274568400Y-123494800D02*
X274568400Y-124044800D01*
X274568400Y-123494800D02*
X274568400Y-122944800D01*
X274968400Y-123494800D02*
X274568400Y-123494800D01*
X275618400Y-124394800D02*
X275618400Y-122594800D01*
X272818400Y-124394800D02*
X275618400Y-124394800D01*
X272818400Y-122594800D02*
X272818400Y-124394800D01*
X275618400Y-122594800D02*
X272818400Y-122594800D01*
X276352000Y-107184000D02*
X276352000Y-107684000D01*
X276752000Y-107184000D02*
X276352000Y-106584000D01*
X275952000Y-107184000D02*
X276752000Y-107184000D01*
X276352000Y-106584000D02*
X275952000Y-107184000D01*
X276352000Y-106584000D02*
X276902000Y-106584000D01*
X276352000Y-106584000D02*
X275802000Y-106584000D01*
X276352000Y-106184000D02*
X276352000Y-106584000D01*
X277252000Y-105534000D02*
X275452000Y-105534000D01*
X277252000Y-108334000D02*
X277252000Y-105534000D01*
X275452000Y-108334000D02*
X277252000Y-108334000D01*
X275452000Y-105534000D02*
X275452000Y-108334000D01*
X254918400Y-123494800D02*
X254418400Y-123494800D01*
X254918400Y-123894800D02*
X255518400Y-123494800D01*
X254918400Y-123094800D02*
X254918400Y-123894800D01*
X255518400Y-123494800D02*
X254918400Y-123094800D01*
X255518400Y-123494800D02*
X255518400Y-124044800D01*
X255518400Y-123494800D02*
X255518400Y-122944800D01*
X255918400Y-123494800D02*
X255518400Y-123494800D01*
X256568400Y-124394800D02*
X256568400Y-122594800D01*
X253768400Y-124394800D02*
X256568400Y-124394800D01*
X253768400Y-122594800D02*
X253768400Y-124394800D01*
X256568400Y-122594800D02*
X253768400Y-122594800D01*
X257302000Y-107184000D02*
X257302000Y-107684000D01*
X257702000Y-107184000D02*
X257302000Y-106584000D01*
X256902000Y-107184000D02*
X257702000Y-107184000D01*
X257302000Y-106584000D02*
X256902000Y-107184000D01*
X257302000Y-106584000D02*
X257852000Y-106584000D01*
X257302000Y-106584000D02*
X256752000Y-106584000D01*
X257302000Y-106184000D02*
X257302000Y-106584000D01*
X258202000Y-105534000D02*
X256402000Y-105534000D01*
X258202000Y-108334000D02*
X258202000Y-105534000D01*
X256402000Y-108334000D02*
X258202000Y-108334000D01*
X256402000Y-105534000D02*
X256402000Y-108334000D01*
X278238000Y-87973000D02*
X278238000Y-89573000D01*
X278238000Y-89573000D02*
X279038000Y-89573000D01*
X279038000Y-89573000D02*
X279038000Y-87973000D01*
X279038000Y-87973000D02*
X278238000Y-87973000D01*
X275755000Y-94850000D02*
X274155000Y-94850000D01*
X274155000Y-94850000D02*
X274155000Y-95650000D01*
X274155000Y-95650000D02*
X275755000Y-95650000D01*
X275755000Y-95650000D02*
X275755000Y-94850000D01*
X291027000Y-102597000D02*
X289427000Y-102597000D01*
X289427000Y-102597000D02*
X289427000Y-103397000D01*
X289427000Y-103397000D02*
X291027000Y-103397000D01*
X291027000Y-103397000D02*
X291027000Y-102597000D01*
X291027000Y-95866000D02*
X289427000Y-95866000D01*
X289427000Y-95866000D02*
X289427000Y-96666000D01*
X289427000Y-96666000D02*
X291027000Y-96666000D01*
X291027000Y-96666000D02*
X291027000Y-95866000D01*
X283299000Y-87776000D02*
X284899000Y-87776000D01*
X284899000Y-87776000D02*
X284899000Y-86976000D01*
X284899000Y-86976000D02*
X283299000Y-86976000D01*
X283299000Y-86976000D02*
X283299000Y-87776000D01*
X287420000Y-90843000D02*
X287420000Y-89243000D01*
X287420000Y-89243000D02*
X286620000Y-89243000D01*
X286620000Y-89243000D02*
X286620000Y-90843000D01*
X286620000Y-90843000D02*
X287420000Y-90843000D01*
X275552000Y-102000000D02*
X277152000Y-102000000D01*
X277152000Y-102000000D02*
X277152000Y-101200000D01*
X277152000Y-101200000D02*
X275552000Y-101200000D01*
X275552000Y-101200000D02*
X275552000Y-102000000D01*
D10*
X290817761Y-95218380D02*
X290865380Y-95361238D01*
X290865380Y-95599333D01*
X290817761Y-95694571D01*
X290770142Y-95742190D01*
X290674904Y-95789809D01*
X290579666Y-95789809D01*
X290484428Y-95742190D01*
X290436809Y-95694571D01*
X290389190Y-95599333D01*
X290341571Y-95408857D01*
X290293952Y-95313619D01*
X290246333Y-95266000D01*
X290151095Y-95218380D01*
X290055857Y-95218380D01*
X289960619Y-95266000D01*
X289913000Y-95313619D01*
X289865380Y-95408857D01*
X289865380Y-95646952D01*
X289913000Y-95789809D01*
X289865380Y-96123142D02*
X290865380Y-96361238D01*
X290151095Y-96551714D01*
X290865380Y-96742190D01*
X289865380Y-96980285D01*
X290960619Y-97123142D02*
X290960619Y-97885047D01*
X290865380Y-98123142D02*
X289865380Y-98123142D01*
X289865380Y-98504095D01*
X289913000Y-98599333D01*
X289960619Y-98646952D01*
X290055857Y-98694571D01*
X290198714Y-98694571D01*
X290293952Y-98646952D01*
X290341571Y-98599333D01*
X290389190Y-98504095D01*
X290389190Y-98123142D01*
X290198714Y-99551714D02*
X290865380Y-99551714D01*
X290198714Y-99123142D02*
X290722523Y-99123142D01*
X290817761Y-99170761D01*
X290865380Y-99266000D01*
X290865380Y-99408857D01*
X290817761Y-99504095D01*
X290770142Y-99551714D01*
X290817761Y-99980285D02*
X290865380Y-100075523D01*
X290865380Y-100266000D01*
X290817761Y-100361238D01*
X290722523Y-100408857D01*
X290674904Y-100408857D01*
X290579666Y-100361238D01*
X290532047Y-100266000D01*
X290532047Y-100123142D01*
X290484428Y-100027904D01*
X290389190Y-99980285D01*
X290341571Y-99980285D01*
X290246333Y-100027904D01*
X290198714Y-100123142D01*
X290198714Y-100266000D01*
X290246333Y-100361238D01*
X290865380Y-100837428D02*
X289865380Y-100837428D01*
X290865380Y-101266000D02*
X290341571Y-101266000D01*
X290246333Y-101218380D01*
X290198714Y-101123142D01*
X290198714Y-100980285D01*
X290246333Y-100885047D01*
X290293952Y-100837428D01*
X240418976Y-122344380D02*
X240752309Y-121868190D01*
X240990404Y-122344380D02*
X240990404Y-121344380D01*
X240609452Y-121344380D01*
X240514214Y-121392000D01*
X240466595Y-121439619D01*
X240418976Y-121534857D01*
X240418976Y-121677714D01*
X240466595Y-121772952D01*
X240514214Y-121820571D01*
X240609452Y-121868190D01*
X240990404Y-121868190D01*
D12*
X240811833Y-120368190D02*
X240978500Y-120130095D01*
X241097547Y-120368190D02*
X241097547Y-119868190D01*
X240907071Y-119868190D01*
X240859452Y-119892000D01*
X240835642Y-119915809D01*
X240811833Y-119963428D01*
X240811833Y-120034857D01*
X240835642Y-120082476D01*
X240859452Y-120106285D01*
X240907071Y-120130095D01*
X241097547Y-120130095D01*
X240645166Y-119868190D02*
X240311833Y-119868190D01*
X240526119Y-120368190D01*
D10*
X284058630Y-89011011D02*
X283915773Y-89058630D01*
X283677678Y-89058630D01*
X283582440Y-89011011D01*
X283534821Y-88963392D01*
X283487202Y-88868154D01*
X283487202Y-88772916D01*
X283534821Y-88677678D01*
X283582440Y-88630059D01*
X283677678Y-88582440D01*
X283868154Y-88534821D01*
X283963392Y-88487202D01*
X284011011Y-88439583D01*
X284058630Y-88344345D01*
X284058630Y-88249107D01*
X284011011Y-88153869D01*
X283963392Y-88106250D01*
X283868154Y-88058630D01*
X283630059Y-88058630D01*
X283487202Y-88106250D01*
X283201488Y-88058630D02*
X282630059Y-88058630D01*
X282915773Y-89058630D02*
X282915773Y-88058630D01*
X281963392Y-88534821D02*
X282296726Y-88534821D01*
X282296726Y-89058630D02*
X282296726Y-88058630D01*
X281820535Y-88058630D01*
X281487202Y-88153869D02*
X281439583Y-88106250D01*
X281344345Y-88058630D01*
X281106250Y-88058630D01*
X281011011Y-88106250D01*
X280963392Y-88153869D01*
X280915773Y-88249107D01*
X280915773Y-88344345D01*
X280963392Y-88487202D01*
X281534821Y-89058630D01*
X280915773Y-89058630D01*
X280296726Y-88058630D02*
X280201488Y-88058630D01*
X280106250Y-88106250D01*
X280058630Y-88153869D01*
X280011011Y-88249107D01*
X279963392Y-88439583D01*
X279963392Y-88677678D01*
X280011011Y-88868154D01*
X280058630Y-88963392D01*
X280106250Y-89011011D01*
X280201488Y-89058630D01*
X280296726Y-89058630D01*
X280391964Y-89011011D01*
X280439583Y-88963392D01*
X280487202Y-88868154D01*
X280534821Y-88677678D01*
X280534821Y-88439583D01*
X280487202Y-88249107D01*
X280439583Y-88153869D01*
X280391964Y-88106250D01*
X280296726Y-88058630D01*
X279582440Y-88153869D02*
X279534821Y-88106250D01*
X279439583Y-88058630D01*
X279201488Y-88058630D01*
X279106250Y-88106250D01*
X279058630Y-88153869D01*
X279011011Y-88249107D01*
X279011011Y-88344345D01*
X279058630Y-88487202D01*
X279630059Y-89058630D01*
X279011011Y-89058630D01*
X278582440Y-88677678D02*
X277820535Y-88677678D01*
X277391964Y-88153869D02*
X277344345Y-88106250D01*
X277249107Y-88058630D01*
X277011011Y-88058630D01*
X276915773Y-88106250D01*
X276868154Y-88153869D01*
X276820535Y-88249107D01*
X276820535Y-88344345D01*
X276868154Y-88487202D01*
X277439583Y-89058630D01*
X276820535Y-89058630D01*
X276439583Y-88153869D02*
X276391964Y-88106250D01*
X276296726Y-88058630D01*
X276058630Y-88058630D01*
X275963392Y-88106250D01*
X275915773Y-88153869D01*
X275868154Y-88249107D01*
X275868154Y-88344345D01*
X275915773Y-88487202D01*
X276487202Y-89058630D01*
X275868154Y-89058630D01*
X275582440Y-88058630D02*
X275011011Y-88058630D01*
X275296726Y-89058630D02*
X275296726Y-88058630D01*
X274153869Y-89058630D02*
X274725297Y-89058630D01*
X274439583Y-89058630D02*
X274439583Y-88058630D01*
X274534821Y-88201488D01*
X274630059Y-88296726D01*
X274725297Y-88344345D01*
X273201488Y-88106250D02*
X273296726Y-88058630D01*
X273439583Y-88058630D01*
X273582440Y-88106250D01*
X273677678Y-88201488D01*
X273725297Y-88296726D01*
X273772916Y-88487202D01*
X273772916Y-88630059D01*
X273725297Y-88820535D01*
X273677678Y-88915773D01*
X273582440Y-89011011D01*
X273439583Y-89058630D01*
X273344345Y-89058630D01*
X273201488Y-89011011D01*
X273153869Y-88963392D01*
X273153869Y-88630059D01*
X273344345Y-88630059D01*
X250959523Y-135102380D02*
X250721428Y-136102380D01*
X250530952Y-135388095D01*
X250340476Y-136102380D01*
X250102380Y-135102380D01*
X249769047Y-136054761D02*
X249626190Y-136102380D01*
X249388095Y-136102380D01*
X249292857Y-136054761D01*
X249245238Y-136007142D01*
X249197619Y-135911904D01*
X249197619Y-135816666D01*
X249245238Y-135721428D01*
X249292857Y-135673809D01*
X249388095Y-135626190D01*
X249578571Y-135578571D01*
X249673809Y-135530952D01*
X249721428Y-135483333D01*
X249769047Y-135388095D01*
X249769047Y-135292857D01*
X249721428Y-135197619D01*
X249673809Y-135150000D01*
X249578571Y-135102380D01*
X249340476Y-135102380D01*
X249197619Y-135150000D01*
X248816666Y-135197619D02*
X248769047Y-135150000D01*
X248673809Y-135102380D01*
X248435714Y-135102380D01*
X248340476Y-135150000D01*
X248292857Y-135197619D01*
X248245238Y-135292857D01*
X248245238Y-135388095D01*
X248292857Y-135530952D01*
X248864285Y-136102380D01*
X248245238Y-136102380D01*
X247673809Y-135530952D02*
X247769047Y-135483333D01*
X247816666Y-135435714D01*
X247864285Y-135340476D01*
X247864285Y-135292857D01*
X247816666Y-135197619D01*
X247769047Y-135150000D01*
X247673809Y-135102380D01*
X247483333Y-135102380D01*
X247388095Y-135150000D01*
X247340476Y-135197619D01*
X247292857Y-135292857D01*
X247292857Y-135340476D01*
X247340476Y-135435714D01*
X247388095Y-135483333D01*
X247483333Y-135530952D01*
X247673809Y-135530952D01*
X247769047Y-135578571D01*
X247816666Y-135626190D01*
X247864285Y-135721428D01*
X247864285Y-135911904D01*
X247816666Y-136007142D01*
X247769047Y-136054761D01*
X247673809Y-136102380D01*
X247483333Y-136102380D01*
X247388095Y-136054761D01*
X247340476Y-136007142D01*
X247292857Y-135911904D01*
X247292857Y-135721428D01*
X247340476Y-135626190D01*
X247388095Y-135578571D01*
X247483333Y-135530952D01*
X246340476Y-136102380D02*
X246911904Y-136102380D01*
X246626190Y-136102380D02*
X246626190Y-135102380D01*
X246721428Y-135245238D01*
X246816666Y-135340476D01*
X246911904Y-135388095D01*
X245959523Y-135197619D02*
X245911904Y-135150000D01*
X245816666Y-135102380D01*
X245578571Y-135102380D01*
X245483333Y-135150000D01*
X245435714Y-135197619D01*
X245388095Y-135292857D01*
X245388095Y-135388095D01*
X245435714Y-135530952D01*
X246007142Y-136102380D01*
X245388095Y-136102380D01*
X244626190Y-135578571D02*
X244483333Y-135626190D01*
X244435714Y-135673809D01*
X244388095Y-135769047D01*
X244388095Y-135911904D01*
X244435714Y-136007142D01*
X244483333Y-136054761D01*
X244578571Y-136102380D01*
X244959523Y-136102380D01*
X244959523Y-135102380D01*
X244626190Y-135102380D01*
X244530952Y-135150000D01*
X244483333Y-135197619D01*
X244435714Y-135292857D01*
X244435714Y-135388095D01*
X244483333Y-135483333D01*
X244530952Y-135530952D01*
X244626190Y-135578571D01*
X244959523Y-135578571D01*
X270009523Y-135102380D02*
X269771428Y-136102380D01*
X269580952Y-135388095D01*
X269390476Y-136102380D01*
X269152380Y-135102380D01*
X268819047Y-136054761D02*
X268676190Y-136102380D01*
X268438095Y-136102380D01*
X268342857Y-136054761D01*
X268295238Y-136007142D01*
X268247619Y-135911904D01*
X268247619Y-135816666D01*
X268295238Y-135721428D01*
X268342857Y-135673809D01*
X268438095Y-135626190D01*
X268628571Y-135578571D01*
X268723809Y-135530952D01*
X268771428Y-135483333D01*
X268819047Y-135388095D01*
X268819047Y-135292857D01*
X268771428Y-135197619D01*
X268723809Y-135150000D01*
X268628571Y-135102380D01*
X268390476Y-135102380D01*
X268247619Y-135150000D01*
X267866666Y-135197619D02*
X267819047Y-135150000D01*
X267723809Y-135102380D01*
X267485714Y-135102380D01*
X267390476Y-135150000D01*
X267342857Y-135197619D01*
X267295238Y-135292857D01*
X267295238Y-135388095D01*
X267342857Y-135530952D01*
X267914285Y-136102380D01*
X267295238Y-136102380D01*
X266723809Y-135530952D02*
X266819047Y-135483333D01*
X266866666Y-135435714D01*
X266914285Y-135340476D01*
X266914285Y-135292857D01*
X266866666Y-135197619D01*
X266819047Y-135150000D01*
X266723809Y-135102380D01*
X266533333Y-135102380D01*
X266438095Y-135150000D01*
X266390476Y-135197619D01*
X266342857Y-135292857D01*
X266342857Y-135340476D01*
X266390476Y-135435714D01*
X266438095Y-135483333D01*
X266533333Y-135530952D01*
X266723809Y-135530952D01*
X266819047Y-135578571D01*
X266866666Y-135626190D01*
X266914285Y-135721428D01*
X266914285Y-135911904D01*
X266866666Y-136007142D01*
X266819047Y-136054761D01*
X266723809Y-136102380D01*
X266533333Y-136102380D01*
X266438095Y-136054761D01*
X266390476Y-136007142D01*
X266342857Y-135911904D01*
X266342857Y-135721428D01*
X266390476Y-135626190D01*
X266438095Y-135578571D01*
X266533333Y-135530952D01*
X265390476Y-136102380D02*
X265961904Y-136102380D01*
X265676190Y-136102380D02*
X265676190Y-135102380D01*
X265771428Y-135245238D01*
X265866666Y-135340476D01*
X265961904Y-135388095D01*
X265009523Y-135197619D02*
X264961904Y-135150000D01*
X264866666Y-135102380D01*
X264628571Y-135102380D01*
X264533333Y-135150000D01*
X264485714Y-135197619D01*
X264438095Y-135292857D01*
X264438095Y-135388095D01*
X264485714Y-135530952D01*
X265057142Y-136102380D01*
X264438095Y-136102380D01*
X263676190Y-135578571D02*
X263533333Y-135626190D01*
X263485714Y-135673809D01*
X263438095Y-135769047D01*
X263438095Y-135911904D01*
X263485714Y-136007142D01*
X263533333Y-136054761D01*
X263628571Y-136102380D01*
X264009523Y-136102380D01*
X264009523Y-135102380D01*
X263676190Y-135102380D01*
X263580952Y-135150000D01*
X263533333Y-135197619D01*
X263485714Y-135292857D01*
X263485714Y-135388095D01*
X263533333Y-135483333D01*
X263580952Y-135530952D01*
X263676190Y-135578571D01*
X264009523Y-135578571D01*
X289059523Y-135102380D02*
X288821428Y-136102380D01*
X288630952Y-135388095D01*
X288440476Y-136102380D01*
X288202380Y-135102380D01*
X287869047Y-136054761D02*
X287726190Y-136102380D01*
X287488095Y-136102380D01*
X287392857Y-136054761D01*
X287345238Y-136007142D01*
X287297619Y-135911904D01*
X287297619Y-135816666D01*
X287345238Y-135721428D01*
X287392857Y-135673809D01*
X287488095Y-135626190D01*
X287678571Y-135578571D01*
X287773809Y-135530952D01*
X287821428Y-135483333D01*
X287869047Y-135388095D01*
X287869047Y-135292857D01*
X287821428Y-135197619D01*
X287773809Y-135150000D01*
X287678571Y-135102380D01*
X287440476Y-135102380D01*
X287297619Y-135150000D01*
X286916666Y-135197619D02*
X286869047Y-135150000D01*
X286773809Y-135102380D01*
X286535714Y-135102380D01*
X286440476Y-135150000D01*
X286392857Y-135197619D01*
X286345238Y-135292857D01*
X286345238Y-135388095D01*
X286392857Y-135530952D01*
X286964285Y-136102380D01*
X286345238Y-136102380D01*
X285773809Y-135530952D02*
X285869047Y-135483333D01*
X285916666Y-135435714D01*
X285964285Y-135340476D01*
X285964285Y-135292857D01*
X285916666Y-135197619D01*
X285869047Y-135150000D01*
X285773809Y-135102380D01*
X285583333Y-135102380D01*
X285488095Y-135150000D01*
X285440476Y-135197619D01*
X285392857Y-135292857D01*
X285392857Y-135340476D01*
X285440476Y-135435714D01*
X285488095Y-135483333D01*
X285583333Y-135530952D01*
X285773809Y-135530952D01*
X285869047Y-135578571D01*
X285916666Y-135626190D01*
X285964285Y-135721428D01*
X285964285Y-135911904D01*
X285916666Y-136007142D01*
X285869047Y-136054761D01*
X285773809Y-136102380D01*
X285583333Y-136102380D01*
X285488095Y-136054761D01*
X285440476Y-136007142D01*
X285392857Y-135911904D01*
X285392857Y-135721428D01*
X285440476Y-135626190D01*
X285488095Y-135578571D01*
X285583333Y-135530952D01*
X284440476Y-136102380D02*
X285011904Y-136102380D01*
X284726190Y-136102380D02*
X284726190Y-135102380D01*
X284821428Y-135245238D01*
X284916666Y-135340476D01*
X285011904Y-135388095D01*
X284059523Y-135197619D02*
X284011904Y-135150000D01*
X283916666Y-135102380D01*
X283678571Y-135102380D01*
X283583333Y-135150000D01*
X283535714Y-135197619D01*
X283488095Y-135292857D01*
X283488095Y-135388095D01*
X283535714Y-135530952D01*
X284107142Y-136102380D01*
X283488095Y-136102380D01*
X282726190Y-135578571D02*
X282583333Y-135626190D01*
X282535714Y-135673809D01*
X282488095Y-135769047D01*
X282488095Y-135911904D01*
X282535714Y-136007142D01*
X282583333Y-136054761D01*
X282678571Y-136102380D01*
X283059523Y-136102380D01*
X283059523Y-135102380D01*
X282726190Y-135102380D01*
X282630952Y-135150000D01*
X282583333Y-135197619D01*
X282535714Y-135292857D01*
X282535714Y-135388095D01*
X282583333Y-135483333D01*
X282630952Y-135530952D01*
X282726190Y-135578571D01*
X283059523Y-135578571D01*
X285718047Y-92945380D02*
X286289476Y-92945380D01*
X286003761Y-92945380D02*
X286003761Y-91945380D01*
X286099000Y-92088238D01*
X286194238Y-92183476D01*
X286289476Y-92231095D01*
X284860904Y-91945380D02*
X285051380Y-91945380D01*
X285146619Y-91993000D01*
X285194238Y-92040619D01*
X285289476Y-92183476D01*
X285337095Y-92373952D01*
X285337095Y-92754904D01*
X285289476Y-92850142D01*
X285241857Y-92897761D01*
X285146619Y-92945380D01*
X284956142Y-92945380D01*
X284860904Y-92897761D01*
X284813285Y-92850142D01*
X284765666Y-92754904D01*
X284765666Y-92516809D01*
X284813285Y-92421571D01*
X284860904Y-92373952D01*
X284956142Y-92326333D01*
X285146619Y-92326333D01*
X285241857Y-92373952D01*
X285289476Y-92421571D01*
X285337095Y-92516809D01*
X284337095Y-92945380D02*
X284337095Y-91945380D01*
X284003761Y-92659666D01*
X283670428Y-91945380D01*
X283670428Y-92945380D01*
X283194238Y-92945380D02*
X283194238Y-91945380D01*
X282765666Y-92945380D02*
X282765666Y-92421571D01*
X282813285Y-92326333D01*
X282908523Y-92278714D01*
X283051380Y-92278714D01*
X283146619Y-92326333D01*
X283194238Y-92373952D01*
X282384714Y-92278714D02*
X281860904Y-92278714D01*
X282384714Y-92945380D01*
X281860904Y-92945380D01*
D13*
X284432333Y-90026333D02*
X284432333Y-90359666D01*
X284665666Y-89659666D02*
X284432333Y-90026333D01*
X284199000Y-89659666D01*
X283599000Y-90359666D02*
X283999000Y-90359666D01*
X283799000Y-90359666D02*
X283799000Y-89659666D01*
X283865666Y-89759666D01*
X283932333Y-89826333D01*
X283999000Y-89859666D01*
D10*
X268438095Y-92046130D02*
X268438095Y-92855654D01*
X268390476Y-92950892D01*
X268342857Y-92998511D01*
X268247619Y-93046130D01*
X268057142Y-93046130D01*
X267961904Y-92998511D01*
X267914285Y-92950892D01*
X267866666Y-92855654D01*
X267866666Y-92046130D01*
X267438095Y-92998511D02*
X267295238Y-93046130D01*
X267057142Y-93046130D01*
X266961904Y-92998511D01*
X266914285Y-92950892D01*
X266866666Y-92855654D01*
X266866666Y-92760416D01*
X266914285Y-92665178D01*
X266961904Y-92617559D01*
X267057142Y-92569940D01*
X267247619Y-92522321D01*
X267342857Y-92474702D01*
X267390476Y-92427083D01*
X267438095Y-92331845D01*
X267438095Y-92236607D01*
X267390476Y-92141369D01*
X267342857Y-92093750D01*
X267247619Y-92046130D01*
X267009523Y-92046130D01*
X266866666Y-92093750D01*
X266104761Y-92522321D02*
X265961904Y-92569940D01*
X265914285Y-92617559D01*
X265866666Y-92712797D01*
X265866666Y-92855654D01*
X265914285Y-92950892D01*
X265961904Y-92998511D01*
X266057142Y-93046130D01*
X266438095Y-93046130D01*
X266438095Y-92046130D01*
X266104761Y-92046130D01*
X266009523Y-92093750D01*
X265961904Y-92141369D01*
X265914285Y-92236607D01*
X265914285Y-92331845D01*
X265961904Y-92427083D01*
X266009523Y-92474702D01*
X266104761Y-92522321D01*
X266438095Y-92522321D01*
X264914285Y-93046130D02*
X265485714Y-93046130D01*
X265200000Y-93046130D02*
X265200000Y-92046130D01*
X265295238Y-92188988D01*
X265390476Y-92284226D01*
X265485714Y-92331845D01*
X289749714Y-93644666D02*
X289273523Y-93644666D01*
X289844952Y-93930380D02*
X289511619Y-92930380D01*
X289178285Y-93930380D01*
X288987809Y-92930380D02*
X288416380Y-92930380D01*
X288702095Y-93930380D02*
X288702095Y-92930380D01*
X288083047Y-93930380D02*
X288083047Y-93263714D01*
X288083047Y-93358952D02*
X288035428Y-93311333D01*
X287940190Y-93263714D01*
X287797333Y-93263714D01*
X287702095Y-93311333D01*
X287654476Y-93406571D01*
X287654476Y-93930380D01*
X287654476Y-93406571D02*
X287606857Y-93311333D01*
X287511619Y-93263714D01*
X287368761Y-93263714D01*
X287273523Y-93311333D01*
X287225904Y-93406571D01*
X287225904Y-93930380D01*
X286368761Y-93882761D02*
X286464000Y-93930380D01*
X286654476Y-93930380D01*
X286749714Y-93882761D01*
X286797333Y-93787523D01*
X286797333Y-93406571D01*
X286749714Y-93311333D01*
X286654476Y-93263714D01*
X286464000Y-93263714D01*
X286368761Y-93311333D01*
X286321142Y-93406571D01*
X286321142Y-93501809D01*
X286797333Y-93597047D01*
X285464000Y-93263714D02*
X285464000Y-94073238D01*
X285511619Y-94168476D01*
X285559238Y-94216095D01*
X285654476Y-94263714D01*
X285797333Y-94263714D01*
X285892571Y-94216095D01*
X285464000Y-93882761D02*
X285559238Y-93930380D01*
X285749714Y-93930380D01*
X285844952Y-93882761D01*
X285892571Y-93835142D01*
X285940190Y-93739904D01*
X285940190Y-93454190D01*
X285892571Y-93358952D01*
X285844952Y-93311333D01*
X285749714Y-93263714D01*
X285559238Y-93263714D01*
X285464000Y-93311333D01*
X284559238Y-93930380D02*
X284559238Y-93406571D01*
X284606857Y-93311333D01*
X284702095Y-93263714D01*
X284892571Y-93263714D01*
X284987809Y-93311333D01*
X284559238Y-93882761D02*
X284654476Y-93930380D01*
X284892571Y-93930380D01*
X284987809Y-93882761D01*
X285035428Y-93787523D01*
X285035428Y-93692285D01*
X284987809Y-93597047D01*
X284892571Y-93549428D01*
X284654476Y-93549428D01*
X284559238Y-93501809D01*
X284178285Y-92930380D02*
X283559238Y-92930380D01*
X283892571Y-93311333D01*
X283749714Y-93311333D01*
X283654476Y-93358952D01*
X283606857Y-93406571D01*
X283559238Y-93501809D01*
X283559238Y-93739904D01*
X283606857Y-93835142D01*
X283654476Y-93882761D01*
X283749714Y-93930380D01*
X284035428Y-93930380D01*
X284130666Y-93882761D01*
X284178285Y-93835142D01*
X283178285Y-93025619D02*
X283130666Y-92978000D01*
X283035428Y-92930380D01*
X282797333Y-92930380D01*
X282702095Y-92978000D01*
X282654476Y-93025619D01*
X282606857Y-93120857D01*
X282606857Y-93216095D01*
X282654476Y-93358952D01*
X283225904Y-93930380D01*
X282606857Y-93930380D01*
X282178285Y-92930380D02*
X282178285Y-93739904D01*
X282130666Y-93835142D01*
X282083047Y-93882761D01*
X281987809Y-93930380D01*
X281797333Y-93930380D01*
X281702095Y-93882761D01*
X281654476Y-93835142D01*
X281606857Y-93739904D01*
X281606857Y-92930380D01*
X280702095Y-93263714D02*
X280702095Y-93930380D01*
X280940190Y-92882761D02*
X281178285Y-93597047D01*
X280559238Y-93597047D01*
X280178285Y-93549428D02*
X279416380Y-93549428D01*
X278940190Y-93930380D02*
X278940190Y-92930380D01*
X278606857Y-93644666D01*
X278273523Y-92930380D01*
X278273523Y-93930380D01*
X277797333Y-92930380D02*
X277797333Y-93739904D01*
X277749714Y-93835142D01*
X277702095Y-93882761D01*
X277606857Y-93930380D01*
X277416380Y-93930380D01*
X277321142Y-93882761D01*
X277273523Y-93835142D01*
X277225904Y-93739904D01*
X277225904Y-92930380D01*
X284225904Y-97750380D02*
X284225904Y-98559904D01*
X284178285Y-98655142D01*
X284130666Y-98702761D01*
X284035428Y-98750380D01*
X283844952Y-98750380D01*
X283749714Y-98702761D01*
X283702095Y-98655142D01*
X283654476Y-98559904D01*
X283654476Y-97750380D01*
X283225904Y-97845619D02*
X283178285Y-97798000D01*
X283083047Y-97750380D01*
X282844952Y-97750380D01*
X282749714Y-97798000D01*
X282702095Y-97845619D01*
X282654476Y-97940857D01*
X282654476Y-98036095D01*
X282702095Y-98178952D01*
X283273523Y-98750380D01*
X282654476Y-98750380D01*
X271200000Y-93402380D02*
X271200000Y-92402380D01*
X270819047Y-92402380D01*
X270723809Y-92450000D01*
X270676190Y-92497619D01*
X270628571Y-92592857D01*
X270628571Y-92735714D01*
X270676190Y-92830952D01*
X270723809Y-92878571D01*
X270819047Y-92926190D01*
X271200000Y-92926190D01*
X269628571Y-93402380D02*
X269961904Y-92926190D01*
X270200000Y-93402380D02*
X270200000Y-92402380D01*
X269819047Y-92402380D01*
X269723809Y-92450000D01*
X269676190Y-92497619D01*
X269628571Y-92592857D01*
X269628571Y-92735714D01*
X269676190Y-92830952D01*
X269723809Y-92878571D01*
X269819047Y-92926190D01*
X270200000Y-92926190D01*
X269342857Y-92402380D02*
X268771428Y-92402380D01*
X269057142Y-93402380D02*
X269057142Y-92402380D01*
X267866666Y-93402380D02*
X268200000Y-92926190D01*
X268438095Y-93402380D02*
X268438095Y-92402380D01*
X268057142Y-92402380D01*
X267961904Y-92450000D01*
X267914285Y-92497619D01*
X267866666Y-92592857D01*
X267866666Y-92735714D01*
X267914285Y-92830952D01*
X267961904Y-92878571D01*
X268057142Y-92926190D01*
X268438095Y-92926190D01*
X266961904Y-92402380D02*
X267438095Y-92402380D01*
X267485714Y-92878571D01*
X267438095Y-92830952D01*
X267342857Y-92783333D01*
X267104761Y-92783333D01*
X267009523Y-92830952D01*
X266961904Y-92878571D01*
X266914285Y-92973809D01*
X266914285Y-93211904D01*
X266961904Y-93307142D01*
X267009523Y-93354761D01*
X267104761Y-93402380D01*
X267342857Y-93402380D01*
X267438095Y-93354761D01*
X267485714Y-93307142D01*
X266628571Y-92402380D02*
X266295238Y-93402380D01*
X265961904Y-92402380D01*
X265438095Y-92402380D02*
X265342857Y-92402380D01*
X265247619Y-92450000D01*
X265200000Y-92497619D01*
X265152380Y-92592857D01*
X265104761Y-92783333D01*
X265104761Y-93021428D01*
X265152380Y-93211904D01*
X265200000Y-93307142D01*
X265247619Y-93354761D01*
X265342857Y-93402380D01*
X265438095Y-93402380D01*
X265533333Y-93354761D01*
X265580952Y-93307142D01*
X265628571Y-93211904D01*
X265676190Y-93021428D01*
X265676190Y-92783333D01*
X265628571Y-92592857D01*
X265580952Y-92497619D01*
X265533333Y-92450000D01*
X265438095Y-92402380D01*
X264676190Y-92402380D02*
X264676190Y-93211904D01*
X264628571Y-93307142D01*
X264580952Y-93354761D01*
X264485714Y-93402380D01*
X264295238Y-93402380D01*
X264200000Y-93354761D01*
X264152380Y-93307142D01*
X264104761Y-93211904D01*
X264104761Y-92402380D01*
X263676190Y-92497619D02*
X263628571Y-92450000D01*
X263533333Y-92402380D01*
X263295238Y-92402380D01*
X263200000Y-92450000D01*
X263152380Y-92497619D01*
X263104761Y-92592857D01*
X263104761Y-92688095D01*
X263152380Y-92830952D01*
X263723809Y-93402380D01*
X263104761Y-93402380D01*
X262771428Y-92402380D02*
X262104761Y-93402380D01*
X262104761Y-92402380D02*
X262771428Y-93402380D01*
X289059523Y-116052380D02*
X288821428Y-117052380D01*
X288630952Y-116338095D01*
X288440476Y-117052380D01*
X288202380Y-116052380D01*
X287869047Y-117004761D02*
X287726190Y-117052380D01*
X287488095Y-117052380D01*
X287392857Y-117004761D01*
X287345238Y-116957142D01*
X287297619Y-116861904D01*
X287297619Y-116766666D01*
X287345238Y-116671428D01*
X287392857Y-116623809D01*
X287488095Y-116576190D01*
X287678571Y-116528571D01*
X287773809Y-116480952D01*
X287821428Y-116433333D01*
X287869047Y-116338095D01*
X287869047Y-116242857D01*
X287821428Y-116147619D01*
X287773809Y-116100000D01*
X287678571Y-116052380D01*
X287440476Y-116052380D01*
X287297619Y-116100000D01*
X286916666Y-116147619D02*
X286869047Y-116100000D01*
X286773809Y-116052380D01*
X286535714Y-116052380D01*
X286440476Y-116100000D01*
X286392857Y-116147619D01*
X286345238Y-116242857D01*
X286345238Y-116338095D01*
X286392857Y-116480952D01*
X286964285Y-117052380D01*
X286345238Y-117052380D01*
X285773809Y-116480952D02*
X285869047Y-116433333D01*
X285916666Y-116385714D01*
X285964285Y-116290476D01*
X285964285Y-116242857D01*
X285916666Y-116147619D01*
X285869047Y-116100000D01*
X285773809Y-116052380D01*
X285583333Y-116052380D01*
X285488095Y-116100000D01*
X285440476Y-116147619D01*
X285392857Y-116242857D01*
X285392857Y-116290476D01*
X285440476Y-116385714D01*
X285488095Y-116433333D01*
X285583333Y-116480952D01*
X285773809Y-116480952D01*
X285869047Y-116528571D01*
X285916666Y-116576190D01*
X285964285Y-116671428D01*
X285964285Y-116861904D01*
X285916666Y-116957142D01*
X285869047Y-117004761D01*
X285773809Y-117052380D01*
X285583333Y-117052380D01*
X285488095Y-117004761D01*
X285440476Y-116957142D01*
X285392857Y-116861904D01*
X285392857Y-116671428D01*
X285440476Y-116576190D01*
X285488095Y-116528571D01*
X285583333Y-116480952D01*
X284440476Y-117052380D02*
X285011904Y-117052380D01*
X284726190Y-117052380D02*
X284726190Y-116052380D01*
X284821428Y-116195238D01*
X284916666Y-116290476D01*
X285011904Y-116338095D01*
X284059523Y-116147619D02*
X284011904Y-116100000D01*
X283916666Y-116052380D01*
X283678571Y-116052380D01*
X283583333Y-116100000D01*
X283535714Y-116147619D01*
X283488095Y-116242857D01*
X283488095Y-116338095D01*
X283535714Y-116480952D01*
X284107142Y-117052380D01*
X283488095Y-117052380D01*
X282726190Y-116528571D02*
X282583333Y-116576190D01*
X282535714Y-116623809D01*
X282488095Y-116719047D01*
X282488095Y-116861904D01*
X282535714Y-116957142D01*
X282583333Y-117004761D01*
X282678571Y-117052380D01*
X283059523Y-117052380D01*
X283059523Y-116052380D01*
X282726190Y-116052380D01*
X282630952Y-116100000D01*
X282583333Y-116147619D01*
X282535714Y-116242857D01*
X282535714Y-116338095D01*
X282583333Y-116433333D01*
X282630952Y-116480952D01*
X282726190Y-116528571D01*
X283059523Y-116528571D01*
X270009523Y-116052380D02*
X269771428Y-117052380D01*
X269580952Y-116338095D01*
X269390476Y-117052380D01*
X269152380Y-116052380D01*
X268819047Y-117004761D02*
X268676190Y-117052380D01*
X268438095Y-117052380D01*
X268342857Y-117004761D01*
X268295238Y-116957142D01*
X268247619Y-116861904D01*
X268247619Y-116766666D01*
X268295238Y-116671428D01*
X268342857Y-116623809D01*
X268438095Y-116576190D01*
X268628571Y-116528571D01*
X268723809Y-116480952D01*
X268771428Y-116433333D01*
X268819047Y-116338095D01*
X268819047Y-116242857D01*
X268771428Y-116147619D01*
X268723809Y-116100000D01*
X268628571Y-116052380D01*
X268390476Y-116052380D01*
X268247619Y-116100000D01*
X267866666Y-116147619D02*
X267819047Y-116100000D01*
X267723809Y-116052380D01*
X267485714Y-116052380D01*
X267390476Y-116100000D01*
X267342857Y-116147619D01*
X267295238Y-116242857D01*
X267295238Y-116338095D01*
X267342857Y-116480952D01*
X267914285Y-117052380D01*
X267295238Y-117052380D01*
X266723809Y-116480952D02*
X266819047Y-116433333D01*
X266866666Y-116385714D01*
X266914285Y-116290476D01*
X266914285Y-116242857D01*
X266866666Y-116147619D01*
X266819047Y-116100000D01*
X266723809Y-116052380D01*
X266533333Y-116052380D01*
X266438095Y-116100000D01*
X266390476Y-116147619D01*
X266342857Y-116242857D01*
X266342857Y-116290476D01*
X266390476Y-116385714D01*
X266438095Y-116433333D01*
X266533333Y-116480952D01*
X266723809Y-116480952D01*
X266819047Y-116528571D01*
X266866666Y-116576190D01*
X266914285Y-116671428D01*
X266914285Y-116861904D01*
X266866666Y-116957142D01*
X266819047Y-117004761D01*
X266723809Y-117052380D01*
X266533333Y-117052380D01*
X266438095Y-117004761D01*
X266390476Y-116957142D01*
X266342857Y-116861904D01*
X266342857Y-116671428D01*
X266390476Y-116576190D01*
X266438095Y-116528571D01*
X266533333Y-116480952D01*
X265390476Y-117052380D02*
X265961904Y-117052380D01*
X265676190Y-117052380D02*
X265676190Y-116052380D01*
X265771428Y-116195238D01*
X265866666Y-116290476D01*
X265961904Y-116338095D01*
X265009523Y-116147619D02*
X264961904Y-116100000D01*
X264866666Y-116052380D01*
X264628571Y-116052380D01*
X264533333Y-116100000D01*
X264485714Y-116147619D01*
X264438095Y-116242857D01*
X264438095Y-116338095D01*
X264485714Y-116480952D01*
X265057142Y-117052380D01*
X264438095Y-117052380D01*
X263676190Y-116528571D02*
X263533333Y-116576190D01*
X263485714Y-116623809D01*
X263438095Y-116719047D01*
X263438095Y-116861904D01*
X263485714Y-116957142D01*
X263533333Y-117004761D01*
X263628571Y-117052380D01*
X264009523Y-117052380D01*
X264009523Y-116052380D01*
X263676190Y-116052380D01*
X263580952Y-116100000D01*
X263533333Y-116147619D01*
X263485714Y-116242857D01*
X263485714Y-116338095D01*
X263533333Y-116433333D01*
X263580952Y-116480952D01*
X263676190Y-116528571D01*
X264009523Y-116528571D01*
X250959523Y-116052380D02*
X250721428Y-117052380D01*
X250530952Y-116338095D01*
X250340476Y-117052380D01*
X250102380Y-116052380D01*
X249769047Y-117004761D02*
X249626190Y-117052380D01*
X249388095Y-117052380D01*
X249292857Y-117004761D01*
X249245238Y-116957142D01*
X249197619Y-116861904D01*
X249197619Y-116766666D01*
X249245238Y-116671428D01*
X249292857Y-116623809D01*
X249388095Y-116576190D01*
X249578571Y-116528571D01*
X249673809Y-116480952D01*
X249721428Y-116433333D01*
X249769047Y-116338095D01*
X249769047Y-116242857D01*
X249721428Y-116147619D01*
X249673809Y-116100000D01*
X249578571Y-116052380D01*
X249340476Y-116052380D01*
X249197619Y-116100000D01*
X248816666Y-116147619D02*
X248769047Y-116100000D01*
X248673809Y-116052380D01*
X248435714Y-116052380D01*
X248340476Y-116100000D01*
X248292857Y-116147619D01*
X248245238Y-116242857D01*
X248245238Y-116338095D01*
X248292857Y-116480952D01*
X248864285Y-117052380D01*
X248245238Y-117052380D01*
X247673809Y-116480952D02*
X247769047Y-116433333D01*
X247816666Y-116385714D01*
X247864285Y-116290476D01*
X247864285Y-116242857D01*
X247816666Y-116147619D01*
X247769047Y-116100000D01*
X247673809Y-116052380D01*
X247483333Y-116052380D01*
X247388095Y-116100000D01*
X247340476Y-116147619D01*
X247292857Y-116242857D01*
X247292857Y-116290476D01*
X247340476Y-116385714D01*
X247388095Y-116433333D01*
X247483333Y-116480952D01*
X247673809Y-116480952D01*
X247769047Y-116528571D01*
X247816666Y-116576190D01*
X247864285Y-116671428D01*
X247864285Y-116861904D01*
X247816666Y-116957142D01*
X247769047Y-117004761D01*
X247673809Y-117052380D01*
X247483333Y-117052380D01*
X247388095Y-117004761D01*
X247340476Y-116957142D01*
X247292857Y-116861904D01*
X247292857Y-116671428D01*
X247340476Y-116576190D01*
X247388095Y-116528571D01*
X247483333Y-116480952D01*
X246340476Y-117052380D02*
X246911904Y-117052380D01*
X246626190Y-117052380D02*
X246626190Y-116052380D01*
X246721428Y-116195238D01*
X246816666Y-116290476D01*
X246911904Y-116338095D01*
X245959523Y-116147619D02*
X245911904Y-116100000D01*
X245816666Y-116052380D01*
X245578571Y-116052380D01*
X245483333Y-116100000D01*
X245435714Y-116147619D01*
X245388095Y-116242857D01*
X245388095Y-116338095D01*
X245435714Y-116480952D01*
X246007142Y-117052380D01*
X245388095Y-117052380D01*
X244626190Y-116528571D02*
X244483333Y-116576190D01*
X244435714Y-116623809D01*
X244388095Y-116719047D01*
X244388095Y-116861904D01*
X244435714Y-116957142D01*
X244483333Y-117004761D01*
X244578571Y-117052380D01*
X244959523Y-117052380D01*
X244959523Y-116052380D01*
X244626190Y-116052380D01*
X244530952Y-116100000D01*
X244483333Y-116147619D01*
X244435714Y-116242857D01*
X244435714Y-116338095D01*
X244483333Y-116433333D01*
X244530952Y-116480952D01*
X244626190Y-116528571D01*
X244959523Y-116528571D01*
X290219047Y-103040380D02*
X290790476Y-103040380D01*
X290504761Y-103040380D02*
X290504761Y-102040380D01*
X290600000Y-102183238D01*
X290695238Y-102278476D01*
X290790476Y-102326095D01*
X289790476Y-103040380D02*
X289790476Y-102040380D01*
X289695238Y-102659428D02*
X289409523Y-103040380D01*
X289409523Y-102373714D02*
X289790476Y-102754666D01*
D12*
X290183333Y-101064190D02*
X290350000Y-100826095D01*
X290469047Y-101064190D02*
X290469047Y-100564190D01*
X290278571Y-100564190D01*
X290230952Y-100588000D01*
X290207142Y-100611809D01*
X290183333Y-100659428D01*
X290183333Y-100730857D01*
X290207142Y-100778476D01*
X290230952Y-100802285D01*
X290278571Y-100826095D01*
X290469047Y-100826095D01*
X289754761Y-100564190D02*
X289850000Y-100564190D01*
X289897619Y-100588000D01*
X289921428Y-100611809D01*
X289969047Y-100683238D01*
X289992857Y-100778476D01*
X289992857Y-100968952D01*
X289969047Y-101016571D01*
X289945238Y-101040380D01*
X289897619Y-101064190D01*
X289802380Y-101064190D01*
X289754761Y-101040380D01*
X289730952Y-101016571D01*
X289707142Y-100968952D01*
X289707142Y-100849904D01*
X289730952Y-100802285D01*
X289754761Y-100778476D01*
X289802380Y-100754666D01*
X289897619Y-100754666D01*
X289945238Y-100778476D01*
X289969047Y-100802285D01*
X289992857Y-100849904D01*
D10*
X280840380Y-91479761D02*
X280840380Y-90908333D01*
X280840380Y-91194047D02*
X279840380Y-91194047D01*
X279983238Y-91098809D01*
X280078476Y-91003571D01*
X280126095Y-90908333D01*
X279840380Y-92098809D02*
X279840380Y-92194047D01*
X279888000Y-92289285D01*
X279935619Y-92336904D01*
X280030857Y-92384523D01*
X280221333Y-92432142D01*
X280459428Y-92432142D01*
X280649904Y-92384523D01*
X280745142Y-92336904D01*
X280792761Y-92289285D01*
X280840380Y-92194047D01*
X280840380Y-92098809D01*
X280792761Y-92003571D01*
X280745142Y-91955952D01*
X280649904Y-91908333D01*
X280459428Y-91860714D01*
X280221333Y-91860714D01*
X280030857Y-91908333D01*
X279935619Y-91955952D01*
X279888000Y-92003571D01*
X279840380Y-92098809D01*
X280840380Y-92860714D02*
X279840380Y-92860714D01*
X280459428Y-92955952D02*
X280840380Y-93241666D01*
X280173714Y-93241666D02*
X280554666Y-92860714D01*
D12*
X278864190Y-91991666D02*
X278626095Y-91825000D01*
X278864190Y-91705952D02*
X278364190Y-91705952D01*
X278364190Y-91896428D01*
X278388000Y-91944047D01*
X278411809Y-91967857D01*
X278459428Y-91991666D01*
X278530857Y-91991666D01*
X278578476Y-91967857D01*
X278602285Y-91944047D01*
X278626095Y-91896428D01*
X278626095Y-91705952D01*
X278364190Y-92444047D02*
X278364190Y-92205952D01*
X278602285Y-92182142D01*
X278578476Y-92205952D01*
X278554666Y-92253571D01*
X278554666Y-92372619D01*
X278578476Y-92420238D01*
X278602285Y-92444047D01*
X278649904Y-92467857D01*
X278768952Y-92467857D01*
X278816571Y-92444047D01*
X278840380Y-92420238D01*
X278864190Y-92372619D01*
X278864190Y-92253571D01*
X278840380Y-92205952D01*
X278816571Y-92182142D01*
D10*
X272224404Y-101310119D02*
X272176785Y-101262500D01*
X272081547Y-101214880D01*
X271843452Y-101214880D01*
X271748214Y-101262500D01*
X271700595Y-101310119D01*
X271652976Y-101405357D01*
X271652976Y-101500595D01*
X271700595Y-101643452D01*
X272272023Y-102214880D01*
X271652976Y-102214880D01*
X271272023Y-101310119D02*
X271224404Y-101262500D01*
X271129166Y-101214880D01*
X270891071Y-101214880D01*
X270795833Y-101262500D01*
X270748214Y-101310119D01*
X270700595Y-101405357D01*
X270700595Y-101500595D01*
X270748214Y-101643452D01*
X271319642Y-102214880D01*
X270700595Y-102214880D01*
D12*
X271545833Y-100238690D02*
X271712500Y-100000595D01*
X271831547Y-100238690D02*
X271831547Y-99738690D01*
X271641071Y-99738690D01*
X271593452Y-99762500D01*
X271569642Y-99786309D01*
X271545833Y-99833928D01*
X271545833Y-99905357D01*
X271569642Y-99952976D01*
X271593452Y-99976785D01*
X271641071Y-100000595D01*
X271831547Y-100000595D01*
X271117261Y-99905357D02*
X271117261Y-100238690D01*
X271236309Y-99714880D02*
X271355357Y-100072023D01*
X271045833Y-100072023D01*
D10*
X272224404Y-98928869D02*
X272176785Y-98881250D01*
X272081547Y-98833630D01*
X271843452Y-98833630D01*
X271748214Y-98881250D01*
X271700595Y-98928869D01*
X271652976Y-99024107D01*
X271652976Y-99119345D01*
X271700595Y-99262202D01*
X272272023Y-99833630D01*
X271652976Y-99833630D01*
X271272023Y-98928869D02*
X271224404Y-98881250D01*
X271129166Y-98833630D01*
X270891071Y-98833630D01*
X270795833Y-98881250D01*
X270748214Y-98928869D01*
X270700595Y-99024107D01*
X270700595Y-99119345D01*
X270748214Y-99262202D01*
X271319642Y-99833630D01*
X270700595Y-99833630D01*
D12*
X271545833Y-97857440D02*
X271712500Y-97619345D01*
X271831547Y-97857440D02*
X271831547Y-97357440D01*
X271641071Y-97357440D01*
X271593452Y-97381250D01*
X271569642Y-97405059D01*
X271545833Y-97452678D01*
X271545833Y-97524107D01*
X271569642Y-97571726D01*
X271593452Y-97595535D01*
X271641071Y-97619345D01*
X271831547Y-97619345D01*
X271379166Y-97357440D02*
X271069642Y-97357440D01*
X271236309Y-97547916D01*
X271164880Y-97547916D01*
X271117261Y-97571726D01*
X271093452Y-97595535D01*
X271069642Y-97643154D01*
X271069642Y-97762202D01*
X271093452Y-97809821D01*
X271117261Y-97833630D01*
X271164880Y-97857440D01*
X271307738Y-97857440D01*
X271355357Y-97833630D01*
X271379166Y-97809821D01*
D10*
X272343452Y-96452380D02*
X272819642Y-96452380D01*
X272867261Y-96928571D01*
X272819642Y-96880952D01*
X272724404Y-96833333D01*
X272486309Y-96833333D01*
X272391071Y-96880952D01*
X272343452Y-96928571D01*
X272295833Y-97023809D01*
X272295833Y-97261904D01*
X272343452Y-97357142D01*
X272391071Y-97404761D01*
X272486309Y-97452380D01*
X272724404Y-97452380D01*
X272819642Y-97404761D01*
X272867261Y-97357142D01*
X271867261Y-97357142D02*
X271819642Y-97404761D01*
X271867261Y-97452380D01*
X271914880Y-97404761D01*
X271867261Y-97357142D01*
X271867261Y-97452380D01*
X270867261Y-97452380D02*
X271438690Y-97452380D01*
X271152976Y-97452380D02*
X271152976Y-96452380D01*
X271248214Y-96595238D01*
X271343452Y-96690476D01*
X271438690Y-96738095D01*
X270438690Y-97452380D02*
X270438690Y-96452380D01*
X270343452Y-97071428D02*
X270057738Y-97452380D01*
X270057738Y-96785714D02*
X270438690Y-97166666D01*
D12*
X271545833Y-95476190D02*
X271712500Y-95238095D01*
X271831547Y-95476190D02*
X271831547Y-94976190D01*
X271641071Y-94976190D01*
X271593452Y-95000000D01*
X271569642Y-95023809D01*
X271545833Y-95071428D01*
X271545833Y-95142857D01*
X271569642Y-95190476D01*
X271593452Y-95214285D01*
X271641071Y-95238095D01*
X271831547Y-95238095D01*
X271355357Y-95023809D02*
X271331547Y-95000000D01*
X271283928Y-94976190D01*
X271164880Y-94976190D01*
X271117261Y-95000000D01*
X271093452Y-95023809D01*
X271069642Y-95071428D01*
X271069642Y-95119047D01*
X271093452Y-95190476D01*
X271379166Y-95476190D01*
X271069642Y-95476190D01*
D10*
X272343452Y-103596130D02*
X272819642Y-103596130D01*
X272867261Y-104072321D01*
X272819642Y-104024702D01*
X272724404Y-103977083D01*
X272486309Y-103977083D01*
X272391071Y-104024702D01*
X272343452Y-104072321D01*
X272295833Y-104167559D01*
X272295833Y-104405654D01*
X272343452Y-104500892D01*
X272391071Y-104548511D01*
X272486309Y-104596130D01*
X272724404Y-104596130D01*
X272819642Y-104548511D01*
X272867261Y-104500892D01*
X271867261Y-104500892D02*
X271819642Y-104548511D01*
X271867261Y-104596130D01*
X271914880Y-104548511D01*
X271867261Y-104500892D01*
X271867261Y-104596130D01*
X270867261Y-104596130D02*
X271438690Y-104596130D01*
X271152976Y-104596130D02*
X271152976Y-103596130D01*
X271248214Y-103738988D01*
X271343452Y-103834226D01*
X271438690Y-103881845D01*
X270438690Y-104596130D02*
X270438690Y-103596130D01*
X270343452Y-104215178D02*
X270057738Y-104596130D01*
X270057738Y-103929464D02*
X270438690Y-104310416D01*
D12*
X271545833Y-102619940D02*
X271712500Y-102381845D01*
X271831547Y-102619940D02*
X271831547Y-102119940D01*
X271641071Y-102119940D01*
X271593452Y-102143750D01*
X271569642Y-102167559D01*
X271545833Y-102215178D01*
X271545833Y-102286607D01*
X271569642Y-102334226D01*
X271593452Y-102358035D01*
X271641071Y-102381845D01*
X271831547Y-102381845D01*
X271069642Y-102619940D02*
X271355357Y-102619940D01*
X271212500Y-102619940D02*
X271212500Y-102119940D01*
X271260119Y-102191369D01*
X271307738Y-102238988D01*
X271355357Y-102262797D01*
D10*
X290180304Y-121847180D02*
X290180304Y-120847180D01*
X289942209Y-120847180D01*
X289799352Y-120894800D01*
X289704114Y-120990038D01*
X289656495Y-121085276D01*
X289608876Y-121275752D01*
X289608876Y-121418609D01*
X289656495Y-121609085D01*
X289704114Y-121704323D01*
X289799352Y-121799561D01*
X289942209Y-121847180D01*
X290180304Y-121847180D01*
X291132685Y-125947180D02*
X291132685Y-124947180D01*
X290894590Y-124947180D01*
X290751733Y-124994800D01*
X290656495Y-125090038D01*
X290608876Y-125185276D01*
X290561257Y-125375752D01*
X290561257Y-125518609D01*
X290608876Y-125709085D01*
X290656495Y-125804323D01*
X290751733Y-125899561D01*
X290894590Y-125947180D01*
X291132685Y-125947180D01*
X290180304Y-125042419D02*
X290132685Y-124994800D01*
X290037447Y-124947180D01*
X289799352Y-124947180D01*
X289704114Y-124994800D01*
X289656495Y-125042419D01*
X289608876Y-125137657D01*
X289608876Y-125232895D01*
X289656495Y-125375752D01*
X290227923Y-125947180D01*
X289608876Y-125947180D01*
X289275542Y-124947180D02*
X288656495Y-124947180D01*
X288989828Y-125328133D01*
X288846971Y-125328133D01*
X288751733Y-125375752D01*
X288704114Y-125423371D01*
X288656495Y-125518609D01*
X288656495Y-125756704D01*
X288704114Y-125851942D01*
X288751733Y-125899561D01*
X288846971Y-125947180D01*
X289132685Y-125947180D01*
X289227923Y-125899561D01*
X289275542Y-125851942D01*
X297954380Y-106672095D02*
X296954380Y-106672095D01*
X296954380Y-106910190D01*
X297002000Y-107053047D01*
X297097238Y-107148285D01*
X297192476Y-107195904D01*
X297382952Y-107243523D01*
X297525809Y-107243523D01*
X297716285Y-107195904D01*
X297811523Y-107148285D01*
X297906761Y-107053047D01*
X297954380Y-106910190D01*
X297954380Y-106672095D01*
X293854380Y-105719714D02*
X292854380Y-105719714D01*
X292854380Y-105957809D01*
X292902000Y-106100666D01*
X292997238Y-106195904D01*
X293092476Y-106243523D01*
X293282952Y-106291142D01*
X293425809Y-106291142D01*
X293616285Y-106243523D01*
X293711523Y-106195904D01*
X293806761Y-106100666D01*
X293854380Y-105957809D01*
X293854380Y-105719714D01*
X292949619Y-106672095D02*
X292902000Y-106719714D01*
X292854380Y-106814952D01*
X292854380Y-107053047D01*
X292902000Y-107148285D01*
X292949619Y-107195904D01*
X293044857Y-107243523D01*
X293140095Y-107243523D01*
X293282952Y-107195904D01*
X293854380Y-106624476D01*
X293854380Y-107243523D01*
X292949619Y-107624476D02*
X292902000Y-107672095D01*
X292854380Y-107767333D01*
X292854380Y-108005428D01*
X292902000Y-108100666D01*
X292949619Y-108148285D01*
X293044857Y-108195904D01*
X293140095Y-108195904D01*
X293282952Y-108148285D01*
X293854380Y-107576857D01*
X293854380Y-108195904D01*
X274480304Y-126047180D02*
X274480304Y-125047180D01*
X274242209Y-125047180D01*
X274099352Y-125094800D01*
X274004114Y-125190038D01*
X273956495Y-125285276D01*
X273908876Y-125475752D01*
X273908876Y-125618609D01*
X273956495Y-125809085D01*
X274004114Y-125904323D01*
X274099352Y-125999561D01*
X274242209Y-126047180D01*
X274480304Y-126047180D01*
X275432685Y-121947180D02*
X275432685Y-120947180D01*
X275194590Y-120947180D01*
X275051733Y-120994800D01*
X274956495Y-121090038D01*
X274908876Y-121185276D01*
X274861257Y-121375752D01*
X274861257Y-121518609D01*
X274908876Y-121709085D01*
X274956495Y-121804323D01*
X275051733Y-121899561D01*
X275194590Y-121947180D01*
X275432685Y-121947180D01*
X273908876Y-121947180D02*
X274480304Y-121947180D01*
X274194590Y-121947180D02*
X274194590Y-120947180D01*
X274289828Y-121090038D01*
X274385066Y-121185276D01*
X274480304Y-121232895D01*
X273432685Y-121947180D02*
X273242209Y-121947180D01*
X273146971Y-121899561D01*
X273099352Y-121851942D01*
X273004114Y-121709085D01*
X272956495Y-121518609D01*
X272956495Y-121137657D01*
X273004114Y-121042419D01*
X273051733Y-120994800D01*
X273146971Y-120947180D01*
X273337447Y-120947180D01*
X273432685Y-120994800D01*
X273480304Y-121042419D01*
X273527923Y-121137657D01*
X273527923Y-121375752D01*
X273480304Y-121470990D01*
X273432685Y-121518609D01*
X273337447Y-121566228D01*
X273146971Y-121566228D01*
X273051733Y-121518609D01*
X273004114Y-121470990D01*
X272956495Y-121375752D01*
X278904380Y-106672095D02*
X277904380Y-106672095D01*
X277904380Y-106910190D01*
X277952000Y-107053047D01*
X278047238Y-107148285D01*
X278142476Y-107195904D01*
X278332952Y-107243523D01*
X278475809Y-107243523D01*
X278666285Y-107195904D01*
X278761523Y-107148285D01*
X278856761Y-107053047D01*
X278904380Y-106910190D01*
X278904380Y-106672095D01*
X274804380Y-105719714D02*
X273804380Y-105719714D01*
X273804380Y-105957809D01*
X273852000Y-106100666D01*
X273947238Y-106195904D01*
X274042476Y-106243523D01*
X274232952Y-106291142D01*
X274375809Y-106291142D01*
X274566285Y-106243523D01*
X274661523Y-106195904D01*
X274756761Y-106100666D01*
X274804380Y-105957809D01*
X274804380Y-105719714D01*
X274804380Y-107243523D02*
X274804380Y-106672095D01*
X274804380Y-106957809D02*
X273804380Y-106957809D01*
X273947238Y-106862571D01*
X274042476Y-106767333D01*
X274090095Y-106672095D01*
X274232952Y-107814952D02*
X274185333Y-107719714D01*
X274137714Y-107672095D01*
X274042476Y-107624476D01*
X273994857Y-107624476D01*
X273899619Y-107672095D01*
X273852000Y-107719714D01*
X273804380Y-107814952D01*
X273804380Y-108005428D01*
X273852000Y-108100666D01*
X273899619Y-108148285D01*
X273994857Y-108195904D01*
X274042476Y-108195904D01*
X274137714Y-108148285D01*
X274185333Y-108100666D01*
X274232952Y-108005428D01*
X274232952Y-107814952D01*
X274280571Y-107719714D01*
X274328190Y-107672095D01*
X274423428Y-107624476D01*
X274613904Y-107624476D01*
X274709142Y-107672095D01*
X274756761Y-107719714D01*
X274804380Y-107814952D01*
X274804380Y-108005428D01*
X274756761Y-108100666D01*
X274709142Y-108148285D01*
X274613904Y-108195904D01*
X274423428Y-108195904D01*
X274328190Y-108148285D01*
X274280571Y-108100666D01*
X274232952Y-108005428D01*
X255430304Y-126047180D02*
X255430304Y-125047180D01*
X255192209Y-125047180D01*
X255049352Y-125094800D01*
X254954114Y-125190038D01*
X254906495Y-125285276D01*
X254858876Y-125475752D01*
X254858876Y-125618609D01*
X254906495Y-125809085D01*
X254954114Y-125904323D01*
X255049352Y-125999561D01*
X255192209Y-126047180D01*
X255430304Y-126047180D01*
X256382685Y-121947180D02*
X256382685Y-120947180D01*
X256144590Y-120947180D01*
X256001733Y-120994800D01*
X255906495Y-121090038D01*
X255858876Y-121185276D01*
X255811257Y-121375752D01*
X255811257Y-121518609D01*
X255858876Y-121709085D01*
X255906495Y-121804323D01*
X256001733Y-121899561D01*
X256144590Y-121947180D01*
X256382685Y-121947180D01*
X254858876Y-121947180D02*
X255430304Y-121947180D01*
X255144590Y-121947180D02*
X255144590Y-120947180D01*
X255239828Y-121090038D01*
X255335066Y-121185276D01*
X255430304Y-121232895D01*
X254001733Y-121280514D02*
X254001733Y-121947180D01*
X254239828Y-120899561D02*
X254477923Y-121613847D01*
X253858876Y-121613847D01*
X259854380Y-106672095D02*
X258854380Y-106672095D01*
X258854380Y-106910190D01*
X258902000Y-107053047D01*
X258997238Y-107148285D01*
X259092476Y-107195904D01*
X259282952Y-107243523D01*
X259425809Y-107243523D01*
X259616285Y-107195904D01*
X259711523Y-107148285D01*
X259806761Y-107053047D01*
X259854380Y-106910190D01*
X259854380Y-106672095D01*
X255754380Y-105719714D02*
X254754380Y-105719714D01*
X254754380Y-105957809D01*
X254802000Y-106100666D01*
X254897238Y-106195904D01*
X254992476Y-106243523D01*
X255182952Y-106291142D01*
X255325809Y-106291142D01*
X255516285Y-106243523D01*
X255611523Y-106195904D01*
X255706761Y-106100666D01*
X255754380Y-105957809D01*
X255754380Y-105719714D01*
X255754380Y-107243523D02*
X255754380Y-106672095D01*
X255754380Y-106957809D02*
X254754380Y-106957809D01*
X254897238Y-106862571D01*
X254992476Y-106767333D01*
X255040095Y-106672095D01*
X254754380Y-107576857D02*
X254754380Y-108195904D01*
X255135333Y-107862571D01*
X255135333Y-108005428D01*
X255182952Y-108100666D01*
X255230571Y-108148285D01*
X255325809Y-108195904D01*
X255563904Y-108195904D01*
X255659142Y-108148285D01*
X255706761Y-108100666D01*
X255754380Y-108005428D01*
X255754380Y-107719714D01*
X255706761Y-107624476D01*
X255659142Y-107576857D01*
X279590380Y-87130142D02*
X279590380Y-87225380D01*
X279638000Y-87320619D01*
X279685619Y-87368238D01*
X279780857Y-87415857D01*
X279971333Y-87463476D01*
X280209428Y-87463476D01*
X280399904Y-87415857D01*
X280495142Y-87368238D01*
X280542761Y-87320619D01*
X280590380Y-87225380D01*
X280590380Y-87130142D01*
X280542761Y-87034904D01*
X280495142Y-86987285D01*
X280399904Y-86939666D01*
X280209428Y-86892047D01*
X279971333Y-86892047D01*
X279780857Y-86939666D01*
X279685619Y-86987285D01*
X279638000Y-87034904D01*
X279590380Y-87130142D01*
X280495142Y-87892047D02*
X280542761Y-87939666D01*
X280590380Y-87892047D01*
X280542761Y-87844428D01*
X280495142Y-87892047D01*
X280590380Y-87892047D01*
X280590380Y-88892047D02*
X280590380Y-88320619D01*
X280590380Y-88606333D02*
X279590380Y-88606333D01*
X279733238Y-88511095D01*
X279828476Y-88415857D01*
X279876095Y-88320619D01*
X279923714Y-89749190D02*
X280590380Y-89749190D01*
X279923714Y-89320619D02*
X280447523Y-89320619D01*
X280542761Y-89368238D01*
X280590380Y-89463476D01*
X280590380Y-89606333D01*
X280542761Y-89701571D01*
X280495142Y-89749190D01*
X280066571Y-90558714D02*
X280066571Y-90225380D01*
X280590380Y-90225380D02*
X279590380Y-90225380D01*
X279590380Y-90701571D01*
D12*
X278745142Y-88723000D02*
X278759428Y-88708714D01*
X278773714Y-88665857D01*
X278773714Y-88637285D01*
X278759428Y-88594428D01*
X278730857Y-88565857D01*
X278702285Y-88551571D01*
X278645142Y-88537285D01*
X278602285Y-88537285D01*
X278545142Y-88551571D01*
X278516571Y-88565857D01*
X278488000Y-88594428D01*
X278473714Y-88637285D01*
X278473714Y-88665857D01*
X278488000Y-88708714D01*
X278502285Y-88723000D01*
X278473714Y-88823000D02*
X278473714Y-89023000D01*
X278773714Y-88894428D01*
D10*
X275550238Y-97202380D02*
X276121666Y-97202380D01*
X275835952Y-97202380D02*
X275835952Y-96202380D01*
X275931190Y-96345238D01*
X276026428Y-96440476D01*
X276121666Y-96488095D01*
X274693095Y-96535714D02*
X274693095Y-97202380D01*
X275121666Y-96535714D02*
X275121666Y-97059523D01*
X275074047Y-97154761D01*
X274978809Y-97202380D01*
X274835952Y-97202380D01*
X274740714Y-97154761D01*
X274693095Y-97107142D01*
X273883571Y-96678571D02*
X274216904Y-96678571D01*
X274216904Y-97202380D02*
X274216904Y-96202380D01*
X273740714Y-96202380D01*
D12*
X275005000Y-95357142D02*
X275019285Y-95371428D01*
X275062142Y-95385714D01*
X275090714Y-95385714D01*
X275133571Y-95371428D01*
X275162142Y-95342857D01*
X275176428Y-95314285D01*
X275190714Y-95257142D01*
X275190714Y-95214285D01*
X275176428Y-95157142D01*
X275162142Y-95128571D01*
X275133571Y-95100000D01*
X275090714Y-95085714D01*
X275062142Y-95085714D01*
X275019285Y-95100000D01*
X275005000Y-95114285D01*
X274747857Y-95085714D02*
X274805000Y-95085714D01*
X274833571Y-95100000D01*
X274847857Y-95114285D01*
X274876428Y-95157142D01*
X274890714Y-95214285D01*
X274890714Y-95328571D01*
X274876428Y-95357142D01*
X274862142Y-95371428D01*
X274833571Y-95385714D01*
X274776428Y-95385714D01*
X274747857Y-95371428D01*
X274733571Y-95357142D01*
X274719285Y-95328571D01*
X274719285Y-95257142D01*
X274733571Y-95228571D01*
X274747857Y-95214285D01*
X274776428Y-95200000D01*
X274833571Y-95200000D01*
X274862142Y-95214285D01*
X274876428Y-95228571D01*
X274890714Y-95257142D01*
D10*
X291869857Y-103949380D02*
X291774619Y-103949380D01*
X291679380Y-103997000D01*
X291631761Y-104044619D01*
X291584142Y-104139857D01*
X291536523Y-104330333D01*
X291536523Y-104568428D01*
X291584142Y-104758904D01*
X291631761Y-104854142D01*
X291679380Y-104901761D01*
X291774619Y-104949380D01*
X291869857Y-104949380D01*
X291965095Y-104901761D01*
X292012714Y-104854142D01*
X292060333Y-104758904D01*
X292107952Y-104568428D01*
X292107952Y-104330333D01*
X292060333Y-104139857D01*
X292012714Y-104044619D01*
X291965095Y-103997000D01*
X291869857Y-103949380D01*
X291107952Y-104854142D02*
X291060333Y-104901761D01*
X291107952Y-104949380D01*
X291155571Y-104901761D01*
X291107952Y-104854142D01*
X291107952Y-104949380D01*
X290107952Y-104949380D02*
X290679380Y-104949380D01*
X290393666Y-104949380D02*
X290393666Y-103949380D01*
X290488904Y-104092238D01*
X290584142Y-104187476D01*
X290679380Y-104235095D01*
X289250809Y-104282714D02*
X289250809Y-104949380D01*
X289679380Y-104282714D02*
X289679380Y-104806523D01*
X289631761Y-104901761D01*
X289536523Y-104949380D01*
X289393666Y-104949380D01*
X289298428Y-104901761D01*
X289250809Y-104854142D01*
X288441285Y-104425571D02*
X288774619Y-104425571D01*
X288774619Y-104949380D02*
X288774619Y-103949380D01*
X288298428Y-103949380D01*
D12*
X290277000Y-103104142D02*
X290291285Y-103118428D01*
X290334142Y-103132714D01*
X290362714Y-103132714D01*
X290405571Y-103118428D01*
X290434142Y-103089857D01*
X290448428Y-103061285D01*
X290462714Y-103004142D01*
X290462714Y-102961285D01*
X290448428Y-102904142D01*
X290434142Y-102875571D01*
X290405571Y-102847000D01*
X290362714Y-102832714D01*
X290334142Y-102832714D01*
X290291285Y-102847000D01*
X290277000Y-102861285D01*
X290005571Y-102832714D02*
X290148428Y-102832714D01*
X290162714Y-102975571D01*
X290148428Y-102961285D01*
X290119857Y-102947000D01*
X290048428Y-102947000D01*
X290019857Y-102961285D01*
X290005571Y-102975571D01*
X289991285Y-103004142D01*
X289991285Y-103075571D01*
X290005571Y-103104142D01*
X290019857Y-103118428D01*
X290048428Y-103132714D01*
X290119857Y-103132714D01*
X290148428Y-103118428D01*
X290162714Y-103104142D01*
D10*
X291869857Y-97218380D02*
X291774619Y-97218380D01*
X291679380Y-97266000D01*
X291631761Y-97313619D01*
X291584142Y-97408857D01*
X291536523Y-97599333D01*
X291536523Y-97837428D01*
X291584142Y-98027904D01*
X291631761Y-98123142D01*
X291679380Y-98170761D01*
X291774619Y-98218380D01*
X291869857Y-98218380D01*
X291965095Y-98170761D01*
X292012714Y-98123142D01*
X292060333Y-98027904D01*
X292107952Y-97837428D01*
X292107952Y-97599333D01*
X292060333Y-97408857D01*
X292012714Y-97313619D01*
X291965095Y-97266000D01*
X291869857Y-97218380D01*
X291107952Y-98123142D02*
X291060333Y-98170761D01*
X291107952Y-98218380D01*
X291155571Y-98170761D01*
X291107952Y-98123142D01*
X291107952Y-98218380D01*
X290107952Y-98218380D02*
X290679380Y-98218380D01*
X290393666Y-98218380D02*
X290393666Y-97218380D01*
X290488904Y-97361238D01*
X290584142Y-97456476D01*
X290679380Y-97504095D01*
X289250809Y-97551714D02*
X289250809Y-98218380D01*
X289679380Y-97551714D02*
X289679380Y-98075523D01*
X289631761Y-98170761D01*
X289536523Y-98218380D01*
X289393666Y-98218380D01*
X289298428Y-98170761D01*
X289250809Y-98123142D01*
X288441285Y-97694571D02*
X288774619Y-97694571D01*
X288774619Y-98218380D02*
X288774619Y-97218380D01*
X288298428Y-97218380D01*
D12*
X290277000Y-96373142D02*
X290291285Y-96387428D01*
X290334142Y-96401714D01*
X290362714Y-96401714D01*
X290405571Y-96387428D01*
X290434142Y-96358857D01*
X290448428Y-96330285D01*
X290462714Y-96273142D01*
X290462714Y-96230285D01*
X290448428Y-96173142D01*
X290434142Y-96144571D01*
X290405571Y-96116000D01*
X290362714Y-96101714D01*
X290334142Y-96101714D01*
X290291285Y-96116000D01*
X290277000Y-96130285D01*
X290019857Y-96201714D02*
X290019857Y-96401714D01*
X290091285Y-96087428D02*
X290162714Y-96301714D01*
X289977000Y-96301714D01*
D10*
X285741857Y-85423619D02*
X285694238Y-85376000D01*
X285599000Y-85328380D01*
X285360904Y-85328380D01*
X285265666Y-85376000D01*
X285218047Y-85423619D01*
X285170428Y-85518857D01*
X285170428Y-85614095D01*
X285218047Y-85756952D01*
X285789476Y-86328380D01*
X285170428Y-86328380D01*
X284789476Y-85423619D02*
X284741857Y-85376000D01*
X284646619Y-85328380D01*
X284408523Y-85328380D01*
X284313285Y-85376000D01*
X284265666Y-85423619D01*
X284218047Y-85518857D01*
X284218047Y-85614095D01*
X284265666Y-85756952D01*
X284837095Y-86328380D01*
X284218047Y-86328380D01*
X283789476Y-85661714D02*
X283789476Y-86661714D01*
X283789476Y-85709333D02*
X283694238Y-85661714D01*
X283503761Y-85661714D01*
X283408523Y-85709333D01*
X283360904Y-85756952D01*
X283313285Y-85852190D01*
X283313285Y-86137904D01*
X283360904Y-86233142D01*
X283408523Y-86280761D01*
X283503761Y-86328380D01*
X283694238Y-86328380D01*
X283789476Y-86280761D01*
X282551380Y-85804571D02*
X282884714Y-85804571D01*
X282884714Y-86328380D02*
X282884714Y-85328380D01*
X282408523Y-85328380D01*
D12*
X284149000Y-87483142D02*
X284163285Y-87497428D01*
X284206142Y-87511714D01*
X284234714Y-87511714D01*
X284277571Y-87497428D01*
X284306142Y-87468857D01*
X284320428Y-87440285D01*
X284334714Y-87383142D01*
X284334714Y-87340285D01*
X284320428Y-87283142D01*
X284306142Y-87254571D01*
X284277571Y-87226000D01*
X284234714Y-87211714D01*
X284206142Y-87211714D01*
X284163285Y-87226000D01*
X284149000Y-87240285D01*
X284049000Y-87211714D02*
X283863285Y-87211714D01*
X283963285Y-87326000D01*
X283920428Y-87326000D01*
X283891857Y-87340285D01*
X283877571Y-87354571D01*
X283863285Y-87383142D01*
X283863285Y-87454571D01*
X283877571Y-87483142D01*
X283891857Y-87497428D01*
X283920428Y-87511714D01*
X284006142Y-87511714D01*
X284034714Y-87497428D01*
X284049000Y-87483142D01*
D10*
X285067619Y-88400142D02*
X285020000Y-88447761D01*
X284972380Y-88543000D01*
X284972380Y-88781095D01*
X285020000Y-88876333D01*
X285067619Y-88923952D01*
X285162857Y-88971571D01*
X285258095Y-88971571D01*
X285400952Y-88923952D01*
X285972380Y-88352523D01*
X285972380Y-88971571D01*
X285067619Y-89352523D02*
X285020000Y-89400142D01*
X284972380Y-89495380D01*
X284972380Y-89733476D01*
X285020000Y-89828714D01*
X285067619Y-89876333D01*
X285162857Y-89923952D01*
X285258095Y-89923952D01*
X285400952Y-89876333D01*
X285972380Y-89304904D01*
X285972380Y-89923952D01*
X285305714Y-90352523D02*
X286305714Y-90352523D01*
X285353333Y-90352523D02*
X285305714Y-90447761D01*
X285305714Y-90638238D01*
X285353333Y-90733476D01*
X285400952Y-90781095D01*
X285496190Y-90828714D01*
X285781904Y-90828714D01*
X285877142Y-90781095D01*
X285924761Y-90733476D01*
X285972380Y-90638238D01*
X285972380Y-90447761D01*
X285924761Y-90352523D01*
X285448571Y-91590619D02*
X285448571Y-91257285D01*
X285972380Y-91257285D02*
X284972380Y-91257285D01*
X284972380Y-91733476D01*
D12*
X287127142Y-89993000D02*
X287141428Y-89978714D01*
X287155714Y-89935857D01*
X287155714Y-89907285D01*
X287141428Y-89864428D01*
X287112857Y-89835857D01*
X287084285Y-89821571D01*
X287027142Y-89807285D01*
X286984285Y-89807285D01*
X286927142Y-89821571D01*
X286898571Y-89835857D01*
X286870000Y-89864428D01*
X286855714Y-89907285D01*
X286855714Y-89935857D01*
X286870000Y-89978714D01*
X286884285Y-89993000D01*
X286884285Y-90107285D02*
X286870000Y-90121571D01*
X286855714Y-90150142D01*
X286855714Y-90221571D01*
X286870000Y-90250142D01*
X286884285Y-90264428D01*
X286912857Y-90278714D01*
X286941428Y-90278714D01*
X286984285Y-90264428D01*
X287155714Y-90093000D01*
X287155714Y-90278714D01*
D10*
X277423428Y-100552380D02*
X277994857Y-100552380D01*
X277709142Y-100552380D02*
X277709142Y-99552380D01*
X277804380Y-99695238D01*
X277899619Y-99790476D01*
X277994857Y-99838095D01*
X276804380Y-99552380D02*
X276709142Y-99552380D01*
X276613904Y-99600000D01*
X276566285Y-99647619D01*
X276518666Y-99742857D01*
X276471047Y-99933333D01*
X276471047Y-100171428D01*
X276518666Y-100361904D01*
X276566285Y-100457142D01*
X276613904Y-100504761D01*
X276709142Y-100552380D01*
X276804380Y-100552380D01*
X276899619Y-100504761D01*
X276947238Y-100457142D01*
X276994857Y-100361904D01*
X277042476Y-100171428D01*
X277042476Y-99933333D01*
X276994857Y-99742857D01*
X276947238Y-99647619D01*
X276899619Y-99600000D01*
X276804380Y-99552380D01*
X275613904Y-99885714D02*
X275613904Y-100552380D01*
X276042476Y-99885714D02*
X276042476Y-100409523D01*
X275994857Y-100504761D01*
X275899619Y-100552380D01*
X275756761Y-100552380D01*
X275661523Y-100504761D01*
X275613904Y-100457142D01*
X274804380Y-100028571D02*
X275137714Y-100028571D01*
X275137714Y-100552380D02*
X275137714Y-99552380D01*
X274661523Y-99552380D01*
D12*
X276402000Y-101707142D02*
X276416285Y-101721428D01*
X276459142Y-101735714D01*
X276487714Y-101735714D01*
X276530571Y-101721428D01*
X276559142Y-101692857D01*
X276573428Y-101664285D01*
X276587714Y-101607142D01*
X276587714Y-101564285D01*
X276573428Y-101507142D01*
X276559142Y-101478571D01*
X276530571Y-101450000D01*
X276487714Y-101435714D01*
X276459142Y-101435714D01*
X276416285Y-101450000D01*
X276402000Y-101464285D01*
X276116285Y-101735714D02*
X276287714Y-101735714D01*
X276202000Y-101735714D02*
X276202000Y-101435714D01*
X276230571Y-101478571D01*
X276259142Y-101507142D01*
X276287714Y-101521428D01*
M02*
