G04 #@! TF.GenerationSoftware,KiCad,Pcbnew,(5.1.5)-3*
G04 #@! TF.CreationDate,2021-05-11T09:46:13+07:00*
G04 #@! TF.ProjectId,uso!VNC,75736f21-564e-4432-9e6b-696361645f70,rev?*
G04 #@! TF.SameCoordinates,Original*
G04 #@! TF.FileFunction,Profile,NP*
%FSLAX46Y46*%
G04 Gerber Fmt 4.6, Leading zero omitted, Abs format (unit mm)*
G04 Created by KiCad (PCBNEW (5.1.5)-3) date 2021-05-11 09:46:13*
%MOMM*%
%LPD*%
G04 APERTURE LIST*
%ADD10C,0.150000*%
G04 APERTURE END LIST*
D10*
X233362500Y-83343750D02*
X300037500Y-83343750D01*
X233362500Y-150018750D02*
G75*
G02X230981250Y-147637500I0J2381250D01*
G01*
X302418750Y-147637500D02*
G75*
G02X300037500Y-150018750I-2381250J0D01*
G01*
X300037500Y-83343750D02*
G75*
G02X302418750Y-85725000I0J-2381250D01*
G01*
X230981250Y-85725000D02*
G75*
G02X233362500Y-83343750I2381250J0D01*
G01*
X230981250Y-147637500D02*
X230981250Y-85725000D01*
X300037500Y-150018750D02*
X233362500Y-150018750D01*
X302418750Y-85725000D02*
X302418750Y-147637500D01*
X245750000Y-136730000D02*
X249550000Y-136730000D01*
X245750000Y-136730000D02*
X245750000Y-140130000D01*
X245750000Y-140130000D02*
X249550000Y-140130000D01*
X249550000Y-136730000D02*
X249550000Y-140130000D01*
X264800000Y-136730000D02*
X268600000Y-136730000D01*
X264800000Y-136730000D02*
X264800000Y-140130000D01*
X264800000Y-140130000D02*
X268600000Y-140130000D01*
X268600000Y-136730000D02*
X268600000Y-140130000D01*
X287650000Y-136730000D02*
X287650000Y-140130000D01*
X283850000Y-140130000D02*
X287650000Y-140130000D01*
X283850000Y-136730000D02*
X283850000Y-140130000D01*
X283850000Y-136730000D02*
X287650000Y-136730000D01*
X287650000Y-117680000D02*
X287650000Y-121080000D01*
X283850000Y-121080000D02*
X287650000Y-121080000D01*
X283850000Y-117680000D02*
X283850000Y-121080000D01*
X283850000Y-117680000D02*
X287650000Y-117680000D01*
X264800000Y-117680000D02*
X268600000Y-117680000D01*
X264800000Y-117680000D02*
X264800000Y-121080000D01*
X264800000Y-121080000D02*
X268600000Y-121080000D01*
X268600000Y-117680000D02*
X268600000Y-121080000D01*
X245750000Y-117680000D02*
X249550000Y-117680000D01*
X245750000Y-117680000D02*
X245750000Y-121080000D01*
X245750000Y-121080000D02*
X249550000Y-121080000D01*
X249550000Y-117680000D02*
X249550000Y-121080000D01*
M02*
