G04 #@! TF.GenerationSoftware,KiCad,Pcbnew,(5.1.5)-3*
G04 #@! TF.CreationDate,2021-05-11T09:46:13+07:00*
G04 #@! TF.ProjectId,uso!VNC,75736f21-564e-4432-9e6b-696361645f70,rev?*
G04 #@! TF.SameCoordinates,Original*
G04 #@! TF.FileFunction,Soldermask,Bot*
G04 #@! TF.FilePolarity,Negative*
%FSLAX46Y46*%
G04 Gerber Fmt 4.6, Leading zero omitted, Abs format (unit mm)*
G04 Created by KiCad (PCBNEW (5.1.5)-3) date 2021-05-11 09:46:13*
%MOMM*%
%LPD*%
G04 APERTURE LIST*
%ADD10C,0.010000*%
%ADD11C,1.400000*%
%ADD12C,6.400000*%
%ADD13R,1.500000X2.200000*%
%ADD14R,2.100000X2.100000*%
%ADD15C,2.100000*%
%ADD16R,1.100000X1.700000*%
%ADD17O,2.100000X2.100000*%
%ADD18R,1.590000X1.300000*%
%ADD19R,2.950000X2.900000*%
%ADD20C,2.150000*%
%ADD21C,3.400000*%
%ADD22C,4.387800*%
%ADD23R,1.800000X1.600000*%
%ADD24R,1.000000X1.850000*%
%ADD25R,0.700000X1.850000*%
%ADD26C,1.050000*%
%ADD27O,1.400000X2.500000*%
%ADD28O,1.400000X2.000000*%
%ADD29C,0.100000*%
%ADD30R,1.100000X1.400000*%
%ADD31R,1.100000X1.000000*%
%ADD32R,1.700000X1.100000*%
%ADD33R,1.300000X1.600000*%
%ADD34R,1.600000X1.300000*%
%ADD35R,1.150000X1.200000*%
%ADD36R,1.200000X1.150000*%
G04 APERTURE END LIST*
D10*
G36*
X246509123Y-93480074D02*
G01*
X246551030Y-93491533D01*
X246562290Y-93496093D01*
X246605424Y-93520713D01*
X246643923Y-93553596D01*
X246675810Y-93592569D01*
X246699109Y-93635457D01*
X246705787Y-93653885D01*
X246707518Y-93659721D01*
X246709066Y-93665829D01*
X246710440Y-93672848D01*
X246711651Y-93681416D01*
X246712709Y-93692173D01*
X246713623Y-93705757D01*
X246714405Y-93722808D01*
X246715064Y-93743964D01*
X246715611Y-93769865D01*
X246716055Y-93801150D01*
X246716406Y-93838457D01*
X246716675Y-93882425D01*
X246716873Y-93933694D01*
X246717008Y-93992903D01*
X246717092Y-94060690D01*
X246717133Y-94137694D01*
X246717144Y-94224556D01*
X246717133Y-94321912D01*
X246717124Y-94368250D01*
X246717053Y-94476999D01*
X246716889Y-94577695D01*
X246716634Y-94670010D01*
X246716291Y-94753621D01*
X246715863Y-94828202D01*
X246715353Y-94893429D01*
X246714762Y-94948976D01*
X246714094Y-94994520D01*
X246713352Y-95029734D01*
X246712537Y-95054295D01*
X246711654Y-95067876D01*
X246711334Y-95069952D01*
X246697662Y-95110733D01*
X246675481Y-95148996D01*
X246647377Y-95183025D01*
X246616150Y-95213089D01*
X246585678Y-95234750D01*
X246552539Y-95250232D01*
X246535003Y-95256026D01*
X246502198Y-95262492D01*
X246464418Y-95264877D01*
X246426304Y-95263231D01*
X246392502Y-95257600D01*
X246381722Y-95254416D01*
X246334570Y-95232283D01*
X246292936Y-95201105D01*
X246258096Y-95162431D01*
X246231331Y-95117813D01*
X246213920Y-95068802D01*
X246209438Y-95045457D01*
X246208549Y-95033362D01*
X246207735Y-95010774D01*
X246206996Y-94978607D01*
X246206332Y-94937776D01*
X246205743Y-94889195D01*
X246205229Y-94833778D01*
X246204789Y-94772440D01*
X246204424Y-94706095D01*
X246204133Y-94635658D01*
X246203917Y-94562042D01*
X246203775Y-94486162D01*
X246203708Y-94408932D01*
X246203715Y-94331267D01*
X246203796Y-94254082D01*
X246203951Y-94178289D01*
X246204180Y-94104805D01*
X246204484Y-94034542D01*
X246204861Y-93968416D01*
X246205313Y-93907341D01*
X246205838Y-93852231D01*
X246206437Y-93804000D01*
X246207110Y-93763563D01*
X246207856Y-93731834D01*
X246208676Y-93709728D01*
X246209533Y-93698401D01*
X246222478Y-93646926D01*
X246245191Y-93599961D01*
X246276521Y-93558684D01*
X246315315Y-93524277D01*
X246360421Y-93497919D01*
X246410689Y-93480790D01*
X246424667Y-93477958D01*
X246465336Y-93475330D01*
X246509123Y-93480074D01*
G37*
X246509123Y-93480074D02*
X246551030Y-93491533D01*
X246562290Y-93496093D01*
X246605424Y-93520713D01*
X246643923Y-93553596D01*
X246675810Y-93592569D01*
X246699109Y-93635457D01*
X246705787Y-93653885D01*
X246707518Y-93659721D01*
X246709066Y-93665829D01*
X246710440Y-93672848D01*
X246711651Y-93681416D01*
X246712709Y-93692173D01*
X246713623Y-93705757D01*
X246714405Y-93722808D01*
X246715064Y-93743964D01*
X246715611Y-93769865D01*
X246716055Y-93801150D01*
X246716406Y-93838457D01*
X246716675Y-93882425D01*
X246716873Y-93933694D01*
X246717008Y-93992903D01*
X246717092Y-94060690D01*
X246717133Y-94137694D01*
X246717144Y-94224556D01*
X246717133Y-94321912D01*
X246717124Y-94368250D01*
X246717053Y-94476999D01*
X246716889Y-94577695D01*
X246716634Y-94670010D01*
X246716291Y-94753621D01*
X246715863Y-94828202D01*
X246715353Y-94893429D01*
X246714762Y-94948976D01*
X246714094Y-94994520D01*
X246713352Y-95029734D01*
X246712537Y-95054295D01*
X246711654Y-95067876D01*
X246711334Y-95069952D01*
X246697662Y-95110733D01*
X246675481Y-95148996D01*
X246647377Y-95183025D01*
X246616150Y-95213089D01*
X246585678Y-95234750D01*
X246552539Y-95250232D01*
X246535003Y-95256026D01*
X246502198Y-95262492D01*
X246464418Y-95264877D01*
X246426304Y-95263231D01*
X246392502Y-95257600D01*
X246381722Y-95254416D01*
X246334570Y-95232283D01*
X246292936Y-95201105D01*
X246258096Y-95162431D01*
X246231331Y-95117813D01*
X246213920Y-95068802D01*
X246209438Y-95045457D01*
X246208549Y-95033362D01*
X246207735Y-95010774D01*
X246206996Y-94978607D01*
X246206332Y-94937776D01*
X246205743Y-94889195D01*
X246205229Y-94833778D01*
X246204789Y-94772440D01*
X246204424Y-94706095D01*
X246204133Y-94635658D01*
X246203917Y-94562042D01*
X246203775Y-94486162D01*
X246203708Y-94408932D01*
X246203715Y-94331267D01*
X246203796Y-94254082D01*
X246203951Y-94178289D01*
X246204180Y-94104805D01*
X246204484Y-94034542D01*
X246204861Y-93968416D01*
X246205313Y-93907341D01*
X246205838Y-93852231D01*
X246206437Y-93804000D01*
X246207110Y-93763563D01*
X246207856Y-93731834D01*
X246208676Y-93709728D01*
X246209533Y-93698401D01*
X246222478Y-93646926D01*
X246245191Y-93599961D01*
X246276521Y-93558684D01*
X246315315Y-93524277D01*
X246360421Y-93497919D01*
X246410689Y-93480790D01*
X246424667Y-93477958D01*
X246465336Y-93475330D01*
X246509123Y-93480074D01*
G36*
X247290068Y-93996132D02*
G01*
X247338244Y-94013374D01*
X247363334Y-94027644D01*
X247394447Y-94049214D01*
X247430044Y-94076831D01*
X247468586Y-94109242D01*
X247508534Y-94145196D01*
X247548351Y-94183437D01*
X247553739Y-94188815D01*
X247623675Y-94262824D01*
X247685009Y-94336517D01*
X247739845Y-94412819D01*
X247790283Y-94494657D01*
X247838425Y-94584957D01*
X247838842Y-94585792D01*
X247891950Y-94704912D01*
X247934420Y-94827636D01*
X247966177Y-94953243D01*
X247987145Y-95081009D01*
X247997250Y-95210212D01*
X247996416Y-95340128D01*
X247984568Y-95470036D01*
X247961632Y-95599212D01*
X247949342Y-95650491D01*
X247918043Y-95753851D01*
X247877382Y-95858958D01*
X247828604Y-95963334D01*
X247772953Y-96064504D01*
X247711673Y-96159989D01*
X247655517Y-96235547D01*
X247628606Y-96267347D01*
X247595246Y-96303824D01*
X247557897Y-96342520D01*
X247519020Y-96380974D01*
X247481075Y-96416726D01*
X247446521Y-96447315D01*
X247430747Y-96460336D01*
X247337977Y-96528516D01*
X247238057Y-96591000D01*
X247133026Y-96646817D01*
X247024923Y-96694997D01*
X246915786Y-96734571D01*
X246807654Y-96764568D01*
X246777196Y-96771251D01*
X246699425Y-96784875D01*
X246616800Y-96795037D01*
X246532859Y-96801490D01*
X246451135Y-96803991D01*
X246375166Y-96802294D01*
X246351487Y-96800734D01*
X246231206Y-96786668D01*
X246113736Y-96763311D01*
X245999415Y-96731205D01*
X245874797Y-96685541D01*
X245756071Y-96630332D01*
X245643615Y-96566028D01*
X245537807Y-96493079D01*
X245439027Y-96411938D01*
X245347653Y-96323055D01*
X245264064Y-96226879D01*
X245188637Y-96123863D01*
X245121753Y-96014457D01*
X245063788Y-95899112D01*
X245015122Y-95778278D01*
X244976134Y-95652406D01*
X244947201Y-95521947D01*
X244938420Y-95467839D01*
X244933825Y-95426408D01*
X244930576Y-95376495D01*
X244928674Y-95320956D01*
X244928120Y-95262645D01*
X244928915Y-95204418D01*
X244931058Y-95149129D01*
X244934552Y-95099634D01*
X244938326Y-95066076D01*
X244962235Y-94934359D01*
X244996765Y-94806219D01*
X245041683Y-94682213D01*
X245096754Y-94562900D01*
X245161746Y-94448837D01*
X245236423Y-94340581D01*
X245249585Y-94323412D01*
X245281166Y-94284985D01*
X245317420Y-94244541D01*
X245356896Y-94203416D01*
X245398145Y-94162945D01*
X245439716Y-94124464D01*
X245480159Y-94089309D01*
X245518025Y-94058815D01*
X245551864Y-94034318D01*
X245580225Y-94017153D01*
X245584252Y-94015131D01*
X245633902Y-93997166D01*
X245685404Y-93989783D01*
X245737014Y-93992807D01*
X245786990Y-94006065D01*
X245833590Y-94029386D01*
X245851062Y-94041621D01*
X245875591Y-94064787D01*
X245899690Y-94095123D01*
X245920569Y-94128634D01*
X245935436Y-94161321D01*
X245936219Y-94163592D01*
X245946506Y-94211062D01*
X245947352Y-94261420D01*
X245939151Y-94311760D01*
X245922294Y-94359171D01*
X245905810Y-94388676D01*
X245892797Y-94404976D01*
X245873888Y-94424597D01*
X245852430Y-94444153D01*
X245844314Y-94450856D01*
X245811825Y-94478468D01*
X245775860Y-94511796D01*
X245738600Y-94548585D01*
X245702222Y-94586579D01*
X245668904Y-94623522D01*
X245640825Y-94657160D01*
X245625618Y-94677300D01*
X245577477Y-94752943D01*
X245534623Y-94836139D01*
X245498411Y-94923723D01*
X245470195Y-95012533D01*
X245455874Y-95073997D01*
X245448178Y-95123991D01*
X245442805Y-95181271D01*
X245439904Y-95241918D01*
X245439626Y-95302011D01*
X245442121Y-95357631D01*
X245444173Y-95380017D01*
X245461336Y-95484797D01*
X245489358Y-95586764D01*
X245527876Y-95685186D01*
X245576524Y-95779328D01*
X245634938Y-95868455D01*
X245702753Y-95951835D01*
X245755385Y-96006160D01*
X245833560Y-96073609D01*
X245919350Y-96133427D01*
X246011256Y-96184857D01*
X246107778Y-96227140D01*
X246207416Y-96259517D01*
X246294881Y-96278936D01*
X246329278Y-96283456D01*
X246371635Y-96286757D01*
X246418961Y-96288810D01*
X246468262Y-96289584D01*
X246516546Y-96289050D01*
X246560821Y-96287179D01*
X246598094Y-96283942D01*
X246611668Y-96282050D01*
X246718518Y-96259137D01*
X246821184Y-96226040D01*
X246919008Y-96183193D01*
X247011332Y-96131033D01*
X247097497Y-96069995D01*
X247176845Y-96000513D01*
X247248718Y-95923024D01*
X247312456Y-95837962D01*
X247333879Y-95804603D01*
X247353582Y-95770168D01*
X247374879Y-95728953D01*
X247395959Y-95684792D01*
X247415009Y-95641520D01*
X247430219Y-95602973D01*
X247433496Y-95593688D01*
X247461938Y-95492929D01*
X247479570Y-95389895D01*
X247486500Y-95285641D01*
X247482834Y-95181227D01*
X247468681Y-95077708D01*
X247444149Y-94976144D01*
X247409344Y-94877590D01*
X247364376Y-94783106D01*
X247347976Y-94754105D01*
X247302084Y-94682245D01*
X247252334Y-94616871D01*
X247196539Y-94555439D01*
X247132511Y-94495404D01*
X247106468Y-94473178D01*
X247081502Y-94451633D01*
X247058047Y-94430100D01*
X247038373Y-94410752D01*
X247024751Y-94395761D01*
X247022422Y-94392765D01*
X246999726Y-94353212D01*
X246984204Y-94307838D01*
X246976514Y-94260005D01*
X246977315Y-94213078D01*
X246982080Y-94187014D01*
X247000371Y-94136406D01*
X247026940Y-94092220D01*
X247060533Y-94055065D01*
X247099900Y-94025553D01*
X247143789Y-94004294D01*
X247190948Y-93991897D01*
X247240125Y-93988973D01*
X247290068Y-93996132D01*
G37*
X247290068Y-93996132D02*
X247338244Y-94013374D01*
X247363334Y-94027644D01*
X247394447Y-94049214D01*
X247430044Y-94076831D01*
X247468586Y-94109242D01*
X247508534Y-94145196D01*
X247548351Y-94183437D01*
X247553739Y-94188815D01*
X247623675Y-94262824D01*
X247685009Y-94336517D01*
X247739845Y-94412819D01*
X247790283Y-94494657D01*
X247838425Y-94584957D01*
X247838842Y-94585792D01*
X247891950Y-94704912D01*
X247934420Y-94827636D01*
X247966177Y-94953243D01*
X247987145Y-95081009D01*
X247997250Y-95210212D01*
X247996416Y-95340128D01*
X247984568Y-95470036D01*
X247961632Y-95599212D01*
X247949342Y-95650491D01*
X247918043Y-95753851D01*
X247877382Y-95858958D01*
X247828604Y-95963334D01*
X247772953Y-96064504D01*
X247711673Y-96159989D01*
X247655517Y-96235547D01*
X247628606Y-96267347D01*
X247595246Y-96303824D01*
X247557897Y-96342520D01*
X247519020Y-96380974D01*
X247481075Y-96416726D01*
X247446521Y-96447315D01*
X247430747Y-96460336D01*
X247337977Y-96528516D01*
X247238057Y-96591000D01*
X247133026Y-96646817D01*
X247024923Y-96694997D01*
X246915786Y-96734571D01*
X246807654Y-96764568D01*
X246777196Y-96771251D01*
X246699425Y-96784875D01*
X246616800Y-96795037D01*
X246532859Y-96801490D01*
X246451135Y-96803991D01*
X246375166Y-96802294D01*
X246351487Y-96800734D01*
X246231206Y-96786668D01*
X246113736Y-96763311D01*
X245999415Y-96731205D01*
X245874797Y-96685541D01*
X245756071Y-96630332D01*
X245643615Y-96566028D01*
X245537807Y-96493079D01*
X245439027Y-96411938D01*
X245347653Y-96323055D01*
X245264064Y-96226879D01*
X245188637Y-96123863D01*
X245121753Y-96014457D01*
X245063788Y-95899112D01*
X245015122Y-95778278D01*
X244976134Y-95652406D01*
X244947201Y-95521947D01*
X244938420Y-95467839D01*
X244933825Y-95426408D01*
X244930576Y-95376495D01*
X244928674Y-95320956D01*
X244928120Y-95262645D01*
X244928915Y-95204418D01*
X244931058Y-95149129D01*
X244934552Y-95099634D01*
X244938326Y-95066076D01*
X244962235Y-94934359D01*
X244996765Y-94806219D01*
X245041683Y-94682213D01*
X245096754Y-94562900D01*
X245161746Y-94448837D01*
X245236423Y-94340581D01*
X245249585Y-94323412D01*
X245281166Y-94284985D01*
X245317420Y-94244541D01*
X245356896Y-94203416D01*
X245398145Y-94162945D01*
X245439716Y-94124464D01*
X245480159Y-94089309D01*
X245518025Y-94058815D01*
X245551864Y-94034318D01*
X245580225Y-94017153D01*
X245584252Y-94015131D01*
X245633902Y-93997166D01*
X245685404Y-93989783D01*
X245737014Y-93992807D01*
X245786990Y-94006065D01*
X245833590Y-94029386D01*
X245851062Y-94041621D01*
X245875591Y-94064787D01*
X245899690Y-94095123D01*
X245920569Y-94128634D01*
X245935436Y-94161321D01*
X245936219Y-94163592D01*
X245946506Y-94211062D01*
X245947352Y-94261420D01*
X245939151Y-94311760D01*
X245922294Y-94359171D01*
X245905810Y-94388676D01*
X245892797Y-94404976D01*
X245873888Y-94424597D01*
X245852430Y-94444153D01*
X245844314Y-94450856D01*
X245811825Y-94478468D01*
X245775860Y-94511796D01*
X245738600Y-94548585D01*
X245702222Y-94586579D01*
X245668904Y-94623522D01*
X245640825Y-94657160D01*
X245625618Y-94677300D01*
X245577477Y-94752943D01*
X245534623Y-94836139D01*
X245498411Y-94923723D01*
X245470195Y-95012533D01*
X245455874Y-95073997D01*
X245448178Y-95123991D01*
X245442805Y-95181271D01*
X245439904Y-95241918D01*
X245439626Y-95302011D01*
X245442121Y-95357631D01*
X245444173Y-95380017D01*
X245461336Y-95484797D01*
X245489358Y-95586764D01*
X245527876Y-95685186D01*
X245576524Y-95779328D01*
X245634938Y-95868455D01*
X245702753Y-95951835D01*
X245755385Y-96006160D01*
X245833560Y-96073609D01*
X245919350Y-96133427D01*
X246011256Y-96184857D01*
X246107778Y-96227140D01*
X246207416Y-96259517D01*
X246294881Y-96278936D01*
X246329278Y-96283456D01*
X246371635Y-96286757D01*
X246418961Y-96288810D01*
X246468262Y-96289584D01*
X246516546Y-96289050D01*
X246560821Y-96287179D01*
X246598094Y-96283942D01*
X246611668Y-96282050D01*
X246718518Y-96259137D01*
X246821184Y-96226040D01*
X246919008Y-96183193D01*
X247011332Y-96131033D01*
X247097497Y-96069995D01*
X247176845Y-96000513D01*
X247248718Y-95923024D01*
X247312456Y-95837962D01*
X247333879Y-95804603D01*
X247353582Y-95770168D01*
X247374879Y-95728953D01*
X247395959Y-95684792D01*
X247415009Y-95641520D01*
X247430219Y-95602973D01*
X247433496Y-95593688D01*
X247461938Y-95492929D01*
X247479570Y-95389895D01*
X247486500Y-95285641D01*
X247482834Y-95181227D01*
X247468681Y-95077708D01*
X247444149Y-94976144D01*
X247409344Y-94877590D01*
X247364376Y-94783106D01*
X247347976Y-94754105D01*
X247302084Y-94682245D01*
X247252334Y-94616871D01*
X247196539Y-94555439D01*
X247132511Y-94495404D01*
X247106468Y-94473178D01*
X247081502Y-94451633D01*
X247058047Y-94430100D01*
X247038373Y-94410752D01*
X247024751Y-94395761D01*
X247022422Y-94392765D01*
X246999726Y-94353212D01*
X246984204Y-94307838D01*
X246976514Y-94260005D01*
X246977315Y-94213078D01*
X246982080Y-94187014D01*
X247000371Y-94136406D01*
X247026940Y-94092220D01*
X247060533Y-94055065D01*
X247099900Y-94025553D01*
X247143789Y-94004294D01*
X247190948Y-93991897D01*
X247240125Y-93988973D01*
X247290068Y-93996132D01*
D11*
X233029125Y-85137625D03*
X233029125Y-88693625D03*
X236077125Y-88693625D03*
X236077125Y-85137625D03*
X236839125Y-86915625D03*
X234553125Y-89201625D03*
X232267125Y-86915625D03*
X234553125Y-84629625D03*
D12*
X234553125Y-86915625D03*
D11*
X297322875Y-144668875D03*
X297322875Y-148224875D03*
X300370875Y-148224875D03*
X300370875Y-144668875D03*
X301132875Y-146446875D03*
X298846875Y-148732875D03*
X296560875Y-146446875D03*
X298846875Y-144160875D03*
D12*
X298846875Y-146446875D03*
X298846875Y-86915625D03*
D11*
X298846875Y-84629625D03*
X296560875Y-86915625D03*
X298846875Y-89201625D03*
X301132875Y-86915625D03*
X300370875Y-85137625D03*
X300370875Y-88693625D03*
X297322875Y-88693625D03*
X297322875Y-85137625D03*
D12*
X234553125Y-146446875D03*
D11*
X234553125Y-144160875D03*
X232267125Y-146446875D03*
X234553125Y-148732875D03*
X236839125Y-146446875D03*
X236077125Y-144668875D03*
X236077125Y-148224875D03*
X233029125Y-148224875D03*
X233029125Y-144668875D03*
D13*
X296327000Y-95166000D03*
X292627000Y-101366000D03*
X292627000Y-95166000D03*
X296327000Y-101366000D03*
D14*
X295747000Y-92266000D03*
D15*
X293207000Y-92266000D03*
X274574000Y-87376000D03*
X274574000Y-89916000D03*
X274574000Y-84836000D03*
X274574000Y-92456000D03*
D16*
X241678500Y-120142000D03*
X239778500Y-120142000D03*
D14*
X259826250Y-100396250D03*
D17*
X259826250Y-92776250D03*
X259826250Y-97856250D03*
X259826250Y-95316250D03*
D18*
X245055000Y-137680000D03*
X250245000Y-139180000D03*
X250245000Y-137680000D03*
X245055000Y-139180000D03*
X264105000Y-137680000D03*
X269295000Y-139180000D03*
X269295000Y-137680000D03*
X264105000Y-139180000D03*
X283155000Y-139180000D03*
X288345000Y-137680000D03*
X288345000Y-139180000D03*
X283155000Y-137680000D03*
D19*
X291592000Y-128270000D03*
X278665000Y-130810000D03*
D20*
X290830000Y-133350000D03*
X280670000Y-133350000D03*
D21*
X281940000Y-130810000D03*
D22*
X285750000Y-133350000D03*
D21*
X288290000Y-128270000D03*
D19*
X291592000Y-109220000D03*
X278665000Y-111760000D03*
D20*
X290830000Y-114300000D03*
X280670000Y-114300000D03*
D21*
X281940000Y-111760000D03*
D22*
X285750000Y-114300000D03*
D21*
X288290000Y-109220000D03*
X269240000Y-128270000D03*
D22*
X266700000Y-133350000D03*
D21*
X262890000Y-130810000D03*
D20*
X261620000Y-133350000D03*
X271780000Y-133350000D03*
D19*
X259615000Y-130810000D03*
X272542000Y-128270000D03*
D21*
X269240000Y-109220000D03*
D22*
X266700000Y-114300000D03*
D21*
X262890000Y-111760000D03*
D20*
X261620000Y-114300000D03*
X271780000Y-114300000D03*
D19*
X259615000Y-111760000D03*
X272542000Y-109220000D03*
D21*
X250190000Y-128270000D03*
D22*
X247650000Y-133350000D03*
D21*
X243840000Y-130810000D03*
D20*
X242570000Y-133350000D03*
X252730000Y-133350000D03*
D19*
X240565000Y-130810000D03*
X253492000Y-128270000D03*
D21*
X250190000Y-109220000D03*
D22*
X247650000Y-114300000D03*
D21*
X243840000Y-111760000D03*
D20*
X242570000Y-114300000D03*
X252730000Y-114300000D03*
D19*
X240565000Y-111760000D03*
X253492000Y-109220000D03*
D23*
X285199000Y-89193000D03*
X282999000Y-89193000D03*
X282999000Y-90893000D03*
X285199000Y-90893000D03*
D24*
X269925000Y-91038750D03*
X263475000Y-91038750D03*
X269150000Y-91038750D03*
X264250000Y-91038750D03*
D25*
X264950000Y-91038750D03*
X268450000Y-91038750D03*
X265450000Y-91038750D03*
X267950000Y-91038750D03*
X265950000Y-91038750D03*
X267450000Y-91038750D03*
X266950000Y-91038750D03*
X266450000Y-91038750D03*
D26*
X269590000Y-89593750D03*
X263810000Y-89593750D03*
D27*
X262380000Y-90123750D03*
X271020000Y-90123750D03*
D28*
X262380000Y-85943750D03*
X271020000Y-85943750D03*
D29*
G36*
X286021158Y-95499296D02*
G01*
X286047293Y-95503173D01*
X286072923Y-95509593D01*
X286097799Y-95518494D01*
X286121684Y-95529790D01*
X286144346Y-95543374D01*
X286165567Y-95559113D01*
X286185144Y-95576856D01*
X286202887Y-95596433D01*
X286218626Y-95617654D01*
X286232210Y-95640316D01*
X286243506Y-95664201D01*
X286252407Y-95689077D01*
X286258827Y-95714707D01*
X286262704Y-95740842D01*
X286264000Y-95767231D01*
X286264000Y-100828769D01*
X286262704Y-100855158D01*
X286258827Y-100881293D01*
X286252407Y-100906923D01*
X286243506Y-100931799D01*
X286232210Y-100955684D01*
X286218626Y-100978346D01*
X286202887Y-100999567D01*
X286185144Y-101019144D01*
X286165567Y-101036887D01*
X286144346Y-101052626D01*
X286121684Y-101066210D01*
X286097799Y-101077506D01*
X286072923Y-101086407D01*
X286047293Y-101092827D01*
X286021158Y-101096704D01*
X285994769Y-101098000D01*
X280933231Y-101098000D01*
X280906842Y-101096704D01*
X280880707Y-101092827D01*
X280855077Y-101086407D01*
X280830201Y-101077506D01*
X280806316Y-101066210D01*
X280783654Y-101052626D01*
X280762433Y-101036887D01*
X280742856Y-101019144D01*
X280725113Y-100999567D01*
X280709374Y-100978346D01*
X280695790Y-100955684D01*
X280684494Y-100931799D01*
X280675593Y-100906923D01*
X280669173Y-100881293D01*
X280665296Y-100855158D01*
X280664000Y-100828769D01*
X280664000Y-95767231D01*
X280665296Y-95740842D01*
X280669173Y-95714707D01*
X280675593Y-95689077D01*
X280684494Y-95664201D01*
X280695790Y-95640316D01*
X280709374Y-95617654D01*
X280725113Y-95596433D01*
X280742856Y-95576856D01*
X280762433Y-95559113D01*
X280783654Y-95543374D01*
X280806316Y-95529790D01*
X280830201Y-95518494D01*
X280855077Y-95509593D01*
X280880707Y-95503173D01*
X280906842Y-95499296D01*
X280933231Y-95498000D01*
X285994769Y-95498000D01*
X286021158Y-95499296D01*
G37*
G36*
X280717428Y-100473782D02*
G01*
X280733202Y-100476122D01*
X280748671Y-100479997D01*
X280763686Y-100485370D01*
X280778102Y-100492188D01*
X280791780Y-100500386D01*
X280804589Y-100509886D01*
X280816405Y-100520595D01*
X280827114Y-100532411D01*
X280836614Y-100545220D01*
X280844812Y-100558898D01*
X280851630Y-100573314D01*
X280857003Y-100588329D01*
X280860878Y-100603798D01*
X280863218Y-100619572D01*
X280864000Y-100635500D01*
X280864000Y-100960500D01*
X280863218Y-100976428D01*
X280860878Y-100992202D01*
X280857003Y-101007671D01*
X280851630Y-101022686D01*
X280844812Y-101037102D01*
X280836614Y-101050780D01*
X280827114Y-101063589D01*
X280816405Y-101075405D01*
X280804589Y-101086114D01*
X280791780Y-101095614D01*
X280778102Y-101103812D01*
X280763686Y-101110630D01*
X280748671Y-101116003D01*
X280733202Y-101119878D01*
X280717428Y-101122218D01*
X280701500Y-101123000D01*
X279551500Y-101123000D01*
X279535572Y-101122218D01*
X279519798Y-101119878D01*
X279504329Y-101116003D01*
X279489314Y-101110630D01*
X279474898Y-101103812D01*
X279461220Y-101095614D01*
X279448411Y-101086114D01*
X279436595Y-101075405D01*
X279425886Y-101063589D01*
X279416386Y-101050780D01*
X279408188Y-101037102D01*
X279401370Y-101022686D01*
X279395997Y-101007671D01*
X279392122Y-100992202D01*
X279389782Y-100976428D01*
X279389000Y-100960500D01*
X279389000Y-100635500D01*
X279389782Y-100619572D01*
X279392122Y-100603798D01*
X279395997Y-100588329D01*
X279401370Y-100573314D01*
X279408188Y-100558898D01*
X279416386Y-100545220D01*
X279425886Y-100532411D01*
X279436595Y-100520595D01*
X279448411Y-100509886D01*
X279461220Y-100500386D01*
X279474898Y-100492188D01*
X279489314Y-100485370D01*
X279504329Y-100479997D01*
X279519798Y-100476122D01*
X279535572Y-100473782D01*
X279551500Y-100473000D01*
X280701500Y-100473000D01*
X280717428Y-100473782D01*
G37*
G36*
X280717428Y-99973782D02*
G01*
X280733202Y-99976122D01*
X280748671Y-99979997D01*
X280763686Y-99985370D01*
X280778102Y-99992188D01*
X280791780Y-100000386D01*
X280804589Y-100009886D01*
X280816405Y-100020595D01*
X280827114Y-100032411D01*
X280836614Y-100045220D01*
X280844812Y-100058898D01*
X280851630Y-100073314D01*
X280857003Y-100088329D01*
X280860878Y-100103798D01*
X280863218Y-100119572D01*
X280864000Y-100135500D01*
X280864000Y-100460500D01*
X280863218Y-100476428D01*
X280860878Y-100492202D01*
X280857003Y-100507671D01*
X280851630Y-100522686D01*
X280844812Y-100537102D01*
X280836614Y-100550780D01*
X280827114Y-100563589D01*
X280816405Y-100575405D01*
X280804589Y-100586114D01*
X280791780Y-100595614D01*
X280778102Y-100603812D01*
X280763686Y-100610630D01*
X280748671Y-100616003D01*
X280733202Y-100619878D01*
X280717428Y-100622218D01*
X280701500Y-100623000D01*
X279551500Y-100623000D01*
X279535572Y-100622218D01*
X279519798Y-100619878D01*
X279504329Y-100616003D01*
X279489314Y-100610630D01*
X279474898Y-100603812D01*
X279461220Y-100595614D01*
X279448411Y-100586114D01*
X279436595Y-100575405D01*
X279425886Y-100563589D01*
X279416386Y-100550780D01*
X279408188Y-100537102D01*
X279401370Y-100522686D01*
X279395997Y-100507671D01*
X279392122Y-100492202D01*
X279389782Y-100476428D01*
X279389000Y-100460500D01*
X279389000Y-100135500D01*
X279389782Y-100119572D01*
X279392122Y-100103798D01*
X279395997Y-100088329D01*
X279401370Y-100073314D01*
X279408188Y-100058898D01*
X279416386Y-100045220D01*
X279425886Y-100032411D01*
X279436595Y-100020595D01*
X279448411Y-100009886D01*
X279461220Y-100000386D01*
X279474898Y-99992188D01*
X279489314Y-99985370D01*
X279504329Y-99979997D01*
X279519798Y-99976122D01*
X279535572Y-99973782D01*
X279551500Y-99973000D01*
X280701500Y-99973000D01*
X280717428Y-99973782D01*
G37*
G36*
X280717428Y-99473782D02*
G01*
X280733202Y-99476122D01*
X280748671Y-99479997D01*
X280763686Y-99485370D01*
X280778102Y-99492188D01*
X280791780Y-99500386D01*
X280804589Y-99509886D01*
X280816405Y-99520595D01*
X280827114Y-99532411D01*
X280836614Y-99545220D01*
X280844812Y-99558898D01*
X280851630Y-99573314D01*
X280857003Y-99588329D01*
X280860878Y-99603798D01*
X280863218Y-99619572D01*
X280864000Y-99635500D01*
X280864000Y-99960500D01*
X280863218Y-99976428D01*
X280860878Y-99992202D01*
X280857003Y-100007671D01*
X280851630Y-100022686D01*
X280844812Y-100037102D01*
X280836614Y-100050780D01*
X280827114Y-100063589D01*
X280816405Y-100075405D01*
X280804589Y-100086114D01*
X280791780Y-100095614D01*
X280778102Y-100103812D01*
X280763686Y-100110630D01*
X280748671Y-100116003D01*
X280733202Y-100119878D01*
X280717428Y-100122218D01*
X280701500Y-100123000D01*
X279551500Y-100123000D01*
X279535572Y-100122218D01*
X279519798Y-100119878D01*
X279504329Y-100116003D01*
X279489314Y-100110630D01*
X279474898Y-100103812D01*
X279461220Y-100095614D01*
X279448411Y-100086114D01*
X279436595Y-100075405D01*
X279425886Y-100063589D01*
X279416386Y-100050780D01*
X279408188Y-100037102D01*
X279401370Y-100022686D01*
X279395997Y-100007671D01*
X279392122Y-99992202D01*
X279389782Y-99976428D01*
X279389000Y-99960500D01*
X279389000Y-99635500D01*
X279389782Y-99619572D01*
X279392122Y-99603798D01*
X279395997Y-99588329D01*
X279401370Y-99573314D01*
X279408188Y-99558898D01*
X279416386Y-99545220D01*
X279425886Y-99532411D01*
X279436595Y-99520595D01*
X279448411Y-99509886D01*
X279461220Y-99500386D01*
X279474898Y-99492188D01*
X279489314Y-99485370D01*
X279504329Y-99479997D01*
X279519798Y-99476122D01*
X279535572Y-99473782D01*
X279551500Y-99473000D01*
X280701500Y-99473000D01*
X280717428Y-99473782D01*
G37*
G36*
X280717428Y-98973782D02*
G01*
X280733202Y-98976122D01*
X280748671Y-98979997D01*
X280763686Y-98985370D01*
X280778102Y-98992188D01*
X280791780Y-99000386D01*
X280804589Y-99009886D01*
X280816405Y-99020595D01*
X280827114Y-99032411D01*
X280836614Y-99045220D01*
X280844812Y-99058898D01*
X280851630Y-99073314D01*
X280857003Y-99088329D01*
X280860878Y-99103798D01*
X280863218Y-99119572D01*
X280864000Y-99135500D01*
X280864000Y-99460500D01*
X280863218Y-99476428D01*
X280860878Y-99492202D01*
X280857003Y-99507671D01*
X280851630Y-99522686D01*
X280844812Y-99537102D01*
X280836614Y-99550780D01*
X280827114Y-99563589D01*
X280816405Y-99575405D01*
X280804589Y-99586114D01*
X280791780Y-99595614D01*
X280778102Y-99603812D01*
X280763686Y-99610630D01*
X280748671Y-99616003D01*
X280733202Y-99619878D01*
X280717428Y-99622218D01*
X280701500Y-99623000D01*
X279551500Y-99623000D01*
X279535572Y-99622218D01*
X279519798Y-99619878D01*
X279504329Y-99616003D01*
X279489314Y-99610630D01*
X279474898Y-99603812D01*
X279461220Y-99595614D01*
X279448411Y-99586114D01*
X279436595Y-99575405D01*
X279425886Y-99563589D01*
X279416386Y-99550780D01*
X279408188Y-99537102D01*
X279401370Y-99522686D01*
X279395997Y-99507671D01*
X279392122Y-99492202D01*
X279389782Y-99476428D01*
X279389000Y-99460500D01*
X279389000Y-99135500D01*
X279389782Y-99119572D01*
X279392122Y-99103798D01*
X279395997Y-99088329D01*
X279401370Y-99073314D01*
X279408188Y-99058898D01*
X279416386Y-99045220D01*
X279425886Y-99032411D01*
X279436595Y-99020595D01*
X279448411Y-99009886D01*
X279461220Y-99000386D01*
X279474898Y-98992188D01*
X279489314Y-98985370D01*
X279504329Y-98979997D01*
X279519798Y-98976122D01*
X279535572Y-98973782D01*
X279551500Y-98973000D01*
X280701500Y-98973000D01*
X280717428Y-98973782D01*
G37*
G36*
X280717428Y-98473782D02*
G01*
X280733202Y-98476122D01*
X280748671Y-98479997D01*
X280763686Y-98485370D01*
X280778102Y-98492188D01*
X280791780Y-98500386D01*
X280804589Y-98509886D01*
X280816405Y-98520595D01*
X280827114Y-98532411D01*
X280836614Y-98545220D01*
X280844812Y-98558898D01*
X280851630Y-98573314D01*
X280857003Y-98588329D01*
X280860878Y-98603798D01*
X280863218Y-98619572D01*
X280864000Y-98635500D01*
X280864000Y-98960500D01*
X280863218Y-98976428D01*
X280860878Y-98992202D01*
X280857003Y-99007671D01*
X280851630Y-99022686D01*
X280844812Y-99037102D01*
X280836614Y-99050780D01*
X280827114Y-99063589D01*
X280816405Y-99075405D01*
X280804589Y-99086114D01*
X280791780Y-99095614D01*
X280778102Y-99103812D01*
X280763686Y-99110630D01*
X280748671Y-99116003D01*
X280733202Y-99119878D01*
X280717428Y-99122218D01*
X280701500Y-99123000D01*
X279551500Y-99123000D01*
X279535572Y-99122218D01*
X279519798Y-99119878D01*
X279504329Y-99116003D01*
X279489314Y-99110630D01*
X279474898Y-99103812D01*
X279461220Y-99095614D01*
X279448411Y-99086114D01*
X279436595Y-99075405D01*
X279425886Y-99063589D01*
X279416386Y-99050780D01*
X279408188Y-99037102D01*
X279401370Y-99022686D01*
X279395997Y-99007671D01*
X279392122Y-98992202D01*
X279389782Y-98976428D01*
X279389000Y-98960500D01*
X279389000Y-98635500D01*
X279389782Y-98619572D01*
X279392122Y-98603798D01*
X279395997Y-98588329D01*
X279401370Y-98573314D01*
X279408188Y-98558898D01*
X279416386Y-98545220D01*
X279425886Y-98532411D01*
X279436595Y-98520595D01*
X279448411Y-98509886D01*
X279461220Y-98500386D01*
X279474898Y-98492188D01*
X279489314Y-98485370D01*
X279504329Y-98479997D01*
X279519798Y-98476122D01*
X279535572Y-98473782D01*
X279551500Y-98473000D01*
X280701500Y-98473000D01*
X280717428Y-98473782D01*
G37*
G36*
X280717428Y-97973782D02*
G01*
X280733202Y-97976122D01*
X280748671Y-97979997D01*
X280763686Y-97985370D01*
X280778102Y-97992188D01*
X280791780Y-98000386D01*
X280804589Y-98009886D01*
X280816405Y-98020595D01*
X280827114Y-98032411D01*
X280836614Y-98045220D01*
X280844812Y-98058898D01*
X280851630Y-98073314D01*
X280857003Y-98088329D01*
X280860878Y-98103798D01*
X280863218Y-98119572D01*
X280864000Y-98135500D01*
X280864000Y-98460500D01*
X280863218Y-98476428D01*
X280860878Y-98492202D01*
X280857003Y-98507671D01*
X280851630Y-98522686D01*
X280844812Y-98537102D01*
X280836614Y-98550780D01*
X280827114Y-98563589D01*
X280816405Y-98575405D01*
X280804589Y-98586114D01*
X280791780Y-98595614D01*
X280778102Y-98603812D01*
X280763686Y-98610630D01*
X280748671Y-98616003D01*
X280733202Y-98619878D01*
X280717428Y-98622218D01*
X280701500Y-98623000D01*
X279551500Y-98623000D01*
X279535572Y-98622218D01*
X279519798Y-98619878D01*
X279504329Y-98616003D01*
X279489314Y-98610630D01*
X279474898Y-98603812D01*
X279461220Y-98595614D01*
X279448411Y-98586114D01*
X279436595Y-98575405D01*
X279425886Y-98563589D01*
X279416386Y-98550780D01*
X279408188Y-98537102D01*
X279401370Y-98522686D01*
X279395997Y-98507671D01*
X279392122Y-98492202D01*
X279389782Y-98476428D01*
X279389000Y-98460500D01*
X279389000Y-98135500D01*
X279389782Y-98119572D01*
X279392122Y-98103798D01*
X279395997Y-98088329D01*
X279401370Y-98073314D01*
X279408188Y-98058898D01*
X279416386Y-98045220D01*
X279425886Y-98032411D01*
X279436595Y-98020595D01*
X279448411Y-98009886D01*
X279461220Y-98000386D01*
X279474898Y-97992188D01*
X279489314Y-97985370D01*
X279504329Y-97979997D01*
X279519798Y-97976122D01*
X279535572Y-97973782D01*
X279551500Y-97973000D01*
X280701500Y-97973000D01*
X280717428Y-97973782D01*
G37*
G36*
X280717428Y-97473782D02*
G01*
X280733202Y-97476122D01*
X280748671Y-97479997D01*
X280763686Y-97485370D01*
X280778102Y-97492188D01*
X280791780Y-97500386D01*
X280804589Y-97509886D01*
X280816405Y-97520595D01*
X280827114Y-97532411D01*
X280836614Y-97545220D01*
X280844812Y-97558898D01*
X280851630Y-97573314D01*
X280857003Y-97588329D01*
X280860878Y-97603798D01*
X280863218Y-97619572D01*
X280864000Y-97635500D01*
X280864000Y-97960500D01*
X280863218Y-97976428D01*
X280860878Y-97992202D01*
X280857003Y-98007671D01*
X280851630Y-98022686D01*
X280844812Y-98037102D01*
X280836614Y-98050780D01*
X280827114Y-98063589D01*
X280816405Y-98075405D01*
X280804589Y-98086114D01*
X280791780Y-98095614D01*
X280778102Y-98103812D01*
X280763686Y-98110630D01*
X280748671Y-98116003D01*
X280733202Y-98119878D01*
X280717428Y-98122218D01*
X280701500Y-98123000D01*
X279551500Y-98123000D01*
X279535572Y-98122218D01*
X279519798Y-98119878D01*
X279504329Y-98116003D01*
X279489314Y-98110630D01*
X279474898Y-98103812D01*
X279461220Y-98095614D01*
X279448411Y-98086114D01*
X279436595Y-98075405D01*
X279425886Y-98063589D01*
X279416386Y-98050780D01*
X279408188Y-98037102D01*
X279401370Y-98022686D01*
X279395997Y-98007671D01*
X279392122Y-97992202D01*
X279389782Y-97976428D01*
X279389000Y-97960500D01*
X279389000Y-97635500D01*
X279389782Y-97619572D01*
X279392122Y-97603798D01*
X279395997Y-97588329D01*
X279401370Y-97573314D01*
X279408188Y-97558898D01*
X279416386Y-97545220D01*
X279425886Y-97532411D01*
X279436595Y-97520595D01*
X279448411Y-97509886D01*
X279461220Y-97500386D01*
X279474898Y-97492188D01*
X279489314Y-97485370D01*
X279504329Y-97479997D01*
X279519798Y-97476122D01*
X279535572Y-97473782D01*
X279551500Y-97473000D01*
X280701500Y-97473000D01*
X280717428Y-97473782D01*
G37*
G36*
X280717428Y-96973782D02*
G01*
X280733202Y-96976122D01*
X280748671Y-96979997D01*
X280763686Y-96985370D01*
X280778102Y-96992188D01*
X280791780Y-97000386D01*
X280804589Y-97009886D01*
X280816405Y-97020595D01*
X280827114Y-97032411D01*
X280836614Y-97045220D01*
X280844812Y-97058898D01*
X280851630Y-97073314D01*
X280857003Y-97088329D01*
X280860878Y-97103798D01*
X280863218Y-97119572D01*
X280864000Y-97135500D01*
X280864000Y-97460500D01*
X280863218Y-97476428D01*
X280860878Y-97492202D01*
X280857003Y-97507671D01*
X280851630Y-97522686D01*
X280844812Y-97537102D01*
X280836614Y-97550780D01*
X280827114Y-97563589D01*
X280816405Y-97575405D01*
X280804589Y-97586114D01*
X280791780Y-97595614D01*
X280778102Y-97603812D01*
X280763686Y-97610630D01*
X280748671Y-97616003D01*
X280733202Y-97619878D01*
X280717428Y-97622218D01*
X280701500Y-97623000D01*
X279551500Y-97623000D01*
X279535572Y-97622218D01*
X279519798Y-97619878D01*
X279504329Y-97616003D01*
X279489314Y-97610630D01*
X279474898Y-97603812D01*
X279461220Y-97595614D01*
X279448411Y-97586114D01*
X279436595Y-97575405D01*
X279425886Y-97563589D01*
X279416386Y-97550780D01*
X279408188Y-97537102D01*
X279401370Y-97522686D01*
X279395997Y-97507671D01*
X279392122Y-97492202D01*
X279389782Y-97476428D01*
X279389000Y-97460500D01*
X279389000Y-97135500D01*
X279389782Y-97119572D01*
X279392122Y-97103798D01*
X279395997Y-97088329D01*
X279401370Y-97073314D01*
X279408188Y-97058898D01*
X279416386Y-97045220D01*
X279425886Y-97032411D01*
X279436595Y-97020595D01*
X279448411Y-97009886D01*
X279461220Y-97000386D01*
X279474898Y-96992188D01*
X279489314Y-96985370D01*
X279504329Y-96979997D01*
X279519798Y-96976122D01*
X279535572Y-96973782D01*
X279551500Y-96973000D01*
X280701500Y-96973000D01*
X280717428Y-96973782D01*
G37*
G36*
X280717428Y-96473782D02*
G01*
X280733202Y-96476122D01*
X280748671Y-96479997D01*
X280763686Y-96485370D01*
X280778102Y-96492188D01*
X280791780Y-96500386D01*
X280804589Y-96509886D01*
X280816405Y-96520595D01*
X280827114Y-96532411D01*
X280836614Y-96545220D01*
X280844812Y-96558898D01*
X280851630Y-96573314D01*
X280857003Y-96588329D01*
X280860878Y-96603798D01*
X280863218Y-96619572D01*
X280864000Y-96635500D01*
X280864000Y-96960500D01*
X280863218Y-96976428D01*
X280860878Y-96992202D01*
X280857003Y-97007671D01*
X280851630Y-97022686D01*
X280844812Y-97037102D01*
X280836614Y-97050780D01*
X280827114Y-97063589D01*
X280816405Y-97075405D01*
X280804589Y-97086114D01*
X280791780Y-97095614D01*
X280778102Y-97103812D01*
X280763686Y-97110630D01*
X280748671Y-97116003D01*
X280733202Y-97119878D01*
X280717428Y-97122218D01*
X280701500Y-97123000D01*
X279551500Y-97123000D01*
X279535572Y-97122218D01*
X279519798Y-97119878D01*
X279504329Y-97116003D01*
X279489314Y-97110630D01*
X279474898Y-97103812D01*
X279461220Y-97095614D01*
X279448411Y-97086114D01*
X279436595Y-97075405D01*
X279425886Y-97063589D01*
X279416386Y-97050780D01*
X279408188Y-97037102D01*
X279401370Y-97022686D01*
X279395997Y-97007671D01*
X279392122Y-96992202D01*
X279389782Y-96976428D01*
X279389000Y-96960500D01*
X279389000Y-96635500D01*
X279389782Y-96619572D01*
X279392122Y-96603798D01*
X279395997Y-96588329D01*
X279401370Y-96573314D01*
X279408188Y-96558898D01*
X279416386Y-96545220D01*
X279425886Y-96532411D01*
X279436595Y-96520595D01*
X279448411Y-96509886D01*
X279461220Y-96500386D01*
X279474898Y-96492188D01*
X279489314Y-96485370D01*
X279504329Y-96479997D01*
X279519798Y-96476122D01*
X279535572Y-96473782D01*
X279551500Y-96473000D01*
X280701500Y-96473000D01*
X280717428Y-96473782D01*
G37*
G36*
X280717428Y-95973782D02*
G01*
X280733202Y-95976122D01*
X280748671Y-95979997D01*
X280763686Y-95985370D01*
X280778102Y-95992188D01*
X280791780Y-96000386D01*
X280804589Y-96009886D01*
X280816405Y-96020595D01*
X280827114Y-96032411D01*
X280836614Y-96045220D01*
X280844812Y-96058898D01*
X280851630Y-96073314D01*
X280857003Y-96088329D01*
X280860878Y-96103798D01*
X280863218Y-96119572D01*
X280864000Y-96135500D01*
X280864000Y-96460500D01*
X280863218Y-96476428D01*
X280860878Y-96492202D01*
X280857003Y-96507671D01*
X280851630Y-96522686D01*
X280844812Y-96537102D01*
X280836614Y-96550780D01*
X280827114Y-96563589D01*
X280816405Y-96575405D01*
X280804589Y-96586114D01*
X280791780Y-96595614D01*
X280778102Y-96603812D01*
X280763686Y-96610630D01*
X280748671Y-96616003D01*
X280733202Y-96619878D01*
X280717428Y-96622218D01*
X280701500Y-96623000D01*
X279551500Y-96623000D01*
X279535572Y-96622218D01*
X279519798Y-96619878D01*
X279504329Y-96616003D01*
X279489314Y-96610630D01*
X279474898Y-96603812D01*
X279461220Y-96595614D01*
X279448411Y-96586114D01*
X279436595Y-96575405D01*
X279425886Y-96563589D01*
X279416386Y-96550780D01*
X279408188Y-96537102D01*
X279401370Y-96522686D01*
X279395997Y-96507671D01*
X279392122Y-96492202D01*
X279389782Y-96476428D01*
X279389000Y-96460500D01*
X279389000Y-96135500D01*
X279389782Y-96119572D01*
X279392122Y-96103798D01*
X279395997Y-96088329D01*
X279401370Y-96073314D01*
X279408188Y-96058898D01*
X279416386Y-96045220D01*
X279425886Y-96032411D01*
X279436595Y-96020595D01*
X279448411Y-96009886D01*
X279461220Y-96000386D01*
X279474898Y-95992188D01*
X279489314Y-95985370D01*
X279504329Y-95979997D01*
X279519798Y-95976122D01*
X279535572Y-95973782D01*
X279551500Y-95973000D01*
X280701500Y-95973000D01*
X280717428Y-95973782D01*
G37*
G36*
X280717428Y-95473782D02*
G01*
X280733202Y-95476122D01*
X280748671Y-95479997D01*
X280763686Y-95485370D01*
X280778102Y-95492188D01*
X280791780Y-95500386D01*
X280804589Y-95509886D01*
X280816405Y-95520595D01*
X280827114Y-95532411D01*
X280836614Y-95545220D01*
X280844812Y-95558898D01*
X280851630Y-95573314D01*
X280857003Y-95588329D01*
X280860878Y-95603798D01*
X280863218Y-95619572D01*
X280864000Y-95635500D01*
X280864000Y-95960500D01*
X280863218Y-95976428D01*
X280860878Y-95992202D01*
X280857003Y-96007671D01*
X280851630Y-96022686D01*
X280844812Y-96037102D01*
X280836614Y-96050780D01*
X280827114Y-96063589D01*
X280816405Y-96075405D01*
X280804589Y-96086114D01*
X280791780Y-96095614D01*
X280778102Y-96103812D01*
X280763686Y-96110630D01*
X280748671Y-96116003D01*
X280733202Y-96119878D01*
X280717428Y-96122218D01*
X280701500Y-96123000D01*
X279551500Y-96123000D01*
X279535572Y-96122218D01*
X279519798Y-96119878D01*
X279504329Y-96116003D01*
X279489314Y-96110630D01*
X279474898Y-96103812D01*
X279461220Y-96095614D01*
X279448411Y-96086114D01*
X279436595Y-96075405D01*
X279425886Y-96063589D01*
X279416386Y-96050780D01*
X279408188Y-96037102D01*
X279401370Y-96022686D01*
X279395997Y-96007671D01*
X279392122Y-95992202D01*
X279389782Y-95976428D01*
X279389000Y-95960500D01*
X279389000Y-95635500D01*
X279389782Y-95619572D01*
X279392122Y-95603798D01*
X279395997Y-95588329D01*
X279401370Y-95573314D01*
X279408188Y-95558898D01*
X279416386Y-95545220D01*
X279425886Y-95532411D01*
X279436595Y-95520595D01*
X279448411Y-95509886D01*
X279461220Y-95500386D01*
X279474898Y-95492188D01*
X279489314Y-95485370D01*
X279504329Y-95479997D01*
X279519798Y-95476122D01*
X279535572Y-95473782D01*
X279551500Y-95473000D01*
X280701500Y-95473000D01*
X280717428Y-95473782D01*
G37*
G36*
X281142428Y-94223782D02*
G01*
X281158202Y-94226122D01*
X281173671Y-94229997D01*
X281188686Y-94235370D01*
X281203102Y-94242188D01*
X281216780Y-94250386D01*
X281229589Y-94259886D01*
X281241405Y-94270595D01*
X281252114Y-94282411D01*
X281261614Y-94295220D01*
X281269812Y-94308898D01*
X281276630Y-94323314D01*
X281282003Y-94338329D01*
X281285878Y-94353798D01*
X281288218Y-94369572D01*
X281289000Y-94385500D01*
X281289000Y-95535500D01*
X281288218Y-95551428D01*
X281285878Y-95567202D01*
X281282003Y-95582671D01*
X281276630Y-95597686D01*
X281269812Y-95612102D01*
X281261614Y-95625780D01*
X281252114Y-95638589D01*
X281241405Y-95650405D01*
X281229589Y-95661114D01*
X281216780Y-95670614D01*
X281203102Y-95678812D01*
X281188686Y-95685630D01*
X281173671Y-95691003D01*
X281158202Y-95694878D01*
X281142428Y-95697218D01*
X281126500Y-95698000D01*
X280801500Y-95698000D01*
X280785572Y-95697218D01*
X280769798Y-95694878D01*
X280754329Y-95691003D01*
X280739314Y-95685630D01*
X280724898Y-95678812D01*
X280711220Y-95670614D01*
X280698411Y-95661114D01*
X280686595Y-95650405D01*
X280675886Y-95638589D01*
X280666386Y-95625780D01*
X280658188Y-95612102D01*
X280651370Y-95597686D01*
X280645997Y-95582671D01*
X280642122Y-95567202D01*
X280639782Y-95551428D01*
X280639000Y-95535500D01*
X280639000Y-94385500D01*
X280639782Y-94369572D01*
X280642122Y-94353798D01*
X280645997Y-94338329D01*
X280651370Y-94323314D01*
X280658188Y-94308898D01*
X280666386Y-94295220D01*
X280675886Y-94282411D01*
X280686595Y-94270595D01*
X280698411Y-94259886D01*
X280711220Y-94250386D01*
X280724898Y-94242188D01*
X280739314Y-94235370D01*
X280754329Y-94229997D01*
X280769798Y-94226122D01*
X280785572Y-94223782D01*
X280801500Y-94223000D01*
X281126500Y-94223000D01*
X281142428Y-94223782D01*
G37*
G36*
X281642428Y-94223782D02*
G01*
X281658202Y-94226122D01*
X281673671Y-94229997D01*
X281688686Y-94235370D01*
X281703102Y-94242188D01*
X281716780Y-94250386D01*
X281729589Y-94259886D01*
X281741405Y-94270595D01*
X281752114Y-94282411D01*
X281761614Y-94295220D01*
X281769812Y-94308898D01*
X281776630Y-94323314D01*
X281782003Y-94338329D01*
X281785878Y-94353798D01*
X281788218Y-94369572D01*
X281789000Y-94385500D01*
X281789000Y-95535500D01*
X281788218Y-95551428D01*
X281785878Y-95567202D01*
X281782003Y-95582671D01*
X281776630Y-95597686D01*
X281769812Y-95612102D01*
X281761614Y-95625780D01*
X281752114Y-95638589D01*
X281741405Y-95650405D01*
X281729589Y-95661114D01*
X281716780Y-95670614D01*
X281703102Y-95678812D01*
X281688686Y-95685630D01*
X281673671Y-95691003D01*
X281658202Y-95694878D01*
X281642428Y-95697218D01*
X281626500Y-95698000D01*
X281301500Y-95698000D01*
X281285572Y-95697218D01*
X281269798Y-95694878D01*
X281254329Y-95691003D01*
X281239314Y-95685630D01*
X281224898Y-95678812D01*
X281211220Y-95670614D01*
X281198411Y-95661114D01*
X281186595Y-95650405D01*
X281175886Y-95638589D01*
X281166386Y-95625780D01*
X281158188Y-95612102D01*
X281151370Y-95597686D01*
X281145997Y-95582671D01*
X281142122Y-95567202D01*
X281139782Y-95551428D01*
X281139000Y-95535500D01*
X281139000Y-94385500D01*
X281139782Y-94369572D01*
X281142122Y-94353798D01*
X281145997Y-94338329D01*
X281151370Y-94323314D01*
X281158188Y-94308898D01*
X281166386Y-94295220D01*
X281175886Y-94282411D01*
X281186595Y-94270595D01*
X281198411Y-94259886D01*
X281211220Y-94250386D01*
X281224898Y-94242188D01*
X281239314Y-94235370D01*
X281254329Y-94229997D01*
X281269798Y-94226122D01*
X281285572Y-94223782D01*
X281301500Y-94223000D01*
X281626500Y-94223000D01*
X281642428Y-94223782D01*
G37*
G36*
X282142428Y-94223782D02*
G01*
X282158202Y-94226122D01*
X282173671Y-94229997D01*
X282188686Y-94235370D01*
X282203102Y-94242188D01*
X282216780Y-94250386D01*
X282229589Y-94259886D01*
X282241405Y-94270595D01*
X282252114Y-94282411D01*
X282261614Y-94295220D01*
X282269812Y-94308898D01*
X282276630Y-94323314D01*
X282282003Y-94338329D01*
X282285878Y-94353798D01*
X282288218Y-94369572D01*
X282289000Y-94385500D01*
X282289000Y-95535500D01*
X282288218Y-95551428D01*
X282285878Y-95567202D01*
X282282003Y-95582671D01*
X282276630Y-95597686D01*
X282269812Y-95612102D01*
X282261614Y-95625780D01*
X282252114Y-95638589D01*
X282241405Y-95650405D01*
X282229589Y-95661114D01*
X282216780Y-95670614D01*
X282203102Y-95678812D01*
X282188686Y-95685630D01*
X282173671Y-95691003D01*
X282158202Y-95694878D01*
X282142428Y-95697218D01*
X282126500Y-95698000D01*
X281801500Y-95698000D01*
X281785572Y-95697218D01*
X281769798Y-95694878D01*
X281754329Y-95691003D01*
X281739314Y-95685630D01*
X281724898Y-95678812D01*
X281711220Y-95670614D01*
X281698411Y-95661114D01*
X281686595Y-95650405D01*
X281675886Y-95638589D01*
X281666386Y-95625780D01*
X281658188Y-95612102D01*
X281651370Y-95597686D01*
X281645997Y-95582671D01*
X281642122Y-95567202D01*
X281639782Y-95551428D01*
X281639000Y-95535500D01*
X281639000Y-94385500D01*
X281639782Y-94369572D01*
X281642122Y-94353798D01*
X281645997Y-94338329D01*
X281651370Y-94323314D01*
X281658188Y-94308898D01*
X281666386Y-94295220D01*
X281675886Y-94282411D01*
X281686595Y-94270595D01*
X281698411Y-94259886D01*
X281711220Y-94250386D01*
X281724898Y-94242188D01*
X281739314Y-94235370D01*
X281754329Y-94229997D01*
X281769798Y-94226122D01*
X281785572Y-94223782D01*
X281801500Y-94223000D01*
X282126500Y-94223000D01*
X282142428Y-94223782D01*
G37*
G36*
X282642428Y-94223782D02*
G01*
X282658202Y-94226122D01*
X282673671Y-94229997D01*
X282688686Y-94235370D01*
X282703102Y-94242188D01*
X282716780Y-94250386D01*
X282729589Y-94259886D01*
X282741405Y-94270595D01*
X282752114Y-94282411D01*
X282761614Y-94295220D01*
X282769812Y-94308898D01*
X282776630Y-94323314D01*
X282782003Y-94338329D01*
X282785878Y-94353798D01*
X282788218Y-94369572D01*
X282789000Y-94385500D01*
X282789000Y-95535500D01*
X282788218Y-95551428D01*
X282785878Y-95567202D01*
X282782003Y-95582671D01*
X282776630Y-95597686D01*
X282769812Y-95612102D01*
X282761614Y-95625780D01*
X282752114Y-95638589D01*
X282741405Y-95650405D01*
X282729589Y-95661114D01*
X282716780Y-95670614D01*
X282703102Y-95678812D01*
X282688686Y-95685630D01*
X282673671Y-95691003D01*
X282658202Y-95694878D01*
X282642428Y-95697218D01*
X282626500Y-95698000D01*
X282301500Y-95698000D01*
X282285572Y-95697218D01*
X282269798Y-95694878D01*
X282254329Y-95691003D01*
X282239314Y-95685630D01*
X282224898Y-95678812D01*
X282211220Y-95670614D01*
X282198411Y-95661114D01*
X282186595Y-95650405D01*
X282175886Y-95638589D01*
X282166386Y-95625780D01*
X282158188Y-95612102D01*
X282151370Y-95597686D01*
X282145997Y-95582671D01*
X282142122Y-95567202D01*
X282139782Y-95551428D01*
X282139000Y-95535500D01*
X282139000Y-94385500D01*
X282139782Y-94369572D01*
X282142122Y-94353798D01*
X282145997Y-94338329D01*
X282151370Y-94323314D01*
X282158188Y-94308898D01*
X282166386Y-94295220D01*
X282175886Y-94282411D01*
X282186595Y-94270595D01*
X282198411Y-94259886D01*
X282211220Y-94250386D01*
X282224898Y-94242188D01*
X282239314Y-94235370D01*
X282254329Y-94229997D01*
X282269798Y-94226122D01*
X282285572Y-94223782D01*
X282301500Y-94223000D01*
X282626500Y-94223000D01*
X282642428Y-94223782D01*
G37*
G36*
X283142428Y-94223782D02*
G01*
X283158202Y-94226122D01*
X283173671Y-94229997D01*
X283188686Y-94235370D01*
X283203102Y-94242188D01*
X283216780Y-94250386D01*
X283229589Y-94259886D01*
X283241405Y-94270595D01*
X283252114Y-94282411D01*
X283261614Y-94295220D01*
X283269812Y-94308898D01*
X283276630Y-94323314D01*
X283282003Y-94338329D01*
X283285878Y-94353798D01*
X283288218Y-94369572D01*
X283289000Y-94385500D01*
X283289000Y-95535500D01*
X283288218Y-95551428D01*
X283285878Y-95567202D01*
X283282003Y-95582671D01*
X283276630Y-95597686D01*
X283269812Y-95612102D01*
X283261614Y-95625780D01*
X283252114Y-95638589D01*
X283241405Y-95650405D01*
X283229589Y-95661114D01*
X283216780Y-95670614D01*
X283203102Y-95678812D01*
X283188686Y-95685630D01*
X283173671Y-95691003D01*
X283158202Y-95694878D01*
X283142428Y-95697218D01*
X283126500Y-95698000D01*
X282801500Y-95698000D01*
X282785572Y-95697218D01*
X282769798Y-95694878D01*
X282754329Y-95691003D01*
X282739314Y-95685630D01*
X282724898Y-95678812D01*
X282711220Y-95670614D01*
X282698411Y-95661114D01*
X282686595Y-95650405D01*
X282675886Y-95638589D01*
X282666386Y-95625780D01*
X282658188Y-95612102D01*
X282651370Y-95597686D01*
X282645997Y-95582671D01*
X282642122Y-95567202D01*
X282639782Y-95551428D01*
X282639000Y-95535500D01*
X282639000Y-94385500D01*
X282639782Y-94369572D01*
X282642122Y-94353798D01*
X282645997Y-94338329D01*
X282651370Y-94323314D01*
X282658188Y-94308898D01*
X282666386Y-94295220D01*
X282675886Y-94282411D01*
X282686595Y-94270595D01*
X282698411Y-94259886D01*
X282711220Y-94250386D01*
X282724898Y-94242188D01*
X282739314Y-94235370D01*
X282754329Y-94229997D01*
X282769798Y-94226122D01*
X282785572Y-94223782D01*
X282801500Y-94223000D01*
X283126500Y-94223000D01*
X283142428Y-94223782D01*
G37*
G36*
X283642428Y-94223782D02*
G01*
X283658202Y-94226122D01*
X283673671Y-94229997D01*
X283688686Y-94235370D01*
X283703102Y-94242188D01*
X283716780Y-94250386D01*
X283729589Y-94259886D01*
X283741405Y-94270595D01*
X283752114Y-94282411D01*
X283761614Y-94295220D01*
X283769812Y-94308898D01*
X283776630Y-94323314D01*
X283782003Y-94338329D01*
X283785878Y-94353798D01*
X283788218Y-94369572D01*
X283789000Y-94385500D01*
X283789000Y-95535500D01*
X283788218Y-95551428D01*
X283785878Y-95567202D01*
X283782003Y-95582671D01*
X283776630Y-95597686D01*
X283769812Y-95612102D01*
X283761614Y-95625780D01*
X283752114Y-95638589D01*
X283741405Y-95650405D01*
X283729589Y-95661114D01*
X283716780Y-95670614D01*
X283703102Y-95678812D01*
X283688686Y-95685630D01*
X283673671Y-95691003D01*
X283658202Y-95694878D01*
X283642428Y-95697218D01*
X283626500Y-95698000D01*
X283301500Y-95698000D01*
X283285572Y-95697218D01*
X283269798Y-95694878D01*
X283254329Y-95691003D01*
X283239314Y-95685630D01*
X283224898Y-95678812D01*
X283211220Y-95670614D01*
X283198411Y-95661114D01*
X283186595Y-95650405D01*
X283175886Y-95638589D01*
X283166386Y-95625780D01*
X283158188Y-95612102D01*
X283151370Y-95597686D01*
X283145997Y-95582671D01*
X283142122Y-95567202D01*
X283139782Y-95551428D01*
X283139000Y-95535500D01*
X283139000Y-94385500D01*
X283139782Y-94369572D01*
X283142122Y-94353798D01*
X283145997Y-94338329D01*
X283151370Y-94323314D01*
X283158188Y-94308898D01*
X283166386Y-94295220D01*
X283175886Y-94282411D01*
X283186595Y-94270595D01*
X283198411Y-94259886D01*
X283211220Y-94250386D01*
X283224898Y-94242188D01*
X283239314Y-94235370D01*
X283254329Y-94229997D01*
X283269798Y-94226122D01*
X283285572Y-94223782D01*
X283301500Y-94223000D01*
X283626500Y-94223000D01*
X283642428Y-94223782D01*
G37*
G36*
X284142428Y-94223782D02*
G01*
X284158202Y-94226122D01*
X284173671Y-94229997D01*
X284188686Y-94235370D01*
X284203102Y-94242188D01*
X284216780Y-94250386D01*
X284229589Y-94259886D01*
X284241405Y-94270595D01*
X284252114Y-94282411D01*
X284261614Y-94295220D01*
X284269812Y-94308898D01*
X284276630Y-94323314D01*
X284282003Y-94338329D01*
X284285878Y-94353798D01*
X284288218Y-94369572D01*
X284289000Y-94385500D01*
X284289000Y-95535500D01*
X284288218Y-95551428D01*
X284285878Y-95567202D01*
X284282003Y-95582671D01*
X284276630Y-95597686D01*
X284269812Y-95612102D01*
X284261614Y-95625780D01*
X284252114Y-95638589D01*
X284241405Y-95650405D01*
X284229589Y-95661114D01*
X284216780Y-95670614D01*
X284203102Y-95678812D01*
X284188686Y-95685630D01*
X284173671Y-95691003D01*
X284158202Y-95694878D01*
X284142428Y-95697218D01*
X284126500Y-95698000D01*
X283801500Y-95698000D01*
X283785572Y-95697218D01*
X283769798Y-95694878D01*
X283754329Y-95691003D01*
X283739314Y-95685630D01*
X283724898Y-95678812D01*
X283711220Y-95670614D01*
X283698411Y-95661114D01*
X283686595Y-95650405D01*
X283675886Y-95638589D01*
X283666386Y-95625780D01*
X283658188Y-95612102D01*
X283651370Y-95597686D01*
X283645997Y-95582671D01*
X283642122Y-95567202D01*
X283639782Y-95551428D01*
X283639000Y-95535500D01*
X283639000Y-94385500D01*
X283639782Y-94369572D01*
X283642122Y-94353798D01*
X283645997Y-94338329D01*
X283651370Y-94323314D01*
X283658188Y-94308898D01*
X283666386Y-94295220D01*
X283675886Y-94282411D01*
X283686595Y-94270595D01*
X283698411Y-94259886D01*
X283711220Y-94250386D01*
X283724898Y-94242188D01*
X283739314Y-94235370D01*
X283754329Y-94229997D01*
X283769798Y-94226122D01*
X283785572Y-94223782D01*
X283801500Y-94223000D01*
X284126500Y-94223000D01*
X284142428Y-94223782D01*
G37*
G36*
X284642428Y-94223782D02*
G01*
X284658202Y-94226122D01*
X284673671Y-94229997D01*
X284688686Y-94235370D01*
X284703102Y-94242188D01*
X284716780Y-94250386D01*
X284729589Y-94259886D01*
X284741405Y-94270595D01*
X284752114Y-94282411D01*
X284761614Y-94295220D01*
X284769812Y-94308898D01*
X284776630Y-94323314D01*
X284782003Y-94338329D01*
X284785878Y-94353798D01*
X284788218Y-94369572D01*
X284789000Y-94385500D01*
X284789000Y-95535500D01*
X284788218Y-95551428D01*
X284785878Y-95567202D01*
X284782003Y-95582671D01*
X284776630Y-95597686D01*
X284769812Y-95612102D01*
X284761614Y-95625780D01*
X284752114Y-95638589D01*
X284741405Y-95650405D01*
X284729589Y-95661114D01*
X284716780Y-95670614D01*
X284703102Y-95678812D01*
X284688686Y-95685630D01*
X284673671Y-95691003D01*
X284658202Y-95694878D01*
X284642428Y-95697218D01*
X284626500Y-95698000D01*
X284301500Y-95698000D01*
X284285572Y-95697218D01*
X284269798Y-95694878D01*
X284254329Y-95691003D01*
X284239314Y-95685630D01*
X284224898Y-95678812D01*
X284211220Y-95670614D01*
X284198411Y-95661114D01*
X284186595Y-95650405D01*
X284175886Y-95638589D01*
X284166386Y-95625780D01*
X284158188Y-95612102D01*
X284151370Y-95597686D01*
X284145997Y-95582671D01*
X284142122Y-95567202D01*
X284139782Y-95551428D01*
X284139000Y-95535500D01*
X284139000Y-94385500D01*
X284139782Y-94369572D01*
X284142122Y-94353798D01*
X284145997Y-94338329D01*
X284151370Y-94323314D01*
X284158188Y-94308898D01*
X284166386Y-94295220D01*
X284175886Y-94282411D01*
X284186595Y-94270595D01*
X284198411Y-94259886D01*
X284211220Y-94250386D01*
X284224898Y-94242188D01*
X284239314Y-94235370D01*
X284254329Y-94229997D01*
X284269798Y-94226122D01*
X284285572Y-94223782D01*
X284301500Y-94223000D01*
X284626500Y-94223000D01*
X284642428Y-94223782D01*
G37*
G36*
X285142428Y-94223782D02*
G01*
X285158202Y-94226122D01*
X285173671Y-94229997D01*
X285188686Y-94235370D01*
X285203102Y-94242188D01*
X285216780Y-94250386D01*
X285229589Y-94259886D01*
X285241405Y-94270595D01*
X285252114Y-94282411D01*
X285261614Y-94295220D01*
X285269812Y-94308898D01*
X285276630Y-94323314D01*
X285282003Y-94338329D01*
X285285878Y-94353798D01*
X285288218Y-94369572D01*
X285289000Y-94385500D01*
X285289000Y-95535500D01*
X285288218Y-95551428D01*
X285285878Y-95567202D01*
X285282003Y-95582671D01*
X285276630Y-95597686D01*
X285269812Y-95612102D01*
X285261614Y-95625780D01*
X285252114Y-95638589D01*
X285241405Y-95650405D01*
X285229589Y-95661114D01*
X285216780Y-95670614D01*
X285203102Y-95678812D01*
X285188686Y-95685630D01*
X285173671Y-95691003D01*
X285158202Y-95694878D01*
X285142428Y-95697218D01*
X285126500Y-95698000D01*
X284801500Y-95698000D01*
X284785572Y-95697218D01*
X284769798Y-95694878D01*
X284754329Y-95691003D01*
X284739314Y-95685630D01*
X284724898Y-95678812D01*
X284711220Y-95670614D01*
X284698411Y-95661114D01*
X284686595Y-95650405D01*
X284675886Y-95638589D01*
X284666386Y-95625780D01*
X284658188Y-95612102D01*
X284651370Y-95597686D01*
X284645997Y-95582671D01*
X284642122Y-95567202D01*
X284639782Y-95551428D01*
X284639000Y-95535500D01*
X284639000Y-94385500D01*
X284639782Y-94369572D01*
X284642122Y-94353798D01*
X284645997Y-94338329D01*
X284651370Y-94323314D01*
X284658188Y-94308898D01*
X284666386Y-94295220D01*
X284675886Y-94282411D01*
X284686595Y-94270595D01*
X284698411Y-94259886D01*
X284711220Y-94250386D01*
X284724898Y-94242188D01*
X284739314Y-94235370D01*
X284754329Y-94229997D01*
X284769798Y-94226122D01*
X284785572Y-94223782D01*
X284801500Y-94223000D01*
X285126500Y-94223000D01*
X285142428Y-94223782D01*
G37*
G36*
X285642428Y-94223782D02*
G01*
X285658202Y-94226122D01*
X285673671Y-94229997D01*
X285688686Y-94235370D01*
X285703102Y-94242188D01*
X285716780Y-94250386D01*
X285729589Y-94259886D01*
X285741405Y-94270595D01*
X285752114Y-94282411D01*
X285761614Y-94295220D01*
X285769812Y-94308898D01*
X285776630Y-94323314D01*
X285782003Y-94338329D01*
X285785878Y-94353798D01*
X285788218Y-94369572D01*
X285789000Y-94385500D01*
X285789000Y-95535500D01*
X285788218Y-95551428D01*
X285785878Y-95567202D01*
X285782003Y-95582671D01*
X285776630Y-95597686D01*
X285769812Y-95612102D01*
X285761614Y-95625780D01*
X285752114Y-95638589D01*
X285741405Y-95650405D01*
X285729589Y-95661114D01*
X285716780Y-95670614D01*
X285703102Y-95678812D01*
X285688686Y-95685630D01*
X285673671Y-95691003D01*
X285658202Y-95694878D01*
X285642428Y-95697218D01*
X285626500Y-95698000D01*
X285301500Y-95698000D01*
X285285572Y-95697218D01*
X285269798Y-95694878D01*
X285254329Y-95691003D01*
X285239314Y-95685630D01*
X285224898Y-95678812D01*
X285211220Y-95670614D01*
X285198411Y-95661114D01*
X285186595Y-95650405D01*
X285175886Y-95638589D01*
X285166386Y-95625780D01*
X285158188Y-95612102D01*
X285151370Y-95597686D01*
X285145997Y-95582671D01*
X285142122Y-95567202D01*
X285139782Y-95551428D01*
X285139000Y-95535500D01*
X285139000Y-94385500D01*
X285139782Y-94369572D01*
X285142122Y-94353798D01*
X285145997Y-94338329D01*
X285151370Y-94323314D01*
X285158188Y-94308898D01*
X285166386Y-94295220D01*
X285175886Y-94282411D01*
X285186595Y-94270595D01*
X285198411Y-94259886D01*
X285211220Y-94250386D01*
X285224898Y-94242188D01*
X285239314Y-94235370D01*
X285254329Y-94229997D01*
X285269798Y-94226122D01*
X285285572Y-94223782D01*
X285301500Y-94223000D01*
X285626500Y-94223000D01*
X285642428Y-94223782D01*
G37*
G36*
X286142428Y-94223782D02*
G01*
X286158202Y-94226122D01*
X286173671Y-94229997D01*
X286188686Y-94235370D01*
X286203102Y-94242188D01*
X286216780Y-94250386D01*
X286229589Y-94259886D01*
X286241405Y-94270595D01*
X286252114Y-94282411D01*
X286261614Y-94295220D01*
X286269812Y-94308898D01*
X286276630Y-94323314D01*
X286282003Y-94338329D01*
X286285878Y-94353798D01*
X286288218Y-94369572D01*
X286289000Y-94385500D01*
X286289000Y-95535500D01*
X286288218Y-95551428D01*
X286285878Y-95567202D01*
X286282003Y-95582671D01*
X286276630Y-95597686D01*
X286269812Y-95612102D01*
X286261614Y-95625780D01*
X286252114Y-95638589D01*
X286241405Y-95650405D01*
X286229589Y-95661114D01*
X286216780Y-95670614D01*
X286203102Y-95678812D01*
X286188686Y-95685630D01*
X286173671Y-95691003D01*
X286158202Y-95694878D01*
X286142428Y-95697218D01*
X286126500Y-95698000D01*
X285801500Y-95698000D01*
X285785572Y-95697218D01*
X285769798Y-95694878D01*
X285754329Y-95691003D01*
X285739314Y-95685630D01*
X285724898Y-95678812D01*
X285711220Y-95670614D01*
X285698411Y-95661114D01*
X285686595Y-95650405D01*
X285675886Y-95638589D01*
X285666386Y-95625780D01*
X285658188Y-95612102D01*
X285651370Y-95597686D01*
X285645997Y-95582671D01*
X285642122Y-95567202D01*
X285639782Y-95551428D01*
X285639000Y-95535500D01*
X285639000Y-94385500D01*
X285639782Y-94369572D01*
X285642122Y-94353798D01*
X285645997Y-94338329D01*
X285651370Y-94323314D01*
X285658188Y-94308898D01*
X285666386Y-94295220D01*
X285675886Y-94282411D01*
X285686595Y-94270595D01*
X285698411Y-94259886D01*
X285711220Y-94250386D01*
X285724898Y-94242188D01*
X285739314Y-94235370D01*
X285754329Y-94229997D01*
X285769798Y-94226122D01*
X285785572Y-94223782D01*
X285801500Y-94223000D01*
X286126500Y-94223000D01*
X286142428Y-94223782D01*
G37*
G36*
X287392428Y-95473782D02*
G01*
X287408202Y-95476122D01*
X287423671Y-95479997D01*
X287438686Y-95485370D01*
X287453102Y-95492188D01*
X287466780Y-95500386D01*
X287479589Y-95509886D01*
X287491405Y-95520595D01*
X287502114Y-95532411D01*
X287511614Y-95545220D01*
X287519812Y-95558898D01*
X287526630Y-95573314D01*
X287532003Y-95588329D01*
X287535878Y-95603798D01*
X287538218Y-95619572D01*
X287539000Y-95635500D01*
X287539000Y-95960500D01*
X287538218Y-95976428D01*
X287535878Y-95992202D01*
X287532003Y-96007671D01*
X287526630Y-96022686D01*
X287519812Y-96037102D01*
X287511614Y-96050780D01*
X287502114Y-96063589D01*
X287491405Y-96075405D01*
X287479589Y-96086114D01*
X287466780Y-96095614D01*
X287453102Y-96103812D01*
X287438686Y-96110630D01*
X287423671Y-96116003D01*
X287408202Y-96119878D01*
X287392428Y-96122218D01*
X287376500Y-96123000D01*
X286226500Y-96123000D01*
X286210572Y-96122218D01*
X286194798Y-96119878D01*
X286179329Y-96116003D01*
X286164314Y-96110630D01*
X286149898Y-96103812D01*
X286136220Y-96095614D01*
X286123411Y-96086114D01*
X286111595Y-96075405D01*
X286100886Y-96063589D01*
X286091386Y-96050780D01*
X286083188Y-96037102D01*
X286076370Y-96022686D01*
X286070997Y-96007671D01*
X286067122Y-95992202D01*
X286064782Y-95976428D01*
X286064000Y-95960500D01*
X286064000Y-95635500D01*
X286064782Y-95619572D01*
X286067122Y-95603798D01*
X286070997Y-95588329D01*
X286076370Y-95573314D01*
X286083188Y-95558898D01*
X286091386Y-95545220D01*
X286100886Y-95532411D01*
X286111595Y-95520595D01*
X286123411Y-95509886D01*
X286136220Y-95500386D01*
X286149898Y-95492188D01*
X286164314Y-95485370D01*
X286179329Y-95479997D01*
X286194798Y-95476122D01*
X286210572Y-95473782D01*
X286226500Y-95473000D01*
X287376500Y-95473000D01*
X287392428Y-95473782D01*
G37*
G36*
X287392428Y-95973782D02*
G01*
X287408202Y-95976122D01*
X287423671Y-95979997D01*
X287438686Y-95985370D01*
X287453102Y-95992188D01*
X287466780Y-96000386D01*
X287479589Y-96009886D01*
X287491405Y-96020595D01*
X287502114Y-96032411D01*
X287511614Y-96045220D01*
X287519812Y-96058898D01*
X287526630Y-96073314D01*
X287532003Y-96088329D01*
X287535878Y-96103798D01*
X287538218Y-96119572D01*
X287539000Y-96135500D01*
X287539000Y-96460500D01*
X287538218Y-96476428D01*
X287535878Y-96492202D01*
X287532003Y-96507671D01*
X287526630Y-96522686D01*
X287519812Y-96537102D01*
X287511614Y-96550780D01*
X287502114Y-96563589D01*
X287491405Y-96575405D01*
X287479589Y-96586114D01*
X287466780Y-96595614D01*
X287453102Y-96603812D01*
X287438686Y-96610630D01*
X287423671Y-96616003D01*
X287408202Y-96619878D01*
X287392428Y-96622218D01*
X287376500Y-96623000D01*
X286226500Y-96623000D01*
X286210572Y-96622218D01*
X286194798Y-96619878D01*
X286179329Y-96616003D01*
X286164314Y-96610630D01*
X286149898Y-96603812D01*
X286136220Y-96595614D01*
X286123411Y-96586114D01*
X286111595Y-96575405D01*
X286100886Y-96563589D01*
X286091386Y-96550780D01*
X286083188Y-96537102D01*
X286076370Y-96522686D01*
X286070997Y-96507671D01*
X286067122Y-96492202D01*
X286064782Y-96476428D01*
X286064000Y-96460500D01*
X286064000Y-96135500D01*
X286064782Y-96119572D01*
X286067122Y-96103798D01*
X286070997Y-96088329D01*
X286076370Y-96073314D01*
X286083188Y-96058898D01*
X286091386Y-96045220D01*
X286100886Y-96032411D01*
X286111595Y-96020595D01*
X286123411Y-96009886D01*
X286136220Y-96000386D01*
X286149898Y-95992188D01*
X286164314Y-95985370D01*
X286179329Y-95979997D01*
X286194798Y-95976122D01*
X286210572Y-95973782D01*
X286226500Y-95973000D01*
X287376500Y-95973000D01*
X287392428Y-95973782D01*
G37*
G36*
X287392428Y-96473782D02*
G01*
X287408202Y-96476122D01*
X287423671Y-96479997D01*
X287438686Y-96485370D01*
X287453102Y-96492188D01*
X287466780Y-96500386D01*
X287479589Y-96509886D01*
X287491405Y-96520595D01*
X287502114Y-96532411D01*
X287511614Y-96545220D01*
X287519812Y-96558898D01*
X287526630Y-96573314D01*
X287532003Y-96588329D01*
X287535878Y-96603798D01*
X287538218Y-96619572D01*
X287539000Y-96635500D01*
X287539000Y-96960500D01*
X287538218Y-96976428D01*
X287535878Y-96992202D01*
X287532003Y-97007671D01*
X287526630Y-97022686D01*
X287519812Y-97037102D01*
X287511614Y-97050780D01*
X287502114Y-97063589D01*
X287491405Y-97075405D01*
X287479589Y-97086114D01*
X287466780Y-97095614D01*
X287453102Y-97103812D01*
X287438686Y-97110630D01*
X287423671Y-97116003D01*
X287408202Y-97119878D01*
X287392428Y-97122218D01*
X287376500Y-97123000D01*
X286226500Y-97123000D01*
X286210572Y-97122218D01*
X286194798Y-97119878D01*
X286179329Y-97116003D01*
X286164314Y-97110630D01*
X286149898Y-97103812D01*
X286136220Y-97095614D01*
X286123411Y-97086114D01*
X286111595Y-97075405D01*
X286100886Y-97063589D01*
X286091386Y-97050780D01*
X286083188Y-97037102D01*
X286076370Y-97022686D01*
X286070997Y-97007671D01*
X286067122Y-96992202D01*
X286064782Y-96976428D01*
X286064000Y-96960500D01*
X286064000Y-96635500D01*
X286064782Y-96619572D01*
X286067122Y-96603798D01*
X286070997Y-96588329D01*
X286076370Y-96573314D01*
X286083188Y-96558898D01*
X286091386Y-96545220D01*
X286100886Y-96532411D01*
X286111595Y-96520595D01*
X286123411Y-96509886D01*
X286136220Y-96500386D01*
X286149898Y-96492188D01*
X286164314Y-96485370D01*
X286179329Y-96479997D01*
X286194798Y-96476122D01*
X286210572Y-96473782D01*
X286226500Y-96473000D01*
X287376500Y-96473000D01*
X287392428Y-96473782D01*
G37*
G36*
X287392428Y-96973782D02*
G01*
X287408202Y-96976122D01*
X287423671Y-96979997D01*
X287438686Y-96985370D01*
X287453102Y-96992188D01*
X287466780Y-97000386D01*
X287479589Y-97009886D01*
X287491405Y-97020595D01*
X287502114Y-97032411D01*
X287511614Y-97045220D01*
X287519812Y-97058898D01*
X287526630Y-97073314D01*
X287532003Y-97088329D01*
X287535878Y-97103798D01*
X287538218Y-97119572D01*
X287539000Y-97135500D01*
X287539000Y-97460500D01*
X287538218Y-97476428D01*
X287535878Y-97492202D01*
X287532003Y-97507671D01*
X287526630Y-97522686D01*
X287519812Y-97537102D01*
X287511614Y-97550780D01*
X287502114Y-97563589D01*
X287491405Y-97575405D01*
X287479589Y-97586114D01*
X287466780Y-97595614D01*
X287453102Y-97603812D01*
X287438686Y-97610630D01*
X287423671Y-97616003D01*
X287408202Y-97619878D01*
X287392428Y-97622218D01*
X287376500Y-97623000D01*
X286226500Y-97623000D01*
X286210572Y-97622218D01*
X286194798Y-97619878D01*
X286179329Y-97616003D01*
X286164314Y-97610630D01*
X286149898Y-97603812D01*
X286136220Y-97595614D01*
X286123411Y-97586114D01*
X286111595Y-97575405D01*
X286100886Y-97563589D01*
X286091386Y-97550780D01*
X286083188Y-97537102D01*
X286076370Y-97522686D01*
X286070997Y-97507671D01*
X286067122Y-97492202D01*
X286064782Y-97476428D01*
X286064000Y-97460500D01*
X286064000Y-97135500D01*
X286064782Y-97119572D01*
X286067122Y-97103798D01*
X286070997Y-97088329D01*
X286076370Y-97073314D01*
X286083188Y-97058898D01*
X286091386Y-97045220D01*
X286100886Y-97032411D01*
X286111595Y-97020595D01*
X286123411Y-97009886D01*
X286136220Y-97000386D01*
X286149898Y-96992188D01*
X286164314Y-96985370D01*
X286179329Y-96979997D01*
X286194798Y-96976122D01*
X286210572Y-96973782D01*
X286226500Y-96973000D01*
X287376500Y-96973000D01*
X287392428Y-96973782D01*
G37*
G36*
X287392428Y-97473782D02*
G01*
X287408202Y-97476122D01*
X287423671Y-97479997D01*
X287438686Y-97485370D01*
X287453102Y-97492188D01*
X287466780Y-97500386D01*
X287479589Y-97509886D01*
X287491405Y-97520595D01*
X287502114Y-97532411D01*
X287511614Y-97545220D01*
X287519812Y-97558898D01*
X287526630Y-97573314D01*
X287532003Y-97588329D01*
X287535878Y-97603798D01*
X287538218Y-97619572D01*
X287539000Y-97635500D01*
X287539000Y-97960500D01*
X287538218Y-97976428D01*
X287535878Y-97992202D01*
X287532003Y-98007671D01*
X287526630Y-98022686D01*
X287519812Y-98037102D01*
X287511614Y-98050780D01*
X287502114Y-98063589D01*
X287491405Y-98075405D01*
X287479589Y-98086114D01*
X287466780Y-98095614D01*
X287453102Y-98103812D01*
X287438686Y-98110630D01*
X287423671Y-98116003D01*
X287408202Y-98119878D01*
X287392428Y-98122218D01*
X287376500Y-98123000D01*
X286226500Y-98123000D01*
X286210572Y-98122218D01*
X286194798Y-98119878D01*
X286179329Y-98116003D01*
X286164314Y-98110630D01*
X286149898Y-98103812D01*
X286136220Y-98095614D01*
X286123411Y-98086114D01*
X286111595Y-98075405D01*
X286100886Y-98063589D01*
X286091386Y-98050780D01*
X286083188Y-98037102D01*
X286076370Y-98022686D01*
X286070997Y-98007671D01*
X286067122Y-97992202D01*
X286064782Y-97976428D01*
X286064000Y-97960500D01*
X286064000Y-97635500D01*
X286064782Y-97619572D01*
X286067122Y-97603798D01*
X286070997Y-97588329D01*
X286076370Y-97573314D01*
X286083188Y-97558898D01*
X286091386Y-97545220D01*
X286100886Y-97532411D01*
X286111595Y-97520595D01*
X286123411Y-97509886D01*
X286136220Y-97500386D01*
X286149898Y-97492188D01*
X286164314Y-97485370D01*
X286179329Y-97479997D01*
X286194798Y-97476122D01*
X286210572Y-97473782D01*
X286226500Y-97473000D01*
X287376500Y-97473000D01*
X287392428Y-97473782D01*
G37*
G36*
X287392428Y-97973782D02*
G01*
X287408202Y-97976122D01*
X287423671Y-97979997D01*
X287438686Y-97985370D01*
X287453102Y-97992188D01*
X287466780Y-98000386D01*
X287479589Y-98009886D01*
X287491405Y-98020595D01*
X287502114Y-98032411D01*
X287511614Y-98045220D01*
X287519812Y-98058898D01*
X287526630Y-98073314D01*
X287532003Y-98088329D01*
X287535878Y-98103798D01*
X287538218Y-98119572D01*
X287539000Y-98135500D01*
X287539000Y-98460500D01*
X287538218Y-98476428D01*
X287535878Y-98492202D01*
X287532003Y-98507671D01*
X287526630Y-98522686D01*
X287519812Y-98537102D01*
X287511614Y-98550780D01*
X287502114Y-98563589D01*
X287491405Y-98575405D01*
X287479589Y-98586114D01*
X287466780Y-98595614D01*
X287453102Y-98603812D01*
X287438686Y-98610630D01*
X287423671Y-98616003D01*
X287408202Y-98619878D01*
X287392428Y-98622218D01*
X287376500Y-98623000D01*
X286226500Y-98623000D01*
X286210572Y-98622218D01*
X286194798Y-98619878D01*
X286179329Y-98616003D01*
X286164314Y-98610630D01*
X286149898Y-98603812D01*
X286136220Y-98595614D01*
X286123411Y-98586114D01*
X286111595Y-98575405D01*
X286100886Y-98563589D01*
X286091386Y-98550780D01*
X286083188Y-98537102D01*
X286076370Y-98522686D01*
X286070997Y-98507671D01*
X286067122Y-98492202D01*
X286064782Y-98476428D01*
X286064000Y-98460500D01*
X286064000Y-98135500D01*
X286064782Y-98119572D01*
X286067122Y-98103798D01*
X286070997Y-98088329D01*
X286076370Y-98073314D01*
X286083188Y-98058898D01*
X286091386Y-98045220D01*
X286100886Y-98032411D01*
X286111595Y-98020595D01*
X286123411Y-98009886D01*
X286136220Y-98000386D01*
X286149898Y-97992188D01*
X286164314Y-97985370D01*
X286179329Y-97979997D01*
X286194798Y-97976122D01*
X286210572Y-97973782D01*
X286226500Y-97973000D01*
X287376500Y-97973000D01*
X287392428Y-97973782D01*
G37*
G36*
X287392428Y-98473782D02*
G01*
X287408202Y-98476122D01*
X287423671Y-98479997D01*
X287438686Y-98485370D01*
X287453102Y-98492188D01*
X287466780Y-98500386D01*
X287479589Y-98509886D01*
X287491405Y-98520595D01*
X287502114Y-98532411D01*
X287511614Y-98545220D01*
X287519812Y-98558898D01*
X287526630Y-98573314D01*
X287532003Y-98588329D01*
X287535878Y-98603798D01*
X287538218Y-98619572D01*
X287539000Y-98635500D01*
X287539000Y-98960500D01*
X287538218Y-98976428D01*
X287535878Y-98992202D01*
X287532003Y-99007671D01*
X287526630Y-99022686D01*
X287519812Y-99037102D01*
X287511614Y-99050780D01*
X287502114Y-99063589D01*
X287491405Y-99075405D01*
X287479589Y-99086114D01*
X287466780Y-99095614D01*
X287453102Y-99103812D01*
X287438686Y-99110630D01*
X287423671Y-99116003D01*
X287408202Y-99119878D01*
X287392428Y-99122218D01*
X287376500Y-99123000D01*
X286226500Y-99123000D01*
X286210572Y-99122218D01*
X286194798Y-99119878D01*
X286179329Y-99116003D01*
X286164314Y-99110630D01*
X286149898Y-99103812D01*
X286136220Y-99095614D01*
X286123411Y-99086114D01*
X286111595Y-99075405D01*
X286100886Y-99063589D01*
X286091386Y-99050780D01*
X286083188Y-99037102D01*
X286076370Y-99022686D01*
X286070997Y-99007671D01*
X286067122Y-98992202D01*
X286064782Y-98976428D01*
X286064000Y-98960500D01*
X286064000Y-98635500D01*
X286064782Y-98619572D01*
X286067122Y-98603798D01*
X286070997Y-98588329D01*
X286076370Y-98573314D01*
X286083188Y-98558898D01*
X286091386Y-98545220D01*
X286100886Y-98532411D01*
X286111595Y-98520595D01*
X286123411Y-98509886D01*
X286136220Y-98500386D01*
X286149898Y-98492188D01*
X286164314Y-98485370D01*
X286179329Y-98479997D01*
X286194798Y-98476122D01*
X286210572Y-98473782D01*
X286226500Y-98473000D01*
X287376500Y-98473000D01*
X287392428Y-98473782D01*
G37*
G36*
X287392428Y-98973782D02*
G01*
X287408202Y-98976122D01*
X287423671Y-98979997D01*
X287438686Y-98985370D01*
X287453102Y-98992188D01*
X287466780Y-99000386D01*
X287479589Y-99009886D01*
X287491405Y-99020595D01*
X287502114Y-99032411D01*
X287511614Y-99045220D01*
X287519812Y-99058898D01*
X287526630Y-99073314D01*
X287532003Y-99088329D01*
X287535878Y-99103798D01*
X287538218Y-99119572D01*
X287539000Y-99135500D01*
X287539000Y-99460500D01*
X287538218Y-99476428D01*
X287535878Y-99492202D01*
X287532003Y-99507671D01*
X287526630Y-99522686D01*
X287519812Y-99537102D01*
X287511614Y-99550780D01*
X287502114Y-99563589D01*
X287491405Y-99575405D01*
X287479589Y-99586114D01*
X287466780Y-99595614D01*
X287453102Y-99603812D01*
X287438686Y-99610630D01*
X287423671Y-99616003D01*
X287408202Y-99619878D01*
X287392428Y-99622218D01*
X287376500Y-99623000D01*
X286226500Y-99623000D01*
X286210572Y-99622218D01*
X286194798Y-99619878D01*
X286179329Y-99616003D01*
X286164314Y-99610630D01*
X286149898Y-99603812D01*
X286136220Y-99595614D01*
X286123411Y-99586114D01*
X286111595Y-99575405D01*
X286100886Y-99563589D01*
X286091386Y-99550780D01*
X286083188Y-99537102D01*
X286076370Y-99522686D01*
X286070997Y-99507671D01*
X286067122Y-99492202D01*
X286064782Y-99476428D01*
X286064000Y-99460500D01*
X286064000Y-99135500D01*
X286064782Y-99119572D01*
X286067122Y-99103798D01*
X286070997Y-99088329D01*
X286076370Y-99073314D01*
X286083188Y-99058898D01*
X286091386Y-99045220D01*
X286100886Y-99032411D01*
X286111595Y-99020595D01*
X286123411Y-99009886D01*
X286136220Y-99000386D01*
X286149898Y-98992188D01*
X286164314Y-98985370D01*
X286179329Y-98979997D01*
X286194798Y-98976122D01*
X286210572Y-98973782D01*
X286226500Y-98973000D01*
X287376500Y-98973000D01*
X287392428Y-98973782D01*
G37*
G36*
X287392428Y-99473782D02*
G01*
X287408202Y-99476122D01*
X287423671Y-99479997D01*
X287438686Y-99485370D01*
X287453102Y-99492188D01*
X287466780Y-99500386D01*
X287479589Y-99509886D01*
X287491405Y-99520595D01*
X287502114Y-99532411D01*
X287511614Y-99545220D01*
X287519812Y-99558898D01*
X287526630Y-99573314D01*
X287532003Y-99588329D01*
X287535878Y-99603798D01*
X287538218Y-99619572D01*
X287539000Y-99635500D01*
X287539000Y-99960500D01*
X287538218Y-99976428D01*
X287535878Y-99992202D01*
X287532003Y-100007671D01*
X287526630Y-100022686D01*
X287519812Y-100037102D01*
X287511614Y-100050780D01*
X287502114Y-100063589D01*
X287491405Y-100075405D01*
X287479589Y-100086114D01*
X287466780Y-100095614D01*
X287453102Y-100103812D01*
X287438686Y-100110630D01*
X287423671Y-100116003D01*
X287408202Y-100119878D01*
X287392428Y-100122218D01*
X287376500Y-100123000D01*
X286226500Y-100123000D01*
X286210572Y-100122218D01*
X286194798Y-100119878D01*
X286179329Y-100116003D01*
X286164314Y-100110630D01*
X286149898Y-100103812D01*
X286136220Y-100095614D01*
X286123411Y-100086114D01*
X286111595Y-100075405D01*
X286100886Y-100063589D01*
X286091386Y-100050780D01*
X286083188Y-100037102D01*
X286076370Y-100022686D01*
X286070997Y-100007671D01*
X286067122Y-99992202D01*
X286064782Y-99976428D01*
X286064000Y-99960500D01*
X286064000Y-99635500D01*
X286064782Y-99619572D01*
X286067122Y-99603798D01*
X286070997Y-99588329D01*
X286076370Y-99573314D01*
X286083188Y-99558898D01*
X286091386Y-99545220D01*
X286100886Y-99532411D01*
X286111595Y-99520595D01*
X286123411Y-99509886D01*
X286136220Y-99500386D01*
X286149898Y-99492188D01*
X286164314Y-99485370D01*
X286179329Y-99479997D01*
X286194798Y-99476122D01*
X286210572Y-99473782D01*
X286226500Y-99473000D01*
X287376500Y-99473000D01*
X287392428Y-99473782D01*
G37*
G36*
X287392428Y-99973782D02*
G01*
X287408202Y-99976122D01*
X287423671Y-99979997D01*
X287438686Y-99985370D01*
X287453102Y-99992188D01*
X287466780Y-100000386D01*
X287479589Y-100009886D01*
X287491405Y-100020595D01*
X287502114Y-100032411D01*
X287511614Y-100045220D01*
X287519812Y-100058898D01*
X287526630Y-100073314D01*
X287532003Y-100088329D01*
X287535878Y-100103798D01*
X287538218Y-100119572D01*
X287539000Y-100135500D01*
X287539000Y-100460500D01*
X287538218Y-100476428D01*
X287535878Y-100492202D01*
X287532003Y-100507671D01*
X287526630Y-100522686D01*
X287519812Y-100537102D01*
X287511614Y-100550780D01*
X287502114Y-100563589D01*
X287491405Y-100575405D01*
X287479589Y-100586114D01*
X287466780Y-100595614D01*
X287453102Y-100603812D01*
X287438686Y-100610630D01*
X287423671Y-100616003D01*
X287408202Y-100619878D01*
X287392428Y-100622218D01*
X287376500Y-100623000D01*
X286226500Y-100623000D01*
X286210572Y-100622218D01*
X286194798Y-100619878D01*
X286179329Y-100616003D01*
X286164314Y-100610630D01*
X286149898Y-100603812D01*
X286136220Y-100595614D01*
X286123411Y-100586114D01*
X286111595Y-100575405D01*
X286100886Y-100563589D01*
X286091386Y-100550780D01*
X286083188Y-100537102D01*
X286076370Y-100522686D01*
X286070997Y-100507671D01*
X286067122Y-100492202D01*
X286064782Y-100476428D01*
X286064000Y-100460500D01*
X286064000Y-100135500D01*
X286064782Y-100119572D01*
X286067122Y-100103798D01*
X286070997Y-100088329D01*
X286076370Y-100073314D01*
X286083188Y-100058898D01*
X286091386Y-100045220D01*
X286100886Y-100032411D01*
X286111595Y-100020595D01*
X286123411Y-100009886D01*
X286136220Y-100000386D01*
X286149898Y-99992188D01*
X286164314Y-99985370D01*
X286179329Y-99979997D01*
X286194798Y-99976122D01*
X286210572Y-99973782D01*
X286226500Y-99973000D01*
X287376500Y-99973000D01*
X287392428Y-99973782D01*
G37*
G36*
X287392428Y-100473782D02*
G01*
X287408202Y-100476122D01*
X287423671Y-100479997D01*
X287438686Y-100485370D01*
X287453102Y-100492188D01*
X287466780Y-100500386D01*
X287479589Y-100509886D01*
X287491405Y-100520595D01*
X287502114Y-100532411D01*
X287511614Y-100545220D01*
X287519812Y-100558898D01*
X287526630Y-100573314D01*
X287532003Y-100588329D01*
X287535878Y-100603798D01*
X287538218Y-100619572D01*
X287539000Y-100635500D01*
X287539000Y-100960500D01*
X287538218Y-100976428D01*
X287535878Y-100992202D01*
X287532003Y-101007671D01*
X287526630Y-101022686D01*
X287519812Y-101037102D01*
X287511614Y-101050780D01*
X287502114Y-101063589D01*
X287491405Y-101075405D01*
X287479589Y-101086114D01*
X287466780Y-101095614D01*
X287453102Y-101103812D01*
X287438686Y-101110630D01*
X287423671Y-101116003D01*
X287408202Y-101119878D01*
X287392428Y-101122218D01*
X287376500Y-101123000D01*
X286226500Y-101123000D01*
X286210572Y-101122218D01*
X286194798Y-101119878D01*
X286179329Y-101116003D01*
X286164314Y-101110630D01*
X286149898Y-101103812D01*
X286136220Y-101095614D01*
X286123411Y-101086114D01*
X286111595Y-101075405D01*
X286100886Y-101063589D01*
X286091386Y-101050780D01*
X286083188Y-101037102D01*
X286076370Y-101022686D01*
X286070997Y-101007671D01*
X286067122Y-100992202D01*
X286064782Y-100976428D01*
X286064000Y-100960500D01*
X286064000Y-100635500D01*
X286064782Y-100619572D01*
X286067122Y-100603798D01*
X286070997Y-100588329D01*
X286076370Y-100573314D01*
X286083188Y-100558898D01*
X286091386Y-100545220D01*
X286100886Y-100532411D01*
X286111595Y-100520595D01*
X286123411Y-100509886D01*
X286136220Y-100500386D01*
X286149898Y-100492188D01*
X286164314Y-100485370D01*
X286179329Y-100479997D01*
X286194798Y-100476122D01*
X286210572Y-100473782D01*
X286226500Y-100473000D01*
X287376500Y-100473000D01*
X287392428Y-100473782D01*
G37*
G36*
X286142428Y-100898782D02*
G01*
X286158202Y-100901122D01*
X286173671Y-100904997D01*
X286188686Y-100910370D01*
X286203102Y-100917188D01*
X286216780Y-100925386D01*
X286229589Y-100934886D01*
X286241405Y-100945595D01*
X286252114Y-100957411D01*
X286261614Y-100970220D01*
X286269812Y-100983898D01*
X286276630Y-100998314D01*
X286282003Y-101013329D01*
X286285878Y-101028798D01*
X286288218Y-101044572D01*
X286289000Y-101060500D01*
X286289000Y-102210500D01*
X286288218Y-102226428D01*
X286285878Y-102242202D01*
X286282003Y-102257671D01*
X286276630Y-102272686D01*
X286269812Y-102287102D01*
X286261614Y-102300780D01*
X286252114Y-102313589D01*
X286241405Y-102325405D01*
X286229589Y-102336114D01*
X286216780Y-102345614D01*
X286203102Y-102353812D01*
X286188686Y-102360630D01*
X286173671Y-102366003D01*
X286158202Y-102369878D01*
X286142428Y-102372218D01*
X286126500Y-102373000D01*
X285801500Y-102373000D01*
X285785572Y-102372218D01*
X285769798Y-102369878D01*
X285754329Y-102366003D01*
X285739314Y-102360630D01*
X285724898Y-102353812D01*
X285711220Y-102345614D01*
X285698411Y-102336114D01*
X285686595Y-102325405D01*
X285675886Y-102313589D01*
X285666386Y-102300780D01*
X285658188Y-102287102D01*
X285651370Y-102272686D01*
X285645997Y-102257671D01*
X285642122Y-102242202D01*
X285639782Y-102226428D01*
X285639000Y-102210500D01*
X285639000Y-101060500D01*
X285639782Y-101044572D01*
X285642122Y-101028798D01*
X285645997Y-101013329D01*
X285651370Y-100998314D01*
X285658188Y-100983898D01*
X285666386Y-100970220D01*
X285675886Y-100957411D01*
X285686595Y-100945595D01*
X285698411Y-100934886D01*
X285711220Y-100925386D01*
X285724898Y-100917188D01*
X285739314Y-100910370D01*
X285754329Y-100904997D01*
X285769798Y-100901122D01*
X285785572Y-100898782D01*
X285801500Y-100898000D01*
X286126500Y-100898000D01*
X286142428Y-100898782D01*
G37*
G36*
X285642428Y-100898782D02*
G01*
X285658202Y-100901122D01*
X285673671Y-100904997D01*
X285688686Y-100910370D01*
X285703102Y-100917188D01*
X285716780Y-100925386D01*
X285729589Y-100934886D01*
X285741405Y-100945595D01*
X285752114Y-100957411D01*
X285761614Y-100970220D01*
X285769812Y-100983898D01*
X285776630Y-100998314D01*
X285782003Y-101013329D01*
X285785878Y-101028798D01*
X285788218Y-101044572D01*
X285789000Y-101060500D01*
X285789000Y-102210500D01*
X285788218Y-102226428D01*
X285785878Y-102242202D01*
X285782003Y-102257671D01*
X285776630Y-102272686D01*
X285769812Y-102287102D01*
X285761614Y-102300780D01*
X285752114Y-102313589D01*
X285741405Y-102325405D01*
X285729589Y-102336114D01*
X285716780Y-102345614D01*
X285703102Y-102353812D01*
X285688686Y-102360630D01*
X285673671Y-102366003D01*
X285658202Y-102369878D01*
X285642428Y-102372218D01*
X285626500Y-102373000D01*
X285301500Y-102373000D01*
X285285572Y-102372218D01*
X285269798Y-102369878D01*
X285254329Y-102366003D01*
X285239314Y-102360630D01*
X285224898Y-102353812D01*
X285211220Y-102345614D01*
X285198411Y-102336114D01*
X285186595Y-102325405D01*
X285175886Y-102313589D01*
X285166386Y-102300780D01*
X285158188Y-102287102D01*
X285151370Y-102272686D01*
X285145997Y-102257671D01*
X285142122Y-102242202D01*
X285139782Y-102226428D01*
X285139000Y-102210500D01*
X285139000Y-101060500D01*
X285139782Y-101044572D01*
X285142122Y-101028798D01*
X285145997Y-101013329D01*
X285151370Y-100998314D01*
X285158188Y-100983898D01*
X285166386Y-100970220D01*
X285175886Y-100957411D01*
X285186595Y-100945595D01*
X285198411Y-100934886D01*
X285211220Y-100925386D01*
X285224898Y-100917188D01*
X285239314Y-100910370D01*
X285254329Y-100904997D01*
X285269798Y-100901122D01*
X285285572Y-100898782D01*
X285301500Y-100898000D01*
X285626500Y-100898000D01*
X285642428Y-100898782D01*
G37*
G36*
X285142428Y-100898782D02*
G01*
X285158202Y-100901122D01*
X285173671Y-100904997D01*
X285188686Y-100910370D01*
X285203102Y-100917188D01*
X285216780Y-100925386D01*
X285229589Y-100934886D01*
X285241405Y-100945595D01*
X285252114Y-100957411D01*
X285261614Y-100970220D01*
X285269812Y-100983898D01*
X285276630Y-100998314D01*
X285282003Y-101013329D01*
X285285878Y-101028798D01*
X285288218Y-101044572D01*
X285289000Y-101060500D01*
X285289000Y-102210500D01*
X285288218Y-102226428D01*
X285285878Y-102242202D01*
X285282003Y-102257671D01*
X285276630Y-102272686D01*
X285269812Y-102287102D01*
X285261614Y-102300780D01*
X285252114Y-102313589D01*
X285241405Y-102325405D01*
X285229589Y-102336114D01*
X285216780Y-102345614D01*
X285203102Y-102353812D01*
X285188686Y-102360630D01*
X285173671Y-102366003D01*
X285158202Y-102369878D01*
X285142428Y-102372218D01*
X285126500Y-102373000D01*
X284801500Y-102373000D01*
X284785572Y-102372218D01*
X284769798Y-102369878D01*
X284754329Y-102366003D01*
X284739314Y-102360630D01*
X284724898Y-102353812D01*
X284711220Y-102345614D01*
X284698411Y-102336114D01*
X284686595Y-102325405D01*
X284675886Y-102313589D01*
X284666386Y-102300780D01*
X284658188Y-102287102D01*
X284651370Y-102272686D01*
X284645997Y-102257671D01*
X284642122Y-102242202D01*
X284639782Y-102226428D01*
X284639000Y-102210500D01*
X284639000Y-101060500D01*
X284639782Y-101044572D01*
X284642122Y-101028798D01*
X284645997Y-101013329D01*
X284651370Y-100998314D01*
X284658188Y-100983898D01*
X284666386Y-100970220D01*
X284675886Y-100957411D01*
X284686595Y-100945595D01*
X284698411Y-100934886D01*
X284711220Y-100925386D01*
X284724898Y-100917188D01*
X284739314Y-100910370D01*
X284754329Y-100904997D01*
X284769798Y-100901122D01*
X284785572Y-100898782D01*
X284801500Y-100898000D01*
X285126500Y-100898000D01*
X285142428Y-100898782D01*
G37*
G36*
X284642428Y-100898782D02*
G01*
X284658202Y-100901122D01*
X284673671Y-100904997D01*
X284688686Y-100910370D01*
X284703102Y-100917188D01*
X284716780Y-100925386D01*
X284729589Y-100934886D01*
X284741405Y-100945595D01*
X284752114Y-100957411D01*
X284761614Y-100970220D01*
X284769812Y-100983898D01*
X284776630Y-100998314D01*
X284782003Y-101013329D01*
X284785878Y-101028798D01*
X284788218Y-101044572D01*
X284789000Y-101060500D01*
X284789000Y-102210500D01*
X284788218Y-102226428D01*
X284785878Y-102242202D01*
X284782003Y-102257671D01*
X284776630Y-102272686D01*
X284769812Y-102287102D01*
X284761614Y-102300780D01*
X284752114Y-102313589D01*
X284741405Y-102325405D01*
X284729589Y-102336114D01*
X284716780Y-102345614D01*
X284703102Y-102353812D01*
X284688686Y-102360630D01*
X284673671Y-102366003D01*
X284658202Y-102369878D01*
X284642428Y-102372218D01*
X284626500Y-102373000D01*
X284301500Y-102373000D01*
X284285572Y-102372218D01*
X284269798Y-102369878D01*
X284254329Y-102366003D01*
X284239314Y-102360630D01*
X284224898Y-102353812D01*
X284211220Y-102345614D01*
X284198411Y-102336114D01*
X284186595Y-102325405D01*
X284175886Y-102313589D01*
X284166386Y-102300780D01*
X284158188Y-102287102D01*
X284151370Y-102272686D01*
X284145997Y-102257671D01*
X284142122Y-102242202D01*
X284139782Y-102226428D01*
X284139000Y-102210500D01*
X284139000Y-101060500D01*
X284139782Y-101044572D01*
X284142122Y-101028798D01*
X284145997Y-101013329D01*
X284151370Y-100998314D01*
X284158188Y-100983898D01*
X284166386Y-100970220D01*
X284175886Y-100957411D01*
X284186595Y-100945595D01*
X284198411Y-100934886D01*
X284211220Y-100925386D01*
X284224898Y-100917188D01*
X284239314Y-100910370D01*
X284254329Y-100904997D01*
X284269798Y-100901122D01*
X284285572Y-100898782D01*
X284301500Y-100898000D01*
X284626500Y-100898000D01*
X284642428Y-100898782D01*
G37*
G36*
X284142428Y-100898782D02*
G01*
X284158202Y-100901122D01*
X284173671Y-100904997D01*
X284188686Y-100910370D01*
X284203102Y-100917188D01*
X284216780Y-100925386D01*
X284229589Y-100934886D01*
X284241405Y-100945595D01*
X284252114Y-100957411D01*
X284261614Y-100970220D01*
X284269812Y-100983898D01*
X284276630Y-100998314D01*
X284282003Y-101013329D01*
X284285878Y-101028798D01*
X284288218Y-101044572D01*
X284289000Y-101060500D01*
X284289000Y-102210500D01*
X284288218Y-102226428D01*
X284285878Y-102242202D01*
X284282003Y-102257671D01*
X284276630Y-102272686D01*
X284269812Y-102287102D01*
X284261614Y-102300780D01*
X284252114Y-102313589D01*
X284241405Y-102325405D01*
X284229589Y-102336114D01*
X284216780Y-102345614D01*
X284203102Y-102353812D01*
X284188686Y-102360630D01*
X284173671Y-102366003D01*
X284158202Y-102369878D01*
X284142428Y-102372218D01*
X284126500Y-102373000D01*
X283801500Y-102373000D01*
X283785572Y-102372218D01*
X283769798Y-102369878D01*
X283754329Y-102366003D01*
X283739314Y-102360630D01*
X283724898Y-102353812D01*
X283711220Y-102345614D01*
X283698411Y-102336114D01*
X283686595Y-102325405D01*
X283675886Y-102313589D01*
X283666386Y-102300780D01*
X283658188Y-102287102D01*
X283651370Y-102272686D01*
X283645997Y-102257671D01*
X283642122Y-102242202D01*
X283639782Y-102226428D01*
X283639000Y-102210500D01*
X283639000Y-101060500D01*
X283639782Y-101044572D01*
X283642122Y-101028798D01*
X283645997Y-101013329D01*
X283651370Y-100998314D01*
X283658188Y-100983898D01*
X283666386Y-100970220D01*
X283675886Y-100957411D01*
X283686595Y-100945595D01*
X283698411Y-100934886D01*
X283711220Y-100925386D01*
X283724898Y-100917188D01*
X283739314Y-100910370D01*
X283754329Y-100904997D01*
X283769798Y-100901122D01*
X283785572Y-100898782D01*
X283801500Y-100898000D01*
X284126500Y-100898000D01*
X284142428Y-100898782D01*
G37*
G36*
X283642428Y-100898782D02*
G01*
X283658202Y-100901122D01*
X283673671Y-100904997D01*
X283688686Y-100910370D01*
X283703102Y-100917188D01*
X283716780Y-100925386D01*
X283729589Y-100934886D01*
X283741405Y-100945595D01*
X283752114Y-100957411D01*
X283761614Y-100970220D01*
X283769812Y-100983898D01*
X283776630Y-100998314D01*
X283782003Y-101013329D01*
X283785878Y-101028798D01*
X283788218Y-101044572D01*
X283789000Y-101060500D01*
X283789000Y-102210500D01*
X283788218Y-102226428D01*
X283785878Y-102242202D01*
X283782003Y-102257671D01*
X283776630Y-102272686D01*
X283769812Y-102287102D01*
X283761614Y-102300780D01*
X283752114Y-102313589D01*
X283741405Y-102325405D01*
X283729589Y-102336114D01*
X283716780Y-102345614D01*
X283703102Y-102353812D01*
X283688686Y-102360630D01*
X283673671Y-102366003D01*
X283658202Y-102369878D01*
X283642428Y-102372218D01*
X283626500Y-102373000D01*
X283301500Y-102373000D01*
X283285572Y-102372218D01*
X283269798Y-102369878D01*
X283254329Y-102366003D01*
X283239314Y-102360630D01*
X283224898Y-102353812D01*
X283211220Y-102345614D01*
X283198411Y-102336114D01*
X283186595Y-102325405D01*
X283175886Y-102313589D01*
X283166386Y-102300780D01*
X283158188Y-102287102D01*
X283151370Y-102272686D01*
X283145997Y-102257671D01*
X283142122Y-102242202D01*
X283139782Y-102226428D01*
X283139000Y-102210500D01*
X283139000Y-101060500D01*
X283139782Y-101044572D01*
X283142122Y-101028798D01*
X283145997Y-101013329D01*
X283151370Y-100998314D01*
X283158188Y-100983898D01*
X283166386Y-100970220D01*
X283175886Y-100957411D01*
X283186595Y-100945595D01*
X283198411Y-100934886D01*
X283211220Y-100925386D01*
X283224898Y-100917188D01*
X283239314Y-100910370D01*
X283254329Y-100904997D01*
X283269798Y-100901122D01*
X283285572Y-100898782D01*
X283301500Y-100898000D01*
X283626500Y-100898000D01*
X283642428Y-100898782D01*
G37*
G36*
X283142428Y-100898782D02*
G01*
X283158202Y-100901122D01*
X283173671Y-100904997D01*
X283188686Y-100910370D01*
X283203102Y-100917188D01*
X283216780Y-100925386D01*
X283229589Y-100934886D01*
X283241405Y-100945595D01*
X283252114Y-100957411D01*
X283261614Y-100970220D01*
X283269812Y-100983898D01*
X283276630Y-100998314D01*
X283282003Y-101013329D01*
X283285878Y-101028798D01*
X283288218Y-101044572D01*
X283289000Y-101060500D01*
X283289000Y-102210500D01*
X283288218Y-102226428D01*
X283285878Y-102242202D01*
X283282003Y-102257671D01*
X283276630Y-102272686D01*
X283269812Y-102287102D01*
X283261614Y-102300780D01*
X283252114Y-102313589D01*
X283241405Y-102325405D01*
X283229589Y-102336114D01*
X283216780Y-102345614D01*
X283203102Y-102353812D01*
X283188686Y-102360630D01*
X283173671Y-102366003D01*
X283158202Y-102369878D01*
X283142428Y-102372218D01*
X283126500Y-102373000D01*
X282801500Y-102373000D01*
X282785572Y-102372218D01*
X282769798Y-102369878D01*
X282754329Y-102366003D01*
X282739314Y-102360630D01*
X282724898Y-102353812D01*
X282711220Y-102345614D01*
X282698411Y-102336114D01*
X282686595Y-102325405D01*
X282675886Y-102313589D01*
X282666386Y-102300780D01*
X282658188Y-102287102D01*
X282651370Y-102272686D01*
X282645997Y-102257671D01*
X282642122Y-102242202D01*
X282639782Y-102226428D01*
X282639000Y-102210500D01*
X282639000Y-101060500D01*
X282639782Y-101044572D01*
X282642122Y-101028798D01*
X282645997Y-101013329D01*
X282651370Y-100998314D01*
X282658188Y-100983898D01*
X282666386Y-100970220D01*
X282675886Y-100957411D01*
X282686595Y-100945595D01*
X282698411Y-100934886D01*
X282711220Y-100925386D01*
X282724898Y-100917188D01*
X282739314Y-100910370D01*
X282754329Y-100904997D01*
X282769798Y-100901122D01*
X282785572Y-100898782D01*
X282801500Y-100898000D01*
X283126500Y-100898000D01*
X283142428Y-100898782D01*
G37*
G36*
X282642428Y-100898782D02*
G01*
X282658202Y-100901122D01*
X282673671Y-100904997D01*
X282688686Y-100910370D01*
X282703102Y-100917188D01*
X282716780Y-100925386D01*
X282729589Y-100934886D01*
X282741405Y-100945595D01*
X282752114Y-100957411D01*
X282761614Y-100970220D01*
X282769812Y-100983898D01*
X282776630Y-100998314D01*
X282782003Y-101013329D01*
X282785878Y-101028798D01*
X282788218Y-101044572D01*
X282789000Y-101060500D01*
X282789000Y-102210500D01*
X282788218Y-102226428D01*
X282785878Y-102242202D01*
X282782003Y-102257671D01*
X282776630Y-102272686D01*
X282769812Y-102287102D01*
X282761614Y-102300780D01*
X282752114Y-102313589D01*
X282741405Y-102325405D01*
X282729589Y-102336114D01*
X282716780Y-102345614D01*
X282703102Y-102353812D01*
X282688686Y-102360630D01*
X282673671Y-102366003D01*
X282658202Y-102369878D01*
X282642428Y-102372218D01*
X282626500Y-102373000D01*
X282301500Y-102373000D01*
X282285572Y-102372218D01*
X282269798Y-102369878D01*
X282254329Y-102366003D01*
X282239314Y-102360630D01*
X282224898Y-102353812D01*
X282211220Y-102345614D01*
X282198411Y-102336114D01*
X282186595Y-102325405D01*
X282175886Y-102313589D01*
X282166386Y-102300780D01*
X282158188Y-102287102D01*
X282151370Y-102272686D01*
X282145997Y-102257671D01*
X282142122Y-102242202D01*
X282139782Y-102226428D01*
X282139000Y-102210500D01*
X282139000Y-101060500D01*
X282139782Y-101044572D01*
X282142122Y-101028798D01*
X282145997Y-101013329D01*
X282151370Y-100998314D01*
X282158188Y-100983898D01*
X282166386Y-100970220D01*
X282175886Y-100957411D01*
X282186595Y-100945595D01*
X282198411Y-100934886D01*
X282211220Y-100925386D01*
X282224898Y-100917188D01*
X282239314Y-100910370D01*
X282254329Y-100904997D01*
X282269798Y-100901122D01*
X282285572Y-100898782D01*
X282301500Y-100898000D01*
X282626500Y-100898000D01*
X282642428Y-100898782D01*
G37*
G36*
X282142428Y-100898782D02*
G01*
X282158202Y-100901122D01*
X282173671Y-100904997D01*
X282188686Y-100910370D01*
X282203102Y-100917188D01*
X282216780Y-100925386D01*
X282229589Y-100934886D01*
X282241405Y-100945595D01*
X282252114Y-100957411D01*
X282261614Y-100970220D01*
X282269812Y-100983898D01*
X282276630Y-100998314D01*
X282282003Y-101013329D01*
X282285878Y-101028798D01*
X282288218Y-101044572D01*
X282289000Y-101060500D01*
X282289000Y-102210500D01*
X282288218Y-102226428D01*
X282285878Y-102242202D01*
X282282003Y-102257671D01*
X282276630Y-102272686D01*
X282269812Y-102287102D01*
X282261614Y-102300780D01*
X282252114Y-102313589D01*
X282241405Y-102325405D01*
X282229589Y-102336114D01*
X282216780Y-102345614D01*
X282203102Y-102353812D01*
X282188686Y-102360630D01*
X282173671Y-102366003D01*
X282158202Y-102369878D01*
X282142428Y-102372218D01*
X282126500Y-102373000D01*
X281801500Y-102373000D01*
X281785572Y-102372218D01*
X281769798Y-102369878D01*
X281754329Y-102366003D01*
X281739314Y-102360630D01*
X281724898Y-102353812D01*
X281711220Y-102345614D01*
X281698411Y-102336114D01*
X281686595Y-102325405D01*
X281675886Y-102313589D01*
X281666386Y-102300780D01*
X281658188Y-102287102D01*
X281651370Y-102272686D01*
X281645997Y-102257671D01*
X281642122Y-102242202D01*
X281639782Y-102226428D01*
X281639000Y-102210500D01*
X281639000Y-101060500D01*
X281639782Y-101044572D01*
X281642122Y-101028798D01*
X281645997Y-101013329D01*
X281651370Y-100998314D01*
X281658188Y-100983898D01*
X281666386Y-100970220D01*
X281675886Y-100957411D01*
X281686595Y-100945595D01*
X281698411Y-100934886D01*
X281711220Y-100925386D01*
X281724898Y-100917188D01*
X281739314Y-100910370D01*
X281754329Y-100904997D01*
X281769798Y-100901122D01*
X281785572Y-100898782D01*
X281801500Y-100898000D01*
X282126500Y-100898000D01*
X282142428Y-100898782D01*
G37*
G36*
X281642428Y-100898782D02*
G01*
X281658202Y-100901122D01*
X281673671Y-100904997D01*
X281688686Y-100910370D01*
X281703102Y-100917188D01*
X281716780Y-100925386D01*
X281729589Y-100934886D01*
X281741405Y-100945595D01*
X281752114Y-100957411D01*
X281761614Y-100970220D01*
X281769812Y-100983898D01*
X281776630Y-100998314D01*
X281782003Y-101013329D01*
X281785878Y-101028798D01*
X281788218Y-101044572D01*
X281789000Y-101060500D01*
X281789000Y-102210500D01*
X281788218Y-102226428D01*
X281785878Y-102242202D01*
X281782003Y-102257671D01*
X281776630Y-102272686D01*
X281769812Y-102287102D01*
X281761614Y-102300780D01*
X281752114Y-102313589D01*
X281741405Y-102325405D01*
X281729589Y-102336114D01*
X281716780Y-102345614D01*
X281703102Y-102353812D01*
X281688686Y-102360630D01*
X281673671Y-102366003D01*
X281658202Y-102369878D01*
X281642428Y-102372218D01*
X281626500Y-102373000D01*
X281301500Y-102373000D01*
X281285572Y-102372218D01*
X281269798Y-102369878D01*
X281254329Y-102366003D01*
X281239314Y-102360630D01*
X281224898Y-102353812D01*
X281211220Y-102345614D01*
X281198411Y-102336114D01*
X281186595Y-102325405D01*
X281175886Y-102313589D01*
X281166386Y-102300780D01*
X281158188Y-102287102D01*
X281151370Y-102272686D01*
X281145997Y-102257671D01*
X281142122Y-102242202D01*
X281139782Y-102226428D01*
X281139000Y-102210500D01*
X281139000Y-101060500D01*
X281139782Y-101044572D01*
X281142122Y-101028798D01*
X281145997Y-101013329D01*
X281151370Y-100998314D01*
X281158188Y-100983898D01*
X281166386Y-100970220D01*
X281175886Y-100957411D01*
X281186595Y-100945595D01*
X281198411Y-100934886D01*
X281211220Y-100925386D01*
X281224898Y-100917188D01*
X281239314Y-100910370D01*
X281254329Y-100904997D01*
X281269798Y-100901122D01*
X281285572Y-100898782D01*
X281301500Y-100898000D01*
X281626500Y-100898000D01*
X281642428Y-100898782D01*
G37*
G36*
X281142428Y-100898782D02*
G01*
X281158202Y-100901122D01*
X281173671Y-100904997D01*
X281188686Y-100910370D01*
X281203102Y-100917188D01*
X281216780Y-100925386D01*
X281229589Y-100934886D01*
X281241405Y-100945595D01*
X281252114Y-100957411D01*
X281261614Y-100970220D01*
X281269812Y-100983898D01*
X281276630Y-100998314D01*
X281282003Y-101013329D01*
X281285878Y-101028798D01*
X281288218Y-101044572D01*
X281289000Y-101060500D01*
X281289000Y-102210500D01*
X281288218Y-102226428D01*
X281285878Y-102242202D01*
X281282003Y-102257671D01*
X281276630Y-102272686D01*
X281269812Y-102287102D01*
X281261614Y-102300780D01*
X281252114Y-102313589D01*
X281241405Y-102325405D01*
X281229589Y-102336114D01*
X281216780Y-102345614D01*
X281203102Y-102353812D01*
X281188686Y-102360630D01*
X281173671Y-102366003D01*
X281158202Y-102369878D01*
X281142428Y-102372218D01*
X281126500Y-102373000D01*
X280801500Y-102373000D01*
X280785572Y-102372218D01*
X280769798Y-102369878D01*
X280754329Y-102366003D01*
X280739314Y-102360630D01*
X280724898Y-102353812D01*
X280711220Y-102345614D01*
X280698411Y-102336114D01*
X280686595Y-102325405D01*
X280675886Y-102313589D01*
X280666386Y-102300780D01*
X280658188Y-102287102D01*
X280651370Y-102272686D01*
X280645997Y-102257671D01*
X280642122Y-102242202D01*
X280639782Y-102226428D01*
X280639000Y-102210500D01*
X280639000Y-101060500D01*
X280639782Y-101044572D01*
X280642122Y-101028798D01*
X280645997Y-101013329D01*
X280651370Y-100998314D01*
X280658188Y-100983898D01*
X280666386Y-100970220D01*
X280675886Y-100957411D01*
X280686595Y-100945595D01*
X280698411Y-100934886D01*
X280711220Y-100925386D01*
X280724898Y-100917188D01*
X280739314Y-100910370D01*
X280754329Y-100904997D01*
X280769798Y-100901122D01*
X280785572Y-100898782D01*
X280801500Y-100898000D01*
X281126500Y-100898000D01*
X281142428Y-100898782D01*
G37*
D30*
X267700000Y-94500000D03*
D31*
X265700000Y-94300000D03*
X267700000Y-96200000D03*
X265700000Y-96200000D03*
D18*
X283155000Y-120130000D03*
X288345000Y-118630000D03*
X288345000Y-120130000D03*
X283155000Y-118630000D03*
X264105000Y-118630000D03*
X269295000Y-120130000D03*
X269295000Y-118630000D03*
X264105000Y-120130000D03*
X245055000Y-118630000D03*
X250245000Y-120130000D03*
X250245000Y-118630000D03*
X245055000Y-120130000D03*
D16*
X291050000Y-100838000D03*
X289150000Y-100838000D03*
D32*
X278638000Y-91125000D03*
X278638000Y-93025000D03*
D16*
X270512500Y-100012500D03*
X272412500Y-100012500D03*
X272412500Y-97631250D03*
X270512500Y-97631250D03*
X272412500Y-95250000D03*
X270512500Y-95250000D03*
X272412500Y-102393750D03*
X270512500Y-102393750D03*
D33*
X288268400Y-123494800D03*
X291568400Y-123494800D03*
D34*
X295402000Y-105284000D03*
X295402000Y-108584000D03*
D33*
X275868400Y-123494800D03*
X272568400Y-123494800D03*
D34*
X276352000Y-105284000D03*
X276352000Y-108584000D03*
D33*
X256818400Y-123494800D03*
X253518400Y-123494800D03*
D34*
X257302000Y-105284000D03*
X257302000Y-108584000D03*
D35*
X278638000Y-89523000D03*
X278638000Y-88023000D03*
D36*
X274205000Y-95250000D03*
X275705000Y-95250000D03*
X289477000Y-102997000D03*
X290977000Y-102997000D03*
X289477000Y-96266000D03*
X290977000Y-96266000D03*
X284849000Y-87376000D03*
X283349000Y-87376000D03*
D35*
X287020000Y-89293000D03*
X287020000Y-90793000D03*
D36*
X277102000Y-101600000D03*
X275602000Y-101600000D03*
M02*
