0
SECTION
2
HEADER
9
$INSUNITS
70
4
9
$ACADVER
1
AC1014
9
$HANDSEED
5
FFFF
0
ENDSEC
0
SECTION
2
TABLES
0
TABLE
2
VPORT
5
8
100
AcDbSymbolTable
0
ENDTAB
0
TABLE
2
LTYPE
5
5
100
AcDbSymbolTable
0
LTYPE
5
14
100
AcDbSymbolTableRecord
100
AcDbLinetypeTableRecord
2
BYBLOCK
70
0
0
LTYPE
5
15
100
AcDbSymbolTableRecord
100
AcDbLinetypeTableRecord
2
BYLAYER
70
0
0
ENDTAB
0
TABLE
2
LAYER
5
2
100
AcDbSymbolTable
70
2
0
LAYER
5
50
100
AcDbSymbolTableRecord
100
AcDbLayerTableRecord
2
0
70
0
6
CONTINUOUS
0
ENDTAB
0
TABLE
2
STYLE
5
3
100
AcDbSymbolTable
70
1
0
STYLE
5
11
100
AcDbSymbolTableRecord
100
AcDbTextStyleTableRecord
2
STANDARD
70
0
0
ENDTAB
0
TABLE
2
VIEW
5
6
100
AcDbSymbolTable
70
0
0
ENDTAB
0
TABLE
2
UCS
5
7
100
AcDbSymbolTable
70
0
0
ENDTAB
0
TABLE
2
APPID
5
9
100
AcDbSymbolTable
70
2
0
APPID
5
12
100
AcDbSymbolTableRecord
100
AcDbRegAppTableRecord
2
ACAD
70
0
0
ENDTAB
0
TABLE
2
DIMSTYLE
5
A
100
AcDbSymbolTable
70
1
0
ENDTAB
0
TABLE
2
BLOCK_RECORD
5
1
100
AcDbSymbolTable
70
1
0
BLOCK_RECORD
5
1F
100
AcDbSymbolTableRecord
100
AcDbBlockTableRecord
2
*MODEL_SPACE
0
BLOCK_RECORD
5
1B
100
AcDbSymbolTableRecord
100
AcDbBlockTableRecord
2
*PAPER_SPACE
0
ENDTAB
0
ENDSEC
0
SECTION
2
BLOCKS
0
BLOCK
5
20
100
AcDbEntity
100
AcDbBlockBegin
2
*MODEL_SPACE
0
ENDBLK
5
21
100
AcDbEntity
100
AcDbBlockEnd
0
BLOCK
5
1C
100
AcDbEntity
100
AcDbBlockBegin
2
*PAPER_SPACE
0
ENDBLK
5
1D
100
AcDbEntity
100
AcDbBlockEnd
0
ENDSEC
0
SECTION
2
ENTITIES
0
LWPOLYLINE
5
100
100
AcDbEntity
8
0
100
AcDbPolyline
90
114
70
1
43
0.0
10
72.306106
20
-25.240111004180005
10
72.306106999999997
20
-25.462132000000004
42
-0.99999999999999989
10
66.306106999999997
20
-25.462132000000004
10
66.306106999999997
20
-25.240112000000003
42
0.41421355991923287
10
65.806107004189002
20
-24.740112000000003
10
62.993572
20
-24.740112
42
0.36969036871145999
10
62.005465224094195
20
-25.586358559844339
42
-0.85642990244054074
10
57.558968999999792
20
-25.586360000000031
42
0.36969036871350563
10
56.570862611232009
20
-24.740113451418296
10
52.095837000000003
20
-24.740112
42
0.38010277689507532
10
51.10277461293137
20
-25.622535705829694
42
-0.88857799471456944
10
44.647865000000479
20
-25.622599999999945
42
0.38012043611879348
10
43.654724423974002
20
-24.740196629435257
10
32.37102800000001
20
-24.741112000000001
42
0.42717543979943468
10
28.282037646209584
20
-28.829111652710012
10
28.282038000000004
20
-138.22411199999999
42
0.41425325728099488
10
32.28203806323701
20
-142.22411199999598
10
46.981105999999997
20
-142.22411199999999
42
0.41421356237308982
10
47.481106999999994
20
-141.72411299999999
10
47.481107000000009
20
-141.024631
42
-0.99999999999999989
10
53.481107000000002
20
-141.024631
10
53.481107000000002
20
-141.72411199999999
42
0.41421356237309503
10
53.981107000000002
20
-142.22411199999999
10
76.052537000000001
20
-142.22411199999999
42
0.31219373403421047
10
76.98830193826393
20
-141.57673516382994
42
-0.69181524994067434
10
83.069760000000258
20
-141.57673499999993
42
0.31219373402713257
10
84.005525472274996
20
-142.22411249344188
10
234.405824
20
-142.21922900000004
42
0.31210372739987541
10
235.34137660288968
20
-141.57201964987979
42
-0.69213687442773031
10
241.42332599999989
20
-141.57575200000005
42
0.31248161378852191
10
242.35945966411003
20
-142.22411171391113
10
260.36940800000002
20
-142.22411199999999
42
0.31213443946286235
10
261.3050985854253
20
-141.5769380994476
42
-0.69165542756904808
10
267.38707499999992
20
-141.57693700000004
42
0.3121344394459889
10
268.32276417775
20
-142.22411262836167
10
312.97940799999998
20
-142.22411199999999
42
0.31213443946287145
10
313.91509858542526
20
-141.5769380994476
42
-0.69165542756904519
10
319.99707499999994
20
-141.57693700000002
42
0.31213443944599001
10
320.93276417775002
20
-142.22411262836167
10
332.50610700000004
20
-142.22411199999999
42
0.41421355639806245
10
333.00610699999999
20
-141.7241120102
10
333.00610699999999
20
-141.024631
42
-0.99999999999999989
10
339.00610699999993
20
-141.024631
10
339.00610700000004
20
-141.72411199999999
42
0.41421356840084267
10
339.50610701029001
20
-142.22411199999999
10
351.55440800000002
20
-142.22411199999999
42
0.31213443946287944
10
352.4900985854253
20
-141.57693809944757
42
-0.69165542756904241
10
358.57207499999993
20
-141.57693700000004
42
0.3121344394459889
10
359.50776417775
20
-142.22411262836167
10
368.28203700000006
20
-142.22411199999999
42
0.41425039573936584
10
372.28203800006298
20
-138.2241120102
10
372.282037
20
-28.740112
42
0.41424965080548604
10
368.28203718226001
20
-24.740113000050346
10
359.22359800000004
20
-24.741309000000005
42
0.36501154522912549
10
358.28356602698028
20
-25.622378258453296
42
-0.88861134156280674
10
351.82862699999981
20
-25.622539000000032
42
0.38010347766512792
10
350.83556489416998
20
-24.740113233852398
10
339.505245
20
-24.740112
42
0.41370955265452769
10
339.00610625867819
20
-25.240111449170005
10
339.00610699999982
20
-25.462132000599382
42
-0.99999983323345021
10
333.00610699999999
20
-25.462130999999999
10
333.00610599999999
20
-25.240110000000001
42
0.41471789828732103
10
332.50524419870999
20
-24.740111742701014
10
321.655036
20
-24.740112
42
0.41421356237309503
10
320.655036
20
-25.740112000000003
10
320.655036
20
-27.737122000000003
42
-0.41421356237309503
10
319.655036
20
-28.737122000000003
10
318.87207799999999
20
-28.737121999999999
42
-0.99999999999999989
10
318.87207799999999
20
-27.737122000000003
10
319.15181799999999
20
-27.737122000000003
42
0.41421356237309503
10
319.65181799999999
20
-27.237121999999999
10
319.65181799999999
20
-19.011112000000001
42
0.41319154133842029
10
318.89172869611002
20
-18.251112842389727
10
310.25181800000001
20
-18.251111999999999
42
0.41319154133483643
10
309.49181784239624
20
-19.011202300390011
10
309.49181900000002
20
-27.237121999999999
42
0.41421356237309503
10
309.99181900000002
20
-27.737121999999999
10
310.27208700000006
20
-27.737122000000003
42
-0.99999999999999989
10
310.27208700000006
20
-28.737121999999999
10
309.49181904304209
20
-28.73711682236312
42
-0.41327135674378268
10
308.49503700000002
20
-27.737122000000003
10
308.49503700000002
20
-25.740112000000003
42
0.41421356237309503
10
307.49503700000002
20
-24.740112
10
294.98429700000003
20
-24.740112
42
0.38010277689513144
10
293.99123404282074
20
-25.622535638329818
42
-0.88858713054613925
10
287.53631800000011
20
-25.622535999999986
42
0.38010277689583277
10
286.54325448177008
20
-24.740111888064117
10
261.648056
20
-24.740112
42
0.38010277689518945
10
260.65499256479148
20
-25.622535581732613
42
-0.3801028593761494
10
257.42753499999998
20
-28.490413000000004
10
255.04328700000019
20
-28.490413481368012
42
-0.38010282731351897
10
251.81582900000012
20
-25.622535999999986
42
0.38010277689584293
10
250.82276548177003
20
-24.740111888064117
10
235.45273800000004
20
-24.740112
42
0.3801027761629398
10
234.45967504287847
20
-25.622535634935236
42
-0.88941928349990806
10
228.00475900000023
20
-25.622535999999975
42
0.38010277689685723
10
227.01169636418999
20
-24.740112881128063
10
214.02275599999999
20
-24.740112
42
0.38010277689519317
10
213.0296925647915
20
-25.622535581732627
42
-0.38010285937614785
10
209.802235
20
-28.490413000000004
10
207.41798700000021
20
-28.490413481368012
42
-0.38010282731351935
10
204.19052900000014
20
-25.622535999999982
42
0.38010277689584288
10
203.19746548177
20
-24.740111888064117
10
148.71474599999999
20
-24.740112
42
0.37034927880132479
10
147.72628213302443
20
-25.588649131867072
42
-0.8584411931567697
10
143.28815000000003
20
-25.588650000000001
42
0.37034928192936994
10
142.29968771579999
20
-24.740112080094256
10
132.82227599999999
20
-24.740112
42
0.3121166782352025
10
131.88661072347969
20
-25.387226256505365
42
-0.31211670047471368
10
128.84603300000003
20
-27.490113000000001
10
121.6932849999899
20
-27.490414313651783
42
-0.36969025935145766
10
119.47003999999953
20
-25.58636000000007
42
0.36969044147350361
10
118.48193250894001
20
-24.740112463309142
10
72.806106999999997
20
-24.740112
42
0.41421356482168409
0
CIRCLE
5
101
100
AcDbEntity
8
0
100
AcDbCircle
10
35.968586999999999
20
-33.237112000000003
30
0
40
1.9939
210
0
220
0
230
1
0
ENDSEC
0
SECTION
2
OBJECTS
0
DICTIONARY
5
C
100
AcDbDictionary
3
ACAD_GROUP
350
D
3
ACAD_MLINESTYLE
350
17
0
DICTIONARY
5
D
100
AcDbDictionary
0
DICTIONARY
5
1A
330
C
100
AcDbDictionary
0
DICTIONARY
5
17
100
AcDbDictionary
0
ENDSEC
0
EOF
