G04 #@! TF.GenerationSoftware,KiCad,Pcbnew,(5.1.5)-3*
G04 #@! TF.CreationDate,2021-03-03T02:22:02+07:00*
G04 #@! TF.ProjectId,EV65,45563635-2e6b-4696-9361-645f70636258,rev?*
G04 #@! TF.SameCoordinates,Original*
G04 #@! TF.FileFunction,Profile,NP*
%FSLAX46Y46*%
G04 Gerber Fmt 4.6, Leading zero omitted, Abs format (unit mm)*
G04 Created by KiCad (PCBNEW (5.1.5)-3) date 2021-03-03 02:22:02*
%MOMM*%
%LPD*%
G04 APERTURE LIST*
%ADD10C,0.100000*%
%ADD11C,0.150000*%
G04 APERTURE END LIST*
D10*
X57720301Y-49713999D02*
X331925301Y-49714001D01*
X37523813Y-143765485D02*
X331925300Y-143763999D01*
X37523813Y-143765485D02*
G75*
G02X33523814Y-139765486I0J3999999D01*
G01*
X331925301Y-49714001D02*
G75*
G02X335925300Y-53714000I0J-3999999D01*
G01*
X56720300Y-45313999D02*
X56720301Y-48713999D01*
X37491724Y-49713998D02*
X44955299Y-49714000D01*
X33002600Y-99522800D02*
X28384500Y-99522800D01*
X33002600Y-99522800D02*
G75*
G02X33502600Y-100022800I0J-500000D01*
G01*
X33502600Y-93022800D02*
G75*
G02X33002600Y-93522800I-500000J0D01*
G01*
X28384500Y-99522800D02*
G75*
G02X27384500Y-98522800I0J1000000D01*
G01*
X27384500Y-94522800D02*
G75*
G02X28384500Y-93522800I1000000J0D01*
G01*
X33502600Y-100022800D02*
X33523814Y-139765486D01*
X27384500Y-98522800D02*
X27384500Y-94522800D01*
X28384500Y-93522800D02*
X33002600Y-93522800D01*
X335925299Y-139764000D02*
G75*
G02X331925300Y-143763999I-3999999J0D01*
G01*
X45955298Y-48713999D02*
G75*
G02X44955299Y-49714000I-1000000J-1D01*
G01*
X45955300Y-45313999D02*
X45955298Y-48713999D01*
X33491723Y-53713997D02*
G75*
G02X37491724Y-49713998I4000000J-1D01*
G01*
X57720301Y-49713999D02*
G75*
G02X56720301Y-48713999I0J1000000D01*
G01*
X56720300Y-45313999D02*
X45955300Y-45313999D01*
X335925298Y-139764000D02*
X335925300Y-53714000D01*
X33491723Y-53715485D02*
X33502600Y-93022800D01*
D11*
X48572500Y-80850000D02*
X48572500Y-84250000D01*
X44772500Y-84250000D02*
X48572500Y-84250000D01*
X44772500Y-80850000D02*
X44772500Y-84250000D01*
X44772500Y-80850000D02*
X48572500Y-80850000D01*
X329560000Y-138000000D02*
X329560000Y-141400000D01*
X325760000Y-141400000D02*
X329560000Y-141400000D01*
X325760000Y-138000000D02*
X325760000Y-141400000D01*
X325760000Y-138000000D02*
X329560000Y-138000000D01*
X310510000Y-138000000D02*
X310510000Y-141400000D01*
X306710000Y-141400000D02*
X310510000Y-141400000D01*
X306710000Y-138000000D02*
X306710000Y-141400000D01*
X306710000Y-138000000D02*
X310510000Y-138000000D01*
X291460000Y-138000000D02*
X291460000Y-141400000D01*
X287660000Y-141400000D02*
X291460000Y-141400000D01*
X287660000Y-138000000D02*
X287660000Y-141400000D01*
X287660000Y-138000000D02*
X291460000Y-138000000D01*
X260503750Y-138000000D02*
X260503750Y-141400000D01*
X256703750Y-141400000D02*
X260503750Y-141400000D01*
X256703750Y-138000000D02*
X256703750Y-141400000D01*
X256703750Y-138000000D02*
X260503750Y-138000000D01*
X236253750Y-138000000D02*
X240053750Y-138000000D01*
X236253750Y-138000000D02*
X236253750Y-141400000D01*
X236253750Y-141400000D02*
X240053750Y-141400000D01*
X240053750Y-138000000D02*
X240053750Y-141400000D01*
X175253750Y-138000000D02*
X175253750Y-141400000D01*
X171453750Y-141400000D02*
X175253750Y-141400000D01*
X171453750Y-138000000D02*
X171453750Y-141400000D01*
X171453750Y-138000000D02*
X175253750Y-138000000D01*
X165253750Y-138000000D02*
X165253750Y-141400000D01*
X161453750Y-141400000D02*
X165253750Y-141400000D01*
X161453750Y-138000000D02*
X161453750Y-141400000D01*
X161453750Y-138000000D02*
X165253750Y-138000000D01*
X94816250Y-138000000D02*
X94816250Y-141400000D01*
X91016250Y-141400000D02*
X94816250Y-141400000D01*
X91016250Y-138000000D02*
X91016250Y-141400000D01*
X91016250Y-138000000D02*
X94816250Y-138000000D01*
X71003750Y-138000000D02*
X71003750Y-141400000D01*
X67203750Y-141400000D02*
X71003750Y-141400000D01*
X67203750Y-138000000D02*
X67203750Y-141400000D01*
X67203750Y-138000000D02*
X71003750Y-138000000D01*
X47191250Y-138000000D02*
X47191250Y-141400000D01*
X43391250Y-141400000D02*
X47191250Y-141400000D01*
X43391250Y-138000000D02*
X43391250Y-141400000D01*
X43391250Y-138000000D02*
X47191250Y-138000000D01*
X49572500Y-118950000D02*
X49572500Y-122350000D01*
X45772500Y-122350000D02*
X49572500Y-122350000D01*
X45772500Y-118950000D02*
X45772500Y-122350000D01*
X45772500Y-118950000D02*
X49572500Y-118950000D01*
X62097500Y-118950000D02*
X62097500Y-122350000D01*
X58297500Y-122350000D02*
X62097500Y-122350000D01*
X58297500Y-118950000D02*
X58297500Y-122350000D01*
X58297500Y-118950000D02*
X62097500Y-118950000D01*
X86672500Y-118950000D02*
X86672500Y-122350000D01*
X82872500Y-122350000D02*
X86672500Y-122350000D01*
X82872500Y-118950000D02*
X82872500Y-122350000D01*
X82872500Y-118950000D02*
X86672500Y-118950000D01*
X105722500Y-118950000D02*
X105722500Y-122350000D01*
X101922500Y-122350000D02*
X105722500Y-122350000D01*
X101922500Y-118950000D02*
X101922500Y-122350000D01*
X101922500Y-118950000D02*
X105722500Y-118950000D01*
X120972500Y-118950000D02*
X124772500Y-118950000D01*
X120972500Y-118950000D02*
X120972500Y-122350000D01*
X120972500Y-122350000D02*
X124772500Y-122350000D01*
X124772500Y-118950000D02*
X124772500Y-122350000D01*
X143822500Y-118950000D02*
X143822500Y-122350000D01*
X140022500Y-122350000D02*
X143822500Y-122350000D01*
X140022500Y-118950000D02*
X140022500Y-122350000D01*
X140022500Y-118950000D02*
X143822500Y-118950000D01*
X162872500Y-118950000D02*
X162872500Y-122350000D01*
X159072500Y-122350000D02*
X162872500Y-122350000D01*
X159072500Y-118950000D02*
X159072500Y-122350000D01*
X159072500Y-118950000D02*
X162872500Y-118950000D01*
X181922500Y-118950000D02*
X181922500Y-122350000D01*
X178122500Y-122350000D02*
X181922500Y-122350000D01*
X178122500Y-118950000D02*
X178122500Y-122350000D01*
X178122500Y-118950000D02*
X181922500Y-118950000D01*
X200972500Y-118950000D02*
X200972500Y-122350000D01*
X197172500Y-122350000D02*
X200972500Y-122350000D01*
X197172500Y-118950000D02*
X197172500Y-122350000D01*
X197172500Y-118950000D02*
X200972500Y-118950000D01*
X220022500Y-118950000D02*
X220022500Y-122350000D01*
X216222500Y-122350000D02*
X220022500Y-122350000D01*
X216222500Y-118950000D02*
X216222500Y-122350000D01*
X216222500Y-118950000D02*
X220022500Y-118950000D01*
X239072500Y-118950000D02*
X239072500Y-122350000D01*
X235272500Y-122350000D02*
X239072500Y-122350000D01*
X235272500Y-118950000D02*
X235272500Y-122350000D01*
X235272500Y-118950000D02*
X239072500Y-118950000D01*
X258122500Y-118950000D02*
X258122500Y-122350000D01*
X254322500Y-122350000D02*
X258122500Y-122350000D01*
X254322500Y-118950000D02*
X254322500Y-122350000D01*
X254322500Y-118950000D02*
X258122500Y-118950000D01*
X284316250Y-118950000D02*
X284316250Y-122350000D01*
X280516250Y-122350000D02*
X284316250Y-122350000D01*
X280516250Y-118950000D02*
X280516250Y-122350000D01*
X280516250Y-118950000D02*
X284316250Y-118950000D01*
X310510000Y-118950000D02*
X310510000Y-122350000D01*
X306710000Y-122350000D02*
X310510000Y-122350000D01*
X306710000Y-118950000D02*
X306710000Y-122350000D01*
X306710000Y-118950000D02*
X310510000Y-118950000D01*
X329560000Y-118950000D02*
X329560000Y-122350000D01*
X325760000Y-122350000D02*
X329560000Y-122350000D01*
X325760000Y-118950000D02*
X325760000Y-122350000D01*
X325760000Y-118950000D02*
X329560000Y-118950000D01*
X329560000Y-99900000D02*
X329560000Y-103300000D01*
X325760000Y-103300000D02*
X329560000Y-103300000D01*
X325760000Y-99900000D02*
X325760000Y-103300000D01*
X325760000Y-99900000D02*
X329560000Y-99900000D01*
X298603750Y-99900000D02*
X298603750Y-103300000D01*
X294803750Y-103300000D02*
X298603750Y-103300000D01*
X294803750Y-99900000D02*
X294803750Y-103300000D01*
X294803750Y-99900000D02*
X298603750Y-99900000D01*
X267647500Y-99900000D02*
X267647500Y-103300000D01*
X263847500Y-103300000D02*
X267647500Y-103300000D01*
X263847500Y-99900000D02*
X263847500Y-103300000D01*
X263847500Y-99900000D02*
X267647500Y-99900000D01*
X248597500Y-99900000D02*
X248597500Y-103300000D01*
X244797500Y-103300000D02*
X248597500Y-103300000D01*
X244797500Y-99900000D02*
X244797500Y-103300000D01*
X244797500Y-99900000D02*
X248597500Y-99900000D01*
X229547500Y-99900000D02*
X229547500Y-103300000D01*
X225747500Y-103300000D02*
X229547500Y-103300000D01*
X225747500Y-99900000D02*
X225747500Y-103300000D01*
X225747500Y-99900000D02*
X229547500Y-99900000D01*
X210497500Y-99900000D02*
X210497500Y-103300000D01*
X206697500Y-103300000D02*
X210497500Y-103300000D01*
X206697500Y-99900000D02*
X206697500Y-103300000D01*
X206697500Y-99900000D02*
X210497500Y-99900000D01*
X191447500Y-99900000D02*
X191447500Y-103300000D01*
X187647500Y-103300000D02*
X191447500Y-103300000D01*
X187647500Y-99900000D02*
X187647500Y-103300000D01*
X187647500Y-99900000D02*
X191447500Y-99900000D01*
X172397500Y-99900000D02*
X172397500Y-103300000D01*
X168597500Y-103300000D02*
X172397500Y-103300000D01*
X168597500Y-99900000D02*
X168597500Y-103300000D01*
X168597500Y-99900000D02*
X172397500Y-99900000D01*
X153347500Y-99900000D02*
X153347500Y-103300000D01*
X149547500Y-103300000D02*
X153347500Y-103300000D01*
X149547500Y-99900000D02*
X149547500Y-103300000D01*
X149547500Y-99900000D02*
X153347500Y-99900000D01*
X134297500Y-99900000D02*
X134297500Y-103300000D01*
X130497500Y-103300000D02*
X134297500Y-103300000D01*
X130497500Y-99900000D02*
X130497500Y-103300000D01*
X130497500Y-99900000D02*
X134297500Y-99900000D01*
X115247500Y-99900000D02*
X115247500Y-103300000D01*
X111447500Y-103300000D02*
X115247500Y-103300000D01*
X111447500Y-99900000D02*
X111447500Y-103300000D01*
X111447500Y-99900000D02*
X115247500Y-99900000D01*
X96197500Y-99900000D02*
X96197500Y-103300000D01*
X92397500Y-103300000D02*
X96197500Y-103300000D01*
X92397500Y-99900000D02*
X92397500Y-103300000D01*
X92397500Y-99900000D02*
X96197500Y-99900000D01*
X77147500Y-99900000D02*
X77147500Y-103300000D01*
X73347500Y-103300000D02*
X77147500Y-103300000D01*
X73347500Y-99900000D02*
X73347500Y-103300000D01*
X73347500Y-99900000D02*
X77147500Y-99900000D01*
X44153750Y-99900000D02*
X47953750Y-99900000D01*
X44153750Y-99900000D02*
X44153750Y-103300000D01*
X44153750Y-103300000D02*
X47953750Y-103300000D01*
X47953750Y-99900000D02*
X47953750Y-103300000D01*
X72385000Y-80850000D02*
X72385000Y-84250000D01*
X68585000Y-84250000D02*
X72385000Y-84250000D01*
X68585000Y-80850000D02*
X68585000Y-84250000D01*
X68585000Y-80850000D02*
X72385000Y-80850000D01*
X91435000Y-80850000D02*
X91435000Y-84250000D01*
X87635000Y-84250000D02*
X91435000Y-84250000D01*
X87635000Y-80850000D02*
X87635000Y-84250000D01*
X87635000Y-80850000D02*
X91435000Y-80850000D01*
X110485000Y-80850000D02*
X110485000Y-84250000D01*
X106685000Y-84250000D02*
X110485000Y-84250000D01*
X106685000Y-80850000D02*
X106685000Y-84250000D01*
X106685000Y-80850000D02*
X110485000Y-80850000D01*
X129535000Y-80850000D02*
X129535000Y-84250000D01*
X125735000Y-84250000D02*
X129535000Y-84250000D01*
X125735000Y-80850000D02*
X125735000Y-84250000D01*
X125735000Y-80850000D02*
X129535000Y-80850000D01*
X148585000Y-80850000D02*
X148585000Y-84250000D01*
X144785000Y-84250000D02*
X148585000Y-84250000D01*
X144785000Y-80850000D02*
X144785000Y-84250000D01*
X144785000Y-80850000D02*
X148585000Y-80850000D01*
X167635000Y-80850000D02*
X167635000Y-84250000D01*
X163835000Y-84250000D02*
X167635000Y-84250000D01*
X163835000Y-80850000D02*
X163835000Y-84250000D01*
X163835000Y-80850000D02*
X167635000Y-80850000D01*
X186685000Y-80850000D02*
X186685000Y-84250000D01*
X182885000Y-84250000D02*
X186685000Y-84250000D01*
X182885000Y-80850000D02*
X182885000Y-84250000D01*
X182885000Y-80850000D02*
X186685000Y-80850000D01*
X205735000Y-80850000D02*
X205735000Y-84250000D01*
X201935000Y-84250000D02*
X205735000Y-84250000D01*
X201935000Y-80850000D02*
X201935000Y-84250000D01*
X201935000Y-80850000D02*
X205735000Y-80850000D01*
X224785000Y-80850000D02*
X224785000Y-84250000D01*
X220985000Y-84250000D02*
X224785000Y-84250000D01*
X220985000Y-80850000D02*
X220985000Y-84250000D01*
X220985000Y-80850000D02*
X224785000Y-80850000D01*
X243835000Y-80850000D02*
X243835000Y-84250000D01*
X240035000Y-84250000D02*
X243835000Y-84250000D01*
X240035000Y-80850000D02*
X240035000Y-84250000D01*
X240035000Y-80850000D02*
X243835000Y-80850000D01*
X262885000Y-80850000D02*
X262885000Y-84250000D01*
X259085000Y-84250000D02*
X262885000Y-84250000D01*
X259085000Y-80850000D02*
X259085000Y-84250000D01*
X259085000Y-80850000D02*
X262885000Y-80850000D01*
X281935000Y-80850000D02*
X281935000Y-84250000D01*
X278135000Y-84250000D02*
X281935000Y-84250000D01*
X278135000Y-80850000D02*
X278135000Y-84250000D01*
X278135000Y-80850000D02*
X281935000Y-80850000D01*
X305747500Y-80850000D02*
X305747500Y-84250000D01*
X301947500Y-84250000D02*
X305747500Y-84250000D01*
X301947500Y-80850000D02*
X301947500Y-84250000D01*
X301947500Y-80850000D02*
X305747500Y-80850000D01*
X329560000Y-80850000D02*
X329560000Y-84250000D01*
X325760000Y-84250000D02*
X329560000Y-84250000D01*
X325760000Y-80850000D02*
X325760000Y-84250000D01*
X325760000Y-80850000D02*
X329560000Y-80850000D01*
X329560000Y-61800000D02*
X329560000Y-65200000D01*
X325760000Y-65200000D02*
X329560000Y-65200000D01*
X325760000Y-61800000D02*
X325760000Y-65200000D01*
X325760000Y-61800000D02*
X329560000Y-61800000D01*
X300985000Y-61800000D02*
X300985000Y-65200000D01*
X297185000Y-65200000D02*
X300985000Y-65200000D01*
X297185000Y-61800000D02*
X297185000Y-65200000D01*
X297185000Y-61800000D02*
X300985000Y-61800000D01*
X272410000Y-61800000D02*
X272410000Y-65200000D01*
X268610000Y-65200000D02*
X272410000Y-65200000D01*
X268610000Y-61800000D02*
X268610000Y-65200000D01*
X268610000Y-61800000D02*
X272410000Y-61800000D01*
X234310000Y-61800000D02*
X234310000Y-65200000D01*
X230510000Y-65200000D02*
X234310000Y-65200000D01*
X230510000Y-61800000D02*
X230510000Y-65200000D01*
X230510000Y-61800000D02*
X234310000Y-61800000D01*
X215260000Y-61800000D02*
X215260000Y-65200000D01*
X211460000Y-65200000D02*
X215260000Y-65200000D01*
X211460000Y-61800000D02*
X211460000Y-65200000D01*
X211460000Y-61800000D02*
X215260000Y-61800000D01*
X196210000Y-61800000D02*
X196210000Y-65200000D01*
X192410000Y-65200000D02*
X196210000Y-65200000D01*
X192410000Y-61800000D02*
X192410000Y-65200000D01*
X192410000Y-61800000D02*
X196210000Y-61800000D01*
X158110000Y-61800000D02*
X158110000Y-65200000D01*
X154310000Y-65200000D02*
X158110000Y-65200000D01*
X154310000Y-61800000D02*
X154310000Y-65200000D01*
X154310000Y-61800000D02*
X158110000Y-61800000D01*
X139060000Y-61800000D02*
X139060000Y-65200000D01*
X135260000Y-65200000D02*
X139060000Y-65200000D01*
X135260000Y-61800000D02*
X135260000Y-65200000D01*
X135260000Y-61800000D02*
X139060000Y-61800000D01*
X120010000Y-61800000D02*
X120010000Y-65200000D01*
X116210000Y-65200000D02*
X120010000Y-65200000D01*
X116210000Y-61800000D02*
X116210000Y-65200000D01*
X116210000Y-61800000D02*
X120010000Y-61800000D01*
X81910000Y-61800000D02*
X81910000Y-65200000D01*
X78110000Y-65200000D02*
X81910000Y-65200000D01*
X78110000Y-61800000D02*
X78110000Y-65200000D01*
X78110000Y-61800000D02*
X81910000Y-61800000D01*
X253360000Y-61800000D02*
X253360000Y-65200000D01*
X249560000Y-65200000D02*
X253360000Y-65200000D01*
X249560000Y-61800000D02*
X249560000Y-65200000D01*
X249560000Y-61800000D02*
X253360000Y-61800000D01*
X177160000Y-61800000D02*
X177160000Y-65200000D01*
X173360000Y-65200000D02*
X177160000Y-65200000D01*
X173360000Y-61800000D02*
X173360000Y-65200000D01*
X173360000Y-61800000D02*
X177160000Y-61800000D01*
X100960000Y-61800000D02*
X100960000Y-65200000D01*
X97160000Y-65200000D02*
X100960000Y-65200000D01*
X97160000Y-61800000D02*
X97160000Y-65200000D01*
X97160000Y-61800000D02*
X100960000Y-61800000D01*
X62860000Y-61800000D02*
X62860000Y-65200000D01*
X59060000Y-65200000D02*
X62860000Y-65200000D01*
X59060000Y-61800000D02*
X59060000Y-65200000D01*
X59060000Y-61800000D02*
X62860000Y-61800000D01*
X43810000Y-61800000D02*
X43810000Y-65200000D01*
X40010000Y-65200000D02*
X43810000Y-65200000D01*
X40010000Y-61800000D02*
X40010000Y-65200000D01*
X40010000Y-61800000D02*
X43810000Y-61800000D01*
M02*
