G04 #@! TF.GenerationSoftware,KiCad,Pcbnew,(5.1.5)-3*
G04 #@! TF.CreationDate,2021-03-03T02:22:02+07:00*
G04 #@! TF.ProjectId,EV65,45563635-2e6b-4696-9361-645f70636258,rev?*
G04 #@! TF.SameCoordinates,Original*
G04 #@! TF.FileFunction,Legend,Top*
G04 #@! TF.FilePolarity,Positive*
%FSLAX46Y46*%
G04 Gerber Fmt 4.6, Leading zero omitted, Abs format (unit mm)*
G04 Created by KiCad (PCBNEW (5.1.5)-3) date 2021-03-03 02:22:02*
%MOMM*%
%LPD*%
G04 APERTURE LIST*
%ADD10C,0.120000*%
%ADD11C,0.250000*%
%ADD12C,0.150000*%
G04 APERTURE END LIST*
D10*
X27806392Y-94847665D02*
G75*
G03X27649484Y-98080000I1078608J-1672335D01*
G01*
X29963608Y-94847665D02*
G75*
G02X30120516Y-98080000I-1078608J-1672335D01*
G01*
X27805163Y-95478870D02*
G75*
G03X27805000Y-97560961I1079837J-1041130D01*
G01*
X29964837Y-95478870D02*
G75*
G02X29965000Y-97560961I-1079837J-1041130D01*
G01*
X27649000Y-98080000D02*
X27805000Y-98080000D01*
X29965000Y-98080000D02*
X30121000Y-98080000D01*
D11*
X34219200Y-125994800D02*
X34219200Y-120994800D01*
D12*
X26377380Y-97734285D02*
X25377380Y-97734285D01*
X25377380Y-97496190D01*
X25425000Y-97353333D01*
X25520238Y-97258095D01*
X25615476Y-97210476D01*
X25805952Y-97162857D01*
X25948809Y-97162857D01*
X26139285Y-97210476D01*
X26234523Y-97258095D01*
X26329761Y-97353333D01*
X26377380Y-97496190D01*
X26377380Y-97734285D01*
X25377380Y-96305714D02*
X25377380Y-96496190D01*
X25425000Y-96591428D01*
X25472619Y-96639047D01*
X25615476Y-96734285D01*
X25805952Y-96781904D01*
X26186904Y-96781904D01*
X26282142Y-96734285D01*
X26329761Y-96686666D01*
X26377380Y-96591428D01*
X26377380Y-96400952D01*
X26329761Y-96305714D01*
X26282142Y-96258095D01*
X26186904Y-96210476D01*
X25948809Y-96210476D01*
X25853571Y-96258095D01*
X25805952Y-96305714D01*
X25758333Y-96400952D01*
X25758333Y-96591428D01*
X25805952Y-96686666D01*
X25853571Y-96734285D01*
X25948809Y-96781904D01*
X26377380Y-95734285D02*
X26377380Y-95543809D01*
X26329761Y-95448571D01*
X26282142Y-95400952D01*
X26139285Y-95305714D01*
X25948809Y-95258095D01*
X25567857Y-95258095D01*
X25472619Y-95305714D01*
X25425000Y-95353333D01*
X25377380Y-95448571D01*
X25377380Y-95639047D01*
X25425000Y-95734285D01*
X25472619Y-95781904D01*
X25567857Y-95829523D01*
X25805952Y-95829523D01*
X25901190Y-95781904D01*
X25948809Y-95734285D01*
X25996428Y-95639047D01*
X25996428Y-95448571D01*
X25948809Y-95353333D01*
X25901190Y-95305714D01*
X25805952Y-95258095D01*
X36917771Y-87077180D02*
X36917771Y-86077180D01*
X37251104Y-86791466D01*
X37584438Y-86077180D01*
X37584438Y-87077180D01*
X38060628Y-87077180D02*
X38060628Y-86077180D01*
X38489200Y-87029561D02*
X38632057Y-87077180D01*
X38870152Y-87077180D01*
X38965390Y-87029561D01*
X39013009Y-86981942D01*
X39060628Y-86886704D01*
X39060628Y-86791466D01*
X39013009Y-86696228D01*
X38965390Y-86648609D01*
X38870152Y-86600990D01*
X38679676Y-86553371D01*
X38584438Y-86505752D01*
X38536819Y-86458133D01*
X38489200Y-86362895D01*
X38489200Y-86267657D01*
X38536819Y-86172419D01*
X38584438Y-86124800D01*
X38679676Y-86077180D01*
X38917771Y-86077180D01*
X39060628Y-86124800D01*
X39679676Y-86077180D02*
X39870152Y-86077180D01*
X39965390Y-86124800D01*
X40060628Y-86220038D01*
X40108247Y-86410514D01*
X40108247Y-86743847D01*
X40060628Y-86934323D01*
X39965390Y-87029561D01*
X39870152Y-87077180D01*
X39679676Y-87077180D01*
X39584438Y-87029561D01*
X39489200Y-86934323D01*
X39441580Y-86743847D01*
X39441580Y-86410514D01*
X39489200Y-86220038D01*
X39584438Y-86124800D01*
X39679676Y-86077180D01*
X36953485Y-84529561D02*
X37096342Y-84577180D01*
X37334438Y-84577180D01*
X37429676Y-84529561D01*
X37477295Y-84481942D01*
X37524914Y-84386704D01*
X37524914Y-84291466D01*
X37477295Y-84196228D01*
X37429676Y-84148609D01*
X37334438Y-84100990D01*
X37143961Y-84053371D01*
X37048723Y-84005752D01*
X37001104Y-83958133D01*
X36953485Y-83862895D01*
X36953485Y-83767657D01*
X37001104Y-83672419D01*
X37048723Y-83624800D01*
X37143961Y-83577180D01*
X37382057Y-83577180D01*
X37524914Y-83624800D01*
X38524914Y-84481942D02*
X38477295Y-84529561D01*
X38334438Y-84577180D01*
X38239200Y-84577180D01*
X38096342Y-84529561D01*
X38001104Y-84434323D01*
X37953485Y-84339085D01*
X37905866Y-84148609D01*
X37905866Y-84005752D01*
X37953485Y-83815276D01*
X38001104Y-83720038D01*
X38096342Y-83624800D01*
X38239200Y-83577180D01*
X38334438Y-83577180D01*
X38477295Y-83624800D01*
X38524914Y-83672419D01*
X38953485Y-84577180D02*
X38953485Y-83577180D01*
X39524914Y-84577180D02*
X39096342Y-84005752D01*
X39524914Y-83577180D02*
X38953485Y-84148609D01*
X36917771Y-82037180D02*
X36917771Y-81037180D01*
X37251104Y-81751466D01*
X37584438Y-81037180D01*
X37584438Y-82037180D01*
X38251104Y-81037180D02*
X38441580Y-81037180D01*
X38536819Y-81084800D01*
X38632057Y-81180038D01*
X38679676Y-81370514D01*
X38679676Y-81703847D01*
X38632057Y-81894323D01*
X38536819Y-81989561D01*
X38441580Y-82037180D01*
X38251104Y-82037180D01*
X38155866Y-81989561D01*
X38060628Y-81894323D01*
X38013009Y-81703847D01*
X38013009Y-81370514D01*
X38060628Y-81180038D01*
X38155866Y-81084800D01*
X38251104Y-81037180D01*
X39060628Y-81989561D02*
X39203485Y-82037180D01*
X39441580Y-82037180D01*
X39536819Y-81989561D01*
X39584438Y-81941942D01*
X39632057Y-81846704D01*
X39632057Y-81751466D01*
X39584438Y-81656228D01*
X39536819Y-81608609D01*
X39441580Y-81560990D01*
X39251104Y-81513371D01*
X39155866Y-81465752D01*
X39108247Y-81418133D01*
X39060628Y-81322895D01*
X39060628Y-81227657D01*
X39108247Y-81132419D01*
X39155866Y-81084800D01*
X39251104Y-81037180D01*
X39489200Y-81037180D01*
X39632057Y-81084800D01*
X40060628Y-82037180D02*
X40060628Y-81037180D01*
X36715866Y-119137180D02*
X37049200Y-120137180D01*
X37382533Y-119137180D01*
X38287295Y-120041942D02*
X38239676Y-120089561D01*
X38096819Y-120137180D01*
X38001580Y-120137180D01*
X37858723Y-120089561D01*
X37763485Y-119994323D01*
X37715866Y-119899085D01*
X37668247Y-119708609D01*
X37668247Y-119565752D01*
X37715866Y-119375276D01*
X37763485Y-119280038D01*
X37858723Y-119184800D01*
X38001580Y-119137180D01*
X38096819Y-119137180D01*
X38239676Y-119184800D01*
X38287295Y-119232419D01*
X39287295Y-120041942D02*
X39239676Y-120089561D01*
X39096819Y-120137180D01*
X39001580Y-120137180D01*
X38858723Y-120089561D01*
X38763485Y-119994323D01*
X38715866Y-119899085D01*
X38668247Y-119708609D01*
X38668247Y-119565752D01*
X38715866Y-119375276D01*
X38763485Y-119280038D01*
X38858723Y-119184800D01*
X39001580Y-119137180D01*
X39096819Y-119137180D01*
X39239676Y-119184800D01*
X39287295Y-119232419D01*
X37501580Y-125217180D02*
X37168247Y-124740990D01*
X36930152Y-125217180D02*
X36930152Y-124217180D01*
X37311104Y-124217180D01*
X37406342Y-124264800D01*
X37453961Y-124312419D01*
X37501580Y-124407657D01*
X37501580Y-124550514D01*
X37453961Y-124645752D01*
X37406342Y-124693371D01*
X37311104Y-124740990D01*
X36930152Y-124740990D01*
X37882533Y-125169561D02*
X38025390Y-125217180D01*
X38263485Y-125217180D01*
X38358723Y-125169561D01*
X38406342Y-125121942D01*
X38453961Y-125026704D01*
X38453961Y-124931466D01*
X38406342Y-124836228D01*
X38358723Y-124788609D01*
X38263485Y-124740990D01*
X38073009Y-124693371D01*
X37977771Y-124645752D01*
X37930152Y-124598133D01*
X37882533Y-124502895D01*
X37882533Y-124407657D01*
X37930152Y-124312419D01*
X37977771Y-124264800D01*
X38073009Y-124217180D01*
X38311104Y-124217180D01*
X38453961Y-124264800D01*
X38739676Y-124217180D02*
X39311104Y-124217180D01*
X39025390Y-125217180D02*
X39025390Y-124217180D01*
X37287295Y-121724800D02*
X37192057Y-121677180D01*
X37049200Y-121677180D01*
X36906342Y-121724800D01*
X36811104Y-121820038D01*
X36763485Y-121915276D01*
X36715866Y-122105752D01*
X36715866Y-122248609D01*
X36763485Y-122439085D01*
X36811104Y-122534323D01*
X36906342Y-122629561D01*
X37049200Y-122677180D01*
X37144438Y-122677180D01*
X37287295Y-122629561D01*
X37334914Y-122581942D01*
X37334914Y-122248609D01*
X37144438Y-122248609D01*
X37763485Y-122677180D02*
X37763485Y-121677180D01*
X38334914Y-122677180D01*
X38334914Y-121677180D01*
X38811104Y-122677180D02*
X38811104Y-121677180D01*
X39049200Y-121677180D01*
X39192057Y-121724800D01*
X39287295Y-121820038D01*
X39334914Y-121915276D01*
X39382533Y-122105752D01*
X39382533Y-122248609D01*
X39334914Y-122439085D01*
X39287295Y-122534323D01*
X39192057Y-122629561D01*
X39049200Y-122677180D01*
X38811104Y-122677180D01*
M02*
