M48
; DRILL file {KiCad (5.1.5)-3} date 3/3/2021 2:22:07 AM
; FORMAT={3:3/ absolute / metric / suppress leading zeros}
; #@! TF.CreationDate,2021-03-03T02:22:07+07:00
; #@! TF.GenerationSoftware,Kicad,Pcbnew,(5.1.5)-3
FMAT,2
METRIC,TZ
T1C0.300
T2C0.400
T3C0.600
T4C0.900
T5C1.000
T6C1.470
T7C0.650
T8C1.750
T9C3.048
T10C3.988
%
G90
G05
T1
X37490Y-91313
X37719Y-71755
X37890Y-138259
X38791Y-120833
X41148Y-71755
X41974Y-102362
X43599Y-79819
X44078Y-84718
X44196Y-72940
X44287Y-80408
X47002Y-62750
X47735Y-60825
X48412Y-59842
X49112Y-59859
X49632Y-55474
X49714Y-74665
X50317Y-81917
X50444Y-79223
X50462Y-74115
X51807Y-78794
X52436Y-75453
X53061Y-80289
X53134Y-55166
X53797Y-81051
X54508Y-77064
X55372Y-76200
X56167Y-60825
X56590Y-64250
X57667Y-90150
X58217Y-89713
X58674Y-117825
X61087Y-136652
X65684Y-81890
X65989Y-79858
X318732Y-69812
X331380Y-62750
X331507Y-100850
X331558Y-81800
X331711Y-119900
T2
X35528Y-54642
X35941Y-95885
X36703Y-89027
X36881Y-62636
X38862Y-87122
X39192Y-60757
X42647Y-66573
X44198Y-85922
X44577Y-86995
X46736Y-64262
X47117Y-86995
X48451Y-69723
X49987Y-56947
X50165Y-86995
X51881Y-85166
X53391Y-76149
X53721Y-69659
X53834Y-58993
X54417Y-87564
X55067Y-66751
X55182Y-89916
X59131Y-68834
X60808Y-90678
X60808Y-102972
X62509Y-78105
X63627Y-92393
X66611Y-92456
X289069Y-101591
X293949Y-65675
X293949Y-81209
X298918Y-119420
X299852Y-141229
X316890Y-81229
X319095Y-103775
X319095Y-119248
X320365Y-65675
X325200Y-141875
T4
X28885Y-95250
X28885Y-97790
T5
X35509Y-119685
X35509Y-122225
X35509Y-124765
X35509Y-81585
X35509Y-84125
X35509Y-86665
T6
X66675Y-132080
X73025Y-129540
X219075Y-74930
X225425Y-72390
X133350Y-55880
X139700Y-53340
X185737Y-93980
X192087Y-91440
X166688Y-93980
X173038Y-91440
X159544Y-132080
X165894Y-129540
X257175Y-74930
X263525Y-72390
X100012Y-113030
X106363Y-110490
X323850Y-93980
X330200Y-91440
X114300Y-55880
X120650Y-53340
X40481Y-113030
X46831Y-110490
X64294Y-132080
X70644Y-129540
X323850Y-55880
X330200Y-53340
X161925Y-74930
X168275Y-72390
X204788Y-93980
X211138Y-91440
X164306Y-132080
X170656Y-129540
X261938Y-93980
X268287Y-91440
X95250Y-55880
X101600Y-53340
X45244Y-93980
X51594Y-91440
X247650Y-55880
X254000Y-53340
X50006Y-113030
X56356Y-110490
X257175Y-132080
X263525Y-129540
X90488Y-93980
X96837Y-91440
X238125Y-74930
X244475Y-72390
X180975Y-74930
X187325Y-72390
X228600Y-55880
X234950Y-53340
X142875Y-74930
X149225Y-72390
X109538Y-93980
X115888Y-91440
X223838Y-93980
X230188Y-91440
X214313Y-113030
X220663Y-110490
X200025Y-74930
X206375Y-72390
X157163Y-113030
X163513Y-110490
X254794Y-132080
X261144Y-129540
X323850Y-74930
X330200Y-72390
X57150Y-55880
X63500Y-53340
X38100Y-55880
X44450Y-53340
X40481Y-132080
X46831Y-129540
X252413Y-132080
X258763Y-129540
X176213Y-113030
X182563Y-110490
X300037Y-74930
X306388Y-72390
X276225Y-74930
X282575Y-72390
X138112Y-113030
X144463Y-110490
X252413Y-113030
X258763Y-110490
X233363Y-113030
X239713Y-110490
X171450Y-132080
X177800Y-129540
X323850Y-132080
X330200Y-129540
X90488Y-132080
X96837Y-129540
X42863Y-132080
X49213Y-129540
X190500Y-55880
X196850Y-53340
X61913Y-113030
X68263Y-110490
X152400Y-55880
X158750Y-53340
X242888Y-93980
X249238Y-91440
X295275Y-55880
X301625Y-53340
X76200Y-55880
X82550Y-53340
X292894Y-93980
X299244Y-91440
X42863Y-74930
X49213Y-72390
X88106Y-132080
X94456Y-129540
X209550Y-55880
X215900Y-53340
X104775Y-74930
X111125Y-72390
X266700Y-55880
X273050Y-53340
X171450Y-55880
X177800Y-53340
X71438Y-93980
X77788Y-91440
X278606Y-113030
X284956Y-110490
X235744Y-132080
X242094Y-129540
X85725Y-74930
X92075Y-72390
X123825Y-74930
X130175Y-72390
X147638Y-93980
X153987Y-91440
X66675Y-74930
X73025Y-72390
X40481Y-93980
X46831Y-91440
X195263Y-113030
X201612Y-110490
X119063Y-113030
X125413Y-110490
X323850Y-113030
X330200Y-110490
X128588Y-93980
X134938Y-91440
X285750Y-132080
X292100Y-129540
X304800Y-113030
X311150Y-110490
X304800Y-132080
X311150Y-129540
X80962Y-113030
X87313Y-110490
X230981Y-132080
X237331Y-129540
T7
X48494Y-50604
X54274Y-50604
T8
X277336Y-115570
X287496Y-115570
X234474Y-134620
X244634Y-134620
X84455Y-77470
X94615Y-77470
X122555Y-77470
X132715Y-77470
X146368Y-96520
X156528Y-96520
X65405Y-77470
X75565Y-77470
X39211Y-96520
X49371Y-96520
X193992Y-115570
X204153Y-115570
X117793Y-115570
X127953Y-115570
X322580Y-115570
X332740Y-115570
X127318Y-96520
X137477Y-96520
X284480Y-134620
X294640Y-134620
X303530Y-115570
X313690Y-115570
X303530Y-134620
X313690Y-134620
X79693Y-115570
X89852Y-115570
X229711Y-134620
X239871Y-134620
X65405Y-134620
X75565Y-134620
X217805Y-77470
X227965Y-77470
X132080Y-58420
X142240Y-58420
X184468Y-96520
X194628Y-96520
X165418Y-96520
X175578Y-96520
X158274Y-134620
X168434Y-134620
X255905Y-77470
X266065Y-77470
X98743Y-115570
X108902Y-115570
X322580Y-96520
X332740Y-96520
X113030Y-58420
X123190Y-58420
X39211Y-115570
X49371Y-115570
X63024Y-134620
X73184Y-134620
X322580Y-58420
X332740Y-58420
X160655Y-77470
X170815Y-77470
X203517Y-96520
X213677Y-96520
X163036Y-134620
X173196Y-134620
X260667Y-96520
X270827Y-96520
X93980Y-58420
X104140Y-58420
X43974Y-96520
X54134Y-96520
X246380Y-58420
X256540Y-58420
X48736Y-115570
X58896Y-115570
X255905Y-134620
X266065Y-134620
X89218Y-96520
X99378Y-96520
X236855Y-77470
X247015Y-77470
X179705Y-77470
X189865Y-77470
X227330Y-58420
X237490Y-58420
X141605Y-77470
X151765Y-77470
X108268Y-96520
X118427Y-96520
X222568Y-96520
X232728Y-96520
X213042Y-115570
X223202Y-115570
X198755Y-77470
X208915Y-77470
X155892Y-115570
X166053Y-115570
X253524Y-134620
X263684Y-134620
X322580Y-77470
X332740Y-77470
X55880Y-58420
X66040Y-58420
X36830Y-58420
X46990Y-58420
X39211Y-134620
X49371Y-134620
X251142Y-134620
X261303Y-134620
X174943Y-115570
X185103Y-115570
X298767Y-77470
X308928Y-77470
X274955Y-77470
X285115Y-77470
X136843Y-115570
X147003Y-115570
X251142Y-115570
X261303Y-115570
X232093Y-115570
X242253Y-115570
X170180Y-134620
X180340Y-134620
X322580Y-134620
X332740Y-134620
X89218Y-134620
X99378Y-134620
X41593Y-134620
X51753Y-134620
X189230Y-58420
X199390Y-58420
X60643Y-115570
X70803Y-115570
X151130Y-58420
X161290Y-58420
X241617Y-96520
X251777Y-96520
X294005Y-58420
X304165Y-58420
X74930Y-58420
X85090Y-58420
X291624Y-96520
X301784Y-96520
X41593Y-77470
X51753Y-77470
X86836Y-134620
X96996Y-134620
X208280Y-58420
X218440Y-58420
X103505Y-77470
X113665Y-77470
X265430Y-58420
X275590Y-58420
X170180Y-58420
X180340Y-58420
X70168Y-96520
X80328Y-96520
T9
X118116Y-141605
X218116Y-141605
X41910Y-108585
X65722Y-108585
X118110Y-141605
X232410Y-141605
X287179Y-51435
X310991Y-51435
X284798Y-89535
X308610Y-89535
X113354Y-141605
X213354Y-141605
T10
X282416Y-115570
X239554Y-134620
X89535Y-77470
X127635Y-77470
X151448Y-96520
X70485Y-77470
X44291Y-96520
X199073Y-115570
X122873Y-115570
X327660Y-115570
X132398Y-96520
X289560Y-134620
X308610Y-115570
X308610Y-134620
X84773Y-115570
X234791Y-134620
X70485Y-134620
X222885Y-77470
X137160Y-58420
X189548Y-96520
X170498Y-96520
X113354Y-126365
X163354Y-134620
X213354Y-126365
X260985Y-77470
X103823Y-115570
X327660Y-96520
X118110Y-58420
X44291Y-115570
X68104Y-134620
X327660Y-58420
X165735Y-77470
X208598Y-96520
X118116Y-126365
X168116Y-134620
X218116Y-126365
X265748Y-96520
X99060Y-58420
X49054Y-96520
X251460Y-58420
X41910Y-123825
X53816Y-115570
X65722Y-123825
X260985Y-134620
X94298Y-96520
X241935Y-77470
X184785Y-77470
X232410Y-58420
X146685Y-77470
X113348Y-96520
X227648Y-96520
X218123Y-115570
X203835Y-77470
X160973Y-115570
X258604Y-134620
X327660Y-77470
X60960Y-58420
X41910Y-58420
X44291Y-134620
X256222Y-134620
X180023Y-115570
X303847Y-77470
X280035Y-77470
X141923Y-115570
X256222Y-115570
X237173Y-115570
X118110Y-126365
X175260Y-134620
X232410Y-126365
X327660Y-134620
X94298Y-134620
X46673Y-134620
X194310Y-58420
X65722Y-115570
X156210Y-58420
X246698Y-96520
X287179Y-66675
X299085Y-58420
X310991Y-66675
X80010Y-58420
X284798Y-104775
X296704Y-96520
X308610Y-104775
X46673Y-77470
X91916Y-134620
X213360Y-58420
X108585Y-77470
X270510Y-58420
X175260Y-58420
X75248Y-96520
T3
G00X47064Y-46654
M15
G01X47064Y-47254
M16
G05
G00X47064Y-50584
M15
G01X47064Y-51684
M16
G05
G00X55704Y-46654
M15
G01X55704Y-47254
M16
G05
G00X55704Y-50584
M15
G01X55704Y-51684
M16
G05
T0
M30
