G04 #@! TF.GenerationSoftware,KiCad,Pcbnew,(5.1.11)-1*
G04 #@! TF.CreationDate,2022-07-27T22:19:53+07:00*
G04 #@! TF.ProjectId,krush60hs - Copy,6b727573-6836-4306-9873-202d20436f70,rev?*
G04 #@! TF.SameCoordinates,Original*
G04 #@! TF.FileFunction,Legend,Bot*
G04 #@! TF.FilePolarity,Positive*
%FSLAX46Y46*%
G04 Gerber Fmt 4.6, Leading zero omitted, Abs format (unit mm)*
G04 Created by KiCad (PCBNEW (5.1.11)-1) date 2022-07-27 22:19:53*
%MOMM*%
%LPD*%
G01*
G04 APERTURE LIST*
%ADD10C,3.000000*%
%ADD11C,0.187500*%
%ADD12C,0.120000*%
%ADD13C,0.100000*%
%ADD14C,0.150000*%
G04 APERTURE END LIST*
D10*
X285066246Y-130892496D02*
G75*
G02*
X282816246Y-133142496I-2250000J0D01*
G01*
X282316362Y-96492532D02*
G75*
G02*
X282316362Y-93992532I0J1250000D01*
G01*
X282316362Y-93992532D02*
X285066362Y-93992532D01*
X285066246Y-130892496D02*
X285066246Y-96492532D01*
X285066246Y-96492532D02*
X282316362Y-96492532D01*
X237326851Y-133142496D02*
X268793641Y-133142496D01*
X270123676Y-132336045D02*
G75*
G02*
X275709816Y-132336044I2793070J-1456450D01*
G01*
X277039851Y-133142498D02*
G75*
G02*
X275709816Y-132336044I1J1500002D01*
G01*
X230410676Y-132336045D02*
G75*
G02*
X235996816Y-132336044I2793070J-1456450D01*
G01*
X277039851Y-133142496D02*
X282816246Y-133142496D01*
X230410675Y-132336044D02*
G75*
G02*
X229080641Y-133142496I-1330034J693548D01*
G01*
X270123675Y-132336044D02*
G75*
G02*
X268793641Y-133142496I-1330034J693548D01*
G01*
X237326851Y-133142498D02*
G75*
G02*
X235996816Y-132336044I1J1500002D01*
G01*
X190238851Y-133142498D02*
G75*
G02*
X188908816Y-132336044I1J1500002D01*
G01*
X96522676Y-132336045D02*
G75*
G02*
X102108816Y-132336044I2793070J-1456450D01*
G01*
X190238851Y-133142496D02*
X229080641Y-133142496D01*
X56351851Y-133142498D02*
G75*
G02*
X55021816Y-132336044I1J1500002D01*
G01*
X103438851Y-133142496D02*
X181992641Y-133142496D01*
X183322675Y-132336044D02*
G75*
G02*
X181992641Y-133142496I-1330034J693548D01*
G01*
X183322676Y-132336045D02*
G75*
G02*
X188908816Y-132336044I2793070J-1456450D01*
G01*
X103438851Y-133142498D02*
G75*
G02*
X102108816Y-132336044I1J1500002D01*
G01*
X96522675Y-132336044D02*
G75*
G02*
X95192641Y-133142496I-1330034J693548D01*
G01*
X56351851Y-133142496D02*
X95192641Y-133142496D01*
X49435676Y-132336045D02*
G75*
G02*
X55021816Y-132336044I2793070J-1456450D01*
G01*
X3116362Y-96492532D02*
X366362Y-96492532D01*
X9722675Y-132336044D02*
G75*
G02*
X8392641Y-133142496I-1330034J693548D01*
G01*
X366246Y-93992532D02*
X3116362Y-93992532D01*
X49435675Y-132336044D02*
G75*
G02*
X48105641Y-133142496I-1330034J693548D01*
G01*
X366362Y-96492532D02*
X366245Y-130892496D01*
X3116362Y-93992532D02*
G75*
G02*
X3116362Y-96492532I0J-1250000D01*
G01*
X16638851Y-133142496D02*
X48105641Y-133142496D01*
X16638851Y-133142498D02*
G75*
G02*
X15308816Y-132336044I1J1500002D01*
G01*
X2616246Y-133142497D02*
G75*
G02*
X366245Y-130892496I0J2250001D01*
G01*
X9722676Y-132336045D02*
G75*
G02*
X15308816Y-132336044I2793070J-1456450D01*
G01*
X2616246Y-133142497D02*
X8392641Y-133142496D01*
X181993715Y-38942495D02*
X132551928Y-38942496D01*
X131221817Y-39748947D02*
G75*
G02*
X132551928Y-38942496I1330034J-693549D01*
G01*
X188909894Y-39748948D02*
G75*
G02*
X190239928Y-38942496I1330034J-693548D01*
G01*
X188909893Y-39748948D02*
G75*
G02*
X183323750Y-39748946I-2793071J1456452D01*
G01*
X181993715Y-38942496D02*
G75*
G02*
X183323750Y-39748946I2J-1500000D01*
G01*
X124305639Y-38942496D02*
G75*
G02*
X125635674Y-39748946I2J-1500000D01*
G01*
X95192715Y-38942496D02*
G75*
G02*
X96522750Y-39748946I2J-1500000D01*
G01*
X102108893Y-39748948D02*
G75*
G02*
X96522750Y-39748946I-2793071J1456452D01*
G01*
X102108894Y-39748948D02*
G75*
G02*
X103438928Y-38942496I1330034J-693548D01*
G01*
X124305639Y-38942495D02*
X103438928Y-38942496D01*
X131221816Y-39748947D02*
G75*
G02*
X125635674Y-39748946I-2793071J1456451D01*
G01*
X282816246Y-38942496D02*
G75*
G02*
X285066246Y-41192496I0J-2250000D01*
G01*
X243368139Y-38942495D02*
X190239928Y-38942496D01*
X243368139Y-38942496D02*
G75*
G02*
X244698174Y-39748946I2J-1500000D01*
G01*
X275709494Y-39748948D02*
G75*
G02*
X277039528Y-38942496I1330034J-693548D01*
G01*
X250284318Y-39748948D02*
G75*
G02*
X251614352Y-38942496I1330034J-693548D01*
G01*
X250284317Y-39748948D02*
G75*
G02*
X244698174Y-39748946I-2793071J1456452D01*
G01*
X268793315Y-38942495D02*
X251614352Y-38942496D01*
X268793315Y-38942496D02*
G75*
G02*
X270123350Y-39748946I2J-1500000D01*
G01*
X282816246Y-38942496D02*
X277039528Y-38942496D01*
X285066362Y-93992532D02*
X285066246Y-41192496D01*
X275709493Y-39748948D02*
G75*
G02*
X270123350Y-39748946I-2793071J1456452D01*
G01*
X366245Y-41192496D02*
X366246Y-93992532D01*
X366246Y-41192496D02*
G75*
G02*
X2616246Y-38942496I2250000J0D01*
G01*
X13309317Y-39748948D02*
G75*
G02*
X7723174Y-39748946I-2793071J1456452D01*
G01*
X40734317Y-39748948D02*
G75*
G02*
X35148174Y-39748946I-2793071J1456452D01*
G01*
X33818139Y-38942496D02*
G75*
G02*
X35148174Y-39748946I2J-1500000D01*
G01*
X95192715Y-38942495D02*
X42064352Y-38942496D01*
X33818139Y-38942495D02*
X14639352Y-38942496D01*
X40734318Y-39748948D02*
G75*
G02*
X42064352Y-38942496I1330034J-693548D01*
G01*
X6393139Y-38942496D02*
G75*
G02*
X7723174Y-39748946I2J-1500000D01*
G01*
X13309318Y-39748948D02*
G75*
G02*
X14639352Y-38942496I1330034J-693548D01*
G01*
X6393139Y-38942495D02*
X2616246Y-38942496D01*
D11*
X17766219Y-70903995D02*
X17766219Y-70153995D01*
X17587647Y-70153995D01*
X17480505Y-70189710D01*
X17409076Y-70261138D01*
X17373362Y-70332567D01*
X17337647Y-70475424D01*
X17337647Y-70582567D01*
X17373362Y-70725424D01*
X17409076Y-70796852D01*
X17480505Y-70868281D01*
X17587647Y-70903995D01*
X17766219Y-70903995D01*
X17016219Y-70618281D02*
X16444790Y-70618281D01*
X16730505Y-70903995D02*
X16730505Y-70332567D01*
X15980274Y-70903995D02*
X15980274Y-70153995D01*
X15801702Y-70153995D01*
X15694560Y-70189710D01*
X15623131Y-70261138D01*
X15587417Y-70332567D01*
X15551702Y-70475424D01*
X15551702Y-70582567D01*
X15587417Y-70725424D01*
X15623131Y-70796852D01*
X15694560Y-70868281D01*
X15801702Y-70903995D01*
X15980274Y-70903995D01*
X15230274Y-70618281D02*
X14658845Y-70618281D01*
X20653508Y-77333490D02*
X20724937Y-77297775D01*
X20832080Y-77297775D01*
X20939222Y-77333490D01*
X21010651Y-77404918D01*
X21046365Y-77476347D01*
X21082080Y-77619204D01*
X21082080Y-77726347D01*
X21046365Y-77869204D01*
X21010651Y-77940632D01*
X20939222Y-78012061D01*
X20832080Y-78047775D01*
X20760651Y-78047775D01*
X20653508Y-78012061D01*
X20617794Y-77976347D01*
X20617794Y-77726347D01*
X20760651Y-77726347D01*
X20296365Y-78047775D02*
X20296365Y-77297775D01*
X19867794Y-78047775D01*
X19867794Y-77297775D01*
X19510651Y-78047775D02*
X19510651Y-77297775D01*
X19332080Y-77297775D01*
X19224937Y-77333490D01*
X19153508Y-77404918D01*
X19117794Y-77476347D01*
X19082080Y-77619204D01*
X19082080Y-77726347D01*
X19117794Y-77869204D01*
X19153508Y-77940632D01*
X19224937Y-78012061D01*
X19332080Y-78047775D01*
X19510651Y-78047775D01*
X13938300Y-77297775D02*
X13688300Y-78047775D01*
X13438300Y-77297775D01*
X12759728Y-77976347D02*
X12795442Y-78012061D01*
X12902585Y-78047775D01*
X12974014Y-78047775D01*
X13081157Y-78012061D01*
X13152585Y-77940632D01*
X13188300Y-77869204D01*
X13224014Y-77726347D01*
X13224014Y-77619204D01*
X13188300Y-77476347D01*
X13152585Y-77404918D01*
X13081157Y-77333490D01*
X12974014Y-77297775D01*
X12902585Y-77297775D01*
X12795442Y-77333490D01*
X12759728Y-77369204D01*
X12009728Y-77976347D02*
X12045442Y-78012061D01*
X12152585Y-78047775D01*
X12224014Y-78047775D01*
X12331157Y-78012061D01*
X12402585Y-77940632D01*
X12438300Y-77869204D01*
X12474014Y-77726347D01*
X12474014Y-77619204D01*
X12438300Y-77476347D01*
X12402585Y-77404918D01*
X12331157Y-77333490D01*
X12224014Y-77297775D01*
X12152585Y-77297775D01*
X12045442Y-77333490D01*
X12009728Y-77369204D01*
D12*
X33174083Y-44655309D02*
X34374083Y-44655309D01*
X34374083Y-42895309D02*
X33174083Y-42895309D01*
D13*
X33624083Y-43575309D02*
X33524083Y-43975309D01*
X33724083Y-43975309D02*
X33624083Y-43575309D01*
X33924083Y-43975309D02*
X33824083Y-43575309D01*
X34124083Y-43975309D02*
X34024083Y-43575309D01*
X34024083Y-43575309D02*
X33924083Y-43975309D01*
X33524083Y-43975309D02*
X33424083Y-43575309D01*
X33824083Y-43575309D02*
X33724083Y-43975309D01*
D12*
X5203746Y-43490622D02*
X4003746Y-43490622D01*
X4003746Y-45250622D02*
X5203746Y-45250622D01*
D13*
X4753746Y-44570622D02*
X4853746Y-44170622D01*
X4653746Y-44170622D02*
X4753746Y-44570622D01*
X4453746Y-44170622D02*
X4553746Y-44570622D01*
X4253746Y-44170622D02*
X4353746Y-44570622D01*
X4353746Y-44570622D02*
X4453746Y-44170622D01*
X4853746Y-44170622D02*
X4953746Y-44570622D01*
X4553746Y-44570622D02*
X4653746Y-44170622D01*
D14*
X164786700Y-121002316D02*
X164786700Y-120002316D01*
X164286700Y-119502316D02*
X163786700Y-119502316D01*
X163286700Y-120002316D02*
X163286700Y-121002316D01*
X163786700Y-121502316D02*
X164286700Y-121502316D01*
D13*
G36*
X167836700Y-127152316D02*
G01*
X167836700Y-126352316D01*
X168636700Y-126352316D01*
X167836700Y-127152316D01*
G37*
X167836700Y-127152316D02*
X167836700Y-126352316D01*
X168636700Y-126352316D01*
X167836700Y-127152316D01*
D14*
X163786700Y-119502316D02*
G75*
G03*
X163286700Y-120002316I0J-500000D01*
G01*
X163286700Y-121002316D02*
G75*
G03*
X163786700Y-121502316I500000J0D01*
G01*
X164286700Y-121502316D02*
G75*
G03*
X164786700Y-121002316I0J500000D01*
G01*
X164786700Y-120002316D02*
G75*
G03*
X164286700Y-119502316I-500000J0D01*
G01*
X153773354Y-121002316D02*
X153773354Y-120002316D01*
X153273354Y-119502316D02*
X152773354Y-119502316D01*
X152273354Y-120002316D02*
X152273354Y-121002316D01*
X152773354Y-121502316D02*
X153273354Y-121502316D01*
D13*
G36*
X156823354Y-127152316D02*
G01*
X156823354Y-126352316D01*
X157623354Y-126352316D01*
X156823354Y-127152316D01*
G37*
X156823354Y-127152316D02*
X156823354Y-126352316D01*
X157623354Y-126352316D01*
X156823354Y-127152316D01*
D14*
X152773354Y-119502316D02*
G75*
G03*
X152273354Y-120002316I0J-500000D01*
G01*
X152273354Y-121002316D02*
G75*
G03*
X152773354Y-121502316I500000J0D01*
G01*
X153273354Y-121502316D02*
G75*
G03*
X153773354Y-121002316I0J500000D01*
G01*
X153773354Y-120002316D02*
G75*
G03*
X153273354Y-119502316I-500000J0D01*
G01*
X94241754Y-121597632D02*
X94241754Y-120597632D01*
X93741754Y-120097632D02*
X93241754Y-120097632D01*
X92741754Y-120597632D02*
X92741754Y-121597632D01*
X93241754Y-122097632D02*
X93741754Y-122097632D01*
D13*
G36*
X97291754Y-127747632D02*
G01*
X97291754Y-126947632D01*
X98091754Y-126947632D01*
X97291754Y-127747632D01*
G37*
X97291754Y-127747632D02*
X97291754Y-126947632D01*
X98091754Y-126947632D01*
X97291754Y-127747632D01*
D14*
X93241754Y-120097632D02*
G75*
G03*
X92741754Y-120597632I0J-500000D01*
G01*
X92741754Y-121597632D02*
G75*
G03*
X93241754Y-122097632I500000J0D01*
G01*
X93741754Y-122097632D02*
G75*
G03*
X94241754Y-121597632I0J500000D01*
G01*
X94241754Y-120597632D02*
G75*
G03*
X93741754Y-120097632I-500000J0D01*
G01*
X45716250Y-58442500D02*
X45716250Y-59442500D01*
X45716250Y-59442500D02*
X48116250Y-59442500D01*
X49916250Y-58442500D02*
X49916250Y-54442500D01*
X48116250Y-53442500D02*
X45716250Y-53442500D01*
X45716250Y-53442500D02*
X45716250Y-54442500D01*
X3789685Y-92214410D02*
X8989685Y-92214410D01*
X8989685Y-92214410D02*
X8989685Y-87014410D01*
X8989685Y-87014410D02*
X3789685Y-87014410D01*
X3789685Y-87014410D02*
X3789685Y-92214410D01*
X7389685Y-89614410D02*
G75*
G03*
X7389685Y-89614410I-1000000J0D01*
G01*
D13*
G36*
X266541466Y-113622243D02*
G01*
X265941466Y-114422243D01*
X267141466Y-114422243D01*
X266541466Y-113622243D01*
G37*
X266541466Y-113622243D02*
X265941466Y-114422243D01*
X267141466Y-114422243D01*
X266541466Y-113622243D01*
D14*
X267341466Y-111822243D02*
X265741466Y-111822243D01*
X274485666Y-111822322D02*
X272885666Y-111822322D01*
D13*
G36*
X273685666Y-113622322D02*
G01*
X273085666Y-114422322D01*
X274285666Y-114422322D01*
X273685666Y-113622322D01*
G37*
X273685666Y-113622322D02*
X273085666Y-114422322D01*
X274285666Y-114422322D01*
X273685666Y-113622322D01*
D14*
X272104410Y-111822322D02*
X270504410Y-111822322D01*
D13*
G36*
X271304410Y-113622322D02*
G01*
X270704410Y-114422322D01*
X271904410Y-114422322D01*
X271304410Y-113622322D01*
G37*
X271304410Y-113622322D02*
X270704410Y-114422322D01*
X271904410Y-114422322D01*
X271304410Y-113622322D01*
D14*
X269722718Y-111822243D02*
X268122718Y-111822243D01*
D13*
G36*
X268922718Y-113622243D02*
G01*
X268322718Y-114422243D01*
X269522718Y-114422243D01*
X268922718Y-113622243D01*
G37*
X268922718Y-113622243D02*
X268322718Y-114422243D01*
X269522718Y-114422243D01*
X268922718Y-113622243D01*
D14*
X191142314Y-115394472D02*
X189542314Y-115394472D01*
D13*
G36*
X190342314Y-117194472D02*
G01*
X189742314Y-117994472D01*
X190942314Y-117994472D01*
X190342314Y-117194472D01*
G37*
X190342314Y-117194472D02*
X189742314Y-117994472D01*
X190942314Y-117994472D01*
X190342314Y-117194472D01*
D14*
X115536655Y-115394125D02*
X113936655Y-115394125D01*
D13*
G36*
X114736655Y-117194125D02*
G01*
X114136655Y-117994125D01*
X115336655Y-117994125D01*
X114736655Y-117194125D01*
G37*
X114736655Y-117194125D02*
X114136655Y-117994125D01*
X115336655Y-117994125D01*
X114736655Y-117194125D01*
D14*
X70888400Y-115394250D02*
X69288400Y-115394250D01*
D13*
G36*
X70088400Y-117194250D02*
G01*
X69488400Y-117994250D01*
X70688400Y-117994250D01*
X70088400Y-117194250D01*
G37*
X70088400Y-117194250D02*
X69488400Y-117994250D01*
X70688400Y-117994250D01*
X70088400Y-117194250D01*
D14*
X48266358Y-115691907D02*
X46666358Y-115691907D01*
D13*
G36*
X47466358Y-117491907D02*
G01*
X46866358Y-118291907D01*
X48066358Y-118291907D01*
X47466358Y-117491907D01*
G37*
X47466358Y-117491907D02*
X46866358Y-118291907D01*
X48066358Y-118291907D01*
X47466358Y-117491907D01*
D14*
X24453798Y-116584878D02*
X22853798Y-116584878D01*
D13*
G36*
X23653798Y-118384878D02*
G01*
X23053798Y-119184878D01*
X24253798Y-119184878D01*
X23653798Y-118384878D01*
G37*
X23653798Y-118384878D02*
X23053798Y-119184878D01*
X24253798Y-119184878D01*
X23653798Y-118384878D01*
D14*
X269313788Y-111162153D02*
X270913788Y-111162153D01*
D13*
G36*
X270113788Y-109362153D02*
G01*
X270713788Y-108562153D01*
X269513788Y-108562153D01*
X270113788Y-109362153D01*
G37*
X270113788Y-109362153D02*
X270713788Y-108562153D01*
X269513788Y-108562153D01*
X270113788Y-109362153D01*
D14*
X266932532Y-111162153D02*
X268532532Y-111162153D01*
D13*
G36*
X267732532Y-109362153D02*
G01*
X268332532Y-108562153D01*
X267132532Y-108562153D01*
X267732532Y-109362153D01*
G37*
X267732532Y-109362153D02*
X268332532Y-108562153D01*
X267132532Y-108562153D01*
X267732532Y-109362153D01*
D14*
X213949061Y-108781265D02*
X215549061Y-108781265D01*
D13*
G36*
X214749061Y-106981265D02*
G01*
X215349061Y-106181265D01*
X214149061Y-106181265D01*
X214749061Y-106981265D01*
G37*
X214749061Y-106981265D02*
X215349061Y-106181265D01*
X214149061Y-106181265D01*
X214749061Y-106981265D01*
D14*
X211568831Y-108781265D02*
X213168831Y-108781265D01*
D13*
G36*
X212368831Y-106981265D02*
G01*
X212968831Y-106181265D01*
X211768831Y-106181265D01*
X212368831Y-106981265D01*
G37*
X212368831Y-106981265D02*
X212968831Y-106181265D01*
X211768831Y-106181265D01*
X212368831Y-106981265D01*
D14*
X194304690Y-108781265D02*
X195904690Y-108781265D01*
D13*
G36*
X195104690Y-106981265D02*
G01*
X195704690Y-106181265D01*
X194504690Y-106181265D01*
X195104690Y-106981265D01*
G37*
X195104690Y-106981265D02*
X195704690Y-106181265D01*
X194504690Y-106181265D01*
X195104690Y-106981265D01*
D14*
X175254610Y-108781265D02*
X176854610Y-108781265D01*
D13*
G36*
X176054610Y-106981265D02*
G01*
X176654610Y-106181265D01*
X175454610Y-106181265D01*
X176054610Y-106981265D01*
G37*
X176054610Y-106981265D02*
X176654610Y-106181265D01*
X175454610Y-106181265D01*
X176054610Y-106981265D01*
D14*
X156204530Y-108781265D02*
X157804530Y-108781265D01*
D13*
G36*
X157004530Y-106981265D02*
G01*
X157604530Y-106181265D01*
X156404530Y-106181265D01*
X157004530Y-106981265D01*
G37*
X157004530Y-106981265D02*
X157604530Y-106181265D01*
X156404530Y-106181265D01*
X157004530Y-106981265D01*
D14*
X137154450Y-108781265D02*
X138754450Y-108781265D01*
D13*
G36*
X137954450Y-106981265D02*
G01*
X138554450Y-106181265D01*
X137354450Y-106181265D01*
X137954450Y-106981265D01*
G37*
X137954450Y-106981265D02*
X138554450Y-106181265D01*
X137354450Y-106181265D01*
X137954450Y-106981265D01*
D14*
X118104370Y-108781265D02*
X119704370Y-108781265D01*
D13*
G36*
X118904370Y-106981265D02*
G01*
X119504370Y-106181265D01*
X118304370Y-106181265D01*
X118904370Y-106981265D01*
G37*
X118904370Y-106981265D02*
X119504370Y-106181265D01*
X118304370Y-106181265D01*
X118904370Y-106981265D01*
D14*
X99054290Y-108781265D02*
X100654290Y-108781265D01*
D13*
G36*
X99854290Y-106981265D02*
G01*
X100454290Y-106181265D01*
X99254290Y-106181265D01*
X99854290Y-106981265D01*
G37*
X99854290Y-106981265D02*
X100454290Y-106181265D01*
X99254290Y-106181265D01*
X99854290Y-106981265D01*
D14*
X80004210Y-108781265D02*
X81604210Y-108781265D01*
D13*
G36*
X80804210Y-106981265D02*
G01*
X81404210Y-106181265D01*
X80204210Y-106181265D01*
X80804210Y-106981265D01*
G37*
X80804210Y-106981265D02*
X81404210Y-106181265D01*
X80204210Y-106181265D01*
X80804210Y-106981265D01*
D14*
X60954130Y-108781265D02*
X62554130Y-108781265D01*
D13*
G36*
X61754130Y-106981265D02*
G01*
X62354130Y-106181265D01*
X61154130Y-106181265D01*
X61754130Y-106981265D01*
G37*
X61754130Y-106981265D02*
X62354130Y-106181265D01*
X61154130Y-106181265D01*
X61754130Y-106981265D01*
D14*
X41903846Y-108780941D02*
X43503846Y-108780941D01*
D13*
G36*
X42703846Y-106980941D02*
G01*
X43303846Y-106180941D01*
X42103846Y-106180941D01*
X42703846Y-106980941D01*
G37*
X42703846Y-106980941D02*
X43303846Y-106180941D01*
X42103846Y-106180941D01*
X42703846Y-106980941D01*
G36*
X243919572Y-88228471D02*
G01*
X244519572Y-87428471D01*
X243319572Y-87428471D01*
X243919572Y-88228471D01*
G37*
X243919572Y-88228471D02*
X244519572Y-87428471D01*
X243319572Y-87428471D01*
X243919572Y-88228471D01*
D14*
X243119572Y-90028471D02*
X244719572Y-90028471D01*
X240739260Y-90028842D02*
X242339260Y-90028842D01*
D13*
G36*
X241539260Y-88228842D02*
G01*
X242139260Y-87428842D01*
X240939260Y-87428842D01*
X241539260Y-88228842D01*
G37*
X241539260Y-88228842D02*
X242139260Y-87428842D01*
X240939260Y-87428842D01*
X241539260Y-88228842D01*
D14*
X222879810Y-90028842D02*
X224479810Y-90028842D01*
D13*
G36*
X223679810Y-88228842D02*
G01*
X224279810Y-87428842D01*
X223079810Y-87428842D01*
X223679810Y-88228842D01*
G37*
X223679810Y-88228842D02*
X224279810Y-87428842D01*
X223079810Y-87428842D01*
X223679810Y-88228842D01*
D14*
X203829730Y-90028842D02*
X205429730Y-90028842D01*
D13*
G36*
X204629730Y-88228842D02*
G01*
X205229730Y-87428842D01*
X204029730Y-87428842D01*
X204629730Y-88228842D01*
G37*
X204629730Y-88228842D02*
X205229730Y-87428842D01*
X204029730Y-87428842D01*
X204629730Y-88228842D01*
D14*
X184779650Y-90028842D02*
X186379650Y-90028842D01*
D13*
G36*
X185579650Y-88228842D02*
G01*
X186179650Y-87428842D01*
X184979650Y-87428842D01*
X185579650Y-88228842D01*
G37*
X185579650Y-88228842D02*
X186179650Y-87428842D01*
X184979650Y-87428842D01*
X185579650Y-88228842D01*
D14*
X166324195Y-90028842D02*
X167924195Y-90028842D01*
D13*
G36*
X167124195Y-88228842D02*
G01*
X167724195Y-87428842D01*
X166524195Y-87428842D01*
X167124195Y-88228842D01*
G37*
X167124195Y-88228842D02*
X167724195Y-87428842D01*
X166524195Y-87428842D01*
X167124195Y-88228842D01*
D14*
X163942943Y-90028471D02*
X165542943Y-90028471D01*
D13*
G36*
X164742943Y-88228471D02*
G01*
X165342943Y-87428471D01*
X164142943Y-87428471D01*
X164742943Y-88228471D01*
G37*
X164742943Y-88228471D02*
X165342943Y-87428471D01*
X164142943Y-87428471D01*
X164742943Y-88228471D01*
D14*
X110364773Y-90028471D02*
X111964773Y-90028471D01*
D13*
G36*
X111164773Y-88228471D02*
G01*
X111764773Y-87428471D01*
X110564773Y-87428471D01*
X111164773Y-88228471D01*
G37*
X111164773Y-88228471D02*
X111764773Y-87428471D01*
X110564773Y-87428471D01*
X111164773Y-88228471D01*
D14*
X107983521Y-90028442D02*
X109583521Y-90028442D01*
D13*
G36*
X108783521Y-88228442D02*
G01*
X109383521Y-87428442D01*
X108183521Y-87428442D01*
X108783521Y-88228442D01*
G37*
X108783521Y-88228442D02*
X109383521Y-87428442D01*
X108183521Y-87428442D01*
X108783521Y-88228442D01*
D14*
X89529250Y-90028842D02*
X91129250Y-90028842D01*
D13*
G36*
X90329250Y-88228842D02*
G01*
X90929250Y-87428842D01*
X89729250Y-87428842D01*
X90329250Y-88228842D01*
G37*
X90329250Y-88228842D02*
X90929250Y-87428842D01*
X89729250Y-87428842D01*
X90329250Y-88228842D01*
D14*
X70479170Y-90028842D02*
X72079170Y-90028842D01*
D13*
G36*
X71279170Y-88228842D02*
G01*
X71879170Y-87428842D01*
X70679170Y-87428842D01*
X71279170Y-88228842D01*
G37*
X71279170Y-88228842D02*
X71879170Y-87428842D01*
X70679170Y-87428842D01*
X71279170Y-88228842D01*
D14*
X50238125Y-90028442D02*
X51838125Y-90028442D01*
D13*
G36*
X51038125Y-88228442D02*
G01*
X51638125Y-87428442D01*
X50438125Y-87428442D01*
X51038125Y-88228442D01*
G37*
X51038125Y-88228442D02*
X51638125Y-87428442D01*
X50438125Y-87428442D01*
X51038125Y-88228442D01*
D14*
X254431758Y-70978560D02*
X256031758Y-70978560D01*
D13*
G36*
X255231758Y-69178560D02*
G01*
X255831758Y-68378560D01*
X254631758Y-68378560D01*
X255231758Y-69178560D01*
G37*
X255231758Y-69178560D02*
X255831758Y-68378560D01*
X254631758Y-68378560D01*
X255231758Y-69178560D01*
D14*
X52619375Y-90028442D02*
X54219375Y-90028442D01*
D13*
G36*
X53419375Y-88228442D02*
G01*
X54019375Y-87428442D01*
X52819375Y-87428442D01*
X53419375Y-88228442D01*
G37*
X53419375Y-88228442D02*
X54019375Y-87428442D01*
X52819375Y-87428442D01*
X53419375Y-88228442D01*
D14*
X237166886Y-70978442D02*
X238766886Y-70978442D01*
D13*
G36*
X237966886Y-69178442D02*
G01*
X238566886Y-68378442D01*
X237366886Y-68378442D01*
X237966886Y-69178442D01*
G37*
X237966886Y-69178442D02*
X238566886Y-68378442D01*
X237366886Y-68378442D01*
X237966886Y-69178442D01*
D14*
X219307920Y-70978762D02*
X220907920Y-70978762D01*
D13*
G36*
X220107920Y-69178762D02*
G01*
X220707920Y-68378762D01*
X219507920Y-68378762D01*
X220107920Y-69178762D01*
G37*
X220107920Y-69178762D02*
X220707920Y-68378762D01*
X219507920Y-68378762D01*
X220107920Y-69178762D01*
D14*
X216926660Y-70978762D02*
X218526660Y-70978762D01*
D13*
G36*
X217726660Y-69178762D02*
G01*
X218326660Y-68378762D01*
X217126660Y-68378762D01*
X217726660Y-69178762D01*
G37*
X217726660Y-69178762D02*
X218326660Y-68378762D01*
X217126660Y-68378762D01*
X217726660Y-69178762D01*
D14*
X199067210Y-70978762D02*
X200667210Y-70978762D01*
D13*
G36*
X199867210Y-69178762D02*
G01*
X200467210Y-68378762D01*
X199267210Y-68378762D01*
X199867210Y-69178762D01*
G37*
X199867210Y-69178762D02*
X200467210Y-68378762D01*
X199267210Y-68378762D01*
X199867210Y-69178762D01*
D14*
X180016426Y-70978442D02*
X181616426Y-70978442D01*
D13*
G36*
X180816426Y-69178442D02*
G01*
X181416426Y-68378442D01*
X180216426Y-68378442D01*
X180816426Y-69178442D01*
G37*
X180816426Y-69178442D02*
X181416426Y-68378442D01*
X180216426Y-68378442D01*
X180816426Y-69178442D01*
D14*
X160967050Y-70978762D02*
X162567050Y-70978762D01*
D13*
G36*
X161767050Y-69178762D02*
G01*
X162367050Y-68378762D01*
X161167050Y-68378762D01*
X161767050Y-69178762D01*
G37*
X161767050Y-69178762D02*
X162367050Y-68378762D01*
X161167050Y-68378762D01*
X161767050Y-69178762D01*
D14*
X141916394Y-70978442D02*
X143516394Y-70978442D01*
D13*
G36*
X142716394Y-69178442D02*
G01*
X143316394Y-68378442D01*
X142116394Y-68378442D01*
X142716394Y-69178442D01*
G37*
X142716394Y-69178442D02*
X143316394Y-68378442D01*
X142116394Y-68378442D01*
X142716394Y-69178442D01*
D14*
X122866378Y-70978442D02*
X124466378Y-70978442D01*
D13*
G36*
X123666378Y-69178442D02*
G01*
X124266378Y-68378442D01*
X123066378Y-68378442D01*
X123666378Y-69178442D01*
G37*
X123666378Y-69178442D02*
X124266378Y-68378442D01*
X123066378Y-68378442D01*
X123666378Y-69178442D01*
D14*
X103816362Y-70978442D02*
X105416362Y-70978442D01*
D13*
G36*
X104616362Y-69178442D02*
G01*
X105216362Y-68378442D01*
X104016362Y-68378442D01*
X104616362Y-69178442D01*
G37*
X104616362Y-69178442D02*
X105216362Y-68378442D01*
X104016362Y-68378442D01*
X104616362Y-69178442D01*
D14*
X84766346Y-70978442D02*
X86366346Y-70978442D01*
D13*
G36*
X85566346Y-69178442D02*
G01*
X86166346Y-68378442D01*
X84966346Y-68378442D01*
X85566346Y-69178442D01*
G37*
X85566346Y-69178442D02*
X86166346Y-68378442D01*
X84966346Y-68378442D01*
X85566346Y-69178442D01*
D14*
X65716330Y-70978442D02*
X67316330Y-70978442D01*
D13*
G36*
X66516330Y-69178442D02*
G01*
X67116330Y-68378442D01*
X65916330Y-68378442D01*
X66516330Y-69178442D01*
G37*
X66516330Y-69178442D02*
X67116330Y-68378442D01*
X65916330Y-68378442D01*
X66516330Y-69178442D01*
D14*
X45475730Y-70978762D02*
X47075730Y-70978762D01*
D13*
G36*
X46275730Y-69178762D02*
G01*
X46875730Y-68378762D01*
X45675730Y-68378762D01*
X46275730Y-69178762D01*
G37*
X46275730Y-69178762D02*
X46875730Y-68378762D01*
X45675730Y-68378762D01*
X46275730Y-69178762D01*
D14*
X47856986Y-70978502D02*
X49456986Y-70978502D01*
D13*
G36*
X48656986Y-69178502D02*
G01*
X49256986Y-68378502D01*
X48056986Y-68378502D01*
X48656986Y-69178502D01*
G37*
X48656986Y-69178502D02*
X49256986Y-68378502D01*
X48056986Y-68378502D01*
X48656986Y-69178502D01*
D14*
X239958226Y-54672240D02*
X238358226Y-54672240D01*
D13*
G36*
X239158226Y-56472240D02*
G01*
X238558226Y-57272240D01*
X239758226Y-57272240D01*
X239158226Y-56472240D01*
G37*
X239158226Y-56472240D02*
X238558226Y-57272240D01*
X239758226Y-57272240D01*
X239158226Y-56472240D01*
D14*
X237576962Y-54672240D02*
X235976962Y-54672240D01*
D13*
G36*
X236776962Y-56472240D02*
G01*
X236176962Y-57272240D01*
X237376962Y-57272240D01*
X236776962Y-56472240D01*
G37*
X236776962Y-56472240D02*
X236176962Y-57272240D01*
X237376962Y-57272240D01*
X236776962Y-56472240D01*
D14*
X228832960Y-51928679D02*
X230432960Y-51928679D01*
D13*
G36*
X229632960Y-50128679D02*
G01*
X230232960Y-49328679D01*
X229032960Y-49328679D01*
X229632960Y-50128679D01*
G37*
X229632960Y-50128679D02*
X230232960Y-49328679D01*
X229032960Y-49328679D01*
X229632960Y-50128679D01*
D14*
X226450840Y-51928439D02*
X228050840Y-51928439D01*
D13*
G36*
X227250840Y-50128439D02*
G01*
X227850840Y-49328439D01*
X226650840Y-49328439D01*
X227250840Y-50128439D01*
G37*
X227250840Y-50128439D02*
X227850840Y-49328439D01*
X226650840Y-49328439D01*
X227250840Y-50128439D01*
D14*
X190732800Y-51928439D02*
X192332800Y-51928439D01*
D13*
G36*
X191532800Y-50128439D02*
G01*
X192132800Y-49328439D01*
X190932800Y-49328439D01*
X191532800Y-50128439D01*
G37*
X191532800Y-50128439D02*
X192132800Y-49328439D01*
X190932800Y-49328439D01*
X191532800Y-50128439D01*
D14*
X188350808Y-51928439D02*
X189950808Y-51928439D01*
D13*
G36*
X189150808Y-50128439D02*
G01*
X189750808Y-49328439D01*
X188550808Y-49328439D01*
X189150808Y-50128439D01*
G37*
X189150808Y-50128439D02*
X189750808Y-49328439D01*
X188550808Y-49328439D01*
X189150808Y-50128439D01*
D14*
X152632640Y-51928439D02*
X154232640Y-51928439D01*
D13*
G36*
X153432640Y-50128439D02*
G01*
X154032640Y-49328439D01*
X152832640Y-49328439D01*
X153432640Y-50128439D01*
G37*
X153432640Y-50128439D02*
X154032640Y-49328439D01*
X152832640Y-49328439D01*
X153432640Y-50128439D01*
D14*
X150250776Y-51928439D02*
X151850776Y-51928439D01*
D13*
G36*
X151050776Y-50128439D02*
G01*
X151650776Y-49328439D01*
X150450776Y-49328439D01*
X151050776Y-50128439D01*
G37*
X151050776Y-50128439D02*
X151650776Y-49328439D01*
X150450776Y-49328439D01*
X151050776Y-50128439D01*
D14*
X114532480Y-51928439D02*
X116132480Y-51928439D01*
D13*
G36*
X115332480Y-50128439D02*
G01*
X115932480Y-49328439D01*
X114732480Y-49328439D01*
X115332480Y-50128439D01*
G37*
X115332480Y-50128439D02*
X115932480Y-49328439D01*
X114732480Y-49328439D01*
X115332480Y-50128439D01*
D14*
X112150744Y-51928439D02*
X113750744Y-51928439D01*
D13*
G36*
X112950744Y-50128439D02*
G01*
X113550744Y-49328439D01*
X112350744Y-49328439D01*
X112950744Y-50128439D01*
G37*
X112950744Y-50128439D02*
X113550744Y-49328439D01*
X112350744Y-49328439D01*
X112950744Y-50128439D01*
D14*
X76432320Y-51928679D02*
X78032320Y-51928679D01*
D13*
G36*
X77232320Y-50128679D02*
G01*
X77832320Y-49328679D01*
X76632320Y-49328679D01*
X77232320Y-50128679D01*
G37*
X77232320Y-50128679D02*
X77832320Y-49328679D01*
X76632320Y-49328679D01*
X77232320Y-50128679D01*
D14*
X74050712Y-51928439D02*
X75650712Y-51928439D01*
D13*
G36*
X74850712Y-50128439D02*
G01*
X75450712Y-49328439D01*
X74250712Y-49328439D01*
X74850712Y-50128439D01*
G37*
X74850712Y-50128439D02*
X75450712Y-49328439D01*
X74250712Y-49328439D01*
X74850712Y-50128439D01*
D14*
X37736587Y-51928439D02*
X39336587Y-51928439D01*
D13*
G36*
X38536587Y-50128439D02*
G01*
X39136587Y-49328439D01*
X37936587Y-49328439D01*
X38536587Y-50128439D01*
G37*
X38536587Y-50128439D02*
X39136587Y-49328439D01*
X37936587Y-49328439D01*
X38536587Y-50128439D01*
D14*
X4399059Y-61453447D02*
X5999059Y-61453447D01*
D13*
G36*
X5199059Y-59653447D02*
G01*
X5799059Y-58853447D01*
X4599059Y-58853447D01*
X5199059Y-59653447D01*
G37*
X5199059Y-59653447D02*
X5799059Y-58853447D01*
X4599059Y-58853447D01*
X5199059Y-59653447D01*
D14*
X2017807Y-61453447D02*
X3617807Y-61453447D01*
D13*
G36*
X2817807Y-59653447D02*
G01*
X3417807Y-58853447D01*
X2217807Y-58853447D01*
X2817807Y-59653447D01*
G37*
X2817807Y-59653447D02*
X3417807Y-58853447D01*
X2217807Y-58853447D01*
X2817807Y-59653447D01*
D14*
X14423750Y-72870400D02*
X14423750Y-75770400D01*
X14423750Y-72870400D02*
X15723750Y-72870400D01*
X15723750Y-72870400D02*
X15723750Y-75770400D01*
X15723750Y-75770400D02*
X14423750Y-75770400D01*
D12*
X15046250Y-97227500D02*
X13846250Y-97227500D01*
X13846250Y-98987500D02*
X15046250Y-98987500D01*
D13*
X14596250Y-98307500D02*
X14696250Y-97907500D01*
X14496250Y-97907500D02*
X14596250Y-98307500D01*
X14296250Y-97907500D02*
X14396250Y-98307500D01*
X14096250Y-97907500D02*
X14196250Y-98307500D01*
X14196250Y-98307500D02*
X14296250Y-97907500D01*
X14696250Y-97907500D02*
X14796250Y-98307500D01*
X14396250Y-98307500D02*
X14496250Y-97907500D01*
D12*
X37954305Y-95265289D02*
X37954305Y-96465289D01*
X39714305Y-96465289D02*
X39714305Y-95265289D01*
D13*
X39034305Y-95715289D02*
X38634305Y-95615289D01*
X38634305Y-95815289D02*
X39034305Y-95715289D01*
X38634305Y-96015289D02*
X39034305Y-95915289D01*
X38634305Y-96215289D02*
X39034305Y-96115289D01*
X39034305Y-96115289D02*
X38634305Y-96015289D01*
X38634305Y-95615289D02*
X39034305Y-95515289D01*
X39034305Y-95915289D02*
X38634305Y-95815289D01*
D12*
X22739597Y-90603246D02*
X21889597Y-90603246D01*
X22739597Y-92003246D02*
X21889597Y-92003246D01*
D13*
X22064597Y-91503246D02*
X21964597Y-91103246D01*
X22564597Y-91103246D02*
X22464597Y-91503246D01*
X22664597Y-91503246D02*
X22564597Y-91103246D01*
X22464597Y-91503246D02*
X22364597Y-91103246D01*
X22364597Y-91103246D02*
X22264597Y-91503246D01*
X22264597Y-91503246D02*
X22164597Y-91103246D01*
X22164597Y-91103246D02*
X22064597Y-91503246D01*
D12*
X22739597Y-92138023D02*
X21889597Y-92138023D01*
X22739597Y-93538023D02*
X21889597Y-93538023D01*
D13*
X22064597Y-93038023D02*
X21964597Y-92638023D01*
X22564597Y-92638023D02*
X22464597Y-93038023D01*
X22664597Y-93038023D02*
X22564597Y-92638023D01*
X22464597Y-93038023D02*
X22364597Y-92638023D01*
X22364597Y-92638023D02*
X22264597Y-93038023D01*
X22264597Y-93038023D02*
X22164597Y-92638023D01*
X22164597Y-92638023D02*
X22064597Y-93038023D01*
D12*
X37656250Y-87411000D02*
X36956250Y-87411000D01*
X36956250Y-88611000D02*
X37656250Y-88611000D01*
X21964597Y-90403246D02*
X22664597Y-90403246D01*
X22664597Y-89203246D02*
X21964597Y-89203246D01*
X27768653Y-85749637D02*
X28468653Y-85749637D01*
X28468653Y-84549637D02*
X27768653Y-84549637D01*
X36150706Y-95662000D02*
X36150706Y-96362000D01*
X37350706Y-96362000D02*
X37350706Y-95662000D01*
X24323750Y-94697500D02*
X24323750Y-95397500D01*
X25523750Y-95397500D02*
X25523750Y-94697500D01*
D14*
X261051312Y-116446814D02*
X262051312Y-116446814D01*
X262551312Y-115946814D02*
X262551312Y-115446814D01*
X262051312Y-114946814D02*
X261051312Y-114946814D01*
X260551312Y-115446814D02*
X260551312Y-115946814D01*
D13*
G36*
X254901312Y-119496814D02*
G01*
X255701312Y-119496814D01*
X255701312Y-120296814D01*
X254901312Y-119496814D01*
G37*
X254901312Y-119496814D02*
X255701312Y-119496814D01*
X255701312Y-120296814D01*
X254901312Y-119496814D01*
D14*
X262551312Y-115446814D02*
G75*
G03*
X262051312Y-114946814I-500000J0D01*
G01*
X261051312Y-114946814D02*
G75*
G03*
X260551312Y-115446814I0J-500000D01*
G01*
X260551312Y-115946814D02*
G75*
G03*
X261051312Y-116446814I500000J0D01*
G01*
X262051312Y-116446814D02*
G75*
G03*
X262551312Y-115946814I0J500000D01*
G01*
D13*
G36*
X236214434Y-117180420D02*
G01*
X235414434Y-117180420D01*
X235414434Y-116380420D01*
X236214434Y-117180420D01*
G37*
X236214434Y-117180420D02*
X235414434Y-117180420D01*
X235414434Y-116380420D01*
X236214434Y-117180420D01*
D14*
X230564434Y-121230420D02*
X230564434Y-120730420D01*
X229064434Y-121730420D02*
X230064434Y-121730420D01*
X228564434Y-120730420D02*
X228564434Y-121230420D01*
X230064434Y-120230420D02*
X229064434Y-120230420D01*
X229064434Y-120230420D02*
G75*
G03*
X228564434Y-120730420I0J-500000D01*
G01*
X230564434Y-120730420D02*
G75*
G03*
X230064434Y-120230420I-500000J0D01*
G01*
X230064434Y-121730420D02*
G75*
G03*
X230564434Y-121230420I0J500000D01*
G01*
X228564434Y-121230420D02*
G75*
G03*
X229064434Y-121730420I500000J0D01*
G01*
X207946105Y-125169129D02*
X207946105Y-124169129D01*
X207446105Y-123669129D02*
X206946105Y-123669129D01*
X206446105Y-124169129D02*
X206446105Y-125169129D01*
X206946105Y-125669129D02*
X207446105Y-125669129D01*
D13*
G36*
X210996105Y-131319129D02*
G01*
X210996105Y-130519129D01*
X211796105Y-130519129D01*
X210996105Y-131319129D01*
G37*
X210996105Y-131319129D02*
X210996105Y-130519129D01*
X211796105Y-130519129D01*
X210996105Y-131319129D01*
D14*
X206946105Y-123669129D02*
G75*
G03*
X206446105Y-124169129I0J-500000D01*
G01*
X206446105Y-125169129D02*
G75*
G03*
X206946105Y-125669129I500000J0D01*
G01*
X207446105Y-125669129D02*
G75*
G03*
X207946105Y-125169129I0J500000D01*
G01*
X207946105Y-124169129D02*
G75*
G03*
X207446105Y-123669129I-500000J0D01*
G01*
X177585730Y-121002210D02*
X177585730Y-120002210D01*
X177085730Y-119502210D02*
X176585730Y-119502210D01*
X176085730Y-120002210D02*
X176085730Y-121002210D01*
X176585730Y-121502210D02*
X177085730Y-121502210D01*
D13*
G36*
X180635730Y-127152210D02*
G01*
X180635730Y-126352210D01*
X181435730Y-126352210D01*
X180635730Y-127152210D01*
G37*
X180635730Y-127152210D02*
X180635730Y-126352210D01*
X181435730Y-126352210D01*
X180635730Y-127152210D01*
D14*
X176585730Y-119502210D02*
G75*
G03*
X176085730Y-120002210I0J-500000D01*
G01*
X176085730Y-121002210D02*
G75*
G03*
X176585730Y-121502210I500000J0D01*
G01*
X177085730Y-121502210D02*
G75*
G03*
X177585730Y-121002210I0J500000D01*
G01*
X177585730Y-120002210D02*
G75*
G03*
X177085730Y-119502210I-500000J0D01*
G01*
X109124505Y-121597525D02*
X109124505Y-120597525D01*
X108624505Y-120097525D02*
X108124505Y-120097525D01*
X107624505Y-120597525D02*
X107624505Y-121597525D01*
X108124505Y-122097525D02*
X108624505Y-122097525D01*
D13*
G36*
X112174505Y-127747525D02*
G01*
X112174505Y-126947525D01*
X112974505Y-126947525D01*
X112174505Y-127747525D01*
G37*
X112174505Y-127747525D02*
X112174505Y-126947525D01*
X112974505Y-126947525D01*
X112174505Y-127747525D01*
D14*
X108124505Y-120097525D02*
G75*
G03*
X107624505Y-120597525I0J-500000D01*
G01*
X107624505Y-121597525D02*
G75*
G03*
X108124505Y-122097525I500000J0D01*
G01*
X108624505Y-122097525D02*
G75*
G03*
X109124505Y-121597525I0J500000D01*
G01*
X109124505Y-120597525D02*
G75*
G03*
X108624505Y-120097525I-500000J0D01*
G01*
X78168125Y-121597525D02*
X78168125Y-120597525D01*
X77668125Y-120097525D02*
X77168125Y-120097525D01*
X76668125Y-120597525D02*
X76668125Y-121597525D01*
X77168125Y-122097525D02*
X77668125Y-122097525D01*
D13*
G36*
X81218125Y-127747525D02*
G01*
X81218125Y-126947525D01*
X82018125Y-126947525D01*
X81218125Y-127747525D01*
G37*
X81218125Y-127747525D02*
X81218125Y-126947525D01*
X82018125Y-126947525D01*
X81218125Y-127747525D01*
D14*
X77168125Y-120097525D02*
G75*
G03*
X76668125Y-120597525I0J-500000D01*
G01*
X76668125Y-121597525D02*
G75*
G03*
X77168125Y-122097525I500000J0D01*
G01*
X77668125Y-122097525D02*
G75*
G03*
X78168125Y-121597525I0J500000D01*
G01*
X78168125Y-120597525D02*
G75*
G03*
X77668125Y-120097525I-500000J0D01*
G01*
X48402221Y-124573816D02*
X48402221Y-123573816D01*
X47902221Y-123073816D02*
X47402221Y-123073816D01*
X46902221Y-123573816D02*
X46902221Y-124573816D01*
X47402221Y-125073816D02*
X47902221Y-125073816D01*
D13*
G36*
X51452221Y-130723816D02*
G01*
X51452221Y-129923816D01*
X52252221Y-129923816D01*
X51452221Y-130723816D01*
G37*
X51452221Y-130723816D02*
X51452221Y-129923816D01*
X52252221Y-129923816D01*
X51452221Y-130723816D01*
D14*
X47402221Y-123073816D02*
G75*
G03*
X46902221Y-123573816I0J-500000D01*
G01*
X46902221Y-124573816D02*
G75*
G03*
X47402221Y-125073816I500000J0D01*
G01*
X47902221Y-125073816D02*
G75*
G03*
X48402221Y-124573816I0J500000D01*
G01*
X48402221Y-123573816D02*
G75*
G03*
X47902221Y-123073816I-500000J0D01*
G01*
X23222542Y-112279395D02*
X24222542Y-112279395D01*
X24722542Y-111779395D02*
X24722542Y-111279395D01*
X24222542Y-110779395D02*
X23222542Y-110779395D01*
X22722542Y-111279395D02*
X22722542Y-111779395D01*
D13*
G36*
X17072542Y-115329395D02*
G01*
X17872542Y-115329395D01*
X17872542Y-116129395D01*
X17072542Y-115329395D01*
G37*
X17072542Y-115329395D02*
X17872542Y-115329395D01*
X17872542Y-116129395D01*
X17072542Y-115329395D01*
D14*
X24722542Y-111279395D02*
G75*
G03*
X24222542Y-110779395I-500000J0D01*
G01*
X23222542Y-110779395D02*
G75*
G03*
X22722542Y-111279395I0J-500000D01*
G01*
X22722542Y-111779395D02*
G75*
G03*
X23222542Y-112279395I500000J0D01*
G01*
X24222542Y-112279395D02*
G75*
G03*
X24722542Y-111779395I0J500000D01*
G01*
X5453746Y-108233174D02*
X5453746Y-109233174D01*
X5953746Y-109733174D02*
X6453746Y-109733174D01*
X6953746Y-109233174D02*
X6953746Y-108233174D01*
X6453746Y-107733174D02*
X5953746Y-107733174D01*
D13*
G36*
X2403746Y-102083174D02*
G01*
X2403746Y-102883174D01*
X1603746Y-102883174D01*
X2403746Y-102083174D01*
G37*
X2403746Y-102083174D02*
X2403746Y-102883174D01*
X1603746Y-102883174D01*
X2403746Y-102083174D01*
D14*
X6453746Y-109733174D02*
G75*
G03*
X6953746Y-109233174I0J500000D01*
G01*
X6953746Y-108233174D02*
G75*
G03*
X6453746Y-107733174I-500000J0D01*
G01*
X5953746Y-107733174D02*
G75*
G03*
X5453746Y-108233174I0J-500000D01*
G01*
X5453746Y-109233174D02*
G75*
G03*
X5953746Y-109733174I500000J0D01*
G01*
X6644520Y-76086600D02*
X6644520Y-77086600D01*
X7144520Y-77586600D02*
X7644520Y-77586600D01*
X8144520Y-77086600D02*
X8144520Y-76086600D01*
X7644520Y-75586600D02*
X7144520Y-75586600D01*
D13*
G36*
X3594520Y-69936600D02*
G01*
X3594520Y-70736600D01*
X2794520Y-70736600D01*
X3594520Y-69936600D01*
G37*
X3594520Y-69936600D02*
X3594520Y-70736600D01*
X2794520Y-70736600D01*
X3594520Y-69936600D01*
D14*
X7644520Y-77586600D02*
G75*
G03*
X8144520Y-77086600I0J500000D01*
G01*
X8144520Y-76086600D02*
G75*
G03*
X7644520Y-75586600I-500000J0D01*
G01*
X7144520Y-75586600D02*
G75*
G03*
X6644520Y-76086600I0J-500000D01*
G01*
X6644520Y-77086600D02*
G75*
G03*
X7144520Y-77586600I500000J0D01*
G01*
X277227750Y-112864000D02*
X276227750Y-112864000D01*
X275727750Y-113364000D02*
X275727750Y-113864000D01*
X276227750Y-114364000D02*
X277227750Y-114364000D01*
X277727750Y-113864000D02*
X277727750Y-113364000D01*
D13*
G36*
X283377750Y-109814000D02*
G01*
X282577750Y-109814000D01*
X282577750Y-109014000D01*
X283377750Y-109814000D01*
G37*
X283377750Y-109814000D02*
X282577750Y-109814000D01*
X282577750Y-109014000D01*
X283377750Y-109814000D01*
D14*
X275727750Y-113864000D02*
G75*
G03*
X276227750Y-114364000I500000J0D01*
G01*
X277227750Y-114364000D02*
G75*
G03*
X277727750Y-113864000I0J500000D01*
G01*
X277727750Y-113364000D02*
G75*
G03*
X277227750Y-112864000I-500000J0D01*
G01*
X276227750Y-112864000D02*
G75*
G03*
X275727750Y-113364000I0J-500000D01*
G01*
X280574291Y-72186272D02*
X280574291Y-71186272D01*
X280074291Y-70686272D02*
X279574291Y-70686272D01*
X279074291Y-71186272D02*
X279074291Y-72186272D01*
X279574291Y-72686272D02*
X280074291Y-72686272D01*
D13*
G36*
X283624291Y-78336272D02*
G01*
X283624291Y-77536272D01*
X284424291Y-77536272D01*
X283624291Y-78336272D01*
G37*
X283624291Y-78336272D02*
X283624291Y-77536272D01*
X284424291Y-77536272D01*
X283624291Y-78336272D01*
D14*
X279574291Y-70686272D02*
G75*
G03*
X279074291Y-71186272I0J-500000D01*
G01*
X279074291Y-72186272D02*
G75*
G03*
X279574291Y-72686272I500000J0D01*
G01*
X280074291Y-72686272D02*
G75*
G03*
X280574291Y-72186272I0J500000D01*
G01*
X280574291Y-71186272D02*
G75*
G03*
X280074291Y-70686272I-500000J0D01*
G01*
X262210000Y-58317780D02*
X261210000Y-58317780D01*
X260710000Y-58817780D02*
X260710000Y-59317780D01*
X261210000Y-59817780D02*
X262210000Y-59817780D01*
X262710000Y-59317780D02*
X262710000Y-58817780D01*
D13*
G36*
X268360000Y-55267780D02*
G01*
X267560000Y-55267780D01*
X267560000Y-54467780D01*
X268360000Y-55267780D01*
G37*
X268360000Y-55267780D02*
X267560000Y-55267780D01*
X267560000Y-54467780D01*
X268360000Y-55267780D01*
D14*
X260710000Y-59317780D02*
G75*
G03*
X261210000Y-59817780I500000J0D01*
G01*
X262210000Y-59817780D02*
G75*
G03*
X262710000Y-59317780I0J500000D01*
G01*
X262710000Y-58817780D02*
G75*
G03*
X262210000Y-58317780I-500000J0D01*
G01*
X261210000Y-58317780D02*
G75*
G03*
X260710000Y-58817780I0J-500000D01*
G01*
X248341862Y-49892512D02*
X248341862Y-50892512D01*
X248841862Y-51392512D02*
X249341862Y-51392512D01*
X249841862Y-50892512D02*
X249841862Y-49892512D01*
X249341862Y-49392512D02*
X248841862Y-49392512D01*
D13*
G36*
X245291862Y-43742512D02*
G01*
X245291862Y-44542512D01*
X244491862Y-44542512D01*
X245291862Y-43742512D01*
G37*
X245291862Y-43742512D02*
X245291862Y-44542512D01*
X244491862Y-44542512D01*
X245291862Y-43742512D01*
D14*
X249341862Y-51392512D02*
G75*
G03*
X249841862Y-50892512I0J500000D01*
G01*
X249841862Y-49892512D02*
G75*
G03*
X249341862Y-49392512I-500000J0D01*
G01*
X248841862Y-49392512D02*
G75*
G03*
X248341862Y-49892512I0J-500000D01*
G01*
X248341862Y-50892512D02*
G75*
G03*
X248841862Y-51392512I500000J0D01*
G01*
X210242250Y-52571651D02*
X210242250Y-53571651D01*
X210742250Y-54071651D02*
X211242250Y-54071651D01*
X211742250Y-53571651D02*
X211742250Y-52571651D01*
X211242250Y-52071651D02*
X210742250Y-52071651D01*
D13*
G36*
X207192250Y-46421651D02*
G01*
X207192250Y-47221651D01*
X206392250Y-47221651D01*
X207192250Y-46421651D01*
G37*
X207192250Y-46421651D02*
X207192250Y-47221651D01*
X206392250Y-47221651D01*
X207192250Y-46421651D01*
D14*
X211242250Y-54071651D02*
G75*
G03*
X211742250Y-53571651I0J500000D01*
G01*
X211742250Y-52571651D02*
G75*
G03*
X211242250Y-52071651I-500000J0D01*
G01*
X210742250Y-52071651D02*
G75*
G03*
X210242250Y-52571651I0J-500000D01*
G01*
X210242250Y-53571651D02*
G75*
G03*
X210742250Y-54071651I500000J0D01*
G01*
X172142090Y-52571651D02*
X172142090Y-53571651D01*
X172642090Y-54071651D02*
X173142090Y-54071651D01*
X173642090Y-53571651D02*
X173642090Y-52571651D01*
X173142090Y-52071651D02*
X172642090Y-52071651D01*
D13*
G36*
X169092090Y-46421651D02*
G01*
X169092090Y-47221651D01*
X168292090Y-47221651D01*
X169092090Y-46421651D01*
G37*
X169092090Y-46421651D02*
X169092090Y-47221651D01*
X168292090Y-47221651D01*
X169092090Y-46421651D01*
D14*
X173142090Y-54071651D02*
G75*
G03*
X173642090Y-53571651I0J500000D01*
G01*
X173642090Y-52571651D02*
G75*
G03*
X173142090Y-52071651I-500000J0D01*
G01*
X172642090Y-52071651D02*
G75*
G03*
X172142090Y-52571651I0J-500000D01*
G01*
X172142090Y-53571651D02*
G75*
G03*
X172642090Y-54071651I500000J0D01*
G01*
X134041930Y-52571651D02*
X134041930Y-53571651D01*
X134541930Y-54071651D02*
X135041930Y-54071651D01*
X135541930Y-53571651D02*
X135541930Y-52571651D01*
X135041930Y-52071651D02*
X134541930Y-52071651D01*
D13*
G36*
X130991930Y-46421651D02*
G01*
X130991930Y-47221651D01*
X130191930Y-47221651D01*
X130991930Y-46421651D01*
G37*
X130991930Y-46421651D02*
X130991930Y-47221651D01*
X130191930Y-47221651D01*
X130991930Y-46421651D01*
D14*
X135041930Y-54071651D02*
G75*
G03*
X135541930Y-53571651I0J500000D01*
G01*
X135541930Y-52571651D02*
G75*
G03*
X135041930Y-52071651I-500000J0D01*
G01*
X134541930Y-52071651D02*
G75*
G03*
X134041930Y-52571651I0J-500000D01*
G01*
X134041930Y-53571651D02*
G75*
G03*
X134541930Y-54071651I500000J0D01*
G01*
X95941770Y-52571651D02*
X95941770Y-53571651D01*
X96441770Y-54071651D02*
X96941770Y-54071651D01*
X97441770Y-53571651D02*
X97441770Y-52571651D01*
X96941770Y-52071651D02*
X96441770Y-52071651D01*
D13*
G36*
X92891770Y-46421651D02*
G01*
X92891770Y-47221651D01*
X92091770Y-47221651D01*
X92891770Y-46421651D01*
G37*
X92891770Y-46421651D02*
X92891770Y-47221651D01*
X92091770Y-47221651D01*
X92891770Y-46421651D01*
D14*
X96941770Y-54071651D02*
G75*
G03*
X97441770Y-53571651I0J500000D01*
G01*
X97441770Y-52571651D02*
G75*
G03*
X96941770Y-52071651I-500000J0D01*
G01*
X96441770Y-52071651D02*
G75*
G03*
X95941770Y-52571651I0J-500000D01*
G01*
X95941770Y-53571651D02*
G75*
G03*
X96441770Y-54071651I500000J0D01*
G01*
X57841610Y-52571651D02*
X57841610Y-53571651D01*
X58341610Y-54071651D02*
X58841610Y-54071651D01*
X59341610Y-53571651D02*
X59341610Y-52571651D01*
X58841610Y-52071651D02*
X58341610Y-52071651D01*
D13*
G36*
X54791610Y-46421651D02*
G01*
X54791610Y-47221651D01*
X53991610Y-47221651D01*
X54791610Y-46421651D01*
G37*
X54791610Y-46421651D02*
X54791610Y-47221651D01*
X53991610Y-47221651D01*
X54791610Y-46421651D01*
D14*
X58841610Y-54071651D02*
G75*
G03*
X59341610Y-53571651I0J500000D01*
G01*
X59341610Y-52571651D02*
G75*
G03*
X58841610Y-52071651I-500000J0D01*
G01*
X58341610Y-52071651D02*
G75*
G03*
X57841610Y-52571651I0J-500000D01*
G01*
X57841610Y-53571651D02*
G75*
G03*
X58341610Y-54071651I500000J0D01*
G01*
X24085014Y-58912821D02*
X23085014Y-58912821D01*
X22585014Y-59412821D02*
X22585014Y-59912821D01*
X23085014Y-60412821D02*
X24085014Y-60412821D01*
X24585014Y-59912821D02*
X24585014Y-59412821D01*
D13*
G36*
X30235014Y-55862821D02*
G01*
X29435014Y-55862821D01*
X29435014Y-55062821D01*
X30235014Y-55862821D01*
G37*
X30235014Y-55862821D02*
X29435014Y-55862821D01*
X29435014Y-55062821D01*
X30235014Y-55862821D01*
D14*
X22585014Y-59912821D02*
G75*
G03*
X23085014Y-60412821I500000J0D01*
G01*
X24085014Y-60412821D02*
G75*
G03*
X24585014Y-59912821I0J500000D01*
G01*
X24585014Y-59412821D02*
G75*
G03*
X24085014Y-58912821I-500000J0D01*
G01*
X23085014Y-58912821D02*
G75*
G03*
X22585014Y-59412821I0J-500000D01*
G01*
D12*
X22914597Y-93958023D02*
X21714597Y-93958023D01*
X21714597Y-95718023D02*
X22914597Y-95718023D01*
D13*
X22464597Y-95038023D02*
X22564597Y-94638023D01*
X22364597Y-94638023D02*
X22464597Y-95038023D01*
X22164597Y-94638023D02*
X22264597Y-95038023D01*
X21964597Y-94638023D02*
X22064597Y-95038023D01*
X22064597Y-95038023D02*
X22164597Y-94638023D01*
X22564597Y-94638023D02*
X22664597Y-95038023D01*
X22264597Y-95038023D02*
X22364597Y-94638023D01*
D12*
X10754250Y-76673000D02*
X10754250Y-75473000D01*
X8994250Y-75473000D02*
X8994250Y-76673000D01*
D13*
X9674250Y-76223000D02*
X10074250Y-76323000D01*
X10074250Y-76123000D02*
X9674250Y-76223000D01*
X10074250Y-75923000D02*
X9674250Y-76023000D01*
X10074250Y-75723000D02*
X9674250Y-75823000D01*
X9674250Y-75823000D02*
X10074250Y-75923000D01*
X10074250Y-76323000D02*
X9674250Y-76423000D01*
X9674250Y-76023000D02*
X10074250Y-76123000D01*
D14*
X19510030Y-93442608D02*
G75*
G03*
X19510030Y-93442608I-200000J0D01*
G01*
X20010030Y-92942608D02*
X20010030Y-89342608D01*
X20010030Y-89342608D02*
X18610030Y-89342608D01*
X20010030Y-92942608D02*
X18610030Y-92942608D01*
D12*
X18668750Y-73050400D02*
X18668750Y-73685400D01*
X19303750Y-73050400D02*
X18668750Y-73050400D01*
X33682750Y-94415420D02*
X34407750Y-94415420D01*
X34407750Y-94415420D02*
X34407750Y-93690420D01*
X27912750Y-87195420D02*
X27187750Y-87195420D01*
X27187750Y-87195420D02*
X27187750Y-87920420D01*
X33682750Y-87195420D02*
X34407750Y-87195420D01*
X34407750Y-87195420D02*
X34407750Y-87920420D01*
X27912750Y-94415420D02*
X27187750Y-94415420D01*
X26318653Y-83075410D02*
X27118653Y-83075410D01*
X26318653Y-80675410D02*
X26318653Y-82675410D01*
X27118653Y-80675410D02*
X26318653Y-80675410D01*
X29918653Y-80675410D02*
X28918653Y-80675410D01*
X29918653Y-82675410D02*
X29918653Y-80675410D01*
X28918653Y-83075410D02*
X29918653Y-83075410D01*
X28918653Y-83075410D02*
X28918653Y-83475410D01*
X30118653Y-80675410D02*
X30118653Y-82675410D01*
X26318653Y-82675410D02*
X26318653Y-83075410D01*
X29918653Y-82675410D02*
X29918653Y-83075410D01*
X30118653Y-82675410D02*
X30118653Y-83075410D01*
D14*
X132572574Y-121547440D02*
X132572574Y-120547440D01*
X132239241Y-121261726D01*
X131905908Y-120547440D01*
X131905908Y-121547440D01*
X131524955Y-120547440D02*
X130858289Y-121547440D01*
X130858289Y-120547440D02*
X131524955Y-121547440D01*
X130048765Y-120547440D02*
X130239241Y-120547440D01*
X130334479Y-120595060D01*
X130382098Y-120642679D01*
X130477336Y-120785536D01*
X130524955Y-120976012D01*
X130524955Y-121356964D01*
X130477336Y-121452202D01*
X130429717Y-121499821D01*
X130334479Y-121547440D01*
X130144003Y-121547440D01*
X130048765Y-121499821D01*
X130001146Y-121452202D01*
X129953527Y-121356964D01*
X129953527Y-121118869D01*
X130001146Y-121023631D01*
X130048765Y-120976012D01*
X130144003Y-120928393D01*
X130334479Y-120928393D01*
X130429717Y-120976012D01*
X130477336Y-121023631D01*
X130524955Y-121118869D01*
X129382098Y-120976012D02*
X129477336Y-120928393D01*
X129524955Y-120880774D01*
X129572574Y-120785536D01*
X129572574Y-120737917D01*
X129524955Y-120642679D01*
X129477336Y-120595060D01*
X129382098Y-120547440D01*
X129191622Y-120547440D01*
X129096384Y-120595060D01*
X129048765Y-120642679D01*
X129001146Y-120737917D01*
X129001146Y-120785536D01*
X129048765Y-120880774D01*
X129096384Y-120928393D01*
X129191622Y-120976012D01*
X129382098Y-120976012D01*
X129477336Y-121023631D01*
X129524955Y-121071250D01*
X129572574Y-121166488D01*
X129572574Y-121356964D01*
X129524955Y-121452202D01*
X129477336Y-121499821D01*
X129382098Y-121547440D01*
X129191622Y-121547440D01*
X129096384Y-121499821D01*
X129048765Y-121452202D01*
X129001146Y-121356964D01*
X129001146Y-121166488D01*
X129048765Y-121071250D01*
X129096384Y-121023631D01*
X129191622Y-120976012D01*
X130190786Y-108592880D02*
X130190786Y-107592880D01*
X129857453Y-108307166D01*
X129524120Y-107592880D01*
X129524120Y-108592880D01*
X129143167Y-107592880D02*
X128476501Y-108592880D01*
X128476501Y-107592880D02*
X129143167Y-108592880D01*
X127619358Y-107592880D02*
X128095548Y-107592880D01*
X128143167Y-108069071D01*
X128095548Y-108021452D01*
X128000310Y-107973833D01*
X127762215Y-107973833D01*
X127666977Y-108021452D01*
X127619358Y-108069071D01*
X127571739Y-108164309D01*
X127571739Y-108402404D01*
X127619358Y-108497642D01*
X127666977Y-108545261D01*
X127762215Y-108592880D01*
X128000310Y-108592880D01*
X128095548Y-108545261D01*
X128143167Y-108497642D01*
X126714596Y-107926214D02*
X126714596Y-108592880D01*
X126952691Y-107545261D02*
X127190786Y-108259547D01*
X126571739Y-108259547D01*
X273067194Y-70492992D02*
X273067194Y-69492992D01*
X272733861Y-70207278D01*
X272400528Y-69492992D01*
X272400528Y-70492992D01*
X272019575Y-69492992D02*
X271352909Y-70492992D01*
X271352909Y-69492992D02*
X272019575Y-70492992D01*
X270543385Y-69826326D02*
X270543385Y-70492992D01*
X270781480Y-69445373D02*
X271019575Y-70159659D01*
X270400528Y-70159659D01*
X269876718Y-69921564D02*
X269971956Y-69873945D01*
X270019575Y-69826326D01*
X270067194Y-69731088D01*
X270067194Y-69683469D01*
X270019575Y-69588231D01*
X269971956Y-69540612D01*
X269876718Y-69492992D01*
X269686242Y-69492992D01*
X269591004Y-69540612D01*
X269543385Y-69588231D01*
X269495766Y-69683469D01*
X269495766Y-69731088D01*
X269543385Y-69826326D01*
X269591004Y-69873945D01*
X269686242Y-69921564D01*
X269876718Y-69921564D01*
X269971956Y-69969183D01*
X270019575Y-70016802D01*
X270067194Y-70112040D01*
X270067194Y-70302516D01*
X270019575Y-70397754D01*
X269971956Y-70445373D01*
X269876718Y-70492992D01*
X269686242Y-70492992D01*
X269591004Y-70445373D01*
X269543385Y-70397754D01*
X269495766Y-70302516D01*
X269495766Y-70112040D01*
X269543385Y-70016802D01*
X269591004Y-69969183D01*
X269686242Y-69921564D01*
X265922124Y-89542880D02*
X265922124Y-88542880D01*
X265588791Y-89257166D01*
X265255458Y-88542880D01*
X265255458Y-89542880D01*
X264874505Y-88542880D02*
X264207839Y-89542880D01*
X264207839Y-88542880D02*
X264874505Y-89542880D01*
X263922124Y-88542880D02*
X263303077Y-88542880D01*
X263636410Y-88923833D01*
X263493553Y-88923833D01*
X263398315Y-88971452D01*
X263350696Y-89019071D01*
X263303077Y-89114309D01*
X263303077Y-89352404D01*
X263350696Y-89447642D01*
X263398315Y-89495261D01*
X263493553Y-89542880D01*
X263779267Y-89542880D01*
X263874505Y-89495261D01*
X263922124Y-89447642D01*
X262969743Y-88542880D02*
X262350696Y-88542880D01*
X262684029Y-88923833D01*
X262541172Y-88923833D01*
X262445934Y-88971452D01*
X262398315Y-89019071D01*
X262350696Y-89114309D01*
X262350696Y-89352404D01*
X262398315Y-89447642D01*
X262445934Y-89495261D01*
X262541172Y-89542880D01*
X262826886Y-89542880D01*
X262922124Y-89495261D01*
X262969743Y-89447642D01*
X239728154Y-51442880D02*
X239728154Y-50442880D01*
X239394821Y-51157166D01*
X239061488Y-50442880D01*
X239061488Y-51442880D01*
X238680535Y-50442880D02*
X238013869Y-51442880D01*
X238013869Y-50442880D02*
X238680535Y-51442880D01*
X237109107Y-51442880D02*
X237680535Y-51442880D01*
X237394821Y-51442880D02*
X237394821Y-50442880D01*
X237490059Y-50585738D01*
X237585297Y-50680976D01*
X237680535Y-50728595D01*
X236775773Y-50442880D02*
X236156726Y-50442880D01*
X236490059Y-50823833D01*
X236347202Y-50823833D01*
X236251964Y-50871452D01*
X236204345Y-50919071D01*
X236156726Y-51014309D01*
X236156726Y-51252404D01*
X236204345Y-51347642D01*
X236251964Y-51395261D01*
X236347202Y-51442880D01*
X236632916Y-51442880D01*
X236728154Y-51395261D01*
X236775773Y-51347642D01*
X192103338Y-70492880D02*
X192103338Y-69492880D01*
X191770005Y-70207166D01*
X191436672Y-69492880D01*
X191436672Y-70492880D01*
X191055719Y-69492880D02*
X190389053Y-70492880D01*
X190389053Y-69492880D02*
X191055719Y-70492880D01*
X190055719Y-69588119D02*
X190008100Y-69540500D01*
X189912862Y-69492880D01*
X189674767Y-69492880D01*
X189579529Y-69540500D01*
X189531910Y-69588119D01*
X189484291Y-69683357D01*
X189484291Y-69778595D01*
X189531910Y-69921452D01*
X190103338Y-70492880D01*
X189484291Y-70492880D01*
X189150957Y-69492880D02*
X188484291Y-69492880D01*
X188912862Y-70492880D01*
X149240802Y-108592880D02*
X149240802Y-107592880D01*
X148907469Y-108307166D01*
X148574136Y-107592880D01*
X148574136Y-108592880D01*
X148193183Y-107592880D02*
X147526517Y-108592880D01*
X147526517Y-107592880D02*
X148193183Y-108592880D01*
X146669374Y-107592880D02*
X147145564Y-107592880D01*
X147193183Y-108069071D01*
X147145564Y-108021452D01*
X147050326Y-107973833D01*
X146812231Y-107973833D01*
X146716993Y-108021452D01*
X146669374Y-108069071D01*
X146621755Y-108164309D01*
X146621755Y-108402404D01*
X146669374Y-108497642D01*
X146716993Y-108545261D01*
X146812231Y-108592880D01*
X147050326Y-108592880D01*
X147145564Y-108545261D01*
X147193183Y-108497642D01*
X145716993Y-107592880D02*
X146193183Y-107592880D01*
X146240802Y-108069071D01*
X146193183Y-108021452D01*
X146097945Y-107973833D01*
X145859850Y-107973833D01*
X145764612Y-108021452D01*
X145716993Y-108069071D01*
X145669374Y-108164309D01*
X145669374Y-108402404D01*
X145716993Y-108497642D01*
X145764612Y-108545261D01*
X145859850Y-108592880D01*
X146097945Y-108592880D01*
X146193183Y-108545261D01*
X146240802Y-108497642D01*
X73040738Y-108592880D02*
X73040738Y-107592880D01*
X72707405Y-108307166D01*
X72374072Y-107592880D01*
X72374072Y-108592880D01*
X71993119Y-107592880D02*
X71326453Y-108592880D01*
X71326453Y-107592880D02*
X71993119Y-108592880D01*
X70469310Y-107592880D02*
X70945500Y-107592880D01*
X70993119Y-108069071D01*
X70945500Y-108021452D01*
X70850262Y-107973833D01*
X70612167Y-107973833D01*
X70516929Y-108021452D01*
X70469310Y-108069071D01*
X70421691Y-108164309D01*
X70421691Y-108402404D01*
X70469310Y-108497642D01*
X70516929Y-108545261D01*
X70612167Y-108592880D01*
X70850262Y-108592880D01*
X70945500Y-108545261D01*
X70993119Y-108497642D01*
X69469310Y-108592880D02*
X70040738Y-108592880D01*
X69755024Y-108592880D02*
X69755024Y-107592880D01*
X69850262Y-107735738D01*
X69945500Y-107830976D01*
X70040738Y-107878595D01*
X187340834Y-108592880D02*
X187340834Y-107592880D01*
X187007501Y-108307166D01*
X186674168Y-107592880D01*
X186674168Y-108592880D01*
X186293215Y-107592880D02*
X185626549Y-108592880D01*
X185626549Y-107592880D02*
X186293215Y-108592880D01*
X184769406Y-107592880D02*
X185245596Y-107592880D01*
X185293215Y-108069071D01*
X185245596Y-108021452D01*
X185150358Y-107973833D01*
X184912263Y-107973833D01*
X184817025Y-108021452D01*
X184769406Y-108069071D01*
X184721787Y-108164309D01*
X184721787Y-108402404D01*
X184769406Y-108497642D01*
X184817025Y-108545261D01*
X184912263Y-108592880D01*
X185150358Y-108592880D01*
X185245596Y-108545261D01*
X185293215Y-108497642D01*
X184388453Y-107592880D02*
X183721787Y-107592880D01*
X184150358Y-108592880D01*
X168290818Y-108592880D02*
X168290818Y-107592880D01*
X167957485Y-108307166D01*
X167624152Y-107592880D01*
X167624152Y-108592880D01*
X167243199Y-107592880D02*
X166576533Y-108592880D01*
X166576533Y-107592880D02*
X167243199Y-108592880D01*
X165719390Y-107592880D02*
X166195580Y-107592880D01*
X166243199Y-108069071D01*
X166195580Y-108021452D01*
X166100342Y-107973833D01*
X165862247Y-107973833D01*
X165767009Y-108021452D01*
X165719390Y-108069071D01*
X165671771Y-108164309D01*
X165671771Y-108402404D01*
X165719390Y-108497642D01*
X165767009Y-108545261D01*
X165862247Y-108592880D01*
X166100342Y-108592880D01*
X166195580Y-108545261D01*
X166243199Y-108497642D01*
X164814628Y-107592880D02*
X165005104Y-107592880D01*
X165100342Y-107640500D01*
X165147961Y-107688119D01*
X165243199Y-107830976D01*
X165290818Y-108021452D01*
X165290818Y-108402404D01*
X165243199Y-108497642D01*
X165195580Y-108545261D01*
X165100342Y-108592880D01*
X164909866Y-108592880D01*
X164814628Y-108545261D01*
X164767009Y-108497642D01*
X164719390Y-108402404D01*
X164719390Y-108164309D01*
X164767009Y-108069071D01*
X164814628Y-108021452D01*
X164909866Y-107973833D01*
X165100342Y-107973833D01*
X165195580Y-108021452D01*
X165243199Y-108069071D01*
X165290818Y-108164309D01*
X273067194Y-127643328D02*
X273067194Y-126643328D01*
X272733861Y-127357614D01*
X272400528Y-126643328D01*
X272400528Y-127643328D01*
X272019575Y-126643328D02*
X271352909Y-127643328D01*
X271352909Y-126643328D02*
X272019575Y-127643328D01*
X271067194Y-126643328D02*
X270400528Y-126643328D01*
X270829099Y-127643328D01*
X270067194Y-126738567D02*
X270019575Y-126690948D01*
X269924337Y-126643328D01*
X269686242Y-126643328D01*
X269591004Y-126690948D01*
X269543385Y-126738567D01*
X269495766Y-126833805D01*
X269495766Y-126929043D01*
X269543385Y-127071900D01*
X270114813Y-127643328D01*
X269495766Y-127643328D01*
X225441914Y-121547328D02*
X225441914Y-120547328D01*
X225108581Y-121261614D01*
X224775248Y-120547328D01*
X224775248Y-121547328D01*
X224394295Y-120547328D02*
X223727629Y-121547328D01*
X223727629Y-120547328D02*
X224394295Y-121547328D01*
X222918105Y-120547328D02*
X223108581Y-120547328D01*
X223203819Y-120594948D01*
X223251438Y-120642567D01*
X223346676Y-120785424D01*
X223394295Y-120975900D01*
X223394295Y-121356852D01*
X223346676Y-121452090D01*
X223299057Y-121499709D01*
X223203819Y-121547328D01*
X223013343Y-121547328D01*
X222918105Y-121499709D01*
X222870486Y-121452090D01*
X222822867Y-121356852D01*
X222822867Y-121118757D01*
X222870486Y-121023519D01*
X222918105Y-120975900D01*
X223013343Y-120928281D01*
X223203819Y-120928281D01*
X223299057Y-120975900D01*
X223346676Y-121023519D01*
X223394295Y-121118757D01*
X222489533Y-120547328D02*
X221870486Y-120547328D01*
X222203819Y-120928281D01*
X222060962Y-120928281D01*
X221965724Y-120975900D01*
X221918105Y-121023519D01*
X221870486Y-121118757D01*
X221870486Y-121356852D01*
X221918105Y-121452090D01*
X221965724Y-121499709D01*
X222060962Y-121547328D01*
X222346676Y-121547328D01*
X222441914Y-121499709D01*
X222489533Y-121452090D01*
X249254554Y-127643328D02*
X249254554Y-126643328D01*
X248921221Y-127357614D01*
X248587888Y-126643328D01*
X248587888Y-127643328D01*
X248206935Y-126643328D02*
X247540269Y-127643328D01*
X247540269Y-126643328D02*
X248206935Y-127643328D01*
X246730745Y-126643328D02*
X246921221Y-126643328D01*
X247016459Y-126690948D01*
X247064078Y-126738567D01*
X247159316Y-126881424D01*
X247206935Y-127071900D01*
X247206935Y-127452852D01*
X247159316Y-127548090D01*
X247111697Y-127595709D01*
X247016459Y-127643328D01*
X246825983Y-127643328D01*
X246730745Y-127595709D01*
X246683126Y-127548090D01*
X246635507Y-127452852D01*
X246635507Y-127214757D01*
X246683126Y-127119519D01*
X246730745Y-127071900D01*
X246825983Y-127024281D01*
X247016459Y-127024281D01*
X247111697Y-127071900D01*
X247159316Y-127119519D01*
X247206935Y-127214757D01*
X245778364Y-126976662D02*
X245778364Y-127643328D01*
X246016459Y-126595709D02*
X246254554Y-127309995D01*
X245635507Y-127309995D01*
X144478154Y-127642880D02*
X144478154Y-126642880D01*
X144144821Y-127357166D01*
X143811488Y-126642880D01*
X143811488Y-127642880D01*
X143430535Y-126642880D02*
X142763869Y-127642880D01*
X142763869Y-126642880D02*
X143430535Y-127642880D01*
X141954345Y-126976214D02*
X141954345Y-127642880D01*
X142192440Y-126595261D02*
X142430535Y-127309547D01*
X141811488Y-127309547D01*
X141001964Y-126642880D02*
X141192440Y-126642880D01*
X141287678Y-126690500D01*
X141335297Y-126738119D01*
X141430535Y-126880976D01*
X141478154Y-127071452D01*
X141478154Y-127452404D01*
X141430535Y-127547642D01*
X141382916Y-127595261D01*
X141287678Y-127642880D01*
X141097202Y-127642880D01*
X141001964Y-127595261D01*
X140954345Y-127547642D01*
X140906726Y-127452404D01*
X140906726Y-127214309D01*
X140954345Y-127119071D01*
X141001964Y-127071452D01*
X141097202Y-127023833D01*
X141287678Y-127023833D01*
X141382916Y-127071452D01*
X141430535Y-127119071D01*
X141478154Y-127214309D01*
X43068630Y-56109166D02*
X43782916Y-56109166D01*
X43925773Y-56061547D01*
X44021011Y-55966309D01*
X44068630Y-55823452D01*
X44068630Y-55728214D01*
X44068630Y-57109166D02*
X44068630Y-56537738D01*
X44068630Y-56823452D02*
X43068630Y-56823452D01*
X43211488Y-56728214D01*
X43306726Y-56632976D01*
X43354345Y-56537738D01*
X29701964Y-45346880D02*
X29701964Y-44346880D01*
X29368630Y-45061166D01*
X29035297Y-44346880D01*
X29035297Y-45346880D01*
X28654345Y-44346880D02*
X27987678Y-45346880D01*
X27987678Y-44346880D02*
X28654345Y-45346880D01*
X27654345Y-44442119D02*
X27606726Y-44394500D01*
X27511488Y-44346880D01*
X27273392Y-44346880D01*
X27178154Y-44394500D01*
X27130535Y-44442119D01*
X27082916Y-44537357D01*
X27082916Y-44632595D01*
X27130535Y-44775452D01*
X27701964Y-45346880D01*
X27082916Y-45346880D01*
X10651964Y-45346880D02*
X10651964Y-44346880D01*
X10318630Y-45061166D01*
X9985297Y-44346880D01*
X9985297Y-45346880D01*
X9604345Y-44346880D02*
X8937678Y-45346880D01*
X8937678Y-44346880D02*
X9604345Y-45346880D01*
X8032916Y-45346880D02*
X8604345Y-45346880D01*
X8318630Y-45346880D02*
X8318630Y-44346880D01*
X8413869Y-44489738D01*
X8509107Y-44584976D01*
X8604345Y-44632595D01*
X53990722Y-108592880D02*
X53990722Y-107592880D01*
X53657389Y-108307166D01*
X53324056Y-107592880D01*
X53324056Y-108592880D01*
X52943103Y-107592880D02*
X52276437Y-108592880D01*
X52276437Y-107592880D02*
X52943103Y-108592880D01*
X51466913Y-107926214D02*
X51466913Y-108592880D01*
X51705008Y-107545261D02*
X51943103Y-108259547D01*
X51324056Y-108259547D01*
X50895484Y-108592880D02*
X50705008Y-108592880D01*
X50609770Y-108545261D01*
X50562151Y-108497642D01*
X50466913Y-108354785D01*
X50419294Y-108164309D01*
X50419294Y-107783357D01*
X50466913Y-107688119D01*
X50514532Y-107640500D01*
X50609770Y-107592880D01*
X50800246Y-107592880D01*
X50895484Y-107640500D01*
X50943103Y-107688119D01*
X50990722Y-107783357D01*
X50990722Y-108021452D01*
X50943103Y-108116690D01*
X50895484Y-108164309D01*
X50800246Y-108211928D01*
X50609770Y-108211928D01*
X50514532Y-108164309D01*
X50466913Y-108116690D01*
X50419294Y-108021452D01*
X258778154Y-102496880D02*
X258778154Y-101496880D01*
X258444821Y-102211166D01*
X258111488Y-101496880D01*
X258111488Y-102496880D01*
X257730535Y-101496880D02*
X257063869Y-102496880D01*
X257063869Y-101496880D02*
X257730535Y-102496880D01*
X256254345Y-101496880D02*
X256444821Y-101496880D01*
X256540059Y-101544500D01*
X256587678Y-101592119D01*
X256682916Y-101734976D01*
X256730535Y-101925452D01*
X256730535Y-102306404D01*
X256682916Y-102401642D01*
X256635297Y-102449261D01*
X256540059Y-102496880D01*
X256349583Y-102496880D01*
X256254345Y-102449261D01*
X256206726Y-102401642D01*
X256159107Y-102306404D01*
X256159107Y-102068309D01*
X256206726Y-101973071D01*
X256254345Y-101925452D01*
X256349583Y-101877833D01*
X256540059Y-101877833D01*
X256635297Y-101925452D01*
X256682916Y-101973071D01*
X256730535Y-102068309D01*
X255778154Y-101592119D02*
X255730535Y-101544500D01*
X255635297Y-101496880D01*
X255397202Y-101496880D01*
X255301964Y-101544500D01*
X255254345Y-101592119D01*
X255206726Y-101687357D01*
X255206726Y-101782595D01*
X255254345Y-101925452D01*
X255825773Y-102496880D01*
X255206726Y-102496880D01*
X63515698Y-121546944D02*
X63515698Y-120546944D01*
X63182365Y-121261230D01*
X62849032Y-120546944D01*
X62849032Y-121546944D01*
X62468079Y-120546944D02*
X61801413Y-121546944D01*
X61801413Y-120546944D02*
X62468079Y-121546944D01*
X61515698Y-120546944D02*
X60849032Y-120546944D01*
X61277603Y-121546944D01*
X59944270Y-121546944D02*
X60515698Y-121546944D01*
X60229984Y-121546944D02*
X60229984Y-120546944D01*
X60325222Y-120689802D01*
X60420460Y-120785040D01*
X60515698Y-120832659D01*
X39703178Y-121546944D02*
X39703178Y-120546944D01*
X39369845Y-121261230D01*
X39036512Y-120546944D01*
X39036512Y-121546944D01*
X38655559Y-120546944D02*
X37988893Y-121546944D01*
X37988893Y-120546944D02*
X38655559Y-121546944D01*
X37703178Y-120546944D02*
X37036512Y-120546944D01*
X37465083Y-121546944D01*
X36465083Y-120546944D02*
X36369845Y-120546944D01*
X36274607Y-120594564D01*
X36226988Y-120642183D01*
X36179369Y-120737421D01*
X36131750Y-120927897D01*
X36131750Y-121165992D01*
X36179369Y-121356468D01*
X36226988Y-121451706D01*
X36274607Y-121499325D01*
X36369845Y-121546944D01*
X36465083Y-121546944D01*
X36560321Y-121499325D01*
X36607940Y-121451706D01*
X36655559Y-121356468D01*
X36703178Y-121165992D01*
X36703178Y-120927897D01*
X36655559Y-120737421D01*
X36607940Y-120642183D01*
X36560321Y-120594564D01*
X36465083Y-120546944D01*
X15890658Y-121546944D02*
X15890658Y-120546944D01*
X15557325Y-121261230D01*
X15223992Y-120546944D01*
X15223992Y-121546944D01*
X14843039Y-120546944D02*
X14176373Y-121546944D01*
X14176373Y-120546944D02*
X14843039Y-121546944D01*
X13366849Y-120546944D02*
X13557325Y-120546944D01*
X13652563Y-120594564D01*
X13700182Y-120642183D01*
X13795420Y-120785040D01*
X13843039Y-120975516D01*
X13843039Y-121356468D01*
X13795420Y-121451706D01*
X13747801Y-121499325D01*
X13652563Y-121546944D01*
X13462087Y-121546944D01*
X13366849Y-121499325D01*
X13319230Y-121451706D01*
X13271611Y-121356468D01*
X13271611Y-121118373D01*
X13319230Y-121023135D01*
X13366849Y-120975516D01*
X13462087Y-120927897D01*
X13652563Y-120927897D01*
X13747801Y-120975516D01*
X13795420Y-121023135D01*
X13843039Y-121118373D01*
X12795420Y-121546944D02*
X12604944Y-121546944D01*
X12509706Y-121499325D01*
X12462087Y-121451706D01*
X12366849Y-121308849D01*
X12319230Y-121118373D01*
X12319230Y-120737421D01*
X12366849Y-120642183D01*
X12414468Y-120594564D01*
X12509706Y-120546944D01*
X12700182Y-120546944D01*
X12795420Y-120594564D01*
X12843039Y-120642183D01*
X12890658Y-120737421D01*
X12890658Y-120975516D01*
X12843039Y-121070754D01*
X12795420Y-121118373D01*
X12700182Y-121165992D01*
X12509706Y-121165992D01*
X12414468Y-121118373D01*
X12366849Y-121070754D01*
X12319230Y-120975516D01*
X232584404Y-102496880D02*
X232584404Y-101496880D01*
X232251071Y-102211166D01*
X231917738Y-101496880D01*
X231917738Y-102496880D01*
X231536785Y-101496880D02*
X230870119Y-102496880D01*
X230870119Y-101496880D02*
X231536785Y-102496880D01*
X230012976Y-101496880D02*
X230489166Y-101496880D01*
X230536785Y-101973071D01*
X230489166Y-101925452D01*
X230393928Y-101877833D01*
X230155833Y-101877833D01*
X230060595Y-101925452D01*
X230012976Y-101973071D01*
X229965357Y-102068309D01*
X229965357Y-102306404D01*
X230012976Y-102401642D01*
X230060595Y-102449261D01*
X230155833Y-102496880D01*
X230393928Y-102496880D01*
X230489166Y-102449261D01*
X230536785Y-102401642D01*
X229346309Y-101496880D02*
X229251071Y-101496880D01*
X229155833Y-101544500D01*
X229108214Y-101592119D01*
X229060595Y-101687357D01*
X229012976Y-101877833D01*
X229012976Y-102115928D01*
X229060595Y-102306404D01*
X229108214Y-102401642D01*
X229155833Y-102449261D01*
X229251071Y-102496880D01*
X229346309Y-102496880D01*
X229441547Y-102449261D01*
X229489166Y-102401642D01*
X229536785Y-102306404D01*
X229584404Y-102115928D01*
X229584404Y-101877833D01*
X229536785Y-101687357D01*
X229489166Y-101592119D01*
X229441547Y-101544500D01*
X229346309Y-101496880D01*
X201628318Y-127642948D02*
X201628318Y-126642948D01*
X201294985Y-127357234D01*
X200961652Y-126642948D01*
X200961652Y-127642948D01*
X200580699Y-126642948D02*
X199914033Y-127642948D01*
X199914033Y-126642948D02*
X200580699Y-127642948D01*
X199628318Y-126642948D02*
X199009271Y-126642948D01*
X199342604Y-127023901D01*
X199199747Y-127023901D01*
X199104509Y-127071520D01*
X199056890Y-127119139D01*
X199009271Y-127214377D01*
X199009271Y-127452472D01*
X199056890Y-127547710D01*
X199104509Y-127595329D01*
X199199747Y-127642948D01*
X199485461Y-127642948D01*
X199580699Y-127595329D01*
X199628318Y-127547710D01*
X198056890Y-127642948D02*
X198628318Y-127642948D01*
X198342604Y-127642948D02*
X198342604Y-126642948D01*
X198437842Y-126785806D01*
X198533080Y-126881044D01*
X198628318Y-126928663D01*
X220678334Y-127642948D02*
X220678334Y-126642948D01*
X220345001Y-127357234D01*
X220011668Y-126642948D01*
X220011668Y-127642948D01*
X219630715Y-126642948D02*
X218964049Y-127642948D01*
X218964049Y-126642948D02*
X219630715Y-127642948D01*
X218678334Y-126642948D02*
X218059287Y-126642948D01*
X218392620Y-127023901D01*
X218249763Y-127023901D01*
X218154525Y-127071520D01*
X218106906Y-127119139D01*
X218059287Y-127214377D01*
X218059287Y-127452472D01*
X218106906Y-127547710D01*
X218154525Y-127595329D01*
X218249763Y-127642948D01*
X218535477Y-127642948D01*
X218630715Y-127595329D01*
X218678334Y-127547710D01*
X217202144Y-126976282D02*
X217202144Y-127642948D01*
X217440239Y-126595329D02*
X217678334Y-127309615D01*
X217059287Y-127309615D01*
X239728350Y-121546948D02*
X239728350Y-120546948D01*
X239395017Y-121261234D01*
X239061684Y-120546948D01*
X239061684Y-121546948D01*
X238680731Y-120546948D02*
X238014065Y-121546948D01*
X238014065Y-120546948D02*
X238680731Y-121546948D01*
X237109303Y-121546948D02*
X237680731Y-121546948D01*
X237395017Y-121546948D02*
X237395017Y-120546948D01*
X237490255Y-120689806D01*
X237585493Y-120785044D01*
X237680731Y-120832663D01*
X236252160Y-120546948D02*
X236442636Y-120546948D01*
X236537874Y-120594568D01*
X236585493Y-120642187D01*
X236680731Y-120785044D01*
X236728350Y-120975520D01*
X236728350Y-121356472D01*
X236680731Y-121451710D01*
X236633112Y-121499329D01*
X236537874Y-121546948D01*
X236347398Y-121546948D01*
X236252160Y-121499329D01*
X236204541Y-121451710D01*
X236156922Y-121356472D01*
X236156922Y-121118377D01*
X236204541Y-121023139D01*
X236252160Y-120975520D01*
X236347398Y-120927901D01*
X236537874Y-120927901D01*
X236633112Y-120975520D01*
X236680731Y-121023139D01*
X236728350Y-121118377D01*
X251634638Y-108592880D02*
X251634638Y-107592880D01*
X251301305Y-108307166D01*
X250967972Y-107592880D01*
X250967972Y-108592880D01*
X250587019Y-107592880D02*
X249920353Y-108592880D01*
X249920353Y-107592880D02*
X250587019Y-108592880D01*
X249110829Y-107592880D02*
X249301305Y-107592880D01*
X249396543Y-107640500D01*
X249444162Y-107688119D01*
X249539400Y-107830976D01*
X249587019Y-108021452D01*
X249587019Y-108402404D01*
X249539400Y-108497642D01*
X249491781Y-108545261D01*
X249396543Y-108592880D01*
X249206067Y-108592880D01*
X249110829Y-108545261D01*
X249063210Y-108497642D01*
X249015591Y-108402404D01*
X249015591Y-108164309D01*
X249063210Y-108069071D01*
X249110829Y-108021452D01*
X249206067Y-107973833D01*
X249396543Y-107973833D01*
X249491781Y-108021452D01*
X249539400Y-108069071D01*
X249587019Y-108164309D01*
X248396543Y-107592880D02*
X248301305Y-107592880D01*
X248206067Y-107640500D01*
X248158448Y-107688119D01*
X248110829Y-107783357D01*
X248063210Y-107973833D01*
X248063210Y-108211928D01*
X248110829Y-108402404D01*
X248158448Y-108497642D01*
X248206067Y-108545261D01*
X248301305Y-108592880D01*
X248396543Y-108592880D01*
X248491781Y-108545261D01*
X248539400Y-108497642D01*
X248587019Y-108402404D01*
X248634638Y-108211928D01*
X248634638Y-107973833D01*
X248587019Y-107783357D01*
X248539400Y-107688119D01*
X248491781Y-107640500D01*
X248396543Y-107592880D01*
X48751964Y-51442880D02*
X48751964Y-50442880D01*
X48418630Y-51157166D01*
X48085297Y-50442880D01*
X48085297Y-51442880D01*
X47704345Y-50442880D02*
X47037678Y-51442880D01*
X47037678Y-50442880D02*
X47704345Y-51442880D01*
X46751964Y-50442880D02*
X46132916Y-50442880D01*
X46466250Y-50823833D01*
X46323392Y-50823833D01*
X46228154Y-50871452D01*
X46180535Y-50919071D01*
X46132916Y-51014309D01*
X46132916Y-51252404D01*
X46180535Y-51347642D01*
X46228154Y-51395261D01*
X46323392Y-51442880D01*
X46609107Y-51442880D01*
X46704345Y-51395261D01*
X46751964Y-51347642D01*
X67801964Y-51442880D02*
X67801964Y-50442880D01*
X67468630Y-51157166D01*
X67135297Y-50442880D01*
X67135297Y-51442880D01*
X66754345Y-50442880D02*
X66087678Y-51442880D01*
X66087678Y-50442880D02*
X66754345Y-51442880D01*
X65278154Y-50776214D02*
X65278154Y-51442880D01*
X65516250Y-50395261D02*
X65754345Y-51109547D01*
X65135297Y-51109547D01*
X86851964Y-51442880D02*
X86851964Y-50442880D01*
X86518630Y-51157166D01*
X86185297Y-50442880D01*
X86185297Y-51442880D01*
X85804345Y-50442880D02*
X85137678Y-51442880D01*
X85137678Y-50442880D02*
X85804345Y-51442880D01*
X84280535Y-50442880D02*
X84756726Y-50442880D01*
X84804345Y-50919071D01*
X84756726Y-50871452D01*
X84661488Y-50823833D01*
X84423392Y-50823833D01*
X84328154Y-50871452D01*
X84280535Y-50919071D01*
X84232916Y-51014309D01*
X84232916Y-51252404D01*
X84280535Y-51347642D01*
X84328154Y-51395261D01*
X84423392Y-51442880D01*
X84661488Y-51442880D01*
X84756726Y-51395261D01*
X84804345Y-51347642D01*
X105901964Y-51442880D02*
X105901964Y-50442880D01*
X105568630Y-51157166D01*
X105235297Y-50442880D01*
X105235297Y-51442880D01*
X104854345Y-50442880D02*
X104187678Y-51442880D01*
X104187678Y-50442880D02*
X104854345Y-51442880D01*
X103378154Y-50442880D02*
X103568630Y-50442880D01*
X103663869Y-50490500D01*
X103711488Y-50538119D01*
X103806726Y-50680976D01*
X103854345Y-50871452D01*
X103854345Y-51252404D01*
X103806726Y-51347642D01*
X103759107Y-51395261D01*
X103663869Y-51442880D01*
X103473392Y-51442880D01*
X103378154Y-51395261D01*
X103330535Y-51347642D01*
X103282916Y-51252404D01*
X103282916Y-51014309D01*
X103330535Y-50919071D01*
X103378154Y-50871452D01*
X103473392Y-50823833D01*
X103663869Y-50823833D01*
X103759107Y-50871452D01*
X103806726Y-50919071D01*
X103854345Y-51014309D01*
X124951964Y-51442880D02*
X124951964Y-50442880D01*
X124618630Y-51157166D01*
X124285297Y-50442880D01*
X124285297Y-51442880D01*
X123904345Y-50442880D02*
X123237678Y-51442880D01*
X123237678Y-50442880D02*
X123904345Y-51442880D01*
X122951964Y-50442880D02*
X122285297Y-50442880D01*
X122713869Y-51442880D01*
X144001964Y-51442880D02*
X144001964Y-50442880D01*
X143668630Y-51157166D01*
X143335297Y-50442880D01*
X143335297Y-51442880D01*
X142954345Y-50442880D02*
X142287678Y-51442880D01*
X142287678Y-50442880D02*
X142954345Y-51442880D01*
X141763869Y-50871452D02*
X141859107Y-50823833D01*
X141906726Y-50776214D01*
X141954345Y-50680976D01*
X141954345Y-50633357D01*
X141906726Y-50538119D01*
X141859107Y-50490500D01*
X141763869Y-50442880D01*
X141573392Y-50442880D01*
X141478154Y-50490500D01*
X141430535Y-50538119D01*
X141382916Y-50633357D01*
X141382916Y-50680976D01*
X141430535Y-50776214D01*
X141478154Y-50823833D01*
X141573392Y-50871452D01*
X141763869Y-50871452D01*
X141859107Y-50919071D01*
X141906726Y-50966690D01*
X141954345Y-51061928D01*
X141954345Y-51252404D01*
X141906726Y-51347642D01*
X141859107Y-51395261D01*
X141763869Y-51442880D01*
X141573392Y-51442880D01*
X141478154Y-51395261D01*
X141430535Y-51347642D01*
X141382916Y-51252404D01*
X141382916Y-51061928D01*
X141430535Y-50966690D01*
X141478154Y-50919071D01*
X141573392Y-50871452D01*
X163051964Y-51442880D02*
X163051964Y-50442880D01*
X162718630Y-51157166D01*
X162385297Y-50442880D01*
X162385297Y-51442880D01*
X162004345Y-50442880D02*
X161337678Y-51442880D01*
X161337678Y-50442880D02*
X162004345Y-51442880D01*
X160909107Y-51442880D02*
X160718630Y-51442880D01*
X160623392Y-51395261D01*
X160575773Y-51347642D01*
X160480535Y-51204785D01*
X160432916Y-51014309D01*
X160432916Y-50633357D01*
X160480535Y-50538119D01*
X160528154Y-50490500D01*
X160623392Y-50442880D01*
X160813869Y-50442880D01*
X160909107Y-50490500D01*
X160956726Y-50538119D01*
X161004345Y-50633357D01*
X161004345Y-50871452D01*
X160956726Y-50966690D01*
X160909107Y-51014309D01*
X160813869Y-51061928D01*
X160623392Y-51061928D01*
X160528154Y-51014309D01*
X160480535Y-50966690D01*
X160432916Y-50871452D01*
X182578154Y-51442880D02*
X182578154Y-50442880D01*
X182244821Y-51157166D01*
X181911488Y-50442880D01*
X181911488Y-51442880D01*
X181530535Y-50442880D02*
X180863869Y-51442880D01*
X180863869Y-50442880D02*
X181530535Y-51442880D01*
X179959107Y-51442880D02*
X180530535Y-51442880D01*
X180244821Y-51442880D02*
X180244821Y-50442880D01*
X180340059Y-50585738D01*
X180435297Y-50680976D01*
X180530535Y-50728595D01*
X179340059Y-50442880D02*
X179244821Y-50442880D01*
X179149583Y-50490500D01*
X179101964Y-50538119D01*
X179054345Y-50633357D01*
X179006726Y-50823833D01*
X179006726Y-51061928D01*
X179054345Y-51252404D01*
X179101964Y-51347642D01*
X179149583Y-51395261D01*
X179244821Y-51442880D01*
X179340059Y-51442880D01*
X179435297Y-51395261D01*
X179482916Y-51347642D01*
X179530535Y-51252404D01*
X179578154Y-51061928D01*
X179578154Y-50823833D01*
X179530535Y-50633357D01*
X179482916Y-50538119D01*
X179435297Y-50490500D01*
X179340059Y-50442880D01*
X201628154Y-51442880D02*
X201628154Y-50442880D01*
X201294821Y-51157166D01*
X200961488Y-50442880D01*
X200961488Y-51442880D01*
X200580535Y-50442880D02*
X199913869Y-51442880D01*
X199913869Y-50442880D02*
X200580535Y-51442880D01*
X199009107Y-51442880D02*
X199580535Y-51442880D01*
X199294821Y-51442880D02*
X199294821Y-50442880D01*
X199390059Y-50585738D01*
X199485297Y-50680976D01*
X199580535Y-50728595D01*
X198056726Y-51442880D02*
X198628154Y-51442880D01*
X198342440Y-51442880D02*
X198342440Y-50442880D01*
X198437678Y-50585738D01*
X198532916Y-50680976D01*
X198628154Y-50728595D01*
X220678154Y-51442880D02*
X220678154Y-50442880D01*
X220344821Y-51157166D01*
X220011488Y-50442880D01*
X220011488Y-51442880D01*
X219630535Y-50442880D02*
X218963869Y-51442880D01*
X218963869Y-50442880D02*
X219630535Y-51442880D01*
X218059107Y-51442880D02*
X218630535Y-51442880D01*
X218344821Y-51442880D02*
X218344821Y-50442880D01*
X218440059Y-50585738D01*
X218535297Y-50680976D01*
X218630535Y-50728595D01*
X217678154Y-50538119D02*
X217630535Y-50490500D01*
X217535297Y-50442880D01*
X217297202Y-50442880D01*
X217201964Y-50490500D01*
X217154345Y-50538119D01*
X217106726Y-50633357D01*
X217106726Y-50728595D01*
X217154345Y-50871452D01*
X217725773Y-51442880D01*
X217106726Y-51442880D01*
X258778154Y-45346880D02*
X258778154Y-44346880D01*
X258444821Y-45061166D01*
X258111488Y-44346880D01*
X258111488Y-45346880D01*
X257730535Y-44346880D02*
X257063869Y-45346880D01*
X257063869Y-44346880D02*
X257730535Y-45346880D01*
X256159107Y-45346880D02*
X256730535Y-45346880D01*
X256444821Y-45346880D02*
X256444821Y-44346880D01*
X256540059Y-44489738D01*
X256635297Y-44584976D01*
X256730535Y-44632595D01*
X255301964Y-44680214D02*
X255301964Y-45346880D01*
X255540059Y-44299261D02*
X255778154Y-45013547D01*
X255159107Y-45013547D01*
X277828154Y-45346880D02*
X277828154Y-44346880D01*
X277494821Y-45061166D01*
X277161488Y-44346880D01*
X277161488Y-45346880D01*
X276780535Y-44346880D02*
X276113869Y-45346880D01*
X276113869Y-44346880D02*
X276780535Y-45346880D01*
X275209107Y-45346880D02*
X275780535Y-45346880D01*
X275494821Y-45346880D02*
X275494821Y-44346880D01*
X275590059Y-44489738D01*
X275685297Y-44584976D01*
X275780535Y-44632595D01*
X274304345Y-44346880D02*
X274780535Y-44346880D01*
X274828154Y-44823071D01*
X274780535Y-44775452D01*
X274685297Y-44727833D01*
X274447202Y-44727833D01*
X274351964Y-44775452D01*
X274304345Y-44823071D01*
X274256726Y-44918309D01*
X274256726Y-45156404D01*
X274304345Y-45251642D01*
X274351964Y-45299261D01*
X274447202Y-45346880D01*
X274685297Y-45346880D01*
X274780535Y-45299261D01*
X274828154Y-45251642D01*
X268303154Y-51442880D02*
X268303154Y-50442880D01*
X267969821Y-51157166D01*
X267636488Y-50442880D01*
X267636488Y-51442880D01*
X267255535Y-50442880D02*
X266588869Y-51442880D01*
X266588869Y-50442880D02*
X267255535Y-51442880D01*
X265684107Y-51442880D02*
X266255535Y-51442880D01*
X265969821Y-51442880D02*
X265969821Y-50442880D01*
X266065059Y-50585738D01*
X266160297Y-50680976D01*
X266255535Y-50728595D01*
X265350773Y-50442880D02*
X264684107Y-50442880D01*
X265112678Y-51442880D01*
X15890690Y-70492880D02*
X15890690Y-69492880D01*
X15557357Y-70207166D01*
X15224024Y-69492880D01*
X15224024Y-70492880D01*
X14843071Y-69492880D02*
X14176405Y-70492880D01*
X14176405Y-69492880D02*
X14843071Y-70492880D01*
X13271643Y-70492880D02*
X13843071Y-70492880D01*
X13557357Y-70492880D02*
X13557357Y-69492880D01*
X13652595Y-69635738D01*
X13747833Y-69730976D01*
X13843071Y-69778595D01*
X12700214Y-69921452D02*
X12795452Y-69873833D01*
X12843071Y-69826214D01*
X12890690Y-69730976D01*
X12890690Y-69683357D01*
X12843071Y-69588119D01*
X12795452Y-69540500D01*
X12700214Y-69492880D01*
X12509738Y-69492880D01*
X12414500Y-69540500D01*
X12366881Y-69588119D01*
X12319262Y-69683357D01*
X12319262Y-69730976D01*
X12366881Y-69826214D01*
X12414500Y-69873833D01*
X12509738Y-69921452D01*
X12700214Y-69921452D01*
X12795452Y-69969071D01*
X12843071Y-70016690D01*
X12890690Y-70111928D01*
X12890690Y-70302404D01*
X12843071Y-70397642D01*
X12795452Y-70445261D01*
X12700214Y-70492880D01*
X12509738Y-70492880D01*
X12414500Y-70445261D01*
X12366881Y-70397642D01*
X12319262Y-70302404D01*
X12319262Y-70111928D01*
X12366881Y-70016690D01*
X12414500Y-69969071D01*
X12509738Y-69921452D01*
X39703210Y-70492880D02*
X39703210Y-69492880D01*
X39369877Y-70207166D01*
X39036544Y-69492880D01*
X39036544Y-70492880D01*
X38655591Y-69492880D02*
X37988925Y-70492880D01*
X37988925Y-69492880D02*
X38655591Y-70492880D01*
X37084163Y-70492880D02*
X37655591Y-70492880D01*
X37369877Y-70492880D02*
X37369877Y-69492880D01*
X37465115Y-69635738D01*
X37560353Y-69730976D01*
X37655591Y-69778595D01*
X36607972Y-70492880D02*
X36417496Y-70492880D01*
X36322258Y-70445261D01*
X36274639Y-70397642D01*
X36179401Y-70254785D01*
X36131782Y-70064309D01*
X36131782Y-69683357D01*
X36179401Y-69588119D01*
X36227020Y-69540500D01*
X36322258Y-69492880D01*
X36512734Y-69492880D01*
X36607972Y-69540500D01*
X36655591Y-69588119D01*
X36703210Y-69683357D01*
X36703210Y-69921452D01*
X36655591Y-70016690D01*
X36607972Y-70064309D01*
X36512734Y-70111928D01*
X36322258Y-70111928D01*
X36227020Y-70064309D01*
X36179401Y-70016690D01*
X36131782Y-69921452D01*
X58753226Y-70492880D02*
X58753226Y-69492880D01*
X58419893Y-70207166D01*
X58086560Y-69492880D01*
X58086560Y-70492880D01*
X57705607Y-69492880D02*
X57038941Y-70492880D01*
X57038941Y-69492880D02*
X57705607Y-70492880D01*
X56705607Y-69588119D02*
X56657988Y-69540500D01*
X56562750Y-69492880D01*
X56324655Y-69492880D01*
X56229417Y-69540500D01*
X56181798Y-69588119D01*
X56134179Y-69683357D01*
X56134179Y-69778595D01*
X56181798Y-69921452D01*
X56753226Y-70492880D01*
X56134179Y-70492880D01*
X55515131Y-69492880D02*
X55419893Y-69492880D01*
X55324655Y-69540500D01*
X55277036Y-69588119D01*
X55229417Y-69683357D01*
X55181798Y-69873833D01*
X55181798Y-70111928D01*
X55229417Y-70302404D01*
X55277036Y-70397642D01*
X55324655Y-70445261D01*
X55419893Y-70492880D01*
X55515131Y-70492880D01*
X55610369Y-70445261D01*
X55657988Y-70397642D01*
X55705607Y-70302404D01*
X55753226Y-70111928D01*
X55753226Y-69873833D01*
X55705607Y-69683357D01*
X55657988Y-69588119D01*
X55610369Y-69540500D01*
X55515131Y-69492880D01*
X77803242Y-70492880D02*
X77803242Y-69492880D01*
X77469909Y-70207166D01*
X77136576Y-69492880D01*
X77136576Y-70492880D01*
X76755623Y-69492880D02*
X76088957Y-70492880D01*
X76088957Y-69492880D02*
X76755623Y-70492880D01*
X75755623Y-69588119D02*
X75708004Y-69540500D01*
X75612766Y-69492880D01*
X75374671Y-69492880D01*
X75279433Y-69540500D01*
X75231814Y-69588119D01*
X75184195Y-69683357D01*
X75184195Y-69778595D01*
X75231814Y-69921452D01*
X75803242Y-70492880D01*
X75184195Y-70492880D01*
X74231814Y-70492880D02*
X74803242Y-70492880D01*
X74517528Y-70492880D02*
X74517528Y-69492880D01*
X74612766Y-69635738D01*
X74708004Y-69730976D01*
X74803242Y-69778595D01*
X96853258Y-70492880D02*
X96853258Y-69492880D01*
X96519925Y-70207166D01*
X96186592Y-69492880D01*
X96186592Y-70492880D01*
X95805639Y-69492880D02*
X95138973Y-70492880D01*
X95138973Y-69492880D02*
X95805639Y-70492880D01*
X94805639Y-69588119D02*
X94758020Y-69540500D01*
X94662782Y-69492880D01*
X94424687Y-69492880D01*
X94329449Y-69540500D01*
X94281830Y-69588119D01*
X94234211Y-69683357D01*
X94234211Y-69778595D01*
X94281830Y-69921452D01*
X94853258Y-70492880D01*
X94234211Y-70492880D01*
X93853258Y-69588119D02*
X93805639Y-69540500D01*
X93710401Y-69492880D01*
X93472306Y-69492880D01*
X93377068Y-69540500D01*
X93329449Y-69588119D01*
X93281830Y-69683357D01*
X93281830Y-69778595D01*
X93329449Y-69921452D01*
X93900877Y-70492880D01*
X93281830Y-70492880D01*
X115903274Y-70492880D02*
X115903274Y-69492880D01*
X115569941Y-70207166D01*
X115236608Y-69492880D01*
X115236608Y-70492880D01*
X114855655Y-69492880D02*
X114188989Y-70492880D01*
X114188989Y-69492880D02*
X114855655Y-70492880D01*
X113855655Y-69588119D02*
X113808036Y-69540500D01*
X113712798Y-69492880D01*
X113474703Y-69492880D01*
X113379465Y-69540500D01*
X113331846Y-69588119D01*
X113284227Y-69683357D01*
X113284227Y-69778595D01*
X113331846Y-69921452D01*
X113903274Y-70492880D01*
X113284227Y-70492880D01*
X112950893Y-69492880D02*
X112331846Y-69492880D01*
X112665179Y-69873833D01*
X112522322Y-69873833D01*
X112427084Y-69921452D01*
X112379465Y-69969071D01*
X112331846Y-70064309D01*
X112331846Y-70302404D01*
X112379465Y-70397642D01*
X112427084Y-70445261D01*
X112522322Y-70492880D01*
X112808036Y-70492880D01*
X112903274Y-70445261D01*
X112950893Y-70397642D01*
X134953290Y-70492880D02*
X134953290Y-69492880D01*
X134619957Y-70207166D01*
X134286624Y-69492880D01*
X134286624Y-70492880D01*
X133905671Y-69492880D02*
X133239005Y-70492880D01*
X133239005Y-69492880D02*
X133905671Y-70492880D01*
X132905671Y-69588119D02*
X132858052Y-69540500D01*
X132762814Y-69492880D01*
X132524719Y-69492880D01*
X132429481Y-69540500D01*
X132381862Y-69588119D01*
X132334243Y-69683357D01*
X132334243Y-69778595D01*
X132381862Y-69921452D01*
X132953290Y-70492880D01*
X132334243Y-70492880D01*
X131477100Y-69826214D02*
X131477100Y-70492880D01*
X131715195Y-69445261D02*
X131953290Y-70159547D01*
X131334243Y-70159547D01*
X154003306Y-70492880D02*
X154003306Y-69492880D01*
X153669973Y-70207166D01*
X153336640Y-69492880D01*
X153336640Y-70492880D01*
X152955687Y-69492880D02*
X152289021Y-70492880D01*
X152289021Y-69492880D02*
X152955687Y-70492880D01*
X151955687Y-69588119D02*
X151908068Y-69540500D01*
X151812830Y-69492880D01*
X151574735Y-69492880D01*
X151479497Y-69540500D01*
X151431878Y-69588119D01*
X151384259Y-69683357D01*
X151384259Y-69778595D01*
X151431878Y-69921452D01*
X152003306Y-70492880D01*
X151384259Y-70492880D01*
X150479497Y-69492880D02*
X150955687Y-69492880D01*
X151003306Y-69969071D01*
X150955687Y-69921452D01*
X150860449Y-69873833D01*
X150622354Y-69873833D01*
X150527116Y-69921452D01*
X150479497Y-69969071D01*
X150431878Y-70064309D01*
X150431878Y-70302404D01*
X150479497Y-70397642D01*
X150527116Y-70445261D01*
X150622354Y-70492880D01*
X150860449Y-70492880D01*
X150955687Y-70445261D01*
X151003306Y-70397642D01*
X173053322Y-70492880D02*
X173053322Y-69492880D01*
X172719989Y-70207166D01*
X172386656Y-69492880D01*
X172386656Y-70492880D01*
X172005703Y-69492880D02*
X171339037Y-70492880D01*
X171339037Y-69492880D02*
X172005703Y-70492880D01*
X171005703Y-69588119D02*
X170958084Y-69540500D01*
X170862846Y-69492880D01*
X170624751Y-69492880D01*
X170529513Y-69540500D01*
X170481894Y-69588119D01*
X170434275Y-69683357D01*
X170434275Y-69778595D01*
X170481894Y-69921452D01*
X171053322Y-70492880D01*
X170434275Y-70492880D01*
X169577132Y-69492880D02*
X169767608Y-69492880D01*
X169862846Y-69540500D01*
X169910465Y-69588119D01*
X170005703Y-69730976D01*
X170053322Y-69921452D01*
X170053322Y-70302404D01*
X170005703Y-70397642D01*
X169958084Y-70445261D01*
X169862846Y-70492880D01*
X169672370Y-70492880D01*
X169577132Y-70445261D01*
X169529513Y-70397642D01*
X169481894Y-70302404D01*
X169481894Y-70064309D01*
X169529513Y-69969071D01*
X169577132Y-69921452D01*
X169672370Y-69873833D01*
X169862846Y-69873833D01*
X169958084Y-69921452D01*
X170005703Y-69969071D01*
X170053322Y-70064309D01*
X211153354Y-70492880D02*
X211153354Y-69492880D01*
X210820021Y-70207166D01*
X210486688Y-69492880D01*
X210486688Y-70492880D01*
X210105735Y-69492880D02*
X209439069Y-70492880D01*
X209439069Y-69492880D02*
X210105735Y-70492880D01*
X209105735Y-69588119D02*
X209058116Y-69540500D01*
X208962878Y-69492880D01*
X208724783Y-69492880D01*
X208629545Y-69540500D01*
X208581926Y-69588119D01*
X208534307Y-69683357D01*
X208534307Y-69778595D01*
X208581926Y-69921452D01*
X209153354Y-70492880D01*
X208534307Y-70492880D01*
X207962878Y-69921452D02*
X208058116Y-69873833D01*
X208105735Y-69826214D01*
X208153354Y-69730976D01*
X208153354Y-69683357D01*
X208105735Y-69588119D01*
X208058116Y-69540500D01*
X207962878Y-69492880D01*
X207772402Y-69492880D01*
X207677164Y-69540500D01*
X207629545Y-69588119D01*
X207581926Y-69683357D01*
X207581926Y-69730976D01*
X207629545Y-69826214D01*
X207677164Y-69873833D01*
X207772402Y-69921452D01*
X207962878Y-69921452D01*
X208058116Y-69969071D01*
X208105735Y-70016690D01*
X208153354Y-70111928D01*
X208153354Y-70302404D01*
X208105735Y-70397642D01*
X208058116Y-70445261D01*
X207962878Y-70492880D01*
X207772402Y-70492880D01*
X207677164Y-70445261D01*
X207629545Y-70397642D01*
X207581926Y-70302404D01*
X207581926Y-70111928D01*
X207629545Y-70016690D01*
X207677164Y-69969071D01*
X207772402Y-69921452D01*
X230203370Y-70492880D02*
X230203370Y-69492880D01*
X229870037Y-70207166D01*
X229536704Y-69492880D01*
X229536704Y-70492880D01*
X229155751Y-69492880D02*
X228489085Y-70492880D01*
X228489085Y-69492880D02*
X229155751Y-70492880D01*
X228155751Y-69588119D02*
X228108132Y-69540500D01*
X228012894Y-69492880D01*
X227774799Y-69492880D01*
X227679561Y-69540500D01*
X227631942Y-69588119D01*
X227584323Y-69683357D01*
X227584323Y-69778595D01*
X227631942Y-69921452D01*
X228203370Y-70492880D01*
X227584323Y-70492880D01*
X227108132Y-70492880D02*
X226917656Y-70492880D01*
X226822418Y-70445261D01*
X226774799Y-70397642D01*
X226679561Y-70254785D01*
X226631942Y-70064309D01*
X226631942Y-69683357D01*
X226679561Y-69588119D01*
X226727180Y-69540500D01*
X226822418Y-69492880D01*
X227012894Y-69492880D01*
X227108132Y-69540500D01*
X227155751Y-69588119D01*
X227203370Y-69683357D01*
X227203370Y-69921452D01*
X227155751Y-70016690D01*
X227108132Y-70064309D01*
X227012894Y-70111928D01*
X226822418Y-70111928D01*
X226727180Y-70064309D01*
X226679561Y-70016690D01*
X226631942Y-69921452D01*
X249253386Y-70492880D02*
X249253386Y-69492880D01*
X248920053Y-70207166D01*
X248586720Y-69492880D01*
X248586720Y-70492880D01*
X248205767Y-69492880D02*
X247539101Y-70492880D01*
X247539101Y-69492880D02*
X248205767Y-70492880D01*
X247253386Y-69492880D02*
X246634339Y-69492880D01*
X246967672Y-69873833D01*
X246824815Y-69873833D01*
X246729577Y-69921452D01*
X246681958Y-69969071D01*
X246634339Y-70064309D01*
X246634339Y-70302404D01*
X246681958Y-70397642D01*
X246729577Y-70445261D01*
X246824815Y-70492880D01*
X247110529Y-70492880D01*
X247205767Y-70445261D01*
X247253386Y-70397642D01*
X246015291Y-69492880D02*
X245920053Y-69492880D01*
X245824815Y-69540500D01*
X245777196Y-69588119D01*
X245729577Y-69683357D01*
X245681958Y-69873833D01*
X245681958Y-70111928D01*
X245729577Y-70302404D01*
X245777196Y-70397642D01*
X245824815Y-70445261D01*
X245920053Y-70492880D01*
X246015291Y-70492880D01*
X246110529Y-70445261D01*
X246158148Y-70397642D01*
X246205767Y-70302404D01*
X246253386Y-70111928D01*
X246253386Y-69873833D01*
X246205767Y-69683357D01*
X246158148Y-69588119D01*
X246110529Y-69540500D01*
X246015291Y-69492880D01*
X18271942Y-89542880D02*
X18271942Y-88542880D01*
X17938609Y-89257166D01*
X17605276Y-88542880D01*
X17605276Y-89542880D01*
X17224323Y-88542880D02*
X16557657Y-89542880D01*
X16557657Y-88542880D02*
X17224323Y-89542880D01*
X16271942Y-88542880D02*
X15652895Y-88542880D01*
X15986228Y-88923833D01*
X15843371Y-88923833D01*
X15748133Y-88971452D01*
X15700514Y-89019071D01*
X15652895Y-89114309D01*
X15652895Y-89352404D01*
X15700514Y-89447642D01*
X15748133Y-89495261D01*
X15843371Y-89542880D01*
X16129085Y-89542880D01*
X16224323Y-89495261D01*
X16271942Y-89447642D01*
X15271942Y-88638119D02*
X15224323Y-88590500D01*
X15129085Y-88542880D01*
X14890990Y-88542880D01*
X14795752Y-88590500D01*
X14748133Y-88638119D01*
X14700514Y-88733357D01*
X14700514Y-88828595D01*
X14748133Y-88971452D01*
X15319561Y-89542880D01*
X14700514Y-89542880D01*
X44465714Y-89542880D02*
X44465714Y-88542880D01*
X44132381Y-89257166D01*
X43799048Y-88542880D01*
X43799048Y-89542880D01*
X43418095Y-88542880D02*
X42751429Y-89542880D01*
X42751429Y-88542880D02*
X43418095Y-89542880D01*
X42465714Y-88542880D02*
X41846667Y-88542880D01*
X42180000Y-88923833D01*
X42037143Y-88923833D01*
X41941905Y-88971452D01*
X41894286Y-89019071D01*
X41846667Y-89114309D01*
X41846667Y-89352404D01*
X41894286Y-89447642D01*
X41941905Y-89495261D01*
X42037143Y-89542880D01*
X42322857Y-89542880D01*
X42418095Y-89495261D01*
X42465714Y-89447642D01*
X40941905Y-88542880D02*
X41418095Y-88542880D01*
X41465714Y-89019071D01*
X41418095Y-88971452D01*
X41322857Y-88923833D01*
X41084762Y-88923833D01*
X40989524Y-88971452D01*
X40941905Y-89019071D01*
X40894286Y-89114309D01*
X40894286Y-89352404D01*
X40941905Y-89447642D01*
X40989524Y-89495261D01*
X41084762Y-89542880D01*
X41322857Y-89542880D01*
X41418095Y-89495261D01*
X41465714Y-89447642D01*
X63515730Y-89542880D02*
X63515730Y-88542880D01*
X63182397Y-89257166D01*
X62849064Y-88542880D01*
X62849064Y-89542880D01*
X62468111Y-88542880D02*
X61801445Y-89542880D01*
X61801445Y-88542880D02*
X62468111Y-89542880D01*
X61515730Y-88542880D02*
X60896683Y-88542880D01*
X61230016Y-88923833D01*
X61087159Y-88923833D01*
X60991921Y-88971452D01*
X60944302Y-89019071D01*
X60896683Y-89114309D01*
X60896683Y-89352404D01*
X60944302Y-89447642D01*
X60991921Y-89495261D01*
X61087159Y-89542880D01*
X61372873Y-89542880D01*
X61468111Y-89495261D01*
X61515730Y-89447642D01*
X60039540Y-88542880D02*
X60230016Y-88542880D01*
X60325254Y-88590500D01*
X60372873Y-88638119D01*
X60468111Y-88780976D01*
X60515730Y-88971452D01*
X60515730Y-89352404D01*
X60468111Y-89447642D01*
X60420492Y-89495261D01*
X60325254Y-89542880D01*
X60134778Y-89542880D01*
X60039540Y-89495261D01*
X59991921Y-89447642D01*
X59944302Y-89352404D01*
X59944302Y-89114309D01*
X59991921Y-89019071D01*
X60039540Y-88971452D01*
X60134778Y-88923833D01*
X60325254Y-88923833D01*
X60420492Y-88971452D01*
X60468111Y-89019071D01*
X60515730Y-89114309D01*
X82565746Y-89542880D02*
X82565746Y-88542880D01*
X82232413Y-89257166D01*
X81899080Y-88542880D01*
X81899080Y-89542880D01*
X81518127Y-88542880D02*
X80851461Y-89542880D01*
X80851461Y-88542880D02*
X81518127Y-89542880D01*
X80565746Y-88542880D02*
X79946699Y-88542880D01*
X80280032Y-88923833D01*
X80137175Y-88923833D01*
X80041937Y-88971452D01*
X79994318Y-89019071D01*
X79946699Y-89114309D01*
X79946699Y-89352404D01*
X79994318Y-89447642D01*
X80041937Y-89495261D01*
X80137175Y-89542880D01*
X80422889Y-89542880D01*
X80518127Y-89495261D01*
X80565746Y-89447642D01*
X79613365Y-88542880D02*
X78946699Y-88542880D01*
X79375270Y-89542880D01*
X101615762Y-89542880D02*
X101615762Y-88542880D01*
X101282429Y-89257166D01*
X100949096Y-88542880D01*
X100949096Y-89542880D01*
X100568143Y-88542880D02*
X99901477Y-89542880D01*
X99901477Y-88542880D02*
X100568143Y-89542880D01*
X99615762Y-88542880D02*
X98996715Y-88542880D01*
X99330048Y-88923833D01*
X99187191Y-88923833D01*
X99091953Y-88971452D01*
X99044334Y-89019071D01*
X98996715Y-89114309D01*
X98996715Y-89352404D01*
X99044334Y-89447642D01*
X99091953Y-89495261D01*
X99187191Y-89542880D01*
X99472905Y-89542880D01*
X99568143Y-89495261D01*
X99615762Y-89447642D01*
X98425286Y-88971452D02*
X98520524Y-88923833D01*
X98568143Y-88876214D01*
X98615762Y-88780976D01*
X98615762Y-88733357D01*
X98568143Y-88638119D01*
X98520524Y-88590500D01*
X98425286Y-88542880D01*
X98234810Y-88542880D01*
X98139572Y-88590500D01*
X98091953Y-88638119D01*
X98044334Y-88733357D01*
X98044334Y-88780976D01*
X98091953Y-88876214D01*
X98139572Y-88923833D01*
X98234810Y-88971452D01*
X98425286Y-88971452D01*
X98520524Y-89019071D01*
X98568143Y-89066690D01*
X98615762Y-89161928D01*
X98615762Y-89352404D01*
X98568143Y-89447642D01*
X98520524Y-89495261D01*
X98425286Y-89542880D01*
X98234810Y-89542880D01*
X98139572Y-89495261D01*
X98091953Y-89447642D01*
X98044334Y-89352404D01*
X98044334Y-89161928D01*
X98091953Y-89066690D01*
X98139572Y-89019071D01*
X98234810Y-88971452D01*
X120665778Y-89542880D02*
X120665778Y-88542880D01*
X120332445Y-89257166D01*
X119999112Y-88542880D01*
X119999112Y-89542880D01*
X119618159Y-88542880D02*
X118951493Y-89542880D01*
X118951493Y-88542880D02*
X119618159Y-89542880D01*
X118665778Y-88542880D02*
X118046731Y-88542880D01*
X118380064Y-88923833D01*
X118237207Y-88923833D01*
X118141969Y-88971452D01*
X118094350Y-89019071D01*
X118046731Y-89114309D01*
X118046731Y-89352404D01*
X118094350Y-89447642D01*
X118141969Y-89495261D01*
X118237207Y-89542880D01*
X118522921Y-89542880D01*
X118618159Y-89495261D01*
X118665778Y-89447642D01*
X117570540Y-89542880D02*
X117380064Y-89542880D01*
X117284826Y-89495261D01*
X117237207Y-89447642D01*
X117141969Y-89304785D01*
X117094350Y-89114309D01*
X117094350Y-88733357D01*
X117141969Y-88638119D01*
X117189588Y-88590500D01*
X117284826Y-88542880D01*
X117475302Y-88542880D01*
X117570540Y-88590500D01*
X117618159Y-88638119D01*
X117665778Y-88733357D01*
X117665778Y-88971452D01*
X117618159Y-89066690D01*
X117570540Y-89114309D01*
X117475302Y-89161928D01*
X117284826Y-89161928D01*
X117189588Y-89114309D01*
X117141969Y-89066690D01*
X117094350Y-88971452D01*
X139715794Y-89542880D02*
X139715794Y-88542880D01*
X139382461Y-89257166D01*
X139049128Y-88542880D01*
X139049128Y-89542880D01*
X138668175Y-88542880D02*
X138001509Y-89542880D01*
X138001509Y-88542880D02*
X138668175Y-89542880D01*
X137191985Y-88876214D02*
X137191985Y-89542880D01*
X137430080Y-88495261D02*
X137668175Y-89209547D01*
X137049128Y-89209547D01*
X136477699Y-88542880D02*
X136382461Y-88542880D01*
X136287223Y-88590500D01*
X136239604Y-88638119D01*
X136191985Y-88733357D01*
X136144366Y-88923833D01*
X136144366Y-89161928D01*
X136191985Y-89352404D01*
X136239604Y-89447642D01*
X136287223Y-89495261D01*
X136382461Y-89542880D01*
X136477699Y-89542880D01*
X136572937Y-89495261D01*
X136620556Y-89447642D01*
X136668175Y-89352404D01*
X136715794Y-89161928D01*
X136715794Y-88923833D01*
X136668175Y-88733357D01*
X136620556Y-88638119D01*
X136572937Y-88590500D01*
X136477699Y-88542880D01*
X158765810Y-89542880D02*
X158765810Y-88542880D01*
X158432477Y-89257166D01*
X158099144Y-88542880D01*
X158099144Y-89542880D01*
X157718191Y-88542880D02*
X157051525Y-89542880D01*
X157051525Y-88542880D02*
X157718191Y-89542880D01*
X156242001Y-88876214D02*
X156242001Y-89542880D01*
X156480096Y-88495261D02*
X156718191Y-89209547D01*
X156099144Y-89209547D01*
X155194382Y-89542880D02*
X155765810Y-89542880D01*
X155480096Y-89542880D02*
X155480096Y-88542880D01*
X155575334Y-88685738D01*
X155670572Y-88780976D01*
X155765810Y-88828595D01*
X177815826Y-89542880D02*
X177815826Y-88542880D01*
X177482493Y-89257166D01*
X177149160Y-88542880D01*
X177149160Y-89542880D01*
X176768207Y-88542880D02*
X176101541Y-89542880D01*
X176101541Y-88542880D02*
X176768207Y-89542880D01*
X175292017Y-88876214D02*
X175292017Y-89542880D01*
X175530112Y-88495261D02*
X175768207Y-89209547D01*
X175149160Y-89209547D01*
X174815826Y-88638119D02*
X174768207Y-88590500D01*
X174672969Y-88542880D01*
X174434874Y-88542880D01*
X174339636Y-88590500D01*
X174292017Y-88638119D01*
X174244398Y-88733357D01*
X174244398Y-88828595D01*
X174292017Y-88971452D01*
X174863445Y-89542880D01*
X174244398Y-89542880D01*
X196865842Y-89542880D02*
X196865842Y-88542880D01*
X196532509Y-89257166D01*
X196199176Y-88542880D01*
X196199176Y-89542880D01*
X195818223Y-88542880D02*
X195151557Y-89542880D01*
X195151557Y-88542880D02*
X195818223Y-89542880D01*
X194342033Y-88876214D02*
X194342033Y-89542880D01*
X194580128Y-88495261D02*
X194818223Y-89209547D01*
X194199176Y-89209547D01*
X193913461Y-88542880D02*
X193294414Y-88542880D01*
X193627747Y-88923833D01*
X193484890Y-88923833D01*
X193389652Y-88971452D01*
X193342033Y-89019071D01*
X193294414Y-89114309D01*
X193294414Y-89352404D01*
X193342033Y-89447642D01*
X193389652Y-89495261D01*
X193484890Y-89542880D01*
X193770604Y-89542880D01*
X193865842Y-89495261D01*
X193913461Y-89447642D01*
X215915858Y-89542880D02*
X215915858Y-88542880D01*
X215582525Y-89257166D01*
X215249192Y-88542880D01*
X215249192Y-89542880D01*
X214868239Y-88542880D02*
X214201573Y-89542880D01*
X214201573Y-88542880D02*
X214868239Y-89542880D01*
X213392049Y-88876214D02*
X213392049Y-89542880D01*
X213630144Y-88495261D02*
X213868239Y-89209547D01*
X213249192Y-89209547D01*
X212439668Y-88876214D02*
X212439668Y-89542880D01*
X212677763Y-88495261D02*
X212915858Y-89209547D01*
X212296811Y-89209547D01*
X234965874Y-89542880D02*
X234965874Y-88542880D01*
X234632541Y-89257166D01*
X234299208Y-88542880D01*
X234299208Y-89542880D01*
X233918255Y-88542880D02*
X233251589Y-89542880D01*
X233251589Y-88542880D02*
X233918255Y-89542880D01*
X232442065Y-88876214D02*
X232442065Y-89542880D01*
X232680160Y-88495261D02*
X232918255Y-89209547D01*
X232299208Y-89209547D01*
X231442065Y-88542880D02*
X231918255Y-88542880D01*
X231965874Y-89019071D01*
X231918255Y-88971452D01*
X231823017Y-88923833D01*
X231584922Y-88923833D01*
X231489684Y-88971452D01*
X231442065Y-89019071D01*
X231394446Y-89114309D01*
X231394446Y-89352404D01*
X231442065Y-89447642D01*
X231489684Y-89495261D01*
X231584922Y-89542880D01*
X231823017Y-89542880D01*
X231918255Y-89495261D01*
X231965874Y-89447642D01*
X92090754Y-108592880D02*
X92090754Y-107592880D01*
X91757421Y-108307166D01*
X91424088Y-107592880D01*
X91424088Y-108592880D01*
X91043135Y-107592880D02*
X90376469Y-108592880D01*
X90376469Y-107592880D02*
X91043135Y-108592880D01*
X89519326Y-107592880D02*
X89995516Y-107592880D01*
X90043135Y-108069071D01*
X89995516Y-108021452D01*
X89900278Y-107973833D01*
X89662183Y-107973833D01*
X89566945Y-108021452D01*
X89519326Y-108069071D01*
X89471707Y-108164309D01*
X89471707Y-108402404D01*
X89519326Y-108497642D01*
X89566945Y-108545261D01*
X89662183Y-108592880D01*
X89900278Y-108592880D01*
X89995516Y-108545261D01*
X90043135Y-108497642D01*
X89090754Y-107688119D02*
X89043135Y-107640500D01*
X88947897Y-107592880D01*
X88709802Y-107592880D01*
X88614564Y-107640500D01*
X88566945Y-107688119D01*
X88519326Y-107783357D01*
X88519326Y-107878595D01*
X88566945Y-108021452D01*
X89138373Y-108592880D01*
X88519326Y-108592880D01*
X111140770Y-108592880D02*
X111140770Y-107592880D01*
X110807437Y-108307166D01*
X110474104Y-107592880D01*
X110474104Y-108592880D01*
X110093151Y-107592880D02*
X109426485Y-108592880D01*
X109426485Y-107592880D02*
X110093151Y-108592880D01*
X108569342Y-107592880D02*
X109045532Y-107592880D01*
X109093151Y-108069071D01*
X109045532Y-108021452D01*
X108950294Y-107973833D01*
X108712199Y-107973833D01*
X108616961Y-108021452D01*
X108569342Y-108069071D01*
X108521723Y-108164309D01*
X108521723Y-108402404D01*
X108569342Y-108497642D01*
X108616961Y-108545261D01*
X108712199Y-108592880D01*
X108950294Y-108592880D01*
X109045532Y-108545261D01*
X109093151Y-108497642D01*
X108188389Y-107592880D02*
X107569342Y-107592880D01*
X107902675Y-107973833D01*
X107759818Y-107973833D01*
X107664580Y-108021452D01*
X107616961Y-108069071D01*
X107569342Y-108164309D01*
X107569342Y-108402404D01*
X107616961Y-108497642D01*
X107664580Y-108545261D01*
X107759818Y-108592880D01*
X108045532Y-108592880D01*
X108140770Y-108545261D01*
X108188389Y-108497642D01*
X206390850Y-108592880D02*
X206390850Y-107592880D01*
X206057517Y-108307166D01*
X205724184Y-107592880D01*
X205724184Y-108592880D01*
X205343231Y-107592880D02*
X204676565Y-108592880D01*
X204676565Y-107592880D02*
X205343231Y-108592880D01*
X203819422Y-107592880D02*
X204295612Y-107592880D01*
X204343231Y-108069071D01*
X204295612Y-108021452D01*
X204200374Y-107973833D01*
X203962279Y-107973833D01*
X203867041Y-108021452D01*
X203819422Y-108069071D01*
X203771803Y-108164309D01*
X203771803Y-108402404D01*
X203819422Y-108497642D01*
X203867041Y-108545261D01*
X203962279Y-108592880D01*
X204200374Y-108592880D01*
X204295612Y-108545261D01*
X204343231Y-108497642D01*
X203200374Y-108021452D02*
X203295612Y-107973833D01*
X203343231Y-107926214D01*
X203390850Y-107830976D01*
X203390850Y-107783357D01*
X203343231Y-107688119D01*
X203295612Y-107640500D01*
X203200374Y-107592880D01*
X203009898Y-107592880D01*
X202914660Y-107640500D01*
X202867041Y-107688119D01*
X202819422Y-107783357D01*
X202819422Y-107830976D01*
X202867041Y-107926214D01*
X202914660Y-107973833D01*
X203009898Y-108021452D01*
X203200374Y-108021452D01*
X203295612Y-108069071D01*
X203343231Y-108116690D01*
X203390850Y-108211928D01*
X203390850Y-108402404D01*
X203343231Y-108497642D01*
X203295612Y-108545261D01*
X203200374Y-108592880D01*
X203009898Y-108592880D01*
X202914660Y-108545261D01*
X202867041Y-108497642D01*
X202819422Y-108402404D01*
X202819422Y-108211928D01*
X202867041Y-108116690D01*
X202914660Y-108069071D01*
X203009898Y-108021452D01*
X225440866Y-108592880D02*
X225440866Y-107592880D01*
X225107533Y-108307166D01*
X224774200Y-107592880D01*
X224774200Y-108592880D01*
X224393247Y-107592880D02*
X223726581Y-108592880D01*
X223726581Y-107592880D02*
X224393247Y-108592880D01*
X222869438Y-107592880D02*
X223345628Y-107592880D01*
X223393247Y-108069071D01*
X223345628Y-108021452D01*
X223250390Y-107973833D01*
X223012295Y-107973833D01*
X222917057Y-108021452D01*
X222869438Y-108069071D01*
X222821819Y-108164309D01*
X222821819Y-108402404D01*
X222869438Y-108497642D01*
X222917057Y-108545261D01*
X223012295Y-108592880D01*
X223250390Y-108592880D01*
X223345628Y-108545261D01*
X223393247Y-108497642D01*
X222345628Y-108592880D02*
X222155152Y-108592880D01*
X222059914Y-108545261D01*
X222012295Y-108497642D01*
X221917057Y-108354785D01*
X221869438Y-108164309D01*
X221869438Y-107783357D01*
X221917057Y-107688119D01*
X221964676Y-107640500D01*
X222059914Y-107592880D01*
X222250390Y-107592880D01*
X222345628Y-107640500D01*
X222393247Y-107688119D01*
X222440866Y-107783357D01*
X222440866Y-108021452D01*
X222393247Y-108116690D01*
X222345628Y-108164309D01*
X222250390Y-108211928D01*
X222059914Y-108211928D01*
X221964676Y-108164309D01*
X221917057Y-108116690D01*
X221869438Y-108021452D01*
X277828410Y-108592880D02*
X277828410Y-107592880D01*
X277495077Y-108307166D01*
X277161744Y-107592880D01*
X277161744Y-108592880D01*
X276780791Y-107592880D02*
X276114125Y-108592880D01*
X276114125Y-107592880D02*
X276780791Y-108592880D01*
X275304601Y-107592880D02*
X275495077Y-107592880D01*
X275590315Y-107640500D01*
X275637934Y-107688119D01*
X275733172Y-107830976D01*
X275780791Y-108021452D01*
X275780791Y-108402404D01*
X275733172Y-108497642D01*
X275685553Y-108545261D01*
X275590315Y-108592880D01*
X275399839Y-108592880D01*
X275304601Y-108545261D01*
X275256982Y-108497642D01*
X275209363Y-108402404D01*
X275209363Y-108164309D01*
X275256982Y-108069071D01*
X275304601Y-108021452D01*
X275399839Y-107973833D01*
X275590315Y-107973833D01*
X275685553Y-108021452D01*
X275733172Y-108069071D01*
X275780791Y-108164309D01*
X274256982Y-108592880D02*
X274828410Y-108592880D01*
X274542696Y-108592880D02*
X274542696Y-107592880D01*
X274637934Y-107735738D01*
X274733172Y-107830976D01*
X274828410Y-107878595D01*
X13509574Y-127643440D02*
X13509574Y-126643440D01*
X13176241Y-127357726D01*
X12842908Y-126643440D01*
X12842908Y-127643440D01*
X12461955Y-126643440D02*
X11795289Y-127643440D01*
X11795289Y-126643440D02*
X12461955Y-127643440D01*
X10985765Y-126643440D02*
X11176241Y-126643440D01*
X11271479Y-126691060D01*
X11319098Y-126738679D01*
X11414336Y-126881536D01*
X11461955Y-127072012D01*
X11461955Y-127452964D01*
X11414336Y-127548202D01*
X11366717Y-127595821D01*
X11271479Y-127643440D01*
X11081003Y-127643440D01*
X10985765Y-127595821D01*
X10938146Y-127548202D01*
X10890527Y-127452964D01*
X10890527Y-127214869D01*
X10938146Y-127119631D01*
X10985765Y-127072012D01*
X11081003Y-127024393D01*
X11271479Y-127024393D01*
X11366717Y-127072012D01*
X11414336Y-127119631D01*
X11461955Y-127214869D01*
X9985765Y-126643440D02*
X10461955Y-126643440D01*
X10509574Y-127119631D01*
X10461955Y-127072012D01*
X10366717Y-127024393D01*
X10128622Y-127024393D01*
X10033384Y-127072012D01*
X9985765Y-127119631D01*
X9938146Y-127214869D01*
X9938146Y-127452964D01*
X9985765Y-127548202D01*
X10033384Y-127595821D01*
X10128622Y-127643440D01*
X10366717Y-127643440D01*
X10461955Y-127595821D01*
X10509574Y-127548202D01*
X37322174Y-127642948D02*
X37322174Y-126642948D01*
X36988841Y-127357234D01*
X36655508Y-126642948D01*
X36655508Y-127642948D01*
X36274555Y-126642948D02*
X35607889Y-127642948D01*
X35607889Y-126642948D02*
X36274555Y-127642948D01*
X34798365Y-126642948D02*
X34988841Y-126642948D01*
X35084079Y-126690568D01*
X35131698Y-126738187D01*
X35226936Y-126881044D01*
X35274555Y-127071520D01*
X35274555Y-127452472D01*
X35226936Y-127547710D01*
X35179317Y-127595329D01*
X35084079Y-127642948D01*
X34893603Y-127642948D01*
X34798365Y-127595329D01*
X34750746Y-127547710D01*
X34703127Y-127452472D01*
X34703127Y-127214377D01*
X34750746Y-127119139D01*
X34798365Y-127071520D01*
X34893603Y-127023901D01*
X35084079Y-127023901D01*
X35179317Y-127071520D01*
X35226936Y-127119139D01*
X35274555Y-127214377D01*
X33845984Y-126642948D02*
X34036460Y-126642948D01*
X34131698Y-126690568D01*
X34179317Y-126738187D01*
X34274555Y-126881044D01*
X34322174Y-127071520D01*
X34322174Y-127452472D01*
X34274555Y-127547710D01*
X34226936Y-127595329D01*
X34131698Y-127642948D01*
X33941222Y-127642948D01*
X33845984Y-127595329D01*
X33798365Y-127547710D01*
X33750746Y-127452472D01*
X33750746Y-127214377D01*
X33798365Y-127119139D01*
X33845984Y-127071520D01*
X33941222Y-127023901D01*
X34131698Y-127023901D01*
X34226936Y-127071520D01*
X34274555Y-127119139D01*
X34322174Y-127214377D01*
X61134774Y-127643440D02*
X61134774Y-126643440D01*
X60801441Y-127357726D01*
X60468108Y-126643440D01*
X60468108Y-127643440D01*
X60087155Y-126643440D02*
X59420489Y-127643440D01*
X59420489Y-126643440D02*
X60087155Y-127643440D01*
X58610965Y-126643440D02*
X58801441Y-126643440D01*
X58896679Y-126691060D01*
X58944298Y-126738679D01*
X59039536Y-126881536D01*
X59087155Y-127072012D01*
X59087155Y-127452964D01*
X59039536Y-127548202D01*
X58991917Y-127595821D01*
X58896679Y-127643440D01*
X58706203Y-127643440D01*
X58610965Y-127595821D01*
X58563346Y-127548202D01*
X58515727Y-127452964D01*
X58515727Y-127214869D01*
X58563346Y-127119631D01*
X58610965Y-127072012D01*
X58706203Y-127024393D01*
X58896679Y-127024393D01*
X58991917Y-127072012D01*
X59039536Y-127119631D01*
X59087155Y-127214869D01*
X58182393Y-126643440D02*
X57515727Y-126643440D01*
X57944298Y-127643440D01*
X258779354Y-121547440D02*
X258779354Y-120547440D01*
X258446021Y-121261726D01*
X258112688Y-120547440D01*
X258112688Y-121547440D01*
X257731735Y-120547440D02*
X257065069Y-121547440D01*
X257065069Y-120547440D02*
X257731735Y-121547440D01*
X256779354Y-120547440D02*
X256112688Y-120547440D01*
X256541259Y-121547440D01*
X255303164Y-120547440D02*
X255493640Y-120547440D01*
X255588878Y-120595060D01*
X255636497Y-120642679D01*
X255731735Y-120785536D01*
X255779354Y-120976012D01*
X255779354Y-121356964D01*
X255731735Y-121452202D01*
X255684116Y-121499821D01*
X255588878Y-121547440D01*
X255398402Y-121547440D01*
X255303164Y-121499821D01*
X255255545Y-121452202D01*
X255207926Y-121356964D01*
X255207926Y-121118869D01*
X255255545Y-121023631D01*
X255303164Y-120976012D01*
X255398402Y-120928393D01*
X255588878Y-120928393D01*
X255684116Y-120976012D01*
X255731735Y-121023631D01*
X255779354Y-121118869D01*
X277829434Y-121547440D02*
X277829434Y-120547440D01*
X277496101Y-121261726D01*
X277162768Y-120547440D01*
X277162768Y-121547440D01*
X276781815Y-120547440D02*
X276115149Y-121547440D01*
X276115149Y-120547440D02*
X276781815Y-121547440D01*
X275829434Y-120547440D02*
X275162768Y-120547440D01*
X275591339Y-121547440D01*
X274877053Y-120547440D02*
X274210387Y-120547440D01*
X274638958Y-121547440D01*
X17724315Y-94494988D02*
X17724315Y-93494988D01*
X17486220Y-93494988D01*
X17343363Y-93542608D01*
X17248125Y-93637846D01*
X17200506Y-93733084D01*
X17152887Y-93923560D01*
X17152887Y-94066417D01*
X17200506Y-94256893D01*
X17248125Y-94352131D01*
X17343363Y-94447369D01*
X17486220Y-94494988D01*
X17724315Y-94494988D01*
X16295744Y-93828322D02*
X16295744Y-94494988D01*
X16533839Y-93447369D02*
X16771934Y-94161655D01*
X16152887Y-94161655D01*
X15343363Y-93828322D02*
X15343363Y-94494988D01*
X15581458Y-93447369D02*
X15819553Y-94161655D01*
X15200506Y-94161655D01*
X23034446Y-108592880D02*
X23034446Y-107592880D01*
X22701113Y-108307166D01*
X22367780Y-107592880D01*
X22367780Y-108592880D01*
X21986827Y-107592880D02*
X21320161Y-108592880D01*
X21320161Y-107592880D02*
X21986827Y-108592880D01*
X20510637Y-107926214D02*
X20510637Y-108592880D01*
X20748732Y-107545261D02*
X20986827Y-108259547D01*
X20367780Y-108259547D01*
X20082065Y-107592880D02*
X19415399Y-107592880D01*
X19843970Y-108592880D01*
X21335654Y-71072780D02*
X21335654Y-71882304D01*
X21288035Y-71977542D01*
X21240416Y-72025161D01*
X21145178Y-72072780D01*
X20954702Y-72072780D01*
X20859464Y-72025161D01*
X20811845Y-71977542D01*
X20764226Y-71882304D01*
X20764226Y-71072780D01*
X19859464Y-71406114D02*
X19859464Y-72072780D01*
X20097559Y-71025161D02*
X20335654Y-71739447D01*
X19716607Y-71739447D01*
X31559654Y-95077800D02*
X31559654Y-95887324D01*
X31512035Y-95982562D01*
X31464416Y-96030181D01*
X31369178Y-96077800D01*
X31178702Y-96077800D01*
X31083464Y-96030181D01*
X31035845Y-95982562D01*
X30988226Y-95887324D01*
X30988226Y-95077800D01*
X30559654Y-95173039D02*
X30512035Y-95125420D01*
X30416797Y-95077800D01*
X30178702Y-95077800D01*
X30083464Y-95125420D01*
X30035845Y-95173039D01*
X29988226Y-95268277D01*
X29988226Y-95363515D01*
X30035845Y-95506372D01*
X30607273Y-96077800D01*
X29988226Y-96077800D01*
M02*
