G04 #@! TF.GenerationSoftware,KiCad,Pcbnew,(5.1.11)-1*
G04 #@! TF.CreationDate,2022-07-27T22:19:53+07:00*
G04 #@! TF.ProjectId,krush60hs - Copy,6b727573-6836-4306-9873-202d20436f70,rev?*
G04 #@! TF.SameCoordinates,Original*
G04 #@! TF.FileFunction,Profile,NP*
%FSLAX46Y46*%
G04 Gerber Fmt 4.6, Leading zero omitted, Abs format (unit mm)*
G04 Created by KiCad (PCBNEW (5.1.11)-1) date 2022-07-27 22:19:53*
%MOMM*%
%LPD*%
G01*
G04 APERTURE LIST*
G04 #@! TA.AperFunction,Profile*
%ADD10C,0.200000*%
G04 #@! TD*
G04 #@! TA.AperFunction,Profile*
%ADD11C,0.400000*%
G04 #@! TD*
G04 #@! TA.AperFunction,Profile*
%ADD12C,0.150000*%
G04 #@! TD*
G04 APERTURE END LIST*
D10*
X229080641Y-133142496D02*
X190238851Y-133142497D01*
X16638851Y-133142497D02*
X48105641Y-133142496D01*
X16638851Y-133142497D02*
G75*
G02*
X15308817Y-132336044I1J1500001D01*
G01*
X49435675Y-132336044D02*
G75*
G02*
X48105641Y-133142496I-1330034J693548D01*
G01*
X103438851Y-133142497D02*
G75*
G02*
X102108817Y-132336044I1J1500001D01*
G01*
X56351851Y-133142497D02*
G75*
G02*
X55021817Y-132336044I1J1500001D01*
G01*
X96522675Y-132336044D02*
G75*
G02*
X95192641Y-133142496I-1330034J693548D01*
G01*
X9722675Y-132336044D02*
G75*
G02*
X8392641Y-133142496I-1330034J693548D01*
G01*
X103438851Y-133142497D02*
X181992641Y-133142496D01*
X237326851Y-133142495D02*
X268793641Y-133142496D01*
X190238851Y-133142497D02*
G75*
G02*
X188908817Y-132336044I1J1500001D01*
G01*
X237326851Y-133142497D02*
G75*
G02*
X235996817Y-132336044I1J1500001D01*
G01*
X230410675Y-132336044D02*
G75*
G02*
X229080641Y-133142496I-1330034J693548D01*
G01*
X56351851Y-133142497D02*
X95192641Y-133142496D01*
X2616246Y-133142496D02*
X8392641Y-133142496D01*
X183322675Y-132336044D02*
G75*
G02*
X181992641Y-133142496I-1330034J693548D01*
G01*
X270123675Y-132336044D02*
G75*
G02*
X268793641Y-133142496I-1330034J693548D01*
G01*
X277039851Y-133142495D02*
X282816246Y-133142496D01*
X277039851Y-133142497D02*
G75*
G02*
X275709817Y-132336044I1J1500001D01*
G01*
X243368140Y-38942495D02*
X190239928Y-38942496D01*
X259016362Y-65392532D02*
X261516362Y-65392532D01*
X131221817Y-39748947D02*
G75*
G02*
X132551928Y-38942496I1330034J-693549D01*
G01*
X124305640Y-38942495D02*
X103438928Y-38942496D01*
X181993716Y-38942495D02*
X132551928Y-38942496D01*
X275709494Y-39748948D02*
G75*
G02*
X277039528Y-38942496I1330034J-693548D01*
G01*
X243368140Y-38942495D02*
G75*
G02*
X244698175Y-39748946I1J-1500001D01*
G01*
X259016362Y-67892532D02*
G75*
G02*
X259016362Y-65392532I0J1250000D01*
G01*
X250284318Y-39748948D02*
G75*
G02*
X251614352Y-38942496I1330034J-693548D01*
G01*
X282316362Y-93992532D02*
X285066362Y-93992532D01*
X270123676Y-132336043D02*
G75*
G02*
X275709817Y-132336044I2793070J-1456452D01*
G01*
X131221816Y-39748948D02*
G75*
G02*
X125635675Y-39748946I-2793070J1456452D01*
G01*
X250284316Y-39748948D02*
G75*
G02*
X244698175Y-39748946I-2793070J1456452D01*
G01*
X285066246Y-130892496D02*
G75*
G02*
X282816246Y-133142496I-2250000J0D01*
G01*
X285066246Y-96492532D02*
X282316362Y-96492532D01*
X268793316Y-38942495D02*
G75*
G02*
X270123351Y-39748946I1J-1500001D01*
G01*
X282316362Y-96492532D02*
G75*
G02*
X282316362Y-93992532I0J1250000D01*
G01*
X282816246Y-38942496D02*
G75*
G02*
X285066246Y-41192496I0J-2250000D01*
G01*
X102108894Y-39748948D02*
G75*
G02*
X103438928Y-38942496I1330034J-693548D01*
G01*
X261516362Y-67892532D02*
X259016362Y-67892532D01*
X95192716Y-38942495D02*
G75*
G02*
X96522751Y-39748946I1J-1500001D01*
G01*
X275709492Y-39748948D02*
G75*
G02*
X270123351Y-39748946I-2793070J1456452D01*
G01*
X261516362Y-65392532D02*
G75*
G02*
X261516362Y-67892532I0J-1250000D01*
G01*
X285066246Y-130892496D02*
X285066246Y-96492532D01*
X102108892Y-39748948D02*
G75*
G02*
X96522751Y-39748946I-2793070J1456452D01*
G01*
X124305640Y-38942495D02*
G75*
G02*
X125635675Y-39748946I1J-1500001D01*
G01*
X285066362Y-93992532D02*
X285066246Y-41192496D01*
X282816246Y-38942496D02*
X277039528Y-38942496D01*
X268793316Y-38942495D02*
X251614352Y-38942496D01*
X24166362Y-67892532D02*
G75*
G02*
X24166362Y-65392532I0J1250000D01*
G01*
X191966362Y-122692532D02*
G75*
G02*
X191966362Y-125192532I0J-1250000D01*
G01*
X40734316Y-39748948D02*
G75*
G02*
X35148175Y-39748946I-2793070J1456452D01*
G01*
X366245Y-41192496D02*
X366246Y-93992532D01*
X26666362Y-67892532D02*
X24166362Y-67892532D01*
X95192716Y-38942495D02*
X42064352Y-38942496D01*
X2616246Y-133142497D02*
G75*
G02*
X366245Y-130892496I0J2250001D01*
G01*
X49435676Y-132336043D02*
G75*
G02*
X55021817Y-132336044I2793070J-1456452D01*
G01*
X6393140Y-38942495D02*
G75*
G02*
X7723175Y-39748946I1J-1500001D01*
G01*
X6393140Y-38942495D02*
X2616246Y-38942496D01*
X183322676Y-132336043D02*
G75*
G02*
X188908817Y-132336044I2793070J-1456452D01*
G01*
X14639352Y-38942496D02*
X33818140Y-38942495D01*
X26666362Y-65392532D02*
G75*
G02*
X26666362Y-67892532I0J-1250000D01*
G01*
X129916362Y-85742532D02*
G75*
G03*
X129916362Y-85742532I-1500000J0D01*
G01*
X189466362Y-125192532D02*
X191966362Y-125192532D01*
X33818140Y-38942495D02*
G75*
G02*
X35148175Y-39748946I1J-1500001D01*
G01*
X13309316Y-39748948D02*
G75*
G02*
X7723175Y-39748946I-2793070J1456452D01*
G01*
X3116362Y-96492532D02*
X366362Y-96492532D01*
X96522676Y-132336043D02*
G75*
G02*
X102108817Y-132336044I2793070J-1456452D01*
G01*
X13309318Y-39748948D02*
G75*
G02*
X14639352Y-38942496I1330034J-693548D01*
G01*
X366362Y-96492532D02*
X366246Y-130892496D01*
X24166362Y-65392532D02*
X26666362Y-65392532D01*
X191966362Y-122692532D02*
X189466362Y-122692532D01*
X189466362Y-125192532D02*
G75*
G02*
X189466362Y-122692532I0J1250000D01*
G01*
X366246Y-41192496D02*
G75*
G02*
X2616246Y-38942496I2250000J0D01*
G01*
X3116362Y-93992532D02*
G75*
G02*
X3116362Y-96492532I0J-1250000D01*
G01*
X366246Y-93992532D02*
X3116362Y-93992532D01*
X9722676Y-132336043D02*
G75*
G02*
X15308817Y-132336044I2793070J-1456452D01*
G01*
X40734318Y-39748948D02*
G75*
G02*
X42064352Y-38942496I1330034J-693548D01*
G01*
X188909894Y-39748948D02*
G75*
G02*
X190239928Y-38942496I1330034J-693548D01*
G01*
X181993716Y-38942495D02*
G75*
G02*
X183323751Y-39748946I1J-1500001D01*
G01*
X230410676Y-132336043D02*
G75*
G02*
X235996817Y-132336044I2793070J-1456452D01*
G01*
X188909892Y-39748948D02*
G75*
G02*
X183323751Y-39748946I-2793070J1456452D01*
G01*
D11*
X228441874Y-93967596D02*
X42704210Y-93967608D01*
X42704210Y-95167608D02*
G75*
G02*
X42704210Y-93967608I0J600000D01*
G01*
X228441874Y-93967596D02*
G75*
G02*
X228441874Y-95167596I0J-600000D01*
G01*
X228441874Y-95167596D02*
X42704210Y-95167608D01*
X237966494Y-74917512D02*
G75*
G02*
X237966494Y-76117512I0J-600000D01*
G01*
X237966494Y-74917512D02*
X28416330Y-74917524D01*
X237966494Y-76117512D02*
X28416330Y-76117524D01*
X28416330Y-76117524D02*
G75*
G02*
X28416330Y-74917524I0J600000D01*
G01*
D12*
X14610030Y-89422608D02*
X18410030Y-89422608D01*
X14610030Y-89422608D02*
X14610030Y-92822608D01*
X14610030Y-92822608D02*
X18410030Y-92822608D01*
X18410030Y-89422608D02*
X18410030Y-92822608D01*
M02*
