0
SECTION
2
HEADER
9
$INSUNITS
70
4
9
$ACADVER
1
AC1014
9
$HANDSEED
5
FFFF
0
ENDSEC
0
SECTION
2
TABLES
0
TABLE
2
VPORT
5
8
100
AcDbSymbolTable
0
ENDTAB
0
TABLE
2
LTYPE
5
5
100
AcDbSymbolTable
0
LTYPE
5
14
100
AcDbSymbolTableRecord
100
AcDbLinetypeTableRecord
2
BYBLOCK
70
0
0
LTYPE
5
15
100
AcDbSymbolTableRecord
100
AcDbLinetypeTableRecord
2
BYLAYER
70
0
0
ENDTAB
0
TABLE
2
LAYER
5
2
100
AcDbSymbolTable
70
2
0
LAYER
5
50
100
AcDbSymbolTableRecord
100
AcDbLayerTableRecord
2
0
70
0
6
CONTINUOUS
0
ENDTAB
0
TABLE
2
STYLE
5
3
100
AcDbSymbolTable
70
1
0
STYLE
5
11
100
AcDbSymbolTableRecord
100
AcDbTextStyleTableRecord
2
STANDARD
70
0
0
ENDTAB
0
TABLE
2
VIEW
5
6
100
AcDbSymbolTable
70
0
0
ENDTAB
0
TABLE
2
UCS
5
7
100
AcDbSymbolTable
70
0
0
ENDTAB
0
TABLE
2
APPID
5
9
100
AcDbSymbolTable
70
2
0
APPID
5
12
100
AcDbSymbolTableRecord
100
AcDbRegAppTableRecord
2
ACAD
70
0
0
ENDTAB
0
TABLE
2
DIMSTYLE
5
A
100
AcDbSymbolTable
70
1
0
ENDTAB
0
TABLE
2
BLOCK_RECORD
5
1
100
AcDbSymbolTable
70
1
0
BLOCK_RECORD
5
1F
100
AcDbSymbolTableRecord
100
AcDbBlockTableRecord
2
*MODEL_SPACE
0
BLOCK_RECORD
5
1B
100
AcDbSymbolTableRecord
100
AcDbBlockTableRecord
2
*PAPER_SPACE
0
ENDTAB
0
ENDSEC
0
SECTION
2
BLOCKS
0
BLOCK
5
20
100
AcDbEntity
100
AcDbBlockBegin
2
*MODEL_SPACE
0
ENDBLK
5
21
100
AcDbEntity
100
AcDbBlockEnd
0
BLOCK
5
1C
100
AcDbEntity
100
AcDbBlockBegin
2
*PAPER_SPACE
0
ENDBLK
5
1D
100
AcDbEntity
100
AcDbBlockEnd
0
ENDSEC
0
SECTION
2
ENTITIES
0
LINE
5
100
100
AcDbEntity
8
0
100
AcDbLine
10
16.987024302148122
20
6.8651577356371707
30
0
11
16.207284302148111
21
6.8651577356371707
31
0
0
LWPOLYLINE
5
101
100
AcDbEntity
8
0
100
AcDbPolyline
90
4
70
1
43
0.0
10
15.927288302148135
20
11.638069735637169
10
15.927288302148135
20
12.738069735637168
42
-0.99999999999999989
10
16.527288302148158
20
12.738069735637168
10
16.527288302148158
20
11.638069735637169
42
-0.99999999999999989
0
LINE
5
102
100
AcDbEntity
8
0
100
AcDbLine
10
16.227024517338151
20
17.351166737053152
30
0
11
7.5870243021481443
21
17.351167735637169
31
0
0
ARC
5
103
100
AcDbEntity
8
0
100
AcDbCircle
10
16.487024302148114
20
8.3651577356371689
30
0
40
0.49999999999999933
210
0
220
0
230
1
100
AcDbArc
50
-90
51
0
0
ARC
5
104
100
AcDbEntity
8
0
100
AcDbCircle
10
16.207284302148111
20
7.3651577356371707
30
0
40
0.50000000000000044
210
0
220
-0
230
1
100
AcDbArc
50
90
51
270
0
CIRCLE
5
105
100
AcDbEntity
8
0
100
AcDbCircle
10
14.797288302148139
20
12.718069735637169
30
0
40
0.34999999999999998
210
0
220
0
230
1
0
LINE
5
106
100
AcDbEntity
8
0
100
AcDbLine
10
16.987024302148122
20
8.3651577356371689
30
0
11
16.987024302148122
21
16.591167735637168
31
0
0
LINE
5
107
100
AcDbEntity
8
0
100
AcDbLine
10
7.3270253021481579
20
7.8651577356371707
30
0
11
7.6072933021481148
21
7.8651577356371707
31
0
0
CIRCLE
5
108
100
AcDbEntity
8
0
100
AcDbCircle
10
9.0172883021481809
20
12.718069735637169
30
0
40
0.34999999999999998
210
0
220
0
230
1
0
ARC
5
109
100
AcDbEntity
8
0
100
AcDbCircle
10
7.6072933021481148
20
7.3651577356371707
30
0
40
0.49999999999999933
210
0
220
0
230
1
100
AcDbArc
50
-90
51
90
0
LWPOLYLINE
5
110
100
AcDbEntity
8
0
100
AcDbPolyline
90
4
70
1
43
0.0
10
7.2872883021481627
20
11.638069735637169
10
7.2872883021482338
20
12.738069735637168
42
-0.99999999999999989
10
7.8872883021481144
20
12.738069735637168
10
7.8872883021481854
20
11.638069735637169
42
-0.99999999999999989
0
ARC
5
111
100
AcDbEntity
8
0
100
AcDbCircle
10
7.3270253021481579
20
8.3651577356371689
30
0
40
0.50000000000000711
210
0
220
0
230
1
100
AcDbArc
50
180
51
270
0
LINE
5
112
100
AcDbEntity
8
0
100
AcDbLine
10
7.6072933021481148
20
6.8651577356371716
30
0
11
6.8270253021481508
21
6.8651577356371707
31
0
0
LINE
5
113
100
AcDbEntity
8
0
100
AcDbLine
10
6.8270243007390263
20
16.591166954443167
30
0
11
6.8270253021481508
21
8.3651577356371689
31
0
0
LWPOLYLINE
5
114
100
AcDbEntity
8
0
100
AcDbPolyline
90
4
70
1
43
0.0
10
7.3072883021481161
20
16.068069735637167
42
0.99999999999999989
10
7.9072883021481388
20
16.068069735637167
10
7.9072883021481388
20
16.668069735637165
42
0.99999999999999989
10
7.3072883021481161
20
16.668069735637165
0
LWPOLYLINE
5
115
100
AcDbEntity
8
0
100
AcDbPolyline
90
4
70
1
43
0.0
10
15.907288302148146
20
16.068069735637167
42
0.99999999999999989
10
16.507288302148133
20
16.068069735637167
10
16.507288302148133
20
16.668069735637165
42
0.99999999999999989
10
15.907288302148146
20
16.668069735637165
0
ARC
5
116
100
AcDbEntity
8
0
100
AcDbCircle
10
16.22565130214813
20
16.589793735637169
30
0
40
0.7613742397828992
210
0
220
-0
230
1
100
AcDbArc
50
0.10339782943266106
51
89.896661230052885
0
ARC
5
117
100
AcDbEntity
8
0
100
AcDbCircle
10
7.5883983021481427
20
16.589793735637169
30
0
40
0.76137523978127797
210
0
220
0
230
1
100
AcDbArc
50
90.10339769363091
51
179.89666109366681
0
LINE
5
118
100
AcDbEntity
8
0
100
AcDbLine
10
16.207284302148111
20
7.8651577356371716
30
0
11
16.487024302148114
21
7.8651577356371707
31
0
0
CIRCLE
5
119
100
AcDbEntity
8
0
100
AcDbCircle
10
0.0037933021481251217
20
2.3651677356371739
30
0
40
1.9939
210
0
220
0
230
1
0
ENDSEC
0
SECTION
2
OBJECTS
0
DICTIONARY
5
C
100
AcDbDictionary
3
ACAD_GROUP
350
D
3
ACAD_MLINESTYLE
350
17
0
DICTIONARY
5
D
100
AcDbDictionary
0
DICTIONARY
5
1A
330
C
100
AcDbDictionary
0
DICTIONARY
5
17
100
AcDbDictionary
0
ENDSEC
0
EOF
