%TF.GenerationSoftware,KiCad,Pcbnew,(5.1.10)-1*%
%TF.CreationDate,2022-05-31T16:30:17+07:00*%
%TF.ProjectId,Leopold Replacement,4c656f70-6f6c-4642-9052-65706c616365,rev?*%
%TF.SameCoordinates,Original*%
%TF.FileFunction,Legend,Top*%
%TF.FilePolarity,Positive*%
%FSLAX46Y46*%
G04 Gerber Fmt 4.6, Leading zero omitted, Abs format (unit mm)*
G04 Created by KiCad (PCBNEW (5.1.10)-1) date 2022-05-31 16:30:17*
%MOMM*%
%LPD*%
G01*
G04 APERTURE LIST*
%ADD10C,0.381000*%
%ADD11C,0.120000*%
%ADD12C,0.150000*%
G04 APERTURE END LIST*
D10*
%TO.C,MX96*%
X230818250Y-92895000D02*
X229040250Y-92895000D01*
X219896250Y-92895000D02*
X218118250Y-92895000D01*
X218118250Y-92895000D02*
X218118250Y-91117000D01*
X218118250Y-81973000D02*
X218118250Y-80195000D01*
X218118250Y-80195000D02*
X219896250Y-80195000D01*
X229040250Y-80195000D02*
X230818250Y-80195000D01*
X230818250Y-80195000D02*
X230818250Y-81973000D01*
X230818250Y-91117000D02*
X230818250Y-92895000D01*
%TO.C,MX52*%
X248909000Y-61185000D02*
X250687000Y-61185000D01*
X259831000Y-61185000D02*
X261609000Y-61185000D01*
X261609000Y-61185000D02*
X261609000Y-62963000D01*
X261609000Y-72107000D02*
X261609000Y-73885000D01*
X261609000Y-73885000D02*
X259831000Y-73885000D01*
X250687000Y-73885000D02*
X248909000Y-73885000D01*
X248909000Y-73885000D02*
X248909000Y-72107000D01*
X248909000Y-62963000D02*
X248909000Y-61185000D01*
%TO.C,MX35*%
X170492500Y-42175000D02*
X172270500Y-42175000D01*
X181414500Y-42175000D02*
X183192500Y-42175000D01*
X183192500Y-42175000D02*
X183192500Y-43953000D01*
X183192500Y-53097000D02*
X183192500Y-54875000D01*
X183192500Y-54875000D02*
X181414500Y-54875000D01*
X172270500Y-54875000D02*
X170492500Y-54875000D01*
X170492500Y-54875000D02*
X170492500Y-53097000D01*
X170492500Y-43953000D02*
X170492500Y-42175000D01*
%TO.C,MX29*%
X137225000Y-5933000D02*
X137225000Y-4155000D01*
X137225000Y-16855000D02*
X137225000Y-15077000D01*
X139003000Y-16855000D02*
X137225000Y-16855000D01*
X149925000Y-16855000D02*
X148147000Y-16855000D01*
X149925000Y-15077000D02*
X149925000Y-16855000D01*
X149925000Y-4155000D02*
X149925000Y-5933000D01*
X148147000Y-4155000D02*
X149925000Y-4155000D01*
X137225000Y-4155000D02*
X139003000Y-4155000D01*
%TO.C,MX51*%
X258414000Y-43953000D02*
X258414000Y-42175000D01*
X258414000Y-54875000D02*
X258414000Y-53097000D01*
X260192000Y-54875000D02*
X258414000Y-54875000D01*
X271114000Y-54875000D02*
X269336000Y-54875000D01*
X271114000Y-53097000D02*
X271114000Y-54875000D01*
X271114000Y-42175000D02*
X271114000Y-43953000D01*
X269336000Y-42175000D02*
X271114000Y-42175000D01*
X258414000Y-42175000D02*
X260192000Y-42175000D01*
D11*
%TO.C,SW3*%
X308460000Y-29515000D02*
G75*
G03*
X308460000Y-29515000I-3000000J0D01*
G01*
X299560000Y-27515000D02*
X299560000Y-23415000D01*
X311360000Y-23415000D02*
X311360000Y-27515000D01*
X311360000Y-31515000D02*
X311360000Y-35615000D01*
X299560000Y-31515000D02*
X299560000Y-35615000D01*
X299560000Y-35615000D02*
X311360000Y-35615000D01*
X301660000Y-37015000D02*
X301360000Y-37315000D01*
X301360000Y-37315000D02*
X301360000Y-36715000D01*
X301360000Y-36715000D02*
X301660000Y-37015000D01*
X299560000Y-23415000D02*
X301960000Y-23415000D01*
X304160000Y-23415000D02*
X306760000Y-23415000D01*
X308960000Y-23415000D02*
X311360000Y-23415000D01*
X304960000Y-29515000D02*
X305960000Y-29515000D01*
X305460000Y-30015000D02*
X305460000Y-29015000D01*
%TO.C,SW2*%
X305460000Y-11005000D02*
X305460000Y-10005000D01*
X304960000Y-10505000D02*
X305960000Y-10505000D01*
X308960000Y-4405000D02*
X311360000Y-4405000D01*
X304160000Y-4405000D02*
X306760000Y-4405000D01*
X299560000Y-4405000D02*
X301960000Y-4405000D01*
X301360000Y-17705000D02*
X301660000Y-18005000D01*
X301360000Y-18305000D02*
X301360000Y-17705000D01*
X301660000Y-18005000D02*
X301360000Y-18305000D01*
X299560000Y-16605000D02*
X311360000Y-16605000D01*
X299560000Y-12505000D02*
X299560000Y-16605000D01*
X311360000Y-12505000D02*
X311360000Y-16605000D01*
X311360000Y-4405000D02*
X311360000Y-8505000D01*
X299560000Y-8505000D02*
X299560000Y-4405000D01*
X308460000Y-10505000D02*
G75*
G03*
X308460000Y-10505000I-3000000J0D01*
G01*
D10*
%TO.C,MX93*%
X69132500Y-92895000D02*
X67354500Y-92895000D01*
X58210500Y-92895000D02*
X56432500Y-92895000D01*
X56432500Y-92895000D02*
X56432500Y-91117000D01*
X56432500Y-81973000D02*
X56432500Y-80195000D01*
X56432500Y-80195000D02*
X58210500Y-80195000D01*
X67354500Y-80195000D02*
X69132500Y-80195000D01*
X69132500Y-80195000D02*
X69132500Y-81973000D01*
X69132500Y-91117000D02*
X69132500Y-92895000D01*
%TO.C,MX91*%
X45370000Y-91117000D02*
X45370000Y-92895000D01*
X45370000Y-80195000D02*
X45370000Y-81973000D01*
X43592000Y-80195000D02*
X45370000Y-80195000D01*
X32670000Y-80195000D02*
X34448000Y-80195000D01*
X32670000Y-81973000D02*
X32670000Y-80195000D01*
X32670000Y-92895000D02*
X32670000Y-91117000D01*
X34448000Y-92895000D02*
X32670000Y-92895000D01*
X45370000Y-92895000D02*
X43592000Y-92895000D01*
%TO.C,MX89*%
X237027500Y-62963000D02*
X237027500Y-61185000D01*
X237027500Y-73885000D02*
X237027500Y-72107000D01*
X238805500Y-73885000D02*
X237027500Y-73885000D01*
X249727500Y-73885000D02*
X247949500Y-73885000D01*
X249727500Y-72107000D02*
X249727500Y-73885000D01*
X249727500Y-61185000D02*
X249727500Y-62963000D01*
X247949500Y-61185000D02*
X249727500Y-61185000D01*
X237027500Y-61185000D02*
X238805500Y-61185000D01*
%TO.C,MX64*%
X280619000Y-32670000D02*
X280619000Y-34448000D01*
X280619000Y-43592000D02*
X280619000Y-45370000D01*
X280619000Y-45370000D02*
X278841000Y-45370000D01*
X269697000Y-45370000D02*
X267919000Y-45370000D01*
X267919000Y-45370000D02*
X267919000Y-43592000D01*
X267919000Y-34448000D02*
X267919000Y-32670000D01*
X267919000Y-32670000D02*
X269697000Y-32670000D01*
X278841000Y-32670000D02*
X280619000Y-32670000D01*
%TO.C,MX65*%
X246532000Y-43953000D02*
X246532000Y-42175000D01*
X246532000Y-54875000D02*
X246532000Y-53097000D01*
X248310000Y-54875000D02*
X246532000Y-54875000D01*
X259232000Y-54875000D02*
X257454000Y-54875000D01*
X259232000Y-53097000D02*
X259232000Y-54875000D01*
X259232000Y-42175000D02*
X259232000Y-43953000D01*
X257454000Y-42175000D02*
X259232000Y-42175000D01*
X246532000Y-42175000D02*
X248310000Y-42175000D01*
%TO.C,MX87*%
X6203700Y-42175000D02*
X7981700Y-42175000D01*
X17125700Y-42175000D02*
X18903700Y-42175000D01*
X18903700Y-42175000D02*
X18903700Y-43953000D01*
X18903700Y-53097000D02*
X18903700Y-54875000D01*
X18903700Y-54875000D02*
X17125700Y-54875000D01*
X7981700Y-54875000D02*
X6203700Y-54875000D01*
X6203700Y-54875000D02*
X6203700Y-53097000D01*
X6203700Y-43953000D02*
X6203700Y-42175000D01*
%TO.C,MX88*%
X8907500Y-81973000D02*
X8907500Y-80195000D01*
X8907500Y-92895000D02*
X8907500Y-91117000D01*
X10685500Y-92895000D02*
X8907500Y-92895000D01*
X21607500Y-92895000D02*
X19829500Y-92895000D01*
X21607500Y-91117000D02*
X21607500Y-92895000D01*
X21607500Y-80195000D02*
X21607500Y-81973000D01*
X19829500Y-80195000D02*
X21607500Y-80195000D01*
X8907500Y-80195000D02*
X10685500Y-80195000D01*
%TO.C,MX44*%
X199007500Y-61185000D02*
X200785500Y-61185000D01*
X209929500Y-61185000D02*
X211707500Y-61185000D01*
X211707500Y-61185000D02*
X211707500Y-62963000D01*
X211707500Y-72107000D02*
X211707500Y-73885000D01*
X211707500Y-73885000D02*
X209929500Y-73885000D01*
X200785500Y-73885000D02*
X199007500Y-73885000D01*
X199007500Y-73885000D02*
X199007500Y-72107000D01*
X199007500Y-62963000D02*
X199007500Y-61185000D01*
%TO.C,MX72*%
X213364750Y-80195000D02*
X215142750Y-80195000D01*
X224286750Y-80195000D02*
X226064750Y-80195000D01*
X226064750Y-80195000D02*
X226064750Y-81973000D01*
X226064750Y-91117000D02*
X226064750Y-92895000D01*
X226064750Y-92895000D02*
X224286750Y-92895000D01*
X215142750Y-92895000D02*
X213364750Y-92895000D01*
X213364750Y-92895000D02*
X213364750Y-91117000D01*
X213364750Y-81973000D02*
X213364750Y-80195000D01*
%TO.C,MX68*%
X49303700Y-80195000D02*
X51081700Y-80195000D01*
X60225700Y-80195000D02*
X62003700Y-80195000D01*
X62003700Y-80195000D02*
X62003700Y-81973000D01*
X62003700Y-91117000D02*
X62003700Y-92895000D01*
X62003700Y-92895000D02*
X60225700Y-92895000D01*
X51081700Y-92895000D02*
X49303700Y-92895000D01*
X49303700Y-92895000D02*
X49303700Y-91117000D01*
X49303700Y-81973000D02*
X49303700Y-80195000D01*
%TO.C,MX67*%
X27917500Y-81973000D02*
X27917500Y-80195000D01*
X27917500Y-92895000D02*
X27917500Y-91117000D01*
X29695500Y-92895000D02*
X27917500Y-92895000D01*
X40617500Y-92895000D02*
X38839500Y-92895000D01*
X40617500Y-91117000D02*
X40617500Y-92895000D01*
X40617500Y-80195000D02*
X40617500Y-81973000D01*
X38839500Y-80195000D02*
X40617500Y-80195000D01*
X27917500Y-80195000D02*
X29695500Y-80195000D01*
%TO.C,MX66*%
X54056200Y-81973000D02*
X54056200Y-80195000D01*
X54056200Y-92895000D02*
X54056200Y-91117000D01*
X55834200Y-92895000D02*
X54056200Y-92895000D01*
X66756200Y-92895000D02*
X64978200Y-92895000D01*
X66756200Y-91117000D02*
X66756200Y-92895000D01*
X66756200Y-80195000D02*
X66756200Y-81973000D01*
X64978200Y-80195000D02*
X66756200Y-80195000D01*
X54056200Y-80195000D02*
X55834200Y-80195000D01*
%TO.C,MX59*%
X30293750Y-80195000D02*
X32071750Y-80195000D01*
X41215750Y-80195000D02*
X42993750Y-80195000D01*
X42993750Y-80195000D02*
X42993750Y-81973000D01*
X42993750Y-91117000D02*
X42993750Y-92895000D01*
X42993750Y-92895000D02*
X41215750Y-92895000D01*
X32071750Y-92895000D02*
X30293750Y-92895000D01*
X30293750Y-92895000D02*
X30293750Y-91117000D01*
X30293750Y-81973000D02*
X30293750Y-80195000D01*
%TO.C,MX55*%
X6531200Y-80195000D02*
X8309200Y-80195000D01*
X17453200Y-80195000D02*
X19231200Y-80195000D01*
X19231200Y-80195000D02*
X19231200Y-81973000D01*
X19231200Y-91117000D02*
X19231200Y-92895000D01*
X19231200Y-92895000D02*
X17453200Y-92895000D01*
X8309200Y-92895000D02*
X6531200Y-92895000D01*
X6531200Y-92895000D02*
X6531200Y-91117000D01*
X6531200Y-81973000D02*
X6531200Y-80195000D01*
%TO.C,MX83*%
X133291000Y-91117000D02*
X133291000Y-92895000D01*
X133291000Y-80195000D02*
X133291000Y-81973000D01*
X131513000Y-80195000D02*
X133291000Y-80195000D01*
X120591000Y-80195000D02*
X122369000Y-80195000D01*
X120591000Y-81973000D02*
X120591000Y-80195000D01*
X120591000Y-92895000D02*
X120591000Y-91117000D01*
X122369000Y-92895000D02*
X120591000Y-92895000D01*
X133291000Y-92895000D02*
X131513000Y-92895000D01*
%TO.C,MX82*%
X138043500Y-91117000D02*
X138043500Y-92895000D01*
X138043500Y-80195000D02*
X138043500Y-81973000D01*
X136265500Y-80195000D02*
X138043500Y-80195000D01*
X125343500Y-80195000D02*
X127121500Y-80195000D01*
X125343500Y-81973000D02*
X125343500Y-80195000D01*
X125343500Y-92895000D02*
X125343500Y-91117000D01*
X127121500Y-92895000D02*
X125343500Y-92895000D01*
X138043500Y-92895000D02*
X136265500Y-92895000D01*
%TO.C,MX77*%
X191929000Y-81973000D02*
X191929000Y-80195000D01*
X191929000Y-92895000D02*
X191929000Y-91117000D01*
X193707000Y-92895000D02*
X191929000Y-92895000D01*
X204629000Y-92895000D02*
X202851000Y-92895000D01*
X204629000Y-91117000D02*
X204629000Y-92895000D01*
X204629000Y-80195000D02*
X204629000Y-81973000D01*
X202851000Y-80195000D02*
X204629000Y-80195000D01*
X191929000Y-80195000D02*
X193707000Y-80195000D01*
%TO.C,MX78*%
X215741000Y-81973000D02*
X215741000Y-80195000D01*
X215741000Y-92895000D02*
X215741000Y-91117000D01*
X217519000Y-92895000D02*
X215741000Y-92895000D01*
X228441000Y-92895000D02*
X226663000Y-92895000D01*
X228441000Y-91117000D02*
X228441000Y-92895000D01*
X228441000Y-80195000D02*
X228441000Y-81973000D01*
X226663000Y-80195000D02*
X228441000Y-80195000D01*
X215741000Y-80195000D02*
X217519000Y-80195000D01*
%TO.C,MX81*%
X241930250Y-81973000D02*
X241930250Y-80195000D01*
X241930250Y-92895000D02*
X241930250Y-91117000D01*
X243708250Y-92895000D02*
X241930250Y-92895000D01*
X254630250Y-92895000D02*
X252852250Y-92895000D01*
X254630250Y-91117000D02*
X254630250Y-92895000D01*
X254630250Y-80195000D02*
X254630250Y-81973000D01*
X252852250Y-80195000D02*
X254630250Y-80195000D01*
X241930250Y-80195000D02*
X243708250Y-80195000D01*
%TO.C,MX80*%
X220493500Y-80195000D02*
X222271500Y-80195000D01*
X231415500Y-80195000D02*
X233193500Y-80195000D01*
X233193500Y-80195000D02*
X233193500Y-81973000D01*
X233193500Y-91117000D02*
X233193500Y-92895000D01*
X233193500Y-92895000D02*
X231415500Y-92895000D01*
X222271500Y-92895000D02*
X220493500Y-92895000D01*
X220493500Y-92895000D02*
X220493500Y-91117000D01*
X220493500Y-81973000D02*
X220493500Y-80195000D01*
%TO.C,MX79*%
X196681500Y-81973000D02*
X196681500Y-80195000D01*
X196681500Y-92895000D02*
X196681500Y-91117000D01*
X198459500Y-92895000D02*
X196681500Y-92895000D01*
X209381500Y-92895000D02*
X207603500Y-92895000D01*
X209381500Y-91117000D02*
X209381500Y-92895000D01*
X209381500Y-80195000D02*
X209381500Y-81973000D01*
X207603500Y-80195000D02*
X209381500Y-80195000D01*
X196681500Y-80195000D02*
X198459500Y-80195000D01*
%TO.C,MX84*%
X239554000Y-80195000D02*
X241332000Y-80195000D01*
X250476000Y-80195000D02*
X252254000Y-80195000D01*
X252254000Y-80195000D02*
X252254000Y-81973000D01*
X252254000Y-91117000D02*
X252254000Y-92895000D01*
X252254000Y-92895000D02*
X250476000Y-92895000D01*
X241332000Y-92895000D02*
X239554000Y-92895000D01*
X239554000Y-92895000D02*
X239554000Y-91117000D01*
X239554000Y-81973000D02*
X239554000Y-80195000D01*
%TO.C,MX76*%
X299110000Y-80195000D02*
X300888000Y-80195000D01*
X310032000Y-80195000D02*
X311810000Y-80195000D01*
X311810000Y-80195000D02*
X311810000Y-81973000D01*
X311810000Y-91117000D02*
X311810000Y-92895000D01*
X311810000Y-92895000D02*
X310032000Y-92895000D01*
X300888000Y-92895000D02*
X299110000Y-92895000D01*
X299110000Y-92895000D02*
X299110000Y-91117000D01*
X299110000Y-81973000D02*
X299110000Y-80195000D01*
%TO.C,MX75*%
X280050000Y-80195000D02*
X281828000Y-80195000D01*
X290972000Y-80195000D02*
X292750000Y-80195000D01*
X292750000Y-80195000D02*
X292750000Y-81973000D01*
X292750000Y-91117000D02*
X292750000Y-92895000D01*
X292750000Y-92895000D02*
X290972000Y-92895000D01*
X281828000Y-92895000D02*
X280050000Y-92895000D01*
X280050000Y-92895000D02*
X280050000Y-91117000D01*
X280050000Y-81973000D02*
X280050000Y-80195000D01*
%TO.C,MX74*%
X260989999Y-80195000D02*
X262767999Y-80195000D01*
X271911999Y-80195000D02*
X273689999Y-80195000D01*
X273689999Y-80195000D02*
X273689999Y-81973000D01*
X273689999Y-91117000D02*
X273689999Y-92895000D01*
X273689999Y-92895000D02*
X271911999Y-92895000D01*
X262767999Y-92895000D02*
X260989999Y-92895000D01*
X260989999Y-92895000D02*
X260989999Y-91117000D01*
X260989999Y-81973000D02*
X260989999Y-80195000D01*
%TO.C,MX49*%
X232275000Y-5933000D02*
X232275000Y-4155000D01*
X232275000Y-16855000D02*
X232275000Y-15077000D01*
X234053000Y-16855000D02*
X232275000Y-16855000D01*
X244975000Y-16855000D02*
X243197000Y-16855000D01*
X244975000Y-15077000D02*
X244975000Y-16855000D01*
X244975000Y-4155000D02*
X244975000Y-5933000D01*
X243197000Y-4155000D02*
X244975000Y-4155000D01*
X232275000Y-4155000D02*
X234053000Y-4155000D01*
%TO.C,MX50*%
X241780000Y-23165000D02*
X243558000Y-23165000D01*
X252702000Y-23165000D02*
X254480000Y-23165000D01*
X254480000Y-23165000D02*
X254480000Y-24943000D01*
X254480000Y-34087000D02*
X254480000Y-35865000D01*
X254480000Y-35865000D02*
X252702000Y-35865000D01*
X243558000Y-35865000D02*
X241780000Y-35865000D01*
X241780000Y-35865000D02*
X241780000Y-34087000D01*
X241780000Y-24943000D02*
X241780000Y-23165000D01*
%TO.C,MX62*%
X299110000Y-23165000D02*
X300888000Y-23165000D01*
X310032000Y-23165000D02*
X311810000Y-23165000D01*
X311810000Y-23165000D02*
X311810000Y-24943000D01*
X311810000Y-34087000D02*
X311810000Y-35865000D01*
X311810000Y-35865000D02*
X310032000Y-35865000D01*
X300888000Y-35865000D02*
X299110000Y-35865000D01*
X299110000Y-35865000D02*
X299110000Y-34087000D01*
X299110000Y-24943000D02*
X299110000Y-23165000D01*
%TO.C,MX54*%
X265542000Y-23165000D02*
X267320000Y-23165000D01*
X276464000Y-23165000D02*
X278242000Y-23165000D01*
X278242000Y-23165000D02*
X278242000Y-24943000D01*
X278242000Y-34087000D02*
X278242000Y-35865000D01*
X278242000Y-35865000D02*
X276464000Y-35865000D01*
X267320000Y-35865000D02*
X265542000Y-35865000D01*
X265542000Y-35865000D02*
X265542000Y-34087000D01*
X265542000Y-24943000D02*
X265542000Y-23165000D01*
%TO.C,MX63*%
X260790000Y-5933000D02*
X260790000Y-4155000D01*
X260790000Y-16855000D02*
X260790000Y-15077000D01*
X262568000Y-16855000D02*
X260790000Y-16855000D01*
X273490000Y-16855000D02*
X271712000Y-16855000D01*
X273490000Y-15077000D02*
X273490000Y-16855000D01*
X273490000Y-4155000D02*
X273490000Y-5933000D01*
X271712000Y-4155000D02*
X273490000Y-4155000D01*
X260790000Y-4155000D02*
X262568000Y-4155000D01*
%TO.C,MX1*%
X4155000Y-5933000D02*
X4155000Y-4155000D01*
X4155000Y-16855000D02*
X4155000Y-15077000D01*
X5933000Y-16855000D02*
X4155000Y-16855000D01*
X16855000Y-16855000D02*
X15077000Y-16855000D01*
X16855000Y-15077000D02*
X16855000Y-16855000D01*
X16855000Y-4155000D02*
X16855000Y-5933000D01*
X15077000Y-4155000D02*
X16855000Y-4155000D01*
X4155000Y-4155000D02*
X5933000Y-4155000D01*
%TO.C,MX60*%
X258663750Y-62963000D02*
X258663750Y-61185000D01*
X258663750Y-73885000D02*
X258663750Y-72107000D01*
X260441750Y-73885000D02*
X258663750Y-73885000D01*
X271363750Y-73885000D02*
X269585750Y-73885000D01*
X271363750Y-72107000D02*
X271363750Y-73885000D01*
X271363750Y-61185000D02*
X271363750Y-62963000D01*
X269585750Y-61185000D02*
X271363750Y-61185000D01*
X258663750Y-61185000D02*
X260441750Y-61185000D01*
%TO.C,MX58*%
X6531200Y-61185000D02*
X8309200Y-61185000D01*
X17453200Y-61185000D02*
X19231200Y-61185000D01*
X19231200Y-61185000D02*
X19231200Y-62963000D01*
X19231200Y-72107000D02*
X19231200Y-73885000D01*
X19231200Y-73885000D02*
X17453200Y-73885000D01*
X8309200Y-73885000D02*
X6531200Y-73885000D01*
X6531200Y-73885000D02*
X6531200Y-72107000D01*
X6531200Y-62963000D02*
X6531200Y-61185000D01*
%TO.C,MX4*%
X16036300Y-61185000D02*
X17814300Y-61185000D01*
X26958300Y-61185000D02*
X28736300Y-61185000D01*
X28736300Y-61185000D02*
X28736300Y-62963000D01*
X28736300Y-72107000D02*
X28736300Y-73885000D01*
X28736300Y-73885000D02*
X26958300Y-73885000D01*
X17814300Y-73885000D02*
X16036300Y-73885000D01*
X16036300Y-73885000D02*
X16036300Y-72107000D01*
X16036300Y-62963000D02*
X16036300Y-61185000D01*
%TO.C,MX45*%
X213265000Y-5933000D02*
X213265000Y-4155000D01*
X213265000Y-16855000D02*
X213265000Y-15077000D01*
X215043000Y-16855000D02*
X213265000Y-16855000D01*
X225965000Y-16855000D02*
X224187000Y-16855000D01*
X225965000Y-15077000D02*
X225965000Y-16855000D01*
X225965000Y-4155000D02*
X225965000Y-5933000D01*
X224187000Y-4155000D02*
X225965000Y-4155000D01*
X213265000Y-4155000D02*
X215043000Y-4155000D01*
%TO.C,MX61*%
X299110000Y-5933000D02*
X299110000Y-4155000D01*
X299110000Y-16855000D02*
X299110000Y-15077000D01*
X300888000Y-16855000D02*
X299110000Y-16855000D01*
X311810000Y-16855000D02*
X310032000Y-16855000D01*
X311810000Y-15077000D02*
X311810000Y-16855000D01*
X311810000Y-4155000D02*
X311810000Y-5933000D01*
X310032000Y-4155000D02*
X311810000Y-4155000D01*
X299110000Y-4155000D02*
X300888000Y-4155000D01*
%TO.C,MX57*%
X270295000Y-5933000D02*
X270295000Y-4155000D01*
X270295000Y-16855000D02*
X270295000Y-15077000D01*
X272073000Y-16855000D02*
X270295000Y-16855000D01*
X282995000Y-16855000D02*
X281217000Y-16855000D01*
X282995000Y-15077000D02*
X282995000Y-16855000D01*
X282995000Y-4155000D02*
X282995000Y-5933000D01*
X281217000Y-4155000D02*
X282995000Y-4155000D01*
X270295000Y-4155000D02*
X272073000Y-4155000D01*
%TO.C,MX56*%
X280050000Y-61185000D02*
X281828000Y-61185000D01*
X290972000Y-61185000D02*
X292750000Y-61185000D01*
X292750000Y-61185000D02*
X292750000Y-62963000D01*
X292750000Y-72107000D02*
X292750000Y-73885000D01*
X292750000Y-73885000D02*
X290972000Y-73885000D01*
X281828000Y-73885000D02*
X280050000Y-73885000D01*
X280050000Y-73885000D02*
X280050000Y-72107000D01*
X280050000Y-62963000D02*
X280050000Y-61185000D01*
%TO.C,MX53*%
X251285000Y-5933000D02*
X251285000Y-4155000D01*
X251285000Y-16855000D02*
X251285000Y-15077000D01*
X253063000Y-16855000D02*
X251285000Y-16855000D01*
X263985000Y-16855000D02*
X262207000Y-16855000D01*
X263985000Y-15077000D02*
X263985000Y-16855000D01*
X263985000Y-4155000D02*
X263985000Y-5933000D01*
X262207000Y-4155000D02*
X263985000Y-4155000D01*
X251285000Y-4155000D02*
X253063000Y-4155000D01*
%TO.C,MX48*%
X218017500Y-61185000D02*
X219795500Y-61185000D01*
X228939500Y-61185000D02*
X230717500Y-61185000D01*
X230717500Y-61185000D02*
X230717500Y-62963000D01*
X230717500Y-72107000D02*
X230717500Y-73885000D01*
X230717500Y-73885000D02*
X228939500Y-73885000D01*
X219795500Y-73885000D02*
X218017500Y-73885000D01*
X218017500Y-73885000D02*
X218017500Y-72107000D01*
X218017500Y-62963000D02*
X218017500Y-61185000D01*
%TO.C,MX47*%
X227522500Y-42175000D02*
X229300500Y-42175000D01*
X238444500Y-42175000D02*
X240222500Y-42175000D01*
X240222500Y-42175000D02*
X240222500Y-43953000D01*
X240222500Y-53097000D02*
X240222500Y-54875000D01*
X240222500Y-54875000D02*
X238444500Y-54875000D01*
X229300500Y-54875000D02*
X227522500Y-54875000D01*
X227522500Y-54875000D02*
X227522500Y-53097000D01*
X227522500Y-43953000D02*
X227522500Y-42175000D01*
%TO.C,MX46*%
X222770000Y-23165000D02*
X224548000Y-23165000D01*
X233692000Y-23165000D02*
X235470000Y-23165000D01*
X235470000Y-23165000D02*
X235470000Y-24943000D01*
X235470000Y-34087000D02*
X235470000Y-35865000D01*
X235470000Y-35865000D02*
X233692000Y-35865000D01*
X224548000Y-35865000D02*
X222770000Y-35865000D01*
X222770000Y-35865000D02*
X222770000Y-34087000D01*
X222770000Y-24943000D02*
X222770000Y-23165000D01*
%TO.C,MX43*%
X208512500Y-42175000D02*
X210290500Y-42175000D01*
X219434500Y-42175000D02*
X221212500Y-42175000D01*
X221212500Y-42175000D02*
X221212500Y-43953000D01*
X221212500Y-53097000D02*
X221212500Y-54875000D01*
X221212500Y-54875000D02*
X219434500Y-54875000D01*
X210290500Y-54875000D02*
X208512500Y-54875000D01*
X208512500Y-54875000D02*
X208512500Y-53097000D01*
X208512500Y-43953000D02*
X208512500Y-42175000D01*
%TO.C,MX42*%
X203760000Y-23165000D02*
X205538000Y-23165000D01*
X214682000Y-23165000D02*
X216460000Y-23165000D01*
X216460000Y-23165000D02*
X216460000Y-24943000D01*
X216460000Y-34087000D02*
X216460000Y-35865000D01*
X216460000Y-35865000D02*
X214682000Y-35865000D01*
X205538000Y-35865000D02*
X203760000Y-35865000D01*
X203760000Y-35865000D02*
X203760000Y-34087000D01*
X203760000Y-24943000D02*
X203760000Y-23165000D01*
%TO.C,MX41*%
X194255000Y-5933000D02*
X194255000Y-4155000D01*
X194255000Y-16855000D02*
X194255000Y-15077000D01*
X196033000Y-16855000D02*
X194255000Y-16855000D01*
X206955000Y-16855000D02*
X205177000Y-16855000D01*
X206955000Y-15077000D02*
X206955000Y-16855000D01*
X206955000Y-4155000D02*
X206955000Y-5933000D01*
X205177000Y-4155000D02*
X206955000Y-4155000D01*
X194255000Y-4155000D02*
X196033000Y-4155000D01*
%TO.C,MX40*%
X179997500Y-61185000D02*
X181775500Y-61185000D01*
X190919500Y-61185000D02*
X192697500Y-61185000D01*
X192697500Y-61185000D02*
X192697500Y-62963000D01*
X192697500Y-72107000D02*
X192697500Y-73885000D01*
X192697500Y-73885000D02*
X190919500Y-73885000D01*
X181775500Y-73885000D02*
X179997500Y-73885000D01*
X179997500Y-73885000D02*
X179997500Y-72107000D01*
X179997500Y-62963000D02*
X179997500Y-61185000D01*
%TO.C,MX39*%
X189502500Y-42175000D02*
X191280500Y-42175000D01*
X200424500Y-42175000D02*
X202202500Y-42175000D01*
X202202500Y-42175000D02*
X202202500Y-43953000D01*
X202202500Y-53097000D02*
X202202500Y-54875000D01*
X202202500Y-54875000D02*
X200424500Y-54875000D01*
X191280500Y-54875000D02*
X189502500Y-54875000D01*
X189502500Y-54875000D02*
X189502500Y-53097000D01*
X189502500Y-43953000D02*
X189502500Y-42175000D01*
%TO.C,MX38*%
X184750000Y-23165000D02*
X186528000Y-23165000D01*
X195672000Y-23165000D02*
X197450000Y-23165000D01*
X197450000Y-23165000D02*
X197450000Y-24943000D01*
X197450000Y-34087000D02*
X197450000Y-35865000D01*
X197450000Y-35865000D02*
X195672000Y-35865000D01*
X186528000Y-35865000D02*
X184750000Y-35865000D01*
X184750000Y-35865000D02*
X184750000Y-34087000D01*
X184750000Y-24943000D02*
X184750000Y-23165000D01*
%TO.C,MX37*%
X175245000Y-5933000D02*
X175245000Y-4155000D01*
X175245000Y-16855000D02*
X175245000Y-15077000D01*
X177023000Y-16855000D02*
X175245000Y-16855000D01*
X187945000Y-16855000D02*
X186167000Y-16855000D01*
X187945000Y-15077000D02*
X187945000Y-16855000D01*
X187945000Y-4155000D02*
X187945000Y-5933000D01*
X186167000Y-4155000D02*
X187945000Y-4155000D01*
X175245000Y-4155000D02*
X177023000Y-4155000D01*
%TO.C,MX36*%
X160987500Y-61185000D02*
X162765500Y-61185000D01*
X171909500Y-61185000D02*
X173687500Y-61185000D01*
X173687500Y-61185000D02*
X173687500Y-62963000D01*
X173687500Y-72107000D02*
X173687500Y-73885000D01*
X173687500Y-73885000D02*
X171909500Y-73885000D01*
X162765500Y-73885000D02*
X160987500Y-73885000D01*
X160987500Y-73885000D02*
X160987500Y-72107000D01*
X160987500Y-62963000D02*
X160987500Y-61185000D01*
%TO.C,MX34*%
X165740000Y-23165000D02*
X167518000Y-23165000D01*
X176662000Y-23165000D02*
X178440000Y-23165000D01*
X178440000Y-23165000D02*
X178440000Y-24943000D01*
X178440000Y-34087000D02*
X178440000Y-35865000D01*
X178440000Y-35865000D02*
X176662000Y-35865000D01*
X167518000Y-35865000D02*
X165740000Y-35865000D01*
X165740000Y-35865000D02*
X165740000Y-34087000D01*
X165740000Y-24943000D02*
X165740000Y-23165000D01*
%TO.C,MX33*%
X156235000Y-5933000D02*
X156235000Y-4155000D01*
X156235000Y-16855000D02*
X156235000Y-15077000D01*
X158013000Y-16855000D02*
X156235000Y-16855000D01*
X168935000Y-16855000D02*
X167157000Y-16855000D01*
X168935000Y-15077000D02*
X168935000Y-16855000D01*
X168935000Y-4155000D02*
X168935000Y-5933000D01*
X167157000Y-4155000D02*
X168935000Y-4155000D01*
X156235000Y-4155000D02*
X158013000Y-4155000D01*
%TO.C,MX32*%
X141977500Y-61185000D02*
X143755500Y-61185000D01*
X152899500Y-61185000D02*
X154677500Y-61185000D01*
X154677500Y-61185000D02*
X154677500Y-62963000D01*
X154677500Y-72107000D02*
X154677500Y-73885000D01*
X154677500Y-73885000D02*
X152899500Y-73885000D01*
X143755500Y-73885000D02*
X141977500Y-73885000D01*
X141977500Y-73885000D02*
X141977500Y-72107000D01*
X141977500Y-62963000D02*
X141977500Y-61185000D01*
%TO.C,MX31*%
X151482500Y-42175000D02*
X153260500Y-42175000D01*
X162404500Y-42175000D02*
X164182500Y-42175000D01*
X164182500Y-42175000D02*
X164182500Y-43953000D01*
X164182500Y-53097000D02*
X164182500Y-54875000D01*
X164182500Y-54875000D02*
X162404500Y-54875000D01*
X153260500Y-54875000D02*
X151482500Y-54875000D01*
X151482500Y-54875000D02*
X151482500Y-53097000D01*
X151482500Y-43953000D02*
X151482500Y-42175000D01*
%TO.C,MX30*%
X146730000Y-23165000D02*
X148508000Y-23165000D01*
X157652000Y-23165000D02*
X159430000Y-23165000D01*
X159430000Y-23165000D02*
X159430000Y-24943000D01*
X159430000Y-34087000D02*
X159430000Y-35865000D01*
X159430000Y-35865000D02*
X157652000Y-35865000D01*
X148508000Y-35865000D02*
X146730000Y-35865000D01*
X146730000Y-35865000D02*
X146730000Y-34087000D01*
X146730000Y-24943000D02*
X146730000Y-23165000D01*
%TO.C,MX28*%
X122967500Y-61185000D02*
X124745500Y-61185000D01*
X133889500Y-61185000D02*
X135667500Y-61185000D01*
X135667500Y-61185000D02*
X135667500Y-62963000D01*
X135667500Y-72107000D02*
X135667500Y-73885000D01*
X135667500Y-73885000D02*
X133889500Y-73885000D01*
X124745500Y-73885000D02*
X122967500Y-73885000D01*
X122967500Y-73885000D02*
X122967500Y-72107000D01*
X122967500Y-62963000D02*
X122967500Y-61185000D01*
%TO.C,MX27*%
X132472500Y-42175000D02*
X134250500Y-42175000D01*
X143394500Y-42175000D02*
X145172500Y-42175000D01*
X145172500Y-42175000D02*
X145172500Y-43953000D01*
X145172500Y-53097000D02*
X145172500Y-54875000D01*
X145172500Y-54875000D02*
X143394500Y-54875000D01*
X134250500Y-54875000D02*
X132472500Y-54875000D01*
X132472500Y-54875000D02*
X132472500Y-53097000D01*
X132472500Y-43953000D02*
X132472500Y-42175000D01*
%TO.C,MX26*%
X127720000Y-23165000D02*
X129498000Y-23165000D01*
X138642000Y-23165000D02*
X140420000Y-23165000D01*
X140420000Y-23165000D02*
X140420000Y-24943000D01*
X140420000Y-34087000D02*
X140420000Y-35865000D01*
X140420000Y-35865000D02*
X138642000Y-35865000D01*
X129498000Y-35865000D02*
X127720000Y-35865000D01*
X127720000Y-35865000D02*
X127720000Y-34087000D01*
X127720000Y-24943000D02*
X127720000Y-23165000D01*
%TO.C,MX25*%
X118215000Y-5933000D02*
X118215000Y-4155000D01*
X118215000Y-16855000D02*
X118215000Y-15077000D01*
X119993000Y-16855000D02*
X118215000Y-16855000D01*
X130915000Y-16855000D02*
X129137000Y-16855000D01*
X130915000Y-15077000D02*
X130915000Y-16855000D01*
X130915000Y-4155000D02*
X130915000Y-5933000D01*
X129137000Y-4155000D02*
X130915000Y-4155000D01*
X118215000Y-4155000D02*
X119993000Y-4155000D01*
%TO.C,MX24*%
X103957500Y-61185000D02*
X105735500Y-61185000D01*
X114879500Y-61185000D02*
X116657500Y-61185000D01*
X116657500Y-61185000D02*
X116657500Y-62963000D01*
X116657500Y-72107000D02*
X116657500Y-73885000D01*
X116657500Y-73885000D02*
X114879500Y-73885000D01*
X105735500Y-73885000D02*
X103957500Y-73885000D01*
X103957500Y-73885000D02*
X103957500Y-72107000D01*
X103957500Y-62963000D02*
X103957500Y-61185000D01*
%TO.C,MX23*%
X113462500Y-42175000D02*
X115240500Y-42175000D01*
X124384500Y-42175000D02*
X126162500Y-42175000D01*
X126162500Y-42175000D02*
X126162500Y-43953000D01*
X126162500Y-53097000D02*
X126162500Y-54875000D01*
X126162500Y-54875000D02*
X124384500Y-54875000D01*
X115240500Y-54875000D02*
X113462500Y-54875000D01*
X113462500Y-54875000D02*
X113462500Y-53097000D01*
X113462500Y-43953000D02*
X113462500Y-42175000D01*
%TO.C,MX22*%
X108710000Y-23165000D02*
X110488000Y-23165000D01*
X119632000Y-23165000D02*
X121410000Y-23165000D01*
X121410000Y-23165000D02*
X121410000Y-24943000D01*
X121410000Y-34087000D02*
X121410000Y-35865000D01*
X121410000Y-35865000D02*
X119632000Y-35865000D01*
X110488000Y-35865000D02*
X108710000Y-35865000D01*
X108710000Y-35865000D02*
X108710000Y-34087000D01*
X108710000Y-24943000D02*
X108710000Y-23165000D01*
%TO.C,MX21*%
X99205000Y-5933000D02*
X99205000Y-4155000D01*
X99205000Y-16855000D02*
X99205000Y-15077000D01*
X100983000Y-16855000D02*
X99205000Y-16855000D01*
X111905000Y-16855000D02*
X110127000Y-16855000D01*
X111905000Y-15077000D02*
X111905000Y-16855000D01*
X111905000Y-4155000D02*
X111905000Y-5933000D01*
X110127000Y-4155000D02*
X111905000Y-4155000D01*
X99205000Y-4155000D02*
X100983000Y-4155000D01*
%TO.C,MX20*%
X84947500Y-61185000D02*
X86725500Y-61185000D01*
X95869500Y-61185000D02*
X97647500Y-61185000D01*
X97647500Y-61185000D02*
X97647500Y-62963000D01*
X97647500Y-72107000D02*
X97647500Y-73885000D01*
X97647500Y-73885000D02*
X95869500Y-73885000D01*
X86725500Y-73885000D02*
X84947500Y-73885000D01*
X84947500Y-73885000D02*
X84947500Y-72107000D01*
X84947500Y-62963000D02*
X84947500Y-61185000D01*
%TO.C,MX19*%
X94452500Y-42175000D02*
X96230500Y-42175000D01*
X105374500Y-42175000D02*
X107152500Y-42175000D01*
X107152500Y-42175000D02*
X107152500Y-43953000D01*
X107152500Y-53097000D02*
X107152500Y-54875000D01*
X107152500Y-54875000D02*
X105374500Y-54875000D01*
X96230500Y-54875000D02*
X94452500Y-54875000D01*
X94452500Y-54875000D02*
X94452500Y-53097000D01*
X94452500Y-43953000D02*
X94452500Y-42175000D01*
%TO.C,MX18*%
X89700000Y-23165000D02*
X91478000Y-23165000D01*
X100622000Y-23165000D02*
X102400000Y-23165000D01*
X102400000Y-23165000D02*
X102400000Y-24943000D01*
X102400000Y-34087000D02*
X102400000Y-35865000D01*
X102400000Y-35865000D02*
X100622000Y-35865000D01*
X91478000Y-35865000D02*
X89700000Y-35865000D01*
X89700000Y-35865000D02*
X89700000Y-34087000D01*
X89700000Y-24943000D02*
X89700000Y-23165000D01*
%TO.C,MX17*%
X80195000Y-5933000D02*
X80195000Y-4155000D01*
X80195000Y-16855000D02*
X80195000Y-15077000D01*
X81973000Y-16855000D02*
X80195000Y-16855000D01*
X92895000Y-16855000D02*
X91117000Y-16855000D01*
X92895000Y-15077000D02*
X92895000Y-16855000D01*
X92895000Y-4155000D02*
X92895000Y-5933000D01*
X91117000Y-4155000D02*
X92895000Y-4155000D01*
X80195000Y-4155000D02*
X81973000Y-4155000D01*
%TO.C,MX16*%
X65937500Y-61185000D02*
X67715500Y-61185000D01*
X76859500Y-61185000D02*
X78637500Y-61185000D01*
X78637500Y-61185000D02*
X78637500Y-62963000D01*
X78637500Y-72107000D02*
X78637500Y-73885000D01*
X78637500Y-73885000D02*
X76859500Y-73885000D01*
X67715500Y-73885000D02*
X65937500Y-73885000D01*
X65937500Y-73885000D02*
X65937500Y-72107000D01*
X65937500Y-62963000D02*
X65937500Y-61185000D01*
%TO.C,MX15*%
X75442500Y-42175000D02*
X77220500Y-42175000D01*
X86364500Y-42175000D02*
X88142500Y-42175000D01*
X88142500Y-42175000D02*
X88142500Y-43953000D01*
X88142500Y-53097000D02*
X88142500Y-54875000D01*
X88142500Y-54875000D02*
X86364500Y-54875000D01*
X77220500Y-54875000D02*
X75442500Y-54875000D01*
X75442500Y-54875000D02*
X75442500Y-53097000D01*
X75442500Y-43953000D02*
X75442500Y-42175000D01*
%TO.C,MX14*%
X70690000Y-23165000D02*
X72468000Y-23165000D01*
X81612000Y-23165000D02*
X83390000Y-23165000D01*
X83390000Y-23165000D02*
X83390000Y-24943000D01*
X83390000Y-34087000D02*
X83390000Y-35865000D01*
X83390000Y-35865000D02*
X81612000Y-35865000D01*
X72468000Y-35865000D02*
X70690000Y-35865000D01*
X70690000Y-35865000D02*
X70690000Y-34087000D01*
X70690000Y-24943000D02*
X70690000Y-23165000D01*
%TO.C,MX13*%
X61185000Y-5933000D02*
X61185000Y-4155000D01*
X61185000Y-16855000D02*
X61185000Y-15077000D01*
X62963000Y-16855000D02*
X61185000Y-16855000D01*
X73885000Y-16855000D02*
X72107000Y-16855000D01*
X73885000Y-15077000D02*
X73885000Y-16855000D01*
X73885000Y-4155000D02*
X73885000Y-5933000D01*
X72107000Y-4155000D02*
X73885000Y-4155000D01*
X61185000Y-4155000D02*
X62963000Y-4155000D01*
%TO.C,MX12*%
X46927500Y-62963000D02*
X46927500Y-61185000D01*
X46927500Y-73885000D02*
X46927500Y-72107000D01*
X48705500Y-73885000D02*
X46927500Y-73885000D01*
X59627500Y-73885000D02*
X57849500Y-73885000D01*
X59627500Y-72107000D02*
X59627500Y-73885000D01*
X59627500Y-61185000D02*
X59627500Y-62963000D01*
X57849500Y-61185000D02*
X59627500Y-61185000D01*
X46927500Y-61185000D02*
X48705500Y-61185000D01*
%TO.C,MX11*%
X56432500Y-42175000D02*
X58210500Y-42175000D01*
X67354500Y-42175000D02*
X69132500Y-42175000D01*
X69132500Y-42175000D02*
X69132500Y-43953000D01*
X69132500Y-53097000D02*
X69132500Y-54875000D01*
X69132500Y-54875000D02*
X67354500Y-54875000D01*
X58210500Y-54875000D02*
X56432500Y-54875000D01*
X56432500Y-54875000D02*
X56432500Y-53097000D01*
X56432500Y-43953000D02*
X56432500Y-42175000D01*
%TO.C,MX10*%
X51680000Y-23165000D02*
X53458000Y-23165000D01*
X62602000Y-23165000D02*
X64380000Y-23165000D01*
X64380000Y-23165000D02*
X64380000Y-24943000D01*
X64380000Y-34087000D02*
X64380000Y-35865000D01*
X64380000Y-35865000D02*
X62602000Y-35865000D01*
X53458000Y-35865000D02*
X51680000Y-35865000D01*
X51680000Y-35865000D02*
X51680000Y-34087000D01*
X51680000Y-24943000D02*
X51680000Y-23165000D01*
%TO.C,MX9*%
X42175000Y-5933000D02*
X42175000Y-4155000D01*
X42175000Y-16855000D02*
X42175000Y-15077000D01*
X43953000Y-16855000D02*
X42175000Y-16855000D01*
X54875000Y-16855000D02*
X53097000Y-16855000D01*
X54875000Y-15077000D02*
X54875000Y-16855000D01*
X54875000Y-4155000D02*
X54875000Y-5933000D01*
X53097000Y-4155000D02*
X54875000Y-4155000D01*
X42175000Y-4155000D02*
X43953000Y-4155000D01*
%TO.C,MX8*%
X27917500Y-61185000D02*
X29695500Y-61185000D01*
X38839500Y-61185000D02*
X40617500Y-61185000D01*
X40617500Y-61185000D02*
X40617500Y-62963000D01*
X40617500Y-72107000D02*
X40617500Y-73885000D01*
X40617500Y-73885000D02*
X38839500Y-73885000D01*
X29695500Y-73885000D02*
X27917500Y-73885000D01*
X27917500Y-73885000D02*
X27917500Y-72107000D01*
X27917500Y-62963000D02*
X27917500Y-61185000D01*
%TO.C,MX7*%
X37422500Y-42175000D02*
X39200500Y-42175000D01*
X48344500Y-42175000D02*
X50122500Y-42175000D01*
X50122500Y-42175000D02*
X50122500Y-43953000D01*
X50122500Y-53097000D02*
X50122500Y-54875000D01*
X50122500Y-54875000D02*
X48344500Y-54875000D01*
X39200500Y-54875000D02*
X37422500Y-54875000D01*
X37422500Y-54875000D02*
X37422500Y-53097000D01*
X37422500Y-43953000D02*
X37422500Y-42175000D01*
%TO.C,MX6*%
X32670000Y-23165000D02*
X34448000Y-23165000D01*
X43592000Y-23165000D02*
X45370000Y-23165000D01*
X45370000Y-23165000D02*
X45370000Y-24943000D01*
X45370000Y-34087000D02*
X45370000Y-35865000D01*
X45370000Y-35865000D02*
X43592000Y-35865000D01*
X34448000Y-35865000D02*
X32670000Y-35865000D01*
X32670000Y-35865000D02*
X32670000Y-34087000D01*
X32670000Y-24943000D02*
X32670000Y-23165000D01*
%TO.C,MX5*%
X23165000Y-5933000D02*
X23165000Y-4155000D01*
X23165000Y-16855000D02*
X23165000Y-15077000D01*
X24943000Y-16855000D02*
X23165000Y-16855000D01*
X35865000Y-16855000D02*
X34087000Y-16855000D01*
X35865000Y-15077000D02*
X35865000Y-16855000D01*
X35865000Y-4155000D02*
X35865000Y-5933000D01*
X34087000Y-4155000D02*
X35865000Y-4155000D01*
X23165000Y-4155000D02*
X24943000Y-4155000D01*
%TO.C,MX3*%
X11283700Y-42175000D02*
X13061700Y-42175000D01*
X22205700Y-42175000D02*
X23983700Y-42175000D01*
X23983700Y-42175000D02*
X23983700Y-43953000D01*
X23983700Y-53097000D02*
X23983700Y-54875000D01*
X23983700Y-54875000D02*
X22205700Y-54875000D01*
X13061700Y-54875000D02*
X11283700Y-54875000D01*
X11283700Y-54875000D02*
X11283700Y-53097000D01*
X11283700Y-43953000D02*
X11283700Y-42175000D01*
%TO.C,MX2*%
X8907500Y-23165000D02*
X10685500Y-23165000D01*
X19829500Y-23165000D02*
X21607500Y-23165000D01*
X21607500Y-23165000D02*
X21607500Y-24943000D01*
X21607500Y-34087000D02*
X21607500Y-35865000D01*
X21607500Y-35865000D02*
X19829500Y-35865000D01*
X10685500Y-35865000D02*
X8907500Y-35865000D01*
X8907500Y-35865000D02*
X8907500Y-34087000D01*
X8907500Y-24943000D02*
X8907500Y-23165000D01*
%TO.C,H16*%
D12*
X204119904Y-49477380D02*
X204119904Y-48477380D01*
X204119904Y-48953571D02*
X204691333Y-48953571D01*
X204691333Y-49477380D02*
X204691333Y-48477380D01*
X205691333Y-49477380D02*
X205119904Y-49477380D01*
X205405619Y-49477380D02*
X205405619Y-48477380D01*
X205310380Y-48620238D01*
X205215142Y-48715476D01*
X205119904Y-48763095D01*
X206548476Y-48477380D02*
X206358000Y-48477380D01*
X206262761Y-48525000D01*
X206215142Y-48572619D01*
X206119904Y-48715476D01*
X206072285Y-48905952D01*
X206072285Y-49286904D01*
X206119904Y-49382142D01*
X206167523Y-49429761D01*
X206262761Y-49477380D01*
X206453238Y-49477380D01*
X206548476Y-49429761D01*
X206596095Y-49382142D01*
X206643714Y-49286904D01*
X206643714Y-49048809D01*
X206596095Y-48953571D01*
X206548476Y-48905952D01*
X206453238Y-48858333D01*
X206262761Y-48858333D01*
X206167523Y-48905952D01*
X206119904Y-48953571D01*
X206072285Y-49048809D01*
%TO.C,H15*%
X109069904Y-49477380D02*
X109069904Y-48477380D01*
X109069904Y-48953571D02*
X109641333Y-48953571D01*
X109641333Y-49477380D02*
X109641333Y-48477380D01*
X110641333Y-49477380D02*
X110069904Y-49477380D01*
X110355619Y-49477380D02*
X110355619Y-48477380D01*
X110260380Y-48620238D01*
X110165142Y-48715476D01*
X110069904Y-48763095D01*
X111546095Y-48477380D02*
X111069904Y-48477380D01*
X111022285Y-48953571D01*
X111069904Y-48905952D01*
X111165142Y-48858333D01*
X111403238Y-48858333D01*
X111498476Y-48905952D01*
X111546095Y-48953571D01*
X111593714Y-49048809D01*
X111593714Y-49286904D01*
X111546095Y-49382142D01*
X111498476Y-49429761D01*
X111403238Y-49477380D01*
X111165142Y-49477380D01*
X111069904Y-49429761D01*
X111022285Y-49382142D01*
%TO.C,H10*%
X19893104Y-87497380D02*
X19893104Y-86497380D01*
X19893104Y-86973571D02*
X20464533Y-86973571D01*
X20464533Y-87497380D02*
X20464533Y-86497380D01*
X21464533Y-87497380D02*
X20893104Y-87497380D01*
X21178819Y-87497380D02*
X21178819Y-86497380D01*
X21083580Y-86640238D01*
X20988342Y-86735476D01*
X20893104Y-86783095D01*
X22083580Y-86497380D02*
X22178819Y-86497380D01*
X22274057Y-86545000D01*
X22321676Y-86592619D01*
X22369295Y-86687857D01*
X22416914Y-86878333D01*
X22416914Y-87116428D01*
X22369295Y-87306904D01*
X22321676Y-87402142D01*
X22274057Y-87449761D01*
X22178819Y-87497380D01*
X22083580Y-87497380D01*
X21988342Y-87449761D01*
X21940723Y-87402142D01*
X21893104Y-87306904D01*
X21845485Y-87116428D01*
X21845485Y-86878333D01*
X21893104Y-86687857D01*
X21940723Y-86592619D01*
X21988342Y-86545000D01*
X22083580Y-86497380D01*
%TO.C,J2*%
X296876666Y-10457380D02*
X296876666Y-11171666D01*
X296829047Y-11314523D01*
X296733809Y-11409761D01*
X296590952Y-11457380D01*
X296495714Y-11457380D01*
X297305238Y-10552619D02*
X297352857Y-10505000D01*
X297448095Y-10457380D01*
X297686190Y-10457380D01*
X297781428Y-10505000D01*
X297829047Y-10552619D01*
X297876666Y-10647857D01*
X297876666Y-10743095D01*
X297829047Y-10885952D01*
X297257619Y-11457380D01*
X297876666Y-11457380D01*
%TO.C,H14*%
X17516904Y-11457379D02*
X17516904Y-10457379D01*
X17516904Y-10933570D02*
X18088333Y-10933570D01*
X18088333Y-11457379D02*
X18088333Y-10457379D01*
X19088333Y-11457379D02*
X18516904Y-11457379D01*
X18802619Y-11457379D02*
X18802619Y-10457379D01*
X18707380Y-10600237D01*
X18612142Y-10695475D01*
X18516904Y-10743094D01*
X19945476Y-10790713D02*
X19945476Y-11457379D01*
X19707380Y-10409760D02*
X19469285Y-11124046D01*
X20088333Y-11124046D01*
%TO.C,H13*%
X231378904Y-68487380D02*
X231378904Y-67487380D01*
X231378904Y-67963571D02*
X231950333Y-67963571D01*
X231950333Y-68487380D02*
X231950333Y-67487380D01*
X232950333Y-68487380D02*
X232378904Y-68487380D01*
X232664619Y-68487380D02*
X232664619Y-67487380D01*
X232569380Y-67630238D01*
X232474142Y-67725476D01*
X232378904Y-67773095D01*
X233283666Y-67487380D02*
X233902714Y-67487380D01*
X233569380Y-67868333D01*
X233712238Y-67868333D01*
X233807476Y-67915952D01*
X233855095Y-67963571D01*
X233902714Y-68058809D01*
X233902714Y-68296904D01*
X233855095Y-68392142D01*
X233807476Y-68439761D01*
X233712238Y-68487380D01*
X233426523Y-68487380D01*
X233331285Y-68439761D01*
X233283666Y-68392142D01*
%TO.C,H12*%
X295971904Y-87497380D02*
X295971904Y-86497380D01*
X295971904Y-86973571D02*
X296543333Y-86973571D01*
X296543333Y-87497380D02*
X296543333Y-86497380D01*
X297543333Y-87497380D02*
X296971904Y-87497380D01*
X297257619Y-87497380D02*
X297257619Y-86497380D01*
X297162380Y-86640238D01*
X297067142Y-86735476D01*
X296971904Y-86783095D01*
X297924285Y-86592619D02*
X297971904Y-86545000D01*
X298067142Y-86497380D01*
X298305238Y-86497380D01*
X298400476Y-86545000D01*
X298448095Y-86592619D01*
X298495714Y-86687857D01*
X298495714Y-86783095D01*
X298448095Y-86925952D01*
X297876666Y-87497380D01*
X298495714Y-87497380D01*
%TO.C,H11*%
X84051904Y-30467380D02*
X84051904Y-29467380D01*
X84051904Y-29943571D02*
X84623333Y-29943571D01*
X84623333Y-30467380D02*
X84623333Y-29467380D01*
X85623333Y-30467380D02*
X85051904Y-30467380D01*
X85337619Y-30467380D02*
X85337619Y-29467380D01*
X85242380Y-29610238D01*
X85147142Y-29705476D01*
X85051904Y-29753095D01*
X86575714Y-30467380D02*
X86004285Y-30467380D01*
X86290000Y-30467380D02*
X86290000Y-29467380D01*
X86194761Y-29610238D01*
X86099523Y-29705476D01*
X86004285Y-29753095D01*
%TO.C,H9*%
X217598095Y-30467380D02*
X217598095Y-29467380D01*
X217598095Y-29943571D02*
X218169523Y-29943571D01*
X218169523Y-30467380D02*
X218169523Y-29467380D01*
X218693333Y-30467380D02*
X218883809Y-30467380D01*
X218979047Y-30419761D01*
X219026666Y-30372142D01*
X219121904Y-30229285D01*
X219169523Y-30038809D01*
X219169523Y-29657857D01*
X219121904Y-29562619D01*
X219074285Y-29515000D01*
X218979047Y-29467380D01*
X218788571Y-29467380D01*
X218693333Y-29515000D01*
X218645714Y-29562619D01*
X218598095Y-29657857D01*
X218598095Y-29895952D01*
X218645714Y-29991190D01*
X218693333Y-30038809D01*
X218788571Y-30086428D01*
X218979047Y-30086428D01*
X219074285Y-30038809D01*
X219121904Y-29991190D01*
X219169523Y-29895952D01*
%TO.C,H8*%
X79775595Y-68487380D02*
X79775595Y-67487380D01*
X79775595Y-67963571D02*
X80347023Y-67963571D01*
X80347023Y-68487380D02*
X80347023Y-67487380D01*
X80966071Y-67915952D02*
X80870833Y-67868333D01*
X80823214Y-67820714D01*
X80775595Y-67725476D01*
X80775595Y-67677857D01*
X80823214Y-67582619D01*
X80870833Y-67535000D01*
X80966071Y-67487380D01*
X81156547Y-67487380D01*
X81251785Y-67535000D01*
X81299404Y-67582619D01*
X81347023Y-67677857D01*
X81347023Y-67725476D01*
X81299404Y-67820714D01*
X81251785Y-67868333D01*
X81156547Y-67915952D01*
X80966071Y-67915952D01*
X80870833Y-67963571D01*
X80823214Y-68011190D01*
X80775595Y-68106428D01*
X80775595Y-68296904D01*
X80823214Y-68392142D01*
X80870833Y-68439761D01*
X80966071Y-68487380D01*
X81156547Y-68487380D01*
X81251785Y-68439761D01*
X81299404Y-68392142D01*
X81347023Y-68296904D01*
X81347023Y-68106428D01*
X81299404Y-68011190D01*
X81251785Y-67963571D01*
X81156547Y-67915952D01*
%TO.C,H7*%
X148820095Y-49477380D02*
X148820095Y-48477380D01*
X148820095Y-48953571D02*
X149391523Y-48953571D01*
X149391523Y-49477380D02*
X149391523Y-48477380D01*
X149772476Y-48477380D02*
X150439142Y-48477380D01*
X150010571Y-49477380D01*
%TO.C,H6*%
X290815095Y-47392380D02*
X290815095Y-46392380D01*
X290815095Y-46868571D02*
X291386523Y-46868571D01*
X291386523Y-47392380D02*
X291386523Y-46392380D01*
X292291285Y-46392380D02*
X292100809Y-46392380D01*
X292005571Y-46440000D01*
X291957952Y-46487619D01*
X291862714Y-46630476D01*
X291815095Y-46820952D01*
X291815095Y-47201904D01*
X291862714Y-47297142D01*
X291910333Y-47344761D01*
X292005571Y-47392380D01*
X292196047Y-47392380D01*
X292291285Y-47344761D01*
X292338904Y-47297142D01*
X292386523Y-47201904D01*
X292386523Y-46963809D01*
X292338904Y-46868571D01*
X292291285Y-46820952D01*
X292196047Y-46773333D01*
X292005571Y-46773333D01*
X291910333Y-46820952D01*
X291862714Y-46868571D01*
X291815095Y-46963809D01*
%TD*%
M02*
