0
SECTION
2
HEADER
9
$INSUNITS
70
4
9
$ACADVER
1
AC1014
9
$HANDSEED
5
FFFF
0
ENDSEC
0
SECTION
2
TABLES
0
TABLE
2
VPORT
5
8
100
AcDbSymbolTable
0
ENDTAB
0
TABLE
2
LTYPE
5
5
100
AcDbSymbolTable
0
LTYPE
5
14
100
AcDbSymbolTableRecord
100
AcDbLinetypeTableRecord
2
BYBLOCK
70
0
0
LTYPE
5
15
100
AcDbSymbolTableRecord
100
AcDbLinetypeTableRecord
2
BYLAYER
70
0
0
ENDTAB
0
TABLE
2
LAYER
5
2
100
AcDbSymbolTable
70
2
0
LAYER
5
50
100
AcDbSymbolTableRecord
100
AcDbLayerTableRecord
2
0
70
0
6
CONTINUOUS
0
ENDTAB
0
TABLE
2
STYLE
5
3
100
AcDbSymbolTable
70
1
0
STYLE
5
11
100
AcDbSymbolTableRecord
100
AcDbTextStyleTableRecord
2
STANDARD
70
0
0
ENDTAB
0
TABLE
2
VIEW
5
6
100
AcDbSymbolTable
70
0
0
ENDTAB
0
TABLE
2
UCS
5
7
100
AcDbSymbolTable
70
0
0
ENDTAB
0
TABLE
2
APPID
5
9
100
AcDbSymbolTable
70
2
0
APPID
5
12
100
AcDbSymbolTableRecord
100
AcDbRegAppTableRecord
2
ACAD
70
0
0
ENDTAB
0
TABLE
2
DIMSTYLE
5
A
100
AcDbSymbolTable
70
1
0
ENDTAB
0
TABLE
2
BLOCK_RECORD
5
1
100
AcDbSymbolTable
70
1
0
BLOCK_RECORD
5
1F
100
AcDbSymbolTableRecord
100
AcDbBlockTableRecord
2
*MODEL_SPACE
0
BLOCK_RECORD
5
1B
100
AcDbSymbolTableRecord
100
AcDbBlockTableRecord
2
*PAPER_SPACE
0
ENDTAB
0
ENDSEC
0
SECTION
2
BLOCKS
0
BLOCK
5
20
100
AcDbEntity
100
AcDbBlockBegin
2
*MODEL_SPACE
0
ENDBLK
5
21
100
AcDbEntity
100
AcDbBlockEnd
0
BLOCK
5
1C
100
AcDbEntity
100
AcDbBlockBegin
2
*PAPER_SPACE
0
ENDBLK
5
1D
100
AcDbEntity
100
AcDbBlockEnd
0
ENDSEC
0
SECTION
2
ENTITIES
0
LWPOLYLINE
5
100
100
AcDbEntity
8
0
100
AcDbPolyline
90
4
70
1
43
0.0
10
126.5
20
-188.5
10
126.5
20
-174.50000000000003
10
112.5
20
-174.50000000000003
10
112.5
20
-188.5
0
LWPOLYLINE
5
101
100
AcDbEntity
8
0
100
AcDbPolyline
90
4
70
1
43
0.0
10
144.5
20
-174.50000000000003
10
130.5
20
-174.50000000000003
10
130.5
20
-188.5
10
144.5
20
-188.5
0
LWPOLYLINE
5
102
100
AcDbEntity
8
0
100
AcDbPolyline
90
22
70
1
43
0.0
10
269.5
20
7.0000000000000018
10
23.499999999999972
20
6.999999999999984
10
10.499999999999972
20
-5.0000000000000089
10
10.499999999999972
20
-70
10
18.499999999999979
20
-70
10
18.499999999999979
20
-87
10
-10.500000000000021
20
-87
10
-10.500000000000021
20
-165
10
11.499999999999986
20
-165
10
11.499999999999986
20
-172
10
18.499999999999979
20
-172
10
18.499999999999979
20
-193
10
274.5
20
-193
10
274.5
20
-172
10
281.5
20
-172
10
281.5
20
-165
10
303.5
20
-165
10
303.5
20
-87
10
274.5
20
-87
10
274.5
20
-70
10
282.50000000000006
20
-70
10
282.50000000000006
20
-5
0
LWPOLYLINE
5
103
100
AcDbEntity
8
0
100
AcDbPolyline
90
4
70
1
43
0.0
10
148.5
20
-174.50000000000003
10
148.5
20
-188.5
10
162.5
20
-188.5
10
162.5
20
-174.50000000000003
0
LWPOLYLINE
5
104
100
AcDbEntity
8
0
100
AcDbPolyline
90
4
70
1
43
0.0
10
198.5
20
-188.5
10
198.5
20
-174.50000000000003
10
184.5
20
-174.50000000000003
10
184.5
20
-188.5
0
LWPOLYLINE
5
105
100
AcDbEntity
8
0
100
AcDbPolyline
90
4
70
1
43
0.0
10
180.5
20
-188.5
10
180.5
20
-174.50000000000003
10
166.50000000000003
20
-174.50000000000003
10
166.50000000000003
20
-188.5
0
LWPOLYLINE
5
106
100
AcDbEntity
8
0
100
AcDbPolyline
90
4
70
1
43
0.0
10
72.5
20
-188.5
10
72.5
20
-174.50000000000003
10
58.500000000000007
20
-174.50000000000003
10
58.500000000000007
20
-188.5
0
CIRCLE
5
107
100
AcDbEntity
8
0
100
AcDbCircle
10
28.500000000000014
20
-183.00000000000006
30
0
40
0.55000000000000004
210
0
220
0
230
1
0
LWPOLYLINE
5
108
100
AcDbEntity
8
0
100
AcDbPolyline
90
4
70
1
43
0.0
10
202.5
20
-188.5
10
216.50000000000003
20
-188.5
10
216.50000000000003
20
-174.50000000000003
10
202.5
20
-174.50000000000003
0
CIRCLE
5
109
100
AcDbEntity
8
0
100
AcDbCircle
10
74.5
20
-147
30
0
40
0.55000000000000004
210
0
220
0
230
1
0
CIRCLE
5
110
100
AcDbEntity
8
0
100
AcDbCircle
10
182.5
20
-147
30
0
40
0.55000000000000004
210
0
220
0
230
1
0
LWPOLYLINE
5
111
100
AcDbEntity
8
0
100
AcDbPolyline
90
4
70
1
43
0.0
10
298.5
20
-127.5
10
298.5
20
-113.50000000000001
10
284.5
20
-113.50000000000001
10
284.5
20
-127.5
0
CIRCLE
5
112
100
AcDbEntity
8
0
100
AcDbCircle
10
200.5
20
-112.00000000000001
30
0
40
0.55000000000000004
210
0
220
0
230
1
0
LWPOLYLINE
5
113
100
AcDbEntity
8
0
100
AcDbPolyline
90
4
70
1
43
0.0
10
108.50000000000001
20
-174.50000000000003
10
94.500000000000014
20
-174.50000000000003
10
94.500000000000014
20
-188.5
10
108.50000000000001
20
-188.5
0
CIRCLE
5
114
100
AcDbEntity
8
0
100
AcDbCircle
10
92.5
20
-112.00000000000001
30
0
40
0.55000000000000004
210
0
220
0
230
1
0
LWPOLYLINE
5
115
100
AcDbEntity
8
0
100
AcDbPolyline
90
4
70
1
43
0.0
10
90.5
20
-188.5
10
90.5
20
-174.50000000000003
10
76.5
20
-174.50000000000003
10
76.5
20
-188.5
0
CIRCLE
5
116
100
AcDbEntity
8
0
100
AcDbCircle
10
110.5
20
-191
30
0
40
0.55000000000000004
210
0
220
0
230
1
0
CIRCLE
5
117
100
AcDbEntity
8
0
100
AcDbCircle
10
218.5
20
-191
30
0
40
0.55000000000000004
210
0
220
0
230
1
0
LWPOLYLINE
5
118
100
AcDbEntity
8
0
100
AcDbPolyline
90
4
70
1
43
0.0
10
252.5
20
-188.5
10
252.5
20
-174.50000000000003
10
238.5
20
-174.50000000000003
10
238.5
20
-188.5
0
CIRCLE
5
119
100
AcDbEntity
8
0
100
AcDbCircle
10
264.5
20
-183.00000000000006
30
0
40
0.55000000000000004
210
0
220
0
230
1
0
LWPOLYLINE
5
120
100
AcDbEntity
8
0
100
AcDbPolyline
90
4
70
1
43
0.0
10
220.5
20
-188.5
10
234.50000000000003
20
-188.5
10
234.50000000000003
20
-174.50000000000003
10
220.5
20
-174.50000000000003
0
CIRCLE
5
121
100
AcDbEntity
8
0
100
AcDbCircle
10
28.5
20
-155
30
0
40
0.55000000000000004
210
0
220
0
230
1
0
CIRCLE
5
122
100
AcDbEntity
8
0
100
AcDbCircle
10
301
20
-112.00000000000001
30
0
40
0.55000000000000004
210
0
220
0
230
1
0
LWPOLYLINE
5
123
100
AcDbEntity
8
0
100
AcDbPolyline
90
4
70
1
43
0.0
10
298.5
20
-110.5
10
298.5
20
-96.5
10
284.5
20
-96.5
10
284.5
20
-110.5
0
CIRCLE
5
124
100
AcDbEntity
8
0
100
AcDbCircle
10
37.5
20
-112.25000000000001
30
0
40
0.55000000000000004
210
0
220
0
230
1
0
LWPOLYLINE
5
125
100
AcDbEntity
8
0
100
AcDbPolyline
90
4
70
1
43
0.0
10
40.5
20
-174.50000000000003
10
40.5
20
-188.5
10
54.5
20
-188.5
10
54.5
20
-174.50000000000003
0
CIRCLE
5
126
100
AcDbEntity
8
0
100
AcDbCircle
10
74.5
20
-191
30
0
40
0.55000000000000004
210
0
220
0
230
1
0
CIRCLE
5
127
100
AcDbEntity
8
0
100
AcDbCircle
10
182.5
20
-191
30
0
40
0.55000000000000004
210
0
220
0
230
1
0
LWPOLYLINE
5
128
100
AcDbEntity
8
0
100
AcDbPolyline
90
4
70
1
43
0.0
10
284.5
20
-144.5
10
298.5
20
-144.5
10
298.5
20
-130.5
10
284.5
20
-130.5
0
CIRCLE
5
129
100
AcDbEntity
8
0
100
AcDbCircle
10
255.5
20
-112.00000000000001
30
0
40
0.55000000000000004
210
0
220
0
230
1
0
LINE
5
130
100
AcDbEntity
8
0
100
AcDbLine
10
274.5
20
-172
30
0
11
281.5
21
-172
31
0
0
CIRCLE
5
131
100
AcDbEntity
8
0
100
AcDbCircle
10
218.5
20
-147
30
0
40
0.55000000000000004
210
0
220
0
230
1
0
CIRCLE
5
132
100
AcDbEntity
8
0
100
AcDbCircle
10
264.5
20
-155
30
0
40
0.55000000000000004
210
0
220
0
230
1
0
LINE
5
133
100
AcDbEntity
8
0
100
AcDbLine
10
274.5
20
-165
30
0
11
274.5
21
-172
31
0
0
CIRCLE
5
134
100
AcDbEntity
8
0
100
AcDbCircle
10
110.5
20
-147
30
0
40
0.55000000000000004
210
0
220
0
230
1
0
LINE
5
135
100
AcDbEntity
8
0
100
AcDbLine
10
18.499999999999979
20
-95
30
0
11
18.499999999999979
21
-87
31
0
0
LWPOLYLINE
5
136
100
AcDbEntity
8
0
100
AcDbPolyline
90
4
70
1
43
0.0
10
8.5
20
-130.5
10
8.5
20
-144.5
10
-5.4999999999999858
20
-144.5
10
-5.4999999999999858
20
-130.5
0
LWPOLYLINE
5
137
100
AcDbEntity
8
0
100
AcDbPolyline
90
4
70
1
43
0.0
10
-5.4999999999999858
20
-113.50000000000001
10
8.5
20
-113.50000000000001
10
8.5
20
-127.5
10
-5.4999999999999858
20
-127.5
0
LWPOLYLINE
5
138
100
AcDbEntity
8
0
100
AcDbPolyline
90
4
70
1
43
0.0
10
-5.4999999999999858
20
-96.5
10
8.5
20
-96.5
10
8.5
20
-110.5
10
-5.4999999999999858
20
-110.5
0
CIRCLE
5
139
100
AcDbEntity
8
0
100
AcDbCircle
10
291.99999999999994
20
-155
30
0
40
0.55000000000000004
210
0
220
0
230
1
0
CIRCLE
5
140
100
AcDbEntity
8
0
100
AcDbCircle
10
160.50003453787437
20
-112.50000000000242
30
0
40
0.55000000000000004
210
0
220
0
230
1
0
CIRCLE
5
141
100
AcDbEntity
8
0
100
AcDbCircle
10
132.49999999997243
20
-112.50000000000242
30
0
40
0.55000000000000004
210
0
220
0
230
1
0
CIRCLE
5
142
100
AcDbEntity
8
0
100
AcDbCircle
10
132.49999999997243
20
-142.00000000000239
30
0
40
0.55000000000000004
210
0
220
0
230
1
0
CIRCLE
5
143
100
AcDbEntity
8
0
100
AcDbCircle
10
160.50003453787437
20
-142.00000000000239
30
0
40
0.55000000000000004
210
0
220
0
230
1
0
LINE
5
144
100
AcDbEntity
8
0
100
AcDbLine
10
18.499999999999979
20
-172
30
0
11
18.499999999999979
21
-165
31
0
0
LINE
5
145
100
AcDbEntity
8
0
100
AcDbLine
10
274.5
20
-87
30
0
11
274.5
21
-95
31
0
0
CIRCLE
5
146
100
AcDbEntity
8
0
100
AcDbCircle
10
0.99999999999999822
20
-155
30
0
40
0.55000000000000004
210
0
220
0
230
1
0
CIRCLE
5
147
100
AcDbEntity
8
0
100
AcDbCircle
10
-7.9993492659078562
20
-112.00532243048697
30
0
40
0.55000000000000004
210
0
220
0
230
1
0
ENDSEC
0
SECTION
2
OBJECTS
0
DICTIONARY
5
C
100
AcDbDictionary
3
ACAD_GROUP
350
D
3
ACAD_MLINESTYLE
350
17
0
DICTIONARY
5
D
100
AcDbDictionary
0
DICTIONARY
5
1A
330
C
100
AcDbDictionary
0
DICTIONARY
5
17
100
AcDbDictionary
0
ENDSEC
0
EOF
