0
SECTION
2
HEADER
9
$INSUNITS
70
4
9
$ACADVER
1
AC1014
9
$HANDSEED
5
FFFF
0
ENDSEC
0
SECTION
2
TABLES
0
TABLE
2
VPORT
5
8
100
AcDbSymbolTable
0
ENDTAB
0
TABLE
2
LTYPE
5
5
100
AcDbSymbolTable
0
LTYPE
5
14
100
AcDbSymbolTableRecord
100
AcDbLinetypeTableRecord
2
BYBLOCK
70
0
0
LTYPE
5
15
100
AcDbSymbolTableRecord
100
AcDbLinetypeTableRecord
2
BYLAYER
70
0
0
ENDTAB
0
TABLE
2
LAYER
5
2
100
AcDbSymbolTable
70
2
0
LAYER
5
50
100
AcDbSymbolTableRecord
100
AcDbLayerTableRecord
2
0
70
0
6
CONTINUOUS
0
ENDTAB
0
TABLE
2
STYLE
5
3
100
AcDbSymbolTable
70
1
0
STYLE
5
11
100
AcDbSymbolTableRecord
100
AcDbTextStyleTableRecord
2
STANDARD
70
0
0
ENDTAB
0
TABLE
2
VIEW
5
6
100
AcDbSymbolTable
70
0
0
ENDTAB
0
TABLE
2
UCS
5
7
100
AcDbSymbolTable
70
0
0
ENDTAB
0
TABLE
2
APPID
5
9
100
AcDbSymbolTable
70
2
0
APPID
5
12
100
AcDbSymbolTableRecord
100
AcDbRegAppTableRecord
2
ACAD
70
0
0
ENDTAB
0
TABLE
2
DIMSTYLE
5
A
100
AcDbSymbolTable
70
1
0
ENDTAB
0
TABLE
2
BLOCK_RECORD
5
1
100
AcDbSymbolTable
70
1
0
BLOCK_RECORD
5
1F
100
AcDbSymbolTableRecord
100
AcDbBlockTableRecord
2
*MODEL_SPACE
0
BLOCK_RECORD
5
1B
100
AcDbSymbolTableRecord
100
AcDbBlockTableRecord
2
*PAPER_SPACE
0
ENDTAB
0
ENDSEC
0
SECTION
2
BLOCKS
0
BLOCK
5
20
100
AcDbEntity
100
AcDbBlockBegin
2
*MODEL_SPACE
0
ENDBLK
5
21
100
AcDbEntity
100
AcDbBlockEnd
0
BLOCK
5
1C
100
AcDbEntity
100
AcDbBlockBegin
2
*PAPER_SPACE
0
ENDBLK
5
1D
100
AcDbEntity
100
AcDbBlockEnd
0
ENDSEC
0
SECTION
2
ENTITIES
0
CIRCLE
5
100
100
AcDbEntity
8
0
100
AcDbCircle
10
-91.083394999999996
20
-38.074890000000096
30
0
40
1.0999999999999943
210
0
220
-0
230
1
0
CIRCLE
5
101
100
AcDbEntity
8
0
100
AcDbCircle
10
-297.65769999999998
20
-19.024106000000085
30
0
40
1.0999999999999943
210
0
220
-0
230
1
0
CIRCLE
5
102
100
AcDbEntity
8
0
100
AcDbCircle
10
-38.100359999999995
20
-90.462610000000097
30
0
40
1.0999999999999985
210
0
220
-0
230
1
0
CIRCLE
5
103
100
AcDbEntity
8
0
100
AcDbCircle
10
-114.30068000000003
20
-90.462386000000095
30
0
40
1.0999999999999943
210
0
220
-0
230
1
0
CIRCLE
5
104
100
AcDbEntity
8
0
100
AcDbCircle
10
-297.65769999999998
20
-57.124522000000084
30
0
40
1.0999999999999943
210
0
220
-0
230
1
0
CIRCLE
5
105
100
AcDbEntity
8
0
100
AcDbCircle
10
-223.83864000000003
20
-38.07457500000011
30
0
40
1.0999999999999943
210
0
220
-0
230
1
0
CIRCLE
5
106
100
AcDbEntity
8
0
100
AcDbCircle
10
-72.414574999999999
20
-5.9278800000000764
30
0
40
1.1000000000000032
210
0
220
-0
230
1
0
CIRCLE
5
107
100
AcDbEntity
8
0
100
AcDbCircle
10
-285.75139999999999
20
-90.462610000000097
30
0
40
1.0999999999999943
210
0
220
-0
230
1
0
CIRCLE
5
108
100
AcDbEntity
8
0
100
AcDbCircle
10
-6.548664999999998
20
-53.553080000000094
30
0
40
1.0999999999999999
210
0
220
-0
230
1
0
CIRCLE
5
109
100
AcDbEntity
8
0
100
AcDbCircle
10
-190.50100000000003
20
-90.462610000000097
30
0
40
1.0999999999999943
210
0
220
-0
230
1
0
CIRCLE
5
110
100
AcDbEntity
8
0
100
AcDbCircle
10
-188.92911000000001
20
-5.9278800000000764
30
0
40
1.0999999999999943
210
0
220
-0
230
1
0
CIRCLE
5
111
100
AcDbEntity
8
0
100
AcDbCircle
10
-23.812799999999996
20
-5.9278800000000764
30
0
40
1.0999999999999985
210
0
220
-0
230
1
0
LWPOLYLINE
5
112
100
AcDbEntity
8
0
100
AcDbPolyline
90
4
70
1
43
0.0
10
-130.82499999999999
20
-92.700000000000017
10
-116.82500000000002
20
-92.700000000000017
10
-116.82500000000002
20
-78.700000000000017
10
-130.82499999999999
20
-78.700000000000017
0
LWPOLYLINE
5
113
100
AcDbEntity
8
0
100
AcDbPolyline
90
4
70
1
43
0.0
10
-21.288
20
-59.649999999999999
10
-21.288
20
-73.650000000000006
10
-7.2879999999999967
20
-73.650000000000006
10
-7.2879999999999967
20
-59.649999999999999
0
LWPOLYLINE
5
114
100
AcDbEntity
8
0
100
AcDbPolyline
90
4
70
1
43
0.0
10
-83.200000000000003
20
-59.649999999999999
10
-83.200000000000003
20
-73.650000000000006
10
-69.200000000000003
20
-73.650000000000006
10
-69.200000000000003
20
-59.649999999999999
0
LWPOLYLINE
5
115
100
AcDbEntity
8
0
100
AcDbPolyline
90
4
70
1
43
0.0
10
-49.863
20
-54.600000000000009
10
-35.863
20
-54.600000000000009
10
-35.863
20
-40.600000000000009
10
-49.863
20
-40.600000000000009
0
LWPOLYLINE
5
116
100
AcDbEntity
8
0
100
AcDbPolyline
90
4
70
1
43
0.0
10
-40.625
20
-78.700000000000017
10
-54.625
20
-78.700000000000017
10
-54.625
20
-92.700000000000017
10
-40.625
20
-92.700000000000017
0
LWPOLYLINE
5
117
100
AcDbEntity
8
0
100
AcDbPolyline
90
4
70
1
43
0.0
10
-45.100000000000009
20
-59.649999999999999
10
-45.100000000000009
20
-73.650000000000006
10
-31.099999999999994
20
-73.650000000000006
10
-31.099999999999994
20
-59.649999999999999
0
LWPOLYLINE
5
118
100
AcDbEntity
8
0
100
AcDbPolyline
90
4
70
1
43
0.0
10
-54.912999999999997
20
-40.600000000000009
10
-68.912999999999997
20
-40.600000000000009
10
-68.912999999999997
20
-54.600000000000009
10
-54.912999999999997
20
-54.600000000000009
0
LWPOLYLINE
5
119
100
AcDbEntity
8
0
100
AcDbPolyline
90
4
70
1
43
0.0
10
-64.438000000000002
20
-35.549999999999997
10
-64.438000000000002
20
-21.550000000000004
10
-78.438000000000002
20
-21.550000000000004
10
-78.438000000000002
20
-35.549999999999997
0
LWPOLYLINE
5
120
100
AcDbEntity
8
0
100
AcDbPolyline
90
4
70
1
43
0.0
10
-107.30000000000001
20
-73.650000000000006
10
-107.30000000000001
20
-59.649999999999999
10
-121.30000000000001
20
-59.649999999999999
10
-121.30000000000001
20
-73.650000000000006
0
LWPOLYLINE
5
121
100
AcDbEntity
8
0
100
AcDbPolyline
90
4
70
1
43
0.0
10
-97.77500000000002
20
-92.700000000000017
10
-97.77500000000002
20
-78.700000000000017
10
-111.77500000000002
20
-78.700000000000017
10
-111.77500000000002
20
-92.700000000000017
0
LWPOLYLINE
5
122
100
AcDbEntity
8
0
100
AcDbPolyline
90
4
70
1
43
0.0
10
-131.113
20
-40.600000000000009
10
-145.113
20
-40.600000000000009
10
-145.113
20
-54.600000000000009
10
-131.113
20
-54.600000000000009
0
LWPOLYLINE
5
123
100
AcDbEntity
8
0
100
AcDbPolyline
90
4
70
1
43
0.0
10
-59.388000000000005
20
-21.550000000000004
10
-59.388000000000005
20
-35.549999999999997
10
-45.388000000000005
20
-35.549999999999997
10
-45.388000000000005
20
-21.550000000000004
0
LWPOLYLINE
5
124
100
AcDbEntity
8
0
100
AcDbPolyline
90
8
70
1
43
0.0
10
-163.63492712474624
20
-8.4999999999999858
42
-0.70710678118654657
10
-157.97807287525382
20
-8.5000000000000053
10
-150.80650000000003
20
-8.4999999999999964
10
-150.80650000000003
20
-10.500000000000007
10
-157.97807287525384
20
-10.500000000000004
42
-0.70710678118654857
10
-163.63492712474621
20
-10.500000000000004
10
-170.80650000000003
20
-10.500000000000007
10
-170.80650000000003
20
-8.4999999999999964
0
LWPOLYLINE
5
125
100
AcDbEntity
8
0
100
AcDbPolyline
90
4
70
1
43
0.0
10
-154.63800000000001
20
-21.550000000000004
10
-154.63800000000001
20
-35.549999999999997
10
-140.63800000000001
20
-35.549999999999997
10
-140.63800000000001
20
-21.550000000000004
0
LWPOLYLINE
5
126
100
AcDbEntity
8
0
100
AcDbPolyline
90
4
70
1
43
0.0
10
-102.25000000000001
20
-59.649999999999999
10
-102.25000000000001
20
-73.650000000000006
10
-88.250000000000014
20
-73.650000000000006
10
-88.250000000000014
20
-59.649999999999999
0
LWPOLYLINE
5
127
100
AcDbEntity
8
0
100
AcDbPolyline
90
4
70
1
43
0.0
10
-112.063
20
-40.600000000000009
10
-126.06300000000002
20
-40.600000000000009
10
-126.06300000000002
20
-54.600000000000009
10
-112.063
20
-54.600000000000009
0
LWPOLYLINE
5
128
100
AcDbEntity
8
0
100
AcDbPolyline
90
4
70
1
43
0.0
10
-92.724999999999994
20
-78.700000000000017
10
-92.724999999999994
20
-92.700000000000017
10
-78.724999999999994
20
-92.700000000000017
10
-78.724999999999994
20
-78.700000000000017
0
LWPOLYLINE
5
129
100
AcDbEntity
8
0
100
AcDbPolyline
90
4
70
1
43
0.0
10
-257.03100000000001
20
-21.550000000000004
10
-257.03100000000001
20
-35.549999999999997
10
-243.03100000000001
20
-35.549999999999997
10
-243.03100000000001
20
-21.550000000000004
0
LWPOLYLINE
5
130
100
AcDbEntity
8
0
100
AcDbPolyline
90
4
70
1
43
0.0
10
-159.40000000000001
20
-73.650000000000006
10
-145.40000000000001
20
-73.650000000000006
10
-145.40000000000001
20
-59.649999999999999
10
-159.40000000000001
20
-59.649999999999999
0
LWPOLYLINE
5
131
100
AcDbEntity
8
0
100
AcDbPolyline
90
4
70
1
43
0.0
10
-278.46300000000002
20
-73.650000000000006
10
-264.46300000000002
20
-73.650000000000006
10
-264.46300000000002
20
-59.649999999999999
10
-278.46300000000002
20
-59.649999999999999
0
LWPOLYLINE
5
132
100
AcDbEntity
8
0
100
AcDbPolyline
90
12
70
1
43
0.0
10
-250.17499999999998
20
-92.700000000000017
10
-250.17499999999998
20
-78.700000000000017
10
-250.60000000000002
20
-78.700000000000017
10
-250.60000000000002
20
-77.730000000000004
10
-258.125
20
-77.730000000000004
10
-258.125
20
-78.700000000000017
10
-275.27499999999998
20
-78.700000000000017
10
-275.27499999999998
20
-77.730000000000004
10
-282.80000000000001
20
-77.730000000000004
10
-282.80000000000001
20
-78.700000000000017
10
-283.22500000000002
20
-78.700000000000017
10
-283.22500000000002
20
-92.700000000000017
0
LWPOLYLINE
5
133
100
AcDbEntity
8
0
100
AcDbPolyline
90
4
70
1
43
0.0
10
-288.27499999999998
20
-78.700000000000017
10
-302.27499999999998
20
-78.700000000000017
10
-302.27499999999998
20
-92.700000000000017
10
-288.27499999999998
20
-92.700000000000017
0
LWPOLYLINE
5
134
100
AcDbEntity
8
0
100
AcDbPolyline
90
4
70
1
43
0.0
10
-254.65000000000003
20
-59.649999999999999
10
-254.65000000000003
20
-73.650000000000006
10
-240.65000000000001
20
-73.650000000000006
10
-240.65000000000001
20
-59.649999999999999
0
LWPOLYLINE
5
135
100
AcDbEntity
8
0
100
AcDbPolyline
90
4
70
1
43
0.0
10
-302.27499999999998
20
-73.650000000000006
10
-288.27499999999998
20
-73.650000000000006
10
-288.27499999999998
20
-59.649999999999999
10
-302.27499999999998
20
-59.649999999999999
0
LWPOLYLINE
5
136
100
AcDbEntity
8
0
100
AcDbPolyline
90
4
70
1
43
0.0
10
-245.12500000000003
20
-78.700000000000017
10
-245.12500000000003
20
-92.700000000000017
10
-231.125
20
-92.700000000000017
10
-231.125
20
-78.700000000000017
0
LWPOLYLINE
5
137
100
AcDbEntity
8
0
100
AcDbPolyline
90
4
70
1
43
0.0
10
-235.60000000000002
20
-59.649999999999999
10
-235.60000000000002
20
-73.650000000000006
10
-221.59999999999999
20
-73.650000000000006
10
-221.59999999999999
20
-59.649999999999999
0
LWPOLYLINE
5
138
100
AcDbEntity
8
0
100
AcDbPolyline
90
4
70
1
43
0.0
10
-230.83799999999999
20
-35.549999999999997
10
-216.83800000000002
20
-35.549999999999997
10
-216.83800000000002
20
-21.550000000000004
10
-230.83799999999999
20
-21.550000000000004
0
LWPOLYLINE
5
139
100
AcDbEntity
8
0
100
AcDbPolyline
90
4
70
1
43
0.0
10
-192.738
20
-35.549999999999997
10
-178.738
20
-35.549999999999997
10
-178.738
20
-21.550000000000004
10
-192.738
20
-21.550000000000004
0
CIRCLE
5
140
100
AcDbEntity
8
0
100
AcDbCircle
10
-74.443749999999994
20
-98.724999999999994
30
0
40
1.5000000000000036
210
0
220
-0
230
1
0
CIRCLE
5
141
100
AcDbEntity
8
0
100
AcDbCircle
10
-308.27499999999998
20
-98.724999999999994
30
0
40
1.4999999999999858
210
0
220
-0
230
1
0
CIRCLE
5
142
100
AcDbEntity
8
0
100
AcDbCircle
10
-230.33124999999998
20
-98.724999999999994
30
0
40
1.4999999999999858
210
0
220
-0
230
1
0
CIRCLE
5
143
100
AcDbEntity
8
0
100
AcDbCircle
10
3.4999999999999964
20
3.4999999999999964
30
0
40
1.5000000000000002
210
0
220
-0
230
1
0
CIRCLE
5
144
100
AcDbEntity
8
0
100
AcDbCircle
10
-74.443750000000009
20
3.4999999999999964
30
0
40
1.5000000000000036
210
0
220
-0
230
1
0
CIRCLE
5
145
100
AcDbEntity
8
0
100
AcDbCircle
10
-152.38749999999999
20
3.4999999999999964
30
0
40
1.5000000000000036
210
0
220
-0
230
1
0
CIRCLE
5
146
100
AcDbEntity
8
0
100
AcDbCircle
10
-230.33124999999998
20
3.4999999999999964
30
0
40
1.4999999999999858
210
0
220
-0
230
1
0
CIRCLE
5
147
100
AcDbEntity
8
0
100
AcDbCircle
10
-308.27499999999998
20
3.4999999999999964
30
0
40
1.4999999999999858
210
0
220
-0
230
1
0
LWPOLYLINE
5
148
100
AcDbEntity
8
0
100
AcDbPolyline
90
4
70
1
43
0.0
10
-73.962999999999994
20
-54.600000000000009
10
-73.962999999999994
20
-40.600000000000009
10
-87.963000000000008
20
-40.600000000000009
10
-87.963000000000008
20
-54.600000000000009
0
LWPOLYLINE
5
149
100
AcDbEntity
8
0
100
AcDbPolyline
90
4
70
1
43
0.0
10
-73.674999999999997
20
-92.700000000000017
10
-59.675000000000004
20
-92.700000000000017
10
-59.675000000000004
20
-78.700000000000017
10
-73.674999999999997
20
-78.700000000000017
0
LWPOLYLINE
5
150
100
AcDbEntity
8
0
100
AcDbPolyline
90
4
70
1
43
0.0
10
-149.875
20
-78.700000000000017
10
-149.875
20
-92.700000000000017
10
-135.875
20
-92.700000000000017
10
-135.875
20
-78.700000000000017
0
LWPOLYLINE
5
151
100
AcDbEntity
8
0
100
AcDbPolyline
90
4
70
1
43
0.0
10
-140.34999999999999
20
-59.649999999999999
10
-140.34999999999999
20
-73.650000000000006
10
-126.34999999999999
20
-73.650000000000006
10
-126.34999999999999
20
-59.649999999999999
0
LWPOLYLINE
5
152
100
AcDbEntity
8
0
100
AcDbPolyline
90
4
70
1
43
0.0
10
-50.150000000000006
20
-59.649999999999999
10
-64.150000000000006
20
-59.649999999999999
10
-64.150000000000006
20
-73.650000000000006
10
-50.150000000000006
20
-73.650000000000006
0
LWPOLYLINE
5
153
100
AcDbEntity
8
0
100
AcDbPolyline
90
4
70
1
43
0.0
10
-202.55000000000001
20
-73.650000000000006
10
-202.55000000000001
20
-59.649999999999999
10
-216.55000000000001
20
-59.649999999999999
10
-216.55000000000001
20
-73.650000000000006
0
LWPOLYLINE
5
154
100
AcDbEntity
8
0
100
AcDbPolyline
90
4
70
1
43
0.0
10
-226.07500000000002
20
-78.700000000000017
10
-226.07500000000002
20
-92.700000000000017
10
-212.07499999999999
20
-92.700000000000017
10
-212.07499999999999
20
-78.700000000000017
0
LWPOLYLINE
5
155
100
AcDbEntity
8
0
100
AcDbPolyline
90
4
70
1
43
0.0
10
-164.16300000000004
20
-40.600000000000009
10
-164.16300000000004
20
-54.600000000000009
10
-150.16300000000001
20
-54.600000000000009
10
-150.16300000000001
20
-40.600000000000009
0
LWPOLYLINE
5
156
100
AcDbEntity
8
0
100
AcDbPolyline
90
4
70
1
43
0.0
10
-226.36300000000003
20
-54.600000000000009
10
-226.36300000000003
20
-40.600000000000009
10
-240.363
20
-40.600000000000009
10
-240.363
20
-54.600000000000009
0
LWPOLYLINE
5
157
100
AcDbEntity
8
0
100
AcDbPolyline
90
4
70
1
43
0.0
10
-188.26300000000001
20
-40.600000000000009
10
-202.26300000000003
20
-40.600000000000009
10
-202.26300000000003
20
-54.600000000000009
10
-188.26300000000001
20
-54.600000000000009
0
LWPOLYLINE
5
158
100
AcDbEntity
8
0
100
AcDbPolyline
90
4
70
1
43
0.0
10
-164.44999999999999
20
-59.649999999999999
10
-178.44999999999999
20
-59.649999999999999
10
-178.44999999999999
20
-73.650000000000006
10
-164.44999999999999
20
-73.650000000000006
0
LWPOLYLINE
5
159
100
AcDbEntity
8
0
100
AcDbPolyline
90
4
70
1
43
0.0
10
-187.97499999999999
20
-78.700000000000017
10
-187.97499999999999
20
-92.700000000000017
10
-173.97500000000002
20
-92.700000000000017
10
-173.97500000000002
20
-78.700000000000017
0
LWPOLYLINE
5
160
100
AcDbEntity
8
0
100
AcDbPolyline
90
4
70
1
43
0.0
10
-197.5
20
-73.650000000000006
10
-183.5
20
-73.650000000000006
10
-183.5
20
-59.649999999999999
10
-197.5
20
-59.649999999999999
0
LWPOLYLINE
5
161
100
AcDbEntity
8
0
100
AcDbPolyline
90
4
70
1
43
0.0
10
-193.02500000000003
20
-92.700000000000017
10
-193.02500000000003
20
-78.700000000000017
10
-207.02500000000001
20
-78.700000000000017
10
-207.02500000000001
20
-92.700000000000017
0
LWPOLYLINE
5
162
100
AcDbEntity
8
0
100
AcDbPolyline
90
4
70
1
43
0.0
10
-168.92500000000001
20
-78.700000000000017
10
-168.92500000000001
20
-92.700000000000017
10
-154.92500000000001
20
-92.700000000000017
10
-154.92500000000001
20
-78.700000000000017
0
LWPOLYLINE
5
163
100
AcDbEntity
8
0
100
AcDbPolyline
90
4
70
1
43
0.0
10
-197.78800000000004
20
-35.549999999999997
10
-197.78800000000004
20
-21.550000000000004
10
-211.78800000000001
20
-21.550000000000004
10
-211.78800000000001
20
-35.549999999999997
0
LWPOLYLINE
5
164
100
AcDbEntity
8
0
100
AcDbPolyline
90
4
70
1
43
0.0
10
-169.21299999999999
20
-40.600000000000009
10
-183.21300000000002
20
-40.600000000000009
10
-183.21300000000002
20
-54.600000000000009
10
-169.21299999999999
20
-54.600000000000009
0
LWPOLYLINE
5
165
100
AcDbEntity
8
0
100
AcDbPolyline
90
4
70
1
43
0.0
10
-207.31300000000002
20
-40.600000000000009
10
-221.31299999999999
20
-40.600000000000009
10
-221.31299999999999
20
-54.600000000000009
10
-207.31300000000002
20
-54.600000000000009
0
LWPOLYLINE
5
166
100
AcDbEntity
8
0
100
AcDbPolyline
90
4
70
1
43
0.0
10
-173.68799999999999
20
-21.550000000000004
10
-173.68799999999999
20
-35.549999999999997
10
-159.68799999999999
20
-35.549999999999997
10
-159.68799999999999
20
-21.550000000000004
0
LWPOLYLINE
5
167
100
AcDbEntity
8
0
100
AcDbPolyline
90
4
70
1
43
0.0
10
-52.530999999999999
20
-16.500000000000004
10
-52.530999999999999
20
-2.5
10
-66.531000000000006
20
-2.5
10
-66.531000000000006
20
-16.500000000000004
0
ARC
5
168
100
AcDbEntity
8
0
100
AcDbCircle
10
-109.1315
20
-14.749999999999996
30
0
40
0.75000000000001066
210
0
220
0
230
1
100
AcDbArc
50
180
51
269.99236056272605
0
LINE
5
169
100
AcDbEntity
8
0
100
AcDbLine
10
-109.88150000000002
20
-14.75
30
0
11
-109.88150000000002
21
-10.250000000000004
31
0
0
ARC
5
170
100
AcDbEntity
8
0
100
AcDbCircle
10
-109.1315
20
-10.250000000000011
30
0
40
0.75000000000000233
210
0
220
0
230
1
100
AcDbArc
50
90.007639437273937
51
180
0
LINE
5
171
100
AcDbEntity
8
0
100
AcDbLine
10
-109.13159999999978
20
-9.5000000066666743
30
0
11
-109.13150000000002
21
-9.5000000000000284
31
0
0
ARC
5
172
100
AcDbEntity
8
0
100
AcDbCircle
10
-109.1315
20
-10.250000000000011
30
0
40
0.74999999999995737
210
0
220
-0
230
1
100
AcDbArc
50
0
51
90.000000000001094
0
LINE
5
173
100
AcDbEntity
8
0
100
AcDbLine
10
-108.38150000000005
20
-10.250000000000004
30
0
11
-108.38150000000002
21
-14.750000000000005
31
0
0
ARC
5
174
100
AcDbEntity
8
0
100
AcDbCircle
10
-109.1315
20
-14.749999999999996
30
0
40
0.75000000000000622
210
0
220
0
230
1
100
AcDbArc
50
269.99999999999886
51
360
0
LINE
5
175
100
AcDbEntity
8
0
100
AcDbLine
10
-109.13150000000002
20
-15.500000000000004
30
0
11
-109.13159999999978
21
-15.49999999333334
31
0
0
ARC
5
176
100
AcDbEntity
8
0
100
AcDbCircle
10
-106.63150151694356
20
-12.936932874630365
30
0
40
0.74999999999993416
210
0
220
0
230
1
100
AcDbArc
50
126.03185378408575
51
179.99991570525418
0
ARC
5
177
100
AcDbEntity
8
0
100
AcDbCircle
10
-109.13150000000002
20
-9.5000000000000284
30
0
40
3.499999999999984
210
-0
220
0
230
1
100
AcDbArc
50
-53.96814621591173
51
233.96809292402742
0
ARC
5
178
100
AcDbEntity
8
0
100
AcDbCircle
10
-111.63150167981152
20
-12.936930549333246
30
0
40
0.75000000000002898
210
0
220
0
230
1
100
AcDbArc
50
-9.334288179537923e-05
51
53.968092924027879
0
LINE
5
179
100
AcDbEntity
8
0
100
AcDbLine
10
-110.88150167981249
20
-12.936931771214118
30
0
11
-110.88150355288347
21
-12.938606736806255
31
0
0
ARC
5
180
100
AcDbEntity
8
0
100
AcDbCircle
10
-111.6315
20
-12.936931771216866
30
0
40
0.74999999999999123
210
0
220
0
230
1
100
AcDbArc
50
233.96812092753041
51
359.87204166110462
0
ARC
5
181
100
AcDbEntity
8
0
100
AcDbCircle
10
-109.13150000000002
20
-9.5000000000000284
30
0
40
4.9999999999999591
210
0
220
0
230
1
100
AcDbArc
50
-53.96812092752954
51
233.96812092752938
0
ARC
5
182
100
AcDbEntity
8
0
100
AcDbCircle
10
-106.63150000000003
20
-12.936931771216889
30
0
40
0.74999999999997136
210
0
220
0
230
1
100
AcDbArc
50
180.09857467124081
51
306.03187907246991
0
LINE
5
183
100
AcDbEntity
8
0
100
AcDbLine
10
-107.38149889001639
20
-12.938222110009558
30
0
11
-107.38150151694269
21
-12.936931771214651
31
0
0
LWPOLYLINE
5
184
100
AcDbEntity
8
0
100
AcDbPolyline
90
4
70
1
43
0.0
10
-302.27499999999998
20
-21.550000000000004
10
-302.27499999999998
20
-35.549999999999997
10
-288.27499999999998
20
-35.549999999999997
10
-288.27499999999998
20
-21.550000000000004
0
LWPOLYLINE
5
185
100
AcDbEntity
8
0
100
AcDbPolyline
90
4
70
1
43
0.0
10
-288.27499999999998
20
-2.5
10
-302.27499999999998
20
-2.5
10
-302.27499999999998
20
-16.500000000000004
10
-288.27499999999998
20
-16.500000000000004
0
LWPOLYLINE
5
186
100
AcDbEntity
8
0
100
AcDbPolyline
90
4
70
1
43
0.0
10
-9.6690000000000076
20
-54.600000000000009
10
-9.6690000000000076
20
-40.600000000000009
10
-23.669000000000011
20
-40.600000000000009
10
-23.669000000000011
20
-54.600000000000009
0
LWPOLYLINE
5
187
100
AcDbEntity
8
0
100
AcDbPolyline
90
4
70
1
43
0.0
10
-231.125
20
-2.5
10
-245.12500000000003
20
-2.5
10
-245.12500000000003
20
-16.500000000000004
10
-231.125
20
-16.500000000000004
0
LWPOLYLINE
5
188
100
AcDbEntity
8
0
100
AcDbPolyline
90
4
70
1
43
0.0
10
-250.17499999999998
20
-16.500000000000004
10
-250.17499999999998
20
-2.5
10
-264.17499999999995
20
-2.5
10
-264.17499999999995
20
-16.500000000000004
0
LWPOLYLINE
5
189
100
AcDbEntity
8
0
100
AcDbPolyline
90
4
70
1
43
0.0
10
-193.02499999999998
20
-2.5
10
-207.02500000000001
20
-2.5
10
-207.02500000000001
20
-16.500000000000004
10
-193.02499999999998
20
-16.500000000000004
0
LWPOLYLINE
5
190
100
AcDbEntity
8
0
100
AcDbPolyline
90
4
70
1
43
0.0
10
-212.07499999999996
20
-16.500000000000004
10
-212.07499999999996
20
-2.5
10
-226.07499999999993
20
-2.5
10
-226.07499999999993
20
-16.500000000000004
0
LWPOLYLINE
5
191
100
AcDbEntity
8
0
100
AcDbPolyline
90
8
70
1
43
0.0
10
-248.21899999999999
20
-54.600000000000009
10
-248.21899999999999
20
-39.63000000000001
10
-255.744
20
-39.63000000000001
10
-255.744
20
-40.600000000000009
10
-272.89399999999995
20
-40.600000000000009
10
-272.89399999999995
20
-39.63000000000001
10
-280.41899999999998
20
-39.63000000000001
10
-280.41899999999998
20
-54.600000000000009
0
LWPOLYLINE
5
192
100
AcDbEntity
8
0
100
AcDbPolyline
90
4
70
1
43
0.0
10
-123.96900000000001
20
-16.500000000000004
10
-123.96900000000001
20
-2.5
10
-137.96899999999999
20
-2.5
10
-137.96899999999999
20
-16.500000000000004
0
LWPOLYLINE
5
193
100
AcDbEntity
8
0
100
AcDbPolyline
90
4
70
1
43
0.0
10
-176.64400000000003
20
-17.469999999999999
10
-176.64400000000003
20
-1.9700000000000095
10
-185.19400000000005
20
-1.9700000000000095
10
-185.19400000000005
20
-17.469999999999999
0
LWPOLYLINE
5
194
100
AcDbEntity
8
0
100
AcDbPolyline
90
8
70
1
43
0.0
10
-5.3309999999999924
20
-35.549999999999997
10
-5.3309999999999924
20
-20.579999999999998
10
-12.856000000000005
20
-20.579999999999998
10
-12.856000000000005
20
-21.550000000000004
10
-30.006000000000004
20
-21.550000000000004
10
-30.006000000000004
20
-20.579999999999998
10
-37.530999999999999
20
-20.579999999999998
10
-37.530999999999999
20
-35.549999999999997
0
LWPOLYLINE
5
195
100
AcDbEntity
8
0
100
AcDbPolyline
90
4
70
1
43
0.0
10
-4.9060000000000059
20
-16.500000000000004
10
-4.9060000000000059
20
-2.5
10
-18.905999999999992
20
-2.5
10
-18.905999999999992
20
-16.500000000000004
0
LWPOLYLINE
5
196
100
AcDbEntity
8
0
100
AcDbPolyline
90
4
70
1
43
0.0
10
-21.575000000000006
20
-78.700000000000017
10
-35.57500000000001
20
-78.700000000000017
10
-35.57500000000001
20
-92.700000000000017
10
-21.575000000000006
20
-92.700000000000017
0
LWPOLYLINE
5
197
100
AcDbEntity
8
0
100
AcDbPolyline
90
4
70
1
43
0.0
10
-28.719000000000001
20
-16.500000000000004
10
-28.719000000000001
20
-2.5
10
-42.719000000000008
20
-2.5
10
-42.719000000000008
20
-16.500000000000004
0
LWPOLYLINE
5
198
100
AcDbEntity
8
0
100
AcDbPolyline
90
4
70
1
43
0.0
10
-283.22500000000002
20
-2.5
10
-283.22500000000002
20
-16.500000000000004
10
-269.22500000000002
20
-16.500000000000004
10
-269.22500000000002
20
-2.5
0
LWPOLYLINE
5
199
100
AcDbEntity
8
0
100
AcDbPolyline
90
4
70
1
43
0.0
10
-283.22500000000002
20
-21.550000000000004
10
-283.22500000000002
20
-35.549999999999997
10
-269.22500000000002
20
-35.549999999999997
10
-269.22500000000002
20
-21.550000000000004
0
LWPOLYLINE
5
200
100
AcDbEntity
8
0
100
AcDbPolyline
90
4
70
1
43
0.0
10
-121.58799999999999
20
-21.550000000000004
10
-135.58799999999999
20
-21.550000000000004
10
-135.58799999999999
20
-35.549999999999997
10
-121.58799999999999
20
-35.549999999999997
0
LWPOLYLINE
5
201
100
AcDbEntity
8
0
100
AcDbPolyline
90
4
70
1
43
0.0
10
-93.013000000000005
20
-40.600000000000009
10
-107.01300000000002
20
-40.600000000000009
10
-107.01300000000002
20
-54.600000000000009
10
-93.013000000000005
20
-54.600000000000009
0
LWPOLYLINE
5
202
100
AcDbEntity
8
0
100
AcDbPolyline
90
4
70
1
43
0.0
10
-85.293999999999983
20
-17.469999999999999
10
-76.744
20
-17.469999999999999
10
-76.744
20
-1.9699999999999918
10
-85.293999999999983
20
-1.9700000000000095
0
LWPOLYLINE
5
203
100
AcDbEntity
8
0
100
AcDbPolyline
90
4
70
1
43
0.0
10
-97.488000000000014
20
-35.549999999999997
10
-83.488
20
-35.549999999999997
10
-83.488
20
-21.550000000000004
10
-97.488000000000014
20
-21.550000000000004
0
LWPOLYLINE
5
204
100
AcDbEntity
8
0
100
AcDbPolyline
90
4
70
1
43
0.0
10
-102.538
20
-35.549999999999997
10
-102.538
20
-21.550000000000004
10
-116.53800000000001
20
-21.550000000000004
10
-116.53800000000001
20
-35.549999999999997
0
LWPOLYLINE
5
205
100
AcDbEntity
8
0
100
AcDbPolyline
90
4
70
1
43
0.0
10
-288.27499999999998
20
-40.600000000000009
10
-302.27499999999998
20
-40.600000000000009
10
-302.27499999999998
20
-54.600000000000009
10
-288.27499999999998
20
-54.600000000000009
0
CIRCLE
5
206
100
AcDbEntity
8
0
100
AcDbCircle
10
3.4999999999999964
20
-98.724999999999994
30
0
40
1.5000000000000002
210
0
220
-0
230
1
0
CIRCLE
5
207
100
AcDbEntity
8
0
100
AcDbCircle
10
-152.38749999999999
20
-98.724999999999994
30
0
40
1.5000000000000036
210
0
220
-0
230
1
0
LWPOLYLINE
5
208
100
AcDbEntity
8
0
100
AcDbPolyline
90
4
70
1
43
0.0
10
-16.524999999999999
20
-92.700000000000017
10
-2.524999999999995
20
-92.700000000000017
10
-2.524999999999995
20
-78.700000000000017
10
-16.524999999999999
20
-78.700000000000017
0
LWPOLYLINE
5
209
100
AcDbEntity
8
0
100
AcDbPolyline
90
8
70
1
43
0.0
10
7
20
-100.22499999999999
42
-0.4142135623731012
10
4.9999999999999645
20
-102.22499999999998
10
-309.77499999999998
20
-102.22499999999999
42
-0.41421356237309764
10
-311.77499999999998
20
-100.22499999999999
10
-311.77499999999998
20
5.0000000000000009
42
-0.41421356237309825
10
-309.77499999999998
20
7.0000000000000107
10
5.0000000000000018
20
6.9999999999999849
42
-0.41421356237309426
10
6.9999999999999929
20
5
0
ENDSEC
0
SECTION
2
OBJECTS
0
DICTIONARY
5
C
100
AcDbDictionary
3
ACAD_GROUP
350
D
3
ACAD_MLINESTYLE
350
17
0
DICTIONARY
5
D
100
AcDbDictionary
0
DICTIONARY
5
1A
330
C
100
AcDbDictionary
0
DICTIONARY
5
17
100
AcDbDictionary
0
ENDSEC
0
EOF
