%TF.GenerationSoftware,KiCad,Pcbnew,(5.1.10)-1*%
%TF.CreationDate,2021-07-24T22:52:44+07:00*%
%TF.ProjectId,65%_BLE,3635255f-424c-4452-9e6b-696361645f70,rev?*%
%TF.SameCoordinates,Original*%
%TF.FileFunction,Profile,NP*%
%FSLAX46Y46*%
G04 Gerber Fmt 4.6, Leading zero omitted, Abs format (unit mm)*
G04 Created by KiCad (PCBNEW (5.1.10)-1) date 2021-07-24 22:52:44*
%MOMM*%
%LPD*%
G01*
G04 APERTURE LIST*
%TA.AperFunction,Profile*%
%ADD10C,0.050000*%
%TD*%
%TA.AperFunction,Profile*%
%ADD11C,0.300000*%
%TD*%
G04 APERTURE END LIST*
D10*
%TO.C,SW52*%
X242206000Y-82750000D02*
X238806000Y-82750000D01*
X242206000Y-79750000D02*
X242206000Y-82750000D01*
X238806000Y-79750000D02*
X242206000Y-79750000D01*
X238806000Y-82750000D02*
X238806000Y-79750000D01*
%TO.C,SW45*%
X187437500Y-44650000D02*
X184037500Y-44650000D01*
X184037500Y-44650000D02*
X184037500Y-41650000D01*
X187437500Y-41650000D02*
X187437500Y-44650000D01*
X184037500Y-41650000D02*
X187437500Y-41650000D01*
%TO.C,SW31*%
X130287500Y-44650000D02*
X126887500Y-44650000D01*
X126887500Y-44650000D02*
X126887500Y-41650000D01*
X130287500Y-41650000D02*
X130287500Y-44650000D01*
X126887500Y-41650000D02*
X130287500Y-41650000D01*
%TO.C,SW64*%
X260238000Y-25600000D02*
X260238000Y-22600000D01*
X260238000Y-22600000D02*
X263638000Y-22600000D01*
X263638000Y-22600000D02*
X263638000Y-25600000D01*
X263638000Y-25600000D02*
X260238000Y-25600000D01*
%TO.C,SW63*%
X255475000Y-6550000D02*
X255475000Y-3550000D01*
X255475000Y-3550000D02*
X258875000Y-3550000D01*
X258875000Y-3550000D02*
X258875000Y-6550000D01*
X258875000Y-6550000D02*
X255475000Y-6550000D01*
%TO.C,SW60*%
X253168100Y-44650000D02*
X253168100Y-41650000D01*
X253168100Y-41650000D02*
X256568100Y-41650000D01*
X256568100Y-41650000D02*
X256568100Y-44650000D01*
X256568100Y-44650000D02*
X253168100Y-44650000D01*
%TO.C,SW59*%
X239825000Y-25600000D02*
X236425000Y-25600000D01*
X236425000Y-25600000D02*
X236425000Y-22600000D01*
X239825000Y-22600000D02*
X239825000Y-25600000D01*
X236425000Y-22600000D02*
X239825000Y-22600000D01*
%TO.C,SW58*%
X230300000Y-6550000D02*
X226900000Y-6550000D01*
X226900000Y-6550000D02*
X226900000Y-3550000D01*
X230300000Y-3550000D02*
X230300000Y-6550000D01*
X226900000Y-3550000D02*
X230300000Y-3550000D01*
%TO.C,SW57*%
X262618499Y-82750000D02*
X262618499Y-79750000D01*
X262618499Y-79750000D02*
X266018499Y-79750000D01*
X266018499Y-79750000D02*
X266018499Y-82750000D01*
X266018499Y-82750000D02*
X262618499Y-82750000D01*
%TO.C,SW56*%
X248331500Y-63700000D02*
X248331500Y-60700000D01*
X248331500Y-60700000D02*
X251731500Y-60700000D01*
X251731500Y-60700000D02*
X251731500Y-63700000D01*
X251731500Y-63700000D02*
X248331500Y-63700000D01*
%TO.C,SW55*%
X225537500Y-44650000D02*
X222137500Y-44650000D01*
X222137500Y-44650000D02*
X222137500Y-41650000D01*
X225537500Y-41650000D02*
X225537500Y-44650000D01*
X222137500Y-41650000D02*
X225537500Y-41650000D01*
%TO.C,SW54*%
X220775000Y-25600000D02*
X217375000Y-25600000D01*
X217375000Y-25600000D02*
X217375000Y-22600000D01*
X220775000Y-22600000D02*
X220775000Y-25600000D01*
X217375000Y-22600000D02*
X220775000Y-22600000D01*
%TO.C,SW53*%
X211250000Y-6550000D02*
X207850000Y-6550000D01*
X207850000Y-6550000D02*
X207850000Y-3550000D01*
X211250000Y-3550000D02*
X211250000Y-6550000D01*
X207850000Y-3550000D02*
X211250000Y-3550000D01*
%TO.C,SW51*%
X216012500Y-63700000D02*
X212612500Y-63700000D01*
X212612500Y-63700000D02*
X212612500Y-60700000D01*
X216012500Y-60700000D02*
X216012500Y-63700000D01*
X212612500Y-60700000D02*
X216012500Y-60700000D01*
%TO.C,SW50*%
X206487500Y-44650000D02*
X203087500Y-44650000D01*
X203087500Y-44650000D02*
X203087500Y-41650000D01*
X206487500Y-41650000D02*
X206487500Y-44650000D01*
X203087500Y-41650000D02*
X206487500Y-41650000D01*
%TO.C,SW49*%
X201725000Y-25600000D02*
X198325000Y-25600000D01*
X198325000Y-25600000D02*
X198325000Y-22600000D01*
X201725000Y-22600000D02*
X201725000Y-25600000D01*
X198325000Y-22600000D02*
X201725000Y-22600000D01*
%TO.C,SW48*%
X192200000Y-6550000D02*
X188800000Y-6550000D01*
X188800000Y-6550000D02*
X188800000Y-3550000D01*
X192200000Y-3550000D02*
X192200000Y-6550000D01*
X188800000Y-3550000D02*
X192200000Y-3550000D01*
%TO.C,SW47*%
X214993500Y-82750000D02*
X214993500Y-79750000D01*
X214993500Y-79750000D02*
X218393500Y-79750000D01*
X218393500Y-79750000D02*
X218393500Y-82750000D01*
X218393500Y-82750000D02*
X214993500Y-82750000D01*
%TO.C,SW46*%
X196962500Y-63700000D02*
X193562500Y-63700000D01*
X193562500Y-63700000D02*
X193562500Y-60700000D01*
X196962500Y-60700000D02*
X196962500Y-63700000D01*
X193562500Y-60700000D02*
X196962500Y-60700000D01*
%TO.C,SW44*%
X182675000Y-25600000D02*
X179275000Y-25600000D01*
X179275000Y-25600000D02*
X179275000Y-22600000D01*
X182675000Y-22600000D02*
X182675000Y-25600000D01*
X179275000Y-22600000D02*
X182675000Y-22600000D01*
%TO.C,SW43*%
X173150000Y-6550000D02*
X169750000Y-6550000D01*
X169750000Y-6550000D02*
X169750000Y-3550000D01*
X173150000Y-3550000D02*
X173150000Y-6550000D01*
X169750000Y-3550000D02*
X173150000Y-3550000D01*
%TO.C,SW42*%
X191181000Y-82750000D02*
X191181000Y-79750000D01*
X191181000Y-79750000D02*
X194581000Y-79750000D01*
X194581000Y-79750000D02*
X194581000Y-82750000D01*
X194581000Y-82750000D02*
X191181000Y-82750000D01*
%TO.C,SW41*%
X177912500Y-63700000D02*
X174512500Y-63700000D01*
X174512500Y-63700000D02*
X174512500Y-60700000D01*
X177912500Y-60700000D02*
X177912500Y-63700000D01*
X174512500Y-60700000D02*
X177912500Y-60700000D01*
%TO.C,SW40*%
X168387500Y-44650000D02*
X164987500Y-44650000D01*
X164987500Y-44650000D02*
X164987500Y-41650000D01*
X168387500Y-41650000D02*
X168387500Y-44650000D01*
X164987500Y-41650000D02*
X168387500Y-41650000D01*
%TO.C,SW39*%
X163625000Y-25600000D02*
X160225000Y-25600000D01*
X160225000Y-25600000D02*
X160225000Y-22600000D01*
X163625000Y-22600000D02*
X163625000Y-25600000D01*
X160225000Y-22600000D02*
X163625000Y-22600000D01*
%TO.C,SW38*%
X154100000Y-6550000D02*
X150700000Y-6550000D01*
X150700000Y-6550000D02*
X150700000Y-3550000D01*
X154100000Y-3550000D02*
X154100000Y-6550000D01*
X150700000Y-3550000D02*
X154100000Y-3550000D01*
%TO.C,SW37*%
X158862500Y-63700000D02*
X155462500Y-63700000D01*
X155462500Y-63700000D02*
X155462500Y-60700000D01*
X158862500Y-60700000D02*
X158862500Y-63700000D01*
X155462500Y-60700000D02*
X158862500Y-60700000D01*
%TO.C,SW36*%
X149337500Y-44650000D02*
X145937500Y-44650000D01*
X145937500Y-44650000D02*
X145937500Y-41650000D01*
X149337500Y-41650000D02*
X149337500Y-44650000D01*
X145937500Y-41650000D02*
X149337500Y-41650000D01*
%TO.C,SW35*%
X144575000Y-25600000D02*
X141175000Y-25600000D01*
X141175000Y-25600000D02*
X141175000Y-22600000D01*
X144575000Y-22600000D02*
X144575000Y-25600000D01*
X141175000Y-22600000D02*
X144575000Y-22600000D01*
%TO.C,SW34*%
X135050000Y-6550000D02*
X131650000Y-6550000D01*
X131650000Y-6550000D02*
X131650000Y-3550000D01*
X135050000Y-3550000D02*
X135050000Y-6550000D01*
X131650000Y-3550000D02*
X135050000Y-3550000D01*
%TO.C,SW33*%
X119743500Y-82750000D02*
X119743500Y-79750000D01*
X119743500Y-79750000D02*
X123143500Y-79750000D01*
X123143500Y-79750000D02*
X123143500Y-82750000D01*
X123143500Y-82750000D02*
X119743500Y-82750000D01*
%TO.C,SW32*%
X139812500Y-63700000D02*
X136412500Y-63700000D01*
X136412500Y-63700000D02*
X136412500Y-60700000D01*
X139812500Y-60700000D02*
X139812500Y-63700000D01*
X136412500Y-60700000D02*
X139812500Y-60700000D01*
%TO.C,SW30*%
X125525000Y-25600000D02*
X122125000Y-25600000D01*
X122125000Y-25600000D02*
X122125000Y-22600000D01*
X125525000Y-22600000D02*
X125525000Y-25600000D01*
X122125000Y-22600000D02*
X125525000Y-22600000D01*
%TO.C,SW29*%
X116000000Y-6550000D02*
X112600000Y-6550000D01*
X112600000Y-6550000D02*
X112600000Y-3550000D01*
X116000000Y-3550000D02*
X116000000Y-6550000D01*
X112600000Y-3550000D02*
X116000000Y-3550000D01*
%TO.C,SW28*%
X120762500Y-63700000D02*
X117362500Y-63700000D01*
X117362500Y-63700000D02*
X117362500Y-60700000D01*
X120762500Y-60700000D02*
X120762500Y-63700000D01*
X117362500Y-60700000D02*
X120762500Y-60700000D01*
%TO.C,SW27*%
X111237500Y-44650000D02*
X107837500Y-44650000D01*
X107837500Y-44650000D02*
X107837500Y-41650000D01*
X111237500Y-41650000D02*
X111237500Y-44650000D01*
X107837500Y-41650000D02*
X111237500Y-41650000D01*
%TO.C,SW26*%
X106475000Y-25600000D02*
X103075000Y-25600000D01*
X103075000Y-25600000D02*
X103075000Y-22600000D01*
X106475000Y-22600000D02*
X106475000Y-25600000D01*
X103075000Y-22600000D02*
X106475000Y-22600000D01*
%TO.C,SW25*%
X96950000Y-6550000D02*
X93550000Y-6550000D01*
X93550000Y-6550000D02*
X93550000Y-3550000D01*
X96950000Y-3550000D02*
X96950000Y-6550000D01*
X93550000Y-3550000D02*
X96950000Y-3550000D01*
%TO.C,SW24*%
X101712500Y-63700000D02*
X98312500Y-63700000D01*
X98312500Y-63700000D02*
X98312500Y-60700000D01*
X101712500Y-60700000D02*
X101712500Y-63700000D01*
X98312500Y-60700000D02*
X101712500Y-60700000D01*
%TO.C,SW23*%
X92187500Y-44650000D02*
X88787500Y-44650000D01*
X88787500Y-44650000D02*
X88787500Y-41650000D01*
X92187500Y-41650000D02*
X92187500Y-44650000D01*
X88787500Y-41650000D02*
X92187500Y-41650000D01*
%TO.C,SW22*%
X87425000Y-25600000D02*
X84025000Y-25600000D01*
X84025000Y-25600000D02*
X84025000Y-22600000D01*
X87425000Y-22600000D02*
X87425000Y-25600000D01*
X84025000Y-22600000D02*
X87425000Y-22600000D01*
%TO.C,SW21*%
X77900000Y-6550000D02*
X74500000Y-6550000D01*
X74500000Y-6550000D02*
X74500000Y-3550000D01*
X77900000Y-3550000D02*
X77900000Y-6550000D01*
X74500000Y-3550000D02*
X77900000Y-3550000D01*
%TO.C,SW20*%
X82662500Y-63700000D02*
X79262500Y-63700000D01*
X79262500Y-63700000D02*
X79262500Y-60700000D01*
X82662500Y-60700000D02*
X82662500Y-63700000D01*
X79262500Y-60700000D02*
X82662500Y-60700000D01*
%TO.C,SW19*%
X73137500Y-44650000D02*
X69737500Y-44650000D01*
X69737500Y-44650000D02*
X69737500Y-41650000D01*
X73137500Y-41650000D02*
X73137500Y-44650000D01*
X69737500Y-41650000D02*
X73137500Y-41650000D01*
%TO.C,SW18*%
X68375000Y-25600000D02*
X64975000Y-25600000D01*
X64975000Y-25600000D02*
X64975000Y-22600000D01*
X68375000Y-22600000D02*
X68375000Y-25600000D01*
X64975000Y-22600000D02*
X68375000Y-22600000D01*
%TO.C,SW17*%
X58850000Y-6550000D02*
X55450000Y-6550000D01*
X55450000Y-6550000D02*
X55450000Y-3550000D01*
X58850000Y-3550000D02*
X58850000Y-6550000D01*
X55450000Y-3550000D02*
X58850000Y-3550000D01*
%TO.C,SW15*%
X48306000Y-82750000D02*
X48306000Y-79750000D01*
X48306000Y-79750000D02*
X51706000Y-79750000D01*
X51706000Y-79750000D02*
X51706000Y-82750000D01*
X51706000Y-82750000D02*
X48306000Y-82750000D01*
%TO.C,SW14*%
X63612500Y-63700000D02*
X60212500Y-63700000D01*
X60212500Y-63700000D02*
X60212500Y-60700000D01*
X63612500Y-60700000D02*
X63612500Y-63700000D01*
X60212500Y-60700000D02*
X63612500Y-60700000D01*
%TO.C,SW13*%
X54087500Y-44650000D02*
X50687500Y-44650000D01*
X50687500Y-44650000D02*
X50687500Y-41650000D01*
X54087500Y-41650000D02*
X54087500Y-44650000D01*
X50687500Y-41650000D02*
X54087500Y-41650000D01*
%TO.C,SW12*%
X49325000Y-25600000D02*
X45925000Y-25600000D01*
X45925000Y-25600000D02*
X45925000Y-22600000D01*
X49325000Y-22600000D02*
X49325000Y-25600000D01*
X45925000Y-22600000D02*
X49325000Y-22600000D01*
%TO.C,SW11*%
X39800000Y-6550000D02*
X36400000Y-6550000D01*
X36400000Y-6550000D02*
X36400000Y-3550000D01*
X39800000Y-3550000D02*
X39800000Y-6550000D01*
X36400000Y-3550000D02*
X39800000Y-3550000D01*
%TO.C,SW10*%
X24493500Y-82750000D02*
X24493500Y-79750000D01*
X24493500Y-79750000D02*
X27893500Y-79750000D01*
X27893500Y-79750000D02*
X27893500Y-82750000D01*
X27893500Y-82750000D02*
X24493500Y-82750000D01*
%TO.C,SW9*%
X44562500Y-63700000D02*
X41162500Y-63700000D01*
X41162500Y-63700000D02*
X41162500Y-60700000D01*
X44562500Y-60700000D02*
X44562500Y-63700000D01*
X41162500Y-60700000D02*
X44562500Y-60700000D01*
%TO.C,SW8*%
X35037500Y-44650000D02*
X31637500Y-44650000D01*
X31637500Y-44650000D02*
X31637500Y-41650000D01*
X35037500Y-41650000D02*
X35037500Y-44650000D01*
X31637500Y-41650000D02*
X35037500Y-41650000D01*
%TO.C,SW7*%
X30275000Y-25600000D02*
X26875000Y-25600000D01*
X26875000Y-25600000D02*
X26875000Y-22600000D01*
X30275000Y-22600000D02*
X30275000Y-25600000D01*
X26875000Y-22600000D02*
X30275000Y-22600000D01*
%TO.C,SW6*%
X17350000Y6550000D02*
X20750000Y6550000D01*
X20750000Y6550000D02*
X20750000Y3550000D01*
X17350000Y3550000D02*
X17350000Y6550000D01*
X20750000Y3550000D02*
X17350000Y3550000D01*
%TO.C,SW5*%
X681000Y-82750000D02*
X681000Y-79750000D01*
X681000Y-79750000D02*
X4081000Y-79750000D01*
X4081000Y-79750000D02*
X4081000Y-82750000D01*
X4081000Y-82750000D02*
X681000Y-82750000D01*
%TO.C,SW4*%
X10280600Y-63700000D02*
X10280600Y-60700000D01*
X10280600Y-60700000D02*
X13680600Y-60700000D01*
X13680600Y-60700000D02*
X13680600Y-63700000D01*
X13680600Y-63700000D02*
X10280600Y-63700000D01*
%TO.C,SW3*%
X5444000Y-44650000D02*
X5444000Y-41650000D01*
X5444000Y-41650000D02*
X8844000Y-41650000D01*
X8844000Y-41650000D02*
X8844000Y-44650000D01*
X8844000Y-44650000D02*
X5444000Y-44650000D01*
%TO.C,SW2*%
X3063000Y-25600000D02*
X3063000Y-22600000D01*
X3063000Y-22600000D02*
X6463000Y-22600000D01*
X6463000Y-22600000D02*
X6463000Y-25600000D01*
X6463000Y-25600000D02*
X3063000Y-25600000D01*
%TO.C,SW1*%
X-1700000Y6550000D02*
X1700000Y6550000D01*
X1700000Y6550000D02*
X1700000Y3550000D01*
X-1700000Y3550000D02*
X-1700000Y6550000D01*
X1700000Y3550000D02*
X-1700000Y3550000D01*
D11*
%TO.C,REF\u002A\u002A*%
X-7201000Y-85369800D02*
X273799000Y-85369800D01*
X273799000Y9230200D02*
X-7201000Y9230200D01*
X-9201000Y-83369800D02*
X-9201000Y-48669800D01*
X-9201000Y-48669800D02*
X-5401000Y-48669800D01*
X-5401000Y-45869800D02*
X-9201000Y-45869800D01*
X-9201000Y-45869800D02*
X-9201000Y7230200D01*
X275799000Y-48669800D02*
X275799000Y-83369800D01*
X275799000Y-45869800D02*
X275799000Y7230200D01*
X271999000Y-48669800D02*
X275799000Y-48669800D01*
X271999000Y-45869800D02*
X275799000Y-45869800D01*
X-5401000Y-48669800D02*
G75*
G03*
X-4001000Y-47269800I0J1400000D01*
G01*
X271999000Y-48669800D02*
G75*
G02*
X270599000Y-47269800I0J1400000D01*
G01*
X270599000Y-47269800D02*
G75*
G02*
X271999000Y-45869800I1400000J0D01*
G01*
X-4001000Y-47269800D02*
G75*
G03*
X-5401000Y-45869800I-1400000J0D01*
G01*
X275799000Y7230200D02*
G75*
G03*
X273799000Y9230200I-2000000J0D01*
G01*
X273799000Y-85369800D02*
G75*
G03*
X275799000Y-83369800I0J2000000D01*
G01*
X-9201000Y-83369800D02*
G75*
G03*
X-7201000Y-85369800I2000000J0D01*
G01*
X-7201000Y9230200D02*
G75*
G03*
X-9201000Y7230200I0J-2000000D01*
G01*
%TD*%
M02*
