%TF.GenerationSoftware,KiCad,Pcbnew,(5.1.10)-1*%
%TF.CreationDate,2021-06-20T12:47:20+07:00*%
%TF.ProjectId,Ansi,416e7369-2e6b-4696-9361-645f70636258,rev?*%
%TF.SameCoordinates,Original*%
%TF.FileFunction,Soldermask,Top*%
%TF.FilePolarity,Negative*%
%FSLAX46Y46*%
G04 Gerber Fmt 4.6, Leading zero omitted, Abs format (unit mm)*
G04 Created by KiCad (PCBNEW (5.1.10)-1) date 2021-06-20 12:47:20*
%MOMM*%
%LPD*%
G01*
G04 APERTURE LIST*
%ADD10C,2.000000*%
G04 APERTURE END LIST*
D10*
X202425630Y-146139537D02*
G75*
G03*
X202425630Y-146139537I-1350000J0D01*
G01*
X4726280Y-146139537D02*
G75*
G03*
X4726280Y-146139537I-1350000J0D01*
G01*
X79726280Y-146139537D02*
G75*
G03*
X79726280Y-146139537I-1350000J0D01*
G01*
X276478136Y-75640643D02*
G75*
G03*
X276478136Y-75640643I-3238500J0D01*
G01*
X202425630Y-43140207D02*
G75*
G03*
X202425630Y-43140207I-1350000J0D01*
G01*
X277425630Y-43140207D02*
G75*
G03*
X277425630Y-43140207I-1350000J0D01*
G01*
X277425630Y-146139537D02*
G75*
G03*
X277425630Y-146139537I-1350000J0D01*
G01*
X4726280Y-43140207D02*
G75*
G03*
X4726280Y-43140207I-1350000J0D01*
G01*
X79726280Y-43140207D02*
G75*
G03*
X79726280Y-43140207I-1350000J0D01*
G01*
X79588980Y-119790380D02*
X79588980Y-107590380D01*
X79888980Y-120090380D02*
G75*
G02*
X79588980Y-119790380I0J300000D01*
G01*
X94788980Y-120090380D02*
X79888980Y-120090380D01*
X95088979Y-119790381D02*
G75*
G02*
X94788980Y-120090380I-299999J0D01*
G01*
X95088980Y-107590380D02*
X95088980Y-119790380D01*
X94788980Y-107290380D02*
G75*
G02*
X95088980Y-107590380I0J-300000D01*
G01*
X79888980Y-107290380D02*
X94788980Y-107290380D01*
X79588980Y-107590380D02*
G75*
G02*
X79888980Y-107290380I300000J0D01*
G01*
X2855230Y-103725380D02*
X2855230Y-98515380D01*
X185229Y-103725380D02*
X2855230Y-103725380D01*
X185229Y-98515380D02*
X185229Y-103725380D01*
X2855230Y-98515380D02*
X185229Y-98515380D01*
X132276480Y-62940380D02*
G75*
G02*
X131976480Y-62640380I0J300000D01*
G01*
X131976480Y-50440380D02*
X131976480Y-62640380D01*
X131976480Y-50440380D02*
G75*
G02*
X132276480Y-50140380I300000J0D01*
G01*
X147176480Y-50140380D02*
X132276480Y-50140380D01*
X147176480Y-50140380D02*
G75*
G02*
X147476480Y-50440380I0J-300000D01*
G01*
X147476480Y-62640380D02*
X147476480Y-50440380D01*
X147476480Y-62640380D02*
G75*
G02*
X147176480Y-62940380I-300000J0D01*
G01*
X132276480Y-62940380D02*
X147176480Y-62940380D01*
X265626480Y-107290381D02*
X280526480Y-107290380D01*
X265326481Y-107590380D02*
G75*
G02*
X265626480Y-107290381I299999J0D01*
G01*
X265326480Y-119790380D02*
X265326480Y-107590380D01*
X265626480Y-120090380D02*
G75*
G02*
X265326480Y-119790380I0J300000D01*
G01*
X280526480Y-120090380D02*
X265626480Y-120090380D01*
X280826480Y-119790380D02*
G75*
G02*
X280526480Y-120090380I-300000J0D01*
G01*
X280826480Y-107590380D02*
X280826480Y-119790380D01*
X280526479Y-107290381D02*
G75*
G02*
X280826480Y-107590380I1J-300000D01*
G01*
X175751480Y-81990381D02*
X160851480Y-81990380D01*
X176051480Y-81690379D02*
G75*
G02*
X175751480Y-81990381I-300001J-1D01*
G01*
X176051480Y-69490380D02*
X176051480Y-81690380D01*
X175751480Y-69190380D02*
G75*
G02*
X176051480Y-69490380I0J-300000D01*
G01*
X160851480Y-69190380D02*
X175751480Y-69190381D01*
X160551480Y-69490380D02*
G75*
G02*
X160851480Y-69190380I300000J0D01*
G01*
X160551480Y-81690380D02*
X160551480Y-69490380D01*
X160851480Y-81990380D02*
G75*
G02*
X160551480Y-81690380I0J300000D01*
G01*
X74826480Y-62640380D02*
X74826480Y-50440380D01*
X75126480Y-62940380D02*
G75*
G02*
X74826480Y-62640380I0J300000D01*
G01*
X90026480Y-62940380D02*
X75126480Y-62940380D01*
X90326480Y-62640380D02*
G75*
G02*
X90026480Y-62940380I-300000J0D01*
G01*
X90326480Y-50440380D02*
X90326480Y-62640380D01*
X90026480Y-50140380D02*
G75*
G02*
X90326480Y-50440380I0J-300000D01*
G01*
X75126480Y-50140380D02*
X90026480Y-50140380D01*
X74826479Y-50440379D02*
G75*
G02*
X75126480Y-50140380I300000J-1D01*
G01*
X166276180Y-141823731D02*
X168943180Y-141823731D01*
X166276180Y-136616031D02*
X166276180Y-141823731D01*
X168943180Y-136616031D02*
X166276180Y-136616031D01*
X168943180Y-141823731D02*
X168943180Y-136616031D01*
X146563979Y-101040381D02*
G75*
G02*
X146263980Y-100740380I1J300000D01*
G01*
X146263980Y-88540380D02*
X146263980Y-100740380D01*
X146263980Y-88540380D02*
G75*
G02*
X146563980Y-88240380I300000J0D01*
G01*
X161463980Y-88240380D02*
X146563980Y-88240380D01*
X161463978Y-88240380D02*
G75*
G02*
X161763980Y-88540380I1J-300001D01*
G01*
X161763980Y-100740380D02*
X161763980Y-88540380D01*
X161763979Y-100740381D02*
G75*
G02*
X161463980Y-101040380I-299999J0D01*
G01*
X146563980Y-101040380D02*
X161463980Y-101040380D01*
X260863980Y-126340381D02*
X275763980Y-126340380D01*
X260563980Y-126640379D02*
G75*
G02*
X260863980Y-126340381I299999J-1D01*
G01*
X260563980Y-138840380D02*
X260563980Y-126640380D01*
X260863980Y-139140380D02*
G75*
G02*
X260563980Y-138840380I0J300000D01*
G01*
X275763980Y-139140380D02*
X260863980Y-139140380D01*
X276063980Y-138840380D02*
G75*
G02*
X275763980Y-139140380I-300000J0D01*
G01*
X276063980Y-126640380D02*
X276063980Y-138840380D01*
X275763980Y-126340380D02*
G75*
G02*
X276063980Y-126640380I0J-300000D01*
G01*
X151938980Y-107290380D02*
G75*
G02*
X152238980Y-107590380I0J-300000D01*
G01*
X152238980Y-119790380D02*
X152238980Y-107590380D01*
X152238979Y-119790381D02*
G75*
G02*
X151938980Y-120090380I-299999J0D01*
G01*
X137038980Y-120090381D02*
X151938980Y-120090380D01*
X137038980Y-120090381D02*
G75*
G02*
X136738979Y-119790380I0J300001D01*
G01*
X136738980Y-107590380D02*
X136738979Y-119790380D01*
X136738979Y-107590379D02*
G75*
G02*
X137038980Y-107290380I300000J-1D01*
G01*
X151938980Y-107290380D02*
X137038980Y-107290380D01*
X168943180Y-128863731D02*
X168943180Y-123656031D01*
X166276180Y-128863731D02*
X168943180Y-128863731D01*
X166276180Y-123656031D02*
X166276180Y-128863731D01*
X168943180Y-123656031D02*
X166276180Y-123656031D01*
X37026480Y-50140380D02*
X51926480Y-50140380D01*
X36726480Y-50440380D02*
G75*
G02*
X37026480Y-50140380I300000J0D01*
G01*
X36726480Y-62640380D02*
X36726480Y-50440380D01*
X37026480Y-62940380D02*
G75*
G02*
X36726480Y-62640380I0J300000D01*
G01*
X51926480Y-62940380D02*
X37026480Y-62940380D01*
X52226479Y-62640379D02*
G75*
G02*
X51926480Y-62940380I-300000J-1D01*
G01*
X52226479Y-50440380D02*
X52226480Y-62640380D01*
X51926479Y-50140380D02*
G75*
G02*
X52226479Y-50440380I0J-300000D01*
G01*
X41788980Y-107290380D02*
X56688980Y-107290380D01*
X41488980Y-107590380D02*
G75*
G02*
X41788980Y-107290380I300000J0D01*
G01*
X41488980Y-119790380D02*
X41488980Y-107590380D01*
X41788980Y-120090380D02*
G75*
G02*
X41488980Y-119790380I0J300000D01*
G01*
X56688980Y-120090380D02*
X41788980Y-120090380D01*
X56988980Y-119790380D02*
G75*
G02*
X56688980Y-120090380I-300000J0D01*
G01*
X56988980Y-107590380D02*
X56988980Y-119790380D01*
X56688980Y-107290380D02*
G75*
G02*
X56988980Y-107590380I0J-300000D01*
G01*
X56076480Y-50140380D02*
X70976480Y-50140380D01*
X55776480Y-50440380D02*
G75*
G02*
X56076480Y-50140380I300000J0D01*
G01*
X55776479Y-62640380D02*
X55776480Y-50440380D01*
X56076480Y-62940381D02*
G75*
G02*
X55776479Y-62640380I0J300001D01*
G01*
X70976480Y-62940380D02*
X56076480Y-62940380D01*
X71276479Y-62640379D02*
G75*
G02*
X70976480Y-62940380I-300000J-1D01*
G01*
X71276480Y-50440380D02*
X71276480Y-62640380D01*
X70976480Y-50140380D02*
G75*
G02*
X71276480Y-50440380I0J-300000D01*
G01*
X272247438Y-70623984D02*
X274431838Y-70623984D01*
X272247438Y-68490384D02*
X272247438Y-70623984D01*
X274431838Y-68490384D02*
X272247438Y-68490384D01*
X274431838Y-70623984D02*
X274431838Y-68490384D01*
X228438980Y-126640380D02*
X228438980Y-138840380D01*
X228138980Y-126340380D02*
G75*
G02*
X228438980Y-126640380I0J-300000D01*
G01*
X213238980Y-126340381D02*
X228138980Y-126340380D01*
X212938980Y-126640379D02*
G75*
G02*
X213238980Y-126340381I299999J-1D01*
G01*
X212938980Y-138840380D02*
X212938980Y-126640380D01*
X213238980Y-139140380D02*
G75*
G02*
X212938980Y-138840380I0J300000D01*
G01*
X228138980Y-139140380D02*
X213238980Y-139140381D01*
X228438980Y-138840380D02*
G75*
G02*
X228138980Y-139140380I-300000J0D01*
G01*
X27501480Y-81990380D02*
G75*
G02*
X27201480Y-81690380I0J300000D01*
G01*
X27201479Y-69490380D02*
X27201480Y-81690380D01*
X27201479Y-69490379D02*
G75*
G02*
X27501480Y-69190380I300000J-1D01*
G01*
X42401480Y-69190380D02*
X27501480Y-69190380D01*
X42401480Y-69190381D02*
G75*
G02*
X42701479Y-69490380I0J-299999D01*
G01*
X42701479Y-81690380D02*
X42701479Y-69490380D01*
X42701480Y-81690380D02*
G75*
G02*
X42401480Y-81990380I-300000J0D01*
G01*
X27501479Y-81990380D02*
X42401480Y-81990380D01*
X280526480Y-62940381D02*
X265626480Y-62940380D01*
X280826481Y-62640380D02*
G75*
G02*
X280526480Y-62940381I-300001J0D01*
G01*
X280826480Y-50440380D02*
X280826480Y-62640380D01*
X280526478Y-50140380D02*
G75*
G02*
X280826480Y-50440380I1J-300001D01*
G01*
X265626480Y-50140380D02*
X280526480Y-50140380D01*
X265326480Y-50440380D02*
G75*
G02*
X265626480Y-50140380I300000J0D01*
G01*
X265326480Y-62640380D02*
X265326480Y-50440380D01*
X265626479Y-62940381D02*
G75*
G02*
X265326480Y-62640380I1J300000D01*
G01*
X80501480Y-69190381D02*
G75*
G02*
X80801479Y-69490380I0J-299999D01*
G01*
X80801480Y-81690380D02*
X80801479Y-69490380D01*
X80801480Y-81690380D02*
G75*
G02*
X80501480Y-81990380I-300000J0D01*
G01*
X65601480Y-81990380D02*
X80501480Y-81990380D01*
X65601480Y-81990380D02*
G75*
G02*
X65301480Y-81690380I0J300000D01*
G01*
X65301479Y-69490380D02*
X65301480Y-81690380D01*
X65301479Y-69490379D02*
G75*
G02*
X65601480Y-69190380I300000J-1D01*
G01*
X80501480Y-69190380D02*
X65601480Y-69190380D01*
X253420230Y-88540380D02*
G75*
G02*
X253720230Y-88240380I300000J0D01*
G01*
X268620230Y-88240380D02*
X253720230Y-88240380D01*
X268620230Y-88240380D02*
G75*
G02*
X268920230Y-88540380I0J-300000D01*
G01*
X268920230Y-100740380D02*
X268920230Y-88540380D01*
X268920230Y-100740380D02*
G75*
G02*
X268620230Y-101040380I-300000J0D01*
G01*
X253720230Y-101040380D02*
X268620230Y-101040380D01*
X253720230Y-101040380D02*
G75*
G02*
X253420230Y-100740380I0J300000D01*
G01*
X253420230Y-88540380D02*
X253420230Y-100740380D01*
X198951480Y-69190380D02*
X213851480Y-69190380D01*
X198651480Y-69490380D02*
G75*
G02*
X198951480Y-69190380I300000J0D01*
G01*
X198651480Y-81690380D02*
X198651480Y-69490380D01*
X198951480Y-81990380D02*
G75*
G02*
X198651480Y-81690380I0J300000D01*
G01*
X213851480Y-81990380D02*
X198951480Y-81990380D01*
X214151480Y-81690380D02*
G75*
G02*
X213851480Y-81990380I-300000J0D01*
G01*
X214151480Y-69490380D02*
X214151480Y-81690380D01*
X213851480Y-69190380D02*
G75*
G02*
X214151480Y-69490380I0J-300000D01*
G01*
X254332729Y-107290381D02*
G75*
G02*
X254632730Y-107590380I1J-300000D01*
G01*
X254632730Y-119790380D02*
X254632730Y-107590380D01*
X254632731Y-119790380D02*
G75*
G02*
X254332730Y-120090381I-300001J0D01*
G01*
X239432730Y-120090381D02*
X254332730Y-120090381D01*
X239432730Y-120090380D02*
G75*
G02*
X239132730Y-119790380I0J300000D01*
G01*
X239132730Y-107590380D02*
X239132730Y-119790380D01*
X239132730Y-107590380D02*
G75*
G02*
X239432730Y-107290380I300000J0D01*
G01*
X254332730Y-107290380D02*
X239432730Y-107290380D01*
X218913980Y-88540380D02*
X218913980Y-100740380D01*
X218613980Y-88240380D02*
G75*
G02*
X218913980Y-88540380I0J-300000D01*
G01*
X203713980Y-88240380D02*
X218613980Y-88240380D01*
X203413980Y-88540380D02*
G75*
G02*
X203713980Y-88240380I300000J0D01*
G01*
X203413980Y-100740380D02*
X203413980Y-88540380D01*
X203713980Y-101040380D02*
G75*
G02*
X203413980Y-100740380I0J300000D01*
G01*
X218613980Y-101040380D02*
X203713980Y-101040380D01*
X218913980Y-100740380D02*
G75*
G02*
X218613980Y-101040380I-300000J0D01*
G01*
X195101480Y-81690380D02*
G75*
G02*
X194801480Y-81990380I-300000J0D01*
G01*
X179901480Y-81990380D02*
X194801480Y-81990380D01*
X179901480Y-81990380D02*
G75*
G02*
X179601480Y-81690380I0J300000D01*
G01*
X179601480Y-69490380D02*
X179601480Y-81690380D01*
X179601479Y-69490379D02*
G75*
G02*
X179901480Y-69190380I300000J-1D01*
G01*
X194801480Y-69190380D02*
X179901480Y-69190380D01*
X194801480Y-69190380D02*
G75*
G02*
X195101480Y-69490380I0J-300000D01*
G01*
X195101480Y-81690380D02*
X195101480Y-69490380D01*
X151326480Y-62940380D02*
G75*
G02*
X151026480Y-62640380I0J300000D01*
G01*
X151026480Y-50440380D02*
X151026480Y-62640380D01*
X151026480Y-50440380D02*
G75*
G02*
X151326480Y-50140380I300000J0D01*
G01*
X166226480Y-50140380D02*
X151326480Y-50140380D01*
X166226479Y-50140381D02*
G75*
G02*
X166526480Y-50440380I1J-300000D01*
G01*
X166526480Y-62640380D02*
X166526480Y-50440380D01*
X166526480Y-62640380D02*
G75*
G02*
X166226480Y-62940380I-300000J0D01*
G01*
X151326480Y-62940380D02*
X166226480Y-62940380D01*
X5617729Y-117565380D02*
X2947729Y-117565380D01*
X5617729Y-122775380D02*
X5617729Y-117565380D01*
X2947729Y-122775380D02*
X5617729Y-122775380D01*
X2947729Y-117565380D02*
X2947729Y-122775380D01*
X60838980Y-120090380D02*
G75*
G02*
X60538980Y-119790380I0J300000D01*
G01*
X60538980Y-107590380D02*
X60538980Y-119790380D01*
X60538980Y-107590380D02*
G75*
G02*
X60838980Y-107290380I300000J0D01*
G01*
X75738979Y-107290380D02*
X60838980Y-107290380D01*
X75738980Y-107290380D02*
G75*
G02*
X76038980Y-107590380I0J-300000D01*
G01*
X76038979Y-119790380D02*
X76038980Y-107590380D01*
X76038979Y-119790382D02*
G75*
G02*
X75738979Y-120090380I-299999J1D01*
G01*
X60838980Y-120090380D02*
X75738979Y-120090380D01*
X260217730Y-122775380D02*
X260217730Y-117565380D01*
X257547730Y-122775380D02*
X260217730Y-122775380D01*
X257547730Y-117565380D02*
X257547730Y-122775380D01*
X260217730Y-117565380D02*
X257547730Y-117565380D01*
X17976480Y-50140380D02*
X32876480Y-50140380D01*
X17676480Y-50440380D02*
G75*
G02*
X17976480Y-50140380I300000J0D01*
G01*
X17676479Y-62640380D02*
X17676480Y-50440380D01*
X17976480Y-62940381D02*
G75*
G02*
X17676479Y-62640380I0J300001D01*
G01*
X32876480Y-62940380D02*
X17976479Y-62940380D01*
X33176479Y-62640379D02*
G75*
G02*
X32876480Y-62940380I-300000J-1D01*
G01*
X33176480Y-50440380D02*
X33176480Y-62640380D01*
X32876479Y-50140379D02*
G75*
G02*
X33176480Y-50440380I0J-300001D01*
G01*
X21270230Y-88540380D02*
X21270230Y-100740380D01*
X20970230Y-88240380D02*
G75*
G02*
X21270230Y-88540380I0J-300000D01*
G01*
X6070230Y-88240380D02*
X20970230Y-88240380D01*
X5770229Y-88540379D02*
G75*
G02*
X6070230Y-88240380I300000J-1D01*
G01*
X5770230Y-100740380D02*
X5770229Y-88540380D01*
X6070230Y-101040380D02*
G75*
G02*
X5770230Y-100740380I0J300000D01*
G01*
X20970230Y-101040380D02*
X6070230Y-101040380D01*
X21270230Y-100740380D02*
G75*
G02*
X20970230Y-101040380I-300000J0D01*
G01*
X272247438Y-82790902D02*
X274431838Y-82790902D01*
X272247438Y-80657302D02*
X272247438Y-82790902D01*
X274431838Y-80657302D02*
X272247438Y-80657302D01*
X274431838Y-82790902D02*
X274431838Y-80657302D01*
X26855230Y-103725380D02*
X26855230Y-98515380D01*
X24185230Y-103725380D02*
X26855230Y-103725380D01*
X24185230Y-98515380D02*
X24185230Y-103725380D01*
X26855230Y-98515380D02*
X24185230Y-98515380D01*
X13826479Y-50140379D02*
G75*
G02*
X14126480Y-50440380I0J-300001D01*
G01*
X14126480Y-62640380D02*
X14126480Y-50440380D01*
X14126479Y-62640379D02*
G75*
G02*
X13826480Y-62940380I-300000J-1D01*
G01*
X-1073520Y-62940380D02*
X13826480Y-62940380D01*
X-1073520Y-62940381D02*
G75*
G02*
X-1373521Y-62640380I0J300001D01*
G01*
X-1373520Y-50440380D02*
X-1373521Y-62640380D01*
X-1373520Y-50440380D02*
G75*
G02*
X-1073520Y-50140380I300000J0D01*
G01*
X13826480Y-50140380D02*
X-1073520Y-50140380D01*
X70363980Y-88240380D02*
X85263980Y-88240380D01*
X70063980Y-88540380D02*
G75*
G02*
X70363980Y-88240380I300000J0D01*
G01*
X70063980Y-100740380D02*
X70063980Y-88540380D01*
X70363979Y-101040381D02*
G75*
G02*
X70063980Y-100740380I1J300000D01*
G01*
X85263980Y-101040380D02*
X70363980Y-101040380D01*
X85563980Y-100740380D02*
G75*
G02*
X85263980Y-101040380I-300000J0D01*
G01*
X85563980Y-88540380D02*
X85563980Y-100740380D01*
X85263980Y-88240380D02*
G75*
G02*
X85563980Y-88540380I0J-300000D01*
G01*
X3388980Y-81690380D02*
X3388980Y-69490380D01*
X3688980Y-81990380D02*
G75*
G02*
X3388980Y-81690380I0J300000D01*
G01*
X18588980Y-81990380D02*
X3688979Y-81990380D01*
X18888979Y-81690379D02*
G75*
G02*
X18588980Y-81990380I-300000J-1D01*
G01*
X18888980Y-69490380D02*
X18888980Y-81690380D01*
X18588980Y-69190380D02*
G75*
G02*
X18888980Y-69490380I0J-300000D01*
G01*
X3688980Y-69190380D02*
X18588980Y-69190380D01*
X3388979Y-69490379D02*
G75*
G02*
X3688980Y-69190380I300000J-1D01*
G01*
X147176480Y-126340380D02*
G75*
G02*
X147476480Y-126640380I0J-300000D01*
G01*
X147476479Y-138840380D02*
X147476480Y-126640380D01*
X147476479Y-138840379D02*
G75*
G02*
X147176480Y-139140380I-300000J-1D01*
G01*
X132276480Y-139140381D02*
X147176480Y-139140380D01*
X132276480Y-139140380D02*
G75*
G02*
X131976480Y-138840380I0J300000D01*
G01*
X131976480Y-126640380D02*
X131976480Y-138840380D01*
X131976479Y-126640381D02*
G75*
G02*
X132276480Y-126340380I300001J0D01*
G01*
X147176480Y-126340380D02*
X132276480Y-126340380D01*
X66513979Y-100740379D02*
G75*
G02*
X66213980Y-101040380I-300000J-1D01*
G01*
X51313980Y-101040380D02*
X66213980Y-101040380D01*
X51313980Y-101040380D02*
G75*
G02*
X51013980Y-100740380I0J300000D01*
G01*
X51013980Y-88540380D02*
X51013980Y-100740380D01*
X51013980Y-88540380D02*
G75*
G02*
X51313980Y-88240380I300000J0D01*
G01*
X66213979Y-88240380D02*
X51313980Y-88240380D01*
X66213979Y-88240379D02*
G75*
G02*
X66513980Y-88540380I0J-300001D01*
G01*
X66513980Y-100740380D02*
X66513980Y-88540380D01*
X155788980Y-107590380D02*
G75*
G02*
X156088980Y-107290380I300000J0D01*
G01*
X170988980Y-107290380D02*
X156088980Y-107290380D01*
X170988979Y-107290381D02*
G75*
G02*
X171288980Y-107590380I1J-300000D01*
G01*
X171288980Y-119790380D02*
X171288980Y-107590380D01*
X171288979Y-119790381D02*
G75*
G02*
X170988980Y-120090380I-299999J0D01*
G01*
X156088980Y-120090381D02*
X170988980Y-120090380D01*
X156088979Y-120090381D02*
G75*
G02*
X155788980Y-119790380I1J300000D01*
G01*
X155788979Y-107590380D02*
X155788980Y-119790380D01*
X112926479Y-50440380D02*
G75*
G02*
X113226479Y-50140380I300000J0D01*
G01*
X128126480Y-50140380D02*
X113226479Y-50140380D01*
X128126479Y-50140379D02*
G75*
G02*
X128426480Y-50440380I0J-300001D01*
G01*
X128426480Y-62640380D02*
X128426480Y-50440380D01*
X128426479Y-62640379D02*
G75*
G02*
X128126480Y-62940380I-300000J-1D01*
G01*
X113226479Y-62940380D02*
X128126480Y-62940380D01*
X113226478Y-62940380D02*
G75*
G02*
X112926480Y-62640380I1J299999D01*
G01*
X112926480Y-50440380D02*
X112926480Y-62640380D01*
X233201480Y-81690380D02*
G75*
G02*
X232901480Y-81990380I-300000J0D01*
G01*
X218001480Y-81990380D02*
X232901480Y-81990380D01*
X218001480Y-81990380D02*
G75*
G02*
X217701480Y-81690380I0J300000D01*
G01*
X217701480Y-69490380D02*
X217701480Y-81690380D01*
X217701480Y-69490380D02*
G75*
G02*
X218001480Y-69190380I300000J0D01*
G01*
X232901480Y-69190380D02*
X218001480Y-69190380D01*
X232901480Y-69190380D02*
G75*
G02*
X233201480Y-69490380I0J-300000D01*
G01*
X233201480Y-81690380D02*
X233201480Y-69490380D01*
X137951479Y-81690381D02*
G75*
G02*
X137651480Y-81990380I-299999J0D01*
G01*
X122751480Y-81990380D02*
X137651480Y-81990380D01*
X122751480Y-81990380D02*
G75*
G02*
X122451480Y-81690380I0J300000D01*
G01*
X122451480Y-69490380D02*
X122451480Y-81690380D01*
X122451480Y-69490380D02*
G75*
G02*
X122751480Y-69190380I300000J0D01*
G01*
X137651480Y-69190381D02*
X122751480Y-69190380D01*
X137651480Y-69190380D02*
G75*
G02*
X137951480Y-69490380I0J-300000D01*
G01*
X137951480Y-81690380D02*
X137951480Y-69490380D01*
X252251480Y-69490380D02*
X252251480Y-81690380D01*
X251951480Y-69190380D02*
G75*
G02*
X252251480Y-69490380I0J-300000D01*
G01*
X237051480Y-69190380D02*
X251951480Y-69190380D01*
X236751479Y-69490379D02*
G75*
G02*
X237051480Y-69190380I300000J-1D01*
G01*
X236751480Y-81690380D02*
X236751479Y-69490380D01*
X237051480Y-81990380D02*
G75*
G02*
X236751480Y-81690380I0J300000D01*
G01*
X251951480Y-81990380D02*
X237051480Y-81990380D01*
X252251480Y-81690380D02*
G75*
G02*
X251951480Y-81990380I-300000J0D01*
G01*
X66213978Y-126340380D02*
G75*
G02*
X66513980Y-126640380I1J-300001D01*
G01*
X66513980Y-138840380D02*
X66513980Y-126640380D01*
X66513980Y-138840380D02*
G75*
G02*
X66213980Y-139140380I-300000J0D01*
G01*
X51313980Y-139140381D02*
X66213980Y-139140380D01*
X51313979Y-139140381D02*
G75*
G02*
X51013980Y-138840380I1J300000D01*
G01*
X51013980Y-126640380D02*
X51013980Y-138840380D01*
X51013980Y-126640380D02*
G75*
G02*
X51313980Y-126340380I300000J0D01*
G01*
X66213979Y-126340380D02*
X51313980Y-126340380D01*
X222763980Y-101040380D02*
G75*
G02*
X222463980Y-100740380I0J300000D01*
G01*
X222463980Y-88540380D02*
X222463980Y-100740380D01*
X222463980Y-88540380D02*
G75*
G02*
X222763980Y-88240380I300000J0D01*
G01*
X237663980Y-88240380D02*
X222763980Y-88240380D01*
X237663979Y-88240379D02*
G75*
G02*
X237963980Y-88540380I0J-300001D01*
G01*
X237963980Y-100740380D02*
X237963980Y-88540380D01*
X237963979Y-100740381D02*
G75*
G02*
X237663980Y-101040380I-299999J0D01*
G01*
X222763980Y-101040380D02*
X237663980Y-101040380D01*
X61751480Y-81690380D02*
G75*
G02*
X61451480Y-81990380I-300000J0D01*
G01*
X46551480Y-81990380D02*
X61451480Y-81990380D01*
X46551480Y-81990380D02*
G75*
G02*
X46251480Y-81690380I0J300000D01*
G01*
X46251479Y-69490380D02*
X46251480Y-81690380D01*
X46251479Y-69490379D02*
G75*
G02*
X46551480Y-69190380I300000J-1D01*
G01*
X61451480Y-69190380D02*
X46551480Y-69190380D01*
X61451480Y-69190380D02*
G75*
G02*
X61751480Y-69490380I0J-300000D01*
G01*
X61751480Y-81690380D02*
X61751480Y-69490380D01*
X233547730Y-122775380D02*
X236217730Y-122775380D01*
X233547730Y-117565380D02*
X233547730Y-122775380D01*
X236217730Y-117565380D02*
X233547730Y-117565380D01*
X236217730Y-122775380D02*
X236217730Y-117565380D01*
X245835230Y-98515380D02*
X245835230Y-103725380D01*
X248505230Y-98515380D02*
X245835230Y-98515380D01*
X248505230Y-103725380D02*
X248505230Y-98515380D01*
X245835230Y-103725380D02*
X248505230Y-103725380D01*
X98638980Y-119790380D02*
X98638980Y-107590380D01*
X98938980Y-120090380D02*
G75*
G02*
X98638980Y-119790380I0J300000D01*
G01*
X113838980Y-120090380D02*
X98938980Y-120090381D01*
X114138979Y-119790381D02*
G75*
G02*
X113838980Y-120090380I-299999J0D01*
G01*
X114138980Y-107590380D02*
X114138980Y-119790380D01*
X113838980Y-107290380D02*
G75*
G02*
X114138980Y-107590380I0J-300000D01*
G01*
X98938980Y-107290380D02*
X113838980Y-107290381D01*
X98638980Y-107590380D02*
G75*
G02*
X98938980Y-107290380I300000J0D01*
G01*
X117688980Y-107590380D02*
G75*
G02*
X117988980Y-107290380I300000J0D01*
G01*
X132888980Y-107290380D02*
X117988980Y-107290380D01*
X132888979Y-107290381D02*
G75*
G02*
X133188980Y-107590380I1J-300000D01*
G01*
X133188979Y-119790380D02*
X133188980Y-107590380D01*
X133188979Y-119790381D02*
G75*
G02*
X132888980Y-120090380I-299999J0D01*
G01*
X117988980Y-120090380D02*
X132888980Y-120090380D01*
X117988980Y-120090380D02*
G75*
G02*
X117688980Y-119790380I0J300000D01*
G01*
X117688980Y-107590380D02*
X117688980Y-119790380D01*
X104313980Y-88240380D02*
G75*
G02*
X104613980Y-88540380I0J-300000D01*
G01*
X104613980Y-100740380D02*
X104613980Y-88540380D01*
X104613980Y-100740380D02*
G75*
G02*
X104313980Y-101040380I-300000J0D01*
G01*
X89413980Y-101040380D02*
X104313980Y-101040380D01*
X89413980Y-101040380D02*
G75*
G02*
X89113980Y-100740380I0J300000D01*
G01*
X89113980Y-88540380D02*
X89113980Y-100740380D01*
X89113980Y-88540380D02*
G75*
G02*
X89413980Y-88240380I300000J0D01*
G01*
X104313979Y-88240380D02*
X89413980Y-88240380D01*
X33617730Y-117565380D02*
X30947730Y-117565380D01*
X33617730Y-122775380D02*
X33617730Y-117565380D01*
X30947730Y-122775380D02*
X33617730Y-122775380D01*
X30947730Y-117565380D02*
X30947730Y-122775380D01*
X47463980Y-100740380D02*
G75*
G02*
X47163980Y-101040380I-300000J0D01*
G01*
X32263980Y-101040380D02*
X47163980Y-101040380D01*
X32263980Y-101040380D02*
G75*
G02*
X31963980Y-100740380I0J300000D01*
G01*
X31963980Y-88540380D02*
X31963980Y-100740380D01*
X31963980Y-88540380D02*
G75*
G02*
X32263980Y-88240380I300000J0D01*
G01*
X47163980Y-88240380D02*
X32263980Y-88240380D01*
X47163980Y-88240381D02*
G75*
G02*
X47463979Y-88540380I0J-299999D01*
G01*
X47463979Y-100740380D02*
X47463979Y-88540380D01*
X261776479Y-62640381D02*
G75*
G02*
X261476480Y-62940380I-299999J0D01*
G01*
X246576480Y-62940380D02*
X261476480Y-62940380D01*
X246576480Y-62940380D02*
G75*
G02*
X246276480Y-62640380I0J300000D01*
G01*
X246276480Y-50440380D02*
X246276480Y-62640380D01*
X246276480Y-50440380D02*
G75*
G02*
X246576480Y-50140380I300000J0D01*
G01*
X261476480Y-50140380D02*
X246576480Y-50140380D01*
X261476479Y-50140379D02*
G75*
G02*
X261776480Y-50440380I0J-300001D01*
G01*
X261776480Y-62640380D02*
X261776480Y-50440380D01*
X273835230Y-98515380D02*
X273835230Y-103725380D01*
X276505230Y-98515380D02*
X273835230Y-98515380D01*
X276505230Y-103725380D02*
X276505230Y-98515380D01*
X273835230Y-103725380D02*
X276505230Y-103725380D01*
X10832729Y-120090381D02*
G75*
G02*
X10532730Y-119790380I1J300000D01*
G01*
X10532729Y-107590380D02*
X10532730Y-119790380D01*
X10532729Y-107590379D02*
G75*
G02*
X10832730Y-107290380I300000J-1D01*
G01*
X25732730Y-107290380D02*
X10832730Y-107290380D01*
X25732730Y-107290380D02*
G75*
G02*
X26032730Y-107590380I0J-300000D01*
G01*
X26032729Y-119790380D02*
X26032730Y-107590380D01*
X26032729Y-119790381D02*
G75*
G02*
X25732730Y-120090380I-299999J0D01*
G01*
X10832729Y-120090380D02*
X25732730Y-120090380D01*
X165613980Y-101040380D02*
G75*
G02*
X165313980Y-100740380I0J300000D01*
G01*
X165313980Y-88540380D02*
X165313980Y-100740380D01*
X165313980Y-88540380D02*
G75*
G02*
X165613980Y-88240380I300000J0D01*
G01*
X180513980Y-88240380D02*
X165613980Y-88240380D01*
X180513980Y-88240380D02*
G75*
G02*
X180813980Y-88540380I0J-300000D01*
G01*
X180813980Y-100740380D02*
X180813980Y-88540380D01*
X180813980Y-100740380D02*
G75*
G02*
X180513980Y-101040380I-300000J0D01*
G01*
X165613980Y-101040380D02*
X180513980Y-101040380D01*
X228138980Y-120090380D02*
X213238980Y-120090381D01*
X228438980Y-119790380D02*
G75*
G02*
X228138980Y-120090380I-300000J0D01*
G01*
X228438980Y-107590380D02*
X228438980Y-119790380D01*
X228138979Y-107290381D02*
G75*
G02*
X228438980Y-107590380I1J-300000D01*
G01*
X213238980Y-107290380D02*
X228138980Y-107290380D01*
X212938979Y-107590379D02*
G75*
G02*
X213238980Y-107290380I300000J-1D01*
G01*
X212938980Y-119790380D02*
X212938980Y-107590380D01*
X213238980Y-120090380D02*
G75*
G02*
X212938980Y-119790380I0J300000D01*
G01*
X204626479Y-62640381D02*
G75*
G02*
X204326480Y-62940380I-299999J0D01*
G01*
X189426480Y-62940381D02*
X204326480Y-62940380D01*
X189426480Y-62940380D02*
G75*
G02*
X189126480Y-62640380I0J300000D01*
G01*
X189126480Y-50440380D02*
X189126480Y-62640380D01*
X189126479Y-50440381D02*
G75*
G02*
X189426480Y-50140380I300001J0D01*
G01*
X204326480Y-50140380D02*
X189426480Y-50140380D01*
X204326480Y-50140380D02*
G75*
G02*
X204626480Y-50440380I0J-300000D01*
G01*
X204626480Y-62640380D02*
X204626480Y-50440380D01*
X209088980Y-120090380D02*
X194188980Y-120090380D01*
X209388979Y-119790381D02*
G75*
G02*
X209088980Y-120090380I-299999J0D01*
G01*
X209388980Y-107590380D02*
X209388980Y-119790380D01*
X209088980Y-107290380D02*
G75*
G02*
X209388980Y-107590380I0J-300000D01*
G01*
X194188980Y-107290380D02*
X209088980Y-107290381D01*
X193888980Y-107590380D02*
G75*
G02*
X194188980Y-107290380I300000J0D01*
G01*
X193888980Y-119790380D02*
X193888980Y-107590380D01*
X194188980Y-120090380D02*
G75*
G02*
X193888980Y-119790380I0J300000D01*
G01*
X185276479Y-50140381D02*
G75*
G02*
X185576480Y-50440380I1J-300000D01*
G01*
X185576480Y-62640380D02*
X185576480Y-50440380D01*
X185576480Y-62640380D02*
G75*
G02*
X185276480Y-62940380I-300000J0D01*
G01*
X170376480Y-62940380D02*
X185276480Y-62940380D01*
X170376479Y-62940381D02*
G75*
G02*
X170076480Y-62640380I1J300000D01*
G01*
X170076480Y-50440380D02*
X170076480Y-62640380D01*
X170076480Y-50440380D02*
G75*
G02*
X170376480Y-50140380I300000J0D01*
G01*
X185276480Y-50140380D02*
X170376480Y-50140380D01*
X208476480Y-50140380D02*
X223376480Y-50140381D01*
X208176479Y-50440381D02*
G75*
G02*
X208476480Y-50140380I300001J0D01*
G01*
X208176480Y-62640380D02*
X208176480Y-50440380D01*
X208476479Y-62940381D02*
G75*
G02*
X208176480Y-62640380I1J300000D01*
G01*
X223376480Y-62940380D02*
X208476480Y-62940380D01*
X223676480Y-62640380D02*
G75*
G02*
X223376480Y-62940380I-300000J0D01*
G01*
X223676480Y-50440380D02*
X223676480Y-62640380D01*
X223376480Y-50140380D02*
G75*
G02*
X223676480Y-50440380I0J-300000D01*
G01*
X141501480Y-69490380D02*
G75*
G02*
X141801480Y-69190380I300000J0D01*
G01*
X156701480Y-69190380D02*
X141801480Y-69190380D01*
X156701480Y-69190380D02*
G75*
G02*
X157001480Y-69490380I0J-300000D01*
G01*
X157001480Y-81690380D02*
X157001480Y-69490380D01*
X157001480Y-81690380D02*
G75*
G02*
X156701480Y-81990380I-300000J0D01*
G01*
X141801480Y-81990380D02*
X156701480Y-81990380D01*
X141801480Y-81990380D02*
G75*
G02*
X141501480Y-81690380I0J300000D01*
G01*
X141501480Y-69490380D02*
X141501480Y-81690380D01*
X142713980Y-100740380D02*
G75*
G02*
X142413980Y-101040380I-300000J0D01*
G01*
X127513980Y-101040380D02*
X142413980Y-101040380D01*
X127513980Y-101040380D02*
G75*
G02*
X127213980Y-100740380I0J300000D01*
G01*
X127213980Y-88540380D02*
X127213980Y-100740380D01*
X127213980Y-88540380D02*
G75*
G02*
X127513980Y-88240380I300000J0D01*
G01*
X142413980Y-88240380D02*
X127513980Y-88240380D01*
X142413980Y-88240380D02*
G75*
G02*
X142713980Y-88540380I0J-300000D01*
G01*
X142713980Y-100740380D02*
X142713980Y-88540380D01*
X174838980Y-119790380D02*
X174838980Y-107590380D01*
X175138980Y-120090380D02*
G75*
G02*
X174838980Y-119790380I0J300000D01*
G01*
X190038980Y-120090381D02*
X175138980Y-120090380D01*
X190338981Y-119790380D02*
G75*
G02*
X190038980Y-120090381I-300001J0D01*
G01*
X190338980Y-107590380D02*
X190338980Y-119790380D01*
X190038978Y-107290380D02*
G75*
G02*
X190338980Y-107590380I1J-300001D01*
G01*
X175138980Y-107290380D02*
X190038980Y-107290380D01*
X174838980Y-107590380D02*
G75*
G02*
X175138980Y-107290380I300000J0D01*
G01*
X227226480Y-62640380D02*
X227226480Y-50440380D01*
X227526479Y-62940381D02*
G75*
G02*
X227226480Y-62640380I1J300000D01*
G01*
X242426480Y-62940381D02*
X227526480Y-62940380D01*
X242726480Y-62640379D02*
G75*
G02*
X242426480Y-62940381I-300001J-1D01*
G01*
X242726480Y-50440380D02*
X242726480Y-62640380D01*
X242426478Y-50140380D02*
G75*
G02*
X242726480Y-50440380I1J-300001D01*
G01*
X227526480Y-50140380D02*
X242426479Y-50140380D01*
X227226479Y-50440381D02*
G75*
G02*
X227526480Y-50140380I300001J0D01*
G01*
X184663980Y-88240380D02*
X199563980Y-88240381D01*
X184363980Y-88540380D02*
G75*
G02*
X184663980Y-88240380I300000J0D01*
G01*
X184363980Y-100740380D02*
X184363980Y-88540380D01*
X184663979Y-101040381D02*
G75*
G02*
X184363980Y-100740380I1J300000D01*
G01*
X199563980Y-101040380D02*
X184663980Y-101040380D01*
X199863980Y-100740380D02*
G75*
G02*
X199563980Y-101040380I-300000J0D01*
G01*
X199863979Y-88540380D02*
X199863980Y-100740380D01*
X199563980Y-88240381D02*
G75*
G02*
X199863979Y-88540380I0J-299999D01*
G01*
X3388980Y-126640380D02*
G75*
G02*
X3688980Y-126340380I300000J0D01*
G01*
X18588980Y-126340380D02*
X3688980Y-126340380D01*
X18588979Y-126340379D02*
G75*
G02*
X18888980Y-126640380I0J-300001D01*
G01*
X18888980Y-138840380D02*
X18888980Y-126640380D01*
X18888980Y-138840380D02*
G75*
G02*
X18588980Y-139140380I-300000J0D01*
G01*
X3688979Y-139140380D02*
X18588980Y-139140380D01*
X3688980Y-139140380D02*
G75*
G02*
X3388980Y-138840380I0J300000D01*
G01*
X3388980Y-126640380D02*
X3388980Y-138840380D01*
X108163980Y-88540380D02*
G75*
G02*
X108463980Y-88240380I300000J0D01*
G01*
X123363980Y-88240380D02*
X108463980Y-88240380D01*
X123363980Y-88240380D02*
G75*
G02*
X123663980Y-88540380I0J-300000D01*
G01*
X123663980Y-100740380D02*
X123663980Y-88540380D01*
X123663979Y-100740379D02*
G75*
G02*
X123363980Y-101040380I-300000J-1D01*
G01*
X108463980Y-101040380D02*
X123363980Y-101040380D01*
X108463980Y-101040380D02*
G75*
G02*
X108163980Y-100740380I0J300000D01*
G01*
X108163980Y-88540380D02*
X108163980Y-100740380D01*
X93876480Y-50440380D02*
G75*
G02*
X94176480Y-50140380I300000J0D01*
G01*
X109076479Y-50140380D02*
X94176480Y-50140380D01*
X109076479Y-50140379D02*
G75*
G02*
X109376480Y-50440380I0J-300001D01*
G01*
X109376480Y-62640380D02*
X109376480Y-50440380D01*
X109376479Y-62640381D02*
G75*
G02*
X109076480Y-62940380I-299999J0D01*
G01*
X94176480Y-62940380D02*
X109076480Y-62940380D01*
X94176480Y-62940380D02*
G75*
G02*
X93876480Y-62640380I0J300000D01*
G01*
X93876480Y-50440380D02*
X93876480Y-62640380D01*
X103401480Y-81690380D02*
X103401480Y-69490380D01*
X103701480Y-81990380D02*
G75*
G02*
X103401480Y-81690380I0J300000D01*
G01*
X118601479Y-81990380D02*
X103701480Y-81990380D01*
X118901479Y-81690380D02*
G75*
G02*
X118601479Y-81990380I-300000J0D01*
G01*
X118901480Y-69490380D02*
X118901480Y-81690380D01*
X118601480Y-69190380D02*
G75*
G02*
X118901480Y-69490380I0J-300000D01*
G01*
X103701480Y-69190380D02*
X118601479Y-69190380D01*
X103401480Y-69490380D02*
G75*
G02*
X103701480Y-69190380I300000J0D01*
G01*
X99851479Y-69490380D02*
X99851480Y-81690380D01*
X99551480Y-69190381D02*
G75*
G02*
X99851479Y-69490380I0J-299999D01*
G01*
X84651479Y-69190380D02*
X99551480Y-69190380D01*
X84351479Y-69490380D02*
G75*
G02*
X84651479Y-69190380I300000J0D01*
G01*
X84351479Y-81690380D02*
X84351479Y-69490380D01*
X84651479Y-81990380D02*
G75*
G02*
X84351479Y-81690380I0J300000D01*
G01*
X99551480Y-81990380D02*
X84651479Y-81990380D01*
X99851480Y-81690380D02*
G75*
G02*
X99551480Y-81990380I-300000J0D01*
G01*
X151026180Y-134739880D02*
X151026180Y-130739881D01*
X152526180Y-136239880D02*
G75*
G02*
X151026180Y-134739880I0J1500000D01*
G01*
X162526180Y-136239880D02*
X152526180Y-136239880D01*
X164026179Y-134739881D02*
G75*
G02*
X162526180Y-136239880I-1499999J0D01*
G01*
X164026180Y-130739881D02*
X164026180Y-134739880D01*
X162526180Y-129239881D02*
G75*
G02*
X164026180Y-130739881I0J-1500000D01*
G01*
X152526180Y-129239881D02*
X162526180Y-129239881D01*
X151026180Y-130739881D02*
G75*
G02*
X152526180Y-129239881I1500000J0D01*
G01*
X95759680Y-141822581D02*
X95759680Y-136614881D01*
X93092680Y-141822581D02*
X95759680Y-141822581D01*
X93092680Y-136614881D02*
X93092680Y-141822581D01*
X95759680Y-136614881D02*
X93092680Y-136614881D01*
X182676180Y-131564880D02*
X182676180Y-133914880D01*
X185026180Y-131564880D02*
X182676180Y-131564880D01*
X185026180Y-133914880D02*
X185026180Y-131564880D01*
X182676180Y-133914880D02*
X185026180Y-133914880D01*
X97509179Y-141823731D02*
X100176179Y-141823731D01*
X97509179Y-136616031D02*
X97509179Y-141823731D01*
X100176179Y-136616031D02*
X97509179Y-136616031D01*
X100176179Y-141823731D02*
X100176179Y-136616031D01*
X100176179Y-128863731D02*
X100176179Y-123656031D01*
X97509179Y-128863731D02*
X100176179Y-128863731D01*
X97509179Y-123656031D02*
X97509179Y-128863731D01*
X100176179Y-123656031D02*
X97509179Y-123656031D01*
X167576180Y-131564880D02*
X167576180Y-133914880D01*
X169926180Y-131564880D02*
X167576180Y-131564880D01*
X169926180Y-133914880D02*
X169926180Y-131564880D01*
X167576180Y-133914880D02*
X169926180Y-133914880D01*
X113176180Y-136616031D02*
X110509180Y-136616031D01*
X113176180Y-141823731D02*
X113176180Y-136616031D01*
X110509180Y-141823731D02*
X113176180Y-141823731D01*
X110509180Y-136616031D02*
X110509180Y-141823731D01*
X181943180Y-141823731D02*
X181943180Y-136616031D01*
X179276180Y-141823731D02*
X181943180Y-141823731D01*
X179276180Y-136616031D02*
X179276180Y-141823731D01*
X181943180Y-136616031D02*
X179276180Y-136616031D01*
X196276180Y-141823731D02*
X198943180Y-141823731D01*
X196276180Y-136616031D02*
X196276180Y-141823731D01*
X198943180Y-136616031D02*
X196276180Y-136616031D01*
X198943180Y-141823731D02*
X198943180Y-136616031D01*
X179276180Y-128863731D02*
X181943180Y-128863731D01*
X179276180Y-123656031D02*
X179276180Y-128863731D01*
X181943180Y-123656031D02*
X179276180Y-123656031D01*
X181943180Y-128863731D02*
X181943180Y-123656031D01*
X128426179Y-134739882D02*
G75*
G02*
X126926179Y-136239880I-1499999J1D01*
G01*
X116926180Y-136239880D02*
X126926179Y-136239880D01*
X116926179Y-136239881D02*
G75*
G02*
X115426180Y-134739880I1J1500000D01*
G01*
X115426179Y-130739880D02*
X115426180Y-134739880D01*
X115426179Y-130739881D02*
G75*
G02*
X116926180Y-129239880I1500001J0D01*
G01*
X126926179Y-129239880D02*
X116926180Y-129239880D01*
X126926179Y-129239880D02*
G75*
G02*
X128426180Y-130739881I0J-1500001D01*
G01*
X128426180Y-134739880D02*
X128426180Y-130739881D01*
X196276180Y-123656031D02*
X196276180Y-128863731D01*
X198943180Y-123656031D02*
X196276180Y-123656031D01*
X198943180Y-128863731D02*
X198943180Y-123656031D01*
X196276180Y-128863731D02*
X198943180Y-128863731D01*
X109526179Y-131564880D02*
X109526179Y-133914880D01*
X111876179Y-131564880D02*
X109526179Y-131564880D01*
X111876179Y-133914880D02*
X111876179Y-131564880D01*
X109526179Y-133914880D02*
X111876179Y-133914880D01*
X110509180Y-128863731D02*
X113176180Y-128863731D01*
X110509180Y-123656031D02*
X110509180Y-128863731D01*
X113176180Y-123656031D02*
X110509180Y-123656031D01*
X113176180Y-128863731D02*
X113176180Y-123656031D01*
X83176180Y-123656031D02*
X80509180Y-123656031D01*
X83176180Y-128863731D02*
X83176180Y-123656031D01*
X80509180Y-128863731D02*
X83176180Y-128863731D01*
X80509180Y-123656031D02*
X80509180Y-128863731D01*
X171903531Y-131564880D02*
X170526180Y-131564880D01*
X171903532Y-131564880D02*
G75*
G02*
X176301180Y-129956560I2922648J-1175000D01*
G01*
X176301181Y-129956560D02*
G75*
G02*
X180698828Y-131564881I1474999J-2783320D01*
G01*
X182076180Y-131564880D02*
X180698828Y-131564881D01*
X182076180Y-133914880D02*
X182076180Y-131564880D01*
X180698828Y-133914880D02*
X182076180Y-133914880D01*
X180698829Y-133914880D02*
G75*
G02*
X176301180Y-135523201I-2922649J1175000D01*
G01*
X176301181Y-135523201D02*
G75*
G02*
X171903531Y-133914881I-1475001J2783321D01*
G01*
X170526180Y-133914880D02*
X171903531Y-133914881D01*
X170526180Y-131564880D02*
X170526180Y-133914880D01*
X107548828Y-133914879D02*
G75*
G02*
X103151180Y-135523201I-2922649J1174999D01*
G01*
X103151180Y-135523201D02*
G75*
G02*
X98753531Y-133914880I-1475000J2783321D01*
G01*
X97376179Y-133914880D02*
X98753531Y-133914880D01*
X97376179Y-131564880D02*
X97376179Y-133914880D01*
X98753531Y-131564880D02*
X97376179Y-131564880D01*
X98753532Y-131564880D02*
G75*
G02*
X103151180Y-129956560I2922648J-1175000D01*
G01*
X103151180Y-129956560D02*
G75*
G02*
X107548828Y-131564880I1475000J-2783320D01*
G01*
X108926180Y-131564880D02*
X107548828Y-131564880D01*
X108926180Y-133914880D02*
X108926180Y-131564880D01*
X107548828Y-133914880D02*
X108926180Y-133914880D01*
X80509180Y-141823731D02*
X83176180Y-141823731D01*
X80509180Y-136616031D02*
X80509180Y-141823731D01*
X83176180Y-136616031D02*
X80509180Y-136616031D01*
X83176180Y-141823731D02*
X83176180Y-136616031D01*
X95759680Y-128862581D02*
X95759680Y-123654881D01*
X93092680Y-128862581D02*
X95759680Y-128862581D01*
X93092680Y-123654881D02*
X93092680Y-128862581D01*
X95759680Y-123654881D02*
X93092680Y-123654881D01*
X96776179Y-131564880D02*
X94426180Y-131564880D01*
X96776179Y-133914880D02*
X96776179Y-131564880D01*
X94426180Y-133914880D02*
X96776179Y-133914880D01*
X94426180Y-131564880D02*
X94426180Y-133914880D01*
X186359680Y-123654881D02*
X183692680Y-123654881D01*
X186359680Y-128862581D02*
X186359680Y-123654881D01*
X183692680Y-128862581D02*
X186359680Y-128862581D01*
X183692680Y-123654881D02*
X183692680Y-128862581D01*
X186359680Y-136614881D02*
X183692680Y-136614881D01*
X186359680Y-141822581D02*
X186359680Y-136614881D01*
X183692680Y-141822581D02*
X186359680Y-141822581D01*
X183692680Y-136614881D02*
X183692680Y-141822581D01*
M02*
