%TF.GenerationSoftware,KiCad,Pcbnew,(5.1.12)-1*%
%TF.CreationDate,2022-11-25T21:31:42+07:00*%
%TF.ProjectId,Solder - Copy,536f6c64-6572-4202-9d20-436f70792e6b,rev?*%
%TF.SameCoordinates,Original*%
%TF.FileFunction,Soldermask,Top*%
%TF.FilePolarity,Negative*%
%FSLAX46Y46*%
G04 Gerber Fmt 4.6, Leading zero omitted, Abs format (unit mm)*
G04 Created by KiCad (PCBNEW (5.1.12)-1) date 2022-11-25 21:31:42*
%MOMM*%
%LPD*%
G01*
G04 APERTURE LIST*
%ADD10C,2.000000*%
%ADD11C,1.000000*%
%ADD12O,1.000000X1.000000*%
%ADD13C,1.750000*%
%ADD14C,3.987800*%
%ADD15C,3.048000*%
%ADD16R,0.600000X1.450000*%
%ADD17R,0.300000X1.450000*%
%ADD18C,0.650000*%
%ADD19O,1.000000X2.100000*%
%ADD20O,1.000000X1.600000*%
%ADD21O,0.700000X1.800000*%
%ADD22C,0.500000*%
%ADD23C,1.905000*%
G04 APERTURE END LIST*
D10*
X47481107Y-141024631D02*
G75*
G02*
X53481107Y-141024631I3000000J0D01*
G01*
X62005466Y-25586357D02*
G75*
G02*
X62993572Y-24740112I988107J-153753D01*
G01*
X32282038Y-142224111D02*
X46981106Y-142224112D01*
X62005466Y-25586359D02*
G75*
G02*
X57558968Y-25586360I-2223249J345946D01*
G01*
X56570863Y-24740113D02*
G75*
G02*
X57558968Y-25586360I-3J-999998D01*
G01*
X65806107Y-24740112D02*
X62993572Y-24740112D01*
X47481106Y-141724112D02*
G75*
G02*
X46981106Y-142224112I-500000J0D01*
G01*
X28282037Y-28829111D02*
X28282038Y-138224112D01*
X28282037Y-28829111D02*
G75*
G02*
X32371028Y-24741112I4000381J87639D01*
G01*
X56570862Y-24740113D02*
X52095837Y-24740112D01*
X66306107Y-25462132D02*
X66306107Y-25240112D01*
X72306106Y-25240111D02*
X72306107Y-25462132D01*
X32282038Y-142224112D02*
G75*
G02*
X28282038Y-138224112I-271J3999729D01*
G01*
X43654724Y-24740196D02*
X32371028Y-24741112D01*
X51102774Y-25622535D02*
G75*
G02*
X52095837Y-24740112I993063J-117576D01*
G01*
X72306107Y-25462132D02*
G75*
G02*
X66306107Y-25462132I-3000000J0D01*
G01*
X47481106Y-141724113D02*
X47481107Y-141024631D01*
X43654723Y-24740197D02*
G75*
G02*
X44647865Y-25622599I82J-999998D01*
G01*
X51102774Y-25622537D02*
G75*
G02*
X44647865Y-25622599I-3227458J382125D01*
G01*
X65806107Y-24740112D02*
G75*
G02*
X66306107Y-25240112I0J-500000D01*
G01*
X118481932Y-24740112D02*
X72806107Y-24740112D01*
X121693285Y-27490413D02*
G75*
G02*
X119470039Y-25586360I0J2250000D01*
G01*
X118481932Y-24740112D02*
G75*
G02*
X119470039Y-25586360I-2J-999999D01*
G01*
X128846033Y-27490113D02*
X121693284Y-27490414D01*
X72306107Y-25240110D02*
G75*
G02*
X72806107Y-24740112I499999J-1D01*
G01*
X332505245Y-24740111D02*
G75*
G02*
X333006106Y-25240110I861J-499999D01*
G01*
X350835564Y-24740113D02*
X339505245Y-24740112D01*
X339006107Y-25462130D02*
G75*
G02*
X333006107Y-25462131I-3000000J0D01*
G01*
X320655036Y-27737122D02*
G75*
G02*
X319655036Y-28737122I-1000000J0D01*
G01*
X332505244Y-24740111D02*
X321655036Y-24740112D01*
X320655036Y-25740112D02*
X320655036Y-27737122D01*
X368282038Y-24740112D02*
G75*
G02*
X372282037Y-28740112I246J-3999753D01*
G01*
X339006105Y-25240110D02*
G75*
G02*
X339505245Y-24740112I500000J-1D01*
G01*
X358283566Y-25622377D02*
G75*
G02*
X359223598Y-24741309I993068J-117523D01*
G01*
X310272087Y-27737122D02*
G75*
G02*
X310272087Y-28737122I0J-500000D01*
G01*
X318872078Y-28737122D02*
G75*
G02*
X318872078Y-27737122I0J500000D01*
G01*
X309991819Y-27737122D02*
X310272087Y-27737122D01*
X358283567Y-25622379D02*
G75*
G02*
X351828626Y-25622539I-3227480J381956D01*
G01*
X368282037Y-24740113D02*
X359223598Y-24741309D01*
X309491819Y-19011201D02*
G75*
G02*
X310251818Y-18251112I761373J-1284D01*
G01*
X318891730Y-18251112D02*
G75*
G02*
X319651818Y-19011112I-1285J-761373D01*
G01*
X320655036Y-25740112D02*
G75*
G02*
X321655036Y-24740112I1000000J0D01*
G01*
X339006106Y-25240111D02*
X339006106Y-25462132D01*
X350835565Y-24740114D02*
G75*
G02*
X351828626Y-25622539I-1J-999998D01*
G01*
X372282038Y-138224112D02*
X372282037Y-28740112D01*
X318891728Y-18251112D02*
X310251818Y-18251112D01*
X319651818Y-27237122D02*
X319651818Y-19011112D01*
X309991819Y-27737122D02*
G75*
G02*
X309491819Y-27237122I0J500000D01*
G01*
X319655036Y-28737122D02*
X318872078Y-28737122D01*
X309491817Y-19011202D02*
X309491819Y-27237122D01*
X319651818Y-27237122D02*
G75*
G02*
X319151818Y-27737122I-500000J0D01*
G01*
X318872078Y-27737122D02*
X319151818Y-27737122D01*
X333006107Y-25462131D02*
X333006106Y-25240110D01*
X261305099Y-141576939D02*
G75*
G02*
X267387074Y-141576937I3040988J-1146681D01*
G01*
X339006106Y-141024631D02*
X339006107Y-141724112D01*
X372282037Y-138224111D02*
G75*
G02*
X368282037Y-142224112I-3999749J-252D01*
G01*
X359507764Y-142224112D02*
X368282037Y-142224112D01*
X313915099Y-141576938D02*
G75*
G02*
X312979408Y-142224112I-935690J352827D01*
G01*
X359507764Y-142224112D02*
G75*
G02*
X358572074Y-141576937I0J1000001D01*
G01*
X320932764Y-142224112D02*
X332506107Y-142224112D01*
X84005525Y-142224112D02*
X234405824Y-142219229D01*
X352490099Y-141576939D02*
G75*
G02*
X358572074Y-141576937I3040988J-1146681D01*
G01*
X352490099Y-141576938D02*
G75*
G02*
X351554408Y-142224112I-935690J352827D01*
G01*
X235341377Y-141572019D02*
G75*
G02*
X234405824Y-142219229I-935703J352790D01*
G01*
X339506107Y-142224112D02*
G75*
G02*
X339006107Y-141724112I0J500000D01*
G01*
X76988302Y-141576734D02*
G75*
G02*
X76052537Y-142224112I-935766J352622D01*
G01*
X268322764Y-142224112D02*
G75*
G02*
X267387074Y-141576937I0J1000001D01*
G01*
X235341377Y-141572020D02*
G75*
G02*
X241423325Y-141575752I3040272J-1146282D01*
G01*
X53481107Y-141024631D02*
X53481107Y-141724112D01*
X268322764Y-142224112D02*
X312979408Y-142224112D01*
X339506107Y-142224112D02*
X351554408Y-142224112D01*
X242359459Y-142224111D02*
X260369408Y-142224112D01*
X242359460Y-142224111D02*
G75*
G02*
X241423325Y-141575752I0J1000000D01*
G01*
X333006106Y-141024631D02*
G75*
G02*
X339006106Y-141024631I3000000J0D01*
G01*
X320932764Y-142224112D02*
G75*
G02*
X319997074Y-141576937I0J1000001D01*
G01*
X261305099Y-141576938D02*
G75*
G02*
X260369408Y-142224112I-935690J352827D01*
G01*
X333006107Y-141724112D02*
X333006107Y-141024631D01*
X333006107Y-141724112D02*
G75*
G02*
X332506107Y-142224112I-500000J0D01*
G01*
X313915099Y-141576939D02*
G75*
G02*
X319997074Y-141576937I3040988J-1146681D01*
G01*
X76988301Y-141576736D02*
G75*
G02*
X83069760Y-141576734I3040730J-1145833D01*
G01*
X84005525Y-142224111D02*
G75*
G02*
X83069760Y-141576734I0J1000000D01*
G01*
X53981107Y-142224112D02*
X76052537Y-142224112D01*
X53981107Y-142224112D02*
G75*
G02*
X53481107Y-141724112I0J500000D01*
G01*
X255043286Y-28490413D02*
G75*
G02*
X251815829Y-25622535I1J3250000D01*
G01*
X286543253Y-24740112D02*
G75*
G02*
X287536318Y-25622535I1J-1000000D01*
G01*
X307495037Y-24740112D02*
G75*
G02*
X308495037Y-25740112I0J-1000000D01*
G01*
X207417986Y-28490413D02*
G75*
G02*
X204190529Y-25622535I1J3250000D01*
G01*
X209802235Y-28490413D02*
X207417987Y-28490413D01*
X227011696Y-24740112D02*
X214022756Y-24740112D01*
X234459675Y-25622537D02*
G75*
G02*
X228004759Y-25622535I-3227458J379082D01*
G01*
X234459675Y-25622535D02*
G75*
G02*
X235452738Y-24740112I993063J-117576D01*
G01*
X250822765Y-24740111D02*
X235452738Y-24740112D01*
X257427534Y-28490413D02*
X255043287Y-28490413D01*
X260654992Y-25622536D02*
G75*
G02*
X257427534Y-28490413I-3227458J382123D01*
G01*
X293991233Y-25622537D02*
G75*
G02*
X287536318Y-25622535I-3227457J382124D01*
G01*
X260654993Y-25622535D02*
G75*
G02*
X261648056Y-24740112I993063J-117576D01*
G01*
X293991234Y-25622535D02*
G75*
G02*
X294984297Y-24740112I993063J-117576D01*
G01*
X286543254Y-24740111D02*
X261648056Y-24740112D01*
X308495037Y-27737122D02*
X308495037Y-25740112D01*
X250822764Y-24740112D02*
G75*
G02*
X251815829Y-25622535I1J-1000000D01*
G01*
X307495037Y-24740112D02*
X294984297Y-24740112D01*
X203197464Y-24740112D02*
G75*
G02*
X204190529Y-25622535I1J-1000000D01*
G01*
X213029693Y-25622536D02*
G75*
G02*
X209802235Y-28490413I-3227458J382123D01*
G01*
X213029693Y-25622535D02*
G75*
G02*
X214022756Y-24740112I993063J-117576D01*
G01*
X227011695Y-24740113D02*
G75*
G02*
X228004759Y-25622535I1J-999999D01*
G01*
X309491820Y-28737116D02*
G75*
G02*
X308495037Y-27737122I3217J999995D01*
G01*
X310272087Y-28737122D02*
X309491819Y-28737116D01*
X142299687Y-24740112D02*
X132822275Y-24740112D01*
X142299688Y-24740112D02*
G75*
G02*
X143288150Y-25588650I-1J-1000000D01*
G01*
X203197465Y-24740111D02*
X148714746Y-24740112D01*
X147726282Y-25588648D02*
G75*
G02*
X148714746Y-24740112I988463J-151464D01*
G01*
X147726282Y-25588647D02*
G75*
G02*
X143288150Y-25588650I-2219066J340027D01*
G01*
X131886611Y-25387226D02*
G75*
G02*
X128846033Y-27490113I-3040578J1146752D01*
G01*
X131886610Y-25387226D02*
G75*
G02*
X132822275Y-24740112I935666J-352885D01*
G01*
D11*
%TO.C,J4*%
X312669837Y-54087112D03*
D12*
X313939837Y-54087112D03*
X315209837Y-54087112D03*
X316479837Y-54087112D03*
%TD*%
D13*
%TO.C,MX108*%
X340451087Y-133249612D03*
X350611087Y-133249612D03*
D14*
X345531087Y-133249612D03*
%TD*%
D13*
%TO.C,MX91*%
X302986087Y-133249612D03*
X292826087Y-133249612D03*
D14*
X297906087Y-133249612D03*
%TD*%
D13*
%TO.C,MX14*%
X64226087Y-95149612D03*
X74386087Y-95149612D03*
D14*
X69306087Y-95149612D03*
%TD*%
D13*
%TO.C,MX109*%
X359501087Y-33237112D03*
X369661087Y-33237112D03*
D14*
X364581087Y-33237112D03*
%TD*%
D13*
%TO.C,MX2*%
X30888587Y-33237112D03*
X41048587Y-33237112D03*
D14*
X35968587Y-33237112D03*
%TD*%
D13*
%TO.C,MX11*%
X54701087Y-33237112D03*
X64861087Y-33237112D03*
D14*
X59781087Y-33237112D03*
%TD*%
D13*
%TO.C,MX7*%
X42794837Y-114199612D03*
X52954837Y-114199612D03*
D14*
X47874837Y-114199612D03*
D15*
X35968587Y-107214612D03*
X59781087Y-107214612D03*
D14*
X35968587Y-122454612D03*
X59781087Y-122454612D03*
%TD*%
D13*
%TO.C,MX13*%
X59463587Y-76099612D03*
X69623587Y-76099612D03*
D14*
X64543587Y-76099612D03*
%TD*%
D13*
%TO.C,MX24*%
X73751087Y-33237112D03*
X83911087Y-33237112D03*
D14*
X78831087Y-33237112D03*
%TD*%
D13*
%TO.C,MX92*%
X297588587Y-33237112D03*
X307748587Y-33237112D03*
D14*
X302668587Y-33237112D03*
%TD*%
D13*
%TO.C,MX100*%
X321401087Y-33237112D03*
X331561087Y-33237112D03*
D14*
X326481087Y-33237112D03*
%TD*%
D16*
%TO.C,USB1*%
X311349837Y-24332112D03*
X317799837Y-24332112D03*
X312124837Y-24332112D03*
X317024837Y-24332112D03*
D17*
X316324837Y-24332112D03*
X312824837Y-24332112D03*
X315824837Y-24332112D03*
X313324837Y-24332112D03*
X315324837Y-24332112D03*
X313824837Y-24332112D03*
X314324837Y-24332112D03*
X314824837Y-24332112D03*
D18*
X311684837Y-22887112D03*
X317464837Y-22887112D03*
D19*
X318894837Y-23417112D03*
X310254837Y-23417112D03*
D20*
X318894837Y-19237112D03*
X310254837Y-19237112D03*
%TD*%
D21*
%TO.C,J1*%
X315074837Y-28237112D03*
D22*
X315074837Y-27637112D03*
X315074837Y-28837112D03*
D21*
X317074837Y-28237112D03*
D22*
X317074837Y-27637112D03*
X317074837Y-28837112D03*
X316074837Y-28837112D03*
D21*
X316074837Y-28237112D03*
D22*
X316074837Y-27637112D03*
D21*
X314074837Y-28237112D03*
D22*
X314074837Y-28837112D03*
X314074837Y-27637112D03*
D21*
X313074837Y-28237112D03*
D22*
X313074837Y-27637112D03*
X313074837Y-28837112D03*
X312074837Y-27637112D03*
X312074837Y-28837112D03*
D21*
X312074837Y-28237112D03*
%TD*%
D23*
%TO.C,D3*%
X344261087Y-38317112D03*
X346801087Y-38317112D03*
%TD*%
D13*
%TO.C,MX31*%
X107088587Y-33237112D03*
X117248587Y-33237112D03*
D14*
X112168587Y-33237112D03*
%TD*%
D13*
%TO.C,MX18*%
X68988587Y-33237112D03*
X79148587Y-33237112D03*
D14*
X74068587Y-33237112D03*
%TD*%
D13*
%TO.C,MX36*%
X111851087Y-33237112D03*
X122011087Y-33237112D03*
D14*
X116931087Y-33237112D03*
%TD*%
D13*
%TO.C,MX72*%
X240438587Y-33237112D03*
X250598587Y-33237112D03*
D14*
X245518587Y-33237112D03*
%TD*%
D13*
%TO.C,MX37*%
X126138587Y-33237112D03*
X136298587Y-33237112D03*
D14*
X131218587Y-33237112D03*
%TD*%
D13*
%TO.C,MX89*%
X278538587Y-33237112D03*
X288698587Y-33237112D03*
D14*
X283618587Y-33237112D03*
%TD*%
D13*
%TO.C,MX25*%
X88038587Y-33237112D03*
X98198587Y-33237112D03*
D14*
X93118587Y-33237112D03*
%TD*%
D13*
%TO.C,MX80*%
X259488587Y-33237112D03*
X269648587Y-33237112D03*
D14*
X264568587Y-33237112D03*
%TD*%
D13*
%TO.C,MX60*%
X211863587Y-33237112D03*
X222023587Y-33237112D03*
D14*
X216943587Y-33237112D03*
%TD*%
D13*
%TO.C,MX65*%
X216626087Y-33237112D03*
X226786087Y-33237112D03*
D14*
X221706087Y-33237112D03*
%TD*%
D13*
%TO.C,MX55*%
X192813587Y-33237112D03*
X202973587Y-33237112D03*
D14*
X197893587Y-33237112D03*
%TD*%
D13*
%TO.C,MX50*%
X173763587Y-33237112D03*
X183923587Y-33237112D03*
D14*
X178843587Y-33237112D03*
%TD*%
D13*
%TO.C,MX44*%
X154713587Y-33237112D03*
X164873587Y-33237112D03*
D14*
X159793587Y-33237112D03*
%TD*%
D13*
%TO.C,MX74*%
X254726087Y-33237112D03*
X264886087Y-33237112D03*
D14*
X259806087Y-33237112D03*
%TD*%
D13*
%TO.C,MX82*%
X273776087Y-33237112D03*
X283936087Y-33237112D03*
D14*
X278856087Y-33237112D03*
%TD*%
D13*
%TO.C,MX66*%
X235676087Y-33237112D03*
X245836087Y-33237112D03*
D14*
X240756087Y-33237112D03*
%TD*%
D13*
%TO.C,MX38*%
X135663587Y-33237112D03*
X145823587Y-33237112D03*
D14*
X140743587Y-33237112D03*
%TD*%
D13*
%TO.C,MX30*%
X92801087Y-33237112D03*
X102961087Y-33237112D03*
D14*
X97881087Y-33237112D03*
%TD*%
D13*
%TO.C,MX104*%
X340451087Y-33237112D03*
X350611087Y-33237112D03*
D14*
X345531087Y-33237112D03*
%TD*%
D18*
%TO.C,USB2*%
X317464837Y-22887112D03*
X311684837Y-22887112D03*
D19*
X310254837Y-23417112D03*
X318894837Y-23417112D03*
D20*
X310254837Y-19237112D03*
X318894837Y-19237112D03*
%TD*%
D13*
%TO.C,MX112*%
X359501087Y-133249612D03*
X369661087Y-133249612D03*
D14*
X364581087Y-133249612D03*
%TD*%
D13*
%TO.C,MX107*%
X340451087Y-114199612D03*
X350611087Y-114199612D03*
D14*
X345531087Y-114199612D03*
%TD*%
D13*
%TO.C,MX103*%
X321401087Y-133249612D03*
X331561087Y-133249612D03*
D14*
X326481087Y-133249612D03*
%TD*%
D13*
%TO.C,MX106*%
X340451087Y-76099612D03*
X350611087Y-76099612D03*
D14*
X345531087Y-76099612D03*
%TD*%
D13*
%TO.C,MX102*%
X321401087Y-76099612D03*
X331561087Y-76099612D03*
D14*
X326481087Y-76099612D03*
%TD*%
D13*
%TO.C,MX111*%
X359501087Y-76099612D03*
X369661087Y-76099612D03*
D14*
X364581087Y-76099612D03*
%TD*%
D13*
%TO.C,MX110*%
X359501087Y-57049612D03*
X369661087Y-57049612D03*
D14*
X364581087Y-57049612D03*
%TD*%
D13*
%TO.C,MX101*%
X321401087Y-57049612D03*
X331561087Y-57049612D03*
D14*
X326481087Y-57049612D03*
%TD*%
D13*
%TO.C,MX105*%
X340451087Y-57049612D03*
X350611087Y-57049612D03*
D14*
X345531087Y-57049612D03*
%TD*%
D23*
%TO.C,D1*%
X39619837Y-100229612D03*
X37079837Y-100229612D03*
%TD*%
%TO.C,D2*%
X41842337Y-100229612D03*
X44382337Y-100229612D03*
%TD*%
D13*
%TO.C,MX22*%
X73751087Y-114199612D03*
X83911087Y-114199612D03*
D14*
X78831087Y-114199612D03*
%TD*%
D13*
%TO.C,MX97*%
X297588587Y-114199612D03*
X307748587Y-114199612D03*
D14*
X302668587Y-114199612D03*
%TD*%
D13*
%TO.C,MX96*%
X288063587Y-57049612D03*
X298223587Y-57049612D03*
D14*
X293143587Y-57049612D03*
D15*
X281237337Y-50064612D03*
X305049837Y-50064612D03*
D14*
X281237337Y-65304612D03*
X305049837Y-65304612D03*
%TD*%
D13*
%TO.C,MX86*%
X271394837Y-114199612D03*
X281554837Y-114199612D03*
D14*
X276474837Y-114199612D03*
%TD*%
D13*
%TO.C,MX5*%
X33269837Y-95149612D03*
X43429837Y-95149612D03*
D14*
X38349837Y-95149612D03*
%TD*%
D13*
%TO.C,MX94*%
X273776087Y-95149612D03*
X283936087Y-95149612D03*
D14*
X278856087Y-95149612D03*
%TD*%
D13*
%TO.C,MX90*%
X300287337Y-90704612D03*
X300287337Y-80544612D03*
D14*
X300287337Y-85624612D03*
X292032337Y-73686612D03*
X292032337Y-97562612D03*
D15*
X307272337Y-73686612D03*
X307272337Y-97562612D03*
%TD*%
D13*
%TO.C,MX81*%
X269013587Y-133249612D03*
X279173587Y-133249612D03*
D14*
X274093587Y-133249612D03*
%TD*%
D13*
%TO.C,MX73*%
X255361087Y-133249612D03*
X245201087Y-133249612D03*
D14*
X250281087Y-133249612D03*
%TD*%
D13*
%TO.C,MX43*%
X164238587Y-133249612D03*
X174398587Y-133249612D03*
D14*
X169318587Y-133249612D03*
D15*
X112168587Y-140234612D03*
X226468587Y-140234612D03*
D14*
X112168587Y-124994612D03*
X226468587Y-124994612D03*
%TD*%
D13*
%TO.C,MX10*%
X59463587Y-133249612D03*
X69623587Y-133249612D03*
D14*
X64543587Y-133249612D03*
%TD*%
D13*
%TO.C,MX17*%
X93436087Y-133249612D03*
X83276087Y-133249612D03*
D14*
X88356087Y-133249612D03*
%TD*%
D13*
%TO.C,MX1*%
X45811087Y-133249612D03*
X35651087Y-133249612D03*
D14*
X40731087Y-133249612D03*
%TD*%
D13*
%TO.C,MX83*%
X259488587Y-57049612D03*
X269648587Y-57049612D03*
D14*
X264568587Y-57049612D03*
%TD*%
D13*
%TO.C,MX98*%
X295207337Y-133249612D03*
X305367337Y-133249612D03*
D14*
X300287337Y-133249612D03*
%TD*%
D13*
%TO.C,MX88*%
X271394837Y-133249612D03*
X281554837Y-133249612D03*
D14*
X276474837Y-133249612D03*
%TD*%
D13*
%TO.C,MX79*%
X247582337Y-133249612D03*
X257742337Y-133249612D03*
D14*
X252662337Y-133249612D03*
%TD*%
D13*
%TO.C,MX71*%
X223769837Y-133249612D03*
X233929837Y-133249612D03*
D14*
X228849837Y-133249612D03*
%TD*%
D13*
%TO.C,MX49*%
X152332337Y-133249612D03*
X162492337Y-133249612D03*
D14*
X157412337Y-133249612D03*
D15*
X107412437Y-140234612D03*
X207412237Y-140234612D03*
D14*
X107412437Y-124994612D03*
X207412237Y-124994612D03*
%TD*%
D13*
%TO.C,MX23*%
X80894837Y-133249612D03*
X91054837Y-133249612D03*
D14*
X85974837Y-133249612D03*
%TD*%
D13*
%TO.C,MX16*%
X57082337Y-133249612D03*
X67242337Y-133249612D03*
D14*
X62162337Y-133249612D03*
%TD*%
D13*
%TO.C,MX8*%
X33269837Y-133249612D03*
X43429837Y-133249612D03*
D14*
X38349837Y-133249612D03*
%TD*%
D13*
%TO.C,MX87*%
X280919837Y-114199612D03*
X291079837Y-114199612D03*
D14*
X285999837Y-114199612D03*
D15*
X274093587Y-107214612D03*
X297906087Y-107214612D03*
D14*
X274093587Y-122454612D03*
X297906087Y-122454612D03*
%TD*%
D13*
%TO.C,MX78*%
X245201087Y-114199612D03*
X255361087Y-114199612D03*
D14*
X250281087Y-114199612D03*
%TD*%
D13*
%TO.C,MX70*%
X226151087Y-114199612D03*
X236311087Y-114199612D03*
D14*
X231231087Y-114199612D03*
%TD*%
D13*
%TO.C,MX64*%
X207101087Y-114199612D03*
X217261087Y-114199612D03*
D14*
X212181087Y-114199612D03*
%TD*%
D13*
%TO.C,MX59*%
X188051087Y-114199612D03*
X198211087Y-114199612D03*
D14*
X193131087Y-114199612D03*
%TD*%
D13*
%TO.C,MX54*%
X169001087Y-114199612D03*
X179161087Y-114199612D03*
D14*
X174081087Y-114199612D03*
%TD*%
D13*
%TO.C,MX48*%
X149951087Y-114199612D03*
X160111087Y-114199612D03*
D14*
X155031087Y-114199612D03*
%TD*%
D13*
%TO.C,MX42*%
X130901087Y-114199612D03*
X141061087Y-114199612D03*
D14*
X135981087Y-114199612D03*
%TD*%
D13*
%TO.C,MX35*%
X111851087Y-114199612D03*
X122011087Y-114199612D03*
D14*
X116931087Y-114199612D03*
%TD*%
D13*
%TO.C,MX29*%
X92801087Y-114199612D03*
X102961087Y-114199612D03*
D14*
X97881087Y-114199612D03*
%TD*%
D13*
%TO.C,MX15*%
X54701087Y-114199612D03*
X64861087Y-114199612D03*
D14*
X59781087Y-114199612D03*
%TD*%
D13*
%TO.C,MX6*%
X33269837Y-114199612D03*
X43429837Y-114199612D03*
D14*
X38349837Y-114199612D03*
%TD*%
D13*
%TO.C,MX95*%
X297588587Y-57049612D03*
X307748587Y-57049612D03*
D14*
X302668587Y-57049612D03*
%TD*%
D13*
%TO.C,MX85*%
X285682337Y-95149612D03*
X295842337Y-95149612D03*
D14*
X290762337Y-95149612D03*
D15*
X278856087Y-102134612D03*
X302668587Y-102134612D03*
D14*
X278856087Y-86894612D03*
X302668587Y-86894612D03*
%TD*%
D13*
%TO.C,MX77*%
X254726087Y-95149612D03*
X264886087Y-95149612D03*
D14*
X259806087Y-95149612D03*
%TD*%
D13*
%TO.C,MX69*%
X235676087Y-95149612D03*
X245836087Y-95149612D03*
D14*
X240756087Y-95149612D03*
%TD*%
D13*
%TO.C,MX63*%
X216626087Y-95149612D03*
X226786087Y-95149612D03*
D14*
X221706087Y-95149612D03*
%TD*%
D13*
%TO.C,MX58*%
X197576087Y-95149612D03*
X207736087Y-95149612D03*
D14*
X202656087Y-95149612D03*
%TD*%
D13*
%TO.C,MX53*%
X178526087Y-95149612D03*
X188686087Y-95149612D03*
D14*
X183606087Y-95149612D03*
%TD*%
D13*
%TO.C,MX47*%
X159476087Y-95149612D03*
X169636087Y-95149612D03*
D14*
X164556087Y-95149612D03*
%TD*%
D13*
%TO.C,MX41*%
X140426087Y-95149612D03*
X150586087Y-95149612D03*
D14*
X145506087Y-95149612D03*
%TD*%
D13*
%TO.C,MX34*%
X121376087Y-95149612D03*
X131536087Y-95149612D03*
D14*
X126456087Y-95149612D03*
%TD*%
D13*
%TO.C,MX28*%
X102326087Y-95149612D03*
X112486087Y-95149612D03*
D14*
X107406087Y-95149612D03*
%TD*%
D13*
%TO.C,MX21*%
X83276087Y-95149612D03*
X93436087Y-95149612D03*
D14*
X88356087Y-95149612D03*
%TD*%
D13*
%TO.C,MX9*%
X38032337Y-95149612D03*
X48192337Y-95149612D03*
D14*
X43112337Y-95149612D03*
%TD*%
D13*
%TO.C,MX99*%
X302986087Y-76099612D03*
X292826087Y-76099612D03*
D14*
X297906087Y-76099612D03*
%TD*%
D13*
%TO.C,MX84*%
X269013587Y-76099612D03*
X279173587Y-76099612D03*
D14*
X274093587Y-76099612D03*
%TD*%
D13*
%TO.C,MX76*%
X249963587Y-76099612D03*
X260123587Y-76099612D03*
D14*
X255043587Y-76099612D03*
%TD*%
D13*
%TO.C,MX68*%
X230913587Y-76099612D03*
X241073587Y-76099612D03*
D14*
X235993587Y-76099612D03*
%TD*%
D13*
%TO.C,MX62*%
X211863587Y-76099612D03*
X222023587Y-76099612D03*
D14*
X216943587Y-76099612D03*
%TD*%
D13*
%TO.C,MX57*%
X192813587Y-76099612D03*
X202973587Y-76099612D03*
D14*
X197893587Y-76099612D03*
%TD*%
D13*
%TO.C,MX52*%
X173763587Y-76099612D03*
X183923587Y-76099612D03*
D14*
X178843587Y-76099612D03*
%TD*%
D13*
%TO.C,MX46*%
X154713587Y-76099612D03*
X164873587Y-76099612D03*
D14*
X159793587Y-76099612D03*
%TD*%
D13*
%TO.C,MX40*%
X135663587Y-76099612D03*
X145823587Y-76099612D03*
D14*
X140743587Y-76099612D03*
%TD*%
D13*
%TO.C,MX33*%
X116613587Y-76099612D03*
X126773587Y-76099612D03*
D14*
X121693587Y-76099612D03*
%TD*%
D13*
%TO.C,MX27*%
X97563587Y-76099612D03*
X107723587Y-76099612D03*
D14*
X102643587Y-76099612D03*
%TD*%
D13*
%TO.C,MX20*%
X78513587Y-76099612D03*
X88673587Y-76099612D03*
D14*
X83593587Y-76099612D03*
%TD*%
D13*
%TO.C,MX4*%
X45811087Y-76099612D03*
X35651087Y-76099612D03*
D14*
X40731087Y-76099612D03*
%TD*%
D13*
%TO.C,MX93*%
X278538587Y-57049612D03*
X288698587Y-57049612D03*
D14*
X283618587Y-57049612D03*
%TD*%
D13*
%TO.C,MX75*%
X240438587Y-57049612D03*
X250598587Y-57049612D03*
D14*
X245518587Y-57049612D03*
%TD*%
D13*
%TO.C,MX67*%
X221388587Y-57049612D03*
X231548587Y-57049612D03*
D14*
X226468587Y-57049612D03*
%TD*%
D13*
%TO.C,MX61*%
X202338587Y-57049612D03*
X212498587Y-57049612D03*
D14*
X207418587Y-57049612D03*
%TD*%
D13*
%TO.C,MX56*%
X183288587Y-57049612D03*
X193448587Y-57049612D03*
D14*
X188368587Y-57049612D03*
%TD*%
D13*
%TO.C,MX51*%
X164238587Y-57049612D03*
X174398587Y-57049612D03*
D14*
X169318587Y-57049612D03*
%TD*%
D13*
%TO.C,MX45*%
X145188587Y-57049612D03*
X155348587Y-57049612D03*
D14*
X150268587Y-57049612D03*
%TD*%
D13*
%TO.C,MX39*%
X126138587Y-57049612D03*
X136298587Y-57049612D03*
D14*
X131218587Y-57049612D03*
%TD*%
D13*
%TO.C,MX32*%
X107088587Y-57049612D03*
X117248587Y-57049612D03*
D14*
X112168587Y-57049612D03*
%TD*%
D13*
%TO.C,MX26*%
X88038587Y-57049612D03*
X98198587Y-57049612D03*
D14*
X93118587Y-57049612D03*
%TD*%
D13*
%TO.C,MX19*%
X68988587Y-57049612D03*
X79148587Y-57049612D03*
D14*
X74068587Y-57049612D03*
%TD*%
D13*
%TO.C,MX12*%
X49938587Y-57049612D03*
X60098587Y-57049612D03*
D14*
X55018587Y-57049612D03*
%TD*%
D13*
%TO.C,MX3*%
X30888587Y-57049612D03*
X41048587Y-57049612D03*
D14*
X35968587Y-57049612D03*
%TD*%
M02*
