0
SECTION
2
HEADER
9
$INSUNITS
70
4
9
$ACADVER
1
AC1014
9
$HANDSEED
5
FFFF
0
ENDSEC
0
SECTION
2
TABLES
0
TABLE
2
VPORT
5
8
100
AcDbSymbolTable
0
ENDTAB
0
TABLE
2
LTYPE
5
5
100
AcDbSymbolTable
0
LTYPE
5
14
100
AcDbSymbolTableRecord
100
AcDbLinetypeTableRecord
2
BYBLOCK
70
0
0
LTYPE
5
15
100
AcDbSymbolTableRecord
100
AcDbLinetypeTableRecord
2
BYLAYER
70
0
0
ENDTAB
0
TABLE
2
LAYER
5
2
100
AcDbSymbolTable
70
2
0
LAYER
5
50
100
AcDbSymbolTableRecord
100
AcDbLayerTableRecord
2
0
70
0
6
CONTINUOUS
0
ENDTAB
0
TABLE
2
STYLE
5
3
100
AcDbSymbolTable
70
1
0
STYLE
5
11
100
AcDbSymbolTableRecord
100
AcDbTextStyleTableRecord
2
STANDARD
70
0
0
ENDTAB
0
TABLE
2
VIEW
5
6
100
AcDbSymbolTable
70
0
0
ENDTAB
0
TABLE
2
UCS
5
7
100
AcDbSymbolTable
70
0
0
ENDTAB
0
TABLE
2
APPID
5
9
100
AcDbSymbolTable
70
2
0
APPID
5
12
100
AcDbSymbolTableRecord
100
AcDbRegAppTableRecord
2
ACAD
70
0
0
ENDTAB
0
TABLE
2
DIMSTYLE
5
A
100
AcDbSymbolTable
70
1
0
ENDTAB
0
TABLE
2
BLOCK_RECORD
5
1
100
AcDbSymbolTable
70
1
0
BLOCK_RECORD
5
1F
100
AcDbSymbolTableRecord
100
AcDbBlockTableRecord
2
*MODEL_SPACE
0
BLOCK_RECORD
5
1B
100
AcDbSymbolTableRecord
100
AcDbBlockTableRecord
2
*PAPER_SPACE
0
ENDTAB
0
ENDSEC
0
SECTION
2
BLOCKS
0
BLOCK
5
20
100
AcDbEntity
100
AcDbBlockBegin
2
*MODEL_SPACE
0
ENDBLK
5
21
100
AcDbEntity
100
AcDbBlockEnd
0
BLOCK
5
1C
100
AcDbEntity
100
AcDbBlockBegin
2
*PAPER_SPACE
0
ENDBLK
5
1D
100
AcDbEntity
100
AcDbBlockEnd
0
ENDSEC
0
SECTION
2
ENTITIES
0
LWPOLYLINE
5
100
100
AcDbEntity
8
0
100
AcDbPolyline
90
32
70
1
43
0.0
10
134.1342040000003
20
-111.10089000000031
42
-0.19891236737965731
10
130.73713900000001
20
-112.50800039526338
10
38.973967000000002
20
-112.50800039526339
42
-0.19891236737965776
10
35.576901999999698
20
-111.10089000000031
42
0.41421356237309653
10
30.179032000000021
20
-111.10089000000005
42
-0.19891236737965662
10
26.781967000000005
20
-112.508000395263
10
-4.9999999999999991
20
-112.508
42
-0.41421356237309503
10
-10
20
-107.508
10
-10
20
4.9999999999999991
42
-0.41421356237309503
10
-5
20
10
10
178.31
20
10.000000000000016
42
0.41421356237309503
10
179.80999999999997
20
11.500000000000002
10
179.81
20
15.9
42
-0.41421356237309503
10
181.31
20
17.400000000000002
10
190.31999999999999
20
17.399999999999988
42
-0.41421356237309503
10
191.81999999999999
20
15.9
10
191.82000000000002
20
11.500000000000002
42
0.41421356237309503
10
193.31999999999999
20
10
10
375.91655561040005
20
9.9993936666203389
42
-0.42087482112239799
10
380.99999999999994
20
4.9699999999999989
10
381
20
-107.5093
42
-0.41421356237309503
10
376
20
-112.5093
10
344.84233899999998
20
-112.50800039526341
42
-0.19891236737965454
10
341.4452739999997
20
-111.10089000000036
42
0.41421356237310375
10
336.04740399999997
20
-111.10089000000008
42
-0.19891236737965523
10
332.65033899999997
20
-112.508000395263
10
240.88705200000004
20
-112.50800039526339
42
-0.19891236737965523
10
237.48998699999976
20
-111.10089000000033
42
0.41421356237309986
10
232.09211700000003
20
-111.10089000000004
42
-0.19891236737965731
10
228.69505200000003
20
-112.508000395263
10
142.92913899999999
20
-112.50800039526339
42
-0.19891236737965801
10
139.53207399999971
20
-111.10089000000031
42
0.41421356237309503
0
LWPOLYLINE
5
101
100
AcDbEntity
8
0
100
AcDbPolyline
90
6
70
1
43
0.0
10
0.42944676471841836
20
-100.42005532222842
42
-3.9205640989196753
10
0.42944676470227594
20
-99.604944677741997
42
-0.54788361830742016
10
3.571875000003903
20
-98.413109703860783
42
-0.54788361830652965
10
6.7143032352962049
20
-99.604944677744811
42
-3.9205640989932413
10
6.7143032353000738
20
-100.42005532222285
42
-0.54788361831198862
10
3.5718749999913064
20
-101.61189029612163
42
-0.54788361831179322
0
LWPOLYLINE
5
102
100
AcDbEntity
8
0
100
AcDbPolyline
90
2
70
1
43
0.0
10
28.013415769228676
20
-100.82764029362892
42
-4.6784164628275482
10
28.013415769228619
20
-99.197359706371088
42
-1.3433076972574993
0
LWPOLYLINE
5
103
100
AcDbEntity
8
0
100
AcDbPolyline
90
2
70
1
43
0.0
10
31.517834230759306
20
-100.82764029362721
42
-1.3433076972391602
10
31.517834230759298
20
-99.197359706372836
42
-4.6784164628661005
0
ARC
5
104
100
AcDbEntity
8
0
100
AcDbCircle
10
6.8262499999999999
20
-80.962500000000006
30
0
40
0.85090000000000277
210
0
220
-0
230
1
100
AcDbArc
50
68.090950211937923
51
291.90904978806191
0
ARC
5
105
100
AcDbEntity
8
0
100
AcDbCircle
10
7.4612500000000006
20
-80.962500000000006
30
0
40
0.85089999999991783
210
0
220
0
230
1
100
AcDbArc
50
-111.9090497880475
51
111.90904978804804
0
LWPOLYLINE
5
106
100
AcDbEntity
8
0
100
AcDbPolyline
90
2
70
1
43
0.0
10
116.11966576922364
20
-100.82764029364012
42
-4.6784164627571458
10
116.11966576922359
20
-99.197359706359919
42
-1.343307697260163
0
LWPOLYLINE
5
107
100
AcDbEntity
8
0
100
AcDbPolyline
90
2
70
1
43
0.0
10
119.62408423070427
20
-100.82764029364368
42
-1.3433076971444651
10
119.62408423070426
20
-99.197359706356337
42
-4.6784164629089018
0
LWPOLYLINE
5
108
100
AcDbEntity
8
0
100
AcDbPolyline
90
2
70
1
43
0.0
10
2.8745319526866346
20
-59.980581232255773
42
-6.895285295115599
10
3.2799019651174817
20
-60.132594986916665
42
-18.367706161821022
0
ARC
5
109
100
AcDbEntity
8
0
100
AcDbCircle
10
318.76999999999998
20
-100.0125
30
0
40
0.8508999999999961
210
0
220
-0
230
1
100
AcDbArc
50
68.09095021193815
51
291.90904978819373
0
ARC
5
110
100
AcDbEntity
8
0
100
AcDbCircle
10
319.40499999999997
20
-100.0125
30
0
40
0.85089999999857802
210
0
220
0
230
1
100
AcDbArc
50
-111.90904978795223
51
111.90904978804767
0
ARC
5
111
100
AcDbEntity
8
0
100
AcDbCircle
10
328.29500000000002
20
-100.0125
30
0
40
0.85089999999998978
210
0
220
-0
230
1
100
AcDbArc
50
68.090950211933517
51
291.90904978819765
0
ARC
5
112
100
AcDbEntity
8
0
100
AcDbCircle
10
328.93000000000001
20
-100.0125
30
0
40
0.85089999999853505
210
0
220
0
230
1
100
AcDbArc
50
-111.90904978794903
51
111.90904978804517
0
LWPOLYLINE
5
113
100
AcDbEntity
8
0
100
AcDbPolyline
90
2
70
1
43
0.0
10
335.30674113890888
20
-94.473517257373274
42
-5.0917774933468776
10
336.45694912653477
20
-94.396836724823103
42
-2.1867963234448213
0
ARC
5
114
100
AcDbEntity
8
0
100
AcDbCircle
10
254.79482000000002
20
-61.912760000000006
30
0
40
1.9938999999999782
210
0
220
0
230
1
100
AcDbArc
50
-15.384759169535393
51
250.8671289220741
0
ARC
5
115
100
AcDbEntity
8
0
100
AcDbCircle
10
256.06375000000003
20
-64.325500000000005
30
0
40
1.993900000023263
210
0
220
0
230
1
100
AcDbArc
50
-195.38475916901538
51
70.867128922707948
0
LWPOLYLINE
5
116
100
AcDbEntity
8
0
100
AcDbPolyline
90
2
70
1
43
0.0
10
265.79894321253056
20
-53.7234136437445
42
-19.91166930195784
10
265.57757733193739
20
-53.933782948988252
42
-26.078461713327204
0
LWPOLYLINE
5
117
100
AcDbEntity
8
0
100
AcDbPolyline
90
2
70
1
43
0.0
10
263.71456280193644
20
-47.906656606989976
42
-4.3195577363178606
10
263.49436089891145
20
-47.51824491692561
42
-7.4895103103954854
0
LWPOLYLINE
5
118
100
AcDbEntity
8
0
100
AcDbPolyline
90
4
70
1
43
0.0
10
181.81712200000004
20
11.294385
10
181.81712200000004
20
12.394385000000002
42
0.99999999999999989
10
181.21712200000002
20
12.394385000000002
10
181.21712200000002
20
11.294385
42
0.99999999999999989
0
LWPOLYLINE
5
119
100
AcDbEntity
8
0
100
AcDbPolyline
90
4
70
1
43
0.0
10
181.81712200000004
20
15.744385000000001
10
181.81712200000004
20
16.344384999999999
42
0.99999999999999989
10
181.21712200000002
20
16.344384999999999
10
181.21712200000002
20
15.744385000000001
42
0.99999999999999989
0
LWPOLYLINE
5
120
100
AcDbEntity
8
0
100
AcDbPolyline
90
4
70
1
43
0.0
10
257.20413069616501
20
-42.085094411136765
42
-2.5922745942417089
10
256.11859878761891
20
-42.442645458950764
42
-1.8522155175728767
10
257.87034145754654
20
-39.605779361661753
42
-1.3342160054227914
10
257.96001354703856
20
-41.065796819803893
42
-0.16335433521161816
0
ARC
5
121
100
AcDbEntity
8
0
100
AcDbCircle
10
252.09500000000003
20
-23.8125
30
0
40
0.85090000000000021
210
0
220
-0
230
1
100
AcDbArc
50
68.090950211940111
51
291.90904978805992
0
ARC
5
122
100
AcDbEntity
8
0
100
AcDbCircle
10
252.72999999999999
20
-23.8125
30
0
40
0.85089999999992072
210
0
220
0
230
1
100
AcDbArc
50
-111.9090497880475
51
111.90904978804748
0
ARC
5
123
100
AcDbEntity
8
0
100
AcDbCircle
10
261.62
20
-23.8125
30
0
40
0.85090000000000021
210
0
220
-0
230
1
100
AcDbArc
50
68.090950211938335
51
291.90904978806162
0
ARC
5
124
100
AcDbEntity
8
0
100
AcDbCircle
10
262.255
20
-23.8125
30
0
40
0.85089999999992072
210
0
220
0
230
1
100
AcDbArc
50
-111.9090497880475
51
111.90904978804748
0
LWPOLYLINE
5
125
100
AcDbEntity
8
0
100
AcDbPolyline
90
2
70
1
43
0.0
10
269.78194912652521
20
-18.196836724930101
42
-2.1867963232625951
10
268.63174113896201
20
-18.273517257432822
42
-5.0917774932142859
0
LWPOLYLINE
5
126
100
AcDbEntity
8
0
100
AcDbPolyline
90
4
70
1
43
0.0
10
190.41712200000003
20
11.294385
10
190.41712200000003
20
12.394385000000002
42
0.99999999999999989
10
189.81712200000001
20
12.394385000000002
10
189.81712200000001
20
11.294385
42
0.99999999999999989
0
LWPOLYLINE
5
127
100
AcDbEntity
8
0
100
AcDbPolyline
90
4
70
1
43
0.0
10
190.41712200000003
20
15.744385000000001
10
190.41712200000003
20
16.344384999999999
42
0.99999999999999989
10
189.81712200000001
20
16.344384999999999
10
189.81712200000001
20
15.744385000000001
42
0.99999999999999989
0
CIRCLE
5
128
100
AcDbEntity
8
0
100
AcDbCircle
10
-0.94999999999999996
20
-105.09999999999999
30
0
40
0.50800000000000001
210
0
220
0
230
-1
0
CIRCLE
5
129
100
AcDbEntity
8
0
100
AcDbCircle
10
-3.4900000000000002
20
-105.09999999999999
30
0
40
0.49530000000000018
210
0
220
0
230
-1
0
CIRCLE
5
130
100
AcDbEntity
8
0
100
AcDbCircle
10
-6.0300000000000011
20
-105.09999999999999
30
0
40
0.50799999999999956
210
0
220
0
230
-1
0
CIRCLE
5
131
100
AcDbEntity
8
0
100
AcDbCircle
10
-24.930000000000003
20
-105.09999999999999
30
0
40
0.49529999999999852
210
0
220
0
230
-1
0
CIRCLE
5
132
100
AcDbEntity
8
0
100
AcDbCircle
10
-27.469999999999999
20
-105.09999999999999
30
0
40
0.50800000000000178
210
0
220
0
230
-1
0
CIRCLE
5
133
100
AcDbEntity
8
0
100
AcDbCircle
10
-32.07
20
-105.09999999999999
30
0
40
0.49529999999999852
210
0
220
0
230
-1
0
CIRCLE
5
134
100
AcDbEntity
8
0
100
AcDbCircle
10
-34.609999999999999
20
-105.09999999999999
30
0
40
0.50800000000000178
210
0
220
0
230
-1
0
CIRCLE
5
135
100
AcDbEntity
8
0
100
AcDbCircle
10
2.6987500000000004
20
-100.0125
30
0
40
0.85089999999999999
210
0
220
0
230
-1
0
CIRCLE
5
136
100
AcDbEntity
8
0
100
AcDbCircle
10
-9.8424999999999994
20
-100.0125
30
0
40
0.85089999999999999
210
0
220
0
230
-1
0
CIRCLE
5
137
100
AcDbEntity
8
0
100
AcDbCircle
10
1.42875
20
-97.472500000000011
30
0
40
0.76200000000000023
210
0
220
0
230
-1
0
CIRCLE
5
138
100
AcDbEntity
8
0
100
AcDbCircle
10
-0.95250000000000001
20
-97.472500000000011
30
0
40
0.76200000000000001
210
0
220
0
230
-1
0
CIRCLE
5
139
100
AcDbEntity
8
0
100
AcDbCircle
10
-4.9212499999999997
20
-94.932500000000019
30
0
40
0.7619999999999999
210
0
220
0
230
-1
0
CIRCLE
5
140
100
AcDbEntity
8
0
100
AcDbCircle
10
-7.3025000000000002
20
-94.932500000000019
30
0
40
0.76200000000000045
210
0
220
0
230
-1
0
CIRCLE
5
141
100
AcDbEntity
8
0
100
AcDbCircle
10
-21.113750000000003
20
-100.0125
30
0
40
0.8509000000000011
210
0
220
0
230
-1
0
CIRCLE
5
142
100
AcDbEntity
8
0
100
AcDbCircle
10
-38.417499999999997
20
-100.0125
30
0
40
0.8509000000000011
210
0
220
0
230
-1
0
CIRCLE
5
143
100
AcDbEntity
8
0
100
AcDbCircle
10
-22.383749999999999
20
-97.472500000000011
30
0
40
0.76200000000000045
210
0
220
0
230
-1
0
CIRCLE
5
144
100
AcDbEntity
8
0
100
AcDbCircle
10
-29.5275
20
-97.472500000000011
30
0
40
0.76200000000000045
210
0
220
0
230
-1
0
CIRCLE
5
145
100
AcDbEntity
8
0
100
AcDbCircle
10
-28.733750000000001
20
-94.932500000000019
30
0
40
0.76200000000000045
210
0
220
0
230
-1
0
CIRCLE
5
146
100
AcDbEntity
8
0
100
AcDbCircle
10
-35.877499999999998
20
-94.932500000000019
30
0
40
0.76200000000000045
210
0
220
0
230
-1
0
CIRCLE
5
147
100
AcDbEntity
8
0
100
AcDbCircle
10
-57.149999999999999
20
-108.26750000000001
30
0
40
1.9939000000000018
210
0
220
0
230
-1
0
CIRCLE
5
148
100
AcDbEntity
8
0
100
AcDbCircle
10
-48.736250000000005
20
-105.08750000000001
30
0
40
0.49529999999999852
210
0
220
0
230
-1
0
CIRCLE
5
149
100
AcDbEntity
8
0
100
AcDbCircle
10
-51.276250000000005
20
-105.08750000000001
30
0
40
0.50799999999999734
210
0
220
0
230
-1
0
CIRCLE
5
150
100
AcDbEntity
8
0
100
AcDbCircle
10
-71.405749999999998
20
-108.26750000000001
30
0
40
1.9939000000000018
210
0
220
0
230
-1
0
CIRCLE
5
151
100
AcDbEntity
8
0
100
AcDbCircle
10
-44.926250000000003
20
-100.0125
30
0
40
0.8509000000000011
210
0
220
0
230
-1
0
CIRCLE
5
152
100
AcDbEntity
8
0
100
AcDbCircle
10
-50.006250000000001
20
-100.0125
30
0
40
1.9939000000000018
210
0
220
0
230
-1
0
CIRCLE
5
153
100
AcDbEntity
8
0
100
AcDbCircle
10
-55.086250000000007
20
-100.0125
30
0
40
0.8509000000000011
210
0
220
0
230
-1
0
CIRCLE
5
154
100
AcDbEntity
8
0
100
AcDbCircle
10
-46.196249999999999
20
-97.472500000000011
30
0
40
0.76200000000000045
210
0
220
0
230
-1
0
CIRCLE
5
155
100
AcDbEntity
8
0
100
AcDbCircle
10
-52.546250000000008
20
-94.932500000000019
30
0
40
0.76200000000000045
210
0
220
0
230
-1
0
CIRCLE
5
156
100
AcDbEntity
8
0
100
AcDbCircle
10
0.03175
20
-89.217500000000015
30
0
40
1.9939
210
0
220
0
230
-1
0
CIRCLE
5
157
100
AcDbEntity
8
0
100
AcDbCircle
10
-23.844249999999999
20
-89.217500000000015
30
0
40
1.9939000000000018
210
0
220
0
230
-1
0
CIRCLE
5
158
100
AcDbEntity
8
0
100
AcDbCircle
10
-1.1175999999999999
20
-86.029800000000009
30
0
40
0.49530000000000007
210
0
220
0
230
-1
0
CIRCLE
5
159
100
AcDbEntity
8
0
100
AcDbCircle
10
-3.6576000000000004
20
-86.029800000000009
30
0
40
0.50800000000000012
210
0
220
0
230
-1
0
CIRCLE
5
160
100
AcDbEntity
8
0
100
AcDbCircle
10
-10.63625
20
-86.037499999999994
30
0
40
0.49530000000000074
210
0
220
0
230
-1
0
CIRCLE
5
161
100
AcDbEntity
8
0
100
AcDbCircle
10
-13.17625
20
-86.037499999999994
30
0
40
0.50799999999999956
210
0
220
0
230
-1
0
CIRCLE
5
162
100
AcDbEntity
8
0
100
AcDbCircle
10
2.6987500000000004
20
-80.962500000000006
30
0
40
0.85089999999999999
210
0
220
0
230
-1
0
CIRCLE
5
163
100
AcDbEntity
8
0
100
AcDbCircle
10
-2.3812500000000005
20
-80.962500000000006
30
0
40
1.9939
210
0
220
0
230
-1
0
CIRCLE
5
164
100
AcDbEntity
8
0
100
AcDbCircle
10
-11.90625
20
-80.962500000000006
30
0
40
1.9938999999999996
210
0
220
0
230
-1
0
CIRCLE
5
165
100
AcDbEntity
8
0
100
AcDbCircle
10
-22.542500000000004
20
-86.042500000000004
30
0
40
0.49529999999999852
210
0
220
0
230
-1
0
CIRCLE
5
166
100
AcDbEntity
8
0
100
AcDbCircle
10
-25.082500000000003
20
-86.042500000000004
30
0
40
0.50800000000000178
210
0
220
0
230
-1
0
CIRCLE
5
167
100
AcDbEntity
8
0
100
AcDbCircle
10
-16.986249999999998
20
-80.962500000000006
30
0
40
0.8509000000000011
210
0
220
0
230
-1
0
CIRCLE
5
168
100
AcDbEntity
8
0
100
AcDbCircle
10
-18.732500000000002
20
-80.962500000000006
30
0
40
0.85089999999999888
210
0
220
0
230
-1
0
CIRCLE
5
169
100
AcDbEntity
8
0
100
AcDbCircle
10
-23.8125
20
-80.962500000000006
30
0
40
1.9939000000000018
210
0
220
0
230
-1
0
CIRCLE
5
170
100
AcDbEntity
8
0
100
AcDbCircle
10
-28.892500000000002
20
-80.962500000000006
30
0
40
0.8509000000000011
210
0
220
0
230
-1
0
CIRCLE
5
171
100
AcDbEntity
8
0
100
AcDbCircle
10
-37.782499999999999
20
-80.962500000000006
30
0
40
0.8509000000000011
210
0
220
0
230
-1
0
CIRCLE
5
172
100
AcDbEntity
8
0
100
AcDbCircle
10
-57.149999999999999
20
-93.027500000000018
30
0
40
1.5240000000000009
210
0
220
0
230
-1
0
CIRCLE
5
173
100
AcDbEntity
8
0
100
AcDbCircle
10
-71.405749999999998
20
-93.027500000000018
30
0
40
1.5240000000000009
210
0
220
0
230
-1
0
CIRCLE
5
174
100
AcDbEntity
8
0
100
AcDbCircle
10
-41.592500000000001
20
-86.037499999999994
30
0
40
0.49529999999999852
210
0
220
0
230
-1
0
CIRCLE
5
175
100
AcDbEntity
8
0
100
AcDbCircle
10
-44.132500000000007
20
-86.037499999999994
30
0
40
0.50799999999999734
210
0
220
0
230
-1
0
CIRCLE
5
176
100
AcDbEntity
8
0
100
AcDbCircle
10
-60.642500000000005
20
-86.037499999999994
30
0
40
0.49529999999999852
210
0
220
0
230
-1
0
CIRCLE
5
177
100
AcDbEntity
8
0
100
AcDbCircle
10
-63.182499999999997
20
-86.037499999999994
30
0
40
0.50799999999999734
210
0
220
0
230
-1
0
CIRCLE
5
178
100
AcDbEntity
8
0
100
AcDbCircle
10
-42.862499999999997
20
-80.962500000000006
30
0
40
1.9939000000000018
210
0
220
0
230
-1
0
CIRCLE
5
179
100
AcDbEntity
8
0
100
AcDbCircle
10
-47.94250000000001
20
-80.962500000000006
30
0
40
0.8509000000000011
210
0
220
0
230
-1
0
CIRCLE
5
180
100
AcDbEntity
8
0
100
AcDbCircle
10
-56.83250000000001
20
-80.962500000000006
30
0
40
0.8509000000000011
210
0
220
0
230
-1
0
CIRCLE
5
181
100
AcDbEntity
8
0
100
AcDbCircle
10
-61.912500000000001
20
-80.962500000000006
30
0
40
1.9939000000000018
210
0
220
0
230
-1
0
CIRCLE
5
182
100
AcDbEntity
8
0
100
AcDbCircle
10
-79.692499999999995
20
-86.037499999999994
30
0
40
0.49529999999999852
210
0
220
0
230
-1
0
CIRCLE
5
183
100
AcDbEntity
8
0
100
AcDbCircle
10
-82.232500000000002
20
-86.037499999999994
30
0
40
0.50800000000000622
210
0
220
0
230
-1
0
CIRCLE
5
184
100
AcDbEntity
8
0
100
AcDbCircle
10
-66.992500000000007
20
-80.962500000000006
30
0
40
0.8509000000000011
210
0
220
0
230
-1
0
CIRCLE
5
185
100
AcDbEntity
8
0
100
AcDbCircle
10
-75.882499999999993
20
-80.962500000000006
30
0
40
0.8509000000000011
210
0
220
0
230
-1
0
CIRCLE
5
186
100
AcDbEntity
8
0
100
AcDbCircle
10
-80.962500000000006
20
-80.962500000000006
30
0
40
1.9939000000000018
210
0
220
0
230
-1
0
CIRCLE
5
187
100
AcDbEntity
8
0
100
AcDbCircle
10
-86.042500000000004
20
-80.962500000000006
30
0
40
0.85089999999999222
210
0
220
0
230
-1
0
CIRCLE
5
188
100
AcDbEntity
8
0
100
AcDbCircle
10
-113.03
20
-105.09999999999999
30
0
40
0.4953000000000074
210
0
220
0
230
-1
0
CIRCLE
5
189
100
AcDbEntity
8
0
100
AcDbCircle
10
-115.57000000000001
20
-105.09999999999999
30
0
40
0.50800000000000622
210
0
220
0
230
-1
0
CIRCLE
5
190
100
AcDbEntity
8
0
100
AcDbCircle
10
-120.17375000000001
20
-105.08750000000001
30
0
40
0.4953000000000074
210
0
220
0
230
-1
0
CIRCLE
5
191
100
AcDbEntity
8
0
100
AcDbCircle
10
-122.71375
20
-105.08750000000001
30
0
40
0.50800000000000622
210
0
220
0
230
-1
0
CIRCLE
5
192
100
AcDbEntity
8
0
100
AcDbCircle
10
-109.22
20
-100.0125
30
0
40
0.85089999999999222
210
0
220
0
230
-1
0
CIRCLE
5
193
100
AcDbEntity
8
0
100
AcDbCircle
10
-110.48999999999999
20
-97.472500000000011
30
0
40
0.76200000000000045
210
0
220
0
230
-1
0
CIRCLE
5
194
100
AcDbEntity
8
0
100
AcDbCircle
10
-126.52375000000001
20
-100.0125
30
0
40
0.85089999999999222
210
0
220
0
230
-1
0
CIRCLE
5
195
100
AcDbEntity
8
0
100
AcDbCircle
10
-117.63375000000002
20
-97.472500000000011
30
0
40
0.76200000000000045
210
0
220
0
230
-1
0
CIRCLE
5
196
100
AcDbEntity
8
0
100
AcDbCircle
10
-116.84
20
-94.932500000000019
30
0
40
0.76200000000000045
210
0
220
0
230
-1
0
CIRCLE
5
197
100
AcDbEntity
8
0
100
AcDbCircle
10
-123.98375000000001
20
-94.932500000000019
30
0
40
0.76200000000000045
210
0
220
0
230
-1
0
CIRCLE
5
198
100
AcDbEntity
8
0
100
AcDbCircle
10
-171.44999999999999
20
-108.26750000000001
30
0
40
1.9939000000000107
210
0
220
0
230
-1
0
CIRCLE
5
199
100
AcDbEntity
8
0
100
AcDbCircle
10
-98.742500000000021
20
-86.037499999999994
30
0
40
0.4953000000000074
210
0
220
0
230
-1
0
CIRCLE
5
200
100
AcDbEntity
8
0
100
AcDbCircle
10
-101.28250000000001
20
-86.037499999999994
30
0
40
0.50800000000000622
210
0
220
0
230
-1
0
CIRCLE
5
201
100
AcDbEntity
8
0
100
AcDbCircle
10
-94.932500000000019
20
-80.962500000000006
30
0
40
0.85089999999999222
210
0
220
0
230
-1
0
CIRCLE
5
202
100
AcDbEntity
8
0
100
AcDbCircle
10
-100.0125
20
-80.962500000000006
30
0
40
1.9938999999999929
210
0
220
0
230
-1
0
CIRCLE
5
203
100
AcDbEntity
8
0
100
AcDbCircle
10
-105.09250000000002
20
-80.962500000000006
30
0
40
0.85089999999999222
210
0
220
0
230
-1
0
CIRCLE
5
204
100
AcDbEntity
8
0
100
AcDbCircle
10
-117.79250000000002
20
-86.037499999999994
30
0
40
0.4953000000000074
210
0
220
0
230
-1
0
CIRCLE
5
205
100
AcDbEntity
8
0
100
AcDbCircle
10
-120.33250000000001
20
-86.037499999999994
30
0
40
0.50800000000000622
210
0
220
0
230
-1
0
CIRCLE
5
206
100
AcDbEntity
8
0
100
AcDbCircle
10
-136.8425
20
-86.037499999999994
30
0
40
0.4953000000000074
210
0
220
0
230
-1
0
CIRCLE
5
207
100
AcDbEntity
8
0
100
AcDbCircle
10
-113.98250000000002
20
-80.962500000000006
30
0
40
0.85089999999999222
210
0
220
0
230
-1
0
CIRCLE
5
208
100
AcDbEntity
8
0
100
AcDbCircle
10
-119.0625
20
-80.962500000000006
30
0
40
1.9938999999999929
210
0
220
0
230
-1
0
CIRCLE
5
209
100
AcDbEntity
8
0
100
AcDbCircle
10
-124.14250000000001
20
-80.962500000000006
30
0
40
0.85089999999999222
210
0
220
0
230
-1
0
CIRCLE
5
210
100
AcDbEntity
8
0
100
AcDbCircle
10
-133.0325
20
-80.962500000000006
30
0
40
0.85089999999999222
210
0
220
0
230
-1
0
CIRCLE
5
211
100
AcDbEntity
8
0
100
AcDbCircle
10
-171.44999999999999
20
-93.027500000000018
30
0
40
1.5240000000000009
210
0
220
0
230
-1
0
CIRCLE
5
212
100
AcDbEntity
8
0
100
AcDbCircle
10
-139.38249999999999
20
-86.037499999999994
30
0
40
0.50800000000000622
210
0
220
0
230
-1
0
CIRCLE
5
213
100
AcDbEntity
8
0
100
AcDbCircle
10
-155.89250000000001
20
-86.037499999999994
30
0
40
0.4953000000000074
210
0
220
0
230
-1
0
CIRCLE
5
214
100
AcDbEntity
8
0
100
AcDbCircle
10
-158.4325
20
-86.037499999999994
30
0
40
0.50800000000000622
210
0
220
0
230
-1
0
CIRCLE
5
215
100
AcDbEntity
8
0
100
AcDbCircle
10
-138.11250000000001
20
-80.962500000000006
30
0
40
1.9938999999999929
210
0
220
0
230
-1
0
CIRCLE
5
216
100
AcDbEntity
8
0
100
AcDbCircle
10
-143.1925
20
-80.962500000000006
30
0
40
0.85089999999999222
210
0
220
0
230
-1
0
CIRCLE
5
217
100
AcDbEntity
8
0
100
AcDbCircle
10
-152.08250000000001
20
-80.962500000000006
30
0
40
0.85089999999999222
210
0
220
0
230
-1
0
CIRCLE
5
218
100
AcDbEntity
8
0
100
AcDbCircle
10
-157.16249999999999
20
-80.962500000000006
30
0
40
1.9938999999999929
210
0
220
0
230
-1
0
CIRCLE
5
219
100
AcDbEntity
8
0
100
AcDbCircle
10
-174.9425
20
-86.037499999999994
30
0
40
0.4953000000000074
210
0
220
0
230
-1
0
CIRCLE
5
220
100
AcDbEntity
8
0
100
AcDbCircle
10
-177.48249999999999
20
-86.037499999999994
30
0
40
0.50799999999998846
210
0
220
0
230
-1
0
CIRCLE
5
221
100
AcDbEntity
8
0
100
AcDbCircle
10
-162.24250000000001
20
-80.962500000000006
30
0
40
0.85090000000000998
210
0
220
0
230
-1
0
CIRCLE
5
222
100
AcDbEntity
8
0
100
AcDbCircle
10
-171.13249999999999
20
-80.962500000000006
30
0
40
0.85090000000000998
210
0
220
0
230
-1
0
CIRCLE
5
223
100
AcDbEntity
8
0
100
AcDbCircle
10
-176.21250000000001
20
-80.962500000000006
30
0
40
1.9939000000000107
210
0
220
0
230
-1
0
CIRCLE
5
224
100
AcDbEntity
8
0
100
AcDbCircle
10
-181.29249999999999
20
-80.962500000000006
30
0
40
0.85090000000000998
210
0
220
0
230
-1
0
CIRCLE
5
225
100
AcDbEntity
8
0
100
AcDbCircle
10
1.42875
20
-78.422499999999999
30
0
40
0.76200000000000023
210
0
220
0
230
-1
0
CIRCLE
5
226
100
AcDbEntity
8
0
100
AcDbCircle
10
-8.0962500000000013
20
-78.422499999999999
30
0
40
0.76200000000000045
210
0
220
0
230
-1
0
CIRCLE
5
227
100
AcDbEntity
8
0
100
AcDbCircle
10
-4.9212499999999997
20
-75.882499999999993
30
0
40
0.7619999999999999
210
0
220
0
230
-1
0
CIRCLE
5
228
100
AcDbEntity
8
0
100
AcDbCircle
10
-14.446250000000001
20
-75.882499999999993
30
0
40
0.76200000000000045
210
0
220
0
230
-1
0
CIRCLE
5
229
100
AcDbEntity
8
0
100
AcDbCircle
10
0.03175
20
-73.977500000000006
30
0
40
1.524
210
0
220
0
230
-1
0
CIRCLE
5
230
100
AcDbEntity
8
0
100
AcDbCircle
10
5.7910000000000004
20
-71.413499999999999
30
0
40
0.4500000000000004
210
0
220
0
230
-1
0
CIRCLE
5
231
100
AcDbEntity
8
0
100
AcDbCircle
10
-20.002500000000005
20
-78.422499999999999
30
0
40
0.76200000000000045
210
0
220
0
230
-1
0
CIRCLE
5
232
100
AcDbEntity
8
0
100
AcDbCircle
10
-26.352499999999999
20
-75.882499999999993
30
0
40
0.76200000000000045
210
0
220
0
230
-1
0
CIRCLE
5
233
100
AcDbEntity
8
0
100
AcDbCircle
10
-39.052500000000009
20
-78.422499999999999
30
0
40
0.76200000000000045
210
0
220
0
230
-1
0
CIRCLE
5
234
100
AcDbEntity
8
0
100
AcDbCircle
10
-23.844249999999999
20
-73.977500000000006
30
0
40
1.5240000000000009
210
0
220
0
230
-1
0
CIRCLE
5
235
100
AcDbEntity
8
0
100
AcDbCircle
10
5.7910000000000004
20
-68.413499999999999
30
0
40
0.4500000000000004
210
0
220
0
230
-1
0
CIRCLE
5
236
100
AcDbEntity
8
0
100
AcDbCircle
10
-1.1112500000000001
20
-66.987500000000011
30
0
40
0.49530000000000007
210
0
220
0
230
-1
0
CIRCLE
5
237
100
AcDbEntity
8
0
100
AcDbCircle
10
-3.6512500000000001
20
-66.987500000000011
30
0
40
0.50800000000000012
210
0
220
0
230
-1
0
CIRCLE
5
238
100
AcDbEntity
8
0
100
AcDbCircle
10
-5.8737500000000011
20
-66.987500000000011
30
0
40
0.49529999999999963
210
0
220
0
230
-1
0
CIRCLE
5
239
100
AcDbEntity
8
0
100
AcDbCircle
10
-8.4137500000000003
20
-66.987500000000011
30
0
40
0.50799999999999956
210
0
220
0
230
-1
0
CIRCLE
5
240
100
AcDbEntity
8
0
100
AcDbCircle
10
-32.067500000000003
20
-66.987500000000011
30
0
40
0.49529999999999852
210
0
220
0
230
-1
0
CIRCLE
5
241
100
AcDbEntity
8
0
100
AcDbCircle
10
-34.607500000000002
20
-66.987500000000011
30
0
40
0.50800000000000178
210
0
220
0
230
-1
0
CIRCLE
5
242
100
AcDbEntity
8
0
100
AcDbCircle
10
-45.402500000000003
20
-75.882499999999993
30
0
40
0.76200000000000045
210
0
220
0
230
-1
0
CIRCLE
5
243
100
AcDbEntity
8
0
100
AcDbCircle
10
-58.102499999999999
20
-78.422499999999999
30
0
40
0.76200000000000045
210
0
220
0
230
-1
0
CIRCLE
5
244
100
AcDbEntity
8
0
100
AcDbCircle
10
-64.452500000000001
20
-75.882499999999993
30
0
40
0.76200000000000045
210
0
220
0
230
-1
0
CIRCLE
5
245
100
AcDbEntity
8
0
100
AcDbCircle
10
-77.152500000000003
20
-78.422499999999999
30
0
40
0.76200000000000045
210
0
220
0
230
-1
0
CIRCLE
5
246
100
AcDbEntity
8
0
100
AcDbCircle
10
-83.502500000000012
20
-75.882499999999993
30
0
40
0.76200000000000045
210
0
220
0
230
-1
0
CIRCLE
5
247
100
AcDbEntity
8
0
100
AcDbCircle
10
-51.117500000000007
20
-66.987500000000011
30
0
40
0.49529999999999852
210
0
220
0
230
-1
0
CIRCLE
5
248
100
AcDbEntity
8
0
100
AcDbCircle
10
-53.657499999999999
20
-66.987500000000011
30
0
40
0.50799999999999734
210
0
220
0
230
-1
0
CIRCLE
5
249
100
AcDbEntity
8
0
100
AcDbCircle
10
-70.167500000000004
20
-66.987500000000011
30
0
40
0.49529999999999852
210
0
220
0
230
-1
0
CIRCLE
5
250
100
AcDbEntity
8
0
100
AcDbCircle
10
-72.707499999999996
20
-66.987500000000011
30
0
40
0.50799999999999734
210
0
220
0
230
-1
0
CIRCLE
5
251
100
AcDbEntity
8
0
100
AcDbCircle
10
2.6987500000000004
20
-61.912500000000001
30
0
40
0.85089999999999999
210
0
220
0
230
-1
0
CIRCLE
5
252
100
AcDbEntity
8
0
100
AcDbCircle
10
1.42875
20
-59.372500000000002
30
0
40
0.76200000000000023
210
0
220
0
230
-1
0
CIRCLE
5
253
100
AcDbEntity
8
0
100
AcDbCircle
10
-7.1437499999999998
20
-61.912500000000001
30
0
40
1.9938999999999996
210
0
220
0
230
-1
0
CIRCLE
5
254
100
AcDbEntity
8
0
100
AcDbCircle
10
-12.223750000000003
20
-61.912500000000001
30
0
40
0.85089999999999888
210
0
220
0
230
-1
0
CIRCLE
5
255
100
AcDbEntity
8
0
100
AcDbCircle
10
8.2550000000000008
20
-57.658000000000001
30
0
40
0.38100000000000023
210
0
220
0
230
-1
0
CIRCLE
5
256
100
AcDbEntity
8
0
100
AcDbCircle
10
8.2550000000000008
20
-55.118000000000009
30
0
40
0.38100000000000023
210
0
220
0
230
-1
0
CIRCLE
5
257
100
AcDbEntity
8
0
100
AcDbCircle
10
-4.9212499999999997
20
-56.83250000000001
30
0
40
0.7619999999999999
210
0
220
0
230
-1
0
CIRCLE
5
258
100
AcDbEntity
8
0
100
AcDbCircle
10
-9.6837499999999999
20
-56.83250000000001
30
0
40
0.76200000000000045
210
0
220
0
230
-1
0
CIRCLE
5
259
100
AcDbEntity
8
0
100
AcDbCircle
10
-28.2575
20
-61.912500000000001
30
0
40
0.8509000000000011
210
0
220
0
230
-1
0
CIRCLE
5
260
100
AcDbEntity
8
0
100
AcDbCircle
10
-33.337500000000006
20
-61.912500000000001
30
0
40
1.9939000000000018
210
0
220
0
230
-1
0
CIRCLE
5
261
100
AcDbEntity
8
0
100
AcDbCircle
10
-38.417499999999997
20
-61.912500000000001
30
0
40
0.8509000000000011
210
0
220
0
230
-1
0
CIRCLE
5
262
100
AcDbEntity
8
0
100
AcDbCircle
10
-29.5275
20
-59.372500000000002
30
0
40
0.76200000000000045
210
0
220
0
230
-1
0
CIRCLE
5
263
100
AcDbEntity
8
0
100
AcDbCircle
10
-35.877499999999998
20
-56.83250000000001
30
0
40
0.76200000000000045
210
0
220
0
230
-1
0
CIRCLE
5
264
100
AcDbEntity
8
0
100
AcDbCircle
10
8.2550000000000008
20
-52.578000000000003
30
0
40
0.38100000000000023
210
0
220
0
230
-1
0
CIRCLE
5
265
100
AcDbEntity
8
0
100
AcDbCircle
10
8.2550000000000008
20
-50.037999999999997
30
0
40
0.38100000000000023
210
0
220
0
230
-1
0
CIRCLE
5
266
100
AcDbEntity
8
0
100
AcDbCircle
10
-3.4925000000000006
20
-47.9375
30
0
40
0.49530000000000018
210
0
220
0
230
-1
0
CIRCLE
5
267
100
AcDbEntity
8
0
100
AcDbCircle
10
-6.0325000000000006
20
-47.9375
30
0
40
0.50799999999999956
210
0
220
0
230
-1
0
CIRCLE
5
268
100
AcDbEntity
8
0
100
AcDbCircle
10
-27.305
20
-47.9375
30
0
40
0.49529999999999852
210
0
220
0
230
-1
0
CIRCLE
5
269
100
AcDbEntity
8
0
100
AcDbCircle
10
-29.845000000000002
20
-47.9375
30
0
40
0.50800000000000178
210
0
220
0
230
-1
0
CIRCLE
5
270
100
AcDbEntity
8
0
100
AcDbCircle
10
-47.307499999999997
20
-61.912500000000001
30
0
40
0.8509000000000011
210
0
220
0
230
-1
0
CIRCLE
5
271
100
AcDbEntity
8
0
100
AcDbCircle
10
-48.577500000000001
20
-59.372500000000002
30
0
40
0.76200000000000045
210
0
220
0
230
-1
0
CIRCLE
5
272
100
AcDbEntity
8
0
100
AcDbCircle
10
-52.387500000000003
20
-61.912500000000001
30
0
40
1.9939000000000018
210
0
220
0
230
-1
0
CIRCLE
5
273
100
AcDbEntity
8
0
100
AcDbCircle
10
-57.467500000000001
20
-61.912500000000001
30
0
40
0.8509000000000011
210
0
220
0
230
-1
0
CIRCLE
5
274
100
AcDbEntity
8
0
100
AcDbCircle
10
-54.927500000000009
20
-56.83250000000001
30
0
40
0.76200000000000045
210
0
220
0
230
-1
0
CIRCLE
5
275
100
AcDbEntity
8
0
100
AcDbCircle
10
-66.357500000000002
20
-61.912500000000001
30
0
40
0.8509000000000011
210
0
220
0
230
-1
0
CIRCLE
5
276
100
AcDbEntity
8
0
100
AcDbCircle
10
-71.4375
20
-61.912500000000001
30
0
40
1.9939000000000018
210
0
220
0
230
-1
0
CIRCLE
5
277
100
AcDbEntity
8
0
100
AcDbCircle
10
-67.627499999999998
20
-59.372500000000002
30
0
40
0.76200000000000045
210
0
220
0
230
-1
0
CIRCLE
5
278
100
AcDbEntity
8
0
100
AcDbCircle
10
-76.517499999999998
20
-61.912500000000001
30
0
40
0.8509000000000011
210
0
220
0
230
-1
0
CIRCLE
5
279
100
AcDbEntity
8
0
100
AcDbCircle
10
-85.407500000000013
20
-61.912500000000001
30
0
40
0.85089999999999222
210
0
220
0
230
-1
0
CIRCLE
5
280
100
AcDbEntity
8
0
100
AcDbCircle
10
-86.677499999999995
20
-59.372500000000002
30
0
40
0.76200000000000045
210
0
220
0
230
-1
0
CIRCLE
5
281
100
AcDbEntity
8
0
100
AcDbCircle
10
-73.977500000000006
20
-56.83250000000001
30
0
40
0.76200000000000045
210
0
220
0
230
-1
0
CIRCLE
5
282
100
AcDbEntity
8
0
100
AcDbCircle
10
-46.354999999999997
20
-47.9375
30
0
40
0.49529999999999852
210
0
220
0
230
-1
0
CIRCLE
5
283
100
AcDbEntity
8
0
100
AcDbCircle
10
-48.89500000000001
20
-47.9375
30
0
40
0.50799999999999734
210
0
220
0
230
-1
0
CIRCLE
5
284
100
AcDbEntity
8
0
100
AcDbCircle
10
-65.405000000000001
20
-47.9375
30
0
40
0.49529999999999852
210
0
220
0
230
-1
0
CIRCLE
5
285
100
AcDbEntity
8
0
100
AcDbCircle
10
-67.944999999999993
20
-47.9375
30
0
40
0.50799999999999734
210
0
220
0
230
-1
0
CIRCLE
5
286
100
AcDbEntity
8
0
100
AcDbCircle
10
-84.455000000000013
20
-47.9375
30
0
40
0.4953000000000074
210
0
220
0
230
-1
0
CIRCLE
5
287
100
AcDbEntity
8
0
100
AcDbCircle
10
-86.995000000000005
20
-47.9375
30
0
40
0.50800000000000622
210
0
220
0
230
-1
0
CIRCLE
5
288
100
AcDbEntity
8
0
100
AcDbCircle
10
-96.202500000000001
20
-78.422499999999999
30
0
40
0.76200000000000045
210
0
220
0
230
-1
0
CIRCLE
5
289
100
AcDbEntity
8
0
100
AcDbCircle
10
-102.55250000000001
20
-75.882499999999993
30
0
40
0.76200000000000045
210
0
220
0
230
-1
0
CIRCLE
5
290
100
AcDbEntity
8
0
100
AcDbCircle
10
-115.2525
20
-78.422499999999999
30
0
40
0.76200000000000045
210
0
220
0
230
-1
0
CIRCLE
5
291
100
AcDbEntity
8
0
100
AcDbCircle
10
-121.60250000000002
20
-75.882499999999993
30
0
40
0.76200000000000045
210
0
220
0
230
-1
0
CIRCLE
5
292
100
AcDbEntity
8
0
100
AcDbCircle
10
-134.30250000000001
20
-78.422499999999999
30
0
40
0.76200000000000045
210
0
220
0
230
-1
0
CIRCLE
5
293
100
AcDbEntity
8
0
100
AcDbCircle
10
-89.217500000000015
20
-66.987500000000011
30
0
40
0.4953000000000074
210
0
220
0
230
-1
0
CIRCLE
5
294
100
AcDbEntity
8
0
100
AcDbCircle
10
-91.757499999999993
20
-66.987500000000011
30
0
40
0.50800000000000622
210
0
220
0
230
-1
0
CIRCLE
5
295
100
AcDbEntity
8
0
100
AcDbCircle
10
-108.26750000000001
20
-66.987500000000011
30
0
40
0.4953000000000074
210
0
220
0
230
-1
0
CIRCLE
5
296
100
AcDbEntity
8
0
100
AcDbCircle
10
-110.80750000000002
20
-66.987500000000011
30
0
40
0.50800000000000622
210
0
220
0
230
-1
0
CIRCLE
5
297
100
AcDbEntity
8
0
100
AcDbCircle
10
-127.3175
20
-66.987500000000011
30
0
40
0.4953000000000074
210
0
220
0
230
-1
0
CIRCLE
5
298
100
AcDbEntity
8
0
100
AcDbCircle
10
-129.85749999999999
20
-66.987500000000011
30
0
40
0.50800000000000622
210
0
220
0
230
-1
0
CIRCLE
5
299
100
AcDbEntity
8
0
100
AcDbCircle
10
-140.6525
20
-75.882499999999993
30
0
40
0.76200000000000045
210
0
220
0
230
-1
0
CIRCLE
5
300
100
AcDbEntity
8
0
100
AcDbCircle
10
-153.35249999999999
20
-78.422499999999999
30
0
40
0.76200000000000045
210
0
220
0
230
-1
0
CIRCLE
5
301
100
AcDbEntity
8
0
100
AcDbCircle
10
-159.70249999999999
20
-75.882499999999993
30
0
40
0.76200000000000045
210
0
220
0
230
-1
0
CIRCLE
5
302
100
AcDbEntity
8
0
100
AcDbCircle
10
-172.4025
20
-78.422499999999999
30
0
40
0.76200000000000045
210
0
220
0
230
-1
0
CIRCLE
5
303
100
AcDbEntity
8
0
100
AcDbCircle
10
-178.7525
20
-75.882499999999993
30
0
40
0.76200000000000045
210
0
220
0
230
-1
0
CIRCLE
5
304
100
AcDbEntity
8
0
100
AcDbCircle
10
-146.36750000000001
20
-66.987500000000011
30
0
40
0.4953000000000074
210
0
220
0
230
-1
0
CIRCLE
5
305
100
AcDbEntity
8
0
100
AcDbCircle
10
-148.9075
20
-66.987500000000011
30
0
40
0.50800000000000622
210
0
220
0
230
-1
0
CIRCLE
5
306
100
AcDbEntity
8
0
100
AcDbCircle
10
-165.41750000000002
20
-66.987500000000011
30
0
40
0.4953000000000074
210
0
220
0
230
-1
0
CIRCLE
5
307
100
AcDbEntity
8
0
100
AcDbCircle
10
-167.95750000000001
20
-66.987500000000011
30
0
40
0.50799999999998846
210
0
220
0
230
-1
0
CIRCLE
5
308
100
AcDbEntity
8
0
100
AcDbCircle
10
-184.46750000000003
20
-66.987500000000011
30
0
40
0.4953000000000074
210
0
220
0
230
-1
0
CIRCLE
5
309
100
AcDbEntity
8
0
100
AcDbCircle
10
-90.487499999999997
20
-61.912500000000001
30
0
40
1.9938999999999929
210
0
220
0
230
-1
0
CIRCLE
5
310
100
AcDbEntity
8
0
100
AcDbCircle
10
-95.567499999999995
20
-61.912500000000001
30
0
40
0.85089999999999222
210
0
220
0
230
-1
0
CIRCLE
5
311
100
AcDbEntity
8
0
100
AcDbCircle
10
-104.45750000000001
20
-61.912500000000001
30
0
40
0.85089999999999222
210
0
220
0
230
-1
0
CIRCLE
5
312
100
AcDbEntity
8
0
100
AcDbCircle
10
-109.53749999999999
20
-61.912500000000001
30
0
40
1.9938999999999929
210
0
220
0
230
-1
0
CIRCLE
5
313
100
AcDbEntity
8
0
100
AcDbCircle
10
-105.72750000000001
20
-59.372500000000002
30
0
40
0.76200000000000045
210
0
220
0
230
-1
0
CIRCLE
5
314
100
AcDbEntity
8
0
100
AcDbCircle
10
-93.027500000000018
20
-56.83250000000001
30
0
40
0.76200000000000045
210
0
220
0
230
-1
0
CIRCLE
5
315
100
AcDbEntity
8
0
100
AcDbCircle
10
-112.07750000000001
20
-56.83250000000001
30
0
40
0.76200000000000045
210
0
220
0
230
-1
0
CIRCLE
5
316
100
AcDbEntity
8
0
100
AcDbCircle
10
-114.61750000000002
20
-61.912500000000001
30
0
40
0.85089999999999222
210
0
220
0
230
-1
0
CIRCLE
5
317
100
AcDbEntity
8
0
100
AcDbCircle
10
-123.50749999999999
20
-61.912500000000001
30
0
40
0.85089999999999222
210
0
220
0
230
-1
0
CIRCLE
5
318
100
AcDbEntity
8
0
100
AcDbCircle
10
-124.7775
20
-59.372500000000002
30
0
40
0.76200000000000045
210
0
220
0
230
-1
0
CIRCLE
5
319
100
AcDbEntity
8
0
100
AcDbCircle
10
-128.58750000000001
20
-61.912500000000001
30
0
40
1.9938999999999929
210
0
220
0
230
-1
0
CIRCLE
5
320
100
AcDbEntity
8
0
100
AcDbCircle
10
-133.66749999999999
20
-61.912500000000001
30
0
40
0.85089999999999222
210
0
220
0
230
-1
0
CIRCLE
5
321
100
AcDbEntity
8
0
100
AcDbCircle
10
-131.1275
20
-56.83250000000001
30
0
40
0.76200000000000045
210
0
220
0
230
-1
0
CIRCLE
5
322
100
AcDbEntity
8
0
100
AcDbCircle
10
-103.505
20
-47.9375
30
0
40
0.4953000000000074
210
0
220
0
230
-1
0
CIRCLE
5
323
100
AcDbEntity
8
0
100
AcDbCircle
10
-106.04500000000002
20
-47.9375
30
0
40
0.50800000000000622
210
0
220
0
230
-1
0
CIRCLE
5
324
100
AcDbEntity
8
0
100
AcDbCircle
10
-122.55500000000001
20
-47.9375
30
0
40
0.4953000000000074
210
0
220
0
230
-1
0
CIRCLE
5
325
100
AcDbEntity
8
0
100
AcDbCircle
10
-125.09500000000001
20
-47.9375
30
0
40
0.50800000000000622
210
0
220
0
230
-1
0
CIRCLE
5
326
100
AcDbEntity
8
0
100
AcDbCircle
10
-142.5575
20
-61.912500000000001
30
0
40
0.85089999999999222
210
0
220
0
230
-1
0
CIRCLE
5
327
100
AcDbEntity
8
0
100
AcDbCircle
10
-147.63749999999999
20
-61.912500000000001
30
0
40
1.9938999999999929
210
0
220
0
230
-1
0
CIRCLE
5
328
100
AcDbEntity
8
0
100
AcDbCircle
10
-143.82749999999999
20
-59.372500000000002
30
0
40
0.76200000000000045
210
0
220
0
230
-1
0
CIRCLE
5
329
100
AcDbEntity
8
0
100
AcDbCircle
10
-152.7175
20
-61.912500000000001
30
0
40
0.85089999999999222
210
0
220
0
230
-1
0
CIRCLE
5
330
100
AcDbEntity
8
0
100
AcDbCircle
10
-150.17750000000001
20
-56.83250000000001
30
0
40
0.76200000000000045
210
0
220
0
230
-1
0
CIRCLE
5
331
100
AcDbEntity
8
0
100
AcDbCircle
10
-161.60750000000002
20
-61.912500000000001
30
0
40
0.85090000000000998
210
0
220
0
230
-1
0
CIRCLE
5
332
100
AcDbEntity
8
0
100
AcDbCircle
10
-166.6875
20
-61.912500000000001
30
0
40
1.9939000000000107
210
0
220
0
230
-1
0
CIRCLE
5
333
100
AcDbEntity
8
0
100
AcDbCircle
10
-171.76750000000001
20
-61.912500000000001
30
0
40
0.85090000000000998
210
0
220
0
230
-1
0
CIRCLE
5
334
100
AcDbEntity
8
0
100
AcDbCircle
10
-162.8775
20
-59.372500000000002
30
0
40
0.76200000000000045
210
0
220
0
230
-1
0
CIRCLE
5
335
100
AcDbEntity
8
0
100
AcDbCircle
10
-180.65750000000003
20
-61.912500000000001
30
0
40
0.85090000000000998
210
0
220
0
230
-1
0
CIRCLE
5
336
100
AcDbEntity
8
0
100
AcDbCircle
10
-181.92750000000001
20
-59.372500000000002
30
0
40
0.76200000000000045
210
0
220
0
230
-1
0
CIRCLE
5
337
100
AcDbEntity
8
0
100
AcDbCircle
10
-169.22750000000002
20
-56.83250000000001
30
0
40
0.76200000000000045
210
0
220
0
230
-1
0
CIRCLE
5
338
100
AcDbEntity
8
0
100
AcDbCircle
10
-141.60499999999999
20
-47.9375
30
0
40
0.4953000000000074
210
0
220
0
230
-1
0
CIRCLE
5
339
100
AcDbEntity
8
0
100
AcDbCircle
10
-144.14500000000001
20
-47.9375
30
0
40
0.50800000000000622
210
0
220
0
230
-1
0
CIRCLE
5
340
100
AcDbEntity
8
0
100
AcDbCircle
10
-160.655
20
-47.9375
30
0
40
0.4953000000000074
210
0
220
0
230
-1
0
CIRCLE
5
341
100
AcDbEntity
8
0
100
AcDbCircle
10
-163.19500000000002
20
-47.9375
30
0
40
0.50799999999998846
210
0
220
0
230
-1
0
CIRCLE
5
342
100
AcDbEntity
8
0
100
AcDbCircle
10
-179.70500000000001
20
-47.9375
30
0
40
0.4953000000000074
210
0
220
0
230
-1
0
CIRCLE
5
343
100
AcDbEntity
8
0
100
AcDbCircle
10
-182.24500000000003
20
-47.9375
30
0
40
0.50799999999998846
210
0
220
0
230
-1
0
CIRCLE
5
344
100
AcDbEntity
8
0
100
AcDbCircle
10
-193.99250000000001
20
-105.08750000000001
30
0
40
0.4953000000000074
210
0
220
0
230
-1
0
CIRCLE
5
345
100
AcDbEntity
8
0
100
AcDbCircle
10
-196.5325
20
-105.08750000000001
30
0
40
0.50799999999998846
210
0
220
0
230
-1
0
CIRCLE
5
346
100
AcDbEntity
8
0
100
AcDbCircle
10
-222.5675
20
-105.08750000000001
30
0
40
0.4953000000000074
210
0
220
0
230
-1
0
CIRCLE
5
347
100
AcDbEntity
8
0
100
AcDbCircle
10
-225.10750000000002
20
-105.08750000000001
30
0
40
0.50799999999998846
210
0
220
0
230
-1
0
CIRCLE
5
348
100
AcDbEntity
8
0
100
AcDbCircle
10
-190.1825
20
-100.0125
30
0
40
0.85090000000000998
210
0
220
0
230
-1
0
CIRCLE
5
349
100
AcDbEntity
8
0
100
AcDbCircle
10
-195.26250000000002
20
-100.0125
30
0
40
1.9939000000000107
210
0
220
0
230
-1
0
CIRCLE
5
350
100
AcDbEntity
8
0
100
AcDbCircle
10
-200.3425
20
-100.0125
30
0
40
0.85090000000000998
210
0
220
0
230
-1
0
CIRCLE
5
351
100
AcDbEntity
8
0
100
AcDbCircle
10
-191.45250000000001
20
-97.472500000000011
30
0
40
0.76200000000000045
210
0
220
0
230
-1
0
CIRCLE
5
352
100
AcDbEntity
8
0
100
AcDbCircle
10
-197.80250000000001
20
-94.932500000000019
30
0
40
0.76200000000000045
210
0
220
0
230
-1
0
CIRCLE
5
353
100
AcDbEntity
8
0
100
AcDbCircle
10
-218.75749999999999
20
-100.0125
30
0
40
0.85090000000000998
210
0
220
0
230
-1
0
CIRCLE
5
354
100
AcDbEntity
8
0
100
AcDbCircle
10
-223.83750000000003
20
-100.0125
30
0
40
1.9939000000000107
210
0
220
0
230
-1
0
CIRCLE
5
355
100
AcDbEntity
8
0
100
AcDbCircle
10
-228.91750000000002
20
-100.0125
30
0
40
0.85090000000000998
210
0
220
0
230
-1
0
CIRCLE
5
356
100
AcDbEntity
8
0
100
AcDbCircle
10
-220.02750000000003
20
-97.472500000000011
30
0
40
0.76200000000000045
210
0
220
0
230
-1
0
CIRCLE
5
357
100
AcDbEntity
8
0
100
AcDbCircle
10
-226.3775
20
-94.932500000000019
30
0
40
0.76200000000000045
210
0
220
0
230
-1
0
CIRCLE
5
358
100
AcDbEntity
8
0
100
AcDbCircle
10
-251.14250000000001
20
-109.84999999999999
30
0
40
0.4953000000000074
210
0
220
0
230
-1
0
CIRCLE
5
359
100
AcDbEntity
8
0
100
AcDbCircle
10
-253.68250000000003
20
-109.84999999999999
30
0
40
0.50799999999998846
210
0
220
0
230
-1
0
CIRCLE
5
360
100
AcDbEntity
8
0
100
AcDbCircle
10
-247.33250000000001
20
-104.77500000000001
30
0
40
0.85090000000000998
210
0
220
0
230
-1
0
CIRCLE
5
361
100
AcDbEntity
8
0
100
AcDbCircle
10
-252.41250000000002
20
-104.77500000000001
30
0
40
1.9939000000000107
210
0
220
0
230
-1
0
CIRCLE
5
362
100
AcDbEntity
8
0
100
AcDbCircle
10
-257.49250000000006
20
-104.77500000000001
30
0
40
0.85090000000000998
210
0
220
0
230
-1
0
CIRCLE
5
363
100
AcDbEntity
8
0
100
AcDbCircle
10
-270.1925
20
-109.84999999999999
30
0
40
0.4953000000000074
210
0
220
0
230
-1
0
CIRCLE
5
364
100
AcDbEntity
8
0
100
AcDbCircle
10
-272.73250000000007
20
-109.84999999999999
30
0
40
0.50799999999998846
210
0
220
0
230
-1
0
CIRCLE
5
365
100
AcDbEntity
8
0
100
AcDbCircle
10
-266.38249999999999
20
-104.77500000000001
30
0
40
0.85090000000000998
210
0
220
0
230
-1
0
CIRCLE
5
366
100
AcDbEntity
8
0
100
AcDbCircle
10
-271.46249999999998
20
-104.77500000000001
30
0
40
1.9939000000000107
210
0
220
0
230
-1
0
CIRCLE
5
367
100
AcDbEntity
8
0
100
AcDbCircle
10
-276.54250000000002
20
-104.77500000000001
30
0
40
0.85090000000000998
210
0
220
0
230
-1
0
CIRCLE
5
368
100
AcDbEntity
8
0
100
AcDbCircle
10
-248.60250000000002
20
-102.23500000000001
30
0
40
0.76200000000000045
210
0
220
0
230
-1
0
CIRCLE
5
369
100
AcDbEntity
8
0
100
AcDbCircle
10
-254.95249999999999
20
-99.694999999999993
30
0
40
0.76200000000000045
210
0
220
0
230
-1
0
CIRCLE
5
370
100
AcDbEntity
8
0
100
AcDbCircle
10
-267.65249999999997
20
-102.23500000000001
30
0
40
0.76200000000000045
210
0
220
0
230
-1
0
CIRCLE
5
371
100
AcDbEntity
8
0
100
AcDbCircle
10
-274.0025
20
-99.694999999999993
30
0
40
0.76200000000000045
210
0
220
0
230
-1
0
CIRCLE
5
372
100
AcDbEntity
8
0
100
AcDbCircle
10
-193.99250000000001
20
-86.037499999999994
30
0
40
0.4953000000000074
210
0
220
0
230
-1
0
CIRCLE
5
373
100
AcDbEntity
8
0
100
AcDbCircle
10
-196.5325
20
-86.037499999999994
30
0
40
0.50799999999998846
210
0
220
0
230
-1
0
CIRCLE
5
374
100
AcDbEntity
8
0
100
AcDbCircle
10
-190.1825
20
-80.962500000000006
30
0
40
0.85090000000000998
210
0
220
0
230
-1
0
CIRCLE
5
375
100
AcDbEntity
8
0
100
AcDbCircle
10
-195.26250000000002
20
-80.962500000000006
30
0
40
1.9939000000000107
210
0
220
0
230
-1
0
CIRCLE
5
376
100
AcDbEntity
8
0
100
AcDbCircle
10
-200.3425
20
-80.962500000000006
30
0
40
0.85090000000000998
210
0
220
0
230
-1
0
CIRCLE
5
377
100
AcDbEntity
8
0
100
AcDbCircle
10
-209.23249999999999
20
-80.962500000000006
30
0
40
0.85090000000000998
210
0
220
0
230
-1
0
CIRCLE
5
378
100
AcDbEntity
8
0
100
AcDbCircle
10
-213.04249999999999
20
-86.037499999999994
30
0
40
0.4953000000000074
210
0
220
0
230
-1
0
CIRCLE
5
379
100
AcDbEntity
8
0
100
AcDbCircle
10
-215.58250000000001
20
-86.037499999999994
30
0
40
0.50799999999998846
210
0
220
0
230
-1
0
CIRCLE
5
380
100
AcDbEntity
8
0
100
AcDbCircle
10
-214.31250000000003
20
-80.962500000000006
30
0
40
1.9939000000000107
210
0
220
0
230
-1
0
CIRCLE
5
381
100
AcDbEntity
8
0
100
AcDbCircle
10
-219.39250000000001
20
-80.962500000000006
30
0
40
0.85090000000000998
210
0
220
0
230
-1
0
CIRCLE
5
382
100
AcDbEntity
8
0
100
AcDbCircle
10
-270.1925
20
-90.799999999999997
30
0
40
0.4953000000000074
210
0
220
0
230
-1
0
CIRCLE
5
383
100
AcDbEntity
8
0
100
AcDbCircle
10
-272.73250000000007
20
-90.799999999999997
30
0
40
0.50799999999998846
210
0
220
0
230
-1
0
CIRCLE
5
384
100
AcDbEntity
8
0
100
AcDbCircle
10
-239.23625000000001
20
-86.037499999999994
30
0
40
0.4953000000000074
210
0
220
0
230
-1
0
CIRCLE
5
385
100
AcDbEntity
8
0
100
AcDbCircle
10
-241.77625000000003
20
-86.037499999999994
30
0
40
0.50799999999998846
210
0
220
0
230
-1
0
CIRCLE
5
386
100
AcDbEntity
8
0
100
AcDbCircle
10
-235.42726000000002
20
-80.96284
30
0
40
0.85090000000000998
210
0
220
0
230
-1
0
CIRCLE
5
387
100
AcDbEntity
8
0
100
AcDbCircle
10
-240.50726
20
-80.96284
30
0
40
1.9939000000000107
210
0
220
0
230
-1
0
CIRCLE
5
388
100
AcDbEntity
8
0
100
AcDbCircle
10
-245.58726000000001
20
-80.96284
30
0
40
0.85090000000000998
210
0
220
0
230
-1
0
CIRCLE
5
389
100
AcDbEntity
8
0
100
AcDbCircle
10
-266.38249999999999
20
-85.724999999999994
30
0
40
0.85090000000000998
210
0
220
0
230
-1
0
CIRCLE
5
390
100
AcDbEntity
8
0
100
AcDbCircle
10
-267.65249999999997
20
-83.185000000000002
30
0
40
0.76200000000000045
210
0
220
0
230
-1
0
CIRCLE
5
391
100
AcDbEntity
8
0
100
AcDbCircle
10
-271.46249999999998
20
-85.724999999999994
30
0
40
1.9939000000000107
210
0
220
0
230
-1
0
CIRCLE
5
392
100
AcDbEntity
8
0
100
AcDbCircle
10
-276.54250000000002
20
-85.724999999999994
30
0
40
0.85090000000000998
210
0
220
0
230
-1
0
CIRCLE
5
393
100
AcDbEntity
8
0
100
AcDbCircle
10
-274.0025
20
-80.64500000000001
30
0
40
0.76200000000000045
210
0
220
0
230
-1
0
CIRCLE
5
394
100
AcDbEntity
8
0
100
AcDbCircle
10
-289.24250000000001
20
-109.84999999999999
30
0
40
0.4953000000000074
210
0
220
0
230
-1
0
CIRCLE
5
395
100
AcDbEntity
8
0
100
AcDbCircle
10
-291.78250000000003
20
-109.84999999999999
30
0
40
0.50799999999998846
210
0
220
0
230
-1
0
CIRCLE
5
396
100
AcDbEntity
8
0
100
AcDbCircle
10
-285.4325
20
-104.77500000000001
30
0
40
0.85090000000000998
210
0
220
0
230
-1
0
CIRCLE
5
397
100
AcDbEntity
8
0
100
AcDbCircle
10
-290.51249999999999
20
-104.77500000000001
30
0
40
1.9939000000000107
210
0
220
0
230
-1
0
CIRCLE
5
398
100
AcDbEntity
8
0
100
AcDbCircle
10
-295.59249999999997
20
-104.77500000000001
30
0
40
0.85090000000000998
210
0
220
0
230
-1
0
CIRCLE
5
399
100
AcDbEntity
8
0
100
AcDbCircle
10
-311.91199999999998
20
-108.26750000000001
30
0
40
1.9939000000000107
210
0
220
0
230
-1
0
CIRCLE
5
400
100
AcDbEntity
8
0
100
AcDbCircle
10
-313.05500000000001
20
-105.08750000000001
30
0
40
0.4953000000000074
210
0
220
0
230
-1
0
CIRCLE
5
401
100
AcDbEntity
8
0
100
AcDbCircle
10
-315.59500000000003
20
-105.08750000000001
30
0
40
0.50799999999998846
210
0
220
0
230
-1
0
CIRCLE
5
402
100
AcDbEntity
8
0
100
AcDbCircle
10
-322.58000000000004
20
-105.08750000000001
30
0
40
0.49529999999997187
210
0
220
0
230
-1
0
CIRCLE
5
403
100
AcDbEntity
8
0
100
AcDbCircle
10
-325.12
20
-105.08750000000001
30
0
40
0.50800000000002399
210
0
220
0
230
-1
0
CIRCLE
5
404
100
AcDbEntity
8
0
100
AcDbCircle
10
-286.70249999999999
20
-102.23500000000001
30
0
40
0.76200000000000045
210
0
220
0
230
-1
0
CIRCLE
5
405
100
AcDbEntity
8
0
100
AcDbCircle
10
-293.05250000000001
20
-99.694999999999993
30
0
40
0.76200000000000045
210
0
220
0
230
-1
0
CIRCLE
5
406
100
AcDbEntity
8
0
100
AcDbCircle
10
-309.245
20
-100.0125
30
0
40
0.85090000000000998
210
0
220
0
230
-1
0
CIRCLE
5
407
100
AcDbEntity
8
0
100
AcDbCircle
10
-314.32499999999999
20
-100.0125
30
0
40
1.9939000000000107
210
0
220
0
230
-1
0
CIRCLE
5
408
100
AcDbEntity
8
0
100
AcDbCircle
10
-323.85000000000002
20
-100.0125
30
0
40
1.9939000000000107
210
0
220
0
230
-1
0
CIRCLE
5
409
100
AcDbEntity
8
0
100
AcDbCircle
10
-310.51499999999999
20
-97.472500000000011
30
0
40
0.76200000000000045
210
0
220
0
230
-1
0
CIRCLE
5
410
100
AcDbEntity
8
0
100
AcDbCircle
10
-316.86500000000001
20
-94.932500000000019
30
0
40
0.76200000000000045
210
0
220
0
230
-1
0
CIRCLE
5
411
100
AcDbEntity
8
0
100
AcDbCircle
10
-320.04000000000008
20
-97.472500000000011
30
0
40
0.76200000000000045
210
0
220
0
230
-1
0
CIRCLE
5
412
100
AcDbEntity
8
0
100
AcDbCircle
10
-329.565
20
-97.472500000000011
30
0
40
0.76200000000000045
210
0
220
0
230
-1
0
CIRCLE
5
413
100
AcDbEntity
8
0
100
AcDbCircle
10
-326.39000000000004
20
-94.932500000000019
30
0
40
0.76200000000000045
210
0
220
0
230
-1
0
CIRCLE
5
414
100
AcDbEntity
8
0
100
AcDbCircle
10
-335.78800000000001
20
-108.26750000000001
30
0
40
1.9939000000000107
210
0
220
0
230
-1
0
CIRCLE
5
415
100
AcDbEntity
8
0
100
AcDbCircle
10
-332.10500000000002
20
-105.08750000000001
30
0
40
0.49529999999997187
210
0
220
0
230
-1
0
CIRCLE
5
416
100
AcDbEntity
8
0
100
AcDbCircle
10
-334.64499999999998
20
-105.08750000000001
30
0
40
0.50800000000002399
210
0
220
0
230
-1
0
CIRCLE
5
417
100
AcDbEntity
8
0
100
AcDbCircle
10
-351.15499999999997
20
-105.08750000000001
30
0
40
0.49529999999997187
210
0
220
0
230
-1
0
CIRCLE
5
418
100
AcDbEntity
8
0
100
AcDbCircle
10
-353.69500000000005
20
-105.08750000000001
30
0
40
0.50800000000002399
210
0
220
0
230
-1
0
CIRCLE
5
419
100
AcDbEntity
8
0
100
AcDbCircle
10
-363.22000000000003
20
-102.42550000000001
30
0
40
1.9939000000000107
210
0
220
0
230
-1
0
CIRCLE
5
420
100
AcDbEntity
8
0
100
AcDbCircle
10
-378.45999999999998
20
-102.42550000000001
30
0
40
1.5240000000000009
210
0
220
0
230
-1
0
CIRCLE
5
421
100
AcDbEntity
8
0
100
AcDbCircle
10
-333.375
20
-100.0125
30
0
40
1.9939000000000107
210
0
220
0
230
-1
0
CIRCLE
5
422
100
AcDbEntity
8
0
100
AcDbCircle
10
-338.45500000000004
20
-100.0125
30
0
40
0.85090000000000998
210
0
220
0
230
-1
0
CIRCLE
5
423
100
AcDbEntity
8
0
100
AcDbCircle
10
-347.34500000000003
20
-100.0125
30
0
40
0.85090000000000998
210
0
220
0
230
-1
0
CIRCLE
5
424
100
AcDbEntity
8
0
100
AcDbCircle
10
-352.42500000000001
20
-100.0125
30
0
40
1.9939000000000107
210
0
220
0
230
-1
0
CIRCLE
5
425
100
AcDbEntity
8
0
100
AcDbCircle
10
-348.61500000000001
20
-97.472500000000011
30
0
40
0.76200000000000045
210
0
220
0
230
-1
0
CIRCLE
5
426
100
AcDbEntity
8
0
100
AcDbCircle
10
-354.96499999999997
20
-94.932500000000019
30
0
40
0.76200000000000045
210
0
220
0
230
-1
0
CIRCLE
5
427
100
AcDbEntity
8
0
100
AcDbCircle
10
-357.505
20
-100.0125
30
0
40
0.85090000000000998
210
0
220
0
230
-1
0
CIRCLE
5
428
100
AcDbEntity
8
0
100
AcDbCircle
10
-370.21000000000004
20
-95.510000000000005
30
0
40
0.49529999999997187
210
0
220
0
230
-1
0
CIRCLE
5
429
100
AcDbEntity
8
0
100
AcDbCircle
10
-372.75
20
-95.510000000000005
30
0
40
0.50800000000002399
210
0
220
0
230
-1
0
CIRCLE
5
430
100
AcDbEntity
8
0
100
AcDbCircle
10
-311.91199999999998
20
-93.027500000000018
30
0
40
1.5240000000000009
210
0
220
0
230
-1
0
CIRCLE
5
431
100
AcDbEntity
8
0
100
AcDbCircle
10
-291.19500000000005
20
-86.319852262799998
30
0
40
0.4953000000000074
210
0
220
0
230
-1
0
CIRCLE
5
432
100
AcDbEntity
8
0
100
AcDbCircle
10
-294.255
20
-86.319852262799998
30
0
40
0.50799999999998846
210
0
220
0
230
-1
0
CIRCLE
5
433
100
AcDbEntity
8
0
100
AcDbCircle
10
-289.92500000000001
20
-84.120147737189995
30
0
40
0.50799999999998846
210
0
220
0
230
-1
0
CIRCLE
5
434
100
AcDbEntity
8
0
100
AcDbCircle
10
-295.52499999999998
20
-84.120147737189995
30
0
40
0.4953000000000074
210
0
220
0
230
-1
0
CIRCLE
5
435
100
AcDbEntity
8
0
100
AcDbCircle
10
-291.46000000000004
20
-81.5
30
0
40
0.4953000000000074
210
0
220
0
230
-1
0
CIRCLE
5
436
100
AcDbEntity
8
0
100
AcDbCircle
10
-294
20
-81.5
30
0
40
0.50799999999998846
210
0
220
0
230
-1
0
CIRCLE
5
437
100
AcDbEntity
8
0
100
AcDbCircle
10
-313.05500000000001
20
-86.037499999999994
30
0
40
0.4953000000000074
210
0
220
0
230
-1
0
CIRCLE
5
438
100
AcDbEntity
8
0
100
AcDbCircle
10
-315.59500000000003
20
-86.037499999999994
30
0
40
0.50799999999998846
210
0
220
0
230
-1
0
CIRCLE
5
439
100
AcDbEntity
8
0
100
AcDbCircle
10
-309.245
20
-80.962500000000006
30
0
40
0.85090000000000998
210
0
220
0
230
-1
0
CIRCLE
5
440
100
AcDbEntity
8
0
100
AcDbCircle
10
-314.32499999999999
20
-80.962500000000006
30
0
40
1.9939000000000107
210
0
220
0
230
-1
0
CIRCLE
5
441
100
AcDbEntity
8
0
100
AcDbCircle
10
-319.40499999999997
20
-80.962500000000006
30
0
40
0.85090000000000998
210
0
220
0
230
-1
0
CIRCLE
5
442
100
AcDbEntity
8
0
100
AcDbCircle
10
-328.29500000000002
20
-80.962500000000006
30
0
40
0.85090000000000998
210
0
220
0
230
-1
0
CIRCLE
5
443
100
AcDbEntity
8
0
100
AcDbCircle
10
-366.39499999999998
20
-90.424000000000007
30
0
40
0.85090000000000998
210
0
220
0
230
-1
0
CIRCLE
5
444
100
AcDbEntity
8
0
100
AcDbCircle
10
-367.66500000000002
20
-87.884000000000015
30
0
40
0.76200000000000045
210
0
220
0
230
-1
0
CIRCLE
5
445
100
AcDbEntity
8
0
100
AcDbCircle
10
-371.47500000000002
20
-90.424000000000007
30
0
40
1.9939000000000107
210
0
220
0
230
-1
0
CIRCLE
5
446
100
AcDbEntity
8
0
100
AcDbCircle
10
-376.55500000000006
20
-90.424000000000007
30
0
40
0.85090000000000998
210
0
220
0
230
-1
0
CIRCLE
5
447
100
AcDbEntity
8
0
100
AcDbCircle
10
-332.10500000000002
20
-86.037499999999994
30
0
40
0.49529999999997187
210
0
220
0
230
-1
0
CIRCLE
5
448
100
AcDbEntity
8
0
100
AcDbCircle
10
-334.64499999999998
20
-86.037499999999994
30
0
40
0.50800000000002399
210
0
220
0
230
-1
0
CIRCLE
5
449
100
AcDbEntity
8
0
100
AcDbCircle
10
-351.15499999999997
20
-86.037499999999994
30
0
40
0.49529999999997187
210
0
220
0
230
-1
0
CIRCLE
5
450
100
AcDbEntity
8
0
100
AcDbCircle
10
-353.69500000000005
20
-86.037499999999994
30
0
40
0.50800000000002399
210
0
220
0
230
-1
0
CIRCLE
5
451
100
AcDbEntity
8
0
100
AcDbCircle
10
-333.375
20
-80.962500000000006
30
0
40
1.9939000000000107
210
0
220
0
230
-1
0
CIRCLE
5
452
100
AcDbEntity
8
0
100
AcDbCircle
10
-338.45500000000004
20
-80.962500000000006
30
0
40
0.85090000000000998
210
0
220
0
230
-1
0
CIRCLE
5
453
100
AcDbEntity
8
0
100
AcDbCircle
10
-347.34500000000003
20
-80.962500000000006
30
0
40
0.85090000000000998
210
0
220
0
230
-1
0
CIRCLE
5
454
100
AcDbEntity
8
0
100
AcDbCircle
10
-352.42500000000001
20
-80.962500000000006
30
0
40
1.9939000000000107
210
0
220
0
230
-1
0
CIRCLE
5
455
100
AcDbEntity
8
0
100
AcDbCircle
10
-374.01499999999999
20
-85.343999999999994
30
0
40
0.76200000000000045
210
0
220
0
230
-1
0
CIRCLE
5
456
100
AcDbEntity
8
0
100
AcDbCircle
10
-357.505
20
-80.962500000000006
30
0
40
0.85090000000000998
210
0
220
0
230
-1
0
CIRCLE
5
457
100
AcDbEntity
8
0
100
AcDbCircle
10
-191.45250000000001
20
-78.422499999999999
30
0
40
0.76200000000000045
210
0
220
0
230
-1
0
CIRCLE
5
458
100
AcDbEntity
8
0
100
AcDbCircle
10
-197.80250000000001
20
-75.882499999999993
30
0
40
0.76200000000000045
210
0
220
0
230
-1
0
CIRCLE
5
459
100
AcDbEntity
8
0
100
AcDbCircle
10
-210.50250000000003
20
-78.422499999999999
30
0
40
0.76200000000000045
210
0
220
0
230
-1
0
CIRCLE
5
460
100
AcDbEntity
8
0
100
AcDbCircle
10
-216.85249999999999
20
-75.882499999999993
30
0
40
0.76200000000000045
210
0
220
0
230
-1
0
CIRCLE
5
461
100
AcDbEntity
8
0
100
AcDbCircle
10
-187.00749999999999
20
-66.987500000000011
30
0
40
0.50799999999998846
210
0
220
0
230
-1
0
CIRCLE
5
462
100
AcDbEntity
8
0
100
AcDbCircle
10
-203.51750000000004
20
-66.987500000000011
30
0
40
0.4953000000000074
210
0
220
0
230
-1
0
CIRCLE
5
463
100
AcDbEntity
8
0
100
AcDbCircle
10
-206.0575
20
-66.987500000000011
30
0
40
0.50799999999998846
210
0
220
0
230
-1
0
CIRCLE
5
464
100
AcDbEntity
8
0
100
AcDbCircle
10
-222.5675
20
-66.987500000000011
30
0
40
0.4953000000000074
210
0
220
0
230
-1
0
CIRCLE
5
465
100
AcDbEntity
8
0
100
AcDbCircle
10
-225.10750000000002
20
-66.987500000000011
30
0
40
0.50799999999998846
210
0
220
0
230
-1
0
CIRCLE
5
466
100
AcDbEntity
8
0
100
AcDbCircle
10
-236.69726
20
-78.422839999999994
30
0
40
0.76200000000000045
210
0
220
0
230
-1
0
CIRCLE
5
467
100
AcDbEntity
8
0
100
AcDbCircle
10
-243.04726000000002
20
-75.882840000000002
30
0
40
0.76200000000000045
210
0
220
0
230
-1
0
CIRCLE
5
468
100
AcDbEntity
8
0
100
AcDbCircle
10
-242.85682000000003
20
-70.167760000000001
30
0
40
1.9939000000000107
210
0
220
0
230
-1
0
CIRCLE
5
469
100
AcDbEntity
8
0
100
AcDbCircle
10
-241.62000000000003
20
-66.989999999999995
30
0
40
0.4953000000000074
210
0
220
0
230
-1
0
CIRCLE
5
470
100
AcDbEntity
8
0
100
AcDbCircle
10
-244.16
20
-66.989999999999995
30
0
40
0.50799999999998846
210
0
220
0
230
-1
0
CIRCLE
5
471
100
AcDbEntity
8
0
100
AcDbCircle
10
-253.52375000000001
20
-66.987500000000011
30
0
40
0.4953000000000074
210
0
220
0
230
-1
0
CIRCLE
5
472
100
AcDbEntity
8
0
100
AcDbCircle
10
-256.06375000000003
20
-66.987500000000011
30
0
40
0.50799999999998846
210
0
220
0
230
-1
0
CIRCLE
5
473
100
AcDbEntity
8
0
100
AcDbCircle
10
-266.73282
20
-70.167760000000001
30
0
40
1.9939000000000107
210
0
220
0
230
-1
0
CIRCLE
5
474
100
AcDbEntity
8
0
100
AcDbCircle
10
-271.303743
20
-64.325494000000006
30
0
40
1.5240000000000009
210
0
220
0
230
-1
0
CIRCLE
5
475
100
AcDbEntity
8
0
100
AcDbCircle
10
-185.73750000000001
20
-61.912500000000001
30
0
40
1.9939000000000107
210
0
220
0
230
-1
0
CIRCLE
5
476
100
AcDbEntity
8
0
100
AcDbCircle
10
-190.8175
20
-61.912500000000001
30
0
40
0.85090000000000998
210
0
220
0
230
-1
0
CIRCLE
5
477
100
AcDbEntity
8
0
100
AcDbCircle
10
-199.70750000000004
20
-61.912500000000001
30
0
40
0.85090000000000998
210
0
220
0
230
-1
0
CIRCLE
5
478
100
AcDbEntity
8
0
100
AcDbCircle
10
-204.78750000000002
20
-61.912500000000001
30
0
40
1.9939000000000107
210
0
220
0
230
-1
0
CIRCLE
5
479
100
AcDbEntity
8
0
100
AcDbCircle
10
-209.86750000000001
20
-61.912500000000001
30
0
40
0.85090000000000998
210
0
220
0
230
-1
0
CIRCLE
5
480
100
AcDbEntity
8
0
100
AcDbCircle
10
-200.97750000000002
20
-59.372500000000002
30
0
40
0.76200000000000045
210
0
220
0
230
-1
0
CIRCLE
5
481
100
AcDbEntity
8
0
100
AcDbCircle
10
-188.27750000000003
20
-56.83250000000001
30
0
40
0.76200000000000045
210
0
220
0
230
-1
0
CIRCLE
5
482
100
AcDbEntity
8
0
100
AcDbCircle
10
-207.32749999999999
20
-56.83250000000001
30
0
40
0.76200000000000045
210
0
220
0
230
-1
0
CIRCLE
5
483
100
AcDbEntity
8
0
100
AcDbCircle
10
-218.75749999999999
20
-61.912760000000006
30
0
40
0.85090000000000998
210
0
220
0
230
-1
0
CIRCLE
5
484
100
AcDbEntity
8
0
100
AcDbCircle
10
-220.02750000000003
20
-59.372760000000007
30
0
40
0.76200000000000045
210
0
220
0
230
-1
0
CIRCLE
5
485
100
AcDbEntity
8
0
100
AcDbCircle
10
-223.83750000000003
20
-61.912760000000006
30
0
40
1.9939000000000107
210
0
220
0
230
-1
0
CIRCLE
5
486
100
AcDbEntity
8
0
100
AcDbCircle
10
-228.91750000000002
20
-61.912760000000006
30
0
40
0.85090000000000998
210
0
220
0
230
-1
0
CIRCLE
5
487
100
AcDbEntity
8
0
100
AcDbCircle
10
-226.3775
20
-56.83276
30
0
40
0.76200000000000045
210
0
220
0
230
-1
0
CIRCLE
5
488
100
AcDbEntity
8
0
100
AcDbCircle
10
-198.75500000000002
20
-47.9375
30
0
40
0.4953000000000074
210
0
220
0
230
-1
0
CIRCLE
5
489
100
AcDbEntity
8
0
100
AcDbCircle
10
-201.29500000000002
20
-47.9375
30
0
40
0.50799999999998846
210
0
220
0
230
-1
0
CIRCLE
5
490
100
AcDbEntity
8
0
100
AcDbCircle
10
-217.80500000000004
20
-47.9375
30
0
40
0.4953000000000074
210
0
220
0
230
-1
0
CIRCLE
5
491
100
AcDbEntity
8
0
100
AcDbCircle
10
-220.34500000000003
20
-47.9375
30
0
40
0.50799999999998846
210
0
220
0
230
-1
0
CIRCLE
5
492
100
AcDbEntity
8
0
100
AcDbCircle
10
-237.8075
20
-61.912500000000001
30
0
40
0.85090000000000998
210
0
220
0
230
-1
0
CIRCLE
5
493
100
AcDbEntity
8
0
100
AcDbCircle
10
-242.88749999999999
20
-61.912500000000001
30
0
40
1.9939000000000107
210
0
220
0
230
-1
0
CIRCLE
5
494
100
AcDbEntity
8
0
100
AcDbCircle
10
-239.07749999999999
20
-59.372500000000002
30
0
40
0.76200000000000045
210
0
220
0
230
-1
0
CIRCLE
5
495
100
AcDbEntity
8
0
100
AcDbCircle
10
-247.96750000000003
20
-61.912500000000001
30
0
40
0.85090000000000998
210
0
220
0
230
-1
0
CIRCLE
5
496
100
AcDbEntity
8
0
100
AcDbCircle
10
-249.71482000000003
20
-61.912760000000006
30
0
40
0.85090000000000998
210
0
220
0
230
-1
0
CIRCLE
5
497
100
AcDbEntity
8
0
100
AcDbCircle
10
-250.98482000000004
20
-59.372760000000007
30
0
40
0.76200000000000045
210
0
220
0
230
-1
0
CIRCLE
5
498
100
AcDbEntity
8
0
100
AcDbCircle
10
-245.42750000000001
20
-56.83250000000001
30
0
40
0.76200000000000045
210
0
220
0
230
-1
0
CIRCLE
5
499
100
AcDbEntity
8
0
100
AcDbCircle
10
-242.85682000000003
20
-54.927759999999999
30
0
40
1.5240000000000009
210
0
220
0
230
-1
0
CIRCLE
5
500
100
AcDbEntity
8
0
100
AcDbCircle
10
-257.33481999999998
20
-56.83276
30
0
40
0.76200000000000045
210
0
220
0
230
-1
0
CIRCLE
5
501
100
AcDbEntity
8
0
100
AcDbCircle
10
-259.87482
20
-61.912760000000006
30
0
40
0.85090000000000998
210
0
220
0
230
-1
0
CIRCLE
5
502
100
AcDbEntity
8
0
100
AcDbCircle
10
-264.31875000000002
20
-57.467500000000001
30
0
40
0.85090000000000998
210
0
220
0
230
-1
0
CIRCLE
5
503
100
AcDbEntity
8
0
100
AcDbCircle
10
-269.39875000000001
20
-54.927500000000009
30
0
40
0.76200000000000045
210
0
220
0
230
-1
0
CIRCLE
5
504
100
AcDbEntity
8
0
100
AcDbCircle
10
-236.85500000000002
20
-47.9375
30
0
40
0.4953000000000074
210
0
220
0
230
-1
0
CIRCLE
5
505
100
AcDbEntity
8
0
100
AcDbCircle
10
-239.39500000000004
20
-47.9375
30
0
40
0.50799999999998846
210
0
220
0
230
-1
0
CIRCLE
5
506
100
AcDbEntity
8
0
100
AcDbCircle
10
-259.23874999999998
20
-53.657499999999999
30
0
40
0.50799999999998846
210
0
220
0
230
-1
0
CIRCLE
5
507
100
AcDbEntity
8
0
100
AcDbCircle
10
-259.23874999999998
20
-51.117500000000007
30
0
40
0.4953000000000074
210
0
220
0
230
-1
0
CIRCLE
5
508
100
AcDbEntity
8
0
100
AcDbCircle
10
-260.66750000000002
20
-47.9375
30
0
40
0.4953000000000074
210
0
220
0
230
-1
0
CIRCLE
5
509
100
AcDbEntity
8
0
100
AcDbCircle
10
-266.85874999999999
20
-48.577500000000001
30
0
40
0.76200000000000045
210
0
220
0
230
-1
0
CIRCLE
5
510
100
AcDbEntity
8
0
100
AcDbCircle
10
-310.51499999999999
20
-78.422499999999999
30
0
40
0.76200000000000045
210
0
220
0
230
-1
0
CIRCLE
5
511
100
AcDbEntity
8
0
100
AcDbCircle
10
-316.86500000000001
20
-75.882499999999993
30
0
40
0.76200000000000045
210
0
220
0
230
-1
0
CIRCLE
5
512
100
AcDbEntity
8
0
100
AcDbCircle
10
-329.565
20
-78.422499999999999
30
0
40
0.76200000000000045
210
0
220
0
230
-1
0
CIRCLE
5
513
100
AcDbEntity
8
0
100
AcDbCircle
10
-289.24250000000001
20
-66.987500000000011
30
0
40
0.4953000000000074
210
0
220
0
230
-1
0
CIRCLE
5
514
100
AcDbEntity
8
0
100
AcDbCircle
10
-291.78250000000003
20
-66.987500000000011
30
0
40
0.50799999999998846
210
0
220
0
230
-1
0
CIRCLE
5
515
100
AcDbEntity
8
0
100
AcDbCircle
10
-313.05500000000001
20
-66.987500000000011
30
0
40
0.4953000000000074
210
0
220
0
230
-1
0
CIRCLE
5
516
100
AcDbEntity
8
0
100
AcDbCircle
10
-315.59500000000003
20
-66.987500000000011
30
0
40
0.50799999999998846
210
0
220
0
230
-1
0
CIRCLE
5
517
100
AcDbEntity
8
0
100
AcDbCircle
10
-335.91500000000002
20
-75.882499999999993
30
0
40
0.76200000000000045
210
0
220
0
230
-1
0
CIRCLE
5
518
100
AcDbEntity
8
0
100
AcDbCircle
10
-348.61500000000001
20
-78.422499999999999
30
0
40
0.76200000000000045
210
0
220
0
230
-1
0
CIRCLE
5
519
100
AcDbEntity
8
0
100
AcDbCircle
10
-354.96499999999997
20
-75.882499999999993
30
0
40
0.76200000000000045
210
0
220
0
230
-1
0
CIRCLE
5
520
100
AcDbEntity
8
0
100
AcDbCircle
10
-363.22000000000003
20
-78.549499999999995
30
0
40
1.9939000000000107
210
0
220
0
230
-1
0
CIRCLE
5
521
100
AcDbEntity
8
0
100
AcDbCircle
10
-378.45999999999998
20
-78.549499999999995
30
0
40
1.5240000000000009
210
0
220
0
230
-1
0
CIRCLE
5
522
100
AcDbEntity
8
0
100
AcDbCircle
10
-370.20499999999998
20
-71.4375
30
0
40
0.49529999999997187
210
0
220
0
230
-1
0
CIRCLE
5
523
100
AcDbEntity
8
0
100
AcDbCircle
10
-372.745
20
-71.4375
30
0
40
0.50800000000002399
210
0
220
0
230
-1
0
CIRCLE
5
524
100
AcDbEntity
8
0
100
AcDbCircle
10
-332.10500000000002
20
-66.987500000000011
30
0
40
0.49529999999997187
210
0
220
0
230
-1
0
CIRCLE
5
525
100
AcDbEntity
8
0
100
AcDbCircle
10
-334.64499999999998
20
-66.987500000000011
30
0
40
0.50800000000002399
210
0
220
0
230
-1
0
CIRCLE
5
526
100
AcDbEntity
8
0
100
AcDbCircle
10
-351.15499999999997
20
-66.987500000000011
30
0
40
0.49529999999997187
210
0
220
0
230
-1
0
CIRCLE
5
527
100
AcDbEntity
8
0
100
AcDbCircle
10
-353.69500000000005
20
-66.987500000000011
30
0
40
0.50800000000002399
210
0
220
0
230
-1
0
CIRCLE
5
528
100
AcDbEntity
8
0
100
AcDbCircle
10
-363.22000000000003
20
-64.325500000000005
30
0
40
1.9939000000000107
210
0
220
0
230
-1
0
CIRCLE
5
529
100
AcDbEntity
8
0
100
AcDbCircle
10
-378.45999999999998
20
-64.325500000000005
30
0
40
1.5240000000000009
210
0
220
0
230
-1
0
CIRCLE
5
530
100
AcDbEntity
8
0
100
AcDbCircle
10
-285.4325
20
-61.912500000000001
30
0
40
0.85090000000000998
210
0
220
0
230
-1
0
CIRCLE
5
531
100
AcDbEntity
8
0
100
AcDbCircle
10
-290.51249999999999
20
-61.912500000000001
30
0
40
1.9939000000000107
210
0
220
0
230
-1
0
CIRCLE
5
532
100
AcDbEntity
8
0
100
AcDbCircle
10
-286.70249999999999
20
-59.372500000000002
30
0
40
0.76200000000000045
210
0
220
0
230
-1
0
CIRCLE
5
533
100
AcDbEntity
8
0
100
AcDbCircle
10
-295.59249999999997
20
-61.912500000000001
30
0
40
0.85090000000000998
210
0
220
0
230
-1
0
CIRCLE
5
534
100
AcDbEntity
8
0
100
AcDbCircle
10
-293.05250000000001
20
-56.83250000000001
30
0
40
0.76200000000000045
210
0
220
0
230
-1
0
CIRCLE
5
535
100
AcDbEntity
8
0
100
AcDbCircle
10
-309.245
20
-61.912500000000001
30
0
40
0.85090000000000998
210
0
220
0
230
-1
0
CIRCLE
5
536
100
AcDbEntity
8
0
100
AcDbCircle
10
-314.32499999999999
20
-61.912500000000001
30
0
40
1.9939000000000107
210
0
220
0
230
-1
0
CIRCLE
5
537
100
AcDbEntity
8
0
100
AcDbCircle
10
-310.51499999999999
20
-59.372500000000002
30
0
40
0.76200000000000045
210
0
220
0
230
-1
0
CIRCLE
5
538
100
AcDbEntity
8
0
100
AcDbCircle
10
-319.40499999999997
20
-61.912500000000001
30
0
40
0.85090000000000998
210
0
220
0
230
-1
0
CIRCLE
5
539
100
AcDbEntity
8
0
100
AcDbCircle
10
-328.29500000000002
20
-61.912500000000001
30
0
40
0.85090000000000998
210
0
220
0
230
-1
0
CIRCLE
5
540
100
AcDbEntity
8
0
100
AcDbCircle
10
-329.565
20
-59.372500000000002
30
0
40
0.76200000000000045
210
0
220
0
230
-1
0
CIRCLE
5
541
100
AcDbEntity
8
0
100
AcDbCircle
10
-316.86500000000001
20
-56.83250000000001
30
0
40
0.76200000000000045
210
0
220
0
230
-1
0
CIRCLE
5
542
100
AcDbEntity
8
0
100
AcDbCircle
10
-289.24250000000001
20
-47.9375
30
0
40
0.4953000000000074
210
0
220
0
230
-1
0
CIRCLE
5
543
100
AcDbEntity
8
0
100
AcDbCircle
10
-291.78250000000003
20
-47.9375
30
0
40
0.50799999999998846
210
0
220
0
230
-1
0
CIRCLE
5
544
100
AcDbEntity
8
0
100
AcDbCircle
10
-313.05500000000001
20
-47.9375
30
0
40
0.4953000000000074
210
0
220
0
230
-1
0
CIRCLE
5
545
100
AcDbEntity
8
0
100
AcDbCircle
10
-315.59500000000003
20
-47.9375
30
0
40
0.50799999999998846
210
0
220
0
230
-1
0
CIRCLE
5
546
100
AcDbEntity
8
0
100
AcDbCircle
10
-333.375
20
-61.912500000000001
30
0
40
1.9939000000000107
210
0
220
0
230
-1
0
CIRCLE
5
547
100
AcDbEntity
8
0
100
AcDbCircle
10
-338.45500000000004
20
-61.912500000000001
30
0
40
0.85090000000000998
210
0
220
0
230
-1
0
CIRCLE
5
548
100
AcDbEntity
8
0
100
AcDbCircle
10
-347.34500000000003
20
-61.912500000000001
30
0
40
0.85090000000000998
210
0
220
0
230
-1
0
CIRCLE
5
549
100
AcDbEntity
8
0
100
AcDbCircle
10
-352.42500000000001
20
-61.912500000000001
30
0
40
1.9939000000000107
210
0
220
0
230
-1
0
CIRCLE
5
550
100
AcDbEntity
8
0
100
AcDbCircle
10
-348.61500000000001
20
-59.372500000000002
30
0
40
0.76200000000000045
210
0
220
0
230
-1
0
CIRCLE
5
551
100
AcDbEntity
8
0
100
AcDbCircle
10
-335.91500000000002
20
-56.83250000000001
30
0
40
0.76200000000000045
210
0
220
0
230
-1
0
CIRCLE
5
552
100
AcDbEntity
8
0
100
AcDbCircle
10
-354.96499999999997
20
-56.83250000000001
30
0
40
0.76200000000000045
210
0
220
0
230
-1
0
CIRCLE
5
553
100
AcDbEntity
8
0
100
AcDbCircle
10
-357.505
20
-61.912500000000001
30
0
40
0.85090000000000998
210
0
220
0
230
-1
0
CIRCLE
5
554
100
AcDbEntity
8
0
100
AcDbCircle
10
-370.20499999999998
20
-57.404000000000011
30
0
40
0.49529999999997187
210
0
220
0
230
-1
0
CIRCLE
5
555
100
AcDbEntity
8
0
100
AcDbCircle
10
-372.745
20
-57.404000000000011
30
0
40
0.50800000000002399
210
0
220
0
230
-1
0
CIRCLE
5
556
100
AcDbEntity
8
0
100
AcDbCircle
10
-332.10500000000002
20
-47.9375
30
0
40
0.49529999999997187
210
0
220
0
230
-1
0
CIRCLE
5
557
100
AcDbEntity
8
0
100
AcDbCircle
10
-334.64499999999998
20
-47.9375
30
0
40
0.50800000000002399
210
0
220
0
230
-1
0
CIRCLE
5
558
100
AcDbEntity
8
0
100
AcDbCircle
10
-351.15499999999997
20
-47.9375
30
0
40
0.49529999999997187
210
0
220
0
230
-1
0
CIRCLE
5
559
100
AcDbEntity
8
0
100
AcDbCircle
10
-353.69500000000005
20
-47.9375
30
0
40
0.50800000000002399
210
0
220
0
230
-1
0
CIRCLE
5
560
100
AcDbEntity
8
0
100
AcDbCircle
10
-366.39499999999998
20
-52.323999999999998
30
0
40
0.85090000000000998
210
0
220
0
230
-1
0
CIRCLE
5
561
100
AcDbEntity
8
0
100
AcDbCircle
10
-371.47500000000002
20
-52.323999999999998
30
0
40
1.9939000000000107
210
0
220
0
230
-1
0
CIRCLE
5
562
100
AcDbEntity
8
0
100
AcDbCircle
10
-376.55500000000006
20
-52.323999999999998
30
0
40
0.85090000000000998
210
0
220
0
230
-1
0
CIRCLE
5
563
100
AcDbEntity
8
0
100
AcDbCircle
10
-367.66500000000002
20
-49.784000000000006
30
0
40
0.76200000000000045
210
0
220
0
230
-1
0
CIRCLE
5
564
100
AcDbEntity
8
0
100
AcDbCircle
10
-374.01499999999999
20
-47.244
30
0
40
0.76200000000000045
210
0
220
0
230
-1
0
CIRCLE
5
565
100
AcDbEntity
8
0
100
AcDbCircle
10
0.3175
20
-42.862499999999997
30
0
40
0.85089999999999999
210
0
220
0
230
-1
0
CIRCLE
5
566
100
AcDbEntity
8
0
100
AcDbCircle
10
-0.95250000000000001
20
-40.322500000000005
30
0
40
0.76200000000000001
210
0
220
0
230
-1
0
CIRCLE
5
567
100
AcDbEntity
8
0
100
AcDbCircle
10
-4.7625000000000011
20
-42.862499999999997
30
0
40
1.9939
210
0
220
0
230
-1
0
CIRCLE
5
568
100
AcDbEntity
8
0
100
AcDbCircle
10
-9.8424999999999994
20
-42.862499999999997
30
0
40
0.85089999999999999
210
0
220
0
230
-1
0
CIRCLE
5
569
100
AcDbEntity
8
0
100
AcDbCircle
10
-23.495000000000005
20
-42.862499999999997
30
0
40
0.8509000000000011
210
0
220
0
230
-1
0
CIRCLE
5
570
100
AcDbEntity
8
0
100
AcDbCircle
10
-24.765000000000001
20
-40.322500000000005
30
0
40
0.76200000000000045
210
0
220
0
230
-1
0
CIRCLE
5
571
100
AcDbEntity
8
0
100
AcDbCircle
10
-28.574999999999999
20
-42.862499999999997
30
0
40
1.9939000000000018
210
0
220
0
230
-1
0
CIRCLE
5
572
100
AcDbEntity
8
0
100
AcDbCircle
10
-33.655000000000001
20
-42.862499999999997
30
0
40
0.8509000000000011
210
0
220
0
230
-1
0
CIRCLE
5
573
100
AcDbEntity
8
0
100
AcDbCircle
10
-7.3025000000000002
20
-37.782499999999999
30
0
40
0.76200000000000045
210
0
220
0
230
-1
0
CIRCLE
5
574
100
AcDbEntity
8
0
100
AcDbCircle
10
-31.114999999999998
20
-37.782499999999999
30
0
40
0.76200000000000045
210
0
220
0
230
-1
0
CIRCLE
5
575
100
AcDbEntity
8
0
100
AcDbCircle
10
-42.545000000000002
20
-42.862499999999997
30
0
40
0.8509000000000011
210
0
220
0
230
-1
0
CIRCLE
5
576
100
AcDbEntity
8
0
100
AcDbCircle
10
-47.625
20
-42.862499999999997
30
0
40
1.9939000000000018
210
0
220
0
230
-1
0
CIRCLE
5
577
100
AcDbEntity
8
0
100
AcDbCircle
10
-43.814999999999998
20
-40.322500000000005
30
0
40
0.76200000000000045
210
0
220
0
230
-1
0
CIRCLE
5
578
100
AcDbEntity
8
0
100
AcDbCircle
10
-52.704999999999998
20
-42.862499999999997
30
0
40
0.8509000000000011
210
0
220
0
230
-1
0
CIRCLE
5
579
100
AcDbEntity
8
0
100
AcDbCircle
10
-61.595000000000006
20
-42.862499999999997
30
0
40
0.8509000000000011
210
0
220
0
230
-1
0
CIRCLE
5
580
100
AcDbEntity
8
0
100
AcDbCircle
10
-62.865000000000002
20
-40.322500000000005
30
0
40
0.76200000000000045
210
0
220
0
230
-1
0
CIRCLE
5
581
100
AcDbEntity
8
0
100
AcDbCircle
10
-66.675000000000011
20
-42.862499999999997
30
0
40
1.9939000000000018
210
0
220
0
230
-1
0
CIRCLE
5
582
100
AcDbEntity
8
0
100
AcDbCircle
10
-71.754999999999995
20
-42.862499999999997
30
0
40
0.8509000000000011
210
0
220
0
230
-1
0
CIRCLE
5
583
100
AcDbEntity
8
0
100
AcDbCircle
10
-80.64500000000001
20
-42.862499999999997
30
0
40
0.8509000000000011
210
0
220
0
230
-1
0
CIRCLE
5
584
100
AcDbEntity
8
0
100
AcDbCircle
10
-85.724999999999994
20
-42.862499999999997
30
0
40
1.9938999999999929
210
0
220
0
230
-1
0
CIRCLE
5
585
100
AcDbEntity
8
0
100
AcDbCircle
10
-81.91500000000002
20
-40.322500000000005
30
0
40
0.76200000000000045
210
0
220
0
230
-1
0
CIRCLE
5
586
100
AcDbEntity
8
0
100
AcDbCircle
10
-50.165000000000006
20
-37.782499999999999
30
0
40
0.76200000000000045
210
0
220
0
230
-1
0
CIRCLE
5
587
100
AcDbEntity
8
0
100
AcDbCircle
10
-69.215000000000003
20
-37.782499999999999
30
0
40
0.76200000000000045
210
0
220
0
230
-1
0
CIRCLE
5
588
100
AcDbEntity
8
0
100
AcDbCircle
10
-88.265000000000015
20
-37.782499999999999
30
0
40
0.76200000000000045
210
0
220
0
230
-1
0
CIRCLE
5
589
100
AcDbEntity
8
0
100
AcDbCircle
10
1.27
20
-28.887499999999999
30
0
40
0.49530000000000018
210
0
220
0
230
-1
0
CIRCLE
5
590
100
AcDbEntity
8
0
100
AcDbCircle
10
-1.27
20
-28.887499999999999
30
0
40
0.50800000000000012
210
0
220
0
230
-1
0
CIRCLE
5
591
100
AcDbEntity
8
0
100
AcDbCircle
10
5.0800000000000001
20
-23.8125
30
0
40
0.85089999999999999
210
0
220
0
230
-1
0
CIRCLE
5
592
100
AcDbEntity
8
0
100
AcDbCircle
10
0
20
-23.8125
30
0
40
1.9939
210
0
220
0
230
-1
0
CIRCLE
5
593
100
AcDbEntity
8
0
100
AcDbCircle
10
-5.0800000000000001
20
-23.8125
30
0
40
0.85089999999999999
210
0
220
0
230
-1
0
CIRCLE
5
594
100
AcDbEntity
8
0
100
AcDbCircle
10
-13.970000000000002
20
-23.8125
30
0
40
0.8509000000000011
210
0
220
0
230
-1
0
CIRCLE
5
595
100
AcDbEntity
8
0
100
AcDbCircle
10
-17.780000000000001
20
-28.887499999999999
30
0
40
0.49530000000000074
210
0
220
0
230
-1
0
CIRCLE
5
596
100
AcDbEntity
8
0
100
AcDbCircle
10
-20.32
20
-28.887499999999999
30
0
40
0.50799999999999956
210
0
220
0
230
-1
0
CIRCLE
5
597
100
AcDbEntity
8
0
100
AcDbCircle
10
-36.829999999999998
20
-28.887499999999999
30
0
40
0.49529999999999852
210
0
220
0
230
-1
0
CIRCLE
5
598
100
AcDbEntity
8
0
100
AcDbCircle
10
-39.369999999999997
20
-28.887499999999999
30
0
40
0.50800000000000178
210
0
220
0
230
-1
0
CIRCLE
5
599
100
AcDbEntity
8
0
100
AcDbCircle
10
-19.050000000000004
20
-23.8125
30
0
40
1.9938999999999996
210
0
220
0
230
-1
0
CIRCLE
5
600
100
AcDbEntity
8
0
100
AcDbCircle
10
-24.130000000000003
20
-23.8125
30
0
40
0.8509000000000011
210
0
220
0
230
-1
0
CIRCLE
5
601
100
AcDbEntity
8
0
100
AcDbCircle
10
-33.020000000000003
20
-23.8125
30
0
40
0.8509000000000011
210
0
220
0
230
-1
0
CIRCLE
5
602
100
AcDbEntity
8
0
100
AcDbCircle
10
-38.100000000000009
20
-23.8125
30
0
40
1.9939000000000018
210
0
220
0
230
-1
0
CIRCLE
5
603
100
AcDbEntity
8
0
100
AcDbCircle
10
3.8100000000000001
20
-21.272500000000001
30
0
40
0.7619999999999999
210
0
220
0
230
-1
0
CIRCLE
5
604
100
AcDbEntity
8
0
100
AcDbCircle
10
-15.24
20
-21.272500000000001
30
0
40
0.76200000000000045
210
0
220
0
230
-1
0
CIRCLE
5
605
100
AcDbEntity
8
0
100
AcDbCircle
10
-2.54
20
-18.732500000000002
30
0
40
0.7619999999999999
210
0
220
0
230
-1
0
CIRCLE
5
606
100
AcDbEntity
8
0
100
AcDbCircle
10
-34.290000000000006
20
-21.272500000000001
30
0
40
0.76200000000000045
210
0
220
0
230
-1
0
CIRCLE
5
607
100
AcDbEntity
8
0
100
AcDbCircle
10
-21.590000000000003
20
-18.732500000000002
30
0
40
0.76200000000000045
210
0
220
0
230
-1
0
CIRCLE
5
608
100
AcDbEntity
8
0
100
AcDbCircle
10
-55.88000000000001
20
-28.887499999999999
30
0
40
0.49529999999999852
210
0
220
0
230
-1
0
CIRCLE
5
609
100
AcDbEntity
8
0
100
AcDbCircle
10
-58.420000000000002
20
-28.887499999999999
30
0
40
0.50799999999999734
210
0
220
0
230
-1
0
CIRCLE
5
610
100
AcDbEntity
8
0
100
AcDbCircle
10
-43.180000000000007
20
-23.8125
30
0
40
0.8509000000000011
210
0
220
0
230
-1
0
CIRCLE
5
611
100
AcDbEntity
8
0
100
AcDbCircle
10
-52.070000000000007
20
-23.8125
30
0
40
0.8509000000000011
210
0
220
0
230
-1
0
CIRCLE
5
612
100
AcDbEntity
8
0
100
AcDbCircle
10
-57.149999999999999
20
-23.8125
30
0
40
1.9939000000000018
210
0
220
0
230
-1
0
CIRCLE
5
613
100
AcDbEntity
8
0
100
AcDbCircle
10
-62.229999999999997
20
-23.8125
30
0
40
0.8509000000000011
210
0
220
0
230
-1
0
CIRCLE
5
614
100
AcDbEntity
8
0
100
AcDbCircle
10
-74.930000000000007
20
-28.887499999999999
30
0
40
0.49529999999999852
210
0
220
0
230
-1
0
CIRCLE
5
615
100
AcDbEntity
8
0
100
AcDbCircle
10
-77.469999999999999
20
-28.887499999999999
30
0
40
0.50799999999999734
210
0
220
0
230
-1
0
CIRCLE
5
616
100
AcDbEntity
8
0
100
AcDbCircle
10
-71.120000000000005
20
-23.8125
30
0
40
0.8509000000000011
210
0
220
0
230
-1
0
CIRCLE
5
617
100
AcDbEntity
8
0
100
AcDbCircle
10
-76.200000000000017
20
-23.8125
30
0
40
1.9939000000000018
210
0
220
0
230
-1
0
CIRCLE
5
618
100
AcDbEntity
8
0
100
AcDbCircle
10
-81.280000000000001
20
-23.8125
30
0
40
0.85089999999999222
210
0
220
0
230
-1
0
CIRCLE
5
619
100
AcDbEntity
8
0
100
AcDbCircle
10
-53.340000000000003
20
-21.272500000000001
30
0
40
0.76200000000000045
210
0
220
0
230
-1
0
CIRCLE
5
620
100
AcDbEntity
8
0
100
AcDbCircle
10
-40.640000000000001
20
-18.732500000000002
30
0
40
0.76200000000000045
210
0
220
0
230
-1
0
CIRCLE
5
621
100
AcDbEntity
8
0
100
AcDbCircle
10
-59.690000000000005
20
-18.732500000000002
30
0
40
0.76200000000000045
210
0
220
0
230
-1
0
CIRCLE
5
622
100
AcDbEntity
8
0
100
AcDbCircle
10
-72.390000000000015
20
-21.272500000000001
30
0
40
0.76200000000000045
210
0
220
0
230
-1
0
CIRCLE
5
623
100
AcDbEntity
8
0
100
AcDbCircle
10
-78.739999999999995
20
-18.732500000000002
30
0
40
0.76200000000000045
210
0
220
0
230
-1
0
CIRCLE
5
624
100
AcDbEntity
8
0
100
AcDbCircle
10
-90.805000000000007
20
-42.862499999999997
30
0
40
0.85089999999999222
210
0
220
0
230
-1
0
CIRCLE
5
625
100
AcDbEntity
8
0
100
AcDbCircle
10
-99.694999999999993
20
-42.862499999999997
30
0
40
0.85089999999999222
210
0
220
0
230
-1
0
CIRCLE
5
626
100
AcDbEntity
8
0
100
AcDbCircle
10
-104.77500000000001
20
-42.862499999999997
30
0
40
1.9938999999999929
210
0
220
0
230
-1
0
CIRCLE
5
627
100
AcDbEntity
8
0
100
AcDbCircle
10
-109.85500000000002
20
-42.862499999999997
30
0
40
0.85089999999999222
210
0
220
0
230
-1
0
CIRCLE
5
628
100
AcDbEntity
8
0
100
AcDbCircle
10
-100.965
20
-40.322500000000005
30
0
40
0.76200000000000045
210
0
220
0
230
-1
0
CIRCLE
5
629
100
AcDbEntity
8
0
100
AcDbCircle
10
-118.745
20
-42.862499999999997
30
0
40
0.85089999999999222
210
0
220
0
230
-1
0
CIRCLE
5
630
100
AcDbEntity
8
0
100
AcDbCircle
10
-123.825
20
-42.862499999999997
30
0
40
1.9938999999999929
210
0
220
0
230
-1
0
CIRCLE
5
631
100
AcDbEntity
8
0
100
AcDbCircle
10
-120.015
20
-40.322500000000005
30
0
40
0.76200000000000045
210
0
220
0
230
-1
0
CIRCLE
5
632
100
AcDbEntity
8
0
100
AcDbCircle
10
-128.905
20
-42.862499999999997
30
0
40
0.85089999999999222
210
0
220
0
230
-1
0
CIRCLE
5
633
100
AcDbEntity
8
0
100
AcDbCircle
10
-107.315
20
-37.782499999999999
30
0
40
0.76200000000000045
210
0
220
0
230
-1
0
CIRCLE
5
634
100
AcDbEntity
8
0
100
AcDbCircle
10
-126.36499999999999
20
-37.782499999999999
30
0
40
0.76200000000000045
210
0
220
0
230
-1
0
CIRCLE
5
635
100
AcDbEntity
8
0
100
AcDbCircle
10
-137.79499999999999
20
-42.862499999999997
30
0
40
0.85089999999999222
210
0
220
0
230
-1
0
CIRCLE
5
636
100
AcDbEntity
8
0
100
AcDbCircle
10
-142.875
20
-42.862499999999997
30
0
40
1.9938999999999929
210
0
220
0
230
-1
0
CIRCLE
5
637
100
AcDbEntity
8
0
100
AcDbCircle
10
-147.95500000000001
20
-42.862499999999997
30
0
40
0.85089999999999222
210
0
220
0
230
-1
0
CIRCLE
5
638
100
AcDbEntity
8
0
100
AcDbCircle
10
-139.065
20
-40.322500000000005
30
0
40
0.76200000000000045
210
0
220
0
230
-1
0
CIRCLE
5
639
100
AcDbEntity
8
0
100
AcDbCircle
10
-156.845
20
-42.862499999999997
30
0
40
0.85089999999999222
210
0
220
0
230
-1
0
CIRCLE
5
640
100
AcDbEntity
8
0
100
AcDbCircle
10
-158.11500000000001
20
-40.322500000000005
30
0
40
0.76200000000000045
210
0
220
0
230
-1
0
CIRCLE
5
641
100
AcDbEntity
8
0
100
AcDbCircle
10
-161.92500000000001
20
-42.862499999999997
30
0
40
1.9938999999999929
210
0
220
0
230
-1
0
CIRCLE
5
642
100
AcDbEntity
8
0
100
AcDbCircle
10
-167.00500000000002
20
-42.862499999999997
30
0
40
0.85090000000000998
210
0
220
0
230
-1
0
CIRCLE
5
643
100
AcDbEntity
8
0
100
AcDbCircle
10
-175.89500000000001
20
-42.862499999999997
30
0
40
0.85090000000000998
210
0
220
0
230
-1
0
CIRCLE
5
644
100
AcDbEntity
8
0
100
AcDbCircle
10
-180.97499999999999
20
-42.862499999999997
30
0
40
1.9939000000000107
210
0
220
0
230
-1
0
CIRCLE
5
645
100
AcDbEntity
8
0
100
AcDbCircle
10
-177.16499999999999
20
-40.322500000000005
30
0
40
0.76200000000000045
210
0
220
0
230
-1
0
CIRCLE
5
646
100
AcDbEntity
8
0
100
AcDbCircle
10
-145.41499999999999
20
-37.782499999999999
30
0
40
0.76200000000000045
210
0
220
0
230
-1
0
CIRCLE
5
647
100
AcDbEntity
8
0
100
AcDbCircle
10
-164.465
20
-37.782499999999999
30
0
40
0.76200000000000045
210
0
220
0
230
-1
0
CIRCLE
5
648
100
AcDbEntity
8
0
100
AcDbCircle
10
-183.51499999999999
20
-37.782499999999999
30
0
40
0.76200000000000045
210
0
220
0
230
-1
0
CIRCLE
5
649
100
AcDbEntity
8
0
100
AcDbCircle
10
-93.980000000000018
20
-28.887499999999999
30
0
40
0.4953000000000074
210
0
220
0
230
-1
0
CIRCLE
5
650
100
AcDbEntity
8
0
100
AcDbCircle
10
-96.52000000000001
20
-28.887499999999999
30
0
40
0.50800000000000622
210
0
220
0
230
-1
0
CIRCLE
5
651
100
AcDbEntity
8
0
100
AcDbCircle
10
-90.170000000000016
20
-23.8125
30
0
40
0.85089999999999222
210
0
220
0
230
-1
0
CIRCLE
5
652
100
AcDbEntity
8
0
100
AcDbCircle
10
-95.25
20
-23.8125
30
0
40
1.9938999999999929
210
0
220
0
230
-1
0
CIRCLE
5
653
100
AcDbEntity
8
0
100
AcDbCircle
10
-100.33000000000001
20
-23.8125
30
0
40
0.85089999999999222
210
0
220
0
230
-1
0
CIRCLE
5
654
100
AcDbEntity
8
0
100
AcDbCircle
10
-109.22
20
-23.8125
30
0
40
0.85089999999999222
210
0
220
0
230
-1
0
CIRCLE
5
655
100
AcDbEntity
8
0
100
AcDbCircle
10
-113.03
20
-28.887499999999999
30
0
40
0.4953000000000074
210
0
220
0
230
-1
0
CIRCLE
5
656
100
AcDbEntity
8
0
100
AcDbCircle
10
-115.57000000000001
20
-28.887499999999999
30
0
40
0.50800000000000622
210
0
220
0
230
-1
0
CIRCLE
5
657
100
AcDbEntity
8
0
100
AcDbCircle
10
-132.08000000000001
20
-28.887499999999999
30
0
40
0.4953000000000074
210
0
220
0
230
-1
0
CIRCLE
5
658
100
AcDbEntity
8
0
100
AcDbCircle
10
-134.62
20
-28.887499999999999
30
0
40
0.50800000000000622
210
0
220
0
230
-1
0
CIRCLE
5
659
100
AcDbEntity
8
0
100
AcDbCircle
10
-114.3
20
-23.8125
30
0
40
1.9938999999999929
210
0
220
0
230
-1
0
CIRCLE
5
660
100
AcDbEntity
8
0
100
AcDbCircle
10
-119.38000000000001
20
-23.8125
30
0
40
0.85089999999999222
210
0
220
0
230
-1
0
CIRCLE
5
661
100
AcDbEntity
8
0
100
AcDbCircle
10
-128.27000000000001
20
-23.8125
30
0
40
0.85089999999999222
210
0
220
0
230
-1
0
CIRCLE
5
662
100
AcDbEntity
8
0
100
AcDbCircle
10
-133.35000000000002
20
-23.8125
30
0
40
1.9938999999999929
210
0
220
0
230
-1
0
CIRCLE
5
663
100
AcDbEntity
8
0
100
AcDbCircle
10
-91.439999999999998
20
-21.272500000000001
30
0
40
0.76200000000000045
210
0
220
0
230
-1
0
CIRCLE
5
664
100
AcDbEntity
8
0
100
AcDbCircle
10
-110.48999999999999
20
-21.272500000000001
30
0
40
0.76200000000000045
210
0
220
0
230
-1
0
CIRCLE
5
665
100
AcDbEntity
8
0
100
AcDbCircle
10
-97.79000000000002
20
-18.732500000000002
30
0
40
0.76200000000000045
210
0
220
0
230
-1
0
CIRCLE
5
666
100
AcDbEntity
8
0
100
AcDbCircle
10
-129.54000000000002
20
-21.272500000000001
30
0
40
0.76200000000000045
210
0
220
0
230
-1
0
CIRCLE
5
667
100
AcDbEntity
8
0
100
AcDbCircle
10
-116.84
20
-18.732500000000002
30
0
40
0.76200000000000045
210
0
220
0
230
-1
0
CIRCLE
5
668
100
AcDbEntity
8
0
100
AcDbCircle
10
-135.88999999999999
20
-18.732500000000002
30
0
40
0.76200000000000045
210
0
220
0
230
-1
0
CIRCLE
5
669
100
AcDbEntity
8
0
100
AcDbCircle
10
-151.13
20
-28.887499999999999
30
0
40
0.4953000000000074
210
0
220
0
230
-1
0
CIRCLE
5
670
100
AcDbEntity
8
0
100
AcDbCircle
10
-153.66999999999999
20
-28.887499999999999
30
0
40
0.50800000000000622
210
0
220
0
230
-1
0
CIRCLE
5
671
100
AcDbEntity
8
0
100
AcDbCircle
10
-138.43000000000001
20
-23.8125
30
0
40
0.85089999999999222
210
0
220
0
230
-1
0
CIRCLE
5
672
100
AcDbEntity
8
0
100
AcDbCircle
10
-147.31999999999999
20
-23.8125
30
0
40
0.85089999999999222
210
0
220
0
230
-1
0
CIRCLE
5
673
100
AcDbEntity
8
0
100
AcDbCircle
10
-152.40000000000003
20
-23.8125
30
0
40
1.9938999999999929
210
0
220
0
230
-1
0
CIRCLE
5
674
100
AcDbEntity
8
0
100
AcDbCircle
10
-157.47999999999999
20
-23.8125
30
0
40
0.85089999999999222
210
0
220
0
230
-1
0
CIRCLE
5
675
100
AcDbEntity
8
0
100
AcDbCircle
10
-170.18000000000001
20
-28.887499999999999
30
0
40
0.4953000000000074
210
0
220
0
230
-1
0
CIRCLE
5
676
100
AcDbEntity
8
0
100
AcDbCircle
10
-172.72000000000003
20
-28.887499999999999
30
0
40
0.50799999999998846
210
0
220
0
230
-1
0
CIRCLE
5
677
100
AcDbEntity
8
0
100
AcDbCircle
10
-166.37
20
-23.8125
30
0
40
0.85090000000000998
210
0
220
0
230
-1
0
CIRCLE
5
678
100
AcDbEntity
8
0
100
AcDbCircle
10
-171.44999999999999
20
-23.8125
30
0
40
1.9939000000000107
210
0
220
0
230
-1
0
CIRCLE
5
679
100
AcDbEntity
8
0
100
AcDbCircle
10
-176.53000000000003
20
-23.8125
30
0
40
0.85090000000000998
210
0
220
0
230
-1
0
CIRCLE
5
680
100
AcDbEntity
8
0
100
AcDbCircle
10
-185.41999999999999
20
-23.8125
30
0
40
0.85090000000000998
210
0
220
0
230
-1
0
CIRCLE
5
681
100
AcDbEntity
8
0
100
AcDbCircle
10
-148.59000000000003
20
-21.272500000000001
30
0
40
0.76200000000000045
210
0
220
0
230
-1
0
CIRCLE
5
682
100
AcDbEntity
8
0
100
AcDbCircle
10
-154.94
20
-18.732500000000002
30
0
40
0.76200000000000045
210
0
220
0
230
-1
0
CIRCLE
5
683
100
AcDbEntity
8
0
100
AcDbCircle
10
-167.63999999999999
20
-21.272500000000001
30
0
40
0.76200000000000045
210
0
220
0
230
-1
0
CIRCLE
5
684
100
AcDbEntity
8
0
100
AcDbCircle
10
-173.99000000000001
20
-18.732500000000002
30
0
40
0.76200000000000045
210
0
220
0
230
-1
0
CIRCLE
5
685
100
AcDbEntity
8
0
100
AcDbCircle
10
1.27
20
-5.0750000000000011
30
0
40
0.49530000000000018
210
0
220
0
230
-1
0
CIRCLE
5
686
100
AcDbEntity
8
0
100
AcDbCircle
10
-1.27
20
-5.0750000000000011
30
0
40
0.50800000000000012
210
0
220
0
230
-1
0
CIRCLE
5
687
100
AcDbEntity
8
0
100
AcDbCircle
10
5.0800000000000001
20
0
30
0
40
0.85089999999999999
210
0
220
0
230
-1
0
CIRCLE
5
688
100
AcDbEntity
8
0
100
AcDbCircle
10
0
20
0
30
0
40
1.9939
210
0
220
0
230
-1
0
CIRCLE
5
689
100
AcDbEntity
8
0
100
AcDbCircle
10
-5.0800000000000001
20
0
30
0
40
0.85089999999999999
210
0
220
0
230
-1
0
CIRCLE
5
690
100
AcDbEntity
8
0
100
AcDbCircle
10
-22.542500000000004
20
-5.0750000000000011
30
0
40
0.49529999999999852
210
0
220
0
230
-1
0
CIRCLE
5
691
100
AcDbEntity
8
0
100
AcDbCircle
10
-25.082500000000003
20
-5.0750000000000011
30
0
40
0.50800000000000178
210
0
220
0
230
-1
0
CIRCLE
5
692
100
AcDbEntity
8
0
100
AcDbCircle
10
-18.732500000000002
20
0
30
0
40
0.85089999999999888
210
0
220
0
230
-1
0
CIRCLE
5
693
100
AcDbEntity
8
0
100
AcDbCircle
10
-23.8125
20
0
30
0
40
1.9939000000000018
210
0
220
0
230
-1
0
CIRCLE
5
694
100
AcDbEntity
8
0
100
AcDbCircle
10
-28.892500000000002
20
0
30
0
40
0.8509000000000011
210
0
220
0
230
-1
0
CIRCLE
5
695
100
AcDbEntity
8
0
100
AcDbCircle
10
-37.782499999999999
20
0
30
0
40
0.8509000000000011
210
0
220
0
230
-1
0
CIRCLE
5
696
100
AcDbEntity
8
0
100
AcDbCircle
10
-41.592500000000001
20
-5.0750000000000011
30
0
40
0.49529999999999852
210
0
220
0
230
-1
0
CIRCLE
5
697
100
AcDbEntity
8
0
100
AcDbCircle
10
-44.132500000000007
20
-5.0750000000000011
30
0
40
0.50799999999999734
210
0
220
0
230
-1
0
CIRCLE
5
698
100
AcDbEntity
8
0
100
AcDbCircle
10
-60.642500000000005
20
-5.0750000000000011
30
0
40
0.49529999999999852
210
0
220
0
230
-1
0
CIRCLE
5
699
100
AcDbEntity
8
0
100
AcDbCircle
10
-63.182499999999997
20
-5.0750000000000011
30
0
40
0.50799999999999734
210
0
220
0
230
-1
0
CIRCLE
5
700
100
AcDbEntity
8
0
100
AcDbCircle
10
-42.862499999999997
20
0
30
0
40
1.9939000000000018
210
0
220
0
230
-1
0
CIRCLE
5
701
100
AcDbEntity
8
0
100
AcDbCircle
10
-47.94250000000001
20
0
30
0
40
0.8509000000000011
210
0
220
0
230
-1
0
CIRCLE
5
702
100
AcDbEntity
8
0
100
AcDbCircle
10
-56.83250000000001
20
0
30
0
40
0.8509000000000011
210
0
220
0
230
-1
0
CIRCLE
5
703
100
AcDbEntity
8
0
100
AcDbCircle
10
-61.912500000000001
20
0
30
0
40
1.9939000000000018
210
0
220
0
230
-1
0
CIRCLE
5
704
100
AcDbEntity
8
0
100
AcDbCircle
10
-79.692499999999995
20
-5.0750000000000011
30
0
40
0.49529999999999852
210
0
220
0
230
-1
0
CIRCLE
5
705
100
AcDbEntity
8
0
100
AcDbCircle
10
-82.232500000000002
20
-5.0750000000000011
30
0
40
0.50800000000000622
210
0
220
0
230
-1
0
CIRCLE
5
706
100
AcDbEntity
8
0
100
AcDbCircle
10
-66.992500000000007
20
0
30
0
40
0.8509000000000011
210
0
220
0
230
-1
0
CIRCLE
5
707
100
AcDbEntity
8
0
100
AcDbCircle
10
-75.882499999999993
20
0
30
0
40
0.8509000000000011
210
0
220
0
230
-1
0
CIRCLE
5
708
100
AcDbEntity
8
0
100
AcDbCircle
10
-80.962500000000006
20
0
30
0
40
1.9939000000000018
210
0
220
0
230
-1
0
CIRCLE
5
709
100
AcDbEntity
8
0
100
AcDbCircle
10
-86.042500000000004
20
0
30
0
40
0.85089999999999222
210
0
220
0
230
-1
0
CIRCLE
5
710
100
AcDbEntity
8
0
100
AcDbCircle
10
3.8100000000000001
20
2.54
30
0
40
0.7619999999999999
210
0
220
0
230
-1
0
CIRCLE
5
711
100
AcDbEntity
8
0
100
AcDbCircle
10
-2.54
20
5.0800000000000001
30
0
40
0.7619999999999999
210
0
220
0
230
-1
0
CIRCLE
5
712
100
AcDbEntity
8
0
100
AcDbCircle
10
-20.002500000000005
20
2.54
30
0
40
0.76200000000000045
210
0
220
0
230
-1
0
CIRCLE
5
713
100
AcDbEntity
8
0
100
AcDbCircle
10
-39.052500000000009
20
2.54
30
0
40
0.76200000000000045
210
0
220
0
230
-1
0
CIRCLE
5
714
100
AcDbEntity
8
0
100
AcDbCircle
10
-26.352499999999999
20
5.0800000000000001
30
0
40
0.76200000000000045
210
0
220
0
230
-1
0
CIRCLE
5
715
100
AcDbEntity
8
0
100
AcDbCircle
10
-58.102499999999999
20
2.54
30
0
40
0.76200000000000045
210
0
220
0
230
-1
0
CIRCLE
5
716
100
AcDbEntity
8
0
100
AcDbCircle
10
-45.402500000000003
20
5.0800000000000001
30
0
40
0.76200000000000045
210
0
220
0
230
-1
0
CIRCLE
5
717
100
AcDbEntity
8
0
100
AcDbCircle
10
-77.152500000000003
20
2.54
30
0
40
0.76200000000000045
210
0
220
0
230
-1
0
CIRCLE
5
718
100
AcDbEntity
8
0
100
AcDbCircle
10
-64.452500000000001
20
5.0800000000000001
30
0
40
0.76200000000000045
210
0
220
0
230
-1
0
CIRCLE
5
719
100
AcDbEntity
8
0
100
AcDbCircle
10
-83.502500000000012
20
5.0800000000000001
30
0
40
0.76200000000000045
210
0
220
0
230
-1
0
CIRCLE
5
720
100
AcDbEntity
8
0
100
AcDbCircle
10
-103.505
20
-5.0750000000000011
30
0
40
0.4953000000000074
210
0
220
0
230
-1
0
CIRCLE
5
721
100
AcDbEntity
8
0
100
AcDbCircle
10
-106.04500000000002
20
-5.0750000000000011
30
0
40
0.50800000000000622
210
0
220
0
230
-1
0
CIRCLE
5
722
100
AcDbEntity
8
0
100
AcDbCircle
10
-91.630499999999998
20
-1.524
30
0
40
0.38100000000000023
210
0
220
0
230
-1
0
CIRCLE
5
723
100
AcDbEntity
8
0
100
AcDbCircle
10
-94.170500000000018
20
-1.524
30
0
40
0.38100000000000023
210
0
220
0
230
-1
0
CIRCLE
5
724
100
AcDbEntity
8
0
100
AcDbCircle
10
-99.694999999999993
20
0
30
0
40
0.85089999999999222
210
0
220
0
230
-1
0
CIRCLE
5
725
100
AcDbEntity
8
0
100
AcDbCircle
10
-104.77500000000001
20
0
30
0
40
1.9938999999999929
210
0
220
0
230
-1
0
CIRCLE
5
726
100
AcDbEntity
8
0
100
AcDbCircle
10
-109.85500000000002
20
0
30
0
40
0.85089999999999222
210
0
220
0
230
-1
0
CIRCLE
5
727
100
AcDbEntity
8
0
100
AcDbCircle
10
-122.56
20
-5.0700000000000003
30
0
40
0.4953000000000074
210
0
220
0
230
-1
0
CIRCLE
5
728
100
AcDbEntity
8
0
100
AcDbCircle
10
-125.09999999999999
20
-5.0700000000000003
30
0
40
0.50800000000000622
210
0
220
0
230
-1
0
CIRCLE
5
729
100
AcDbEntity
8
0
100
AcDbCircle
10
-118.745
20
0
30
0
40
0.85089999999999222
210
0
220
0
230
-1
0
CIRCLE
5
730
100
AcDbEntity
8
0
100
AcDbCircle
10
-123.825
20
0
30
0
40
1.9938999999999929
210
0
220
0
230
-1
0
CIRCLE
5
731
100
AcDbEntity
8
0
100
AcDbCircle
10
-128.905
20
0
30
0
40
0.85089999999999222
210
0
220
0
230
-1
0
CIRCLE
5
732
100
AcDbEntity
8
0
100
AcDbCircle
10
-141.60499999999999
20
-5.0750000000000011
30
0
40
0.4953000000000074
210
0
220
0
230
-1
0
CIRCLE
5
733
100
AcDbEntity
8
0
100
AcDbCircle
10
-144.14500000000001
20
-5.0750000000000011
30
0
40
0.50800000000000622
210
0
220
0
230
-1
0
CIRCLE
5
734
100
AcDbEntity
8
0
100
AcDbCircle
10
-160.655
20
-5.0750000000000011
30
0
40
0.4953000000000074
210
0
220
0
230
-1
0
CIRCLE
5
735
100
AcDbEntity
8
0
100
AcDbCircle
10
-137.79499999999999
20
0
30
0
40
0.85089999999999222
210
0
220
0
230
-1
0
CIRCLE
5
736
100
AcDbEntity
8
0
100
AcDbCircle
10
-142.875
20
0
30
0
40
1.9938999999999929
210
0
220
0
230
-1
0
CIRCLE
5
737
100
AcDbEntity
8
0
100
AcDbCircle
10
-147.95500000000001
20
0
30
0
40
0.85089999999999222
210
0
220
0
230
-1
0
CIRCLE
5
738
100
AcDbEntity
8
0
100
AcDbCircle
10
-156.845
20
0
30
0
40
0.85089999999999222
210
0
220
0
230
-1
0
CIRCLE
5
739
100
AcDbEntity
8
0
100
AcDbCircle
10
-163.19500000000002
20
-5.0750000000000011
30
0
40
0.50799999999998846
210
0
220
0
230
-1
0
CIRCLE
5
740
100
AcDbEntity
8
0
100
AcDbCircle
10
-184.46750000000003
20
-5.0750000000000011
30
0
40
0.4953000000000074
210
0
220
0
230
-1
0
CIRCLE
5
741
100
AcDbEntity
8
0
100
AcDbCircle
10
-161.92500000000001
20
0
30
0
40
1.9938999999999929
210
0
220
0
230
-1
0
CIRCLE
5
742
100
AcDbEntity
8
0
100
AcDbCircle
10
-167.00500000000002
20
0
30
0
40
0.85090000000000998
210
0
220
0
230
-1
0
CIRCLE
5
743
100
AcDbEntity
8
0
100
AcDbCircle
10
-180.65750000000003
20
0
30
0
40
0.85090000000000998
210
0
220
0
230
-1
0
CIRCLE
5
744
100
AcDbEntity
8
0
100
AcDbCircle
10
-91.503500000000017
20
1.016
30
0
40
0.38100000000000023
210
0
220
0
230
-1
0
CIRCLE
5
745
100
AcDbEntity
8
0
100
AcDbCircle
10
-94.043499999999995
20
1.016
30
0
40
0.38100000000000023
210
0
220
0
230
-1
0
CIRCLE
5
746
100
AcDbEntity
8
0
100
AcDbCircle
10
-91.630499999999998
20
3.556
30
0
40
0.38100000000000023
210
0
220
0
230
-1
0
CIRCLE
5
747
100
AcDbEntity
8
0
100
AcDbCircle
10
-94.170500000000018
20
3.556
30
0
40
0.38100000000000023
210
0
220
0
230
-1
0
CIRCLE
5
748
100
AcDbEntity
8
0
100
AcDbCircle
10
-100.965
20
2.54
30
0
40
0.76200000000000045
210
0
220
0
230
-1
0
CIRCLE
5
749
100
AcDbEntity
8
0
100
AcDbCircle
10
-91.503500000000017
20
6.0960000000000001
30
0
40
0.38100000000000023
210
0
220
0
230
-1
0
CIRCLE
5
750
100
AcDbEntity
8
0
100
AcDbCircle
10
-94.043499999999995
20
6.0960000000000001
30
0
40
0.38100000000000023
210
0
220
0
230
-1
0
CIRCLE
5
751
100
AcDbEntity
8
0
100
AcDbCircle
10
-107.315
20
5.0800000000000001
30
0
40
0.76200000000000045
210
0
220
0
230
-1
0
CIRCLE
5
752
100
AcDbEntity
8
0
100
AcDbCircle
10
-120.015
20
2.54
30
0
40
0.76200000000000045
210
0
220
0
230
-1
0
CIRCLE
5
753
100
AcDbEntity
8
0
100
AcDbCircle
10
-126.36499999999999
20
5.0800000000000001
30
0
40
0.76200000000000045
210
0
220
0
230
-1
0
CIRCLE
5
754
100
AcDbEntity
8
0
100
AcDbCircle
10
-139.065
20
2.54
30
0
40
0.76200000000000045
210
0
220
0
230
-1
0
CIRCLE
5
755
100
AcDbEntity
8
0
100
AcDbCircle
10
-158.11500000000001
20
2.54
30
0
40
0.76200000000000045
210
0
220
0
230
-1
0
CIRCLE
5
756
100
AcDbEntity
8
0
100
AcDbCircle
10
-145.41499999999999
20
5.0800000000000001
30
0
40
0.76200000000000045
210
0
220
0
230
-1
0
CIRCLE
5
757
100
AcDbEntity
8
0
100
AcDbCircle
10
-181.92750000000001
20
2.54
30
0
40
0.76200000000000045
210
0
220
0
230
-1
0
CIRCLE
5
758
100
AcDbEntity
8
0
100
AcDbCircle
10
-164.465
20
5.0800000000000001
30
0
40
0.76200000000000045
210
0
220
0
230
-1
0
CIRCLE
5
759
100
AcDbEntity
8
0
100
AcDbCircle
10
-182.927122
20
12.395385000000001
30
0
40
0.32499999999998863
210
0
220
0
230
-1
0
CIRCLE
5
760
100
AcDbEntity
8
0
100
AcDbCircle
10
-186.05500000000004
20
-42.862499999999997
30
0
40
0.85090000000000998
210
0
220
0
230
-1
0
CIRCLE
5
761
100
AcDbEntity
8
0
100
AcDbCircle
10
-194.94500000000002
20
-42.862499999999997
30
0
40
0.85090000000000998
210
0
220
0
230
-1
0
CIRCLE
5
762
100
AcDbEntity
8
0
100
AcDbCircle
10
-196.215
20
-40.322500000000005
30
0
40
0.76200000000000045
210
0
220
0
230
-1
0
CIRCLE
5
763
100
AcDbEntity
8
0
100
AcDbCircle
10
-200.02500000000001
20
-42.862499999999997
30
0
40
1.9939000000000107
210
0
220
0
230
-1
0
CIRCLE
5
764
100
AcDbEntity
8
0
100
AcDbCircle
10
-205.10500000000002
20
-42.862499999999997
30
0
40
0.85090000000000998
210
0
220
0
230
-1
0
CIRCLE
5
765
100
AcDbEntity
8
0
100
AcDbCircle
10
-213.99500000000003
20
-42.862499999999997
30
0
40
0.85090000000000998
210
0
220
0
230
-1
0
CIRCLE
5
766
100
AcDbEntity
8
0
100
AcDbCircle
10
-219.07499999999999
20
-42.862499999999997
30
0
40
1.9939000000000107
210
0
220
0
230
-1
0
CIRCLE
5
767
100
AcDbEntity
8
0
100
AcDbCircle
10
-215.26499999999999
20
-40.322500000000005
30
0
40
0.76200000000000045
210
0
220
0
230
-1
0
CIRCLE
5
768
100
AcDbEntity
8
0
100
AcDbCircle
10
-224.15500000000003
20
-42.862499999999997
30
0
40
0.85090000000000998
210
0
220
0
230
-1
0
CIRCLE
5
769
100
AcDbEntity
8
0
100
AcDbCircle
10
-233.04500000000002
20
-42.862499999999997
30
0
40
0.85090000000000998
210
0
220
0
230
-1
0
CIRCLE
5
770
100
AcDbEntity
8
0
100
AcDbCircle
10
-202.56500000000003
20
-37.782499999999999
30
0
40
0.76200000000000045
210
0
220
0
230
-1
0
CIRCLE
5
771
100
AcDbEntity
8
0
100
AcDbCircle
10
-221.61500000000004
20
-37.782499999999999
30
0
40
0.76200000000000045
210
0
220
0
230
-1
0
CIRCLE
5
772
100
AcDbEntity
8
0
100
AcDbCircle
10
-238.125
20
-42.862499999999997
30
0
40
1.9939000000000107
210
0
220
0
230
-1
0
CIRCLE
5
773
100
AcDbEntity
8
0
100
AcDbCircle
10
-243.20500000000004
20
-42.862499999999997
30
0
40
0.85090000000000998
210
0
220
0
230
-1
0
CIRCLE
5
774
100
AcDbEntity
8
0
100
AcDbCircle
10
-234.315
20
-40.322500000000005
30
0
40
0.76200000000000045
210
0
220
0
230
-1
0
CIRCLE
5
775
100
AcDbEntity
8
0
100
AcDbCircle
10
-261.93860000000001
20
-42.862679999999997
30
0
40
1.9939000000000107
210
0
220
0
230
-1
0
CIRCLE
5
776
100
AcDbEntity
8
0
100
AcDbCircle
10
-267.01859999999999
20
-42.862679999999997
30
0
40
0.85090000000000998
210
0
220
0
230
-1
0
CIRCLE
5
777
100
AcDbEntity
8
0
100
AcDbCircle
10
-271.30375000000004
20
-40.4495
30
0
40
1.5240000000000009
210
0
220
0
230
-1
0
CIRCLE
5
778
100
AcDbEntity
8
0
100
AcDbCircle
10
-240.66500000000002
20
-37.782499999999999
30
0
40
0.76200000000000045
210
0
220
0
230
-1
0
CIRCLE
5
779
100
AcDbEntity
8
0
100
AcDbCircle
10
-245.23700000000002
20
-32.067500000000003
30
0
40
1.9939000000000107
210
0
220
0
230
-1
0
CIRCLE
5
780
100
AcDbEntity
8
0
100
AcDbCircle
10
-264.47859999999997
20
-37.782679999999999
30
0
40
0.76200000000000045
210
0
220
0
230
-1
0
CIRCLE
5
781
100
AcDbEntity
8
0
100
AcDbCircle
10
-269.113
20
-32.067500000000003
30
0
40
1.9939000000000107
210
0
220
0
230
-1
0
CIRCLE
5
782
100
AcDbEntity
8
0
100
AcDbCircle
10
-189.22999999999999
20
-28.887499999999999
30
0
40
0.4953000000000074
210
0
220
0
230
-1
0
CIRCLE
5
783
100
AcDbEntity
8
0
100
AcDbCircle
10
-191.77000000000004
20
-28.887499999999999
30
0
40
0.50799999999998846
210
0
220
0
230
-1
0
CIRCLE
5
784
100
AcDbEntity
8
0
100
AcDbCircle
10
-208.28000000000003
20
-28.887499999999999
30
0
40
0.4953000000000074
210
0
220
0
230
-1
0
CIRCLE
5
785
100
AcDbEntity
8
0
100
AcDbCircle
10
-190.5
20
-23.8125
30
0
40
1.9939000000000107
210
0
220
0
230
-1
0
CIRCLE
5
786
100
AcDbEntity
8
0
100
AcDbCircle
10
-195.58000000000004
20
-23.8125
30
0
40
0.85090000000000998
210
0
220
0
230
-1
0
CIRCLE
5
787
100
AcDbEntity
8
0
100
AcDbCircle
10
-204.47000000000003
20
-23.8125
30
0
40
0.85090000000000998
210
0
220
0
230
-1
0
CIRCLE
5
788
100
AcDbEntity
8
0
100
AcDbCircle
10
-209.55000000000001
20
-23.8125
30
0
40
1.9939000000000107
210
0
220
0
230
-1
0
CIRCLE
5
789
100
AcDbEntity
8
0
100
AcDbCircle
10
-210.81999999999999
20
-28.887499999999999
30
0
40
0.50799999999998846
210
0
220
0
230
-1
0
CIRCLE
5
790
100
AcDbEntity
8
0
100
AcDbCircle
10
-227.33000000000004
20
-28.887499999999999
30
0
40
0.4953000000000074
210
0
220
0
230
-1
0
CIRCLE
5
791
100
AcDbEntity
8
0
100
AcDbCircle
10
-229.87
20
-28.887499999999999
30
0
40
0.50799999999998846
210
0
220
0
230
-1
0
CIRCLE
5
792
100
AcDbEntity
8
0
100
AcDbCircle
10
-214.63
20
-23.8125
30
0
40
0.85090000000000998
210
0
220
0
230
-1
0
CIRCLE
5
793
100
AcDbEntity
8
0
100
AcDbCircle
10
-223.52000000000004
20
-23.8125
30
0
40
0.85090000000000998
210
0
220
0
230
-1
0
CIRCLE
5
794
100
AcDbEntity
8
0
100
AcDbCircle
10
-228.59999999999999
20
-23.8125
30
0
40
1.9939000000000107
210
0
220
0
230
-1
0
CIRCLE
5
795
100
AcDbEntity
8
0
100
AcDbCircle
10
-233.68000000000001
20
-23.8125
30
0
40
0.85090000000000998
210
0
220
0
230
-1
0
CIRCLE
5
796
100
AcDbEntity
8
0
100
AcDbCircle
10
-186.69
20
-21.272500000000001
30
0
40
0.76200000000000045
210
0
220
0
230
-1
0
CIRCLE
5
797
100
AcDbEntity
8
0
100
AcDbCircle
10
-205.74000000000001
20
-21.272500000000001
30
0
40
0.76200000000000045
210
0
220
0
230
-1
0
CIRCLE
5
798
100
AcDbEntity
8
0
100
AcDbCircle
10
-193.04000000000002
20
-18.732500000000002
30
0
40
0.76200000000000045
210
0
220
0
230
-1
0
CIRCLE
5
799
100
AcDbEntity
8
0
100
AcDbCircle
10
-224.78999999999999
20
-21.272500000000001
30
0
40
0.76200000000000045
210
0
220
0
230
-1
0
CIRCLE
5
800
100
AcDbEntity
8
0
100
AcDbCircle
10
-212.09000000000003
20
-18.732500000000002
30
0
40
0.76200000000000045
210
0
220
0
230
-1
0
CIRCLE
5
801
100
AcDbEntity
8
0
100
AcDbCircle
10
-231.14000000000001
20
-18.732500000000002
30
0
40
0.76200000000000045
210
0
220
0
230
-1
0
CIRCLE
5
802
100
AcDbEntity
8
0
100
AcDbCircle
10
-246.38000000000002
20
-28.887499999999999
30
0
40
0.4953000000000074
210
0
220
0
230
-1
0
CIRCLE
5
803
100
AcDbEntity
8
0
100
AcDbCircle
10
-248.91999999999999
20
-28.887499999999999
30
0
40
0.50799999999998846
210
0
220
0
230
-1
0
CIRCLE
5
804
100
AcDbEntity
8
0
100
AcDbCircle
10
-255.90500000000003
20
-28.887499999999999
30
0
40
0.4953000000000074
210
0
220
0
230
-1
0
CIRCLE
5
805
100
AcDbEntity
8
0
100
AcDbCircle
10
-258.44499999999999
20
-28.887499999999999
30
0
40
0.50799999999998846
210
0
220
0
230
-1
0
CIRCLE
5
806
100
AcDbEntity
8
0
100
AcDbCircle
10
-242.57000000000002
20
-23.8125
30
0
40
0.85090000000000998
210
0
220
0
230
-1
0
CIRCLE
5
807
100
AcDbEntity
8
0
100
AcDbCircle
10
-247.65000000000001
20
-23.8125
30
0
40
1.9939000000000107
210
0
220
0
230
-1
0
CIRCLE
5
808
100
AcDbEntity
8
0
100
AcDbCircle
10
-257.17500000000001
20
-23.8125
30
0
40
1.9939000000000107
210
0
220
0
230
-1
0
CIRCLE
5
809
100
AcDbEntity
8
0
100
AcDbCircle
10
-265.43000000000001
20
-28.887499999999999
30
0
40
0.4953000000000074
210
0
220
0
230
-1
0
CIRCLE
5
810
100
AcDbEntity
8
0
100
AcDbCircle
10
-267.97000000000003
20
-28.887499999999999
30
0
40
0.50799999999998846
210
0
220
0
230
-1
0
CIRCLE
5
811
100
AcDbEntity
8
0
100
AcDbCircle
10
-266.70000000000005
20
-23.8125
30
0
40
1.9939000000000107
210
0
220
0
230
-1
0
CIRCLE
5
812
100
AcDbEntity
8
0
100
AcDbCircle
10
-271.77999999999997
20
-23.8125
30
0
40
0.85090000000000998
210
0
220
0
230
-1
0
CIRCLE
5
813
100
AcDbEntity
8
0
100
AcDbCircle
10
-243.84
20
-21.272500000000001
30
0
40
0.76200000000000045
210
0
220
0
230
-1
0
CIRCLE
5
814
100
AcDbEntity
8
0
100
AcDbCircle
10
-253.36500000000001
20
-21.272500000000001
30
0
40
0.76200000000000045
210
0
220
0
230
-1
0
CIRCLE
5
815
100
AcDbEntity
8
0
100
AcDbCircle
10
-245.23700000000002
20
-16.827500000000001
30
0
40
1.5240000000000009
210
0
220
0
230
-1
0
CIRCLE
5
816
100
AcDbEntity
8
0
100
AcDbCircle
10
-250.19000000000003
20
-18.732500000000002
30
0
40
0.76200000000000045
210
0
220
0
230
-1
0
CIRCLE
5
817
100
AcDbEntity
8
0
100
AcDbCircle
10
-262.88999999999999
20
-21.272500000000001
30
0
40
0.76200000000000045
210
0
220
0
230
-1
0
CIRCLE
5
818
100
AcDbEntity
8
0
100
AcDbCircle
10
-259.71499999999997
20
-18.732500000000002
30
0
40
0.76200000000000045
210
0
220
0
230
-1
0
CIRCLE
5
819
100
AcDbEntity
8
0
100
AcDbCircle
10
-285.4325
20
-42.862499999999997
30
0
40
0.85090000000000998
210
0
220
0
230
-1
0
CIRCLE
5
820
100
AcDbEntity
8
0
100
AcDbCircle
10
-290.51249999999999
20
-42.862499999999997
30
0
40
1.9939000000000107
210
0
220
0
230
-1
0
CIRCLE
5
821
100
AcDbEntity
8
0
100
AcDbCircle
10
-286.70249999999999
20
-40.322500000000005
30
0
40
0.76200000000000045
210
0
220
0
230
-1
0
CIRCLE
5
822
100
AcDbEntity
8
0
100
AcDbCircle
10
-295.59249999999997
20
-42.862499999999997
30
0
40
0.85090000000000998
210
0
220
0
230
-1
0
CIRCLE
5
823
100
AcDbEntity
8
0
100
AcDbCircle
10
-309.245
20
-42.862499999999997
30
0
40
0.85090000000000998
210
0
220
0
230
-1
0
CIRCLE
5
824
100
AcDbEntity
8
0
100
AcDbCircle
10
-314.32499999999999
20
-42.862499999999997
30
0
40
1.9939000000000107
210
0
220
0
230
-1
0
CIRCLE
5
825
100
AcDbEntity
8
0
100
AcDbCircle
10
-310.51499999999999
20
-40.322500000000005
30
0
40
0.76200000000000045
210
0
220
0
230
-1
0
CIRCLE
5
826
100
AcDbEntity
8
0
100
AcDbCircle
10
-319.40499999999997
20
-42.862499999999997
30
0
40
0.85090000000000998
210
0
220
0
230
-1
0
CIRCLE
5
827
100
AcDbEntity
8
0
100
AcDbCircle
10
-328.29500000000002
20
-42.862499999999997
30
0
40
0.85090000000000998
210
0
220
0
230
-1
0
CIRCLE
5
828
100
AcDbEntity
8
0
100
AcDbCircle
10
-329.565
20
-40.322500000000005
30
0
40
0.76200000000000045
210
0
220
0
230
-1
0
CIRCLE
5
829
100
AcDbEntity
8
0
100
AcDbCircle
10
-293.05250000000001
20
-37.782499999999999
30
0
40
0.76200000000000045
210
0
220
0
230
-1
0
CIRCLE
5
830
100
AcDbEntity
8
0
100
AcDbCircle
10
-316.86500000000001
20
-37.782499999999999
30
0
40
0.76200000000000045
210
0
220
0
230
-1
0
CIRCLE
5
831
100
AcDbEntity
8
0
100
AcDbCircle
10
-333.375
20
-42.862499999999997
30
0
40
1.9939000000000107
210
0
220
0
230
-1
0
CIRCLE
5
832
100
AcDbEntity
8
0
100
AcDbCircle
10
-338.45500000000004
20
-42.862499999999997
30
0
40
0.85090000000000998
210
0
220
0
230
-1
0
CIRCLE
5
833
100
AcDbEntity
8
0
100
AcDbCircle
10
-347.34500000000003
20
-42.862499999999997
30
0
40
0.85090000000000998
210
0
220
0
230
-1
0
CIRCLE
5
834
100
AcDbEntity
8
0
100
AcDbCircle
10
-352.42500000000001
20
-42.862499999999997
30
0
40
1.9939000000000107
210
0
220
0
230
-1
0
CIRCLE
5
835
100
AcDbEntity
8
0
100
AcDbCircle
10
-348.61500000000001
20
-40.322500000000005
30
0
40
0.76200000000000045
210
0
220
0
230
-1
0
CIRCLE
5
836
100
AcDbEntity
8
0
100
AcDbCircle
10
-357.505
20
-42.862499999999997
30
0
40
0.85090000000000998
210
0
220
0
230
-1
0
CIRCLE
5
837
100
AcDbEntity
8
0
100
AcDbCircle
10
-363.22000000000003
20
-40.4495
30
0
40
1.9939000000000107
210
0
220
0
230
-1
0
CIRCLE
5
838
100
AcDbEntity
8
0
100
AcDbCircle
10
-378.45999999999998
20
-40.4495
30
0
40
1.5240000000000009
210
0
220
0
230
-1
0
CIRCLE
5
839
100
AcDbEntity
8
0
100
AcDbCircle
10
-335.91500000000002
20
-37.782499999999999
30
0
40
0.76200000000000045
210
0
220
0
230
-1
0
CIRCLE
5
840
100
AcDbEntity
8
0
100
AcDbCircle
10
-354.96499999999997
20
-37.782499999999999
30
0
40
0.76200000000000045
210
0
220
0
230
-1
0
CIRCLE
5
841
100
AcDbEntity
8
0
100
AcDbCircle
10
-289.24250000000001
20
-28.887499999999999
30
0
40
0.4953000000000074
210
0
220
0
230
-1
0
CIRCLE
5
842
100
AcDbEntity
8
0
100
AcDbCircle
10
-291.78250000000003
20
-28.887499999999999
30
0
40
0.50799999999998846
210
0
220
0
230
-1
0
CIRCLE
5
843
100
AcDbEntity
8
0
100
AcDbCircle
10
-285.4325
20
-23.8125
30
0
40
0.85090000000000998
210
0
220
0
230
-1
0
CIRCLE
5
844
100
AcDbEntity
8
0
100
AcDbCircle
10
-290.51249999999999
20
-23.8125
30
0
40
1.9939000000000107
210
0
220
0
230
-1
0
CIRCLE
5
845
100
AcDbEntity
8
0
100
AcDbCircle
10
-295.59249999999997
20
-23.8125
30
0
40
0.85090000000000998
210
0
220
0
230
-1
0
CIRCLE
5
846
100
AcDbEntity
8
0
100
AcDbCircle
10
-313.05500000000001
20
-28.887499999999999
30
0
40
0.4953000000000074
210
0
220
0
230
-1
0
CIRCLE
5
847
100
AcDbEntity
8
0
100
AcDbCircle
10
-315.59500000000003
20
-28.887499999999999
30
0
40
0.50799999999998846
210
0
220
0
230
-1
0
CIRCLE
5
848
100
AcDbEntity
8
0
100
AcDbCircle
10
-309.245
20
-23.8125
30
0
40
0.85090000000000998
210
0
220
0
230
-1
0
CIRCLE
5
849
100
AcDbEntity
8
0
100
AcDbCircle
10
-314.32499999999999
20
-23.8125
30
0
40
1.9939000000000107
210
0
220
0
230
-1
0
CIRCLE
5
850
100
AcDbEntity
8
0
100
AcDbCircle
10
-319.40499999999997
20
-23.8125
30
0
40
0.85090000000000998
210
0
220
0
230
-1
0
CIRCLE
5
851
100
AcDbEntity
8
0
100
AcDbCircle
10
-328.29500000000002
20
-23.8125
30
0
40
0.85090000000000998
210
0
220
0
230
-1
0
CIRCLE
5
852
100
AcDbEntity
8
0
100
AcDbCircle
10
-286.70249999999999
20
-21.272500000000001
30
0
40
0.76200000000000045
210
0
220
0
230
-1
0
CIRCLE
5
853
100
AcDbEntity
8
0
100
AcDbCircle
10
-293.05250000000001
20
-18.732500000000002
30
0
40
0.76200000000000045
210
0
220
0
230
-1
0
CIRCLE
5
854
100
AcDbEntity
8
0
100
AcDbCircle
10
-310.51499999999999
20
-21.272500000000001
30
0
40
0.76200000000000045
210
0
220
0
230
-1
0
CIRCLE
5
855
100
AcDbEntity
8
0
100
AcDbCircle
10
-329.565
20
-21.272500000000001
30
0
40
0.76200000000000045
210
0
220
0
230
-1
0
CIRCLE
5
856
100
AcDbEntity
8
0
100
AcDbCircle
10
-316.86500000000001
20
-18.732500000000002
30
0
40
0.76200000000000045
210
0
220
0
230
-1
0
CIRCLE
5
857
100
AcDbEntity
8
0
100
AcDbCircle
10
-332.10500000000002
20
-28.887499999999999
30
0
40
0.49529999999997187
210
0
220
0
230
-1
0
CIRCLE
5
858
100
AcDbEntity
8
0
100
AcDbCircle
10
-334.64499999999998
20
-28.887499999999999
30
0
40
0.50800000000002399
210
0
220
0
230
-1
0
CIRCLE
5
859
100
AcDbEntity
8
0
100
AcDbCircle
10
-351.15499999999997
20
-28.887499999999999
30
0
40
0.49529999999997187
210
0
220
0
230
-1
0
CIRCLE
5
860
100
AcDbEntity
8
0
100
AcDbCircle
10
-353.69500000000005
20
-28.887499999999999
30
0
40
0.50800000000002399
210
0
220
0
230
-1
0
CIRCLE
5
861
100
AcDbEntity
8
0
100
AcDbCircle
10
-333.375
20
-23.8125
30
0
40
1.9939000000000107
210
0
220
0
230
-1
0
CIRCLE
5
862
100
AcDbEntity
8
0
100
AcDbCircle
10
-338.45500000000004
20
-23.8125
30
0
40
0.85090000000000998
210
0
220
0
230
-1
0
CIRCLE
5
863
100
AcDbEntity
8
0
100
AcDbCircle
10
-347.34500000000003
20
-23.8125
30
0
40
0.85090000000000998
210
0
220
0
230
-1
0
CIRCLE
5
864
100
AcDbEntity
8
0
100
AcDbCircle
10
-352.42500000000001
20
-23.8125
30
0
40
1.9939000000000107
210
0
220
0
230
-1
0
CIRCLE
5
865
100
AcDbEntity
8
0
100
AcDbCircle
10
-370.20499999999998
20
-28.887499999999999
30
0
40
0.49529999999997187
210
0
220
0
230
-1
0
CIRCLE
5
866
100
AcDbEntity
8
0
100
AcDbCircle
10
-372.745
20
-28.887499999999999
30
0
40
0.50800000000002399
210
0
220
0
230
-1
0
CIRCLE
5
867
100
AcDbEntity
8
0
100
AcDbCircle
10
-357.505
20
-23.8125
30
0
40
0.85090000000000998
210
0
220
0
230
-1
0
CIRCLE
5
868
100
AcDbEntity
8
0
100
AcDbCircle
10
-366.39499999999998
20
-23.8125
30
0
40
0.85090000000000998
210
0
220
0
230
-1
0
CIRCLE
5
869
100
AcDbEntity
8
0
100
AcDbCircle
10
-371.47500000000002
20
-23.8125
30
0
40
1.9939000000000107
210
0
220
0
230
-1
0
CIRCLE
5
870
100
AcDbEntity
8
0
100
AcDbCircle
10
-376.55500000000006
20
-23.8125
30
0
40
0.85090000000000998
210
0
220
0
230
-1
0
CIRCLE
5
871
100
AcDbEntity
8
0
100
AcDbCircle
10
-348.61500000000001
20
-21.272500000000001
30
0
40
0.76200000000000045
210
0
220
0
230
-1
0
CIRCLE
5
872
100
AcDbEntity
8
0
100
AcDbCircle
10
-335.91500000000002
20
-18.732500000000002
30
0
40
0.76200000000000045
210
0
220
0
230
-1
0
CIRCLE
5
873
100
AcDbEntity
8
0
100
AcDbCircle
10
-354.96499999999997
20
-18.732500000000002
30
0
40
0.76200000000000045
210
0
220
0
230
-1
0
CIRCLE
5
874
100
AcDbEntity
8
0
100
AcDbCircle
10
-367.66500000000002
20
-21.272500000000001
30
0
40
0.76200000000000045
210
0
220
0
230
-1
0
CIRCLE
5
875
100
AcDbEntity
8
0
100
AcDbCircle
10
-374.01499999999999
20
-18.732500000000002
30
0
40
0.76200000000000045
210
0
220
0
230
-1
0
CIRCLE
5
876
100
AcDbEntity
8
0
100
AcDbCircle
10
-187.00749999999999
20
-5.0750000000000011
30
0
40
0.50799999999998846
210
0
220
0
230
-1
0
CIRCLE
5
877
100
AcDbEntity
8
0
100
AcDbCircle
10
-203.51750000000004
20
-5.0750000000000011
30
0
40
0.4953000000000074
210
0
220
0
230
-1
0
CIRCLE
5
878
100
AcDbEntity
8
0
100
AcDbCircle
10
-206.0575
20
-5.0750000000000011
30
0
40
0.50799999999998846
210
0
220
0
230
-1
0
CIRCLE
5
879
100
AcDbEntity
8
0
100
AcDbCircle
10
-185.73750000000001
20
0
30
0
40
1.9939000000000107
210
0
220
0
230
-1
0
CIRCLE
5
880
100
AcDbEntity
8
0
100
AcDbCircle
10
-190.8175
20
0
30
0
40
0.85090000000000998
210
0
220
0
230
-1
0
CIRCLE
5
881
100
AcDbEntity
8
0
100
AcDbCircle
10
-199.70750000000004
20
0
30
0
40
0.85090000000000998
210
0
220
0
230
-1
0
CIRCLE
5
882
100
AcDbEntity
8
0
100
AcDbCircle
10
-204.78750000000002
20
0
30
0
40
1.9939000000000107
210
0
220
0
230
-1
0
CIRCLE
5
883
100
AcDbEntity
8
0
100
AcDbCircle
10
-209.86750000000001
20
0
30
0
40
0.85090000000000998
210
0
220
0
230
-1
0
CIRCLE
5
884
100
AcDbEntity
8
0
100
AcDbCircle
10
-222.5675
20
-5.0750000000000011
30
0
40
0.4953000000000074
210
0
220
0
230
-1
0
CIRCLE
5
885
100
AcDbEntity
8
0
100
AcDbCircle
10
-225.10750000000002
20
-5.0750000000000011
30
0
40
0.50799999999998846
210
0
220
0
230
-1
0
CIRCLE
5
886
100
AcDbEntity
8
0
100
AcDbCircle
10
-218.75749999999999
20
0
30
0
40
0.85090000000000998
210
0
220
0
230
-1
0
CIRCLE
5
887
100
AcDbEntity
8
0
100
AcDbCircle
10
-223.83750000000003
20
0
30
0
40
1.9939000000000107
210
0
220
0
230
-1
0
CIRCLE
5
888
100
AcDbEntity
8
0
100
AcDbCircle
10
-228.91750000000002
20
0
30
0
40
0.85090000000000998
210
0
220
0
230
-1
0
CIRCLE
5
889
100
AcDbEntity
8
0
100
AcDbCircle
10
-241.61750000000001
20
-5.0750000000000011
30
0
40
0.4953000000000074
210
0
220
0
230
-1
0
CIRCLE
5
890
100
AcDbEntity
8
0
100
AcDbCircle
10
-244.15750000000003
20
-5.0750000000000011
30
0
40
0.50799999999998846
210
0
220
0
230
-1
0
CIRCLE
5
891
100
AcDbEntity
8
0
100
AcDbCircle
10
-237.8075
20
0
30
0
40
0.85090000000000998
210
0
220
0
230
-1
0
CIRCLE
5
892
100
AcDbEntity
8
0
100
AcDbCircle
10
-242.88749999999999
20
0
30
0
40
1.9939000000000107
210
0
220
0
230
-1
0
CIRCLE
5
893
100
AcDbEntity
8
0
100
AcDbCircle
10
-247.96750000000003
20
0
30
0
40
0.85090000000000998
210
0
220
0
230
-1
0
CIRCLE
5
894
100
AcDbEntity
8
0
100
AcDbCircle
10
-265.43000000000001
20
-5.0750000000000011
30
0
40
0.4953000000000074
210
0
220
0
230
-1
0
CIRCLE
5
895
100
AcDbEntity
8
0
100
AcDbCircle
10
-267.97000000000003
20
-5.0750000000000011
30
0
40
0.50799999999998846
210
0
220
0
230
-1
0
CIRCLE
5
896
100
AcDbEntity
8
0
100
AcDbCircle
10
-261.62
20
0
30
0
40
0.85090000000000998
210
0
220
0
230
-1
0
CIRCLE
5
897
100
AcDbEntity
8
0
100
AcDbCircle
10
-266.70000000000005
20
0
30
0
40
1.9939000000000107
210
0
220
0
230
-1
0
CIRCLE
5
898
100
AcDbEntity
8
0
100
AcDbCircle
10
-271.77999999999997
20
0
30
0
40
0.85090000000000998
210
0
220
0
230
-1
0
CIRCLE
5
899
100
AcDbEntity
8
0
100
AcDbCircle
10
-200.97750000000002
20
2.54
30
0
40
0.76200000000000045
210
0
220
0
230
-1
0
CIRCLE
5
900
100
AcDbEntity
8
0
100
AcDbCircle
10
-188.27750000000003
20
5.0800000000000001
30
0
40
0.76200000000000045
210
0
220
0
230
-1
0
CIRCLE
5
901
100
AcDbEntity
8
0
100
AcDbCircle
10
-207.32749999999999
20
5.0800000000000001
30
0
40
0.76200000000000045
210
0
220
0
230
-1
0
CIRCLE
5
902
100
AcDbEntity
8
0
100
AcDbCircle
10
-220.02750000000003
20
2.54
30
0
40
0.76200000000000045
210
0
220
0
230
-1
0
CIRCLE
5
903
100
AcDbEntity
8
0
100
AcDbCircle
10
-226.3775
20
5.0800000000000001
30
0
40
0.76200000000000045
210
0
220
0
230
-1
0
CIRCLE
5
904
100
AcDbEntity
8
0
100
AcDbCircle
10
-188.707122
20
12.395385000000001
30
0
40
0.32499999999998863
210
0
220
0
230
-1
0
CIRCLE
5
905
100
AcDbEntity
8
0
100
AcDbCircle
10
-239.07749999999999
20
2.54
30
0
40
0.76200000000000045
210
0
220
0
230
-1
0
CIRCLE
5
906
100
AcDbEntity
8
0
100
AcDbCircle
10
-245.42750000000001
20
5.0800000000000001
30
0
40
0.76200000000000045
210
0
220
0
230
-1
0
CIRCLE
5
907
100
AcDbEntity
8
0
100
AcDbCircle
10
-262.88999999999999
20
2.54
30
0
40
0.76200000000000045
210
0
220
0
230
-1
0
CIRCLE
5
908
100
AcDbEntity
8
0
100
AcDbCircle
10
-269.24000000000001
20
5.0800000000000001
30
0
40
0.76200000000000045
210
0
220
0
230
-1
0
CIRCLE
5
909
100
AcDbEntity
8
0
100
AcDbCircle
10
-289.24250000000001
20
-5.0750000000000011
30
0
40
0.4953000000000074
210
0
220
0
230
-1
0
CIRCLE
5
910
100
AcDbEntity
8
0
100
AcDbCircle
10
-291.78250000000003
20
-5.0750000000000011
30
0
40
0.50799999999998846
210
0
220
0
230
-1
0
CIRCLE
5
911
100
AcDbEntity
8
0
100
AcDbCircle
10
-285.4325
20
0
30
0
40
0.85090000000000998
210
0
220
0
230
-1
0
CIRCLE
5
912
100
AcDbEntity
8
0
100
AcDbCircle
10
-290.51249999999999
20
0
30
0
40
1.9939000000000107
210
0
220
0
230
-1
0
CIRCLE
5
913
100
AcDbEntity
8
0
100
AcDbCircle
10
-295.59249999999997
20
0
30
0
40
0.85090000000000998
210
0
220
0
230
-1
0
CIRCLE
5
914
100
AcDbEntity
8
0
100
AcDbCircle
10
-313.05500000000001
20
-5.0750000000000011
30
0
40
0.4953000000000074
210
0
220
0
230
-1
0
CIRCLE
5
915
100
AcDbEntity
8
0
100
AcDbCircle
10
-315.59500000000003
20
-5.0750000000000011
30
0
40
0.50799999999998846
210
0
220
0
230
-1
0
CIRCLE
5
916
100
AcDbEntity
8
0
100
AcDbCircle
10
-309.245
20
0
30
0
40
0.85090000000000998
210
0
220
0
230
-1
0
CIRCLE
5
917
100
AcDbEntity
8
0
100
AcDbCircle
10
-314.32499999999999
20
0
30
0
40
1.9939000000000107
210
0
220
0
230
-1
0
CIRCLE
5
918
100
AcDbEntity
8
0
100
AcDbCircle
10
-319.40499999999997
20
0
30
0
40
0.85090000000000998
210
0
220
0
230
-1
0
CIRCLE
5
919
100
AcDbEntity
8
0
100
AcDbCircle
10
-328.29500000000002
20
0
30
0
40
0.85090000000000998
210
0
220
0
230
-1
0
CIRCLE
5
920
100
AcDbEntity
8
0
100
AcDbCircle
10
-332.10500000000002
20
-5.0750000000000011
30
0
40
0.49529999999997187
210
0
220
0
230
-1
0
CIRCLE
5
921
100
AcDbEntity
8
0
100
AcDbCircle
10
-334.64499999999998
20
-5.0750000000000011
30
0
40
0.50800000000002399
210
0
220
0
230
-1
0
CIRCLE
5
922
100
AcDbEntity
8
0
100
AcDbCircle
10
-351.15499999999997
20
-5.0750000000000011
30
0
40
0.49529999999997187
210
0
220
0
230
-1
0
CIRCLE
5
923
100
AcDbEntity
8
0
100
AcDbCircle
10
-353.69500000000005
20
-5.0750000000000011
30
0
40
0.50800000000002399
210
0
220
0
230
-1
0
CIRCLE
5
924
100
AcDbEntity
8
0
100
AcDbCircle
10
-333.375
20
0
30
0
40
1.9939000000000107
210
0
220
0
230
-1
0
CIRCLE
5
925
100
AcDbEntity
8
0
100
AcDbCircle
10
-338.45500000000004
20
0
30
0
40
0.85090000000000998
210
0
220
0
230
-1
0
CIRCLE
5
926
100
AcDbEntity
8
0
100
AcDbCircle
10
-347.34500000000003
20
0
30
0
40
0.85090000000000998
210
0
220
0
230
-1
0
CIRCLE
5
927
100
AcDbEntity
8
0
100
AcDbCircle
10
-352.42500000000001
20
0
30
0
40
1.9939000000000107
210
0
220
0
230
-1
0
CIRCLE
5
928
100
AcDbEntity
8
0
100
AcDbCircle
10
-370.20499999999998
20
-5.0750000000000011
30
0
40
0.49529999999997187
210
0
220
0
230
-1
0
CIRCLE
5
929
100
AcDbEntity
8
0
100
AcDbCircle
10
-372.745
20
-5.0750000000000011
30
0
40
0.50800000000002399
210
0
220
0
230
-1
0
CIRCLE
5
930
100
AcDbEntity
8
0
100
AcDbCircle
10
-357.505
20
0
30
0
40
0.85090000000000998
210
0
220
0
230
-1
0
CIRCLE
5
931
100
AcDbEntity
8
0
100
AcDbCircle
10
-366.39499999999998
20
0
30
0
40
0.85090000000000998
210
0
220
0
230
-1
0
CIRCLE
5
932
100
AcDbEntity
8
0
100
AcDbCircle
10
-371.47500000000002
20
0
30
0
40
1.9939000000000107
210
0
220
0
230
-1
0
CIRCLE
5
933
100
AcDbEntity
8
0
100
AcDbCircle
10
-376.55500000000006
20
0
30
0
40
0.85090000000000998
210
0
220
0
230
-1
0
CIRCLE
5
934
100
AcDbEntity
8
0
100
AcDbCircle
10
-286.70249999999999
20
2.54
30
0
40
0.76200000000000045
210
0
220
0
230
-1
0
CIRCLE
5
935
100
AcDbEntity
8
0
100
AcDbCircle
10
-293.05250000000001
20
5.0800000000000001
30
0
40
0.76200000000000045
210
0
220
0
230
-1
0
CIRCLE
5
936
100
AcDbEntity
8
0
100
AcDbCircle
10
-310.51499999999999
20
2.54
30
0
40
0.76200000000000045
210
0
220
0
230
-1
0
CIRCLE
5
937
100
AcDbEntity
8
0
100
AcDbCircle
10
-329.565
20
2.54
30
0
40
0.76200000000000045
210
0
220
0
230
-1
0
CIRCLE
5
938
100
AcDbEntity
8
0
100
AcDbCircle
10
-316.86500000000001
20
5.0800000000000001
30
0
40
0.76200000000000045
210
0
220
0
230
-1
0
CIRCLE
5
939
100
AcDbEntity
8
0
100
AcDbCircle
10
-348.61500000000001
20
2.54
30
0
40
0.76200000000000045
210
0
220
0
230
-1
0
CIRCLE
5
940
100
AcDbEntity
8
0
100
AcDbCircle
10
-335.91500000000002
20
5.0800000000000001
30
0
40
0.76200000000000045
210
0
220
0
230
-1
0
CIRCLE
5
941
100
AcDbEntity
8
0
100
AcDbCircle
10
-354.96499999999997
20
5.0800000000000001
30
0
40
0.76200000000000045
210
0
220
0
230
-1
0
CIRCLE
5
942
100
AcDbEntity
8
0
100
AcDbCircle
10
-367.66500000000002
20
2.54
30
0
40
0.76200000000000045
210
0
220
0
230
-1
0
CIRCLE
5
943
100
AcDbEntity
8
0
100
AcDbCircle
10
-374.01499999999999
20
5.0800000000000001
30
0
40
0.76200000000000045
210
0
220
0
230
-1
0
ENDSEC
0
SECTION
2
OBJECTS
0
DICTIONARY
5
C
100
AcDbDictionary
3
ACAD_GROUP
350
D
3
ACAD_MLINESTYLE
350
17
0
DICTIONARY
5
D
100
AcDbDictionary
0
DICTIONARY
5
1A
330
C
100
AcDbDictionary
0
DICTIONARY
5
17
100
AcDbDictionary
0
ENDSEC
0
EOF
