0
SECTION
2
HEADER
9
$INSUNITS
70
4
9
$ACADVER
1
AC1014
9
$HANDSEED
5
FFFF
0
ENDSEC
0
SECTION
2
TABLES
0
TABLE
2
VPORT
5
8
100
AcDbSymbolTable
0
ENDTAB
0
TABLE
2
LTYPE
5
5
100
AcDbSymbolTable
0
LTYPE
5
14
100
AcDbSymbolTableRecord
100
AcDbLinetypeTableRecord
2
BYBLOCK
70
0
0
LTYPE
5
15
100
AcDbSymbolTableRecord
100
AcDbLinetypeTableRecord
2
BYLAYER
70
0
0
ENDTAB
0
TABLE
2
LAYER
5
2
100
AcDbSymbolTable
70
2
0
LAYER
5
50
100
AcDbSymbolTableRecord
100
AcDbLayerTableRecord
2
0
70
0
6
CONTINUOUS
0
ENDTAB
0
TABLE
2
STYLE
5
3
100
AcDbSymbolTable
70
1
0
STYLE
5
11
100
AcDbSymbolTableRecord
100
AcDbTextStyleTableRecord
2
STANDARD
70
0
0
ENDTAB
0
TABLE
2
VIEW
5
6
100
AcDbSymbolTable
70
0
0
ENDTAB
0
TABLE
2
UCS
5
7
100
AcDbSymbolTable
70
0
0
ENDTAB
0
TABLE
2
APPID
5
9
100
AcDbSymbolTable
70
2
0
APPID
5
12
100
AcDbSymbolTableRecord
100
AcDbRegAppTableRecord
2
ACAD
70
0
0
ENDTAB
0
TABLE
2
DIMSTYLE
5
A
100
AcDbSymbolTable
70
1
0
ENDTAB
0
TABLE
2
BLOCK_RECORD
5
1
100
AcDbSymbolTable
70
1
0
BLOCK_RECORD
5
1F
100
AcDbSymbolTableRecord
100
AcDbBlockTableRecord
2
*MODEL_SPACE
0
BLOCK_RECORD
5
1B
100
AcDbSymbolTableRecord
100
AcDbBlockTableRecord
2
*PAPER_SPACE
0
ENDTAB
0
ENDSEC
0
SECTION
2
BLOCKS
0
BLOCK
5
20
100
AcDbEntity
100
AcDbBlockBegin
2
*MODEL_SPACE
0
ENDBLK
5
21
100
AcDbEntity
100
AcDbBlockEnd
0
BLOCK
5
1C
100
AcDbEntity
100
AcDbBlockBegin
2
*PAPER_SPACE
0
ENDBLK
5
1D
100
AcDbEntity
100
AcDbBlockEnd
0
ENDSEC
0
SECTION
2
ENTITIES
0
LWPOLYLINE
5
100
100
AcDbEntity
8
0
100
AcDbPolyline
90
74
70
1
43
0.0
10
144.8749984741211
20
-51.124998855591144
10
144.8749984741211
20
-49.124998855590853
42
0.41421356237310025
10
143.8749984741211
20
-48.124998855590839
10
89.237498474121097
20
-48.124998855590846
42
-0.99999999999999989
10
89.237498474121054
20
-45.099998855590862
10
147.8749984741211
20
-45.09999885559084
42
0.41421356237309631
10
149.8749984741211
20
-43.099998855590854
10
149.8749984741211
20
43.10000114440917
42
0.41421356237309764
10
147.87499847412104
20
45.100001144409198
10
89.237498474121054
20
45.100001144409198
42
-0.99999999999999989
10
89.237498474121054
20
48.125001144409197
10
143.8749984741211
20
48.12500114440919
42
0.41421356237309503
10
144.8749984741211
20
49.125001144409183
10
144.8749984741211
20
51.125001144409481
42
0.41421356237308982
10
143.8749984741211
20
52.125001144409495
10
27.57499847412511
20
52.125001144409204
42
0.41421356237308721
10
26.574998474125131
20
51.125001144409197
10
26.574998474125131
20
49.125001144409183
42
0.41421356237309631
10
27.574998474125128
20
48.12500114440919
10
82.212498474121091
20
48.125001144409161
42
-0.99999999999999989
10
82.212498474120977
20
45.100001144409163
10
74.903904169533092
20
45.100001144409163
42
-0.26737111037970668
10
73.174015135593436
20
46.096266154356897
42
0.26737111037970268
10
71.431148474121059
20
47.100005144409273
10
66.674998474121097
20
47.100005144409273
42
0.26737111037970712
10
64.932131812648748
20
46.096266154356897
42
-0.26737111037970213
10
63.202242778709063
20
45.100001144409163
10
-25.095895830466937
20
45.100001144409163
42
-0.26737111037970024
10
-26.825784864406614
20
46.096266154356883
42
0.26737111037970213
10
-28.568651525878934
20
47.100005144409245
10
-47.625001525878893
20
47.100005144409216
42
0.26737111037970462
10
-49.367868187351185
20
46.096266154356883
42
-0.2673711103796988
10
-51.097757221290863
20
45.100001144409141
10
-82.212501525878977
20
45.100001144409163
42
-0.99999999999999989
10
-82.212501525878977
20
48.125001144409161
10
-27.575001525883032
20
48.12500114440919
42
0.41421356237309631
10
-26.575001525883032
20
49.125001144409183
10
-26.575001525883017
20
51.125001144409197
42
0.41421356237309892
10
-27.575001525883032
20
52.125001144409204
10
-143.87500152587901
20
52.125001144409438
42
0.41421356237309503
10
-144.87500152587896
20
51.125001144409467
10
-144.87500152587901
20
49.125001144409161
42
0.41421356237309243
10
-143.87500152587901
20
48.125001144409147
10
-89.237501525878869
20
48.125001144409161
42
-0.99999999999999989
10
-89.237501525879026
20
45.100001144409163
10
-147.87500152587887
20
45.100001144409141
42
0.41421356237309243
10
-149.87500152587887
20
43.100001144409191
10
-149.87500152587893
20
-43.099998855590833
42
0.41421356237309892
10
-147.87500152587887
20
-45.099998855590819
10
-129.67900838205099
20
-45.099998855590854
42
-0.26737114924594035
10
-127.94911920247678
20
-46.096264116532801
42
0.2673711492459373
10
-126.20625152587893
20
-47.100003859584014
10
-102.39375140545292
20
-47.100003871885541
42
0.26737113371290094
10
-100.65088383684315
20
-46.096264119608065
42
-0.26737114972214443
10
-98.920994655484535
20
-45.099998855590854
10
-89.237501525878912
20
-45.099998855590869
42
-0.99999999999999989
10
-89.237501525878912
20
-48.124998855590889
10
-143.87500152587901
20
-48.124998855590889
42
0.4142135623730846
10
-144.87500152587896
20
-49.124998855590896
10
-144.87500152587901
20
-51.124998855591173
42
0.41421356237308982
10
-143.87500152587901
20
-52.124998855591187
10
-27.575001525883014
20
-52.124998855590803
42
0.41421356237309764
10
-26.575001525883003
20
-51.12499885559081
10
-26.575001525882982
20
-49.124998855590853
42
0.41421356237310025
10
-27.575001525883003
20
-48.124998855590846
10
-82.212501525878963
20
-48.124998855590846
42
-0.99999999999999989
10
-82.21250152587892
20
-45.099998855590854
10
82.212498474121077
20
-45.099998855590854
42
-0.99999999999999989
10
82.212498474121077
20
-48.124998855590846
10
27.574998474125128
20
-48.12499885559086
42
0.41421356237309631
10
26.574998474125128
20
-49.12499885559086
10
26.574998474125131
20
-51.12499885559086
42
0.41421356237310281
10
27.574998474125128
20
-52.124998855590846
10
143.8749984741211
20
-52.124998855591151
42
0.41421356237308721
0
CIRCLE
5
101
100
AcDbEntity
8
0
100
AcDbCircle
10
142.8749984741211
20
-38.099998855590833
30
0
40
1.9939000000000009
210
0
220
0
230
1
0
ENDSEC
0
SECTION
2
OBJECTS
0
DICTIONARY
5
C
100
AcDbDictionary
3
ACAD_GROUP
350
D
3
ACAD_MLINESTYLE
350
17
0
DICTIONARY
5
D
100
AcDbDictionary
0
DICTIONARY
5
1A
330
C
100
AcDbDictionary
0
DICTIONARY
5
17
100
AcDbDictionary
0
ENDSEC
0
EOF
