M48
; DRILL file {KiCad (5.1.10)-1} date 05/07/22 17:57:53
; FORMAT={-:-/ absolute / metric / decimal}
; #@! TF.CreationDate,2022-05-07T17:57:53+07:00
; #@! TF.GenerationSoftware,Kicad,Pcbnew,(5.1.10)-1
; #@! TF.FileFunction,Plated,1,2,PTH
FMAT,2
METRIC
T1C0.300
T2C0.400
T3C0.600
%
G90
G05
T1
X26.0Y-59.67
X27.405Y-43.695
X27.405Y-77.995
X41.57Y-95.67
X128.93Y-58.17
X128.93Y-75.17
X130.1Y-41.17
X130.1Y-66.2
X136.0Y-45.3
X141.893Y-58.807
X142.65Y-69.05
X145.5Y-68.5
X146.3Y-53.6
X146.3Y-57.6
X146.575Y-47.75
X147.8Y-81.6
X148.575Y-48.8
X148.6Y-43.1
X149.425Y-48.8
X149.6Y-44.1
X151.4Y-49.1
X151.45Y-47.75
X151.5Y-59.6
X151.7Y-50.8
X151.7Y-57.6
X151.7Y-92.9
X151.7Y-97.4
X152.266Y-60.2
X154.1Y-69.3
X160.2Y-81.6
X161.707Y-73.607
X171.93Y-76.67
X173.0Y-54.6
X173.405Y-60.605
X179.1Y-47.5
X254.07Y-94.17
X270.595Y-74.105
X272.07Y-41.17
X272.07Y-58.17
T2
X26.03Y-41.17
X26.03Y-75.17
X33.275Y-52.95
X33.275Y-69.95
X33.275Y-86.95
X34.07Y-59.67
X46.03Y-41.17
X46.03Y-75.17
X53.275Y-52.95
X53.275Y-69.95
X53.275Y-86.95
X53.275Y-105.95
X53.97Y-95.67
X54.07Y-59.67
X64.03Y-41.17
X64.03Y-75.17
X71.275Y-52.95
X71.275Y-69.95
X71.275Y-86.95
X71.275Y-105.95
X71.97Y-95.67
X72.07Y-59.67
X82.03Y-41.17
X82.03Y-75.17
X89.275Y-52.95
X89.275Y-69.95
X89.275Y-86.95
X89.275Y-105.95
X89.97Y-95.67
X90.07Y-59.67
X100.03Y-41.17
X100.03Y-75.17
X107.275Y-52.95
X107.275Y-69.95
X107.275Y-86.95
X107.275Y-105.95
X107.97Y-95.67
X108.07Y-59.67
X118.03Y-41.17
X118.03Y-75.17
X125.275Y-52.95
X125.275Y-69.95
X125.275Y-86.95
X125.275Y-105.95
X125.97Y-95.67
X126.07Y-59.67
X142.1Y-50.3
X142.7Y-76.3
X143.275Y-105.95
X143.6Y-65.7
X143.97Y-95.67
X144.45Y-66.8
X150.2Y-67.5
X151.0Y-78.9
X154.1Y-66.1
X155.8Y-68.4
X161.275Y-105.95
X161.97Y-95.67
X172.03Y-41.17
X172.03Y-75.17
X179.275Y-52.95
X179.275Y-69.95
X179.275Y-86.95
X179.275Y-105.95
X179.97Y-95.67
X180.07Y-59.67
X190.03Y-41.17
X190.03Y-75.17
X197.275Y-52.95
X197.275Y-69.95
X197.275Y-86.95
X197.275Y-105.95
X197.97Y-95.67
X198.07Y-59.67
X208.03Y-41.17
X208.03Y-75.17
X215.275Y-52.95
X215.275Y-69.95
X215.275Y-86.95
X215.275Y-105.95
X215.97Y-95.67
X216.07Y-59.67
X226.03Y-41.17
X226.03Y-75.17
X233.275Y-52.95
X233.275Y-69.95
X233.275Y-86.95
X233.275Y-105.95
X233.97Y-95.67
X234.07Y-59.67
X244.03Y-41.17
X244.03Y-75.17
X251.275Y-52.95
X251.275Y-69.95
X251.275Y-86.95
X251.275Y-105.95
X251.97Y-95.67
X252.07Y-59.67
X264.03Y-41.17
X264.03Y-75.17
X271.275Y-52.95
X271.275Y-69.95
X271.275Y-86.95
X272.07Y-59.67
T3
G00X144.68Y-41.4
M15
G01X144.68Y-40.8
M16
G05
G00X144.68Y-45.83
M15
G01X144.68Y-44.73
M16
G05
G00X153.32Y-41.4
M15
G01X153.32Y-40.8
M16
G05
G00X153.32Y-45.83
M15
G01X153.32Y-44.73
M16
G05
G00X160.2Y-51.5
M15
G01X160.2Y-52.1
M16
G05
G00X164.8Y-43.4
M15
G01X164.8Y-44.0
M16
G05
G00X164.8Y-46.4
M15
G01X164.8Y-47.0
M16
G05
G00X164.8Y-50.4
M15
G01X164.8Y-51.0
M16
G05
T0
M30
