%TF.GenerationSoftware,KiCad,Pcbnew,(5.1.10)-1*%
%TF.CreationDate,2022-05-07T17:57:56+07:00*%
%TF.ProjectId,Onsen48,4f6e7365-6e34-4382-9e6b-696361645f70,rev?*%
%TF.SameCoordinates,Original*%
%TF.FileFunction,Soldermask,Bot*%
%TF.FilePolarity,Negative*%
%FSLAX46Y46*%
G04 Gerber Fmt 4.6, Leading zero omitted, Abs format (unit mm)*
G04 Created by KiCad (PCBNEW (5.1.10)-1) date 2022-05-07 17:57:56*
%MOMM*%
%LPD*%
G01*
G04 APERTURE LIST*
%ADD10R,1.300000X0.700000*%
%ADD11R,0.400000X1.900000*%
%ADD12C,0.650000*%
%ADD13O,1.000000X2.100000*%
%ADD14O,1.000000X1.600000*%
%ADD15R,5.150000X5.150000*%
%ADD16R,0.700000X1.000000*%
%ADD17R,0.700000X0.600000*%
%ADD18R,0.700000X1.300000*%
%ADD19R,2.030000X1.140000*%
%ADD20R,0.800000X0.750000*%
%ADD21R,0.750000X0.800000*%
%ADD22C,1.500000*%
%ADD23O,1.200000X1.800000*%
%ADD24R,1.190000X0.900000*%
%ADD25C,1.701800*%
%ADD26R,2.600000X2.600000*%
%ADD27C,3.000000*%
%ADD28C,3.429000*%
%ADD29C,0.990600*%
G04 APERTURE END LIST*
D10*
%TO.C,R7*%
X130100000Y-69050000D03*
X130100000Y-67150000D03*
%TD*%
D11*
%TO.C,Y1*%
X155800000Y-71600000D03*
X157000000Y-71600000D03*
X158200000Y-71600000D03*
%TD*%
D12*
%TO.C,USB1*%
X146110000Y-44750000D03*
X151890000Y-44750000D03*
D13*
X153320000Y-45280000D03*
X144680000Y-45280000D03*
D14*
X153320000Y-41100000D03*
X144680000Y-41100000D03*
%TD*%
D15*
%TO.C,U2*%
X149000000Y-72500000D03*
G36*
G01*
X145187500Y-69875000D02*
X145937500Y-69875000D01*
G75*
G02*
X146000000Y-69937500I0J-62500D01*
G01*
X146000000Y-70062500D01*
G75*
G02*
X145937500Y-70125000I-62500J0D01*
G01*
X145187500Y-70125000D01*
G75*
G02*
X145125000Y-70062500I0J62500D01*
G01*
X145125000Y-69937500D01*
G75*
G02*
X145187500Y-69875000I62500J0D01*
G01*
G37*
G36*
G01*
X145187500Y-70375000D02*
X145937500Y-70375000D01*
G75*
G02*
X146000000Y-70437500I0J-62500D01*
G01*
X146000000Y-70562500D01*
G75*
G02*
X145937500Y-70625000I-62500J0D01*
G01*
X145187500Y-70625000D01*
G75*
G02*
X145125000Y-70562500I0J62500D01*
G01*
X145125000Y-70437500D01*
G75*
G02*
X145187500Y-70375000I62500J0D01*
G01*
G37*
G36*
G01*
X145187500Y-70875000D02*
X145937500Y-70875000D01*
G75*
G02*
X146000000Y-70937500I0J-62500D01*
G01*
X146000000Y-71062500D01*
G75*
G02*
X145937500Y-71125000I-62500J0D01*
G01*
X145187500Y-71125000D01*
G75*
G02*
X145125000Y-71062500I0J62500D01*
G01*
X145125000Y-70937500D01*
G75*
G02*
X145187500Y-70875000I62500J0D01*
G01*
G37*
G36*
G01*
X145187500Y-71375000D02*
X145937500Y-71375000D01*
G75*
G02*
X146000000Y-71437500I0J-62500D01*
G01*
X146000000Y-71562500D01*
G75*
G02*
X145937500Y-71625000I-62500J0D01*
G01*
X145187500Y-71625000D01*
G75*
G02*
X145125000Y-71562500I0J62500D01*
G01*
X145125000Y-71437500D01*
G75*
G02*
X145187500Y-71375000I62500J0D01*
G01*
G37*
G36*
G01*
X145187500Y-71875000D02*
X145937500Y-71875000D01*
G75*
G02*
X146000000Y-71937500I0J-62500D01*
G01*
X146000000Y-72062500D01*
G75*
G02*
X145937500Y-72125000I-62500J0D01*
G01*
X145187500Y-72125000D01*
G75*
G02*
X145125000Y-72062500I0J62500D01*
G01*
X145125000Y-71937500D01*
G75*
G02*
X145187500Y-71875000I62500J0D01*
G01*
G37*
G36*
G01*
X145187500Y-72375000D02*
X145937500Y-72375000D01*
G75*
G02*
X146000000Y-72437500I0J-62500D01*
G01*
X146000000Y-72562500D01*
G75*
G02*
X145937500Y-72625000I-62500J0D01*
G01*
X145187500Y-72625000D01*
G75*
G02*
X145125000Y-72562500I0J62500D01*
G01*
X145125000Y-72437500D01*
G75*
G02*
X145187500Y-72375000I62500J0D01*
G01*
G37*
G36*
G01*
X145187500Y-72875000D02*
X145937500Y-72875000D01*
G75*
G02*
X146000000Y-72937500I0J-62500D01*
G01*
X146000000Y-73062500D01*
G75*
G02*
X145937500Y-73125000I-62500J0D01*
G01*
X145187500Y-73125000D01*
G75*
G02*
X145125000Y-73062500I0J62500D01*
G01*
X145125000Y-72937500D01*
G75*
G02*
X145187500Y-72875000I62500J0D01*
G01*
G37*
G36*
G01*
X145187500Y-73375000D02*
X145937500Y-73375000D01*
G75*
G02*
X146000000Y-73437500I0J-62500D01*
G01*
X146000000Y-73562500D01*
G75*
G02*
X145937500Y-73625000I-62500J0D01*
G01*
X145187500Y-73625000D01*
G75*
G02*
X145125000Y-73562500I0J62500D01*
G01*
X145125000Y-73437500D01*
G75*
G02*
X145187500Y-73375000I62500J0D01*
G01*
G37*
G36*
G01*
X145187500Y-73875000D02*
X145937500Y-73875000D01*
G75*
G02*
X146000000Y-73937500I0J-62500D01*
G01*
X146000000Y-74062500D01*
G75*
G02*
X145937500Y-74125000I-62500J0D01*
G01*
X145187500Y-74125000D01*
G75*
G02*
X145125000Y-74062500I0J62500D01*
G01*
X145125000Y-73937500D01*
G75*
G02*
X145187500Y-73875000I62500J0D01*
G01*
G37*
G36*
G01*
X145187500Y-74375000D02*
X145937500Y-74375000D01*
G75*
G02*
X146000000Y-74437500I0J-62500D01*
G01*
X146000000Y-74562500D01*
G75*
G02*
X145937500Y-74625000I-62500J0D01*
G01*
X145187500Y-74625000D01*
G75*
G02*
X145125000Y-74562500I0J62500D01*
G01*
X145125000Y-74437500D01*
G75*
G02*
X145187500Y-74375000I62500J0D01*
G01*
G37*
G36*
G01*
X145187500Y-74875000D02*
X145937500Y-74875000D01*
G75*
G02*
X146000000Y-74937500I0J-62500D01*
G01*
X146000000Y-75062500D01*
G75*
G02*
X145937500Y-75125000I-62500J0D01*
G01*
X145187500Y-75125000D01*
G75*
G02*
X145125000Y-75062500I0J62500D01*
G01*
X145125000Y-74937500D01*
G75*
G02*
X145187500Y-74875000I62500J0D01*
G01*
G37*
G36*
G01*
X146437500Y-75500000D02*
X146562500Y-75500000D01*
G75*
G02*
X146625000Y-75562500I0J-62500D01*
G01*
X146625000Y-76312500D01*
G75*
G02*
X146562500Y-76375000I-62500J0D01*
G01*
X146437500Y-76375000D01*
G75*
G02*
X146375000Y-76312500I0J62500D01*
G01*
X146375000Y-75562500D01*
G75*
G02*
X146437500Y-75500000I62500J0D01*
G01*
G37*
G36*
G01*
X146937500Y-75500000D02*
X147062500Y-75500000D01*
G75*
G02*
X147125000Y-75562500I0J-62500D01*
G01*
X147125000Y-76312500D01*
G75*
G02*
X147062500Y-76375000I-62500J0D01*
G01*
X146937500Y-76375000D01*
G75*
G02*
X146875000Y-76312500I0J62500D01*
G01*
X146875000Y-75562500D01*
G75*
G02*
X146937500Y-75500000I62500J0D01*
G01*
G37*
G36*
G01*
X147437500Y-75500000D02*
X147562500Y-75500000D01*
G75*
G02*
X147625000Y-75562500I0J-62500D01*
G01*
X147625000Y-76312500D01*
G75*
G02*
X147562500Y-76375000I-62500J0D01*
G01*
X147437500Y-76375000D01*
G75*
G02*
X147375000Y-76312500I0J62500D01*
G01*
X147375000Y-75562500D01*
G75*
G02*
X147437500Y-75500000I62500J0D01*
G01*
G37*
G36*
G01*
X147937500Y-75500000D02*
X148062500Y-75500000D01*
G75*
G02*
X148125000Y-75562500I0J-62500D01*
G01*
X148125000Y-76312500D01*
G75*
G02*
X148062500Y-76375000I-62500J0D01*
G01*
X147937500Y-76375000D01*
G75*
G02*
X147875000Y-76312500I0J62500D01*
G01*
X147875000Y-75562500D01*
G75*
G02*
X147937500Y-75500000I62500J0D01*
G01*
G37*
G36*
G01*
X148437500Y-75500000D02*
X148562500Y-75500000D01*
G75*
G02*
X148625000Y-75562500I0J-62500D01*
G01*
X148625000Y-76312500D01*
G75*
G02*
X148562500Y-76375000I-62500J0D01*
G01*
X148437500Y-76375000D01*
G75*
G02*
X148375000Y-76312500I0J62500D01*
G01*
X148375000Y-75562500D01*
G75*
G02*
X148437500Y-75500000I62500J0D01*
G01*
G37*
G36*
G01*
X148937500Y-75500000D02*
X149062500Y-75500000D01*
G75*
G02*
X149125000Y-75562500I0J-62500D01*
G01*
X149125000Y-76312500D01*
G75*
G02*
X149062500Y-76375000I-62500J0D01*
G01*
X148937500Y-76375000D01*
G75*
G02*
X148875000Y-76312500I0J62500D01*
G01*
X148875000Y-75562500D01*
G75*
G02*
X148937500Y-75500000I62500J0D01*
G01*
G37*
G36*
G01*
X149437500Y-75500000D02*
X149562500Y-75500000D01*
G75*
G02*
X149625000Y-75562500I0J-62500D01*
G01*
X149625000Y-76312500D01*
G75*
G02*
X149562500Y-76375000I-62500J0D01*
G01*
X149437500Y-76375000D01*
G75*
G02*
X149375000Y-76312500I0J62500D01*
G01*
X149375000Y-75562500D01*
G75*
G02*
X149437500Y-75500000I62500J0D01*
G01*
G37*
G36*
G01*
X149937500Y-75500000D02*
X150062500Y-75500000D01*
G75*
G02*
X150125000Y-75562500I0J-62500D01*
G01*
X150125000Y-76312500D01*
G75*
G02*
X150062500Y-76375000I-62500J0D01*
G01*
X149937500Y-76375000D01*
G75*
G02*
X149875000Y-76312500I0J62500D01*
G01*
X149875000Y-75562500D01*
G75*
G02*
X149937500Y-75500000I62500J0D01*
G01*
G37*
G36*
G01*
X150437500Y-75500000D02*
X150562500Y-75500000D01*
G75*
G02*
X150625000Y-75562500I0J-62500D01*
G01*
X150625000Y-76312500D01*
G75*
G02*
X150562500Y-76375000I-62500J0D01*
G01*
X150437500Y-76375000D01*
G75*
G02*
X150375000Y-76312500I0J62500D01*
G01*
X150375000Y-75562500D01*
G75*
G02*
X150437500Y-75500000I62500J0D01*
G01*
G37*
G36*
G01*
X150937500Y-75500000D02*
X151062500Y-75500000D01*
G75*
G02*
X151125000Y-75562500I0J-62500D01*
G01*
X151125000Y-76312500D01*
G75*
G02*
X151062500Y-76375000I-62500J0D01*
G01*
X150937500Y-76375000D01*
G75*
G02*
X150875000Y-76312500I0J62500D01*
G01*
X150875000Y-75562500D01*
G75*
G02*
X150937500Y-75500000I62500J0D01*
G01*
G37*
G36*
G01*
X151437500Y-75500000D02*
X151562500Y-75500000D01*
G75*
G02*
X151625000Y-75562500I0J-62500D01*
G01*
X151625000Y-76312500D01*
G75*
G02*
X151562500Y-76375000I-62500J0D01*
G01*
X151437500Y-76375000D01*
G75*
G02*
X151375000Y-76312500I0J62500D01*
G01*
X151375000Y-75562500D01*
G75*
G02*
X151437500Y-75500000I62500J0D01*
G01*
G37*
G36*
G01*
X152062500Y-74875000D02*
X152812500Y-74875000D01*
G75*
G02*
X152875000Y-74937500I0J-62500D01*
G01*
X152875000Y-75062500D01*
G75*
G02*
X152812500Y-75125000I-62500J0D01*
G01*
X152062500Y-75125000D01*
G75*
G02*
X152000000Y-75062500I0J62500D01*
G01*
X152000000Y-74937500D01*
G75*
G02*
X152062500Y-74875000I62500J0D01*
G01*
G37*
G36*
G01*
X152062500Y-74375000D02*
X152812500Y-74375000D01*
G75*
G02*
X152875000Y-74437500I0J-62500D01*
G01*
X152875000Y-74562500D01*
G75*
G02*
X152812500Y-74625000I-62500J0D01*
G01*
X152062500Y-74625000D01*
G75*
G02*
X152000000Y-74562500I0J62500D01*
G01*
X152000000Y-74437500D01*
G75*
G02*
X152062500Y-74375000I62500J0D01*
G01*
G37*
G36*
G01*
X152062500Y-73875000D02*
X152812500Y-73875000D01*
G75*
G02*
X152875000Y-73937500I0J-62500D01*
G01*
X152875000Y-74062500D01*
G75*
G02*
X152812500Y-74125000I-62500J0D01*
G01*
X152062500Y-74125000D01*
G75*
G02*
X152000000Y-74062500I0J62500D01*
G01*
X152000000Y-73937500D01*
G75*
G02*
X152062500Y-73875000I62500J0D01*
G01*
G37*
G36*
G01*
X152062500Y-73375000D02*
X152812500Y-73375000D01*
G75*
G02*
X152875000Y-73437500I0J-62500D01*
G01*
X152875000Y-73562500D01*
G75*
G02*
X152812500Y-73625000I-62500J0D01*
G01*
X152062500Y-73625000D01*
G75*
G02*
X152000000Y-73562500I0J62500D01*
G01*
X152000000Y-73437500D01*
G75*
G02*
X152062500Y-73375000I62500J0D01*
G01*
G37*
G36*
G01*
X152062500Y-72875000D02*
X152812500Y-72875000D01*
G75*
G02*
X152875000Y-72937500I0J-62500D01*
G01*
X152875000Y-73062500D01*
G75*
G02*
X152812500Y-73125000I-62500J0D01*
G01*
X152062500Y-73125000D01*
G75*
G02*
X152000000Y-73062500I0J62500D01*
G01*
X152000000Y-72937500D01*
G75*
G02*
X152062500Y-72875000I62500J0D01*
G01*
G37*
G36*
G01*
X152062500Y-72375000D02*
X152812500Y-72375000D01*
G75*
G02*
X152875000Y-72437500I0J-62500D01*
G01*
X152875000Y-72562500D01*
G75*
G02*
X152812500Y-72625000I-62500J0D01*
G01*
X152062500Y-72625000D01*
G75*
G02*
X152000000Y-72562500I0J62500D01*
G01*
X152000000Y-72437500D01*
G75*
G02*
X152062500Y-72375000I62500J0D01*
G01*
G37*
G36*
G01*
X152062500Y-71875000D02*
X152812500Y-71875000D01*
G75*
G02*
X152875000Y-71937500I0J-62500D01*
G01*
X152875000Y-72062500D01*
G75*
G02*
X152812500Y-72125000I-62500J0D01*
G01*
X152062500Y-72125000D01*
G75*
G02*
X152000000Y-72062500I0J62500D01*
G01*
X152000000Y-71937500D01*
G75*
G02*
X152062500Y-71875000I62500J0D01*
G01*
G37*
G36*
G01*
X152062500Y-71375000D02*
X152812500Y-71375000D01*
G75*
G02*
X152875000Y-71437500I0J-62500D01*
G01*
X152875000Y-71562500D01*
G75*
G02*
X152812500Y-71625000I-62500J0D01*
G01*
X152062500Y-71625000D01*
G75*
G02*
X152000000Y-71562500I0J62500D01*
G01*
X152000000Y-71437500D01*
G75*
G02*
X152062500Y-71375000I62500J0D01*
G01*
G37*
G36*
G01*
X152062500Y-70875000D02*
X152812500Y-70875000D01*
G75*
G02*
X152875000Y-70937500I0J-62500D01*
G01*
X152875000Y-71062500D01*
G75*
G02*
X152812500Y-71125000I-62500J0D01*
G01*
X152062500Y-71125000D01*
G75*
G02*
X152000000Y-71062500I0J62500D01*
G01*
X152000000Y-70937500D01*
G75*
G02*
X152062500Y-70875000I62500J0D01*
G01*
G37*
G36*
G01*
X152062500Y-70375000D02*
X152812500Y-70375000D01*
G75*
G02*
X152875000Y-70437500I0J-62500D01*
G01*
X152875000Y-70562500D01*
G75*
G02*
X152812500Y-70625000I-62500J0D01*
G01*
X152062500Y-70625000D01*
G75*
G02*
X152000000Y-70562500I0J62500D01*
G01*
X152000000Y-70437500D01*
G75*
G02*
X152062500Y-70375000I62500J0D01*
G01*
G37*
G36*
G01*
X152062500Y-69875000D02*
X152812500Y-69875000D01*
G75*
G02*
X152875000Y-69937500I0J-62500D01*
G01*
X152875000Y-70062500D01*
G75*
G02*
X152812500Y-70125000I-62500J0D01*
G01*
X152062500Y-70125000D01*
G75*
G02*
X152000000Y-70062500I0J62500D01*
G01*
X152000000Y-69937500D01*
G75*
G02*
X152062500Y-69875000I62500J0D01*
G01*
G37*
G36*
G01*
X151437500Y-68625000D02*
X151562500Y-68625000D01*
G75*
G02*
X151625000Y-68687500I0J-62500D01*
G01*
X151625000Y-69437500D01*
G75*
G02*
X151562500Y-69500000I-62500J0D01*
G01*
X151437500Y-69500000D01*
G75*
G02*
X151375000Y-69437500I0J62500D01*
G01*
X151375000Y-68687500D01*
G75*
G02*
X151437500Y-68625000I62500J0D01*
G01*
G37*
G36*
G01*
X150937500Y-68625000D02*
X151062500Y-68625000D01*
G75*
G02*
X151125000Y-68687500I0J-62500D01*
G01*
X151125000Y-69437500D01*
G75*
G02*
X151062500Y-69500000I-62500J0D01*
G01*
X150937500Y-69500000D01*
G75*
G02*
X150875000Y-69437500I0J62500D01*
G01*
X150875000Y-68687500D01*
G75*
G02*
X150937500Y-68625000I62500J0D01*
G01*
G37*
G36*
G01*
X150437500Y-68625000D02*
X150562500Y-68625000D01*
G75*
G02*
X150625000Y-68687500I0J-62500D01*
G01*
X150625000Y-69437500D01*
G75*
G02*
X150562500Y-69500000I-62500J0D01*
G01*
X150437500Y-69500000D01*
G75*
G02*
X150375000Y-69437500I0J62500D01*
G01*
X150375000Y-68687500D01*
G75*
G02*
X150437500Y-68625000I62500J0D01*
G01*
G37*
G36*
G01*
X149937500Y-68625000D02*
X150062500Y-68625000D01*
G75*
G02*
X150125000Y-68687500I0J-62500D01*
G01*
X150125000Y-69437500D01*
G75*
G02*
X150062500Y-69500000I-62500J0D01*
G01*
X149937500Y-69500000D01*
G75*
G02*
X149875000Y-69437500I0J62500D01*
G01*
X149875000Y-68687500D01*
G75*
G02*
X149937500Y-68625000I62500J0D01*
G01*
G37*
G36*
G01*
X149437500Y-68625000D02*
X149562500Y-68625000D01*
G75*
G02*
X149625000Y-68687500I0J-62500D01*
G01*
X149625000Y-69437500D01*
G75*
G02*
X149562500Y-69500000I-62500J0D01*
G01*
X149437500Y-69500000D01*
G75*
G02*
X149375000Y-69437500I0J62500D01*
G01*
X149375000Y-68687500D01*
G75*
G02*
X149437500Y-68625000I62500J0D01*
G01*
G37*
G36*
G01*
X148937500Y-68625000D02*
X149062500Y-68625000D01*
G75*
G02*
X149125000Y-68687500I0J-62500D01*
G01*
X149125000Y-69437500D01*
G75*
G02*
X149062500Y-69500000I-62500J0D01*
G01*
X148937500Y-69500000D01*
G75*
G02*
X148875000Y-69437500I0J62500D01*
G01*
X148875000Y-68687500D01*
G75*
G02*
X148937500Y-68625000I62500J0D01*
G01*
G37*
G36*
G01*
X148437500Y-68625000D02*
X148562500Y-68625000D01*
G75*
G02*
X148625000Y-68687500I0J-62500D01*
G01*
X148625000Y-69437500D01*
G75*
G02*
X148562500Y-69500000I-62500J0D01*
G01*
X148437500Y-69500000D01*
G75*
G02*
X148375000Y-69437500I0J62500D01*
G01*
X148375000Y-68687500D01*
G75*
G02*
X148437500Y-68625000I62500J0D01*
G01*
G37*
G36*
G01*
X147937500Y-68625000D02*
X148062500Y-68625000D01*
G75*
G02*
X148125000Y-68687500I0J-62500D01*
G01*
X148125000Y-69437500D01*
G75*
G02*
X148062500Y-69500000I-62500J0D01*
G01*
X147937500Y-69500000D01*
G75*
G02*
X147875000Y-69437500I0J62500D01*
G01*
X147875000Y-68687500D01*
G75*
G02*
X147937500Y-68625000I62500J0D01*
G01*
G37*
G36*
G01*
X147437500Y-68625000D02*
X147562500Y-68625000D01*
G75*
G02*
X147625000Y-68687500I0J-62500D01*
G01*
X147625000Y-69437500D01*
G75*
G02*
X147562500Y-69500000I-62500J0D01*
G01*
X147437500Y-69500000D01*
G75*
G02*
X147375000Y-69437500I0J62500D01*
G01*
X147375000Y-68687500D01*
G75*
G02*
X147437500Y-68625000I62500J0D01*
G01*
G37*
G36*
G01*
X146937500Y-68625000D02*
X147062500Y-68625000D01*
G75*
G02*
X147125000Y-68687500I0J-62500D01*
G01*
X147125000Y-69437500D01*
G75*
G02*
X147062500Y-69500000I-62500J0D01*
G01*
X146937500Y-69500000D01*
G75*
G02*
X146875000Y-69437500I0J62500D01*
G01*
X146875000Y-68687500D01*
G75*
G02*
X146937500Y-68625000I62500J0D01*
G01*
G37*
G36*
G01*
X146437500Y-68625000D02*
X146562500Y-68625000D01*
G75*
G02*
X146625000Y-68687500I0J-62500D01*
G01*
X146625000Y-69437500D01*
G75*
G02*
X146562500Y-69500000I-62500J0D01*
G01*
X146437500Y-69500000D01*
G75*
G02*
X146375000Y-69437500I0J62500D01*
G01*
X146375000Y-68687500D01*
G75*
G02*
X146437500Y-68625000I62500J0D01*
G01*
G37*
%TD*%
D16*
%TO.C,U1*%
X150000000Y-50500000D03*
D17*
X148000000Y-50300000D03*
X150000000Y-52200000D03*
X148000000Y-52200000D03*
%TD*%
D18*
%TO.C,R6*%
X146500000Y-78550000D03*
X144600000Y-78550000D03*
%TD*%
D10*
%TO.C,R5*%
X143600000Y-50300000D03*
X143600000Y-52200000D03*
%TD*%
%TO.C,R4*%
X148100000Y-54550000D03*
X148100000Y-56450000D03*
%TD*%
%TO.C,R3*%
X149900000Y-54550000D03*
X149900000Y-56450000D03*
%TD*%
%TO.C,R2*%
X151700000Y-54550000D03*
X151700000Y-56450000D03*
%TD*%
%TO.C,R1*%
X146300000Y-54550000D03*
X146300000Y-56450000D03*
%TD*%
D19*
%TO.C,F1*%
X145810000Y-50050000D03*
X145810000Y-52450000D03*
%TD*%
D20*
%TO.C,C7*%
X155800000Y-69050000D03*
X157300000Y-69050000D03*
%TD*%
%TO.C,C6*%
X148950000Y-65900000D03*
X150450000Y-65900000D03*
%TD*%
D21*
%TO.C,C5*%
X142700000Y-75500000D03*
X142700000Y-74000000D03*
%TD*%
D20*
%TO.C,C4*%
X151000000Y-78200000D03*
X152500000Y-78200000D03*
%TD*%
%TO.C,C1*%
X144450000Y-67500000D03*
X142950000Y-67500000D03*
%TD*%
D22*
%TO.C,J1*%
X162500000Y-49100000D03*
X162500000Y-42100000D03*
D23*
X160200000Y-51800000D03*
X164800000Y-50700000D03*
X164800000Y-46700000D03*
X164800000Y-43700000D03*
%TD*%
%TO.C,D27*%
G36*
G01*
X129750000Y-43850000D02*
X130450000Y-43850000D01*
G75*
G02*
X130700000Y-44100000I0J-250000D01*
G01*
X130700000Y-44600000D01*
G75*
G02*
X130450000Y-44850000I-250000J0D01*
G01*
X129750000Y-44850000D01*
G75*
G02*
X129500000Y-44600000I0J250000D01*
G01*
X129500000Y-44100000D01*
G75*
G02*
X129750000Y-43850000I250000J0D01*
G01*
G37*
G36*
G01*
X129750000Y-47150000D02*
X130450000Y-47150000D01*
G75*
G02*
X130700000Y-47400000I0J-250000D01*
G01*
X130700000Y-47900000D01*
G75*
G02*
X130450000Y-48150000I-250000J0D01*
G01*
X129750000Y-48150000D01*
G75*
G02*
X129500000Y-47900000I0J250000D01*
G01*
X129500000Y-47400000D01*
G75*
G02*
X129750000Y-47150000I250000J0D01*
G01*
G37*
%TD*%
D24*
%TO.C,RGB48*%
X270595000Y-41170000D03*
X265405000Y-42670000D03*
X265405000Y-41170000D03*
X270595000Y-42670000D03*
%TD*%
%TO.C,RGB47*%
X250595000Y-41170000D03*
X245405000Y-42670000D03*
X245405000Y-41170000D03*
X250595000Y-42670000D03*
%TD*%
%TO.C,RGB46*%
X232595000Y-41170000D03*
X227405000Y-42670000D03*
X227405000Y-41170000D03*
X232595000Y-42670000D03*
%TD*%
%TO.C,RGB45*%
X214595000Y-41170000D03*
X209405000Y-42670000D03*
X209405000Y-41170000D03*
X214595000Y-42670000D03*
%TD*%
%TO.C,RGB44*%
X196595000Y-41170000D03*
X191405000Y-42670000D03*
X191405000Y-41170000D03*
X196595000Y-42670000D03*
%TD*%
%TO.C,RGB43*%
X178595000Y-41170000D03*
X173405000Y-42670000D03*
X173405000Y-41170000D03*
X178595000Y-42670000D03*
%TD*%
%TO.C,RGB42*%
X270595000Y-59670000D03*
X265405000Y-58170000D03*
X265405000Y-59670000D03*
X270595000Y-58170000D03*
%TD*%
%TO.C,RGB41*%
X250595000Y-59670000D03*
X245405000Y-58170000D03*
X245405000Y-59670000D03*
X250595000Y-58170000D03*
%TD*%
%TO.C,RGB40*%
X232595000Y-59670000D03*
X227405000Y-58170000D03*
X227405000Y-59670000D03*
X232595000Y-58170000D03*
%TD*%
%TO.C,RGB39*%
X214595000Y-59670000D03*
X209405000Y-58170000D03*
X209405000Y-59670000D03*
X214595000Y-58170000D03*
%TD*%
%TO.C,RGB38*%
X196595000Y-59670000D03*
X191405000Y-58170000D03*
X191405000Y-59670000D03*
X196595000Y-58170000D03*
%TD*%
%TO.C,RGB37*%
X178595000Y-59670000D03*
X173405000Y-58170000D03*
X173405000Y-59670000D03*
X178595000Y-58170000D03*
%TD*%
%TO.C,RGB30*%
X52595000Y-95670000D03*
X47405000Y-94170000D03*
X47405000Y-95670000D03*
X52595000Y-94170000D03*
%TD*%
%TO.C,RGB29*%
X70595000Y-95670000D03*
X65405000Y-94170000D03*
X65405000Y-95670000D03*
X70595000Y-94170000D03*
%TD*%
%TO.C,RGB28*%
X88595000Y-95670000D03*
X83405000Y-94170000D03*
X83405000Y-95670000D03*
X88595000Y-94170000D03*
%TD*%
%TO.C,RGB27*%
X106595000Y-95670000D03*
X101405000Y-94170000D03*
X101405000Y-95670000D03*
X106595000Y-94170000D03*
%TD*%
%TO.C,RGB26*%
X124595000Y-95670000D03*
X119405000Y-94170000D03*
X119405000Y-95670000D03*
X124595000Y-94170000D03*
%TD*%
%TO.C,RGB25*%
X142595000Y-95670000D03*
X137405000Y-94170000D03*
X137405000Y-95670000D03*
X142595000Y-94170000D03*
%TD*%
%TO.C,RGB24*%
X160595000Y-95670000D03*
X155405000Y-94170000D03*
X155405000Y-95670000D03*
X160595000Y-94170000D03*
%TD*%
%TO.C,RGB22*%
X178595000Y-95670000D03*
X173405000Y-94170000D03*
X173405000Y-95670000D03*
X178595000Y-94170000D03*
%TD*%
%TO.C,RGB20*%
X196595000Y-95670000D03*
X191405000Y-94170000D03*
X191405000Y-95670000D03*
X196595000Y-94170000D03*
%TD*%
%TO.C,RGB18*%
X214595000Y-95670000D03*
X209405000Y-94170000D03*
X209405000Y-95670000D03*
X214595000Y-94170000D03*
%TD*%
%TO.C,RGB16*%
X232595000Y-95670000D03*
X227405000Y-94170000D03*
X227405000Y-95670000D03*
X232595000Y-94170000D03*
%TD*%
%TO.C,RGB14*%
X250595000Y-95670000D03*
X245405000Y-94170000D03*
X245405000Y-95670000D03*
X250595000Y-94170000D03*
%TD*%
%TO.C,RGB36*%
X270595000Y-75170000D03*
X265405000Y-76670000D03*
X265405000Y-75170000D03*
X270595000Y-76670000D03*
%TD*%
%TO.C,RGB35*%
X250595000Y-75170000D03*
X245405000Y-76670000D03*
X245405000Y-75170000D03*
X250595000Y-76670000D03*
%TD*%
%TO.C,RGB34*%
X232595000Y-75170000D03*
X227405000Y-76670000D03*
X227405000Y-75170000D03*
X232595000Y-76670000D03*
%TD*%
%TO.C,RGB33*%
X214595000Y-75170000D03*
X209405000Y-76670000D03*
X209405000Y-75170000D03*
X214595000Y-76670000D03*
%TD*%
%TO.C,RGB32*%
X196595000Y-75170000D03*
X191405000Y-76670000D03*
X191405000Y-75170000D03*
X196595000Y-76670000D03*
%TD*%
%TO.C,RGB31*%
X178595000Y-75170000D03*
X173405000Y-76670000D03*
X173405000Y-75170000D03*
X178595000Y-76670000D03*
%TD*%
%TO.C,RGB23*%
X124595000Y-76670000D03*
X119405000Y-75170000D03*
X119405000Y-76670000D03*
X124595000Y-75170000D03*
%TD*%
%TO.C,RGB21*%
X106595000Y-76670000D03*
X101405000Y-75170000D03*
X101405000Y-76670000D03*
X106595000Y-75170000D03*
%TD*%
%TO.C,RGB19*%
X88595000Y-76670000D03*
X83405000Y-75170000D03*
X83405000Y-76670000D03*
X88595000Y-75170000D03*
%TD*%
%TO.C,RGB17*%
X70595000Y-76670000D03*
X65405000Y-75170000D03*
X65405000Y-76670000D03*
X70595000Y-75170000D03*
%TD*%
%TO.C,RGB15*%
X52595000Y-76670000D03*
X47405000Y-75170000D03*
X47405000Y-76670000D03*
X52595000Y-75170000D03*
%TD*%
%TO.C,RGB13*%
X32595000Y-76670000D03*
X27405000Y-75170000D03*
X27405000Y-76670000D03*
X32595000Y-75170000D03*
%TD*%
%TO.C,RGB12*%
X32595000Y-41170000D03*
X27405000Y-42670000D03*
X27405000Y-41170000D03*
X32595000Y-42670000D03*
%TD*%
%TO.C,RGB11*%
X52595000Y-41170000D03*
X47405000Y-42670000D03*
X47405000Y-41170000D03*
X52595000Y-42670000D03*
%TD*%
%TO.C,RGB10*%
X70595000Y-41170000D03*
X65405000Y-42670000D03*
X65405000Y-41170000D03*
X70595000Y-42670000D03*
%TD*%
%TO.C,RGB9*%
X88595000Y-41170000D03*
X83405000Y-42670000D03*
X83405000Y-41170000D03*
X88595000Y-42670000D03*
%TD*%
%TO.C,RGB8*%
X106595000Y-41170000D03*
X101405000Y-42670000D03*
X101405000Y-41170000D03*
X106595000Y-42670000D03*
%TD*%
%TO.C,RGB7*%
X124595000Y-41170000D03*
X119405000Y-42670000D03*
X119405000Y-41170000D03*
X124595000Y-42670000D03*
%TD*%
%TO.C,RGB6*%
X124595000Y-59670000D03*
X119405000Y-58170000D03*
X119405000Y-59670000D03*
X124595000Y-58170000D03*
%TD*%
%TO.C,RGB5*%
X106595000Y-59670000D03*
X101405000Y-58170000D03*
X101405000Y-59670000D03*
X106595000Y-58170000D03*
%TD*%
%TO.C,RGB4*%
X88595000Y-59670000D03*
X83405000Y-58170000D03*
X83405000Y-59670000D03*
X88595000Y-58170000D03*
%TD*%
%TO.C,RGB3*%
X70595000Y-59670000D03*
X65405000Y-58170000D03*
X65405000Y-59670000D03*
X70595000Y-58170000D03*
%TD*%
%TO.C,RGB2*%
X52595000Y-59670000D03*
X47405000Y-58170000D03*
X47405000Y-59670000D03*
X52595000Y-58170000D03*
%TD*%
%TO.C,RGB1*%
X32595000Y-59670000D03*
X27405000Y-58170000D03*
X27405000Y-59670000D03*
X32595000Y-58170000D03*
%TD*%
%TO.C,D60*%
G36*
G01*
X238750000Y-96850000D02*
X239450000Y-96850000D01*
G75*
G02*
X239700000Y-97100000I0J-250000D01*
G01*
X239700000Y-97600000D01*
G75*
G02*
X239450000Y-97850000I-250000J0D01*
G01*
X238750000Y-97850000D01*
G75*
G02*
X238500000Y-97600000I0J250000D01*
G01*
X238500000Y-97100000D01*
G75*
G02*
X238750000Y-96850000I250000J0D01*
G01*
G37*
G36*
G01*
X238750000Y-100150000D02*
X239450000Y-100150000D01*
G75*
G02*
X239700000Y-100400000I0J-250000D01*
G01*
X239700000Y-100900000D01*
G75*
G02*
X239450000Y-101150000I-250000J0D01*
G01*
X238750000Y-101150000D01*
G75*
G02*
X238500000Y-100900000I0J250000D01*
G01*
X238500000Y-100400000D01*
G75*
G02*
X238750000Y-100150000I250000J0D01*
G01*
G37*
%TD*%
%TO.C,D59*%
G36*
G01*
X258750000Y-77850000D02*
X259450000Y-77850000D01*
G75*
G02*
X259700000Y-78100000I0J-250000D01*
G01*
X259700000Y-78600000D01*
G75*
G02*
X259450000Y-78850000I-250000J0D01*
G01*
X258750000Y-78850000D01*
G75*
G02*
X258500000Y-78600000I0J250000D01*
G01*
X258500000Y-78100000D01*
G75*
G02*
X258750000Y-77850000I250000J0D01*
G01*
G37*
G36*
G01*
X258750000Y-81150000D02*
X259450000Y-81150000D01*
G75*
G02*
X259700000Y-81400000I0J-250000D01*
G01*
X259700000Y-81900000D01*
G75*
G02*
X259450000Y-82150000I-250000J0D01*
G01*
X258750000Y-82150000D01*
G75*
G02*
X258500000Y-81900000I0J250000D01*
G01*
X258500000Y-81400000D01*
G75*
G02*
X258750000Y-81150000I250000J0D01*
G01*
G37*
%TD*%
%TO.C,D58*%
G36*
G01*
X258750000Y-60850000D02*
X259450000Y-60850000D01*
G75*
G02*
X259700000Y-61100000I0J-250000D01*
G01*
X259700000Y-61600000D01*
G75*
G02*
X259450000Y-61850000I-250000J0D01*
G01*
X258750000Y-61850000D01*
G75*
G02*
X258500000Y-61600000I0J250000D01*
G01*
X258500000Y-61100000D01*
G75*
G02*
X258750000Y-60850000I250000J0D01*
G01*
G37*
G36*
G01*
X258750000Y-64150000D02*
X259450000Y-64150000D01*
G75*
G02*
X259700000Y-64400000I0J-250000D01*
G01*
X259700000Y-64900000D01*
G75*
G02*
X259450000Y-65150000I-250000J0D01*
G01*
X258750000Y-65150000D01*
G75*
G02*
X258500000Y-64900000I0J250000D01*
G01*
X258500000Y-64400000D01*
G75*
G02*
X258750000Y-64150000I250000J0D01*
G01*
G37*
%TD*%
%TO.C,D57*%
G36*
G01*
X258750000Y-43850000D02*
X259450000Y-43850000D01*
G75*
G02*
X259700000Y-44100000I0J-250000D01*
G01*
X259700000Y-44600000D01*
G75*
G02*
X259450000Y-44850000I-250000J0D01*
G01*
X258750000Y-44850000D01*
G75*
G02*
X258500000Y-44600000I0J250000D01*
G01*
X258500000Y-44100000D01*
G75*
G02*
X258750000Y-43850000I250000J0D01*
G01*
G37*
G36*
G01*
X258750000Y-47150000D02*
X259450000Y-47150000D01*
G75*
G02*
X259700000Y-47400000I0J-250000D01*
G01*
X259700000Y-47900000D01*
G75*
G02*
X259450000Y-48150000I-250000J0D01*
G01*
X258750000Y-48150000D01*
G75*
G02*
X258500000Y-47900000I0J250000D01*
G01*
X258500000Y-47400000D01*
G75*
G02*
X258750000Y-47150000I250000J0D01*
G01*
G37*
%TD*%
%TO.C,D55*%
G36*
G01*
X220750000Y-96850000D02*
X221450000Y-96850000D01*
G75*
G02*
X221700000Y-97100000I0J-250000D01*
G01*
X221700000Y-97600000D01*
G75*
G02*
X221450000Y-97850000I-250000J0D01*
G01*
X220750000Y-97850000D01*
G75*
G02*
X220500000Y-97600000I0J250000D01*
G01*
X220500000Y-97100000D01*
G75*
G02*
X220750000Y-96850000I250000J0D01*
G01*
G37*
G36*
G01*
X220750000Y-100150000D02*
X221450000Y-100150000D01*
G75*
G02*
X221700000Y-100400000I0J-250000D01*
G01*
X221700000Y-100900000D01*
G75*
G02*
X221450000Y-101150000I-250000J0D01*
G01*
X220750000Y-101150000D01*
G75*
G02*
X220500000Y-100900000I0J250000D01*
G01*
X220500000Y-100400000D01*
G75*
G02*
X220750000Y-100150000I250000J0D01*
G01*
G37*
%TD*%
%TO.C,D54*%
G36*
G01*
X255750000Y-77850000D02*
X256450000Y-77850000D01*
G75*
G02*
X256700000Y-78100000I0J-250000D01*
G01*
X256700000Y-78600000D01*
G75*
G02*
X256450000Y-78850000I-250000J0D01*
G01*
X255750000Y-78850000D01*
G75*
G02*
X255500000Y-78600000I0J250000D01*
G01*
X255500000Y-78100000D01*
G75*
G02*
X255750000Y-77850000I250000J0D01*
G01*
G37*
G36*
G01*
X255750000Y-81150000D02*
X256450000Y-81150000D01*
G75*
G02*
X256700000Y-81400000I0J-250000D01*
G01*
X256700000Y-81900000D01*
G75*
G02*
X256450000Y-82150000I-250000J0D01*
G01*
X255750000Y-82150000D01*
G75*
G02*
X255500000Y-81900000I0J250000D01*
G01*
X255500000Y-81400000D01*
G75*
G02*
X255750000Y-81150000I250000J0D01*
G01*
G37*
%TD*%
%TO.C,D53*%
G36*
G01*
X255750000Y-60850000D02*
X256450000Y-60850000D01*
G75*
G02*
X256700000Y-61100000I0J-250000D01*
G01*
X256700000Y-61600000D01*
G75*
G02*
X256450000Y-61850000I-250000J0D01*
G01*
X255750000Y-61850000D01*
G75*
G02*
X255500000Y-61600000I0J250000D01*
G01*
X255500000Y-61100000D01*
G75*
G02*
X255750000Y-60850000I250000J0D01*
G01*
G37*
G36*
G01*
X255750000Y-64150000D02*
X256450000Y-64150000D01*
G75*
G02*
X256700000Y-64400000I0J-250000D01*
G01*
X256700000Y-64900000D01*
G75*
G02*
X256450000Y-65150000I-250000J0D01*
G01*
X255750000Y-65150000D01*
G75*
G02*
X255500000Y-64900000I0J250000D01*
G01*
X255500000Y-64400000D01*
G75*
G02*
X255750000Y-64150000I250000J0D01*
G01*
G37*
%TD*%
%TO.C,D52*%
G36*
G01*
X255750000Y-43850000D02*
X256450000Y-43850000D01*
G75*
G02*
X256700000Y-44100000I0J-250000D01*
G01*
X256700000Y-44600000D01*
G75*
G02*
X256450000Y-44850000I-250000J0D01*
G01*
X255750000Y-44850000D01*
G75*
G02*
X255500000Y-44600000I0J250000D01*
G01*
X255500000Y-44100000D01*
G75*
G02*
X255750000Y-43850000I250000J0D01*
G01*
G37*
G36*
G01*
X255750000Y-47150000D02*
X256450000Y-47150000D01*
G75*
G02*
X256700000Y-47400000I0J-250000D01*
G01*
X256700000Y-47900000D01*
G75*
G02*
X256450000Y-48150000I-250000J0D01*
G01*
X255750000Y-48150000D01*
G75*
G02*
X255500000Y-47900000I0J250000D01*
G01*
X255500000Y-47400000D01*
G75*
G02*
X255750000Y-47150000I250000J0D01*
G01*
G37*
%TD*%
%TO.C,D50*%
G36*
G01*
X202750000Y-96850000D02*
X203450000Y-96850000D01*
G75*
G02*
X203700000Y-97100000I0J-250000D01*
G01*
X203700000Y-97600000D01*
G75*
G02*
X203450000Y-97850000I-250000J0D01*
G01*
X202750000Y-97850000D01*
G75*
G02*
X202500000Y-97600000I0J250000D01*
G01*
X202500000Y-97100000D01*
G75*
G02*
X202750000Y-96850000I250000J0D01*
G01*
G37*
G36*
G01*
X202750000Y-100150000D02*
X203450000Y-100150000D01*
G75*
G02*
X203700000Y-100400000I0J-250000D01*
G01*
X203700000Y-100900000D01*
G75*
G02*
X203450000Y-101150000I-250000J0D01*
G01*
X202750000Y-101150000D01*
G75*
G02*
X202500000Y-100900000I0J250000D01*
G01*
X202500000Y-100400000D01*
G75*
G02*
X202750000Y-100150000I250000J0D01*
G01*
G37*
%TD*%
%TO.C,D49*%
G36*
G01*
X237750000Y-77850000D02*
X238450000Y-77850000D01*
G75*
G02*
X238700000Y-78100000I0J-250000D01*
G01*
X238700000Y-78600000D01*
G75*
G02*
X238450000Y-78850000I-250000J0D01*
G01*
X237750000Y-78850000D01*
G75*
G02*
X237500000Y-78600000I0J250000D01*
G01*
X237500000Y-78100000D01*
G75*
G02*
X237750000Y-77850000I250000J0D01*
G01*
G37*
G36*
G01*
X237750000Y-81150000D02*
X238450000Y-81150000D01*
G75*
G02*
X238700000Y-81400000I0J-250000D01*
G01*
X238700000Y-81900000D01*
G75*
G02*
X238450000Y-82150000I-250000J0D01*
G01*
X237750000Y-82150000D01*
G75*
G02*
X237500000Y-81900000I0J250000D01*
G01*
X237500000Y-81400000D01*
G75*
G02*
X237750000Y-81150000I250000J0D01*
G01*
G37*
%TD*%
%TO.C,D48*%
G36*
G01*
X237750000Y-60850000D02*
X238450000Y-60850000D01*
G75*
G02*
X238700000Y-61100000I0J-250000D01*
G01*
X238700000Y-61600000D01*
G75*
G02*
X238450000Y-61850000I-250000J0D01*
G01*
X237750000Y-61850000D01*
G75*
G02*
X237500000Y-61600000I0J250000D01*
G01*
X237500000Y-61100000D01*
G75*
G02*
X237750000Y-60850000I250000J0D01*
G01*
G37*
G36*
G01*
X237750000Y-64150000D02*
X238450000Y-64150000D01*
G75*
G02*
X238700000Y-64400000I0J-250000D01*
G01*
X238700000Y-64900000D01*
G75*
G02*
X238450000Y-65150000I-250000J0D01*
G01*
X237750000Y-65150000D01*
G75*
G02*
X237500000Y-64900000I0J250000D01*
G01*
X237500000Y-64400000D01*
G75*
G02*
X237750000Y-64150000I250000J0D01*
G01*
G37*
%TD*%
%TO.C,D47*%
G36*
G01*
X237750000Y-43850000D02*
X238450000Y-43850000D01*
G75*
G02*
X238700000Y-44100000I0J-250000D01*
G01*
X238700000Y-44600000D01*
G75*
G02*
X238450000Y-44850000I-250000J0D01*
G01*
X237750000Y-44850000D01*
G75*
G02*
X237500000Y-44600000I0J250000D01*
G01*
X237500000Y-44100000D01*
G75*
G02*
X237750000Y-43850000I250000J0D01*
G01*
G37*
G36*
G01*
X237750000Y-47150000D02*
X238450000Y-47150000D01*
G75*
G02*
X238700000Y-47400000I0J-250000D01*
G01*
X238700000Y-47900000D01*
G75*
G02*
X238450000Y-48150000I-250000J0D01*
G01*
X237750000Y-48150000D01*
G75*
G02*
X237500000Y-47900000I0J250000D01*
G01*
X237500000Y-47400000D01*
G75*
G02*
X237750000Y-47150000I250000J0D01*
G01*
G37*
%TD*%
%TO.C,D45*%
G36*
G01*
X184750000Y-96850000D02*
X185450000Y-96850000D01*
G75*
G02*
X185700000Y-97100000I0J-250000D01*
G01*
X185700000Y-97600000D01*
G75*
G02*
X185450000Y-97850000I-250000J0D01*
G01*
X184750000Y-97850000D01*
G75*
G02*
X184500000Y-97600000I0J250000D01*
G01*
X184500000Y-97100000D01*
G75*
G02*
X184750000Y-96850000I250000J0D01*
G01*
G37*
G36*
G01*
X184750000Y-100150000D02*
X185450000Y-100150000D01*
G75*
G02*
X185700000Y-100400000I0J-250000D01*
G01*
X185700000Y-100900000D01*
G75*
G02*
X185450000Y-101150000I-250000J0D01*
G01*
X184750000Y-101150000D01*
G75*
G02*
X184500000Y-100900000I0J250000D01*
G01*
X184500000Y-100400000D01*
G75*
G02*
X184750000Y-100150000I250000J0D01*
G01*
G37*
%TD*%
%TO.C,D44*%
G36*
G01*
X219750000Y-77850000D02*
X220450000Y-77850000D01*
G75*
G02*
X220700000Y-78100000I0J-250000D01*
G01*
X220700000Y-78600000D01*
G75*
G02*
X220450000Y-78850000I-250000J0D01*
G01*
X219750000Y-78850000D01*
G75*
G02*
X219500000Y-78600000I0J250000D01*
G01*
X219500000Y-78100000D01*
G75*
G02*
X219750000Y-77850000I250000J0D01*
G01*
G37*
G36*
G01*
X219750000Y-81150000D02*
X220450000Y-81150000D01*
G75*
G02*
X220700000Y-81400000I0J-250000D01*
G01*
X220700000Y-81900000D01*
G75*
G02*
X220450000Y-82150000I-250000J0D01*
G01*
X219750000Y-82150000D01*
G75*
G02*
X219500000Y-81900000I0J250000D01*
G01*
X219500000Y-81400000D01*
G75*
G02*
X219750000Y-81150000I250000J0D01*
G01*
G37*
%TD*%
%TO.C,D43*%
G36*
G01*
X219750000Y-60850000D02*
X220450000Y-60850000D01*
G75*
G02*
X220700000Y-61100000I0J-250000D01*
G01*
X220700000Y-61600000D01*
G75*
G02*
X220450000Y-61850000I-250000J0D01*
G01*
X219750000Y-61850000D01*
G75*
G02*
X219500000Y-61600000I0J250000D01*
G01*
X219500000Y-61100000D01*
G75*
G02*
X219750000Y-60850000I250000J0D01*
G01*
G37*
G36*
G01*
X219750000Y-64150000D02*
X220450000Y-64150000D01*
G75*
G02*
X220700000Y-64400000I0J-250000D01*
G01*
X220700000Y-64900000D01*
G75*
G02*
X220450000Y-65150000I-250000J0D01*
G01*
X219750000Y-65150000D01*
G75*
G02*
X219500000Y-64900000I0J250000D01*
G01*
X219500000Y-64400000D01*
G75*
G02*
X219750000Y-64150000I250000J0D01*
G01*
G37*
%TD*%
%TO.C,D42*%
G36*
G01*
X219750000Y-43850000D02*
X220450000Y-43850000D01*
G75*
G02*
X220700000Y-44100000I0J-250000D01*
G01*
X220700000Y-44600000D01*
G75*
G02*
X220450000Y-44850000I-250000J0D01*
G01*
X219750000Y-44850000D01*
G75*
G02*
X219500000Y-44600000I0J250000D01*
G01*
X219500000Y-44100000D01*
G75*
G02*
X219750000Y-43850000I250000J0D01*
G01*
G37*
G36*
G01*
X219750000Y-47150000D02*
X220450000Y-47150000D01*
G75*
G02*
X220700000Y-47400000I0J-250000D01*
G01*
X220700000Y-47900000D01*
G75*
G02*
X220450000Y-48150000I-250000J0D01*
G01*
X219750000Y-48150000D01*
G75*
G02*
X219500000Y-47900000I0J250000D01*
G01*
X219500000Y-47400000D01*
G75*
G02*
X219750000Y-47150000I250000J0D01*
G01*
G37*
%TD*%
%TO.C,D40*%
G36*
G01*
X166750000Y-96850000D02*
X167450000Y-96850000D01*
G75*
G02*
X167700000Y-97100000I0J-250000D01*
G01*
X167700000Y-97600000D01*
G75*
G02*
X167450000Y-97850000I-250000J0D01*
G01*
X166750000Y-97850000D01*
G75*
G02*
X166500000Y-97600000I0J250000D01*
G01*
X166500000Y-97100000D01*
G75*
G02*
X166750000Y-96850000I250000J0D01*
G01*
G37*
G36*
G01*
X166750000Y-100150000D02*
X167450000Y-100150000D01*
G75*
G02*
X167700000Y-100400000I0J-250000D01*
G01*
X167700000Y-100900000D01*
G75*
G02*
X167450000Y-101150000I-250000J0D01*
G01*
X166750000Y-101150000D01*
G75*
G02*
X166500000Y-100900000I0J250000D01*
G01*
X166500000Y-100400000D01*
G75*
G02*
X166750000Y-100150000I250000J0D01*
G01*
G37*
%TD*%
%TO.C,D39*%
G36*
G01*
X201750000Y-77850000D02*
X202450000Y-77850000D01*
G75*
G02*
X202700000Y-78100000I0J-250000D01*
G01*
X202700000Y-78600000D01*
G75*
G02*
X202450000Y-78850000I-250000J0D01*
G01*
X201750000Y-78850000D01*
G75*
G02*
X201500000Y-78600000I0J250000D01*
G01*
X201500000Y-78100000D01*
G75*
G02*
X201750000Y-77850000I250000J0D01*
G01*
G37*
G36*
G01*
X201750000Y-81150000D02*
X202450000Y-81150000D01*
G75*
G02*
X202700000Y-81400000I0J-250000D01*
G01*
X202700000Y-81900000D01*
G75*
G02*
X202450000Y-82150000I-250000J0D01*
G01*
X201750000Y-82150000D01*
G75*
G02*
X201500000Y-81900000I0J250000D01*
G01*
X201500000Y-81400000D01*
G75*
G02*
X201750000Y-81150000I250000J0D01*
G01*
G37*
%TD*%
%TO.C,D38*%
G36*
G01*
X201750000Y-60850000D02*
X202450000Y-60850000D01*
G75*
G02*
X202700000Y-61100000I0J-250000D01*
G01*
X202700000Y-61600000D01*
G75*
G02*
X202450000Y-61850000I-250000J0D01*
G01*
X201750000Y-61850000D01*
G75*
G02*
X201500000Y-61600000I0J250000D01*
G01*
X201500000Y-61100000D01*
G75*
G02*
X201750000Y-60850000I250000J0D01*
G01*
G37*
G36*
G01*
X201750000Y-64150000D02*
X202450000Y-64150000D01*
G75*
G02*
X202700000Y-64400000I0J-250000D01*
G01*
X202700000Y-64900000D01*
G75*
G02*
X202450000Y-65150000I-250000J0D01*
G01*
X201750000Y-65150000D01*
G75*
G02*
X201500000Y-64900000I0J250000D01*
G01*
X201500000Y-64400000D01*
G75*
G02*
X201750000Y-64150000I250000J0D01*
G01*
G37*
%TD*%
%TO.C,D37*%
G36*
G01*
X201750000Y-43850000D02*
X202450000Y-43850000D01*
G75*
G02*
X202700000Y-44100000I0J-250000D01*
G01*
X202700000Y-44600000D01*
G75*
G02*
X202450000Y-44850000I-250000J0D01*
G01*
X201750000Y-44850000D01*
G75*
G02*
X201500000Y-44600000I0J250000D01*
G01*
X201500000Y-44100000D01*
G75*
G02*
X201750000Y-43850000I250000J0D01*
G01*
G37*
G36*
G01*
X201750000Y-47150000D02*
X202450000Y-47150000D01*
G75*
G02*
X202700000Y-47400000I0J-250000D01*
G01*
X202700000Y-47900000D01*
G75*
G02*
X202450000Y-48150000I-250000J0D01*
G01*
X201750000Y-48150000D01*
G75*
G02*
X201500000Y-47900000I0J250000D01*
G01*
X201500000Y-47400000D01*
G75*
G02*
X201750000Y-47150000I250000J0D01*
G01*
G37*
%TD*%
%TO.C,D35*%
G36*
G01*
X149650000Y-96850000D02*
X150350000Y-96850000D01*
G75*
G02*
X150600000Y-97100000I0J-250000D01*
G01*
X150600000Y-97600000D01*
G75*
G02*
X150350000Y-97850000I-250000J0D01*
G01*
X149650000Y-97850000D01*
G75*
G02*
X149400000Y-97600000I0J250000D01*
G01*
X149400000Y-97100000D01*
G75*
G02*
X149650000Y-96850000I250000J0D01*
G01*
G37*
G36*
G01*
X149650000Y-100150000D02*
X150350000Y-100150000D01*
G75*
G02*
X150600000Y-100400000I0J-250000D01*
G01*
X150600000Y-100900000D01*
G75*
G02*
X150350000Y-101150000I-250000J0D01*
G01*
X149650000Y-101150000D01*
G75*
G02*
X149400000Y-100900000I0J250000D01*
G01*
X149400000Y-100400000D01*
G75*
G02*
X149650000Y-100150000I250000J0D01*
G01*
G37*
%TD*%
%TO.C,D34*%
G36*
G01*
X183750000Y-77850000D02*
X184450000Y-77850000D01*
G75*
G02*
X184700000Y-78100000I0J-250000D01*
G01*
X184700000Y-78600000D01*
G75*
G02*
X184450000Y-78850000I-250000J0D01*
G01*
X183750000Y-78850000D01*
G75*
G02*
X183500000Y-78600000I0J250000D01*
G01*
X183500000Y-78100000D01*
G75*
G02*
X183750000Y-77850000I250000J0D01*
G01*
G37*
G36*
G01*
X183750000Y-81150000D02*
X184450000Y-81150000D01*
G75*
G02*
X184700000Y-81400000I0J-250000D01*
G01*
X184700000Y-81900000D01*
G75*
G02*
X184450000Y-82150000I-250000J0D01*
G01*
X183750000Y-82150000D01*
G75*
G02*
X183500000Y-81900000I0J250000D01*
G01*
X183500000Y-81400000D01*
G75*
G02*
X183750000Y-81150000I250000J0D01*
G01*
G37*
%TD*%
%TO.C,D33*%
G36*
G01*
X183750000Y-60850000D02*
X184450000Y-60850000D01*
G75*
G02*
X184700000Y-61100000I0J-250000D01*
G01*
X184700000Y-61600000D01*
G75*
G02*
X184450000Y-61850000I-250000J0D01*
G01*
X183750000Y-61850000D01*
G75*
G02*
X183500000Y-61600000I0J250000D01*
G01*
X183500000Y-61100000D01*
G75*
G02*
X183750000Y-60850000I250000J0D01*
G01*
G37*
G36*
G01*
X183750000Y-64150000D02*
X184450000Y-64150000D01*
G75*
G02*
X184700000Y-64400000I0J-250000D01*
G01*
X184700000Y-64900000D01*
G75*
G02*
X184450000Y-65150000I-250000J0D01*
G01*
X183750000Y-65150000D01*
G75*
G02*
X183500000Y-64900000I0J250000D01*
G01*
X183500000Y-64400000D01*
G75*
G02*
X183750000Y-64150000I250000J0D01*
G01*
G37*
%TD*%
%TO.C,D32*%
G36*
G01*
X183750000Y-43850000D02*
X184450000Y-43850000D01*
G75*
G02*
X184700000Y-44100000I0J-250000D01*
G01*
X184700000Y-44600000D01*
G75*
G02*
X184450000Y-44850000I-250000J0D01*
G01*
X183750000Y-44850000D01*
G75*
G02*
X183500000Y-44600000I0J250000D01*
G01*
X183500000Y-44100000D01*
G75*
G02*
X183750000Y-43850000I250000J0D01*
G01*
G37*
G36*
G01*
X183750000Y-47150000D02*
X184450000Y-47150000D01*
G75*
G02*
X184700000Y-47400000I0J-250000D01*
G01*
X184700000Y-47900000D01*
G75*
G02*
X184450000Y-48150000I-250000J0D01*
G01*
X183750000Y-48150000D01*
G75*
G02*
X183500000Y-47900000I0J250000D01*
G01*
X183500000Y-47400000D01*
G75*
G02*
X183750000Y-47150000I250000J0D01*
G01*
G37*
%TD*%
%TO.C,D30*%
G36*
G01*
X147300000Y-96850000D02*
X148000000Y-96850000D01*
G75*
G02*
X148250000Y-97100000I0J-250000D01*
G01*
X148250000Y-97600000D01*
G75*
G02*
X148000000Y-97850000I-250000J0D01*
G01*
X147300000Y-97850000D01*
G75*
G02*
X147050000Y-97600000I0J250000D01*
G01*
X147050000Y-97100000D01*
G75*
G02*
X147300000Y-96850000I250000J0D01*
G01*
G37*
G36*
G01*
X147300000Y-100150000D02*
X148000000Y-100150000D01*
G75*
G02*
X148250000Y-100400000I0J-250000D01*
G01*
X148250000Y-100900000D01*
G75*
G02*
X148000000Y-101150000I-250000J0D01*
G01*
X147300000Y-101150000D01*
G75*
G02*
X147050000Y-100900000I0J250000D01*
G01*
X147050000Y-100400000D01*
G75*
G02*
X147300000Y-100150000I250000J0D01*
G01*
G37*
%TD*%
%TO.C,D29*%
G36*
G01*
X129750000Y-77850000D02*
X130450000Y-77850000D01*
G75*
G02*
X130700000Y-78100000I0J-250000D01*
G01*
X130700000Y-78600000D01*
G75*
G02*
X130450000Y-78850000I-250000J0D01*
G01*
X129750000Y-78850000D01*
G75*
G02*
X129500000Y-78600000I0J250000D01*
G01*
X129500000Y-78100000D01*
G75*
G02*
X129750000Y-77850000I250000J0D01*
G01*
G37*
G36*
G01*
X129750000Y-81150000D02*
X130450000Y-81150000D01*
G75*
G02*
X130700000Y-81400000I0J-250000D01*
G01*
X130700000Y-81900000D01*
G75*
G02*
X130450000Y-82150000I-250000J0D01*
G01*
X129750000Y-82150000D01*
G75*
G02*
X129500000Y-81900000I0J250000D01*
G01*
X129500000Y-81400000D01*
G75*
G02*
X129750000Y-81150000I250000J0D01*
G01*
G37*
%TD*%
%TO.C,D28*%
G36*
G01*
X129750000Y-60850000D02*
X130450000Y-60850000D01*
G75*
G02*
X130700000Y-61100000I0J-250000D01*
G01*
X130700000Y-61600000D01*
G75*
G02*
X130450000Y-61850000I-250000J0D01*
G01*
X129750000Y-61850000D01*
G75*
G02*
X129500000Y-61600000I0J250000D01*
G01*
X129500000Y-61100000D01*
G75*
G02*
X129750000Y-60850000I250000J0D01*
G01*
G37*
G36*
G01*
X129750000Y-64150000D02*
X130450000Y-64150000D01*
G75*
G02*
X130700000Y-64400000I0J-250000D01*
G01*
X130700000Y-64900000D01*
G75*
G02*
X130450000Y-65150000I-250000J0D01*
G01*
X129750000Y-65150000D01*
G75*
G02*
X129500000Y-64900000I0J250000D01*
G01*
X129500000Y-64400000D01*
G75*
G02*
X129750000Y-64150000I250000J0D01*
G01*
G37*
%TD*%
%TO.C,D25*%
G36*
G01*
X129300000Y-96850000D02*
X130000000Y-96850000D01*
G75*
G02*
X130250000Y-97100000I0J-250000D01*
G01*
X130250000Y-97600000D01*
G75*
G02*
X130000000Y-97850000I-250000J0D01*
G01*
X129300000Y-97850000D01*
G75*
G02*
X129050000Y-97600000I0J250000D01*
G01*
X129050000Y-97100000D01*
G75*
G02*
X129300000Y-96850000I250000J0D01*
G01*
G37*
G36*
G01*
X129300000Y-100150000D02*
X130000000Y-100150000D01*
G75*
G02*
X130250000Y-100400000I0J-250000D01*
G01*
X130250000Y-100900000D01*
G75*
G02*
X130000000Y-101150000I-250000J0D01*
G01*
X129300000Y-101150000D01*
G75*
G02*
X129050000Y-100900000I0J250000D01*
G01*
X129050000Y-100400000D01*
G75*
G02*
X129300000Y-100150000I250000J0D01*
G01*
G37*
%TD*%
%TO.C,D24*%
G36*
G01*
X111750000Y-77850000D02*
X112450000Y-77850000D01*
G75*
G02*
X112700000Y-78100000I0J-250000D01*
G01*
X112700000Y-78600000D01*
G75*
G02*
X112450000Y-78850000I-250000J0D01*
G01*
X111750000Y-78850000D01*
G75*
G02*
X111500000Y-78600000I0J250000D01*
G01*
X111500000Y-78100000D01*
G75*
G02*
X111750000Y-77850000I250000J0D01*
G01*
G37*
G36*
G01*
X111750000Y-81150000D02*
X112450000Y-81150000D01*
G75*
G02*
X112700000Y-81400000I0J-250000D01*
G01*
X112700000Y-81900000D01*
G75*
G02*
X112450000Y-82150000I-250000J0D01*
G01*
X111750000Y-82150000D01*
G75*
G02*
X111500000Y-81900000I0J250000D01*
G01*
X111500000Y-81400000D01*
G75*
G02*
X111750000Y-81150000I250000J0D01*
G01*
G37*
%TD*%
%TO.C,D23*%
G36*
G01*
X111750000Y-60850000D02*
X112450000Y-60850000D01*
G75*
G02*
X112700000Y-61100000I0J-250000D01*
G01*
X112700000Y-61600000D01*
G75*
G02*
X112450000Y-61850000I-250000J0D01*
G01*
X111750000Y-61850000D01*
G75*
G02*
X111500000Y-61600000I0J250000D01*
G01*
X111500000Y-61100000D01*
G75*
G02*
X111750000Y-60850000I250000J0D01*
G01*
G37*
G36*
G01*
X111750000Y-64150000D02*
X112450000Y-64150000D01*
G75*
G02*
X112700000Y-64400000I0J-250000D01*
G01*
X112700000Y-64900000D01*
G75*
G02*
X112450000Y-65150000I-250000J0D01*
G01*
X111750000Y-65150000D01*
G75*
G02*
X111500000Y-64900000I0J250000D01*
G01*
X111500000Y-64400000D01*
G75*
G02*
X111750000Y-64150000I250000J0D01*
G01*
G37*
%TD*%
%TO.C,D22*%
G36*
G01*
X111750000Y-43850000D02*
X112450000Y-43850000D01*
G75*
G02*
X112700000Y-44100000I0J-250000D01*
G01*
X112700000Y-44600000D01*
G75*
G02*
X112450000Y-44850000I-250000J0D01*
G01*
X111750000Y-44850000D01*
G75*
G02*
X111500000Y-44600000I0J250000D01*
G01*
X111500000Y-44100000D01*
G75*
G02*
X111750000Y-43850000I250000J0D01*
G01*
G37*
G36*
G01*
X111750000Y-47150000D02*
X112450000Y-47150000D01*
G75*
G02*
X112700000Y-47400000I0J-250000D01*
G01*
X112700000Y-47900000D01*
G75*
G02*
X112450000Y-48150000I-250000J0D01*
G01*
X111750000Y-48150000D01*
G75*
G02*
X111500000Y-47900000I0J250000D01*
G01*
X111500000Y-47400000D01*
G75*
G02*
X111750000Y-47150000I250000J0D01*
G01*
G37*
%TD*%
%TO.C,D20*%
G36*
G01*
X111300000Y-96850000D02*
X112000000Y-96850000D01*
G75*
G02*
X112250000Y-97100000I0J-250000D01*
G01*
X112250000Y-97600000D01*
G75*
G02*
X112000000Y-97850000I-250000J0D01*
G01*
X111300000Y-97850000D01*
G75*
G02*
X111050000Y-97600000I0J250000D01*
G01*
X111050000Y-97100000D01*
G75*
G02*
X111300000Y-96850000I250000J0D01*
G01*
G37*
G36*
G01*
X111300000Y-100150000D02*
X112000000Y-100150000D01*
G75*
G02*
X112250000Y-100400000I0J-250000D01*
G01*
X112250000Y-100900000D01*
G75*
G02*
X112000000Y-101150000I-250000J0D01*
G01*
X111300000Y-101150000D01*
G75*
G02*
X111050000Y-100900000I0J250000D01*
G01*
X111050000Y-100400000D01*
G75*
G02*
X111300000Y-100150000I250000J0D01*
G01*
G37*
%TD*%
%TO.C,D19*%
G36*
G01*
X93750000Y-77850000D02*
X94450000Y-77850000D01*
G75*
G02*
X94700000Y-78100000I0J-250000D01*
G01*
X94700000Y-78600000D01*
G75*
G02*
X94450000Y-78850000I-250000J0D01*
G01*
X93750000Y-78850000D01*
G75*
G02*
X93500000Y-78600000I0J250000D01*
G01*
X93500000Y-78100000D01*
G75*
G02*
X93750000Y-77850000I250000J0D01*
G01*
G37*
G36*
G01*
X93750000Y-81150000D02*
X94450000Y-81150000D01*
G75*
G02*
X94700000Y-81400000I0J-250000D01*
G01*
X94700000Y-81900000D01*
G75*
G02*
X94450000Y-82150000I-250000J0D01*
G01*
X93750000Y-82150000D01*
G75*
G02*
X93500000Y-81900000I0J250000D01*
G01*
X93500000Y-81400000D01*
G75*
G02*
X93750000Y-81150000I250000J0D01*
G01*
G37*
%TD*%
%TO.C,D18*%
G36*
G01*
X93750000Y-60850000D02*
X94450000Y-60850000D01*
G75*
G02*
X94700000Y-61100000I0J-250000D01*
G01*
X94700000Y-61600000D01*
G75*
G02*
X94450000Y-61850000I-250000J0D01*
G01*
X93750000Y-61850000D01*
G75*
G02*
X93500000Y-61600000I0J250000D01*
G01*
X93500000Y-61100000D01*
G75*
G02*
X93750000Y-60850000I250000J0D01*
G01*
G37*
G36*
G01*
X93750000Y-64150000D02*
X94450000Y-64150000D01*
G75*
G02*
X94700000Y-64400000I0J-250000D01*
G01*
X94700000Y-64900000D01*
G75*
G02*
X94450000Y-65150000I-250000J0D01*
G01*
X93750000Y-65150000D01*
G75*
G02*
X93500000Y-64900000I0J250000D01*
G01*
X93500000Y-64400000D01*
G75*
G02*
X93750000Y-64150000I250000J0D01*
G01*
G37*
%TD*%
%TO.C,D17*%
G36*
G01*
X93750000Y-43850000D02*
X94450000Y-43850000D01*
G75*
G02*
X94700000Y-44100000I0J-250000D01*
G01*
X94700000Y-44600000D01*
G75*
G02*
X94450000Y-44850000I-250000J0D01*
G01*
X93750000Y-44850000D01*
G75*
G02*
X93500000Y-44600000I0J250000D01*
G01*
X93500000Y-44100000D01*
G75*
G02*
X93750000Y-43850000I250000J0D01*
G01*
G37*
G36*
G01*
X93750000Y-47150000D02*
X94450000Y-47150000D01*
G75*
G02*
X94700000Y-47400000I0J-250000D01*
G01*
X94700000Y-47900000D01*
G75*
G02*
X94450000Y-48150000I-250000J0D01*
G01*
X93750000Y-48150000D01*
G75*
G02*
X93500000Y-47900000I0J250000D01*
G01*
X93500000Y-47400000D01*
G75*
G02*
X93750000Y-47150000I250000J0D01*
G01*
G37*
%TD*%
%TO.C,D15*%
G36*
G01*
X93300000Y-96850000D02*
X94000000Y-96850000D01*
G75*
G02*
X94250000Y-97100000I0J-250000D01*
G01*
X94250000Y-97600000D01*
G75*
G02*
X94000000Y-97850000I-250000J0D01*
G01*
X93300000Y-97850000D01*
G75*
G02*
X93050000Y-97600000I0J250000D01*
G01*
X93050000Y-97100000D01*
G75*
G02*
X93300000Y-96850000I250000J0D01*
G01*
G37*
G36*
G01*
X93300000Y-100150000D02*
X94000000Y-100150000D01*
G75*
G02*
X94250000Y-100400000I0J-250000D01*
G01*
X94250000Y-100900000D01*
G75*
G02*
X94000000Y-101150000I-250000J0D01*
G01*
X93300000Y-101150000D01*
G75*
G02*
X93050000Y-100900000I0J250000D01*
G01*
X93050000Y-100400000D01*
G75*
G02*
X93300000Y-100150000I250000J0D01*
G01*
G37*
%TD*%
%TO.C,D14*%
G36*
G01*
X75750000Y-77850000D02*
X76450000Y-77850000D01*
G75*
G02*
X76700000Y-78100000I0J-250000D01*
G01*
X76700000Y-78600000D01*
G75*
G02*
X76450000Y-78850000I-250000J0D01*
G01*
X75750000Y-78850000D01*
G75*
G02*
X75500000Y-78600000I0J250000D01*
G01*
X75500000Y-78100000D01*
G75*
G02*
X75750000Y-77850000I250000J0D01*
G01*
G37*
G36*
G01*
X75750000Y-81150000D02*
X76450000Y-81150000D01*
G75*
G02*
X76700000Y-81400000I0J-250000D01*
G01*
X76700000Y-81900000D01*
G75*
G02*
X76450000Y-82150000I-250000J0D01*
G01*
X75750000Y-82150000D01*
G75*
G02*
X75500000Y-81900000I0J250000D01*
G01*
X75500000Y-81400000D01*
G75*
G02*
X75750000Y-81150000I250000J0D01*
G01*
G37*
%TD*%
%TO.C,D13*%
G36*
G01*
X75750000Y-60850000D02*
X76450000Y-60850000D01*
G75*
G02*
X76700000Y-61100000I0J-250000D01*
G01*
X76700000Y-61600000D01*
G75*
G02*
X76450000Y-61850000I-250000J0D01*
G01*
X75750000Y-61850000D01*
G75*
G02*
X75500000Y-61600000I0J250000D01*
G01*
X75500000Y-61100000D01*
G75*
G02*
X75750000Y-60850000I250000J0D01*
G01*
G37*
G36*
G01*
X75750000Y-64150000D02*
X76450000Y-64150000D01*
G75*
G02*
X76700000Y-64400000I0J-250000D01*
G01*
X76700000Y-64900000D01*
G75*
G02*
X76450000Y-65150000I-250000J0D01*
G01*
X75750000Y-65150000D01*
G75*
G02*
X75500000Y-64900000I0J250000D01*
G01*
X75500000Y-64400000D01*
G75*
G02*
X75750000Y-64150000I250000J0D01*
G01*
G37*
%TD*%
%TO.C,D12*%
G36*
G01*
X75750000Y-43850000D02*
X76450000Y-43850000D01*
G75*
G02*
X76700000Y-44100000I0J-250000D01*
G01*
X76700000Y-44600000D01*
G75*
G02*
X76450000Y-44850000I-250000J0D01*
G01*
X75750000Y-44850000D01*
G75*
G02*
X75500000Y-44600000I0J250000D01*
G01*
X75500000Y-44100000D01*
G75*
G02*
X75750000Y-43850000I250000J0D01*
G01*
G37*
G36*
G01*
X75750000Y-47150000D02*
X76450000Y-47150000D01*
G75*
G02*
X76700000Y-47400000I0J-250000D01*
G01*
X76700000Y-47900000D01*
G75*
G02*
X76450000Y-48150000I-250000J0D01*
G01*
X75750000Y-48150000D01*
G75*
G02*
X75500000Y-47900000I0J250000D01*
G01*
X75500000Y-47400000D01*
G75*
G02*
X75750000Y-47150000I250000J0D01*
G01*
G37*
%TD*%
%TO.C,D10*%
G36*
G01*
X75300000Y-96850000D02*
X76000000Y-96850000D01*
G75*
G02*
X76250000Y-97100000I0J-250000D01*
G01*
X76250000Y-97600000D01*
G75*
G02*
X76000000Y-97850000I-250000J0D01*
G01*
X75300000Y-97850000D01*
G75*
G02*
X75050000Y-97600000I0J250000D01*
G01*
X75050000Y-97100000D01*
G75*
G02*
X75300000Y-96850000I250000J0D01*
G01*
G37*
G36*
G01*
X75300000Y-100150000D02*
X76000000Y-100150000D01*
G75*
G02*
X76250000Y-100400000I0J-250000D01*
G01*
X76250000Y-100900000D01*
G75*
G02*
X76000000Y-101150000I-250000J0D01*
G01*
X75300000Y-101150000D01*
G75*
G02*
X75050000Y-100900000I0J250000D01*
G01*
X75050000Y-100400000D01*
G75*
G02*
X75300000Y-100150000I250000J0D01*
G01*
G37*
%TD*%
%TO.C,D9*%
G36*
G01*
X57750000Y-77850000D02*
X58450000Y-77850000D01*
G75*
G02*
X58700000Y-78100000I0J-250000D01*
G01*
X58700000Y-78600000D01*
G75*
G02*
X58450000Y-78850000I-250000J0D01*
G01*
X57750000Y-78850000D01*
G75*
G02*
X57500000Y-78600000I0J250000D01*
G01*
X57500000Y-78100000D01*
G75*
G02*
X57750000Y-77850000I250000J0D01*
G01*
G37*
G36*
G01*
X57750000Y-81150000D02*
X58450000Y-81150000D01*
G75*
G02*
X58700000Y-81400000I0J-250000D01*
G01*
X58700000Y-81900000D01*
G75*
G02*
X58450000Y-82150000I-250000J0D01*
G01*
X57750000Y-82150000D01*
G75*
G02*
X57500000Y-81900000I0J250000D01*
G01*
X57500000Y-81400000D01*
G75*
G02*
X57750000Y-81150000I250000J0D01*
G01*
G37*
%TD*%
%TO.C,D8*%
G36*
G01*
X57750000Y-60850000D02*
X58450000Y-60850000D01*
G75*
G02*
X58700000Y-61100000I0J-250000D01*
G01*
X58700000Y-61600000D01*
G75*
G02*
X58450000Y-61850000I-250000J0D01*
G01*
X57750000Y-61850000D01*
G75*
G02*
X57500000Y-61600000I0J250000D01*
G01*
X57500000Y-61100000D01*
G75*
G02*
X57750000Y-60850000I250000J0D01*
G01*
G37*
G36*
G01*
X57750000Y-64150000D02*
X58450000Y-64150000D01*
G75*
G02*
X58700000Y-64400000I0J-250000D01*
G01*
X58700000Y-64900000D01*
G75*
G02*
X58450000Y-65150000I-250000J0D01*
G01*
X57750000Y-65150000D01*
G75*
G02*
X57500000Y-64900000I0J250000D01*
G01*
X57500000Y-64400000D01*
G75*
G02*
X57750000Y-64150000I250000J0D01*
G01*
G37*
%TD*%
%TO.C,D7*%
G36*
G01*
X57750000Y-43850000D02*
X58450000Y-43850000D01*
G75*
G02*
X58700000Y-44100000I0J-250000D01*
G01*
X58700000Y-44600000D01*
G75*
G02*
X58450000Y-44850000I-250000J0D01*
G01*
X57750000Y-44850000D01*
G75*
G02*
X57500000Y-44600000I0J250000D01*
G01*
X57500000Y-44100000D01*
G75*
G02*
X57750000Y-43850000I250000J0D01*
G01*
G37*
G36*
G01*
X57750000Y-47150000D02*
X58450000Y-47150000D01*
G75*
G02*
X58700000Y-47400000I0J-250000D01*
G01*
X58700000Y-47900000D01*
G75*
G02*
X58450000Y-48150000I-250000J0D01*
G01*
X57750000Y-48150000D01*
G75*
G02*
X57500000Y-47900000I0J250000D01*
G01*
X57500000Y-47400000D01*
G75*
G02*
X57750000Y-47150000I250000J0D01*
G01*
G37*
%TD*%
%TO.C,D5*%
G36*
G01*
X57300000Y-96850000D02*
X58000000Y-96850000D01*
G75*
G02*
X58250000Y-97100000I0J-250000D01*
G01*
X58250000Y-97600000D01*
G75*
G02*
X58000000Y-97850000I-250000J0D01*
G01*
X57300000Y-97850000D01*
G75*
G02*
X57050000Y-97600000I0J250000D01*
G01*
X57050000Y-97100000D01*
G75*
G02*
X57300000Y-96850000I250000J0D01*
G01*
G37*
G36*
G01*
X57300000Y-100150000D02*
X58000000Y-100150000D01*
G75*
G02*
X58250000Y-100400000I0J-250000D01*
G01*
X58250000Y-100900000D01*
G75*
G02*
X58000000Y-101150000I-250000J0D01*
G01*
X57300000Y-101150000D01*
G75*
G02*
X57050000Y-100900000I0J250000D01*
G01*
X57050000Y-100400000D01*
G75*
G02*
X57300000Y-100150000I250000J0D01*
G01*
G37*
%TD*%
%TO.C,D4*%
G36*
G01*
X37750000Y-77850000D02*
X38450000Y-77850000D01*
G75*
G02*
X38700000Y-78100000I0J-250000D01*
G01*
X38700000Y-78600000D01*
G75*
G02*
X38450000Y-78850000I-250000J0D01*
G01*
X37750000Y-78850000D01*
G75*
G02*
X37500000Y-78600000I0J250000D01*
G01*
X37500000Y-78100000D01*
G75*
G02*
X37750000Y-77850000I250000J0D01*
G01*
G37*
G36*
G01*
X37750000Y-81150000D02*
X38450000Y-81150000D01*
G75*
G02*
X38700000Y-81400000I0J-250000D01*
G01*
X38700000Y-81900000D01*
G75*
G02*
X38450000Y-82150000I-250000J0D01*
G01*
X37750000Y-82150000D01*
G75*
G02*
X37500000Y-81900000I0J250000D01*
G01*
X37500000Y-81400000D01*
G75*
G02*
X37750000Y-81150000I250000J0D01*
G01*
G37*
%TD*%
%TO.C,D3*%
G36*
G01*
X37750000Y-60850000D02*
X38450000Y-60850000D01*
G75*
G02*
X38700000Y-61100000I0J-250000D01*
G01*
X38700000Y-61600000D01*
G75*
G02*
X38450000Y-61850000I-250000J0D01*
G01*
X37750000Y-61850000D01*
G75*
G02*
X37500000Y-61600000I0J250000D01*
G01*
X37500000Y-61100000D01*
G75*
G02*
X37750000Y-60850000I250000J0D01*
G01*
G37*
G36*
G01*
X37750000Y-64150000D02*
X38450000Y-64150000D01*
G75*
G02*
X38700000Y-64400000I0J-250000D01*
G01*
X38700000Y-64900000D01*
G75*
G02*
X38450000Y-65150000I-250000J0D01*
G01*
X37750000Y-65150000D01*
G75*
G02*
X37500000Y-64900000I0J250000D01*
G01*
X37500000Y-64400000D01*
G75*
G02*
X37750000Y-64150000I250000J0D01*
G01*
G37*
%TD*%
%TO.C,D2*%
G36*
G01*
X37750000Y-43850000D02*
X38450000Y-43850000D01*
G75*
G02*
X38700000Y-44100000I0J-250000D01*
G01*
X38700000Y-44600000D01*
G75*
G02*
X38450000Y-44850000I-250000J0D01*
G01*
X37750000Y-44850000D01*
G75*
G02*
X37500000Y-44600000I0J250000D01*
G01*
X37500000Y-44100000D01*
G75*
G02*
X37750000Y-43850000I250000J0D01*
G01*
G37*
G36*
G01*
X37750000Y-47150000D02*
X38450000Y-47150000D01*
G75*
G02*
X38700000Y-47400000I0J-250000D01*
G01*
X38700000Y-47900000D01*
G75*
G02*
X38450000Y-48150000I-250000J0D01*
G01*
X37750000Y-48150000D01*
G75*
G02*
X37500000Y-47900000I0J250000D01*
G01*
X37500000Y-47400000D01*
G75*
G02*
X37750000Y-47150000I250000J0D01*
G01*
G37*
%TD*%
D25*
%TO.C,MX60*%
X242500000Y-100000000D03*
X253500000Y-100000000D03*
D26*
X251275000Y-105950000D03*
D27*
X243000000Y-103750000D03*
D28*
X248000000Y-100000000D03*
D27*
X248000000Y-105950000D03*
D26*
X239725000Y-103750000D03*
D29*
X253220000Y-95800000D03*
%TD*%
D25*
%TO.C,MX59*%
X262500000Y-81000000D03*
X273500000Y-81000000D03*
D26*
X271275000Y-86950000D03*
D27*
X263000000Y-84750000D03*
D28*
X268000000Y-81000000D03*
D27*
X268000000Y-86950000D03*
D26*
X259725000Y-84750000D03*
D29*
X273220000Y-76800000D03*
%TD*%
D25*
%TO.C,MX58*%
X262500000Y-64000000D03*
X273500000Y-64000000D03*
D26*
X271275000Y-69950000D03*
D27*
X263000000Y-67750000D03*
D28*
X268000000Y-64000000D03*
D27*
X268000000Y-69950000D03*
D26*
X259725000Y-67750000D03*
D29*
X273220000Y-59800000D03*
%TD*%
D25*
%TO.C,MX57*%
X262500000Y-47000000D03*
X273500000Y-47000000D03*
D26*
X271275000Y-52950000D03*
D27*
X263000000Y-50750000D03*
D28*
X268000000Y-47000000D03*
D27*
X268000000Y-52950000D03*
D26*
X259725000Y-50750000D03*
D29*
X273220000Y-42800000D03*
%TD*%
D25*
%TO.C,MX55*%
X224500000Y-100000000D03*
X235500000Y-100000000D03*
D26*
X233275000Y-105950000D03*
D27*
X225000000Y-103750000D03*
D28*
X230000000Y-100000000D03*
D27*
X230000000Y-105950000D03*
D26*
X221725000Y-103750000D03*
D29*
X235220000Y-95800000D03*
%TD*%
D25*
%TO.C,MX54*%
X242500000Y-81000000D03*
X253500000Y-81000000D03*
D26*
X251275000Y-86950000D03*
D27*
X243000000Y-84750000D03*
D28*
X248000000Y-81000000D03*
D27*
X248000000Y-86950000D03*
D26*
X239725000Y-84750000D03*
D29*
X253220000Y-76800000D03*
%TD*%
D25*
%TO.C,MX53*%
X242500000Y-64000000D03*
X253500000Y-64000000D03*
D26*
X251275000Y-69950000D03*
D27*
X243000000Y-67750000D03*
D28*
X248000000Y-64000000D03*
D27*
X248000000Y-69950000D03*
D26*
X239725000Y-67750000D03*
D29*
X253220000Y-59800000D03*
%TD*%
D25*
%TO.C,MX52*%
X242500000Y-47000000D03*
X253500000Y-47000000D03*
D26*
X251275000Y-52950000D03*
D27*
X243000000Y-50750000D03*
D28*
X248000000Y-47000000D03*
D27*
X248000000Y-52950000D03*
D26*
X239725000Y-50750000D03*
D29*
X253220000Y-42800000D03*
%TD*%
D25*
%TO.C,MX50*%
X206500000Y-100000000D03*
X217500000Y-100000000D03*
D26*
X215275000Y-105950000D03*
D27*
X207000000Y-103750000D03*
D28*
X212000000Y-100000000D03*
D27*
X212000000Y-105950000D03*
D26*
X203725000Y-103750000D03*
D29*
X217220000Y-95800000D03*
%TD*%
D25*
%TO.C,MX49*%
X224500000Y-81000000D03*
X235500000Y-81000000D03*
D26*
X233275000Y-86950000D03*
D27*
X225000000Y-84750000D03*
D28*
X230000000Y-81000000D03*
D27*
X230000000Y-86950000D03*
D26*
X221725000Y-84750000D03*
D29*
X235220000Y-76800000D03*
%TD*%
D25*
%TO.C,MX48*%
X224500000Y-64000000D03*
X235500000Y-64000000D03*
D26*
X233275000Y-69950000D03*
D27*
X225000000Y-67750000D03*
D28*
X230000000Y-64000000D03*
D27*
X230000000Y-69950000D03*
D26*
X221725000Y-67750000D03*
D29*
X235220000Y-59800000D03*
%TD*%
D25*
%TO.C,MX47*%
X224500000Y-47000000D03*
X235500000Y-47000000D03*
D26*
X233275000Y-52950000D03*
D27*
X225000000Y-50750000D03*
D28*
X230000000Y-47000000D03*
D27*
X230000000Y-52950000D03*
D26*
X221725000Y-50750000D03*
D29*
X235220000Y-42800000D03*
%TD*%
D25*
%TO.C,MX45*%
X188500000Y-100000000D03*
X199500000Y-100000000D03*
D26*
X197275000Y-105950000D03*
D27*
X189000000Y-103750000D03*
D28*
X194000000Y-100000000D03*
D27*
X194000000Y-105950000D03*
D26*
X185725000Y-103750000D03*
D29*
X199220000Y-95800000D03*
%TD*%
D25*
%TO.C,MX44*%
X206500000Y-81000000D03*
X217500000Y-81000000D03*
D26*
X215275000Y-86950000D03*
D27*
X207000000Y-84750000D03*
D28*
X212000000Y-81000000D03*
D27*
X212000000Y-86950000D03*
D26*
X203725000Y-84750000D03*
D29*
X217220000Y-76800000D03*
%TD*%
D25*
%TO.C,MX43*%
X206500000Y-64000000D03*
X217500000Y-64000000D03*
D26*
X215275000Y-69950000D03*
D27*
X207000000Y-67750000D03*
D28*
X212000000Y-64000000D03*
D27*
X212000000Y-69950000D03*
D26*
X203725000Y-67750000D03*
D29*
X217220000Y-59800000D03*
%TD*%
D25*
%TO.C,MX42*%
X206500000Y-47000000D03*
X217500000Y-47000000D03*
D26*
X215275000Y-52950000D03*
D27*
X207000000Y-50750000D03*
D28*
X212000000Y-47000000D03*
D27*
X212000000Y-52950000D03*
D26*
X203725000Y-50750000D03*
D29*
X217220000Y-42800000D03*
%TD*%
D25*
%TO.C,MX40*%
X170500000Y-100000000D03*
X181500000Y-100000000D03*
D26*
X179275000Y-105950000D03*
D27*
X171000000Y-103750000D03*
D28*
X176000000Y-100000000D03*
D27*
X176000000Y-105950000D03*
D26*
X167725000Y-103750000D03*
D29*
X181220000Y-95800000D03*
%TD*%
D25*
%TO.C,MX39*%
X188500000Y-81000000D03*
X199500000Y-81000000D03*
D26*
X197275000Y-86950000D03*
D27*
X189000000Y-84750000D03*
D28*
X194000000Y-81000000D03*
D27*
X194000000Y-86950000D03*
D26*
X185725000Y-84750000D03*
D29*
X199220000Y-76800000D03*
%TD*%
D25*
%TO.C,MX38*%
X188500000Y-64000000D03*
X199500000Y-64000000D03*
D26*
X197275000Y-69950000D03*
D27*
X189000000Y-67750000D03*
D28*
X194000000Y-64000000D03*
D27*
X194000000Y-69950000D03*
D26*
X185725000Y-67750000D03*
D29*
X199220000Y-59800000D03*
%TD*%
D25*
%TO.C,MX37*%
X188500000Y-47000000D03*
X199500000Y-47000000D03*
D26*
X197275000Y-52950000D03*
D27*
X189000000Y-50750000D03*
D28*
X194000000Y-47000000D03*
D27*
X194000000Y-52950000D03*
D26*
X185725000Y-50750000D03*
D29*
X199220000Y-42800000D03*
%TD*%
D25*
%TO.C,MX35*%
X152500000Y-100000000D03*
X163500000Y-100000000D03*
D26*
X161275000Y-105950000D03*
D27*
X153000000Y-103750000D03*
D28*
X158000000Y-100000000D03*
D27*
X158000000Y-105950000D03*
D26*
X149725000Y-103750000D03*
D29*
X163220000Y-95800000D03*
%TD*%
D25*
%TO.C,MX34*%
X170500000Y-81000000D03*
X181500000Y-81000000D03*
D26*
X179275000Y-86950000D03*
D27*
X171000000Y-84750000D03*
D28*
X176000000Y-81000000D03*
D27*
X176000000Y-86950000D03*
D26*
X167725000Y-84750000D03*
D29*
X181220000Y-76800000D03*
%TD*%
D25*
%TO.C,MX33*%
X170500000Y-64000000D03*
X181500000Y-64000000D03*
D26*
X179275000Y-69950000D03*
D27*
X171000000Y-67750000D03*
D28*
X176000000Y-64000000D03*
D27*
X176000000Y-69950000D03*
D26*
X167725000Y-67750000D03*
D29*
X181220000Y-59800000D03*
%TD*%
D25*
%TO.C,MX32*%
X170500000Y-47000000D03*
X181500000Y-47000000D03*
D26*
X179275000Y-52950000D03*
D27*
X171000000Y-50750000D03*
D28*
X176000000Y-47000000D03*
D27*
X176000000Y-52950000D03*
D26*
X167725000Y-50750000D03*
D29*
X181220000Y-42800000D03*
%TD*%
D25*
%TO.C,MX30*%
X134500000Y-100000000D03*
X145500000Y-100000000D03*
D26*
X143275000Y-105950000D03*
D27*
X135000000Y-103750000D03*
D28*
X140000000Y-100000000D03*
D27*
X140000000Y-105950000D03*
D26*
X131725000Y-103750000D03*
D29*
X145220000Y-95800000D03*
%TD*%
D25*
%TO.C,MX29*%
X116500000Y-81000000D03*
X127500000Y-81000000D03*
D26*
X125275000Y-86950000D03*
D27*
X117000000Y-84750000D03*
D28*
X122000000Y-81000000D03*
D27*
X122000000Y-86950000D03*
D26*
X113725000Y-84750000D03*
D29*
X127220000Y-76800000D03*
%TD*%
D25*
%TO.C,MX28*%
X116500000Y-64000000D03*
X127500000Y-64000000D03*
D26*
X125275000Y-69950000D03*
D27*
X117000000Y-67750000D03*
D28*
X122000000Y-64000000D03*
D27*
X122000000Y-69950000D03*
D26*
X113725000Y-67750000D03*
D29*
X127220000Y-59800000D03*
%TD*%
D25*
%TO.C,MX27*%
X116500000Y-47000000D03*
X127500000Y-47000000D03*
D26*
X125275000Y-52950000D03*
D27*
X117000000Y-50750000D03*
D28*
X122000000Y-47000000D03*
D27*
X122000000Y-52950000D03*
D26*
X113725000Y-50750000D03*
D29*
X127220000Y-42800000D03*
%TD*%
D25*
%TO.C,MX25*%
X116500000Y-100000000D03*
X127500000Y-100000000D03*
D26*
X125275000Y-105950000D03*
D27*
X117000000Y-103750000D03*
D28*
X122000000Y-100000000D03*
D27*
X122000000Y-105950000D03*
D26*
X113725000Y-103750000D03*
D29*
X127220000Y-95800000D03*
%TD*%
D25*
%TO.C,MX24*%
X98500000Y-81000000D03*
X109500000Y-81000000D03*
D26*
X107275000Y-86950000D03*
D27*
X99000000Y-84750000D03*
D28*
X104000000Y-81000000D03*
D27*
X104000000Y-86950000D03*
D26*
X95725000Y-84750000D03*
D29*
X109220000Y-76800000D03*
%TD*%
D25*
%TO.C,MX23*%
X98500000Y-64000000D03*
X109500000Y-64000000D03*
D26*
X107275000Y-69950000D03*
D27*
X99000000Y-67750000D03*
D28*
X104000000Y-64000000D03*
D27*
X104000000Y-69950000D03*
D26*
X95725000Y-67750000D03*
D29*
X109220000Y-59800000D03*
%TD*%
D25*
%TO.C,MX22*%
X98500000Y-47000000D03*
X109500000Y-47000000D03*
D26*
X107275000Y-52950000D03*
D27*
X99000000Y-50750000D03*
D28*
X104000000Y-47000000D03*
D27*
X104000000Y-52950000D03*
D26*
X95725000Y-50750000D03*
D29*
X109220000Y-42800000D03*
%TD*%
D25*
%TO.C,MX20*%
X98500000Y-100000000D03*
X109500000Y-100000000D03*
D26*
X107275000Y-105950000D03*
D27*
X99000000Y-103750000D03*
D28*
X104000000Y-100000000D03*
D27*
X104000000Y-105950000D03*
D26*
X95725000Y-103750000D03*
D29*
X109220000Y-95800000D03*
%TD*%
D25*
%TO.C,MX19*%
X80500000Y-81000000D03*
X91500000Y-81000000D03*
D26*
X89275000Y-86950000D03*
D27*
X81000000Y-84750000D03*
D28*
X86000000Y-81000000D03*
D27*
X86000000Y-86950000D03*
D26*
X77725000Y-84750000D03*
D29*
X91220000Y-76800000D03*
%TD*%
D25*
%TO.C,MX18*%
X80500000Y-64000000D03*
X91500000Y-64000000D03*
D26*
X89275000Y-69950000D03*
D27*
X81000000Y-67750000D03*
D28*
X86000000Y-64000000D03*
D27*
X86000000Y-69950000D03*
D26*
X77725000Y-67750000D03*
D29*
X91220000Y-59800000D03*
%TD*%
D25*
%TO.C,MX17*%
X80500000Y-47000000D03*
X91500000Y-47000000D03*
D26*
X89275000Y-52950000D03*
D27*
X81000000Y-50750000D03*
D28*
X86000000Y-47000000D03*
D27*
X86000000Y-52950000D03*
D26*
X77725000Y-50750000D03*
D29*
X91220000Y-42800000D03*
%TD*%
D25*
%TO.C,MX15*%
X80500000Y-100000000D03*
X91500000Y-100000000D03*
D26*
X89275000Y-105950000D03*
D27*
X81000000Y-103750000D03*
D28*
X86000000Y-100000000D03*
D27*
X86000000Y-105950000D03*
D26*
X77725000Y-103750000D03*
D29*
X91220000Y-95800000D03*
%TD*%
D25*
%TO.C,MX14*%
X62500000Y-81000000D03*
X73500000Y-81000000D03*
D26*
X71275000Y-86950000D03*
D27*
X63000000Y-84750000D03*
D28*
X68000000Y-81000000D03*
D27*
X68000000Y-86950000D03*
D26*
X59725000Y-84750000D03*
D29*
X73220000Y-76800000D03*
%TD*%
D25*
%TO.C,MX13*%
X62500000Y-64000000D03*
X73500000Y-64000000D03*
D26*
X71275000Y-69950000D03*
D27*
X63000000Y-67750000D03*
D28*
X68000000Y-64000000D03*
D27*
X68000000Y-69950000D03*
D26*
X59725000Y-67750000D03*
D29*
X73220000Y-59800000D03*
%TD*%
D25*
%TO.C,MX12*%
X62500000Y-47000000D03*
X73500000Y-47000000D03*
D26*
X71275000Y-52950000D03*
D27*
X63000000Y-50750000D03*
D28*
X68000000Y-47000000D03*
D27*
X68000000Y-52950000D03*
D26*
X59725000Y-50750000D03*
D29*
X73220000Y-42800000D03*
%TD*%
D25*
%TO.C,MX10*%
X62500000Y-100000000D03*
X73500000Y-100000000D03*
D26*
X71275000Y-105950000D03*
D27*
X63000000Y-103750000D03*
D28*
X68000000Y-100000000D03*
D27*
X68000000Y-105950000D03*
D26*
X59725000Y-103750000D03*
D29*
X73220000Y-95800000D03*
%TD*%
D25*
%TO.C,MX9*%
X44500000Y-81000000D03*
X55500000Y-81000000D03*
D26*
X53275000Y-86950000D03*
D27*
X45000000Y-84750000D03*
D28*
X50000000Y-81000000D03*
D27*
X50000000Y-86950000D03*
D26*
X41725000Y-84750000D03*
D29*
X55220000Y-76800000D03*
%TD*%
D25*
%TO.C,MX8*%
X44500000Y-64000000D03*
X55500000Y-64000000D03*
D26*
X53275000Y-69950000D03*
D27*
X45000000Y-67750000D03*
D28*
X50000000Y-64000000D03*
D27*
X50000000Y-69950000D03*
D26*
X41725000Y-67750000D03*
D29*
X55220000Y-59800000D03*
%TD*%
D25*
%TO.C,MX7*%
X44500000Y-47000000D03*
X55500000Y-47000000D03*
D26*
X53275000Y-52950000D03*
D27*
X45000000Y-50750000D03*
D28*
X50000000Y-47000000D03*
D27*
X50000000Y-52950000D03*
D26*
X41725000Y-50750000D03*
D29*
X55220000Y-42800000D03*
%TD*%
D25*
%TO.C,MX5*%
X44500000Y-100000000D03*
X55500000Y-100000000D03*
D26*
X53275000Y-105950000D03*
D27*
X45000000Y-103750000D03*
D28*
X50000000Y-100000000D03*
D27*
X50000000Y-105950000D03*
D26*
X41725000Y-103750000D03*
D29*
X55220000Y-95800000D03*
%TD*%
D25*
%TO.C,MX4*%
X24500000Y-81000000D03*
X35500000Y-81000000D03*
D26*
X33275000Y-86950000D03*
D27*
X25000000Y-84750000D03*
D28*
X30000000Y-81000000D03*
D27*
X30000000Y-86950000D03*
D26*
X21725000Y-84750000D03*
D29*
X35220000Y-76800000D03*
%TD*%
D25*
%TO.C,MX3*%
X24500000Y-64000000D03*
X35500000Y-64000000D03*
D26*
X33275000Y-69950000D03*
D27*
X25000000Y-67750000D03*
D28*
X30000000Y-64000000D03*
D27*
X30000000Y-69950000D03*
D26*
X21725000Y-67750000D03*
D29*
X35220000Y-59800000D03*
%TD*%
D25*
%TO.C,MX2*%
X24500000Y-47000000D03*
X35500000Y-47000000D03*
D26*
X33275000Y-52950000D03*
D27*
X25000000Y-50750000D03*
D28*
X30000000Y-47000000D03*
D27*
X30000000Y-52950000D03*
D26*
X21725000Y-50750000D03*
D29*
X35220000Y-42800000D03*
%TD*%
M02*
