%TF.GenerationSoftware,KiCad,Pcbnew,(5.1.10)-1*%
%TF.CreationDate,2022-05-07T17:57:56+07:00*%
%TF.ProjectId,Onsen48,4f6e7365-6e34-4382-9e6b-696361645f70,rev?*%
%TF.SameCoordinates,Original*%
%TF.FileFunction,Profile,NP*%
%FSLAX46Y46*%
G04 Gerber Fmt 4.6, Leading zero omitted, Abs format (unit mm)*
G04 Created by KiCad (PCBNEW (5.1.10)-1) date 2022-05-07 17:57:56*
%MOMM*%
%LPD*%
G01*
G04 APERTURE LIST*
%TA.AperFunction,Profile*%
%ADD10C,0.200000*%
%TD*%
%TA.AperFunction,Profile*%
%ADD11C,0.150000*%
%TD*%
G04 APERTURE END LIST*
D10*
X137499999Y-85500000D02*
G75*
G03*
X137499999Y-85500000I-2500000J0D01*
G01*
X137499999Y-56000000D02*
G75*
G03*
X137499999Y-56000000I-2500000J0D01*
G01*
X165500034Y-56000000D02*
G75*
G03*
X165500034Y-56000000I-2500000J0D01*
G01*
X165500034Y-85500000D02*
G75*
G03*
X165500034Y-85500000I-2500000J0D01*
G01*
X276500000Y-38500000D02*
X277000000Y-39000000D01*
X21499999Y-38500000D02*
X276500000Y-38500000D01*
X187500000Y-90500000D02*
G75*
G03*
X187500000Y-90500000I-2500000J0D01*
G01*
X260500000Y-55500000D02*
G75*
G03*
X260500000Y-55500000I-2500000J0D01*
G01*
X269500000Y-98500000D02*
G75*
G03*
X269500000Y-98500000I-2500000J0D01*
G01*
X223500000Y-90500000D02*
G75*
G03*
X223500000Y-90500000I-2500000J0D01*
G01*
X42500000Y-55750000D02*
G75*
G03*
X42500000Y-55750000I-2500000J0D01*
G01*
X33500000Y-98500000D02*
G75*
G03*
X33500000Y-98500000I-2500000J0D01*
G01*
X277000000Y-39000000D02*
X277000000Y-107750000D01*
X79500000Y-90500000D02*
G75*
G03*
X79500000Y-90500000I-2500000J0D01*
G01*
X115500000Y-90500000D02*
G75*
G03*
X115500000Y-90500000I-2500000J0D01*
G01*
X205500000Y-55500000D02*
G75*
G03*
X205500000Y-55500000I-2500000J0D01*
G01*
X97499999Y-55500000D02*
G75*
G03*
X97499999Y-55500000I-2499999J0D01*
G01*
X21000000Y-39000000D02*
X21499999Y-38500000D01*
X21750000Y-108500000D02*
X21000000Y-107750000D01*
X21000000Y-107750000D02*
X21000000Y-39000000D01*
X273250000Y-108500000D02*
X21750000Y-108500000D01*
X276250000Y-108500000D02*
X273250000Y-108500000D01*
X277000000Y-107750000D02*
X276250000Y-108500000D01*
D11*
%TO.C,RGB48*%
X269900000Y-43620000D02*
X266100000Y-43620000D01*
X269900000Y-43620000D02*
X269900000Y-40220000D01*
X269900000Y-40220000D02*
X266100000Y-40220000D01*
X266100000Y-43620000D02*
X266100000Y-40220000D01*
%TO.C,RGB47*%
X249900000Y-43620000D02*
X246100000Y-43620000D01*
X249900000Y-43620000D02*
X249900000Y-40220000D01*
X249900000Y-40220000D02*
X246100000Y-40220000D01*
X246100000Y-43620000D02*
X246100000Y-40220000D01*
%TO.C,RGB46*%
X231900000Y-43620000D02*
X228100000Y-43620000D01*
X231900000Y-43620000D02*
X231900000Y-40220000D01*
X231900000Y-40220000D02*
X228100000Y-40220000D01*
X228100000Y-43620000D02*
X228100000Y-40220000D01*
%TO.C,RGB45*%
X213900000Y-43620000D02*
X210100000Y-43620000D01*
X213900000Y-43620000D02*
X213900000Y-40220000D01*
X213900000Y-40220000D02*
X210100000Y-40220000D01*
X210100000Y-43620000D02*
X210100000Y-40220000D01*
%TO.C,RGB44*%
X195900000Y-43620000D02*
X192100000Y-43620000D01*
X195900000Y-43620000D02*
X195900000Y-40220000D01*
X195900000Y-40220000D02*
X192100000Y-40220000D01*
X192100000Y-43620000D02*
X192100000Y-40220000D01*
%TO.C,RGB43*%
X177900000Y-43620000D02*
X174100000Y-43620000D01*
X177900000Y-43620000D02*
X177900000Y-40220000D01*
X177900000Y-40220000D02*
X174100000Y-40220000D01*
X174100000Y-43620000D02*
X174100000Y-40220000D01*
%TO.C,RGB42*%
X266100000Y-60620000D02*
X266100000Y-57220000D01*
X269900000Y-57220000D02*
X266100000Y-57220000D01*
X269900000Y-60620000D02*
X269900000Y-57220000D01*
X269900000Y-60620000D02*
X266100000Y-60620000D01*
%TO.C,RGB41*%
X246100000Y-60620000D02*
X246100000Y-57220000D01*
X249900000Y-57220000D02*
X246100000Y-57220000D01*
X249900000Y-60620000D02*
X249900000Y-57220000D01*
X249900000Y-60620000D02*
X246100000Y-60620000D01*
%TO.C,RGB40*%
X228100000Y-60620000D02*
X228100000Y-57220000D01*
X231900000Y-57220000D02*
X228100000Y-57220000D01*
X231900000Y-60620000D02*
X231900000Y-57220000D01*
X231900000Y-60620000D02*
X228100000Y-60620000D01*
%TO.C,RGB39*%
X210100000Y-60620000D02*
X210100000Y-57220000D01*
X213900000Y-57220000D02*
X210100000Y-57220000D01*
X213900000Y-60620000D02*
X213900000Y-57220000D01*
X213900000Y-60620000D02*
X210100000Y-60620000D01*
%TO.C,RGB38*%
X192100000Y-60620000D02*
X192100000Y-57220000D01*
X195900000Y-57220000D02*
X192100000Y-57220000D01*
X195900000Y-60620000D02*
X195900000Y-57220000D01*
X195900000Y-60620000D02*
X192100000Y-60620000D01*
%TO.C,RGB37*%
X174100000Y-60620000D02*
X174100000Y-57220000D01*
X177900000Y-57220000D02*
X174100000Y-57220000D01*
X177900000Y-60620000D02*
X177900000Y-57220000D01*
X177900000Y-60620000D02*
X174100000Y-60620000D01*
%TO.C,RGB30*%
X48100000Y-96620000D02*
X48100000Y-93220000D01*
X51900000Y-93220000D02*
X48100000Y-93220000D01*
X51900000Y-96620000D02*
X51900000Y-93220000D01*
X51900000Y-96620000D02*
X48100000Y-96620000D01*
%TO.C,RGB29*%
X66100000Y-96620000D02*
X66100000Y-93220000D01*
X69900000Y-93220000D02*
X66100000Y-93220000D01*
X69900000Y-96620000D02*
X69900000Y-93220000D01*
X69900000Y-96620000D02*
X66100000Y-96620000D01*
%TO.C,RGB28*%
X84100000Y-96620000D02*
X84100000Y-93220000D01*
X87900000Y-93220000D02*
X84100000Y-93220000D01*
X87900000Y-96620000D02*
X87900000Y-93220000D01*
X87900000Y-96620000D02*
X84100000Y-96620000D01*
%TO.C,RGB27*%
X102100000Y-96620000D02*
X102100000Y-93220000D01*
X105900000Y-93220000D02*
X102100000Y-93220000D01*
X105900000Y-96620000D02*
X105900000Y-93220000D01*
X105900000Y-96620000D02*
X102100000Y-96620000D01*
%TO.C,RGB26*%
X120100000Y-96620000D02*
X120100000Y-93220000D01*
X123900000Y-93220000D02*
X120100000Y-93220000D01*
X123900000Y-96620000D02*
X123900000Y-93220000D01*
X123900000Y-96620000D02*
X120100000Y-96620000D01*
%TO.C,RGB25*%
X138100000Y-96620000D02*
X138100000Y-93220000D01*
X141900000Y-93220000D02*
X138100000Y-93220000D01*
X141900000Y-96620000D02*
X141900000Y-93220000D01*
X141900000Y-96620000D02*
X138100000Y-96620000D01*
%TO.C,RGB24*%
X156100000Y-96620000D02*
X156100000Y-93220000D01*
X159900000Y-93220000D02*
X156100000Y-93220000D01*
X159900000Y-96620000D02*
X159900000Y-93220000D01*
X159900000Y-96620000D02*
X156100000Y-96620000D01*
%TO.C,RGB22*%
X174100000Y-96620000D02*
X174100000Y-93220000D01*
X177900000Y-93220000D02*
X174100000Y-93220000D01*
X177900000Y-96620000D02*
X177900000Y-93220000D01*
X177900000Y-96620000D02*
X174100000Y-96620000D01*
%TO.C,RGB20*%
X192100000Y-96620000D02*
X192100000Y-93220000D01*
X195900000Y-93220000D02*
X192100000Y-93220000D01*
X195900000Y-96620000D02*
X195900000Y-93220000D01*
X195900000Y-96620000D02*
X192100000Y-96620000D01*
%TO.C,RGB18*%
X210100000Y-96620000D02*
X210100000Y-93220000D01*
X213900000Y-93220000D02*
X210100000Y-93220000D01*
X213900000Y-96620000D02*
X213900000Y-93220000D01*
X213900000Y-96620000D02*
X210100000Y-96620000D01*
%TO.C,RGB16*%
X228100000Y-96620000D02*
X228100000Y-93220000D01*
X231900000Y-93220000D02*
X228100000Y-93220000D01*
X231900000Y-96620000D02*
X231900000Y-93220000D01*
X231900000Y-96620000D02*
X228100000Y-96620000D01*
%TO.C,RGB14*%
X246100000Y-96620000D02*
X246100000Y-93220000D01*
X249900000Y-93220000D02*
X246100000Y-93220000D01*
X249900000Y-96620000D02*
X249900000Y-93220000D01*
X249900000Y-96620000D02*
X246100000Y-96620000D01*
%TO.C,RGB36*%
X269900000Y-77620000D02*
X266100000Y-77620000D01*
X269900000Y-77620000D02*
X269900000Y-74220000D01*
X269900000Y-74220000D02*
X266100000Y-74220000D01*
X266100000Y-77620000D02*
X266100000Y-74220000D01*
%TO.C,RGB35*%
X249900000Y-77620000D02*
X246100000Y-77620000D01*
X249900000Y-77620000D02*
X249900000Y-74220000D01*
X249900000Y-74220000D02*
X246100000Y-74220000D01*
X246100000Y-77620000D02*
X246100000Y-74220000D01*
%TO.C,RGB34*%
X231900000Y-77620000D02*
X228100000Y-77620000D01*
X231900000Y-77620000D02*
X231900000Y-74220000D01*
X231900000Y-74220000D02*
X228100000Y-74220000D01*
X228100000Y-77620000D02*
X228100000Y-74220000D01*
%TO.C,RGB33*%
X213900000Y-77620000D02*
X210100000Y-77620000D01*
X213900000Y-77620000D02*
X213900000Y-74220000D01*
X213900000Y-74220000D02*
X210100000Y-74220000D01*
X210100000Y-77620000D02*
X210100000Y-74220000D01*
%TO.C,RGB32*%
X195900000Y-77620000D02*
X192100000Y-77620000D01*
X195900000Y-77620000D02*
X195900000Y-74220000D01*
X195900000Y-74220000D02*
X192100000Y-74220000D01*
X192100000Y-77620000D02*
X192100000Y-74220000D01*
%TO.C,RGB31*%
X177900000Y-77620000D02*
X174100000Y-77620000D01*
X177900000Y-77620000D02*
X177900000Y-74220000D01*
X177900000Y-74220000D02*
X174100000Y-74220000D01*
X174100000Y-77620000D02*
X174100000Y-74220000D01*
%TO.C,RGB23*%
X120100000Y-77620000D02*
X120100000Y-74220000D01*
X123900000Y-74220000D02*
X120100000Y-74220000D01*
X123900000Y-77620000D02*
X123900000Y-74220000D01*
X123900000Y-77620000D02*
X120100000Y-77620000D01*
%TO.C,RGB21*%
X102100000Y-77620000D02*
X102100000Y-74220000D01*
X105900000Y-74220000D02*
X102100000Y-74220000D01*
X105900000Y-77620000D02*
X105900000Y-74220000D01*
X105900000Y-77620000D02*
X102100000Y-77620000D01*
%TO.C,RGB19*%
X84100000Y-77620000D02*
X84100000Y-74220000D01*
X87900000Y-74220000D02*
X84100000Y-74220000D01*
X87900000Y-77620000D02*
X87900000Y-74220000D01*
X87900000Y-77620000D02*
X84100000Y-77620000D01*
%TO.C,RGB17*%
X66100000Y-77620000D02*
X66100000Y-74220000D01*
X69900000Y-74220000D02*
X66100000Y-74220000D01*
X69900000Y-77620000D02*
X69900000Y-74220000D01*
X69900000Y-77620000D02*
X66100000Y-77620000D01*
%TO.C,RGB15*%
X48100000Y-77620000D02*
X48100000Y-74220000D01*
X51900000Y-74220000D02*
X48100000Y-74220000D01*
X51900000Y-77620000D02*
X51900000Y-74220000D01*
X51900000Y-77620000D02*
X48100000Y-77620000D01*
%TO.C,RGB13*%
X28100000Y-77620000D02*
X28100000Y-74220000D01*
X31900000Y-74220000D02*
X28100000Y-74220000D01*
X31900000Y-77620000D02*
X31900000Y-74220000D01*
X31900000Y-77620000D02*
X28100000Y-77620000D01*
%TO.C,RGB12*%
X31900000Y-43620000D02*
X28100000Y-43620000D01*
X31900000Y-43620000D02*
X31900000Y-40220000D01*
X31900000Y-40220000D02*
X28100000Y-40220000D01*
X28100000Y-43620000D02*
X28100000Y-40220000D01*
%TO.C,RGB11*%
X51900000Y-43620000D02*
X48100000Y-43620000D01*
X51900000Y-43620000D02*
X51900000Y-40220000D01*
X51900000Y-40220000D02*
X48100000Y-40220000D01*
X48100000Y-43620000D02*
X48100000Y-40220000D01*
%TO.C,RGB10*%
X69900000Y-43620000D02*
X66100000Y-43620000D01*
X69900000Y-43620000D02*
X69900000Y-40220000D01*
X69900000Y-40220000D02*
X66100000Y-40220000D01*
X66100000Y-43620000D02*
X66100000Y-40220000D01*
%TO.C,RGB9*%
X87900000Y-43620000D02*
X84100000Y-43620000D01*
X87900000Y-43620000D02*
X87900000Y-40220000D01*
X87900000Y-40220000D02*
X84100000Y-40220000D01*
X84100000Y-43620000D02*
X84100000Y-40220000D01*
%TO.C,RGB8*%
X105900000Y-43620000D02*
X102100000Y-43620000D01*
X105900000Y-43620000D02*
X105900000Y-40220000D01*
X105900000Y-40220000D02*
X102100000Y-40220000D01*
X102100000Y-43620000D02*
X102100000Y-40220000D01*
%TO.C,RGB7*%
X123900000Y-43620000D02*
X120100000Y-43620000D01*
X123900000Y-43620000D02*
X123900000Y-40220000D01*
X123900000Y-40220000D02*
X120100000Y-40220000D01*
X120100000Y-43620000D02*
X120100000Y-40220000D01*
%TO.C,RGB6*%
X120100000Y-60620000D02*
X120100000Y-57220000D01*
X123900000Y-57220000D02*
X120100000Y-57220000D01*
X123900000Y-60620000D02*
X123900000Y-57220000D01*
X123900000Y-60620000D02*
X120100000Y-60620000D01*
%TO.C,RGB5*%
X102100000Y-60620000D02*
X102100000Y-57220000D01*
X105900000Y-57220000D02*
X102100000Y-57220000D01*
X105900000Y-60620000D02*
X105900000Y-57220000D01*
X105900000Y-60620000D02*
X102100000Y-60620000D01*
%TO.C,RGB4*%
X84100000Y-60620000D02*
X84100000Y-57220000D01*
X87900000Y-57220000D02*
X84100000Y-57220000D01*
X87900000Y-60620000D02*
X87900000Y-57220000D01*
X87900000Y-60620000D02*
X84100000Y-60620000D01*
%TO.C,RGB3*%
X66100000Y-60620000D02*
X66100000Y-57220000D01*
X69900000Y-57220000D02*
X66100000Y-57220000D01*
X69900000Y-60620000D02*
X69900000Y-57220000D01*
X69900000Y-60620000D02*
X66100000Y-60620000D01*
%TO.C,RGB2*%
X48100000Y-60620000D02*
X48100000Y-57220000D01*
X51900000Y-57220000D02*
X48100000Y-57220000D01*
X51900000Y-60620000D02*
X51900000Y-57220000D01*
X51900000Y-60620000D02*
X48100000Y-60620000D01*
%TO.C,RGB1*%
X28100000Y-60620000D02*
X28100000Y-57220000D01*
X31900000Y-57220000D02*
X28100000Y-57220000D01*
X31900000Y-60620000D02*
X31900000Y-57220000D01*
X31900000Y-60620000D02*
X28100000Y-60620000D01*
%TD*%
M02*
