M48
; DRILL file {KiCad (5.1.10)-1} date 05/07/22 17:57:53
; FORMAT={-:-/ absolute / metric / decimal}
; #@! TF.CreationDate,2022-05-07T17:57:53+07:00
; #@! TF.GenerationSoftware,Kicad,Pcbnew,(5.1.10)-1
; #@! TF.FileFunction,NonPlated,1,2,NPTH
FMAT,2
METRIC
T1C0.650
T2C0.991
T3C1.500
T4C1.702
T5C3.000
T6C3.429
%
G90
G05
T1
X146.11Y-44.75
X151.89Y-44.75
T2
X35.22Y-42.8
X35.22Y-59.8
X35.22Y-76.8
X55.22Y-42.8
X55.22Y-59.8
X55.22Y-76.8
X55.22Y-95.8
X73.22Y-42.8
X73.22Y-59.8
X73.22Y-76.8
X73.22Y-95.8
X91.22Y-42.8
X91.22Y-59.8
X91.22Y-76.8
X91.22Y-95.8
X109.22Y-42.8
X109.22Y-59.8
X109.22Y-76.8
X109.22Y-95.8
X127.22Y-42.8
X127.22Y-59.8
X127.22Y-76.8
X127.22Y-95.8
X145.22Y-95.8
X163.22Y-95.8
X181.22Y-42.8
X181.22Y-59.8
X181.22Y-76.8
X181.22Y-95.8
X199.22Y-42.8
X199.22Y-59.8
X199.22Y-76.8
X199.22Y-95.8
X217.22Y-42.8
X217.22Y-59.8
X217.22Y-76.8
X217.22Y-95.8
X235.22Y-42.8
X235.22Y-59.8
X235.22Y-76.8
X235.22Y-95.8
X253.22Y-42.8
X253.22Y-59.8
X253.22Y-76.8
X253.22Y-95.8
X273.22Y-42.8
X273.22Y-59.8
X273.22Y-76.8
T3
X162.5Y-42.1
X162.5Y-49.1
T4
X24.5Y-47.0
X24.5Y-64.0
X24.5Y-81.0
X35.5Y-47.0
X35.5Y-64.0
X35.5Y-81.0
X44.5Y-47.0
X44.5Y-64.0
X44.5Y-81.0
X44.5Y-100.0
X55.5Y-47.0
X55.5Y-64.0
X55.5Y-81.0
X55.5Y-100.0
X62.5Y-47.0
X62.5Y-64.0
X62.5Y-81.0
X62.5Y-100.0
X73.5Y-47.0
X73.5Y-64.0
X73.5Y-81.0
X73.5Y-100.0
X80.5Y-47.0
X80.5Y-64.0
X80.5Y-81.0
X80.5Y-100.0
X91.5Y-47.0
X91.5Y-64.0
X91.5Y-81.0
X91.5Y-100.0
X98.5Y-47.0
X98.5Y-64.0
X98.5Y-81.0
X98.5Y-100.0
X109.5Y-47.0
X109.5Y-64.0
X109.5Y-81.0
X109.5Y-100.0
X116.5Y-47.0
X116.5Y-64.0
X116.5Y-81.0
X116.5Y-100.0
X127.5Y-47.0
X127.5Y-64.0
X127.5Y-81.0
X127.5Y-100.0
X134.5Y-100.0
X145.5Y-100.0
X152.5Y-100.0
X163.5Y-100.0
X170.5Y-47.0
X170.5Y-64.0
X170.5Y-81.0
X170.5Y-100.0
X181.5Y-47.0
X181.5Y-64.0
X181.5Y-81.0
X181.5Y-100.0
X188.5Y-47.0
X188.5Y-64.0
X188.5Y-81.0
X188.5Y-100.0
X199.5Y-47.0
X199.5Y-64.0
X199.5Y-81.0
X199.5Y-100.0
X206.5Y-47.0
X206.5Y-64.0
X206.5Y-81.0
X206.5Y-100.0
X217.5Y-47.0
X217.5Y-64.0
X217.5Y-81.0
X217.5Y-100.0
X224.5Y-47.0
X224.5Y-64.0
X224.5Y-81.0
X224.5Y-100.0
X235.5Y-47.0
X235.5Y-64.0
X235.5Y-81.0
X235.5Y-100.0
X242.5Y-47.0
X242.5Y-64.0
X242.5Y-81.0
X242.5Y-100.0
X253.5Y-47.0
X253.5Y-64.0
X253.5Y-81.0
X253.5Y-100.0
X262.5Y-47.0
X262.5Y-64.0
X262.5Y-81.0
X273.5Y-47.0
X273.5Y-64.0
X273.5Y-81.0
T5
X25.0Y-50.75
X25.0Y-67.75
X25.0Y-84.75
X30.0Y-52.95
X30.0Y-69.95
X30.0Y-86.95
X45.0Y-50.75
X45.0Y-67.75
X45.0Y-84.75
X45.0Y-103.75
X50.0Y-52.95
X50.0Y-69.95
X50.0Y-86.95
X50.0Y-105.95
X63.0Y-50.75
X63.0Y-67.75
X63.0Y-84.75
X63.0Y-103.75
X68.0Y-52.95
X68.0Y-69.95
X68.0Y-86.95
X68.0Y-105.95
X81.0Y-50.75
X81.0Y-67.75
X81.0Y-84.75
X81.0Y-103.75
X86.0Y-52.95
X86.0Y-69.95
X86.0Y-86.95
X86.0Y-105.95
X99.0Y-50.75
X99.0Y-67.75
X99.0Y-84.75
X99.0Y-103.75
X104.0Y-52.95
X104.0Y-69.95
X104.0Y-86.95
X104.0Y-105.95
X117.0Y-50.75
X117.0Y-67.75
X117.0Y-84.75
X117.0Y-103.75
X122.0Y-52.95
X122.0Y-69.95
X122.0Y-86.95
X122.0Y-105.95
X135.0Y-103.75
X140.0Y-105.95
X153.0Y-103.75
X158.0Y-105.95
X171.0Y-50.75
X171.0Y-67.75
X171.0Y-84.75
X171.0Y-103.75
X176.0Y-52.95
X176.0Y-69.95
X176.0Y-86.95
X176.0Y-105.95
X189.0Y-50.75
X189.0Y-67.75
X189.0Y-84.75
X189.0Y-103.75
X194.0Y-52.95
X194.0Y-69.95
X194.0Y-86.95
X194.0Y-105.95
X207.0Y-50.75
X207.0Y-67.75
X207.0Y-84.75
X207.0Y-103.75
X212.0Y-52.95
X212.0Y-69.95
X212.0Y-86.95
X212.0Y-105.95
X225.0Y-50.75
X225.0Y-67.75
X225.0Y-84.75
X225.0Y-103.75
X230.0Y-52.95
X230.0Y-69.95
X230.0Y-86.95
X230.0Y-105.95
X243.0Y-50.75
X243.0Y-67.75
X243.0Y-84.75
X243.0Y-103.75
X248.0Y-52.95
X248.0Y-69.95
X248.0Y-86.95
X248.0Y-105.95
X263.0Y-50.75
X263.0Y-67.75
X263.0Y-84.75
X268.0Y-52.95
X268.0Y-69.95
X268.0Y-86.95
T6
X30.0Y-47.0
X30.0Y-64.0
X30.0Y-81.0
X50.0Y-47.0
X50.0Y-64.0
X50.0Y-81.0
X50.0Y-100.0
X68.0Y-47.0
X68.0Y-64.0
X68.0Y-81.0
X68.0Y-100.0
X86.0Y-47.0
X86.0Y-64.0
X86.0Y-81.0
X86.0Y-100.0
X104.0Y-47.0
X104.0Y-64.0
X104.0Y-81.0
X104.0Y-100.0
X122.0Y-47.0
X122.0Y-64.0
X122.0Y-81.0
X122.0Y-100.0
X140.0Y-100.0
X158.0Y-100.0
X176.0Y-47.0
X176.0Y-64.0
X176.0Y-81.0
X176.0Y-100.0
X194.0Y-47.0
X194.0Y-64.0
X194.0Y-81.0
X194.0Y-100.0
X212.0Y-47.0
X212.0Y-64.0
X212.0Y-81.0
X212.0Y-100.0
X230.0Y-47.0
X230.0Y-64.0
X230.0Y-81.0
X230.0Y-100.0
X248.0Y-47.0
X248.0Y-64.0
X248.0Y-81.0
X248.0Y-100.0
X268.0Y-47.0
X268.0Y-64.0
X268.0Y-81.0
T0
M30
