%TF.GenerationSoftware,KiCad,Pcbnew,(5.1.10)-1*%
%TF.CreationDate,2022-05-07T17:57:56+07:00*%
%TF.ProjectId,Onsen48,4f6e7365-6e34-4382-9e6b-696361645f70,rev?*%
%TF.SameCoordinates,Original*%
%TF.FileFunction,Legend,Bot*%
%TF.FilePolarity,Positive*%
%FSLAX46Y46*%
G04 Gerber Fmt 4.6, Leading zero omitted, Abs format (unit mm)*
G04 Created by KiCad (PCBNEW (5.1.10)-1) date 2022-05-07 17:57:56*
%MOMM*%
%LPD*%
G01*
G04 APERTURE LIST*
%ADD10C,0.100000*%
%ADD11C,0.120000*%
%ADD12C,0.150000*%
G04 APERTURE END LIST*
D10*
%TO.C,R7*%
X129900000Y-68050000D02*
X130300000Y-68150000D01*
X130300000Y-68350000D02*
X129900000Y-68450000D01*
X129900000Y-67850000D02*
X130300000Y-67950000D01*
X130300000Y-67750000D02*
X129900000Y-67850000D01*
X130300000Y-67950000D02*
X129900000Y-68050000D01*
X130300000Y-68150000D02*
X129900000Y-68250000D01*
X129900000Y-68250000D02*
X130300000Y-68350000D01*
D11*
X129220000Y-67500000D02*
X129220000Y-68700000D01*
X130980000Y-68700000D02*
X130980000Y-67500000D01*
%TO.C,Y1*%
X159000000Y-72400000D02*
X159000000Y-72800000D01*
X158800000Y-72400000D02*
X158800000Y-72800000D01*
X155200000Y-72400000D02*
X155200000Y-72800000D01*
X159000000Y-70400000D02*
X159000000Y-72400000D01*
X157800000Y-72800000D02*
X157800000Y-73200000D01*
X157800000Y-72800000D02*
X158800000Y-72800000D01*
X158800000Y-72400000D02*
X158800000Y-70400000D01*
X158800000Y-70400000D02*
X157800000Y-70400000D01*
X156000000Y-70400000D02*
X155200000Y-70400000D01*
X155200000Y-70400000D02*
X155200000Y-72400000D01*
X155200000Y-72800000D02*
X156000000Y-72800000D01*
%TO.C,U2*%
X145390000Y-69615000D02*
X145390000Y-68890000D01*
X152610000Y-76110000D02*
X151885000Y-76110000D01*
X152610000Y-75385000D02*
X152610000Y-76110000D01*
X152610000Y-68890000D02*
X151885000Y-68890000D01*
X152610000Y-69615000D02*
X152610000Y-68890000D01*
X145390000Y-76110000D02*
X146115000Y-76110000D01*
X145390000Y-75385000D02*
X145390000Y-76110000D01*
D12*
%TO.C,U1*%
X149650000Y-52700000D02*
X148350000Y-52700000D01*
X149650000Y-49800000D02*
X149650000Y-52700000D01*
X148350000Y-49800000D02*
X149650000Y-49800000D01*
X148350000Y-49800000D02*
X148350000Y-52700000D01*
D10*
%TO.C,R6*%
X145500000Y-78750000D02*
X145600000Y-78350000D01*
X145800000Y-78350000D02*
X145900000Y-78750000D01*
X145300000Y-78750000D02*
X145400000Y-78350000D01*
X145200000Y-78350000D02*
X145300000Y-78750000D01*
X145400000Y-78350000D02*
X145500000Y-78750000D01*
X145600000Y-78350000D02*
X145700000Y-78750000D01*
X145700000Y-78750000D02*
X145800000Y-78350000D01*
D11*
X144950000Y-79430000D02*
X146150000Y-79430000D01*
X146150000Y-77670000D02*
X144950000Y-77670000D01*
D10*
%TO.C,R5*%
X143800000Y-51300000D02*
X143400000Y-51200000D01*
X143400000Y-51000000D02*
X143800000Y-50900000D01*
X143800000Y-51500000D02*
X143400000Y-51400000D01*
X143400000Y-51600000D02*
X143800000Y-51500000D01*
X143400000Y-51400000D02*
X143800000Y-51300000D01*
X143400000Y-51200000D02*
X143800000Y-51100000D01*
X143800000Y-51100000D02*
X143400000Y-51000000D01*
D11*
X144480000Y-51850000D02*
X144480000Y-50650000D01*
X142720000Y-50650000D02*
X142720000Y-51850000D01*
D10*
%TO.C,R4*%
X148300000Y-55550000D02*
X147900000Y-55450000D01*
X147900000Y-55250000D02*
X148300000Y-55150000D01*
X148300000Y-55750000D02*
X147900000Y-55650000D01*
X147900000Y-55850000D02*
X148300000Y-55750000D01*
X147900000Y-55650000D02*
X148300000Y-55550000D01*
X147900000Y-55450000D02*
X148300000Y-55350000D01*
X148300000Y-55350000D02*
X147900000Y-55250000D01*
D11*
X148980000Y-56100000D02*
X148980000Y-54900000D01*
X147220000Y-54900000D02*
X147220000Y-56100000D01*
D10*
%TO.C,R3*%
X150100000Y-55550000D02*
X149700000Y-55450000D01*
X149700000Y-55250000D02*
X150100000Y-55150000D01*
X150100000Y-55750000D02*
X149700000Y-55650000D01*
X149700000Y-55850000D02*
X150100000Y-55750000D01*
X149700000Y-55650000D02*
X150100000Y-55550000D01*
X149700000Y-55450000D02*
X150100000Y-55350000D01*
X150100000Y-55350000D02*
X149700000Y-55250000D01*
D11*
X150780000Y-56100000D02*
X150780000Y-54900000D01*
X149020000Y-54900000D02*
X149020000Y-56100000D01*
D10*
%TO.C,R2*%
X151900000Y-55550000D02*
X151500000Y-55450000D01*
X151500000Y-55250000D02*
X151900000Y-55150000D01*
X151900000Y-55750000D02*
X151500000Y-55650000D01*
X151500000Y-55850000D02*
X151900000Y-55750000D01*
X151500000Y-55650000D02*
X151900000Y-55550000D01*
X151500000Y-55450000D02*
X151900000Y-55350000D01*
X151900000Y-55350000D02*
X151500000Y-55250000D01*
D11*
X152580000Y-56100000D02*
X152580000Y-54900000D01*
X150820000Y-54900000D02*
X150820000Y-56100000D01*
D10*
%TO.C,R1*%
X146500000Y-55550000D02*
X146100000Y-55450000D01*
X146100000Y-55250000D02*
X146500000Y-55150000D01*
X146500000Y-55750000D02*
X146100000Y-55650000D01*
X146100000Y-55850000D02*
X146500000Y-55750000D01*
X146100000Y-55650000D02*
X146500000Y-55550000D01*
X146100000Y-55450000D02*
X146500000Y-55350000D01*
X146500000Y-55350000D02*
X146100000Y-55250000D01*
D11*
X147180000Y-56100000D02*
X147180000Y-54900000D01*
X145420000Y-54900000D02*
X145420000Y-56100000D01*
%TO.C,F1*%
X144740000Y-50250000D02*
X144740000Y-52250000D01*
X146880000Y-52250000D02*
X146880000Y-50250000D01*
%TO.C,C7*%
X156900000Y-68450000D02*
X156200000Y-68450000D01*
X156200000Y-69650000D02*
X156900000Y-69650000D01*
%TO.C,C6*%
X150050000Y-65300000D02*
X149350000Y-65300000D01*
X149350000Y-66500000D02*
X150050000Y-66500000D01*
%TO.C,C5*%
X142100000Y-74400000D02*
X142100000Y-75100000D01*
X143300000Y-75100000D02*
X143300000Y-74400000D01*
%TO.C,C4*%
X152100000Y-77600000D02*
X151400000Y-77600000D01*
X151400000Y-78800000D02*
X152100000Y-78800000D01*
%TO.C,C1*%
X143350000Y-68100000D02*
X144050000Y-68100000D01*
X144050000Y-66900000D02*
X143350000Y-66900000D01*
D12*
%TO.C,D27*%
X129700000Y-45100000D02*
X130500000Y-45100000D01*
X129200000Y-44100038D02*
X129200000Y-44600000D01*
X129700000Y-43600000D02*
X130500000Y-43600000D01*
X131000000Y-44599962D02*
X131000000Y-44100000D01*
D10*
G36*
X130100000Y-45600000D02*
G01*
X129500000Y-46400000D01*
X130700000Y-46400000D01*
X130100000Y-45600000D01*
G37*
X130100000Y-45600000D02*
X129500000Y-46400000D01*
X130700000Y-46400000D01*
X130100000Y-45600000D01*
D12*
X129200000Y-44600000D02*
G75*
G03*
X129700000Y-45100000I500000J0D01*
G01*
X129700000Y-43600000D02*
G75*
G03*
X129200000Y-44100000I0J-500000D01*
G01*
X131000000Y-44100000D02*
G75*
G03*
X130500000Y-43600000I-500000J0D01*
G01*
X130500000Y-45100000D02*
G75*
G03*
X131000000Y-44600000I0J500000D01*
G01*
D11*
%TO.C,RGB48*%
X271350000Y-43300000D02*
X271350000Y-42550000D01*
X270500000Y-43300000D02*
X271350000Y-43300000D01*
%TO.C,RGB47*%
X251350000Y-43300000D02*
X251350000Y-42550000D01*
X250500000Y-43300000D02*
X251350000Y-43300000D01*
%TO.C,RGB46*%
X233350000Y-43300000D02*
X233350000Y-42550000D01*
X232500000Y-43300000D02*
X233350000Y-43300000D01*
%TO.C,RGB45*%
X215350000Y-43300000D02*
X215350000Y-42550000D01*
X214500000Y-43300000D02*
X215350000Y-43300000D01*
%TO.C,RGB44*%
X197350000Y-43300000D02*
X197350000Y-42550000D01*
X196500000Y-43300000D02*
X197350000Y-43300000D01*
%TO.C,RGB43*%
X179350000Y-43300000D02*
X179350000Y-42550000D01*
X178500000Y-43300000D02*
X179350000Y-43300000D01*
%TO.C,RGB42*%
X265500000Y-57560000D02*
X264650000Y-57560000D01*
X264650000Y-57560000D02*
X264650000Y-58310000D01*
%TO.C,RGB41*%
X245500000Y-57560000D02*
X244650000Y-57560000D01*
X244650000Y-57560000D02*
X244650000Y-58310000D01*
%TO.C,RGB40*%
X227500000Y-57560000D02*
X226650000Y-57560000D01*
X226650000Y-57560000D02*
X226650000Y-58310000D01*
%TO.C,RGB39*%
X209500000Y-57560000D02*
X208650000Y-57560000D01*
X208650000Y-57560000D02*
X208650000Y-58310000D01*
%TO.C,RGB38*%
X191500000Y-57560000D02*
X190650000Y-57560000D01*
X190650000Y-57560000D02*
X190650000Y-58310000D01*
%TO.C,RGB37*%
X173500000Y-57560000D02*
X172650000Y-57560000D01*
X172650000Y-57560000D02*
X172650000Y-58310000D01*
%TO.C,RGB30*%
X47500000Y-93560000D02*
X46650000Y-93560000D01*
X46650000Y-93560000D02*
X46650000Y-94310000D01*
%TO.C,RGB29*%
X65500000Y-93560000D02*
X64650000Y-93560000D01*
X64650000Y-93560000D02*
X64650000Y-94310000D01*
%TO.C,RGB28*%
X83500000Y-93560000D02*
X82650000Y-93560000D01*
X82650000Y-93560000D02*
X82650000Y-94310000D01*
%TO.C,RGB27*%
X101500000Y-93560000D02*
X100650000Y-93560000D01*
X100650000Y-93560000D02*
X100650000Y-94310000D01*
%TO.C,RGB26*%
X119500000Y-93560000D02*
X118650000Y-93560000D01*
X118650000Y-93560000D02*
X118650000Y-94310000D01*
%TO.C,RGB25*%
X137500000Y-93560000D02*
X136650000Y-93560000D01*
X136650000Y-93560000D02*
X136650000Y-94310000D01*
%TO.C,RGB24*%
X155500000Y-93560000D02*
X154650000Y-93560000D01*
X154650000Y-93560000D02*
X154650000Y-94310000D01*
%TO.C,RGB22*%
X173500000Y-93560000D02*
X172650000Y-93560000D01*
X172650000Y-93560000D02*
X172650000Y-94310000D01*
%TO.C,RGB20*%
X191500000Y-93560000D02*
X190650000Y-93560000D01*
X190650000Y-93560000D02*
X190650000Y-94310000D01*
%TO.C,RGB18*%
X209500000Y-93560000D02*
X208650000Y-93560000D01*
X208650000Y-93560000D02*
X208650000Y-94310000D01*
%TO.C,RGB16*%
X227500000Y-93560000D02*
X226650000Y-93560000D01*
X226650000Y-93560000D02*
X226650000Y-94310000D01*
%TO.C,RGB14*%
X245500000Y-93560000D02*
X244650000Y-93560000D01*
X244650000Y-93560000D02*
X244650000Y-94310000D01*
%TO.C,RGB36*%
X271350000Y-77300000D02*
X271350000Y-76550000D01*
X270500000Y-77300000D02*
X271350000Y-77300000D01*
%TO.C,RGB35*%
X251350000Y-77300000D02*
X251350000Y-76550000D01*
X250500000Y-77300000D02*
X251350000Y-77300000D01*
%TO.C,RGB34*%
X233350000Y-77300000D02*
X233350000Y-76550000D01*
X232500000Y-77300000D02*
X233350000Y-77300000D01*
%TO.C,RGB33*%
X215350000Y-77300000D02*
X215350000Y-76550000D01*
X214500000Y-77300000D02*
X215350000Y-77300000D01*
%TO.C,RGB32*%
X197350000Y-77300000D02*
X197350000Y-76550000D01*
X196500000Y-77300000D02*
X197350000Y-77300000D01*
%TO.C,RGB31*%
X179350000Y-77300000D02*
X179350000Y-76550000D01*
X178500000Y-77300000D02*
X179350000Y-77300000D01*
%TO.C,RGB23*%
X124500000Y-77300000D02*
X125350000Y-77300000D01*
X125350000Y-77300000D02*
X125350000Y-76550000D01*
%TO.C,RGB21*%
X106500000Y-77300000D02*
X107350000Y-77300000D01*
X107350000Y-77300000D02*
X107350000Y-76550000D01*
%TO.C,RGB19*%
X88500000Y-77300000D02*
X89350000Y-77300000D01*
X89350000Y-77300000D02*
X89350000Y-76550000D01*
%TO.C,RGB17*%
X70500000Y-77300000D02*
X71350000Y-77300000D01*
X71350000Y-77300000D02*
X71350000Y-76550000D01*
%TO.C,RGB15*%
X52500000Y-77300000D02*
X53350000Y-77300000D01*
X53350000Y-77300000D02*
X53350000Y-76550000D01*
%TO.C,RGB13*%
X32500000Y-77300000D02*
X33350000Y-77300000D01*
X33350000Y-77300000D02*
X33350000Y-76550000D01*
%TO.C,RGB12*%
X33350000Y-43300000D02*
X33350000Y-42550000D01*
X32500000Y-43300000D02*
X33350000Y-43300000D01*
%TO.C,RGB11*%
X53350000Y-43300000D02*
X53350000Y-42550000D01*
X52500000Y-43300000D02*
X53350000Y-43300000D01*
%TO.C,RGB10*%
X71350000Y-43300000D02*
X71350000Y-42550000D01*
X70500000Y-43300000D02*
X71350000Y-43300000D01*
%TO.C,RGB9*%
X89350000Y-43300000D02*
X89350000Y-42550000D01*
X88500000Y-43300000D02*
X89350000Y-43300000D01*
%TO.C,RGB8*%
X107350000Y-43300000D02*
X107350000Y-42550000D01*
X106500000Y-43300000D02*
X107350000Y-43300000D01*
%TO.C,RGB7*%
X125350000Y-43300000D02*
X125350000Y-42550000D01*
X124500000Y-43300000D02*
X125350000Y-43300000D01*
%TO.C,RGB6*%
X119500000Y-57560000D02*
X118650000Y-57560000D01*
X118650000Y-57560000D02*
X118650000Y-58310000D01*
%TO.C,RGB5*%
X101500000Y-57560000D02*
X100650000Y-57560000D01*
X100650000Y-57560000D02*
X100650000Y-58310000D01*
%TO.C,RGB4*%
X83500000Y-57560000D02*
X82650000Y-57560000D01*
X82650000Y-57560000D02*
X82650000Y-58310000D01*
%TO.C,RGB3*%
X65500000Y-57560000D02*
X64650000Y-57560000D01*
X64650000Y-57560000D02*
X64650000Y-58310000D01*
%TO.C,RGB2*%
X47500000Y-57560000D02*
X46650000Y-57560000D01*
X46650000Y-57560000D02*
X46650000Y-58310000D01*
%TO.C,RGB1*%
X27500000Y-57560000D02*
X26650000Y-57560000D01*
X26650000Y-57560000D02*
X26650000Y-58310000D01*
D12*
%TO.C,D60*%
X238700000Y-98100000D02*
X239500000Y-98100000D01*
X238200000Y-97100038D02*
X238200000Y-97600000D01*
X238700000Y-96600000D02*
X239500000Y-96600000D01*
X240000000Y-97599962D02*
X240000000Y-97100000D01*
D10*
G36*
X239100000Y-98600000D02*
G01*
X238500000Y-99400000D01*
X239700000Y-99400000D01*
X239100000Y-98600000D01*
G37*
X239100000Y-98600000D02*
X238500000Y-99400000D01*
X239700000Y-99400000D01*
X239100000Y-98600000D01*
D12*
X238200000Y-97600000D02*
G75*
G03*
X238700000Y-98100000I500000J0D01*
G01*
X238700000Y-96600000D02*
G75*
G03*
X238200000Y-97100000I0J-500000D01*
G01*
X240000000Y-97100000D02*
G75*
G03*
X239500000Y-96600000I-500000J0D01*
G01*
X239500000Y-98100000D02*
G75*
G03*
X240000000Y-97600000I0J500000D01*
G01*
%TO.C,D59*%
X258700000Y-79100000D02*
X259500000Y-79100000D01*
X258200000Y-78100038D02*
X258200000Y-78600000D01*
X258700000Y-77600000D02*
X259500000Y-77600000D01*
X260000000Y-78599962D02*
X260000000Y-78100000D01*
D10*
G36*
X259100000Y-79600000D02*
G01*
X258500000Y-80400000D01*
X259700000Y-80400000D01*
X259100000Y-79600000D01*
G37*
X259100000Y-79600000D02*
X258500000Y-80400000D01*
X259700000Y-80400000D01*
X259100000Y-79600000D01*
D12*
X258200000Y-78600000D02*
G75*
G03*
X258700000Y-79100000I500000J0D01*
G01*
X258700000Y-77600000D02*
G75*
G03*
X258200000Y-78100000I0J-500000D01*
G01*
X260000000Y-78100000D02*
G75*
G03*
X259500000Y-77600000I-500000J0D01*
G01*
X259500000Y-79100000D02*
G75*
G03*
X260000000Y-78600000I0J500000D01*
G01*
%TO.C,D58*%
X258700000Y-62100000D02*
X259500000Y-62100000D01*
X258200000Y-61100038D02*
X258200000Y-61600000D01*
X258700000Y-60600000D02*
X259500000Y-60600000D01*
X260000000Y-61599962D02*
X260000000Y-61100000D01*
D10*
G36*
X259100000Y-62600000D02*
G01*
X258500000Y-63400000D01*
X259700000Y-63400000D01*
X259100000Y-62600000D01*
G37*
X259100000Y-62600000D02*
X258500000Y-63400000D01*
X259700000Y-63400000D01*
X259100000Y-62600000D01*
D12*
X258200000Y-61600000D02*
G75*
G03*
X258700000Y-62100000I500000J0D01*
G01*
X258700000Y-60600000D02*
G75*
G03*
X258200000Y-61100000I0J-500000D01*
G01*
X260000000Y-61100000D02*
G75*
G03*
X259500000Y-60600000I-500000J0D01*
G01*
X259500000Y-62100000D02*
G75*
G03*
X260000000Y-61600000I0J500000D01*
G01*
%TO.C,D57*%
X258700000Y-45100000D02*
X259500000Y-45100000D01*
X258200000Y-44100038D02*
X258200000Y-44600000D01*
X258700000Y-43600000D02*
X259500000Y-43600000D01*
X260000000Y-44599962D02*
X260000000Y-44100000D01*
D10*
G36*
X259100000Y-45600000D02*
G01*
X258500000Y-46400000D01*
X259700000Y-46400000D01*
X259100000Y-45600000D01*
G37*
X259100000Y-45600000D02*
X258500000Y-46400000D01*
X259700000Y-46400000D01*
X259100000Y-45600000D01*
D12*
X258200000Y-44600000D02*
G75*
G03*
X258700000Y-45100000I500000J0D01*
G01*
X258700000Y-43600000D02*
G75*
G03*
X258200000Y-44100000I0J-500000D01*
G01*
X260000000Y-44100000D02*
G75*
G03*
X259500000Y-43600000I-500000J0D01*
G01*
X259500000Y-45100000D02*
G75*
G03*
X260000000Y-44600000I0J500000D01*
G01*
%TO.C,D55*%
X220700000Y-98100000D02*
X221500000Y-98100000D01*
X220200000Y-97100038D02*
X220200000Y-97600000D01*
X220700000Y-96600000D02*
X221500000Y-96600000D01*
X222000000Y-97599962D02*
X222000000Y-97100000D01*
D10*
G36*
X221100000Y-98600000D02*
G01*
X220500000Y-99400000D01*
X221700000Y-99400000D01*
X221100000Y-98600000D01*
G37*
X221100000Y-98600000D02*
X220500000Y-99400000D01*
X221700000Y-99400000D01*
X221100000Y-98600000D01*
D12*
X220200000Y-97600000D02*
G75*
G03*
X220700000Y-98100000I500000J0D01*
G01*
X220700000Y-96600000D02*
G75*
G03*
X220200000Y-97100000I0J-500000D01*
G01*
X222000000Y-97100000D02*
G75*
G03*
X221500000Y-96600000I-500000J0D01*
G01*
X221500000Y-98100000D02*
G75*
G03*
X222000000Y-97600000I0J500000D01*
G01*
%TO.C,D54*%
X255700000Y-79100000D02*
X256500000Y-79100000D01*
X255200000Y-78100038D02*
X255200000Y-78600000D01*
X255700000Y-77600000D02*
X256500000Y-77600000D01*
X257000000Y-78599962D02*
X257000000Y-78100000D01*
D10*
G36*
X256100000Y-79600000D02*
G01*
X255500000Y-80400000D01*
X256700000Y-80400000D01*
X256100000Y-79600000D01*
G37*
X256100000Y-79600000D02*
X255500000Y-80400000D01*
X256700000Y-80400000D01*
X256100000Y-79600000D01*
D12*
X255200000Y-78600000D02*
G75*
G03*
X255700000Y-79100000I500000J0D01*
G01*
X255700000Y-77600000D02*
G75*
G03*
X255200000Y-78100000I0J-500000D01*
G01*
X257000000Y-78100000D02*
G75*
G03*
X256500000Y-77600000I-500000J0D01*
G01*
X256500000Y-79100000D02*
G75*
G03*
X257000000Y-78600000I0J500000D01*
G01*
%TO.C,D53*%
X255700000Y-62100000D02*
X256500000Y-62100000D01*
X255200000Y-61100038D02*
X255200000Y-61600000D01*
X255700000Y-60600000D02*
X256500000Y-60600000D01*
X257000000Y-61599962D02*
X257000000Y-61100000D01*
D10*
G36*
X256100000Y-62600000D02*
G01*
X255500000Y-63400000D01*
X256700000Y-63400000D01*
X256100000Y-62600000D01*
G37*
X256100000Y-62600000D02*
X255500000Y-63400000D01*
X256700000Y-63400000D01*
X256100000Y-62600000D01*
D12*
X255200000Y-61600000D02*
G75*
G03*
X255700000Y-62100000I500000J0D01*
G01*
X255700000Y-60600000D02*
G75*
G03*
X255200000Y-61100000I0J-500000D01*
G01*
X257000000Y-61100000D02*
G75*
G03*
X256500000Y-60600000I-500000J0D01*
G01*
X256500000Y-62100000D02*
G75*
G03*
X257000000Y-61600000I0J500000D01*
G01*
%TO.C,D52*%
X255700000Y-45100000D02*
X256500000Y-45100000D01*
X255200000Y-44100038D02*
X255200000Y-44600000D01*
X255700000Y-43600000D02*
X256500000Y-43600000D01*
X257000000Y-44599962D02*
X257000000Y-44100000D01*
D10*
G36*
X256100000Y-45600000D02*
G01*
X255500000Y-46400000D01*
X256700000Y-46400000D01*
X256100000Y-45600000D01*
G37*
X256100000Y-45600000D02*
X255500000Y-46400000D01*
X256700000Y-46400000D01*
X256100000Y-45600000D01*
D12*
X255200000Y-44600000D02*
G75*
G03*
X255700000Y-45100000I500000J0D01*
G01*
X255700000Y-43600000D02*
G75*
G03*
X255200000Y-44100000I0J-500000D01*
G01*
X257000000Y-44100000D02*
G75*
G03*
X256500000Y-43600000I-500000J0D01*
G01*
X256500000Y-45100000D02*
G75*
G03*
X257000000Y-44600000I0J500000D01*
G01*
%TO.C,D50*%
X202700000Y-98100000D02*
X203500000Y-98100000D01*
X202200000Y-97100038D02*
X202200000Y-97600000D01*
X202700000Y-96600000D02*
X203500000Y-96600000D01*
X204000000Y-97599962D02*
X204000000Y-97100000D01*
D10*
G36*
X203100000Y-98600000D02*
G01*
X202500000Y-99400000D01*
X203700000Y-99400000D01*
X203100000Y-98600000D01*
G37*
X203100000Y-98600000D02*
X202500000Y-99400000D01*
X203700000Y-99400000D01*
X203100000Y-98600000D01*
D12*
X202200000Y-97600000D02*
G75*
G03*
X202700000Y-98100000I500000J0D01*
G01*
X202700000Y-96600000D02*
G75*
G03*
X202200000Y-97100000I0J-500000D01*
G01*
X204000000Y-97100000D02*
G75*
G03*
X203500000Y-96600000I-500000J0D01*
G01*
X203500000Y-98100000D02*
G75*
G03*
X204000000Y-97600000I0J500000D01*
G01*
%TO.C,D49*%
X237700000Y-79100000D02*
X238500000Y-79100000D01*
X237200000Y-78100038D02*
X237200000Y-78600000D01*
X237700000Y-77600000D02*
X238500000Y-77600000D01*
X239000000Y-78599962D02*
X239000000Y-78100000D01*
D10*
G36*
X238100000Y-79600000D02*
G01*
X237500000Y-80400000D01*
X238700000Y-80400000D01*
X238100000Y-79600000D01*
G37*
X238100000Y-79600000D02*
X237500000Y-80400000D01*
X238700000Y-80400000D01*
X238100000Y-79600000D01*
D12*
X237200000Y-78600000D02*
G75*
G03*
X237700000Y-79100000I500000J0D01*
G01*
X237700000Y-77600000D02*
G75*
G03*
X237200000Y-78100000I0J-500000D01*
G01*
X239000000Y-78100000D02*
G75*
G03*
X238500000Y-77600000I-500000J0D01*
G01*
X238500000Y-79100000D02*
G75*
G03*
X239000000Y-78600000I0J500000D01*
G01*
%TO.C,D48*%
X237700000Y-62100000D02*
X238500000Y-62100000D01*
X237200000Y-61100038D02*
X237200000Y-61600000D01*
X237700000Y-60600000D02*
X238500000Y-60600000D01*
X239000000Y-61599962D02*
X239000000Y-61100000D01*
D10*
G36*
X238100000Y-62600000D02*
G01*
X237500000Y-63400000D01*
X238700000Y-63400000D01*
X238100000Y-62600000D01*
G37*
X238100000Y-62600000D02*
X237500000Y-63400000D01*
X238700000Y-63400000D01*
X238100000Y-62600000D01*
D12*
X237200000Y-61600000D02*
G75*
G03*
X237700000Y-62100000I500000J0D01*
G01*
X237700000Y-60600000D02*
G75*
G03*
X237200000Y-61100000I0J-500000D01*
G01*
X239000000Y-61100000D02*
G75*
G03*
X238500000Y-60600000I-500000J0D01*
G01*
X238500000Y-62100000D02*
G75*
G03*
X239000000Y-61600000I0J500000D01*
G01*
%TO.C,D47*%
X237700000Y-45100000D02*
X238500000Y-45100000D01*
X237200000Y-44100038D02*
X237200000Y-44600000D01*
X237700000Y-43600000D02*
X238500000Y-43600000D01*
X239000000Y-44599962D02*
X239000000Y-44100000D01*
D10*
G36*
X238100000Y-45600000D02*
G01*
X237500000Y-46400000D01*
X238700000Y-46400000D01*
X238100000Y-45600000D01*
G37*
X238100000Y-45600000D02*
X237500000Y-46400000D01*
X238700000Y-46400000D01*
X238100000Y-45600000D01*
D12*
X237200000Y-44600000D02*
G75*
G03*
X237700000Y-45100000I500000J0D01*
G01*
X237700000Y-43600000D02*
G75*
G03*
X237200000Y-44100000I0J-500000D01*
G01*
X239000000Y-44100000D02*
G75*
G03*
X238500000Y-43600000I-500000J0D01*
G01*
X238500000Y-45100000D02*
G75*
G03*
X239000000Y-44600000I0J500000D01*
G01*
%TO.C,D45*%
X184700000Y-98100000D02*
X185500000Y-98100000D01*
X184200000Y-97100038D02*
X184200000Y-97600000D01*
X184700000Y-96600000D02*
X185500000Y-96600000D01*
X186000000Y-97599962D02*
X186000000Y-97100000D01*
D10*
G36*
X185100000Y-98600000D02*
G01*
X184500000Y-99400000D01*
X185700000Y-99400000D01*
X185100000Y-98600000D01*
G37*
X185100000Y-98600000D02*
X184500000Y-99400000D01*
X185700000Y-99400000D01*
X185100000Y-98600000D01*
D12*
X184200000Y-97600000D02*
G75*
G03*
X184700000Y-98100000I500000J0D01*
G01*
X184700000Y-96600000D02*
G75*
G03*
X184200000Y-97100000I0J-500000D01*
G01*
X186000000Y-97100000D02*
G75*
G03*
X185500000Y-96600000I-500000J0D01*
G01*
X185500000Y-98100000D02*
G75*
G03*
X186000000Y-97600000I0J500000D01*
G01*
%TO.C,D44*%
X219700000Y-79100000D02*
X220500000Y-79100000D01*
X219200000Y-78100038D02*
X219200000Y-78600000D01*
X219700000Y-77600000D02*
X220500000Y-77600000D01*
X221000000Y-78599962D02*
X221000000Y-78100000D01*
D10*
G36*
X220100000Y-79600000D02*
G01*
X219500000Y-80400000D01*
X220700000Y-80400000D01*
X220100000Y-79600000D01*
G37*
X220100000Y-79600000D02*
X219500000Y-80400000D01*
X220700000Y-80400000D01*
X220100000Y-79600000D01*
D12*
X219200000Y-78600000D02*
G75*
G03*
X219700000Y-79100000I500000J0D01*
G01*
X219700000Y-77600000D02*
G75*
G03*
X219200000Y-78100000I0J-500000D01*
G01*
X221000000Y-78100000D02*
G75*
G03*
X220500000Y-77600000I-500000J0D01*
G01*
X220500000Y-79100000D02*
G75*
G03*
X221000000Y-78600000I0J500000D01*
G01*
%TO.C,D43*%
X219700000Y-62100000D02*
X220500000Y-62100000D01*
X219200000Y-61100038D02*
X219200000Y-61600000D01*
X219700000Y-60600000D02*
X220500000Y-60600000D01*
X221000000Y-61599962D02*
X221000000Y-61100000D01*
D10*
G36*
X220100000Y-62600000D02*
G01*
X219500000Y-63400000D01*
X220700000Y-63400000D01*
X220100000Y-62600000D01*
G37*
X220100000Y-62600000D02*
X219500000Y-63400000D01*
X220700000Y-63400000D01*
X220100000Y-62600000D01*
D12*
X219200000Y-61600000D02*
G75*
G03*
X219700000Y-62100000I500000J0D01*
G01*
X219700000Y-60600000D02*
G75*
G03*
X219200000Y-61100000I0J-500000D01*
G01*
X221000000Y-61100000D02*
G75*
G03*
X220500000Y-60600000I-500000J0D01*
G01*
X220500000Y-62100000D02*
G75*
G03*
X221000000Y-61600000I0J500000D01*
G01*
%TO.C,D42*%
X219700000Y-45100000D02*
X220500000Y-45100000D01*
X219200000Y-44100038D02*
X219200000Y-44600000D01*
X219700000Y-43600000D02*
X220500000Y-43600000D01*
X221000000Y-44599962D02*
X221000000Y-44100000D01*
D10*
G36*
X220100000Y-45600000D02*
G01*
X219500000Y-46400000D01*
X220700000Y-46400000D01*
X220100000Y-45600000D01*
G37*
X220100000Y-45600000D02*
X219500000Y-46400000D01*
X220700000Y-46400000D01*
X220100000Y-45600000D01*
D12*
X219200000Y-44600000D02*
G75*
G03*
X219700000Y-45100000I500000J0D01*
G01*
X219700000Y-43600000D02*
G75*
G03*
X219200000Y-44100000I0J-500000D01*
G01*
X221000000Y-44100000D02*
G75*
G03*
X220500000Y-43600000I-500000J0D01*
G01*
X220500000Y-45100000D02*
G75*
G03*
X221000000Y-44600000I0J500000D01*
G01*
%TO.C,D40*%
X166700000Y-98100000D02*
X167500000Y-98100000D01*
X166200000Y-97100038D02*
X166200000Y-97600000D01*
X166700000Y-96600000D02*
X167500000Y-96600000D01*
X168000000Y-97599962D02*
X168000000Y-97100000D01*
D10*
G36*
X167100000Y-98600000D02*
G01*
X166500000Y-99400000D01*
X167700000Y-99400000D01*
X167100000Y-98600000D01*
G37*
X167100000Y-98600000D02*
X166500000Y-99400000D01*
X167700000Y-99400000D01*
X167100000Y-98600000D01*
D12*
X166200000Y-97600000D02*
G75*
G03*
X166700000Y-98100000I500000J0D01*
G01*
X166700000Y-96600000D02*
G75*
G03*
X166200000Y-97100000I0J-500000D01*
G01*
X168000000Y-97100000D02*
G75*
G03*
X167500000Y-96600000I-500000J0D01*
G01*
X167500000Y-98100000D02*
G75*
G03*
X168000000Y-97600000I0J500000D01*
G01*
%TO.C,D39*%
X201700000Y-79100000D02*
X202500000Y-79100000D01*
X201200000Y-78100038D02*
X201200000Y-78600000D01*
X201700000Y-77600000D02*
X202500000Y-77600000D01*
X203000000Y-78599962D02*
X203000000Y-78100000D01*
D10*
G36*
X202100000Y-79600000D02*
G01*
X201500000Y-80400000D01*
X202700000Y-80400000D01*
X202100000Y-79600000D01*
G37*
X202100000Y-79600000D02*
X201500000Y-80400000D01*
X202700000Y-80400000D01*
X202100000Y-79600000D01*
D12*
X201200000Y-78600000D02*
G75*
G03*
X201700000Y-79100000I500000J0D01*
G01*
X201700000Y-77600000D02*
G75*
G03*
X201200000Y-78100000I0J-500000D01*
G01*
X203000000Y-78100000D02*
G75*
G03*
X202500000Y-77600000I-500000J0D01*
G01*
X202500000Y-79100000D02*
G75*
G03*
X203000000Y-78600000I0J500000D01*
G01*
%TO.C,D38*%
X201700000Y-62100000D02*
X202500000Y-62100000D01*
X201200000Y-61100038D02*
X201200000Y-61600000D01*
X201700000Y-60600000D02*
X202500000Y-60600000D01*
X203000000Y-61599962D02*
X203000000Y-61100000D01*
D10*
G36*
X202100000Y-62600000D02*
G01*
X201500000Y-63400000D01*
X202700000Y-63400000D01*
X202100000Y-62600000D01*
G37*
X202100000Y-62600000D02*
X201500000Y-63400000D01*
X202700000Y-63400000D01*
X202100000Y-62600000D01*
D12*
X201200000Y-61600000D02*
G75*
G03*
X201700000Y-62100000I500000J0D01*
G01*
X201700000Y-60600000D02*
G75*
G03*
X201200000Y-61100000I0J-500000D01*
G01*
X203000000Y-61100000D02*
G75*
G03*
X202500000Y-60600000I-500000J0D01*
G01*
X202500000Y-62100000D02*
G75*
G03*
X203000000Y-61600000I0J500000D01*
G01*
%TO.C,D37*%
X201700000Y-45100000D02*
X202500000Y-45100000D01*
X201200000Y-44100038D02*
X201200000Y-44600000D01*
X201700000Y-43600000D02*
X202500000Y-43600000D01*
X203000000Y-44599962D02*
X203000000Y-44100000D01*
D10*
G36*
X202100000Y-45600000D02*
G01*
X201500000Y-46400000D01*
X202700000Y-46400000D01*
X202100000Y-45600000D01*
G37*
X202100000Y-45600000D02*
X201500000Y-46400000D01*
X202700000Y-46400000D01*
X202100000Y-45600000D01*
D12*
X201200000Y-44600000D02*
G75*
G03*
X201700000Y-45100000I500000J0D01*
G01*
X201700000Y-43600000D02*
G75*
G03*
X201200000Y-44100000I0J-500000D01*
G01*
X203000000Y-44100000D02*
G75*
G03*
X202500000Y-43600000I-500000J0D01*
G01*
X202500000Y-45100000D02*
G75*
G03*
X203000000Y-44600000I0J500000D01*
G01*
%TO.C,D35*%
X149600000Y-98100000D02*
X150400000Y-98100000D01*
X149100000Y-97100038D02*
X149100000Y-97600000D01*
X149600000Y-96600000D02*
X150400000Y-96600000D01*
X150900000Y-97599962D02*
X150900000Y-97100000D01*
D10*
G36*
X150000000Y-98600000D02*
G01*
X149400000Y-99400000D01*
X150600000Y-99400000D01*
X150000000Y-98600000D01*
G37*
X150000000Y-98600000D02*
X149400000Y-99400000D01*
X150600000Y-99400000D01*
X150000000Y-98600000D01*
D12*
X149100000Y-97600000D02*
G75*
G03*
X149600000Y-98100000I500000J0D01*
G01*
X149600000Y-96600000D02*
G75*
G03*
X149100000Y-97100000I0J-500000D01*
G01*
X150900000Y-97100000D02*
G75*
G03*
X150400000Y-96600000I-500000J0D01*
G01*
X150400000Y-98100000D02*
G75*
G03*
X150900000Y-97600000I0J500000D01*
G01*
%TO.C,D34*%
X183700000Y-79100000D02*
X184500000Y-79100000D01*
X183200000Y-78100038D02*
X183200000Y-78600000D01*
X183700000Y-77600000D02*
X184500000Y-77600000D01*
X185000000Y-78599962D02*
X185000000Y-78100000D01*
D10*
G36*
X184100000Y-79600000D02*
G01*
X183500000Y-80400000D01*
X184700000Y-80400000D01*
X184100000Y-79600000D01*
G37*
X184100000Y-79600000D02*
X183500000Y-80400000D01*
X184700000Y-80400000D01*
X184100000Y-79600000D01*
D12*
X183200000Y-78600000D02*
G75*
G03*
X183700000Y-79100000I500000J0D01*
G01*
X183700000Y-77600000D02*
G75*
G03*
X183200000Y-78100000I0J-500000D01*
G01*
X185000000Y-78100000D02*
G75*
G03*
X184500000Y-77600000I-500000J0D01*
G01*
X184500000Y-79100000D02*
G75*
G03*
X185000000Y-78600000I0J500000D01*
G01*
%TO.C,D33*%
X183700000Y-62100000D02*
X184500000Y-62100000D01*
X183200000Y-61100038D02*
X183200000Y-61600000D01*
X183700000Y-60600000D02*
X184500000Y-60600000D01*
X185000000Y-61599962D02*
X185000000Y-61100000D01*
D10*
G36*
X184100000Y-62600000D02*
G01*
X183500000Y-63400000D01*
X184700000Y-63400000D01*
X184100000Y-62600000D01*
G37*
X184100000Y-62600000D02*
X183500000Y-63400000D01*
X184700000Y-63400000D01*
X184100000Y-62600000D01*
D12*
X183200000Y-61600000D02*
G75*
G03*
X183700000Y-62100000I500000J0D01*
G01*
X183700000Y-60600000D02*
G75*
G03*
X183200000Y-61100000I0J-500000D01*
G01*
X185000000Y-61100000D02*
G75*
G03*
X184500000Y-60600000I-500000J0D01*
G01*
X184500000Y-62100000D02*
G75*
G03*
X185000000Y-61600000I0J500000D01*
G01*
%TO.C,D32*%
X183700000Y-45100000D02*
X184500000Y-45100000D01*
X183200000Y-44100038D02*
X183200000Y-44600000D01*
X183700000Y-43600000D02*
X184500000Y-43600000D01*
X185000000Y-44599962D02*
X185000000Y-44100000D01*
D10*
G36*
X184100000Y-45600000D02*
G01*
X183500000Y-46400000D01*
X184700000Y-46400000D01*
X184100000Y-45600000D01*
G37*
X184100000Y-45600000D02*
X183500000Y-46400000D01*
X184700000Y-46400000D01*
X184100000Y-45600000D01*
D12*
X183200000Y-44600000D02*
G75*
G03*
X183700000Y-45100000I500000J0D01*
G01*
X183700000Y-43600000D02*
G75*
G03*
X183200000Y-44100000I0J-500000D01*
G01*
X185000000Y-44100000D02*
G75*
G03*
X184500000Y-43600000I-500000J0D01*
G01*
X184500000Y-45100000D02*
G75*
G03*
X185000000Y-44600000I0J500000D01*
G01*
%TO.C,D30*%
X147250000Y-98100000D02*
X148050000Y-98100000D01*
X146750000Y-97100038D02*
X146750000Y-97600000D01*
X147250000Y-96600000D02*
X148050000Y-96600000D01*
X148550000Y-97599962D02*
X148550000Y-97100000D01*
D10*
G36*
X147650000Y-98600000D02*
G01*
X147050000Y-99400000D01*
X148250000Y-99400000D01*
X147650000Y-98600000D01*
G37*
X147650000Y-98600000D02*
X147050000Y-99400000D01*
X148250000Y-99400000D01*
X147650000Y-98600000D01*
D12*
X146750000Y-97600000D02*
G75*
G03*
X147250000Y-98100000I500000J0D01*
G01*
X147250000Y-96600000D02*
G75*
G03*
X146750000Y-97100000I0J-500000D01*
G01*
X148550000Y-97100000D02*
G75*
G03*
X148050000Y-96600000I-500000J0D01*
G01*
X148050000Y-98100000D02*
G75*
G03*
X148550000Y-97600000I0J500000D01*
G01*
%TO.C,D29*%
X129700000Y-79100000D02*
X130500000Y-79100000D01*
X129200000Y-78100038D02*
X129200000Y-78600000D01*
X129700000Y-77600000D02*
X130500000Y-77600000D01*
X131000000Y-78599962D02*
X131000000Y-78100000D01*
D10*
G36*
X130100000Y-79600000D02*
G01*
X129500000Y-80400000D01*
X130700000Y-80400000D01*
X130100000Y-79600000D01*
G37*
X130100000Y-79600000D02*
X129500000Y-80400000D01*
X130700000Y-80400000D01*
X130100000Y-79600000D01*
D12*
X129200000Y-78600000D02*
G75*
G03*
X129700000Y-79100000I500000J0D01*
G01*
X129700000Y-77600000D02*
G75*
G03*
X129200000Y-78100000I0J-500000D01*
G01*
X131000000Y-78100000D02*
G75*
G03*
X130500000Y-77600000I-500000J0D01*
G01*
X130500000Y-79100000D02*
G75*
G03*
X131000000Y-78600000I0J500000D01*
G01*
%TO.C,D28*%
X129700000Y-62100000D02*
X130500000Y-62100000D01*
X129200000Y-61100038D02*
X129200000Y-61600000D01*
X129700000Y-60600000D02*
X130500000Y-60600000D01*
X131000000Y-61599962D02*
X131000000Y-61100000D01*
D10*
G36*
X130100000Y-62600000D02*
G01*
X129500000Y-63400000D01*
X130700000Y-63400000D01*
X130100000Y-62600000D01*
G37*
X130100000Y-62600000D02*
X129500000Y-63400000D01*
X130700000Y-63400000D01*
X130100000Y-62600000D01*
D12*
X129200000Y-61600000D02*
G75*
G03*
X129700000Y-62100000I500000J0D01*
G01*
X129700000Y-60600000D02*
G75*
G03*
X129200000Y-61100000I0J-500000D01*
G01*
X131000000Y-61100000D02*
G75*
G03*
X130500000Y-60600000I-500000J0D01*
G01*
X130500000Y-62100000D02*
G75*
G03*
X131000000Y-61600000I0J500000D01*
G01*
%TO.C,D25*%
X129250000Y-98100000D02*
X130050000Y-98100000D01*
X128750000Y-97100038D02*
X128750000Y-97600000D01*
X129250000Y-96600000D02*
X130050000Y-96600000D01*
X130550000Y-97599962D02*
X130550000Y-97100000D01*
D10*
G36*
X129650000Y-98600000D02*
G01*
X129050000Y-99400000D01*
X130250000Y-99400000D01*
X129650000Y-98600000D01*
G37*
X129650000Y-98600000D02*
X129050000Y-99400000D01*
X130250000Y-99400000D01*
X129650000Y-98600000D01*
D12*
X128750000Y-97600000D02*
G75*
G03*
X129250000Y-98100000I500000J0D01*
G01*
X129250000Y-96600000D02*
G75*
G03*
X128750000Y-97100000I0J-500000D01*
G01*
X130550000Y-97100000D02*
G75*
G03*
X130050000Y-96600000I-500000J0D01*
G01*
X130050000Y-98100000D02*
G75*
G03*
X130550000Y-97600000I0J500000D01*
G01*
%TO.C,D24*%
X111700000Y-79100000D02*
X112500000Y-79100000D01*
X111200000Y-78100038D02*
X111200000Y-78600000D01*
X111700000Y-77600000D02*
X112500000Y-77600000D01*
X113000000Y-78599962D02*
X113000000Y-78100000D01*
D10*
G36*
X112100000Y-79600000D02*
G01*
X111500000Y-80400000D01*
X112700000Y-80400000D01*
X112100000Y-79600000D01*
G37*
X112100000Y-79600000D02*
X111500000Y-80400000D01*
X112700000Y-80400000D01*
X112100000Y-79600000D01*
D12*
X111200000Y-78600000D02*
G75*
G03*
X111700000Y-79100000I500000J0D01*
G01*
X111700000Y-77600000D02*
G75*
G03*
X111200000Y-78100000I0J-500000D01*
G01*
X113000000Y-78100000D02*
G75*
G03*
X112500000Y-77600000I-500000J0D01*
G01*
X112500000Y-79100000D02*
G75*
G03*
X113000000Y-78600000I0J500000D01*
G01*
%TO.C,D23*%
X111700000Y-62100000D02*
X112500000Y-62100000D01*
X111200000Y-61100038D02*
X111200000Y-61600000D01*
X111700000Y-60600000D02*
X112500000Y-60600000D01*
X113000000Y-61599962D02*
X113000000Y-61100000D01*
D10*
G36*
X112100000Y-62600000D02*
G01*
X111500000Y-63400000D01*
X112700000Y-63400000D01*
X112100000Y-62600000D01*
G37*
X112100000Y-62600000D02*
X111500000Y-63400000D01*
X112700000Y-63400000D01*
X112100000Y-62600000D01*
D12*
X111200000Y-61600000D02*
G75*
G03*
X111700000Y-62100000I500000J0D01*
G01*
X111700000Y-60600000D02*
G75*
G03*
X111200000Y-61100000I0J-500000D01*
G01*
X113000000Y-61100000D02*
G75*
G03*
X112500000Y-60600000I-500000J0D01*
G01*
X112500000Y-62100000D02*
G75*
G03*
X113000000Y-61600000I0J500000D01*
G01*
%TO.C,D22*%
X111700000Y-45100000D02*
X112500000Y-45100000D01*
X111200000Y-44100038D02*
X111200000Y-44600000D01*
X111700000Y-43600000D02*
X112500000Y-43600000D01*
X113000000Y-44599962D02*
X113000000Y-44100000D01*
D10*
G36*
X112100000Y-45600000D02*
G01*
X111500000Y-46400000D01*
X112700000Y-46400000D01*
X112100000Y-45600000D01*
G37*
X112100000Y-45600000D02*
X111500000Y-46400000D01*
X112700000Y-46400000D01*
X112100000Y-45600000D01*
D12*
X111200000Y-44600000D02*
G75*
G03*
X111700000Y-45100000I500000J0D01*
G01*
X111700000Y-43600000D02*
G75*
G03*
X111200000Y-44100000I0J-500000D01*
G01*
X113000000Y-44100000D02*
G75*
G03*
X112500000Y-43600000I-500000J0D01*
G01*
X112500000Y-45100000D02*
G75*
G03*
X113000000Y-44600000I0J500000D01*
G01*
%TO.C,D20*%
X111250000Y-98100000D02*
X112050000Y-98100000D01*
X110750000Y-97100038D02*
X110750000Y-97600000D01*
X111250000Y-96600000D02*
X112050000Y-96600000D01*
X112550000Y-97599962D02*
X112550000Y-97100000D01*
D10*
G36*
X111650000Y-98600000D02*
G01*
X111050000Y-99400000D01*
X112250000Y-99400000D01*
X111650000Y-98600000D01*
G37*
X111650000Y-98600000D02*
X111050000Y-99400000D01*
X112250000Y-99400000D01*
X111650000Y-98600000D01*
D12*
X110750000Y-97600000D02*
G75*
G03*
X111250000Y-98100000I500000J0D01*
G01*
X111250000Y-96600000D02*
G75*
G03*
X110750000Y-97100000I0J-500000D01*
G01*
X112550000Y-97100000D02*
G75*
G03*
X112050000Y-96600000I-500000J0D01*
G01*
X112050000Y-98100000D02*
G75*
G03*
X112550000Y-97600000I0J500000D01*
G01*
%TO.C,D19*%
X93700000Y-79100000D02*
X94500000Y-79100000D01*
X93200000Y-78100038D02*
X93200000Y-78600000D01*
X93700000Y-77600000D02*
X94500000Y-77600000D01*
X95000000Y-78599962D02*
X95000000Y-78100000D01*
D10*
G36*
X94100000Y-79600000D02*
G01*
X93500000Y-80400000D01*
X94700000Y-80400000D01*
X94100000Y-79600000D01*
G37*
X94100000Y-79600000D02*
X93500000Y-80400000D01*
X94700000Y-80400000D01*
X94100000Y-79600000D01*
D12*
X93200000Y-78600000D02*
G75*
G03*
X93700000Y-79100000I500000J0D01*
G01*
X93700000Y-77600000D02*
G75*
G03*
X93200000Y-78100000I0J-500000D01*
G01*
X95000000Y-78100000D02*
G75*
G03*
X94500000Y-77600000I-500000J0D01*
G01*
X94500000Y-79100000D02*
G75*
G03*
X95000000Y-78600000I0J500000D01*
G01*
%TO.C,D18*%
X93700000Y-62100000D02*
X94500000Y-62100000D01*
X93200000Y-61100038D02*
X93200000Y-61600000D01*
X93700000Y-60600000D02*
X94500000Y-60600000D01*
X95000000Y-61599962D02*
X95000000Y-61100000D01*
D10*
G36*
X94100000Y-62600000D02*
G01*
X93500000Y-63400000D01*
X94700000Y-63400000D01*
X94100000Y-62600000D01*
G37*
X94100000Y-62600000D02*
X93500000Y-63400000D01*
X94700000Y-63400000D01*
X94100000Y-62600000D01*
D12*
X93200000Y-61600000D02*
G75*
G03*
X93700000Y-62100000I500000J0D01*
G01*
X93700000Y-60600000D02*
G75*
G03*
X93200000Y-61100000I0J-500000D01*
G01*
X95000000Y-61100000D02*
G75*
G03*
X94500000Y-60600000I-500000J0D01*
G01*
X94500000Y-62100000D02*
G75*
G03*
X95000000Y-61600000I0J500000D01*
G01*
%TO.C,D17*%
X93700000Y-45100000D02*
X94500000Y-45100000D01*
X93200000Y-44100038D02*
X93200000Y-44600000D01*
X93700000Y-43600000D02*
X94500000Y-43600000D01*
X95000000Y-44599962D02*
X95000000Y-44100000D01*
D10*
G36*
X94100000Y-45600000D02*
G01*
X93500000Y-46400000D01*
X94700000Y-46400000D01*
X94100000Y-45600000D01*
G37*
X94100000Y-45600000D02*
X93500000Y-46400000D01*
X94700000Y-46400000D01*
X94100000Y-45600000D01*
D12*
X93200000Y-44600000D02*
G75*
G03*
X93700000Y-45100000I500000J0D01*
G01*
X93700000Y-43600000D02*
G75*
G03*
X93200000Y-44100000I0J-500000D01*
G01*
X95000000Y-44100000D02*
G75*
G03*
X94500000Y-43600000I-500000J0D01*
G01*
X94500000Y-45100000D02*
G75*
G03*
X95000000Y-44600000I0J500000D01*
G01*
%TO.C,D15*%
X93250000Y-98100000D02*
X94050000Y-98100000D01*
X92750000Y-97100038D02*
X92750000Y-97600000D01*
X93250000Y-96600000D02*
X94050000Y-96600000D01*
X94550000Y-97599962D02*
X94550000Y-97100000D01*
D10*
G36*
X93650000Y-98600000D02*
G01*
X93050000Y-99400000D01*
X94250000Y-99400000D01*
X93650000Y-98600000D01*
G37*
X93650000Y-98600000D02*
X93050000Y-99400000D01*
X94250000Y-99400000D01*
X93650000Y-98600000D01*
D12*
X92750000Y-97600000D02*
G75*
G03*
X93250000Y-98100000I500000J0D01*
G01*
X93250000Y-96600000D02*
G75*
G03*
X92750000Y-97100000I0J-500000D01*
G01*
X94550000Y-97100000D02*
G75*
G03*
X94050000Y-96600000I-500000J0D01*
G01*
X94050000Y-98100000D02*
G75*
G03*
X94550000Y-97600000I0J500000D01*
G01*
%TO.C,D14*%
X75700000Y-79100000D02*
X76500000Y-79100000D01*
X75200000Y-78100038D02*
X75200000Y-78600000D01*
X75700000Y-77600000D02*
X76500000Y-77600000D01*
X77000000Y-78599962D02*
X77000000Y-78100000D01*
D10*
G36*
X76100000Y-79600000D02*
G01*
X75500000Y-80400000D01*
X76700000Y-80400000D01*
X76100000Y-79600000D01*
G37*
X76100000Y-79600000D02*
X75500000Y-80400000D01*
X76700000Y-80400000D01*
X76100000Y-79600000D01*
D12*
X75200000Y-78600000D02*
G75*
G03*
X75700000Y-79100000I500000J0D01*
G01*
X75700000Y-77600000D02*
G75*
G03*
X75200000Y-78100000I0J-500000D01*
G01*
X77000000Y-78100000D02*
G75*
G03*
X76500000Y-77600000I-500000J0D01*
G01*
X76500000Y-79100000D02*
G75*
G03*
X77000000Y-78600000I0J500000D01*
G01*
%TO.C,D13*%
X75700000Y-62100000D02*
X76500000Y-62100000D01*
X75200000Y-61100038D02*
X75200000Y-61600000D01*
X75700000Y-60600000D02*
X76500000Y-60600000D01*
X77000000Y-61599962D02*
X77000000Y-61100000D01*
D10*
G36*
X76100000Y-62600000D02*
G01*
X75500000Y-63400000D01*
X76700000Y-63400000D01*
X76100000Y-62600000D01*
G37*
X76100000Y-62600000D02*
X75500000Y-63400000D01*
X76700000Y-63400000D01*
X76100000Y-62600000D01*
D12*
X75200000Y-61600000D02*
G75*
G03*
X75700000Y-62100000I500000J0D01*
G01*
X75700000Y-60600000D02*
G75*
G03*
X75200000Y-61100000I0J-500000D01*
G01*
X77000000Y-61100000D02*
G75*
G03*
X76500000Y-60600000I-500000J0D01*
G01*
X76500000Y-62100000D02*
G75*
G03*
X77000000Y-61600000I0J500000D01*
G01*
%TO.C,D12*%
X75700000Y-45100000D02*
X76500000Y-45100000D01*
X75200000Y-44100038D02*
X75200000Y-44600000D01*
X75700000Y-43600000D02*
X76500000Y-43600000D01*
X77000000Y-44599962D02*
X77000000Y-44100000D01*
D10*
G36*
X76100000Y-45600000D02*
G01*
X75500000Y-46400000D01*
X76700000Y-46400000D01*
X76100000Y-45600000D01*
G37*
X76100000Y-45600000D02*
X75500000Y-46400000D01*
X76700000Y-46400000D01*
X76100000Y-45600000D01*
D12*
X75200000Y-44600000D02*
G75*
G03*
X75700000Y-45100000I500000J0D01*
G01*
X75700000Y-43600000D02*
G75*
G03*
X75200000Y-44100000I0J-500000D01*
G01*
X77000000Y-44100000D02*
G75*
G03*
X76500000Y-43600000I-500000J0D01*
G01*
X76500000Y-45100000D02*
G75*
G03*
X77000000Y-44600000I0J500000D01*
G01*
%TO.C,D10*%
X75250000Y-98100000D02*
X76050000Y-98100000D01*
X74750000Y-97100038D02*
X74750000Y-97600000D01*
X75250000Y-96600000D02*
X76050000Y-96600000D01*
X76550000Y-97599962D02*
X76550000Y-97100000D01*
D10*
G36*
X75650000Y-98600000D02*
G01*
X75050000Y-99400000D01*
X76250000Y-99400000D01*
X75650000Y-98600000D01*
G37*
X75650000Y-98600000D02*
X75050000Y-99400000D01*
X76250000Y-99400000D01*
X75650000Y-98600000D01*
D12*
X74750000Y-97600000D02*
G75*
G03*
X75250000Y-98100000I500000J0D01*
G01*
X75250000Y-96600000D02*
G75*
G03*
X74750000Y-97100000I0J-500000D01*
G01*
X76550000Y-97100000D02*
G75*
G03*
X76050000Y-96600000I-500000J0D01*
G01*
X76050000Y-98100000D02*
G75*
G03*
X76550000Y-97600000I0J500000D01*
G01*
%TO.C,D9*%
X57700000Y-79100000D02*
X58500000Y-79100000D01*
X57200000Y-78100038D02*
X57200000Y-78600000D01*
X57700000Y-77600000D02*
X58500000Y-77600000D01*
X59000000Y-78599962D02*
X59000000Y-78100000D01*
D10*
G36*
X58100000Y-79600000D02*
G01*
X57500000Y-80400000D01*
X58700000Y-80400000D01*
X58100000Y-79600000D01*
G37*
X58100000Y-79600000D02*
X57500000Y-80400000D01*
X58700000Y-80400000D01*
X58100000Y-79600000D01*
D12*
X57200000Y-78600000D02*
G75*
G03*
X57700000Y-79100000I500000J0D01*
G01*
X57700000Y-77600000D02*
G75*
G03*
X57200000Y-78100000I0J-500000D01*
G01*
X59000000Y-78100000D02*
G75*
G03*
X58500000Y-77600000I-500000J0D01*
G01*
X58500000Y-79100000D02*
G75*
G03*
X59000000Y-78600000I0J500000D01*
G01*
%TO.C,D8*%
X57700000Y-62100000D02*
X58500000Y-62100000D01*
X57200000Y-61100038D02*
X57200000Y-61600000D01*
X57700000Y-60600000D02*
X58500000Y-60600000D01*
X59000000Y-61599962D02*
X59000000Y-61100000D01*
D10*
G36*
X58100000Y-62600000D02*
G01*
X57500000Y-63400000D01*
X58700000Y-63400000D01*
X58100000Y-62600000D01*
G37*
X58100000Y-62600000D02*
X57500000Y-63400000D01*
X58700000Y-63400000D01*
X58100000Y-62600000D01*
D12*
X57200000Y-61600000D02*
G75*
G03*
X57700000Y-62100000I500000J0D01*
G01*
X57700000Y-60600000D02*
G75*
G03*
X57200000Y-61100000I0J-500000D01*
G01*
X59000000Y-61100000D02*
G75*
G03*
X58500000Y-60600000I-500000J0D01*
G01*
X58500000Y-62100000D02*
G75*
G03*
X59000000Y-61600000I0J500000D01*
G01*
%TO.C,D7*%
X57700000Y-45100000D02*
X58500000Y-45100000D01*
X57200000Y-44100038D02*
X57200000Y-44600000D01*
X57700000Y-43600000D02*
X58500000Y-43600000D01*
X59000000Y-44599962D02*
X59000000Y-44100000D01*
D10*
G36*
X58100000Y-45600000D02*
G01*
X57500000Y-46400000D01*
X58700000Y-46400000D01*
X58100000Y-45600000D01*
G37*
X58100000Y-45600000D02*
X57500000Y-46400000D01*
X58700000Y-46400000D01*
X58100000Y-45600000D01*
D12*
X57200000Y-44600000D02*
G75*
G03*
X57700000Y-45100000I500000J0D01*
G01*
X57700000Y-43600000D02*
G75*
G03*
X57200000Y-44100000I0J-500000D01*
G01*
X59000000Y-44100000D02*
G75*
G03*
X58500000Y-43600000I-500000J0D01*
G01*
X58500000Y-45100000D02*
G75*
G03*
X59000000Y-44600000I0J500000D01*
G01*
%TO.C,D5*%
X57250000Y-98100000D02*
X58050000Y-98100000D01*
X56750000Y-97100038D02*
X56750000Y-97600000D01*
X57250000Y-96600000D02*
X58050000Y-96600000D01*
X58550000Y-97599962D02*
X58550000Y-97100000D01*
D10*
G36*
X57650000Y-98600000D02*
G01*
X57050000Y-99400000D01*
X58250000Y-99400000D01*
X57650000Y-98600000D01*
G37*
X57650000Y-98600000D02*
X57050000Y-99400000D01*
X58250000Y-99400000D01*
X57650000Y-98600000D01*
D12*
X56750000Y-97600000D02*
G75*
G03*
X57250000Y-98100000I500000J0D01*
G01*
X57250000Y-96600000D02*
G75*
G03*
X56750000Y-97100000I0J-500000D01*
G01*
X58550000Y-97100000D02*
G75*
G03*
X58050000Y-96600000I-500000J0D01*
G01*
X58050000Y-98100000D02*
G75*
G03*
X58550000Y-97600000I0J500000D01*
G01*
%TO.C,D4*%
X37700000Y-79100000D02*
X38500000Y-79100000D01*
X37200000Y-78100038D02*
X37200000Y-78600000D01*
X37700000Y-77600000D02*
X38500000Y-77600000D01*
X39000000Y-78599962D02*
X39000000Y-78100000D01*
D10*
G36*
X38100000Y-79600000D02*
G01*
X37500000Y-80400000D01*
X38700000Y-80400000D01*
X38100000Y-79600000D01*
G37*
X38100000Y-79600000D02*
X37500000Y-80400000D01*
X38700000Y-80400000D01*
X38100000Y-79600000D01*
D12*
X37200000Y-78600000D02*
G75*
G03*
X37700000Y-79100000I500000J0D01*
G01*
X37700000Y-77600000D02*
G75*
G03*
X37200000Y-78100000I0J-500000D01*
G01*
X39000000Y-78100000D02*
G75*
G03*
X38500000Y-77600000I-500000J0D01*
G01*
X38500000Y-79100000D02*
G75*
G03*
X39000000Y-78600000I0J500000D01*
G01*
%TO.C,D3*%
X37700000Y-62100000D02*
X38500000Y-62100000D01*
X37200000Y-61100038D02*
X37200000Y-61600000D01*
X37700000Y-60600000D02*
X38500000Y-60600000D01*
X39000000Y-61599962D02*
X39000000Y-61100000D01*
D10*
G36*
X38100000Y-62600000D02*
G01*
X37500000Y-63400000D01*
X38700000Y-63400000D01*
X38100000Y-62600000D01*
G37*
X38100000Y-62600000D02*
X37500000Y-63400000D01*
X38700000Y-63400000D01*
X38100000Y-62600000D01*
D12*
X37200000Y-61600000D02*
G75*
G03*
X37700000Y-62100000I500000J0D01*
G01*
X37700000Y-60600000D02*
G75*
G03*
X37200000Y-61100000I0J-500000D01*
G01*
X39000000Y-61100000D02*
G75*
G03*
X38500000Y-60600000I-500000J0D01*
G01*
X38500000Y-62100000D02*
G75*
G03*
X39000000Y-61600000I0J500000D01*
G01*
%TO.C,D2*%
X37700000Y-45100000D02*
X38500000Y-45100000D01*
X37200000Y-44100038D02*
X37200000Y-44600000D01*
X37700000Y-43600000D02*
X38500000Y-43600000D01*
X39000000Y-44599962D02*
X39000000Y-44100000D01*
D10*
G36*
X38100000Y-45600000D02*
G01*
X37500000Y-46400000D01*
X38700000Y-46400000D01*
X38100000Y-45600000D01*
G37*
X38100000Y-45600000D02*
X37500000Y-46400000D01*
X38700000Y-46400000D01*
X38100000Y-45600000D01*
D12*
X37200000Y-44600000D02*
G75*
G03*
X37700000Y-45100000I500000J0D01*
G01*
X37700000Y-43600000D02*
G75*
G03*
X37200000Y-44100000I0J-500000D01*
G01*
X39000000Y-44100000D02*
G75*
G03*
X38500000Y-43600000I-500000J0D01*
G01*
X38500000Y-45100000D02*
G75*
G03*
X39000000Y-44600000I0J500000D01*
G01*
%TO.C,MX60*%
X241000000Y-101500000D02*
X241000000Y-102000000D01*
X245500000Y-101500000D02*
X241000000Y-101500000D01*
X245500000Y-102200000D02*
X245500000Y-101500000D01*
X249500000Y-108200000D02*
X246500000Y-108200000D01*
X250000000Y-107700000D02*
X249500000Y-108200000D01*
X250000000Y-104200000D02*
X249500000Y-103700000D01*
X241000000Y-106200000D02*
X245500000Y-106200000D01*
X246000000Y-106700000D02*
X246000000Y-107700000D01*
X246500000Y-108200000D02*
X246000000Y-107700000D01*
X249500000Y-103700000D02*
X247000000Y-103700000D01*
X241000000Y-105600000D02*
X241000000Y-106200000D01*
X245500000Y-106200000D02*
G75*
G02*
X246000000Y-106700000I0J-500000D01*
G01*
X247000000Y-103700000D02*
G75*
G02*
X245500000Y-102200000I0J1500000D01*
G01*
%TO.C,MX59*%
X261000000Y-82500000D02*
X261000000Y-83000000D01*
X265500000Y-82500000D02*
X261000000Y-82500000D01*
X265500000Y-83200000D02*
X265500000Y-82500000D01*
X269500000Y-89200000D02*
X266500000Y-89200000D01*
X270000000Y-88700000D02*
X269500000Y-89200000D01*
X270000000Y-85200000D02*
X269500000Y-84700000D01*
X261000000Y-87200000D02*
X265500000Y-87200000D01*
X266000000Y-87700000D02*
X266000000Y-88700000D01*
X266500000Y-89200000D02*
X266000000Y-88700000D01*
X269500000Y-84700000D02*
X267000000Y-84700000D01*
X261000000Y-86600000D02*
X261000000Y-87200000D01*
X265500000Y-87200000D02*
G75*
G02*
X266000000Y-87700000I0J-500000D01*
G01*
X267000000Y-84700000D02*
G75*
G02*
X265500000Y-83200000I0J1500000D01*
G01*
%TO.C,MX58*%
X261000000Y-65500000D02*
X261000000Y-66000000D01*
X265500000Y-65500000D02*
X261000000Y-65500000D01*
X265500000Y-66200000D02*
X265500000Y-65500000D01*
X269500000Y-72200000D02*
X266500000Y-72200000D01*
X270000000Y-71700000D02*
X269500000Y-72200000D01*
X270000000Y-68200000D02*
X269500000Y-67700000D01*
X261000000Y-70200000D02*
X265500000Y-70200000D01*
X266000000Y-70700000D02*
X266000000Y-71700000D01*
X266500000Y-72200000D02*
X266000000Y-71700000D01*
X269500000Y-67700000D02*
X267000000Y-67700000D01*
X261000000Y-69600000D02*
X261000000Y-70200000D01*
X265500000Y-70200000D02*
G75*
G02*
X266000000Y-70700000I0J-500000D01*
G01*
X267000000Y-67700000D02*
G75*
G02*
X265500000Y-66200000I0J1500000D01*
G01*
%TO.C,MX57*%
X261000000Y-48500000D02*
X261000000Y-49000000D01*
X265500000Y-48500000D02*
X261000000Y-48500000D01*
X265500000Y-49200000D02*
X265500000Y-48500000D01*
X269500000Y-55200000D02*
X266500000Y-55200000D01*
X270000000Y-54700000D02*
X269500000Y-55200000D01*
X270000000Y-51200000D02*
X269500000Y-50700000D01*
X261000000Y-53200000D02*
X265500000Y-53200000D01*
X266000000Y-53700000D02*
X266000000Y-54700000D01*
X266500000Y-55200000D02*
X266000000Y-54700000D01*
X269500000Y-50700000D02*
X267000000Y-50700000D01*
X261000000Y-52600000D02*
X261000000Y-53200000D01*
X265500000Y-53200000D02*
G75*
G02*
X266000000Y-53700000I0J-500000D01*
G01*
X267000000Y-50700000D02*
G75*
G02*
X265500000Y-49200000I0J1500000D01*
G01*
%TO.C,MX55*%
X223000000Y-101500000D02*
X223000000Y-102000000D01*
X227500000Y-101500000D02*
X223000000Y-101500000D01*
X227500000Y-102200000D02*
X227500000Y-101500000D01*
X231500000Y-108200000D02*
X228500000Y-108200000D01*
X232000000Y-107700000D02*
X231500000Y-108200000D01*
X232000000Y-104200000D02*
X231500000Y-103700000D01*
X223000000Y-106200000D02*
X227500000Y-106200000D01*
X228000000Y-106700000D02*
X228000000Y-107700000D01*
X228500000Y-108200000D02*
X228000000Y-107700000D01*
X231500000Y-103700000D02*
X229000000Y-103700000D01*
X223000000Y-105600000D02*
X223000000Y-106200000D01*
X227500000Y-106200000D02*
G75*
G02*
X228000000Y-106700000I0J-500000D01*
G01*
X229000000Y-103700000D02*
G75*
G02*
X227500000Y-102200000I0J1500000D01*
G01*
%TO.C,MX54*%
X241000000Y-82500000D02*
X241000000Y-83000000D01*
X245500000Y-82500000D02*
X241000000Y-82500000D01*
X245500000Y-83200000D02*
X245500000Y-82500000D01*
X249500000Y-89200000D02*
X246500000Y-89200000D01*
X250000000Y-88700000D02*
X249500000Y-89200000D01*
X250000000Y-85200000D02*
X249500000Y-84700000D01*
X241000000Y-87200000D02*
X245500000Y-87200000D01*
X246000000Y-87700000D02*
X246000000Y-88700000D01*
X246500000Y-89200000D02*
X246000000Y-88700000D01*
X249500000Y-84700000D02*
X247000000Y-84700000D01*
X241000000Y-86600000D02*
X241000000Y-87200000D01*
X245500000Y-87200000D02*
G75*
G02*
X246000000Y-87700000I0J-500000D01*
G01*
X247000000Y-84700000D02*
G75*
G02*
X245500000Y-83200000I0J1500000D01*
G01*
%TO.C,MX53*%
X241000000Y-65500000D02*
X241000000Y-66000000D01*
X245500000Y-65500000D02*
X241000000Y-65500000D01*
X245500000Y-66200000D02*
X245500000Y-65500000D01*
X249500000Y-72200000D02*
X246500000Y-72200000D01*
X250000000Y-71700000D02*
X249500000Y-72200000D01*
X250000000Y-68200000D02*
X249500000Y-67700000D01*
X241000000Y-70200000D02*
X245500000Y-70200000D01*
X246000000Y-70700000D02*
X246000000Y-71700000D01*
X246500000Y-72200000D02*
X246000000Y-71700000D01*
X249500000Y-67700000D02*
X247000000Y-67700000D01*
X241000000Y-69600000D02*
X241000000Y-70200000D01*
X245500000Y-70200000D02*
G75*
G02*
X246000000Y-70700000I0J-500000D01*
G01*
X247000000Y-67700000D02*
G75*
G02*
X245500000Y-66200000I0J1500000D01*
G01*
%TO.C,MX52*%
X241000000Y-48500000D02*
X241000000Y-49000000D01*
X245500000Y-48500000D02*
X241000000Y-48500000D01*
X245500000Y-49200000D02*
X245500000Y-48500000D01*
X249500000Y-55200000D02*
X246500000Y-55200000D01*
X250000000Y-54700000D02*
X249500000Y-55200000D01*
X250000000Y-51200000D02*
X249500000Y-50700000D01*
X241000000Y-53200000D02*
X245500000Y-53200000D01*
X246000000Y-53700000D02*
X246000000Y-54700000D01*
X246500000Y-55200000D02*
X246000000Y-54700000D01*
X249500000Y-50700000D02*
X247000000Y-50700000D01*
X241000000Y-52600000D02*
X241000000Y-53200000D01*
X245500000Y-53200000D02*
G75*
G02*
X246000000Y-53700000I0J-500000D01*
G01*
X247000000Y-50700000D02*
G75*
G02*
X245500000Y-49200000I0J1500000D01*
G01*
%TO.C,MX50*%
X205000000Y-101500000D02*
X205000000Y-102000000D01*
X209500000Y-101500000D02*
X205000000Y-101500000D01*
X209500000Y-102200000D02*
X209500000Y-101500000D01*
X213500000Y-108200000D02*
X210500000Y-108200000D01*
X214000000Y-107700000D02*
X213500000Y-108200000D01*
X214000000Y-104200000D02*
X213500000Y-103700000D01*
X205000000Y-106200000D02*
X209500000Y-106200000D01*
X210000000Y-106700000D02*
X210000000Y-107700000D01*
X210500000Y-108200000D02*
X210000000Y-107700000D01*
X213500000Y-103700000D02*
X211000000Y-103700000D01*
X205000000Y-105600000D02*
X205000000Y-106200000D01*
X209500000Y-106200000D02*
G75*
G02*
X210000000Y-106700000I0J-500000D01*
G01*
X211000000Y-103700000D02*
G75*
G02*
X209500000Y-102200000I0J1500000D01*
G01*
%TO.C,MX49*%
X223000000Y-82500000D02*
X223000000Y-83000000D01*
X227500000Y-82500000D02*
X223000000Y-82500000D01*
X227500000Y-83200000D02*
X227500000Y-82500000D01*
X231500000Y-89200000D02*
X228500000Y-89200000D01*
X232000000Y-88700000D02*
X231500000Y-89200000D01*
X232000000Y-85200000D02*
X231500000Y-84700000D01*
X223000000Y-87200000D02*
X227500000Y-87200000D01*
X228000000Y-87700000D02*
X228000000Y-88700000D01*
X228500000Y-89200000D02*
X228000000Y-88700000D01*
X231500000Y-84700000D02*
X229000000Y-84700000D01*
X223000000Y-86600000D02*
X223000000Y-87200000D01*
X227500000Y-87200000D02*
G75*
G02*
X228000000Y-87700000I0J-500000D01*
G01*
X229000000Y-84700000D02*
G75*
G02*
X227500000Y-83200000I0J1500000D01*
G01*
%TO.C,MX48*%
X223000000Y-65500000D02*
X223000000Y-66000000D01*
X227500000Y-65500000D02*
X223000000Y-65500000D01*
X227500000Y-66200000D02*
X227500000Y-65500000D01*
X231500000Y-72200000D02*
X228500000Y-72200000D01*
X232000000Y-71700000D02*
X231500000Y-72200000D01*
X232000000Y-68200000D02*
X231500000Y-67700000D01*
X223000000Y-70200000D02*
X227500000Y-70200000D01*
X228000000Y-70700000D02*
X228000000Y-71700000D01*
X228500000Y-72200000D02*
X228000000Y-71700000D01*
X231500000Y-67700000D02*
X229000000Y-67700000D01*
X223000000Y-69600000D02*
X223000000Y-70200000D01*
X227500000Y-70200000D02*
G75*
G02*
X228000000Y-70700000I0J-500000D01*
G01*
X229000000Y-67700000D02*
G75*
G02*
X227500000Y-66200000I0J1500000D01*
G01*
%TO.C,MX47*%
X223000000Y-48500000D02*
X223000000Y-49000000D01*
X227500000Y-48500000D02*
X223000000Y-48500000D01*
X227500000Y-49200000D02*
X227500000Y-48500000D01*
X231500000Y-55200000D02*
X228500000Y-55200000D01*
X232000000Y-54700000D02*
X231500000Y-55200000D01*
X232000000Y-51200000D02*
X231500000Y-50700000D01*
X223000000Y-53200000D02*
X227500000Y-53200000D01*
X228000000Y-53700000D02*
X228000000Y-54700000D01*
X228500000Y-55200000D02*
X228000000Y-54700000D01*
X231500000Y-50700000D02*
X229000000Y-50700000D01*
X223000000Y-52600000D02*
X223000000Y-53200000D01*
X227500000Y-53200000D02*
G75*
G02*
X228000000Y-53700000I0J-500000D01*
G01*
X229000000Y-50700000D02*
G75*
G02*
X227500000Y-49200000I0J1500000D01*
G01*
%TO.C,MX45*%
X187000000Y-101500000D02*
X187000000Y-102000000D01*
X191500000Y-101500000D02*
X187000000Y-101500000D01*
X191500000Y-102200000D02*
X191500000Y-101500000D01*
X195500000Y-108200000D02*
X192500000Y-108200000D01*
X196000000Y-107700000D02*
X195500000Y-108200000D01*
X196000000Y-104200000D02*
X195500000Y-103700000D01*
X187000000Y-106200000D02*
X191500000Y-106200000D01*
X192000000Y-106700000D02*
X192000000Y-107700000D01*
X192500000Y-108200000D02*
X192000000Y-107700000D01*
X195500000Y-103700000D02*
X193000000Y-103700000D01*
X187000000Y-105600000D02*
X187000000Y-106200000D01*
X191500000Y-106200000D02*
G75*
G02*
X192000000Y-106700000I0J-500000D01*
G01*
X193000000Y-103700000D02*
G75*
G02*
X191500000Y-102200000I0J1500000D01*
G01*
%TO.C,MX44*%
X205000000Y-82500000D02*
X205000000Y-83000000D01*
X209500000Y-82500000D02*
X205000000Y-82500000D01*
X209500000Y-83200000D02*
X209500000Y-82500000D01*
X213500000Y-89200000D02*
X210500000Y-89200000D01*
X214000000Y-88700000D02*
X213500000Y-89200000D01*
X214000000Y-85200000D02*
X213500000Y-84700000D01*
X205000000Y-87200000D02*
X209500000Y-87200000D01*
X210000000Y-87700000D02*
X210000000Y-88700000D01*
X210500000Y-89200000D02*
X210000000Y-88700000D01*
X213500000Y-84700000D02*
X211000000Y-84700000D01*
X205000000Y-86600000D02*
X205000000Y-87200000D01*
X209500000Y-87200000D02*
G75*
G02*
X210000000Y-87700000I0J-500000D01*
G01*
X211000000Y-84700000D02*
G75*
G02*
X209500000Y-83200000I0J1500000D01*
G01*
%TO.C,MX43*%
X205000000Y-65500000D02*
X205000000Y-66000000D01*
X209500000Y-65500000D02*
X205000000Y-65500000D01*
X209500000Y-66200000D02*
X209500000Y-65500000D01*
X213500000Y-72200000D02*
X210500000Y-72200000D01*
X214000000Y-71700000D02*
X213500000Y-72200000D01*
X214000000Y-68200000D02*
X213500000Y-67700000D01*
X205000000Y-70200000D02*
X209500000Y-70200000D01*
X210000000Y-70700000D02*
X210000000Y-71700000D01*
X210500000Y-72200000D02*
X210000000Y-71700000D01*
X213500000Y-67700000D02*
X211000000Y-67700000D01*
X205000000Y-69600000D02*
X205000000Y-70200000D01*
X209500000Y-70200000D02*
G75*
G02*
X210000000Y-70700000I0J-500000D01*
G01*
X211000000Y-67700000D02*
G75*
G02*
X209500000Y-66200000I0J1500000D01*
G01*
%TO.C,MX42*%
X205000000Y-48500000D02*
X205000000Y-49000000D01*
X209500000Y-48500000D02*
X205000000Y-48500000D01*
X209500000Y-49200000D02*
X209500000Y-48500000D01*
X213500000Y-55200000D02*
X210500000Y-55200000D01*
X214000000Y-54700000D02*
X213500000Y-55200000D01*
X214000000Y-51200000D02*
X213500000Y-50700000D01*
X205000000Y-53200000D02*
X209500000Y-53200000D01*
X210000000Y-53700000D02*
X210000000Y-54700000D01*
X210500000Y-55200000D02*
X210000000Y-54700000D01*
X213500000Y-50700000D02*
X211000000Y-50700000D01*
X205000000Y-52600000D02*
X205000000Y-53200000D01*
X209500000Y-53200000D02*
G75*
G02*
X210000000Y-53700000I0J-500000D01*
G01*
X211000000Y-50700000D02*
G75*
G02*
X209500000Y-49200000I0J1500000D01*
G01*
%TO.C,MX40*%
X169000000Y-101500000D02*
X169000000Y-102000000D01*
X173500000Y-101500000D02*
X169000000Y-101500000D01*
X173500000Y-102200000D02*
X173500000Y-101500000D01*
X177500000Y-108200000D02*
X174500000Y-108200000D01*
X178000000Y-107700000D02*
X177500000Y-108200000D01*
X178000000Y-104200000D02*
X177500000Y-103700000D01*
X169000000Y-106200000D02*
X173500000Y-106200000D01*
X174000000Y-106700000D02*
X174000000Y-107700000D01*
X174500000Y-108200000D02*
X174000000Y-107700000D01*
X177500000Y-103700000D02*
X175000000Y-103700000D01*
X169000000Y-105600000D02*
X169000000Y-106200000D01*
X173500000Y-106200000D02*
G75*
G02*
X174000000Y-106700000I0J-500000D01*
G01*
X175000000Y-103700000D02*
G75*
G02*
X173500000Y-102200000I0J1500000D01*
G01*
%TO.C,MX39*%
X187000000Y-82500000D02*
X187000000Y-83000000D01*
X191500000Y-82500000D02*
X187000000Y-82500000D01*
X191500000Y-83200000D02*
X191500000Y-82500000D01*
X195500000Y-89200000D02*
X192500000Y-89200000D01*
X196000000Y-88700000D02*
X195500000Y-89200000D01*
X196000000Y-85200000D02*
X195500000Y-84700000D01*
X187000000Y-87200000D02*
X191500000Y-87200000D01*
X192000000Y-87700000D02*
X192000000Y-88700000D01*
X192500000Y-89200000D02*
X192000000Y-88700000D01*
X195500000Y-84700000D02*
X193000000Y-84700000D01*
X187000000Y-86600000D02*
X187000000Y-87200000D01*
X191500000Y-87200000D02*
G75*
G02*
X192000000Y-87700000I0J-500000D01*
G01*
X193000000Y-84700000D02*
G75*
G02*
X191500000Y-83200000I0J1500000D01*
G01*
%TO.C,MX38*%
X187000000Y-65500000D02*
X187000000Y-66000000D01*
X191500000Y-65500000D02*
X187000000Y-65500000D01*
X191500000Y-66200000D02*
X191500000Y-65500000D01*
X195500000Y-72200000D02*
X192500000Y-72200000D01*
X196000000Y-71700000D02*
X195500000Y-72200000D01*
X196000000Y-68200000D02*
X195500000Y-67700000D01*
X187000000Y-70200000D02*
X191500000Y-70200000D01*
X192000000Y-70700000D02*
X192000000Y-71700000D01*
X192500000Y-72200000D02*
X192000000Y-71700000D01*
X195500000Y-67700000D02*
X193000000Y-67700000D01*
X187000000Y-69600000D02*
X187000000Y-70200000D01*
X191500000Y-70200000D02*
G75*
G02*
X192000000Y-70700000I0J-500000D01*
G01*
X193000000Y-67700000D02*
G75*
G02*
X191500000Y-66200000I0J1500000D01*
G01*
%TO.C,MX37*%
X187000000Y-48500000D02*
X187000000Y-49000000D01*
X191500000Y-48500000D02*
X187000000Y-48500000D01*
X191500000Y-49200000D02*
X191500000Y-48500000D01*
X195500000Y-55200000D02*
X192500000Y-55200000D01*
X196000000Y-54700000D02*
X195500000Y-55200000D01*
X196000000Y-51200000D02*
X195500000Y-50700000D01*
X187000000Y-53200000D02*
X191500000Y-53200000D01*
X192000000Y-53700000D02*
X192000000Y-54700000D01*
X192500000Y-55200000D02*
X192000000Y-54700000D01*
X195500000Y-50700000D02*
X193000000Y-50700000D01*
X187000000Y-52600000D02*
X187000000Y-53200000D01*
X191500000Y-53200000D02*
G75*
G02*
X192000000Y-53700000I0J-500000D01*
G01*
X193000000Y-50700000D02*
G75*
G02*
X191500000Y-49200000I0J1500000D01*
G01*
%TO.C,MX35*%
X151000000Y-101500000D02*
X151000000Y-102000000D01*
X155500000Y-101500000D02*
X151000000Y-101500000D01*
X155500000Y-102200000D02*
X155500000Y-101500000D01*
X159500000Y-108200000D02*
X156500000Y-108200000D01*
X160000000Y-107700000D02*
X159500000Y-108200000D01*
X160000000Y-104200000D02*
X159500000Y-103700000D01*
X151000000Y-106200000D02*
X155500000Y-106200000D01*
X156000000Y-106700000D02*
X156000000Y-107700000D01*
X156500000Y-108200000D02*
X156000000Y-107700000D01*
X159500000Y-103700000D02*
X157000000Y-103700000D01*
X151000000Y-105600000D02*
X151000000Y-106200000D01*
X155500000Y-106200000D02*
G75*
G02*
X156000000Y-106700000I0J-500000D01*
G01*
X157000000Y-103700000D02*
G75*
G02*
X155500000Y-102200000I0J1500000D01*
G01*
%TO.C,MX34*%
X169000000Y-82500000D02*
X169000000Y-83000000D01*
X173500000Y-82500000D02*
X169000000Y-82500000D01*
X173500000Y-83200000D02*
X173500000Y-82500000D01*
X177500000Y-89200000D02*
X174500000Y-89200000D01*
X178000000Y-88700000D02*
X177500000Y-89200000D01*
X178000000Y-85200000D02*
X177500000Y-84700000D01*
X169000000Y-87200000D02*
X173500000Y-87200000D01*
X174000000Y-87700000D02*
X174000000Y-88700000D01*
X174500000Y-89200000D02*
X174000000Y-88700000D01*
X177500000Y-84700000D02*
X175000000Y-84700000D01*
X169000000Y-86600000D02*
X169000000Y-87200000D01*
X173500000Y-87200000D02*
G75*
G02*
X174000000Y-87700000I0J-500000D01*
G01*
X175000000Y-84700000D02*
G75*
G02*
X173500000Y-83200000I0J1500000D01*
G01*
%TO.C,MX33*%
X169000000Y-65500000D02*
X169000000Y-66000000D01*
X173500000Y-65500000D02*
X169000000Y-65500000D01*
X173500000Y-66200000D02*
X173500000Y-65500000D01*
X177500000Y-72200000D02*
X174500000Y-72200000D01*
X178000000Y-71700000D02*
X177500000Y-72200000D01*
X178000000Y-68200000D02*
X177500000Y-67700000D01*
X169000000Y-70200000D02*
X173500000Y-70200000D01*
X174000000Y-70700000D02*
X174000000Y-71700000D01*
X174500000Y-72200000D02*
X174000000Y-71700000D01*
X177500000Y-67700000D02*
X175000000Y-67700000D01*
X169000000Y-69600000D02*
X169000000Y-70200000D01*
X173500000Y-70200000D02*
G75*
G02*
X174000000Y-70700000I0J-500000D01*
G01*
X175000000Y-67700000D02*
G75*
G02*
X173500000Y-66200000I0J1500000D01*
G01*
%TO.C,MX32*%
X169000000Y-48500000D02*
X169000000Y-49000000D01*
X173500000Y-48500000D02*
X169000000Y-48500000D01*
X173500000Y-49200000D02*
X173500000Y-48500000D01*
X177500000Y-55200000D02*
X174500000Y-55200000D01*
X178000000Y-54700000D02*
X177500000Y-55200000D01*
X178000000Y-51200000D02*
X177500000Y-50700000D01*
X169000000Y-53200000D02*
X173500000Y-53200000D01*
X174000000Y-53700000D02*
X174000000Y-54700000D01*
X174500000Y-55200000D02*
X174000000Y-54700000D01*
X177500000Y-50700000D02*
X175000000Y-50700000D01*
X169000000Y-52600000D02*
X169000000Y-53200000D01*
X173500000Y-53200000D02*
G75*
G02*
X174000000Y-53700000I0J-500000D01*
G01*
X175000000Y-50700000D02*
G75*
G02*
X173500000Y-49200000I0J1500000D01*
G01*
%TO.C,MX30*%
X133000000Y-101500000D02*
X133000000Y-102000000D01*
X137500000Y-101500000D02*
X133000000Y-101500000D01*
X137500000Y-102200000D02*
X137500000Y-101500000D01*
X141500000Y-108200000D02*
X138500000Y-108200000D01*
X142000000Y-107700000D02*
X141500000Y-108200000D01*
X142000000Y-104200000D02*
X141500000Y-103700000D01*
X133000000Y-106200000D02*
X137500000Y-106200000D01*
X138000000Y-106700000D02*
X138000000Y-107700000D01*
X138500000Y-108200000D02*
X138000000Y-107700000D01*
X141500000Y-103700000D02*
X139000000Y-103700000D01*
X133000000Y-105600000D02*
X133000000Y-106200000D01*
X137500000Y-106200000D02*
G75*
G02*
X138000000Y-106700000I0J-500000D01*
G01*
X139000000Y-103700000D02*
G75*
G02*
X137500000Y-102200000I0J1500000D01*
G01*
%TO.C,MX29*%
X115000000Y-82500000D02*
X115000000Y-83000000D01*
X119500000Y-82500000D02*
X115000000Y-82500000D01*
X119500000Y-83200000D02*
X119500000Y-82500000D01*
X123500000Y-89200000D02*
X120500000Y-89200000D01*
X124000000Y-88700000D02*
X123500000Y-89200000D01*
X124000000Y-85200000D02*
X123500000Y-84700000D01*
X115000000Y-87200000D02*
X119500000Y-87200000D01*
X120000000Y-87700000D02*
X120000000Y-88700000D01*
X120500000Y-89200000D02*
X120000000Y-88700000D01*
X123500000Y-84700000D02*
X121000000Y-84700000D01*
X115000000Y-86600000D02*
X115000000Y-87200000D01*
X119500000Y-87200000D02*
G75*
G02*
X120000000Y-87700000I0J-500000D01*
G01*
X121000000Y-84700000D02*
G75*
G02*
X119500000Y-83200000I0J1500000D01*
G01*
%TO.C,MX28*%
X115000000Y-65500000D02*
X115000000Y-66000000D01*
X119500000Y-65500000D02*
X115000000Y-65500000D01*
X119500000Y-66200000D02*
X119500000Y-65500000D01*
X123500000Y-72200000D02*
X120500000Y-72200000D01*
X124000000Y-71700000D02*
X123500000Y-72200000D01*
X124000000Y-68200000D02*
X123500000Y-67700000D01*
X115000000Y-70200000D02*
X119500000Y-70200000D01*
X120000000Y-70700000D02*
X120000000Y-71700000D01*
X120500000Y-72200000D02*
X120000000Y-71700000D01*
X123500000Y-67700000D02*
X121000000Y-67700000D01*
X115000000Y-69600000D02*
X115000000Y-70200000D01*
X119500000Y-70200000D02*
G75*
G02*
X120000000Y-70700000I0J-500000D01*
G01*
X121000000Y-67700000D02*
G75*
G02*
X119500000Y-66200000I0J1500000D01*
G01*
%TO.C,MX27*%
X115000000Y-48500000D02*
X115000000Y-49000000D01*
X119500000Y-48500000D02*
X115000000Y-48500000D01*
X119500000Y-49200000D02*
X119500000Y-48500000D01*
X123500000Y-55200000D02*
X120500000Y-55200000D01*
X124000000Y-54700000D02*
X123500000Y-55200000D01*
X124000000Y-51200000D02*
X123500000Y-50700000D01*
X115000000Y-53200000D02*
X119500000Y-53200000D01*
X120000000Y-53700000D02*
X120000000Y-54700000D01*
X120500000Y-55200000D02*
X120000000Y-54700000D01*
X123500000Y-50700000D02*
X121000000Y-50700000D01*
X115000000Y-52600000D02*
X115000000Y-53200000D01*
X119500000Y-53200000D02*
G75*
G02*
X120000000Y-53700000I0J-500000D01*
G01*
X121000000Y-50700000D02*
G75*
G02*
X119500000Y-49200000I0J1500000D01*
G01*
%TO.C,MX25*%
X115000000Y-101500000D02*
X115000000Y-102000000D01*
X119500000Y-101500000D02*
X115000000Y-101500000D01*
X119500000Y-102200000D02*
X119500000Y-101500000D01*
X123500000Y-108200000D02*
X120500000Y-108200000D01*
X124000000Y-107700000D02*
X123500000Y-108200000D01*
X124000000Y-104200000D02*
X123500000Y-103700000D01*
X115000000Y-106200000D02*
X119500000Y-106200000D01*
X120000000Y-106700000D02*
X120000000Y-107700000D01*
X120500000Y-108200000D02*
X120000000Y-107700000D01*
X123500000Y-103700000D02*
X121000000Y-103700000D01*
X115000000Y-105600000D02*
X115000000Y-106200000D01*
X119500000Y-106200000D02*
G75*
G02*
X120000000Y-106700000I0J-500000D01*
G01*
X121000000Y-103700000D02*
G75*
G02*
X119500000Y-102200000I0J1500000D01*
G01*
%TO.C,MX24*%
X97000000Y-82500000D02*
X97000000Y-83000000D01*
X101500000Y-82500000D02*
X97000000Y-82500000D01*
X101500000Y-83200000D02*
X101500000Y-82500000D01*
X105500000Y-89200000D02*
X102500000Y-89200000D01*
X106000000Y-88700000D02*
X105500000Y-89200000D01*
X106000000Y-85200000D02*
X105500000Y-84700000D01*
X97000000Y-87200000D02*
X101500000Y-87200000D01*
X102000000Y-87700000D02*
X102000000Y-88700000D01*
X102500000Y-89200000D02*
X102000000Y-88700000D01*
X105500000Y-84700000D02*
X103000000Y-84700000D01*
X97000000Y-86600000D02*
X97000000Y-87200000D01*
X101500000Y-87200000D02*
G75*
G02*
X102000000Y-87700000I0J-500000D01*
G01*
X103000000Y-84700000D02*
G75*
G02*
X101500000Y-83200000I0J1500000D01*
G01*
%TO.C,MX23*%
X97000000Y-65500000D02*
X97000000Y-66000000D01*
X101500000Y-65500000D02*
X97000000Y-65500000D01*
X101500000Y-66200000D02*
X101500000Y-65500000D01*
X105500000Y-72200000D02*
X102500000Y-72200000D01*
X106000000Y-71700000D02*
X105500000Y-72200000D01*
X106000000Y-68200000D02*
X105500000Y-67700000D01*
X97000000Y-70200000D02*
X101500000Y-70200000D01*
X102000000Y-70700000D02*
X102000000Y-71700000D01*
X102500000Y-72200000D02*
X102000000Y-71700000D01*
X105500000Y-67700000D02*
X103000000Y-67700000D01*
X97000000Y-69600000D02*
X97000000Y-70200000D01*
X101500000Y-70200000D02*
G75*
G02*
X102000000Y-70700000I0J-500000D01*
G01*
X103000000Y-67700000D02*
G75*
G02*
X101500000Y-66200000I0J1500000D01*
G01*
%TO.C,MX22*%
X97000000Y-48500000D02*
X97000000Y-49000000D01*
X101500000Y-48500000D02*
X97000000Y-48500000D01*
X101500000Y-49200000D02*
X101500000Y-48500000D01*
X105500000Y-55200000D02*
X102500000Y-55200000D01*
X106000000Y-54700000D02*
X105500000Y-55200000D01*
X106000000Y-51200000D02*
X105500000Y-50700000D01*
X97000000Y-53200000D02*
X101500000Y-53200000D01*
X102000000Y-53700000D02*
X102000000Y-54700000D01*
X102500000Y-55200000D02*
X102000000Y-54700000D01*
X105500000Y-50700000D02*
X103000000Y-50700000D01*
X97000000Y-52600000D02*
X97000000Y-53200000D01*
X101500000Y-53200000D02*
G75*
G02*
X102000000Y-53700000I0J-500000D01*
G01*
X103000000Y-50700000D02*
G75*
G02*
X101500000Y-49200000I0J1500000D01*
G01*
%TO.C,MX20*%
X97000000Y-101500000D02*
X97000000Y-102000000D01*
X101500000Y-101500000D02*
X97000000Y-101500000D01*
X101500000Y-102200000D02*
X101500000Y-101500000D01*
X105500000Y-108200000D02*
X102500000Y-108200000D01*
X106000000Y-107700000D02*
X105500000Y-108200000D01*
X106000000Y-104200000D02*
X105500000Y-103700000D01*
X97000000Y-106200000D02*
X101500000Y-106200000D01*
X102000000Y-106700000D02*
X102000000Y-107700000D01*
X102500000Y-108200000D02*
X102000000Y-107700000D01*
X105500000Y-103700000D02*
X103000000Y-103700000D01*
X97000000Y-105600000D02*
X97000000Y-106200000D01*
X101500000Y-106200000D02*
G75*
G02*
X102000000Y-106700000I0J-500000D01*
G01*
X103000000Y-103700000D02*
G75*
G02*
X101500000Y-102200000I0J1500000D01*
G01*
%TO.C,MX19*%
X79000000Y-82500000D02*
X79000000Y-83000000D01*
X83500000Y-82500000D02*
X79000000Y-82500000D01*
X83500000Y-83200000D02*
X83500000Y-82500000D01*
X87500000Y-89200000D02*
X84500000Y-89200000D01*
X88000000Y-88700000D02*
X87500000Y-89200000D01*
X88000000Y-85200000D02*
X87500000Y-84700000D01*
X79000000Y-87200000D02*
X83500000Y-87200000D01*
X84000000Y-87700000D02*
X84000000Y-88700000D01*
X84500000Y-89200000D02*
X84000000Y-88700000D01*
X87500000Y-84700000D02*
X85000000Y-84700000D01*
X79000000Y-86600000D02*
X79000000Y-87200000D01*
X83500000Y-87200000D02*
G75*
G02*
X84000000Y-87700000I0J-500000D01*
G01*
X85000000Y-84700000D02*
G75*
G02*
X83500000Y-83200000I0J1500000D01*
G01*
%TO.C,MX18*%
X79000000Y-65500000D02*
X79000000Y-66000000D01*
X83500000Y-65500000D02*
X79000000Y-65500000D01*
X83500000Y-66200000D02*
X83500000Y-65500000D01*
X87500000Y-72200000D02*
X84500000Y-72200000D01*
X88000000Y-71700000D02*
X87500000Y-72200000D01*
X88000000Y-68200000D02*
X87500000Y-67700000D01*
X79000000Y-70200000D02*
X83500000Y-70200000D01*
X84000000Y-70700000D02*
X84000000Y-71700000D01*
X84500000Y-72200000D02*
X84000000Y-71700000D01*
X87500000Y-67700000D02*
X85000000Y-67700000D01*
X79000000Y-69600000D02*
X79000000Y-70200000D01*
X83500000Y-70200000D02*
G75*
G02*
X84000000Y-70700000I0J-500000D01*
G01*
X85000000Y-67700000D02*
G75*
G02*
X83500000Y-66200000I0J1500000D01*
G01*
%TO.C,MX17*%
X79000000Y-48500000D02*
X79000000Y-49000000D01*
X83500000Y-48500000D02*
X79000000Y-48500000D01*
X83500000Y-49200000D02*
X83500000Y-48500000D01*
X87500000Y-55200000D02*
X84500000Y-55200000D01*
X88000000Y-54700000D02*
X87500000Y-55200000D01*
X88000000Y-51200000D02*
X87500000Y-50700000D01*
X79000000Y-53200000D02*
X83500000Y-53200000D01*
X84000000Y-53700000D02*
X84000000Y-54700000D01*
X84500000Y-55200000D02*
X84000000Y-54700000D01*
X87500000Y-50700000D02*
X85000000Y-50700000D01*
X79000000Y-52600000D02*
X79000000Y-53200000D01*
X83500000Y-53200000D02*
G75*
G02*
X84000000Y-53700000I0J-500000D01*
G01*
X85000000Y-50700000D02*
G75*
G02*
X83500000Y-49200000I0J1500000D01*
G01*
%TO.C,MX15*%
X79000000Y-101500000D02*
X79000000Y-102000000D01*
X83500000Y-101500000D02*
X79000000Y-101500000D01*
X83500000Y-102200000D02*
X83500000Y-101500000D01*
X87500000Y-108200000D02*
X84500000Y-108200000D01*
X88000000Y-107700000D02*
X87500000Y-108200000D01*
X88000000Y-104200000D02*
X87500000Y-103700000D01*
X79000000Y-106200000D02*
X83500000Y-106200000D01*
X84000000Y-106700000D02*
X84000000Y-107700000D01*
X84500000Y-108200000D02*
X84000000Y-107700000D01*
X87500000Y-103700000D02*
X85000000Y-103700000D01*
X79000000Y-105600000D02*
X79000000Y-106200000D01*
X83500000Y-106200000D02*
G75*
G02*
X84000000Y-106700000I0J-500000D01*
G01*
X85000000Y-103700000D02*
G75*
G02*
X83500000Y-102200000I0J1500000D01*
G01*
%TO.C,MX14*%
X61000000Y-82500000D02*
X61000000Y-83000000D01*
X65500000Y-82500000D02*
X61000000Y-82500000D01*
X65500000Y-83200000D02*
X65500000Y-82500000D01*
X69500000Y-89200000D02*
X66500000Y-89200000D01*
X70000000Y-88700000D02*
X69500000Y-89200000D01*
X70000000Y-85200000D02*
X69500000Y-84700000D01*
X61000000Y-87200000D02*
X65500000Y-87200000D01*
X66000000Y-87700000D02*
X66000000Y-88700000D01*
X66500000Y-89200000D02*
X66000000Y-88700000D01*
X69500000Y-84700000D02*
X67000000Y-84700000D01*
X61000000Y-86600000D02*
X61000000Y-87200000D01*
X65500000Y-87200000D02*
G75*
G02*
X66000000Y-87700000I0J-500000D01*
G01*
X67000000Y-84700000D02*
G75*
G02*
X65500000Y-83200000I0J1500000D01*
G01*
%TO.C,MX13*%
X61000000Y-65500000D02*
X61000000Y-66000000D01*
X65500000Y-65500000D02*
X61000000Y-65500000D01*
X65500000Y-66200000D02*
X65500000Y-65500000D01*
X69500000Y-72200000D02*
X66500000Y-72200000D01*
X70000000Y-71700000D02*
X69500000Y-72200000D01*
X70000000Y-68200000D02*
X69500000Y-67700000D01*
X61000000Y-70200000D02*
X65500000Y-70200000D01*
X66000000Y-70700000D02*
X66000000Y-71700000D01*
X66500000Y-72200000D02*
X66000000Y-71700000D01*
X69500000Y-67700000D02*
X67000000Y-67700000D01*
X61000000Y-69600000D02*
X61000000Y-70200000D01*
X65500000Y-70200000D02*
G75*
G02*
X66000000Y-70700000I0J-500000D01*
G01*
X67000000Y-67700000D02*
G75*
G02*
X65500000Y-66200000I0J1500000D01*
G01*
%TO.C,MX12*%
X61000000Y-48500000D02*
X61000000Y-49000000D01*
X65500000Y-48500000D02*
X61000000Y-48500000D01*
X65500000Y-49200000D02*
X65500000Y-48500000D01*
X69500000Y-55200000D02*
X66500000Y-55200000D01*
X70000000Y-54700000D02*
X69500000Y-55200000D01*
X70000000Y-51200000D02*
X69500000Y-50700000D01*
X61000000Y-53200000D02*
X65500000Y-53200000D01*
X66000000Y-53700000D02*
X66000000Y-54700000D01*
X66500000Y-55200000D02*
X66000000Y-54700000D01*
X69500000Y-50700000D02*
X67000000Y-50700000D01*
X61000000Y-52600000D02*
X61000000Y-53200000D01*
X65500000Y-53200000D02*
G75*
G02*
X66000000Y-53700000I0J-500000D01*
G01*
X67000000Y-50700000D02*
G75*
G02*
X65500000Y-49200000I0J1500000D01*
G01*
%TO.C,MX10*%
X61000000Y-101500000D02*
X61000000Y-102000000D01*
X65500000Y-101500000D02*
X61000000Y-101500000D01*
X65500000Y-102200000D02*
X65500000Y-101500000D01*
X69500000Y-108200000D02*
X66500000Y-108200000D01*
X70000000Y-107700000D02*
X69500000Y-108200000D01*
X70000000Y-104200000D02*
X69500000Y-103700000D01*
X61000000Y-106200000D02*
X65500000Y-106200000D01*
X66000000Y-106700000D02*
X66000000Y-107700000D01*
X66500000Y-108200000D02*
X66000000Y-107700000D01*
X69500000Y-103700000D02*
X67000000Y-103700000D01*
X61000000Y-105600000D02*
X61000000Y-106200000D01*
X65500000Y-106200000D02*
G75*
G02*
X66000000Y-106700000I0J-500000D01*
G01*
X67000000Y-103700000D02*
G75*
G02*
X65500000Y-102200000I0J1500000D01*
G01*
%TO.C,MX9*%
X43000000Y-82500000D02*
X43000000Y-83000000D01*
X47500000Y-82500000D02*
X43000000Y-82500000D01*
X47500000Y-83200000D02*
X47500000Y-82500000D01*
X51500000Y-89200000D02*
X48500000Y-89200000D01*
X52000000Y-88700000D02*
X51500000Y-89200000D01*
X52000000Y-85200000D02*
X51500000Y-84700000D01*
X43000000Y-87200000D02*
X47500000Y-87200000D01*
X48000000Y-87700000D02*
X48000000Y-88700000D01*
X48500000Y-89200000D02*
X48000000Y-88700000D01*
X51500000Y-84700000D02*
X49000000Y-84700000D01*
X43000000Y-86600000D02*
X43000000Y-87200000D01*
X47500000Y-87200000D02*
G75*
G02*
X48000000Y-87700000I0J-500000D01*
G01*
X49000000Y-84700000D02*
G75*
G02*
X47500000Y-83200000I0J1500000D01*
G01*
%TO.C,MX8*%
X43000000Y-65500000D02*
X43000000Y-66000000D01*
X47500000Y-65500000D02*
X43000000Y-65500000D01*
X47500000Y-66200000D02*
X47500000Y-65500000D01*
X51500000Y-72200000D02*
X48500000Y-72200000D01*
X52000000Y-71700000D02*
X51500000Y-72200000D01*
X52000000Y-68200000D02*
X51500000Y-67700000D01*
X43000000Y-70200000D02*
X47500000Y-70200000D01*
X48000000Y-70700000D02*
X48000000Y-71700000D01*
X48500000Y-72200000D02*
X48000000Y-71700000D01*
X51500000Y-67700000D02*
X49000000Y-67700000D01*
X43000000Y-69600000D02*
X43000000Y-70200000D01*
X47500000Y-70200000D02*
G75*
G02*
X48000000Y-70700000I0J-500000D01*
G01*
X49000000Y-67700000D02*
G75*
G02*
X47500000Y-66200000I0J1500000D01*
G01*
%TO.C,MX7*%
X43000000Y-48500000D02*
X43000000Y-49000000D01*
X47500000Y-48500000D02*
X43000000Y-48500000D01*
X47500000Y-49200000D02*
X47500000Y-48500000D01*
X51500000Y-55200000D02*
X48500000Y-55200000D01*
X52000000Y-54700000D02*
X51500000Y-55200000D01*
X52000000Y-51200000D02*
X51500000Y-50700000D01*
X43000000Y-53200000D02*
X47500000Y-53200000D01*
X48000000Y-53700000D02*
X48000000Y-54700000D01*
X48500000Y-55200000D02*
X48000000Y-54700000D01*
X51500000Y-50700000D02*
X49000000Y-50700000D01*
X43000000Y-52600000D02*
X43000000Y-53200000D01*
X47500000Y-53200000D02*
G75*
G02*
X48000000Y-53700000I0J-500000D01*
G01*
X49000000Y-50700000D02*
G75*
G02*
X47500000Y-49200000I0J1500000D01*
G01*
%TO.C,MX5*%
X43000000Y-101500000D02*
X43000000Y-102000000D01*
X47500000Y-101500000D02*
X43000000Y-101500000D01*
X47500000Y-102200000D02*
X47500000Y-101500000D01*
X51500000Y-108200000D02*
X48500000Y-108200000D01*
X52000000Y-107700000D02*
X51500000Y-108200000D01*
X52000000Y-104200000D02*
X51500000Y-103700000D01*
X43000000Y-106200000D02*
X47500000Y-106200000D01*
X48000000Y-106700000D02*
X48000000Y-107700000D01*
X48500000Y-108200000D02*
X48000000Y-107700000D01*
X51500000Y-103700000D02*
X49000000Y-103700000D01*
X43000000Y-105600000D02*
X43000000Y-106200000D01*
X47500000Y-106200000D02*
G75*
G02*
X48000000Y-106700000I0J-500000D01*
G01*
X49000000Y-103700000D02*
G75*
G02*
X47500000Y-102200000I0J1500000D01*
G01*
%TO.C,MX4*%
X23000000Y-82500000D02*
X23000000Y-83000000D01*
X27500000Y-82500000D02*
X23000000Y-82500000D01*
X27500000Y-83200000D02*
X27500000Y-82500000D01*
X31500000Y-89200000D02*
X28500000Y-89200000D01*
X32000000Y-88700000D02*
X31500000Y-89200000D01*
X32000000Y-85200000D02*
X31500000Y-84700000D01*
X23000000Y-87200000D02*
X27500000Y-87200000D01*
X28000000Y-87700000D02*
X28000000Y-88700000D01*
X28500000Y-89200000D02*
X28000000Y-88700000D01*
X31500000Y-84700000D02*
X29000000Y-84700000D01*
X23000000Y-86600000D02*
X23000000Y-87200000D01*
X27500000Y-87200000D02*
G75*
G02*
X28000000Y-87700000I0J-500000D01*
G01*
X29000000Y-84700000D02*
G75*
G02*
X27500000Y-83200000I0J1500000D01*
G01*
%TO.C,MX3*%
X23000000Y-65500000D02*
X23000000Y-66000000D01*
X27500000Y-65500000D02*
X23000000Y-65500000D01*
X27500000Y-66200000D02*
X27500000Y-65500000D01*
X31500000Y-72200000D02*
X28500000Y-72200000D01*
X32000000Y-71700000D02*
X31500000Y-72200000D01*
X32000000Y-68200000D02*
X31500000Y-67700000D01*
X23000000Y-70200000D02*
X27500000Y-70200000D01*
X28000000Y-70700000D02*
X28000000Y-71700000D01*
X28500000Y-72200000D02*
X28000000Y-71700000D01*
X31500000Y-67700000D02*
X29000000Y-67700000D01*
X23000000Y-69600000D02*
X23000000Y-70200000D01*
X27500000Y-70200000D02*
G75*
G02*
X28000000Y-70700000I0J-500000D01*
G01*
X29000000Y-67700000D02*
G75*
G02*
X27500000Y-66200000I0J1500000D01*
G01*
%TO.C,MX2*%
X23000000Y-48500000D02*
X23000000Y-49000000D01*
X27500000Y-48500000D02*
X23000000Y-48500000D01*
X27500000Y-49200000D02*
X27500000Y-48500000D01*
X31500000Y-55200000D02*
X28500000Y-55200000D01*
X32000000Y-54700000D02*
X31500000Y-55200000D01*
X32000000Y-51200000D02*
X31500000Y-50700000D01*
X23000000Y-53200000D02*
X27500000Y-53200000D01*
X28000000Y-53700000D02*
X28000000Y-54700000D01*
X28500000Y-55200000D02*
X28000000Y-54700000D01*
X31500000Y-50700000D02*
X29000000Y-50700000D01*
X23000000Y-52600000D02*
X23000000Y-53200000D01*
X27500000Y-53200000D02*
G75*
G02*
X28000000Y-53700000I0J-500000D01*
G01*
X29000000Y-50700000D02*
G75*
G02*
X27500000Y-49200000I0J1500000D01*
G01*
%TO.C,Y1*%
X157476190Y-69576190D02*
X157476190Y-70052380D01*
X157809523Y-69052380D02*
X157476190Y-69576190D01*
X157142857Y-69052380D01*
X156285714Y-70052380D02*
X156857142Y-70052380D01*
X156571428Y-70052380D02*
X156571428Y-69052380D01*
X156666666Y-69195238D01*
X156761904Y-69290476D01*
X156857142Y-69338095D01*
%TO.C,U2*%
X143632380Y-71738095D02*
X144441904Y-71738095D01*
X144537142Y-71785714D01*
X144584761Y-71833333D01*
X144632380Y-71928571D01*
X144632380Y-72119047D01*
X144584761Y-72214285D01*
X144537142Y-72261904D01*
X144441904Y-72309523D01*
X143632380Y-72309523D01*
X143727619Y-72738095D02*
X143680000Y-72785714D01*
X143632380Y-72880952D01*
X143632380Y-73119047D01*
X143680000Y-73214285D01*
X143727619Y-73261904D01*
X143822857Y-73309523D01*
X143918095Y-73309523D01*
X144060952Y-73261904D01*
X144632380Y-72690476D01*
X144632380Y-73309523D01*
%TD*%
M02*
