%TF.GenerationSoftware,KiCad,Pcbnew,(5.1.10)-1*%
%TF.CreationDate,2022-05-07T17:57:56+07:00*%
%TF.ProjectId,Onsen48,4f6e7365-6e34-4382-9e6b-696361645f70,rev?*%
%TF.SameCoordinates,Original*%
%TF.FileFunction,Legend,Top*%
%TF.FilePolarity,Positive*%
%FSLAX46Y46*%
G04 Gerber Fmt 4.6, Leading zero omitted, Abs format (unit mm)*
G04 Created by KiCad (PCBNEW (5.1.10)-1) date 2022-05-07 17:57:56*
%MOMM*%
%LPD*%
G01*
G04 APERTURE LIST*
%ADD10C,0.150000*%
G04 APERTURE END LIST*
D10*
%TO.C,SW1*%
X137400000Y-41900000D02*
G75*
G03*
X137400000Y-41900000I-1000000J0D01*
G01*
X133800000Y-44500000D02*
X133800000Y-39300000D01*
X139000000Y-44500000D02*
X133800000Y-44500000D01*
X139000000Y-39300000D02*
X139000000Y-44500000D01*
X133800000Y-39300000D02*
X139000000Y-39300000D01*
%TO.C,MX60*%
X255000000Y-93000000D02*
X254000000Y-93000000D01*
X255000000Y-93000000D02*
X255000000Y-94000000D01*
X254000000Y-107000000D02*
X255000000Y-107000000D01*
X255000000Y-107000000D02*
X254000000Y-107000000D01*
X255000000Y-106000000D02*
X255000000Y-107000000D01*
X241000000Y-107000000D02*
X241000000Y-106000000D01*
X242000000Y-93000000D02*
X241000000Y-93000000D01*
X241000000Y-107000000D02*
X242000000Y-107000000D01*
X241000000Y-94000000D02*
X241000000Y-93000000D01*
%TO.C,MX59*%
X275000000Y-74000000D02*
X274000000Y-74000000D01*
X275000000Y-74000000D02*
X275000000Y-75000000D01*
X274000000Y-88000000D02*
X275000000Y-88000000D01*
X275000000Y-88000000D02*
X274000000Y-88000000D01*
X275000000Y-87000000D02*
X275000000Y-88000000D01*
X261000000Y-88000000D02*
X261000000Y-87000000D01*
X262000000Y-74000000D02*
X261000000Y-74000000D01*
X261000000Y-88000000D02*
X262000000Y-88000000D01*
X261000000Y-75000000D02*
X261000000Y-74000000D01*
%TO.C,MX58*%
X275000000Y-57000000D02*
X274000000Y-57000000D01*
X275000000Y-57000000D02*
X275000000Y-58000000D01*
X274000000Y-71000000D02*
X275000000Y-71000000D01*
X275000000Y-71000000D02*
X274000000Y-71000000D01*
X275000000Y-70000000D02*
X275000000Y-71000000D01*
X261000000Y-71000000D02*
X261000000Y-70000000D01*
X262000000Y-57000000D02*
X261000000Y-57000000D01*
X261000000Y-71000000D02*
X262000000Y-71000000D01*
X261000000Y-58000000D02*
X261000000Y-57000000D01*
%TO.C,MX57*%
X275000000Y-40000000D02*
X274000000Y-40000000D01*
X275000000Y-40000000D02*
X275000000Y-41000000D01*
X274000000Y-54000000D02*
X275000000Y-54000000D01*
X275000000Y-54000000D02*
X274000000Y-54000000D01*
X275000000Y-53000000D02*
X275000000Y-54000000D01*
X261000000Y-54000000D02*
X261000000Y-53000000D01*
X262000000Y-40000000D02*
X261000000Y-40000000D01*
X261000000Y-54000000D02*
X262000000Y-54000000D01*
X261000000Y-41000000D02*
X261000000Y-40000000D01*
%TO.C,MX55*%
X237000000Y-93000000D02*
X236000000Y-93000000D01*
X237000000Y-93000000D02*
X237000000Y-94000000D01*
X236000000Y-107000000D02*
X237000000Y-107000000D01*
X237000000Y-107000000D02*
X236000000Y-107000000D01*
X237000000Y-106000000D02*
X237000000Y-107000000D01*
X223000000Y-107000000D02*
X223000000Y-106000000D01*
X224000000Y-93000000D02*
X223000000Y-93000000D01*
X223000000Y-107000000D02*
X224000000Y-107000000D01*
X223000000Y-94000000D02*
X223000000Y-93000000D01*
%TO.C,MX54*%
X255000000Y-74000000D02*
X254000000Y-74000000D01*
X255000000Y-74000000D02*
X255000000Y-75000000D01*
X254000000Y-88000000D02*
X255000000Y-88000000D01*
X255000000Y-88000000D02*
X254000000Y-88000000D01*
X255000000Y-87000000D02*
X255000000Y-88000000D01*
X241000000Y-88000000D02*
X241000000Y-87000000D01*
X242000000Y-74000000D02*
X241000000Y-74000000D01*
X241000000Y-88000000D02*
X242000000Y-88000000D01*
X241000000Y-75000000D02*
X241000000Y-74000000D01*
%TO.C,MX53*%
X255000000Y-57000000D02*
X254000000Y-57000000D01*
X255000000Y-57000000D02*
X255000000Y-58000000D01*
X254000000Y-71000000D02*
X255000000Y-71000000D01*
X255000000Y-71000000D02*
X254000000Y-71000000D01*
X255000000Y-70000000D02*
X255000000Y-71000000D01*
X241000000Y-71000000D02*
X241000000Y-70000000D01*
X242000000Y-57000000D02*
X241000000Y-57000000D01*
X241000000Y-71000000D02*
X242000000Y-71000000D01*
X241000000Y-58000000D02*
X241000000Y-57000000D01*
%TO.C,MX52*%
X255000000Y-40000000D02*
X254000000Y-40000000D01*
X255000000Y-40000000D02*
X255000000Y-41000000D01*
X254000000Y-54000000D02*
X255000000Y-54000000D01*
X255000000Y-54000000D02*
X254000000Y-54000000D01*
X255000000Y-53000000D02*
X255000000Y-54000000D01*
X241000000Y-54000000D02*
X241000000Y-53000000D01*
X242000000Y-40000000D02*
X241000000Y-40000000D01*
X241000000Y-54000000D02*
X242000000Y-54000000D01*
X241000000Y-41000000D02*
X241000000Y-40000000D01*
%TO.C,MX50*%
X219000000Y-93000000D02*
X218000000Y-93000000D01*
X219000000Y-93000000D02*
X219000000Y-94000000D01*
X218000000Y-107000000D02*
X219000000Y-107000000D01*
X219000000Y-107000000D02*
X218000000Y-107000000D01*
X219000000Y-106000000D02*
X219000000Y-107000000D01*
X205000000Y-107000000D02*
X205000000Y-106000000D01*
X206000000Y-93000000D02*
X205000000Y-93000000D01*
X205000000Y-107000000D02*
X206000000Y-107000000D01*
X205000000Y-94000000D02*
X205000000Y-93000000D01*
%TO.C,MX49*%
X237000000Y-74000000D02*
X236000000Y-74000000D01*
X237000000Y-74000000D02*
X237000000Y-75000000D01*
X236000000Y-88000000D02*
X237000000Y-88000000D01*
X237000000Y-88000000D02*
X236000000Y-88000000D01*
X237000000Y-87000000D02*
X237000000Y-88000000D01*
X223000000Y-88000000D02*
X223000000Y-87000000D01*
X224000000Y-74000000D02*
X223000000Y-74000000D01*
X223000000Y-88000000D02*
X224000000Y-88000000D01*
X223000000Y-75000000D02*
X223000000Y-74000000D01*
%TO.C,MX48*%
X237000000Y-57000000D02*
X236000000Y-57000000D01*
X237000000Y-57000000D02*
X237000000Y-58000000D01*
X236000000Y-71000000D02*
X237000000Y-71000000D01*
X237000000Y-71000000D02*
X236000000Y-71000000D01*
X237000000Y-70000000D02*
X237000000Y-71000000D01*
X223000000Y-71000000D02*
X223000000Y-70000000D01*
X224000000Y-57000000D02*
X223000000Y-57000000D01*
X223000000Y-71000000D02*
X224000000Y-71000000D01*
X223000000Y-58000000D02*
X223000000Y-57000000D01*
%TO.C,MX47*%
X237000000Y-40000000D02*
X236000000Y-40000000D01*
X237000000Y-40000000D02*
X237000000Y-41000000D01*
X236000000Y-54000000D02*
X237000000Y-54000000D01*
X237000000Y-54000000D02*
X236000000Y-54000000D01*
X237000000Y-53000000D02*
X237000000Y-54000000D01*
X223000000Y-54000000D02*
X223000000Y-53000000D01*
X224000000Y-40000000D02*
X223000000Y-40000000D01*
X223000000Y-54000000D02*
X224000000Y-54000000D01*
X223000000Y-41000000D02*
X223000000Y-40000000D01*
%TO.C,MX45*%
X201000000Y-93000000D02*
X200000000Y-93000000D01*
X201000000Y-93000000D02*
X201000000Y-94000000D01*
X200000000Y-107000000D02*
X201000000Y-107000000D01*
X201000000Y-107000000D02*
X200000000Y-107000000D01*
X201000000Y-106000000D02*
X201000000Y-107000000D01*
X187000000Y-107000000D02*
X187000000Y-106000000D01*
X188000000Y-93000000D02*
X187000000Y-93000000D01*
X187000000Y-107000000D02*
X188000000Y-107000000D01*
X187000000Y-94000000D02*
X187000000Y-93000000D01*
%TO.C,MX44*%
X219000000Y-74000000D02*
X218000000Y-74000000D01*
X219000000Y-74000000D02*
X219000000Y-75000000D01*
X218000000Y-88000000D02*
X219000000Y-88000000D01*
X219000000Y-88000000D02*
X218000000Y-88000000D01*
X219000000Y-87000000D02*
X219000000Y-88000000D01*
X205000000Y-88000000D02*
X205000000Y-87000000D01*
X206000000Y-74000000D02*
X205000000Y-74000000D01*
X205000000Y-88000000D02*
X206000000Y-88000000D01*
X205000000Y-75000000D02*
X205000000Y-74000000D01*
%TO.C,MX43*%
X219000000Y-57000000D02*
X218000000Y-57000000D01*
X219000000Y-57000000D02*
X219000000Y-58000000D01*
X218000000Y-71000000D02*
X219000000Y-71000000D01*
X219000000Y-71000000D02*
X218000000Y-71000000D01*
X219000000Y-70000000D02*
X219000000Y-71000000D01*
X205000000Y-71000000D02*
X205000000Y-70000000D01*
X206000000Y-57000000D02*
X205000000Y-57000000D01*
X205000000Y-71000000D02*
X206000000Y-71000000D01*
X205000000Y-58000000D02*
X205000000Y-57000000D01*
%TO.C,MX42*%
X219000000Y-40000000D02*
X218000000Y-40000000D01*
X219000000Y-40000000D02*
X219000000Y-41000000D01*
X218000000Y-54000000D02*
X219000000Y-54000000D01*
X219000000Y-54000000D02*
X218000000Y-54000000D01*
X219000000Y-53000000D02*
X219000000Y-54000000D01*
X205000000Y-54000000D02*
X205000000Y-53000000D01*
X206000000Y-40000000D02*
X205000000Y-40000000D01*
X205000000Y-54000000D02*
X206000000Y-54000000D01*
X205000000Y-41000000D02*
X205000000Y-40000000D01*
%TO.C,MX40*%
X183000000Y-93000000D02*
X182000000Y-93000000D01*
X183000000Y-93000000D02*
X183000000Y-94000000D01*
X182000000Y-107000000D02*
X183000000Y-107000000D01*
X183000000Y-107000000D02*
X182000000Y-107000000D01*
X183000000Y-106000000D02*
X183000000Y-107000000D01*
X169000000Y-107000000D02*
X169000000Y-106000000D01*
X170000000Y-93000000D02*
X169000000Y-93000000D01*
X169000000Y-107000000D02*
X170000000Y-107000000D01*
X169000000Y-94000000D02*
X169000000Y-93000000D01*
%TO.C,MX39*%
X201000000Y-74000000D02*
X200000000Y-74000000D01*
X201000000Y-74000000D02*
X201000000Y-75000000D01*
X200000000Y-88000000D02*
X201000000Y-88000000D01*
X201000000Y-88000000D02*
X200000000Y-88000000D01*
X201000000Y-87000000D02*
X201000000Y-88000000D01*
X187000000Y-88000000D02*
X187000000Y-87000000D01*
X188000000Y-74000000D02*
X187000000Y-74000000D01*
X187000000Y-88000000D02*
X188000000Y-88000000D01*
X187000000Y-75000000D02*
X187000000Y-74000000D01*
%TO.C,MX38*%
X201000000Y-57000000D02*
X200000000Y-57000000D01*
X201000000Y-57000000D02*
X201000000Y-58000000D01*
X200000000Y-71000000D02*
X201000000Y-71000000D01*
X201000000Y-71000000D02*
X200000000Y-71000000D01*
X201000000Y-70000000D02*
X201000000Y-71000000D01*
X187000000Y-71000000D02*
X187000000Y-70000000D01*
X188000000Y-57000000D02*
X187000000Y-57000000D01*
X187000000Y-71000000D02*
X188000000Y-71000000D01*
X187000000Y-58000000D02*
X187000000Y-57000000D01*
%TO.C,MX37*%
X201000000Y-40000000D02*
X200000000Y-40000000D01*
X201000000Y-40000000D02*
X201000000Y-41000000D01*
X200000000Y-54000000D02*
X201000000Y-54000000D01*
X201000000Y-54000000D02*
X200000000Y-54000000D01*
X201000000Y-53000000D02*
X201000000Y-54000000D01*
X187000000Y-54000000D02*
X187000000Y-53000000D01*
X188000000Y-40000000D02*
X187000000Y-40000000D01*
X187000000Y-54000000D02*
X188000000Y-54000000D01*
X187000000Y-41000000D02*
X187000000Y-40000000D01*
%TO.C,MX35*%
X165000000Y-93000000D02*
X164000000Y-93000000D01*
X165000000Y-93000000D02*
X165000000Y-94000000D01*
X164000000Y-107000000D02*
X165000000Y-107000000D01*
X165000000Y-107000000D02*
X164000000Y-107000000D01*
X165000000Y-106000000D02*
X165000000Y-107000000D01*
X151000000Y-107000000D02*
X151000000Y-106000000D01*
X152000000Y-93000000D02*
X151000000Y-93000000D01*
X151000000Y-107000000D02*
X152000000Y-107000000D01*
X151000000Y-94000000D02*
X151000000Y-93000000D01*
%TO.C,MX34*%
X183000000Y-74000000D02*
X182000000Y-74000000D01*
X183000000Y-74000000D02*
X183000000Y-75000000D01*
X182000000Y-88000000D02*
X183000000Y-88000000D01*
X183000000Y-88000000D02*
X182000000Y-88000000D01*
X183000000Y-87000000D02*
X183000000Y-88000000D01*
X169000000Y-88000000D02*
X169000000Y-87000000D01*
X170000000Y-74000000D02*
X169000000Y-74000000D01*
X169000000Y-88000000D02*
X170000000Y-88000000D01*
X169000000Y-75000000D02*
X169000000Y-74000000D01*
%TO.C,MX33*%
X183000000Y-57000000D02*
X182000000Y-57000000D01*
X183000000Y-57000000D02*
X183000000Y-58000000D01*
X182000000Y-71000000D02*
X183000000Y-71000000D01*
X183000000Y-71000000D02*
X182000000Y-71000000D01*
X183000000Y-70000000D02*
X183000000Y-71000000D01*
X169000000Y-71000000D02*
X169000000Y-70000000D01*
X170000000Y-57000000D02*
X169000000Y-57000000D01*
X169000000Y-71000000D02*
X170000000Y-71000000D01*
X169000000Y-58000000D02*
X169000000Y-57000000D01*
%TO.C,MX32*%
X183000000Y-40000000D02*
X182000000Y-40000000D01*
X183000000Y-40000000D02*
X183000000Y-41000000D01*
X182000000Y-54000000D02*
X183000000Y-54000000D01*
X183000000Y-54000000D02*
X182000000Y-54000000D01*
X183000000Y-53000000D02*
X183000000Y-54000000D01*
X169000000Y-54000000D02*
X169000000Y-53000000D01*
X170000000Y-40000000D02*
X169000000Y-40000000D01*
X169000000Y-54000000D02*
X170000000Y-54000000D01*
X169000000Y-41000000D02*
X169000000Y-40000000D01*
%TO.C,MX30*%
X147000000Y-93000000D02*
X146000000Y-93000000D01*
X147000000Y-93000000D02*
X147000000Y-94000000D01*
X146000000Y-107000000D02*
X147000000Y-107000000D01*
X147000000Y-107000000D02*
X146000000Y-107000000D01*
X147000000Y-106000000D02*
X147000000Y-107000000D01*
X133000000Y-107000000D02*
X133000000Y-106000000D01*
X134000000Y-93000000D02*
X133000000Y-93000000D01*
X133000000Y-107000000D02*
X134000000Y-107000000D01*
X133000000Y-94000000D02*
X133000000Y-93000000D01*
%TO.C,MX29*%
X129000000Y-74000000D02*
X128000000Y-74000000D01*
X129000000Y-74000000D02*
X129000000Y-75000000D01*
X128000000Y-88000000D02*
X129000000Y-88000000D01*
X129000000Y-88000000D02*
X128000000Y-88000000D01*
X129000000Y-87000000D02*
X129000000Y-88000000D01*
X115000000Y-88000000D02*
X115000000Y-87000000D01*
X116000000Y-74000000D02*
X115000000Y-74000000D01*
X115000000Y-88000000D02*
X116000000Y-88000000D01*
X115000000Y-75000000D02*
X115000000Y-74000000D01*
%TO.C,MX28*%
X129000000Y-57000000D02*
X128000000Y-57000000D01*
X129000000Y-57000000D02*
X129000000Y-58000000D01*
X128000000Y-71000000D02*
X129000000Y-71000000D01*
X129000000Y-71000000D02*
X128000000Y-71000000D01*
X129000000Y-70000000D02*
X129000000Y-71000000D01*
X115000000Y-71000000D02*
X115000000Y-70000000D01*
X116000000Y-57000000D02*
X115000000Y-57000000D01*
X115000000Y-71000000D02*
X116000000Y-71000000D01*
X115000000Y-58000000D02*
X115000000Y-57000000D01*
%TO.C,MX27*%
X129000000Y-40000000D02*
X128000000Y-40000000D01*
X129000000Y-40000000D02*
X129000000Y-41000000D01*
X128000000Y-54000000D02*
X129000000Y-54000000D01*
X129000000Y-54000000D02*
X128000000Y-54000000D01*
X129000000Y-53000000D02*
X129000000Y-54000000D01*
X115000000Y-54000000D02*
X115000000Y-53000000D01*
X116000000Y-40000000D02*
X115000000Y-40000000D01*
X115000000Y-54000000D02*
X116000000Y-54000000D01*
X115000000Y-41000000D02*
X115000000Y-40000000D01*
%TO.C,MX25*%
X129000000Y-93000000D02*
X128000000Y-93000000D01*
X129000000Y-93000000D02*
X129000000Y-94000000D01*
X128000000Y-107000000D02*
X129000000Y-107000000D01*
X129000000Y-107000000D02*
X128000000Y-107000000D01*
X129000000Y-106000000D02*
X129000000Y-107000000D01*
X115000000Y-107000000D02*
X115000000Y-106000000D01*
X116000000Y-93000000D02*
X115000000Y-93000000D01*
X115000000Y-107000000D02*
X116000000Y-107000000D01*
X115000000Y-94000000D02*
X115000000Y-93000000D01*
%TO.C,MX24*%
X111000000Y-74000000D02*
X110000000Y-74000000D01*
X111000000Y-74000000D02*
X111000000Y-75000000D01*
X110000000Y-88000000D02*
X111000000Y-88000000D01*
X111000000Y-88000000D02*
X110000000Y-88000000D01*
X111000000Y-87000000D02*
X111000000Y-88000000D01*
X97000000Y-88000000D02*
X97000000Y-87000000D01*
X98000000Y-74000000D02*
X97000000Y-74000000D01*
X97000000Y-88000000D02*
X98000000Y-88000000D01*
X97000000Y-75000000D02*
X97000000Y-74000000D01*
%TO.C,MX23*%
X111000000Y-57000000D02*
X110000000Y-57000000D01*
X111000000Y-57000000D02*
X111000000Y-58000000D01*
X110000000Y-71000000D02*
X111000000Y-71000000D01*
X111000000Y-71000000D02*
X110000000Y-71000000D01*
X111000000Y-70000000D02*
X111000000Y-71000000D01*
X97000000Y-71000000D02*
X97000000Y-70000000D01*
X98000000Y-57000000D02*
X97000000Y-57000000D01*
X97000000Y-71000000D02*
X98000000Y-71000000D01*
X97000000Y-58000000D02*
X97000000Y-57000000D01*
%TO.C,MX22*%
X111000000Y-40000000D02*
X110000000Y-40000000D01*
X111000000Y-40000000D02*
X111000000Y-41000000D01*
X110000000Y-54000000D02*
X111000000Y-54000000D01*
X111000000Y-54000000D02*
X110000000Y-54000000D01*
X111000000Y-53000000D02*
X111000000Y-54000000D01*
X97000000Y-54000000D02*
X97000000Y-53000000D01*
X98000000Y-40000000D02*
X97000000Y-40000000D01*
X97000000Y-54000000D02*
X98000000Y-54000000D01*
X97000000Y-41000000D02*
X97000000Y-40000000D01*
%TO.C,MX20*%
X111000000Y-93000000D02*
X110000000Y-93000000D01*
X111000000Y-93000000D02*
X111000000Y-94000000D01*
X110000000Y-107000000D02*
X111000000Y-107000000D01*
X111000000Y-107000000D02*
X110000000Y-107000000D01*
X111000000Y-106000000D02*
X111000000Y-107000000D01*
X97000000Y-107000000D02*
X97000000Y-106000000D01*
X98000000Y-93000000D02*
X97000000Y-93000000D01*
X97000000Y-107000000D02*
X98000000Y-107000000D01*
X97000000Y-94000000D02*
X97000000Y-93000000D01*
%TO.C,MX19*%
X93000000Y-74000000D02*
X92000000Y-74000000D01*
X93000000Y-74000000D02*
X93000000Y-75000000D01*
X92000000Y-88000000D02*
X93000000Y-88000000D01*
X93000000Y-88000000D02*
X92000000Y-88000000D01*
X93000000Y-87000000D02*
X93000000Y-88000000D01*
X79000000Y-88000000D02*
X79000000Y-87000000D01*
X80000000Y-74000000D02*
X79000000Y-74000000D01*
X79000000Y-88000000D02*
X80000000Y-88000000D01*
X79000000Y-75000000D02*
X79000000Y-74000000D01*
%TO.C,MX18*%
X93000000Y-57000000D02*
X92000000Y-57000000D01*
X93000000Y-57000000D02*
X93000000Y-58000000D01*
X92000000Y-71000000D02*
X93000000Y-71000000D01*
X93000000Y-71000000D02*
X92000000Y-71000000D01*
X93000000Y-70000000D02*
X93000000Y-71000000D01*
X79000000Y-71000000D02*
X79000000Y-70000000D01*
X80000000Y-57000000D02*
X79000000Y-57000000D01*
X79000000Y-71000000D02*
X80000000Y-71000000D01*
X79000000Y-58000000D02*
X79000000Y-57000000D01*
%TO.C,MX17*%
X93000000Y-40000000D02*
X92000000Y-40000000D01*
X93000000Y-40000000D02*
X93000000Y-41000000D01*
X92000000Y-54000000D02*
X93000000Y-54000000D01*
X93000000Y-54000000D02*
X92000000Y-54000000D01*
X93000000Y-53000000D02*
X93000000Y-54000000D01*
X79000000Y-54000000D02*
X79000000Y-53000000D01*
X80000000Y-40000000D02*
X79000000Y-40000000D01*
X79000000Y-54000000D02*
X80000000Y-54000000D01*
X79000000Y-41000000D02*
X79000000Y-40000000D01*
%TO.C,MX15*%
X93000000Y-93000000D02*
X92000000Y-93000000D01*
X93000000Y-93000000D02*
X93000000Y-94000000D01*
X92000000Y-107000000D02*
X93000000Y-107000000D01*
X93000000Y-107000000D02*
X92000000Y-107000000D01*
X93000000Y-106000000D02*
X93000000Y-107000000D01*
X79000000Y-107000000D02*
X79000000Y-106000000D01*
X80000000Y-93000000D02*
X79000000Y-93000000D01*
X79000000Y-107000000D02*
X80000000Y-107000000D01*
X79000000Y-94000000D02*
X79000000Y-93000000D01*
%TO.C,MX14*%
X75000000Y-74000000D02*
X74000000Y-74000000D01*
X75000000Y-74000000D02*
X75000000Y-75000000D01*
X74000000Y-88000000D02*
X75000000Y-88000000D01*
X75000000Y-88000000D02*
X74000000Y-88000000D01*
X75000000Y-87000000D02*
X75000000Y-88000000D01*
X61000000Y-88000000D02*
X61000000Y-87000000D01*
X62000000Y-74000000D02*
X61000000Y-74000000D01*
X61000000Y-88000000D02*
X62000000Y-88000000D01*
X61000000Y-75000000D02*
X61000000Y-74000000D01*
%TO.C,MX13*%
X75000000Y-57000000D02*
X74000000Y-57000000D01*
X75000000Y-57000000D02*
X75000000Y-58000000D01*
X74000000Y-71000000D02*
X75000000Y-71000000D01*
X75000000Y-71000000D02*
X74000000Y-71000000D01*
X75000000Y-70000000D02*
X75000000Y-71000000D01*
X61000000Y-71000000D02*
X61000000Y-70000000D01*
X62000000Y-57000000D02*
X61000000Y-57000000D01*
X61000000Y-71000000D02*
X62000000Y-71000000D01*
X61000000Y-58000000D02*
X61000000Y-57000000D01*
%TO.C,MX12*%
X75000000Y-40000000D02*
X74000000Y-40000000D01*
X75000000Y-40000000D02*
X75000000Y-41000000D01*
X74000000Y-54000000D02*
X75000000Y-54000000D01*
X75000000Y-54000000D02*
X74000000Y-54000000D01*
X75000000Y-53000000D02*
X75000000Y-54000000D01*
X61000000Y-54000000D02*
X61000000Y-53000000D01*
X62000000Y-40000000D02*
X61000000Y-40000000D01*
X61000000Y-54000000D02*
X62000000Y-54000000D01*
X61000000Y-41000000D02*
X61000000Y-40000000D01*
%TO.C,MX10*%
X75000000Y-93000000D02*
X74000000Y-93000000D01*
X75000000Y-93000000D02*
X75000000Y-94000000D01*
X74000000Y-107000000D02*
X75000000Y-107000000D01*
X75000000Y-107000000D02*
X74000000Y-107000000D01*
X75000000Y-106000000D02*
X75000000Y-107000000D01*
X61000000Y-107000000D02*
X61000000Y-106000000D01*
X62000000Y-93000000D02*
X61000000Y-93000000D01*
X61000000Y-107000000D02*
X62000000Y-107000000D01*
X61000000Y-94000000D02*
X61000000Y-93000000D01*
%TO.C,MX9*%
X57000000Y-74000000D02*
X56000000Y-74000000D01*
X57000000Y-74000000D02*
X57000000Y-75000000D01*
X56000000Y-88000000D02*
X57000000Y-88000000D01*
X57000000Y-88000000D02*
X56000000Y-88000000D01*
X57000000Y-87000000D02*
X57000000Y-88000000D01*
X43000000Y-88000000D02*
X43000000Y-87000000D01*
X44000000Y-74000000D02*
X43000000Y-74000000D01*
X43000000Y-88000000D02*
X44000000Y-88000000D01*
X43000000Y-75000000D02*
X43000000Y-74000000D01*
%TO.C,MX8*%
X57000000Y-57000000D02*
X56000000Y-57000000D01*
X57000000Y-57000000D02*
X57000000Y-58000000D01*
X56000000Y-71000000D02*
X57000000Y-71000000D01*
X57000000Y-71000000D02*
X56000000Y-71000000D01*
X57000000Y-70000000D02*
X57000000Y-71000000D01*
X43000000Y-71000000D02*
X43000000Y-70000000D01*
X44000000Y-57000000D02*
X43000000Y-57000000D01*
X43000000Y-71000000D02*
X44000000Y-71000000D01*
X43000000Y-58000000D02*
X43000000Y-57000000D01*
%TO.C,MX7*%
X57000000Y-40000000D02*
X56000000Y-40000000D01*
X57000000Y-40000000D02*
X57000000Y-41000000D01*
X56000000Y-54000000D02*
X57000000Y-54000000D01*
X57000000Y-54000000D02*
X56000000Y-54000000D01*
X57000000Y-53000000D02*
X57000000Y-54000000D01*
X43000000Y-54000000D02*
X43000000Y-53000000D01*
X44000000Y-40000000D02*
X43000000Y-40000000D01*
X43000000Y-54000000D02*
X44000000Y-54000000D01*
X43000000Y-41000000D02*
X43000000Y-40000000D01*
%TO.C,MX5*%
X57000000Y-93000000D02*
X56000000Y-93000000D01*
X57000000Y-93000000D02*
X57000000Y-94000000D01*
X56000000Y-107000000D02*
X57000000Y-107000000D01*
X57000000Y-107000000D02*
X56000000Y-107000000D01*
X57000000Y-106000000D02*
X57000000Y-107000000D01*
X43000000Y-107000000D02*
X43000000Y-106000000D01*
X44000000Y-93000000D02*
X43000000Y-93000000D01*
X43000000Y-107000000D02*
X44000000Y-107000000D01*
X43000000Y-94000000D02*
X43000000Y-93000000D01*
%TO.C,MX4*%
X37000000Y-74000000D02*
X36000000Y-74000000D01*
X37000000Y-74000000D02*
X37000000Y-75000000D01*
X36000000Y-88000000D02*
X37000000Y-88000000D01*
X37000000Y-88000000D02*
X36000000Y-88000000D01*
X37000000Y-87000000D02*
X37000000Y-88000000D01*
X23000000Y-88000000D02*
X23000000Y-87000000D01*
X24000000Y-74000000D02*
X23000000Y-74000000D01*
X23000000Y-88000000D02*
X24000000Y-88000000D01*
X23000000Y-75000000D02*
X23000000Y-74000000D01*
%TO.C,MX3*%
X37000000Y-57000000D02*
X36000000Y-57000000D01*
X37000000Y-57000000D02*
X37000000Y-58000000D01*
X36000000Y-71000000D02*
X37000000Y-71000000D01*
X37000000Y-71000000D02*
X36000000Y-71000000D01*
X37000000Y-70000000D02*
X37000000Y-71000000D01*
X23000000Y-71000000D02*
X23000000Y-70000000D01*
X24000000Y-57000000D02*
X23000000Y-57000000D01*
X23000000Y-71000000D02*
X24000000Y-71000000D01*
X23000000Y-58000000D02*
X23000000Y-57000000D01*
%TO.C,MX2*%
X37000000Y-40000000D02*
X36000000Y-40000000D01*
X37000000Y-40000000D02*
X37000000Y-41000000D01*
X36000000Y-54000000D02*
X37000000Y-54000000D01*
X37000000Y-54000000D02*
X36000000Y-54000000D01*
X37000000Y-53000000D02*
X37000000Y-54000000D01*
X23000000Y-54000000D02*
X23000000Y-53000000D01*
X24000000Y-40000000D02*
X23000000Y-40000000D01*
X23000000Y-54000000D02*
X24000000Y-54000000D01*
X23000000Y-41000000D02*
X23000000Y-40000000D01*
%TO.C,J1*%
X157702380Y-43333333D02*
X158416666Y-43333333D01*
X158559523Y-43380952D01*
X158654761Y-43476190D01*
X158702380Y-43619047D01*
X158702380Y-43714285D01*
X158702380Y-42333333D02*
X158702380Y-42904761D01*
X158702380Y-42619047D02*
X157702380Y-42619047D01*
X157845238Y-42714285D01*
X157940476Y-42809523D01*
X157988095Y-42904761D01*
%TD*%
M02*
