G04 #@! TF.GenerationSoftware,KiCad,Pcbnew,(5.1.11)-1*
G04 #@! TF.CreationDate,2022-08-10T17:55:51+07:00*
G04 #@! TF.ProjectId,Plate,506c6174-652e-46b6-9963-61645f706362,rev?*
G04 #@! TF.SameCoordinates,Original*
G04 #@! TF.FileFunction,Legend,Bot*
G04 #@! TF.FilePolarity,Positive*
%FSLAX45Y45*%
G04 Gerber Fmt 4.5, Leading zero omitted, Abs format (unit mm)*
G04 Created by KiCad (PCBNEW (5.1.11)-1) date 2022-08-10 17:55:51*
%MOMM*%
%LPD*%
G01*
G04 APERTURE LIST*
%ADD10C,3.000000*%
G04 APERTURE END LIST*
D10*
X15075837Y-13444671D02*
X15025837Y-13495372D01*
X15025837Y-14914979D02*
X15025837Y-13495372D01*
X15025837Y-14914979D02*
X15075837Y-14965679D01*
X15675837Y-14965679D02*
X15075837Y-14965679D01*
X15675837Y-14965679D02*
X15725837Y-14914979D01*
X15725837Y-13495372D02*
X15725837Y-14914979D01*
X15725837Y-13495372D02*
X15675837Y-13444671D01*
X15075837Y-13444671D02*
X15675837Y-13444671D01*
X12688236Y-13444671D02*
X12638237Y-13494671D01*
X12638237Y-13662134D02*
X12638237Y-13494671D01*
X12103336Y-13662134D02*
X12638237Y-13662134D01*
X12103336Y-13662134D02*
X12053337Y-13712134D01*
X12053337Y-15012134D02*
X12053337Y-13712134D01*
X12053337Y-15012134D02*
X12103336Y-15062133D01*
X14826900Y-15062133D02*
X12103336Y-15062133D01*
X14826900Y-15062133D02*
X14882036Y-15012134D01*
X14882036Y-13712134D02*
X14882036Y-15012134D01*
X14882036Y-13712134D02*
X14826900Y-13662134D01*
X13338235Y-13662134D02*
X14826900Y-13662134D01*
X13338235Y-13494671D02*
X13338235Y-13662134D01*
X13338235Y-13494671D02*
X13288236Y-13444671D01*
X12688236Y-13444671D02*
X13288236Y-13444671D01*
X10313337Y-13444671D02*
X10263337Y-13494671D01*
X10263337Y-14894671D02*
X10263337Y-13494671D01*
X10263337Y-14894671D02*
X10313337Y-14944671D01*
X10913337Y-14944671D02*
X10313337Y-14944671D01*
X10913337Y-14944671D02*
X10963337Y-14894671D01*
X10963337Y-13494671D02*
X10963337Y-14894671D01*
X10963337Y-13494671D02*
X10913337Y-13444671D01*
X10313337Y-13444671D02*
X10913337Y-13444671D01*
X7399560Y-14914977D02*
X7449720Y-14965679D01*
X8525575Y-14965679D02*
X7449720Y-14965679D01*
X8525575Y-14965679D02*
X8575737Y-14914977D01*
X8575737Y-13495373D02*
X8575737Y-14914977D01*
X8575737Y-13495373D02*
X8525575Y-13444671D01*
X7449720Y-13444671D02*
X8525575Y-13444671D01*
X7449720Y-13444671D02*
X7399560Y-13495373D01*
X7399560Y-14914977D02*
X7399560Y-13495373D01*
X17417120Y-13436272D02*
X17361084Y-13489404D01*
X17361084Y-13652135D02*
X17361084Y-13489404D01*
X16856551Y-13652135D02*
X17361084Y-13652135D01*
X16856551Y-13652135D02*
X16805835Y-13702849D01*
X16805835Y-15021421D02*
X16805835Y-13702849D01*
X16805835Y-15021421D02*
X16856551Y-15072135D01*
X18175123Y-15072135D02*
X16856551Y-15072135D01*
X18175123Y-15072135D02*
X18225837Y-15021421D01*
X18225837Y-13702849D02*
X18225837Y-15021421D01*
X18225837Y-13702849D02*
X18175123Y-13652135D01*
X18145611Y-13652135D02*
X18175123Y-13652135D01*
X18145611Y-13489404D02*
X18145611Y-13652135D01*
X18145611Y-13489404D02*
X18089573Y-13436272D01*
X17417120Y-13436272D02*
X18089573Y-13436272D01*
X8760251Y-13652134D02*
X8709536Y-13702848D01*
X8709536Y-15021420D02*
X8709536Y-13702848D01*
X8709536Y-15021420D02*
X8760251Y-15072134D01*
X10078822Y-15072134D02*
X8760251Y-15072134D01*
X10078822Y-15072134D02*
X10129536Y-15021420D01*
X10129536Y-13702848D02*
X10129536Y-15021420D01*
X10129536Y-13702848D02*
X10078822Y-13652134D01*
X8760251Y-13652134D02*
X10078822Y-13652134D01*
X21568360Y-15021420D02*
X21619074Y-15072133D01*
X22937647Y-15072133D02*
X21619074Y-15072133D01*
X22937647Y-15072133D02*
X22988360Y-15021420D01*
X22988360Y-13702847D02*
X22988360Y-15021420D01*
X22988360Y-13702847D02*
X22937647Y-13652133D01*
X21619074Y-13652133D02*
X22937647Y-13652133D01*
X21619074Y-13652133D02*
X21568360Y-13702847D01*
X21568360Y-15021420D02*
X21568360Y-13702847D01*
X19187061Y-15021420D02*
X19237774Y-15072133D01*
X20556347Y-15072133D02*
X19237774Y-15072133D01*
X20556347Y-15072133D02*
X20607063Y-15021420D01*
X20607063Y-13702847D02*
X20607063Y-15021420D01*
X20607063Y-13702847D02*
X20556347Y-13652133D01*
X19237774Y-13652133D02*
X20556347Y-13652133D01*
X19237774Y-13652133D02*
X19187061Y-13702847D01*
X19187061Y-15021420D02*
X19187061Y-13702847D01*
X4904561Y-15016777D02*
X4954917Y-15067133D01*
X6264204Y-15067133D02*
X4954917Y-15067133D01*
X6264204Y-15067133D02*
X6314561Y-15016777D01*
X6314561Y-13707490D02*
X6314561Y-15016777D01*
X6314561Y-13707490D02*
X6264204Y-13657133D01*
X4954917Y-13657133D02*
X6264204Y-13657133D01*
X4954917Y-13657133D02*
X4904561Y-13707490D01*
X4904561Y-15016777D02*
X4904561Y-13707490D01*
X2518360Y-15021420D02*
X2569074Y-15072133D01*
X3887647Y-15072133D02*
X2569074Y-15072133D01*
X3887647Y-15072133D02*
X3938362Y-15021420D01*
X3938362Y-13702847D02*
X3938362Y-15021420D01*
X3938362Y-13702847D02*
X3887647Y-13652133D01*
X2569074Y-13652133D02*
X3887647Y-13652133D01*
X2569074Y-13652133D02*
X2518360Y-13702847D01*
X2518360Y-15021420D02*
X2518360Y-13702847D01*
X137061Y-15021420D02*
X187774Y-15072133D01*
X1506347Y-15072133D02*
X187774Y-15072133D01*
X1506347Y-15072133D02*
X1557061Y-15021420D01*
X1557061Y-13702847D02*
X1557061Y-15021420D01*
X1557061Y-13702847D02*
X1506347Y-13652133D01*
X187774Y-13652133D02*
X1506347Y-13652133D01*
X187774Y-13652133D02*
X137061Y-13702847D01*
X137061Y-15021420D02*
X137061Y-13702847D01*
X27640811Y-7997134D02*
X27640811Y-8849634D01*
X27640811Y-7997134D02*
X27590811Y-7947134D01*
X26152686Y-7947134D02*
X27590811Y-7947134D01*
X26152686Y-7947134D02*
X26102686Y-7997134D01*
X26102686Y-9297134D02*
X26102686Y-7997134D01*
X26102686Y-9297134D02*
X26152686Y-9347134D01*
X26290811Y-9347134D02*
X26152686Y-9347134D01*
X26290811Y-9347134D02*
X26340811Y-9397134D01*
X26340811Y-9802134D02*
X26340811Y-9397134D01*
X26340811Y-9802134D02*
X26290811Y-9852134D01*
X24247686Y-9852134D02*
X26290811Y-9852134D01*
X24247686Y-9852134D02*
X24197686Y-9902134D01*
X24197686Y-11202134D02*
X24197686Y-9902134D01*
X24197686Y-11202134D02*
X24247686Y-11252134D01*
X24409264Y-11252134D02*
X24247686Y-11252134D01*
X24409264Y-11252134D02*
X24459264Y-11302134D01*
X24459264Y-11402134D02*
X24459264Y-11302134D01*
X24459264Y-11402134D02*
X24509264Y-11452134D01*
X25194511Y-11452134D02*
X24509264Y-11452134D01*
X25194511Y-11452134D02*
X25244511Y-11402134D01*
X25244511Y-11302134D02*
X25244511Y-11402134D01*
X25244511Y-11302134D02*
X25294511Y-11252134D01*
X26828731Y-11252134D02*
X25294511Y-11252134D01*
X26828731Y-11252134D02*
X26878731Y-11302134D01*
X26878731Y-11402134D02*
X26878731Y-11302134D01*
X26878731Y-11402134D02*
X26928731Y-11452134D01*
X27590811Y-11452134D02*
X26928731Y-11452134D01*
X27590811Y-11452134D02*
X27640811Y-11402134D01*
X27640811Y-10349634D02*
X27640811Y-11402134D01*
X27640811Y-10349634D02*
X27690811Y-10299634D01*
X27690811Y-10299634D02*
X27740811Y-10249634D01*
X27740811Y-8949634D02*
X27740811Y-10249634D01*
X27740811Y-8949634D02*
X27690811Y-8899634D01*
X27690811Y-8899634D02*
X27640811Y-8849634D01*
X28473936Y-15021420D02*
X28524651Y-15072134D01*
X29843222Y-15072134D02*
X28524651Y-15072134D01*
X29843222Y-15072134D02*
X29893936Y-15021420D01*
X29893936Y-13702848D02*
X29893936Y-15021420D01*
X29893936Y-13702848D02*
X29843222Y-13652134D01*
X28524651Y-13652134D02*
X29843222Y-13652134D01*
X28524651Y-13652134D02*
X28473936Y-13702848D01*
X28473936Y-15021420D02*
X28473936Y-13702848D01*
X425901Y-7937134D02*
X375186Y-7987848D01*
X375186Y-9306420D02*
X375186Y-7987848D01*
X375186Y-9306420D02*
X425901Y-9357134D01*
X1744472Y-9357134D02*
X425901Y-9357134D01*
X1744472Y-9357134D02*
X1795186Y-9306420D01*
X1795186Y-7987848D02*
X1795186Y-9306420D01*
X1795186Y-7987848D02*
X1744472Y-7937134D01*
X425901Y-7937134D02*
X1744472Y-7937134D01*
X17520186Y-13116420D02*
X17570901Y-13167134D01*
X18889472Y-13167134D02*
X17570901Y-13167134D01*
X18889472Y-13167134D02*
X18940186Y-13116420D01*
X18940186Y-11797848D02*
X18940186Y-13116420D01*
X18940186Y-11797848D02*
X18889472Y-11747134D01*
X17570901Y-11747134D02*
X18889472Y-11747134D01*
X17570901Y-11747134D02*
X17520186Y-11797848D01*
X17520186Y-13116420D02*
X17520186Y-11797848D01*
X18472686Y-11211420D02*
X18523401Y-11262134D01*
X19841972Y-11262134D02*
X18523401Y-11262134D01*
X19841972Y-11262134D02*
X19892686Y-11211420D01*
X19892686Y-9892849D02*
X19892686Y-11211420D01*
X19892686Y-9892849D02*
X19841972Y-9842134D01*
X18523401Y-9842134D02*
X19841972Y-9842134D01*
X18523401Y-9842134D02*
X18472686Y-9892849D01*
X18472686Y-11211420D02*
X18472686Y-9892849D01*
X7042686Y-11211420D02*
X7093401Y-11262134D01*
X8411972Y-11262134D02*
X7093401Y-11262134D01*
X8411972Y-11262134D02*
X8462686Y-11211420D01*
X8462686Y-9892849D02*
X8462686Y-11211420D01*
X8462686Y-9892849D02*
X8411972Y-9842134D01*
X7093401Y-9842134D02*
X8411972Y-9842134D01*
X7093401Y-9842134D02*
X7042686Y-9892849D01*
X7042686Y-11211420D02*
X7042686Y-9892849D01*
X28473936Y-13116420D02*
X28524651Y-13167134D01*
X29843222Y-13167134D02*
X28524651Y-13167134D01*
X29843222Y-13167134D02*
X29893936Y-13116420D01*
X29893936Y-11797848D02*
X29893936Y-13116420D01*
X29893936Y-11797848D02*
X29843222Y-11747134D01*
X28524651Y-11747134D02*
X29843222Y-11747134D01*
X28524651Y-11747134D02*
X28473936Y-11797848D01*
X28473936Y-13116420D02*
X28473936Y-11797848D01*
X6617151Y-7937134D02*
X6566436Y-7987848D01*
X6566436Y-9306420D02*
X6566436Y-7987848D01*
X6566436Y-9306420D02*
X6617151Y-9357134D01*
X7935722Y-9357134D02*
X6617151Y-9357134D01*
X7935722Y-9357134D02*
X7986436Y-9306420D01*
X7986436Y-7987848D02*
X7986436Y-9306420D01*
X7986436Y-7987848D02*
X7935722Y-7937134D01*
X6617151Y-7937134D02*
X7935722Y-7937134D01*
X8471436Y-9306420D02*
X8522151Y-9357134D01*
X9840722Y-9357134D02*
X8522151Y-9357134D01*
X9840722Y-9357134D02*
X9891436Y-9306420D01*
X9891436Y-7987848D02*
X9891436Y-9306420D01*
X9891436Y-7987848D02*
X9840722Y-7937134D01*
X8522151Y-7937134D02*
X9840722Y-7937134D01*
X8522151Y-7937134D02*
X8471436Y-7987848D01*
X8471436Y-9306420D02*
X8471436Y-7987848D01*
X2756436Y-9306420D02*
X2807151Y-9357134D01*
X4125722Y-9357134D02*
X2807151Y-9357134D01*
X4125722Y-9357134D02*
X4176436Y-9306420D01*
X4176436Y-7987848D02*
X4176436Y-9306420D01*
X4176436Y-7987848D02*
X4125722Y-7937134D01*
X2807151Y-7937134D02*
X4125722Y-7937134D01*
X2807151Y-7937134D02*
X2756436Y-7987848D01*
X2756436Y-9306420D02*
X2756436Y-7987848D01*
X14186436Y-9306420D02*
X14237151Y-9357134D01*
X15555722Y-9357134D02*
X14237151Y-9357134D01*
X15555722Y-9357134D02*
X15606436Y-9306420D01*
X15606436Y-7987848D02*
X15606436Y-9306420D01*
X15606436Y-7987848D02*
X15555722Y-7937134D01*
X14237151Y-7937134D02*
X15555722Y-7937134D01*
X14237151Y-7937134D02*
X14186436Y-7987848D01*
X14186436Y-9306420D02*
X14186436Y-7987848D01*
X3232686Y-11211420D02*
X3283401Y-11262134D01*
X4601972Y-11262134D02*
X3283401Y-11262134D01*
X4601972Y-11262134D02*
X4652686Y-11211420D01*
X4652686Y-9892849D02*
X4652686Y-11211420D01*
X4652686Y-9892849D02*
X4601972Y-9842134D01*
X3283401Y-9842134D02*
X4601972Y-9842134D01*
X3283401Y-9842134D02*
X3232686Y-9892849D01*
X3232686Y-11211420D02*
X3232686Y-9892849D01*
X15138936Y-7401420D02*
X15189651Y-7452134D01*
X16508222Y-7452134D02*
X15189651Y-7452134D01*
X16508222Y-7452134D02*
X16558936Y-7401420D01*
X16558936Y-6082848D02*
X16558936Y-7401420D01*
X16558936Y-6082848D02*
X16508222Y-6032134D01*
X15189651Y-6032134D02*
X16508222Y-6032134D01*
X15189651Y-6032134D02*
X15138936Y-6082848D01*
X15138936Y-7401420D02*
X15138936Y-6082848D01*
X18948936Y-7401420D02*
X18999651Y-7452134D01*
X20318222Y-7452134D02*
X18999651Y-7452134D01*
X20318222Y-7452134D02*
X20368936Y-7401420D01*
X20368936Y-6082848D02*
X20368936Y-7401420D01*
X20368936Y-6082848D02*
X20318222Y-6032134D01*
X18999651Y-6032134D02*
X20318222Y-6032134D01*
X18999651Y-6032134D02*
X18948936Y-6082848D01*
X18948936Y-7401420D02*
X18948936Y-6082848D01*
X7569651Y-6032134D02*
X7518936Y-6082848D01*
X7518936Y-7401420D02*
X7518936Y-6082848D01*
X7518936Y-7401420D02*
X7569651Y-7452134D01*
X8888222Y-7452134D02*
X7569651Y-7452134D01*
X8888222Y-7452134D02*
X8938936Y-7401420D01*
X8938936Y-6082848D02*
X8938936Y-7401420D01*
X8938936Y-6082848D02*
X8888222Y-6032134D01*
X7569651Y-6032134D02*
X8888222Y-6032134D01*
X16567686Y-11211420D02*
X16618401Y-11262134D01*
X17936972Y-11262134D02*
X16618401Y-11262134D01*
X17936972Y-11262134D02*
X17987686Y-11211420D01*
X17987686Y-9892849D02*
X17987686Y-11211420D01*
X17987686Y-9892849D02*
X17936972Y-9842134D01*
X16618401Y-9842134D02*
X17936972Y-9842134D01*
X16618401Y-9842134D02*
X16567686Y-9892849D01*
X16567686Y-11211420D02*
X16567686Y-9892849D01*
X197061Y-11757134D02*
X147061Y-11807134D01*
X147061Y-13307134D02*
X147061Y-11807134D01*
X147061Y-13307134D02*
X197061Y-13357134D01*
X905761Y-13357134D02*
X197061Y-13357134D01*
X905761Y-13357134D02*
X955761Y-13307134D01*
X955761Y-13207134D02*
X955761Y-13307134D01*
X955761Y-13207134D02*
X1005761Y-13157134D01*
X2593361Y-13157134D02*
X1005761Y-13157134D01*
X2593361Y-13157134D02*
X2643361Y-13207134D01*
X2643361Y-13307134D02*
X2643361Y-13207134D01*
X2643361Y-13307134D02*
X2693361Y-13357134D01*
X3640186Y-13357134D02*
X2693361Y-13357134D01*
X3640186Y-13357134D02*
X3690186Y-13307134D01*
X3690186Y-11807134D02*
X3690186Y-13307134D01*
X3690186Y-11807134D02*
X3640186Y-11757134D01*
X197061Y-11757134D02*
X3640186Y-11757134D01*
X9950901Y-11747134D02*
X9900186Y-11797848D01*
X9900186Y-13116420D02*
X9900186Y-11797848D01*
X9900186Y-13116420D02*
X9950901Y-13167134D01*
X11269472Y-13167134D02*
X9950901Y-13167134D01*
X11269472Y-13167134D02*
X11320186Y-13116420D01*
X11320186Y-11797848D02*
X11320186Y-13116420D01*
X11320186Y-11797848D02*
X11269472Y-11747134D01*
X9950901Y-11747134D02*
X11269472Y-11747134D01*
X1803936Y-7401420D02*
X1854651Y-7452134D01*
X3173222Y-7452134D02*
X1854651Y-7452134D01*
X3173222Y-7452134D02*
X3223936Y-7401420D01*
X3223936Y-6082848D02*
X3223936Y-7401420D01*
X3223936Y-6082848D02*
X3173222Y-6032134D01*
X1854651Y-6032134D02*
X3173222Y-6032134D01*
X1854651Y-6032134D02*
X1803936Y-6082848D01*
X1803936Y-7401420D02*
X1803936Y-6082848D01*
X28473936Y-9306420D02*
X28524651Y-9357134D01*
X29843222Y-9357134D02*
X28524651Y-9357134D01*
X29843222Y-9357134D02*
X29893936Y-9306420D01*
X29893936Y-7987848D02*
X29893936Y-9306420D01*
X29893936Y-7987848D02*
X29843222Y-7937134D01*
X28524651Y-7937134D02*
X29843222Y-7937134D01*
X28524651Y-7937134D02*
X28473936Y-7987848D01*
X28473936Y-9306420D02*
X28473936Y-7987848D01*
X13710186Y-13116420D02*
X13760901Y-13167134D01*
X15079472Y-13167134D02*
X13760901Y-13167134D01*
X15079472Y-13167134D02*
X15130186Y-13116420D01*
X15130186Y-11797848D02*
X15130186Y-13116420D01*
X15130186Y-11797848D02*
X15079472Y-11747134D01*
X13760901Y-11747134D02*
X15079472Y-11747134D01*
X13760901Y-11747134D02*
X13710186Y-11797848D01*
X13710186Y-13116420D02*
X13710186Y-11797848D01*
X10852686Y-11211420D02*
X10903401Y-11262134D01*
X12221972Y-11262134D02*
X10903401Y-11262134D01*
X12221972Y-11262134D02*
X12272686Y-11211420D01*
X12272686Y-9892849D02*
X12272686Y-11211420D01*
X12272686Y-9892849D02*
X12221972Y-9842134D01*
X10903401Y-9842134D02*
X12221972Y-9842134D01*
X10903401Y-9842134D02*
X10852686Y-9892849D01*
X10852686Y-11211420D02*
X10852686Y-9892849D01*
X4235901Y-11747134D02*
X4185186Y-11797848D01*
X4185186Y-13116420D02*
X4185186Y-11797848D01*
X4185186Y-13116420D02*
X4235901Y-13167134D01*
X5554472Y-13167134D02*
X4235901Y-13167134D01*
X5554472Y-13167134D02*
X5605186Y-13116420D01*
X5605186Y-11797848D02*
X5605186Y-13116420D01*
X5605186Y-11797848D02*
X5554472Y-11747134D01*
X4235901Y-11747134D02*
X5554472Y-11747134D01*
X17043936Y-7401420D02*
X17094651Y-7452134D01*
X18413222Y-7452134D02*
X17094651Y-7452134D01*
X18413222Y-7452134D02*
X18463936Y-7401420D01*
X18463936Y-6082848D02*
X18463936Y-7401420D01*
X18463936Y-6082848D02*
X18413222Y-6032134D01*
X17094651Y-6032134D02*
X18413222Y-6032134D01*
X17094651Y-6032134D02*
X17043936Y-6082848D01*
X17043936Y-7401420D02*
X17043936Y-6082848D01*
X11805186Y-13116420D02*
X11855901Y-13167134D01*
X13174472Y-13167134D02*
X11855901Y-13167134D01*
X13174472Y-13167134D02*
X13225186Y-13116420D01*
X13225186Y-11797848D02*
X13225186Y-13116420D01*
X13225186Y-11797848D02*
X13174472Y-11747134D01*
X11855901Y-11747134D02*
X13174472Y-11747134D01*
X11855901Y-11747134D02*
X11805186Y-11797848D01*
X11805186Y-13116420D02*
X11805186Y-11797848D01*
X8045901Y-11747134D02*
X7995186Y-11797848D01*
X7995186Y-13116420D02*
X7995186Y-11797848D01*
X7995186Y-13116420D02*
X8045901Y-13167134D01*
X9364472Y-13167134D02*
X8045901Y-13167134D01*
X9364472Y-13167134D02*
X9415186Y-13116420D01*
X9415186Y-11797848D02*
X9415186Y-13116420D01*
X9415186Y-11797848D02*
X9364472Y-11747134D01*
X8045901Y-11747134D02*
X9364472Y-11747134D01*
X25432636Y-7642134D02*
X25482636Y-7592134D01*
X25482636Y-7492134D02*
X25482636Y-7592134D01*
X25482636Y-7492134D02*
X25532636Y-7442134D01*
X27120236Y-7442134D02*
X25532636Y-7442134D01*
X27120236Y-7442134D02*
X27170236Y-7492134D01*
X27170236Y-7592134D02*
X27170236Y-7492134D01*
X27170236Y-7592134D02*
X27220236Y-7642134D01*
X27928936Y-7642134D02*
X27220236Y-7642134D01*
X27928936Y-7642134D02*
X27978936Y-7592134D01*
X27978936Y-6092134D02*
X27978936Y-7592134D01*
X27978936Y-6092134D02*
X27928936Y-6042134D01*
X24723936Y-6042134D02*
X27928936Y-6042134D01*
X24723936Y-6042134D02*
X24673936Y-6092134D01*
X24673936Y-7592134D02*
X24673936Y-6092134D01*
X24673936Y-7592134D02*
X24723936Y-7642134D01*
X25432636Y-7642134D02*
X24723936Y-7642134D01*
X24714651Y-13652134D02*
X24663936Y-13702848D01*
X24663936Y-15021420D02*
X24663936Y-13702848D01*
X24663936Y-15021420D02*
X24714651Y-15072134D01*
X26033222Y-15072134D02*
X24714651Y-15072134D01*
X26033222Y-15072134D02*
X26083936Y-15021420D01*
X26083936Y-13702848D02*
X26083936Y-15021420D01*
X26083936Y-13702848D02*
X26033222Y-13652134D01*
X24714651Y-13652134D02*
X26033222Y-13652134D01*
X28473936Y-7401420D02*
X28524651Y-7452134D01*
X29843222Y-7452134D02*
X28524651Y-7452134D01*
X29843222Y-7452134D02*
X29893936Y-7401420D01*
X29893936Y-6082848D02*
X29893936Y-7401420D01*
X29893936Y-6082848D02*
X29843222Y-6032134D01*
X28524651Y-6032134D02*
X29843222Y-6032134D01*
X28524651Y-6032134D02*
X28473936Y-6082848D01*
X28473936Y-7401420D02*
X28473936Y-6082848D01*
X12281436Y-9306420D02*
X12332151Y-9357134D01*
X13650722Y-9357134D02*
X12332151Y-9357134D01*
X13650722Y-9357134D02*
X13701436Y-9306420D01*
X13701436Y-7987848D02*
X13701436Y-9306420D01*
X13701436Y-7987848D02*
X13650722Y-7937134D01*
X12332151Y-7937134D02*
X13650722Y-7937134D01*
X12332151Y-7937134D02*
X12281436Y-7987848D01*
X12281436Y-9306420D02*
X12281436Y-7987848D01*
X4661436Y-9306420D02*
X4712151Y-9357134D01*
X6030722Y-9357134D02*
X4712151Y-9357134D01*
X6030722Y-9357134D02*
X6081436Y-9306420D01*
X6081436Y-7987848D02*
X6081436Y-9306420D01*
X6081436Y-7987848D02*
X6030722Y-7937134D01*
X4712151Y-7937134D02*
X6030722Y-7937134D01*
X4712151Y-7937134D02*
X4661436Y-7987848D01*
X4661436Y-9306420D02*
X4661436Y-7987848D01*
X12808401Y-9842134D02*
X12757686Y-9892849D01*
X12757686Y-11211420D02*
X12757686Y-9892849D01*
X12757686Y-11211420D02*
X12808401Y-11262134D01*
X14126972Y-11262134D02*
X12808401Y-11262134D01*
X14126972Y-11262134D02*
X14177686Y-11211420D01*
X14177686Y-9892849D02*
X14177686Y-11211420D01*
X14177686Y-9892849D02*
X14126972Y-9842134D01*
X12808401Y-9842134D02*
X14126972Y-9842134D01*
X16142151Y-7937134D02*
X16091436Y-7987848D01*
X16091436Y-9306420D02*
X16091436Y-7987848D01*
X16091436Y-9306420D02*
X16142151Y-9357134D01*
X17460722Y-9357134D02*
X16142151Y-9357134D01*
X17460722Y-9357134D02*
X17511436Y-9306420D01*
X17511436Y-7987848D02*
X17511436Y-9306420D01*
X17511436Y-7987848D02*
X17460722Y-7937134D01*
X16142151Y-7937134D02*
X17460722Y-7937134D01*
X19425186Y-13116420D02*
X19475901Y-13167134D01*
X20794472Y-13167134D02*
X19475901Y-13167134D01*
X20794472Y-13167134D02*
X20845186Y-13116420D01*
X20845186Y-11797848D02*
X20845186Y-13116420D01*
X20845186Y-11797848D02*
X20794472Y-11747134D01*
X19475901Y-11747134D02*
X20794472Y-11747134D01*
X19475901Y-11747134D02*
X19425186Y-11797848D01*
X19425186Y-13116420D02*
X19425186Y-11797848D01*
X22758936Y-7401420D02*
X22809651Y-7452134D01*
X24128222Y-7452134D02*
X22809651Y-7452134D01*
X24128222Y-7452134D02*
X24178936Y-7401420D01*
X24178936Y-6082848D02*
X24178936Y-7401420D01*
X24178936Y-6082848D02*
X24128222Y-6032134D01*
X22809651Y-6032134D02*
X24128222Y-6032134D01*
X22809651Y-6032134D02*
X22758936Y-6082848D01*
X22758936Y-7401420D02*
X22758936Y-6082848D01*
X15615186Y-13116420D02*
X15665901Y-13167134D01*
X16984472Y-13167134D02*
X15665901Y-13167134D01*
X16984472Y-13167134D02*
X17035186Y-13116420D01*
X17035186Y-11797848D02*
X17035186Y-13116420D01*
X17035186Y-11797848D02*
X16984472Y-11747134D01*
X15665901Y-11747134D02*
X16984472Y-11747134D01*
X15665901Y-11747134D02*
X15615186Y-11797848D01*
X15615186Y-13116420D02*
X15615186Y-11797848D01*
X6090186Y-13116420D02*
X6140901Y-13167134D01*
X7459472Y-13167134D02*
X6140901Y-13167134D01*
X7459472Y-13167134D02*
X7510186Y-13116420D01*
X7510186Y-11797848D02*
X7510186Y-13116420D01*
X7510186Y-11797848D02*
X7459472Y-11747134D01*
X6140901Y-11747134D02*
X7459472Y-11747134D01*
X6140901Y-11747134D02*
X6090186Y-11797848D01*
X6090186Y-13116420D02*
X6090186Y-11797848D01*
X28473936Y-11211420D02*
X28524651Y-11262134D01*
X29843222Y-11262134D02*
X28524651Y-11262134D01*
X29843222Y-11262134D02*
X29893936Y-11211420D01*
X29893936Y-9892849D02*
X29893936Y-11211420D01*
X29893936Y-9892849D02*
X29843222Y-9842134D01*
X28524651Y-9842134D02*
X29843222Y-9842134D01*
X28524651Y-9842134D02*
X28473936Y-9892849D01*
X28473936Y-11211420D02*
X28473936Y-9892849D01*
X22282686Y-11211420D02*
X22333401Y-11262134D01*
X23651972Y-11262134D02*
X22333401Y-11262134D01*
X23651972Y-11262134D02*
X23702686Y-11211420D01*
X23702686Y-9892849D02*
X23702686Y-11211420D01*
X23702686Y-9892849D02*
X23651972Y-9842134D01*
X22333401Y-9842134D02*
X23651972Y-9842134D01*
X22333401Y-9842134D02*
X22282686Y-9892849D01*
X22282686Y-11211420D02*
X22282686Y-9892849D01*
X8947686Y-11211420D02*
X8998401Y-11262134D01*
X10316972Y-11262134D02*
X8998401Y-11262134D01*
X10316972Y-11262134D02*
X10367686Y-11211420D01*
X10367686Y-9892849D02*
X10367686Y-11211420D01*
X10367686Y-9892849D02*
X10316972Y-9842134D01*
X8998401Y-9842134D02*
X10316972Y-9842134D01*
X8998401Y-9842134D02*
X8947686Y-9892849D01*
X8947686Y-11211420D02*
X8947686Y-9892849D01*
X23711436Y-9306420D02*
X23762151Y-9357134D01*
X25080722Y-9357134D02*
X23762151Y-9357134D01*
X25080722Y-9357134D02*
X25131436Y-9306420D01*
X25131436Y-7987848D02*
X25131436Y-9306420D01*
X25131436Y-7987848D02*
X25080722Y-7937134D01*
X23762151Y-7937134D02*
X25080722Y-7937134D01*
X23762151Y-7937134D02*
X23711436Y-7987848D01*
X23711436Y-9306420D02*
X23711436Y-7987848D01*
X5137686Y-11211420D02*
X5188401Y-11262134D01*
X6506972Y-11262134D02*
X5188401Y-11262134D01*
X6506972Y-11262134D02*
X6557686Y-11211420D01*
X6557686Y-9892849D02*
X6557686Y-11211420D01*
X6557686Y-9892849D02*
X6506972Y-9842134D01*
X5188401Y-9842134D02*
X6506972Y-9842134D01*
X5188401Y-9842134D02*
X5137686Y-9892849D01*
X5137686Y-11211420D02*
X5137686Y-9892849D01*
X10376436Y-9306420D02*
X10427151Y-9357134D01*
X11745722Y-9357134D02*
X10427151Y-9357134D01*
X11745722Y-9357134D02*
X11796436Y-9306420D01*
X11796436Y-7987848D02*
X11796436Y-9306420D01*
X11796436Y-7987848D02*
X11745722Y-7937134D01*
X10427151Y-7937134D02*
X11745722Y-7937134D01*
X10427151Y-7937134D02*
X10376436Y-7987848D01*
X10376436Y-9306420D02*
X10376436Y-7987848D01*
X21330186Y-13116420D02*
X21380901Y-13167134D01*
X22699472Y-13167134D02*
X21380901Y-13167134D01*
X22699472Y-13167134D02*
X22750186Y-13116420D01*
X22750186Y-11797848D02*
X22750186Y-13116420D01*
X22750186Y-11797848D02*
X22699472Y-11747134D01*
X21380901Y-11747134D02*
X22699472Y-11747134D01*
X21380901Y-11747134D02*
X21330186Y-11797848D01*
X21330186Y-13116420D02*
X21330186Y-11797848D01*
X14662686Y-11211420D02*
X14713401Y-11262134D01*
X16031972Y-11262134D02*
X14713401Y-11262134D01*
X16031972Y-11262134D02*
X16082686Y-11211420D01*
X16082686Y-9892849D02*
X16082686Y-11211420D01*
X16082686Y-9892849D02*
X16031972Y-9842134D01*
X14713401Y-9842134D02*
X16031972Y-9842134D01*
X14713401Y-9842134D02*
X14662686Y-9892849D01*
X14662686Y-11211420D02*
X14662686Y-9892849D01*
X20377686Y-11211420D02*
X20428401Y-11262134D01*
X21746972Y-11262134D02*
X20428401Y-11262134D01*
X21746972Y-11262134D02*
X21797686Y-11211420D01*
X21797686Y-9892849D02*
X21797686Y-11211420D01*
X21797686Y-9892849D02*
X21746972Y-9842134D01*
X20428401Y-9842134D02*
X21746972Y-9842134D01*
X20428401Y-9842134D02*
X20377686Y-9892849D01*
X20377686Y-11211420D02*
X20377686Y-9892849D01*
X19901436Y-9306420D02*
X19952151Y-9357134D01*
X21270722Y-9357134D02*
X19952151Y-9357134D01*
X21270722Y-9357134D02*
X21321436Y-9306420D01*
X21321436Y-7987848D02*
X21321436Y-9306420D01*
X21321436Y-7987848D02*
X21270722Y-7937134D01*
X19952151Y-7937134D02*
X21270722Y-7937134D01*
X19952151Y-7937134D02*
X19901436Y-7987848D01*
X19901436Y-9306420D02*
X19901436Y-7987848D01*
X18047151Y-7937134D02*
X17996436Y-7987848D01*
X17996436Y-9306420D02*
X17996436Y-7987848D01*
X17996436Y-9306420D02*
X18047151Y-9357134D01*
X19365722Y-9357134D02*
X18047151Y-9357134D01*
X19365722Y-9357134D02*
X19416436Y-9306420D01*
X19416436Y-7987848D02*
X19416436Y-9306420D01*
X19416436Y-7987848D02*
X19365722Y-7937134D01*
X18047151Y-7937134D02*
X19365722Y-7937134D01*
X5664651Y-6032134D02*
X5613936Y-6082848D01*
X5613936Y-7401420D02*
X5613936Y-6082848D01*
X5613936Y-7401420D02*
X5664651Y-7452134D01*
X6983222Y-7452134D02*
X5664651Y-7452134D01*
X6983222Y-7452134D02*
X7033936Y-7401420D01*
X7033936Y-6082848D02*
X7033936Y-7401420D01*
X7033936Y-6082848D02*
X6983222Y-6032134D01*
X5664651Y-6032134D02*
X6983222Y-6032134D01*
X21806436Y-9306420D02*
X21857151Y-9357134D01*
X23175722Y-9357134D02*
X21857151Y-9357134D01*
X23175722Y-9357134D02*
X23226436Y-9306420D01*
X23226436Y-7987848D02*
X23226436Y-9306420D01*
X23226436Y-7987848D02*
X23175722Y-7937134D01*
X21857151Y-7937134D02*
X23175722Y-7937134D01*
X21857151Y-7937134D02*
X21806436Y-7987848D01*
X21806436Y-9306420D02*
X21806436Y-7987848D01*
X26568936Y-13116420D02*
X26619651Y-13167134D01*
X27938222Y-13167134D02*
X26619651Y-13167134D01*
X27938222Y-13167134D02*
X27988936Y-13116420D01*
X27988936Y-11797848D02*
X27988936Y-13116420D01*
X27988936Y-11797848D02*
X27938222Y-11747134D01*
X26619651Y-11747134D02*
X27938222Y-11747134D01*
X26619651Y-11747134D02*
X26568936Y-11797848D01*
X26568936Y-13116420D02*
X26568936Y-11797848D01*
X3708936Y-7401420D02*
X3759651Y-7452134D01*
X5078222Y-7452134D02*
X3759651Y-7452134D01*
X5078222Y-7452134D02*
X5128936Y-7401420D01*
X5128936Y-6082848D02*
X5128936Y-7401420D01*
X5128936Y-6082848D02*
X5078222Y-6032134D01*
X3759651Y-6032134D02*
X5078222Y-6032134D01*
X3759651Y-6032134D02*
X3708936Y-6082848D01*
X3708936Y-7401420D02*
X3708936Y-6082848D01*
X9423936Y-7401420D02*
X9474651Y-7452134D01*
X10793222Y-7452134D02*
X9474651Y-7452134D01*
X10793222Y-7452134D02*
X10843936Y-7401420D01*
X10843936Y-6082848D02*
X10843936Y-7401420D01*
X10843936Y-6082848D02*
X10793222Y-6032134D01*
X9474651Y-6032134D02*
X10793222Y-6032134D01*
X9474651Y-6032134D02*
X9423936Y-6082848D01*
X9423936Y-7401420D02*
X9423936Y-6082848D01*
X147061Y-11202134D02*
X197061Y-11252134D01*
X1973311Y-11252134D02*
X197061Y-11252134D01*
X1973311Y-11252134D02*
X2023311Y-11202134D01*
X2023311Y-9902134D02*
X2023311Y-11202134D01*
X2023311Y-9902134D02*
X1973311Y-9852134D01*
X197061Y-9852134D02*
X1973311Y-9852134D01*
X197061Y-9852134D02*
X147061Y-9902134D01*
X147061Y-11202134D02*
X147061Y-9902134D01*
X20853936Y-7401420D02*
X20904651Y-7452134D01*
X22223222Y-7452134D02*
X20904651Y-7452134D01*
X22223222Y-7452134D02*
X22273936Y-7401420D01*
X22273936Y-6082848D02*
X22273936Y-7401420D01*
X22273936Y-6082848D02*
X22223222Y-6032134D01*
X20904651Y-6032134D02*
X22223222Y-6032134D01*
X20904651Y-6032134D02*
X20853936Y-6082848D01*
X20853936Y-7401420D02*
X20853936Y-6082848D01*
X23949561Y-13116420D02*
X24000276Y-13167134D01*
X25318847Y-13167134D02*
X24000276Y-13167134D01*
X25318847Y-13167134D02*
X25369561Y-13116420D01*
X25369561Y-11797848D02*
X25369561Y-13116420D01*
X25369561Y-11797848D02*
X25318847Y-11747134D01*
X24000276Y-11747134D02*
X25318847Y-11747134D01*
X24000276Y-11747134D02*
X23949561Y-11797848D01*
X23949561Y-13116420D02*
X23949561Y-11797848D01*
X26568936Y-15021420D02*
X26619651Y-15072134D01*
X27938222Y-15072134D02*
X26619651Y-15072134D01*
X27938222Y-15072134D02*
X27988936Y-15021420D01*
X27988936Y-13702848D02*
X27988936Y-15021420D01*
X27988936Y-13702848D02*
X27938222Y-13652134D01*
X26619651Y-13652134D02*
X27938222Y-13652134D01*
X26619651Y-13652134D02*
X26568936Y-13702848D01*
X26568936Y-15021420D02*
X26568936Y-13702848D01*
X13233936Y-7401420D02*
X13284651Y-7452134D01*
X14603222Y-7452134D02*
X13284651Y-7452134D01*
X14603222Y-7452134D02*
X14653936Y-7401420D01*
X14653936Y-6082848D02*
X14653936Y-7401420D01*
X14653936Y-6082848D02*
X14603222Y-6032134D01*
X13284651Y-6032134D02*
X14603222Y-6032134D01*
X13284651Y-6032134D02*
X13233936Y-6082848D01*
X13233936Y-7401420D02*
X13233936Y-6082848D01*
X11328936Y-7401420D02*
X11379651Y-7452134D01*
X12698222Y-7452134D02*
X11379651Y-7452134D01*
X12698222Y-7452134D02*
X12748936Y-7401420D01*
X12748936Y-6082848D02*
X12748936Y-7401420D01*
X12748936Y-6082848D02*
X12698222Y-6032134D01*
X11379651Y-6032134D02*
X12698222Y-6032134D01*
X11379651Y-6032134D02*
X11328936Y-6082848D01*
X11328936Y-7401420D02*
X11328936Y-6082848D01*
X7147042Y-11507809D02*
X7037042Y-11397809D01*
X7037042Y-11617809D02*
X7147042Y-11507809D01*
X6927042Y-11507809D02*
X7037042Y-11617809D01*
X7037042Y-11397809D02*
X6927042Y-11507809D01*
X28103382Y-8647129D02*
X27993382Y-8537129D01*
X27993382Y-8757129D02*
X28103382Y-8647129D01*
X27883382Y-8647129D02*
X27993382Y-8757129D01*
X27993382Y-8537129D02*
X27883382Y-8647129D01*
X28341436Y-13409639D02*
X28231436Y-13299639D01*
X28231436Y-13519639D02*
X28341436Y-13409639D01*
X28121436Y-13409639D02*
X28231436Y-13519639D01*
X28231436Y-13299639D02*
X28121436Y-13409639D01*
X23098242Y-11507809D02*
X22988242Y-11397809D01*
X22988242Y-11617809D02*
X23098242Y-11507809D01*
X22878242Y-11507809D02*
X22988242Y-11617809D01*
X22988242Y-11397809D02*
X22878242Y-11507809D01*
X18340187Y-9599634D02*
X18230187Y-9489634D01*
X18230187Y-9709634D02*
X18340187Y-9599634D01*
X18120187Y-9599634D02*
X18230187Y-9709634D01*
X18230187Y-9489634D02*
X18120187Y-9599634D01*
X10720187Y-9599634D02*
X10610187Y-9489634D01*
X10610187Y-9709634D02*
X10720187Y-9599634D01*
X10500187Y-9599634D02*
X10610187Y-9709634D01*
X10610187Y-9489634D02*
X10500187Y-9599634D01*
X4052687Y-13409644D02*
X3942687Y-13299644D01*
X3942687Y-13519644D02*
X4052687Y-13409644D01*
X3832687Y-13409644D02*
X3942687Y-13519644D01*
X3942687Y-13299644D02*
X3832687Y-13409644D01*
X2385782Y-8647129D02*
X2275782Y-8537129D01*
X2275782Y-8757129D02*
X2385782Y-8647129D01*
X2165782Y-8647129D02*
X2275782Y-8757129D01*
X2275782Y-8537129D02*
X2165782Y-8647129D01*
X-101063Y-7401420D02*
X-50349Y-7452134D01*
X1268222Y-7452134D02*
X-50349Y-7452134D01*
X1268222Y-7452134D02*
X1318936Y-7401420D01*
X1318936Y-6082848D02*
X1318936Y-7401420D01*
X1318936Y-6082848D02*
X1268222Y-6032134D01*
X-50349Y-6032134D02*
X1268222Y-6032134D01*
X-50349Y-6032134D02*
X-101063Y-6082848D01*
X-101063Y-7401420D02*
X-101063Y-6082848D01*
M02*
