G04 #@! TF.GenerationSoftware,KiCad,Pcbnew,(5.1.10)-1*
G04 #@! TF.CreationDate,2022-02-10T22:40:46+07:00*
G04 #@! TF.ProjectId,Plate,506c6174-652e-46b6-9963-61645f706362,rev?*
G04 #@! TF.SameCoordinates,Original*
G04 #@! TF.FileFunction,Soldermask,Top*
G04 #@! TF.FilePolarity,Negative*
%FSLAX45Y45*%
G04 Gerber Fmt 4.5, Leading zero omitted, Abs format (unit mm)*
G04 Created by KiCad (PCBNEW (5.1.10)-1) date 2022-02-10 22:40:46*
%MOMM*%
%LPD*%
G01*
G04 APERTURE LIST*
%ADD10C,2.000000*%
%ADD11C,0.010000*%
G04 APERTURE END LIST*
D10*
X25465104Y-10225040D02*
X25465104Y-8825040D01*
X25165104Y-10225040D02*
X25465104Y-10225040D01*
X25165104Y-10425040D02*
X25165104Y-10225040D01*
X24365104Y-10425040D02*
X25165104Y-10425040D01*
X30206118Y-8153473D02*
X30206118Y-14706575D01*
X30006118Y-7953473D02*
G75*
G02*
X30206118Y-8153473I0J-200000D01*
G01*
X23333926Y-7953473D02*
X30006118Y-7953473D01*
X23133926Y-8153473D02*
G75*
G02*
X23333926Y-7953473I200000J0D01*
G01*
X23133926Y-14706575D02*
X23133926Y-8153473D01*
X23333926Y-14906575D02*
G75*
G02*
X23133926Y-14706575I0J200000D01*
G01*
X30006118Y-14906575D02*
X23333926Y-14906574D01*
X30206118Y-14706575D02*
G75*
G02*
X30006118Y-14906575I-200000J0D01*
G01*
X25970000Y-12635000D02*
X25970000Y-14035000D01*
X27370000Y-12635000D02*
X25970000Y-12635000D01*
X27370000Y-14035000D02*
X27370000Y-12635000D01*
X25970000Y-14035000D02*
X27370000Y-14035000D01*
X23548926Y-14606575D02*
G75*
G03*
X23548926Y-14606575I-115000J0D01*
G01*
X27370000Y-12130000D02*
X27370000Y-10730000D01*
X25970000Y-12130000D02*
X27370000Y-12130000D01*
X25970000Y-10730000D02*
X25970000Y-12130000D01*
X27370000Y-10730000D02*
X25970000Y-10730000D01*
X25465000Y-12635000D02*
X24065000Y-12635000D01*
X25465000Y-14035000D02*
X25465000Y-12635000D01*
X24065000Y-14035000D02*
X25465000Y-14035000D01*
X24065000Y-12635000D02*
X24065000Y-14035000D01*
X30021118Y-14606575D02*
G75*
G03*
X30021118Y-14606575I-115000J0D01*
G01*
X30021118Y-8253473D02*
G75*
G03*
X30021118Y-8253473I-115000J0D01*
G01*
X27875000Y-10730000D02*
X27875000Y-12130000D01*
X29275000Y-10730000D02*
X27875000Y-10730000D01*
X29275000Y-12130000D02*
X29275000Y-10730000D01*
X27875000Y-12130000D02*
X29275000Y-12130000D01*
X29275000Y-12635000D02*
X27875000Y-12635000D01*
X29275000Y-14035000D02*
X29275000Y-12635000D01*
X27875000Y-14035000D02*
X29275000Y-14035000D01*
X27875000Y-12635000D02*
X27875000Y-14035000D01*
X23548926Y-8253473D02*
G75*
G03*
X23548926Y-8253473I-115000J0D01*
G01*
X25465000Y-12130000D02*
X25465000Y-10730000D01*
X24065000Y-12130000D02*
X25465000Y-12130000D01*
X24065000Y-10730000D02*
X24065000Y-12130000D01*
X25465000Y-10730000D02*
X24065000Y-10730000D01*
X25465104Y-8825040D02*
X25165104Y-8825040D01*
X24365104Y-10225040D02*
X24365104Y-10425040D01*
X24065104Y-10225040D02*
X24365104Y-10225040D01*
X24065104Y-8825040D02*
X24065104Y-10225040D01*
X24365104Y-8825040D02*
X24065104Y-8825040D01*
X24365104Y-8675040D02*
X24365104Y-8825040D01*
X25165104Y-8675040D02*
X24365104Y-8675040D01*
X25165104Y-8825040D02*
X25165104Y-8675040D01*
D11*
G36*
X27922656Y-9215958D02*
G01*
X27923727Y-9218405D01*
X27925557Y-9223840D01*
X27927894Y-9231474D01*
X27930490Y-9240518D01*
X27930653Y-9241106D01*
X27940265Y-9271998D01*
X27951020Y-9299361D01*
X27963023Y-9323434D01*
X27976381Y-9344456D01*
X27976392Y-9344470D01*
X27980659Y-9350100D01*
X27986836Y-9357847D01*
X27994254Y-9366894D01*
X28002246Y-9376420D01*
X28006829Y-9381783D01*
X28028221Y-9407482D01*
X28047054Y-9432087D01*
X28064007Y-9456624D01*
X28079756Y-9482118D01*
X28094978Y-9509595D01*
X28107474Y-9534183D01*
X28120798Y-9561997D01*
X28132085Y-9587220D01*
X28141528Y-9610468D01*
X28149322Y-9632358D01*
X28155661Y-9653504D01*
X28160740Y-9674525D01*
X28164752Y-9696035D01*
X28167893Y-9718651D01*
X28169096Y-9729568D01*
X28170019Y-9742611D01*
X28170498Y-9758548D01*
X28170555Y-9776393D01*
X28170216Y-9795160D01*
X28169502Y-9813864D01*
X28168437Y-9831518D01*
X28167045Y-9847137D01*
X28166133Y-9854614D01*
X28157598Y-9904093D01*
X28145548Y-9954595D01*
X28130108Y-10005723D01*
X28111402Y-10057077D01*
X28089556Y-10108261D01*
X28080181Y-10128152D01*
X28072857Y-10142991D01*
X28065826Y-10156684D01*
X28059290Y-10168879D01*
X28053453Y-10179226D01*
X28048517Y-10187375D01*
X28044686Y-10192972D01*
X28042163Y-10195669D01*
X28041224Y-10195508D01*
X28040329Y-10192717D01*
X28038503Y-10186910D01*
X28035969Y-10178801D01*
X28032952Y-10169107D01*
X28031156Y-10163322D01*
X28021313Y-10133091D01*
X28010964Y-10104470D01*
X27999861Y-10077003D01*
X27987758Y-10050233D01*
X27974410Y-10023705D01*
X27959568Y-9996961D01*
X27942986Y-9969545D01*
X27924419Y-9941000D01*
X27903619Y-9910871D01*
X27880340Y-9878700D01*
X27869555Y-9864192D01*
X27856217Y-9846336D01*
X27844965Y-9831177D01*
X27835514Y-9818306D01*
X27827580Y-9807313D01*
X27820876Y-9797791D01*
X27815119Y-9789329D01*
X27810021Y-9781521D01*
X27805299Y-9773956D01*
X27800666Y-9766226D01*
X27797955Y-9761587D01*
X27782265Y-9731046D01*
X27770207Y-9699642D01*
X27765193Y-9682412D01*
X27759660Y-9661183D01*
X27759803Y-9597683D01*
X27759995Y-9572278D01*
X27760490Y-9549979D01*
X27761344Y-9529993D01*
X27762616Y-9511528D01*
X27764363Y-9493789D01*
X27766643Y-9475984D01*
X27769515Y-9457319D01*
X27770465Y-9451642D01*
X27778238Y-9412563D01*
X27787712Y-9376725D01*
X27798863Y-9344179D01*
X27811664Y-9314975D01*
X27826090Y-9289165D01*
X27842117Y-9266800D01*
X27859718Y-9247929D01*
X27878869Y-9232604D01*
X27879479Y-9232192D01*
X27887020Y-9227649D01*
X27895440Y-9223412D01*
X27903941Y-9219781D01*
X27911725Y-9217056D01*
X27917993Y-9215538D01*
X27921946Y-9215527D01*
X27922656Y-9215958D01*
G37*
X27922656Y-9215958D02*
X27923727Y-9218405D01*
X27925557Y-9223840D01*
X27927894Y-9231474D01*
X27930490Y-9240518D01*
X27930653Y-9241106D01*
X27940265Y-9271998D01*
X27951020Y-9299361D01*
X27963023Y-9323434D01*
X27976381Y-9344456D01*
X27976392Y-9344470D01*
X27980659Y-9350100D01*
X27986836Y-9357847D01*
X27994254Y-9366894D01*
X28002246Y-9376420D01*
X28006829Y-9381783D01*
X28028221Y-9407482D01*
X28047054Y-9432087D01*
X28064007Y-9456624D01*
X28079756Y-9482118D01*
X28094978Y-9509595D01*
X28107474Y-9534183D01*
X28120798Y-9561997D01*
X28132085Y-9587220D01*
X28141528Y-9610468D01*
X28149322Y-9632358D01*
X28155661Y-9653504D01*
X28160740Y-9674525D01*
X28164752Y-9696035D01*
X28167893Y-9718651D01*
X28169096Y-9729568D01*
X28170019Y-9742611D01*
X28170498Y-9758548D01*
X28170555Y-9776393D01*
X28170216Y-9795160D01*
X28169502Y-9813864D01*
X28168437Y-9831518D01*
X28167045Y-9847137D01*
X28166133Y-9854614D01*
X28157598Y-9904093D01*
X28145548Y-9954595D01*
X28130108Y-10005723D01*
X28111402Y-10057077D01*
X28089556Y-10108261D01*
X28080181Y-10128152D01*
X28072857Y-10142991D01*
X28065826Y-10156684D01*
X28059290Y-10168879D01*
X28053453Y-10179226D01*
X28048517Y-10187375D01*
X28044686Y-10192972D01*
X28042163Y-10195669D01*
X28041224Y-10195508D01*
X28040329Y-10192717D01*
X28038503Y-10186910D01*
X28035969Y-10178801D01*
X28032952Y-10169107D01*
X28031156Y-10163322D01*
X28021313Y-10133091D01*
X28010964Y-10104470D01*
X27999861Y-10077003D01*
X27987758Y-10050233D01*
X27974410Y-10023705D01*
X27959568Y-9996961D01*
X27942986Y-9969545D01*
X27924419Y-9941000D01*
X27903619Y-9910871D01*
X27880340Y-9878700D01*
X27869555Y-9864192D01*
X27856217Y-9846336D01*
X27844965Y-9831177D01*
X27835514Y-9818306D01*
X27827580Y-9807313D01*
X27820876Y-9797791D01*
X27815119Y-9789329D01*
X27810021Y-9781521D01*
X27805299Y-9773956D01*
X27800666Y-9766226D01*
X27797955Y-9761587D01*
X27782265Y-9731046D01*
X27770207Y-9699642D01*
X27765193Y-9682412D01*
X27759660Y-9661183D01*
X27759803Y-9597683D01*
X27759995Y-9572278D01*
X27760490Y-9549979D01*
X27761344Y-9529993D01*
X27762616Y-9511528D01*
X27764363Y-9493789D01*
X27766643Y-9475984D01*
X27769515Y-9457319D01*
X27770465Y-9451642D01*
X27778238Y-9412563D01*
X27787712Y-9376725D01*
X27798863Y-9344179D01*
X27811664Y-9314975D01*
X27826090Y-9289165D01*
X27842117Y-9266800D01*
X27859718Y-9247929D01*
X27878869Y-9232604D01*
X27879479Y-9232192D01*
X27887020Y-9227649D01*
X27895440Y-9223412D01*
X27903941Y-9219781D01*
X27911725Y-9217056D01*
X27917993Y-9215538D01*
X27921946Y-9215527D01*
X27922656Y-9215958D01*
G36*
X27723333Y-9133042D02*
G01*
X27749921Y-9133995D01*
X27776093Y-9135756D01*
X27801003Y-9138313D01*
X27811437Y-9139701D01*
X27819977Y-9141047D01*
X27829660Y-9142764D01*
X27839691Y-9144685D01*
X27849278Y-9146649D01*
X27857630Y-9148490D01*
X27863954Y-9150046D01*
X27867457Y-9151151D01*
X27867839Y-9151371D01*
X27866875Y-9152963D01*
X27863723Y-9156843D01*
X27858865Y-9162443D01*
X27852781Y-9169196D01*
X27852208Y-9169820D01*
X27828361Y-9197998D01*
X27805606Y-9229199D01*
X27784448Y-9262585D01*
X27765394Y-9297316D01*
X27748952Y-9332552D01*
X27739342Y-9356863D01*
X27726565Y-9396921D01*
X27716816Y-9438427D01*
X27710205Y-9480628D01*
X27706845Y-9522769D01*
X27706846Y-9564095D01*
X27707325Y-9573260D01*
X27708100Y-9584930D01*
X27708524Y-9593667D01*
X27708244Y-9600242D01*
X27706906Y-9605422D01*
X27704158Y-9609975D01*
X27699648Y-9614669D01*
X27693023Y-9620273D01*
X27683929Y-9627556D01*
X27681506Y-9629505D01*
X27646170Y-9655697D01*
X27609500Y-9678279D01*
X27571327Y-9697326D01*
X27531481Y-9712912D01*
X27489793Y-9725110D01*
X27446095Y-9733996D01*
X27441316Y-9734750D01*
X27430271Y-9736244D01*
X27418543Y-9737392D01*
X27405370Y-9738241D01*
X27389990Y-9738837D01*
X27371641Y-9739227D01*
X27366937Y-9739292D01*
X27353044Y-9739434D01*
X27340044Y-9739501D01*
X27328577Y-9739495D01*
X27319284Y-9739417D01*
X27312806Y-9739270D01*
X27310275Y-9739126D01*
X27259226Y-9732647D01*
X27209303Y-9723567D01*
X27160049Y-9711743D01*
X27111007Y-9697034D01*
X27061719Y-9679299D01*
X27011727Y-9658397D01*
X26960574Y-9634186D01*
X26945143Y-9626364D01*
X26931541Y-9619260D01*
X26917056Y-9611508D01*
X26902767Y-9603698D01*
X26889748Y-9596417D01*
X26879077Y-9590254D01*
X26878475Y-9589898D01*
X26868878Y-9584086D01*
X26858587Y-9577664D01*
X26848105Y-9570968D01*
X26837939Y-9564335D01*
X26828593Y-9558101D01*
X26820572Y-9552604D01*
X26814381Y-9548178D01*
X26810525Y-9545162D01*
X26809482Y-9543909D01*
X26811568Y-9543939D01*
X26816238Y-9544680D01*
X26819862Y-9545413D01*
X26824599Y-9546021D01*
X26832552Y-9546572D01*
X26843026Y-9547038D01*
X26855331Y-9547392D01*
X26868772Y-9547606D01*
X26876522Y-9547655D01*
X26895546Y-9547567D01*
X26911535Y-9547109D01*
X26925352Y-9546154D01*
X26937862Y-9544578D01*
X26949929Y-9542257D01*
X26962417Y-9539066D01*
X26976190Y-9534879D01*
X26984960Y-9531995D01*
X27003665Y-9525155D01*
X27022294Y-9517135D01*
X27041116Y-9507749D01*
X27060399Y-9496814D01*
X27080412Y-9484146D01*
X27101423Y-9469559D01*
X27123701Y-9452870D01*
X27147515Y-9433895D01*
X27173132Y-9412449D01*
X27200823Y-9388347D01*
X27222352Y-9369104D01*
X27240294Y-9353031D01*
X27258300Y-9337117D01*
X27275888Y-9321778D01*
X27292576Y-9307428D01*
X27307882Y-9294482D01*
X27321323Y-9283354D01*
X27332417Y-9274459D01*
X27332913Y-9274071D01*
X27369621Y-9246649D01*
X27405237Y-9222634D01*
X27440186Y-9201829D01*
X27474891Y-9184039D01*
X27509779Y-9169070D01*
X27545273Y-9156724D01*
X27581799Y-9146808D01*
X27619781Y-9139125D01*
X27629729Y-9137503D01*
X27649526Y-9135126D01*
X27672289Y-9133597D01*
X27697174Y-9132905D01*
X27723333Y-9133042D01*
G37*
X27723333Y-9133042D02*
X27749921Y-9133995D01*
X27776093Y-9135756D01*
X27801003Y-9138313D01*
X27811437Y-9139701D01*
X27819977Y-9141047D01*
X27829660Y-9142764D01*
X27839691Y-9144685D01*
X27849278Y-9146649D01*
X27857630Y-9148490D01*
X27863954Y-9150046D01*
X27867457Y-9151151D01*
X27867839Y-9151371D01*
X27866875Y-9152963D01*
X27863723Y-9156843D01*
X27858865Y-9162443D01*
X27852781Y-9169196D01*
X27852208Y-9169820D01*
X27828361Y-9197998D01*
X27805606Y-9229199D01*
X27784448Y-9262585D01*
X27765394Y-9297316D01*
X27748952Y-9332552D01*
X27739342Y-9356863D01*
X27726565Y-9396921D01*
X27716816Y-9438427D01*
X27710205Y-9480628D01*
X27706845Y-9522769D01*
X27706846Y-9564095D01*
X27707325Y-9573260D01*
X27708100Y-9584930D01*
X27708524Y-9593667D01*
X27708244Y-9600242D01*
X27706906Y-9605422D01*
X27704158Y-9609975D01*
X27699648Y-9614669D01*
X27693023Y-9620273D01*
X27683929Y-9627556D01*
X27681506Y-9629505D01*
X27646170Y-9655697D01*
X27609500Y-9678279D01*
X27571327Y-9697326D01*
X27531481Y-9712912D01*
X27489793Y-9725110D01*
X27446095Y-9733996D01*
X27441316Y-9734750D01*
X27430271Y-9736244D01*
X27418543Y-9737392D01*
X27405370Y-9738241D01*
X27389990Y-9738837D01*
X27371641Y-9739227D01*
X27366937Y-9739292D01*
X27353044Y-9739434D01*
X27340044Y-9739501D01*
X27328577Y-9739495D01*
X27319284Y-9739417D01*
X27312806Y-9739270D01*
X27310275Y-9739126D01*
X27259226Y-9732647D01*
X27209303Y-9723567D01*
X27160049Y-9711743D01*
X27111007Y-9697034D01*
X27061719Y-9679299D01*
X27011727Y-9658397D01*
X26960574Y-9634186D01*
X26945143Y-9626364D01*
X26931541Y-9619260D01*
X26917056Y-9611508D01*
X26902767Y-9603698D01*
X26889748Y-9596417D01*
X26879077Y-9590254D01*
X26878475Y-9589898D01*
X26868878Y-9584086D01*
X26858587Y-9577664D01*
X26848105Y-9570968D01*
X26837939Y-9564335D01*
X26828593Y-9558101D01*
X26820572Y-9552604D01*
X26814381Y-9548178D01*
X26810525Y-9545162D01*
X26809482Y-9543909D01*
X26811568Y-9543939D01*
X26816238Y-9544680D01*
X26819862Y-9545413D01*
X26824599Y-9546021D01*
X26832552Y-9546572D01*
X26843026Y-9547038D01*
X26855331Y-9547392D01*
X26868772Y-9547606D01*
X26876522Y-9547655D01*
X26895546Y-9547567D01*
X26911535Y-9547109D01*
X26925352Y-9546154D01*
X26937862Y-9544578D01*
X26949929Y-9542257D01*
X26962417Y-9539066D01*
X26976190Y-9534879D01*
X26984960Y-9531995D01*
X27003665Y-9525155D01*
X27022294Y-9517135D01*
X27041116Y-9507749D01*
X27060399Y-9496814D01*
X27080412Y-9484146D01*
X27101423Y-9469559D01*
X27123701Y-9452870D01*
X27147515Y-9433895D01*
X27173132Y-9412449D01*
X27200823Y-9388347D01*
X27222352Y-9369104D01*
X27240294Y-9353031D01*
X27258300Y-9337117D01*
X27275888Y-9321778D01*
X27292576Y-9307428D01*
X27307882Y-9294482D01*
X27321323Y-9283354D01*
X27332417Y-9274459D01*
X27332913Y-9274071D01*
X27369621Y-9246649D01*
X27405237Y-9222634D01*
X27440186Y-9201829D01*
X27474891Y-9184039D01*
X27509779Y-9169070D01*
X27545273Y-9156724D01*
X27581799Y-9146808D01*
X27619781Y-9139125D01*
X27629729Y-9137503D01*
X27649526Y-9135126D01*
X27672289Y-9133597D01*
X27697174Y-9132905D01*
X27723333Y-9133042D01*
G36*
X28021720Y-9015106D02*
G01*
X28024521Y-9019603D01*
X28028582Y-9026442D01*
X28033583Y-9035084D01*
X28038895Y-9044442D01*
X28056314Y-9075396D01*
X28090193Y-9081765D01*
X28101210Y-9083909D01*
X28110838Y-9085922D01*
X28118441Y-9087660D01*
X28123383Y-9088978D01*
X28125019Y-9089667D01*
X28124060Y-9091520D01*
X28120815Y-9095714D01*
X28115692Y-9101764D01*
X28109103Y-9109182D01*
X28102540Y-9116324D01*
X28093163Y-9126566D01*
X28086380Y-9134429D01*
X28081950Y-9140223D01*
X28079632Y-9144257D01*
X28079133Y-9146339D01*
X28079373Y-9149909D01*
X28080022Y-9156565D01*
X28080997Y-9165518D01*
X28082212Y-9175978D01*
X28082988Y-9182380D01*
X28084257Y-9192915D01*
X28085294Y-9201977D01*
X28086028Y-9208908D01*
X28086388Y-9213050D01*
X28086388Y-9213934D01*
X28084567Y-9213284D01*
X28079783Y-9211232D01*
X28072610Y-9208034D01*
X28063625Y-9203945D01*
X28054814Y-9199879D01*
X28044481Y-9195165D01*
X28035216Y-9191094D01*
X28027662Y-9187938D01*
X28022463Y-9185965D01*
X28020405Y-9185422D01*
X28017427Y-9186220D01*
X28011756Y-9188392D01*
X28004213Y-9191603D01*
X27995859Y-9195407D01*
X27982809Y-9201496D01*
X27971787Y-9206566D01*
X27963134Y-9210465D01*
X27957194Y-9213038D01*
X27954311Y-9214132D01*
X27954087Y-9214133D01*
X27954321Y-9212169D01*
X27954954Y-9206984D01*
X27955907Y-9199234D01*
X27957099Y-9189578D01*
X27957975Y-9182491D01*
X27959300Y-9171503D01*
X27960431Y-9161568D01*
X27961286Y-9153472D01*
X27961778Y-9148004D01*
X27961864Y-9146339D01*
X27960989Y-9143435D01*
X27958187Y-9139007D01*
X27953216Y-9132746D01*
X27945834Y-9124342D01*
X27938457Y-9116324D01*
X27930930Y-9108114D01*
X27924516Y-9100853D01*
X27919623Y-9095026D01*
X27916664Y-9091121D01*
X27915978Y-9089667D01*
X27918117Y-9088826D01*
X27923465Y-9087441D01*
X27931388Y-9085656D01*
X27941246Y-9083616D01*
X27950804Y-9081765D01*
X27984682Y-9075396D01*
X28002102Y-9044442D01*
X28007700Y-9034586D01*
X28012659Y-9026026D01*
X28016660Y-9019299D01*
X28019385Y-9014942D01*
X28020498Y-9013488D01*
X28021720Y-9015106D01*
G37*
X28021720Y-9015106D02*
X28024521Y-9019603D01*
X28028582Y-9026442D01*
X28033583Y-9035084D01*
X28038895Y-9044442D01*
X28056314Y-9075396D01*
X28090193Y-9081765D01*
X28101210Y-9083909D01*
X28110838Y-9085922D01*
X28118441Y-9087660D01*
X28123383Y-9088978D01*
X28125019Y-9089667D01*
X28124060Y-9091520D01*
X28120815Y-9095714D01*
X28115692Y-9101764D01*
X28109103Y-9109182D01*
X28102540Y-9116324D01*
X28093163Y-9126566D01*
X28086380Y-9134429D01*
X28081950Y-9140223D01*
X28079632Y-9144257D01*
X28079133Y-9146339D01*
X28079373Y-9149909D01*
X28080022Y-9156565D01*
X28080997Y-9165518D01*
X28082212Y-9175978D01*
X28082988Y-9182380D01*
X28084257Y-9192915D01*
X28085294Y-9201977D01*
X28086028Y-9208908D01*
X28086388Y-9213050D01*
X28086388Y-9213934D01*
X28084567Y-9213284D01*
X28079783Y-9211232D01*
X28072610Y-9208034D01*
X28063625Y-9203945D01*
X28054814Y-9199879D01*
X28044481Y-9195165D01*
X28035216Y-9191094D01*
X28027662Y-9187938D01*
X28022463Y-9185965D01*
X28020405Y-9185422D01*
X28017427Y-9186220D01*
X28011756Y-9188392D01*
X28004213Y-9191603D01*
X27995859Y-9195407D01*
X27982809Y-9201496D01*
X27971787Y-9206566D01*
X27963134Y-9210465D01*
X27957194Y-9213038D01*
X27954311Y-9214132D01*
X27954087Y-9214133D01*
X27954321Y-9212169D01*
X27954954Y-9206984D01*
X27955907Y-9199234D01*
X27957099Y-9189578D01*
X27957975Y-9182491D01*
X27959300Y-9171503D01*
X27960431Y-9161568D01*
X27961286Y-9153472D01*
X27961778Y-9148004D01*
X27961864Y-9146339D01*
X27960989Y-9143435D01*
X27958187Y-9139007D01*
X27953216Y-9132746D01*
X27945834Y-9124342D01*
X27938457Y-9116324D01*
X27930930Y-9108114D01*
X27924516Y-9100853D01*
X27919623Y-9095026D01*
X27916664Y-9091121D01*
X27915978Y-9089667D01*
X27918117Y-9088826D01*
X27923465Y-9087441D01*
X27931388Y-9085656D01*
X27941246Y-9083616D01*
X27950804Y-9081765D01*
X27984682Y-9075396D01*
X28002102Y-9044442D01*
X28007700Y-9034586D01*
X28012659Y-9026026D01*
X28016660Y-9019299D01*
X28019385Y-9014942D01*
X28020498Y-9013488D01*
X28021720Y-9015106D01*
G36*
X27424115Y-8813197D02*
G01*
X27461154Y-8815669D01*
X27495915Y-8819711D01*
X27516266Y-8823055D01*
X27562406Y-8833454D01*
X27606415Y-8847130D01*
X27648298Y-8864083D01*
X27688058Y-8884317D01*
X27725698Y-8907833D01*
X27761222Y-8934634D01*
X27794634Y-8964722D01*
X27825938Y-8998100D01*
X27854058Y-9033306D01*
X27860230Y-9041902D01*
X27866677Y-9051301D01*
X27873008Y-9060884D01*
X27878832Y-9070031D01*
X27883759Y-9078123D01*
X27887399Y-9084542D01*
X27889360Y-9088668D01*
X27889591Y-9089624D01*
X27887719Y-9090640D01*
X27882394Y-9091293D01*
X27874053Y-9091597D01*
X27863133Y-9091563D01*
X27850071Y-9091205D01*
X27835304Y-9090535D01*
X27819268Y-9089566D01*
X27802401Y-9088309D01*
X27785139Y-9086777D01*
X27783106Y-9086580D01*
X27754762Y-9084101D01*
X27726727Y-9082220D01*
X27699569Y-9080949D01*
X27673857Y-9080301D01*
X27650159Y-9080289D01*
X27629043Y-9080926D01*
X27611079Y-9082225D01*
X27607516Y-9082611D01*
X27566845Y-9088992D01*
X27527762Y-9098547D01*
X27489884Y-9111423D01*
X27452828Y-9127768D01*
X27416213Y-9147729D01*
X27383143Y-9169029D01*
X27362225Y-9183468D01*
X27324527Y-9183126D01*
X27312121Y-9182984D01*
X27300464Y-9182796D01*
X27290354Y-9182579D01*
X27282584Y-9182350D01*
X27278037Y-9182132D01*
X27272620Y-9181632D01*
X27264453Y-9180760D01*
X27254663Y-9179640D01*
X27244822Y-9178453D01*
X27215945Y-9174156D01*
X27188159Y-9168466D01*
X27160973Y-9161193D01*
X27133896Y-9152146D01*
X27106439Y-9141133D01*
X27078110Y-9127964D01*
X27048421Y-9112447D01*
X27016880Y-9094391D01*
X26994729Y-9080940D01*
X26969556Y-9065651D01*
X26946976Y-9052624D01*
X26926547Y-9041661D01*
X26907828Y-9032561D01*
X26890377Y-9025127D01*
X26873752Y-9019158D01*
X26857512Y-9014455D01*
X26841215Y-9010819D01*
X26838010Y-9010220D01*
X26823177Y-9008279D01*
X26805618Y-9007193D01*
X26786417Y-9006939D01*
X26766654Y-9007493D01*
X26747413Y-9008831D01*
X26729775Y-9010931D01*
X26719237Y-9012784D01*
X26718463Y-9012441D01*
X26720776Y-9010550D01*
X26725776Y-9007332D01*
X26733065Y-9003011D01*
X26742246Y-8997807D01*
X26752921Y-8991943D01*
X26764691Y-8985640D01*
X26777159Y-8979121D01*
X26789926Y-8972607D01*
X26802275Y-8966477D01*
X26861051Y-8939090D01*
X26920493Y-8914017D01*
X26980191Y-8891386D01*
X27039735Y-8871328D01*
X27098715Y-8853970D01*
X27156721Y-8839443D01*
X27213343Y-8827877D01*
X27268170Y-8819399D01*
X27269245Y-8819262D01*
X27307363Y-8815328D01*
X27346416Y-8813015D01*
X27385602Y-8812309D01*
X27424115Y-8813197D01*
G37*
X27424115Y-8813197D02*
X27461154Y-8815669D01*
X27495915Y-8819711D01*
X27516266Y-8823055D01*
X27562406Y-8833454D01*
X27606415Y-8847130D01*
X27648298Y-8864083D01*
X27688058Y-8884317D01*
X27725698Y-8907833D01*
X27761222Y-8934634D01*
X27794634Y-8964722D01*
X27825938Y-8998100D01*
X27854058Y-9033306D01*
X27860230Y-9041902D01*
X27866677Y-9051301D01*
X27873008Y-9060884D01*
X27878832Y-9070031D01*
X27883759Y-9078123D01*
X27887399Y-9084542D01*
X27889360Y-9088668D01*
X27889591Y-9089624D01*
X27887719Y-9090640D01*
X27882394Y-9091293D01*
X27874053Y-9091597D01*
X27863133Y-9091563D01*
X27850071Y-9091205D01*
X27835304Y-9090535D01*
X27819268Y-9089566D01*
X27802401Y-9088309D01*
X27785139Y-9086777D01*
X27783106Y-9086580D01*
X27754762Y-9084101D01*
X27726727Y-9082220D01*
X27699569Y-9080949D01*
X27673857Y-9080301D01*
X27650159Y-9080289D01*
X27629043Y-9080926D01*
X27611079Y-9082225D01*
X27607516Y-9082611D01*
X27566845Y-9088992D01*
X27527762Y-9098547D01*
X27489884Y-9111423D01*
X27452828Y-9127768D01*
X27416213Y-9147729D01*
X27383143Y-9169029D01*
X27362225Y-9183468D01*
X27324527Y-9183126D01*
X27312121Y-9182984D01*
X27300464Y-9182796D01*
X27290354Y-9182579D01*
X27282584Y-9182350D01*
X27278037Y-9182132D01*
X27272620Y-9181632D01*
X27264453Y-9180760D01*
X27254663Y-9179640D01*
X27244822Y-9178453D01*
X27215945Y-9174156D01*
X27188159Y-9168466D01*
X27160973Y-9161193D01*
X27133896Y-9152146D01*
X27106439Y-9141133D01*
X27078110Y-9127964D01*
X27048421Y-9112447D01*
X27016880Y-9094391D01*
X26994729Y-9080940D01*
X26969556Y-9065651D01*
X26946976Y-9052624D01*
X26926547Y-9041661D01*
X26907828Y-9032561D01*
X26890377Y-9025127D01*
X26873752Y-9019158D01*
X26857512Y-9014455D01*
X26841215Y-9010819D01*
X26838010Y-9010220D01*
X26823177Y-9008279D01*
X26805618Y-9007193D01*
X26786417Y-9006939D01*
X26766654Y-9007493D01*
X26747413Y-9008831D01*
X26729775Y-9010931D01*
X26719237Y-9012784D01*
X26718463Y-9012441D01*
X26720776Y-9010550D01*
X26725776Y-9007332D01*
X26733065Y-9003011D01*
X26742246Y-8997807D01*
X26752921Y-8991943D01*
X26764691Y-8985640D01*
X26777159Y-8979121D01*
X26789926Y-8972607D01*
X26802275Y-8966477D01*
X26861051Y-8939090D01*
X26920493Y-8914017D01*
X26980191Y-8891386D01*
X27039735Y-8871328D01*
X27098715Y-8853970D01*
X27156721Y-8839443D01*
X27213343Y-8827877D01*
X27268170Y-8819399D01*
X27269245Y-8819262D01*
X27307363Y-8815328D01*
X27346416Y-8813015D01*
X27385602Y-8812309D01*
X27424115Y-8813197D01*
G36*
X27170293Y-8467780D02*
G01*
X27175000Y-8469967D01*
X27182275Y-8473447D01*
X27191656Y-8477996D01*
X27202676Y-8483390D01*
X27213072Y-8488514D01*
X27241765Y-8502305D01*
X27268902Y-8514445D01*
X27295017Y-8525072D01*
X27320642Y-8534323D01*
X27346311Y-8542336D01*
X27372560Y-8549250D01*
X27399922Y-8555201D01*
X27428930Y-8560329D01*
X27460119Y-8564770D01*
X27494023Y-8568663D01*
X27531175Y-8572145D01*
X27539852Y-8572871D01*
X27569219Y-8575500D01*
X27595161Y-8578334D01*
X27618163Y-8581478D01*
X27638706Y-8585040D01*
X27657273Y-8589128D01*
X27674348Y-8593847D01*
X27690412Y-8599307D01*
X27705949Y-8605613D01*
X27721442Y-8612872D01*
X27722537Y-8613419D01*
X27742618Y-8624243D01*
X27761377Y-8636058D01*
X27779574Y-8649434D01*
X27797973Y-8664941D01*
X27817335Y-8683148D01*
X27822277Y-8688050D01*
X27847252Y-8714491D01*
X27868603Y-8740347D01*
X27886435Y-8765976D01*
X27900855Y-8791733D01*
X27911968Y-8817974D01*
X27919882Y-8845055D01*
X27924702Y-8873333D01*
X27926536Y-8903164D01*
X27925488Y-8934903D01*
X27921667Y-8968907D01*
X27915939Y-9001760D01*
X27913382Y-9014928D01*
X27911438Y-9024450D01*
X27909702Y-9030456D01*
X27907768Y-9033072D01*
X27905233Y-9032426D01*
X27901689Y-9028646D01*
X27896732Y-9021860D01*
X27889957Y-9012195D01*
X27888654Y-9010357D01*
X27862388Y-8974972D01*
X27836415Y-8943172D01*
X27810431Y-8914682D01*
X27784131Y-8889226D01*
X27757210Y-8866529D01*
X27729363Y-8846313D01*
X27700286Y-8828305D01*
X27669783Y-8812279D01*
X27657232Y-8806366D01*
X27644944Y-8800931D01*
X27632447Y-8795815D01*
X27619267Y-8790856D01*
X27604933Y-8785897D01*
X27588971Y-8780778D01*
X27570910Y-8775338D01*
X27550277Y-8769419D01*
X27526599Y-8762860D01*
X27510545Y-8758501D01*
X27487014Y-8752078D01*
X27466779Y-8746379D01*
X27449330Y-8741230D01*
X27434161Y-8736456D01*
X27420762Y-8731883D01*
X27408627Y-8727337D01*
X27397246Y-8722643D01*
X27386113Y-8717627D01*
X27374718Y-8712116D01*
X27373293Y-8711404D01*
X27347571Y-8697330D01*
X27324229Y-8681875D01*
X27302176Y-8664241D01*
X27280322Y-8643632D01*
X27279615Y-8642916D01*
X27257220Y-8618486D01*
X27236674Y-8592423D01*
X27217535Y-8564094D01*
X27199364Y-8532867D01*
X27189078Y-8513147D01*
X27184900Y-8504623D01*
X27180592Y-8495485D01*
X27176491Y-8486490D01*
X27172934Y-8478396D01*
X27170256Y-8471959D01*
X27168793Y-8467937D01*
X27168622Y-8467110D01*
X27170293Y-8467780D01*
G37*
X27170293Y-8467780D02*
X27175000Y-8469967D01*
X27182275Y-8473447D01*
X27191656Y-8477996D01*
X27202676Y-8483390D01*
X27213072Y-8488514D01*
X27241765Y-8502305D01*
X27268902Y-8514445D01*
X27295017Y-8525072D01*
X27320642Y-8534323D01*
X27346311Y-8542336D01*
X27372560Y-8549250D01*
X27399922Y-8555201D01*
X27428930Y-8560329D01*
X27460119Y-8564770D01*
X27494023Y-8568663D01*
X27531175Y-8572145D01*
X27539852Y-8572871D01*
X27569219Y-8575500D01*
X27595161Y-8578334D01*
X27618163Y-8581478D01*
X27638706Y-8585040D01*
X27657273Y-8589128D01*
X27674348Y-8593847D01*
X27690412Y-8599307D01*
X27705949Y-8605613D01*
X27721442Y-8612872D01*
X27722537Y-8613419D01*
X27742618Y-8624243D01*
X27761377Y-8636058D01*
X27779574Y-8649434D01*
X27797973Y-8664941D01*
X27817335Y-8683148D01*
X27822277Y-8688050D01*
X27847252Y-8714491D01*
X27868603Y-8740347D01*
X27886435Y-8765976D01*
X27900855Y-8791733D01*
X27911968Y-8817974D01*
X27919882Y-8845055D01*
X27924702Y-8873333D01*
X27926536Y-8903164D01*
X27925488Y-8934903D01*
X27921667Y-8968907D01*
X27915939Y-9001760D01*
X27913382Y-9014928D01*
X27911438Y-9024450D01*
X27909702Y-9030456D01*
X27907768Y-9033072D01*
X27905233Y-9032426D01*
X27901689Y-9028646D01*
X27896732Y-9021860D01*
X27889957Y-9012195D01*
X27888654Y-9010357D01*
X27862388Y-8974972D01*
X27836415Y-8943172D01*
X27810431Y-8914682D01*
X27784131Y-8889226D01*
X27757210Y-8866529D01*
X27729363Y-8846313D01*
X27700286Y-8828305D01*
X27669783Y-8812279D01*
X27657232Y-8806366D01*
X27644944Y-8800931D01*
X27632447Y-8795815D01*
X27619267Y-8790856D01*
X27604933Y-8785897D01*
X27588971Y-8780778D01*
X27570910Y-8775338D01*
X27550277Y-8769419D01*
X27526599Y-8762860D01*
X27510545Y-8758501D01*
X27487014Y-8752078D01*
X27466779Y-8746379D01*
X27449330Y-8741230D01*
X27434161Y-8736456D01*
X27420762Y-8731883D01*
X27408627Y-8727337D01*
X27397246Y-8722643D01*
X27386113Y-8717627D01*
X27374718Y-8712116D01*
X27373293Y-8711404D01*
X27347571Y-8697330D01*
X27324229Y-8681875D01*
X27302176Y-8664241D01*
X27280322Y-8643632D01*
X27279615Y-8642916D01*
X27257220Y-8618486D01*
X27236674Y-8592423D01*
X27217535Y-8564094D01*
X27199364Y-8532867D01*
X27189078Y-8513147D01*
X27184900Y-8504623D01*
X27180592Y-8495485D01*
X27176491Y-8486490D01*
X27172934Y-8478396D01*
X27170256Y-8471959D01*
X27168793Y-8467937D01*
X27168622Y-8467110D01*
X27170293Y-8467780D01*
D10*
X25465104Y-10225040D02*
X25465104Y-8825040D01*
X25165104Y-10225040D02*
X25465104Y-10225040D01*
X25165104Y-10425040D02*
X25165104Y-10225040D01*
X24365104Y-10425040D02*
X25165104Y-10425040D01*
X30206118Y-8153473D02*
X30206118Y-14706575D01*
X30006118Y-7953473D02*
G75*
G02*
X30206118Y-8153473I0J-200000D01*
G01*
X23333926Y-7953473D02*
X30006118Y-7953473D01*
X23133926Y-8153473D02*
G75*
G02*
X23333926Y-7953473I200000J0D01*
G01*
X23133926Y-14706575D02*
X23133926Y-8153473D01*
X23333926Y-14906575D02*
G75*
G02*
X23133926Y-14706575I0J200000D01*
G01*
X30006118Y-14906575D02*
X23333926Y-14906574D01*
X30206118Y-14706575D02*
G75*
G02*
X30006118Y-14906575I-200000J0D01*
G01*
X25970000Y-12635000D02*
X25970000Y-14035000D01*
X27370000Y-12635000D02*
X25970000Y-12635000D01*
X27370000Y-14035000D02*
X27370000Y-12635000D01*
X25970000Y-14035000D02*
X27370000Y-14035000D01*
X23548926Y-14606575D02*
G75*
G03*
X23548926Y-14606575I-115000J0D01*
G01*
X27370000Y-12130000D02*
X27370000Y-10730000D01*
X25970000Y-12130000D02*
X27370000Y-12130000D01*
X25970000Y-10730000D02*
X25970000Y-12130000D01*
X27370000Y-10730000D02*
X25970000Y-10730000D01*
X25465000Y-12635000D02*
X24065000Y-12635000D01*
X25465000Y-14035000D02*
X25465000Y-12635000D01*
X24065000Y-14035000D02*
X25465000Y-14035000D01*
X24065000Y-12635000D02*
X24065000Y-14035000D01*
X30021118Y-14606575D02*
G75*
G03*
X30021118Y-14606575I-115000J0D01*
G01*
X30021118Y-8253473D02*
G75*
G03*
X30021118Y-8253473I-115000J0D01*
G01*
X27875000Y-10730000D02*
X27875000Y-12130000D01*
X29275000Y-10730000D02*
X27875000Y-10730000D01*
X29275000Y-12130000D02*
X29275000Y-10730000D01*
X27875000Y-12130000D02*
X29275000Y-12130000D01*
X29275000Y-12635000D02*
X27875000Y-12635000D01*
X29275000Y-14035000D02*
X29275000Y-12635000D01*
X27875000Y-14035000D02*
X29275000Y-14035000D01*
X27875000Y-12635000D02*
X27875000Y-14035000D01*
X23548926Y-8253473D02*
G75*
G03*
X23548926Y-8253473I-115000J0D01*
G01*
X25465000Y-12130000D02*
X25465000Y-10730000D01*
X24065000Y-12130000D02*
X25465000Y-12130000D01*
X24065000Y-10730000D02*
X24065000Y-12130000D01*
X25465000Y-10730000D02*
X24065000Y-10730000D01*
X25465104Y-8825040D02*
X25165104Y-8825040D01*
X24365104Y-10225040D02*
X24365104Y-10425040D01*
X24065104Y-10225040D02*
X24365104Y-10225040D01*
X24065104Y-8825040D02*
X24065104Y-10225040D01*
X24365104Y-8825040D02*
X24065104Y-8825040D01*
X24365104Y-8675040D02*
X24365104Y-8825040D01*
X25165104Y-8675040D02*
X24365104Y-8675040D01*
X25165104Y-8825040D02*
X25165104Y-8675040D01*
D11*
G36*
X27922656Y-9215958D02*
G01*
X27923727Y-9218405D01*
X27925557Y-9223840D01*
X27927894Y-9231474D01*
X27930490Y-9240518D01*
X27930653Y-9241106D01*
X27940265Y-9271998D01*
X27951020Y-9299361D01*
X27963023Y-9323434D01*
X27976381Y-9344456D01*
X27976392Y-9344470D01*
X27980659Y-9350100D01*
X27986836Y-9357847D01*
X27994254Y-9366894D01*
X28002246Y-9376420D01*
X28006829Y-9381783D01*
X28028221Y-9407482D01*
X28047054Y-9432087D01*
X28064007Y-9456624D01*
X28079756Y-9482118D01*
X28094978Y-9509595D01*
X28107474Y-9534183D01*
X28120798Y-9561997D01*
X28132085Y-9587220D01*
X28141528Y-9610468D01*
X28149322Y-9632358D01*
X28155661Y-9653504D01*
X28160740Y-9674525D01*
X28164752Y-9696035D01*
X28167893Y-9718651D01*
X28169096Y-9729568D01*
X28170019Y-9742611D01*
X28170498Y-9758548D01*
X28170555Y-9776393D01*
X28170216Y-9795160D01*
X28169502Y-9813864D01*
X28168437Y-9831518D01*
X28167045Y-9847137D01*
X28166133Y-9854614D01*
X28157598Y-9904093D01*
X28145548Y-9954595D01*
X28130108Y-10005723D01*
X28111402Y-10057077D01*
X28089556Y-10108261D01*
X28080181Y-10128152D01*
X28072857Y-10142991D01*
X28065826Y-10156684D01*
X28059290Y-10168879D01*
X28053453Y-10179226D01*
X28048517Y-10187375D01*
X28044686Y-10192972D01*
X28042163Y-10195669D01*
X28041224Y-10195508D01*
X28040329Y-10192717D01*
X28038503Y-10186910D01*
X28035969Y-10178801D01*
X28032952Y-10169107D01*
X28031156Y-10163322D01*
X28021313Y-10133091D01*
X28010964Y-10104470D01*
X27999861Y-10077003D01*
X27987758Y-10050233D01*
X27974410Y-10023705D01*
X27959568Y-9996961D01*
X27942986Y-9969545D01*
X27924419Y-9941000D01*
X27903619Y-9910871D01*
X27880340Y-9878700D01*
X27869555Y-9864192D01*
X27856217Y-9846336D01*
X27844965Y-9831177D01*
X27835514Y-9818306D01*
X27827580Y-9807313D01*
X27820876Y-9797791D01*
X27815119Y-9789329D01*
X27810021Y-9781521D01*
X27805299Y-9773956D01*
X27800666Y-9766226D01*
X27797955Y-9761587D01*
X27782265Y-9731046D01*
X27770207Y-9699642D01*
X27765193Y-9682412D01*
X27759660Y-9661183D01*
X27759803Y-9597683D01*
X27759995Y-9572278D01*
X27760490Y-9549979D01*
X27761344Y-9529993D01*
X27762616Y-9511528D01*
X27764363Y-9493789D01*
X27766643Y-9475984D01*
X27769515Y-9457319D01*
X27770465Y-9451642D01*
X27778238Y-9412563D01*
X27787712Y-9376725D01*
X27798863Y-9344179D01*
X27811664Y-9314975D01*
X27826090Y-9289165D01*
X27842117Y-9266800D01*
X27859718Y-9247929D01*
X27878869Y-9232604D01*
X27879479Y-9232192D01*
X27887020Y-9227649D01*
X27895440Y-9223412D01*
X27903941Y-9219781D01*
X27911725Y-9217056D01*
X27917993Y-9215538D01*
X27921946Y-9215527D01*
X27922656Y-9215958D01*
G37*
X27922656Y-9215958D02*
X27923727Y-9218405D01*
X27925557Y-9223840D01*
X27927894Y-9231474D01*
X27930490Y-9240518D01*
X27930653Y-9241106D01*
X27940265Y-9271998D01*
X27951020Y-9299361D01*
X27963023Y-9323434D01*
X27976381Y-9344456D01*
X27976392Y-9344470D01*
X27980659Y-9350100D01*
X27986836Y-9357847D01*
X27994254Y-9366894D01*
X28002246Y-9376420D01*
X28006829Y-9381783D01*
X28028221Y-9407482D01*
X28047054Y-9432087D01*
X28064007Y-9456624D01*
X28079756Y-9482118D01*
X28094978Y-9509595D01*
X28107474Y-9534183D01*
X28120798Y-9561997D01*
X28132085Y-9587220D01*
X28141528Y-9610468D01*
X28149322Y-9632358D01*
X28155661Y-9653504D01*
X28160740Y-9674525D01*
X28164752Y-9696035D01*
X28167893Y-9718651D01*
X28169096Y-9729568D01*
X28170019Y-9742611D01*
X28170498Y-9758548D01*
X28170555Y-9776393D01*
X28170216Y-9795160D01*
X28169502Y-9813864D01*
X28168437Y-9831518D01*
X28167045Y-9847137D01*
X28166133Y-9854614D01*
X28157598Y-9904093D01*
X28145548Y-9954595D01*
X28130108Y-10005723D01*
X28111402Y-10057077D01*
X28089556Y-10108261D01*
X28080181Y-10128152D01*
X28072857Y-10142991D01*
X28065826Y-10156684D01*
X28059290Y-10168879D01*
X28053453Y-10179226D01*
X28048517Y-10187375D01*
X28044686Y-10192972D01*
X28042163Y-10195669D01*
X28041224Y-10195508D01*
X28040329Y-10192717D01*
X28038503Y-10186910D01*
X28035969Y-10178801D01*
X28032952Y-10169107D01*
X28031156Y-10163322D01*
X28021313Y-10133091D01*
X28010964Y-10104470D01*
X27999861Y-10077003D01*
X27987758Y-10050233D01*
X27974410Y-10023705D01*
X27959568Y-9996961D01*
X27942986Y-9969545D01*
X27924419Y-9941000D01*
X27903619Y-9910871D01*
X27880340Y-9878700D01*
X27869555Y-9864192D01*
X27856217Y-9846336D01*
X27844965Y-9831177D01*
X27835514Y-9818306D01*
X27827580Y-9807313D01*
X27820876Y-9797791D01*
X27815119Y-9789329D01*
X27810021Y-9781521D01*
X27805299Y-9773956D01*
X27800666Y-9766226D01*
X27797955Y-9761587D01*
X27782265Y-9731046D01*
X27770207Y-9699642D01*
X27765193Y-9682412D01*
X27759660Y-9661183D01*
X27759803Y-9597683D01*
X27759995Y-9572278D01*
X27760490Y-9549979D01*
X27761344Y-9529993D01*
X27762616Y-9511528D01*
X27764363Y-9493789D01*
X27766643Y-9475984D01*
X27769515Y-9457319D01*
X27770465Y-9451642D01*
X27778238Y-9412563D01*
X27787712Y-9376725D01*
X27798863Y-9344179D01*
X27811664Y-9314975D01*
X27826090Y-9289165D01*
X27842117Y-9266800D01*
X27859718Y-9247929D01*
X27878869Y-9232604D01*
X27879479Y-9232192D01*
X27887020Y-9227649D01*
X27895440Y-9223412D01*
X27903941Y-9219781D01*
X27911725Y-9217056D01*
X27917993Y-9215538D01*
X27921946Y-9215527D01*
X27922656Y-9215958D01*
G36*
X27723333Y-9133042D02*
G01*
X27749921Y-9133995D01*
X27776093Y-9135756D01*
X27801003Y-9138313D01*
X27811437Y-9139701D01*
X27819977Y-9141047D01*
X27829660Y-9142764D01*
X27839691Y-9144685D01*
X27849278Y-9146649D01*
X27857630Y-9148490D01*
X27863954Y-9150046D01*
X27867457Y-9151151D01*
X27867839Y-9151371D01*
X27866875Y-9152963D01*
X27863723Y-9156843D01*
X27858865Y-9162443D01*
X27852781Y-9169196D01*
X27852208Y-9169820D01*
X27828361Y-9197998D01*
X27805606Y-9229199D01*
X27784448Y-9262585D01*
X27765394Y-9297316D01*
X27748952Y-9332552D01*
X27739342Y-9356863D01*
X27726565Y-9396921D01*
X27716816Y-9438427D01*
X27710205Y-9480628D01*
X27706845Y-9522769D01*
X27706846Y-9564095D01*
X27707325Y-9573260D01*
X27708100Y-9584930D01*
X27708524Y-9593667D01*
X27708244Y-9600242D01*
X27706906Y-9605422D01*
X27704158Y-9609975D01*
X27699648Y-9614669D01*
X27693023Y-9620273D01*
X27683929Y-9627556D01*
X27681506Y-9629505D01*
X27646170Y-9655697D01*
X27609500Y-9678279D01*
X27571327Y-9697326D01*
X27531481Y-9712912D01*
X27489793Y-9725110D01*
X27446095Y-9733996D01*
X27441316Y-9734750D01*
X27430271Y-9736244D01*
X27418543Y-9737392D01*
X27405370Y-9738241D01*
X27389990Y-9738837D01*
X27371641Y-9739227D01*
X27366937Y-9739292D01*
X27353044Y-9739434D01*
X27340044Y-9739501D01*
X27328577Y-9739495D01*
X27319284Y-9739417D01*
X27312806Y-9739270D01*
X27310275Y-9739126D01*
X27259226Y-9732647D01*
X27209303Y-9723567D01*
X27160049Y-9711743D01*
X27111007Y-9697034D01*
X27061719Y-9679299D01*
X27011727Y-9658397D01*
X26960574Y-9634186D01*
X26945143Y-9626364D01*
X26931541Y-9619260D01*
X26917056Y-9611508D01*
X26902767Y-9603698D01*
X26889748Y-9596417D01*
X26879077Y-9590254D01*
X26878475Y-9589898D01*
X26868878Y-9584086D01*
X26858587Y-9577664D01*
X26848105Y-9570968D01*
X26837939Y-9564335D01*
X26828593Y-9558101D01*
X26820572Y-9552604D01*
X26814381Y-9548178D01*
X26810525Y-9545162D01*
X26809482Y-9543909D01*
X26811568Y-9543939D01*
X26816238Y-9544680D01*
X26819862Y-9545413D01*
X26824599Y-9546021D01*
X26832552Y-9546572D01*
X26843026Y-9547038D01*
X26855331Y-9547392D01*
X26868772Y-9547606D01*
X26876522Y-9547655D01*
X26895546Y-9547567D01*
X26911535Y-9547109D01*
X26925352Y-9546154D01*
X26937862Y-9544578D01*
X26949929Y-9542257D01*
X26962417Y-9539066D01*
X26976190Y-9534879D01*
X26984960Y-9531995D01*
X27003665Y-9525155D01*
X27022294Y-9517135D01*
X27041116Y-9507749D01*
X27060399Y-9496814D01*
X27080412Y-9484146D01*
X27101423Y-9469559D01*
X27123701Y-9452870D01*
X27147515Y-9433895D01*
X27173132Y-9412449D01*
X27200823Y-9388347D01*
X27222352Y-9369104D01*
X27240294Y-9353031D01*
X27258300Y-9337117D01*
X27275888Y-9321778D01*
X27292576Y-9307428D01*
X27307882Y-9294482D01*
X27321323Y-9283354D01*
X27332417Y-9274459D01*
X27332913Y-9274071D01*
X27369621Y-9246649D01*
X27405237Y-9222634D01*
X27440186Y-9201829D01*
X27474891Y-9184039D01*
X27509779Y-9169070D01*
X27545273Y-9156724D01*
X27581799Y-9146808D01*
X27619781Y-9139125D01*
X27629729Y-9137503D01*
X27649526Y-9135126D01*
X27672289Y-9133597D01*
X27697174Y-9132905D01*
X27723333Y-9133042D01*
G37*
X27723333Y-9133042D02*
X27749921Y-9133995D01*
X27776093Y-9135756D01*
X27801003Y-9138313D01*
X27811437Y-9139701D01*
X27819977Y-9141047D01*
X27829660Y-9142764D01*
X27839691Y-9144685D01*
X27849278Y-9146649D01*
X27857630Y-9148490D01*
X27863954Y-9150046D01*
X27867457Y-9151151D01*
X27867839Y-9151371D01*
X27866875Y-9152963D01*
X27863723Y-9156843D01*
X27858865Y-9162443D01*
X27852781Y-9169196D01*
X27852208Y-9169820D01*
X27828361Y-9197998D01*
X27805606Y-9229199D01*
X27784448Y-9262585D01*
X27765394Y-9297316D01*
X27748952Y-9332552D01*
X27739342Y-9356863D01*
X27726565Y-9396921D01*
X27716816Y-9438427D01*
X27710205Y-9480628D01*
X27706845Y-9522769D01*
X27706846Y-9564095D01*
X27707325Y-9573260D01*
X27708100Y-9584930D01*
X27708524Y-9593667D01*
X27708244Y-9600242D01*
X27706906Y-9605422D01*
X27704158Y-9609975D01*
X27699648Y-9614669D01*
X27693023Y-9620273D01*
X27683929Y-9627556D01*
X27681506Y-9629505D01*
X27646170Y-9655697D01*
X27609500Y-9678279D01*
X27571327Y-9697326D01*
X27531481Y-9712912D01*
X27489793Y-9725110D01*
X27446095Y-9733996D01*
X27441316Y-9734750D01*
X27430271Y-9736244D01*
X27418543Y-9737392D01*
X27405370Y-9738241D01*
X27389990Y-9738837D01*
X27371641Y-9739227D01*
X27366937Y-9739292D01*
X27353044Y-9739434D01*
X27340044Y-9739501D01*
X27328577Y-9739495D01*
X27319284Y-9739417D01*
X27312806Y-9739270D01*
X27310275Y-9739126D01*
X27259226Y-9732647D01*
X27209303Y-9723567D01*
X27160049Y-9711743D01*
X27111007Y-9697034D01*
X27061719Y-9679299D01*
X27011727Y-9658397D01*
X26960574Y-9634186D01*
X26945143Y-9626364D01*
X26931541Y-9619260D01*
X26917056Y-9611508D01*
X26902767Y-9603698D01*
X26889748Y-9596417D01*
X26879077Y-9590254D01*
X26878475Y-9589898D01*
X26868878Y-9584086D01*
X26858587Y-9577664D01*
X26848105Y-9570968D01*
X26837939Y-9564335D01*
X26828593Y-9558101D01*
X26820572Y-9552604D01*
X26814381Y-9548178D01*
X26810525Y-9545162D01*
X26809482Y-9543909D01*
X26811568Y-9543939D01*
X26816238Y-9544680D01*
X26819862Y-9545413D01*
X26824599Y-9546021D01*
X26832552Y-9546572D01*
X26843026Y-9547038D01*
X26855331Y-9547392D01*
X26868772Y-9547606D01*
X26876522Y-9547655D01*
X26895546Y-9547567D01*
X26911535Y-9547109D01*
X26925352Y-9546154D01*
X26937862Y-9544578D01*
X26949929Y-9542257D01*
X26962417Y-9539066D01*
X26976190Y-9534879D01*
X26984960Y-9531995D01*
X27003665Y-9525155D01*
X27022294Y-9517135D01*
X27041116Y-9507749D01*
X27060399Y-9496814D01*
X27080412Y-9484146D01*
X27101423Y-9469559D01*
X27123701Y-9452870D01*
X27147515Y-9433895D01*
X27173132Y-9412449D01*
X27200823Y-9388347D01*
X27222352Y-9369104D01*
X27240294Y-9353031D01*
X27258300Y-9337117D01*
X27275888Y-9321778D01*
X27292576Y-9307428D01*
X27307882Y-9294482D01*
X27321323Y-9283354D01*
X27332417Y-9274459D01*
X27332913Y-9274071D01*
X27369621Y-9246649D01*
X27405237Y-9222634D01*
X27440186Y-9201829D01*
X27474891Y-9184039D01*
X27509779Y-9169070D01*
X27545273Y-9156724D01*
X27581799Y-9146808D01*
X27619781Y-9139125D01*
X27629729Y-9137503D01*
X27649526Y-9135126D01*
X27672289Y-9133597D01*
X27697174Y-9132905D01*
X27723333Y-9133042D01*
G36*
X28021720Y-9015106D02*
G01*
X28024521Y-9019603D01*
X28028582Y-9026442D01*
X28033583Y-9035084D01*
X28038895Y-9044442D01*
X28056314Y-9075396D01*
X28090193Y-9081765D01*
X28101210Y-9083909D01*
X28110838Y-9085922D01*
X28118441Y-9087660D01*
X28123383Y-9088978D01*
X28125019Y-9089667D01*
X28124060Y-9091520D01*
X28120815Y-9095714D01*
X28115692Y-9101764D01*
X28109103Y-9109182D01*
X28102540Y-9116324D01*
X28093163Y-9126566D01*
X28086380Y-9134429D01*
X28081950Y-9140223D01*
X28079632Y-9144257D01*
X28079133Y-9146339D01*
X28079373Y-9149909D01*
X28080022Y-9156565D01*
X28080997Y-9165518D01*
X28082212Y-9175978D01*
X28082988Y-9182380D01*
X28084257Y-9192915D01*
X28085294Y-9201977D01*
X28086028Y-9208908D01*
X28086388Y-9213050D01*
X28086388Y-9213934D01*
X28084567Y-9213284D01*
X28079783Y-9211232D01*
X28072610Y-9208034D01*
X28063625Y-9203945D01*
X28054814Y-9199879D01*
X28044481Y-9195165D01*
X28035216Y-9191094D01*
X28027662Y-9187938D01*
X28022463Y-9185965D01*
X28020405Y-9185422D01*
X28017427Y-9186220D01*
X28011756Y-9188392D01*
X28004213Y-9191603D01*
X27995859Y-9195407D01*
X27982809Y-9201496D01*
X27971787Y-9206566D01*
X27963134Y-9210465D01*
X27957194Y-9213038D01*
X27954311Y-9214132D01*
X27954087Y-9214133D01*
X27954321Y-9212169D01*
X27954954Y-9206984D01*
X27955907Y-9199234D01*
X27957099Y-9189578D01*
X27957975Y-9182491D01*
X27959300Y-9171503D01*
X27960431Y-9161568D01*
X27961286Y-9153472D01*
X27961778Y-9148004D01*
X27961864Y-9146339D01*
X27960989Y-9143435D01*
X27958187Y-9139007D01*
X27953216Y-9132746D01*
X27945834Y-9124342D01*
X27938457Y-9116324D01*
X27930930Y-9108114D01*
X27924516Y-9100853D01*
X27919623Y-9095026D01*
X27916664Y-9091121D01*
X27915978Y-9089667D01*
X27918117Y-9088826D01*
X27923465Y-9087441D01*
X27931388Y-9085656D01*
X27941246Y-9083616D01*
X27950804Y-9081765D01*
X27984682Y-9075396D01*
X28002102Y-9044442D01*
X28007700Y-9034586D01*
X28012659Y-9026026D01*
X28016660Y-9019299D01*
X28019385Y-9014942D01*
X28020498Y-9013488D01*
X28021720Y-9015106D01*
G37*
X28021720Y-9015106D02*
X28024521Y-9019603D01*
X28028582Y-9026442D01*
X28033583Y-9035084D01*
X28038895Y-9044442D01*
X28056314Y-9075396D01*
X28090193Y-9081765D01*
X28101210Y-9083909D01*
X28110838Y-9085922D01*
X28118441Y-9087660D01*
X28123383Y-9088978D01*
X28125019Y-9089667D01*
X28124060Y-9091520D01*
X28120815Y-9095714D01*
X28115692Y-9101764D01*
X28109103Y-9109182D01*
X28102540Y-9116324D01*
X28093163Y-9126566D01*
X28086380Y-9134429D01*
X28081950Y-9140223D01*
X28079632Y-9144257D01*
X28079133Y-9146339D01*
X28079373Y-9149909D01*
X28080022Y-9156565D01*
X28080997Y-9165518D01*
X28082212Y-9175978D01*
X28082988Y-9182380D01*
X28084257Y-9192915D01*
X28085294Y-9201977D01*
X28086028Y-9208908D01*
X28086388Y-9213050D01*
X28086388Y-9213934D01*
X28084567Y-9213284D01*
X28079783Y-9211232D01*
X28072610Y-9208034D01*
X28063625Y-9203945D01*
X28054814Y-9199879D01*
X28044481Y-9195165D01*
X28035216Y-9191094D01*
X28027662Y-9187938D01*
X28022463Y-9185965D01*
X28020405Y-9185422D01*
X28017427Y-9186220D01*
X28011756Y-9188392D01*
X28004213Y-9191603D01*
X27995859Y-9195407D01*
X27982809Y-9201496D01*
X27971787Y-9206566D01*
X27963134Y-9210465D01*
X27957194Y-9213038D01*
X27954311Y-9214132D01*
X27954087Y-9214133D01*
X27954321Y-9212169D01*
X27954954Y-9206984D01*
X27955907Y-9199234D01*
X27957099Y-9189578D01*
X27957975Y-9182491D01*
X27959300Y-9171503D01*
X27960431Y-9161568D01*
X27961286Y-9153472D01*
X27961778Y-9148004D01*
X27961864Y-9146339D01*
X27960989Y-9143435D01*
X27958187Y-9139007D01*
X27953216Y-9132746D01*
X27945834Y-9124342D01*
X27938457Y-9116324D01*
X27930930Y-9108114D01*
X27924516Y-9100853D01*
X27919623Y-9095026D01*
X27916664Y-9091121D01*
X27915978Y-9089667D01*
X27918117Y-9088826D01*
X27923465Y-9087441D01*
X27931388Y-9085656D01*
X27941246Y-9083616D01*
X27950804Y-9081765D01*
X27984682Y-9075396D01*
X28002102Y-9044442D01*
X28007700Y-9034586D01*
X28012659Y-9026026D01*
X28016660Y-9019299D01*
X28019385Y-9014942D01*
X28020498Y-9013488D01*
X28021720Y-9015106D01*
G36*
X27424115Y-8813197D02*
G01*
X27461154Y-8815669D01*
X27495915Y-8819711D01*
X27516266Y-8823055D01*
X27562406Y-8833454D01*
X27606415Y-8847130D01*
X27648298Y-8864083D01*
X27688058Y-8884317D01*
X27725698Y-8907833D01*
X27761222Y-8934634D01*
X27794634Y-8964722D01*
X27825938Y-8998100D01*
X27854058Y-9033306D01*
X27860230Y-9041902D01*
X27866677Y-9051301D01*
X27873008Y-9060884D01*
X27878832Y-9070031D01*
X27883759Y-9078123D01*
X27887399Y-9084542D01*
X27889360Y-9088668D01*
X27889591Y-9089624D01*
X27887719Y-9090640D01*
X27882394Y-9091293D01*
X27874053Y-9091597D01*
X27863133Y-9091563D01*
X27850071Y-9091205D01*
X27835304Y-9090535D01*
X27819268Y-9089566D01*
X27802401Y-9088309D01*
X27785139Y-9086777D01*
X27783106Y-9086580D01*
X27754762Y-9084101D01*
X27726727Y-9082220D01*
X27699569Y-9080949D01*
X27673857Y-9080301D01*
X27650159Y-9080289D01*
X27629043Y-9080926D01*
X27611079Y-9082225D01*
X27607516Y-9082611D01*
X27566845Y-9088992D01*
X27527762Y-9098547D01*
X27489884Y-9111423D01*
X27452828Y-9127768D01*
X27416213Y-9147729D01*
X27383143Y-9169029D01*
X27362225Y-9183468D01*
X27324527Y-9183126D01*
X27312121Y-9182984D01*
X27300464Y-9182796D01*
X27290354Y-9182579D01*
X27282584Y-9182350D01*
X27278037Y-9182132D01*
X27272620Y-9181632D01*
X27264453Y-9180760D01*
X27254663Y-9179640D01*
X27244822Y-9178453D01*
X27215945Y-9174156D01*
X27188159Y-9168466D01*
X27160973Y-9161193D01*
X27133896Y-9152146D01*
X27106439Y-9141133D01*
X27078110Y-9127964D01*
X27048421Y-9112447D01*
X27016880Y-9094391D01*
X26994729Y-9080940D01*
X26969556Y-9065651D01*
X26946976Y-9052624D01*
X26926547Y-9041661D01*
X26907828Y-9032561D01*
X26890377Y-9025127D01*
X26873752Y-9019158D01*
X26857512Y-9014455D01*
X26841215Y-9010819D01*
X26838010Y-9010220D01*
X26823177Y-9008279D01*
X26805618Y-9007193D01*
X26786417Y-9006939D01*
X26766654Y-9007493D01*
X26747413Y-9008831D01*
X26729775Y-9010931D01*
X26719237Y-9012784D01*
X26718463Y-9012441D01*
X26720776Y-9010550D01*
X26725776Y-9007332D01*
X26733065Y-9003011D01*
X26742246Y-8997807D01*
X26752921Y-8991943D01*
X26764691Y-8985640D01*
X26777159Y-8979121D01*
X26789926Y-8972607D01*
X26802275Y-8966477D01*
X26861051Y-8939090D01*
X26920493Y-8914017D01*
X26980191Y-8891386D01*
X27039735Y-8871328D01*
X27098715Y-8853970D01*
X27156721Y-8839443D01*
X27213343Y-8827877D01*
X27268170Y-8819399D01*
X27269245Y-8819262D01*
X27307363Y-8815328D01*
X27346416Y-8813015D01*
X27385602Y-8812309D01*
X27424115Y-8813197D01*
G37*
X27424115Y-8813197D02*
X27461154Y-8815669D01*
X27495915Y-8819711D01*
X27516266Y-8823055D01*
X27562406Y-8833454D01*
X27606415Y-8847130D01*
X27648298Y-8864083D01*
X27688058Y-8884317D01*
X27725698Y-8907833D01*
X27761222Y-8934634D01*
X27794634Y-8964722D01*
X27825938Y-8998100D01*
X27854058Y-9033306D01*
X27860230Y-9041902D01*
X27866677Y-9051301D01*
X27873008Y-9060884D01*
X27878832Y-9070031D01*
X27883759Y-9078123D01*
X27887399Y-9084542D01*
X27889360Y-9088668D01*
X27889591Y-9089624D01*
X27887719Y-9090640D01*
X27882394Y-9091293D01*
X27874053Y-9091597D01*
X27863133Y-9091563D01*
X27850071Y-9091205D01*
X27835304Y-9090535D01*
X27819268Y-9089566D01*
X27802401Y-9088309D01*
X27785139Y-9086777D01*
X27783106Y-9086580D01*
X27754762Y-9084101D01*
X27726727Y-9082220D01*
X27699569Y-9080949D01*
X27673857Y-9080301D01*
X27650159Y-9080289D01*
X27629043Y-9080926D01*
X27611079Y-9082225D01*
X27607516Y-9082611D01*
X27566845Y-9088992D01*
X27527762Y-9098547D01*
X27489884Y-9111423D01*
X27452828Y-9127768D01*
X27416213Y-9147729D01*
X27383143Y-9169029D01*
X27362225Y-9183468D01*
X27324527Y-9183126D01*
X27312121Y-9182984D01*
X27300464Y-9182796D01*
X27290354Y-9182579D01*
X27282584Y-9182350D01*
X27278037Y-9182132D01*
X27272620Y-9181632D01*
X27264453Y-9180760D01*
X27254663Y-9179640D01*
X27244822Y-9178453D01*
X27215945Y-9174156D01*
X27188159Y-9168466D01*
X27160973Y-9161193D01*
X27133896Y-9152146D01*
X27106439Y-9141133D01*
X27078110Y-9127964D01*
X27048421Y-9112447D01*
X27016880Y-9094391D01*
X26994729Y-9080940D01*
X26969556Y-9065651D01*
X26946976Y-9052624D01*
X26926547Y-9041661D01*
X26907828Y-9032561D01*
X26890377Y-9025127D01*
X26873752Y-9019158D01*
X26857512Y-9014455D01*
X26841215Y-9010819D01*
X26838010Y-9010220D01*
X26823177Y-9008279D01*
X26805618Y-9007193D01*
X26786417Y-9006939D01*
X26766654Y-9007493D01*
X26747413Y-9008831D01*
X26729775Y-9010931D01*
X26719237Y-9012784D01*
X26718463Y-9012441D01*
X26720776Y-9010550D01*
X26725776Y-9007332D01*
X26733065Y-9003011D01*
X26742246Y-8997807D01*
X26752921Y-8991943D01*
X26764691Y-8985640D01*
X26777159Y-8979121D01*
X26789926Y-8972607D01*
X26802275Y-8966477D01*
X26861051Y-8939090D01*
X26920493Y-8914017D01*
X26980191Y-8891386D01*
X27039735Y-8871328D01*
X27098715Y-8853970D01*
X27156721Y-8839443D01*
X27213343Y-8827877D01*
X27268170Y-8819399D01*
X27269245Y-8819262D01*
X27307363Y-8815328D01*
X27346416Y-8813015D01*
X27385602Y-8812309D01*
X27424115Y-8813197D01*
G36*
X27170293Y-8467780D02*
G01*
X27175000Y-8469967D01*
X27182275Y-8473447D01*
X27191656Y-8477996D01*
X27202676Y-8483390D01*
X27213072Y-8488514D01*
X27241765Y-8502305D01*
X27268902Y-8514445D01*
X27295017Y-8525072D01*
X27320642Y-8534323D01*
X27346311Y-8542336D01*
X27372560Y-8549250D01*
X27399922Y-8555201D01*
X27428930Y-8560329D01*
X27460119Y-8564770D01*
X27494023Y-8568663D01*
X27531175Y-8572145D01*
X27539852Y-8572871D01*
X27569219Y-8575500D01*
X27595161Y-8578334D01*
X27618163Y-8581478D01*
X27638706Y-8585040D01*
X27657273Y-8589128D01*
X27674348Y-8593847D01*
X27690412Y-8599307D01*
X27705949Y-8605613D01*
X27721442Y-8612872D01*
X27722537Y-8613419D01*
X27742618Y-8624243D01*
X27761377Y-8636058D01*
X27779574Y-8649434D01*
X27797973Y-8664941D01*
X27817335Y-8683148D01*
X27822277Y-8688050D01*
X27847252Y-8714491D01*
X27868603Y-8740347D01*
X27886435Y-8765976D01*
X27900855Y-8791733D01*
X27911968Y-8817974D01*
X27919882Y-8845055D01*
X27924702Y-8873333D01*
X27926536Y-8903164D01*
X27925488Y-8934903D01*
X27921667Y-8968907D01*
X27915939Y-9001760D01*
X27913382Y-9014928D01*
X27911438Y-9024450D01*
X27909702Y-9030456D01*
X27907768Y-9033072D01*
X27905233Y-9032426D01*
X27901689Y-9028646D01*
X27896732Y-9021860D01*
X27889957Y-9012195D01*
X27888654Y-9010357D01*
X27862388Y-8974972D01*
X27836415Y-8943172D01*
X27810431Y-8914682D01*
X27784131Y-8889226D01*
X27757210Y-8866529D01*
X27729363Y-8846313D01*
X27700286Y-8828305D01*
X27669783Y-8812279D01*
X27657232Y-8806366D01*
X27644944Y-8800931D01*
X27632447Y-8795815D01*
X27619267Y-8790856D01*
X27604933Y-8785897D01*
X27588971Y-8780778D01*
X27570910Y-8775338D01*
X27550277Y-8769419D01*
X27526599Y-8762860D01*
X27510545Y-8758501D01*
X27487014Y-8752078D01*
X27466779Y-8746379D01*
X27449330Y-8741230D01*
X27434161Y-8736456D01*
X27420762Y-8731883D01*
X27408627Y-8727337D01*
X27397246Y-8722643D01*
X27386113Y-8717627D01*
X27374718Y-8712116D01*
X27373293Y-8711404D01*
X27347571Y-8697330D01*
X27324229Y-8681875D01*
X27302176Y-8664241D01*
X27280322Y-8643632D01*
X27279615Y-8642916D01*
X27257220Y-8618486D01*
X27236674Y-8592423D01*
X27217535Y-8564094D01*
X27199364Y-8532867D01*
X27189078Y-8513147D01*
X27184900Y-8504623D01*
X27180592Y-8495485D01*
X27176491Y-8486490D01*
X27172934Y-8478396D01*
X27170256Y-8471959D01*
X27168793Y-8467937D01*
X27168622Y-8467110D01*
X27170293Y-8467780D01*
G37*
X27170293Y-8467780D02*
X27175000Y-8469967D01*
X27182275Y-8473447D01*
X27191656Y-8477996D01*
X27202676Y-8483390D01*
X27213072Y-8488514D01*
X27241765Y-8502305D01*
X27268902Y-8514445D01*
X27295017Y-8525072D01*
X27320642Y-8534323D01*
X27346311Y-8542336D01*
X27372560Y-8549250D01*
X27399922Y-8555201D01*
X27428930Y-8560329D01*
X27460119Y-8564770D01*
X27494023Y-8568663D01*
X27531175Y-8572145D01*
X27539852Y-8572871D01*
X27569219Y-8575500D01*
X27595161Y-8578334D01*
X27618163Y-8581478D01*
X27638706Y-8585040D01*
X27657273Y-8589128D01*
X27674348Y-8593847D01*
X27690412Y-8599307D01*
X27705949Y-8605613D01*
X27721442Y-8612872D01*
X27722537Y-8613419D01*
X27742618Y-8624243D01*
X27761377Y-8636058D01*
X27779574Y-8649434D01*
X27797973Y-8664941D01*
X27817335Y-8683148D01*
X27822277Y-8688050D01*
X27847252Y-8714491D01*
X27868603Y-8740347D01*
X27886435Y-8765976D01*
X27900855Y-8791733D01*
X27911968Y-8817974D01*
X27919882Y-8845055D01*
X27924702Y-8873333D01*
X27926536Y-8903164D01*
X27925488Y-8934903D01*
X27921667Y-8968907D01*
X27915939Y-9001760D01*
X27913382Y-9014928D01*
X27911438Y-9024450D01*
X27909702Y-9030456D01*
X27907768Y-9033072D01*
X27905233Y-9032426D01*
X27901689Y-9028646D01*
X27896732Y-9021860D01*
X27889957Y-9012195D01*
X27888654Y-9010357D01*
X27862388Y-8974972D01*
X27836415Y-8943172D01*
X27810431Y-8914682D01*
X27784131Y-8889226D01*
X27757210Y-8866529D01*
X27729363Y-8846313D01*
X27700286Y-8828305D01*
X27669783Y-8812279D01*
X27657232Y-8806366D01*
X27644944Y-8800931D01*
X27632447Y-8795815D01*
X27619267Y-8790856D01*
X27604933Y-8785897D01*
X27588971Y-8780778D01*
X27570910Y-8775338D01*
X27550277Y-8769419D01*
X27526599Y-8762860D01*
X27510545Y-8758501D01*
X27487014Y-8752078D01*
X27466779Y-8746379D01*
X27449330Y-8741230D01*
X27434161Y-8736456D01*
X27420762Y-8731883D01*
X27408627Y-8727337D01*
X27397246Y-8722643D01*
X27386113Y-8717627D01*
X27374718Y-8712116D01*
X27373293Y-8711404D01*
X27347571Y-8697330D01*
X27324229Y-8681875D01*
X27302176Y-8664241D01*
X27280322Y-8643632D01*
X27279615Y-8642916D01*
X27257220Y-8618486D01*
X27236674Y-8592423D01*
X27217535Y-8564094D01*
X27199364Y-8532867D01*
X27189078Y-8513147D01*
X27184900Y-8504623D01*
X27180592Y-8495485D01*
X27176491Y-8486490D01*
X27172934Y-8478396D01*
X27170256Y-8471959D01*
X27168793Y-8467937D01*
X27168622Y-8467110D01*
X27170293Y-8467780D01*
M02*
