%TF.GenerationSoftware,KiCad,Pcbnew,(5.1.10)-1*%
%TF.CreationDate,2022-03-08T20:07:58+07:00*%
%TF.ProjectId,Alice platwe,416c6963-6520-4706-9c61-7477652e6b69,rev?*%
%TF.SameCoordinates,Original*%
%TF.FileFunction,Soldermask,Top*%
%TF.FilePolarity,Negative*%
%FSLAX46Y46*%
G04 Gerber Fmt 4.6, Leading zero omitted, Abs format (unit mm)*
G04 Created by KiCad (PCBNEW (5.1.10)-1) date 2022-03-08 20:07:58*
%MOMM*%
%LPD*%
G01*
G04 APERTURE LIST*
%ADD10C,2.000000*%
%ADD11C,0.010000*%
G04 APERTURE END LIST*
D10*
X573656881Y-327854218D02*
X514384144Y-340742665D01*
X579539512Y-327854218D02*
X573656881Y-327854218D01*
X436089306Y-331971530D02*
G75*
G02*
X434903247Y-332741765I-978147J207912D01*
G01*
X420824623Y-329749262D02*
G75*
G02*
X420054387Y-328563202I207912J978148D01*
G01*
X420054549Y-328562442D02*
X420054387Y-328563202D01*
X434903247Y-332741765D02*
X420824623Y-329749262D01*
X436091016Y-331963485D02*
X436089306Y-331971529D01*
X491757127Y-350919477D02*
X514593261Y-345953716D01*
X491757127Y-350919477D02*
X462561269Y-350919477D01*
X462561269Y-350919477D02*
X439724963Y-345953716D01*
X380661515Y-327854218D02*
X439934080Y-340742665D01*
X374778884Y-327854218D02*
X380661515Y-327854218D01*
X386275252Y-291049165D02*
X386275252Y-303049150D01*
X385250268Y-304074167D02*
X386275252Y-303049150D01*
X385250268Y-304074167D02*
X373250250Y-304074167D01*
X372225266Y-303049150D02*
X373250250Y-304074167D01*
X372225266Y-303049150D02*
X372225266Y-291049165D01*
X373250250Y-290024146D02*
X372225266Y-291049165D01*
X373250250Y-290024146D02*
X385250268Y-290024146D01*
X386275252Y-291049165D02*
X385250268Y-290024146D01*
X380925271Y-271999167D02*
X380925271Y-283999150D01*
X379900252Y-285024168D02*
X380925271Y-283999150D01*
X379900252Y-285024168D02*
X367900270Y-285024168D01*
X366875250Y-283999150D02*
X367900270Y-285024168D01*
X366875250Y-283999150D02*
X366875250Y-271999167D01*
X367900270Y-270974147D02*
X366875250Y-271999167D01*
X367900270Y-270974147D02*
X379900252Y-270974147D01*
X380925271Y-271999167D02*
X379900252Y-270974147D01*
X366175269Y-264949150D02*
X366175269Y-252949202D01*
X367200253Y-251924183D02*
X366175269Y-252949202D01*
X367200253Y-251924183D02*
X379200271Y-251924183D01*
X380225255Y-252949202D02*
X379200271Y-251924183D01*
X380225255Y-252949202D02*
X380225255Y-264949150D01*
X379200271Y-265974169D02*
X380225255Y-264949150D01*
X379200271Y-265974169D02*
X367200253Y-265974169D01*
X366175269Y-264949150D02*
X367200253Y-265974169D01*
X342365274Y-264949150D02*
X342365274Y-252949202D01*
X343390260Y-251924183D02*
X342365274Y-252949202D01*
X343390260Y-251924183D02*
X355390276Y-251924183D01*
X356415260Y-252949202D02*
X355390276Y-251924183D01*
X356415260Y-252949202D02*
X356415260Y-264949150D01*
X355390276Y-265974169D02*
X356415260Y-264949150D01*
X355390276Y-265974169D02*
X343390260Y-265974169D01*
X342365274Y-264949150D02*
X343390260Y-265974169D01*
X355638867Y-271999167D02*
X355638867Y-283999150D01*
X354613847Y-285024168D02*
X355638867Y-283999150D01*
X354613847Y-285024168D02*
X336071495Y-285024168D01*
X335046476Y-283999150D02*
X336071495Y-285024168D01*
X335046476Y-283999150D02*
X335046476Y-271999167D01*
X336071495Y-270974147D02*
X335046476Y-271999167D01*
X336071495Y-270974147D02*
X354613847Y-270974147D01*
X355638867Y-271999167D02*
X354613847Y-270974147D01*
X362738262Y-306074198D02*
X357738262Y-306074198D01*
X357738262Y-306074198D02*
X356713262Y-305049198D01*
X356713262Y-305049198D02*
X356713262Y-304074197D01*
X356713262Y-304074197D02*
X339887262Y-304074197D01*
X339887262Y-304074197D02*
X339887262Y-305049198D01*
X338862262Y-306074198D02*
X339887262Y-305049198D01*
X338862262Y-306074198D02*
X333862262Y-306074198D01*
X332837262Y-305049198D02*
X333862262Y-306074198D01*
X332837262Y-305049198D02*
X332837262Y-292049198D01*
X333862262Y-291024198D02*
X332837262Y-292049198D01*
X333862262Y-291024198D02*
X338837562Y-291024198D01*
X339862262Y-290024197D02*
X338837562Y-291024198D01*
X339862262Y-290024197D02*
X356738262Y-290024197D01*
X357762963Y-291024198D02*
X356738262Y-290024197D01*
X357762963Y-291024198D02*
X362738262Y-291024198D01*
X363763262Y-292049198D02*
X362738262Y-291024198D01*
X363763262Y-292049198D02*
X363763262Y-305049198D01*
X362738262Y-306074198D02*
X363763262Y-305049198D01*
X348185272Y-310099165D02*
X348185272Y-322099150D01*
X347160253Y-323124167D02*
X348185272Y-322099150D01*
X347160253Y-323124167D02*
X335160270Y-323124167D01*
X334135251Y-322099150D02*
X335160270Y-323124167D01*
X334135251Y-322099150D02*
X334135251Y-310099165D01*
X335160270Y-309074146D02*
X334135251Y-310099165D01*
X335160270Y-309074146D02*
X347160253Y-309074146D01*
X348185272Y-310099165D02*
X347160253Y-309074146D01*
X320495287Y-288909145D02*
X320495287Y-300909163D01*
X319470266Y-301934147D02*
X320495287Y-300909163D01*
X319470266Y-301934147D02*
X307470283Y-301934147D01*
X306445264Y-300909163D02*
X307470283Y-301934147D01*
X306445264Y-300909163D02*
X306445264Y-288909145D01*
X307470283Y-287884161D02*
X306445264Y-288909145D01*
X307470283Y-287884161D02*
X319470266Y-287884161D01*
X320495287Y-288909145D02*
X319470266Y-287884161D01*
X324565285Y-269859146D02*
X324565285Y-281859163D01*
X323540264Y-282884147D02*
X324565285Y-281859163D01*
X323540264Y-282884147D02*
X311540282Y-282884147D01*
X310515262Y-281859163D02*
X311540282Y-282884147D01*
X310515262Y-281859163D02*
X310515262Y-269859146D01*
X311540282Y-268834162D02*
X310515262Y-269859146D01*
X311540282Y-268834162D02*
X323540264Y-268834162D01*
X324565285Y-269859146D02*
X323540264Y-268834162D01*
X314585260Y-262809164D02*
X314585260Y-250809181D01*
X315610279Y-249784197D02*
X314585260Y-250809181D01*
X315610279Y-249784197D02*
X327610261Y-249784197D01*
X328635283Y-250809181D02*
X327610261Y-249784197D01*
X328635283Y-250809181D02*
X328635283Y-262809164D01*
X327610261Y-263834148D02*
X328635283Y-262809164D01*
X327610261Y-263834148D02*
X315610279Y-263834148D01*
X314585260Y-262809164D02*
X315610279Y-263834148D01*
X403059237Y-314190868D02*
X400564287Y-325928633D01*
X399348561Y-326718108D02*
X400564287Y-325928633D01*
X399348561Y-326718108D02*
X387610798Y-324223193D01*
X386821326Y-323007468D02*
X387610798Y-324223193D01*
X386821326Y-323007468D02*
X389316238Y-311269705D01*
X390531963Y-310480194D02*
X389316238Y-311269705D01*
X390531963Y-310480194D02*
X402269726Y-312975146D01*
X403059237Y-314190868D02*
X402269726Y-312975146D01*
X468909229Y-326650839D02*
X466414279Y-338388638D01*
X465198554Y-339178113D02*
X466414279Y-338388638D01*
X465198554Y-339178113D02*
X451132810Y-336188357D01*
X450343299Y-334972633D02*
X451132810Y-336188357D01*
X450343299Y-334972631D02*
X452838249Y-323234868D01*
X454053974Y-322445357D02*
X452838249Y-323234868D01*
X454053975Y-322445357D02*
X468119719Y-325435149D01*
X468909229Y-326650839D02*
X468119719Y-325435149D01*
X435602330Y-318528109D02*
X437799728Y-318995181D01*
X437799728Y-318995181D02*
G75*
G02*
X437871927Y-319013290I-213110J-1002601D01*
G01*
X437871927Y-319013290D02*
X438076681Y-318049996D01*
X439292392Y-317260504D02*
X438076681Y-318049996D01*
X439292392Y-317260504D02*
X444183130Y-318300062D01*
X444183130Y-318300063D02*
G75*
G02*
X444299553Y-318332080I-213109J-1002601D01*
G01*
X444299553Y-318332080D02*
X446469161Y-318793244D01*
X447258652Y-320008955D02*
X446469161Y-318793244D01*
X447258652Y-320008955D02*
X444555800Y-332724874D01*
X443340090Y-333514365D02*
X444555800Y-332724874D01*
X443340090Y-333514365D02*
X438449352Y-332474807D01*
X438449352Y-332474807D02*
G75*
G02*
X438332929Y-332442790I213109J1002601D01*
G01*
X438332929Y-332442790D02*
X436163321Y-331981625D01*
X436163321Y-331981625D02*
G75*
G02*
X436091016Y-331963485I213110J1002601D01*
G01*
X420054549Y-328562443D02*
G75*
G02*
X419985838Y-328550266I144398J1014778D01*
G01*
X419985838Y-328550266D02*
X415095100Y-327510707D01*
X415095099Y-327510707D02*
G75*
G02*
X414978676Y-327478690I213110J1002601D01*
G01*
X414978676Y-327478690D02*
X412809069Y-327017526D01*
X412019577Y-325801815D02*
X412809069Y-327017526D01*
X412019577Y-325801815D02*
X414722429Y-313085896D01*
X415938140Y-312296404D02*
X414722429Y-313085896D01*
X415938140Y-312296404D02*
X420828878Y-313335963D01*
X420828878Y-313335963D02*
G75*
G02*
X420945301Y-313367980I-213110J-1002601D01*
G01*
X420945301Y-313367980D02*
X423114908Y-313829144D01*
X423904400Y-315044855D02*
X423114908Y-313829144D01*
X423904400Y-315044855D02*
X423702156Y-315996338D01*
X423702156Y-315996338D02*
G75*
G02*
X423770515Y-316008465I-144750J-1014728D01*
G01*
X423770515Y-316008465D02*
X435508287Y-318503405D01*
X435508287Y-318503405D02*
G75*
G02*
X435602330Y-318528109I-213110J-1002601D01*
G01*
X643804012Y-291049197D02*
X643804012Y-303049197D01*
X642779012Y-304074197D02*
X643804012Y-303049197D01*
X642779012Y-304074197D02*
X635573262Y-304074197D01*
X635573262Y-304074197D02*
X635573262Y-305049198D01*
X634548262Y-306074198D02*
X635573262Y-305049198D01*
X634548262Y-306074198D02*
X629548262Y-306074198D01*
X628523262Y-305049198D02*
X629548262Y-306074198D01*
X628523262Y-305049198D02*
X628523262Y-292049198D01*
X629548262Y-291024198D02*
X628523262Y-292049198D01*
X629548262Y-291024198D02*
X629754312Y-291024198D01*
X630779012Y-290024197D02*
X629754312Y-291024198D01*
X630779012Y-290024197D02*
X642779012Y-290024197D01*
X643804012Y-291049197D02*
X642779012Y-290024197D01*
X627135262Y-291049197D02*
X627135262Y-303049197D01*
X626110262Y-304074197D02*
X627135262Y-303049197D01*
X626110262Y-304074197D02*
X611697262Y-304074197D01*
X611697262Y-304074197D02*
X611697262Y-305049198D01*
X610672262Y-306074198D02*
X611697262Y-305049198D01*
X610672262Y-306074198D02*
X605672262Y-306074198D01*
X604647262Y-305049198D02*
X605672262Y-306074198D01*
X604647262Y-305049198D02*
X604647262Y-304074197D01*
X604647262Y-304074197D02*
X604585262Y-304074197D01*
X603560262Y-303049197D02*
X604585262Y-304074197D01*
X603560262Y-303049197D02*
X603560262Y-291049197D01*
X604585262Y-290024197D02*
X603560262Y-291049197D01*
X604585262Y-290024197D02*
X626110262Y-290024197D01*
X627135262Y-291049197D02*
X626110262Y-290024197D01*
X630138262Y-268974197D02*
X635138262Y-268974197D01*
X636163262Y-269999197D02*
X635138262Y-268974197D01*
X636163262Y-269999197D02*
X636163262Y-282999197D01*
X635138262Y-284024197D02*
X636163262Y-282999197D01*
X635138262Y-284024197D02*
X629662963Y-284024197D01*
X628638262Y-285024197D02*
X629662963Y-284024197D01*
X628638262Y-285024197D02*
X612762262Y-285024197D01*
X611737562Y-284024197D02*
X612762262Y-285024197D01*
X611737562Y-284024197D02*
X606262262Y-284024197D01*
X605237262Y-282999197D02*
X606262262Y-284024197D01*
X605237262Y-282999197D02*
X605237262Y-269999197D01*
X606262262Y-268974197D02*
X605237262Y-269999197D01*
X606262262Y-268974197D02*
X611262262Y-268974197D01*
X612287262Y-269999197D02*
X611262262Y-268974197D01*
X612287262Y-269999197D02*
X612287262Y-270974197D01*
X612287262Y-270974197D02*
X629113262Y-270974197D01*
X629113262Y-270974197D02*
X629113262Y-269999197D01*
X630138262Y-268974197D02*
X629113262Y-269999197D01*
X591415278Y-291049165D02*
X591415278Y-303049150D01*
X590390259Y-304074167D02*
X591415278Y-303049150D01*
X590390259Y-304074167D02*
X578390276Y-304074167D01*
X577365257Y-303049150D02*
X578390276Y-304074167D01*
X577365257Y-303049150D02*
X577365257Y-291049165D01*
X578390276Y-290024146D02*
X577365257Y-291049165D01*
X578390276Y-290024146D02*
X590390259Y-290024146D01*
X591415278Y-291049165D02*
X590390259Y-290024146D01*
X572365278Y-291049165D02*
X572365278Y-303049150D01*
X571340259Y-304074167D02*
X572365278Y-303049150D01*
X571340259Y-304074167D02*
X559340276Y-304074167D01*
X558315257Y-303049150D02*
X559340276Y-304074167D01*
X558315257Y-303049150D02*
X558315257Y-291049165D01*
X559340276Y-290024146D02*
X558315257Y-291049165D01*
X559340276Y-290024146D02*
X571340259Y-290024146D01*
X572365278Y-291049165D02*
X571340259Y-290024146D01*
X583750275Y-270974147D02*
X595750258Y-270974147D01*
X596775277Y-271999167D02*
X595750258Y-270974147D01*
X596775277Y-271999167D02*
X596775277Y-283999150D01*
X595750258Y-285024168D02*
X596775277Y-283999150D01*
X595750258Y-285024168D02*
X583750275Y-285024168D01*
X582725256Y-283999150D02*
X583750275Y-285024168D01*
X582725256Y-283999150D02*
X582725256Y-271999167D01*
X583750275Y-270974147D02*
X582725256Y-271999167D01*
X563675257Y-283999150D02*
X563675257Y-271999167D01*
X564700276Y-270974147D02*
X563675257Y-271999167D01*
X564700276Y-270974147D02*
X576700259Y-270974147D01*
X577725278Y-271999167D02*
X576700259Y-270974147D01*
X577725278Y-271999167D02*
X577725278Y-283999150D01*
X576700259Y-285024168D02*
X577725278Y-283999150D01*
X576700259Y-285024168D02*
X564700276Y-285024168D01*
X563675257Y-283999150D02*
X564700276Y-285024168D01*
X606785262Y-252949197D02*
X606785262Y-264949197D01*
X605760262Y-265974197D02*
X606785262Y-264949197D01*
X605760262Y-265974197D02*
X593760262Y-265974197D01*
X592735262Y-264949197D02*
X593760262Y-265974197D01*
X592735262Y-264949197D02*
X592735262Y-252949197D01*
X593760262Y-251924197D02*
X592735262Y-252949197D01*
X593760262Y-251924197D02*
X605760262Y-251924197D01*
X606785262Y-252949197D02*
X605760262Y-251924197D01*
X587735276Y-252949202D02*
X587735276Y-264949150D01*
X586710266Y-265974169D02*
X587735276Y-264949150D01*
X586710266Y-265974169D02*
X574710275Y-265974169D01*
X573685255Y-264949150D02*
X574710275Y-265974169D01*
X573685255Y-264949150D02*
X573685255Y-252949202D01*
X574710275Y-251924183D02*
X573685255Y-252949202D01*
X574710275Y-251924183D02*
X586710266Y-251924183D01*
X587735276Y-252949202D02*
X586710266Y-251924183D01*
X630605262Y-252949197D02*
X630605262Y-264949197D01*
X629580262Y-265974197D02*
X630605262Y-264949197D01*
X629580262Y-265974197D02*
X617580262Y-265974197D01*
X616555262Y-264949197D02*
X617580262Y-265974197D01*
X616555262Y-264949197D02*
X616555262Y-252949197D01*
X617580262Y-251924197D02*
X616555262Y-252949197D01*
X617580262Y-251924197D02*
X629580262Y-251924197D01*
X630605262Y-252949197D02*
X629580262Y-251924197D01*
X631195262Y-233899197D02*
X631195262Y-245899197D01*
X630170262Y-246924197D02*
X631195262Y-245899197D01*
X630170262Y-246924197D02*
X630108262Y-246924197D01*
X630108262Y-246924197D02*
X630108262Y-247899198D01*
X629083262Y-248924198D02*
X630108262Y-247899198D01*
X629083262Y-248924198D02*
X624083262Y-248924198D01*
X623058262Y-247899198D02*
X624083262Y-248924198D01*
X623058262Y-247899198D02*
X623058262Y-246924197D01*
X623058262Y-246924197D02*
X606232262Y-246924197D01*
X606232262Y-246924197D02*
X606232262Y-247899198D01*
X605207262Y-248924198D02*
X606232262Y-247899198D01*
X605207262Y-248924198D02*
X600207262Y-248924198D01*
X599182262Y-247899198D02*
X600207262Y-248924198D01*
X599182262Y-247899198D02*
X599182262Y-246924197D01*
X599182262Y-246924197D02*
X599120262Y-246924197D01*
X598095262Y-245899197D02*
X599120262Y-246924197D01*
X598095262Y-245899197D02*
X598095262Y-233899197D01*
X599120262Y-232874197D02*
X598095262Y-233899197D01*
X599120262Y-232874197D02*
X630170262Y-232874197D01*
X631195262Y-233899197D02*
X630170262Y-232874197D01*
X593095276Y-233899202D02*
X593095276Y-245899185D01*
X592070257Y-246924204D02*
X593095276Y-245899185D01*
X592070257Y-246924204D02*
X580070283Y-246924204D01*
X579045255Y-245899185D02*
X580070283Y-246924204D01*
X579045255Y-245899185D02*
X579045255Y-233899202D01*
X580070283Y-232874183D02*
X579045255Y-233899202D01*
X580070283Y-232874183D02*
X592070257Y-232874183D01*
X593095276Y-233899202D02*
X592070257Y-232874183D01*
X569105259Y-251889210D02*
X569105259Y-263889158D01*
X568080275Y-264914177D02*
X569105259Y-263889158D01*
X568080275Y-264914177D02*
X556080257Y-264914177D01*
X555055273Y-263889158D02*
X556080257Y-264914177D01*
X555055273Y-263889158D02*
X555055273Y-251889210D01*
X556080257Y-250864191D02*
X555055273Y-251889210D01*
X556080257Y-250864191D02*
X568080275Y-250864191D01*
X569105259Y-251889210D02*
X568080275Y-250864191D01*
X560415273Y-243759200D02*
X560415273Y-231759181D01*
X561440257Y-230734197D02*
X560415273Y-231759181D01*
X561440257Y-230734197D02*
X573440275Y-230734197D01*
X574465258Y-231759181D02*
X573440275Y-230734197D01*
X574465258Y-231759181D02*
X574465258Y-243759200D01*
X573440275Y-244784184D02*
X574465258Y-243759200D01*
X573440275Y-244784184D02*
X561440257Y-244784184D01*
X560415273Y-243759200D02*
X561440257Y-244784184D01*
X635360885Y-310147178D02*
X635360885Y-322147161D01*
X634335866Y-323172144D02*
X635360885Y-322147161D01*
X634335866Y-323172144D02*
X622335883Y-323172144D01*
X621310863Y-322147161D02*
X622335883Y-323172144D01*
X621310863Y-322147161D02*
X621310863Y-310147178D01*
X622335883Y-309122159D02*
X621310863Y-310147178D01*
X622335883Y-309122159D02*
X634335866Y-309122159D01*
X635360885Y-310147178D02*
X634335866Y-309122159D01*
X605140647Y-309391893D02*
X606165631Y-310416913D01*
X567490078Y-309391893D02*
X605140647Y-309391893D01*
X566465102Y-310416913D02*
X567490078Y-309391893D01*
X566465102Y-321805037D02*
X566465102Y-310416913D01*
X567490078Y-322830058D02*
X566465102Y-321805037D01*
X605140647Y-322830058D02*
X567490078Y-322830058D01*
X606165631Y-321805037D02*
X605140647Y-322830058D01*
X606165631Y-310416913D02*
X606165631Y-321805037D01*
X555274272Y-311269705D02*
X557769222Y-323007468D01*
X556979711Y-324223193D02*
X557769222Y-323007468D01*
X556979711Y-324223193D02*
X545241948Y-326718108D01*
X544026258Y-325928633D02*
X545241948Y-326718108D01*
X544026258Y-325928633D02*
X541531315Y-314190870D01*
X542320783Y-312975146D02*
X541531315Y-314190870D01*
X542320783Y-312975146D02*
X554058581Y-310480194D01*
X555274272Y-311269705D02*
X554058581Y-310480194D01*
X552169717Y-304233192D02*
X540431955Y-306728106D01*
X552169717Y-304233192D02*
X552959227Y-303017466D01*
X550464284Y-291279703D02*
X552959227Y-303017466D01*
X550464284Y-291279702D02*
X549248593Y-290490227D01*
X537510789Y-292985142D02*
X549248593Y-290490227D01*
X537510788Y-292985142D02*
X536721313Y-294200868D01*
X539216263Y-305938631D02*
X536721313Y-294200868D01*
X539216263Y-305938631D02*
X540431955Y-306728106D01*
X533535991Y-308193907D02*
X521798230Y-310688822D01*
X533535991Y-308193907D02*
X534325502Y-306978181D01*
X531830558Y-295240418D02*
X534325502Y-306978181D01*
X531830558Y-295240417D02*
X530614867Y-294450942D01*
X518877063Y-296945857D02*
X530614867Y-294450942D01*
X518877063Y-296945857D02*
X518087587Y-298161583D01*
X520582538Y-309899347D02*
X518087587Y-298161583D01*
X520582538Y-309899347D02*
X521798230Y-310688822D01*
X514902269Y-312154622D02*
X503164508Y-314649537D01*
X514902269Y-312154622D02*
X515691780Y-310938897D01*
X513196836Y-299201133D02*
X515691780Y-310938897D01*
X513196836Y-299201133D02*
X511981146Y-298411658D01*
X500243341Y-300906573D02*
X511981146Y-298411658D01*
X500243341Y-300906573D02*
X499453866Y-302122299D01*
X501948816Y-313860062D02*
X499453866Y-302122299D01*
X501948816Y-313860062D02*
X503164508Y-314649537D01*
X496268544Y-316115338D02*
X484530782Y-318610252D01*
X496268544Y-316115338D02*
X497058054Y-314899612D01*
X494563111Y-303161849D02*
X497058054Y-314899612D01*
X494563111Y-303161848D02*
X493347420Y-302372373D01*
X481609616Y-304867288D02*
X493347420Y-302372373D01*
X481609615Y-304867288D02*
X480820140Y-306083014D01*
X483315090Y-317820777D02*
X480820140Y-306083014D01*
X483315090Y-317820777D02*
X484530782Y-318610252D01*
X557529716Y-283623182D02*
X545791955Y-286118097D01*
X557529716Y-283623182D02*
X558319227Y-282407457D01*
X555824283Y-270669693D02*
X558319227Y-282407457D01*
X555824283Y-270669693D02*
X554608593Y-269880218D01*
X542870788Y-272375133D02*
X554608593Y-269880218D01*
X542870788Y-272375133D02*
X542081313Y-273590859D01*
X544576263Y-285328622D02*
X542081313Y-273590859D01*
X544576263Y-285328622D02*
X545791955Y-286118097D01*
X538895991Y-287583898D02*
X527158229Y-290078812D01*
X538895991Y-287583898D02*
X539685501Y-286368172D01*
X537190558Y-274630409D02*
X539685501Y-286368172D01*
X537190557Y-274630408D02*
X535974867Y-273840933D01*
X524237063Y-276335848D02*
X535974867Y-273840933D01*
X524237062Y-276335848D02*
X523447587Y-277551574D01*
X525942537Y-289289337D02*
X523447587Y-277551574D01*
X525942537Y-289289337D02*
X527158229Y-290078812D01*
X520262269Y-291544613D02*
X508524508Y-294039528D01*
X520262269Y-291544613D02*
X521051780Y-290328887D01*
X518556836Y-278591124D02*
X521051780Y-290328887D01*
X518556836Y-278591124D02*
X517341145Y-277801649D01*
X505603341Y-280296563D02*
X517341145Y-277801649D01*
X505603341Y-280296564D02*
X504813865Y-281512289D01*
X507308816Y-293250053D02*
X504813865Y-281512289D01*
X507308816Y-293250053D02*
X508524508Y-294039528D01*
X501628543Y-295505328D02*
X489890782Y-298000243D01*
X501628543Y-295505328D02*
X502418054Y-294289602D01*
X499923110Y-282551839D02*
X502418054Y-294289602D01*
X499923110Y-282551839D02*
X498707420Y-281762364D01*
X486969615Y-284257279D02*
X498707420Y-281762364D01*
X486969615Y-284257279D02*
X486180140Y-285473005D01*
X488675090Y-297210768D02*
X486180140Y-285473005D01*
X488675090Y-297210768D02*
X489890782Y-298000243D01*
X548909715Y-265973199D02*
X537171954Y-268468114D01*
X548909715Y-265973199D02*
X549699226Y-264757473D01*
X547204282Y-253019710D02*
X549699226Y-264757473D01*
X547204282Y-253019710D02*
X545988591Y-252230235D01*
X534250787Y-254725150D02*
X545988591Y-252230235D01*
X534250787Y-254725150D02*
X533461311Y-255940875D01*
X535956262Y-267678639D02*
X533461311Y-255940875D01*
X535956262Y-267678639D02*
X537171954Y-268468114D01*
X530275989Y-269933914D02*
X518538228Y-272428829D01*
X530275989Y-269933914D02*
X531065500Y-268718189D01*
X528570556Y-256980425D02*
X531065500Y-268718189D01*
X528570556Y-256980425D02*
X527354866Y-256190950D01*
X515617061Y-258685865D02*
X527354866Y-256190950D01*
X515617061Y-258685865D02*
X514827586Y-259901591D01*
X517322536Y-271639354D02*
X514827586Y-259901591D01*
X517322536Y-271639354D02*
X518538228Y-272428829D01*
X511642268Y-273894630D02*
X499904506Y-276389545D01*
X511642268Y-273894630D02*
X512431778Y-272678904D01*
X509936835Y-260941141D02*
X512431778Y-272678904D01*
X509936834Y-260941140D02*
X508721144Y-260151665D01*
X496983340Y-262646580D02*
X508721144Y-260151665D01*
X496983339Y-262646580D02*
X496193864Y-263862306D01*
X498688814Y-275600070D02*
X496193864Y-263862306D01*
X498688814Y-275600070D02*
X499904506Y-276389545D01*
X493008542Y-277855345D02*
X481270781Y-280350260D01*
X493008542Y-277855345D02*
X493798053Y-276639619D01*
X491303109Y-264901856D02*
X493798053Y-276639619D01*
X491303109Y-264901856D02*
X490087418Y-264112381D01*
X478349614Y-266607296D02*
X490087418Y-264112381D01*
X478349614Y-266607296D02*
X477560138Y-267823021D01*
X480055089Y-279560785D02*
X477560138Y-267823021D01*
X480055089Y-279560785D02*
X481270781Y-280350260D01*
X535636025Y-249323940D02*
X523898264Y-251818855D01*
X535636025Y-249323940D02*
X536425536Y-248108215D01*
X533930592Y-236370451D02*
X536425536Y-248108215D01*
X533930592Y-236370451D02*
X532714901Y-235580976D01*
X520977097Y-238075891D02*
X532714901Y-235580976D01*
X520977097Y-238075891D02*
X520187621Y-239291617D01*
X522682572Y-251029380D02*
X520187621Y-239291617D01*
X522682572Y-251029380D02*
X523898264Y-251818855D01*
X554269751Y-245363225D02*
X542531989Y-247858140D01*
X554269751Y-245363225D02*
X555059261Y-244147499D01*
X552564318Y-232409736D02*
X555059261Y-244147499D01*
X552564318Y-232409736D02*
X551348627Y-231620261D01*
X539610823Y-234115176D02*
X551348627Y-231620261D01*
X539610822Y-234115176D02*
X538821347Y-235330901D01*
X541316297Y-247068665D02*
X538821347Y-235330901D01*
X541316297Y-247068665D02*
X542531989Y-247858140D01*
X517002303Y-253284656D02*
X505264542Y-255779570D01*
X517002303Y-253284656D02*
X517791814Y-252068930D01*
X515296870Y-240331167D02*
X517791814Y-252068930D01*
X515296870Y-240331166D02*
X514081180Y-239541691D01*
X502343375Y-242036606D02*
X514081180Y-239541691D01*
X502343375Y-242036606D02*
X501553900Y-243252332D01*
X504048850Y-254990096D02*
X501553900Y-243252332D01*
X504048850Y-254990096D02*
X505264542Y-255779570D01*
X485415124Y-258950811D02*
X482920174Y-247213047D01*
X483709649Y-245997322D02*
X482920174Y-247213047D01*
X483709650Y-245997321D02*
X495447454Y-243502407D01*
X496663145Y-244291882D02*
X495447454Y-243502407D01*
X496663145Y-244291882D02*
X499158089Y-256029645D01*
X498368578Y-257245371D02*
X499158089Y-256029645D01*
X498368578Y-257245371D02*
X486630816Y-259740286D01*
X485415124Y-258950811D02*
X486630816Y-259740286D01*
X404158590Y-306728146D02*
X392420792Y-304233196D01*
X404158590Y-306728146D02*
X405374280Y-305938636D01*
X407869231Y-294200854D02*
X405374280Y-305938636D01*
X407869231Y-294200854D02*
X407079720Y-292985125D01*
X395341957Y-290490231D02*
X407079720Y-292985125D01*
X395341957Y-290490231D02*
X394126266Y-291279707D01*
X391631316Y-303017470D02*
X394126266Y-291279707D01*
X391631316Y-303017470D02*
X392420792Y-304233196D01*
X422792294Y-310688865D02*
X411054496Y-308193915D01*
X422792294Y-310688865D02*
X424007984Y-309899355D01*
X426502935Y-298161573D02*
X424007984Y-309899355D01*
X426502935Y-298161573D02*
X425713424Y-296945844D01*
X413975661Y-294450950D02*
X425713424Y-296945844D01*
X413975661Y-294450950D02*
X412759971Y-295240426D01*
X410265020Y-306978189D02*
X412759971Y-295240426D01*
X410265020Y-306978189D02*
X411054496Y-308193915D01*
X460059712Y-318610301D02*
X448321914Y-316115350D01*
X460059712Y-318610301D02*
X461275403Y-317820790D01*
X463770353Y-306083009D02*
X461275403Y-317820790D01*
X463770353Y-306083009D02*
X462980842Y-304867280D01*
X451243079Y-302372386D02*
X462980842Y-304867280D01*
X451243079Y-302372386D02*
X450027389Y-303161861D01*
X447532438Y-314899625D02*
X450027389Y-303161861D01*
X447532438Y-314899625D02*
X448321914Y-316115350D01*
X441426008Y-314649582D02*
X429688210Y-312154631D01*
X441426008Y-314649582D02*
X442641699Y-313860071D01*
X445136649Y-302122290D02*
X442641699Y-313860071D01*
X445136649Y-302122290D02*
X444347138Y-300906561D01*
X432609375Y-298411667D02*
X444347138Y-300906561D01*
X432609375Y-298411667D02*
X431393685Y-299201142D01*
X428898734Y-310938906D02*
X431393685Y-299201142D01*
X428898734Y-310938906D02*
X429688210Y-312154631D01*
X398808582Y-286118146D02*
X387070784Y-283623196D01*
X398808582Y-286118146D02*
X400024272Y-285328635D01*
X402519223Y-273590854D02*
X400024272Y-285328635D01*
X402519223Y-273590854D02*
X401729712Y-272375125D01*
X389991949Y-269880231D02*
X401729712Y-272375125D01*
X389991949Y-269880231D02*
X388776258Y-270669706D01*
X386281308Y-282407470D02*
X388776258Y-270669706D01*
X386281308Y-282407470D02*
X387070784Y-283623196D01*
X417442286Y-290078865D02*
X405704488Y-287583915D01*
X417442286Y-290078865D02*
X418657976Y-289289354D01*
X421152927Y-277551573D02*
X418657976Y-289289354D01*
X421152927Y-277551573D02*
X420363416Y-276335844D01*
X408625653Y-273840950D02*
X420363416Y-276335844D01*
X408625653Y-273840950D02*
X407409962Y-274630425D01*
X404915012Y-286368189D02*
X407409962Y-274630425D01*
X404915012Y-286368189D02*
X405704488Y-287583915D01*
X454709704Y-298000300D02*
X442971906Y-295505350D01*
X454709704Y-298000300D02*
X455925395Y-297210790D01*
X458420345Y-285473008D02*
X455925395Y-297210790D01*
X458420345Y-285473008D02*
X457630834Y-284257279D01*
X445893071Y-281762385D02*
X457630834Y-284257279D01*
X445893071Y-281762385D02*
X444677381Y-282551861D01*
X442182430Y-294289624D02*
X444677381Y-282551861D01*
X442182430Y-294289624D02*
X442971906Y-295505350D01*
X436076000Y-294039581D02*
X424338202Y-291544631D01*
X436076000Y-294039581D02*
X437291691Y-293250071D01*
X439786641Y-281512289D02*
X437291691Y-293250071D01*
X439786641Y-281512289D02*
X438997130Y-280296560D01*
X427259367Y-277801666D02*
X438997130Y-280296560D01*
X427259367Y-277801666D02*
X426043677Y-278591142D01*
X423548726Y-290328905D02*
X426043677Y-278591142D01*
X423548726Y-290328905D02*
X424338202Y-291544631D01*
X398108583Y-266488153D02*
X386370784Y-263993203D01*
X398108583Y-266488153D02*
X399324273Y-265698643D01*
X401819223Y-253960861D02*
X399324273Y-265698643D01*
X401819223Y-253960861D02*
X401029712Y-252745132D01*
X389291949Y-250250238D02*
X401029712Y-252745132D01*
X389291949Y-250250238D02*
X388076259Y-251039714D01*
X385581309Y-262777477D02*
X388076259Y-251039714D01*
X385581309Y-262777477D02*
X386370784Y-263993203D01*
X416742287Y-270448872D02*
X405004488Y-267953922D01*
X416742287Y-270448872D02*
X417957977Y-269659362D01*
X420452927Y-257921580D02*
X417957977Y-269659362D01*
X420452927Y-257921580D02*
X419663416Y-256705851D01*
X407925653Y-254210957D02*
X419663416Y-256705851D01*
X407925653Y-254210957D02*
X406709963Y-255000433D01*
X404215013Y-266738196D02*
X406709963Y-255000433D01*
X404215013Y-266738197D02*
X405004488Y-267953922D01*
X454009705Y-278370308D02*
X442271907Y-275875357D01*
X454009705Y-278370308D02*
X455225395Y-277580797D01*
X457720346Y-265843016D02*
X455225395Y-277580797D01*
X457720346Y-265843016D02*
X456930835Y-264627287D01*
X445193072Y-262132393D02*
X456930835Y-264627287D01*
X445193072Y-262132393D02*
X443977381Y-262921868D01*
X441482431Y-274659632D02*
X443977381Y-262921868D01*
X441482431Y-274659632D02*
X442271907Y-275875357D01*
X435376001Y-274409589D02*
X423638202Y-271914638D01*
X435376001Y-274409589D02*
X436591691Y-273620078D01*
X439086641Y-261882297D02*
X436591691Y-273620078D01*
X439086641Y-261882297D02*
X438297131Y-260666568D01*
X426559367Y-258171674D02*
X438297131Y-260666568D01*
X426559367Y-258171674D02*
X425343677Y-258961149D01*
X422848727Y-270698913D02*
X425343677Y-258961149D01*
X422848727Y-270698913D02*
X423638202Y-271914638D01*
X448656003Y-257759602D02*
X436918204Y-255264652D01*
X448656003Y-257759602D02*
X449871693Y-256970091D01*
X452366643Y-245232310D02*
X449871693Y-256970091D01*
X452366643Y-245232310D02*
X451577132Y-244016581D01*
X439839369Y-241521687D02*
X451577132Y-244016581D01*
X439839369Y-241521687D02*
X438623679Y-242311163D01*
X436128729Y-254048926D02*
X438623679Y-242311163D01*
X436128729Y-254048926D02*
X436918204Y-255264652D01*
X467289707Y-261720321D02*
X455551908Y-259225371D01*
X467289707Y-261720321D02*
X468505397Y-260930810D01*
X471000347Y-249193029D02*
X468505397Y-260930810D01*
X471000347Y-249193029D02*
X470210836Y-247977300D01*
X458473073Y-245482406D02*
X470210836Y-247977300D01*
X458473073Y-245482406D02*
X457257383Y-246271882D01*
X454762433Y-258009645D02*
X457257383Y-246271882D01*
X454762433Y-258009645D02*
X455551908Y-259225371D01*
X433732929Y-241271594D02*
X431237979Y-253009375D01*
X433732929Y-241271594D02*
X432943418Y-240055865D01*
X421205655Y-237560971D02*
X432943418Y-240055865D01*
X421205655Y-237560971D02*
X419989965Y-238350446D01*
X417495015Y-250088210D02*
X419989965Y-238350446D01*
X417495014Y-250088210D02*
X418284490Y-251303935D01*
X430022288Y-253798886D02*
X418284490Y-251303935D01*
X430022288Y-253798886D02*
X431237979Y-253009375D01*
X415099225Y-237310875D02*
X412604275Y-249048656D01*
X411388584Y-249838167D02*
X412604275Y-249048656D01*
X411388584Y-249838167D02*
X399650786Y-247343216D01*
X398861310Y-246127491D02*
X399650786Y-247343216D01*
X398861310Y-246127491D02*
X401356261Y-234389727D01*
X402571951Y-233600252D02*
X401356261Y-234389727D01*
X402571951Y-233600252D02*
X414309714Y-236095146D01*
X415099225Y-237310875D02*
X414309714Y-236095146D01*
X379455270Y-243759200D02*
X379455270Y-231759181D01*
X380480258Y-230734197D02*
X379455270Y-231759181D01*
X380480258Y-230734197D02*
X392480272Y-230734197D01*
X393505256Y-231759181D02*
X392480272Y-230734197D01*
X393505256Y-231759181D02*
X393505256Y-243759200D01*
X392480272Y-244784184D02*
X393505256Y-243759200D01*
X392480272Y-244784184D02*
X380480258Y-244784184D01*
X379455270Y-243759200D02*
X380480258Y-244784184D01*
X374865255Y-233899202D02*
X374865255Y-245899185D01*
X373840274Y-246924204D02*
X374865255Y-245899185D01*
X373840274Y-246924204D02*
X361840253Y-246924204D01*
X360815269Y-245899185D02*
X361840253Y-246924204D01*
X360815269Y-245899185D02*
X360815269Y-233899202D01*
X361840253Y-232874183D02*
X360815269Y-233899202D01*
X361840253Y-232874183D02*
X373840274Y-232874183D01*
X374865255Y-233899202D02*
X373840274Y-232874183D01*
X504831956Y-333778154D02*
X503621736Y-333013054D01*
X516569728Y-331283214D02*
X504831956Y-333778154D01*
X516569728Y-331283214D02*
X517364125Y-330092019D01*
X524615425Y-328550707D02*
X517364125Y-330092019D01*
X524615425Y-328550707D02*
X525404917Y-327334997D01*
X522702065Y-314619078D02*
X525404917Y-327334997D01*
X522702065Y-314619078D02*
X521486354Y-313829586D01*
X516595616Y-314869144D02*
X521486354Y-313829586D01*
X516595616Y-314869144D02*
X515806125Y-316084855D01*
X516008839Y-317038549D02*
X515806125Y-316084855D01*
X499550527Y-320536872D02*
X516008839Y-317038549D01*
X499347813Y-319583177D02*
X499550527Y-320536872D01*
X499347813Y-319583177D02*
X498132102Y-318793686D01*
X493241364Y-319833244D02*
X498132102Y-318793686D01*
X493241364Y-319833244D02*
X492451873Y-321048955D01*
X495154724Y-333764874D02*
X492451873Y-321048955D01*
X495154724Y-333764874D02*
X496370435Y-334554365D01*
X503621736Y-333013054D02*
X496370435Y-334554365D01*
X355815255Y-233899202D02*
X355815255Y-245899185D01*
X354790274Y-246924204D02*
X355815255Y-245899185D01*
X354790274Y-246924204D02*
X342790254Y-246924204D01*
X341765270Y-245899185D02*
X342790254Y-246924204D01*
X341765270Y-245899185D02*
X341765270Y-233899202D01*
X342790254Y-232874183D02*
X341765270Y-233899202D01*
X342790254Y-232874183D02*
X354790274Y-232874183D01*
X355815255Y-233899202D02*
X354790274Y-232874183D01*
X318745252Y-243759200D02*
X318745252Y-231759181D01*
X319770269Y-230734197D02*
X318745252Y-231759181D01*
X319770269Y-230734197D02*
X331770252Y-230734197D01*
X332795271Y-231759181D02*
X331770252Y-230734197D01*
X332795271Y-231759181D02*
X332795271Y-243759200D01*
X331770252Y-244784184D02*
X332795271Y-243759200D01*
X331770252Y-244784184D02*
X319770269Y-244784184D01*
X318745252Y-243759200D02*
X319770269Y-244784184D01*
X332324081Y-226407742D02*
X400034242Y-226407742D01*
X332324081Y-226407742D02*
X331353943Y-227377881D01*
X331353943Y-227377881D02*
X332324081Y-228348019D01*
X400034242Y-228348019D02*
X332324081Y-228348019D01*
X400034242Y-228348019D02*
X401004380Y-227377879D01*
X401004380Y-227377879D02*
X400034242Y-226407742D01*
X367338252Y-330246621D02*
X322048534Y-330246621D01*
X367338252Y-330246621D02*
X368308390Y-329276482D01*
X368308390Y-329276482D02*
X367338252Y-328306344D01*
X322048534Y-328306344D02*
X367338252Y-328306344D01*
X322048534Y-328306344D02*
X321078396Y-329276484D01*
X321078396Y-329276484D02*
X322048534Y-330246621D01*
X554326931Y-226407742D02*
X622037092Y-226407742D01*
X554326931Y-226407742D02*
X553356793Y-227377881D01*
X553356793Y-227377881D02*
X554326931Y-228348019D01*
X622037092Y-228348019D02*
X554326931Y-228348019D01*
X622037092Y-228348019D02*
X623007230Y-227377879D01*
X623007230Y-227377879D02*
X622037092Y-226407742D01*
X497768540Y-226407742D02*
X511529640Y-226407742D01*
X497768540Y-226407742D02*
X496798402Y-227377881D01*
X496798402Y-227377881D02*
X497768540Y-228348019D01*
X511529640Y-228348019D02*
X497768540Y-228348019D01*
X511529640Y-228348019D02*
X512499778Y-227377879D01*
X512499778Y-227377879D02*
X511529640Y-226407742D01*
X442788864Y-226407742D02*
X456549964Y-226407742D01*
X442788864Y-226407742D02*
X441818726Y-227377881D01*
X441818726Y-227377881D02*
X442788864Y-228348019D01*
X456549964Y-228348019D02*
X442788864Y-228348019D01*
X456549964Y-228348019D02*
X457520102Y-227377879D01*
X457520102Y-227377879D02*
X456549964Y-226407742D01*
X632269798Y-330246621D02*
X586980080Y-330246621D01*
X632269798Y-330246621D02*
X633239936Y-329276482D01*
X633239936Y-329276482D02*
X632269798Y-328306344D01*
X586980080Y-328306344D02*
X632269798Y-328306344D01*
X586980080Y-328306344D02*
X586009942Y-329276484D01*
X586009942Y-329276484D02*
X586980080Y-330246621D01*
X310240329Y-325764304D02*
X308421258Y-324740241D01*
X308421258Y-324740241D02*
X308113326Y-323637337D01*
X312367332Y-323637337D02*
X311343258Y-325456372D01*
X311343258Y-325456372D02*
X310240329Y-325764304D01*
X310240329Y-321510334D02*
X312059399Y-322534406D01*
X312059399Y-322534406D02*
X312367332Y-323637337D01*
X308113326Y-323637337D02*
X309137398Y-321818266D01*
X309137398Y-321818266D02*
X310240329Y-321510334D01*
X310240329Y-321264342D02*
X308421258Y-320240268D01*
X308421258Y-320240268D02*
X308113326Y-319137339D01*
X312367332Y-319137339D02*
X311343258Y-320956409D01*
X311343258Y-320956409D02*
X310240329Y-321264342D01*
X310240329Y-317010335D02*
X312059399Y-318034408D01*
X312059399Y-318034408D02*
X312367332Y-319137339D01*
X308113326Y-319137339D02*
X309137398Y-317318267D01*
X309137398Y-317318267D02*
X310240329Y-317010335D01*
X310240329Y-316764344D02*
X308421258Y-315740270D01*
X308421258Y-315740270D02*
X308113326Y-314637340D01*
X312367332Y-314637340D02*
X311343258Y-316456411D01*
X311343258Y-316456411D02*
X310240329Y-316764344D01*
X310240329Y-312510337D02*
X312059399Y-313534410D01*
X312059399Y-313534410D02*
X312367332Y-314637340D01*
X308113326Y-314637340D02*
X309137398Y-312818269D01*
X309137398Y-312818269D02*
X310240329Y-312510337D01*
X404460999Y-281957610D02*
X403575413Y-280593904D01*
X403097290Y-282843195D02*
X404460999Y-281957610D01*
X402211708Y-281479489D02*
X403097290Y-282843195D01*
X403575413Y-280593904D02*
X402211708Y-281479489D01*
X541480820Y-282843193D02*
X542366398Y-281479493D01*
X540117122Y-281957611D02*
X541480820Y-282843193D01*
X541002701Y-280593913D02*
X540117122Y-281957611D01*
X542366398Y-281479493D02*
X541002701Y-280593913D01*
X615187015Y-319957244D02*
X614037015Y-318807241D01*
X614037015Y-321107241D02*
X615187015Y-319957244D01*
X612887015Y-319957238D02*
X614037015Y-321107241D01*
X614037015Y-318807241D02*
X612887015Y-319957238D01*
X535071863Y-314790422D02*
X533921863Y-313640419D01*
X533921863Y-315940419D02*
X535071863Y-314790422D01*
X532771863Y-314790415D02*
X533921863Y-315940419D01*
X533921863Y-313640419D02*
X532771863Y-314790415D01*
X411651018Y-314829232D02*
X410501018Y-313679229D01*
X410501018Y-315979229D02*
X411651018Y-314829232D01*
X409351018Y-314829226D02*
X410501018Y-315979229D01*
X410501018Y-313679229D02*
X409351018Y-314829226D01*
X351824096Y-316099105D02*
X350674096Y-314949102D01*
X350674096Y-317249102D02*
X351824096Y-316099105D01*
X349524096Y-316099099D02*
X350674096Y-317249102D01*
X350674096Y-314949102D02*
X349524096Y-316099099D01*
X596733793Y-239899269D02*
X595583793Y-238749270D01*
X595583793Y-241049270D02*
X596733793Y-239899269D01*
X594433793Y-239899270D02*
X595583793Y-241049270D01*
X595583793Y-238749270D02*
X594433793Y-239899270D01*
X520799023Y-249029208D02*
X519649023Y-247879208D01*
X519649023Y-250179208D02*
X520799023Y-249029208D01*
X518499023Y-249029208D02*
X519649023Y-250179208D01*
X519649023Y-247879208D02*
X518499023Y-249029208D01*
X435799101Y-249029208D02*
X434649101Y-247879208D01*
X434649101Y-250179208D02*
X435799101Y-249029208D01*
X433499101Y-249029208D02*
X434649101Y-250179208D01*
X434649101Y-247879208D02*
X433499101Y-249029208D01*
X640250319Y-277999203D02*
X639100280Y-276849244D01*
X639100280Y-279149244D02*
X640250319Y-277999203D01*
X637950319Y-277999203D02*
X639100280Y-279149244D01*
X639100280Y-276849244D02*
X637950319Y-277999203D01*
X320725340Y-266334200D02*
X319575300Y-265184241D01*
X319575300Y-267484241D02*
X320725340Y-266334200D01*
X318425340Y-266334200D02*
X319575300Y-267484241D01*
X319575300Y-265184241D02*
X318425340Y-266334200D01*
X358304096Y-242559243D02*
G75*
G02*
X358309699Y-242559256I1J-1174709D01*
G01*
X357154096Y-243709243D02*
X358304096Y-244859243D01*
X358304096Y-242559243D02*
X357154096Y-243709243D01*
X358309699Y-244859230D02*
G75*
G02*
X358304096Y-244859243I-5603J1174920D01*
G01*
X358315303Y-244859243D02*
G75*
G02*
X358309699Y-244859230I0J1174441D01*
G01*
X359465345Y-243709202D02*
X358315304Y-242559243D01*
X358315304Y-244859243D02*
X359465345Y-243709202D01*
X358309700Y-242559256D02*
G75*
G02*
X358315304Y-242559243I5603J-1174652D01*
G01*
X439724963Y-345953716D02*
X439036633Y-344883670D01*
X439934080Y-340742665D02*
X439036633Y-344883670D01*
X374778884Y-331757511D02*
X374778884Y-327854218D01*
X374778884Y-331757511D02*
X373878680Y-332657715D01*
X315508083Y-332657715D02*
X373878680Y-332657715D01*
X315508083Y-332657715D02*
X314608052Y-331757511D01*
X314608052Y-327854218D02*
X314608052Y-331757511D01*
X308785840Y-327854218D02*
X314608052Y-327854218D01*
X308785840Y-327854218D02*
X307073512Y-326777235D01*
X307073512Y-326777235D02*
X306885870Y-325954248D01*
X306885870Y-304949501D02*
X306885870Y-325954248D01*
X304940253Y-304949501D02*
X306885870Y-304949501D01*
X304940253Y-304949501D02*
X304040394Y-304049297D01*
X304040394Y-285499181D02*
X304040394Y-304049297D01*
X304040394Y-285499181D02*
X304940253Y-284598977D01*
X306885870Y-284598977D02*
X304940253Y-284598977D01*
X306885870Y-230700458D02*
X306885870Y-284598977D01*
X306885870Y-230700458D02*
X307962852Y-228988130D01*
X307962852Y-228988130D02*
X308785840Y-228800488D01*
X327418812Y-228800488D02*
X308785840Y-228800488D01*
X327418812Y-224896850D02*
X327418812Y-228800488D01*
X327418812Y-224896850D02*
X328318843Y-223996647D01*
X404039458Y-223996647D02*
X328318843Y-223996647D01*
X404039458Y-223996647D02*
X404939489Y-224896850D01*
X404939489Y-228800488D02*
X404939489Y-224896850D01*
X438870234Y-228800488D02*
X404939489Y-228800488D01*
X438870234Y-224077607D02*
X438870234Y-228800488D01*
X438870234Y-224077607D02*
X439770266Y-223177403D01*
X459568540Y-223177403D02*
X439770266Y-223177403D01*
X459568540Y-223177403D02*
X460468744Y-224077607D01*
X460468744Y-228800488D02*
X460468744Y-224077607D01*
X493849824Y-228800488D02*
X460468744Y-228800488D01*
X493849824Y-224077607D02*
X493849824Y-228800488D01*
X493849824Y-224077607D02*
X494749683Y-223177403D01*
X514548475Y-223177403D02*
X494749683Y-223177403D01*
X514548475Y-223177403D02*
X515448678Y-224077607D01*
X515448678Y-228800488D02*
X515448678Y-224077607D01*
X549378735Y-228800488D02*
X515448678Y-228800488D01*
X549378735Y-224896850D02*
X549378735Y-228800488D01*
X549378735Y-224896850D02*
X550278766Y-223996647D01*
X625999725Y-223996647D02*
X550278766Y-223996647D01*
X625999725Y-223996647D02*
X626899756Y-224896850D01*
X626899756Y-228800488D02*
X626899756Y-224896850D01*
X645532900Y-228800488D02*
X626899756Y-228800488D01*
X645532900Y-228800488D02*
X647245366Y-229877470D01*
X647245366Y-229877470D02*
X647433042Y-230700458D01*
X647433042Y-325954248D02*
X647433042Y-230700458D01*
X647433042Y-325954248D02*
X646355920Y-327666575D01*
X646355920Y-327666575D02*
X645532900Y-327854218D01*
X639710516Y-327854218D02*
X645532900Y-327854218D01*
X639710516Y-331757511D02*
X639710516Y-327854218D01*
X639710516Y-331757511D02*
X638810313Y-332657715D01*
X580439543Y-332657715D02*
X638810313Y-332657715D01*
X580439543Y-332657715D02*
X579539512Y-331757511D01*
X579539512Y-327854218D02*
X579539512Y-331757511D01*
X515281591Y-344883670D02*
X514384144Y-340742665D01*
X515281591Y-344883670D02*
X514593261Y-345953716D01*
D11*
%TO.C,G\u002A\u002A\u002A*%
G36*
X359292585Y-309444303D02*
G01*
X359422400Y-309478117D01*
X359548777Y-309531498D01*
X359652454Y-309592629D01*
X359671459Y-309608014D01*
X359704870Y-309637852D01*
X359750740Y-309680295D01*
X359807119Y-309733494D01*
X359872059Y-309795602D01*
X359943611Y-309864771D01*
X360019828Y-309939154D01*
X360073863Y-309992299D01*
X360463647Y-310371502D01*
X360846909Y-310733197D01*
X361227350Y-311080581D01*
X361608672Y-311416853D01*
X361994575Y-311745208D01*
X362388761Y-312068845D01*
X362794931Y-312390960D01*
X363216784Y-312714750D01*
X363283653Y-312765173D01*
X363712982Y-313083341D01*
X364150312Y-313397777D01*
X364596526Y-313708993D01*
X365052506Y-314017499D01*
X365519133Y-314323808D01*
X365997290Y-314628430D01*
X366487858Y-314931877D01*
X366991720Y-315234660D01*
X367509757Y-315537289D01*
X368042851Y-315840277D01*
X368591885Y-316144135D01*
X369157739Y-316449374D01*
X369741297Y-316756505D01*
X370343439Y-317066039D01*
X370965048Y-317378489D01*
X371607006Y-317694364D01*
X372270195Y-318014176D01*
X372646863Y-318193140D01*
X372767937Y-318250237D01*
X372897167Y-318310936D01*
X373033064Y-318374552D01*
X373174136Y-318440399D01*
X373318892Y-318507792D01*
X373465840Y-318576045D01*
X373613489Y-318644473D01*
X373760348Y-318712389D01*
X373904925Y-318779109D01*
X374045730Y-318843947D01*
X374181271Y-318906218D01*
X374310057Y-318965235D01*
X374430596Y-319020314D01*
X374541397Y-319070768D01*
X374640969Y-319115913D01*
X374727821Y-319155063D01*
X374800462Y-319187532D01*
X374857399Y-319212635D01*
X374897143Y-319229686D01*
X374918201Y-319238000D01*
X374921258Y-319238665D01*
X374916180Y-319228408D01*
X374900342Y-319201860D01*
X374875627Y-319162051D01*
X374843919Y-319112012D01*
X374807100Y-319054772D01*
X374804367Y-319050555D01*
X374769350Y-318996407D01*
X374737923Y-318947414D01*
X374708572Y-318901062D01*
X374679785Y-318854836D01*
X374650048Y-318806222D01*
X374617849Y-318752705D01*
X374581675Y-318691770D01*
X374540013Y-318620903D01*
X374491350Y-318537590D01*
X374434173Y-318439315D01*
X374366969Y-318323563D01*
X374366753Y-318323191D01*
X373890102Y-317524518D01*
X373393014Y-316736215D01*
X372875387Y-315958133D01*
X372337115Y-315190122D01*
X371778093Y-314432033D01*
X371198219Y-313683717D01*
X370667103Y-313028947D01*
X370598334Y-312945539D01*
X370542570Y-312876801D01*
X370497752Y-312819903D01*
X370461819Y-312772015D01*
X370432710Y-312730307D01*
X370408366Y-312691951D01*
X370386725Y-312654116D01*
X370367531Y-312617528D01*
X370321611Y-312511700D01*
X370285600Y-312397110D01*
X370261516Y-312281727D01*
X370251375Y-312173522D01*
X370251181Y-312157918D01*
X370255983Y-312083472D01*
X370269176Y-311997412D01*
X370288947Y-311908836D01*
X370313478Y-311826843D01*
X370321782Y-311804143D01*
X370381237Y-311681009D01*
X370460547Y-311565566D01*
X370557061Y-311460330D01*
X370668131Y-311367814D01*
X370791108Y-311290534D01*
X370923343Y-311231003D01*
X370927030Y-311229660D01*
X370983244Y-311210534D01*
X371038824Y-311194546D01*
X371097756Y-311180979D01*
X371164023Y-311169115D01*
X371241607Y-311158236D01*
X371334492Y-311147625D01*
X371440363Y-311137154D01*
X371934442Y-311097579D01*
X372426554Y-311071773D01*
X372912663Y-311059832D01*
X373388732Y-311061855D01*
X373850725Y-311077938D01*
X373864909Y-311078669D01*
X373999333Y-311088786D01*
X374114718Y-311104515D01*
X374214594Y-311126594D01*
X374302492Y-311155760D01*
X374362263Y-311182520D01*
X374491887Y-311259402D01*
X374604890Y-311351912D01*
X374701569Y-311460419D01*
X374782217Y-311585289D01*
X374847130Y-311726890D01*
X374881719Y-311830459D01*
X374894534Y-311889384D01*
X374904510Y-311964326D01*
X374911318Y-312048348D01*
X374914626Y-312134515D01*
X374914106Y-312215888D01*
X374909427Y-312285532D01*
X374904857Y-312316880D01*
X374867064Y-312464171D01*
X374812182Y-312598504D01*
X374741022Y-312718187D01*
X374671317Y-312803972D01*
X374578303Y-312891574D01*
X374479497Y-312959904D01*
X374370779Y-313011155D01*
X374248028Y-313047517D01*
X374192382Y-313058684D01*
X374159040Y-313064040D01*
X374125691Y-313067931D01*
X374088929Y-313070398D01*
X374045347Y-313071481D01*
X373991541Y-313071220D01*
X373924104Y-313069657D01*
X373839630Y-313066832D01*
X373761000Y-313063829D01*
X373669728Y-313060518D01*
X373580293Y-313057802D01*
X373496957Y-313055770D01*
X373423981Y-313054513D01*
X373365629Y-313054120D01*
X373326699Y-313054661D01*
X373221444Y-313058464D01*
X373417373Y-313318237D01*
X373907538Y-313980655D01*
X374377099Y-314641134D01*
X374828001Y-315302720D01*
X375262187Y-315968458D01*
X375681599Y-316641395D01*
X376088181Y-317324577D01*
X376483877Y-318021048D01*
X376861014Y-318715737D01*
X376970565Y-318923525D01*
X377068641Y-319112719D01*
X377155782Y-319284444D01*
X377232526Y-319439825D01*
X377299413Y-319579988D01*
X377356982Y-319706057D01*
X377405770Y-319819158D01*
X377446318Y-319920418D01*
X377473681Y-319995073D01*
X377526947Y-320162257D01*
X377565450Y-320318629D01*
X377590179Y-320470262D01*
X377602124Y-320623226D01*
X377602272Y-320783594D01*
X377602250Y-320784257D01*
X377586197Y-320977521D01*
X377551265Y-321159034D01*
X377497672Y-321328150D01*
X377425638Y-321484222D01*
X377335382Y-321626606D01*
X377300914Y-321671373D01*
X377199062Y-321780065D01*
X377085340Y-321869561D01*
X376961231Y-321939501D01*
X376828219Y-321989526D01*
X376687789Y-322019278D01*
X376541422Y-322028398D01*
X376390603Y-322016526D01*
X376236816Y-321983305D01*
X376140910Y-321951933D01*
X376113883Y-321941065D01*
X376067280Y-321921295D01*
X376002546Y-321893271D01*
X375921129Y-321857642D01*
X375824474Y-321815057D01*
X375714030Y-321766164D01*
X375591241Y-321711611D01*
X375457554Y-321652049D01*
X375314417Y-321588124D01*
X375163275Y-321520486D01*
X375005575Y-321449784D01*
X374842763Y-321376667D01*
X374676286Y-321301782D01*
X374507590Y-321225779D01*
X374338122Y-321149306D01*
X374169329Y-321073012D01*
X374002656Y-320997546D01*
X373839550Y-320923556D01*
X373681459Y-320851690D01*
X373529827Y-320782599D01*
X373386102Y-320716930D01*
X373345363Y-320698278D01*
X372727590Y-320413604D01*
X372130962Y-320135217D01*
X371554546Y-319862643D01*
X370997407Y-319595410D01*
X370458612Y-319333045D01*
X369937227Y-319075076D01*
X369432318Y-318821030D01*
X368942951Y-318570433D01*
X368468193Y-318322813D01*
X368007108Y-318077698D01*
X367558763Y-317834615D01*
X367122225Y-317593090D01*
X366696559Y-317352652D01*
X366406545Y-317185887D01*
X366311765Y-317130853D01*
X366213067Y-317073309D01*
X366113037Y-317014782D01*
X366014262Y-316956798D01*
X365919328Y-316900885D01*
X365830822Y-316848568D01*
X365751330Y-316801375D01*
X365683439Y-316760832D01*
X365629735Y-316728467D01*
X365592806Y-316705805D01*
X365586818Y-316702038D01*
X365579325Y-316696934D01*
X365572708Y-316692214D01*
X365567924Y-316689286D01*
X365565929Y-316689560D01*
X365567680Y-316694443D01*
X365574134Y-316705343D01*
X365586245Y-316723669D01*
X365604972Y-316750830D01*
X365631270Y-316788233D01*
X365666095Y-316837287D01*
X365710405Y-316899401D01*
X365765155Y-316975982D01*
X365831302Y-317068439D01*
X365909803Y-317178180D01*
X365917038Y-317188297D01*
X366495412Y-318008570D01*
X367057264Y-318828920D01*
X367605201Y-319653374D01*
X368141827Y-320485954D01*
X368669750Y-321330687D01*
X369191575Y-322191598D01*
X369556131Y-322808600D01*
X369627081Y-322930200D01*
X369687227Y-323034016D01*
X369737624Y-323122081D01*
X369779325Y-323196427D01*
X369813384Y-323259083D01*
X369840855Y-323312082D01*
X369862791Y-323357454D01*
X369880248Y-323397232D01*
X369894278Y-323433445D01*
X369905936Y-323468127D01*
X369915940Y-323502104D01*
X369942452Y-323638247D01*
X369947029Y-323773896D01*
X369930792Y-323907329D01*
X369894864Y-324036822D01*
X369840368Y-324160652D01*
X369768425Y-324277096D01*
X369680159Y-324384429D01*
X369576691Y-324480928D01*
X369459144Y-324564871D01*
X369328641Y-324634532D01*
X369186303Y-324688190D01*
X369133966Y-324702853D01*
X369062838Y-324716832D01*
X368979976Y-324726501D01*
X368893915Y-324731373D01*
X368813186Y-324730959D01*
X368747458Y-324724953D01*
X368620062Y-324693548D01*
X368496168Y-324641462D01*
X368379489Y-324571104D01*
X368273735Y-324484882D01*
X368182619Y-324385205D01*
X368146062Y-324334629D01*
X368128847Y-324307473D01*
X368101694Y-324262987D01*
X368066194Y-324203848D01*
X368023935Y-324132735D01*
X367976507Y-324052325D01*
X367925501Y-323965296D01*
X367872505Y-323874325D01*
X367860398Y-323853464D01*
X367245545Y-322815085D01*
X366608971Y-321782651D01*
X365951545Y-320757338D01*
X365274139Y-319740321D01*
X364577625Y-318732776D01*
X363862872Y-317735878D01*
X363130753Y-316750803D01*
X362382137Y-315778726D01*
X361617897Y-314820823D01*
X360838902Y-313878269D01*
X360046025Y-312952239D01*
X359240135Y-312043910D01*
X358561313Y-311303555D01*
X358506144Y-311243921D01*
X358453609Y-311186464D01*
X358406683Y-311134489D01*
X358368340Y-311091301D01*
X358341555Y-311060204D01*
X358334306Y-311051341D01*
X358256105Y-310935140D01*
X358195934Y-310808297D01*
X358154836Y-310674487D01*
X358133853Y-310537383D01*
X358134028Y-310400660D01*
X358138305Y-310360704D01*
X358169210Y-310211882D01*
X358220509Y-310070627D01*
X358290457Y-309938728D01*
X358377308Y-309817978D01*
X358479320Y-309710168D01*
X358594747Y-309617088D01*
X358721844Y-309540531D01*
X358858868Y-309482288D01*
X359004074Y-309444149D01*
X359036152Y-309438755D01*
X359162709Y-309430902D01*
X359292585Y-309444303D01*
G37*
X359292585Y-309444303D02*
X359422400Y-309478117D01*
X359548777Y-309531498D01*
X359652454Y-309592629D01*
X359671459Y-309608014D01*
X359704870Y-309637852D01*
X359750740Y-309680295D01*
X359807119Y-309733494D01*
X359872059Y-309795602D01*
X359943611Y-309864771D01*
X360019828Y-309939154D01*
X360073863Y-309992299D01*
X360463647Y-310371502D01*
X360846909Y-310733197D01*
X361227350Y-311080581D01*
X361608672Y-311416853D01*
X361994575Y-311745208D01*
X362388761Y-312068845D01*
X362794931Y-312390960D01*
X363216784Y-312714750D01*
X363283653Y-312765173D01*
X363712982Y-313083341D01*
X364150312Y-313397777D01*
X364596526Y-313708993D01*
X365052506Y-314017499D01*
X365519133Y-314323808D01*
X365997290Y-314628430D01*
X366487858Y-314931877D01*
X366991720Y-315234660D01*
X367509757Y-315537289D01*
X368042851Y-315840277D01*
X368591885Y-316144135D01*
X369157739Y-316449374D01*
X369741297Y-316756505D01*
X370343439Y-317066039D01*
X370965048Y-317378489D01*
X371607006Y-317694364D01*
X372270195Y-318014176D01*
X372646863Y-318193140D01*
X372767937Y-318250237D01*
X372897167Y-318310936D01*
X373033064Y-318374552D01*
X373174136Y-318440399D01*
X373318892Y-318507792D01*
X373465840Y-318576045D01*
X373613489Y-318644473D01*
X373760348Y-318712389D01*
X373904925Y-318779109D01*
X374045730Y-318843947D01*
X374181271Y-318906218D01*
X374310057Y-318965235D01*
X374430596Y-319020314D01*
X374541397Y-319070768D01*
X374640969Y-319115913D01*
X374727821Y-319155063D01*
X374800462Y-319187532D01*
X374857399Y-319212635D01*
X374897143Y-319229686D01*
X374918201Y-319238000D01*
X374921258Y-319238665D01*
X374916180Y-319228408D01*
X374900342Y-319201860D01*
X374875627Y-319162051D01*
X374843919Y-319112012D01*
X374807100Y-319054772D01*
X374804367Y-319050555D01*
X374769350Y-318996407D01*
X374737923Y-318947414D01*
X374708572Y-318901062D01*
X374679785Y-318854836D01*
X374650048Y-318806222D01*
X374617849Y-318752705D01*
X374581675Y-318691770D01*
X374540013Y-318620903D01*
X374491350Y-318537590D01*
X374434173Y-318439315D01*
X374366969Y-318323563D01*
X374366753Y-318323191D01*
X373890102Y-317524518D01*
X373393014Y-316736215D01*
X372875387Y-315958133D01*
X372337115Y-315190122D01*
X371778093Y-314432033D01*
X371198219Y-313683717D01*
X370667103Y-313028947D01*
X370598334Y-312945539D01*
X370542570Y-312876801D01*
X370497752Y-312819903D01*
X370461819Y-312772015D01*
X370432710Y-312730307D01*
X370408366Y-312691951D01*
X370386725Y-312654116D01*
X370367531Y-312617528D01*
X370321611Y-312511700D01*
X370285600Y-312397110D01*
X370261516Y-312281727D01*
X370251375Y-312173522D01*
X370251181Y-312157918D01*
X370255983Y-312083472D01*
X370269176Y-311997412D01*
X370288947Y-311908836D01*
X370313478Y-311826843D01*
X370321782Y-311804143D01*
X370381237Y-311681009D01*
X370460547Y-311565566D01*
X370557061Y-311460330D01*
X370668131Y-311367814D01*
X370791108Y-311290534D01*
X370923343Y-311231003D01*
X370927030Y-311229660D01*
X370983244Y-311210534D01*
X371038824Y-311194546D01*
X371097756Y-311180979D01*
X371164023Y-311169115D01*
X371241607Y-311158236D01*
X371334492Y-311147625D01*
X371440363Y-311137154D01*
X371934442Y-311097579D01*
X372426554Y-311071773D01*
X372912663Y-311059832D01*
X373388732Y-311061855D01*
X373850725Y-311077938D01*
X373864909Y-311078669D01*
X373999333Y-311088786D01*
X374114718Y-311104515D01*
X374214594Y-311126594D01*
X374302492Y-311155760D01*
X374362263Y-311182520D01*
X374491887Y-311259402D01*
X374604890Y-311351912D01*
X374701569Y-311460419D01*
X374782217Y-311585289D01*
X374847130Y-311726890D01*
X374881719Y-311830459D01*
X374894534Y-311889384D01*
X374904510Y-311964326D01*
X374911318Y-312048348D01*
X374914626Y-312134515D01*
X374914106Y-312215888D01*
X374909427Y-312285532D01*
X374904857Y-312316880D01*
X374867064Y-312464171D01*
X374812182Y-312598504D01*
X374741022Y-312718187D01*
X374671317Y-312803972D01*
X374578303Y-312891574D01*
X374479497Y-312959904D01*
X374370779Y-313011155D01*
X374248028Y-313047517D01*
X374192382Y-313058684D01*
X374159040Y-313064040D01*
X374125691Y-313067931D01*
X374088929Y-313070398D01*
X374045347Y-313071481D01*
X373991541Y-313071220D01*
X373924104Y-313069657D01*
X373839630Y-313066832D01*
X373761000Y-313063829D01*
X373669728Y-313060518D01*
X373580293Y-313057802D01*
X373496957Y-313055770D01*
X373423981Y-313054513D01*
X373365629Y-313054120D01*
X373326699Y-313054661D01*
X373221444Y-313058464D01*
X373417373Y-313318237D01*
X373907538Y-313980655D01*
X374377099Y-314641134D01*
X374828001Y-315302720D01*
X375262187Y-315968458D01*
X375681599Y-316641395D01*
X376088181Y-317324577D01*
X376483877Y-318021048D01*
X376861014Y-318715737D01*
X376970565Y-318923525D01*
X377068641Y-319112719D01*
X377155782Y-319284444D01*
X377232526Y-319439825D01*
X377299413Y-319579988D01*
X377356982Y-319706057D01*
X377405770Y-319819158D01*
X377446318Y-319920418D01*
X377473681Y-319995073D01*
X377526947Y-320162257D01*
X377565450Y-320318629D01*
X377590179Y-320470262D01*
X377602124Y-320623226D01*
X377602272Y-320783594D01*
X377602250Y-320784257D01*
X377586197Y-320977521D01*
X377551265Y-321159034D01*
X377497672Y-321328150D01*
X377425638Y-321484222D01*
X377335382Y-321626606D01*
X377300914Y-321671373D01*
X377199062Y-321780065D01*
X377085340Y-321869561D01*
X376961231Y-321939501D01*
X376828219Y-321989526D01*
X376687789Y-322019278D01*
X376541422Y-322028398D01*
X376390603Y-322016526D01*
X376236816Y-321983305D01*
X376140910Y-321951933D01*
X376113883Y-321941065D01*
X376067280Y-321921295D01*
X376002546Y-321893271D01*
X375921129Y-321857642D01*
X375824474Y-321815057D01*
X375714030Y-321766164D01*
X375591241Y-321711611D01*
X375457554Y-321652049D01*
X375314417Y-321588124D01*
X375163275Y-321520486D01*
X375005575Y-321449784D01*
X374842763Y-321376667D01*
X374676286Y-321301782D01*
X374507590Y-321225779D01*
X374338122Y-321149306D01*
X374169329Y-321073012D01*
X374002656Y-320997546D01*
X373839550Y-320923556D01*
X373681459Y-320851690D01*
X373529827Y-320782599D01*
X373386102Y-320716930D01*
X373345363Y-320698278D01*
X372727590Y-320413604D01*
X372130962Y-320135217D01*
X371554546Y-319862643D01*
X370997407Y-319595410D01*
X370458612Y-319333045D01*
X369937227Y-319075076D01*
X369432318Y-318821030D01*
X368942951Y-318570433D01*
X368468193Y-318322813D01*
X368007108Y-318077698D01*
X367558763Y-317834615D01*
X367122225Y-317593090D01*
X366696559Y-317352652D01*
X366406545Y-317185887D01*
X366311765Y-317130853D01*
X366213067Y-317073309D01*
X366113037Y-317014782D01*
X366014262Y-316956798D01*
X365919328Y-316900885D01*
X365830822Y-316848568D01*
X365751330Y-316801375D01*
X365683439Y-316760832D01*
X365629735Y-316728467D01*
X365592806Y-316705805D01*
X365586818Y-316702038D01*
X365579325Y-316696934D01*
X365572708Y-316692214D01*
X365567924Y-316689286D01*
X365565929Y-316689560D01*
X365567680Y-316694443D01*
X365574134Y-316705343D01*
X365586245Y-316723669D01*
X365604972Y-316750830D01*
X365631270Y-316788233D01*
X365666095Y-316837287D01*
X365710405Y-316899401D01*
X365765155Y-316975982D01*
X365831302Y-317068439D01*
X365909803Y-317178180D01*
X365917038Y-317188297D01*
X366495412Y-318008570D01*
X367057264Y-318828920D01*
X367605201Y-319653374D01*
X368141827Y-320485954D01*
X368669750Y-321330687D01*
X369191575Y-322191598D01*
X369556131Y-322808600D01*
X369627081Y-322930200D01*
X369687227Y-323034016D01*
X369737624Y-323122081D01*
X369779325Y-323196427D01*
X369813384Y-323259083D01*
X369840855Y-323312082D01*
X369862791Y-323357454D01*
X369880248Y-323397232D01*
X369894278Y-323433445D01*
X369905936Y-323468127D01*
X369915940Y-323502104D01*
X369942452Y-323638247D01*
X369947029Y-323773896D01*
X369930792Y-323907329D01*
X369894864Y-324036822D01*
X369840368Y-324160652D01*
X369768425Y-324277096D01*
X369680159Y-324384429D01*
X369576691Y-324480928D01*
X369459144Y-324564871D01*
X369328641Y-324634532D01*
X369186303Y-324688190D01*
X369133966Y-324702853D01*
X369062838Y-324716832D01*
X368979976Y-324726501D01*
X368893915Y-324731373D01*
X368813186Y-324730959D01*
X368747458Y-324724953D01*
X368620062Y-324693548D01*
X368496168Y-324641462D01*
X368379489Y-324571104D01*
X368273735Y-324484882D01*
X368182619Y-324385205D01*
X368146062Y-324334629D01*
X368128847Y-324307473D01*
X368101694Y-324262987D01*
X368066194Y-324203848D01*
X368023935Y-324132735D01*
X367976507Y-324052325D01*
X367925501Y-323965296D01*
X367872505Y-323874325D01*
X367860398Y-323853464D01*
X367245545Y-322815085D01*
X366608971Y-321782651D01*
X365951545Y-320757338D01*
X365274139Y-319740321D01*
X364577625Y-318732776D01*
X363862872Y-317735878D01*
X363130753Y-316750803D01*
X362382137Y-315778726D01*
X361617897Y-314820823D01*
X360838902Y-313878269D01*
X360046025Y-312952239D01*
X359240135Y-312043910D01*
X358561313Y-311303555D01*
X358506144Y-311243921D01*
X358453609Y-311186464D01*
X358406683Y-311134489D01*
X358368340Y-311091301D01*
X358341555Y-311060204D01*
X358334306Y-311051341D01*
X358256105Y-310935140D01*
X358195934Y-310808297D01*
X358154836Y-310674487D01*
X358133853Y-310537383D01*
X358134028Y-310400660D01*
X358138305Y-310360704D01*
X358169210Y-310211882D01*
X358220509Y-310070627D01*
X358290457Y-309938728D01*
X358377308Y-309817978D01*
X358479320Y-309710168D01*
X358594747Y-309617088D01*
X358721844Y-309540531D01*
X358858868Y-309482288D01*
X359004074Y-309444149D01*
X359036152Y-309438755D01*
X359162709Y-309430902D01*
X359292585Y-309444303D01*
%TD*%
M02*
