%TF.GenerationSoftware,KiCad,Pcbnew,(5.1.10)-1*%
%TF.CreationDate,2021-06-21T21:11:59+07:00*%
%TF.ProjectId,FR4 Alice Plate Commision,46523420-416c-4696-9365-20506c617465,rev?*%
%TF.SameCoordinates,Original*%
%TF.FileFunction,Soldermask,Top*%
%TF.FilePolarity,Negative*%
%FSLAX46Y46*%
G04 Gerber Fmt 4.6, Leading zero omitted, Abs format (unit mm)*
G04 Created by KiCad (PCBNEW (5.1.10)-1) date 2021-06-21 21:11:59*
%MOMM*%
%LPD*%
G01*
G04 APERTURE LIST*
%ADD10C,1.250000*%
%ADD11C,2.000000*%
%ADD12C,0.010000*%
G04 APERTURE END LIST*
D10*
X114116517Y-102125318D02*
G75*
G03*
X114116517Y-102125318I-1750000J0D01*
G01*
X210123482Y-102125318D02*
G75*
G03*
X210123482Y-102125318I-1750000J0D01*
G01*
D11*
X134597740Y-99404732D02*
G75*
G02*
X133827505Y-98218673I207912J978147D01*
G01*
X148663503Y-102394503D02*
X134597741Y-99404733D01*
X149849563Y-101624267D02*
G75*
G02*
X148663503Y-102394503I-978148J207912D01*
G01*
X152344503Y-89886496D02*
X149849563Y-101624267D01*
X151574267Y-88700436D02*
G75*
G02*
X152344503Y-89886496I-207912J-978148D01*
G01*
X137508504Y-85710666D02*
X151574267Y-88700436D01*
X136322445Y-86480903D02*
G75*
G02*
X137508504Y-85710666I978148J-207911D01*
G01*
X133827505Y-98218673D02*
X136322445Y-86480902D01*
X119529563Y-95184267D02*
G75*
G02*
X118343503Y-95954503I-978148J207912D01*
G01*
X119532071Y-95172467D02*
X119529563Y-95184267D01*
X119628256Y-95197974D02*
G75*
G02*
X119532071Y-95172467I207912J978148D01*
G01*
X121799315Y-95659447D02*
X119628256Y-95197974D01*
X121914286Y-95691156D02*
G75*
G02*
X121799315Y-95659447I207912J978148D01*
G01*
X126805024Y-96730714D02*
X121914286Y-95691155D01*
X127991084Y-95960478D02*
G75*
G02*
X126805024Y-96730714I-978148J207912D01*
G01*
X130693936Y-83244559D02*
X127991084Y-95960478D01*
X129923700Y-82058499D02*
G75*
G02*
X130693936Y-83244559I-207912J-978148D01*
G01*
X127752641Y-81597027D02*
X129923700Y-82058500D01*
X127637670Y-81565318D02*
G75*
G02*
X127752641Y-81597027I-207912J-978148D01*
G01*
X122746931Y-80525760D02*
X127637669Y-81565318D01*
X121560873Y-81295996D02*
G75*
G02*
X122746931Y-80525760I978147J-207911D01*
G01*
X121350452Y-82285943D02*
X121560872Y-81295996D01*
X121254267Y-82260436D02*
G75*
G02*
X121350452Y-82285943I-207912J-978148D01*
G01*
X119055701Y-81793117D02*
X121254267Y-82260436D01*
X118962826Y-81768661D02*
G75*
G02*
X119055701Y-81793117I-207912J-978147D01*
G01*
X107225055Y-79273720D02*
X118962826Y-81768661D01*
X107131803Y-79258463D02*
G75*
G02*
X107225055Y-79273720I-114660J-993405D01*
G01*
X107339684Y-78280460D02*
X107131803Y-79258463D01*
X106569448Y-77094400D02*
G75*
G02*
X107339684Y-78280460I-207912J-978148D01*
G01*
X104398388Y-76632927D02*
X106569448Y-77094400D01*
X104283417Y-76601218D02*
G75*
G02*
X104398388Y-76632927I-207911J-978148D01*
G01*
X99392679Y-75561660D02*
X104283417Y-76601219D01*
X98206620Y-76331897D02*
G75*
G02*
X99392679Y-75561660I978148J-207911D01*
G01*
X95503768Y-89047815D02*
X98206620Y-76331896D01*
X96274004Y-90233875D02*
G75*
G02*
X95503768Y-89047815I207912J978148D01*
G01*
X98445063Y-90695347D02*
X96274004Y-90233874D01*
X98560034Y-90727056D02*
G75*
G02*
X98445063Y-90695347I207912J978148D01*
G01*
X103450772Y-91766614D02*
X98560034Y-90727056D01*
X103544024Y-91781871D02*
G75*
G02*
X103450772Y-91766614I114660J993404D01*
G01*
X104314292Y-92967787D02*
G75*
G02*
X103544025Y-91781872I207911J978148D01*
G01*
X106512857Y-93435106D02*
X104314291Y-92967787D01*
X106605732Y-93459562D02*
G75*
G02*
X106512857Y-93435106I207912J978147D01*
G01*
X118343503Y-95954503D02*
X106605732Y-93459563D01*
X204951290Y-77094841D02*
G75*
G02*
X206137349Y-77865078I207911J-978148D01*
G01*
X200060551Y-78134400D02*
X204951289Y-77094842D01*
X199290315Y-79320460D02*
G75*
G02*
X200060551Y-78134400I978148J207912D01*
G01*
X201993167Y-92036378D02*
X199290315Y-79320460D01*
X203179226Y-92806615D02*
G75*
G02*
X201993167Y-92036378I-207911J978148D01*
G01*
X208069965Y-91767056D02*
X203179227Y-92806614D01*
X208840201Y-90580996D02*
G75*
G02*
X208069965Y-91767056I-978148J-207912D01*
G01*
X206137349Y-77865078D02*
X208840201Y-90580997D01*
X-4999998Y-46100000D02*
G75*
G02*
X-6000000Y-45100000I-1J1000001D01*
G01*
X7000000Y-46100000D02*
X-5000000Y-46100000D01*
X8000000Y-45099998D02*
G75*
G02*
X7000000Y-46100000I-1000001J-1D01*
G01*
X8000000Y-33100000D02*
X8000000Y-45100000D01*
X6999999Y-32099999D02*
G75*
G02*
X8000000Y-33100000I0J-1000001D01*
G01*
X-5000000Y-32100000D02*
X7000000Y-32100000D01*
X-5999999Y-33099999D02*
G75*
G02*
X-5000000Y-32100000I999999J0D01*
G01*
X-6000000Y-45100000D02*
X-6000000Y-33100000D01*
X23322000Y-68290000D02*
G75*
G02*
X22322000Y-69290000I-1000000J0D01*
G01*
X23322000Y-55290000D02*
X23322000Y-68290000D01*
X22322000Y-54290000D02*
G75*
G02*
X23322000Y-55290000I0J-1000000D01*
G01*
X17322000Y-54290000D02*
X22322000Y-54290000D01*
X16322000Y-55290000D02*
G75*
G02*
X17322000Y-54290000I1000000J0D01*
G01*
X16322000Y-68290000D02*
X16322000Y-55290000D01*
X17322000Y-69290000D02*
G75*
G02*
X16322000Y-68290000I0J1000000D01*
G01*
X22322000Y-69290000D02*
X17322000Y-69290000D01*
X181597037Y-82058942D02*
G75*
G02*
X182783096Y-82829177I207912J-978147D01*
G01*
X176706299Y-83098500D02*
X181597037Y-82058941D01*
X175936064Y-84284559D02*
G75*
G02*
X176706299Y-83098500I978147J207912D01*
G01*
X178638915Y-97000478D02*
X175936063Y-84284559D01*
X179824975Y-97770714D02*
G75*
G02*
X178638915Y-97000478I-207912J978148D01*
G01*
X184715713Y-96731155D02*
X179824975Y-97770714D01*
X185485948Y-95545096D02*
G75*
G02*
X184715713Y-96731155I-978147J-207912D01*
G01*
X182783096Y-82829177D02*
X185485948Y-95545096D01*
X25760000Y-67290000D02*
G75*
G02*
X24760000Y-66290000I0J1000000D01*
G01*
X37760000Y-67290000D02*
X25760000Y-67290000D01*
X38760001Y-66289999D02*
G75*
G02*
X37760000Y-67290000I-1000001J0D01*
G01*
X38760000Y-54290000D02*
X38760000Y-66290000D01*
X37760000Y-53290000D02*
G75*
G02*
X38760000Y-54290000I0J-1000000D01*
G01*
X25760000Y-53290000D02*
X37759999Y-53290000D01*
X24760000Y-54289998D02*
G75*
G02*
X25760000Y-53290000I999999J-1D01*
G01*
X24760000Y-66290000D02*
X24760000Y-54290000D01*
X295132000Y-68290000D02*
G75*
G02*
X294132000Y-69290000I-1000000J0D01*
G01*
X295132000Y-67290000D02*
X295132000Y-68290000D01*
X309570000Y-67290000D02*
X295132000Y-67290000D01*
X310570000Y-66290000D02*
G75*
G02*
X309570000Y-67290000I-1000000J0D01*
G01*
X310570000Y-54290000D02*
X310570000Y-66290000D01*
X309570001Y-53289999D02*
G75*
G02*
X310570000Y-54290000I-1J-1000000D01*
G01*
X288045000Y-53290000D02*
X309570000Y-53289999D01*
X287045000Y-54289998D02*
G75*
G02*
X288045000Y-53290000I999999J-1D01*
G01*
X287045000Y-66290000D02*
X287045000Y-54290000D01*
X288045000Y-67290000D02*
G75*
G02*
X287045000Y-66290000I0J1000000D01*
G01*
X288132000Y-67290000D02*
X288045000Y-67290000D01*
X288132000Y-68290000D02*
X288132000Y-67290000D01*
X289132000Y-69290000D02*
G75*
G02*
X288132000Y-68290000I0J1000000D01*
G01*
X294132000Y-69290000D02*
X289132000Y-69290000D01*
X294721999Y-32239999D02*
G75*
G02*
X295721999Y-33239999I0J-1000000D01*
G01*
X289721999Y-32239999D02*
X294721999Y-32239999D01*
X288721999Y-33239999D02*
G75*
G02*
X289721999Y-32239999I1000000J0D01*
G01*
X288721999Y-46239999D02*
X288721999Y-33239999D01*
X289721999Y-47239999D02*
G75*
G02*
X288721999Y-46239999I0J1000000D01*
G01*
X294721999Y-47239999D02*
X289721999Y-47239999D01*
X295721999Y-46239999D02*
G75*
G02*
X294721999Y-47239999I-1000000J0D01*
G01*
X295721999Y-33239999D02*
X295721999Y-46239999D01*
X46198000Y-54290000D02*
G75*
G02*
X47198000Y-55290000I0J-1000000D01*
G01*
X41198000Y-54290000D02*
X46198000Y-54290000D01*
X40198000Y-55290000D02*
G75*
G02*
X41198000Y-54290000I1000000J0D01*
G01*
X40198000Y-68290000D02*
X40198000Y-55290000D01*
X41198000Y-69290000D02*
G75*
G02*
X40198000Y-68290000I0J1000000D01*
G01*
X46198000Y-69290000D02*
X41198000Y-69290000D01*
X47198000Y-68290000D02*
G75*
G02*
X46198000Y-69290000I-1000000J0D01*
G01*
X47198000Y-55290000D02*
X47198000Y-68290000D01*
X313597999Y-47239999D02*
G75*
G02*
X312597999Y-46239999I0J1000000D01*
G01*
X318597999Y-47239999D02*
X313597999Y-47239999D01*
X319597999Y-46239999D02*
G75*
G02*
X318597999Y-47239999I-1000000J0D01*
G01*
X319597999Y-33239999D02*
X319597999Y-46239999D01*
X318597999Y-32239999D02*
G75*
G02*
X319597999Y-33239999I0J-1000000D01*
G01*
X313597999Y-32239999D02*
X318597999Y-32239999D01*
X312597999Y-33239999D02*
G75*
G02*
X313597999Y-32239999I1000000J0D01*
G01*
X312597999Y-46239999D02*
X312597999Y-33239999D01*
X313008000Y-69290000D02*
G75*
G02*
X312008000Y-68290000I0J1000000D01*
G01*
X318008000Y-69290000D02*
X313008000Y-69290000D01*
X319008000Y-68290000D02*
G75*
G02*
X318008000Y-69290000I-1000000J0D01*
G01*
X319008000Y-67290000D02*
X319008000Y-68290000D01*
X326238750Y-67290000D02*
X319008000Y-67290000D01*
X327238751Y-66289999D02*
G75*
G02*
X326238750Y-67290000I-1000001J0D01*
G01*
X327238750Y-54290000D02*
X327238750Y-66290000D01*
X326238750Y-53290000D02*
G75*
G02*
X327238750Y-54290000I0J-1000000D01*
G01*
X314238750Y-53290000D02*
X326238750Y-53289999D01*
X313238750Y-54290000D02*
G75*
G02*
X314238750Y-53290000I1000000J0D01*
G01*
X313008000Y-54290000D02*
X313238750Y-54290000D01*
X312008000Y-55290000D02*
G75*
G02*
X313008000Y-54290000I1000000J0D01*
G01*
X312008000Y-68290000D02*
X312008000Y-55290000D01*
X313543000Y-11140000D02*
G75*
G02*
X312543000Y-12140000I-1000000J0D01*
G01*
X313543000Y-10140000D02*
X313543000Y-11140000D01*
X313630000Y-10140000D02*
X313543000Y-10140000D01*
X314630000Y-9140000D02*
G75*
G02*
X313630000Y-10140000I-1000000J0D01*
G01*
X314630000Y2860000D02*
X314630000Y-9139999D01*
X313630000Y3860000D02*
G75*
G02*
X314630000Y2860000I0J-1000000D01*
G01*
X282580000Y3860000D02*
X313630000Y3860000D01*
X281579999Y2859999D02*
G75*
G02*
X282580000Y3860000I1000001J0D01*
G01*
X281580000Y-9140000D02*
X281580000Y2860000D01*
X282580001Y-10139999D02*
G75*
G02*
X281580000Y-9140000I-1J1000000D01*
G01*
X282667000Y-10140000D02*
X282580000Y-10140000D01*
X282667000Y-11140000D02*
X282667000Y-10140000D01*
X283667000Y-12140000D02*
G75*
G02*
X282667000Y-11140000I0J1000000D01*
G01*
X288667000Y-12140000D02*
X283667000Y-12140000D01*
X289667000Y-11140000D02*
G75*
G02*
X288667000Y-12140000I-1000000J0D01*
G01*
X289667000Y-10140000D02*
X289667000Y-11140000D01*
X306543000Y-10140000D02*
X289667000Y-10140000D01*
X306543000Y-11140000D02*
X306543000Y-10140000D01*
X307543000Y-12140000D02*
G75*
G02*
X306543000Y-11140000I0J1000000D01*
G01*
X312543000Y-12140000D02*
X307543000Y-12140000D01*
X-930000Y-27049999D02*
G75*
G02*
X-1929999Y-26050000I0J999999D01*
G01*
X11069999Y-27050000D02*
X-929999Y-27050000D01*
X12070000Y-26050001D02*
G75*
G02*
X11069999Y-27050000I-1000000J1D01*
G01*
X12069999Y-14050000D02*
X12070000Y-26050000D01*
X11069999Y-13050000D02*
G75*
G02*
X12069999Y-14050000I0J-1000000D01*
G01*
X-929999Y-13050000D02*
X11069999Y-13050000D01*
X-1929999Y-14050000D02*
G75*
G02*
X-929999Y-13050000I1000000J0D01*
G01*
X-1929999Y-26050000D02*
X-1930000Y-14050000D01*
X69710000Y-66289998D02*
G75*
G02*
X68710000Y-67290000I-1000001J-1D01*
G01*
X69710000Y-54290000D02*
X69710000Y-66290000D01*
X68710000Y-53290000D02*
G75*
G02*
X69710000Y-54290000I0J-1000000D01*
G01*
X56709999Y-53290000D02*
X68710000Y-53290000D01*
X55709999Y-54290000D02*
G75*
G02*
X56709999Y-53290000I1000000J0D01*
G01*
X55709999Y-66290000D02*
X55709999Y-54290000D01*
X56710000Y-67290001D02*
G75*
G02*
X55709999Y-66290000I0J1000001D01*
G01*
X68710000Y-67290000D02*
X56709999Y-67290000D01*
X3230000Y-8000000D02*
G75*
G02*
X2230000Y-7000000I0J1000000D01*
G01*
X15230000Y-8000000D02*
X3230000Y-8000000D01*
X16230000Y-7000000D02*
G75*
G02*
X15230000Y-8000000I-1000000J0D01*
G01*
X16230000Y4999999D02*
X16230000Y-7000000D01*
X15230000Y5999999D02*
G75*
G02*
X16230000Y4999999I0J-1000000D01*
G01*
X3230000Y5999999D02*
X15230000Y5999999D01*
X2230000Y4999999D02*
G75*
G02*
X3230000Y5999999I1000000J0D01*
G01*
X2230000Y-7000000D02*
X2230000Y4999999D01*
X318795601Y-85387999D02*
G75*
G02*
X317795600Y-86388000I-1000001J0D01*
G01*
X318795600Y-73388000D02*
X318795600Y-85388000D01*
X317795600Y-72388000D02*
G75*
G02*
X318795600Y-73388000I0J-1000000D01*
G01*
X305795600Y-72388000D02*
X317795600Y-72388000D01*
X304795600Y-73388000D02*
G75*
G02*
X305795600Y-72388000I1000000J0D01*
G01*
X304795600Y-85388000D02*
X304795600Y-73388000D01*
X305795600Y-86388000D02*
G75*
G02*
X304795600Y-85388000I0J1000000D01*
G01*
X317795600Y-86388000D02*
X305795600Y-86388000D01*
X257900000Y-6999998D02*
G75*
G02*
X256900000Y-8000000I-1000001J-1D01*
G01*
X244900000Y-8000000D02*
X256900000Y-8000000D01*
X244900000Y-7999999D02*
G75*
G02*
X243899999Y-7000000I-1J1000000D01*
G01*
X243900000Y5000000D02*
X243899999Y-7000000D01*
X243900000Y5000000D02*
G75*
G02*
X244900000Y6000000I1000000J0D01*
G01*
X256900000Y6000000D02*
X244900000Y6000000D01*
X256899999Y5999999D02*
G75*
G02*
X257900000Y5000000I1J-1000000D01*
G01*
X257900000Y-7000000D02*
X257900000Y5000000D01*
X298160001Y-48239999D02*
G75*
G02*
X297160000Y-47240000I-1J1000000D01*
G01*
X310160000Y-48240000D02*
X298160000Y-48240000D01*
X311160000Y-47240000D02*
G75*
G02*
X310160000Y-48240000I-1000000J0D01*
G01*
X311160000Y-35240000D02*
X311160000Y-47240000D01*
X310160001Y-34239999D02*
G75*
G02*
X311160000Y-35240000I-1J-1000000D01*
G01*
X298160000Y-34240000D02*
X310160000Y-34239999D01*
X297160000Y-35240000D02*
G75*
G02*
X298160000Y-34240000I1000000J0D01*
G01*
X297160000Y-47240000D02*
X297160000Y-35240000D01*
X261160001Y-47239999D02*
G75*
G02*
X260160000Y-48240000I-1000001J0D01*
G01*
X261160000Y-35240000D02*
X261160000Y-47240000D01*
X260160000Y-34240000D02*
G75*
G02*
X261160000Y-35240000I0J-1000000D01*
G01*
X248160000Y-34240000D02*
X260160000Y-34239999D01*
X247159999Y-35239999D02*
G75*
G02*
X248160000Y-34240000I1000000J-1D01*
G01*
X247160000Y-47240000D02*
X247159999Y-35240000D01*
X248160000Y-48240000D02*
G75*
G02*
X247160000Y-47240000I0J1000000D01*
G01*
X260160000Y-48240000D02*
X248160000Y-48240000D01*
X274850000Y-66290000D02*
G75*
G02*
X273850000Y-67290000I-1000000J0D01*
G01*
X274850000Y-54290000D02*
X274850000Y-66290000D01*
X273850001Y-53289999D02*
G75*
G02*
X274850000Y-54290000I-1J-1000000D01*
G01*
X261850000Y-53290000D02*
X273850000Y-53290000D01*
X260850000Y-54290000D02*
G75*
G02*
X261850000Y-53290000I1000000J0D01*
G01*
X260850000Y-66290000D02*
X260850000Y-54290000D01*
X261850001Y-67289999D02*
G75*
G02*
X260850000Y-66290000I-1J1000000D01*
G01*
X273850000Y-67290000D02*
X261850000Y-67290000D01*
X255800000Y-66289998D02*
G75*
G02*
X254800000Y-67290000I-1000001J-1D01*
G01*
X242800000Y-67290000D02*
X254800000Y-67290000D01*
X242800001Y-67289999D02*
G75*
G02*
X241800000Y-66290000I-1J1000000D01*
G01*
X241800000Y-54290000D02*
X241800000Y-66290000D01*
X241799999Y-54290000D02*
G75*
G02*
X242800000Y-53289999I1000001J0D01*
G01*
X254800000Y-53290000D02*
X242800000Y-53289999D01*
X254799999Y-53289999D02*
G75*
G02*
X255800000Y-54290000I0J-1000001D01*
G01*
X255800000Y-66290000D02*
X255800000Y-54290000D01*
X279210000Y-34240000D02*
G75*
G02*
X280210000Y-35240000I0J-1000000D01*
G01*
X280210000Y-47240000D02*
X280210000Y-35240000D01*
X280210001Y-47239999D02*
G75*
G02*
X279210000Y-48240000I-1000001J0D01*
G01*
X267209999Y-48240000D02*
X279210000Y-48240000D01*
X267210001Y-48239999D02*
G75*
G02*
X266210000Y-47240000I-1J1000000D01*
G01*
X266210000Y-35240000D02*
X266210000Y-47240000D01*
X266209999Y-35240001D02*
G75*
G02*
X267209999Y-34239999I1000001J1D01*
G01*
X279210000Y-34240000D02*
X267209999Y-34239999D01*
X31620000Y-85339998D02*
G75*
G02*
X30620000Y-86340000I-1000001J-1D01*
G01*
X31620000Y-73340000D02*
X31620000Y-85340000D01*
X30620000Y-72340000D02*
G75*
G02*
X31620000Y-73340000I0J-1000000D01*
G01*
X18619999Y-72340000D02*
X30620000Y-72340000D01*
X17620000Y-73339999D02*
G75*
G02*
X18619999Y-72340000I999999J0D01*
G01*
X17620000Y-85340000D02*
X17619999Y-73340000D01*
X18620000Y-86340000D02*
G75*
G02*
X17620000Y-85340000I0J1000000D01*
G01*
X30620000Y-86340000D02*
X18619999Y-86340000D01*
X277220000Y-29190000D02*
G75*
G02*
X276220000Y-28190000I0J1000000D01*
G01*
X289220000Y-29190000D02*
X277220000Y-29190000D01*
X290220001Y-28189999D02*
G75*
G02*
X289220000Y-29190000I-1000001J0D01*
G01*
X290220000Y-16189999D02*
X290220000Y-28190000D01*
X289219999Y-15190000D02*
G75*
G02*
X290220000Y-16189999I1J-1000000D01*
G01*
X277220000Y-15189999D02*
X289220000Y-15189999D01*
X276220000Y-16189999D02*
G75*
G02*
X277220000Y-15189999I1000000J0D01*
G01*
X276220000Y-28190000D02*
X276220000Y-16189999D01*
X252540000Y-27130000D02*
G75*
G02*
X251540000Y-28130000I-1000000J0D01*
G01*
X252540000Y-15129999D02*
X252540000Y-27130000D01*
X251540000Y-14129999D02*
G75*
G02*
X252540000Y-15129999I0J-1000000D01*
G01*
X239540000Y-14129999D02*
X251540000Y-14129999D01*
X238539999Y-15130000D02*
G75*
G02*
X239540000Y-14129999I1000001J0D01*
G01*
X238540000Y-27130000D02*
X238540000Y-15129999D01*
X239540001Y-28129999D02*
G75*
G02*
X238540000Y-27130000I-1J1000000D01*
G01*
X251540000Y-28130000D02*
X239540000Y-28130000D01*
X301040001Y-29189999D02*
G75*
G02*
X300040000Y-28190000I-1J1000000D01*
G01*
X313040000Y-29190000D02*
X301040000Y-29190000D01*
X314040000Y-28190000D02*
G75*
G02*
X313040000Y-29190000I-1000000J0D01*
G01*
X314040000Y-16189999D02*
X314040000Y-28190000D01*
X313040000Y-15189999D02*
G75*
G02*
X314040000Y-16189999I0J-1000000D01*
G01*
X301040000Y-15189999D02*
X313040000Y-15189999D01*
X300039999Y-16190000D02*
G75*
G02*
X301040000Y-15189999I1000001J0D01*
G01*
X300040000Y-28190000D02*
X300040000Y-16189999D01*
X258170000Y-29190000D02*
G75*
G02*
X257170000Y-28190000I0J1000000D01*
G01*
X270170000Y-29190000D02*
X258170000Y-29190000D01*
X271170001Y-28189999D02*
G75*
G02*
X270170000Y-29190000I-1000001J0D01*
G01*
X271170000Y-16189999D02*
X271170000Y-28190000D01*
X270169999Y-15190000D02*
G75*
G02*
X271170000Y-16189999I1J-1000000D01*
G01*
X258170000Y-15189999D02*
X270170000Y-15189999D01*
X257170000Y-16189999D02*
G75*
G02*
X258170000Y-15189999I1000000J0D01*
G01*
X257170000Y-28190000D02*
X257170000Y-16189999D01*
X275530001Y3860000D02*
G75*
G02*
X276530000Y2859999I-1J-1000000D01*
G01*
X276530000Y-9140000D02*
X276530000Y2859999D01*
X276530000Y-9140000D02*
G75*
G02*
X275530000Y-10140000I-1000000J0D01*
G01*
X263529999Y-10140000D02*
X275530000Y-10140000D01*
X263530001Y-10140000D02*
G75*
G02*
X262529999Y-9140000I-1J1000001D01*
G01*
X262529999Y2859999D02*
X262529999Y-9140000D01*
X262529999Y2859998D02*
G75*
G02*
X263529999Y3860000I1000001J1D01*
G01*
X275530000Y3859999D02*
X263529999Y3860000D01*
X88809563Y-69174267D02*
G75*
G02*
X87623503Y-69944503I-978148J207912D01*
G01*
X75885732Y-67449563D02*
X87623503Y-69944503D01*
X75885732Y-67449563D02*
G75*
G02*
X75115496Y-66263503I207912J978148D01*
G01*
X77610436Y-54525732D02*
X75115496Y-66263503D01*
X77610436Y-54525732D02*
G75*
G02*
X78796496Y-53755496I978148J-207912D01*
G01*
X90534267Y-56250436D02*
X78796496Y-53755496D01*
X90534267Y-56250436D02*
G75*
G02*
X91304503Y-57436496I-207912J-978148D01*
G01*
X88809563Y-69174267D02*
X91304503Y-57436496D01*
X83999563Y-89164267D02*
G75*
G02*
X82813503Y-89934503I-978148J207912D01*
G01*
X86494503Y-77426496D02*
X83999563Y-89164267D01*
X85724267Y-76240436D02*
G75*
G02*
X86494503Y-77426496I-207912J-978148D01*
G01*
X73986496Y-73745496D02*
X85724267Y-76240436D01*
X72800436Y-74515732D02*
G75*
G02*
X73986496Y-73745496I978148J-207912D01*
G01*
X70305496Y-86253503D02*
X72800436Y-74515732D01*
X71075732Y-87439563D02*
G75*
G02*
X70305496Y-86253503I207912J978148D01*
G01*
X82813503Y-89934503D02*
X71075732Y-87439563D01*
X26249999Y-10140000D02*
G75*
G02*
X25249999Y-9140000I0J1000000D01*
G01*
X38250000Y-10140000D02*
X26249999Y-10140000D01*
X39250000Y-9140000D02*
G75*
G02*
X38250000Y-10140000I-1000000J0D01*
G01*
X39250000Y2860000D02*
X39250000Y-9140000D01*
X38249999Y3859999D02*
G75*
G02*
X39250000Y2860000I1J-1000000D01*
G01*
X26249999Y3860000D02*
X38250000Y3860000D01*
X25249999Y2860000D02*
G75*
G02*
X26249999Y3860000I1000000J0D01*
G01*
X25249999Y-9140000D02*
X25249999Y2860000D01*
X45299999Y-10140000D02*
G75*
G02*
X44299999Y-9140000I0J1000000D01*
G01*
X57300000Y-10140000D02*
X45299999Y-10140000D01*
X58300000Y-9140000D02*
G75*
G02*
X57300000Y-10140000I-1000000J0D01*
G01*
X58300000Y2860000D02*
X58300000Y-9140000D01*
X57300000Y3860000D02*
G75*
G02*
X58300000Y2860000I0J-1000000D01*
G01*
X45299999Y3860000D02*
X57300000Y3860000D01*
X44299999Y2860000D02*
G75*
G02*
X45299999Y3860000I1000000J0D01*
G01*
X44299999Y-9140000D02*
X44299999Y2860000D01*
X83115732Y-10559563D02*
G75*
G02*
X82345496Y-9373503I207912J978148D01*
G01*
X94853503Y-13054503D02*
X83115732Y-10559563D01*
X96039563Y-12284267D02*
G75*
G02*
X94853503Y-13054503I-978148J207912D01*
G01*
X98534503Y-546496D02*
X96039563Y-12284267D01*
X97764267Y639564D02*
G75*
G02*
X98534503Y-546496I-207912J-978148D01*
G01*
X86026496Y3134503D02*
X97764267Y639563D01*
X84840436Y2364267D02*
G75*
G02*
X86026496Y3134503I978148J-207912D01*
G01*
X82345496Y-9373503D02*
X84840436Y2364267D01*
X63940000Y-8000000D02*
G75*
G02*
X62940000Y-7000000I0J1000000D01*
G01*
X75940000Y-8000000D02*
X63940000Y-8000000D01*
X76940001Y-6999999D02*
G75*
G02*
X75940000Y-8000000I-1000001J0D01*
G01*
X76940000Y5000000D02*
X76940000Y-7000000D01*
X75939999Y5999999D02*
G75*
G02*
X76940000Y5000000I1J-1000000D01*
G01*
X63940000Y6000000D02*
X75940000Y6000000D01*
X62940000Y5000000D02*
G75*
G02*
X63940000Y6000000I1000000J0D01*
G01*
X62940000Y-7000000D02*
X62940000Y5000000D01*
X101393275Y-32894985D02*
G75*
G02*
X100207215Y-33665221I-978148J207912D01*
G01*
X88469444Y-31170280D02*
X100207215Y-33665221D01*
X88469444Y-31170281D02*
G75*
G02*
X87699208Y-29984221I207912J978148D01*
G01*
X90194148Y-18246450D02*
X87699208Y-29984221D01*
X90194149Y-18246449D02*
G75*
G02*
X91380208Y-17476214I978147J-207912D01*
G01*
X103117979Y-19971154D02*
X91380208Y-17476214D01*
X103117978Y-19971154D02*
G75*
G02*
X103888215Y-21157213I-207911J-978148D01*
G01*
X101393274Y-32894985D02*
X103888215Y-21157213D01*
X63659999Y-28189999D02*
G75*
G02*
X62660000Y-29190000I-1000000J-1D01*
G01*
X50659999Y-29190000D02*
X62660000Y-29190000D01*
X50659999Y-29190000D02*
G75*
G02*
X49659999Y-28190000I0J1000000D01*
G01*
X49659999Y-16189999D02*
X49659999Y-28190000D01*
X49659999Y-16189999D02*
G75*
G02*
X50659999Y-15189999I1000000J0D01*
G01*
X62660000Y-15189999D02*
X50659999Y-15189999D01*
X62659999Y-15189998D02*
G75*
G02*
X63660000Y-16189999I0J-1000001D01*
G01*
X63660000Y-28190000D02*
X63660000Y-16189999D01*
X33400000Y-47239998D02*
G75*
G02*
X32400000Y-48240000I-1000001J-1D01*
G01*
X20400000Y-48240000D02*
X32400000Y-48240000D01*
X20400001Y-48240000D02*
G75*
G02*
X19399999Y-47240000I-1J1000001D01*
G01*
X19400000Y-35240000D02*
X19399999Y-47240000D01*
X19400000Y-35240000D02*
G75*
G02*
X20400000Y-34240000I1000000J0D01*
G01*
X32400000Y-34240000D02*
X20400000Y-34240000D01*
X32400000Y-34240000D02*
G75*
G02*
X33400000Y-35240000I0J-1000000D01*
G01*
X33400000Y-47240000D02*
X33400000Y-35240000D01*
X89169444Y-50800281D02*
G75*
G02*
X88399208Y-49614221I207912J978148D01*
G01*
X100907215Y-53295221D02*
X89169444Y-50800280D01*
X102093275Y-52524985D02*
G75*
G02*
X100907215Y-53295221I-978148J207912D01*
G01*
X104588215Y-40787213D02*
X102093274Y-52524985D01*
X103817978Y-39601154D02*
G75*
G02*
X104588215Y-40787213I-207911J-978148D01*
G01*
X92080208Y-37106214D02*
X103817979Y-39601154D01*
X90894149Y-37876449D02*
G75*
G02*
X92080208Y-37106214I978147J-207912D01*
G01*
X88399208Y-49614221D02*
X90894148Y-37876450D01*
X39849999Y-28190000D02*
G75*
G02*
X38849999Y-29190000I-1000000J0D01*
G01*
X39849999Y-16189999D02*
X39850000Y-28190000D01*
X38849999Y-15189999D02*
G75*
G02*
X39849999Y-16189999I0J-1000000D01*
G01*
X26849999Y-15189999D02*
X38849999Y-15189999D01*
X25849999Y-16189999D02*
G75*
G02*
X26849999Y-15189999I1000000J0D01*
G01*
X25849999Y-28190000D02*
X25849999Y-16189999D01*
X26849999Y-29190000D02*
G75*
G02*
X25849999Y-28190000I0J1000000D01*
G01*
X38849999Y-29190000D02*
X26849999Y-29190000D01*
X101749444Y-14520281D02*
G75*
G02*
X100979208Y-13334221I207912J978148D01*
G01*
X113487215Y-17015221D02*
X101749444Y-14520280D01*
X114673275Y-16244985D02*
G75*
G02*
X113487215Y-17015221I-978148J207912D01*
G01*
X117168215Y-4507213D02*
X114673274Y-16244985D01*
X116397978Y-3321154D02*
G75*
G02*
X117168215Y-4507213I-207911J-978148D01*
G01*
X104660208Y-826214D02*
X116397979Y-3321154D01*
X103474149Y-1596449D02*
G75*
G02*
X104660208Y-826214I978147J-207912D01*
G01*
X100979208Y-13334221D02*
X103474148Y-1596450D01*
X63360000Y-34240000D02*
G75*
G02*
X64360000Y-35240000I0J-1000000D01*
G01*
X64360000Y-47240000D02*
X64360000Y-35240000D01*
X64359999Y-47239999D02*
G75*
G02*
X63360000Y-48240000I-1000000J-1D01*
G01*
X51359999Y-48240000D02*
X63360000Y-48240000D01*
X51360000Y-48240001D02*
G75*
G02*
X50359999Y-47240000I0J1000001D01*
G01*
X50359999Y-35240000D02*
X50359999Y-47240000D01*
X50359999Y-35240000D02*
G75*
G02*
X51359999Y-34240000I1000000J0D01*
G01*
X63360000Y-34240000D02*
X51359999Y-34240000D01*
X69835732Y-27209563D02*
G75*
G02*
X69065496Y-26023503I207912J978148D01*
G01*
X81573503Y-29704503D02*
X69835732Y-27209563D01*
X82759563Y-28934267D02*
G75*
G02*
X81573503Y-29704503I-978148J207912D01*
G01*
X85254503Y-17196496D02*
X82759563Y-28934267D01*
X84484267Y-16010436D02*
G75*
G02*
X85254503Y-17196496I-207912J-978148D01*
G01*
X72746496Y-13515496D02*
X84484267Y-16010436D01*
X71560436Y-14285732D02*
G75*
G02*
X72746496Y-13515496I978148J-207912D01*
G01*
X69065496Y-26023503D02*
X71560436Y-14285732D01*
X85184267Y-35640436D02*
G75*
G02*
X85954503Y-36826496I-207912J-978148D01*
G01*
X83459563Y-48564267D02*
X85954503Y-36826496D01*
X83459563Y-48564267D02*
G75*
G02*
X82273503Y-49334503I-978148J207912D01*
G01*
X70535732Y-46839563D02*
X82273503Y-49334503D01*
X70535732Y-46839563D02*
G75*
G02*
X69765496Y-45653503I207912J978148D01*
G01*
X72260436Y-33915732D02*
X69765496Y-45653503D01*
X72260436Y-33915732D02*
G75*
G02*
X73446496Y-33145496I978148J-207912D01*
G01*
X85184267Y-35640436D02*
X73446496Y-33145496D01*
X107443275Y-73134985D02*
G75*
G02*
X106257215Y-73905221I-978148J207912D01*
G01*
X94519444Y-71410280D02*
X106257215Y-73905221D01*
X94519444Y-71410281D02*
G75*
G02*
X93749208Y-70224221I207912J978148D01*
G01*
X96244148Y-58486450D02*
X93749208Y-70224221D01*
X96244149Y-58486449D02*
G75*
G02*
X97430208Y-57716214I978147J-207912D01*
G01*
X109167979Y-60211154D02*
X97430208Y-57716214D01*
X109167978Y-60211154D02*
G75*
G02*
X109938215Y-61397213I-207911J-978148D01*
G01*
X107443274Y-73134985D02*
X109938215Y-61397213D01*
X205252784Y-73905220D02*
G75*
G02*
X204066725Y-73134985I-207912J978147D01*
G01*
X216990555Y-71410280D02*
X205252784Y-73905221D01*
X217760790Y-70224221D02*
G75*
G02*
X216990555Y-71410280I-978147J-207912D01*
G01*
X215265851Y-58486450D02*
X217760791Y-70224221D01*
X214079792Y-57716213D02*
G75*
G02*
X215265851Y-58486450I207911J-978148D01*
G01*
X202342020Y-60211154D02*
X214079791Y-57716214D01*
X201571784Y-61397214D02*
G75*
G02*
X202342020Y-60211154I978148J207912D01*
G01*
X204066725Y-73134985D02*
X201571784Y-61397213D01*
X188719071Y-18995938D02*
G75*
G02*
X187533013Y-18225702I-207911J978147D01*
G01*
X200456843Y-16500998D02*
X188719072Y-18995938D01*
X201227080Y-15314939D02*
G75*
G02*
X200456843Y-16500998I-978148J-207911D01*
G01*
X198732139Y-3577167D02*
X201227079Y-15314939D01*
X197546079Y-2806931D02*
G75*
G02*
X198732139Y-3577167I207912J-978148D01*
G01*
X185808308Y-5301872D02*
X197546080Y-2806932D01*
X185038073Y-6487931D02*
G75*
G02*
X185808308Y-5301872I978147J207912D01*
G01*
X187533013Y-18225702D02*
X185038073Y-6487931D01*
X183359071Y-39605938D02*
G75*
G02*
X182173013Y-38835702I-207911J978147D01*
G01*
X195096843Y-37110998D02*
X183359072Y-39605938D01*
X195867080Y-35924939D02*
G75*
G02*
X195096843Y-37110998I-978148J-207911D01*
G01*
X193372139Y-24187167D02*
X195867079Y-35924939D01*
X192186079Y-23416931D02*
G75*
G02*
X193372139Y-24187167I207912J-978148D01*
G01*
X180448308Y-25911872D02*
X192186080Y-23416932D01*
X179678073Y-27097931D02*
G75*
G02*
X180448308Y-25911872I978147J207912D01*
G01*
X182173013Y-38835702D02*
X179678073Y-27097931D01*
X200806079Y-41066931D02*
G75*
G02*
X201992139Y-41837167I207912J-978148D01*
G01*
X204487079Y-53574939D02*
X201992139Y-41837167D01*
X204487080Y-53574939D02*
G75*
G02*
X203716843Y-54760998I-978148J-207911D01*
G01*
X191979072Y-57255938D02*
X203716843Y-54760998D01*
X191979071Y-57255938D02*
G75*
G02*
X190793013Y-56485702I-207911J978147D01*
G01*
X188298073Y-44747931D02*
X190793013Y-56485702D01*
X188298073Y-44747931D02*
G75*
G02*
X189068308Y-43561872I978147J207912D01*
G01*
X200806080Y-41066932D02*
X189068308Y-43561872D01*
X186619071Y-77865938D02*
G75*
G02*
X185433013Y-77095702I-207911J978147D01*
G01*
X198356843Y-75370998D02*
X186619072Y-77865938D01*
X199127080Y-74184939D02*
G75*
G02*
X198356843Y-75370998I-978148J-207911D01*
G01*
X196632139Y-62447167D02*
X199127079Y-74184939D01*
X195446079Y-61676931D02*
G75*
G02*
X196632139Y-62447167I207912J-978148D01*
G01*
X183708308Y-64171872D02*
X195446080Y-61676932D01*
X182938073Y-65357931D02*
G75*
G02*
X183708308Y-64171872I978147J207912D01*
G01*
X185433013Y-77095702D02*
X182938073Y-65357931D01*
X182172368Y-45027650D02*
G75*
G02*
X183358427Y-45797885I207912J-978147D01*
G01*
X185853367Y-57535656D02*
X183358427Y-45797885D01*
X185853368Y-57535656D02*
G75*
G02*
X185083132Y-58721716I-978148J-207912D01*
G01*
X173345360Y-61216656D02*
X185083132Y-58721716D01*
X173345361Y-61216656D02*
G75*
G02*
X172159301Y-60446420I-207912J978148D01*
G01*
X169664361Y-48708649D02*
X172159301Y-60446420D01*
X169664361Y-48708648D02*
G75*
G02*
X170434597Y-47522590I978147J207911D01*
G01*
X182172368Y-45027649D02*
X170434597Y-47522590D01*
X178912368Y-6767650D02*
G75*
G02*
X180098427Y-7537885I207912J-978147D01*
G01*
X182593367Y-19275656D02*
X180098427Y-7537885D01*
X182593368Y-19275656D02*
G75*
G02*
X181823132Y-20461716I-978148J-207912D01*
G01*
X170085360Y-22956656D02*
X181823132Y-20461716D01*
X170085361Y-22956656D02*
G75*
G02*
X168899301Y-22186420I-207912J978148D01*
G01*
X166404361Y-10448649D02*
X168899301Y-22186420D01*
X166404361Y-10448648D02*
G75*
G02*
X167174597Y-9262590I978147J207911D01*
G01*
X178912368Y-6767649D02*
X167174597Y-9262590D01*
X173552368Y-27377650D02*
G75*
G02*
X174738427Y-28147885I207912J-978147D01*
G01*
X177233367Y-39885656D02*
X174738427Y-28147885D01*
X177233368Y-39885656D02*
G75*
G02*
X176463132Y-41071716I-978148J-207912D01*
G01*
X164725360Y-43566656D02*
X176463132Y-41071716D01*
X164725361Y-43566656D02*
G75*
G02*
X163539301Y-42796420I-207912J978148D01*
G01*
X161044361Y-31058649D02*
X163539301Y-42796420D01*
X161044361Y-31058648D02*
G75*
G02*
X161814597Y-29872590I978147J207911D01*
G01*
X173552368Y-27377649D02*
X161814597Y-29872590D01*
D10*
X120987748Y2241859D02*
G75*
G03*
X120987748Y2241859I-1750000J0D01*
G01*
X201933048Y3922323D02*
G75*
G03*
X201933048Y3922323I-1750000J0D01*
G01*
X10980000Y11779999D02*
G75*
G03*
X10980000Y11779999I-1750000J0D01*
G01*
X313758750Y-92119999D02*
G75*
G03*
X313758750Y-92119999I-1750000J0D01*
G01*
X10980000Y-92119999D02*
G75*
G03*
X10980000Y-92119999I-1750000J0D01*
G01*
X313758750Y11779999D02*
G75*
G03*
X313758750Y11779999I-1750000J0D01*
G01*
D11*
X167985361Y-81826656D02*
G75*
G02*
X166799301Y-81056420I-207912J978148D01*
G01*
X179723132Y-79331716D02*
X167985360Y-81826656D01*
X180493368Y-78145656D02*
G75*
G02*
X179723132Y-79331716I-978148J-207912D01*
G01*
X177998427Y-66407885D02*
X180493367Y-78145656D01*
X176812368Y-65637650D02*
G75*
G02*
X177998427Y-66407885I207912J-978147D01*
G01*
X165074597Y-68132590D02*
X176812368Y-65637649D01*
X164304361Y-69318648D02*
G75*
G02*
X165074597Y-68132590I978147J207911D01*
G01*
X166799301Y-81056420D02*
X164304361Y-69318649D01*
X120383156Y-18480997D02*
G75*
G02*
X119612920Y-17294939I207911J978147D01*
G01*
X132120927Y-20975938D02*
X120383156Y-18480998D01*
X133306986Y-20205703D02*
G75*
G02*
X132120927Y-20975938I-978147J207912D01*
G01*
X135801926Y-8467931D02*
X133306986Y-20205702D01*
X135031691Y-7281872D02*
G75*
G02*
X135801926Y-8467931I-207912J-978147D01*
G01*
X123293919Y-4786932D02*
X135031691Y-7281872D01*
X122107861Y-5557168D02*
G75*
G02*
X123293919Y-4786932I978147J-207911D01*
G01*
X119612920Y-17294939D02*
X122107860Y-5557167D01*
X200794503Y-93313503D02*
G75*
G02*
X200024267Y-94499563I-978148J-207912D01*
G01*
X198299563Y-81575732D02*
X200794503Y-93313503D01*
X197113503Y-80805496D02*
G75*
G02*
X198299563Y-81575732I207912J-978148D01*
G01*
X185375732Y-83300436D02*
X197113503Y-80805496D01*
X184605496Y-84486496D02*
G75*
G02*
X185375732Y-83300436I978148J207912D01*
G01*
X187100436Y-96224267D02*
X184605496Y-84486496D01*
X188286496Y-96994503D02*
G75*
G02*
X187100436Y-96224267I-207912J978148D01*
G01*
X200024267Y-94499563D02*
X188286496Y-96994503D01*
X207352784Y-15035220D02*
G75*
G02*
X206166725Y-14264985I-207912J978147D01*
G01*
X219090555Y-12540280D02*
X207352784Y-15035221D01*
X219860790Y-11354221D02*
G75*
G02*
X219090555Y-12540280I-978147J-207912D01*
G01*
X217365851Y383549D02*
X219860791Y-11354221D01*
X216179792Y1153786D02*
G75*
G02*
X217365851Y383549I207911J-978148D01*
G01*
X204442020Y-1341154D02*
X216179791Y1153785D01*
X203671784Y-2527214D02*
G75*
G02*
X204442020Y-1341154I978148J207912D01*
G01*
X206166725Y-14264985D02*
X203671784Y-2527213D01*
X201992784Y-35645220D02*
G75*
G02*
X200806725Y-34874985I-207912J978147D01*
G01*
X213730555Y-33150280D02*
X201992784Y-35645221D01*
X214500790Y-31964221D02*
G75*
G02*
X213730555Y-33150280I-978147J-207912D01*
G01*
X212005851Y-20226450D02*
X214500791Y-31964221D01*
X210819792Y-19456213D02*
G75*
G02*
X212005851Y-20226450I207911J-978148D01*
G01*
X199082020Y-21951154D02*
X210819791Y-19456214D01*
X198311784Y-23137214D02*
G75*
G02*
X199082020Y-21951154I978148J207912D01*
G01*
X200806725Y-34874985D02*
X198311784Y-23137213D01*
X223120790Y-49614221D02*
G75*
G02*
X222350555Y-50800280I-978147J-207912D01*
G01*
X210612784Y-53295221D02*
X222350555Y-50800280D01*
X210612784Y-53295220D02*
G75*
G02*
X209426725Y-52524985I-207912J978147D01*
G01*
X206931784Y-40787213D02*
X209426725Y-52524985D01*
X206931784Y-40787214D02*
G75*
G02*
X207702020Y-39601154I978148J207912D01*
G01*
X219439791Y-37106214D02*
X207702020Y-39601154D01*
X219439792Y-37106213D02*
G75*
G02*
X220625851Y-37876450I207911J-978148D01*
G01*
X223120791Y-49614221D02*
X220625851Y-37876450D01*
X236394503Y-66263503D02*
G75*
G02*
X235624267Y-67449563I-978148J-207912D01*
G01*
X233899563Y-54525732D02*
X236394503Y-66263503D01*
X232713503Y-53755496D02*
G75*
G02*
X233899563Y-54525732I207912J-978148D01*
G01*
X220975732Y-56250436D02*
X232713503Y-53755496D01*
X220205496Y-57436496D02*
G75*
G02*
X220975732Y-56250436I978148J207912D01*
G01*
X222700436Y-69174267D02*
X220205496Y-57436496D01*
X223886496Y-69944503D02*
G75*
G02*
X222700436Y-69174267I-207912J978148D01*
G01*
X235624267Y-67449563D02*
X223886496Y-69944503D01*
X237523503Y-73745496D02*
G75*
G02*
X238709563Y-74515732I207912J-978148D01*
G01*
X241204503Y-86253503D02*
X238709563Y-74515732D01*
X241204503Y-86253503D02*
G75*
G02*
X240434267Y-87439563I-978148J-207912D01*
G01*
X228696496Y-89934503D02*
X240434267Y-87439563D01*
X228696496Y-89934503D02*
G75*
G02*
X227510436Y-89164267I-207912J978148D01*
G01*
X225015496Y-77426496D02*
X227510436Y-89164267D01*
X225015496Y-77426496D02*
G75*
G02*
X225785732Y-76240436I978148J207912D01*
G01*
X237523503Y-73745496D02*
X225785732Y-76240436D01*
X113153156Y-75370997D02*
G75*
G02*
X112382920Y-74184939I207911J978147D01*
G01*
X124890927Y-77865938D02*
X113153156Y-75370998D01*
X126076986Y-77095703D02*
G75*
G02*
X124890927Y-77865938I-978147J207912D01*
G01*
X128571926Y-65357931D02*
X126076986Y-77095702D01*
X127801691Y-64171872D02*
G75*
G02*
X128571926Y-65357931I-207912J-978147D01*
G01*
X116063919Y-61676932D02*
X127801691Y-64171872D01*
X114877861Y-62447168D02*
G75*
G02*
X116063919Y-61676932I978147J-207911D01*
G01*
X112382920Y-74184939D02*
X114877860Y-62447167D01*
X107803156Y-54760997D02*
G75*
G02*
X107032920Y-53574939I207911J978147D01*
G01*
X119540927Y-57255938D02*
X107803156Y-54760998D01*
X120726986Y-56485703D02*
G75*
G02*
X119540927Y-57255938I-978147J207912D01*
G01*
X123221926Y-44747931D02*
X120726986Y-56485702D01*
X122451691Y-43561872D02*
G75*
G02*
X123221926Y-44747931I-207912J-978147D01*
G01*
X110713919Y-41066932D02*
X122451691Y-43561872D01*
X109527861Y-41837168D02*
G75*
G02*
X110713919Y-41066932I978147J-207911D01*
G01*
X107032920Y-53574939D02*
X109527860Y-41837167D01*
X120026986Y-36855703D02*
G75*
G02*
X118840927Y-37625938I-978147J207912D01*
G01*
X122521926Y-25117931D02*
X120026986Y-36855702D01*
X121751691Y-23931872D02*
G75*
G02*
X122521926Y-25117931I-207912J-978147D01*
G01*
X110013919Y-21436932D02*
X121751691Y-23931872D01*
X108827861Y-22207168D02*
G75*
G02*
X110013919Y-21436932I978147J-207911D01*
G01*
X106332920Y-33944939D02*
X108827860Y-22207167D01*
X107103156Y-35130997D02*
G75*
G02*
X106332920Y-33944939I207911J978147D01*
G01*
X118840927Y-37625938D02*
X107103156Y-35130998D01*
X241754503Y-45653503D02*
G75*
G02*
X240984267Y-46839563I-978148J-207912D01*
G01*
X229246496Y-49334503D02*
X240984267Y-46839563D01*
X229246496Y-49334503D02*
G75*
G02*
X228060436Y-48564267I-207912J978148D01*
G01*
X225565496Y-36826496D02*
X228060436Y-48564267D01*
X225565496Y-36826496D02*
G75*
G02*
X226335732Y-35640436I978148J207912D01*
G01*
X238073503Y-33145496D02*
X226335732Y-35640436D01*
X238073503Y-33145496D02*
G75*
G02*
X239259563Y-33915732I207912J-978148D01*
G01*
X241754503Y-45653503D02*
X239259563Y-33915732D01*
X139016867Y-22441715D02*
G75*
G02*
X138246632Y-21255656I207912J978147D01*
G01*
X150754639Y-24936656D02*
X139016867Y-22441716D01*
X151940698Y-24166419D02*
G75*
G02*
X150754639Y-24936656I-978148J207911D01*
G01*
X154435638Y-12428649D02*
X151940698Y-24166420D01*
X153665403Y-11242590D02*
G75*
G02*
X154435638Y-12428649I-207912J-978147D01*
G01*
X141927631Y-8747649D02*
X153665402Y-11242590D01*
X140741571Y-9517885D02*
G75*
G02*
X141927631Y-8747649I978148J-207912D01*
G01*
X138246632Y-21255656D02*
X140741572Y-9517885D01*
X125736867Y-39091715D02*
G75*
G02*
X124966632Y-37905656I207912J978147D01*
G01*
X137474639Y-41586656D02*
X125736867Y-39091716D01*
X138660698Y-40816419D02*
G75*
G02*
X137474639Y-41586656I-978148J207911D01*
G01*
X141155638Y-29078649D02*
X138660698Y-40816420D01*
X140385403Y-27892590D02*
G75*
G02*
X141155638Y-29078649I-207912J-978147D01*
G01*
X128647631Y-25397649D02*
X140385402Y-27892590D01*
X127461571Y-26167885D02*
G75*
G02*
X128647631Y-25397649I978148J-207912D01*
G01*
X124966632Y-37905656D02*
X127461572Y-26167885D01*
X139360698Y-60446419D02*
G75*
G02*
X138174639Y-61216656I-978148J207911D01*
G01*
X141855638Y-48708649D02*
X139360698Y-60446420D01*
X141085403Y-47522590D02*
G75*
G02*
X141855638Y-48708649I-207912J-978147D01*
G01*
X129347631Y-45027649D02*
X141085402Y-47522590D01*
X128161571Y-45797885D02*
G75*
G02*
X129347631Y-45027649I978148J-207912D01*
G01*
X125666632Y-57535656D02*
X128161572Y-45797885D01*
X126436867Y-58721715D02*
G75*
G02*
X125666632Y-57535656I207912J978147D01*
G01*
X138174639Y-61216656D02*
X126436867Y-58721716D01*
X131786867Y-79331715D02*
G75*
G02*
X131016632Y-78145656I207912J978147D01*
G01*
X143524639Y-81826656D02*
X131786867Y-79331716D01*
X144710698Y-81056419D02*
G75*
G02*
X143524639Y-81826656I-978148J207911D01*
G01*
X147205638Y-69318649D02*
X144710698Y-81056420D01*
X146435403Y-68132590D02*
G75*
G02*
X147205638Y-69318649I-207912J-978147D01*
G01*
X134697631Y-65637649D02*
X146435402Y-68132590D01*
X133511571Y-66407885D02*
G75*
G02*
X134697631Y-65637649I978148J-207912D01*
G01*
X131016632Y-78145656D02*
X133511572Y-66407885D01*
X220626496Y-31684503D02*
G75*
G02*
X219440436Y-30914267I-207912J978148D01*
G01*
X232364267Y-29189563D02*
X220626496Y-31684503D01*
X233134503Y-28003503D02*
G75*
G02*
X232364267Y-29189563I-978148J-207912D01*
G01*
X230639563Y-16265732D02*
X233134503Y-28003503D01*
X229453503Y-15495496D02*
G75*
G02*
X230639563Y-16265732I207912J-978148D01*
G01*
X217715732Y-17990436D02*
X229453503Y-15495496D01*
X216945496Y-19176496D02*
G75*
G02*
X217715732Y-17990436I978148J207912D01*
G01*
X219440436Y-30914267D02*
X216945496Y-19176496D01*
X238494503Y-7393503D02*
G75*
G02*
X237724267Y-8579563I-978148J-207912D01*
G01*
X225986496Y-11074503D02*
X237724267Y-8579563D01*
X225986496Y-11074503D02*
G75*
G02*
X224800436Y-10304267I-207912J978148D01*
G01*
X222305496Y1433503D02*
X224800436Y-10304267D01*
X222305496Y1433503D02*
G75*
G02*
X223075732Y2619563I978148J207912D01*
G01*
X234813503Y5114503D02*
X223075732Y2619563D01*
X234813503Y5114503D02*
G75*
G02*
X235999563Y4344267I207912J-978148D01*
G01*
X238494503Y-7393503D02*
X235999563Y4344267D01*
D12*
%TO.C,G\u002A\u002A\u002A*%
G36*
X52434067Y-72017467D02*
G01*
X58157533Y-72017467D01*
X58157533Y-77740933D01*
X60536667Y-77740933D01*
X60536667Y-78469067D01*
X58157533Y-78469067D01*
X58157533Y-84192533D01*
X52434067Y-84192533D01*
X52434067Y-86571667D01*
X51705933Y-86571667D01*
X51705933Y-84192533D01*
X45982467Y-84192533D01*
X45982467Y-78469067D01*
X43603334Y-78469067D01*
X43603334Y-77740933D01*
X45982467Y-77740933D01*
X45982467Y-72745600D01*
X46710600Y-72745600D01*
X46710600Y-83464400D01*
X57429400Y-83464400D01*
X57429400Y-72745600D01*
X46710600Y-72745600D01*
X45982467Y-72745600D01*
X45982467Y-72017467D01*
X51705933Y-72017467D01*
X51705933Y-69638334D01*
X52434067Y-69638334D01*
X52434067Y-72017467D01*
G37*
X52434067Y-72017467D02*
X58157533Y-72017467D01*
X58157533Y-77740933D01*
X60536667Y-77740933D01*
X60536667Y-78469067D01*
X58157533Y-78469067D01*
X58157533Y-84192533D01*
X52434067Y-84192533D01*
X52434067Y-86571667D01*
X51705933Y-86571667D01*
X51705933Y-84192533D01*
X45982467Y-84192533D01*
X45982467Y-78469067D01*
X43603334Y-78469067D01*
X43603334Y-77740933D01*
X45982467Y-77740933D01*
X45982467Y-72745600D01*
X46710600Y-72745600D01*
X46710600Y-83464400D01*
X57429400Y-83464400D01*
X57429400Y-72745600D01*
X46710600Y-72745600D01*
X45982467Y-72745600D01*
X45982467Y-72017467D01*
X51705933Y-72017467D01*
X51705933Y-69638334D01*
X52434067Y-69638334D01*
X52434067Y-72017467D01*
G36*
X55134934Y-79264934D02*
G01*
X56345667Y-79264934D01*
X56345667Y-80238600D01*
X55134934Y-80238600D01*
X55134816Y-80371950D01*
X55133479Y-80480587D01*
X55129815Y-80596399D01*
X55124069Y-80715851D01*
X55116489Y-80835404D01*
X55107320Y-80951520D01*
X55096809Y-81060663D01*
X55085201Y-81159294D01*
X55075141Y-81229200D01*
X55052239Y-81349850D01*
X55021736Y-81474810D01*
X54985012Y-81599692D01*
X54943451Y-81720111D01*
X54898433Y-81831678D01*
X54859134Y-81915000D01*
X54785670Y-82046045D01*
X54703816Y-82166750D01*
X54610588Y-82281176D01*
X54520334Y-82376378D01*
X54420783Y-82465987D01*
X54313574Y-82544515D01*
X54197414Y-82612572D01*
X54071008Y-82670769D01*
X53933062Y-82719717D01*
X53782284Y-82760027D01*
X53651548Y-82786466D01*
X53605910Y-82794546D01*
X53574270Y-82799814D01*
X53553922Y-82802236D01*
X53542160Y-82801778D01*
X53536278Y-82798406D01*
X53533570Y-82792084D01*
X53531888Y-82784950D01*
X53528158Y-82768767D01*
X53521459Y-82738633D01*
X53512173Y-82696330D01*
X53500684Y-82643641D01*
X53487375Y-82582349D01*
X53472629Y-82514236D01*
X53456829Y-82441086D01*
X53440358Y-82364680D01*
X53423601Y-82286802D01*
X53406939Y-82209235D01*
X53390756Y-82133760D01*
X53375436Y-82062161D01*
X53361362Y-81996221D01*
X53348916Y-81937721D01*
X53338483Y-81888446D01*
X53330445Y-81850177D01*
X53325186Y-81824697D01*
X53323088Y-81813789D01*
X53323067Y-81813557D01*
X53331369Y-81810080D01*
X53355654Y-81807429D01*
X53394987Y-81805663D01*
X53448436Y-81804840D01*
X53464884Y-81804786D01*
X53554675Y-81802765D01*
X53630563Y-81796354D01*
X53695198Y-81784727D01*
X53751230Y-81767057D01*
X53801311Y-81742519D01*
X53848091Y-81710287D01*
X53891981Y-81671699D01*
X53961568Y-81595877D01*
X54020398Y-81512036D01*
X54069668Y-81418037D01*
X54110575Y-81311743D01*
X54130411Y-81245552D01*
X54149681Y-81167529D01*
X54165685Y-81085447D01*
X54178605Y-80997364D01*
X54188624Y-80901338D01*
X54195922Y-80795429D01*
X54200682Y-80677694D01*
X54203085Y-80546191D01*
X54203469Y-80465084D01*
X54203600Y-80238600D01*
X52992867Y-80238600D01*
X52992867Y-79264934D01*
X54203600Y-79264934D01*
X54203600Y-78248934D01*
X55134934Y-78248934D01*
X55134934Y-79264934D01*
G37*
X55134934Y-79264934D02*
X56345667Y-79264934D01*
X56345667Y-80238600D01*
X55134934Y-80238600D01*
X55134816Y-80371950D01*
X55133479Y-80480587D01*
X55129815Y-80596399D01*
X55124069Y-80715851D01*
X55116489Y-80835404D01*
X55107320Y-80951520D01*
X55096809Y-81060663D01*
X55085201Y-81159294D01*
X55075141Y-81229200D01*
X55052239Y-81349850D01*
X55021736Y-81474810D01*
X54985012Y-81599692D01*
X54943451Y-81720111D01*
X54898433Y-81831678D01*
X54859134Y-81915000D01*
X54785670Y-82046045D01*
X54703816Y-82166750D01*
X54610588Y-82281176D01*
X54520334Y-82376378D01*
X54420783Y-82465987D01*
X54313574Y-82544515D01*
X54197414Y-82612572D01*
X54071008Y-82670769D01*
X53933062Y-82719717D01*
X53782284Y-82760027D01*
X53651548Y-82786466D01*
X53605910Y-82794546D01*
X53574270Y-82799814D01*
X53553922Y-82802236D01*
X53542160Y-82801778D01*
X53536278Y-82798406D01*
X53533570Y-82792084D01*
X53531888Y-82784950D01*
X53528158Y-82768767D01*
X53521459Y-82738633D01*
X53512173Y-82696330D01*
X53500684Y-82643641D01*
X53487375Y-82582349D01*
X53472629Y-82514236D01*
X53456829Y-82441086D01*
X53440358Y-82364680D01*
X53423601Y-82286802D01*
X53406939Y-82209235D01*
X53390756Y-82133760D01*
X53375436Y-82062161D01*
X53361362Y-81996221D01*
X53348916Y-81937721D01*
X53338483Y-81888446D01*
X53330445Y-81850177D01*
X53325186Y-81824697D01*
X53323088Y-81813789D01*
X53323067Y-81813557D01*
X53331369Y-81810080D01*
X53355654Y-81807429D01*
X53394987Y-81805663D01*
X53448436Y-81804840D01*
X53464884Y-81804786D01*
X53554675Y-81802765D01*
X53630563Y-81796354D01*
X53695198Y-81784727D01*
X53751230Y-81767057D01*
X53801311Y-81742519D01*
X53848091Y-81710287D01*
X53891981Y-81671699D01*
X53961568Y-81595877D01*
X54020398Y-81512036D01*
X54069668Y-81418037D01*
X54110575Y-81311743D01*
X54130411Y-81245552D01*
X54149681Y-81167529D01*
X54165685Y-81085447D01*
X54178605Y-80997364D01*
X54188624Y-80901338D01*
X54195922Y-80795429D01*
X54200682Y-80677694D01*
X54203085Y-80546191D01*
X54203469Y-80465084D01*
X54203600Y-80238600D01*
X52992867Y-80238600D01*
X52992867Y-79264934D01*
X54203600Y-79264934D01*
X54203600Y-78248934D01*
X55134934Y-78248934D01*
X55134934Y-79264934D01*
G36*
X50251762Y-79868184D02*
G01*
X50253900Y-81487434D01*
X50510017Y-81489674D01*
X50766133Y-81491915D01*
X50766133Y-79197200D01*
X51689000Y-79197200D01*
X51689000Y-82736267D01*
X50766133Y-82736267D01*
X50766133Y-82456867D01*
X48810334Y-82456867D01*
X48810334Y-82736267D01*
X47887467Y-82736267D01*
X47887467Y-79197200D01*
X48810334Y-79197200D01*
X48810334Y-81491667D01*
X49326800Y-81491667D01*
X49326800Y-78248934D01*
X50249623Y-78248934D01*
X50251762Y-79868184D01*
G37*
X50251762Y-79868184D02*
X50253900Y-81487434D01*
X50510017Y-81489674D01*
X50766133Y-81491915D01*
X50766133Y-79197200D01*
X51689000Y-79197200D01*
X51689000Y-82736267D01*
X50766133Y-82736267D01*
X50766133Y-82456867D01*
X48810334Y-82456867D01*
X48810334Y-82736267D01*
X47887467Y-82736267D01*
X47887467Y-79197200D01*
X48810334Y-79197200D01*
X48810334Y-81491667D01*
X49326800Y-81491667D01*
X49326800Y-78248934D01*
X50249623Y-78248934D01*
X50251762Y-79868184D01*
G36*
X52157044Y-77653594D02*
G01*
X52238281Y-77676498D01*
X52312327Y-77712980D01*
X52377801Y-77761658D01*
X52433317Y-77821147D01*
X52477492Y-77890063D01*
X52508944Y-77967024D01*
X52526287Y-78050646D01*
X52529349Y-78105000D01*
X52521362Y-78193754D01*
X52497605Y-78276630D01*
X52458383Y-78352886D01*
X52403998Y-78421784D01*
X52395496Y-78430496D01*
X52329223Y-78485287D01*
X52254586Y-78526581D01*
X52174092Y-78553536D01*
X52090247Y-78565309D01*
X52006900Y-78561254D01*
X51921421Y-78541459D01*
X51845068Y-78507858D01*
X51775958Y-78459514D01*
X51744504Y-78430496D01*
X51688092Y-78362650D01*
X51646802Y-78287345D01*
X51620936Y-78205322D01*
X51610799Y-78117320D01*
X51610652Y-78105000D01*
X51618594Y-78017957D01*
X51641498Y-77936720D01*
X51677980Y-77862673D01*
X51726658Y-77797200D01*
X51786147Y-77741683D01*
X51855063Y-77697508D01*
X51932024Y-77666057D01*
X52015646Y-77648713D01*
X52070000Y-77645652D01*
X52157044Y-77653594D01*
G37*
X52157044Y-77653594D02*
X52238281Y-77676498D01*
X52312327Y-77712980D01*
X52377801Y-77761658D01*
X52433317Y-77821147D01*
X52477492Y-77890063D01*
X52508944Y-77967024D01*
X52526287Y-78050646D01*
X52529349Y-78105000D01*
X52521362Y-78193754D01*
X52497605Y-78276630D01*
X52458383Y-78352886D01*
X52403998Y-78421784D01*
X52395496Y-78430496D01*
X52329223Y-78485287D01*
X52254586Y-78526581D01*
X52174092Y-78553536D01*
X52090247Y-78565309D01*
X52006900Y-78561254D01*
X51921421Y-78541459D01*
X51845068Y-78507858D01*
X51775958Y-78459514D01*
X51744504Y-78430496D01*
X51688092Y-78362650D01*
X51646802Y-78287345D01*
X51620936Y-78205322D01*
X51610799Y-78117320D01*
X51610652Y-78105000D01*
X51618594Y-78017957D01*
X51641498Y-77936720D01*
X51677980Y-77862673D01*
X51726658Y-77797200D01*
X51786147Y-77741683D01*
X51855063Y-77697508D01*
X51932024Y-77666057D01*
X52015646Y-77648713D01*
X52070000Y-77645652D01*
X52157044Y-77653594D01*
G36*
X54260750Y-73423029D02*
G01*
X55901167Y-73423124D01*
X56059382Y-73856613D01*
X56217597Y-74290103D01*
X56161775Y-74382751D01*
X56008939Y-74621948D01*
X55847380Y-74846690D01*
X55677126Y-75056943D01*
X55498202Y-75252673D01*
X55457021Y-75294438D01*
X55332914Y-75413446D01*
X55211101Y-75519242D01*
X55087908Y-75614461D01*
X54959661Y-75701738D01*
X54822687Y-75783707D01*
X54673312Y-75863004D01*
X54643867Y-75877670D01*
X54597463Y-75899887D01*
X54545706Y-75923519D01*
X54490881Y-75947640D01*
X54435273Y-75971326D01*
X54381167Y-75993650D01*
X54330850Y-76013687D01*
X54286606Y-76030510D01*
X54250721Y-76043196D01*
X54225480Y-76050817D01*
X54213168Y-76052448D01*
X54212774Y-76052271D01*
X54207236Y-76042713D01*
X54199022Y-76021651D01*
X54191006Y-75997150D01*
X54182697Y-75971135D01*
X54176229Y-75953504D01*
X54173167Y-75948211D01*
X54170689Y-75956832D01*
X54165288Y-75979249D01*
X54157599Y-76012703D01*
X54148260Y-76054434D01*
X54140430Y-76090082D01*
X54081919Y-76336675D01*
X54016913Y-76568857D01*
X53944931Y-76788045D01*
X53865493Y-76995658D01*
X53778119Y-77193113D01*
X53741602Y-77268047D01*
X53716733Y-77316930D01*
X53689123Y-77369825D01*
X53660337Y-77423870D01*
X53631938Y-77476201D01*
X53605490Y-77523956D01*
X53582558Y-77564271D01*
X53564704Y-77594284D01*
X53556355Y-77607212D01*
X53553047Y-77609721D01*
X53547039Y-77610093D01*
X53537174Y-77607753D01*
X53522297Y-77602125D01*
X53501251Y-77592634D01*
X53472882Y-77578703D01*
X53436033Y-77559758D01*
X53389548Y-77535223D01*
X53332272Y-77504523D01*
X53263048Y-77467081D01*
X53180722Y-77422323D01*
X53134962Y-77397390D01*
X52723564Y-77173123D01*
X52804158Y-77040045D01*
X52902221Y-76866643D01*
X52989974Y-76686900D01*
X53067867Y-76499455D01*
X53136353Y-76302943D01*
X53195883Y-76096004D01*
X53246908Y-75877274D01*
X53289881Y-75645390D01*
X53309900Y-75514200D01*
X53323605Y-75407756D01*
X53336292Y-75290076D01*
X53347646Y-75165488D01*
X53357350Y-75038319D01*
X53365088Y-74912897D01*
X53370542Y-74793552D01*
X53373398Y-74684611D01*
X53373750Y-74640670D01*
X53373867Y-74550306D01*
X53435250Y-74554212D01*
X53457756Y-74555472D01*
X53494085Y-74557295D01*
X53542157Y-74559591D01*
X53599895Y-74562269D01*
X53665218Y-74565239D01*
X53736047Y-74568411D01*
X53810305Y-74571694D01*
X53885911Y-74574997D01*
X53960787Y-74578230D01*
X54032853Y-74581304D01*
X54100032Y-74584126D01*
X54160243Y-74586608D01*
X54211407Y-74588658D01*
X54251446Y-74590186D01*
X54278281Y-74591102D01*
X54288744Y-74591334D01*
X54316066Y-74591334D01*
X54310528Y-74695050D01*
X54307694Y-74746949D01*
X54304491Y-74803773D01*
X54301385Y-74857327D01*
X54299605Y-74887068D01*
X54294219Y-74975369D01*
X54344160Y-74947466D01*
X54403219Y-74912514D01*
X54469962Y-74869767D01*
X54539376Y-74822634D01*
X54606448Y-74774524D01*
X54666165Y-74728845D01*
X54669267Y-74726366D01*
X54704324Y-74697020D01*
X54745193Y-74660781D01*
X54789404Y-74620049D01*
X54834486Y-74577221D01*
X54877969Y-74534697D01*
X54917384Y-74494874D01*
X54950259Y-74460151D01*
X54974126Y-74432927D01*
X54982119Y-74422583D01*
X55000620Y-74396600D01*
X52620334Y-74396600D01*
X52620334Y-73422933D01*
X54260750Y-73423029D01*
G37*
X54260750Y-73423029D02*
X55901167Y-73423124D01*
X56059382Y-73856613D01*
X56217597Y-74290103D01*
X56161775Y-74382751D01*
X56008939Y-74621948D01*
X55847380Y-74846690D01*
X55677126Y-75056943D01*
X55498202Y-75252673D01*
X55457021Y-75294438D01*
X55332914Y-75413446D01*
X55211101Y-75519242D01*
X55087908Y-75614461D01*
X54959661Y-75701738D01*
X54822687Y-75783707D01*
X54673312Y-75863004D01*
X54643867Y-75877670D01*
X54597463Y-75899887D01*
X54545706Y-75923519D01*
X54490881Y-75947640D01*
X54435273Y-75971326D01*
X54381167Y-75993650D01*
X54330850Y-76013687D01*
X54286606Y-76030510D01*
X54250721Y-76043196D01*
X54225480Y-76050817D01*
X54213168Y-76052448D01*
X54212774Y-76052271D01*
X54207236Y-76042713D01*
X54199022Y-76021651D01*
X54191006Y-75997150D01*
X54182697Y-75971135D01*
X54176229Y-75953504D01*
X54173167Y-75948211D01*
X54170689Y-75956832D01*
X54165288Y-75979249D01*
X54157599Y-76012703D01*
X54148260Y-76054434D01*
X54140430Y-76090082D01*
X54081919Y-76336675D01*
X54016913Y-76568857D01*
X53944931Y-76788045D01*
X53865493Y-76995658D01*
X53778119Y-77193113D01*
X53741602Y-77268047D01*
X53716733Y-77316930D01*
X53689123Y-77369825D01*
X53660337Y-77423870D01*
X53631938Y-77476201D01*
X53605490Y-77523956D01*
X53582558Y-77564271D01*
X53564704Y-77594284D01*
X53556355Y-77607212D01*
X53553047Y-77609721D01*
X53547039Y-77610093D01*
X53537174Y-77607753D01*
X53522297Y-77602125D01*
X53501251Y-77592634D01*
X53472882Y-77578703D01*
X53436033Y-77559758D01*
X53389548Y-77535223D01*
X53332272Y-77504523D01*
X53263048Y-77467081D01*
X53180722Y-77422323D01*
X53134962Y-77397390D01*
X52723564Y-77173123D01*
X52804158Y-77040045D01*
X52902221Y-76866643D01*
X52989974Y-76686900D01*
X53067867Y-76499455D01*
X53136353Y-76302943D01*
X53195883Y-76096004D01*
X53246908Y-75877274D01*
X53289881Y-75645390D01*
X53309900Y-75514200D01*
X53323605Y-75407756D01*
X53336292Y-75290076D01*
X53347646Y-75165488D01*
X53357350Y-75038319D01*
X53365088Y-74912897D01*
X53370542Y-74793552D01*
X53373398Y-74684611D01*
X53373750Y-74640670D01*
X53373867Y-74550306D01*
X53435250Y-74554212D01*
X53457756Y-74555472D01*
X53494085Y-74557295D01*
X53542157Y-74559591D01*
X53599895Y-74562269D01*
X53665218Y-74565239D01*
X53736047Y-74568411D01*
X53810305Y-74571694D01*
X53885911Y-74574997D01*
X53960787Y-74578230D01*
X54032853Y-74581304D01*
X54100032Y-74584126D01*
X54160243Y-74586608D01*
X54211407Y-74588658D01*
X54251446Y-74590186D01*
X54278281Y-74591102D01*
X54288744Y-74591334D01*
X54316066Y-74591334D01*
X54310528Y-74695050D01*
X54307694Y-74746949D01*
X54304491Y-74803773D01*
X54301385Y-74857327D01*
X54299605Y-74887068D01*
X54294219Y-74975369D01*
X54344160Y-74947466D01*
X54403219Y-74912514D01*
X54469962Y-74869767D01*
X54539376Y-74822634D01*
X54606448Y-74774524D01*
X54666165Y-74728845D01*
X54669267Y-74726366D01*
X54704324Y-74697020D01*
X54745193Y-74660781D01*
X54789404Y-74620049D01*
X54834486Y-74577221D01*
X54877969Y-74534697D01*
X54917384Y-74494874D01*
X54950259Y-74460151D01*
X54974126Y-74432927D01*
X54982119Y-74422583D01*
X55000620Y-74396600D01*
X52620334Y-74396600D01*
X52620334Y-73422933D01*
X54260750Y-73423029D01*
G36*
X51062467Y-74396600D02*
G01*
X50063400Y-74396600D01*
X50063400Y-76564067D01*
X51409600Y-76564067D01*
X51409600Y-77529267D01*
X47794333Y-77529267D01*
X47794333Y-76564067D01*
X49132067Y-76564067D01*
X49132067Y-74396600D01*
X48141467Y-74396600D01*
X48141467Y-73422933D01*
X51062467Y-73422933D01*
X51062467Y-74396600D01*
G37*
X51062467Y-74396600D02*
X50063400Y-74396600D01*
X50063400Y-76564067D01*
X51409600Y-76564067D01*
X51409600Y-77529267D01*
X47794333Y-77529267D01*
X47794333Y-76564067D01*
X49132067Y-76564067D01*
X49132067Y-74396600D01*
X48141467Y-74396600D01*
X48141467Y-73422933D01*
X51062467Y-73422933D01*
X51062467Y-74396600D01*
G36*
X282876324Y-71783208D02*
G01*
X283010521Y-71812510D01*
X283126189Y-71870406D01*
X283182852Y-71913541D01*
X283276475Y-72021330D01*
X283339659Y-72158067D01*
X283372520Y-72323399D01*
X283375177Y-72516976D01*
X283347747Y-72738446D01*
X283290347Y-72987460D01*
X283203096Y-73263665D01*
X283086111Y-73566711D01*
X282939509Y-73896246D01*
X282763408Y-74251921D01*
X282557925Y-74633383D01*
X282323179Y-75040282D01*
X282059287Y-75472266D01*
X281913223Y-75702583D01*
X281677485Y-76061916D01*
X281425468Y-76431313D01*
X281164818Y-76800050D01*
X280903184Y-77157404D01*
X280648211Y-77492650D01*
X280524590Y-77649916D01*
X280443534Y-77752935D01*
X280383986Y-77835053D01*
X280342581Y-77906160D01*
X280315960Y-77976148D01*
X280300759Y-78054906D01*
X280293617Y-78152327D01*
X280291173Y-78278299D01*
X280290763Y-78337833D01*
X280297010Y-78622777D01*
X280318372Y-78901714D01*
X280353676Y-79165719D01*
X280401751Y-79405868D01*
X280456372Y-79598428D01*
X280556361Y-79834158D01*
X280689643Y-80050460D01*
X280852131Y-80242875D01*
X281039736Y-80406945D01*
X281248370Y-80538212D01*
X281369699Y-80594443D01*
X281627668Y-80677041D01*
X281903159Y-80722150D01*
X282194852Y-80730187D01*
X282501427Y-80701571D01*
X282821564Y-80636721D01*
X283153942Y-80536056D01*
X283497241Y-80399994D01*
X283850140Y-80228953D01*
X284211320Y-80023353D01*
X284579459Y-79783611D01*
X284953238Y-79510147D01*
X285064449Y-79423046D01*
X285172320Y-79332580D01*
X285302382Y-79215825D01*
X285449019Y-79078413D01*
X285606616Y-78925976D01*
X285769556Y-78764146D01*
X285932225Y-78598554D01*
X286089007Y-78434832D01*
X286234286Y-78278612D01*
X286362446Y-78135526D01*
X286447291Y-78036208D01*
X286538113Y-77927456D01*
X286606836Y-77847272D01*
X286658029Y-77791345D01*
X286696260Y-77755365D01*
X286726096Y-77735021D01*
X286752108Y-77726003D01*
X286778159Y-77724000D01*
X286849633Y-77740840D01*
X286894417Y-77787239D01*
X286908505Y-77857009D01*
X286899492Y-77911310D01*
X286833211Y-78152762D01*
X286783632Y-78362015D01*
X286749878Y-78545380D01*
X286731068Y-78709169D01*
X286726323Y-78859692D01*
X286734763Y-79003260D01*
X286740533Y-79052005D01*
X286775952Y-79226598D01*
X286830419Y-79365266D01*
X286902877Y-79467273D01*
X286992271Y-79531883D01*
X287097543Y-79558359D01*
X287217637Y-79545965D01*
X287351498Y-79493965D01*
X287364718Y-79487032D01*
X287424906Y-79448086D01*
X287503811Y-79387632D01*
X287590532Y-79314408D01*
X287662933Y-79248000D01*
X287874316Y-79022547D01*
X288080461Y-78756544D01*
X288280397Y-78451559D01*
X288290798Y-78433083D01*
X288607500Y-78433083D01*
X288618083Y-78443666D01*
X288628666Y-78433083D01*
X288618083Y-78422500D01*
X288607500Y-78433083D01*
X288290798Y-78433083D01*
X288473155Y-78109159D01*
X288657764Y-77730911D01*
X288787793Y-77430705D01*
X288835823Y-77322400D01*
X288877717Y-77250575D01*
X288918413Y-77210849D01*
X288962848Y-77198843D01*
X289015960Y-77210175D01*
X289030148Y-77215716D01*
X289083831Y-77252771D01*
X289107693Y-77293611D01*
X289107273Y-77329777D01*
X289098424Y-77403311D01*
X289081929Y-77510259D01*
X289058576Y-77646671D01*
X289029149Y-77808597D01*
X288994435Y-77992083D01*
X288955218Y-78193179D01*
X288912285Y-78407935D01*
X288866421Y-78632397D01*
X288818412Y-78862615D01*
X288769044Y-79094638D01*
X288719101Y-79324515D01*
X288669371Y-79548293D01*
X288620637Y-79762022D01*
X288595354Y-79870416D01*
X288566615Y-79994209D01*
X288542080Y-80103100D01*
X288523124Y-80190706D01*
X288511126Y-80250642D01*
X288507463Y-80276523D01*
X288507636Y-80277025D01*
X288526233Y-80267959D01*
X288572114Y-80238517D01*
X288638380Y-80193291D01*
X288718132Y-80136876D01*
X288718391Y-80136689D01*
X289355378Y-79697594D01*
X289986183Y-79300014D01*
X290611326Y-78943669D01*
X291231331Y-78628275D01*
X291846718Y-78353550D01*
X292412273Y-78135398D01*
X292612782Y-78067111D01*
X292820315Y-78002206D01*
X293030151Y-77941715D01*
X293237567Y-77886667D01*
X293437842Y-77838095D01*
X293626255Y-77797029D01*
X293798084Y-77764499D01*
X293948607Y-77741536D01*
X294073102Y-77729171D01*
X294166849Y-77728435D01*
X294224085Y-77739873D01*
X294271813Y-77782742D01*
X294292084Y-77848016D01*
X294280984Y-77922918D01*
X294280518Y-77924156D01*
X294272070Y-77946733D01*
X294262429Y-77963593D01*
X294245435Y-77976588D01*
X294214928Y-77987567D01*
X294164747Y-77998383D01*
X294088734Y-78010885D01*
X293980727Y-78026924D01*
X293898410Y-78038955D01*
X293481591Y-78115778D01*
X293044283Y-78226449D01*
X292589449Y-78369569D01*
X292120050Y-78543742D01*
X291639051Y-78747572D01*
X291149412Y-78979660D01*
X290654097Y-79238610D01*
X290156069Y-79523025D01*
X289658289Y-79831509D01*
X289163721Y-80162663D01*
X288723372Y-80479251D01*
X288377513Y-80736304D01*
X288331983Y-80907610D01*
X288176242Y-81477037D01*
X288022455Y-82005606D01*
X287870088Y-82494719D01*
X287718610Y-82945778D01*
X287567486Y-83360185D01*
X287416185Y-83739342D01*
X287264173Y-84084651D01*
X287110917Y-84397513D01*
X286955885Y-84679332D01*
X286808240Y-84916917D01*
X286668436Y-85111750D01*
X286521019Y-85286906D01*
X286370575Y-85438059D01*
X286221693Y-85560883D01*
X286078961Y-85651053D01*
X285986015Y-85692127D01*
X285866521Y-85721678D01*
X285734245Y-85734519D01*
X285611070Y-85728927D01*
X285581861Y-85723961D01*
X285472249Y-85690985D01*
X285348367Y-85637436D01*
X285226338Y-85571550D01*
X285122284Y-85501561D01*
X285084607Y-85469991D01*
X284971258Y-85337359D01*
X284890778Y-85180147D01*
X284843287Y-85000599D01*
X284830962Y-84829517D01*
X285109799Y-84829517D01*
X285132654Y-84992216D01*
X285189520Y-85134374D01*
X285280746Y-85254335D01*
X285404821Y-85352038D01*
X285543810Y-85415847D01*
X285690252Y-85444214D01*
X285836691Y-85435591D01*
X285960954Y-85395561D01*
X286046333Y-85343486D01*
X286146846Y-85262214D01*
X286255631Y-85158720D01*
X286365820Y-85039976D01*
X286470551Y-84912953D01*
X286562957Y-84784625D01*
X286563979Y-84783083D01*
X286703630Y-84554910D01*
X286847137Y-84287633D01*
X286993322Y-83984183D01*
X287141011Y-83647489D01*
X287289026Y-83280482D01*
X287436193Y-82886091D01*
X287581334Y-82467245D01*
X287723273Y-82026876D01*
X287860836Y-81567912D01*
X287876677Y-81512833D01*
X287913073Y-81386024D01*
X287945891Y-81272258D01*
X287973213Y-81178133D01*
X287993123Y-81110246D01*
X288003706Y-81075193D01*
X288004514Y-81072759D01*
X288006983Y-81059664D01*
X287999860Y-81057262D01*
X287980036Y-81068001D01*
X287944401Y-81094331D01*
X287889845Y-81138700D01*
X287813259Y-81203557D01*
X287711533Y-81291350D01*
X287581557Y-81404528D01*
X287566603Y-81417583D01*
X287215527Y-81732838D01*
X286888718Y-82043907D01*
X286586926Y-82349530D01*
X286310899Y-82648449D01*
X286061388Y-82939408D01*
X285839143Y-83221147D01*
X285644911Y-83492409D01*
X285479444Y-83751936D01*
X285343490Y-83998470D01*
X285237799Y-84230753D01*
X285163121Y-84447527D01*
X285120204Y-84647535D01*
X285109799Y-84829517D01*
X284830962Y-84829517D01*
X284828904Y-84800959D01*
X284847749Y-84583472D01*
X284899939Y-84350382D01*
X284985596Y-84103933D01*
X285009008Y-84047996D01*
X285136553Y-83785970D01*
X285299678Y-83507332D01*
X285496189Y-83214581D01*
X285723893Y-82910220D01*
X285980598Y-82596750D01*
X286264110Y-82276673D01*
X286572237Y-81952489D01*
X286902785Y-81626701D01*
X287253562Y-81301810D01*
X287622374Y-80980317D01*
X287899263Y-80751211D01*
X287979945Y-80684716D01*
X288048806Y-80625727D01*
X288098923Y-80580333D01*
X288123375Y-80554622D01*
X288124050Y-80553534D01*
X288133569Y-80524641D01*
X288151210Y-80459386D01*
X288175821Y-80362713D01*
X288206250Y-80239563D01*
X288241344Y-80094881D01*
X288279950Y-79933610D01*
X288320916Y-79760691D01*
X288363089Y-79581069D01*
X288405316Y-79399686D01*
X288446446Y-79221485D01*
X288485325Y-79051409D01*
X288520801Y-78894401D01*
X288551721Y-78755404D01*
X288576933Y-78639362D01*
X288595283Y-78551216D01*
X288605620Y-78495911D01*
X288607500Y-78480228D01*
X288597480Y-78487783D01*
X288570413Y-78525260D01*
X288530785Y-78586134D01*
X288496375Y-78641811D01*
X288318716Y-78915452D01*
X288137392Y-79157260D01*
X287954300Y-79365295D01*
X287771342Y-79537614D01*
X287590416Y-79672276D01*
X287413421Y-79767342D01*
X287382655Y-79779894D01*
X287259581Y-79814379D01*
X287128031Y-79829067D01*
X287001513Y-79823861D01*
X286893535Y-79798664D01*
X286859806Y-79783632D01*
X286765692Y-79717558D01*
X286673786Y-79625295D01*
X286597854Y-79521377D01*
X286578361Y-79486441D01*
X286534321Y-79391498D01*
X286502143Y-79298506D01*
X286480185Y-79198169D01*
X286466810Y-79081188D01*
X286460379Y-78938265D01*
X286459126Y-78810039D01*
X286459083Y-78467329D01*
X286249259Y-78693623D01*
X285868866Y-79083792D01*
X285482337Y-79440929D01*
X285091287Y-79764060D01*
X284697331Y-80052213D01*
X284302084Y-80304414D01*
X283907161Y-80519693D01*
X283514177Y-80697074D01*
X283124748Y-80835587D01*
X282740488Y-80934259D01*
X282448555Y-80982547D01*
X282136672Y-81003442D01*
X281837390Y-80988006D01*
X281553266Y-80937348D01*
X281286861Y-80852574D01*
X281040732Y-80734790D01*
X280817440Y-80585104D01*
X280619542Y-80404623D01*
X280449599Y-80194452D01*
X280381861Y-80088690D01*
X280293416Y-79916460D01*
X280213106Y-79715580D01*
X280145621Y-79499594D01*
X280095651Y-79282045D01*
X280088496Y-79241485D01*
X280073270Y-79133094D01*
X280059132Y-79000592D01*
X280046628Y-78853275D01*
X280036299Y-78700439D01*
X280028689Y-78551381D01*
X280024343Y-78415396D01*
X280023802Y-78301782D01*
X280027611Y-78219833D01*
X280028361Y-78212791D01*
X280034351Y-78166883D01*
X280036489Y-78134897D01*
X280029374Y-78116981D01*
X280007602Y-78113281D01*
X279965770Y-78123946D01*
X279898476Y-78149122D01*
X279800317Y-78188958D01*
X279721382Y-78221166D01*
X279479617Y-78310715D01*
X279201767Y-78398241D01*
X278894079Y-78482120D01*
X278562801Y-78560727D01*
X278214179Y-78632438D01*
X277971250Y-78676288D01*
X277617674Y-78732108D01*
X277279852Y-78775675D01*
X276946236Y-78807923D01*
X276605277Y-78829782D01*
X276245426Y-78842185D01*
X275867384Y-78846062D01*
X275261916Y-78846292D01*
X275204272Y-78999521D01*
X275112996Y-79203457D01*
X274997238Y-79389347D01*
X274849076Y-79569636D01*
X274824956Y-79595498D01*
X274661691Y-79748908D01*
X274495589Y-79864208D01*
X274319142Y-79945359D01*
X274124841Y-79996326D01*
X274041644Y-80008998D01*
X273844503Y-80014213D01*
X273647831Y-79982893D01*
X273460920Y-79917774D01*
X273293060Y-79821591D01*
X273226142Y-79768840D01*
X273094847Y-79627314D01*
X272989221Y-79456431D01*
X272911824Y-79262303D01*
X272865214Y-79051042D01*
X272851831Y-78875022D01*
X272848916Y-78660795D01*
X272641701Y-78853856D01*
X272364803Y-79105422D01*
X272107534Y-79325445D01*
X271865589Y-79517299D01*
X271634665Y-79684359D01*
X271410457Y-79830001D01*
X271352628Y-79864838D01*
X271132306Y-79989308D01*
X270935468Y-80086482D01*
X270755353Y-80158681D01*
X270585198Y-80208230D01*
X270418243Y-80237450D01*
X270247726Y-80248666D01*
X270234833Y-80248843D01*
X270069959Y-80244736D01*
X269917533Y-80227246D01*
X269774129Y-80194041D01*
X269636322Y-80142787D01*
X269500689Y-80071150D01*
X269363804Y-79976797D01*
X269222243Y-79857394D01*
X269072582Y-79710607D01*
X268911395Y-79534103D01*
X268735259Y-79325548D01*
X268560752Y-79108042D01*
X268461819Y-78984213D01*
X268363792Y-78864702D01*
X268272002Y-78755771D01*
X268191781Y-78663685D01*
X268128459Y-78594707D01*
X268098171Y-78564565D01*
X267936160Y-78437036D01*
X267771394Y-78351549D01*
X267604230Y-78307926D01*
X267435025Y-78305989D01*
X267264138Y-78345562D01*
X267091924Y-78426465D01*
X266918742Y-78548524D01*
X266744949Y-78711559D01*
X266570902Y-78915393D01*
X266396958Y-79159849D01*
X266223474Y-79444749D01*
X266184181Y-79515061D01*
X266105079Y-79666260D01*
X266020344Y-79841056D01*
X265935701Y-80026636D01*
X265856876Y-80210187D01*
X265789593Y-80378897D01*
X265752498Y-80481102D01*
X265721562Y-80566636D01*
X265692453Y-80638982D01*
X265669732Y-80687119D01*
X265662713Y-80698061D01*
X265622291Y-80719999D01*
X265561172Y-80728803D01*
X265499090Y-80723880D01*
X265455780Y-80704641D01*
X265455399Y-80704266D01*
X265445023Y-80690295D01*
X265437761Y-80669475D01*
X265433941Y-80637970D01*
X265433890Y-80591942D01*
X265437932Y-80527555D01*
X265446397Y-80440973D01*
X265459608Y-80328359D01*
X265477894Y-80185876D01*
X265501580Y-80009686D01*
X265530993Y-79795955D01*
X265535376Y-79764331D01*
X265621372Y-79169845D01*
X265713644Y-78579945D01*
X265811470Y-77998054D01*
X265914122Y-77427596D01*
X265943239Y-77276053D01*
X266234333Y-77276053D01*
X266237957Y-77283859D01*
X266250107Y-77276244D01*
X266272700Y-77250515D01*
X266307653Y-77203979D01*
X266356883Y-77133943D01*
X266422305Y-77037713D01*
X266505838Y-76912596D01*
X266609398Y-76755899D01*
X266668762Y-76665666D01*
X266887401Y-76329436D01*
X267083273Y-76020326D01*
X267259904Y-75732280D01*
X267420823Y-75459242D01*
X267569555Y-75195155D01*
X267709628Y-74933963D01*
X267844568Y-74669610D01*
X267917657Y-74521123D01*
X268084390Y-74164614D01*
X268226048Y-73832705D01*
X268342333Y-73526456D01*
X268432946Y-73246930D01*
X268497591Y-72995188D01*
X268535970Y-72772290D01*
X268547783Y-72579297D01*
X268532735Y-72417272D01*
X268521495Y-72369600D01*
X268476428Y-72272846D01*
X268403683Y-72185809D01*
X268315208Y-72120783D01*
X268255940Y-72096420D01*
X268167848Y-72083698D01*
X268083987Y-72098751D01*
X267996629Y-72144547D01*
X267898046Y-72224053D01*
X267879904Y-72240864D01*
X267755322Y-72378598D01*
X267630346Y-72557807D01*
X267504943Y-72778579D01*
X267379080Y-73041003D01*
X267252723Y-73345168D01*
X267125839Y-73691161D01*
X266998395Y-74079072D01*
X266870357Y-74508989D01*
X266741694Y-74981001D01*
X266612371Y-75495196D01*
X266530699Y-75840166D01*
X266500158Y-75974359D01*
X266466839Y-76124720D01*
X266431909Y-76285594D01*
X266396534Y-76451331D01*
X266361882Y-76616276D01*
X266329118Y-76774778D01*
X266299410Y-76921184D01*
X266273925Y-77049840D01*
X266253829Y-77155096D01*
X266240288Y-77231296D01*
X266234470Y-77272790D01*
X266234333Y-77276053D01*
X265943239Y-77276053D01*
X266020876Y-76871994D01*
X266131007Y-76334673D01*
X266243790Y-75819056D01*
X266358499Y-75328567D01*
X266474410Y-74866628D01*
X266590796Y-74436665D01*
X266706934Y-74042100D01*
X266822098Y-73686357D01*
X266823871Y-73681166D01*
X266950708Y-73326715D01*
X267075116Y-73012974D01*
X267197989Y-72738451D01*
X267320224Y-72501654D01*
X267442716Y-72301091D01*
X267566360Y-72135269D01*
X267692052Y-72002697D01*
X267820688Y-71901882D01*
X267927263Y-71842656D01*
X268076304Y-71796250D01*
X268228218Y-71789873D01*
X268376413Y-71822289D01*
X268514298Y-71892264D01*
X268608520Y-71970187D01*
X268693130Y-72071273D01*
X268753916Y-72184618D01*
X268792738Y-72316777D01*
X268811457Y-72474305D01*
X268811935Y-72663759D01*
X268811089Y-72683867D01*
X268786881Y-72914240D01*
X268734167Y-73173905D01*
X268653517Y-73461388D01*
X268545501Y-73775214D01*
X268410689Y-74113907D01*
X268249651Y-74475992D01*
X268062957Y-74859993D01*
X267851177Y-75264435D01*
X267726529Y-75490916D01*
X267555815Y-75788648D01*
X267372040Y-76095605D01*
X267179458Y-76405336D01*
X266982325Y-76711390D01*
X266784896Y-77007314D01*
X266591425Y-77286659D01*
X266406167Y-77542971D01*
X266233377Y-77769801D01*
X266176202Y-77841566D01*
X266154454Y-77871169D01*
X266135058Y-77905177D01*
X266117131Y-77947652D01*
X266099788Y-78002655D01*
X266082145Y-78074245D01*
X266063318Y-78166484D01*
X266042423Y-78283433D01*
X266018575Y-78429152D01*
X265990891Y-78607701D01*
X265958486Y-78823141D01*
X265949862Y-78881099D01*
X265928203Y-79026712D01*
X265908009Y-79162179D01*
X265890309Y-79280616D01*
X265876132Y-79375140D01*
X265866509Y-79438867D01*
X265863317Y-79459666D01*
X265861274Y-79487522D01*
X265869462Y-79488408D01*
X265890434Y-79459226D01*
X265926747Y-79396880D01*
X265950612Y-79353833D01*
X266131200Y-79049052D01*
X266316397Y-78782929D01*
X266505555Y-78555842D01*
X266698028Y-78368167D01*
X266893167Y-78220284D01*
X267090325Y-78112568D01*
X267288855Y-78045398D01*
X267488108Y-78019151D01*
X267687437Y-78034205D01*
X267886194Y-78090937D01*
X268015053Y-78150490D01*
X268089968Y-78194594D01*
X268164617Y-78248110D01*
X268242733Y-78314832D01*
X268328045Y-78398554D01*
X268424286Y-78503070D01*
X268535186Y-78632174D01*
X268664476Y-78789661D01*
X268756482Y-78904444D01*
X268950893Y-79143867D01*
X269126202Y-79349805D01*
X269281860Y-79521669D01*
X269417319Y-79658872D01*
X269532029Y-79760827D01*
X269610416Y-79817837D01*
X269788791Y-79905356D01*
X269986856Y-79956142D01*
X270171333Y-79969924D01*
X270355948Y-79957310D01*
X270542263Y-79918381D01*
X270738968Y-79850804D01*
X270922750Y-79768153D01*
X271156252Y-79642994D01*
X271395952Y-79493227D01*
X271644108Y-79317016D01*
X271902983Y-79112524D01*
X272174837Y-78877916D01*
X272461930Y-78611354D01*
X272766525Y-78311003D01*
X272954750Y-78117839D01*
X273068530Y-78000963D01*
X273180501Y-77888594D01*
X273285093Y-77786123D01*
X273376734Y-77698946D01*
X273449851Y-77632456D01*
X273494500Y-77595301D01*
X273676501Y-77472851D01*
X273874214Y-77367203D01*
X274076518Y-77283217D01*
X274272292Y-77225751D01*
X274386872Y-77205401D01*
X274455958Y-77198539D01*
X274496787Y-77201886D01*
X274522818Y-77218474D01*
X274539575Y-77239771D01*
X274564397Y-77296778D01*
X274574000Y-77358746D01*
X274570609Y-77397795D01*
X274555805Y-77426577D01*
X274522639Y-77449213D01*
X274464160Y-77469821D01*
X274373421Y-77492523D01*
X274332860Y-77501702D01*
X274123083Y-77566641D01*
X273916105Y-77664501D01*
X273719321Y-77789701D01*
X273540126Y-77936660D01*
X273385918Y-78099798D01*
X273264091Y-78273534D01*
X273232308Y-78332136D01*
X273161108Y-78512664D01*
X273123856Y-78697353D01*
X273118640Y-78881322D01*
X273143550Y-79059689D01*
X273196676Y-79227573D01*
X273276107Y-79380092D01*
X273379931Y-79512363D01*
X273506239Y-79619507D01*
X273653120Y-79696640D01*
X273780523Y-79732791D01*
X273943859Y-79742509D01*
X274111903Y-79714350D01*
X274279477Y-79651601D01*
X274441405Y-79557546D01*
X274592510Y-79435473D01*
X274727614Y-79288666D01*
X274841539Y-79120413D01*
X274888959Y-79029236D01*
X274932897Y-78936194D01*
X274957234Y-78874303D01*
X274957775Y-78835716D01*
X274930327Y-78812589D01*
X274870694Y-78797074D01*
X274774682Y-78781324D01*
X274754711Y-78778103D01*
X274546670Y-78733688D01*
X274366601Y-78673665D01*
X274216838Y-78599755D01*
X274099716Y-78513677D01*
X274017572Y-78417151D01*
X273972739Y-78311896D01*
X273967876Y-78206599D01*
X274245627Y-78206599D01*
X274248251Y-78262203D01*
X274277718Y-78297082D01*
X274337288Y-78339797D01*
X274417053Y-78384347D01*
X274507110Y-78424730D01*
X274532360Y-78434306D01*
X274586973Y-78450638D01*
X274670527Y-78471684D01*
X274770305Y-78494636D01*
X274873588Y-78516684D01*
X274967658Y-78535020D01*
X275039797Y-78546836D01*
X275044958Y-78547506D01*
X275057272Y-78531238D01*
X275060715Y-78501875D01*
X275040446Y-78383516D01*
X274984962Y-78272671D01*
X274901353Y-78175304D01*
X274796709Y-78097380D01*
X274678118Y-78044861D01*
X274552672Y-78023713D01*
X274495134Y-78026102D01*
X274408391Y-78048631D01*
X274332789Y-78091104D01*
X274275983Y-78146200D01*
X274245627Y-78206599D01*
X273967876Y-78206599D01*
X273967554Y-78199631D01*
X273967695Y-78198590D01*
X273986343Y-78117097D01*
X274015834Y-78036418D01*
X274022024Y-78023553D01*
X274100245Y-77913550D01*
X274204589Y-77831357D01*
X274329141Y-77777110D01*
X274467989Y-77750943D01*
X274615220Y-77752992D01*
X274764920Y-77783392D01*
X274911176Y-77842279D01*
X275048075Y-77929788D01*
X275125472Y-77998289D01*
X275226345Y-78118895D01*
X275290959Y-78247050D01*
X275325121Y-78395068D01*
X275328989Y-78430037D01*
X275341656Y-78565687D01*
X275437032Y-78578760D01*
X275513517Y-78585311D01*
X275624317Y-78589468D01*
X275761486Y-78591296D01*
X275917076Y-78590860D01*
X276083141Y-78588222D01*
X276251734Y-78583447D01*
X276414908Y-78576600D01*
X276532277Y-78569928D01*
X276939523Y-78536955D01*
X277345916Y-78491317D01*
X277746703Y-78434050D01*
X278137135Y-78366190D01*
X278512458Y-78288776D01*
X278867923Y-78202842D01*
X279198776Y-78109426D01*
X279500267Y-78009566D01*
X279767644Y-77904296D01*
X279931233Y-77828312D01*
X280049717Y-77768979D01*
X280063906Y-77582447D01*
X280082244Y-77395916D01*
X280350755Y-77395916D01*
X280416806Y-77321833D01*
X280449750Y-77281896D01*
X280502539Y-77214366D01*
X280570108Y-77125884D01*
X280647392Y-77023085D01*
X280729329Y-76912608D01*
X280738278Y-76900449D01*
X280927035Y-76638658D01*
X281129827Y-76348098D01*
X281340926Y-76037438D01*
X281554605Y-75715347D01*
X281765137Y-75390494D01*
X281966793Y-75071548D01*
X282153847Y-74767177D01*
X282214973Y-74665416D01*
X282376676Y-74383812D01*
X282531625Y-74093419D01*
X282676207Y-73801938D01*
X282806809Y-73517070D01*
X282919816Y-73246515D01*
X283011617Y-72997977D01*
X283044228Y-72898000D01*
X283068044Y-72811600D01*
X283083039Y-72728156D01*
X283090958Y-72633314D01*
X283093546Y-72512720D01*
X283093583Y-72492093D01*
X283092730Y-72382702D01*
X283089311Y-72306590D01*
X283082035Y-72254722D01*
X283069613Y-72218063D01*
X283050754Y-72187577D01*
X283049942Y-72186485D01*
X282976737Y-72106396D01*
X282897722Y-72061297D01*
X282800168Y-72044416D01*
X282781950Y-72043880D01*
X282654509Y-72062371D01*
X282518609Y-72120239D01*
X282375916Y-72215753D01*
X282228094Y-72347185D01*
X282076808Y-72512806D01*
X281923723Y-72710886D01*
X281770503Y-72939695D01*
X281618814Y-73197506D01*
X281552120Y-73321333D01*
X281370638Y-73692778D01*
X281196484Y-74098989D01*
X281031902Y-74532705D01*
X280879138Y-74986664D01*
X280740439Y-75453607D01*
X280618050Y-75926271D01*
X280514218Y-76397395D01*
X280431188Y-76859719D01*
X280406413Y-77025500D01*
X280391684Y-77128987D01*
X280378060Y-77222836D01*
X280367206Y-77295686D01*
X280361435Y-77332416D01*
X280350755Y-77395916D01*
X280082244Y-77395916D01*
X280086246Y-77355211D01*
X280120524Y-77096059D01*
X280165218Y-76813212D01*
X280218804Y-76514889D01*
X280279758Y-76209311D01*
X280346558Y-75904699D01*
X280417680Y-75609271D01*
X280459099Y-75449896D01*
X280579643Y-75027309D01*
X280710943Y-74618775D01*
X280851606Y-74227118D01*
X281000236Y-73855161D01*
X281155438Y-73505724D01*
X281315817Y-73181632D01*
X281479979Y-72885706D01*
X281646528Y-72620768D01*
X281814070Y-72389642D01*
X281981209Y-72195149D01*
X282142873Y-72043135D01*
X282281087Y-71937197D01*
X282404348Y-71861939D01*
X282521734Y-71813190D01*
X282642323Y-71786782D01*
X282715396Y-71780158D01*
X282876324Y-71783208D01*
G37*
X282876324Y-71783208D02*
X283010521Y-71812510D01*
X283126189Y-71870406D01*
X283182852Y-71913541D01*
X283276475Y-72021330D01*
X283339659Y-72158067D01*
X283372520Y-72323399D01*
X283375177Y-72516976D01*
X283347747Y-72738446D01*
X283290347Y-72987460D01*
X283203096Y-73263665D01*
X283086111Y-73566711D01*
X282939509Y-73896246D01*
X282763408Y-74251921D01*
X282557925Y-74633383D01*
X282323179Y-75040282D01*
X282059287Y-75472266D01*
X281913223Y-75702583D01*
X281677485Y-76061916D01*
X281425468Y-76431313D01*
X281164818Y-76800050D01*
X280903184Y-77157404D01*
X280648211Y-77492650D01*
X280524590Y-77649916D01*
X280443534Y-77752935D01*
X280383986Y-77835053D01*
X280342581Y-77906160D01*
X280315960Y-77976148D01*
X280300759Y-78054906D01*
X280293617Y-78152327D01*
X280291173Y-78278299D01*
X280290763Y-78337833D01*
X280297010Y-78622777D01*
X280318372Y-78901714D01*
X280353676Y-79165719D01*
X280401751Y-79405868D01*
X280456372Y-79598428D01*
X280556361Y-79834158D01*
X280689643Y-80050460D01*
X280852131Y-80242875D01*
X281039736Y-80406945D01*
X281248370Y-80538212D01*
X281369699Y-80594443D01*
X281627668Y-80677041D01*
X281903159Y-80722150D01*
X282194852Y-80730187D01*
X282501427Y-80701571D01*
X282821564Y-80636721D01*
X283153942Y-80536056D01*
X283497241Y-80399994D01*
X283850140Y-80228953D01*
X284211320Y-80023353D01*
X284579459Y-79783611D01*
X284953238Y-79510147D01*
X285064449Y-79423046D01*
X285172320Y-79332580D01*
X285302382Y-79215825D01*
X285449019Y-79078413D01*
X285606616Y-78925976D01*
X285769556Y-78764146D01*
X285932225Y-78598554D01*
X286089007Y-78434832D01*
X286234286Y-78278612D01*
X286362446Y-78135526D01*
X286447291Y-78036208D01*
X286538113Y-77927456D01*
X286606836Y-77847272D01*
X286658029Y-77791345D01*
X286696260Y-77755365D01*
X286726096Y-77735021D01*
X286752108Y-77726003D01*
X286778159Y-77724000D01*
X286849633Y-77740840D01*
X286894417Y-77787239D01*
X286908505Y-77857009D01*
X286899492Y-77911310D01*
X286833211Y-78152762D01*
X286783632Y-78362015D01*
X286749878Y-78545380D01*
X286731068Y-78709169D01*
X286726323Y-78859692D01*
X286734763Y-79003260D01*
X286740533Y-79052005D01*
X286775952Y-79226598D01*
X286830419Y-79365266D01*
X286902877Y-79467273D01*
X286992271Y-79531883D01*
X287097543Y-79558359D01*
X287217637Y-79545965D01*
X287351498Y-79493965D01*
X287364718Y-79487032D01*
X287424906Y-79448086D01*
X287503811Y-79387632D01*
X287590532Y-79314408D01*
X287662933Y-79248000D01*
X287874316Y-79022547D01*
X288080461Y-78756544D01*
X288280397Y-78451559D01*
X288290798Y-78433083D01*
X288607500Y-78433083D01*
X288618083Y-78443666D01*
X288628666Y-78433083D01*
X288618083Y-78422500D01*
X288607500Y-78433083D01*
X288290798Y-78433083D01*
X288473155Y-78109159D01*
X288657764Y-77730911D01*
X288787793Y-77430705D01*
X288835823Y-77322400D01*
X288877717Y-77250575D01*
X288918413Y-77210849D01*
X288962848Y-77198843D01*
X289015960Y-77210175D01*
X289030148Y-77215716D01*
X289083831Y-77252771D01*
X289107693Y-77293611D01*
X289107273Y-77329777D01*
X289098424Y-77403311D01*
X289081929Y-77510259D01*
X289058576Y-77646671D01*
X289029149Y-77808597D01*
X288994435Y-77992083D01*
X288955218Y-78193179D01*
X288912285Y-78407935D01*
X288866421Y-78632397D01*
X288818412Y-78862615D01*
X288769044Y-79094638D01*
X288719101Y-79324515D01*
X288669371Y-79548293D01*
X288620637Y-79762022D01*
X288595354Y-79870416D01*
X288566615Y-79994209D01*
X288542080Y-80103100D01*
X288523124Y-80190706D01*
X288511126Y-80250642D01*
X288507463Y-80276523D01*
X288507636Y-80277025D01*
X288526233Y-80267959D01*
X288572114Y-80238517D01*
X288638380Y-80193291D01*
X288718132Y-80136876D01*
X288718391Y-80136689D01*
X289355378Y-79697594D01*
X289986183Y-79300014D01*
X290611326Y-78943669D01*
X291231331Y-78628275D01*
X291846718Y-78353550D01*
X292412273Y-78135398D01*
X292612782Y-78067111D01*
X292820315Y-78002206D01*
X293030151Y-77941715D01*
X293237567Y-77886667D01*
X293437842Y-77838095D01*
X293626255Y-77797029D01*
X293798084Y-77764499D01*
X293948607Y-77741536D01*
X294073102Y-77729171D01*
X294166849Y-77728435D01*
X294224085Y-77739873D01*
X294271813Y-77782742D01*
X294292084Y-77848016D01*
X294280984Y-77922918D01*
X294280518Y-77924156D01*
X294272070Y-77946733D01*
X294262429Y-77963593D01*
X294245435Y-77976588D01*
X294214928Y-77987567D01*
X294164747Y-77998383D01*
X294088734Y-78010885D01*
X293980727Y-78026924D01*
X293898410Y-78038955D01*
X293481591Y-78115778D01*
X293044283Y-78226449D01*
X292589449Y-78369569D01*
X292120050Y-78543742D01*
X291639051Y-78747572D01*
X291149412Y-78979660D01*
X290654097Y-79238610D01*
X290156069Y-79523025D01*
X289658289Y-79831509D01*
X289163721Y-80162663D01*
X288723372Y-80479251D01*
X288377513Y-80736304D01*
X288331983Y-80907610D01*
X288176242Y-81477037D01*
X288022455Y-82005606D01*
X287870088Y-82494719D01*
X287718610Y-82945778D01*
X287567486Y-83360185D01*
X287416185Y-83739342D01*
X287264173Y-84084651D01*
X287110917Y-84397513D01*
X286955885Y-84679332D01*
X286808240Y-84916917D01*
X286668436Y-85111750D01*
X286521019Y-85286906D01*
X286370575Y-85438059D01*
X286221693Y-85560883D01*
X286078961Y-85651053D01*
X285986015Y-85692127D01*
X285866521Y-85721678D01*
X285734245Y-85734519D01*
X285611070Y-85728927D01*
X285581861Y-85723961D01*
X285472249Y-85690985D01*
X285348367Y-85637436D01*
X285226338Y-85571550D01*
X285122284Y-85501561D01*
X285084607Y-85469991D01*
X284971258Y-85337359D01*
X284890778Y-85180147D01*
X284843287Y-85000599D01*
X284830962Y-84829517D01*
X285109799Y-84829517D01*
X285132654Y-84992216D01*
X285189520Y-85134374D01*
X285280746Y-85254335D01*
X285404821Y-85352038D01*
X285543810Y-85415847D01*
X285690252Y-85444214D01*
X285836691Y-85435591D01*
X285960954Y-85395561D01*
X286046333Y-85343486D01*
X286146846Y-85262214D01*
X286255631Y-85158720D01*
X286365820Y-85039976D01*
X286470551Y-84912953D01*
X286562957Y-84784625D01*
X286563979Y-84783083D01*
X286703630Y-84554910D01*
X286847137Y-84287633D01*
X286993322Y-83984183D01*
X287141011Y-83647489D01*
X287289026Y-83280482D01*
X287436193Y-82886091D01*
X287581334Y-82467245D01*
X287723273Y-82026876D01*
X287860836Y-81567912D01*
X287876677Y-81512833D01*
X287913073Y-81386024D01*
X287945891Y-81272258D01*
X287973213Y-81178133D01*
X287993123Y-81110246D01*
X288003706Y-81075193D01*
X288004514Y-81072759D01*
X288006983Y-81059664D01*
X287999860Y-81057262D01*
X287980036Y-81068001D01*
X287944401Y-81094331D01*
X287889845Y-81138700D01*
X287813259Y-81203557D01*
X287711533Y-81291350D01*
X287581557Y-81404528D01*
X287566603Y-81417583D01*
X287215527Y-81732838D01*
X286888718Y-82043907D01*
X286586926Y-82349530D01*
X286310899Y-82648449D01*
X286061388Y-82939408D01*
X285839143Y-83221147D01*
X285644911Y-83492409D01*
X285479444Y-83751936D01*
X285343490Y-83998470D01*
X285237799Y-84230753D01*
X285163121Y-84447527D01*
X285120204Y-84647535D01*
X285109799Y-84829517D01*
X284830962Y-84829517D01*
X284828904Y-84800959D01*
X284847749Y-84583472D01*
X284899939Y-84350382D01*
X284985596Y-84103933D01*
X285009008Y-84047996D01*
X285136553Y-83785970D01*
X285299678Y-83507332D01*
X285496189Y-83214581D01*
X285723893Y-82910220D01*
X285980598Y-82596750D01*
X286264110Y-82276673D01*
X286572237Y-81952489D01*
X286902785Y-81626701D01*
X287253562Y-81301810D01*
X287622374Y-80980317D01*
X287899263Y-80751211D01*
X287979945Y-80684716D01*
X288048806Y-80625727D01*
X288098923Y-80580333D01*
X288123375Y-80554622D01*
X288124050Y-80553534D01*
X288133569Y-80524641D01*
X288151210Y-80459386D01*
X288175821Y-80362713D01*
X288206250Y-80239563D01*
X288241344Y-80094881D01*
X288279950Y-79933610D01*
X288320916Y-79760691D01*
X288363089Y-79581069D01*
X288405316Y-79399686D01*
X288446446Y-79221485D01*
X288485325Y-79051409D01*
X288520801Y-78894401D01*
X288551721Y-78755404D01*
X288576933Y-78639362D01*
X288595283Y-78551216D01*
X288605620Y-78495911D01*
X288607500Y-78480228D01*
X288597480Y-78487783D01*
X288570413Y-78525260D01*
X288530785Y-78586134D01*
X288496375Y-78641811D01*
X288318716Y-78915452D01*
X288137392Y-79157260D01*
X287954300Y-79365295D01*
X287771342Y-79537614D01*
X287590416Y-79672276D01*
X287413421Y-79767342D01*
X287382655Y-79779894D01*
X287259581Y-79814379D01*
X287128031Y-79829067D01*
X287001513Y-79823861D01*
X286893535Y-79798664D01*
X286859806Y-79783632D01*
X286765692Y-79717558D01*
X286673786Y-79625295D01*
X286597854Y-79521377D01*
X286578361Y-79486441D01*
X286534321Y-79391498D01*
X286502143Y-79298506D01*
X286480185Y-79198169D01*
X286466810Y-79081188D01*
X286460379Y-78938265D01*
X286459126Y-78810039D01*
X286459083Y-78467329D01*
X286249259Y-78693623D01*
X285868866Y-79083792D01*
X285482337Y-79440929D01*
X285091287Y-79764060D01*
X284697331Y-80052213D01*
X284302084Y-80304414D01*
X283907161Y-80519693D01*
X283514177Y-80697074D01*
X283124748Y-80835587D01*
X282740488Y-80934259D01*
X282448555Y-80982547D01*
X282136672Y-81003442D01*
X281837390Y-80988006D01*
X281553266Y-80937348D01*
X281286861Y-80852574D01*
X281040732Y-80734790D01*
X280817440Y-80585104D01*
X280619542Y-80404623D01*
X280449599Y-80194452D01*
X280381861Y-80088690D01*
X280293416Y-79916460D01*
X280213106Y-79715580D01*
X280145621Y-79499594D01*
X280095651Y-79282045D01*
X280088496Y-79241485D01*
X280073270Y-79133094D01*
X280059132Y-79000592D01*
X280046628Y-78853275D01*
X280036299Y-78700439D01*
X280028689Y-78551381D01*
X280024343Y-78415396D01*
X280023802Y-78301782D01*
X280027611Y-78219833D01*
X280028361Y-78212791D01*
X280034351Y-78166883D01*
X280036489Y-78134897D01*
X280029374Y-78116981D01*
X280007602Y-78113281D01*
X279965770Y-78123946D01*
X279898476Y-78149122D01*
X279800317Y-78188958D01*
X279721382Y-78221166D01*
X279479617Y-78310715D01*
X279201767Y-78398241D01*
X278894079Y-78482120D01*
X278562801Y-78560727D01*
X278214179Y-78632438D01*
X277971250Y-78676288D01*
X277617674Y-78732108D01*
X277279852Y-78775675D01*
X276946236Y-78807923D01*
X276605277Y-78829782D01*
X276245426Y-78842185D01*
X275867384Y-78846062D01*
X275261916Y-78846292D01*
X275204272Y-78999521D01*
X275112996Y-79203457D01*
X274997238Y-79389347D01*
X274849076Y-79569636D01*
X274824956Y-79595498D01*
X274661691Y-79748908D01*
X274495589Y-79864208D01*
X274319142Y-79945359D01*
X274124841Y-79996326D01*
X274041644Y-80008998D01*
X273844503Y-80014213D01*
X273647831Y-79982893D01*
X273460920Y-79917774D01*
X273293060Y-79821591D01*
X273226142Y-79768840D01*
X273094847Y-79627314D01*
X272989221Y-79456431D01*
X272911824Y-79262303D01*
X272865214Y-79051042D01*
X272851831Y-78875022D01*
X272848916Y-78660795D01*
X272641701Y-78853856D01*
X272364803Y-79105422D01*
X272107534Y-79325445D01*
X271865589Y-79517299D01*
X271634665Y-79684359D01*
X271410457Y-79830001D01*
X271352628Y-79864838D01*
X271132306Y-79989308D01*
X270935468Y-80086482D01*
X270755353Y-80158681D01*
X270585198Y-80208230D01*
X270418243Y-80237450D01*
X270247726Y-80248666D01*
X270234833Y-80248843D01*
X270069959Y-80244736D01*
X269917533Y-80227246D01*
X269774129Y-80194041D01*
X269636322Y-80142787D01*
X269500689Y-80071150D01*
X269363804Y-79976797D01*
X269222243Y-79857394D01*
X269072582Y-79710607D01*
X268911395Y-79534103D01*
X268735259Y-79325548D01*
X268560752Y-79108042D01*
X268461819Y-78984213D01*
X268363792Y-78864702D01*
X268272002Y-78755771D01*
X268191781Y-78663685D01*
X268128459Y-78594707D01*
X268098171Y-78564565D01*
X267936160Y-78437036D01*
X267771394Y-78351549D01*
X267604230Y-78307926D01*
X267435025Y-78305989D01*
X267264138Y-78345562D01*
X267091924Y-78426465D01*
X266918742Y-78548524D01*
X266744949Y-78711559D01*
X266570902Y-78915393D01*
X266396958Y-79159849D01*
X266223474Y-79444749D01*
X266184181Y-79515061D01*
X266105079Y-79666260D01*
X266020344Y-79841056D01*
X265935701Y-80026636D01*
X265856876Y-80210187D01*
X265789593Y-80378897D01*
X265752498Y-80481102D01*
X265721562Y-80566636D01*
X265692453Y-80638982D01*
X265669732Y-80687119D01*
X265662713Y-80698061D01*
X265622291Y-80719999D01*
X265561172Y-80728803D01*
X265499090Y-80723880D01*
X265455780Y-80704641D01*
X265455399Y-80704266D01*
X265445023Y-80690295D01*
X265437761Y-80669475D01*
X265433941Y-80637970D01*
X265433890Y-80591942D01*
X265437932Y-80527555D01*
X265446397Y-80440973D01*
X265459608Y-80328359D01*
X265477894Y-80185876D01*
X265501580Y-80009686D01*
X265530993Y-79795955D01*
X265535376Y-79764331D01*
X265621372Y-79169845D01*
X265713644Y-78579945D01*
X265811470Y-77998054D01*
X265914122Y-77427596D01*
X265943239Y-77276053D01*
X266234333Y-77276053D01*
X266237957Y-77283859D01*
X266250107Y-77276244D01*
X266272700Y-77250515D01*
X266307653Y-77203979D01*
X266356883Y-77133943D01*
X266422305Y-77037713D01*
X266505838Y-76912596D01*
X266609398Y-76755899D01*
X266668762Y-76665666D01*
X266887401Y-76329436D01*
X267083273Y-76020326D01*
X267259904Y-75732280D01*
X267420823Y-75459242D01*
X267569555Y-75195155D01*
X267709628Y-74933963D01*
X267844568Y-74669610D01*
X267917657Y-74521123D01*
X268084390Y-74164614D01*
X268226048Y-73832705D01*
X268342333Y-73526456D01*
X268432946Y-73246930D01*
X268497591Y-72995188D01*
X268535970Y-72772290D01*
X268547783Y-72579297D01*
X268532735Y-72417272D01*
X268521495Y-72369600D01*
X268476428Y-72272846D01*
X268403683Y-72185809D01*
X268315208Y-72120783D01*
X268255940Y-72096420D01*
X268167848Y-72083698D01*
X268083987Y-72098751D01*
X267996629Y-72144547D01*
X267898046Y-72224053D01*
X267879904Y-72240864D01*
X267755322Y-72378598D01*
X267630346Y-72557807D01*
X267504943Y-72778579D01*
X267379080Y-73041003D01*
X267252723Y-73345168D01*
X267125839Y-73691161D01*
X266998395Y-74079072D01*
X266870357Y-74508989D01*
X266741694Y-74981001D01*
X266612371Y-75495196D01*
X266530699Y-75840166D01*
X266500158Y-75974359D01*
X266466839Y-76124720D01*
X266431909Y-76285594D01*
X266396534Y-76451331D01*
X266361882Y-76616276D01*
X266329118Y-76774778D01*
X266299410Y-76921184D01*
X266273925Y-77049840D01*
X266253829Y-77155096D01*
X266240288Y-77231296D01*
X266234470Y-77272790D01*
X266234333Y-77276053D01*
X265943239Y-77276053D01*
X266020876Y-76871994D01*
X266131007Y-76334673D01*
X266243790Y-75819056D01*
X266358499Y-75328567D01*
X266474410Y-74866628D01*
X266590796Y-74436665D01*
X266706934Y-74042100D01*
X266822098Y-73686357D01*
X266823871Y-73681166D01*
X266950708Y-73326715D01*
X267075116Y-73012974D01*
X267197989Y-72738451D01*
X267320224Y-72501654D01*
X267442716Y-72301091D01*
X267566360Y-72135269D01*
X267692052Y-72002697D01*
X267820688Y-71901882D01*
X267927263Y-71842656D01*
X268076304Y-71796250D01*
X268228218Y-71789873D01*
X268376413Y-71822289D01*
X268514298Y-71892264D01*
X268608520Y-71970187D01*
X268693130Y-72071273D01*
X268753916Y-72184618D01*
X268792738Y-72316777D01*
X268811457Y-72474305D01*
X268811935Y-72663759D01*
X268811089Y-72683867D01*
X268786881Y-72914240D01*
X268734167Y-73173905D01*
X268653517Y-73461388D01*
X268545501Y-73775214D01*
X268410689Y-74113907D01*
X268249651Y-74475992D01*
X268062957Y-74859993D01*
X267851177Y-75264435D01*
X267726529Y-75490916D01*
X267555815Y-75788648D01*
X267372040Y-76095605D01*
X267179458Y-76405336D01*
X266982325Y-76711390D01*
X266784896Y-77007314D01*
X266591425Y-77286659D01*
X266406167Y-77542971D01*
X266233377Y-77769801D01*
X266176202Y-77841566D01*
X266154454Y-77871169D01*
X266135058Y-77905177D01*
X266117131Y-77947652D01*
X266099788Y-78002655D01*
X266082145Y-78074245D01*
X266063318Y-78166484D01*
X266042423Y-78283433D01*
X266018575Y-78429152D01*
X265990891Y-78607701D01*
X265958486Y-78823141D01*
X265949862Y-78881099D01*
X265928203Y-79026712D01*
X265908009Y-79162179D01*
X265890309Y-79280616D01*
X265876132Y-79375140D01*
X265866509Y-79438867D01*
X265863317Y-79459666D01*
X265861274Y-79487522D01*
X265869462Y-79488408D01*
X265890434Y-79459226D01*
X265926747Y-79396880D01*
X265950612Y-79353833D01*
X266131200Y-79049052D01*
X266316397Y-78782929D01*
X266505555Y-78555842D01*
X266698028Y-78368167D01*
X266893167Y-78220284D01*
X267090325Y-78112568D01*
X267288855Y-78045398D01*
X267488108Y-78019151D01*
X267687437Y-78034205D01*
X267886194Y-78090937D01*
X268015053Y-78150490D01*
X268089968Y-78194594D01*
X268164617Y-78248110D01*
X268242733Y-78314832D01*
X268328045Y-78398554D01*
X268424286Y-78503070D01*
X268535186Y-78632174D01*
X268664476Y-78789661D01*
X268756482Y-78904444D01*
X268950893Y-79143867D01*
X269126202Y-79349805D01*
X269281860Y-79521669D01*
X269417319Y-79658872D01*
X269532029Y-79760827D01*
X269610416Y-79817837D01*
X269788791Y-79905356D01*
X269986856Y-79956142D01*
X270171333Y-79969924D01*
X270355948Y-79957310D01*
X270542263Y-79918381D01*
X270738968Y-79850804D01*
X270922750Y-79768153D01*
X271156252Y-79642994D01*
X271395952Y-79493227D01*
X271644108Y-79317016D01*
X271902983Y-79112524D01*
X272174837Y-78877916D01*
X272461930Y-78611354D01*
X272766525Y-78311003D01*
X272954750Y-78117839D01*
X273068530Y-78000963D01*
X273180501Y-77888594D01*
X273285093Y-77786123D01*
X273376734Y-77698946D01*
X273449851Y-77632456D01*
X273494500Y-77595301D01*
X273676501Y-77472851D01*
X273874214Y-77367203D01*
X274076518Y-77283217D01*
X274272292Y-77225751D01*
X274386872Y-77205401D01*
X274455958Y-77198539D01*
X274496787Y-77201886D01*
X274522818Y-77218474D01*
X274539575Y-77239771D01*
X274564397Y-77296778D01*
X274574000Y-77358746D01*
X274570609Y-77397795D01*
X274555805Y-77426577D01*
X274522639Y-77449213D01*
X274464160Y-77469821D01*
X274373421Y-77492523D01*
X274332860Y-77501702D01*
X274123083Y-77566641D01*
X273916105Y-77664501D01*
X273719321Y-77789701D01*
X273540126Y-77936660D01*
X273385918Y-78099798D01*
X273264091Y-78273534D01*
X273232308Y-78332136D01*
X273161108Y-78512664D01*
X273123856Y-78697353D01*
X273118640Y-78881322D01*
X273143550Y-79059689D01*
X273196676Y-79227573D01*
X273276107Y-79380092D01*
X273379931Y-79512363D01*
X273506239Y-79619507D01*
X273653120Y-79696640D01*
X273780523Y-79732791D01*
X273943859Y-79742509D01*
X274111903Y-79714350D01*
X274279477Y-79651601D01*
X274441405Y-79557546D01*
X274592510Y-79435473D01*
X274727614Y-79288666D01*
X274841539Y-79120413D01*
X274888959Y-79029236D01*
X274932897Y-78936194D01*
X274957234Y-78874303D01*
X274957775Y-78835716D01*
X274930327Y-78812589D01*
X274870694Y-78797074D01*
X274774682Y-78781324D01*
X274754711Y-78778103D01*
X274546670Y-78733688D01*
X274366601Y-78673665D01*
X274216838Y-78599755D01*
X274099716Y-78513677D01*
X274017572Y-78417151D01*
X273972739Y-78311896D01*
X273967876Y-78206599D01*
X274245627Y-78206599D01*
X274248251Y-78262203D01*
X274277718Y-78297082D01*
X274337288Y-78339797D01*
X274417053Y-78384347D01*
X274507110Y-78424730D01*
X274532360Y-78434306D01*
X274586973Y-78450638D01*
X274670527Y-78471684D01*
X274770305Y-78494636D01*
X274873588Y-78516684D01*
X274967658Y-78535020D01*
X275039797Y-78546836D01*
X275044958Y-78547506D01*
X275057272Y-78531238D01*
X275060715Y-78501875D01*
X275040446Y-78383516D01*
X274984962Y-78272671D01*
X274901353Y-78175304D01*
X274796709Y-78097380D01*
X274678118Y-78044861D01*
X274552672Y-78023713D01*
X274495134Y-78026102D01*
X274408391Y-78048631D01*
X274332789Y-78091104D01*
X274275983Y-78146200D01*
X274245627Y-78206599D01*
X273967876Y-78206599D01*
X273967554Y-78199631D01*
X273967695Y-78198590D01*
X273986343Y-78117097D01*
X274015834Y-78036418D01*
X274022024Y-78023553D01*
X274100245Y-77913550D01*
X274204589Y-77831357D01*
X274329141Y-77777110D01*
X274467989Y-77750943D01*
X274615220Y-77752992D01*
X274764920Y-77783392D01*
X274911176Y-77842279D01*
X275048075Y-77929788D01*
X275125472Y-77998289D01*
X275226345Y-78118895D01*
X275290959Y-78247050D01*
X275325121Y-78395068D01*
X275328989Y-78430037D01*
X275341656Y-78565687D01*
X275437032Y-78578760D01*
X275513517Y-78585311D01*
X275624317Y-78589468D01*
X275761486Y-78591296D01*
X275917076Y-78590860D01*
X276083141Y-78588222D01*
X276251734Y-78583447D01*
X276414908Y-78576600D01*
X276532277Y-78569928D01*
X276939523Y-78536955D01*
X277345916Y-78491317D01*
X277746703Y-78434050D01*
X278137135Y-78366190D01*
X278512458Y-78288776D01*
X278867923Y-78202842D01*
X279198776Y-78109426D01*
X279500267Y-78009566D01*
X279767644Y-77904296D01*
X279931233Y-77828312D01*
X280049717Y-77768979D01*
X280063906Y-77582447D01*
X280082244Y-77395916D01*
X280350755Y-77395916D01*
X280416806Y-77321833D01*
X280449750Y-77281896D01*
X280502539Y-77214366D01*
X280570108Y-77125884D01*
X280647392Y-77023085D01*
X280729329Y-76912608D01*
X280738278Y-76900449D01*
X280927035Y-76638658D01*
X281129827Y-76348098D01*
X281340926Y-76037438D01*
X281554605Y-75715347D01*
X281765137Y-75390494D01*
X281966793Y-75071548D01*
X282153847Y-74767177D01*
X282214973Y-74665416D01*
X282376676Y-74383812D01*
X282531625Y-74093419D01*
X282676207Y-73801938D01*
X282806809Y-73517070D01*
X282919816Y-73246515D01*
X283011617Y-72997977D01*
X283044228Y-72898000D01*
X283068044Y-72811600D01*
X283083039Y-72728156D01*
X283090958Y-72633314D01*
X283093546Y-72512720D01*
X283093583Y-72492093D01*
X283092730Y-72382702D01*
X283089311Y-72306590D01*
X283082035Y-72254722D01*
X283069613Y-72218063D01*
X283050754Y-72187577D01*
X283049942Y-72186485D01*
X282976737Y-72106396D01*
X282897722Y-72061297D01*
X282800168Y-72044416D01*
X282781950Y-72043880D01*
X282654509Y-72062371D01*
X282518609Y-72120239D01*
X282375916Y-72215753D01*
X282228094Y-72347185D01*
X282076808Y-72512806D01*
X281923723Y-72710886D01*
X281770503Y-72939695D01*
X281618814Y-73197506D01*
X281552120Y-73321333D01*
X281370638Y-73692778D01*
X281196484Y-74098989D01*
X281031902Y-74532705D01*
X280879138Y-74986664D01*
X280740439Y-75453607D01*
X280618050Y-75926271D01*
X280514218Y-76397395D01*
X280431188Y-76859719D01*
X280406413Y-77025500D01*
X280391684Y-77128987D01*
X280378060Y-77222836D01*
X280367206Y-77295686D01*
X280361435Y-77332416D01*
X280350755Y-77395916D01*
X280082244Y-77395916D01*
X280086246Y-77355211D01*
X280120524Y-77096059D01*
X280165218Y-76813212D01*
X280218804Y-76514889D01*
X280279758Y-76209311D01*
X280346558Y-75904699D01*
X280417680Y-75609271D01*
X280459099Y-75449896D01*
X280579643Y-75027309D01*
X280710943Y-74618775D01*
X280851606Y-74227118D01*
X281000236Y-73855161D01*
X281155438Y-73505724D01*
X281315817Y-73181632D01*
X281479979Y-72885706D01*
X281646528Y-72620768D01*
X281814070Y-72389642D01*
X281981209Y-72195149D01*
X282142873Y-72043135D01*
X282281087Y-71937197D01*
X282404348Y-71861939D01*
X282521734Y-71813190D01*
X282642323Y-71786782D01*
X282715396Y-71780158D01*
X282876324Y-71783208D01*
%TD*%
M02*
