M48
; DRILL file {KiCad (5.1.10)-1} date 10/10/21 16:42:09
; FORMAT={-:-/ absolute / metric / decimal}
; #@! TF.CreationDate,2021-10-10T16:42:09+07:00
; #@! TF.GenerationSoftware,Kicad,Pcbnew,(5.1.10)-1
; #@! TF.FileFunction,NonPlated,1,2,NPTH
FMAT,2
METRIC
T1C0.650
T2C1.750
T3C3.048
T4C3.988
%
G90
G05
T1
X15.564Y-43.343
X21.344Y-43.343
T2
X4.286Y-47.942
X6.668Y-86.042
X6.668Y-124.143
X9.049Y-124.143
X9.049Y-66.992
X11.43Y-86.042
X14.446Y-47.942
X16.193Y-105.093
X16.828Y-86.042
X16.828Y-124.143
X19.209Y-124.143
X19.209Y-66.992
X21.59Y-86.042
X23.336Y-47.942
X26.353Y-105.093
X30.48Y-124.143
X32.861Y-66.992
X32.862Y-124.143
X33.496Y-47.942
X37.624Y-86.042
X40.64Y-124.143
X42.386Y-47.942
X43.021Y-66.992
X43.022Y-124.143
X47.149Y-105.093
X47.784Y-86.042
X51.911Y-66.992
X52.546Y-47.942
X54.293Y-124.143
X56.674Y-86.042
X56.674Y-124.143
X57.309Y-105.093
X61.436Y-47.942
X62.071Y-66.992
X64.453Y-124.143
X66.199Y-105.093
X66.834Y-86.042
X66.834Y-124.143
X70.961Y-66.992
X71.596Y-47.942
X75.724Y-86.042
X76.359Y-105.093
X80.486Y-47.942
X81.121Y-66.992
X85.249Y-105.093
X85.884Y-86.042
X87.63Y-124.143
X90.011Y-66.992
X90.646Y-47.942
X94.774Y-86.042
X95.409Y-105.093
X97.79Y-124.143
X99.536Y-47.942
X100.171Y-66.992
X104.299Y-105.093
X104.934Y-86.042
X109.061Y-66.992
X109.696Y-47.942
X113.824Y-86.042
X114.459Y-105.093
X118.586Y-47.942
X119.221Y-66.992
X120.968Y-124.143
X123.349Y-105.093
X123.984Y-86.042
X125.731Y-124.143
X128.111Y-66.992
X128.746Y-47.942
X131.128Y-124.143
X132.874Y-86.042
X133.509Y-105.093
X135.891Y-124.143
X137.636Y-47.942
X137.637Y-124.143
X138.271Y-66.992
X142.399Y-105.093
X143.034Y-86.042
X147.161Y-66.992
X147.796Y-47.942
X147.797Y-124.143
X151.924Y-86.042
X152.559Y-105.093
X156.686Y-47.942
X157.321Y-66.992
X159.068Y-124.143
X161.449Y-105.093
X162.084Y-86.042
X166.211Y-66.992
X166.846Y-47.942
X169.228Y-124.143
X170.974Y-86.042
X171.609Y-105.093
X175.736Y-47.942
X176.371Y-66.992
X180.499Y-105.093
X181.134Y-86.042
X185.261Y-66.992
X185.896Y-47.942
X190.024Y-86.042
X190.659Y-105.093
X194.786Y-47.942
X195.421Y-66.992
X197.168Y-124.143
X199.549Y-105.093
X200.184Y-86.042
X204.311Y-66.992
X204.946Y-47.942
X207.328Y-124.143
X209.074Y-86.042
X209.709Y-105.093
X213.836Y-47.942
X214.471Y-66.992
X218.599Y-105.093
X218.6Y-124.143
X219.234Y-86.042
X220.981Y-124.143
X223.361Y-66.992
X223.996Y-47.942
X228.124Y-86.042
X228.759Y-105.093
X228.76Y-124.143
X231.141Y-124.143
X232.886Y-47.942
X233.521Y-66.992
X238.284Y-86.042
X242.411Y-66.992
X243.046Y-47.942
X244.793Y-105.093
X247.174Y-86.042
X251.936Y-47.942
X251.937Y-124.143
X252.571Y-66.992
X254.953Y-105.093
X257.334Y-86.042
X259.08Y-86.042
X261.461Y-47.942
X262.096Y-47.942
X262.097Y-124.143
X266.224Y-66.992
X269.24Y-86.042
X270.986Y-47.942
X270.987Y-105.093
X270.988Y-124.143
X271.621Y-47.942
X273.685Y-71.438
X273.685Y-81.597
X276.384Y-66.992
X281.146Y-47.942
X281.147Y-105.093
X281.148Y-124.143
X290.036Y-47.942
X290.037Y-66.992
X290.037Y-86.042
X290.037Y-105.093
X290.038Y-124.143
X300.196Y-47.942
X300.197Y-66.992
X300.197Y-86.042
X300.197Y-105.093
X300.198Y-124.143
T3
X9.366Y-98.108
X33.179Y-98.108
X80.804Y-131.128
X80.811Y-131.128
X85.567Y-131.128
X104.617Y-131.128
X152.242Y-131.128
X176.054Y-131.128
X180.811Y-131.128
X199.867Y-131.128
X252.254Y-79.057
X254.635Y-40.957
X276.066Y-79.057
X278.447Y-40.957
X280.67Y-64.579
X280.67Y-88.456
T4
X9.366Y-47.942
X9.366Y-113.347
X11.748Y-86.042
X11.748Y-124.143
X14.129Y-124.143
X14.129Y-66.992
X16.51Y-86.042
X21.273Y-105.093
X28.416Y-47.942
X33.179Y-113.347
X35.56Y-124.143
X37.941Y-66.992
X37.942Y-124.143
X42.704Y-86.042
X47.466Y-47.942
X52.229Y-105.093
X56.991Y-66.992
X59.373Y-124.143
X61.754Y-86.042
X61.754Y-124.143
X66.516Y-47.942
X71.279Y-105.093
X76.041Y-66.992
X80.804Y-86.042
X80.804Y-115.888
X80.811Y-115.888
X85.566Y-47.942
X85.567Y-115.888
X90.329Y-105.093
X92.71Y-124.143
X95.091Y-66.992
X99.854Y-86.042
X104.616Y-47.942
X104.617Y-115.888
X109.379Y-105.093
X114.141Y-66.992
X118.904Y-86.042
X123.666Y-47.942
X126.048Y-124.143
X128.429Y-105.093
X130.811Y-124.143
X133.191Y-66.992
X137.954Y-86.042
X142.716Y-47.942
X142.717Y-124.143
X147.479Y-105.093
X152.241Y-66.992
X152.242Y-115.888
X157.004Y-86.042
X161.766Y-47.942
X164.148Y-124.143
X166.529Y-105.093
X171.291Y-66.992
X176.054Y-86.042
X176.054Y-115.888
X180.811Y-115.888
X180.816Y-47.942
X185.579Y-105.093
X190.341Y-66.992
X195.104Y-86.042
X199.866Y-47.942
X199.867Y-115.888
X202.248Y-124.143
X204.629Y-105.093
X209.391Y-66.992
X214.154Y-86.042
X218.916Y-47.942
X223.679Y-105.093
X223.68Y-124.143
X226.061Y-124.143
X228.441Y-66.992
X233.204Y-86.042
X237.966Y-47.942
X247.491Y-66.992
X249.873Y-105.093
X252.254Y-86.042
X252.254Y-94.297
X254.635Y-56.197
X257.016Y-47.942
X257.017Y-124.143
X264.16Y-86.042
X265.43Y-64.579
X265.43Y-88.456
X266.541Y-47.942
X271.304Y-66.992
X273.685Y-76.517
X276.066Y-47.942
X276.066Y-94.297
X276.067Y-105.093
X276.068Y-124.143
X278.447Y-56.197
X295.116Y-47.942
X295.117Y-66.992
X295.117Y-86.042
X295.117Y-105.093
X295.118Y-124.143
T0
M30
