  0
SECTION
  2
HEADER
  9
$ANGBASE
  50
0.0
  9
$ANGDIR
  70
1
  9
$MEASUREMENT
  70
1
  0
ENDSEC
  0
SECTION
  2
TABLES
  0
TABLE
  2
LTYPE
  70
4
  0
LTYPE
  5
40F
  2
CONTINUOUS
  70
0
  3
Solid line
  72
65
  73
0
  40
0.0
  0
LTYPE
  5
410
  2
DASHDOT
 70
0
  3
Dash Dot ____ _ ____ _
 72
65
 73
4
 40
2.0
 49
1.25
 49
-0.25
 49
0.25
 49
-0.25
  0
LTYPE
  5
411
  2
DASHED
 70
0
  3
Dashed __ __ __ __ __
 72
65
 73
2
 40
0.75
 49
0.5
 49
-0.25
  0
LTYPE
  5
43B
  2
DOTTED
 70
0
  3
Dotted .  .  .  .
 72
65
 73
2
 40
0.2
 49
0.0
 49
-0.2
  0
ENDTAB
  0
TABLE
  2
STYLE
  70
4
  0
STYLE
  2
KICAD
  70
0
  40
0
  41
1
  42
1
  50
0
  71
0
  3
isocp.shx
  0
STYLE
  2
KICADB
  70
0
  40
0
  41
1
  42
1
  50
0
  71
0
  3
isocp.shx
  0
STYLE
  2
KICADI
  70
0
  40
0
  41
1
  42
1
  50
15
  71
0
  3
isocp.shx
  0
STYLE
  2
KICADBI
  70
0
  40
0
  41
1
  42
1
  50
15
  71
0
  3
isocp.shx
  0
ENDTAB
  0
TABLE
  2
LAYER
  70
1
  0
LAYER
  2
BLACK
  70
0
  62
7
  6
CONTINUOUS
  0
ENDTAB
  0
ENDSEC
  0
SECTION
  2
ENTITIES
0
LINE
8
BLACK
6
CONTINUOUS
10
45.2413
20
-129.231
11
45.2413
21
-129.231
0
LINE
8
BLACK
6
CONTINUOUS
10
45.2413
20
-129.231
11
44.6586
21
-129.174
0
LINE
8
BLACK
6
CONTINUOUS
10
44.6586
20
-129.174
11
44.6583
21
-129.174
0
LINE
8
BLACK
6
CONTINUOUS
10
44.6583
20
-129.174
11
44.656
21
-129.173
0
LINE
8
BLACK
6
CONTINUOUS
10
44.656
20
-129.173
11
44.6538
21
-129.173
0
LINE
8
BLACK
6
CONTINUOUS
10
44.6538
20
-129.173
11
44.0933
21
-129.004
0
LINE
8
BLACK
6
CONTINUOUS
10
44.0933
20
-129.004
11
44.093
21
-129.004
0
LINE
8
BLACK
6
CONTINUOUS
10
44.093
20
-129.004
11
44.0909
21
-129.003
0
LINE
8
BLACK
6
CONTINUOUS
10
44.0909
20
-129.003
11
44.0888
21
-129.002
0
LINE
8
BLACK
6
CONTINUOUS
10
44.0888
20
-129.002
11
43.5718
21
-128.727
0
LINE
8
BLACK
6
CONTINUOUS
10
43.5718
20
-128.727
11
43.5715
21
-128.727
0
LINE
8
BLACK
6
CONTINUOUS
10
43.5715
20
-128.727
11
43.5697
21
-128.726
0
LINE
8
BLACK
6
CONTINUOUS
10
43.5697
20
-128.726
11
43.5678
21
-128.724
0
LINE
8
BLACK
6
CONTINUOUS
10
43.5678
20
-128.724
11
43.114
21
-128.354
0
LINE
8
BLACK
6
CONTINUOUS
10
43.114
20
-128.354
11
43.1138
21
-128.354
0
LINE
8
BLACK
6
CONTINUOUS
10
43.1138
20
-128.354
11
43.1122
21
-128.353
0
LINE
8
BLACK
6
CONTINUOUS
10
43.1122
20
-128.353
11
43.1106
21
-128.351
0
LINE
8
BLACK
6
CONTINUOUS
10
43.1106
20
-128.351
11
42.7374
21
-127.9
0
LINE
8
BLACK
6
CONTINUOUS
10
42.7374
20
-127.9
11
42.7372
21
-127.899
0
LINE
8
BLACK
6
CONTINUOUS
10
42.7372
20
-127.899
11
42.7359
21
-127.898
0
LINE
8
BLACK
6
CONTINUOUS
10
42.7359
20
-127.898
11
42.7346
21
-127.896
0
LINE
8
BLACK
6
CONTINUOUS
10
42.7346
20
-127.896
11
42.4562
21
-127.381
0
LINE
8
BLACK
6
CONTINUOUS
10
42.4562
20
-127.381
11
42.456
21
-127.38
0
LINE
8
BLACK
6
CONTINUOUS
10
42.456
20
-127.38
11
42.4552
21
-127.378
0
LINE
8
BLACK
6
CONTINUOUS
10
42.4552
20
-127.378
11
42.4543
21
-127.376
0
LINE
8
BLACK
6
CONTINUOUS
10
42.4543
20
-127.376
11
42.2811
21
-126.817
0
LINE
8
BLACK
6
CONTINUOUS
10
42.2811
20
-126.817
11
42.281
21
-126.817
0
LINE
8
BLACK
6
CONTINUOUS
10
42.281
20
-126.817
11
42.2806
21
-126.814
0
LINE
8
BLACK
6
CONTINUOUS
10
42.2806
20
-126.814
11
42.2802
21
-126.812
0
LINE
8
BLACK
6
CONTINUOUS
10
42.2802
20
-126.812
11
42.219
21
-126.23
0
LINE
8
BLACK
6
CONTINUOUS
10
42.219
20
-126.23
11
42.2189
21
-126.229
0
LINE
8
BLACK
6
CONTINUOUS
10
42.2189
20
-126.229
11
42.2189
21
-126.228
0
LINE
8
BLACK
6
CONTINUOUS
10
42.2189
20
-126.228
11
42.2188
21
-126.227
0
LINE
8
BLACK
6
CONTINUOUS
10
42.2188
20
-126.227
11
42.2188
21
-126.207
0
LINE
8
BLACK
6
CONTINUOUS
10
42.2188
20
-126.207
11
42.2188
21
-126.207
0
LINE
8
BLACK
6
CONTINUOUS
10
42.2188
20
-126.207
11
42.2188
21
-126.207
0
LINE
8
BLACK
6
CONTINUOUS
10
42.2188
20
-126.207
11
42.2188
21
-126.206
0
LINE
8
BLACK
6
CONTINUOUS
10
42.2188
20
-126.206
11
42.2188
21
-126.206
0
LINE
8
BLACK
6
CONTINUOUS
10
42.2188
20
-126.206
11
42.2188
21
-35.7175
0
LINE
8
BLACK
6
CONTINUOUS
10
42.2188
20
-35.7175
11
42.2189
21
-35.7163
0
LINE
8
BLACK
6
CONTINUOUS
10
42.2189
20
-35.7163
11
42.2189
21
-35.7163
0
LINE
8
BLACK
6
CONTINUOUS
10
42.2189
20
-35.7163
11
42.276
21
-35.1336
0
LINE
8
BLACK
6
CONTINUOUS
10
42.276
20
-35.1336
11
42.276
21
-35.1333
0
LINE
8
BLACK
6
CONTINUOUS
10
42.276
20
-35.1333
11
42.2765
21
-35.131
0
LINE
8
BLACK
6
CONTINUOUS
10
42.2765
20
-35.131
11
42.277
21
-35.1288
0
LINE
8
BLACK
6
CONTINUOUS
10
42.277
20
-35.1288
11
42.4462
21
-34.5683
0
LINE
8
BLACK
6
CONTINUOUS
10
42.4462
20
-34.5683
11
42.4463
21
-34.568
0
LINE
8
BLACK
6
CONTINUOUS
10
42.4463
20
-34.568
11
42.4472
21
-34.5659
0
LINE
8
BLACK
6
CONTINUOUS
10
42.4472
20
-34.5659
11
42.448
21
-34.5638
0
LINE
8
BLACK
6
CONTINUOUS
10
42.448
20
-34.5638
11
42.7229
21
-34.0468
0
LINE
8
BLACK
6
CONTINUOUS
10
42.7229
20
-34.0468
11
42.7231
21
-34.0465
0
LINE
8
BLACK
6
CONTINUOUS
10
42.7231
20
-34.0465
11
42.7244
21
-34.0447
0
LINE
8
BLACK
6
CONTINUOUS
10
42.7244
20
-34.0447
11
42.7256
21
-34.0428
0
LINE
8
BLACK
6
CONTINUOUS
10
42.7256
20
-34.0428
11
43.0957
21
-33.5891
0
LINE
8
BLACK
6
CONTINUOUS
10
43.0957
20
-33.5891
11
43.0957
21
-33.589
0
LINE
8
BLACK
6
CONTINUOUS
10
43.0957
20
-33.589
11
43.0957
21
-33.589
0
LINE
8
BLACK
6
CONTINUOUS
10
43.0957
20
-33.589
11
43.0959
21
-33.5888
0
LINE
8
BLACK
6
CONTINUOUS
10
43.0959
20
-33.5888
11
43.0975
21
-33.5872
0
LINE
8
BLACK
6
CONTINUOUS
10
43.0975
20
-33.5872
11
43.0991
21
-33.5856
0
LINE
8
BLACK
6
CONTINUOUS
10
43.0991
20
-33.5856
11
43.5502
21
-33.2124
0
LINE
8
BLACK
6
CONTINUOUS
10
43.5502
20
-33.2124
11
43.5505
21
-33.2122
0
LINE
8
BLACK
6
CONTINUOUS
10
43.5505
20
-33.2122
11
43.5524
21
-33.2109
0
LINE
8
BLACK
6
CONTINUOUS
10
43.5524
20
-33.2109
11
43.5543
21
-33.2096
0
LINE
8
BLACK
6
CONTINUOUS
10
43.5543
20
-33.2096
11
44.0693
21
-32.9312
0
LINE
8
BLACK
6
CONTINUOUS
10
44.0693
20
-32.9312
11
44.0696
21
-32.931
0
LINE
8
BLACK
6
CONTINUOUS
10
44.0696
20
-32.931
11
44.0717
21
-32.9302
0
LINE
8
BLACK
6
CONTINUOUS
10
44.0717
20
-32.9302
11
44.0738
21
-32.9293
0
LINE
8
BLACK
6
CONTINUOUS
10
44.0738
20
-32.9293
11
44.6331
21
-32.7561
0
LINE
8
BLACK
6
CONTINUOUS
10
44.6331
20
-32.7561
11
44.6331
21
-32.7561
0
LINE
8
BLACK
6
CONTINUOUS
10
44.6331
20
-32.7561
11
44.6335
21
-32.756
0
LINE
8
BLACK
6
CONTINUOUS
10
44.6335
20
-32.756
11
44.6357
21
-32.7556
0
LINE
8
BLACK
6
CONTINUOUS
10
44.6357
20
-32.7556
11
44.6379
21
-32.7552
0
LINE
8
BLACK
6
CONTINUOUS
10
44.6379
20
-32.7552
11
45.2202
21
-32.694
0
LINE
8
BLACK
6
CONTINUOUS
10
45.2202
20
-32.694
11
45.2205
21
-32.6939
0
LINE
8
BLACK
6
CONTINUOUS
10
45.2205
20
-32.6939
11
45.2216
21
-32.6939
0
LINE
8
BLACK
6
CONTINUOUS
10
45.2216
20
-32.6939
11
45.2227
21
-32.6938
0
LINE
8
BLACK
6
CONTINUOUS
10
45.2227
20
-32.6938
11
45.2425
21
-32.6938
0
LINE
8
BLACK
6
CONTINUOUS
10
45.2425
20
-32.6938
11
45.2425
21
-32.6938
0
LINE
8
BLACK
6
CONTINUOUS
10
45.2425
20
-32.6938
11
183.357
21
-32.6938
0
LINE
8
BLACK
6
CONTINUOUS
10
183.357
20
-32.6938
11
183.359
21
-32.6939
0
LINE
8
BLACK
6
CONTINUOUS
10
183.359
20
-32.6939
11
183.359
21
-32.6939
0
LINE
8
BLACK
6
CONTINUOUS
10
183.359
20
-32.6939
11
183.941
21
-32.751
0
LINE
8
BLACK
6
CONTINUOUS
10
183.941
20
-32.751
11
183.942
21
-32.751
0
LINE
8
BLACK
6
CONTINUOUS
10
183.942
20
-32.751
11
183.944
21
-32.7515
0
LINE
8
BLACK
6
CONTINUOUS
10
183.944
20
-32.7515
11
183.946
21
-32.752
0
LINE
8
BLACK
6
CONTINUOUS
10
183.946
20
-32.752
11
184.507
21
-32.9212
0
LINE
8
BLACK
6
CONTINUOUS
10
184.507
20
-32.9212
11
184.507
21
-32.9213
0
LINE
8
BLACK
6
CONTINUOUS
10
184.507
20
-32.9213
11
184.509
21
-32.9222
0
LINE
8
BLACK
6
CONTINUOUS
10
184.509
20
-32.9222
11
184.511
21
-32.923
0
LINE
8
BLACK
6
CONTINUOUS
10
184.511
20
-32.923
11
185.028
21
-33.1979
0
LINE
8
BLACK
6
CONTINUOUS
10
185.028
20
-33.1979
11
185.028
21
-33.1981
0
LINE
8
BLACK
6
CONTINUOUS
10
185.028
20
-33.1981
11
185.03
21
-33.1994
0
LINE
8
BLACK
6
CONTINUOUS
10
185.03
20
-33.1994
11
185.032
21
-33.2006
0
LINE
8
BLACK
6
CONTINUOUS
10
185.032
20
-33.2006
11
185.486
21
-33.5707
0
LINE
8
BLACK
6
CONTINUOUS
10
185.486
20
-33.5707
11
185.486
21
-33.5707
0
LINE
8
BLACK
6
CONTINUOUS
10
185.486
20
-33.5707
11
185.486
21
-33.5707
0
LINE
8
BLACK
6
CONTINUOUS
10
185.486
20
-33.5707
11
185.486
21
-33.5709
0
LINE
8
BLACK
6
CONTINUOUS
10
185.486
20
-33.5709
11
185.488
21
-33.5725
0
LINE
8
BLACK
6
CONTINUOUS
10
185.488
20
-33.5725
11
185.489
21
-33.5741
0
LINE
8
BLACK
6
CONTINUOUS
10
185.489
20
-33.5741
11
185.863
21
-34.0252
0
LINE
8
BLACK
6
CONTINUOUS
10
185.863
20
-34.0252
11
185.863
21
-34.0255
0
LINE
8
BLACK
6
CONTINUOUS
10
185.863
20
-34.0255
11
185.864
21
-34.0274
0
LINE
8
BLACK
6
CONTINUOUS
10
185.864
20
-34.0274
11
185.865
21
-34.0293
0
LINE
8
BLACK
6
CONTINUOUS
10
185.865
20
-34.0293
11
186.144
21
-34.5443
0
LINE
8
BLACK
6
CONTINUOUS
10
186.144
20
-34.5443
11
186.144
21
-34.5446
0
LINE
8
BLACK
6
CONTINUOUS
10
186.144
20
-34.5446
11
186.145
21
-34.5467
0
LINE
8
BLACK
6
CONTINUOUS
10
186.145
20
-34.5467
11
186.146
21
-34.5488
0
LINE
8
BLACK
6
CONTINUOUS
10
186.146
20
-34.5488
11
186.319
21
-35.1081
0
LINE
8
BLACK
6
CONTINUOUS
10
186.319
20
-35.1081
11
186.319
21
-35.1085
0
LINE
8
BLACK
6
CONTINUOUS
10
186.319
20
-35.1085
11
186.319
21
-35.1107
0
LINE
8
BLACK
6
CONTINUOUS
10
186.319
20
-35.1107
11
186.32
21
-35.1129
0
LINE
8
BLACK
6
CONTINUOUS
10
186.32
20
-35.1129
11
186.381
21
-35.6952
0
LINE
8
BLACK
6
CONTINUOUS
10
186.381
20
-35.6952
11
186.381
21
-35.6955
0
LINE
8
BLACK
6
CONTINUOUS
10
186.381
20
-35.6955
11
186.381
21
-35.6966
0
LINE
8
BLACK
6
CONTINUOUS
10
186.381
20
-35.6966
11
186.381
21
-35.6977
0
LINE
8
BLACK
6
CONTINUOUS
10
186.381
20
-35.6977
11
186.381
21
-35.7175
0
LINE
8
BLACK
6
CONTINUOUS
10
186.381
20
-35.7175
11
186.381
21
-35.7175
0
LINE
8
BLACK
6
CONTINUOUS
10
186.381
20
-35.7175
11
186.381
21
-126.207
0
LINE
8
BLACK
6
CONTINUOUS
10
186.381
20
-126.207
11
186.381
21
-126.209
0
LINE
8
BLACK
6
CONTINUOUS
10
186.381
20
-126.209
11
186.381
21
-126.209
0
LINE
8
BLACK
6
CONTINUOUS
10
186.381
20
-126.209
11
186.324
21
-126.791
0
LINE
8
BLACK
6
CONTINUOUS
10
186.324
20
-126.791
11
186.324
21
-126.792
0
LINE
8
BLACK
6
CONTINUOUS
10
186.324
20
-126.792
11
186.323
21
-126.794
0
LINE
8
BLACK
6
CONTINUOUS
10
186.323
20
-126.794
11
186.323
21
-126.796
0
LINE
8
BLACK
6
CONTINUOUS
10
186.323
20
-126.796
11
186.154
21
-127.357
0
LINE
8
BLACK
6
CONTINUOUS
10
186.154
20
-127.357
11
186.154
21
-127.357
0
LINE
8
BLACK
6
CONTINUOUS
10
186.154
20
-127.357
11
186.153
21
-127.359
0
LINE
8
BLACK
6
CONTINUOUS
10
186.153
20
-127.359
11
186.152
21
-127.361
0
LINE
8
BLACK
6
CONTINUOUS
10
186.152
20
-127.361
11
185.877
21
-127.878
0
LINE
8
BLACK
6
CONTINUOUS
10
185.877
20
-127.878
11
185.877
21
-127.878
0
LINE
8
BLACK
6
CONTINUOUS
10
185.877
20
-127.878
11
185.876
21
-127.88
0
LINE
8
BLACK
6
CONTINUOUS
10
185.876
20
-127.88
11
185.874
21
-127.882
0
LINE
8
BLACK
6
CONTINUOUS
10
185.874
20
-127.882
11
185.504
21
-128.336
0
LINE
8
BLACK
6
CONTINUOUS
10
185.504
20
-128.336
11
185.504
21
-128.336
0
LINE
8
BLACK
6
CONTINUOUS
10
185.504
20
-128.336
11
185.503
21
-128.338
0
LINE
8
BLACK
6
CONTINUOUS
10
185.503
20
-128.338
11
185.501
21
-128.339
0
LINE
8
BLACK
6
CONTINUOUS
10
185.501
20
-128.339
11
185.05
21
-128.713
0
LINE
8
BLACK
6
CONTINUOUS
10
185.05
20
-128.713
11
185.049
21
-128.713
0
LINE
8
BLACK
6
CONTINUOUS
10
185.049
20
-128.713
11
185.048
21
-128.714
0
LINE
8
BLACK
6
CONTINUOUS
10
185.048
20
-128.714
11
185.046
21
-128.715
0
LINE
8
BLACK
6
CONTINUOUS
10
185.046
20
-128.715
11
184.531
21
-128.994
0
LINE
8
BLACK
6
CONTINUOUS
10
184.531
20
-128.994
11
184.53
21
-128.994
0
LINE
8
BLACK
6
CONTINUOUS
10
184.53
20
-128.994
11
184.528
21
-128.995
0
LINE
8
BLACK
6
CONTINUOUS
10
184.528
20
-128.995
11
184.526
21
-128.996
0
LINE
8
BLACK
6
CONTINUOUS
10
184.526
20
-128.996
11
183.967
21
-129.169
0
LINE
8
BLACK
6
CONTINUOUS
10
183.967
20
-129.169
11
183.967
21
-129.169
0
LINE
8
BLACK
6
CONTINUOUS
10
183.967
20
-129.169
11
183.964
21
-129.169
0
LINE
8
BLACK
6
CONTINUOUS
10
183.964
20
-129.169
11
183.962
21
-129.17
0
LINE
8
BLACK
6
CONTINUOUS
10
183.962
20
-129.17
11
183.38
21
-129.231
0
LINE
8
BLACK
6
CONTINUOUS
10
183.38
20
-129.231
11
183.379
21
-129.231
0
LINE
8
BLACK
6
CONTINUOUS
10
183.379
20
-129.231
11
183.378
21
-129.231
0
LINE
8
BLACK
6
CONTINUOUS
10
183.378
20
-129.231
11
183.377
21
-129.231
0
LINE
8
BLACK
6
CONTINUOUS
10
183.377
20
-129.231
11
183.358
21
-129.231
0
LINE
8
BLACK
6
CONTINUOUS
10
183.358
20
-129.231
11
183.357
21
-129.231
0
LINE
8
BLACK
6
CONTINUOUS
10
183.357
20
-129.231
11
45.2425
21
-129.231
0
LINE
8
BLACK
6
CONTINUOUS
10
45.2425
20
-129.231
11
45.2413
21
-129.231
0
LINE
8
BLACK
6
CONTINUOUS
10
45.2438
20
-32.7437
11
45.2242
21
-32.7438
0
LINE
8
BLACK
6
CONTINUOUS
10
45.2242
20
-32.7438
11
44.6456
21
-32.8046
0
LINE
8
BLACK
6
CONTINUOUS
10
44.6456
20
-32.8046
11
44.0909
21
-32.9763
0
LINE
8
BLACK
6
CONTINUOUS
10
44.0909
20
-32.9763
11
43.5802
21
-33.2525
0
LINE
8
BLACK
6
CONTINUOUS
10
43.5802
20
-33.2525
11
43.1329
21
-33.6225
0
LINE
8
BLACK
6
CONTINUOUS
10
43.1329
20
-33.6225
11
42.7659
21
-34.0725
0
LINE
8
BLACK
6
CONTINUOUS
10
42.7659
20
-34.0725
11
42.4933
21
-34.5851
0
LINE
8
BLACK
6
CONTINUOUS
10
42.4933
20
-34.5851
11
42.3255
21
-35.1409
0
LINE
8
BLACK
6
CONTINUOUS
10
42.3255
20
-35.1409
11
42.2687
21
-35.72
0
LINE
8
BLACK
6
CONTINUOUS
10
42.2687
20
-35.72
11
42.2687
21
-126.206
0
LINE
8
BLACK
6
CONTINUOUS
10
42.2687
20
-126.206
11
42.2688
21
-126.226
0
LINE
8
BLACK
6
CONTINUOUS
10
42.2688
20
-126.226
11
42.3296
21
-126.804
0
LINE
8
BLACK
6
CONTINUOUS
10
42.3296
20
-126.804
11
42.5013
21
-127.359
0
LINE
8
BLACK
6
CONTINUOUS
10
42.5013
20
-127.359
11
42.7775
21
-127.87
0
LINE
8
BLACK
6
CONTINUOUS
10
42.7775
20
-127.87
11
43.1475
21
-128.317
0
LINE
8
BLACK
6
CONTINUOUS
10
43.1475
20
-128.317
11
43.5975
21
-128.684
0
LINE
8
BLACK
6
CONTINUOUS
10
43.5975
20
-128.684
11
44.1101
21
-128.957
0
LINE
8
BLACK
6
CONTINUOUS
10
44.1101
20
-128.957
11
44.6659
21
-129.124
0
LINE
8
BLACK
6
CONTINUOUS
10
44.6659
20
-129.124
11
45.245
21
-129.181
0
LINE
8
BLACK
6
CONTINUOUS
10
45.245
20
-129.181
11
183.356
21
-129.181
0
LINE
8
BLACK
6
CONTINUOUS
10
183.356
20
-129.181
11
183.376
21
-129.181
0
LINE
8
BLACK
6
CONTINUOUS
10
183.376
20
-129.181
11
183.954
21
-129.12
0
LINE
8
BLACK
6
CONTINUOUS
10
183.954
20
-129.12
11
184.509
21
-128.949
0
LINE
8
BLACK
6
CONTINUOUS
10
184.509
20
-128.949
11
185.02
21
-128.673
0
LINE
8
BLACK
6
CONTINUOUS
10
185.02
20
-128.673
11
185.467
21
-128.302
0
LINE
8
BLACK
6
CONTINUOUS
10
185.467
20
-128.302
11
185.834
21
-127.853
0
LINE
8
BLACK
6
CONTINUOUS
10
185.834
20
-127.853
11
186.107
21
-127.34
0
LINE
8
BLACK
6
CONTINUOUS
10
186.107
20
-127.34
11
186.274
21
-126.784
0
LINE
8
BLACK
6
CONTINUOUS
10
186.274
20
-126.784
11
186.331
21
-126.205
0
LINE
8
BLACK
6
CONTINUOUS
10
186.331
20
-126.205
11
186.331
21
-35.7188
0
LINE
8
BLACK
6
CONTINUOUS
10
186.331
20
-35.7188
11
186.331
21
-35.6992
0
LINE
8
BLACK
6
CONTINUOUS
10
186.331
20
-35.6992
11
186.27
21
-35.1206
0
LINE
8
BLACK
6
CONTINUOUS
10
186.27
20
-35.1206
11
186.099
21
-34.5659
0
LINE
8
BLACK
6
CONTINUOUS
10
186.099
20
-34.5659
11
185.823
21
-34.0552
0
LINE
8
BLACK
6
CONTINUOUS
10
185.823
20
-34.0552
11
185.452
21
-33.6079
0
LINE
8
BLACK
6
CONTINUOUS
10
185.452
20
-33.6079
11
185.003
21
-33.2409
0
LINE
8
BLACK
6
CONTINUOUS
10
185.003
20
-33.2409
11
184.49
21
-32.9683
0
LINE
8
BLACK
6
CONTINUOUS
10
184.49
20
-32.9683
11
183.934
21
-32.8005
0
LINE
8
BLACK
6
CONTINUOUS
10
183.934
20
-32.8005
11
183.355
21
-32.7437
0
LINE
8
BLACK
6
CONTINUOUS
10
183.355
20
-32.7437
11
45.2438
21
-32.7437
  0
ENDSEC
  0
EOF
