M48
; DRILL file {KiCad (5.1.12)-1} date 12/21/22 21:02:27
; FORMAT={-:-/ absolute / metric / decimal}
; #@! TF.CreationDate,2022-12-21T21:02:27+07:00
; #@! TF.GenerationSoftware,Kicad,Pcbnew,(5.1.12)-1
; #@! TF.FileFunction,NonPlated,1,2,NPTH
FMAT,2
METRIC
T1C0.500
T2C0.650
T3C2.200
%
G90
G05
T1
X65.754Y-63.269
X65.754Y-64.031
X65.754Y-64.805
X65.754Y-65.555
X65.754Y-66.305
X65.754Y-81.769
X65.754Y-82.531
X65.754Y-83.305
X65.754Y-84.055
X65.754Y-84.805
X65.754Y-100.269
X65.754Y-101.031
X65.754Y-101.805
X65.754Y-102.555
X65.754Y-103.305
X65.754Y-118.769
X65.754Y-119.531
X65.754Y-120.305
X65.754Y-121.055
X65.754Y-121.805
X65.754Y-137.269
X65.754Y-138.031
X65.754Y-138.805
X65.754Y-139.555
X65.754Y-140.305
X73.492Y-73.293
X73.492Y-74.793
X73.492Y-91.793
X73.492Y-93.293
X73.492Y-110.293
X73.492Y-111.793
X73.492Y-128.793
X73.492Y-130.293
X74.242Y-73.293
X74.242Y-74.793
X74.242Y-91.793
X74.242Y-93.293
X74.242Y-110.293
X74.242Y-111.793
X74.242Y-128.793
X74.242Y-130.293
X74.992Y-73.293
X74.992Y-74.793
X74.992Y-91.793
X74.992Y-93.293
X74.992Y-110.293
X74.992Y-111.793
X74.992Y-128.793
X74.992Y-130.293
X75.766Y-73.293
X75.766Y-74.793
X75.766Y-91.793
X75.766Y-93.293
X75.766Y-110.293
X75.766Y-111.793
X75.766Y-128.793
X75.766Y-130.293
X76.528Y-73.293
X76.528Y-74.793
X76.528Y-91.793
X76.528Y-93.293
X76.528Y-110.293
X76.528Y-111.793
X76.528Y-128.793
X76.528Y-130.293
X84.254Y-63.269
X84.254Y-64.031
X84.254Y-64.805
X84.254Y-65.555
X84.254Y-66.305
X84.254Y-81.769
X84.254Y-82.531
X84.254Y-83.305
X84.254Y-84.055
X84.254Y-84.805
X84.254Y-100.269
X84.254Y-101.031
X84.254Y-101.805
X84.254Y-102.555
X84.254Y-103.305
X84.254Y-118.769
X84.254Y-119.531
X84.254Y-120.305
X84.254Y-121.055
X84.254Y-121.805
X84.254Y-137.269
X84.254Y-138.031
X84.254Y-138.805
X84.254Y-139.555
X84.254Y-140.305
X85.754Y-63.269
X85.754Y-64.031
X85.754Y-64.805
X85.754Y-65.555
X85.754Y-66.305
X85.754Y-81.769
X85.754Y-82.531
X85.754Y-83.305
X85.754Y-84.055
X85.754Y-84.805
X85.754Y-100.269
X85.754Y-101.031
X85.754Y-101.805
X85.754Y-102.555
X85.754Y-103.305
X85.754Y-118.769
X85.754Y-119.531
X85.754Y-120.305
X85.754Y-121.055
X85.754Y-121.805
X85.754Y-137.269
X85.754Y-138.031
X85.754Y-138.805
X85.754Y-139.555
X85.754Y-140.305
X93.492Y-73.293
X93.492Y-74.793
X93.492Y-91.793
X93.492Y-93.293
X93.492Y-110.293
X93.492Y-111.793
X93.492Y-128.793
X93.492Y-130.293
X94.242Y-73.293
X94.242Y-74.793
X94.242Y-91.793
X94.242Y-93.293
X94.242Y-110.293
X94.242Y-111.793
X94.242Y-128.793
X94.242Y-130.293
X94.992Y-73.293
X94.992Y-74.793
X94.992Y-91.793
X94.992Y-93.293
X94.992Y-110.293
X94.992Y-111.793
X94.992Y-128.793
X94.992Y-130.293
X95.766Y-73.293
X95.766Y-74.793
X95.766Y-91.793
X95.766Y-93.293
X95.766Y-110.293
X95.766Y-111.793
X95.766Y-128.793
X95.766Y-130.293
X96.528Y-73.293
X96.528Y-74.793
X96.528Y-91.793
X96.528Y-93.293
X96.528Y-110.293
X96.528Y-111.793
X96.528Y-128.793
X96.528Y-130.293
X104.254Y-63.269
X104.254Y-64.031
X104.254Y-64.805
X104.254Y-65.555
X104.254Y-66.305
X104.254Y-81.769
X104.254Y-82.531
X104.254Y-83.305
X104.254Y-84.055
X104.254Y-84.805
X104.254Y-100.269
X104.254Y-101.031
X104.254Y-101.805
X104.254Y-102.555
X104.254Y-103.305
X104.254Y-118.769
X104.254Y-119.531
X104.254Y-120.305
X104.254Y-121.055
X104.254Y-121.805
X104.254Y-137.269
X104.254Y-138.031
X104.254Y-138.805
X104.254Y-139.555
X104.254Y-140.305
X105.754Y-63.269
X105.754Y-64.031
X105.754Y-64.805
X105.754Y-65.555
X105.754Y-66.305
X105.754Y-81.769
X105.754Y-82.531
X105.754Y-83.305
X105.754Y-84.055
X105.754Y-84.805
X105.754Y-100.269
X105.754Y-101.031
X105.754Y-101.805
X105.754Y-102.555
X105.754Y-103.305
X105.754Y-118.769
X105.754Y-119.531
X105.754Y-120.305
X105.754Y-121.055
X105.754Y-121.805
X105.754Y-137.269
X105.754Y-138.031
X105.754Y-138.805
X105.754Y-139.555
X105.754Y-140.305
X113.492Y-73.293
X113.492Y-74.793
X113.492Y-91.793
X113.492Y-93.293
X113.492Y-110.293
X113.492Y-111.793
X113.492Y-128.793
X113.492Y-130.293
X114.242Y-73.293
X114.242Y-74.793
X114.242Y-91.793
X114.242Y-93.293
X114.242Y-110.293
X114.242Y-111.793
X114.242Y-128.793
X114.242Y-130.293
X114.992Y-73.293
X114.992Y-74.793
X114.992Y-91.793
X114.992Y-93.293
X114.992Y-110.293
X114.992Y-111.793
X114.992Y-128.793
X114.992Y-130.293
X115.766Y-73.293
X115.766Y-74.793
X115.766Y-91.793
X115.766Y-93.293
X115.766Y-110.293
X115.766Y-111.793
X115.766Y-128.793
X115.766Y-130.293
X116.528Y-73.293
X116.528Y-74.793
X116.528Y-91.793
X116.528Y-93.293
X116.528Y-110.293
X116.528Y-111.793
X116.528Y-128.793
X116.528Y-130.293
X124.254Y-63.269
X124.254Y-64.031
X124.254Y-64.805
X124.254Y-65.555
X124.254Y-66.305
X124.254Y-81.769
X124.254Y-82.531
X124.254Y-83.305
X124.254Y-84.055
X124.254Y-84.805
X124.254Y-100.269
X124.254Y-101.031
X124.254Y-101.805
X124.254Y-102.555
X124.254Y-103.305
X124.254Y-118.769
X124.254Y-119.531
X124.254Y-120.305
X124.254Y-121.055
X124.254Y-121.805
X124.254Y-137.269
X124.254Y-138.031
X124.254Y-138.805
X124.254Y-139.555
X124.254Y-140.305
X125.754Y-63.269
X125.754Y-64.031
X125.754Y-64.805
X125.754Y-65.555
X125.754Y-66.305
X125.754Y-81.769
X125.754Y-82.531
X125.754Y-83.305
X125.754Y-84.055
X125.754Y-84.805
X125.754Y-100.269
X125.754Y-101.031
X125.754Y-101.805
X125.754Y-102.555
X125.754Y-103.305
X125.754Y-118.769
X125.754Y-119.531
X125.754Y-120.305
X125.754Y-121.055
X125.754Y-121.805
X125.754Y-137.269
X125.754Y-138.031
X125.754Y-138.805
X125.754Y-139.555
X125.754Y-140.305
X133.493Y-73.293
X133.493Y-74.793
X133.493Y-91.793
X133.493Y-93.293
X133.493Y-110.293
X133.493Y-111.793
X133.493Y-128.793
X133.493Y-130.293
X134.243Y-73.293
X134.243Y-74.793
X134.243Y-91.793
X134.243Y-93.293
X134.243Y-110.293
X134.243Y-111.793
X134.243Y-128.793
X134.243Y-130.293
X134.993Y-73.293
X134.993Y-74.793
X134.993Y-91.793
X134.993Y-93.293
X134.993Y-110.293
X134.993Y-111.793
X134.993Y-128.793
X134.993Y-130.293
X135.767Y-73.293
X135.767Y-74.793
X135.767Y-91.793
X135.767Y-93.293
X135.767Y-110.293
X135.767Y-111.793
X135.767Y-128.793
X135.767Y-130.293
X136.528Y-73.293
X136.528Y-74.793
X136.528Y-91.793
X136.528Y-93.293
X136.528Y-110.293
X136.528Y-111.793
X136.528Y-128.793
X136.528Y-130.293
X144.255Y-63.269
X144.255Y-64.031
X144.255Y-64.805
X144.255Y-65.555
X144.255Y-66.305
X144.255Y-81.769
X144.255Y-82.531
X144.255Y-83.305
X144.255Y-84.055
X144.255Y-84.805
X144.255Y-100.269
X144.255Y-101.031
X144.255Y-101.805
X144.255Y-102.555
X144.255Y-103.305
X144.255Y-118.769
X144.255Y-119.531
X144.255Y-120.305
X144.255Y-121.055
X144.255Y-121.805
X144.255Y-137.269
X144.255Y-138.031
X144.255Y-138.805
X144.255Y-139.555
X144.255Y-140.305
X145.755Y-63.269
X145.755Y-64.031
X145.755Y-64.805
X145.755Y-65.555
X145.755Y-66.305
X145.755Y-81.769
X145.755Y-82.531
X145.755Y-83.305
X145.755Y-84.055
X145.755Y-84.805
X145.755Y-100.269
X145.755Y-101.031
X145.755Y-101.805
X145.755Y-102.555
X145.755Y-103.305
X145.755Y-118.769
X145.755Y-119.531
X145.755Y-120.305
X145.755Y-121.055
X145.755Y-121.805
X145.755Y-137.269
X145.755Y-138.031
X145.755Y-138.805
X145.755Y-139.555
X145.755Y-140.305
X153.493Y-73.293
X153.493Y-74.793
X153.493Y-91.793
X153.493Y-93.293
X153.493Y-110.293
X153.493Y-111.793
X153.493Y-128.793
X153.493Y-130.293
X154.243Y-73.293
X154.243Y-74.793
X154.243Y-91.793
X154.243Y-93.293
X154.243Y-110.293
X154.243Y-111.793
X154.243Y-128.793
X154.243Y-130.293
X154.993Y-73.293
X154.993Y-74.793
X154.993Y-91.793
X154.993Y-93.293
X154.993Y-110.293
X154.993Y-111.793
X154.993Y-128.793
X154.993Y-130.293
X155.766Y-73.293
X155.766Y-74.793
X155.766Y-91.793
X155.766Y-93.293
X155.766Y-110.293
X155.766Y-111.793
X155.766Y-128.793
X155.766Y-130.293
X156.528Y-73.293
X156.528Y-74.793
X156.528Y-91.793
X156.528Y-93.293
X156.528Y-110.293
X156.528Y-111.793
X156.528Y-128.793
X156.528Y-130.293
X164.254Y-63.281
X164.254Y-64.031
X164.254Y-64.781
X164.254Y-65.555
X164.254Y-66.317
X164.254Y-81.781
X164.254Y-82.531
X164.254Y-83.281
X164.254Y-84.055
X164.254Y-84.817
X164.254Y-100.281
X164.254Y-101.031
X164.254Y-101.781
X164.254Y-102.555
X164.254Y-103.317
X164.254Y-118.781
X164.254Y-119.531
X164.254Y-120.281
X164.254Y-121.055
X164.254Y-121.817
X164.254Y-137.281
X164.254Y-138.031
X164.254Y-138.781
X164.254Y-139.555
X164.254Y-140.317
T2
X72.112Y-62.792
X72.112Y-81.292
X72.112Y-99.792
X72.112Y-118.292
X72.112Y-136.792
X77.892Y-62.792
X77.892Y-81.292
X77.892Y-99.792
X77.892Y-118.292
X77.892Y-136.792
X92.112Y-62.792
X92.112Y-81.292
X92.112Y-99.792
X92.112Y-118.292
X92.112Y-136.792
X97.892Y-62.792
X97.892Y-81.292
X97.892Y-99.792
X97.892Y-118.292
X97.892Y-136.792
X112.112Y-62.792
X112.112Y-81.292
X112.112Y-99.792
X112.112Y-118.292
X112.112Y-136.792
X117.892Y-62.792
X117.892Y-81.292
X117.892Y-99.792
X117.892Y-118.292
X117.892Y-136.792
X132.112Y-62.792
X132.112Y-81.292
X132.112Y-99.792
X132.112Y-118.292
X132.112Y-136.792
X137.892Y-62.792
X137.892Y-81.292
X137.892Y-99.792
X137.892Y-118.292
X137.892Y-136.792
X152.112Y-62.792
X152.112Y-81.292
X152.112Y-99.792
X152.112Y-118.292
X152.112Y-136.792
X157.892Y-62.792
X157.892Y-81.292
X157.892Y-99.792
X157.892Y-118.292
X157.892Y-136.792
T3
X68.004Y-58.543
X68.004Y-71.043
X68.004Y-77.043
X68.004Y-89.543
X68.004Y-95.543
X68.004Y-108.043
X68.004Y-114.043
X68.004Y-126.543
X68.004Y-132.543
X68.004Y-145.043
X82.004Y-71.043
X82.004Y-89.543
X82.004Y-108.043
X82.004Y-126.543
X82.004Y-145.043
X88.004Y-58.543
X88.004Y-71.043
X88.004Y-77.043
X88.004Y-89.543
X88.004Y-95.543
X88.004Y-108.043
X88.004Y-114.043
X88.004Y-126.543
X88.004Y-132.543
X88.004Y-145.043
X102.004Y-71.043
X102.004Y-89.543
X102.004Y-108.043
X102.004Y-126.543
X102.004Y-145.043
X108.004Y-58.543
X108.004Y-71.043
X108.004Y-77.043
X108.004Y-89.543
X108.004Y-95.543
X108.004Y-108.043
X108.004Y-114.043
X108.004Y-126.543
X108.004Y-132.543
X108.004Y-145.043
X122.004Y-71.043
X122.004Y-89.543
X122.004Y-108.043
X122.004Y-126.543
X122.004Y-145.043
X128.005Y-58.543
X128.005Y-71.043
X128.005Y-77.043
X128.005Y-89.543
X128.005Y-95.543
X128.005Y-108.043
X128.005Y-114.043
X128.005Y-126.543
X128.005Y-132.543
X128.005Y-145.043
X142.005Y-71.043
X142.005Y-89.543
X142.005Y-108.043
X142.005Y-126.543
X142.005Y-145.043
X148.005Y-58.543
X148.005Y-71.043
X148.005Y-77.043
X148.005Y-89.543
X148.005Y-95.543
X148.005Y-108.043
X148.005Y-114.043
X148.005Y-126.543
X148.005Y-132.543
X148.005Y-145.043
X162.004Y-71.043
X162.004Y-89.543
X162.004Y-108.043
X162.004Y-126.543
X162.004Y-145.043
T0
M30
