M48
; DRILL file {KiCad (5.1.11)-1} date 07/20/22 14:15:54
; FORMAT={-:-/ absolute / metric / decimal}
; #@! TF.CreationDate,2022-07-20T14:15:54+07:00
; #@! TF.GenerationSoftware,Kicad,Pcbnew,(5.1.11)-1
; #@! TF.FileFunction,Plated,1,2,PTH
FMAT,2
METRIC
T1C0.300
T2C0.400
T3C0.600
T4C1.000
T5C1.500
T6C2.200
T7C3.000
%
G90
G05
T1
X30.035Y-34.608
X30.035Y-36.512
X32.417Y-72.707
X32.417Y-74.612
X32.417Y-110.807
X32.417Y-112.712
X33.66Y-99.377
X33.66Y-101.282
X34.798Y-53.657
X34.798Y-55.562
X34.936Y-82.699
X35.871Y-52.277
X35.871Y-60.846
X36.671Y-61.616
X36.671Y-65.084
X37.121Y-50.68
X38.237Y-67.98
X38.422Y-80.328
X38.422Y-82.233
X38.438Y-108.6
X38.837Y-67.38
X41.942Y-91.757
X41.942Y-93.662
X43.421Y-39.78
X43.987Y-34.96
X44.921Y-32.067
X44.921Y-33.972
X45.021Y-36.98
X45.972Y-34.96
X46.797Y-33.058
X47.303Y-70.167
X47.303Y-72.072
X47.303Y-108.267
X47.303Y-110.172
X48.171Y-65.905
X48.469Y-33.222
X48.546Y-96.837
X48.546Y-98.742
X48.606Y-66.73
X48.657Y-54.61
X49.085Y-34.608
X49.085Y-36.512
X49.684Y-51.117
X49.684Y-53.023
X50.596Y-55.46
X51.196Y-56.005
X51.721Y-64.33
X52.471Y-65.08
X53.308Y-77.787
X53.308Y-79.692
X53.503Y-64.33
X54.621Y-64.37
X54.621Y-65.218
X54.621Y-66.067
X54.621Y-66.915
X54.621Y-67.764
X55.091Y-99.377
X55.091Y-101.282
X55.221Y-68.33
X55.821Y-67.701
X56.229Y-110.807
X56.229Y-112.712
X56.828Y-89.218
X56.828Y-91.123
X58.438Y-71.4
X58.61Y-53.657
X58.61Y-55.562
X59.037Y-70.8
X60.05Y-62.625
X60.971Y-42.56
X63.015Y-43.16
X63.373Y-72.707
X63.373Y-74.612
X63.971Y-32.067
X63.971Y-33.972
X66.675Y-39.081
X66.86Y-78.74
X68.135Y-34.608
X68.135Y-36.512
X68.227Y-80.26
X68.227Y-83.06
X68.828Y-79.66
X68.828Y-83.662
X68.871Y-64.175
X69.427Y-84.262
X69.721Y-64.175
X69.977Y-96.837
X69.977Y-98.742
X70.028Y-84.862
X70.545Y-64.151
X71.115Y-108.267
X71.115Y-110.172
X71.145Y-63.551
X71.745Y-62.951
X72.587Y-82.46
X72.593Y-62.951
X72.898Y-91.757
X72.898Y-93.662
X73.188Y-81.86
X73.496Y-51.117
X73.496Y-53.023
X74.023Y-102.399
X74.623Y-101.799
X76.2Y-44.56
X77.66Y-53.657
X77.66Y-55.562
X78.259Y-70.167
X78.259Y-72.072
X80.042Y-110.807
X80.042Y-112.712
X81.744Y-41.262
X82.423Y-72.707
X82.423Y-74.612
X83.022Y-32.067
X83.022Y-33.972
X87.063Y-99.031
X87.185Y-34.608
X87.185Y-36.512
X87.784Y-89.218
X87.784Y-91.123
X88.018Y-100.31
X91.948Y-91.757
X91.948Y-93.662
X92.546Y-51.117
X92.546Y-53.023
X94.928Y-108.267
X94.928Y-110.172
X96.71Y-53.657
X96.71Y-55.562
X97.309Y-70.167
X97.309Y-72.072
X101.473Y-72.707
X101.473Y-74.612
X102.072Y-32.067
X102.072Y-33.972
X106.236Y-34.608
X106.236Y-36.512
X106.834Y-89.218
X106.834Y-91.123
X110.998Y-91.757
X110.998Y-93.662
X111.596Y-51.117
X111.596Y-53.023
X113.379Y-110.807
X113.379Y-112.712
X115.082Y-44.462
X115.76Y-53.657
X115.76Y-55.562
X116.359Y-70.167
X116.359Y-72.072
X120.523Y-72.707
X120.523Y-74.612
X121.121Y-32.067
X121.121Y-33.972
X121.375Y-42.091
X125.285Y-34.608
X125.285Y-36.512
X125.884Y-89.218
X125.884Y-91.123
X128.265Y-108.267
X128.265Y-110.172
X130.048Y-91.757
X130.048Y-93.662
X130.647Y-51.117
X130.647Y-53.023
X134.81Y-53.657
X134.81Y-55.562
X135.409Y-70.167
X135.409Y-72.072
X139.573Y-72.707
X139.573Y-74.612
X140.171Y-32.067
X140.171Y-33.972
X144.335Y-34.608
X144.335Y-36.512
X144.934Y-89.218
X144.934Y-91.123
X146.717Y-110.807
X146.717Y-112.712
X149.098Y-91.757
X149.098Y-93.662
X149.696Y-51.117
X149.696Y-53.023
X152.722Y-118.427
X152.722Y-120.332
X153.182Y-44.463
X153.861Y-53.657
X153.861Y-55.562
X154.459Y-70.167
X154.459Y-72.072
X158.623Y-72.707
X158.623Y-74.612
X159.221Y-32.067
X159.221Y-33.972
X159.475Y-42.091
X161.603Y-108.267
X161.603Y-110.172
X163.385Y-34.608
X163.385Y-36.512
X163.984Y-89.218
X163.984Y-91.123
X167.608Y-115.887
X167.608Y-117.792
X168.148Y-91.757
X168.148Y-93.662
X168.746Y-51.117
X168.746Y-53.023
X172.91Y-53.657
X172.91Y-55.562
X173.509Y-70.167
X173.509Y-72.072
X177.673Y-72.707
X177.673Y-74.612
X178.272Y-32.067
X178.272Y-33.972
X182.435Y-34.608
X182.435Y-36.512
X183.034Y-89.218
X183.034Y-91.123
X184.817Y-110.807
X184.817Y-112.712
X187.198Y-91.757
X187.198Y-93.662
X187.796Y-51.117
X187.796Y-53.023
X191.282Y-44.462
X191.96Y-53.657
X191.96Y-55.562
X192.559Y-70.167
X192.559Y-72.072
X196.723Y-72.707
X196.723Y-74.612
X197.321Y-32.067
X197.321Y-33.972
X197.575Y-42.091
X199.703Y-108.267
X199.703Y-110.172
X201.486Y-34.608
X201.486Y-36.512
X202.084Y-89.218
X202.084Y-91.123
X206.248Y-91.757
X206.248Y-93.662
X206.846Y-51.117
X206.846Y-53.023
X211.01Y-53.657
X211.01Y-55.562
X211.609Y-70.167
X211.609Y-72.072
X215.773Y-72.707
X215.773Y-74.612
X216.371Y-32.067
X216.371Y-33.972
X220.535Y-34.608
X220.535Y-36.512
X221.134Y-89.218
X221.134Y-91.123
X222.917Y-110.807
X222.917Y-112.712
X225.298Y-91.757
X225.298Y-93.662
X225.897Y-51.117
X225.897Y-53.023
X229.382Y-44.462
X230.06Y-53.657
X230.06Y-55.562
X230.659Y-70.167
X230.659Y-72.072
X234.823Y-72.707
X234.823Y-74.612
X235.421Y-32.067
X235.421Y-33.972
X235.675Y-42.091
X237.803Y-108.267
X237.803Y-110.172
X239.585Y-34.607
X239.585Y-36.512
X240.184Y-89.218
X240.184Y-91.123
X244.348Y-91.757
X244.348Y-93.662
X244.946Y-51.117
X244.946Y-53.023
X246.729Y-110.807
X246.729Y-112.712
X249.11Y-53.657
X249.11Y-55.562
X249.709Y-70.167
X249.709Y-72.072
X253.873Y-72.707
X253.873Y-74.612
X254.471Y-32.067
X254.471Y-33.972
X258.635Y-34.608
X258.635Y-36.512
X259.234Y-89.217
X259.234Y-91.122
X261.615Y-108.267
X261.615Y-110.172
X263.613Y-44.462
X263.996Y-51.117
X263.996Y-53.022
X268.161Y-53.657
X268.161Y-55.562
X268.759Y-70.167
X268.759Y-72.072
X269.907Y-42.091
X270.542Y-91.757
X270.542Y-93.662
X272.415Y-72.135
X273.522Y-32.067
X273.522Y-33.972
X277.685Y-110.807
X277.685Y-112.712
X278.928Y-42.227
X278.928Y-44.133
X283.046Y-51.117
X283.046Y-53.023
X284.829Y-72.707
X284.829Y-74.612
X285.428Y-89.218
X285.428Y-91.123
X287.21Y-34.608
X287.21Y-36.512
X291.973Y-53.657
X291.973Y-55.562
X292.572Y-108.267
X292.572Y-110.172
X293.815Y-39.688
X293.815Y-41.593
X296.736Y-91.757
X296.736Y-93.662
X296.736Y-110.807
X296.736Y-112.712
X297.978Y-42.227
X297.978Y-44.133
X299.715Y-70.167
X299.715Y-72.072
X301.35Y-62.75
X301.35Y-64.85
X302.096Y-32.067
X302.096Y-33.972
X306.859Y-51.117
X306.859Y-53.023
X307.181Y-60.722
X307.441Y-117.091
X309.95Y-99.147
X311.621Y-89.218
X311.621Y-91.123
X311.621Y-108.267
X311.621Y-110.172
X312.864Y-39.688
X312.864Y-41.593
X315.786Y-34.608
X315.786Y-36.512
X315.786Y-53.657
X315.786Y-55.562
X315.786Y-72.707
X315.786Y-74.612
X315.786Y-91.757
X315.786Y-93.662
X315.786Y-110.807
X315.786Y-112.712
X323.637Y-66.75
X323.637Y-85.8
X326.438Y-100.422
X328.112Y-78.794
X328.852Y-60.484
X329.395Y-49.225
X330.671Y-32.067
X330.671Y-33.972
X330.671Y-51.117
X330.671Y-53.023
X330.671Y-70.167
X330.671Y-72.072
X330.671Y-89.218
X330.671Y-91.123
X330.671Y-108.267
X330.671Y-110.172
T2
X33.438Y-116.2
X33.512Y-63.619
X33.512Y-84.37
X37.2Y-59.2
X43.056Y-44.931
X45.971Y-63.98
X47.471Y-62.479
X49.971Y-72.58
X50.071Y-74.08
X50.075Y-43.638
X61.471Y-62.529
X62.22Y-67.83
X62.221Y-66.33
X62.971Y-61.18
X73.837Y-62.875
X80.963Y-43.86
X86.506Y-41.262
X90.487Y-89.892
X95.25Y-51.792
X99.008Y-41.262
X100.013Y-70.842
X124.606Y-41.262
X128.587Y-89.892
X133.35Y-51.792
X137.108Y-41.262
X138.113Y-70.842
X162.706Y-41.262
X175.208Y-41.262
X185.737Y-89.892
X190.5Y-51.792
X195.263Y-70.842
X200.806Y-41.262
X213.308Y-41.262
X238.906Y-41.262
X242.887Y-89.892
X247.539Y-41.262
X247.651Y-51.792
X252.413Y-70.842
X273.138Y-41.262
X274.439Y-67.27
X276.821Y-44.946
X285.637Y-84.6
X296.95Y-61.05
X296.95Y-66.55
X300.125Y-82.125
X300.6Y-68.2
X308.241Y-117.791
X310.65Y-101.65
X327.138Y-99.645
X328.614Y-48.525
X328.783Y-65.315
X328.837Y-87.169
T4
X31.351Y-50.721
X31.351Y-53.261
X31.351Y-55.801
X31.351Y-58.341
X321.35Y-31.1
X321.35Y-45.6
X323.85Y-45.6
X326.35Y-31.1
X326.35Y-45.6
T6
X54.792Y-57.144
X71.46Y-104.769
X311.967Y-57.144
X314.348Y-104.769
T7
X34.29Y-35.56
X36.671Y-73.66
X36.671Y-111.76
X37.941Y-100.33
X39.052Y-54.61
X40.64Y-33.02
X42.704Y-81.28
X43.021Y-71.12
X43.021Y-109.22
X44.291Y-97.79
X45.402Y-52.07
X46.196Y-92.71
X49.054Y-78.74
X52.546Y-90.17
X53.34Y-35.56
X59.372Y-100.33
X59.69Y-33.02
X60.484Y-111.76
X62.865Y-54.61
X65.722Y-97.79
X66.834Y-109.22
X67.627Y-73.66
X69.215Y-52.07
X72.39Y-35.56
X73.977Y-71.12
X77.153Y-92.71
X78.74Y-33.02
X81.915Y-54.61
X83.502Y-90.17
X84.296Y-111.76
X86.677Y-73.66
X88.265Y-52.07
X90.646Y-109.22
X91.44Y-35.56
X93.027Y-71.12
X96.203Y-92.71
X97.79Y-33.02
X100.965Y-54.61
X102.552Y-90.17
X105.727Y-73.66
X107.315Y-52.07
X110.49Y-35.56
X112.078Y-71.12
X115.252Y-92.71
X116.84Y-33.02
X117.634Y-111.76
X120.015Y-54.61
X121.602Y-90.17
X123.984Y-109.22
X124.777Y-73.66
X126.365Y-52.07
X129.54Y-35.56
X131.127Y-71.12
X134.302Y-92.71
X135.89Y-33.02
X139.065Y-54.61
X140.653Y-90.17
X143.827Y-73.66
X145.415Y-52.07
X148.59Y-35.56
X150.177Y-71.12
X150.971Y-111.76
X153.352Y-92.71
X154.94Y-33.02
X157.004Y-119.38
X157.321Y-109.22
X158.115Y-54.61
X159.702Y-90.17
X162.877Y-73.66
X163.354Y-116.84
X164.465Y-52.07
X167.64Y-35.56
X169.227Y-71.12
X172.403Y-92.71
X173.99Y-33.02
X177.165Y-54.61
X178.752Y-90.17
X181.927Y-73.66
X183.515Y-52.07
X186.69Y-35.56
X188.278Y-71.12
X189.071Y-111.76
X191.452Y-92.71
X193.04Y-33.02
X195.421Y-109.22
X196.215Y-54.61
X197.802Y-90.17
X200.977Y-73.66
X202.565Y-52.07
X205.74Y-35.56
X207.327Y-71.12
X210.502Y-92.71
X212.09Y-33.02
X215.265Y-54.61
X216.852Y-90.17
X220.028Y-73.66
X221.615Y-52.07
X224.79Y-35.56
X226.377Y-71.12
X227.171Y-111.76
X229.552Y-92.71
X231.14Y-33.02
X233.521Y-109.22
X234.315Y-54.61
X235.903Y-90.17
X239.077Y-73.66
X240.665Y-52.07
X243.84Y-35.56
X245.427Y-71.12
X248.602Y-92.71
X250.19Y-33.02
X250.984Y-111.76
X253.365Y-54.61
X254.952Y-90.17
X257.334Y-109.22
X258.127Y-73.66
X259.715Y-52.07
X262.89Y-35.56
X264.477Y-71.12
X269.24Y-33.02
X272.415Y-54.61
X274.796Y-92.71
X278.765Y-52.07
X281.146Y-90.17
X281.94Y-111.76
X283.21Y-43.18
X288.29Y-109.22
X289.084Y-73.66
X289.56Y-40.64
X291.465Y-35.56
X295.434Y-71.12
X296.228Y-54.61
X297.815Y-33.02
X300.99Y-92.71
X300.99Y-111.76
X302.26Y-43.18
X302.578Y-52.07
X307.34Y-90.17
X307.34Y-109.22
X308.61Y-40.64
X320.04Y-35.56
X320.04Y-54.61
X320.04Y-73.66
X320.04Y-92.71
X320.04Y-111.76
X326.39Y-33.02
X326.39Y-52.07
X326.39Y-71.12
X326.39Y-90.17
X326.39Y-109.22
T3
G00X43.302Y-24.613
M15
G01X43.302Y-25.213
M16
G05
G00X43.302Y-28.543
M15
G01X43.302Y-29.643
M16
G05
G00X51.942Y-24.613
M15
G01X51.942Y-25.213
M16
G05
G00X51.942Y-28.543
M15
G01X51.942Y-29.643
M16
G05
T5
G00X318.25Y-38.75
M15
G01X318.25Y-37.45
M16
G05
G00X329.45Y-38.75
M15
G01X329.45Y-37.45
M16
G05
T0
M30
