M48
; DRILL file {KiCad (5.1.11)-1} date 07/27/22 22:25:26
; FORMAT={-:-/ absolute / metric / decimal}
; #@! TF.CreationDate,2022-07-27T22:25:26+07:00
; #@! TF.GenerationSoftware,Kicad,Pcbnew,(5.1.11)-1
; #@! TF.FileFunction,Plated,1,2,PTH
FMAT,2
METRIC
T1C0.400
T2C0.600
T3C1.000
T4C1.500
T5C2.200
%
G90
G05
T1
X2.281Y-45.402
X3.715Y-60.209
X4.195Y-71.687
X4.195Y-89.546
X4.663Y-121.603
X5.683Y-97.218
X7.044Y-64.453
X9.425Y-83.502
X12.64Y-45.405
X12.732Y-77.98
X13.385Y-78.694
X13.915Y-91.123
X14.188Y-102.552
X14.357Y-51.273
X15.396Y-98.108
X16.621Y-116.179
X16.745Y-78.943
X16.88Y-45.11
X17.037Y-55.272
X17.633Y-50.367
X17.837Y-52.705
X19.304Y-76.454
X20.268Y-114.729
X20.268Y-121.825
X20.574Y-76.581
X20.677Y-83.364
X21.137Y-52.705
X21.331Y-45.402
X21.339Y-42.135
X21.937Y-55.272
X22.121Y-114.729
X22.121Y-122.132
X22.463Y-88.126
X23.265Y-94.838
X24.007Y-84.356
X24.547Y-90.205
X24.616Y-84.966
X24.67Y-60.401
X25.221Y-85.571
X25.255Y-86.454
X25.277Y-87.368
X25.495Y-94.805
X26.195Y-93.618
X26.63Y-83.959
X26.63Y-85.15
X27.115Y-100.012
X28.475Y-121.603
X29.201Y-69.579
X29.801Y-70.179
X30.004Y-67.31
X30.182Y-61.912
X30.401Y-70.779
X30.856Y-64.453
X32.036Y-69.579
X34.369Y-80.685
X35.56Y-79.806
X36.751Y-80.089
X37.433Y-95.186
X38.957Y-88.075
X39.727Y-86.043
X40.381Y-45.402
X42.704Y-104.931
X45.144Y-102.552
X45.68Y-86.043
X49.906Y-64.453
X51.336Y-50.679
X51.336Y-53.467
X52.288Y-121.603
X53.419Y-86.178
X54.669Y-83.502
X58.777Y-86.043
X59.431Y-45.402
X60.148Y-49.728
X63.491Y-53.072
X64.194Y-102.552
X64.73Y-86.043
X68.956Y-64.453
X73.719Y-83.502
X77.827Y-86.043
X78.481Y-45.402
X83.244Y-102.552
X83.781Y-86.043
X88.006Y-64.453
X92.769Y-83.502
X96.877Y-86.043
X97.531Y-45.402
X98.248Y-49.728
X101.591Y-53.071
X102.294Y-102.552
X102.831Y-86.043
X103.315Y-119.063
X107.056Y-64.453
X111.819Y-83.502
X115.927Y-86.043
X116.581Y-45.402
X121.344Y-102.552
X121.881Y-86.043
X123.726Y-121.602
X126.106Y-64.453
X130.869Y-83.502
X134.978Y-86.043
X135.631Y-45.402
X136.349Y-49.728
X136.653Y-119.062
X139.145Y-128.905
X139.692Y-53.072
X140.394Y-102.552
X140.931Y-86.043
X145.098Y-128.905
X145.156Y-64.453
X149.919Y-83.502
X150.94Y-119.063
X154.028Y-86.043
X154.681Y-45.402
X159.444Y-102.552
X159.981Y-86.043
X164.206Y-64.453
X168.969Y-83.502
X171.35Y-121.603
X173.078Y-86.043
X173.731Y-45.402
X174.448Y-49.728
X177.792Y-53.072
X178.494Y-102.552
X179.031Y-86.043
X183.256Y-64.453
X188.019Y-83.502
X192.128Y-86.043
X192.781Y-45.402
X197.544Y-102.552
X198.081Y-86.043
X202.306Y-64.453
X207.069Y-83.502
X208.09Y-119.063
X211.178Y-86.043
X211.831Y-45.402
X212.549Y-49.728
X212.549Y-52.781
X216.594Y-102.552
X217.131Y-86.043
X218.976Y-121.603
X221.356Y-64.453
X226.119Y-83.502
X228.479Y-52.781
X230.228Y-86.043
X230.867Y-52.781
X230.881Y-45.402
X236.181Y-86.043
X237.967Y-51.812
X240.406Y-64.453
X242.788Y-102.552
X246.793Y-123.698
X246.793Y-128.143
X247.492Y-41.394
X249.932Y-121.603
X250.8Y-75.625
X251.174Y-53.023
X257.075Y-83.502
X259.456Y-45.402
X264.101Y-50.482
X264.219Y-64.453
X267.733Y-55.384
X268.923Y-57.765
X268.982Y-102.552
X268.983Y-121.603
X272.383Y-42.862
X273.388Y-58.956
X278.464Y-129.466
X280.234Y-72.236
X280.234Y-78.12
X281.628Y-115.557
X281.722Y-57.765
X283.151Y-50.482
X284.104Y-74.136
X284.104Y-76.22
X285.292Y-122.522
X286.71Y-61.635
X287.31Y-62.235
X288.031Y-45.402
X288.032Y-64.453
X288.032Y-83.502
X288.032Y-102.552
X288.033Y-121.603
X288.592Y-127.822
X289.345Y-57.17
X289.461Y-58.956
X297.089Y-76.586
X297.089Y-95.636
X300.289Y-71.686
X300.289Y-76.586
X300.289Y-90.736
X300.289Y-95.636
X301.223Y-110.614
X301.561Y-111.448
T3
X292.616Y-40.942
X292.616Y-55.442
X295.116Y-55.442
X297.616Y-40.942
X297.616Y-55.442
T5
X26.059Y-66.986
X42.728Y-114.611
X283.235Y-66.986
X285.615Y-114.611
T2
G00X14.569Y-34.455
M15
G01X14.569Y-35.055
M16
G05
G00X14.569Y-38.385
M15
G01X14.569Y-39.485
M16
G05
G00X23.209Y-34.455
M15
G01X23.209Y-35.055
M16
G05
G00X23.209Y-38.385
M15
G01X23.209Y-39.485
M16
G05
T4
G00X289.516Y-48.593
M15
G01X289.516Y-47.292
M16
G05
G00X300.716Y-48.593
M15
G01X300.716Y-47.292
M16
G05
T0
M30
