0
SECTION
2
HEADER
9
$INSUNITS
70
4
9
$ACADVER
1
AC1014
9
$HANDSEED
5
FFFF
0
ENDSEC
0
SECTION
2
TABLES
0
TABLE
2
VPORT
5
8
100
AcDbSymbolTable
0
ENDTAB
0
TABLE
2
LTYPE
5
5
100
AcDbSymbolTable
0
LTYPE
5
14
100
AcDbSymbolTableRecord
100
AcDbLinetypeTableRecord
2
BYBLOCK
70
0
0
LTYPE
5
15
100
AcDbSymbolTableRecord
100
AcDbLinetypeTableRecord
2
BYLAYER
70
0
0
ENDTAB
0
TABLE
2
LAYER
5
2
100
AcDbSymbolTable
70
2
0
LAYER
5
50
100
AcDbSymbolTableRecord
100
AcDbLayerTableRecord
2
0
70
0
6
CONTINUOUS
0
ENDTAB
0
TABLE
2
STYLE
5
3
100
AcDbSymbolTable
70
1
0
STYLE
5
11
100
AcDbSymbolTableRecord
100
AcDbTextStyleTableRecord
2
STANDARD
70
0
0
ENDTAB
0
TABLE
2
VIEW
5
6
100
AcDbSymbolTable
70
0
0
ENDTAB
0
TABLE
2
UCS
5
7
100
AcDbSymbolTable
70
0
0
ENDTAB
0
TABLE
2
APPID
5
9
100
AcDbSymbolTable
70
2
0
APPID
5
12
100
AcDbSymbolTableRecord
100
AcDbRegAppTableRecord
2
ACAD
70
0
0
ENDTAB
0
TABLE
2
DIMSTYLE
5
A
100
AcDbSymbolTable
70
1
0
ENDTAB
0
TABLE
2
BLOCK_RECORD
5
1
100
AcDbSymbolTable
70
1
0
BLOCK_RECORD
5
1F
100
AcDbSymbolTableRecord
100
AcDbBlockTableRecord
2
*MODEL_SPACE
0
BLOCK_RECORD
5
1B
100
AcDbSymbolTableRecord
100
AcDbBlockTableRecord
2
*PAPER_SPACE
0
ENDTAB
0
ENDSEC
0
SECTION
2
BLOCKS
0
BLOCK
5
20
100
AcDbEntity
100
AcDbBlockBegin
2
*MODEL_SPACE
0
ENDBLK
5
21
100
AcDbEntity
100
AcDbBlockEnd
0
BLOCK
5
1C
100
AcDbEntity
100
AcDbBlockBegin
2
*PAPER_SPACE
0
ENDBLK
5
1D
100
AcDbEntity
100
AcDbBlockEnd
0
ENDSEC
0
SECTION
2
ENTITIES
0
LWPOLYLINE
5
100
100
AcDbEntity
8
0
100
AcDbPolyline
90
28
70
1
43
0.0
10
81.756249999999994
20
-7.9375000000000009
10
110.33125
20
-7.9374999999999822
42
-0.41421356237309531
10
112.71250000000002
20
-10.318750000000003
10
112.71249999999753
20
-55.134827881303117
42
2.0816659994660216
10
112.71250000000002
20
-57.514172118690006
10
112.71249999999753
20
-79.010827881303129
42
2.0816659994660287
10
112.71250000000242
20
-81.390172118693002
10
112.71249999999753
20
-93.234827881303119
42
2.0816659994660167
10
112.71250000000002
20
-95.614172118690007
10
112.71249999999753
20
-117.11082788130311
42
2.0816659995152245
10
112.71250000000002
20
-119.49017211860001
10
112.71250000000001
20
-121.44374999999999
42
-0.41421356237309503
10
110.33125
20
-123.825
10
70.277672118694937
20
-123.82499999999995
42
2.081665999466018
10
67.898327881304994
20
-123.825
10
46.401672118693384
20
-123.82500000000191
42
2.0816659994703937
10
44.02232788130901
20
-123.825
10
42.068750000000001
20
-123.825
42
-0.41421356237309503
10
39.6875
20
-121.44374999999999
10
39.6875
20
-10.318750000000001
42
-0.41421356237309503
10
42.068750000000001
20
-7.9375000000000009
10
70.643750000000011
20
-7.9375
42
0.41421356237309503
10
71.4375
20
-7.1437499999999998
10
71.4375
20
-5.5562500000000004
42
-0.41421356237309503
10
72.231250000000003
20
-4.7625000000000011
10
80.168750000000003
20
-4.762499999999994
42
-0.41421356237309503
10
80.962500000000006
20
-5.5562500000000004
10
80.962500000000006
20
-7.1437499999999998
42
0.41421356237309503
0
LWPOLYLINE
5
101
100
AcDbEntity
8
0
100
AcDbPolyline
90
4
70
1
43
0.0
10
72.180000000000007
20
-10.505000000000003
42
-0.99999999999999989
10
71.579999999999998
20
-10.505000000000003
10
71.579999999999998
20
-9.4049999999999994
42
-0.99999999999999989
10
72.180000000000007
20
-9.4049999999999994
0
LWPOLYLINE
5
102
100
AcDbEntity
8
0
100
AcDbPolyline
90
4
70
1
43
0.0
10
80.219999999999985
20
-9.4049999999999994
42
-0.99999999999999989
10
80.820000000000007
20
-9.4049999999999994
10
80.819999999999965
20
-10.505000000000003
42
-0.99999999999999989
10
80.220000000000027
20
-10.505000000000003
0
LWPOLYLINE
5
103
100
AcDbEntity
8
0
100
AcDbPolyline
90
4
70
1
43
0.0
10
72.180000000000007
20
-6.0750000000000002
42
-0.99999999999999989
10
71.579999999999998
20
-6.0750000000000002
10
71.579999999999998
20
-5.4749999999999996
42
-0.99999999999999989
10
72.180000000000007
20
-5.4749999999999996
0
LWPOLYLINE
5
104
100
AcDbEntity
8
0
100
AcDbPolyline
90
4
70
1
43
0.0
10
80.219999999999985
20
-5.4749999999999996
42
-0.99999999999999989
10
80.820000000000007
20
-5.4749999999999996
10
80.819999999999965
20
-6.0750000000000002
42
-0.99999999999999989
10
80.220000000000027
20
-6.0750000000000002
0
CIRCLE
5
105
100
AcDbEntity
8
0
100
AcDbCircle
10
47.625
20
-15.875000000000002
30
0
40
1.9939
210
0
220
0
230
1
0
CIRCLE
5
106
100
AcDbEntity
8
0
100
AcDbCircle
10
47.625
20
-39.6875
30
0
40
1.9939
210
0
220
0
230
1
0
CIRCLE
5
107
100
AcDbEntity
8
0
100
AcDbCircle
10
71.88000000000001
20
-5.7750000000000004
30
0
40
0.10938716700299231
210
0
220
0
230
1
0
ENDSEC
0
SECTION
2
OBJECTS
0
DICTIONARY
5
C
100
AcDbDictionary
3
ACAD_GROUP
350
D
3
ACAD_MLINESTYLE
350
17
0
DICTIONARY
5
D
100
AcDbDictionary
0
DICTIONARY
5
1A
330
C
100
AcDbDictionary
0
DICTIONARY
5
17
100
AcDbDictionary
0
ENDSEC
0
EOF
