0
SECTION
2
HEADER
9
$INSUNITS
70
4
9
$ACADVER
1
AC1014
9
$HANDSEED
5
FFFF
0
ENDSEC
0
SECTION
2
TABLES
0
TABLE
2
VPORT
5
8
100
AcDbSymbolTable
0
ENDTAB
0
TABLE
2
LTYPE
5
5
100
AcDbSymbolTable
0
LTYPE
5
14
100
AcDbSymbolTableRecord
100
AcDbLinetypeTableRecord
2
BYBLOCK
70
0
0
LTYPE
5
15
100
AcDbSymbolTableRecord
100
AcDbLinetypeTableRecord
2
BYLAYER
70
0
0
ENDTAB
0
TABLE
2
LAYER
5
2
100
AcDbSymbolTable
70
2
0
LAYER
5
50
100
AcDbSymbolTableRecord
100
AcDbLayerTableRecord
2
0
70
0
6
CONTINUOUS
0
ENDTAB
0
TABLE
2
STYLE
5
3
100
AcDbSymbolTable
70
1
0
STYLE
5
11
100
AcDbSymbolTableRecord
100
AcDbTextStyleTableRecord
2
STANDARD
70
0
0
ENDTAB
0
TABLE
2
VIEW
5
6
100
AcDbSymbolTable
70
0
0
ENDTAB
0
TABLE
2
UCS
5
7
100
AcDbSymbolTable
70
0
0
ENDTAB
0
TABLE
2
APPID
5
9
100
AcDbSymbolTable
70
2
0
APPID
5
12
100
AcDbSymbolTableRecord
100
AcDbRegAppTableRecord
2
ACAD
70
0
0
ENDTAB
0
TABLE
2
DIMSTYLE
5
A
100
AcDbSymbolTable
70
1
0
ENDTAB
0
TABLE
2
BLOCK_RECORD
5
1
100
AcDbSymbolTable
70
1
0
BLOCK_RECORD
5
1F
100
AcDbSymbolTableRecord
100
AcDbBlockTableRecord
2
*MODEL_SPACE
0
BLOCK_RECORD
5
1B
100
AcDbSymbolTableRecord
100
AcDbBlockTableRecord
2
*PAPER_SPACE
0
ENDTAB
0
ENDSEC
0
SECTION
2
BLOCKS
0
BLOCK
5
20
100
AcDbEntity
100
AcDbBlockBegin
2
*MODEL_SPACE
0
ENDBLK
5
21
100
AcDbEntity
100
AcDbBlockEnd
0
BLOCK
5
1C
100
AcDbEntity
100
AcDbBlockBegin
2
*PAPER_SPACE
0
ENDBLK
5
1D
100
AcDbEntity
100
AcDbBlockEnd
0
ENDSEC
0
SECTION
2
ENTITIES
0
ARC
5
100
100
AcDbEntity
8
0
100
AcDbCircle
10
95.192644999999999
20
-131.64250000000004
30
0
40
1.4999999999999858
210
0
220
0
230
1
100
AcDbArc
50
270
51
332.46013955079468
0
LINE
5
101
100
AcDbEntity
8
0
100
AcDbLine
10
190.23885569038001
20
-133.14249975648698
30
0
11
229.080645
21
-133.14250000000001
31
0
0
LINE
5
102
100
AcDbEntity
8
0
100
AcDbLine
10
243.36814442292001
20
-38.942499781148122
30
0
11
190.23993200000004
21
-38.942500000000003
31
0
0
LINE
5
103
100
AcDbEntity
8
0
100
AcDbLine
10
268.79332042291998
20
-38.942499781148115
30
0
11
251.61435600000002
21
-38.942500000000003
31
0
0
LINE
5
104
100
AcDbEntity
8
0
100
AcDbLine
10
282.81625000000008
20
-38.942500000000003
30
0
11
277.03953200000001
21
-38.942500000000003
31
0
0
LINE
5
105
100
AcDbEntity
8
0
100
AcDbLine
10
285.06636600000002
20
-93.992536000000001
30
0
11
285.06625000000003
21
-41.192500000000003
31
0
0
ARC
5
106
100
AcDbEntity
8
0
100
AcDbCircle
10
124.30564500000001
20
-40.44250000000001
30
0
40
1.5000002188525974
210
0
220
-0
230
1
100
AcDbArc
50
27.539882492668919
51
90.00002204282913
0
ARC
5
107
100
AcDbEntity
8
0
100
AcDbCircle
10
128.42875000000001
20
-38.292500000000004
30
0
40
3.1499992264189953
210
0
220
0
230
1
100
AcDbArc
50
207.53985521326621
51
332.46014270032668
0
LINE
5
108
100
AcDbEntity
8
0
100
AcDbLine
10
124.30564442292001
20
-38.942499781148122
30
0
11
103.43893199999999
21
-38.942500000000003
31
0
0
ARC
5
109
100
AcDbEntity
8
0
100
AcDbCircle
10
132.55185599999999
20
-40.44250000000001
30
0
40
1.500000001286155
210
0
220
-0
230
1
100
AcDbArc
50
89.997097013838982
51
152.46013954984389
0
ARC
5
110
100
AcDbEntity
8
0
100
AcDbCircle
10
103.43893199999999
20
-40.44250000000001
30
0
40
1.5000000000000036
210
0
220
-0
230
1
100
AcDbArc
50
90
51
152.46013954984488
0
ARC
5
111
100
AcDbEntity
8
0
100
AcDbCircle
10
99.315826000000001
20
-38.292500000000004
30
0
40
3.1499992264189975
210
0
220
0
230
1
100
AcDbArc
50
207.53985521326621
51
332.46014270032629
0
ARC
5
112
100
AcDbEntity
8
0
100
AcDbCircle
10
95.192721000000006
20
-40.44250000000001
30
0
40
1.5000002188525954
210
0
220
-0
230
1
100
AcDbArc
50
27.539882492668919
51
90.000022042676605
0
LINE
5
113
100
AcDbEntity
8
0
100
AcDbLine
10
277.03985569038002
20
-133.14249975648698
30
0
11
282.81625000000008
21
-133.14250000000001
31
0
0
ARC
5
114
100
AcDbEntity
8
0
100
AcDbCircle
10
277.03985599999999
20
-131.64250000000004
30
0
40
1.4999997564868797
210
0
220
0
230
1
100
AcDbArc
50
207.53984862362981
51
269.99998817338661
0
ARC
5
115
100
AcDbEntity
8
0
100
AcDbCircle
10
272.91674999999998
20
-133.79249999999999
30
0
40
3.1500005754739959
210
0
220
-0
230
1
100
AcDbArc
50
27.539862931349685
51
152.46013428989514
0
LINE
5
116
100
AcDbEntity
8
0
100
AcDbLine
10
285.06625000000003
20
-96.492536000000015
30
0
11
282.31636600000002
21
-96.492536000000015
31
0
0
ARC
5
117
100
AcDbEntity
8
0
100
AcDbCircle
10
268.79364500000003
20
-131.64250000000004
30
0
40
1.4999999999999858
210
0
220
0
230
1
100
AcDbArc
50
270
51
332.46013955068565
0
LINE
5
118
100
AcDbEntity
8
0
100
AcDbLine
10
282.31636600000002
20
-93.992536000000001
30
0
11
285.06636600000002
21
-93.992536000000001
31
0
0
ARC
5
119
100
AcDbEntity
8
0
100
AcDbCircle
10
282.81625000000008
20
-130.89250000000001
30
0
40
2.2499999999999964
210
0
220
0
230
1
100
AcDbArc
50
-90
51
0
0
LINE
5
120
100
AcDbEntity
8
0
100
AcDbLine
10
285.06625000000008
20
-130.89250000000001
30
0
11
285.06625000000003
21
-96.492536000000015
31
0
0
LINE
5
121
100
AcDbEntity
8
0
100
AcDbLine
10
237.32685569038
20
-133.14249975648698
30
0
11
268.79364500000003
21
-133.14250000000001
31
0
0
ARC
5
122
100
AcDbEntity
8
0
100
AcDbCircle
10
251.61435600000002
20
-40.44250000000001
30
0
40
1.5000000000000036
210
0
220
-0
230
1
100
AcDbArc
50
90
51
152.46013954984417
0
LWPOLYLINE
5
123
100
AcDbEntity
8
0
100
AcDbPolyline
90
4
70
1
43
0.0
10
259.01636600000006
20
-67.892536000000007
42
-0.99999999999999989
10
259.01636600000006
20
-65.392536000000007
10
261.51636600000006
20
-65.392536000000007
42
-0.99999999999999989
10
261.51636600000006
20
-67.892536000000007
0
ARC
5
124
100
AcDbEntity
8
0
100
AcDbCircle
10
243.36814500000003
20
-40.44250000000001
30
0
40
1.5000002188525974
210
0
220
-0
230
1
100
AcDbArc
50
27.539882492668919
51
90.000022042829684
0
ARC
5
125
100
AcDbEntity
8
0
100
AcDbCircle
10
247.49125000000004
20
-38.292500000000004
30
0
40
3.1499992264189953
210
0
220
0
230
1
100
AcDbArc
50
207.53985521326607
51
332.46014270032651
0
ARC
5
126
100
AcDbEntity
8
0
100
AcDbCircle
10
268.79332099999999
20
-40.44250000000001
30
0
40
1.5000002188526289
210
0
220
-0
230
1
100
AcDbArc
50
27.53988249266791
51
90.000022042829684
0
ARC
5
127
100
AcDbEntity
8
0
100
AcDbCircle
10
272.916426
20
-38.292500000000004
30
0
40
3.1499992264189953
210
0
220
0
230
1
100
AcDbArc
50
207.53985521326655
51
332.46014270032629
0
ARC
5
128
100
AcDbEntity
8
0
100
AcDbCircle
10
282.81625000000008
20
-41.192500000000003
30
0
40
2.2499999999999787
210
0
220
0
230
1
100
AcDbArc
50
0
51
90
0
ARC
5
129
100
AcDbEntity
8
0
100
AcDbCircle
10
277.03953200000001
20
-40.44250000000001
30
0
40
1.5000000000000036
210
0
220
-0
230
1
100
AcDbArc
50
90
51
152.46013954984514
0
ARC
5
130
100
AcDbEntity
8
0
100
AcDbCircle
10
282.31636600000002
20
-95.242536000000001
30
0
40
1.25
210
0
220
-0
230
1
100
AcDbArc
50
90
51
270
0
LINE
5
131
100
AcDbEntity
8
0
100
AcDbLine
10
181.99372042292001
20
-38.942499781148122
30
0
11
132.55193199999999
21
-38.942500000639185
31
0
0
ARC
5
132
100
AcDbEntity
8
0
100
AcDbCircle
10
181.99372100000002
20
-40.44250000000001
30
0
40
1.5000002188525974
210
0
220
-0
230
1
100
AcDbArc
50
27.539882492668919
51
90.000022042829684
0
ARC
5
133
100
AcDbEntity
8
0
100
AcDbCircle
10
190.23993200000004
20
-40.44250000000001
30
0
40
1.5000000000000036
210
0
220
-0
230
1
100
AcDbArc
50
90
51
152.4601395498444
0
ARC
5
134
100
AcDbEntity
8
0
100
AcDbCircle
10
186.116826
20
-38.292500000000004
30
0
40
3.1499992264189953
210
0
220
0
230
1
100
AcDbArc
50
207.53985521326629
51
332.46014270032686
0
ARC
5
135
100
AcDbEntity
8
0
100
AcDbCircle
10
237.32685599999999
20
-131.64250000000004
30
0
40
1.4999997564868484
210
0
220
0
230
1
100
AcDbArc
50
207.53984862363035
51
269.99998817338559
0
ARC
5
136
100
AcDbEntity
8
0
100
AcDbCircle
10
233.20375000000001
20
-133.79249999999999
30
0
40
3.1500005754739959
210
0
220
-0
230
1
100
AcDbArc
50
27.539862931349685
51
152.46013428989443
0
ARC
5
137
100
AcDbEntity
8
0
100
AcDbCircle
10
229.080645
20
-131.64250000000004
30
0
40
1.4999999999999858
210
0
220
0
230
1
100
AcDbArc
50
270
51
332.46013955068804
0
LWPOLYLINE
5
138
100
AcDbEntity
8
0
100
AcDbPolyline
90
4
70
1
43
0.0
10
22.473850000000006
20
-43.022500000000001
42
-0.99999999999999989
10
23.07385
20
-43.022500000000001
10
23.07385
20
-44.122500000000002
42
-0.99999999999999989
10
22.473850000000006
20
-44.122500000000002
0
LWPOLYLINE
5
139
100
AcDbEntity
8
0
100
AcDbPolyline
90
4
70
1
43
0.0
10
13.833850000000002
20
-43.022500000000001
10
13.833850000000002
20
-44.122500000000002
42
0.99999999999999989
10
14.433850000000001
20
-44.122500000000002
10
14.433850000000001
20
-43.022500000000001
42
0.99999999999999989
0
ARC
5
140
100
AcDbEntity
8
0
100
AcDbCircle
10
2.61625
20
-41.192500000000003
30
0
40
2.2499999999999964
210
0
220
-0
230
1
100
AcDbArc
50
90
51
180
0
CIRCLE
5
141
100
AcDbEntity
8
0
100
AcDbCircle
10
9.3662540000000014
20
-47.942504
30
0
40
1.9939
210
0
220
0
230
1
0
LINE
5
142
100
AcDbEntity
8
0
100
AcDbLine
10
0.36624999999999991
20
-41.192500000000003
30
0
11
0.36625000000000008
21
-93.992536000000001
31
0
0
ARC
5
143
100
AcDbEntity
8
0
100
AcDbCircle
10
10.516249999999999
20
-38.292500000000004
30
0
40
3.1499992264189998
210
0
220
0
230
1
100
AcDbArc
50
207.53985521326618
51
332.46014270035971
0
LINE
5
144
100
AcDbEntity
8
0
100
AcDbLine
10
95.192720422923998
20
-38.942499781148115
30
0
11
42.064355999999997
21
-38.942500000000003
31
0
0
LINE
5
145
100
AcDbEntity
8
0
100
AcDbLine
10
6.393144422924002
20
-38.942499781148115
30
0
11
2.61625
21
-38.942500000000003
31
0
0
ARC
5
146
100
AcDbEntity
8
0
100
AcDbCircle
10
6.3931450000000005
20
-40.44250000000001
30
0
40
1.5000002188525916
210
0
220
-0
230
1
100
AcDbArc
50
27.539882492668919
51
90.00002204267625
0
LWPOLYLINE
5
147
100
AcDbEntity
8
0
100
AcDbPolyline
90
4
70
1
43
0.0
10
189.46636600000002
20
-125.192536
10
191.96636600000002
20
-125.192536
42
0.99999999999999989
10
191.96636600000002
20
-122.692536
10
189.46636600000002
20
-122.692536
42
0.99999999999999989
0
ARC
5
148
100
AcDbEntity
8
0
100
AcDbCircle
10
190.238856
20
-131.64250000000004
30
0
40
1.4999997564868797
210
0
220
0
230
1
100
AcDbArc
50
207.5398486236293
51
269.99998817338559
0
ARC
5
149
100
AcDbEntity
8
0
100
AcDbCircle
10
186.11574999999999
20
-133.79249999999999
30
0
40
3.1500005754739959
210
0
220
-0
230
1
100
AcDbArc
50
27.539862931349919
51
152.46013428989468
0
ARC
5
150
100
AcDbEntity
8
0
100
AcDbCircle
10
181.99264500000001
20
-131.64250000000004
30
0
40
1.4999999999999858
210
0
220
0
230
1
100
AcDbArc
50
270
51
332.46013955068713
0
ARC
5
151
100
AcDbEntity
8
0
100
AcDbCircle
10
99.315750000000008
20
-133.79249999999999
30
0
40
3.1500005754739959
210
0
220
-0
230
1
100
AcDbArc
50
27.539862931349919
51
152.46013428984369
0
ARC
5
152
100
AcDbEntity
8
0
100
AcDbCircle
10
103.438856
20
-131.64250000000004
30
0
40
1.4999997564868641
210
0
220
0
230
1
100
AcDbArc
50
207.53984862362955
51
269.99998817338559
0
ARC
5
153
100
AcDbEntity
8
0
100
AcDbCircle
10
56.351855999999998
20
-131.64250000000004
30
0
40
1.4999997564868641
210
0
220
0
230
1
100
AcDbArc
50
207.53984862362955
51
269.9999881736149
0
ARC
5
154
100
AcDbEntity
8
0
100
AcDbCircle
10
52.228750000000005
20
-133.79249999999999
30
0
40
3.1500005754739959
210
0
220
-0
230
1
100
AcDbArc
50
27.539862931349919
51
152.46013428984369
0
ARC
5
155
100
AcDbEntity
8
0
100
AcDbCircle
10
48.10564500000001
20
-131.64250000000004
30
0
40
1.4999999999999858
210
0
220
0
230
1
100
AcDbArc
50
270
51
332.46013955079439
0
LINE
5
156
100
AcDbEntity
8
0
100
AcDbLine
10
0.36625000000000008
20
-93.992536000000001
30
0
11
3.1163660000000002
21
-93.992536000000001
31
0
0
LINE
5
157
100
AcDbEntity
8
0
100
AcDbLine
10
3.1163660000000002
20
-96.492536000000015
30
0
11
0.36636600000000019
21
-96.492536000000015
31
0
0
ARC
5
158
100
AcDbEntity
8
0
100
AcDbCircle
10
3.1163660000000002
20
-95.242536000000001
30
0
40
1.2500000000000178
210
0
220
0
230
1
100
AcDbArc
50
-90
51
90
0
LINE
5
159
100
AcDbEntity
8
0
100
AcDbLine
10
103.43885569038001
20
-133.14249975648698
30
0
11
181.99264500000001
21
-133.14250000000001
31
0
0
LINE
5
160
100
AcDbEntity
8
0
100
AcDbLine
10
16.638855690385999
20
-133.14249975648698
30
0
11
48.10564500000001
21
-133.14250000000001
31
0
0
ARC
5
161
100
AcDbEntity
8
0
100
AcDbCircle
10
8.3926450000000017
20
-131.64250000000004
30
0
40
1.4999999999999858
210
0
220
0
230
1
100
AcDbArc
50
270
51
332.46013955079445
0
LINE
5
162
100
AcDbEntity
8
0
100
AcDbLine
10
0.36636600000000019
20
-96.492536000000015
30
0
11
0.36625000000000008
21
-130.89250000000001
31
0
0
ARC
5
163
100
AcDbEntity
8
0
100
AcDbCircle
10
16.638856000000001
20
-131.64250000000004
30
0
40
1.4999997564868641
210
0
220
0
230
1
100
AcDbArc
50
207.53984862362967
51
269.99998817361438
0
ARC
5
164
100
AcDbEntity
8
0
100
AcDbCircle
10
12.515750000000001
20
-133.79249999999999
30
0
40
3.1500005754739995
210
0
220
-0
230
1
100
AcDbArc
50
27.539862931349827
51
152.46013428984369
0
LINE
5
165
100
AcDbEntity
8
0
100
AcDbLine
10
2.61625
20
-133.14250000000001
30
0
11
8.3926450000000017
21
-133.14250000000001
31
0
0
ARC
5
166
100
AcDbEntity
8
0
100
AcDbCircle
10
2.61625
20
-130.89250000000001
30
0
40
2.25
210
0
220
0
230
1
100
AcDbArc
50
180
51
270
0
ARC
5
167
100
AcDbEntity
8
0
100
AcDbCircle
10
33.818145000000001
20
-40.44250000000001
30
0
40
1.5000002188525858
210
0
220
-0
230
1
100
AcDbArc
50
27.539882492668919
51
90.000022042676065
0
ARC
5
168
100
AcDbEntity
8
0
100
AcDbCircle
10
37.941249999999997
20
-38.292500000000004
30
0
40
3.1499992264189998
210
0
220
0
230
1
100
AcDbArc
50
207.53985521326621
51
332.46014270035965
0
LWPOLYLINE
5
169
100
AcDbEntity
8
0
100
AcDbPolyline
90
4
70
1
43
0.0
10
26.666366000000004
20
-65.392536000000007
42
-0.99999999999999989
10
26.666366000000004
20
-67.892536000000007
10
24.166366000000004
20
-67.892536000000007
42
-0.99999999999999989
10
24.166366000000004
20
-65.392536000000007
0
ARC
5
170
100
AcDbEntity
8
0
100
AcDbCircle
10
42.064355999999997
20
-40.44250000000001
30
0
40
1.5000000000000036
210
0
220
-0
230
1
100
AcDbArc
50
90
51
152.46013954977496
0
LINE
5
171
100
AcDbEntity
8
0
100
AcDbLine
10
56.35185569038601
20
-133.14249975648698
30
0
11
95.192644999999999
21
-133.14250000000001
31
0
0
CIRCLE
5
172
100
AcDbEntity
8
0
100
AcDbCircle
10
128.41636600000001
20
-85.742536000000001
30
0
40
3.0000000000000004
210
0
220
0
230
1
0
ARC
5
173
100
AcDbEntity
8
0
100
AcDbCircle
10
14.639356000000001
20
-40.44250000000001
30
0
40
1.5000000000000036
210
0
220
-0
230
1
100
AcDbArc
50
90
51
152.46013954977474
0
LINE
5
174
100
AcDbEntity
8
0
100
AcDbLine
10
14.639356000000001
20
-38.942500000000003
30
0
11
33.818144422924007
21
-38.942499781148115
31
0
0
ENDSEC
0
SECTION
2
OBJECTS
0
DICTIONARY
5
C
100
AcDbDictionary
3
ACAD_GROUP
350
D
3
ACAD_MLINESTYLE
350
17
0
DICTIONARY
5
D
100
AcDbDictionary
0
DICTIONARY
5
1A
330
C
100
AcDbDictionary
0
DICTIONARY
5
17
100
AcDbDictionary
0
ENDSEC
0
EOF
