0
SECTION
2
HEADER
9
$INSUNITS
70
4
9
$ACADVER
1
AC1014
9
$HANDSEED
5
FFFF
0
ENDSEC
0
SECTION
2
TABLES
0
TABLE
2
VPORT
5
8
100
AcDbSymbolTable
0
ENDTAB
0
TABLE
2
LTYPE
5
5
100
AcDbSymbolTable
0
LTYPE
5
14
100
AcDbSymbolTableRecord
100
AcDbLinetypeTableRecord
2
BYBLOCK
70
0
0
LTYPE
5
15
100
AcDbSymbolTableRecord
100
AcDbLinetypeTableRecord
2
BYLAYER
70
0
0
ENDTAB
0
TABLE
2
LAYER
5
2
100
AcDbSymbolTable
70
2
0
LAYER
5
50
100
AcDbSymbolTableRecord
100
AcDbLayerTableRecord
2
0
70
0
6
CONTINUOUS
0
ENDTAB
0
TABLE
2
STYLE
5
3
100
AcDbSymbolTable
70
1
0
STYLE
5
11
100
AcDbSymbolTableRecord
100
AcDbTextStyleTableRecord
2
STANDARD
70
0
0
ENDTAB
0
TABLE
2
VIEW
5
6
100
AcDbSymbolTable
70
0
0
ENDTAB
0
TABLE
2
UCS
5
7
100
AcDbSymbolTable
70
0
0
ENDTAB
0
TABLE
2
APPID
5
9
100
AcDbSymbolTable
70
2
0
APPID
5
12
100
AcDbSymbolTableRecord
100
AcDbRegAppTableRecord
2
ACAD
70
0
0
ENDTAB
0
TABLE
2
DIMSTYLE
5
A
100
AcDbSymbolTable
70
1
0
ENDTAB
0
TABLE
2
BLOCK_RECORD
5
1
100
AcDbSymbolTable
70
1
0
BLOCK_RECORD
5
1F
100
AcDbSymbolTableRecord
100
AcDbBlockTableRecord
2
*MODEL_SPACE
0
BLOCK_RECORD
5
1B
100
AcDbSymbolTableRecord
100
AcDbBlockTableRecord
2
*PAPER_SPACE
0
ENDTAB
0
ENDSEC
0
SECTION
2
BLOCKS
0
BLOCK
5
20
100
AcDbEntity
100
AcDbBlockBegin
2
*MODEL_SPACE
0
ENDBLK
5
21
100
AcDbEntity
100
AcDbBlockEnd
0
BLOCK
5
1C
100
AcDbEntity
100
AcDbBlockBegin
2
*PAPER_SPACE
0
ENDBLK
5
1D
100
AcDbEntity
100
AcDbBlockEnd
0
ENDSEC
0
SECTION
2
ENTITIES
0
LWPOLYLINE
5
100
100
AcDbEntity
8
0
100
AcDbPolyline
90
86
70
1
43
0.0
10
38.966467999999999
20
-99.813681753879209
10
38.966468000000006
20
-87.248333124746182
42
-0.19891236737965765
10
39.552254437626907
20
-85.834119562373104
10
43.143181562373101
20
-82.243192437626902
42
0.19891236737965554
10
43.728968000000002
20
-80.828978875253796
10
43.728968000000002
20
-68.196803124746197
42
-0.19891236737965684
10
44.314754437626917
20
-66.78258956237309
10
47.971066562373103
20
-63.126277437626904
42
0.19891236737965523
10
48.556853000000004
20
-61.712063875253811
10
48.55685299999999
20
-49.146803124746192
42
-0.19891236737965523
10
49.142639437626904
20
-47.7325895623731
10
50.971066562498038
20
-45.904162437501945
42
-0.19891236734045498
10
52.385280124569448
20
-45.318375999875045
10
94.780099999999891
20
-45.318375993473211
42
-0.052407780210581935
10
132.204205
20
-49.251807999999997
10
198.22026704140401
20
-63.283955323545413
42
-0.19891235707097296
10
199.48178475042931
20
-64.150972391394774
10
200.89010521320543
20
-66.319595552607623
42
-0.19891237188253666
10
201.16905932776541
20
-67.824697027754141
10
199.01859868693288
20
-77.941819903096132
42
-0.19891238756483029
10
198.15158145045763
20
-79.203337759298236
10
192.25576656769871
20
-83.032124228910902
42
0.19891239236723876
10
191.38874932353968
20
-84.293642121262437
10
185.22503552752877
20
-113.29164111957418
42
0.22627688226792259
10
185.62703879395491
20
-114.96610517328536
10
198.96637218455623
20
-131.43881080017809
42
0.22627688957834974
10
200.52066402486886
20
-132.18017005281618
10
234.73620579596604
20
-132.18017194718382
42
0.22627692793633047
10
236.29049790208001
20
-131.43881263979222
10
249.59573428225877
20
-115.00821213256836
42
0.22627686522482957
10
249.99773751666498
20
-113.33374819156482
10
247.73978967341043
20
-102.71093522495281
42
0.19891241472567725
10
246.87277232232162
20
-101.44941721320586
10
241.2491356304142
20
-97.797385756100425
42
-0.19891240222409953
10
240.38211829932771
20
-96.535867838457051
10
238.2316576722346
20
-86.418745027754113
42
-0.1989123718825295
10
238.51061178679458
20
-84.913643552607596
10
239.91893230306573
20
-82.745020309019637
42
-0.1989123352824442
10
241.1804498480812
20
-81.878003276031635
10
244.22168495994427
20
-81.231568523518106
42
0.41421354357146628
10
245.76215660206191
20
-78.859449933251369
10
243.01323671648137
20
-65.926800068634833
42
-0.19891238279370355
10
243.29219081358363
20
-64.421698511356084
10
244.70051124592882
20
-62.253075397002803
42
-0.19891235855430522
10
245.96202896611968
20
-61.386058326780102
10
303.05637800135707
20
-49.250280006384166
42
-0.052407780210581602
10
340.48048299999999
20
-45.316848
10
391.91997887525389
20
-45.316848
42
-0.19891236737967116
10
393.334192437627
20
-45.902634437626944
10
395.1626195623731
20
-47.731061562373078
42
-0.19891236737966539
10
395.74840600000005
20
-49.145275124746178
10
395.74840600000005
20
-79.121273791501892
42
0.19891238595843294
10
396.33419253872444
20
-80.535487454972511
10
402.15692446127554
20
-86.358218545027512
42
-0.19891238595843364
10
402.74271099999999
20
-87.772432208498131
10
402.74271099999999
20
-97.020190952373753
42
0.19891235027206206
10
403.32849734453498
20
-98.434404421654875
10
409.75271065546508
20
-104.85861857834514
42
-0.19891235027198687
10
410.33849700000007
20
-106.27283204762628
10
410.33849700000007
20
-118.86250087525382
42
0.19891236737966619
10
410.92428343762697
20
-120.27671443762692
10
414.55618756237305
20
-123.90861856237308
42
-0.19891236737967566
10
415.141974
20
-125.32283212474621
10
415.141974
20
-135.66597787525382
42
-0.19891236737964427
10
414.55618756237311
20
-137.08019143762692
10
412.72776043762696
20
-138.90861856237311
42
-0.19891236737967716
10
411.31354687525391
20
-139.49440500000003
10
332.62386100000003
20
-139.49440500000003
42
0.052404525323650371
10
330.54487105739008
20
-139.71290200609999
10
252.29696891431934
20
-156.34394459687852
42
-0.052404503121960003
10
243.98100600000004
20
-157.21793299999999
10
191.27208500000009
20
-157.21793361060523
42
-0.052407755512521532
10
182.95561700000002
20
-156.34383800000001
10
104.82612099999996
20
-139.73690100000024
42
0.05240777928307943
10
102.74700409134
20
-139.518376988
10
33.20383612494598
20
-139.5183769998587
42
-0.19891236742398094
10
31.78962256223183
20
-138.93259056223181
10
29.961195437626923
20
-137.10416343762691
42
-0.19891236737965984
10
29.375409000000001
20
-135.6899498752538
10
29.375408999999991
20
-125.3468041247462
42
-0.19891236737965695
10
29.961195437626905
20
-123.93259056237311
10
33.554412562373102
20
-120.3393734376269
42
0.19891236737965762
10
34.140199000000003
20
-118.92515987525383
10
34.140199000000003
20
-106.29680424612081
42
-0.19891239430434327
10
34.725985584139025
20
-104.88259053723561
10
38.380681415860977
20
-101.22789546276439
42
0.19891239430433971
0
CIRCLE
5
101
100
AcDbEntity
8
0
100
AcDbCircle
10
57.556852999999997
20
-54.318376000000008
30
0
40
1.9939
210
0
220
0
230
1
0
ENDSEC
0
SECTION
2
OBJECTS
0
DICTIONARY
5
C
100
AcDbDictionary
3
ACAD_GROUP
350
D
3
ACAD_MLINESTYLE
350
17
0
DICTIONARY
5
D
100
AcDbDictionary
0
DICTIONARY
5
1A
330
C
100
AcDbDictionary
0
DICTIONARY
5
17
100
AcDbDictionary
0
ENDSEC
0
EOF
