0
SECTION
2
HEADER
9
$INSUNITS
70
4
9
$ACADVER
1
AC1014
9
$HANDSEED
5
FFFF
0
ENDSEC
0
SECTION
2
TABLES
0
TABLE
2
VPORT
5
8
100
AcDbSymbolTable
0
ENDTAB
0
TABLE
2
LTYPE
5
5
100
AcDbSymbolTable
0
LTYPE
5
14
100
AcDbSymbolTableRecord
100
AcDbLinetypeTableRecord
2
BYBLOCK
70
0
0
LTYPE
5
15
100
AcDbSymbolTableRecord
100
AcDbLinetypeTableRecord
2
BYLAYER
70
0
0
ENDTAB
0
TABLE
2
LAYER
5
2
100
AcDbSymbolTable
70
2
0
LAYER
5
50
100
AcDbSymbolTableRecord
100
AcDbLayerTableRecord
2
0
70
0
6
CONTINUOUS
0
ENDTAB
0
TABLE
2
STYLE
5
3
100
AcDbSymbolTable
70
1
0
STYLE
5
11
100
AcDbSymbolTableRecord
100
AcDbTextStyleTableRecord
2
STANDARD
70
0
0
ENDTAB
0
TABLE
2
VIEW
5
6
100
AcDbSymbolTable
70
0
0
ENDTAB
0
TABLE
2
UCS
5
7
100
AcDbSymbolTable
70
0
0
ENDTAB
0
TABLE
2
APPID
5
9
100
AcDbSymbolTable
70
2
0
APPID
5
12
100
AcDbSymbolTableRecord
100
AcDbRegAppTableRecord
2
ACAD
70
0
0
ENDTAB
0
TABLE
2
DIMSTYLE
5
A
100
AcDbSymbolTable
70
1
0
ENDTAB
0
TABLE
2
BLOCK_RECORD
5
1
100
AcDbSymbolTable
70
1
0
BLOCK_RECORD
5
1F
100
AcDbSymbolTableRecord
100
AcDbBlockTableRecord
2
*MODEL_SPACE
0
BLOCK_RECORD
5
1B
100
AcDbSymbolTableRecord
100
AcDbBlockTableRecord
2
*PAPER_SPACE
0
ENDTAB
0
ENDSEC
0
SECTION
2
BLOCKS
0
BLOCK
5
20
100
AcDbEntity
100
AcDbBlockBegin
2
*MODEL_SPACE
0
ENDBLK
5
21
100
AcDbEntity
100
AcDbBlockEnd
0
BLOCK
5
1C
100
AcDbEntity
100
AcDbBlockBegin
2
*PAPER_SPACE
0
ENDBLK
5
1D
100
AcDbEntity
100
AcDbBlockEnd
0
ENDSEC
0
SECTION
2
ENTITIES
0
LWPOLYLINE
5
100
100
AcDbEntity
8
0
100
AcDbPolyline
90
4
70
1
43
0.0
10
210.93892547036148
20
-160.79019308302259
10
224.93892547036126
20
-160.79019308302259
10
224.93892547036126
20
-174.79019308302256
10
210.93892547036148
20
-174.79019308302256
0
LWPOLYLINE
5
101
100
AcDbEntity
8
0
100
AcDbPolyline
90
20
70
1
43
0.0
10
108.6352407145489
20
-146.75361623407227
10
122.3286224215019
20
-143.84299810080768
10
121.35164538634911
20
-139.24668252495948
10
122.84371173650868
20
-138.92953403178615
10
123.97683045146493
20
-144.26043845578548
10
131.38649415654356
20
-142.68546581550297
10
128.4340026087483
20
-128.79508518176252
10
121.02433890366967
20
-130.37005782204474
10
121.88733874991556
20
-134.43015288317065
10
120.39527239975655
20
-134.74730137634401
10
119.41800428823683
20
-130.14961639385476
10
105.72462258128382
20
-133.06023452711941
10
106.70189069280354
20
-137.6579195096086
10
105.20967762050418
20
-137.97509918953565
10
104.34682449639809
20
-133.91497294165603
10
96.937160791318888
20
-135.48994558193874
10
99.889652339115287
20
-149.38032621567913
10
107.29931604419335
20
-147.80535357539677
10
106.16619732923652
20
-142.47444915139752
10
107.6582636793961
20
-142.15730065822413
0
LWPOLYLINE
5
102
100
AcDbEntity
8
0
100
AcDbPolyline
90
4
70
1
43
0.0
10
136.91600024565389
20
-87.478384337107755
10
139.82676391710299
20
-101.17245074738108
10
153.52083032737596
20
-98.261687075932329
10
150.61006665592743
20
-84.567620665659007
0
LWPOLYLINE
5
103
100
AcDbEntity
8
0
100
AcDbPolyline
90
4
70
1
43
0.0
10
145.90045093817537
20
-105.04501043009441
10
132.20638452790183
20
-107.95577410154316
10
135.11714819935094
20
-121.64984051181648
10
148.8112146096239
20
-118.7390768403678
0
LWPOLYLINE
5
104
100
AcDbEntity
8
0
100
AcDbPolyline
90
4
70
1
43
0.0
10
205.88822547035704
20
-160.7901930830227
10
191.8882254703567
20
-160.7901930830227
10
191.8882254703567
20
-174.7901930830227
10
205.88822547035704
20
-174.7901930830227
0
LINE
5
105
100
AcDbEntity
8
0
100
AcDbLine
10
195.16168481529178
20
-167.79019308302247
30
0
11
202.61476612542197
21
-167.79019308302239
31
0
0
LWPOLYLINE
5
106
100
AcDbEntity
8
0
100
AcDbPolyline
90
4
70
1
43
0.0
10
251.21218723233881
20
-160.79019291386351
10
251.21218723233881
20
-174.79019291386351
10
237.21218723233847
20
-174.79019291386351
10
237.21218723233847
20
-160.79019291386351
0
LINE
5
107
100
AcDbEntity
8
0
100
AcDbLine
10
198.88822547035659
20
-169.14329212601615
30
0
11
198.88822547035659
21
-166.43709404002925
31
0
0
LWPOLYLINE
5
108
100
AcDbEntity
8
0
100
AcDbPolyline
90
4
70
1
43
0.0
10
191.8882254703567
20
-185.79019308302279
10
191.8882254703567
20
-199.79019308302284
10
205.88822547035704
20
-199.79019308302284
10
205.88822547035704
20
-185.79019308302279
0
LINE
5
109
100
AcDbEntity
8
0
100
AcDbLine
10
247.93872788740373
20
-167.79019291386328
30
0
11
240.48564657727354
21
-167.79019291386319
31
0
0
LWPOLYLINE
5
110
100
AcDbEntity
8
0
100
AcDbPolyline
90
4
70
1
43
0.0
10
-29.435135085745401
20
-101.07484616743406
10
-32.293270870801507
20
-114.77999336964182
10
-18.588123668593539
20
-117.63812915469778
10
-15.729987883537433
20
-103.93298195248995
0
LINE
5
111
100
AcDbEntity
8
0
100
AcDbLine
10
203.83521245254713
20
-87.528548014471568
30
0
11
203.83521245254656
21
-84.822349928484684
31
0
0
CIRCLE
5
112
100
AcDbEntity
8
0
100
AcDbCircle
10
203.83521245254656
20
-86.17544897147809
30
0
40
1.499999999999893
210
0
220
0
230
1
0
LWPOLYLINE
5
113
100
AcDbEntity
8
0
100
AcDbPolyline
90
4
70
1
43
0.0
10
167.50625458653644
20
-114.94339069103589
10
164.73987389009778
20
-101.21942851379359
10
151.01591171285577
20
-103.98580921023203
10
153.78229240929386
20
-117.70977138747426
0
LWPOLYLINE
5
114
100
AcDbEntity
8
0
100
AcDbPolyline
90
4
70
1
43
0.0
10
205.88822547035704
20
-98.225448971478144
10
191.8882254703567
20
-98.225448971478215
10
191.8882254703567
20
-112.2254489714782
10
205.88822547035704
20
-112.2254489714782
0
LINE
5
115
100
AcDbEntity
8
0
100
AcDbLine
10
-24.287868005419568
20
-110.68108920130825
30
0
11
-23.735390748918803
21
-108.03188612082366
31
0
0
LINE
5
116
100
AcDbEntity
8
0
100
AcDbLine
10
195.16168481529178
20
-105.22544897147796
30
0
11
202.61476612542197
21
-105.22544897147789
31
0
0
CIRCLE
5
117
100
AcDbEntity
8
0
100
AcDbCircle
10
-48.72475116638384
20
-86.900992766595735
30
0
40
1.5000000000000813
210
0
220
0
230
1
0
LWPOLYLINE
5
118
100
AcDbEntity
8
0
100
AcDbPolyline
90
4
70
1
43
0.0
10
218.16148723233368
20
-112.22544880231901
10
232.16148723233403
20
-112.22544880231901
10
232.16148723233403
20
-98.225448802318951
10
218.16148723233368
20
-98.225448802319022
0
LWPOLYLINE
5
119
100
AcDbEntity
8
0
100
AcDbPolyline
90
4
70
1
43
0.0
10
230.18822547035711
20
-131.27544897147814
10
244.18822547035688
20
-131.27544897147814
10
244.18822547035688
20
-117.27544897147808
10
230.18822547035711
20
-117.27544897147816
0
LINE
5
120
100
AcDbEntity
8
0
100
AcDbLine
10
155.60801864954783
20
-110.20095924582407
30
0
11
162.91414764984381
21
-108.72824065544322
31
0
0
LWPOLYLINE
5
121
100
AcDbEntity
8
0
100
AcDbPolyline
90
4
70
1
43
0.0
10
263.23822547035718
20
-131.27544897147823
10
263.23822547035718
20
-117.27544897147823
10
249.23822547035741
20
-117.2754489714783
10
249.23822547035741
20
-131.27544897147823
0
LINE
5
122
100
AcDbEntity
8
0
100
AcDbLine
10
-87.636326969275729
20
-125.65252019144133
30
0
11
-87.636326969275729
21
-122.94632210545444
31
0
0
LWPOLYLINE
5
123
100
AcDbEntity
8
0
100
AcDbPolyline
90
4
70
1
43
0.0
10
205.88964054295332
20
-74.149420979308545
10
219.88964054295366
20
-74.149420979308545
10
219.88964054295366
20
-60.149420979308488
10
205.88964054295332
20
-60.149420979308559
0
LWPOLYLINE
5
124
100
AcDbEntity
8
0
100
AcDbPolyline
90
4
70
1
43
0.0
10
177.64292635489255
20
-94.438360447210954
10
191.60181162356707
20
-93.366202783434318
10
190.52965395979015
20
-79.407317514760294
10
176.5707686911162
20
-80.479475178537001
0
LWPOLYLINE
5
125
100
AcDbEntity
8
0
100
AcDbPolyline
90
20
70
1
43
0.0
10
-67.202737207692849
20
-98.799021317627691
10
-67.20258720769209
20
-102.94982131762772
10
-68.728137207692157
20
-102.94982131762772
10
-68.728137207692157
20
-98.249421317627679
10
-82.72743720769256
20
-98.249421317627679
10
-82.72743720769256
20
-102.94982131762772
10
-84.252837207691869
20
-102.94982131762772
10
-84.252837207691869
20
-98.799021317627691
10
-91.828037207692432
20
-98.799021317627904
10
-91.828037207692432
20
-112.99972131762772
10
-84.252837207691869
20
-112.99972131762772
10
-84.252837207691869
20
-107.5497213176277
10
-82.72743720769256
20
-107.5497213176277
10
-82.72743720769256
20
-112.24872131762773
10
-68.728137207692157
20
-112.24872131762773
10
-68.728137207692157
20
-107.5497213176277
10
-67.20273720769228
20
-107.5497213176277
10
-67.202737207692849
20
-112.99972131762772
10
-59.627537207692285
20
-112.99972131762772
10
-59.627537207692285
20
-98.799021317627904
0
LINE
5
126
100
AcDbEntity
8
0
100
AcDbLine
10
195.16168481529178
20
-192.79019308302259
30
0
11
202.61476612542197
21
-192.79019308302247
31
0
0
LINE
5
127
100
AcDbEntity
8
0
100
AcDbLine
10
244.21218723233835
20
-169.14329195685696
30
0
11
244.21218723233892
21
-166.43709387087006
31
0
0
CIRCLE
5
128
100
AcDbEntity
8
0
100
AcDbCircle
10
237.188225470357
20
-124.27544897147811
30
0
40
1.4999999999997726
210
0
220
0
230
1
0
CIRCLE
5
129
100
AcDbEntity
8
0
100
AcDbCircle
10
178.81179609437481
20
-106.376764709239
30
0
40
1.4999999999999314
210
0
220
0
230
1
0
LWPOLYLINE
5
130
100
AcDbEntity
8
0
100
AcDbPolyline
90
4
70
1
43
0.0
10
192.08822547035652
20
-117.27544897147808
10
192.08822547035652
20
-131.275448971478
10
206.08822547035686
20
-131.275448971478
10
206.08822547035686
20
-117.27544897147801
0
LINE
5
131
100
AcDbEntity
8
0
100
AcDbLine
10
-52.44187950750586
20
-86.636300210082027
30
0
11
-45.007622825260682
21
-87.165685323108875
31
0
0
LINE
5
132
100
AcDbEntity
8
0
100
AcDbLine
10
110.38193082135592
20
-139.22667726502732
30
0
11
117.6721444229338
21
-137.67709452803615
31
0
0
LWPOLYLINE
5
133
100
AcDbEntity
8
0
100
AcDbPolyline
90
4
70
1
43
0.0
10
130.08224075344401
20
-83.768124753983315
10
143.77630716371698
20
-80.857361082534638
10
140.86554349226844
20
-67.163294672261245
10
127.17147708199491
20
-70.074058343709993
0
LWPOLYLINE
5
134
100
AcDbEntity
8
0
100
AcDbPolyline
90
4
70
1
43
0.0
10
225.13822547035716
20
-131.27544897147814
10
225.13822547035716
20
-117.27544897147808
10
211.13822547035682
20
-117.27544897147816
10
211.13822547035682
20
-131.27544897147814
0
LINE
5
135
100
AcDbEntity
8
0
100
AcDbLine
10
233.46168481529219
20
-124.2754489714779
30
0
11
240.91476612542237
21
-124.27544897147776
31
0
0
LINE
5
136
100
AcDbEntity
8
0
100
AcDbLine
10
178.96647876257873
20
-107.72099322117732
30
0
11
178.65711342617033
21
-105.03253619730131
31
0
0
LWPOLYLINE
5
137
100
AcDbEntity
8
0
100
AcDbPolyline
90
63
70
1
43
0.0
10
242.84465822686684
20
-39.097892358924824
10
190.57673464117516
20
-39.097892358924597
42
0.052407779283039718
10
153.15263029397954
20
-43.031324226839587
10
95.24795652013097
20
-55.339342588833134
10
92.937248790382796
20
-58.897520463487893
10
95.962363891781138
20
-73.129568054164594
42
-0.41421356237312795
10
94.807010026906937
20
-74.908656991491966
10
90.466377713134989
20
-75.831286871581369
10
88.155669983387384
20
-79.389464746235916
10
90.650610273200414
20
-91.127235955041428
10
97.663801527361898
20
-95.681655608041325
10
100.82150324304898
20
-110.53747417641334
42
-0.41421356237299695
10
99.281031423217314
20
-112.90959275951636
10
94.659128454679262
20
-113.89200856288106
10
91.724685652477547
20
-117.5157436353345
10
91.724685652478328
20
-118.54700229140711
42
-0.19891236737963353
10
91.138899214851676
20
-119.9612158537802
10
85.724685652477945
20
-125.37542941615398
42
-0.19891236737962534
10
84.310472090105009
20
-125.96121585378071
10
51.138899214851676
20
-125.9612158537807
42
-0.19891236737970369
10
49.724685652478229
20
-125.37542941615349
10
44.310472090105549
20
-119.96121585378074
42
-0.19891236737967763
10
43.72468565247857
20
-118.54700229140761
10
43.72468565247857
20
-117.51574047700231
10
40.790242850277423
20
-113.89200540454908
10
36.127156428232126
20
-112.90083578790953
42
-0.41421356237311907
10
34.586684608399878
20
-110.52871720480596
10
41.485001749659276
20
-78.074686677305593
42
-0.19891236737959153
10
42.352018881096569
20
-76.813168923050412
10
48.942610632240644
20
-72.533188596191849
10
51.437550922053674
20
-60.795417387386266
10
49.126843192304932
20
-57.237239512731435
10
-17.699543592578291
20
-43.032852508905677
42
0.052407779283041162
10
-55.123647939774969
20
-39.099420640990701
10
-98.346895258832774
20
-39.099420640990701
10
-101.34689525883289
20
-42.099420640990672
10
-101.34689525883289
20
-56.321535303947172
10
-106.17478059587654
20
-61.149420640990684
10
-106.17478059587654
20
-75.438449938011942
10
-110.93728059587647
20
-80.200949938012087
10
-110.93728059587647
20
-94.423152943834552
10
-115.76354896966961
20
-99.249421317627693
10
-115.76354896966961
20
-113.53463121770474
10
-120.5283387312528
20
-118.2994209792885
10
-120.5283387312528
20
-130.29942097928847
10
-117.52833873125269
20
-133.29942114844789
10
-47.156744519120927
20
-133.29942114844789
42
-0.052407779283126329
10
-45.077627610939999
20
-133.51794514111043
10
39.080739257671553
20
-151.40635823849064
42
0.052407779283112306
10
49.476323798573389
20
-152.49897820180342
10
85.968884990671782
20
-152.4989782018034
42
0.052404525344127685
10
96.363834707656792
20
-151.40649317017358
10
180.64112260073557
20
-133.49394597780386
42
-0.052404525344127796
10
182.72011254413258
20
-133.27544897147803
10
262.23822547035752
20
-133.27544897147811
10
265.23822547035707
20
-130.2754489714782
10
265.23822547035707
20
-118.27544897147817
10
260.43474899431146
20
-113.47197249543093
10
260.43474899431146
20
-99.225448971478514
10
252.83896245254596
20
-91.629662429710734
10
252.83896245254709
20
-80.725048971478159
10
245.84465822686752
20
-73.730744745798802
10
245.84465822686752
20
-42.097892358924938
0
LINE
5
138
100
AcDbEntity
8
0
100
AcDbLine
10
-67.470855862363237
20
-124.29942131760683
30
0
11
-60.01777455223305
21
-124.29942131760676
31
0
0
LWPOLYLINE
5
139
100
AcDbEntity
8
0
100
AcDbPolyline
90
4
70
1
43
0.0
10
227.68683723233607
20
-185.79019291386359
10
241.68683723233642
20
-185.79019291386359
10
241.68683723233642
20
-199.79019291386365
10
227.68683723233607
20
-199.79019291386365
0
LINE
5
140
100
AcDbEntity
8
0
100
AcDbLine
10
217.93892547036137
20
-169.14329212601601
30
0
11
217.93892547036137
21
-166.43709404002914
31
0
0
LINE
5
141
100
AcDbEntity
8
0
100
AcDbLine
10
180.37069348212015
20
-87.208227489749888
30
0
11
187.80188683256313
21
-86.637450472220792
31
0
0
CIRCLE
5
142
100
AcDbEntity
8
0
100
AcDbCircle
10
184.08629015734164
20
-86.922838980985375
30
0
40
1.4999999999997684
210
0
220
0
230
1
0
LINE
5
143
100
AcDbEntity
8
0
100
AcDbLine
10
153.3645025647769
20
-131.47377768403805
30
0
11
152.80185234503108
21
-128.82671651911963
31
0
0
LWPOLYLINE
5
144
100
AcDbEntity
8
0
100
AcDbPolyline
90
4
70
1
43
0.0
10
127.26673914419678
20
-109.00572814017266
10
113.57267273392324
20
-111.91649181162141
10
116.48343640537178
20
-125.61055822189473
10
130.17750281564474
20
-122.69979455044599
0
LINE
5
145
100
AcDbEntity
8
0
100
AcDbLine
10
252.51168481529248
20
-124.27544897147797
30
0
11
259.9647661254221
21
-124.2754489714779
31
0
0
CIRCLE
5
146
100
AcDbEntity
8
0
100
AcDbCircle
10
-28.943977249806494
20
-89.242102246652166
30
0
40
1.4999999999999178
210
0
220
0
230
1
0
LWPOLYLINE
5
147
100
AcDbEntity
8
0
100
AcDbPolyline
90
4
70
1
43
0.0
10
-36.081577116712538
20
-100.04047226065765
10
-50.006988242577108
20
-98.597238053864587
10
-51.450222449370244
20
-112.5226491797288
10
-37.524811323505673
20
-113.96588338652187
0
LINE
5
148
100
AcDbEntity
8
0
100
AcDbLine
10
200.10867179748118
20
-86.175448971477877
30
0
11
207.56175310761193
21
-86.175448971477806
31
0
0
LWPOLYLINE
5
149
100
AcDbEntity
8
0
100
AcDbPolyline
90
4
70
1
43
0.0
10
-26.616942230563723
20
-121.08443543379849
10
-29.527705902012826
20
-134.7785018440718
10
-15.833639491739291
20
-137.68926551552042
10
-12.922875820290187
20
-123.99519910524717
0
LWPOLYLINE
5
150
100
AcDbEntity
8
0
100
AcDbPolyline
90
4
70
1
43
0.0
10
35.995101001130365
20
-56.49068273356832
10
33.08433732968183
20
-70.184749143841572
10
46.778403739955365
20
-73.095512815290249
10
49.689167411403901
20
-59.401446405016927
0
CIRCLE
5
151
100
AcDbEntity
8
0
100
AcDbCircle
10
22.75304057656399
20
-60.832380064350957
30
0
40
1.4999999999999944
210
0
220
0
230
1
0
LWPOLYLINE
5
152
100
AcDbEntity
8
0
100
AcDbPolyline
90
4
70
1
43
0.0
10
167.60641896602635
20
-76.139087684678515
10
181.50641438128048
20
-74.468720223335296
10
179.83604691993776
20
-60.5687248080811
10
165.93605150468306
20
-62.23909226942439
0
LWPOLYLINE
5
153
100
AcDbEntity
8
0
100
AcDbPolyline
90
4
70
1
43
0.0
10
-80.636326969275274
20
-131.29942114844789
10
-80.636326969275274
20
-117.29942114844789
10
-94.636326969275615
20
-117.29942114844796
10
-94.636326969275615
20
-131.29942114844789
0
LINE
5
154
100
AcDbEntity
8
0
100
AcDbLine
10
170.02131165582739
20
-68.798527121636184
30
0
11
177.42115423013672
21
-67.909285371122863
31
0
0
CIRCLE
5
155
100
AcDbEntity
8
0
100
AcDbCircle
10
27.44403839497636
20
-81.30507076361269
30
0
40
1.4999999999998679
210
0
220
0
230
1
0
LWPOLYLINE
5
156
100
AcDbEntity
8
0
100
AcDbPolyline
90
4
70
1
43
0.0
10
97.849724611393185
20
-129.57127593197313
10
111.54379102166615
20
-126.66051226052431
10
108.63302735021762
20
-112.96644585025106
10
94.938960939944081
20
-115.87720952169981
0
LINE
5
157
100
AcDbEntity
8
0
100
AcDbLine
10
41.10542726067024
20
-66.11662835688854
30
0
11
41.668077480415491
21
-63.469567191969958
31
0
0
LWPOLYLINE
5
158
100
AcDbEntity
8
0
100
AcDbPolyline
90
8
70
1
43
0.0
10
90.724685652477888
20
-118.96121585378033
10
90.724685652477888
20
-100.96121803615681
10
84.724685652477092
20
-94.961218036157078
10
50.724685652479025
20
-94.961218036157078
10
44.724685652478797
20
-100.96121803615631
10
44.724685652478229
20
-118.96121585378054
10
50.724685652478456
20
-124.9612158537807
10
84.72468565247766
20
-124.9612158537807
0
LINE
5
159
100
AcDbEntity
8
0
100
AcDbLine
10
27.175720203006222
20
-102.10695438399839
30
0
11
27.738370422751473
21
-99.459893219079873
31
0
0
LINE
5
160
100
AcDbEntity
8
0
100
AcDbLine
10
108.2323168084298
20
-102.11500170913588
30
0
11
107.66966658868398
21
-99.467940544217441
31
0
0
LWPOLYLINE
5
161
100
AcDbEntity
8
0
100
AcDbPolyline
90
4
70
1
43
0.0
10
-28.817774332215436
20
-120.61663412945848
10
-31.728538003663971
20
-134.31070053973178
10
-18.034471593390435
20
-137.2214642111804
10
-15.1237079219419
20
-123.52739780090715
0
LWPOLYLINE
5
162
100
AcDbEntity
8
0
100
AcDbPolyline
90
4
70
1
43
0.0
10
184.9656847910336
20
-98.622433409305046
10
171.05746479444065
20
-100.22287601258085
10
172.65790739771603
20
-114.13109600917352
10
186.56612739430898
20
-112.53065340589778
0
LINE
5
163
100
AcDbEntity
8
0
100
AcDbLine
10
67.724685652480048
20
-111.14782487387949
30
0
11
67.724685652480048
21
-102.77460683368098
31
0
0
LWPOLYLINE
5
164
100
AcDbEntity
8
0
100
AcDbPolyline
90
4
70
1
43
0.0
10
4.9967238242896883
20
-122.64130758815512
10
18.690790234563224
20
-125.55207125960372
10
21.601553906011759
20
-111.8580048493304
10
7.9074874957382235
20
-108.94724117788179
0
LINE
5
165
100
AcDbEntity
8
0
100
AcDbLine
10
63.538076632380012
20
-106.96121585378023
30
0
11
71.911294672580084
21
-106.96121585378023
31
0
0
CIRCLE
5
166
100
AcDbEntity
8
0
100
AcDbCircle
10
114.02703762214514
20
-138.45188589653176
30
0
40
1.4999999999997726
210
0
220
0
230
1
0
LWPOLYLINE
5
167
100
AcDbEntity
8
0
100
AcDbPolyline
90
4
70
1
43
0.0
10
40.235265699990919
20
-115.81872255940887
10
26.541199289717383
20
-112.90795888796019
10
23.63043561826828
20
-126.60202529823344
10
37.324502028541815
20
-129.51278896968219
0
LWPOLYLINE
5
168
100
AcDbEntity
8
0
100
AcDbPolyline
90
4
70
1
43
0.0
10
32.835689764388007
20
-89.60748580447401
10
35.746453435837111
20
-75.913419394200687
10
22.052387025563576
20
-73.00265572275201
10
19.141623354114472
20
-86.696722133025261
0
LINE
5
169
100
AcDbEntity
8
0
100
AcDbLine
10
27.16271328510345
20
-82.628601346072301
30
0
11
27.725363504848133
21
-79.981540181153719
31
0
0
CIRCLE
5
170
100
AcDbEntity
8
0
100
AcDbCircle
10
41.386752370542581
20
-64.793097774429214
30
0
40
1.4999999999998868
210
0
220
0
230
1
0
CIRCLE
5
171
100
AcDbEntity
8
0
100
AcDbCircle
10
153.08317745490399
20
-130.15024710157846
30
0
40
1.4999999999999745
210
0
220
0
230
1
0
CIRCLE
5
172
100
AcDbEntity
8
0
100
AcDbCircle
10
121.87508777478399
20
-117.3081431810337
30
0
40
1.4999999999997773
210
0
220
0
230
1
0
LWPOLYLINE
5
173
100
AcDbEntity
8
0
100
AcDbPolyline
90
4
70
1
43
0.0
10
14.45062553570267
20
-66.224031433763244
10
28.144691945976206
20
-69.134795105211921
10
31.055455617424741
20
-55.440728694938599
10
17.361389207151205
20
-52.529965023489993
0
CIRCLE
5
174
100
AcDbEntity
8
0
100
AcDbCircle
10
159.26108314969611
20
-109.46459995063364
30
0
40
1.5000000000000404
210
0
220
0
230
1
0
LWPOLYLINE
5
175
100
AcDbEntity
8
0
100
AcDbPolyline
90
4
70
1
43
0.0
10
258.43474899431158
20
-112.22544897147813
10
258.43474899431158
20
-98.225448971478073
10
244.43474899431124
20
-98.225448971478073
10
244.43474899431124
20
-112.22544897147813
0
LINE
5
176
100
AcDbEntity
8
0
100
AcDbLine
10
198.88822547035659
20
-194.14329212601629
30
0
11
198.88822547035659
21
-191.43709404002934
31
0
0
LINE
5
177
100
AcDbEntity
8
0
100
AcDbLine
10
149.43807065411477
20
-130.92503847007421
30
0
11
156.72828425569321
21
-129.3754557330827
31
0
0
LWPOLYLINE
5
178
100
AcDbEntity
8
0
100
AcDbPolyline
90
4
70
1
43
0.0
10
161.38559249576474
20
-135.5418984709911
10
158.47482882431621
20
-121.84783206071778
10
144.78076241404267
20
-124.75859573216653
10
147.69152608549177
20
-138.45266214243986
0
CIRCLE
5
179
100
AcDbEntity
8
0
100
AcDbCircle
10
126.58470349253548
20
-96.830753416598299
30
0
40
1.5000000000002158
210
0
220
0
230
1
0
LINE
5
180
100
AcDbEntity
8
0
100
AcDbLine
10
-111.52833873125303
20
-125.65252002228192
30
0
11
-111.52833873125303
21
-122.94632193629504
31
0
0
LINE
5
181
100
AcDbEntity
8
0
100
AcDbLine
10
37.741645569753928
20
-64.018306405933316
30
0
11
45.031859171332371
21
-65.567889142924685
31
0
0
CIRCLE
5
182
100
AcDbEntity
8
0
100
AcDbCircle
10
-111.52833873125246
20
-124.29942097928816
30
0
40
1.4999999999999232
210
0
220
0
230
1
0
LWPOLYLINE
5
183
100
AcDbEntity
8
0
100
AcDbPolyline
90
4
70
1
43
0.0
10
99.648576657695571
20
-95.399819757264339
10
102.55934032914467
20
-109.09388616753766
10
116.25340673941764
20
-106.18312249608898
10
113.34264306796911
20
-92.489056085815591
0
LINE
5
184
100
AcDbEntity
8
0
100
AcDbLine
10
19.107933775774768
20
-60.057588695854989
30
0
11
26.398147377353212
21
-61.607171432846357
31
0
0
LWPOLYLINE
5
185
100
AcDbEntity
8
0
100
AcDbPolyline
90
4
70
1
43
0.0
10
158.60268059851194
20
-97.309039010749103
10
172.42121924557352
20
-95.062265844702196
10
170.17444607952655
20
-81.243727197640681
10
156.35590743246496
20
-83.490500363687659
0
LINE
5
186
100
AcDbEntity
8
0
100
AcDbLine
10
122.1564128846569
20
-118.63167376349296
30
0
11
121.59376266491108
21
-115.98461259857444
31
0
0
LINE
5
187
100
AcDbEntity
8
0
100
AcDbLine
10
22.47171546669108
20
-62.155910646810213
30
0
11
23.034365686436331
21
-59.508849481891701
31
0
0
LWPOLYLINE
5
188
100
AcDbEntity
8
0
100
AcDbPolyline
90
4
70
1
43
0.0
10
121.19305212312327
20
-105.13316845745933
10
134.8871185333968
20
-102.22240478601059
10
131.97635486194827
20
-88.528338375737263
10
118.28228845167473
20
-91.439102047186012
0
LINE
5
189
100
AcDbEntity
8
0
100
AcDbLine
10
23.798931594187138
20
-80.530279395117006
30
0
11
31.089145195765013
21
-82.079862132108445
31
0
0
LWPOLYLINE
5
190
100
AcDbEntity
8
0
100
AcDbPolyline
90
4
70
1
43
0.0
10
-118.52833873125292
20
-117.29942097928856
10
-118.52833873125292
20
-131.29942097928847
10
-104.52833873125257
20
-131.29942097928847
10
-104.52833873125257
20
-117.29942097928848
0
LINE
5
191
100
AcDbEntity
8
0
100
AcDbLine
10
118.22998097399477
20
-118.08293454952917
30
0
11
125.52019457557321
21
-116.53335181253766
31
0
0
LINE
5
192
100
AcDbEntity
8
0
100
AcDbLine
10
238.41337788740134
20
-192.79019291386339
30
0
11
230.96029657727115
21
-192.79019291386328
31
0
0
CIRCLE
5
193
100
AcDbEntity
8
0
100
AcDbCircle
10
-63.744315207297859
20
-124.29942131760683
30
0
40
1.4999999999999933
210
0
220
0
230
1
0
LINE
5
194
100
AcDbEntity
8
0
100
AcDbLine
10
122.93959669174626
20
-97.60554478509377
30
0
11
130.2298102933247
21
-96.055962048102259
31
0
0
LWPOLYLINE
5
195
100
AcDbEntity
8
0
100
AcDbPolyline
90
4
70
1
43
0.0
10
210.83521245254701
20
-79.175448971478062
10
196.83521245254667
20
-79.175448971478133
10
196.83521245254667
20
-93.175448971478119
10
210.83521245254701
20
-93.175448971478119
0
LINE
5
196
100
AcDbEntity
8
0
100
AcDbLine
10
234.68683723233653
20
-194.1432919568571
30
0
11
234.68683723233653
21
-191.43709387087014
31
0
0
LINE
5
197
100
AcDbEntity
8
0
100
AcDbLine
10
159.52845365490361
20
-110.7910199569271
30
0
11
158.99371264448803
21
-108.13817994434075
31
0
0
LINE
5
198
100
AcDbEntity
8
0
100
AcDbLine
10
140.79012467863549
20
-114.6709560534147
30
0
11
140.22747445889024
21
-112.02389488849619
31
0
0
CIRCLE
5
199
100
AcDbEntity
8
0
100
AcDbCircle
10
140.50879956876315
20
-113.34742547095544
30
0
40
1.5000000000002764
210
0
220
0
230
1
0
LINE
5
200
100
AcDbEntity
8
0
100
AcDbLine
10
221.66546612542618
20
-167.79019308302239
30
0
11
214.21238481529599
21
-167.79019308302225
31
0
0
LWPOLYLINE
5
201
100
AcDbEntity
8
0
100
AcDbPolyline
90
4
70
1
43
0.0
10
-10.184062538241392
20
-124.57735183955741
10
-13.094826209690495
20
-138.27141824983073
10
0.59924020058303995
20
-141.18218192127941
10
3.5100038720321436
20
-127.48811551100609
0
LINE
5
202
100
AcDbEntity
8
0
100
AcDbLine
10
126.86602860240839
20
-98.154283999057483
30
0
11
126.30337838266257
21
-95.507222834139043
31
0
0
LINE
5
203
100
AcDbEntity
8
0
100
AcDbLine
10
136.86369276797393
20
-114.12221683945091
30
0
11
144.15390636955181
21
-112.5726341024594
31
0
0
CIRCLE
5
204
100
AcDbEntity
8
0
100
AcDbCircle
10
-23.42612296280322
20
-128.91904917031951
30
0
40
1.5000000000001188
210
0
220
0
230
1
0
LINE
5
205
100
AcDbEntity
8
0
100
AcDbLine
10
-23.707448072675561
20
-130.24257975277877
30
0
11
-23.14479785293031
21
-127.59551858786018
31
0
0
LWPOLYLINE
5
206
100
AcDbEntity
8
0
100
AcDbPolyline
90
4
70
1
43
0.0
10
-31.728538003663971
20
-134.31070053973178
10
-18.034471593390435
20
-137.2214642111804
10
-15.1237079219419
20
-123.52739780090715
10
-28.817774332215436
20
-120.61663412945848
0
LINE
5
207
100
AcDbEntity
8
0
100
AcDbLine
10
-24.87039766194016
20
-128.61205910616354
30
0
11
-17.580184060362285
21
-130.16164184315494
31
0
0
LWPOLYLINE
5
208
100
AcDbEntity
8
0
100
AcDbPolyline
90
4
70
1
43
0.0
10
-63.303817246245444
20
-249.77422264923712
10
-63.303817246245444
20
-235.77422264923712
10
-77.303817246245785
20
-235.77422264923689
10
-77.303817246245785
20
-249.77422264923683
0
LINE
5
209
100
AcDbEntity
8
0
100
AcDbLine
10
-52.309184377357951
20
-242.77422248007795
30
0
11
-44.856103067227764
21
-242.77422248007781
31
0
0
LWPOLYLINE
5
210
100
AcDbEntity
8
0
100
AcDbPolyline
90
4
70
1
43
0.0
10
-41.582643722293255
20
-235.77422248007815
10
-55.582643722293028
20
-235.77422248007815
10
-55.582643722293028
20
-249.77422248007804
10
-41.582643722293255
20
-249.77422248007804
0
LINE
5
211
100
AcDbEntity
8
0
100
AcDbLine
10
-70.30381724624533
20
-244.12732169223048
30
0
11
-70.30381724624533
21
-241.42112360624353
31
0
0
LINE
5
212
100
AcDbEntity
8
0
100
AcDbLine
10
-74.030357901310708
20
-242.77422264923666
30
0
11
-66.577276591180521
21
-242.77422264923678
31
0
0
LWPOLYLINE
5
213
100
AcDbEntity
8
0
100
AcDbPolyline
90
20
70
1
43
0.0
10
8.2053458495414588
20
-143.56597173402554
10
15.615009554619519
20
-145.14094437430813
10
16.748128269576341
20
-139.81003995030881
10
18.240194619735917
20
-140.12718844348228
10
17.263217584583117
20
-144.72350401933042
10
30.956599291536122
20
-147.63412215259549
10
31.933576326688922
20
-143.03780657674736
10
33.425642676847929
20
-143.35495506992075
10
32.292523961891106
20
-148.68585949391999
10
39.702187666969735
20
-150.26083213420259
10
42.654679214765565
20
-136.37045150046234
10
35.245015509686937
20
-134.79547886017954
10
34.382162385580841
20
-138.85560510805897
10
32.889949313280908
20
-138.53842542813197
10
33.867217424801197
20
-133.94074044564277
10
20.173835717848192
20
-131.0301223123777
10
19.196567606328472
20
-135.62780729486676
10
17.704501256168896
20
-135.31065880169342
10
18.567501102415349
20
-131.2505637405676
10
11.157837397336721
20
-129.67559110028503
0
LWPOLYLINE
5
214
100
AcDbEntity
8
0
100
AcDbPolyline
90
20
70
1
43
0.0
10
17.43433773247375
20
-130.4478240399051
10
3.7409560255213137
20
-127.53720590664003
10
2.7636879140010251
20
-132.13489088912908
10
1.2716215638414496
20
-131.81774239595575
10
2.1346214100879024
20
-127.75764733482994
10
-5.2750422949912945
20
-126.18267469454736
10
-8.2275338427859879
20
-140.07305532828786
10
-0.81787013770792782
20
-141.64802796857046
10
0.31524857724889443
20
-136.31712354457113
10
1.8073149274084699
20
-136.63427203774461
10
0.83033789225567034
20
-141.23058761359275
10
14.523719599208675
20
-144.14120574685782
10
15.500696634361475
20
-139.54489017100968
10
16.992762984520482
20
-139.86203866418307
10
15.85964426956366
20
-145.19294308818232
10
23.269307974642288
20
-146.76791572846491
10
26.221799522438118
20
-132.87753509472466
10
18.81213581735949
20
-131.30256245444187
10
17.949282693253394
20
-135.36268870232129
10
16.45706962095403
20
-135.0455090223943
0
LINE
5
215
100
AcDbEntity
8
0
100
AcDbLine
10
5.4875005941448762
20
-135.06482957900502
30
0
11
12.777714195722183
21
-136.61441231599645
31
0
0
LINE
5
216
100
AcDbEntity
8
0
100
AcDbLine
10
37.007663736168297
20
-143.14797516029864
30
0
11
37.570313955913548
21
-140.50091399538005
31
0
0
LWPOLYLINE
5
217
100
AcDbEntity
8
0
100
AcDbPolyline
90
4
70
1
43
0.0
10
31.897337476628422
20
-133.52202953697841
10
28.986573805179319
20
-147.21609594725166
10
42.680640215452854
20
-150.12685961870034
10
45.591403886901958
20
-136.43279320842703
0
LWPOLYLINE
5
218
100
AcDbEntity
8
0
100
AcDbPolyline
90
4
70
1
43
0.0
10
45.591403886901958
20
-136.43279320842703
10
31.897337476628422
20
-133.52202953697841
10
28.986573805179319
20
-147.21609594725166
10
42.680640215452854
20
-150.12685961870034
0
LINE
5
219
100
AcDbEntity
8
0
100
AcDbLine
10
33.643882045251985
20
-141.0496532093434
30
0
11
40.93409564682986
21
-142.59923594633483
31
0
0
LINE
5
220
100
AcDbEntity
8
0
100
AcDbLine
10
37.007663736168297
20
-143.14797516029864
30
0
11
37.570313955913548
21
-140.50091399538005
31
0
0
LINE
5
221
100
AcDbEntity
8
0
100
AcDbLine
10
-48.582643722293142
20
-244.12732152307157
30
0
11
-48.582643722293142
21
-241.4211234370847
31
0
0
LWPOLYLINE
5
222
100
AcDbEntity
8
0
100
AcDbPolyline
90
20
70
1
43
0.0
10
-1.8855835244028185
20
-135.849322240231
10
-0.3935171742438115
20
-136.16647073340445
10
-1.3704942093960426
20
-140.76278630925265
10
12.322887497556962
20
-143.67340444251772
10
13.299864532709194
20
-139.07708886666953
10
14.791930882868769
20
-139.39423735984292
10
13.658812167911378
20
-144.72514178384222
10
21.068475872990575
20
-146.30011442412481
10
24.020967420786405
20
-132.40973379038451
10
16.611303715707777
20
-130.83476115010171
10
15.748450591601681
20
-134.89488739798119
10
14.256237519302317
20
-134.57770771805414
10
15.233505630821469
20
-129.98002273556494
10
1.5401239238690323
20
-127.06940460229987
10
0.56285581234931215
20
-131.66708958478898
10
-0.9292105378102633
20
-131.34994109161562
10
-0.066210691564378976
20
-127.28984603048978
10
-7.4758743966430075
20
-125.7148733902072
10
-10.428365944438269
20
-139.60525402394774
10
-3.0187022393596408
20
-141.1802266642303
0
LINE
5
223
100
AcDbEntity
8
0
100
AcDbLine
10
6.6504501834089069
20
-136.69535022562025
30
0
11
7.2131004031541579
21
-134.04828906070165
31
0
0
LINE
5
224
100
AcDbEntity
8
0
100
AcDbLine
10
-5.0737362787015172
20
-134.20329746287769
30
0
11
-4.5110860589562662
21
-131.55623629795912
31
0
0
LINE
5
225
100
AcDbEntity
8
0
100
AcDbLine
10
13.017813755278098
20
-118.57318680120201
30
0
11
13.580463975023349
21
-115.9261256362835
31
0
0
LINE
5
226
100
AcDbEntity
8
0
100
AcDbLine
10
-5.6158980387010615
20
-114.61246909112397
30
0
11
-5.0532478189558105
21
-111.96540792620539
31
0
0
LINE
5
227
100
AcDbEntity
8
0
100
AcDbLine
10
-13.455485075867841
20
-92.087197012886506
30
0
11
-6.1652714742899661
21
-93.636779749877945
31
0
0
LWPOLYLINE
5
228
100
AcDbEntity
8
0
100
AcDbPolyline
90
4
70
1
43
0.0
10
2.9678421120325993
20
-107.89728713925236
10
-10.726224298240936
20
-104.98652346780368
10
-13.63698796969004
20
-118.68058987807693
10
0.057078440583495649
20
-121.59135354952568
0
CIRCLE
5
229
100
AcDbEntity
8
0
100
AcDbCircle
10
-9.8103782750786195
20
-92.86198838138219
30
0
40
1.5000000000001688
210
0
220
0
230
1
0
LINE
5
230
100
AcDbEntity
8
0
100
AcDbLine
10
-8.9796797296173736
20
-112.51414714016867
30
0
11
-1.6894661280394985
21
-114.06372987716011
31
0
0
LWPOLYLINE
5
231
100
AcDbEntity
8
0
100
AcDbPolyline
90
4
70
1
43
0.0
10
-18.112793315940507
20
-98.253639750794761
10
-4.418726905666972
20
-101.16440342224351
10
-1.5079632342178684
20
-87.470337011970187
10
-15.202029644491404
20
-84.55957334052151
0
LWPOLYLINE
5
232
100
AcDbEntity
8
0
100
AcDbPolyline
90
4
70
1
43
0.0
10
0.52091847803865221
20
-102.21435746087302
10
14.214984888312188
20
-105.12512113232177
10
17.125748559760723
20
-91.431054722048444
10
3.4316821494871874
20
-88.520291050599766
0
LINE
5
233
100
AcDbEntity
8
0
100
AcDbLine
10
0.47422198179617681
20
-56.096870985776732
30
0
11
7.7644355833740519
21
-57.646453722768101
31
0
0
CIRCLE
5
234
100
AcDbEntity
8
0
100
AcDbCircle
10
-14.51438301139433
20
-52.910944644194444
30
0
40
1.5000000000000564
210
0
220
0
230
1
0
LWPOLYLINE
5
235
100
AcDbEntity
8
0
100
AcDbPolyline
90
4
70
1
43
0.0
10
-4.4317338235697434
20
-81.686050384317284
10
-1.5209701521206398
20
-67.991983974043961
10
-15.215036562394175
20
-65.081220302595355
10
-18.125800233843279
20
-78.775286712868606
0
LWPOLYLINE
5
236
100
AcDbEntity
8
0
100
AcDbPolyline
90
4
70
1
43
0.0
10
-4.1830862582764894
20
-62.263313723684988
10
9.5109801519970461
20
-65.174077395133665
10
12.42174382344615
20
-51.480010984860343
10
-1.2723225868273857
20
-48.569247313411736
0
LINE
5
237
100
AcDbEntity
8
0
100
AcDbLine
10
5.1652198002079786
20
-76.569561685038678
30
0
11
12.455433401786422
21
-78.119144422030047
31
0
0
LINE
5
238
100
AcDbEntity
8
0
100
AcDbLine
10
8.5290014911242906
20
-78.667883635993903
30
0
11
9.0916517108695416
21
-76.02082247107532
31
0
0
LINE
5
239
100
AcDbEntity
8
0
100
AcDbLine
10
-14.795708121266671
20
-54.2344752266537
30
0
11
-14.23305790152142
21
-51.587414061735117
31
0
0
LWPOLYLINE
5
240
100
AcDbEntity
8
0
100
AcDbPolyline
90
4
70
1
43
0.0
10
17.112741641857951
20
-71.952701684122289
10
3.418675231584416
20
-69.041938012673683
10
0.50791156013588079
20
-82.736004422946934
10
14.201977970409416
20
-85.646768094395611
0
LWPOLYLINE
5
241
100
AcDbEntity
8
0
100
AcDbPolyline
90
4
70
1
43
0.0
10
-9.1227316419815452
20
-61.213359685055337
10
-6.21196797053301
20
-47.519293274782086
10
-19.906034380806545
20
-44.608529603333409
10
-22.816798052255081
20
-58.30259601360666
0
CIRCLE
5
242
100
AcDbEntity
8
0
100
AcDbCircle
10
8.8103266009966319
20
-77.344353053534576
30
0
40
1.5000000000000617
210
0
220
0
230
1
0
CIRCLE
5
243
100
AcDbEntity
8
0
100
AcDbCircle
10
-9.8233851929819593
20
-73.383635343456319
30
0
40
1.5000000000000577
210
0
220
0
230
1
0
CIRCLE
5
244
100
AcDbEntity
8
0
100
AcDbCircle
10
4.1193287825853986
20
-56.871662354272416
30
0
40
1.4999999999999345
210
0
220
0
230
1
0
LWPOLYLINE
5
245
100
AcDbEntity
8
0
100
AcDbPolyline
90
4
70
1
43
0.0
10
22.065393943466347
20
-92.481008760678165
10
19.154630272017812
20
-106.17507517095142
10
32.848696682291347
20
-109.08583884240009
10
35.759460353739883
20
-95.391772432126771
0
LINE
5
246
100
AcDbEntity
8
0
100
AcDbLine
10
-13.468491993770613
20
-72.608843974960351
30
0
11
-6.1782783921927376
21
-74.158426711951719
31
0
0
LINE
5
247
100
AcDbEntity
8
0
100
AcDbLine
10
-18.159489812182983
20
-52.136153275698405
30
0
11
-10.869276210604539
21
-53.685736012689773
31
0
0
LINE
5
248
100
AcDbEntity
8
0
100
AcDbLine
10
103.52270109067774
20
-122.59239147357128
30
0
11
102.96005087093249
21
-119.94533030865284
31
0
0
LINE
5
249
100
AcDbEntity
8
0
100
AcDbLine
10
3.8380036727124889
20
-58.195192936731956
30
0
11
4.4006538924571714
21
-55.548131771813445
31
0
0
LINE
5
250
100
AcDbEntity
8
0
100
AcDbLine
10
-10.104710302854301
20
-74.707165925915575
30
0
11
-9.5420600831090496
21
-72.060104760997064
31
0
0
CIRCLE
5
251
100
AcDbEntity
8
0
100
AcDbCircle
10
27.457045312878563
20
-100.78342380153913
30
0
40
1.5000000000001066
210
0
220
0
230
1
0
CIRCLE
5
252
100
AcDbEntity
8
0
100
AcDbCircle
10
31.932850659129599
20
-121.21037392882087
30
0
40
1.4999999999998104
210
0
220
0
230
1
0
LINE
5
253
100
AcDbEntity
8
0
100
AcDbLine
10
23.81193851208991
20
-100.00863243304316
30
0
11
31.102152113668353
21
-101.55821517003453
31
0
0
LINE
5
254
100
AcDbEntity
8
0
100
AcDbLine
10
99.596269180016179
20
-122.0436522596075
30
0
11
106.88648278159405
21
-120.49406952261606
31
0
0
LINE
5
255
100
AcDbEntity
8
0
100
AcDbLine
10
31.651525549256689
20
-122.53390451128041
30
0
11
32.21417576900194
21
-119.8868433463619
31
0
0
LINE
5
256
100
AcDbEntity
8
0
100
AcDbLine
10
104.30588489776767
20
-101.5662624951721
30
0
11
111.59609849934611
21
-100.01667975818059
31
0
0
LINE
5
257
100
AcDbEntity
8
0
100
AcDbLine
10
114.30836273201749
20
-139.77541647899125
30
0
11
113.74571251227223
21
-137.12835531407265
31
0
0
CIRCLE
5
258
100
AcDbEntity
8
0
100
AcDbCircle
10
107.95099169855689
20
-100.79147112667634
30
0
40
1.4999999999998921
210
0
220
0
230
1
0
CIRCLE
5
259
100
AcDbEntity
8
0
100
AcDbCircle
10
103.24137598080483
20
-121.26886089111181
30
0
40
1.4999999999998659
210
0
220
0
230
1
0
LINE
5
260
100
AcDbEntity
8
0
100
AcDbLine
10
28.287743858340377
20
-120.43558256032519
30
0
11
35.577957459918821
21
-121.98516529731663
31
0
0
LINE
5
261
100
AcDbEntity
8
0
100
AcDbLine
10
25.284161977387498
20
-140.65606793569805
30
0
11
25.846812197133318
21
-138.00900677077948
31
0
0
LINE
5
262
100
AcDbEntity
8
0
100
AcDbLine
10
67.133508966602449
20
-134.38090659814918
30
0
11
68.315801315938529
21
-133.19861424881253
31
0
0
CIRCLE
5
263
100
AcDbEntity
8
0
100
AcDbCircle
10
25.565487087260976
20
-139.33253735323845
30
0
40
1.4999999999999063
210
0
220
0
230
1
0
LINE
5
264
100
AcDbEntity
8
0
100
AcDbLine
10
21.920380286471755
20
-138.5577459847427
30
0
11
29.210593888050198
21
-140.10732872173412
31
0
0
LINE
5
265
100
AcDbEntity
8
0
100
AcDbLine
10
-8.4375179696178293
20
-132.10497551192248
30
0
11
-1.1473043680399542
21
-133.65455824891384
31
0
0
CIRCLE
5
266
100
AcDbEntity
8
0
100
AcDbCircle
10
-4.7924111688291759
20
-132.87976688041837
30
0
40
1.4999999999999236
210
0
220
0
230
1
0
CIRCLE
5
267
100
AcDbEntity
8
0
100
AcDbCircle
10
-5.3345729288287203
20
-113.28893850866464
30
0
40
1.4999999999998641
210
0
220
0
230
1
0
CIRCLE
5
268
100
AcDbEntity
8
0
100
AcDbCircle
10
8.8233335188999718
20
-96.822706091460446
30
0
40
1.5000000000000735
210
0
220
0
230
1
0
LINE
5
269
100
AcDbEntity
8
0
100
AcDbLine
10
-10.091703384951529
20
-94.185518963841801
30
0
11
-9.5290531652068466
21
-91.538457798923218
31
0
0
LINE
5
270
100
AcDbEntity
8
0
100
AcDbLine
10
8.542008409027062
20
-98.146236673920058
30
0
11
9.104658628772313
21
-95.499175509001475
31
0
0
LINE
5
271
100
AcDbEntity
8
0
100
AcDbLine
10
5.17822671811075
20
-96.047914722964762
30
0
11
12.468440319689194
21
-97.597497459956202
31
0
0
CIRCLE
5
272
100
AcDbEntity
8
0
100
AcDbCircle
10
13.299138865151008
20
-117.24965621874276
30
0
40
1.4999999999999831
210
0
220
0
230
1
0
LINE
5
273
100
AcDbEntity
8
0
100
AcDbLine
10
9.6540320643617861
20
-116.47486485024679
30
0
11
16.94424566594023
21
-118.02444758723816
31
0
0
LWPOLYLINE
5
274
100
AcDbEntity
8
0
100
AcDbPolyline
90
4
70
1
43
0.0
10
171.43352430190873
20
-42.501774302150039
10
172.57618561797528
20
-56.455065136815747
10
186.52947645264135
20
-55.312403820748983
10
185.38681513657423
20
-41.359112986083204
0
LINE
5
275
100
AcDbEntity
8
0
100
AcDbLine
10
164.60571381193347
20
-90.611943919831077
30
0
11
164.17141286610445
21
-87.940822288558778
31
0
0
CIRCLE
5
276
100
AcDbEntity
8
0
100
AcDbCircle
10
164.38856333901867
20
-89.276383104194963
30
0
40
1.5000000000001186
210
0
220
0
230
1
0
CIRCLE
5
277
100
AcDbEntity
8
0
100
AcDbCircle
10
-34.243182838656594
20
-49.742222834588432
30
0
40
1.4999999999998539
210
0
220
0
230
1
0
LWPOLYLINE
5
278
100
AcDbEntity
8
0
100
AcDbPolyline
90
20
70
1
43
0.0
10
241.73836245254677
20
-93.174748971478039
10
241.73836245254734
20
-88.475748971478083
10
243.26376245254721
20
-88.475748971478083
10
243.26376245254721
20
-93.925748971478029
10
250.83896245254664
20
-93.925748971478029
10
250.83896245254664
20
-79.725048971478287
10
243.26376245254721
20
-79.725048971478003
10
243.26376245254664
20
-83.875848971478035
10
241.73836245254677
20
-83.875848971478035
10
241.73836245254677
20
-79.175448971478062
10
227.73906245254693
20
-79.175448971478062
10
227.73906245254693
20
-83.875848971478035
10
226.21351245254687
20
-83.875848971478035
10
226.21366245254649
20
-79.725048971478003
10
218.63846245254706
20
-79.725048971478145
10
218.63846245254706
20
-93.925748971478029
10
226.21366245254649
20
-93.9257489714781
10
226.21366245254649
20
-88.475748971477941
10
227.73906245254693
20
-88.475748971478083
10
227.73906245254693
20
-93.174748971478039
0
LWPOLYLINE
5
279
100
AcDbEntity
8
0
100
AcDbPolyline
90
4
70
1
43
0.0
10
-66.282768833899013
20
-74.149420640990655
10
-66.282768833899013
20
-60.149420640990598
10
-80.282768833899354
20
-60.14942064099067
10
-80.282768833899354
20
-74.149420640990655
0
LWPOLYLINE
5
280
100
AcDbEntity
8
0
100
AcDbPolyline
90
4
70
1
43
0.0
10
111.29046238275464
20
-68.286852219943199
10
108.3796987113061
20
-54.592785809669877
10
94.68563230103257
20
-57.503549481118625
10
97.596395972481673
20
-71.197615891391948
0
LWPOLYLINE
5
281
100
AcDbEntity
8
0
100
AcDbPolyline
90
4
70
1
43
0.0
10
200.83964054295336
20
-74.125448971478178
10
200.83964054295336
20
-60.125448971478122
10
186.83964054295302
20
-60.125448971478193
10
186.83964054295302
20
-74.125448971478178
0
LINE
5
282
100
AcDbEntity
8
0
100
AcDbLine
10
233.11811757180237
20
-67.14410940030767
30
0
11
240.57119888193256
21
-67.144109400307599
31
0
0
LWPOLYLINE
5
283
100
AcDbEntity
8
0
100
AcDbPolyline
90
4
70
1
43
0.0
10
229.8446582268673
20
-74.144109400307983
10
243.84465822686707
20
-74.144109400307983
10
243.84465822686707
20
-60.144109400307926
10
229.8446582268673
20
-60.144109400307997
0
LWPOLYLINE
5
284
100
AcDbEntity
8
0
100
AcDbPolyline
90
20
70
1
43
0.0
10
234.36678931013603
20
-50.398192358924945
10
235.89218931013647
20
-50.398192358924803
10
235.89218931013647
20
-55.84819235892482
10
243.4673893101359
20
-55.84819235892482
10
243.46738931013647
20
-41.647492358925007
10
235.89218931013647
20
-41.647492358924865
10
235.89218931013647
20
-45.798292358924897
10
234.36678931013603
20
-45.798292358924897
10
234.36678931013603
20
-41.097892358924781
10
220.36748931013619
20
-41.097892358924781
10
220.36748931013619
20
-45.798292358924755
10
218.84193931013613
20
-45.798292358924755
10
218.84208931013632
20
-41.647492358924865
10
211.26688931013632
20
-41.647492358925007
10
211.26688931013632
20
-55.848192358924749
10
218.84208931013632
20
-55.848192358924962
10
218.84208931013575
20
-50.398192358924803
10
220.36748931013562
20
-50.398192358924803
10
220.36748931013619
20
-55.097192358924758
10
234.36678931013603
20
-55.0971923589249
0
LWPOLYLINE
5
285
100
AcDbEntity
8
0
100
AcDbPolyline
90
4
70
1
43
0.0
10
-37.084356901976321
20
-75.759314527538422
10
-23.240868696896655
20
-77.846857177603752
10
-21.153326046831467
20
-64.003368972524726
10
-34.996814251911132
20
-61.915826322459537
0
LWPOLYLINE
5
286
100
AcDbEntity
8
0
100
AcDbPolyline
90
4
70
1
43
0.0
10
-60.789481542242925
20
-41.178661332614013
10
-61.193624784376084
20
-55.172826839704427
10
-47.199459277285314
20
-55.576970081837445
10
-46.795316035152723
20
-41.58280457474703
0
LWPOLYLINE
5
287
100
AcDbEntity
8
0
100
AcDbPolyline
90
4
70
1
43
0.0
10
148.55788597071239
20
-60.365416799786615
10
145.64712229926386
20
-46.671350389513222
10
131.95305588899032
20
-49.58211406096197
10
134.86381956043886
20
-63.276180471235293
0
LINE
5
288
100
AcDbEntity
8
0
100
AcDbLine
10
117.12150543874998
20
-80.749958005659863
30
0
11
116.55885521900416
21
-78.102896840741423
31
0
0
CIRCLE
5
289
100
AcDbEntity
8
0
100
AcDbCircle
10
98.206468534897908
20
-83.387145133278722
30
0
40
1.5000000000002325
210
0
220
0
230
1
0
LINE
5
290
100
AcDbEntity
8
0
100
AcDbLine
10
227.36713931013583
20
-55.097192358924829
30
0
11
227.36713931013583
21
-48.097192358924801
31
0
0
CIRCLE
5
291
100
AcDbEntity
8
0
100
AcDbCircle
10
236.84465822686775
20
-67.144109400307599
30
0
40
1.4999999999999103
210
0
220
0
230
1
0
LINE
5
292
100
AcDbEntity
8
0
100
AcDbLine
10
-54.03353082649005
20
-49.730350846878295
30
0
11
-53.955409993038188
21
-47.025280567573162
31
0
0
LINE
5
293
100
AcDbEntity
8
0
100
AcDbLine
10
141.57330848572599
20
-93.644827075015513
30
0
11
148.86352208730386
21
-92.095244338024003
31
0
0
CIRCLE
5
294
100
AcDbEntity
8
0
100
AcDbCircle
10
-53.994470409763835
20
-48.377815707225693
30
0
40
1.5000000000002784
210
0
220
0
230
1
0
LINE
5
295
100
AcDbEntity
8
0
100
AcDbLine
10
145.49974039638755
20
-94.193566288979227
30
0
11
144.9370901766423
21
-91.546505124060786
31
0
0
LINE
5
296
100
AcDbEntity
8
0
100
AcDbLine
10
236.84465822686718
20
-68.497208443301432
30
0
11
236.84465822686718
21
-65.791010357314548
31
0
0
CIRCLE
5
297
100
AcDbEntity
8
0
100
AcDbCircle
10
154.12382151768043
20
-71.515586487055458
30
0
40
1.4999999999997953
210
0
220
0
230
1
0
LWPOLYLINE
5
298
100
AcDbEntity
8
0
100
AcDbPolyline
90
4
70
1
43
0.0
10
145.82140647681911
20
-66.123935117643242
10
148.73217014826821
20
-79.818001527916493
10
162.42623655854118
20
-76.907237856467816
10
159.51547288709264
20
-63.213171446194423
0
LINE
5
299
100
AcDbEntity
8
0
100
AcDbLine
10
136.61036412906185
20
-55.748556798869728
30
0
11
143.90057773064029
21
-54.198974061878218
31
0
0
LINE
5
300
100
AcDbEntity
8
0
100
AcDbLine
10
131.82878532206701
20
-76.240501081617751
30
0
11
139.11899892364488
21
-74.69091834462624
31
0
0
CIRCLE
5
301
100
AcDbEntity
8
0
100
AcDbCircle
10
-87.63632696927516
20
-124.29942114844764
30
0
40
1.5000000000001785
210
0
220
0
230
1
0
LINE
5
302
100
AcDbEntity
8
0
100
AcDbLine
10
94.561361734108687
20
-84.161936501774477
30
0
11
101.85157533568713
21
-82.612353764782966
31
0
0
LINE
5
303
100
AcDbEntity
8
0
100
AcDbLine
10
195.05059859618996
20
-48.097892358924597
30
0
11
202.50367990632014
21
-48.097892358924526
31
0
0
LWPOLYLINE
5
304
100
AcDbEntity
8
0
100
AcDbPolyline
90
4
70
1
43
0.0
10
153.62400754000134
20
-59.401504015513709
10
167.43017078931814
20
-57.079897603304772
10
165.1085643771097
20
-43.273734353987763
10
151.30240112779234
20
-45.595340766196699
0
CIRCLE
5
305
100
AcDbEntity
8
0
100
AcDbCircle
10
116.84018032887707
20
-79.426427423200607
30
0
40
1.5000000000001554
210
0
220
0
230
1
0
LINE
5
306
100
AcDbEntity
8
0
100
AcDbLine
10
247.70820833924631
20
-105.22544897147782
30
0
11
255.1612896493765
21
-105.22544897147775
31
0
0
LWPOLYLINE
5
307
100
AcDbEntity
8
0
100
AcDbPolyline
90
4
70
1
43
0.0
10
-42.25970857594632
20
-75.204461549185595
10
-41.352756150757841
20
-61.233869675594548
10
-55.323348024349457
20
-60.326917250406638
10
-56.230300449537367
20
-74.297509123997614
0
LINE
5
308
100
AcDbEntity
8
0
100
AcDbLine
10
-32.803721588985013
20
-69.3256765675563
30
0
11
-25.433961359822206
21
-70.43700693250635
31
0
0
LINE
5
309
100
AcDbEntity
8
0
100
AcDbLine
10
160.71032433460005
20
-89.874432500336283
30
0
11
168.06680234343787
21
-88.678333708052932
31
0
0
LWPOLYLINE
5
310
100
AcDbEntity
8
0
100
AcDbPolyline
90
4
70
1
43
0.0
10
113.31934409501173
20
-53.542831771040227
10
116.23010776646083
20
-67.236898181313549
10
129.9241741767338
20
-64.326134509864872
10
127.01341050528526
20
-50.632068099591478
0
CIRCLE
5
311
100
AcDbEntity
8
0
100
AcDbCircle
10
135.47389212285566
20
-75.465709713122351
30
0
40
1.4999999999999778
210
0
220
0
230
1
0
LWPOLYLINE
5
312
100
AcDbEntity
8
0
100
AcDbPolyline
90
4
70
1
43
0.0
10
-40.439623313894231
20
-42.021852025045803
10
-41.963553648199081
20
-55.938663309825998
10
-28.046742363418957
20
-57.462593644131061
10
-26.522812029114107
20
-43.545782359350795
0
LINE
5
313
100
AcDbEntity
8
0
100
AcDbLine
10
154.40514662755277
20
-72.839117069514714
30
0
11
153.84249640780752
21
-70.192055904596273
31
0
0
LINE
5
314
100
AcDbEntity
8
0
100
AcDbLine
10
159.5906690595956
20
-52.671983919040883
30
0
11
159.14190285751431
21
-50.003254450460659
31
0
0
LINE
5
315
100
AcDbEntity
8
0
100
AcDbLine
10
175.10968557602553
20
-106.80277288261081
30
0
11
182.5139066127241
21
-105.95075653586719
31
0
0
CIRCLE
5
316
100
AcDbEntity
8
0
100
AcDbCircle
10
-24.011629377168902
20
-109.35648766106596
30
0
40
1.4999999999998745
210
0
220
0
230
1
0
LWPOLYLINE
5
317
100
AcDbEntity
8
0
100
AcDbPolyline
90
4
70
1
43
0.0
10
-56.744315207297973
20
-117.29942131760708
10
-70.744315207298314
20
-117.29942131760716
10
-70.744315207298314
20
-131.29942131760708
10
-56.744315207297973
20
-131.29942131760708
0
LWPOLYLINE
5
318
100
AcDbEntity
8
0
100
AcDbPolyline
90
4
70
1
43
0.0
10
-36.995912392773675
20
-95.0011247725201
10
-23.184954723938631
20
-97.294037389619703
10
-20.892042106838744
20
-83.483079720784872
10
-34.702999775673788
20
-81.19016710368534
0
LWPOLYLINE
5
319
100
AcDbEntity
8
0
100
AcDbPolyline
90
4
70
1
43
0.0
10
122.23183169828985
20
-71.124012382339643
10
108.53776528801632
20
-74.034776053788391
10
111.44852895946485
20
-87.728842464061714
10
125.14259536973839
20
-84.818078792612965
0
LINE
5
320
100
AcDbEntity
8
0
100
AcDbLine
10
113.19507352808785
20
-80.201218791696149
30
0
11
120.48528712966629
21
-78.651636054704639
31
0
0
LINE
5
321
100
AcDbEntity
8
0
100
AcDbLine
10
184.18991412225523
20
-88.271964288006899
30
0
11
183.98266619242747
21
-85.57371367396442
31
0
0
LINE
5
322
100
AcDbEntity
8
0
100
AcDbLine
10
237.188225470357
20
-125.62854801447159
30
0
11
237.188225470357
21
-122.92234992848464
31
0
0
LINE
5
323
100
AcDbEntity
8
0
100
AcDbLine
10
-27.659685679503241
20
-108.59570486101511
30
0
11
-20.363573074835131
21
-110.11727046111609
31
0
0
LINE
5
324
100
AcDbEntity
8
0
100
AcDbLine
10
-32.620198338256046
20
-88.631771383357005
30
0
11
-25.267756161356374
21
-89.852433109947398
31
0
0
LINE
5
325
100
AcDbEntity
8
0
100
AcDbLine
10
198.88822547035659
20
-106.57854801447165
30
0
11
198.88822547035659
21
-103.87234992848477
31
0
0
CIRCLE
5
326
100
AcDbEntity
8
0
100
AcDbCircle
10
198.88822547035659
20
-105.22544897147824
30
0
40
1.4999999999999478
210
0
220
0
230
1
0
LINE
5
327
100
AcDbEntity
8
0
100
AcDbLine
10
234.73871245254713
20
-79.175448971478062
30
0
11
234.73871245254713
21
-86.17544897147809
31
0
0
LINE
5
328
100
AcDbEntity
8
0
100
AcDbLine
10
-43.905388270471803
20
-107.62745075360016
30
0
11
-43.626411295611547
21
-104.9356706867863
31
0
0
LINE
5
329
100
AcDbEntity
8
0
100
AcDbLine
10
-29.165587097510866
20
-90.576930361261319
30
0
11
-28.722367402101554
21
-87.907274132043653
31
0
0
CIRCLE
5
330
100
AcDbEntity
8
0
100
AcDbCircle
10
256.23822547035729
20
-124.27544897147826
30
0
40
1.4999999999997726
210
0
220
0
230
1
0
LINE
5
331
100
AcDbEntity
8
0
100
AcDbLine
10
98.487793644770818
20
-84.710675715738262
30
0
11
97.925143425024999
21
-82.063614550819821
31
0
0
LINE
5
332
100
AcDbEntity
8
0
100
AcDbLine
10
-47.472586261543483
20
-105.89739850973615
30
0
11
-40.059213304539298
21
-106.66572293064966
31
0
0
CIRCLE
5
333
100
AcDbEntity
8
0
100
AcDbCircle
10
218.1382254703567
20
-124.27544897147783
30
0
40
1.5000000000001836
210
0
220
0
230
1
0
LINE
5
334
100
AcDbEntity
8
0
100
AcDbLine
10
256.23822547035729
20
-125.62854801447166
30
0
11
256.23822547035729
21
-122.92234992848478
31
0
0
CIRCLE
5
335
100
AcDbEntity
8
0
100
AcDbCircle
10
251.43474899431112
20
-105.22544897147782
30
0
40
1.4999999999999098
210
0
220
0
230
1
0
LWPOLYLINE
5
336
100
AcDbEntity
8
0
100
AcDbPolyline
90
4
70
1
43
0.0
10
191.77713925125488
20
-41.097892358924852
10
191.77713925125488
20
-55.097892358924838
10
205.77713925125522
20
-55.097892358924838
10
205.77713925125522
20
-41.097892358924781
0
LINE
5
337
100
AcDbEntity
8
0
100
AcDbLine
10
218.1382254703567
20
-125.62854801447159
30
0
11
218.1382254703567
21
-122.92234992848464
31
0
0
LINE
5
338
100
AcDbEntity
8
0
100
AcDbLine
10
195.3616848152916
20
-124.27544897147776
30
0
11
202.81476612542178
21
-124.27544897147769
31
0
0
CIRCLE
5
339
100
AcDbEntity
8
0
100
AcDbCircle
10
227.36713931013583
20
-48.097192358924801
30
0
40
1.4999999999997726
210
0
220
0
230
1
0
CIRCLE
5
340
100
AcDbEntity
8
0
100
AcDbCircle
10
199.08822547035641
20
-124.27544897147797
30
0
40
1.5000000000002407
210
0
220
0
230
1
0
LINE
5
341
100
AcDbEntity
8
0
100
AcDbLine
10
103.26937245176623
20
-64.218731432990097
30
0
11
102.70672223202098
21
-61.571670268071657
31
0
0
LWPOLYLINE
5
342
100
AcDbEntity
8
0
100
AcDbPolyline
90
4
70
1
43
0.0
10
106.50888357575866
20
-88.778796502691364
10
103.59811990431069
20
-75.084730092417971
10
89.904053494037157
20
-77.99549376386679
10
92.814817165485692
20
-91.689560174140041
0
CIRCLE
5
343
100
AcDbEntity
8
0
100
AcDbCircle
10
121.62175913587248
20
-58.934483140452585
30
0
40
1.4999999999997464
210
0
220
0
230
1
0
LINE
5
344
100
AcDbEntity
8
0
100
AcDbLine
10
99.342940541104667
20
-63.669992219026383
30
0
11
106.63315414268254
21
-62.120409482034873
31
0
0
LINE
5
345
100
AcDbEntity
8
0
100
AcDbLine
10
251.43474899431112
20
-106.57854801447158
30
0
11
251.43474899431112
21
-103.87234992848462
31
0
0
LINE
5
346
100
AcDbEntity
8
0
100
AcDbLine
10
198.77713925125533
20
-49.450991401918287
30
0
11
198.77713925125533
21
-46.744793315931403
31
0
0
CIRCLE
5
347
100
AcDbEntity
8
0
100
AcDbCircle
10
173.72123294298149
20
-68.353906246379807
30
0
40
1.4999999999998237
210
0
220
0
230
1
0
LINE
5
348
100
AcDbEntity
8
0
100
AcDbLine
10
209.16309988788839
20
-67.149420979308303
30
0
11
216.61618119801858
21
-67.149420979308232
31
0
0
CIRCLE
5
349
100
AcDbEntity
8
0
100
AcDbCircle
10
-43.765899783041959
20
-106.28156072019323
30
0
40
1.5000000000001059
210
0
220
0
230
1
0
LWPOLYLINE
5
350
100
AcDbEntity
8
0
100
AcDbPolyline
90
4
70
1
43
0.0
10
-56.204274097541997
20
-93.386109320850679
10
-42.239634612128611
20
-94.380515697754461
10
-41.245228235224545
20
-80.415876212340791
10
-55.209867720638499
20
-79.42146983543708
0
LINE
5
351
100
AcDbEntity
8
0
100
AcDbLine
10
150.4787147168912
20
-72.290377855550929
30
0
11
157.76892831846908
21
-70.740795118559419
31
0
0
LINE
5
352
100
AcDbEntity
8
0
100
AcDbLine
10
-48.820860474735923
20
-88.25067421827157
30
0
11
-48.628641858031187
21
-85.5513113149199
31
0
0
LINE
5
353
100
AcDbEntity
8
0
100
AcDbLine
10
135.75521723272857
20
-76.789240295581536
30
0
11
135.19256701298332
21
-74.142179130663095
31
0
0
LINE
5
354
100
AcDbEntity
8
0
100
AcDbLine
10
214.41168481529189
20
-124.2754489714779
30
0
11
221.86476612542208
21
-124.27544897147776
31
0
0
CIRCLE
5
355
100
AcDbEntity
8
0
100
AcDbCircle
10
234.73871245254713
20
-86.17544897147809
30
0
40
1.4999999999997726
210
0
220
0
230
1
0
LINE
5
356
100
AcDbEntity
8
0
100
AcDbLine
10
199.08822547035641
20
-125.62854801447145
30
0
11
199.08822547035641
21
-122.92234992848456
31
0
0
LINE
5
357
100
AcDbEntity
8
0
100
AcDbLine
10
190.1130998878881
20
-67.125448971477937
30
0
11
197.56618119801828
21
-67.125448971477866
31
0
0
LINE
5
358
100
AcDbEntity
8
0
100
AcDbLine
10
175.26739283675113
20
-49.21124433639875
30
0
11
182.69560791779838
21
-48.602933786499634
31
0
0
LINE
5
359
100
AcDbEntity
8
0
100
AcDbLine
10
179.09193851536315
20
-50.255673666806331
30
0
11
178.87106223918636
21
-47.558504456092692
31
0
0
CIRCLE
5
360
100
AcDbEntity
8
0
100
AcDbCircle
10
140.25547092985107
20
-54.973765430373973
30
0
40
1.4999999999997726
210
0
220
0
230
1
0
LINE
5
361
100
AcDbEntity
8
0
100
AcDbLine
10
140.53679603972398
20
-56.297296012833513
30
0
11
139.97414581997816
21
-53.650234847915073
31
0
0
LINE
5
362
100
AcDbEntity
8
0
100
AcDbLine
10
212.8896405429532
20
-68.502520022301994
30
0
11
212.8896405429532
21
-65.79632193631511
31
0
0
CIRCLE
5
363
100
AcDbEntity
8
0
100
AcDbCircle
10
198.77713925125477
20
-48.097892358924526
30
0
40
1.4999999999997726
210
0
220
0
230
1
0
LINE
5
364
100
AcDbEntity
8
0
100
AcDbLine
10
193.83964054295291
20
-68.478548014471627
30
0
11
193.83964054295291
21
-65.772349928484743
31
0
0
CIRCLE
5
365
100
AcDbEntity
8
0
100
AcDbCircle
10
212.8896405429532
20
-67.149420979308303
30
0
40
1.5000000000000038
210
0
220
0
230
1
0
CIRCLE
5
366
100
AcDbEntity
8
0
100
AcDbCircle
10
145.21841528651521
20
-92.870035706520042
30
0
40
1.49999999999977
210
0
220
0
230
1
0
CIRCLE
5
367
100
AcDbEntity
8
0
100
AcDbCircle
10
193.83964054295348
20
-67.125448971477937
30
0
40
1.5000000000000016
210
0
220
0
230
1
0
CIRCLE
5
368
100
AcDbEntity
8
0
100
AcDbCircle
10
178.98150037727476
20
-48.907089061449511
30
0
40
1.5000000000001927
210
0
220
0
230
1
0
LINE
5
369
100
AcDbEntity
8
0
100
AcDbLine
10
173.88267384393828
20
-69.697339853093609
30
0
11
173.55979204202526
21
-67.010472639666006
31
0
0
LINE
5
370
100
AcDbEntity
8
0
100
AcDbLine
10
117.97665233508383
20
-59.709274508947985
30
0
11
125.2668659366617
21
-58.159691771956474
31
0
0
LINE
5
371
100
AcDbEntity
8
0
100
AcDbLine
10
121.90308424574539
20
-60.25801372291177
30
0
11
121.34043402600014
21
-57.610952557993329
31
0
0
CIRCLE
5
372
100
AcDbEntity
8
0
100
AcDbCircle
10
102.98804734189389
20
-62.895200850530628
30
0
40
1.4999999999997726
210
0
220
0
230
1
0
LINE
5
373
100
AcDbEntity
8
0
100
AcDbLine
10
225.16148723233414
20
-106.57854784531246
30
0
11
225.16148723233357
21
-103.87234975932557
31
0
0
CIRCLE
5
374
100
AcDbEntity
8
0
100
AcDbCircle
10
225.16148723233414
20
-105.22544880231905
30
0
40
1.5000000000001945
210
0
220
0
230
1
0
LINE
5
375
100
AcDbEntity
8
0
100
AcDbLine
10
-77.009309488964277
20
-67.149420640990414
30
0
11
-69.55622817883409
21
-67.149420640990343
31
0
0
CIRCLE
5
376
100
AcDbEntity
8
0
100
AcDbCircle
10
-29.118841474403325
20
-69.881341750031325
30
0
40
1.4999999999997726
210
0
220
0
230
1
0
LWPOLYLINE
5
377
100
AcDbEntity
8
0
100
AcDbPolyline
90
4
70
1
43
0.0
10
-68.664018833899263
20
-79.199421148468687
10
-82.664018833899604
20
-79.199421148468758
10
-82.664018833899604
20
-93.199421148468744
10
-68.664018833899263
20
-93.199421148468744
0
LINE
5
378
100
AcDbEntity
8
0
100
AcDbLine
10
155.69134105576609
20
-51.95558780476162
30
0
11
163.04123086134439
21
-50.719650564739283
31
0
0
LWPOLYLINE
5
379
100
AcDbEntity
8
0
100
AcDbPolyline
90
4
70
1
43
0.0
10
-80.296895258833274
20
-55.099420640990715
10
-66.296895258833501
20
-55.099420640990715
10
-66.296895258833501
20
-41.099420640990658
10
-80.296895258833274
20
-41.099420640990729
0
LINE
5
380
100
AcDbEntity
8
0
100
AcDbLine
10
-57.719458030898636
20
-48.27024026277698
30
0
11
-50.269482788629603
21
-48.485391151673838
31
0
0
LINE
5
381
100
AcDbEntity
8
0
100
AcDbLine
10
-77.023435913898197
20
-48.099420640990473
30
0
11
-69.570354603768578
21
-48.099420640990402
31
0
0
LINE
5
382
100
AcDbEntity
8
0
100
AcDbLine
10
-29.320602328833161
20
-71.219313938744762
30
0
11
-28.917080619974627
21
-68.543369561318528
31
0
0
LINE
5
383
100
AcDbEntity
8
0
100
AcDbLine
10
-79.390559488964527
20
-86.199421148468431
30
0
11
-71.93747817883434
21
-86.19942114846836
31
0
0
LINE
5
384
100
AcDbEntity
8
0
100
AcDbLine
10
-52.510241056737641
20
-67.524275465176373
30
0
11
-45.072815543558136
21
-68.007103334415291
31
0
0
LINE
5
385
100
AcDbEntity
8
0
100
AcDbLine
10
-34.390470601294965
20
-51.087281693942472
30
0
11
-34.095895076018792
21
-48.397163975234392
31
0
0
CIRCLE
5
386
100
AcDbEntity
8
0
100
AcDbCircle
10
-73.296895258833388
20
-48.099420640990758
30
0
40
1.4999999999997726
210
0
220
0
230
1
0
LINE
5
387
100
AcDbEntity
8
0
100
AcDbLine
10
221.43494657726876
20
-105.22544880231877
30
0
11
228.88802788739895
21
-105.2254488023187
31
0
0
LINE
5
388
100
AcDbEntity
8
0
100
AcDbLine
10
-63.744315207298428
20
-125.65252036060052
30
0
11
-63.744315207298428
21
-122.94632227461364
31
0
0
CIRCLE
5
389
100
AcDbEntity
8
0
100
AcDbCircle
10
159.36628595855495
20
-51.337619184750451
30
0
40
1.4999999999997726
210
0
220
0
230
1
0
CIRCLE
5
390
100
AcDbEntity
8
0
100
AcDbCircle
10
-73.282768833899468
20
-67.149420640990627
30
0
40
1.5000000000000946
210
0
220
0
230
1
0
LWPOLYLINE
5
391
100
AcDbEntity
8
0
100
AcDbPolyline
90
4
70
1
43
0.0
10
-108.93728059587659
20
-79.200949938012073
10
-108.93728059587659
20
-93.200949938012059
10
-94.937280595876246
20
-93.200949938012059
10
-94.937280595876246
20
-79.200949938012002
0
LINE
5
392
100
AcDbEntity
8
0
100
AcDbLine
10
-105.66382125094151
20
-86.200949938011746
30
0
11
-98.210739940811322
21
-86.200949938011746
31
0
0
LINE
5
393
100
AcDbEntity
8
0
100
AcDbLine
10
-100.90132125094158
20
-67.149420640990414
30
0
11
-93.448239940811391
21
-67.149420640990343
31
0
0
LINE
5
394
100
AcDbEntity
8
0
100
AcDbLine
10
-75.664018833899149
20
-87.552520191462193
30
0
11
-75.664018833899718
21
-84.846322105475309
31
0
0
LINE
5
395
100
AcDbEntity
8
0
100
AcDbLine
10
-110.49008962473465
20
-105.22544897147469
30
0
11
-103.03700831460446
21
-105.22544897147462
31
0
0
LINE
5
396
100
AcDbEntity
8
0
100
AcDbLine
10
-97.174780595876769
20
-68.502519683984104
30
0
11
-97.174780595876769
21
-65.79632159799722
31
0
0
LWPOLYLINE
5
397
100
AcDbEntity
8
0
100
AcDbPolyline
90
4
70
1
43
0.0
10
-85.346895258833229
20
-55.099420640990715
10
-85.346895258833229
20
-41.099420640990658
10
-99.34689525883357
20
-41.099420640990729
10
-99.34689525883357
20
-55.099420640990715
0
LINE
5
398
100
AcDbEntity
8
0
100
AcDbLine
10
-91.362867624340538
20
-124.29942114844764
30
0
11
-83.909786314210351
21
-124.29942114844756
31
0
0
LINE
5
399
100
AcDbEntity
8
0
100
AcDbLine
10
-101.93728059587613
20
-87.554048981005508
30
0
11
-101.93728059587613
21
-84.847850895018624
31
0
0
LINE
5
400
100
AcDbEntity
8
0
100
AcDbLine
10
-75.727787207692359
20
-98.249421317627679
30
0
11
-75.727787207692359
21
-105.24942131762771
31
0
0
LWPOLYLINE
5
401
100
AcDbEntity
8
0
100
AcDbPolyline
90
4
70
1
43
0.0
10
-99.763548969669387
20
-98.225448971474947
10
-113.76354896966916
20
-98.225448971474947
10
-113.76354896966916
20
-112.225448971475
10
-99.763548969669387
20
-112.225448971475
0
CIRCLE
5
402
100
AcDbEntity
8
0
100
AcDbCircle
10
-75.727787207692359
20
-105.24942131762771
30
0
40
1.5000000000001987
210
0
220
0
230
1
0
LINE
5
403
100
AcDbEntity
8
0
100
AcDbLine
10
-37.947580198770652
20
-49.33658080985424
30
0
11
-30.538785478541968
21
-50.147864859321984
31
0
0
LWPOLYLINE
5
404
100
AcDbEntity
8
0
100
AcDbPolyline
90
4
70
1
43
0.0
10
-104.17478059587665
20
-74.149420640990655
10
-90.174780595876314
20
-74.149420640990655
10
-90.174780595876314
20
-60.149420640990598
10
-104.17478059587665
20
-60.14942064099067
0
CIRCLE
5
405
100
AcDbEntity
8
0
100
AcDbCircle
10
-48.791528300147888
20
-67.765689399796116
30
0
40
1.5000000000002687
210
0
220
0
230
1
0
LINE
5
406
100
AcDbEntity
8
0
100
AcDbLine
10
-48.879185190044723
20
-69.115946149382381
30
0
11
-48.703871410251054
21
-66.415432650209851
31
0
0
CIRCLE
5
407
100
AcDbEntity
8
0
100
AcDbCircle
10
-106.76354896966927
20
-105.22544897147469
30
0
40
1.4999999999998801
210
0
220
0
230
1
0
CIRCLE
5
408
100
AcDbEntity
8
0
100
AcDbCircle
10
-92.346895258833683
20
-48.099420640990758
30
0
40
1.4999999999997951
210
0
220
0
230
1
0
LINE
5
409
100
AcDbEntity
8
0
100
AcDbLine
10
-115.25487938631784
20
-124.29942097928823
30
0
11
-107.80179807618765
21
-124.29942097928816
31
0
0
CIRCLE
5
410
100
AcDbEntity
8
0
100
AcDbCircle
10
-75.664018833899718
20
-86.199421148468787
30
0
40
1.4999999999997726
210
0
220
0
230
1
0
CIRCLE
5
411
100
AcDbEntity
8
0
100
AcDbCircle
10
-101.9372805958767
20
-86.200949938011746
30
0
40
1.4999999999998004
210
0
220
0
230
1
0
CIRCLE
5
412
100
AcDbEntity
8
0
100
AcDbCircle
10
-97.1747805958762
20
-67.149420640990343
30
0
40
1.5000000000001981
210
0
220
0
230
1
0
LINE
5
413
100
AcDbEntity
8
0
100
AcDbLine
10
-73.282768833899468
20
-68.502519683984104
30
0
11
-73.282768833899468
21
-65.79632159799722
31
0
0
LINE
5
414
100
AcDbEntity
8
0
100
AcDbLine
10
-73.296895258833388
20
-49.452519683984164
30
0
11
-73.296895258833388
21
-46.74632159799728
31
0
0
LINE
5
415
100
AcDbEntity
8
0
100
AcDbLine
10
-106.76354896966927
20
-106.57854801446845
30
0
11
-106.76354896966927
21
-103.8723499284815
31
0
0
LINE
5
416
100
AcDbEntity
8
0
100
AcDbLine
10
3.2866684924931633
20
-134.59702827466492
30
0
11
10.57688209407047
21
-136.14661101165632
31
0
0
CIRCLE
5
417
100
AcDbEntity
8
0
100
AcDbCircle
10
9.1326073949335296
20
-135.83962094750106
30
0
40
1.4999999999998879
210
0
220
0
230
1
0
LINE
5
418
100
AcDbEntity
8
0
100
AcDbLine
10
8.8512822850606199
20
-137.16315152996037
30
0
11
9.4139325048058708
21
-134.5160903650418
31
0
0
CIRCLE
5
419
100
AcDbEntity
8
0
100
AcDbCircle
10
6.9317752932818166
20
-135.3718196431609
30
0
40
1.500000000000151
210
0
220
0
230
1
0
LINE
5
420
100
AcDbEntity
8
0
100
AcDbLine
10
-27.071229763591873
20
-128.14425780182353
30
0
11
-19.781016162013429
21
-129.69384053881492
31
0
0
CIRCLE
5
421
100
AcDbEntity
8
0
100
AcDbCircle
10
-21.225290861151507
20
-129.38685047465952
30
0
40
1.4999999999997773
210
0
220
0
230
1
0
LINE
5
422
100
AcDbEntity
8
0
100
AcDbLine
10
-21.506615971023848
20
-130.71038105711878
30
0
11
-20.943965751278597
21
-128.06331989220018
31
0
0
CIRCLE
5
423
100
AcDbEntity
8
0
100
AcDbCircle
10
-23.42612296280322
20
-128.91904917031951
30
0
40
1.4999999999997726
210
0
220
0
230
1
0
LINE
5
424
100
AcDbEntity
8
0
100
AcDbLine
10
-27.071229763591873
20
-128.14425780182353
30
0
11
-19.781016162013429
21
-129.69384053881492
31
0
0
LINE
5
425
100
AcDbEntity
8
0
100
AcDbLine
10
-23.707448072675561
20
-130.24257975277877
30
0
11
-23.14479785293031
21
-127.59551858786018
31
0
0
CIRCLE
5
426
100
AcDbEntity
8
0
100
AcDbCircle
10
37.288988846040638
20
-141.8244445778393
30
0
40
1.4999999999999871
210
0
220
0
230
1
0
LINE
5
427
100
AcDbEntity
8
0
100
AcDbLine
10
68.315801315939098
20
-134.38090659814904
30
0
11
67.133508966602449
21
-133.19861424881219
31
0
0
CIRCLE
5
428
100
AcDbEntity
8
0
100
AcDbCircle
10
37.288988846040638
20
-141.8244445778393
30
0
40
1.4999999999998366
210
0
220
0
230
1
0
LINE
5
429
100
AcDbEntity
8
0
100
AcDbLine
10
33.643882045251985
20
-141.0496532093434
30
0
11
40.93409564682986
21
-142.59923594633483
31
0
0
LINE
5
430
100
AcDbEntity
8
0
100
AcDbLine
10
67.133500515735136
20
-150.37871397798108
30
0
11
68.315792865071785
21
-149.1964216286442
31
0
0
LINE
5
431
100
AcDbEntity
8
0
100
AcDbLine
10
68.315799203221559
20
-142.38035844310616
30
0
11
67.13350685388491
21
-141.19806609376937
31
0
0
LINE
5
432
100
AcDbEntity
8
0
100
AcDbLine
10
67.13350685388491
20
-142.3803584431065
30
0
11
68.315799203221559
21
-141.19806609376965
31
0
0
LINE
5
433
100
AcDbEntity
8
0
100
AcDbLine
10
68.315792865071785
20
-150.37871397798099
30
0
11
67.133500515735136
21
-149.1964216286442
31
0
0
ENDSEC
0
SECTION
2
OBJECTS
0
DICTIONARY
5
C
100
AcDbDictionary
3
ACAD_GROUP
350
D
3
ACAD_MLINESTYLE
350
17
0
DICTIONARY
5
D
100
AcDbDictionary
0
DICTIONARY
5
1A
330
C
100
AcDbDictionary
0
DICTIONARY
5
17
100
AcDbDictionary
0
ENDSEC
0
EOF
