0
SECTION
2
HEADER
9
$INSUNITS
70
4
9
$ACADVER
1
AC1014
9
$HANDSEED
5
FFFF
0
ENDSEC
0
SECTION
2
TABLES
0
TABLE
2
VPORT
5
8
100
AcDbSymbolTable
0
ENDTAB
0
TABLE
2
LTYPE
5
5
100
AcDbSymbolTable
0
LTYPE
5
14
100
AcDbSymbolTableRecord
100
AcDbLinetypeTableRecord
2
BYBLOCK
70
0
0
LTYPE
5
15
100
AcDbSymbolTableRecord
100
AcDbLinetypeTableRecord
2
BYLAYER
70
0
0
ENDTAB
0
TABLE
2
LAYER
5
2
100
AcDbSymbolTable
70
2
0
LAYER
5
50
100
AcDbSymbolTableRecord
100
AcDbLayerTableRecord
2
0
70
0
6
CONTINUOUS
0
ENDTAB
0
TABLE
2
STYLE
5
3
100
AcDbSymbolTable
70
1
0
STYLE
5
11
100
AcDbSymbolTableRecord
100
AcDbTextStyleTableRecord
2
STANDARD
70
0
0
ENDTAB
0
TABLE
2
VIEW
5
6
100
AcDbSymbolTable
70
0
0
ENDTAB
0
TABLE
2
UCS
5
7
100
AcDbSymbolTable
70
0
0
ENDTAB
0
TABLE
2
APPID
5
9
100
AcDbSymbolTable
70
2
0
APPID
5
12
100
AcDbSymbolTableRecord
100
AcDbRegAppTableRecord
2
ACAD
70
0
0
ENDTAB
0
TABLE
2
DIMSTYLE
5
A
100
AcDbSymbolTable
70
1
0
ENDTAB
0
TABLE
2
BLOCK_RECORD
5
1
100
AcDbSymbolTable
70
1
0
BLOCK_RECORD
5
1F
100
AcDbSymbolTableRecord
100
AcDbBlockTableRecord
2
*MODEL_SPACE
0
BLOCK_RECORD
5
1B
100
AcDbSymbolTableRecord
100
AcDbBlockTableRecord
2
*PAPER_SPACE
0
ENDTAB
0
ENDSEC
0
SECTION
2
BLOCKS
0
BLOCK
5
20
100
AcDbEntity
100
AcDbBlockBegin
2
*MODEL_SPACE
0
ENDBLK
5
21
100
AcDbEntity
100
AcDbBlockEnd
0
BLOCK
5
1C
100
AcDbEntity
100
AcDbBlockBegin
2
*PAPER_SPACE
0
ENDBLK
5
1D
100
AcDbEntity
100
AcDbBlockEnd
0
ENDSEC
0
SECTION
2
ENTITIES
0
CIRCLE
5
100
100
AcDbEntity
8
0
100
AcDbCircle
10
-723.67683664395349
20
-39.041564908948267
30
0
40
1.5000000000000304
210
0
220
0
230
1
0
LWPOLYLINE
5
101
100
AcDbEntity
8
0
100
AcDbPolyline
90
4
70
1
43
0.0
10
-439.24171591476363
20
-103.167593239436
10
-425.2417159147634
20
-103.167593239436
10
-425.2417159147634
20
-89.167593239435973
10
-439.24171591476363
20
-89.16759323943603
0
LWPOLYLINE
5
102
100
AcDbEntity
8
0
100
AcDbPolyline
90
4
70
1
43
0.0
10
-420.19171591476368
20
-108.21759323943601
10
-420.19171591476368
20
-122.21759323943601
10
-406.19171591476339
20
-122.21759323943601
10
-406.19171591476339
20
-108.2175932394359
0
LWPOLYLINE
5
103
100
AcDbEntity
8
0
100
AcDbPolyline
90
4
70
1
43
0.0
10
-439.24171591476363
20
-122.2175932394359
10
-425.2417159147634
20
-122.2175932394359
10
-425.2417159147634
20
-108.21759323943581
10
-439.24171591476363
20
-108.2175932394359
0
LINE
5
104
100
AcDbEntity
8
0
100
AcDbLine
10
-432.24171591476335
20
-97.520692282429437
30
0
11
-432.24171591476374
21
-94.81449419644251
31
0
0
LWPOLYLINE
5
105
100
AcDbEntity
8
0
100
AcDbPolyline
90
4
70
1
43
0.0
10
-368.09171591476309
20
-122.21759323943601
10
-368.09171591476309
20
-108.2175932394359
10
-382.0917159147632
20
-108.21759323943601
10
-382.0917159147632
20
-122.21759323943601
0
LINE
5
106
100
AcDbEntity
8
0
100
AcDbLine
10
-413.19171591476334
20
-97.520692113270243
30
0
11
-413.19171591476379
21
-94.814494027283303
31
0
0
LINE
5
107
100
AcDbEntity
8
0
100
AcDbLine
10
-394.14171591476327
20
-116.57069228242941
30
0
11
-394.14171591476355
21
-113.86449419644251
31
0
0
LWPOLYLINE
5
108
100
AcDbEntity
8
0
100
AcDbPolyline
90
4
70
1
43
0.0
10
-393.91845415278647
20
-103.16759323943592
10
-379.91845415278613
20
-103.16759323943592
10
-379.91845415278613
20
-89.16759323943586
10
-393.91845415278647
20
-89.167593239435931
0
LWPOLYLINE
5
109
100
AcDbEntity
8
0
100
AcDbPolyline
90
4
70
1
43
0.0
10
-401.14171591476349
20
-108.21759323943601
10
-401.14171591476349
20
-122.21759323943601
10
-387.14171591476321
20
-122.21759323943601
10
-387.14171591476321
20
-108.2175932394359
0
LINE
5
110
100
AcDbEntity
8
0
100
AcDbLine
10
-397.86825656982842
20
-115.21759323943571
30
0
11
-390.41517525969823
21
-115.21759323943562
31
0
0
CIRCLE
5
111
100
AcDbEntity
8
0
100
AcDbCircle
10
-413.19171591476356
20
-115.21759323943596
30
0
40
1.5000000000000178
210
0
220
0
230
1
0
LINE
5
112
100
AcDbEntity
8
0
100
AcDbLine
10
-386.91845415278613
20
-97.520692282429309
30
0
11
-386.91845415278647
21
-94.814494196442411
31
0
0
CIRCLE
5
113
100
AcDbEntity
8
0
100
AcDbCircle
10
-375.0917159147632
20
-115.21759323943567
30
0
40
1.4999999999999822
210
0
220
0
230
1
0
LINE
5
114
100
AcDbEntity
8
0
100
AcDbLine
10
-413.19171591476334
20
-116.57069228242941
30
0
11
-413.19171591476379
21
-113.86449419644251
31
0
0
LINE
5
115
100
AcDbEntity
8
0
100
AcDbLine
10
-375.09171591476303
20
-116.57069228242941
30
0
11
-375.09171591476331
21
-113.86449419644251
31
0
0
CIRCLE
5
116
100
AcDbEntity
8
0
100
AcDbCircle
10
-413.19171591476356
20
-96.16759307027678
30
0
40
1.4999999999999858
210
0
220
0
230
1
0
LINE
5
117
100
AcDbEntity
8
0
100
AcDbLine
10
-378.81825656982818
20
-115.21759323943571
30
0
11
-371.36517525969805
21
-115.21759323943562
31
0
0
LINE
5
118
100
AcDbEntity
8
0
100
AcDbLine
10
-390.64499480785145
20
-96.167593239435632
30
0
11
-383.1919134977212
21
-96.167593239435533
31
0
0
LWPOLYLINE
5
119
100
AcDbEntity
8
0
100
AcDbPolyline
90
4
70
1
43
0.0
10
-406.19171591476339
20
-103.16759307027681
10
-406.19171591476339
20
-89.16759307027678
10
-420.19171591476368
20
-89.167593070276865
10
-420.19171591476368
20
-103.16759307027681
0
CIRCLE
5
120
100
AcDbEntity
8
0
100
AcDbCircle
10
-394.14171591476338
20
-115.21759323943596
30
0
40
1.500000000000018
210
0
220
0
230
1
0
CIRCLE
5
121
100
AcDbEntity
8
0
100
AcDbCircle
10
-386.91845415278635
20
-96.16759323943586
30
0
40
1.4999999999999858
210
0
220
0
230
1
0
LINE
5
122
100
AcDbEntity
8
0
100
AcDbLine
10
-416.91825656982871
20
-115.21759323943571
30
0
11
-409.46517525969847
21
-115.21759323943562
31
0
0
CIRCLE
5
123
100
AcDbEntity
8
0
100
AcDbCircle
10
-432.24171591476357
20
-115.21759323943586
30
0
40
1.4999999999999993
210
0
220
0
230
1
0
CIRCLE
5
124
100
AcDbEntity
8
0
100
AcDbCircle
10
-432.24171591476363
20
-96.167593239435703
30
0
40
1.4999999999999858
210
0
220
0
230
1
0
LINE
5
125
100
AcDbEntity
8
0
100
AcDbLine
10
-435.96825656982872
20
-96.167593239435774
30
0
11
-428.51517525969848
21
-96.167593239435632
31
0
0
LINE
5
126
100
AcDbEntity
8
0
100
AcDbLine
10
-432.24171591476335
20
-116.57069228242931
30
0
11
-432.24171591476374
21
-113.86449419644242
31
0
0
LINE
5
127
100
AcDbEntity
8
0
100
AcDbLine
10
-416.91825656982871
20
-96.167593070276567
30
0
11
-409.46517525969847
21
-96.167593070276439
31
0
0
LINE
5
128
100
AcDbEntity
8
0
100
AcDbLine
10
-435.96825656982872
20
-115.21759323943562
30
0
11
-428.51517525969848
21
-115.2175932394355
31
0
0
ENDSEC
0
SECTION
2
OBJECTS
0
DICTIONARY
5
C
100
AcDbDictionary
3
ACAD_GROUP
350
D
3
ACAD_MLINESTYLE
350
17
0
DICTIONARY
5
D
100
AcDbDictionary
0
DICTIONARY
5
1A
330
C
100
AcDbDictionary
0
DICTIONARY
5
17
100
AcDbDictionary
0
ENDSEC
0
EOF
