M48
; DRILL file {KiCad (5.1.10)-1} date 02/10/22 22:03:01
; FORMAT={-:-/ absolute / metric / decimal}
; #@! TF.CreationDate,2022-02-10T22:03:01+07:00
; #@! TF.GenerationSoftware,Kicad,Pcbnew,(5.1.10)-1
; #@! TF.FileFunction,Plated,1,2,PTH
FMAT,2
METRIC
T1C0.200
T2C0.400
T3C0.600
T4C1.000
T5C1.040
T6C1.470
T7C2.200
%
G90
G05
T1
X74.805Y-70.233
X74.805Y-71.408
X74.805Y-72.583
X74.805Y-73.758
X74.805Y-74.933
X75.98Y-70.233
X75.98Y-71.408
X75.98Y-72.583
X75.98Y-73.758
X75.98Y-74.933
X77.155Y-70.233
X77.155Y-71.408
X77.155Y-72.583
X77.155Y-73.758
X77.155Y-74.933
X78.33Y-70.233
X78.33Y-71.408
X78.33Y-72.583
X78.33Y-73.758
X78.33Y-74.933
X79.505Y-70.233
X79.505Y-71.408
X79.505Y-72.583
X79.505Y-73.758
X79.505Y-74.933
T2
X51.669Y-80.244
X52.701Y-46.008
X52.784Y-46.847
X53.199Y-117.872
X53.578Y-98.822
X54.722Y-45.832
X56.578Y-61.468
X56.965Y-65.815
X57.55Y-66.368
X57.963Y-43.62
X58.877Y-64.567
X59.301Y-61.087
X60.198Y-41.385
X60.259Y-68.028
X60.77Y-66.368
X60.787Y-67.475
X60.802Y-68.58
X61.314Y-65.815
X61.336Y-66.92
X62.484Y-43.586
X62.738Y-47.244
X63.069Y-36.653
X63.844Y-39.587
X63.867Y-40.6
X64.643Y-37.846
X67.788Y-38.13
X67.945Y-39.37
X68.986Y-43.028
X68.986Y-47.244
X69.088Y-41.554
X69.519Y-38.939
X69.817Y-70.019
X69.836Y-69.22
X69.85Y-68.453
X69.864Y-67.686
X69.891Y-66.924
X70.485Y-64.567
X71.374Y-72.009
X72.26Y-62.563
X72.453Y-76.772
X74.959Y-80.645
X75.184Y-49.733
X76.469Y-59.65
X77.155Y-52.959
X81.337Y-84.747
X81.877Y-84.194
X82.061Y-77.978
X84.237Y-97.037
X84.443Y-69.798
X86.117Y-78.7
X86.321Y-86.039
X88.138Y-40.386
X97.492Y-59.436
X135.382Y-103.251
X138.938Y-103.251
X142.281Y-98.822
X145.326Y-100.677
X173.99Y-103.124
X176.911Y-103.124
X211.836Y-103.124
X215.011Y-103.124
X249.936Y-103.124
X252.984Y-103.124
X288.163Y-103.124
X290.957Y-103.124
X313.497Y-60.203
X319.359Y-60.203
X320.04Y-47.752
X329.194Y-40.41
X329.389Y-75.131
X330.926Y-50.383
X332.803Y-50.355
X335.788Y-50.355
X335.788Y-101.346
X335.986Y-100.62
X336.193Y-99.897
T3
X70.617Y-57.15
X71.117Y-55.65
X71.117Y-58.65
X71.367Y-112.54
X71.367Y-116.04
X72.617Y-55.15
X72.617Y-59.15
X72.617Y-112.54
X72.617Y-116.04
X73.867Y-112.54
X73.867Y-116.04
X74.117Y-55.65
X74.117Y-58.65
X74.617Y-57.15
X174.957Y-74.45
X174.957Y-77.95
X176.207Y-74.45
X176.207Y-77.95
X177.457Y-74.45
X177.457Y-77.95
X234.347Y-112.55
X234.347Y-116.05
X235.597Y-112.55
X235.597Y-116.05
X236.847Y-112.55
X236.847Y-116.05
X306.817Y-55.4
X306.817Y-58.9
X308.067Y-55.4
X308.067Y-58.9
X309.317Y-55.4
X309.317Y-58.9
X313.087Y-112.55
X313.087Y-116.05
X314.337Y-112.55
X314.337Y-116.05
X315.587Y-112.55
X315.587Y-116.05
T4
X50.8Y-58.42
X50.8Y-60.96
X50.8Y-63.5
X50.8Y-66.04
X50.8Y-68.58
X50.8Y-71.12
T5
X58.261Y-81.28
X60.801Y-81.28
X63.024Y-81.28
X65.564Y-81.28
T6
X53.34Y-35.56
X55.721Y-73.66
X55.721Y-92.71
X55.721Y-111.76
X58.102Y-54.61
X58.103Y-111.761
X59.69Y-33.02
X60.484Y-73.66
X62.071Y-71.12
X62.071Y-90.17
X62.071Y-109.22
X64.453Y-52.07
X64.453Y-109.221
X65.246Y-92.71
X66.834Y-71.12
X71.596Y-90.17
X72.39Y-35.56
X77.153Y-92.71
X77.153Y-111.761
X78.74Y-33.02
X79.534Y-111.76
X81.915Y-54.61
X83.502Y-90.17
X83.503Y-109.221
X85.884Y-109.22
X86.677Y-73.66
X86.678Y-111.761
X88.265Y-52.07
X91.44Y-35.56
X93.027Y-71.12
X93.028Y-109.221
X96.203Y-92.71
X97.79Y-33.02
X98.584Y-111.761
X100.965Y-54.61
X102.552Y-90.17
X103.346Y-111.76
X104.934Y-109.221
X105.727Y-73.66
X107.315Y-52.07
X109.696Y-109.22
X110.49Y-35.56
X112.078Y-71.12
X115.252Y-92.71
X116.84Y-33.02
X120.015Y-54.61
X121.602Y-90.17
X124.777Y-73.66
X126.365Y-52.07
X129.54Y-35.56
X131.127Y-71.12
X134.302Y-92.71
X135.89Y-33.02
X139.065Y-54.61
X140.653Y-90.17
X143.827Y-73.66
X145.415Y-52.07
X148.59Y-35.56
X150.177Y-71.12
X153.352Y-92.71
X154.94Y-33.02
X158.115Y-54.61
X159.702Y-90.17
X162.877Y-73.66
X164.465Y-52.07
X167.64Y-35.56
X167.641Y-111.761
X169.227Y-71.12
X172.403Y-92.71
X173.99Y-33.02
X173.991Y-109.221
X174.784Y-111.76
X177.165Y-54.61
X177.166Y-111.761
X178.752Y-90.17
X181.134Y-109.22
X181.927Y-73.66
X183.515Y-52.07
X183.516Y-109.221
X186.69Y-35.56
X188.278Y-71.12
X191.452Y-92.71
X193.04Y-33.02
X196.215Y-54.61
X197.802Y-90.17
X200.977Y-73.66
X202.565Y-52.07
X205.74Y-35.56
X207.327Y-71.12
X210.502Y-92.71
X212.09Y-33.02
X215.265Y-54.61
X216.852Y-90.17
X220.028Y-73.66
X221.615Y-52.07
X224.79Y-35.56
X226.377Y-71.12
X229.552Y-92.71
X231.14Y-33.02
X234.315Y-54.61
X235.903Y-90.17
X239.077Y-73.66
X240.665Y-52.07
X243.84Y-35.56
X243.841Y-111.761
X245.427Y-71.12
X248.602Y-92.71
X248.604Y-111.761
X250.19Y-33.02
X250.191Y-109.221
X253.365Y-54.61
X254.952Y-90.17
X254.954Y-109.221
X255.747Y-111.761
X258.127Y-73.66
X259.715Y-52.07
X262.097Y-109.221
X262.89Y-35.56
X262.891Y-111.761
X264.477Y-71.12
X267.652Y-92.71
X269.24Y-33.02
X269.241Y-109.221
X272.415Y-54.61
X274.002Y-90.17
X277.178Y-73.66
X277.179Y-111.761
X278.765Y-52.07
X279.56Y-111.761
X281.94Y-35.56
X281.941Y-111.761
X283.527Y-71.12
X283.529Y-109.221
X285.91Y-109.221
X288.29Y-33.02
X288.291Y-109.221
X291.465Y-54.61
X293.846Y-92.71
X296.229Y-73.661
X297.815Y-52.07
X300.196Y-90.17
X300.99Y-35.56
X300.99Y-111.76
X302.579Y-71.121
X307.34Y-33.02
X307.34Y-109.22
X308.134Y-73.66
X310.515Y-35.56
X314.484Y-71.12
X315.277Y-54.61
X316.865Y-33.02
X320.04Y-35.56
X320.04Y-92.71
X320.04Y-111.76
X321.627Y-52.07
X324.01Y-62.866
X326.39Y-33.02
X326.39Y-90.17
X326.39Y-109.22
X326.55Y-69.216
X339.09Y-35.56
X339.09Y-54.61
X339.09Y-73.66
X339.09Y-92.71
X339.09Y-111.76
X345.44Y-33.02
X345.44Y-52.07
X345.44Y-71.12
X345.44Y-90.17
X345.44Y-109.22
T3
G00X61.974Y-29.249
M15
G01X61.974Y-29.849
M16
G05
G00X61.974Y-33.179
M15
G01X61.974Y-34.279
M16
G05
G00X70.614Y-29.249
M15
G01X70.614Y-29.849
M16
G05
G00X70.614Y-33.179
M15
G01X70.614Y-34.279
M16
G05
T7
G00X72.617Y-57.15
M15
G01X72.617Y-57.15
M16
G05
G00X71.217Y-114.29
M15
G01X74.017Y-114.29
M16
G05
G00X174.807Y-76.2
M15
G01X177.607Y-76.2
M16
G05
G00X234.197Y-114.3
M15
G01X236.997Y-114.3
M16
G05
G00X306.667Y-57.15
M15
G01X309.467Y-57.15
M16
G05
G00X312.937Y-114.3
M15
G01X315.737Y-114.3
M16
G05
T0
M30
