M48
INCH,TZ
T1C0.0157
T2C0.0236
T3C0.0394
T4C0.0409
T5C0.0579
%
G90
G05
T1
X9822Y-27359
X9900Y-11400
X10600Y-22550
X11345Y-11395
X11831Y-28268
X11900Y-28850
X12717Y-28524
X12750Y-15100
X12795Y-24016
X12818Y-23700
X13061Y-31112
X13554Y-38795
X14050Y-24350
X14050Y-24700
X14900Y-16400
X14900Y-16950
X15295Y-23701
X15350Y-20900
X15402Y-24016
X15706Y-12208
X15735Y-11785
X16327Y-21870
X16398Y-26850
X16500Y-28451
X16600Y-11900
X16600Y-20650
X16950Y-12200
X16952Y-23709
X17000Y-17550
X17181Y-26068
X17300Y-26900
X17303Y-29803
X17350Y-16950
X17350Y-21000
X17539Y-23996
X17600Y-28750
X17900Y-24200
X17900Y-24550
X17900Y-28100
X18050Y-30200
X18300Y-25500
X18300Y-35850
X18350Y-40200
X18406Y-23169
X18600Y-43350
X18750Y-11700
X18750Y-13350
X18800Y-28100
X18850Y-17550
X18900Y-24650
X19150Y-24250
X19600Y-28900
X19650Y-32250
X19900Y-39050
X19900Y-40050
X20000Y-32250
X20669Y-23465
X20852Y-38751
X21200Y-11400
X21850Y-29400
X22000Y-14950
X22050Y-15950
X22050Y-16650
X22050Y-27550
X22100Y-24350
X22300Y-28250
X22500Y-28900
X22750Y-16400
X22750Y-28600
X23350Y-17500
X23400Y-12400
X23500Y-29700
X23642Y-22598
X23750Y-14700
X24250Y-28950
X26300Y-15700
X27135Y-32334
X31835Y-30181
X32189Y-39402
X35200Y-38850
X35900Y-39050
X44800Y-39050
X44800Y-39850
X63450Y-39700
X63600Y-38850
X85150Y-38900
X85150Y-39900
X97199Y-39400
X99350Y-13200
X100150Y-38900
X100150Y-39750
X100300Y-15450
X101400Y-17350
X102300Y-43900
X102765Y-21015
X104200Y-28900
X104850Y-36400
X104900Y-25200
X107150Y-39202
X109400Y-18800
X109700Y-22700
X110500Y-39050
X111250Y-17450
X112200Y-40000
X112900Y-37950
X122740Y-16949
X123579Y-23488
X124732Y-16949
T3
X10071Y-29591
X10071Y-30591
X10071Y-31591
X11071Y-29591
X11071Y-30591
X11071Y-31591
T4
X100125Y-29500
X101125Y-29500
X114562Y-23250
X114562Y-24250
X96375Y-44500
X97375Y-44500
X23250Y-22000
X24250Y-22000
X77625Y-29500
X78625Y-29500
X90750Y-22000
X91750Y-22000
X38250Y-22000
X39250Y-22000
X75750Y-22000
X76750Y-22000
X43875Y-37000
X44875Y-37000
X34500Y-14500
X35500Y-14500
X92625Y-29500
X93625Y-29500
X25125Y-29500
X26125Y-29500
X49500Y-14500
X50500Y-14500
X45750Y-22000
X46750Y-22000
X83250Y-22000
X84250Y-22000
X12938Y-44500
X13938Y-44500
X23250Y-44500
X24250Y-44500
X58875Y-37000
X59875Y-37000
X27000Y-14500
X28000Y-14500
X115125Y-22000
X116125Y-22000
X102000Y-14500
X103000Y-14500
X81375Y-37000
X82375Y-37000
X85125Y-29500
X86125Y-29500
X97313Y-44500
X98312Y-44500
X51375Y-37000
X52375Y-37000
X22312Y-44500
X23313Y-44500
X32625Y-44500
X33625Y-44500
X117000Y-37000
X118000Y-37000
X59813Y-44500
X60813Y-44500
X88875Y-37000
X89875Y-37000
X124500Y-44500
X125500Y-44500
X124500Y-14500
X125500Y-14500
X117000Y-44500
X118000Y-44500
X62625Y-29500
X63625Y-29500
X73875Y-37000
X74875Y-37000
X28875Y-37000
X29875Y-37000
X109500Y-44500
X110500Y-44500
X40125Y-29500
X41125Y-29500
X55125Y-29500
X56125Y-29500
X31687Y-44500
X32688Y-44500
X79500Y-14500
X80500Y-14500
X72000Y-14500
X73000Y-14500
X12938Y-29500
X13938Y-29500
X124500Y-37000
X125500Y-37000
X68250Y-22000
X69250Y-22000
X70125Y-29500
X71125Y-29500
X12000Y-10500
X13000Y-10500
X60750Y-22000
X61750Y-22000
X106688Y-37000
X107687Y-37000
X30750Y-22000
X31750Y-22000
X57000Y-14500
X58000Y-14500
X96375Y-37000
X97375Y-37000
X14813Y-29500
X15813Y-29500
X124500Y-22000
X125500Y-22000
X87938Y-44500
X88937Y-44500
X112313Y-29500
X113312Y-29500
X53250Y-22000
X54250Y-22000
X36375Y-37000
X37375Y-37000
X13875Y-22000
X14875Y-22000
X105750Y-22000
X106750Y-22000
X113250Y-14500
X114250Y-14500
X98250Y-22000
X99250Y-22000
X87000Y-14500
X88000Y-14500
X19500Y-10500
X20500Y-10500
X124500Y-29500
X125500Y-29500
X64500Y-44500
X65500Y-44500
X16688Y-37000
X17688Y-37000
X13875Y-44500
X14875Y-44500
X66375Y-37000
X67375Y-37000
X47625Y-29500
X48625Y-29500
X32625Y-29500
X33625Y-29500
X107625Y-29500
X108625Y-29500
X64500Y-14500
X65500Y-14500
X42000Y-14500
X43000Y-14500
X94500Y-14500
X95500Y-14500
T5
X99125Y-26500
X99641Y-25925
X101609Y-25728
X101625Y-25500
X115578Y-25522
X117547Y-25325
X117563Y-22250
X118137Y-22766
X118334Y-24734
X118563Y-24750
X95375Y-41500
X95891Y-40925
X97859Y-40728
X97875Y-40500
X22250Y-19000
X22766Y-18425
X24734Y-18228
X24750Y-18000
X76625Y-26500
X77141Y-25925
X79109Y-25728
X79125Y-25500
X89750Y-19000
X90266Y-18425
X92234Y-18228
X92250Y-18000
X37250Y-19000
X37766Y-18425
X39734Y-18228
X39750Y-18000
X74750Y-19000
X75266Y-18425
X77234Y-18228
X77250Y-18000
X42875Y-34000
X43391Y-33425
X45359Y-33228
X45375Y-33000
X33500Y-11500
X34016Y-10925
X35984Y-10728
X36000Y-10500
X91625Y-26500
X92141Y-25925
X94109Y-25728
X94125Y-25500
X24125Y-26500
X24641Y-25925
X26609Y-25728
X26625Y-25500
X48500Y-11500
X49016Y-10925
X50984Y-10728
X51000Y-10500
X44750Y-19000
X45266Y-18425
X47234Y-18228
X47250Y-18000
X82250Y-19000
X82766Y-18425
X84734Y-18228
X84750Y-18000
X11937Y-41500
X12453Y-40925
X14422Y-40728
X14437Y-40500
X22250Y-41500
X22766Y-40925
X24734Y-40728
X24750Y-40500
X57875Y-34000
X58391Y-33425
X60359Y-33228
X60375Y-33000
X26000Y-11500
X26516Y-10925
X28484Y-10728
X28500Y-10500
X114125Y-19000
X114641Y-18425
X116609Y-18228
X116625Y-18000
X101000Y-11500
X101516Y-10925
X103484Y-10728
X103500Y-10500
X80375Y-34000
X80891Y-33425
X82859Y-33228
X82875Y-33000
X84125Y-26500
X84641Y-25925
X86609Y-25728
X86625Y-25500
X96313Y-41500
X96828Y-40925
X98797Y-40728
X98813Y-40500
X50375Y-34000
X50891Y-33425
X52859Y-33228
X52875Y-33000
X21313Y-41500
X21828Y-40925
X23797Y-40728
X23813Y-40500
X31625Y-41500
X32141Y-40925
X34109Y-40728
X34125Y-40500
X116000Y-34000
X116516Y-33425
X118484Y-33228
X118500Y-33000
X58813Y-41500
X59328Y-40925
X61297Y-40728
X61313Y-40500
X87875Y-34000
X88391Y-33425
X90359Y-33228
X90375Y-33000
X123500Y-41500
X124016Y-40925
X125984Y-40728
X126000Y-40500
X123500Y-11500
X124016Y-10925
X125984Y-10728
X126000Y-10500
X116000Y-41500
X116516Y-40925
X118484Y-40728
X118500Y-40500
X61625Y-26500
X62141Y-25925
X64109Y-25728
X64125Y-25500
X72875Y-34000
X73391Y-33425
X75359Y-33228
X75375Y-33000
X27875Y-34000
X28391Y-33425
X30359Y-33228
X30375Y-33000
X108500Y-41500
X109016Y-40925
X110984Y-40728
X111000Y-40500
X39125Y-26500
X39641Y-25925
X41609Y-25728
X41625Y-25500
X54125Y-26500
X54641Y-25925
X56609Y-25728
X56625Y-25500
X30688Y-41500
X31203Y-40925
X33172Y-40728
X33188Y-40500
X78500Y-11500
X79016Y-10925
X80984Y-10728
X81000Y-10500
X71000Y-11500
X71516Y-10925
X73484Y-10728
X73500Y-10500
X11937Y-26500
X12453Y-25925
X14422Y-25728
X14437Y-25500
X123500Y-34000
X124016Y-33425
X125984Y-33228
X126000Y-33000
X67250Y-19000
X67766Y-18425
X69734Y-18228
X69750Y-18000
X69125Y-26500
X69641Y-25925
X71609Y-25728
X71625Y-25500
X11500Y-14500
X11516Y-14272
X13484Y-14075
X14000Y-13500
X59750Y-19000
X60266Y-18425
X62234Y-18228
X62250Y-18000
X105688Y-34000
X106203Y-33425
X108172Y-33228
X108188Y-33000
X29750Y-19000
X30266Y-18425
X32234Y-18228
X32250Y-18000
X56000Y-11500
X56516Y-10925
X58484Y-10728
X58500Y-10500
X95375Y-34000
X95891Y-33425
X97859Y-33228
X97875Y-33000
X13812Y-26500
X14328Y-25925
X16297Y-25728
X16313Y-25500
X123500Y-19000
X124016Y-18425
X125984Y-18228
X126000Y-18000
X86938Y-41500
X87453Y-40925
X89422Y-40728
X89438Y-40500
X111313Y-26500
X111828Y-25925
X113797Y-25728
X113813Y-25500
X52250Y-19000
X52766Y-18425
X54734Y-18228
X54750Y-18000
X35375Y-34000
X35891Y-33425
X37859Y-33228
X37875Y-33000
X12875Y-19000
X13391Y-18425
X15359Y-18228
X15375Y-18000
X104750Y-19000
X105266Y-18425
X107234Y-18228
X107250Y-18000
X112250Y-11500
X112766Y-10925
X114734Y-10728
X114750Y-10500
X97250Y-19000
X97766Y-18425
X99734Y-18228
X99750Y-18000
X86000Y-11500
X86516Y-10925
X88484Y-10728
X88500Y-10500
X19000Y-14500
X19016Y-14272
X20984Y-14075
X21500Y-13500
X123500Y-26500
X124016Y-25925
X125984Y-25728
X126000Y-25500
X63500Y-41500
X64016Y-40925
X65984Y-40728
X66000Y-40500
X15687Y-34000
X16203Y-33425
X18172Y-33228
X18188Y-33000
X12875Y-41500
X13391Y-40925
X15359Y-40728
X15375Y-40500
X65375Y-34000
X65891Y-33425
X67859Y-33228
X67875Y-33000
X46625Y-26500
X47141Y-25925
X49109Y-25728
X49125Y-25500
X31625Y-26500
X32141Y-25925
X34109Y-25728
X34125Y-25500
X106625Y-26500
X107141Y-25925
X109109Y-25728
X109125Y-25500
X63500Y-11500
X64016Y-10925
X65984Y-10728
X66000Y-10500
X41000Y-11500
X41516Y-10925
X43484Y-10728
X43500Y-10500
X93500Y-11500
X94016Y-10925
X95984Y-10728
X96000Y-10500
T2
G00X14527Y-7649
M15
G01X14527Y-7885
M16
G05
G00X14527Y-9196
M15
G01X14527Y-9629
M16
G05
G00X17928Y-7649
M15
G01X17928Y-7885
M16
G05
G00X17928Y-9196
M15
G01X17928Y-9629
M16
G05
T0
M30
