0
SECTION
2
HEADER
9
$INSUNITS
70
4
9
$ACADVER
1
AC1014
9
$HANDSEED
5
FFFF
0
ENDSEC
0
SECTION
2
TABLES
0
TABLE
2
VPORT
5
8
100
AcDbSymbolTable
0
ENDTAB
0
TABLE
2
LTYPE
5
5
100
AcDbSymbolTable
0
LTYPE
5
14
100
AcDbSymbolTableRecord
100
AcDbLinetypeTableRecord
2
BYBLOCK
70
0
0
LTYPE
5
15
100
AcDbSymbolTableRecord
100
AcDbLinetypeTableRecord
2
BYLAYER
70
0
0
ENDTAB
0
TABLE
2
LAYER
5
2
100
AcDbSymbolTable
70
2
0
LAYER
5
50
100
AcDbSymbolTableRecord
100
AcDbLayerTableRecord
2
0
70
0
6
CONTINUOUS
0
ENDTAB
0
TABLE
2
STYLE
5
3
100
AcDbSymbolTable
70
1
0
STYLE
5
11
100
AcDbSymbolTableRecord
100
AcDbTextStyleTableRecord
2
STANDARD
70
0
0
ENDTAB
0
TABLE
2
VIEW
5
6
100
AcDbSymbolTable
70
0
0
ENDTAB
0
TABLE
2
UCS
5
7
100
AcDbSymbolTable
70
0
0
ENDTAB
0
TABLE
2
APPID
5
9
100
AcDbSymbolTable
70
2
0
APPID
5
12
100
AcDbSymbolTableRecord
100
AcDbRegAppTableRecord
2
ACAD
70
0
0
ENDTAB
0
TABLE
2
DIMSTYLE
5
A
100
AcDbSymbolTable
70
1
0
ENDTAB
0
TABLE
2
BLOCK_RECORD
5
1
100
AcDbSymbolTable
70
1
0
BLOCK_RECORD
5
1F
100
AcDbSymbolTableRecord
100
AcDbBlockTableRecord
2
*MODEL_SPACE
0
BLOCK_RECORD
5
1B
100
AcDbSymbolTableRecord
100
AcDbBlockTableRecord
2
*PAPER_SPACE
0
ENDTAB
0
ENDSEC
0
SECTION
2
BLOCKS
0
BLOCK
5
20
100
AcDbEntity
100
AcDbBlockBegin
2
*MODEL_SPACE
0
ENDBLK
5
21
100
AcDbEntity
100
AcDbBlockEnd
0
BLOCK
5
1C
100
AcDbEntity
100
AcDbBlockBegin
2
*PAPER_SPACE
0
ENDBLK
5
1D
100
AcDbEntity
100
AcDbBlockEnd
0
ENDSEC
0
SECTION
2
ENTITIES
0
CIRCLE
5
100
100
AcDbEntity
8
0
100
AcDbCircle
10
5
20
-7.4999999999999956
30
0
40
1.524
210
0
220
0
230
1
0
LWPOLYLINE
5
101
100
AcDbEntity
8
0
100
AcDbPolyline
90
12
70
1
43
0.0
10
6.9938999999999929
20
-9.0080990650484551
10
6.9938999999999938
20
-20.498490956966702
42
-0.57082128445209634
10
6
20
-25.568427124746187
10
6
20
-27.739999999999991
10
12.000000000000002
20
-27.739999999999991
10
12.000000000000002
20
-25.568427124746187
42
-0.57082128445209657
10
11.006100000000007
20
-20.498490956966705
10
11.006100000000011
20
-9.0080990650484534
42
-0.48516468408707691
10
12.000000000000011
20
-5.2087121525220716
10
12.000000000000011
20
-2.9999999999999982
10
6.0000000000000142
20
-2.9999999999999982
10
6.0000000000000107
20
-5.208712152522077
42
-0.48516468408707419
0
LWPOLYLINE
5
102
100
AcDbEntity
8
0
100
AcDbPolyline
90
52
70
1
43
0.0
10
3.0061000000000071
20
-9.0080990650484551
10
3.0061000000000071
20
-20.498490956966705
42
0.57082128445209634
10
4
20
-25.568427124746187
10
4
20
-27.739999999999991
10
5.5511151231257827e-16
20
-27.739999999999991
10
1.1102230246251565e-15
20
-33.739999999999988
10
4.0000000000000044
20
-33.739999999999988
10
4.0000000000000044
20
-35.948712152522056
42
0.4851646840870763
10
3.006100000000008
20
-39.748099065048443
10
3.006100000000008
20
-51.2384909569667
42
0.57082128445209623
10
4.0000000000000018
20
-56.308427124746174
10
4.0000000000000018
20
-58.479999999999983
10
1.6653345369377348e-15
20
-58.479999999999983
10
2.2204460492503131e-15
20
-64.479999999999976
10
4.0000000000000053
20
-64.479999999999976
10
4.0000000000000053
20
-66.688712152522044
42
0.48516468408707569
10
3.0061000000000093
20
-70.488099065048431
10
3.0061000000000093
20
-81.978490956966681
42
0.57082128445209623
10
4.0000000000000027
20
-87.048427124746155
10
4.0000000000000027
20
-89.21999999999997
10
2.7755575615628914e-15
20
-89.21999999999997
10
0
20
-92.21999999999997
10
98
20
-92.21999999999997
10
98
20
-89.21999999999997
10
94
20
-89.21999999999997
10
94
20
-87.048427124746155
42
0.57082128445209657
10
94.993899999999996
20
-81.978490956966681
10
94.993899999999996
20
-70.488099065048431
42
0.48516468408707569
10
94
20
-66.688712152522044
10
94
20
-64.479999999999976
10
98
20
-64.479999999999976
10
98
20
-58.479999999999983
10
94
20
-58.479999999999983
10
94
20
-56.308427124746174
42
0.57082128445209657
10
94.993899999999996
20
-51.2384909569667
10
94.993899999999996
20
-39.748099065048443
42
0.48516468408707608
10
94
20
-35.948712152522063
10
94
20
-33.739999999999988
10
98
20
-33.739999999999988
10
98
20
-27.739999999999991
10
94
20
-27.739999999999991
10
94
20
-25.568427124746187
42
0.5708212844520969
10
94.993899999999996
20
-20.498490956966705
10
94.993899999999996
20
-9.0080990650484551
42
0.48516468408707619
10
94
20
-5.2087121525220716
10
94
20
-2.9999999999999982
10
98
20
-2.9999999999999982
10
98
20
0
10
0
20
0
10
0
20
-2.9999999999999982
10
4.0000000000000036
20
-2.9999999999999982
10
4.0000000000000036
20
-5.2087121525220699
42
0.48516468408707625
0
CIRCLE
5
103
100
AcDbEntity
8
0
100
AcDbCircle
10
5
20
-22.739999999999995
30
0
40
1.9938999999999929
210
0
220
0
230
1
0
LWPOLYLINE
5
104
100
AcDbEntity
8
0
100
AcDbPolyline
90
12
70
1
43
0.0
10
14.993899999999993
20
-9.0080990650484551
10
14.993899999999993
20
-20.498490956966702
42
-0.57082128445209634
10
14.000000000000002
20
-25.568427124746187
10
14.000000000000002
20
-27.739999999999991
10
20
20
-27.739999999999991
10
20
20
-25.568427124746187
42
-0.57082128445209568
10
19.006100000000011
20
-20.498490956966705
10
19.006100000000011
20
-9.0080990650484569
42
-0.48516468408707503
10
20
20
-5.2087121525220716
10
20
20
-2.9999999999999982
10
14.000000000000004
20
-2.9999999999999982
10
14.000000000000002
20
-5.2087121525220734
42
-0.48516468408707542
0
CIRCLE
5
105
100
AcDbEntity
8
0
100
AcDbCircle
10
13
20
-22.739999999999995
30
0
40
1.9938999999999929
210
0
220
0
230
1
0
CIRCLE
5
106
100
AcDbEntity
8
0
100
AcDbCircle
10
13
20
-7.4999999999999956
30
0
40
1.524
210
0
220
0
230
1
0
CIRCLE
5
107
100
AcDbEntity
8
0
100
AcDbCircle
10
21.000000000000007
20
-7.4999999999999956
30
0
40
1.524
210
0
220
0
230
1
0
LWPOLYLINE
5
108
100
AcDbEntity
8
0
100
AcDbPolyline
90
12
70
1
43
0.0
10
22.993899999999996
20
-9.0080990650484551
10
22.993899999999996
20
-20.498490956966705
42
-0.5708212844520969
10
22
20
-25.568427124746187
10
22
20
-27.739999999999991
10
28.000000000000004
20
-27.739999999999991
10
28.000000000000004
20
-25.568427124746187
42
-0.57082128445209634
10
27.006100000000011
20
-20.498490956966705
10
27.006100000000011
20
-9.0080990650484569
42
-0.48516468408707619
10
28.000000000000007
20
-5.2087121525220716
10
28.000000000000007
20
-2.9999999999999982
10
22.000000000000011
20
-2.9999999999999982
10
22.000000000000011
20
-5.2087121525220752
42
-0.48516468408707514
0
CIRCLE
5
109
100
AcDbEntity
8
0
100
AcDbCircle
10
21.000000000000007
20
-22.739999999999995
30
0
40
1.9938999999999929
210
0
220
0
230
1
0
LWPOLYLINE
5
110
100
AcDbEntity
8
0
100
AcDbPolyline
90
12
70
1
43
0.0
10
30.993899999999996
20
-9.0080990650484551
10
30.993899999999996
20
-20.498490956966705
42
-0.5708212844520969
10
30
20
-25.568427124746187
10
30
20
-27.739999999999991
10
36
20
-27.739999999999991
10
36
20
-25.568427124746187
42
-0.57082128445209634
10
35.006100000000011
20
-20.498490956966705
10
35.006100000000011
20
-9.0080990650484569
42
-0.48516468408707619
10
36.000000000000007
20
-5.2087121525220716
10
36.000000000000007
20
-2.9999999999999982
10
30
20
-2.9999999999999982
10
29.999999999999996
20
-5.2087121525220699
42
-0.48516468408707619
0
CIRCLE
5
111
100
AcDbEntity
8
0
100
AcDbCircle
10
29.000000000000004
20
-7.4999999999999956
30
0
40
1.524
210
0
220
0
230
1
0
CIRCLE
5
112
100
AcDbEntity
8
0
100
AcDbCircle
10
29.000000000000004
20
-22.739999999999995
30
0
40
1.9938999999999929
210
0
220
0
230
1
0
LWPOLYLINE
5
113
100
AcDbEntity
8
0
100
AcDbPolyline
90
12
70
1
43
0.0
10
38.993899999999996
20
-9.0080990650484551
10
38.993899999999996
20
-20.498490956966702
42
-0.57082128445209634
10
38
20
-25.568427124746187
10
38
20
-27.739999999999991
10
44
20
-27.739999999999991
10
44
20
-25.568427124746187
42
-0.5708212844520969
10
43.006100000000004
20
-20.498490956966705
10
43.006100000000018
20
-9.0080990650484534
42
-0.48516468408707719
10
44.000000000000014
20
-5.2087121525220716
10
44.000000000000014
20
-2.9999999999999982
10
38.000000000000014
20
-2.9999999999999982
10
38.000000000000014
20
-5.208712152522077
42
-0.48516468408707419
0
LWPOLYLINE
5
114
100
AcDbEntity
8
0
100
AcDbPolyline
90
12
70
1
43
0.0
10
59.006100000000011
20
-9.0080990650484551
10
59.006100000000011
20
-20.498490956966705
42
0.5708212844520959
10
60
20
-25.568427124746187
10
60
20
-27.739999999999991
10
54
20
-27.739999999999991
10
54
20
-25.568427124746187
42
0.5708212844520969
10
54.993899999999996
20
-20.498490956966705
10
54.993899999999996
20
-9.0080990650484551
42
0.48516468408707514
10
54.000000000000014
20
-5.2087121525220716
10
54.000000000000014
20
-2.9999999999999982
10
60.000000000000007
20
-2.9999999999999982
10
60.000000000000007
20
-5.2087121525220716
42
0.48516468408707619
0
LWPOLYLINE
5
115
100
AcDbEntity
8
0
100
AcDbPolyline
90
12
70
1
43
0.0
10
46.993899999999996
20
-9.0080990650484551
10
46.993899999999996
20
-20.498490956966702
42
-0.5708212844520959
10
46.000000000000007
20
-25.568427124746187
10
46.000000000000007
20
-27.739999999999991
10
52
20
-27.739999999999991
10
52
20
-25.568427124746179
42
-0.5708212844520959
10
51.006100000000018
20
-20.498490956966705
10
51.006100000000004
20
-9.0080990650484587
42
-0.48516468408707514
10
52
20
-5.2087121525220716
10
52
20
-2.9999999999999982
10
46.000000000000007
20
-2.9999999999999982
10
46.000000000000007
20
-5.2087121525220752
42
-0.48516468408707514
0
CIRCLE
5
116
100
AcDbEntity
8
0
100
AcDbCircle
10
53.000000000000007
20
-7.4999999999999956
30
0
40
1.524
210
0
220
0
230
1
0
CIRCLE
5
117
100
AcDbEntity
8
0
100
AcDbCircle
10
37
20
-7.4999999999999956
30
0
40
1.524
210
0
220
0
230
1
0
LWPOLYLINE
5
118
100
AcDbEntity
8
0
100
AcDbPolyline
90
12
70
1
43
0.0
10
62.993899999999996
20
-9.0080990650484551
10
62.993899999999989
20
-20.498490956966705
42
-0.5708212844520969
10
62
20
-25.568427124746187
10
62
20
-27.739999999999991
10
68
20
-27.739999999999991
10
68
20
-25.568427124746187
42
-0.5708212844520969
10
67.006100000000004
20
-20.498490956966705
10
67.006100000000004
20
-9.0080990650484569
42
-0.48516468408707619
10
68
20
-5.2087121525220716
10
68
20
-2.9999999999999982
10
62
20
-2.9999999999999982
10
62
20
-5.2087121525220699
42
-0.48516468408707619
0
CIRCLE
5
119
100
AcDbEntity
8
0
100
AcDbCircle
10
61.000000000000007
20
-7.4999999999999956
30
0
40
1.524
210
0
220
0
230
1
0
CIRCLE
5
120
100
AcDbEntity
8
0
100
AcDbCircle
10
45
20
-7.4999999999999956
30
0
40
1.524
210
0
220
0
230
1
0
CIRCLE
5
121
100
AcDbEntity
8
0
100
AcDbCircle
10
61.000000000000007
20
-22.739999999999995
30
0
40
1.9938999999999929
210
0
220
0
230
1
0
CIRCLE
5
122
100
AcDbEntity
8
0
100
AcDbCircle
10
45
20
-22.739999999999995
30
0
40
1.9938999999999929
210
0
220
0
230
1
0
CIRCLE
5
123
100
AcDbEntity
8
0
100
AcDbCircle
10
37
20
-22.739999999999995
30
0
40
1.9938999999999929
210
0
220
0
230
1
0
CIRCLE
5
124
100
AcDbEntity
8
0
100
AcDbCircle
10
53.000000000000007
20
-22.739999999999995
30
0
40
1.9938999999999929
210
0
220
0
230
1
0
LWPOLYLINE
5
125
100
AcDbEntity
8
0
100
AcDbPolyline
90
12
70
1
43
0.0
10
70.993899999999996
20
-9.0080990650484551
10
70.993899999999982
20
-20.498490956966705
42
-0.5708212844520969
10
70
20
-25.568427124746187
10
70
20
-27.739999999999991
10
76
20
-27.739999999999991
10
76
20
-25.568427124746187
42
-0.5708212844520969
10
75.006100000000004
20
-20.498490956966705
10
75.006100000000018
20
-9.0080990650484534
42
-0.48516468408707719
10
76.000000000000014
20
-5.2087121525220716
10
76.000000000000014
20
-2.9999999999999982
10
70.000000000000014
20
-2.9999999999999982
10
70.000000000000014
20
-5.208712152522077
42
-0.48516468408707419
0
LWPOLYLINE
5
126
100
AcDbEntity
8
0
100
AcDbPolyline
90
12
70
1
43
0.0
10
91.006100000000018
20
-9.0080990650484551
10
91.006100000000018
20
-20.498490956966705
42
0.5708212844520969
10
92.000000000000014
20
-25.568427124746187
10
92.000000000000014
20
-27.739999999999991
10
86.000000000000014
20
-27.739999999999991
10
86.000000000000014
20
-25.568427124746187
42
0.57082128445209346
10
86.993900000000011
20
-20.498490956966705
10
86.993900000000011
20
-9.0080990650484551
42
0.48516468408707281
10
86.000000000000014
20
-5.2087121525220716
10
86.000000000000014
20
-2.9999999999999982
10
92.000000000000014
20
-2.9999999999999982
10
92.000000000000014
20
-5.2087121525220716
42
0.48516468408707619
0
LWPOLYLINE
5
127
100
AcDbEntity
8
0
100
AcDbPolyline
90
13
70
1
43
0.0
10
78.993899999999996
20
-9.0080990650484551
10
78.993899999999996
20
-20.498490956966702
42
-0.5708212844520959
10
78
20
-25.568427124746187
10
78
20
-27.739999999999991
10
84
20
-27.739999999999991
10
84
20
-25.568427124746187
42
-0.5708212844520969
10
83.006100000000004
20
-20.498490956966705
10
83.006100000000004
20
-9.0080990650484569
42
-0.48516468408707619
10
84
20
-5.2087121525220716
10
84
20
-2.9999999999999982
10
78.397501408028432
20
-2.9999999999999982
10
78
20
-2.9999999999999982
10
78
20
-5.2087121525220752
42
-0.48516468408707514
0
CIRCLE
5
128
100
AcDbEntity
8
0
100
AcDbCircle
10
85
20
-7.4999999999999956
30
0
40
1.524
210
0
220
0
230
1
0
CIRCLE
5
129
100
AcDbEntity
8
0
100
AcDbCircle
10
69
20
-7.4999999999999956
30
0
40
1.524
210
0
220
0
230
1
0
CIRCLE
5
130
100
AcDbEntity
8
0
100
AcDbCircle
10
93
20
-7.4999999999999956
30
0
40
1.524
210
0
220
0
230
1
0
CIRCLE
5
131
100
AcDbEntity
8
0
100
AcDbCircle
10
77
20
-7.4999999999999956
30
0
40
1.524
210
0
220
0
230
1
0
CIRCLE
5
132
100
AcDbEntity
8
0
100
AcDbCircle
10
93
20
-22.739999999999995
30
0
40
1.9938999999999929
210
0
220
0
230
1
0
CIRCLE
5
133
100
AcDbEntity
8
0
100
AcDbCircle
10
77
20
-22.739999999999995
30
0
40
1.9938999999999929
210
0
220
0
230
1
0
CIRCLE
5
134
100
AcDbEntity
8
0
100
AcDbCircle
10
69
20
-22.739999999999995
30
0
40
1.9938999999999929
210
0
220
0
230
1
0
CIRCLE
5
135
100
AcDbEntity
8
0
100
AcDbCircle
10
85
20
-22.739999999999995
30
0
40
1.9938999999999929
210
0
220
0
230
1
0
LWPOLYLINE
5
136
100
AcDbEntity
8
0
100
AcDbPolyline
90
12
70
1
43
0.0
10
38.993899999999996
20
-39.748099065048443
10
38.993899999999996
20
-51.2384909569667
42
-0.57082128445209623
10
38
20
-56.308427124746174
10
38
20
-58.479999999999983
10
44
20
-58.479999999999983
10
44
20
-56.308427124746174
42
-0.57082128445209657
10
43.006100000000004
20
-51.2384909569667
10
43.006100000000018
20
-39.748099065048443
42
-0.48516468408707714
10
44.000000000000014
20
-35.948712152522063
10
44.000000000000014
20
-33.739999999999988
10
38.000000000000014
20
-33.739999999999988
10
38.000000000000014
20
-35.948712152522063
42
-0.48516468408707414
0
LWPOLYLINE
5
137
100
AcDbEntity
8
0
100
AcDbPolyline
90
12
70
1
43
0.0
10
54
20
-56.308427124746174
10
54
20
-58.479999999999983
10
60
20
-58.479999999999983
10
60
20
-56.308427124746174
42
-0.57082128445209568
10
59.006100000000011
20
-51.2384909569667
10
59.006100000000011
20
-39.748099065048443
42
-0.48516468408707608
10
60.000000000000007
20
-35.948712152522063
10
60.000000000000007
20
-33.739999999999988
10
54.000000000000014
20
-33.739999999999988
10
54.000000000000014
20
-35.948712152522063
42
-0.48516468408707514
10
54.993899999999996
20
-39.748099065048443
10
54.993899999999996
20
-51.238490956966707
42
-0.57082128445209657
0
LWPOLYLINE
5
138
100
AcDbEntity
8
0
100
AcDbPolyline
90
12
70
1
43
0.0
10
68
20
-58.479999999999983
10
68
20
-56.308427124746174
42
-0.57082128445209657
10
67.006100000000004
20
-51.2384909569667
10
67.006100000000004
20
-39.748099065048443
42
-0.48516468408707608
10
68
20
-35.948712152522063
10
68
20
-33.739999999999988
10
62
20
-33.739999999999988
10
62
20
-35.948712152522063
42
-0.48516468408707608
10
62.993899999999996
20
-39.748099065048443
10
62.993899999999996
20
-51.238490956966707
42
-0.57082128445209657
10
62
20
-56.308427124746174
10
62
20
-58.479999999999983
0
CIRCLE
5
139
100
AcDbEntity
8
0
100
AcDbCircle
10
69
20
-53.47999999999999
30
0
40
1.9938999999999929
210
0
220
0
230
1
0
LWPOLYLINE
5
140
100
AcDbEntity
8
0
100
AcDbPolyline
90
12
70
1
43
0.0
10
35.006100000000011
20
-39.748099065048443
10
35.006100000000011
20
-51.2384909569667
42
0.57082128445209623
10
36
20
-56.308427124746174
10
36
20
-58.479999999999983
10
30
20
-58.479999999999983
10
30
20
-56.308427124746174
42
0.57082128445209657
10
30.993899999999996
20
-51.2384909569667
10
30.993899999999996
20
-39.748099065048443
42
0.48516468408707608
10
30
20
-35.948712152522063
10
30
20
-33.739999999999988
10
36.000000000000007
20
-33.739999999999988
10
36.000000000000007
20
-35.948712152522063
42
0.48516468408707608
0
LWPOLYLINE
5
141
100
AcDbEntity
8
0
100
AcDbPolyline
90
12
70
1
43
0.0
10
52
20
-58.479999999999983
10
52
20
-56.308427124746174
42
-0.57082128445209568
10
51.006100000000018
20
-51.2384909569667
10
51.006100000000004
20
-39.74809906504845
42
-0.48516468408707514
10
52
20
-35.948712152522063
10
52
20
-33.739999999999988
10
46.000000000000007
20
-33.739999999999988
10
46.000000000000007
20
-35.948712152522063
42
-0.48516468408707514
10
46.993899999999996
20
-39.748099065048443
10
46.993899999999996
20
-51.238490956966707
42
-0.57082128445209568
10
46.000000000000007
20
-56.308427124746174
10
46.000000000000007
20
-58.479999999999983
0
LWPOLYLINE
5
142
100
AcDbEntity
8
0
100
AcDbPolyline
90
12
70
1
43
0.0
10
22.993899999999996
20
-39.748099065048443
10
22.993899999999993
20
-51.238490956966707
42
-0.57082128445209657
10
22
20
-56.308427124746174
10
22
20
-58.479999999999983
10
28.000000000000004
20
-58.479999999999983
10
28.000000000000004
20
-56.308427124746181
42
-0.57082128445209623
10
27.006100000000011
20
-51.2384909569667
10
27.006100000000011
20
-39.748099065048443
42
-0.48516468408707608
10
28.000000000000007
20
-35.948712152522063
10
28.000000000000007
20
-33.739999999999988
10
22.000000000000011
20
-33.739999999999988
10
22.000000000000011
20
-35.948712152522063
42
-0.48516468408707514
0
CIRCLE
5
143
100
AcDbEntity
8
0
100
AcDbCircle
10
53.000000000000007
20
-53.47999999999999
30
0
40
1.9938999999999929
210
0
220
0
230
1
0
LWPOLYLINE
5
144
100
AcDbEntity
8
0
100
AcDbPolyline
90
12
70
1
43
0.0
10
70.993899999999996
20
-51.238490956966707
42
-0.57082128445209657
10
70
20
-56.308427124746174
10
70
20
-58.479999999999983
10
76
20
-58.479999999999983
10
76
20
-56.308427124746174
42
-0.57082128445209657
10
75.006100000000004
20
-51.2384909569667
10
75.006100000000018
20
-39.748099065048443
42
-0.48516468408707714
10
76.000000000000014
20
-35.948712152522063
10
76.000000000000014
20
-33.739999999999988
10
70.000000000000014
20
-33.739999999999988
10
70.000000000000014
20
-35.948712152522063
42
-0.48516468408707414
10
70.993899999999996
20
-39.748099065048443
0
LWPOLYLINE
5
145
100
AcDbEntity
8
0
100
AcDbPolyline
90
12
70
1
43
0.0
10
12.000000000000002
20
-58.479999999999983
10
12.000000000000002
20
-56.308427124746181
42
-0.57082128445209623
10
11.006100000000011
20
-51.2384909569667
10
11.006100000000012
20
-39.748099065048443
42
-0.48516468408707664
10
12.000000000000011
20
-35.948712152522063
10
12.000000000000011
20
-33.739999999999988
10
6.0000000000000151
20
-33.739999999999988
10
6.0000000000000124
20
-35.948712152522063
42
-0.48516468408707414
10
6.9938999999999938
20
-39.748099065048443
10
6.9938999999999929
20
-51.2384909569667
42
-0.57082128445209623
10
6.0000000000000009
20
-56.308427124746174
10
6.0000000000000009
20
-58.479999999999983
0
LWPOLYLINE
5
146
100
AcDbEntity
8
0
100
AcDbPolyline
90
12
70
1
43
0.0
10
14.000000000000004
20
-56.308427124746174
10
14.000000000000004
20
-58.479999999999983
10
20
20
-58.479999999999983
10
20
20
-56.308427124746174
42
-0.57082128445209568
10
19.006100000000011
20
-51.2384909569667
10
19.006100000000011
20
-39.74809906504845
42
-0.48516468408707514
10
20
20
-35.948712152522063
10
20
20
-33.739999999999988
10
14.000000000000004
20
-33.739999999999988
10
14.000000000000002
20
-35.948712152522063
42
-0.48516468408707564
10
14.993899999999996
20
-39.748099065048443
10
14.993899999999993
20
-51.2384909569667
42
-0.57082128445209623
0
CIRCLE
5
147
100
AcDbEntity
8
0
100
AcDbCircle
10
5.0000000000000009
20
-38.239999999999988
30
0
40
1.524
210
0
220
0
230
1
0
CIRCLE
5
148
100
AcDbEntity
8
0
100
AcDbCircle
10
53.000000000000007
20
-38.239999999999988
30
0
40
1.524
210
0
220
0
230
1
0
CIRCLE
5
149
100
AcDbEntity
8
0
100
AcDbCircle
10
5.0000000000000009
20
-53.47999999999999
30
0
40
1.9938999999999929
210
0
220
0
230
1
0
CIRCLE
5
150
100
AcDbEntity
8
0
100
AcDbCircle
10
85
20
-38.239999999999988
30
0
40
1.524
210
0
220
0
230
1
0
LWPOLYLINE
5
151
100
AcDbEntity
8
0
100
AcDbPolyline
90
12
70
1
43
0.0
10
92.000000000000014
20
-33.739999999999988
10
86.000000000000014
20
-33.739999999999988
10
86.000000000000014
20
-35.948712152522056
42
-0.48516468408707281
10
86.993900000000011
20
-39.748099065048443
10
86.993900000000011
20
-51.238490956966707
42
-0.57082128445209335
10
86.000000000000014
20
-56.308427124746174
10
86.000000000000014
20
-58.479999999999983
10
92.000000000000014
20
-58.479999999999983
10
92.000000000000014
20
-56.308427124746174
42
-0.57082128445209657
10
91.006100000000018
20
-51.2384909569667
10
91.006100000000018
20
-39.748099065048443
42
-0.48516468408707608
10
92.000000000000014
20
-35.948712152522063
0
CIRCLE
5
152
100
AcDbEntity
8
0
100
AcDbCircle
10
45
20
-53.47999999999999
30
0
40
1.9938999999999929
210
0
220
0
230
1
0
CIRCLE
5
153
100
AcDbEntity
8
0
100
AcDbCircle
10
21.000000000000007
20
-38.239999999999988
30
0
40
1.524
210
0
220
0
230
1
0
CIRCLE
5
154
100
AcDbEntity
8
0
100
AcDbCircle
10
13.000000000000004
20
-53.47999999999999
30
0
40
1.9938999999999929
210
0
220
0
230
1
0
CIRCLE
5
155
100
AcDbEntity
8
0
100
AcDbCircle
10
61.000000000000007
20
-53.47999999999999
30
0
40
1.9938999999999929
210
0
220
0
230
1
0
LWPOLYLINE
5
156
100
AcDbEntity
8
0
100
AcDbPolyline
90
13
70
1
43
0.0
10
83.006100000000004
20
-39.748099065048443
42
-0.48516468408707608
10
84
20
-35.948712152522063
10
84
20
-33.739999999999988
10
78.397501408028432
20
-33.739999999999988
10
78
20
-33.739999999999988
10
78
20
-35.948712152522063
42
-0.48516468408707514
10
78.993899999999996
20
-39.748099065048443
10
78.993899999999996
20
-51.238490956966707
42
-0.57082128445209568
10
78
20
-56.308427124746174
10
78
20
-58.479999999999983
10
84
20
-58.479999999999983
10
84
20
-56.308427124746174
42
-0.57082128445209657
10
83.006100000000004
20
-51.2384909569667
0
CIRCLE
5
157
100
AcDbEntity
8
0
100
AcDbCircle
10
77
20
-38.239999999999988
30
0
40
1.524
210
0
220
0
230
1
0
CIRCLE
5
158
100
AcDbEntity
8
0
100
AcDbCircle
10
37
20
-38.239999999999988
30
0
40
1.524
210
0
220
0
230
1
0
CIRCLE
5
159
100
AcDbEntity
8
0
100
AcDbCircle
10
37
20
-53.47999999999999
30
0
40
1.9938999999999929
210
0
220
0
230
1
0
CIRCLE
5
160
100
AcDbEntity
8
0
100
AcDbCircle
10
93
20
-38.239999999999988
30
0
40
1.524
210
0
220
0
230
1
0
CIRCLE
5
161
100
AcDbEntity
8
0
100
AcDbCircle
10
69
20
-38.239999999999988
30
0
40
1.524
210
0
220
0
230
1
0
CIRCLE
5
162
100
AcDbEntity
8
0
100
AcDbCircle
10
45
20
-38.239999999999988
30
0
40
1.524
210
0
220
0
230
1
0
CIRCLE
5
163
100
AcDbEntity
8
0
100
AcDbCircle
10
61.000000000000007
20
-38.239999999999988
30
0
40
1.524
210
0
220
0
230
1
0
CIRCLE
5
164
100
AcDbEntity
8
0
100
AcDbCircle
10
77
20
-53.47999999999999
30
0
40
1.9938999999999929
210
0
220
0
230
1
0
CIRCLE
5
165
100
AcDbEntity
8
0
100
AcDbCircle
10
93
20
-53.47999999999999
30
0
40
1.9938999999999929
210
0
220
0
230
1
0
CIRCLE
5
166
100
AcDbEntity
8
0
100
AcDbCircle
10
85
20
-53.47999999999999
30
0
40
1.9938999999999929
210
0
220
0
230
1
0
CIRCLE
5
167
100
AcDbEntity
8
0
100
AcDbCircle
10
29.000000000000004
20
-38.239999999999988
30
0
40
1.524
210
0
220
0
230
1
0
CIRCLE
5
168
100
AcDbEntity
8
0
100
AcDbCircle
10
21.000000000000007
20
-53.47999999999999
30
0
40
1.9938999999999929
210
0
220
0
230
1
0
CIRCLE
5
169
100
AcDbEntity
8
0
100
AcDbCircle
10
13.000000000000004
20
-38.239999999999988
30
0
40
1.524
210
0
220
0
230
1
0
CIRCLE
5
170
100
AcDbEntity
8
0
100
AcDbCircle
10
29.000000000000004
20
-53.47999999999999
30
0
40
1.9938999999999929
210
0
220
0
230
1
0
LWPOLYLINE
5
171
100
AcDbEntity
8
0
100
AcDbPolyline
90
12
70
1
43
0.0
10
38.993899999999996
20
-70.488099065048431
10
38.993899999999996
20
-81.978490956966681
42
-0.57082128445209568
10
38.000000000000007
20
-87.048427124746155
10
38.000000000000007
20
-89.21999999999997
10
44
20
-89.21999999999997
10
44
20
-87.048427124746155
42
-0.57082128445209657
10
43.006100000000004
20
-81.978490956966681
10
43.006099999999996
20
-70.488099065048431
42
-0.48516468408707669
10
44.000000000000014
20
-66.688712152522044
10
44.000000000000014
20
-64.479999999999976
10
38.000000000000014
20
-64.479999999999976
10
38.000000000000007
20
-66.688712152522072
42
-0.48516468408707369
0
LWPOLYLINE
5
172
100
AcDbEntity
8
0
100
AcDbPolyline
90
12
70
1
43
0.0
10
54
20
-87.048427124746155
10
54
20
-89.21999999999997
10
60
20
-89.21999999999997
10
60
20
-87.048427124746155
42
-0.57082128445209568
10
59.006100000000011
20
-81.978490956966681
10
59.006100000000004
20
-70.488099065048445
42
-0.48516468408707569
10
60.000000000000007
20
-66.688712152522044
10
60.000000000000007
20
-64.479999999999976
10
54.000000000000014
20
-64.479999999999976
10
54
20
-66.688712152522072
42
-0.48516468408707475
10
54.993899999999996
20
-70.488099065048431
10
54.993899999999996
20
-81.978490956966681
42
-0.57082128445209657
0
LWPOLYLINE
5
173
100
AcDbEntity
8
0
100
AcDbPolyline
90
12
70
1
43
0.0
10
68
20
-89.21999999999997
10
68
20
-87.048427124746155
42
-0.57082128445209657
10
67.006100000000004
20
-81.978490956966681
10
67.006100000000004
20
-70.488099065048445
42
-0.48516468408707569
10
68
20
-66.688712152522044
10
68
20
-64.479999999999976
10
62
20
-64.479999999999976
10
62
20
-66.688712152522058
42
-0.48516468408707569
10
62.993899999999996
20
-70.488099065048431
10
62.993899999999996
20
-81.978490956966681
42
-0.57082128445209657
10
62
20
-87.048427124746155
10
62
20
-89.21999999999997
0
CIRCLE
5
174
100
AcDbEntity
8
0
100
AcDbCircle
10
69
20
-84.21999999999997
30
0
40
1.9938999999999929
210
0
220
0
230
1
0
LWPOLYLINE
5
175
100
AcDbEntity
8
0
100
AcDbPolyline
90
12
70
1
43
0.0
10
35.006100000000011
20
-70.488099065048431
10
35.006100000000011
20
-81.978490956966681
42
0.57082128445209657
10
36.000000000000007
20
-87.048427124746155
10
36.000000000000007
20
-89.21999999999997
10
30
20
-89.21999999999997
10
30
20
-87.048427124746155
42
0.57082128445209657
10
30.993899999999996
20
-81.978490956966681
10
30.993899999999996
20
-70.488099065048431
42
0.48516468408707569
10
30
20
-66.688712152522044
10
30
20
-64.479999999999976
10
36.000000000000007
20
-64.479999999999976
10
36.000000000000007
20
-66.688712152522044
42
0.48516468408707569
0
LWPOLYLINE
5
176
100
AcDbEntity
8
0
100
AcDbPolyline
90
12
70
1
43
0.0
10
52
20
-89.21999999999997
10
52
20
-87.048427124746155
42
-0.57082128445209568
10
51.006100000000018
20
-81.978490956966681
10
51.006099999999996
20
-70.488099065048445
42
-0.48516468408707475
10
52
20
-66.688712152522044
10
52
20
-64.479999999999976
10
46.000000000000007
20
-64.479999999999976
10
46
20
-66.688712152522072
42
-0.48516468408707475
10
46.993899999999996
20
-70.488099065048431
10
46.993899999999996
20
-81.978490956966681
42
-0.57082128445209568
10
46.000000000000007
20
-87.048427124746155
10
46.000000000000007
20
-89.21999999999997
0
LWPOLYLINE
5
177
100
AcDbEntity
8
0
100
AcDbPolyline
90
12
70
1
43
0.0
10
22.993899999999996
20
-70.488099065048431
10
22.993899999999993
20
-81.978490956966681
42
-0.57082128445209657
10
22
20
-87.048427124746155
10
22
20
-89.21999999999997
10
28.000000000000007
20
-89.21999999999997
10
28.000000000000004
20
-87.048427124746155
42
-0.57082128445209657
10
27.006100000000011
20
-81.978490956966681
10
27.006100000000004
20
-70.488099065048445
42
-0.48516468408707569
10
28.000000000000007
20
-66.688712152522044
10
28.000000000000007
20
-64.479999999999976
10
22.000000000000011
20
-64.479999999999976
10
22.000000000000007
20
-66.688712152522072
42
-0.48516468408707475
0
CIRCLE
5
178
100
AcDbEntity
8
0
100
AcDbCircle
10
53.000000000000007
20
-84.21999999999997
30
0
40
1.9938999999999929
210
0
220
0
230
1
0
LWPOLYLINE
5
179
100
AcDbEntity
8
0
100
AcDbPolyline
90
12
70
1
43
0.0
10
70.993899999999996
20
-81.978490956966681
42
-0.57082128445209657
10
70
20
-87.048427124746155
10
70
20
-89.21999999999997
10
76
20
-89.21999999999997
10
76
20
-87.048427124746155
42
-0.57082128445209657
10
75.006100000000004
20
-81.978490956966681
10
75.006100000000004
20
-70.488099065048431
42
-0.48516468408707669
10
76.000000000000014
20
-66.688712152522044
10
76.000000000000014
20
-64.479999999999976
10
70.000000000000014
20
-64.479999999999976
10
70.000000000000014
20
-66.688712152522072
42
-0.48516468408707369
10
70.993899999999996
20
-70.488099065048431
0
LWPOLYLINE
5
180
100
AcDbEntity
8
0
100
AcDbPolyline
90
12
70
1
43
0.0
10
12.000000000000004
20
-89.21999999999997
10
12.000000000000002
20
-87.048427124746155
42
-0.57082128445209634
10
11.006100000000011
20
-81.978490956966681
10
11.006100000000004
20
-70.488099065048445
42
-0.48516468408707647
10
12.000000000000012
20
-66.688712152522044
10
12.000000000000012
20
-64.479999999999976
10
6.000000000000016
20
-64.479999999999976
10
6.0000000000000071
20
-66.688712152522072
42
-0.48516468408707369
10
6.9938999999999947
20
-70.488099065048431
10
6.9938999999999938
20
-81.978490956966695
42
-0.57082128445209623
10
6.0000000000000018
20
-87.048427124746155
10
6.0000000000000018
20
-89.21999999999997
0
LWPOLYLINE
5
181
100
AcDbEntity
8
0
100
AcDbPolyline
90
12
70
1
43
0.0
10
14.000000000000004
20
-87.048427124746155
10
14.000000000000004
20
-89.21999999999997
10
20
20
-89.21999999999997
10
20
20
-87.048427124746155
42
-0.57082128445209568
10
19.006100000000011
20
-81.978490956966681
10
19.0061
20
-70.488099065048445
42
-0.48516468408707475
10
20
20
-66.688712152522044
10
20
20
-64.479999999999976
10
14.000000000000005
20
-64.479999999999976
10
14
20
-66.688712152522072
42
-0.48516468408707497
10
14.993899999999996
20
-70.488099065048431
10
14.993899999999993
20
-81.978490956966695
42
-0.57082128445209623
0
CIRCLE
5
182
100
AcDbEntity
8
0
100
AcDbCircle
10
5.0000000000000018
20
-68.979999999999976
30
0
40
1.524
210
0
220
0
230
1
0
CIRCLE
5
183
100
AcDbEntity
8
0
100
AcDbCircle
10
53.000000000000007
20
-68.979999999999976
30
0
40
1.524
210
0
220
0
230
1
0
CIRCLE
5
184
100
AcDbEntity
8
0
100
AcDbCircle
10
5.0000000000000018
20
-84.21999999999997
30
0
40
1.9938999999999929
210
0
220
0
230
1
0
CIRCLE
5
185
100
AcDbEntity
8
0
100
AcDbCircle
10
85
20
-68.979999999999976
30
0
40
1.524
210
0
220
0
230
1
0
LWPOLYLINE
5
186
100
AcDbEntity
8
0
100
AcDbPolyline
90
12
70
1
43
0.0
10
92.000000000000014
20
-64.479999999999976
10
86.000000000000014
20
-64.479999999999976
10
86.000000000000014
20
-66.688712152522044
42
-0.48516468408707236
10
86.993900000000011
20
-70.488099065048431
10
86.993900000000011
20
-81.978490956966695
42
-0.57082128445209335
10
86.000000000000014
20
-87.048427124746155
10
86.000000000000014
20
-89.21999999999997
10
92.000000000000014
20
-89.21999999999997
10
92.000000000000014
20
-87.048427124746155
42
-0.57082128445209657
10
91.006100000000018
20
-81.978490956966681
10
91.006100000000018
20
-70.488099065048445
42
-0.48516468408707569
10
92.000000000000014
20
-66.688712152522044
0
CIRCLE
5
187
100
AcDbEntity
8
0
100
AcDbCircle
10
45
20
-84.21999999999997
30
0
40
1.9938999999999929
210
0
220
0
230
1
0
CIRCLE
5
188
100
AcDbEntity
8
0
100
AcDbCircle
10
21.000000000000007
20
-68.979999999999976
30
0
40
1.524
210
0
220
0
230
1
0
CIRCLE
5
189
100
AcDbEntity
8
0
100
AcDbCircle
10
13.000000000000004
20
-84.21999999999997
30
0
40
1.9938999999999929
210
0
220
0
230
1
0
CIRCLE
5
190
100
AcDbEntity
8
0
100
AcDbCircle
10
61.000000000000007
20
-84.21999999999997
30
0
40
1.9938999999999929
210
0
220
0
230
1
0
LWPOLYLINE
5
191
100
AcDbEntity
8
0
100
AcDbPolyline
90
13
70
1
43
0.0
10
83.006100000000004
20
-70.488099065048445
42
-0.48516468408707569
10
84
20
-66.688712152522044
10
84
20
-64.479999999999976
10
78.397501408028432
20
-64.479999999999976
10
78
20
-64.479999999999976
10
78
20
-66.688712152522072
42
-0.48516468408707475
10
78.993899999999996
20
-70.488099065048431
10
78.993899999999996
20
-81.978490956966681
42
-0.57082128445209568
10
78
20
-87.048427124746155
10
78
20
-89.21999999999997
10
84
20
-89.21999999999997
10
84
20
-87.048427124746155
42
-0.57082128445209657
10
83.006100000000004
20
-81.978490956966681
0
CIRCLE
5
192
100
AcDbEntity
8
0
100
AcDbCircle
10
77
20
-68.979999999999976
30
0
40
1.524
210
0
220
0
230
1
0
CIRCLE
5
193
100
AcDbEntity
8
0
100
AcDbCircle
10
37
20
-68.979999999999976
30
0
40
1.524
210
0
220
0
230
1
0
CIRCLE
5
194
100
AcDbEntity
8
0
100
AcDbCircle
10
37
20
-84.21999999999997
30
0
40
1.9938999999999929
210
0
220
0
230
1
0
CIRCLE
5
195
100
AcDbEntity
8
0
100
AcDbCircle
10
93
20
-68.979999999999976
30
0
40
1.524
210
0
220
0
230
1
0
CIRCLE
5
196
100
AcDbEntity
8
0
100
AcDbCircle
10
69
20
-68.979999999999976
30
0
40
1.524
210
0
220
0
230
1
0
CIRCLE
5
197
100
AcDbEntity
8
0
100
AcDbCircle
10
45
20
-68.979999999999976
30
0
40
1.524
210
0
220
0
230
1
0
CIRCLE
5
198
100
AcDbEntity
8
0
100
AcDbCircle
10
61.000000000000007
20
-68.979999999999976
30
0
40
1.524
210
0
220
0
230
1
0
CIRCLE
5
199
100
AcDbEntity
8
0
100
AcDbCircle
10
77
20
-84.21999999999997
30
0
40
1.9938999999999929
210
0
220
0
230
1
0
CIRCLE
5
200
100
AcDbEntity
8
0
100
AcDbCircle
10
93
20
-84.21999999999997
30
0
40
1.9938999999999929
210
0
220
0
230
1
0
CIRCLE
5
201
100
AcDbEntity
8
0
100
AcDbCircle
10
85
20
-84.21999999999997
30
0
40
1.9938999999999929
210
0
220
0
230
1
0
CIRCLE
5
202
100
AcDbEntity
8
0
100
AcDbCircle
10
29.000000000000004
20
-68.979999999999976
30
0
40
1.524
210
0
220
0
230
1
0
CIRCLE
5
203
100
AcDbEntity
8
0
100
AcDbCircle
10
21.000000000000007
20
-84.21999999999997
30
0
40
1.9938999999999929
210
0
220
0
230
1
0
CIRCLE
5
204
100
AcDbEntity
8
0
100
AcDbCircle
10
13.000000000000004
20
-68.979999999999976
30
0
40
1.524
210
0
220
0
230
1
0
CIRCLE
5
205
100
AcDbEntity
8
0
100
AcDbCircle
10
29.000000000000004
20
-84.21999999999997
30
0
40
1.9938999999999929
210
0
220
0
230
1
0
ENDSEC
0
SECTION
2
OBJECTS
0
DICTIONARY
5
C
100
AcDbDictionary
3
ACAD_GROUP
350
D
3
ACAD_MLINESTYLE
350
17
0
DICTIONARY
5
D
100
AcDbDictionary
0
DICTIONARY
5
1A
330
C
100
AcDbDictionary
0
DICTIONARY
5
17
100
AcDbDictionary
0
ENDSEC
0
EOF
