0
SECTION
2
HEADER
9
$INSUNITS
70
4
9
$ACADVER
1
AC1014
9
$HANDSEED
5
FFFF
0
ENDSEC
0
SECTION
2
TABLES
0
TABLE
2
VPORT
5
8
100
AcDbSymbolTable
0
ENDTAB
0
TABLE
2
LTYPE
5
5
100
AcDbSymbolTable
0
LTYPE
5
14
100
AcDbSymbolTableRecord
100
AcDbLinetypeTableRecord
2
BYBLOCK
70
0
0
LTYPE
5
15
100
AcDbSymbolTableRecord
100
AcDbLinetypeTableRecord
2
BYLAYER
70
0
0
ENDTAB
0
TABLE
2
LAYER
5
2
100
AcDbSymbolTable
70
2
0
LAYER
5
50
100
AcDbSymbolTableRecord
100
AcDbLayerTableRecord
2
0
70
0
6
CONTINUOUS
0
ENDTAB
0
TABLE
2
STYLE
5
3
100
AcDbSymbolTable
70
1
0
STYLE
5
11
100
AcDbSymbolTableRecord
100
AcDbTextStyleTableRecord
2
STANDARD
70
0
0
ENDTAB
0
TABLE
2
VIEW
5
6
100
AcDbSymbolTable
70
0
0
ENDTAB
0
TABLE
2
UCS
5
7
100
AcDbSymbolTable
70
0
0
ENDTAB
0
TABLE
2
APPID
5
9
100
AcDbSymbolTable
70
2
0
APPID
5
12
100
AcDbSymbolTableRecord
100
AcDbRegAppTableRecord
2
ACAD
70
0
0
ENDTAB
0
TABLE
2
DIMSTYLE
5
A
100
AcDbSymbolTable
70
1
0
ENDTAB
0
TABLE
2
BLOCK_RECORD
5
1
100
AcDbSymbolTable
70
1
0
BLOCK_RECORD
5
1F
100
AcDbSymbolTableRecord
100
AcDbBlockTableRecord
2
*MODEL_SPACE
0
BLOCK_RECORD
5
1B
100
AcDbSymbolTableRecord
100
AcDbBlockTableRecord
2
*PAPER_SPACE
0
ENDTAB
0
ENDSEC
0
SECTION
2
BLOCKS
0
BLOCK
5
20
100
AcDbEntity
100
AcDbBlockBegin
2
*MODEL_SPACE
0
ENDBLK
5
21
100
AcDbEntity
100
AcDbBlockEnd
0
BLOCK
5
1C
100
AcDbEntity
100
AcDbBlockBegin
2
*PAPER_SPACE
0
ENDBLK
5
1D
100
AcDbEntity
100
AcDbBlockEnd
0
ENDSEC
0
SECTION
2
ENTITIES
0
LWPOLYLINE
5
100
100
AcDbEntity
8
0
100
AcDbPolyline
90
12
70
1
43
0.0
10
6.0000000000000142
20
-5.2087121525220716
10
6.0000000000000142
20
-2.9999999999999982
10
12.000000000000011
20
-2.9999999999999982
10
12.000000000000011
20
-5.2087121525220716
42
0.48516468408707691
10
11.006100000000007
20
-9.0080990650484551
10
11.006100000000007
20
-20.498490956966705
42
0.57082128445209657
10
12.000000000000002
20
-25.568427124746187
10
12.000000000000002
20
-27.739999999999991
10
6
20
-27.739999999999991
10
6
20
-25.568427124746187
42
0.57082128445209634
10
6.9938999999999929
20
-20.498490956966705
10
6.9938999999999929
20
-9.0080990650484551
42
0.48516468408707419
0
LWPOLYLINE
5
101
100
AcDbEntity
8
0
100
AcDbPolyline
90
52
70
1
43
0.0
10
98
20
0
10
98
20
-2.9999999999999982
10
94
20
-2.9999999999999982
10
94
20
-5.2087121525220699
42
-0.48516468408707619
10
94.993899999999996
20
-9.0080990650484551
10
94.993899999999996
20
-20.498490956966705
42
-0.5708212844520969
10
94
20
-25.568427124746187
10
94
20
-27.739999999999991
10
98
20
-27.739999999999991
10
98
20
-33.739999999999988
10
94
20
-33.739999999999988
10
94
20
-35.948712152522063
42
-0.48516468408707608
10
94.993899999999996
20
-39.748099065048443
10
94.993899999999996
20
-51.238490956966707
42
-0.57082128445209657
10
94
20
-56.308427124746174
10
94
20
-58.479999999999983
10
98
20
-58.479999999999983
10
98
20
-64.479999999999976
10
94
20
-64.479999999999976
10
93.999999999999986
20
-66.688712152522058
42
-0.48516468408707569
10
94.993899999999996
20
-70.488099065048431
10
94.993899999999996
20
-81.978490956966681
42
-0.57082128445209657
10
94
20
-87.048427124746155
10
94
20
-89.21999999999997
10
98
20
-89.21999999999997
10
98
20
-92.21999999999997
10
3.3306690738754696e-15
20
-92.21999999999997
10
2.7755575615628914e-15
20
-89.21999999999997
10
4.0000000000000027
20
-89.21999999999997
10
4.0000000000000027
20
-87.048427124746155
42
-0.57082128445209623
10
3.0061000000000093
20
-81.978490956966681
10
3.0060999999999991
20
-70.488099065048445
42
-0.48516468408707569
10
4.0000000000000053
20
-66.688712152522044
10
4.0000000000000053
20
-64.479999999999976
10
2.2204460492503131e-15
20
-64.479999999999976
10
1.6653345369377348e-15
20
-58.479999999999983
10
4.0000000000000018
20
-58.479999999999983
10
4
20
-56.308427124746181
42
-0.57082128445209623
10
3.006100000000008
20
-51.2384909569667
10
3.0061000000000062
20
-39.74809906504845
42
-0.4851646840870763
10
4.0000000000000044
20
-35.948712152522056
10
4.0000000000000044
20
-33.739999999999988
10
1.1102230246251565e-15
20
-33.739999999999988
10
5.5511151231257827e-16
20
-27.739999999999991
10
4
20
-27.739999999999991
10
4
20
-25.568427124746187
42
-0.57082128445209634
10
3.0061000000000071
20
-20.498490956966705
10
3.0061000000000067
20
-9.0080990650484569
42
-0.48516468408707625
10
4.0000000000000036
20
-5.2087121525220699
10
4.0000000000000036
20
-2.9999999999999982
10
0
20
-2.9999999999999982
10
0
20
0
0
LWPOLYLINE
5
102
100
AcDbEntity
8
0
100
AcDbPolyline
90
12
70
1
43
0.0
10
14.000000000000004
20
-5.2087121525220716
10
14.000000000000004
20
-2.9999999999999982
10
20
20
-2.9999999999999982
10
20
20
-5.2087121525220699
42
0.48516468408707503
10
19.006100000000011
20
-9.0080990650484551
10
19.006100000000011
20
-20.498490956966705
42
0.57082128445209568
10
20
20
-25.568427124746187
10
20
20
-27.739999999999991
10
14.000000000000002
20
-27.739999999999991
10
14.000000000000002
20
-25.568427124746187
42
0.57082128445209634
10
14.993899999999993
20
-20.498490956966705
10
14.993899999999993
20
-9.0080990650484551
42
0.48516468408707542
0
LWPOLYLINE
5
103
100
AcDbEntity
8
0
100
AcDbPolyline
90
12
70
1
43
0.0
10
22.000000000000011
20
-5.2087121525220716
10
22.000000000000011
20
-2.9999999999999982
10
28.000000000000007
20
-2.9999999999999982
10
28.000000000000007
20
-5.2087121525220716
42
0.48516468408707619
10
27.006100000000011
20
-9.0080990650484551
10
27.006100000000011
20
-20.498490956966705
42
0.57082128445209634
10
28.000000000000004
20
-25.568427124746187
10
28.000000000000004
20
-27.739999999999991
10
22
20
-27.739999999999991
10
22
20
-25.568427124746187
42
0.5708212844520969
10
22.993899999999996
20
-20.498490956966705
10
22.993899999999996
20
-9.0080990650484551
42
0.48516468408707514
0
LWPOLYLINE
5
104
100
AcDbEntity
8
0
100
AcDbPolyline
90
12
70
1
43
0.0
10
30
20
-5.2087121525220716
10
30
20
-2.9999999999999982
10
36.000000000000007
20
-2.9999999999999982
10
36.000000000000007
20
-5.2087121525220716
42
0.48516468408707619
10
35.006100000000011
20
-9.0080990650484551
10
35.006100000000011
20
-20.498490956966705
42
0.57082128445209634
10
36
20
-25.568427124746187
10
36
20
-27.739999999999991
10
30
20
-27.739999999999991
10
30
20
-25.568427124746187
42
0.5708212844520969
10
30.993899999999996
20
-20.498490956966705
10
30.993899999999996
20
-9.0080990650484551
42
0.48516468408707619
0
LWPOLYLINE
5
105
100
AcDbEntity
8
0
100
AcDbPolyline
90
12
70
1
43
0.0
10
38.000000000000014
20
-5.2087121525220716
10
38.000000000000014
20
-2.9999999999999982
10
44.000000000000014
20
-2.9999999999999982
10
44.000000000000014
20
-5.2087121525220716
42
0.48516468408707719
10
43.006100000000004
20
-9.0080990650484551
10
43.006100000000004
20
-20.498490956966705
42
0.5708212844520969
10
44
20
-25.568427124746187
10
44
20
-27.739999999999991
10
38
20
-27.739999999999991
10
38
20
-25.568427124746187
42
0.57082128445209634
10
38.993899999999996
20
-20.498490956966705
10
38.993899999999996
20
-9.0080990650484551
42
0.48516468408707419
0
LWPOLYLINE
5
106
100
AcDbEntity
8
0
100
AcDbPolyline
90
12
70
1
43
0.0
10
46.000000000000007
20
-5.2087121525220716
10
46.000000000000007
20
-2.9999999999999982
10
52
20
-2.9999999999999982
10
52
20
-5.2087121525220699
42
0.48516468408707514
10
51.006100000000018
20
-9.0080990650484551
10
51.006100000000018
20
-20.498490956966705
42
0.5708212844520959
10
52
20
-25.568427124746187
10
52
20
-27.739999999999991
10
46.000000000000007
20
-27.739999999999991
10
46.000000000000007
20
-25.568427124746187
42
0.5708212844520959
10
46.993899999999996
20
-20.498490956966705
10
46.993899999999996
20
-9.0080990650484551
42
0.48516468408707514
0
LWPOLYLINE
5
107
100
AcDbEntity
8
0
100
AcDbPolyline
90
12
70
1
43
0.0
10
54.000000000000014
20
-5.2087121525220716
10
54.000000000000014
20
-2.9999999999999982
10
60.000000000000007
20
-2.9999999999999982
10
60.000000000000007
20
-5.2087121525220716
42
0.48516468408707619
10
59.006100000000011
20
-9.0080990650484551
10
59.006100000000011
20
-20.498490956966705
42
0.5708212844520959
10
60
20
-25.568427124746187
10
60
20
-27.739999999999991
10
54
20
-27.739999999999991
10
54
20
-25.568427124746187
42
0.5708212844520969
10
54.993899999999996
20
-20.498490956966705
10
54.993899999999996
20
-9.0080990650484551
42
0.48516468408707514
0
LWPOLYLINE
5
108
100
AcDbEntity
8
0
100
AcDbPolyline
90
12
70
1
43
0.0
10
62
20
-5.2087121525220716
10
62
20
-2.9999999999999982
10
68
20
-2.9999999999999982
10
68
20
-5.2087121525220716
42
0.48516468408707619
10
67.006100000000004
20
-9.0080990650484551
10
67.006100000000004
20
-20.498490956966705
42
0.5708212844520969
10
68
20
-25.568427124746187
10
68
20
-27.739999999999991
10
62
20
-27.739999999999991
10
62
20
-25.568427124746187
42
0.5708212844520969
10
62.993899999999996
20
-20.498490956966705
10
62.993899999999996
20
-9.0080990650484551
42
0.48516468408707619
0
LWPOLYLINE
5
109
100
AcDbEntity
8
0
100
AcDbPolyline
90
12
70
1
43
0.0
10
70.000000000000014
20
-5.2087121525220716
10
70.000000000000014
20
-2.9999999999999982
10
76.000000000000014
20
-2.9999999999999982
10
76.000000000000014
20
-5.2087121525220716
42
0.48516468408707719
10
75.006100000000004
20
-9.0080990650484551
10
75.006100000000004
20
-20.498490956966705
42
0.5708212844520969
10
76
20
-25.568427124746187
10
76
20
-27.739999999999991
10
70
20
-27.739999999999991
10
70
20
-25.568427124746187
42
0.5708212844520969
10
70.993899999999996
20
-20.498490956966705
10
70.993899999999996
20
-9.0080990650484551
42
0.48516468408707419
0
LWPOLYLINE
5
110
100
AcDbEntity
8
0
100
AcDbPolyline
90
13
70
1
43
0.0
10
78
20
-5.2087121525220716
10
78
20
-2.9999999999999982
10
78.397501408028432
20
-2.9999999999999982
10
84
20
-2.9999999999999982
10
84
20
-5.2087121525220716
42
0.48516468408707619
10
83.006100000000004
20
-9.0080990650484551
10
83.006100000000004
20
-20.498490956966705
42
0.5708212844520969
10
84
20
-25.568427124746187
10
84
20
-27.739999999999991
10
78
20
-27.739999999999991
10
78
20
-25.568427124746187
42
0.5708212844520959
10
78.993899999999996
20
-20.498490956966705
10
78.993899999999996
20
-9.0080990650484551
42
0.48516468408707514
0
LWPOLYLINE
5
111
100
AcDbEntity
8
0
100
AcDbPolyline
90
12
70
1
43
0.0
10
86.000000000000014
20
-5.2087121525220716
10
86.000000000000014
20
-2.9999999999999982
10
92.000000000000014
20
-2.9999999999999982
10
92.000000000000014
20
-5.2087121525220716
42
0.48516468408707619
10
91.006100000000018
20
-9.0080990650484551
10
91.006100000000018
20
-20.498490956966705
42
0.5708212844520969
10
92.000000000000014
20
-25.568427124746187
10
92.000000000000014
20
-27.739999999999991
10
86.000000000000014
20
-27.739999999999991
10
86.000000000000014
20
-25.568427124746187
42
0.57082128445209346
10
86.993900000000011
20
-20.498490956966705
10
86.993900000000011
20
-9.0080990650484551
42
0.48516468408707281
0
LWPOLYLINE
5
112
100
AcDbEntity
8
0
100
AcDbPolyline
90
12
70
1
43
0.0
10
6.0000000000000151
20
-35.948712152522063
10
6.0000000000000151
20
-33.739999999999988
10
12.000000000000011
20
-33.739999999999988
10
12.000000000000011
20
-35.948712152522063
42
0.48516468408707664
10
11.006100000000011
20
-39.748099065048443
10
11.006100000000011
20
-51.2384909569667
42
0.57082128445209623
10
12.000000000000002
20
-56.308427124746174
10
12.000000000000002
20
-58.479999999999983
10
6.0000000000000009
20
-58.479999999999983
10
6.0000000000000009
20
-56.308427124746174
42
0.57082128445209623
10
6.9938999999999938
20
-51.2384909569667
10
6.9938999999999938
20
-39.748099065048443
42
0.48516468408707414
0
LWPOLYLINE
5
113
100
AcDbEntity
8
0
100
AcDbPolyline
90
12
70
1
43
0.0
10
14.000000000000004
20
-35.948712152522063
10
14.000000000000004
20
-33.739999999999988
10
20
20
-33.739999999999988
10
20
20
-35.948712152522063
42
0.48516468408707514
10
19.006100000000011
20
-39.748099065048443
10
19.006100000000011
20
-51.2384909569667
42
0.57082128445209568
10
20
20
-56.308427124746174
10
20
20
-58.479999999999983
10
14.000000000000004
20
-58.479999999999983
10
14.000000000000004
20
-56.308427124746174
42
0.57082128445209623
10
14.993899999999996
20
-51.2384909569667
10
14.993899999999996
20
-39.748099065048443
42
0.48516468408707564
0
LWPOLYLINE
5
114
100
AcDbEntity
8
0
100
AcDbPolyline
90
12
70
1
43
0.0
10
22.000000000000011
20
-35.948712152522063
10
22.000000000000011
20
-33.739999999999988
10
28.000000000000007
20
-33.739999999999988
10
28.000000000000007
20
-35.948712152522063
42
0.48516468408707608
10
27.006100000000011
20
-39.748099065048443
10
27.006100000000011
20
-51.2384909569667
42
0.57082128445209623
10
28.000000000000004
20
-56.308427124746174
10
28.000000000000004
20
-58.479999999999983
10
22
20
-58.479999999999983
10
22
20
-56.308427124746174
42
0.57082128445209657
10
22.993899999999996
20
-51.2384909569667
10
22.993899999999996
20
-39.748099065048443
42
0.48516468408707514
0
LWPOLYLINE
5
115
100
AcDbEntity
8
0
100
AcDbPolyline
90
12
70
1
43
0.0
10
30
20
-35.948712152522063
10
30
20
-33.739999999999988
10
36.000000000000007
20
-33.739999999999988
10
36.000000000000007
20
-35.948712152522063
42
0.48516468408707608
10
35.006100000000011
20
-39.748099065048443
10
35.006100000000011
20
-51.2384909569667
42
0.57082128445209623
10
36
20
-56.308427124746174
10
36
20
-58.479999999999983
10
30
20
-58.479999999999983
10
30
20
-56.308427124746174
42
0.57082128445209657
10
30.993899999999996
20
-51.2384909569667
10
30.993899999999996
20
-39.748099065048443
42
0.48516468408707608
0
LWPOLYLINE
5
116
100
AcDbEntity
8
0
100
AcDbPolyline
90
12
70
1
43
0.0
10
38.000000000000014
20
-35.948712152522063
10
38.000000000000014
20
-33.739999999999988
10
44.000000000000014
20
-33.739999999999988
10
44.000000000000014
20
-35.948712152522063
42
0.48516468408707714
10
43.006100000000004
20
-39.748099065048443
10
43.006100000000004
20
-51.2384909569667
42
0.57082128445209657
10
44
20
-56.308427124746174
10
44
20
-58.479999999999983
10
38
20
-58.479999999999983
10
38
20
-56.308427124746174
42
0.57082128445209623
10
38.993899999999996
20
-51.2384909569667
10
38.993899999999996
20
-39.748099065048443
42
0.48516468408707414
0
LWPOLYLINE
5
117
100
AcDbEntity
8
0
100
AcDbPolyline
90
12
70
1
43
0.0
10
46.000000000000007
20
-35.948712152522063
10
46.000000000000007
20
-33.739999999999988
10
52
20
-33.739999999999988
10
52
20
-35.948712152522063
42
0.48516468408707514
10
51.006100000000018
20
-39.748099065048443
10
51.006100000000018
20
-51.2384909569667
42
0.57082128445209568
10
52
20
-56.308427124746174
10
52
20
-58.479999999999983
10
46.000000000000007
20
-58.479999999999983
10
46.000000000000007
20
-56.308427124746174
42
0.57082128445209568
10
46.993899999999996
20
-51.2384909569667
10
46.993899999999996
20
-39.748099065048443
42
0.48516468408707514
0
LWPOLYLINE
5
118
100
AcDbEntity
8
0
100
AcDbPolyline
90
12
70
1
43
0.0
10
54.000000000000014
20
-35.948712152522063
10
54.000000000000014
20
-33.739999999999988
10
60.000000000000007
20
-33.739999999999988
10
60.000000000000007
20
-35.948712152522063
42
0.48516468408707608
10
59.006100000000011
20
-39.748099065048443
10
59.006100000000011
20
-51.2384909569667
42
0.57082128445209568
10
60
20
-56.308427124746174
10
60
20
-58.479999999999983
10
54
20
-58.479999999999983
10
54
20
-56.308427124746174
42
0.57082128445209657
10
54.993899999999996
20
-51.2384909569667
10
54.993899999999996
20
-39.748099065048443
42
0.48516468408707514
0
LWPOLYLINE
5
119
100
AcDbEntity
8
0
100
AcDbPolyline
90
12
70
1
43
0.0
10
62
20
-35.948712152522063
10
62
20
-33.739999999999988
10
68
20
-33.739999999999988
10
68
20
-35.948712152522063
42
0.48516468408707608
10
67.006100000000004
20
-39.748099065048443
10
67.006100000000004
20
-51.2384909569667
42
0.57082128445209657
10
68
20
-56.308427124746174
10
68
20
-58.479999999999983
10
62
20
-58.479999999999983
10
62
20
-56.308427124746174
42
0.57082128445209657
10
62.993899999999996
20
-51.2384909569667
10
62.993899999999996
20
-39.748099065048443
42
0.48516468408707608
0
LWPOLYLINE
5
120
100
AcDbEntity
8
0
100
AcDbPolyline
90
12
70
1
43
0.0
10
70.000000000000014
20
-35.948712152522063
10
70.000000000000014
20
-33.739999999999988
10
76.000000000000014
20
-33.739999999999988
10
76.000000000000014
20
-35.948712152522063
42
0.48516468408707714
10
75.006100000000004
20
-39.748099065048443
10
75.006100000000004
20
-51.2384909569667
42
0.57082128445209657
10
76
20
-56.308427124746174
10
76
20
-58.479999999999983
10
70
20
-58.479999999999983
10
70
20
-56.308427124746174
42
0.57082128445209657
10
70.993899999999996
20
-51.2384909569667
10
70.993899999999996
20
-39.748099065048443
42
0.48516468408707414
0
LWPOLYLINE
5
121
100
AcDbEntity
8
0
100
AcDbPolyline
90
13
70
1
43
0.0
10
78
20
-35.948712152522063
10
78
20
-33.739999999999988
10
78.397501408028432
20
-33.739999999999988
10
84
20
-33.739999999999988
10
84
20
-35.948712152522063
42
0.48516468408707608
10
83.006100000000004
20
-39.748099065048443
10
83.006100000000004
20
-51.2384909569667
42
0.57082128445209657
10
84
20
-56.308427124746174
10
84
20
-58.479999999999983
10
78
20
-58.479999999999983
10
78
20
-56.308427124746174
42
0.57082128445209568
10
78.993899999999996
20
-51.2384909569667
10
78.993899999999996
20
-39.748099065048443
42
0.48516468408707514
0
LWPOLYLINE
5
122
100
AcDbEntity
8
0
100
AcDbPolyline
90
12
70
1
43
0.0
10
86.000000000000014
20
-35.948712152522063
10
86.000000000000014
20
-33.739999999999988
10
92.000000000000014
20
-33.739999999999988
10
92.000000000000014
20
-35.948712152522063
42
0.48516468408707608
10
91.006100000000018
20
-39.748099065048443
10
91.006100000000018
20
-51.2384909569667
42
0.57082128445209657
10
92.000000000000014
20
-56.308427124746174
10
92.000000000000014
20
-58.479999999999983
10
86.000000000000014
20
-58.479999999999983
10
86.000000000000014
20
-56.308427124746174
42
0.57082128445209335
10
86.993900000000011
20
-51.2384909569667
10
86.993900000000011
20
-39.748099065048443
42
0.48516468408707281
0
LWPOLYLINE
5
123
100
AcDbEntity
8
0
100
AcDbPolyline
90
12
70
1
43
0.0
10
91.006100000000018
20
-70.488099065048445
42
-0.48516468408707569
10
92.000000000000014
20
-66.688712152522044
10
92.000000000000014
20
-64.479999999999976
10
86.000000000000014
20
-64.479999999999976
10
86.000000000000014
20
-66.688712152522044
42
-0.48516468408707236
10
86.993900000000011
20
-70.488099065048431
10
86.993900000000011
20
-81.978490956966695
42
-0.57082128445209335
10
86.000000000000014
20
-87.048427124746155
10
86.000000000000014
20
-89.21999999999997
10
92.000000000000014
20
-89.21999999999997
10
92.000000000000014
20
-87.048427124746155
42
-0.57082128445209657
10
91.006100000000018
20
-81.978490956966681
0
LWPOLYLINE
5
124
100
AcDbEntity
8
0
100
AcDbPolyline
90
13
70
1
43
0.0
10
83.006100000000004
20
-70.488099065048445
42
-0.48516468408707569
10
84
20
-66.688712152522044
10
84
20
-64.479999999999976
10
78.397501408028432
20
-64.479999999999976
10
78
20
-64.479999999999976
10
78
20
-66.688712152522072
42
-0.48516468408707475
10
78.993899999999996
20
-70.488099065048431
10
78.993899999999996
20
-81.978490956966681
42
-0.57082128445209568
10
78
20
-87.048427124746155
10
78
20
-89.21999999999997
10
84
20
-89.21999999999997
10
84
20
-87.048427124746155
42
-0.57082128445209657
10
83.006100000000004
20
-81.978490956966681
0
LWPOLYLINE
5
125
100
AcDbEntity
8
0
100
AcDbPolyline
90
12
70
1
43
0.0
10
75.006100000000004
20
-70.488099065048431
42
-0.48516468408707669
10
76.000000000000014
20
-66.688712152522044
10
76.000000000000014
20
-64.479999999999976
10
70.000000000000014
20
-64.479999999999976
10
70.000000000000014
20
-66.688712152522072
42
-0.48516468408707369
10
70.993899999999996
20
-70.488099065048431
10
70.993899999999996
20
-81.978490956966681
42
-0.57082128445209657
10
70
20
-87.048427124746155
10
70
20
-89.21999999999997
10
76
20
-89.21999999999997
10
76
20
-87.048427124746155
42
-0.57082128445209657
10
75.006100000000004
20
-81.978490956966681
0
LWPOLYLINE
5
126
100
AcDbEntity
8
0
100
AcDbPolyline
90
12
70
1
43
0.0
10
67.006100000000004
20
-70.488099065048445
42
-0.48516468408707569
10
68
20
-66.688712152522044
10
68
20
-64.479999999999976
10
62
20
-64.479999999999976
10
62
20
-66.688712152522058
42
-0.48516468408707569
10
62.993899999999996
20
-70.488099065048431
10
62.993899999999996
20
-81.978490956966681
42
-0.57082128445209657
10
62
20
-87.048427124746155
10
62
20
-89.21999999999997
10
68
20
-89.21999999999997
10
68
20
-87.048427124746155
42
-0.57082128445209657
10
67.006100000000004
20
-81.978490956966681
0
LWPOLYLINE
5
127
100
AcDbEntity
8
0
100
AcDbPolyline
90
12
70
1
43
0.0
10
59.006100000000004
20
-70.488099065048445
42
-0.48516468408707569
10
60.000000000000007
20
-66.688712152522044
10
60.000000000000007
20
-64.479999999999976
10
54.000000000000014
20
-64.479999999999976
10
54
20
-66.688712152522072
42
-0.48516468408707475
10
54.993899999999996
20
-70.488099065048431
10
54.993899999999996
20
-81.978490956966681
42
-0.57082128445209657
10
54
20
-87.048427124746155
10
54
20
-89.21999999999997
10
60
20
-89.21999999999997
10
60
20
-87.048427124746155
42
-0.57082128445209568
10
59.006100000000011
20
-81.978490956966681
0
LWPOLYLINE
5
128
100
AcDbEntity
8
0
100
AcDbPolyline
90
12
70
1
43
0.0
10
51.006099999999996
20
-70.488099065048445
42
-0.48516468408707475
10
52
20
-66.688712152522044
10
52
20
-64.479999999999976
10
46.000000000000007
20
-64.479999999999976
10
46
20
-66.688712152522072
42
-0.48516468408707475
10
46.993899999999996
20
-70.488099065048431
10
46.993899999999996
20
-81.978490956966681
42
-0.57082128445209568
10
46.000000000000007
20
-87.048427124746155
10
46.000000000000007
20
-89.21999999999997
10
52
20
-89.21999999999997
10
52
20
-87.048427124746155
42
-0.57082128445209568
10
51.006100000000018
20
-81.978490956966681
0
LWPOLYLINE
5
129
100
AcDbEntity
8
0
100
AcDbPolyline
90
12
70
1
43
0.0
10
43.006099999999996
20
-70.488099065048431
42
-0.48516468408707669
10
44.000000000000014
20
-66.688712152522044
10
44.000000000000014
20
-64.479999999999976
10
38.000000000000014
20
-64.479999999999976
10
38.000000000000007
20
-66.688712152522072
42
-0.48516468408707369
10
38.993899999999996
20
-70.488099065048431
10
38.993899999999996
20
-81.978490956966681
42
-0.57082128445209568
10
38.000000000000007
20
-87.048427124746155
10
38.000000000000007
20
-89.21999999999997
10
44
20
-89.21999999999997
10
44
20
-87.048427124746155
42
-0.57082128445209657
10
43.006100000000004
20
-81.978490956966681
0
LWPOLYLINE
5
130
100
AcDbEntity
8
0
100
AcDbPolyline
90
12
70
1
43
0.0
10
35.006100000000004
20
-70.488099065048445
42
-0.48516468408707569
10
36.000000000000007
20
-66.688712152522044
10
36.000000000000007
20
-64.479999999999976
10
30
20
-64.479999999999976
10
29.999999999999996
20
-66.688712152522058
42
-0.48516468408707569
10
30.993899999999996
20
-70.488099065048431
10
30.993899999999993
20
-81.978490956966681
42
-0.57082128445209657
10
30
20
-87.048427124746155
10
30
20
-89.21999999999997
10
36.000000000000007
20
-89.21999999999997
10
36
20
-87.048427124746155
42
-0.57082128445209657
10
35.006100000000011
20
-81.978490956966681
0
LWPOLYLINE
5
131
100
AcDbEntity
8
0
100
AcDbPolyline
90
12
70
1
43
0.0
10
27.006100000000004
20
-70.488099065048445
42
-0.48516468408707569
10
28.000000000000007
20
-66.688712152522044
10
28.000000000000007
20
-64.479999999999976
10
22.000000000000011
20
-64.479999999999976
10
22.000000000000007
20
-66.688712152522072
42
-0.48516468408707475
10
22.993899999999996
20
-70.488099065048431
10
22.993899999999993
20
-81.978490956966681
42
-0.57082128445209657
10
22
20
-87.048427124746155
10
22
20
-89.21999999999997
10
28.000000000000007
20
-89.21999999999997
10
28.000000000000004
20
-87.048427124746155
42
-0.57082128445209657
10
27.006100000000011
20
-81.978490956966681
0
LWPOLYLINE
5
132
100
AcDbEntity
8
0
100
AcDbPolyline
90
12
70
1
43
0.0
10
19.0061
20
-70.488099065048445
42
-0.48516468408707475
10
20
20
-66.688712152522044
10
20
20
-64.479999999999976
10
14.000000000000005
20
-64.479999999999976
10
14
20
-66.688712152522072
42
-0.48516468408707497
10
14.993899999999996
20
-70.488099065048431
10
14.993899999999993
20
-81.978490956966695
42
-0.57082128445209623
10
14.000000000000004
20
-87.048427124746155
10
14.000000000000004
20
-89.21999999999997
10
20
20
-89.21999999999997
10
20
20
-87.048427124746155
42
-0.57082128445209568
10
19.006100000000011
20
-81.978490956966681
0
LWPOLYLINE
5
133
100
AcDbEntity
8
0
100
AcDbPolyline
90
12
70
1
43
0.0
10
11.006100000000004
20
-70.488099065048445
42
-0.48516468408707647
10
12.000000000000012
20
-66.688712152522044
10
12.000000000000012
20
-64.479999999999976
10
6.000000000000016
20
-64.479999999999976
10
6.0000000000000071
20
-66.688712152522072
42
-0.48516468408707369
10
6.9938999999999947
20
-70.488099065048431
10
6.9938999999999938
20
-81.978490956966695
42
-0.57082128445209623
10
6.0000000000000018
20
-87.048427124746155
10
6.0000000000000018
20
-89.21999999999997
10
12.000000000000004
20
-89.21999999999997
10
12.000000000000002
20
-87.048427124746155
42
-0.57082128445209634
10
11.006100000000011
20
-81.978490956966681
0
ENDSEC
0
SECTION
2
OBJECTS
0
DICTIONARY
5
C
100
AcDbDictionary
3
ACAD_GROUP
350
D
3
ACAD_MLINESTYLE
350
17
0
DICTIONARY
5
D
100
AcDbDictionary
0
DICTIONARY
5
1A
330
C
100
AcDbDictionary
0
DICTIONARY
5
17
100
AcDbDictionary
0
ENDSEC
0
EOF
