0
SECTION
2
HEADER
9
$INSUNITS
70
4
9
$ACADVER
1
AC1014
9
$HANDSEED
5
FFFF
0
ENDSEC
0
SECTION
2
TABLES
0
TABLE
2
VPORT
5
8
100
AcDbSymbolTable
0
ENDTAB
0
TABLE
2
LTYPE
5
5
100
AcDbSymbolTable
0
LTYPE
5
14
100
AcDbSymbolTableRecord
100
AcDbLinetypeTableRecord
2
BYBLOCK
70
0
0
LTYPE
5
15
100
AcDbSymbolTableRecord
100
AcDbLinetypeTableRecord
2
BYLAYER
70
0
0
ENDTAB
0
TABLE
2
LAYER
5
2
100
AcDbSymbolTable
70
2
0
LAYER
5
50
100
AcDbSymbolTableRecord
100
AcDbLayerTableRecord
2
0
70
0
6
CONTINUOUS
0
ENDTAB
0
TABLE
2
STYLE
5
3
100
AcDbSymbolTable
70
1
0
STYLE
5
11
100
AcDbSymbolTableRecord
100
AcDbTextStyleTableRecord
2
STANDARD
70
0
0
ENDTAB
0
TABLE
2
VIEW
5
6
100
AcDbSymbolTable
70
0
0
ENDTAB
0
TABLE
2
UCS
5
7
100
AcDbSymbolTable
70
0
0
ENDTAB
0
TABLE
2
APPID
5
9
100
AcDbSymbolTable
70
2
0
APPID
5
12
100
AcDbSymbolTableRecord
100
AcDbRegAppTableRecord
2
ACAD
70
0
0
ENDTAB
0
TABLE
2
DIMSTYLE
5
A
100
AcDbSymbolTable
70
1
0
ENDTAB
0
TABLE
2
BLOCK_RECORD
5
1
100
AcDbSymbolTable
70
1
0
BLOCK_RECORD
5
1F
100
AcDbSymbolTableRecord
100
AcDbBlockTableRecord
2
*MODEL_SPACE
0
BLOCK_RECORD
5
1B
100
AcDbSymbolTableRecord
100
AcDbBlockTableRecord
2
*PAPER_SPACE
0
ENDTAB
0
ENDSEC
0
SECTION
2
BLOCKS
0
BLOCK
5
20
100
AcDbEntity
100
AcDbBlockBegin
2
*MODEL_SPACE
0
ENDBLK
5
21
100
AcDbEntity
100
AcDbBlockEnd
0
BLOCK
5
1C
100
AcDbEntity
100
AcDbBlockBegin
2
*PAPER_SPACE
0
ENDBLK
5
1D
100
AcDbEntity
100
AcDbBlockEnd
0
ENDSEC
0
SECTION
2
ENTITIES
0
ARC
5
100
100
AcDbEntity
8
0
100
AcDbCircle
10
-869.63564706
20
887.12676778000002
30
0
40
0.015875000000136197
210
0
220
0
230
1
100
AcDbArc
50
90.000000001230944
51
270.28648265015119
0
LINE
5
101
100
AcDbEntity
8
0
100
AcDbLine
10
-869.63564706000034
20
887.14264278000019
30
0
11
-869.63564706
21
890.2859029399998
31
0
0
ARC
5
102
100
AcDbEntity
8
0
100
AcDbCircle
10
-869.63564706
20
890.30177793999997
30
0
40
0.01587500000018726
210
0
220
0
230
1
100
AcDbArc
50
90.572991534932001
51
270
0
ARC
5
103
100
AcDbEntity
8
0
100
AcDbCircle
10
-870.42939739850328
20
890.30177760149672
30
0
40
0.79375033850335108
210
0
220
-0
230
1
100
AcDbArc
50
1.1459586354053142
51
88.854041364602651
0
ARC
5
104
100
AcDbEntity
8
0
100
AcDbCircle
10
-870.42939705999993
20
891.09552794000001
30
0
40
0.015874999999994088
210
0
220
0
230
1
100
AcDbArc
50
180
51
359.42700846506006
0
LINE
5
105
100
AcDbEntity
8
0
100
AcDbLine
10
-870.44527205999998
20
891.09552794000001
30
0
11
-879.14478983999993
21
891.09552794000001
31
0
0
ARC
5
106
100
AcDbEntity
8
0
100
AcDbCircle
10
-879.16066483999998
20
891.09552794000001
30
0
40
0.015875000000045159
210
0
220
0
230
1
100
AcDbArc
50
-179.42700846506392
51
0
0
ARC
5
107
100
AcDbEntity
8
0
100
AcDbCircle
10
-879.16066450149674
20
890.30177760149672
30
0
40
0.79375033850334831
210
0
220
0
230
1
100
AcDbArc
50
91.145958635397349
51
178.85404136460298
0
ARC
5
108
100
AcDbEntity
8
0
100
AcDbCircle
10
-879.95441484000003
20
890.30177793999997
30
0
40
0.015874999999994088
210
0
220
0
230
1
100
AcDbArc
50
-90
51
89.427008465063892
0
LINE
5
109
100
AcDbEntity
8
0
100
AcDbLine
10
-879.95441484000003
20
890.28590293999991
30
0
11
-879.95441484000003
21
887.14264277999985
31
0
0
ARC
5
110
100
AcDbEntity
8
0
100
AcDbCircle
10
-879.95441484000003
20
887.12676777999991
30
0
40
0.015875000000055994
210
0
220
0
230
1
100
AcDbArc
50
-90.28648264933264
51
90
0
ARC
5
111
100
AcDbEntity
8
0
100
AcDbCircle
10
-881.54191746401591
20
887.12676786401403
30
0
40
1.5875026240160193
210
0
220
0
230
1
100
AcDbArc
50
270.80205749742248
51
359.42703773236047
0
ARC
5
112
100
AcDbEntity
8
0
100
AcDbCircle
10
-881.54191992000005
20
885.53926524000008
30
0
40
0.022225000000020145
210
0
220
0
230
1
100
AcDbArc
50
-180
51
0.40098442801491263
0
LINE
5
113
100
AcDbEntity
8
0
100
AcDbLine
10
-881.5641449200001
20
885.53926524000019
30
0
11
-890.64783769999985
21
885.53926524000019
31
0
0
ARC
5
114
100
AcDbEntity
8
0
100
AcDbCircle
10
-890.6700626999999
20
885.53926523999974
30
0
40
0.022225000000018081
210
0
220
0
230
1
100
AcDbArc
50
-179.73267101347798
51
0
0
ARC
5
115
100
AcDbEntity
8
0
100
AcDbCircle
10
-890.67006485948855
20
883.15801231948944
30
0
40
2.3812529205115216
210
0
220
0
230
1
100
AcDbArc
50
90.534709934056522
51
179.61807985758239
0
ARC
5
116
100
AcDbEntity
8
0
100
AcDbCircle
10
-893.05131777999986
20
883.15801016000012
30
0
40
0.015874999999994088
210
0
220
0
230
1
100
AcDbArc
50
-90
51
89.809065905703505
0
LINE
5
117
100
AcDbEntity
8
0
100
AcDbLine
10
-893.05131777999986
20
883.14213516000007
30
0
11
-893.05131777999986
21
795.86120989999995
31
0
0
ARC
5
118
100
AcDbEntity
8
0
100
AcDbCircle
10
-893.05131777999986
20
795.84533743999998
30
0
40
0.015874999999967346
210
0
220
0
230
1
100
AcDbArc
50
-89.809065905294574
51
90
0
ARC
5
119
100
AcDbEntity
8
0
100
AcDbCircle
10
-890.67006485948821
20
795.84533528051088
30
0
40
2.3812529205116268
210
0
220
0
230
1
100
AcDbArc
50
180.38192014242526
51
269.61807985755485
0
ARC
5
120
100
AcDbEntity
8
0
100
AcDbCircle
10
-890.6700626999999
20
793.46408236000002
30
0
40
0.015874999999994088
210
0
220
0
230
1
100
AcDbArc
50
0
51
179.80906590857688
0
LINE
5
121
100
AcDbEntity
8
0
100
AcDbLine
10
-890.65418769999997
20
793.46408236000002
30
0
11
-592.23534080000013
21
793.46408236000025
31
0
0
ARC
5
122
100
AcDbEntity
8
0
100
AcDbCircle
10
-592.21946579999997
20
793.46408235999991
30
0
40
0.015875000000035559
210
0
220
-0
230
1
100
AcDbArc
50
0.19093409183161247
51
180
0
ARC
5
123
100
AcDbEntity
8
0
100
AcDbCircle
10
-592.21946364051155
20
795.84533528051065
30
0
40
2.3812529205116317
210
0
220
0
230
1
100
AcDbArc
50
270.38192014244243
51
359.61801874215632
0
ARC
5
124
100
AcDbEntity
8
0
100
AcDbCircle
10
-589.83821072000001
20
795.84533490000001
30
0
40
0.015874999999994088
210
0
220
-0
230
1
100
AcDbArc
50
89.99999999958969
51
269.80900479363254
0
LINE
5
125
100
AcDbEntity
8
0
100
AcDbLine
10
-589.83821071999989
20
795.86120989999995
30
0
11
-589.83821071999989
21
883.14213769999992
31
0
0
ARC
5
126
100
AcDbEntity
8
0
100
AcDbCircle
10
-589.83821072000001
20
883.15801269999997
30
0
40
0.015874999999984717
210
0
220
0
230
1
100
AcDbArc
50
90.190995206368783
51
270.0000000004103
0
ARC
5
127
100
AcDbEntity
8
0
100
AcDbCircle
10
-592.21946364051155
20
883.1580123194891
30
0
40
2.3812529205116633
210
0
220
-0
230
1
100
AcDbArc
50
0.38198125784654885
51
89.618079857557603
0
ARC
5
128
100
AcDbEntity
8
0
100
AcDbCircle
10
-592.21946579999997
20
885.53926524000008
30
0
40
0.015875000000065143
210
0
220
0
230
1
100
AcDbArc
50
180
51
359.80906590816841
0
LINE
5
129
100
AcDbEntity
8
0
100
AcDbLine
10
-592.23534080000013
20
885.53926524000053
30
0
11
-747.77890068000011
21
885.53926523999974
31
0
0
ARC
5
130
100
AcDbEntity
8
0
100
AcDbCircle
10
-747.79477567999993
20
885.53926523999974
30
0
40
0.01587499999985198
210
0
220
0
230
1
100
AcDbArc
50
-180
51
0
0
LINE
5
131
100
AcDbEntity
8
0
100
AcDbLine
10
-747.81065067999975
20
885.53926523999974
30
0
11
-868.03226697999992
21
885.53926523999985
31
0
0
ARC
5
132
100
AcDbEntity
8
0
100
AcDbCircle
10
-868.04814197999985
20
885.53926523999985
30
0
40
0.015874999999979093
210
0
220
0
230
1
100
AcDbArc
50
-180.28639097730616
51
0
0
ARC
5
133
100
AcDbEntity
8
0
100
AcDbCircle
10
-868.04814443598389
20
887.12676786401414
30
0
40
1.5875026240160515
210
0
220
0
230
1
100
AcDbArc
50
180.57296226764328
51
269.42712940539326
0
LWPOLYLINE
5
134
100
AcDbEntity
8
0
100
AcDbPolyline
90
4
70
1
43
0.0
10
-878.89530850000006
20
885.0575948799999
10
-878.89530850000017
20
886.00759552
42
0.99999999999999989
10
-879.34530505999999
20
886.00759551999977
10
-879.3453050600001
20
885.05759487999978
42
0.99999999999999989
0
LWPOLYLINE
5
135
100
AcDbEntity
8
0
100
AcDbPolyline
90
4
70
1
43
0.0
10
-878.89349747999995
20
889.48759617999985
10
-878.89349748000018
20
889.93759781999984
42
0.99999999999999989
10
-879.34349404
20
889.93759781999984
10
-879.34349404000022
20
889.48759617999951
42
0.99999999999999989
0
LWPOLYLINE
5
136
100
AcDbEntity
8
0
100
AcDbPolyline
90
4
70
1
43
0.0
10
-870.70749404000014
20
889.93759781999984
10
-870.70749404000003
20
889.48759617999985
42
0.99999999999999989
10
-870.2574974800001
20
889.48759617999985
10
-870.25749747999998
20
889.93759781999961
42
0.99999999999999989
0
LWPOLYLINE
5
137
100
AcDbEntity
8
0
100
AcDbPolyline
90
4
70
1
43
0.0
10
-870.70749404000003
20
885.91760839999995
10
-870.70749404000003
20
884.96760775999985
42
0.99999999999999989
10
-870.2574974800001
20
884.96760775999985
10
-870.2574974800001
20
885.91760839999995
42
0.99999999999999989
0
CIRCLE
5
138
100
AcDbEntity
8
0
100
AcDbCircle
10
598.57639999999992
20
877.59540000000004
30
0
40
1.0000000000000142
210
0
220
0
230
-1
0
CIRCLE
5
139
100
AcDbEntity
8
0
100
AcDbCircle
10
871.91584570000009
20
886.03259673999992
30
0
40
0.21329903999998123
210
0
220
0
230
-1
0
CIRCLE
5
140
100
AcDbEntity
8
0
100
AcDbCircle
10
877.69584430000009
20
886.03259673999992
30
0
40
0.21329904000012334
210
0
220
0
230
-1
0
CIRCLE
5
141
100
AcDbEntity
8
0
100
AcDbCircle
10
-598.57639999999992
20
877.59540000000004
30
0
40
1.5000000000000262
210
0
220
0
230
1
0
CIRCLE
5
142
100
AcDbEntity
8
0
100
AcDbCircle
10
-877.69584430000009
20
886.03259673999992
30
0
40
0.25000000000005684
210
0
220
0
230
1
0
CIRCLE
5
143
100
AcDbEntity
8
0
100
AcDbCircle
10
-871.91584570000009
20
886.03259673999992
30
0
40
0.25000000000005684
210
0
220
0
230
1
0
ENDSEC
0
SECTION
2
OBJECTS
0
DICTIONARY
5
C
100
AcDbDictionary
3
ACAD_GROUP
350
D
3
ACAD_MLINESTYLE
350
17
0
DICTIONARY
5
D
100
AcDbDictionary
0
DICTIONARY
5
1A
330
C
100
AcDbDictionary
0
DICTIONARY
5
17
100
AcDbDictionary
0
ENDSEC
0
EOF
