M48
; DRILL file {KiCad (5.1.12)-1} date 12/03/22 22:14:34
; FORMAT={-:-/ absolute / inch / decimal}
; #@! TF.CreationDate,2022-12-03T22:14:34+07:00
; #@! TF.GenerationSoftware,Kicad,Pcbnew,(5.1.12)-1
; #@! TF.FileFunction,Plated,1,2,PTH
FMAT,2
INCH
T1C0.0157
T2C0.0236
T3C0.0394
T4C0.0591
T5C0.0866
%
G90
G05
T1
X0.0898Y-1.7875
X0.1463Y-2.3704
X0.1651Y-2.8223
X0.1651Y-3.5254
X0.1836Y-4.7875
X0.2238Y-3.8275
X0.2773Y-2.5375
X0.3711Y-3.2875
X0.4977Y-1.7876
X0.5012Y-3.0701
X0.527Y-3.0982
X0.5478Y-3.5875
X0.5586Y-4.0375
X0.5653Y-2.0186
X0.6062Y-3.8625
X0.6544Y-4.574
X0.6593Y-3.108
X0.6646Y-1.776
X0.6707Y-2.1761
X0.6942Y-1.983
X0.7022Y-2.075
X0.76Y-3.01
X0.7979Y-4.5169
X0.7979Y-4.7963
X0.81Y-3.015
X0.8141Y-3.282
X0.8321Y-2.075
X0.8398Y-1.7875
X0.8401Y-1.6588
X0.8637Y-2.1761
X0.8709Y-4.5169
X0.8709Y-4.8083
X0.8844Y-3.4695
X0.9159Y-3.7338
X0.9451Y-3.3211
X0.9664Y-3.5514
X0.9691Y-3.3451
X0.9712Y-2.378
X0.993Y-3.3689
X0.9943Y-3.4037
X0.9951Y-3.4397
X1.0037Y-3.7325
X1.0313Y-3.6857
X1.0484Y-3.3055
X1.0484Y-3.3523
X1.0675Y-3.9375
X1.1211Y-4.7875
X1.1496Y-2.7393
X1.1733Y-2.7629
X1.1812Y-2.65
X1.1883Y-2.4375
X1.1969Y-2.7866
X1.2148Y-2.5375
X1.2612Y-2.7393
X1.3531Y-3.1766
X1.4Y-3.142
X1.4469Y-3.1531
X1.4737Y-3.7475
X1.5337Y-3.4675
X1.5641Y-3.3875
X1.5898Y-1.7875
X1.6813Y-4.1311
X1.7773Y-4.0375
X1.7984Y-3.3875
X1.9648Y-2.5375
X2.0211Y-1.9952
X2.0211Y-2.105
X2.0586Y-4.7875
X2.1031Y-3.3929
X2.1523Y-3.2875
X2.3141Y-3.3875
X2.3398Y-1.7875
X2.368Y-1.9578
X2.4997Y-2.0894
X2.5273Y-4.0375
X2.5484Y-3.3875
X2.7148Y-2.5375
X2.9023Y-3.2875
X3.0641Y-3.3875
X3.0898Y-1.7875
X3.2773Y-4.0375
X3.2984Y-3.3875
X3.4648Y-2.5375
X3.6523Y-3.2875
X3.8141Y-3.3875
X3.8398Y-1.7875
X3.868Y-1.9578
X3.9997Y-2.0894
X4.0273Y-4.0375
X4.0484Y-3.3875
X4.0675Y-4.6875
X4.2148Y-2.5375
X4.4023Y-3.2875
X4.5641Y-3.3875
X4.5898Y-1.7875
X4.7773Y-4.0375
X4.7984Y-3.3875
X4.8711Y-4.7875
X4.9648Y-2.5375
X5.1523Y-3.2875
X5.3141Y-3.3875
X5.3398Y-1.7875
X5.3681Y-1.9578
X5.38Y-4.6875
X5.4781Y-5.075
X5.4997Y-2.0894
X5.5273Y-4.0375
X5.5485Y-3.3875
X5.7125Y-5.075
X5.7148Y-2.5375
X5.9023Y-3.2875
X5.9425Y-4.6875
X6.0641Y-3.3875
X6.0898Y-1.7875
X6.2773Y-4.0375
X6.2985Y-3.3875
X6.4648Y-2.5375
X6.6523Y-3.2875
X6.7461Y-4.7875
X6.8141Y-3.3875
X6.8398Y-1.7875
X6.8681Y-1.9578
X6.9997Y-2.0894
X7.0273Y-4.0375
X7.0485Y-3.3875
X7.2148Y-2.5375
X7.4023Y-3.2875
X7.5641Y-3.3875
X7.5898Y-1.7875
X7.7773Y-4.0375
X7.7985Y-3.3875
X7.9648Y-2.5375
X8.1523Y-3.2875
X8.1925Y-4.6875
X8.3141Y-3.3875
X8.3398Y-1.7875
X8.3681Y-1.9578
X8.3681Y-2.078
X8.5273Y-4.0375
X8.5485Y-3.3875
X8.6211Y-4.7875
X8.7148Y-2.5375
X8.9023Y-3.2875
X8.9953Y-2.078
X9.0641Y-3.3875
X9.0892Y-2.078
X9.0898Y-1.7875
X9.2985Y-3.3875
X9.3688Y-2.0398
X9.4648Y-2.5375
X9.5586Y-4.0375
X9.7163Y-4.87
X9.7163Y-5.045
X9.7438Y-1.6297
X9.8399Y-4.7875
X9.874Y-2.9773
X9.8887Y-2.0875
X10.1211Y-3.2875
X10.2148Y-1.7875
X10.3977Y-1.9875
X10.4023Y-2.5375
X10.5407Y-2.1805
X10.5875Y-2.2742
X10.5898Y-4.0375
X10.5899Y-4.7875
X10.7237Y-1.6875
X10.7633Y-2.3211
X10.9631Y-5.0971
X11.0328Y-2.8439
X11.0328Y-3.0756
X11.0877Y-4.5495
X11.0914Y-2.2742
X11.1477Y-1.9875
X11.1852Y-2.9188
X11.1852Y-3.0008
X11.232Y-4.8237
X11.2878Y-2.4266
X11.3114Y-2.4502
X11.3398Y-1.7875
X11.3398Y-2.5375
X11.3398Y-3.2875
X11.3398Y-4.0375
X11.3399Y-4.7875
X11.3619Y-5.0323
X11.3915Y-2.2508
X11.3961Y-2.3211
X11.6964Y-3.0152
X11.6964Y-3.7652
X11.8224Y-2.8223
X11.8224Y-3.0152
X11.8224Y-3.5723
X11.8224Y-3.7652
X11.8592Y-4.3549
X11.8725Y-4.3877
T3
X11.5203Y-1.6119
X11.5203Y-2.1828
X11.6188Y-2.1828
X11.7172Y-1.6119
X11.7172Y-2.1828
T5
X1.0259Y-2.6373
X1.6822Y-4.5123
X11.151Y-2.6373
X11.2447Y-4.5123
T2
G00X0.5736Y-1.3565
M15
G01X0.5736Y-1.3801
M16
G05
G00X0.5736Y-1.5112
M15
G01X0.5736Y-1.5545
M16
G05
G00X0.9137Y-1.3565
M15
G01X0.9137Y-1.3801
M16
G05
G00X0.9137Y-1.5112
M15
G01X0.9137Y-1.5545
M16
G05
T4
G00X11.3983Y-1.9131
M15
G01X11.3983Y-1.8619
M16
G05
G00X11.8392Y-1.9131
M15
G01X11.8392Y-1.8619
M16
G05
T0
M30
