M48
; DRILL file {KiCad (5.1.12)-1} date 12/03/22 22:14:34
; FORMAT={-:-/ absolute / inch / decimal}
; #@! TF.CreationDate,2022-12-03T22:14:34+07:00
; #@! TF.GenerationSoftware,Kicad,Pcbnew,(5.1.12)-1
; #@! TF.FileFunction,NonPlated,1,2,NPTH
FMAT,2
INCH
T1C0.0256
T2C0.0390
T3C0.0689
T4C0.1181
T5C0.1200
T6C0.1570
%
G90
G05
T1
X0.6299Y-1.512
X0.8574Y-1.512
T2
X0.71Y-2.926
X0.91Y-2.886
X0.91Y-2.966
T3
X0.1687Y-1.8875
X0.2625Y-4.8875
X0.3563Y-2.6375
X0.45Y-3.3875
X0.5687Y-1.8875
X0.6375Y-4.1375
X0.6625Y-4.8875
X0.7563Y-2.6375
X0.85Y-3.3875
X0.9187Y-1.8875
X1.0375Y-4.1375
X1.2Y-4.8875
X1.2938Y-2.6375
X1.3187Y-1.8875
X1.4813Y-3.3875
X1.6Y-4.8875
X1.6687Y-1.8875
X1.6938Y-2.6375
X1.8563Y-4.1375
X1.8813Y-3.3875
X2.0438Y-2.6375
X2.0688Y-1.8875
X2.1375Y-4.8875
X2.2313Y-3.3875
X2.2563Y-4.1375
X2.4187Y-1.8875
X2.4438Y-2.6375
X2.5375Y-4.8875
X2.6063Y-4.1375
X2.6313Y-3.3875
X2.7938Y-2.6375
X2.8188Y-1.8875
X2.9813Y-3.3875
X3.0063Y-4.1375
X3.1687Y-1.8875
X3.1938Y-2.6375
X3.3563Y-4.1375
X3.3813Y-3.3875
X3.5438Y-2.6375
X3.5688Y-1.8875
X3.6375Y-4.8875
X3.7313Y-3.3875
X3.7563Y-4.1375
X3.9187Y-1.8875
X3.9438Y-2.6375
X4.0375Y-4.8875
X4.1063Y-4.1375
X4.1313Y-3.3875
X4.2938Y-2.6375
X4.3187Y-1.8875
X4.4813Y-3.3875
X4.5063Y-4.1375
X4.6688Y-1.8875
X4.6938Y-2.6375
X4.8563Y-4.1375
X4.8813Y-3.3875
X4.95Y-4.8875
X5.0438Y-2.6375
X5.0687Y-1.8875
X5.2313Y-3.3875
X5.2563Y-4.1375
X5.35Y-4.8875
X5.4188Y-1.8875
X5.4438Y-2.6375
X5.5125Y-4.8875
X5.6063Y-4.1375
X5.6313Y-3.3875
X5.7938Y-2.6375
X5.8187Y-1.8875
X5.9125Y-4.8875
X5.9813Y-3.3875
X6.0063Y-4.1375
X6.1688Y-1.8875
X6.1938Y-2.6375
X6.3563Y-4.1375
X6.3813Y-3.3875
X6.5438Y-2.6375
X6.5687Y-1.8875
X6.7313Y-3.3875
X6.7563Y-4.1375
X6.825Y-4.8875
X6.9188Y-1.8875
X6.9438Y-2.6375
X7.1063Y-4.1375
X7.1313Y-3.3875
X7.225Y-4.8875
X7.2938Y-2.6375
X7.3187Y-1.8875
X7.4813Y-3.3875
X7.5063Y-4.1375
X7.6688Y-1.8875
X7.6938Y-2.6375
X7.7625Y-4.8875
X7.8563Y-4.1375
X7.8813Y-3.3875
X8.0438Y-2.6375
X8.0687Y-1.8875
X8.1625Y-4.8875
X8.2313Y-3.3875
X8.2563Y-4.1375
X8.4187Y-1.8875
X8.4438Y-2.6375
X8.6063Y-4.1375
X8.6313Y-3.3875
X8.7Y-4.8875
X8.7938Y-2.6375
X8.8187Y-1.8875
X8.9813Y-3.3875
X9.0063Y-4.1375
X9.1Y-4.8875
X9.1687Y-1.8875
X9.1938Y-2.6375
X9.3813Y-3.3875
X9.5438Y-2.6375
X9.5687Y-1.8875
X9.6375Y-4.1375
X9.9187Y-1.8875
X9.9188Y-4.8875
X9.9438Y-2.6375
X10.0375Y-4.1375
X10.2Y-3.3875
X10.2937Y-1.8875
X10.3187Y-1.8875
X10.3188Y-4.8875
X10.4813Y-2.6375
X10.6Y-3.3875
X10.6687Y-1.8875
X10.6688Y-4.1375
X10.6688Y-4.8875
X10.6937Y-1.8875
X10.8813Y-2.6375
X11.0687Y-1.8875
X11.0688Y-4.1375
X11.0688Y-4.8875
X11.4187Y-1.8875
X11.4188Y-2.6375
X11.4188Y-3.3875
X11.4188Y-4.1375
X11.4188Y-4.8875
X11.8187Y-1.8875
X11.8188Y-2.6375
X11.8188Y-3.3875
X11.8188Y-4.1375
X11.8188Y-4.8875
T4
X0.2188Y-1.7875
X0.3125Y-4.7875
X0.4063Y-2.5375
X0.4688Y-1.6875
X0.5Y-3.2875
X0.5625Y-4.6875
X0.6563Y-2.4375
X0.6875Y-4.0375
X0.75Y-3.1875
X0.9375Y-3.9375
X0.9688Y-1.7875
X1.2188Y-1.6875
X1.25Y-4.7875
X1.3438Y-2.5375
X1.5Y-4.6875
X1.5313Y-3.2875
X1.5938Y-2.4375
X1.7188Y-1.7875
X1.7813Y-3.1875
X1.9063Y-4.0375
X1.9688Y-1.6875
X2.0938Y-2.5375
X2.1563Y-3.9375
X2.1875Y-4.7875
X2.2813Y-3.2875
X2.3438Y-2.4375
X2.4375Y-4.6875
X2.4688Y-1.7875
X2.5313Y-3.1875
X2.6563Y-4.0375
X2.7188Y-1.6875
X2.8438Y-2.5375
X2.9063Y-3.9375
X3.0313Y-3.2875
X3.0938Y-2.4375
X3.2188Y-1.7875
X3.2813Y-3.1875
X3.4063Y-4.0375
X3.4688Y-1.6875
X3.5938Y-2.5375
X3.6563Y-3.9375
X3.6875Y-4.7875
X3.7813Y-3.2875
X3.8438Y-2.4375
X3.9375Y-4.6875
X3.9688Y-1.7875
X4.0313Y-3.1875
X4.1563Y-4.0375
X4.2188Y-1.6875
X4.3438Y-2.5375
X4.4063Y-3.9375
X4.5313Y-3.2875
X4.5938Y-2.4375
X4.7188Y-1.7875
X4.7813Y-3.1875
X4.9063Y-4.0375
X4.9688Y-1.6875
X5.0Y-4.7875
X5.0938Y-2.5375
X5.1563Y-3.9375
X5.25Y-4.6875
X5.2813Y-3.2875
X5.3438Y-2.4375
X5.4688Y-1.7875
X5.5313Y-3.1875
X5.5625Y-4.7875
X5.6563Y-4.0375
X5.7188Y-1.6875
X5.8125Y-4.6875
X5.8438Y-2.5375
X5.9063Y-3.9375
X6.0313Y-3.2875
X6.0938Y-2.4375
X6.2188Y-1.7875
X6.2813Y-3.1875
X6.4063Y-4.0375
X6.4688Y-1.6875
X6.5938Y-2.5375
X6.6563Y-3.9375
X6.7813Y-3.2875
X6.8438Y-2.4375
X6.875Y-4.7875
X6.9688Y-1.7875
X7.0313Y-3.1875
X7.125Y-4.6875
X7.1563Y-4.0375
X7.2188Y-1.6875
X7.3438Y-2.5375
X7.4063Y-3.9375
X7.5313Y-3.2875
X7.5938Y-2.4375
X7.7188Y-1.7875
X7.7813Y-3.1875
X7.8125Y-4.7875
X7.9063Y-4.0375
X7.9688Y-1.6875
X8.0625Y-4.6875
X8.0938Y-2.5375
X8.1563Y-3.9375
X8.2813Y-3.2875
X8.3438Y-2.4375
X8.4688Y-1.7875
X8.5313Y-3.1875
X8.6563Y-4.0375
X8.7188Y-1.6875
X8.75Y-4.7875
X8.8438Y-2.5375
X8.9063Y-3.9375
X9.0Y-4.6875
X9.0313Y-3.2875
X9.0938Y-2.4375
X9.2188Y-1.7875
X9.2813Y-3.1875
X9.4688Y-1.6875
X9.5938Y-2.5375
X9.6875Y-4.0375
X9.8438Y-2.4375
X9.9375Y-3.9375
X9.9688Y-4.7875
X10.0187Y-2.0875
X10.2188Y-4.6875
X10.25Y-3.2875
X10.2687Y-1.9875
X10.3438Y-1.7875
X10.5Y-3.1875
X10.5313Y-2.5375
X10.5938Y-1.6875
X10.7188Y-4.0375
X10.7188Y-4.7875
X10.7687Y-2.0875
X10.7813Y-2.4375
X10.9688Y-3.9375
X10.9688Y-4.6875
X11.0187Y-1.9875
X11.4688Y-1.7875
X11.4688Y-2.5375
X11.4688Y-3.2875
X11.4688Y-4.0375
X11.4688Y-4.7875
X11.7188Y-1.6875
X11.7188Y-2.4375
X11.7188Y-3.1875
X11.7188Y-3.9375
X11.7188Y-4.6875
T5
X0.3675Y-3.8625
X1.3075Y-3.8625
X3.1815Y-5.1625
X3.3675Y-5.1625
X4.3075Y-5.1625
X5.2425Y-5.1625
X6.1825Y-5.1625
X7.1185Y-5.1625
X9.93Y-3.1125
X10.0237Y-1.6125
X10.87Y-3.1125
X10.9637Y-1.6125
T6
X0.3675Y-4.4625
X0.3687Y-1.8875
X0.4625Y-4.8875
X0.5563Y-2.6375
X0.65Y-3.3875
X0.8375Y-4.1375
X1.1187Y-1.8875
X1.3075Y-4.4625
X1.4Y-4.8875
X1.4938Y-2.6375
X1.6813Y-3.3875
X1.8687Y-1.8875
X2.0563Y-4.1375
X2.2438Y-2.6375
X2.3375Y-4.8875
X2.4313Y-3.3875
X2.6187Y-1.8875
X2.8063Y-4.1375
X2.9938Y-2.6375
X3.1813Y-3.3875
X3.1815Y-4.5625
X3.3675Y-4.5625
X3.3687Y-1.8875
X3.5563Y-4.1375
X3.7438Y-2.6375
X3.8375Y-4.8875
X3.9313Y-3.3875
X4.1187Y-1.8875
X4.3063Y-4.1375
X4.3075Y-4.5625
X4.4938Y-2.6375
X4.6813Y-3.3875
X4.8687Y-1.8875
X5.0563Y-4.1375
X5.15Y-4.8875
X5.2425Y-4.5625
X5.2438Y-2.6375
X5.4313Y-3.3875
X5.6187Y-1.8875
X5.7125Y-4.8875
X5.8063Y-4.1375
X5.9938Y-2.6375
X6.1813Y-3.3875
X6.1825Y-4.5625
X6.3687Y-1.8875
X6.5563Y-4.1375
X6.7438Y-2.6375
X6.9313Y-3.3875
X7.025Y-4.8875
X7.1185Y-4.5625
X7.1187Y-1.8875
X7.3063Y-4.1375
X7.4938Y-2.6375
X7.6813Y-3.3875
X7.8687Y-1.8875
X7.9625Y-4.8875
X8.0563Y-4.1375
X8.2438Y-2.6375
X8.4313Y-3.3875
X8.6188Y-1.8875
X8.8063Y-4.1375
X8.9Y-4.8875
X8.9938Y-2.6375
X9.1813Y-3.3875
X9.3688Y-1.8875
X9.7438Y-2.6375
X9.8375Y-4.1375
X9.93Y-3.7125
X10.0237Y-2.2125
X10.1188Y-1.8875
X10.1188Y-4.8875
X10.4Y-3.3875
X10.4938Y-1.8875
X10.6813Y-2.6375
X10.8688Y-1.8875
X10.8688Y-4.1375
X10.8688Y-4.8875
X10.87Y-3.7125
X10.9637Y-2.2125
X11.6188Y-1.8875
X11.6188Y-2.6375
X11.6188Y-3.3875
X11.6188Y-4.1375
X11.6188Y-4.8875
T0
M30
