G04 #@! TF.GenerationSoftware,KiCad,Pcbnew,(5.1.10)-1*
G04 #@! TF.CreationDate,2022-02-10T23:06:31+07:00*
G04 #@! TF.ProjectId,Satxri6key,53617478-7269-4366-9b65-792e6b696361,rev?*
G04 #@! TF.SameCoordinates,Original*
G04 #@! TF.FileFunction,Profile,NP*
%FSLAX45Y45*%
G04 Gerber Fmt 4.5, Leading zero omitted, Abs format (unit mm)*
G04 Created by KiCad (PCBNEW (5.1.10)-1) date 2022-02-10 23:06:31*
%MOMM*%
%LPD*%
G01*
G04 APERTURE LIST*
G04 #@! TA.AperFunction,Profile*
%ADD10C,0.150000*%
G04 #@! TD*
G04 APERTURE END LIST*
D10*
X27324958Y-8453508D02*
X29467994Y-8453445D01*
X26134328Y-8334410D02*
G75*
G02*
X26015265Y-8453473I-119063J0D01*
G01*
X27324958Y-8453508D02*
G75*
G02*
X27205895Y-8334445I0J119063D01*
G01*
X27205895Y-8036752D02*
X27205895Y-8334445D01*
X26134328Y-8036752D02*
X27205895Y-8036752D01*
X26134328Y-8334410D02*
X26134328Y-8036752D01*
X23872051Y-8453473D02*
X26015265Y-8453473D01*
X23872051Y-14406575D02*
G75*
G02*
X23633926Y-14168450I0J238125D01*
G01*
X29706118Y-14168450D02*
G75*
G02*
X29467993Y-14406575I-238125J0D01*
G01*
X29467994Y-8453445D02*
G75*
G02*
X29706119Y-8691570I0J-238125D01*
G01*
X23633926Y-8691598D02*
G75*
G02*
X23872051Y-8453473I238125J0D01*
G01*
X23633926Y-14168450D02*
X23633926Y-8691598D01*
X29467993Y-14406575D02*
X23872051Y-14406575D01*
X29706119Y-8691570D02*
X29706118Y-14168450D01*
X24955000Y-13673000D02*
X24955000Y-14013000D01*
X24575000Y-14013000D02*
X24955000Y-14013000D01*
X24575000Y-13673000D02*
X24575000Y-14013000D01*
X24575000Y-13673000D02*
X24955000Y-13673000D01*
X26860000Y-13673000D02*
X26860000Y-14013000D01*
X26480000Y-14013000D02*
X26860000Y-14013000D01*
X26480000Y-13673000D02*
X26480000Y-14013000D01*
X26480000Y-13673000D02*
X26860000Y-13673000D01*
X28385000Y-13673000D02*
X28765000Y-13673000D01*
X28385000Y-13673000D02*
X28385000Y-14013000D01*
X28385000Y-14013000D02*
X28765000Y-14013000D01*
X28765000Y-13673000D02*
X28765000Y-14013000D01*
X28765000Y-11768000D02*
X28765000Y-12108000D01*
X28385000Y-12108000D02*
X28765000Y-12108000D01*
X28385000Y-11768000D02*
X28385000Y-12108000D01*
X28385000Y-11768000D02*
X28765000Y-11768000D01*
X26860000Y-11768000D02*
X26860000Y-12108000D01*
X26480000Y-12108000D02*
X26860000Y-12108000D01*
X26480000Y-11768000D02*
X26480000Y-12108000D01*
X26480000Y-11768000D02*
X26860000Y-11768000D01*
X24955000Y-11768000D02*
X24955000Y-12108000D01*
X24575000Y-12108000D02*
X24955000Y-12108000D01*
X24575000Y-11768000D02*
X24575000Y-12108000D01*
X24575000Y-11768000D02*
X24955000Y-11768000D01*
M02*
