%TF.GenerationSoftware,KiCad,Pcbnew,(5.1.10)-1*%
%TF.CreationDate,2022-05-13T21:41:30+07:00*%
%TF.ProjectId,solder,736f6c64-6572-42e6-9b69-6361645f7063,rev?*%
%TF.SameCoordinates,Original*%
%TF.FileFunction,Paste,Bot*%
%TF.FilePolarity,Positive*%
%FSLAX46Y46*%
G04 Gerber Fmt 4.6, Leading zero omitted, Abs format (unit mm)*
G04 Created by KiCad (PCBNEW (5.1.10)-1) date 2022-05-13 21:41:30*
%MOMM*%
%LPD*%
G01*
G04 APERTURE LIST*
%ADD10R,1.900000X0.400000*%
%ADD11R,2.030000X1.140000*%
%ADD12R,0.700000X1.000000*%
%ADD13R,0.700000X0.600000*%
%ADD14R,0.500000X2.250000*%
%ADD15R,1.800000X1.100000*%
%ADD16R,0.700000X1.300000*%
%ADD17R,1.500000X1.000000*%
%ADD18R,1.000000X1.500000*%
%ADD19R,1.300000X0.700000*%
%ADD20R,0.600000X1.550000*%
%ADD21R,1.200000X1.800000*%
%ADD22R,0.800000X0.750000*%
%ADD23R,0.750000X0.800000*%
G04 APERTURE END LIST*
D10*
%TO.C,Y1*%
X322919004Y-89257849D03*
X322919004Y-90457849D03*
X322919004Y-91657849D03*
%TD*%
D11*
%TO.C,F1*%
X298812500Y-26212500D03*
X298812500Y-23812500D03*
%TD*%
D12*
%TO.C,U3*%
X303312500Y-24262500D03*
D13*
X301312500Y-24062500D03*
X303312500Y-25962500D03*
X301312500Y-25962500D03*
%TD*%
D14*
%TO.C,J3*%
X303912500Y-16012500D03*
X303112500Y-16012500D03*
X302312500Y-16012500D03*
X301512500Y-16012500D03*
X300712500Y-16012500D03*
%TD*%
D15*
%TO.C,SW1*%
X349325296Y-79707881D03*
X355525296Y-83407881D03*
X349325296Y-83407881D03*
X355525296Y-79707881D03*
%TD*%
D16*
%TO.C,R3*%
X41912536Y-94654767D03*
X43812536Y-94654767D03*
%TD*%
%TO.C,R2*%
X319442455Y-80962568D03*
X317542455Y-80962568D03*
%TD*%
D17*
%TO.C,RGB22*%
X68987656Y-115900096D03*
X68987656Y-112700096D03*
X73887656Y-115900096D03*
G36*
G01*
X73137656Y-112950096D02*
X73137656Y-112450096D01*
G75*
G02*
X73387656Y-112200096I250000J0D01*
G01*
X74387656Y-112200096D01*
G75*
G02*
X74637656Y-112450096I0J-250000D01*
G01*
X74637656Y-112950096D01*
G75*
G02*
X74387656Y-113200096I-250000J0D01*
G01*
X73387656Y-113200096D01*
G75*
G02*
X73137656Y-112950096I0J250000D01*
G01*
G37*
%TD*%
%TO.C,RGB21*%
X107087656Y-115900096D03*
X107087656Y-112700096D03*
X111987656Y-115900096D03*
G36*
G01*
X111237656Y-112950096D02*
X111237656Y-112450096D01*
G75*
G02*
X111487656Y-112200096I250000J0D01*
G01*
X112487656Y-112200096D01*
G75*
G02*
X112737656Y-112450096I0J-250000D01*
G01*
X112737656Y-112950096D01*
G75*
G02*
X112487656Y-113200096I-250000J0D01*
G01*
X111487656Y-113200096D01*
G75*
G02*
X111237656Y-112950096I0J250000D01*
G01*
G37*
%TD*%
%TO.C,RGB20*%
X145187656Y-115900096D03*
X145187656Y-112700096D03*
X150087656Y-115900096D03*
G36*
G01*
X149337656Y-112950096D02*
X149337656Y-112450096D01*
G75*
G02*
X149587656Y-112200096I250000J0D01*
G01*
X150587656Y-112200096D01*
G75*
G02*
X150837656Y-112450096I0J-250000D01*
G01*
X150837656Y-112950096D01*
G75*
G02*
X150587656Y-113200096I-250000J0D01*
G01*
X149587656Y-113200096D01*
G75*
G02*
X149337656Y-112950096I0J250000D01*
G01*
G37*
%TD*%
%TO.C,RGB19*%
X183287656Y-115900096D03*
X183287656Y-112700096D03*
X188187656Y-115900096D03*
G36*
G01*
X187437656Y-112950096D02*
X187437656Y-112450096D01*
G75*
G02*
X187687656Y-112200096I250000J0D01*
G01*
X188687656Y-112200096D01*
G75*
G02*
X188937656Y-112450096I0J-250000D01*
G01*
X188937656Y-112950096D01*
G75*
G02*
X188687656Y-113200096I-250000J0D01*
G01*
X187687656Y-113200096D01*
G75*
G02*
X187437656Y-112950096I0J250000D01*
G01*
G37*
%TD*%
%TO.C,RGB18*%
X221387688Y-115900096D03*
X221387688Y-112700096D03*
X226287688Y-115900096D03*
G36*
G01*
X225537688Y-112950096D02*
X225537688Y-112450096D01*
G75*
G02*
X225787688Y-112200096I250000J0D01*
G01*
X226787688Y-112200096D01*
G75*
G02*
X227037688Y-112450096I0J-250000D01*
G01*
X227037688Y-112950096D01*
G75*
G02*
X226787688Y-113200096I-250000J0D01*
G01*
X225787688Y-113200096D01*
G75*
G02*
X225537688Y-112950096I0J250000D01*
G01*
G37*
%TD*%
%TO.C,RGB17*%
X249962712Y-115900096D03*
X249962712Y-112700096D03*
X254862712Y-115900096D03*
G36*
G01*
X254112712Y-112950096D02*
X254112712Y-112450096D01*
G75*
G02*
X254362712Y-112200096I250000J0D01*
G01*
X255362712Y-112200096D01*
G75*
G02*
X255612712Y-112450096I0J-250000D01*
G01*
X255612712Y-112950096D01*
G75*
G02*
X255362712Y-113200096I-250000J0D01*
G01*
X254362712Y-113200096D01*
G75*
G02*
X254112712Y-112950096I0J250000D01*
G01*
G37*
%TD*%
%TO.C,RGB16*%
X297587752Y-115900096D03*
X297587752Y-112700096D03*
X302487752Y-115900096D03*
G36*
G01*
X301737752Y-112950096D02*
X301737752Y-112450096D01*
G75*
G02*
X301987752Y-112200096I250000J0D01*
G01*
X302987752Y-112200096D01*
G75*
G02*
X303237752Y-112450096I0J-250000D01*
G01*
X303237752Y-112950096D01*
G75*
G02*
X302987752Y-113200096I-250000J0D01*
G01*
X301987752Y-113200096D01*
G75*
G02*
X301737752Y-112950096I0J250000D01*
G01*
G37*
%TD*%
%TO.C,RGB15*%
X340450288Y-115900096D03*
X340450288Y-112700096D03*
X345350288Y-115900096D03*
G36*
G01*
X344600288Y-112950096D02*
X344600288Y-112450096D01*
G75*
G02*
X344850288Y-112200096I250000J0D01*
G01*
X345850288Y-112200096D01*
G75*
G02*
X346100288Y-112450096I0J-250000D01*
G01*
X346100288Y-112950096D01*
G75*
G02*
X345850288Y-113200096I-250000J0D01*
G01*
X344850288Y-113200096D01*
G75*
G02*
X344600288Y-112950096I0J250000D01*
G01*
G37*
%TD*%
D18*
%TO.C,RGB14*%
X358192487Y-97700080D03*
X354992487Y-97700080D03*
X358192487Y-92800080D03*
G36*
G01*
X355242487Y-93550080D02*
X354742487Y-93550080D01*
G75*
G02*
X354492487Y-93300080I0J250000D01*
G01*
X354492487Y-92300080D01*
G75*
G02*
X354742487Y-92050080I250000J0D01*
G01*
X355242487Y-92050080D01*
G75*
G02*
X355492487Y-92300080I0J-250000D01*
G01*
X355492487Y-93300080D01*
G75*
G02*
X355242487Y-93550080I-250000J0D01*
G01*
G37*
%TD*%
D17*
%TO.C,RGB13*%
X35650032Y-115900096D03*
X35650032Y-112700096D03*
X40550032Y-115900096D03*
G36*
G01*
X39800032Y-112950096D02*
X39800032Y-112450096D01*
G75*
G02*
X40050032Y-112200096I250000J0D01*
G01*
X41050032Y-112200096D01*
G75*
G02*
X41300032Y-112450096I0J-250000D01*
G01*
X41300032Y-112950096D01*
G75*
G02*
X41050032Y-113200096I-250000J0D01*
G01*
X40050032Y-113200096D01*
G75*
G02*
X39800032Y-112950096I0J250000D01*
G01*
G37*
%TD*%
D18*
%TO.C,RGB12*%
X18045329Y-89228202D03*
X21245329Y-89228202D03*
X18045329Y-94128202D03*
G36*
G01*
X20995329Y-93378202D02*
X21495329Y-93378202D01*
G75*
G02*
X21745329Y-93628202I0J-250000D01*
G01*
X21745329Y-94628202D01*
G75*
G02*
X21495329Y-94878202I-250000J0D01*
G01*
X20995329Y-94878202D01*
G75*
G02*
X20745329Y-94628202I0J250000D01*
G01*
X20745329Y-93628202D01*
G75*
G02*
X20995329Y-93378202I250000J0D01*
G01*
G37*
%TD*%
%TO.C,RGB11*%
X18045329Y-54700048D03*
X21245329Y-54700048D03*
X18045329Y-59600048D03*
G36*
G01*
X20995329Y-58850048D02*
X21495329Y-58850048D01*
G75*
G02*
X21745329Y-59100048I0J-250000D01*
G01*
X21745329Y-60100048D01*
G75*
G02*
X21495329Y-60350048I-250000J0D01*
G01*
X20995329Y-60350048D01*
G75*
G02*
X20745329Y-60100048I0J250000D01*
G01*
X20745329Y-59100048D01*
G75*
G02*
X20995329Y-58850048I250000J0D01*
G01*
G37*
%TD*%
D17*
%TO.C,RGB10*%
X38168780Y-31737528D03*
X38168780Y-34937528D03*
X33268780Y-31737528D03*
G36*
G01*
X34018780Y-34687528D02*
X34018780Y-35187528D01*
G75*
G02*
X33768780Y-35437528I-250000J0D01*
G01*
X32768780Y-35437528D01*
G75*
G02*
X32518780Y-35187528I0J250000D01*
G01*
X32518780Y-34687528D01*
G75*
G02*
X32768780Y-34437528I250000J0D01*
G01*
X33768780Y-34437528D01*
G75*
G02*
X34018780Y-34687528I0J-250000D01*
G01*
G37*
%TD*%
%TO.C,RGB9*%
X76268780Y-31737528D03*
X76268780Y-34937528D03*
X71368780Y-31737528D03*
G36*
G01*
X72118780Y-34687528D02*
X72118780Y-35187528D01*
G75*
G02*
X71868780Y-35437528I-250000J0D01*
G01*
X70868780Y-35437528D01*
G75*
G02*
X70618780Y-35187528I0J250000D01*
G01*
X70618780Y-34687528D01*
G75*
G02*
X70868780Y-34437528I250000J0D01*
G01*
X71868780Y-34437528D01*
G75*
G02*
X72118780Y-34687528I0J-250000D01*
G01*
G37*
%TD*%
%TO.C,RGB8*%
X114368780Y-31737528D03*
X114368780Y-34937528D03*
X109468780Y-31737528D03*
G36*
G01*
X110218780Y-34687528D02*
X110218780Y-35187528D01*
G75*
G02*
X109968780Y-35437528I-250000J0D01*
G01*
X108968780Y-35437528D01*
G75*
G02*
X108718780Y-35187528I0J250000D01*
G01*
X108718780Y-34687528D01*
G75*
G02*
X108968780Y-34437528I250000J0D01*
G01*
X109968780Y-34437528D01*
G75*
G02*
X110218780Y-34687528I0J-250000D01*
G01*
G37*
%TD*%
%TO.C,RGB7*%
X152468780Y-31737528D03*
X152468780Y-34937528D03*
X147568780Y-31737528D03*
G36*
G01*
X148318780Y-34687528D02*
X148318780Y-35187528D01*
G75*
G02*
X148068780Y-35437528I-250000J0D01*
G01*
X147068780Y-35437528D01*
G75*
G02*
X146818780Y-35187528I0J250000D01*
G01*
X146818780Y-34687528D01*
G75*
G02*
X147068780Y-34437528I250000J0D01*
G01*
X148068780Y-34437528D01*
G75*
G02*
X148318780Y-34687528I0J-250000D01*
G01*
G37*
%TD*%
%TO.C,RGB6*%
X190568780Y-31737528D03*
X190568780Y-34937528D03*
X185668780Y-31737528D03*
G36*
G01*
X186418780Y-34687528D02*
X186418780Y-35187528D01*
G75*
G02*
X186168780Y-35437528I-250000J0D01*
G01*
X185168780Y-35437528D01*
G75*
G02*
X184918780Y-35187528I0J250000D01*
G01*
X184918780Y-34687528D01*
G75*
G02*
X185168780Y-34437528I250000J0D01*
G01*
X186168780Y-34437528D01*
G75*
G02*
X186418780Y-34687528I0J-250000D01*
G01*
G37*
%TD*%
%TO.C,RGB5*%
X228668780Y-31737528D03*
X228668780Y-34937528D03*
X223768780Y-31737528D03*
G36*
G01*
X224518780Y-34687528D02*
X224518780Y-35187528D01*
G75*
G02*
X224268780Y-35437528I-250000J0D01*
G01*
X223268780Y-35437528D01*
G75*
G02*
X223018780Y-35187528I0J250000D01*
G01*
X223018780Y-34687528D01*
G75*
G02*
X223268780Y-34437528I250000J0D01*
G01*
X224268780Y-34437528D01*
G75*
G02*
X224518780Y-34687528I0J-250000D01*
G01*
G37*
%TD*%
%TO.C,RGB4*%
X266768780Y-31737528D03*
X266768780Y-34937528D03*
X261868780Y-31737528D03*
G36*
G01*
X262618780Y-34687528D02*
X262618780Y-35187528D01*
G75*
G02*
X262368780Y-35437528I-250000J0D01*
G01*
X261368780Y-35437528D01*
G75*
G02*
X261118780Y-35187528I0J250000D01*
G01*
X261118780Y-34687528D01*
G75*
G02*
X261368780Y-34437528I250000J0D01*
G01*
X262368780Y-34437528D01*
G75*
G02*
X262618780Y-34687528I0J-250000D01*
G01*
G37*
%TD*%
%TO.C,RGB3*%
X304368780Y-31737528D03*
X304368780Y-34937528D03*
X299468780Y-31737528D03*
G36*
G01*
X300218780Y-34687528D02*
X300218780Y-35187528D01*
G75*
G02*
X299968780Y-35437528I-250000J0D01*
G01*
X298968780Y-35437528D01*
G75*
G02*
X298718780Y-35187528I0J250000D01*
G01*
X298718780Y-34687528D01*
G75*
G02*
X298968780Y-34437528I250000J0D01*
G01*
X299968780Y-34437528D01*
G75*
G02*
X300218780Y-34687528I0J-250000D01*
G01*
G37*
%TD*%
%TO.C,RGB2*%
X342968780Y-31737528D03*
X342968780Y-34937528D03*
X338068780Y-31737528D03*
G36*
G01*
X338818780Y-34687528D02*
X338818780Y-35187528D01*
G75*
G02*
X338568780Y-35437528I-250000J0D01*
G01*
X337568780Y-35437528D01*
G75*
G02*
X337318780Y-35187528I0J250000D01*
G01*
X337318780Y-34687528D01*
G75*
G02*
X337568780Y-34437528I250000J0D01*
G01*
X338568780Y-34437528D01*
G75*
G02*
X338818780Y-34687528I0J-250000D01*
G01*
G37*
%TD*%
%TO.C,RGB1*%
G36*
G01*
X355242487Y-51878170D02*
X354742487Y-51878170D01*
G75*
G02*
X354492487Y-51628170I0J250000D01*
G01*
X354492487Y-50628170D01*
G75*
G02*
X354742487Y-50378170I250000J0D01*
G01*
X355242487Y-50378170D01*
G75*
G02*
X355492487Y-50628170I0J-250000D01*
G01*
X355492487Y-51628170D01*
G75*
G02*
X355242487Y-51878170I-250000J0D01*
G01*
G37*
D18*
X358192487Y-51128170D03*
X354992487Y-56028170D03*
X358192487Y-56028170D03*
%TD*%
D16*
%TO.C,R1*%
X350158105Y-94059454D03*
X348258105Y-94059454D03*
%TD*%
%TO.C,D90*%
G36*
G01*
X298811813Y-128206356D02*
X297691813Y-128206356D01*
G75*
G02*
X297451813Y-127966356I0J240000D01*
G01*
X297451813Y-127246356D01*
G75*
G02*
X297691813Y-127006356I240000J0D01*
G01*
X298811813Y-127006356D01*
G75*
G02*
X299051813Y-127246356I0J-240000D01*
G01*
X299051813Y-127966356D01*
G75*
G02*
X298811813Y-128206356I-240000J0D01*
G01*
G37*
G36*
G01*
X298811813Y-125406356D02*
X297691813Y-125406356D01*
G75*
G02*
X297451813Y-125166356I0J240000D01*
G01*
X297451813Y-124446356D01*
G75*
G02*
X297691813Y-124206356I240000J0D01*
G01*
X298811813Y-124206356D01*
G75*
G02*
X299051813Y-124446356I0J-240000D01*
G01*
X299051813Y-125166356D01*
G75*
G02*
X298811813Y-125406356I-240000J0D01*
G01*
G37*
%TD*%
%TO.C,D89*%
G36*
G01*
X344650914Y-71056308D02*
X343530914Y-71056308D01*
G75*
G02*
X343290914Y-70816308I0J240000D01*
G01*
X343290914Y-70096308D01*
G75*
G02*
X343530914Y-69856308I240000J0D01*
G01*
X344650914Y-69856308D01*
G75*
G02*
X344890914Y-70096308I0J-240000D01*
G01*
X344890914Y-70816308D01*
G75*
G02*
X344650914Y-71056308I-240000J0D01*
G01*
G37*
G36*
G01*
X344650914Y-68256308D02*
X343530914Y-68256308D01*
G75*
G02*
X343290914Y-68016308I0J240000D01*
G01*
X343290914Y-67296308D01*
G75*
G02*
X343530914Y-67056308I240000J0D01*
G01*
X344650914Y-67056308D01*
G75*
G02*
X344890914Y-67296308I0J-240000D01*
G01*
X344890914Y-68016308D01*
G75*
G02*
X344650914Y-68256308I-240000J0D01*
G01*
G37*
%TD*%
%TO.C,D88*%
G36*
G01*
X344650914Y-52006292D02*
X343530914Y-52006292D01*
G75*
G02*
X343290914Y-51766292I0J240000D01*
G01*
X343290914Y-51046292D01*
G75*
G02*
X343530914Y-50806292I240000J0D01*
G01*
X344650914Y-50806292D01*
G75*
G02*
X344890914Y-51046292I0J-240000D01*
G01*
X344890914Y-51766292D01*
G75*
G02*
X344650914Y-52006292I-240000J0D01*
G01*
G37*
G36*
G01*
X344650914Y-49206292D02*
X343530914Y-49206292D01*
G75*
G02*
X343290914Y-48966292I0J240000D01*
G01*
X343290914Y-48246292D01*
G75*
G02*
X343530914Y-48006292I240000J0D01*
G01*
X344650914Y-48006292D01*
G75*
G02*
X344890914Y-48246292I0J-240000D01*
G01*
X344890914Y-48966292D01*
G75*
G02*
X344650914Y-49206292I-240000J0D01*
G01*
G37*
%TD*%
%TO.C,D87*%
G36*
G01*
X344650625Y-28193750D02*
X343530625Y-28193750D01*
G75*
G02*
X343290625Y-27953750I0J240000D01*
G01*
X343290625Y-27233750D01*
G75*
G02*
X343530625Y-26993750I240000J0D01*
G01*
X344650625Y-26993750D01*
G75*
G02*
X344890625Y-27233750I0J-240000D01*
G01*
X344890625Y-27953750D01*
G75*
G02*
X344650625Y-28193750I-240000J0D01*
G01*
G37*
G36*
G01*
X344650625Y-25393750D02*
X343530625Y-25393750D01*
G75*
G02*
X343290625Y-25153750I0J240000D01*
G01*
X343290625Y-24433750D01*
G75*
G02*
X343530625Y-24193750I240000J0D01*
G01*
X344650625Y-24193750D01*
G75*
G02*
X344890625Y-24433750I0J-240000D01*
G01*
X344890625Y-25153750D01*
G75*
G02*
X344650625Y-25393750I-240000J0D01*
G01*
G37*
%TD*%
%TO.C,D86*%
G36*
G01*
X301193065Y-128206356D02*
X300073065Y-128206356D01*
G75*
G02*
X299833065Y-127966356I0J240000D01*
G01*
X299833065Y-127246356D01*
G75*
G02*
X300073065Y-127006356I240000J0D01*
G01*
X301193065Y-127006356D01*
G75*
G02*
X301433065Y-127246356I0J-240000D01*
G01*
X301433065Y-127966356D01*
G75*
G02*
X301193065Y-128206356I-240000J0D01*
G01*
G37*
G36*
G01*
X301193065Y-125406356D02*
X300073065Y-125406356D01*
G75*
G02*
X299833065Y-125166356I0J240000D01*
G01*
X299833065Y-124446356D01*
G75*
G02*
X300073065Y-124206356I240000J0D01*
G01*
X301193065Y-124206356D01*
G75*
G02*
X301433065Y-124446356I0J-240000D01*
G01*
X301433065Y-125166356D01*
G75*
G02*
X301193065Y-125406356I-240000J0D01*
G01*
G37*
%TD*%
%TO.C,D85*%
G36*
G01*
X343460288Y-109156340D02*
X342340288Y-109156340D01*
G75*
G02*
X342100288Y-108916340I0J240000D01*
G01*
X342100288Y-108196340D01*
G75*
G02*
X342340288Y-107956340I240000J0D01*
G01*
X343460288Y-107956340D01*
G75*
G02*
X343700288Y-108196340I0J-240000D01*
G01*
X343700288Y-108916340D01*
G75*
G02*
X343460288Y-109156340I-240000J0D01*
G01*
G37*
G36*
G01*
X343460288Y-106356340D02*
X342340288Y-106356340D01*
G75*
G02*
X342100288Y-106116340I0J240000D01*
G01*
X342100288Y-105396340D01*
G75*
G02*
X342340288Y-105156340I240000J0D01*
G01*
X343460288Y-105156340D01*
G75*
G02*
X343700288Y-105396340I0J-240000D01*
G01*
X343700288Y-106116340D01*
G75*
G02*
X343460288Y-106356340I-240000J0D01*
G01*
G37*
%TD*%
%TO.C,D83*%
G36*
G01*
X342269662Y-52006292D02*
X341149662Y-52006292D01*
G75*
G02*
X340909662Y-51766292I0J240000D01*
G01*
X340909662Y-51046292D01*
G75*
G02*
X341149662Y-50806292I240000J0D01*
G01*
X342269662Y-50806292D01*
G75*
G02*
X342509662Y-51046292I0J-240000D01*
G01*
X342509662Y-51766292D01*
G75*
G02*
X342269662Y-52006292I-240000J0D01*
G01*
G37*
G36*
G01*
X342269662Y-49206292D02*
X341149662Y-49206292D01*
G75*
G02*
X340909662Y-48966292I0J240000D01*
G01*
X340909662Y-48246292D01*
G75*
G02*
X341149662Y-48006292I240000J0D01*
G01*
X342269662Y-48006292D01*
G75*
G02*
X342509662Y-48246292I0J-240000D01*
G01*
X342509662Y-48966292D01*
G75*
G02*
X342269662Y-49206292I-240000J0D01*
G01*
G37*
%TD*%
%TO.C,D82*%
G36*
G01*
X342269375Y-28193750D02*
X341149375Y-28193750D01*
G75*
G02*
X340909375Y-27953750I0J240000D01*
G01*
X340909375Y-27233750D01*
G75*
G02*
X341149375Y-26993750I240000J0D01*
G01*
X342269375Y-26993750D01*
G75*
G02*
X342509375Y-27233750I0J-240000D01*
G01*
X342509375Y-27953750D01*
G75*
G02*
X342269375Y-28193750I-240000J0D01*
G01*
G37*
G36*
G01*
X342269375Y-25393750D02*
X341149375Y-25393750D01*
G75*
G02*
X340909375Y-25153750I0J240000D01*
G01*
X340909375Y-24433750D01*
G75*
G02*
X341149375Y-24193750I240000J0D01*
G01*
X342269375Y-24193750D01*
G75*
G02*
X342509375Y-24433750I0J-240000D01*
G01*
X342509375Y-25153750D01*
G75*
G02*
X342269375Y-25393750I-240000J0D01*
G01*
G37*
%TD*%
%TO.C,D81*%
G36*
G01*
X296430561Y-128206356D02*
X295310561Y-128206356D01*
G75*
G02*
X295070561Y-127966356I0J240000D01*
G01*
X295070561Y-127246356D01*
G75*
G02*
X295310561Y-127006356I240000J0D01*
G01*
X296430561Y-127006356D01*
G75*
G02*
X296670561Y-127246356I0J-240000D01*
G01*
X296670561Y-127966356D01*
G75*
G02*
X296430561Y-128206356I-240000J0D01*
G01*
G37*
G36*
G01*
X296430561Y-125406356D02*
X295310561Y-125406356D01*
G75*
G02*
X295070561Y-125166356I0J240000D01*
G01*
X295070561Y-124446356D01*
G75*
G02*
X295310561Y-124206356I240000J0D01*
G01*
X296430561Y-124206356D01*
G75*
G02*
X296670561Y-124446356I0J-240000D01*
G01*
X296670561Y-125166356D01*
G75*
G02*
X296430561Y-125406356I-240000J0D01*
G01*
G37*
%TD*%
%TO.C,D80*%
G36*
G01*
X324410272Y-71056308D02*
X323290272Y-71056308D01*
G75*
G02*
X323050272Y-70816308I0J240000D01*
G01*
X323050272Y-70096308D01*
G75*
G02*
X323290272Y-69856308I240000J0D01*
G01*
X324410272Y-69856308D01*
G75*
G02*
X324650272Y-70096308I0J-240000D01*
G01*
X324650272Y-70816308D01*
G75*
G02*
X324410272Y-71056308I-240000J0D01*
G01*
G37*
G36*
G01*
X324410272Y-68256308D02*
X323290272Y-68256308D01*
G75*
G02*
X323050272Y-68016308I0J240000D01*
G01*
X323050272Y-67296308D01*
G75*
G02*
X323290272Y-67056308I240000J0D01*
G01*
X324410272Y-67056308D01*
G75*
G02*
X324650272Y-67296308I0J-240000D01*
G01*
X324650272Y-68016308D01*
G75*
G02*
X324410272Y-68256308I-240000J0D01*
G01*
G37*
%TD*%
%TO.C,D79*%
G36*
G01*
X324410272Y-52006292D02*
X323290272Y-52006292D01*
G75*
G02*
X323050272Y-51766292I0J240000D01*
G01*
X323050272Y-51046292D01*
G75*
G02*
X323290272Y-50806292I240000J0D01*
G01*
X324410272Y-50806292D01*
G75*
G02*
X324650272Y-51046292I0J-240000D01*
G01*
X324650272Y-51766292D01*
G75*
G02*
X324410272Y-52006292I-240000J0D01*
G01*
G37*
G36*
G01*
X324410272Y-49206292D02*
X323290272Y-49206292D01*
G75*
G02*
X323050272Y-48966292I0J240000D01*
G01*
X323050272Y-48246292D01*
G75*
G02*
X323290272Y-48006292I240000J0D01*
G01*
X324410272Y-48006292D01*
G75*
G02*
X324650272Y-48246292I0J-240000D01*
G01*
X324650272Y-48966292D01*
G75*
G02*
X324410272Y-49206292I-240000J0D01*
G01*
G37*
%TD*%
%TO.C,D78*%
G36*
G01*
X324410000Y-28193750D02*
X323290000Y-28193750D01*
G75*
G02*
X323050000Y-27953750I0J240000D01*
G01*
X323050000Y-27233750D01*
G75*
G02*
X323290000Y-26993750I240000J0D01*
G01*
X324410000Y-26993750D01*
G75*
G02*
X324650000Y-27233750I0J-240000D01*
G01*
X324650000Y-27953750D01*
G75*
G02*
X324410000Y-28193750I-240000J0D01*
G01*
G37*
G36*
G01*
X324410000Y-25393750D02*
X323290000Y-25393750D01*
G75*
G02*
X323050000Y-25153750I0J240000D01*
G01*
X323050000Y-24433750D01*
G75*
G02*
X323290000Y-24193750I240000J0D01*
G01*
X324410000Y-24193750D01*
G75*
G02*
X324650000Y-24433750I0J-240000D01*
G01*
X324650000Y-25153750D01*
G75*
G02*
X324410000Y-25393750I-240000J0D01*
G01*
G37*
%TD*%
%TO.C,D77*%
G36*
G01*
X275594606Y-128206356D02*
X274474606Y-128206356D01*
G75*
G02*
X274234606Y-127966356I0J240000D01*
G01*
X274234606Y-127246356D01*
G75*
G02*
X274474606Y-127006356I240000J0D01*
G01*
X275594606Y-127006356D01*
G75*
G02*
X275834606Y-127246356I0J-240000D01*
G01*
X275834606Y-127966356D01*
G75*
G02*
X275594606Y-128206356I-240000J0D01*
G01*
G37*
G36*
G01*
X275594606Y-125406356D02*
X274474606Y-125406356D01*
G75*
G02*
X274234606Y-125166356I0J240000D01*
G01*
X274234606Y-124446356D01*
G75*
G02*
X274474606Y-124206356I240000J0D01*
G01*
X275594606Y-124206356D01*
G75*
G02*
X275834606Y-124446356I0J-240000D01*
G01*
X275834606Y-125166356D01*
G75*
G02*
X275594606Y-125406356I-240000J0D01*
G01*
G37*
%TD*%
%TO.C,D84*%
G36*
G01*
X342269662Y-71056308D02*
X341149662Y-71056308D01*
G75*
G02*
X340909662Y-70816308I0J240000D01*
G01*
X340909662Y-70096308D01*
G75*
G02*
X341149662Y-69856308I240000J0D01*
G01*
X342269662Y-69856308D01*
G75*
G02*
X342509662Y-70096308I0J-240000D01*
G01*
X342509662Y-70816308D01*
G75*
G02*
X342269662Y-71056308I-240000J0D01*
G01*
G37*
G36*
G01*
X342269662Y-68256308D02*
X341149662Y-68256308D01*
G75*
G02*
X340909662Y-68016308I0J240000D01*
G01*
X340909662Y-67296308D01*
G75*
G02*
X341149662Y-67056308I240000J0D01*
G01*
X342269662Y-67056308D01*
G75*
G02*
X342509662Y-67296308I0J-240000D01*
G01*
X342509662Y-68016308D01*
G75*
G02*
X342269662Y-68256308I-240000J0D01*
G01*
G37*
%TD*%
%TO.C,D76*%
G36*
G01*
X263688346Y-52006292D02*
X262568346Y-52006292D01*
G75*
G02*
X262328346Y-51766292I0J240000D01*
G01*
X262328346Y-51046292D01*
G75*
G02*
X262568346Y-50806292I240000J0D01*
G01*
X263688346Y-50806292D01*
G75*
G02*
X263928346Y-51046292I0J-240000D01*
G01*
X263928346Y-51766292D01*
G75*
G02*
X263688346Y-52006292I-240000J0D01*
G01*
G37*
G36*
G01*
X263688346Y-49206292D02*
X262568346Y-49206292D01*
G75*
G02*
X262328346Y-48966292I0J240000D01*
G01*
X262328346Y-48246292D01*
G75*
G02*
X262568346Y-48006292I240000J0D01*
G01*
X263688346Y-48006292D01*
G75*
G02*
X263928346Y-48246292I0J-240000D01*
G01*
X263928346Y-48966292D01*
G75*
G02*
X263688346Y-49206292I-240000J0D01*
G01*
G37*
%TD*%
%TO.C,D75*%
G36*
G01*
X273213354Y-128206356D02*
X272093354Y-128206356D01*
G75*
G02*
X271853354Y-127966356I0J240000D01*
G01*
X271853354Y-127246356D01*
G75*
G02*
X272093354Y-127006356I240000J0D01*
G01*
X273213354Y-127006356D01*
G75*
G02*
X273453354Y-127246356I0J-240000D01*
G01*
X273453354Y-127966356D01*
G75*
G02*
X273213354Y-128206356I-240000J0D01*
G01*
G37*
G36*
G01*
X273213354Y-125406356D02*
X272093354Y-125406356D01*
G75*
G02*
X271853354Y-125166356I0J240000D01*
G01*
X271853354Y-124446356D01*
G75*
G02*
X272093354Y-124206356I240000J0D01*
G01*
X273213354Y-124206356D01*
G75*
G02*
X273453354Y-124446356I0J-240000D01*
G01*
X273453354Y-125166356D01*
G75*
G02*
X273213354Y-125406356I-240000J0D01*
G01*
G37*
%TD*%
%TO.C,D74*%
G36*
G01*
X252972712Y-109156340D02*
X251852712Y-109156340D01*
G75*
G02*
X251612712Y-108916340I0J240000D01*
G01*
X251612712Y-108196340D01*
G75*
G02*
X251852712Y-107956340I240000J0D01*
G01*
X252972712Y-107956340D01*
G75*
G02*
X253212712Y-108196340I0J-240000D01*
G01*
X253212712Y-108916340D01*
G75*
G02*
X252972712Y-109156340I-240000J0D01*
G01*
G37*
G36*
G01*
X252972712Y-106356340D02*
X251852712Y-106356340D01*
G75*
G02*
X251612712Y-106116340I0J240000D01*
G01*
X251612712Y-105396340D01*
G75*
G02*
X251852712Y-105156340I240000J0D01*
G01*
X252972712Y-105156340D01*
G75*
G02*
X253212712Y-105396340I0J-240000D01*
G01*
X253212712Y-106116340D01*
G75*
G02*
X252972712Y-106356340I-240000J0D01*
G01*
G37*
%TD*%
%TO.C,D73*%
G36*
G01*
X258925842Y-90106324D02*
X257805842Y-90106324D01*
G75*
G02*
X257565842Y-89866324I0J240000D01*
G01*
X257565842Y-89146324D01*
G75*
G02*
X257805842Y-88906324I240000J0D01*
G01*
X258925842Y-88906324D01*
G75*
G02*
X259165842Y-89146324I0J-240000D01*
G01*
X259165842Y-89866324D01*
G75*
G02*
X258925842Y-90106324I-240000J0D01*
G01*
G37*
G36*
G01*
X258925842Y-87306324D02*
X257805842Y-87306324D01*
G75*
G02*
X257565842Y-87066324I0J240000D01*
G01*
X257565842Y-86346324D01*
G75*
G02*
X257805842Y-86106324I240000J0D01*
G01*
X258925842Y-86106324D01*
G75*
G02*
X259165842Y-86346324I0J-240000D01*
G01*
X259165842Y-87066324D01*
G75*
G02*
X258925842Y-87306324I-240000J0D01*
G01*
G37*
%TD*%
%TO.C,D72*%
G36*
G01*
X273213354Y-71056308D02*
X272093354Y-71056308D01*
G75*
G02*
X271853354Y-70816308I0J240000D01*
G01*
X271853354Y-70096308D01*
G75*
G02*
X272093354Y-69856308I240000J0D01*
G01*
X273213354Y-69856308D01*
G75*
G02*
X273453354Y-70096308I0J-240000D01*
G01*
X273453354Y-70816308D01*
G75*
G02*
X273213354Y-71056308I-240000J0D01*
G01*
G37*
G36*
G01*
X273213354Y-68256308D02*
X272093354Y-68256308D01*
G75*
G02*
X271853354Y-68016308I0J240000D01*
G01*
X271853354Y-67296308D01*
G75*
G02*
X272093354Y-67056308I240000J0D01*
G01*
X273213354Y-67056308D01*
G75*
G02*
X273453354Y-67296308I0J-240000D01*
G01*
X273453354Y-68016308D01*
G75*
G02*
X273213354Y-68256308I-240000J0D01*
G01*
G37*
%TD*%
%TO.C,D71*%
G36*
G01*
X261307094Y-52006292D02*
X260187094Y-52006292D01*
G75*
G02*
X259947094Y-51766292I0J240000D01*
G01*
X259947094Y-51046292D01*
G75*
G02*
X260187094Y-50806292I240000J0D01*
G01*
X261307094Y-50806292D01*
G75*
G02*
X261547094Y-51046292I0J-240000D01*
G01*
X261547094Y-51766292D01*
G75*
G02*
X261307094Y-52006292I-240000J0D01*
G01*
G37*
G36*
G01*
X261307094Y-49206292D02*
X260187094Y-49206292D01*
G75*
G02*
X259947094Y-48966292I0J240000D01*
G01*
X259947094Y-48246292D01*
G75*
G02*
X260187094Y-48006292I240000J0D01*
G01*
X261307094Y-48006292D01*
G75*
G02*
X261547094Y-48246292I0J-240000D01*
G01*
X261547094Y-48966292D01*
G75*
G02*
X261307094Y-49206292I-240000J0D01*
G01*
G37*
%TD*%
%TO.C,D70*%
G36*
G01*
X281547500Y-28193750D02*
X280427500Y-28193750D01*
G75*
G02*
X280187500Y-27953750I0J240000D01*
G01*
X280187500Y-27233750D01*
G75*
G02*
X280427500Y-26993750I240000J0D01*
G01*
X281547500Y-26993750D01*
G75*
G02*
X281787500Y-27233750I0J-240000D01*
G01*
X281787500Y-27953750D01*
G75*
G02*
X281547500Y-28193750I-240000J0D01*
G01*
G37*
G36*
G01*
X281547500Y-25393750D02*
X280427500Y-25393750D01*
G75*
G02*
X280187500Y-25153750I0J240000D01*
G01*
X280187500Y-24433750D01*
G75*
G02*
X280427500Y-24193750I240000J0D01*
G01*
X281547500Y-24193750D01*
G75*
G02*
X281787500Y-24433750I0J-240000D01*
G01*
X281787500Y-25153750D01*
G75*
G02*
X281547500Y-25393750I-240000J0D01*
G01*
G37*
%TD*%
%TO.C,D69*%
G36*
G01*
X252972712Y-128206356D02*
X251852712Y-128206356D01*
G75*
G02*
X251612712Y-127966356I0J240000D01*
G01*
X251612712Y-127246356D01*
G75*
G02*
X251852712Y-127006356I240000J0D01*
G01*
X252972712Y-127006356D01*
G75*
G02*
X253212712Y-127246356I0J-240000D01*
G01*
X253212712Y-127966356D01*
G75*
G02*
X252972712Y-128206356I-240000J0D01*
G01*
G37*
G36*
G01*
X252972712Y-125406356D02*
X251852712Y-125406356D01*
G75*
G02*
X251612712Y-125166356I0J240000D01*
G01*
X251612712Y-124446356D01*
G75*
G02*
X251852712Y-124206356I240000J0D01*
G01*
X252972712Y-124206356D01*
G75*
G02*
X253212712Y-124446356I0J-240000D01*
G01*
X253212712Y-125166356D01*
G75*
G02*
X252972712Y-125406356I-240000J0D01*
G01*
G37*
%TD*%
%TO.C,D68*%
G36*
G01*
X250591460Y-109156340D02*
X249471460Y-109156340D01*
G75*
G02*
X249231460Y-108916340I0J240000D01*
G01*
X249231460Y-108196340D01*
G75*
G02*
X249471460Y-107956340I240000J0D01*
G01*
X250591460Y-107956340D01*
G75*
G02*
X250831460Y-108196340I0J-240000D01*
G01*
X250831460Y-108916340D01*
G75*
G02*
X250591460Y-109156340I-240000J0D01*
G01*
G37*
G36*
G01*
X250591460Y-106356340D02*
X249471460Y-106356340D01*
G75*
G02*
X249231460Y-106116340I0J240000D01*
G01*
X249231460Y-105396340D01*
G75*
G02*
X249471460Y-105156340I240000J0D01*
G01*
X250591460Y-105156340D01*
G75*
G02*
X250831460Y-105396340I0J-240000D01*
G01*
X250831460Y-106116340D01*
G75*
G02*
X250591460Y-106356340I-240000J0D01*
G01*
G37*
%TD*%
%TO.C,D67*%
G36*
G01*
X270832102Y-71056308D02*
X269712102Y-71056308D01*
G75*
G02*
X269472102Y-70816308I0J240000D01*
G01*
X269472102Y-70096308D01*
G75*
G02*
X269712102Y-69856308I240000J0D01*
G01*
X270832102Y-69856308D01*
G75*
G02*
X271072102Y-70096308I0J-240000D01*
G01*
X271072102Y-70816308D01*
G75*
G02*
X270832102Y-71056308I-240000J0D01*
G01*
G37*
G36*
G01*
X270832102Y-68256308D02*
X269712102Y-68256308D01*
G75*
G02*
X269472102Y-68016308I0J240000D01*
G01*
X269472102Y-67296308D01*
G75*
G02*
X269712102Y-67056308I240000J0D01*
G01*
X270832102Y-67056308D01*
G75*
G02*
X271072102Y-67296308I0J-240000D01*
G01*
X271072102Y-68016308D01*
G75*
G02*
X270832102Y-68256308I-240000J0D01*
G01*
G37*
%TD*%
%TO.C,D66*%
G36*
G01*
X244638330Y-52006292D02*
X243518330Y-52006292D01*
G75*
G02*
X243278330Y-51766292I0J240000D01*
G01*
X243278330Y-51046292D01*
G75*
G02*
X243518330Y-50806292I240000J0D01*
G01*
X244638330Y-50806292D01*
G75*
G02*
X244878330Y-51046292I0J-240000D01*
G01*
X244878330Y-51766292D01*
G75*
G02*
X244638330Y-52006292I-240000J0D01*
G01*
G37*
G36*
G01*
X244638330Y-49206292D02*
X243518330Y-49206292D01*
G75*
G02*
X243278330Y-48966292I0J240000D01*
G01*
X243278330Y-48246292D01*
G75*
G02*
X243518330Y-48006292I240000J0D01*
G01*
X244638330Y-48006292D01*
G75*
G02*
X244878330Y-48246292I0J-240000D01*
G01*
X244878330Y-48966292D01*
G75*
G02*
X244638330Y-49206292I-240000J0D01*
G01*
G37*
%TD*%
%TO.C,D65*%
G36*
G01*
X279166250Y-28193750D02*
X278046250Y-28193750D01*
G75*
G02*
X277806250Y-27953750I0J240000D01*
G01*
X277806250Y-27233750D01*
G75*
G02*
X278046250Y-26993750I240000J0D01*
G01*
X279166250Y-26993750D01*
G75*
G02*
X279406250Y-27233750I0J-240000D01*
G01*
X279406250Y-27953750D01*
G75*
G02*
X279166250Y-28193750I-240000J0D01*
G01*
G37*
G36*
G01*
X279166250Y-25393750D02*
X278046250Y-25393750D01*
G75*
G02*
X277806250Y-25153750I0J240000D01*
G01*
X277806250Y-24433750D01*
G75*
G02*
X278046250Y-24193750I240000J0D01*
G01*
X279166250Y-24193750D01*
G75*
G02*
X279406250Y-24433750I0J-240000D01*
G01*
X279406250Y-25153750D01*
G75*
G02*
X279166250Y-25393750I-240000J0D01*
G01*
G37*
%TD*%
%TO.C,D64*%
G36*
G01*
X248210208Y-109156340D02*
X247090208Y-109156340D01*
G75*
G02*
X246850208Y-108916340I0J240000D01*
G01*
X246850208Y-108196340D01*
G75*
G02*
X247090208Y-107956340I240000J0D01*
G01*
X248210208Y-107956340D01*
G75*
G02*
X248450208Y-108196340I0J-240000D01*
G01*
X248450208Y-108916340D01*
G75*
G02*
X248210208Y-109156340I-240000J0D01*
G01*
G37*
G36*
G01*
X248210208Y-106356340D02*
X247090208Y-106356340D01*
G75*
G02*
X246850208Y-106116340I0J240000D01*
G01*
X246850208Y-105396340D01*
G75*
G02*
X247090208Y-105156340I240000J0D01*
G01*
X248210208Y-105156340D01*
G75*
G02*
X248450208Y-105396340I0J-240000D01*
G01*
X248450208Y-106116340D01*
G75*
G02*
X248210208Y-106356340I-240000J0D01*
G01*
G37*
%TD*%
%TO.C,D63*%
G36*
G01*
X256544590Y-90106324D02*
X255424590Y-90106324D01*
G75*
G02*
X255184590Y-89866324I0J240000D01*
G01*
X255184590Y-89146324D01*
G75*
G02*
X255424590Y-88906324I240000J0D01*
G01*
X256544590Y-88906324D01*
G75*
G02*
X256784590Y-89146324I0J-240000D01*
G01*
X256784590Y-89866324D01*
G75*
G02*
X256544590Y-90106324I-240000J0D01*
G01*
G37*
G36*
G01*
X256544590Y-87306324D02*
X255424590Y-87306324D01*
G75*
G02*
X255184590Y-87066324I0J240000D01*
G01*
X255184590Y-86346324D01*
G75*
G02*
X255424590Y-86106324I240000J0D01*
G01*
X256544590Y-86106324D01*
G75*
G02*
X256784590Y-86346324I0J-240000D01*
G01*
X256784590Y-87066324D01*
G75*
G02*
X256544590Y-87306324I-240000J0D01*
G01*
G37*
%TD*%
%TO.C,D62*%
G36*
G01*
X252972712Y-71056308D02*
X251852712Y-71056308D01*
G75*
G02*
X251612712Y-70816308I0J240000D01*
G01*
X251612712Y-70096308D01*
G75*
G02*
X251852712Y-69856308I240000J0D01*
G01*
X252972712Y-69856308D01*
G75*
G02*
X253212712Y-70096308I0J-240000D01*
G01*
X253212712Y-70816308D01*
G75*
G02*
X252972712Y-71056308I-240000J0D01*
G01*
G37*
G36*
G01*
X252972712Y-68256308D02*
X251852712Y-68256308D01*
G75*
G02*
X251612712Y-68016308I0J240000D01*
G01*
X251612712Y-67296308D01*
G75*
G02*
X251852712Y-67056308I240000J0D01*
G01*
X252972712Y-67056308D01*
G75*
G02*
X253212712Y-67296308I0J-240000D01*
G01*
X253212712Y-68016308D01*
G75*
G02*
X252972712Y-68256308I-240000J0D01*
G01*
G37*
%TD*%
%TO.C,D61*%
G36*
G01*
X242257078Y-52006292D02*
X241137078Y-52006292D01*
G75*
G02*
X240897078Y-51766292I0J240000D01*
G01*
X240897078Y-51046292D01*
G75*
G02*
X241137078Y-50806292I240000J0D01*
G01*
X242257078Y-50806292D01*
G75*
G02*
X242497078Y-51046292I0J-240000D01*
G01*
X242497078Y-51766292D01*
G75*
G02*
X242257078Y-52006292I-240000J0D01*
G01*
G37*
G36*
G01*
X242257078Y-49206292D02*
X241137078Y-49206292D01*
G75*
G02*
X240897078Y-48966292I0J240000D01*
G01*
X240897078Y-48246292D01*
G75*
G02*
X241137078Y-48006292I240000J0D01*
G01*
X242257078Y-48006292D01*
G75*
G02*
X242497078Y-48246292I0J-240000D01*
G01*
X242497078Y-48966292D01*
G75*
G02*
X242257078Y-49206292I-240000J0D01*
G01*
G37*
%TD*%
%TO.C,D60*%
G36*
G01*
X260116250Y-28193750D02*
X258996250Y-28193750D01*
G75*
G02*
X258756250Y-27953750I0J240000D01*
G01*
X258756250Y-27233750D01*
G75*
G02*
X258996250Y-26993750I240000J0D01*
G01*
X260116250Y-26993750D01*
G75*
G02*
X260356250Y-27233750I0J-240000D01*
G01*
X260356250Y-27953750D01*
G75*
G02*
X260116250Y-28193750I-240000J0D01*
G01*
G37*
G36*
G01*
X260116250Y-25393750D02*
X258996250Y-25393750D01*
G75*
G02*
X258756250Y-25153750I0J240000D01*
G01*
X258756250Y-24433750D01*
G75*
G02*
X258996250Y-24193750I240000J0D01*
G01*
X260116250Y-24193750D01*
G75*
G02*
X260356250Y-24433750I0J-240000D01*
G01*
X260356250Y-25153750D01*
G75*
G02*
X260116250Y-25393750I-240000J0D01*
G01*
G37*
%TD*%
%TO.C,D59*%
G36*
G01*
X229160192Y-109156340D02*
X228040192Y-109156340D01*
G75*
G02*
X227800192Y-108916340I0J240000D01*
G01*
X227800192Y-108196340D01*
G75*
G02*
X228040192Y-107956340I240000J0D01*
G01*
X229160192Y-107956340D01*
G75*
G02*
X229400192Y-108196340I0J-240000D01*
G01*
X229400192Y-108916340D01*
G75*
G02*
X229160192Y-109156340I-240000J0D01*
G01*
G37*
G36*
G01*
X229160192Y-106356340D02*
X228040192Y-106356340D01*
G75*
G02*
X227800192Y-106116340I0J240000D01*
G01*
X227800192Y-105396340D01*
G75*
G02*
X228040192Y-105156340I240000J0D01*
G01*
X229160192Y-105156340D01*
G75*
G02*
X229400192Y-105396340I0J-240000D01*
G01*
X229400192Y-106116340D01*
G75*
G02*
X229160192Y-106356340I-240000J0D01*
G01*
G37*
%TD*%
%TO.C,D58*%
G36*
G01*
X238685200Y-90106324D02*
X237565200Y-90106324D01*
G75*
G02*
X237325200Y-89866324I0J240000D01*
G01*
X237325200Y-89146324D01*
G75*
G02*
X237565200Y-88906324I240000J0D01*
G01*
X238685200Y-88906324D01*
G75*
G02*
X238925200Y-89146324I0J-240000D01*
G01*
X238925200Y-89866324D01*
G75*
G02*
X238685200Y-90106324I-240000J0D01*
G01*
G37*
G36*
G01*
X238685200Y-87306324D02*
X237565200Y-87306324D01*
G75*
G02*
X237325200Y-87066324I0J240000D01*
G01*
X237325200Y-86346324D01*
G75*
G02*
X237565200Y-86106324I240000J0D01*
G01*
X238685200Y-86106324D01*
G75*
G02*
X238925200Y-86346324I0J-240000D01*
G01*
X238925200Y-87066324D01*
G75*
G02*
X238685200Y-87306324I-240000J0D01*
G01*
G37*
%TD*%
%TO.C,D57*%
G36*
G01*
X233922696Y-71056308D02*
X232802696Y-71056308D01*
G75*
G02*
X232562696Y-70816308I0J240000D01*
G01*
X232562696Y-70096308D01*
G75*
G02*
X232802696Y-69856308I240000J0D01*
G01*
X233922696Y-69856308D01*
G75*
G02*
X234162696Y-70096308I0J-240000D01*
G01*
X234162696Y-70816308D01*
G75*
G02*
X233922696Y-71056308I-240000J0D01*
G01*
G37*
G36*
G01*
X233922696Y-68256308D02*
X232802696Y-68256308D01*
G75*
G02*
X232562696Y-68016308I0J240000D01*
G01*
X232562696Y-67296308D01*
G75*
G02*
X232802696Y-67056308I240000J0D01*
G01*
X233922696Y-67056308D01*
G75*
G02*
X234162696Y-67296308I0J-240000D01*
G01*
X234162696Y-68016308D01*
G75*
G02*
X233922696Y-68256308I-240000J0D01*
G01*
G37*
%TD*%
%TO.C,D56*%
G36*
G01*
X224397688Y-52006292D02*
X223277688Y-52006292D01*
G75*
G02*
X223037688Y-51766292I0J240000D01*
G01*
X223037688Y-51046292D01*
G75*
G02*
X223277688Y-50806292I240000J0D01*
G01*
X224397688Y-50806292D01*
G75*
G02*
X224637688Y-51046292I0J-240000D01*
G01*
X224637688Y-51766292D01*
G75*
G02*
X224397688Y-52006292I-240000J0D01*
G01*
G37*
G36*
G01*
X224397688Y-49206292D02*
X223277688Y-49206292D01*
G75*
G02*
X223037688Y-48966292I0J240000D01*
G01*
X223037688Y-48246292D01*
G75*
G02*
X223277688Y-48006292I240000J0D01*
G01*
X224397688Y-48006292D01*
G75*
G02*
X224637688Y-48246292I0J-240000D01*
G01*
X224637688Y-48966292D01*
G75*
G02*
X224397688Y-49206292I-240000J0D01*
G01*
G37*
%TD*%
%TO.C,D55*%
G36*
G01*
X241066250Y-28193750D02*
X239946250Y-28193750D01*
G75*
G02*
X239706250Y-27953750I0J240000D01*
G01*
X239706250Y-27233750D01*
G75*
G02*
X239946250Y-26993750I240000J0D01*
G01*
X241066250Y-26993750D01*
G75*
G02*
X241306250Y-27233750I0J-240000D01*
G01*
X241306250Y-27953750D01*
G75*
G02*
X241066250Y-28193750I-240000J0D01*
G01*
G37*
G36*
G01*
X241066250Y-25393750D02*
X239946250Y-25393750D01*
G75*
G02*
X239706250Y-25153750I0J240000D01*
G01*
X239706250Y-24433750D01*
G75*
G02*
X239946250Y-24193750I240000J0D01*
G01*
X241066250Y-24193750D01*
G75*
G02*
X241306250Y-24433750I0J-240000D01*
G01*
X241306250Y-25153750D01*
G75*
G02*
X241066250Y-25393750I-240000J0D01*
G01*
G37*
%TD*%
%TO.C,D54*%
G36*
G01*
X210110176Y-109156340D02*
X208990176Y-109156340D01*
G75*
G02*
X208750176Y-108916340I0J240000D01*
G01*
X208750176Y-108196340D01*
G75*
G02*
X208990176Y-107956340I240000J0D01*
G01*
X210110176Y-107956340D01*
G75*
G02*
X210350176Y-108196340I0J-240000D01*
G01*
X210350176Y-108916340D01*
G75*
G02*
X210110176Y-109156340I-240000J0D01*
G01*
G37*
G36*
G01*
X210110176Y-106356340D02*
X208990176Y-106356340D01*
G75*
G02*
X208750176Y-106116340I0J240000D01*
G01*
X208750176Y-105396340D01*
G75*
G02*
X208990176Y-105156340I240000J0D01*
G01*
X210110176Y-105156340D01*
G75*
G02*
X210350176Y-105396340I0J-240000D01*
G01*
X210350176Y-106116340D01*
G75*
G02*
X210110176Y-106356340I-240000J0D01*
G01*
G37*
%TD*%
%TO.C,D53*%
G36*
G01*
X219635184Y-90106324D02*
X218515184Y-90106324D01*
G75*
G02*
X218275184Y-89866324I0J240000D01*
G01*
X218275184Y-89146324D01*
G75*
G02*
X218515184Y-88906324I240000J0D01*
G01*
X219635184Y-88906324D01*
G75*
G02*
X219875184Y-89146324I0J-240000D01*
G01*
X219875184Y-89866324D01*
G75*
G02*
X219635184Y-90106324I-240000J0D01*
G01*
G37*
G36*
G01*
X219635184Y-87306324D02*
X218515184Y-87306324D01*
G75*
G02*
X218275184Y-87066324I0J240000D01*
G01*
X218275184Y-86346324D01*
G75*
G02*
X218515184Y-86106324I240000J0D01*
G01*
X219635184Y-86106324D01*
G75*
G02*
X219875184Y-86346324I0J-240000D01*
G01*
X219875184Y-87066324D01*
G75*
G02*
X219635184Y-87306324I-240000J0D01*
G01*
G37*
%TD*%
%TO.C,D52*%
G36*
G01*
X214872680Y-71056308D02*
X213752680Y-71056308D01*
G75*
G02*
X213512680Y-70816308I0J240000D01*
G01*
X213512680Y-70096308D01*
G75*
G02*
X213752680Y-69856308I240000J0D01*
G01*
X214872680Y-69856308D01*
G75*
G02*
X215112680Y-70096308I0J-240000D01*
G01*
X215112680Y-70816308D01*
G75*
G02*
X214872680Y-71056308I-240000J0D01*
G01*
G37*
G36*
G01*
X214872680Y-68256308D02*
X213752680Y-68256308D01*
G75*
G02*
X213512680Y-68016308I0J240000D01*
G01*
X213512680Y-67296308D01*
G75*
G02*
X213752680Y-67056308I240000J0D01*
G01*
X214872680Y-67056308D01*
G75*
G02*
X215112680Y-67296308I0J-240000D01*
G01*
X215112680Y-68016308D01*
G75*
G02*
X214872680Y-68256308I-240000J0D01*
G01*
G37*
%TD*%
%TO.C,D51*%
G36*
G01*
X205347672Y-52006292D02*
X204227672Y-52006292D01*
G75*
G02*
X203987672Y-51766292I0J240000D01*
G01*
X203987672Y-51046292D01*
G75*
G02*
X204227672Y-50806292I240000J0D01*
G01*
X205347672Y-50806292D01*
G75*
G02*
X205587672Y-51046292I0J-240000D01*
G01*
X205587672Y-51766292D01*
G75*
G02*
X205347672Y-52006292I-240000J0D01*
G01*
G37*
G36*
G01*
X205347672Y-49206292D02*
X204227672Y-49206292D01*
G75*
G02*
X203987672Y-48966292I0J240000D01*
G01*
X203987672Y-48246292D01*
G75*
G02*
X204227672Y-48006292I240000J0D01*
G01*
X205347672Y-48006292D01*
G75*
G02*
X205587672Y-48246292I0J-240000D01*
G01*
X205587672Y-48966292D01*
G75*
G02*
X205347672Y-49206292I-240000J0D01*
G01*
G37*
%TD*%
%TO.C,D50*%
G36*
G01*
X219635000Y-28193750D02*
X218515000Y-28193750D01*
G75*
G02*
X218275000Y-27953750I0J240000D01*
G01*
X218275000Y-27233750D01*
G75*
G02*
X218515000Y-26993750I240000J0D01*
G01*
X219635000Y-26993750D01*
G75*
G02*
X219875000Y-27233750I0J-240000D01*
G01*
X219875000Y-27953750D01*
G75*
G02*
X219635000Y-28193750I-240000J0D01*
G01*
G37*
G36*
G01*
X219635000Y-25393750D02*
X218515000Y-25393750D01*
G75*
G02*
X218275000Y-25153750I0J240000D01*
G01*
X218275000Y-24433750D01*
G75*
G02*
X218515000Y-24193750I240000J0D01*
G01*
X219635000Y-24193750D01*
G75*
G02*
X219875000Y-24433750I0J-240000D01*
G01*
X219875000Y-25153750D01*
G75*
G02*
X219635000Y-25393750I-240000J0D01*
G01*
G37*
%TD*%
%TO.C,D49*%
G36*
G01*
X191060160Y-109156340D02*
X189940160Y-109156340D01*
G75*
G02*
X189700160Y-108916340I0J240000D01*
G01*
X189700160Y-108196340D01*
G75*
G02*
X189940160Y-107956340I240000J0D01*
G01*
X191060160Y-107956340D01*
G75*
G02*
X191300160Y-108196340I0J-240000D01*
G01*
X191300160Y-108916340D01*
G75*
G02*
X191060160Y-109156340I-240000J0D01*
G01*
G37*
G36*
G01*
X191060160Y-106356340D02*
X189940160Y-106356340D01*
G75*
G02*
X189700160Y-106116340I0J240000D01*
G01*
X189700160Y-105396340D01*
G75*
G02*
X189940160Y-105156340I240000J0D01*
G01*
X191060160Y-105156340D01*
G75*
G02*
X191300160Y-105396340I0J-240000D01*
G01*
X191300160Y-106116340D01*
G75*
G02*
X191060160Y-106356340I-240000J0D01*
G01*
G37*
%TD*%
%TO.C,D48*%
G36*
G01*
X200585168Y-90106324D02*
X199465168Y-90106324D01*
G75*
G02*
X199225168Y-89866324I0J240000D01*
G01*
X199225168Y-89146324D01*
G75*
G02*
X199465168Y-88906324I240000J0D01*
G01*
X200585168Y-88906324D01*
G75*
G02*
X200825168Y-89146324I0J-240000D01*
G01*
X200825168Y-89866324D01*
G75*
G02*
X200585168Y-90106324I-240000J0D01*
G01*
G37*
G36*
G01*
X200585168Y-87306324D02*
X199465168Y-87306324D01*
G75*
G02*
X199225168Y-87066324I0J240000D01*
G01*
X199225168Y-86346324D01*
G75*
G02*
X199465168Y-86106324I240000J0D01*
G01*
X200585168Y-86106324D01*
G75*
G02*
X200825168Y-86346324I0J-240000D01*
G01*
X200825168Y-87066324D01*
G75*
G02*
X200585168Y-87306324I-240000J0D01*
G01*
G37*
%TD*%
%TO.C,D47*%
G36*
G01*
X195822664Y-71056308D02*
X194702664Y-71056308D01*
G75*
G02*
X194462664Y-70816308I0J240000D01*
G01*
X194462664Y-70096308D01*
G75*
G02*
X194702664Y-69856308I240000J0D01*
G01*
X195822664Y-69856308D01*
G75*
G02*
X196062664Y-70096308I0J-240000D01*
G01*
X196062664Y-70816308D01*
G75*
G02*
X195822664Y-71056308I-240000J0D01*
G01*
G37*
G36*
G01*
X195822664Y-68256308D02*
X194702664Y-68256308D01*
G75*
G02*
X194462664Y-68016308I0J240000D01*
G01*
X194462664Y-67296308D01*
G75*
G02*
X194702664Y-67056308I240000J0D01*
G01*
X195822664Y-67056308D01*
G75*
G02*
X196062664Y-67296308I0J-240000D01*
G01*
X196062664Y-68016308D01*
G75*
G02*
X195822664Y-68256308I-240000J0D01*
G01*
G37*
%TD*%
%TO.C,D46*%
G36*
G01*
X186297656Y-52006292D02*
X185177656Y-52006292D01*
G75*
G02*
X184937656Y-51766292I0J240000D01*
G01*
X184937656Y-51046292D01*
G75*
G02*
X185177656Y-50806292I240000J0D01*
G01*
X186297656Y-50806292D01*
G75*
G02*
X186537656Y-51046292I0J-240000D01*
G01*
X186537656Y-51766292D01*
G75*
G02*
X186297656Y-52006292I-240000J0D01*
G01*
G37*
G36*
G01*
X186297656Y-49206292D02*
X185177656Y-49206292D01*
G75*
G02*
X184937656Y-48966292I0J240000D01*
G01*
X184937656Y-48246292D01*
G75*
G02*
X185177656Y-48006292I240000J0D01*
G01*
X186297656Y-48006292D01*
G75*
G02*
X186537656Y-48246292I0J-240000D01*
G01*
X186537656Y-48966292D01*
G75*
G02*
X186297656Y-49206292I-240000J0D01*
G01*
G37*
%TD*%
%TO.C,D45*%
G36*
G01*
X195822500Y-28193750D02*
X194702500Y-28193750D01*
G75*
G02*
X194462500Y-27953750I0J240000D01*
G01*
X194462500Y-27233750D01*
G75*
G02*
X194702500Y-26993750I240000J0D01*
G01*
X195822500Y-26993750D01*
G75*
G02*
X196062500Y-27233750I0J-240000D01*
G01*
X196062500Y-27953750D01*
G75*
G02*
X195822500Y-28193750I-240000J0D01*
G01*
G37*
G36*
G01*
X195822500Y-25393750D02*
X194702500Y-25393750D01*
G75*
G02*
X194462500Y-25153750I0J240000D01*
G01*
X194462500Y-24433750D01*
G75*
G02*
X194702500Y-24193750I240000J0D01*
G01*
X195822500Y-24193750D01*
G75*
G02*
X196062500Y-24433750I0J-240000D01*
G01*
X196062500Y-25153750D01*
G75*
G02*
X195822500Y-25393750I-240000J0D01*
G01*
G37*
%TD*%
%TO.C,D44*%
G36*
G01*
X167247640Y-128206356D02*
X166127640Y-128206356D01*
G75*
G02*
X165887640Y-127966356I0J240000D01*
G01*
X165887640Y-127246356D01*
G75*
G02*
X166127640Y-127006356I240000J0D01*
G01*
X167247640Y-127006356D01*
G75*
G02*
X167487640Y-127246356I0J-240000D01*
G01*
X167487640Y-127966356D01*
G75*
G02*
X167247640Y-128206356I-240000J0D01*
G01*
G37*
G36*
G01*
X167247640Y-125406356D02*
X166127640Y-125406356D01*
G75*
G02*
X165887640Y-125166356I0J240000D01*
G01*
X165887640Y-124446356D01*
G75*
G02*
X166127640Y-124206356I240000J0D01*
G01*
X167247640Y-124206356D01*
G75*
G02*
X167487640Y-124446356I0J-240000D01*
G01*
X167487640Y-125166356D01*
G75*
G02*
X167247640Y-125406356I-240000J0D01*
G01*
G37*
%TD*%
%TO.C,D43*%
G36*
G01*
X172010144Y-109156340D02*
X170890144Y-109156340D01*
G75*
G02*
X170650144Y-108916340I0J240000D01*
G01*
X170650144Y-108196340D01*
G75*
G02*
X170890144Y-107956340I240000J0D01*
G01*
X172010144Y-107956340D01*
G75*
G02*
X172250144Y-108196340I0J-240000D01*
G01*
X172250144Y-108916340D01*
G75*
G02*
X172010144Y-109156340I-240000J0D01*
G01*
G37*
G36*
G01*
X172010144Y-106356340D02*
X170890144Y-106356340D01*
G75*
G02*
X170650144Y-106116340I0J240000D01*
G01*
X170650144Y-105396340D01*
G75*
G02*
X170890144Y-105156340I240000J0D01*
G01*
X172010144Y-105156340D01*
G75*
G02*
X172250144Y-105396340I0J-240000D01*
G01*
X172250144Y-106116340D01*
G75*
G02*
X172010144Y-106356340I-240000J0D01*
G01*
G37*
%TD*%
%TO.C,D42*%
G36*
G01*
X181535152Y-90106324D02*
X180415152Y-90106324D01*
G75*
G02*
X180175152Y-89866324I0J240000D01*
G01*
X180175152Y-89146324D01*
G75*
G02*
X180415152Y-88906324I240000J0D01*
G01*
X181535152Y-88906324D01*
G75*
G02*
X181775152Y-89146324I0J-240000D01*
G01*
X181775152Y-89866324D01*
G75*
G02*
X181535152Y-90106324I-240000J0D01*
G01*
G37*
G36*
G01*
X181535152Y-87306324D02*
X180415152Y-87306324D01*
G75*
G02*
X180175152Y-87066324I0J240000D01*
G01*
X180175152Y-86346324D01*
G75*
G02*
X180415152Y-86106324I240000J0D01*
G01*
X181535152Y-86106324D01*
G75*
G02*
X181775152Y-86346324I0J-240000D01*
G01*
X181775152Y-87066324D01*
G75*
G02*
X181535152Y-87306324I-240000J0D01*
G01*
G37*
%TD*%
%TO.C,D41*%
G36*
G01*
X176772648Y-71056308D02*
X175652648Y-71056308D01*
G75*
G02*
X175412648Y-70816308I0J240000D01*
G01*
X175412648Y-70096308D01*
G75*
G02*
X175652648Y-69856308I240000J0D01*
G01*
X176772648Y-69856308D01*
G75*
G02*
X177012648Y-70096308I0J-240000D01*
G01*
X177012648Y-70816308D01*
G75*
G02*
X176772648Y-71056308I-240000J0D01*
G01*
G37*
G36*
G01*
X176772648Y-68256308D02*
X175652648Y-68256308D01*
G75*
G02*
X175412648Y-68016308I0J240000D01*
G01*
X175412648Y-67296308D01*
G75*
G02*
X175652648Y-67056308I240000J0D01*
G01*
X176772648Y-67056308D01*
G75*
G02*
X177012648Y-67296308I0J-240000D01*
G01*
X177012648Y-68016308D01*
G75*
G02*
X176772648Y-68256308I-240000J0D01*
G01*
G37*
%TD*%
%TO.C,D40*%
G36*
G01*
X167247640Y-52006292D02*
X166127640Y-52006292D01*
G75*
G02*
X165887640Y-51766292I0J240000D01*
G01*
X165887640Y-51046292D01*
G75*
G02*
X166127640Y-50806292I240000J0D01*
G01*
X167247640Y-50806292D01*
G75*
G02*
X167487640Y-51046292I0J-240000D01*
G01*
X167487640Y-51766292D01*
G75*
G02*
X167247640Y-52006292I-240000J0D01*
G01*
G37*
G36*
G01*
X167247640Y-49206292D02*
X166127640Y-49206292D01*
G75*
G02*
X165887640Y-48966292I0J240000D01*
G01*
X165887640Y-48246292D01*
G75*
G02*
X166127640Y-48006292I240000J0D01*
G01*
X167247640Y-48006292D01*
G75*
G02*
X167487640Y-48246292I0J-240000D01*
G01*
X167487640Y-48966292D01*
G75*
G02*
X167247640Y-49206292I-240000J0D01*
G01*
G37*
%TD*%
%TO.C,D39*%
G36*
G01*
X176772500Y-28193750D02*
X175652500Y-28193750D01*
G75*
G02*
X175412500Y-27953750I0J240000D01*
G01*
X175412500Y-27233750D01*
G75*
G02*
X175652500Y-26993750I240000J0D01*
G01*
X176772500Y-26993750D01*
G75*
G02*
X177012500Y-27233750I0J-240000D01*
G01*
X177012500Y-27953750D01*
G75*
G02*
X176772500Y-28193750I-240000J0D01*
G01*
G37*
G36*
G01*
X176772500Y-25393750D02*
X175652500Y-25393750D01*
G75*
G02*
X175412500Y-25153750I0J240000D01*
G01*
X175412500Y-24433750D01*
G75*
G02*
X175652500Y-24193750I240000J0D01*
G01*
X176772500Y-24193750D01*
G75*
G02*
X177012500Y-24433750I0J-240000D01*
G01*
X177012500Y-25153750D01*
G75*
G02*
X176772500Y-25393750I-240000J0D01*
G01*
G37*
%TD*%
%TO.C,D38*%
G36*
G01*
X152960128Y-109156340D02*
X151840128Y-109156340D01*
G75*
G02*
X151600128Y-108916340I0J240000D01*
G01*
X151600128Y-108196340D01*
G75*
G02*
X151840128Y-107956340I240000J0D01*
G01*
X152960128Y-107956340D01*
G75*
G02*
X153200128Y-108196340I0J-240000D01*
G01*
X153200128Y-108916340D01*
G75*
G02*
X152960128Y-109156340I-240000J0D01*
G01*
G37*
G36*
G01*
X152960128Y-106356340D02*
X151840128Y-106356340D01*
G75*
G02*
X151600128Y-106116340I0J240000D01*
G01*
X151600128Y-105396340D01*
G75*
G02*
X151840128Y-105156340I240000J0D01*
G01*
X152960128Y-105156340D01*
G75*
G02*
X153200128Y-105396340I0J-240000D01*
G01*
X153200128Y-106116340D01*
G75*
G02*
X152960128Y-106356340I-240000J0D01*
G01*
G37*
%TD*%
%TO.C,D37*%
G36*
G01*
X162485136Y-90106324D02*
X161365136Y-90106324D01*
G75*
G02*
X161125136Y-89866324I0J240000D01*
G01*
X161125136Y-89146324D01*
G75*
G02*
X161365136Y-88906324I240000J0D01*
G01*
X162485136Y-88906324D01*
G75*
G02*
X162725136Y-89146324I0J-240000D01*
G01*
X162725136Y-89866324D01*
G75*
G02*
X162485136Y-90106324I-240000J0D01*
G01*
G37*
G36*
G01*
X162485136Y-87306324D02*
X161365136Y-87306324D01*
G75*
G02*
X161125136Y-87066324I0J240000D01*
G01*
X161125136Y-86346324D01*
G75*
G02*
X161365136Y-86106324I240000J0D01*
G01*
X162485136Y-86106324D01*
G75*
G02*
X162725136Y-86346324I0J-240000D01*
G01*
X162725136Y-87066324D01*
G75*
G02*
X162485136Y-87306324I-240000J0D01*
G01*
G37*
%TD*%
%TO.C,D36*%
G36*
G01*
X157722632Y-71056308D02*
X156602632Y-71056308D01*
G75*
G02*
X156362632Y-70816308I0J240000D01*
G01*
X156362632Y-70096308D01*
G75*
G02*
X156602632Y-69856308I240000J0D01*
G01*
X157722632Y-69856308D01*
G75*
G02*
X157962632Y-70096308I0J-240000D01*
G01*
X157962632Y-70816308D01*
G75*
G02*
X157722632Y-71056308I-240000J0D01*
G01*
G37*
G36*
G01*
X157722632Y-68256308D02*
X156602632Y-68256308D01*
G75*
G02*
X156362632Y-68016308I0J240000D01*
G01*
X156362632Y-67296308D01*
G75*
G02*
X156602632Y-67056308I240000J0D01*
G01*
X157722632Y-67056308D01*
G75*
G02*
X157962632Y-67296308I0J-240000D01*
G01*
X157962632Y-68016308D01*
G75*
G02*
X157722632Y-68256308I-240000J0D01*
G01*
G37*
%TD*%
%TO.C,D35*%
G36*
G01*
X148197624Y-52006292D02*
X147077624Y-52006292D01*
G75*
G02*
X146837624Y-51766292I0J240000D01*
G01*
X146837624Y-51046292D01*
G75*
G02*
X147077624Y-50806292I240000J0D01*
G01*
X148197624Y-50806292D01*
G75*
G02*
X148437624Y-51046292I0J-240000D01*
G01*
X148437624Y-51766292D01*
G75*
G02*
X148197624Y-52006292I-240000J0D01*
G01*
G37*
G36*
G01*
X148197624Y-49206292D02*
X147077624Y-49206292D01*
G75*
G02*
X146837624Y-48966292I0J240000D01*
G01*
X146837624Y-48246292D01*
G75*
G02*
X147077624Y-48006292I240000J0D01*
G01*
X148197624Y-48006292D01*
G75*
G02*
X148437624Y-48246292I0J-240000D01*
G01*
X148437624Y-48966292D01*
G75*
G02*
X148197624Y-49206292I-240000J0D01*
G01*
G37*
%TD*%
%TO.C,D34*%
G36*
G01*
X157722500Y-28193750D02*
X156602500Y-28193750D01*
G75*
G02*
X156362500Y-27953750I0J240000D01*
G01*
X156362500Y-27233750D01*
G75*
G02*
X156602500Y-26993750I240000J0D01*
G01*
X157722500Y-26993750D01*
G75*
G02*
X157962500Y-27233750I0J-240000D01*
G01*
X157962500Y-27953750D01*
G75*
G02*
X157722500Y-28193750I-240000J0D01*
G01*
G37*
G36*
G01*
X157722500Y-25393750D02*
X156602500Y-25393750D01*
G75*
G02*
X156362500Y-25153750I0J240000D01*
G01*
X156362500Y-24433750D01*
G75*
G02*
X156602500Y-24193750I240000J0D01*
G01*
X157722500Y-24193750D01*
G75*
G02*
X157962500Y-24433750I0J-240000D01*
G01*
X157962500Y-25153750D01*
G75*
G02*
X157722500Y-25393750I-240000J0D01*
G01*
G37*
%TD*%
%TO.C,D33*%
G36*
G01*
X133910112Y-109156340D02*
X132790112Y-109156340D01*
G75*
G02*
X132550112Y-108916340I0J240000D01*
G01*
X132550112Y-108196340D01*
G75*
G02*
X132790112Y-107956340I240000J0D01*
G01*
X133910112Y-107956340D01*
G75*
G02*
X134150112Y-108196340I0J-240000D01*
G01*
X134150112Y-108916340D01*
G75*
G02*
X133910112Y-109156340I-240000J0D01*
G01*
G37*
G36*
G01*
X133910112Y-106356340D02*
X132790112Y-106356340D01*
G75*
G02*
X132550112Y-106116340I0J240000D01*
G01*
X132550112Y-105396340D01*
G75*
G02*
X132790112Y-105156340I240000J0D01*
G01*
X133910112Y-105156340D01*
G75*
G02*
X134150112Y-105396340I0J-240000D01*
G01*
X134150112Y-106116340D01*
G75*
G02*
X133910112Y-106356340I-240000J0D01*
G01*
G37*
%TD*%
%TO.C,D32*%
G36*
G01*
X143435120Y-90106324D02*
X142315120Y-90106324D01*
G75*
G02*
X142075120Y-89866324I0J240000D01*
G01*
X142075120Y-89146324D01*
G75*
G02*
X142315120Y-88906324I240000J0D01*
G01*
X143435120Y-88906324D01*
G75*
G02*
X143675120Y-89146324I0J-240000D01*
G01*
X143675120Y-89866324D01*
G75*
G02*
X143435120Y-90106324I-240000J0D01*
G01*
G37*
G36*
G01*
X143435120Y-87306324D02*
X142315120Y-87306324D01*
G75*
G02*
X142075120Y-87066324I0J240000D01*
G01*
X142075120Y-86346324D01*
G75*
G02*
X142315120Y-86106324I240000J0D01*
G01*
X143435120Y-86106324D01*
G75*
G02*
X143675120Y-86346324I0J-240000D01*
G01*
X143675120Y-87066324D01*
G75*
G02*
X143435120Y-87306324I-240000J0D01*
G01*
G37*
%TD*%
%TO.C,D31*%
G36*
G01*
X138672616Y-71056308D02*
X137552616Y-71056308D01*
G75*
G02*
X137312616Y-70816308I0J240000D01*
G01*
X137312616Y-70096308D01*
G75*
G02*
X137552616Y-69856308I240000J0D01*
G01*
X138672616Y-69856308D01*
G75*
G02*
X138912616Y-70096308I0J-240000D01*
G01*
X138912616Y-70816308D01*
G75*
G02*
X138672616Y-71056308I-240000J0D01*
G01*
G37*
G36*
G01*
X138672616Y-68256308D02*
X137552616Y-68256308D01*
G75*
G02*
X137312616Y-68016308I0J240000D01*
G01*
X137312616Y-67296308D01*
G75*
G02*
X137552616Y-67056308I240000J0D01*
G01*
X138672616Y-67056308D01*
G75*
G02*
X138912616Y-67296308I0J-240000D01*
G01*
X138912616Y-68016308D01*
G75*
G02*
X138672616Y-68256308I-240000J0D01*
G01*
G37*
%TD*%
%TO.C,D30*%
G36*
G01*
X129147608Y-52006292D02*
X128027608Y-52006292D01*
G75*
G02*
X127787608Y-51766292I0J240000D01*
G01*
X127787608Y-51046292D01*
G75*
G02*
X128027608Y-50806292I240000J0D01*
G01*
X129147608Y-50806292D01*
G75*
G02*
X129387608Y-51046292I0J-240000D01*
G01*
X129387608Y-51766292D01*
G75*
G02*
X129147608Y-52006292I-240000J0D01*
G01*
G37*
G36*
G01*
X129147608Y-49206292D02*
X128027608Y-49206292D01*
G75*
G02*
X127787608Y-48966292I0J240000D01*
G01*
X127787608Y-48246292D01*
G75*
G02*
X128027608Y-48006292I240000J0D01*
G01*
X129147608Y-48006292D01*
G75*
G02*
X129387608Y-48246292I0J-240000D01*
G01*
X129387608Y-48966292D01*
G75*
G02*
X129147608Y-49206292I-240000J0D01*
G01*
G37*
%TD*%
%TO.C,D29*%
G36*
G01*
X138672500Y-28193750D02*
X137552500Y-28193750D01*
G75*
G02*
X137312500Y-27953750I0J240000D01*
G01*
X137312500Y-27233750D01*
G75*
G02*
X137552500Y-26993750I240000J0D01*
G01*
X138672500Y-26993750D01*
G75*
G02*
X138912500Y-27233750I0J-240000D01*
G01*
X138912500Y-27953750D01*
G75*
G02*
X138672500Y-28193750I-240000J0D01*
G01*
G37*
G36*
G01*
X138672500Y-25393750D02*
X137552500Y-25393750D01*
G75*
G02*
X137312500Y-25153750I0J240000D01*
G01*
X137312500Y-24433750D01*
G75*
G02*
X137552500Y-24193750I240000J0D01*
G01*
X138672500Y-24193750D01*
G75*
G02*
X138912500Y-24433750I0J-240000D01*
G01*
X138912500Y-25153750D01*
G75*
G02*
X138672500Y-25393750I-240000J0D01*
G01*
G37*
%TD*%
%TO.C,D28*%
G36*
G01*
X114860096Y-109156340D02*
X113740096Y-109156340D01*
G75*
G02*
X113500096Y-108916340I0J240000D01*
G01*
X113500096Y-108196340D01*
G75*
G02*
X113740096Y-107956340I240000J0D01*
G01*
X114860096Y-107956340D01*
G75*
G02*
X115100096Y-108196340I0J-240000D01*
G01*
X115100096Y-108916340D01*
G75*
G02*
X114860096Y-109156340I-240000J0D01*
G01*
G37*
G36*
G01*
X114860096Y-106356340D02*
X113740096Y-106356340D01*
G75*
G02*
X113500096Y-106116340I0J240000D01*
G01*
X113500096Y-105396340D01*
G75*
G02*
X113740096Y-105156340I240000J0D01*
G01*
X114860096Y-105156340D01*
G75*
G02*
X115100096Y-105396340I0J-240000D01*
G01*
X115100096Y-106116340D01*
G75*
G02*
X114860096Y-106356340I-240000J0D01*
G01*
G37*
%TD*%
%TO.C,D27*%
G36*
G01*
X124385104Y-90106324D02*
X123265104Y-90106324D01*
G75*
G02*
X123025104Y-89866324I0J240000D01*
G01*
X123025104Y-89146324D01*
G75*
G02*
X123265104Y-88906324I240000J0D01*
G01*
X124385104Y-88906324D01*
G75*
G02*
X124625104Y-89146324I0J-240000D01*
G01*
X124625104Y-89866324D01*
G75*
G02*
X124385104Y-90106324I-240000J0D01*
G01*
G37*
G36*
G01*
X124385104Y-87306324D02*
X123265104Y-87306324D01*
G75*
G02*
X123025104Y-87066324I0J240000D01*
G01*
X123025104Y-86346324D01*
G75*
G02*
X123265104Y-86106324I240000J0D01*
G01*
X124385104Y-86106324D01*
G75*
G02*
X124625104Y-86346324I0J-240000D01*
G01*
X124625104Y-87066324D01*
G75*
G02*
X124385104Y-87306324I-240000J0D01*
G01*
G37*
%TD*%
%TO.C,D26*%
G36*
G01*
X119622600Y-71056308D02*
X118502600Y-71056308D01*
G75*
G02*
X118262600Y-70816308I0J240000D01*
G01*
X118262600Y-70096308D01*
G75*
G02*
X118502600Y-69856308I240000J0D01*
G01*
X119622600Y-69856308D01*
G75*
G02*
X119862600Y-70096308I0J-240000D01*
G01*
X119862600Y-70816308D01*
G75*
G02*
X119622600Y-71056308I-240000J0D01*
G01*
G37*
G36*
G01*
X119622600Y-68256308D02*
X118502600Y-68256308D01*
G75*
G02*
X118262600Y-68016308I0J240000D01*
G01*
X118262600Y-67296308D01*
G75*
G02*
X118502600Y-67056308I240000J0D01*
G01*
X119622600Y-67056308D01*
G75*
G02*
X119862600Y-67296308I0J-240000D01*
G01*
X119862600Y-68016308D01*
G75*
G02*
X119622600Y-68256308I-240000J0D01*
G01*
G37*
%TD*%
%TO.C,D25*%
G36*
G01*
X110097592Y-52006292D02*
X108977592Y-52006292D01*
G75*
G02*
X108737592Y-51766292I0J240000D01*
G01*
X108737592Y-51046292D01*
G75*
G02*
X108977592Y-50806292I240000J0D01*
G01*
X110097592Y-50806292D01*
G75*
G02*
X110337592Y-51046292I0J-240000D01*
G01*
X110337592Y-51766292D01*
G75*
G02*
X110097592Y-52006292I-240000J0D01*
G01*
G37*
G36*
G01*
X110097592Y-49206292D02*
X108977592Y-49206292D01*
G75*
G02*
X108737592Y-48966292I0J240000D01*
G01*
X108737592Y-48246292D01*
G75*
G02*
X108977592Y-48006292I240000J0D01*
G01*
X110097592Y-48006292D01*
G75*
G02*
X110337592Y-48246292I0J-240000D01*
G01*
X110337592Y-48966292D01*
G75*
G02*
X110097592Y-49206292I-240000J0D01*
G01*
G37*
%TD*%
%TO.C,D24*%
G36*
G01*
X112478750Y-28193750D02*
X111358750Y-28193750D01*
G75*
G02*
X111118750Y-27953750I0J240000D01*
G01*
X111118750Y-27233750D01*
G75*
G02*
X111358750Y-26993750I240000J0D01*
G01*
X112478750Y-26993750D01*
G75*
G02*
X112718750Y-27233750I0J-240000D01*
G01*
X112718750Y-27953750D01*
G75*
G02*
X112478750Y-28193750I-240000J0D01*
G01*
G37*
G36*
G01*
X112478750Y-25393750D02*
X111358750Y-25393750D01*
G75*
G02*
X111118750Y-25153750I0J240000D01*
G01*
X111118750Y-24433750D01*
G75*
G02*
X111358750Y-24193750I240000J0D01*
G01*
X112478750Y-24193750D01*
G75*
G02*
X112718750Y-24433750I0J-240000D01*
G01*
X112718750Y-25153750D01*
G75*
G02*
X112478750Y-25393750I-240000J0D01*
G01*
G37*
%TD*%
%TO.C,D23*%
G36*
G01*
X95810080Y-109156340D02*
X94690080Y-109156340D01*
G75*
G02*
X94450080Y-108916340I0J240000D01*
G01*
X94450080Y-108196340D01*
G75*
G02*
X94690080Y-107956340I240000J0D01*
G01*
X95810080Y-107956340D01*
G75*
G02*
X96050080Y-108196340I0J-240000D01*
G01*
X96050080Y-108916340D01*
G75*
G02*
X95810080Y-109156340I-240000J0D01*
G01*
G37*
G36*
G01*
X95810080Y-106356340D02*
X94690080Y-106356340D01*
G75*
G02*
X94450080Y-106116340I0J240000D01*
G01*
X94450080Y-105396340D01*
G75*
G02*
X94690080Y-105156340I240000J0D01*
G01*
X95810080Y-105156340D01*
G75*
G02*
X96050080Y-105396340I0J-240000D01*
G01*
X96050080Y-106116340D01*
G75*
G02*
X95810080Y-106356340I-240000J0D01*
G01*
G37*
%TD*%
%TO.C,D22*%
G36*
G01*
X105335088Y-90106324D02*
X104215088Y-90106324D01*
G75*
G02*
X103975088Y-89866324I0J240000D01*
G01*
X103975088Y-89146324D01*
G75*
G02*
X104215088Y-88906324I240000J0D01*
G01*
X105335088Y-88906324D01*
G75*
G02*
X105575088Y-89146324I0J-240000D01*
G01*
X105575088Y-89866324D01*
G75*
G02*
X105335088Y-90106324I-240000J0D01*
G01*
G37*
G36*
G01*
X105335088Y-87306324D02*
X104215088Y-87306324D01*
G75*
G02*
X103975088Y-87066324I0J240000D01*
G01*
X103975088Y-86346324D01*
G75*
G02*
X104215088Y-86106324I240000J0D01*
G01*
X105335088Y-86106324D01*
G75*
G02*
X105575088Y-86346324I0J-240000D01*
G01*
X105575088Y-87066324D01*
G75*
G02*
X105335088Y-87306324I-240000J0D01*
G01*
G37*
%TD*%
%TO.C,D21*%
G36*
G01*
X100572584Y-71056308D02*
X99452584Y-71056308D01*
G75*
G02*
X99212584Y-70816308I0J240000D01*
G01*
X99212584Y-70096308D01*
G75*
G02*
X99452584Y-69856308I240000J0D01*
G01*
X100572584Y-69856308D01*
G75*
G02*
X100812584Y-70096308I0J-240000D01*
G01*
X100812584Y-70816308D01*
G75*
G02*
X100572584Y-71056308I-240000J0D01*
G01*
G37*
G36*
G01*
X100572584Y-68256308D02*
X99452584Y-68256308D01*
G75*
G02*
X99212584Y-68016308I0J240000D01*
G01*
X99212584Y-67296308D01*
G75*
G02*
X99452584Y-67056308I240000J0D01*
G01*
X100572584Y-67056308D01*
G75*
G02*
X100812584Y-67296308I0J-240000D01*
G01*
X100812584Y-68016308D01*
G75*
G02*
X100572584Y-68256308I-240000J0D01*
G01*
G37*
%TD*%
%TO.C,D20*%
G36*
G01*
X91047576Y-52006292D02*
X89927576Y-52006292D01*
G75*
G02*
X89687576Y-51766292I0J240000D01*
G01*
X89687576Y-51046292D01*
G75*
G02*
X89927576Y-50806292I240000J0D01*
G01*
X91047576Y-50806292D01*
G75*
G02*
X91287576Y-51046292I0J-240000D01*
G01*
X91287576Y-51766292D01*
G75*
G02*
X91047576Y-52006292I-240000J0D01*
G01*
G37*
G36*
G01*
X91047576Y-49206292D02*
X89927576Y-49206292D01*
G75*
G02*
X89687576Y-48966292I0J240000D01*
G01*
X89687576Y-48246292D01*
G75*
G02*
X89927576Y-48006292I240000J0D01*
G01*
X91047576Y-48006292D01*
G75*
G02*
X91287576Y-48246292I0J-240000D01*
G01*
X91287576Y-48966292D01*
G75*
G02*
X91047576Y-49206292I-240000J0D01*
G01*
G37*
%TD*%
%TO.C,D19*%
G36*
G01*
X93428750Y-28193750D02*
X92308750Y-28193750D01*
G75*
G02*
X92068750Y-27953750I0J240000D01*
G01*
X92068750Y-27233750D01*
G75*
G02*
X92308750Y-26993750I240000J0D01*
G01*
X93428750Y-26993750D01*
G75*
G02*
X93668750Y-27233750I0J-240000D01*
G01*
X93668750Y-27953750D01*
G75*
G02*
X93428750Y-28193750I-240000J0D01*
G01*
G37*
G36*
G01*
X93428750Y-25393750D02*
X92308750Y-25393750D01*
G75*
G02*
X92068750Y-25153750I0J240000D01*
G01*
X92068750Y-24433750D01*
G75*
G02*
X92308750Y-24193750I240000J0D01*
G01*
X93428750Y-24193750D01*
G75*
G02*
X93668750Y-24433750I0J-240000D01*
G01*
X93668750Y-25153750D01*
G75*
G02*
X93428750Y-25393750I-240000J0D01*
G01*
G37*
%TD*%
%TO.C,D18*%
G36*
G01*
X66044430Y-128206356D02*
X64924430Y-128206356D01*
G75*
G02*
X64684430Y-127966356I0J240000D01*
G01*
X64684430Y-127246356D01*
G75*
G02*
X64924430Y-127006356I240000J0D01*
G01*
X66044430Y-127006356D01*
G75*
G02*
X66284430Y-127246356I0J-240000D01*
G01*
X66284430Y-127966356D01*
G75*
G02*
X66044430Y-128206356I-240000J0D01*
G01*
G37*
G36*
G01*
X66044430Y-125406356D02*
X64924430Y-125406356D01*
G75*
G02*
X64684430Y-125166356I0J240000D01*
G01*
X64684430Y-124446356D01*
G75*
G02*
X64924430Y-124206356I240000J0D01*
G01*
X66044430Y-124206356D01*
G75*
G02*
X66284430Y-124446356I0J-240000D01*
G01*
X66284430Y-125166356D01*
G75*
G02*
X66044430Y-125406356I-240000J0D01*
G01*
G37*
%TD*%
%TO.C,D17*%
G36*
G01*
X76760064Y-109156340D02*
X75640064Y-109156340D01*
G75*
G02*
X75400064Y-108916340I0J240000D01*
G01*
X75400064Y-108196340D01*
G75*
G02*
X75640064Y-107956340I240000J0D01*
G01*
X76760064Y-107956340D01*
G75*
G02*
X77000064Y-108196340I0J-240000D01*
G01*
X77000064Y-108916340D01*
G75*
G02*
X76760064Y-109156340I-240000J0D01*
G01*
G37*
G36*
G01*
X76760064Y-106356340D02*
X75640064Y-106356340D01*
G75*
G02*
X75400064Y-106116340I0J240000D01*
G01*
X75400064Y-105396340D01*
G75*
G02*
X75640064Y-105156340I240000J0D01*
G01*
X76760064Y-105156340D01*
G75*
G02*
X77000064Y-105396340I0J-240000D01*
G01*
X77000064Y-106116340D01*
G75*
G02*
X76760064Y-106356340I-240000J0D01*
G01*
G37*
%TD*%
%TO.C,D16*%
G36*
G01*
X86285072Y-90106324D02*
X85165072Y-90106324D01*
G75*
G02*
X84925072Y-89866324I0J240000D01*
G01*
X84925072Y-89146324D01*
G75*
G02*
X85165072Y-88906324I240000J0D01*
G01*
X86285072Y-88906324D01*
G75*
G02*
X86525072Y-89146324I0J-240000D01*
G01*
X86525072Y-89866324D01*
G75*
G02*
X86285072Y-90106324I-240000J0D01*
G01*
G37*
G36*
G01*
X86285072Y-87306324D02*
X85165072Y-87306324D01*
G75*
G02*
X84925072Y-87066324I0J240000D01*
G01*
X84925072Y-86346324D01*
G75*
G02*
X85165072Y-86106324I240000J0D01*
G01*
X86285072Y-86106324D01*
G75*
G02*
X86525072Y-86346324I0J-240000D01*
G01*
X86525072Y-87066324D01*
G75*
G02*
X86285072Y-87306324I-240000J0D01*
G01*
G37*
%TD*%
%TO.C,D15*%
G36*
G01*
X81522568Y-71056308D02*
X80402568Y-71056308D01*
G75*
G02*
X80162568Y-70816308I0J240000D01*
G01*
X80162568Y-70096308D01*
G75*
G02*
X80402568Y-69856308I240000J0D01*
G01*
X81522568Y-69856308D01*
G75*
G02*
X81762568Y-70096308I0J-240000D01*
G01*
X81762568Y-70816308D01*
G75*
G02*
X81522568Y-71056308I-240000J0D01*
G01*
G37*
G36*
G01*
X81522568Y-68256308D02*
X80402568Y-68256308D01*
G75*
G02*
X80162568Y-68016308I0J240000D01*
G01*
X80162568Y-67296308D01*
G75*
G02*
X80402568Y-67056308I240000J0D01*
G01*
X81522568Y-67056308D01*
G75*
G02*
X81762568Y-67296308I0J-240000D01*
G01*
X81762568Y-68016308D01*
G75*
G02*
X81522568Y-68256308I-240000J0D01*
G01*
G37*
%TD*%
%TO.C,D14*%
G36*
G01*
X71997560Y-52006292D02*
X70877560Y-52006292D01*
G75*
G02*
X70637560Y-51766292I0J240000D01*
G01*
X70637560Y-51046292D01*
G75*
G02*
X70877560Y-50806292I240000J0D01*
G01*
X71997560Y-50806292D01*
G75*
G02*
X72237560Y-51046292I0J-240000D01*
G01*
X72237560Y-51766292D01*
G75*
G02*
X71997560Y-52006292I-240000J0D01*
G01*
G37*
G36*
G01*
X71997560Y-49206292D02*
X70877560Y-49206292D01*
G75*
G02*
X70637560Y-48966292I0J240000D01*
G01*
X70637560Y-48246292D01*
G75*
G02*
X70877560Y-48006292I240000J0D01*
G01*
X71997560Y-48006292D01*
G75*
G02*
X72237560Y-48246292I0J-240000D01*
G01*
X72237560Y-48966292D01*
G75*
G02*
X71997560Y-49206292I-240000J0D01*
G01*
G37*
%TD*%
%TO.C,D13*%
G36*
G01*
X74378750Y-28193750D02*
X73258750Y-28193750D01*
G75*
G02*
X73018750Y-27953750I0J240000D01*
G01*
X73018750Y-27233750D01*
G75*
G02*
X73258750Y-26993750I240000J0D01*
G01*
X74378750Y-26993750D01*
G75*
G02*
X74618750Y-27233750I0J-240000D01*
G01*
X74618750Y-27953750D01*
G75*
G02*
X74378750Y-28193750I-240000J0D01*
G01*
G37*
G36*
G01*
X74378750Y-25393750D02*
X73258750Y-25393750D01*
G75*
G02*
X73018750Y-25153750I0J240000D01*
G01*
X73018750Y-24433750D01*
G75*
G02*
X73258750Y-24193750I240000J0D01*
G01*
X74378750Y-24193750D01*
G75*
G02*
X74618750Y-24433750I0J-240000D01*
G01*
X74618750Y-25153750D01*
G75*
G02*
X74378750Y-25393750I-240000J0D01*
G01*
G37*
%TD*%
%TO.C,D12*%
G36*
G01*
X63663178Y-128206356D02*
X62543178Y-128206356D01*
G75*
G02*
X62303178Y-127966356I0J240000D01*
G01*
X62303178Y-127246356D01*
G75*
G02*
X62543178Y-127006356I240000J0D01*
G01*
X63663178Y-127006356D01*
G75*
G02*
X63903178Y-127246356I0J-240000D01*
G01*
X63903178Y-127966356D01*
G75*
G02*
X63663178Y-128206356I-240000J0D01*
G01*
G37*
G36*
G01*
X63663178Y-125406356D02*
X62543178Y-125406356D01*
G75*
G02*
X62303178Y-125166356I0J240000D01*
G01*
X62303178Y-124446356D01*
G75*
G02*
X62543178Y-124206356I240000J0D01*
G01*
X63663178Y-124206356D01*
G75*
G02*
X63903178Y-124446356I0J-240000D01*
G01*
X63903178Y-125166356D01*
G75*
G02*
X63663178Y-125406356I-240000J0D01*
G01*
G37*
%TD*%
%TO.C,D11*%
G36*
G01*
X58900674Y-109156340D02*
X57780674Y-109156340D01*
G75*
G02*
X57540674Y-108916340I0J240000D01*
G01*
X57540674Y-108196340D01*
G75*
G02*
X57780674Y-107956340I240000J0D01*
G01*
X58900674Y-107956340D01*
G75*
G02*
X59140674Y-108196340I0J-240000D01*
G01*
X59140674Y-108916340D01*
G75*
G02*
X58900674Y-109156340I-240000J0D01*
G01*
G37*
G36*
G01*
X58900674Y-106356340D02*
X57780674Y-106356340D01*
G75*
G02*
X57540674Y-106116340I0J240000D01*
G01*
X57540674Y-105396340D01*
G75*
G02*
X57780674Y-105156340I240000J0D01*
G01*
X58900674Y-105156340D01*
G75*
G02*
X59140674Y-105396340I0J-240000D01*
G01*
X59140674Y-106116340D01*
G75*
G02*
X58900674Y-106356340I-240000J0D01*
G01*
G37*
%TD*%
%TO.C,D10*%
G36*
G01*
X67235056Y-90106324D02*
X66115056Y-90106324D01*
G75*
G02*
X65875056Y-89866324I0J240000D01*
G01*
X65875056Y-89146324D01*
G75*
G02*
X66115056Y-88906324I240000J0D01*
G01*
X67235056Y-88906324D01*
G75*
G02*
X67475056Y-89146324I0J-240000D01*
G01*
X67475056Y-89866324D01*
G75*
G02*
X67235056Y-90106324I-240000J0D01*
G01*
G37*
G36*
G01*
X67235056Y-87306324D02*
X66115056Y-87306324D01*
G75*
G02*
X65875056Y-87066324I0J240000D01*
G01*
X65875056Y-86346324D01*
G75*
G02*
X66115056Y-86106324I240000J0D01*
G01*
X67235056Y-86106324D01*
G75*
G02*
X67475056Y-86346324I0J-240000D01*
G01*
X67475056Y-87066324D01*
G75*
G02*
X67235056Y-87306324I-240000J0D01*
G01*
G37*
%TD*%
%TO.C,D9*%
G36*
G01*
X62472552Y-71056308D02*
X61352552Y-71056308D01*
G75*
G02*
X61112552Y-70816308I0J240000D01*
G01*
X61112552Y-70096308D01*
G75*
G02*
X61352552Y-69856308I240000J0D01*
G01*
X62472552Y-69856308D01*
G75*
G02*
X62712552Y-70096308I0J-240000D01*
G01*
X62712552Y-70816308D01*
G75*
G02*
X62472552Y-71056308I-240000J0D01*
G01*
G37*
G36*
G01*
X62472552Y-68256308D02*
X61352552Y-68256308D01*
G75*
G02*
X61112552Y-68016308I0J240000D01*
G01*
X61112552Y-67296308D01*
G75*
G02*
X61352552Y-67056308I240000J0D01*
G01*
X62472552Y-67056308D01*
G75*
G02*
X62712552Y-67296308I0J-240000D01*
G01*
X62712552Y-68016308D01*
G75*
G02*
X62472552Y-68256308I-240000J0D01*
G01*
G37*
%TD*%
%TO.C,D8*%
G36*
G01*
X52947544Y-52006292D02*
X51827544Y-52006292D01*
G75*
G02*
X51587544Y-51766292I0J240000D01*
G01*
X51587544Y-51046292D01*
G75*
G02*
X51827544Y-50806292I240000J0D01*
G01*
X52947544Y-50806292D01*
G75*
G02*
X53187544Y-51046292I0J-240000D01*
G01*
X53187544Y-51766292D01*
G75*
G02*
X52947544Y-52006292I-240000J0D01*
G01*
G37*
G36*
G01*
X52947544Y-49206292D02*
X51827544Y-49206292D01*
G75*
G02*
X51587544Y-48966292I0J240000D01*
G01*
X51587544Y-48246292D01*
G75*
G02*
X51827544Y-48006292I240000J0D01*
G01*
X52947544Y-48006292D01*
G75*
G02*
X53187544Y-48246292I0J-240000D01*
G01*
X53187544Y-48966292D01*
G75*
G02*
X52947544Y-49206292I-240000J0D01*
G01*
G37*
%TD*%
%TO.C,D7*%
G36*
G01*
X55328750Y-28193750D02*
X54208750Y-28193750D01*
G75*
G02*
X53968750Y-27953750I0J240000D01*
G01*
X53968750Y-27233750D01*
G75*
G02*
X54208750Y-26993750I240000J0D01*
G01*
X55328750Y-26993750D01*
G75*
G02*
X55568750Y-27233750I0J-240000D01*
G01*
X55568750Y-27953750D01*
G75*
G02*
X55328750Y-28193750I-240000J0D01*
G01*
G37*
G36*
G01*
X55328750Y-25393750D02*
X54208750Y-25393750D01*
G75*
G02*
X53968750Y-25153750I0J240000D01*
G01*
X53968750Y-24433750D01*
G75*
G02*
X54208750Y-24193750I240000J0D01*
G01*
X55328750Y-24193750D01*
G75*
G02*
X55568750Y-24433750I0J-240000D01*
G01*
X55568750Y-25153750D01*
G75*
G02*
X55328750Y-25393750I-240000J0D01*
G01*
G37*
%TD*%
%TO.C,D6*%
G36*
G01*
X43422536Y-128206356D02*
X42302536Y-128206356D01*
G75*
G02*
X42062536Y-127966356I0J240000D01*
G01*
X42062536Y-127246356D01*
G75*
G02*
X42302536Y-127006356I240000J0D01*
G01*
X43422536Y-127006356D01*
G75*
G02*
X43662536Y-127246356I0J-240000D01*
G01*
X43662536Y-127966356D01*
G75*
G02*
X43422536Y-128206356I-240000J0D01*
G01*
G37*
G36*
G01*
X43422536Y-125406356D02*
X42302536Y-125406356D01*
G75*
G02*
X42062536Y-125166356I0J240000D01*
G01*
X42062536Y-124446356D01*
G75*
G02*
X42302536Y-124206356I240000J0D01*
G01*
X43422536Y-124206356D01*
G75*
G02*
X43662536Y-124446356I0J-240000D01*
G01*
X43662536Y-125166356D01*
G75*
G02*
X43422536Y-125406356I-240000J0D01*
G01*
G37*
%TD*%
%TO.C,D5*%
G36*
G01*
X56519422Y-109156340D02*
X55399422Y-109156340D01*
G75*
G02*
X55159422Y-108916340I0J240000D01*
G01*
X55159422Y-108196340D01*
G75*
G02*
X55399422Y-107956340I240000J0D01*
G01*
X56519422Y-107956340D01*
G75*
G02*
X56759422Y-108196340I0J-240000D01*
G01*
X56759422Y-108916340D01*
G75*
G02*
X56519422Y-109156340I-240000J0D01*
G01*
G37*
G36*
G01*
X56519422Y-106356340D02*
X55399422Y-106356340D01*
G75*
G02*
X55159422Y-106116340I0J240000D01*
G01*
X55159422Y-105396340D01*
G75*
G02*
X55399422Y-105156340I240000J0D01*
G01*
X56519422Y-105156340D01*
G75*
G02*
X56759422Y-105396340I0J-240000D01*
G01*
X56759422Y-106116340D01*
G75*
G02*
X56519422Y-106356340I-240000J0D01*
G01*
G37*
%TD*%
%TO.C,D4*%
G36*
G01*
X43422536Y-90106324D02*
X42302536Y-90106324D01*
G75*
G02*
X42062536Y-89866324I0J240000D01*
G01*
X42062536Y-89146324D01*
G75*
G02*
X42302536Y-88906324I240000J0D01*
G01*
X43422536Y-88906324D01*
G75*
G02*
X43662536Y-89146324I0J-240000D01*
G01*
X43662536Y-89866324D01*
G75*
G02*
X43422536Y-90106324I-240000J0D01*
G01*
G37*
G36*
G01*
X43422536Y-87306324D02*
X42302536Y-87306324D01*
G75*
G02*
X42062536Y-87066324I0J240000D01*
G01*
X42062536Y-86346324D01*
G75*
G02*
X42302536Y-86106324I240000J0D01*
G01*
X43422536Y-86106324D01*
G75*
G02*
X43662536Y-86346324I0J-240000D01*
G01*
X43662536Y-87066324D01*
G75*
G02*
X43422536Y-87306324I-240000J0D01*
G01*
G37*
%TD*%
%TO.C,D3*%
G36*
G01*
X43422536Y-71056308D02*
X42302536Y-71056308D01*
G75*
G02*
X42062536Y-70816308I0J240000D01*
G01*
X42062536Y-70096308D01*
G75*
G02*
X42302536Y-69856308I240000J0D01*
G01*
X43422536Y-69856308D01*
G75*
G02*
X43662536Y-70096308I0J-240000D01*
G01*
X43662536Y-70816308D01*
G75*
G02*
X43422536Y-71056308I-240000J0D01*
G01*
G37*
G36*
G01*
X43422536Y-68256308D02*
X42302536Y-68256308D01*
G75*
G02*
X42062536Y-68016308I0J240000D01*
G01*
X42062536Y-67296308D01*
G75*
G02*
X42302536Y-67056308I240000J0D01*
G01*
X43422536Y-67056308D01*
G75*
G02*
X43662536Y-67296308I0J-240000D01*
G01*
X43662536Y-68016308D01*
G75*
G02*
X43422536Y-68256308I-240000J0D01*
G01*
G37*
%TD*%
%TO.C,D2*%
G36*
G01*
X33897528Y-52006292D02*
X32777528Y-52006292D01*
G75*
G02*
X32537528Y-51766292I0J240000D01*
G01*
X32537528Y-51046292D01*
G75*
G02*
X32777528Y-50806292I240000J0D01*
G01*
X33897528Y-50806292D01*
G75*
G02*
X34137528Y-51046292I0J-240000D01*
G01*
X34137528Y-51766292D01*
G75*
G02*
X33897528Y-52006292I-240000J0D01*
G01*
G37*
G36*
G01*
X33897528Y-49206292D02*
X32777528Y-49206292D01*
G75*
G02*
X32537528Y-48966292I0J240000D01*
G01*
X32537528Y-48246292D01*
G75*
G02*
X32777528Y-48006292I240000J0D01*
G01*
X33897528Y-48006292D01*
G75*
G02*
X34137528Y-48246292I0J-240000D01*
G01*
X34137528Y-48966292D01*
G75*
G02*
X33897528Y-49206292I-240000J0D01*
G01*
G37*
%TD*%
%TO.C,D1*%
G36*
G01*
X33897500Y-28193750D02*
X32777500Y-28193750D01*
G75*
G02*
X32537500Y-27953750I0J240000D01*
G01*
X32537500Y-27233750D01*
G75*
G02*
X32777500Y-26993750I240000J0D01*
G01*
X33897500Y-26993750D01*
G75*
G02*
X34137500Y-27233750I0J-240000D01*
G01*
X34137500Y-27953750D01*
G75*
G02*
X33897500Y-28193750I-240000J0D01*
G01*
G37*
G36*
G01*
X33897500Y-25393750D02*
X32777500Y-25393750D01*
G75*
G02*
X32537500Y-25153750I0J240000D01*
G01*
X32537500Y-24433750D01*
G75*
G02*
X32777500Y-24193750I240000J0D01*
G01*
X33897500Y-24193750D01*
G75*
G02*
X34137500Y-24433750I0J-240000D01*
G01*
X34137500Y-25153750D01*
G75*
G02*
X33897500Y-25393750I-240000J0D01*
G01*
G37*
%TD*%
%TO.C,U2*%
G36*
G01*
X314055264Y-91952263D02*
X314595264Y-91952263D01*
G75*
G02*
X314845264Y-92202263I0J-250000D01*
G01*
X314845264Y-92742263D01*
G75*
G02*
X314595264Y-92992263I-250000J0D01*
G01*
X314055264Y-92992263D01*
G75*
G02*
X313805264Y-92742263I0J250000D01*
G01*
X313805264Y-92202263D01*
G75*
G02*
X314055264Y-91952263I250000J0D01*
G01*
G37*
G36*
G01*
X312765264Y-91952263D02*
X313305264Y-91952263D01*
G75*
G02*
X313555264Y-92202263I0J-250000D01*
G01*
X313555264Y-92742263D01*
G75*
G02*
X313305264Y-92992263I-250000J0D01*
G01*
X312765264Y-92992263D01*
G75*
G02*
X312515264Y-92742263I0J250000D01*
G01*
X312515264Y-92202263D01*
G75*
G02*
X312765264Y-91952263I250000J0D01*
G01*
G37*
G36*
G01*
X311475264Y-91952263D02*
X312015264Y-91952263D01*
G75*
G02*
X312265264Y-92202263I0J-250000D01*
G01*
X312265264Y-92742263D01*
G75*
G02*
X312015264Y-92992263I-250000J0D01*
G01*
X311475264Y-92992263D01*
G75*
G02*
X311225264Y-92742263I0J250000D01*
G01*
X311225264Y-92202263D01*
G75*
G02*
X311475264Y-91952263I250000J0D01*
G01*
G37*
G36*
G01*
X310185264Y-91952263D02*
X310725264Y-91952263D01*
G75*
G02*
X310975264Y-92202263I0J-250000D01*
G01*
X310975264Y-92742263D01*
G75*
G02*
X310725264Y-92992263I-250000J0D01*
G01*
X310185264Y-92992263D01*
G75*
G02*
X309935264Y-92742263I0J250000D01*
G01*
X309935264Y-92202263D01*
G75*
G02*
X310185264Y-91952263I250000J0D01*
G01*
G37*
G36*
G01*
X314055264Y-90662263D02*
X314595264Y-90662263D01*
G75*
G02*
X314845264Y-90912263I0J-250000D01*
G01*
X314845264Y-91452263D01*
G75*
G02*
X314595264Y-91702263I-250000J0D01*
G01*
X314055264Y-91702263D01*
G75*
G02*
X313805264Y-91452263I0J250000D01*
G01*
X313805264Y-90912263D01*
G75*
G02*
X314055264Y-90662263I250000J0D01*
G01*
G37*
G36*
G01*
X312765264Y-90662263D02*
X313305264Y-90662263D01*
G75*
G02*
X313555264Y-90912263I0J-250000D01*
G01*
X313555264Y-91452263D01*
G75*
G02*
X313305264Y-91702263I-250000J0D01*
G01*
X312765264Y-91702263D01*
G75*
G02*
X312515264Y-91452263I0J250000D01*
G01*
X312515264Y-90912263D01*
G75*
G02*
X312765264Y-90662263I250000J0D01*
G01*
G37*
G36*
G01*
X311475264Y-90662263D02*
X312015264Y-90662263D01*
G75*
G02*
X312265264Y-90912263I0J-250000D01*
G01*
X312265264Y-91452263D01*
G75*
G02*
X312015264Y-91702263I-250000J0D01*
G01*
X311475264Y-91702263D01*
G75*
G02*
X311225264Y-91452263I0J250000D01*
G01*
X311225264Y-90912263D01*
G75*
G02*
X311475264Y-90662263I250000J0D01*
G01*
G37*
G36*
G01*
X310185264Y-90662263D02*
X310725264Y-90662263D01*
G75*
G02*
X310975264Y-90912263I0J-250000D01*
G01*
X310975264Y-91452263D01*
G75*
G02*
X310725264Y-91702263I-250000J0D01*
G01*
X310185264Y-91702263D01*
G75*
G02*
X309935264Y-91452263I0J250000D01*
G01*
X309935264Y-90912263D01*
G75*
G02*
X310185264Y-90662263I250000J0D01*
G01*
G37*
G36*
G01*
X314055264Y-89372263D02*
X314595264Y-89372263D01*
G75*
G02*
X314845264Y-89622263I0J-250000D01*
G01*
X314845264Y-90162263D01*
G75*
G02*
X314595264Y-90412263I-250000J0D01*
G01*
X314055264Y-90412263D01*
G75*
G02*
X313805264Y-90162263I0J250000D01*
G01*
X313805264Y-89622263D01*
G75*
G02*
X314055264Y-89372263I250000J0D01*
G01*
G37*
G36*
G01*
X312765264Y-89372263D02*
X313305264Y-89372263D01*
G75*
G02*
X313555264Y-89622263I0J-250000D01*
G01*
X313555264Y-90162263D01*
G75*
G02*
X313305264Y-90412263I-250000J0D01*
G01*
X312765264Y-90412263D01*
G75*
G02*
X312515264Y-90162263I0J250000D01*
G01*
X312515264Y-89622263D01*
G75*
G02*
X312765264Y-89372263I250000J0D01*
G01*
G37*
G36*
G01*
X311475264Y-89372263D02*
X312015264Y-89372263D01*
G75*
G02*
X312265264Y-89622263I0J-250000D01*
G01*
X312265264Y-90162263D01*
G75*
G02*
X312015264Y-90412263I-250000J0D01*
G01*
X311475264Y-90412263D01*
G75*
G02*
X311225264Y-90162263I0J250000D01*
G01*
X311225264Y-89622263D01*
G75*
G02*
X311475264Y-89372263I250000J0D01*
G01*
G37*
G36*
G01*
X310185264Y-89372263D02*
X310725264Y-89372263D01*
G75*
G02*
X310975264Y-89622263I0J-250000D01*
G01*
X310975264Y-90162263D01*
G75*
G02*
X310725264Y-90412263I-250000J0D01*
G01*
X310185264Y-90412263D01*
G75*
G02*
X309935264Y-90162263I0J250000D01*
G01*
X309935264Y-89622263D01*
G75*
G02*
X310185264Y-89372263I250000J0D01*
G01*
G37*
G36*
G01*
X314055264Y-88082263D02*
X314595264Y-88082263D01*
G75*
G02*
X314845264Y-88332263I0J-250000D01*
G01*
X314845264Y-88872263D01*
G75*
G02*
X314595264Y-89122263I-250000J0D01*
G01*
X314055264Y-89122263D01*
G75*
G02*
X313805264Y-88872263I0J250000D01*
G01*
X313805264Y-88332263D01*
G75*
G02*
X314055264Y-88082263I250000J0D01*
G01*
G37*
G36*
G01*
X312765264Y-88082263D02*
X313305264Y-88082263D01*
G75*
G02*
X313555264Y-88332263I0J-250000D01*
G01*
X313555264Y-88872263D01*
G75*
G02*
X313305264Y-89122263I-250000J0D01*
G01*
X312765264Y-89122263D01*
G75*
G02*
X312515264Y-88872263I0J250000D01*
G01*
X312515264Y-88332263D01*
G75*
G02*
X312765264Y-88082263I250000J0D01*
G01*
G37*
G36*
G01*
X311475264Y-88082263D02*
X312015264Y-88082263D01*
G75*
G02*
X312265264Y-88332263I0J-250000D01*
G01*
X312265264Y-88872263D01*
G75*
G02*
X312015264Y-89122263I-250000J0D01*
G01*
X311475264Y-89122263D01*
G75*
G02*
X311225264Y-88872263I0J250000D01*
G01*
X311225264Y-88332263D01*
G75*
G02*
X311475264Y-88082263I250000J0D01*
G01*
G37*
G36*
G01*
X310185264Y-88082263D02*
X310725264Y-88082263D01*
G75*
G02*
X310975264Y-88332263I0J-250000D01*
G01*
X310975264Y-88872263D01*
G75*
G02*
X310725264Y-89122263I-250000J0D01*
G01*
X310185264Y-89122263D01*
G75*
G02*
X309935264Y-88872263I0J250000D01*
G01*
X309935264Y-88332263D01*
G75*
G02*
X310185264Y-88082263I250000J0D01*
G01*
G37*
G36*
G01*
X308577764Y-87912263D02*
X309327764Y-87912263D01*
G75*
G02*
X309390264Y-87974763I0J-62500D01*
G01*
X309390264Y-88099763D01*
G75*
G02*
X309327764Y-88162263I-62500J0D01*
G01*
X308577764Y-88162263D01*
G75*
G02*
X308515264Y-88099763I0J62500D01*
G01*
X308515264Y-87974763D01*
G75*
G02*
X308577764Y-87912263I62500J0D01*
G01*
G37*
G36*
G01*
X308577764Y-88412263D02*
X309327764Y-88412263D01*
G75*
G02*
X309390264Y-88474763I0J-62500D01*
G01*
X309390264Y-88599763D01*
G75*
G02*
X309327764Y-88662263I-62500J0D01*
G01*
X308577764Y-88662263D01*
G75*
G02*
X308515264Y-88599763I0J62500D01*
G01*
X308515264Y-88474763D01*
G75*
G02*
X308577764Y-88412263I62500J0D01*
G01*
G37*
G36*
G01*
X308577764Y-88912263D02*
X309327764Y-88912263D01*
G75*
G02*
X309390264Y-88974763I0J-62500D01*
G01*
X309390264Y-89099763D01*
G75*
G02*
X309327764Y-89162263I-62500J0D01*
G01*
X308577764Y-89162263D01*
G75*
G02*
X308515264Y-89099763I0J62500D01*
G01*
X308515264Y-88974763D01*
G75*
G02*
X308577764Y-88912263I62500J0D01*
G01*
G37*
G36*
G01*
X308577764Y-89412263D02*
X309327764Y-89412263D01*
G75*
G02*
X309390264Y-89474763I0J-62500D01*
G01*
X309390264Y-89599763D01*
G75*
G02*
X309327764Y-89662263I-62500J0D01*
G01*
X308577764Y-89662263D01*
G75*
G02*
X308515264Y-89599763I0J62500D01*
G01*
X308515264Y-89474763D01*
G75*
G02*
X308577764Y-89412263I62500J0D01*
G01*
G37*
G36*
G01*
X308577764Y-89912263D02*
X309327764Y-89912263D01*
G75*
G02*
X309390264Y-89974763I0J-62500D01*
G01*
X309390264Y-90099763D01*
G75*
G02*
X309327764Y-90162263I-62500J0D01*
G01*
X308577764Y-90162263D01*
G75*
G02*
X308515264Y-90099763I0J62500D01*
G01*
X308515264Y-89974763D01*
G75*
G02*
X308577764Y-89912263I62500J0D01*
G01*
G37*
G36*
G01*
X308577764Y-90412263D02*
X309327764Y-90412263D01*
G75*
G02*
X309390264Y-90474763I0J-62500D01*
G01*
X309390264Y-90599763D01*
G75*
G02*
X309327764Y-90662263I-62500J0D01*
G01*
X308577764Y-90662263D01*
G75*
G02*
X308515264Y-90599763I0J62500D01*
G01*
X308515264Y-90474763D01*
G75*
G02*
X308577764Y-90412263I62500J0D01*
G01*
G37*
G36*
G01*
X308577764Y-90912263D02*
X309327764Y-90912263D01*
G75*
G02*
X309390264Y-90974763I0J-62500D01*
G01*
X309390264Y-91099763D01*
G75*
G02*
X309327764Y-91162263I-62500J0D01*
G01*
X308577764Y-91162263D01*
G75*
G02*
X308515264Y-91099763I0J62500D01*
G01*
X308515264Y-90974763D01*
G75*
G02*
X308577764Y-90912263I62500J0D01*
G01*
G37*
G36*
G01*
X308577764Y-91412263D02*
X309327764Y-91412263D01*
G75*
G02*
X309390264Y-91474763I0J-62500D01*
G01*
X309390264Y-91599763D01*
G75*
G02*
X309327764Y-91662263I-62500J0D01*
G01*
X308577764Y-91662263D01*
G75*
G02*
X308515264Y-91599763I0J62500D01*
G01*
X308515264Y-91474763D01*
G75*
G02*
X308577764Y-91412263I62500J0D01*
G01*
G37*
G36*
G01*
X308577764Y-91912263D02*
X309327764Y-91912263D01*
G75*
G02*
X309390264Y-91974763I0J-62500D01*
G01*
X309390264Y-92099763D01*
G75*
G02*
X309327764Y-92162263I-62500J0D01*
G01*
X308577764Y-92162263D01*
G75*
G02*
X308515264Y-92099763I0J62500D01*
G01*
X308515264Y-91974763D01*
G75*
G02*
X308577764Y-91912263I62500J0D01*
G01*
G37*
G36*
G01*
X308577764Y-92412263D02*
X309327764Y-92412263D01*
G75*
G02*
X309390264Y-92474763I0J-62500D01*
G01*
X309390264Y-92599763D01*
G75*
G02*
X309327764Y-92662263I-62500J0D01*
G01*
X308577764Y-92662263D01*
G75*
G02*
X308515264Y-92599763I0J62500D01*
G01*
X308515264Y-92474763D01*
G75*
G02*
X308577764Y-92412263I62500J0D01*
G01*
G37*
G36*
G01*
X308577764Y-92912263D02*
X309327764Y-92912263D01*
G75*
G02*
X309390264Y-92974763I0J-62500D01*
G01*
X309390264Y-93099763D01*
G75*
G02*
X309327764Y-93162263I-62500J0D01*
G01*
X308577764Y-93162263D01*
G75*
G02*
X308515264Y-93099763I0J62500D01*
G01*
X308515264Y-92974763D01*
G75*
G02*
X308577764Y-92912263I62500J0D01*
G01*
G37*
G36*
G01*
X309827764Y-93537263D02*
X309952764Y-93537263D01*
G75*
G02*
X310015264Y-93599763I0J-62500D01*
G01*
X310015264Y-94349763D01*
G75*
G02*
X309952764Y-94412263I-62500J0D01*
G01*
X309827764Y-94412263D01*
G75*
G02*
X309765264Y-94349763I0J62500D01*
G01*
X309765264Y-93599763D01*
G75*
G02*
X309827764Y-93537263I62500J0D01*
G01*
G37*
G36*
G01*
X310327764Y-93537263D02*
X310452764Y-93537263D01*
G75*
G02*
X310515264Y-93599763I0J-62500D01*
G01*
X310515264Y-94349763D01*
G75*
G02*
X310452764Y-94412263I-62500J0D01*
G01*
X310327764Y-94412263D01*
G75*
G02*
X310265264Y-94349763I0J62500D01*
G01*
X310265264Y-93599763D01*
G75*
G02*
X310327764Y-93537263I62500J0D01*
G01*
G37*
G36*
G01*
X310827764Y-93537263D02*
X310952764Y-93537263D01*
G75*
G02*
X311015264Y-93599763I0J-62500D01*
G01*
X311015264Y-94349763D01*
G75*
G02*
X310952764Y-94412263I-62500J0D01*
G01*
X310827764Y-94412263D01*
G75*
G02*
X310765264Y-94349763I0J62500D01*
G01*
X310765264Y-93599763D01*
G75*
G02*
X310827764Y-93537263I62500J0D01*
G01*
G37*
G36*
G01*
X311327764Y-93537263D02*
X311452764Y-93537263D01*
G75*
G02*
X311515264Y-93599763I0J-62500D01*
G01*
X311515264Y-94349763D01*
G75*
G02*
X311452764Y-94412263I-62500J0D01*
G01*
X311327764Y-94412263D01*
G75*
G02*
X311265264Y-94349763I0J62500D01*
G01*
X311265264Y-93599763D01*
G75*
G02*
X311327764Y-93537263I62500J0D01*
G01*
G37*
G36*
G01*
X311827764Y-93537263D02*
X311952764Y-93537263D01*
G75*
G02*
X312015264Y-93599763I0J-62500D01*
G01*
X312015264Y-94349763D01*
G75*
G02*
X311952764Y-94412263I-62500J0D01*
G01*
X311827764Y-94412263D01*
G75*
G02*
X311765264Y-94349763I0J62500D01*
G01*
X311765264Y-93599763D01*
G75*
G02*
X311827764Y-93537263I62500J0D01*
G01*
G37*
G36*
G01*
X312327764Y-93537263D02*
X312452764Y-93537263D01*
G75*
G02*
X312515264Y-93599763I0J-62500D01*
G01*
X312515264Y-94349763D01*
G75*
G02*
X312452764Y-94412263I-62500J0D01*
G01*
X312327764Y-94412263D01*
G75*
G02*
X312265264Y-94349763I0J62500D01*
G01*
X312265264Y-93599763D01*
G75*
G02*
X312327764Y-93537263I62500J0D01*
G01*
G37*
G36*
G01*
X312827764Y-93537263D02*
X312952764Y-93537263D01*
G75*
G02*
X313015264Y-93599763I0J-62500D01*
G01*
X313015264Y-94349763D01*
G75*
G02*
X312952764Y-94412263I-62500J0D01*
G01*
X312827764Y-94412263D01*
G75*
G02*
X312765264Y-94349763I0J62500D01*
G01*
X312765264Y-93599763D01*
G75*
G02*
X312827764Y-93537263I62500J0D01*
G01*
G37*
G36*
G01*
X313327764Y-93537263D02*
X313452764Y-93537263D01*
G75*
G02*
X313515264Y-93599763I0J-62500D01*
G01*
X313515264Y-94349763D01*
G75*
G02*
X313452764Y-94412263I-62500J0D01*
G01*
X313327764Y-94412263D01*
G75*
G02*
X313265264Y-94349763I0J62500D01*
G01*
X313265264Y-93599763D01*
G75*
G02*
X313327764Y-93537263I62500J0D01*
G01*
G37*
G36*
G01*
X313827764Y-93537263D02*
X313952764Y-93537263D01*
G75*
G02*
X314015264Y-93599763I0J-62500D01*
G01*
X314015264Y-94349763D01*
G75*
G02*
X313952764Y-94412263I-62500J0D01*
G01*
X313827764Y-94412263D01*
G75*
G02*
X313765264Y-94349763I0J62500D01*
G01*
X313765264Y-93599763D01*
G75*
G02*
X313827764Y-93537263I62500J0D01*
G01*
G37*
G36*
G01*
X314327764Y-93537263D02*
X314452764Y-93537263D01*
G75*
G02*
X314515264Y-93599763I0J-62500D01*
G01*
X314515264Y-94349763D01*
G75*
G02*
X314452764Y-94412263I-62500J0D01*
G01*
X314327764Y-94412263D01*
G75*
G02*
X314265264Y-94349763I0J62500D01*
G01*
X314265264Y-93599763D01*
G75*
G02*
X314327764Y-93537263I62500J0D01*
G01*
G37*
G36*
G01*
X314827764Y-93537263D02*
X314952764Y-93537263D01*
G75*
G02*
X315015264Y-93599763I0J-62500D01*
G01*
X315015264Y-94349763D01*
G75*
G02*
X314952764Y-94412263I-62500J0D01*
G01*
X314827764Y-94412263D01*
G75*
G02*
X314765264Y-94349763I0J62500D01*
G01*
X314765264Y-93599763D01*
G75*
G02*
X314827764Y-93537263I62500J0D01*
G01*
G37*
G36*
G01*
X315452764Y-92912263D02*
X316202764Y-92912263D01*
G75*
G02*
X316265264Y-92974763I0J-62500D01*
G01*
X316265264Y-93099763D01*
G75*
G02*
X316202764Y-93162263I-62500J0D01*
G01*
X315452764Y-93162263D01*
G75*
G02*
X315390264Y-93099763I0J62500D01*
G01*
X315390264Y-92974763D01*
G75*
G02*
X315452764Y-92912263I62500J0D01*
G01*
G37*
G36*
G01*
X315452764Y-92412263D02*
X316202764Y-92412263D01*
G75*
G02*
X316265264Y-92474763I0J-62500D01*
G01*
X316265264Y-92599763D01*
G75*
G02*
X316202764Y-92662263I-62500J0D01*
G01*
X315452764Y-92662263D01*
G75*
G02*
X315390264Y-92599763I0J62500D01*
G01*
X315390264Y-92474763D01*
G75*
G02*
X315452764Y-92412263I62500J0D01*
G01*
G37*
G36*
G01*
X315452764Y-91912263D02*
X316202764Y-91912263D01*
G75*
G02*
X316265264Y-91974763I0J-62500D01*
G01*
X316265264Y-92099763D01*
G75*
G02*
X316202764Y-92162263I-62500J0D01*
G01*
X315452764Y-92162263D01*
G75*
G02*
X315390264Y-92099763I0J62500D01*
G01*
X315390264Y-91974763D01*
G75*
G02*
X315452764Y-91912263I62500J0D01*
G01*
G37*
G36*
G01*
X315452764Y-91412263D02*
X316202764Y-91412263D01*
G75*
G02*
X316265264Y-91474763I0J-62500D01*
G01*
X316265264Y-91599763D01*
G75*
G02*
X316202764Y-91662263I-62500J0D01*
G01*
X315452764Y-91662263D01*
G75*
G02*
X315390264Y-91599763I0J62500D01*
G01*
X315390264Y-91474763D01*
G75*
G02*
X315452764Y-91412263I62500J0D01*
G01*
G37*
G36*
G01*
X315452764Y-90912263D02*
X316202764Y-90912263D01*
G75*
G02*
X316265264Y-90974763I0J-62500D01*
G01*
X316265264Y-91099763D01*
G75*
G02*
X316202764Y-91162263I-62500J0D01*
G01*
X315452764Y-91162263D01*
G75*
G02*
X315390264Y-91099763I0J62500D01*
G01*
X315390264Y-90974763D01*
G75*
G02*
X315452764Y-90912263I62500J0D01*
G01*
G37*
G36*
G01*
X315452764Y-90412263D02*
X316202764Y-90412263D01*
G75*
G02*
X316265264Y-90474763I0J-62500D01*
G01*
X316265264Y-90599763D01*
G75*
G02*
X316202764Y-90662263I-62500J0D01*
G01*
X315452764Y-90662263D01*
G75*
G02*
X315390264Y-90599763I0J62500D01*
G01*
X315390264Y-90474763D01*
G75*
G02*
X315452764Y-90412263I62500J0D01*
G01*
G37*
G36*
G01*
X315452764Y-89912263D02*
X316202764Y-89912263D01*
G75*
G02*
X316265264Y-89974763I0J-62500D01*
G01*
X316265264Y-90099763D01*
G75*
G02*
X316202764Y-90162263I-62500J0D01*
G01*
X315452764Y-90162263D01*
G75*
G02*
X315390264Y-90099763I0J62500D01*
G01*
X315390264Y-89974763D01*
G75*
G02*
X315452764Y-89912263I62500J0D01*
G01*
G37*
G36*
G01*
X315452764Y-89412263D02*
X316202764Y-89412263D01*
G75*
G02*
X316265264Y-89474763I0J-62500D01*
G01*
X316265264Y-89599763D01*
G75*
G02*
X316202764Y-89662263I-62500J0D01*
G01*
X315452764Y-89662263D01*
G75*
G02*
X315390264Y-89599763I0J62500D01*
G01*
X315390264Y-89474763D01*
G75*
G02*
X315452764Y-89412263I62500J0D01*
G01*
G37*
G36*
G01*
X315452764Y-88912263D02*
X316202764Y-88912263D01*
G75*
G02*
X316265264Y-88974763I0J-62500D01*
G01*
X316265264Y-89099763D01*
G75*
G02*
X316202764Y-89162263I-62500J0D01*
G01*
X315452764Y-89162263D01*
G75*
G02*
X315390264Y-89099763I0J62500D01*
G01*
X315390264Y-88974763D01*
G75*
G02*
X315452764Y-88912263I62500J0D01*
G01*
G37*
G36*
G01*
X315452764Y-88412263D02*
X316202764Y-88412263D01*
G75*
G02*
X316265264Y-88474763I0J-62500D01*
G01*
X316265264Y-88599763D01*
G75*
G02*
X316202764Y-88662263I-62500J0D01*
G01*
X315452764Y-88662263D01*
G75*
G02*
X315390264Y-88599763I0J62500D01*
G01*
X315390264Y-88474763D01*
G75*
G02*
X315452764Y-88412263I62500J0D01*
G01*
G37*
G36*
G01*
X315452764Y-87912263D02*
X316202764Y-87912263D01*
G75*
G02*
X316265264Y-87974763I0J-62500D01*
G01*
X316265264Y-88099763D01*
G75*
G02*
X316202764Y-88162263I-62500J0D01*
G01*
X315452764Y-88162263D01*
G75*
G02*
X315390264Y-88099763I0J62500D01*
G01*
X315390264Y-87974763D01*
G75*
G02*
X315452764Y-87912263I62500J0D01*
G01*
G37*
G36*
G01*
X314827764Y-86662263D02*
X314952764Y-86662263D01*
G75*
G02*
X315015264Y-86724763I0J-62500D01*
G01*
X315015264Y-87474763D01*
G75*
G02*
X314952764Y-87537263I-62500J0D01*
G01*
X314827764Y-87537263D01*
G75*
G02*
X314765264Y-87474763I0J62500D01*
G01*
X314765264Y-86724763D01*
G75*
G02*
X314827764Y-86662263I62500J0D01*
G01*
G37*
G36*
G01*
X314327764Y-86662263D02*
X314452764Y-86662263D01*
G75*
G02*
X314515264Y-86724763I0J-62500D01*
G01*
X314515264Y-87474763D01*
G75*
G02*
X314452764Y-87537263I-62500J0D01*
G01*
X314327764Y-87537263D01*
G75*
G02*
X314265264Y-87474763I0J62500D01*
G01*
X314265264Y-86724763D01*
G75*
G02*
X314327764Y-86662263I62500J0D01*
G01*
G37*
G36*
G01*
X313827764Y-86662263D02*
X313952764Y-86662263D01*
G75*
G02*
X314015264Y-86724763I0J-62500D01*
G01*
X314015264Y-87474763D01*
G75*
G02*
X313952764Y-87537263I-62500J0D01*
G01*
X313827764Y-87537263D01*
G75*
G02*
X313765264Y-87474763I0J62500D01*
G01*
X313765264Y-86724763D01*
G75*
G02*
X313827764Y-86662263I62500J0D01*
G01*
G37*
G36*
G01*
X313327764Y-86662263D02*
X313452764Y-86662263D01*
G75*
G02*
X313515264Y-86724763I0J-62500D01*
G01*
X313515264Y-87474763D01*
G75*
G02*
X313452764Y-87537263I-62500J0D01*
G01*
X313327764Y-87537263D01*
G75*
G02*
X313265264Y-87474763I0J62500D01*
G01*
X313265264Y-86724763D01*
G75*
G02*
X313327764Y-86662263I62500J0D01*
G01*
G37*
G36*
G01*
X312827764Y-86662263D02*
X312952764Y-86662263D01*
G75*
G02*
X313015264Y-86724763I0J-62500D01*
G01*
X313015264Y-87474763D01*
G75*
G02*
X312952764Y-87537263I-62500J0D01*
G01*
X312827764Y-87537263D01*
G75*
G02*
X312765264Y-87474763I0J62500D01*
G01*
X312765264Y-86724763D01*
G75*
G02*
X312827764Y-86662263I62500J0D01*
G01*
G37*
G36*
G01*
X312327764Y-86662263D02*
X312452764Y-86662263D01*
G75*
G02*
X312515264Y-86724763I0J-62500D01*
G01*
X312515264Y-87474763D01*
G75*
G02*
X312452764Y-87537263I-62500J0D01*
G01*
X312327764Y-87537263D01*
G75*
G02*
X312265264Y-87474763I0J62500D01*
G01*
X312265264Y-86724763D01*
G75*
G02*
X312327764Y-86662263I62500J0D01*
G01*
G37*
G36*
G01*
X311827764Y-86662263D02*
X311952764Y-86662263D01*
G75*
G02*
X312015264Y-86724763I0J-62500D01*
G01*
X312015264Y-87474763D01*
G75*
G02*
X311952764Y-87537263I-62500J0D01*
G01*
X311827764Y-87537263D01*
G75*
G02*
X311765264Y-87474763I0J62500D01*
G01*
X311765264Y-86724763D01*
G75*
G02*
X311827764Y-86662263I62500J0D01*
G01*
G37*
G36*
G01*
X311327764Y-86662263D02*
X311452764Y-86662263D01*
G75*
G02*
X311515264Y-86724763I0J-62500D01*
G01*
X311515264Y-87474763D01*
G75*
G02*
X311452764Y-87537263I-62500J0D01*
G01*
X311327764Y-87537263D01*
G75*
G02*
X311265264Y-87474763I0J62500D01*
G01*
X311265264Y-86724763D01*
G75*
G02*
X311327764Y-86662263I62500J0D01*
G01*
G37*
G36*
G01*
X310827764Y-86662263D02*
X310952764Y-86662263D01*
G75*
G02*
X311015264Y-86724763I0J-62500D01*
G01*
X311015264Y-87474763D01*
G75*
G02*
X310952764Y-87537263I-62500J0D01*
G01*
X310827764Y-87537263D01*
G75*
G02*
X310765264Y-87474763I0J62500D01*
G01*
X310765264Y-86724763D01*
G75*
G02*
X310827764Y-86662263I62500J0D01*
G01*
G37*
G36*
G01*
X310327764Y-86662263D02*
X310452764Y-86662263D01*
G75*
G02*
X310515264Y-86724763I0J-62500D01*
G01*
X310515264Y-87474763D01*
G75*
G02*
X310452764Y-87537263I-62500J0D01*
G01*
X310327764Y-87537263D01*
G75*
G02*
X310265264Y-87474763I0J62500D01*
G01*
X310265264Y-86724763D01*
G75*
G02*
X310327764Y-86662263I62500J0D01*
G01*
G37*
G36*
G01*
X309827764Y-86662263D02*
X309952764Y-86662263D01*
G75*
G02*
X310015264Y-86724763I0J-62500D01*
G01*
X310015264Y-87474763D01*
G75*
G02*
X309952764Y-87537263I-62500J0D01*
G01*
X309827764Y-87537263D01*
G75*
G02*
X309765264Y-87474763I0J62500D01*
G01*
X309765264Y-86724763D01*
G75*
G02*
X309827764Y-86662263I62500J0D01*
G01*
G37*
%TD*%
%TO.C,R7*%
X305481508Y-95845393D03*
X307381508Y-95845393D03*
%TD*%
D19*
%TO.C,R6*%
X318492455Y-87270385D03*
X318492455Y-85370385D03*
%TD*%
%TO.C,R5*%
X309462760Y-81912568D03*
X309462760Y-80012568D03*
%TD*%
%TO.C,R4*%
X311348699Y-81912568D03*
X311348699Y-80012568D03*
%TD*%
D20*
%TO.C,J1*%
X302419004Y-48232849D03*
X303419004Y-48232849D03*
X301419004Y-48232849D03*
X300419004Y-48232849D03*
D21*
X299119004Y-44357849D03*
X304719004Y-44357849D03*
%TD*%
D22*
%TO.C,C7*%
X305671508Y-94059454D03*
X307171508Y-94059454D03*
%TD*%
D23*
%TO.C,C6*%
X313134638Y-81712568D03*
X313134638Y-80212568D03*
%TD*%
D22*
%TO.C,C5*%
X316265890Y-95845393D03*
X314765890Y-95845393D03*
%TD*%
%TO.C,C4*%
X318337768Y-88701637D03*
X319837768Y-88701637D03*
%TD*%
D23*
%TO.C,C1*%
X307181508Y-87665698D03*
X307181508Y-86165698D03*
%TD*%
M02*
