%TF.GenerationSoftware,KiCad,Pcbnew,(5.1.10)-1*%
%TF.CreationDate,2022-05-13T21:41:30+07:00*%
%TF.ProjectId,solder,736f6c64-6572-42e6-9b69-6361645f7063,rev?*%
%TF.SameCoordinates,Original*%
%TF.FileFunction,Legend,Top*%
%TF.FilePolarity,Positive*%
%FSLAX46Y46*%
G04 Gerber Fmt 4.6, Leading zero omitted, Abs format (unit mm)*
G04 Created by KiCad (PCBNEW (5.1.10)-1) date 2022-05-13 21:41:30*
%MOMM*%
%LPD*%
G01*
G04 APERTURE LIST*
%ADD10C,2.000000*%
%ADD11C,0.120000*%
%ADD12C,0.150000*%
G04 APERTURE END LIST*
D10*
X54150020Y-16037520D02*
X54150020Y-15815500D01*
X60150019Y-15815499D02*
X60150020Y-16037520D01*
X60150020Y-16037520D02*
G75*
G02*
X54150020Y-16037520I-3000000J0D01*
G01*
X53650020Y-15315500D02*
X50837485Y-15315500D01*
X53650020Y-15315500D02*
G75*
G02*
X54150020Y-15815500I0J-500000D01*
G01*
X305919209Y-18312510D02*
X306719209Y-18312510D01*
X340334013Y-132152325D02*
G75*
G02*
X346415987Y-132152325I3040987J-1146682D01*
G01*
X301759010Y-132152326D02*
G75*
G02*
X300823321Y-132799500I-935689J352826D01*
G01*
X71849438Y-132799500D02*
X222249737Y-132794616D01*
X305919209Y-19312510D02*
G75*
G02*
X305919209Y-18312510I0J500000D01*
G01*
X356125950Y-15315501D02*
X347067511Y-15316697D01*
X49849379Y-16161747D02*
G75*
G02*
X45402881Y-16161748I-2223249J345946D01*
G01*
X307498949Y-19312510D02*
X305919209Y-19312510D01*
X320349157Y-15315500D02*
G75*
G02*
X320850019Y-15815498I862J-499999D01*
G01*
X338679478Y-15315502D02*
G75*
G02*
X339672539Y-16197927I-1J-999998D01*
G01*
X360125951Y-128799500D02*
X360125950Y-19315499D01*
X327350020Y-132799500D02*
X339398321Y-132799500D01*
X301759012Y-132152325D02*
G75*
G02*
X307840988Y-132152324I3040988J-1146682D01*
G01*
X38946686Y-16197924D02*
G75*
G02*
X39939750Y-15315500I993064J-117576D01*
G01*
X20125951Y-132799500D02*
G75*
G02*
X16125951Y-128799500I-271J3999729D01*
G01*
X308498949Y-18312510D02*
G75*
G02*
X307498949Y-19312510I-1000000J0D01*
G01*
X308498949Y-16315500D02*
X308498949Y-18312510D01*
X308776677Y-132799500D02*
X320350020Y-132799500D01*
X308498949Y-16315500D02*
G75*
G02*
X309498949Y-15315500I1000000J0D01*
G01*
X326850019Y-15815499D02*
X326850020Y-16037520D01*
X346127480Y-16197767D02*
G75*
G02*
X339672539Y-16197927I-3227480J381956D01*
G01*
X320850020Y-131600019D02*
G75*
G02*
X326850020Y-131600019I3000000J0D01*
G01*
X44414775Y-15315501D02*
X39939750Y-15315500D01*
X223185290Y-132147408D02*
G75*
G02*
X229267238Y-132151140I3040272J-1146282D01*
G01*
X223185290Y-132147407D02*
G75*
G02*
X222249737Y-132794616I-935702J352791D01*
G01*
X64832214Y-132152124D02*
G75*
G02*
X70913673Y-132152122I3040730J-1145833D01*
G01*
X64832215Y-132152123D02*
G75*
G02*
X63896450Y-132799500I-935765J352623D01*
G01*
X31498637Y-15315584D02*
X20214941Y-15316500D01*
X320349157Y-15315499D02*
X309498949Y-15315500D01*
X360125952Y-128799499D02*
G75*
G02*
X356125950Y-132799500I-3999750J-251D01*
G01*
X320850020Y-16037519D02*
X320850019Y-15815498D01*
X347351677Y-132799502D02*
G75*
G02*
X346415987Y-132152325I1J1000002D01*
G01*
X41825020Y-132799500D02*
X63896450Y-132799500D01*
X326850020Y-16037520D02*
G75*
G02*
X320850020Y-16037519I-3000000J1D01*
G01*
X16125950Y-19404499D02*
X16125951Y-128799500D01*
X340334010Y-132152326D02*
G75*
G02*
X339398321Y-132799500I-935689J352826D01*
G01*
X320850020Y-132299500D02*
G75*
G02*
X320350020Y-132799500I-500000J0D01*
G01*
X308776677Y-132799502D02*
G75*
G02*
X307840987Y-132152325I1J1000002D01*
G01*
X35325020Y-132299501D02*
G75*
G02*
X34825019Y-132799500I-500000J1D01*
G01*
X326850019Y-15815499D02*
G75*
G02*
X327349158Y-15315500I500000J0D01*
G01*
X346127478Y-16197766D02*
G75*
G02*
X347067511Y-15316697I993069J-117523D01*
G01*
X44414775Y-15315502D02*
G75*
G02*
X45402881Y-16161748I-1J-999998D01*
G01*
X338679477Y-15315501D02*
X327349158Y-15315500D01*
X356125949Y-15315501D02*
G75*
G02*
X360125950Y-19315499I248J-3999753D01*
G01*
X347351677Y-132799500D02*
X356125950Y-132799500D01*
X35325020Y-132299500D02*
X35325020Y-131600019D01*
X320850020Y-132299500D02*
X320850020Y-131600019D01*
X41825020Y-132799500D02*
G75*
G02*
X41325020Y-132299500I0J500000D01*
G01*
X16125950Y-19404500D02*
G75*
G02*
X20214941Y-15316499I4000382J87640D01*
G01*
X20125951Y-132799499D02*
X34825019Y-132799500D01*
X327350020Y-132799500D02*
G75*
G02*
X326850020Y-132299500I0J500000D01*
G01*
X71849438Y-132799500D02*
G75*
G02*
X70913673Y-132152122I1J1000000D01*
G01*
X230203372Y-132799499D02*
X300823321Y-132799500D01*
X49849376Y-16161746D02*
G75*
G02*
X50837485Y-15315500I988109J-153754D01*
G01*
X35325020Y-131600019D02*
G75*
G02*
X41325020Y-131600019I3000000J0D01*
G01*
X326850020Y-131600019D02*
X326850020Y-132299500D01*
X41325020Y-131600019D02*
X41325020Y-132299500D01*
X38946687Y-16197925D02*
G75*
G02*
X32491778Y-16197987I-3227458J382125D01*
G01*
X31498636Y-15315585D02*
G75*
G02*
X32491778Y-16197987I82J-999998D01*
G01*
X297619218Y-9662517D02*
X297619218Y-17812510D01*
X307219209Y-9662517D02*
X297619218Y-9662517D01*
X307219209Y-17812510D02*
X307219209Y-9662517D01*
X230203372Y-132799501D02*
G75*
G02*
X229267238Y-132151140I2J1000001D01*
G01*
X307219209Y-17812510D02*
G75*
G02*
X306719209Y-18312510I-500000J0D01*
G01*
X106325845Y-15315500D02*
X60650020Y-15315500D01*
X135570193Y-16164038D02*
G75*
G02*
X131132063Y-16164037I-2219065J340029D01*
G01*
X109537198Y-18065803D02*
G75*
G02*
X107313952Y-16161748I1J2250001D01*
G01*
X60150019Y-15815499D02*
G75*
G02*
X60650020Y-15315500I500000J-1D01*
G01*
X130143600Y-15315500D02*
X120666189Y-15315500D01*
X197646148Y-19065801D02*
X195261900Y-19065801D01*
X214855608Y-15315501D02*
G75*
G02*
X215848672Y-16197923I1J-999999D01*
G01*
X130143600Y-15315499D02*
G75*
G02*
X131132063Y-16164038I-1J-1000001D01*
G01*
X195261899Y-19065801D02*
G75*
G02*
X192034442Y-16197923I1J3250000D01*
G01*
X222303588Y-16197925D02*
G75*
G02*
X215848672Y-16197923I-3227458J379082D01*
G01*
X191041377Y-15315500D02*
G75*
G02*
X192034442Y-16197923I1J-1000000D01*
G01*
X200873606Y-16197924D02*
G75*
G02*
X197646148Y-19065801I-3227458J382123D01*
G01*
X119730523Y-15962614D02*
G75*
G02*
X120666189Y-15315500I935666J-352886D01*
G01*
X214855609Y-15315500D02*
X201866669Y-15315500D01*
X191041378Y-15315499D02*
X136558659Y-15315500D01*
X116689946Y-18065500D02*
X109537197Y-18065802D01*
X222303587Y-16197924D02*
G75*
G02*
X223296651Y-15315500I993064J-117576D01*
G01*
X135570196Y-16164037D02*
G75*
G02*
X136558659Y-15315500I988463J-151463D01*
G01*
X200873605Y-16197924D02*
G75*
G02*
X201866669Y-15315500I993064J-117576D01*
G01*
X106325845Y-15315501D02*
G75*
G02*
X107313952Y-16161748I-1J-999999D01*
G01*
X119730523Y-15962614D02*
G75*
G02*
X116689946Y-18065500I-3040577J1146752D01*
G01*
X242887199Y-19065801D02*
G75*
G02*
X239659742Y-16197923I1J3250000D01*
G01*
X248498906Y-16197924D02*
G75*
G02*
X245271448Y-19065801I-3227458J382123D01*
G01*
X238666677Y-15315500D02*
G75*
G02*
X239659742Y-16197923I1J-1000000D01*
G01*
X245271448Y-19065801D02*
X242887200Y-19065801D01*
X248498905Y-16197924D02*
G75*
G02*
X249491969Y-15315500I993064J-117576D01*
G01*
X274387167Y-15315499D02*
X249491969Y-15315500D01*
X238666678Y-15315499D02*
X223296651Y-15315500D01*
X297338950Y-19312510D02*
G75*
G02*
X296338950Y-18312510I0J1000000D01*
G01*
X281835146Y-16197925D02*
G75*
G02*
X275380231Y-16197923I-3227457J382124D01*
G01*
X281835146Y-16197924D02*
G75*
G02*
X282828210Y-15315500I993064J-117576D01*
G01*
X295338950Y-15315500D02*
X282828210Y-15315500D01*
X296338950Y-18312510D02*
X296338950Y-16315500D01*
X295338950Y-15315500D02*
G75*
G02*
X296338950Y-16315500I0J-1000000D01*
G01*
X298119218Y-18312510D02*
X298919218Y-18312510D01*
X298119218Y-18312510D02*
G75*
G02*
X297619218Y-17812510I0J500000D01*
G01*
X298919218Y-19312510D02*
X297338950Y-19312510D01*
X274387166Y-15315500D02*
G75*
G02*
X275380231Y-16197923I1J-1000000D01*
G01*
X298919218Y-18312510D02*
G75*
G02*
X298919218Y-19312510I0J-500000D01*
G01*
D11*
%TO.C,J5*%
X299319004Y-57347849D02*
X299319004Y-58150319D01*
X299319004Y-58765379D02*
X299319004Y-59567849D01*
X303064004Y-57347849D02*
X299319004Y-57347849D01*
X303064004Y-59567849D02*
X299319004Y-59567849D01*
X303064004Y-57347849D02*
X303064004Y-57894378D01*
X303064004Y-59021320D02*
X303064004Y-59567849D01*
X303824004Y-57347849D02*
X304584004Y-57347849D01*
X304584004Y-57347849D02*
X304584004Y-58457849D01*
D12*
%TO.C,J4*%
X355425000Y-109175000D02*
X354425000Y-109175000D01*
X355425000Y-106775000D02*
X355425000Y-109175000D01*
X350425000Y-104975000D02*
X354425000Y-104975000D01*
X349425000Y-109175000D02*
X349425000Y-106775000D01*
X350425000Y-109175000D02*
X349425000Y-109175000D01*
%TO.C,J2*%
X306162500Y-16962500D02*
X298462500Y-16962500D01*
X298462500Y-11512500D02*
X298462500Y-16962500D01*
X306162500Y-11512500D02*
X306162500Y-16962500D01*
X301979166Y-12996880D02*
X301979166Y-13711166D01*
X301931547Y-13854023D01*
X301836309Y-13949261D01*
X301693452Y-13996880D01*
X301598214Y-13996880D01*
X302407738Y-13092119D02*
X302455357Y-13044500D01*
X302550595Y-12996880D01*
X302788690Y-12996880D01*
X302883928Y-13044500D01*
X302931547Y-13092119D01*
X302979166Y-13187357D01*
X302979166Y-13282595D01*
X302931547Y-13425452D01*
X302360119Y-13996880D01*
X302979166Y-13996880D01*
%TD*%
M02*
