%MOIN*%
%OFA0B0*%
%FSLAX36Y36*%
%IPPOS*%
%LPD*%
%ADD10C,0*%
D10*
X003149606Y002390167D02*
X003149606Y002390167D01*
X003149606Y002265344D01*
X003149121Y002259185D01*
X003147679Y002253178D01*
X003145315Y002247470D01*
X003142087Y002242202D01*
X003138075Y002237505D01*
X003133377Y002233493D01*
X003128109Y002230265D01*
X003122402Y002227900D01*
X003116395Y002226458D01*
X003110236Y002225973D01*
X003104077Y002226458D01*
X003098070Y002227900D01*
X003092362Y002230265D01*
X003087095Y002233493D01*
X003082397Y002237505D01*
X003078385Y002242202D01*
X003075157Y002247470D01*
X003072793Y002253178D01*
X003071350Y002259185D01*
X003070866Y002265344D01*
X003070866Y002265344D01*
X003070866Y002390167D01*
X003071350Y002396326D01*
X003072793Y002402333D01*
X003075157Y002408041D01*
X003078385Y002413308D01*
X003082397Y002418006D01*
X003087095Y002422018D01*
X003092362Y002425246D01*
X003098070Y002427611D01*
X003104077Y002429053D01*
X003110236Y002429537D01*
X003116395Y002429053D01*
X003122402Y002427611D01*
X003128109Y002425246D01*
X003133377Y002422018D01*
X003138075Y002418006D01*
X003142087Y002413308D01*
X003145315Y002408041D01*
X003147679Y002402333D01*
X003149121Y002396326D01*
X003149606Y002390167D01*
X003149606Y002390167D01*
X002442509Y002185039D02*
X002442509Y002185039D01*
X002596860Y002185039D01*
X002599949Y002184918D01*
X002603019Y002184555D01*
X002606051Y002183952D01*
X002609026Y002183112D01*
X002611927Y002182042D01*
X002614734Y002180748D01*
X002617431Y002179238D01*
X002620001Y002177520D01*
X002622429Y002175606D01*
X002624699Y002173508D01*
X002626798Y002171238D01*
X002628711Y002168810D01*
X002630429Y002166240D01*
X002631939Y002163543D01*
X002633234Y002160736D01*
X002634303Y002157835D01*
X002635143Y002154860D01*
X002635746Y002151828D01*
X002636109Y002148758D01*
X002636230Y002145669D01*
X002636230Y002145669D01*
X002636109Y002142580D01*
X002635746Y002139510D01*
X002635143Y002136478D01*
X002634303Y002133503D01*
X002633234Y002130603D01*
X002631939Y002127795D01*
X002630429Y002125098D01*
X002628711Y002122528D01*
X002626798Y002120100D01*
X002624699Y002117830D01*
X002622429Y002115732D01*
X002620001Y002113818D01*
X002617431Y002112100D01*
X002614734Y002110590D01*
X002611927Y002109296D01*
X002609026Y002108226D01*
X002606051Y002107387D01*
X002603019Y002106783D01*
X002599949Y002106420D01*
X002596860Y002106299D01*
X002442509Y002106299D01*
X002440056Y002106375D01*
X002437613Y002106604D01*
X002435189Y002106985D01*
X002432793Y002107516D01*
X002430435Y002108196D01*
X002428124Y002109021D01*
X002425869Y002109988D01*
X002423678Y002111094D01*
X002421561Y002112334D01*
X002419525Y002113704D01*
X002417578Y002115198D01*
X002415728Y002116811D01*
X002413982Y002118535D01*
X002412347Y002120365D01*
X002410829Y002122293D01*
X002409435Y002124312D01*
X002408168Y002126414D01*
X002407036Y002128591D01*
X002406041Y002130834D01*
X002405187Y002133135D01*
X002405187Y002133135D01*
X002404169Y002136722D01*
X002403494Y002140389D01*
X002403170Y002144103D01*
X002403198Y002147832D01*
X002403579Y002151541D01*
X002404309Y002155197D01*
X002405382Y002158768D01*
X002406787Y002162222D01*
X002408513Y002165527D01*
X002410544Y002168653D01*
X002412862Y002171574D01*
X002415445Y002174262D01*
X002418271Y002176694D01*
X002421315Y002178848D01*
X002424549Y002180704D01*
X002427944Y002182246D01*
X002431469Y002183460D01*
X002435093Y002184335D01*
X002438784Y002184863D01*
X002442509Y002185039D01*
X003149606Y001661821D02*
X003149606Y001661821D01*
X003149606Y001536997D01*
X003149121Y001530838D01*
X003147679Y001524831D01*
X003145315Y001519123D01*
X003142087Y001513856D01*
X003138075Y001509158D01*
X003133377Y001505146D01*
X003128109Y001501918D01*
X003122402Y001499554D01*
X003116395Y001498112D01*
X003110236Y001497627D01*
X003104077Y001498112D01*
X003098070Y001499554D01*
X003092362Y001501918D01*
X003087095Y001505146D01*
X003082397Y001509158D01*
X003078385Y001513856D01*
X003075157Y001519123D01*
X003072793Y001524831D01*
X003071350Y001530838D01*
X003070866Y001536997D01*
X003070866Y001536997D01*
X003070866Y001661821D01*
X003071350Y001667980D01*
X003072793Y001673987D01*
X003075157Y001679695D01*
X003078385Y001684962D01*
X003082397Y001689660D01*
X003087095Y001693672D01*
X003092362Y001696900D01*
X003098070Y001699264D01*
X003104077Y001700706D01*
X003110236Y001701191D01*
X003116395Y001700706D01*
X003122402Y001699264D01*
X003128109Y001696900D01*
X003133377Y001693672D01*
X003138075Y001689660D01*
X003142087Y001684962D01*
X003145315Y001679695D01*
X003147679Y001673987D01*
X003149121Y001667980D01*
X003149606Y001661821D01*
X003149606Y001661821D01*
X002362204Y001661821D02*
X002362204Y001661821D01*
X002362204Y001536997D01*
X002361720Y001530838D01*
X002360277Y001524831D01*
X002357913Y001519123D01*
X002354685Y001513856D01*
X002350673Y001509158D01*
X002345975Y001505146D01*
X002340708Y001501918D01*
X002335000Y001499554D01*
X002328993Y001498112D01*
X002322834Y001497627D01*
X002316675Y001498112D01*
X002310668Y001499554D01*
X002304961Y001501918D01*
X002299693Y001505146D01*
X002294995Y001509158D01*
X002290983Y001513856D01*
X002287755Y001519123D01*
X002285391Y001524831D01*
X002283949Y001530838D01*
X002283464Y001536997D01*
X002283464Y001536997D01*
X002283464Y001661821D01*
X002283949Y001667980D01*
X002285391Y001673987D01*
X002287755Y001679695D01*
X002290983Y001684962D01*
X002294995Y001689660D01*
X002299693Y001693672D01*
X002304961Y001696900D01*
X002310668Y001699264D01*
X002316675Y001700706D01*
X002322834Y001701191D01*
X002328993Y001700706D01*
X002335000Y001699264D01*
X002340708Y001696900D01*
X002345975Y001693672D01*
X002350673Y001689660D01*
X002354685Y001684962D01*
X002357913Y001679695D01*
X002360277Y001673987D01*
X002361720Y001667980D01*
X002362204Y001661821D01*
X002362204Y001661821D01*
X001574803Y002390167D02*
X001574803Y002390167D01*
X001574803Y002265344D01*
X001574318Y002259185D01*
X001572876Y002253178D01*
X001570512Y002247470D01*
X001567284Y002242202D01*
X001563271Y002237505D01*
X001558574Y002233493D01*
X001553306Y002230265D01*
X001547599Y002227900D01*
X001541591Y002226458D01*
X001535433Y002225973D01*
X001529274Y002226458D01*
X001523267Y002227900D01*
X001517559Y002230265D01*
X001512291Y002233493D01*
X001507594Y002237505D01*
X001503582Y002242202D01*
X001500354Y002247470D01*
X001497989Y002253178D01*
X001496547Y002259185D01*
X001496063Y002265344D01*
X001496063Y002265344D01*
X001496063Y002390167D01*
X001496547Y002396326D01*
X001497989Y002402333D01*
X001500354Y002408041D01*
X001503582Y002413308D01*
X001507594Y002418006D01*
X001512291Y002422018D01*
X001517559Y002425246D01*
X001523267Y002427611D01*
X001529274Y002429053D01*
X001535433Y002429537D01*
X001541591Y002429053D01*
X001547599Y002427611D01*
X001553306Y002425246D01*
X001558574Y002422018D01*
X001563271Y002418006D01*
X001567284Y002413308D01*
X001570512Y002408041D01*
X001572876Y002402333D01*
X001574318Y002396326D01*
X001574803Y002390167D01*
X001574803Y002390167D01*
X001574803Y001661821D02*
X001574803Y001661821D01*
X001574803Y001536997D01*
X001574318Y001530838D01*
X001572876Y001524831D01*
X001570512Y001519123D01*
X001567284Y001513856D01*
X001563271Y001509158D01*
X001558574Y001505146D01*
X001553306Y001501918D01*
X001547599Y001499554D01*
X001541591Y001498112D01*
X001535433Y001497627D01*
X001529274Y001498112D01*
X001523267Y001499554D01*
X001517559Y001501918D01*
X001512291Y001505146D01*
X001507594Y001509158D01*
X001503582Y001513856D01*
X001500354Y001519123D01*
X001497989Y001524831D01*
X001496547Y001530838D01*
X001496063Y001536997D01*
X001496063Y001536997D01*
X001496063Y001661821D01*
X001496547Y001667980D01*
X001497989Y001673987D01*
X001500354Y001679695D01*
X001503582Y001684962D01*
X001507594Y001689660D01*
X001512291Y001693672D01*
X001517559Y001696900D01*
X001523267Y001699264D01*
X001529274Y001700706D01*
X001535433Y001701191D01*
X001541591Y001700706D01*
X001547599Y001699264D01*
X001553306Y001696900D01*
X001558574Y001693672D01*
X001563271Y001689660D01*
X001567284Y001684962D01*
X001570512Y001679695D01*
X001572876Y001673987D01*
X001574318Y001667980D01*
X001574803Y001661821D01*
X001574803Y001661821D01*
X003149606Y000933474D02*
X003149606Y000933474D01*
X003149606Y000808651D01*
X003149121Y000802492D01*
X003147679Y000796485D01*
X003145315Y000790777D01*
X003142087Y000785510D01*
X003138075Y000780812D01*
X003133377Y000776800D01*
X003128109Y000773572D01*
X003122402Y000771207D01*
X003116395Y000769765D01*
X003110236Y000769281D01*
X003104077Y000769765D01*
X003098070Y000771207D01*
X003092362Y000773572D01*
X003087095Y000776800D01*
X003082397Y000780812D01*
X003078385Y000785510D01*
X003075157Y000790777D01*
X003072793Y000796485D01*
X003071350Y000802492D01*
X003070866Y000808651D01*
X003070866Y000808651D01*
X003070866Y000933474D01*
X003071350Y000939633D01*
X003072793Y000945640D01*
X003075157Y000951348D01*
X003078385Y000956616D01*
X003082397Y000961313D01*
X003087095Y000965325D01*
X003092362Y000968553D01*
X003098070Y000970918D01*
X003104077Y000972360D01*
X003110236Y000972845D01*
X003116395Y000972360D01*
X003122402Y000970918D01*
X003128109Y000968553D01*
X003133377Y000965325D01*
X003138075Y000961313D01*
X003142087Y000956616D01*
X003145315Y000951348D01*
X003147679Y000945640D01*
X003149121Y000939633D01*
X003149606Y000933474D01*
X003149606Y000933474D01*
X003070866Y001172824D02*
X003070866Y001172824D01*
X003070866Y001297648D01*
X003070866Y001297648D01*
X003071350Y001303807D01*
X003072793Y001309814D01*
X003075157Y001315522D01*
X003078385Y001320789D01*
X003082397Y001325487D01*
X003087095Y001329499D01*
X003092362Y001332727D01*
X003098070Y001335091D01*
X003104077Y001336533D01*
X003110236Y001337018D01*
X003116395Y001336533D01*
X003122402Y001335091D01*
X003128109Y001332727D01*
X003133377Y001329499D01*
X003138075Y001325487D01*
X003142087Y001320789D01*
X003145315Y001315522D01*
X003147679Y001309814D01*
X003149121Y001303807D01*
X003149606Y001297648D01*
X003149606Y001172824D01*
X003149606Y001172824D01*
X003149121Y001166665D01*
X003147679Y001160658D01*
X003145315Y001154950D01*
X003142087Y001149683D01*
X003138075Y001144985D01*
X003133377Y001140973D01*
X003128109Y001137745D01*
X003122402Y001135381D01*
X003116395Y001133938D01*
X003110236Y001133454D01*
X003104077Y001133938D01*
X003098070Y001135381D01*
X003092362Y001137745D01*
X003087095Y001140973D01*
X003082397Y001144985D01*
X003078385Y001149683D01*
X003075157Y001154950D01*
X003072793Y001160658D01*
X003071350Y001166665D01*
X003070866Y001172824D01*
X002362204Y000933474D02*
X002362204Y000933474D01*
X002362204Y000808651D01*
X002361720Y000802492D01*
X002360277Y000796485D01*
X002357913Y000790777D01*
X002354685Y000785510D01*
X002350673Y000780812D01*
X002345975Y000776800D01*
X002340708Y000773572D01*
X002335000Y000771207D01*
X002328993Y000769765D01*
X002322834Y000769281D01*
X002316675Y000769765D01*
X002310668Y000771207D01*
X002304961Y000773572D01*
X002299693Y000776800D01*
X002294995Y000780812D01*
X002290983Y000785510D01*
X002287755Y000790777D01*
X002285391Y000796485D01*
X002283949Y000802492D01*
X002283464Y000808651D01*
X002283464Y000808651D01*
X002283464Y000933474D01*
X002283949Y000939633D01*
X002285391Y000945640D01*
X002287755Y000951348D01*
X002290983Y000956616D01*
X002294995Y000961313D01*
X002299693Y000965325D01*
X002304961Y000968553D01*
X002310668Y000970918D01*
X002316675Y000972360D01*
X002322834Y000972845D01*
X002328993Y000972360D01*
X002335000Y000970918D01*
X002340708Y000968553D01*
X002345975Y000965325D01*
X002350673Y000961313D01*
X002354685Y000956616D01*
X002357913Y000951348D01*
X002360277Y000945640D01*
X002361720Y000939633D01*
X002362204Y000933474D01*
X002362204Y000933474D01*
X002283464Y001172824D02*
X002283464Y001172824D01*
X002283464Y001297648D01*
X002283464Y001297648D01*
X002283949Y001303807D01*
X002285391Y001309814D01*
X002287755Y001315522D01*
X002290983Y001320789D01*
X002294995Y001325487D01*
X002299693Y001329499D01*
X002304961Y001332727D01*
X002310668Y001335091D01*
X002316675Y001336533D01*
X002322834Y001337018D01*
X002328993Y001336533D01*
X002335000Y001335091D01*
X002340708Y001332727D01*
X002345975Y001329499D01*
X002350673Y001325487D01*
X002354685Y001320789D01*
X002357913Y001315522D01*
X002360277Y001309814D01*
X002361720Y001303807D01*
X002362204Y001297648D01*
X002362204Y001172824D01*
X002362204Y001172824D01*
X002361720Y001166665D01*
X002360277Y001160658D01*
X002357913Y001154950D01*
X002354685Y001149683D01*
X002350673Y001144985D01*
X002345975Y001140973D01*
X002340708Y001137745D01*
X002335000Y001135381D01*
X002328993Y001133938D01*
X002322834Y001133454D01*
X002316675Y001133938D01*
X002310668Y001135381D01*
X002304961Y001137745D01*
X002299693Y001140973D01*
X002294995Y001144985D01*
X002290983Y001149683D01*
X002287755Y001154950D01*
X002285391Y001160658D01*
X002283949Y001166665D01*
X002283464Y001172824D01*
X001574803Y000933474D02*
X001574803Y000933474D01*
X001574803Y000808651D01*
X001574318Y000802492D01*
X001572876Y000796485D01*
X001570512Y000790777D01*
X001567284Y000785510D01*
X001563271Y000780812D01*
X001558574Y000776800D01*
X001553306Y000773572D01*
X001547599Y000771207D01*
X001541591Y000769765D01*
X001535433Y000769281D01*
X001529274Y000769765D01*
X001523267Y000771207D01*
X001517559Y000773572D01*
X001512291Y000776800D01*
X001507594Y000780812D01*
X001503582Y000785510D01*
X001500354Y000790777D01*
X001497989Y000796485D01*
X001496547Y000802492D01*
X001496063Y000808651D01*
X001496063Y000808651D01*
X001496063Y000933474D01*
X001496547Y000939633D01*
X001497989Y000945640D01*
X001500354Y000951348D01*
X001503582Y000956616D01*
X001507594Y000961313D01*
X001512291Y000965325D01*
X001517559Y000968553D01*
X001523267Y000970918D01*
X001529274Y000972360D01*
X001535433Y000972845D01*
X001541591Y000972360D01*
X001547599Y000970918D01*
X001553306Y000968553D01*
X001558574Y000965325D01*
X001563271Y000961313D01*
X001567284Y000956616D01*
X001570512Y000951348D01*
X001572876Y000945640D01*
X001574318Y000939633D01*
X001574803Y000933474D01*
X001574803Y000933474D01*
X001496063Y001172824D02*
X001496063Y001172824D01*
X001496063Y001297648D01*
X001496063Y001297648D01*
X001496547Y001303807D01*
X001497989Y001309814D01*
X001500354Y001315522D01*
X001503582Y001320789D01*
X001507594Y001325487D01*
X001512291Y001329499D01*
X001517559Y001332727D01*
X001523267Y001335091D01*
X001529274Y001336533D01*
X001535433Y001337018D01*
X001541591Y001336533D01*
X001547599Y001335091D01*
X001553306Y001332727D01*
X001558574Y001329499D01*
X001563271Y001325487D01*
X001567284Y001320789D01*
X001570512Y001315522D01*
X001572876Y001309814D01*
X001574318Y001303807D01*
X001574803Y001297648D01*
X001574803Y001172824D01*
X001574803Y001172824D01*
X001574318Y001166665D01*
X001572876Y001160658D01*
X001570512Y001154950D01*
X001567284Y001149683D01*
X001563271Y001144985D01*
X001558574Y001140973D01*
X001553306Y001137745D01*
X001547599Y001135381D01*
X001541591Y001133938D01*
X001535433Y001133454D01*
X001529274Y001133938D01*
X001523267Y001135381D01*
X001517559Y001137745D01*
X001512291Y001140973D01*
X001507594Y001144985D01*
X001503582Y001149683D01*
X001500354Y001154950D01*
X001497989Y001160658D01*
X001496547Y001166665D01*
X001496063Y001172824D01*
X000787401Y002390167D02*
X000787401Y002390167D01*
X000787401Y002265344D01*
X000786916Y002259185D01*
X000785474Y002253178D01*
X000783110Y002247470D01*
X000779882Y002242202D01*
X000775870Y002237505D01*
X000771172Y002233493D01*
X000765905Y002230265D01*
X000760197Y002227900D01*
X000754190Y002226458D01*
X000748031Y002225973D01*
X000741872Y002226458D01*
X000735865Y002227900D01*
X000730157Y002230265D01*
X000724890Y002233493D01*
X000720192Y002237505D01*
X000716180Y002242202D01*
X000712952Y002247470D01*
X000710588Y002253178D01*
X000709146Y002259185D01*
X000708661Y002265344D01*
X000708661Y002265344D01*
X000708661Y002390167D01*
X000709146Y002396326D01*
X000710588Y002402333D01*
X000712952Y002408041D01*
X000716180Y002413308D01*
X000720192Y002418006D01*
X000724890Y002422018D01*
X000730157Y002425246D01*
X000735865Y002427611D01*
X000741872Y002429053D01*
X000748031Y002429537D01*
X000754190Y002429053D01*
X000760197Y002427611D01*
X000765905Y002425246D01*
X000771172Y002422018D01*
X000775870Y002418006D01*
X000779882Y002413308D01*
X000783110Y002408041D01*
X000785474Y002402333D01*
X000786916Y002396326D01*
X000787401Y002390167D01*
X000787401Y002390167D01*
X000787401Y001661821D02*
X000787401Y001661821D01*
X000787401Y001536997D01*
X000786916Y001530838D01*
X000785474Y001524831D01*
X000783110Y001519123D01*
X000779882Y001513856D01*
X000775870Y001509158D01*
X000771172Y001505146D01*
X000765905Y001501918D01*
X000760197Y001499554D01*
X000754190Y001498112D01*
X000748031Y001497627D01*
X000741872Y001498112D01*
X000735865Y001499554D01*
X000730157Y001501918D01*
X000724890Y001505146D01*
X000720192Y001509158D01*
X000716180Y001513856D01*
X000712952Y001519123D01*
X000710588Y001524831D01*
X000709146Y001530838D01*
X000708661Y001536997D01*
X000708661Y001536997D01*
X000708661Y001661821D01*
X000709146Y001667980D01*
X000710588Y001673987D01*
X000712952Y001679695D01*
X000716180Y001684962D01*
X000720192Y001689660D01*
X000724890Y001693672D01*
X000730157Y001696900D01*
X000735865Y001699264D01*
X000741872Y001700706D01*
X000748031Y001701191D01*
X000754190Y001700706D01*
X000760197Y001699264D01*
X000765905Y001696900D01*
X000771172Y001693672D01*
X000775870Y001689660D01*
X000779882Y001684962D01*
X000783110Y001679695D01*
X000785474Y001673987D01*
X000786916Y001667980D01*
X000787401Y001661821D01*
X000787401Y001661821D01*
X000787401Y000933474D02*
X000787401Y000933474D01*
X000787401Y000808651D01*
X000786916Y000802492D01*
X000785474Y000796485D01*
X000783110Y000790777D01*
X000779882Y000785510D01*
X000775870Y000780812D01*
X000771172Y000776800D01*
X000765905Y000773572D01*
X000760197Y000771207D01*
X000754190Y000769765D01*
X000748031Y000769281D01*
X000741872Y000769765D01*
X000735865Y000771207D01*
X000730157Y000773572D01*
X000724890Y000776800D01*
X000720192Y000780812D01*
X000716180Y000785510D01*
X000712952Y000790777D01*
X000710588Y000796485D01*
X000709146Y000802492D01*
X000708661Y000808651D01*
X000708661Y000808651D01*
X000708661Y000933474D01*
X000709146Y000939633D01*
X000710588Y000945640D01*
X000712952Y000951348D01*
X000716180Y000956616D01*
X000720192Y000961313D01*
X000724890Y000965325D01*
X000730157Y000968553D01*
X000735865Y000970918D01*
X000741872Y000972360D01*
X000748031Y000972845D01*
X000754190Y000972360D01*
X000760197Y000970918D01*
X000765905Y000968553D01*
X000771172Y000965325D01*
X000775870Y000961313D01*
X000779882Y000956616D01*
X000783110Y000951348D01*
X000785474Y000945640D01*
X000786916Y000939633D01*
X000787401Y000933474D01*
X000787401Y000933474D01*
X000708661Y001172824D02*
X000708661Y001172824D01*
X000708661Y001297648D01*
X000708661Y001297648D01*
X000709146Y001303807D01*
X000710588Y001309814D01*
X000712952Y001315521D01*
X000716180Y001320789D01*
X000720192Y001325487D01*
X000724890Y001329499D01*
X000730157Y001332727D01*
X000735865Y001335091D01*
X000741872Y001336533D01*
X000748031Y001337018D01*
X000754190Y001336533D01*
X000760197Y001335091D01*
X000765905Y001332727D01*
X000771172Y001329499D01*
X000775870Y001325487D01*
X000779882Y001320789D01*
X000783110Y001315521D01*
X000785474Y001309814D01*
X000786916Y001303807D01*
X000787401Y001297648D01*
X000787401Y001172824D01*
X000787401Y001172824D01*
X000786916Y001166665D01*
X000785474Y001160658D01*
X000783110Y001154950D01*
X000779882Y001149683D01*
X000775870Y001144985D01*
X000771172Y001140973D01*
X000765905Y001137745D01*
X000760197Y001135381D01*
X000754190Y001133938D01*
X000748031Y001133454D01*
X000741872Y001133938D01*
X000735865Y001135381D01*
X000730157Y001137745D01*
X000724890Y001140973D01*
X000720192Y001144985D01*
X000716180Y001149683D01*
X000712952Y001154950D01*
X000710588Y001160658D01*
X000709146Y001166665D01*
X000708661Y001172824D01*
X001496063Y000444477D02*
X001496063Y000444477D01*
X001496063Y000569301D01*
X001496063Y000569301D01*
X001496547Y000575460D01*
X001497989Y000581467D01*
X001500354Y000587175D01*
X001503582Y000592443D01*
X001507594Y000597140D01*
X001512291Y000601153D01*
X001517559Y000604380D01*
X001523267Y000606745D01*
X001529274Y000608187D01*
X001535433Y000608672D01*
X001541591Y000608187D01*
X001547599Y000606745D01*
X001553306Y000604380D01*
X001558574Y000601153D01*
X001563271Y000597140D01*
X001567284Y000592443D01*
X001570512Y000587175D01*
X001572876Y000581467D01*
X001574318Y000575460D01*
X001574803Y000569301D01*
X001574803Y000444477D01*
X001574803Y000444477D01*
X001574318Y000438318D01*
X001572876Y000432311D01*
X001570512Y000426604D01*
X001567284Y000421336D01*
X001563271Y000416638D01*
X001558574Y000412626D01*
X001553306Y000409398D01*
X001547599Y000407034D01*
X001541591Y000405592D01*
X001535433Y000405107D01*
X001529274Y000405592D01*
X001523267Y000407034D01*
X001517559Y000409398D01*
X001512291Y000412626D01*
X001507594Y000416638D01*
X001503582Y000421336D01*
X001500354Y000426604D01*
X001497989Y000432311D01*
X001496547Y000438318D01*
X001496063Y000444477D01*
X000474005Y000728346D02*
X000474005Y000728346D01*
X000628356Y000728346D01*
X000631624Y000728211D01*
X000634870Y000727804D01*
X000638070Y000727129D01*
X000641204Y000726191D01*
X000644249Y000724996D01*
X000647184Y000723553D01*
X000649989Y000721870D01*
X000652645Y000719961D01*
X000655133Y000717838D01*
X000657437Y000715516D01*
X000659539Y000713010D01*
X000661427Y000710339D01*
X000663086Y000707520D01*
X000664505Y000704573D01*
X000665675Y000701518D01*
X000666587Y000698377D01*
X000667236Y000695171D01*
X000667616Y000691922D01*
X000667725Y000688653D01*
X000667562Y000685386D01*
X000667562Y000685386D01*
X000667190Y000682498D01*
X000666605Y000679646D01*
X000665811Y000676845D01*
X000664812Y000674110D01*
X000663613Y000671456D01*
X000662222Y000668898D01*
X000660645Y000666450D01*
X000658892Y000664125D01*
X000656972Y000661936D01*
X000654895Y000659896D01*
X000652674Y000658014D01*
X000650319Y000656301D01*
X000647844Y000654767D01*
X000645262Y000653421D01*
X000642588Y000652268D01*
X000639836Y000651317D01*
X000637022Y000650571D01*
X000634160Y000650036D01*
X000631266Y000649713D01*
X000628356Y000649606D01*
X000474005Y000649606D01*
X000470916Y000649727D01*
X000467846Y000650091D01*
X000464814Y000650694D01*
X000461839Y000651533D01*
X000458939Y000652603D01*
X000456131Y000653897D01*
X000453434Y000655407D01*
X000450864Y000657125D01*
X000448436Y000659039D01*
X000446166Y000661137D01*
X000444068Y000663407D01*
X000442154Y000665835D01*
X000440436Y000668405D01*
X000438926Y000671102D01*
X000437632Y000673910D01*
X000436562Y000676810D01*
X000435723Y000679785D01*
X000435119Y000682817D01*
X000434756Y000685887D01*
X000434635Y000688976D01*
X000434635Y000688976D01*
X000434756Y000692065D01*
X000435119Y000695135D01*
X000435723Y000698167D01*
X000436562Y000701142D01*
X000437632Y000704043D01*
X000438926Y000706850D01*
X000440436Y000709547D01*
X000442154Y000712117D01*
X000444068Y000714545D01*
X000446166Y000716815D01*
X000448436Y000718914D01*
X000450864Y000720827D01*
X000453434Y000722545D01*
X000456131Y000724055D01*
X000458939Y000725350D01*
X000461839Y000726420D01*
X000464814Y000727259D01*
X000467846Y000727862D01*
X000470916Y000728225D01*
X000474005Y000728346D01*
X003229910Y002106299D02*
X003229910Y002106299D01*
X003227000Y002106406D01*
X003224107Y002106729D01*
X003221245Y002107264D01*
X003218430Y002108010D01*
X003215678Y002108961D01*
X003213004Y002110113D01*
X003210422Y002111460D01*
X003207948Y002112994D01*
X003205593Y002114707D01*
X003203371Y002116588D01*
X003201294Y002118629D01*
X003199374Y002120818D01*
X003197621Y002123143D01*
X003196044Y002125591D01*
X003194653Y002128149D01*
X003193455Y002130803D01*
X003192456Y002133537D01*
X003191662Y002136339D01*
X003191077Y002139191D01*
X003190704Y002142079D01*
X003190704Y002142079D01*
X003190541Y002145346D01*
X003190650Y002148615D01*
X003191030Y002151864D01*
X003191679Y002155070D01*
X003192591Y002158211D01*
X003193761Y002161266D01*
X003195181Y002164213D01*
X003196840Y002167032D01*
X003198727Y002169703D01*
X003200830Y002172209D01*
X003203133Y002174531D01*
X003205621Y002176654D01*
X003208277Y002178563D01*
X003211082Y002180246D01*
X003214018Y002181689D01*
X003217062Y002182884D01*
X003220196Y002183822D01*
X003223396Y002184497D01*
X003226642Y002184903D01*
X003229910Y002185039D01*
X003384262Y002185039D01*
X003387351Y002184918D01*
X003390421Y002184555D01*
X003393453Y002183952D01*
X003396428Y002183112D01*
X003399328Y002182042D01*
X003402136Y002180748D01*
X003404833Y002179238D01*
X003407403Y002177520D01*
X003409831Y002175606D01*
X003412101Y002173508D01*
X003414199Y002171238D01*
X003416113Y002168810D01*
X003417830Y002166240D01*
X003419341Y002163543D01*
X003420635Y002160736D01*
X003421705Y002157835D01*
X003422544Y002154860D01*
X003423147Y002151828D01*
X003423511Y002148758D01*
X003423632Y002145669D01*
X003423632Y002145669D01*
X003423511Y002142580D01*
X003423147Y002139510D01*
X003422544Y002136478D01*
X003421705Y002133503D01*
X003420635Y002130603D01*
X003419341Y002127795D01*
X003417830Y002125098D01*
X003416113Y002122528D01*
X003414199Y002120100D01*
X003412101Y002117830D01*
X003409831Y002115732D01*
X003407403Y002113818D01*
X003404833Y002112100D01*
X003402136Y002110590D01*
X003399328Y002109296D01*
X003396428Y002108226D01*
X003393453Y002107387D01*
X003390421Y002106783D01*
X003387351Y002106420D01*
X003384262Y002106299D01*
X003229910Y002106299D01*
X002990561Y002185039D02*
X002990561Y002185039D01*
X002993829Y002184903D01*
X002997075Y002184497D01*
X003000275Y002183822D01*
X003003409Y002182884D01*
X003006454Y002181689D01*
X003009389Y002180246D01*
X003012194Y002178563D01*
X003014850Y002176654D01*
X003017338Y002174531D01*
X003019641Y002172209D01*
X003021744Y002169703D01*
X003023631Y002167032D01*
X003025291Y002164213D01*
X003026710Y002161266D01*
X003027880Y002158211D01*
X003028792Y002155070D01*
X003029441Y002151864D01*
X003029821Y002148615D01*
X003029930Y002145346D01*
X003029767Y002142079D01*
X003029767Y002142079D01*
X003029394Y002139191D01*
X003028809Y002136339D01*
X003028015Y002133537D01*
X003027016Y002130803D01*
X003025818Y002128149D01*
X003024427Y002125591D01*
X003022850Y002123143D01*
X003021097Y002120818D01*
X003019177Y002118629D01*
X003017100Y002116588D01*
X003014878Y002114707D01*
X003012524Y002112994D01*
X003010049Y002111460D01*
X003007467Y002110113D01*
X003004793Y002108961D01*
X003002041Y002108010D01*
X002999226Y002107264D01*
X002996364Y002106729D01*
X002993471Y002106406D01*
X002990561Y002106299D01*
X002836210Y002106299D01*
X002833121Y002106420D01*
X002830051Y002106783D01*
X002827019Y002107387D01*
X002824044Y002108226D01*
X002821143Y002109296D01*
X002818336Y002110590D01*
X002815639Y002112100D01*
X002813068Y002113818D01*
X002810641Y002115732D01*
X002808371Y002117830D01*
X002806272Y002120100D01*
X002804358Y002122528D01*
X002802641Y002125098D01*
X002801131Y002127795D01*
X002799836Y002130603D01*
X002798766Y002133503D01*
X002797927Y002136478D01*
X002797324Y002139510D01*
X002796961Y002142580D01*
X002796839Y002145669D01*
X002796839Y002145669D01*
X002796961Y002148758D01*
X002797324Y002151828D01*
X002797927Y002154860D01*
X002798766Y002157835D01*
X002799836Y002160736D01*
X002801131Y002163543D01*
X002802641Y002166240D01*
X002804358Y002168810D01*
X002806272Y002171238D01*
X002808371Y002173508D01*
X002810641Y002175606D01*
X002813068Y002177520D01*
X002815639Y002179238D01*
X002818336Y002180748D01*
X002821143Y002182042D01*
X002824044Y002183112D01*
X002827019Y002183952D01*
X002830051Y002184555D01*
X002833121Y002184918D01*
X002836210Y002185039D01*
X002990561Y002185039D01*
X003229910Y002834645D02*
X003229910Y002834645D01*
X003227000Y002834753D01*
X003224107Y002835075D01*
X003221245Y002835611D01*
X003218430Y002836356D01*
X003215678Y002837308D01*
X003213004Y002838460D01*
X003210422Y002839807D01*
X003207948Y002841340D01*
X003205593Y002843053D01*
X003203371Y002844935D01*
X003201294Y002846976D01*
X003199374Y002849165D01*
X003197621Y002851490D01*
X003196044Y002853938D01*
X003194653Y002856495D01*
X003193455Y002859149D01*
X003192456Y002861884D01*
X003191662Y002864685D01*
X003191077Y002867538D01*
X003190704Y002870425D01*
X003190704Y002870426D01*
X003190541Y002873693D01*
X003190650Y002876962D01*
X003191030Y002880211D01*
X003191679Y002883417D01*
X003192591Y002886558D01*
X003193761Y002889612D01*
X003195181Y002892559D01*
X003196840Y002895378D01*
X003198727Y002898049D01*
X003200830Y002900555D01*
X003203133Y002902877D01*
X003205621Y002905001D01*
X003208277Y002906910D01*
X003211082Y002908592D01*
X003214018Y002910036D01*
X003217062Y002911230D01*
X003220196Y002912169D01*
X003223396Y002912843D01*
X003226642Y002913250D01*
X003229910Y002913386D01*
X003384262Y002913386D01*
X003387351Y002913264D01*
X003390421Y002912901D01*
X003393453Y002912298D01*
X003396428Y002911459D01*
X003399328Y002910389D01*
X003402136Y002909095D01*
X003404833Y002907584D01*
X003407403Y002905867D01*
X003409831Y002903953D01*
X003412101Y002901855D01*
X003414199Y002899585D01*
X003416113Y002897157D01*
X003417830Y002894587D01*
X003419341Y002891889D01*
X003420635Y002889082D01*
X003421705Y002886182D01*
X003422544Y002883206D01*
X003423147Y002880175D01*
X003423511Y002877105D01*
X003423632Y002874016D01*
X003423632Y002874015D01*
X003423511Y002870926D01*
X003423147Y002867856D01*
X003422544Y002864824D01*
X003421705Y002861849D01*
X003420635Y002858949D01*
X003419341Y002856142D01*
X003417830Y002853444D01*
X003416113Y002850874D01*
X003414199Y002848446D01*
X003412101Y002846176D01*
X003409831Y002844078D01*
X003407403Y002842164D01*
X003404833Y002840447D01*
X003402136Y002838936D01*
X003399328Y002837642D01*
X003396428Y002836572D01*
X003393453Y002835733D01*
X003390421Y002835130D01*
X003387351Y002834767D01*
X003384262Y002834645D01*
X003229910Y002834645D01*
X003070866Y002754341D02*
X003070866Y002754341D01*
X003070866Y002754341D01*
X003071350Y002760500D01*
X003072793Y002766507D01*
X003075157Y002772214D01*
X003078385Y002777482D01*
X003082397Y002782180D01*
X003087095Y002786192D01*
X003092362Y002789420D01*
X003098070Y002791784D01*
X003104077Y002793226D01*
X003110236Y002793711D01*
X003116395Y002793226D01*
X003122402Y002791784D01*
X003128109Y002789420D01*
X003133377Y002786192D01*
X003138075Y002782180D01*
X003142087Y002777482D01*
X003145315Y002772214D01*
X003147679Y002766507D01*
X003149121Y002760500D01*
X003149606Y002754341D01*
X003149606Y002629517D01*
X003149121Y002623358D01*
X003147679Y002617351D01*
X003145315Y002611643D01*
X003142087Y002606376D01*
X003138075Y002601678D01*
X003133377Y002597666D01*
X003128109Y002594438D01*
X003122402Y002592074D01*
X003116395Y002590631D01*
X003110236Y002590147D01*
X003104077Y002590631D01*
X003098070Y002592074D01*
X003092362Y002594438D01*
X003087095Y002597666D01*
X003082397Y002601678D01*
X003078385Y002606376D01*
X003075157Y002611643D01*
X003072793Y002617351D01*
X003071350Y002623358D01*
X003110236Y002629517D01*
X003070866Y002629517D01*
X003070866Y002754341D01*
X002990561Y002913386D02*
X002990561Y002913386D01*
X002993829Y002913250D01*
X002997075Y002912843D01*
X003000275Y002912169D01*
X003003409Y002911230D01*
X003006454Y002910036D01*
X003009389Y002908592D01*
X003012194Y002906910D01*
X003014850Y002905001D01*
X003017338Y002902877D01*
X003019641Y002900555D01*
X003021744Y002898049D01*
X003023631Y002895378D01*
X003025291Y002892559D01*
X003026710Y002889612D01*
X003027880Y002886558D01*
X003028792Y002883417D01*
X003029441Y002880211D01*
X003029821Y002876962D01*
X003029930Y002873693D01*
X003029767Y002870426D01*
X003029767Y002870425D01*
X003029394Y002867538D01*
X003028809Y002864685D01*
X003028015Y002861884D01*
X003027016Y002859149D01*
X003025818Y002856495D01*
X003024427Y002853938D01*
X003022850Y002851490D01*
X003021097Y002849165D01*
X003019177Y002846976D01*
X003017100Y002844935D01*
X003014878Y002843053D01*
X003012524Y002841340D01*
X003010049Y002839807D01*
X003007467Y002838460D01*
X003004793Y002837308D01*
X003002041Y002836356D01*
X002999226Y002835611D01*
X002996364Y002835075D01*
X002993471Y002834753D01*
X002990561Y002834645D01*
X002836210Y002834645D01*
X002833121Y002834767D01*
X002830051Y002835130D01*
X002827019Y002835733D01*
X002824044Y002836572D01*
X002821143Y002837642D01*
X002818336Y002838936D01*
X002815639Y002840447D01*
X002813068Y002842164D01*
X002810641Y002844078D01*
X002808371Y002846176D01*
X002806272Y002848446D01*
X002804358Y002850874D01*
X002802641Y002853444D01*
X002801131Y002856142D01*
X002799836Y002858949D01*
X002798766Y002861849D01*
X002797927Y002864824D01*
X002797324Y002867856D01*
X002796961Y002870926D01*
X002796839Y002874015D01*
X002796839Y002874016D01*
X002796961Y002877105D01*
X002797324Y002880175D01*
X002797927Y002883206D01*
X002798766Y002886182D01*
X002799836Y002889082D01*
X002801131Y002891889D01*
X002802641Y002894587D01*
X002804358Y002897157D01*
X002806272Y002899585D01*
X002808371Y002901855D01*
X002810641Y002903953D01*
X002813068Y002905867D01*
X002815639Y002907584D01*
X002818336Y002909095D01*
X002821143Y002910389D01*
X002824044Y002911459D01*
X002827019Y002912298D01*
X002830051Y002912901D01*
X002833121Y002913264D01*
X002836210Y002913386D01*
X002990561Y002913386D01*
X003149606Y002993690D02*
X003149606Y002993690D01*
X003149121Y002987531D01*
X003147679Y002981524D01*
X003145315Y002975816D01*
X003142087Y002970549D01*
X003138075Y002965851D01*
X003133377Y002961839D01*
X003128109Y002958611D01*
X003122402Y002956247D01*
X003116395Y002954805D01*
X003110236Y002954320D01*
X003104077Y002954805D01*
X003098070Y002956247D01*
X003092362Y002958611D01*
X003087095Y002961839D01*
X003082397Y002965851D01*
X003078385Y002970549D01*
X003075157Y002975816D01*
X003072793Y002981524D01*
X003071350Y002987531D01*
X003070866Y002993690D01*
X003070866Y002993690D01*
X003070866Y003118514D01*
X003110236Y003118514D01*
X003071350Y003124673D01*
X003072793Y003130680D01*
X003075157Y003136387D01*
X003078385Y003141655D01*
X003082397Y003146353D01*
X003087095Y003150365D01*
X003092362Y003153593D01*
X003098070Y003155957D01*
X003104077Y003157399D01*
X003110236Y003157884D01*
X003116395Y003157399D01*
X003122402Y003155957D01*
X003128109Y003153593D01*
X003133377Y003150365D01*
X003138075Y003146353D01*
X003142087Y003141655D01*
X003145315Y003136387D01*
X003147679Y003130680D01*
X003149121Y003124673D01*
X003149606Y003118514D01*
X003149606Y002993690D01*
X002442509Y002834645D02*
X002442509Y002834645D01*
X002439599Y002834753D01*
X002436705Y002835075D01*
X002433843Y002835611D01*
X002431028Y002836356D01*
X002428276Y002837308D01*
X002425602Y002838460D01*
X002423021Y002839807D01*
X002420546Y002841340D01*
X002418191Y002843053D01*
X002415969Y002844935D01*
X002413893Y002846976D01*
X002411972Y002849165D01*
X002410219Y002851490D01*
X002408643Y002853938D01*
X002407252Y002856495D01*
X002406053Y002859149D01*
X002405054Y002861884D01*
X002404260Y002864685D01*
X002403675Y002867538D01*
X002403303Y002870425D01*
X002403302Y002870426D01*
X002403140Y002873693D01*
X002403249Y002876962D01*
X002403629Y002880211D01*
X002404277Y002883417D01*
X002405190Y002886558D01*
X002406360Y002889612D01*
X002407779Y002892559D01*
X002409438Y002895378D01*
X002411326Y002898049D01*
X002413428Y002900555D01*
X002415732Y002902877D01*
X002418220Y002905001D01*
X002420876Y002906910D01*
X002423681Y002908592D01*
X002426616Y002910036D01*
X002429661Y002911230D01*
X002432794Y002912169D01*
X002435995Y002912843D01*
X002439240Y002913250D01*
X002442509Y002913386D01*
X002596860Y002913386D01*
X002599949Y002913264D01*
X002603019Y002912901D01*
X002606051Y002912298D01*
X002609026Y002911459D01*
X002611927Y002910389D01*
X002614734Y002909095D01*
X002617431Y002907584D01*
X002620001Y002905867D01*
X002622429Y002903953D01*
X002624699Y002901855D01*
X002626798Y002899585D01*
X002628711Y002897157D01*
X002630429Y002894587D01*
X002631939Y002891889D01*
X002633234Y002889082D01*
X002634303Y002886182D01*
X002635143Y002883206D01*
X002635746Y002880175D01*
X002636109Y002877105D01*
X002636230Y002874016D01*
X002636230Y002874015D01*
X002636109Y002870926D01*
X002635746Y002867856D01*
X002635143Y002864824D01*
X002634303Y002861849D01*
X002633234Y002858949D01*
X002631939Y002856142D01*
X002630429Y002853444D01*
X002628711Y002850874D01*
X002626798Y002848446D01*
X002624699Y002846176D01*
X002622429Y002844078D01*
X002620001Y002842164D01*
X002617431Y002840447D01*
X002614734Y002838936D01*
X002611927Y002837642D01*
X002609026Y002836572D01*
X002606051Y002835733D01*
X002603019Y002835130D01*
X002599949Y002834767D01*
X002596860Y002834645D01*
X002442509Y002834645D01*
X002283464Y002754341D02*
X002283464Y002754341D01*
X002283464Y002754341D01*
X002283949Y002760500D01*
X002285391Y002766507D01*
X002287755Y002772214D01*
X002290983Y002777482D01*
X002294995Y002782180D01*
X002299693Y002786192D01*
X002304961Y002789420D01*
X002310668Y002791784D01*
X002316675Y002793226D01*
X002322834Y002793711D01*
X002328993Y002793226D01*
X002335000Y002791784D01*
X002340708Y002789420D01*
X002345975Y002786192D01*
X002350673Y002782180D01*
X002354685Y002777482D01*
X002357913Y002772214D01*
X002360277Y002766507D01*
X002361720Y002760500D01*
X002362204Y002754341D01*
X002362204Y002629517D01*
X002361720Y002623358D01*
X002360277Y002617351D01*
X002357913Y002611643D01*
X002354685Y002606376D01*
X002350673Y002601678D01*
X002345975Y002597666D01*
X002340708Y002594438D01*
X002335000Y002592074D01*
X002328993Y002590631D01*
X002322834Y002590147D01*
X002316675Y002590631D01*
X002310668Y002592074D01*
X002304961Y002594438D01*
X002299693Y002597666D01*
X002294995Y002601678D01*
X002290983Y002606376D01*
X002287755Y002611643D01*
X002285391Y002617351D01*
X002283949Y002623358D01*
X002322834Y002629517D01*
X002283464Y002629517D01*
X002283464Y002754341D01*
X002203159Y002913386D02*
X002203159Y002913386D01*
X002206427Y002913250D01*
X002209673Y002912843D01*
X002212874Y002912169D01*
X002216007Y002911230D01*
X002219052Y002910036D01*
X002221987Y002908592D01*
X002224792Y002906910D01*
X002227448Y002905001D01*
X002229936Y002902877D01*
X002232240Y002900555D01*
X002234342Y002898049D01*
X002236230Y002895378D01*
X002237889Y002892559D01*
X002239308Y002889612D01*
X002240478Y002886558D01*
X002241391Y002883417D01*
X002242039Y002880211D01*
X002242419Y002876962D01*
X002242528Y002873693D01*
X002242365Y002870426D01*
X002242365Y002870425D01*
X002241993Y002867538D01*
X002241408Y002864685D01*
X002240614Y002861884D01*
X002239615Y002859149D01*
X002238416Y002856495D01*
X002237025Y002853938D01*
X002235449Y002851490D01*
X002233695Y002849165D01*
X002231775Y002846976D01*
X002229699Y002844935D01*
X002227477Y002843053D01*
X002225122Y002841340D01*
X002222647Y002839807D01*
X002220065Y002838460D01*
X002217391Y002837308D01*
X002214640Y002836356D01*
X002211825Y002835611D01*
X002208963Y002835075D01*
X002206069Y002834753D01*
X002203159Y002834645D01*
X002048808Y002834645D01*
X002045719Y002834767D01*
X002042649Y002835130D01*
X002039617Y002835733D01*
X002036642Y002836572D01*
X002033742Y002837642D01*
X002030934Y002838936D01*
X002028237Y002840447D01*
X002025667Y002842164D01*
X002023239Y002844078D01*
X002020969Y002846176D01*
X002018871Y002848446D01*
X002016957Y002850874D01*
X002015239Y002853444D01*
X002013729Y002856142D01*
X002012435Y002858949D01*
X002011365Y002861849D01*
X002010526Y002864824D01*
X002009923Y002867856D01*
X002009559Y002870926D01*
X002009438Y002874015D01*
X002009438Y002874016D01*
X002009559Y002877105D01*
X002009923Y002880175D01*
X002010526Y002883206D01*
X002011365Y002886182D01*
X002012435Y002889082D01*
X002013729Y002891889D01*
X002015239Y002894587D01*
X002016957Y002897157D01*
X002018871Y002899585D01*
X002020969Y002901855D01*
X002023239Y002903953D01*
X002025667Y002905867D01*
X002028237Y002907584D01*
X002030934Y002909095D01*
X002033742Y002910389D01*
X002036642Y002911459D01*
X002039617Y002912298D01*
X002042649Y002912901D01*
X002045719Y002913264D01*
X002048808Y002913386D01*
X002203159Y002913386D01*
X002362204Y002993690D02*
X002362204Y002993690D01*
X002361720Y002987531D01*
X002360277Y002981524D01*
X002357913Y002975816D01*
X002354685Y002970549D01*
X002350673Y002965851D01*
X002345975Y002961839D01*
X002340708Y002958611D01*
X002335000Y002956247D01*
X002328993Y002954805D01*
X002322834Y002954320D01*
X002316675Y002954805D01*
X002310668Y002956247D01*
X002304961Y002958611D01*
X002299693Y002961839D01*
X002294995Y002965851D01*
X002290983Y002970549D01*
X002287755Y002975816D01*
X002285391Y002981524D01*
X002283949Y002987531D01*
X002283464Y002993690D01*
X002283464Y002993690D01*
X002283464Y003118514D01*
X002322834Y003118514D01*
X002283949Y003124673D01*
X002285391Y003130680D01*
X002287755Y003136387D01*
X002290983Y003141655D01*
X002294995Y003146353D01*
X002299693Y003150365D01*
X002304961Y003153593D01*
X002310668Y003155957D01*
X002316675Y003157399D01*
X002322834Y003157884D01*
X002328993Y003157399D01*
X002335000Y003155957D01*
X002340708Y003153593D01*
X002345975Y003150365D01*
X002350673Y003146353D01*
X002354685Y003141655D01*
X002357913Y003136387D01*
X002360277Y003130680D01*
X002361720Y003124673D01*
X002362204Y003118514D01*
X002362204Y002993690D01*
X002203160Y002185039D02*
X002203160Y002185039D01*
X002206884Y002184863D01*
X002210575Y002184335D01*
X002214199Y002183460D01*
X002217725Y002182246D01*
X002221120Y002180704D01*
X002224353Y002178848D01*
X002227397Y002176694D01*
X002230223Y002174262D01*
X002232807Y002171574D01*
X002235124Y002168653D01*
X002237155Y002165527D01*
X002238881Y002162222D01*
X002240287Y002158768D01*
X002241359Y002155197D01*
X002242089Y002151541D01*
X002242470Y002147832D01*
X002242499Y002144103D01*
X002242174Y002140389D01*
X002241500Y002136722D01*
X002240481Y002133135D01*
X002240481Y002133135D01*
X002239628Y002130834D01*
X002238633Y002128591D01*
X002237500Y002126414D01*
X002236234Y002124312D01*
X002234839Y002122293D01*
X002233321Y002120365D01*
X002231686Y002118535D01*
X002229940Y002116811D01*
X002228090Y002115198D01*
X002226144Y002113704D01*
X002224108Y002112334D01*
X002221990Y002111094D01*
X002219800Y002109988D01*
X002217544Y002109021D01*
X002215233Y002108196D01*
X002212875Y002107516D01*
X002210480Y002106985D01*
X002208055Y002106604D01*
X002205612Y002106375D01*
X002203159Y002106299D01*
X002048808Y002106299D01*
X002045719Y002106420D01*
X002042649Y002106783D01*
X002039617Y002107387D01*
X002036642Y002108226D01*
X002033742Y002109296D01*
X002030934Y002110590D01*
X002028237Y002112100D01*
X002025667Y002113818D01*
X002023239Y002115732D01*
X002020969Y002117830D01*
X002018871Y002120100D01*
X002016957Y002122528D01*
X002015239Y002125098D01*
X002013729Y002127795D01*
X002012435Y002130603D01*
X002011365Y002133503D01*
X002010526Y002136478D01*
X002009923Y002139510D01*
X002009559Y002142580D01*
X002009438Y002145669D01*
X002009438Y002145669D01*
X002009559Y002148758D01*
X002009923Y002151828D01*
X002010526Y002154860D01*
X002011365Y002157835D01*
X002012435Y002160736D01*
X002013729Y002163543D01*
X002015239Y002166240D01*
X002016957Y002168810D01*
X002018871Y002171238D01*
X002020969Y002173508D01*
X002023239Y002175606D01*
X002025667Y002177520D01*
X002028237Y002179238D01*
X002030934Y002180748D01*
X002033742Y002182042D01*
X002036642Y002183112D01*
X002039617Y002183952D01*
X002042649Y002184555D01*
X002045719Y002184918D01*
X002048808Y002185039D01*
X002203160Y002185039D01*
X002362204Y002265343D02*
X002362204Y002265343D01*
X002361720Y002259185D01*
X002360277Y002253177D01*
X002357913Y002247470D01*
X002354685Y002242202D01*
X002350673Y002237505D01*
X002345975Y002233492D01*
X002340708Y002230264D01*
X002335000Y002227900D01*
X002328993Y002226458D01*
X002322834Y002225973D01*
X002316675Y002226458D01*
X002310668Y002227900D01*
X002304961Y002230264D01*
X002299693Y002233492D01*
X002294995Y002237505D01*
X002290983Y002242202D01*
X002287755Y002247470D01*
X002285391Y002253177D01*
X002283949Y002259185D01*
X002283464Y002265343D01*
X002283464Y002265343D01*
X002283464Y002390167D01*
X002283949Y002396326D01*
X002285391Y002402333D01*
X002287755Y002408041D01*
X002290983Y002413308D01*
X002294995Y002418006D01*
X002299693Y002422018D01*
X002304961Y002425246D01*
X002310668Y002427611D01*
X002316675Y002429053D01*
X002322834Y002429537D01*
X002328993Y002429053D01*
X002335000Y002427611D01*
X002340708Y002425246D01*
X002345975Y002422018D01*
X002350673Y002418006D01*
X002354685Y002413308D01*
X002357913Y002408041D01*
X002360277Y002402333D01*
X002361720Y002396326D01*
X002362204Y002390167D01*
X002362204Y002390167D01*
X002362204Y002265343D01*
X003149606Y001901170D02*
X003149606Y001901170D01*
X003149606Y001901170D01*
X003149121Y001895011D01*
X003147679Y001889004D01*
X003145315Y001883297D01*
X003142087Y001878029D01*
X003138075Y001873331D01*
X003133377Y001869319D01*
X003128109Y001866091D01*
X003122402Y001863727D01*
X003116395Y001862285D01*
X003110236Y001861800D01*
X003104077Y001862285D01*
X003098070Y001863727D01*
X003092362Y001866091D01*
X003087095Y001869319D01*
X003082397Y001873331D01*
X003078385Y001878029D01*
X003075157Y001883297D01*
X003072793Y001889004D01*
X003071350Y001895011D01*
X003070866Y001901170D01*
X003070866Y002025994D01*
X003070866Y002025994D01*
X003071350Y002032153D01*
X003072793Y002038160D01*
X003075157Y002043868D01*
X003078385Y002049136D01*
X003082397Y002053833D01*
X003087095Y002057845D01*
X003092362Y002061073D01*
X003098070Y002063438D01*
X003104077Y002064880D01*
X003110236Y002065364D01*
X003116395Y002064880D01*
X003122402Y002063438D01*
X003128109Y002061073D01*
X003133377Y002057845D01*
X003138075Y002053833D01*
X003142087Y002049136D01*
X003145315Y002043868D01*
X003147679Y002038160D01*
X003149121Y002032153D01*
X003149606Y002025994D01*
X003149606Y001901170D01*
X003229910Y001377952D02*
X003229910Y001377952D01*
X003227000Y001378060D01*
X003224107Y001378382D01*
X003221245Y001378918D01*
X003218430Y001379663D01*
X003215678Y001380615D01*
X003213004Y001381767D01*
X003210422Y001383114D01*
X003207948Y001384648D01*
X003205593Y001386360D01*
X003203371Y001388242D01*
X003201294Y001390283D01*
X003199374Y001392472D01*
X003197621Y001394797D01*
X003196044Y001397245D01*
X003194653Y001399802D01*
X003193455Y001402456D01*
X003192456Y001405191D01*
X003191662Y001407992D01*
X003191077Y001410845D01*
X003190704Y001413732D01*
X003190704Y001413733D01*
X003190541Y001417000D01*
X003190650Y001420269D01*
X003191030Y001423518D01*
X003191679Y001426724D01*
X003192591Y001429865D01*
X003193761Y001432919D01*
X003195181Y001435866D01*
X003196840Y001438685D01*
X003198727Y001441357D01*
X003200830Y001443862D01*
X003203133Y001446184D01*
X003205621Y001448308D01*
X003208277Y001450217D01*
X003211082Y001451899D01*
X003214018Y001453343D01*
X003217062Y001454538D01*
X003220196Y001455476D01*
X003223396Y001456150D01*
X003226642Y001456557D01*
X003229910Y001456693D01*
X003384262Y001456693D01*
X003387351Y001456572D01*
X003390421Y001456208D01*
X003393453Y001455605D01*
X003396428Y001454766D01*
X003399328Y001453696D01*
X003402136Y001452402D01*
X003404833Y001450891D01*
X003407403Y001449174D01*
X003409831Y001447260D01*
X003412101Y001445162D01*
X003414199Y001442892D01*
X003416113Y001440464D01*
X003417830Y001437894D01*
X003419341Y001435196D01*
X003420635Y001432389D01*
X003421705Y001429489D01*
X003422544Y001426514D01*
X003423147Y001423482D01*
X003423511Y001420412D01*
X003423632Y001417323D01*
X003423632Y001417322D01*
X003423511Y001414233D01*
X003423147Y001411164D01*
X003422544Y001408132D01*
X003421705Y001405156D01*
X003420635Y001402256D01*
X003419341Y001399449D01*
X003417830Y001396752D01*
X003416113Y001394181D01*
X003414199Y001391754D01*
X003412101Y001389483D01*
X003409831Y001387385D01*
X003407403Y001385471D01*
X003404833Y001383754D01*
X003402136Y001382243D01*
X003399328Y001380949D01*
X003396428Y001379879D01*
X003393453Y001379040D01*
X003390421Y001378437D01*
X003387351Y001378074D01*
X003384262Y001377952D01*
X003229910Y001377952D01*
X002990561Y001456693D02*
X002990561Y001456693D01*
X002993829Y001456557D01*
X002997075Y001456150D01*
X003000275Y001455476D01*
X003003409Y001454538D01*
X003006454Y001453343D01*
X003009389Y001451899D01*
X003012194Y001450217D01*
X003014850Y001448308D01*
X003017338Y001446184D01*
X003019641Y001443862D01*
X003021744Y001441357D01*
X003023631Y001438685D01*
X003025291Y001435866D01*
X003026710Y001432919D01*
X003027880Y001429865D01*
X003028792Y001426724D01*
X003029441Y001423518D01*
X003029821Y001420269D01*
X003029930Y001417000D01*
X003029767Y001413733D01*
X003029767Y001413732D01*
X003029394Y001410845D01*
X003028809Y001407992D01*
X003028015Y001405191D01*
X003027016Y001402456D01*
X003025818Y001399802D01*
X003024427Y001397245D01*
X003022850Y001394797D01*
X003021097Y001392472D01*
X003019177Y001390283D01*
X003017100Y001388242D01*
X003014878Y001386360D01*
X003012524Y001384648D01*
X003010049Y001383114D01*
X003007467Y001381767D01*
X003004793Y001380615D01*
X003002041Y001379663D01*
X002999226Y001378918D01*
X002996364Y001378382D01*
X002993471Y001378060D01*
X002990561Y001377952D01*
X002836210Y001377952D01*
X002833121Y001378074D01*
X002830051Y001378437D01*
X002827019Y001379040D01*
X002824044Y001379879D01*
X002821143Y001380949D01*
X002818336Y001382243D01*
X002815639Y001383754D01*
X002813068Y001385471D01*
X002810641Y001387385D01*
X002808371Y001389483D01*
X002806272Y001391754D01*
X002804358Y001394181D01*
X002802641Y001396752D01*
X002801131Y001399449D01*
X002799836Y001402256D01*
X002798766Y001405156D01*
X002797927Y001408132D01*
X002797324Y001411164D01*
X002796961Y001414233D01*
X002796839Y001417322D01*
X002796839Y001417323D01*
X002796961Y001420412D01*
X002797324Y001423482D01*
X002797927Y001426514D01*
X002798766Y001429489D01*
X002799836Y001432389D01*
X002801131Y001435196D01*
X002802641Y001437894D01*
X002804358Y001440464D01*
X002806272Y001442892D01*
X002808371Y001445162D01*
X002810641Y001447260D01*
X002813068Y001449174D01*
X002815639Y001450891D01*
X002818336Y001452402D01*
X002821143Y001453696D01*
X002824044Y001454766D01*
X002827019Y001455605D01*
X002830051Y001456208D01*
X002833121Y001456572D01*
X002836210Y001456693D01*
X002990561Y001456693D01*
X002362204Y001901170D02*
X002362204Y001901170D01*
X002362204Y001901170D01*
X002361720Y001895011D01*
X002360277Y001889004D01*
X002357913Y001883297D01*
X002354685Y001878029D01*
X002350673Y001873331D01*
X002345975Y001869319D01*
X002340708Y001866091D01*
X002335000Y001863727D01*
X002328993Y001862285D01*
X002322834Y001861800D01*
X002316675Y001862285D01*
X002310668Y001863727D01*
X002304961Y001866091D01*
X002299693Y001869319D01*
X002294995Y001873331D01*
X002290983Y001878029D01*
X002287755Y001883297D01*
X002285391Y001889004D01*
X002283949Y001895011D01*
X002283464Y001901170D01*
X002283464Y002025994D01*
X002283464Y002025994D01*
X002283949Y002032153D01*
X002285391Y002038160D01*
X002287755Y002043868D01*
X002290983Y002049135D01*
X002294995Y002053833D01*
X002299693Y002057845D01*
X002304961Y002061073D01*
X002310668Y002063437D01*
X002316675Y002064879D01*
X002322834Y002065364D01*
X002328993Y002064879D01*
X002335000Y002063437D01*
X002340708Y002061073D01*
X002345975Y002057845D01*
X002350673Y002053833D01*
X002354685Y002049135D01*
X002357913Y002043868D01*
X002360277Y002038160D01*
X002361720Y002032153D01*
X002362204Y002025994D01*
X002362204Y001901170D01*
X003229910Y000649606D02*
X003229910Y000649606D01*
X003227000Y000649713D01*
X003224107Y000650036D01*
X003221245Y000650571D01*
X003218430Y000651317D01*
X003215678Y000652268D01*
X003213004Y000653421D01*
X003210422Y000654767D01*
X003207948Y000656301D01*
X003205593Y000658014D01*
X003203371Y000659896D01*
X003201294Y000661936D01*
X003199374Y000664125D01*
X003197621Y000666450D01*
X003196044Y000668898D01*
X003194653Y000671456D01*
X003193455Y000674110D01*
X003192456Y000676845D01*
X003191662Y000679646D01*
X003191077Y000682498D01*
X003190704Y000685386D01*
X003190704Y000685386D01*
X003190541Y000688653D01*
X003190650Y000691922D01*
X003191030Y000695171D01*
X003191679Y000698377D01*
X003192591Y000701518D01*
X003193761Y000704573D01*
X003195181Y000707520D01*
X003196840Y000710339D01*
X003198727Y000713010D01*
X003200830Y000715516D01*
X003203133Y000717838D01*
X003205621Y000719961D01*
X003208277Y000721870D01*
X003211082Y000723553D01*
X003214018Y000724996D01*
X003217062Y000726191D01*
X003220196Y000727129D01*
X003223396Y000727804D01*
X003226642Y000728211D01*
X003229910Y000728346D01*
X003384262Y000728346D01*
X003387351Y000728225D01*
X003390421Y000727862D01*
X003393453Y000727259D01*
X003396428Y000726420D01*
X003399328Y000725350D01*
X003402136Y000724055D01*
X003404833Y000722545D01*
X003407403Y000720827D01*
X003409831Y000718914D01*
X003412101Y000716815D01*
X003414199Y000714545D01*
X003416113Y000712117D01*
X003417830Y000709547D01*
X003419341Y000706850D01*
X003420635Y000704043D01*
X003421705Y000701142D01*
X003422544Y000698167D01*
X003423147Y000695135D01*
X003423511Y000692065D01*
X003423632Y000688976D01*
X003423632Y000688976D01*
X003423511Y000685887D01*
X003423147Y000682817D01*
X003422544Y000679785D01*
X003421705Y000676810D01*
X003420635Y000673910D01*
X003419341Y000671102D01*
X003417830Y000668405D01*
X003416113Y000665835D01*
X003414199Y000663407D01*
X003412101Y000661137D01*
X003409831Y000659039D01*
X003407403Y000657125D01*
X003404833Y000655407D01*
X003402136Y000653897D01*
X003399328Y000652603D01*
X003396428Y000651533D01*
X003393453Y000650694D01*
X003390421Y000650091D01*
X003387351Y000649727D01*
X003384262Y000649606D01*
X003229910Y000649606D01*
X003070866Y000569301D02*
X003070866Y000569301D01*
X003070866Y000569301D01*
X003071350Y000575460D01*
X003072793Y000581467D01*
X003075157Y000587175D01*
X003078385Y000592443D01*
X003082397Y000597140D01*
X003087095Y000601153D01*
X003092362Y000604380D01*
X003098070Y000606745D01*
X003104077Y000608187D01*
X003110236Y000608672D01*
X003116395Y000608187D01*
X003122402Y000606745D01*
X003128109Y000604380D01*
X003133377Y000601153D01*
X003138075Y000597140D01*
X003142087Y000592443D01*
X003145315Y000587175D01*
X003147679Y000581467D01*
X003149121Y000575460D01*
X003149606Y000569301D01*
X003149606Y000444477D01*
X003149606Y000444477D01*
X003149121Y000438318D01*
X003147679Y000432311D01*
X003145315Y000426604D01*
X003142087Y000421336D01*
X003138075Y000416638D01*
X003133377Y000412626D01*
X003128109Y000409398D01*
X003122402Y000407034D01*
X003116395Y000405592D01*
X003110236Y000405107D01*
X003104077Y000405592D01*
X003098070Y000407034D01*
X003092362Y000409398D01*
X003087095Y000412626D01*
X003082397Y000416638D01*
X003078385Y000421336D01*
X003075157Y000426604D01*
X003072793Y000432311D01*
X003071350Y000438318D01*
X003070866Y000444477D01*
X003070866Y000569301D01*
X002990561Y000728346D02*
X002990561Y000728346D01*
X002993829Y000728211D01*
X002997075Y000727804D01*
X003000275Y000727129D01*
X003003409Y000726191D01*
X003006454Y000724996D01*
X003009389Y000723553D01*
X003012194Y000721870D01*
X003014850Y000719961D01*
X003017338Y000717838D01*
X003019641Y000715516D01*
X003021744Y000713010D01*
X003023631Y000710339D01*
X003025291Y000707520D01*
X003026710Y000704573D01*
X003027880Y000701518D01*
X003028792Y000698377D01*
X003029441Y000695171D01*
X003029821Y000691922D01*
X003029930Y000688653D01*
X003029767Y000685386D01*
X003029767Y000685386D01*
X003029394Y000682498D01*
X003028809Y000679646D01*
X003028015Y000676845D01*
X003027016Y000674110D01*
X003025818Y000671456D01*
X003024427Y000668898D01*
X003022850Y000666450D01*
X003021097Y000664125D01*
X003019177Y000661936D01*
X003017100Y000659896D01*
X003014878Y000658014D01*
X003012524Y000656301D01*
X003010049Y000654767D01*
X003007467Y000653421D01*
X003004793Y000652268D01*
X003002041Y000651317D01*
X002999226Y000650571D01*
X002996364Y000650036D01*
X002993471Y000649713D01*
X002990561Y000649606D01*
X002836210Y000649606D01*
X002833121Y000649727D01*
X002830051Y000650091D01*
X002827019Y000650694D01*
X002824044Y000651533D01*
X002821143Y000652603D01*
X002818336Y000653897D01*
X002815639Y000655407D01*
X002813068Y000657125D01*
X002810641Y000659039D01*
X002808371Y000661137D01*
X002806272Y000663407D01*
X002804358Y000665835D01*
X002802641Y000668405D01*
X002801131Y000671102D01*
X002799836Y000673910D01*
X002798766Y000676810D01*
X002797927Y000679785D01*
X002797324Y000682817D01*
X002796961Y000685887D01*
X002796839Y000688976D01*
X002796839Y000688976D01*
X002796961Y000692065D01*
X002797324Y000695135D01*
X002797927Y000698167D01*
X002798766Y000701142D01*
X002799836Y000704043D01*
X002801131Y000706850D01*
X002802641Y000709547D01*
X002804358Y000712117D01*
X002806272Y000714545D01*
X002808371Y000716815D01*
X002810641Y000718914D01*
X002813068Y000720827D01*
X002815639Y000722545D01*
X002818336Y000724055D01*
X002821143Y000725350D01*
X002824044Y000726420D01*
X002827019Y000727259D01*
X002830051Y000727862D01*
X002833121Y000728225D01*
X002836210Y000728346D01*
X002990561Y000728346D01*
X002442509Y001377952D02*
X002442509Y001377952D01*
X002439599Y001378060D01*
X002436705Y001378382D01*
X002433843Y001378918D01*
X002431028Y001379663D01*
X002428276Y001380615D01*
X002425602Y001381767D01*
X002423021Y001383114D01*
X002420546Y001384648D01*
X002418191Y001386360D01*
X002415969Y001388242D01*
X002413893Y001390283D01*
X002411972Y001392472D01*
X002410219Y001394797D01*
X002408643Y001397245D01*
X002407252Y001399802D01*
X002406053Y001402456D01*
X002405054Y001405191D01*
X002404260Y001407992D01*
X002403675Y001410845D01*
X002403303Y001413732D01*
X002403302Y001413733D01*
X002403140Y001417000D01*
X002403249Y001420269D01*
X002403629Y001423518D01*
X002404277Y001426724D01*
X002405190Y001429865D01*
X002406360Y001432919D01*
X002407779Y001435866D01*
X002409438Y001438685D01*
X002411326Y001441357D01*
X002413428Y001443862D01*
X002415732Y001446184D01*
X002418220Y001448308D01*
X002420876Y001450217D01*
X002423681Y001451899D01*
X002426616Y001453343D01*
X002429661Y001454538D01*
X002432794Y001455476D01*
X002435995Y001456150D01*
X002439240Y001456557D01*
X002442509Y001456693D01*
X002596860Y001456693D01*
X002599949Y001456572D01*
X002603019Y001456208D01*
X002606051Y001455605D01*
X002609026Y001454766D01*
X002611927Y001453696D01*
X002614734Y001452402D01*
X002617431Y001450891D01*
X002620001Y001449174D01*
X002622429Y001447260D01*
X002624699Y001445162D01*
X002626798Y001442892D01*
X002628711Y001440464D01*
X002630429Y001437894D01*
X002631939Y001435196D01*
X002633234Y001432389D01*
X002634303Y001429489D01*
X002635143Y001426514D01*
X002635746Y001423482D01*
X002636109Y001420412D01*
X002636230Y001417323D01*
X002636230Y001417322D01*
X002636109Y001414233D01*
X002635746Y001411164D01*
X002635143Y001408132D01*
X002634303Y001405156D01*
X002633234Y001402256D01*
X002631939Y001399449D01*
X002630429Y001396752D01*
X002628711Y001394181D01*
X002626798Y001391754D01*
X002624699Y001389483D01*
X002622429Y001387385D01*
X002620001Y001385471D01*
X002617431Y001383754D01*
X002614734Y001382243D01*
X002611927Y001380949D01*
X002609026Y001379879D01*
X002606051Y001379040D01*
X002603019Y001378437D01*
X002599949Y001378074D01*
X002596860Y001377952D01*
X002442509Y001377952D01*
X002203159Y001456693D02*
X002203159Y001456693D01*
X002206427Y001456557D01*
X002209673Y001456150D01*
X002212874Y001455476D01*
X002216007Y001454538D01*
X002219052Y001453343D01*
X002221987Y001451899D01*
X002224792Y001450217D01*
X002227448Y001448308D01*
X002229936Y001446184D01*
X002232240Y001443862D01*
X002234342Y001441357D01*
X002236230Y001438685D01*
X002237889Y001435866D01*
X002239308Y001432919D01*
X002240478Y001429865D01*
X002241391Y001426724D01*
X002242039Y001423518D01*
X002242419Y001420269D01*
X002242528Y001417000D01*
X002242365Y001413733D01*
X002242365Y001413732D01*
X002241993Y001410845D01*
X002241408Y001407992D01*
X002240614Y001405191D01*
X002239615Y001402456D01*
X002238416Y001399802D01*
X002237025Y001397245D01*
X002235449Y001394797D01*
X002233695Y001392472D01*
X002231775Y001390283D01*
X002229699Y001388242D01*
X002227477Y001386360D01*
X002225122Y001384648D01*
X002222647Y001383114D01*
X002220065Y001381767D01*
X002217391Y001380615D01*
X002214640Y001379663D01*
X002211825Y001378918D01*
X002208963Y001378382D01*
X002206069Y001378060D01*
X002203159Y001377952D01*
X002048808Y001377952D01*
X002045719Y001378074D01*
X002042649Y001378437D01*
X002039617Y001379040D01*
X002036642Y001379879D01*
X002033742Y001380949D01*
X002030934Y001382243D01*
X002028237Y001383754D01*
X002025667Y001385471D01*
X002023239Y001387385D01*
X002020969Y001389483D01*
X002018871Y001391754D01*
X002016957Y001394181D01*
X002015239Y001396752D01*
X002013729Y001399449D01*
X002012435Y001402256D01*
X002011365Y001405156D01*
X002010526Y001408132D01*
X002009923Y001411164D01*
X002009559Y001414233D01*
X002009438Y001417322D01*
X002009438Y001417323D01*
X002009559Y001420412D01*
X002009923Y001423482D01*
X002010526Y001426514D01*
X002011365Y001429489D01*
X002012435Y001432389D01*
X002013729Y001435196D01*
X002015239Y001437894D01*
X002016957Y001440464D01*
X002018871Y001442892D01*
X002020969Y001445162D01*
X002023239Y001447260D01*
X002025667Y001449174D01*
X002028237Y001450891D01*
X002030934Y001452402D01*
X002033742Y001453696D01*
X002036642Y001454766D01*
X002039617Y001455605D01*
X002042649Y001456208D01*
X002045719Y001456572D01*
X002048808Y001456693D01*
X002203159Y001456693D01*
X001655107Y002834645D02*
X001655107Y002834645D01*
X001652197Y002834753D01*
X001649303Y002835075D01*
X001646441Y002835611D01*
X001643627Y002836356D01*
X001640875Y002837308D01*
X001638201Y002838460D01*
X001635619Y002839807D01*
X001633144Y002841340D01*
X001630790Y002843053D01*
X001628568Y002844935D01*
X001626491Y002846976D01*
X001624571Y002849165D01*
X001622818Y002851490D01*
X001621241Y002853938D01*
X001619850Y002856495D01*
X001618652Y002859149D01*
X001617653Y002861884D01*
X001616858Y002864685D01*
X001616273Y002867538D01*
X001615901Y002870425D01*
X001615901Y002870426D01*
X001615738Y002873693D01*
X001615847Y002876962D01*
X001616227Y002880211D01*
X001616876Y002883417D01*
X001617788Y002886558D01*
X001618958Y002889612D01*
X001620377Y002892559D01*
X001622037Y002895378D01*
X001623924Y002898049D01*
X001626027Y002900555D01*
X001628330Y002902877D01*
X001630818Y002905001D01*
X001633474Y002906910D01*
X001636279Y002908592D01*
X001639214Y002910036D01*
X001642259Y002911230D01*
X001645393Y002912169D01*
X001648593Y002912843D01*
X001651839Y002913250D01*
X001655107Y002913386D01*
X001809459Y002913386D01*
X001812548Y002913264D01*
X001815618Y002912901D01*
X001818650Y002912298D01*
X001821625Y002911459D01*
X001824525Y002910389D01*
X001827332Y002909095D01*
X001830030Y002907584D01*
X001832600Y002905867D01*
X001835028Y002903953D01*
X001837298Y002901855D01*
X001839396Y002899585D01*
X001841310Y002897157D01*
X001843027Y002894587D01*
X001844538Y002891889D01*
X001845832Y002889082D01*
X001846902Y002886182D01*
X001847741Y002883206D01*
X001848344Y002880175D01*
X001848707Y002877105D01*
X001848829Y002874016D01*
X001848829Y002874015D01*
X001848707Y002870926D01*
X001848344Y002867856D01*
X001847741Y002864824D01*
X001846902Y002861849D01*
X001845832Y002858949D01*
X001844538Y002856142D01*
X001843027Y002853444D01*
X001841310Y002850874D01*
X001839396Y002848446D01*
X001837298Y002846176D01*
X001835028Y002844078D01*
X001832600Y002842164D01*
X001830030Y002840447D01*
X001827332Y002838936D01*
X001824525Y002837642D01*
X001821625Y002836572D01*
X001818650Y002835733D01*
X001815618Y002835130D01*
X001812548Y002834767D01*
X001809459Y002834645D01*
X001655107Y002834645D01*
X001496063Y002754341D02*
X001496063Y002754341D01*
X001496063Y002754341D01*
X001496547Y002760500D01*
X001497989Y002766507D01*
X001500354Y002772214D01*
X001503582Y002777482D01*
X001507594Y002782180D01*
X001512291Y002786192D01*
X001517559Y002789420D01*
X001523267Y002791784D01*
X001529274Y002793226D01*
X001535433Y002793711D01*
X001541591Y002793226D01*
X001547599Y002791784D01*
X001553306Y002789420D01*
X001558574Y002786192D01*
X001563271Y002782180D01*
X001567284Y002777482D01*
X001570512Y002772214D01*
X001572876Y002766507D01*
X001574318Y002760500D01*
X001574803Y002754341D01*
X001574803Y002629517D01*
X001574318Y002623358D01*
X001572876Y002617351D01*
X001570512Y002611643D01*
X001567284Y002606376D01*
X001563271Y002601678D01*
X001558574Y002597666D01*
X001553306Y002594438D01*
X001547599Y002592074D01*
X001541591Y002590631D01*
X001535433Y002590147D01*
X001529274Y002590631D01*
X001523267Y002592074D01*
X001517559Y002594438D01*
X001512291Y002597666D01*
X001507594Y002601678D01*
X001503582Y002606376D01*
X001500354Y002611643D01*
X001497989Y002617351D01*
X001496547Y002623358D01*
X001535433Y002629517D01*
X001496063Y002629517D01*
X001496063Y002754341D01*
X001415758Y002913386D02*
X001415758Y002913386D01*
X001419026Y002913250D01*
X001422271Y002912843D01*
X001425472Y002912169D01*
X001428606Y002911230D01*
X001431650Y002910036D01*
X001434586Y002908592D01*
X001437391Y002906910D01*
X001440047Y002905001D01*
X001442535Y002902877D01*
X001444838Y002900555D01*
X001446941Y002898049D01*
X001448828Y002895378D01*
X001450487Y002892559D01*
X001451907Y002889612D01*
X001453077Y002886558D01*
X001453989Y002883417D01*
X001454637Y002880211D01*
X001455017Y002876962D01*
X001455127Y002873693D01*
X001454964Y002870426D01*
X001454964Y002870425D01*
X001454591Y002867538D01*
X001454006Y002864685D01*
X001453212Y002861884D01*
X001452213Y002859149D01*
X001451015Y002856495D01*
X001449623Y002853938D01*
X001448047Y002851490D01*
X001446294Y002849165D01*
X001444374Y002846976D01*
X001442297Y002844935D01*
X001440075Y002843053D01*
X001437720Y002841340D01*
X001435245Y002839807D01*
X001432664Y002838460D01*
X001429990Y002837308D01*
X001427238Y002836356D01*
X001424423Y002835611D01*
X001421561Y002835075D01*
X001418667Y002834753D01*
X001415758Y002834645D01*
X001261406Y002834645D01*
X001258317Y002834767D01*
X001255248Y002835130D01*
X001252216Y002835733D01*
X001249240Y002836572D01*
X001246340Y002837642D01*
X001243533Y002838936D01*
X001240836Y002840447D01*
X001238265Y002842164D01*
X001235838Y002844078D01*
X001233568Y002846176D01*
X001231469Y002848446D01*
X001229555Y002850874D01*
X001227838Y002853444D01*
X001226327Y002856142D01*
X001225033Y002858949D01*
X001223963Y002861849D01*
X001223124Y002864824D01*
X001222521Y002867856D01*
X001222158Y002870926D01*
X001222036Y002874015D01*
X001222036Y002874016D01*
X001222158Y002877105D01*
X001222521Y002880175D01*
X001223124Y002883206D01*
X001223963Y002886182D01*
X001225033Y002889082D01*
X001226327Y002891889D01*
X001227838Y002894587D01*
X001229555Y002897157D01*
X001231469Y002899585D01*
X001233568Y002901855D01*
X001235838Y002903953D01*
X001238265Y002905867D01*
X001240836Y002907584D01*
X001243533Y002909095D01*
X001246340Y002910389D01*
X001249240Y002911459D01*
X001252216Y002912298D01*
X001255248Y002912901D01*
X001258317Y002913264D01*
X001261406Y002913386D01*
X001415758Y002913386D01*
X001574803Y002993690D02*
X001574803Y002993690D01*
X001574318Y002987531D01*
X001572876Y002981524D01*
X001570512Y002975816D01*
X001567284Y002970549D01*
X001563271Y002965851D01*
X001558574Y002961839D01*
X001553306Y002958611D01*
X001547599Y002956247D01*
X001541591Y002954805D01*
X001535433Y002954320D01*
X001529274Y002954805D01*
X001523267Y002956247D01*
X001517559Y002958611D01*
X001512291Y002961839D01*
X001507594Y002965851D01*
X001503582Y002970549D01*
X001500354Y002975816D01*
X001497989Y002981524D01*
X001496547Y002987531D01*
X001496063Y002993690D01*
X001496063Y002993690D01*
X001496063Y003118514D01*
X001535433Y003118514D01*
X001496547Y003124673D01*
X001497989Y003130680D01*
X001500354Y003136387D01*
X001503582Y003141655D01*
X001507594Y003146353D01*
X001512291Y003150365D01*
X001517559Y003153593D01*
X001523267Y003155957D01*
X001529274Y003157399D01*
X001535433Y003157884D01*
X001541591Y003157399D01*
X001547599Y003155957D01*
X001553306Y003153593D01*
X001558574Y003150365D01*
X001563271Y003146353D01*
X001567284Y003141655D01*
X001570512Y003136387D01*
X001572876Y003130680D01*
X001574318Y003124673D01*
X001574803Y003118514D01*
X001574803Y002993690D01*
X001574803Y001901170D02*
X001574803Y001901170D01*
X001574803Y001901170D01*
X001574318Y001895011D01*
X001572876Y001889004D01*
X001570512Y001883297D01*
X001567284Y001878029D01*
X001563271Y001873331D01*
X001558574Y001869319D01*
X001553306Y001866091D01*
X001547599Y001863727D01*
X001541591Y001862285D01*
X001535433Y001861800D01*
X001529274Y001862285D01*
X001523267Y001863727D01*
X001517559Y001866091D01*
X001512291Y001869319D01*
X001507594Y001873331D01*
X001503582Y001878029D01*
X001500354Y001883297D01*
X001497989Y001889004D01*
X001496547Y001895011D01*
X001496063Y001901170D01*
X001496063Y002025994D01*
X001496063Y002025994D01*
X001496547Y002032153D01*
X001497989Y002038160D01*
X001500354Y002043868D01*
X001503582Y002049136D01*
X001507594Y002053833D01*
X001512291Y002057845D01*
X001517559Y002061073D01*
X001523267Y002063438D01*
X001529274Y002064880D01*
X001535433Y002065364D01*
X001541591Y002064880D01*
X001547599Y002063438D01*
X001553306Y002061073D01*
X001558574Y002057845D01*
X001563271Y002053833D01*
X001567284Y002049136D01*
X001570512Y002043868D01*
X001572876Y002038160D01*
X001574318Y002032153D01*
X001574803Y002025994D01*
X001574803Y001901170D01*
X001655107Y002106299D02*
X001655107Y002106299D01*
X001652197Y002106406D01*
X001649303Y002106729D01*
X001646441Y002107264D01*
X001643627Y002108010D01*
X001640875Y002108961D01*
X001638201Y002110113D01*
X001635619Y002111460D01*
X001633144Y002112994D01*
X001630790Y002114707D01*
X001628568Y002116588D01*
X001626491Y002118629D01*
X001624571Y002120818D01*
X001622818Y002123143D01*
X001621241Y002125591D01*
X001619850Y002128149D01*
X001618652Y002130803D01*
X001617653Y002133537D01*
X001616858Y002136339D01*
X001616273Y002139191D01*
X001615901Y002142079D01*
X001615901Y002142079D01*
X001615738Y002145346D01*
X001615847Y002148615D01*
X001616227Y002151864D01*
X001616876Y002155070D01*
X001617788Y002158211D01*
X001618958Y002161266D01*
X001620377Y002164213D01*
X001622037Y002167032D01*
X001623924Y002169703D01*
X001626027Y002172209D01*
X001628330Y002174531D01*
X001630818Y002176654D01*
X001633474Y002178563D01*
X001636279Y002180246D01*
X001639214Y002181689D01*
X001642259Y002182884D01*
X001645393Y002183822D01*
X001648593Y002184497D01*
X001651839Y002184903D01*
X001655107Y002185039D01*
X001809459Y002185039D01*
X001812548Y002184918D01*
X001815618Y002184555D01*
X001818650Y002183952D01*
X001821625Y002183112D01*
X001824525Y002182042D01*
X001827332Y002180748D01*
X001830030Y002179238D01*
X001832600Y002177520D01*
X001835028Y002175606D01*
X001837298Y002173508D01*
X001839396Y002171238D01*
X001841310Y002168810D01*
X001843027Y002166240D01*
X001844538Y002163543D01*
X001845832Y002160736D01*
X001846902Y002157835D01*
X001847741Y002154860D01*
X001848344Y002151828D01*
X001848707Y002148758D01*
X001848829Y002145669D01*
X001848829Y002145669D01*
X001848707Y002142580D01*
X001848344Y002139510D01*
X001847741Y002136478D01*
X001846902Y002133503D01*
X001845832Y002130603D01*
X001844538Y002127795D01*
X001843027Y002125098D01*
X001841310Y002122528D01*
X001839396Y002120100D01*
X001837298Y002117830D01*
X001835028Y002115732D01*
X001832600Y002113818D01*
X001830030Y002112100D01*
X001827332Y002110590D01*
X001824525Y002109296D01*
X001821625Y002108226D01*
X001818650Y002107387D01*
X001815618Y002106783D01*
X001812548Y002106420D01*
X001809459Y002106299D01*
X001655107Y002106299D01*
X001415758Y002185039D02*
X001415758Y002185039D01*
X001419026Y002184903D01*
X001422271Y002184497D01*
X001425472Y002183822D01*
X001428606Y002182884D01*
X001431650Y002181689D01*
X001434586Y002180246D01*
X001437391Y002178563D01*
X001440047Y002176654D01*
X001442535Y002174531D01*
X001444838Y002172209D01*
X001446941Y002169703D01*
X001448828Y002167032D01*
X001450487Y002164213D01*
X001451907Y002161266D01*
X001453077Y002158211D01*
X001453989Y002155070D01*
X001454637Y002151864D01*
X001455017Y002148615D01*
X001455127Y002145346D01*
X001454964Y002142079D01*
X001454964Y002142079D01*
X001454591Y002139191D01*
X001454006Y002136339D01*
X001453212Y002133537D01*
X001452213Y002130803D01*
X001451015Y002128149D01*
X001449623Y002125591D01*
X001448047Y002123143D01*
X001446294Y002120818D01*
X001444374Y002118629D01*
X001442297Y002116588D01*
X001440075Y002114707D01*
X001437720Y002112994D01*
X001435245Y002111460D01*
X001432664Y002110113D01*
X001429990Y002108961D01*
X001427238Y002108010D01*
X001424423Y002107264D01*
X001421561Y002106729D01*
X001418667Y002106406D01*
X001415758Y002106299D01*
X001261406Y002106299D01*
X001258317Y002106420D01*
X001255248Y002106783D01*
X001252216Y002107387D01*
X001249240Y002108226D01*
X001246340Y002109296D01*
X001243533Y002110590D01*
X001240836Y002112100D01*
X001238265Y002113818D01*
X001235838Y002115732D01*
X001233568Y002117830D01*
X001231469Y002120100D01*
X001229555Y002122528D01*
X001227838Y002125098D01*
X001226327Y002127795D01*
X001225033Y002130603D01*
X001223963Y002133503D01*
X001223124Y002136478D01*
X001222521Y002139510D01*
X001222158Y002142580D01*
X001222036Y002145669D01*
X001222036Y002145669D01*
X001222158Y002148758D01*
X001222521Y002151828D01*
X001223124Y002154860D01*
X001223963Y002157835D01*
X001225033Y002160736D01*
X001226327Y002163543D01*
X001227838Y002166240D01*
X001229555Y002168810D01*
X001231469Y002171238D01*
X001233568Y002173508D01*
X001235838Y002175606D01*
X001238265Y002177520D01*
X001240836Y002179238D01*
X001243533Y002180748D01*
X001246340Y002182042D01*
X001249240Y002183112D01*
X001252216Y002183952D01*
X001255248Y002184555D01*
X001258317Y002184918D01*
X001261406Y002185039D01*
X001415758Y002185039D01*
X000867705Y002834645D02*
X000867705Y002834645D01*
X000864796Y002834753D01*
X000861902Y002835075D01*
X000859040Y002835611D01*
X000856225Y002836356D01*
X000853473Y002837308D01*
X000850799Y002838460D01*
X000848218Y002839807D01*
X000845743Y002841340D01*
X000843388Y002843053D01*
X000841166Y002844935D01*
X000839089Y002846976D01*
X000837169Y002849165D01*
X000835416Y002851490D01*
X000833840Y002853938D01*
X000832448Y002856495D01*
X000831250Y002859149D01*
X000830251Y002861884D01*
X000829457Y002864685D01*
X000828872Y002867538D01*
X000828499Y002870425D01*
X000828499Y002870426D01*
X000828337Y002873693D01*
X000828446Y002876962D01*
X000828826Y002880211D01*
X000829474Y002883417D01*
X000830386Y002886558D01*
X000831556Y002889612D01*
X000832976Y002892559D01*
X000834635Y002895378D01*
X000836522Y002898049D01*
X000838625Y002900555D01*
X000840928Y002902877D01*
X000843417Y002905001D01*
X000846072Y002906910D01*
X000848878Y002908592D01*
X000851813Y002910036D01*
X000854858Y002911230D01*
X000857991Y002912169D01*
X000861192Y002912843D01*
X000864437Y002913250D01*
X000867705Y002913386D01*
X001022057Y002913386D01*
X001025146Y002913264D01*
X001028216Y002912901D01*
X001031248Y002912298D01*
X001034223Y002911459D01*
X001037123Y002910389D01*
X001039931Y002909095D01*
X001042628Y002907584D01*
X001045198Y002905867D01*
X001047626Y002903953D01*
X001049896Y002901855D01*
X001051994Y002899585D01*
X001053908Y002897157D01*
X001055626Y002894587D01*
X001057136Y002891889D01*
X001058430Y002889082D01*
X001059500Y002886182D01*
X001060339Y002883206D01*
X001060943Y002880175D01*
X001061306Y002877105D01*
X001061427Y002874016D01*
X001061427Y002874015D01*
X001061306Y002870926D01*
X001060943Y002867856D01*
X001060339Y002864824D01*
X001059500Y002861849D01*
X001058430Y002858949D01*
X001057136Y002856142D01*
X001055626Y002853444D01*
X001053908Y002850874D01*
X001051994Y002848446D01*
X001049896Y002846176D01*
X001047626Y002844078D01*
X001045198Y002842164D01*
X001042628Y002840447D01*
X001039931Y002838936D01*
X001037123Y002837642D01*
X001034223Y002836572D01*
X001031248Y002835733D01*
X001028216Y002835130D01*
X001025146Y002834767D01*
X001022057Y002834645D01*
X000867705Y002834645D01*
X000708661Y002754341D02*
X000708661Y002754341D01*
X000708661Y002754341D01*
X000709146Y002760500D01*
X000710588Y002766507D01*
X000712952Y002772214D01*
X000716180Y002777482D01*
X000720192Y002782180D01*
X000724890Y002786192D01*
X000730157Y002789420D01*
X000735865Y002791784D01*
X000741872Y002793226D01*
X000748031Y002793711D01*
X000754190Y002793226D01*
X000760197Y002791784D01*
X000765905Y002789420D01*
X000771172Y002786192D01*
X000775870Y002782180D01*
X000779882Y002777482D01*
X000783110Y002772214D01*
X000785474Y002766507D01*
X000786916Y002760500D01*
X000787401Y002754341D01*
X000787401Y002629517D01*
X000786916Y002623358D01*
X000785474Y002617351D01*
X000783110Y002611643D01*
X000779882Y002606376D01*
X000775870Y002601678D01*
X000771172Y002597666D01*
X000765905Y002594438D01*
X000760197Y002592074D01*
X000754190Y002590631D01*
X000748031Y002590147D01*
X000741872Y002590631D01*
X000735865Y002592074D01*
X000730157Y002594438D01*
X000724890Y002597666D01*
X000720192Y002601678D01*
X000716180Y002606376D01*
X000712952Y002611643D01*
X000710588Y002617351D01*
X000709146Y002623358D01*
X000748031Y002629517D01*
X000708661Y002629517D01*
X000708661Y002754341D01*
X000628356Y002913386D02*
X000628356Y002913386D01*
X000631624Y002913250D01*
X000634870Y002912843D01*
X000638070Y002912169D01*
X000641204Y002911230D01*
X000644249Y002910036D01*
X000647184Y002908592D01*
X000649989Y002906910D01*
X000652645Y002905001D01*
X000655133Y002902877D01*
X000657437Y002900555D01*
X000659539Y002898049D01*
X000661427Y002895378D01*
X000663086Y002892559D01*
X000664505Y002889612D01*
X000665675Y002886558D01*
X000666587Y002883417D01*
X000667236Y002880211D01*
X000667616Y002876962D01*
X000667725Y002873693D01*
X000667562Y002870426D01*
X000667562Y002870425D01*
X000667190Y002867538D01*
X000666605Y002864685D01*
X000665811Y002861884D01*
X000664812Y002859149D01*
X000663613Y002856495D01*
X000662222Y002853938D01*
X000660645Y002851490D01*
X000658892Y002849165D01*
X000656972Y002846976D01*
X000654895Y002844935D01*
X000652674Y002843053D01*
X000650319Y002841340D01*
X000647844Y002839807D01*
X000645262Y002838460D01*
X000642588Y002837308D01*
X000639836Y002836356D01*
X000637022Y002835611D01*
X000634160Y002835075D01*
X000631266Y002834753D01*
X000628356Y002834645D01*
X000474005Y002834645D01*
X000470916Y002834767D01*
X000467846Y002835130D01*
X000464814Y002835733D01*
X000461839Y002836572D01*
X000458939Y002837642D01*
X000456131Y002838936D01*
X000453434Y002840447D01*
X000450864Y002842164D01*
X000448436Y002844078D01*
X000446166Y002846176D01*
X000444068Y002848446D01*
X000442154Y002850874D01*
X000440436Y002853444D01*
X000438926Y002856142D01*
X000437632Y002858949D01*
X000436562Y002861849D01*
X000435723Y002864824D01*
X000435119Y002867856D01*
X000434756Y002870926D01*
X000434635Y002874015D01*
X000434635Y002874016D01*
X000434756Y002877105D01*
X000435119Y002880175D01*
X000435723Y002883206D01*
X000436562Y002886182D01*
X000437632Y002889082D01*
X000438926Y002891889D01*
X000440436Y002894587D01*
X000442154Y002897157D01*
X000444068Y002899585D01*
X000446166Y002901855D01*
X000448436Y002903953D01*
X000450864Y002905867D01*
X000453434Y002907584D01*
X000456131Y002909095D01*
X000458939Y002910389D01*
X000461839Y002911459D01*
X000464814Y002912298D01*
X000467846Y002912901D01*
X000470916Y002913264D01*
X000474005Y002913386D01*
X000628356Y002913386D01*
X000787401Y002993690D02*
X000787401Y002993690D01*
X000786916Y002987531D01*
X000785474Y002981524D01*
X000783110Y002975816D01*
X000779882Y002970549D01*
X000775870Y002965851D01*
X000771172Y002961839D01*
X000765905Y002958611D01*
X000760197Y002956247D01*
X000754190Y002954805D01*
X000748031Y002954320D01*
X000741872Y002954805D01*
X000735865Y002956247D01*
X000730157Y002958611D01*
X000724890Y002961839D01*
X000720192Y002965851D01*
X000716180Y002970549D01*
X000712952Y002975816D01*
X000710588Y002981524D01*
X000709146Y002987531D01*
X000708661Y002993690D01*
X000708661Y002993690D01*
X000708661Y003118514D01*
X000748031Y003118514D01*
X000709146Y003124673D01*
X000710588Y003130680D01*
X000712952Y003136387D01*
X000716180Y003141655D01*
X000720192Y003146353D01*
X000724890Y003150365D01*
X000730157Y003153593D01*
X000735865Y003155957D01*
X000741872Y003157399D01*
X000748031Y003157884D01*
X000754190Y003157399D01*
X000760197Y003155957D01*
X000765905Y003153593D01*
X000771172Y003150365D01*
X000775870Y003146353D01*
X000779882Y003141655D01*
X000783110Y003136387D01*
X000785474Y003130680D01*
X000786916Y003124673D01*
X000787401Y003118514D01*
X000787401Y002993690D01*
X000867705Y002106299D02*
X000867705Y002106299D01*
X000864796Y002106406D01*
X000861902Y002106729D01*
X000859040Y002107264D01*
X000856225Y002108010D01*
X000853473Y002108961D01*
X000850799Y002110113D01*
X000848218Y002111460D01*
X000845743Y002112994D01*
X000843388Y002114707D01*
X000841166Y002116588D01*
X000839089Y002118629D01*
X000837169Y002120818D01*
X000835416Y002123143D01*
X000833840Y002125591D01*
X000832448Y002128149D01*
X000831250Y002130803D01*
X000830251Y002133537D01*
X000829457Y002136339D01*
X000828872Y002139191D01*
X000828499Y002142079D01*
X000828499Y002142079D01*
X000828337Y002145346D01*
X000828446Y002148615D01*
X000828826Y002151864D01*
X000829474Y002155070D01*
X000830386Y002158211D01*
X000831556Y002161266D01*
X000832976Y002164213D01*
X000834635Y002167032D01*
X000836522Y002169703D01*
X000838625Y002172209D01*
X000840928Y002174531D01*
X000843417Y002176654D01*
X000846072Y002178563D01*
X000848878Y002180246D01*
X000851813Y002181689D01*
X000854858Y002182884D01*
X000857991Y002183822D01*
X000861192Y002184497D01*
X000864437Y002184903D01*
X000867705Y002185039D01*
X001022057Y002185039D01*
X001025146Y002184918D01*
X001028216Y002184555D01*
X001031248Y002183952D01*
X001034223Y002183112D01*
X001037123Y002182042D01*
X001039931Y002180748D01*
X001042628Y002179238D01*
X001045198Y002177520D01*
X001047626Y002175606D01*
X001049896Y002173508D01*
X001051994Y002171238D01*
X001053908Y002168810D01*
X001055626Y002166240D01*
X001057136Y002163543D01*
X001058430Y002160736D01*
X001059500Y002157835D01*
X001060339Y002154860D01*
X001060943Y002151828D01*
X001061306Y002148758D01*
X001061427Y002145669D01*
X001061427Y002145669D01*
X001061306Y002142580D01*
X001060943Y002139510D01*
X001060339Y002136478D01*
X001059500Y002133503D01*
X001058430Y002130603D01*
X001057136Y002127795D01*
X001055626Y002125098D01*
X001053908Y002122528D01*
X001051994Y002120100D01*
X001049896Y002117830D01*
X001047626Y002115732D01*
X001045198Y002113818D01*
X001042628Y002112100D01*
X001039931Y002110590D01*
X001037123Y002109296D01*
X001034223Y002108226D01*
X001031248Y002107387D01*
X001028216Y002106783D01*
X001025146Y002106420D01*
X001022057Y002106299D01*
X000867705Y002106299D01*
X000628356Y002185039D02*
X000628356Y002185039D01*
X000631624Y002184903D01*
X000634870Y002184497D01*
X000638070Y002183822D01*
X000641204Y002182884D01*
X000644249Y002181689D01*
X000647184Y002180246D01*
X000649989Y002178563D01*
X000652645Y002176654D01*
X000655133Y002174531D01*
X000657437Y002172209D01*
X000659539Y002169703D01*
X000661427Y002167032D01*
X000663086Y002164213D01*
X000664505Y002161266D01*
X000665675Y002158211D01*
X000666587Y002155070D01*
X000667236Y002151864D01*
X000667616Y002148615D01*
X000667725Y002145346D01*
X000667562Y002142079D01*
X000667562Y002142079D01*
X000667190Y002139191D01*
X000666605Y002136339D01*
X000665811Y002133537D01*
X000664812Y002130803D01*
X000663613Y002128149D01*
X000662222Y002125591D01*
X000660645Y002123143D01*
X000658892Y002120818D01*
X000656972Y002118629D01*
X000654895Y002116588D01*
X000652674Y002114707D01*
X000650319Y002112994D01*
X000647844Y002111460D01*
X000645262Y002110113D01*
X000642588Y002108961D01*
X000639836Y002108010D01*
X000637022Y002107264D01*
X000634160Y002106729D01*
X000631266Y002106406D01*
X000628356Y002106299D01*
X000474005Y002106299D01*
X000470916Y002106420D01*
X000467846Y002106783D01*
X000464814Y002107387D01*
X000461839Y002108226D01*
X000458939Y002109296D01*
X000456131Y002110590D01*
X000453434Y002112100D01*
X000450864Y002113818D01*
X000448436Y002115732D01*
X000446166Y002117830D01*
X000444068Y002120100D01*
X000442154Y002122528D01*
X000440436Y002125098D01*
X000438926Y002127795D01*
X000437632Y002130603D01*
X000436562Y002133503D01*
X000435723Y002136478D01*
X000435119Y002139510D01*
X000434756Y002142580D01*
X000434635Y002145669D01*
X000434635Y002145669D01*
X000434756Y002148758D01*
X000435119Y002151828D01*
X000435723Y002154860D01*
X000436562Y002157835D01*
X000437632Y002160736D01*
X000438926Y002163543D01*
X000440436Y002166240D01*
X000442154Y002168810D01*
X000444068Y002171238D01*
X000446166Y002173508D01*
X000448436Y002175606D01*
X000450864Y002177520D01*
X000453434Y002179238D01*
X000456131Y002180748D01*
X000458939Y002182042D01*
X000461839Y002183112D01*
X000464814Y002183952D01*
X000467846Y002184555D01*
X000470916Y002184918D01*
X000474005Y002185039D01*
X000628356Y002185039D01*
X000787401Y001901170D02*
X000787401Y001901170D01*
X000787401Y001901170D01*
X000786916Y001895011D01*
X000785474Y001889004D01*
X000783110Y001883297D01*
X000779882Y001878029D01*
X000775870Y001873331D01*
X000771172Y001869319D01*
X000765905Y001866091D01*
X000760197Y001863727D01*
X000754190Y001862285D01*
X000748031Y001861800D01*
X000741872Y001862285D01*
X000735865Y001863727D01*
X000730157Y001866091D01*
X000724890Y001869319D01*
X000720192Y001873331D01*
X000716180Y001878029D01*
X000712952Y001883297D01*
X000710588Y001889004D01*
X000709146Y001895011D01*
X000708661Y001901170D01*
X000708661Y002025994D01*
X000708661Y002025994D01*
X000709146Y002032153D01*
X000710588Y002038160D01*
X000712952Y002043868D01*
X000716180Y002049136D01*
X000720192Y002053833D01*
X000724890Y002057845D01*
X000730157Y002061073D01*
X000735865Y002063438D01*
X000741872Y002064880D01*
X000748031Y002065364D01*
X000754190Y002064880D01*
X000760197Y002063438D01*
X000765905Y002061073D01*
X000771172Y002057845D01*
X000775870Y002053833D01*
X000779882Y002049136D01*
X000783110Y002043868D01*
X000785474Y002038160D01*
X000786916Y002032153D01*
X000787401Y002025994D01*
X000787401Y001901170D01*
X000867706Y001377952D02*
X000867706Y001377952D01*
X000865253Y001378029D01*
X000862810Y001378258D01*
X000860386Y001378639D01*
X000857990Y001379170D01*
X000855632Y001379849D01*
X000853321Y001380674D01*
X000851066Y001381642D01*
X000848875Y001382748D01*
X000846758Y001383988D01*
X000844722Y001385358D01*
X000842775Y001386852D01*
X000840925Y001388464D01*
X000839179Y001390189D01*
X000837544Y001392019D01*
X000836026Y001393947D01*
X000834632Y001395966D01*
X000833365Y001398068D01*
X000832232Y001400245D01*
X000831237Y001402488D01*
X000830384Y001404788D01*
X000830384Y001404789D01*
X000829366Y001408376D01*
X000828691Y001412043D01*
X000828367Y001415757D01*
X000828395Y001419485D01*
X000828776Y001423194D01*
X000829506Y001426851D01*
X000830578Y001430422D01*
X000831984Y001433875D01*
X000833710Y001437180D01*
X000835741Y001440307D01*
X000838059Y001443228D01*
X000840642Y001445916D01*
X000843468Y001448348D01*
X000846512Y001450502D01*
X000849746Y001452358D01*
X000853140Y001453900D01*
X000856666Y001455113D01*
X000860290Y001455988D01*
X000863981Y001456516D01*
X000867706Y001456693D01*
X001022057Y001456693D01*
X001025146Y001456572D01*
X001028216Y001456208D01*
X001031248Y001455605D01*
X001034223Y001454766D01*
X001037123Y001453696D01*
X001039931Y001452402D01*
X001042628Y001450891D01*
X001045198Y001449174D01*
X001047626Y001447260D01*
X001049896Y001445162D01*
X001051994Y001442892D01*
X001053908Y001440464D01*
X001055626Y001437894D01*
X001057136Y001435196D01*
X001058430Y001432389D01*
X001059500Y001429489D01*
X001060339Y001426514D01*
X001060943Y001423482D01*
X001061306Y001420412D01*
X001061427Y001417323D01*
X001061427Y001417322D01*
X001061306Y001414233D01*
X001060943Y001411164D01*
X001060339Y001408132D01*
X001059500Y001405156D01*
X001058430Y001402256D01*
X001057136Y001399449D01*
X001055626Y001396752D01*
X001053908Y001394181D01*
X001051994Y001391754D01*
X001049896Y001389483D01*
X001047626Y001387385D01*
X001045198Y001385471D01*
X001042628Y001383754D01*
X001039931Y001382243D01*
X001037123Y001380949D01*
X001034223Y001379879D01*
X001031248Y001379040D01*
X001028216Y001378437D01*
X001025146Y001378074D01*
X001022057Y001377952D01*
X000867706Y001377952D01*
X000628356Y001456693D02*
X000628356Y001456693D01*
X000632081Y001456516D01*
X000635772Y001455988D01*
X000639396Y001455113D01*
X000642922Y001453900D01*
X000646316Y001452358D01*
X000649550Y001450502D01*
X000652594Y001448348D01*
X000655420Y001445916D01*
X000658003Y001443228D01*
X000660321Y001440307D01*
X000662352Y001437180D01*
X000664078Y001433875D01*
X000665484Y001430422D01*
X000666556Y001426851D01*
X000667286Y001423194D01*
X000667667Y001419485D01*
X000667695Y001415757D01*
X000667371Y001412043D01*
X000666696Y001408376D01*
X000665678Y001404789D01*
X000665678Y001404788D01*
X000664825Y001402488D01*
X000663830Y001400245D01*
X000662697Y001398068D01*
X000661430Y001395966D01*
X000660036Y001393947D01*
X000658518Y001392019D01*
X000656883Y001390189D01*
X000655137Y001388464D01*
X000653287Y001386852D01*
X000651340Y001385358D01*
X000649304Y001383988D01*
X000647187Y001382748D01*
X000644996Y001381642D01*
X000642741Y001380674D01*
X000640430Y001379849D01*
X000638072Y001379170D01*
X000635676Y001378639D01*
X000633252Y001378258D01*
X000630809Y001378029D01*
X000628356Y001377952D01*
X000474005Y001377952D01*
X000470916Y001378074D01*
X000467846Y001378437D01*
X000464814Y001379040D01*
X000461839Y001379879D01*
X000458939Y001380949D01*
X000456131Y001382243D01*
X000453434Y001383754D01*
X000450864Y001385471D01*
X000448436Y001387385D01*
X000446166Y001389483D01*
X000444068Y001391754D01*
X000442154Y001394181D01*
X000440436Y001396752D01*
X000438926Y001399449D01*
X000437632Y001402256D01*
X000436562Y001405156D01*
X000435723Y001408132D01*
X000435119Y001411164D01*
X000434756Y001414233D01*
X000434635Y001417322D01*
X000434635Y001417323D01*
X000434756Y001420412D01*
X000435119Y001423482D01*
X000435723Y001426514D01*
X000436562Y001429489D01*
X000437632Y001432389D01*
X000438926Y001435196D01*
X000440436Y001437894D01*
X000442154Y001440464D01*
X000444068Y001442892D01*
X000446166Y001445162D01*
X000448436Y001447260D01*
X000450864Y001449174D01*
X000453434Y001450891D01*
X000456131Y001452402D01*
X000458939Y001453696D01*
X000461839Y001454766D01*
X000464814Y001455605D01*
X000467846Y001456208D01*
X000470916Y001456572D01*
X000474005Y001456693D01*
X000628356Y001456693D01*
X001655107Y001377952D02*
X001655107Y001377952D01*
X001652197Y001378060D01*
X001649303Y001378382D01*
X001646441Y001378918D01*
X001643627Y001379663D01*
X001640875Y001380615D01*
X001638201Y001381767D01*
X001635619Y001383114D01*
X001633144Y001384648D01*
X001630790Y001386360D01*
X001628568Y001388242D01*
X001626491Y001390283D01*
X001624571Y001392472D01*
X001622818Y001394797D01*
X001621241Y001397245D01*
X001619850Y001399802D01*
X001618652Y001402456D01*
X001617653Y001405191D01*
X001616858Y001407992D01*
X001616273Y001410845D01*
X001615901Y001413732D01*
X001615901Y001413733D01*
X001615738Y001417000D01*
X001615847Y001420269D01*
X001616227Y001423518D01*
X001616876Y001426724D01*
X001617788Y001429865D01*
X001618958Y001432919D01*
X001620377Y001435866D01*
X001622037Y001438685D01*
X001623924Y001441357D01*
X001626027Y001443862D01*
X001628330Y001446184D01*
X001630818Y001448308D01*
X001633474Y001450217D01*
X001636279Y001451899D01*
X001639214Y001453343D01*
X001642259Y001454538D01*
X001645393Y001455476D01*
X001648593Y001456150D01*
X001651839Y001456557D01*
X001655107Y001456693D01*
X001809459Y001456693D01*
X001812548Y001456572D01*
X001815618Y001456208D01*
X001818650Y001455605D01*
X001821625Y001454766D01*
X001824525Y001453696D01*
X001827332Y001452402D01*
X001830030Y001450891D01*
X001832600Y001449174D01*
X001835028Y001447260D01*
X001837298Y001445162D01*
X001839396Y001442892D01*
X001841310Y001440464D01*
X001843027Y001437894D01*
X001844538Y001435196D01*
X001845832Y001432389D01*
X001846902Y001429489D01*
X001847741Y001426514D01*
X001848344Y001423482D01*
X001848707Y001420412D01*
X001848829Y001417323D01*
X001848829Y001417322D01*
X001848707Y001414233D01*
X001848344Y001411164D01*
X001847741Y001408132D01*
X001846902Y001405156D01*
X001845832Y001402256D01*
X001844538Y001399449D01*
X001843027Y001396752D01*
X001841310Y001394181D01*
X001839396Y001391754D01*
X001837298Y001389483D01*
X001835028Y001387385D01*
X001832600Y001385471D01*
X001830030Y001383754D01*
X001827332Y001382243D01*
X001824525Y001380949D01*
X001821625Y001379879D01*
X001818650Y001379040D01*
X001815618Y001378437D01*
X001812548Y001378074D01*
X001809459Y001377952D01*
X001655107Y001377952D01*
X001415758Y001456693D02*
X001415758Y001456693D01*
X001419026Y001456557D01*
X001422271Y001456150D01*
X001425472Y001455476D01*
X001428606Y001454538D01*
X001431650Y001453343D01*
X001434586Y001451899D01*
X001437391Y001450217D01*
X001440047Y001448308D01*
X001442535Y001446184D01*
X001444838Y001443862D01*
X001446941Y001441357D01*
X001448828Y001438685D01*
X001450487Y001435866D01*
X001451907Y001432919D01*
X001453077Y001429865D01*
X001453989Y001426724D01*
X001454637Y001423518D01*
X001455017Y001420269D01*
X001455127Y001417000D01*
X001454964Y001413733D01*
X001454964Y001413732D01*
X001454591Y001410845D01*
X001454006Y001407992D01*
X001453212Y001405191D01*
X001452213Y001402456D01*
X001451015Y001399802D01*
X001449623Y001397245D01*
X001448047Y001394797D01*
X001446294Y001392472D01*
X001444374Y001390283D01*
X001442297Y001388242D01*
X001440075Y001386360D01*
X001437720Y001384648D01*
X001435245Y001383114D01*
X001432664Y001381767D01*
X001429990Y001380615D01*
X001427238Y001379663D01*
X001424423Y001378918D01*
X001421561Y001378382D01*
X001418667Y001378060D01*
X001415758Y001377952D01*
X001261406Y001377952D01*
X001258317Y001378074D01*
X001255248Y001378437D01*
X001252216Y001379040D01*
X001249240Y001379879D01*
X001246340Y001380949D01*
X001243533Y001382243D01*
X001240836Y001383754D01*
X001238265Y001385471D01*
X001235838Y001387385D01*
X001233568Y001389483D01*
X001231469Y001391754D01*
X001229555Y001394181D01*
X001227838Y001396752D01*
X001226327Y001399449D01*
X001225033Y001402256D01*
X001223963Y001405156D01*
X001223124Y001408132D01*
X001222521Y001411164D01*
X001222158Y001414233D01*
X001222036Y001417322D01*
X001222036Y001417323D01*
X001222158Y001420412D01*
X001222521Y001423482D01*
X001223124Y001426514D01*
X001223963Y001429489D01*
X001225033Y001432389D01*
X001226327Y001435196D01*
X001227838Y001437894D01*
X001229555Y001440464D01*
X001231469Y001442892D01*
X001233568Y001445162D01*
X001235838Y001447260D01*
X001238265Y001449174D01*
X001240836Y001450891D01*
X001243533Y001452402D01*
X001246340Y001453696D01*
X001249240Y001454766D01*
X001252216Y001455605D01*
X001255248Y001456208D01*
X001258317Y001456572D01*
X001261406Y001456693D01*
X001415758Y001456693D01*
X002442509Y000649606D02*
X002442509Y000649606D01*
X002439599Y000649713D01*
X002436705Y000650036D01*
X002433843Y000650571D01*
X002431028Y000651317D01*
X002428276Y000652268D01*
X002425602Y000653421D01*
X002423021Y000654767D01*
X002420546Y000656301D01*
X002418191Y000658014D01*
X002415969Y000659896D01*
X002413893Y000661936D01*
X002411972Y000664125D01*
X002410219Y000666450D01*
X002408643Y000668898D01*
X002407252Y000671456D01*
X002406053Y000674110D01*
X002405054Y000676845D01*
X002404260Y000679646D01*
X002403675Y000682498D01*
X002403303Y000685386D01*
X002403302Y000685386D01*
X002403140Y000688653D01*
X002403249Y000691922D01*
X002403629Y000695171D01*
X002404277Y000698377D01*
X002405190Y000701518D01*
X002406360Y000704573D01*
X002407779Y000707520D01*
X002409438Y000710339D01*
X002411326Y000713010D01*
X002413428Y000715516D01*
X002415732Y000717838D01*
X002418220Y000719961D01*
X002420876Y000721870D01*
X002423681Y000723553D01*
X002426616Y000724996D01*
X002429661Y000726191D01*
X002432794Y000727129D01*
X002435995Y000727804D01*
X002439240Y000728211D01*
X002442509Y000728346D01*
X002596860Y000728346D01*
X002599949Y000728225D01*
X002603019Y000727862D01*
X002606051Y000727259D01*
X002609026Y000726420D01*
X002611927Y000725350D01*
X002614734Y000724055D01*
X002617431Y000722545D01*
X002620001Y000720827D01*
X002622429Y000718914D01*
X002624699Y000716815D01*
X002626798Y000714545D01*
X002628711Y000712117D01*
X002630429Y000709547D01*
X002631939Y000706850D01*
X002633234Y000704043D01*
X002634303Y000701142D01*
X002635143Y000698167D01*
X002635746Y000695135D01*
X002636109Y000692065D01*
X002636230Y000688976D01*
X002636230Y000688976D01*
X002636109Y000685887D01*
X002635746Y000682817D01*
X002635143Y000679785D01*
X002634303Y000676810D01*
X002633234Y000673910D01*
X002631939Y000671102D01*
X002630429Y000668405D01*
X002628711Y000665835D01*
X002626798Y000663407D01*
X002624699Y000661137D01*
X002622429Y000659039D01*
X002620001Y000657125D01*
X002617431Y000655407D01*
X002614734Y000653897D01*
X002611927Y000652603D01*
X002609026Y000651533D01*
X002606051Y000650694D01*
X002603019Y000650091D01*
X002599949Y000649727D01*
X002596860Y000649606D01*
X002442509Y000649606D01*
X002283464Y000569301D02*
X002283464Y000569301D01*
X002283464Y000569301D01*
X002283949Y000575460D01*
X002285391Y000581467D01*
X002287755Y000587175D01*
X002290983Y000592443D01*
X002294995Y000597140D01*
X002299693Y000601153D01*
X002304961Y000604380D01*
X002310668Y000606745D01*
X002316675Y000608187D01*
X002322834Y000608672D01*
X002328993Y000608187D01*
X002335000Y000606745D01*
X002340708Y000604380D01*
X002345975Y000601153D01*
X002350673Y000597140D01*
X002354685Y000592443D01*
X002357913Y000587175D01*
X002360277Y000581467D01*
X002361720Y000575460D01*
X002362204Y000569301D01*
X002362204Y000444477D01*
X002362204Y000444477D01*
X002361720Y000438318D01*
X002360277Y000432311D01*
X002357913Y000426604D01*
X002354685Y000421336D01*
X002350673Y000416638D01*
X002345975Y000412626D01*
X002340708Y000409398D01*
X002335000Y000407034D01*
X002328993Y000405592D01*
X002322834Y000405107D01*
X002316675Y000405592D01*
X002310668Y000407034D01*
X002304961Y000409398D01*
X002299693Y000412626D01*
X002294995Y000416638D01*
X002290983Y000421336D01*
X002287755Y000426604D01*
X002285391Y000432311D01*
X002283949Y000438318D01*
X002283464Y000444477D01*
X002283464Y000569301D01*
X002203159Y000728346D02*
X002203159Y000728346D01*
X002206427Y000728211D01*
X002209673Y000727804D01*
X002212874Y000727129D01*
X002216007Y000726191D01*
X002219052Y000724996D01*
X002221987Y000723553D01*
X002224792Y000721870D01*
X002227448Y000719961D01*
X002229936Y000717838D01*
X002232240Y000715516D01*
X002234342Y000713010D01*
X002236230Y000710339D01*
X002237889Y000707520D01*
X002239308Y000704573D01*
X002240478Y000701518D01*
X002241391Y000698377D01*
X002242039Y000695171D01*
X002242419Y000691922D01*
X002242528Y000688653D01*
X002242365Y000685386D01*
X002242365Y000685386D01*
X002241993Y000682498D01*
X002241408Y000679646D01*
X002240614Y000676845D01*
X002239615Y000674110D01*
X002238416Y000671456D01*
X002237025Y000668898D01*
X002235449Y000666450D01*
X002233695Y000664125D01*
X002231775Y000661936D01*
X002229699Y000659896D01*
X002227477Y000658014D01*
X002225122Y000656301D01*
X002222647Y000654767D01*
X002220065Y000653421D01*
X002217391Y000652268D01*
X002214640Y000651317D01*
X002211825Y000650571D01*
X002208963Y000650036D01*
X002206069Y000649713D01*
X002203159Y000649606D01*
X002048808Y000649606D01*
X002045719Y000649727D01*
X002042649Y000650091D01*
X002039617Y000650694D01*
X002036642Y000651533D01*
X002033742Y000652603D01*
X002030934Y000653897D01*
X002028237Y000655407D01*
X002025667Y000657125D01*
X002023239Y000659039D01*
X002020969Y000661137D01*
X002018871Y000663407D01*
X002016957Y000665835D01*
X002015239Y000668405D01*
X002013729Y000671102D01*
X002012435Y000673910D01*
X002011365Y000676810D01*
X002010526Y000679785D01*
X002009923Y000682817D01*
X002009559Y000685887D01*
X002009438Y000688976D01*
X002009438Y000688976D01*
X002009559Y000692065D01*
X002009923Y000695135D01*
X002010526Y000698167D01*
X002011365Y000701142D01*
X002012435Y000704043D01*
X002013729Y000706850D01*
X002015239Y000709547D01*
X002016957Y000712117D01*
X002018871Y000714545D01*
X002020969Y000716815D01*
X002023239Y000718914D01*
X002025667Y000720827D01*
X002028237Y000722545D01*
X002030934Y000724055D01*
X002033742Y000725350D01*
X002036642Y000726420D01*
X002039617Y000727259D01*
X002042649Y000727862D01*
X002045719Y000728225D01*
X002048808Y000728346D01*
X002203159Y000728346D01*
X001655107Y000649606D02*
X001655107Y000649606D01*
X001652197Y000649713D01*
X001649303Y000650036D01*
X001646441Y000650571D01*
X001643627Y000651317D01*
X001640875Y000652268D01*
X001638201Y000653421D01*
X001635619Y000654767D01*
X001633144Y000656301D01*
X001630790Y000658014D01*
X001628568Y000659896D01*
X001626491Y000661936D01*
X001624571Y000664125D01*
X001622818Y000666450D01*
X001621241Y000668898D01*
X001619850Y000671456D01*
X001618652Y000674110D01*
X001617653Y000676845D01*
X001616858Y000679646D01*
X001616273Y000682498D01*
X001615901Y000685386D01*
X001615901Y000685386D01*
X001615738Y000688653D01*
X001615847Y000691922D01*
X001616227Y000695171D01*
X001616876Y000698377D01*
X001617788Y000701518D01*
X001618958Y000704573D01*
X001620377Y000707520D01*
X001622037Y000710339D01*
X001623924Y000713010D01*
X001626027Y000715516D01*
X001628330Y000717838D01*
X001630818Y000719961D01*
X001633474Y000721870D01*
X001636279Y000723553D01*
X001639214Y000724996D01*
X001642259Y000726191D01*
X001645393Y000727129D01*
X001648593Y000727804D01*
X001651839Y000728211D01*
X001655107Y000728346D01*
X001809459Y000728346D01*
X001812548Y000728225D01*
X001815618Y000727862D01*
X001818650Y000727259D01*
X001821625Y000726420D01*
X001824525Y000725350D01*
X001827332Y000724055D01*
X001830030Y000722545D01*
X001832600Y000720827D01*
X001835028Y000718914D01*
X001837298Y000716815D01*
X001839396Y000714545D01*
X001841310Y000712117D01*
X001843027Y000709547D01*
X001844538Y000706850D01*
X001845832Y000704043D01*
X001846902Y000701142D01*
X001847741Y000698167D01*
X001848344Y000695135D01*
X001848707Y000692065D01*
X001848829Y000688976D01*
X001848829Y000688976D01*
X001848707Y000685887D01*
X001848344Y000682817D01*
X001847741Y000679785D01*
X001846902Y000676810D01*
X001845832Y000673910D01*
X001844538Y000671102D01*
X001843027Y000668405D01*
X001841310Y000665835D01*
X001839396Y000663407D01*
X001837298Y000661137D01*
X001835028Y000659039D01*
X001832600Y000657125D01*
X001830030Y000655407D01*
X001827332Y000653897D01*
X001824525Y000652603D01*
X001821625Y000651533D01*
X001818650Y000650694D01*
X001815618Y000650091D01*
X001812548Y000649727D01*
X001809459Y000649606D01*
X001655107Y000649606D01*
X001415758Y000728346D02*
X001415758Y000728346D01*
X001419026Y000728211D01*
X001422271Y000727804D01*
X001425472Y000727129D01*
X001428606Y000726191D01*
X001431650Y000724996D01*
X001434586Y000723553D01*
X001437391Y000721870D01*
X001440047Y000719961D01*
X001442535Y000717838D01*
X001444838Y000715516D01*
X001446941Y000713010D01*
X001448828Y000710339D01*
X001450487Y000707520D01*
X001451907Y000704573D01*
X001453077Y000701518D01*
X001453989Y000698377D01*
X001454637Y000695171D01*
X001455017Y000691922D01*
X001455127Y000688653D01*
X001454964Y000685386D01*
X001454964Y000685386D01*
X001454591Y000682498D01*
X001454006Y000679646D01*
X001453212Y000676845D01*
X001452213Y000674110D01*
X001451015Y000671456D01*
X001449623Y000668898D01*
X001448047Y000666450D01*
X001446294Y000664125D01*
X001444374Y000661936D01*
X001442297Y000659896D01*
X001440075Y000658014D01*
X001437720Y000656301D01*
X001435245Y000654767D01*
X001432664Y000653421D01*
X001429990Y000652268D01*
X001427238Y000651317D01*
X001424423Y000650571D01*
X001421561Y000650036D01*
X001418667Y000649713D01*
X001415758Y000649606D01*
X001261406Y000649606D01*
X001258317Y000649727D01*
X001255248Y000650091D01*
X001252216Y000650694D01*
X001249240Y000651533D01*
X001246340Y000652603D01*
X001243533Y000653897D01*
X001240836Y000655407D01*
X001238265Y000657125D01*
X001235838Y000659039D01*
X001233568Y000661137D01*
X001231469Y000663407D01*
X001229555Y000665835D01*
X001227838Y000668405D01*
X001226327Y000671102D01*
X001225033Y000673910D01*
X001223963Y000676810D01*
X001223124Y000679785D01*
X001222521Y000682817D01*
X001222158Y000685887D01*
X001222036Y000688976D01*
X001222036Y000688976D01*
X001222158Y000692065D01*
X001222521Y000695135D01*
X001223124Y000698167D01*
X001223963Y000701142D01*
X001225033Y000704043D01*
X001226327Y000706850D01*
X001227838Y000709547D01*
X001229555Y000712117D01*
X001231469Y000714545D01*
X001233568Y000716815D01*
X001235838Y000718914D01*
X001238265Y000720827D01*
X001240836Y000722545D01*
X001243533Y000724055D01*
X001246340Y000725350D01*
X001249240Y000726420D01*
X001252216Y000727259D01*
X001255248Y000727862D01*
X001258317Y000728225D01*
X001261406Y000728346D01*
X001415758Y000728346D01*
X000234656Y000728346D02*
X000234656Y000728346D01*
X000237745Y000728225D01*
X000240814Y000727862D01*
X000243846Y000727259D01*
X000246822Y000726420D01*
X000249722Y000725350D01*
X000252529Y000724055D01*
X000255226Y000722545D01*
X000257797Y000720827D01*
X000260224Y000718914D01*
X000262494Y000716815D01*
X000264593Y000714545D01*
X000266507Y000712117D01*
X000268224Y000709547D01*
X000269735Y000706850D01*
X000271029Y000704043D01*
X000272099Y000701142D01*
X000272938Y000698167D01*
X000273541Y000695135D01*
X000273904Y000692065D01*
X000274026Y000688976D01*
X000274026Y000688976D01*
X000273904Y000685887D01*
X000273541Y000682817D01*
X000272938Y000679785D01*
X000272099Y000676810D01*
X000271029Y000673910D01*
X000269735Y000671102D01*
X000268224Y000668405D01*
X000266507Y000665835D01*
X000264593Y000663407D01*
X000262494Y000661137D01*
X000260224Y000659039D01*
X000257797Y000657125D01*
X000255226Y000655407D01*
X000252529Y000653897D01*
X000249722Y000652603D01*
X000246822Y000651533D01*
X000243846Y000650694D01*
X000240814Y000650091D01*
X000237745Y000649727D01*
X000234656Y000649606D01*
X000078740Y000649606D01*
X000066422Y000648637D01*
X000054407Y000645752D01*
X000042992Y000641024D01*
X000032457Y000634568D01*
X000023062Y000626544D01*
X000015037Y000617148D01*
X000008581Y000606613D01*
X000003853Y000595198D01*
X000000969Y000583183D01*
X000000000Y000570866D01*
X000000000Y000078740D01*
X000000969Y000066422D01*
X000003853Y000054408D01*
X000008581Y000042992D01*
X000015037Y000032457D01*
X000023062Y000023062D01*
X000032457Y000015038D01*
X000042992Y000008582D01*
X000054407Y000003853D01*
X000066422Y000000969D01*
X000078740Y000000000D01*
X000629921Y000000000D01*
X000642238Y000000969D01*
X000654253Y000003853D01*
X000665668Y000008582D01*
X000676203Y000015038D01*
X000685598Y000023062D01*
X000693623Y000032457D01*
X000700079Y000042992D01*
X000704807Y000054408D01*
X000707691Y000066422D01*
X000708661Y000078740D01*
X000708661Y000205128D01*
X000709146Y000211287D01*
X000710588Y000217294D01*
X000712952Y000223002D01*
X000716180Y000228269D01*
X000720192Y000232967D01*
X000724890Y000236979D01*
X000730157Y000240207D01*
X000735865Y000242571D01*
X000741872Y000244013D01*
X000748031Y000244498D01*
X000754190Y000244013D01*
X000760197Y000242571D01*
X000765905Y000240207D01*
X000771172Y000236979D01*
X000775870Y000232967D01*
X000779882Y000228269D01*
X000783110Y000223002D01*
X000785474Y000217294D01*
X000786916Y000211287D01*
X000787401Y000205128D01*
X000787401Y000205128D01*
X000787401Y000078740D01*
X000788370Y000066422D01*
X000791255Y000054408D01*
X000795983Y000042992D01*
X000802439Y000032457D01*
X000810463Y000023062D01*
X000819859Y000015038D01*
X000830394Y000008582D01*
X000841809Y000003853D01*
X000853824Y000000969D01*
X000866141Y000000000D01*
X001417322Y000000000D01*
X001429640Y000000969D01*
X001441654Y000003853D01*
X001453070Y000008582D01*
X001463605Y000015038D01*
X001473000Y000023062D01*
X001481024Y000032457D01*
X001487480Y000042992D01*
X001492209Y000054408D01*
X001495093Y000066422D01*
X001496063Y000078740D01*
X001496063Y000205128D01*
X001496547Y000211287D01*
X001497989Y000217294D01*
X001500354Y000223002D01*
X001503582Y000228269D01*
X001507594Y000232967D01*
X001512291Y000236979D01*
X001517559Y000240207D01*
X001523267Y000242571D01*
X001529274Y000244013D01*
X001535433Y000244498D01*
X001541591Y000244013D01*
X001547599Y000242571D01*
X001553306Y000240207D01*
X001558574Y000236979D01*
X001563271Y000232967D01*
X001567284Y000228269D01*
X001570512Y000223002D01*
X001572876Y000217294D01*
X001574318Y000211287D01*
X001574803Y000205128D01*
X001574803Y000078740D01*
X001575772Y000066422D01*
X001578656Y000054408D01*
X001583385Y000042992D01*
X001589840Y000032457D01*
X001597865Y000023062D01*
X001607260Y000015038D01*
X001617795Y000008582D01*
X001629211Y000003853D01*
X001641225Y000000969D01*
X001653543Y000000000D01*
X002204724Y000000000D01*
X002217041Y000000969D01*
X002229056Y000003853D01*
X002240471Y000008582D01*
X002251006Y000015038D01*
X002260402Y000023062D01*
X002268426Y000032457D01*
X002274882Y000042992D01*
X002279610Y000054408D01*
X002282494Y000066422D01*
X002283464Y000078740D01*
X002283464Y000205128D01*
X002283949Y000211287D01*
X002285391Y000217294D01*
X002287755Y000223002D01*
X002290983Y000228269D01*
X002294995Y000232967D01*
X002299693Y000236979D01*
X002304961Y000240207D01*
X002310668Y000242571D01*
X002316675Y000244013D01*
X002322834Y000244498D01*
X002328993Y000244013D01*
X002335000Y000242571D01*
X002340708Y000240207D01*
X002345975Y000236979D01*
X002350673Y000232967D01*
X002354685Y000228269D01*
X002357913Y000223002D01*
X002360277Y000217294D01*
X002361720Y000211287D01*
X002362204Y000205128D01*
X002362204Y000205128D01*
X002362204Y000078740D01*
X002363174Y000066422D01*
X002366058Y000054408D01*
X002370786Y000042992D01*
X002377242Y000032457D01*
X002385266Y000023062D01*
X002394662Y000015038D01*
X002405197Y000008582D01*
X002416612Y000003853D01*
X002428627Y000000969D01*
X002440944Y000000000D01*
X002992126Y000000000D01*
X003004443Y000000969D01*
X003016457Y000003853D01*
X003027873Y000008582D01*
X003038408Y000015038D01*
X003047803Y000023062D01*
X003055827Y000032457D01*
X003062283Y000042992D01*
X003067012Y000054408D01*
X003069896Y000066422D01*
X003070866Y000078740D01*
X003070866Y000205128D01*
X003071350Y000211287D01*
X003072793Y000217294D01*
X003075157Y000223002D01*
X003078385Y000228269D01*
X003082397Y000232967D01*
X003087095Y000236979D01*
X003092362Y000240207D01*
X003098070Y000242571D01*
X003104077Y000244013D01*
X003110236Y000244498D01*
X003116395Y000244013D01*
X003122402Y000242571D01*
X003128109Y000240207D01*
X003133377Y000236979D01*
X003138075Y000232967D01*
X003142087Y000228269D01*
X003145315Y000223002D01*
X003147679Y000217294D01*
X003149121Y000211287D01*
X003149606Y000205128D01*
X003149606Y000205128D01*
X003149606Y000078740D01*
X003150575Y000066422D01*
X003153459Y000054408D01*
X003158188Y000042992D01*
X003164644Y000032457D01*
X003172668Y000023062D01*
X003182063Y000015038D01*
X003192598Y000008582D01*
X003204014Y000003853D01*
X003216028Y000000969D01*
X003228346Y000000000D01*
X003779527Y000000000D01*
X003791844Y000000969D01*
X003803859Y000003853D01*
X003815274Y000008582D01*
X003825809Y000015038D01*
X003835205Y000023062D01*
X003843229Y000032457D01*
X003849685Y000042992D01*
X003854413Y000054408D01*
X003857297Y000066422D01*
X003858267Y000078740D01*
X003858267Y000570866D01*
X003857297Y000583183D01*
X003854413Y000595198D01*
X003849685Y000606613D01*
X003843229Y000617148D01*
X003835205Y000626544D01*
X003825809Y000634568D01*
X003815274Y000641024D01*
X003803859Y000645752D01*
X003791844Y000648637D01*
X003779527Y000649606D01*
X003623611Y000649606D01*
X003620522Y000649727D01*
X003617452Y000650091D01*
X003614420Y000650694D01*
X003611445Y000651533D01*
X003608545Y000652603D01*
X003605737Y000653897D01*
X003603040Y000655407D01*
X003600470Y000657125D01*
X003598042Y000659039D01*
X003595772Y000661137D01*
X003593674Y000663407D01*
X003591760Y000665835D01*
X003590043Y000668405D01*
X003588532Y000671102D01*
X003587238Y000673910D01*
X003586168Y000676810D01*
X003585329Y000679785D01*
X003584726Y000682817D01*
X003584362Y000685887D01*
X003584241Y000688976D01*
X003584241Y000688976D01*
X003584362Y000692065D01*
X003584726Y000695135D01*
X003585329Y000698167D01*
X003586168Y000701142D01*
X003587238Y000704043D01*
X003588532Y000706850D01*
X003590043Y000709547D01*
X003591760Y000712117D01*
X003593674Y000714545D01*
X003595772Y000716815D01*
X003598042Y000718914D01*
X003600470Y000720827D01*
X003603040Y000722545D01*
X003605737Y000724055D01*
X003608545Y000725350D01*
X003611445Y000726420D01*
X003614420Y000727259D01*
X003617452Y000727862D01*
X003620522Y000728225D01*
X003623611Y000728346D01*
X003779527Y000728346D01*
X003791844Y000729316D01*
X003803859Y000732200D01*
X003815274Y000736928D01*
X003825809Y000743384D01*
X003835205Y000751409D01*
X003843229Y000760804D01*
X003849685Y000771339D01*
X003854413Y000782754D01*
X003857297Y000794769D01*
X003858267Y000807087D01*
X003858267Y001299212D01*
X003857297Y001311530D01*
X003854413Y001323544D01*
X003849685Y001334960D01*
X003843229Y001345495D01*
X003835205Y001354890D01*
X003825809Y001362914D01*
X003815274Y001369370D01*
X003803859Y001374099D01*
X003791844Y001376983D01*
X003779527Y001377952D01*
X003623611Y001377952D01*
X003620522Y001378074D01*
X003617452Y001378437D01*
X003614420Y001379040D01*
X003611445Y001379879D01*
X003608545Y001380949D01*
X003605737Y001382243D01*
X003603040Y001383754D01*
X003600470Y001385471D01*
X003598042Y001387385D01*
X003595772Y001389483D01*
X003593674Y001391754D01*
X003591760Y001394181D01*
X003590043Y001396752D01*
X003588532Y001399449D01*
X003587238Y001402256D01*
X003586168Y001405156D01*
X003585329Y001408132D01*
X003584726Y001411164D01*
X003584362Y001414233D01*
X003584241Y001417322D01*
X003584241Y001417323D01*
X003584362Y001420412D01*
X003584726Y001423482D01*
X003585329Y001426514D01*
X003586168Y001429489D01*
X003587238Y001432389D01*
X003588532Y001435196D01*
X003590043Y001437894D01*
X003591760Y001440464D01*
X003593674Y001442892D01*
X003595772Y001445162D01*
X003598042Y001447260D01*
X003600470Y001449174D01*
X003603040Y001450891D01*
X003605737Y001452402D01*
X003608545Y001453696D01*
X003611445Y001454766D01*
X003614420Y001455605D01*
X003617452Y001456208D01*
X003620522Y001456572D01*
X003623611Y001456693D01*
X003779527Y001456693D01*
X003791844Y001457662D01*
X003803859Y001460546D01*
X003815274Y001465275D01*
X003825809Y001471731D01*
X003835205Y001479755D01*
X003843229Y001489150D01*
X003849685Y001499685D01*
X003854413Y001511101D01*
X003857297Y001523115D01*
X003858267Y001535433D01*
X003858267Y002027559D01*
X003857297Y002039876D01*
X003854413Y002051891D01*
X003849685Y002063306D01*
X003843229Y002073841D01*
X003835205Y002083236D01*
X003825809Y002091261D01*
X003815274Y002097717D01*
X003803859Y002102445D01*
X003791844Y002105329D01*
X003779527Y002106299D01*
X003623611Y002106299D01*
X003620522Y002106420D01*
X003617452Y002106783D01*
X003614420Y002107387D01*
X003611445Y002108226D01*
X003608545Y002109296D01*
X003605737Y002110590D01*
X003603040Y002112100D01*
X003600470Y002113818D01*
X003598042Y002115732D01*
X003595772Y002117830D01*
X003593674Y002120100D01*
X003591760Y002122528D01*
X003590043Y002125098D01*
X003588532Y002127795D01*
X003587238Y002130603D01*
X003586168Y002133503D01*
X003585329Y002136478D01*
X003584726Y002139510D01*
X003584362Y002142580D01*
X003584241Y002145669D01*
X003584241Y002145669D01*
X003584362Y002148758D01*
X003584726Y002151828D01*
X003585329Y002154860D01*
X003586168Y002157835D01*
X003587238Y002160736D01*
X003588532Y002163543D01*
X003590043Y002166240D01*
X003591760Y002168810D01*
X003593674Y002171238D01*
X003595772Y002173508D01*
X003598042Y002175606D01*
X003600470Y002177520D01*
X003603040Y002179238D01*
X003605737Y002180748D01*
X003608545Y002182042D01*
X003611445Y002183112D01*
X003614420Y002183952D01*
X003617452Y002184555D01*
X003620522Y002184918D01*
X003623611Y002185039D01*
X003779527Y002185039D01*
X003791844Y002186009D01*
X003803859Y002188893D01*
X003815274Y002193621D01*
X003825809Y002200077D01*
X003835205Y002208101D01*
X003843229Y002217497D01*
X003849685Y002228032D01*
X003854413Y002239447D01*
X003857297Y002251462D01*
X003858267Y002263779D01*
X003858267Y002755905D01*
X003857297Y002768223D01*
X003854413Y002780237D01*
X003849685Y002791653D01*
X003843229Y002802188D01*
X003835205Y002811583D01*
X003825809Y002819607D01*
X003815274Y002826063D01*
X003803859Y002830792D01*
X003791844Y002833676D01*
X003779527Y002834645D01*
X003623611Y002834645D01*
X003620522Y002834767D01*
X003617452Y002835130D01*
X003614420Y002835733D01*
X003611445Y002836572D01*
X003608545Y002837642D01*
X003605737Y002838936D01*
X003603040Y002840447D01*
X003600470Y002842164D01*
X003598042Y002844078D01*
X003595772Y002846176D01*
X003593674Y002848446D01*
X003591760Y002850874D01*
X003590043Y002853444D01*
X003588532Y002856142D01*
X003587238Y002858949D01*
X003586168Y002861849D01*
X003585329Y002864824D01*
X003584726Y002867856D01*
X003584362Y002870926D01*
X003584241Y002874015D01*
X003584241Y002874016D01*
X003584362Y002877105D01*
X003584726Y002880175D01*
X003585329Y002883206D01*
X003586168Y002886182D01*
X003587238Y002889082D01*
X003588532Y002891889D01*
X003590043Y002894587D01*
X003591760Y002897157D01*
X003593674Y002899585D01*
X003595772Y002901855D01*
X003598042Y002903953D01*
X003600470Y002905867D01*
X003603040Y002907584D01*
X003605737Y002909095D01*
X003608545Y002910389D01*
X003611445Y002911459D01*
X003614420Y002912298D01*
X003617452Y002912901D01*
X003620522Y002913264D01*
X003623611Y002913386D01*
X003779527Y002913386D01*
X003791844Y002914355D01*
X003803859Y002917239D01*
X003815274Y002921968D01*
X003825809Y002928424D01*
X003835205Y002936448D01*
X003843229Y002945843D01*
X003849685Y002956378D01*
X003854413Y002967794D01*
X003857297Y002979808D01*
X003858267Y002992126D01*
X003858267Y003484251D01*
X003857297Y003496569D01*
X003854413Y003508584D01*
X003849685Y003519999D01*
X003843229Y003530534D01*
X003835205Y003539929D01*
X003825809Y003547954D01*
X003815274Y003554410D01*
X003803859Y003559138D01*
X003791844Y003562022D01*
X003779527Y003562992D01*
X003228346Y003562992D01*
X003216028Y003562022D01*
X003204014Y003559138D01*
X003192598Y003554410D01*
X003182063Y003547954D01*
X003172668Y003539929D01*
X003164644Y003530534D01*
X003158188Y003519999D01*
X003153459Y003508584D01*
X003150575Y003496569D01*
X003149606Y003484251D01*
X003149606Y003357863D01*
X003149121Y003351704D01*
X003147679Y003345697D01*
X003145315Y003339990D01*
X003142087Y003334722D01*
X003138075Y003330024D01*
X003133377Y003326012D01*
X003128109Y003322784D01*
X003122402Y003320420D01*
X003116395Y003318978D01*
X003110236Y003318493D01*
X003104077Y003318978D01*
X003098070Y003320420D01*
X003092362Y003322784D01*
X003087095Y003326012D01*
X003082397Y003330024D01*
X003078385Y003334722D01*
X003075157Y003339990D01*
X003072793Y003345697D01*
X003071350Y003351704D01*
X003110236Y003357863D01*
X003070866Y003357863D01*
X003070866Y003484251D01*
X003069896Y003496569D01*
X003067012Y003508584D01*
X003062283Y003519999D01*
X003055827Y003530534D01*
X003047803Y003539929D01*
X003038408Y003547954D01*
X003027873Y003554410D01*
X003016457Y003559138D01*
X003004443Y003562022D01*
X002992126Y003562992D01*
X002440944Y003562992D01*
X002428627Y003562022D01*
X002416612Y003559138D01*
X002405197Y003554410D01*
X002394662Y003547954D01*
X002385266Y003539929D01*
X002377242Y003530534D01*
X002370786Y003519999D01*
X002366058Y003508584D01*
X002363174Y003496569D01*
X002362204Y003484251D01*
X002362204Y003357863D01*
X002361720Y003351704D01*
X002360277Y003345697D01*
X002357913Y003339990D01*
X002354685Y003334722D01*
X002350673Y003330024D01*
X002345975Y003326012D01*
X002340708Y003322784D01*
X002335000Y003320420D01*
X002328993Y003318978D01*
X002322834Y003318493D01*
X002316675Y003318978D01*
X002310668Y003320420D01*
X002304961Y003322784D01*
X002299693Y003326012D01*
X002294995Y003330024D01*
X002290983Y003334722D01*
X002287755Y003339990D01*
X002285391Y003345697D01*
X002283949Y003351704D01*
X002322834Y003357863D01*
X002283464Y003357863D01*
X002283464Y003484251D01*
X002282494Y003496569D01*
X002279610Y003508584D01*
X002274882Y003519999D01*
X002268426Y003530534D01*
X002260402Y003539929D01*
X002251006Y003547954D01*
X002240471Y003554410D01*
X002229056Y003559138D01*
X002217041Y003562022D01*
X002204724Y003562992D01*
X001653543Y003562992D01*
X001641225Y003562022D01*
X001629211Y003559138D01*
X001617795Y003554410D01*
X001607260Y003547954D01*
X001597865Y003539929D01*
X001589840Y003530534D01*
X001583385Y003519999D01*
X001578656Y003508584D01*
X001575772Y003496569D01*
X001574803Y003484251D01*
X001574803Y003357863D01*
X001574318Y003351704D01*
X001572876Y003345697D01*
X001570512Y003339990D01*
X001567284Y003334722D01*
X001563271Y003330024D01*
X001558574Y003326012D01*
X001553306Y003322784D01*
X001547599Y003320420D01*
X001541591Y003318978D01*
X001535433Y003318493D01*
X001529274Y003318978D01*
X001523267Y003320420D01*
X001517559Y003322784D01*
X001512291Y003326012D01*
X001507594Y003330024D01*
X001503582Y003334722D01*
X001500354Y003339990D01*
X001497989Y003345697D01*
X001496547Y003351704D01*
X001535433Y003357863D01*
X001496063Y003357863D01*
X001496063Y003484251D01*
X001495093Y003496569D01*
X001492209Y003508584D01*
X001487480Y003519999D01*
X001481024Y003530534D01*
X001473000Y003539929D01*
X001463605Y003547954D01*
X001453070Y003554410D01*
X001441654Y003559138D01*
X001429640Y003562022D01*
X001417322Y003562992D01*
X000866141Y003562992D01*
X000853824Y003562022D01*
X000841809Y003559138D01*
X000830394Y003554410D01*
X000819859Y003547954D01*
X000810463Y003539929D01*
X000802439Y003530534D01*
X000795983Y003519999D01*
X000791255Y003508584D01*
X000788370Y003496569D01*
X000787401Y003484251D01*
X000787401Y003357863D01*
X000786916Y003351704D01*
X000785474Y003345697D01*
X000783110Y003339990D01*
X000779882Y003334722D01*
X000775870Y003330024D01*
X000771172Y003326012D01*
X000765905Y003322784D01*
X000760197Y003320420D01*
X000754190Y003318978D01*
X000748031Y003318493D01*
X000741872Y003318978D01*
X000735865Y003320420D01*
X000730157Y003322784D01*
X000724890Y003326012D01*
X000720192Y003330024D01*
X000716180Y003334722D01*
X000712952Y003339990D01*
X000710588Y003345697D01*
X000709146Y003351704D01*
X000748031Y003357863D01*
X000708661Y003357863D01*
X000708661Y003484251D01*
X000707691Y003496569D01*
X000704807Y003508584D01*
X000700079Y003519999D01*
X000693623Y003530534D01*
X000685598Y003539929D01*
X000676203Y003547954D01*
X000665668Y003554410D01*
X000654253Y003559138D01*
X000642238Y003562022D01*
X000629921Y003562992D01*
X000078740Y003562992D01*
X000066422Y003562022D01*
X000054407Y003559138D01*
X000042992Y003554410D01*
X000032457Y003547954D01*
X000023062Y003539929D01*
X000015037Y003530534D01*
X000008581Y003519999D01*
X000003853Y003508584D01*
X000000969Y003496569D01*
X000000000Y003484251D01*
X000000000Y002992126D01*
X000000969Y002979808D01*
X000003853Y002967794D01*
X000008581Y002956378D01*
X000015037Y002945843D01*
X000023062Y002936448D01*
X000032457Y002928424D01*
X000042992Y002921968D01*
X000054407Y002917239D01*
X000066422Y002914355D01*
X000078740Y002913386D01*
X000234656Y002913386D01*
X000237745Y002913264D01*
X000240814Y002912901D01*
X000243846Y002912298D01*
X000246822Y002911459D01*
X000249722Y002910389D01*
X000252529Y002909095D01*
X000255226Y002907584D01*
X000257797Y002905867D01*
X000260224Y002903953D01*
X000262494Y002901855D01*
X000264593Y002899585D01*
X000266507Y002897157D01*
X000268224Y002894587D01*
X000269735Y002891889D01*
X000271029Y002889082D01*
X000272099Y002886182D01*
X000272938Y002883206D01*
X000273541Y002880175D01*
X000273904Y002877105D01*
X000274026Y002874016D01*
X000274026Y002874015D01*
X000273904Y002870926D01*
X000273541Y002867856D01*
X000272938Y002864824D01*
X000272099Y002861849D01*
X000271029Y002858949D01*
X000269735Y002856142D01*
X000268224Y002853444D01*
X000266507Y002850874D01*
X000264593Y002848446D01*
X000262494Y002846176D01*
X000260224Y002844078D01*
X000257797Y002842164D01*
X000255226Y002840447D01*
X000252529Y002838936D01*
X000249722Y002837642D01*
X000246822Y002836572D01*
X000243846Y002835733D01*
X000240814Y002835130D01*
X000237745Y002834767D01*
X000234656Y002834645D01*
X000078740Y002834645D01*
X000066422Y002833676D01*
X000054407Y002830792D01*
X000042992Y002826063D01*
X000032457Y002819607D01*
X000023062Y002811583D01*
X000015037Y002802188D01*
X000008581Y002791653D01*
X000003853Y002780237D01*
X000000969Y002768223D01*
X000000000Y002755905D01*
X000000000Y002263779D01*
X000000969Y002251462D01*
X000003853Y002239447D01*
X000008581Y002228032D01*
X000015037Y002217497D01*
X000023062Y002208101D01*
X000032457Y002200077D01*
X000042992Y002193621D01*
X000054407Y002188893D01*
X000066422Y002186009D01*
X000078740Y002185039D01*
X000234656Y002185039D01*
X000237745Y002184918D01*
X000240814Y002184555D01*
X000243846Y002183952D01*
X000246822Y002183112D01*
X000249722Y002182042D01*
X000252529Y002180748D01*
X000255226Y002179238D01*
X000257797Y002177520D01*
X000260224Y002175606D01*
X000262494Y002173508D01*
X000264593Y002171238D01*
X000266507Y002168810D01*
X000268224Y002166240D01*
X000269735Y002163543D01*
X000271029Y002160736D01*
X000272099Y002157835D01*
X000272938Y002154860D01*
X000273541Y002151828D01*
X000273904Y002148758D01*
X000274026Y002145669D01*
X000274026Y002145669D01*
X000273904Y002142580D01*
X000273541Y002139510D01*
X000272938Y002136478D01*
X000272099Y002133503D01*
X000271029Y002130603D01*
X000269735Y002127795D01*
X000268224Y002125098D01*
X000266507Y002122528D01*
X000264593Y002120100D01*
X000262494Y002117830D01*
X000260224Y002115732D01*
X000257797Y002113818D01*
X000255226Y002112100D01*
X000252529Y002110590D01*
X000249722Y002109296D01*
X000246822Y002108226D01*
X000243846Y002107387D01*
X000240814Y002106783D01*
X000237745Y002106420D01*
X000234656Y002106299D01*
X000078740Y002106299D01*
X000066422Y002105329D01*
X000054407Y002102445D01*
X000042992Y002097717D01*
X000032457Y002091261D01*
X000023062Y002083236D01*
X000015037Y002073841D01*
X000008581Y002063306D01*
X000003853Y002051891D01*
X000000969Y002039876D01*
X000000000Y002027559D01*
X000000000Y001535433D01*
X000000969Y001523115D01*
X000003853Y001511101D01*
X000008581Y001499685D01*
X000015037Y001489150D01*
X000023062Y001479755D01*
X000032457Y001471731D01*
X000042992Y001465275D01*
X000054407Y001460546D01*
X000066422Y001457662D01*
X000078740Y001456693D01*
X000234656Y001456693D01*
X000237745Y001456572D01*
X000240814Y001456208D01*
X000243846Y001455605D01*
X000246822Y001454766D01*
X000249722Y001453696D01*
X000252529Y001452402D01*
X000255226Y001450891D01*
X000257797Y001449174D01*
X000260224Y001447260D01*
X000262494Y001445162D01*
X000264593Y001442892D01*
X000266507Y001440464D01*
X000268224Y001437894D01*
X000269735Y001435196D01*
X000271029Y001432389D01*
X000272099Y001429489D01*
X000272938Y001426514D01*
X000273541Y001423482D01*
X000273904Y001420412D01*
X000274026Y001417323D01*
X000274026Y001417322D01*
X000273904Y001414233D01*
X000273541Y001411164D01*
X000272938Y001408132D01*
X000272099Y001405156D01*
X000271029Y001402256D01*
X000269735Y001399449D01*
X000268224Y001396752D01*
X000266507Y001394181D01*
X000264593Y001391754D01*
X000262494Y001389483D01*
X000260224Y001387385D01*
X000257797Y001385471D01*
X000255226Y001383754D01*
X000252529Y001382243D01*
X000249722Y001380949D01*
X000246822Y001379879D01*
X000243846Y001379040D01*
X000240814Y001378437D01*
X000237745Y001378074D01*
X000234656Y001377952D01*
X000078740Y001377952D01*
X000066422Y001376983D01*
X000054407Y001374099D01*
X000042992Y001369370D01*
X000032457Y001362914D01*
X000023062Y001354890D01*
X000015037Y001345495D01*
X000008581Y001334960D01*
X000003853Y001323544D01*
X000000969Y001311530D01*
X000000000Y001299212D01*
X000000000Y000807087D01*
X000000969Y000794769D01*
X000003853Y000782754D01*
X000008581Y000771339D01*
X000015037Y000760804D01*
X000023062Y000751409D01*
X000032457Y000743384D01*
X000042992Y000736928D01*
X000054407Y000732200D01*
X000066422Y000729316D01*
X000078740Y000728346D01*
X000234656Y000728346D01*
X000867705Y000649606D02*
X000867705Y000649606D01*
X000864796Y000649713D01*
X000861902Y000650036D01*
X000859040Y000650571D01*
X000856225Y000651317D01*
X000853473Y000652268D01*
X000850799Y000653421D01*
X000848218Y000654767D01*
X000845743Y000656301D01*
X000843388Y000658014D01*
X000841166Y000659896D01*
X000839089Y000661936D01*
X000837169Y000664125D01*
X000835416Y000666450D01*
X000833840Y000668898D01*
X000832448Y000671456D01*
X000831250Y000674110D01*
X000830251Y000676845D01*
X000829457Y000679646D01*
X000828872Y000682498D01*
X000828499Y000685386D01*
X000828499Y000685386D01*
X000828337Y000688653D01*
X000828446Y000691922D01*
X000828826Y000695171D01*
X000829474Y000698377D01*
X000830386Y000701518D01*
X000831556Y000704573D01*
X000832976Y000707520D01*
X000834635Y000710339D01*
X000836522Y000713010D01*
X000838625Y000715516D01*
X000840928Y000717838D01*
X000843417Y000719961D01*
X000846072Y000721870D01*
X000848878Y000723553D01*
X000851813Y000724996D01*
X000854858Y000726191D01*
X000857991Y000727129D01*
X000861192Y000727804D01*
X000864437Y000728211D01*
X000867705Y000728346D01*
X001022057Y000728346D01*
X001025146Y000728225D01*
X001028216Y000727862D01*
X001031248Y000727259D01*
X001034223Y000726420D01*
X001037123Y000725350D01*
X001039931Y000724055D01*
X001042628Y000722545D01*
X001045198Y000720827D01*
X001047626Y000718914D01*
X001049896Y000716815D01*
X001051994Y000714545D01*
X001053908Y000712117D01*
X001055626Y000709547D01*
X001057136Y000706850D01*
X001058430Y000704043D01*
X001059500Y000701142D01*
X001060339Y000698167D01*
X001060943Y000695135D01*
X001061306Y000692065D01*
X001061427Y000688976D01*
X001061427Y000688976D01*
X001061306Y000685887D01*
X001060943Y000682817D01*
X001060339Y000679785D01*
X001059500Y000676810D01*
X001058430Y000673910D01*
X001057136Y000671102D01*
X001055626Y000668405D01*
X001053908Y000665835D01*
X001051994Y000663407D01*
X001049896Y000661137D01*
X001047626Y000659039D01*
X001045198Y000657125D01*
X001042628Y000655407D01*
X001039931Y000653897D01*
X001037123Y000652603D01*
X001034223Y000651533D01*
X001031248Y000650694D01*
X001028216Y000650091D01*
X001025146Y000649727D01*
X001022057Y000649606D01*
X000867705Y000649606D01*
X000708661Y000569301D02*
X000708661Y000569301D01*
X000708661Y000569301D01*
X000709146Y000575460D01*
X000710588Y000581467D01*
X000712952Y000587175D01*
X000716180Y000592443D01*
X000720192Y000597140D01*
X000724890Y000601153D01*
X000730157Y000604380D01*
X000735865Y000606745D01*
X000741872Y000608187D01*
X000748031Y000608672D01*
X000754190Y000608187D01*
X000760197Y000606745D01*
X000765905Y000604380D01*
X000771172Y000601153D01*
X000775870Y000597140D01*
X000779882Y000592443D01*
X000783110Y000587175D01*
X000785474Y000581467D01*
X000786916Y000575460D01*
X000787401Y000569301D01*
X000787401Y000444477D01*
X000787401Y000444477D01*
X000786916Y000438318D01*
X000785474Y000432311D01*
X000783110Y000426604D01*
X000779882Y000421336D01*
X000775870Y000416638D01*
X000771172Y000412626D01*
X000765905Y000409398D01*
X000760197Y000407034D01*
X000754190Y000405592D01*
X000748031Y000405107D01*
X000741872Y000405592D01*
X000735865Y000407034D01*
X000730157Y000409398D01*
X000724890Y000412626D01*
X000720192Y000416638D01*
X000716180Y000421336D01*
X000712952Y000426604D01*
X000710588Y000432311D01*
X000709146Y000438318D01*
X000708661Y000444477D01*
X000708661Y000569301D01*
M02*