0
SECTION
2
HEADER
9
$INSUNITS
70
4
9
$ACADVER
1
AC1014
9
$HANDSEED
5
FFFF
0
ENDSEC
0
SECTION
2
TABLES
0
TABLE
2
VPORT
5
8
100
AcDbSymbolTable
0
ENDTAB
0
TABLE
2
LTYPE
5
5
100
AcDbSymbolTable
0
LTYPE
5
14
100
AcDbSymbolTableRecord
100
AcDbLinetypeTableRecord
2
BYBLOCK
70
0
0
LTYPE
5
15
100
AcDbSymbolTableRecord
100
AcDbLinetypeTableRecord
2
BYLAYER
70
0
0
ENDTAB
0
TABLE
2
LAYER
5
2
100
AcDbSymbolTable
70
2
0
LAYER
5
50
100
AcDbSymbolTableRecord
100
AcDbLayerTableRecord
2
0
70
0
6
CONTINUOUS
0
ENDTAB
0
TABLE
2
STYLE
5
3
100
AcDbSymbolTable
70
1
0
STYLE
5
11
100
AcDbSymbolTableRecord
100
AcDbTextStyleTableRecord
2
STANDARD
70
0
0
ENDTAB
0
TABLE
2
VIEW
5
6
100
AcDbSymbolTable
70
0
0
ENDTAB
0
TABLE
2
UCS
5
7
100
AcDbSymbolTable
70
0
0
ENDTAB
0
TABLE
2
APPID
5
9
100
AcDbSymbolTable
70
2
0
APPID
5
12
100
AcDbSymbolTableRecord
100
AcDbRegAppTableRecord
2
ACAD
70
0
0
ENDTAB
0
TABLE
2
DIMSTYLE
5
A
100
AcDbSymbolTable
70
1
0
ENDTAB
0
TABLE
2
BLOCK_RECORD
5
1
100
AcDbSymbolTable
70
1
0
BLOCK_RECORD
5
1F
100
AcDbSymbolTableRecord
100
AcDbBlockTableRecord
2
*MODEL_SPACE
0
BLOCK_RECORD
5
1B
100
AcDbSymbolTableRecord
100
AcDbBlockTableRecord
2
*PAPER_SPACE
0
ENDTAB
0
ENDSEC
0
SECTION
2
BLOCKS
0
BLOCK
5
20
100
AcDbEntity
100
AcDbBlockBegin
2
*MODEL_SPACE
0
ENDBLK
5
21
100
AcDbEntity
100
AcDbBlockEnd
0
BLOCK
5
1C
100
AcDbEntity
100
AcDbBlockBegin
2
*PAPER_SPACE
0
ENDBLK
5
1D
100
AcDbEntity
100
AcDbBlockEnd
0
ENDSEC
0
SECTION
2
ENTITIES
0
LINE
5
100
100
AcDbEntity
8
0
100
AcDbLine
10
34.797499000000002
20
-23.019998999999999
30
0
11
27.333924
21
-23.019998000000005
31
0
0
ARC
5
101
100
AcDbEntity
8
0
100
AcDbCircle
10
27.333923000000002
20
-27.019998000000001
30
0
40
4.0000000000001243
210
0
220
-0
230
1
100
AcDbArc
50
89.999985676055161
51
180.02130302594739
0
LINE
5
102
100
AcDbEntity
8
0
100
AcDbLine
10
23.333923276482295
20
-27.021485231740002
30
0
11
23.366014
21
-113.07148699999999
31
0
0
ARC
5
103
100
AcDbEntity
8
0
100
AcDbCircle
10
27.366012000000005
20
-113.07000000000001
30
0
40
3.9999982763962558
210
0
220
0
230
1
100
AcDbArc
50
180.02129971569138
51
269.99999509570836
0
LINE
5
104
100
AcDbEntity
8
0
100
AcDbLine
10
27.366011657616003
20
-117.06999827639599
30
0
11
321.76749999999998
21
-117.069999
31
0
0
ARC
5
105
100
AcDbEntity
8
0
100
AcDbCircle
10
321.76749999999998
20
-113.07000000000001
30
0
40
3.9999989999999919
210
0
220
0
230
1
100
AcDbArc
50
-90
51
0
0
LINE
5
106
100
AcDbEntity
8
0
100
AcDbLine
10
325.76749899999993
20
-113.07000000000001
30
0
11
325.76749999999998
21
-27.02
31
0
0
ARC
5
107
100
AcDbEntity
8
0
100
AcDbCircle
10
321.76749999999998
20
-27.02
30
0
40
3.9999999999999858
210
0
220
0
230
1
100
AcDbArc
50
0
51
90
0
LINE
5
108
100
AcDbEntity
8
0
100
AcDbLine
10
321.76749999999998
20
-23.02
30
0
11
47.56250099999999
21
-23.019998999999999
31
0
0
ARC
5
109
100
AcDbEntity
8
0
100
AcDbCircle
10
47.562500999999997
20
-22.019999000000002
30
0
40
0.99999999999999645
210
0
220
0
230
1
100
AcDbArc
50
180
51
269.9999999999996
0
LINE
5
110
100
AcDbEntity
8
0
100
AcDbLine
10
46.562501000000005
20
-22.019999000000002
30
0
11
46.5625
21
-18.619999
31
0
0
LINE
5
111
100
AcDbEntity
8
0
100
AcDbLine
10
46.5625
20
-18.619999
30
0
11
35.797499999999999
21
-18.619999
31
0
0
LINE
5
112
100
AcDbEntity
8
0
100
AcDbLine
10
35.797499999999999
20
-18.619999
30
0
11
35.797498500229125
21
-22.019999000000276
31
0
0
ARC
5
113
100
AcDbEntity
8
0
100
AcDbCircle
10
34.797497999999997
20
-22.019999000000002
30
0
40
1.0000000000004965
210
0
220
0
230
1
100
AcDbArc
50
270.00005729577981
51
360
0
LWPOLYLINE
5
114
100
AcDbEntity
8
0
100
AcDbPolyline
90
6
70
1
43
0.0
10
244.11840296019454
20
-108.39285879202026
42
-3.6798478192146824
10
244.11840296017186
20
-107.50714120791014
42
-0.54200742297101467
10
247.25312499998944
20
-106.35060970387157
42
-0.54200742297908766
10
250.38784703984518
20
-107.50714120791214
42
-3.6798478192683519
10
250.38784703984294
20
-108.39285879202501
42
-0.5420074229940951
10
247.25312499997071
20
-109.54939029611126
42
-0.54200742298728688
0
ARC
5
115
100
AcDbEntity
8
0
100
AcDbCircle
10
160.02000000000004
20
-107.95000000000002
30
0
40
0.87500000000000799
210
0
220
0
230
1
100
AcDbArc
50
-176.2484406425238
51
176.24844063598763
0
ARC
5
116
100
AcDbEntity
8
0
100
AcDbCircle
10
158.27375000000001
20
-107.95000000000002
30
0
40
0.8750000000035647
210
0
220
-0
230
1
100
AcDbArc
50
3.7515593639970128
51
356.24844064248305
0
LWPOLYLINE
5
117
100
AcDbEntity
8
0
100
AcDbPolyline
90
6
70
1
43
0.0
10
55.999652960196059
20
-108.39285879201765
42
-3.6798478192400093
10
55.999652960171332
20
-107.5071412079123
42
-0.54200742297267379
10
59.134374999991252
20
-106.35060970387022
42
-0.54200742297886151
10
62.269097039844858
20
-107.50714120791267
42
-3.6798478192625752
10
62.269097039842627
20
-108.39285879202646
42
-0.54200742299255855
10
59.134374999971314
20
-109.54939029610821
42
-0.54200742298803084
0
LWPOLYLINE
5
118
100
AcDbEntity
8
0
100
AcDbPolyline
90
6
70
1
43
0.0
10
79.812152960173705
20
-107.50714120790177
42
-0.54200742297079363
10
82.946874999991081
20
-106.35060970387036
42
-0.54200742297889704
10
86.081597039844866
20
-107.50714120791267
42
-3.6798478192625916
10
86.081597039842634
20
-108.39285879202646
42
-0.54200742299268567
10
82.946874999994833
20
-109.54939029614017
42
-0.54200742299186544
10
79.812152960209687
20
-108.39285879203699
42
-3.6798478192218083
0
ARC
5
119
100
AcDbEntity
8
0
100
AcDbCircle
10
59.055
20
-113.03
30
0
40
0.52000000000000091
210
0
220
-0
230
1
100
AcDbArc
50
81.219805170891149
51
278.78019483078964
0
ARC
5
120
100
AcDbEntity
8
0
100
AcDbCircle
10
59.213750000000005
20
-113.03
30
0
40
0.51999999999815794
210
0
220
0
230
1
100
AcDbArc
50
-98.780194829473558
51
98.780194831076457
0
ARC
5
121
100
AcDbEntity
8
0
100
AcDbCircle
10
83.026250000000005
20
-113.03
30
0
40
0.5200000000000059
210
0
220
0
230
1
100
AcDbArc
50
-98.780194830790464
51
98.780194829109874
0
ARC
5
122
100
AcDbEntity
8
0
100
AcDbCircle
10
82.867500000000007
20
-113.03
30
0
40
0.52000000000273816
210
0
220
-0
230
1
100
AcDbArc
50
81.21980516892485
51
278.78019482947207
0
LWPOLYLINE
5
123
100
AcDbEntity
8
0
100
AcDbPolyline
90
2
70
1
43
0.0
10
247.25312500006564
20
-113.54390622623646
42
-1.1663120029624394
10
247.25312500005128
20
-112.51609377376579
42
-1.1663120027019522
0
LWPOLYLINE
5
124
100
AcDbEntity
8
0
100
AcDbPolyline
90
2
70
1
43
0.0
10
34.952879575175601
20
-68.033255094627535
42
-30.31232622741916
10
34.706786011272477
20
-67.94097000816285
42
-11.095897635453582
0
LWPOLYLINE
5
125
100
AcDbEntity
8
0
100
AcDbPolyline
90
6
70
1
43
0.0
10
32.187152960196073
20
-108.39285879201765
42
-3.679847819240019
10
32.187152960171332
20
-107.5071412079123
42
-0.54200742297267368
10
35.321874999991252
20
-106.35060970387022
42
-0.54200742297882598
10
38.456597039844929
20
-107.50714120791253
42
-3.6798478192639736
10
38.456597039842713
20
-108.39285879202612
42
-0.54200742299261717
10
35.321874999971314
20
-109.54939029610821
42
-0.54200742298802995
0
ARC
5
126
100
AcDbEntity
8
0
100
AcDbCircle
10
35.242500000000007
20
-113.03
30
0
40
0.51999999999999913
210
0
220
-0
230
1
100
AcDbArc
50
81.219805169585442
51
278.7801948320959
0
ARC
5
127
100
AcDbEntity
8
0
100
AcDbCircle
10
35.401249999999997
20
-113.03
30
0
40
0.51999999999457636
210
0
220
0
230
1
100
AcDbArc
50
-98.780194828226485
51
98.780194829830407
0
LWPOLYLINE
5
128
100
AcDbEntity
8
0
100
AcDbPolyline
90
4
70
1
43
0.0
10
45.837599999999995
20
-25.057500000000005
42
-0.99999999999999989
10
45.237599999999993
20
-25.057500000000005
10
45.237599999999993
20
-23.9575
42
-0.99999999999999989
10
45.837599999999995
20
-23.9575
0
LWPOLYLINE
5
129
100
AcDbEntity
8
0
100
AcDbPolyline
90
4
70
1
43
0.0
10
37.197599999999994
20
-25.057500000000005
42
-0.99999999999999989
10
36.5976
20
-25.057500000000005
10
36.5976
20
-23.9575
42
-0.99999999999999989
10
37.197599999999994
20
-23.9575
0
LWPOLYLINE
5
130
100
AcDbEntity
8
0
100
AcDbPolyline
90
4
70
1
43
0.0
10
45.237599999999993
20
-20.027500000000003
42
-0.99999999999999989
10
45.837599999999995
20
-20.027500000000003
10
45.837599999999995
20
-20.627500000000005
42
-0.99999999999999989
10
45.237599999999993
20
-20.627500000000005
0
LWPOLYLINE
5
131
100
AcDbEntity
8
0
100
AcDbPolyline
90
4
70
1
43
0.0
10
36.5976
20
-20.027500000000003
42
-0.99999999999999989
10
37.197599999999994
20
-20.027500000000003
10
37.197599999999994
20
-20.627500000000005
42
-0.99999999999999989
10
36.5976
20
-20.627500000000005
0
CIRCLE
5
132
100
AcDbEntity
8
0
100
AcDbCircle
10
322.58000000000004
20
-50.799999999999997
30
0
40
0.87500000000000011
210
0
220
0
230
1
0
CIRCLE
5
133
100
AcDbEntity
8
0
100
AcDbCircle
10
317.5
20
-50.799999999999997
30
0
40
1.9939
210
0
220
0
230
1
0
CIRCLE
5
134
100
AcDbEntity
8
0
100
AcDbCircle
10
312.42000000000007
20
-50.799999999999997
30
0
40
0.87500000000000011
210
0
220
0
230
1
0
CIRCLE
5
135
100
AcDbEntity
8
0
100
AcDbCircle
10
313.69
20
-48.260000000000005
30
0
40
0.73499999999999999
210
0
220
0
230
1
0
CIRCLE
5
136
100
AcDbEntity
8
0
100
AcDbCircle
10
298.76750000000004
20
-50.799999999999997
30
0
40
0.87500000000000011
210
0
220
0
230
1
0
CIRCLE
5
137
100
AcDbEntity
8
0
100
AcDbCircle
10
266.065
20
-48.260000000000005
30
0
40
0.73499999999999999
210
0
220
0
230
1
0
CIRCLE
5
138
100
AcDbEntity
8
0
100
AcDbCircle
10
264.79500000000002
20
-50.799999999999997
30
0
40
0.87500000000000011
210
0
220
0
230
1
0
CIRCLE
5
139
100
AcDbEntity
8
0
100
AcDbCircle
10
274.95499999999998
20
-50.799999999999997
30
0
40
0.87500000000000011
210
0
220
0
230
1
0
CIRCLE
5
140
100
AcDbEntity
8
0
100
AcDbCircle
10
269.875
20
-50.799999999999997
30
0
40
1.9939
210
0
220
0
230
1
0
CIRCLE
5
141
100
AcDbEntity
8
0
100
AcDbCircle
10
293.6875
20
-50.799999999999997
30
0
40
1.9939
210
0
220
0
230
1
0
CIRCLE
5
142
100
AcDbEntity
8
0
100
AcDbCircle
10
289.8775
20
-48.260000000000005
30
0
40
0.73499999999999999
210
0
220
0
230
1
0
CIRCLE
5
143
100
AcDbEntity
8
0
100
AcDbCircle
10
288.60750000000002
20
-50.799999999999997
30
0
40
0.87500000000000011
210
0
220
0
230
1
0
CIRCLE
5
144
100
AcDbEntity
8
0
100
AcDbCircle
10
247.01499999999999
20
-48.260000000000005
30
0
40
0.73499999999999999
210
0
220
0
230
1
0
CIRCLE
5
145
100
AcDbEntity
8
0
100
AcDbCircle
10
245.745
20
-50.799999999999997
30
0
40
0.87500000000000011
210
0
220
0
230
1
0
CIRCLE
5
146
100
AcDbEntity
8
0
100
AcDbCircle
10
255.90500000000003
20
-50.799999999999997
30
0
40
0.87500000000000011
210
0
220
0
230
1
0
CIRCLE
5
147
100
AcDbEntity
8
0
100
AcDbCircle
10
250.82499999999999
20
-50.799999999999997
30
0
40
1.9939
210
0
220
0
230
1
0
CIRCLE
5
148
100
AcDbEntity
8
0
100
AcDbCircle
10
151.76499999999999
20
-48.260000000000005
30
0
40
0.73499999999999999
210
0
220
0
230
1
0
CIRCLE
5
149
100
AcDbEntity
8
0
100
AcDbCircle
10
150.495
20
-50.799999999999997
30
0
40
0.87500000000000011
210
0
220
0
230
1
0
CIRCLE
5
150
100
AcDbEntity
8
0
100
AcDbCircle
10
155.57499999999999
20
-50.799999999999997
30
0
40
1.9939
210
0
220
0
230
1
0
CIRCLE
5
151
100
AcDbEntity
8
0
100
AcDbCircle
10
160.655
20
-50.799999999999997
30
0
40
0.87500000000000011
210
0
220
0
230
1
0
CIRCLE
5
152
100
AcDbEntity
8
0
100
AcDbCircle
10
169.54499999999999
20
-50.799999999999997
30
0
40
0.87500000000000011
210
0
220
0
230
1
0
CIRCLE
5
153
100
AcDbEntity
8
0
100
AcDbCircle
10
170.81500000000003
20
-48.260000000000005
30
0
40
0.73499999999999999
210
0
220
0
230
1
0
CIRCLE
5
154
100
AcDbEntity
8
0
100
AcDbCircle
10
193.67500000000004
20
-50.799999999999997
30
0
40
1.9939
210
0
220
0
230
1
0
CIRCLE
5
155
100
AcDbEntity
8
0
100
AcDbCircle
10
188.595
20
-50.799999999999997
30
0
40
0.87500000000000011
210
0
220
0
230
1
0
CIRCLE
5
156
100
AcDbEntity
8
0
100
AcDbCircle
10
189.86500000000004
20
-48.260000000000005
30
0
40
0.73499999999999999
210
0
220
0
230
1
0
CIRCLE
5
157
100
AcDbEntity
8
0
100
AcDbCircle
10
174.62500000000003
20
-50.799999999999997
30
0
40
1.9939
210
0
220
0
230
1
0
CIRCLE
5
158
100
AcDbEntity
8
0
100
AcDbCircle
10
179.70500000000001
20
-50.799999999999997
30
0
40
0.87500000000000011
210
0
220
0
230
1
0
CIRCLE
5
159
100
AcDbEntity
8
0
100
AcDbCircle
10
236.85500000000002
20
-50.799999999999997
30
0
40
0.87500000000000011
210
0
220
0
230
1
0
CIRCLE
5
160
100
AcDbEntity
8
0
100
AcDbCircle
10
231.77500000000003
20
-50.799999999999997
30
0
40
1.9939
210
0
220
0
230
1
0
CIRCLE
5
161
100
AcDbEntity
8
0
100
AcDbCircle
10
226.69499999999999
20
-50.799999999999997
30
0
40
0.87500000000000011
210
0
220
0
230
1
0
CIRCLE
5
162
100
AcDbEntity
8
0
100
AcDbCircle
10
227.96500000000003
20
-48.260000000000005
30
0
40
0.73499999999999999
210
0
220
0
230
1
0
CIRCLE
5
163
100
AcDbEntity
8
0
100
AcDbCircle
10
207.64500000000001
20
-50.799999999999997
30
0
40
0.87500000000000011
210
0
220
0
230
1
0
CIRCLE
5
164
100
AcDbEntity
8
0
100
AcDbCircle
10
208.91500000000002
20
-48.260000000000005
30
0
40
0.73499999999999999
210
0
220
0
230
1
0
CIRCLE
5
165
100
AcDbEntity
8
0
100
AcDbCircle
10
212.72500000000002
20
-50.799999999999997
30
0
40
1.9939
210
0
220
0
230
1
0
CIRCLE
5
166
100
AcDbEntity
8
0
100
AcDbCircle
10
217.80500000000004
20
-50.799999999999997
30
0
40
0.87500000000000011
210
0
220
0
230
1
0
CIRCLE
5
167
100
AcDbEntity
8
0
100
AcDbCircle
10
198.75500000000002
20
-50.799999999999997
30
0
40
0.87500000000000011
210
0
220
0
230
1
0
CIRCLE
5
168
100
AcDbEntity
8
0
100
AcDbCircle
10
161.29000000000002
20
-29.210000000000001
30
0
40
0.73499999999999999
210
0
220
0
230
1
0
CIRCLE
5
169
100
AcDbEntity
8
0
100
AcDbCircle
10
160.02000000000004
20
-31.750000000000004
30
0
40
0.87500000000000011
210
0
220
0
230
1
0
CIRCLE
5
170
100
AcDbEntity
8
0
100
AcDbCircle
10
170.18000000000001
20
-31.750000000000004
30
0
40
0.87500000000000011
210
0
220
0
230
1
0
CIRCLE
5
171
100
AcDbEntity
8
0
100
AcDbCircle
10
165.10000000000002
20
-31.750000000000004
30
0
40
1.9939
210
0
220
0
230
1
0
CIRCLE
5
172
100
AcDbEntity
8
0
100
AcDbCircle
10
184.15000000000003
20
-31.750000000000004
30
0
40
1.9939
210
0
220
0
230
1
0
CIRCLE
5
173
100
AcDbEntity
8
0
100
AcDbCircle
10
180.34000000000003
20
-29.210000000000001
30
0
40
0.73499999999999999
210
0
220
0
230
1
0
CIRCLE
5
174
100
AcDbEntity
8
0
100
AcDbCircle
10
179.06999999999999
20
-31.750000000000004
30
0
40
0.87500000000000011
210
0
220
0
230
1
0
CIRCLE
5
175
100
AcDbEntity
8
0
100
AcDbCircle
10
218.44
20
-29.210000000000001
30
0
40
0.73499999999999999
210
0
220
0
230
1
0
CIRCLE
5
176
100
AcDbEntity
8
0
100
AcDbCircle
10
217.16999999999999
20
-31.750000000000004
30
0
40
0.87500000000000011
210
0
220
0
230
1
0
CIRCLE
5
177
100
AcDbEntity
8
0
100
AcDbCircle
10
208.28000000000003
20
-31.750000000000004
30
0
40
0.87500000000000011
210
0
220
0
230
1
0
CIRCLE
5
178
100
AcDbEntity
8
0
100
AcDbCircle
10
199.38999999999999
20
-29.210000000000001
30
0
40
0.73499999999999999
210
0
220
0
230
1
0
CIRCLE
5
179
100
AcDbEntity
8
0
100
AcDbCircle
10
198.12
20
-31.750000000000004
30
0
40
0.87500000000000011
210
0
220
0
230
1
0
CIRCLE
5
180
100
AcDbEntity
8
0
100
AcDbCircle
10
203.19999999999999
20
-31.750000000000004
30
0
40
1.9939
210
0
220
0
230
1
0
CIRCLE
5
181
100
AcDbEntity
8
0
100
AcDbCircle
10
189.22999999999999
20
-31.750000000000004
30
0
40
0.87500000000000011
210
0
220
0
230
1
0
CIRCLE
5
182
100
AcDbEntity
8
0
100
AcDbCircle
10
227.33000000000004
20
-31.750000000000004
30
0
40
0.87500000000000011
210
0
220
0
230
1
0
CIRCLE
5
183
100
AcDbEntity
8
0
100
AcDbCircle
10
222.25
20
-31.750000000000004
30
0
40
1.9939
210
0
220
0
230
1
0
CIRCLE
5
184
100
AcDbEntity
8
0
100
AcDbCircle
10
312.42000000000007
20
-31.750000000000004
30
0
40
0.87500000000000011
210
0
220
0
230
1
0
CIRCLE
5
185
100
AcDbEntity
8
0
100
AcDbCircle
10
294.005
20
-31.750000000000004
30
0
40
0.87500000000000011
210
0
220
0
230
1
0
CIRCLE
5
186
100
AcDbEntity
8
0
100
AcDbCircle
10
313.69
20
-29.210000000000001
30
0
40
0.73499999999999999
210
0
220
0
230
1
0
CIRCLE
5
187
100
AcDbEntity
8
0
100
AcDbCircle
10
288.92500000000001
20
-31.750000000000004
30
0
40
1.9939
210
0
220
0
230
1
0
CIRCLE
5
188
100
AcDbEntity
8
0
100
AcDbCircle
10
260.35000000000002
20
-31.750000000000004
30
0
40
1.9939
210
0
220
0
230
1
0
CIRCLE
5
189
100
AcDbEntity
8
0
100
AcDbCircle
10
265.43000000000001
20
-31.750000000000004
30
0
40
0.87500000000000011
210
0
220
0
230
1
0
CIRCLE
5
190
100
AcDbEntity
8
0
100
AcDbCircle
10
283.84500000000003
20
-31.750000000000004
30
0
40
0.87500000000000011
210
0
220
0
230
1
0
CIRCLE
5
191
100
AcDbEntity
8
0
100
AcDbCircle
10
285.11500000000001
20
-29.210000000000001
30
0
40
0.73499999999999999
210
0
220
0
230
1
0
CIRCLE
5
192
100
AcDbEntity
8
0
100
AcDbCircle
10
241.30000000000001
20
-31.750000000000004
30
0
40
1.9939
210
0
220
0
230
1
0
CIRCLE
5
193
100
AcDbEntity
8
0
100
AcDbCircle
10
246.38000000000002
20
-31.750000000000004
30
0
40
0.87500000000000011
210
0
220
0
230
1
0
CIRCLE
5
194
100
AcDbEntity
8
0
100
AcDbCircle
10
256.54000000000002
20
-29.210000000000001
30
0
40
0.73499999999999999
210
0
220
0
230
1
0
CIRCLE
5
195
100
AcDbEntity
8
0
100
AcDbCircle
10
255.27000000000001
20
-31.750000000000004
30
0
40
0.87500000000000011
210
0
220
0
230
1
0
CIRCLE
5
196
100
AcDbEntity
8
0
100
AcDbCircle
10
237.49000000000001
20
-29.210000000000001
30
0
40
0.73499999999999999
210
0
220
0
230
1
0
CIRCLE
5
197
100
AcDbEntity
8
0
100
AcDbCircle
10
236.22
20
-31.750000000000004
30
0
40
0.87500000000000011
210
0
220
0
230
1
0
CIRCLE
5
198
100
AcDbEntity
8
0
100
AcDbCircle
10
322.58000000000004
20
-31.750000000000004
30
0
40
0.87500000000000011
210
0
220
0
230
1
0
CIRCLE
5
199
100
AcDbEntity
8
0
100
AcDbCircle
10
317.5
20
-31.750000000000004
30
0
40
1.9939
210
0
220
0
230
1
0
CIRCLE
5
200
100
AcDbEntity
8
0
100
AcDbCircle
10
234.315
20
-45.719999999999999
30
0
40
0.73499999999999999
210
0
220
0
230
1
0
CIRCLE
5
201
100
AcDbEntity
8
0
100
AcDbCircle
10
253.36500000000001
20
-45.719999999999999
30
0
40
0.73499999999999999
210
0
220
0
230
1
0
CIRCLE
5
202
100
AcDbEntity
8
0
100
AcDbCircle
10
272.41500000000002
20
-45.719999999999999
30
0
40
0.73499999999999999
210
0
220
0
230
1
0
CIRCLE
5
203
100
AcDbEntity
8
0
100
AcDbCircle
10
261.62
20
-36.829999999999998
30
0
40
0.52000000000000002
210
0
220
0
230
1
0
CIRCLE
5
204
100
AcDbEntity
8
0
100
AcDbCircle
10
259.08000000000004
20
-36.829999999999998
30
0
40
0.52000000000000002
210
0
220
0
230
1
0
CIRCLE
5
205
100
AcDbEntity
8
0
100
AcDbCircle
10
242.57000000000002
20
-36.829999999999998
30
0
40
0.52000000000000002
210
0
220
0
230
1
0
CIRCLE
5
206
100
AcDbEntity
8
0
100
AcDbCircle
10
240.03
20
-36.829999999999998
30
0
40
0.52000000000000002
210
0
220
0
230
1
0
CIRCLE
5
207
100
AcDbEntity
8
0
100
AcDbCircle
10
223.52000000000004
20
-36.829999999999998
30
0
40
0.52000000000000002
210
0
220
0
230
1
0
CIRCLE
5
208
100
AcDbEntity
8
0
100
AcDbCircle
10
220.97999999999999
20
-36.829999999999998
30
0
40
0.52000000000000002
210
0
220
0
230
1
0
CIRCLE
5
209
100
AcDbEntity
8
0
100
AcDbCircle
10
166.37
20
-36.829999999999998
30
0
40
0.52000000000000002
210
0
220
0
230
1
0
CIRCLE
5
210
100
AcDbEntity
8
0
100
AcDbCircle
10
177.16499999999999
20
-45.719999999999999
30
0
40
0.73499999999999999
210
0
220
0
230
1
0
CIRCLE
5
211
100
AcDbEntity
8
0
100
AcDbCircle
10
196.215
20
-45.719999999999999
30
0
40
0.73499999999999999
210
0
220
0
230
1
0
CIRCLE
5
212
100
AcDbEntity
8
0
100
AcDbCircle
10
185.41999999999999
20
-36.829999999999998
30
0
40
0.52000000000000002
210
0
220
0
230
1
0
CIRCLE
5
213
100
AcDbEntity
8
0
100
AcDbCircle
10
182.88
20
-36.829999999999998
30
0
40
0.52000000000000002
210
0
220
0
230
1
0
CIRCLE
5
214
100
AcDbEntity
8
0
100
AcDbCircle
10
215.26499999999999
20
-45.719999999999999
30
0
40
0.73499999999999999
210
0
220
0
230
1
0
CIRCLE
5
215
100
AcDbEntity
8
0
100
AcDbCircle
10
201.93000000000001
20
-36.829999999999998
30
0
40
0.52000000000000002
210
0
220
0
230
1
0
CIRCLE
5
216
100
AcDbEntity
8
0
100
AcDbCircle
10
204.47000000000003
20
-36.829999999999998
30
0
40
0.52000000000000002
210
0
220
0
230
1
0
CIRCLE
5
217
100
AcDbEntity
8
0
100
AcDbCircle
10
287.65499999999997
20
-36.829999999999998
30
0
40
0.52000000000000002
210
0
220
0
230
1
0
CIRCLE
5
218
100
AcDbEntity
8
0
100
AcDbCircle
10
276.98700000000002
20
-40.00500000000001
30
0
40
1.9939
210
0
220
0
230
1
0
CIRCLE
5
219
100
AcDbEntity
8
0
100
AcDbCircle
10
163.83000000000004
20
-36.829999999999998
30
0
40
0.52000000000000002
210
0
220
0
230
1
0
CIRCLE
5
220
100
AcDbEntity
8
0
100
AcDbCircle
10
318.76999999999998
20
-36.829999999999998
30
0
40
0.52000000000000002
210
0
220
0
230
1
0
CIRCLE
5
221
100
AcDbEntity
8
0
100
AcDbCircle
10
316.23000000000002
20
-36.829999999999998
30
0
40
0.52000000000000002
210
0
220
0
230
1
0
CIRCLE
5
222
100
AcDbEntity
8
0
100
AcDbCircle
10
296.22750000000002
20
-45.719999999999999
30
0
40
0.73499999999999999
210
0
220
0
230
1
0
CIRCLE
5
223
100
AcDbEntity
8
0
100
AcDbCircle
10
300.863
20
-40.00500000000001
30
0
40
1.9939
210
0
220
0
230
1
0
CIRCLE
5
224
100
AcDbEntity
8
0
100
AcDbCircle
10
290.19499999999999
20
-36.829999999999998
30
0
40
0.52000000000000002
210
0
220
0
230
1
0
CIRCLE
5
225
100
AcDbEntity
8
0
100
AcDbCircle
10
320.04000000000008
20
-45.719999999999999
30
0
40
0.73499999999999999
210
0
220
0
230
1
0
CIRCLE
5
226
100
AcDbEntity
8
0
100
AcDbCircle
10
158.11500000000001
20
-45.719999999999999
30
0
40
0.73499999999999999
210
0
220
0
230
1
0
CIRCLE
5
227
100
AcDbEntity
8
0
100
AcDbCircle
10
151.13
20
-31.750000000000004
30
0
40
0.87500000000000011
210
0
220
0
230
1
0
CIRCLE
5
228
100
AcDbEntity
8
0
100
AcDbCircle
10
210.50250000000003
20
-83.819999999999993
30
0
40
0.73499999999999999
210
0
220
0
230
1
0
CIRCLE
5
229
100
AcDbEntity
8
0
100
AcDbCircle
10
197.16750000000002
20
-74.930000000000007
30
0
40
0.52000000000000002
210
0
220
0
230
1
0
CIRCLE
5
230
100
AcDbEntity
8
0
100
AcDbCircle
10
199.70750000000004
20
-74.930000000000007
30
0
40
0.52000000000000002
210
0
220
0
230
1
0
CIRCLE
5
231
100
AcDbEntity
8
0
100
AcDbCircle
10
180.65750000000003
20
-74.930000000000007
30
0
40
0.52000000000000002
210
0
220
0
230
1
0
CIRCLE
5
232
100
AcDbEntity
8
0
100
AcDbCircle
10
191.45250000000001
20
-83.819999999999993
30
0
40
0.73499999999999999
210
0
220
0
230
1
0
CIRCLE
5
233
100
AcDbEntity
8
0
100
AcDbCircle
10
184.46750000000003
20
-69.849999999999994
30
0
40
0.87500000000000011
210
0
220
0
230
1
0
CIRCLE
5
234
100
AcDbEntity
8
0
100
AcDbCircle
10
193.35750000000002
20
-69.849999999999994
30
0
40
0.87500000000000011
210
0
220
0
230
1
0
CIRCLE
5
235
100
AcDbEntity
8
0
100
AcDbCircle
10
203.51750000000004
20
-69.849999999999994
30
0
40
0.87500000000000011
210
0
220
0
230
1
0
CIRCLE
5
236
100
AcDbEntity
8
0
100
AcDbCircle
10
198.4375
20
-69.849999999999994
30
0
40
1.9939
210
0
220
0
230
1
0
CIRCLE
5
237
100
AcDbEntity
8
0
100
AcDbCircle
10
179.38749999999999
20
-69.849999999999994
30
0
40
1.9939
210
0
220
0
230
1
0
CIRCLE
5
238
100
AcDbEntity
8
0
100
AcDbCircle
10
218.75749999999999
20
-74.930000000000007
30
0
40
0.52000000000000002
210
0
220
0
230
1
0
CIRCLE
5
239
100
AcDbEntity
8
0
100
AcDbCircle
10
216.21750000000003
20
-74.930000000000007
30
0
40
0.52000000000000002
210
0
220
0
230
1
0
CIRCLE
5
240
100
AcDbEntity
8
0
100
AcDbCircle
10
217.48750000000001
20
-69.849999999999994
30
0
40
1.9939
210
0
220
0
230
1
0
CIRCLE
5
241
100
AcDbEntity
8
0
100
AcDbCircle
10
241.61750000000001
20
-69.849999999999994
30
0
40
0.87500000000000011
210
0
220
0
230
1
0
CIRCLE
5
242
100
AcDbEntity
8
0
100
AcDbCircle
10
235.26750000000004
20
-74.930000000000007
30
0
40
0.52000000000000002
210
0
220
0
230
1
0
CIRCLE
5
243
100
AcDbEntity
8
0
100
AcDbCircle
10
237.8075
20
-74.930000000000007
30
0
40
0.52000000000000002
210
0
220
0
230
1
0
CIRCLE
5
244
100
AcDbEntity
8
0
100
AcDbCircle
10
231.45750000000004
20
-69.849999999999994
30
0
40
0.87500000000000011
210
0
220
0
230
1
0
CIRCLE
5
245
100
AcDbEntity
8
0
100
AcDbCircle
10
229.55250000000004
20
-83.819999999999993
30
0
40
0.73499999999999999
210
0
220
0
230
1
0
CIRCLE
5
246
100
AcDbEntity
8
0
100
AcDbCircle
10
312.42000000000007
20
-69.849999999999994
30
0
40
0.87500000000000011
210
0
220
0
230
1
0
CIRCLE
5
247
100
AcDbEntity
8
0
100
AcDbCircle
10
291.62374999999997
20
-69.849999999999994
30
0
40
0.87500000000000011
210
0
220
0
230
1
0
CIRCLE
5
248
100
AcDbEntity
8
0
100
AcDbCircle
10
287.81375000000003
20
-74.930000000000007
30
0
40
0.52000000000000002
210
0
220
0
230
1
0
CIRCLE
5
249
100
AcDbEntity
8
0
100
AcDbCircle
10
298.48174999999998
20
-78.105000000000018
30
0
40
1.9939
210
0
220
0
230
1
0
CIRCLE
5
250
100
AcDbEntity
8
0
100
AcDbCircle
10
300.99000000000001
20
-83.819999999999993
30
0
40
0.73499999999999999
210
0
220
0
230
1
0
CIRCLE
5
251
100
AcDbEntity
8
0
100
AcDbCircle
10
285.27375000000001
20
-74.930000000000007
30
0
40
0.52000000000000002
210
0
220
0
230
1
0
CIRCLE
5
252
100
AcDbEntity
8
0
100
AcDbCircle
10
248.60250000000002
20
-83.819999999999993
30
0
40
0.73499999999999999
210
0
220
0
230
1
0
CIRCLE
5
253
100
AcDbEntity
8
0
100
AcDbCircle
10
250.50749999999999
20
-69.849999999999994
30
0
40
0.87500000000000011
210
0
220
0
230
1
0
CIRCLE
5
254
100
AcDbEntity
8
0
100
AcDbCircle
10
255.58750000000003
20
-69.849999999999994
30
0
40
1.9939
210
0
220
0
230
1
0
CIRCLE
5
255
100
AcDbEntity
8
0
100
AcDbCircle
10
256.85750000000002
20
-74.930000000000007
30
0
40
0.52000000000000002
210
0
220
0
230
1
0
CIRCLE
5
256
100
AcDbEntity
8
0
100
AcDbCircle
10
254.3175
20
-74.930000000000007
30
0
40
0.52000000000000002
210
0
220
0
230
1
0
CIRCLE
5
257
100
AcDbEntity
8
0
100
AcDbCircle
10
274.79624999999999
20
-83.819999999999993
30
0
40
0.73499999999999999
210
0
220
0
230
1
0
CIRCLE
5
258
100
AcDbEntity
8
0
100
AcDbCircle
10
274.60575
20
-78.105000000000018
30
0
40
1.9939
210
0
220
0
230
1
0
CIRCLE
5
259
100
AcDbEntity
8
0
100
AcDbCircle
10
271.14499999999998
20
-55.88000000000001
30
0
40
0.52000000000000002
210
0
220
0
230
1
0
CIRCLE
5
260
100
AcDbEntity
8
0
100
AcDbCircle
10
268.60500000000002
20
-55.88000000000001
30
0
40
0.52000000000000002
210
0
220
0
230
1
0
CIRCLE
5
261
100
AcDbEntity
8
0
100
AcDbCircle
10
249.55500000000001
20
-55.88000000000001
30
0
40
0.52000000000000002
210
0
220
0
230
1
0
CIRCLE
5
262
100
AcDbEntity
8
0
100
AcDbCircle
10
252.09500000000003
20
-55.88000000000001
30
0
40
0.52000000000000002
210
0
220
0
230
1
0
CIRCLE
5
263
100
AcDbEntity
8
0
100
AcDbCircle
10
258.1275
20
-64.77000000000001
30
0
40
0.73499999999999999
210
0
220
0
230
1
0
CIRCLE
5
264
100
AcDbEntity
8
0
100
AcDbCircle
10
298.48174999999998
20
-62.865000000000002
30
0
40
1.524
210
0
220
0
230
1
0
CIRCLE
5
265
100
AcDbEntity
8
0
100
AcDbCircle
10
289.08375000000001
20
-64.77000000000001
30
0
40
0.73499999999999999
210
0
220
0
230
1
0
CIRCLE
5
266
100
AcDbEntity
8
0
100
AcDbCircle
10
274.60575
20
-62.865000000000002
30
0
40
1.524
210
0
220
0
230
1
0
CIRCLE
5
267
100
AcDbEntity
8
0
100
AcDbCircle
10
292.41750000000002
20
-55.88000000000001
30
0
40
0.52000000000000002
210
0
220
0
230
1
0
CIRCLE
5
268
100
AcDbEntity
8
0
100
AcDbCircle
10
294.95749999999998
20
-55.88000000000001
30
0
40
0.52000000000000002
210
0
220
0
230
1
0
CIRCLE
5
269
100
AcDbEntity
8
0
100
AcDbCircle
10
192.405
20
-55.88000000000001
30
0
40
0.52000000000000002
210
0
220
0
230
1
0
CIRCLE
5
270
100
AcDbEntity
8
0
100
AcDbCircle
10
194.94500000000002
20
-55.88000000000001
30
0
40
0.52000000000000002
210
0
220
0
230
1
0
CIRCLE
5
271
100
AcDbEntity
8
0
100
AcDbCircle
10
200.97750000000002
20
-64.77000000000001
30
0
40
0.73499999999999999
210
0
220
0
230
1
0
CIRCLE
5
272
100
AcDbEntity
8
0
100
AcDbCircle
10
220.02750000000003
20
-64.77000000000001
30
0
40
0.73499999999999999
210
0
220
0
230
1
0
CIRCLE
5
273
100
AcDbEntity
8
0
100
AcDbCircle
10
211.45500000000001
20
-55.88000000000001
30
0
40
0.52000000000000002
210
0
220
0
230
1
0
CIRCLE
5
274
100
AcDbEntity
8
0
100
AcDbCircle
10
213.99500000000003
20
-55.88000000000001
30
0
40
0.52000000000000002
210
0
220
0
230
1
0
CIRCLE
5
275
100
AcDbEntity
8
0
100
AcDbCircle
10
233.04500000000002
20
-55.88000000000001
30
0
40
0.52000000000000002
210
0
220
0
230
1
0
CIRCLE
5
276
100
AcDbEntity
8
0
100
AcDbCircle
10
230.505
20
-55.88000000000001
30
0
40
0.52000000000000002
210
0
220
0
230
1
0
CIRCLE
5
277
100
AcDbEntity
8
0
100
AcDbCircle
10
239.07749999999999
20
-64.77000000000001
30
0
40
0.73499999999999999
210
0
220
0
230
1
0
CIRCLE
5
278
100
AcDbEntity
8
0
100
AcDbCircle
10
194.6275
20
-67.310000000000002
30
0
40
0.73499999999999999
210
0
220
0
230
1
0
CIRCLE
5
279
100
AcDbEntity
8
0
100
AcDbCircle
10
212.40750000000003
20
-69.849999999999994
30
0
40
0.87500000000000011
210
0
220
0
230
1
0
CIRCLE
5
280
100
AcDbEntity
8
0
100
AcDbCircle
10
213.67750000000001
20
-67.310000000000002
30
0
40
0.73499999999999999
210
0
220
0
230
1
0
CIRCLE
5
281
100
AcDbEntity
8
0
100
AcDbCircle
10
236.53750000000002
20
-69.849999999999994
30
0
40
1.9939
210
0
220
0
230
1
0
CIRCLE
5
282
100
AcDbEntity
8
0
100
AcDbCircle
10
232.72750000000002
20
-67.310000000000002
30
0
40
0.73499999999999999
210
0
220
0
230
1
0
CIRCLE
5
283
100
AcDbEntity
8
0
100
AcDbCircle
10
222.5675
20
-69.849999999999994
30
0
40
0.87500000000000011
210
0
220
0
230
1
0
CIRCLE
5
284
100
AcDbEntity
8
0
100
AcDbCircle
10
282.73374999999999
20
-67.310000000000002
30
0
40
0.73499999999999999
210
0
220
0
230
1
0
CIRCLE
5
285
100
AcDbEntity
8
0
100
AcDbCircle
10
251.77750000000003
20
-67.310000000000002
30
0
40
0.73499999999999999
210
0
220
0
230
1
0
CIRCLE
5
286
100
AcDbEntity
8
0
100
AcDbCircle
10
281.46375
20
-69.849999999999994
30
0
40
0.87500000000000011
210
0
220
0
230
1
0
CIRCLE
5
287
100
AcDbEntity
8
0
100
AcDbCircle
10
260.66750000000002
20
-69.849999999999994
30
0
40
0.87500000000000011
210
0
220
0
230
1
0
CIRCLE
5
288
100
AcDbEntity
8
0
100
AcDbCircle
10
286.54375000000005
20
-69.849999999999994
30
0
40
1.9939
210
0
220
0
230
1
0
CIRCLE
5
289
100
AcDbEntity
8
0
100
AcDbCircle
10
313.69
20
-67.310000000000002
30
0
40
0.73499999999999999
210
0
220
0
230
1
0
CIRCLE
5
290
100
AcDbEntity
8
0
100
AcDbCircle
10
181.92750000000001
20
-64.77000000000001
30
0
40
0.73499999999999999
210
0
220
0
230
1
0
CIRCLE
5
291
100
AcDbEntity
8
0
100
AcDbCircle
10
178.11750000000001
20
-74.930000000000007
30
0
40
0.52000000000000002
210
0
220
0
230
1
0
CIRCLE
5
292
100
AcDbEntity
8
0
100
AcDbCircle
10
165.41750000000002
20
-69.849999999999994
30
0
40
0.87500000000000011
210
0
220
0
230
1
0
CIRCLE
5
293
100
AcDbEntity
8
0
100
AcDbCircle
10
175.57749999999999
20
-67.310000000000002
30
0
40
0.73499999999999999
210
0
220
0
230
1
0
CIRCLE
5
294
100
AcDbEntity
8
0
100
AcDbCircle
10
174.3075
20
-69.849999999999994
30
0
40
0.87500000000000011
210
0
220
0
230
1
0
CIRCLE
5
295
100
AcDbEntity
8
0
100
AcDbCircle
10
173.35499999999999
20
-55.88000000000001
30
0
40
0.52000000000000002
210
0
220
0
230
1
0
CIRCLE
5
296
100
AcDbEntity
8
0
100
AcDbCircle
10
175.89500000000001
20
-55.88000000000001
30
0
40
0.52000000000000002
210
0
220
0
230
1
0
CIRCLE
5
297
100
AcDbEntity
8
0
100
AcDbCircle
10
172.4025
20
-83.819999999999993
30
0
40
0.73499999999999999
210
0
220
0
230
1
0
CIRCLE
5
298
100
AcDbEntity
8
0
100
AcDbCircle
10
316.23000000000002
20
-55.88000000000001
30
0
40
0.52000000000000002
210
0
220
0
230
1
0
CIRCLE
5
299
100
AcDbEntity
8
0
100
AcDbCircle
10
317.5
20
-69.849999999999994
30
0
40
1.9939
210
0
220
0
230
1
0
CIRCLE
5
300
100
AcDbEntity
8
0
100
AcDbCircle
10
320.04000000000008
20
-64.77000000000001
30
0
40
0.73499999999999999
210
0
220
0
230
1
0
CIRCLE
5
301
100
AcDbEntity
8
0
100
AcDbCircle
10
316.23000000000002
20
-74.930000000000007
30
0
40
0.52000000000000002
210
0
220
0
230
1
0
CIRCLE
5
302
100
AcDbEntity
8
0
100
AcDbCircle
10
318.76999999999998
20
-74.930000000000007
30
0
40
0.52000000000000002
210
0
220
0
230
1
0
CIRCLE
5
303
100
AcDbEntity
8
0
100
AcDbCircle
10
320.04000000000008
20
-83.819999999999993
30
0
40
0.73499999999999999
210
0
220
0
230
1
0
CIRCLE
5
304
100
AcDbEntity
8
0
100
AcDbCircle
10
156.845
20
-55.88000000000001
30
0
40
0.52000000000000002
210
0
220
0
230
1
0
CIRCLE
5
305
100
AcDbEntity
8
0
100
AcDbCircle
10
156.5275
20
-67.310000000000002
30
0
40
0.73499999999999999
210
0
220
0
230
1
0
CIRCLE
5
306
100
AcDbEntity
8
0
100
AcDbCircle
10
161.60750000000002
20
-74.930000000000007
30
0
40
0.52000000000000002
210
0
220
0
230
1
0
CIRCLE
5
307
100
AcDbEntity
8
0
100
AcDbCircle
10
159.0675
20
-74.930000000000007
30
0
40
0.52000000000000002
210
0
220
0
230
1
0
CIRCLE
5
308
100
AcDbEntity
8
0
100
AcDbCircle
10
160.33750000000001
20
-69.849999999999994
30
0
40
1.9939
210
0
220
0
230
1
0
CIRCLE
5
309
100
AcDbEntity
8
0
100
AcDbCircle
10
155.25749999999999
20
-69.849999999999994
30
0
40
0.87500000000000011
210
0
220
0
230
1
0
CIRCLE
5
310
100
AcDbEntity
8
0
100
AcDbCircle
10
162.8775
20
-64.77000000000001
30
0
40
0.73499999999999999
210
0
220
0
230
1
0
CIRCLE
5
311
100
AcDbEntity
8
0
100
AcDbCircle
10
154.30500000000001
20
-55.88000000000001
30
0
40
0.52000000000000002
210
0
220
0
230
1
0
CIRCLE
5
312
100
AcDbEntity
8
0
100
AcDbCircle
10
153.35249999999999
20
-83.819999999999993
30
0
40
0.73499999999999999
210
0
220
0
230
1
0
CIRCLE
5
313
100
AcDbEntity
8
0
100
AcDbCircle
10
318.76999999999998
20
-55.88000000000001
30
0
40
0.52000000000000002
210
0
220
0
230
1
0
CIRCLE
5
314
100
AcDbEntity
8
0
100
AcDbCircle
10
322.58000000000004
20
-69.849999999999994
30
0
40
0.87500000000000011
210
0
220
0
230
1
0
CIRCLE
5
315
100
AcDbEntity
8
0
100
AcDbCircle
10
155.89250000000001
20
-88.900000000000006
30
0
40
0.87500000000000011
210
0
220
0
230
1
0
CIRCLE
5
316
100
AcDbEntity
8
0
100
AcDbCircle
10
150.8125
20
-88.900000000000006
30
0
40
1.9939
210
0
220
0
230
1
0
CIRCLE
5
317
100
AcDbEntity
8
0
100
AcDbCircle
10
174.9425
20
-88.900000000000006
30
0
40
0.87500000000000011
210
0
220
0
230
1
0
CIRCLE
5
318
100
AcDbEntity
8
0
100
AcDbCircle
10
169.86250000000001
20
-88.900000000000006
30
0
40
1.9939
210
0
220
0
230
1
0
CIRCLE
5
319
100
AcDbEntity
8
0
100
AcDbCircle
10
166.05250000000001
20
-86.360000000000014
30
0
40
0.73499999999999999
210
0
220
0
230
1
0
CIRCLE
5
320
100
AcDbEntity
8
0
100
AcDbCircle
10
164.7825
20
-88.900000000000006
30
0
40
0.87500000000000011
210
0
220
0
230
1
0
CIRCLE
5
321
100
AcDbEntity
8
0
100
AcDbCircle
10
183.83250000000001
20
-88.900000000000006
30
0
40
0.87500000000000011
210
0
220
0
230
1
0
CIRCLE
5
322
100
AcDbEntity
8
0
100
AcDbCircle
10
185.10249999999999
20
-86.360000000000014
30
0
40
0.73499999999999999
210
0
220
0
230
1
0
CIRCLE
5
323
100
AcDbEntity
8
0
100
AcDbCircle
10
188.91249999999999
20
-88.900000000000006
30
0
40
1.9939
210
0
220
0
230
1
0
CIRCLE
5
324
100
AcDbEntity
8
0
100
AcDbCircle
10
193.99250000000001
20
-88.900000000000006
30
0
40
0.87500000000000011
210
0
220
0
230
1
0
CIRCLE
5
325
100
AcDbEntity
8
0
100
AcDbCircle
10
251.14250000000001
20
-88.900000000000006
30
0
40
0.87500000000000011
210
0
220
0
230
1
0
CIRCLE
5
326
100
AcDbEntity
8
0
100
AcDbCircle
10
246.06250000000003
20
-88.900000000000006
30
0
40
1.9939
210
0
220
0
230
1
0
CIRCLE
5
327
100
AcDbEntity
8
0
100
AcDbCircle
10
240.98250000000002
20
-88.900000000000006
30
0
40
0.87500000000000011
210
0
220
0
230
1
0
CIRCLE
5
328
100
AcDbEntity
8
0
100
AcDbCircle
10
242.25250000000003
20
-86.360000000000014
30
0
40
0.73499999999999999
210
0
220
0
230
1
0
CIRCLE
5
329
100
AcDbEntity
8
0
100
AcDbCircle
10
232.0925
20
-88.900000000000006
30
0
40
0.87500000000000011
210
0
220
0
230
1
0
CIRCLE
5
330
100
AcDbEntity
8
0
100
AcDbCircle
10
202.88250000000002
20
-88.900000000000006
30
0
40
0.87500000000000011
210
0
220
0
230
1
0
CIRCLE
5
331
100
AcDbEntity
8
0
100
AcDbCircle
10
204.1525
20
-86.360000000000014
30
0
40
0.73499999999999999
210
0
220
0
230
1
0
CIRCLE
5
332
100
AcDbEntity
8
0
100
AcDbCircle
10
207.96250000000001
20
-88.900000000000006
30
0
40
1.9939
210
0
220
0
230
1
0
CIRCLE
5
333
100
AcDbEntity
8
0
100
AcDbCircle
10
213.04249999999999
20
-88.900000000000006
30
0
40
0.87500000000000011
210
0
220
0
230
1
0
CIRCLE
5
334
100
AcDbEntity
8
0
100
AcDbCircle
10
227.01250000000002
20
-88.900000000000006
30
0
40
1.9939
210
0
220
0
230
1
0
CIRCLE
5
335
100
AcDbEntity
8
0
100
AcDbCircle
10
221.93250000000003
20
-88.900000000000006
30
0
40
0.87500000000000011
210
0
220
0
230
1
0
CIRCLE
5
336
100
AcDbEntity
8
0
100
AcDbCircle
10
223.20250000000001
20
-86.360000000000014
30
0
40
0.73499999999999999
210
0
220
0
230
1
0
CIRCLE
5
337
100
AcDbEntity
8
0
100
AcDbCircle
10
312.42000000000007
20
-88.900000000000006
30
0
40
0.87500000000000011
210
0
220
0
230
1
0
CIRCLE
5
338
100
AcDbEntity
8
0
100
AcDbCircle
10
303.52999999999997
20
-88.900000000000006
30
0
40
0.87500000000000011
210
0
220
0
230
1
0
CIRCLE
5
339
100
AcDbEntity
8
0
100
AcDbCircle
10
313.69
20
-86.360000000000014
30
0
40
0.73499999999999999
210
0
220
0
230
1
0
CIRCLE
5
340
100
AcDbEntity
8
0
100
AcDbCircle
10
293.37
20
-88.900000000000006
30
0
40
0.87500000000000011
210
0
220
0
230
1
0
CIRCLE
5
341
100
AcDbEntity
8
0
100
AcDbCircle
10
298.44999999999999
20
-88.900000000000006
30
0
40
1.9939
210
0
220
0
230
1
0
CIRCLE
5
342
100
AcDbEntity
8
0
100
AcDbCircle
10
294.63999999999999
20
-86.360000000000014
30
0
40
0.73499999999999999
210
0
220
0
230
1
0
CIRCLE
5
343
100
AcDbEntity
8
0
100
AcDbCircle
10
268.44625000000002
20
-86.360000000000014
30
0
40
0.73499999999999999
210
0
220
0
230
1
0
CIRCLE
5
344
100
AcDbEntity
8
0
100
AcDbCircle
10
267.17624999999998
20
-88.900000000000006
30
0
40
0.87500000000000011
210
0
220
0
230
1
0
CIRCLE
5
345
100
AcDbEntity
8
0
100
AcDbCircle
10
277.33625000000006
20
-88.900000000000006
30
0
40
0.87500000000000011
210
0
220
0
230
1
0
CIRCLE
5
346
100
AcDbEntity
8
0
100
AcDbCircle
10
272.25625000000002
20
-88.900000000000006
30
0
40
1.9939
210
0
220
0
230
1
0
CIRCLE
5
347
100
AcDbEntity
8
0
100
AcDbCircle
10
322.58000000000004
20
-88.900000000000006
30
0
40
0.87500000000000011
210
0
220
0
230
1
0
CIRCLE
5
348
100
AcDbEntity
8
0
100
AcDbCircle
10
317.5
20
-88.900000000000006
30
0
40
1.9939
210
0
220
0
230
1
0
CIRCLE
5
349
100
AcDbEntity
8
0
100
AcDbCircle
10
209.23249999999999
20
-93.980000000000018
30
0
40
0.52000000000000002
210
0
220
0
230
1
0
CIRCLE
5
350
100
AcDbEntity
8
0
100
AcDbCircle
10
225.74250000000004
20
-93.980000000000018
30
0
40
0.52000000000000002
210
0
220
0
230
1
0
CIRCLE
5
351
100
AcDbEntity
8
0
100
AcDbCircle
10
244.79250000000002
20
-93.980000000000018
30
0
40
0.52000000000000002
210
0
220
0
230
1
0
CIRCLE
5
352
100
AcDbEntity
8
0
100
AcDbCircle
10
228.2825
20
-93.980000000000018
30
0
40
0.52000000000000002
210
0
220
0
230
1
0
CIRCLE
5
353
100
AcDbEntity
8
0
100
AcDbCircle
10
247.33250000000001
20
-93.980000000000018
30
0
40
0.52000000000000002
210
0
220
0
230
1
0
CIRCLE
5
354
100
AcDbEntity
8
0
100
AcDbCircle
10
297.18000000000006
20
-93.980000000000018
30
0
40
0.52000000000000002
210
0
220
0
230
1
0
CIRCLE
5
355
100
AcDbEntity
8
0
100
AcDbCircle
10
270.98624999999998
20
-93.980000000000018
30
0
40
0.52000000000000002
210
0
220
0
230
1
0
CIRCLE
5
356
100
AcDbEntity
8
0
100
AcDbCircle
10
273.52625
20
-93.980000000000018
30
0
40
0.52000000000000002
210
0
220
0
230
1
0
CIRCLE
5
357
100
AcDbEntity
8
0
100
AcDbCircle
10
152.08250000000001
20
-93.980000000000018
30
0
40
0.52000000000000002
210
0
220
0
230
1
0
CIRCLE
5
358
100
AcDbEntity
8
0
100
AcDbCircle
10
171.13249999999999
20
-93.980000000000018
30
0
40
0.52000000000000002
210
0
220
0
230
1
0
CIRCLE
5
359
100
AcDbEntity
8
0
100
AcDbCircle
10
168.5925
20
-93.980000000000018
30
0
40
0.52000000000000002
210
0
220
0
230
1
0
CIRCLE
5
360
100
AcDbEntity
8
0
100
AcDbCircle
10
190.1825
20
-93.980000000000018
30
0
40
0.52000000000000002
210
0
220
0
230
1
0
CIRCLE
5
361
100
AcDbEntity
8
0
100
AcDbCircle
10
187.64250000000001
20
-93.980000000000018
30
0
40
0.52000000000000002
210
0
220
0
230
1
0
CIRCLE
5
362
100
AcDbEntity
8
0
100
AcDbCircle
10
206.69250000000002
20
-93.980000000000018
30
0
40
0.52000000000000002
210
0
220
0
230
1
0
CIRCLE
5
363
100
AcDbEntity
8
0
100
AcDbCircle
10
299.72000000000003
20
-93.980000000000018
30
0
40
0.52000000000000002
210
0
220
0
230
1
0
CIRCLE
5
364
100
AcDbEntity
8
0
100
AcDbCircle
10
316.23000000000002
20
-93.980000000000018
30
0
40
0.52000000000000002
210
0
220
0
230
1
0
CIRCLE
5
365
100
AcDbEntity
8
0
100
AcDbCircle
10
318.76999999999998
20
-93.980000000000018
30
0
40
0.52000000000000002
210
0
220
0
230
1
0
CIRCLE
5
366
100
AcDbEntity
8
0
100
AcDbCircle
10
149.54249999999999
20
-93.980000000000018
30
0
40
0.52000000000000002
210
0
220
0
230
1
0
CIRCLE
5
367
100
AcDbEntity
8
0
100
AcDbCircle
10
224.63125000000002
20
-107.95000000000002
30
0
40
1.9939
210
0
220
0
230
1
0
CIRCLE
5
368
100
AcDbEntity
8
0
100
AcDbCircle
10
229.71125000000001
20
-107.95000000000002
30
0
40
0.87500000000000011
210
0
220
0
230
1
0
CIRCLE
5
369
100
AcDbEntity
8
0
100
AcDbCircle
10
244.63374999999999
20
-105.41
30
0
40
0.73499999999999999
210
0
220
0
230
1
0
CIRCLE
5
370
100
AcDbEntity
8
0
100
AcDbCircle
10
242.25250000000003
20
-105.41
30
0
40
0.73499999999999999
210
0
220
0
230
1
0
CIRCLE
5
371
100
AcDbEntity
8
0
100
AcDbCircle
10
240.98250000000002
20
-107.95000000000002
30
0
40
0.87500000000000011
210
0
220
0
230
1
0
CIRCLE
5
372
100
AcDbEntity
8
0
100
AcDbCircle
10
275.58999999999997
20
-105.41
30
0
40
0.73499999999999999
210
0
220
0
230
1
0
CIRCLE
5
373
100
AcDbEntity
8
0
100
AcDbCircle
10
274.32000000000005
20
-107.95000000000002
30
0
40
0.87500000000000011
210
0
220
0
230
1
0
CIRCLE
5
374
100
AcDbEntity
8
0
100
AcDbCircle
10
227.17124999999999
20
-102.87
30
0
40
0.73499999999999999
210
0
220
0
230
1
0
CIRCLE
5
375
100
AcDbEntity
8
0
100
AcDbCircle
10
248.60250000000002
20
-102.87
30
0
40
0.73499999999999999
210
0
220
0
230
1
0
CIRCLE
5
376
100
AcDbEntity
8
0
100
AcDbCircle
10
300.99000000000001
20
-102.87
30
0
40
0.73499999999999999
210
0
220
0
230
1
0
CIRCLE
5
377
100
AcDbEntity
8
0
100
AcDbCircle
10
281.94000000000005
20
-102.87
30
0
40
0.73499999999999999
210
0
220
0
230
1
0
CIRCLE
5
378
100
AcDbEntity
8
0
100
AcDbCircle
10
293.37
20
-107.95000000000002
30
0
40
0.87500000000000011
210
0
220
0
230
1
0
CIRCLE
5
379
100
AcDbEntity
8
0
100
AcDbCircle
10
284.48000000000002
20
-107.95000000000002
30
0
40
0.87500000000000011
210
0
220
0
230
1
0
CIRCLE
5
380
100
AcDbEntity
8
0
100
AcDbCircle
10
294.63999999999999
20
-105.41
30
0
40
0.73499999999999999
210
0
220
0
230
1
0
CIRCLE
5
381
100
AcDbEntity
8
0
100
AcDbCircle
10
298.44999999999999
20
-107.95000000000002
30
0
40
1.9939
210
0
220
0
230
1
0
CIRCLE
5
382
100
AcDbEntity
8
0
100
AcDbCircle
10
279.39999999999998
20
-107.95000000000002
30
0
40
1.9939
210
0
220
0
230
1
0
CIRCLE
5
383
100
AcDbEntity
8
0
100
AcDbCircle
10
250.98375000000001
20
-102.87
30
0
40
0.73499999999999999
210
0
220
0
230
1
0
CIRCLE
5
384
100
AcDbEntity
8
0
100
AcDbCircle
10
253.52375000000001
20
-107.95000000000002
30
0
40
0.87500000000000011
210
0
220
0
230
1
0
CIRCLE
5
385
100
AcDbEntity
8
0
100
AcDbCircle
10
203.19365000000002
20
-99.694999999999993
30
0
40
1.9939
210
0
220
0
230
1
0
CIRCLE
5
386
100
AcDbEntity
8
0
100
AcDbCircle
10
219.55125000000004
20
-107.95000000000002
30
0
40
0.87500000000000011
210
0
220
0
230
1
0
CIRCLE
5
387
100
AcDbEntity
8
0
100
AcDbCircle
10
220.82125000000002
20
-105.41
30
0
40
0.73499999999999999
210
0
220
0
230
1
0
CIRCLE
5
388
100
AcDbEntity
8
0
100
AcDbCircle
10
222.25
20
-99.694999999999993
30
0
40
1.9939
210
0
220
0
230
1
0
CIRCLE
5
389
100
AcDbEntity
8
0
100
AcDbCircle
10
317.5
20
-107.95000000000002
30
0
40
1.9939
210
0
220
0
230
1
0
CIRCLE
5
390
100
AcDbEntity
8
0
100
AcDbCircle
10
312.42000000000007
20
-107.95000000000002
30
0
40
0.87500000000000011
210
0
220
0
230
1
0
CIRCLE
5
391
100
AcDbEntity
8
0
100
AcDbCircle
10
313.69
20
-105.41
30
0
40
0.73499999999999999
210
0
220
0
230
1
0
CIRCLE
5
392
100
AcDbEntity
8
0
100
AcDbCircle
10
303.52999999999997
20
-107.95000000000002
30
0
40
0.87500000000000011
210
0
220
0
230
1
0
CIRCLE
5
393
100
AcDbEntity
8
0
100
AcDbCircle
10
320.04000000000008
20
-102.87
30
0
40
0.73499999999999999
210
0
220
0
230
1
0
CIRCLE
5
394
100
AcDbEntity
8
0
100
AcDbCircle
10
170.18000000000001
20
-107.95000000000002
30
0
40
0.87500000000000011
210
0
220
0
230
1
0
CIRCLE
5
395
100
AcDbEntity
8
0
100
AcDbCircle
10
149.38375000000002
20
-105.41
30
0
40
0.73499999999999999
210
0
220
0
230
1
0
CIRCLE
5
396
100
AcDbEntity
8
0
100
AcDbCircle
10
153.19375000000002
20
-107.95000000000002
30
0
40
1.9939
210
0
220
0
230
1
0
CIRCLE
5
397
100
AcDbEntity
8
0
100
AcDbCircle
10
155.73374999999999
20
-102.87
30
0
40
0.73499999999999999
210
0
220
0
230
1
0
CIRCLE
5
398
100
AcDbEntity
8
0
100
AcDbCircle
10
167.63999999999999
20
-102.87
30
0
40
0.73499999999999999
210
0
220
0
230
1
0
CIRCLE
5
399
100
AcDbEntity
8
0
100
AcDbCircle
10
165.10000000000002
20
-107.95000000000002
30
0
40
1.9939
210
0
220
0
230
1
0
CIRCLE
5
400
100
AcDbEntity
8
0
100
AcDbCircle
10
161.29000000000002
20
-105.41
30
0
40
0.73499999999999999
210
0
220
0
230
1
0
CIRCLE
5
401
100
AcDbEntity
8
0
100
AcDbCircle
10
322.58000000000004
20
-107.95000000000002
30
0
40
0.87500000000000011
210
0
220
0
230
1
0
CIRCLE
5
402
100
AcDbEntity
8
0
100
AcDbCircle
10
56.515000000000001
20
-105.41
30
0
40
0.73499999999999999
210
0
220
0
230
1
0
CIRCLE
5
403
100
AcDbEntity
8
0
100
AcDbCircle
10
62.865000000000002
20
-102.87
30
0
40
0.73499999999999999
210
0
220
0
230
1
0
CIRCLE
5
404
100
AcDbEntity
8
0
100
AcDbCircle
10
60.483750000000001
20
-102.87
30
0
40
0.73499999999999999
210
0
220
0
230
1
0
CIRCLE
5
405
100
AcDbEntity
8
0
100
AcDbCircle
10
55.594250000000009
20
-97.155000000000001
30
0
40
1.9939
210
0
220
0
230
1
0
CIRCLE
5
406
100
AcDbEntity
8
0
100
AcDbCircle
10
73.342500000000001
20
-93.980000000000018
30
0
40
0.52000000000000002
210
0
220
0
230
1
0
CIRCLE
5
407
100
AcDbEntity
8
0
100
AcDbCircle
10
55.594250000000009
20
-81.91500000000002
30
0
40
1.524
210
0
220
0
230
1
0
CIRCLE
5
408
100
AcDbEntity
8
0
100
AcDbCircle
10
70.802499999999995
20
-86.360000000000014
30
0
40
0.73499999999999999
210
0
220
0
230
1
0
CIRCLE
5
409
100
AcDbEntity
8
0
100
AcDbCircle
10
69.532499999999999
20
-88.900000000000006
30
0
40
0.87500000000000011
210
0
220
0
230
1
0
CIRCLE
5
410
100
AcDbEntity
8
0
100
AcDbCircle
10
62.865000000000002
20
-45.719999999999999
30
0
40
0.73499999999999999
210
0
220
0
230
1
0
CIRCLE
5
411
100
AcDbEntity
8
0
100
AcDbCircle
10
65.405000000000001
20
-50.799999999999997
30
0
40
0.87500000000000011
210
0
220
0
230
1
0
CIRCLE
5
412
100
AcDbEntity
8
0
100
AcDbCircle
10
60.325000000000003
20
-50.799999999999997
30
0
40
1.9939
210
0
220
0
230
1
0
CIRCLE
5
413
100
AcDbEntity
8
0
100
AcDbCircle
10
61.595000000000006
20
-55.88000000000001
30
0
40
0.52000000000000002
210
0
220
0
230
1
0
CIRCLE
5
414
100
AcDbEntity
8
0
100
AcDbCircle
10
59.055
20
-55.88000000000001
30
0
40
0.52000000000000002
210
0
220
0
230
1
0
CIRCLE
5
415
100
AcDbEntity
8
0
100
AcDbCircle
10
74.295000000000016
20
-50.799999999999997
30
0
40
0.87500000000000011
210
0
220
0
230
1
0
CIRCLE
5
416
100
AcDbEntity
8
0
100
AcDbCircle
10
63.817500000000003
20
-74.930000000000007
30
0
40
0.52000000000000002
210
0
220
0
230
1
0
CIRCLE
5
417
100
AcDbEntity
8
0
100
AcDbCircle
10
66.357500000000002
20
-74.930000000000007
30
0
40
0.52000000000000002
210
0
220
0
230
1
0
CIRCLE
5
418
100
AcDbEntity
8
0
100
AcDbCircle
10
65.087500000000006
20
-69.849999999999994
30
0
40
1.9939
210
0
220
0
230
1
0
CIRCLE
5
419
100
AcDbEntity
8
0
100
AcDbCircle
10
70.167500000000004
20
-69.849999999999994
30
0
40
0.87500000000000011
210
0
220
0
230
1
0
CIRCLE
5
420
100
AcDbEntity
8
0
100
AcDbCircle
10
67.627499999999998
20
-64.77000000000001
30
0
40
0.73499999999999999
210
0
220
0
230
1
0
CIRCLE
5
421
100
AcDbEntity
8
0
100
AcDbCircle
10
60.0075
20
-69.849999999999994
30
0
40
0.87500000000000011
210
0
220
0
230
1
0
CIRCLE
5
422
100
AcDbEntity
8
0
100
AcDbCircle
10
61.277500000000003
20
-67.310000000000002
30
0
40
0.73499999999999999
210
0
220
0
230
1
0
CIRCLE
5
423
100
AcDbEntity
8
0
100
AcDbCircle
10
56.515000000000001
20
-48.260000000000005
30
0
40
0.73499999999999999
210
0
220
0
230
1
0
CIRCLE
5
424
100
AcDbEntity
8
0
100
AcDbCircle
10
86.677499999999995
20
-64.77000000000001
30
0
40
0.73499999999999999
210
0
220
0
230
1
0
CIRCLE
5
425
100
AcDbEntity
8
0
100
AcDbCircle
10
80.327500000000001
20
-67.310000000000002
30
0
40
0.73499999999999999
210
0
220
0
230
1
0
CIRCLE
5
426
100
AcDbEntity
8
0
100
AcDbCircle
10
82.867500000000007
20
-74.930000000000007
30
0
40
0.52000000000000002
210
0
220
0
230
1
0
CIRCLE
5
427
100
AcDbEntity
8
0
100
AcDbCircle
10
84.137500000000003
20
-69.849999999999994
30
0
40
1.9939
210
0
220
0
230
1
0
CIRCLE
5
428
100
AcDbEntity
8
0
100
AcDbCircle
10
79.057500000000005
20
-69.849999999999994
30
0
40
0.87500000000000011
210
0
220
0
230
1
0
CIRCLE
5
429
100
AcDbEntity
8
0
100
AcDbCircle
10
85.407500000000013
20
-74.930000000000007
30
0
40
0.52000000000000002
210
0
220
0
230
1
0
CIRCLE
5
430
100
AcDbEntity
8
0
100
AcDbCircle
10
80.327500000000001
20
-105.41
30
0
40
0.73499999999999999
210
0
220
0
230
1
0
CIRCLE
5
431
100
AcDbEntity
8
0
100
AcDbCircle
10
84.296250000000001
20
-102.87
30
0
40
0.73499999999999999
210
0
220
0
230
1
0
CIRCLE
5
432
100
AcDbEntity
8
0
100
AcDbCircle
10
86.677499999999995
20
-102.87
30
0
40
0.73499999999999999
210
0
220
0
230
1
0
CIRCLE
5
433
100
AcDbEntity
8
0
100
AcDbCircle
10
79.692499999999995
20
-88.900000000000006
30
0
40
0.87500000000000011
210
0
220
0
230
1
0
CIRCLE
5
434
100
AcDbEntity
8
0
100
AcDbCircle
10
80.64500000000001
20
-55.88000000000001
30
0
40
0.52000000000000002
210
0
220
0
230
1
0
CIRCLE
5
435
100
AcDbEntity
8
0
100
AcDbCircle
10
78.105000000000018
20
-55.88000000000001
30
0
40
0.52000000000000002
210
0
220
0
230
1
0
CIRCLE
5
436
100
AcDbEntity
8
0
100
AcDbCircle
10
77.152500000000003
20
-83.819999999999993
30
0
40
0.73499999999999999
210
0
220
0
230
1
0
CIRCLE
5
437
100
AcDbEntity
8
0
100
AcDbCircle
10
74.612499999999997
20
-88.900000000000006
30
0
40
1.9939
210
0
220
0
230
1
0
CIRCLE
5
438
100
AcDbEntity
8
0
100
AcDbCircle
10
75.882499999999993
20
-93.980000000000018
30
0
40
0.52000000000000002
210
0
220
0
230
1
0
CIRCLE
5
439
100
AcDbEntity
8
0
100
AcDbCircle
10
79.375
20
-50.799999999999997
30
0
40
1.9939
210
0
220
0
230
1
0
CIRCLE
5
440
100
AcDbEntity
8
0
100
AcDbCircle
10
84.455000000000013
20
-50.799999999999997
30
0
40
0.87500000000000011
210
0
220
0
230
1
0
CIRCLE
5
441
100
AcDbEntity
8
0
100
AcDbCircle
10
75.564999999999998
20
-48.260000000000005
30
0
40
0.73499999999999999
210
0
220
0
230
1
0
CIRCLE
5
442
100
AcDbEntity
8
0
100
AcDbCircle
10
81.91500000000002
20
-45.719999999999999
30
0
40
0.73499999999999999
210
0
220
0
230
1
0
CIRCLE
5
443
100
AcDbEntity
8
0
100
AcDbCircle
10
107.63249999999999
20
-88.900000000000006
30
0
40
0.87500000000000011
210
0
220
0
230
1
0
CIRCLE
5
444
100
AcDbEntity
8
0
100
AcDbCircle
10
103.19385
20
-99.694999999999993
30
0
40
1.9939
210
0
220
0
230
1
0
CIRCLE
5
445
100
AcDbEntity
8
0
100
AcDbCircle
10
107.95000000000002
20
-99.694999999999993
30
0
40
1.9939
210
0
220
0
230
1
0
CIRCLE
5
446
100
AcDbEntity
8
0
100
AcDbCircle
10
93.662499999999994
20
-88.900000000000006
30
0
40
1.9939
210
0
220
0
230
1
0
CIRCLE
5
447
100
AcDbEntity
8
0
100
AcDbCircle
10
94.932500000000019
20
-93.980000000000018
30
0
40
0.52000000000000002
210
0
220
0
230
1
0
CIRCLE
5
448
100
AcDbEntity
8
0
100
AcDbCircle
10
98.107500000000002
20
-69.849999999999994
30
0
40
0.87500000000000011
210
0
220
0
230
1
0
CIRCLE
5
449
100
AcDbEntity
8
0
100
AcDbCircle
10
96.202500000000001
20
-83.819999999999993
30
0
40
0.73499999999999999
210
0
220
0
230
1
0
CIRCLE
5
450
100
AcDbEntity
8
0
100
AcDbCircle
10
104.45750000000001
20
-74.930000000000007
30
0
40
0.52000000000000002
210
0
220
0
230
1
0
CIRCLE
5
451
100
AcDbEntity
8
0
100
AcDbCircle
10
99.377500000000012
20
-67.310000000000002
30
0
40
0.73499999999999999
210
0
220
0
230
1
0
CIRCLE
5
452
100
AcDbEntity
8
0
100
AcDbCircle
10
105.72750000000001
20
-64.77000000000001
30
0
40
0.73499999999999999
210
0
220
0
230
1
0
CIRCLE
5
453
100
AcDbEntity
8
0
100
AcDbCircle
10
89.217500000000015
20
-69.849999999999994
30
0
40
0.87500000000000011
210
0
220
0
230
1
0
CIRCLE
5
454
100
AcDbEntity
8
0
100
AcDbCircle
10
94.614999999999995
20
-48.260000000000005
30
0
40
0.73499999999999999
210
0
220
0
230
1
0
CIRCLE
5
455
100
AcDbEntity
8
0
100
AcDbCircle
10
100.965
20
-45.719999999999999
30
0
40
0.73499999999999999
210
0
220
0
230
1
0
CIRCLE
5
456
100
AcDbEntity
8
0
100
AcDbCircle
10
68.580000000000013
20
-36.829999999999998
30
0
40
0.52000000000000002
210
0
220
0
230
1
0
CIRCLE
5
457
100
AcDbEntity
8
0
100
AcDbCircle
10
71.120000000000005
20
-36.829999999999998
30
0
40
0.52000000000000002
210
0
220
0
230
1
0
CIRCLE
5
458
100
AcDbEntity
8
0
100
AcDbCircle
10
90.170000000000016
20
-36.829999999999998
30
0
40
0.52000000000000002
210
0
220
0
230
1
0
CIRCLE
5
459
100
AcDbEntity
8
0
100
AcDbCircle
10
147.31999999999999
20
-36.829999999999998
30
0
40
0.52000000000000002
210
0
220
0
230
1
0
CIRCLE
5
460
100
AcDbEntity
8
0
100
AcDbCircle
10
144.78000000000003
20
-36.829999999999998
30
0
40
0.52000000000000002
210
0
220
0
230
1
0
CIRCLE
5
461
100
AcDbEntity
8
0
100
AcDbCircle
10
128.27000000000001
20
-36.829999999999998
30
0
40
0.52000000000000002
210
0
220
0
230
1
0
CIRCLE
5
462
100
AcDbEntity
8
0
100
AcDbCircle
10
125.73
20
-36.829999999999998
30
0
40
0.52000000000000002
210
0
220
0
230
1
0
CIRCLE
5
463
100
AcDbEntity
8
0
100
AcDbCircle
10
132.715
20
-48.260000000000005
30
0
40
0.73499999999999999
210
0
220
0
230
1
0
CIRCLE
5
464
100
AcDbEntity
8
0
100
AcDbCircle
10
131.44499999999999
20
-50.799999999999997
30
0
40
0.87500000000000011
210
0
220
0
230
1
0
CIRCLE
5
465
100
AcDbEntity
8
0
100
AcDbCircle
10
136.52500000000001
20
-50.799999999999997
30
0
40
1.9939
210
0
220
0
230
1
0
CIRCLE
5
466
100
AcDbEntity
8
0
100
AcDbCircle
10
141.60499999999999
20
-50.799999999999997
30
0
40
0.87500000000000011
210
0
220
0
230
1
0
CIRCLE
5
467
100
AcDbEntity
8
0
100
AcDbCircle
10
139.065
20
-45.719999999999999
30
0
40
0.73499999999999999
210
0
220
0
230
1
0
CIRCLE
5
468
100
AcDbEntity
8
0
100
AcDbCircle
10
120.015
20
-45.719999999999999
30
0
40
0.73499999999999999
210
0
220
0
230
1
0
CIRCLE
5
469
100
AcDbEntity
8
0
100
AcDbCircle
10
117.47500000000001
20
-50.799999999999997
30
0
40
1.9939
210
0
220
0
230
1
0
CIRCLE
5
470
100
AcDbEntity
8
0
100
AcDbCircle
10
117.1575
20
-69.849999999999994
30
0
40
0.87500000000000011
210
0
220
0
230
1
0
CIRCLE
5
471
100
AcDbEntity
8
0
100
AcDbCircle
10
118.42750000000001
20
-67.310000000000002
30
0
40
0.73499999999999999
210
0
220
0
230
1
0
CIRCLE
5
472
100
AcDbEntity
8
0
100
AcDbCircle
10
124.7775
20
-64.77000000000001
30
0
40
0.73499999999999999
210
0
220
0
230
1
0
CIRCLE
5
473
100
AcDbEntity
8
0
100
AcDbCircle
10
122.23750000000001
20
-69.849999999999994
30
0
40
1.9939
210
0
220
0
230
1
0
CIRCLE
5
474
100
AcDbEntity
8
0
100
AcDbCircle
10
118.745
20
-55.88000000000001
30
0
40
0.52000000000000002
210
0
220
0
230
1
0
CIRCLE
5
475
100
AcDbEntity
8
0
100
AcDbCircle
10
116.205
20
-55.88000000000001
30
0
40
0.52000000000000002
210
0
220
0
230
1
0
CIRCLE
5
476
100
AcDbEntity
8
0
100
AcDbCircle
10
137.79499999999999
20
-55.88000000000001
30
0
40
0.52000000000000002
210
0
220
0
230
1
0
CIRCLE
5
477
100
AcDbEntity
8
0
100
AcDbCircle
10
135.255
20
-55.88000000000001
30
0
40
0.52000000000000002
210
0
220
0
230
1
0
CIRCLE
5
478
100
AcDbEntity
8
0
100
AcDbCircle
10
127.3175
20
-69.849999999999994
30
0
40
0.87500000000000011
210
0
220
0
230
1
0
CIRCLE
5
479
100
AcDbEntity
8
0
100
AcDbCircle
10
136.20750000000001
20
-69.849999999999994
30
0
40
0.87500000000000011
210
0
220
0
230
1
0
CIRCLE
5
480
100
AcDbEntity
8
0
100
AcDbCircle
10
137.47749999999999
20
-67.310000000000002
30
0
40
0.73499999999999999
210
0
220
0
230
1
0
CIRCLE
5
481
100
AcDbEntity
8
0
100
AcDbCircle
10
122.55500000000001
20
-50.799999999999997
30
0
40
0.87500000000000011
210
0
220
0
230
1
0
CIRCLE
5
482
100
AcDbEntity
8
0
100
AcDbCircle
10
143.82749999999999
20
-64.77000000000001
30
0
40
0.73499999999999999
210
0
220
0
230
1
0
CIRCLE
5
483
100
AcDbEntity
8
0
100
AcDbCircle
10
141.28749999999999
20
-69.849999999999994
30
0
40
1.9939
210
0
220
0
230
1
0
CIRCLE
5
484
100
AcDbEntity
8
0
100
AcDbCircle
10
146.36750000000001
20
-69.849999999999994
30
0
40
0.87500000000000011
210
0
220
0
230
1
0
CIRCLE
5
485
100
AcDbEntity
8
0
100
AcDbCircle
10
108.26750000000001
20
-69.849999999999994
30
0
40
0.87500000000000011
210
0
220
0
230
1
0
CIRCLE
5
486
100
AcDbEntity
8
0
100
AcDbCircle
10
109.22
20
-36.829999999999998
30
0
40
0.52000000000000002
210
0
220
0
230
1
0
CIRCLE
5
487
100
AcDbEntity
8
0
100
AcDbCircle
10
112.395
20
-50.799999999999997
30
0
40
0.87500000000000011
210
0
220
0
230
1
0
CIRCLE
5
488
100
AcDbEntity
8
0
100
AcDbCircle
10
113.66500000000002
20
-48.260000000000005
30
0
40
0.73499999999999999
210
0
220
0
230
1
0
CIRCLE
5
489
100
AcDbEntity
8
0
100
AcDbCircle
10
87.629999999999995
20
-36.829999999999998
30
0
40
0.52000000000000002
210
0
220
0
230
1
0
CIRCLE
5
490
100
AcDbEntity
8
0
100
AcDbCircle
10
98.425000000000011
20
-50.799999999999997
30
0
40
1.9939
210
0
220
0
230
1
0
CIRCLE
5
491
100
AcDbEntity
8
0
100
AcDbCircle
10
93.344999999999999
20
-50.799999999999997
30
0
40
0.87500000000000011
210
0
220
0
230
1
0
CIRCLE
5
492
100
AcDbEntity
8
0
100
AcDbCircle
10
103.18750000000001
20
-69.849999999999994
30
0
40
1.9939
210
0
220
0
230
1
0
CIRCLE
5
493
100
AcDbEntity
8
0
100
AcDbCircle
10
99.694999999999993
20
-55.88000000000001
30
0
40
0.52000000000000002
210
0
220
0
230
1
0
CIRCLE
5
494
100
AcDbEntity
8
0
100
AcDbCircle
10
97.155000000000001
20
-55.88000000000001
30
0
40
0.52000000000000002
210
0
220
0
230
1
0
CIRCLE
5
495
100
AcDbEntity
8
0
100
AcDbCircle
10
103.505
20
-50.799999999999997
30
0
40
0.87500000000000011
210
0
220
0
230
1
0
CIRCLE
5
496
100
AcDbEntity
8
0
100
AcDbCircle
10
106.68000000000001
20
-36.829999999999998
30
0
40
0.52000000000000002
210
0
220
0
230
1
0
CIRCLE
5
497
100
AcDbEntity
8
0
100
AcDbCircle
10
147.0025
20
-86.360000000000014
30
0
40
0.73499999999999999
210
0
220
0
230
1
0
CIRCLE
5
498
100
AcDbEntity
8
0
100
AcDbCircle
10
142.5575
20
-74.930000000000007
30
0
40
0.52000000000000002
210
0
220
0
230
1
0
CIRCLE
5
499
100
AcDbEntity
8
0
100
AcDbCircle
10
140.01750000000001
20
-74.930000000000007
30
0
40
0.52000000000000002
210
0
220
0
230
1
0
CIRCLE
5
500
100
AcDbEntity
8
0
100
AcDbCircle
10
134.30250000000001
20
-83.819999999999993
30
0
40
0.73499999999999999
210
0
220
0
230
1
0
CIRCLE
5
501
100
AcDbEntity
8
0
100
AcDbCircle
10
120.9675
20
-74.930000000000007
30
0
40
0.52000000000000002
210
0
220
0
230
1
0
CIRCLE
5
502
100
AcDbEntity
8
0
100
AcDbCircle
10
123.50749999999999
20
-74.930000000000007
30
0
40
0.52000000000000002
210
0
220
0
230
1
0
CIRCLE
5
503
100
AcDbEntity
8
0
100
AcDbCircle
10
127.95250000000001
20
-86.360000000000014
30
0
40
0.73499999999999999
210
0
220
0
230
1
0
CIRCLE
5
504
100
AcDbEntity
8
0
100
AcDbCircle
10
117.79250000000002
20
-88.900000000000006
30
0
40
0.87500000000000011
210
0
220
0
230
1
0
CIRCLE
5
505
100
AcDbEntity
8
0
100
AcDbCircle
10
89.852500000000006
20
-86.360000000000014
30
0
40
0.73499999999999999
210
0
220
0
230
1
0
CIRCLE
5
506
100
AcDbEntity
8
0
100
AcDbCircle
10
88.582499999999996
20
-88.900000000000006
30
0
40
0.87500000000000011
210
0
220
0
230
1
0
CIRCLE
5
507
100
AcDbEntity
8
0
100
AcDbCircle
10
98.742500000000021
20
-88.900000000000006
30
0
40
0.87500000000000011
210
0
220
0
230
1
0
CIRCLE
5
508
100
AcDbEntity
8
0
100
AcDbCircle
10
112.71250000000002
20
-88.900000000000006
30
0
40
1.9939
210
0
220
0
230
1
0
CIRCLE
5
509
100
AcDbEntity
8
0
100
AcDbCircle
10
108.90250000000002
20
-86.360000000000014
30
0
40
0.73499999999999999
210
0
220
0
230
1
0
CIRCLE
5
510
100
AcDbEntity
8
0
100
AcDbCircle
10
101.9175
20
-74.930000000000007
30
0
40
0.52000000000000002
210
0
220
0
230
1
0
CIRCLE
5
511
100
AcDbEntity
8
0
100
AcDbCircle
10
115.2525
20
-83.819999999999993
30
0
40
0.73499999999999999
210
0
220
0
230
1
0
CIRCLE
5
512
100
AcDbEntity
8
0
100
AcDbCircle
10
145.73249999999999
20
-88.900000000000006
30
0
40
0.87500000000000011
210
0
220
0
230
1
0
CIRCLE
5
513
100
AcDbEntity
8
0
100
AcDbCircle
10
136.8425
20
-88.900000000000006
30
0
40
0.87500000000000011
210
0
220
0
230
1
0
CIRCLE
5
514
100
AcDbEntity
8
0
100
AcDbCircle
10
126.6825
20
-88.900000000000006
30
0
40
0.87500000000000011
210
0
220
0
230
1
0
CIRCLE
5
515
100
AcDbEntity
8
0
100
AcDbCircle
10
131.76249999999999
20
-88.900000000000006
30
0
40
1.9939
210
0
220
0
230
1
0
CIRCLE
5
516
100
AcDbEntity
8
0
100
AcDbCircle
10
130.49250000000001
20
-93.980000000000018
30
0
40
0.52000000000000002
210
0
220
0
230
1
0
CIRCLE
5
517
100
AcDbEntity
8
0
100
AcDbCircle
10
113.98250000000002
20
-93.980000000000018
30
0
40
0.52000000000000002
210
0
220
0
230
1
0
CIRCLE
5
518
100
AcDbEntity
8
0
100
AcDbCircle
10
111.4425
20
-93.980000000000018
30
0
40
0.52000000000000002
210
0
220
0
230
1
0
CIRCLE
5
519
100
AcDbEntity
8
0
100
AcDbCircle
10
92.392499999999998
20
-93.980000000000018
30
0
40
0.52000000000000002
210
0
220
0
230
1
0
CIRCLE
5
520
100
AcDbEntity
8
0
100
AcDbCircle
10
133.0325
20
-93.980000000000018
30
0
40
0.52000000000000002
210
0
220
0
230
1
0
CIRCLE
5
521
100
AcDbEntity
8
0
100
AcDbCircle
10
148.11375000000001
20
-107.95000000000002
30
0
40
0.87500000000000011
210
0
220
0
230
1
0
CIRCLE
5
522
100
AcDbEntity
8
0
100
AcDbCircle
10
146.05000000000001
20
-31.750000000000004
30
0
40
1.9939
210
0
220
0
230
1
0
CIRCLE
5
523
100
AcDbEntity
8
0
100
AcDbCircle
10
140.97000000000003
20
-31.750000000000004
30
0
40
0.87500000000000011
210
0
220
0
230
1
0
CIRCLE
5
524
100
AcDbEntity
8
0
100
AcDbCircle
10
142.24000000000001
20
-29.210000000000001
30
0
40
0.73499999999999999
210
0
220
0
230
1
0
CIRCLE
5
525
100
AcDbEntity
8
0
100
AcDbCircle
10
123.19000000000001
20
-29.210000000000001
30
0
40
0.73499999999999999
210
0
220
0
230
1
0
CIRCLE
5
526
100
AcDbEntity
8
0
100
AcDbCircle
10
121.92
20
-31.750000000000004
30
0
40
0.87500000000000011
210
0
220
0
230
1
0
CIRCLE
5
527
100
AcDbEntity
8
0
100
AcDbCircle
10
127.00000000000001
20
-31.750000000000004
30
0
40
1.9939
210
0
220
0
230
1
0
CIRCLE
5
528
100
AcDbEntity
8
0
100
AcDbCircle
10
132.08000000000001
20
-31.750000000000004
30
0
40
0.87500000000000011
210
0
220
0
230
1
0
CIRCLE
5
529
100
AcDbEntity
8
0
100
AcDbCircle
10
107.95000000000002
20
-31.750000000000004
30
0
40
1.9939
210
0
220
0
230
1
0
CIRCLE
5
530
100
AcDbEntity
8
0
100
AcDbCircle
10
113.03
20
-31.750000000000004
30
0
40
0.87500000000000011
210
0
220
0
230
1
0
CIRCLE
5
531
100
AcDbEntity
8
0
100
AcDbCircle
10
64.77000000000001
20
-31.750000000000004
30
0
40
0.87500000000000011
210
0
220
0
230
1
0
CIRCLE
5
532
100
AcDbEntity
8
0
100
AcDbCircle
10
66.040000000000006
20
-29.210000000000001
30
0
40
0.73499999999999999
210
0
220
0
230
1
0
CIRCLE
5
533
100
AcDbEntity
8
0
100
AcDbCircle
10
69.849999999999994
20
-31.750000000000004
30
0
40
1.9939
210
0
220
0
230
1
0
CIRCLE
5
534
100
AcDbEntity
8
0
100
AcDbCircle
10
83.819999999999993
20
-31.750000000000004
30
0
40
0.87500000000000011
210
0
220
0
230
1
0
CIRCLE
5
535
100
AcDbEntity
8
0
100
AcDbCircle
10
74.930000000000007
20
-31.750000000000004
30
0
40
0.87500000000000011
210
0
220
0
230
1
0
CIRCLE
5
536
100
AcDbEntity
8
0
100
AcDbCircle
10
88.900000000000006
20
-31.750000000000004
30
0
40
1.9939
210
0
220
0
230
1
0
CIRCLE
5
537
100
AcDbEntity
8
0
100
AcDbCircle
10
85.090000000000003
20
-29.210000000000001
30
0
40
0.73499999999999999
210
0
220
0
230
1
0
CIRCLE
5
538
100
AcDbEntity
8
0
100
AcDbCircle
10
93.980000000000018
20
-31.750000000000004
30
0
40
0.87500000000000011
210
0
220
0
230
1
0
CIRCLE
5
539
100
AcDbEntity
8
0
100
AcDbCircle
10
102.87
20
-31.750000000000004
30
0
40
0.87500000000000011
210
0
220
0
230
1
0
CIRCLE
5
540
100
AcDbEntity
8
0
100
AcDbCircle
10
104.14000000000001
20
-29.210000000000001
30
0
40
0.73499999999999999
210
0
220
0
230
1
0
CIRCLE
5
541
100
AcDbEntity
8
0
100
AcDbCircle
10
55.88000000000001
20
-31.750000000000004
30
0
40
0.87500000000000011
210
0
220
0
230
1
0
CIRCLE
5
542
100
AcDbEntity
8
0
100
AcDbCircle
10
89.217500000000015
20
-107.95000000000002
30
0
40
0.87500000000000011
210
0
220
0
230
1
0
CIRCLE
5
543
100
AcDbEntity
8
0
100
AcDbCircle
10
77.946250000000006
20
-105.41
30
0
40
0.73499999999999999
210
0
220
0
230
1
0
CIRCLE
5
544
100
AcDbEntity
8
0
100
AcDbCircle
10
65.405000000000001
20
-107.95000000000002
30
0
40
0.87500000000000011
210
0
220
0
230
1
0
CIRCLE
5
545
100
AcDbEntity
8
0
100
AcDbCircle
10
76.676249999999996
20
-107.95000000000002
30
0
40
0.87500000000000011
210
0
220
0
230
1
0
CIRCLE
5
546
100
AcDbEntity
8
0
100
AcDbCircle
10
61.595000000000006
20
-113.03
30
0
40
0.52000000000000002
210
0
220
0
230
1
0
CIRCLE
5
547
100
AcDbEntity
8
0
100
AcDbCircle
10
80.486249999999998
20
-113.03
30
0
40
0.52000000000000002
210
0
220
0
230
1
0
CIRCLE
5
548
100
AcDbEntity
8
0
100
AcDbCircle
10
107.95000000000002
20
-114.935
30
0
40
1.524
210
0
220
0
230
1
0
CIRCLE
5
549
100
AcDbEntity
8
0
100
AcDbCircle
10
103.19385
20
-114.935
30
0
40
1.524
210
0
220
0
230
1
0
CIRCLE
5
550
100
AcDbEntity
8
0
100
AcDbCircle
10
85.407500000000013
20
-113.03
30
0
40
0.52000000000000002
210
0
220
0
230
1
0
CIRCLE
5
551
100
AcDbEntity
8
0
100
AcDbCircle
10
166.37
20
-113.03
30
0
40
0.52000000000000002
210
0
220
0
230
1
0
CIRCLE
5
552
100
AcDbEntity
8
0
100
AcDbCircle
10
163.83000000000004
20
-113.03
30
0
40
0.52000000000000002
210
0
220
0
230
1
0
CIRCLE
5
553
100
AcDbEntity
8
0
100
AcDbCircle
10
154.46375
20
-113.03
30
0
40
0.52000000000000002
210
0
220
0
230
1
0
CIRCLE
5
554
100
AcDbEntity
8
0
100
AcDbCircle
10
151.92375000000001
20
-113.03
30
0
40
0.52000000000000002
210
0
220
0
230
1
0
CIRCLE
5
555
100
AcDbEntity
8
0
100
AcDbCircle
10
225.90125
20
-113.03
30
0
40
0.52000000000000002
210
0
220
0
230
1
0
CIRCLE
5
556
100
AcDbEntity
8
0
100
AcDbCircle
10
222.25
20
-114.935
30
0
40
1.524
210
0
220
0
230
1
0
CIRCLE
5
557
100
AcDbEntity
8
0
100
AcDbCircle
10
223.36125000000004
20
-113.03
30
0
40
0.52000000000000002
210
0
220
0
230
1
0
CIRCLE
5
558
100
AcDbEntity
8
0
100
AcDbCircle
10
203.19365000000002
20
-114.935
30
0
40
1.524
210
0
220
0
230
1
0
CIRCLE
5
559
100
AcDbEntity
8
0
100
AcDbCircle
10
318.76999999999998
20
-113.03
30
0
40
0.52000000000000002
210
0
220
0
230
1
0
CIRCLE
5
560
100
AcDbEntity
8
0
100
AcDbCircle
10
316.23000000000002
20
-113.03
30
0
40
0.52000000000000002
210
0
220
0
230
1
0
CIRCLE
5
561
100
AcDbEntity
8
0
100
AcDbCircle
10
299.72000000000003
20
-113.03
30
0
40
0.52000000000000002
210
0
220
0
230
1
0
CIRCLE
5
562
100
AcDbEntity
8
0
100
AcDbCircle
10
297.18000000000006
20
-113.03
30
0
40
0.52000000000000002
210
0
220
0
230
1
0
CIRCLE
5
563
100
AcDbEntity
8
0
100
AcDbCircle
10
280.67000000000002
20
-113.03
30
0
40
0.52000000000000002
210
0
220
0
230
1
0
CIRCLE
5
564
100
AcDbEntity
8
0
100
AcDbCircle
10
249.71375
20
-113.03
30
0
40
0.52000000000000002
210
0
220
0
230
1
0
CIRCLE
5
565
100
AcDbEntity
8
0
100
AcDbCircle
10
278.13
20
-113.03
30
0
40
0.52000000000000002
210
0
220
0
230
1
0
CIRCLE
5
566
100
AcDbEntity
8
0
100
AcDbCircle
10
244.79250000000002
20
-113.03
30
0
40
0.52000000000000002
210
0
220
0
230
1
0
CIRCLE
5
567
100
AcDbEntity
8
0
100
AcDbCircle
10
56.673749999999998
20
-113.03
30
0
40
0.52000000000000002
210
0
220
0
230
1
0
CIRCLE
5
568
100
AcDbEntity
8
0
100
AcDbCircle
10
276.98700000000002
20
-24.765000000000001
30
0
40
1.524
210
0
220
0
230
1
0
CIRCLE
5
569
100
AcDbEntity
8
0
100
AcDbCircle
10
262.88999999999999
20
-26.670000000000002
30
0
40
0.73499999999999999
210
0
220
0
230
1
0
CIRCLE
5
570
100
AcDbEntity
8
0
100
AcDbCircle
10
243.84
20
-26.670000000000002
30
0
40
0.73499999999999999
210
0
220
0
230
1
0
CIRCLE
5
571
100
AcDbEntity
8
0
100
AcDbCircle
10
205.74000000000001
20
-26.670000000000002
30
0
40
0.73499999999999999
210
0
220
0
230
1
0
CIRCLE
5
572
100
AcDbEntity
8
0
100
AcDbCircle
10
224.78999999999999
20
-26.670000000000002
30
0
40
0.73499999999999999
210
0
220
0
230
1
0
CIRCLE
5
573
100
AcDbEntity
8
0
100
AcDbCircle
10
186.69
20
-26.670000000000002
30
0
40
0.73499999999999999
210
0
220
0
230
1
0
CIRCLE
5
574
100
AcDbEntity
8
0
100
AcDbCircle
10
91.439999999999998
20
-26.670000000000002
30
0
40
0.73499999999999999
210
0
220
0
230
1
0
CIRCLE
5
575
100
AcDbEntity
8
0
100
AcDbCircle
10
129.54000000000002
20
-26.670000000000002
30
0
40
0.73499999999999999
210
0
220
0
230
1
0
CIRCLE
5
576
100
AcDbEntity
8
0
100
AcDbCircle
10
110.48999999999999
20
-26.670000000000002
30
0
40
0.73499999999999999
210
0
220
0
230
1
0
CIRCLE
5
577
100
AcDbEntity
8
0
100
AcDbCircle
10
167.63999999999999
20
-26.670000000000002
30
0
40
0.73499999999999999
210
0
220
0
230
1
0
CIRCLE
5
578
100
AcDbEntity
8
0
100
AcDbCircle
10
148.59000000000003
20
-26.670000000000002
30
0
40
0.73499999999999999
210
0
220
0
230
1
0
CIRCLE
5
579
100
AcDbEntity
8
0
100
AcDbCircle
10
72.390000000000015
20
-26.670000000000002
30
0
40
0.73499999999999999
210
0
220
0
230
1
0
CIRCLE
5
580
100
AcDbEntity
8
0
100
AcDbCircle
10
291.46499999999997
20
-26.670000000000002
30
0
40
0.73499999999999999
210
0
220
0
230
1
0
CIRCLE
5
581
100
AcDbEntity
8
0
100
AcDbCircle
10
300.863
20
-24.765000000000001
30
0
40
1.524
210
0
220
0
230
1
0
CIRCLE
5
582
100
AcDbEntity
8
0
100
AcDbCircle
10
320.04000000000008
20
-26.670000000000002
30
0
40
0.73499999999999999
210
0
220
0
230
1
0
CIRCLE
5
583
100
AcDbEntity
8
0
100
AcDbCircle
10
30.321250000000003
20
-67.310000000000002
30
0
40
0.73499999999999999
210
0
220
0
230
1
0
CIRCLE
5
584
100
AcDbEntity
8
0
100
AcDbCircle
10
31.718250000000001
20
-81.91500000000002
30
0
40
1.524
210
0
220
0
230
1
0
CIRCLE
5
585
100
AcDbEntity
8
0
100
AcDbCircle
10
32.861249999999998
20
-74.930000000000007
30
0
40
0.52000000000000002
210
0
220
0
230
1
0
CIRCLE
5
586
100
AcDbEntity
8
0
100
AcDbCircle
10
38.893749999999997
20
-69.849999999999994
30
0
40
1.9939
210
0
220
0
230
1
0
CIRCLE
5
587
100
AcDbEntity
8
0
100
AcDbCircle
10
46.196249999999999
20
-83.819999999999993
30
0
40
0.73499999999999999
210
0
220
0
230
1
0
CIRCLE
5
588
100
AcDbEntity
8
0
100
AcDbCircle
10
35.401249999999997
20
-74.930000000000007
30
0
40
0.52000000000000002
210
0
220
0
230
1
0
CIRCLE
5
589
100
AcDbEntity
8
0
100
AcDbCircle
10
37.623750000000001
20
-74.930000000000007
30
0
40
0.52000000000000002
210
0
220
0
230
1
0
CIRCLE
5
590
100
AcDbEntity
8
0
100
AcDbCircle
10
40.16375
20
-74.930000000000007
30
0
40
0.52000000000000002
210
0
220
0
230
1
0
CIRCLE
5
591
100
AcDbEntity
8
0
100
AcDbCircle
10
43.973750000000003
20
-69.849999999999994
30
0
40
0.87500000000000011
210
0
220
0
230
1
0
CIRCLE
5
592
100
AcDbEntity
8
0
100
AcDbCircle
10
41.592500000000001
20
-107.95000000000002
30
0
40
0.87500000000000011
210
0
220
0
230
1
0
CIRCLE
5
593
100
AcDbEntity
8
0
100
AcDbCircle
10
36.671250000000001
20
-102.87
30
0
40
0.73499999999999999
210
0
220
0
230
1
0
CIRCLE
5
594
100
AcDbEntity
8
0
100
AcDbCircle
10
39.052500000000009
20
-102.87
30
0
40
0.73499999999999999
210
0
220
0
230
1
0
CIRCLE
5
595
100
AcDbEntity
8
0
100
AcDbCircle
10
32.702500000000001
20
-105.41
30
0
40
0.73499999999999999
210
0
220
0
230
1
0
CIRCLE
5
596
100
AcDbEntity
8
0
100
AcDbCircle
10
30.321250000000003
20
-105.41
30
0
40
0.73499999999999999
210
0
220
0
230
1
0
CIRCLE
5
597
100
AcDbEntity
8
0
100
AcDbCircle
10
29.05125
20
-107.95000000000002
30
0
40
0.87500000000000011
210
0
220
0
230
1
0
CIRCLE
5
598
100
AcDbEntity
8
0
100
AcDbCircle
10
31.718250000000001
20
-97.155000000000001
30
0
40
1.9939
210
0
220
0
230
1
0
CIRCLE
5
599
100
AcDbEntity
8
0
100
AcDbCircle
10
43.656250000000007
20
-88.900000000000006
30
0
40
1.9939
210
0
220
0
230
1
0
CIRCLE
5
600
100
AcDbEntity
8
0
100
AcDbCircle
10
38.576250000000002
20
-88.900000000000006
30
0
40
0.87500000000000011
210
0
220
0
230
1
0
CIRCLE
5
601
100
AcDbEntity
8
0
100
AcDbCircle
10
39.846249999999998
20
-86.360000000000014
30
0
40
0.73499999999999999
210
0
220
0
230
1
0
CIRCLE
5
602
100
AcDbEntity
8
0
100
AcDbCircle
10
42.386249999999997
20
-93.980000000000018
30
0
40
0.52000000000000002
210
0
220
0
230
1
0
CIRCLE
5
603
100
AcDbEntity
8
0
100
AcDbCircle
10
37.782499999999999
20
-55.88000000000001
30
0
40
0.52000000000000002
210
0
220
0
230
1
0
CIRCLE
5
604
100
AcDbEntity
8
0
100
AcDbCircle
10
36.671250000000001
20
-64.77000000000001
30
0
40
0.73499999999999999
210
0
220
0
230
1
0
CIRCLE
5
605
100
AcDbEntity
8
0
100
AcDbCircle
10
41.433750000000003
20
-64.77000000000001
30
0
40
0.73499999999999999
210
0
220
0
230
1
0
CIRCLE
5
606
100
AcDbEntity
8
0
100
AcDbCircle
10
35.242500000000007
20
-55.88000000000001
30
0
40
0.52000000000000002
210
0
220
0
230
1
0
CIRCLE
5
607
100
AcDbEntity
8
0
100
AcDbCircle
10
37.782499999999999
20
-113.03
30
0
40
0.52000000000000002
210
0
220
0
230
1
0
CIRCLE
5
608
100
AcDbEntity
8
0
100
AcDbCircle
10
32.861249999999998
20
-113.03
30
0
40
0.52000000000000002
210
0
220
0
230
1
0
CIRCLE
5
609
100
AcDbEntity
8
0
100
AcDbCircle
10
44.926250000000003
20
-93.980000000000018
30
0
40
0.52000000000000002
210
0
220
0
230
1
0
CIRCLE
5
610
100
AcDbEntity
8
0
100
AcDbCircle
10
52.863750000000003
20
-107.95000000000002
30
0
40
0.87500000000000011
210
0
220
0
230
1
0
CIRCLE
5
611
100
AcDbEntity
8
0
100
AcDbCircle
10
54.133750000000006
20
-105.41
30
0
40
0.73499999999999999
210
0
220
0
230
1
0
CIRCLE
5
612
100
AcDbEntity
8
0
100
AcDbCircle
10
48.736250000000005
20
-88.900000000000006
30
0
40
0.87500000000000011
210
0
220
0
230
1
0
CIRCLE
5
613
100
AcDbEntity
8
0
100
AcDbCircle
10
52.070000000000007
20
-36.829999999999998
30
0
40
0.52000000000000002
210
0
220
0
230
1
0
CIRCLE
5
614
100
AcDbEntity
8
0
100
AcDbCircle
10
49.530000000000001
20
-36.829999999999998
30
0
40
0.52000000000000002
210
0
220
0
230
1
0
CIRCLE
5
615
100
AcDbEntity
8
0
100
AcDbCircle
10
36.512500000000003
20
-50.799999999999997
30
0
40
1.9939
210
0
220
0
230
1
0
CIRCLE
5
616
100
AcDbEntity
8
0
100
AcDbCircle
10
41.592500000000001
20
-50.799999999999997
30
0
40
0.87500000000000011
210
0
220
0
230
1
0
CIRCLE
5
617
100
AcDbEntity
8
0
100
AcDbCircle
10
39.052500000000009
20
-45.719999999999999
30
0
40
0.73499999999999999
210
0
220
0
230
1
0
CIRCLE
5
618
100
AcDbEntity
8
0
100
AcDbCircle
10
30.48
20
-36.829999999999998
30
0
40
0.52000000000000002
210
0
220
0
230
1
0
CIRCLE
5
619
100
AcDbEntity
8
0
100
AcDbCircle
10
33.020000000000003
20
-36.829999999999998
30
0
40
0.52000000000000002
210
0
220
0
230
1
0
CIRCLE
5
620
100
AcDbEntity
8
0
100
AcDbCircle
10
32.702500000000001
20
-48.260000000000005
30
0
40
0.73499999999999999
210
0
220
0
230
1
0
CIRCLE
5
621
100
AcDbEntity
8
0
100
AcDbCircle
10
31.432500000000001
20
-50.799999999999997
30
0
40
0.87500000000000011
210
0
220
0
230
1
0
CIRCLE
5
622
100
AcDbEntity
8
0
100
AcDbCircle
10
55.244999999999997
20
-50.799999999999997
30
0
40
0.87500000000000011
210
0
220
0
230
1
0
CIRCLE
5
623
100
AcDbEntity
8
0
100
AcDbCircle
10
53.340000000000003
20
-26.670000000000002
30
0
40
0.73499999999999999
210
0
220
0
230
1
0
CIRCLE
5
624
100
AcDbEntity
8
0
100
AcDbCircle
10
50.799999999999997
20
-31.750000000000004
30
0
40
1.9939
210
0
220
0
230
1
0
CIRCLE
5
625
100
AcDbEntity
8
0
100
AcDbCircle
10
45.719999999999999
20
-31.750000000000004
30
0
40
0.87500000000000011
210
0
220
0
230
1
0
CIRCLE
5
626
100
AcDbEntity
8
0
100
AcDbCircle
10
46.990000000000009
20
-29.210000000000001
30
0
40
0.73499999999999999
210
0
220
0
230
1
0
CIRCLE
5
627
100
AcDbEntity
8
0
100
AcDbCircle
10
44.107599999999998
20
-23.977499999999999
30
0
40
0.32500000000000001
210
0
220
0
230
1
0
CIRCLE
5
628
100
AcDbEntity
8
0
100
AcDbCircle
10
38.327599999999997
20
-23.977499999999999
30
0
40
0.32500000000000001
210
0
220
0
230
1
0
CIRCLE
5
629
100
AcDbEntity
8
0
100
AcDbCircle
10
36.829999999999998
20
-31.750000000000004
30
0
40
0.87500000000000011
210
0
220
0
230
1
0
CIRCLE
5
630
100
AcDbEntity
8
0
100
AcDbCircle
10
31.750000000000004
20
-31.750000000000004
30
0
40
1.9939
210
0
220
0
230
1
0
CIRCLE
5
631
100
AcDbEntity
8
0
100
AcDbCircle
10
34.290000000000006
20
-26.670000000000002
30
0
40
0.73499999999999999
210
0
220
0
230
1
0
CIRCLE
5
632
100
AcDbEntity
8
0
100
AcDbCircle
10
28.120000000000005
20
-75.159999999999997
30
0
40
0.5
210
0
220
0
230
1
0
CIRCLE
5
633
100
AcDbEntity
8
0
100
AcDbCircle
10
28.120000000000005
20
-77.700000000000003
30
0
40
0.5
210
0
220
0
230
1
0
CIRCLE
5
634
100
AcDbEntity
8
0
100
AcDbCircle
10
29.05125
20
-69.849999999999994
30
0
40
0.87500000000000011
210
0
220
0
230
1
0
CIRCLE
5
635
100
AcDbEntity
8
0
100
AcDbCircle
10
25.579999999999998
20
-75.159999999999997
30
0
40
0.5
210
0
220
0
230
1
0
CIRCLE
5
636
100
AcDbEntity
8
0
100
AcDbCircle
10
25.579999999999998
20
-77.700000000000003
30
0
40
0.5
210
0
220
0
230
1
0
CIRCLE
5
637
100
AcDbEntity
8
0
100
AcDbCircle
10
27.940000000000005
20
-29.210000000000001
30
0
40
0.73499999999999999
210
0
220
0
230
1
0
CIRCLE
5
638
100
AcDbEntity
8
0
100
AcDbCircle
10
26.670000000000002
20
-31.750000000000004
30
0
40
0.87500000000000011
210
0
220
0
230
1
0
CIRCLE
5
639
100
AcDbEntity
8
0
100
AcDbCircle
10
28.120000000000005
20
-80.239999999999995
30
0
40
0.5
210
0
220
0
230
1
0
CIRCLE
5
640
100
AcDbEntity
8
0
100
AcDbCircle
10
25.579999999999998
20
-80.239999999999995
30
0
40
0.5
210
0
220
0
230
1
0
ENDSEC
0
SECTION
2
OBJECTS
0
DICTIONARY
5
C
100
AcDbDictionary
3
ACAD_GROUP
350
D
3
ACAD_MLINESTYLE
350
17
0
DICTIONARY
5
D
100
AcDbDictionary
0
DICTIONARY
5
1A
330
C
100
AcDbDictionary
0
DICTIONARY
5
17
100
AcDbDictionary
0
ENDSEC
0
EOF
