%TF.GenerationSoftware,KiCad,Pcbnew,(6.0.6)*%
%TF.CreationDate,2022-09-06T18:10:04+07:00*%
%TF.ProjectId,solderCurved,736f6c64-6572-4437-9572-7665642e6b69,rev?*%
%TF.SameCoordinates,Original*%
%TF.FileFunction,Soldermask,Top*%
%TF.FilePolarity,Negative*%
%FSLAX46Y46*%
G04 Gerber Fmt 4.6, Leading zero omitted, Abs format (unit mm)*
G04 Created by KiCad (PCBNEW (6.0.6)) date 2022-09-06 18:10:04*
%MOMM*%
%LPD*%
G01*
G04 APERTURE LIST*
%ADD10C,1.750000*%
%ADD11C,3.987800*%
%ADD12C,3.048000*%
%ADD13C,1.905000*%
%ADD14C,1.000000*%
%ADD15O,1.000000X1.000000*%
%ADD16O,0.700000X1.800000*%
%ADD17C,0.500000*%
%ADD18R,1.700000X1.700000*%
%ADD19O,1.700000X1.700000*%
%ADD20C,0.650000*%
%ADD21R,0.600000X1.450000*%
%ADD22R,0.300000X1.450000*%
%ADD23O,1.000000X2.100000*%
%ADD24O,1.000000X1.600000*%
%ADD25C,0.900000*%
G04 APERTURE END LIST*
D10*
%TO.C,MX1*%
X28892500Y-23812500D03*
X18732500Y-23812500D03*
D11*
X23812500Y-23812500D03*
%TD*%
D10*
%TO.C,MX9*%
X42545000Y-23812500D03*
D11*
X47625000Y-23812500D03*
D10*
X52705000Y-23812500D03*
%TD*%
D11*
%TO.C,MX15*%
X66675000Y-23812500D03*
D10*
X61595000Y-23812500D03*
X71755000Y-23812500D03*
%TD*%
D11*
%TO.C,MX21*%
X85725000Y-23812500D03*
D10*
X80645000Y-23812500D03*
X90805000Y-23812500D03*
%TD*%
%TO.C,MX26*%
X99695000Y-23812500D03*
X109855000Y-23812500D03*
D11*
X104775000Y-23812500D03*
%TD*%
%TO.C,MX31*%
X128587500Y-23812500D03*
D10*
X133667500Y-23812500D03*
X123507500Y-23812500D03*
%TD*%
%TO.C,MX36*%
X152717500Y-23812500D03*
X142557500Y-23812500D03*
D11*
X147637500Y-23812500D03*
%TD*%
D10*
%TO.C,MX41*%
X161607500Y-23812500D03*
D11*
X166687500Y-23812500D03*
D10*
X171767500Y-23812500D03*
%TD*%
%TO.C,MX47*%
X190817500Y-23812500D03*
D11*
X185737500Y-23812500D03*
D10*
X180657500Y-23812500D03*
%TD*%
%TO.C,MX52*%
X204470000Y-23812500D03*
X214630000Y-23812500D03*
D11*
X209550000Y-23812500D03*
%TD*%
D10*
%TO.C,MX57*%
X223520000Y-23812500D03*
X233680000Y-23812500D03*
D11*
X228600000Y-23812500D03*
%TD*%
%TO.C,MX62*%
X247650000Y-23812500D03*
D10*
X252730000Y-23812500D03*
X242570000Y-23812500D03*
%TD*%
%TO.C,MX67*%
X261620000Y-23812500D03*
X271780000Y-23812500D03*
D11*
X266700000Y-23812500D03*
%TD*%
%TO.C,MX73*%
X290512500Y-23812500D03*
D10*
X285432500Y-23812500D03*
X295592500Y-23812500D03*
%TD*%
%TO.C,MX84*%
X309245000Y-23812500D03*
X319405000Y-23812500D03*
D11*
X314325000Y-23812500D03*
%TD*%
D10*
%TO.C,MX88*%
X328295000Y-23812500D03*
D11*
X333375000Y-23812500D03*
D10*
X338455000Y-23812500D03*
%TD*%
D11*
%TO.C,MX93*%
X352425000Y-23812500D03*
D10*
X357505000Y-23812500D03*
X347345000Y-23812500D03*
%TD*%
%TO.C,MX2*%
X18732500Y-47625000D03*
D11*
X23812500Y-47625000D03*
D10*
X28892500Y-47625000D03*
%TD*%
%TO.C,MX10*%
X37782500Y-47625000D03*
X47942500Y-47625000D03*
D11*
X42862500Y-47625000D03*
%TD*%
%TO.C,MX16*%
X61912500Y-47625000D03*
D10*
X56832500Y-47625000D03*
X66992500Y-47625000D03*
%TD*%
%TO.C,MX22*%
X86042500Y-47625000D03*
X75882500Y-47625000D03*
D11*
X80962500Y-47625000D03*
%TD*%
%TO.C,MX27*%
X100012500Y-47625000D03*
D10*
X105092500Y-47625000D03*
X94932500Y-47625000D03*
%TD*%
%TO.C,MX32*%
X113982500Y-47625000D03*
X124142500Y-47625000D03*
D11*
X119062500Y-47625000D03*
%TD*%
D10*
%TO.C,MX37*%
X143192500Y-47625000D03*
D11*
X138112500Y-47625000D03*
D10*
X133032500Y-47625000D03*
%TD*%
%TO.C,MX42*%
X162242500Y-47625000D03*
X152082500Y-47625000D03*
D11*
X157162500Y-47625000D03*
%TD*%
D10*
%TO.C,MX48*%
X181292500Y-47625000D03*
X171132500Y-47625000D03*
D11*
X176212500Y-47625000D03*
%TD*%
D10*
%TO.C,MX53*%
X200342500Y-47625000D03*
D11*
X195262500Y-47625000D03*
D10*
X190182500Y-47625000D03*
%TD*%
%TO.C,MX58*%
X219392500Y-47625000D03*
D11*
X214312500Y-47625000D03*
D10*
X209232500Y-47625000D03*
%TD*%
D11*
%TO.C,MX63*%
X233362500Y-47625000D03*
D10*
X238442500Y-47625000D03*
X228282500Y-47625000D03*
%TD*%
%TO.C,MX68*%
X247332500Y-47625000D03*
X257492500Y-47625000D03*
D11*
X252412500Y-47625000D03*
%TD*%
D10*
%TO.C,MX74*%
X276542500Y-47625000D03*
X266382500Y-47625000D03*
D11*
X271462500Y-47625000D03*
%TD*%
%TO.C,MX82*%
X290512500Y-47625000D03*
D10*
X285432500Y-47625000D03*
X295592500Y-47625000D03*
%TD*%
D11*
%TO.C,MX85*%
X314325000Y-47625000D03*
D10*
X309245000Y-47625000D03*
X319405000Y-47625000D03*
%TD*%
%TO.C,MX89*%
X328295000Y-47625000D03*
D11*
X333375000Y-47625000D03*
D10*
X338455000Y-47625000D03*
%TD*%
D11*
%TO.C,MX94*%
X352425000Y-47625000D03*
D10*
X357505000Y-47625000D03*
X347345000Y-47625000D03*
%TD*%
%TO.C,MX3*%
X33655000Y-66675000D03*
D11*
X28575000Y-66675000D03*
D10*
X23495000Y-66675000D03*
%TD*%
%TO.C,MX11*%
X57467500Y-66675000D03*
X47307500Y-66675000D03*
D11*
X52387500Y-66675000D03*
%TD*%
%TO.C,MX17*%
X71437500Y-66675000D03*
D10*
X76517500Y-66675000D03*
X66357500Y-66675000D03*
%TD*%
D11*
%TO.C,MX23*%
X90487500Y-66675000D03*
D10*
X85407500Y-66675000D03*
X95567500Y-66675000D03*
%TD*%
%TO.C,MX28*%
X114617500Y-66675000D03*
D11*
X109537500Y-66675000D03*
D10*
X104457500Y-66675000D03*
%TD*%
%TO.C,MX33*%
X123507500Y-66675000D03*
D11*
X128587500Y-66675000D03*
D10*
X133667500Y-66675000D03*
%TD*%
D11*
%TO.C,MX38*%
X147637500Y-66675000D03*
D10*
X152717500Y-66675000D03*
X142557500Y-66675000D03*
%TD*%
D11*
%TO.C,MX43*%
X166687500Y-66675000D03*
D10*
X161607500Y-66675000D03*
X171767500Y-66675000D03*
%TD*%
%TO.C,MX49*%
X180657500Y-66675000D03*
D11*
X185737500Y-66675000D03*
D10*
X190817500Y-66675000D03*
%TD*%
%TO.C,MX54*%
X199707500Y-66675000D03*
X209867500Y-66675000D03*
D11*
X204787500Y-66675000D03*
%TD*%
%TO.C,MX59*%
X223837500Y-66675000D03*
D10*
X218757500Y-66675000D03*
X228917500Y-66675000D03*
%TD*%
%TO.C,MX64*%
X237807500Y-66675000D03*
X247967500Y-66675000D03*
D11*
X242887500Y-66675000D03*
%TD*%
D10*
%TO.C,MX69*%
X256857500Y-66675000D03*
D11*
X261937500Y-66675000D03*
D10*
X267017500Y-66675000D03*
%TD*%
%TO.C,MX8*%
X25876250Y-85725000D03*
X36036250Y-85725000D03*
D11*
X30956250Y-85725000D03*
%TD*%
D10*
%TO.C,MX12*%
X52070000Y-85725000D03*
D11*
X57150000Y-85725000D03*
D10*
X62230000Y-85725000D03*
%TD*%
%TO.C,MX18*%
X71120000Y-85725000D03*
D11*
X76200000Y-85725000D03*
D10*
X81280000Y-85725000D03*
%TD*%
%TO.C,MX24*%
X100330000Y-85725000D03*
D11*
X95250000Y-85725000D03*
D10*
X90170000Y-85725000D03*
%TD*%
%TO.C,MX29*%
X109220000Y-85725000D03*
X119380000Y-85725000D03*
D11*
X114300000Y-85725000D03*
%TD*%
%TO.C,MX34*%
X133350000Y-85725000D03*
D10*
X128270000Y-85725000D03*
X138430000Y-85725000D03*
%TD*%
%TO.C,MX39*%
X157480000Y-85725000D03*
X147320000Y-85725000D03*
D11*
X152400000Y-85725000D03*
%TD*%
D10*
%TO.C,MX44*%
X176530000Y-85725000D03*
X166370000Y-85725000D03*
D11*
X171450000Y-85725000D03*
%TD*%
D10*
%TO.C,MX50*%
X195580000Y-85725000D03*
D11*
X190500000Y-85725000D03*
D10*
X185420000Y-85725000D03*
%TD*%
%TO.C,MX55*%
X214630000Y-85725000D03*
D11*
X209550000Y-85725000D03*
D10*
X204470000Y-85725000D03*
%TD*%
%TO.C,MX60*%
X223520000Y-85725000D03*
X233680000Y-85725000D03*
D11*
X228600000Y-85725000D03*
%TD*%
D10*
%TO.C,MX65*%
X252730000Y-85725000D03*
D11*
X247650000Y-85725000D03*
D10*
X242570000Y-85725000D03*
%TD*%
%TO.C,MX5*%
X21113750Y-104775000D03*
D11*
X26193750Y-104775000D03*
D10*
X31273750Y-104775000D03*
%TD*%
%TO.C,MX13*%
X42545000Y-104775000D03*
D11*
X47625000Y-104775000D03*
D10*
X52705000Y-104775000D03*
%TD*%
D11*
%TO.C,MX19*%
X66675000Y-104775000D03*
D10*
X61595000Y-104775000D03*
X71755000Y-104775000D03*
%TD*%
D11*
%TO.C,MX25*%
X85725000Y-104775000D03*
D10*
X90805000Y-104775000D03*
X80645000Y-104775000D03*
%TD*%
D11*
%TO.C,MX30*%
X104775000Y-104775000D03*
D10*
X109855000Y-104775000D03*
X99695000Y-104775000D03*
%TD*%
%TO.C,MX35*%
X118745000Y-104775000D03*
D11*
X123825000Y-104775000D03*
D10*
X128905000Y-104775000D03*
%TD*%
D11*
%TO.C,MX40*%
X142875000Y-104775000D03*
D10*
X147955000Y-104775000D03*
X137795000Y-104775000D03*
%TD*%
D11*
%TO.C,MX45*%
X161925000Y-104775000D03*
D10*
X156845000Y-104775000D03*
X167005000Y-104775000D03*
%TD*%
%TO.C,MX51*%
X175895000Y-104775000D03*
D11*
X180975000Y-104775000D03*
D10*
X186055000Y-104775000D03*
%TD*%
%TO.C,MX56*%
X205105000Y-104775000D03*
X194945000Y-104775000D03*
D11*
X200025000Y-104775000D03*
%TD*%
%TO.C,MX61*%
X219075000Y-104775000D03*
D10*
X224155000Y-104775000D03*
X213995000Y-104775000D03*
%TD*%
%TO.C,MX66*%
X243205000Y-104775000D03*
D11*
X238125000Y-104775000D03*
D10*
X233045000Y-104775000D03*
%TD*%
%TO.C,MX70*%
X269398750Y-104775000D03*
D11*
X264318750Y-104775000D03*
D10*
X259238750Y-104775000D03*
%TD*%
%TO.C,MX78*%
X295592500Y-104775000D03*
D11*
X290512500Y-104775000D03*
D10*
X285432500Y-104775000D03*
%TD*%
%TO.C,MX91*%
X328295000Y-104775000D03*
D11*
X333375000Y-104775000D03*
D10*
X338455000Y-104775000D03*
%TD*%
%TO.C,MX7*%
X23495000Y-123825000D03*
X33655000Y-123825000D03*
D11*
X28575000Y-123825000D03*
%TD*%
D10*
%TO.C,MX14*%
X47307500Y-123825000D03*
X57467500Y-123825000D03*
D11*
X52387500Y-123825000D03*
%TD*%
D12*
%TO.C,MX46*%
X100012500Y-130810000D03*
D10*
X152082500Y-123825000D03*
D11*
X157162500Y-123825000D03*
D10*
X162242500Y-123825000D03*
D12*
X214312500Y-130810000D03*
D11*
X100012500Y-115570000D03*
X214312500Y-115570000D03*
%TD*%
D10*
%TO.C,MX87*%
X319405000Y-123825000D03*
D11*
X314325000Y-123825000D03*
D10*
X309245000Y-123825000D03*
%TD*%
%TO.C,MX92*%
X328295000Y-123825000D03*
X338455000Y-123825000D03*
D11*
X333375000Y-123825000D03*
%TD*%
D10*
%TO.C,MX96*%
X357505000Y-123825000D03*
X347345000Y-123825000D03*
D11*
X352425000Y-123825000D03*
%TD*%
D10*
%TO.C,MX20*%
X71120000Y-123825000D03*
X81280000Y-123825000D03*
D11*
X76200000Y-123825000D03*
%TD*%
D10*
%TO.C,MX72*%
X243205000Y-123825000D03*
X233045000Y-123825000D03*
D11*
X238125000Y-123825000D03*
%TD*%
%TO.C,MX79*%
X261937500Y-123825000D03*
D10*
X256857500Y-123825000D03*
X267017500Y-123825000D03*
%TD*%
%TO.C,MX83*%
X290830000Y-123825000D03*
X280670000Y-123825000D03*
D11*
X285750000Y-123825000D03*
%TD*%
D10*
%TO.C,MX77*%
X283686250Y-85725000D03*
D12*
X290512500Y-92710000D03*
X266700000Y-92710000D03*
D11*
X290512500Y-77470000D03*
D10*
X273526250Y-85725000D03*
D11*
X266700000Y-77470000D03*
X278606250Y-85725000D03*
%TD*%
%TO.C,MX86*%
X314325000Y-66675000D03*
D10*
X319405000Y-66675000D03*
X309245000Y-66675000D03*
%TD*%
%TO.C,MX90*%
X328295000Y-66675000D03*
D11*
X333375000Y-66675000D03*
D10*
X338455000Y-66675000D03*
%TD*%
%TO.C,MX95*%
X347345000Y-66675000D03*
X357505000Y-66675000D03*
D11*
X352425000Y-66675000D03*
%TD*%
D13*
%TO.C,LED2*%
X27463772Y-90805072D03*
X24923772Y-90805072D03*
%TD*%
%TO.C,LED3*%
X29686250Y-90805000D03*
X32226250Y-90805000D03*
%TD*%
D10*
%TO.C,MX80*%
X280670000Y-66675000D03*
D11*
X285750000Y-66675000D03*
D10*
X290830000Y-66675000D03*
%TD*%
D12*
%TO.C,MX75*%
X269081250Y-40640000D03*
D10*
X286067500Y-47625000D03*
D11*
X292893750Y-55880000D03*
D10*
X275907500Y-47625000D03*
D11*
X280987500Y-47625000D03*
X269081250Y-55880000D03*
D12*
X292893750Y-40640000D03*
%TD*%
D11*
%TO.C,MX71*%
X261937500Y-113030000D03*
D10*
X268763750Y-104775000D03*
D12*
X261937500Y-97790000D03*
D11*
X285750000Y-113030000D03*
X273843750Y-104775000D03*
D12*
X285750000Y-97790000D03*
D10*
X278923750Y-104775000D03*
%TD*%
%TO.C,MX6*%
X40798750Y-104775000D03*
X30638750Y-104775000D03*
D12*
X47625000Y-97790000D03*
D11*
X47625000Y-113030000D03*
X23812500Y-113030000D03*
D12*
X23812500Y-97790000D03*
D11*
X35718750Y-104775000D03*
%TD*%
%TO.C,MX4*%
X26193772Y-85725072D03*
D10*
X31273772Y-85725072D03*
X21113772Y-85725072D03*
%TD*%
D12*
%TO.C,MX81*%
X295116492Y-88138064D03*
D11*
X288131492Y-76200064D03*
X279876492Y-88138064D03*
D12*
X295116492Y-64262064D03*
D10*
X288131492Y-81280064D03*
X288131492Y-71120064D03*
D11*
X279876492Y-64262064D03*
%TD*%
%TO.C,MX76*%
X266700224Y-85725072D03*
D10*
X261620224Y-85725072D03*
X271780224Y-85725072D03*
%TD*%
D13*
%TO.C,LED1*%
X332105000Y-28892500D03*
X334645000Y-28892500D03*
%TD*%
D14*
%TO.C,J5*%
X300514218Y-44662510D03*
D15*
X301784218Y-44662510D03*
X303054218Y-44662510D03*
X304324218Y-44662510D03*
%TD*%
D10*
%TO.C,MX105*%
X228282500Y-23812500D03*
X238442500Y-23812500D03*
D11*
X233362500Y-23812500D03*
%TD*%
%TO.C,MX107*%
X271462500Y-23812500D03*
D10*
X276542500Y-23812500D03*
X266382500Y-23812500D03*
%TD*%
D11*
%TO.C,MX106*%
X252412500Y-23812500D03*
D10*
X257492500Y-23812500D03*
X247332500Y-23812500D03*
%TD*%
%TO.C,MX104*%
X199707500Y-23812500D03*
X209867500Y-23812500D03*
D11*
X204787500Y-23812500D03*
%TD*%
D10*
%TO.C,MX99*%
X105092500Y-23812500D03*
X94932500Y-23812500D03*
D11*
X100012500Y-23812500D03*
%TD*%
D10*
%TO.C,MX100*%
X124142500Y-23812500D03*
D11*
X119062500Y-23812500D03*
D10*
X113982500Y-23812500D03*
%TD*%
D11*
%TO.C,MX98*%
X80962500Y-23812500D03*
D10*
X86042500Y-23812500D03*
X75882500Y-23812500D03*
%TD*%
D11*
%TO.C,MX97*%
X61912500Y-23812500D03*
D10*
X66992500Y-23812500D03*
X56832500Y-23812500D03*
%TD*%
D16*
%TO.C,J8*%
X299919218Y-18812510D03*
D17*
X299919218Y-19412510D03*
X299919218Y-18212510D03*
D16*
X300919218Y-18812510D03*
D17*
X300919218Y-18212510D03*
X300919218Y-19412510D03*
X301919218Y-18212510D03*
D16*
X301919218Y-18812510D03*
D17*
X301919218Y-19412510D03*
D16*
X302919218Y-18812510D03*
D17*
X302919218Y-19412510D03*
X302919218Y-18212510D03*
X303919218Y-18212510D03*
X303919218Y-19412510D03*
D16*
X303919218Y-18812510D03*
D17*
X304919218Y-19412510D03*
D16*
X304919218Y-18812510D03*
D17*
X304919218Y-18212510D03*
%TD*%
D10*
%TO.C,MX119*%
X288448724Y-104775048D03*
X278288724Y-104775048D03*
D11*
X283368724Y-104775048D03*
%TD*%
%TO.C,MX120*%
X257174952Y-104775048D03*
D10*
X252094952Y-104775048D03*
X262254952Y-104775048D03*
%TD*%
%TO.C,MX101*%
X21113772Y-123825072D03*
D11*
X26193772Y-123825072D03*
D10*
X31273772Y-123825072D03*
%TD*%
D11*
%TO.C,MX102*%
X50006272Y-123825072D03*
D10*
X55086272Y-123825072D03*
X44926272Y-123825072D03*
%TD*%
%TO.C,MX103*%
X68738772Y-123825072D03*
D11*
X73818772Y-123825072D03*
D10*
X78898772Y-123825072D03*
%TD*%
D11*
%TO.C,MX108*%
X145256272Y-123825072D03*
D10*
X140176272Y-123825072D03*
D12*
X95256372Y-130810072D03*
D11*
X195256172Y-115570072D03*
D12*
X195256172Y-130810072D03*
D10*
X150336272Y-123825072D03*
D11*
X95256372Y-115570072D03*
%TD*%
D10*
%TO.C,MX109*%
X135413772Y-123825072D03*
D11*
X140493772Y-123825072D03*
D10*
X145573772Y-123825072D03*
%TD*%
D12*
%TO.C,MX110*%
X100012522Y-130810072D03*
D11*
X111918772Y-123825072D03*
X123825022Y-115570072D03*
D10*
X116998772Y-123825072D03*
D11*
X100012522Y-115570072D03*
D10*
X106838772Y-123825072D03*
D12*
X123825022Y-130810072D03*
%TD*%
D10*
%TO.C,MX111*%
X102076272Y-123825072D03*
D11*
X95250022Y-115570072D03*
X119062522Y-115570072D03*
D10*
X112236272Y-123825072D03*
D11*
X107156272Y-123825072D03*
D12*
X95250022Y-130810072D03*
X119062522Y-130810072D03*
%TD*%
D10*
%TO.C,MX112*%
X144938772Y-123825072D03*
X155098772Y-123825072D03*
D11*
X150018772Y-123825072D03*
%TD*%
D12*
%TO.C,MX113*%
X171450022Y-130810072D03*
D10*
X178276272Y-123825072D03*
D12*
X195262522Y-130810072D03*
D11*
X171450022Y-115570072D03*
X183356272Y-123825072D03*
X195262522Y-115570072D03*
D10*
X188436272Y-123825072D03*
%TD*%
D11*
%TO.C,MX114*%
X166687522Y-115570072D03*
D12*
X166687522Y-130810072D03*
D11*
X178593772Y-123825072D03*
D12*
X190500022Y-130810072D03*
D10*
X173513772Y-123825072D03*
D11*
X190500022Y-115570072D03*
D10*
X183673772Y-123825072D03*
%TD*%
D11*
%TO.C,MX115*%
X216693772Y-123825072D03*
D10*
X221773772Y-123825072D03*
X211613772Y-123825072D03*
%TD*%
%TO.C,MX116*%
X235426272Y-123825072D03*
D11*
X240506272Y-123825072D03*
D10*
X245586272Y-123825072D03*
%TD*%
%TO.C,MX117*%
X259238772Y-123825072D03*
D11*
X264318772Y-123825072D03*
D10*
X269398772Y-123825072D03*
%TD*%
D11*
%TO.C,MX118*%
X288131272Y-123825072D03*
D10*
X293211272Y-123825072D03*
X283051272Y-123825072D03*
%TD*%
D18*
%TO.C,J4*%
X345400000Y-88265000D03*
D19*
X345400000Y-85725000D03*
X345400000Y-83185000D03*
%TD*%
D18*
%TO.C,J10*%
X327025000Y-77470000D03*
D19*
X329565000Y-77470000D03*
X332105000Y-77470000D03*
X334645000Y-77470000D03*
X337185000Y-77470000D03*
X339725000Y-77470000D03*
%TD*%
D20*
%TO.C,USB2*%
X299545995Y-13459598D03*
X305325995Y-13459598D03*
D21*
X305660995Y-14904598D03*
X304885995Y-14904598D03*
D22*
X304185995Y-14904598D03*
X303685995Y-14904598D03*
X303185995Y-14904598D03*
X302685995Y-14904598D03*
X302185995Y-14904598D03*
X301685995Y-14904598D03*
X301185995Y-14904598D03*
X300685995Y-14904598D03*
D21*
X299985995Y-14904598D03*
X299210995Y-14904598D03*
D23*
X306755995Y-13989598D03*
D24*
X306755995Y-9809598D03*
X298115995Y-9809598D03*
D23*
X298115995Y-13989598D03*
%TD*%
D20*
%TO.C,USB1*%
X299545995Y-13459598D03*
X305325995Y-13459598D03*
D24*
X298115995Y-9809598D03*
D23*
X306755995Y-13989598D03*
X298115995Y-13989598D03*
D24*
X306755995Y-9809598D03*
%TD*%
D25*
%TO.C,SW2*%
X342005000Y-93717500D03*
X339005000Y-93717500D03*
%TD*%
M02*
