%TF.GenerationSoftware,KiCad,Pcbnew,(6.0.6)*%
%TF.CreationDate,2022-09-06T18:10:04+07:00*%
%TF.ProjectId,solderCurved,736f6c64-6572-4437-9572-7665642e6b69,rev?*%
%TF.SameCoordinates,Original*%
%TF.FileFunction,Legend,Top*%
%TF.FilePolarity,Positive*%
%FSLAX46Y46*%
G04 Gerber Fmt 4.6, Leading zero omitted, Abs format (unit mm)*
G04 Created by KiCad (PCBNEW (6.0.6)) date 2022-09-06 18:10:04*
%MOMM*%
%LPD*%
G01*
G04 APERTURE LIST*
%ADD10C,2.000000*%
%ADD11C,0.300000*%
%ADD12C,0.120000*%
G04 APERTURE END LIST*
D10*
X298919218Y-19312490D02*
G75*
G03*
X298919218Y-18312510I-18J499990D01*
G01*
X275380263Y-16197919D02*
G75*
G03*
X274387166Y-15315500I-993063J-117581D01*
G01*
X298919218Y-19312510D02*
X297338950Y-19312510D01*
X297619190Y-17812510D02*
G75*
G03*
X298119218Y-18312510I500010J10D01*
G01*
X298119218Y-18312510D02*
X298919218Y-18312510D01*
X296339000Y-16315500D02*
G75*
G03*
X295338950Y-15315500I-1000000J0D01*
G01*
X296338950Y-18312510D02*
X296338950Y-16315500D01*
X295338950Y-15315500D02*
X282828210Y-15315500D01*
X282828210Y-15315510D02*
G75*
G03*
X281835146Y-16197924I-10J-999990D01*
G01*
X275380252Y-16197920D02*
G75*
G03*
X281835147Y-16197925I3227448J382120D01*
G01*
X296338890Y-18312510D02*
G75*
G03*
X297338950Y-19312510I1000010J10D01*
G01*
X238666678Y-15315499D02*
X223296651Y-15315500D01*
X274387167Y-15315499D02*
X249491969Y-15315500D01*
X249491969Y-15315469D02*
G75*
G03*
X248498905Y-16197924I31J-1000031D01*
G01*
X245271448Y-19065801D02*
X242887200Y-19065801D01*
X239659763Y-16197920D02*
G75*
G03*
X238666677Y-15315500I-993063J-117580D01*
G01*
X245271448Y-19065848D02*
G75*
G03*
X248498906Y-16197924I-48J3250048D01*
G01*
X239659741Y-16197923D02*
G75*
G03*
X242887199Y-19065801I3227459J382123D01*
G01*
X116689946Y-18065568D02*
G75*
G03*
X119730523Y-15962614I-46J3249668D01*
G01*
X107313909Y-16161755D02*
G75*
G03*
X106325845Y-15315501I-988109J-153745D01*
G01*
X201866669Y-15315469D02*
G75*
G03*
X200873605Y-16197924I31J-1000031D01*
G01*
X136558659Y-15315459D02*
G75*
G03*
X135570196Y-16164037I41J-1000041D01*
G01*
X223296651Y-15315451D02*
G75*
G03*
X222303587Y-16197924I49J-1000049D01*
G01*
X116689946Y-18065500D02*
X109537197Y-18065802D01*
X191041378Y-15315499D02*
X136558659Y-15315500D01*
X214855609Y-15315500D02*
X201866669Y-15315500D01*
X120666189Y-15315490D02*
G75*
G03*
X119730523Y-15962614I11J-1000010D01*
G01*
X197646148Y-19065848D02*
G75*
G03*
X200873606Y-16197924I-48J3250048D01*
G01*
X192034463Y-16197920D02*
G75*
G03*
X191041377Y-15315500I-993063J-117580D01*
G01*
X215848613Y-16197930D02*
G75*
G03*
X222303588Y-16197925I3227487J379130D01*
G01*
X192034441Y-16197923D02*
G75*
G03*
X195261899Y-19065801I3227459J382123D01*
G01*
X131132064Y-16164038D02*
G75*
G03*
X130143600Y-15315499I-988464J-151462D01*
G01*
X215848663Y-16197924D02*
G75*
G03*
X214855608Y-15315501I-993063J-117576D01*
G01*
X197646148Y-19065801D02*
X195261900Y-19065801D01*
X130143600Y-15315500D02*
X120666189Y-15315500D01*
X60650020Y-15315519D02*
G75*
G03*
X60150019Y-15815499I-20J-499981D01*
G01*
X107313952Y-16161748D02*
G75*
G03*
X109537198Y-18065803I2223248J345948D01*
G01*
X131132008Y-16164045D02*
G75*
G03*
X135570193Y-16164038I2219092J340045D01*
G01*
X106325845Y-15315500D02*
X60650020Y-15315500D01*
X306719209Y-18312509D02*
G75*
G03*
X307219209Y-17812510I-9J500009D01*
G01*
X229267260Y-132151132D02*
G75*
G03*
X230203372Y-132799501I936140J351632D01*
G01*
X307219209Y-17812510D02*
X307219209Y-9662517D01*
X307219209Y-9662517D02*
X297619218Y-9662517D01*
X297619218Y-9662517D02*
X297619218Y-17812510D01*
X32491775Y-16197987D02*
G75*
G03*
X31498636Y-15315585I-993075J-117613D01*
G01*
X32491780Y-16197987D02*
G75*
G03*
X38946687Y-16197925I3227450J382187D01*
G01*
X41325020Y-131600019D02*
X41325020Y-132299500D01*
X326850020Y-131600019D02*
X326850020Y-132299500D01*
X41325020Y-131600019D02*
G75*
G03*
X35325020Y-131600019I-3000000J0D01*
G01*
X50837485Y-15315485D02*
G75*
G03*
X49849376Y-16161746I15J-1000015D01*
G01*
X256166677Y-132799502D02*
X300823321Y-132799500D01*
X70913639Y-132152135D02*
G75*
G03*
X71849438Y-132799500I935761J352635D01*
G01*
X326850000Y-132299500D02*
G75*
G03*
X327350020Y-132799500I500000J0D01*
G01*
X20125951Y-132799499D02*
X34825019Y-132799500D01*
X20214941Y-15316501D02*
G75*
G03*
X16125950Y-19404500I-88611J-4000359D01*
G01*
X41325000Y-132299500D02*
G75*
G03*
X41825020Y-132799500I500000J0D01*
G01*
X320850020Y-132299500D02*
X320850020Y-131600019D01*
X35325020Y-132299500D02*
X35325020Y-131600019D01*
X347351677Y-132799500D02*
X356125950Y-132799500D01*
X360125999Y-19315499D02*
G75*
G03*
X356125949Y-15315501I-3999799J199D01*
G01*
X338679477Y-15315501D02*
X327349158Y-15315500D01*
X45402907Y-16161744D02*
G75*
G03*
X44414775Y-15315502I-988107J-153756D01*
G01*
X347067514Y-15316751D02*
G75*
G03*
X346127477Y-16197766I52986J-998549D01*
G01*
X327349158Y-15315520D02*
G75*
G03*
X326850019Y-15815499I842J-499980D01*
G01*
X34825019Y-132799520D02*
G75*
G03*
X35325020Y-132299501I-19J500020D01*
G01*
X307841006Y-132152318D02*
G75*
G03*
X308776677Y-132799502I935694J352818D01*
G01*
X320350020Y-132799520D02*
G75*
G03*
X320850020Y-132299500I-20J500020D01*
G01*
X339398321Y-132799520D02*
G75*
G03*
X340334010Y-132152326I-21J1000020D01*
G01*
X16125950Y-19404499D02*
X16125951Y-128799500D01*
X320849980Y-16037519D02*
G75*
G03*
X326850020Y-16037520I3000020J19D01*
G01*
X41825020Y-132799500D02*
X63896450Y-132799500D01*
X346416006Y-132152318D02*
G75*
G03*
X347351677Y-132799502I935694J352818D01*
G01*
X320850020Y-16037519D02*
X320850019Y-15815498D01*
X356125950Y-132799552D02*
G75*
G03*
X360125952Y-128799499I250J3999752D01*
G01*
X320349157Y-15315499D02*
X309498949Y-15315500D01*
X31498637Y-15315584D02*
X20214941Y-15316500D01*
X63896450Y-132799546D02*
G75*
G03*
X64832215Y-132152123I-50J1000046D01*
G01*
X70913667Y-132152124D02*
G75*
G03*
X64832214Y-132152124I-3040727J-1145836D01*
G01*
X222249737Y-132794594D02*
G75*
G03*
X223185290Y-132147407I-137J999994D01*
G01*
X229267305Y-132151115D02*
G75*
G03*
X223185290Y-132147408I-3041705J-1142585D01*
G01*
X44414775Y-15315501D02*
X39939750Y-15315500D01*
X326850020Y-131600019D02*
G75*
G03*
X320850020Y-131600019I-3000000J0D01*
G01*
X339672539Y-16197927D02*
G75*
G03*
X346127480Y-16197766I3227461J382127D01*
G01*
X326850019Y-15815499D02*
X326850020Y-16037520D01*
X309498949Y-15315549D02*
G75*
G03*
X308498949Y-16315500I-49J-999951D01*
G01*
X308776677Y-132799500D02*
X320350020Y-132799500D01*
X308498949Y-16315500D02*
X308498949Y-18312510D01*
X307498949Y-19312549D02*
G75*
G03*
X308498949Y-18312510I-49J1000049D01*
G01*
X16125950Y-128799500D02*
G75*
G03*
X20125951Y-132799500I3999730J-270D01*
G01*
X39939750Y-15315450D02*
G75*
G03*
X38946686Y-16197924I50J-1000050D01*
G01*
X307840988Y-132152324D02*
G75*
G03*
X301759012Y-132152325I-3040988J-1146676D01*
G01*
X327350020Y-132799500D02*
X339398321Y-132799500D01*
X360125951Y-128799500D02*
X360125950Y-19315499D01*
X339672562Y-16197924D02*
G75*
G03*
X338679478Y-15315502I-993062J-117576D01*
G01*
X320850001Y-15815498D02*
G75*
G03*
X320349157Y-15315500I-500001J-2D01*
G01*
X307498949Y-19312510D02*
X305919209Y-19312510D01*
X45402882Y-16161748D02*
G75*
G03*
X49849379Y-16161747I2223248J345948D01*
G01*
X356125950Y-15315501D02*
X347067511Y-15316697D01*
X305919209Y-18312490D02*
G75*
G03*
X305919209Y-19312510I-9J-500010D01*
G01*
X71849438Y-132799500D02*
X222249737Y-132794616D01*
X300823321Y-132799520D02*
G75*
G03*
X301759010Y-132152326I-21J1000020D01*
G01*
X346415987Y-132152325D02*
G75*
G03*
X340334013Y-132152325I-3040987J-1146682D01*
G01*
X305919209Y-18312510D02*
X306719209Y-18312510D01*
X54150000Y-15815500D02*
G75*
G03*
X53650020Y-15315500I-500000J0D01*
G01*
X53650020Y-15315500D02*
X50837485Y-15315500D01*
X54150020Y-16037520D02*
G75*
G03*
X60150020Y-16037520I3000000J0D01*
G01*
X60150019Y-15815499D02*
X60150020Y-16037520D01*
X54150020Y-16037520D02*
X54150020Y-15815500D01*
X255230988Y-132152324D02*
G75*
G03*
X249149012Y-132152325I-3040988J-1146676D01*
G01*
X255231006Y-132152318D02*
G75*
G03*
X256166677Y-132799502I935694J352818D01*
G01*
X248213321Y-132799520D02*
G75*
G03*
X249149010Y-132152326I-21J1000020D01*
G01*
X230203372Y-132799501D02*
X248213321Y-132799500D01*
D11*
X342828571Y-88372142D02*
X343971428Y-88372142D01*
X343971428Y-83292142D02*
X342828571Y-83292142D01*
X343114285Y-83577857D02*
X342828571Y-83292142D01*
X343114285Y-83006428D01*
X342828571Y-85832142D02*
X343971428Y-85832142D01*
X343400000Y-86403571D02*
X343400000Y-85260714D01*
D12*
%TO.C,J10*%
X341055000Y-78800000D02*
X341055000Y-76140000D01*
X325695000Y-76140000D02*
X327025000Y-76140000D01*
X328295000Y-76140000D02*
X341055000Y-76140000D01*
X328295000Y-78800000D02*
X328295000Y-76140000D01*
X325695000Y-77470000D02*
X325695000Y-76140000D01*
X328295000Y-78800000D02*
X341055000Y-78800000D01*
%TD*%
M02*
