M48
; DRILL file {KiCad (5.1.10)-1} date 10/07/21 10:15:51
; FORMAT={-:-/ absolute / metric / decimal}
; #@! TF.CreationDate,2021-10-07T10:15:51+07:00
; #@! TF.GenerationSoftware,Kicad,Pcbnew,(5.1.10)-1
FMAT,2
METRIC
T1C0.400
T2C1.000
T3C1.500
T4C0.991
T5C1.750
T6C3.000
T7C3.048
T8C3.988
%
G90
G05
T1
X2.281Y-45.402
X3.715Y-60.209
X4.195Y-71.687
X4.195Y-89.546
X4.663Y-121.603
X5.683Y-97.218
X7.044Y-64.453
X8.287Y-129.223
X9.069Y-78.899
X9.425Y-83.502
X11.157Y-76.53
X11.45Y-79.494
X13.915Y-91.123
X14.188Y-102.552
X15.022Y-80.685
X15.396Y-98.108
X17.037Y-55.272
X17.59Y-119.063
X18.823Y-114.729
X20.034Y-117.348
X20.677Y-83.364
X20.975Y-70.267
X21.05Y-74.612
X21.137Y-52.705
X21.214Y-126.683
X21.331Y-45.402
X21.937Y-55.272
X22.32Y-75.496
X22.463Y-77.113
X22.463Y-88.126
X23.118Y-68.318
X23.265Y-94.838
X23.356Y-71.755
X23.723Y-114.729
X24.007Y-84.356
X24.388Y-68.318
X24.547Y-90.205
X24.616Y-84.966
X25.221Y-85.571
X25.255Y-86.454
X25.277Y-87.368
X25.44Y-60.146
X25.44Y-64.016
X25.495Y-94.805
X25.658Y-68.318
X26.195Y-93.618
X26.301Y-126.555
X26.333Y-127.715
X26.63Y-83.959
X26.63Y-85.15
X27.115Y-100.012
X28.416Y-115.213
X28.475Y-121.603
X29.012Y-66.993
X30.182Y-61.912
X30.856Y-64.453
X32.1Y-129.223
X32.881Y-69.829
X33.179Y-108.962
X34.369Y-80.685
X34.965Y-66.993
X35.56Y-79.806
X36.751Y-80.089
X37.433Y-95.186
X38.239Y-113.129
X38.957Y-88.075
X39.727Y-86.043
X40.381Y-45.402
X40.918Y-66.993
X41.402Y-119.063
X42.704Y-104.931
X45.027Y-126.683
X45.144Y-102.552
X45.68Y-86.043
X49.252Y-105.093
X49.906Y-64.453
X51.336Y-50.679
X51.336Y-53.467
X52.288Y-121.603
X53.419Y-86.178
X54.015Y-66.993
X54.669Y-83.502
X55.205Y-105.093
X55.912Y-129.223
X58.777Y-86.043
X59.431Y-45.402
X59.968Y-66.993
X60.148Y-49.728
X63.491Y-53.072
X64.194Y-102.552
X64.73Y-86.043
X65.215Y-119.063
X68.302Y-105.093
X68.839Y-126.683
X68.956Y-64.453
X73.065Y-66.993
X73.719Y-83.502
X74.255Y-105.093
X77.827Y-86.043
X78.481Y-45.402
X79.018Y-66.993
X83.244Y-102.552
X83.781Y-86.043
X87.352Y-105.093
X88.006Y-64.453
X92.115Y-66.993
X92.769Y-83.502
X93.306Y-105.093
X96.877Y-86.043
X97.531Y-45.402
X98.068Y-66.993
X98.248Y-49.728
X99.854Y-110.748
X101.591Y-53.071
X102.294Y-102.552
X102.831Y-86.043
X106.402Y-105.093
X107.056Y-64.453
X111.165Y-66.993
X111.819Y-83.502
X112.356Y-105.093
X115.927Y-86.043
X116.581Y-45.402
X117.118Y-66.993
X121.344Y-102.552
X121.881Y-86.043
X123.726Y-121.603
X125.452Y-105.093
X126.106Y-64.453
X130.215Y-66.993
X130.869Y-83.502
X131.406Y-105.093
X134.978Y-86.043
X135.631Y-45.402
X136.168Y-66.993
X136.349Y-49.728
X136.653Y-119.063
X136.875Y-129.387
X139.692Y-53.072
X140.394Y-102.552
X140.931Y-86.043
X144.503Y-105.093
X145.156Y-64.453
X149.265Y-66.993
X149.802Y-126.683
X149.919Y-83.502
X150.456Y-105.093
X154.028Y-86.043
X154.681Y-45.402
X155.218Y-66.993
X159.444Y-102.552
X159.981Y-86.043
X163.553Y-105.093
X164.206Y-64.453
X166.529Y-110.748
X168.315Y-66.993
X168.969Y-83.502
X169.506Y-105.093
X173.078Y-86.043
X173.731Y-45.402
X174.268Y-66.993
X174.448Y-49.728
X177.792Y-53.072
X178.494Y-102.552
X179.031Y-86.043
X182.603Y-105.093
X183.256Y-64.453
X187.365Y-66.993
X188.019Y-83.502
X188.556Y-105.093
X192.128Y-86.043
X192.781Y-45.402
X193.318Y-66.993
X197.544Y-102.552
X198.081Y-86.043
X201.653Y-105.093
X202.306Y-64.453
X206.415Y-66.993
X207.069Y-83.502
X207.606Y-105.093
X208.09Y-119.063
X211.178Y-86.043
X211.831Y-45.402
X212.368Y-66.993
X212.549Y-49.728
X216.594Y-102.552
X217.131Y-86.043
X217.838Y-129.223
X218.976Y-121.603
X221.356Y-64.453
X225.465Y-66.993
X226.119Y-83.502
X230.228Y-86.043
X230.765Y-126.683
X230.867Y-52.781
X230.881Y-45.402
X231.903Y-119.063
X235.586Y-66.993
X236.181Y-86.043
X237.967Y-51.812
X240.406Y-64.453
X241.275Y-75.625
X242.788Y-102.552
X247.492Y-41.394
X249.932Y-121.603
X251.174Y-53.023
X257.075Y-83.502
X257.315Y-111.641
X259.456Y-45.402
X264.101Y-50.482
X264.219Y-64.453
X264.942Y-129.272
X268.982Y-102.552
X268.983Y-121.603
X272.383Y-42.862
X273.388Y-58.956
X280.234Y-72.236
X280.234Y-78.12
X281.356Y-129.272
X281.722Y-57.765
X282.615Y-129.273
X283.151Y-50.482
X284.104Y-74.136
X284.104Y-76.22
X284.699Y-61.635
X285.299Y-62.235
X287.134Y-115.325
X287.149Y-112.125
X288.031Y-45.402
X288.032Y-64.453
X288.032Y-83.502
X288.032Y-102.552
X288.033Y-121.603
X289.345Y-57.17
X289.461Y-58.956
X297.089Y-76.586
X297.089Y-95.636
X300.289Y-71.686
X300.289Y-76.586
X300.289Y-90.736
X300.289Y-95.636
X301.07Y-110.748
X301.07Y-111.939
T2
X292.616Y-40.942
X292.616Y-55.442
X295.116Y-55.442
X297.616Y-40.942
X297.616Y-55.442
T4
X21.848Y-68.953
X26.928Y-67.937
X26.928Y-69.969
T5
X4.286Y-47.942
X6.668Y-124.143
X9.049Y-124.143
X9.049Y-66.992
X11.43Y-86.042
X14.446Y-47.942
X16.193Y-105.093
X16.828Y-124.143
X19.209Y-124.143
X19.209Y-66.992
X21.59Y-86.042
X23.336Y-47.942
X26.353Y-105.093
X30.48Y-124.143
X32.861Y-66.992
X32.862Y-124.143
X33.496Y-47.942
X37.624Y-86.042
X40.64Y-124.143
X42.386Y-47.942
X43.021Y-66.992
X43.022Y-124.143
X47.149Y-105.093
X47.784Y-86.042
X51.911Y-66.992
X52.546Y-47.942
X54.293Y-124.143
X56.674Y-86.042
X56.674Y-124.143
X57.309Y-105.093
X61.436Y-47.942
X62.071Y-66.992
X64.453Y-124.143
X66.199Y-105.093
X66.834Y-86.042
X66.834Y-124.143
X70.961Y-66.992
X71.596Y-47.942
X75.724Y-86.042
X76.359Y-105.093
X80.486Y-47.942
X81.121Y-66.992
X85.249Y-105.093
X85.884Y-86.042
X90.011Y-66.992
X90.646Y-47.942
X94.774Y-86.042
X95.409Y-105.093
X99.536Y-47.942
X100.171Y-66.992
X104.299Y-105.093
X104.934Y-86.042
X109.061Y-66.992
X109.696Y-47.942
X113.824Y-86.042
X114.459Y-105.093
X118.586Y-47.942
X119.221Y-66.992
X123.349Y-105.093
X123.984Y-86.042
X125.731Y-124.143
X128.111Y-66.992
X128.746Y-47.942
X132.874Y-86.042
X133.509Y-105.093
X135.891Y-124.143
X137.636Y-47.942
X137.637Y-124.143
X138.271Y-66.992
X142.399Y-105.093
X143.034Y-86.042
X147.161Y-66.992
X147.796Y-47.942
X147.797Y-124.143
X151.924Y-86.042
X152.559Y-105.093
X156.686Y-47.942
X157.321Y-66.992
X161.449Y-105.093
X162.084Y-86.042
X166.211Y-66.992
X166.846Y-47.942
X170.974Y-86.042
X171.609Y-105.093
X175.736Y-47.942
X176.371Y-66.992
X180.499Y-105.093
X181.134Y-86.042
X185.261Y-66.992
X185.896Y-47.942
X190.024Y-86.042
X190.659Y-105.093
X194.786Y-47.942
X195.421Y-66.992
X197.168Y-124.143
X199.549Y-105.093
X200.184Y-86.042
X204.311Y-66.992
X204.946Y-47.942
X207.328Y-124.143
X209.074Y-86.042
X209.709Y-105.093
X213.836Y-47.942
X214.471Y-66.992
X218.599Y-105.093
X218.6Y-124.143
X219.234Y-86.042
X220.981Y-124.143
X223.361Y-66.992
X223.996Y-47.942
X228.124Y-86.042
X228.759Y-105.093
X228.76Y-124.143
X231.141Y-124.143
X232.886Y-47.942
X233.521Y-66.992
X238.284Y-86.042
X242.411Y-66.992
X243.046Y-47.942
X244.793Y-105.093
X251.936Y-47.942
X251.937Y-124.143
X252.571Y-66.992
X254.953Y-105.093
X259.08Y-86.042
X261.461Y-47.942
X262.096Y-47.942
X262.097Y-124.143
X266.224Y-66.992
X269.24Y-86.042
X270.986Y-47.942
X270.987Y-105.093
X270.988Y-124.143
X271.621Y-47.942
X276.384Y-66.992
X281.146Y-47.942
X281.147Y-105.093
X281.148Y-124.143
X290.036Y-47.942
X290.037Y-66.992
X290.037Y-86.042
X290.037Y-105.093
X290.038Y-124.143
X300.196Y-47.942
X300.197Y-66.992
X300.197Y-86.042
X300.197Y-105.093
X300.198Y-124.143
T6
X5.556Y-45.402
X7.938Y-121.603
X10.319Y-64.453
X11.589Y-129.223
X11.906Y-42.862
X12.7Y-83.502
X14.288Y-119.063
X16.669Y-61.912
X17.463Y-102.552
X17.939Y-126.683
X19.05Y-80.962
X23.813Y-100.012
X24.606Y-45.402
X30.956Y-42.862
X31.75Y-121.603
X34.131Y-64.453
X35.402Y-129.223
X38.1Y-119.063
X38.894Y-83.502
X40.481Y-61.912
X41.752Y-126.683
X43.656Y-45.402
X45.244Y-80.962
X48.419Y-102.552
X50.006Y-42.862
X53.181Y-64.453
X54.769Y-100.012
X55.563Y-121.603
X57.944Y-83.502
X59.214Y-129.223
X59.531Y-61.912
X61.913Y-119.063
X62.706Y-45.402
X64.294Y-80.962
X65.564Y-126.683
X67.469Y-102.552
X69.056Y-42.862
X72.231Y-64.453
X73.819Y-100.012
X76.994Y-83.502
X78.581Y-61.912
X81.756Y-45.402
X83.344Y-80.962
X86.519Y-102.552
X88.106Y-42.862
X91.281Y-64.453
X92.869Y-100.012
X96.044Y-83.502
X97.631Y-61.912
X100.806Y-45.402
X102.394Y-80.962
X105.569Y-102.552
X107.156Y-42.862
X110.331Y-64.453
X111.919Y-100.012
X115.094Y-83.502
X116.681Y-61.912
X119.856Y-45.402
X121.444Y-80.962
X124.619Y-102.552
X126.206Y-42.862
X127.001Y-121.603
X129.381Y-64.453
X130.969Y-100.012
X133.351Y-119.063
X134.144Y-83.502
X135.731Y-61.912
X138.906Y-45.402
X140.177Y-129.223
X140.494Y-80.962
X143.669Y-102.552
X145.256Y-42.862
X146.527Y-126.683
X148.431Y-64.453
X150.019Y-100.012
X153.194Y-83.502
X154.781Y-61.912
X157.956Y-45.402
X159.544Y-80.962
X162.719Y-102.552
X164.306Y-42.862
X167.481Y-64.453
X169.069Y-100.012
X172.244Y-83.502
X173.831Y-61.912
X177.006Y-45.402
X178.594Y-80.962
X181.769Y-102.552
X183.356Y-42.862
X186.531Y-64.453
X188.119Y-100.012
X191.294Y-83.502
X192.881Y-61.912
X196.056Y-45.402
X197.644Y-80.962
X198.438Y-121.603
X200.819Y-102.552
X202.406Y-42.862
X204.788Y-119.063
X205.581Y-64.453
X207.169Y-100.012
X210.344Y-83.502
X211.931Y-61.912
X215.106Y-45.402
X216.694Y-80.962
X219.869Y-102.552
X221.14Y-129.223
X221.456Y-42.862
X222.251Y-121.603
X224.631Y-64.453
X226.219Y-100.012
X227.49Y-126.683
X228.601Y-119.063
X229.394Y-83.502
X230.981Y-61.912
X234.156Y-45.402
X235.744Y-80.962
X240.506Y-42.862
X243.681Y-64.453
X246.063Y-102.552
X250.031Y-61.912
X252.413Y-100.012
X253.207Y-121.603
X254.476Y-53.023
X259.557Y-119.063
X260.35Y-83.502
X260.826Y-50.482
X262.731Y-45.402
X266.7Y-80.962
X267.494Y-64.453
X269.081Y-42.862
X272.257Y-102.552
X272.258Y-121.603
X273.526Y-53.023
X273.844Y-61.912
X278.607Y-100.012
X278.608Y-119.063
X279.876Y-50.482
X291.306Y-45.402
X291.307Y-64.453
X291.307Y-83.502
X291.307Y-102.552
X291.308Y-121.603
X297.656Y-42.862
X297.657Y-61.912
X297.657Y-80.962
X297.657Y-100.012
X297.658Y-119.063
T7
X9.335Y-98.108
X33.211Y-98.108
X80.811Y-131.128
X85.567Y-131.128
X180.811Y-131.128
X199.867Y-131.128
X252.222Y-79.057
X254.603Y-40.957
X276.098Y-79.057
X278.479Y-40.957
T8
X9.335Y-113.347
X9.366Y-47.942
X11.748Y-124.143
X14.129Y-124.143
X14.129Y-66.992
X16.51Y-86.042
X21.273Y-105.093
X28.416Y-47.942
X33.211Y-113.347
X35.56Y-124.143
X37.941Y-66.992
X37.942Y-124.143
X42.704Y-86.042
X47.466Y-47.942
X52.229Y-105.093
X56.991Y-66.992
X59.373Y-124.143
X61.754Y-86.042
X61.754Y-124.143
X66.516Y-47.942
X71.279Y-105.093
X76.041Y-66.992
X80.804Y-86.042
X80.811Y-115.888
X85.566Y-47.942
X85.567Y-115.888
X90.329Y-105.093
X95.091Y-66.992
X99.854Y-86.042
X104.616Y-47.942
X109.379Y-105.093
X114.141Y-66.992
X118.904Y-86.042
X123.666Y-47.942
X128.429Y-105.093
X130.811Y-124.143
X133.191Y-66.992
X137.954Y-86.042
X142.716Y-47.942
X142.717Y-124.143
X147.479Y-105.093
X152.241Y-66.992
X157.004Y-86.042
X161.766Y-47.942
X166.529Y-105.093
X171.291Y-66.992
X176.054Y-86.042
X180.811Y-115.888
X180.816Y-47.942
X185.579Y-105.093
X190.341Y-66.992
X195.104Y-86.042
X199.866Y-47.942
X199.867Y-115.888
X202.248Y-124.143
X204.629Y-105.093
X209.391Y-66.992
X214.154Y-86.042
X218.916Y-47.942
X223.679Y-105.093
X223.68Y-124.143
X226.061Y-124.143
X228.441Y-66.992
X233.204Y-86.042
X237.966Y-47.942
X247.491Y-66.992
X249.873Y-105.093
X252.222Y-94.297
X254.603Y-56.197
X257.016Y-47.942
X257.017Y-124.143
X264.16Y-86.042
X266.541Y-47.942
X271.304Y-66.992
X276.066Y-47.942
X276.067Y-105.093
X276.068Y-124.143
X276.098Y-94.297
X278.479Y-56.197
X295.116Y-47.942
X295.117Y-66.992
X295.117Y-86.042
X295.117Y-105.093
X295.118Y-124.143
T3
G00X289.516Y-48.593
M15
G01X289.516Y-47.292
M16
G05
G00X300.716Y-48.593
M15
G01X300.716Y-47.292
M16
G05
T0
M30
