0
SECTION
2
HEADER
9
$INSUNITS
70
4
9
$ACADVER
1
AC1014
9
$HANDSEED
5
FFFF
0
ENDSEC
0
SECTION
2
TABLES
0
TABLE
2
VPORT
5
8
100
AcDbSymbolTable
0
ENDTAB
0
TABLE
2
LTYPE
5
5
100
AcDbSymbolTable
0
LTYPE
5
14
100
AcDbSymbolTableRecord
100
AcDbLinetypeTableRecord
2
BYBLOCK
70
0
0
LTYPE
5
15
100
AcDbSymbolTableRecord
100
AcDbLinetypeTableRecord
2
BYLAYER
70
0
0
ENDTAB
0
TABLE
2
LAYER
5
2
100
AcDbSymbolTable
70
2
0
LAYER
5
50
100
AcDbSymbolTableRecord
100
AcDbLayerTableRecord
2
0
70
0
6
CONTINUOUS
0
ENDTAB
0
TABLE
2
STYLE
5
3
100
AcDbSymbolTable
70
1
0
STYLE
5
11
100
AcDbSymbolTableRecord
100
AcDbTextStyleTableRecord
2
STANDARD
70
0
0
ENDTAB
0
TABLE
2
VIEW
5
6
100
AcDbSymbolTable
70
0
0
ENDTAB
0
TABLE
2
UCS
5
7
100
AcDbSymbolTable
70
0
0
ENDTAB
0
TABLE
2
APPID
5
9
100
AcDbSymbolTable
70
2
0
APPID
5
12
100
AcDbSymbolTableRecord
100
AcDbRegAppTableRecord
2
ACAD
70
0
0
ENDTAB
0
TABLE
2
DIMSTYLE
5
A
100
AcDbSymbolTable
70
1
0
ENDTAB
0
TABLE
2
BLOCK_RECORD
5
1
100
AcDbSymbolTable
70
1
0
BLOCK_RECORD
5
1F
100
AcDbSymbolTableRecord
100
AcDbBlockTableRecord
2
*MODEL_SPACE
0
BLOCK_RECORD
5
1B
100
AcDbSymbolTableRecord
100
AcDbBlockTableRecord
2
*PAPER_SPACE
0
ENDTAB
0
ENDSEC
0
SECTION
2
BLOCKS
0
BLOCK
5
20
100
AcDbEntity
100
AcDbBlockBegin
2
*MODEL_SPACE
0
ENDBLK
5
21
100
AcDbEntity
100
AcDbBlockEnd
0
BLOCK
5
1C
100
AcDbEntity
100
AcDbBlockBegin
2
*PAPER_SPACE
0
ENDBLK
5
1D
100
AcDbEntity
100
AcDbBlockEnd
0
ENDSEC
0
SECTION
2
ENTITIES
0
SPLINE
5
100
100
AcDbEntity
8
0
100
AcDbSpline
70
0
71
3
72
8
73
4
74
0
42
0.000000001
43
0.0000000001
44
0.0000000001
40
0
40
0
40
0
40
0
40
1
40
1
40
1
40
1
10
18.559481646426331
20
-133.65557333658879
30
0
10
18.8356240213418
20
-133.65557333658879
30
0
10
19.059481646426349
20
-133.43171571150489
30
0
10
19.059481646426349
20
-133.1555733365897
30
0
0
LINE
5
101
100
AcDbEntity
8
0
100
AcDbLine
10
18.559481646426331
20
-133.65557333658879
30
0
11
12.559481646426441
21
-133.65557333658879
31
0
0
SPLINE
5
102
100
AcDbEntity
8
0
100
AcDbSpline
70
0
71
3
72
8
73
4
74
0
42
0.000000001
43
0.0000000001
44
0.0000000001
40
0
40
0
40
0
40
0
40
1
40
1
40
1
40
1
10
12.05948164642642
20
-133.1555733365897
30
0
10
12.05948164642642
20
-133.43171571150489
30
0
10
12.283339271510963
20
-133.65557333658879
30
0
10
12.559481646426441
20
-133.65557333658879
30
0
0
LINE
5
103
100
AcDbEntity
8
0
100
AcDbLine
10
12.05948164642642
20
-133.1555733365897
30
0
11
12.05948164642642
21
-118.1555733365899
31
0
0
SPLINE
5
104
100
AcDbEntity
8
0
100
AcDbSpline
70
0
71
3
72
8
73
4
74
0
42
0.000000001
43
0.0000000001
44
0.0000000001
40
0
40
0
40
0
40
0
40
1
40
1
40
1
40
1
10
12.559481646426441
20
-117.65557333658953
30
0
10
12.283339271510963
20
-117.65557333658953
30
0
10
12.05948164642642
20
-117.87943096167342
30
0
10
12.05948164642642
20
-118.1555733365899
30
0
0
LINE
5
105
100
AcDbEntity
8
0
100
AcDbLine
10
12.559481646426441
20
-117.65557333658953
30
0
11
42.435481646426531
21
-117.65557333658953
31
0
0
SPLINE
5
106
100
AcDbEntity
8
0
100
AcDbSpline
70
0
71
3
72
8
73
4
74
0
42
0.000000001
43
0.0000000001
44
0.0000000001
40
0
40
0
40
0
40
0
40
1
40
1
40
1
40
1
10
42.935481646426538
20
-118.1555733365899
30
0
10
42.935481646426538
20
-117.87943096167342
30
0
10
42.71162402134167
20
-117.65557333658953
30
0
10
42.435481646426531
20
-117.65557333658953
30
0
0
LINE
5
107
100
AcDbEntity
8
0
100
AcDbLine
10
42.935481646426538
20
-118.1555733365899
30
0
11
42.935481646426538
21
-133.1555733365897
31
0
0
SPLINE
5
108
100
AcDbEntity
8
0
100
AcDbSpline
70
0
71
3
72
8
73
4
74
0
42
0.000000001
43
0.0000000001
44
0.0000000001
40
0
40
0
40
0
40
0
40
1
40
1
40
1
40
1
10
42.435481646426531
20
-133.65557333658879
30
0
10
42.71162402134167
20
-133.65557333658879
30
0
10
42.935481646426538
20
-133.43171571150489
30
0
10
42.935481646426538
20
-133.1555733365897
30
0
0
LINE
5
109
100
AcDbEntity
8
0
100
AcDbLine
10
42.435481646426531
20
-133.65557333658879
30
0
11
36.435481646426297
21
-133.65557333658879
31
0
0
SPLINE
5
110
100
AcDbEntity
8
0
100
AcDbSpline
70
0
71
3
72
8
73
4
74
0
42
0.000000001
43
0.0000000001
44
0.0000000001
40
0
40
0
40
0
40
0
40
1
40
1
40
1
40
1
10
35.935481646426283
20
-133.1555733365897
30
0
10
35.935481646426283
20
-133.43171571150489
30
0
10
36.159339271511143
20
-133.65557333658879
30
0
10
36.435481646426297
20
-133.65557333658879
30
0
0
LINE
5
111
100
AcDbEntity
8
0
100
AcDbLine
10
35.935481646426283
20
-133.1555733365897
30
0
11
35.935481646426283
21
-132.15557333658916
31
0
0
SPLINE
5
112
100
AcDbEntity
8
0
100
AcDbSpline
70
0
71
3
72
8
73
4
74
0
42
0.000000001
43
0.0000000001
44
0.0000000001
40
0
40
0
40
0
40
0
40
1
40
1
40
1
40
1
10
35.935481646426283
20
-132.15557333658916
30
0
10
35.935481646426283
20
-131.8794309616739
30
0
10
35.711624021341763
20
-131.6555733365887
30
0
10
35.435481646426588
20
-131.6555733365887
30
0
0
LINE
5
113
100
AcDbEntity
8
0
100
AcDbLine
10
35.435481646426588
20
-131.6555733365887
30
0
11
19.559481646426359
21
-131.6555733365887
31
0
0
SPLINE
5
114
100
AcDbEntity
8
0
100
AcDbSpline
70
0
71
3
72
8
73
4
74
0
42
0.000000001
43
0.0000000001
44
0.0000000001
40
0
40
0
40
0
40
0
40
1
40
1
40
1
40
1
10
19.559481646426359
20
-131.6555733365887
30
0
10
19.283339271510879
20
-131.6555733365887
30
0
10
19.059481646426349
20
-131.8794309616739
30
0
10
19.059481646426349
20
-132.15557333658916
30
0
0
LINE
5
115
100
AcDbEntity
8
0
100
AcDbLine
10
19.059481646426352
20
-132.15557333658916
30
0
11
19.059481646426349
21
-133.1555733365897
31
0
0
SPLINE
5
116
100
AcDbEntity
8
0
100
AcDbSpline
70
0
71
3
72
8
73
4
74
0
42
0.000000001
43
0.0000000001
44
0.0000000001
40
0
40
0
40
0
40
0
40
1
40
1
40
1
40
1
10
261.4469816464262
20
-114.60557333658862
30
0
10
261.72312402134202
20
-114.60557333658862
30
0
10
261.94698164642648
20
-114.3817157115047
30
0
10
261.94698164642648
20
-114.10557333658952
30
0
0
LINE
5
117
100
AcDbEntity
8
0
100
AcDbLine
10
261.4469816464262
20
-114.60557333658862
30
0
11
255.44698164642659
21
-114.60557333658862
31
0
0
SPLINE
5
118
100
AcDbEntity
8
0
100
AcDbSpline
70
0
71
3
72
8
73
4
74
0
42
0.000000001
43
0.0000000001
44
0.0000000001
40
0
40
0
40
0
40
0
40
1
40
1
40
1
40
1
10
254.94698164642631
20
-114.10557333658952
30
0
10
254.94698164642631
20
-114.3817157115047
30
0
10
255.1708392715108
20
-114.60557333658862
30
0
10
255.44698164642659
20
-114.60557333658862
30
0
0
LINE
5
119
100
AcDbEntity
8
0
100
AcDbLine
10
254.94698164642631
20
-114.10557333658952
30
0
11
254.94698164642631
21
-97.105573336589273
31
0
0
SPLINE
5
120
100
AcDbEntity
8
0
100
AcDbSpline
70
0
71
3
72
8
73
4
74
0
42
0.000000001
43
0.0000000001
44
0.0000000001
40
0
40
0
40
0
40
0
40
1
40
1
40
1
40
1
10
255.44698164642659
20
-96.605573336589259
30
0
10
255.1708392715108
20
-96.605573336589259
30
0
10
254.94698164642631
20
-96.829430961673793
30
0
10
254.94698164642631
20
-97.105573336589273
30
0
0
LINE
5
121
100
AcDbEntity
8
0
100
AcDbLine
10
255.44698164642659
20
-96.605573336589259
30
0
11
261.4469816464262
21
-96.605573336589259
31
0
0
SPLINE
5
122
100
AcDbEntity
8
0
100
AcDbSpline
70
0
71
3
72
8
73
4
74
0
42
0.000000001
43
0.0000000001
44
0.0000000001
40
0
40
0
40
0
40
0
40
1
40
1
40
1
40
1
10
261.94698164642648
20
-97.105573336589273
30
0
10
261.94698164642648
20
-96.829430961673793
30
0
10
261.72312402134202
20
-96.605573336589259
30
0
10
261.4469816464262
20
-96.605573336589259
30
0
0
LINE
5
123
100
AcDbEntity
8
0
100
AcDbLine
10
261.94698164642648
20
-97.105573336589273
30
0
11
261.94698164642648
21
-98.105573336589316
31
0
0
SPLINE
5
124
100
AcDbEntity
8
0
100
AcDbSpline
70
0
71
3
72
8
73
4
74
0
42
0.000000001
43
0.0000000001
44
0.0000000001
40
0
40
0
40
0
40
0
40
1
40
1
40
1
40
1
10
261.94698164642648
20
-98.105573336589316
30
0
10
261.94698164642648
20
-98.381715711504469
30
0
10
262.17083927151111
20
-98.605573336589316
30
0
10
262.44698164642631
20
-98.605573336589316
30
0
0
LINE
5
125
100
AcDbEntity
8
0
100
AcDbLine
10
262.44698164642631
20
-98.605573336589316
30
0
11
278.32298164642611
21
-98.605573336589316
31
0
0
SPLINE
5
126
100
AcDbEntity
8
0
100
AcDbSpline
70
0
71
3
72
8
73
4
74
0
42
0.000000001
43
0.0000000001
44
0.0000000001
40
0
40
0
40
0
40
0
40
1
40
1
40
1
40
1
10
278.32298164642611
20
-98.605573336589316
30
0
10
278.59912402134188
20
-98.605573336589316
30
0
10
278.82298164642651
20
-98.381715711504469
30
0
10
278.82298164642651
20
-98.105573336589316
30
0
0
LINE
5
127
100
AcDbEntity
8
0
100
AcDbLine
10
278.82298164642657
20
-98.105573336589316
30
0
11
278.82298164642651
21
-97.105573336589273
31
0
0
SPLINE
5
128
100
AcDbEntity
8
0
100
AcDbSpline
70
0
71
3
72
8
73
4
74
0
42
0.000000001
43
0.0000000001
44
0.0000000001
40
0
40
0
40
0
40
0
40
1
40
1
40
1
40
1
10
279.32298164642617
20
-96.605573336589259
30
0
10
279.04683927151098
20
-96.605573336589259
30
0
10
278.82298164642651
20
-96.829430961673793
30
0
10
278.82298164642651
20
-97.105573336589273
30
0
0
LINE
5
129
100
AcDbEntity
8
0
100
AcDbLine
10
279.32298164642617
20
-96.605573336589259
30
0
11
285.3229816464264
21
-96.605573336589259
31
0
0
SPLINE
5
130
100
AcDbEntity
8
0
100
AcDbSpline
70
0
71
3
72
8
73
4
74
0
42
0.000000001
43
0.0000000001
44
0.0000000001
40
0
40
0
40
0
40
0
40
1
40
1
40
1
40
1
10
285.82298164642668
20
-97.105573336589273
30
0
10
285.82298164642668
20
-96.829430961673793
30
0
10
285.59912402134222
20
-96.605573336589259
30
0
10
285.3229816464264
20
-96.605573336589259
30
0
0
LINE
5
131
100
AcDbEntity
8
0
100
AcDbLine
10
285.82298164642668
20
-97.105573336589273
30
0
11
285.82298164642668
21
-114.10557333658952
31
0
0
SPLINE
5
132
100
AcDbEntity
8
0
100
AcDbSpline
70
0
71
3
72
8
73
4
74
0
42
0.000000001
43
0.0000000001
44
0.0000000001
40
0
40
0
40
0
40
0
40
1
40
1
40
1
40
1
10
285.3229816464264
20
-114.60557333658862
30
0
10
285.59912402134222
20
-114.60557333658862
30
0
10
285.82298164642668
20
-114.3817157115047
30
0
10
285.82298164642668
20
-114.10557333658952
30
0
0
LINE
5
133
100
AcDbEntity
8
0
100
AcDbLine
10
285.3229816464264
20
-114.60557333658862
30
0
11
279.32298164642617
21
-114.60557333658862
31
0
0
SPLINE
5
134
100
AcDbEntity
8
0
100
AcDbSpline
70
0
71
3
72
8
73
4
74
0
42
0.000000001
43
0.0000000001
44
0.0000000001
40
0
40
0
40
0
40
0
40
1
40
1
40
1
40
1
10
278.82298164642651
20
-114.10557333658952
30
0
10
278.82298164642651
20
-114.3817157115047
30
0
10
279.04683927151098
20
-114.60557333658862
30
0
10
279.32298164642617
20
-114.60557333658862
30
0
0
LINE
5
135
100
AcDbEntity
8
0
100
AcDbLine
10
278.82298164642651
20
-114.10557333658952
30
0
11
278.82298164642651
21
-113.10557333658892
31
0
0
SPLINE
5
136
100
AcDbEntity
8
0
100
AcDbSpline
70
0
71
3
72
8
73
4
74
0
42
0.000000001
43
0.0000000001
44
0.0000000001
40
0
40
0
40
0
40
0
40
1
40
1
40
1
40
1
10
278.82298164642651
20
-113.10557333658892
30
0
10
278.82298164642651
20
-112.82943096167371
30
0
10
278.59912402134188
20
-112.6055733365898
30
0
10
278.32298164642611
20
-112.6055733365898
30
0
0
LINE
5
137
100
AcDbEntity
8
0
100
AcDbLine
10
278.32298164642611
20
-112.6055733365898
30
0
11
262.44698164642631
21
-112.6055733365898
31
0
0
SPLINE
5
138
100
AcDbEntity
8
0
100
AcDbSpline
70
0
71
3
72
8
73
4
74
0
42
0.000000001
43
0.0000000001
44
0.0000000001
40
0
40
0
40
0
40
0
40
1
40
1
40
1
40
1
10
262.44698164642631
20
-112.6055733365898
30
0
10
262.17083927151111
20
-112.6055733365898
30
0
10
261.94698164642648
20
-112.82943096167371
30
0
10
261.94698164642648
20
-113.10557333658892
30
0
0
LINE
5
139
100
AcDbEntity
8
0
100
AcDbLine
10
261.94698164642648
20
-113.10557333658892
30
0
11
261.94698164642654
21
-114.10557333658952
31
0
0
LINE
5
140
100
AcDbEntity
8
0
100
AcDbLine
10
27.453556709350408
20
-137.20571167504312
30
0
11
27.453556709350408
21
-150.20509046953629
31
0
0
SPLINE
5
141
100
AcDbEntity
8
0
100
AcDbSpline
70
0
71
3
72
8
73
4
74
0
42
0.000000001
43
0.0000000001
44
0.0000000001
40
6
40
6
40
6
40
6
40
7
40
7
40
7
40
7
10
27.453556709350408
20
-150.20509046953629
30
0
10
27.453556709350408
20
-150.53616414566881
30
0
10
27.18432249717813
20
-150.80522610306679
30
0
10
26.853593330594151
20
-150.80522610306679
30
0
0
LINE
5
142
100
AcDbEntity
8
0
100
AcDbLine
10
26.853593330594151
20
-150.80522610306679
30
0
11
13.853870026552411
21
-150.80522610306679
31
0
0
SPLINE
5
143
100
AcDbEntity
8
0
100
AcDbSpline
70
0
71
3
72
8
73
4
74
0
42
0.000000001
43
0.0000000001
44
0.0000000001
40
0
40
0
40
0
40
0
40
1
40
1
40
1
40
1
10
13.853870026552411
20
-150.80522610306679
30
0
10
13.522968605194162
20
-150.80522610306679
30
0
10
13.253734393021892
20
-150.53616414566881
30
0
10
13.253734393021892
20
-150.20509046953629
30
0
0
LINE
5
144
100
AcDbEntity
8
0
100
AcDbLine
10
13.253734393021894
20
-150.20509046953629
30
0
11
13.253734393021892
21
-137.20571167504312
31
0
0
SPLINE
5
145
100
AcDbEntity
8
0
100
AcDbSpline
70
0
71
3
72
8
73
4
74
0
42
0.000000001
43
0.0000000001
44
0.0000000001
40
2
40
2
40
2
40
2
40
3
40
3
40
3
40
3
10
13.253734393021892
20
-137.20571167504312
30
0
10
13.253734393021892
20
-136.87463799891052
30
0
10
13.522968605194162
20
-136.60557604151253
30
0
10
13.853870026552411
20
-136.60557604151253
30
0
0
LINE
5
146
100
AcDbEntity
8
0
100
AcDbLine
10
13.853870026552412
20
-136.60557604151253
30
0
11
26.853593330594151
21
-136.60557604151253
31
0
0
SPLINE
5
147
100
AcDbEntity
8
0
100
AcDbSpline
70
0
71
3
72
8
73
4
74
0
42
0.000000001
43
0.0000000001
44
0.0000000001
40
4
40
4
40
4
40
4
40
5
40
5
40
5
40
5
10
26.853593330594151
20
-136.60557604151253
30
0
10
27.18432249717813
20
-136.60557604151253
30
0
10
27.453556709350408
20
-136.87463799891052
30
0
10
27.453556709350408
20
-137.20571167504312
30
0
0
LINE
5
148
100
AcDbEntity
8
0
100
AcDbLine
10
51.266056703397282
20
-137.20571167504312
30
0
11
51.266056703397282
21
-150.20509046953629
31
0
0
SPLINE
5
149
100
AcDbEntity
8
0
100
AcDbSpline
70
0
71
3
72
8
73
4
74
0
42
0.000000001
43
0.0000000001
44
0.0000000001
40
6
40
6
40
6
40
6
40
7
40
7
40
7
40
7
10
51.266056703397282
20
-150.20509046953629
30
0
10
51.266056703397282
20
-150.53616414566881
30
0
10
50.996822491225018
20
-150.80522610306679
30
0
10
50.666093324641039
20
-150.80522610306679
30
0
0
LINE
5
150
100
AcDbEntity
8
0
100
AcDbLine
10
50.666093324641039
20
-150.80522610306679
30
0
11
37.666370020599288
21
-150.80522610306679
31
0
0
SPLINE
5
151
100
AcDbEntity
8
0
100
AcDbSpline
70
0
71
3
72
8
73
4
74
0
42
0.000000001
43
0.0000000001
44
0.0000000001
40
0
40
0
40
0
40
0
40
1
40
1
40
1
40
1
10
37.666370020599288
20
-150.80522610306679
30
0
10
37.33546859924104
20
-150.80522610306679
30
0
10
37.066234387068768
20
-150.53616414566881
30
0
10
37.066234387068768
20
-150.20509046953629
30
0
0
LINE
5
152
100
AcDbEntity
8
0
100
AcDbLine
10
37.066234387068768
20
-150.20509046953629
30
0
11
37.066234387068768
21
-137.20571167504312
31
0
0
SPLINE
5
153
100
AcDbEntity
8
0
100
AcDbSpline
70
0
71
3
72
8
73
4
74
0
42
0.000000001
43
0.0000000001
44
0.0000000001
40
2
40
2
40
2
40
2
40
3
40
3
40
3
40
3
10
37.066234387068768
20
-137.20571167504312
30
0
10
37.066234387068768
20
-136.87463799891052
30
0
10
37.33546859924104
20
-136.60557604151253
30
0
10
37.666370020599288
20
-136.60557604151253
30
0
0
LINE
5
154
100
AcDbEntity
8
0
100
AcDbLine
10
37.666370020599288
20
-136.60557604151253
30
0
11
50.666093324641039
21
-136.60557604151253
31
0
0
SPLINE
5
155
100
AcDbEntity
8
0
100
AcDbSpline
70
0
71
3
72
8
73
4
74
0
42
0.000000001
43
0.0000000001
44
0.0000000001
40
4
40
4
40
4
40
4
40
5
40
5
40
5
40
5
10
50.666093324641039
20
-136.60557604151253
30
0
10
50.996822491225018
20
-136.60557604151253
30
0
10
51.266056703397282
20
-136.87463799891052
30
0
10
51.266056703397282
20
-137.20571167504312
30
0
0
LINE
5
156
100
AcDbEntity
8
0
100
AcDbLine
10
75.078556697444156
20
-137.20571167504312
30
0
11
75.078556697444156
21
-150.20509046953629
31
0
0
SPLINE
5
157
100
AcDbEntity
8
0
100
AcDbSpline
70
0
71
3
72
8
73
4
74
0
42
0.000000001
43
0.0000000001
44
0.0000000001
40
6
40
6
40
6
40
6
40
7
40
7
40
7
40
7
10
75.078556697444156
20
-150.20509046953629
30
0
10
75.078556697444156
20
-150.53616414566881
30
0
10
74.809322485271878
20
-150.80522610306679
30
0
10
74.478593318687899
20
-150.80522610306679
30
0
0
LINE
5
158
100
AcDbEntity
8
0
100
AcDbLine
10
74.478593318687899
20
-150.80522610306679
30
0
11
61.478870014646169
21
-150.80522610306679
31
0
0
SPLINE
5
159
100
AcDbEntity
8
0
100
AcDbSpline
70
0
71
3
72
8
73
4
74
0
42
0.000000001
43
0.0000000001
44
0.0000000001
40
0
40
0
40
0
40
0
40
1
40
1
40
1
40
1
10
61.478870014646169
20
-150.80522610306679
30
0
10
61.147968593287914
20
-150.80522610306679
30
0
10
60.878734381115649
20
-150.53616414566881
30
0
10
60.878734381115649
20
-150.20509046953629
30
0
0
LINE
5
160
100
AcDbEntity
8
0
100
AcDbLine
10
60.878734381115649
20
-150.20509046953629
30
0
11
60.878734381115649
21
-137.20571167504312
31
0
0
SPLINE
5
161
100
AcDbEntity
8
0
100
AcDbSpline
70
0
71
3
72
8
73
4
74
0
42
0.000000001
43
0.0000000001
44
0.0000000001
40
2
40
2
40
2
40
2
40
3
40
3
40
3
40
3
10
60.878734381115649
20
-137.20571167504312
30
0
10
60.878734381115649
20
-136.87463799891052
30
0
10
61.147968593287914
20
-136.60557604151253
30
0
10
61.478870014646169
20
-136.60557604151253
30
0
0
LINE
5
162
100
AcDbEntity
8
0
100
AcDbLine
10
61.478870014646169
20
-136.60557604151253
30
0
11
74.478593318687899
21
-136.60557604151253
31
0
0
SPLINE
5
163
100
AcDbEntity
8
0
100
AcDbSpline
70
0
71
3
72
8
73
4
74
0
42
0.000000001
43
0.0000000001
44
0.0000000001
40
4
40
4
40
4
40
4
40
5
40
5
40
5
40
5
10
74.478593318687899
20
-136.60557604151253
30
0
10
74.809322485271878
20
-136.60557604151253
30
0
10
75.078556697444156
20
-136.87463799891052
30
0
10
75.078556697444156
20
-137.20571167504312
30
0
0
LINE
5
164
100
AcDbEntity
8
0
100
AcDbLine
10
237.00355665696293
20
-137.20571167504312
30
0
11
237.00355665696293
21
-150.20509046953629
31
0
0
SPLINE
5
165
100
AcDbEntity
8
0
100
AcDbSpline
70
0
71
3
72
8
73
4
74
0
42
0.000000001
43
0.0000000001
44
0.0000000001
40
6
40
6
40
6
40
6
40
7
40
7
40
7
40
7
10
237.00355665696293
20
-150.20509046953629
30
0
10
237.00355665696293
20
-150.53616414566881
30
0
10
236.73432244479059
20
-150.80522610306679
30
0
10
236.40359327820673
20
-150.80522610306679
30
0
0
LINE
5
166
100
AcDbEntity
8
0
100
AcDbLine
10
236.40359327820673
20
-150.80522610306679
30
0
11
223.40386997416493
21
-150.80522610306679
31
0
0
SPLINE
5
167
100
AcDbEntity
8
0
100
AcDbSpline
70
0
71
3
72
8
73
4
74
0
42
0.000000001
43
0.0000000001
44
0.0000000001
40
0
40
0
40
0
40
0
40
1
40
1
40
1
40
1
10
223.40386997416493
20
-150.80522610306679
30
0
10
223.07296855280671
20
-150.80522610306679
30
0
10
222.80373434063443
20
-150.53616414566881
30
0
10
222.80373434063443
20
-150.20509046953629
30
0
0
LINE
5
168
100
AcDbEntity
8
0
100
AcDbLine
10
222.80373434063443
20
-150.20509046953629
30
0
11
222.80373434063443
21
-137.20571167504312
31
0
0
SPLINE
5
169
100
AcDbEntity
8
0
100
AcDbSpline
70
0
71
3
72
8
73
4
74
0
42
0.000000001
43
0.0000000001
44
0.0000000001
40
2
40
2
40
2
40
2
40
3
40
3
40
3
40
3
10
222.80373434063443
20
-137.20571167504312
30
0
10
222.80373434063443
20
-136.87463799891052
30
0
10
223.07296855280671
20
-136.60557604151253
30
0
10
223.40386997416493
20
-136.60557604151253
30
0
0
LINE
5
170
100
AcDbEntity
8
0
100
AcDbLine
10
223.40386997416493
20
-136.60557604151253
30
0
11
236.40359327820673
21
-136.60557604151253
31
0
0
SPLINE
5
171
100
AcDbEntity
8
0
100
AcDbSpline
70
0
71
3
72
8
73
4
74
0
42
0.000000001
43
0.0000000001
44
0.0000000001
40
4
40
4
40
4
40
4
40
5
40
5
40
5
40
5
10
236.40359327820673
20
-136.60557604151253
30
0
10
236.73432244479059
20
-136.60557604151253
30
0
10
237.00355665696293
20
-136.87463799891052
30
0
10
237.00355665696293
20
-137.20571167504312
30
0
0
LINE
5
172
100
AcDbEntity
8
0
100
AcDbLine
10
260.81605665100983
20
-137.20571167504312
30
0
11
260.81605665100983
21
-150.20509046953629
31
0
0
SPLINE
5
173
100
AcDbEntity
8
0
100
AcDbSpline
70
0
71
3
72
8
73
4
74
0
42
0.000000001
43
0.0000000001
44
0.0000000001
40
6
40
6
40
6
40
6
40
7
40
7
40
7
40
7
10
260.81605665100983
20
-150.20509046953629
30
0
10
260.81605665100983
20
-150.53616414566881
30
0
10
260.54699469361185
20
-150.80522610306679
30
0
10
260.21592101747927
20
-150.80522610306679
30
0
0
LINE
5
174
100
AcDbEntity
8
0
100
AcDbLine
10
260.21592101747922
20
-150.80522610306679
30
0
11
247.21654222298599
21
-150.80522610306679
31
0
0
SPLINE
5
175
100
AcDbEntity
8
0
100
AcDbSpline
70
0
71
3
72
8
73
4
74
0
42
0.000000001
43
0.0000000001
44
0.0000000001
40
0
40
0
40
0
40
0
40
1
40
1
40
1
40
1
10
247.21654222298599
20
-150.80522610306679
30
0
10
246.88546854685359
20
-150.80522610306679
30
0
10
246.61640658945561
20
-150.53616414566881
30
0
10
246.61640658945561
20
-150.20509046953629
30
0
0
LINE
5
176
100
AcDbEntity
8
0
100
AcDbLine
10
246.61640658945561
20
-150.20509046953629
30
0
11
246.61640658945561
21
-137.20571167504312
31
0
0
SPLINE
5
177
100
AcDbEntity
8
0
100
AcDbSpline
70
0
71
3
72
8
73
4
74
0
42
0.000000001
43
0.0000000001
44
0.0000000001
40
2
40
2
40
2
40
2
40
3
40
3
40
3
40
3
10
246.61640658945561
20
-137.20571167504312
30
0
10
246.61640658945561
20
-136.87463799891052
30
0
10
246.88546854685359
20
-136.60557604151253
30
0
10
247.21654222298599
20
-136.60557604151253
30
0
0
LINE
5
178
100
AcDbEntity
8
0
100
AcDbLine
10
247.21654222298605
20
-136.60557604151253
30
0
11
260.21592101747927
21
-136.60557604151253
31
0
0
SPLINE
5
179
100
AcDbEntity
8
0
100
AcDbSpline
70
0
71
3
72
8
73
4
74
0
42
0.000000001
43
0.0000000001
44
0.0000000001
40
4
40
4
40
4
40
4
40
5
40
5
40
5
40
5
10
260.21592101747927
20
-136.60557604151253
30
0
10
260.54699469361185
20
-136.60557604151253
30
0
10
260.81605665100983
20
-136.87463799891052
30
0
10
260.81605665100983
20
-137.20571167504312
30
0
0
LINE
5
180
100
AcDbEntity
8
0
100
AcDbLine
10
284.62855664505673
20
-137.20571167504312
30
0
11
284.62855664505673
21
-150.20509046953629
31
0
0
SPLINE
5
181
100
AcDbEntity
8
0
100
AcDbSpline
70
0
71
3
72
8
73
4
74
0
42
0.000000001
43
0.0000000001
44
0.0000000001
40
6
40
6
40
6
40
6
40
7
40
7
40
7
40
7
10
284.62855664505673
20
-150.20509046953629
30
0
10
284.62855664505673
20
-150.53616414566881
30
0
10
284.35949468765858
20
-150.80522610306679
30
0
10
284.02842101152612
20
-150.80522610306679
30
0
0
LINE
5
182
100
AcDbEntity
8
0
100
AcDbLine
10
284.02842101152612
20
-150.80522610306679
30
0
11
271.02904221703301
21
-150.80522610306679
31
0
0
SPLINE
5
183
100
AcDbEntity
8
0
100
AcDbSpline
70
0
71
3
72
8
73
4
74
0
42
0.000000001
43
0.0000000001
44
0.0000000001
40
0
40
0
40
0
40
0
40
1
40
1
40
1
40
1
10
271.02904221703301
20
-150.80522610306679
30
0
10
270.69796854090038
20
-150.80522610306679
30
0
10
270.4289065835024
20
-150.53616414566881
30
0
10
270.4289065835024
20
-150.20509046953629
30
0
0
LINE
5
184
100
AcDbEntity
8
0
100
AcDbLine
10
270.4289065835024
20
-150.20509046953629
30
0
11
270.4289065835024
21
-137.20571167504312
31
0
0
SPLINE
5
185
100
AcDbEntity
8
0
100
AcDbSpline
70
0
71
3
72
8
73
4
74
0
42
0.000000001
43
0.0000000001
44
0.0000000001
40
2
40
2
40
2
40
2
40
3
40
3
40
3
40
3
10
270.4289065835024
20
-137.20571167504312
30
0
10
270.4289065835024
20
-136.87463799891052
30
0
10
270.69796854090038
20
-136.60557604151253
30
0
10
271.02904221703301
20
-136.60557604151253
30
0
0
LINE
5
186
100
AcDbEntity
8
0
100
AcDbLine
10
271.02904221703307
20
-136.60557604151253
30
0
11
284.02842101152612
21
-136.60557604151253
31
0
0
SPLINE
5
187
100
AcDbEntity
8
0
100
AcDbSpline
70
0
71
3
72
8
73
4
74
0
42
0.000000001
43
0.0000000001
44
0.0000000001
40
4
40
4
40
4
40
4
40
5
40
5
40
5
40
5
10
284.02842101152612
20
-136.60557604151253
30
0
10
284.35949468765858
20
-136.60557604151253
30
0
10
284.62855664505673
20
-136.87463799891052
30
0
10
284.62855664505673
20
-137.20571167504312
30
0
0
LINE
5
188
100
AcDbEntity
8
0
100
AcDbLine
10
65.553556699825407
20
-118.15571167980562
30
0
11
65.553556699825407
21
-131.15509047429879
31
0
0
SPLINE
5
189
100
AcDbEntity
8
0
100
AcDbSpline
70
0
71
3
72
8
73
4
74
0
42
0.000000001
43
0.0000000001
44
0.0000000001
40
6
40
6
40
6
40
6
40
7
40
7
40
7
40
7
10
65.553556699825407
20
-131.15509047429879
30
0
10
65.553556699825407
20
-131.48616415043134
30
0
10
65.284322487653128
20
-131.75522610782929
30
0
10
64.95359332106915
20
-131.75522610782929
30
0
0
LINE
5
190
100
AcDbEntity
8
0
100
AcDbLine
10
64.95359332106915
20
-131.75522610782929
30
0
11
51.953870017027413
21
-131.75522610782929
31
0
0
SPLINE
5
191
100
AcDbEntity
8
0
100
AcDbSpline
70
0
71
3
72
8
73
4
74
0
42
0.000000001
43
0.0000000001
44
0.0000000001
40
0
40
0
40
0
40
0
40
1
40
1
40
1
40
1
10
51.953870017027413
20
-131.75522610782929
30
0
10
51.622968595669157
20
-131.75522610782929
30
0
10
51.353734383496892
20
-131.48616415043134
30
0
10
51.353734383496892
20
-131.15509047429879
30
0
0
LINE
5
192
100
AcDbEntity
8
0
100
AcDbLine
10
51.353734383496892
20
-131.15509047429879
30
0
11
51.353734383496892
21
-118.15571167980562
31
0
0
SPLINE
5
193
100
AcDbEntity
8
0
100
AcDbSpline
70
0
71
3
72
8
73
4
74
0
42
0.000000001
43
0.0000000001
44
0.0000000001
40
2
40
2
40
2
40
2
40
3
40
3
40
3
40
3
10
51.353734383496892
20
-118.15571167980562
30
0
10
51.353734383496892
20
-117.82463800367302
30
0
10
51.622968595669157
20
-117.55557604627499
30
0
10
51.953870017027413
20
-117.55557604627499
30
0
0
LINE
5
194
100
AcDbEntity
8
0
100
AcDbLine
10
51.953870017027413
20
-117.55557604627499
30
0
11
64.95359332106915
21
-117.55557604627499
31
0
0
SPLINE
5
195
100
AcDbEntity
8
0
100
AcDbSpline
70
0
71
3
72
8
73
4
74
0
42
0.000000001
43
0.0000000001
44
0.0000000001
40
4
40
4
40
4
40
4
40
5
40
5
40
5
40
5
10
64.95359332106915
20
-117.55557604627499
30
0
10
65.284322487653128
20
-117.55557604627499
30
0
10
65.553556699825407
20
-117.82463800367302
30
0
10
65.553556699825407
20
-118.15571167980562
30
0
0
LINE
5
196
100
AcDbEntity
8
0
100
AcDbLine
10
84.603556695062906
20
-118.15571167980562
30
0
11
84.603556695062906
21
-131.15509047429879
31
0
0
SPLINE
5
197
100
AcDbEntity
8
0
100
AcDbSpline
70
0
71
3
72
8
73
4
74
0
42
0.000000001
43
0.0000000001
44
0.0000000001
40
6
40
6
40
6
40
6
40
7
40
7
40
7
40
7
10
84.603556695062906
20
-131.15509047429879
30
0
10
84.603556695062906
20
-131.48616415043134
30
0
10
84.334322482890641
20
-131.75522610782929
30
0
10
84.003593316306663
20
-131.75522610782929
30
0
0
LINE
5
198
100
AcDbEntity
8
0
100
AcDbLine
10
84.003593316306663
20
-131.75522610782929
30
0
11
71.003870012264912
21
-131.75522610782929
31
0
0
SPLINE
5
199
100
AcDbEntity
8
0
100
AcDbSpline
70
0
71
3
72
8
73
4
74
0
42
0.000000001
43
0.0000000001
44
0.0000000001
40
0
40
0
40
0
40
0
40
1
40
1
40
1
40
1
10
71.003870012264912
20
-131.75522610782929
30
0
10
70.672968590906663
20
-131.75522610782929
30
0
10
70.403734378734399
20
-131.48616415043134
30
0
10
70.403734378734399
20
-131.15509047429879
30
0
0
LINE
5
200
100
AcDbEntity
8
0
100
AcDbLine
10
70.403734378734399
20
-131.15509047429879
30
0
11
70.403734378734399
21
-118.15571167980562
31
0
0
SPLINE
5
201
100
AcDbEntity
8
0
100
AcDbSpline
70
0
71
3
72
8
73
4
74
0
42
0.000000001
43
0.0000000001
44
0.0000000001
40
2
40
2
40
2
40
2
40
3
40
3
40
3
40
3
10
70.403734378734399
20
-118.15571167980562
30
0
10
70.403734378734399
20
-117.82463800367302
30
0
10
70.672968590906663
20
-117.55557604627499
30
0
10
71.003870012264912
20
-117.55557604627499
30
0
0
LINE
5
202
100
AcDbEntity
8
0
100
AcDbLine
10
71.003870012264912
20
-117.55557604627499
30
0
11
84.003593316306663
21
-117.55557604627499
31
0
0
SPLINE
5
203
100
AcDbEntity
8
0
100
AcDbSpline
70
0
71
3
72
8
73
4
74
0
42
0.000000001
43
0.0000000001
44
0.0000000001
40
4
40
4
40
4
40
4
40
5
40
5
40
5
40
5
10
84.003593316306663
20
-117.55557604627499
30
0
10
84.334322482890641
20
-117.55557604627499
30
0
10
84.603556695062906
20
-117.82463800367302
30
0
10
84.603556695062906
20
-118.15571167980562
30
0
0
LINE
5
204
100
AcDbEntity
8
0
100
AcDbLine
10
103.65355669030041
20
-118.15571167980562
30
0
11
103.65355669030041
21
-131.15509047429879
31
0
0
SPLINE
5
205
100
AcDbEntity
8
0
100
AcDbSpline
70
0
71
3
72
8
73
4
74
0
42
0.000000001
43
0.0000000001
44
0.0000000001
40
6
40
6
40
6
40
6
40
7
40
7
40
7
40
7
10
103.65355669030041
20
-131.15509047429879
30
0
10
103.65355669030041
20
-131.48616415043134
30
0
10
103.38432247812811
20
-131.75522610782929
30
0
10
103.05359331154412
20
-131.75522610782929
30
0
0
LINE
5
206
100
AcDbEntity
8
0
100
AcDbLine
10
103.05359331154412
20
-131.75522610782929
30
0
11
90.053870007502411
21
-131.75522610782929
31
0
0
SPLINE
5
207
100
AcDbEntity
8
0
100
AcDbSpline
70
0
71
3
72
8
73
4
74
0
42
0.000000001
43
0.0000000001
44
0.0000000001
40
0
40
0
40
0
40
0
40
1
40
1
40
1
40
1
10
90.053870007502411
20
-131.75522610782929
30
0
10
89.722968586144162
20
-131.75522610782929
30
0
10
89.453734373971912
20
-131.48616415043134
30
0
10
89.453734373971912
20
-131.15509047429879
30
0
0
LINE
5
208
100
AcDbEntity
8
0
100
AcDbLine
10
89.453734373971912
20
-131.15509047429879
30
0
11
89.453734373971912
21
-118.15571167980562
31
0
0
SPLINE
5
209
100
AcDbEntity
8
0
100
AcDbSpline
70
0
71
3
72
8
73
4
74
0
42
0.000000001
43
0.0000000001
44
0.0000000001
40
2
40
2
40
2
40
2
40
3
40
3
40
3
40
3
10
89.453734373971912
20
-118.15571167980562
30
0
10
89.453734373971912
20
-117.82463800367302
30
0
10
89.722968586144162
20
-117.55557604627499
30
0
10
90.053870007502411
20
-117.55557604627499
30
0
0
LINE
5
210
100
AcDbEntity
8
0
100
AcDbLine
10
90.053870007502411
20
-117.55557604627499
30
0
11
103.05359331154412
21
-117.55557604627499
31
0
0
SPLINE
5
211
100
AcDbEntity
8
0
100
AcDbSpline
70
0
71
3
72
8
73
4
74
0
42
0.000000001
43
0.0000000001
44
0.0000000001
40
4
40
4
40
4
40
4
40
5
40
5
40
5
40
5
10
103.05359331154412
20
-117.55557604627499
30
0
10
103.38432247812811
20
-117.55557604627499
30
0
10
103.65355669030041
20
-117.82463800367302
30
0
10
103.65355669030041
20
-118.15571167980562
30
0
0
LINE
5
212
100
AcDbEntity
8
0
100
AcDbLine
10
122.7035566855379
20
-118.15571167980562
30
0
11
122.7035566855379
21
-131.15509047429879
31
0
0
SPLINE
5
213
100
AcDbEntity
8
0
100
AcDbSpline
70
0
71
3
72
8
73
4
74
0
42
0.000000001
43
0.0000000001
44
0.0000000001
40
6
40
6
40
6
40
6
40
7
40
7
40
7
40
7
10
122.7035566855379
20
-131.15509047429879
30
0
10
122.7035566855379
20
-131.48616415043134
30
0
10
122.4343224733656
20
-131.75522610782929
30
0
10
122.1035933067816
20
-131.75522610782929
30
0
0
LINE
5
214
100
AcDbEntity
8
0
100
AcDbLine
10
122.1035933067816
20
-131.75522610782929
30
0
11
109.10387000273991
21
-131.75522610782929
31
0
0
SPLINE
5
215
100
AcDbEntity
8
0
100
AcDbSpline
70
0
71
3
72
8
73
4
74
0
42
0.000000001
43
0.0000000001
44
0.0000000001
40
0
40
0
40
0
40
0
40
1
40
1
40
1
40
1
10
109.10387000273991
20
-131.75522610782929
30
0
10
108.77296858138172
20
-131.75522610782929
30
0
10
108.5037343692094
20
-131.48616415043134
30
0
10
108.5037343692094
20
-131.15509047429879
30
0
0
LINE
5
216
100
AcDbEntity
8
0
100
AcDbLine
10
108.5037343692094
20
-131.15509047429879
30
0
11
108.5037343692094
21
-118.15571167980562
31
0
0
SPLINE
5
217
100
AcDbEntity
8
0
100
AcDbSpline
70
0
71
3
72
8
73
4
74
0
42
0.000000001
43
0.0000000001
44
0.0000000001
40
2
40
2
40
2
40
2
40
3
40
3
40
3
40
3
10
108.5037343692094
20
-118.15571167980562
30
0
10
108.5037343692094
20
-117.82463800367302
30
0
10
108.77296858138172
20
-117.55557604627499
30
0
10
109.10387000273991
20
-117.55557604627499
30
0
0
LINE
5
218
100
AcDbEntity
8
0
100
AcDbLine
10
109.10387000273991
20
-117.55557604627499
30
0
11
122.1035933067816
21
-117.55557604627499
31
0
0
SPLINE
5
219
100
AcDbEntity
8
0
100
AcDbSpline
70
0
71
3
72
8
73
4
74
0
42
0.000000001
43
0.0000000001
44
0.0000000001
40
4
40
4
40
4
40
4
40
5
40
5
40
5
40
5
10
122.1035933067816
20
-117.55557604627499
30
0
10
122.4343224733656
20
-117.55557604627499
30
0
10
122.7035566855379
20
-117.82463800367302
30
0
10
122.7035566855379
20
-118.15571167980562
30
0
0
LINE
5
220
100
AcDbEntity
8
0
100
AcDbLine
10
141.7535566807754
20
-118.15571167980562
30
0
11
141.7535566807754
21
-131.15509047429879
31
0
0
SPLINE
5
221
100
AcDbEntity
8
0
100
AcDbSpline
70
0
71
3
72
8
73
4
74
0
42
0.000000001
43
0.0000000001
44
0.0000000001
40
6
40
6
40
6
40
6
40
7
40
7
40
7
40
7
10
141.7535566807754
20
-131.15509047429879
30
0
10
141.7535566807754
20
-131.48616415043134
30
0
10
141.4843224686031
20
-131.75522610782929
30
0
10
141.15359330201909
20
-131.75522610782929
30
0
0
LINE
5
222
100
AcDbEntity
8
0
100
AcDbLine
10
141.15359330201909
20
-131.75522610782929
30
0
11
128.15386999797741
21
-131.75522610782929
31
0
0
SPLINE
5
223
100
AcDbEntity
8
0
100
AcDbSpline
70
0
71
3
72
8
73
4
74
0
42
0.000000001
43
0.0000000001
44
0.0000000001
40
0
40
0
40
0
40
0
40
1
40
1
40
1
40
1
10
128.15386999797741
20
-131.75522610782929
30
0
10
127.8229685766192
20
-131.75522610782929
30
0
10
127.55373436444691
20
-131.48616415043134
30
0
10
127.55373436444691
20
-131.15509047429879
30
0
0
LINE
5
224
100
AcDbEntity
8
0
100
AcDbLine
10
127.55373436444691
20
-131.15509047429879
30
0
11
127.55373436444691
21
-118.15571167980562
31
0
0
SPLINE
5
225
100
AcDbEntity
8
0
100
AcDbSpline
70
0
71
3
72
8
73
4
74
0
42
0.000000001
43
0.0000000001
44
0.0000000001
40
2
40
2
40
2
40
2
40
3
40
3
40
3
40
3
10
127.55373436444691
20
-118.15571167980562
30
0
10
127.55373436444691
20
-117.82463800367302
30
0
10
127.8229685766192
20
-117.55557604627499
30
0
10
128.15386999797741
20
-117.55557604627499
30
0
0
LINE
5
226
100
AcDbEntity
8
0
100
AcDbLine
10
128.15386999797741
20
-117.55557604627499
30
0
11
141.15359330201909
21
-117.55557604627499
31
0
0
SPLINE
5
227
100
AcDbEntity
8
0
100
AcDbSpline
70
0
71
3
72
8
73
4
74
0
42
0.000000001
43
0.0000000001
44
0.0000000001
40
4
40
4
40
4
40
4
40
5
40
5
40
5
40
5
10
141.15359330201909
20
-117.55557604627499
30
0
10
141.4843224686031
20
-117.55557604627499
30
0
10
141.7535566807754
20
-117.82463800367302
30
0
10
141.7535566807754
20
-118.15571167980562
30
0
0
LINE
5
228
100
AcDbEntity
8
0
100
AcDbLine
10
160.80355667601293
20
-118.15571167980562
30
0
11
160.80355667601293
21
-131.15509047429879
31
0
0
SPLINE
5
229
100
AcDbEntity
8
0
100
AcDbSpline
70
0
71
3
72
8
73
4
74
0
42
0.000000001
43
0.0000000001
44
0.0000000001
40
6
40
6
40
6
40
6
40
7
40
7
40
7
40
7
10
160.80355667601293
20
-131.15509047429879
30
0
10
160.80355667601293
20
-131.48616415043134
30
0
10
160.53432246384062
20
-131.75522610782929
30
0
10
160.20359329725662
20
-131.75522610782929
30
0
0
LINE
5
230
100
AcDbEntity
8
0
100
AcDbLine
10
160.20359329725662
20
-131.75522610782929
30
0
11
147.20386999321491
21
-131.75522610782929
31
0
0
SPLINE
5
231
100
AcDbEntity
8
0
100
AcDbSpline
70
0
71
3
72
8
73
4
74
0
42
0.000000001
43
0.0000000001
44
0.0000000001
40
0
40
0
40
0
40
0
40
1
40
1
40
1
40
1
10
147.20386999321491
20
-131.75522610782929
30
0
10
146.87296857185669
20
-131.75522610782929
30
0
10
146.60373435968441
20
-131.48616415043134
30
0
10
146.60373435968441
20
-131.15509047429879
30
0
0
LINE
5
232
100
AcDbEntity
8
0
100
AcDbLine
10
146.60373435968441
20
-131.15509047429879
30
0
11
146.60373435968441
21
-118.15571167980562
31
0
0
SPLINE
5
233
100
AcDbEntity
8
0
100
AcDbSpline
70
0
71
3
72
8
73
4
74
0
42
0.000000001
43
0.0000000001
44
0.0000000001
40
2
40
2
40
2
40
2
40
3
40
3
40
3
40
3
10
146.60373435968441
20
-118.15571167980562
30
0
10
146.60373435968441
20
-117.82463800367302
30
0
10
146.87296857185669
20
-117.55557604627499
30
0
10
147.20386999321491
20
-117.55557604627499
30
0
0
LINE
5
234
100
AcDbEntity
8
0
100
AcDbLine
10
147.20386999321491
20
-117.55557604627499
30
0
11
160.20359329725662
21
-117.55557604627499
31
0
0
SPLINE
5
235
100
AcDbEntity
8
0
100
AcDbSpline
70
0
71
3
72
8
73
4
74
0
42
0.000000001
43
0.0000000001
44
0.0000000001
40
4
40
4
40
4
40
4
40
5
40
5
40
5
40
5
10
160.20359329725662
20
-117.55557604627499
30
0
10
160.53432246384062
20
-117.55557604627499
30
0
10
160.80355667601293
20
-117.82463800367302
30
0
10
160.80355667601293
20
-118.15571167980562
30
0
0
LINE
5
236
100
AcDbEntity
8
0
100
AcDbLine
10
179.85355667125043
20
-118.15571167980562
30
0
11
179.85355667125043
21
-131.15509047429879
31
0
0
SPLINE
5
237
100
AcDbEntity
8
0
100
AcDbSpline
70
0
71
3
72
8
73
4
74
0
42
0.000000001
43
0.0000000001
44
0.0000000001
40
6
40
6
40
6
40
6
40
7
40
7
40
7
40
7
10
179.85355667125043
20
-131.15509047429879
30
0
10
179.85355667125043
20
-131.48616415043134
30
0
10
179.58432245907824
20
-131.75522610782929
30
0
10
179.25359329249409
20
-131.75522610782929
30
0
0
LINE
5
238
100
AcDbEntity
8
0
100
AcDbLine
10
179.25359329249409
20
-131.75522610782929
30
0
11
166.25386998845241
21
-131.75522610782929
31
0
0
SPLINE
5
239
100
AcDbEntity
8
0
100
AcDbSpline
70
0
71
3
72
8
73
4
74
0
42
0.000000001
43
0.0000000001
44
0.0000000001
40
0
40
0
40
0
40
0
40
1
40
1
40
1
40
1
10
166.25386998845241
20
-131.75522610782929
30
0
10
165.92296856709422
20
-131.75522610782929
30
0
10
165.65373435492191
20
-131.48616415043134
30
0
10
165.65373435492191
20
-131.15509047429879
30
0
0
LINE
5
240
100
AcDbEntity
8
0
100
AcDbLine
10
165.65373435492191
20
-131.15509047429879
30
0
11
165.65373435492191
21
-118.15571167980562
31
0
0
SPLINE
5
241
100
AcDbEntity
8
0
100
AcDbSpline
70
0
71
3
72
8
73
4
74
0
42
0.000000001
43
0.0000000001
44
0.0000000001
40
2
40
2
40
2
40
2
40
3
40
3
40
3
40
3
10
165.65373435492191
20
-118.15571167980562
30
0
10
165.65373435492191
20
-117.82463800367302
30
0
10
165.92296856709422
20
-117.55557604627499
30
0
10
166.25386998845241
20
-117.55557604627499
30
0
0
LINE
5
242
100
AcDbEntity
8
0
100
AcDbLine
10
166.25386998845241
20
-117.55557604627499
30
0
11
179.25359329249409
21
-117.55557604627499
31
0
0
SPLINE
5
243
100
AcDbEntity
8
0
100
AcDbSpline
70
0
71
3
72
8
73
4
74
0
42
0.000000001
43
0.0000000001
44
0.0000000001
40
4
40
4
40
4
40
4
40
5
40
5
40
5
40
5
10
179.25359329249409
20
-117.55557604627499
30
0
10
179.58432245907824
20
-117.55557604627499
30
0
10
179.85355667125043
20
-117.82463800367302
30
0
10
179.85355667125043
20
-118.15571167980562
30
0
0
LINE
5
244
100
AcDbEntity
8
0
100
AcDbLine
10
198.9035566664879
20
-118.15571167980562
30
0
11
198.9035566664879
21
-131.15509047429879
31
0
0
SPLINE
5
245
100
AcDbEntity
8
0
100
AcDbSpline
70
0
71
3
72
8
73
4
74
0
42
0.000000001
43
0.0000000001
44
0.0000000001
40
6
40
6
40
6
40
6
40
7
40
7
40
7
40
7
10
198.9035566664879
20
-131.15509047429879
30
0
10
198.9035566664879
20
-131.48616415043134
30
0
10
198.63432245431571
20
-131.75522610782929
30
0
10
198.30359328773159
20
-131.75522610782929
30
0
0
LINE
5
246
100
AcDbEntity
8
0
100
AcDbLine
10
198.30359328773159
20
-131.75522610782929
30
0
11
185.30386998368994
21
-131.75522610782929
31
0
0
SPLINE
5
247
100
AcDbEntity
8
0
100
AcDbSpline
70
0
71
3
72
8
73
4
74
0
42
0.000000001
43
0.0000000001
44
0.0000000001
40
0
40
0
40
0
40
0
40
1
40
1
40
1
40
1
10
185.30386998368994
20
-131.75522610782929
30
0
10
184.97296856233169
20
-131.75522610782929
30
0
10
184.70373435015941
20
-131.48616415043134
30
0
10
184.70373435015941
20
-131.15509047429879
30
0
0
LINE
5
248
100
AcDbEntity
8
0
100
AcDbLine
10
184.70373435015941
20
-131.15509047429879
30
0
11
184.70373435015941
21
-118.15571167980562
31
0
0
SPLINE
5
249
100
AcDbEntity
8
0
100
AcDbSpline
70
0
71
3
72
8
73
4
74
0
42
0.000000001
43
0.0000000001
44
0.0000000001
40
2
40
2
40
2
40
2
40
3
40
3
40
3
40
3
10
184.70373435015941
20
-118.15571167980562
30
0
10
184.70373435015941
20
-117.82463800367302
30
0
10
184.97296856233169
20
-117.55557604627499
30
0
10
185.30386998368994
20
-117.55557604627499
30
0
0
LINE
5
250
100
AcDbEntity
8
0
100
AcDbLine
10
185.30386998368994
20
-117.55557604627499
30
0
11
198.30359328773159
21
-117.55557604627499
31
0
0
SPLINE
5
251
100
AcDbEntity
8
0
100
AcDbSpline
70
0
71
3
72
8
73
4
74
0
42
0.000000001
43
0.0000000001
44
0.0000000001
40
4
40
4
40
4
40
4
40
5
40
5
40
5
40
5
10
198.30359328773159
20
-117.55557604627499
30
0
10
198.63432245431571
20
-117.55557604627499
30
0
10
198.9035566664879
20
-117.82463800367302
30
0
10
198.9035566664879
20
-118.15571167980562
30
0
0
LINE
5
252
100
AcDbEntity
8
0
100
AcDbLine
10
217.95355666172543
20
-118.15571167980562
30
0
11
217.95355666172543
21
-131.15509047429879
31
0
0
SPLINE
5
253
100
AcDbEntity
8
0
100
AcDbSpline
70
0
71
3
72
8
73
4
74
0
42
0.000000001
43
0.0000000001
44
0.0000000001
40
6
40
6
40
6
40
6
40
7
40
7
40
7
40
7
10
217.95355666172543
20
-131.15509047429879
30
0
10
217.95355666172543
20
-131.48616415043134
30
0
10
217.68432244955321
20
-131.75522610782929
30
0
10
217.35359328296911
20
-131.75522610782929
30
0
0
LINE
5
254
100
AcDbEntity
8
0
100
AcDbLine
10
217.35359328296911
20
-131.75522610782929
30
0
11
204.35386997892743
21
-131.75522610782929
31
0
0
SPLINE
5
255
100
AcDbEntity
8
0
100
AcDbSpline
70
0
71
3
72
8
73
4
74
0
42
0.000000001
43
0.0000000001
44
0.0000000001
40
0
40
0
40
0
40
0
40
1
40
1
40
1
40
1
10
204.35386997892743
20
-131.75522610782929
30
0
10
204.02296855756919
20
-131.75522610782929
30
0
10
203.75373434539696
20
-131.48616415043134
30
0
10
203.75373434539696
20
-131.15509047429879
30
0
0
LINE
5
256
100
AcDbEntity
8
0
100
AcDbLine
10
203.75373434539696
20
-131.15509047429879
30
0
11
203.75373434539696
21
-118.15571167980562
31
0
0
SPLINE
5
257
100
AcDbEntity
8
0
100
AcDbSpline
70
0
71
3
72
8
73
4
74
0
42
0.000000001
43
0.0000000001
44
0.0000000001
40
2
40
2
40
2
40
2
40
3
40
3
40
3
40
3
10
203.75373434539696
20
-118.15571167980562
30
0
10
203.75373434539696
20
-117.82463800367302
30
0
10
204.02296855756919
20
-117.55557604627499
30
0
10
204.35386997892743
20
-117.55557604627499
30
0
0
LINE
5
258
100
AcDbEntity
8
0
100
AcDbLine
10
204.35386997892743
20
-117.55557604627499
30
0
11
217.35359328296911
21
-117.55557604627499
31
0
0
SPLINE
5
259
100
AcDbEntity
8
0
100
AcDbSpline
70
0
71
3
72
8
73
4
74
0
42
0.000000001
43
0.0000000001
44
0.0000000001
40
4
40
4
40
4
40
4
40
5
40
5
40
5
40
5
10
217.35359328296911
20
-117.55557604627499
30
0
10
217.68432244955321
20
-117.55557604627499
30
0
10
217.95355666172543
20
-117.82463800367302
30
0
10
217.95355666172543
20
-118.15571167980562
30
0
0
LINE
5
260
100
AcDbEntity
8
0
100
AcDbLine
10
237.00355665696293
20
-118.15571167980562
30
0
11
237.00355665696293
21
-131.15509047429879
31
0
0
SPLINE
5
261
100
AcDbEntity
8
0
100
AcDbSpline
70
0
71
3
72
8
73
4
74
0
42
0.000000001
43
0.0000000001
44
0.0000000001
40
6
40
6
40
6
40
6
40
7
40
7
40
7
40
7
10
237.00355665696293
20
-131.15509047429879
30
0
10
237.00355665696293
20
-131.48616415043134
30
0
10
236.73432244479059
20
-131.75522610782929
30
0
10
236.40359327820673
20
-131.75522610782929
30
0
0
LINE
5
262
100
AcDbEntity
8
0
100
AcDbLine
10
236.40359327820673
20
-131.75522610782929
30
0
11
223.40386997416493
21
-131.75522610782929
31
0
0
SPLINE
5
263
100
AcDbEntity
8
0
100
AcDbSpline
70
0
71
3
72
8
73
4
74
0
42
0.000000001
43
0.0000000001
44
0.0000000001
40
0
40
0
40
0
40
0
40
1
40
1
40
1
40
1
10
223.40386997416493
20
-131.75522610782929
30
0
10
223.07296855280671
20
-131.75522610782929
30
0
10
222.80373434063443
20
-131.48616415043134
30
0
10
222.80373434063443
20
-131.15509047429879
30
0
0
LINE
5
264
100
AcDbEntity
8
0
100
AcDbLine
10
222.80373434063443
20
-131.15509047429879
30
0
11
222.80373434063443
21
-118.15571167980562
31
0
0
SPLINE
5
265
100
AcDbEntity
8
0
100
AcDbSpline
70
0
71
3
72
8
73
4
74
0
42
0.000000001
43
0.0000000001
44
0.0000000001
40
2
40
2
40
2
40
2
40
3
40
3
40
3
40
3
10
222.80373434063443
20
-118.15571167980562
30
0
10
222.80373434063443
20
-117.82463800367302
30
0
10
223.07296855280671
20
-117.55557604627499
30
0
10
223.40386997416493
20
-117.55557604627499
30
0
0
LINE
5
266
100
AcDbEntity
8
0
100
AcDbLine
10
223.40386997416493
20
-117.55557604627499
30
0
11
236.40359327820673
21
-117.55557604627499
31
0
0
SPLINE
5
267
100
AcDbEntity
8
0
100
AcDbSpline
70
0
71
3
72
8
73
4
74
0
42
0.000000001
43
0.0000000001
44
0.0000000001
40
4
40
4
40
4
40
4
40
5
40
5
40
5
40
5
10
236.40359327820673
20
-117.55557604627499
30
0
10
236.73432244479059
20
-117.55557604627499
30
0
10
237.00355665696293
20
-117.82463800367302
30
0
10
237.00355665696293
20
-118.15571167980562
30
0
0
LINE
5
268
100
AcDbEntity
8
0
100
AcDbLine
10
29.834806708755103
20
-99.105711684568391
30
0
11
29.834806708755103
21
-112.1050904790613
31
0
0
SPLINE
5
269
100
AcDbEntity
8
0
100
AcDbSpline
70
0
71
3
72
8
73
4
74
0
42
0.000000001
43
0.0000000001
44
0.0000000001
40
6
40
6
40
6
40
6
40
7
40
7
40
7
40
7
10
29.834806708755103
20
-112.1050904790613
30
0
10
29.834806708755103
20
-112.43616415519381
30
0
10
29.565572496582821
20
-112.70522611259182
30
0
10
29.234843329998842
20
-112.70522611259182
30
0
0
LINE
5
270
100
AcDbEntity
8
0
100
AcDbLine
10
29.234843329998842
20
-112.70522611259182
30
0
11
16.233741987763
21
-112.70522611259182
31
0
0
SPLINE
5
271
100
AcDbEntity
8
0
100
AcDbSpline
70
0
71
3
72
8
73
4
74
0
42
0.000000001
43
0.0000000001
44
0.0000000001
40
0
40
0
40
0
40
0
40
1
40
1
40
1
40
1
10
16.233741987763
20
-112.70522611259182
30
0
10
15.90284056640475
20
-112.70522611259182
30
0
10
15.633606354232484
20
-112.43616415519381
30
0
10
15.633606354232484
20
-112.1050904790613
30
0
0
LINE
5
272
100
AcDbEntity
8
0
100
AcDbLine
10
15.633606354232485
20
-112.1050904790613
30
0
11
15.633606354232484
21
-99.105711684568391
31
0
0
SPLINE
5
273
100
AcDbEntity
8
0
100
AcDbSpline
70
0
71
3
72
8
73
4
74
0
42
0.000000001
43
0.0000000001
44
0.0000000001
40
2
40
2
40
2
40
2
40
3
40
3
40
3
40
3
10
15.633606354232484
20
-99.105711684568391
30
0
10
15.633606354232484
20
-98.774638008435872
30
0
10
15.90284056640475
20
-98.505576051037878
30
0
10
16.233741987763
20
-98.505576051037878
30
0
0
LINE
5
274
100
AcDbEntity
8
0
100
AcDbLine
10
16.233741987763004
20
-98.505576051037878
30
0
11
29.234843329998842
21
-98.505576051037878
31
0
0
SPLINE
5
275
100
AcDbEntity
8
0
100
AcDbSpline
70
0
71
3
72
8
73
4
74
0
42
0.000000001
43
0.0000000001
44
0.0000000001
40
4
40
4
40
4
40
4
40
5
40
5
40
5
40
5
10
29.234843329998842
20
-98.505576051037878
30
0
10
29.565572496582821
20
-98.505576051037878
30
0
10
29.834806708755103
20
-98.774638008435872
30
0
10
29.834806708755103
20
-99.105711684568391
30
0
0
LINE
5
276
100
AcDbEntity
8
0
100
AcDbLine
10
56.028556702206664
20
-99.105711684568391
30
0
11
56.028556702206664
21
-112.1050904790613
31
0
0
SPLINE
5
277
100
AcDbEntity
8
0
100
AcDbSpline
70
0
71
3
72
8
73
4
74
0
42
0.000000001
43
0.0000000001
44
0.0000000001
40
6
40
6
40
6
40
6
40
7
40
7
40
7
40
7
10
56.028556702206664
20
-112.1050904790613
30
0
10
56.028556702206664
20
-112.43616415519381
30
0
10
55.7593224900344
20
-112.70522611259182
30
0
10
55.4285933234504
20
-112.70522611259182
30
0
0
LINE
5
278
100
AcDbEntity
8
0
100
AcDbLine
10
55.4285933234504
20
-112.70522611259182
30
0
11
42.428870019408663
21
-112.70522611259182
31
0
0
SPLINE
5
279
100
AcDbEntity
8
0
100
AcDbSpline
70
0
71
3
72
8
73
4
74
0
42
0.000000001
43
0.0000000001
44
0.0000000001
40
0
40
0
40
0
40
0
40
1
40
1
40
1
40
1
10
42.428870019408663
20
-112.70522611259182
30
0
10
42.097968598050414
20
-112.70522611259182
30
0
10
41.82873438587815
20
-112.43616415519381
30
0
10
41.82873438587815
20
-112.1050904790613
30
0
0
LINE
5
280
100
AcDbEntity
8
0
100
AcDbLine
10
41.82873438587815
20
-112.1050904790613
30
0
11
41.82873438587815
21
-99.105711684568391
31
0
0
SPLINE
5
281
100
AcDbEntity
8
0
100
AcDbSpline
70
0
71
3
72
8
73
4
74
0
42
0.000000001
43
0.0000000001
44
0.0000000001
40
2
40
2
40
2
40
2
40
3
40
3
40
3
40
3
10
41.82873438587815
20
-99.105711684568391
30
0
10
41.82873438587815
20
-98.774638008435872
30
0
10
42.097968598050414
20
-98.505576051037878
30
0
10
42.428870019408663
20
-98.505576051037878
30
0
0
LINE
5
282
100
AcDbEntity
8
0
100
AcDbLine
10
42.428870019408663
20
-98.505576051037878
30
0
11
55.4285933234504
21
-98.505576051037878
31
0
0
SPLINE
5
283
100
AcDbEntity
8
0
100
AcDbSpline
70
0
71
3
72
8
73
4
74
0
42
0.000000001
43
0.0000000001
44
0.0000000001
40
4
40
4
40
4
40
4
40
5
40
5
40
5
40
5
10
55.4285933234504
20
-98.505576051037878
30
0
10
55.7593224900344
20
-98.505576051037878
30
0
10
56.028556702206664
20
-98.774638008435872
30
0
10
56.028556702206664
20
-99.105711684568391
30
0
0
LINE
5
284
100
AcDbEntity
8
0
100
AcDbLine
10
75.078556697444156
20
-99.105711684568391
30
0
11
75.078556697444156
21
-112.1050904790613
31
0
0
SPLINE
5
285
100
AcDbEntity
8
0
100
AcDbSpline
70
0
71
3
72
8
73
4
74
0
42
0.000000001
43
0.0000000001
44
0.0000000001
40
6
40
6
40
6
40
6
40
7
40
7
40
7
40
7
10
75.078556697444156
20
-112.1050904790613
30
0
10
75.078556697444156
20
-112.43616415519381
30
0
10
74.809322485271878
20
-112.70522611259182
30
0
10
74.478593318687899
20
-112.70522611259182
30
0
0
LINE
5
286
100
AcDbEntity
8
0
100
AcDbLine
10
74.478593318687899
20
-112.70522611259182
30
0
11
61.478870014646169
21
-112.70522611259182
31
0
0
SPLINE
5
287
100
AcDbEntity
8
0
100
AcDbSpline
70
0
71
3
72
8
73
4
74
0
42
0.000000001
43
0.0000000001
44
0.0000000001
40
0
40
0
40
0
40
0
40
1
40
1
40
1
40
1
10
61.478870014646169
20
-112.70522611259182
30
0
10
61.147968593287914
20
-112.70522611259182
30
0
10
60.878734381115649
20
-112.43616415519381
30
0
10
60.878734381115649
20
-112.1050904790613
30
0
0
LINE
5
288
100
AcDbEntity
8
0
100
AcDbLine
10
60.878734381115649
20
-112.1050904790613
30
0
11
60.878734381115649
21
-99.105711684568391
31
0
0
SPLINE
5
289
100
AcDbEntity
8
0
100
AcDbSpline
70
0
71
3
72
8
73
4
74
0
42
0.000000001
43
0.0000000001
44
0.0000000001
40
2
40
2
40
2
40
2
40
3
40
3
40
3
40
3
10
60.878734381115649
20
-99.105711684568391
30
0
10
60.878734381115649
20
-98.774638008435872
30
0
10
61.147968593287914
20
-98.505576051037878
30
0
10
61.478870014646169
20
-98.505576051037878
30
0
0
LINE
5
290
100
AcDbEntity
8
0
100
AcDbLine
10
61.478870014646169
20
-98.505576051037878
30
0
11
74.478593318687899
21
-98.505576051037878
31
0
0
SPLINE
5
291
100
AcDbEntity
8
0
100
AcDbSpline
70
0
71
3
72
8
73
4
74
0
42
0.000000001
43
0.0000000001
44
0.0000000001
40
4
40
4
40
4
40
4
40
5
40
5
40
5
40
5
10
74.478593318687899
20
-98.505576051037878
30
0
10
74.809322485271878
20
-98.505576051037878
30
0
10
75.078556697444156
20
-98.774638008435872
30
0
10
75.078556697444156
20
-99.105711684568391
30
0
0
LINE
5
292
100
AcDbEntity
8
0
100
AcDbLine
10
94.12855669268167
20
-99.105711684568391
30
0
11
94.12855669268167
21
-112.1050904790613
31
0
0
SPLINE
5
293
100
AcDbEntity
8
0
100
AcDbSpline
70
0
71
3
72
8
73
4
74
0
42
0.000000001
43
0.0000000001
44
0.0000000001
40
6
40
6
40
6
40
6
40
7
40
7
40
7
40
7
10
94.12855669268167
20
-112.1050904790613
30
0
10
94.12855669268167
20
-112.43616415519381
30
0
10
93.859322480509405
20
-112.70522611259182
30
0
10
93.528593313925427
20
-112.70522611259182
30
0
0
LINE
5
294
100
AcDbEntity
8
0
100
AcDbLine
10
93.528593313925427
20
-112.70522611259182
30
0
11
80.528870009883661
21
-112.70522611259182
31
0
0
SPLINE
5
295
100
AcDbEntity
8
0
100
AcDbSpline
70
0
71
3
72
8
73
4
74
0
42
0.000000001
43
0.0000000001
44
0.0000000001
40
0
40
0
40
0
40
0
40
1
40
1
40
1
40
1
10
80.528870009883661
20
-112.70522611259182
30
0
10
80.197968588525427
20
-112.70522611259182
30
0
10
79.928734376353148
20
-112.43616415519381
30
0
10
79.928734376353148
20
-112.1050904790613
30
0
0
LINE
5
296
100
AcDbEntity
8
0
100
AcDbLine
10
79.928734376353148
20
-112.1050904790613
30
0
11
79.928734376353148
21
-99.105711684568391
31
0
0
SPLINE
5
297
100
AcDbEntity
8
0
100
AcDbSpline
70
0
71
3
72
8
73
4
74
0
42
0.000000001
43
0.0000000001
44
0.0000000001
40
2
40
2
40
2
40
2
40
3
40
3
40
3
40
3
10
79.928734376353148
20
-99.105711684568391
30
0
10
79.928734376353148
20
-98.774638008435872
30
0
10
80.197968588525427
20
-98.505576051037878
30
0
10
80.528870009883661
20
-98.505576051037878
30
0
0
LINE
5
298
100
AcDbEntity
8
0
100
AcDbLine
10
80.528870009883661
20
-98.505576051037878
30
0
11
93.528593313925427
21
-98.505576051037878
31
0
0
SPLINE
5
299
100
AcDbEntity
8
0
100
AcDbSpline
70
0
71
3
72
8
73
4
74
0
42
0.000000001
43
0.0000000001
44
0.0000000001
40
4
40
4
40
4
40
4
40
5
40
5
40
5
40
5
10
93.528593313925427
20
-98.505576051037878
30
0
10
93.859322480509405
20
-98.505576051037878
30
0
10
94.12855669268167
20
-98.774638008435872
30
0
10
94.12855669268167
20
-99.105711684568391
30
0
0
LINE
5
300
100
AcDbEntity
8
0
100
AcDbLine
10
113.17855668791921
20
-99.105711684568391
30
0
11
113.17855668791921
21
-112.1050904790613
31
0
0
SPLINE
5
301
100
AcDbEntity
8
0
100
AcDbSpline
70
0
71
3
72
8
73
4
74
0
42
0.000000001
43
0.0000000001
44
0.0000000001
40
6
40
6
40
6
40
6
40
7
40
7
40
7
40
7
10
113.17855668791921
20
-112.1050904790613
30
0
10
113.17855668791921
20
-112.43616415519381
30
0
10
112.9093224757469
20
-112.70522611259182
30
0
10
112.5785933091629
20
-112.70522611259182
30
0
0
LINE
5
302
100
AcDbEntity
8
0
100
AcDbLine
10
112.5785933091629
20
-112.70522611259182
30
0
11
99.578870005121161
21
-112.70522611259182
31
0
0
SPLINE
5
303
100
AcDbEntity
8
0
100
AcDbSpline
70
0
71
3
72
8
73
4
74
0
42
0.000000001
43
0.0000000001
44
0.0000000001
40
0
40
0
40
0
40
0
40
1
40
1
40
1
40
1
10
99.578870005121161
20
-112.70522611259182
30
0
10
99.247968583762912
20
-112.70522611259182
30
0
10
98.978734371590647
20
-112.43616415519381
30
0
10
98.978734371590647
20
-112.1050904790613
30
0
0
LINE
5
304
100
AcDbEntity
8
0
100
AcDbLine
10
98.978734371590647
20
-112.1050904790613
30
0
11
98.978734371590647
21
-99.105711684568391
31
0
0
SPLINE
5
305
100
AcDbEntity
8
0
100
AcDbSpline
70
0
71
3
72
8
73
4
74
0
42
0.000000001
43
0.0000000001
44
0.0000000001
40
2
40
2
40
2
40
2
40
3
40
3
40
3
40
3
10
98.978734371590647
20
-99.105711684568391
30
0
10
98.978734371590647
20
-98.774638008435872
30
0
10
99.247968583762912
20
-98.505576051037878
30
0
10
99.578870005121161
20
-98.505576051037878
30
0
0
LINE
5
306
100
AcDbEntity
8
0
100
AcDbLine
10
99.578870005121161
20
-98.505576051037878
30
0
11
112.5785933091629
21
-98.505576051037878
31
0
0
SPLINE
5
307
100
AcDbEntity
8
0
100
AcDbSpline
70
0
71
3
72
8
73
4
74
0
42
0.000000001
43
0.0000000001
44
0.0000000001
40
4
40
4
40
4
40
4
40
5
40
5
40
5
40
5
10
112.5785933091629
20
-98.505576051037878
30
0
10
112.9093224757469
20
-98.505576051037878
30
0
10
113.17855668791921
20
-98.774638008435872
30
0
10
113.17855668791921
20
-99.105711684568391
30
0
0
LINE
5
308
100
AcDbEntity
8
0
100
AcDbLine
10
132.22855668315671
20
-99.105711684568391
30
0
11
132.22855668315671
21
-112.1050904790613
31
0
0
SPLINE
5
309
100
AcDbEntity
8
0
100
AcDbSpline
70
0
71
3
72
8
73
4
74
0
42
0.000000001
43
0.0000000001
44
0.0000000001
40
6
40
6
40
6
40
6
40
7
40
7
40
7
40
7
10
132.22855668315671
20
-112.1050904790613
30
0
10
132.22855668315671
20
-112.43616415519381
30
0
10
131.9593224709844
20
-112.70522611259182
30
0
10
131.6285933044004
20
-112.70522611259182
30
0
0
LINE
5
310
100
AcDbEntity
8
0
100
AcDbLine
10
131.6285933044004
20
-112.70522611259182
30
0
11
118.62887000035872
21
-112.70522611259182
31
0
0
SPLINE
5
311
100
AcDbEntity
8
0
100
AcDbSpline
70
0
71
3
72
8
73
4
74
0
42
0.000000001
43
0.0000000001
44
0.0000000001
40
0
40
0
40
0
40
0
40
1
40
1
40
1
40
1
10
118.62887000035872
20
-112.70522611259182
30
0
10
118.29796857900041
20
-112.70522611259182
30
0
10
118.0287343668281
20
-112.43616415519381
30
0
10
118.0287343668281
20
-112.1050904790613
30
0
0
LINE
5
312
100
AcDbEntity
8
0
100
AcDbLine
10
118.0287343668281
20
-112.1050904790613
30
0
11
118.0287343668281
21
-99.105711684568391
31
0
0
SPLINE
5
313
100
AcDbEntity
8
0
100
AcDbSpline
70
0
71
3
72
8
73
4
74
0
42
0.000000001
43
0.0000000001
44
0.0000000001
40
2
40
2
40
2
40
2
40
3
40
3
40
3
40
3
10
118.0287343668281
20
-99.105711684568391
30
0
10
118.0287343668281
20
-98.774638008435872
30
0
10
118.29796857900041
20
-98.505576051037878
30
0
10
118.62887000035872
20
-98.505576051037878
30
0
0
LINE
5
314
100
AcDbEntity
8
0
100
AcDbLine
10
118.62887000035872
20
-98.505576051037878
30
0
11
131.6285933044004
21
-98.505576051037878
31
0
0
SPLINE
5
315
100
AcDbEntity
8
0
100
AcDbSpline
70
0
71
3
72
8
73
4
74
0
42
0.000000001
43
0.0000000001
44
0.0000000001
40
4
40
4
40
4
40
4
40
5
40
5
40
5
40
5
10
131.6285933044004
20
-98.505576051037878
30
0
10
131.9593224709844
20
-98.505576051037878
30
0
10
132.22855668315671
20
-98.774638008435872
30
0
10
132.22855668315671
20
-99.105711684568391
30
0
0
LINE
5
316
100
AcDbEntity
8
0
100
AcDbLine
10
151.27855667839421
20
-99.105711684568391
30
0
11
151.27855667839421
21
-112.1050904790613
31
0
0
SPLINE
5
317
100
AcDbEntity
8
0
100
AcDbSpline
70
0
71
3
72
8
73
4
74
0
42
0.000000001
43
0.0000000001
44
0.0000000001
40
6
40
6
40
6
40
6
40
7
40
7
40
7
40
7
10
151.27855667839421
20
-112.1050904790613
30
0
10
151.27855667839421
20
-112.43616415519381
30
0
10
151.0093224662219
20
-112.70522611259182
30
0
10
150.6785932996379
20
-112.70522611259182
30
0
0
LINE
5
318
100
AcDbEntity
8
0
100
AcDbLine
10
150.6785932996379
20
-112.70522611259182
30
0
11
137.67886999559619
21
-112.70522611259182
31
0
0
SPLINE
5
319
100
AcDbEntity
8
0
100
AcDbSpline
70
0
71
3
72
8
73
4
74
0
42
0.000000001
43
0.0000000001
44
0.0000000001
40
0
40
0
40
0
40
0
40
1
40
1
40
1
40
1
10
137.67886999559619
20
-112.70522611259182
30
0
10
137.34796857423791
20
-112.70522611259182
30
0
10
137.07873436206563
20
-112.43616415519381
30
0
10
137.07873436206563
20
-112.1050904790613
30
0
0
LINE
5
320
100
AcDbEntity
8
0
100
AcDbLine
10
137.07873436206563
20
-112.1050904790613
30
0
11
137.07873436206563
21
-99.105711684568391
31
0
0
SPLINE
5
321
100
AcDbEntity
8
0
100
AcDbSpline
70
0
71
3
72
8
73
4
74
0
42
0.000000001
43
0.0000000001
44
0.0000000001
40
2
40
2
40
2
40
2
40
3
40
3
40
3
40
3
10
137.07873436206563
20
-99.105711684568391
30
0
10
137.07873436206563
20
-98.774638008435872
30
0
10
137.34796857423791
20
-98.505576051037878
30
0
10
137.67886999559619
20
-98.505576051037878
30
0
0
LINE
5
322
100
AcDbEntity
8
0
100
AcDbLine
10
137.67886999559619
20
-98.505576051037878
30
0
11
150.6785932996379
21
-98.505576051037878
31
0
0
SPLINE
5
323
100
AcDbEntity
8
0
100
AcDbSpline
70
0
71
3
72
8
73
4
74
0
42
0.000000001
43
0.0000000001
44
0.0000000001
40
4
40
4
40
4
40
4
40
5
40
5
40
5
40
5
10
150.6785932996379
20
-98.505576051037878
30
0
10
151.0093224662219
20
-98.505576051037878
30
0
10
151.27855667839421
20
-98.774638008435872
30
0
10
151.27855667839421
20
-99.105711684568391
30
0
0
LINE
5
324
100
AcDbEntity
8
0
100
AcDbLine
10
170.32855667363177
20
-99.105711684568391
30
0
11
170.32855667363177
21
-112.1050904790613
31
0
0
SPLINE
5
325
100
AcDbEntity
8
0
100
AcDbSpline
70
0
71
3
72
8
73
4
74
0
42
0.000000001
43
0.0000000001
44
0.0000000001
40
6
40
6
40
6
40
6
40
7
40
7
40
7
40
7
10
170.32855667363177
20
-112.1050904790613
30
0
10
170.32855667363177
20
-112.43616415519381
30
0
10
170.05932246145943
20
-112.70522611259182
30
0
10
169.7285932948754
20
-112.70522611259182
30
0
0
LINE
5
326
100
AcDbEntity
8
0
100
AcDbLine
10
169.7285932948754
20
-112.70522611259182
30
0
11
156.72886999083369
21
-112.70522611259182
31
0
0
SPLINE
5
327
100
AcDbEntity
8
0
100
AcDbSpline
70
0
71
3
72
8
73
4
74
0
42
0.000000001
43
0.0000000001
44
0.0000000001
40
0
40
0
40
0
40
0
40
1
40
1
40
1
40
1
10
156.72886999083369
20
-112.70522611259182
30
0
10
156.39796856947541
20
-112.70522611259182
30
0
10
156.12873435730319
20
-112.43616415519381
30
0
10
156.12873435730319
20
-112.1050904790613
30
0
0
LINE
5
328
100
AcDbEntity
8
0
100
AcDbLine
10
156.12873435730319
20
-112.1050904790613
30
0
11
156.12873435730319
21
-99.105711684568391
31
0
0
SPLINE
5
329
100
AcDbEntity
8
0
100
AcDbSpline
70
0
71
3
72
8
73
4
74
0
42
0.000000001
43
0.0000000001
44
0.0000000001
40
2
40
2
40
2
40
2
40
3
40
3
40
3
40
3
10
156.12873435730319
20
-99.105711684568391
30
0
10
156.12873435730319
20
-98.774638008435872
30
0
10
156.39796856947541
20
-98.505576051037878
30
0
10
156.72886999083369
20
-98.505576051037878
30
0
0
LINE
5
330
100
AcDbEntity
8
0
100
AcDbLine
10
156.72886999083369
20
-98.505576051037878
30
0
11
169.7285932948754
21
-98.505576051037878
31
0
0
SPLINE
5
331
100
AcDbEntity
8
0
100
AcDbSpline
70
0
71
3
72
8
73
4
74
0
42
0.000000001
43
0.0000000001
44
0.0000000001
40
4
40
4
40
4
40
4
40
5
40
5
40
5
40
5
10
169.7285932948754
20
-98.505576051037878
30
0
10
170.05932246145943
20
-98.505576051037878
30
0
10
170.32855667363177
20
-98.774638008435872
30
0
10
170.32855667363177
20
-99.105711684568391
30
0
0
LINE
5
332
100
AcDbEntity
8
0
100
AcDbLine
10
189.37855666886921
20
-99.105711684568391
30
0
11
189.37855666886921
21
-112.1050904790613
31
0
0
SPLINE
5
333
100
AcDbEntity
8
0
100
AcDbSpline
70
0
71
3
72
8
73
4
74
0
42
0.000000001
43
0.0000000001
44
0.0000000001
40
6
40
6
40
6
40
6
40
7
40
7
40
7
40
7
10
189.37855666886921
20
-112.1050904790613
30
0
10
189.37855666886921
20
-112.43616415519381
30
0
10
189.10932245669693
20
-112.70522611259182
30
0
10
188.77859329011289
20
-112.70522611259182
30
0
0
LINE
5
334
100
AcDbEntity
8
0
100
AcDbLine
10
188.77859329011289
20
-112.70522611259182
30
0
11
175.77886998607124
21
-112.70522611259182
31
0
0
SPLINE
5
335
100
AcDbEntity
8
0
100
AcDbSpline
70
0
71
3
72
8
73
4
74
0
42
0.000000001
43
0.0000000001
44
0.0000000001
40
0
40
0
40
0
40
0
40
1
40
1
40
1
40
1
10
175.77886998607124
20
-112.70522611259182
30
0
10
175.44796856471294
20
-112.70522611259182
30
0
10
175.17873435254072
20
-112.43616415519381
30
0
10
175.17873435254072
20
-112.1050904790613
30
0
0
LINE
5
336
100
AcDbEntity
8
0
100
AcDbLine
10
175.17873435254072
20
-112.1050904790613
30
0
11
175.17873435254072
21
-99.105711684568391
31
0
0
SPLINE
5
337
100
AcDbEntity
8
0
100
AcDbSpline
70
0
71
3
72
8
73
4
74
0
42
0.000000001
43
0.0000000001
44
0.0000000001
40
2
40
2
40
2
40
2
40
3
40
3
40
3
40
3
10
175.17873435254072
20
-99.105711684568391
30
0
10
175.17873435254072
20
-98.774638008435872
30
0
10
175.44796856471294
20
-98.505576051037878
30
0
10
175.77886998607124
20
-98.505576051037878
30
0
0
LINE
5
338
100
AcDbEntity
8
0
100
AcDbLine
10
175.77886998607124
20
-98.505576051037878
30
0
11
188.77859329011289
21
-98.505576051037878
31
0
0
SPLINE
5
339
100
AcDbEntity
8
0
100
AcDbSpline
70
0
71
3
72
8
73
4
74
0
42
0.000000001
43
0.0000000001
44
0.0000000001
40
4
40
4
40
4
40
4
40
5
40
5
40
5
40
5
10
188.77859329011289
20
-98.505576051037878
30
0
10
189.10932245669693
20
-98.505576051037878
30
0
10
189.37855666886921
20
-98.774638008435872
30
0
10
189.37855666886921
20
-99.105711684568391
30
0
0
LINE
5
340
100
AcDbEntity
8
0
100
AcDbLine
10
208.42855666410671
20
-99.105711684568391
30
0
11
208.42855666410671
21
-112.1050904790613
31
0
0
SPLINE
5
341
100
AcDbEntity
8
0
100
AcDbSpline
70
0
71
3
72
8
73
4
74
0
42
0.000000001
43
0.0000000001
44
0.0000000001
40
6
40
6
40
6
40
6
40
7
40
7
40
7
40
7
10
208.42855666410671
20
-112.1050904790613
30
0
10
208.42855666410671
20
-112.43616415519381
30
0
10
208.1593224519344
20
-112.70522611259182
30
0
10
207.82859328535039
20
-112.70522611259182
30
0
0
LINE
5
342
100
AcDbEntity
8
0
100
AcDbLine
10
207.82859328535039
20
-112.70522611259182
30
0
11
194.82886998130874
21
-112.70522611259182
31
0
0
SPLINE
5
343
100
AcDbEntity
8
0
100
AcDbSpline
70
0
71
3
72
8
73
4
74
0
42
0.000000001
43
0.0000000001
44
0.0000000001
40
0
40
0
40
0
40
0
40
1
40
1
40
1
40
1
10
194.82886998130874
20
-112.70522611259182
30
0
10
194.49796855995044
20
-112.70522611259182
30
0
10
194.22873434777819
20
-112.43616415519381
30
0
10
194.22873434777819
20
-112.1050904790613
30
0
0
LINE
5
344
100
AcDbEntity
8
0
100
AcDbLine
10
194.22873434777819
20
-112.1050904790613
30
0
11
194.22873434777819
21
-99.105711684568391
31
0
0
SPLINE
5
345
100
AcDbEntity
8
0
100
AcDbSpline
70
0
71
3
72
8
73
4
74
0
42
0.000000001
43
0.0000000001
44
0.0000000001
40
2
40
2
40
2
40
2
40
3
40
3
40
3
40
3
10
194.22873434777819
20
-99.105711684568391
30
0
10
194.22873434777819
20
-98.774638008435872
30
0
10
194.49796855995044
20
-98.505576051037878
30
0
10
194.82886998130874
20
-98.505576051037878
30
0
0
LINE
5
346
100
AcDbEntity
8
0
100
AcDbLine
10
194.82886998130874
20
-98.505576051037878
30
0
11
207.82859328535039
21
-98.505576051037878
31
0
0
SPLINE
5
347
100
AcDbEntity
8
0
100
AcDbSpline
70
0
71
3
72
8
73
4
74
0
42
0.000000001
43
0.0000000001
44
0.0000000001
40
4
40
4
40
4
40
4
40
5
40
5
40
5
40
5
10
207.82859328535039
20
-98.505576051037878
30
0
10
208.1593224519344
20
-98.505576051037878
30
0
10
208.42855666410671
20
-98.774638008435872
30
0
10
208.42855666410671
20
-99.105711684568391
30
0
0
LINE
5
348
100
AcDbEntity
8
0
100
AcDbLine
10
227.47855665934424
20
-99.105711684568391
30
0
11
227.47855665934424
21
-112.1050904790613
31
0
0
SPLINE
5
349
100
AcDbEntity
8
0
100
AcDbSpline
70
0
71
3
72
8
73
4
74
0
42
0.000000001
43
0.0000000001
44
0.0000000001
40
6
40
6
40
6
40
6
40
7
40
7
40
7
40
7
10
227.47855665934424
20
-112.1050904790613
30
0
10
227.47855665934424
20
-112.43616415519381
30
0
10
227.2093224471719
20
-112.70522611259182
30
0
10
226.87859328058792
20
-112.70522611259182
30
0
0
LINE
5
350
100
AcDbEntity
8
0
100
AcDbLine
10
226.87859328058792
20
-112.70522611259182
30
0
11
213.87886997654621
21
-112.70522611259182
31
0
0
SPLINE
5
351
100
AcDbEntity
8
0
100
AcDbSpline
70
0
71
3
72
8
73
4
74
0
42
0.000000001
43
0.0000000001
44
0.0000000001
40
0
40
0
40
0
40
0
40
1
40
1
40
1
40
1
10
213.87886997654621
20
-112.70522611259182
30
0
10
213.54796855518794
20
-112.70522611259182
30
0
10
213.27873434301574
20
-112.43616415519381
30
0
10
213.27873434301574
20
-112.1050904790613
30
0
0
LINE
5
352
100
AcDbEntity
8
0
100
AcDbLine
10
213.27873434301574
20
-112.1050904790613
30
0
11
213.27873434301574
21
-99.105711684568391
31
0
0
SPLINE
5
353
100
AcDbEntity
8
0
100
AcDbSpline
70
0
71
3
72
8
73
4
74
0
42
0.000000001
43
0.0000000001
44
0.0000000001
40
2
40
2
40
2
40
2
40
3
40
3
40
3
40
3
10
213.27873434301574
20
-99.105711684568391
30
0
10
213.27873434301574
20
-98.774638008435872
30
0
10
213.54796855518794
20
-98.505576051037878
30
0
10
213.87886997654621
20
-98.505576051037878
30
0
0
LINE
5
354
100
AcDbEntity
8
0
100
AcDbLine
10
213.87886997654621
20
-98.505576051037878
30
0
11
226.87859328058792
21
-98.505576051037878
31
0
0
SPLINE
5
355
100
AcDbEntity
8
0
100
AcDbSpline
70
0
71
3
72
8
73
4
74
0
42
0.000000001
43
0.0000000001
44
0.0000000001
40
4
40
4
40
4
40
4
40
5
40
5
40
5
40
5
10
226.87859328058792
20
-98.505576051037878
30
0
10
227.2093224471719
20
-98.505576051037878
30
0
10
227.47855665934424
20
-98.774638008435872
30
0
10
227.47855665934424
20
-99.105711684568391
30
0
0
LINE
5
356
100
AcDbEntity
8
0
100
AcDbLine
10
246.52855665458173
20
-99.105711684568391
30
0
11
246.52855665458173
21
-112.1050904790613
31
0
0
SPLINE
5
357
100
AcDbEntity
8
0
100
AcDbSpline
70
0
71
3
72
8
73
4
74
0
42
0.000000001
43
0.0000000001
44
0.0000000001
40
6
40
6
40
6
40
6
40
7
40
7
40
7
40
7
10
246.52855665458173
20
-112.1050904790613
30
0
10
246.52855665458173
20
-112.43616415519381
30
0
10
246.25949469718364
20
-112.70522611259182
30
0
10
245.92842102105124
20
-112.70522611259182
30
0
0
LINE
5
358
100
AcDbEntity
8
0
100
AcDbLine
10
245.92842102105121
20
-112.70522611259182
30
0
11
232.92886997178371
21
-112.70522611259182
31
0
0
SPLINE
5
359
100
AcDbEntity
8
0
100
AcDbSpline
70
0
71
3
72
8
73
4
74
0
42
0.000000001
43
0.0000000001
44
0.0000000001
40
0
40
0
40
0
40
0
40
1
40
1
40
1
40
1
10
232.92886997178371
20
-112.70522611259182
30
0
10
232.59796855042541
20
-112.70522611259182
30
0
10
232.32873433825321
20
-112.43616415519381
30
0
10
232.32873433825321
20
-112.1050904790613
30
0
0
LINE
5
360
100
AcDbEntity
8
0
100
AcDbLine
10
232.32873433825321
20
-112.1050904790613
30
0
11
232.32873433825321
21
-99.105711684568391
31
0
0
SPLINE
5
361
100
AcDbEntity
8
0
100
AcDbSpline
70
0
71
3
72
8
73
4
74
0
42
0.000000001
43
0.0000000001
44
0.0000000001
40
2
40
2
40
2
40
2
40
3
40
3
40
3
40
3
10
232.32873433825321
20
-99.105711684568391
30
0
10
232.32873433825321
20
-98.774638008435872
30
0
10
232.59796855042541
20
-98.505576051037878
30
0
10
232.92886997178371
20
-98.505576051037878
30
0
0
LINE
5
362
100
AcDbEntity
8
0
100
AcDbLine
10
232.92886997178371
20
-98.505576051037878
30
0
11
245.92842102105124
21
-98.505576051037878
31
0
0
SPLINE
5
363
100
AcDbEntity
8
0
100
AcDbSpline
70
0
71
3
72
8
73
4
74
0
42
0.000000001
43
0.0000000001
44
0.0000000001
40
4
40
4
40
4
40
4
40
5
40
5
40
5
40
5
10
245.92842102105124
20
-98.505576051037878
30
0
10
246.25949469718364
20
-98.505576051037878
30
0
10
246.52855665458173
20
-98.774638008435872
30
0
10
246.52855665458173
20
-99.105711684568391
30
0
0
LINE
5
364
100
AcDbEntity
8
0
100
AcDbLine
10
27.453556709350408
20
-80.055711689330892
30
0
11
27.453556709350408
21
-93.055090483824102
31
0
0
SPLINE
5
365
100
AcDbEntity
8
0
100
AcDbSpline
70
0
71
3
72
8
73
4
74
0
42
0.000000001
43
0.0000000001
44
0.0000000001
40
6
40
6
40
6
40
6
40
7
40
7
40
7
40
7
10
27.453556709350408
20
-93.055090483824102
30
0
10
27.453556709350408
20
-93.386164159956593
30
0
10
27.18432249717813
20
-93.65522611735463
30
0
10
26.853593330594151
20
-93.65522611735463
30
0
0
LINE
5
366
100
AcDbEntity
8
0
100
AcDbLine
10
26.853593330594151
20
-93.65522611735463
30
0
11
13.853870026552411
21
-93.65522611735463
31
0
0
SPLINE
5
367
100
AcDbEntity
8
0
100
AcDbSpline
70
0
71
3
72
8
73
4
74
0
42
0.000000001
43
0.0000000001
44
0.0000000001
40
0
40
0
40
0
40
0
40
1
40
1
40
1
40
1
10
13.853870026552411
20
-93.65522611735463
30
0
10
13.522968605194162
20
-93.65522611735463
30
0
10
13.253734393021892
20
-93.386164159956593
30
0
10
13.253734393021892
20
-93.055090483824102
30
0
0
LINE
5
368
100
AcDbEntity
8
0
100
AcDbLine
10
13.253734393021894
20
-93.055090483824102
30
0
11
13.253734393021892
21
-80.055711689330892
31
0
0
SPLINE
5
369
100
AcDbEntity
8
0
100
AcDbSpline
70
0
71
3
72
8
73
4
74
0
42
0.000000001
43
0.0000000001
44
0.0000000001
40
2
40
2
40
2
40
2
40
3
40
3
40
3
40
3
10
13.253734393021892
20
-80.055711689330892
30
0
10
13.253734393021892
20
-79.724638013198373
30
0
10
13.522968605194162
20
-79.45557605580035
30
0
10
13.853870026552411
20
-79.45557605580035
30
0
0
LINE
5
370
100
AcDbEntity
8
0
100
AcDbLine
10
13.853870026552412
20
-79.45557605580035
30
0
11
26.853593330594151
21
-79.45557605580035
31
0
0
SPLINE
5
371
100
AcDbEntity
8
0
100
AcDbSpline
70
0
71
3
72
8
73
4
74
0
42
0.000000001
43
0.0000000001
44
0.0000000001
40
4
40
4
40
4
40
4
40
5
40
5
40
5
40
5
10
26.853593330594151
20
-79.45557605580035
30
0
10
27.18432249717813
20
-79.45557605580035
30
0
10
27.453556709350408
20
-79.724638013198373
30
0
10
27.453556709350408
20
-80.055711689330892
30
0
0
LINE
5
372
100
AcDbEntity
8
0
100
AcDbLine
10
51.266056703397282
20
-80.055711689330892
30
0
11
51.266056703397282
21
-93.055090483824102
31
0
0
SPLINE
5
373
100
AcDbEntity
8
0
100
AcDbSpline
70
0
71
3
72
8
73
4
74
0
42
0.000000001
43
0.0000000001
44
0.0000000001
40
6
40
6
40
6
40
6
40
7
40
7
40
7
40
7
10
51.266056703397282
20
-93.055090483824102
30
0
10
51.266056703397282
20
-93.386164159956593
30
0
10
50.996822491225018
20
-93.65522611735463
30
0
10
50.666093324641039
20
-93.65522611735463
30
0
0
LINE
5
374
100
AcDbEntity
8
0
100
AcDbLine
10
50.666093324641039
20
-93.65522611735463
30
0
11
37.666370020599288
21
-93.65522611735463
31
0
0
SPLINE
5
375
100
AcDbEntity
8
0
100
AcDbSpline
70
0
71
3
72
8
73
4
74
0
42
0.000000001
43
0.0000000001
44
0.0000000001
40
0
40
0
40
0
40
0
40
1
40
1
40
1
40
1
10
37.666370020599288
20
-93.65522611735463
30
0
10
37.33546859924104
20
-93.65522611735463
30
0
10
37.066234387068768
20
-93.386164159956593
30
0
10
37.066234387068768
20
-93.055090483824102
30
0
0
LINE
5
376
100
AcDbEntity
8
0
100
AcDbLine
10
37.066234387068768
20
-93.055090483824102
30
0
11
37.066234387068768
21
-80.055711689330892
31
0
0
SPLINE
5
377
100
AcDbEntity
8
0
100
AcDbSpline
70
0
71
3
72
8
73
4
74
0
42
0.000000001
43
0.0000000001
44
0.0000000001
40
2
40
2
40
2
40
2
40
3
40
3
40
3
40
3
10
37.066234387068768
20
-80.055711689330892
30
0
10
37.066234387068768
20
-79.724638013198373
30
0
10
37.33546859924104
20
-79.45557605580035
30
0
10
37.666370020599288
20
-79.45557605580035
30
0
0
LINE
5
378
100
AcDbEntity
8
0
100
AcDbLine
10
37.666370020599288
20
-79.45557605580035
30
0
11
50.666093324641039
21
-79.45557605580035
31
0
0
SPLINE
5
379
100
AcDbEntity
8
0
100
AcDbSpline
70
0
71
3
72
8
73
4
74
0
42
0.000000001
43
0.0000000001
44
0.0000000001
40
4
40
4
40
4
40
4
40
5
40
5
40
5
40
5
10
50.666093324641039
20
-79.45557605580035
30
0
10
50.996822491225018
20
-79.45557605580035
30
0
10
51.266056703397282
20
-79.724638013198373
30
0
10
51.266056703397282
20
-80.055711689330892
30
0
0
LINE
5
380
100
AcDbEntity
8
0
100
AcDbLine
10
70.316056698634782
20
-80.055711689330892
30
0
11
70.316056698634782
21
-93.055090483824102
31
0
0
SPLINE
5
381
100
AcDbEntity
8
0
100
AcDbSpline
70
0
71
3
72
8
73
4
74
0
42
0.000000001
43
0.0000000001
44
0.0000000001
40
6
40
6
40
6
40
6
40
7
40
7
40
7
40
7
10
70.316056698634782
20
-93.055090483824102
30
0
10
70.316056698634782
20
-93.386164159956593
30
0
10
70.046822486462503
20
-93.65522611735463
30
0
10
69.716093319878524
20
-93.65522611735463
30
0
0
LINE
5
382
100
AcDbEntity
8
0
100
AcDbLine
10
69.716093319878524
20
-93.65522611735463
30
0
11
56.716370015836794
21
-93.65522611735463
31
0
0
SPLINE
5
383
100
AcDbEntity
8
0
100
AcDbSpline
70
0
71
3
72
8
73
4
74
0
42
0.000000001
43
0.0000000001
44
0.0000000001
40
0
40
0
40
0
40
0
40
1
40
1
40
1
40
1
10
56.716370015836794
20
-93.65522611735463
30
0
10
56.385468594478539
20
-93.65522611735463
30
0
10
56.116234382306274
20
-93.386164159956593
30
0
10
56.116234382306274
20
-93.055090483824102
30
0
0
LINE
5
384
100
AcDbEntity
8
0
100
AcDbLine
10
56.116234382306274
20
-93.055090483824102
30
0
11
56.116234382306274
21
-80.055711689330892
31
0
0
SPLINE
5
385
100
AcDbEntity
8
0
100
AcDbSpline
70
0
71
3
72
8
73
4
74
0
42
0.000000001
43
0.0000000001
44
0.0000000001
40
2
40
2
40
2
40
2
40
3
40
3
40
3
40
3
10
56.116234382306274
20
-80.055711689330892
30
0
10
56.116234382306274
20
-79.724638013198373
30
0
10
56.385468594478539
20
-79.45557605580035
30
0
10
56.716370015836794
20
-79.45557605580035
30
0
0
LINE
5
386
100
AcDbEntity
8
0
100
AcDbLine
10
56.716370015836794
20
-79.45557605580035
30
0
11
69.716093319878524
21
-79.45557605580035
31
0
0
SPLINE
5
387
100
AcDbEntity
8
0
100
AcDbSpline
70
0
71
3
72
8
73
4
74
0
42
0.000000001
43
0.0000000001
44
0.0000000001
40
4
40
4
40
4
40
4
40
5
40
5
40
5
40
5
10
69.716093319878524
20
-79.45557605580035
30
0
10
70.046822486462503
20
-79.45557605580035
30
0
10
70.316056698634782
20
-79.724638013198373
30
0
10
70.316056698634782
20
-80.055711689330892
30
0
0
LINE
5
388
100
AcDbEntity
8
0
100
AcDbLine
10
89.366056693872281
20
-80.055711689330892
30
0
11
89.366056693872281
21
-93.055090483824102
31
0
0
SPLINE
5
389
100
AcDbEntity
8
0
100
AcDbSpline
70
0
71
3
72
8
73
4
74
0
42
0.000000001
43
0.0000000001
44
0.0000000001
40
6
40
6
40
6
40
6
40
7
40
7
40
7
40
7
10
89.366056693872281
20
-93.055090483824102
30
0
10
89.366056693872281
20
-93.386164159956593
30
0
10
89.096822481700016
20
-93.65522611735463
30
0
10
88.766093315116024
20
-93.65522611735463
30
0
0
LINE
5
390
100
AcDbEntity
8
0
100
AcDbLine
10
88.766093315116024
20
-93.65522611735463
30
0
11
75.766370011074301
21
-93.65522611735463
31
0
0
SPLINE
5
391
100
AcDbEntity
8
0
100
AcDbSpline
70
0
71
3
72
8
73
4
74
0
42
0.000000001
43
0.0000000001
44
0.0000000001
40
0
40
0
40
0
40
0
40
1
40
1
40
1
40
1
10
75.766370011074301
20
-93.65522611735463
30
0
10
75.435468589716066
20
-93.65522611735463
30
0
10
75.166234377543773
20
-93.386164159956593
30
0
10
75.166234377543773
20
-93.055090483824102
30
0
0
LINE
5
392
100
AcDbEntity
8
0
100
AcDbLine
10
75.166234377543773
20
-93.055090483824102
30
0
11
75.166234377543773
21
-80.055711689330892
31
0
0
SPLINE
5
393
100
AcDbEntity
8
0
100
AcDbSpline
70
0
71
3
72
8
73
4
74
0
42
0.000000001
43
0.0000000001
44
0.0000000001
40
2
40
2
40
2
40
2
40
3
40
3
40
3
40
3
10
75.166234377543773
20
-80.055711689330892
30
0
10
75.166234377543773
20
-79.724638013198373
30
0
10
75.435468589716066
20
-79.45557605580035
30
0
10
75.766370011074301
20
-79.45557605580035
30
0
0
LINE
5
394
100
AcDbEntity
8
0
100
AcDbLine
10
75.766370011074301
20
-79.45557605580035
30
0
11
88.766093315116024
21
-79.45557605580035
31
0
0
SPLINE
5
395
100
AcDbEntity
8
0
100
AcDbSpline
70
0
71
3
72
8
73
4
74
0
42
0.000000001
43
0.0000000001
44
0.0000000001
40
4
40
4
40
4
40
4
40
5
40
5
40
5
40
5
10
88.766093315116024
20
-79.45557605580035
30
0
10
89.096822481700016
20
-79.45557605580035
30
0
10
89.366056693872281
20
-79.724638013198373
30
0
10
89.366056693872281
20
-80.055711689330892
30
0
0
LINE
5
396
100
AcDbEntity
8
0
100
AcDbLine
10
108.41605668910979
20
-80.055711689330892
30
0
11
108.41605668910979
21
-93.055090483824102
31
0
0
SPLINE
5
397
100
AcDbEntity
8
0
100
AcDbSpline
70
0
71
3
72
8
73
4
74
0
42
0.000000001
43
0.0000000001
44
0.0000000001
40
6
40
6
40
6
40
6
40
7
40
7
40
7
40
7
10
108.41605668910979
20
-93.055090483824102
30
0
10
108.41605668910979
20
-93.386164159956593
30
0
10
108.14682247693752
20
-93.65522611735463
30
0
10
107.81609331035349
20
-93.65522611735463
30
0
0
LINE
5
398
100
AcDbEntity
8
0
100
AcDbLine
10
107.81609331035349
20
-93.65522611735463
30
0
11
94.8163700063118
21
-93.65522611735463
31
0
0
SPLINE
5
399
100
AcDbEntity
8
0
100
AcDbSpline
70
0
71
3
72
8
73
4
74
0
42
0.000000001
43
0.0000000001
44
0.0000000001
40
0
40
0
40
0
40
0
40
1
40
1
40
1
40
1
10
94.8163700063118
20
-93.65522611735463
30
0
10
94.485468584953537
20
-93.65522611735463
30
0
10
94.216234372781273
20
-93.386164159956593
30
0
10
94.216234372781273
20
-93.055090483824102
30
0
0
LINE
5
400
100
AcDbEntity
8
0
100
AcDbLine
10
94.216234372781273
20
-93.055090483824102
30
0
11
94.216234372781273
21
-80.055711689330892
31
0
0
SPLINE
5
401
100
AcDbEntity
8
0
100
AcDbSpline
70
0
71
3
72
8
73
4
74
0
42
0.000000001
43
0.0000000001
44
0.0000000001
40
2
40
2
40
2
40
2
40
3
40
3
40
3
40
3
10
94.216234372781273
20
-80.055711689330892
30
0
10
94.216234372781273
20
-79.724638013198373
30
0
10
94.485468584953537
20
-79.45557605580035
30
0
10
94.8163700063118
20
-79.45557605580035
30
0
0
LINE
5
402
100
AcDbEntity
8
0
100
AcDbLine
10
94.8163700063118
20
-79.45557605580035
30
0
11
107.81609331035349
21
-79.45557605580035
31
0
0
SPLINE
5
403
100
AcDbEntity
8
0
100
AcDbSpline
70
0
71
3
72
8
73
4
74
0
42
0.000000001
43
0.0000000001
44
0.0000000001
40
4
40
4
40
4
40
4
40
5
40
5
40
5
40
5
10
107.81609331035349
20
-79.45557605580035
30
0
10
108.14682247693752
20
-79.45557605580035
30
0
10
108.41605668910979
20
-79.724638013198373
30
0
10
108.41605668910979
20
-80.055711689330892
30
0
0
LINE
5
404
100
AcDbEntity
8
0
100
AcDbLine
10
127.46605668434731
20
-80.055711689330892
30
0
11
127.46605668434731
21
-93.055090483824102
31
0
0
SPLINE
5
405
100
AcDbEntity
8
0
100
AcDbSpline
70
0
71
3
72
8
73
4
74
0
42
0.000000001
43
0.0000000001
44
0.0000000001
40
6
40
6
40
6
40
6
40
7
40
7
40
7
40
7
10
127.46605668434731
20
-93.055090483824102
30
0
10
127.46605668434731
20
-93.386164159956593
30
0
10
127.19682247217503
20
-93.65522611735463
30
0
10
126.86609330559101
20
-93.65522611735463
30
0
0
LINE
5
406
100
AcDbEntity
8
0
100
AcDbLine
10
126.86609330559101
20
-93.65522611735463
30
0
11
113.86637000154931
21
-93.65522611735463
31
0
0
SPLINE
5
407
100
AcDbEntity
8
0
100
AcDbSpline
70
0
71
3
72
8
73
4
74
0
42
0.000000001
43
0.0000000001
44
0.0000000001
40
0
40
0
40
0
40
0
40
1
40
1
40
1
40
1
10
113.86637000154931
20
-93.65522611735463
30
0
10
113.53546858019109
20
-93.65522611735463
30
0
10
113.26623436801881
20
-93.386164159956593
30
0
10
113.26623436801881
20
-93.055090483824102
30
0
0
LINE
5
408
100
AcDbEntity
8
0
100
AcDbLine
10
113.26623436801881
20
-93.055090483824102
30
0
11
113.26623436801881
21
-80.055711689330892
31
0
0
SPLINE
5
409
100
AcDbEntity
8
0
100
AcDbSpline
70
0
71
3
72
8
73
4
74
0
42
0.000000001
43
0.0000000001
44
0.0000000001
40
2
40
2
40
2
40
2
40
3
40
3
40
3
40
3
10
113.26623436801881
20
-80.055711689330892
30
0
10
113.26623436801881
20
-79.724638013198373
30
0
10
113.53546858019109
20
-79.45557605580035
30
0
10
113.86637000154931
20
-79.45557605580035
30
0
0
LINE
5
410
100
AcDbEntity
8
0
100
AcDbLine
10
113.86637000154931
20
-79.45557605580035
30
0
11
126.86609330559101
21
-79.45557605580035
31
0
0
SPLINE
5
411
100
AcDbEntity
8
0
100
AcDbSpline
70
0
71
3
72
8
73
4
74
0
42
0.000000001
43
0.0000000001
44
0.0000000001
40
4
40
4
40
4
40
4
40
5
40
5
40
5
40
5
10
126.86609330559101
20
-79.45557605580035
30
0
10
127.19682247217503
20
-79.45557605580035
30
0
10
127.46605668434731
20
-79.724638013198373
30
0
10
127.46605668434731
20
-80.055711689330892
30
0
0
LINE
5
412
100
AcDbEntity
8
0
100
AcDbLine
10
146.51605667958481
20
-80.055711689330892
30
0
11
146.51605667958481
21
-93.055090483824102
31
0
0
SPLINE
5
413
100
AcDbEntity
8
0
100
AcDbSpline
70
0
71
3
72
8
73
4
74
0
42
0.000000001
43
0.0000000001
44
0.0000000001
40
6
40
6
40
6
40
6
40
7
40
7
40
7
40
7
10
146.51605667958481
20
-93.055090483824102
30
0
10
146.51605667958481
20
-93.386164159956593
30
0
10
146.24682246741253
20
-93.65522611735463
30
0
10
145.91609330082849
20
-93.65522611735463
30
0
0
LINE
5
414
100
AcDbEntity
8
0
100
AcDbLine
10
145.91609330082849
20
-93.65522611735463
30
0
11
132.91636999678681
21
-93.65522611735463
31
0
0
SPLINE
5
415
100
AcDbEntity
8
0
100
AcDbSpline
70
0
71
3
72
8
73
4
74
0
42
0.000000001
43
0.0000000001
44
0.0000000001
40
0
40
0
40
0
40
0
40
1
40
1
40
1
40
1
10
132.91636999678681
20
-93.65522611735463
30
0
10
132.58546857542854
20
-93.65522611735463
30
0
10
132.31623436325631
20
-93.386164159956593
30
0
10
132.31623436325631
20
-93.055090483824102
30
0
0
LINE
5
416
100
AcDbEntity
8
0
100
AcDbLine
10
132.31623436325631
20
-93.055090483824102
30
0
11
132.31623436325631
21
-80.055711689330892
31
0
0
SPLINE
5
417
100
AcDbEntity
8
0
100
AcDbSpline
70
0
71
3
72
8
73
4
74
0
42
0.000000001
43
0.0000000001
44
0.0000000001
40
2
40
2
40
2
40
2
40
3
40
3
40
3
40
3
10
132.31623436325631
20
-80.055711689330892
30
0
10
132.31623436325631
20
-79.724638013198373
30
0
10
132.58546857542854
20
-79.45557605580035
30
0
10
132.91636999678681
20
-79.45557605580035
30
0
0
LINE
5
418
100
AcDbEntity
8
0
100
AcDbLine
10
132.91636999678681
20
-79.45557605580035
30
0
11
145.91609330082849
21
-79.45557605580035
31
0
0
SPLINE
5
419
100
AcDbEntity
8
0
100
AcDbSpline
70
0
71
3
72
8
73
4
74
0
42
0.000000001
43
0.0000000001
44
0.0000000001
40
4
40
4
40
4
40
4
40
5
40
5
40
5
40
5
10
145.91609330082849
20
-79.45557605580035
30
0
10
146.24682246741253
20
-79.45557605580035
30
0
10
146.51605667958481
20
-79.724638013198373
30
0
10
146.51605667958481
20
-80.055711689330892
30
0
0
LINE
5
420
100
AcDbEntity
8
0
100
AcDbLine
10
165.56605667482231
20
-80.055711689330892
30
0
11
165.56605667482231
21
-93.055090483824102
31
0
0
SPLINE
5
421
100
AcDbEntity
8
0
100
AcDbSpline
70
0
71
3
72
8
73
4
74
0
42
0.000000001
43
0.0000000001
44
0.0000000001
40
6
40
6
40
6
40
6
40
7
40
7
40
7
40
7
10
165.56605667482231
20
-93.055090483824102
30
0
10
165.56605667482231
20
-93.386164159956593
30
0
10
165.29682246265
20
-93.65522611735463
30
0
10
164.96609329606599
20
-93.65522611735463
30
0
0
LINE
5
422
100
AcDbEntity
8
0
100
AcDbLine
10
164.96609329606599
20
-93.65522611735463
30
0
11
151.96636999202434
21
-93.65522611735463
31
0
0
SPLINE
5
423
100
AcDbEntity
8
0
100
AcDbSpline
70
0
71
3
72
8
73
4
74
0
42
0.000000001
43
0.0000000001
44
0.0000000001
40
0
40
0
40
0
40
0
40
1
40
1
40
1
40
1
10
151.96636999202434
20
-93.65522611735463
30
0
10
151.63546857066601
20
-93.65522611735463
30
0
10
151.36623435849381
20
-93.386164159956593
30
0
10
151.36623435849381
20
-93.055090483824102
30
0
0
LINE
5
424
100
AcDbEntity
8
0
100
AcDbLine
10
151.36623435849381
20
-93.055090483824102
30
0
11
151.36623435849381
21
-80.055711689330892
31
0
0
SPLINE
5
425
100
AcDbEntity
8
0
100
AcDbSpline
70
0
71
3
72
8
73
4
74
0
42
0.000000001
43
0.0000000001
44
0.0000000001
40
2
40
2
40
2
40
2
40
3
40
3
40
3
40
3
10
151.36623435849381
20
-80.055711689330892
30
0
10
151.36623435849381
20
-79.724638013198373
30
0
10
151.63546857066601
20
-79.45557605580035
30
0
10
151.96636999202434
20
-79.45557605580035
30
0
0
LINE
5
426
100
AcDbEntity
8
0
100
AcDbLine
10
151.96636999202434
20
-79.45557605580035
30
0
11
164.96609329606599
21
-79.45557605580035
31
0
0
SPLINE
5
427
100
AcDbEntity
8
0
100
AcDbSpline
70
0
71
3
72
8
73
4
74
0
42
0.000000001
43
0.0000000001
44
0.0000000001
40
4
40
4
40
4
40
4
40
5
40
5
40
5
40
5
10
164.96609329606599
20
-79.45557605580035
30
0
10
165.29682246265
20
-79.45557605580035
30
0
10
165.56605667482231
20
-79.724638013198373
30
0
10
165.56605667482231
20
-80.055711689330892
30
0
0
LINE
5
428
100
AcDbEntity
8
0
100
AcDbLine
10
184.61605667005981
20
-80.055711689330892
30
0
11
184.61605667005981
21
-93.055090483824102
31
0
0
SPLINE
5
429
100
AcDbEntity
8
0
100
AcDbSpline
70
0
71
3
72
8
73
4
74
0
42
0.000000001
43
0.0000000001
44
0.0000000001
40
6
40
6
40
6
40
6
40
7
40
7
40
7
40
7
10
184.61605667005981
20
-93.055090483824102
30
0
10
184.61605667005981
20
-93.386164159956593
30
0
10
184.3468224578875
20
-93.65522611735463
30
0
10
184.01609329130349
20
-93.65522611735463
30
0
0
LINE
5
430
100
AcDbEntity
8
0
100
AcDbLine
10
184.01609329130349
20
-93.65522611735463
30
0
11
171.01636998726181
21
-93.65522611735463
31
0
0
SPLINE
5
431
100
AcDbEntity
8
0
100
AcDbSpline
70
0
71
3
72
8
73
4
74
0
42
0.000000001
43
0.0000000001
44
0.0000000001
40
0
40
0
40
0
40
0
40
1
40
1
40
1
40
1
10
171.01636998726181
20
-93.65522611735463
30
0
10
170.68546856590353
20
-93.65522611735463
30
0
10
170.41623435373134
20
-93.386164159956593
30
0
10
170.41623435373134
20
-93.055090483824102
30
0
0
LINE
5
432
100
AcDbEntity
8
0
100
AcDbLine
10
170.41623435373134
20
-93.055090483824102
30
0
11
170.41623435373134
21
-80.055711689330892
31
0
0
SPLINE
5
433
100
AcDbEntity
8
0
100
AcDbSpline
70
0
71
3
72
8
73
4
74
0
42
0.000000001
43
0.0000000001
44
0.0000000001
40
2
40
2
40
2
40
2
40
3
40
3
40
3
40
3
10
170.41623435373134
20
-80.055711689330892
30
0
10
170.41623435373134
20
-79.724638013198373
30
0
10
170.68546856590353
20
-79.45557605580035
30
0
10
171.01636998726181
20
-79.45557605580035
30
0
0
LINE
5
434
100
AcDbEntity
8
0
100
AcDbLine
10
171.01636998726181
20
-79.45557605580035
30
0
11
184.01609329130349
21
-79.45557605580035
31
0
0
SPLINE
5
435
100
AcDbEntity
8
0
100
AcDbSpline
70
0
71
3
72
8
73
4
74
0
42
0.000000001
43
0.0000000001
44
0.0000000001
40
4
40
4
40
4
40
4
40
5
40
5
40
5
40
5
10
184.01609329130349
20
-79.45557605580035
30
0
10
184.3468224578875
20
-79.45557605580035
30
0
10
184.61605667005981
20
-79.724638013198373
30
0
10
184.61605667005981
20
-80.055711689330892
30
0
0
LINE
5
436
100
AcDbEntity
8
0
100
AcDbLine
10
203.66605666529733
20
-80.055711689330892
30
0
11
203.66605666529733
21
-93.055090483824102
31
0
0
SPLINE
5
437
100
AcDbEntity
8
0
100
AcDbSpline
70
0
71
3
72
8
73
4
74
0
42
0.000000001
43
0.0000000001
44
0.0000000001
40
6
40
6
40
6
40
6
40
7
40
7
40
7
40
7
10
203.66605666529733
20
-93.055090483824102
30
0
10
203.66605666529733
20
-93.386164159956593
30
0
10
203.39682245312503
20
-93.65522611735463
30
0
10
203.06609328654102
20
-93.65522611735463
30
0
0
LINE
5
438
100
AcDbEntity
8
0
100
AcDbLine
10
203.06609328654102
20
-93.65522611735463
30
0
11
190.06636998249931
21
-93.65522611735463
31
0
0
SPLINE
5
439
100
AcDbEntity
8
0
100
AcDbSpline
70
0
71
3
72
8
73
4
74
0
42
0.000000001
43
0.0000000001
44
0.0000000001
40
0
40
0
40
0
40
0
40
1
40
1
40
1
40
1
10
190.06636998249931
20
-93.65522611735463
30
0
10
189.735468561141
20
-93.65522611735463
30
0
10
189.46623434896881
20
-93.386164159956593
30
0
10
189.46623434896881
20
-93.055090483824102
30
0
0
LINE
5
440
100
AcDbEntity
8
0
100
AcDbLine
10
189.46623434896881
20
-93.055090483824102
30
0
11
189.46623434896881
21
-80.055711689330892
31
0
0
SPLINE
5
441
100
AcDbEntity
8
0
100
AcDbSpline
70
0
71
3
72
8
73
4
74
0
42
0.000000001
43
0.0000000001
44
0.0000000001
40
2
40
2
40
2
40
2
40
3
40
3
40
3
40
3
10
189.46623434896881
20
-80.055711689330892
30
0
10
189.46623434896881
20
-79.724638013198373
30
0
10
189.735468561141
20
-79.45557605580035
30
0
10
190.06636998249931
20
-79.45557605580035
30
0
0
LINE
5
442
100
AcDbEntity
8
0
100
AcDbLine
10
190.06636998249931
20
-79.45557605580035
30
0
11
203.06609328654102
21
-79.45557605580035
31
0
0
SPLINE
5
443
100
AcDbEntity
8
0
100
AcDbSpline
70
0
71
3
72
8
73
4
74
0
42
0.000000001
43
0.0000000001
44
0.0000000001
40
4
40
4
40
4
40
4
40
5
40
5
40
5
40
5
10
203.06609328654102
20
-79.45557605580035
30
0
10
203.39682245312503
20
-79.45557605580035
30
0
10
203.66605666529733
20
-79.724638013198373
30
0
10
203.66605666529733
20
-80.055711689330892
30
0
0
LINE
5
444
100
AcDbEntity
8
0
100
AcDbLine
10
222.71605666053483
20
-80.055711689330892
30
0
11
222.71605666053483
21
-93.055090483824102
31
0
0
SPLINE
5
445
100
AcDbEntity
8
0
100
AcDbSpline
70
0
71
3
72
8
73
4
74
0
42
0.000000001
43
0.0000000001
44
0.0000000001
40
6
40
6
40
6
40
6
40
7
40
7
40
7
40
7
10
222.71605666053483
20
-93.055090483824102
30
0
10
222.71605666053483
20
-93.386164159956593
30
0
10
222.44682244836252
20
-93.65522611735463
30
0
10
222.11609328177849
20
-93.65522611735463
30
0
0
LINE
5
446
100
AcDbEntity
8
0
100
AcDbLine
10
222.11609328177849
20
-93.65522611735463
30
0
11
209.11636997773684
21
-93.65522611735463
31
0
0
SPLINE
5
447
100
AcDbEntity
8
0
100
AcDbSpline
70
0
71
3
72
8
73
4
74
0
42
0.000000001
43
0.0000000001
44
0.0000000001
40
0
40
0
40
0
40
0
40
1
40
1
40
1
40
1
10
209.11636997773684
20
-93.65522611735463
30
0
10
208.78546855637862
20
-93.65522611735463
30
0
10
208.51623434420634
20
-93.386164159956593
30
0
10
208.51623434420634
20
-93.055090483824102
30
0
0
LINE
5
448
100
AcDbEntity
8
0
100
AcDbLine
10
208.51623434420634
20
-93.055090483824102
30
0
11
208.51623434420634
21
-80.055711689330892
31
0
0
SPLINE
5
449
100
AcDbEntity
8
0
100
AcDbSpline
70
0
71
3
72
8
73
4
74
0
42
0.000000001
43
0.0000000001
44
0.0000000001
40
2
40
2
40
2
40
2
40
3
40
3
40
3
40
3
10
208.51623434420634
20
-80.055711689330892
30
0
10
208.51623434420634
20
-79.724638013198373
30
0
10
208.78546855637862
20
-79.45557605580035
30
0
10
209.11636997773684
20
-79.45557605580035
30
0
0
LINE
5
450
100
AcDbEntity
8
0
100
AcDbLine
10
209.11636997773684
20
-79.45557605580035
30
0
11
222.11609328177849
21
-79.45557605580035
31
0
0
SPLINE
5
451
100
AcDbEntity
8
0
100
AcDbSpline
70
0
71
3
72
8
73
4
74
0
42
0.000000001
43
0.0000000001
44
0.0000000001
40
4
40
4
40
4
40
4
40
5
40
5
40
5
40
5
10
222.11609328177849
20
-79.45557605580035
30
0
10
222.44682244836252
20
-79.45557605580035
30
0
10
222.71605666053483
20
-79.724638013198373
30
0
10
222.71605666053483
20
-80.055711689330892
30
0
0
LINE
5
452
100
AcDbEntity
8
0
100
AcDbLine
10
241.7660566557723
20
-80.055711689330892
30
0
11
241.7660566557723
21
-93.055090483824102
31
0
0
SPLINE
5
453
100
AcDbEntity
8
0
100
AcDbSpline
70
0
71
3
72
8
73
4
74
0
42
0.000000001
43
0.0000000001
44
0.0000000001
40
6
40
6
40
6
40
6
40
7
40
7
40
7
40
7
10
241.7660566557723
20
-93.055090483824102
30
0
10
241.7660566557723
20
-93.386164159956593
30
0
10
241.49699469837429
20
-93.65522611735463
30
0
10
241.16592102224183
20
-93.65522611735463
30
0
0
LINE
5
454
100
AcDbEntity
8
0
100
AcDbLine
10
241.16592102224178
20
-93.65522611735463
30
0
11
228.16636997297434
21
-93.65522611735463
31
0
0
SPLINE
5
455
100
AcDbEntity
8
0
100
AcDbSpline
70
0
71
3
72
8
73
4
74
0
42
0.000000001
43
0.0000000001
44
0.0000000001
40
0
40
0
40
0
40
0
40
1
40
1
40
1
40
1
10
228.16636997297434
20
-93.65522611735463
30
0
10
227.83546855161609
20
-93.65522611735463
30
0
10
227.56623433944384
20
-93.386164159956593
30
0
10
227.56623433944384
20
-93.055090483824102
30
0
0
LINE
5
456
100
AcDbEntity
8
0
100
AcDbLine
10
227.56623433944384
20
-93.055090483824102
30
0
11
227.56623433944384
21
-80.055711689330892
31
0
0
SPLINE
5
457
100
AcDbEntity
8
0
100
AcDbSpline
70
0
71
3
72
8
73
4
74
0
42
0.000000001
43
0.0000000001
44
0.0000000001
40
2
40
2
40
2
40
2
40
3
40
3
40
3
40
3
10
227.56623433944384
20
-80.055711689330892
30
0
10
227.56623433944384
20
-79.724638013198373
30
0
10
227.83546855161609
20
-79.45557605580035
30
0
10
228.16636997297434
20
-79.45557605580035
30
0
0
LINE
5
458
100
AcDbEntity
8
0
100
AcDbLine
10
228.16636997297434
20
-79.45557605580035
30
0
11
241.16592102224183
21
-79.45557605580035
31
0
0
SPLINE
5
459
100
AcDbEntity
8
0
100
AcDbSpline
70
0
71
3
72
8
73
4
74
0
42
0.000000001
43
0.0000000001
44
0.0000000001
40
4
40
4
40
4
40
4
40
5
40
5
40
5
40
5
10
241.16592102224183
20
-79.45557605580035
30
0
10
241.49699469837429
20
-79.45557605580035
30
0
10
241.7660566557723
20
-79.724638013198373
30
0
10
241.7660566557723
20
-80.055711689330892
30
0
0
LINE
5
460
100
AcDbEntity
8
0
100
AcDbLine
10
260.81605665100983
20
-80.055711689330892
30
0
11
260.81605665100983
21
-93.055090483824102
31
0
0
SPLINE
5
461
100
AcDbEntity
8
0
100
AcDbSpline
70
0
71
3
72
8
73
4
74
0
42
0.000000001
43
0.0000000001
44
0.0000000001
40
6
40
6
40
6
40
6
40
7
40
7
40
7
40
7
10
260.81605665100983
20
-93.055090483824102
30
0
10
260.81605665100983
20
-93.386164159956593
30
0
10
260.54699469361185
20
-93.65522611735463
30
0
10
260.21592101747927
20
-93.65522611735463
30
0
0
LINE
5
462
100
AcDbEntity
8
0
100
AcDbLine
10
260.21592101747922
20
-93.65522611735463
30
0
11
247.21654222298599
21
-93.65522611735463
31
0
0
SPLINE
5
463
100
AcDbEntity
8
0
100
AcDbSpline
70
0
71
3
72
8
73
4
74
0
42
0.000000001
43
0.0000000001
44
0.0000000001
40
0
40
0
40
0
40
0
40
1
40
1
40
1
40
1
10
247.21654222298599
20
-93.65522611735463
30
0
10
246.88546854685359
20
-93.65522611735463
30
0
10
246.61640658945561
20
-93.386164159956593
30
0
10
246.61640658945561
20
-93.055090483824102
30
0
0
LINE
5
464
100
AcDbEntity
8
0
100
AcDbLine
10
246.61640658945561
20
-93.055090483824102
30
0
11
246.61640658945561
21
-80.055711689330892
31
0
0
SPLINE
5
465
100
AcDbEntity
8
0
100
AcDbSpline
70
0
71
3
72
8
73
4
74
0
42
0.000000001
43
0.0000000001
44
0.0000000001
40
2
40
2
40
2
40
2
40
3
40
3
40
3
40
3
10
246.61640658945561
20
-80.055711689330892
30
0
10
246.61640658945561
20
-79.724638013198373
30
0
10
246.88546854685359
20
-79.45557605580035
30
0
10
247.21654222298599
20
-79.45557605580035
30
0
0
LINE
5
466
100
AcDbEntity
8
0
100
AcDbLine
10
247.21654222298605
20
-79.45557605580035
30
0
11
260.21592101747927
21
-79.45557605580035
31
0
0
SPLINE
5
467
100
AcDbEntity
8
0
100
AcDbSpline
70
0
71
3
72
8
73
4
74
0
42
0.000000001
43
0.0000000001
44
0.0000000001
40
4
40
4
40
4
40
4
40
5
40
5
40
5
40
5
10
260.21592101747927
20
-79.45557605580035
30
0
10
260.54699469361185
20
-79.45557605580035
30
0
10
260.81605665100983
20
-79.724638013198373
30
0
10
260.81605665100983
20
-80.055711689330892
30
0
0
LINE
5
468
100
AcDbEntity
8
0
100
AcDbLine
10
284.62855664505673
20
-80.055711689330892
30
0
11
284.62855664505673
21
-93.055090483824102
31
0
0
SPLINE
5
469
100
AcDbEntity
8
0
100
AcDbSpline
70
0
71
3
72
8
73
4
74
0
42
0.000000001
43
0.0000000001
44
0.0000000001
40
6
40
6
40
6
40
6
40
7
40
7
40
7
40
7
10
284.62855664505673
20
-93.055090483824102
30
0
10
284.62855664505673
20
-93.386164159956593
30
0
10
284.35949468765858
20
-93.65522611735463
30
0
10
284.02842101152612
20
-93.65522611735463
30
0
0
LINE
5
470
100
AcDbEntity
8
0
100
AcDbLine
10
284.02842101152612
20
-93.65522611735463
30
0
11
271.02904221703301
21
-93.65522611735463
31
0
0
SPLINE
5
471
100
AcDbEntity
8
0
100
AcDbSpline
70
0
71
3
72
8
73
4
74
0
42
0.000000001
43
0.0000000001
44
0.0000000001
40
0
40
0
40
0
40
0
40
1
40
1
40
1
40
1
10
271.02904221703301
20
-93.65522611735463
30
0
10
270.69796854090038
20
-93.65522611735463
30
0
10
270.4289065835024
20
-93.386164159956593
30
0
10
270.4289065835024
20
-93.055090483824102
30
0
0
LINE
5
472
100
AcDbEntity
8
0
100
AcDbLine
10
270.4289065835024
20
-93.055090483824102
30
0
11
270.4289065835024
21
-80.055711689330892
31
0
0
SPLINE
5
473
100
AcDbEntity
8
0
100
AcDbSpline
70
0
71
3
72
8
73
4
74
0
42
0.000000001
43
0.0000000001
44
0.0000000001
40
2
40
2
40
2
40
2
40
3
40
3
40
3
40
3
10
270.4289065835024
20
-80.055711689330892
30
0
10
270.4289065835024
20
-79.724638013198373
30
0
10
270.69796854090038
20
-79.45557605580035
30
0
10
271.02904221703301
20
-79.45557605580035
30
0
0
LINE
5
474
100
AcDbEntity
8
0
100
AcDbLine
10
271.02904221703307
20
-79.45557605580035
30
0
11
284.02842101152612
21
-79.45557605580035
31
0
0
SPLINE
5
475
100
AcDbEntity
8
0
100
AcDbSpline
70
0
71
3
72
8
73
4
74
0
42
0.000000001
43
0.0000000001
44
0.0000000001
40
4
40
4
40
4
40
4
40
5
40
5
40
5
40
5
10
284.02842101152612
20
-79.45557605580035
30
0
10
284.35949468765858
20
-79.45557605580035
30
0
10
284.62855664505673
20
-79.724638013198373
30
0
10
284.62855664505673
20
-80.055711689330892
30
0
0
LINE
5
476
100
AcDbEntity
8
0
100
AcDbLine
10
22.69105671054103
20
-61.005711694093385
30
0
11
22.69105671054103
21
-74.005090488586603
31
0
0
SPLINE
5
477
100
AcDbEntity
8
0
100
AcDbSpline
70
0
71
3
72
8
73
4
74
0
42
0.000000001
43
0.0000000001
44
0.0000000001
40
6
40
6
40
6
40
6
40
7
40
7
40
7
40
7
10
22.69105671054103
20
-74.005090488586603
30
0
10
22.69105671054103
20
-74.336164164719094
30
0
10
22.421822498368762
20
-74.605226122117116
30
0
10
22.091093331784769
20
-74.605226122117116
30
0
0
LINE
5
478
100
AcDbEntity
8
0
100
AcDbLine
10
22.091093331784769
20
-74.605226122117116
30
0
11
9.0913700277430376
21
-74.605226122117116
31
0
0
SPLINE
5
479
100
AcDbEntity
8
0
100
AcDbSpline
70
0
71
3
72
8
73
4
74
0
42
0.000000001
43
0.0000000001
44
0.0000000001
40
0
40
0
40
0
40
0
40
1
40
1
40
1
40
1
10
9.0913700277430358
20
-74.605226122117116
30
0
10
8.760468606384789
20
-74.605226122117116
30
0
10
8.4912343942125155
20
-74.336164164719094
30
0
10
8.4912343942125155
20
-74.005090488586603
30
0
0
LINE
5
480
100
AcDbEntity
8
0
100
AcDbLine
10
8.4912343942125155
20
-74.005090488586617
30
0
11
8.4912343942125155
21
-61.005711694093385
31
0
0
SPLINE
5
481
100
AcDbEntity
8
0
100
AcDbSpline
70
0
71
3
72
8
73
4
74
0
42
0.000000001
43
0.0000000001
44
0.0000000001
40
2
40
2
40
2
40
2
40
3
40
3
40
3
40
3
10
8.4912343942125155
20
-61.005711694093385
30
0
10
8.4912343942125155
20
-60.674638017960874
30
0
10
8.760468606384789
20
-60.405576060562858
30
0
10
9.0913700277430358
20
-60.405576060562858
30
0
0
LINE
5
482
100
AcDbEntity
8
0
100
AcDbLine
10
9.0913700277430358
20
-60.405576060562858
30
0
11
22.091093331784769
21
-60.405576060562858
31
0
0
SPLINE
5
483
100
AcDbEntity
8
0
100
AcDbSpline
70
0
71
3
72
8
73
4
74
0
42
0.000000001
43
0.0000000001
44
0.0000000001
40
4
40
4
40
4
40
4
40
5
40
5
40
5
40
5
10
22.091093331784769
20
-60.405576060562858
30
0
10
22.421822498368762
20
-60.405576060562858
30
0
10
22.69105671054103
20
-60.674638017960874
30
0
10
22.69105671054103
20
-61.005711694093385
30
0
0
LINE
5
484
100
AcDbEntity
8
0
100
AcDbLine
10
41.741056705778533
20
-61.005711694093385
30
0
11
41.741056705778533
21
-74.005090488586603
31
0
0
SPLINE
5
485
100
AcDbEntity
8
0
100
AcDbSpline
70
0
71
3
72
8
73
4
74
0
42
0.000000001
43
0.0000000001
44
0.0000000001
40
6
40
6
40
6
40
6
40
7
40
7
40
7
40
7
10
41.741056705778533
20
-74.005090488586603
30
0
10
41.741056705778533
20
-74.336164164719094
30
0
10
41.471822493606247
20
-74.605226122117116
30
0
10
41.141093327022283
20
-74.605226122117116
30
0
0
LINE
5
486
100
AcDbEntity
8
0
100
AcDbLine
10
41.141093327022283
20
-74.605226122117116
30
0
11
28.141370022980539
21
-74.605226122117116
31
0
0
SPLINE
5
487
100
AcDbEntity
8
0
100
AcDbSpline
70
0
71
3
72
8
73
4
74
0
42
0.000000001
43
0.0000000001
44
0.0000000001
40
0
40
0
40
0
40
0
40
1
40
1
40
1
40
1
10
28.141370022980539
20
-74.605226122117116
30
0
10
27.810468601622294
20
-74.605226122117116
30
0
10
27.541234389450011
20
-74.336164164719094
30
0
10
27.541234389450011
20
-74.005090488586603
30
0
0
LINE
5
488
100
AcDbEntity
8
0
100
AcDbLine
10
27.541234389450011
20
-74.005090488586617
30
0
11
27.541234389450011
21
-61.005711694093385
31
0
0
SPLINE
5
489
100
AcDbEntity
8
0
100
AcDbSpline
70
0
71
3
72
8
73
4
74
0
42
0.000000001
43
0.0000000001
44
0.0000000001
40
2
40
2
40
2
40
2
40
3
40
3
40
3
40
3
10
27.541234389450011
20
-61.005711694093385
30
0
10
27.541234389450011
20
-60.674638017960874
30
0
10
27.810468601622294
20
-60.405576060562858
30
0
10
28.141370022980539
20
-60.405576060562858
30
0
0
LINE
5
490
100
AcDbEntity
8
0
100
AcDbLine
10
28.141370022980539
20
-60.405576060562858
30
0
11
41.141093327022283
21
-60.405576060562858
31
0
0
SPLINE
5
491
100
AcDbEntity
8
0
100
AcDbSpline
70
0
71
3
72
8
73
4
74
0
42
0.000000001
43
0.0000000001
44
0.0000000001
40
4
40
4
40
4
40
4
40
5
40
5
40
5
40
5
10
41.141093327022283
20
-60.405576060562858
30
0
10
41.471822493606247
20
-60.405576060562858
30
0
10
41.741056705778533
20
-60.674638017960874
30
0
10
41.741056705778533
20
-61.005711694093385
30
0
0
LINE
5
492
100
AcDbEntity
8
0
100
AcDbLine
10
60.791056701016039
20
-61.005711694093385
30
0
11
60.791056701016039
21
-74.005090488586603
31
0
0
SPLINE
5
493
100
AcDbEntity
8
0
100
AcDbSpline
70
0
71
3
72
8
73
4
74
0
42
0.000000001
43
0.0000000001
44
0.0000000001
40
6
40
6
40
6
40
6
40
7
40
7
40
7
40
7
10
60.791056701016039
20
-74.005090488586603
30
0
10
60.791056701016039
20
-74.336164164719094
30
0
10
60.521822488843767
20
-74.605226122117116
30
0
10
60.191093322259768
20
-74.605226122117116
30
0
0
LINE
5
494
100
AcDbEntity
8
0
100
AcDbLine
10
60.191093322259768
20
-74.605226122117116
30
0
11
47.191370018218052
21
-74.605226122117116
31
0
0
SPLINE
5
495
100
AcDbEntity
8
0
100
AcDbSpline
70
0
71
3
72
8
73
4
74
0
42
0.000000001
43
0.0000000001
44
0.0000000001
40
0
40
0
40
0
40
0
40
1
40
1
40
1
40
1
10
47.191370018218052
20
-74.605226122117116
30
0
10
46.860468596859796
20
-74.605226122117116
30
0
10
46.591234384687525
20
-74.336164164719094
30
0
10
46.591234384687525
20
-74.005090488586603
30
0
0
LINE
5
496
100
AcDbEntity
8
0
100
AcDbLine
10
46.591234384687525
20
-74.005090488586617
30
0
11
46.591234384687525
21
-61.005711694093385
31
0
0
SPLINE
5
497
100
AcDbEntity
8
0
100
AcDbSpline
70
0
71
3
72
8
73
4
74
0
42
0.000000001
43
0.0000000001
44
0.0000000001
40
2
40
2
40
2
40
2
40
3
40
3
40
3
40
3
10
46.591234384687525
20
-61.005711694093385
30
0
10
46.591234384687525
20
-60.674638017960874
30
0
10
46.860468596859796
20
-60.405576060562858
30
0
10
47.191370018218052
20
-60.405576060562858
30
0
0
LINE
5
498
100
AcDbEntity
8
0
100
AcDbLine
10
47.191370018218052
20
-60.405576060562858
30
0
11
60.191093322259768
21
-60.405576060562858
31
0
0
SPLINE
5
499
100
AcDbEntity
8
0
100
AcDbSpline
70
0
71
3
72
8
73
4
74
0
42
0.000000001
43
0.0000000001
44
0.0000000001
40
4
40
4
40
4
40
4
40
5
40
5
40
5
40
5
10
60.191093322259768
20
-60.405576060562858
30
0
10
60.521822488843767
20
-60.405576060562858
30
0
10
60.791056701016039
20
-60.674638017960874
30
0
10
60.791056701016039
20
-61.005711694093385
30
0
0
LINE
5
500
100
AcDbEntity
8
0
100
AcDbLine
10
79.841056696253531
20
-61.005711694093385
30
0
11
79.841056696253531
21
-74.005090488586603
31
0
0
SPLINE
5
501
100
AcDbEntity
8
0
100
AcDbSpline
70
0
71
3
72
8
73
4
74
0
42
0.000000001
43
0.0000000001
44
0.0000000001
40
6
40
6
40
6
40
6
40
7
40
7
40
7
40
7
10
79.841056696253531
20
-74.005090488586603
30
0
10
79.841056696253531
20
-74.336164164719094
30
0
10
79.571822484081252
20
-74.605226122117116
30
0
10
79.241093317497274
20
-74.605226122117116
30
0
0
LINE
5
502
100
AcDbEntity
8
0
100
AcDbLine
10
79.241093317497274
20
-74.605226122117116
30
0
11
66.241370013455537
21
-74.605226122117116
31
0
0
SPLINE
5
503
100
AcDbEntity
8
0
100
AcDbSpline
70
0
71
3
72
8
73
4
74
0
42
0.000000001
43
0.0000000001
44
0.0000000001
40
0
40
0
40
0
40
0
40
1
40
1
40
1
40
1
10
66.241370013455537
20
-74.605226122117116
30
0
10
65.910468592097288
20
-74.605226122117116
30
0
10
65.641234379925038
20
-74.336164164719094
30
0
10
65.641234379925038
20
-74.005090488586603
30
0
0
LINE
5
504
100
AcDbEntity
8
0
100
AcDbLine
10
65.641234379925038
20
-74.005090488586617
30
0
11
65.641234379925038
21
-61.005711694093385
31
0
0
SPLINE
5
505
100
AcDbEntity
8
0
100
AcDbSpline
70
0
71
3
72
8
73
4
74
0
42
0.000000001
43
0.0000000001
44
0.0000000001
40
2
40
2
40
2
40
2
40
3
40
3
40
3
40
3
10
65.641234379925038
20
-61.005711694093385
30
0
10
65.641234379925038
20
-60.674638017960874
30
0
10
65.910468592097288
20
-60.405576060562858
30
0
10
66.241370013455537
20
-60.405576060562858
30
0
0
LINE
5
506
100
AcDbEntity
8
0
100
AcDbLine
10
66.241370013455537
20
-60.405576060562858
30
0
11
79.241093317497274
21
-60.405576060562858
31
0
0
SPLINE
5
507
100
AcDbEntity
8
0
100
AcDbSpline
70
0
71
3
72
8
73
4
74
0
42
0.000000001
43
0.0000000001
44
0.0000000001
40
4
40
4
40
4
40
4
40
5
40
5
40
5
40
5
10
79.241093317497274
20
-60.405576060562858
30
0
10
79.571822484081252
20
-60.405576060562858
30
0
10
79.841056696253531
20
-60.674638017960874
30
0
10
79.841056696253531
20
-61.005711694093385
30
0
0
LINE
5
508
100
AcDbEntity
8
0
100
AcDbLine
10
98.891056691491031
20
-61.005711694093385
30
0
11
98.891056691491031
21
-74.005090488586603
31
0
0
SPLINE
5
509
100
AcDbEntity
8
0
100
AcDbSpline
70
0
71
3
72
8
73
4
74
0
42
0.000000001
43
0.0000000001
44
0.0000000001
40
6
40
6
40
6
40
6
40
7
40
7
40
7
40
7
10
98.891056691491031
20
-74.005090488586603
30
0
10
98.891056691491031
20
-74.336164164719094
30
0
10
98.621822479318766
20
-74.605226122117116
30
0
10
98.291093312734787
20
-74.605226122117116
30
0
0
LINE
5
510
100
AcDbEntity
8
0
100
AcDbLine
10
98.291093312734787
20
-74.605226122117116
30
0
11
85.291370008693036
21
-74.605226122117116
31
0
0
SPLINE
5
511
100
AcDbEntity
8
0
100
AcDbSpline
70
0
71
3
72
8
73
4
74
0
42
0.000000001
43
0.0000000001
44
0.0000000001
40
0
40
0
40
0
40
0
40
1
40
1
40
1
40
1
10
85.291370008693036
20
-74.605226122117116
30
0
10
84.960468587334788
20
-74.605226122117116
30
0
10
84.691234375162537
20
-74.336164164719094
30
0
10
84.691234375162537
20
-74.005090488586603
30
0
0
LINE
5
512
100
AcDbEntity
8
0
100
AcDbLine
10
84.691234375162537
20
-74.005090488586617
30
0
11
84.691234375162537
21
-61.005711694093385
31
0
0
SPLINE
5
513
100
AcDbEntity
8
0
100
AcDbSpline
70
0
71
3
72
8
73
4
74
0
42
0.000000001
43
0.0000000001
44
0.0000000001
40
2
40
2
40
2
40
2
40
3
40
3
40
3
40
3
10
84.691234375162537
20
-61.005711694093385
30
0
10
84.691234375162537
20
-60.674638017960874
30
0
10
84.960468587334788
20
-60.405576060562858
30
0
10
85.291370008693036
20
-60.405576060562858
30
0
0
LINE
5
514
100
AcDbEntity
8
0
100
AcDbLine
10
85.291370008693036
20
-60.405576060562858
30
0
11
98.291093312734787
21
-60.405576060562858
31
0
0
SPLINE
5
515
100
AcDbEntity
8
0
100
AcDbSpline
70
0
71
3
72
8
73
4
74
0
42
0.000000001
43
0.0000000001
44
0.0000000001
40
4
40
4
40
4
40
4
40
5
40
5
40
5
40
5
10
98.291093312734787
20
-60.405576060562858
30
0
10
98.621822479318766
20
-60.405576060562858
30
0
10
98.891056691491031
20
-60.674638017960874
30
0
10
98.891056691491031
20
-61.005711694093385
30
0
0
LINE
5
516
100
AcDbEntity
8
0
100
AcDbLine
10
117.94105668672853
20
-61.005711694093385
30
0
11
117.94105668672853
21
-74.005090488586603
31
0
0
SPLINE
5
517
100
AcDbEntity
8
0
100
AcDbSpline
70
0
71
3
72
8
73
4
74
0
42
0.000000001
43
0.0000000001
44
0.0000000001
40
6
40
6
40
6
40
6
40
7
40
7
40
7
40
7
10
117.94105668672853
20
-74.005090488586603
30
0
10
117.94105668672853
20
-74.336164164719094
30
0
10
117.67182247455629
20
-74.605226122117116
30
0
10
117.34109330797232
20
-74.605226122117116
30
0
0
LINE
5
518
100
AcDbEntity
8
0
100
AcDbLine
10
117.34109330797232
20
-74.605226122117116
30
0
11
104.3399919657364
21
-74.605226122117116
31
0
0
SPLINE
5
519
100
AcDbEntity
8
0
100
AcDbSpline
70
0
71
3
72
8
73
4
74
0
42
0.000000001
43
0.0000000001
44
0.0000000001
40
0
40
0
40
0
40
0
40
1
40
1
40
1
40
1
10
104.3399919657364
20
-74.605226122117116
30
0
10
104.0090905443782
20
-74.605226122117116
30
0
10
103.73985633220592
20
-74.336164164719094
30
0
10
103.73985633220592
20
-74.005090488586603
30
0
0
LINE
5
520
100
AcDbEntity
8
0
100
AcDbLine
10
103.73985633220592
20
-74.005090488586617
30
0
11
103.73985633220592
21
-61.005711694093385
31
0
0
SPLINE
5
521
100
AcDbEntity
8
0
100
AcDbSpline
70
0
71
3
72
8
73
4
74
0
42
0.000000001
43
0.0000000001
44
0.0000000001
40
2
40
2
40
2
40
2
40
3
40
3
40
3
40
3
10
103.73985633220592
20
-61.005711694093385
30
0
10
103.73985633220592
20
-60.674638017960874
30
0
10
104.0090905443782
20
-60.405576060562858
30
0
10
104.3399919657364
20
-60.405576060562858
30
0
0
LINE
5
522
100
AcDbEntity
8
0
100
AcDbLine
10
104.3399919657364
20
-60.405576060562858
30
0
11
117.34109330797232
21
-60.405576060562858
31
0
0
SPLINE
5
523
100
AcDbEntity
8
0
100
AcDbSpline
70
0
71
3
72
8
73
4
74
0
42
0.000000001
43
0.0000000001
44
0.0000000001
40
4
40
4
40
4
40
4
40
5
40
5
40
5
40
5
10
117.34109330797232
20
-60.405576060562858
30
0
10
117.67182247455629
20
-60.405576060562858
30
0
10
117.94105668672853
20
-60.674638017960874
30
0
10
117.94105668672853
20
-61.005711694093385
30
0
0
LINE
5
524
100
AcDbEntity
8
0
100
AcDbLine
10
136.99105668196603
20
-61.005711694093385
30
0
11
136.99105668196603
21
-74.005090488586603
31
0
0
SPLINE
5
525
100
AcDbEntity
8
0
100
AcDbSpline
70
0
71
3
72
8
73
4
74
0
42
0.000000001
43
0.0000000001
44
0.0000000001
40
6
40
6
40
6
40
6
40
7
40
7
40
7
40
7
10
136.99105668196603
20
-74.005090488586603
30
0
10
136.99105668196603
20
-74.336164164719094
30
0
10
136.72182246979384
20
-74.605226122117116
30
0
10
136.3910933032098
20
-74.605226122117116
30
0
0
LINE
5
526
100
AcDbEntity
8
0
100
AcDbLine
10
136.3910933032098
20
-74.605226122117116
30
0
11
123.3899919609739
21
-74.605226122117116
31
0
0
SPLINE
5
527
100
AcDbEntity
8
0
100
AcDbSpline
70
0
71
3
72
8
73
4
74
0
42
0.000000001
43
0.0000000001
44
0.0000000001
40
0
40
0
40
0
40
0
40
1
40
1
40
1
40
1
10
123.3899919609739
20
-74.605226122117116
30
0
10
123.05909053961571
20
-74.605226122117116
30
0
10
122.7898563274434
20
-74.336164164719094
30
0
10
122.7898563274434
20
-74.005090488586603
30
0
0
LINE
5
528
100
AcDbEntity
8
0
100
AcDbLine
10
122.7898563274434
20
-74.005090488586617
30
0
11
122.7898563274434
21
-61.005711694093385
31
0
0
SPLINE
5
529
100
AcDbEntity
8
0
100
AcDbSpline
70
0
71
3
72
8
73
4
74
0
42
0.000000001
43
0.0000000001
44
0.0000000001
40
2
40
2
40
2
40
2
40
3
40
3
40
3
40
3
10
122.7898563274434
20
-61.005711694093385
30
0
10
122.7898563274434
20
-60.674638017960874
30
0
10
123.05909053961571
20
-60.405576060562858
30
0
10
123.3899919609739
20
-60.405576060562858
30
0
0
LINE
5
530
100
AcDbEntity
8
0
100
AcDbLine
10
123.3899919609739
20
-60.405576060562858
30
0
11
136.3910933032098
21
-60.405576060562858
31
0
0
SPLINE
5
531
100
AcDbEntity
8
0
100
AcDbSpline
70
0
71
3
72
8
73
4
74
0
42
0.000000001
43
0.0000000001
44
0.0000000001
40
4
40
4
40
4
40
4
40
5
40
5
40
5
40
5
10
136.3910933032098
20
-60.405576060562858
30
0
10
136.72182246979384
20
-60.405576060562858
30
0
10
136.99105668196603
20
-60.674638017960874
30
0
10
136.99105668196603
20
-61.005711694093385
30
0
0
LINE
5
532
100
AcDbEntity
8
0
100
AcDbLine
10
156.0410566772035
20
-61.005711694093385
30
0
11
156.0410566772035
21
-74.005090488586603
31
0
0
SPLINE
5
533
100
AcDbEntity
8
0
100
AcDbSpline
70
0
71
3
72
8
73
4
74
0
42
0.000000001
43
0.0000000001
44
0.0000000001
40
6
40
6
40
6
40
6
40
7
40
7
40
7
40
7
10
156.0410566772035
20
-74.005090488586603
30
0
10
156.0410566772035
20
-74.336164164719094
30
0
10
155.77182246503122
20
-74.605226122117116
30
0
10
155.4410932984473
20
-74.605226122117116
30
0
0
LINE
5
534
100
AcDbEntity
8
0
100
AcDbLine
10
155.4410932984473
20
-74.605226122117116
30
0
11
142.44136999440551
21
-74.605226122117116
31
0
0
SPLINE
5
535
100
AcDbEntity
8
0
100
AcDbSpline
70
0
71
3
72
8
73
4
74
0
42
0.000000001
43
0.0000000001
44
0.0000000001
40
0
40
0
40
0
40
0
40
1
40
1
40
1
40
1
10
142.44136999440551
20
-74.605226122117116
30
0
10
142.11046857304731
20
-74.605226122117116
30
0
10
141.84123436087501
20
-74.336164164719094
30
0
10
141.84123436087501
20
-74.005090488586603
30
0
0
LINE
5
536
100
AcDbEntity
8
0
100
AcDbLine
10
141.84123436087501
20
-74.005090488586617
30
0
11
141.84123436087501
21
-61.005711694093385
31
0
0
SPLINE
5
537
100
AcDbEntity
8
0
100
AcDbSpline
70
0
71
3
72
8
73
4
74
0
42
0.000000001
43
0.0000000001
44
0.0000000001
40
2
40
2
40
2
40
2
40
3
40
3
40
3
40
3
10
141.84123436087501
20
-61.005711694093385
30
0
10
141.84123436087501
20
-60.674638017960874
30
0
10
142.11046857304731
20
-60.405576060562858
30
0
10
142.44136999440551
20
-60.405576060562858
30
0
0
LINE
5
538
100
AcDbEntity
8
0
100
AcDbLine
10
142.44136999440551
20
-60.405576060562858
30
0
11
155.4410932984473
21
-60.405576060562858
31
0
0
SPLINE
5
539
100
AcDbEntity
8
0
100
AcDbSpline
70
0
71
3
72
8
73
4
74
0
42
0.000000001
43
0.0000000001
44
0.0000000001
40
4
40
4
40
4
40
4
40
5
40
5
40
5
40
5
10
155.4410932984473
20
-60.405576060562858
30
0
10
155.77182246503122
20
-60.405576060562858
30
0
10
156.0410566772035
20
-60.674638017960874
30
0
10
156.0410566772035
20
-61.005711694093385
30
0
0
LINE
5
540
100
AcDbEntity
8
0
100
AcDbLine
10
175.09105667244103
20
-61.005711694093385
30
0
11
175.09105667244103
21
-74.005090488586603
31
0
0
SPLINE
5
541
100
AcDbEntity
8
0
100
AcDbSpline
70
0
71
3
72
8
73
4
74
0
42
0.000000001
43
0.0000000001
44
0.0000000001
40
6
40
6
40
6
40
6
40
7
40
7
40
7
40
7
10
175.09105667244103
20
-74.005090488586603
30
0
10
175.09105667244103
20
-74.336164164719094
30
0
10
174.82182246026881
20
-74.605226122117116
30
0
10
174.4910932936848
20
-74.605226122117116
30
0
0
LINE
5
542
100
AcDbEntity
8
0
100
AcDbLine
10
174.4910932936848
20
-74.605226122117116
30
0
11
161.49136998964303
21
-74.605226122117116
31
0
0
SPLINE
5
543
100
AcDbEntity
8
0
100
AcDbSpline
70
0
71
3
72
8
73
4
74
0
42
0.000000001
43
0.0000000001
44
0.0000000001
40
0
40
0
40
0
40
0
40
1
40
1
40
1
40
1
10
161.49136998964303
20
-74.605226122117116
30
0
10
161.16046856828484
20
-74.605226122117116
30
0
10
160.89123435611253
20
-74.336164164719094
30
0
10
160.89123435611253
20
-74.005090488586603
30
0
0
LINE
5
544
100
AcDbEntity
8
0
100
AcDbLine
10
160.89123435611253
20
-74.005090488586617
30
0
11
160.89123435611253
21
-61.005711694093385
31
0
0
SPLINE
5
545
100
AcDbEntity
8
0
100
AcDbSpline
70
0
71
3
72
8
73
4
74
0
42
0.000000001
43
0.0000000001
44
0.0000000001
40
2
40
2
40
2
40
2
40
3
40
3
40
3
40
3
10
160.89123435611253
20
-61.005711694093385
30
0
10
160.89123435611253
20
-60.674638017960874
30
0
10
161.16046856828484
20
-60.405576060562858
30
0
10
161.49136998964303
20
-60.405576060562858
30
0
0
LINE
5
546
100
AcDbEntity
8
0
100
AcDbLine
10
161.49136998964303
20
-60.405576060562858
30
0
11
174.4910932936848
21
-60.405576060562858
31
0
0
SPLINE
5
547
100
AcDbEntity
8
0
100
AcDbSpline
70
0
71
3
72
8
73
4
74
0
42
0.000000001
43
0.0000000001
44
0.0000000001
40
4
40
4
40
4
40
4
40
5
40
5
40
5
40
5
10
174.4910932936848
20
-60.405576060562858
30
0
10
174.82182246026881
20
-60.405576060562858
30
0
10
175.09105667244103
20
-60.674638017960874
30
0
10
175.09105667244103
20
-61.005711694093385
30
0
0
LINE
5
548
100
AcDbEntity
8
0
100
AcDbLine
10
194.14105666767853
20
-61.005711694093385
30
0
11
194.14105666767853
21
-74.005090488586603
31
0
0
SPLINE
5
549
100
AcDbEntity
8
0
100
AcDbSpline
70
0
71
3
72
8
73
4
74
0
42
0.000000001
43
0.0000000001
44
0.0000000001
40
6
40
6
40
6
40
6
40
7
40
7
40
7
40
7
10
194.14105666767853
20
-74.005090488586603
30
0
10
194.14105666767853
20
-74.336164164719094
30
0
10
193.87182245550633
20
-74.605226122117116
30
0
10
193.54109328892233
20
-74.605226122117116
30
0
0
LINE
5
550
100
AcDbEntity
8
0
100
AcDbLine
10
193.54109328892233
20
-74.605226122117116
30
0
11
180.5413699848805
21
-74.605226122117116
31
0
0
SPLINE
5
551
100
AcDbEntity
8
0
100
AcDbSpline
70
0
71
3
72
8
73
4
74
0
42
0.000000001
43
0.0000000001
44
0.0000000001
40
0
40
0
40
0
40
0
40
1
40
1
40
1
40
1
10
180.5413699848805
20
-74.605226122117116
30
0
10
180.21046856352231
20
-74.605226122117116
30
0
10
179.94123435135003
20
-74.336164164719094
30
0
10
179.94123435135003
20
-74.005090488586603
30
0
0
LINE
5
552
100
AcDbEntity
8
0
100
AcDbLine
10
179.94123435135003
20
-74.005090488586617
30
0
11
179.94123435135003
21
-61.005711694093385
31
0
0
SPLINE
5
553
100
AcDbEntity
8
0
100
AcDbSpline
70
0
71
3
72
8
73
4
74
0
42
0.000000001
43
0.0000000001
44
0.0000000001
40
2
40
2
40
2
40
2
40
3
40
3
40
3
40
3
10
179.94123435135003
20
-61.005711694093385
30
0
10
179.94123435135003
20
-60.674638017960874
30
0
10
180.21046856352231
20
-60.405576060562858
30
0
10
180.5413699848805
20
-60.405576060562858
30
0
0
LINE
5
554
100
AcDbEntity
8
0
100
AcDbLine
10
180.5413699848805
20
-60.405576060562858
30
0
11
193.54109328892233
21
-60.405576060562858
31
0
0
SPLINE
5
555
100
AcDbEntity
8
0
100
AcDbSpline
70
0
71
3
72
8
73
4
74
0
42
0.000000001
43
0.0000000001
44
0.0000000001
40
4
40
4
40
4
40
4
40
5
40
5
40
5
40
5
10
193.54109328892233
20
-60.405576060562858
30
0
10
193.87182245550633
20
-60.405576060562858
30
0
10
194.14105666767853
20
-60.674638017960874
30
0
10
194.14105666767853
20
-61.005711694093385
30
0
0
LINE
5
556
100
AcDbEntity
8
0
100
AcDbLine
10
213.19105666291617
20
-61.005711694093385
30
0
11
213.19105666291617
21
-74.005090488586603
31
0
0
SPLINE
5
557
100
AcDbEntity
8
0
100
AcDbSpline
70
0
71
3
72
8
73
4
74
0
42
0.000000001
43
0.0000000001
44
0.0000000001
40
6
40
6
40
6
40
6
40
7
40
7
40
7
40
7
10
213.19105666291617
20
-74.005090488586603
30
0
10
213.19105666291617
20
-74.336164164719094
30
0
10
212.92182245074383
20
-74.605226122117116
30
0
10
212.5910932841598
20
-74.605226122117116
30
0
0
LINE
5
558
100
AcDbEntity
8
0
100
AcDbLine
10
212.5910932841598
20
-74.605226122117116
30
0
11
199.591369980118
21
-74.605226122117116
31
0
0
SPLINE
5
559
100
AcDbEntity
8
0
100
AcDbSpline
70
0
71
3
72
8
73
4
74
0
42
0.000000001
43
0.0000000001
44
0.0000000001
40
0
40
0
40
0
40
0
40
1
40
1
40
1
40
1
10
199.591369980118
20
-74.605226122117116
30
0
10
199.26046855875981
20
-74.605226122117116
30
0
10
198.9912343465875
20
-74.336164164719094
30
0
10
198.9912343465875
20
-74.005090488586603
30
0
0
LINE
5
560
100
AcDbEntity
8
0
100
AcDbLine
10
198.9912343465875
20
-74.005090488586617
30
0
11
198.9912343465875
21
-61.005711694093385
31
0
0
SPLINE
5
561
100
AcDbEntity
8
0
100
AcDbSpline
70
0
71
3
72
8
73
4
74
0
42
0.000000001
43
0.0000000001
44
0.0000000001
40
2
40
2
40
2
40
2
40
3
40
3
40
3
40
3
10
198.9912343465875
20
-61.005711694093385
30
0
10
198.9912343465875
20
-60.674638017960874
30
0
10
199.26046855875981
20
-60.405576060562858
30
0
10
199.591369980118
20
-60.405576060562858
30
0
0
LINE
5
562
100
AcDbEntity
8
0
100
AcDbLine
10
199.591369980118
20
-60.405576060562858
30
0
11
212.5910932841598
21
-60.405576060562858
31
0
0
SPLINE
5
563
100
AcDbEntity
8
0
100
AcDbSpline
70
0
71
3
72
8
73
4
74
0
42
0.000000001
43
0.0000000001
44
0.0000000001
40
4
40
4
40
4
40
4
40
5
40
5
40
5
40
5
10
212.5910932841598
20
-60.405576060562858
30
0
10
212.92182245074383
20
-60.405576060562858
30
0
10
213.19105666291617
20
-60.674638017960874
30
0
10
213.19105666291617
20
-61.005711694093385
30
0
0
LINE
5
564
100
AcDbEntity
8
0
100
AcDbLine
10
232.24105665815361
20
-61.005711694093385
30
0
11
232.24105665815361
21
-74.005090488586603
31
0
0
SPLINE
5
565
100
AcDbEntity
8
0
100
AcDbSpline
70
0
71
3
72
8
73
4
74
0
42
0.000000001
43
0.0000000001
44
0.0000000001
40
6
40
6
40
6
40
6
40
7
40
7
40
7
40
7
10
232.24105665815361
20
-74.005090488586603
30
0
10
232.24105665815361
20
-74.336164164719094
30
0
10
231.97182244598133
20
-74.605226122117116
30
0
10
231.6410932793973
20
-74.605226122117116
30
0
0
LINE
5
566
100
AcDbEntity
8
0
100
AcDbLine
10
231.6410932793973
20
-74.605226122117116
30
0
11
218.64136997535564
21
-74.605226122117116
31
0
0
SPLINE
5
567
100
AcDbEntity
8
0
100
AcDbSpline
70
0
71
3
72
8
73
4
74
0
42
0.000000001
43
0.0000000001
44
0.0000000001
40
0
40
0
40
0
40
0
40
1
40
1
40
1
40
1
10
218.64136997535564
20
-74.605226122117116
30
0
10
218.31046855399734
20
-74.605226122117116
30
0
10
218.041234341825
20
-74.336164164719094
30
0
10
218.041234341825
20
-74.005090488586603
30
0
0
LINE
5
568
100
AcDbEntity
8
0
100
AcDbLine
10
218.041234341825
20
-74.005090488586617
30
0
11
218.041234341825
21
-61.005711694093385
31
0
0
SPLINE
5
569
100
AcDbEntity
8
0
100
AcDbSpline
70
0
71
3
72
8
73
4
74
0
42
0.000000001
43
0.0000000001
44
0.0000000001
40
2
40
2
40
2
40
2
40
3
40
3
40
3
40
3
10
218.041234341825
20
-61.005711694093385
30
0
10
218.041234341825
20
-60.674638017960874
30
0
10
218.31046855399734
20
-60.405576060562858
30
0
10
218.64136997535564
20
-60.405576060562858
30
0
0
LINE
5
570
100
AcDbEntity
8
0
100
AcDbLine
10
218.64136997535564
20
-60.405576060562858
30
0
11
231.6410932793973
21
-60.405576060562858
31
0
0
SPLINE
5
571
100
AcDbEntity
8
0
100
AcDbSpline
70
0
71
3
72
8
73
4
74
0
42
0.000000001
43
0.0000000001
44
0.0000000001
40
4
40
4
40
4
40
4
40
5
40
5
40
5
40
5
10
231.6410932793973
20
-60.405576060562858
30
0
10
231.97182244598133
20
-60.405576060562858
30
0
10
232.24105665815361
20
-60.674638017960874
30
0
10
232.24105665815361
20
-61.005711694093385
30
0
0
LINE
5
572
100
AcDbEntity
8
0
100
AcDbLine
10
251.29105665339114
20
-61.005711694093385
30
0
11
251.29105665339114
21
-74.005090488586603
31
0
0
SPLINE
5
573
100
AcDbEntity
8
0
100
AcDbSpline
70
0
71
3
72
8
73
4
74
0
42
0.000000001
43
0.0000000001
44
0.0000000001
40
6
40
6
40
6
40
6
40
7
40
7
40
7
40
7
10
251.29105665339114
20
-74.005090488586603
30
0
10
251.29105665339114
20
-74.336164164719094
30
0
10
251.02199469599302
20
-74.605226122117116
30
0
10
250.69092101986055
20
-74.605226122117116
30
0
0
LINE
5
574
100
AcDbEntity
8
0
100
AcDbLine
10
250.69092101986053
20
-74.605226122117116
30
0
11
237.6915422253673
21
-74.605226122117116
31
0
0
SPLINE
5
575
100
AcDbEntity
8
0
100
AcDbSpline
70
0
71
3
72
8
73
4
74
0
42
0.000000001
43
0.0000000001
44
0.0000000001
40
0
40
0
40
0
40
0
40
1
40
1
40
1
40
1
10
237.6915422253673
20
-74.605226122117116
30
0
10
237.36064080400911
20
-74.605226122117116
30
0
10
237.09123433706253
20
-74.336164164719094
30
0
10
237.09123433706253
20
-74.005090488586603
30
0
0
LINE
5
576
100
AcDbEntity
8
0
100
AcDbLine
10
237.09123433706253
20
-74.005090488586617
30
0
11
237.09123433706253
21
-61.005711694093385
31
0
0
SPLINE
5
577
100
AcDbEntity
8
0
100
AcDbSpline
70
0
71
3
72
8
73
4
74
0
42
0.000000001
43
0.0000000001
44
0.0000000001
40
2
40
2
40
2
40
2
40
3
40
3
40
3
40
3
10
237.09123433706253
20
-61.005711694093385
30
0
10
237.09123433706253
20
-60.674638017960874
30
0
10
237.36064080400911
20
-60.405576060562858
30
0
10
237.6915422253673
20
-60.405576060562858
30
0
0
LINE
5
578
100
AcDbEntity
8
0
100
AcDbLine
10
237.6915422253673
20
-60.405576060562858
30
0
11
250.69092101986055
21
-60.405576060562858
31
0
0
SPLINE
5
579
100
AcDbEntity
8
0
100
AcDbSpline
70
0
71
3
72
8
73
4
74
0
42
0.000000001
43
0.0000000001
44
0.0000000001
40
4
40
4
40
4
40
4
40
5
40
5
40
5
40
5
10
250.69092101986055
20
-60.405576060562858
30
0
10
251.02199469599302
20
-60.405576060562858
30
0
10
251.29105665339114
20
-60.674638017960874
30
0
10
251.29105665339114
20
-61.005711694093385
30
0
0
LINE
5
580
100
AcDbEntity
8
0
100
AcDbLine
10
156.04123058017859
20
-137.06271647103461
30
0
11
156.04123058017859
21
-150.24843075345299
31
0
0
SPLINE
5
581
100
AcDbEntity
8
0
100
AcDbSpline
70
0
71
3
72
8
73
4
74
0
42
0.000000001
43
0.0000000001
44
0.0000000001
40
7
40
7
40
7
40
7
40
8
40
8
40
8
40
8
10
156.04123058017859
20
-150.24843075345299
30
0
10
156.04123058017859
20
-150.5285216303713
30
0
10
155.81417086169441
20
-150.75557361046879
30
0
10
155.53408772316283
20
-150.75557361046879
30
0
0
LINE
5
582
100
AcDbEntity
8
0
100
AcDbLine
10
155.53408772316283
20
-150.75557361046879
30
0
11
142.34837344074469
21
-150.75557361046879
31
0
0
SPLINE
5
583
100
AcDbEntity
8
0
100
AcDbSpline
70
0
71
3
72
8
73
4
74
0
42
0.000000001
43
0.0000000001
44
0.0000000001
40
1
40
1
40
1
40
1
40
2
40
2
40
2
40
2
10
142.34837344074469
20
-150.75557361046879
30
0
10
142.06829030221269
20
-150.75557361046879
30
0
10
141.84123058372859
20
-150.5285216303713
30
0
10
141.84123058372859
20
-150.24843075345299
30
0
0
LINE
5
584
100
AcDbEntity
8
0
100
AcDbLine
10
141.84123058372859
20
-150.24843075345302
30
0
11
141.84123058372859
21
-137.06271647103461
31
0
0
SPLINE
5
585
100
AcDbEntity
8
0
100
AcDbSpline
70
0
71
3
72
8
73
4
74
0
42
0.000000001
43
0.0000000001
44
0.0000000001
40
3
40
3
40
3
40
3
40
4
40
4
40
4
40
4
10
141.84123058372859
20
-137.06271647103461
30
0
10
141.84123058372859
20
-136.78262559411749
30
0
10
142.06829030221269
20
-136.55557361401884
30
0
10
142.34837344074469
20
-136.55557361401884
30
0
0
LINE
5
586
100
AcDbEntity
8
0
100
AcDbLine
10
142.34837344074469
20
-136.55557361401884
30
0
11
155.53408772316283
21
-136.55557361401884
31
0
0
SPLINE
5
587
100
AcDbEntity
8
0
100
AcDbSpline
70
0
71
3
72
8
73
4
74
0
42
0.000000001
43
0.0000000001
44
0.0000000001
40
5
40
5
40
5
40
5
40
6
40
6
40
6
40
6
10
155.53408772316283
20
-136.55557361401884
30
0
10
155.81417086169441
20
-136.55557361401884
30
0
10
156.04123058017859
20
-136.78262559411749
30
0
10
156.04123058017859
20
-137.06271647103461
30
0
0
LINE
5
588
100
AcDbEntity
8
0
100
AcDbLine
10
209.59123377968027
20
-134.4647882123212
30
0
11
209.59123377968027
21
-149.15557376385411
31
0
0
SPLINE
5
589
100
AcDbEntity
8
0
100
AcDbSpline
70
0
71
3
72
8
73
4
74
0
42
0.000000001
43
0.0000000001
44
0.0000000001
40
7
40
7
40
7
40
7
40
8
40
8
40
8
40
8
10
209.59123377968027
20
-149.15557376385411
30
0
10
209.59123377968027
20
-149.43171970652469
30
0
10
209.36737970856811
20
-149.65557377763679
30
0
10
209.09123376589744
20
-149.65557377763679
30
0
0
LINE
5
590
100
AcDbEntity
8
0
100
AcDbLine
10
209.09123376589744
20
-149.65557377763679
30
0
11
203.09123360050444
21
-149.65557377763679
31
0
0
SPLINE
5
591
100
AcDbEntity
8
0
100
AcDbSpline
70
0
71
3
72
8
73
4
74
0
42
0.000000001
43
0.0000000001
44
0.0000000001
40
1
40
1
40
1
40
1
40
2
40
2
40
2
40
2
10
203.09123360050444
20
-149.65557377763679
30
0
10
202.81508765783371
20
-149.65557377763679
30
0
10
202.5912335867217
20
-149.43171970652469
30
0
10
202.5912335867217
20
-149.15557376385411
30
0
0
LINE
5
592
100
AcDbEntity
8
0
100
AcDbLine
10
202.59123358672167
20
-149.15557376385411
30
0
11
202.5912335867217
21
-134.4647882123212
31
0
0
SPLINE
5
593
100
AcDbEntity
8
0
100
AcDbSpline
70
0
71
3
72
8
73
4
74
0
42
0.000000001
43
0.0000000001
44
0.0000000001
40
3
40
3
40
3
40
3
40
4
40
4
40
4
40
4
10
202.5912335867217
20
-134.4647882123212
30
0
10
202.5912335867217
20
-134.1886422696505
30
0
10
202.81508765783371
20
-133.9647881985384
30
0
10
203.09123360050444
20
-133.9647881985384
30
0
0
LINE
5
594
100
AcDbEntity
8
0
100
AcDbLine
10
203.09123360050444
20
-133.9647881985384
30
0
11
209.09123376589744
21
-133.9647881985384
31
0
0
SPLINE
5
595
100
AcDbEntity
8
0
100
AcDbSpline
70
0
71
3
72
8
73
4
74
0
42
0.000000001
43
0.0000000001
44
0.0000000001
40
5
40
5
40
5
40
5
40
6
40
6
40
6
40
6
10
209.09123376589744
20
-133.9647881985384
30
0
10
209.36737970856811
20
-133.9647881985384
30
0
10
209.59123377968027
20
-134.1886422696505
30
0
10
209.59123377968027
20
-134.4647882123212
30
0
0
LINE
5
596
100
AcDbEntity
8
0
100
AcDbLine
10
95.291235206580254
20
-134.4647882123212
30
0
11
95.291235206580254
21
-149.15557376385411
31
0
0
SPLINE
5
597
100
AcDbEntity
8
0
100
AcDbSpline
70
0
71
3
72
8
73
4
74
0
42
0.000000001
43
0.0000000001
44
0.0000000001
40
7
40
7
40
7
40
7
40
8
40
8
40
8
40
8
10
95.291235206580254
20
-149.15557376385411
30
0
10
95.291235206580254
20
-149.43171970652469
30
0
10
95.067373506073451
20
-149.65557377763679
30
0
10
94.791235192797515
20
-149.65557377763679
30
0
0
LINE
5
598
100
AcDbEntity
8
0
100
AcDbLine
10
94.791235192797515
20
-149.65557377763679
30
0
11
88.791235027404525
21
-149.65557377763679
31
0
0
SPLINE
5
599
100
AcDbEntity
8
0
100
AcDbSpline
70
0
71
3
72
8
73
4
74
0
42
0.000000001
43
0.0000000001
44
0.0000000001
40
1
40
1
40
1
40
1
40
2
40
2
40
2
40
2
10
88.791235027404525
20
-149.65557377763679
30
0
10
88.515096714128546
20
-149.65557377763679
30
0
10
88.291235013621758
20
-149.43171970652469
30
0
10
88.291235013621758
20
-149.15557376385411
30
0
0
LINE
5
600
100
AcDbEntity
8
0
100
AcDbLine
10
88.291235013621758
20
-149.15557376385411
30
0
11
88.291235013621758
21
-134.4647882123212
31
0
0
SPLINE
5
601
100
AcDbEntity
8
0
100
AcDbSpline
70
0
71
3
72
8
73
4
74
0
42
0.000000001
43
0.0000000001
44
0.0000000001
40
3
40
3
40
3
40
3
40
4
40
4
40
4
40
4
10
88.291235013621758
20
-134.4647882123212
30
0
10
88.291235013621758
20
-134.1886422696505
30
0
10
88.515096714128546
20
-133.9647881985384
30
0
10
88.791235027404525
20
-133.9647881985384
30
0
0
LINE
5
602
100
AcDbEntity
8
0
100
AcDbLine
10
88.791235027404525
20
-133.9647881985384
30
0
11
94.791235192797515
21
-133.9647881985384
31
0
0
SPLINE
5
603
100
AcDbEntity
8
0
100
AcDbSpline
70
0
71
3
72
8
73
4
74
0
42
0.000000001
43
0.0000000001
44
0.0000000001
40
5
40
5
40
5
40
5
40
6
40
6
40
6
40
6
10
94.791235192797515
20
-133.9647881985384
30
0
10
95.067373506073451
20
-133.9647881985384
30
0
10
95.291235206580254
20
-134.1886422696505
30
0
10
95.291235206580254
20
-134.4647882123212
30
0
0
SPLINE
5
604
100
AcDbEntity
8
0
100
AcDbSpline
70
0
71
3
72
8
73
4
74
0
42
0.000000001
43
0.0000000001
44
0.0000000001
40
0
40
0
40
0
40
0
40
1
40
1
40
1
40
1
10
289.29123164642675
20
-61.005573336589279
30
0
10
289.29123164642675
20
-60.729430961673799
30
0
10
289.06737402134218
20
-60.505573336589258
30
0
10
288.79123164642641
20
-60.505573336589258
30
0
0
LINE
5
605
100
AcDbEntity
8
0
100
AcDbLine
10
289.29123164642675
20
-61.005573336589279
30
0
11
289.29123164642675
21
-74.005573336589421
31
0
0
SPLINE
5
606
100
AcDbEntity
8
0
100
AcDbSpline
70
0
71
3
72
8
73
4
74
0
42
0.000000001
43
0.0000000001
44
0.0000000001
40
0
40
0
40
0
40
0
40
1
40
1
40
1
40
1
10
288.79123164642641
20
-74.505573336589109
30
0
10
289.06737402134218
20
-74.505573336589109
30
0
10
289.29123164642675
20
-74.281715711504901
30
0
10
289.29123164642675
20
-74.005573336589421
30
0
0
LINE
5
607
100
AcDbEntity
8
0
100
AcDbLine
10
288.79123164642641
20
-74.505573336589109
30
0
11
288.70423164642659
21
-74.505573336589109
31
0
0
SPLINE
5
608
100
AcDbEntity
8
0
100
AcDbSpline
70
0
71
3
72
8
73
4
74
0
42
0.000000001
43
0.0000000001
44
0.0000000001
40
0
40
0
40
0
40
0
40
1
40
1
40
1
40
1
10
288.70423164642659
20
-74.505573336589109
30
0
10
288.42808927151083
20
-74.505573336589109
30
0
10
288.20423164642636
20
-74.72943096167397
30
0
10
288.20423164642636
20
-75.00557333658945
30
0
0
LINE
5
609
100
AcDbEntity
8
0
100
AcDbLine
10
288.20423164642631
20
-75.00557333658945
30
0
11
288.20423164642636
21
-76.005573336589492
31
0
0
SPLINE
5
610
100
AcDbEntity
8
0
100
AcDbSpline
70
0
71
3
72
8
73
4
74
0
42
0.000000001
43
0.0000000001
44
0.0000000001
40
0
40
0
40
0
40
0
40
1
40
1
40
1
40
1
10
287.70423164642659
20
-76.50557333658918
30
0
10
287.98037402134173
20
-76.50557333658918
30
0
10
288.20423164642636
20
-76.281715711504646
30
0
10
288.20423164642636
20
-76.005573336589492
30
0
0
LINE
5
611
100
AcDbEntity
8
0
100
AcDbLine
10
287.70423164642659
20
-76.50557333658918
30
0
11
281.70423164642642
21
-76.50557333658918
31
0
0
SPLINE
5
612
100
AcDbEntity
8
0
100
AcDbSpline
70
0
71
3
72
8
73
4
74
0
42
0.000000001
43
0.0000000001
44
0.0000000001
40
0
40
0
40
0
40
0
40
1
40
1
40
1
40
1
10
281.20423164642659
20
-76.005573336589492
30
0
10
281.20423164642659
20
-76.281715711504646
30
0
10
281.42808927151123
20
-76.50557333658918
30
0
10
281.70423164642642
20
-76.50557333658918
30
0
0
LINE
5
613
100
AcDbEntity
8
0
100
AcDbLine
10
281.20423164642659
20
-76.005573336589492
30
0
11
281.20423164642659
21
-75.00557333658945
31
0
0
SPLINE
5
614
100
AcDbEntity
8
0
100
AcDbSpline
70
0
71
3
72
8
73
4
74
0
42
0.000000001
43
0.0000000001
44
0.0000000001
40
0
40
0
40
0
40
0
40
1
40
1
40
1
40
1
10
281.20423164642659
20
-75.00557333658945
30
0
10
281.20423164642659
20
-74.72943096167397
30
0
10
280.98037402134207
20
-74.505573336589109
30
0
10
280.70423164642636
20
-74.505573336589109
30
0
0
LINE
5
615
100
AcDbEntity
8
0
100
AcDbLine
10
280.70423164642636
20
-74.505573336589109
30
0
11
264.82823164642639
21
-74.505573336589109
31
0
0
SPLINE
5
616
100
AcDbEntity
8
0
100
AcDbSpline
70
0
71
3
72
8
73
4
74
0
42
0.000000001
43
0.0000000001
44
0.0000000001
40
0
40
0
40
0
40
0
40
1
40
1
40
1
40
1
10
264.82823164642639
20
-74.505573336589109
30
0
10
264.55208927151119
20
-74.505573336589109
30
0
10
264.32823164642616
20
-74.72943096167397
30
0
10
264.32823164642616
20
-75.00557333658945
30
0
0
LINE
5
617
100
AcDbEntity
8
0
100
AcDbLine
10
264.3282316464261
20
-75.00557333658945
30
0
11
264.32823164642673
21
-76.005573336589492
31
0
0
SPLINE
5
618
100
AcDbEntity
8
0
100
AcDbSpline
70
0
71
3
72
8
73
4
74
0
42
0.000000001
43
0.0000000001
44
0.0000000001
40
0
40
0
40
0
40
0
40
1
40
1
40
1
40
1
10
263.82823164642639
20
-76.505573336589507
30
0
10
264.10437402134221
20
-76.505573336589507
30
0
10
264.32823164642673
20
-76.281715711504646
30
0
10
264.32823164642673
20
-76.005573336589492
30
0
0
LINE
5
619
100
AcDbEntity
8
0
100
AcDbLine
10
263.82823164642639
20
-76.505573336589507
30
0
11
257.82823164642622
21
-76.50557333658918
31
0
0
SPLINE
5
620
100
AcDbEntity
8
0
100
AcDbSpline
70
0
71
3
72
8
73
4
74
0
42
0.000000001
43
0.0000000001
44
0.0000000001
40
0
40
0
40
0
40
0
40
1
40
1
40
1
40
1
10
257.32823164642639
20
-76.005573336589492
30
0
10
257.32823164642639
20
-76.281715711504646
30
0
10
257.55208927151102
20
-76.50557333658918
30
0
10
257.82823164642622
20
-76.50557333658918
30
0
0
LINE
5
621
100
AcDbEntity
8
0
100
AcDbLine
10
257.32823164642639
20
-76.005573336589492
30
0
11
257.32823164642639
21
-75.00557333658945
31
0
0
SPLINE
5
622
100
AcDbEntity
8
0
100
AcDbSpline
70
0
71
3
72
8
73
4
74
0
42
0.000000001
43
0.0000000001
44
0.0000000001
40
0
40
0
40
0
40
0
40
1
40
1
40
1
40
1
10
257.32823164642639
20
-75.00557333658945
30
0
10
257.32823164642639
20
-74.72943096167397
30
0
10
257.10437402134193
20
-74.505573336589109
30
0
10
256.82823164642622
20
-74.505573336589109
30
0
0
LINE
5
623
100
AcDbEntity
8
0
100
AcDbLine
10
256.82823164642622
20
-74.505573336589109
30
0
11
256.7412316464264
21
-74.505573336589109
31
0
0
SPLINE
5
624
100
AcDbEntity
8
0
100
AcDbSpline
70
0
71
3
72
8
73
4
74
0
42
0.000000001
43
0.0000000001
44
0.0000000001
40
0
40
0
40
0
40
0
40
1
40
1
40
1
40
1
10
256.24123164642668
20
-74.005573336589421
30
0
10
256.24123164642668
20
-74.281715711504901
30
0
10
256.4650892715112
20
-74.505573336589109
30
0
10
256.7412316464264
20
-74.505573336589109
30
0
0
LINE
5
625
100
AcDbEntity
8
0
100
AcDbLine
10
256.24123164642668
20
-74.005573336589421
30
0
11
256.24123164642668
21
-61.005573336589279
31
0
0
SPLINE
5
626
100
AcDbEntity
8
0
100
AcDbSpline
70
0
71
3
72
8
73
4
74
0
42
0.000000001
43
0.0000000001
44
0.0000000001
40
0
40
0
40
0
40
0
40
1
40
1
40
1
40
1
10
256.7412316464264
20
-60.505573336589258
30
0
10
256.4650892715112
20
-60.505573336589258
30
0
10
256.24123164642668
20
-60.729430961673799
30
0
10
256.24123164642668
20
-61.005573336589279
30
0
0
LINE
5
627
100
AcDbEntity
8
0
100
AcDbLine
10
256.7412316464264
20
-60.505573336589258
30
0
11
288.79123164642641
21
-60.505573336589258
31
0
0
SPLINE
5
628
100
AcDbEntity
8
0
100
AcDbSpline
70
0
71
3
72
8
73
4
74
0
42
0.000000001
43
0.0000000001
44
0.0000000001
40
0
40
0
40
0
40
0
40
1
40
1
40
1
40
1
10
289.29123164642675
20
-118.1555733365899
30
0
10
289.29123164642675
20
-117.87943096167342
30
0
10
289.06737402134218
20
-117.65557333658953
30
0
10
288.79123164642641
20
-117.65557333658953
30
0
0
LINE
5
629
100
AcDbEntity
8
0
100
AcDbLine
10
289.29123164642675
20
-118.1555733365899
30
0
11
289.29123164642675
21
-131.1555733365897
31
0
0
SPLINE
5
630
100
AcDbEntity
8
0
100
AcDbSpline
70
0
71
3
72
8
73
4
74
0
42
0.000000001
43
0.0000000001
44
0.0000000001
40
0
40
0
40
0
40
0
40
1
40
1
40
1
40
1
10
288.79123164642641
20
-131.6555733365887
30
0
10
289.06737402134218
20
-131.6555733365887
30
0
10
289.29123164642675
20
-131.43171571150481
30
0
10
289.29123164642675
20
-131.1555733365897
30
0
0
LINE
5
631
100
AcDbEntity
8
0
100
AcDbLine
10
288.79123164642641
20
-131.6555733365887
30
0
11
281.56048164642613
21
-131.6555733365887
31
0
0
SPLINE
5
632
100
AcDbEntity
8
0
100
AcDbSpline
70
0
71
3
72
8
73
4
74
0
42
0.000000001
43
0.0000000001
44
0.0000000001
40
0
40
0
40
0
40
0
40
1
40
1
40
1
40
1
10
281.56048164642613
20
-131.6555733365887
30
0
10
281.28433927151087
20
-131.6555733365887
30
0
10
281.06048164642647
20
-131.8794309616739
30
0
10
281.06048164642647
20
-132.15557333658916
30
0
0
LINE
5
633
100
AcDbEntity
8
0
100
AcDbLine
10
281.06048164642641
20
-132.15557333658916
30
0
11
281.06048164642647
21
-133.1555733365897
31
0
0
SPLINE
5
634
100
AcDbEntity
8
0
100
AcDbSpline
70
0
71
3
72
8
73
4
74
0
42
0.000000001
43
0.0000000001
44
0.0000000001
40
0
40
0
40
0
40
0
40
1
40
1
40
1
40
1
10
280.56048164642664
20
-133.65557333658879
30
0
10
280.83662402134178
20
-133.65557333658879
30
0
10
281.06048164642647
20
-133.43171571150489
30
0
10
281.06048164642647
20
-133.1555733365897
30
0
0
LINE
5
635
100
AcDbEntity
8
0
100
AcDbLine
10
280.56048164642664
20
-133.65557333658879
30
0
11
274.56048164642652
21
-133.65557333658879
31
0
0
SPLINE
5
636
100
AcDbEntity
8
0
100
AcDbSpline
70
0
71
3
72
8
73
4
74
0
42
0.000000001
43
0.0000000001
44
0.0000000001
40
0
40
0
40
0
40
0
40
1
40
1
40
1
40
1
10
274.06048164642618
20
-133.1555733365897
30
0
10
274.06048164642618
20
-133.43171571150489
30
0
10
274.28433927151139
20
-133.65557333658879
30
0
10
274.56048164642652
20
-133.65557333658879
30
0
0
LINE
5
637
100
AcDbEntity
8
0
100
AcDbLine
10
274.06048164642618
20
-133.1555733365897
30
0
11
274.06048164642618
21
-132.15557333658916
31
0
0
SPLINE
5
638
100
AcDbEntity
8
0
100
AcDbSpline
70
0
71
3
72
8
73
4
74
0
42
0.000000001
43
0.0000000001
44
0.0000000001
40
0
40
0
40
0
40
0
40
1
40
1
40
1
40
1
10
274.06048164642618
20
-132.15557333658916
30
0
10
274.06048164642618
20
-131.8794309616739
30
0
10
273.83662402134149
20
-131.6555733365887
30
0
10
273.56048164642641
20
-131.6555733365887
30
0
0
LINE
5
639
100
AcDbEntity
8
0
100
AcDbLine
10
273.56048164642641
20
-131.6555733365887
30
0
11
257.68448164642649
21
-131.6555733365887
31
0
0
SPLINE
5
640
100
AcDbEntity
8
0
100
AcDbSpline
70
0
71
3
72
8
73
4
74
0
42
0.000000001
43
0.0000000001
44
0.0000000001
40
0
40
0
40
0
40
0
40
1
40
1
40
1
40
1
10
257.68448164642649
20
-131.6555733365887
30
0
10
257.40833927151141
20
-131.6555733365887
30
0
10
257.18448164642678
20
-131.8794309616739
30
0
10
257.18448164642678
20
-132.15557333658916
30
0
0
LINE
5
641
100
AcDbEntity
8
0
100
AcDbLine
10
257.18448164642678
20
-132.15557333658916
30
0
11
257.18448164642678
21
-133.1555733365897
31
0
0
SPLINE
5
642
100
AcDbEntity
8
0
100
AcDbSpline
70
0
71
3
72
8
73
4
74
0
42
0.000000001
43
0.0000000001
44
0.0000000001
40
0
40
0
40
0
40
0
40
1
40
1
40
1
40
1
10
256.68448164642649
20
-133.65557333658879
30
0
10
256.96062402134157
20
-133.65557333658879
30
0
10
257.18448164642678
20
-133.43171571150489
30
0
10
257.18448164642678
20
-133.1555733365897
30
0
0
LINE
5
643
100
AcDbEntity
8
0
100
AcDbLine
10
256.68448164642649
20
-133.65557333658879
30
0
11
250.68448164642632
21
-133.65557333658879
31
0
0
SPLINE
5
644
100
AcDbEntity
8
0
100
AcDbSpline
70
0
71
3
72
8
73
4
74
0
42
0.000000001
43
0.0000000001
44
0.0000000001
40
0
40
0
40
0
40
0
40
1
40
1
40
1
40
1
10
250.18448164642649
20
-133.1555733365897
30
0
10
250.18448164642649
20
-133.43171571150489
30
0
10
250.40833927151112
20
-133.65557333658879
30
0
10
250.68448164642632
20
-133.65557333658879
30
0
0
LINE
5
645
100
AcDbEntity
8
0
100
AcDbLine
10
250.18448164642649
20
-133.1555733365897
30
0
11
250.18448164642649
21
-132.15557333658916
31
0
0
SPLINE
5
646
100
AcDbEntity
8
0
100
AcDbSpline
70
0
71
3
72
8
73
4
74
0
42
0.000000001
43
0.0000000001
44
0.0000000001
40
0
40
0
40
0
40
0
40
1
40
1
40
1
40
1
10
250.18448164642649
20
-132.15557333658916
30
0
10
250.18448164642649
20
-131.8794309616739
30
0
10
249.960624021342
20
-131.6555733365887
30
0
10
249.68448164642624
20
-131.6555733365887
30
0
0
LINE
5
647
100
AcDbEntity
8
0
100
AcDbLine
10
249.68448164642624
20
-131.6555733365887
30
0
11
249.59748164642639
21
-131.6555733365887
31
0
0
SPLINE
5
648
100
AcDbEntity
8
0
100
AcDbSpline
70
0
71
3
72
8
73
4
74
0
42
0.000000001
43
0.0000000001
44
0.0000000001
40
0
40
0
40
0
40
0
40
1
40
1
40
1
40
1
10
249.0974816464261
20
-131.1555733365897
30
0
10
249.0974816464261
20
-131.43171571150481
30
0
10
249.32133927151131
20
-131.6555733365887
30
0
10
249.59748164642639
20
-131.6555733365887
30
0
0
LINE
5
649
100
AcDbEntity
8
0
100
AcDbLine
10
249.0974816464261
20
-131.1555733365897
30
0
11
249.0974816464261
21
-118.1555733365899
31
0
0
SPLINE
5
650
100
AcDbEntity
8
0
100
AcDbSpline
70
0
71
3
72
8
73
4
74
0
42
0.000000001
43
0.0000000001
44
0.0000000001
40
0
40
0
40
0
40
0
40
1
40
1
40
1
40
1
10
249.59748164642639
20
-117.65557333658953
30
0
10
249.32133927151131
20
-117.65557333658953
30
0
10
249.0974816464261
20
-117.87943096167342
30
0
10
249.0974816464261
20
-118.1555733365899
30
0
0
LINE
5
651
100
AcDbEntity
8
0
100
AcDbLine
10
249.59748164642639
20
-117.65557333658953
30
0
11
288.79123164642641
21
-117.65557333658953
31
0
0
ENDSEC
0
SECTION
2
OBJECTS
0
DICTIONARY
5
C
100
AcDbDictionary
3
ACAD_GROUP
350
D
3
ACAD_MLINESTYLE
350
17
0
DICTIONARY
5
D
100
AcDbDictionary
0
DICTIONARY
5
1A
330
C
100
AcDbDictionary
0
DICTIONARY
5
17
100
AcDbDictionary
0
ENDSEC
0
EOF
