G04 #@! TF.GenerationSoftware,KiCad,Pcbnew,(5.1.10)-1*
G04 #@! TF.CreationDate,2021-11-07T22:26:58+07:00*
G04 #@! TF.ProjectId,averange65,61766572-616e-4676-9536-352e6b696361,rev?*
G04 #@! TF.SameCoordinates,Original*
G04 #@! TF.FileFunction,Soldermask,Top*
G04 #@! TF.FilePolarity,Negative*
%FSLAX46Y46*%
G04 Gerber Fmt 4.6, Leading zero omitted, Abs format (unit mm)*
G04 Created by KiCad (PCBNEW (5.1.10)-1) date 2021-11-07 22:26:58*
%MOMM*%
%LPD*%
G01*
G04 APERTURE LIST*
%ADD10C,1.800000*%
%ADD11C,0.750000*%
%ADD12O,1.100000X2.200000*%
%ADD13O,1.100000X1.700000*%
%ADD14C,2.100000*%
%ADD15O,2.100000X3.300000*%
%ADD16C,1.850000*%
%ADD17C,4.087800*%
%ADD18C,3.148000*%
G04 APERTURE END LIST*
D10*
X132278149Y-18056223D03*
X129738149Y-18056223D03*
X139898149Y-18056223D03*
X137358149Y-18056223D03*
X134818149Y-18056223D03*
X142438149Y-18056223D03*
D11*
X8038412Y-4285055D03*
X2258412Y-4285055D03*
D12*
X828412Y-4815055D03*
X9468412Y-4815055D03*
D13*
X828412Y-635055D03*
X9468412Y-635055D03*
D14*
X278876149Y-20222223D03*
X281376149Y-20222223D03*
X283876149Y-20222223D03*
D15*
X275776149Y-12722223D03*
X286976149Y-12722223D03*
D14*
X278876149Y-5722223D03*
X283876149Y-5722223D03*
D16*
X195968845Y-69872223D03*
X185808845Y-69872223D03*
D17*
X190888845Y-69872223D03*
X150407533Y-88922291D03*
D16*
X145327533Y-88922291D03*
X155487533Y-88922291D03*
D18*
X138501283Y-95907291D03*
X162313783Y-95907291D03*
D17*
X138501283Y-80667291D03*
X162313783Y-80667291D03*
X78969973Y-88922291D03*
D16*
X73889973Y-88922291D03*
X84049973Y-88922291D03*
D18*
X67063723Y-95907291D03*
X90876223Y-95907291D03*
D17*
X67063723Y-80667291D03*
X90876223Y-80667291D03*
D16*
X117387501Y-88922291D03*
X107227501Y-88922291D03*
D17*
X112307501Y-88922291D03*
D16*
X286456149Y-12722223D03*
X276296149Y-12722223D03*
D17*
X281376149Y-12722223D03*
D16*
X706149Y-12722223D03*
X-9453851Y-12722223D03*
D17*
X-4373851Y-12722223D03*
D16*
X241212633Y-69872223D03*
X231052633Y-69872223D03*
D17*
X236132633Y-69872223D03*
X117070569Y-88922783D03*
D16*
X111990569Y-88922783D03*
X122150569Y-88922783D03*
D18*
X67070669Y-95907783D03*
X167070469Y-95907783D03*
D17*
X67070669Y-80667783D03*
X167070469Y-80667783D03*
X251690153Y-29359223D03*
X251690153Y-53235223D03*
D18*
X266930153Y-29359223D03*
X266930153Y-53235223D03*
D16*
X259945153Y-46377223D03*
X259945153Y-36217223D03*
D17*
X259945153Y-41297223D03*
D16*
X286457509Y-88922783D03*
X276297509Y-88922783D03*
D17*
X281377509Y-88922783D03*
D16*
X267407429Y-88922783D03*
X257247429Y-88922783D03*
D17*
X262327429Y-88922783D03*
D16*
X248357349Y-88922783D03*
X238197349Y-88922783D03*
D17*
X243277349Y-88922783D03*
D16*
X217400969Y-88922783D03*
X207240969Y-88922783D03*
D17*
X212320969Y-88922783D03*
D16*
X193588369Y-88922783D03*
X183428369Y-88922783D03*
D17*
X188508369Y-88922783D03*
D16*
X215019709Y-88922783D03*
X204859709Y-88922783D03*
D17*
X209939709Y-88922783D03*
X128976869Y-88922783D03*
D16*
X123896869Y-88922783D03*
X134056869Y-88922783D03*
D18*
X71826869Y-95907783D03*
X186126869Y-95907783D03*
D17*
X71826869Y-80667783D03*
X186126869Y-80667783D03*
D16*
X53094029Y-88922783D03*
X42934029Y-88922783D03*
D17*
X48014029Y-88922783D03*
D16*
X29281177Y-88922783D03*
X19121177Y-88922783D03*
D17*
X24201177Y-88922783D03*
D16*
X50712769Y-88922783D03*
X40552769Y-88922783D03*
D17*
X45632769Y-88922783D03*
D16*
X26899925Y-88922291D03*
X16739925Y-88922291D03*
D17*
X21819925Y-88922291D03*
D16*
X3087569Y-88922783D03*
X-7072431Y-88922783D03*
D17*
X-1992431Y-88922783D03*
D16*
X243593885Y-50822223D03*
X233433885Y-50822223D03*
D17*
X238513885Y-50822223D03*
D16*
X286456421Y-69872223D03*
X276296421Y-69872223D03*
D17*
X281376421Y-69872223D03*
D16*
X267406405Y-69872223D03*
X257246405Y-69872223D03*
D17*
X262326405Y-69872223D03*
D16*
X215018861Y-69872223D03*
X204858861Y-69872223D03*
D17*
X209938861Y-69872223D03*
D16*
X176918829Y-69872223D03*
X166758829Y-69872223D03*
D17*
X171838829Y-69872223D03*
D16*
X157868813Y-69872223D03*
X147708813Y-69872223D03*
D17*
X152788813Y-69872223D03*
D16*
X138818797Y-69872223D03*
X128658797Y-69872223D03*
D17*
X133738797Y-69872223D03*
D16*
X119768781Y-69872223D03*
X109608781Y-69872223D03*
D17*
X114688781Y-69872223D03*
D16*
X100718765Y-69872223D03*
X90558765Y-69872223D03*
D17*
X95638765Y-69872223D03*
D16*
X81668749Y-69872223D03*
X71508749Y-69872223D03*
D17*
X76588749Y-69872223D03*
D16*
X62618733Y-69872223D03*
X52458733Y-69872223D03*
D17*
X57538733Y-69872223D03*
D16*
X286456421Y-50822223D03*
X276296421Y-50822223D03*
D17*
X281376421Y-50822223D03*
D16*
X43568717Y-69872223D03*
X33408717Y-69872223D03*
D17*
X38488717Y-69872223D03*
X250420145Y-50822223D03*
D16*
X245340145Y-50822223D03*
X255500145Y-50822223D03*
D18*
X238513895Y-43837223D03*
X262326395Y-43837223D03*
D17*
X238513895Y-59077223D03*
X262326395Y-59077223D03*
X7532441Y-69872223D03*
D16*
X2452441Y-69872223D03*
X12612441Y-69872223D03*
D18*
X-4373809Y-62887223D03*
X19438691Y-62887223D03*
D17*
X-4373809Y-78127223D03*
X19438691Y-78127223D03*
D16*
X5468657Y-88922291D03*
X-4691343Y-88922291D03*
D17*
X388657Y-88922291D03*
D16*
X224543869Y-50822223D03*
X214383869Y-50822223D03*
D17*
X219463869Y-50822223D03*
D16*
X205493853Y-50822223D03*
X195333853Y-50822223D03*
D17*
X200413853Y-50822223D03*
D16*
X186443837Y-50822223D03*
X176283837Y-50822223D03*
D17*
X181363837Y-50822223D03*
D16*
X167393821Y-50822223D03*
X157233821Y-50822223D03*
D17*
X162313821Y-50822223D03*
D16*
X148343805Y-50822223D03*
X138183805Y-50822223D03*
D17*
X143263805Y-50822223D03*
D16*
X129293789Y-50822223D03*
X119133789Y-50822223D03*
D17*
X124213789Y-50822223D03*
D16*
X110243773Y-50822223D03*
X100083773Y-50822223D03*
D17*
X105163773Y-50822223D03*
D16*
X91193757Y-50822223D03*
X81033757Y-50822223D03*
D17*
X86113757Y-50822223D03*
D16*
X72143741Y-50822223D03*
X61983741Y-50822223D03*
D17*
X67063741Y-50822223D03*
D16*
X53093725Y-50822223D03*
X42933725Y-50822223D03*
D17*
X48013725Y-50822223D03*
D16*
X34043709Y-50822223D03*
X23883709Y-50822223D03*
D17*
X28963709Y-50822223D03*
D16*
X286456421Y-31772223D03*
X276296421Y-31772223D03*
D17*
X281376421Y-31772223D03*
D16*
X262643901Y-31772223D03*
X252483901Y-31772223D03*
D17*
X257563901Y-31772223D03*
D16*
X7849937Y-50822223D03*
X-2310063Y-50822223D03*
D17*
X2769937Y-50822223D03*
D16*
X3087433Y-50822223D03*
X-7072567Y-50822223D03*
D17*
X-1992567Y-50822223D03*
D16*
X238831381Y-31772223D03*
X228671381Y-31772223D03*
D17*
X233751381Y-31772223D03*
D16*
X219781365Y-31772223D03*
X209621365Y-31772223D03*
D17*
X214701365Y-31772223D03*
D16*
X200731349Y-31772223D03*
X190571349Y-31772223D03*
D17*
X195651349Y-31772223D03*
D16*
X181681333Y-31772223D03*
X171521333Y-31772223D03*
D17*
X176601333Y-31772223D03*
D16*
X162631317Y-31772223D03*
X152471317Y-31772223D03*
D17*
X157551317Y-31772223D03*
D16*
X143581301Y-31772223D03*
X133421301Y-31772223D03*
D17*
X138501301Y-31772223D03*
D16*
X124531285Y-31772223D03*
X114371285Y-31772223D03*
D17*
X119451285Y-31772223D03*
D16*
X105481269Y-31772223D03*
X95321269Y-31772223D03*
D17*
X100401269Y-31772223D03*
D16*
X86431253Y-31772223D03*
X76271253Y-31772223D03*
D17*
X81351253Y-31772223D03*
D16*
X67381237Y-31772223D03*
X57221237Y-31772223D03*
D17*
X62301237Y-31772223D03*
D16*
X48331221Y-31772223D03*
X38171221Y-31772223D03*
D17*
X43251221Y-31772223D03*
D16*
X29281205Y-31772223D03*
X19121205Y-31772223D03*
D17*
X24201205Y-31772223D03*
D16*
X5468685Y-31772223D03*
X-4691315Y-31772223D03*
D17*
X388685Y-31772223D03*
X252801149Y-12722223D03*
D16*
X247721149Y-12722223D03*
X257881149Y-12722223D03*
D18*
X240894899Y-5737223D03*
X264707399Y-5737223D03*
D17*
X240894899Y-20977223D03*
X264707399Y-20977223D03*
D16*
X267406149Y-12722223D03*
X257246149Y-12722223D03*
D17*
X262326149Y-12722223D03*
D16*
X248356149Y-12722223D03*
X238196149Y-12722223D03*
D17*
X243276149Y-12722223D03*
D16*
X229306149Y-12722223D03*
X219146149Y-12722223D03*
D17*
X224226149Y-12722223D03*
D16*
X210256149Y-12722223D03*
X200096149Y-12722223D03*
D17*
X205176149Y-12722223D03*
D16*
X191206149Y-12722223D03*
X181046149Y-12722223D03*
D17*
X186126149Y-12722223D03*
D16*
X172156149Y-12722223D03*
X161996149Y-12722223D03*
D17*
X167076149Y-12722223D03*
D16*
X153106149Y-12722223D03*
X142946149Y-12722223D03*
D17*
X148026149Y-12722223D03*
D16*
X134056149Y-12722223D03*
X123896149Y-12722223D03*
D17*
X128976149Y-12722223D03*
D16*
X115006149Y-12722223D03*
X104846149Y-12722223D03*
D17*
X109926149Y-12722223D03*
D16*
X95956149Y-12722223D03*
X85796149Y-12722223D03*
D17*
X90876149Y-12722223D03*
D16*
X76906149Y-12722223D03*
X66746149Y-12722223D03*
D17*
X71826149Y-12722223D03*
D16*
X57856149Y-12722223D03*
X47696149Y-12722223D03*
D17*
X52776149Y-12722223D03*
D16*
X38806149Y-12722223D03*
X28646149Y-12722223D03*
D17*
X33726149Y-12722223D03*
D16*
X19756149Y-12722223D03*
X9596149Y-12722223D03*
D17*
X14676149Y-12722223D03*
M02*
