M48
; DRILL file {KiCad (5.1.10)-1} date 11/07/21 22:27:12
; FORMAT={-:-/ absolute / metric / decimal}
; #@! TF.CreationDate,2021-11-07T22:27:12+07:00
; #@! TF.GenerationSoftware,Kicad,Pcbnew,(5.1.10)-1
; #@! TF.FileFunction,Plated,1,2,PTH
FMAT,2
METRIC
T1C0.400
T2C0.600
T3C1.000
T4C1.040
T5C1.470
T6C1.500
%
G90
G05
T1
X-8.057Y-61.998
X-4.501Y-42.313
X-4.374Y-17.548
X-2.583Y-41.31
X-2.488Y-34.674
X-1.397Y-44.274
X-0.032Y-21.588
X0.579Y-23.898
X2.698Y-13.692
X3.514Y-8.257
X3.961Y-12.127
X4.262Y-43.583
X6.342Y-12.127
X6.64Y-7.657
X7.12Y-41.297
X7.31Y-39.392
X7.598Y-12.788
X8.812Y-45.933
X10.509Y-25.819
X10.93Y-45.933
X11.438Y-18.882
X11.501Y-50.06
X11.755Y-59.585
X12.263Y-54.985
X13.501Y-68.221
X17.677Y-18.056
X18.248Y-16.889
X18.248Y-45.465
X19.775Y-15.624
X20.034Y-45.465
X20.264Y-18.056
X22.415Y-6.769
X22.415Y-9.15
X23.693Y-59.966
X25.217Y-52.854
X26.995Y-68.221
X27.948Y-18.882
X30.316Y-34.674
X38.489Y-75.231
X39.695Y-46.885
X43.061Y-12.722
X43.061Y-18.882
X43.252Y-37.13
X46.823Y-14.508
X48.014Y-56.18
X57.539Y-75.826
X59.317Y-82.382
X62.302Y-37.13
X67.064Y-56.18
X79.566Y-6.174
X81.352Y-37.13
X81.947Y-75.826
X84.924Y-14.508
X86.114Y-56.18
X100.402Y-37.13
X100.465Y-82.509
X105.164Y-56.18
X114.689Y-75.826
X117.737Y-7.071
X119.452Y-37.13
X119.896Y-7.325
X121.123Y-11.325
X123.619Y-56.18
X126.0Y-14.508
X133.739Y-75.826
X138.502Y-37.13
X139.693Y-15.311
X143.264Y-56.18
X148.027Y-16.889
X152.789Y-75.826
X155.766Y-6.174
X157.552Y-37.13
X161.124Y-14.508
X162.315Y-56.18
X167.077Y-16.889
X176.538Y-81.874
X176.602Y-37.13
X176.602Y-75.826
X181.365Y-56.18
X186.127Y-16.889
X193.866Y-6.174
X195.652Y-37.13
X199.224Y-14.508
X200.415Y-56.18
X201.01Y-75.826
X205.177Y-16.889
X219.465Y-75.826
X223.037Y-27.01
X224.227Y-16.889
X229.687Y-10.182
X230.005Y-76.056
X231.395Y-47.958
X233.065Y-11.097
X233.611Y-45.742
X233.752Y-6.174
X234.234Y-11.097
X236.134Y-40.702
X237.324Y-14.508
X244.491Y-24.351
X245.03Y-23.651
X249.075Y-17.187
X254.29Y-17.187
X259.35Y-18.378
X267.978Y-6.563
X273.043Y-78.207
X273.043Y-91.304
X274.234Y-84.755
X274.234Y-87.732
X278.329Y-75.776
X278.773Y-76.476
X286.329Y-64.587
X288.544Y-63.601
T3
X129.738Y-18.056
X132.278Y-18.056
X134.818Y-18.056
X137.358Y-18.056
X139.898Y-18.056
X142.438Y-18.056
X278.876Y-5.722
X278.876Y-20.222
X281.376Y-20.222
X283.876Y-5.722
X283.876Y-20.222
T4
X-3.263Y-55.902
X-0.723Y-55.902
X1.5Y-55.902
X4.04Y-55.902
T5
X-8.184Y-10.182
X-5.803Y-48.282
X-5.802Y-86.383
X-3.421Y-86.382
X-3.421Y-29.232
X-1.834Y-7.642
X-1.04Y-48.282
X0.547Y-45.742
X0.548Y-83.843
X2.929Y-83.842
X2.929Y-26.692
X3.722Y-67.332
X5.31Y-45.742
X10.072Y-64.792
X10.866Y-10.182
X17.216Y-7.642
X18.01Y-86.382
X20.391Y-86.383
X20.391Y-29.232
X24.36Y-83.842
X25.154Y-48.282
X26.741Y-83.843
X26.741Y-26.692
X29.916Y-10.182
X31.504Y-45.742
X34.679Y-67.332
X36.266Y-7.642
X39.441Y-29.232
X41.029Y-64.792
X41.823Y-86.383
X44.204Y-48.282
X44.204Y-86.383
X45.791Y-26.692
X48.173Y-83.843
X48.966Y-10.182
X50.554Y-45.742
X50.554Y-83.843
X53.729Y-67.332
X55.316Y-7.642
X58.491Y-29.232
X60.079Y-64.792
X63.254Y-48.282
X64.841Y-26.692
X68.016Y-10.182
X69.604Y-45.742
X72.779Y-67.332
X74.366Y-7.642
X75.16Y-86.382
X77.541Y-29.232
X79.129Y-64.792
X81.51Y-83.842
X82.304Y-48.282
X83.891Y-26.692
X87.066Y-10.182
X88.654Y-45.742
X91.829Y-67.332
X93.416Y-7.642
X96.591Y-29.232
X98.179Y-64.792
X101.354Y-48.282
X102.941Y-26.692
X106.116Y-10.182
X107.704Y-45.742
X108.498Y-86.382
X110.879Y-67.332
X112.466Y-7.642
X113.261Y-86.383
X114.848Y-83.842
X115.641Y-29.232
X117.229Y-64.792
X119.611Y-83.843
X120.404Y-48.282
X121.991Y-26.692
X125.166Y-10.182
X125.167Y-86.383
X126.754Y-45.742
X129.929Y-67.332
X131.516Y-7.642
X131.517Y-83.843
X134.691Y-29.232
X136.279Y-64.792
X139.454Y-48.282
X141.041Y-26.692
X144.216Y-10.182
X145.804Y-45.742
X146.598Y-86.382
X148.979Y-67.332
X150.566Y-7.642
X152.948Y-83.842
X153.741Y-29.232
X155.329Y-64.792
X158.504Y-48.282
X160.091Y-26.692
X163.266Y-10.182
X164.854Y-45.742
X168.029Y-67.332
X169.616Y-7.642
X172.791Y-29.232
X174.379Y-64.792
X177.554Y-48.282
X179.141Y-26.692
X182.316Y-10.182
X183.904Y-45.742
X184.698Y-86.383
X187.079Y-67.332
X188.666Y-7.642
X191.048Y-83.843
X191.841Y-29.232
X193.429Y-64.792
X196.604Y-48.282
X198.191Y-26.692
X201.366Y-10.182
X202.954Y-45.742
X206.129Y-67.332
X206.13Y-86.383
X207.716Y-7.642
X208.511Y-86.383
X210.891Y-29.232
X212.479Y-64.792
X212.48Y-83.843
X214.861Y-83.843
X215.654Y-48.282
X217.241Y-26.692
X220.416Y-10.182
X222.004Y-45.742
X226.766Y-7.642
X229.941Y-29.232
X232.323Y-67.332
X234.704Y-48.282
X236.291Y-26.692
X238.673Y-64.792
X239.466Y-10.182
X239.467Y-86.383
X241.054Y-45.742
X245.816Y-7.642
X245.817Y-83.843
X246.61Y-48.282
X248.991Y-10.182
X252.96Y-45.742
X253.754Y-29.232
X255.341Y-7.642
X258.516Y-10.182
X258.516Y-67.332
X258.517Y-86.383
X260.104Y-26.692
X262.485Y-37.487
X264.866Y-7.642
X264.866Y-64.792
X264.867Y-83.843
X265.025Y-43.837
X277.566Y-10.182
X277.566Y-29.232
X277.566Y-48.282
X277.566Y-67.332
X277.568Y-86.383
X283.916Y-7.642
X283.916Y-26.692
X283.916Y-45.742
X283.916Y-64.792
X283.918Y-83.843
T2
G00X0.828Y-0.335
M15
G01X0.828Y-0.935
M16
G05
G00X0.828Y-4.265
M15
G01X0.828Y-5.365
M16
G05
G00X9.468Y-0.335
M15
G01X9.468Y-0.935
M16
G05
G00X9.468Y-4.265
M15
G01X9.468Y-5.365
M16
G05
T6
G00X275.776Y-13.372
M15
G01X275.776Y-12.072
M16
G05
G00X286.976Y-13.372
M15
G01X286.976Y-12.072
M16
G05
T0
M30
