%TF.GenerationSoftware,KiCad,Pcbnew,(5.1.10)-1*%
%TF.CreationDate,2021-12-21T07:20:54+07:00*%
%TF.ProjectId,solder,736f6c64-6572-42e6-9b69-6361645f7063,rev?*%
%TF.SameCoordinates,Original*%
%TF.FileFunction,Soldermask,Bot*%
%TF.FilePolarity,Negative*%
%FSLAX46Y46*%
G04 Gerber Fmt 4.6, Leading zero omitted, Abs format (unit mm)*
G04 Created by KiCad (PCBNEW (5.1.10)-1) date 2021-12-21 07:20:54*
%MOMM*%
%LPD*%
G01*
G04 APERTURE LIST*
%ADD10C,0.300000*%
%ADD11C,1.750000*%
%ADD12C,2.500000*%
%ADD13C,3.987800*%
%ADD14C,0.990600*%
%ADD15C,0.787400*%
%ADD16R,1.800000X1.100000*%
%ADD17R,0.700000X1.300000*%
%ADD18C,1.905000*%
%ADD19R,1.500000X1.000000*%
%ADD20R,1.000000X1.500000*%
%ADD21C,3.048000*%
%ADD22R,1.400000X1.200000*%
%ADD23R,5.150000X5.150000*%
%ADD24R,1.300000X0.700000*%
%ADD25R,0.600000X1.550000*%
%ADD26R,1.200000X1.800000*%
%ADD27R,0.800000X0.750000*%
%ADD28R,0.750000X0.800000*%
G04 APERTURE END LIST*
D10*
X144081302Y-120897390D02*
X143867017Y-120968819D01*
X143509874Y-120968819D01*
X143367017Y-120897390D01*
X143295588Y-120825962D01*
X143224159Y-120683105D01*
X143224159Y-120540248D01*
X143295588Y-120397390D01*
X143367017Y-120325962D01*
X143509874Y-120254533D01*
X143795588Y-120183105D01*
X143938445Y-120111676D01*
X144009874Y-120040248D01*
X144081302Y-119897390D01*
X144081302Y-119754533D01*
X144009874Y-119611676D01*
X143938445Y-119540248D01*
X143795588Y-119468819D01*
X143438445Y-119468819D01*
X143224159Y-119540248D01*
X141938445Y-120968819D02*
X141938445Y-120183105D01*
X142009874Y-120040248D01*
X142152731Y-119968819D01*
X142438445Y-119968819D01*
X142581302Y-120040248D01*
X141938445Y-120897390D02*
X142081302Y-120968819D01*
X142438445Y-120968819D01*
X142581302Y-120897390D01*
X142652731Y-120754533D01*
X142652731Y-120611676D01*
X142581302Y-120468819D01*
X142438445Y-120397390D01*
X142081302Y-120397390D01*
X141938445Y-120325962D01*
X141367017Y-119968819D02*
X141081302Y-120968819D01*
X140795588Y-120254533D01*
X140509874Y-120968819D01*
X140224159Y-119968819D01*
X139652731Y-119968819D02*
X139652731Y-120968819D01*
X139652731Y-120111676D02*
X139581302Y-120040248D01*
X139438445Y-119968819D01*
X139224159Y-119968819D01*
X139081302Y-120040248D01*
X139009874Y-120183105D01*
X139009874Y-120968819D01*
X138367017Y-120897390D02*
X138224159Y-120968819D01*
X137938445Y-120968819D01*
X137795588Y-120897390D01*
X137724159Y-120754533D01*
X137724159Y-120683105D01*
X137795588Y-120540248D01*
X137938445Y-120468819D01*
X138152731Y-120468819D01*
X138295588Y-120397390D01*
X138367017Y-120254533D01*
X138367017Y-120183105D01*
X138295588Y-120040248D01*
X138152731Y-119968819D01*
X137938445Y-119968819D01*
X137795588Y-120040248D01*
X137081302Y-120968819D02*
X137081302Y-119468819D01*
X136509874Y-119468819D01*
X136367017Y-119540248D01*
X136295588Y-119611676D01*
X136224159Y-119754533D01*
X136224159Y-119968819D01*
X136295588Y-120111676D01*
X136367017Y-120183105D01*
X136509874Y-120254533D01*
X137081302Y-120254533D01*
X135581302Y-120968819D02*
X135581302Y-119968819D01*
X135581302Y-120254533D02*
X135509874Y-120111676D01*
X135438445Y-120040248D01*
X135295588Y-119968819D01*
X135152731Y-119968819D01*
X134438445Y-120968819D02*
X134581302Y-120897390D01*
X134652731Y-120825962D01*
X134724159Y-120683105D01*
X134724159Y-120254533D01*
X134652731Y-120111676D01*
X134581302Y-120040248D01*
X134438445Y-119968819D01*
X134224159Y-119968819D01*
X134081302Y-120040248D01*
X134009874Y-120111676D01*
X133938445Y-120254533D01*
X133938445Y-120683105D01*
X134009874Y-120825962D01*
X134081302Y-120897390D01*
X134224159Y-120968819D01*
X134438445Y-120968819D01*
X133295588Y-119968819D02*
X133295588Y-121254533D01*
X133367017Y-121397390D01*
X133509874Y-121468819D01*
X133581302Y-121468819D01*
X133295588Y-119468819D02*
X133367017Y-119540248D01*
X133295588Y-119611676D01*
X133224159Y-119540248D01*
X133295588Y-119468819D01*
X133295588Y-119611676D01*
X132009874Y-120897390D02*
X132152731Y-120968819D01*
X132438445Y-120968819D01*
X132581302Y-120897390D01*
X132652731Y-120754533D01*
X132652731Y-120183105D01*
X132581302Y-120040248D01*
X132438445Y-119968819D01*
X132152731Y-119968819D01*
X132009874Y-120040248D01*
X131938445Y-120183105D01*
X131938445Y-120325962D01*
X132652731Y-120468819D01*
X130652731Y-120897390D02*
X130795588Y-120968819D01*
X131081302Y-120968819D01*
X131224159Y-120897390D01*
X131295588Y-120825962D01*
X131367017Y-120683105D01*
X131367017Y-120254533D01*
X131295588Y-120111676D01*
X131224159Y-120040248D01*
X131081302Y-119968819D01*
X130795588Y-119968819D01*
X130652731Y-120040248D01*
X130224159Y-119968819D02*
X129652731Y-119968819D01*
X130009874Y-119468819D02*
X130009874Y-120754533D01*
X129938445Y-120897390D01*
X129795588Y-120968819D01*
X129652731Y-120968819D01*
X129224159Y-120897390D02*
X129081302Y-120968819D01*
X128795588Y-120968819D01*
X128652731Y-120897390D01*
X128581302Y-120754533D01*
X128581302Y-120683105D01*
X128652731Y-120540248D01*
X128795588Y-120468819D01*
X129009874Y-120468819D01*
X129152731Y-120397390D01*
X129224159Y-120254533D01*
X129224159Y-120183105D01*
X129152731Y-120040248D01*
X129009874Y-119968819D01*
X128795588Y-119968819D01*
X128652731Y-120040248D01*
X144081302Y-122018819D02*
X144081302Y-122304533D01*
X143509874Y-122018819D02*
X143509874Y-122304533D01*
X142867017Y-123518819D02*
X142867017Y-122018819D01*
X142295588Y-122018819D01*
X142152731Y-122090248D01*
X142081302Y-122161676D01*
X142009874Y-122304533D01*
X142009874Y-122518819D01*
X142081302Y-122661676D01*
X142152731Y-122733105D01*
X142295588Y-122804533D01*
X142867017Y-122804533D01*
X141509874Y-122518819D02*
X140724159Y-122518819D01*
X141509874Y-123518819D01*
X140724159Y-123518819D01*
X139938445Y-123518819D02*
X140081302Y-123447390D01*
X140152731Y-123375962D01*
X140224159Y-123233105D01*
X140224159Y-122804533D01*
X140152731Y-122661676D01*
X140081302Y-122590248D01*
X139938445Y-122518819D01*
X139724159Y-122518819D01*
X139581302Y-122590248D01*
X139509874Y-122661676D01*
X139438445Y-122804533D01*
X139438445Y-123233105D01*
X139509874Y-123375962D01*
X139581302Y-123447390D01*
X139724159Y-123518819D01*
X139938445Y-123518819D01*
X139009874Y-122518819D02*
X138438445Y-122518819D01*
X138795588Y-122018819D02*
X138795588Y-123304533D01*
X138724159Y-123447390D01*
X138581302Y-123518819D01*
X138438445Y-123518819D01*
X137724159Y-123518819D02*
X137867017Y-123447390D01*
X137938445Y-123375962D01*
X138009874Y-123233105D01*
X138009874Y-122804533D01*
X137938445Y-122661676D01*
X137867017Y-122590248D01*
X137724159Y-122518819D01*
X137509874Y-122518819D01*
X137367017Y-122590248D01*
X137295588Y-122661676D01*
X137224159Y-122804533D01*
X137224159Y-123233105D01*
X137295588Y-123375962D01*
X137367017Y-123447390D01*
X137509874Y-123518819D01*
X137724159Y-123518819D01*
X136795588Y-122518819D02*
X136224159Y-122518819D01*
X136581302Y-122018819D02*
X136581302Y-123304533D01*
X136509874Y-123447390D01*
X136367017Y-123518819D01*
X136224159Y-123518819D01*
X135867017Y-122518819D02*
X135509874Y-123518819D01*
X135152731Y-122518819D02*
X135509874Y-123518819D01*
X135652731Y-123875962D01*
X135724159Y-123947390D01*
X135867017Y-124018819D01*
X134581302Y-122518819D02*
X134581302Y-124018819D01*
X134581302Y-122590248D02*
X134438445Y-122518819D01*
X134152731Y-122518819D01*
X134009874Y-122590248D01*
X133938445Y-122661676D01*
X133867017Y-122804533D01*
X133867017Y-123233105D01*
X133938445Y-123375962D01*
X134009874Y-123447390D01*
X134152731Y-123518819D01*
X134438445Y-123518819D01*
X134581302Y-123447390D01*
X132652731Y-123447390D02*
X132795588Y-123518819D01*
X133081302Y-123518819D01*
X133224159Y-123447390D01*
X133295588Y-123304533D01*
X133295588Y-122733105D01*
X133224159Y-122590248D01*
X133081302Y-122518819D01*
X132795588Y-122518819D01*
X132652731Y-122590248D01*
X132581302Y-122733105D01*
X132581302Y-122875962D01*
X133295588Y-123018819D01*
X132009874Y-122018819D02*
X132009874Y-122304533D01*
X131438445Y-122018819D02*
X131438445Y-122304533D01*
X144081302Y-125640248D02*
X143367017Y-125640248D01*
X144224159Y-126068819D02*
X143724159Y-124568819D01*
X143224159Y-126068819D01*
X142724159Y-126068819D02*
X142724159Y-125068819D01*
X142724159Y-125211676D02*
X142652731Y-125140248D01*
X142509874Y-125068819D01*
X142295588Y-125068819D01*
X142152731Y-125140248D01*
X142081302Y-125283105D01*
X142081302Y-126068819D01*
X142081302Y-125283105D02*
X142009874Y-125140248D01*
X141867017Y-125068819D01*
X141652731Y-125068819D01*
X141509874Y-125140248D01*
X141438445Y-125283105D01*
X141438445Y-126068819D01*
X140724159Y-126068819D02*
X140724159Y-124568819D01*
X140724159Y-125140248D02*
X140581302Y-125068819D01*
X140295588Y-125068819D01*
X140152731Y-125140248D01*
X140081302Y-125211676D01*
X140009874Y-125354533D01*
X140009874Y-125783105D01*
X140081302Y-125925962D01*
X140152731Y-125997390D01*
X140295588Y-126068819D01*
X140581302Y-126068819D01*
X140724159Y-125997390D01*
X138795588Y-125997390D02*
X138938445Y-126068819D01*
X139224159Y-126068819D01*
X139367017Y-125997390D01*
X139438445Y-125854533D01*
X139438445Y-125283105D01*
X139367017Y-125140248D01*
X139224159Y-125068819D01*
X138938445Y-125068819D01*
X138795588Y-125140248D01*
X138724159Y-125283105D01*
X138724159Y-125425962D01*
X139438445Y-125568819D01*
X138081302Y-126068819D02*
X138081302Y-125068819D01*
X138081302Y-125354533D02*
X138009874Y-125211676D01*
X137938445Y-125140248D01*
X137795588Y-125068819D01*
X137652731Y-125068819D01*
X136938445Y-125211676D02*
X137081302Y-125140248D01*
X137152731Y-125068819D01*
X137224159Y-124925962D01*
X137224159Y-124854533D01*
X137152731Y-124711676D01*
X137081302Y-124640248D01*
X136938445Y-124568819D01*
X136652731Y-124568819D01*
X136509874Y-124640248D01*
X136438445Y-124711676D01*
X136367017Y-124854533D01*
X136367017Y-124925962D01*
X136438445Y-125068819D01*
X136509874Y-125140248D01*
X136652731Y-125211676D01*
X136938445Y-125211676D01*
X137081302Y-125283105D01*
X137152731Y-125354533D01*
X137224159Y-125497390D01*
X137224159Y-125783105D01*
X137152731Y-125925962D01*
X137081302Y-125997390D01*
X136938445Y-126068819D01*
X136652731Y-126068819D01*
X136509874Y-125997390D01*
X136438445Y-125925962D01*
X136367017Y-125783105D01*
X136367017Y-125497390D01*
X136438445Y-125354533D01*
X136509874Y-125283105D01*
X136652731Y-125211676D01*
X135438445Y-124568819D02*
X135295588Y-124568819D01*
X135152731Y-124640248D01*
X135081302Y-124711676D01*
X135009874Y-124854533D01*
X134938445Y-125140248D01*
X134938445Y-125497390D01*
X135009874Y-125783105D01*
X135081302Y-125925962D01*
X135152731Y-125997390D01*
X135295588Y-126068819D01*
X135438445Y-126068819D01*
X135581302Y-125997390D01*
X135652731Y-125925962D01*
X135724159Y-125783105D01*
X135795588Y-125497390D01*
X135795588Y-125140248D01*
X135724159Y-124854533D01*
X135652731Y-124711676D01*
X135581302Y-124640248D01*
X135438445Y-124568819D01*
X133152731Y-125497390D02*
X132009874Y-125497390D01*
X130224159Y-125997390D02*
X130009874Y-126068819D01*
X129652731Y-126068819D01*
X129509874Y-125997390D01*
X129438445Y-125925962D01*
X129367017Y-125783105D01*
X129367017Y-125640248D01*
X129438445Y-125497390D01*
X129509874Y-125425962D01*
X129652731Y-125354533D01*
X129938445Y-125283105D01*
X130081302Y-125211676D01*
X130152731Y-125140248D01*
X130224159Y-124997390D01*
X130224159Y-124854533D01*
X130152731Y-124711676D01*
X130081302Y-124640248D01*
X129938445Y-124568819D01*
X129581302Y-124568819D01*
X129367017Y-124640248D01*
X128509874Y-126068819D02*
X128652731Y-125997390D01*
X128724159Y-125925962D01*
X128795588Y-125783105D01*
X128795588Y-125354533D01*
X128724159Y-125211676D01*
X128652731Y-125140248D01*
X128509874Y-125068819D01*
X128295588Y-125068819D01*
X128152731Y-125140248D01*
X128081302Y-125211676D01*
X128009874Y-125354533D01*
X128009874Y-125783105D01*
X128081302Y-125925962D01*
X128152731Y-125997390D01*
X128295588Y-126068819D01*
X128509874Y-126068819D01*
X127152731Y-126068819D02*
X127295588Y-125997390D01*
X127367017Y-125854533D01*
X127367017Y-124568819D01*
X125938445Y-126068819D02*
X125938445Y-124568819D01*
X125938445Y-125997390D02*
X126081302Y-126068819D01*
X126367017Y-126068819D01*
X126509874Y-125997390D01*
X126581302Y-125925962D01*
X126652731Y-125783105D01*
X126652731Y-125354533D01*
X126581302Y-125211676D01*
X126509874Y-125140248D01*
X126367017Y-125068819D01*
X126081302Y-125068819D01*
X125938445Y-125140248D01*
X124652731Y-125997390D02*
X124795588Y-126068819D01*
X125081302Y-126068819D01*
X125224159Y-125997390D01*
X125295588Y-125854533D01*
X125295588Y-125283105D01*
X125224159Y-125140248D01*
X125081302Y-125068819D01*
X124795588Y-125068819D01*
X124652731Y-125140248D01*
X124581302Y-125283105D01*
X124581302Y-125425962D01*
X125295588Y-125568819D01*
X123938445Y-126068819D02*
X123938445Y-125068819D01*
X123938445Y-125354533D02*
X123867017Y-125211676D01*
X123795588Y-125140248D01*
X123652731Y-125068819D01*
X123509874Y-125068819D01*
X144009874Y-128618819D02*
X144009874Y-127118819D01*
X143438445Y-127118819D01*
X143295588Y-127190248D01*
X143224159Y-127261676D01*
X143152731Y-127404533D01*
X143152731Y-127618819D01*
X143224159Y-127761676D01*
X143295588Y-127833105D01*
X143438445Y-127904533D01*
X144009874Y-127904533D01*
X142295588Y-128618819D02*
X142438445Y-128547390D01*
X142509874Y-128475962D01*
X142581302Y-128333105D01*
X142581302Y-127904533D01*
X142509874Y-127761676D01*
X142438445Y-127690248D01*
X142295588Y-127618819D01*
X142081302Y-127618819D01*
X141938445Y-127690248D01*
X141867017Y-127761676D01*
X141795588Y-127904533D01*
X141795588Y-128333105D01*
X141867017Y-128475962D01*
X141938445Y-128547390D01*
X142081302Y-128618819D01*
X142295588Y-128618819D01*
X141295588Y-127618819D02*
X141009874Y-128618819D01*
X140724159Y-127904533D01*
X140438445Y-128618819D01*
X140152731Y-127618819D01*
X139009874Y-128547390D02*
X139152731Y-128618819D01*
X139438445Y-128618819D01*
X139581302Y-128547390D01*
X139652731Y-128404533D01*
X139652731Y-127833105D01*
X139581302Y-127690248D01*
X139438445Y-127618819D01*
X139152731Y-127618819D01*
X139009874Y-127690248D01*
X138938445Y-127833105D01*
X138938445Y-127975962D01*
X139652731Y-128118819D01*
X138295588Y-128618819D02*
X138295588Y-127618819D01*
X138295588Y-127904533D02*
X138224159Y-127761676D01*
X138152731Y-127690248D01*
X138009874Y-127618819D01*
X137867017Y-127618819D01*
X136795588Y-128547390D02*
X136938445Y-128618819D01*
X137224159Y-128618819D01*
X137367017Y-128547390D01*
X137438445Y-128404533D01*
X137438445Y-127833105D01*
X137367017Y-127690248D01*
X137224159Y-127618819D01*
X136938445Y-127618819D01*
X136795588Y-127690248D01*
X136724159Y-127833105D01*
X136724159Y-127975962D01*
X137438445Y-128118819D01*
X135438445Y-128618819D02*
X135438445Y-127118819D01*
X135438445Y-128547390D02*
X135581302Y-128618819D01*
X135867017Y-128618819D01*
X136009874Y-128547390D01*
X136081302Y-128475962D01*
X136152731Y-128333105D01*
X136152731Y-127904533D01*
X136081302Y-127761676D01*
X136009874Y-127690248D01*
X135867017Y-127618819D01*
X135581302Y-127618819D01*
X135438445Y-127690248D01*
X133581302Y-128618819D02*
X133581302Y-127118819D01*
X133581302Y-127690248D02*
X133438445Y-127618819D01*
X133152731Y-127618819D01*
X133009874Y-127690248D01*
X132938445Y-127761676D01*
X132867017Y-127904533D01*
X132867017Y-128333105D01*
X132938445Y-128475962D01*
X133009874Y-128547390D01*
X133152731Y-128618819D01*
X133438445Y-128618819D01*
X133581302Y-128547390D01*
X132367017Y-127618819D02*
X132009874Y-128618819D01*
X131652731Y-127618819D02*
X132009874Y-128618819D01*
X132152731Y-128975962D01*
X132224159Y-129047390D01*
X132367017Y-129118819D01*
X130152731Y-127118819D02*
X129652731Y-128618819D01*
X129152731Y-127118819D01*
X128652731Y-128618819D02*
X128652731Y-127118819D01*
X128009874Y-128190248D02*
X127295588Y-128190248D01*
X128152731Y-128618819D02*
X127652731Y-127118819D01*
X127152731Y-128618819D01*
X124295588Y-128618819D02*
X124367017Y-128618819D01*
X124509874Y-128547390D01*
X124724159Y-128333105D01*
X125081302Y-127904533D01*
X125224159Y-127690248D01*
X125295588Y-127475962D01*
X125295588Y-127333105D01*
X125224159Y-127190248D01*
X125081302Y-127118819D01*
X125009874Y-127118819D01*
X124867017Y-127190248D01*
X124795588Y-127333105D01*
X124795588Y-127404533D01*
X124867017Y-127547390D01*
X124938445Y-127618819D01*
X125367017Y-127904533D01*
X125438445Y-127975962D01*
X125509874Y-128118819D01*
X125509874Y-128333105D01*
X125438445Y-128475962D01*
X125367017Y-128547390D01*
X125224159Y-128618819D01*
X125009874Y-128618819D01*
X124867017Y-128547390D01*
X124795588Y-128475962D01*
X124581302Y-128190248D01*
X124509874Y-127975962D01*
X124509874Y-127833105D01*
X121509874Y-128761676D02*
X121652731Y-128690248D01*
X121795588Y-128547390D01*
X122009874Y-128333105D01*
X122152731Y-128261676D01*
X122295588Y-128261676D01*
X122224159Y-128618819D02*
X122367017Y-128547390D01*
X122509874Y-128404533D01*
X122581302Y-128118819D01*
X122581302Y-127618819D01*
X122509874Y-127333105D01*
X122367017Y-127190248D01*
X122224159Y-127118819D01*
X121938445Y-127118819D01*
X121795588Y-127190248D01*
X121652731Y-127333105D01*
X121581302Y-127618819D01*
X121581302Y-128118819D01*
X121652731Y-128404533D01*
X121795588Y-128547390D01*
X121938445Y-128618819D01*
X122224159Y-128618819D01*
X120938445Y-128618819D02*
X120938445Y-127118819D01*
X120438445Y-128190248D01*
X119938445Y-127118819D01*
X119938445Y-128618819D01*
X119224159Y-128618819D02*
X119224159Y-127118819D01*
X118367017Y-128618819D02*
X119009874Y-127761676D01*
X118367017Y-127118819D02*
X119224159Y-127975962D01*
X145530779Y-118757422D02*
X145530779Y-129473074D01*
D11*
%TO.C,MX28*%
X76517500Y-66675000D03*
D12*
X67627500Y-64135000D03*
D11*
X66357500Y-66675000D03*
D13*
X71437500Y-66675000D03*
D12*
X73977500Y-61595000D03*
%TD*%
D14*
%TO.C,U4*%
X343654349Y-78406690D03*
X343654349Y-76374690D03*
X338574349Y-77390690D03*
D15*
X339844349Y-76755690D03*
X339844349Y-78025690D03*
X341114349Y-76755690D03*
X341114349Y-78025690D03*
X342384349Y-76755690D03*
X342384349Y-78025690D03*
%TD*%
D16*
%TO.C,SW1*%
X349325296Y-79707881D03*
X355525296Y-83407881D03*
X349325296Y-83407881D03*
X355525296Y-79707881D03*
%TD*%
D17*
%TO.C,R9*%
X41912536Y-94654767D03*
X43812536Y-94654767D03*
%TD*%
D18*
%TO.C,D115*%
X29686250Y-90805000D03*
X32226250Y-90805000D03*
%TD*%
%TO.C,D114*%
X27463772Y-90805072D03*
X24923772Y-90805072D03*
%TD*%
D17*
%TO.C,R8*%
X319442455Y-80962568D03*
X317542455Y-80962568D03*
%TD*%
D18*
%TO.C,D113*%
X332105000Y-28892500D03*
X334645000Y-28892500D03*
%TD*%
D19*
%TO.C,D112*%
X68987656Y-115900096D03*
X68987656Y-112700096D03*
X73887656Y-115900096D03*
G36*
G01*
X73137656Y-112950096D02*
X73137656Y-112450096D01*
G75*
G02*
X73387656Y-112200096I250000J0D01*
G01*
X74387656Y-112200096D01*
G75*
G02*
X74637656Y-112450096I0J-250000D01*
G01*
X74637656Y-112950096D01*
G75*
G02*
X74387656Y-113200096I-250000J0D01*
G01*
X73387656Y-113200096D01*
G75*
G02*
X73137656Y-112950096I0J250000D01*
G01*
G37*
%TD*%
%TO.C,D111*%
X107087656Y-115900096D03*
X107087656Y-112700096D03*
X111987656Y-115900096D03*
G36*
G01*
X111237656Y-112950096D02*
X111237656Y-112450096D01*
G75*
G02*
X111487656Y-112200096I250000J0D01*
G01*
X112487656Y-112200096D01*
G75*
G02*
X112737656Y-112450096I0J-250000D01*
G01*
X112737656Y-112950096D01*
G75*
G02*
X112487656Y-113200096I-250000J0D01*
G01*
X111487656Y-113200096D01*
G75*
G02*
X111237656Y-112950096I0J250000D01*
G01*
G37*
%TD*%
%TO.C,D110*%
X145187656Y-115900096D03*
X145187656Y-112700096D03*
X150087656Y-115900096D03*
G36*
G01*
X149337656Y-112950096D02*
X149337656Y-112450096D01*
G75*
G02*
X149587656Y-112200096I250000J0D01*
G01*
X150587656Y-112200096D01*
G75*
G02*
X150837656Y-112450096I0J-250000D01*
G01*
X150837656Y-112950096D01*
G75*
G02*
X150587656Y-113200096I-250000J0D01*
G01*
X149587656Y-113200096D01*
G75*
G02*
X149337656Y-112950096I0J250000D01*
G01*
G37*
%TD*%
%TO.C,D109*%
X183287656Y-115900096D03*
X183287656Y-112700096D03*
X188187656Y-115900096D03*
G36*
G01*
X187437656Y-112950096D02*
X187437656Y-112450096D01*
G75*
G02*
X187687656Y-112200096I250000J0D01*
G01*
X188687656Y-112200096D01*
G75*
G02*
X188937656Y-112450096I0J-250000D01*
G01*
X188937656Y-112950096D01*
G75*
G02*
X188687656Y-113200096I-250000J0D01*
G01*
X187687656Y-113200096D01*
G75*
G02*
X187437656Y-112950096I0J250000D01*
G01*
G37*
%TD*%
%TO.C,D107*%
X221387688Y-115900096D03*
X221387688Y-112700096D03*
X226287688Y-115900096D03*
G36*
G01*
X225537688Y-112950096D02*
X225537688Y-112450096D01*
G75*
G02*
X225787688Y-112200096I250000J0D01*
G01*
X226787688Y-112200096D01*
G75*
G02*
X227037688Y-112450096I0J-250000D01*
G01*
X227037688Y-112950096D01*
G75*
G02*
X226787688Y-113200096I-250000J0D01*
G01*
X225787688Y-113200096D01*
G75*
G02*
X225537688Y-112950096I0J250000D01*
G01*
G37*
%TD*%
%TO.C,D106*%
X249962712Y-115900096D03*
X249962712Y-112700096D03*
X254862712Y-115900096D03*
G36*
G01*
X254112712Y-112950096D02*
X254112712Y-112450096D01*
G75*
G02*
X254362712Y-112200096I250000J0D01*
G01*
X255362712Y-112200096D01*
G75*
G02*
X255612712Y-112450096I0J-250000D01*
G01*
X255612712Y-112950096D01*
G75*
G02*
X255362712Y-113200096I-250000J0D01*
G01*
X254362712Y-113200096D01*
G75*
G02*
X254112712Y-112950096I0J250000D01*
G01*
G37*
%TD*%
%TO.C,D100*%
X297587752Y-115900096D03*
X297587752Y-112700096D03*
X302487752Y-115900096D03*
G36*
G01*
X301737752Y-112950096D02*
X301737752Y-112450096D01*
G75*
G02*
X301987752Y-112200096I250000J0D01*
G01*
X302987752Y-112200096D01*
G75*
G02*
X303237752Y-112450096I0J-250000D01*
G01*
X303237752Y-112950096D01*
G75*
G02*
X302987752Y-113200096I-250000J0D01*
G01*
X301987752Y-113200096D01*
G75*
G02*
X301737752Y-112950096I0J250000D01*
G01*
G37*
%TD*%
%TO.C,D99*%
X340450288Y-115900096D03*
X340450288Y-112700096D03*
X345350288Y-115900096D03*
G36*
G01*
X344600288Y-112950096D02*
X344600288Y-112450096D01*
G75*
G02*
X344850288Y-112200096I250000J0D01*
G01*
X345850288Y-112200096D01*
G75*
G02*
X346100288Y-112450096I0J-250000D01*
G01*
X346100288Y-112950096D01*
G75*
G02*
X345850288Y-113200096I-250000J0D01*
G01*
X344850288Y-113200096D01*
G75*
G02*
X344600288Y-112950096I0J250000D01*
G01*
G37*
%TD*%
D20*
%TO.C,D95*%
X358192487Y-97700080D03*
X354992487Y-97700080D03*
X358192487Y-92800080D03*
G36*
G01*
X355242487Y-93550080D02*
X354742487Y-93550080D01*
G75*
G02*
X354492487Y-93300080I0J250000D01*
G01*
X354492487Y-92300080D01*
G75*
G02*
X354742487Y-92050080I250000J0D01*
G01*
X355242487Y-92050080D01*
G75*
G02*
X355492487Y-92300080I0J-250000D01*
G01*
X355492487Y-93300080D01*
G75*
G02*
X355242487Y-93550080I-250000J0D01*
G01*
G37*
%TD*%
D19*
%TO.C,D94*%
X35650032Y-115900096D03*
X35650032Y-112700096D03*
X40550032Y-115900096D03*
G36*
G01*
X39800032Y-112950096D02*
X39800032Y-112450096D01*
G75*
G02*
X40050032Y-112200096I250000J0D01*
G01*
X41050032Y-112200096D01*
G75*
G02*
X41300032Y-112450096I0J-250000D01*
G01*
X41300032Y-112950096D01*
G75*
G02*
X41050032Y-113200096I-250000J0D01*
G01*
X40050032Y-113200096D01*
G75*
G02*
X39800032Y-112950096I0J250000D01*
G01*
G37*
%TD*%
D20*
%TO.C,D89*%
X18045329Y-89228202D03*
X21245329Y-89228202D03*
X18045329Y-94128202D03*
G36*
G01*
X20995329Y-93378202D02*
X21495329Y-93378202D01*
G75*
G02*
X21745329Y-93628202I0J-250000D01*
G01*
X21745329Y-94628202D01*
G75*
G02*
X21495329Y-94878202I-250000J0D01*
G01*
X20995329Y-94878202D01*
G75*
G02*
X20745329Y-94628202I0J250000D01*
G01*
X20745329Y-93628202D01*
G75*
G02*
X20995329Y-93378202I250000J0D01*
G01*
G37*
%TD*%
%TO.C,D88*%
X18045329Y-54700048D03*
X21245329Y-54700048D03*
X18045329Y-59600048D03*
G36*
G01*
X20995329Y-58850048D02*
X21495329Y-58850048D01*
G75*
G02*
X21745329Y-59100048I0J-250000D01*
G01*
X21745329Y-60100048D01*
G75*
G02*
X21495329Y-60350048I-250000J0D01*
G01*
X20995329Y-60350048D01*
G75*
G02*
X20745329Y-60100048I0J250000D01*
G01*
X20745329Y-59100048D01*
G75*
G02*
X20995329Y-58850048I250000J0D01*
G01*
G37*
%TD*%
D19*
%TO.C,D85*%
X38168780Y-31737528D03*
X38168780Y-34937528D03*
X33268780Y-31737528D03*
G36*
G01*
X34018780Y-34687528D02*
X34018780Y-35187528D01*
G75*
G02*
X33768780Y-35437528I-250000J0D01*
G01*
X32768780Y-35437528D01*
G75*
G02*
X32518780Y-35187528I0J250000D01*
G01*
X32518780Y-34687528D01*
G75*
G02*
X32768780Y-34437528I250000J0D01*
G01*
X33768780Y-34437528D01*
G75*
G02*
X34018780Y-34687528I0J-250000D01*
G01*
G37*
%TD*%
%TO.C,D76*%
X76268780Y-31737528D03*
X76268780Y-34937528D03*
X71368780Y-31737528D03*
G36*
G01*
X72118780Y-34687528D02*
X72118780Y-35187528D01*
G75*
G02*
X71868780Y-35437528I-250000J0D01*
G01*
X70868780Y-35437528D01*
G75*
G02*
X70618780Y-35187528I0J250000D01*
G01*
X70618780Y-34687528D01*
G75*
G02*
X70868780Y-34437528I250000J0D01*
G01*
X71868780Y-34437528D01*
G75*
G02*
X72118780Y-34687528I0J-250000D01*
G01*
G37*
%TD*%
%TO.C,D72*%
X114368780Y-31737528D03*
X114368780Y-34937528D03*
X109468780Y-31737528D03*
G36*
G01*
X110218780Y-34687528D02*
X110218780Y-35187528D01*
G75*
G02*
X109968780Y-35437528I-250000J0D01*
G01*
X108968780Y-35437528D01*
G75*
G02*
X108718780Y-35187528I0J250000D01*
G01*
X108718780Y-34687528D01*
G75*
G02*
X108968780Y-34437528I250000J0D01*
G01*
X109968780Y-34437528D01*
G75*
G02*
X110218780Y-34687528I0J-250000D01*
G01*
G37*
%TD*%
%TO.C,D66*%
X152468780Y-31737528D03*
X152468780Y-34937528D03*
X147568780Y-31737528D03*
G36*
G01*
X148318780Y-34687528D02*
X148318780Y-35187528D01*
G75*
G02*
X148068780Y-35437528I-250000J0D01*
G01*
X147068780Y-35437528D01*
G75*
G02*
X146818780Y-35187528I0J250000D01*
G01*
X146818780Y-34687528D01*
G75*
G02*
X147068780Y-34437528I250000J0D01*
G01*
X148068780Y-34437528D01*
G75*
G02*
X148318780Y-34687528I0J-250000D01*
G01*
G37*
%TD*%
%TO.C,D60*%
X190568780Y-31737528D03*
X190568780Y-34937528D03*
X185668780Y-31737528D03*
G36*
G01*
X186418780Y-34687528D02*
X186418780Y-35187528D01*
G75*
G02*
X186168780Y-35437528I-250000J0D01*
G01*
X185168780Y-35437528D01*
G75*
G02*
X184918780Y-35187528I0J250000D01*
G01*
X184918780Y-34687528D01*
G75*
G02*
X185168780Y-34437528I250000J0D01*
G01*
X186168780Y-34437528D01*
G75*
G02*
X186418780Y-34687528I0J-250000D01*
G01*
G37*
%TD*%
%TO.C,D54*%
X228668780Y-31737528D03*
X228668780Y-34937528D03*
X223768780Y-31737528D03*
G36*
G01*
X224518780Y-34687528D02*
X224518780Y-35187528D01*
G75*
G02*
X224268780Y-35437528I-250000J0D01*
G01*
X223268780Y-35437528D01*
G75*
G02*
X223018780Y-35187528I0J250000D01*
G01*
X223018780Y-34687528D01*
G75*
G02*
X223268780Y-34437528I250000J0D01*
G01*
X224268780Y-34437528D01*
G75*
G02*
X224518780Y-34687528I0J-250000D01*
G01*
G37*
%TD*%
%TO.C,D42*%
X266768780Y-31737528D03*
X266768780Y-34937528D03*
X261868780Y-31737528D03*
G36*
G01*
X262618780Y-34687528D02*
X262618780Y-35187528D01*
G75*
G02*
X262368780Y-35437528I-250000J0D01*
G01*
X261368780Y-35437528D01*
G75*
G02*
X261118780Y-35187528I0J250000D01*
G01*
X261118780Y-34687528D01*
G75*
G02*
X261368780Y-34437528I250000J0D01*
G01*
X262368780Y-34437528D01*
G75*
G02*
X262618780Y-34687528I0J-250000D01*
G01*
G37*
%TD*%
%TO.C,D36*%
X304868780Y-31737528D03*
X304868780Y-34937528D03*
X299968780Y-31737528D03*
G36*
G01*
X300718780Y-34687528D02*
X300718780Y-35187528D01*
G75*
G02*
X300468780Y-35437528I-250000J0D01*
G01*
X299468780Y-35437528D01*
G75*
G02*
X299218780Y-35187528I0J250000D01*
G01*
X299218780Y-34687528D01*
G75*
G02*
X299468780Y-34437528I250000J0D01*
G01*
X300468780Y-34437528D01*
G75*
G02*
X300718780Y-34687528I0J-250000D01*
G01*
G37*
%TD*%
%TO.C,D30*%
X342968780Y-31737528D03*
X342968780Y-34937528D03*
X338068780Y-31737528D03*
G36*
G01*
X338818780Y-34687528D02*
X338818780Y-35187528D01*
G75*
G02*
X338568780Y-35437528I-250000J0D01*
G01*
X337568780Y-35437528D01*
G75*
G02*
X337318780Y-35187528I0J250000D01*
G01*
X337318780Y-34687528D01*
G75*
G02*
X337568780Y-34437528I250000J0D01*
G01*
X338568780Y-34437528D01*
G75*
G02*
X338818780Y-34687528I0J-250000D01*
G01*
G37*
%TD*%
%TO.C,D24*%
G36*
G01*
X355242487Y-51878170D02*
X354742487Y-51878170D01*
G75*
G02*
X354492487Y-51628170I0J250000D01*
G01*
X354492487Y-50628170D01*
G75*
G02*
X354742487Y-50378170I250000J0D01*
G01*
X355242487Y-50378170D01*
G75*
G02*
X355492487Y-50628170I0J-250000D01*
G01*
X355492487Y-51628170D01*
G75*
G02*
X355242487Y-51878170I-250000J0D01*
G01*
G37*
D20*
X358192487Y-51128170D03*
X354992487Y-56028170D03*
X358192487Y-56028170D03*
%TD*%
D13*
%TO.C,MX84*%
X278606250Y-85725000D03*
D12*
X281146250Y-80645000D03*
D11*
X273526250Y-85725000D03*
X283686250Y-85725000D03*
D12*
X274796250Y-83185000D03*
D21*
X266700000Y-92710000D03*
X290512500Y-92710000D03*
D13*
X266700000Y-77470000D03*
X290512500Y-77470000D03*
%TD*%
%TO.C,MX56*%
X157162500Y-123825000D03*
D12*
X159702500Y-118745000D03*
D11*
X152082500Y-123825000D03*
X162242500Y-123825000D03*
D12*
X153352500Y-121285000D03*
D21*
X100012500Y-130810000D03*
X214312500Y-130810000D03*
D13*
X100012500Y-115570000D03*
X214312500Y-115570000D03*
%TD*%
D17*
%TO.C,R7*%
X350158105Y-94059454D03*
X348258105Y-94059454D03*
%TD*%
D11*
%TO.C,MX103*%
X357505000Y-23812500D03*
D12*
X348615000Y-21272500D03*
D11*
X347345000Y-23812500D03*
D13*
X352425000Y-23812500D03*
D12*
X354965000Y-18732500D03*
%TD*%
D11*
%TO.C,MX108*%
X357505000Y-123825000D03*
D12*
X348615000Y-121285000D03*
D11*
X347345000Y-123825000D03*
D13*
X352425000Y-123825000D03*
D12*
X354965000Y-118745000D03*
%TD*%
%TO.C,MX76*%
X293211492Y-78740064D03*
D13*
X288131492Y-76200064D03*
D12*
X290671492Y-72390064D03*
D11*
X288131492Y-71120064D03*
X288131492Y-81280064D03*
D21*
X295116492Y-88138064D03*
X295116492Y-64262064D03*
D13*
X279876492Y-88138064D03*
X279876492Y-64262064D03*
%TD*%
D11*
%TO.C,MX79*%
X271780224Y-85725072D03*
D12*
X262890224Y-83185072D03*
D11*
X261620224Y-85725072D03*
D13*
X266700224Y-85725072D03*
D12*
X269240224Y-80645072D03*
%TD*%
D11*
%TO.C,MX71*%
X31273772Y-85725072D03*
D12*
X22383772Y-83185072D03*
D11*
X21113772Y-85725072D03*
D13*
X26193772Y-85725072D03*
D12*
X28733772Y-80645072D03*
%TD*%
%TO.C,D108*%
G36*
G01*
X344650914Y-128206356D02*
X343530914Y-128206356D01*
G75*
G02*
X343290914Y-127966356I0J240000D01*
G01*
X343290914Y-127246356D01*
G75*
G02*
X343530914Y-127006356I240000J0D01*
G01*
X344650914Y-127006356D01*
G75*
G02*
X344890914Y-127246356I0J-240000D01*
G01*
X344890914Y-127966356D01*
G75*
G02*
X344650914Y-128206356I-240000J0D01*
G01*
G37*
G36*
G01*
X344650914Y-125406356D02*
X343530914Y-125406356D01*
G75*
G02*
X343290914Y-125166356I0J240000D01*
G01*
X343290914Y-124446356D01*
G75*
G02*
X343530914Y-124206356I240000J0D01*
G01*
X344650914Y-124206356D01*
G75*
G02*
X344890914Y-124446356I0J-240000D01*
G01*
X344890914Y-125166356D01*
G75*
G02*
X344650914Y-125406356I-240000J0D01*
G01*
G37*
%TD*%
%TO.C,D105*%
G36*
G01*
X344650914Y-71056308D02*
X343530914Y-71056308D01*
G75*
G02*
X343290914Y-70816308I0J240000D01*
G01*
X343290914Y-70096308D01*
G75*
G02*
X343530914Y-69856308I240000J0D01*
G01*
X344650914Y-69856308D01*
G75*
G02*
X344890914Y-70096308I0J-240000D01*
G01*
X344890914Y-70816308D01*
G75*
G02*
X344650914Y-71056308I-240000J0D01*
G01*
G37*
G36*
G01*
X344650914Y-68256308D02*
X343530914Y-68256308D01*
G75*
G02*
X343290914Y-68016308I0J240000D01*
G01*
X343290914Y-67296308D01*
G75*
G02*
X343530914Y-67056308I240000J0D01*
G01*
X344650914Y-67056308D01*
G75*
G02*
X344890914Y-67296308I0J-240000D01*
G01*
X344890914Y-68016308D01*
G75*
G02*
X344650914Y-68256308I-240000J0D01*
G01*
G37*
%TD*%
%TO.C,D104*%
G36*
G01*
X344650914Y-52006292D02*
X343530914Y-52006292D01*
G75*
G02*
X343290914Y-51766292I0J240000D01*
G01*
X343290914Y-51046292D01*
G75*
G02*
X343530914Y-50806292I240000J0D01*
G01*
X344650914Y-50806292D01*
G75*
G02*
X344890914Y-51046292I0J-240000D01*
G01*
X344890914Y-51766292D01*
G75*
G02*
X344650914Y-52006292I-240000J0D01*
G01*
G37*
G36*
G01*
X344650914Y-49206292D02*
X343530914Y-49206292D01*
G75*
G02*
X343290914Y-48966292I0J240000D01*
G01*
X343290914Y-48246292D01*
G75*
G02*
X343530914Y-48006292I240000J0D01*
G01*
X344650914Y-48006292D01*
G75*
G02*
X344890914Y-48246292I0J-240000D01*
G01*
X344890914Y-48966292D01*
G75*
G02*
X344650914Y-49206292I-240000J0D01*
G01*
G37*
%TD*%
%TO.C,D103*%
G36*
G01*
X344650625Y-28193750D02*
X343530625Y-28193750D01*
G75*
G02*
X343290625Y-27953750I0J240000D01*
G01*
X343290625Y-27233750D01*
G75*
G02*
X343530625Y-26993750I240000J0D01*
G01*
X344650625Y-26993750D01*
G75*
G02*
X344890625Y-27233750I0J-240000D01*
G01*
X344890625Y-27953750D01*
G75*
G02*
X344650625Y-28193750I-240000J0D01*
G01*
G37*
G36*
G01*
X344650625Y-25393750D02*
X343530625Y-25393750D01*
G75*
G02*
X343290625Y-25153750I0J240000D01*
G01*
X343290625Y-24433750D01*
G75*
G02*
X343530625Y-24193750I240000J0D01*
G01*
X344650625Y-24193750D01*
G75*
G02*
X344890625Y-24433750I0J-240000D01*
G01*
X344890625Y-25153750D01*
G75*
G02*
X344650625Y-25393750I-240000J0D01*
G01*
G37*
%TD*%
%TO.C,D102*%
G36*
G01*
X342269662Y-128206356D02*
X341149662Y-128206356D01*
G75*
G02*
X340909662Y-127966356I0J240000D01*
G01*
X340909662Y-127246356D01*
G75*
G02*
X341149662Y-127006356I240000J0D01*
G01*
X342269662Y-127006356D01*
G75*
G02*
X342509662Y-127246356I0J-240000D01*
G01*
X342509662Y-127966356D01*
G75*
G02*
X342269662Y-128206356I-240000J0D01*
G01*
G37*
G36*
G01*
X342269662Y-125406356D02*
X341149662Y-125406356D01*
G75*
G02*
X340909662Y-125166356I0J240000D01*
G01*
X340909662Y-124446356D01*
G75*
G02*
X341149662Y-124206356I240000J0D01*
G01*
X342269662Y-124206356D01*
G75*
G02*
X342509662Y-124446356I0J-240000D01*
G01*
X342509662Y-125166356D01*
G75*
G02*
X342269662Y-125406356I-240000J0D01*
G01*
G37*
%TD*%
%TO.C,D101*%
G36*
G01*
X343460288Y-109156340D02*
X342340288Y-109156340D01*
G75*
G02*
X342100288Y-108916340I0J240000D01*
G01*
X342100288Y-108196340D01*
G75*
G02*
X342340288Y-107956340I240000J0D01*
G01*
X343460288Y-107956340D01*
G75*
G02*
X343700288Y-108196340I0J-240000D01*
G01*
X343700288Y-108916340D01*
G75*
G02*
X343460288Y-109156340I-240000J0D01*
G01*
G37*
G36*
G01*
X343460288Y-106356340D02*
X342340288Y-106356340D01*
G75*
G02*
X342100288Y-106116340I0J240000D01*
G01*
X342100288Y-105396340D01*
G75*
G02*
X342340288Y-105156340I240000J0D01*
G01*
X343460288Y-105156340D01*
G75*
G02*
X343700288Y-105396340I0J-240000D01*
G01*
X343700288Y-106116340D01*
G75*
G02*
X343460288Y-106356340I-240000J0D01*
G01*
G37*
%TD*%
%TO.C,D98*%
G36*
G01*
X342269662Y-52006292D02*
X341149662Y-52006292D01*
G75*
G02*
X340909662Y-51766292I0J240000D01*
G01*
X340909662Y-51046292D01*
G75*
G02*
X341149662Y-50806292I240000J0D01*
G01*
X342269662Y-50806292D01*
G75*
G02*
X342509662Y-51046292I0J-240000D01*
G01*
X342509662Y-51766292D01*
G75*
G02*
X342269662Y-52006292I-240000J0D01*
G01*
G37*
G36*
G01*
X342269662Y-49206292D02*
X341149662Y-49206292D01*
G75*
G02*
X340909662Y-48966292I0J240000D01*
G01*
X340909662Y-48246292D01*
G75*
G02*
X341149662Y-48006292I240000J0D01*
G01*
X342269662Y-48006292D01*
G75*
G02*
X342509662Y-48246292I0J-240000D01*
G01*
X342509662Y-48966292D01*
G75*
G02*
X342269662Y-49206292I-240000J0D01*
G01*
G37*
%TD*%
%TO.C,D97*%
G36*
G01*
X342269375Y-28193750D02*
X341149375Y-28193750D01*
G75*
G02*
X340909375Y-27953750I0J240000D01*
G01*
X340909375Y-27233750D01*
G75*
G02*
X341149375Y-26993750I240000J0D01*
G01*
X342269375Y-26993750D01*
G75*
G02*
X342509375Y-27233750I0J-240000D01*
G01*
X342509375Y-27953750D01*
G75*
G02*
X342269375Y-28193750I-240000J0D01*
G01*
G37*
G36*
G01*
X342269375Y-25393750D02*
X341149375Y-25393750D01*
G75*
G02*
X340909375Y-25153750I0J240000D01*
G01*
X340909375Y-24433750D01*
G75*
G02*
X341149375Y-24193750I240000J0D01*
G01*
X342269375Y-24193750D01*
G75*
G02*
X342509375Y-24433750I0J-240000D01*
G01*
X342509375Y-25153750D01*
G75*
G02*
X342269375Y-25393750I-240000J0D01*
G01*
G37*
%TD*%
%TO.C,D96*%
G36*
G01*
X305360256Y-128206356D02*
X304240256Y-128206356D01*
G75*
G02*
X304000256Y-127966356I0J240000D01*
G01*
X304000256Y-127246356D01*
G75*
G02*
X304240256Y-127006356I240000J0D01*
G01*
X305360256Y-127006356D01*
G75*
G02*
X305600256Y-127246356I0J-240000D01*
G01*
X305600256Y-127966356D01*
G75*
G02*
X305360256Y-128206356I-240000J0D01*
G01*
G37*
G36*
G01*
X305360256Y-125406356D02*
X304240256Y-125406356D01*
G75*
G02*
X304000256Y-125166356I0J240000D01*
G01*
X304000256Y-124446356D01*
G75*
G02*
X304240256Y-124206356I240000J0D01*
G01*
X305360256Y-124206356D01*
G75*
G02*
X305600256Y-124446356I0J-240000D01*
G01*
X305600256Y-125166356D01*
G75*
G02*
X305360256Y-125406356I-240000J0D01*
G01*
G37*
%TD*%
%TO.C,D93*%
G36*
G01*
X324410272Y-71056308D02*
X323290272Y-71056308D01*
G75*
G02*
X323050272Y-70816308I0J240000D01*
G01*
X323050272Y-70096308D01*
G75*
G02*
X323290272Y-69856308I240000J0D01*
G01*
X324410272Y-69856308D01*
G75*
G02*
X324650272Y-70096308I0J-240000D01*
G01*
X324650272Y-70816308D01*
G75*
G02*
X324410272Y-71056308I-240000J0D01*
G01*
G37*
G36*
G01*
X324410272Y-68256308D02*
X323290272Y-68256308D01*
G75*
G02*
X323050272Y-68016308I0J240000D01*
G01*
X323050272Y-67296308D01*
G75*
G02*
X323290272Y-67056308I240000J0D01*
G01*
X324410272Y-67056308D01*
G75*
G02*
X324650272Y-67296308I0J-240000D01*
G01*
X324650272Y-68016308D01*
G75*
G02*
X324410272Y-68256308I-240000J0D01*
G01*
G37*
%TD*%
%TO.C,D92*%
G36*
G01*
X324410272Y-52006292D02*
X323290272Y-52006292D01*
G75*
G02*
X323050272Y-51766292I0J240000D01*
G01*
X323050272Y-51046292D01*
G75*
G02*
X323290272Y-50806292I240000J0D01*
G01*
X324410272Y-50806292D01*
G75*
G02*
X324650272Y-51046292I0J-240000D01*
G01*
X324650272Y-51766292D01*
G75*
G02*
X324410272Y-52006292I-240000J0D01*
G01*
G37*
G36*
G01*
X324410272Y-49206292D02*
X323290272Y-49206292D01*
G75*
G02*
X323050272Y-48966292I0J240000D01*
G01*
X323050272Y-48246292D01*
G75*
G02*
X323290272Y-48006292I240000J0D01*
G01*
X324410272Y-48006292D01*
G75*
G02*
X324650272Y-48246292I0J-240000D01*
G01*
X324650272Y-48966292D01*
G75*
G02*
X324410272Y-49206292I-240000J0D01*
G01*
G37*
%TD*%
%TO.C,D91*%
G36*
G01*
X324410000Y-28193750D02*
X323290000Y-28193750D01*
G75*
G02*
X323050000Y-27953750I0J240000D01*
G01*
X323050000Y-27233750D01*
G75*
G02*
X323290000Y-26993750I240000J0D01*
G01*
X324410000Y-26993750D01*
G75*
G02*
X324650000Y-27233750I0J-240000D01*
G01*
X324650000Y-27953750D01*
G75*
G02*
X324410000Y-28193750I-240000J0D01*
G01*
G37*
G36*
G01*
X324410000Y-25393750D02*
X323290000Y-25393750D01*
G75*
G02*
X323050000Y-25153750I0J240000D01*
G01*
X323050000Y-24433750D01*
G75*
G02*
X323290000Y-24193750I240000J0D01*
G01*
X324410000Y-24193750D01*
G75*
G02*
X324650000Y-24433750I0J-240000D01*
G01*
X324650000Y-25153750D01*
G75*
G02*
X324410000Y-25393750I-240000J0D01*
G01*
G37*
%TD*%
%TO.C,D90*%
G36*
G01*
X275594606Y-128206356D02*
X274474606Y-128206356D01*
G75*
G02*
X274234606Y-127966356I0J240000D01*
G01*
X274234606Y-127246356D01*
G75*
G02*
X274474606Y-127006356I240000J0D01*
G01*
X275594606Y-127006356D01*
G75*
G02*
X275834606Y-127246356I0J-240000D01*
G01*
X275834606Y-127966356D01*
G75*
G02*
X275594606Y-128206356I-240000J0D01*
G01*
G37*
G36*
G01*
X275594606Y-125406356D02*
X274474606Y-125406356D01*
G75*
G02*
X274234606Y-125166356I0J240000D01*
G01*
X274234606Y-124446356D01*
G75*
G02*
X274474606Y-124206356I240000J0D01*
G01*
X275594606Y-124206356D01*
G75*
G02*
X275834606Y-124446356I0J-240000D01*
G01*
X275834606Y-125166356D01*
G75*
G02*
X275594606Y-125406356I-240000J0D01*
G01*
G37*
%TD*%
%TO.C,D87*%
G36*
G01*
X342269662Y-71056308D02*
X341149662Y-71056308D01*
G75*
G02*
X340909662Y-70816308I0J240000D01*
G01*
X340909662Y-70096308D01*
G75*
G02*
X341149662Y-69856308I240000J0D01*
G01*
X342269662Y-69856308D01*
G75*
G02*
X342509662Y-70096308I0J-240000D01*
G01*
X342509662Y-70816308D01*
G75*
G02*
X342269662Y-71056308I-240000J0D01*
G01*
G37*
G36*
G01*
X342269662Y-68256308D02*
X341149662Y-68256308D01*
G75*
G02*
X340909662Y-68016308I0J240000D01*
G01*
X340909662Y-67296308D01*
G75*
G02*
X341149662Y-67056308I240000J0D01*
G01*
X342269662Y-67056308D01*
G75*
G02*
X342509662Y-67296308I0J-240000D01*
G01*
X342509662Y-68016308D01*
G75*
G02*
X342269662Y-68256308I-240000J0D01*
G01*
G37*
%TD*%
%TO.C,D86*%
G36*
G01*
X263688346Y-52006292D02*
X262568346Y-52006292D01*
G75*
G02*
X262328346Y-51766292I0J240000D01*
G01*
X262328346Y-51046292D01*
G75*
G02*
X262568346Y-50806292I240000J0D01*
G01*
X263688346Y-50806292D01*
G75*
G02*
X263928346Y-51046292I0J-240000D01*
G01*
X263928346Y-51766292D01*
G75*
G02*
X263688346Y-52006292I-240000J0D01*
G01*
G37*
G36*
G01*
X263688346Y-49206292D02*
X262568346Y-49206292D01*
G75*
G02*
X262328346Y-48966292I0J240000D01*
G01*
X262328346Y-48246292D01*
G75*
G02*
X262568346Y-48006292I240000J0D01*
G01*
X263688346Y-48006292D01*
G75*
G02*
X263928346Y-48246292I0J-240000D01*
G01*
X263928346Y-48966292D01*
G75*
G02*
X263688346Y-49206292I-240000J0D01*
G01*
G37*
%TD*%
%TO.C,D84*%
G36*
G01*
X273213354Y-128206356D02*
X272093354Y-128206356D01*
G75*
G02*
X271853354Y-127966356I0J240000D01*
G01*
X271853354Y-127246356D01*
G75*
G02*
X272093354Y-127006356I240000J0D01*
G01*
X273213354Y-127006356D01*
G75*
G02*
X273453354Y-127246356I0J-240000D01*
G01*
X273453354Y-127966356D01*
G75*
G02*
X273213354Y-128206356I-240000J0D01*
G01*
G37*
G36*
G01*
X273213354Y-125406356D02*
X272093354Y-125406356D01*
G75*
G02*
X271853354Y-125166356I0J240000D01*
G01*
X271853354Y-124446356D01*
G75*
G02*
X272093354Y-124206356I240000J0D01*
G01*
X273213354Y-124206356D01*
G75*
G02*
X273453354Y-124446356I0J-240000D01*
G01*
X273453354Y-125166356D01*
G75*
G02*
X273213354Y-125406356I-240000J0D01*
G01*
G37*
%TD*%
%TO.C,D83*%
G36*
G01*
X252972712Y-109156340D02*
X251852712Y-109156340D01*
G75*
G02*
X251612712Y-108916340I0J240000D01*
G01*
X251612712Y-108196340D01*
G75*
G02*
X251852712Y-107956340I240000J0D01*
G01*
X252972712Y-107956340D01*
G75*
G02*
X253212712Y-108196340I0J-240000D01*
G01*
X253212712Y-108916340D01*
G75*
G02*
X252972712Y-109156340I-240000J0D01*
G01*
G37*
G36*
G01*
X252972712Y-106356340D02*
X251852712Y-106356340D01*
G75*
G02*
X251612712Y-106116340I0J240000D01*
G01*
X251612712Y-105396340D01*
G75*
G02*
X251852712Y-105156340I240000J0D01*
G01*
X252972712Y-105156340D01*
G75*
G02*
X253212712Y-105396340I0J-240000D01*
G01*
X253212712Y-106116340D01*
G75*
G02*
X252972712Y-106356340I-240000J0D01*
G01*
G37*
%TD*%
%TO.C,D82*%
G36*
G01*
X258925842Y-90106324D02*
X257805842Y-90106324D01*
G75*
G02*
X257565842Y-89866324I0J240000D01*
G01*
X257565842Y-89146324D01*
G75*
G02*
X257805842Y-88906324I240000J0D01*
G01*
X258925842Y-88906324D01*
G75*
G02*
X259165842Y-89146324I0J-240000D01*
G01*
X259165842Y-89866324D01*
G75*
G02*
X258925842Y-90106324I-240000J0D01*
G01*
G37*
G36*
G01*
X258925842Y-87306324D02*
X257805842Y-87306324D01*
G75*
G02*
X257565842Y-87066324I0J240000D01*
G01*
X257565842Y-86346324D01*
G75*
G02*
X257805842Y-86106324I240000J0D01*
G01*
X258925842Y-86106324D01*
G75*
G02*
X259165842Y-86346324I0J-240000D01*
G01*
X259165842Y-87066324D01*
G75*
G02*
X258925842Y-87306324I-240000J0D01*
G01*
G37*
%TD*%
%TO.C,D81*%
G36*
G01*
X273213354Y-71056308D02*
X272093354Y-71056308D01*
G75*
G02*
X271853354Y-70816308I0J240000D01*
G01*
X271853354Y-70096308D01*
G75*
G02*
X272093354Y-69856308I240000J0D01*
G01*
X273213354Y-69856308D01*
G75*
G02*
X273453354Y-70096308I0J-240000D01*
G01*
X273453354Y-70816308D01*
G75*
G02*
X273213354Y-71056308I-240000J0D01*
G01*
G37*
G36*
G01*
X273213354Y-68256308D02*
X272093354Y-68256308D01*
G75*
G02*
X271853354Y-68016308I0J240000D01*
G01*
X271853354Y-67296308D01*
G75*
G02*
X272093354Y-67056308I240000J0D01*
G01*
X273213354Y-67056308D01*
G75*
G02*
X273453354Y-67296308I0J-240000D01*
G01*
X273453354Y-68016308D01*
G75*
G02*
X273213354Y-68256308I-240000J0D01*
G01*
G37*
%TD*%
%TO.C,D80*%
G36*
G01*
X261307094Y-52006292D02*
X260187094Y-52006292D01*
G75*
G02*
X259947094Y-51766292I0J240000D01*
G01*
X259947094Y-51046292D01*
G75*
G02*
X260187094Y-50806292I240000J0D01*
G01*
X261307094Y-50806292D01*
G75*
G02*
X261547094Y-51046292I0J-240000D01*
G01*
X261547094Y-51766292D01*
G75*
G02*
X261307094Y-52006292I-240000J0D01*
G01*
G37*
G36*
G01*
X261307094Y-49206292D02*
X260187094Y-49206292D01*
G75*
G02*
X259947094Y-48966292I0J240000D01*
G01*
X259947094Y-48246292D01*
G75*
G02*
X260187094Y-48006292I240000J0D01*
G01*
X261307094Y-48006292D01*
G75*
G02*
X261547094Y-48246292I0J-240000D01*
G01*
X261547094Y-48966292D01*
G75*
G02*
X261307094Y-49206292I-240000J0D01*
G01*
G37*
%TD*%
%TO.C,D79*%
G36*
G01*
X281547500Y-28193750D02*
X280427500Y-28193750D01*
G75*
G02*
X280187500Y-27953750I0J240000D01*
G01*
X280187500Y-27233750D01*
G75*
G02*
X280427500Y-26993750I240000J0D01*
G01*
X281547500Y-26993750D01*
G75*
G02*
X281787500Y-27233750I0J-240000D01*
G01*
X281787500Y-27953750D01*
G75*
G02*
X281547500Y-28193750I-240000J0D01*
G01*
G37*
G36*
G01*
X281547500Y-25393750D02*
X280427500Y-25393750D01*
G75*
G02*
X280187500Y-25153750I0J240000D01*
G01*
X280187500Y-24433750D01*
G75*
G02*
X280427500Y-24193750I240000J0D01*
G01*
X281547500Y-24193750D01*
G75*
G02*
X281787500Y-24433750I0J-240000D01*
G01*
X281787500Y-25153750D01*
G75*
G02*
X281547500Y-25393750I-240000J0D01*
G01*
G37*
%TD*%
%TO.C,D78*%
G36*
G01*
X252972712Y-128206356D02*
X251852712Y-128206356D01*
G75*
G02*
X251612712Y-127966356I0J240000D01*
G01*
X251612712Y-127246356D01*
G75*
G02*
X251852712Y-127006356I240000J0D01*
G01*
X252972712Y-127006356D01*
G75*
G02*
X253212712Y-127246356I0J-240000D01*
G01*
X253212712Y-127966356D01*
G75*
G02*
X252972712Y-128206356I-240000J0D01*
G01*
G37*
G36*
G01*
X252972712Y-125406356D02*
X251852712Y-125406356D01*
G75*
G02*
X251612712Y-125166356I0J240000D01*
G01*
X251612712Y-124446356D01*
G75*
G02*
X251852712Y-124206356I240000J0D01*
G01*
X252972712Y-124206356D01*
G75*
G02*
X253212712Y-124446356I0J-240000D01*
G01*
X253212712Y-125166356D01*
G75*
G02*
X252972712Y-125406356I-240000J0D01*
G01*
G37*
%TD*%
%TO.C,D77*%
G36*
G01*
X250591460Y-109156340D02*
X249471460Y-109156340D01*
G75*
G02*
X249231460Y-108916340I0J240000D01*
G01*
X249231460Y-108196340D01*
G75*
G02*
X249471460Y-107956340I240000J0D01*
G01*
X250591460Y-107956340D01*
G75*
G02*
X250831460Y-108196340I0J-240000D01*
G01*
X250831460Y-108916340D01*
G75*
G02*
X250591460Y-109156340I-240000J0D01*
G01*
G37*
G36*
G01*
X250591460Y-106356340D02*
X249471460Y-106356340D01*
G75*
G02*
X249231460Y-106116340I0J240000D01*
G01*
X249231460Y-105396340D01*
G75*
G02*
X249471460Y-105156340I240000J0D01*
G01*
X250591460Y-105156340D01*
G75*
G02*
X250831460Y-105396340I0J-240000D01*
G01*
X250831460Y-106116340D01*
G75*
G02*
X250591460Y-106356340I-240000J0D01*
G01*
G37*
%TD*%
%TO.C,D75*%
G36*
G01*
X270832102Y-71056308D02*
X269712102Y-71056308D01*
G75*
G02*
X269472102Y-70816308I0J240000D01*
G01*
X269472102Y-70096308D01*
G75*
G02*
X269712102Y-69856308I240000J0D01*
G01*
X270832102Y-69856308D01*
G75*
G02*
X271072102Y-70096308I0J-240000D01*
G01*
X271072102Y-70816308D01*
G75*
G02*
X270832102Y-71056308I-240000J0D01*
G01*
G37*
G36*
G01*
X270832102Y-68256308D02*
X269712102Y-68256308D01*
G75*
G02*
X269472102Y-68016308I0J240000D01*
G01*
X269472102Y-67296308D01*
G75*
G02*
X269712102Y-67056308I240000J0D01*
G01*
X270832102Y-67056308D01*
G75*
G02*
X271072102Y-67296308I0J-240000D01*
G01*
X271072102Y-68016308D01*
G75*
G02*
X270832102Y-68256308I-240000J0D01*
G01*
G37*
%TD*%
%TO.C,D74*%
G36*
G01*
X244638330Y-52006292D02*
X243518330Y-52006292D01*
G75*
G02*
X243278330Y-51766292I0J240000D01*
G01*
X243278330Y-51046292D01*
G75*
G02*
X243518330Y-50806292I240000J0D01*
G01*
X244638330Y-50806292D01*
G75*
G02*
X244878330Y-51046292I0J-240000D01*
G01*
X244878330Y-51766292D01*
G75*
G02*
X244638330Y-52006292I-240000J0D01*
G01*
G37*
G36*
G01*
X244638330Y-49206292D02*
X243518330Y-49206292D01*
G75*
G02*
X243278330Y-48966292I0J240000D01*
G01*
X243278330Y-48246292D01*
G75*
G02*
X243518330Y-48006292I240000J0D01*
G01*
X244638330Y-48006292D01*
G75*
G02*
X244878330Y-48246292I0J-240000D01*
G01*
X244878330Y-48966292D01*
G75*
G02*
X244638330Y-49206292I-240000J0D01*
G01*
G37*
%TD*%
%TO.C,D73*%
G36*
G01*
X276785000Y-28193750D02*
X275665000Y-28193750D01*
G75*
G02*
X275425000Y-27953750I0J240000D01*
G01*
X275425000Y-27233750D01*
G75*
G02*
X275665000Y-26993750I240000J0D01*
G01*
X276785000Y-26993750D01*
G75*
G02*
X277025000Y-27233750I0J-240000D01*
G01*
X277025000Y-27953750D01*
G75*
G02*
X276785000Y-28193750I-240000J0D01*
G01*
G37*
G36*
G01*
X276785000Y-25393750D02*
X275665000Y-25393750D01*
G75*
G02*
X275425000Y-25153750I0J240000D01*
G01*
X275425000Y-24433750D01*
G75*
G02*
X275665000Y-24193750I240000J0D01*
G01*
X276785000Y-24193750D01*
G75*
G02*
X277025000Y-24433750I0J-240000D01*
G01*
X277025000Y-25153750D01*
G75*
G02*
X276785000Y-25393750I-240000J0D01*
G01*
G37*
%TD*%
%TO.C,D71*%
G36*
G01*
X248210208Y-109156340D02*
X247090208Y-109156340D01*
G75*
G02*
X246850208Y-108916340I0J240000D01*
G01*
X246850208Y-108196340D01*
G75*
G02*
X247090208Y-107956340I240000J0D01*
G01*
X248210208Y-107956340D01*
G75*
G02*
X248450208Y-108196340I0J-240000D01*
G01*
X248450208Y-108916340D01*
G75*
G02*
X248210208Y-109156340I-240000J0D01*
G01*
G37*
G36*
G01*
X248210208Y-106356340D02*
X247090208Y-106356340D01*
G75*
G02*
X246850208Y-106116340I0J240000D01*
G01*
X246850208Y-105396340D01*
G75*
G02*
X247090208Y-105156340I240000J0D01*
G01*
X248210208Y-105156340D01*
G75*
G02*
X248450208Y-105396340I0J-240000D01*
G01*
X248450208Y-106116340D01*
G75*
G02*
X248210208Y-106356340I-240000J0D01*
G01*
G37*
%TD*%
%TO.C,D70*%
G36*
G01*
X256544590Y-90106324D02*
X255424590Y-90106324D01*
G75*
G02*
X255184590Y-89866324I0J240000D01*
G01*
X255184590Y-89146324D01*
G75*
G02*
X255424590Y-88906324I240000J0D01*
G01*
X256544590Y-88906324D01*
G75*
G02*
X256784590Y-89146324I0J-240000D01*
G01*
X256784590Y-89866324D01*
G75*
G02*
X256544590Y-90106324I-240000J0D01*
G01*
G37*
G36*
G01*
X256544590Y-87306324D02*
X255424590Y-87306324D01*
G75*
G02*
X255184590Y-87066324I0J240000D01*
G01*
X255184590Y-86346324D01*
G75*
G02*
X255424590Y-86106324I240000J0D01*
G01*
X256544590Y-86106324D01*
G75*
G02*
X256784590Y-86346324I0J-240000D01*
G01*
X256784590Y-87066324D01*
G75*
G02*
X256544590Y-87306324I-240000J0D01*
G01*
G37*
%TD*%
%TO.C,D69*%
G36*
G01*
X252972712Y-71056308D02*
X251852712Y-71056308D01*
G75*
G02*
X251612712Y-70816308I0J240000D01*
G01*
X251612712Y-70096308D01*
G75*
G02*
X251852712Y-69856308I240000J0D01*
G01*
X252972712Y-69856308D01*
G75*
G02*
X253212712Y-70096308I0J-240000D01*
G01*
X253212712Y-70816308D01*
G75*
G02*
X252972712Y-71056308I-240000J0D01*
G01*
G37*
G36*
G01*
X252972712Y-68256308D02*
X251852712Y-68256308D01*
G75*
G02*
X251612712Y-68016308I0J240000D01*
G01*
X251612712Y-67296308D01*
G75*
G02*
X251852712Y-67056308I240000J0D01*
G01*
X252972712Y-67056308D01*
G75*
G02*
X253212712Y-67296308I0J-240000D01*
G01*
X253212712Y-68016308D01*
G75*
G02*
X252972712Y-68256308I-240000J0D01*
G01*
G37*
%TD*%
%TO.C,D68*%
G36*
G01*
X242257078Y-52006292D02*
X241137078Y-52006292D01*
G75*
G02*
X240897078Y-51766292I0J240000D01*
G01*
X240897078Y-51046292D01*
G75*
G02*
X241137078Y-50806292I240000J0D01*
G01*
X242257078Y-50806292D01*
G75*
G02*
X242497078Y-51046292I0J-240000D01*
G01*
X242497078Y-51766292D01*
G75*
G02*
X242257078Y-52006292I-240000J0D01*
G01*
G37*
G36*
G01*
X242257078Y-49206292D02*
X241137078Y-49206292D01*
G75*
G02*
X240897078Y-48966292I0J240000D01*
G01*
X240897078Y-48246292D01*
G75*
G02*
X241137078Y-48006292I240000J0D01*
G01*
X242257078Y-48006292D01*
G75*
G02*
X242497078Y-48246292I0J-240000D01*
G01*
X242497078Y-48966292D01*
G75*
G02*
X242257078Y-49206292I-240000J0D01*
G01*
G37*
%TD*%
%TO.C,D67*%
G36*
G01*
X257735000Y-28193750D02*
X256615000Y-28193750D01*
G75*
G02*
X256375000Y-27953750I0J240000D01*
G01*
X256375000Y-27233750D01*
G75*
G02*
X256615000Y-26993750I240000J0D01*
G01*
X257735000Y-26993750D01*
G75*
G02*
X257975000Y-27233750I0J-240000D01*
G01*
X257975000Y-27953750D01*
G75*
G02*
X257735000Y-28193750I-240000J0D01*
G01*
G37*
G36*
G01*
X257735000Y-25393750D02*
X256615000Y-25393750D01*
G75*
G02*
X256375000Y-25153750I0J240000D01*
G01*
X256375000Y-24433750D01*
G75*
G02*
X256615000Y-24193750I240000J0D01*
G01*
X257735000Y-24193750D01*
G75*
G02*
X257975000Y-24433750I0J-240000D01*
G01*
X257975000Y-25153750D01*
G75*
G02*
X257735000Y-25393750I-240000J0D01*
G01*
G37*
%TD*%
%TO.C,D65*%
G36*
G01*
X229160192Y-109156340D02*
X228040192Y-109156340D01*
G75*
G02*
X227800192Y-108916340I0J240000D01*
G01*
X227800192Y-108196340D01*
G75*
G02*
X228040192Y-107956340I240000J0D01*
G01*
X229160192Y-107956340D01*
G75*
G02*
X229400192Y-108196340I0J-240000D01*
G01*
X229400192Y-108916340D01*
G75*
G02*
X229160192Y-109156340I-240000J0D01*
G01*
G37*
G36*
G01*
X229160192Y-106356340D02*
X228040192Y-106356340D01*
G75*
G02*
X227800192Y-106116340I0J240000D01*
G01*
X227800192Y-105396340D01*
G75*
G02*
X228040192Y-105156340I240000J0D01*
G01*
X229160192Y-105156340D01*
G75*
G02*
X229400192Y-105396340I0J-240000D01*
G01*
X229400192Y-106116340D01*
G75*
G02*
X229160192Y-106356340I-240000J0D01*
G01*
G37*
%TD*%
%TO.C,D64*%
G36*
G01*
X238685200Y-90106324D02*
X237565200Y-90106324D01*
G75*
G02*
X237325200Y-89866324I0J240000D01*
G01*
X237325200Y-89146324D01*
G75*
G02*
X237565200Y-88906324I240000J0D01*
G01*
X238685200Y-88906324D01*
G75*
G02*
X238925200Y-89146324I0J-240000D01*
G01*
X238925200Y-89866324D01*
G75*
G02*
X238685200Y-90106324I-240000J0D01*
G01*
G37*
G36*
G01*
X238685200Y-87306324D02*
X237565200Y-87306324D01*
G75*
G02*
X237325200Y-87066324I0J240000D01*
G01*
X237325200Y-86346324D01*
G75*
G02*
X237565200Y-86106324I240000J0D01*
G01*
X238685200Y-86106324D01*
G75*
G02*
X238925200Y-86346324I0J-240000D01*
G01*
X238925200Y-87066324D01*
G75*
G02*
X238685200Y-87306324I-240000J0D01*
G01*
G37*
%TD*%
%TO.C,D63*%
G36*
G01*
X233922696Y-71056308D02*
X232802696Y-71056308D01*
G75*
G02*
X232562696Y-70816308I0J240000D01*
G01*
X232562696Y-70096308D01*
G75*
G02*
X232802696Y-69856308I240000J0D01*
G01*
X233922696Y-69856308D01*
G75*
G02*
X234162696Y-70096308I0J-240000D01*
G01*
X234162696Y-70816308D01*
G75*
G02*
X233922696Y-71056308I-240000J0D01*
G01*
G37*
G36*
G01*
X233922696Y-68256308D02*
X232802696Y-68256308D01*
G75*
G02*
X232562696Y-68016308I0J240000D01*
G01*
X232562696Y-67296308D01*
G75*
G02*
X232802696Y-67056308I240000J0D01*
G01*
X233922696Y-67056308D01*
G75*
G02*
X234162696Y-67296308I0J-240000D01*
G01*
X234162696Y-68016308D01*
G75*
G02*
X233922696Y-68256308I-240000J0D01*
G01*
G37*
%TD*%
%TO.C,D62*%
G36*
G01*
X224397688Y-52006292D02*
X223277688Y-52006292D01*
G75*
G02*
X223037688Y-51766292I0J240000D01*
G01*
X223037688Y-51046292D01*
G75*
G02*
X223277688Y-50806292I240000J0D01*
G01*
X224397688Y-50806292D01*
G75*
G02*
X224637688Y-51046292I0J-240000D01*
G01*
X224637688Y-51766292D01*
G75*
G02*
X224397688Y-52006292I-240000J0D01*
G01*
G37*
G36*
G01*
X224397688Y-49206292D02*
X223277688Y-49206292D01*
G75*
G02*
X223037688Y-48966292I0J240000D01*
G01*
X223037688Y-48246292D01*
G75*
G02*
X223277688Y-48006292I240000J0D01*
G01*
X224397688Y-48006292D01*
G75*
G02*
X224637688Y-48246292I0J-240000D01*
G01*
X224637688Y-48966292D01*
G75*
G02*
X224397688Y-49206292I-240000J0D01*
G01*
G37*
%TD*%
%TO.C,D61*%
G36*
G01*
X238685000Y-28193750D02*
X237565000Y-28193750D01*
G75*
G02*
X237325000Y-27953750I0J240000D01*
G01*
X237325000Y-27233750D01*
G75*
G02*
X237565000Y-26993750I240000J0D01*
G01*
X238685000Y-26993750D01*
G75*
G02*
X238925000Y-27233750I0J-240000D01*
G01*
X238925000Y-27953750D01*
G75*
G02*
X238685000Y-28193750I-240000J0D01*
G01*
G37*
G36*
G01*
X238685000Y-25393750D02*
X237565000Y-25393750D01*
G75*
G02*
X237325000Y-25153750I0J240000D01*
G01*
X237325000Y-24433750D01*
G75*
G02*
X237565000Y-24193750I240000J0D01*
G01*
X238685000Y-24193750D01*
G75*
G02*
X238925000Y-24433750I0J-240000D01*
G01*
X238925000Y-25153750D01*
G75*
G02*
X238685000Y-25393750I-240000J0D01*
G01*
G37*
%TD*%
%TO.C,D59*%
G36*
G01*
X210110176Y-109156340D02*
X208990176Y-109156340D01*
G75*
G02*
X208750176Y-108916340I0J240000D01*
G01*
X208750176Y-108196340D01*
G75*
G02*
X208990176Y-107956340I240000J0D01*
G01*
X210110176Y-107956340D01*
G75*
G02*
X210350176Y-108196340I0J-240000D01*
G01*
X210350176Y-108916340D01*
G75*
G02*
X210110176Y-109156340I-240000J0D01*
G01*
G37*
G36*
G01*
X210110176Y-106356340D02*
X208990176Y-106356340D01*
G75*
G02*
X208750176Y-106116340I0J240000D01*
G01*
X208750176Y-105396340D01*
G75*
G02*
X208990176Y-105156340I240000J0D01*
G01*
X210110176Y-105156340D01*
G75*
G02*
X210350176Y-105396340I0J-240000D01*
G01*
X210350176Y-106116340D01*
G75*
G02*
X210110176Y-106356340I-240000J0D01*
G01*
G37*
%TD*%
%TO.C,D58*%
G36*
G01*
X219635184Y-90106324D02*
X218515184Y-90106324D01*
G75*
G02*
X218275184Y-89866324I0J240000D01*
G01*
X218275184Y-89146324D01*
G75*
G02*
X218515184Y-88906324I240000J0D01*
G01*
X219635184Y-88906324D01*
G75*
G02*
X219875184Y-89146324I0J-240000D01*
G01*
X219875184Y-89866324D01*
G75*
G02*
X219635184Y-90106324I-240000J0D01*
G01*
G37*
G36*
G01*
X219635184Y-87306324D02*
X218515184Y-87306324D01*
G75*
G02*
X218275184Y-87066324I0J240000D01*
G01*
X218275184Y-86346324D01*
G75*
G02*
X218515184Y-86106324I240000J0D01*
G01*
X219635184Y-86106324D01*
G75*
G02*
X219875184Y-86346324I0J-240000D01*
G01*
X219875184Y-87066324D01*
G75*
G02*
X219635184Y-87306324I-240000J0D01*
G01*
G37*
%TD*%
%TO.C,D57*%
G36*
G01*
X214872680Y-71056308D02*
X213752680Y-71056308D01*
G75*
G02*
X213512680Y-70816308I0J240000D01*
G01*
X213512680Y-70096308D01*
G75*
G02*
X213752680Y-69856308I240000J0D01*
G01*
X214872680Y-69856308D01*
G75*
G02*
X215112680Y-70096308I0J-240000D01*
G01*
X215112680Y-70816308D01*
G75*
G02*
X214872680Y-71056308I-240000J0D01*
G01*
G37*
G36*
G01*
X214872680Y-68256308D02*
X213752680Y-68256308D01*
G75*
G02*
X213512680Y-68016308I0J240000D01*
G01*
X213512680Y-67296308D01*
G75*
G02*
X213752680Y-67056308I240000J0D01*
G01*
X214872680Y-67056308D01*
G75*
G02*
X215112680Y-67296308I0J-240000D01*
G01*
X215112680Y-68016308D01*
G75*
G02*
X214872680Y-68256308I-240000J0D01*
G01*
G37*
%TD*%
%TO.C,D56*%
G36*
G01*
X205347672Y-52006292D02*
X204227672Y-52006292D01*
G75*
G02*
X203987672Y-51766292I0J240000D01*
G01*
X203987672Y-51046292D01*
G75*
G02*
X204227672Y-50806292I240000J0D01*
G01*
X205347672Y-50806292D01*
G75*
G02*
X205587672Y-51046292I0J-240000D01*
G01*
X205587672Y-51766292D01*
G75*
G02*
X205347672Y-52006292I-240000J0D01*
G01*
G37*
G36*
G01*
X205347672Y-49206292D02*
X204227672Y-49206292D01*
G75*
G02*
X203987672Y-48966292I0J240000D01*
G01*
X203987672Y-48246292D01*
G75*
G02*
X204227672Y-48006292I240000J0D01*
G01*
X205347672Y-48006292D01*
G75*
G02*
X205587672Y-48246292I0J-240000D01*
G01*
X205587672Y-48966292D01*
G75*
G02*
X205347672Y-49206292I-240000J0D01*
G01*
G37*
%TD*%
%TO.C,D55*%
G36*
G01*
X219635000Y-28193750D02*
X218515000Y-28193750D01*
G75*
G02*
X218275000Y-27953750I0J240000D01*
G01*
X218275000Y-27233750D01*
G75*
G02*
X218515000Y-26993750I240000J0D01*
G01*
X219635000Y-26993750D01*
G75*
G02*
X219875000Y-27233750I0J-240000D01*
G01*
X219875000Y-27953750D01*
G75*
G02*
X219635000Y-28193750I-240000J0D01*
G01*
G37*
G36*
G01*
X219635000Y-25393750D02*
X218515000Y-25393750D01*
G75*
G02*
X218275000Y-25153750I0J240000D01*
G01*
X218275000Y-24433750D01*
G75*
G02*
X218515000Y-24193750I240000J0D01*
G01*
X219635000Y-24193750D01*
G75*
G02*
X219875000Y-24433750I0J-240000D01*
G01*
X219875000Y-25153750D01*
G75*
G02*
X219635000Y-25393750I-240000J0D01*
G01*
G37*
%TD*%
%TO.C,D53*%
G36*
G01*
X191060160Y-109156340D02*
X189940160Y-109156340D01*
G75*
G02*
X189700160Y-108916340I0J240000D01*
G01*
X189700160Y-108196340D01*
G75*
G02*
X189940160Y-107956340I240000J0D01*
G01*
X191060160Y-107956340D01*
G75*
G02*
X191300160Y-108196340I0J-240000D01*
G01*
X191300160Y-108916340D01*
G75*
G02*
X191060160Y-109156340I-240000J0D01*
G01*
G37*
G36*
G01*
X191060160Y-106356340D02*
X189940160Y-106356340D01*
G75*
G02*
X189700160Y-106116340I0J240000D01*
G01*
X189700160Y-105396340D01*
G75*
G02*
X189940160Y-105156340I240000J0D01*
G01*
X191060160Y-105156340D01*
G75*
G02*
X191300160Y-105396340I0J-240000D01*
G01*
X191300160Y-106116340D01*
G75*
G02*
X191060160Y-106356340I-240000J0D01*
G01*
G37*
%TD*%
%TO.C,D52*%
G36*
G01*
X200585168Y-90106324D02*
X199465168Y-90106324D01*
G75*
G02*
X199225168Y-89866324I0J240000D01*
G01*
X199225168Y-89146324D01*
G75*
G02*
X199465168Y-88906324I240000J0D01*
G01*
X200585168Y-88906324D01*
G75*
G02*
X200825168Y-89146324I0J-240000D01*
G01*
X200825168Y-89866324D01*
G75*
G02*
X200585168Y-90106324I-240000J0D01*
G01*
G37*
G36*
G01*
X200585168Y-87306324D02*
X199465168Y-87306324D01*
G75*
G02*
X199225168Y-87066324I0J240000D01*
G01*
X199225168Y-86346324D01*
G75*
G02*
X199465168Y-86106324I240000J0D01*
G01*
X200585168Y-86106324D01*
G75*
G02*
X200825168Y-86346324I0J-240000D01*
G01*
X200825168Y-87066324D01*
G75*
G02*
X200585168Y-87306324I-240000J0D01*
G01*
G37*
%TD*%
%TO.C,D51*%
G36*
G01*
X195822664Y-71056308D02*
X194702664Y-71056308D01*
G75*
G02*
X194462664Y-70816308I0J240000D01*
G01*
X194462664Y-70096308D01*
G75*
G02*
X194702664Y-69856308I240000J0D01*
G01*
X195822664Y-69856308D01*
G75*
G02*
X196062664Y-70096308I0J-240000D01*
G01*
X196062664Y-70816308D01*
G75*
G02*
X195822664Y-71056308I-240000J0D01*
G01*
G37*
G36*
G01*
X195822664Y-68256308D02*
X194702664Y-68256308D01*
G75*
G02*
X194462664Y-68016308I0J240000D01*
G01*
X194462664Y-67296308D01*
G75*
G02*
X194702664Y-67056308I240000J0D01*
G01*
X195822664Y-67056308D01*
G75*
G02*
X196062664Y-67296308I0J-240000D01*
G01*
X196062664Y-68016308D01*
G75*
G02*
X195822664Y-68256308I-240000J0D01*
G01*
G37*
%TD*%
%TO.C,D50*%
G36*
G01*
X186297656Y-52006292D02*
X185177656Y-52006292D01*
G75*
G02*
X184937656Y-51766292I0J240000D01*
G01*
X184937656Y-51046292D01*
G75*
G02*
X185177656Y-50806292I240000J0D01*
G01*
X186297656Y-50806292D01*
G75*
G02*
X186537656Y-51046292I0J-240000D01*
G01*
X186537656Y-51766292D01*
G75*
G02*
X186297656Y-52006292I-240000J0D01*
G01*
G37*
G36*
G01*
X186297656Y-49206292D02*
X185177656Y-49206292D01*
G75*
G02*
X184937656Y-48966292I0J240000D01*
G01*
X184937656Y-48246292D01*
G75*
G02*
X185177656Y-48006292I240000J0D01*
G01*
X186297656Y-48006292D01*
G75*
G02*
X186537656Y-48246292I0J-240000D01*
G01*
X186537656Y-48966292D01*
G75*
G02*
X186297656Y-49206292I-240000J0D01*
G01*
G37*
%TD*%
%TO.C,D49*%
G36*
G01*
X195822500Y-28193750D02*
X194702500Y-28193750D01*
G75*
G02*
X194462500Y-27953750I0J240000D01*
G01*
X194462500Y-27233750D01*
G75*
G02*
X194702500Y-26993750I240000J0D01*
G01*
X195822500Y-26993750D01*
G75*
G02*
X196062500Y-27233750I0J-240000D01*
G01*
X196062500Y-27953750D01*
G75*
G02*
X195822500Y-28193750I-240000J0D01*
G01*
G37*
G36*
G01*
X195822500Y-25393750D02*
X194702500Y-25393750D01*
G75*
G02*
X194462500Y-25153750I0J240000D01*
G01*
X194462500Y-24433750D01*
G75*
G02*
X194702500Y-24193750I240000J0D01*
G01*
X195822500Y-24193750D01*
G75*
G02*
X196062500Y-24433750I0J-240000D01*
G01*
X196062500Y-25153750D01*
G75*
G02*
X195822500Y-25393750I-240000J0D01*
G01*
G37*
%TD*%
%TO.C,D48*%
G36*
G01*
X167247640Y-128206356D02*
X166127640Y-128206356D01*
G75*
G02*
X165887640Y-127966356I0J240000D01*
G01*
X165887640Y-127246356D01*
G75*
G02*
X166127640Y-127006356I240000J0D01*
G01*
X167247640Y-127006356D01*
G75*
G02*
X167487640Y-127246356I0J-240000D01*
G01*
X167487640Y-127966356D01*
G75*
G02*
X167247640Y-128206356I-240000J0D01*
G01*
G37*
G36*
G01*
X167247640Y-125406356D02*
X166127640Y-125406356D01*
G75*
G02*
X165887640Y-125166356I0J240000D01*
G01*
X165887640Y-124446356D01*
G75*
G02*
X166127640Y-124206356I240000J0D01*
G01*
X167247640Y-124206356D01*
G75*
G02*
X167487640Y-124446356I0J-240000D01*
G01*
X167487640Y-125166356D01*
G75*
G02*
X167247640Y-125406356I-240000J0D01*
G01*
G37*
%TD*%
%TO.C,D47*%
G36*
G01*
X172010144Y-109156340D02*
X170890144Y-109156340D01*
G75*
G02*
X170650144Y-108916340I0J240000D01*
G01*
X170650144Y-108196340D01*
G75*
G02*
X170890144Y-107956340I240000J0D01*
G01*
X172010144Y-107956340D01*
G75*
G02*
X172250144Y-108196340I0J-240000D01*
G01*
X172250144Y-108916340D01*
G75*
G02*
X172010144Y-109156340I-240000J0D01*
G01*
G37*
G36*
G01*
X172010144Y-106356340D02*
X170890144Y-106356340D01*
G75*
G02*
X170650144Y-106116340I0J240000D01*
G01*
X170650144Y-105396340D01*
G75*
G02*
X170890144Y-105156340I240000J0D01*
G01*
X172010144Y-105156340D01*
G75*
G02*
X172250144Y-105396340I0J-240000D01*
G01*
X172250144Y-106116340D01*
G75*
G02*
X172010144Y-106356340I-240000J0D01*
G01*
G37*
%TD*%
%TO.C,D46*%
G36*
G01*
X181535152Y-90106324D02*
X180415152Y-90106324D01*
G75*
G02*
X180175152Y-89866324I0J240000D01*
G01*
X180175152Y-89146324D01*
G75*
G02*
X180415152Y-88906324I240000J0D01*
G01*
X181535152Y-88906324D01*
G75*
G02*
X181775152Y-89146324I0J-240000D01*
G01*
X181775152Y-89866324D01*
G75*
G02*
X181535152Y-90106324I-240000J0D01*
G01*
G37*
G36*
G01*
X181535152Y-87306324D02*
X180415152Y-87306324D01*
G75*
G02*
X180175152Y-87066324I0J240000D01*
G01*
X180175152Y-86346324D01*
G75*
G02*
X180415152Y-86106324I240000J0D01*
G01*
X181535152Y-86106324D01*
G75*
G02*
X181775152Y-86346324I0J-240000D01*
G01*
X181775152Y-87066324D01*
G75*
G02*
X181535152Y-87306324I-240000J0D01*
G01*
G37*
%TD*%
%TO.C,D45*%
G36*
G01*
X176772648Y-71056308D02*
X175652648Y-71056308D01*
G75*
G02*
X175412648Y-70816308I0J240000D01*
G01*
X175412648Y-70096308D01*
G75*
G02*
X175652648Y-69856308I240000J0D01*
G01*
X176772648Y-69856308D01*
G75*
G02*
X177012648Y-70096308I0J-240000D01*
G01*
X177012648Y-70816308D01*
G75*
G02*
X176772648Y-71056308I-240000J0D01*
G01*
G37*
G36*
G01*
X176772648Y-68256308D02*
X175652648Y-68256308D01*
G75*
G02*
X175412648Y-68016308I0J240000D01*
G01*
X175412648Y-67296308D01*
G75*
G02*
X175652648Y-67056308I240000J0D01*
G01*
X176772648Y-67056308D01*
G75*
G02*
X177012648Y-67296308I0J-240000D01*
G01*
X177012648Y-68016308D01*
G75*
G02*
X176772648Y-68256308I-240000J0D01*
G01*
G37*
%TD*%
%TO.C,D44*%
G36*
G01*
X167247640Y-52006292D02*
X166127640Y-52006292D01*
G75*
G02*
X165887640Y-51766292I0J240000D01*
G01*
X165887640Y-51046292D01*
G75*
G02*
X166127640Y-50806292I240000J0D01*
G01*
X167247640Y-50806292D01*
G75*
G02*
X167487640Y-51046292I0J-240000D01*
G01*
X167487640Y-51766292D01*
G75*
G02*
X167247640Y-52006292I-240000J0D01*
G01*
G37*
G36*
G01*
X167247640Y-49206292D02*
X166127640Y-49206292D01*
G75*
G02*
X165887640Y-48966292I0J240000D01*
G01*
X165887640Y-48246292D01*
G75*
G02*
X166127640Y-48006292I240000J0D01*
G01*
X167247640Y-48006292D01*
G75*
G02*
X167487640Y-48246292I0J-240000D01*
G01*
X167487640Y-48966292D01*
G75*
G02*
X167247640Y-49206292I-240000J0D01*
G01*
G37*
%TD*%
%TO.C,D43*%
G36*
G01*
X176772500Y-28193750D02*
X175652500Y-28193750D01*
G75*
G02*
X175412500Y-27953750I0J240000D01*
G01*
X175412500Y-27233750D01*
G75*
G02*
X175652500Y-26993750I240000J0D01*
G01*
X176772500Y-26993750D01*
G75*
G02*
X177012500Y-27233750I0J-240000D01*
G01*
X177012500Y-27953750D01*
G75*
G02*
X176772500Y-28193750I-240000J0D01*
G01*
G37*
G36*
G01*
X176772500Y-25393750D02*
X175652500Y-25393750D01*
G75*
G02*
X175412500Y-25153750I0J240000D01*
G01*
X175412500Y-24433750D01*
G75*
G02*
X175652500Y-24193750I240000J0D01*
G01*
X176772500Y-24193750D01*
G75*
G02*
X177012500Y-24433750I0J-240000D01*
G01*
X177012500Y-25153750D01*
G75*
G02*
X176772500Y-25393750I-240000J0D01*
G01*
G37*
%TD*%
%TO.C,D41*%
G36*
G01*
X152960128Y-109156340D02*
X151840128Y-109156340D01*
G75*
G02*
X151600128Y-108916340I0J240000D01*
G01*
X151600128Y-108196340D01*
G75*
G02*
X151840128Y-107956340I240000J0D01*
G01*
X152960128Y-107956340D01*
G75*
G02*
X153200128Y-108196340I0J-240000D01*
G01*
X153200128Y-108916340D01*
G75*
G02*
X152960128Y-109156340I-240000J0D01*
G01*
G37*
G36*
G01*
X152960128Y-106356340D02*
X151840128Y-106356340D01*
G75*
G02*
X151600128Y-106116340I0J240000D01*
G01*
X151600128Y-105396340D01*
G75*
G02*
X151840128Y-105156340I240000J0D01*
G01*
X152960128Y-105156340D01*
G75*
G02*
X153200128Y-105396340I0J-240000D01*
G01*
X153200128Y-106116340D01*
G75*
G02*
X152960128Y-106356340I-240000J0D01*
G01*
G37*
%TD*%
%TO.C,D40*%
G36*
G01*
X162485136Y-90106324D02*
X161365136Y-90106324D01*
G75*
G02*
X161125136Y-89866324I0J240000D01*
G01*
X161125136Y-89146324D01*
G75*
G02*
X161365136Y-88906324I240000J0D01*
G01*
X162485136Y-88906324D01*
G75*
G02*
X162725136Y-89146324I0J-240000D01*
G01*
X162725136Y-89866324D01*
G75*
G02*
X162485136Y-90106324I-240000J0D01*
G01*
G37*
G36*
G01*
X162485136Y-87306324D02*
X161365136Y-87306324D01*
G75*
G02*
X161125136Y-87066324I0J240000D01*
G01*
X161125136Y-86346324D01*
G75*
G02*
X161365136Y-86106324I240000J0D01*
G01*
X162485136Y-86106324D01*
G75*
G02*
X162725136Y-86346324I0J-240000D01*
G01*
X162725136Y-87066324D01*
G75*
G02*
X162485136Y-87306324I-240000J0D01*
G01*
G37*
%TD*%
%TO.C,D39*%
G36*
G01*
X157722632Y-71056308D02*
X156602632Y-71056308D01*
G75*
G02*
X156362632Y-70816308I0J240000D01*
G01*
X156362632Y-70096308D01*
G75*
G02*
X156602632Y-69856308I240000J0D01*
G01*
X157722632Y-69856308D01*
G75*
G02*
X157962632Y-70096308I0J-240000D01*
G01*
X157962632Y-70816308D01*
G75*
G02*
X157722632Y-71056308I-240000J0D01*
G01*
G37*
G36*
G01*
X157722632Y-68256308D02*
X156602632Y-68256308D01*
G75*
G02*
X156362632Y-68016308I0J240000D01*
G01*
X156362632Y-67296308D01*
G75*
G02*
X156602632Y-67056308I240000J0D01*
G01*
X157722632Y-67056308D01*
G75*
G02*
X157962632Y-67296308I0J-240000D01*
G01*
X157962632Y-68016308D01*
G75*
G02*
X157722632Y-68256308I-240000J0D01*
G01*
G37*
%TD*%
%TO.C,D38*%
G36*
G01*
X148197624Y-52006292D02*
X147077624Y-52006292D01*
G75*
G02*
X146837624Y-51766292I0J240000D01*
G01*
X146837624Y-51046292D01*
G75*
G02*
X147077624Y-50806292I240000J0D01*
G01*
X148197624Y-50806292D01*
G75*
G02*
X148437624Y-51046292I0J-240000D01*
G01*
X148437624Y-51766292D01*
G75*
G02*
X148197624Y-52006292I-240000J0D01*
G01*
G37*
G36*
G01*
X148197624Y-49206292D02*
X147077624Y-49206292D01*
G75*
G02*
X146837624Y-48966292I0J240000D01*
G01*
X146837624Y-48246292D01*
G75*
G02*
X147077624Y-48006292I240000J0D01*
G01*
X148197624Y-48006292D01*
G75*
G02*
X148437624Y-48246292I0J-240000D01*
G01*
X148437624Y-48966292D01*
G75*
G02*
X148197624Y-49206292I-240000J0D01*
G01*
G37*
%TD*%
%TO.C,D37*%
G36*
G01*
X157722500Y-28193750D02*
X156602500Y-28193750D01*
G75*
G02*
X156362500Y-27953750I0J240000D01*
G01*
X156362500Y-27233750D01*
G75*
G02*
X156602500Y-26993750I240000J0D01*
G01*
X157722500Y-26993750D01*
G75*
G02*
X157962500Y-27233750I0J-240000D01*
G01*
X157962500Y-27953750D01*
G75*
G02*
X157722500Y-28193750I-240000J0D01*
G01*
G37*
G36*
G01*
X157722500Y-25393750D02*
X156602500Y-25393750D01*
G75*
G02*
X156362500Y-25153750I0J240000D01*
G01*
X156362500Y-24433750D01*
G75*
G02*
X156602500Y-24193750I240000J0D01*
G01*
X157722500Y-24193750D01*
G75*
G02*
X157962500Y-24433750I0J-240000D01*
G01*
X157962500Y-25153750D01*
G75*
G02*
X157722500Y-25393750I-240000J0D01*
G01*
G37*
%TD*%
%TO.C,D35*%
G36*
G01*
X133910112Y-109156340D02*
X132790112Y-109156340D01*
G75*
G02*
X132550112Y-108916340I0J240000D01*
G01*
X132550112Y-108196340D01*
G75*
G02*
X132790112Y-107956340I240000J0D01*
G01*
X133910112Y-107956340D01*
G75*
G02*
X134150112Y-108196340I0J-240000D01*
G01*
X134150112Y-108916340D01*
G75*
G02*
X133910112Y-109156340I-240000J0D01*
G01*
G37*
G36*
G01*
X133910112Y-106356340D02*
X132790112Y-106356340D01*
G75*
G02*
X132550112Y-106116340I0J240000D01*
G01*
X132550112Y-105396340D01*
G75*
G02*
X132790112Y-105156340I240000J0D01*
G01*
X133910112Y-105156340D01*
G75*
G02*
X134150112Y-105396340I0J-240000D01*
G01*
X134150112Y-106116340D01*
G75*
G02*
X133910112Y-106356340I-240000J0D01*
G01*
G37*
%TD*%
%TO.C,D34*%
G36*
G01*
X143435120Y-90106324D02*
X142315120Y-90106324D01*
G75*
G02*
X142075120Y-89866324I0J240000D01*
G01*
X142075120Y-89146324D01*
G75*
G02*
X142315120Y-88906324I240000J0D01*
G01*
X143435120Y-88906324D01*
G75*
G02*
X143675120Y-89146324I0J-240000D01*
G01*
X143675120Y-89866324D01*
G75*
G02*
X143435120Y-90106324I-240000J0D01*
G01*
G37*
G36*
G01*
X143435120Y-87306324D02*
X142315120Y-87306324D01*
G75*
G02*
X142075120Y-87066324I0J240000D01*
G01*
X142075120Y-86346324D01*
G75*
G02*
X142315120Y-86106324I240000J0D01*
G01*
X143435120Y-86106324D01*
G75*
G02*
X143675120Y-86346324I0J-240000D01*
G01*
X143675120Y-87066324D01*
G75*
G02*
X143435120Y-87306324I-240000J0D01*
G01*
G37*
%TD*%
%TO.C,D33*%
G36*
G01*
X138672616Y-71056308D02*
X137552616Y-71056308D01*
G75*
G02*
X137312616Y-70816308I0J240000D01*
G01*
X137312616Y-70096308D01*
G75*
G02*
X137552616Y-69856308I240000J0D01*
G01*
X138672616Y-69856308D01*
G75*
G02*
X138912616Y-70096308I0J-240000D01*
G01*
X138912616Y-70816308D01*
G75*
G02*
X138672616Y-71056308I-240000J0D01*
G01*
G37*
G36*
G01*
X138672616Y-68256308D02*
X137552616Y-68256308D01*
G75*
G02*
X137312616Y-68016308I0J240000D01*
G01*
X137312616Y-67296308D01*
G75*
G02*
X137552616Y-67056308I240000J0D01*
G01*
X138672616Y-67056308D01*
G75*
G02*
X138912616Y-67296308I0J-240000D01*
G01*
X138912616Y-68016308D01*
G75*
G02*
X138672616Y-68256308I-240000J0D01*
G01*
G37*
%TD*%
%TO.C,D32*%
G36*
G01*
X129147608Y-52006292D02*
X128027608Y-52006292D01*
G75*
G02*
X127787608Y-51766292I0J240000D01*
G01*
X127787608Y-51046292D01*
G75*
G02*
X128027608Y-50806292I240000J0D01*
G01*
X129147608Y-50806292D01*
G75*
G02*
X129387608Y-51046292I0J-240000D01*
G01*
X129387608Y-51766292D01*
G75*
G02*
X129147608Y-52006292I-240000J0D01*
G01*
G37*
G36*
G01*
X129147608Y-49206292D02*
X128027608Y-49206292D01*
G75*
G02*
X127787608Y-48966292I0J240000D01*
G01*
X127787608Y-48246292D01*
G75*
G02*
X128027608Y-48006292I240000J0D01*
G01*
X129147608Y-48006292D01*
G75*
G02*
X129387608Y-48246292I0J-240000D01*
G01*
X129387608Y-48966292D01*
G75*
G02*
X129147608Y-49206292I-240000J0D01*
G01*
G37*
%TD*%
%TO.C,D31*%
G36*
G01*
X138672500Y-28193750D02*
X137552500Y-28193750D01*
G75*
G02*
X137312500Y-27953750I0J240000D01*
G01*
X137312500Y-27233750D01*
G75*
G02*
X137552500Y-26993750I240000J0D01*
G01*
X138672500Y-26993750D01*
G75*
G02*
X138912500Y-27233750I0J-240000D01*
G01*
X138912500Y-27953750D01*
G75*
G02*
X138672500Y-28193750I-240000J0D01*
G01*
G37*
G36*
G01*
X138672500Y-25393750D02*
X137552500Y-25393750D01*
G75*
G02*
X137312500Y-25153750I0J240000D01*
G01*
X137312500Y-24433750D01*
G75*
G02*
X137552500Y-24193750I240000J0D01*
G01*
X138672500Y-24193750D01*
G75*
G02*
X138912500Y-24433750I0J-240000D01*
G01*
X138912500Y-25153750D01*
G75*
G02*
X138672500Y-25393750I-240000J0D01*
G01*
G37*
%TD*%
%TO.C,D29*%
G36*
G01*
X114860096Y-109156340D02*
X113740096Y-109156340D01*
G75*
G02*
X113500096Y-108916340I0J240000D01*
G01*
X113500096Y-108196340D01*
G75*
G02*
X113740096Y-107956340I240000J0D01*
G01*
X114860096Y-107956340D01*
G75*
G02*
X115100096Y-108196340I0J-240000D01*
G01*
X115100096Y-108916340D01*
G75*
G02*
X114860096Y-109156340I-240000J0D01*
G01*
G37*
G36*
G01*
X114860096Y-106356340D02*
X113740096Y-106356340D01*
G75*
G02*
X113500096Y-106116340I0J240000D01*
G01*
X113500096Y-105396340D01*
G75*
G02*
X113740096Y-105156340I240000J0D01*
G01*
X114860096Y-105156340D01*
G75*
G02*
X115100096Y-105396340I0J-240000D01*
G01*
X115100096Y-106116340D01*
G75*
G02*
X114860096Y-106356340I-240000J0D01*
G01*
G37*
%TD*%
%TO.C,D28*%
G36*
G01*
X124385104Y-90106324D02*
X123265104Y-90106324D01*
G75*
G02*
X123025104Y-89866324I0J240000D01*
G01*
X123025104Y-89146324D01*
G75*
G02*
X123265104Y-88906324I240000J0D01*
G01*
X124385104Y-88906324D01*
G75*
G02*
X124625104Y-89146324I0J-240000D01*
G01*
X124625104Y-89866324D01*
G75*
G02*
X124385104Y-90106324I-240000J0D01*
G01*
G37*
G36*
G01*
X124385104Y-87306324D02*
X123265104Y-87306324D01*
G75*
G02*
X123025104Y-87066324I0J240000D01*
G01*
X123025104Y-86346324D01*
G75*
G02*
X123265104Y-86106324I240000J0D01*
G01*
X124385104Y-86106324D01*
G75*
G02*
X124625104Y-86346324I0J-240000D01*
G01*
X124625104Y-87066324D01*
G75*
G02*
X124385104Y-87306324I-240000J0D01*
G01*
G37*
%TD*%
%TO.C,D27*%
G36*
G01*
X119622600Y-71056308D02*
X118502600Y-71056308D01*
G75*
G02*
X118262600Y-70816308I0J240000D01*
G01*
X118262600Y-70096308D01*
G75*
G02*
X118502600Y-69856308I240000J0D01*
G01*
X119622600Y-69856308D01*
G75*
G02*
X119862600Y-70096308I0J-240000D01*
G01*
X119862600Y-70816308D01*
G75*
G02*
X119622600Y-71056308I-240000J0D01*
G01*
G37*
G36*
G01*
X119622600Y-68256308D02*
X118502600Y-68256308D01*
G75*
G02*
X118262600Y-68016308I0J240000D01*
G01*
X118262600Y-67296308D01*
G75*
G02*
X118502600Y-67056308I240000J0D01*
G01*
X119622600Y-67056308D01*
G75*
G02*
X119862600Y-67296308I0J-240000D01*
G01*
X119862600Y-68016308D01*
G75*
G02*
X119622600Y-68256308I-240000J0D01*
G01*
G37*
%TD*%
%TO.C,D26*%
G36*
G01*
X110097592Y-52006292D02*
X108977592Y-52006292D01*
G75*
G02*
X108737592Y-51766292I0J240000D01*
G01*
X108737592Y-51046292D01*
G75*
G02*
X108977592Y-50806292I240000J0D01*
G01*
X110097592Y-50806292D01*
G75*
G02*
X110337592Y-51046292I0J-240000D01*
G01*
X110337592Y-51766292D01*
G75*
G02*
X110097592Y-52006292I-240000J0D01*
G01*
G37*
G36*
G01*
X110097592Y-49206292D02*
X108977592Y-49206292D01*
G75*
G02*
X108737592Y-48966292I0J240000D01*
G01*
X108737592Y-48246292D01*
G75*
G02*
X108977592Y-48006292I240000J0D01*
G01*
X110097592Y-48006292D01*
G75*
G02*
X110337592Y-48246292I0J-240000D01*
G01*
X110337592Y-48966292D01*
G75*
G02*
X110097592Y-49206292I-240000J0D01*
G01*
G37*
%TD*%
%TO.C,D25*%
G36*
G01*
X114860000Y-28193750D02*
X113740000Y-28193750D01*
G75*
G02*
X113500000Y-27953750I0J240000D01*
G01*
X113500000Y-27233750D01*
G75*
G02*
X113740000Y-26993750I240000J0D01*
G01*
X114860000Y-26993750D01*
G75*
G02*
X115100000Y-27233750I0J-240000D01*
G01*
X115100000Y-27953750D01*
G75*
G02*
X114860000Y-28193750I-240000J0D01*
G01*
G37*
G36*
G01*
X114860000Y-25393750D02*
X113740000Y-25393750D01*
G75*
G02*
X113500000Y-25153750I0J240000D01*
G01*
X113500000Y-24433750D01*
G75*
G02*
X113740000Y-24193750I240000J0D01*
G01*
X114860000Y-24193750D01*
G75*
G02*
X115100000Y-24433750I0J-240000D01*
G01*
X115100000Y-25153750D01*
G75*
G02*
X114860000Y-25393750I-240000J0D01*
G01*
G37*
%TD*%
%TO.C,D23*%
G36*
G01*
X95810080Y-109156340D02*
X94690080Y-109156340D01*
G75*
G02*
X94450080Y-108916340I0J240000D01*
G01*
X94450080Y-108196340D01*
G75*
G02*
X94690080Y-107956340I240000J0D01*
G01*
X95810080Y-107956340D01*
G75*
G02*
X96050080Y-108196340I0J-240000D01*
G01*
X96050080Y-108916340D01*
G75*
G02*
X95810080Y-109156340I-240000J0D01*
G01*
G37*
G36*
G01*
X95810080Y-106356340D02*
X94690080Y-106356340D01*
G75*
G02*
X94450080Y-106116340I0J240000D01*
G01*
X94450080Y-105396340D01*
G75*
G02*
X94690080Y-105156340I240000J0D01*
G01*
X95810080Y-105156340D01*
G75*
G02*
X96050080Y-105396340I0J-240000D01*
G01*
X96050080Y-106116340D01*
G75*
G02*
X95810080Y-106356340I-240000J0D01*
G01*
G37*
%TD*%
%TO.C,D22*%
G36*
G01*
X105335088Y-90106324D02*
X104215088Y-90106324D01*
G75*
G02*
X103975088Y-89866324I0J240000D01*
G01*
X103975088Y-89146324D01*
G75*
G02*
X104215088Y-88906324I240000J0D01*
G01*
X105335088Y-88906324D01*
G75*
G02*
X105575088Y-89146324I0J-240000D01*
G01*
X105575088Y-89866324D01*
G75*
G02*
X105335088Y-90106324I-240000J0D01*
G01*
G37*
G36*
G01*
X105335088Y-87306324D02*
X104215088Y-87306324D01*
G75*
G02*
X103975088Y-87066324I0J240000D01*
G01*
X103975088Y-86346324D01*
G75*
G02*
X104215088Y-86106324I240000J0D01*
G01*
X105335088Y-86106324D01*
G75*
G02*
X105575088Y-86346324I0J-240000D01*
G01*
X105575088Y-87066324D01*
G75*
G02*
X105335088Y-87306324I-240000J0D01*
G01*
G37*
%TD*%
%TO.C,D21*%
G36*
G01*
X100572584Y-71056308D02*
X99452584Y-71056308D01*
G75*
G02*
X99212584Y-70816308I0J240000D01*
G01*
X99212584Y-70096308D01*
G75*
G02*
X99452584Y-69856308I240000J0D01*
G01*
X100572584Y-69856308D01*
G75*
G02*
X100812584Y-70096308I0J-240000D01*
G01*
X100812584Y-70816308D01*
G75*
G02*
X100572584Y-71056308I-240000J0D01*
G01*
G37*
G36*
G01*
X100572584Y-68256308D02*
X99452584Y-68256308D01*
G75*
G02*
X99212584Y-68016308I0J240000D01*
G01*
X99212584Y-67296308D01*
G75*
G02*
X99452584Y-67056308I240000J0D01*
G01*
X100572584Y-67056308D01*
G75*
G02*
X100812584Y-67296308I0J-240000D01*
G01*
X100812584Y-68016308D01*
G75*
G02*
X100572584Y-68256308I-240000J0D01*
G01*
G37*
%TD*%
%TO.C,D20*%
G36*
G01*
X91047576Y-52006292D02*
X89927576Y-52006292D01*
G75*
G02*
X89687576Y-51766292I0J240000D01*
G01*
X89687576Y-51046292D01*
G75*
G02*
X89927576Y-50806292I240000J0D01*
G01*
X91047576Y-50806292D01*
G75*
G02*
X91287576Y-51046292I0J-240000D01*
G01*
X91287576Y-51766292D01*
G75*
G02*
X91047576Y-52006292I-240000J0D01*
G01*
G37*
G36*
G01*
X91047576Y-49206292D02*
X89927576Y-49206292D01*
G75*
G02*
X89687576Y-48966292I0J240000D01*
G01*
X89687576Y-48246292D01*
G75*
G02*
X89927576Y-48006292I240000J0D01*
G01*
X91047576Y-48006292D01*
G75*
G02*
X91287576Y-48246292I0J-240000D01*
G01*
X91287576Y-48966292D01*
G75*
G02*
X91047576Y-49206292I-240000J0D01*
G01*
G37*
%TD*%
%TO.C,D19*%
G36*
G01*
X95810000Y-28193750D02*
X94690000Y-28193750D01*
G75*
G02*
X94450000Y-27953750I0J240000D01*
G01*
X94450000Y-27233750D01*
G75*
G02*
X94690000Y-26993750I240000J0D01*
G01*
X95810000Y-26993750D01*
G75*
G02*
X96050000Y-27233750I0J-240000D01*
G01*
X96050000Y-27953750D01*
G75*
G02*
X95810000Y-28193750I-240000J0D01*
G01*
G37*
G36*
G01*
X95810000Y-25393750D02*
X94690000Y-25393750D01*
G75*
G02*
X94450000Y-25153750I0J240000D01*
G01*
X94450000Y-24433750D01*
G75*
G02*
X94690000Y-24193750I240000J0D01*
G01*
X95810000Y-24193750D01*
G75*
G02*
X96050000Y-24433750I0J-240000D01*
G01*
X96050000Y-25153750D01*
G75*
G02*
X95810000Y-25393750I-240000J0D01*
G01*
G37*
%TD*%
%TO.C,D18*%
G36*
G01*
X66044430Y-128206356D02*
X64924430Y-128206356D01*
G75*
G02*
X64684430Y-127966356I0J240000D01*
G01*
X64684430Y-127246356D01*
G75*
G02*
X64924430Y-127006356I240000J0D01*
G01*
X66044430Y-127006356D01*
G75*
G02*
X66284430Y-127246356I0J-240000D01*
G01*
X66284430Y-127966356D01*
G75*
G02*
X66044430Y-128206356I-240000J0D01*
G01*
G37*
G36*
G01*
X66044430Y-125406356D02*
X64924430Y-125406356D01*
G75*
G02*
X64684430Y-125166356I0J240000D01*
G01*
X64684430Y-124446356D01*
G75*
G02*
X64924430Y-124206356I240000J0D01*
G01*
X66044430Y-124206356D01*
G75*
G02*
X66284430Y-124446356I0J-240000D01*
G01*
X66284430Y-125166356D01*
G75*
G02*
X66044430Y-125406356I-240000J0D01*
G01*
G37*
%TD*%
%TO.C,D17*%
G36*
G01*
X76760064Y-109156340D02*
X75640064Y-109156340D01*
G75*
G02*
X75400064Y-108916340I0J240000D01*
G01*
X75400064Y-108196340D01*
G75*
G02*
X75640064Y-107956340I240000J0D01*
G01*
X76760064Y-107956340D01*
G75*
G02*
X77000064Y-108196340I0J-240000D01*
G01*
X77000064Y-108916340D01*
G75*
G02*
X76760064Y-109156340I-240000J0D01*
G01*
G37*
G36*
G01*
X76760064Y-106356340D02*
X75640064Y-106356340D01*
G75*
G02*
X75400064Y-106116340I0J240000D01*
G01*
X75400064Y-105396340D01*
G75*
G02*
X75640064Y-105156340I240000J0D01*
G01*
X76760064Y-105156340D01*
G75*
G02*
X77000064Y-105396340I0J-240000D01*
G01*
X77000064Y-106116340D01*
G75*
G02*
X76760064Y-106356340I-240000J0D01*
G01*
G37*
%TD*%
%TO.C,D16*%
G36*
G01*
X86285072Y-90106324D02*
X85165072Y-90106324D01*
G75*
G02*
X84925072Y-89866324I0J240000D01*
G01*
X84925072Y-89146324D01*
G75*
G02*
X85165072Y-88906324I240000J0D01*
G01*
X86285072Y-88906324D01*
G75*
G02*
X86525072Y-89146324I0J-240000D01*
G01*
X86525072Y-89866324D01*
G75*
G02*
X86285072Y-90106324I-240000J0D01*
G01*
G37*
G36*
G01*
X86285072Y-87306324D02*
X85165072Y-87306324D01*
G75*
G02*
X84925072Y-87066324I0J240000D01*
G01*
X84925072Y-86346324D01*
G75*
G02*
X85165072Y-86106324I240000J0D01*
G01*
X86285072Y-86106324D01*
G75*
G02*
X86525072Y-86346324I0J-240000D01*
G01*
X86525072Y-87066324D01*
G75*
G02*
X86285072Y-87306324I-240000J0D01*
G01*
G37*
%TD*%
%TO.C,D15*%
G36*
G01*
X81522568Y-71056308D02*
X80402568Y-71056308D01*
G75*
G02*
X80162568Y-70816308I0J240000D01*
G01*
X80162568Y-70096308D01*
G75*
G02*
X80402568Y-69856308I240000J0D01*
G01*
X81522568Y-69856308D01*
G75*
G02*
X81762568Y-70096308I0J-240000D01*
G01*
X81762568Y-70816308D01*
G75*
G02*
X81522568Y-71056308I-240000J0D01*
G01*
G37*
G36*
G01*
X81522568Y-68256308D02*
X80402568Y-68256308D01*
G75*
G02*
X80162568Y-68016308I0J240000D01*
G01*
X80162568Y-67296308D01*
G75*
G02*
X80402568Y-67056308I240000J0D01*
G01*
X81522568Y-67056308D01*
G75*
G02*
X81762568Y-67296308I0J-240000D01*
G01*
X81762568Y-68016308D01*
G75*
G02*
X81522568Y-68256308I-240000J0D01*
G01*
G37*
%TD*%
%TO.C,D14*%
G36*
G01*
X71997560Y-52006292D02*
X70877560Y-52006292D01*
G75*
G02*
X70637560Y-51766292I0J240000D01*
G01*
X70637560Y-51046292D01*
G75*
G02*
X70877560Y-50806292I240000J0D01*
G01*
X71997560Y-50806292D01*
G75*
G02*
X72237560Y-51046292I0J-240000D01*
G01*
X72237560Y-51766292D01*
G75*
G02*
X71997560Y-52006292I-240000J0D01*
G01*
G37*
G36*
G01*
X71997560Y-49206292D02*
X70877560Y-49206292D01*
G75*
G02*
X70637560Y-48966292I0J240000D01*
G01*
X70637560Y-48246292D01*
G75*
G02*
X70877560Y-48006292I240000J0D01*
G01*
X71997560Y-48006292D01*
G75*
G02*
X72237560Y-48246292I0J-240000D01*
G01*
X72237560Y-48966292D01*
G75*
G02*
X71997560Y-49206292I-240000J0D01*
G01*
G37*
%TD*%
%TO.C,D13*%
G36*
G01*
X76760000Y-28193750D02*
X75640000Y-28193750D01*
G75*
G02*
X75400000Y-27953750I0J240000D01*
G01*
X75400000Y-27233750D01*
G75*
G02*
X75640000Y-26993750I240000J0D01*
G01*
X76760000Y-26993750D01*
G75*
G02*
X77000000Y-27233750I0J-240000D01*
G01*
X77000000Y-27953750D01*
G75*
G02*
X76760000Y-28193750I-240000J0D01*
G01*
G37*
G36*
G01*
X76760000Y-25393750D02*
X75640000Y-25393750D01*
G75*
G02*
X75400000Y-25153750I0J240000D01*
G01*
X75400000Y-24433750D01*
G75*
G02*
X75640000Y-24193750I240000J0D01*
G01*
X76760000Y-24193750D01*
G75*
G02*
X77000000Y-24433750I0J-240000D01*
G01*
X77000000Y-25153750D01*
G75*
G02*
X76760000Y-25393750I-240000J0D01*
G01*
G37*
%TD*%
%TO.C,D12*%
G36*
G01*
X63663178Y-128206356D02*
X62543178Y-128206356D01*
G75*
G02*
X62303178Y-127966356I0J240000D01*
G01*
X62303178Y-127246356D01*
G75*
G02*
X62543178Y-127006356I240000J0D01*
G01*
X63663178Y-127006356D01*
G75*
G02*
X63903178Y-127246356I0J-240000D01*
G01*
X63903178Y-127966356D01*
G75*
G02*
X63663178Y-128206356I-240000J0D01*
G01*
G37*
G36*
G01*
X63663178Y-125406356D02*
X62543178Y-125406356D01*
G75*
G02*
X62303178Y-125166356I0J240000D01*
G01*
X62303178Y-124446356D01*
G75*
G02*
X62543178Y-124206356I240000J0D01*
G01*
X63663178Y-124206356D01*
G75*
G02*
X63903178Y-124446356I0J-240000D01*
G01*
X63903178Y-125166356D01*
G75*
G02*
X63663178Y-125406356I-240000J0D01*
G01*
G37*
%TD*%
%TO.C,D11*%
G36*
G01*
X58900674Y-109156340D02*
X57780674Y-109156340D01*
G75*
G02*
X57540674Y-108916340I0J240000D01*
G01*
X57540674Y-108196340D01*
G75*
G02*
X57780674Y-107956340I240000J0D01*
G01*
X58900674Y-107956340D01*
G75*
G02*
X59140674Y-108196340I0J-240000D01*
G01*
X59140674Y-108916340D01*
G75*
G02*
X58900674Y-109156340I-240000J0D01*
G01*
G37*
G36*
G01*
X58900674Y-106356340D02*
X57780674Y-106356340D01*
G75*
G02*
X57540674Y-106116340I0J240000D01*
G01*
X57540674Y-105396340D01*
G75*
G02*
X57780674Y-105156340I240000J0D01*
G01*
X58900674Y-105156340D01*
G75*
G02*
X59140674Y-105396340I0J-240000D01*
G01*
X59140674Y-106116340D01*
G75*
G02*
X58900674Y-106356340I-240000J0D01*
G01*
G37*
%TD*%
%TO.C,D10*%
G36*
G01*
X67235056Y-90106324D02*
X66115056Y-90106324D01*
G75*
G02*
X65875056Y-89866324I0J240000D01*
G01*
X65875056Y-89146324D01*
G75*
G02*
X66115056Y-88906324I240000J0D01*
G01*
X67235056Y-88906324D01*
G75*
G02*
X67475056Y-89146324I0J-240000D01*
G01*
X67475056Y-89866324D01*
G75*
G02*
X67235056Y-90106324I-240000J0D01*
G01*
G37*
G36*
G01*
X67235056Y-87306324D02*
X66115056Y-87306324D01*
G75*
G02*
X65875056Y-87066324I0J240000D01*
G01*
X65875056Y-86346324D01*
G75*
G02*
X66115056Y-86106324I240000J0D01*
G01*
X67235056Y-86106324D01*
G75*
G02*
X67475056Y-86346324I0J-240000D01*
G01*
X67475056Y-87066324D01*
G75*
G02*
X67235056Y-87306324I-240000J0D01*
G01*
G37*
%TD*%
%TO.C,D9*%
G36*
G01*
X62472552Y-71056308D02*
X61352552Y-71056308D01*
G75*
G02*
X61112552Y-70816308I0J240000D01*
G01*
X61112552Y-70096308D01*
G75*
G02*
X61352552Y-69856308I240000J0D01*
G01*
X62472552Y-69856308D01*
G75*
G02*
X62712552Y-70096308I0J-240000D01*
G01*
X62712552Y-70816308D01*
G75*
G02*
X62472552Y-71056308I-240000J0D01*
G01*
G37*
G36*
G01*
X62472552Y-68256308D02*
X61352552Y-68256308D01*
G75*
G02*
X61112552Y-68016308I0J240000D01*
G01*
X61112552Y-67296308D01*
G75*
G02*
X61352552Y-67056308I240000J0D01*
G01*
X62472552Y-67056308D01*
G75*
G02*
X62712552Y-67296308I0J-240000D01*
G01*
X62712552Y-68016308D01*
G75*
G02*
X62472552Y-68256308I-240000J0D01*
G01*
G37*
%TD*%
%TO.C,D8*%
G36*
G01*
X52947544Y-52006292D02*
X51827544Y-52006292D01*
G75*
G02*
X51587544Y-51766292I0J240000D01*
G01*
X51587544Y-51046292D01*
G75*
G02*
X51827544Y-50806292I240000J0D01*
G01*
X52947544Y-50806292D01*
G75*
G02*
X53187544Y-51046292I0J-240000D01*
G01*
X53187544Y-51766292D01*
G75*
G02*
X52947544Y-52006292I-240000J0D01*
G01*
G37*
G36*
G01*
X52947544Y-49206292D02*
X51827544Y-49206292D01*
G75*
G02*
X51587544Y-48966292I0J240000D01*
G01*
X51587544Y-48246292D01*
G75*
G02*
X51827544Y-48006292I240000J0D01*
G01*
X52947544Y-48006292D01*
G75*
G02*
X53187544Y-48246292I0J-240000D01*
G01*
X53187544Y-48966292D01*
G75*
G02*
X52947544Y-49206292I-240000J0D01*
G01*
G37*
%TD*%
%TO.C,D7*%
G36*
G01*
X57710000Y-28193750D02*
X56590000Y-28193750D01*
G75*
G02*
X56350000Y-27953750I0J240000D01*
G01*
X56350000Y-27233750D01*
G75*
G02*
X56590000Y-26993750I240000J0D01*
G01*
X57710000Y-26993750D01*
G75*
G02*
X57950000Y-27233750I0J-240000D01*
G01*
X57950000Y-27953750D01*
G75*
G02*
X57710000Y-28193750I-240000J0D01*
G01*
G37*
G36*
G01*
X57710000Y-25393750D02*
X56590000Y-25393750D01*
G75*
G02*
X56350000Y-25153750I0J240000D01*
G01*
X56350000Y-24433750D01*
G75*
G02*
X56590000Y-24193750I240000J0D01*
G01*
X57710000Y-24193750D01*
G75*
G02*
X57950000Y-24433750I0J-240000D01*
G01*
X57950000Y-25153750D01*
G75*
G02*
X57710000Y-25393750I-240000J0D01*
G01*
G37*
%TD*%
%TO.C,D6*%
G36*
G01*
X43422536Y-128206356D02*
X42302536Y-128206356D01*
G75*
G02*
X42062536Y-127966356I0J240000D01*
G01*
X42062536Y-127246356D01*
G75*
G02*
X42302536Y-127006356I240000J0D01*
G01*
X43422536Y-127006356D01*
G75*
G02*
X43662536Y-127246356I0J-240000D01*
G01*
X43662536Y-127966356D01*
G75*
G02*
X43422536Y-128206356I-240000J0D01*
G01*
G37*
G36*
G01*
X43422536Y-125406356D02*
X42302536Y-125406356D01*
G75*
G02*
X42062536Y-125166356I0J240000D01*
G01*
X42062536Y-124446356D01*
G75*
G02*
X42302536Y-124206356I240000J0D01*
G01*
X43422536Y-124206356D01*
G75*
G02*
X43662536Y-124446356I0J-240000D01*
G01*
X43662536Y-125166356D01*
G75*
G02*
X43422536Y-125406356I-240000J0D01*
G01*
G37*
%TD*%
%TO.C,D5*%
G36*
G01*
X56519422Y-109156340D02*
X55399422Y-109156340D01*
G75*
G02*
X55159422Y-108916340I0J240000D01*
G01*
X55159422Y-108196340D01*
G75*
G02*
X55399422Y-107956340I240000J0D01*
G01*
X56519422Y-107956340D01*
G75*
G02*
X56759422Y-108196340I0J-240000D01*
G01*
X56759422Y-108916340D01*
G75*
G02*
X56519422Y-109156340I-240000J0D01*
G01*
G37*
G36*
G01*
X56519422Y-106356340D02*
X55399422Y-106356340D01*
G75*
G02*
X55159422Y-106116340I0J240000D01*
G01*
X55159422Y-105396340D01*
G75*
G02*
X55399422Y-105156340I240000J0D01*
G01*
X56519422Y-105156340D01*
G75*
G02*
X56759422Y-105396340I0J-240000D01*
G01*
X56759422Y-106116340D01*
G75*
G02*
X56519422Y-106356340I-240000J0D01*
G01*
G37*
%TD*%
%TO.C,D4*%
G36*
G01*
X43422536Y-90106324D02*
X42302536Y-90106324D01*
G75*
G02*
X42062536Y-89866324I0J240000D01*
G01*
X42062536Y-89146324D01*
G75*
G02*
X42302536Y-88906324I240000J0D01*
G01*
X43422536Y-88906324D01*
G75*
G02*
X43662536Y-89146324I0J-240000D01*
G01*
X43662536Y-89866324D01*
G75*
G02*
X43422536Y-90106324I-240000J0D01*
G01*
G37*
G36*
G01*
X43422536Y-87306324D02*
X42302536Y-87306324D01*
G75*
G02*
X42062536Y-87066324I0J240000D01*
G01*
X42062536Y-86346324D01*
G75*
G02*
X42302536Y-86106324I240000J0D01*
G01*
X43422536Y-86106324D01*
G75*
G02*
X43662536Y-86346324I0J-240000D01*
G01*
X43662536Y-87066324D01*
G75*
G02*
X43422536Y-87306324I-240000J0D01*
G01*
G37*
%TD*%
%TO.C,D3*%
G36*
G01*
X43422536Y-71056308D02*
X42302536Y-71056308D01*
G75*
G02*
X42062536Y-70816308I0J240000D01*
G01*
X42062536Y-70096308D01*
G75*
G02*
X42302536Y-69856308I240000J0D01*
G01*
X43422536Y-69856308D01*
G75*
G02*
X43662536Y-70096308I0J-240000D01*
G01*
X43662536Y-70816308D01*
G75*
G02*
X43422536Y-71056308I-240000J0D01*
G01*
G37*
G36*
G01*
X43422536Y-68256308D02*
X42302536Y-68256308D01*
G75*
G02*
X42062536Y-68016308I0J240000D01*
G01*
X42062536Y-67296308D01*
G75*
G02*
X42302536Y-67056308I240000J0D01*
G01*
X43422536Y-67056308D01*
G75*
G02*
X43662536Y-67296308I0J-240000D01*
G01*
X43662536Y-68016308D01*
G75*
G02*
X43422536Y-68256308I-240000J0D01*
G01*
G37*
%TD*%
%TO.C,D2*%
G36*
G01*
X33897528Y-52006292D02*
X32777528Y-52006292D01*
G75*
G02*
X32537528Y-51766292I0J240000D01*
G01*
X32537528Y-51046292D01*
G75*
G02*
X32777528Y-50806292I240000J0D01*
G01*
X33897528Y-50806292D01*
G75*
G02*
X34137528Y-51046292I0J-240000D01*
G01*
X34137528Y-51766292D01*
G75*
G02*
X33897528Y-52006292I-240000J0D01*
G01*
G37*
G36*
G01*
X33897528Y-49206292D02*
X32777528Y-49206292D01*
G75*
G02*
X32537528Y-48966292I0J240000D01*
G01*
X32537528Y-48246292D01*
G75*
G02*
X32777528Y-48006292I240000J0D01*
G01*
X33897528Y-48006292D01*
G75*
G02*
X34137528Y-48246292I0J-240000D01*
G01*
X34137528Y-48966292D01*
G75*
G02*
X33897528Y-49206292I-240000J0D01*
G01*
G37*
%TD*%
%TO.C,D1*%
G36*
G01*
X33897500Y-28193750D02*
X32777500Y-28193750D01*
G75*
G02*
X32537500Y-27953750I0J240000D01*
G01*
X32537500Y-27233750D01*
G75*
G02*
X32777500Y-26993750I240000J0D01*
G01*
X33897500Y-26993750D01*
G75*
G02*
X34137500Y-27233750I0J-240000D01*
G01*
X34137500Y-27953750D01*
G75*
G02*
X33897500Y-28193750I-240000J0D01*
G01*
G37*
G36*
G01*
X33897500Y-25393750D02*
X32777500Y-25393750D01*
G75*
G02*
X32537500Y-25153750I0J240000D01*
G01*
X32537500Y-24433750D01*
G75*
G02*
X32777500Y-24193750I240000J0D01*
G01*
X33897500Y-24193750D01*
G75*
G02*
X34137500Y-24433750I0J-240000D01*
G01*
X34137500Y-25153750D01*
G75*
G02*
X33897500Y-25393750I-240000J0D01*
G01*
G37*
%TD*%
D13*
%TO.C,MX66*%
X35718750Y-104775000D03*
D12*
X38258750Y-99695000D03*
D11*
X30638750Y-104775000D03*
X40798750Y-104775000D03*
D12*
X31908750Y-102235000D03*
D21*
X23812500Y-97790000D03*
X47625000Y-97790000D03*
D13*
X23812500Y-113030000D03*
X47625000Y-113030000D03*
%TD*%
%TO.C,MX61*%
X273843750Y-104775000D03*
D12*
X276383750Y-99695000D03*
D11*
X268763750Y-104775000D03*
X278923750Y-104775000D03*
D12*
X270033750Y-102235000D03*
D21*
X261937500Y-97790000D03*
X285750000Y-97790000D03*
D13*
X261937500Y-113030000D03*
X285750000Y-113030000D03*
%TD*%
%TO.C,MX51*%
X280987500Y-47625000D03*
D12*
X283527500Y-42545000D03*
D11*
X275907500Y-47625000D03*
X286067500Y-47625000D03*
D12*
X277177500Y-45085000D03*
D21*
X269081250Y-40640000D03*
X292893750Y-40640000D03*
D13*
X269081250Y-55880000D03*
X292893750Y-55880000D03*
%TD*%
D22*
%TO.C,Y1*%
X325545585Y-89042263D03*
X323345585Y-89042263D03*
X323345585Y-90742263D03*
X325545585Y-90742263D03*
%TD*%
D23*
%TO.C,U2*%
X312390264Y-90537263D03*
G36*
G01*
X308577764Y-87912263D02*
X309327764Y-87912263D01*
G75*
G02*
X309390264Y-87974763I0J-62500D01*
G01*
X309390264Y-88099763D01*
G75*
G02*
X309327764Y-88162263I-62500J0D01*
G01*
X308577764Y-88162263D01*
G75*
G02*
X308515264Y-88099763I0J62500D01*
G01*
X308515264Y-87974763D01*
G75*
G02*
X308577764Y-87912263I62500J0D01*
G01*
G37*
G36*
G01*
X308577764Y-88412263D02*
X309327764Y-88412263D01*
G75*
G02*
X309390264Y-88474763I0J-62500D01*
G01*
X309390264Y-88599763D01*
G75*
G02*
X309327764Y-88662263I-62500J0D01*
G01*
X308577764Y-88662263D01*
G75*
G02*
X308515264Y-88599763I0J62500D01*
G01*
X308515264Y-88474763D01*
G75*
G02*
X308577764Y-88412263I62500J0D01*
G01*
G37*
G36*
G01*
X308577764Y-88912263D02*
X309327764Y-88912263D01*
G75*
G02*
X309390264Y-88974763I0J-62500D01*
G01*
X309390264Y-89099763D01*
G75*
G02*
X309327764Y-89162263I-62500J0D01*
G01*
X308577764Y-89162263D01*
G75*
G02*
X308515264Y-89099763I0J62500D01*
G01*
X308515264Y-88974763D01*
G75*
G02*
X308577764Y-88912263I62500J0D01*
G01*
G37*
G36*
G01*
X308577764Y-89412263D02*
X309327764Y-89412263D01*
G75*
G02*
X309390264Y-89474763I0J-62500D01*
G01*
X309390264Y-89599763D01*
G75*
G02*
X309327764Y-89662263I-62500J0D01*
G01*
X308577764Y-89662263D01*
G75*
G02*
X308515264Y-89599763I0J62500D01*
G01*
X308515264Y-89474763D01*
G75*
G02*
X308577764Y-89412263I62500J0D01*
G01*
G37*
G36*
G01*
X308577764Y-89912263D02*
X309327764Y-89912263D01*
G75*
G02*
X309390264Y-89974763I0J-62500D01*
G01*
X309390264Y-90099763D01*
G75*
G02*
X309327764Y-90162263I-62500J0D01*
G01*
X308577764Y-90162263D01*
G75*
G02*
X308515264Y-90099763I0J62500D01*
G01*
X308515264Y-89974763D01*
G75*
G02*
X308577764Y-89912263I62500J0D01*
G01*
G37*
G36*
G01*
X308577764Y-90412263D02*
X309327764Y-90412263D01*
G75*
G02*
X309390264Y-90474763I0J-62500D01*
G01*
X309390264Y-90599763D01*
G75*
G02*
X309327764Y-90662263I-62500J0D01*
G01*
X308577764Y-90662263D01*
G75*
G02*
X308515264Y-90599763I0J62500D01*
G01*
X308515264Y-90474763D01*
G75*
G02*
X308577764Y-90412263I62500J0D01*
G01*
G37*
G36*
G01*
X308577764Y-90912263D02*
X309327764Y-90912263D01*
G75*
G02*
X309390264Y-90974763I0J-62500D01*
G01*
X309390264Y-91099763D01*
G75*
G02*
X309327764Y-91162263I-62500J0D01*
G01*
X308577764Y-91162263D01*
G75*
G02*
X308515264Y-91099763I0J62500D01*
G01*
X308515264Y-90974763D01*
G75*
G02*
X308577764Y-90912263I62500J0D01*
G01*
G37*
G36*
G01*
X308577764Y-91412263D02*
X309327764Y-91412263D01*
G75*
G02*
X309390264Y-91474763I0J-62500D01*
G01*
X309390264Y-91599763D01*
G75*
G02*
X309327764Y-91662263I-62500J0D01*
G01*
X308577764Y-91662263D01*
G75*
G02*
X308515264Y-91599763I0J62500D01*
G01*
X308515264Y-91474763D01*
G75*
G02*
X308577764Y-91412263I62500J0D01*
G01*
G37*
G36*
G01*
X308577764Y-91912263D02*
X309327764Y-91912263D01*
G75*
G02*
X309390264Y-91974763I0J-62500D01*
G01*
X309390264Y-92099763D01*
G75*
G02*
X309327764Y-92162263I-62500J0D01*
G01*
X308577764Y-92162263D01*
G75*
G02*
X308515264Y-92099763I0J62500D01*
G01*
X308515264Y-91974763D01*
G75*
G02*
X308577764Y-91912263I62500J0D01*
G01*
G37*
G36*
G01*
X308577764Y-92412263D02*
X309327764Y-92412263D01*
G75*
G02*
X309390264Y-92474763I0J-62500D01*
G01*
X309390264Y-92599763D01*
G75*
G02*
X309327764Y-92662263I-62500J0D01*
G01*
X308577764Y-92662263D01*
G75*
G02*
X308515264Y-92599763I0J62500D01*
G01*
X308515264Y-92474763D01*
G75*
G02*
X308577764Y-92412263I62500J0D01*
G01*
G37*
G36*
G01*
X308577764Y-92912263D02*
X309327764Y-92912263D01*
G75*
G02*
X309390264Y-92974763I0J-62500D01*
G01*
X309390264Y-93099763D01*
G75*
G02*
X309327764Y-93162263I-62500J0D01*
G01*
X308577764Y-93162263D01*
G75*
G02*
X308515264Y-93099763I0J62500D01*
G01*
X308515264Y-92974763D01*
G75*
G02*
X308577764Y-92912263I62500J0D01*
G01*
G37*
G36*
G01*
X309827764Y-93537263D02*
X309952764Y-93537263D01*
G75*
G02*
X310015264Y-93599763I0J-62500D01*
G01*
X310015264Y-94349763D01*
G75*
G02*
X309952764Y-94412263I-62500J0D01*
G01*
X309827764Y-94412263D01*
G75*
G02*
X309765264Y-94349763I0J62500D01*
G01*
X309765264Y-93599763D01*
G75*
G02*
X309827764Y-93537263I62500J0D01*
G01*
G37*
G36*
G01*
X310327764Y-93537263D02*
X310452764Y-93537263D01*
G75*
G02*
X310515264Y-93599763I0J-62500D01*
G01*
X310515264Y-94349763D01*
G75*
G02*
X310452764Y-94412263I-62500J0D01*
G01*
X310327764Y-94412263D01*
G75*
G02*
X310265264Y-94349763I0J62500D01*
G01*
X310265264Y-93599763D01*
G75*
G02*
X310327764Y-93537263I62500J0D01*
G01*
G37*
G36*
G01*
X310827764Y-93537263D02*
X310952764Y-93537263D01*
G75*
G02*
X311015264Y-93599763I0J-62500D01*
G01*
X311015264Y-94349763D01*
G75*
G02*
X310952764Y-94412263I-62500J0D01*
G01*
X310827764Y-94412263D01*
G75*
G02*
X310765264Y-94349763I0J62500D01*
G01*
X310765264Y-93599763D01*
G75*
G02*
X310827764Y-93537263I62500J0D01*
G01*
G37*
G36*
G01*
X311327764Y-93537263D02*
X311452764Y-93537263D01*
G75*
G02*
X311515264Y-93599763I0J-62500D01*
G01*
X311515264Y-94349763D01*
G75*
G02*
X311452764Y-94412263I-62500J0D01*
G01*
X311327764Y-94412263D01*
G75*
G02*
X311265264Y-94349763I0J62500D01*
G01*
X311265264Y-93599763D01*
G75*
G02*
X311327764Y-93537263I62500J0D01*
G01*
G37*
G36*
G01*
X311827764Y-93537263D02*
X311952764Y-93537263D01*
G75*
G02*
X312015264Y-93599763I0J-62500D01*
G01*
X312015264Y-94349763D01*
G75*
G02*
X311952764Y-94412263I-62500J0D01*
G01*
X311827764Y-94412263D01*
G75*
G02*
X311765264Y-94349763I0J62500D01*
G01*
X311765264Y-93599763D01*
G75*
G02*
X311827764Y-93537263I62500J0D01*
G01*
G37*
G36*
G01*
X312327764Y-93537263D02*
X312452764Y-93537263D01*
G75*
G02*
X312515264Y-93599763I0J-62500D01*
G01*
X312515264Y-94349763D01*
G75*
G02*
X312452764Y-94412263I-62500J0D01*
G01*
X312327764Y-94412263D01*
G75*
G02*
X312265264Y-94349763I0J62500D01*
G01*
X312265264Y-93599763D01*
G75*
G02*
X312327764Y-93537263I62500J0D01*
G01*
G37*
G36*
G01*
X312827764Y-93537263D02*
X312952764Y-93537263D01*
G75*
G02*
X313015264Y-93599763I0J-62500D01*
G01*
X313015264Y-94349763D01*
G75*
G02*
X312952764Y-94412263I-62500J0D01*
G01*
X312827764Y-94412263D01*
G75*
G02*
X312765264Y-94349763I0J62500D01*
G01*
X312765264Y-93599763D01*
G75*
G02*
X312827764Y-93537263I62500J0D01*
G01*
G37*
G36*
G01*
X313327764Y-93537263D02*
X313452764Y-93537263D01*
G75*
G02*
X313515264Y-93599763I0J-62500D01*
G01*
X313515264Y-94349763D01*
G75*
G02*
X313452764Y-94412263I-62500J0D01*
G01*
X313327764Y-94412263D01*
G75*
G02*
X313265264Y-94349763I0J62500D01*
G01*
X313265264Y-93599763D01*
G75*
G02*
X313327764Y-93537263I62500J0D01*
G01*
G37*
G36*
G01*
X313827764Y-93537263D02*
X313952764Y-93537263D01*
G75*
G02*
X314015264Y-93599763I0J-62500D01*
G01*
X314015264Y-94349763D01*
G75*
G02*
X313952764Y-94412263I-62500J0D01*
G01*
X313827764Y-94412263D01*
G75*
G02*
X313765264Y-94349763I0J62500D01*
G01*
X313765264Y-93599763D01*
G75*
G02*
X313827764Y-93537263I62500J0D01*
G01*
G37*
G36*
G01*
X314327764Y-93537263D02*
X314452764Y-93537263D01*
G75*
G02*
X314515264Y-93599763I0J-62500D01*
G01*
X314515264Y-94349763D01*
G75*
G02*
X314452764Y-94412263I-62500J0D01*
G01*
X314327764Y-94412263D01*
G75*
G02*
X314265264Y-94349763I0J62500D01*
G01*
X314265264Y-93599763D01*
G75*
G02*
X314327764Y-93537263I62500J0D01*
G01*
G37*
G36*
G01*
X314827764Y-93537263D02*
X314952764Y-93537263D01*
G75*
G02*
X315015264Y-93599763I0J-62500D01*
G01*
X315015264Y-94349763D01*
G75*
G02*
X314952764Y-94412263I-62500J0D01*
G01*
X314827764Y-94412263D01*
G75*
G02*
X314765264Y-94349763I0J62500D01*
G01*
X314765264Y-93599763D01*
G75*
G02*
X314827764Y-93537263I62500J0D01*
G01*
G37*
G36*
G01*
X315452764Y-92912263D02*
X316202764Y-92912263D01*
G75*
G02*
X316265264Y-92974763I0J-62500D01*
G01*
X316265264Y-93099763D01*
G75*
G02*
X316202764Y-93162263I-62500J0D01*
G01*
X315452764Y-93162263D01*
G75*
G02*
X315390264Y-93099763I0J62500D01*
G01*
X315390264Y-92974763D01*
G75*
G02*
X315452764Y-92912263I62500J0D01*
G01*
G37*
G36*
G01*
X315452764Y-92412263D02*
X316202764Y-92412263D01*
G75*
G02*
X316265264Y-92474763I0J-62500D01*
G01*
X316265264Y-92599763D01*
G75*
G02*
X316202764Y-92662263I-62500J0D01*
G01*
X315452764Y-92662263D01*
G75*
G02*
X315390264Y-92599763I0J62500D01*
G01*
X315390264Y-92474763D01*
G75*
G02*
X315452764Y-92412263I62500J0D01*
G01*
G37*
G36*
G01*
X315452764Y-91912263D02*
X316202764Y-91912263D01*
G75*
G02*
X316265264Y-91974763I0J-62500D01*
G01*
X316265264Y-92099763D01*
G75*
G02*
X316202764Y-92162263I-62500J0D01*
G01*
X315452764Y-92162263D01*
G75*
G02*
X315390264Y-92099763I0J62500D01*
G01*
X315390264Y-91974763D01*
G75*
G02*
X315452764Y-91912263I62500J0D01*
G01*
G37*
G36*
G01*
X315452764Y-91412263D02*
X316202764Y-91412263D01*
G75*
G02*
X316265264Y-91474763I0J-62500D01*
G01*
X316265264Y-91599763D01*
G75*
G02*
X316202764Y-91662263I-62500J0D01*
G01*
X315452764Y-91662263D01*
G75*
G02*
X315390264Y-91599763I0J62500D01*
G01*
X315390264Y-91474763D01*
G75*
G02*
X315452764Y-91412263I62500J0D01*
G01*
G37*
G36*
G01*
X315452764Y-90912263D02*
X316202764Y-90912263D01*
G75*
G02*
X316265264Y-90974763I0J-62500D01*
G01*
X316265264Y-91099763D01*
G75*
G02*
X316202764Y-91162263I-62500J0D01*
G01*
X315452764Y-91162263D01*
G75*
G02*
X315390264Y-91099763I0J62500D01*
G01*
X315390264Y-90974763D01*
G75*
G02*
X315452764Y-90912263I62500J0D01*
G01*
G37*
G36*
G01*
X315452764Y-90412263D02*
X316202764Y-90412263D01*
G75*
G02*
X316265264Y-90474763I0J-62500D01*
G01*
X316265264Y-90599763D01*
G75*
G02*
X316202764Y-90662263I-62500J0D01*
G01*
X315452764Y-90662263D01*
G75*
G02*
X315390264Y-90599763I0J62500D01*
G01*
X315390264Y-90474763D01*
G75*
G02*
X315452764Y-90412263I62500J0D01*
G01*
G37*
G36*
G01*
X315452764Y-89912263D02*
X316202764Y-89912263D01*
G75*
G02*
X316265264Y-89974763I0J-62500D01*
G01*
X316265264Y-90099763D01*
G75*
G02*
X316202764Y-90162263I-62500J0D01*
G01*
X315452764Y-90162263D01*
G75*
G02*
X315390264Y-90099763I0J62500D01*
G01*
X315390264Y-89974763D01*
G75*
G02*
X315452764Y-89912263I62500J0D01*
G01*
G37*
G36*
G01*
X315452764Y-89412263D02*
X316202764Y-89412263D01*
G75*
G02*
X316265264Y-89474763I0J-62500D01*
G01*
X316265264Y-89599763D01*
G75*
G02*
X316202764Y-89662263I-62500J0D01*
G01*
X315452764Y-89662263D01*
G75*
G02*
X315390264Y-89599763I0J62500D01*
G01*
X315390264Y-89474763D01*
G75*
G02*
X315452764Y-89412263I62500J0D01*
G01*
G37*
G36*
G01*
X315452764Y-88912263D02*
X316202764Y-88912263D01*
G75*
G02*
X316265264Y-88974763I0J-62500D01*
G01*
X316265264Y-89099763D01*
G75*
G02*
X316202764Y-89162263I-62500J0D01*
G01*
X315452764Y-89162263D01*
G75*
G02*
X315390264Y-89099763I0J62500D01*
G01*
X315390264Y-88974763D01*
G75*
G02*
X315452764Y-88912263I62500J0D01*
G01*
G37*
G36*
G01*
X315452764Y-88412263D02*
X316202764Y-88412263D01*
G75*
G02*
X316265264Y-88474763I0J-62500D01*
G01*
X316265264Y-88599763D01*
G75*
G02*
X316202764Y-88662263I-62500J0D01*
G01*
X315452764Y-88662263D01*
G75*
G02*
X315390264Y-88599763I0J62500D01*
G01*
X315390264Y-88474763D01*
G75*
G02*
X315452764Y-88412263I62500J0D01*
G01*
G37*
G36*
G01*
X315452764Y-87912263D02*
X316202764Y-87912263D01*
G75*
G02*
X316265264Y-87974763I0J-62500D01*
G01*
X316265264Y-88099763D01*
G75*
G02*
X316202764Y-88162263I-62500J0D01*
G01*
X315452764Y-88162263D01*
G75*
G02*
X315390264Y-88099763I0J62500D01*
G01*
X315390264Y-87974763D01*
G75*
G02*
X315452764Y-87912263I62500J0D01*
G01*
G37*
G36*
G01*
X314827764Y-86662263D02*
X314952764Y-86662263D01*
G75*
G02*
X315015264Y-86724763I0J-62500D01*
G01*
X315015264Y-87474763D01*
G75*
G02*
X314952764Y-87537263I-62500J0D01*
G01*
X314827764Y-87537263D01*
G75*
G02*
X314765264Y-87474763I0J62500D01*
G01*
X314765264Y-86724763D01*
G75*
G02*
X314827764Y-86662263I62500J0D01*
G01*
G37*
G36*
G01*
X314327764Y-86662263D02*
X314452764Y-86662263D01*
G75*
G02*
X314515264Y-86724763I0J-62500D01*
G01*
X314515264Y-87474763D01*
G75*
G02*
X314452764Y-87537263I-62500J0D01*
G01*
X314327764Y-87537263D01*
G75*
G02*
X314265264Y-87474763I0J62500D01*
G01*
X314265264Y-86724763D01*
G75*
G02*
X314327764Y-86662263I62500J0D01*
G01*
G37*
G36*
G01*
X313827764Y-86662263D02*
X313952764Y-86662263D01*
G75*
G02*
X314015264Y-86724763I0J-62500D01*
G01*
X314015264Y-87474763D01*
G75*
G02*
X313952764Y-87537263I-62500J0D01*
G01*
X313827764Y-87537263D01*
G75*
G02*
X313765264Y-87474763I0J62500D01*
G01*
X313765264Y-86724763D01*
G75*
G02*
X313827764Y-86662263I62500J0D01*
G01*
G37*
G36*
G01*
X313327764Y-86662263D02*
X313452764Y-86662263D01*
G75*
G02*
X313515264Y-86724763I0J-62500D01*
G01*
X313515264Y-87474763D01*
G75*
G02*
X313452764Y-87537263I-62500J0D01*
G01*
X313327764Y-87537263D01*
G75*
G02*
X313265264Y-87474763I0J62500D01*
G01*
X313265264Y-86724763D01*
G75*
G02*
X313327764Y-86662263I62500J0D01*
G01*
G37*
G36*
G01*
X312827764Y-86662263D02*
X312952764Y-86662263D01*
G75*
G02*
X313015264Y-86724763I0J-62500D01*
G01*
X313015264Y-87474763D01*
G75*
G02*
X312952764Y-87537263I-62500J0D01*
G01*
X312827764Y-87537263D01*
G75*
G02*
X312765264Y-87474763I0J62500D01*
G01*
X312765264Y-86724763D01*
G75*
G02*
X312827764Y-86662263I62500J0D01*
G01*
G37*
G36*
G01*
X312327764Y-86662263D02*
X312452764Y-86662263D01*
G75*
G02*
X312515264Y-86724763I0J-62500D01*
G01*
X312515264Y-87474763D01*
G75*
G02*
X312452764Y-87537263I-62500J0D01*
G01*
X312327764Y-87537263D01*
G75*
G02*
X312265264Y-87474763I0J62500D01*
G01*
X312265264Y-86724763D01*
G75*
G02*
X312327764Y-86662263I62500J0D01*
G01*
G37*
G36*
G01*
X311827764Y-86662263D02*
X311952764Y-86662263D01*
G75*
G02*
X312015264Y-86724763I0J-62500D01*
G01*
X312015264Y-87474763D01*
G75*
G02*
X311952764Y-87537263I-62500J0D01*
G01*
X311827764Y-87537263D01*
G75*
G02*
X311765264Y-87474763I0J62500D01*
G01*
X311765264Y-86724763D01*
G75*
G02*
X311827764Y-86662263I62500J0D01*
G01*
G37*
G36*
G01*
X311327764Y-86662263D02*
X311452764Y-86662263D01*
G75*
G02*
X311515264Y-86724763I0J-62500D01*
G01*
X311515264Y-87474763D01*
G75*
G02*
X311452764Y-87537263I-62500J0D01*
G01*
X311327764Y-87537263D01*
G75*
G02*
X311265264Y-87474763I0J62500D01*
G01*
X311265264Y-86724763D01*
G75*
G02*
X311327764Y-86662263I62500J0D01*
G01*
G37*
G36*
G01*
X310827764Y-86662263D02*
X310952764Y-86662263D01*
G75*
G02*
X311015264Y-86724763I0J-62500D01*
G01*
X311015264Y-87474763D01*
G75*
G02*
X310952764Y-87537263I-62500J0D01*
G01*
X310827764Y-87537263D01*
G75*
G02*
X310765264Y-87474763I0J62500D01*
G01*
X310765264Y-86724763D01*
G75*
G02*
X310827764Y-86662263I62500J0D01*
G01*
G37*
G36*
G01*
X310327764Y-86662263D02*
X310452764Y-86662263D01*
G75*
G02*
X310515264Y-86724763I0J-62500D01*
G01*
X310515264Y-87474763D01*
G75*
G02*
X310452764Y-87537263I-62500J0D01*
G01*
X310327764Y-87537263D01*
G75*
G02*
X310265264Y-87474763I0J62500D01*
G01*
X310265264Y-86724763D01*
G75*
G02*
X310327764Y-86662263I62500J0D01*
G01*
G37*
G36*
G01*
X309827764Y-86662263D02*
X309952764Y-86662263D01*
G75*
G02*
X310015264Y-86724763I0J-62500D01*
G01*
X310015264Y-87474763D01*
G75*
G02*
X309952764Y-87537263I-62500J0D01*
G01*
X309827764Y-87537263D01*
G75*
G02*
X309765264Y-87474763I0J62500D01*
G01*
X309765264Y-86724763D01*
G75*
G02*
X309827764Y-86662263I62500J0D01*
G01*
G37*
%TD*%
D17*
%TO.C,R6*%
X305481508Y-95845393D03*
X307381508Y-95845393D03*
%TD*%
D24*
%TO.C,R5*%
X318492455Y-87270385D03*
X318492455Y-85370385D03*
%TD*%
%TO.C,R4*%
X309462760Y-81912568D03*
X309462760Y-80012568D03*
%TD*%
%TO.C,R3*%
X311348699Y-81912568D03*
X311348699Y-80012568D03*
%TD*%
D25*
%TO.C,J1*%
X302919004Y-48232849D03*
X303919004Y-48232849D03*
X301919004Y-48232849D03*
X300919004Y-48232849D03*
D26*
X299619004Y-44357849D03*
X305219004Y-44357849D03*
%TD*%
D27*
%TO.C,C7*%
X305671508Y-94059454D03*
X307171508Y-94059454D03*
%TD*%
D28*
%TO.C,C6*%
X313134638Y-81712568D03*
X313134638Y-80212568D03*
%TD*%
D27*
%TO.C,C5*%
X316265890Y-95845393D03*
X314765890Y-95845393D03*
%TD*%
%TO.C,C4*%
X318337768Y-88701637D03*
X319837768Y-88701637D03*
%TD*%
%TO.C,C3*%
X323695585Y-87411011D03*
X325195585Y-87411011D03*
%TD*%
D28*
%TO.C,C2*%
X327422150Y-90642263D03*
X327422150Y-89142263D03*
%TD*%
%TO.C,C1*%
X307181508Y-87665698D03*
X307181508Y-86165698D03*
%TD*%
D11*
%TO.C,MX15*%
X290830000Y-66675000D03*
D12*
X281940000Y-64135000D03*
D11*
X280670000Y-66675000D03*
D13*
X285750000Y-66675000D03*
D12*
X288290000Y-61595000D03*
%TD*%
D11*
%TO.C,MX105*%
X357505000Y-66675000D03*
D12*
X348615000Y-64135000D03*
D11*
X347345000Y-66675000D03*
D13*
X352425000Y-66675000D03*
D12*
X354965000Y-61595000D03*
%TD*%
D11*
%TO.C,MX93*%
X338455000Y-66675000D03*
D12*
X329565000Y-64135000D03*
D11*
X328295000Y-66675000D03*
D13*
X333375000Y-66675000D03*
D12*
X335915000Y-61595000D03*
%TD*%
D11*
%TO.C,MX88*%
X319405000Y-66675000D03*
D12*
X310515000Y-64135000D03*
D11*
X309245000Y-66675000D03*
D13*
X314325000Y-66675000D03*
D12*
X316865000Y-61595000D03*
%TD*%
D11*
%TO.C,MX46*%
X290830000Y-123825000D03*
D12*
X281940000Y-121285000D03*
D11*
X280670000Y-123825000D03*
D13*
X285750000Y-123825000D03*
D12*
X288290000Y-118745000D03*
%TD*%
D11*
%TO.C,MX41*%
X267017500Y-123825000D03*
D12*
X258127500Y-121285000D03*
D11*
X256857500Y-123825000D03*
D13*
X261937500Y-123825000D03*
D12*
X264477500Y-118745000D03*
%TD*%
D11*
%TO.C,MX36*%
X243205000Y-123825000D03*
D12*
X234315000Y-121285000D03*
D11*
X233045000Y-123825000D03*
D13*
X238125000Y-123825000D03*
D12*
X240665000Y-118745000D03*
%TD*%
D11*
%TO.C,MX31*%
X81280000Y-123825000D03*
D12*
X72390000Y-121285000D03*
D11*
X71120000Y-123825000D03*
D13*
X76200000Y-123825000D03*
D12*
X78740000Y-118745000D03*
%TD*%
D11*
%TO.C,MX21*%
X33655000Y-123825000D03*
D12*
X24765000Y-121285000D03*
D11*
X23495000Y-123825000D03*
D13*
X28575000Y-123825000D03*
D12*
X31115000Y-118745000D03*
%TD*%
D11*
%TO.C,MX80*%
X269398750Y-104775000D03*
D12*
X260508750Y-102235000D03*
D11*
X259238750Y-104775000D03*
D13*
X264318750Y-104775000D03*
D12*
X266858750Y-99695000D03*
%TD*%
D11*
%TO.C,MX102*%
X338455000Y-123825000D03*
D12*
X329565000Y-121285000D03*
D11*
X328295000Y-123825000D03*
D13*
X333375000Y-123825000D03*
D12*
X335915000Y-118745000D03*
%TD*%
D11*
%TO.C,MX96*%
X319405000Y-123825000D03*
D12*
X310515000Y-121285000D03*
D11*
X309245000Y-123825000D03*
D13*
X314325000Y-123825000D03*
D12*
X316865000Y-118745000D03*
%TD*%
D11*
%TO.C,MX26*%
X57467500Y-123825000D03*
D12*
X48577500Y-121285000D03*
D11*
X47307500Y-123825000D03*
D13*
X52387500Y-123825000D03*
D12*
X54927500Y-118745000D03*
%TD*%
D11*
%TO.C,MX20*%
X31273750Y-104775000D03*
D12*
X22383750Y-102235000D03*
D11*
X21113750Y-104775000D03*
D13*
X26193750Y-104775000D03*
D12*
X28733750Y-99695000D03*
%TD*%
D11*
%TO.C,MX101*%
X338455000Y-104775000D03*
D12*
X329565000Y-102235000D03*
D11*
X328295000Y-104775000D03*
D13*
X333375000Y-104775000D03*
D12*
X335915000Y-99695000D03*
%TD*%
D11*
%TO.C,MX85*%
X295592500Y-104775000D03*
D12*
X286702500Y-102235000D03*
D11*
X285432500Y-104775000D03*
D13*
X290512500Y-104775000D03*
D12*
X293052500Y-99695000D03*
%TD*%
D11*
%TO.C,MX75*%
X243205000Y-104775000D03*
D12*
X234315000Y-102235000D03*
D11*
X233045000Y-104775000D03*
D13*
X238125000Y-104775000D03*
D12*
X240665000Y-99695000D03*
%TD*%
D11*
%TO.C,MX70*%
X224155000Y-104775000D03*
D12*
X215265000Y-102235000D03*
D11*
X213995000Y-104775000D03*
D13*
X219075000Y-104775000D03*
D12*
X221615000Y-99695000D03*
%TD*%
D11*
%TO.C,MX65*%
X205105000Y-104775000D03*
D12*
X196215000Y-102235000D03*
D11*
X194945000Y-104775000D03*
D13*
X200025000Y-104775000D03*
D12*
X202565000Y-99695000D03*
%TD*%
D11*
%TO.C,MX60*%
X186055000Y-104775000D03*
D12*
X177165000Y-102235000D03*
D11*
X175895000Y-104775000D03*
D13*
X180975000Y-104775000D03*
D12*
X183515000Y-99695000D03*
%TD*%
D11*
%TO.C,MX55*%
X167005000Y-104775000D03*
D12*
X158115000Y-102235000D03*
D11*
X156845000Y-104775000D03*
D13*
X161925000Y-104775000D03*
D12*
X164465000Y-99695000D03*
%TD*%
D11*
%TO.C,MX50*%
X147955000Y-104775000D03*
D12*
X139065000Y-102235000D03*
D11*
X137795000Y-104775000D03*
D13*
X142875000Y-104775000D03*
D12*
X145415000Y-99695000D03*
%TD*%
D11*
%TO.C,MX45*%
X128905000Y-104775000D03*
D12*
X120015000Y-102235000D03*
D11*
X118745000Y-104775000D03*
D13*
X123825000Y-104775000D03*
D12*
X126365000Y-99695000D03*
%TD*%
D11*
%TO.C,MX40*%
X109855000Y-104775000D03*
D12*
X100965000Y-102235000D03*
D11*
X99695000Y-104775000D03*
D13*
X104775000Y-104775000D03*
D12*
X107315000Y-99695000D03*
%TD*%
D11*
%TO.C,MX35*%
X90805000Y-104775000D03*
D12*
X81915000Y-102235000D03*
D11*
X80645000Y-104775000D03*
D13*
X85725000Y-104775000D03*
D12*
X88265000Y-99695000D03*
%TD*%
D11*
%TO.C,MX30*%
X71755000Y-104775000D03*
D12*
X62865000Y-102235000D03*
D11*
X61595000Y-104775000D03*
D13*
X66675000Y-104775000D03*
D12*
X69215000Y-99695000D03*
%TD*%
D11*
%TO.C,MX25*%
X52705000Y-104775000D03*
D12*
X43815000Y-102235000D03*
D11*
X42545000Y-104775000D03*
D13*
X47625000Y-104775000D03*
D12*
X50165000Y-99695000D03*
%TD*%
D11*
%TO.C,MX19*%
X36036250Y-85725000D03*
D12*
X27146250Y-83185000D03*
D11*
X25876250Y-85725000D03*
D13*
X30956250Y-85725000D03*
D12*
X33496250Y-80645000D03*
%TD*%
D11*
%TO.C,MX74*%
X252730000Y-85725000D03*
D12*
X243840000Y-83185000D03*
D11*
X242570000Y-85725000D03*
D13*
X247650000Y-85725000D03*
D12*
X250190000Y-80645000D03*
%TD*%
D11*
%TO.C,MX69*%
X233680000Y-85725000D03*
D12*
X224790000Y-83185000D03*
D11*
X223520000Y-85725000D03*
D13*
X228600000Y-85725000D03*
D12*
X231140000Y-80645000D03*
%TD*%
D11*
%TO.C,MX64*%
X214630000Y-85725000D03*
D12*
X205740000Y-83185000D03*
D11*
X204470000Y-85725000D03*
D13*
X209550000Y-85725000D03*
D12*
X212090000Y-80645000D03*
%TD*%
D11*
%TO.C,MX59*%
X195580000Y-85725000D03*
D12*
X186690000Y-83185000D03*
D11*
X185420000Y-85725000D03*
D13*
X190500000Y-85725000D03*
D12*
X193040000Y-80645000D03*
%TD*%
D11*
%TO.C,MX54*%
X176530000Y-85725000D03*
D12*
X167640000Y-83185000D03*
D11*
X166370000Y-85725000D03*
D13*
X171450000Y-85725000D03*
D12*
X173990000Y-80645000D03*
%TD*%
D11*
%TO.C,MX49*%
X157480000Y-85725000D03*
D12*
X148590000Y-83185000D03*
D11*
X147320000Y-85725000D03*
D13*
X152400000Y-85725000D03*
D12*
X154940000Y-80645000D03*
%TD*%
D11*
%TO.C,MX44*%
X138430000Y-85725000D03*
D12*
X129540000Y-83185000D03*
D11*
X128270000Y-85725000D03*
D13*
X133350000Y-85725000D03*
D12*
X135890000Y-80645000D03*
%TD*%
D11*
%TO.C,MX39*%
X119380000Y-85725000D03*
D12*
X110490000Y-83185000D03*
D11*
X109220000Y-85725000D03*
D13*
X114300000Y-85725000D03*
D12*
X116840000Y-80645000D03*
%TD*%
D11*
%TO.C,MX34*%
X100330000Y-85725000D03*
D12*
X91440000Y-83185000D03*
D11*
X90170000Y-85725000D03*
D13*
X95250000Y-85725000D03*
D12*
X97790000Y-80645000D03*
%TD*%
D11*
%TO.C,MX29*%
X81280000Y-85725000D03*
D12*
X72390000Y-83185000D03*
D11*
X71120000Y-85725000D03*
D13*
X76200000Y-85725000D03*
D12*
X78740000Y-80645000D03*
%TD*%
D11*
%TO.C,MX24*%
X62230000Y-85725000D03*
D12*
X53340000Y-83185000D03*
D11*
X52070000Y-85725000D03*
D13*
X57150000Y-85725000D03*
D12*
X59690000Y-80645000D03*
%TD*%
D11*
%TO.C,MX18*%
X33655000Y-66675000D03*
D12*
X24765000Y-64135000D03*
D11*
X23495000Y-66675000D03*
D13*
X28575000Y-66675000D03*
D12*
X31115000Y-61595000D03*
%TD*%
D11*
%TO.C,MX78*%
X267017500Y-66675000D03*
D12*
X258127500Y-64135000D03*
D11*
X256857500Y-66675000D03*
D13*
X261937500Y-66675000D03*
D12*
X264477500Y-61595000D03*
%TD*%
D11*
%TO.C,MX73*%
X247967500Y-66675000D03*
D12*
X239077500Y-64135000D03*
D11*
X237807500Y-66675000D03*
D13*
X242887500Y-66675000D03*
D12*
X245427500Y-61595000D03*
%TD*%
D11*
%TO.C,MX68*%
X228917500Y-66675000D03*
D12*
X220027500Y-64135000D03*
D11*
X218757500Y-66675000D03*
D13*
X223837500Y-66675000D03*
D12*
X226377500Y-61595000D03*
%TD*%
D11*
%TO.C,MX63*%
X209867500Y-66675000D03*
D12*
X200977500Y-64135000D03*
D11*
X199707500Y-66675000D03*
D13*
X204787500Y-66675000D03*
D12*
X207327500Y-61595000D03*
%TD*%
D11*
%TO.C,MX58*%
X190817500Y-66675000D03*
D12*
X181927500Y-64135000D03*
D11*
X180657500Y-66675000D03*
D13*
X185737500Y-66675000D03*
D12*
X188277500Y-61595000D03*
%TD*%
D11*
%TO.C,MX53*%
X171767500Y-66675000D03*
D12*
X162877500Y-64135000D03*
D11*
X161607500Y-66675000D03*
D13*
X166687500Y-66675000D03*
D12*
X169227500Y-61595000D03*
%TD*%
D11*
%TO.C,MX48*%
X152717500Y-66675000D03*
D12*
X143827500Y-64135000D03*
D11*
X142557500Y-66675000D03*
D13*
X147637500Y-66675000D03*
D12*
X150177500Y-61595000D03*
%TD*%
D11*
%TO.C,MX43*%
X133667500Y-66675000D03*
D12*
X124777500Y-64135000D03*
D11*
X123507500Y-66675000D03*
D13*
X128587500Y-66675000D03*
D12*
X131127500Y-61595000D03*
%TD*%
D11*
%TO.C,MX38*%
X114617500Y-66675000D03*
D12*
X105727500Y-64135000D03*
D11*
X104457500Y-66675000D03*
D13*
X109537500Y-66675000D03*
D12*
X112077500Y-61595000D03*
%TD*%
D11*
%TO.C,MX33*%
X95567500Y-66675000D03*
D12*
X86677500Y-64135000D03*
D11*
X85407500Y-66675000D03*
D13*
X90487500Y-66675000D03*
D12*
X93027500Y-61595000D03*
%TD*%
D11*
%TO.C,MX23*%
X57467500Y-66675000D03*
D12*
X48577500Y-64135000D03*
D11*
X47307500Y-66675000D03*
D13*
X52387500Y-66675000D03*
D12*
X54927500Y-61595000D03*
%TD*%
D11*
%TO.C,MX104*%
X357505000Y-47625000D03*
D12*
X348615000Y-45085000D03*
D11*
X347345000Y-47625000D03*
D13*
X352425000Y-47625000D03*
D12*
X354965000Y-42545000D03*
%TD*%
D11*
%TO.C,MX98*%
X338455000Y-47625000D03*
D12*
X329565000Y-45085000D03*
D11*
X328295000Y-47625000D03*
D13*
X333375000Y-47625000D03*
D12*
X335915000Y-42545000D03*
%TD*%
D11*
%TO.C,MX92*%
X319405000Y-47625000D03*
D12*
X310515000Y-45085000D03*
D11*
X309245000Y-47625000D03*
D13*
X314325000Y-47625000D03*
D12*
X316865000Y-42545000D03*
%TD*%
D11*
%TO.C,MX87*%
X295592500Y-47625000D03*
D12*
X286702500Y-45085000D03*
D11*
X285432500Y-47625000D03*
D13*
X290512500Y-47625000D03*
D12*
X293052500Y-42545000D03*
%TD*%
D11*
%TO.C,MX82*%
X276542500Y-47625000D03*
D12*
X267652500Y-45085000D03*
D11*
X266382500Y-47625000D03*
D13*
X271462500Y-47625000D03*
D12*
X274002500Y-42545000D03*
%TD*%
D11*
%TO.C,MX77*%
X257492500Y-47625000D03*
D12*
X248602500Y-45085000D03*
D11*
X247332500Y-47625000D03*
D13*
X252412500Y-47625000D03*
D12*
X254952500Y-42545000D03*
%TD*%
D11*
%TO.C,MX72*%
X238442500Y-47625000D03*
D12*
X229552500Y-45085000D03*
D11*
X228282500Y-47625000D03*
D13*
X233362500Y-47625000D03*
D12*
X235902500Y-42545000D03*
%TD*%
D11*
%TO.C,MX67*%
X219392500Y-47625000D03*
D12*
X210502500Y-45085000D03*
D11*
X209232500Y-47625000D03*
D13*
X214312500Y-47625000D03*
D12*
X216852500Y-42545000D03*
%TD*%
D11*
%TO.C,MX62*%
X200342500Y-47625000D03*
D12*
X191452500Y-45085000D03*
D11*
X190182500Y-47625000D03*
D13*
X195262500Y-47625000D03*
D12*
X197802500Y-42545000D03*
%TD*%
D11*
%TO.C,MX57*%
X181292500Y-47625000D03*
D12*
X172402500Y-45085000D03*
D11*
X171132500Y-47625000D03*
D13*
X176212500Y-47625000D03*
D12*
X178752500Y-42545000D03*
%TD*%
D11*
%TO.C,MX52*%
X162242500Y-47625000D03*
D12*
X153352500Y-45085000D03*
D11*
X152082500Y-47625000D03*
D13*
X157162500Y-47625000D03*
D12*
X159702500Y-42545000D03*
%TD*%
D11*
%TO.C,MX47*%
X143192500Y-47625000D03*
D12*
X134302500Y-45085000D03*
D11*
X133032500Y-47625000D03*
D13*
X138112500Y-47625000D03*
D12*
X140652500Y-42545000D03*
%TD*%
D11*
%TO.C,MX42*%
X124142500Y-47625000D03*
D12*
X115252500Y-45085000D03*
D11*
X113982500Y-47625000D03*
D13*
X119062500Y-47625000D03*
D12*
X121602500Y-42545000D03*
%TD*%
D11*
%TO.C,MX37*%
X105092500Y-47625000D03*
D12*
X96202500Y-45085000D03*
D11*
X94932500Y-47625000D03*
D13*
X100012500Y-47625000D03*
D12*
X102552500Y-42545000D03*
%TD*%
D11*
%TO.C,MX32*%
X86042500Y-47625000D03*
D12*
X77152500Y-45085000D03*
D11*
X75882500Y-47625000D03*
D13*
X80962500Y-47625000D03*
D12*
X83502500Y-42545000D03*
%TD*%
D11*
%TO.C,MX27*%
X66992500Y-47625000D03*
D12*
X58102500Y-45085000D03*
D11*
X56832500Y-47625000D03*
D13*
X61912500Y-47625000D03*
D12*
X64452500Y-42545000D03*
%TD*%
D11*
%TO.C,MX22*%
X47942500Y-47625000D03*
D12*
X39052500Y-45085000D03*
D11*
X37782500Y-47625000D03*
D13*
X42862500Y-47625000D03*
D12*
X45402500Y-42545000D03*
%TD*%
D11*
%TO.C,MX17*%
X28892500Y-47625000D03*
D12*
X20002500Y-45085000D03*
D11*
X18732500Y-47625000D03*
D13*
X23812500Y-47625000D03*
D12*
X26352500Y-42545000D03*
%TD*%
D11*
%TO.C,MX97*%
X338455000Y-23812500D03*
D12*
X329565000Y-21272500D03*
D11*
X328295000Y-23812500D03*
D13*
X333375000Y-23812500D03*
D12*
X335915000Y-18732500D03*
%TD*%
D11*
%TO.C,MX16*%
X319405000Y-23812500D03*
D12*
X310515000Y-21272500D03*
D11*
X309245000Y-23812500D03*
D13*
X314325000Y-23812500D03*
D12*
X316865000Y-18732500D03*
%TD*%
D11*
%TO.C,MX14*%
X295592500Y-23812500D03*
D12*
X286702500Y-21272500D03*
D11*
X285432500Y-23812500D03*
D13*
X290512500Y-23812500D03*
D12*
X293052500Y-18732500D03*
%TD*%
D11*
%TO.C,MX13*%
X271780000Y-23812500D03*
D12*
X262890000Y-21272500D03*
D11*
X261620000Y-23812500D03*
D13*
X266700000Y-23812500D03*
D12*
X269240000Y-18732500D03*
%TD*%
D11*
%TO.C,MX12*%
X252730000Y-23812500D03*
D12*
X243840000Y-21272500D03*
D11*
X242570000Y-23812500D03*
D13*
X247650000Y-23812500D03*
D12*
X250190000Y-18732500D03*
%TD*%
D11*
%TO.C,MX11*%
X233680000Y-23812500D03*
D12*
X224790000Y-21272500D03*
D11*
X223520000Y-23812500D03*
D13*
X228600000Y-23812500D03*
D12*
X231140000Y-18732500D03*
%TD*%
D11*
%TO.C,MX10*%
X214630000Y-23812500D03*
D12*
X205740000Y-21272500D03*
D11*
X204470000Y-23812500D03*
D13*
X209550000Y-23812500D03*
D12*
X212090000Y-18732500D03*
%TD*%
D11*
%TO.C,MX9*%
X190817500Y-23812500D03*
D12*
X181927500Y-21272500D03*
D11*
X180657500Y-23812500D03*
D13*
X185737500Y-23812500D03*
D12*
X188277500Y-18732500D03*
%TD*%
D11*
%TO.C,MX8*%
X171767500Y-23812500D03*
D12*
X162877500Y-21272500D03*
D11*
X161607500Y-23812500D03*
D13*
X166687500Y-23812500D03*
D12*
X169227500Y-18732500D03*
%TD*%
D11*
%TO.C,MX7*%
X152717500Y-23812500D03*
D12*
X143827500Y-21272500D03*
D11*
X142557500Y-23812500D03*
D13*
X147637500Y-23812500D03*
D12*
X150177500Y-18732500D03*
%TD*%
D11*
%TO.C,MX6*%
X133667500Y-23812500D03*
D12*
X124777500Y-21272500D03*
D11*
X123507500Y-23812500D03*
D13*
X128587500Y-23812500D03*
D12*
X131127500Y-18732500D03*
%TD*%
D11*
%TO.C,MX5*%
X109855000Y-23812500D03*
D12*
X100965000Y-21272500D03*
D11*
X99695000Y-23812500D03*
D13*
X104775000Y-23812500D03*
D12*
X107315000Y-18732500D03*
%TD*%
D11*
%TO.C,MX4*%
X90805000Y-23812500D03*
D12*
X81915000Y-21272500D03*
D11*
X80645000Y-23812500D03*
D13*
X85725000Y-23812500D03*
D12*
X88265000Y-18732500D03*
%TD*%
D11*
%TO.C,MX3*%
X71755000Y-23812500D03*
D12*
X62865000Y-21272500D03*
D11*
X61595000Y-23812500D03*
D13*
X66675000Y-23812500D03*
D12*
X69215000Y-18732500D03*
%TD*%
D11*
%TO.C,MX2*%
X52705000Y-23812500D03*
D12*
X43815000Y-21272500D03*
D11*
X42545000Y-23812500D03*
D13*
X47625000Y-23812500D03*
D12*
X50165000Y-18732500D03*
%TD*%
D11*
%TO.C,MX1*%
X28892500Y-23812500D03*
D12*
X20002500Y-21272500D03*
D11*
X18732500Y-23812500D03*
D13*
X23812500Y-23812500D03*
D12*
X26352500Y-18732500D03*
%TD*%
M02*
