G04 #@! TF.GenerationSoftware,KiCad,Pcbnew,(5.1.10)-1*
G04 #@! TF.CreationDate,2021-06-22T17:57:11+07:00*
G04 #@! TF.ProjectId,averange65,61766572-616e-4676-9536-352e6b696361,rev?*
G04 #@! TF.SameCoordinates,Original*
G04 #@! TF.FileFunction,Legend,Top*
G04 #@! TF.FilePolarity,Positive*
%FSLAX46Y46*%
G04 Gerber Fmt 4.6, Leading zero omitted, Abs format (unit mm)*
G04 Created by KiCad (PCBNEW (5.1.10)-1) date 2021-06-22 17:57:11*
%MOMM*%
%LPD*%
G01*
G04 APERTURE LIST*
%ADD10C,0.250000*%
%ADD11C,0.010000*%
%ADD12C,0.120000*%
%ADD13C,0.150000*%
G04 APERTURE END LIST*
D10*
X170982000Y-61194000D02*
X175982000Y-61194000D01*
X175982000Y-61194000D02*
X175982000Y-63694000D01*
X175982000Y-63694000D02*
X170982000Y-63694000D01*
X170982000Y-63694000D02*
X170982000Y-61194000D01*
D11*
G36*
X270143220Y-108770073D02*
G01*
X270365110Y-110007141D01*
X270544551Y-111313877D01*
X270681924Y-112701987D01*
X270777611Y-114183179D01*
X270831994Y-115769158D01*
X270845455Y-117471631D01*
X270818376Y-119302304D01*
X270751139Y-121272882D01*
X270644125Y-123395073D01*
X270628914Y-123655667D01*
X270573814Y-124587000D01*
X271240407Y-123952000D01*
X271530420Y-123685368D01*
X271796645Y-123468617D01*
X272079151Y-123275499D01*
X272418010Y-123079764D01*
X272853292Y-122855164D01*
X273102481Y-122732213D01*
X273557707Y-122516908D01*
X273942105Y-122349614D01*
X274232206Y-122239735D01*
X274404542Y-122196674D01*
X274432806Y-122199171D01*
X274534905Y-122284594D01*
X274667941Y-122479301D01*
X274836282Y-122792355D01*
X275044300Y-123232817D01*
X275296364Y-123809752D01*
X275596845Y-124532222D01*
X275801366Y-125037276D01*
X276006374Y-125539299D01*
X276194333Y-125984031D01*
X276355137Y-126348797D01*
X276478675Y-126610921D01*
X276554838Y-126747726D01*
X276570414Y-126762372D01*
X276639129Y-126690109D01*
X276745711Y-126490113D01*
X276876555Y-126195973D01*
X277018058Y-125841277D01*
X277156614Y-125459615D01*
X277278619Y-125084574D01*
X277345899Y-124847754D01*
X277421456Y-124543607D01*
X277450238Y-124334368D01*
X277430022Y-124151577D01*
X277358582Y-123926776D01*
X277311891Y-123801028D01*
X277243440Y-123621532D01*
X277121184Y-123304078D01*
X276952822Y-122868481D01*
X276746050Y-122334554D01*
X276508562Y-121722112D01*
X276248057Y-121050968D01*
X275972230Y-120340935D01*
X275688777Y-119611827D01*
X275405395Y-118883459D01*
X275129780Y-118175643D01*
X274869628Y-117508194D01*
X274632636Y-116900925D01*
X274476460Y-116501333D01*
X274333056Y-116151477D01*
X274133296Y-115687576D01*
X273894297Y-115148149D01*
X273633172Y-114571717D01*
X273367038Y-113996799D01*
X273304617Y-113863950D01*
X272480512Y-112115568D01*
X272786423Y-111786902D01*
X273020570Y-111548872D01*
X273277619Y-111318534D01*
X273580686Y-111078902D01*
X273952884Y-110812988D01*
X274176034Y-110664435D01*
X275434834Y-110664435D01*
X275855177Y-112291718D01*
X276204678Y-113612527D01*
X276537506Y-114800518D01*
X276864010Y-115890037D01*
X277194542Y-116915428D01*
X277539451Y-117911037D01*
X277595866Y-118067667D01*
X277815440Y-118670864D01*
X277986214Y-119130800D01*
X278115155Y-119464098D01*
X278209227Y-119687386D01*
X278275394Y-119817290D01*
X278320621Y-119870434D01*
X278349304Y-119866252D01*
X278373341Y-119773732D01*
X278414456Y-119544586D01*
X278467526Y-119210062D01*
X278527429Y-118801405D01*
X278548253Y-118652500D01*
X278690147Y-117543854D01*
X278790796Y-116554595D01*
X278853042Y-115640616D01*
X278879725Y-114757810D01*
X278873689Y-113862072D01*
X278868797Y-113677228D01*
X278838603Y-112938060D01*
X278792760Y-112339961D01*
X278725984Y-111854983D01*
X278632995Y-111455180D01*
X278508511Y-111112605D01*
X278347248Y-110799311D01*
X278314609Y-110745013D01*
X278096955Y-110466485D01*
X277833438Y-110231373D01*
X277746005Y-110174906D01*
X277304959Y-110015924D01*
X276812796Y-109986776D01*
X276319662Y-110081576D01*
X275875700Y-110294438D01*
X275721770Y-110412503D01*
X275434834Y-110664435D01*
X274176034Y-110664435D01*
X274417326Y-110503805D01*
X274997128Y-110134366D01*
X275251334Y-109975378D01*
X276126479Y-109445414D01*
X276886386Y-109020601D01*
X277544848Y-108696431D01*
X278115658Y-108468399D01*
X278612609Y-108331997D01*
X279049494Y-108282718D01*
X279440106Y-108316056D01*
X279798238Y-108427503D01*
X279877548Y-108463751D01*
X280269704Y-108715338D01*
X280591464Y-109062152D01*
X280845752Y-109514324D01*
X281035495Y-110081988D01*
X281163615Y-110775275D01*
X281233039Y-111604317D01*
X281246691Y-112579247D01*
X281232371Y-113157000D01*
X281208488Y-113722904D01*
X281177092Y-114265428D01*
X281135532Y-114806039D01*
X281081158Y-115366207D01*
X281011320Y-115967401D01*
X280923366Y-116631088D01*
X280814646Y-117378738D01*
X280682510Y-118231819D01*
X280524306Y-119211800D01*
X280368615Y-120153054D01*
X280248291Y-120875930D01*
X280137167Y-121545747D01*
X280038234Y-122144302D01*
X279954486Y-122653392D01*
X279888914Y-123054813D01*
X279844511Y-123330362D01*
X279824269Y-123461835D01*
X279823334Y-123470173D01*
X279888041Y-123582973D01*
X280032595Y-123705908D01*
X280182648Y-123779136D01*
X280211582Y-123782667D01*
X280322563Y-123724207D01*
X280510922Y-123568627D01*
X280741827Y-123345621D01*
X280819367Y-123264492D01*
X281386981Y-122728780D01*
X282013999Y-122258372D01*
X282665367Y-121873890D01*
X283306033Y-121595954D01*
X283900945Y-121445187D01*
X283915262Y-121443180D01*
X284159283Y-121421534D01*
X284300094Y-121455547D01*
X284399659Y-121563587D01*
X284417902Y-121592185D01*
X284483254Y-121754085D01*
X284565737Y-122040585D01*
X284654176Y-122409338D01*
X284727756Y-122766667D01*
X284951652Y-123805041D01*
X285246084Y-124954496D01*
X285599011Y-126178281D01*
X285998389Y-127439647D01*
X286432174Y-128701842D01*
X286888325Y-129928115D01*
X287354796Y-131081716D01*
X287735896Y-131946226D01*
X287872718Y-132246764D01*
X287950820Y-132467449D01*
X287955409Y-132636855D01*
X287871692Y-132783558D01*
X287684876Y-132936131D01*
X287380169Y-133123150D01*
X287020000Y-133329074D01*
X286522928Y-133604710D01*
X286152206Y-133791051D01*
X285894046Y-133893851D01*
X285734658Y-133918868D01*
X285672814Y-133891389D01*
X285612837Y-133775986D01*
X285504847Y-133517042D01*
X285354791Y-133131524D01*
X285168619Y-132636398D01*
X284952279Y-132048627D01*
X284711718Y-131385179D01*
X284452884Y-130663018D01*
X284181726Y-129899110D01*
X283904192Y-129110420D01*
X283626231Y-128313913D01*
X283353789Y-127526556D01*
X283092817Y-126765314D01*
X282849260Y-126047151D01*
X282629069Y-125389034D01*
X282438190Y-124807928D01*
X282282573Y-124320799D01*
X282168165Y-123944611D01*
X282106385Y-123719167D01*
X282038451Y-123501096D01*
X281970678Y-123373272D01*
X281947944Y-123359333D01*
X281861388Y-123412896D01*
X281676722Y-123558925D01*
X281420634Y-123775436D01*
X281119811Y-124040443D01*
X281104420Y-124054261D01*
X280768655Y-124362759D01*
X280547110Y-124585686D01*
X280422368Y-124743985D01*
X280377009Y-124858597D01*
X280382569Y-124922095D01*
X280432478Y-125038232D01*
X280549550Y-125285534D01*
X280724085Y-125644286D01*
X280946382Y-126094769D01*
X281206741Y-126617265D01*
X281495463Y-127192058D01*
X281643332Y-127484812D01*
X282852618Y-129874623D01*
X282410055Y-130168380D01*
X282065532Y-130386788D01*
X281691063Y-130607504D01*
X281320947Y-130812220D01*
X280989485Y-130982632D01*
X280730977Y-131100433D01*
X280579725Y-131147320D01*
X280575455Y-131147476D01*
X280455569Y-131071237D01*
X280319602Y-130861276D01*
X280265935Y-130746500D01*
X280015241Y-130165127D01*
X279756211Y-129569094D01*
X279498080Y-128979192D01*
X279250078Y-128416212D01*
X279021438Y-127900945D01*
X278821393Y-127454182D01*
X278659174Y-127096715D01*
X278544015Y-126849334D01*
X278485146Y-126732831D01*
X278481226Y-126727348D01*
X278385477Y-126728597D01*
X278171377Y-126771390D01*
X277881255Y-126843847D01*
X277557445Y-126934084D01*
X277242277Y-127030219D01*
X276978084Y-127120372D01*
X276807198Y-127192658D01*
X276791608Y-127201609D01*
X276767759Y-127228670D01*
X276761760Y-127281188D01*
X276779311Y-127373402D01*
X276826112Y-127519554D01*
X276907865Y-127733884D01*
X277030269Y-128030633D01*
X277199027Y-128424042D01*
X277419838Y-128928352D01*
X277698402Y-129557804D01*
X278040422Y-130326638D01*
X278061662Y-130374315D01*
X278331309Y-130982318D01*
X278609486Y-131614403D01*
X278878334Y-132229645D01*
X279119992Y-132787119D01*
X279316602Y-133245901D01*
X279373319Y-133379982D01*
X279556684Y-133811001D01*
X279731071Y-134212622D01*
X279879243Y-134545702D01*
X279983963Y-134771098D01*
X280000996Y-134805372D01*
X280160210Y-135117744D01*
X279910545Y-135295521D01*
X279730479Y-135402998D01*
X279438905Y-135554537D01*
X279080100Y-135727826D01*
X278789607Y-135860379D01*
X278325752Y-136066821D01*
X277994175Y-136211386D01*
X277771436Y-136298730D01*
X277634098Y-136333508D01*
X277558722Y-136320375D01*
X277521871Y-136263985D01*
X277500105Y-136168995D01*
X277489787Y-136118539D01*
X277406246Y-135810493D01*
X277266447Y-135384569D01*
X277076737Y-134855447D01*
X276843463Y-134237807D01*
X276572970Y-133546328D01*
X276271605Y-132795691D01*
X275945714Y-132000575D01*
X275601645Y-131175660D01*
X275245744Y-130335626D01*
X274884357Y-129495152D01*
X274523830Y-128668919D01*
X274170511Y-127871607D01*
X273830745Y-127117894D01*
X273510880Y-126422462D01*
X273217261Y-125799990D01*
X272956236Y-125265158D01*
X272734150Y-124832645D01*
X272557350Y-124517132D01*
X272432183Y-124333298D01*
X272376274Y-124290667D01*
X272294680Y-124355554D01*
X272140511Y-124529813D01*
X271936485Y-124782841D01*
X271705318Y-125084033D01*
X271469727Y-125402786D01*
X271252431Y-125708497D01*
X271076146Y-125970561D01*
X270963589Y-126158375D01*
X270934642Y-126232778D01*
X270969737Y-126366255D01*
X271068367Y-126623388D01*
X271218514Y-126978742D01*
X271408159Y-127406884D01*
X271625286Y-127882377D01*
X271857875Y-128379788D01*
X272093909Y-128873682D01*
X272321370Y-129338624D01*
X272528238Y-129749180D01*
X272702498Y-130079915D01*
X272832129Y-130305394D01*
X272903280Y-130399123D01*
X272888807Y-130471511D01*
X272751793Y-130606468D01*
X272519210Y-130787066D01*
X272218031Y-130996383D01*
X271875230Y-131217492D01*
X271517780Y-131433469D01*
X271172654Y-131627389D01*
X270866825Y-131782326D01*
X270627266Y-131881357D01*
X270497072Y-131908957D01*
X270428305Y-131829438D01*
X270313922Y-131599991D01*
X270158899Y-131232286D01*
X269968209Y-130737993D01*
X269790334Y-130250912D01*
X269609442Y-129748597D01*
X269444986Y-129297990D01*
X269306388Y-128924429D01*
X269203074Y-128653250D01*
X269144470Y-128509791D01*
X269137747Y-128496585D01*
X269046174Y-128453115D01*
X268870272Y-128521929D01*
X268828351Y-128545963D01*
X268505133Y-128673923D01*
X268221765Y-128665021D01*
X268031814Y-128545167D01*
X267868037Y-128259390D01*
X267765244Y-127864563D01*
X267724444Y-127409991D01*
X267746643Y-126944980D01*
X267832849Y-126518834D01*
X267983539Y-126181658D01*
X268111998Y-125976472D01*
X268157084Y-125830995D01*
X268126473Y-125667428D01*
X268053434Y-125473288D01*
X267996535Y-125322080D01*
X267888159Y-125027961D01*
X267734264Y-124607316D01*
X267540811Y-124076528D01*
X267313760Y-123451981D01*
X267059071Y-122750058D01*
X266782705Y-121987143D01*
X266490622Y-121179619D01*
X266370217Y-120846389D01*
X265906616Y-119564609D01*
X265498101Y-118438720D01*
X265143285Y-117464971D01*
X264840780Y-116639617D01*
X264589195Y-115958908D01*
X264387144Y-115419096D01*
X264233237Y-115016434D01*
X264126086Y-114747172D01*
X264064302Y-114607564D01*
X264050970Y-114586080D01*
X263959299Y-114594001D01*
X263771739Y-114655399D01*
X263698182Y-114684848D01*
X263495994Y-114761990D01*
X263374946Y-114794208D01*
X263362025Y-114791793D01*
X263344814Y-114702005D01*
X263313009Y-114482046D01*
X263271922Y-114169901D01*
X263245901Y-113961333D01*
X263158241Y-113392481D01*
X263025265Y-112716657D01*
X262859135Y-111986164D01*
X262672015Y-111253311D01*
X262476067Y-110570401D01*
X262404611Y-110343468D01*
X262296489Y-109995130D01*
X262238156Y-109724413D01*
X262244213Y-109506178D01*
X262329259Y-109315286D01*
X262507894Y-109126598D01*
X262794719Y-108914974D01*
X263204333Y-108655276D01*
X263484096Y-108484757D01*
X263950867Y-108206992D01*
X264291462Y-108018292D01*
X264519441Y-107912077D01*
X264648362Y-107881768D01*
X264686449Y-107901307D01*
X264725224Y-108013591D01*
X264798018Y-108263680D01*
X264897584Y-108625151D01*
X265016676Y-109071581D01*
X265148046Y-109576546D01*
X265178390Y-109694883D01*
X265341397Y-110330155D01*
X265480591Y-110865341D01*
X265605552Y-111333873D01*
X265725860Y-111769183D01*
X265851095Y-112204703D01*
X265990837Y-112673865D01*
X266154668Y-113210102D01*
X266352167Y-113846844D01*
X266546557Y-114469333D01*
X266720168Y-115015414D01*
X266917930Y-115622236D01*
X267132405Y-116268369D01*
X267356157Y-116932381D01*
X267581748Y-117592840D01*
X267801742Y-118228315D01*
X268008701Y-118817375D01*
X268195188Y-119338587D01*
X268353767Y-119770522D01*
X268477000Y-120091746D01*
X268557450Y-120280829D01*
X268573815Y-120311333D01*
X268597600Y-120271017D01*
X268614807Y-120068898D01*
X268625283Y-119712388D01*
X268628871Y-119208895D01*
X268625417Y-118565830D01*
X268619813Y-118110000D01*
X268606693Y-117402777D01*
X268586940Y-116777028D01*
X268557080Y-116205553D01*
X268513639Y-115661152D01*
X268453145Y-115116624D01*
X268372124Y-114544771D01*
X268267102Y-113918391D01*
X268134607Y-113210284D01*
X267971164Y-112393250D01*
X267773301Y-111440090D01*
X267760010Y-111376793D01*
X267639893Y-110806484D01*
X267548064Y-110378739D01*
X267478083Y-110070384D01*
X267423506Y-109858251D01*
X267377893Y-109719166D01*
X267334802Y-109629961D01*
X267287790Y-109567464D01*
X267244527Y-109522622D01*
X267169518Y-109421844D01*
X267237416Y-109369888D01*
X267271240Y-109359893D01*
X267785276Y-109216037D01*
X268170039Y-109099968D01*
X268459842Y-108995716D01*
X268688995Y-108887309D01*
X268891809Y-108758779D01*
X269102595Y-108594156D01*
X269325273Y-108403847D01*
X269958571Y-107854480D01*
X270143220Y-108770073D01*
G37*
X270143220Y-108770073D02*
X270365110Y-110007141D01*
X270544551Y-111313877D01*
X270681924Y-112701987D01*
X270777611Y-114183179D01*
X270831994Y-115769158D01*
X270845455Y-117471631D01*
X270818376Y-119302304D01*
X270751139Y-121272882D01*
X270644125Y-123395073D01*
X270628914Y-123655667D01*
X270573814Y-124587000D01*
X271240407Y-123952000D01*
X271530420Y-123685368D01*
X271796645Y-123468617D01*
X272079151Y-123275499D01*
X272418010Y-123079764D01*
X272853292Y-122855164D01*
X273102481Y-122732213D01*
X273557707Y-122516908D01*
X273942105Y-122349614D01*
X274232206Y-122239735D01*
X274404542Y-122196674D01*
X274432806Y-122199171D01*
X274534905Y-122284594D01*
X274667941Y-122479301D01*
X274836282Y-122792355D01*
X275044300Y-123232817D01*
X275296364Y-123809752D01*
X275596845Y-124532222D01*
X275801366Y-125037276D01*
X276006374Y-125539299D01*
X276194333Y-125984031D01*
X276355137Y-126348797D01*
X276478675Y-126610921D01*
X276554838Y-126747726D01*
X276570414Y-126762372D01*
X276639129Y-126690109D01*
X276745711Y-126490113D01*
X276876555Y-126195973D01*
X277018058Y-125841277D01*
X277156614Y-125459615D01*
X277278619Y-125084574D01*
X277345899Y-124847754D01*
X277421456Y-124543607D01*
X277450238Y-124334368D01*
X277430022Y-124151577D01*
X277358582Y-123926776D01*
X277311891Y-123801028D01*
X277243440Y-123621532D01*
X277121184Y-123304078D01*
X276952822Y-122868481D01*
X276746050Y-122334554D01*
X276508562Y-121722112D01*
X276248057Y-121050968D01*
X275972230Y-120340935D01*
X275688777Y-119611827D01*
X275405395Y-118883459D01*
X275129780Y-118175643D01*
X274869628Y-117508194D01*
X274632636Y-116900925D01*
X274476460Y-116501333D01*
X274333056Y-116151477D01*
X274133296Y-115687576D01*
X273894297Y-115148149D01*
X273633172Y-114571717D01*
X273367038Y-113996799D01*
X273304617Y-113863950D01*
X272480512Y-112115568D01*
X272786423Y-111786902D01*
X273020570Y-111548872D01*
X273277619Y-111318534D01*
X273580686Y-111078902D01*
X273952884Y-110812988D01*
X274176034Y-110664435D01*
X275434834Y-110664435D01*
X275855177Y-112291718D01*
X276204678Y-113612527D01*
X276537506Y-114800518D01*
X276864010Y-115890037D01*
X277194542Y-116915428D01*
X277539451Y-117911037D01*
X277595866Y-118067667D01*
X277815440Y-118670864D01*
X277986214Y-119130800D01*
X278115155Y-119464098D01*
X278209227Y-119687386D01*
X278275394Y-119817290D01*
X278320621Y-119870434D01*
X278349304Y-119866252D01*
X278373341Y-119773732D01*
X278414456Y-119544586D01*
X278467526Y-119210062D01*
X278527429Y-118801405D01*
X278548253Y-118652500D01*
X278690147Y-117543854D01*
X278790796Y-116554595D01*
X278853042Y-115640616D01*
X278879725Y-114757810D01*
X278873689Y-113862072D01*
X278868797Y-113677228D01*
X278838603Y-112938060D01*
X278792760Y-112339961D01*
X278725984Y-111854983D01*
X278632995Y-111455180D01*
X278508511Y-111112605D01*
X278347248Y-110799311D01*
X278314609Y-110745013D01*
X278096955Y-110466485D01*
X277833438Y-110231373D01*
X277746005Y-110174906D01*
X277304959Y-110015924D01*
X276812796Y-109986776D01*
X276319662Y-110081576D01*
X275875700Y-110294438D01*
X275721770Y-110412503D01*
X275434834Y-110664435D01*
X274176034Y-110664435D01*
X274417326Y-110503805D01*
X274997128Y-110134366D01*
X275251334Y-109975378D01*
X276126479Y-109445414D01*
X276886386Y-109020601D01*
X277544848Y-108696431D01*
X278115658Y-108468399D01*
X278612609Y-108331997D01*
X279049494Y-108282718D01*
X279440106Y-108316056D01*
X279798238Y-108427503D01*
X279877548Y-108463751D01*
X280269704Y-108715338D01*
X280591464Y-109062152D01*
X280845752Y-109514324D01*
X281035495Y-110081988D01*
X281163615Y-110775275D01*
X281233039Y-111604317D01*
X281246691Y-112579247D01*
X281232371Y-113157000D01*
X281208488Y-113722904D01*
X281177092Y-114265428D01*
X281135532Y-114806039D01*
X281081158Y-115366207D01*
X281011320Y-115967401D01*
X280923366Y-116631088D01*
X280814646Y-117378738D01*
X280682510Y-118231819D01*
X280524306Y-119211800D01*
X280368615Y-120153054D01*
X280248291Y-120875930D01*
X280137167Y-121545747D01*
X280038234Y-122144302D01*
X279954486Y-122653392D01*
X279888914Y-123054813D01*
X279844511Y-123330362D01*
X279824269Y-123461835D01*
X279823334Y-123470173D01*
X279888041Y-123582973D01*
X280032595Y-123705908D01*
X280182648Y-123779136D01*
X280211582Y-123782667D01*
X280322563Y-123724207D01*
X280510922Y-123568627D01*
X280741827Y-123345621D01*
X280819367Y-123264492D01*
X281386981Y-122728780D01*
X282013999Y-122258372D01*
X282665367Y-121873890D01*
X283306033Y-121595954D01*
X283900945Y-121445187D01*
X283915262Y-121443180D01*
X284159283Y-121421534D01*
X284300094Y-121455547D01*
X284399659Y-121563587D01*
X284417902Y-121592185D01*
X284483254Y-121754085D01*
X284565737Y-122040585D01*
X284654176Y-122409338D01*
X284727756Y-122766667D01*
X284951652Y-123805041D01*
X285246084Y-124954496D01*
X285599011Y-126178281D01*
X285998389Y-127439647D01*
X286432174Y-128701842D01*
X286888325Y-129928115D01*
X287354796Y-131081716D01*
X287735896Y-131946226D01*
X287872718Y-132246764D01*
X287950820Y-132467449D01*
X287955409Y-132636855D01*
X287871692Y-132783558D01*
X287684876Y-132936131D01*
X287380169Y-133123150D01*
X287020000Y-133329074D01*
X286522928Y-133604710D01*
X286152206Y-133791051D01*
X285894046Y-133893851D01*
X285734658Y-133918868D01*
X285672814Y-133891389D01*
X285612837Y-133775986D01*
X285504847Y-133517042D01*
X285354791Y-133131524D01*
X285168619Y-132636398D01*
X284952279Y-132048627D01*
X284711718Y-131385179D01*
X284452884Y-130663018D01*
X284181726Y-129899110D01*
X283904192Y-129110420D01*
X283626231Y-128313913D01*
X283353789Y-127526556D01*
X283092817Y-126765314D01*
X282849260Y-126047151D01*
X282629069Y-125389034D01*
X282438190Y-124807928D01*
X282282573Y-124320799D01*
X282168165Y-123944611D01*
X282106385Y-123719167D01*
X282038451Y-123501096D01*
X281970678Y-123373272D01*
X281947944Y-123359333D01*
X281861388Y-123412896D01*
X281676722Y-123558925D01*
X281420634Y-123775436D01*
X281119811Y-124040443D01*
X281104420Y-124054261D01*
X280768655Y-124362759D01*
X280547110Y-124585686D01*
X280422368Y-124743985D01*
X280377009Y-124858597D01*
X280382569Y-124922095D01*
X280432478Y-125038232D01*
X280549550Y-125285534D01*
X280724085Y-125644286D01*
X280946382Y-126094769D01*
X281206741Y-126617265D01*
X281495463Y-127192058D01*
X281643332Y-127484812D01*
X282852618Y-129874623D01*
X282410055Y-130168380D01*
X282065532Y-130386788D01*
X281691063Y-130607504D01*
X281320947Y-130812220D01*
X280989485Y-130982632D01*
X280730977Y-131100433D01*
X280579725Y-131147320D01*
X280575455Y-131147476D01*
X280455569Y-131071237D01*
X280319602Y-130861276D01*
X280265935Y-130746500D01*
X280015241Y-130165127D01*
X279756211Y-129569094D01*
X279498080Y-128979192D01*
X279250078Y-128416212D01*
X279021438Y-127900945D01*
X278821393Y-127454182D01*
X278659174Y-127096715D01*
X278544015Y-126849334D01*
X278485146Y-126732831D01*
X278481226Y-126727348D01*
X278385477Y-126728597D01*
X278171377Y-126771390D01*
X277881255Y-126843847D01*
X277557445Y-126934084D01*
X277242277Y-127030219D01*
X276978084Y-127120372D01*
X276807198Y-127192658D01*
X276791608Y-127201609D01*
X276767759Y-127228670D01*
X276761760Y-127281188D01*
X276779311Y-127373402D01*
X276826112Y-127519554D01*
X276907865Y-127733884D01*
X277030269Y-128030633D01*
X277199027Y-128424042D01*
X277419838Y-128928352D01*
X277698402Y-129557804D01*
X278040422Y-130326638D01*
X278061662Y-130374315D01*
X278331309Y-130982318D01*
X278609486Y-131614403D01*
X278878334Y-132229645D01*
X279119992Y-132787119D01*
X279316602Y-133245901D01*
X279373319Y-133379982D01*
X279556684Y-133811001D01*
X279731071Y-134212622D01*
X279879243Y-134545702D01*
X279983963Y-134771098D01*
X280000996Y-134805372D01*
X280160210Y-135117744D01*
X279910545Y-135295521D01*
X279730479Y-135402998D01*
X279438905Y-135554537D01*
X279080100Y-135727826D01*
X278789607Y-135860379D01*
X278325752Y-136066821D01*
X277994175Y-136211386D01*
X277771436Y-136298730D01*
X277634098Y-136333508D01*
X277558722Y-136320375D01*
X277521871Y-136263985D01*
X277500105Y-136168995D01*
X277489787Y-136118539D01*
X277406246Y-135810493D01*
X277266447Y-135384569D01*
X277076737Y-134855447D01*
X276843463Y-134237807D01*
X276572970Y-133546328D01*
X276271605Y-132795691D01*
X275945714Y-132000575D01*
X275601645Y-131175660D01*
X275245744Y-130335626D01*
X274884357Y-129495152D01*
X274523830Y-128668919D01*
X274170511Y-127871607D01*
X273830745Y-127117894D01*
X273510880Y-126422462D01*
X273217261Y-125799990D01*
X272956236Y-125265158D01*
X272734150Y-124832645D01*
X272557350Y-124517132D01*
X272432183Y-124333298D01*
X272376274Y-124290667D01*
X272294680Y-124355554D01*
X272140511Y-124529813D01*
X271936485Y-124782841D01*
X271705318Y-125084033D01*
X271469727Y-125402786D01*
X271252431Y-125708497D01*
X271076146Y-125970561D01*
X270963589Y-126158375D01*
X270934642Y-126232778D01*
X270969737Y-126366255D01*
X271068367Y-126623388D01*
X271218514Y-126978742D01*
X271408159Y-127406884D01*
X271625286Y-127882377D01*
X271857875Y-128379788D01*
X272093909Y-128873682D01*
X272321370Y-129338624D01*
X272528238Y-129749180D01*
X272702498Y-130079915D01*
X272832129Y-130305394D01*
X272903280Y-130399123D01*
X272888807Y-130471511D01*
X272751793Y-130606468D01*
X272519210Y-130787066D01*
X272218031Y-130996383D01*
X271875230Y-131217492D01*
X271517780Y-131433469D01*
X271172654Y-131627389D01*
X270866825Y-131782326D01*
X270627266Y-131881357D01*
X270497072Y-131908957D01*
X270428305Y-131829438D01*
X270313922Y-131599991D01*
X270158899Y-131232286D01*
X269968209Y-130737993D01*
X269790334Y-130250912D01*
X269609442Y-129748597D01*
X269444986Y-129297990D01*
X269306388Y-128924429D01*
X269203074Y-128653250D01*
X269144470Y-128509791D01*
X269137747Y-128496585D01*
X269046174Y-128453115D01*
X268870272Y-128521929D01*
X268828351Y-128545963D01*
X268505133Y-128673923D01*
X268221765Y-128665021D01*
X268031814Y-128545167D01*
X267868037Y-128259390D01*
X267765244Y-127864563D01*
X267724444Y-127409991D01*
X267746643Y-126944980D01*
X267832849Y-126518834D01*
X267983539Y-126181658D01*
X268111998Y-125976472D01*
X268157084Y-125830995D01*
X268126473Y-125667428D01*
X268053434Y-125473288D01*
X267996535Y-125322080D01*
X267888159Y-125027961D01*
X267734264Y-124607316D01*
X267540811Y-124076528D01*
X267313760Y-123451981D01*
X267059071Y-122750058D01*
X266782705Y-121987143D01*
X266490622Y-121179619D01*
X266370217Y-120846389D01*
X265906616Y-119564609D01*
X265498101Y-118438720D01*
X265143285Y-117464971D01*
X264840780Y-116639617D01*
X264589195Y-115958908D01*
X264387144Y-115419096D01*
X264233237Y-115016434D01*
X264126086Y-114747172D01*
X264064302Y-114607564D01*
X264050970Y-114586080D01*
X263959299Y-114594001D01*
X263771739Y-114655399D01*
X263698182Y-114684848D01*
X263495994Y-114761990D01*
X263374946Y-114794208D01*
X263362025Y-114791793D01*
X263344814Y-114702005D01*
X263313009Y-114482046D01*
X263271922Y-114169901D01*
X263245901Y-113961333D01*
X263158241Y-113392481D01*
X263025265Y-112716657D01*
X262859135Y-111986164D01*
X262672015Y-111253311D01*
X262476067Y-110570401D01*
X262404611Y-110343468D01*
X262296489Y-109995130D01*
X262238156Y-109724413D01*
X262244213Y-109506178D01*
X262329259Y-109315286D01*
X262507894Y-109126598D01*
X262794719Y-108914974D01*
X263204333Y-108655276D01*
X263484096Y-108484757D01*
X263950867Y-108206992D01*
X264291462Y-108018292D01*
X264519441Y-107912077D01*
X264648362Y-107881768D01*
X264686449Y-107901307D01*
X264725224Y-108013591D01*
X264798018Y-108263680D01*
X264897584Y-108625151D01*
X265016676Y-109071581D01*
X265148046Y-109576546D01*
X265178390Y-109694883D01*
X265341397Y-110330155D01*
X265480591Y-110865341D01*
X265605552Y-111333873D01*
X265725860Y-111769183D01*
X265851095Y-112204703D01*
X265990837Y-112673865D01*
X266154668Y-113210102D01*
X266352167Y-113846844D01*
X266546557Y-114469333D01*
X266720168Y-115015414D01*
X266917930Y-115622236D01*
X267132405Y-116268369D01*
X267356157Y-116932381D01*
X267581748Y-117592840D01*
X267801742Y-118228315D01*
X268008701Y-118817375D01*
X268195188Y-119338587D01*
X268353767Y-119770522D01*
X268477000Y-120091746D01*
X268557450Y-120280829D01*
X268573815Y-120311333D01*
X268597600Y-120271017D01*
X268614807Y-120068898D01*
X268625283Y-119712388D01*
X268628871Y-119208895D01*
X268625417Y-118565830D01*
X268619813Y-118110000D01*
X268606693Y-117402777D01*
X268586940Y-116777028D01*
X268557080Y-116205553D01*
X268513639Y-115661152D01*
X268453145Y-115116624D01*
X268372124Y-114544771D01*
X268267102Y-113918391D01*
X268134607Y-113210284D01*
X267971164Y-112393250D01*
X267773301Y-111440090D01*
X267760010Y-111376793D01*
X267639893Y-110806484D01*
X267548064Y-110378739D01*
X267478083Y-110070384D01*
X267423506Y-109858251D01*
X267377893Y-109719166D01*
X267334802Y-109629961D01*
X267287790Y-109567464D01*
X267244527Y-109522622D01*
X267169518Y-109421844D01*
X267237416Y-109369888D01*
X267271240Y-109359893D01*
X267785276Y-109216037D01*
X268170039Y-109099968D01*
X268459842Y-108995716D01*
X268688995Y-108887309D01*
X268891809Y-108758779D01*
X269102595Y-108594156D01*
X269325273Y-108403847D01*
X269958571Y-107854480D01*
X270143220Y-108770073D01*
G36*
X314849813Y-108472900D02*
G01*
X315074971Y-108709752D01*
X315165126Y-108893295D01*
X315128013Y-109061316D01*
X315002673Y-109219646D01*
X314776168Y-109456065D01*
X314993359Y-110248199D01*
X315239527Y-111092624D01*
X315553248Y-112079024D01*
X315930407Y-113195957D01*
X316366890Y-114431978D01*
X316858580Y-115775645D01*
X317401363Y-117215514D01*
X317991124Y-118740142D01*
X318605583Y-120292688D01*
X318815637Y-120813554D01*
X319053586Y-121396309D01*
X319311272Y-122021634D01*
X319580533Y-122670208D01*
X319853212Y-123322712D01*
X320121148Y-123959828D01*
X320376181Y-124562235D01*
X320610153Y-125110614D01*
X320814903Y-125585645D01*
X320982271Y-125968010D01*
X321104099Y-126238389D01*
X321172227Y-126377461D01*
X321181166Y-126390891D01*
X321269798Y-126391162D01*
X321494922Y-126373806D01*
X321824945Y-126341712D01*
X322228274Y-126297767D01*
X322337780Y-126285160D01*
X322785404Y-126235899D01*
X323197790Y-126195627D01*
X323532608Y-126168137D01*
X323747530Y-126157223D01*
X323765334Y-126157230D01*
X324061667Y-126160921D01*
X323638334Y-126541425D01*
X323411995Y-126730223D01*
X323113882Y-126959030D01*
X322780869Y-127201868D01*
X322449830Y-127432759D01*
X322157640Y-127625728D01*
X321941172Y-127754797D01*
X321866676Y-127789515D01*
X321877111Y-127871054D01*
X321955502Y-128084427D01*
X322093433Y-128410333D01*
X322282485Y-128829474D01*
X322514243Y-129322551D01*
X322726139Y-129760129D01*
X322986334Y-130295193D01*
X323221181Y-130786333D01*
X323420314Y-131211202D01*
X323573367Y-131547454D01*
X323669973Y-131772743D01*
X323699805Y-131859054D01*
X323684676Y-131944237D01*
X323594360Y-132024047D01*
X323401836Y-132113423D01*
X323080079Y-132227304D01*
X322966059Y-132264671D01*
X322488227Y-132440074D01*
X322107673Y-132634149D01*
X321753363Y-132884128D01*
X321696416Y-132930117D01*
X321405364Y-133162739D01*
X321216264Y-133294569D01*
X321104360Y-133337152D01*
X321044897Y-133302031D01*
X321022945Y-133244167D01*
X320923838Y-132901811D01*
X320771514Y-132423603D01*
X320573494Y-131831757D01*
X320337299Y-131148487D01*
X320070449Y-130396007D01*
X319883525Y-129878667D01*
X319221112Y-128058333D01*
X318762723Y-128068316D01*
X318501793Y-128087766D01*
X318145586Y-128132664D01*
X317733487Y-128195906D01*
X317304882Y-128270389D01*
X316899157Y-128349009D01*
X316555699Y-128424662D01*
X316313893Y-128490246D01*
X316227488Y-128525552D01*
X316193336Y-128581962D01*
X316206638Y-128697012D01*
X316275211Y-128891916D01*
X316406875Y-129187886D01*
X316609450Y-129606135D01*
X316672918Y-129733952D01*
X316893450Y-130160194D01*
X317112152Y-130554178D01*
X317307951Y-130879833D01*
X317459773Y-131101089D01*
X317498553Y-131147117D01*
X317649171Y-131317935D01*
X317730446Y-131429181D01*
X317735324Y-131448816D01*
X317651719Y-131487901D01*
X317445367Y-131574867D01*
X317150969Y-131695269D01*
X316925383Y-131785996D01*
X316550500Y-131944233D01*
X316201895Y-132106081D01*
X315932438Y-132246380D01*
X315843546Y-132300834D01*
X315429840Y-132560105D01*
X315125959Y-132699075D01*
X314923835Y-132718994D01*
X314815399Y-132621110D01*
X314790667Y-132463934D01*
X314760768Y-132332800D01*
X314679110Y-132076664D01*
X314557754Y-131727376D01*
X314408758Y-131316780D01*
X314244183Y-130876724D01*
X314076087Y-130439055D01*
X313916530Y-130035619D01*
X313777571Y-129698264D01*
X313671271Y-129458835D01*
X313612219Y-129351883D01*
X313519323Y-129358803D01*
X313292554Y-129414686D01*
X312957683Y-129512031D01*
X312540479Y-129643334D01*
X312066713Y-129801097D01*
X312053451Y-129805628D01*
X311579173Y-129964908D01*
X311161683Y-130099640D01*
X310826555Y-130202019D01*
X310599366Y-130264238D01*
X310505690Y-130278493D01*
X310505235Y-130278124D01*
X310560349Y-130224250D01*
X310739770Y-130102011D01*
X311020245Y-129926106D01*
X311378521Y-129711235D01*
X311674268Y-129539117D01*
X312200019Y-129236636D01*
X312596647Y-129006749D01*
X312881638Y-128837312D01*
X313072477Y-128716185D01*
X313186648Y-128631226D01*
X313241638Y-128570295D01*
X313254932Y-128521250D01*
X313244015Y-128471950D01*
X313238001Y-128453310D01*
X313196403Y-128342697D01*
X313099321Y-128094937D01*
X312954665Y-127729901D01*
X312770349Y-127267462D01*
X312554283Y-126727489D01*
X312314381Y-126129855D01*
X312170533Y-125772333D01*
X311864979Y-125009042D01*
X311530186Y-124164978D01*
X311185064Y-123288335D01*
X310848525Y-122427305D01*
X310539479Y-121630083D01*
X310293502Y-120988667D01*
X310014046Y-120256238D01*
X309700815Y-119437953D01*
X309374586Y-118587918D01*
X309056139Y-117760239D01*
X308766250Y-117009022D01*
X308635282Y-116670667D01*
X308239408Y-115639061D01*
X307911382Y-114761964D01*
X307651013Y-114038819D01*
X307458110Y-113469072D01*
X307332484Y-113052168D01*
X307273942Y-112787551D01*
X307271285Y-112699536D01*
X307345851Y-112591025D01*
X307527674Y-112407554D01*
X307786934Y-112173574D01*
X308093809Y-111913541D01*
X308418479Y-111651908D01*
X308731123Y-111413127D01*
X309001919Y-111221654D01*
X309201046Y-111101941D01*
X309241356Y-111084052D01*
X309666531Y-111002330D01*
X310070203Y-111088511D01*
X310089646Y-111097151D01*
X310307260Y-111196303D01*
X310080945Y-111432525D01*
X309854629Y-111668747D01*
X310089996Y-112666873D01*
X310360749Y-113720937D01*
X310705119Y-114905225D01*
X311116434Y-116200871D01*
X311588024Y-117589011D01*
X312113217Y-119050779D01*
X312685343Y-120567309D01*
X313297731Y-122119736D01*
X313943709Y-123689194D01*
X314209005Y-124315167D01*
X314554898Y-125122600D01*
X314842065Y-125787223D01*
X315077227Y-126322401D01*
X315267107Y-126741498D01*
X315418426Y-127057879D01*
X315537908Y-127284907D01*
X315632273Y-127435948D01*
X315708244Y-127524365D01*
X315772542Y-127563523D01*
X315831891Y-127566786D01*
X315843323Y-127564412D01*
X316080199Y-127505814D01*
X316411702Y-127421613D01*
X316806291Y-127320065D01*
X317232424Y-127209428D01*
X317658561Y-127097957D01*
X318053161Y-126993911D01*
X318384681Y-126905544D01*
X318621583Y-126841116D01*
X318732324Y-126808881D01*
X318736558Y-126807023D01*
X318713784Y-126726204D01*
X318638432Y-126519986D01*
X318522300Y-126219588D01*
X318377500Y-125857000D01*
X318266172Y-125580343D01*
X318101065Y-125167684D01*
X317890716Y-124640473D01*
X317643665Y-124020156D01*
X317368449Y-123328182D01*
X317073606Y-122585999D01*
X316767675Y-121815056D01*
X316574311Y-121327333D01*
X316210350Y-120412440D01*
X315804142Y-119397347D01*
X315373089Y-118325158D01*
X314934593Y-117238980D01*
X314506054Y-116181918D01*
X314104874Y-115197079D01*
X313754532Y-114342333D01*
X313454359Y-113610881D01*
X313169498Y-112912847D01*
X312907518Y-112267069D01*
X312675994Y-111692382D01*
X312482495Y-111207620D01*
X312334594Y-110831620D01*
X312239864Y-110583216D01*
X312213734Y-110509523D01*
X312066633Y-110063380D01*
X312264483Y-109893583D01*
X312403319Y-109787857D01*
X312653320Y-109610265D01*
X312984118Y-109381904D01*
X313365342Y-109123871D01*
X313550872Y-108999960D01*
X314639411Y-108276133D01*
X314849813Y-108472900D01*
G37*
X314849813Y-108472900D02*
X315074971Y-108709752D01*
X315165126Y-108893295D01*
X315128013Y-109061316D01*
X315002673Y-109219646D01*
X314776168Y-109456065D01*
X314993359Y-110248199D01*
X315239527Y-111092624D01*
X315553248Y-112079024D01*
X315930407Y-113195957D01*
X316366890Y-114431978D01*
X316858580Y-115775645D01*
X317401363Y-117215514D01*
X317991124Y-118740142D01*
X318605583Y-120292688D01*
X318815637Y-120813554D01*
X319053586Y-121396309D01*
X319311272Y-122021634D01*
X319580533Y-122670208D01*
X319853212Y-123322712D01*
X320121148Y-123959828D01*
X320376181Y-124562235D01*
X320610153Y-125110614D01*
X320814903Y-125585645D01*
X320982271Y-125968010D01*
X321104099Y-126238389D01*
X321172227Y-126377461D01*
X321181166Y-126390891D01*
X321269798Y-126391162D01*
X321494922Y-126373806D01*
X321824945Y-126341712D01*
X322228274Y-126297767D01*
X322337780Y-126285160D01*
X322785404Y-126235899D01*
X323197790Y-126195627D01*
X323532608Y-126168137D01*
X323747530Y-126157223D01*
X323765334Y-126157230D01*
X324061667Y-126160921D01*
X323638334Y-126541425D01*
X323411995Y-126730223D01*
X323113882Y-126959030D01*
X322780869Y-127201868D01*
X322449830Y-127432759D01*
X322157640Y-127625728D01*
X321941172Y-127754797D01*
X321866676Y-127789515D01*
X321877111Y-127871054D01*
X321955502Y-128084427D01*
X322093433Y-128410333D01*
X322282485Y-128829474D01*
X322514243Y-129322551D01*
X322726139Y-129760129D01*
X322986334Y-130295193D01*
X323221181Y-130786333D01*
X323420314Y-131211202D01*
X323573367Y-131547454D01*
X323669973Y-131772743D01*
X323699805Y-131859054D01*
X323684676Y-131944237D01*
X323594360Y-132024047D01*
X323401836Y-132113423D01*
X323080079Y-132227304D01*
X322966059Y-132264671D01*
X322488227Y-132440074D01*
X322107673Y-132634149D01*
X321753363Y-132884128D01*
X321696416Y-132930117D01*
X321405364Y-133162739D01*
X321216264Y-133294569D01*
X321104360Y-133337152D01*
X321044897Y-133302031D01*
X321022945Y-133244167D01*
X320923838Y-132901811D01*
X320771514Y-132423603D01*
X320573494Y-131831757D01*
X320337299Y-131148487D01*
X320070449Y-130396007D01*
X319883525Y-129878667D01*
X319221112Y-128058333D01*
X318762723Y-128068316D01*
X318501793Y-128087766D01*
X318145586Y-128132664D01*
X317733487Y-128195906D01*
X317304882Y-128270389D01*
X316899157Y-128349009D01*
X316555699Y-128424662D01*
X316313893Y-128490246D01*
X316227488Y-128525552D01*
X316193336Y-128581962D01*
X316206638Y-128697012D01*
X316275211Y-128891916D01*
X316406875Y-129187886D01*
X316609450Y-129606135D01*
X316672918Y-129733952D01*
X316893450Y-130160194D01*
X317112152Y-130554178D01*
X317307951Y-130879833D01*
X317459773Y-131101089D01*
X317498553Y-131147117D01*
X317649171Y-131317935D01*
X317730446Y-131429181D01*
X317735324Y-131448816D01*
X317651719Y-131487901D01*
X317445367Y-131574867D01*
X317150969Y-131695269D01*
X316925383Y-131785996D01*
X316550500Y-131944233D01*
X316201895Y-132106081D01*
X315932438Y-132246380D01*
X315843546Y-132300834D01*
X315429840Y-132560105D01*
X315125959Y-132699075D01*
X314923835Y-132718994D01*
X314815399Y-132621110D01*
X314790667Y-132463934D01*
X314760768Y-132332800D01*
X314679110Y-132076664D01*
X314557754Y-131727376D01*
X314408758Y-131316780D01*
X314244183Y-130876724D01*
X314076087Y-130439055D01*
X313916530Y-130035619D01*
X313777571Y-129698264D01*
X313671271Y-129458835D01*
X313612219Y-129351883D01*
X313519323Y-129358803D01*
X313292554Y-129414686D01*
X312957683Y-129512031D01*
X312540479Y-129643334D01*
X312066713Y-129801097D01*
X312053451Y-129805628D01*
X311579173Y-129964908D01*
X311161683Y-130099640D01*
X310826555Y-130202019D01*
X310599366Y-130264238D01*
X310505690Y-130278493D01*
X310505235Y-130278124D01*
X310560349Y-130224250D01*
X310739770Y-130102011D01*
X311020245Y-129926106D01*
X311378521Y-129711235D01*
X311674268Y-129539117D01*
X312200019Y-129236636D01*
X312596647Y-129006749D01*
X312881638Y-128837312D01*
X313072477Y-128716185D01*
X313186648Y-128631226D01*
X313241638Y-128570295D01*
X313254932Y-128521250D01*
X313244015Y-128471950D01*
X313238001Y-128453310D01*
X313196403Y-128342697D01*
X313099321Y-128094937D01*
X312954665Y-127729901D01*
X312770349Y-127267462D01*
X312554283Y-126727489D01*
X312314381Y-126129855D01*
X312170533Y-125772333D01*
X311864979Y-125009042D01*
X311530186Y-124164978D01*
X311185064Y-123288335D01*
X310848525Y-122427305D01*
X310539479Y-121630083D01*
X310293502Y-120988667D01*
X310014046Y-120256238D01*
X309700815Y-119437953D01*
X309374586Y-118587918D01*
X309056139Y-117760239D01*
X308766250Y-117009022D01*
X308635282Y-116670667D01*
X308239408Y-115639061D01*
X307911382Y-114761964D01*
X307651013Y-114038819D01*
X307458110Y-113469072D01*
X307332484Y-113052168D01*
X307273942Y-112787551D01*
X307271285Y-112699536D01*
X307345851Y-112591025D01*
X307527674Y-112407554D01*
X307786934Y-112173574D01*
X308093809Y-111913541D01*
X308418479Y-111651908D01*
X308731123Y-111413127D01*
X309001919Y-111221654D01*
X309201046Y-111101941D01*
X309241356Y-111084052D01*
X309666531Y-111002330D01*
X310070203Y-111088511D01*
X310089646Y-111097151D01*
X310307260Y-111196303D01*
X310080945Y-111432525D01*
X309854629Y-111668747D01*
X310089996Y-112666873D01*
X310360749Y-113720937D01*
X310705119Y-114905225D01*
X311116434Y-116200871D01*
X311588024Y-117589011D01*
X312113217Y-119050779D01*
X312685343Y-120567309D01*
X313297731Y-122119736D01*
X313943709Y-123689194D01*
X314209005Y-124315167D01*
X314554898Y-125122600D01*
X314842065Y-125787223D01*
X315077227Y-126322401D01*
X315267107Y-126741498D01*
X315418426Y-127057879D01*
X315537908Y-127284907D01*
X315632273Y-127435948D01*
X315708244Y-127524365D01*
X315772542Y-127563523D01*
X315831891Y-127566786D01*
X315843323Y-127564412D01*
X316080199Y-127505814D01*
X316411702Y-127421613D01*
X316806291Y-127320065D01*
X317232424Y-127209428D01*
X317658561Y-127097957D01*
X318053161Y-126993911D01*
X318384681Y-126905544D01*
X318621583Y-126841116D01*
X318732324Y-126808881D01*
X318736558Y-126807023D01*
X318713784Y-126726204D01*
X318638432Y-126519986D01*
X318522300Y-126219588D01*
X318377500Y-125857000D01*
X318266172Y-125580343D01*
X318101065Y-125167684D01*
X317890716Y-124640473D01*
X317643665Y-124020156D01*
X317368449Y-123328182D01*
X317073606Y-122585999D01*
X316767675Y-121815056D01*
X316574311Y-121327333D01*
X316210350Y-120412440D01*
X315804142Y-119397347D01*
X315373089Y-118325158D01*
X314934593Y-117238980D01*
X314506054Y-116181918D01*
X314104874Y-115197079D01*
X313754532Y-114342333D01*
X313454359Y-113610881D01*
X313169498Y-112912847D01*
X312907518Y-112267069D01*
X312675994Y-111692382D01*
X312482495Y-111207620D01*
X312334594Y-110831620D01*
X312239864Y-110583216D01*
X312213734Y-110509523D01*
X312066633Y-110063380D01*
X312264483Y-109893583D01*
X312403319Y-109787857D01*
X312653320Y-109610265D01*
X312984118Y-109381904D01*
X313365342Y-109123871D01*
X313550872Y-108999960D01*
X314639411Y-108276133D01*
X314849813Y-108472900D01*
G36*
X292012995Y-108244888D02*
G01*
X292058974Y-108345197D01*
X292108382Y-108561706D01*
X292140778Y-108774381D01*
X292194378Y-109095055D01*
X292291312Y-109557751D01*
X292426246Y-110142303D01*
X292593844Y-110828544D01*
X292788773Y-111596307D01*
X293005697Y-112425426D01*
X293239283Y-113295735D01*
X293484196Y-114187066D01*
X293735102Y-115079254D01*
X293986667Y-115952131D01*
X294233555Y-116785531D01*
X294431050Y-117432667D01*
X294871029Y-118824142D01*
X295289883Y-120084883D01*
X295701512Y-121249828D01*
X296119820Y-122353913D01*
X296558709Y-123432076D01*
X297032079Y-124519253D01*
X297553835Y-125650382D01*
X298137876Y-126860400D01*
X298366823Y-127323590D01*
X298734178Y-128069014D01*
X299048290Y-128719114D01*
X299304664Y-129264039D01*
X299498803Y-129693941D01*
X299626213Y-129998971D01*
X299682396Y-130169280D01*
X299680895Y-130202256D01*
X299580771Y-130245356D01*
X299354789Y-130332568D01*
X299036741Y-130451571D01*
X298660423Y-130590043D01*
X298259628Y-130735663D01*
X297868150Y-130876109D01*
X297519782Y-130999061D01*
X297248319Y-131092196D01*
X297164796Y-131119640D01*
X297111713Y-131127824D01*
X297057845Y-131108601D01*
X296997446Y-131048905D01*
X296924771Y-130935668D01*
X296834074Y-130755826D01*
X296719610Y-130496312D01*
X296575633Y-130144060D01*
X296396396Y-129686004D01*
X296176156Y-129109078D01*
X295909165Y-128400215D01*
X295589678Y-127546349D01*
X295568189Y-127488816D01*
X295315577Y-126814638D01*
X295081420Y-126193957D01*
X294872268Y-125643809D01*
X294694667Y-125181229D01*
X294555165Y-124823252D01*
X294460310Y-124586914D01*
X294416648Y-124489251D01*
X294414738Y-124487707D01*
X294418075Y-124574967D01*
X294441657Y-124803354D01*
X294482332Y-125146282D01*
X294536947Y-125577169D01*
X294602249Y-126068695D01*
X294715142Y-126965040D01*
X294807682Y-127831614D01*
X294878091Y-128643234D01*
X294924590Y-129374716D01*
X294945401Y-130000876D01*
X294938746Y-130496531D01*
X294926818Y-130665132D01*
X294871470Y-131239931D01*
X293866246Y-131977465D01*
X293470858Y-132262967D01*
X293086687Y-132532238D01*
X292751722Y-132759185D01*
X292503952Y-132917719D01*
X292456756Y-132945509D01*
X292220902Y-133074862D01*
X292072480Y-133126308D01*
X291952410Y-133106840D01*
X291801613Y-133023451D01*
X291801076Y-133023124D01*
X291563861Y-132847930D01*
X291320984Y-132600143D01*
X291056206Y-132258971D01*
X290753289Y-131803623D01*
X290421515Y-131256742D01*
X289482322Y-129546344D01*
X288582512Y-127673498D01*
X287723172Y-125640703D01*
X286905390Y-123450457D01*
X286475460Y-122184919D01*
X286163438Y-121195087D01*
X285927513Y-120356087D01*
X285767592Y-119667529D01*
X285683579Y-119129022D01*
X285669567Y-118872000D01*
X285677594Y-118660202D01*
X285723334Y-118518615D01*
X285840452Y-118399129D01*
X286062612Y-118253633D01*
X286131564Y-118211760D01*
X286412309Y-118031894D01*
X286766768Y-117790770D01*
X287134206Y-117530072D01*
X287272637Y-117428593D01*
X287576264Y-117214139D01*
X287842466Y-117045481D01*
X288034508Y-116944911D01*
X288099975Y-116926526D01*
X288268130Y-116960774D01*
X288493781Y-117043539D01*
X288722088Y-117149431D01*
X288898211Y-117253057D01*
X288967334Y-117328125D01*
X288904723Y-117414710D01*
X288742924Y-117562478D01*
X288579211Y-117692003D01*
X288191088Y-117982812D01*
X288246306Y-118448572D01*
X288390960Y-119373303D01*
X288614319Y-120409594D01*
X288905709Y-121525181D01*
X289254451Y-122687804D01*
X289649871Y-123865199D01*
X290081291Y-125025105D01*
X290538036Y-126135260D01*
X291009429Y-127163401D01*
X291353185Y-127837147D01*
X291578284Y-128244602D01*
X291815153Y-128653207D01*
X292047074Y-129036367D01*
X292257331Y-129367485D01*
X292429208Y-129619966D01*
X292545990Y-129767214D01*
X292583130Y-129794000D01*
X292601676Y-129713783D01*
X292609009Y-129490028D01*
X292606253Y-129148083D01*
X292594534Y-128713292D01*
X292574978Y-128211002D01*
X292548709Y-127666559D01*
X292516854Y-127105309D01*
X292480537Y-126552598D01*
X292440884Y-126033772D01*
X292399020Y-125574177D01*
X292393290Y-125518333D01*
X292221241Y-123986416D01*
X292026487Y-122487354D01*
X291802858Y-120981898D01*
X291544186Y-119430799D01*
X291244300Y-117794811D01*
X290921697Y-116156262D01*
X290640732Y-114781592D01*
X290388090Y-113572336D01*
X290163820Y-112528702D01*
X289967969Y-111650901D01*
X289800587Y-110939143D01*
X289661720Y-110393639D01*
X289551417Y-110014598D01*
X289469727Y-109802232D01*
X289467907Y-109798789D01*
X289444190Y-109689760D01*
X289515228Y-109574283D01*
X289705281Y-109416582D01*
X289748558Y-109384894D01*
X289968179Y-109241702D01*
X290269987Y-109066269D01*
X290621841Y-108874777D01*
X290991596Y-108683408D01*
X291347111Y-108508344D01*
X291656240Y-108365767D01*
X291886842Y-108271860D01*
X292006774Y-108242803D01*
X292012995Y-108244888D01*
G37*
X292012995Y-108244888D02*
X292058974Y-108345197D01*
X292108382Y-108561706D01*
X292140778Y-108774381D01*
X292194378Y-109095055D01*
X292291312Y-109557751D01*
X292426246Y-110142303D01*
X292593844Y-110828544D01*
X292788773Y-111596307D01*
X293005697Y-112425426D01*
X293239283Y-113295735D01*
X293484196Y-114187066D01*
X293735102Y-115079254D01*
X293986667Y-115952131D01*
X294233555Y-116785531D01*
X294431050Y-117432667D01*
X294871029Y-118824142D01*
X295289883Y-120084883D01*
X295701512Y-121249828D01*
X296119820Y-122353913D01*
X296558709Y-123432076D01*
X297032079Y-124519253D01*
X297553835Y-125650382D01*
X298137876Y-126860400D01*
X298366823Y-127323590D01*
X298734178Y-128069014D01*
X299048290Y-128719114D01*
X299304664Y-129264039D01*
X299498803Y-129693941D01*
X299626213Y-129998971D01*
X299682396Y-130169280D01*
X299680895Y-130202256D01*
X299580771Y-130245356D01*
X299354789Y-130332568D01*
X299036741Y-130451571D01*
X298660423Y-130590043D01*
X298259628Y-130735663D01*
X297868150Y-130876109D01*
X297519782Y-130999061D01*
X297248319Y-131092196D01*
X297164796Y-131119640D01*
X297111713Y-131127824D01*
X297057845Y-131108601D01*
X296997446Y-131048905D01*
X296924771Y-130935668D01*
X296834074Y-130755826D01*
X296719610Y-130496312D01*
X296575633Y-130144060D01*
X296396396Y-129686004D01*
X296176156Y-129109078D01*
X295909165Y-128400215D01*
X295589678Y-127546349D01*
X295568189Y-127488816D01*
X295315577Y-126814638D01*
X295081420Y-126193957D01*
X294872268Y-125643809D01*
X294694667Y-125181229D01*
X294555165Y-124823252D01*
X294460310Y-124586914D01*
X294416648Y-124489251D01*
X294414738Y-124487707D01*
X294418075Y-124574967D01*
X294441657Y-124803354D01*
X294482332Y-125146282D01*
X294536947Y-125577169D01*
X294602249Y-126068695D01*
X294715142Y-126965040D01*
X294807682Y-127831614D01*
X294878091Y-128643234D01*
X294924590Y-129374716D01*
X294945401Y-130000876D01*
X294938746Y-130496531D01*
X294926818Y-130665132D01*
X294871470Y-131239931D01*
X293866246Y-131977465D01*
X293470858Y-132262967D01*
X293086687Y-132532238D01*
X292751722Y-132759185D01*
X292503952Y-132917719D01*
X292456756Y-132945509D01*
X292220902Y-133074862D01*
X292072480Y-133126308D01*
X291952410Y-133106840D01*
X291801613Y-133023451D01*
X291801076Y-133023124D01*
X291563861Y-132847930D01*
X291320984Y-132600143D01*
X291056206Y-132258971D01*
X290753289Y-131803623D01*
X290421515Y-131256742D01*
X289482322Y-129546344D01*
X288582512Y-127673498D01*
X287723172Y-125640703D01*
X286905390Y-123450457D01*
X286475460Y-122184919D01*
X286163438Y-121195087D01*
X285927513Y-120356087D01*
X285767592Y-119667529D01*
X285683579Y-119129022D01*
X285669567Y-118872000D01*
X285677594Y-118660202D01*
X285723334Y-118518615D01*
X285840452Y-118399129D01*
X286062612Y-118253633D01*
X286131564Y-118211760D01*
X286412309Y-118031894D01*
X286766768Y-117790770D01*
X287134206Y-117530072D01*
X287272637Y-117428593D01*
X287576264Y-117214139D01*
X287842466Y-117045481D01*
X288034508Y-116944911D01*
X288099975Y-116926526D01*
X288268130Y-116960774D01*
X288493781Y-117043539D01*
X288722088Y-117149431D01*
X288898211Y-117253057D01*
X288967334Y-117328125D01*
X288904723Y-117414710D01*
X288742924Y-117562478D01*
X288579211Y-117692003D01*
X288191088Y-117982812D01*
X288246306Y-118448572D01*
X288390960Y-119373303D01*
X288614319Y-120409594D01*
X288905709Y-121525181D01*
X289254451Y-122687804D01*
X289649871Y-123865199D01*
X290081291Y-125025105D01*
X290538036Y-126135260D01*
X291009429Y-127163401D01*
X291353185Y-127837147D01*
X291578284Y-128244602D01*
X291815153Y-128653207D01*
X292047074Y-129036367D01*
X292257331Y-129367485D01*
X292429208Y-129619966D01*
X292545990Y-129767214D01*
X292583130Y-129794000D01*
X292601676Y-129713783D01*
X292609009Y-129490028D01*
X292606253Y-129148083D01*
X292594534Y-128713292D01*
X292574978Y-128211002D01*
X292548709Y-127666559D01*
X292516854Y-127105309D01*
X292480537Y-126552598D01*
X292440884Y-126033772D01*
X292399020Y-125574177D01*
X292393290Y-125518333D01*
X292221241Y-123986416D01*
X292026487Y-122487354D01*
X291802858Y-120981898D01*
X291544186Y-119430799D01*
X291244300Y-117794811D01*
X290921697Y-116156262D01*
X290640732Y-114781592D01*
X290388090Y-113572336D01*
X290163820Y-112528702D01*
X289967969Y-111650901D01*
X289800587Y-110939143D01*
X289661720Y-110393639D01*
X289551417Y-110014598D01*
X289469727Y-109802232D01*
X289467907Y-109798789D01*
X289444190Y-109689760D01*
X289515228Y-109574283D01*
X289705281Y-109416582D01*
X289748558Y-109384894D01*
X289968179Y-109241702D01*
X290269987Y-109066269D01*
X290621841Y-108874777D01*
X290991596Y-108683408D01*
X291347111Y-108508344D01*
X291656240Y-108365767D01*
X291886842Y-108271860D01*
X292006774Y-108242803D01*
X292012995Y-108244888D01*
G36*
X298057342Y-109014803D02*
G01*
X298493498Y-109093019D01*
X298729382Y-109140506D01*
X299501262Y-109322372D01*
X300187194Y-109543317D01*
X300816765Y-109820560D01*
X301419561Y-110171321D01*
X302025171Y-110612817D01*
X302663182Y-111162268D01*
X303363182Y-111836894D01*
X303364021Y-111837735D01*
X304159823Y-112664974D01*
X304823465Y-113420112D01*
X305367480Y-114119009D01*
X305804403Y-114777528D01*
X306079084Y-115273667D01*
X306420884Y-115951000D01*
X306149329Y-116178388D01*
X305964501Y-116307759D01*
X305679551Y-116477918D01*
X305329817Y-116670895D01*
X304950635Y-116868717D01*
X304577342Y-117053414D01*
X304245276Y-117207012D01*
X303989772Y-117311542D01*
X303847500Y-117349053D01*
X303721831Y-117279107D01*
X303699334Y-117189006D01*
X303642099Y-116904519D01*
X303479917Y-116520877D01*
X303227073Y-116059168D01*
X302897852Y-115540478D01*
X302506538Y-114985893D01*
X302067415Y-114416499D01*
X301594768Y-113853382D01*
X301102881Y-113317630D01*
X301016868Y-113229256D01*
X300462598Y-112687984D01*
X299966910Y-112258490D01*
X299493033Y-111912618D01*
X299004193Y-111622214D01*
X298746334Y-111490794D01*
X298374523Y-111320941D01*
X297997639Y-111167425D01*
X297650142Y-111042127D01*
X297366489Y-110956927D01*
X297181141Y-110923705D01*
X297131169Y-110933942D01*
X297134565Y-111034949D01*
X297195853Y-111255655D01*
X297302510Y-111561759D01*
X297442014Y-111918962D01*
X297601842Y-112292965D01*
X297722286Y-112553006D01*
X298196564Y-113420506D01*
X298820084Y-114362651D01*
X299591218Y-115377199D01*
X300508336Y-116461909D01*
X300801893Y-116789851D01*
X301189305Y-117204968D01*
X301615372Y-117635661D01*
X302095154Y-118095639D01*
X302643709Y-118598612D01*
X303276096Y-119158287D01*
X304007374Y-119788375D01*
X304852602Y-120502584D01*
X305193474Y-120787769D01*
X306104111Y-121552141D01*
X306892556Y-122224466D01*
X307570307Y-122816619D01*
X308148864Y-123340480D01*
X308639725Y-123807925D01*
X309054388Y-124230834D01*
X309404354Y-124621082D01*
X309701119Y-124990548D01*
X309956183Y-125351110D01*
X310181045Y-125714645D01*
X310387203Y-126093030D01*
X310450567Y-126218119D01*
X310634984Y-126600806D01*
X310753770Y-126894510D01*
X310823788Y-127158130D01*
X310861904Y-127450563D01*
X310879230Y-127715241D01*
X310879326Y-128205423D01*
X310809110Y-128608550D01*
X310649375Y-128972367D01*
X310380908Y-129344616D01*
X310098178Y-129656467D01*
X309903551Y-129845876D01*
X309693800Y-130016685D01*
X309439558Y-130187401D01*
X309111457Y-130376529D01*
X308680129Y-130602575D01*
X308273113Y-130806535D01*
X307744252Y-131065122D01*
X307335621Y-131252696D01*
X307017565Y-131377044D01*
X306760432Y-131445952D01*
X306534568Y-131467206D01*
X306310322Y-131448594D01*
X306058040Y-131397902D01*
X306038467Y-131393331D01*
X305573414Y-131228696D01*
X305039257Y-130946311D01*
X304464425Y-130566849D01*
X303877349Y-130110982D01*
X303306456Y-129599383D01*
X302780177Y-129052727D01*
X302710811Y-128973573D01*
X301985391Y-128068677D01*
X301406303Y-127201176D01*
X300976289Y-126376548D01*
X300698091Y-125600272D01*
X300574450Y-124877827D01*
X300567918Y-124691782D01*
X300578768Y-124514308D01*
X300634509Y-124382694D01*
X300767403Y-124255057D01*
X301009713Y-124089512D01*
X301053500Y-124061377D01*
X301322676Y-123902665D01*
X301662279Y-123721978D01*
X302034658Y-123536998D01*
X302402161Y-123365406D01*
X302727138Y-123224885D01*
X302971937Y-123133115D01*
X303086501Y-123106644D01*
X303153060Y-123163271D01*
X303153653Y-123350246D01*
X303143503Y-123422833D01*
X303137162Y-123873565D01*
X303233723Y-124416152D01*
X303421043Y-125018196D01*
X303686979Y-125647302D01*
X304019388Y-126271072D01*
X304406127Y-126857109D01*
X304455513Y-126923232D01*
X304943236Y-127500836D01*
X305524919Y-128084522D01*
X306141768Y-128618867D01*
X306654131Y-128995738D01*
X307031555Y-129228793D01*
X307410657Y-129432009D01*
X307760180Y-129591911D01*
X308048865Y-129695025D01*
X308245455Y-129727877D01*
X308306454Y-129708005D01*
X308380118Y-129541999D01*
X308417805Y-129259782D01*
X308419200Y-128910682D01*
X308383990Y-128544022D01*
X308315926Y-128222907D01*
X308110332Y-127653601D01*
X307821776Y-127040900D01*
X307487168Y-126461014D01*
X307395571Y-126322667D01*
X307155789Y-126006463D01*
X306826920Y-125631069D01*
X306402149Y-125189967D01*
X305874662Y-124676639D01*
X305237645Y-124084569D01*
X304484283Y-123407238D01*
X303607761Y-122638130D01*
X302937334Y-122058901D01*
X301608358Y-120900037D01*
X300415345Y-119824745D01*
X299359539Y-118834244D01*
X298442184Y-117929751D01*
X297664523Y-117112483D01*
X297027801Y-116383658D01*
X296653081Y-115908667D01*
X295991561Y-114968417D01*
X295443617Y-114074410D01*
X295013308Y-113236258D01*
X294704689Y-112463573D01*
X294521818Y-111765965D01*
X294468750Y-111153047D01*
X294503563Y-110815897D01*
X294531187Y-110711951D01*
X294582465Y-110614801D01*
X294674701Y-110512307D01*
X294825197Y-110392327D01*
X295051252Y-110242719D01*
X295370171Y-110051342D01*
X295799254Y-109806055D01*
X296355803Y-109494715D01*
X296502656Y-109413045D01*
X296878365Y-109210008D01*
X297177213Y-109074109D01*
X297443675Y-108999904D01*
X297722226Y-108981950D01*
X298057342Y-109014803D01*
G37*
X298057342Y-109014803D02*
X298493498Y-109093019D01*
X298729382Y-109140506D01*
X299501262Y-109322372D01*
X300187194Y-109543317D01*
X300816765Y-109820560D01*
X301419561Y-110171321D01*
X302025171Y-110612817D01*
X302663182Y-111162268D01*
X303363182Y-111836894D01*
X303364021Y-111837735D01*
X304159823Y-112664974D01*
X304823465Y-113420112D01*
X305367480Y-114119009D01*
X305804403Y-114777528D01*
X306079084Y-115273667D01*
X306420884Y-115951000D01*
X306149329Y-116178388D01*
X305964501Y-116307759D01*
X305679551Y-116477918D01*
X305329817Y-116670895D01*
X304950635Y-116868717D01*
X304577342Y-117053414D01*
X304245276Y-117207012D01*
X303989772Y-117311542D01*
X303847500Y-117349053D01*
X303721831Y-117279107D01*
X303699334Y-117189006D01*
X303642099Y-116904519D01*
X303479917Y-116520877D01*
X303227073Y-116059168D01*
X302897852Y-115540478D01*
X302506538Y-114985893D01*
X302067415Y-114416499D01*
X301594768Y-113853382D01*
X301102881Y-113317630D01*
X301016868Y-113229256D01*
X300462598Y-112687984D01*
X299966910Y-112258490D01*
X299493033Y-111912618D01*
X299004193Y-111622214D01*
X298746334Y-111490794D01*
X298374523Y-111320941D01*
X297997639Y-111167425D01*
X297650142Y-111042127D01*
X297366489Y-110956927D01*
X297181141Y-110923705D01*
X297131169Y-110933942D01*
X297134565Y-111034949D01*
X297195853Y-111255655D01*
X297302510Y-111561759D01*
X297442014Y-111918962D01*
X297601842Y-112292965D01*
X297722286Y-112553006D01*
X298196564Y-113420506D01*
X298820084Y-114362651D01*
X299591218Y-115377199D01*
X300508336Y-116461909D01*
X300801893Y-116789851D01*
X301189305Y-117204968D01*
X301615372Y-117635661D01*
X302095154Y-118095639D01*
X302643709Y-118598612D01*
X303276096Y-119158287D01*
X304007374Y-119788375D01*
X304852602Y-120502584D01*
X305193474Y-120787769D01*
X306104111Y-121552141D01*
X306892556Y-122224466D01*
X307570307Y-122816619D01*
X308148864Y-123340480D01*
X308639725Y-123807925D01*
X309054388Y-124230834D01*
X309404354Y-124621082D01*
X309701119Y-124990548D01*
X309956183Y-125351110D01*
X310181045Y-125714645D01*
X310387203Y-126093030D01*
X310450567Y-126218119D01*
X310634984Y-126600806D01*
X310753770Y-126894510D01*
X310823788Y-127158130D01*
X310861904Y-127450563D01*
X310879230Y-127715241D01*
X310879326Y-128205423D01*
X310809110Y-128608550D01*
X310649375Y-128972367D01*
X310380908Y-129344616D01*
X310098178Y-129656467D01*
X309903551Y-129845876D01*
X309693800Y-130016685D01*
X309439558Y-130187401D01*
X309111457Y-130376529D01*
X308680129Y-130602575D01*
X308273113Y-130806535D01*
X307744252Y-131065122D01*
X307335621Y-131252696D01*
X307017565Y-131377044D01*
X306760432Y-131445952D01*
X306534568Y-131467206D01*
X306310322Y-131448594D01*
X306058040Y-131397902D01*
X306038467Y-131393331D01*
X305573414Y-131228696D01*
X305039257Y-130946311D01*
X304464425Y-130566849D01*
X303877349Y-130110982D01*
X303306456Y-129599383D01*
X302780177Y-129052727D01*
X302710811Y-128973573D01*
X301985391Y-128068677D01*
X301406303Y-127201176D01*
X300976289Y-126376548D01*
X300698091Y-125600272D01*
X300574450Y-124877827D01*
X300567918Y-124691782D01*
X300578768Y-124514308D01*
X300634509Y-124382694D01*
X300767403Y-124255057D01*
X301009713Y-124089512D01*
X301053500Y-124061377D01*
X301322676Y-123902665D01*
X301662279Y-123721978D01*
X302034658Y-123536998D01*
X302402161Y-123365406D01*
X302727138Y-123224885D01*
X302971937Y-123133115D01*
X303086501Y-123106644D01*
X303153060Y-123163271D01*
X303153653Y-123350246D01*
X303143503Y-123422833D01*
X303137162Y-123873565D01*
X303233723Y-124416152D01*
X303421043Y-125018196D01*
X303686979Y-125647302D01*
X304019388Y-126271072D01*
X304406127Y-126857109D01*
X304455513Y-126923232D01*
X304943236Y-127500836D01*
X305524919Y-128084522D01*
X306141768Y-128618867D01*
X306654131Y-128995738D01*
X307031555Y-129228793D01*
X307410657Y-129432009D01*
X307760180Y-129591911D01*
X308048865Y-129695025D01*
X308245455Y-129727877D01*
X308306454Y-129708005D01*
X308380118Y-129541999D01*
X308417805Y-129259782D01*
X308419200Y-128910682D01*
X308383990Y-128544022D01*
X308315926Y-128222907D01*
X308110332Y-127653601D01*
X307821776Y-127040900D01*
X307487168Y-126461014D01*
X307395571Y-126322667D01*
X307155789Y-126006463D01*
X306826920Y-125631069D01*
X306402149Y-125189967D01*
X305874662Y-124676639D01*
X305237645Y-124084569D01*
X304484283Y-123407238D01*
X303607761Y-122638130D01*
X302937334Y-122058901D01*
X301608358Y-120900037D01*
X300415345Y-119824745D01*
X299359539Y-118834244D01*
X298442184Y-117929751D01*
X297664523Y-117112483D01*
X297027801Y-116383658D01*
X296653081Y-115908667D01*
X295991561Y-114968417D01*
X295443617Y-114074410D01*
X295013308Y-113236258D01*
X294704689Y-112463573D01*
X294521818Y-111765965D01*
X294468750Y-111153047D01*
X294503563Y-110815897D01*
X294531187Y-110711951D01*
X294582465Y-110614801D01*
X294674701Y-110512307D01*
X294825197Y-110392327D01*
X295051252Y-110242719D01*
X295370171Y-110051342D01*
X295799254Y-109806055D01*
X296355803Y-109494715D01*
X296502656Y-109413045D01*
X296878365Y-109210008D01*
X297177213Y-109074109D01*
X297443675Y-108999904D01*
X297722226Y-108981950D01*
X298057342Y-109014803D01*
D12*
X323850000Y-57650000D02*
X323850000Y-56650000D01*
X323350000Y-57150000D02*
X324350000Y-57150000D01*
X327350000Y-51050000D02*
X329750000Y-51050000D01*
X322550000Y-51050000D02*
X325150000Y-51050000D01*
X317950000Y-51050000D02*
X320350000Y-51050000D01*
X319750000Y-64350000D02*
X320050000Y-64650000D01*
X319750000Y-64950000D02*
X319750000Y-64350000D01*
X320050000Y-64650000D02*
X319750000Y-64950000D01*
X317950000Y-63250000D02*
X329750000Y-63250000D01*
X317950000Y-59150000D02*
X317950000Y-63250000D01*
X329750000Y-59150000D02*
X329750000Y-63250000D01*
X329750000Y-51050000D02*
X329750000Y-55150000D01*
X317950000Y-55150000D02*
X317950000Y-51050000D01*
X326850000Y-57150000D02*
G75*
G03*
X326850000Y-57150000I-3000000J0D01*
G01*
D13*
X186548111Y-62960455D02*
X186548111Y-61960455D01*
X186881444Y-62674741D01*
X187214778Y-61960455D01*
X187214778Y-62960455D01*
X187690968Y-62960455D02*
X187690968Y-61960455D01*
X188119540Y-62912836D02*
X188262397Y-62960455D01*
X188500492Y-62960455D01*
X188595730Y-62912836D01*
X188643349Y-62865217D01*
X188690968Y-62769979D01*
X188690968Y-62674741D01*
X188643349Y-62579503D01*
X188595730Y-62531884D01*
X188500492Y-62484265D01*
X188310016Y-62436646D01*
X188214778Y-62389027D01*
X188167159Y-62341408D01*
X188119540Y-62246170D01*
X188119540Y-62150932D01*
X188167159Y-62055694D01*
X188214778Y-62008075D01*
X188310016Y-61960455D01*
X188548111Y-61960455D01*
X188690968Y-62008075D01*
X189310016Y-61960455D02*
X189500492Y-61960455D01*
X189595730Y-62008075D01*
X189690968Y-62103313D01*
X189738587Y-62293789D01*
X189738587Y-62627122D01*
X189690968Y-62817598D01*
X189595730Y-62912836D01*
X189500492Y-62960455D01*
X189310016Y-62960455D01*
X189214778Y-62912836D01*
X189119540Y-62817598D01*
X189071920Y-62627122D01*
X189071920Y-62293789D01*
X189119540Y-62103313D01*
X189214778Y-62008075D01*
X189310016Y-61960455D01*
X175958666Y-64341715D02*
X176292000Y-65341715D01*
X176625333Y-64341715D01*
X177530095Y-65246477D02*
X177482476Y-65294096D01*
X177339619Y-65341715D01*
X177244380Y-65341715D01*
X177101523Y-65294096D01*
X177006285Y-65198858D01*
X176958666Y-65103620D01*
X176911047Y-64913144D01*
X176911047Y-64770287D01*
X176958666Y-64579811D01*
X177006285Y-64484573D01*
X177101523Y-64389335D01*
X177244380Y-64341715D01*
X177339619Y-64341715D01*
X177482476Y-64389335D01*
X177530095Y-64436954D01*
X178530095Y-65246477D02*
X178482476Y-65294096D01*
X178339619Y-65341715D01*
X178244380Y-65341715D01*
X178101523Y-65294096D01*
X178006285Y-65198858D01*
X177958666Y-65103620D01*
X177911047Y-64913144D01*
X177911047Y-64770287D01*
X177958666Y-64579811D01*
X178006285Y-64484573D01*
X178101523Y-64389335D01*
X178244380Y-64341715D01*
X178339619Y-64341715D01*
X178482476Y-64389335D01*
X178530095Y-64436954D01*
X181086285Y-65294096D02*
X181229142Y-65341715D01*
X181467238Y-65341715D01*
X181562476Y-65294096D01*
X181610095Y-65246477D01*
X181657714Y-65151239D01*
X181657714Y-65056001D01*
X181610095Y-64960763D01*
X181562476Y-64913144D01*
X181467238Y-64865525D01*
X181276761Y-64817906D01*
X181181523Y-64770287D01*
X181133904Y-64722668D01*
X181086285Y-64627430D01*
X181086285Y-64532192D01*
X181133904Y-64436954D01*
X181181523Y-64389335D01*
X181276761Y-64341715D01*
X181514857Y-64341715D01*
X181657714Y-64389335D01*
X182657714Y-65246477D02*
X182610095Y-65294096D01*
X182467238Y-65341715D01*
X182372000Y-65341715D01*
X182229142Y-65294096D01*
X182133904Y-65198858D01*
X182086285Y-65103620D01*
X182038666Y-64913144D01*
X182038666Y-64770287D01*
X182086285Y-64579811D01*
X182133904Y-64484573D01*
X182229142Y-64389335D01*
X182372000Y-64341715D01*
X182467238Y-64341715D01*
X182610095Y-64389335D01*
X182657714Y-64436954D01*
X183086285Y-65341715D02*
X183086285Y-64341715D01*
X183657714Y-65341715D02*
X183229142Y-64770287D01*
X183657714Y-64341715D02*
X183086285Y-64913144D01*
X178213701Y-60579195D02*
X178213701Y-59579195D01*
X178547034Y-60293481D01*
X178880368Y-59579195D01*
X178880368Y-60579195D01*
X179547034Y-59579195D02*
X179737510Y-59579195D01*
X179832749Y-59626815D01*
X179927987Y-59722053D01*
X179975606Y-59912529D01*
X179975606Y-60245862D01*
X179927987Y-60436338D01*
X179832749Y-60531576D01*
X179737510Y-60579195D01*
X179547034Y-60579195D01*
X179451796Y-60531576D01*
X179356558Y-60436338D01*
X179308939Y-60245862D01*
X179308939Y-59912529D01*
X179356558Y-59722053D01*
X179451796Y-59626815D01*
X179547034Y-59579195D01*
X180356558Y-60531576D02*
X180499415Y-60579195D01*
X180737510Y-60579195D01*
X180832749Y-60531576D01*
X180880368Y-60483957D01*
X180927987Y-60388719D01*
X180927987Y-60293481D01*
X180880368Y-60198243D01*
X180832749Y-60150624D01*
X180737510Y-60103005D01*
X180547034Y-60055386D01*
X180451796Y-60007767D01*
X180404177Y-59960148D01*
X180356558Y-59864910D01*
X180356558Y-59769672D01*
X180404177Y-59674434D01*
X180451796Y-59626815D01*
X180547034Y-59579195D01*
X180785130Y-59579195D01*
X180927987Y-59626815D01*
X181356558Y-60579195D02*
X181356558Y-59579195D01*
X168521840Y-62960455D02*
X168188507Y-62484265D01*
X167950412Y-62960455D02*
X167950412Y-61960455D01*
X168331364Y-61960455D01*
X168426602Y-62008075D01*
X168474221Y-62055694D01*
X168521840Y-62150932D01*
X168521840Y-62293789D01*
X168474221Y-62389027D01*
X168426602Y-62436646D01*
X168331364Y-62484265D01*
X167950412Y-62484265D01*
X168902793Y-62912836D02*
X169045650Y-62960455D01*
X169283745Y-62960455D01*
X169378983Y-62912836D01*
X169426602Y-62865217D01*
X169474221Y-62769979D01*
X169474221Y-62674741D01*
X169426602Y-62579503D01*
X169378983Y-62531884D01*
X169283745Y-62484265D01*
X169093269Y-62436646D01*
X168998031Y-62389027D01*
X168950412Y-62341408D01*
X168902793Y-62246170D01*
X168902793Y-62150932D01*
X168950412Y-62055694D01*
X168998031Y-62008075D01*
X169093269Y-61960455D01*
X169331364Y-61960455D01*
X169474221Y-62008075D01*
X169759936Y-61960455D02*
X170331364Y-61960455D01*
X170045650Y-62960455D02*
X170045650Y-61960455D01*
X173990095Y-59626815D02*
X173894857Y-59579195D01*
X173752000Y-59579195D01*
X173609142Y-59626815D01*
X173513904Y-59722053D01*
X173466285Y-59817291D01*
X173418666Y-60007767D01*
X173418666Y-60150624D01*
X173466285Y-60341100D01*
X173513904Y-60436338D01*
X173609142Y-60531576D01*
X173752000Y-60579195D01*
X173847238Y-60579195D01*
X173990095Y-60531576D01*
X174037714Y-60483957D01*
X174037714Y-60150624D01*
X173847238Y-60150624D01*
X174466285Y-60579195D02*
X174466285Y-59579195D01*
X175037714Y-60579195D01*
X175037714Y-59579195D01*
X175513904Y-60579195D02*
X175513904Y-59579195D01*
X175752000Y-59579195D01*
X175894857Y-59626815D01*
X175990095Y-59722053D01*
X176037714Y-59817291D01*
X176085333Y-60007767D01*
X176085333Y-60150624D01*
X176037714Y-60341100D01*
X175990095Y-60436338D01*
X175894857Y-60531576D01*
X175752000Y-60579195D01*
X175513904Y-60579195D01*
X317054761Y-63183333D02*
X317102380Y-63040476D01*
X317102380Y-62802380D01*
X317054761Y-62707142D01*
X317007142Y-62659523D01*
X316911904Y-62611904D01*
X316816666Y-62611904D01*
X316721428Y-62659523D01*
X316673809Y-62707142D01*
X316626190Y-62802380D01*
X316578571Y-62992857D01*
X316530952Y-63088095D01*
X316483333Y-63135714D01*
X316388095Y-63183333D01*
X316292857Y-63183333D01*
X316197619Y-63135714D01*
X316150000Y-63088095D01*
X316102380Y-62992857D01*
X316102380Y-62754761D01*
X316150000Y-62611904D01*
X316102380Y-62278571D02*
X317102380Y-62040476D01*
X316388095Y-61850000D01*
X317102380Y-61659523D01*
X316102380Y-61421428D01*
X316197619Y-61088095D02*
X316150000Y-61040476D01*
X316102380Y-60945238D01*
X316102380Y-60707142D01*
X316150000Y-60611904D01*
X316197619Y-60564285D01*
X316292857Y-60516666D01*
X316388095Y-60516666D01*
X316530952Y-60564285D01*
X317102380Y-61135714D01*
X317102380Y-60516666D01*
M02*
