G04 #@! TF.GenerationSoftware,KiCad,Pcbnew,(5.1.10)-1*
G04 #@! TF.CreationDate,2021-10-06T09:16:15+07:00*
G04 #@! TF.ProjectId,averange65,61766572-616e-4676-9536-352e6b696361,rev?*
G04 #@! TF.SameCoordinates,Original*
G04 #@! TF.FileFunction,Profile,NP*
%FSLAX46Y46*%
G04 Gerber Fmt 4.6, Leading zero omitted, Abs format (unit mm)*
G04 Created by KiCad (PCBNEW (5.1.10)-1) date 2021-10-06 09:16:15*
%MOMM*%
%LPD*%
G01*
G04 APERTURE LIST*
G04 #@! TA.AperFunction,Profile*
%ADD10C,0.100000*%
G04 #@! TD*
G04 #@! TA.AperFunction,Profile*
%ADD11C,0.150000*%
G04 #@! TD*
G04 APERTURE END LIST*
D10*
X173672642Y-112046130D02*
X183198390Y-112046130D01*
X154622614Y-110046182D02*
X149860094Y-110046182D01*
X154622614Y-112046182D02*
X149860122Y-112046182D01*
X146288204Y-113618072D02*
X110569464Y-113618072D01*
X146288204Y-115618072D02*
X110569464Y-115618072D01*
X106997574Y-112046182D02*
X102235054Y-112046182D01*
X106997574Y-110046182D02*
X102235054Y-110046182D01*
X91519880Y-113618020D02*
X98663164Y-113618072D01*
X91519880Y-115618020D02*
X98663164Y-115618072D01*
X106997574Y-112046182D02*
X110569464Y-115618072D01*
X149860094Y-112046182D02*
X146288204Y-115618072D01*
X102235054Y-112046182D02*
X98663164Y-115618072D01*
X149860094Y-110046182D02*
X146288204Y-113618072D01*
X154622614Y-110046182D02*
X158194504Y-113618072D01*
X102235054Y-110046182D02*
X98663164Y-113618072D01*
X106997574Y-110046182D02*
X110569464Y-113618072D01*
X154622614Y-112046182D02*
X158194504Y-115618072D01*
X74851060Y-115618020D02*
X42704050Y-115618020D01*
X42704050Y-113618020D02*
X74851060Y-113618020D01*
X158194504Y-113618072D02*
X170100752Y-113618020D01*
X170100752Y-115618020D02*
X158194504Y-115618072D01*
X186770280Y-115618020D02*
X193914060Y-115618020D01*
X186770280Y-113618020D02*
X193914060Y-113618020D01*
X233204094Y-115617160D02*
X205820360Y-115618020D01*
X205820360Y-113618020D02*
X233204094Y-113617160D01*
D11*
X301490767Y-39998716D02*
X25630341Y-39998584D01*
X12174662Y-39998508D02*
X3002070Y-39998767D01*
X301490767Y-39998716D02*
G75*
G02*
X303856094Y-42364041I-15873J-2381200D01*
G01*
X13740101Y-35220277D02*
G75*
G02*
X14517818Y-34442559I793592J-15874D01*
G01*
X643093Y-42364043D02*
G75*
G02*
X643040Y-42395793I-53J-15875D01*
G01*
X13739864Y-38427036D02*
G75*
G02*
X12174662Y-39998508I-1587424J15875D01*
G01*
X643093Y-42364044D02*
G75*
G02*
X3002070Y-39998767I2381200J-15872D01*
G01*
X643040Y-42395793D02*
X643040Y-129676719D01*
X24058790Y-38427036D02*
X24058552Y-35220276D01*
X13740101Y-35220277D02*
X13739863Y-38427036D01*
X303856094Y-129708468D02*
G75*
G02*
X301490767Y-132073793I-2381200J15875D01*
G01*
X25630341Y-39998584D02*
G75*
G02*
X24058790Y-38427036I15872J1587423D01*
G01*
X303856094Y-129708468D02*
X303856094Y-42364041D01*
X3008420Y-132073846D02*
X301490767Y-132073793D01*
X3008420Y-132073846D02*
G75*
G02*
X643040Y-129676719I15873J2381253D01*
G01*
X23280834Y-34442559D02*
X14517818Y-34442559D01*
X23280834Y-34442559D02*
G75*
G02*
X24058552Y-35220276I-15874J-793592D01*
G01*
D10*
X28416250Y-58467500D02*
G75*
G02*
X28416250Y-56467500I0J1000000D01*
G01*
X233204094Y-113617160D02*
G75*
G02*
X233204094Y-115617160I0J-1000000D01*
G01*
X42704050Y-115618020D02*
G75*
G02*
X42704050Y-113618020I0J1000000D01*
G01*
X202248470Y-112046130D02*
X205820360Y-115618020D01*
X183198390Y-112046130D02*
X186770280Y-115618020D01*
X87947990Y-112046130D02*
X91519880Y-115618020D01*
X193914060Y-115618020D02*
X197485950Y-112046130D01*
X170100752Y-115618020D02*
X173672642Y-112046130D01*
X78422950Y-112046130D02*
X87947990Y-112046130D01*
X197485950Y-112046130D02*
X202248470Y-112046130D01*
X74851060Y-115618020D02*
X78422950Y-112046130D01*
X202248470Y-110046130D02*
X205820360Y-113618020D01*
X183198390Y-110046130D02*
X186770280Y-113618020D01*
X87947990Y-110046130D02*
X91519880Y-113618020D01*
X193914060Y-113618020D02*
X197485950Y-110046130D01*
X170100752Y-113618020D02*
X173672642Y-110046130D01*
X78422950Y-110046130D02*
X87947990Y-110046130D01*
X197485950Y-110046130D02*
X202248470Y-110046130D01*
X173672642Y-110046130D02*
X183198390Y-110046130D01*
X74851060Y-113618020D02*
X78422950Y-110046130D01*
X42704050Y-96567500D02*
G75*
G02*
X42704050Y-94567500I0J1000000D01*
G01*
X242729834Y-96567500D02*
X42704050Y-96567500D01*
X242729834Y-94567500D02*
X42704050Y-94567500D01*
X242729834Y-94567500D02*
G75*
G02*
X242729834Y-96567500I0J-1000000D01*
G01*
X242729890Y-77517500D02*
X28416250Y-77517500D01*
X242729890Y-75517500D02*
G75*
G02*
X242729890Y-77517500I0J-1000000D01*
G01*
X28416250Y-77517500D02*
G75*
G02*
X28416250Y-75517500I0J1000000D01*
G01*
X242729890Y-75517500D02*
X28416250Y-75517500D01*
X247491434Y-56467500D02*
X28416250Y-56467500D01*
X247491434Y-56467500D02*
G75*
G02*
X247491434Y-58467500I0J-1000000D01*
G01*
X247491434Y-58467500D02*
X28416250Y-58467500D01*
M02*
