G04 #@! TF.GenerationSoftware,KiCad,Pcbnew,(5.1.10)-1*
G04 #@! TF.CreationDate,2021-10-06T09:16:14+07:00*
G04 #@! TF.ProjectId,averange65,61766572-616e-4676-9536-352e6b696361,rev?*
G04 #@! TF.SameCoordinates,Original*
G04 #@! TF.FileFunction,Legend,Top*
G04 #@! TF.FilePolarity,Positive*
%FSLAX46Y46*%
G04 Gerber Fmt 4.6, Leading zero omitted, Abs format (unit mm)*
G04 Created by KiCad (PCBNEW (5.1.10)-1) date 2021-10-06 09:16:14*
%MOMM*%
%LPD*%
G01*
G04 APERTURE LIST*
%ADD10C,2.000000*%
%ADD11C,0.250000*%
%ADD12C,0.120000*%
G04 APERTURE END LIST*
D10*
X303856084Y-129709968D02*
G75*
G02*
X301490767Y-132073793I-2381190J17375D01*
G01*
X23280946Y-34442561D02*
G75*
G02*
X24058552Y-35220276I-15986J-793590D01*
G01*
X24058790Y-38427036D02*
X24058552Y-35220276D01*
X643088Y-42364735D02*
G75*
G02*
X3002070Y-39998767I2381205J-15181D01*
G01*
X643040Y-42395793D02*
X643040Y-129676719D01*
X3008419Y-132073846D02*
G75*
G02*
X643040Y-129676719I15874J2381253D01*
G01*
X3008420Y-132073846D02*
X301490767Y-132073793D01*
X303856094Y-129708468D02*
X303856094Y-42364041D01*
X301492267Y-39998726D02*
G75*
G02*
X303856094Y-42364041I-17373J-2381190D01*
G01*
X301489497Y-39998704D02*
X25629071Y-39998572D01*
X25631611Y-39998596D02*
G75*
G02*
X24058790Y-38427036I14602J1587435D01*
G01*
X23280834Y-34442559D02*
X14517818Y-34442559D01*
X13740103Y-35220165D02*
G75*
G02*
X14517818Y-34442559I793590J-15986D01*
G01*
X13740101Y-35220277D02*
X13739863Y-38427036D01*
X13739857Y-38427728D02*
G75*
G02*
X12174662Y-39998508I-1587417J16567D01*
G01*
X12174662Y-39998508D02*
X3002070Y-39998767D01*
D11*
X142248250Y-54486500D02*
X142248250Y-51986500D01*
X147248250Y-54486500D02*
X142248250Y-54486500D01*
X147248250Y-51986500D02*
X147248250Y-54486500D01*
X142248250Y-51986500D02*
X147248250Y-51986500D01*
D12*
X295116250Y-48442500D02*
X295116250Y-47442500D01*
X294616250Y-47942500D02*
X295616250Y-47942500D01*
X298616250Y-41842500D02*
X301016250Y-41842500D01*
X293816250Y-41842500D02*
X296416250Y-41842500D01*
X289216250Y-41842500D02*
X291616250Y-41842500D01*
X291016250Y-55142500D02*
X291316250Y-55442500D01*
X291016250Y-55742500D02*
X291016250Y-55142500D01*
X291316250Y-55442500D02*
X291016250Y-55742500D01*
X289216250Y-54042500D02*
X301016250Y-54042500D01*
X289216250Y-49942500D02*
X289216250Y-54042500D01*
X301016250Y-49942500D02*
X301016250Y-54042500D01*
X301016250Y-41842500D02*
X301016250Y-45942500D01*
X289216250Y-45942500D02*
X289216250Y-41842500D01*
X298116250Y-47942500D02*
G75*
G03*
X298116250Y-47942500I-3000000J0D01*
G01*
M02*
