0
SECTION
2
HEADER
9
$INSUNITS
70
4
9
$ACADVER
1
AC1014
9
$HANDSEED
5
FFFF
0
ENDSEC
0
SECTION
2
TABLES
0
TABLE
2
VPORT
5
8
100
AcDbSymbolTable
0
ENDTAB
0
TABLE
2
LTYPE
5
5
100
AcDbSymbolTable
0
LTYPE
5
14
100
AcDbSymbolTableRecord
100
AcDbLinetypeTableRecord
2
BYBLOCK
70
0
0
LTYPE
5
15
100
AcDbSymbolTableRecord
100
AcDbLinetypeTableRecord
2
BYLAYER
70
0
0
ENDTAB
0
TABLE
2
LAYER
5
2
100
AcDbSymbolTable
70
2
0
LAYER
5
50
100
AcDbSymbolTableRecord
100
AcDbLayerTableRecord
2
0
70
0
6
CONTINUOUS
0
ENDTAB
0
TABLE
2
STYLE
5
3
100
AcDbSymbolTable
70
1
0
STYLE
5
11
100
AcDbSymbolTableRecord
100
AcDbTextStyleTableRecord
2
STANDARD
70
0
0
ENDTAB
0
TABLE
2
VIEW
5
6
100
AcDbSymbolTable
70
0
0
ENDTAB
0
TABLE
2
UCS
5
7
100
AcDbSymbolTable
70
0
0
ENDTAB
0
TABLE
2
APPID
5
9
100
AcDbSymbolTable
70
2
0
APPID
5
12
100
AcDbSymbolTableRecord
100
AcDbRegAppTableRecord
2
ACAD
70
0
0
ENDTAB
0
TABLE
2
DIMSTYLE
5
A
100
AcDbSymbolTable
70
1
0
ENDTAB
0
TABLE
2
BLOCK_RECORD
5
1
100
AcDbSymbolTable
70
1
0
BLOCK_RECORD
5
1F
100
AcDbSymbolTableRecord
100
AcDbBlockTableRecord
2
*MODEL_SPACE
0
BLOCK_RECORD
5
1B
100
AcDbSymbolTableRecord
100
AcDbBlockTableRecord
2
*PAPER_SPACE
0
ENDTAB
0
ENDSEC
0
SECTION
2
BLOCKS
0
BLOCK
5
20
100
AcDbEntity
100
AcDbBlockBegin
2
*MODEL_SPACE
0
ENDBLK
5
21
100
AcDbEntity
100
AcDbBlockEnd
0
BLOCK
5
1C
100
AcDbEntity
100
AcDbBlockBegin
2
*PAPER_SPACE
0
ENDBLK
5
1D
100
AcDbEntity
100
AcDbBlockEnd
0
ENDSEC
0
SECTION
2
ENTITIES
0
LWPOLYLINE
5
100
100
AcDbEntity
8
0
100
AcDbPolyline
90
40
70
1
43
0.0
10
279.35102610258161
20
104.70583986899391
42
-0.55007404733454124
10
278.44661714886917
20
103.27917320232714
10
210.22968430171389
20
103.27917320232717
42
-0.550074047334139
10
209.3252753480013
20
104.70583986899382
42
1.5774574774057215
10
204.35102610258207
20
104.70583986899396
42
-0.55007404733420107
10
203.44661714886925
20
103.27917320232716
10
87.530334301713566
20
103.27917320232707
42
-0.55007404733424281
10
86.625925348000834
20
104.70583986899398
42
1.5774574774057331
10
81.651676102581646
20
104.70583986899385
42
-0.55007404733407317
10
80.747267148869071
20
103.27917320232717
10
12.530334301713566
20
103.27917320232741
42
-0.55007404733422394
10
11.625925348001287
20
104.70583986899392
42
1.5774574774056711
10
6.6516761025816731
20
104.70583986899378
42
-0.55007404733412557
10
5.7472671488693559
20
103.2791732023272
10
1.1388007252912757
20
103.27917320232729
42
0.41421356237304968
10
0.13880072529120324
20
102.27917320232706
10
0.13880072529126153
20
6.4798432023271602
42
0.41421356237302998
10
1.1388007252912757
20
5.4798432023270749
10
5.747267148869355
20
5.479843202327114
42
-0.55007404733424914
10
6.6516761025816615
20
4.0531765356604064
42
1.5774574774057091
10
11.625925348000681
20
4.0531765356602225
42
-0.55007404733420151
10
12.530334301713566
20
5.4798432023271735
10
80.747267148869071
20
5.4798432023270074
42
-0.55007404733407739
10
81.651676102581533
20
4.0531765356604863
42
1.5774574774056518
10
86.625925348000948
20
4.0531765356604215
42
-0.55007404733424092
10
87.530334301713566
20
5.4798432023271637
10
203.44661714886925
20
5.4798432023271175
42
-0.55007404733421983
10
204.35102610258213
20
4.0531765356603264
42
1.5774574774056689
10
209.32527534800133
20
4.0531765356604792
42
-0.55007404733406629
10
210.22968430171389
20
5.4798432023271459
10
278.44661714886917
20
5.4798432023270252
42
-0.55007404733420051
10
279.35102610258195
20
4.0531765356603842
42
1.5774574774056982
10
284.3252753480009
20
4.0531765356601941
42
-0.55007404733414189
10
285.22968430171363
20
5.4798432023271193
10
289.83815072529137
20
5.4798432023271282
42
0.41421356237319129
10
290.83815072529137
20
6.4798432023271246
10
290.83815072529148
20
102.27917320232717
42
0.41421356237309503
10
289.83815072529137
20
103.27917320232726
10
285.22968430171363
20
103.2791732023272
42
-0.5500740473342427
10
284.32527534800101
20
104.70583986899383
42
1.5774574774057424
0
ENDSEC
0
SECTION
2
OBJECTS
0
DICTIONARY
5
C
100
AcDbDictionary
3
ACAD_GROUP
350
D
3
ACAD_MLINESTYLE
350
17
0
DICTIONARY
5
D
100
AcDbDictionary
0
DICTIONARY
5
1A
330
C
100
AcDbDictionary
0
DICTIONARY
5
17
100
AcDbDictionary
0
ENDSEC
0
EOF
