%TF.GenerationSoftware,KiCad,Pcbnew,(5.1.11)-1*%
%TF.CreationDate,2022-07-20T14:15:52+07:00*%
%TF.ProjectId,Malenia,4d616c65-6e69-4612-9e6b-696361645f70,rev?*%
%TF.SameCoordinates,Original*%
%TF.FileFunction,Legend,Bot*%
%TF.FilePolarity,Positive*%
%FSLAX46Y46*%
G04 Gerber Fmt 4.6, Leading zero omitted, Abs format (unit mm)*
G04 Created by KiCad (PCBNEW (5.1.11)-1) date 2022-07-20 14:15:52*
%MOMM*%
%LPD*%
G01*
G04 APERTURE LIST*
%ADD10C,0.120000*%
%ADD11C,0.100000*%
%ADD12C,0.150000*%
G04 APERTURE END LIST*
D10*
%TO.C,U1*%
X51310535Y-69689686D02*
X50860535Y-69689686D01*
X50860535Y-69689686D02*
X50860535Y-69239686D01*
X57630535Y-69689686D02*
X58080535Y-69689686D01*
X58080535Y-69689686D02*
X58080535Y-69239686D01*
X51310535Y-62469686D02*
X50860535Y-62469686D01*
X50860535Y-62469686D02*
X50860535Y-62919686D01*
X57630535Y-62469686D02*
X58080535Y-62469686D01*
X58080535Y-62469686D02*
X58080535Y-62919686D01*
X58080535Y-62919686D02*
X59370535Y-62919686D01*
D11*
%TO.C,R13*%
X298800000Y-62050000D02*
X298400000Y-61950000D01*
X298400000Y-61750000D02*
X298800000Y-61650000D01*
X298800000Y-62250000D02*
X298400000Y-62150000D01*
X298400000Y-62350000D02*
X298800000Y-62250000D01*
X298400000Y-62150000D02*
X298800000Y-62050000D01*
X298400000Y-61950000D02*
X298800000Y-61850000D01*
X298800000Y-61850000D02*
X298400000Y-61750000D01*
D10*
X299480000Y-62600000D02*
X299480000Y-61400000D01*
X297720000Y-61400000D02*
X297720000Y-62600000D01*
D11*
%TO.C,R12*%
X298800000Y-65650000D02*
X298400000Y-65550000D01*
X298400000Y-65350000D02*
X298800000Y-65250000D01*
X298800000Y-65850000D02*
X298400000Y-65750000D01*
X298400000Y-65950000D02*
X298800000Y-65850000D01*
X298400000Y-65750000D02*
X298800000Y-65650000D01*
X298400000Y-65550000D02*
X298800000Y-65450000D01*
X298800000Y-65450000D02*
X298400000Y-65350000D01*
D10*
X299480000Y-66200000D02*
X299480000Y-65000000D01*
X297720000Y-65000000D02*
X297720000Y-66200000D01*
%TO.C,C12*%
X301000000Y-62350000D02*
X301000000Y-61650000D01*
X299800000Y-61650000D02*
X299800000Y-62350000D01*
%TO.C,C11*%
X301000000Y-65950000D02*
X301000000Y-65250000D01*
X299800000Y-65250000D02*
X299800000Y-65950000D01*
%TO.C,C10*%
X286172790Y-86670355D02*
X286172790Y-85970355D01*
X284972790Y-85970355D02*
X284972790Y-86670355D01*
%TO.C,Q1*%
X284696215Y-81450000D02*
X285746215Y-81450000D01*
X284696215Y-83250000D02*
X284696215Y-81450000D01*
X287996215Y-81450000D02*
X286946215Y-81450000D01*
X287996215Y-83850000D02*
X287996215Y-81450000D01*
D11*
%TO.C,R11*%
X33387340Y-68856220D02*
X33287340Y-69256220D01*
X33087340Y-69256220D02*
X32987340Y-68856220D01*
X33587340Y-68856220D02*
X33487340Y-69256220D01*
X33687340Y-69256220D02*
X33587340Y-68856220D01*
X33487340Y-69256220D02*
X33387340Y-68856220D01*
X33287340Y-69256220D02*
X33187340Y-68856220D01*
X33187340Y-68856220D02*
X33087340Y-69256220D01*
D10*
X33937340Y-68176220D02*
X32737340Y-68176220D01*
X32737340Y-69936220D02*
X33937340Y-69936220D01*
D11*
%TO.C,D95*%
G36*
X35536280Y-87543940D02*
G01*
X35536280Y-86743940D01*
X36336280Y-86743940D01*
X35536280Y-87543940D01*
G37*
X35536280Y-87543940D02*
X35536280Y-86743940D01*
X36336280Y-86743940D01*
X35536280Y-87543940D01*
D12*
X31486280Y-81893940D02*
X31986280Y-81893940D01*
X30986280Y-80393940D02*
X30986280Y-81393940D01*
X31986280Y-79893940D02*
X31486280Y-79893940D01*
X32486280Y-81393940D02*
X32486280Y-80393940D01*
X31486280Y-79893940D02*
G75*
G03*
X30986280Y-80393940I0J-500000D01*
G01*
X30986280Y-81393940D02*
G75*
G03*
X31486280Y-81893940I500000J0D01*
G01*
X31986280Y-81893940D02*
G75*
G03*
X32486280Y-81393940I0J500000D01*
G01*
X32486280Y-80393940D02*
G75*
G03*
X31986280Y-79893940I-500000J0D01*
G01*
D11*
%TO.C,D94*%
G36*
X47591045Y-117690950D02*
G01*
X48391045Y-117690950D01*
X48391045Y-118490950D01*
X47591045Y-117690950D01*
G37*
X47591045Y-117690950D02*
X48391045Y-117690950D01*
X48391045Y-118490950D01*
X47591045Y-117690950D01*
D12*
X53241045Y-113640950D02*
X53241045Y-114140950D01*
X54741045Y-113140950D02*
X53741045Y-113140950D01*
X55241045Y-114140950D02*
X55241045Y-113640950D01*
X53741045Y-114640950D02*
X54741045Y-114640950D01*
X55241045Y-113640950D02*
G75*
G03*
X54741045Y-113140950I-500000J0D01*
G01*
X53741045Y-113140950D02*
G75*
G03*
X53241045Y-113640950I0J-500000D01*
G01*
X53241045Y-114140950D02*
G75*
G03*
X53741045Y-114640950I500000J0D01*
G01*
X54741045Y-114640950D02*
G75*
G03*
X55241045Y-114140950I0J500000D01*
G01*
D11*
%TO.C,D93*%
G36*
X70808330Y-117690950D02*
G01*
X71608330Y-117690950D01*
X71608330Y-118490950D01*
X70808330Y-117690950D01*
G37*
X70808330Y-117690950D02*
X71608330Y-117690950D01*
X71608330Y-118490950D01*
X70808330Y-117690950D01*
D12*
X76458330Y-113640950D02*
X76458330Y-114140950D01*
X77958330Y-113140950D02*
X76958330Y-113140950D01*
X78458330Y-114140950D02*
X78458330Y-113640950D01*
X76958330Y-114640950D02*
X77958330Y-114640950D01*
X78458330Y-113640950D02*
G75*
G03*
X77958330Y-113140950I-500000J0D01*
G01*
X76958330Y-113140950D02*
G75*
G03*
X76458330Y-113640950I0J-500000D01*
G01*
X76458330Y-114140950D02*
G75*
G03*
X76958330Y-114640950I500000J0D01*
G01*
X77958330Y-114640950D02*
G75*
G03*
X78458330Y-114140950I0J500000D01*
G01*
%TO.C,D92*%
X104342820Y-114640950D02*
X105342820Y-114640950D01*
X105842820Y-114140950D02*
X105842820Y-113640950D01*
X105342820Y-113140950D02*
X104342820Y-113140950D01*
X103842820Y-113640950D02*
X103842820Y-114140950D01*
D11*
G36*
X98192820Y-117690950D02*
G01*
X98992820Y-117690950D01*
X98992820Y-118490950D01*
X98192820Y-117690950D01*
G37*
X98192820Y-117690950D02*
X98992820Y-117690950D01*
X98992820Y-118490950D01*
X98192820Y-117690950D01*
D12*
X105342820Y-114640950D02*
G75*
G03*
X105842820Y-114140950I0J500000D01*
G01*
X103842820Y-114140950D02*
G75*
G03*
X104342820Y-114640950I500000J0D01*
G01*
X104342820Y-113140950D02*
G75*
G03*
X103842820Y-113640950I0J-500000D01*
G01*
X105842820Y-113640950D02*
G75*
G03*
X105342820Y-113140950I-500000J0D01*
G01*
%TO.C,D91*%
X143633610Y-114640950D02*
X144633610Y-114640950D01*
X145133610Y-114140950D02*
X145133610Y-113640950D01*
X144633610Y-113140950D02*
X143633610Y-113140950D01*
X143133610Y-113640950D02*
X143133610Y-114140950D01*
D11*
G36*
X137483610Y-117690950D02*
G01*
X138283610Y-117690950D01*
X138283610Y-118490950D01*
X137483610Y-117690950D01*
G37*
X137483610Y-117690950D02*
X138283610Y-117690950D01*
X138283610Y-118490950D01*
X137483610Y-117690950D01*
D12*
X144633610Y-114640950D02*
G75*
G03*
X145133610Y-114140950I0J500000D01*
G01*
X143133610Y-114140950D02*
G75*
G03*
X143633610Y-114640950I500000J0D01*
G01*
X143633610Y-113140950D02*
G75*
G03*
X143133610Y-113640950I0J-500000D01*
G01*
X145133610Y-113640950D02*
G75*
G03*
X144633610Y-113140950I-500000J0D01*
G01*
%TO.C,D90*%
X175185305Y-114640950D02*
X176185305Y-114640950D01*
X176685305Y-114140950D02*
X176685305Y-113640950D01*
X176185305Y-113140950D02*
X175185305Y-113140950D01*
X174685305Y-113640950D02*
X174685305Y-114140950D01*
D11*
G36*
X169035305Y-117690950D02*
G01*
X169835305Y-117690950D01*
X169835305Y-118490950D01*
X169035305Y-117690950D01*
G37*
X169035305Y-117690950D02*
X169835305Y-117690950D01*
X169835305Y-118490950D01*
X169035305Y-117690950D01*
D12*
X176185305Y-114640950D02*
G75*
G03*
X176685305Y-114140950I0J500000D01*
G01*
X174685305Y-114140950D02*
G75*
G03*
X175185305Y-114640950I500000J0D01*
G01*
X175185305Y-113140950D02*
G75*
G03*
X174685305Y-113640950I0J-500000D01*
G01*
X176685305Y-113640950D02*
G75*
G03*
X176185305Y-113140950I-500000J0D01*
G01*
%TO.C,D89*%
X215666725Y-114640950D02*
X216666725Y-114640950D01*
X217166725Y-114140950D02*
X217166725Y-113640950D01*
X216666725Y-113140950D02*
X215666725Y-113140950D01*
X215166725Y-113640950D02*
X215166725Y-114140950D01*
D11*
G36*
X209516725Y-117690950D02*
G01*
X210316725Y-117690950D01*
X210316725Y-118490950D01*
X209516725Y-117690950D01*
G37*
X209516725Y-117690950D02*
X210316725Y-117690950D01*
X210316725Y-118490950D01*
X209516725Y-117690950D01*
D12*
X216666725Y-114640950D02*
G75*
G03*
X217166725Y-114140950I0J500000D01*
G01*
X215166725Y-114140950D02*
G75*
G03*
X215666725Y-114640950I500000J0D01*
G01*
X215666725Y-113140950D02*
G75*
G03*
X215166725Y-113640950I0J-500000D01*
G01*
X217166725Y-113640950D02*
G75*
G03*
X216666725Y-113140950I-500000J0D01*
G01*
%TO.C,D88*%
X243647570Y-114640950D02*
X244647570Y-114640950D01*
X245147570Y-114140950D02*
X245147570Y-113640950D01*
X244647570Y-113140950D02*
X243647570Y-113140950D01*
X243147570Y-113640950D02*
X243147570Y-114140950D01*
D11*
G36*
X237497570Y-117690950D02*
G01*
X238297570Y-117690950D01*
X238297570Y-118490950D01*
X237497570Y-117690950D01*
G37*
X237497570Y-117690950D02*
X238297570Y-117690950D01*
X238297570Y-118490950D01*
X237497570Y-117690950D01*
D12*
X244647570Y-114640950D02*
G75*
G03*
X245147570Y-114140950I0J500000D01*
G01*
X243147570Y-114140950D02*
G75*
G03*
X243647570Y-114640950I500000J0D01*
G01*
X243647570Y-113140950D02*
G75*
G03*
X243147570Y-113640950I0J-500000D01*
G01*
X245147570Y-113640950D02*
G75*
G03*
X244647570Y-113140950I-500000J0D01*
G01*
%TO.C,D87*%
X273413320Y-114640950D02*
X274413320Y-114640950D01*
X274913320Y-114140950D02*
X274913320Y-113640950D01*
X274413320Y-113140950D02*
X273413320Y-113140950D01*
X272913320Y-113640950D02*
X272913320Y-114140950D01*
D11*
G36*
X267263320Y-117690950D02*
G01*
X268063320Y-117690950D01*
X268063320Y-118490950D01*
X267263320Y-117690950D01*
G37*
X267263320Y-117690950D02*
X268063320Y-117690950D01*
X268063320Y-118490950D01*
X267263320Y-117690950D01*
D12*
X274413320Y-114640950D02*
G75*
G03*
X274913320Y-114140950I0J500000D01*
G01*
X272913320Y-114140950D02*
G75*
G03*
X273413320Y-114640950I500000J0D01*
G01*
X273413320Y-113140950D02*
G75*
G03*
X272913320Y-113640950I0J-500000D01*
G01*
X274913320Y-113640950D02*
G75*
G03*
X274413320Y-113140950I-500000J0D01*
G01*
%TO.C,D86*%
X316274960Y-97972130D02*
X317274960Y-97972130D01*
X317774960Y-97472130D02*
X317774960Y-96972130D01*
X317274960Y-96472130D02*
X316274960Y-96472130D01*
X315774960Y-96972130D02*
X315774960Y-97472130D01*
D11*
G36*
X310124960Y-101022130D02*
G01*
X310924960Y-101022130D01*
X310924960Y-101822130D01*
X310124960Y-101022130D01*
G37*
X310124960Y-101022130D02*
X310924960Y-101022130D01*
X310924960Y-101822130D01*
X310124960Y-101022130D01*
D12*
X317274960Y-97972130D02*
G75*
G03*
X317774960Y-97472130I0J500000D01*
G01*
X315774960Y-97472130D02*
G75*
G03*
X316274960Y-97972130I500000J0D01*
G01*
X316274960Y-96472130D02*
G75*
G03*
X315774960Y-96972130I0J-500000D01*
G01*
X317774960Y-96972130D02*
G75*
G03*
X317274960Y-96472130I-500000J0D01*
G01*
%TO.C,D85*%
X327762520Y-81393940D02*
X327762520Y-80393940D01*
X327262520Y-79893940D02*
X326762520Y-79893940D01*
X326262520Y-80393940D02*
X326262520Y-81393940D01*
X326762520Y-81893940D02*
X327262520Y-81893940D01*
D11*
G36*
X330812520Y-87543940D02*
G01*
X330812520Y-86743940D01*
X331612520Y-86743940D01*
X330812520Y-87543940D01*
G37*
X330812520Y-87543940D02*
X330812520Y-86743940D01*
X331612520Y-86743940D01*
X330812520Y-87543940D01*
D12*
X327762520Y-80393940D02*
G75*
G03*
X327262520Y-79893940I-500000J0D01*
G01*
X327262520Y-81893940D02*
G75*
G03*
X327762520Y-81393940I0J500000D01*
G01*
X326262520Y-81393940D02*
G75*
G03*
X326762520Y-81893940I500000J0D01*
G01*
X326762520Y-79893940D02*
G75*
G03*
X326262520Y-80393940I0J-500000D01*
G01*
%TO.C,D84*%
X327762520Y-62343860D02*
X327762520Y-61343860D01*
X327262520Y-60843860D02*
X326762520Y-60843860D01*
X326262520Y-61343860D02*
X326262520Y-62343860D01*
X326762520Y-62843860D02*
X327262520Y-62843860D01*
D11*
G36*
X330812520Y-68493860D02*
G01*
X330812520Y-67693860D01*
X331612520Y-67693860D01*
X330812520Y-68493860D01*
G37*
X330812520Y-68493860D02*
X330812520Y-67693860D01*
X331612520Y-67693860D01*
X330812520Y-68493860D01*
D12*
X327762520Y-61343860D02*
G75*
G03*
X327262520Y-60843860I-500000J0D01*
G01*
X327262520Y-62843860D02*
G75*
G03*
X327762520Y-62343860I0J500000D01*
G01*
X326262520Y-62343860D02*
G75*
G03*
X326762520Y-62843860I500000J0D01*
G01*
X326762520Y-60843860D02*
G75*
G03*
X326262520Y-61343860I0J-500000D01*
G01*
%TO.C,D83*%
X312374960Y-48475040D02*
X311374960Y-48475040D01*
X310874960Y-48975040D02*
X310874960Y-49475040D01*
X311374960Y-49975040D02*
X312374960Y-49975040D01*
X312874960Y-49475040D02*
X312874960Y-48975040D01*
D11*
G36*
X318524960Y-45425040D02*
G01*
X317724960Y-45425040D01*
X317724960Y-44625040D01*
X318524960Y-45425040D01*
G37*
X318524960Y-45425040D02*
X317724960Y-45425040D01*
X317724960Y-44625040D01*
X318524960Y-45425040D01*
D12*
X311374960Y-48475040D02*
G75*
G03*
X310874960Y-48975040I0J-500000D01*
G01*
X312874960Y-48975040D02*
G75*
G03*
X312374960Y-48475040I-500000J0D01*
G01*
X312374960Y-49975040D02*
G75*
G03*
X312874960Y-49475040I0J500000D01*
G01*
X310874960Y-49475040D02*
G75*
G03*
X311374960Y-49975040I500000J0D01*
G01*
%TO.C,D82*%
X270406586Y-43712288D02*
X269406586Y-43712288D01*
X268906586Y-44212288D02*
X268906586Y-44712288D01*
X269406586Y-45212288D02*
X270406586Y-45212288D01*
X270906586Y-44712288D02*
X270906586Y-44212288D01*
D11*
G36*
X276556586Y-40662288D02*
G01*
X275756586Y-40662288D01*
X275756586Y-39862288D01*
X276556586Y-40662288D01*
G37*
X276556586Y-40662288D02*
X275756586Y-40662288D01*
X275756586Y-39862288D01*
X276556586Y-40662288D01*
D12*
X269406586Y-43712288D02*
G75*
G03*
X268906586Y-44212288I0J-500000D01*
G01*
X270906586Y-44212288D02*
G75*
G03*
X270406586Y-43712288I-500000J0D01*
G01*
X270406586Y-45212288D02*
G75*
G03*
X270906586Y-44712288I0J500000D01*
G01*
X268906586Y-44712288D02*
G75*
G03*
X269406586Y-45212288I500000J0D01*
G01*
%TO.C,D81*%
X236174940Y-43712280D02*
X235174940Y-43712280D01*
X234674940Y-44212280D02*
X234674940Y-44712280D01*
X235174940Y-45212280D02*
X236174940Y-45212280D01*
X236674940Y-44712280D02*
X236674940Y-44212280D01*
D11*
G36*
X242324940Y-40662280D02*
G01*
X241524940Y-40662280D01*
X241524940Y-39862280D01*
X242324940Y-40662280D01*
G37*
X242324940Y-40662280D02*
X241524940Y-40662280D01*
X241524940Y-39862280D01*
X242324940Y-40662280D01*
D12*
X235174940Y-43712280D02*
G75*
G03*
X234674940Y-44212280I0J-500000D01*
G01*
X236674940Y-44212280D02*
G75*
G03*
X236174940Y-43712280I-500000J0D01*
G01*
X236174940Y-45212280D02*
G75*
G03*
X236674940Y-44712280I0J500000D01*
G01*
X234674940Y-44712280D02*
G75*
G03*
X235174940Y-45212280I500000J0D01*
G01*
%TO.C,D80*%
X198074940Y-43712280D02*
X197074940Y-43712280D01*
X196574940Y-44212280D02*
X196574940Y-44712280D01*
X197074940Y-45212280D02*
X198074940Y-45212280D01*
X198574940Y-44712280D02*
X198574940Y-44212280D01*
D11*
G36*
X204224940Y-40662280D02*
G01*
X203424940Y-40662280D01*
X203424940Y-39862280D01*
X204224940Y-40662280D01*
G37*
X204224940Y-40662280D02*
X203424940Y-40662280D01*
X203424940Y-39862280D01*
X204224940Y-40662280D01*
D12*
X197074940Y-43712280D02*
G75*
G03*
X196574940Y-44212280I0J-500000D01*
G01*
X198574940Y-44212280D02*
G75*
G03*
X198074940Y-43712280I-500000J0D01*
G01*
X198074940Y-45212280D02*
G75*
G03*
X198574940Y-44712280I0J500000D01*
G01*
X196574940Y-44712280D02*
G75*
G03*
X197074940Y-45212280I500000J0D01*
G01*
%TO.C,D79*%
X159974940Y-43712280D02*
X158974940Y-43712280D01*
X158474940Y-44212280D02*
X158474940Y-44712280D01*
X158974940Y-45212280D02*
X159974940Y-45212280D01*
X160474940Y-44712280D02*
X160474940Y-44212280D01*
D11*
G36*
X166124940Y-40662280D02*
G01*
X165324940Y-40662280D01*
X165324940Y-39862280D01*
X166124940Y-40662280D01*
G37*
X166124940Y-40662280D02*
X165324940Y-40662280D01*
X165324940Y-39862280D01*
X166124940Y-40662280D01*
D12*
X158974940Y-43712280D02*
G75*
G03*
X158474940Y-44212280I0J-500000D01*
G01*
X160474940Y-44212280D02*
G75*
G03*
X159974940Y-43712280I-500000J0D01*
G01*
X159974940Y-45212280D02*
G75*
G03*
X160474940Y-44712280I0J500000D01*
G01*
X158474940Y-44712280D02*
G75*
G03*
X158974940Y-45212280I500000J0D01*
G01*
%TO.C,D78*%
X121874940Y-43712280D02*
X120874940Y-43712280D01*
X120374940Y-44212280D02*
X120374940Y-44712280D01*
X120874940Y-45212280D02*
X121874940Y-45212280D01*
X122374940Y-44712280D02*
X122374940Y-44212280D01*
D11*
G36*
X128024940Y-40662280D02*
G01*
X127224940Y-40662280D01*
X127224940Y-39862280D01*
X128024940Y-40662280D01*
G37*
X128024940Y-40662280D02*
X127224940Y-40662280D01*
X127224940Y-39862280D01*
X128024940Y-40662280D01*
D12*
X120874940Y-43712280D02*
G75*
G03*
X120374940Y-44212280I0J-500000D01*
G01*
X122374940Y-44212280D02*
G75*
G03*
X121874940Y-43712280I-500000J0D01*
G01*
X121874940Y-45212280D02*
G75*
G03*
X122374940Y-44712280I0J500000D01*
G01*
X120374940Y-44712280D02*
G75*
G03*
X120874940Y-45212280I500000J0D01*
G01*
%TO.C,D77*%
X83774940Y-43712280D02*
X82774940Y-43712280D01*
X82274940Y-44212280D02*
X82274940Y-44712280D01*
X82774940Y-45212280D02*
X83774940Y-45212280D01*
X84274940Y-44712280D02*
X84274940Y-44212280D01*
D11*
G36*
X89924940Y-40662280D02*
G01*
X89124940Y-40662280D01*
X89124940Y-39862280D01*
X89924940Y-40662280D01*
G37*
X89924940Y-40662280D02*
X89124940Y-40662280D01*
X89124940Y-39862280D01*
X89924940Y-40662280D01*
D12*
X82774940Y-43712280D02*
G75*
G03*
X82274940Y-44212280I0J-500000D01*
G01*
X84274940Y-44212280D02*
G75*
G03*
X83774940Y-43712280I-500000J0D01*
G01*
X83774940Y-45212280D02*
G75*
G03*
X84274940Y-44712280I0J500000D01*
G01*
X82274940Y-44712280D02*
G75*
G03*
X82774940Y-45212280I500000J0D01*
G01*
%TO.C,D76*%
X45675056Y-44903160D02*
X44675056Y-44903160D01*
X44175056Y-45403160D02*
X44175056Y-45903160D01*
X44675056Y-46403160D02*
X45675056Y-46403160D01*
X46175056Y-45903160D02*
X46175056Y-45403160D01*
D11*
G36*
X51825056Y-41853160D02*
G01*
X51025056Y-41853160D01*
X51025056Y-41053160D01*
X51825056Y-41853160D01*
G37*
X51825056Y-41853160D02*
X51025056Y-41853160D01*
X51025056Y-41053160D01*
X51825056Y-41853160D01*
D12*
X44675056Y-44903160D02*
G75*
G03*
X44175056Y-45403160I0J-500000D01*
G01*
X46175056Y-45403160D02*
G75*
G03*
X45675056Y-44903160I-500000J0D01*
G01*
X45675056Y-46403160D02*
G75*
G03*
X46175056Y-45903160I0J500000D01*
G01*
X44175056Y-45903160D02*
G75*
G03*
X44675056Y-46403160I500000J0D01*
G01*
%TO.C,D75*%
X34187220Y-66243620D02*
X34187220Y-67243620D01*
X34687220Y-67743620D02*
X35187220Y-67743620D01*
X35687220Y-67243620D02*
X35687220Y-66243620D01*
X35187220Y-65743620D02*
X34687220Y-65743620D01*
D11*
G36*
X31137220Y-60093620D02*
G01*
X31137220Y-60893620D01*
X30337220Y-60893620D01*
X31137220Y-60093620D01*
G37*
X31137220Y-60093620D02*
X31137220Y-60893620D01*
X30337220Y-60893620D01*
X31137220Y-60093620D01*
D12*
X34187220Y-67243620D02*
G75*
G03*
X34687220Y-67743620I500000J0D01*
G01*
X34687220Y-65743620D02*
G75*
G03*
X34187220Y-66243620I0J-500000D01*
G01*
X35687220Y-66243620D02*
G75*
G03*
X35187220Y-65743620I-500000J0D01*
G01*
X35187220Y-67743620D02*
G75*
G03*
X35687220Y-67243620I0J500000D01*
G01*
D10*
%TO.C,Y1*%
X67475120Y-61103230D02*
X67875120Y-61103230D01*
X67475120Y-61303230D02*
X67875120Y-61303230D01*
X67475120Y-64903230D02*
X67875120Y-64903230D01*
X65475120Y-61103230D02*
X67475120Y-61103230D01*
X67875120Y-62303230D02*
X68275120Y-62303230D01*
X67875120Y-62303230D02*
X67875120Y-61303230D01*
X67475120Y-61303230D02*
X65475120Y-61303230D01*
X65475120Y-61303230D02*
X65475120Y-62303230D01*
X65475120Y-64103230D02*
X65475120Y-64903230D01*
X65475120Y-64903230D02*
X67475120Y-64903230D01*
X67875120Y-64903230D02*
X67875120Y-64103230D01*
D11*
%TO.C,R10*%
X43420535Y-62279686D02*
X43520535Y-61879686D01*
X43720535Y-61879686D02*
X43820535Y-62279686D01*
X43220535Y-62279686D02*
X43320535Y-61879686D01*
X43120535Y-61879686D02*
X43220535Y-62279686D01*
X43320535Y-61879686D02*
X43420535Y-62279686D01*
X43520535Y-61879686D02*
X43620535Y-62279686D01*
X43620535Y-62279686D02*
X43720535Y-61879686D01*
D10*
X42870535Y-62959686D02*
X44070535Y-62959686D01*
X44070535Y-61199686D02*
X42870535Y-61199686D01*
D11*
%TO.C,D73*%
G36*
X243482475Y-108542485D02*
G01*
X242882475Y-109342485D01*
X244082475Y-109342485D01*
X243482475Y-108542485D01*
G37*
X243482475Y-108542485D02*
X242882475Y-109342485D01*
X244082475Y-109342485D01*
X243482475Y-108542485D01*
D12*
X244282475Y-106742485D02*
X242682475Y-106742485D01*
D11*
%TO.C,D68*%
G36*
X296466710Y-102589335D02*
G01*
X295866710Y-103389335D01*
X297066710Y-103389335D01*
X296466710Y-102589335D01*
G37*
X296466710Y-102589335D02*
X295866710Y-103389335D01*
X297066710Y-103389335D01*
X296466710Y-102589335D01*
D12*
X297266710Y-100789335D02*
X295666710Y-100789335D01*
D11*
%TO.C,D67*%
G36*
X294085450Y-102589335D02*
G01*
X293485450Y-103389335D01*
X294685450Y-103389335D01*
X294085450Y-102589335D01*
G37*
X294085450Y-102589335D02*
X293485450Y-103389335D01*
X294685450Y-103389335D01*
X294085450Y-102589335D01*
D12*
X294885450Y-100789335D02*
X293285450Y-100789335D01*
D11*
%TO.C,D66*%
G36*
X291704050Y-102589175D02*
G01*
X291104050Y-103389175D01*
X292304050Y-103389175D01*
X291704050Y-102589175D01*
G37*
X291704050Y-102589175D02*
X291104050Y-103389175D01*
X292304050Y-103389175D01*
X291704050Y-102589175D01*
D12*
X292504050Y-100789175D02*
X290904050Y-100789175D01*
D11*
%TO.C,D65*%
G36*
X241101215Y-108542485D02*
G01*
X240501215Y-109342485D01*
X241701215Y-109342485D01*
X241101215Y-108542485D01*
G37*
X241101215Y-108542485D02*
X240501215Y-109342485D01*
X241701215Y-109342485D01*
X241101215Y-108542485D01*
D12*
X241901215Y-106742485D02*
X240301215Y-106742485D01*
D11*
%TO.C,D63*%
G36*
X217883930Y-108542485D02*
G01*
X217283930Y-109342485D01*
X218483930Y-109342485D01*
X217883930Y-108542485D01*
G37*
X217883930Y-108542485D02*
X217283930Y-109342485D01*
X218483930Y-109342485D01*
X217883930Y-108542485D01*
D12*
X218683930Y-106742485D02*
X217083930Y-106742485D01*
D11*
%TO.C,D62*%
G36*
X141683610Y-109137800D02*
G01*
X141083610Y-109937800D01*
X142283610Y-109937800D01*
X141683610Y-109137800D01*
G37*
X141683610Y-109137800D02*
X141083610Y-109937800D01*
X142283610Y-109937800D01*
X141683610Y-109137800D01*
D12*
X142483610Y-107337800D02*
X140883610Y-107337800D01*
D11*
%TO.C,D61*%
G36*
X139302350Y-109137800D02*
G01*
X138702350Y-109937800D01*
X139902350Y-109937800D01*
X139302350Y-109137800D01*
G37*
X139302350Y-109137800D02*
X138702350Y-109937800D01*
X139902350Y-109937800D01*
X139302350Y-109137800D01*
D12*
X140102350Y-107337800D02*
X138502350Y-107337800D01*
D11*
%TO.C,D59*%
G36*
X78581420Y-106756540D02*
G01*
X77981420Y-107556540D01*
X79181420Y-107556540D01*
X78581420Y-106756540D01*
G37*
X78581420Y-106756540D02*
X77981420Y-107556540D01*
X79181420Y-107556540D01*
X78581420Y-106756540D01*
D12*
X79381420Y-104956540D02*
X77781420Y-104956540D01*
D11*
%TO.C,D58*%
G36*
X76200160Y-106756540D02*
G01*
X75600160Y-107556540D01*
X76800160Y-107556540D01*
X76200160Y-106756540D01*
G37*
X76200160Y-106756540D02*
X75600160Y-107556540D01*
X76800160Y-107556540D01*
X76200160Y-106756540D01*
D12*
X77000160Y-104956540D02*
X75400160Y-104956540D01*
D11*
%TO.C,D57*%
G36*
X294085450Y-98031500D02*
G01*
X294685450Y-97231500D01*
X293485450Y-97231500D01*
X294085450Y-98031500D01*
G37*
X294085450Y-98031500D02*
X294685450Y-97231500D01*
X293485450Y-97231500D01*
X294085450Y-98031500D01*
D12*
X293285450Y-99831500D02*
X294885450Y-99831500D01*
D11*
%TO.C,D55*%
G36*
X291704190Y-98031500D02*
G01*
X292304190Y-97231500D01*
X291104190Y-97231500D01*
X291704190Y-98031500D01*
G37*
X291704190Y-98031500D02*
X292304190Y-97231500D01*
X291104190Y-97231500D01*
X291704190Y-98031500D01*
D12*
X290904190Y-99831500D02*
X292504190Y-99831500D01*
D11*
%TO.C,D54*%
G36*
X264319700Y-98031500D02*
G01*
X264919700Y-97231500D01*
X263719700Y-97231500D01*
X264319700Y-98031500D01*
G37*
X264319700Y-98031500D02*
X264919700Y-97231500D01*
X263719700Y-97231500D01*
X264319700Y-98031500D01*
D12*
X263519700Y-99831500D02*
X265119700Y-99831500D01*
D11*
%TO.C,D46*%
G36*
X109537800Y-98031500D02*
G01*
X110137800Y-97231500D01*
X108937800Y-97231500D01*
X109537800Y-98031500D01*
G37*
X109537800Y-98031500D02*
X110137800Y-97231500D01*
X108937800Y-97231500D01*
X109537800Y-98031500D01*
D12*
X108737800Y-99831500D02*
X110337800Y-99831500D01*
D11*
%TO.C,D42*%
G36*
X312540104Y-78981420D02*
G01*
X313140104Y-78181420D01*
X311940104Y-78181420D01*
X312540104Y-78981420D01*
G37*
X312540104Y-78981420D02*
X313140104Y-78181420D01*
X311940104Y-78181420D01*
X312540104Y-78981420D01*
D12*
X311740104Y-80781420D02*
X313340104Y-80781420D01*
D11*
%TO.C,D41*%
G36*
X289322930Y-59931340D02*
G01*
X289922930Y-59131340D01*
X288722930Y-59131340D01*
X289322930Y-59931340D01*
G37*
X289322930Y-59931340D02*
X289922930Y-59131340D01*
X288722930Y-59131340D01*
X289322930Y-59931340D01*
D12*
X288522930Y-61731340D02*
X290122930Y-61731340D01*
D11*
%TO.C,D40*%
G36*
X295871395Y-45643780D02*
G01*
X296471395Y-44843780D01*
X295271395Y-44843780D01*
X295871395Y-45643780D01*
G37*
X295871395Y-45643780D02*
X296471395Y-44843780D01*
X295271395Y-44843780D01*
X295871395Y-45643780D01*
D12*
X295071395Y-47443780D02*
X296671395Y-47443780D01*
D11*
%TO.C,D39*%
G36*
X310158844Y-78981420D02*
G01*
X310758844Y-78181420D01*
X309558844Y-78181420D01*
X310158844Y-78981420D01*
G37*
X310158844Y-78981420D02*
X310758844Y-78181420D01*
X309558844Y-78181420D01*
X310158844Y-78981420D01*
D12*
X309358844Y-80781420D02*
X310958844Y-80781420D01*
D11*
%TO.C,D38*%
G36*
X286941670Y-59931340D02*
G01*
X287541670Y-59131340D01*
X286341670Y-59131340D01*
X286941670Y-59931340D01*
G37*
X286941670Y-59931340D02*
X287541670Y-59131340D01*
X286341670Y-59131340D01*
X286941670Y-59931340D01*
D12*
X286141670Y-61731340D02*
X287741670Y-61731340D01*
D11*
%TO.C,D37*%
G36*
X293490135Y-45643780D02*
G01*
X294090135Y-44843780D01*
X292890135Y-44843780D01*
X293490135Y-45643780D01*
G37*
X293490135Y-45643780D02*
X294090135Y-44843780D01*
X292890135Y-44843780D01*
X293490135Y-45643780D01*
D12*
X292690135Y-47443780D02*
X294290135Y-47443780D01*
D11*
%TO.C,D36*%
G36*
X273844740Y-78981420D02*
G01*
X274444740Y-78181420D01*
X273244740Y-78181420D01*
X273844740Y-78981420D01*
G37*
X273844740Y-78981420D02*
X274444740Y-78181420D01*
X273244740Y-78181420D01*
X273844740Y-78981420D01*
D12*
X273044740Y-80781420D02*
X274644740Y-80781420D01*
D11*
%TO.C,D7*%
G36*
X69056380Y-40881260D02*
G01*
X69656380Y-40081260D01*
X68456380Y-40081260D01*
X69056380Y-40881260D01*
G37*
X69056380Y-40881260D02*
X69656380Y-40081260D01*
X68456380Y-40081260D01*
X69056380Y-40881260D01*
D12*
X68256380Y-42681260D02*
X69856380Y-42681260D01*
D11*
%TO.C,D5*%
G36*
X77390790Y-59931340D02*
G01*
X77990790Y-59131340D01*
X76790790Y-59131340D01*
X77390790Y-59931340D01*
G37*
X77390790Y-59931340D02*
X77990790Y-59131340D01*
X76790790Y-59131340D01*
X77390790Y-59931340D01*
D12*
X76590790Y-61731340D02*
X78190790Y-61731340D01*
D11*
%TO.C,D2*%
G36*
X75009530Y-59931340D02*
G01*
X75609530Y-59131340D01*
X74409530Y-59131340D01*
X75009530Y-59931340D01*
G37*
X75009530Y-59931340D02*
X75609530Y-59131340D01*
X74409530Y-59131340D01*
X75009530Y-59931340D01*
D12*
X74209530Y-61731340D02*
X75809530Y-61731340D01*
%TO.C,SW1*%
X295680625Y-86320355D02*
G75*
G03*
X295680625Y-86320355I-1000000J0D01*
G01*
X292080625Y-83720355D02*
X292080625Y-88920355D01*
X297280625Y-83720355D02*
X292080625Y-83720355D01*
X297280625Y-88920355D02*
X297280625Y-83720355D01*
X292080625Y-88920355D02*
X297280625Y-88920355D01*
D10*
%TO.C,R5*%
X288202790Y-86920355D02*
X288202790Y-85720355D01*
X286442790Y-85720355D02*
X286442790Y-86920355D01*
D11*
X287122790Y-86470355D02*
X287522790Y-86570355D01*
X287522790Y-86370355D02*
X287122790Y-86470355D01*
X287522790Y-86170355D02*
X287122790Y-86270355D01*
X287522790Y-85970355D02*
X287122790Y-86070355D01*
X287122790Y-86070355D02*
X287522790Y-86170355D01*
X287522790Y-86570355D02*
X287122790Y-86670355D01*
X287122790Y-86270355D02*
X287522790Y-86370355D01*
D10*
%TO.C,R4*%
X288442790Y-85720355D02*
X288442790Y-86920355D01*
X290202790Y-86920355D02*
X290202790Y-85720355D01*
D11*
X289522790Y-86170355D02*
X289122790Y-86070355D01*
X289122790Y-86270355D02*
X289522790Y-86170355D01*
X289122790Y-86470355D02*
X289522790Y-86370355D01*
X289122790Y-86670355D02*
X289522790Y-86570355D01*
X289522790Y-86570355D02*
X289122790Y-86470355D01*
X289122790Y-86070355D02*
X289522790Y-85970355D01*
X289522790Y-86370355D02*
X289122790Y-86270355D01*
D10*
%TO.C,R3*%
X288442790Y-82148465D02*
X288442790Y-83348465D01*
X290202790Y-83348465D02*
X290202790Y-82148465D01*
D11*
X289522790Y-82598465D02*
X289122790Y-82498465D01*
X289122790Y-82698465D02*
X289522790Y-82598465D01*
X289122790Y-82898465D02*
X289522790Y-82798465D01*
X289122790Y-83098465D02*
X289522790Y-82998465D01*
X289522790Y-82998465D02*
X289122790Y-82898465D01*
X289122790Y-82498465D02*
X289522790Y-82398465D01*
X289522790Y-82798465D02*
X289122790Y-82698465D01*
%TO.C,D72*%
G36*
X261938300Y-98031340D02*
G01*
X262538300Y-97231340D01*
X261338300Y-97231340D01*
X261938300Y-98031340D01*
G37*
X261938300Y-98031340D02*
X262538300Y-97231340D01*
X261338300Y-97231340D01*
X261938300Y-98031340D01*
D12*
X261138300Y-99831340D02*
X262738300Y-99831340D01*
D11*
%TO.C,D71*%
G36*
X271462600Y-78981420D02*
G01*
X272062600Y-78181420D01*
X270862600Y-78181420D01*
X271462600Y-78981420D01*
G37*
X271462600Y-78981420D02*
X272062600Y-78181420D01*
X270862600Y-78181420D01*
X271462600Y-78981420D01*
D12*
X270662600Y-80781420D02*
X272262600Y-80781420D01*
D11*
%TO.C,D70*%
G36*
X266700240Y-59931340D02*
G01*
X267300240Y-59131340D01*
X266100240Y-59131340D01*
X266700240Y-59931340D01*
G37*
X266700240Y-59931340D02*
X267300240Y-59131340D01*
X266100240Y-59131340D01*
X266700240Y-59931340D01*
D12*
X265900240Y-61731340D02*
X267500240Y-61731340D01*
D11*
%TO.C,D56*%
G36*
X51196770Y-106756540D02*
G01*
X50596770Y-107556540D01*
X51796770Y-107556540D01*
X51196770Y-106756540D01*
G37*
X51196770Y-106756540D02*
X50596770Y-107556540D01*
X51796770Y-107556540D01*
X51196770Y-106756540D01*
D12*
X51996770Y-104956540D02*
X50396770Y-104956540D01*
D11*
%TO.C,D53*%
G36*
X242888200Y-98031500D02*
G01*
X243488200Y-97231500D01*
X242288200Y-97231500D01*
X242888200Y-98031500D01*
G37*
X242888200Y-98031500D02*
X243488200Y-97231500D01*
X242288200Y-97231500D01*
X242888200Y-98031500D01*
D12*
X242088200Y-99831500D02*
X243688200Y-99831500D01*
D11*
%TO.C,D52*%
G36*
X223838120Y-98031500D02*
G01*
X224438120Y-97231500D01*
X223238120Y-97231500D01*
X223838120Y-98031500D01*
G37*
X223838120Y-98031500D02*
X224438120Y-97231500D01*
X223238120Y-97231500D01*
X223838120Y-98031500D01*
D12*
X223038120Y-99831500D02*
X224638120Y-99831500D01*
D11*
%TO.C,D51*%
G36*
X204788040Y-98031500D02*
G01*
X205388040Y-97231500D01*
X204188040Y-97231500D01*
X204788040Y-98031500D01*
G37*
X204788040Y-98031500D02*
X205388040Y-97231500D01*
X204188040Y-97231500D01*
X204788040Y-98031500D01*
D12*
X203988040Y-99831500D02*
X205588040Y-99831500D01*
D11*
%TO.C,D50*%
G36*
X185737880Y-98031500D02*
G01*
X186337880Y-97231500D01*
X185137880Y-97231500D01*
X185737880Y-98031500D01*
G37*
X185737880Y-98031500D02*
X186337880Y-97231500D01*
X185137880Y-97231500D01*
X185737880Y-98031500D01*
D12*
X184937880Y-99831500D02*
X186537880Y-99831500D01*
D11*
%TO.C,D49*%
G36*
X166687880Y-98031500D02*
G01*
X167287880Y-97231500D01*
X166087880Y-97231500D01*
X166687880Y-98031500D01*
G37*
X166687880Y-98031500D02*
X167287880Y-97231500D01*
X166087880Y-97231500D01*
X166687880Y-98031500D01*
D12*
X165887880Y-99831500D02*
X167487880Y-99831500D01*
D11*
%TO.C,D48*%
G36*
X147637800Y-98031500D02*
G01*
X148237800Y-97231500D01*
X147037800Y-97231500D01*
X147637800Y-98031500D01*
G37*
X147637800Y-98031500D02*
X148237800Y-97231500D01*
X147037800Y-97231500D01*
X147637800Y-98031500D01*
D12*
X146837800Y-99831500D02*
X148437800Y-99831500D01*
D11*
%TO.C,D47*%
G36*
X128587720Y-98031500D02*
G01*
X129187720Y-97231500D01*
X127987720Y-97231500D01*
X128587720Y-98031500D01*
G37*
X128587720Y-98031500D02*
X129187720Y-97231500D01*
X127987720Y-97231500D01*
X128587720Y-98031500D01*
D12*
X127787720Y-99831500D02*
X129387720Y-99831500D01*
D11*
%TO.C,D45*%
G36*
X91678190Y-98031500D02*
G01*
X92278190Y-97231500D01*
X91078190Y-97231500D01*
X91678190Y-98031500D01*
G37*
X91678190Y-98031500D02*
X92278190Y-97231500D01*
X91078190Y-97231500D01*
X91678190Y-98031500D01*
D12*
X90878190Y-99831500D02*
X92478190Y-99831500D01*
D11*
%TO.C,D44*%
G36*
X89296930Y-98031500D02*
G01*
X89896930Y-97231500D01*
X88696930Y-97231500D01*
X89296930Y-98031500D01*
G37*
X89296930Y-98031500D02*
X89896930Y-97231500D01*
X88696930Y-97231500D01*
X89296930Y-98031500D01*
D12*
X88496930Y-99831500D02*
X90096930Y-99831500D01*
D11*
%TO.C,D43*%
G36*
X72628110Y-98031500D02*
G01*
X73228110Y-97231500D01*
X72028110Y-97231500D01*
X72628110Y-98031500D01*
G37*
X72628110Y-98031500D02*
X73228110Y-97231500D01*
X72028110Y-97231500D01*
X72628110Y-98031500D01*
D12*
X71828110Y-99831500D02*
X73428110Y-99831500D01*
D11*
%TO.C,D35*%
G36*
X284560250Y-59931340D02*
G01*
X285160250Y-59131340D01*
X283960250Y-59131340D01*
X284560250Y-59931340D01*
G37*
X284560250Y-59931340D02*
X285160250Y-59131340D01*
X283960250Y-59131340D01*
X284560250Y-59931340D01*
D12*
X283760250Y-61731340D02*
X285360250Y-61731340D01*
D11*
%TO.C,D33*%
G36*
X252412600Y-78981420D02*
G01*
X253012600Y-78181420D01*
X251812600Y-78181420D01*
X252412600Y-78981420D01*
G37*
X252412600Y-78981420D02*
X253012600Y-78181420D01*
X251812600Y-78181420D01*
X252412600Y-78981420D01*
D12*
X251612600Y-80781420D02*
X253212600Y-80781420D01*
D11*
%TO.C,D32*%
G36*
X247650240Y-59931340D02*
G01*
X248250240Y-59131340D01*
X247050240Y-59131340D01*
X247650240Y-59931340D01*
G37*
X247650240Y-59931340D02*
X248250240Y-59131340D01*
X247050240Y-59131340D01*
X247650240Y-59931340D01*
D12*
X246850240Y-61731340D02*
X248450240Y-61731340D01*
D11*
%TO.C,D30*%
G36*
X233362600Y-78981420D02*
G01*
X233962600Y-78181420D01*
X232762600Y-78181420D01*
X233362600Y-78981420D01*
G37*
X233362600Y-78981420D02*
X233962600Y-78181420D01*
X232762600Y-78181420D01*
X233362600Y-78981420D01*
D12*
X232562600Y-80781420D02*
X234162600Y-80781420D01*
D11*
%TO.C,D29*%
G36*
X228600240Y-59931340D02*
G01*
X229200240Y-59131340D01*
X228000240Y-59131340D01*
X228600240Y-59931340D01*
G37*
X228600240Y-59931340D02*
X229200240Y-59131340D01*
X228000240Y-59131340D01*
X228600240Y-59931340D01*
D12*
X227800240Y-61731340D02*
X229400240Y-61731340D01*
D11*
%TO.C,D27*%
G36*
X214312600Y-78981420D02*
G01*
X214912600Y-78181420D01*
X213712600Y-78181420D01*
X214312600Y-78981420D01*
G37*
X214312600Y-78981420D02*
X214912600Y-78181420D01*
X213712600Y-78181420D01*
X214312600Y-78981420D01*
D12*
X213512600Y-80781420D02*
X215112600Y-80781420D01*
D11*
%TO.C,D26*%
G36*
X209550240Y-59931340D02*
G01*
X210150240Y-59131340D01*
X208950240Y-59131340D01*
X209550240Y-59931340D01*
G37*
X209550240Y-59931340D02*
X210150240Y-59131340D01*
X208950240Y-59131340D01*
X209550240Y-59931340D01*
D12*
X208750240Y-61731340D02*
X210350240Y-61731340D01*
D11*
%TO.C,D24*%
G36*
X195262600Y-78981420D02*
G01*
X195862600Y-78181420D01*
X194662600Y-78181420D01*
X195262600Y-78981420D01*
G37*
X195262600Y-78981420D02*
X195862600Y-78181420D01*
X194662600Y-78181420D01*
X195262600Y-78981420D01*
D12*
X194462600Y-80781420D02*
X196062600Y-80781420D01*
D11*
%TO.C,D23*%
G36*
X190500240Y-59931340D02*
G01*
X191100240Y-59131340D01*
X189900240Y-59131340D01*
X190500240Y-59931340D01*
G37*
X190500240Y-59931340D02*
X191100240Y-59131340D01*
X189900240Y-59131340D01*
X190500240Y-59931340D01*
D12*
X189700240Y-61731340D02*
X191300240Y-61731340D01*
D11*
%TO.C,D21*%
G36*
X176212600Y-78981420D02*
G01*
X176812600Y-78181420D01*
X175612600Y-78181420D01*
X176212600Y-78981420D01*
G37*
X176212600Y-78981420D02*
X176812600Y-78181420D01*
X175612600Y-78181420D01*
X176212600Y-78981420D01*
D12*
X175412600Y-80781420D02*
X177012600Y-80781420D01*
D11*
%TO.C,D20*%
G36*
X171450240Y-59931340D02*
G01*
X172050240Y-59131340D01*
X170850240Y-59131340D01*
X171450240Y-59931340D01*
G37*
X171450240Y-59931340D02*
X172050240Y-59131340D01*
X170850240Y-59131340D01*
X171450240Y-59931340D01*
D12*
X170650240Y-61731340D02*
X172250240Y-61731340D01*
D11*
%TO.C,D18*%
G36*
X157162600Y-78981420D02*
G01*
X157762600Y-78181420D01*
X156562600Y-78181420D01*
X157162600Y-78981420D01*
G37*
X157162600Y-78981420D02*
X157762600Y-78181420D01*
X156562600Y-78181420D01*
X157162600Y-78981420D01*
D12*
X156362600Y-80781420D02*
X157962600Y-80781420D01*
D11*
%TO.C,D17*%
G36*
X152400240Y-59931340D02*
G01*
X153000240Y-59131340D01*
X151800240Y-59131340D01*
X152400240Y-59931340D01*
G37*
X152400240Y-59931340D02*
X153000240Y-59131340D01*
X151800240Y-59131340D01*
X152400240Y-59931340D01*
D12*
X151600240Y-61731340D02*
X153200240Y-61731340D01*
D11*
%TO.C,D15*%
G36*
X138112600Y-78981420D02*
G01*
X138712600Y-78181420D01*
X137512600Y-78181420D01*
X138112600Y-78981420D01*
G37*
X138112600Y-78981420D02*
X138712600Y-78181420D01*
X137512600Y-78181420D01*
X138112600Y-78981420D01*
D12*
X137312600Y-80781420D02*
X138912600Y-80781420D01*
D11*
%TO.C,D14*%
G36*
X133350240Y-59931340D02*
G01*
X133950240Y-59131340D01*
X132750240Y-59131340D01*
X133350240Y-59931340D01*
G37*
X133350240Y-59931340D02*
X133950240Y-59131340D01*
X132750240Y-59131340D01*
X133350240Y-59931340D01*
D12*
X132550240Y-61731340D02*
X134150240Y-61731340D01*
D11*
%TO.C,D12*%
G36*
X119062600Y-78981420D02*
G01*
X119662600Y-78181420D01*
X118462600Y-78181420D01*
X119062600Y-78981420D01*
G37*
X119062600Y-78981420D02*
X119662600Y-78181420D01*
X118462600Y-78181420D01*
X119062600Y-78981420D01*
D12*
X118262600Y-80781420D02*
X119862600Y-80781420D01*
D11*
%TO.C,D11*%
G36*
X114300240Y-59931340D02*
G01*
X114900240Y-59131340D01*
X113700240Y-59131340D01*
X114300240Y-59931340D01*
G37*
X114300240Y-59931340D02*
X114900240Y-59131340D01*
X113700240Y-59131340D01*
X114300240Y-59931340D01*
D12*
X113500240Y-61731340D02*
X115100240Y-61731340D01*
D11*
%TO.C,D9*%
G36*
X100012600Y-78981420D02*
G01*
X100612600Y-78181420D01*
X99412600Y-78181420D01*
X100012600Y-78981420D01*
G37*
X100012600Y-78981420D02*
X100612600Y-78181420D01*
X99412600Y-78181420D01*
X100012600Y-78981420D01*
D12*
X99212600Y-80781420D02*
X100812600Y-80781420D01*
D11*
%TO.C,D8*%
G36*
X95250240Y-59931340D02*
G01*
X95850240Y-59131340D01*
X94650240Y-59131340D01*
X95250240Y-59931340D01*
G37*
X95250240Y-59931340D02*
X95850240Y-59131340D01*
X94650240Y-59131340D01*
X95250240Y-59931340D01*
D12*
X94450240Y-61731340D02*
X96050240Y-61731340D01*
D11*
%TO.C,D6*%
G36*
X82153170Y-78981260D02*
G01*
X82753170Y-78181260D01*
X81553170Y-78181260D01*
X82153170Y-78981260D01*
G37*
X82153170Y-78981260D02*
X82753170Y-78181260D01*
X81553170Y-78181260D01*
X82153170Y-78981260D01*
D12*
X81353170Y-80781260D02*
X82953170Y-80781260D01*
D11*
%TO.C,D3*%
G36*
X79771910Y-78981260D02*
G01*
X80371910Y-78181260D01*
X79171910Y-78181260D01*
X79771910Y-78981260D01*
G37*
X79771910Y-78981260D02*
X80371910Y-78181260D01*
X79171910Y-78181260D01*
X79771910Y-78981260D01*
D12*
X78971910Y-80781260D02*
X80571910Y-80781260D01*
D10*
%TO.C,C9*%
X292387500Y-82000000D02*
X291687500Y-82000000D01*
X291687500Y-83200000D02*
X292387500Y-83200000D01*
D11*
%TO.C,R9*%
X42637500Y-42100000D02*
X42237500Y-42000000D01*
X42237500Y-41800000D02*
X42637500Y-41700000D01*
X42637500Y-42300000D02*
X42237500Y-42200000D01*
X42237500Y-42400000D02*
X42637500Y-42300000D01*
X42237500Y-42200000D02*
X42637500Y-42100000D01*
X42237500Y-42000000D02*
X42637500Y-41900000D01*
X42637500Y-41900000D02*
X42237500Y-41800000D01*
D10*
X43317500Y-42650000D02*
X43317500Y-41450000D01*
X41557500Y-41450000D02*
X41557500Y-42650000D01*
D11*
%TO.C,R8*%
X40387500Y-42000000D02*
X40787500Y-42100000D01*
X40787500Y-42300000D02*
X40387500Y-42400000D01*
X40387500Y-41800000D02*
X40787500Y-41900000D01*
X40787500Y-41700000D02*
X40387500Y-41800000D01*
X40787500Y-41900000D02*
X40387500Y-42000000D01*
X40787500Y-42100000D02*
X40387500Y-42200000D01*
X40387500Y-42200000D02*
X40787500Y-42300000D01*
D10*
X39707500Y-41450000D02*
X39707500Y-42650000D01*
X41467500Y-42650000D02*
X41467500Y-41450000D01*
D11*
%TO.C,R7*%
X43420535Y-64279686D02*
X43520535Y-63879686D01*
X43720535Y-63879686D02*
X43820535Y-64279686D01*
X43220535Y-64279686D02*
X43320535Y-63879686D01*
X43120535Y-63879686D02*
X43220535Y-64279686D01*
X43320535Y-63879686D02*
X43420535Y-64279686D01*
X43520535Y-63879686D02*
X43620535Y-64279686D01*
X43620535Y-64279686D02*
X43720535Y-63879686D01*
D10*
X42870535Y-64959686D02*
X44070535Y-64959686D01*
X44070535Y-63199686D02*
X42870535Y-63199686D01*
%TO.C,R6*%
X42870535Y-66959686D02*
X44070535Y-66959686D01*
X44070535Y-65199686D02*
X42870535Y-65199686D01*
D11*
X43320535Y-65879686D02*
X43220535Y-66279686D01*
X43420535Y-66279686D02*
X43320535Y-65879686D01*
X43620535Y-66279686D02*
X43520535Y-65879686D01*
X43820535Y-66279686D02*
X43720535Y-65879686D01*
X43720535Y-65879686D02*
X43620535Y-66279686D01*
X43220535Y-66279686D02*
X43120535Y-65879686D01*
X43520535Y-65879686D02*
X43420535Y-66279686D01*
D12*
%TO.C,U3*%
X48272003Y-40762592D02*
X46972003Y-40762592D01*
X48272003Y-37862592D02*
X48272003Y-40762592D01*
X46972003Y-37862592D02*
X48272003Y-37862592D01*
X46972003Y-37862592D02*
X46972003Y-40762592D01*
D11*
%TO.C,R2*%
X31706040Y-44031180D02*
X31306040Y-43931180D01*
X31306040Y-43731180D02*
X31706040Y-43631180D01*
X31706040Y-44231180D02*
X31306040Y-44131180D01*
X31306040Y-44331180D02*
X31706040Y-44231180D01*
X31306040Y-44131180D02*
X31706040Y-44031180D01*
X31306040Y-43931180D02*
X31706040Y-43831180D01*
X31706040Y-43831180D02*
X31306040Y-43731180D01*
D10*
X32386040Y-44581180D02*
X32386040Y-43381180D01*
X30626040Y-43381180D02*
X30626040Y-44581180D01*
D11*
%TO.C,R1*%
X38849820Y-44031180D02*
X38449820Y-43931180D01*
X38449820Y-43731180D02*
X38849820Y-43631180D01*
X38849820Y-44231180D02*
X38449820Y-44131180D01*
X38449820Y-44331180D02*
X38849820Y-44231180D01*
X38449820Y-44131180D02*
X38849820Y-44031180D01*
X38449820Y-43931180D02*
X38849820Y-43831180D01*
X38849820Y-43831180D02*
X38449820Y-43731180D01*
D10*
X39529820Y-44581180D02*
X39529820Y-43381180D01*
X37769820Y-43381180D02*
X37769820Y-44581180D01*
D12*
%TO.C,C8*%
X32937300Y-45621810D02*
X32937300Y-45171810D01*
X33887300Y-46121810D02*
X33437300Y-46121810D01*
X32937300Y-45621810D02*
G75*
G03*
X33437300Y-46121810I500000J0D01*
G01*
%TO.C,C7*%
X35318560Y-45621810D02*
X35318560Y-45171810D01*
X36268560Y-46121810D02*
X35818560Y-46121810D01*
X35318560Y-45621810D02*
G75*
G03*
X35818560Y-46121810I500000J0D01*
G01*
D10*
%TO.C,U2*%
X33497930Y-47983700D02*
X33497930Y-49443700D01*
X36657930Y-47983700D02*
X36657930Y-50143700D01*
X36657930Y-47983700D02*
X35727930Y-47983700D01*
X33497930Y-47983700D02*
X34427930Y-47983700D01*
D11*
%TO.C,D69*%
G36*
X255984375Y-40881250D02*
G01*
X256584375Y-40081250D01*
X255384375Y-40081250D01*
X255984375Y-40881250D01*
G37*
X255984375Y-40881250D02*
X256584375Y-40081250D01*
X255384375Y-40081250D01*
X255984375Y-40881250D01*
D12*
X255184375Y-42681250D02*
X256784375Y-42681250D01*
%TO.C,D34*%
X257565625Y-42681250D02*
X259165625Y-42681250D01*
D11*
G36*
X258365625Y-40881250D02*
G01*
X258965625Y-40081250D01*
X257765625Y-40081250D01*
X258365625Y-40881250D01*
G37*
X258365625Y-40881250D02*
X258965625Y-40081250D01*
X257765625Y-40081250D01*
X258365625Y-40881250D01*
D12*
%TO.C,D31*%
X219465625Y-42681250D02*
X221065625Y-42681250D01*
D11*
G36*
X220265625Y-40881250D02*
G01*
X220865625Y-40081250D01*
X219665625Y-40081250D01*
X220265625Y-40881250D01*
G37*
X220265625Y-40881250D02*
X220865625Y-40081250D01*
X219665625Y-40081250D01*
X220265625Y-40881250D01*
D12*
%TO.C,D28*%
X217084375Y-42681250D02*
X218684375Y-42681250D01*
D11*
G36*
X217884375Y-40881250D02*
G01*
X218484375Y-40081250D01*
X217284375Y-40081250D01*
X217884375Y-40881250D01*
G37*
X217884375Y-40881250D02*
X218484375Y-40081250D01*
X217284375Y-40081250D01*
X217884375Y-40881250D01*
D12*
%TO.C,D25*%
X181365625Y-42681250D02*
X182965625Y-42681250D01*
D11*
G36*
X182165625Y-40881250D02*
G01*
X182765625Y-40081250D01*
X181565625Y-40081250D01*
X182165625Y-40881250D01*
G37*
X182165625Y-40881250D02*
X182765625Y-40081250D01*
X181565625Y-40081250D01*
X182165625Y-40881250D01*
D12*
%TO.C,D22*%
X178984375Y-42681250D02*
X180584375Y-42681250D01*
D11*
G36*
X179784375Y-40881250D02*
G01*
X180384375Y-40081250D01*
X179184375Y-40081250D01*
X179784375Y-40881250D01*
G37*
X179784375Y-40881250D02*
X180384375Y-40081250D01*
X179184375Y-40081250D01*
X179784375Y-40881250D01*
D12*
%TO.C,D19*%
X143265625Y-42681250D02*
X144865625Y-42681250D01*
D11*
G36*
X144065625Y-40881250D02*
G01*
X144665625Y-40081250D01*
X143465625Y-40081250D01*
X144065625Y-40881250D01*
G37*
X144065625Y-40881250D02*
X144665625Y-40081250D01*
X143465625Y-40081250D01*
X144065625Y-40881250D01*
D12*
%TO.C,D16*%
X140884375Y-42681250D02*
X142484375Y-42681250D01*
D11*
G36*
X141684375Y-40881250D02*
G01*
X142284375Y-40081250D01*
X141084375Y-40081250D01*
X141684375Y-40881250D01*
G37*
X141684375Y-40881250D02*
X142284375Y-40081250D01*
X141084375Y-40081250D01*
X141684375Y-40881250D01*
D12*
%TO.C,D13*%
X105165625Y-42681250D02*
X106765625Y-42681250D01*
D11*
G36*
X105965625Y-40881250D02*
G01*
X106565625Y-40081250D01*
X105365625Y-40081250D01*
X105965625Y-40881250D01*
G37*
X105965625Y-40881250D02*
X106565625Y-40081250D01*
X105365625Y-40081250D01*
X105965625Y-40881250D01*
D12*
%TO.C,D10*%
X102784375Y-42681250D02*
X104384375Y-42681250D01*
D11*
G36*
X103584375Y-40881250D02*
G01*
X104184375Y-40081250D01*
X102984375Y-40081250D01*
X103584375Y-40881250D01*
G37*
X103584375Y-40881250D02*
X104184375Y-40081250D01*
X102984375Y-40081250D01*
X103584375Y-40881250D01*
D10*
%TO.C,C6*%
X63570535Y-67429686D02*
X63570535Y-66729686D01*
X62370535Y-66729686D02*
X62370535Y-67429686D01*
%TO.C,C5*%
X50620535Y-72979686D02*
X50620535Y-73679686D01*
X51820535Y-73679686D02*
X51820535Y-72979686D01*
%TO.C,C4*%
X61870535Y-63929686D02*
X62570535Y-63929686D01*
X62570535Y-62729686D02*
X61870535Y-62729686D01*
%TO.C,C3*%
X62070535Y-67429686D02*
X62070535Y-66729686D01*
X60870535Y-66729686D02*
X60870535Y-67429686D01*
%TO.C,C2*%
X61870535Y-62346087D02*
X62570535Y-62346087D01*
X62570535Y-61146087D02*
X61870535Y-61146087D01*
%TO.C,C1*%
X46370535Y-63929686D02*
X47070535Y-63929686D01*
X47070535Y-62729686D02*
X46370535Y-62729686D01*
D12*
%TO.C,D4*%
X63493904Y-42681264D02*
X65093904Y-42681264D01*
D11*
G36*
X64293904Y-40881264D02*
G01*
X64893904Y-40081264D01*
X63693904Y-40081264D01*
X64293904Y-40881264D01*
G37*
X64293904Y-40881264D02*
X64893904Y-40081264D01*
X63693904Y-40081264D01*
X64293904Y-40881264D01*
%TO.C,D1*%
G36*
X66675168Y-40881250D02*
G01*
X67275168Y-40081250D01*
X66075168Y-40081250D01*
X66675168Y-40881250D01*
G37*
X66675168Y-40881250D02*
X67275168Y-40081250D01*
X66075168Y-40081250D01*
X66675168Y-40881250D01*
D12*
X65875168Y-42681250D02*
X67475168Y-42681250D01*
%TO.C,U1*%
X55232439Y-59682066D02*
X55232439Y-60491590D01*
X55184820Y-60586828D01*
X55137201Y-60634447D01*
X55041963Y-60682066D01*
X54851487Y-60682066D01*
X54756249Y-60634447D01*
X54708630Y-60586828D01*
X54661011Y-60491590D01*
X54661011Y-59682066D01*
X53661011Y-60682066D02*
X54232439Y-60682066D01*
X53946725Y-60682066D02*
X53946725Y-59682066D01*
X54041963Y-59824924D01*
X54137201Y-59920162D01*
X54232439Y-59967781D01*
%TO.C,Q1*%
X286532738Y-80147619D02*
X286627976Y-80100000D01*
X286723214Y-80004761D01*
X286866071Y-79861904D01*
X286961309Y-79814285D01*
X287056547Y-79814285D01*
X287008928Y-80052380D02*
X287104166Y-80004761D01*
X287199404Y-79909523D01*
X287247023Y-79719047D01*
X287247023Y-79385714D01*
X287199404Y-79195238D01*
X287104166Y-79100000D01*
X287008928Y-79052380D01*
X286818452Y-79052380D01*
X286723214Y-79100000D01*
X286627976Y-79195238D01*
X286580357Y-79385714D01*
X286580357Y-79719047D01*
X286627976Y-79909523D01*
X286723214Y-80004761D01*
X286818452Y-80052380D01*
X287008928Y-80052380D01*
X285627976Y-80052380D02*
X286199404Y-80052380D01*
X285913690Y-80052380D02*
X285913690Y-79052380D01*
X286008928Y-79195238D01*
X286104166Y-79290476D01*
X286199404Y-79338095D01*
%TO.C,Y1*%
X64651310Y-62627039D02*
X65127500Y-62627039D01*
X64127500Y-62293706D02*
X64651310Y-62627039D01*
X64127500Y-62960372D01*
X65127500Y-63817515D02*
X65127500Y-63246087D01*
X65127500Y-63531801D02*
X64127500Y-63531801D01*
X64270358Y-63436563D01*
X64365596Y-63341325D01*
X64413215Y-63246087D01*
%TO.C,U2*%
X37030310Y-47981795D02*
X37839834Y-47981795D01*
X37935072Y-48029414D01*
X37982691Y-48077033D01*
X38030310Y-48172271D01*
X38030310Y-48362747D01*
X37982691Y-48457985D01*
X37935072Y-48505604D01*
X37839834Y-48553223D01*
X37030310Y-48553223D01*
X37125549Y-48981795D02*
X37077930Y-49029414D01*
X37030310Y-49124652D01*
X37030310Y-49362747D01*
X37077930Y-49457985D01*
X37125549Y-49505604D01*
X37220787Y-49553223D01*
X37316025Y-49553223D01*
X37458882Y-49505604D01*
X38030310Y-48934176D01*
X38030310Y-49553223D01*
%TD*%
M02*
