M48
; DRILL file {KiCad (5.1.10)-1} date 05/03/22 20:22:31
; FORMAT={-:-/ absolute / metric / decimal}
; #@! TF.CreationDate,2022-05-03T20:22:31+07:00
; #@! TF.GenerationSoftware,Kicad,Pcbnew,(5.1.10)-1
; #@! TF.FileFunction,Plated,1,2,PTH
FMAT,2
METRIC
T1C0.300
T2C0.400
T3C1.000
T4C1.500
T5C3.000
%
G90
G05
T1
X20.511Y-44.133
X20.511Y-46.038
X20.511Y-63.182
X20.511Y-65.087
X20.511Y-82.233
X20.511Y-84.138
X20.511Y-101.282
X20.511Y-103.188
X20.511Y-120.332
X20.511Y-122.237
X35.396Y-41.593
X35.396Y-43.497
X35.396Y-60.642
X35.396Y-62.547
X35.396Y-79.692
X35.396Y-81.597
X35.396Y-98.742
X35.396Y-100.647
X35.396Y-117.792
X35.396Y-119.697
X36.43Y-34.119
X36.43Y-51.978
X38.47Y-88.685
X38.486Y-94.366
X38.486Y-107.752
X38.681Y-48.476
X38.684Y-63.373
X39.086Y-93.766
X39.086Y-116.267
X39.281Y-39.291
X39.284Y-63.978
X39.686Y-94.297
X39.686Y-106.274
X39.881Y-33.338
X39.884Y-63.378
X40.286Y-103.068
X40.286Y-119.971
X40.484Y-63.978
X40.486Y-32.742
X40.602Y-93.803
X41.086Y-63.378
X41.202Y-93.199
X41.686Y-63.978
X41.686Y-45.085
X41.686Y-56.426
X41.802Y-92.6
X43.249Y-26.789
X44.323Y-20.32
X44.323Y-22.225
X44.323Y-44.133
X44.323Y-46.038
X44.351Y-72.628
X45.121Y-90.155
X45.721Y-89.555
X46.323Y-90.155
X46.704Y-120.332
X46.704Y-122.237
X46.923Y-89.554
X47.523Y-90.154
X47.977Y-29.356
X47.977Y-37.319
X48.518Y-75.605
X49.085Y-63.182
X49.085Y-65.087
X49.411Y-80.07
X50.328Y-127.953
X50.328Y-129.857
X51.467Y-82.233
X51.467Y-84.138
X51.762Y-93.355
X51.762Y-94.555
X52.362Y-92.755
X52.362Y-93.955
X52.362Y-95.155
X52.983Y-87.406
X53.746Y-99.873
X54.174Y-74.414
X54.346Y-100.473
X54.946Y-101.073
X56.229Y-101.282
X56.229Y-103.188
X59.209Y-17.78
X59.209Y-19.685
X59.209Y-41.593
X59.209Y-43.497
X61.19Y-41.97
X61.59Y-117.792
X61.59Y-119.697
X62.04Y-41.97
X62.21Y-71.906
X62.21Y-72.756
X63.103Y-75.605
X63.373Y-44.133
X63.373Y-46.038
X63.971Y-60.642
X63.971Y-62.547
X65.215Y-125.412
X65.215Y-127.317
X66.353Y-79.692
X66.353Y-81.597
X67.182Y-75.6
X68.135Y-20.32
X68.135Y-22.225
X70.517Y-120.332
X70.517Y-122.237
X71.115Y-98.742
X71.115Y-100.647
X71.996Y-108.352
X72.898Y-63.182
X72.898Y-65.087
X74.141Y-127.953
X74.141Y-129.857
X77.66Y-82.233
X77.66Y-84.138
X78.259Y-41.593
X78.259Y-43.497
X82.423Y-44.133
X82.423Y-46.038
X83.022Y-17.78
X83.022Y-19.685
X85.403Y-117.792
X85.403Y-119.697
X87.185Y-20.32
X87.185Y-22.225
X87.185Y-101.282
X87.185Y-103.188
X87.784Y-60.642
X87.784Y-62.547
X89.027Y-125.412
X89.027Y-127.317
X91.948Y-63.182
X91.948Y-65.087
X92.546Y-79.692
X92.546Y-81.597
X94.329Y-120.332
X94.329Y-122.237
X96.71Y-82.233
X96.71Y-84.138
X97.309Y-41.593
X97.309Y-43.497
X97.953Y-127.953
X97.953Y-129.857
X101.473Y-44.133
X101.473Y-46.038
X102.072Y-17.78
X102.072Y-19.685
X102.072Y-98.742
X102.072Y-100.647
X106.236Y-20.32
X106.236Y-22.225
X106.236Y-101.282
X106.236Y-103.188
X106.834Y-60.642
X106.834Y-62.547
X109.215Y-117.792
X109.215Y-119.697
X110.998Y-63.182
X110.998Y-65.087
X111.596Y-79.692
X111.596Y-81.597
X112.84Y-125.412
X112.84Y-127.317
X115.76Y-82.233
X115.76Y-84.138
X116.359Y-41.593
X116.359Y-43.497
X118.142Y-120.332
X118.142Y-122.237
X120.523Y-44.133
X120.523Y-46.038
X121.121Y-17.78
X121.121Y-19.685
X121.121Y-98.742
X121.121Y-100.647
X125.285Y-20.32
X125.285Y-22.225
X125.285Y-101.282
X125.285Y-103.188
X125.884Y-60.642
X125.884Y-62.547
X130.048Y-63.182
X130.048Y-65.087
X130.647Y-79.692
X130.647Y-81.597
X133.028Y-117.792
X133.028Y-119.697
X134.81Y-82.233
X134.81Y-84.138
X135.409Y-41.593
X135.409Y-43.497
X139.573Y-44.133
X139.573Y-46.038
X140.171Y-17.78
X140.171Y-19.685
X140.171Y-98.742
X140.171Y-100.647
X144.335Y-101.282
X144.335Y-103.188
X144.934Y-60.642
X144.934Y-62.547
X149.098Y-20.32
X149.098Y-22.225
X149.098Y-63.182
X149.098Y-65.087
X149.696Y-79.692
X149.696Y-81.597
X152.722Y-127.953
X152.722Y-129.857
X153.861Y-82.233
X153.861Y-84.138
X154.459Y-41.593
X154.459Y-43.497
X158.623Y-44.133
X158.623Y-46.038
X159.221Y-98.742
X159.221Y-100.647
X163.385Y-101.282
X163.385Y-103.188
X163.984Y-17.78
X163.984Y-19.685
X163.984Y-60.642
X163.984Y-62.547
X165.767Y-120.332
X165.767Y-122.237
X167.608Y-125.412
X167.608Y-127.317
X168.148Y-20.32
X168.148Y-22.225
X168.148Y-63.182
X168.148Y-65.087
X168.746Y-79.692
X168.746Y-81.597
X172.91Y-82.233
X172.91Y-84.138
X173.509Y-41.593
X173.509Y-43.497
X177.673Y-44.133
X177.673Y-46.038
X178.272Y-98.742
X178.272Y-100.647
X178.916Y-127.953
X178.916Y-129.857
X180.653Y-117.792
X180.653Y-119.697
X182.435Y-101.282
X182.435Y-103.188
X183.034Y-17.78
X183.034Y-19.685
X183.034Y-60.642
X183.034Y-62.547
X187.198Y-20.32
X187.198Y-22.225
X187.198Y-63.182
X187.198Y-65.087
X187.796Y-79.692
X187.796Y-81.597
X191.96Y-82.233
X191.96Y-84.138
X192.559Y-41.593
X192.559Y-43.497
X193.802Y-125.412
X193.802Y-127.317
X196.723Y-44.133
X196.723Y-46.038
X197.321Y-98.742
X197.321Y-100.647
X199.104Y-120.332
X199.104Y-122.237
X201.486Y-101.282
X201.486Y-103.188
X202.084Y-17.78
X202.084Y-19.685
X202.084Y-60.642
X202.084Y-62.547
X206.248Y-20.32
X206.248Y-22.225
X206.248Y-63.182
X206.248Y-65.087
X206.846Y-79.692
X206.846Y-81.597
X211.01Y-82.233
X211.01Y-84.138
X211.609Y-41.593
X211.609Y-43.497
X213.99Y-117.792
X213.99Y-119.697
X215.773Y-44.133
X215.773Y-46.038
X216.371Y-98.742
X216.371Y-100.647
X220.535Y-101.282
X220.535Y-103.188
X221.134Y-17.78
X221.134Y-19.685
X221.134Y-60.642
X221.134Y-62.547
X225.298Y-63.182
X225.298Y-65.087
X225.897Y-79.692
X225.897Y-81.597
X228.601Y-118.065
X230.06Y-20.32
X230.06Y-22.225
X230.06Y-82.233
X230.06Y-84.138
X230.659Y-41.593
X230.659Y-43.497
X234.823Y-44.133
X234.823Y-46.038
X235.421Y-98.742
X235.421Y-100.647
X237.204Y-120.332
X237.204Y-122.237
X239.585Y-101.282
X239.585Y-103.188
X240.184Y-60.642
X240.184Y-62.547
X244.348Y-63.182
X244.348Y-65.087
X244.946Y-17.78
X244.946Y-19.685
X244.946Y-79.692
X244.946Y-81.597
X249.111Y-20.32
X249.111Y-22.225
X249.111Y-82.233
X249.111Y-84.138
X249.709Y-41.593
X249.709Y-43.497
X252.09Y-117.792
X252.09Y-119.697
X253.873Y-44.133
X253.873Y-46.038
X253.901Y-125.611
X254.471Y-98.742
X254.471Y-100.647
X258.635Y-101.282
X258.635Y-103.188
X258.635Y-120.332
X258.635Y-122.237
X259.234Y-60.642
X259.234Y-62.547
X262.26Y-127.953
X262.26Y-129.857
X262.533Y-115.193
X263.398Y-63.182
X263.398Y-65.087
X263.996Y-17.78
X263.996Y-19.685
X263.996Y-79.692
X263.996Y-81.597
X265.212Y-77.409
X267.909Y-77.409
X268.161Y-20.32
X268.161Y-22.225
X268.161Y-82.233
X268.161Y-84.138
X268.759Y-41.593
X268.759Y-43.497
X272.923Y-44.133
X272.923Y-46.038
X273.522Y-98.742
X273.522Y-100.647
X273.522Y-117.792
X273.522Y-119.697
X275.928Y-115.193
X277.146Y-125.412
X277.146Y-127.317
X278.284Y-60.642
X278.284Y-62.547
X282.448Y-63.182
X282.448Y-65.087
X282.448Y-120.332
X282.448Y-122.237
X283.046Y-17.78
X283.046Y-19.685
X283.046Y-79.692
X283.046Y-81.597
X284.829Y-101.282
X284.829Y-103.188
X286.072Y-127.953
X286.072Y-129.857
X287.21Y-20.32
X287.21Y-22.225
X287.648Y-110.319
X287.809Y-41.593
X287.809Y-43.497
X292.803Y-33.333
X292.826Y-44.168
X294.68Y-51.792
X297.334Y-60.642
X297.334Y-62.547
X297.334Y-117.792
X297.334Y-119.697
X297.657Y-89.302
X299.117Y-82.233
X299.117Y-84.138
X299.715Y-98.742
X299.715Y-100.647
X300.958Y-125.412
X300.958Y-127.317
X301.498Y-44.133
X301.498Y-46.038
X301.824Y-51.792
X302.096Y-17.78
X302.096Y-19.685
X302.717Y-54.216
X306.26Y-63.182
X306.26Y-65.087
X306.26Y-120.332
X306.26Y-122.237
X307.182Y-111.026
X308.075Y-96.143
X309.885Y-127.953
X309.885Y-129.857
X311.023Y-20.32
X311.023Y-22.225
X311.023Y-101.282
X311.023Y-103.188
X314.003Y-79.692
X314.003Y-81.597
X316.384Y-41.593
X316.384Y-43.497
X321.147Y-60.642
X321.147Y-62.547
X321.147Y-117.792
X321.147Y-119.697
X324.771Y-125.412
X324.771Y-127.317
X325.909Y-17.78
X325.909Y-19.685
X325.909Y-98.742
X325.909Y-100.647
T2
X37.63Y-35.623
X37.63Y-53.53
X38.398Y-77.391
X40.986Y-100.422
X40.986Y-122.471
X42.074Y-84.007
X42.931Y-39.403
X42.931Y-120.918
X43.017Y-71.592
X43.119Y-89.641
X43.119Y-93.125
X43.989Y-104.354
X43.989Y-110.554
X44.351Y-78.581
X44.351Y-90.855
X44.351Y-93.925
X44.707Y-51.978
X44.707Y-69.115
X47.689Y-104.354
X47.689Y-110.554
X49.277Y-32.556
X49.277Y-39.403
X50.078Y-30.694
X50.078Y-34.119
X50.304Y-78.879
X99.827Y-28.656
X99.827Y-32.556
X140.308Y-28.656
X140.308Y-32.556
X141.387Y-119.658
X180.789Y-28.656
X180.789Y-32.556
X221.271Y-28.656
X221.271Y-32.556
X251.025Y-114.2
X254.794Y-126.504
X261.343Y-116.086
X261.445Y-114.2
X261.752Y-28.656
X261.752Y-32.556
X275.035Y-114.2
X275.035Y-116.086
X287.537Y-108.645
X287.834Y-111.324
X289.541Y-85.051
X293.526Y-43.368
X293.838Y-33.333
X294.326Y-42.568
X294.65Y-34.133
X295.45Y-34.933
X296.466Y-89.402
X297.726Y-46.025
X299.145Y-86.321
X299.145Y-89.402
X301.992Y-55.009
X304.733Y-95.777
X305.21Y-110.319
X306.01Y-111.621
X306.884Y-96.143
T3
X26.075Y-16.812
X26.075Y-31.312
X28.575Y-31.312
X31.075Y-16.812
X31.075Y-31.312
T5
X24.765Y-45.085
X24.765Y-64.135
X24.765Y-83.185
X24.765Y-102.235
X24.765Y-121.285
X31.115Y-42.545
X31.115Y-61.595
X31.115Y-80.645
X31.115Y-99.695
X31.115Y-118.745
X48.578Y-21.272
X48.578Y-45.085
X50.959Y-121.285
X53.34Y-64.135
X54.61Y-128.905
X54.927Y-18.732
X54.927Y-42.545
X55.721Y-83.185
X57.309Y-118.745
X59.69Y-61.595
X60.484Y-102.235
X60.96Y-126.365
X62.071Y-80.645
X66.834Y-99.695
X67.627Y-45.085
X72.39Y-21.272
X73.977Y-42.545
X74.771Y-121.285
X77.153Y-64.135
X78.422Y-128.905
X78.74Y-18.732
X81.121Y-118.745
X81.915Y-83.185
X83.502Y-61.595
X84.772Y-126.365
X86.677Y-45.085
X88.265Y-80.645
X91.44Y-21.272
X91.44Y-102.235
X93.027Y-42.545
X96.203Y-64.135
X97.79Y-18.732
X97.79Y-99.695
X98.584Y-121.285
X100.965Y-83.185
X102.235Y-128.905
X102.552Y-61.595
X104.934Y-118.745
X105.727Y-45.085
X107.315Y-80.645
X108.585Y-126.365
X110.49Y-21.272
X110.49Y-102.235
X112.078Y-42.545
X115.252Y-64.135
X116.84Y-18.732
X116.84Y-99.695
X120.015Y-83.185
X121.602Y-61.595
X122.396Y-121.285
X124.777Y-45.085
X126.365Y-80.645
X128.746Y-118.745
X129.54Y-21.272
X129.54Y-102.235
X131.127Y-42.545
X134.302Y-64.135
X135.89Y-18.732
X135.89Y-99.695
X139.065Y-83.185
X140.653Y-61.595
X143.827Y-45.085
X145.415Y-80.645
X148.59Y-102.235
X150.177Y-42.545
X153.352Y-21.272
X153.352Y-64.135
X154.94Y-99.695
X157.004Y-128.905
X158.115Y-83.185
X159.702Y-18.732
X159.702Y-61.595
X162.877Y-45.085
X163.354Y-126.365
X164.465Y-80.645
X167.64Y-102.235
X169.227Y-42.545
X170.021Y-121.285
X172.403Y-21.272
X172.403Y-64.135
X173.99Y-99.695
X176.371Y-118.745
X177.165Y-83.185
X178.752Y-18.732
X178.752Y-61.595
X181.927Y-45.085
X183.197Y-128.905
X183.515Y-80.645
X186.69Y-102.235
X188.278Y-42.545
X189.547Y-126.365
X191.452Y-21.272
X191.452Y-64.135
X193.04Y-99.695
X196.215Y-83.185
X197.802Y-18.732
X197.802Y-61.595
X200.977Y-45.085
X202.565Y-80.645
X203.359Y-121.285
X205.74Y-102.235
X207.327Y-42.545
X209.709Y-118.745
X210.502Y-21.272
X210.502Y-64.135
X212.09Y-99.695
X215.265Y-83.185
X216.852Y-18.732
X216.852Y-61.595
X220.028Y-45.085
X221.615Y-80.645
X224.79Y-102.235
X226.377Y-42.545
X229.552Y-64.135
X231.14Y-99.695
X234.315Y-21.272
X234.315Y-83.185
X235.903Y-61.595
X239.077Y-45.085
X240.665Y-18.732
X240.665Y-80.645
X241.459Y-121.285
X243.84Y-102.235
X245.427Y-42.545
X247.809Y-118.745
X248.602Y-64.135
X250.19Y-99.695
X253.365Y-21.272
X253.365Y-83.185
X254.952Y-61.595
X258.127Y-45.085
X259.715Y-18.732
X259.715Y-80.645
X262.89Y-102.235
X262.89Y-121.285
X264.477Y-42.545
X266.541Y-128.905
X267.652Y-64.135
X269.24Y-99.695
X269.24Y-118.745
X272.415Y-21.272
X272.415Y-83.185
X272.891Y-126.365
X274.002Y-61.595
X277.178Y-45.085
X278.765Y-18.732
X278.765Y-80.645
X283.527Y-42.545
X286.702Y-64.135
X286.702Y-121.285
X289.084Y-102.235
X290.354Y-128.905
X291.465Y-21.272
X293.053Y-61.595
X293.053Y-118.745
X295.434Y-99.695
X296.704Y-126.365
X297.815Y-18.732
X303.371Y-83.185
X305.752Y-45.085
X309.721Y-80.645
X310.515Y-64.135
X310.515Y-121.285
X312.102Y-42.545
X314.166Y-128.905
X315.277Y-21.272
X315.277Y-102.235
X316.865Y-61.595
X316.865Y-118.745
X320.516Y-126.365
X321.627Y-18.732
X321.627Y-99.695
T4
G00X22.975Y-24.462
M15
G01X22.975Y-23.162
M16
G05
G00X34.175Y-24.462
M15
G01X34.175Y-23.162
M16
G05
T0
M30
