%TF.GenerationSoftware,KiCad,Pcbnew,(5.1.10)-1*%
%TF.CreationDate,2022-05-03T20:22:29+07:00*%
%TF.ProjectId,75F,3735462e-6b69-4636-9164-5f7063625858,rev?*%
%TF.SameCoordinates,Original*%
%TF.FileFunction,Soldermask,Bot*%
%TF.FilePolarity,Negative*%
%FSLAX46Y46*%
G04 Gerber Fmt 4.6, Leading zero omitted, Abs format (unit mm)*
G04 Created by KiCad (PCBNEW (5.1.10)-1) date 2022-05-03 20:22:29*
%MOMM*%
%LPD*%
G01*
G04 APERTURE LIST*
%ADD10R,2.550000X2.500000*%
%ADD11C,0.500000*%
%ADD12C,3.500000*%
%ADD13C,3.987800*%
%ADD14C,1.750000*%
%ADD15R,1.100000X1.800000*%
%ADD16C,3.048000*%
%ADD17C,0.787400*%
%ADD18C,0.990600*%
%ADD19R,1.300000X0.700000*%
%ADD20R,1.190000X0.900000*%
%ADD21R,1.000000X0.700000*%
%ADD22R,0.600000X0.700000*%
%ADD23C,0.100000*%
%ADD24R,0.700000X1.300000*%
%ADD25R,0.800000X0.750000*%
%ADD26R,0.750000X0.800000*%
%ADD27R,1.500000X1.000000*%
%ADD28R,1.800000X1.200000*%
%ADD29R,1.550000X0.600000*%
%ADD30C,2.000000*%
%ADD31O,2.000000X3.200000*%
G04 APERTURE END LIST*
D10*
%TO.C,MX14*%
X73877500Y-64135000D03*
X86804500Y-61595000D03*
D11*
X87784000Y-60642500D03*
X87784000Y-62547500D03*
X72898000Y-65087500D03*
D12*
X83502500Y-61595000D03*
D13*
X80962500Y-66675000D03*
D12*
X77152500Y-64135000D03*
D14*
X75882500Y-66675000D03*
X86042500Y-66675000D03*
D11*
X72898000Y-63182500D03*
%TD*%
D15*
%TO.C,SW1*%
X47689178Y-104354177D03*
X43989178Y-110554177D03*
X43989178Y-104354177D03*
X47689178Y-110554177D03*
%TD*%
D13*
%TO.C,MX10*%
X64293750Y-104775000D03*
D12*
X60483750Y-102235000D03*
D11*
X56229250Y-103187500D03*
D10*
X57208750Y-102235000D03*
D11*
X71115250Y-100647500D03*
D10*
X70135750Y-99695000D03*
D11*
X71115250Y-98742500D03*
D12*
X66833750Y-99695000D03*
D14*
X59213750Y-104775000D03*
X69373750Y-104775000D03*
D11*
X56229250Y-101282500D03*
D13*
X52355750Y-113030000D03*
X76231750Y-113030000D03*
D16*
X52355750Y-97790000D03*
X76231750Y-97790000D03*
%TD*%
D13*
%TO.C,MX9*%
X59531250Y-85725000D03*
D12*
X55721250Y-83185000D03*
D11*
X51466750Y-84137500D03*
D10*
X52446250Y-83185000D03*
D11*
X66352750Y-81597500D03*
D10*
X65373250Y-80645000D03*
D11*
X66352750Y-79692500D03*
D12*
X62071250Y-80645000D03*
D14*
X54451250Y-85725000D03*
X64611250Y-85725000D03*
D11*
X51466750Y-82232500D03*
%TD*%
D17*
%TO.C,ISP1*%
X292080889Y-83978960D03*
X292080889Y-82708960D03*
X290810889Y-83978960D03*
X290810889Y-82708960D03*
X289540889Y-83978960D03*
X289540889Y-82708960D03*
D18*
X288270889Y-83343960D03*
X293350889Y-82327960D03*
X293350889Y-84359960D03*
%TD*%
D19*
%TO.C,R5*%
X45243864Y-100665095D03*
X45243864Y-98765095D03*
%TD*%
D20*
%TO.C,RGB14*%
X56936250Y-91555000D03*
X62126250Y-90055000D03*
X62126250Y-91555000D03*
X56936250Y-90055000D03*
%TD*%
%TO.C,D75*%
G36*
G01*
X278642266Y-117481544D02*
X279762266Y-117481544D01*
G75*
G02*
X280002266Y-117721544I0J-240000D01*
G01*
X280002266Y-118441544D01*
G75*
G02*
X279762266Y-118681544I-240000J0D01*
G01*
X278642266Y-118681544D01*
G75*
G02*
X278402266Y-118441544I0J240000D01*
G01*
X278402266Y-117721544D01*
G75*
G02*
X278642266Y-117481544I240000J0D01*
G01*
G37*
G36*
G01*
X278642266Y-114681544D02*
X279762266Y-114681544D01*
G75*
G02*
X280002266Y-114921544I0J-240000D01*
G01*
X280002266Y-115641544D01*
G75*
G02*
X279762266Y-115881544I-240000J0D01*
G01*
X278642266Y-115881544D01*
G75*
G02*
X278402266Y-115641544I0J240000D01*
G01*
X278402266Y-114921544D01*
G75*
G02*
X278642266Y-114681544I240000J0D01*
G01*
G37*
%TD*%
%TO.C,D11*%
G36*
G01*
X66115168Y-117481544D02*
X67235168Y-117481544D01*
G75*
G02*
X67475168Y-117721544I0J-240000D01*
G01*
X67475168Y-118441544D01*
G75*
G02*
X67235168Y-118681544I-240000J0D01*
G01*
X66115168Y-118681544D01*
G75*
G02*
X65875168Y-118441544I0J240000D01*
G01*
X65875168Y-117721544D01*
G75*
G02*
X66115168Y-117481544I240000J0D01*
G01*
G37*
G36*
G01*
X66115168Y-114681544D02*
X67235168Y-114681544D01*
G75*
G02*
X67475168Y-114921544I0J-240000D01*
G01*
X67475168Y-115641544D01*
G75*
G02*
X67235168Y-115881544I-240000J0D01*
G01*
X66115168Y-115881544D01*
G75*
G02*
X65875168Y-115641544I0J240000D01*
G01*
X65875168Y-114921544D01*
G75*
G02*
X66115168Y-114681544I240000J0D01*
G01*
G37*
%TD*%
%TO.C,D65*%
G36*
G01*
X254234392Y-117481544D02*
X255354392Y-117481544D01*
G75*
G02*
X255594392Y-117721544I0J-240000D01*
G01*
X255594392Y-118441544D01*
G75*
G02*
X255354392Y-118681544I-240000J0D01*
G01*
X254234392Y-118681544D01*
G75*
G02*
X253994392Y-118441544I0J240000D01*
G01*
X253994392Y-117721544D01*
G75*
G02*
X254234392Y-117481544I240000J0D01*
G01*
G37*
G36*
G01*
X254234392Y-114681544D02*
X255354392Y-114681544D01*
G75*
G02*
X255594392Y-114921544I0J-240000D01*
G01*
X255594392Y-115641544D01*
G75*
G02*
X255354392Y-115881544I-240000J0D01*
G01*
X254234392Y-115881544D01*
G75*
G02*
X253994392Y-115641544I0J240000D01*
G01*
X253994392Y-114921544D01*
G75*
G02*
X254234392Y-114681544I240000J0D01*
G01*
G37*
%TD*%
%TO.C,D4*%
G36*
G01*
X37469468Y-103975264D02*
X36349468Y-103975264D01*
G75*
G02*
X36109468Y-103735264I0J240000D01*
G01*
X36109468Y-103015264D01*
G75*
G02*
X36349468Y-102775264I240000J0D01*
G01*
X37469468Y-102775264D01*
G75*
G02*
X37709468Y-103015264I0J-240000D01*
G01*
X37709468Y-103735264D01*
G75*
G02*
X37469468Y-103975264I-240000J0D01*
G01*
G37*
G36*
G01*
X37469468Y-106775264D02*
X36349468Y-106775264D01*
G75*
G02*
X36109468Y-106535264I0J240000D01*
G01*
X36109468Y-105815264D01*
G75*
G02*
X36349468Y-105575264I240000J0D01*
G01*
X37469468Y-105575264D01*
G75*
G02*
X37709468Y-105815264I0J-240000D01*
G01*
X37709468Y-106535264D01*
G75*
G02*
X37469468Y-106775264I-240000J0D01*
G01*
G37*
%TD*%
%TO.C,D66*%
G36*
G01*
X138445819Y-117481544D02*
X139565819Y-117481544D01*
G75*
G02*
X139805819Y-117721544I0J-240000D01*
G01*
X139805819Y-118441544D01*
G75*
G02*
X139565819Y-118681544I-240000J0D01*
G01*
X138445819Y-118681544D01*
G75*
G02*
X138205819Y-118441544I0J240000D01*
G01*
X138205819Y-117721544D01*
G75*
G02*
X138445819Y-117481544I240000J0D01*
G01*
G37*
G36*
G01*
X138445819Y-114681544D02*
X139565819Y-114681544D01*
G75*
G02*
X139805819Y-114921544I0J-240000D01*
G01*
X139805819Y-115641544D01*
G75*
G02*
X139565819Y-115881544I-240000J0D01*
G01*
X138445819Y-115881544D01*
G75*
G02*
X138205819Y-115641544I0J240000D01*
G01*
X138205819Y-114921544D01*
G75*
G02*
X138445819Y-114681544I240000J0D01*
G01*
G37*
%TD*%
%TO.C,D5*%
G36*
G01*
X39383695Y-118205143D02*
X39383695Y-119325143D01*
G75*
G02*
X39143695Y-119565143I-240000J0D01*
G01*
X38423695Y-119565143D01*
G75*
G02*
X38183695Y-119325143I0J240000D01*
G01*
X38183695Y-118205143D01*
G75*
G02*
X38423695Y-117965143I240000J0D01*
G01*
X39143695Y-117965143D01*
G75*
G02*
X39383695Y-118205143I0J-240000D01*
G01*
G37*
G36*
G01*
X42183695Y-118205143D02*
X42183695Y-119325143D01*
G75*
G02*
X41943695Y-119565143I-240000J0D01*
G01*
X41223695Y-119565143D01*
G75*
G02*
X40983695Y-119325143I0J240000D01*
G01*
X40983695Y-118205143D01*
G75*
G02*
X41223695Y-117965143I240000J0D01*
G01*
X41943695Y-117965143D01*
G75*
G02*
X42183695Y-118205143I0J-240000D01*
G01*
G37*
%TD*%
%TO.C,D81*%
G36*
G01*
X281618836Y-117481544D02*
X282738836Y-117481544D01*
G75*
G02*
X282978836Y-117721544I0J-240000D01*
G01*
X282978836Y-118441544D01*
G75*
G02*
X282738836Y-118681544I-240000J0D01*
G01*
X281618836Y-118681544D01*
G75*
G02*
X281378836Y-118441544I0J240000D01*
G01*
X281378836Y-117721544D01*
G75*
G02*
X281618836Y-117481544I240000J0D01*
G01*
G37*
G36*
G01*
X281618836Y-114681544D02*
X282738836Y-114681544D01*
G75*
G02*
X282978836Y-114921544I0J-240000D01*
G01*
X282978836Y-115641544D01*
G75*
G02*
X282738836Y-115881544I-240000J0D01*
G01*
X281618836Y-115881544D01*
G75*
G02*
X281378836Y-115641544I0J240000D01*
G01*
X281378836Y-114921544D01*
G75*
G02*
X281618836Y-114681544I240000J0D01*
G01*
G37*
%TD*%
%TO.C,D83*%
G36*
G01*
X277976324Y-103975264D02*
X276856324Y-103975264D01*
G75*
G02*
X276616324Y-103735264I0J240000D01*
G01*
X276616324Y-103015264D01*
G75*
G02*
X276856324Y-102775264I240000J0D01*
G01*
X277976324Y-102775264D01*
G75*
G02*
X278216324Y-103015264I0J-240000D01*
G01*
X278216324Y-103735264D01*
G75*
G02*
X277976324Y-103975264I-240000J0D01*
G01*
G37*
G36*
G01*
X277976324Y-106775264D02*
X276856324Y-106775264D01*
G75*
G02*
X276616324Y-106535264I0J240000D01*
G01*
X276616324Y-105815264D01*
G75*
G02*
X276856324Y-105575264I240000J0D01*
G01*
X277976324Y-105575264D01*
G75*
G02*
X278216324Y-105815264I0J-240000D01*
G01*
X278216324Y-106535264D01*
G75*
G02*
X277976324Y-106775264I-240000J0D01*
G01*
G37*
%TD*%
%TO.C,D17*%
G36*
G01*
X89927728Y-117481544D02*
X91047728Y-117481544D01*
G75*
G02*
X91287728Y-117721544I0J-240000D01*
G01*
X91287728Y-118441544D01*
G75*
G02*
X91047728Y-118681544I-240000J0D01*
G01*
X89927728Y-118681544D01*
G75*
G02*
X89687728Y-118441544I0J240000D01*
G01*
X89687728Y-117721544D01*
G75*
G02*
X89927728Y-117481544I240000J0D01*
G01*
G37*
G36*
G01*
X89927728Y-114681544D02*
X91047728Y-114681544D01*
G75*
G02*
X91287728Y-114921544I0J-240000D01*
G01*
X91287728Y-115641544D01*
G75*
G02*
X91047728Y-115881544I-240000J0D01*
G01*
X89927728Y-115881544D01*
G75*
G02*
X89687728Y-115641544I0J240000D01*
G01*
X89687728Y-114921544D01*
G75*
G02*
X89927728Y-114681544I240000J0D01*
G01*
G37*
%TD*%
%TO.C,D23*%
G36*
G01*
X113740288Y-117481544D02*
X114860288Y-117481544D01*
G75*
G02*
X115100288Y-117721544I0J-240000D01*
G01*
X115100288Y-118441544D01*
G75*
G02*
X114860288Y-118681544I-240000J0D01*
G01*
X113740288Y-118681544D01*
G75*
G02*
X113500288Y-118441544I0J240000D01*
G01*
X113500288Y-117721544D01*
G75*
G02*
X113740288Y-117481544I240000J0D01*
G01*
G37*
G36*
G01*
X113740288Y-114681544D02*
X114860288Y-114681544D01*
G75*
G02*
X115100288Y-114921544I0J-240000D01*
G01*
X115100288Y-115641544D01*
G75*
G02*
X114860288Y-115881544I-240000J0D01*
G01*
X113740288Y-115881544D01*
G75*
G02*
X113500288Y-115641544I0J240000D01*
G01*
X113500288Y-114921544D01*
G75*
G02*
X113740288Y-114681544I240000J0D01*
G01*
G37*
%TD*%
%TO.C,D84*%
G36*
G01*
X303277169Y-103975264D02*
X302157169Y-103975264D01*
G75*
G02*
X301917169Y-103735264I0J240000D01*
G01*
X301917169Y-103015264D01*
G75*
G02*
X302157169Y-102775264I240000J0D01*
G01*
X303277169Y-102775264D01*
G75*
G02*
X303517169Y-103015264I0J-240000D01*
G01*
X303517169Y-103735264D01*
G75*
G02*
X303277169Y-103975264I-240000J0D01*
G01*
G37*
G36*
G01*
X303277169Y-106775264D02*
X302157169Y-106775264D01*
G75*
G02*
X301917169Y-106535264I0J240000D01*
G01*
X301917169Y-105815264D01*
G75*
G02*
X302157169Y-105575264I240000J0D01*
G01*
X303277169Y-105575264D01*
G75*
G02*
X303517169Y-105815264I0J-240000D01*
G01*
X303517169Y-106535264D01*
G75*
G02*
X303277169Y-106775264I-240000J0D01*
G01*
G37*
%TD*%
%TO.C,D80*%
G36*
G01*
X232803088Y-117481544D02*
X233923088Y-117481544D01*
G75*
G02*
X234163088Y-117721544I0J-240000D01*
G01*
X234163088Y-118441544D01*
G75*
G02*
X233923088Y-118681544I-240000J0D01*
G01*
X232803088Y-118681544D01*
G75*
G02*
X232563088Y-118441544I0J240000D01*
G01*
X232563088Y-117721544D01*
G75*
G02*
X232803088Y-117481544I240000J0D01*
G01*
G37*
G36*
G01*
X232803088Y-114681544D02*
X233923088Y-114681544D01*
G75*
G02*
X234163088Y-114921544I0J-240000D01*
G01*
X234163088Y-115641544D01*
G75*
G02*
X233923088Y-115881544I-240000J0D01*
G01*
X232803088Y-115881544D01*
G75*
G02*
X232563088Y-115641544I0J240000D01*
G01*
X232563088Y-114921544D01*
G75*
G02*
X232803088Y-114681544I240000J0D01*
G01*
G37*
%TD*%
%TO.C,D77*%
G36*
G01*
X322029560Y-48015748D02*
X320909560Y-48015748D01*
G75*
G02*
X320669560Y-47775748I0J240000D01*
G01*
X320669560Y-47055748D01*
G75*
G02*
X320909560Y-46815748I240000J0D01*
G01*
X322029560Y-46815748D01*
G75*
G02*
X322269560Y-47055748I0J-240000D01*
G01*
X322269560Y-47775748D01*
G75*
G02*
X322029560Y-48015748I-240000J0D01*
G01*
G37*
G36*
G01*
X322029560Y-50815748D02*
X320909560Y-50815748D01*
G75*
G02*
X320669560Y-50575748I0J240000D01*
G01*
X320669560Y-49855748D01*
G75*
G02*
X320909560Y-49615748I240000J0D01*
G01*
X322029560Y-49615748D01*
G75*
G02*
X322269560Y-49855748I0J-240000D01*
G01*
X322269560Y-50575748D01*
G75*
G02*
X322029560Y-50815748I-240000J0D01*
G01*
G37*
%TD*%
%TO.C,D71*%
G36*
G01*
X256615648Y-117481544D02*
X257735648Y-117481544D01*
G75*
G02*
X257975648Y-117721544I0J-240000D01*
G01*
X257975648Y-118441544D01*
G75*
G02*
X257735648Y-118681544I-240000J0D01*
G01*
X256615648Y-118681544D01*
G75*
G02*
X256375648Y-118441544I0J240000D01*
G01*
X256375648Y-117721544D01*
G75*
G02*
X256615648Y-117481544I240000J0D01*
G01*
G37*
G36*
G01*
X256615648Y-114681544D02*
X257735648Y-114681544D01*
G75*
G02*
X257975648Y-114921544I0J-240000D01*
G01*
X257975648Y-115641544D01*
G75*
G02*
X257735648Y-115881544I-240000J0D01*
G01*
X256615648Y-115881544D01*
G75*
G02*
X256375648Y-115641544I0J240000D01*
G01*
X256375648Y-114921544D01*
G75*
G02*
X256615648Y-114681544I240000J0D01*
G01*
G37*
%TD*%
%TO.C,D39*%
G36*
G01*
X140827075Y-117481544D02*
X141947075Y-117481544D01*
G75*
G02*
X142187075Y-117721544I0J-240000D01*
G01*
X142187075Y-118441544D01*
G75*
G02*
X141947075Y-118681544I-240000J0D01*
G01*
X140827075Y-118681544D01*
G75*
G02*
X140587075Y-118441544I0J240000D01*
G01*
X140587075Y-117721544D01*
G75*
G02*
X140827075Y-117481544I240000J0D01*
G01*
G37*
G36*
G01*
X140827075Y-114681544D02*
X141947075Y-114681544D01*
G75*
G02*
X142187075Y-114921544I0J-240000D01*
G01*
X142187075Y-115641544D01*
G75*
G02*
X141947075Y-115881544I-240000J0D01*
G01*
X140827075Y-115881544D01*
G75*
G02*
X140587075Y-115641544I0J240000D01*
G01*
X140587075Y-114921544D01*
G75*
G02*
X140827075Y-114681544I240000J0D01*
G01*
G37*
%TD*%
D21*
%TO.C,U1*%
X312980478Y-31146956D03*
D22*
X312780478Y-33146956D03*
X314680478Y-31146956D03*
X314680478Y-33146956D03*
%TD*%
D23*
%TO.C,Y1*%
G36*
X51385234Y-87178146D02*
G01*
X50041731Y-85834643D01*
X50324574Y-85551800D01*
X51668077Y-86895303D01*
X51385234Y-87178146D01*
G37*
G36*
X50536706Y-88026674D02*
G01*
X49193203Y-86683171D01*
X49476046Y-86400328D01*
X50819549Y-87743831D01*
X50536706Y-88026674D01*
G37*
G36*
X49688178Y-88875202D02*
G01*
X48344675Y-87531699D01*
X48627518Y-87248856D01*
X49971021Y-88592359D01*
X49688178Y-88875202D01*
G37*
%TD*%
D24*
%TO.C,R2*%
X39531420Y-29070435D03*
X41431420Y-29070435D03*
%TD*%
%TO.C,R1*%
X39531420Y-31056380D03*
X41431420Y-31056380D03*
%TD*%
D25*
%TO.C,C9*%
X38254845Y-29170435D03*
X36754845Y-29170435D03*
%TD*%
%TO.C,C8*%
X36754845Y-30956380D03*
X38254845Y-30956380D03*
%TD*%
%TO.C,D20*%
G36*
G01*
X108907330Y-65875280D02*
X107787330Y-65875280D01*
G75*
G02*
X107547330Y-65635280I0J240000D01*
G01*
X107547330Y-64915280D01*
G75*
G02*
X107787330Y-64675280I240000J0D01*
G01*
X108907330Y-64675280D01*
G75*
G02*
X109147330Y-64915280I0J-240000D01*
G01*
X109147330Y-65635280D01*
G75*
G02*
X108907330Y-65875280I-240000J0D01*
G01*
G37*
G36*
G01*
X108907330Y-68675280D02*
X107787330Y-68675280D01*
G75*
G02*
X107547330Y-68435280I0J240000D01*
G01*
X107547330Y-67715280D01*
G75*
G02*
X107787330Y-67475280I240000J0D01*
G01*
X108907330Y-67475280D01*
G75*
G02*
X109147330Y-67715280I0J-240000D01*
G01*
X109147330Y-68435280D01*
G75*
G02*
X108907330Y-68675280I-240000J0D01*
G01*
G37*
%TD*%
%TO.C,D15*%
G36*
G01*
X94619770Y-84925360D02*
X93499770Y-84925360D01*
G75*
G02*
X93259770Y-84685360I0J240000D01*
G01*
X93259770Y-83965360D01*
G75*
G02*
X93499770Y-83725360I240000J0D01*
G01*
X94619770Y-83725360D01*
G75*
G02*
X94859770Y-83965360I0J-240000D01*
G01*
X94859770Y-84685360D01*
G75*
G02*
X94619770Y-84925360I-240000J0D01*
G01*
G37*
G36*
G01*
X94619770Y-87725360D02*
X93499770Y-87725360D01*
G75*
G02*
X93259770Y-87485360I0J240000D01*
G01*
X93259770Y-86765360D01*
G75*
G02*
X93499770Y-86525360I240000J0D01*
G01*
X94619770Y-86525360D01*
G75*
G02*
X94859770Y-86765360I0J-240000D01*
G01*
X94859770Y-87485360D01*
G75*
G02*
X94619770Y-87725360I-240000J0D01*
G01*
G37*
%TD*%
%TO.C,D37*%
G36*
G01*
X170820090Y-84925360D02*
X169700090Y-84925360D01*
G75*
G02*
X169460090Y-84685360I0J240000D01*
G01*
X169460090Y-83965360D01*
G75*
G02*
X169700090Y-83725360I240000J0D01*
G01*
X170820090Y-83725360D01*
G75*
G02*
X171060090Y-83965360I0J-240000D01*
G01*
X171060090Y-84685360D01*
G75*
G02*
X170820090Y-84925360I-240000J0D01*
G01*
G37*
G36*
G01*
X170820090Y-87725360D02*
X169700090Y-87725360D01*
G75*
G02*
X169460090Y-87485360I0J240000D01*
G01*
X169460090Y-86765360D01*
G75*
G02*
X169700090Y-86525360I240000J0D01*
G01*
X170820090Y-86525360D01*
G75*
G02*
X171060090Y-86765360I0J-240000D01*
G01*
X171060090Y-87485360D01*
G75*
G02*
X170820090Y-87725360I-240000J0D01*
G01*
G37*
%TD*%
%TO.C,D52*%
G36*
G01*
X223207810Y-65875280D02*
X222087810Y-65875280D01*
G75*
G02*
X221847810Y-65635280I0J240000D01*
G01*
X221847810Y-64915280D01*
G75*
G02*
X222087810Y-64675280I240000J0D01*
G01*
X223207810Y-64675280D01*
G75*
G02*
X223447810Y-64915280I0J-240000D01*
G01*
X223447810Y-65635280D01*
G75*
G02*
X223207810Y-65875280I-240000J0D01*
G01*
G37*
G36*
G01*
X223207810Y-68675280D02*
X222087810Y-68675280D01*
G75*
G02*
X221847810Y-68435280I0J240000D01*
G01*
X221847810Y-67715280D01*
G75*
G02*
X222087810Y-67475280I240000J0D01*
G01*
X223207810Y-67475280D01*
G75*
G02*
X223447810Y-67715280I0J-240000D01*
G01*
X223447810Y-68435280D01*
G75*
G02*
X223207810Y-68675280I-240000J0D01*
G01*
G37*
%TD*%
%TO.C,D54*%
G36*
G01*
X237495370Y-103975440D02*
X236375370Y-103975440D01*
G75*
G02*
X236135370Y-103735440I0J240000D01*
G01*
X236135370Y-103015440D01*
G75*
G02*
X236375370Y-102775440I240000J0D01*
G01*
X237495370Y-102775440D01*
G75*
G02*
X237735370Y-103015440I0J-240000D01*
G01*
X237735370Y-103735440D01*
G75*
G02*
X237495370Y-103975440I-240000J0D01*
G01*
G37*
G36*
G01*
X237495370Y-106775440D02*
X236375370Y-106775440D01*
G75*
G02*
X236135370Y-106535440I0J240000D01*
G01*
X236135370Y-105815440D01*
G75*
G02*
X236375370Y-105575440I240000J0D01*
G01*
X237495370Y-105575440D01*
G75*
G02*
X237735370Y-105815440I0J-240000D01*
G01*
X237735370Y-106535440D01*
G75*
G02*
X237495370Y-106775440I-240000J0D01*
G01*
G37*
%TD*%
%TO.C,D31*%
G36*
G01*
X147007490Y-65875280D02*
X145887490Y-65875280D01*
G75*
G02*
X145647490Y-65635280I0J240000D01*
G01*
X145647490Y-64915280D01*
G75*
G02*
X145887490Y-64675280I240000J0D01*
G01*
X147007490Y-64675280D01*
G75*
G02*
X147247490Y-64915280I0J-240000D01*
G01*
X147247490Y-65635280D01*
G75*
G02*
X147007490Y-65875280I-240000J0D01*
G01*
G37*
G36*
G01*
X147007490Y-68675280D02*
X145887490Y-68675280D01*
G75*
G02*
X145647490Y-68435280I0J240000D01*
G01*
X145647490Y-67715280D01*
G75*
G02*
X145887490Y-67475280I240000J0D01*
G01*
X147007490Y-67475280D01*
G75*
G02*
X147247490Y-67715280I0J-240000D01*
G01*
X147247490Y-68435280D01*
G75*
G02*
X147007490Y-68675280I-240000J0D01*
G01*
G37*
%TD*%
%TO.C,D38*%
G36*
G01*
X180345130Y-103975440D02*
X179225130Y-103975440D01*
G75*
G02*
X178985130Y-103735440I0J240000D01*
G01*
X178985130Y-103015440D01*
G75*
G02*
X179225130Y-102775440I240000J0D01*
G01*
X180345130Y-102775440D01*
G75*
G02*
X180585130Y-103015440I0J-240000D01*
G01*
X180585130Y-103735440D01*
G75*
G02*
X180345130Y-103975440I-240000J0D01*
G01*
G37*
G36*
G01*
X180345130Y-106775440D02*
X179225130Y-106775440D01*
G75*
G02*
X178985130Y-106535440I0J240000D01*
G01*
X178985130Y-105815440D01*
G75*
G02*
X179225130Y-105575440I240000J0D01*
G01*
X180345130Y-105575440D01*
G75*
G02*
X180585130Y-105815440I0J-240000D01*
G01*
X180585130Y-106535440D01*
G75*
G02*
X180345130Y-106775440I-240000J0D01*
G01*
G37*
%TD*%
%TO.C,D49*%
G36*
G01*
X218445290Y-103975440D02*
X217325290Y-103975440D01*
G75*
G02*
X217085290Y-103735440I0J240000D01*
G01*
X217085290Y-103015440D01*
G75*
G02*
X217325290Y-102775440I240000J0D01*
G01*
X218445290Y-102775440D01*
G75*
G02*
X218685290Y-103015440I0J-240000D01*
G01*
X218685290Y-103735440D01*
G75*
G02*
X218445290Y-103975440I-240000J0D01*
G01*
G37*
G36*
G01*
X218445290Y-106775440D02*
X217325290Y-106775440D01*
G75*
G02*
X217085290Y-106535440I0J240000D01*
G01*
X217085290Y-105815440D01*
G75*
G02*
X217325290Y-105575440I240000J0D01*
G01*
X218445290Y-105575440D01*
G75*
G02*
X218685290Y-105815440I0J-240000D01*
G01*
X218685290Y-106535440D01*
G75*
G02*
X218445290Y-106775440I-240000J0D01*
G01*
G37*
%TD*%
%TO.C,C5*%
X51339975Y-79474419D03*
X52839975Y-79474419D03*
%TD*%
%TO.C,D9*%
G36*
G01*
X75569690Y-84925360D02*
X74449690Y-84925360D01*
G75*
G02*
X74209690Y-84685360I0J240000D01*
G01*
X74209690Y-83965360D01*
G75*
G02*
X74449690Y-83725360I240000J0D01*
G01*
X75569690Y-83725360D01*
G75*
G02*
X75809690Y-83965360I0J-240000D01*
G01*
X75809690Y-84685360D01*
G75*
G02*
X75569690Y-84925360I-240000J0D01*
G01*
G37*
G36*
G01*
X75569690Y-87725360D02*
X74449690Y-87725360D01*
G75*
G02*
X74209690Y-87485360I0J240000D01*
G01*
X74209690Y-86765360D01*
G75*
G02*
X74449690Y-86525360I240000J0D01*
G01*
X75569690Y-86525360D01*
G75*
G02*
X75809690Y-86765360I0J-240000D01*
G01*
X75809690Y-87485360D01*
G75*
G02*
X75569690Y-87725360I-240000J0D01*
G01*
G37*
%TD*%
%TO.C,D2*%
G36*
G01*
X70806875Y-65875000D02*
X69686875Y-65875000D01*
G75*
G02*
X69446875Y-65635000I0J240000D01*
G01*
X69446875Y-64915000D01*
G75*
G02*
X69686875Y-64675000I240000J0D01*
G01*
X70806875Y-64675000D01*
G75*
G02*
X71046875Y-64915000I0J-240000D01*
G01*
X71046875Y-65635000D01*
G75*
G02*
X70806875Y-65875000I-240000J0D01*
G01*
G37*
G36*
G01*
X70806875Y-68675000D02*
X69686875Y-68675000D01*
G75*
G02*
X69446875Y-68435000I0J240000D01*
G01*
X69446875Y-67715000D01*
G75*
G02*
X69686875Y-67475000I240000J0D01*
G01*
X70806875Y-67475000D01*
G75*
G02*
X71046875Y-67715000I0J-240000D01*
G01*
X71046875Y-68435000D01*
G75*
G02*
X70806875Y-68675000I-240000J0D01*
G01*
G37*
%TD*%
D23*
%TO.C,C6*%
G36*
X48833426Y-73901598D02*
G01*
X48303096Y-74431928D01*
X47737410Y-73866242D01*
X48267740Y-73335912D01*
X48833426Y-73901598D01*
G37*
G36*
X49894086Y-74962258D02*
G01*
X49363756Y-75492588D01*
X48798070Y-74926902D01*
X49328400Y-74396572D01*
X49894086Y-74962258D01*
G37*
%TD*%
%TO.C,D3*%
G36*
G01*
X37469468Y-84925216D02*
X36349468Y-84925216D01*
G75*
G02*
X36109468Y-84685216I0J240000D01*
G01*
X36109468Y-83965216D01*
G75*
G02*
X36349468Y-83725216I240000J0D01*
G01*
X37469468Y-83725216D01*
G75*
G02*
X37709468Y-83965216I0J-240000D01*
G01*
X37709468Y-84685216D01*
G75*
G02*
X37469468Y-84925216I-240000J0D01*
G01*
G37*
G36*
G01*
X37469468Y-87725216D02*
X36349468Y-87725216D01*
G75*
G02*
X36109468Y-87485216I0J240000D01*
G01*
X36109468Y-86765216D01*
G75*
G02*
X36349468Y-86525216I240000J0D01*
G01*
X37469468Y-86525216D01*
G75*
G02*
X37709468Y-86765216I0J-240000D01*
G01*
X37709468Y-87485216D01*
G75*
G02*
X37469468Y-87725216I-240000J0D01*
G01*
G37*
%TD*%
%TO.C,D14*%
G36*
G01*
X89857250Y-65875280D02*
X88737250Y-65875280D01*
G75*
G02*
X88497250Y-65635280I0J240000D01*
G01*
X88497250Y-64915280D01*
G75*
G02*
X88737250Y-64675280I240000J0D01*
G01*
X89857250Y-64675280D01*
G75*
G02*
X90097250Y-64915280I0J-240000D01*
G01*
X90097250Y-65635280D01*
G75*
G02*
X89857250Y-65875280I-240000J0D01*
G01*
G37*
G36*
G01*
X89857250Y-68675280D02*
X88737250Y-68675280D01*
G75*
G02*
X88497250Y-68435280I0J240000D01*
G01*
X88497250Y-67715280D01*
G75*
G02*
X88737250Y-67475280I240000J0D01*
G01*
X89857250Y-67475280D01*
G75*
G02*
X90097250Y-67715280I0J-240000D01*
G01*
X90097250Y-68435280D01*
G75*
G02*
X89857250Y-68675280I-240000J0D01*
G01*
G37*
%TD*%
%TO.C,D27*%
G36*
G01*
X132719930Y-84925360D02*
X131599930Y-84925360D01*
G75*
G02*
X131359930Y-84685360I0J240000D01*
G01*
X131359930Y-83965360D01*
G75*
G02*
X131599930Y-83725360I240000J0D01*
G01*
X132719930Y-83725360D01*
G75*
G02*
X132959930Y-83965360I0J-240000D01*
G01*
X132959930Y-84685360D01*
G75*
G02*
X132719930Y-84925360I-240000J0D01*
G01*
G37*
G36*
G01*
X132719930Y-87725360D02*
X131599930Y-87725360D01*
G75*
G02*
X131359930Y-87485360I0J240000D01*
G01*
X131359930Y-86765360D01*
G75*
G02*
X131599930Y-86525360I240000J0D01*
G01*
X132719930Y-86525360D01*
G75*
G02*
X132959930Y-86765360I0J-240000D01*
G01*
X132959930Y-87485360D01*
G75*
G02*
X132719930Y-87725360I-240000J0D01*
G01*
G37*
%TD*%
D26*
%TO.C,C1*%
X44350893Y-71592366D03*
X44350893Y-70092366D03*
%TD*%
%TO.C,C7*%
X38397753Y-76057221D03*
X38397753Y-74557221D03*
%TD*%
%TO.C,D10*%
G36*
G01*
X80034419Y-103975264D02*
X78914419Y-103975264D01*
G75*
G02*
X78674419Y-103735264I0J240000D01*
G01*
X78674419Y-103015264D01*
G75*
G02*
X78914419Y-102775264I240000J0D01*
G01*
X80034419Y-102775264D01*
G75*
G02*
X80274419Y-103015264I0J-240000D01*
G01*
X80274419Y-103735264D01*
G75*
G02*
X80034419Y-103975264I-240000J0D01*
G01*
G37*
G36*
G01*
X80034419Y-106775264D02*
X78914419Y-106775264D01*
G75*
G02*
X78674419Y-106535264I0J240000D01*
G01*
X78674419Y-105815264D01*
G75*
G02*
X78914419Y-105575264I240000J0D01*
G01*
X80034419Y-105575264D01*
G75*
G02*
X80274419Y-105815264I0J-240000D01*
G01*
X80274419Y-106535264D01*
G75*
G02*
X80034419Y-106775264I-240000J0D01*
G01*
G37*
%TD*%
%TO.C,D26*%
G36*
G01*
X127957410Y-65875280D02*
X126837410Y-65875280D01*
G75*
G02*
X126597410Y-65635280I0J240000D01*
G01*
X126597410Y-64915280D01*
G75*
G02*
X126837410Y-64675280I240000J0D01*
G01*
X127957410Y-64675280D01*
G75*
G02*
X128197410Y-64915280I0J-240000D01*
G01*
X128197410Y-65635280D01*
G75*
G02*
X127957410Y-65875280I-240000J0D01*
G01*
G37*
G36*
G01*
X127957410Y-68675280D02*
X126837410Y-68675280D01*
G75*
G02*
X126597410Y-68435280I0J240000D01*
G01*
X126597410Y-67715280D01*
G75*
G02*
X126837410Y-67475280I240000J0D01*
G01*
X127957410Y-67475280D01*
G75*
G02*
X128197410Y-67715280I0J-240000D01*
G01*
X128197410Y-68435280D01*
G75*
G02*
X127957410Y-68675280I-240000J0D01*
G01*
G37*
%TD*%
%TO.C,D32*%
G36*
G01*
X151770010Y-84925360D02*
X150650010Y-84925360D01*
G75*
G02*
X150410010Y-84685360I0J240000D01*
G01*
X150410010Y-83965360D01*
G75*
G02*
X150650010Y-83725360I240000J0D01*
G01*
X151770010Y-83725360D01*
G75*
G02*
X152010010Y-83965360I0J-240000D01*
G01*
X152010010Y-84685360D01*
G75*
G02*
X151770010Y-84925360I-240000J0D01*
G01*
G37*
G36*
G01*
X151770010Y-87725360D02*
X150650010Y-87725360D01*
G75*
G02*
X150410010Y-87485360I0J240000D01*
G01*
X150410010Y-86765360D01*
G75*
G02*
X150650010Y-86525360I240000J0D01*
G01*
X151770010Y-86525360D01*
G75*
G02*
X152010010Y-86765360I0J-240000D01*
G01*
X152010010Y-87485360D01*
G75*
G02*
X151770010Y-87725360I-240000J0D01*
G01*
G37*
%TD*%
%TO.C,D33*%
G36*
G01*
X161295050Y-103975440D02*
X160175050Y-103975440D01*
G75*
G02*
X159935050Y-103735440I0J240000D01*
G01*
X159935050Y-103015440D01*
G75*
G02*
X160175050Y-102775440I240000J0D01*
G01*
X161295050Y-102775440D01*
G75*
G02*
X161535050Y-103015440I0J-240000D01*
G01*
X161535050Y-103735440D01*
G75*
G02*
X161295050Y-103975440I-240000J0D01*
G01*
G37*
G36*
G01*
X161295050Y-106775440D02*
X160175050Y-106775440D01*
G75*
G02*
X159935050Y-106535440I0J240000D01*
G01*
X159935050Y-105815440D01*
G75*
G02*
X160175050Y-105575440I240000J0D01*
G01*
X161295050Y-105575440D01*
G75*
G02*
X161535050Y-105815440I0J-240000D01*
G01*
X161535050Y-106535440D01*
G75*
G02*
X161295050Y-106775440I-240000J0D01*
G01*
G37*
%TD*%
%TO.C,D42*%
G36*
G01*
X185107650Y-65875280D02*
X183987650Y-65875280D01*
G75*
G02*
X183747650Y-65635280I0J240000D01*
G01*
X183747650Y-64915280D01*
G75*
G02*
X183987650Y-64675280I240000J0D01*
G01*
X185107650Y-64675280D01*
G75*
G02*
X185347650Y-64915280I0J-240000D01*
G01*
X185347650Y-65635280D01*
G75*
G02*
X185107650Y-65875280I-240000J0D01*
G01*
G37*
G36*
G01*
X185107650Y-68675280D02*
X183987650Y-68675280D01*
G75*
G02*
X183747650Y-68435280I0J240000D01*
G01*
X183747650Y-67715280D01*
G75*
G02*
X183987650Y-67475280I240000J0D01*
G01*
X185107650Y-67475280D01*
G75*
G02*
X185347650Y-67715280I0J-240000D01*
G01*
X185347650Y-68435280D01*
G75*
G02*
X185107650Y-68675280I-240000J0D01*
G01*
G37*
%TD*%
%TO.C,D43*%
G36*
G01*
X189870170Y-84925360D02*
X188750170Y-84925360D01*
G75*
G02*
X188510170Y-84685360I0J240000D01*
G01*
X188510170Y-83965360D01*
G75*
G02*
X188750170Y-83725360I240000J0D01*
G01*
X189870170Y-83725360D01*
G75*
G02*
X190110170Y-83965360I0J-240000D01*
G01*
X190110170Y-84685360D01*
G75*
G02*
X189870170Y-84925360I-240000J0D01*
G01*
G37*
G36*
G01*
X189870170Y-87725360D02*
X188750170Y-87725360D01*
G75*
G02*
X188510170Y-87485360I0J240000D01*
G01*
X188510170Y-86765360D01*
G75*
G02*
X188750170Y-86525360I240000J0D01*
G01*
X189870170Y-86525360D01*
G75*
G02*
X190110170Y-86765360I0J-240000D01*
G01*
X190110170Y-87485360D01*
G75*
G02*
X189870170Y-87725360I-240000J0D01*
G01*
G37*
%TD*%
%TO.C,D36*%
G36*
G01*
X166057570Y-65875280D02*
X164937570Y-65875280D01*
G75*
G02*
X164697570Y-65635280I0J240000D01*
G01*
X164697570Y-64915280D01*
G75*
G02*
X164937570Y-64675280I240000J0D01*
G01*
X166057570Y-64675280D01*
G75*
G02*
X166297570Y-64915280I0J-240000D01*
G01*
X166297570Y-65635280D01*
G75*
G02*
X166057570Y-65875280I-240000J0D01*
G01*
G37*
G36*
G01*
X166057570Y-68675280D02*
X164937570Y-68675280D01*
G75*
G02*
X164697570Y-68435280I0J240000D01*
G01*
X164697570Y-67715280D01*
G75*
G02*
X164937570Y-67475280I240000J0D01*
G01*
X166057570Y-67475280D01*
G75*
G02*
X166297570Y-67715280I0J-240000D01*
G01*
X166297570Y-68435280D01*
G75*
G02*
X166057570Y-68675280I-240000J0D01*
G01*
G37*
%TD*%
%TO.C,C4*%
X42862608Y-84677559D03*
X42862608Y-86177559D03*
%TD*%
%TO.C,D1*%
G36*
G01*
X37469530Y-46825200D02*
X36349530Y-46825200D01*
G75*
G02*
X36109530Y-46585200I0J240000D01*
G01*
X36109530Y-45865200D01*
G75*
G02*
X36349530Y-45625200I240000J0D01*
G01*
X37469530Y-45625200D01*
G75*
G02*
X37709530Y-45865200I0J-240000D01*
G01*
X37709530Y-46585200D01*
G75*
G02*
X37469530Y-46825200I-240000J0D01*
G01*
G37*
G36*
G01*
X37469530Y-49625200D02*
X36349530Y-49625200D01*
G75*
G02*
X36109530Y-49385200I0J240000D01*
G01*
X36109530Y-48665200D01*
G75*
G02*
X36349530Y-48425200I240000J0D01*
G01*
X37469530Y-48425200D01*
G75*
G02*
X37709530Y-48665200I0J-240000D01*
G01*
X37709530Y-49385200D01*
G75*
G02*
X37469530Y-49625200I-240000J0D01*
G01*
G37*
%TD*%
%TO.C,D8*%
G36*
G01*
X68425625Y-65875000D02*
X67305625Y-65875000D01*
G75*
G02*
X67065625Y-65635000I0J240000D01*
G01*
X67065625Y-64915000D01*
G75*
G02*
X67305625Y-64675000I240000J0D01*
G01*
X68425625Y-64675000D01*
G75*
G02*
X68665625Y-64915000I0J-240000D01*
G01*
X68665625Y-65635000D01*
G75*
G02*
X68425625Y-65875000I-240000J0D01*
G01*
G37*
G36*
G01*
X68425625Y-68675000D02*
X67305625Y-68675000D01*
G75*
G02*
X67065625Y-68435000I0J240000D01*
G01*
X67065625Y-67715000D01*
G75*
G02*
X67305625Y-67475000I240000J0D01*
G01*
X68425625Y-67475000D01*
G75*
G02*
X68665625Y-67715000I0J-240000D01*
G01*
X68665625Y-68435000D01*
G75*
G02*
X68425625Y-68675000I-240000J0D01*
G01*
G37*
%TD*%
%TO.C,D16*%
G36*
G01*
X104144810Y-103975440D02*
X103024810Y-103975440D01*
G75*
G02*
X102784810Y-103735440I0J240000D01*
G01*
X102784810Y-103015440D01*
G75*
G02*
X103024810Y-102775440I240000J0D01*
G01*
X104144810Y-102775440D01*
G75*
G02*
X104384810Y-103015440I0J-240000D01*
G01*
X104384810Y-103735440D01*
G75*
G02*
X104144810Y-103975440I-240000J0D01*
G01*
G37*
G36*
G01*
X104144810Y-106775440D02*
X103024810Y-106775440D01*
G75*
G02*
X102784810Y-106535440I0J240000D01*
G01*
X102784810Y-105815440D01*
G75*
G02*
X103024810Y-105575440I240000J0D01*
G01*
X104144810Y-105575440D01*
G75*
G02*
X104384810Y-105815440I0J-240000D01*
G01*
X104384810Y-106535440D01*
G75*
G02*
X104144810Y-106775440I-240000J0D01*
G01*
G37*
%TD*%
%TO.C,D21*%
G36*
G01*
X113669850Y-84925360D02*
X112549850Y-84925360D01*
G75*
G02*
X112309850Y-84685360I0J240000D01*
G01*
X112309850Y-83965360D01*
G75*
G02*
X112549850Y-83725360I240000J0D01*
G01*
X113669850Y-83725360D01*
G75*
G02*
X113909850Y-83965360I0J-240000D01*
G01*
X113909850Y-84685360D01*
G75*
G02*
X113669850Y-84925360I-240000J0D01*
G01*
G37*
G36*
G01*
X113669850Y-87725360D02*
X112549850Y-87725360D01*
G75*
G02*
X112309850Y-87485360I0J240000D01*
G01*
X112309850Y-86765360D01*
G75*
G02*
X112549850Y-86525360I240000J0D01*
G01*
X113669850Y-86525360D01*
G75*
G02*
X113909850Y-86765360I0J-240000D01*
G01*
X113909850Y-87485360D01*
G75*
G02*
X113669850Y-87725360I-240000J0D01*
G01*
G37*
%TD*%
%TO.C,D22*%
G36*
G01*
X123194890Y-103975440D02*
X122074890Y-103975440D01*
G75*
G02*
X121834890Y-103735440I0J240000D01*
G01*
X121834890Y-103015440D01*
G75*
G02*
X122074890Y-102775440I240000J0D01*
G01*
X123194890Y-102775440D01*
G75*
G02*
X123434890Y-103015440I0J-240000D01*
G01*
X123434890Y-103735440D01*
G75*
G02*
X123194890Y-103975440I-240000J0D01*
G01*
G37*
G36*
G01*
X123194890Y-106775440D02*
X122074890Y-106775440D01*
G75*
G02*
X121834890Y-106535440I0J240000D01*
G01*
X121834890Y-105815440D01*
G75*
G02*
X122074890Y-105575440I240000J0D01*
G01*
X123194890Y-105575440D01*
G75*
G02*
X123434890Y-105815440I0J-240000D01*
G01*
X123434890Y-106535440D01*
G75*
G02*
X123194890Y-106775440I-240000J0D01*
G01*
G37*
%TD*%
%TO.C,D28*%
G36*
G01*
X142244970Y-103975440D02*
X141124970Y-103975440D01*
G75*
G02*
X140884970Y-103735440I0J240000D01*
G01*
X140884970Y-103015440D01*
G75*
G02*
X141124970Y-102775440I240000J0D01*
G01*
X142244970Y-102775440D01*
G75*
G02*
X142484970Y-103015440I0J-240000D01*
G01*
X142484970Y-103735440D01*
G75*
G02*
X142244970Y-103975440I-240000J0D01*
G01*
G37*
G36*
G01*
X142244970Y-106775440D02*
X141124970Y-106775440D01*
G75*
G02*
X140884970Y-106535440I0J240000D01*
G01*
X140884970Y-105815440D01*
G75*
G02*
X141124970Y-105575440I240000J0D01*
G01*
X142244970Y-105575440D01*
G75*
G02*
X142484970Y-105815440I0J-240000D01*
G01*
X142484970Y-106535440D01*
G75*
G02*
X142244970Y-106775440I-240000J0D01*
G01*
G37*
%TD*%
%TO.C,D44*%
G36*
G01*
X199395210Y-103975440D02*
X198275210Y-103975440D01*
G75*
G02*
X198035210Y-103735440I0J240000D01*
G01*
X198035210Y-103015440D01*
G75*
G02*
X198275210Y-102775440I240000J0D01*
G01*
X199395210Y-102775440D01*
G75*
G02*
X199635210Y-103015440I0J-240000D01*
G01*
X199635210Y-103735440D01*
G75*
G02*
X199395210Y-103975440I-240000J0D01*
G01*
G37*
G36*
G01*
X199395210Y-106775440D02*
X198275210Y-106775440D01*
G75*
G02*
X198035210Y-106535440I0J240000D01*
G01*
X198035210Y-105815440D01*
G75*
G02*
X198275210Y-105575440I240000J0D01*
G01*
X199395210Y-105575440D01*
G75*
G02*
X199635210Y-105815440I0J-240000D01*
G01*
X199635210Y-106535440D01*
G75*
G02*
X199395210Y-106775440I-240000J0D01*
G01*
G37*
%TD*%
%TO.C,D47*%
G36*
G01*
X204157730Y-65875280D02*
X203037730Y-65875280D01*
G75*
G02*
X202797730Y-65635280I0J240000D01*
G01*
X202797730Y-64915280D01*
G75*
G02*
X203037730Y-64675280I240000J0D01*
G01*
X204157730Y-64675280D01*
G75*
G02*
X204397730Y-64915280I0J-240000D01*
G01*
X204397730Y-65635280D01*
G75*
G02*
X204157730Y-65875280I-240000J0D01*
G01*
G37*
G36*
G01*
X204157730Y-68675280D02*
X203037730Y-68675280D01*
G75*
G02*
X202797730Y-68435280I0J240000D01*
G01*
X202797730Y-67715280D01*
G75*
G02*
X203037730Y-67475280I240000J0D01*
G01*
X204157730Y-67475280D01*
G75*
G02*
X204397730Y-67715280I0J-240000D01*
G01*
X204397730Y-68435280D01*
G75*
G02*
X204157730Y-68675280I-240000J0D01*
G01*
G37*
%TD*%
%TO.C,D48*%
G36*
G01*
X208920250Y-84925360D02*
X207800250Y-84925360D01*
G75*
G02*
X207560250Y-84685360I0J240000D01*
G01*
X207560250Y-83965360D01*
G75*
G02*
X207800250Y-83725360I240000J0D01*
G01*
X208920250Y-83725360D01*
G75*
G02*
X209160250Y-83965360I0J-240000D01*
G01*
X209160250Y-84685360D01*
G75*
G02*
X208920250Y-84925360I-240000J0D01*
G01*
G37*
G36*
G01*
X208920250Y-87725360D02*
X207800250Y-87725360D01*
G75*
G02*
X207560250Y-87485360I0J240000D01*
G01*
X207560250Y-86765360D01*
G75*
G02*
X207800250Y-86525360I240000J0D01*
G01*
X208920250Y-86525360D01*
G75*
G02*
X209160250Y-86765360I0J-240000D01*
G01*
X209160250Y-87485360D01*
G75*
G02*
X208920250Y-87725360I-240000J0D01*
G01*
G37*
%TD*%
%TO.C,D53*%
G36*
G01*
X227970330Y-84925360D02*
X226850330Y-84925360D01*
G75*
G02*
X226610330Y-84685360I0J240000D01*
G01*
X226610330Y-83965360D01*
G75*
G02*
X226850330Y-83725360I240000J0D01*
G01*
X227970330Y-83725360D01*
G75*
G02*
X228210330Y-83965360I0J-240000D01*
G01*
X228210330Y-84685360D01*
G75*
G02*
X227970330Y-84925360I-240000J0D01*
G01*
G37*
G36*
G01*
X227970330Y-87725360D02*
X226850330Y-87725360D01*
G75*
G02*
X226610330Y-87485360I0J240000D01*
G01*
X226610330Y-86765360D01*
G75*
G02*
X226850330Y-86525360I240000J0D01*
G01*
X227970330Y-86525360D01*
G75*
G02*
X228210330Y-86765360I0J-240000D01*
G01*
X228210330Y-87485360D01*
G75*
G02*
X227970330Y-87725360I-240000J0D01*
G01*
G37*
%TD*%
%TO.C,D58*%
G36*
G01*
X247020410Y-84925360D02*
X245900410Y-84925360D01*
G75*
G02*
X245660410Y-84685360I0J240000D01*
G01*
X245660410Y-83965360D01*
G75*
G02*
X245900410Y-83725360I240000J0D01*
G01*
X247020410Y-83725360D01*
G75*
G02*
X247260410Y-83965360I0J-240000D01*
G01*
X247260410Y-84685360D01*
G75*
G02*
X247020410Y-84925360I-240000J0D01*
G01*
G37*
G36*
G01*
X247020410Y-87725360D02*
X245900410Y-87725360D01*
G75*
G02*
X245660410Y-87485360I0J240000D01*
G01*
X245660410Y-86765360D01*
G75*
G02*
X245900410Y-86525360I240000J0D01*
G01*
X247020410Y-86525360D01*
G75*
G02*
X247260410Y-86765360I0J-240000D01*
G01*
X247260410Y-87485360D01*
G75*
G02*
X247020410Y-87725360I-240000J0D01*
G01*
G37*
%TD*%
%TO.C,D64*%
G36*
G01*
X275595530Y-103975440D02*
X274475530Y-103975440D01*
G75*
G02*
X274235530Y-103735440I0J240000D01*
G01*
X274235530Y-103015440D01*
G75*
G02*
X274475530Y-102775440I240000J0D01*
G01*
X275595530Y-102775440D01*
G75*
G02*
X275835530Y-103015440I0J-240000D01*
G01*
X275835530Y-103735440D01*
G75*
G02*
X275595530Y-103975440I-240000J0D01*
G01*
G37*
G36*
G01*
X275595530Y-106775440D02*
X274475530Y-106775440D01*
G75*
G02*
X274235530Y-106535440I0J240000D01*
G01*
X274235530Y-105815440D01*
G75*
G02*
X274475530Y-105575440I240000J0D01*
G01*
X275595530Y-105575440D01*
G75*
G02*
X275835530Y-105815440I0J-240000D01*
G01*
X275835530Y-106535440D01*
G75*
G02*
X275595530Y-106775440I-240000J0D01*
G01*
G37*
%TD*%
%TO.C,D69*%
G36*
G01*
X280358050Y-65875280D02*
X279238050Y-65875280D01*
G75*
G02*
X278998050Y-65635280I0J240000D01*
G01*
X278998050Y-64915280D01*
G75*
G02*
X279238050Y-64675280I240000J0D01*
G01*
X280358050Y-64675280D01*
G75*
G02*
X280598050Y-64915280I0J-240000D01*
G01*
X280598050Y-65635280D01*
G75*
G02*
X280358050Y-65875280I-240000J0D01*
G01*
G37*
G36*
G01*
X280358050Y-68675280D02*
X279238050Y-68675280D01*
G75*
G02*
X278998050Y-68435280I0J240000D01*
G01*
X278998050Y-67715280D01*
G75*
G02*
X279238050Y-67475280I240000J0D01*
G01*
X280358050Y-67475280D01*
G75*
G02*
X280598050Y-67715280I0J-240000D01*
G01*
X280598050Y-68435280D01*
G75*
G02*
X280358050Y-68675280I-240000J0D01*
G01*
G37*
%TD*%
%TO.C,D59*%
G36*
G01*
X256545450Y-103975440D02*
X255425450Y-103975440D01*
G75*
G02*
X255185450Y-103735440I0J240000D01*
G01*
X255185450Y-103015440D01*
G75*
G02*
X255425450Y-102775440I240000J0D01*
G01*
X256545450Y-102775440D01*
G75*
G02*
X256785450Y-103015440I0J-240000D01*
G01*
X256785450Y-103735440D01*
G75*
G02*
X256545450Y-103975440I-240000J0D01*
G01*
G37*
G36*
G01*
X256545450Y-106775440D02*
X255425450Y-106775440D01*
G75*
G02*
X255185450Y-106535440I0J240000D01*
G01*
X255185450Y-105815440D01*
G75*
G02*
X255425450Y-105575440I240000J0D01*
G01*
X256545450Y-105575440D01*
G75*
G02*
X256785450Y-105815440I0J-240000D01*
G01*
X256785450Y-106535440D01*
G75*
G02*
X256545450Y-106775440I-240000J0D01*
G01*
G37*
%TD*%
%TO.C,D63*%
G36*
G01*
X266070490Y-84925360D02*
X264950490Y-84925360D01*
G75*
G02*
X264710490Y-84685360I0J240000D01*
G01*
X264710490Y-83965360D01*
G75*
G02*
X264950490Y-83725360I240000J0D01*
G01*
X266070490Y-83725360D01*
G75*
G02*
X266310490Y-83965360I0J-240000D01*
G01*
X266310490Y-84685360D01*
G75*
G02*
X266070490Y-84925360I-240000J0D01*
G01*
G37*
G36*
G01*
X266070490Y-87725360D02*
X264950490Y-87725360D01*
G75*
G02*
X264710490Y-87485360I0J240000D01*
G01*
X264710490Y-86765360D01*
G75*
G02*
X264950490Y-86525360I240000J0D01*
G01*
X266070490Y-86525360D01*
G75*
G02*
X266310490Y-86765360I0J-240000D01*
G01*
X266310490Y-87485360D01*
G75*
G02*
X266070490Y-87725360I-240000J0D01*
G01*
G37*
%TD*%
%TO.C,D70*%
G36*
G01*
X285120570Y-84925360D02*
X284000570Y-84925360D01*
G75*
G02*
X283760570Y-84685360I0J240000D01*
G01*
X283760570Y-83965360D01*
G75*
G02*
X284000570Y-83725360I240000J0D01*
G01*
X285120570Y-83725360D01*
G75*
G02*
X285360570Y-83965360I0J-240000D01*
G01*
X285360570Y-84685360D01*
G75*
G02*
X285120570Y-84925360I-240000J0D01*
G01*
G37*
G36*
G01*
X285120570Y-87725360D02*
X284000570Y-87725360D01*
G75*
G02*
X283760570Y-87485360I0J240000D01*
G01*
X283760570Y-86765360D01*
G75*
G02*
X284000570Y-86525360I240000J0D01*
G01*
X285120570Y-86525360D01*
G75*
G02*
X285360570Y-86765360I0J-240000D01*
G01*
X285360570Y-87485360D01*
G75*
G02*
X285120570Y-87725360I-240000J0D01*
G01*
G37*
%TD*%
%TO.C,D74*%
G36*
G01*
X299408130Y-65875280D02*
X298288130Y-65875280D01*
G75*
G02*
X298048130Y-65635280I0J240000D01*
G01*
X298048130Y-64915280D01*
G75*
G02*
X298288130Y-64675280I240000J0D01*
G01*
X299408130Y-64675280D01*
G75*
G02*
X299648130Y-64915280I0J-240000D01*
G01*
X299648130Y-65635280D01*
G75*
G02*
X299408130Y-65875280I-240000J0D01*
G01*
G37*
G36*
G01*
X299408130Y-68675280D02*
X298288130Y-68675280D01*
G75*
G02*
X298048130Y-68435280I0J240000D01*
G01*
X298048130Y-67715280D01*
G75*
G02*
X298288130Y-67475280I240000J0D01*
G01*
X299408130Y-67475280D01*
G75*
G02*
X299648130Y-67715280I0J-240000D01*
G01*
X299648130Y-68435280D01*
G75*
G02*
X299408130Y-68675280I-240000J0D01*
G01*
G37*
%TD*%
%TO.C,D78*%
G36*
G01*
X303277169Y-62303284D02*
X302157169Y-62303284D01*
G75*
G02*
X301917169Y-62063284I0J240000D01*
G01*
X301917169Y-61343284D01*
G75*
G02*
X302157169Y-61103284I240000J0D01*
G01*
X303277169Y-61103284D01*
G75*
G02*
X303517169Y-61343284I0J-240000D01*
G01*
X303517169Y-62063284D01*
G75*
G02*
X303277169Y-62303284I-240000J0D01*
G01*
G37*
G36*
G01*
X303277169Y-65103284D02*
X302157169Y-65103284D01*
G75*
G02*
X301917169Y-64863284I0J240000D01*
G01*
X301917169Y-64143284D01*
G75*
G02*
X302157169Y-63903284I240000J0D01*
G01*
X303277169Y-63903284D01*
G75*
G02*
X303517169Y-64143284I0J-240000D01*
G01*
X303517169Y-64863284D01*
G75*
G02*
X303277169Y-65103284I-240000J0D01*
G01*
G37*
%TD*%
%TO.C,D79*%
G36*
G01*
X318458210Y-83734730D02*
X317338210Y-83734730D01*
G75*
G02*
X317098210Y-83494730I0J240000D01*
G01*
X317098210Y-82774730D01*
G75*
G02*
X317338210Y-82534730I240000J0D01*
G01*
X318458210Y-82534730D01*
G75*
G02*
X318698210Y-82774730I0J-240000D01*
G01*
X318698210Y-83494730D01*
G75*
G02*
X318458210Y-83734730I-240000J0D01*
G01*
G37*
G36*
G01*
X318458210Y-86534730D02*
X317338210Y-86534730D01*
G75*
G02*
X317098210Y-86294730I0J240000D01*
G01*
X317098210Y-85574730D01*
G75*
G02*
X317338210Y-85334730I240000J0D01*
G01*
X318458210Y-85334730D01*
G75*
G02*
X318698210Y-85574730I0J-240000D01*
G01*
X318698210Y-86294730D01*
G75*
G02*
X318458210Y-86534730I-240000J0D01*
G01*
G37*
%TD*%
%TO.C,D82*%
G36*
G01*
X42232050Y-25812600D02*
X41112050Y-25812600D01*
G75*
G02*
X40872050Y-25572600I0J240000D01*
G01*
X40872050Y-24852600D01*
G75*
G02*
X41112050Y-24612600I240000J0D01*
G01*
X42232050Y-24612600D01*
G75*
G02*
X42472050Y-24852600I0J-240000D01*
G01*
X42472050Y-25572600D01*
G75*
G02*
X42232050Y-25812600I-240000J0D01*
G01*
G37*
G36*
G01*
X42232050Y-23012600D02*
X41112050Y-23012600D01*
G75*
G02*
X40872050Y-22772600I0J240000D01*
G01*
X40872050Y-22052600D01*
G75*
G02*
X41112050Y-21812600I240000J0D01*
G01*
X42232050Y-21812600D01*
G75*
G02*
X42472050Y-22052600I0J-240000D01*
G01*
X42472050Y-22772600D01*
G75*
G02*
X42232050Y-23012600I-240000J0D01*
G01*
G37*
%TD*%
%TO.C,D62*%
G36*
G01*
X261307970Y-65875280D02*
X260187970Y-65875280D01*
G75*
G02*
X259947970Y-65635280I0J240000D01*
G01*
X259947970Y-64915280D01*
G75*
G02*
X260187970Y-64675280I240000J0D01*
G01*
X261307970Y-64675280D01*
G75*
G02*
X261547970Y-64915280I0J-240000D01*
G01*
X261547970Y-65635280D01*
G75*
G02*
X261307970Y-65875280I-240000J0D01*
G01*
G37*
G36*
G01*
X261307970Y-68675280D02*
X260187970Y-68675280D01*
G75*
G02*
X259947970Y-68435280I0J240000D01*
G01*
X259947970Y-67715280D01*
G75*
G02*
X260187970Y-67475280I240000J0D01*
G01*
X261307970Y-67475280D01*
G75*
G02*
X261547970Y-67715280I0J-240000D01*
G01*
X261547970Y-68435280D01*
G75*
G02*
X261307970Y-68675280I-240000J0D01*
G01*
G37*
%TD*%
%TO.C,D57*%
G36*
G01*
X242257890Y-65875280D02*
X241137890Y-65875280D01*
G75*
G02*
X240897890Y-65635280I0J240000D01*
G01*
X240897890Y-64915280D01*
G75*
G02*
X241137890Y-64675280I240000J0D01*
G01*
X242257890Y-64675280D01*
G75*
G02*
X242497890Y-64915280I0J-240000D01*
G01*
X242497890Y-65635280D01*
G75*
G02*
X242257890Y-65875280I-240000J0D01*
G01*
G37*
G36*
G01*
X242257890Y-68675280D02*
X241137890Y-68675280D01*
G75*
G02*
X240897890Y-68435280I0J240000D01*
G01*
X240897890Y-67715280D01*
G75*
G02*
X241137890Y-67475280I240000J0D01*
G01*
X242257890Y-67475280D01*
G75*
G02*
X242497890Y-67715280I0J-240000D01*
G01*
X242497890Y-68435280D01*
G75*
G02*
X242257890Y-68675280I-240000J0D01*
G01*
G37*
%TD*%
D24*
%TO.C,R4*%
X316780478Y-33146956D03*
X318680478Y-33146956D03*
%TD*%
D27*
%TO.C,RGB8*%
X139234970Y-125425520D03*
X139234970Y-122225520D03*
X144134970Y-125425520D03*
G36*
G01*
X143384970Y-122475520D02*
X143384970Y-121975520D01*
G75*
G02*
X143634970Y-121725520I250000J0D01*
G01*
X144634970Y-121725520D01*
G75*
G02*
X144884970Y-121975520I0J-250000D01*
G01*
X144884970Y-122475520D01*
G75*
G02*
X144634970Y-122725520I-250000J0D01*
G01*
X143634970Y-122725520D01*
G75*
G02*
X143384970Y-122475520I0J250000D01*
G01*
G37*
%TD*%
%TO.C,RGB15*%
X297726240Y-46025200D03*
X297726240Y-49225200D03*
X292826240Y-46025200D03*
G36*
G01*
X293576240Y-48975200D02*
X293576240Y-49475200D01*
G75*
G02*
X293326240Y-49725200I-250000J0D01*
G01*
X292326240Y-49725200D01*
G75*
G02*
X292076240Y-49475200I0J250000D01*
G01*
X292076240Y-48975200D01*
G75*
G02*
X292326240Y-48725200I250000J0D01*
G01*
X293326240Y-48725200D01*
G75*
G02*
X293576240Y-48975200I0J-250000D01*
G01*
G37*
%TD*%
%TO.C,RGB16*%
X309632540Y-91269140D03*
X309632540Y-94469140D03*
X304732540Y-91269140D03*
G36*
G01*
X305482540Y-94219140D02*
X305482540Y-94719140D01*
G75*
G02*
X305232540Y-94969140I-250000J0D01*
G01*
X304232540Y-94969140D01*
G75*
G02*
X303982540Y-94719140I0J250000D01*
G01*
X303982540Y-94219140D01*
G75*
G02*
X304232540Y-93969140I250000J0D01*
G01*
X305232540Y-93969140D01*
G75*
G02*
X305482540Y-94219140I0J-250000D01*
G01*
G37*
%TD*%
D24*
%TO.C,R3*%
X316780478Y-31146956D03*
X318680478Y-31146956D03*
%TD*%
D19*
%TO.C,R6*%
X36611811Y-76257221D03*
X36611811Y-74357221D03*
%TD*%
D27*
%TO.C,RGB6*%
X38031420Y-125425520D03*
X38031420Y-122225520D03*
X42931420Y-125425520D03*
G36*
G01*
X42181420Y-122475520D02*
X42181420Y-121975520D01*
G75*
G02*
X42431420Y-121725520I250000J0D01*
G01*
X43431420Y-121725520D01*
G75*
G02*
X43681420Y-121975520I0J-250000D01*
G01*
X43681420Y-122475520D01*
G75*
G02*
X43431420Y-122725520I-250000J0D01*
G01*
X42431420Y-122725520D01*
G75*
G02*
X42181420Y-122475520I0J250000D01*
G01*
G37*
%TD*%
%TO.C,RGB10*%
X228532220Y-125425520D03*
X228532220Y-122225520D03*
X233432220Y-125425520D03*
G36*
G01*
X232682220Y-122475520D02*
X232682220Y-121975520D01*
G75*
G02*
X232932220Y-121725520I250000J0D01*
G01*
X233932220Y-121725520D01*
G75*
G02*
X234182220Y-121975520I0J-250000D01*
G01*
X234182220Y-122475520D01*
G75*
G02*
X233932220Y-122725520I-250000J0D01*
G01*
X232932220Y-122725520D01*
G75*
G02*
X232682220Y-122475520I0J250000D01*
G01*
G37*
%TD*%
%TO.C,RGB4*%
G36*
G01*
X42181420Y-97472290D02*
X42181420Y-96972290D01*
G75*
G02*
X42431420Y-96722290I250000J0D01*
G01*
X43431420Y-96722290D01*
G75*
G02*
X43681420Y-96972290I0J-250000D01*
G01*
X43681420Y-97472290D01*
G75*
G02*
X43431420Y-97722290I-250000J0D01*
G01*
X42431420Y-97722290D01*
G75*
G02*
X42181420Y-97472290I0J250000D01*
G01*
G37*
X42931420Y-100422290D03*
X38031420Y-97222290D03*
X38031420Y-100422290D03*
%TD*%
%TO.C,RGB12*%
X298779390Y-113519220D03*
X298779390Y-110319220D03*
X303679390Y-113519220D03*
G36*
G01*
X302929390Y-110569220D02*
X302929390Y-110069220D01*
G75*
G02*
X303179390Y-109819220I250000J0D01*
G01*
X304179390Y-109819220D01*
G75*
G02*
X304429390Y-110069220I0J-250000D01*
G01*
X304429390Y-110569220D01*
G75*
G02*
X304179390Y-110819220I-250000J0D01*
G01*
X303179390Y-110819220D01*
G75*
G02*
X302929390Y-110569220I0J250000D01*
G01*
G37*
%TD*%
%TO.C,RGB2*%
X38031420Y-55178350D03*
X38031420Y-51978350D03*
X42931420Y-55178350D03*
G36*
G01*
X42181420Y-52228350D02*
X42181420Y-51728350D01*
G75*
G02*
X42431420Y-51478350I250000J0D01*
G01*
X43431420Y-51478350D01*
G75*
G02*
X43681420Y-51728350I0J-250000D01*
G01*
X43681420Y-52228350D01*
G75*
G02*
X43431420Y-52478350I-250000J0D01*
G01*
X42431420Y-52478350D01*
G75*
G02*
X42181420Y-52228350I0J250000D01*
G01*
G37*
%TD*%
D10*
%TO.C,MX25*%
X102452500Y-45085000D03*
X115379500Y-42545000D03*
D11*
X116359000Y-41592500D03*
X116359000Y-43497500D03*
X101473000Y-46037500D03*
D12*
X112077500Y-42545000D03*
D13*
X109537500Y-47625000D03*
D12*
X105727500Y-45085000D03*
D14*
X104457500Y-47625000D03*
X114617500Y-47625000D03*
D11*
X101473000Y-44132500D03*
%TD*%
D10*
%TO.C,MX19*%
X83402500Y-45085000D03*
X96329500Y-42545000D03*
D11*
X97309000Y-41592500D03*
X97309000Y-43497500D03*
X82423000Y-46037500D03*
D12*
X93027500Y-42545000D03*
D13*
X90487500Y-47625000D03*
D12*
X86677500Y-45085000D03*
D14*
X85407500Y-47625000D03*
X95567500Y-47625000D03*
D11*
X82423000Y-44132500D03*
%TD*%
D13*
%TO.C,MX82*%
X159543750Y-123825000D03*
D12*
X163353750Y-126365000D03*
D11*
X167608250Y-125412500D03*
D10*
X166628750Y-126365000D03*
D11*
X152722250Y-127952500D03*
D10*
X153701750Y-128905000D03*
D11*
X152722250Y-129857500D03*
D12*
X157003750Y-128905000D03*
D14*
X164623750Y-123825000D03*
X154463750Y-123825000D03*
D11*
X167608250Y-127317500D03*
D13*
X171481750Y-115570000D03*
X147605750Y-115570000D03*
D16*
X171481750Y-130810000D03*
X147605750Y-130810000D03*
%TD*%
D13*
%TO.C,MX92*%
X185737500Y-123825000D03*
D12*
X189547500Y-126365000D03*
D11*
X193802000Y-125412500D03*
D10*
X192822500Y-126365000D03*
D11*
X178916000Y-127952500D03*
D10*
X179895500Y-128905000D03*
D11*
X178916000Y-129857500D03*
D12*
X183197500Y-128905000D03*
D14*
X190817500Y-123825000D03*
X180657500Y-123825000D03*
D11*
X193802000Y-127317500D03*
D13*
X242887500Y-115570000D03*
X128587500Y-115570000D03*
D16*
X242887500Y-130810000D03*
X128587500Y-130810000D03*
%TD*%
D13*
%TO.C,MX91*%
X314325000Y-123825000D03*
D12*
X310515000Y-121285000D03*
D11*
X306260500Y-122237500D03*
D10*
X307240000Y-121285000D03*
D11*
X321146500Y-119697500D03*
D10*
X320167000Y-118745000D03*
D11*
X321146500Y-117792500D03*
D12*
X316865000Y-118745000D03*
D14*
X309245000Y-123825000D03*
X319405000Y-123825000D03*
D11*
X306260500Y-120332500D03*
%TD*%
%TO.C,MX90*%
X282448000Y-120332500D03*
D14*
X295592500Y-123825000D03*
X285432500Y-123825000D03*
D12*
X286702500Y-121285000D03*
D13*
X290512500Y-123825000D03*
D12*
X293052500Y-118745000D03*
D11*
X282448000Y-122237500D03*
X297334000Y-119697500D03*
X297334000Y-117792500D03*
D10*
X296354500Y-118745000D03*
X283427500Y-121285000D03*
%TD*%
D11*
%TO.C,MX89*%
X112839500Y-127317500D03*
D14*
X99695000Y-123825000D03*
X109855000Y-123825000D03*
D12*
X102235000Y-128905000D03*
D11*
X97953500Y-129857500D03*
D10*
X98933000Y-128905000D03*
D11*
X97953500Y-127952500D03*
D10*
X111860000Y-126365000D03*
D11*
X112839500Y-125412500D03*
D12*
X108585000Y-126365000D03*
D13*
X104775000Y-123825000D03*
%TD*%
%TO.C,MX88*%
X266700000Y-123825000D03*
D12*
X262890000Y-121285000D03*
D11*
X258635500Y-122237500D03*
D10*
X259615000Y-121285000D03*
D11*
X273521500Y-119697500D03*
D10*
X272542000Y-118745000D03*
D11*
X273521500Y-117792500D03*
D12*
X269240000Y-118745000D03*
D14*
X261620000Y-123825000D03*
X271780000Y-123825000D03*
D11*
X258635500Y-120332500D03*
%TD*%
D10*
%TO.C,MX87*%
X88047500Y-126365000D03*
X75120500Y-128905000D03*
D11*
X74141000Y-129857500D03*
X74141000Y-127952500D03*
X89027000Y-125412500D03*
D12*
X78422500Y-128905000D03*
D13*
X80962500Y-123825000D03*
D12*
X84772500Y-126365000D03*
D14*
X86042500Y-123825000D03*
X75882500Y-123825000D03*
D11*
X89027000Y-127317500D03*
%TD*%
D13*
%TO.C,MX86*%
X57150000Y-123825000D03*
D12*
X60960000Y-126365000D03*
D11*
X65214500Y-125412500D03*
D10*
X64235000Y-126365000D03*
D11*
X50328500Y-127952500D03*
D10*
X51308000Y-128905000D03*
D11*
X50328500Y-129857500D03*
D12*
X54610000Y-128905000D03*
D14*
X62230000Y-123825000D03*
X52070000Y-123825000D03*
D11*
X65214500Y-127317500D03*
%TD*%
D13*
%TO.C,MX85*%
X292893750Y-104775000D03*
D12*
X289083750Y-102235000D03*
D11*
X284829250Y-103187500D03*
D10*
X285808750Y-102235000D03*
D11*
X299715250Y-100647500D03*
D10*
X298735750Y-99695000D03*
D11*
X299715250Y-98742500D03*
D12*
X295433750Y-99695000D03*
D14*
X287813750Y-104775000D03*
X297973750Y-104775000D03*
D11*
X284829250Y-101282500D03*
%TD*%
%TO.C,MX84*%
X311023000Y-101282500D03*
D14*
X324167500Y-104775000D03*
X314007500Y-104775000D03*
D12*
X315277500Y-102235000D03*
D13*
X319087500Y-104775000D03*
D12*
X321627500Y-99695000D03*
D11*
X311023000Y-103187500D03*
X325909000Y-100647500D03*
X325909000Y-98742500D03*
D10*
X324929500Y-99695000D03*
X312002500Y-102235000D03*
%TD*%
D13*
%TO.C,MX83*%
X126206250Y-123825000D03*
D12*
X122396250Y-121285000D03*
D11*
X118141750Y-122237500D03*
D10*
X119121250Y-121285000D03*
D11*
X133027750Y-119697500D03*
D10*
X132048250Y-118745000D03*
D11*
X133027750Y-117792500D03*
D12*
X128746250Y-118745000D03*
D14*
X121126250Y-123825000D03*
X131286250Y-123825000D03*
D11*
X118141750Y-120332500D03*
%TD*%
D13*
%TO.C,MX34*%
X207168750Y-123825000D03*
D12*
X203358750Y-121285000D03*
D11*
X199104250Y-122237500D03*
D10*
X200083750Y-121285000D03*
D11*
X213990250Y-119697500D03*
D10*
X213010750Y-118745000D03*
D11*
X213990250Y-117792500D03*
D12*
X209708750Y-118745000D03*
D14*
X202088750Y-123825000D03*
X212248750Y-123825000D03*
D11*
X199104250Y-120332500D03*
D13*
X195230750Y-115570000D03*
X219106750Y-115570000D03*
D16*
X195230750Y-130810000D03*
X219106750Y-130810000D03*
%TD*%
D27*
%TO.C,RGB13*%
X269150000Y-29356250D03*
X269150000Y-32556250D03*
X264250000Y-29356250D03*
G36*
G01*
X265000000Y-32306250D02*
X265000000Y-32806250D01*
G75*
G02*
X264750000Y-33056250I-250000J0D01*
G01*
X263750000Y-33056250D01*
G75*
G02*
X263500000Y-32806250I0J250000D01*
G01*
X263500000Y-32306250D01*
G75*
G02*
X263750000Y-32056250I250000J0D01*
G01*
X264750000Y-32056250D01*
G75*
G02*
X265000000Y-32306250I0J-250000D01*
G01*
G37*
%TD*%
%TO.C,RGB11*%
X228668750Y-29356250D03*
X228668750Y-32556250D03*
X223768750Y-29356250D03*
G36*
G01*
X224518750Y-32306250D02*
X224518750Y-32806250D01*
G75*
G02*
X224268750Y-33056250I-250000J0D01*
G01*
X223268750Y-33056250D01*
G75*
G02*
X223018750Y-32806250I0J250000D01*
G01*
X223018750Y-32306250D01*
G75*
G02*
X223268750Y-32056250I250000J0D01*
G01*
X224268750Y-32056250D01*
G75*
G02*
X224518750Y-32306250I0J-250000D01*
G01*
G37*
%TD*%
%TO.C,RGB9*%
X188187500Y-29356250D03*
X188187500Y-32556250D03*
X183287500Y-29356250D03*
G36*
G01*
X184037500Y-32306250D02*
X184037500Y-32806250D01*
G75*
G02*
X183787500Y-33056250I-250000J0D01*
G01*
X182787500Y-33056250D01*
G75*
G02*
X182537500Y-32806250I0J250000D01*
G01*
X182537500Y-32306250D01*
G75*
G02*
X182787500Y-32056250I250000J0D01*
G01*
X183787500Y-32056250D01*
G75*
G02*
X184037500Y-32306250I0J-250000D01*
G01*
G37*
%TD*%
%TO.C,RGB7*%
X147706250Y-29356250D03*
X147706250Y-32556250D03*
X142806250Y-29356250D03*
G36*
G01*
X143556250Y-32306250D02*
X143556250Y-32806250D01*
G75*
G02*
X143306250Y-33056250I-250000J0D01*
G01*
X142306250Y-33056250D01*
G75*
G02*
X142056250Y-32806250I0J250000D01*
G01*
X142056250Y-32306250D01*
G75*
G02*
X142306250Y-32056250I250000J0D01*
G01*
X143306250Y-32056250D01*
G75*
G02*
X143556250Y-32306250I0J-250000D01*
G01*
G37*
%TD*%
%TO.C,RGB5*%
X107225000Y-29356250D03*
X107225000Y-32556250D03*
X102325000Y-29356250D03*
G36*
G01*
X103075000Y-32306250D02*
X103075000Y-32806250D01*
G75*
G02*
X102825000Y-33056250I-250000J0D01*
G01*
X101825000Y-33056250D01*
G75*
G02*
X101575000Y-32806250I0J250000D01*
G01*
X101575000Y-32306250D01*
G75*
G02*
X101825000Y-32056250I250000J0D01*
G01*
X102825000Y-32056250D01*
G75*
G02*
X103075000Y-32306250I0J-250000D01*
G01*
G37*
%TD*%
%TO.C,RGB3*%
X66743750Y-29356250D03*
X66743750Y-32556250D03*
X61843750Y-29356250D03*
G36*
G01*
X62593750Y-32306250D02*
X62593750Y-32806250D01*
G75*
G02*
X62343750Y-33056250I-250000J0D01*
G01*
X61343750Y-33056250D01*
G75*
G02*
X61093750Y-32806250I0J250000D01*
G01*
X61093750Y-32306250D01*
G75*
G02*
X61343750Y-32056250I250000J0D01*
G01*
X62343750Y-32056250D01*
G75*
G02*
X62593750Y-32306250I0J-250000D01*
G01*
G37*
%TD*%
%TO.C,RGB1*%
X42931250Y-34118900D03*
X42931250Y-37318900D03*
X38031250Y-34118900D03*
G36*
G01*
X38781250Y-37068900D02*
X38781250Y-37568900D01*
G75*
G02*
X38531250Y-37818900I-250000J0D01*
G01*
X37531250Y-37818900D01*
G75*
G02*
X37281250Y-37568900I0J250000D01*
G01*
X37281250Y-37068900D01*
G75*
G02*
X37531250Y-36818900I250000J0D01*
G01*
X38531250Y-36818900D01*
G75*
G02*
X38781250Y-37068900I0J-250000D01*
G01*
G37*
%TD*%
D13*
%TO.C,MX79*%
X307181250Y-85725000D03*
D12*
X303371250Y-83185000D03*
D11*
X299116750Y-84137500D03*
D10*
X300096250Y-83185000D03*
D11*
X314002750Y-81597500D03*
D10*
X313023250Y-80645000D03*
D11*
X314002750Y-79692500D03*
D12*
X309721250Y-80645000D03*
D14*
X302101250Y-85725000D03*
X312261250Y-85725000D03*
D11*
X299116750Y-82232500D03*
D13*
X295243250Y-77470000D03*
X319119250Y-77470000D03*
D16*
X295243250Y-92710000D03*
X319119250Y-92710000D03*
%TD*%
D13*
%TO.C,MX40*%
X173831250Y-123825000D03*
D12*
X170021250Y-121285000D03*
D11*
X165766750Y-122237500D03*
D10*
X166746250Y-121285000D03*
D11*
X180652750Y-119697500D03*
D10*
X179673250Y-118745000D03*
D11*
X180652750Y-117792500D03*
D12*
X176371250Y-118745000D03*
D14*
X168751250Y-123825000D03*
X178911250Y-123825000D03*
D11*
X165766750Y-120332500D03*
D13*
X123831350Y-115570000D03*
X223831150Y-115570000D03*
D16*
X123831350Y-130810000D03*
X223831150Y-130810000D03*
%TD*%
D13*
%TO.C,MX78*%
X314325000Y-66675000D03*
D12*
X310515000Y-64135000D03*
D11*
X306260500Y-65087500D03*
D10*
X307240000Y-64135000D03*
D11*
X321146500Y-62547500D03*
D10*
X320167000Y-61595000D03*
D11*
X321146500Y-60642500D03*
D12*
X316865000Y-61595000D03*
D14*
X309245000Y-66675000D03*
X319405000Y-66675000D03*
D11*
X306260500Y-63182500D03*
%TD*%
D13*
%TO.C,MX77*%
X309562500Y-47625000D03*
D12*
X305752500Y-45085000D03*
D11*
X301498000Y-46037500D03*
D10*
X302477500Y-45085000D03*
D11*
X316384000Y-43497500D03*
D10*
X315404500Y-42545000D03*
D11*
X316384000Y-41592500D03*
D12*
X312102500Y-42545000D03*
D14*
X304482500Y-47625000D03*
X314642500Y-47625000D03*
D11*
X301498000Y-44132500D03*
D13*
X297624500Y-55880000D03*
X321500500Y-55880000D03*
D16*
X297624500Y-40640000D03*
X321500500Y-40640000D03*
%TD*%
D23*
%TO.C,U2*%
G36*
X44350893Y-74939848D02*
G01*
X47992493Y-78581448D01*
X44350893Y-82223048D01*
X40709293Y-78581448D01*
X44350893Y-74939848D01*
G37*
G36*
G01*
X43511203Y-74029448D02*
X44041533Y-74559778D01*
G75*
G02*
X44041533Y-74648166I-44194J-44194D01*
G01*
X43953145Y-74736554D01*
G75*
G02*
X43864757Y-74736554I-44194J44194D01*
G01*
X43334427Y-74206224D01*
G75*
G02*
X43334427Y-74117836I44194J44194D01*
G01*
X43422815Y-74029448D01*
G75*
G02*
X43511203Y-74029448I44194J-44194D01*
G01*
G37*
G36*
G01*
X43157650Y-74383002D02*
X43687980Y-74913332D01*
G75*
G02*
X43687980Y-75001720I-44194J-44194D01*
G01*
X43599592Y-75090108D01*
G75*
G02*
X43511204Y-75090108I-44194J44194D01*
G01*
X42980874Y-74559778D01*
G75*
G02*
X42980874Y-74471390I44194J44194D01*
G01*
X43069262Y-74383002D01*
G75*
G02*
X43157650Y-74383002I44194J-44194D01*
G01*
G37*
G36*
G01*
X42804097Y-74736555D02*
X43334427Y-75266885D01*
G75*
G02*
X43334427Y-75355273I-44194J-44194D01*
G01*
X43246039Y-75443661D01*
G75*
G02*
X43157651Y-75443661I-44194J44194D01*
G01*
X42627321Y-74913331D01*
G75*
G02*
X42627321Y-74824943I44194J44194D01*
G01*
X42715709Y-74736555D01*
G75*
G02*
X42804097Y-74736555I44194J-44194D01*
G01*
G37*
G36*
G01*
X42450543Y-75090109D02*
X42980873Y-75620439D01*
G75*
G02*
X42980873Y-75708827I-44194J-44194D01*
G01*
X42892485Y-75797215D01*
G75*
G02*
X42804097Y-75797215I-44194J44194D01*
G01*
X42273767Y-75266885D01*
G75*
G02*
X42273767Y-75178497I44194J44194D01*
G01*
X42362155Y-75090109D01*
G75*
G02*
X42450543Y-75090109I44194J-44194D01*
G01*
G37*
G36*
G01*
X42096990Y-75443662D02*
X42627320Y-75973992D01*
G75*
G02*
X42627320Y-76062380I-44194J-44194D01*
G01*
X42538932Y-76150768D01*
G75*
G02*
X42450544Y-76150768I-44194J44194D01*
G01*
X41920214Y-75620438D01*
G75*
G02*
X41920214Y-75532050I44194J44194D01*
G01*
X42008602Y-75443662D01*
G75*
G02*
X42096990Y-75443662I44194J-44194D01*
G01*
G37*
G36*
G01*
X41743436Y-75797215D02*
X42273766Y-76327545D01*
G75*
G02*
X42273766Y-76415933I-44194J-44194D01*
G01*
X42185378Y-76504321D01*
G75*
G02*
X42096990Y-76504321I-44194J44194D01*
G01*
X41566660Y-75973991D01*
G75*
G02*
X41566660Y-75885603I44194J44194D01*
G01*
X41655048Y-75797215D01*
G75*
G02*
X41743436Y-75797215I44194J-44194D01*
G01*
G37*
G36*
G01*
X41389883Y-76150769D02*
X41920213Y-76681099D01*
G75*
G02*
X41920213Y-76769487I-44194J-44194D01*
G01*
X41831825Y-76857875D01*
G75*
G02*
X41743437Y-76857875I-44194J44194D01*
G01*
X41213107Y-76327545D01*
G75*
G02*
X41213107Y-76239157I44194J44194D01*
G01*
X41301495Y-76150769D01*
G75*
G02*
X41389883Y-76150769I44194J-44194D01*
G01*
G37*
G36*
G01*
X41036330Y-76504322D02*
X41566660Y-77034652D01*
G75*
G02*
X41566660Y-77123040I-44194J-44194D01*
G01*
X41478272Y-77211428D01*
G75*
G02*
X41389884Y-77211428I-44194J44194D01*
G01*
X40859554Y-76681098D01*
G75*
G02*
X40859554Y-76592710I44194J44194D01*
G01*
X40947942Y-76504322D01*
G75*
G02*
X41036330Y-76504322I44194J-44194D01*
G01*
G37*
G36*
G01*
X40682776Y-76857876D02*
X41213106Y-77388206D01*
G75*
G02*
X41213106Y-77476594I-44194J-44194D01*
G01*
X41124718Y-77564982D01*
G75*
G02*
X41036330Y-77564982I-44194J44194D01*
G01*
X40506000Y-77034652D01*
G75*
G02*
X40506000Y-76946264I44194J44194D01*
G01*
X40594388Y-76857876D01*
G75*
G02*
X40682776Y-76857876I44194J-44194D01*
G01*
G37*
G36*
G01*
X40329223Y-77211429D02*
X40859553Y-77741759D01*
G75*
G02*
X40859553Y-77830147I-44194J-44194D01*
G01*
X40771165Y-77918535D01*
G75*
G02*
X40682777Y-77918535I-44194J44194D01*
G01*
X40152447Y-77388205D01*
G75*
G02*
X40152447Y-77299817I44194J44194D01*
G01*
X40240835Y-77211429D01*
G75*
G02*
X40329223Y-77211429I44194J-44194D01*
G01*
G37*
G36*
G01*
X39975669Y-77564982D02*
X40505999Y-78095312D01*
G75*
G02*
X40505999Y-78183700I-44194J-44194D01*
G01*
X40417611Y-78272088D01*
G75*
G02*
X40329223Y-78272088I-44194J44194D01*
G01*
X39798893Y-77741758D01*
G75*
G02*
X39798893Y-77653370I44194J44194D01*
G01*
X39887281Y-77564982D01*
G75*
G02*
X39975669Y-77564982I44194J-44194D01*
G01*
G37*
G36*
G01*
X40417611Y-78890808D02*
X40505999Y-78979196D01*
G75*
G02*
X40505999Y-79067584I-44194J-44194D01*
G01*
X39975669Y-79597914D01*
G75*
G02*
X39887281Y-79597914I-44194J44194D01*
G01*
X39798893Y-79509526D01*
G75*
G02*
X39798893Y-79421138I44194J44194D01*
G01*
X40329223Y-78890808D01*
G75*
G02*
X40417611Y-78890808I44194J-44194D01*
G01*
G37*
G36*
G01*
X40771165Y-79244361D02*
X40859553Y-79332749D01*
G75*
G02*
X40859553Y-79421137I-44194J-44194D01*
G01*
X40329223Y-79951467D01*
G75*
G02*
X40240835Y-79951467I-44194J44194D01*
G01*
X40152447Y-79863079D01*
G75*
G02*
X40152447Y-79774691I44194J44194D01*
G01*
X40682777Y-79244361D01*
G75*
G02*
X40771165Y-79244361I44194J-44194D01*
G01*
G37*
G36*
G01*
X41124718Y-79597914D02*
X41213106Y-79686302D01*
G75*
G02*
X41213106Y-79774690I-44194J-44194D01*
G01*
X40682776Y-80305020D01*
G75*
G02*
X40594388Y-80305020I-44194J44194D01*
G01*
X40506000Y-80216632D01*
G75*
G02*
X40506000Y-80128244I44194J44194D01*
G01*
X41036330Y-79597914D01*
G75*
G02*
X41124718Y-79597914I44194J-44194D01*
G01*
G37*
G36*
G01*
X41478272Y-79951468D02*
X41566660Y-80039856D01*
G75*
G02*
X41566660Y-80128244I-44194J-44194D01*
G01*
X41036330Y-80658574D01*
G75*
G02*
X40947942Y-80658574I-44194J44194D01*
G01*
X40859554Y-80570186D01*
G75*
G02*
X40859554Y-80481798I44194J44194D01*
G01*
X41389884Y-79951468D01*
G75*
G02*
X41478272Y-79951468I44194J-44194D01*
G01*
G37*
G36*
G01*
X41831825Y-80305021D02*
X41920213Y-80393409D01*
G75*
G02*
X41920213Y-80481797I-44194J-44194D01*
G01*
X41389883Y-81012127D01*
G75*
G02*
X41301495Y-81012127I-44194J44194D01*
G01*
X41213107Y-80923739D01*
G75*
G02*
X41213107Y-80835351I44194J44194D01*
G01*
X41743437Y-80305021D01*
G75*
G02*
X41831825Y-80305021I44194J-44194D01*
G01*
G37*
G36*
G01*
X42185378Y-80658575D02*
X42273766Y-80746963D01*
G75*
G02*
X42273766Y-80835351I-44194J-44194D01*
G01*
X41743436Y-81365681D01*
G75*
G02*
X41655048Y-81365681I-44194J44194D01*
G01*
X41566660Y-81277293D01*
G75*
G02*
X41566660Y-81188905I44194J44194D01*
G01*
X42096990Y-80658575D01*
G75*
G02*
X42185378Y-80658575I44194J-44194D01*
G01*
G37*
G36*
G01*
X42538932Y-81012128D02*
X42627320Y-81100516D01*
G75*
G02*
X42627320Y-81188904I-44194J-44194D01*
G01*
X42096990Y-81719234D01*
G75*
G02*
X42008602Y-81719234I-44194J44194D01*
G01*
X41920214Y-81630846D01*
G75*
G02*
X41920214Y-81542458I44194J44194D01*
G01*
X42450544Y-81012128D01*
G75*
G02*
X42538932Y-81012128I44194J-44194D01*
G01*
G37*
G36*
G01*
X42892485Y-81365681D02*
X42980873Y-81454069D01*
G75*
G02*
X42980873Y-81542457I-44194J-44194D01*
G01*
X42450543Y-82072787D01*
G75*
G02*
X42362155Y-82072787I-44194J44194D01*
G01*
X42273767Y-81984399D01*
G75*
G02*
X42273767Y-81896011I44194J44194D01*
G01*
X42804097Y-81365681D01*
G75*
G02*
X42892485Y-81365681I44194J-44194D01*
G01*
G37*
G36*
G01*
X43246039Y-81719235D02*
X43334427Y-81807623D01*
G75*
G02*
X43334427Y-81896011I-44194J-44194D01*
G01*
X42804097Y-82426341D01*
G75*
G02*
X42715709Y-82426341I-44194J44194D01*
G01*
X42627321Y-82337953D01*
G75*
G02*
X42627321Y-82249565I44194J44194D01*
G01*
X43157651Y-81719235D01*
G75*
G02*
X43246039Y-81719235I44194J-44194D01*
G01*
G37*
G36*
G01*
X43599592Y-82072788D02*
X43687980Y-82161176D01*
G75*
G02*
X43687980Y-82249564I-44194J-44194D01*
G01*
X43157650Y-82779894D01*
G75*
G02*
X43069262Y-82779894I-44194J44194D01*
G01*
X42980874Y-82691506D01*
G75*
G02*
X42980874Y-82603118I44194J44194D01*
G01*
X43511204Y-82072788D01*
G75*
G02*
X43599592Y-82072788I44194J-44194D01*
G01*
G37*
G36*
G01*
X43953145Y-82426342D02*
X44041533Y-82514730D01*
G75*
G02*
X44041533Y-82603118I-44194J-44194D01*
G01*
X43511203Y-83133448D01*
G75*
G02*
X43422815Y-83133448I-44194J44194D01*
G01*
X43334427Y-83045060D01*
G75*
G02*
X43334427Y-82956672I44194J44194D01*
G01*
X43864757Y-82426342D01*
G75*
G02*
X43953145Y-82426342I44194J-44194D01*
G01*
G37*
G36*
G01*
X44837029Y-82426342D02*
X45367359Y-82956672D01*
G75*
G02*
X45367359Y-83045060I-44194J-44194D01*
G01*
X45278971Y-83133448D01*
G75*
G02*
X45190583Y-83133448I-44194J44194D01*
G01*
X44660253Y-82603118D01*
G75*
G02*
X44660253Y-82514730I44194J44194D01*
G01*
X44748641Y-82426342D01*
G75*
G02*
X44837029Y-82426342I44194J-44194D01*
G01*
G37*
G36*
G01*
X45190582Y-82072788D02*
X45720912Y-82603118D01*
G75*
G02*
X45720912Y-82691506I-44194J-44194D01*
G01*
X45632524Y-82779894D01*
G75*
G02*
X45544136Y-82779894I-44194J44194D01*
G01*
X45013806Y-82249564D01*
G75*
G02*
X45013806Y-82161176I44194J44194D01*
G01*
X45102194Y-82072788D01*
G75*
G02*
X45190582Y-82072788I44194J-44194D01*
G01*
G37*
G36*
G01*
X45544135Y-81719235D02*
X46074465Y-82249565D01*
G75*
G02*
X46074465Y-82337953I-44194J-44194D01*
G01*
X45986077Y-82426341D01*
G75*
G02*
X45897689Y-82426341I-44194J44194D01*
G01*
X45367359Y-81896011D01*
G75*
G02*
X45367359Y-81807623I44194J44194D01*
G01*
X45455747Y-81719235D01*
G75*
G02*
X45544135Y-81719235I44194J-44194D01*
G01*
G37*
G36*
G01*
X45897689Y-81365681D02*
X46428019Y-81896011D01*
G75*
G02*
X46428019Y-81984399I-44194J-44194D01*
G01*
X46339631Y-82072787D01*
G75*
G02*
X46251243Y-82072787I-44194J44194D01*
G01*
X45720913Y-81542457D01*
G75*
G02*
X45720913Y-81454069I44194J44194D01*
G01*
X45809301Y-81365681D01*
G75*
G02*
X45897689Y-81365681I44194J-44194D01*
G01*
G37*
G36*
G01*
X46251242Y-81012128D02*
X46781572Y-81542458D01*
G75*
G02*
X46781572Y-81630846I-44194J-44194D01*
G01*
X46693184Y-81719234D01*
G75*
G02*
X46604796Y-81719234I-44194J44194D01*
G01*
X46074466Y-81188904D01*
G75*
G02*
X46074466Y-81100516I44194J44194D01*
G01*
X46162854Y-81012128D01*
G75*
G02*
X46251242Y-81012128I44194J-44194D01*
G01*
G37*
G36*
G01*
X46604796Y-80658575D02*
X47135126Y-81188905D01*
G75*
G02*
X47135126Y-81277293I-44194J-44194D01*
G01*
X47046738Y-81365681D01*
G75*
G02*
X46958350Y-81365681I-44194J44194D01*
G01*
X46428020Y-80835351D01*
G75*
G02*
X46428020Y-80746963I44194J44194D01*
G01*
X46516408Y-80658575D01*
G75*
G02*
X46604796Y-80658575I44194J-44194D01*
G01*
G37*
G36*
G01*
X46958349Y-80305021D02*
X47488679Y-80835351D01*
G75*
G02*
X47488679Y-80923739I-44194J-44194D01*
G01*
X47400291Y-81012127D01*
G75*
G02*
X47311903Y-81012127I-44194J44194D01*
G01*
X46781573Y-80481797D01*
G75*
G02*
X46781573Y-80393409I44194J44194D01*
G01*
X46869961Y-80305021D01*
G75*
G02*
X46958349Y-80305021I44194J-44194D01*
G01*
G37*
G36*
G01*
X47311902Y-79951468D02*
X47842232Y-80481798D01*
G75*
G02*
X47842232Y-80570186I-44194J-44194D01*
G01*
X47753844Y-80658574D01*
G75*
G02*
X47665456Y-80658574I-44194J44194D01*
G01*
X47135126Y-80128244D01*
G75*
G02*
X47135126Y-80039856I44194J44194D01*
G01*
X47223514Y-79951468D01*
G75*
G02*
X47311902Y-79951468I44194J-44194D01*
G01*
G37*
G36*
G01*
X47665456Y-79597914D02*
X48195786Y-80128244D01*
G75*
G02*
X48195786Y-80216632I-44194J-44194D01*
G01*
X48107398Y-80305020D01*
G75*
G02*
X48019010Y-80305020I-44194J44194D01*
G01*
X47488680Y-79774690D01*
G75*
G02*
X47488680Y-79686302I44194J44194D01*
G01*
X47577068Y-79597914D01*
G75*
G02*
X47665456Y-79597914I44194J-44194D01*
G01*
G37*
G36*
G01*
X48019009Y-79244361D02*
X48549339Y-79774691D01*
G75*
G02*
X48549339Y-79863079I-44194J-44194D01*
G01*
X48460951Y-79951467D01*
G75*
G02*
X48372563Y-79951467I-44194J44194D01*
G01*
X47842233Y-79421137D01*
G75*
G02*
X47842233Y-79332749I44194J44194D01*
G01*
X47930621Y-79244361D01*
G75*
G02*
X48019009Y-79244361I44194J-44194D01*
G01*
G37*
G36*
G01*
X48372563Y-78890808D02*
X48902893Y-79421138D01*
G75*
G02*
X48902893Y-79509526I-44194J-44194D01*
G01*
X48814505Y-79597914D01*
G75*
G02*
X48726117Y-79597914I-44194J44194D01*
G01*
X48195787Y-79067584D01*
G75*
G02*
X48195787Y-78979196I44194J44194D01*
G01*
X48284175Y-78890808D01*
G75*
G02*
X48372563Y-78890808I44194J-44194D01*
G01*
G37*
G36*
G01*
X48814505Y-77564982D02*
X48902893Y-77653370D01*
G75*
G02*
X48902893Y-77741758I-44194J-44194D01*
G01*
X48372563Y-78272088D01*
G75*
G02*
X48284175Y-78272088I-44194J44194D01*
G01*
X48195787Y-78183700D01*
G75*
G02*
X48195787Y-78095312I44194J44194D01*
G01*
X48726117Y-77564982D01*
G75*
G02*
X48814505Y-77564982I44194J-44194D01*
G01*
G37*
G36*
G01*
X48460951Y-77211429D02*
X48549339Y-77299817D01*
G75*
G02*
X48549339Y-77388205I-44194J-44194D01*
G01*
X48019009Y-77918535D01*
G75*
G02*
X47930621Y-77918535I-44194J44194D01*
G01*
X47842233Y-77830147D01*
G75*
G02*
X47842233Y-77741759I44194J44194D01*
G01*
X48372563Y-77211429D01*
G75*
G02*
X48460951Y-77211429I44194J-44194D01*
G01*
G37*
G36*
G01*
X48107398Y-76857876D02*
X48195786Y-76946264D01*
G75*
G02*
X48195786Y-77034652I-44194J-44194D01*
G01*
X47665456Y-77564982D01*
G75*
G02*
X47577068Y-77564982I-44194J44194D01*
G01*
X47488680Y-77476594D01*
G75*
G02*
X47488680Y-77388206I44194J44194D01*
G01*
X48019010Y-76857876D01*
G75*
G02*
X48107398Y-76857876I44194J-44194D01*
G01*
G37*
G36*
G01*
X47753844Y-76504322D02*
X47842232Y-76592710D01*
G75*
G02*
X47842232Y-76681098I-44194J-44194D01*
G01*
X47311902Y-77211428D01*
G75*
G02*
X47223514Y-77211428I-44194J44194D01*
G01*
X47135126Y-77123040D01*
G75*
G02*
X47135126Y-77034652I44194J44194D01*
G01*
X47665456Y-76504322D01*
G75*
G02*
X47753844Y-76504322I44194J-44194D01*
G01*
G37*
G36*
G01*
X47400291Y-76150769D02*
X47488679Y-76239157D01*
G75*
G02*
X47488679Y-76327545I-44194J-44194D01*
G01*
X46958349Y-76857875D01*
G75*
G02*
X46869961Y-76857875I-44194J44194D01*
G01*
X46781573Y-76769487D01*
G75*
G02*
X46781573Y-76681099I44194J44194D01*
G01*
X47311903Y-76150769D01*
G75*
G02*
X47400291Y-76150769I44194J-44194D01*
G01*
G37*
G36*
G01*
X47046738Y-75797215D02*
X47135126Y-75885603D01*
G75*
G02*
X47135126Y-75973991I-44194J-44194D01*
G01*
X46604796Y-76504321D01*
G75*
G02*
X46516408Y-76504321I-44194J44194D01*
G01*
X46428020Y-76415933D01*
G75*
G02*
X46428020Y-76327545I44194J44194D01*
G01*
X46958350Y-75797215D01*
G75*
G02*
X47046738Y-75797215I44194J-44194D01*
G01*
G37*
G36*
G01*
X46693184Y-75443662D02*
X46781572Y-75532050D01*
G75*
G02*
X46781572Y-75620438I-44194J-44194D01*
G01*
X46251242Y-76150768D01*
G75*
G02*
X46162854Y-76150768I-44194J44194D01*
G01*
X46074466Y-76062380D01*
G75*
G02*
X46074466Y-75973992I44194J44194D01*
G01*
X46604796Y-75443662D01*
G75*
G02*
X46693184Y-75443662I44194J-44194D01*
G01*
G37*
G36*
G01*
X46339631Y-75090109D02*
X46428019Y-75178497D01*
G75*
G02*
X46428019Y-75266885I-44194J-44194D01*
G01*
X45897689Y-75797215D01*
G75*
G02*
X45809301Y-75797215I-44194J44194D01*
G01*
X45720913Y-75708827D01*
G75*
G02*
X45720913Y-75620439I44194J44194D01*
G01*
X46251243Y-75090109D01*
G75*
G02*
X46339631Y-75090109I44194J-44194D01*
G01*
G37*
G36*
G01*
X45986077Y-74736555D02*
X46074465Y-74824943D01*
G75*
G02*
X46074465Y-74913331I-44194J-44194D01*
G01*
X45544135Y-75443661D01*
G75*
G02*
X45455747Y-75443661I-44194J44194D01*
G01*
X45367359Y-75355273D01*
G75*
G02*
X45367359Y-75266885I44194J44194D01*
G01*
X45897689Y-74736555D01*
G75*
G02*
X45986077Y-74736555I44194J-44194D01*
G01*
G37*
G36*
G01*
X45632524Y-74383002D02*
X45720912Y-74471390D01*
G75*
G02*
X45720912Y-74559778I-44194J-44194D01*
G01*
X45190582Y-75090108D01*
G75*
G02*
X45102194Y-75090108I-44194J44194D01*
G01*
X45013806Y-75001720D01*
G75*
G02*
X45013806Y-74913332I44194J44194D01*
G01*
X45544136Y-74383002D01*
G75*
G02*
X45632524Y-74383002I44194J-44194D01*
G01*
G37*
G36*
G01*
X45278971Y-74029448D02*
X45367359Y-74117836D01*
G75*
G02*
X45367359Y-74206224I-44194J-44194D01*
G01*
X44837029Y-74736554D01*
G75*
G02*
X44748641Y-74736554I-44194J44194D01*
G01*
X44660253Y-74648166D01*
G75*
G02*
X44660253Y-74559778I44194J44194D01*
G01*
X45190583Y-74029448D01*
G75*
G02*
X45278971Y-74029448I44194J-44194D01*
G01*
G37*
%TD*%
D11*
%TO.C,MX73*%
X272923000Y-44132500D03*
D14*
X286067500Y-47625000D03*
X275907500Y-47625000D03*
D12*
X277177500Y-45085000D03*
D13*
X280987500Y-47625000D03*
D12*
X283527500Y-42545000D03*
D11*
X272923000Y-46037500D03*
X287809000Y-43497500D03*
X287809000Y-41592500D03*
D10*
X286829500Y-42545000D03*
X273902500Y-45085000D03*
%TD*%
D28*
%TO.C,J1*%
X305700256Y-29346902D03*
X305700256Y-34946902D03*
D29*
X309575256Y-33646902D03*
X309575256Y-32646902D03*
X309575256Y-30646902D03*
X309575256Y-31646902D03*
%TD*%
%TO.C,D76*%
G36*
G01*
X308932134Y-23012520D02*
X307812134Y-23012520D01*
G75*
G02*
X307572134Y-22772520I0J240000D01*
G01*
X307572134Y-22052520D01*
G75*
G02*
X307812134Y-21812520I240000J0D01*
G01*
X308932134Y-21812520D01*
G75*
G02*
X309172134Y-22052520I0J-240000D01*
G01*
X309172134Y-22772520D01*
G75*
G02*
X308932134Y-23012520I-240000J0D01*
G01*
G37*
G36*
G01*
X308932134Y-25812520D02*
X307812134Y-25812520D01*
G75*
G02*
X307572134Y-25572520I0J240000D01*
G01*
X307572134Y-24852520D01*
G75*
G02*
X307812134Y-24612520I240000J0D01*
G01*
X308932134Y-24612520D01*
G75*
G02*
X309172134Y-24852520I0J-240000D01*
G01*
X309172134Y-25572520D01*
G75*
G02*
X308932134Y-25812520I-240000J0D01*
G01*
G37*
%TD*%
%TO.C,D73*%
G36*
G01*
X289881875Y-46825000D02*
X288761875Y-46825000D01*
G75*
G02*
X288521875Y-46585000I0J240000D01*
G01*
X288521875Y-45865000D01*
G75*
G02*
X288761875Y-45625000I240000J0D01*
G01*
X289881875Y-45625000D01*
G75*
G02*
X290121875Y-45865000I0J-240000D01*
G01*
X290121875Y-46585000D01*
G75*
G02*
X289881875Y-46825000I-240000J0D01*
G01*
G37*
G36*
G01*
X289881875Y-49625000D02*
X288761875Y-49625000D01*
G75*
G02*
X288521875Y-49385000I0J240000D01*
G01*
X288521875Y-48665000D01*
G75*
G02*
X288761875Y-48425000I240000J0D01*
G01*
X289881875Y-48425000D01*
G75*
G02*
X290121875Y-48665000I0J-240000D01*
G01*
X290121875Y-49385000D01*
G75*
G02*
X289881875Y-49625000I-240000J0D01*
G01*
G37*
%TD*%
%TO.C,D72*%
G36*
G01*
X306550882Y-23012520D02*
X305430882Y-23012520D01*
G75*
G02*
X305190882Y-22772520I0J240000D01*
G01*
X305190882Y-22052520D01*
G75*
G02*
X305430882Y-21812520I240000J0D01*
G01*
X306550882Y-21812520D01*
G75*
G02*
X306790882Y-22052520I0J-240000D01*
G01*
X306790882Y-22772520D01*
G75*
G02*
X306550882Y-23012520I-240000J0D01*
G01*
G37*
G36*
G01*
X306550882Y-25812520D02*
X305430882Y-25812520D01*
G75*
G02*
X305190882Y-25572520I0J240000D01*
G01*
X305190882Y-24852520D01*
G75*
G02*
X305430882Y-24612520I240000J0D01*
G01*
X306550882Y-24612520D01*
G75*
G02*
X306790882Y-24852520I0J-240000D01*
G01*
X306790882Y-25572520D01*
G75*
G02*
X306550882Y-25812520I-240000J0D01*
G01*
G37*
%TD*%
%TO.C,D68*%
G36*
G01*
X270831875Y-46825000D02*
X269711875Y-46825000D01*
G75*
G02*
X269471875Y-46585000I0J240000D01*
G01*
X269471875Y-45865000D01*
G75*
G02*
X269711875Y-45625000I240000J0D01*
G01*
X270831875Y-45625000D01*
G75*
G02*
X271071875Y-45865000I0J-240000D01*
G01*
X271071875Y-46585000D01*
G75*
G02*
X270831875Y-46825000I-240000J0D01*
G01*
G37*
G36*
G01*
X270831875Y-49625000D02*
X269711875Y-49625000D01*
G75*
G02*
X269471875Y-49385000I0J240000D01*
G01*
X269471875Y-48665000D01*
G75*
G02*
X269711875Y-48425000I240000J0D01*
G01*
X270831875Y-48425000D01*
G75*
G02*
X271071875Y-48665000I0J-240000D01*
G01*
X271071875Y-49385000D01*
G75*
G02*
X270831875Y-49625000I-240000J0D01*
G01*
G37*
%TD*%
%TO.C,D67*%
G36*
G01*
X285119375Y-23012500D02*
X283999375Y-23012500D01*
G75*
G02*
X283759375Y-22772500I0J240000D01*
G01*
X283759375Y-22052500D01*
G75*
G02*
X283999375Y-21812500I240000J0D01*
G01*
X285119375Y-21812500D01*
G75*
G02*
X285359375Y-22052500I0J-240000D01*
G01*
X285359375Y-22772500D01*
G75*
G02*
X285119375Y-23012500I-240000J0D01*
G01*
G37*
G36*
G01*
X285119375Y-25812500D02*
X283999375Y-25812500D01*
G75*
G02*
X283759375Y-25572500I0J240000D01*
G01*
X283759375Y-24852500D01*
G75*
G02*
X283999375Y-24612500I240000J0D01*
G01*
X285119375Y-24612500D01*
G75*
G02*
X285359375Y-24852500I0J-240000D01*
G01*
X285359375Y-25572500D01*
G75*
G02*
X285119375Y-25812500I-240000J0D01*
G01*
G37*
%TD*%
%TO.C,D61*%
G36*
G01*
X251781875Y-46825000D02*
X250661875Y-46825000D01*
G75*
G02*
X250421875Y-46585000I0J240000D01*
G01*
X250421875Y-45865000D01*
G75*
G02*
X250661875Y-45625000I240000J0D01*
G01*
X251781875Y-45625000D01*
G75*
G02*
X252021875Y-45865000I0J-240000D01*
G01*
X252021875Y-46585000D01*
G75*
G02*
X251781875Y-46825000I-240000J0D01*
G01*
G37*
G36*
G01*
X251781875Y-49625000D02*
X250661875Y-49625000D01*
G75*
G02*
X250421875Y-49385000I0J240000D01*
G01*
X250421875Y-48665000D01*
G75*
G02*
X250661875Y-48425000I240000J0D01*
G01*
X251781875Y-48425000D01*
G75*
G02*
X252021875Y-48665000I0J-240000D01*
G01*
X252021875Y-49385000D01*
G75*
G02*
X251781875Y-49625000I-240000J0D01*
G01*
G37*
%TD*%
%TO.C,D60*%
G36*
G01*
X266069375Y-23012500D02*
X264949375Y-23012500D01*
G75*
G02*
X264709375Y-22772500I0J240000D01*
G01*
X264709375Y-22052500D01*
G75*
G02*
X264949375Y-21812500I240000J0D01*
G01*
X266069375Y-21812500D01*
G75*
G02*
X266309375Y-22052500I0J-240000D01*
G01*
X266309375Y-22772500D01*
G75*
G02*
X266069375Y-23012500I-240000J0D01*
G01*
G37*
G36*
G01*
X266069375Y-25812500D02*
X264949375Y-25812500D01*
G75*
G02*
X264709375Y-25572500I0J240000D01*
G01*
X264709375Y-24852500D01*
G75*
G02*
X264949375Y-24612500I240000J0D01*
G01*
X266069375Y-24612500D01*
G75*
G02*
X266309375Y-24852500I0J-240000D01*
G01*
X266309375Y-25572500D01*
G75*
G02*
X266069375Y-25812500I-240000J0D01*
G01*
G37*
%TD*%
%TO.C,D56*%
G36*
G01*
X232731875Y-46825000D02*
X231611875Y-46825000D01*
G75*
G02*
X231371875Y-46585000I0J240000D01*
G01*
X231371875Y-45865000D01*
G75*
G02*
X231611875Y-45625000I240000J0D01*
G01*
X232731875Y-45625000D01*
G75*
G02*
X232971875Y-45865000I0J-240000D01*
G01*
X232971875Y-46585000D01*
G75*
G02*
X232731875Y-46825000I-240000J0D01*
G01*
G37*
G36*
G01*
X232731875Y-49625000D02*
X231611875Y-49625000D01*
G75*
G02*
X231371875Y-49385000I0J240000D01*
G01*
X231371875Y-48665000D01*
G75*
G02*
X231611875Y-48425000I240000J0D01*
G01*
X232731875Y-48425000D01*
G75*
G02*
X232971875Y-48665000I0J-240000D01*
G01*
X232971875Y-49385000D01*
G75*
G02*
X232731875Y-49625000I-240000J0D01*
G01*
G37*
%TD*%
%TO.C,D55*%
G36*
G01*
X247019375Y-23012500D02*
X245899375Y-23012500D01*
G75*
G02*
X245659375Y-22772500I0J240000D01*
G01*
X245659375Y-22052500D01*
G75*
G02*
X245899375Y-21812500I240000J0D01*
G01*
X247019375Y-21812500D01*
G75*
G02*
X247259375Y-22052500I0J-240000D01*
G01*
X247259375Y-22772500D01*
G75*
G02*
X247019375Y-23012500I-240000J0D01*
G01*
G37*
G36*
G01*
X247019375Y-25812500D02*
X245899375Y-25812500D01*
G75*
G02*
X245659375Y-25572500I0J240000D01*
G01*
X245659375Y-24852500D01*
G75*
G02*
X245899375Y-24612500I240000J0D01*
G01*
X247019375Y-24612500D01*
G75*
G02*
X247259375Y-24852500I0J-240000D01*
G01*
X247259375Y-25572500D01*
G75*
G02*
X247019375Y-25812500I-240000J0D01*
G01*
G37*
%TD*%
%TO.C,D51*%
G36*
G01*
X213681875Y-46825000D02*
X212561875Y-46825000D01*
G75*
G02*
X212321875Y-46585000I0J240000D01*
G01*
X212321875Y-45865000D01*
G75*
G02*
X212561875Y-45625000I240000J0D01*
G01*
X213681875Y-45625000D01*
G75*
G02*
X213921875Y-45865000I0J-240000D01*
G01*
X213921875Y-46585000D01*
G75*
G02*
X213681875Y-46825000I-240000J0D01*
G01*
G37*
G36*
G01*
X213681875Y-49625000D02*
X212561875Y-49625000D01*
G75*
G02*
X212321875Y-49385000I0J240000D01*
G01*
X212321875Y-48665000D01*
G75*
G02*
X212561875Y-48425000I240000J0D01*
G01*
X213681875Y-48425000D01*
G75*
G02*
X213921875Y-48665000I0J-240000D01*
G01*
X213921875Y-49385000D01*
G75*
G02*
X213681875Y-49625000I-240000J0D01*
G01*
G37*
%TD*%
%TO.C,D50*%
G36*
G01*
X223206875Y-23012500D02*
X222086875Y-23012500D01*
G75*
G02*
X221846875Y-22772500I0J240000D01*
G01*
X221846875Y-22052500D01*
G75*
G02*
X222086875Y-21812500I240000J0D01*
G01*
X223206875Y-21812500D01*
G75*
G02*
X223446875Y-22052500I0J-240000D01*
G01*
X223446875Y-22772500D01*
G75*
G02*
X223206875Y-23012500I-240000J0D01*
G01*
G37*
G36*
G01*
X223206875Y-25812500D02*
X222086875Y-25812500D01*
G75*
G02*
X221846875Y-25572500I0J240000D01*
G01*
X221846875Y-24852500D01*
G75*
G02*
X222086875Y-24612500I240000J0D01*
G01*
X223206875Y-24612500D01*
G75*
G02*
X223446875Y-24852500I0J-240000D01*
G01*
X223446875Y-25572500D01*
G75*
G02*
X223206875Y-25812500I-240000J0D01*
G01*
G37*
%TD*%
%TO.C,D46*%
G36*
G01*
X194631875Y-46825000D02*
X193511875Y-46825000D01*
G75*
G02*
X193271875Y-46585000I0J240000D01*
G01*
X193271875Y-45865000D01*
G75*
G02*
X193511875Y-45625000I240000J0D01*
G01*
X194631875Y-45625000D01*
G75*
G02*
X194871875Y-45865000I0J-240000D01*
G01*
X194871875Y-46585000D01*
G75*
G02*
X194631875Y-46825000I-240000J0D01*
G01*
G37*
G36*
G01*
X194631875Y-49625000D02*
X193511875Y-49625000D01*
G75*
G02*
X193271875Y-49385000I0J240000D01*
G01*
X193271875Y-48665000D01*
G75*
G02*
X193511875Y-48425000I240000J0D01*
G01*
X194631875Y-48425000D01*
G75*
G02*
X194871875Y-48665000I0J-240000D01*
G01*
X194871875Y-49385000D01*
G75*
G02*
X194631875Y-49625000I-240000J0D01*
G01*
G37*
%TD*%
%TO.C,D45*%
G36*
G01*
X204156875Y-23012500D02*
X203036875Y-23012500D01*
G75*
G02*
X202796875Y-22772500I0J240000D01*
G01*
X202796875Y-22052500D01*
G75*
G02*
X203036875Y-21812500I240000J0D01*
G01*
X204156875Y-21812500D01*
G75*
G02*
X204396875Y-22052500I0J-240000D01*
G01*
X204396875Y-22772500D01*
G75*
G02*
X204156875Y-23012500I-240000J0D01*
G01*
G37*
G36*
G01*
X204156875Y-25812500D02*
X203036875Y-25812500D01*
G75*
G02*
X202796875Y-25572500I0J240000D01*
G01*
X202796875Y-24852500D01*
G75*
G02*
X203036875Y-24612500I240000J0D01*
G01*
X204156875Y-24612500D01*
G75*
G02*
X204396875Y-24852500I0J-240000D01*
G01*
X204396875Y-25572500D01*
G75*
G02*
X204156875Y-25812500I-240000J0D01*
G01*
G37*
%TD*%
%TO.C,D41*%
G36*
G01*
X175581875Y-46825000D02*
X174461875Y-46825000D01*
G75*
G02*
X174221875Y-46585000I0J240000D01*
G01*
X174221875Y-45865000D01*
G75*
G02*
X174461875Y-45625000I240000J0D01*
G01*
X175581875Y-45625000D01*
G75*
G02*
X175821875Y-45865000I0J-240000D01*
G01*
X175821875Y-46585000D01*
G75*
G02*
X175581875Y-46825000I-240000J0D01*
G01*
G37*
G36*
G01*
X175581875Y-49625000D02*
X174461875Y-49625000D01*
G75*
G02*
X174221875Y-49385000I0J240000D01*
G01*
X174221875Y-48665000D01*
G75*
G02*
X174461875Y-48425000I240000J0D01*
G01*
X175581875Y-48425000D01*
G75*
G02*
X175821875Y-48665000I0J-240000D01*
G01*
X175821875Y-49385000D01*
G75*
G02*
X175581875Y-49625000I-240000J0D01*
G01*
G37*
%TD*%
%TO.C,D40*%
G36*
G01*
X185106875Y-23012500D02*
X183986875Y-23012500D01*
G75*
G02*
X183746875Y-22772500I0J240000D01*
G01*
X183746875Y-22052500D01*
G75*
G02*
X183986875Y-21812500I240000J0D01*
G01*
X185106875Y-21812500D01*
G75*
G02*
X185346875Y-22052500I0J-240000D01*
G01*
X185346875Y-22772500D01*
G75*
G02*
X185106875Y-23012500I-240000J0D01*
G01*
G37*
G36*
G01*
X185106875Y-25812500D02*
X183986875Y-25812500D01*
G75*
G02*
X183746875Y-25572500I0J240000D01*
G01*
X183746875Y-24852500D01*
G75*
G02*
X183986875Y-24612500I240000J0D01*
G01*
X185106875Y-24612500D01*
G75*
G02*
X185346875Y-24852500I0J-240000D01*
G01*
X185346875Y-25572500D01*
G75*
G02*
X185106875Y-25812500I-240000J0D01*
G01*
G37*
%TD*%
%TO.C,D35*%
G36*
G01*
X156531875Y-46825000D02*
X155411875Y-46825000D01*
G75*
G02*
X155171875Y-46585000I0J240000D01*
G01*
X155171875Y-45865000D01*
G75*
G02*
X155411875Y-45625000I240000J0D01*
G01*
X156531875Y-45625000D01*
G75*
G02*
X156771875Y-45865000I0J-240000D01*
G01*
X156771875Y-46585000D01*
G75*
G02*
X156531875Y-46825000I-240000J0D01*
G01*
G37*
G36*
G01*
X156531875Y-49625000D02*
X155411875Y-49625000D01*
G75*
G02*
X155171875Y-49385000I0J240000D01*
G01*
X155171875Y-48665000D01*
G75*
G02*
X155411875Y-48425000I240000J0D01*
G01*
X156531875Y-48425000D01*
G75*
G02*
X156771875Y-48665000I0J-240000D01*
G01*
X156771875Y-49385000D01*
G75*
G02*
X156531875Y-49625000I-240000J0D01*
G01*
G37*
%TD*%
%TO.C,D34*%
G36*
G01*
X166056875Y-23012500D02*
X164936875Y-23012500D01*
G75*
G02*
X164696875Y-22772500I0J240000D01*
G01*
X164696875Y-22052500D01*
G75*
G02*
X164936875Y-21812500I240000J0D01*
G01*
X166056875Y-21812500D01*
G75*
G02*
X166296875Y-22052500I0J-240000D01*
G01*
X166296875Y-22772500D01*
G75*
G02*
X166056875Y-23012500I-240000J0D01*
G01*
G37*
G36*
G01*
X166056875Y-25812500D02*
X164936875Y-25812500D01*
G75*
G02*
X164696875Y-25572500I0J240000D01*
G01*
X164696875Y-24852500D01*
G75*
G02*
X164936875Y-24612500I240000J0D01*
G01*
X166056875Y-24612500D01*
G75*
G02*
X166296875Y-24852500I0J-240000D01*
G01*
X166296875Y-25572500D01*
G75*
G02*
X166056875Y-25812500I-240000J0D01*
G01*
G37*
%TD*%
%TO.C,D30*%
G36*
G01*
X137481875Y-46825000D02*
X136361875Y-46825000D01*
G75*
G02*
X136121875Y-46585000I0J240000D01*
G01*
X136121875Y-45865000D01*
G75*
G02*
X136361875Y-45625000I240000J0D01*
G01*
X137481875Y-45625000D01*
G75*
G02*
X137721875Y-45865000I0J-240000D01*
G01*
X137721875Y-46585000D01*
G75*
G02*
X137481875Y-46825000I-240000J0D01*
G01*
G37*
G36*
G01*
X137481875Y-49625000D02*
X136361875Y-49625000D01*
G75*
G02*
X136121875Y-49385000I0J240000D01*
G01*
X136121875Y-48665000D01*
G75*
G02*
X136361875Y-48425000I240000J0D01*
G01*
X137481875Y-48425000D01*
G75*
G02*
X137721875Y-48665000I0J-240000D01*
G01*
X137721875Y-49385000D01*
G75*
G02*
X137481875Y-49625000I-240000J0D01*
G01*
G37*
%TD*%
%TO.C,D29*%
G36*
G01*
X142244375Y-23012500D02*
X141124375Y-23012500D01*
G75*
G02*
X140884375Y-22772500I0J240000D01*
G01*
X140884375Y-22052500D01*
G75*
G02*
X141124375Y-21812500I240000J0D01*
G01*
X142244375Y-21812500D01*
G75*
G02*
X142484375Y-22052500I0J-240000D01*
G01*
X142484375Y-22772500D01*
G75*
G02*
X142244375Y-23012500I-240000J0D01*
G01*
G37*
G36*
G01*
X142244375Y-25812500D02*
X141124375Y-25812500D01*
G75*
G02*
X140884375Y-25572500I0J240000D01*
G01*
X140884375Y-24852500D01*
G75*
G02*
X141124375Y-24612500I240000J0D01*
G01*
X142244375Y-24612500D01*
G75*
G02*
X142484375Y-24852500I0J-240000D01*
G01*
X142484375Y-25572500D01*
G75*
G02*
X142244375Y-25812500I-240000J0D01*
G01*
G37*
%TD*%
%TO.C,D25*%
G36*
G01*
X118431875Y-46825000D02*
X117311875Y-46825000D01*
G75*
G02*
X117071875Y-46585000I0J240000D01*
G01*
X117071875Y-45865000D01*
G75*
G02*
X117311875Y-45625000I240000J0D01*
G01*
X118431875Y-45625000D01*
G75*
G02*
X118671875Y-45865000I0J-240000D01*
G01*
X118671875Y-46585000D01*
G75*
G02*
X118431875Y-46825000I-240000J0D01*
G01*
G37*
G36*
G01*
X118431875Y-49625000D02*
X117311875Y-49625000D01*
G75*
G02*
X117071875Y-49385000I0J240000D01*
G01*
X117071875Y-48665000D01*
G75*
G02*
X117311875Y-48425000I240000J0D01*
G01*
X118431875Y-48425000D01*
G75*
G02*
X118671875Y-48665000I0J-240000D01*
G01*
X118671875Y-49385000D01*
G75*
G02*
X118431875Y-49625000I-240000J0D01*
G01*
G37*
%TD*%
%TO.C,D24*%
G36*
G01*
X123194375Y-23012500D02*
X122074375Y-23012500D01*
G75*
G02*
X121834375Y-22772500I0J240000D01*
G01*
X121834375Y-22052500D01*
G75*
G02*
X122074375Y-21812500I240000J0D01*
G01*
X123194375Y-21812500D01*
G75*
G02*
X123434375Y-22052500I0J-240000D01*
G01*
X123434375Y-22772500D01*
G75*
G02*
X123194375Y-23012500I-240000J0D01*
G01*
G37*
G36*
G01*
X123194375Y-25812500D02*
X122074375Y-25812500D01*
G75*
G02*
X121834375Y-25572500I0J240000D01*
G01*
X121834375Y-24852500D01*
G75*
G02*
X122074375Y-24612500I240000J0D01*
G01*
X123194375Y-24612500D01*
G75*
G02*
X123434375Y-24852500I0J-240000D01*
G01*
X123434375Y-25572500D01*
G75*
G02*
X123194375Y-25812500I-240000J0D01*
G01*
G37*
%TD*%
%TO.C,D19*%
G36*
G01*
X99381875Y-46825000D02*
X98261875Y-46825000D01*
G75*
G02*
X98021875Y-46585000I0J240000D01*
G01*
X98021875Y-45865000D01*
G75*
G02*
X98261875Y-45625000I240000J0D01*
G01*
X99381875Y-45625000D01*
G75*
G02*
X99621875Y-45865000I0J-240000D01*
G01*
X99621875Y-46585000D01*
G75*
G02*
X99381875Y-46825000I-240000J0D01*
G01*
G37*
G36*
G01*
X99381875Y-49625000D02*
X98261875Y-49625000D01*
G75*
G02*
X98021875Y-49385000I0J240000D01*
G01*
X98021875Y-48665000D01*
G75*
G02*
X98261875Y-48425000I240000J0D01*
G01*
X99381875Y-48425000D01*
G75*
G02*
X99621875Y-48665000I0J-240000D01*
G01*
X99621875Y-49385000D01*
G75*
G02*
X99381875Y-49625000I-240000J0D01*
G01*
G37*
%TD*%
%TO.C,D18*%
G36*
G01*
X104144375Y-23012500D02*
X103024375Y-23012500D01*
G75*
G02*
X102784375Y-22772500I0J240000D01*
G01*
X102784375Y-22052500D01*
G75*
G02*
X103024375Y-21812500I240000J0D01*
G01*
X104144375Y-21812500D01*
G75*
G02*
X104384375Y-22052500I0J-240000D01*
G01*
X104384375Y-22772500D01*
G75*
G02*
X104144375Y-23012500I-240000J0D01*
G01*
G37*
G36*
G01*
X104144375Y-25812500D02*
X103024375Y-25812500D01*
G75*
G02*
X102784375Y-25572500I0J240000D01*
G01*
X102784375Y-24852500D01*
G75*
G02*
X103024375Y-24612500I240000J0D01*
G01*
X104144375Y-24612500D01*
G75*
G02*
X104384375Y-24852500I0J-240000D01*
G01*
X104384375Y-25572500D01*
G75*
G02*
X104144375Y-25812500I-240000J0D01*
G01*
G37*
%TD*%
%TO.C,D13*%
G36*
G01*
X80331875Y-46825000D02*
X79211875Y-46825000D01*
G75*
G02*
X78971875Y-46585000I0J240000D01*
G01*
X78971875Y-45865000D01*
G75*
G02*
X79211875Y-45625000I240000J0D01*
G01*
X80331875Y-45625000D01*
G75*
G02*
X80571875Y-45865000I0J-240000D01*
G01*
X80571875Y-46585000D01*
G75*
G02*
X80331875Y-46825000I-240000J0D01*
G01*
G37*
G36*
G01*
X80331875Y-49625000D02*
X79211875Y-49625000D01*
G75*
G02*
X78971875Y-49385000I0J240000D01*
G01*
X78971875Y-48665000D01*
G75*
G02*
X79211875Y-48425000I240000J0D01*
G01*
X80331875Y-48425000D01*
G75*
G02*
X80571875Y-48665000I0J-240000D01*
G01*
X80571875Y-49385000D01*
G75*
G02*
X80331875Y-49625000I-240000J0D01*
G01*
G37*
%TD*%
%TO.C,D12*%
G36*
G01*
X85094375Y-23012500D02*
X83974375Y-23012500D01*
G75*
G02*
X83734375Y-22772500I0J240000D01*
G01*
X83734375Y-22052500D01*
G75*
G02*
X83974375Y-21812500I240000J0D01*
G01*
X85094375Y-21812500D01*
G75*
G02*
X85334375Y-22052500I0J-240000D01*
G01*
X85334375Y-22772500D01*
G75*
G02*
X85094375Y-23012500I-240000J0D01*
G01*
G37*
G36*
G01*
X85094375Y-25812500D02*
X83974375Y-25812500D01*
G75*
G02*
X83734375Y-25572500I0J240000D01*
G01*
X83734375Y-24852500D01*
G75*
G02*
X83974375Y-24612500I240000J0D01*
G01*
X85094375Y-24612500D01*
G75*
G02*
X85334375Y-24852500I0J-240000D01*
G01*
X85334375Y-25572500D01*
G75*
G02*
X85094375Y-25812500I-240000J0D01*
G01*
G37*
%TD*%
%TO.C,D7*%
G36*
G01*
X61281875Y-46825000D02*
X60161875Y-46825000D01*
G75*
G02*
X59921875Y-46585000I0J240000D01*
G01*
X59921875Y-45865000D01*
G75*
G02*
X60161875Y-45625000I240000J0D01*
G01*
X61281875Y-45625000D01*
G75*
G02*
X61521875Y-45865000I0J-240000D01*
G01*
X61521875Y-46585000D01*
G75*
G02*
X61281875Y-46825000I-240000J0D01*
G01*
G37*
G36*
G01*
X61281875Y-49625000D02*
X60161875Y-49625000D01*
G75*
G02*
X59921875Y-49385000I0J240000D01*
G01*
X59921875Y-48665000D01*
G75*
G02*
X60161875Y-48425000I240000J0D01*
G01*
X61281875Y-48425000D01*
G75*
G02*
X61521875Y-48665000I0J-240000D01*
G01*
X61521875Y-49385000D01*
G75*
G02*
X61281875Y-49625000I-240000J0D01*
G01*
G37*
%TD*%
%TO.C,D6*%
G36*
G01*
X61281926Y-23012520D02*
X60161926Y-23012520D01*
G75*
G02*
X59921926Y-22772520I0J240000D01*
G01*
X59921926Y-22052520D01*
G75*
G02*
X60161926Y-21812520I240000J0D01*
G01*
X61281926Y-21812520D01*
G75*
G02*
X61521926Y-22052520I0J-240000D01*
G01*
X61521926Y-22772520D01*
G75*
G02*
X61281926Y-23012520I-240000J0D01*
G01*
G37*
G36*
G01*
X61281926Y-25812520D02*
X60161926Y-25812520D01*
G75*
G02*
X59921926Y-25572520I0J240000D01*
G01*
X59921926Y-24852520D01*
G75*
G02*
X60161926Y-24612520I240000J0D01*
G01*
X61281926Y-24612520D01*
G75*
G02*
X61521926Y-24852520I0J-240000D01*
G01*
X61521926Y-25572520D01*
G75*
G02*
X61281926Y-25812520I-240000J0D01*
G01*
G37*
%TD*%
D13*
%TO.C,MX81*%
X316706250Y-123825000D03*
D12*
X320516250Y-126365000D03*
D11*
X324770750Y-125412500D03*
D10*
X323791250Y-126365000D03*
D11*
X309884750Y-127952500D03*
D10*
X310864250Y-128905000D03*
D11*
X309884750Y-129857500D03*
D12*
X314166250Y-128905000D03*
D14*
X321786250Y-123825000D03*
X311626250Y-123825000D03*
D11*
X324770750Y-127317500D03*
%TD*%
D13*
%TO.C,MX75*%
X292893750Y-123825000D03*
D12*
X296703750Y-126365000D03*
D11*
X300958250Y-125412500D03*
D10*
X299978750Y-126365000D03*
D11*
X286072250Y-127952500D03*
D10*
X287051750Y-128905000D03*
D11*
X286072250Y-129857500D03*
D12*
X290353750Y-128905000D03*
D14*
X297973750Y-123825000D03*
X287813750Y-123825000D03*
D11*
X300958250Y-127317500D03*
%TD*%
D13*
%TO.C,MX71*%
X269081250Y-123825000D03*
D12*
X272891250Y-126365000D03*
D11*
X277145750Y-125412500D03*
D10*
X276166250Y-126365000D03*
D11*
X262259750Y-127952500D03*
D10*
X263239250Y-128905000D03*
D11*
X262259750Y-129857500D03*
D12*
X266541250Y-128905000D03*
D14*
X274161250Y-123825000D03*
X264001250Y-123825000D03*
D11*
X277145750Y-127317500D03*
%TD*%
D13*
%TO.C,MX66*%
X245268750Y-123825000D03*
D12*
X241458750Y-121285000D03*
D11*
X237204250Y-122237500D03*
D10*
X238183750Y-121285000D03*
D11*
X252090250Y-119697500D03*
D10*
X251110750Y-118745000D03*
D11*
X252090250Y-117792500D03*
D12*
X247808750Y-118745000D03*
D14*
X240188750Y-123825000D03*
X250348750Y-123825000D03*
D11*
X237204250Y-120332500D03*
%TD*%
D13*
%TO.C,MX23*%
X102393750Y-123825000D03*
D12*
X98583750Y-121285000D03*
D11*
X94329250Y-122237500D03*
D10*
X95308750Y-121285000D03*
D11*
X109215250Y-119697500D03*
D10*
X108235750Y-118745000D03*
D11*
X109215250Y-117792500D03*
D12*
X104933750Y-118745000D03*
D14*
X97313750Y-123825000D03*
X107473750Y-123825000D03*
D11*
X94329250Y-120332500D03*
%TD*%
D13*
%TO.C,MX17*%
X78581250Y-123825000D03*
D12*
X74771250Y-121285000D03*
D11*
X70516750Y-122237500D03*
D10*
X71496250Y-121285000D03*
D11*
X85402750Y-119697500D03*
D10*
X84423250Y-118745000D03*
D11*
X85402750Y-117792500D03*
D12*
X81121250Y-118745000D03*
D14*
X73501250Y-123825000D03*
X83661250Y-123825000D03*
D11*
X70516750Y-120332500D03*
%TD*%
D13*
%TO.C,MX11*%
X54768750Y-123825000D03*
D12*
X50958750Y-121285000D03*
D11*
X46704250Y-122237500D03*
D10*
X47683750Y-121285000D03*
D11*
X61590250Y-119697500D03*
D10*
X60610750Y-118745000D03*
D11*
X61590250Y-117792500D03*
D12*
X57308750Y-118745000D03*
D14*
X49688750Y-123825000D03*
X59848750Y-123825000D03*
D11*
X46704250Y-120332500D03*
%TD*%
D13*
%TO.C,MX8*%
X57150000Y-66675000D03*
D12*
X53340000Y-64135000D03*
D11*
X49085500Y-65087500D03*
D10*
X50065000Y-64135000D03*
D11*
X63971500Y-62547500D03*
D10*
X62992000Y-61595000D03*
D11*
X63971500Y-60642500D03*
D12*
X59690000Y-61595000D03*
D14*
X52070000Y-66675000D03*
X62230000Y-66675000D03*
D11*
X49085500Y-63182500D03*
%TD*%
%TO.C,MX76*%
X311023000Y-20320000D03*
D14*
X324167500Y-23812500D03*
X314007500Y-23812500D03*
D12*
X315277500Y-21272500D03*
D13*
X319087500Y-23812500D03*
D12*
X321627500Y-18732500D03*
D11*
X311023000Y-22225000D03*
X325909000Y-19685000D03*
X325909000Y-17780000D03*
D10*
X324929500Y-18732500D03*
X312002500Y-21272500D03*
%TD*%
D11*
%TO.C,MX74*%
X282448000Y-63182500D03*
D14*
X295592500Y-66675000D03*
X285432500Y-66675000D03*
D12*
X286702500Y-64135000D03*
D13*
X290512500Y-66675000D03*
D12*
X293052500Y-61595000D03*
D11*
X282448000Y-65087500D03*
X297334000Y-62547500D03*
X297334000Y-60642500D03*
D10*
X296354500Y-61595000D03*
X283427500Y-64135000D03*
%TD*%
D11*
%TO.C,MX70*%
X268160500Y-82232500D03*
D14*
X281305000Y-85725000D03*
X271145000Y-85725000D03*
D12*
X272415000Y-83185000D03*
D13*
X276225000Y-85725000D03*
D12*
X278765000Y-80645000D03*
D11*
X268160500Y-84137500D03*
X283046500Y-81597500D03*
X283046500Y-79692500D03*
D10*
X282067000Y-80645000D03*
X269140000Y-83185000D03*
%TD*%
D30*
%TO.C,SW2*%
X26075000Y-31312500D03*
X28575000Y-31312500D03*
X31075000Y-31312500D03*
D31*
X22975000Y-23812500D03*
X34175000Y-23812500D03*
D30*
X26075000Y-16812500D03*
X31075000Y-16812500D03*
%TD*%
D10*
%TO.C,MX72*%
X288190000Y-21272500D03*
X301117000Y-18732500D03*
D11*
X302096500Y-17780000D03*
X302096500Y-19685000D03*
X287210500Y-22225000D03*
D12*
X297815000Y-18732500D03*
D13*
X295275000Y-23812500D03*
D12*
X291465000Y-21272500D03*
D14*
X290195000Y-23812500D03*
X300355000Y-23812500D03*
D11*
X287210500Y-20320000D03*
%TD*%
D10*
%TO.C,MX69*%
X264377500Y-64135000D03*
X277304500Y-61595000D03*
D11*
X278284000Y-60642500D03*
X278284000Y-62547500D03*
X263398000Y-65087500D03*
D12*
X274002500Y-61595000D03*
D13*
X271462500Y-66675000D03*
D12*
X267652500Y-64135000D03*
D14*
X266382500Y-66675000D03*
X276542500Y-66675000D03*
D11*
X263398000Y-63182500D03*
%TD*%
D10*
%TO.C,MX68*%
X254852500Y-45085000D03*
X267779500Y-42545000D03*
D11*
X268759000Y-41592500D03*
X268759000Y-43497500D03*
X253873000Y-46037500D03*
D12*
X264477500Y-42545000D03*
D13*
X261937500Y-47625000D03*
D12*
X258127500Y-45085000D03*
D14*
X256857500Y-47625000D03*
X267017500Y-47625000D03*
D11*
X253873000Y-44132500D03*
%TD*%
D10*
%TO.C,MX67*%
X269140000Y-21272500D03*
X282067000Y-18732500D03*
D11*
X283046500Y-17780000D03*
X283046500Y-19685000D03*
X268160500Y-22225000D03*
D12*
X278765000Y-18732500D03*
D13*
X276225000Y-23812500D03*
D12*
X272415000Y-21272500D03*
D14*
X271145000Y-23812500D03*
X281305000Y-23812500D03*
D11*
X268160500Y-20320000D03*
%TD*%
D10*
%TO.C,MX65*%
X259615000Y-102235000D03*
X272542000Y-99695000D03*
D11*
X273521500Y-98742500D03*
X273521500Y-100647500D03*
X258635500Y-103187500D03*
D12*
X269240000Y-99695000D03*
D13*
X266700000Y-104775000D03*
D12*
X262890000Y-102235000D03*
D14*
X261620000Y-104775000D03*
X271780000Y-104775000D03*
D11*
X258635500Y-101282500D03*
%TD*%
D10*
%TO.C,MX64*%
X250090000Y-83185000D03*
X263017000Y-80645000D03*
D11*
X263996500Y-79692500D03*
X263996500Y-81597500D03*
X249110500Y-84137500D03*
D12*
X259715000Y-80645000D03*
D13*
X257175000Y-85725000D03*
D12*
X253365000Y-83185000D03*
D14*
X252095000Y-85725000D03*
X262255000Y-85725000D03*
D11*
X249110500Y-82232500D03*
%TD*%
D10*
%TO.C,MX63*%
X245327500Y-64135000D03*
X258254500Y-61595000D03*
D11*
X259234000Y-60642500D03*
X259234000Y-62547500D03*
X244348000Y-65087500D03*
D12*
X254952500Y-61595000D03*
D13*
X252412500Y-66675000D03*
D12*
X248602500Y-64135000D03*
D14*
X247332500Y-66675000D03*
X257492500Y-66675000D03*
D11*
X244348000Y-63182500D03*
%TD*%
D10*
%TO.C,MX62*%
X235802500Y-45085000D03*
X248729500Y-42545000D03*
D11*
X249709000Y-41592500D03*
X249709000Y-43497500D03*
X234823000Y-46037500D03*
D12*
X245427500Y-42545000D03*
D13*
X242887500Y-47625000D03*
D12*
X239077500Y-45085000D03*
D14*
X237807500Y-47625000D03*
X247967500Y-47625000D03*
D11*
X234823000Y-44132500D03*
%TD*%
D10*
%TO.C,MX61*%
X250090000Y-21272500D03*
X263017000Y-18732500D03*
D11*
X263996500Y-17780000D03*
X263996500Y-19685000D03*
X249110500Y-22225000D03*
D12*
X259715000Y-18732500D03*
D13*
X257175000Y-23812500D03*
D12*
X253365000Y-21272500D03*
D14*
X252095000Y-23812500D03*
X262255000Y-23812500D03*
D11*
X249110500Y-20320000D03*
%TD*%
D10*
%TO.C,MX60*%
X240565000Y-102235000D03*
X253492000Y-99695000D03*
D11*
X254471500Y-98742500D03*
X254471500Y-100647500D03*
X239585500Y-103187500D03*
D12*
X250190000Y-99695000D03*
D13*
X247650000Y-104775000D03*
D12*
X243840000Y-102235000D03*
D14*
X242570000Y-104775000D03*
X252730000Y-104775000D03*
D11*
X239585500Y-101282500D03*
%TD*%
D10*
%TO.C,MX59*%
X231040000Y-83185000D03*
X243967000Y-80645000D03*
D11*
X244946500Y-79692500D03*
X244946500Y-81597500D03*
X230060500Y-84137500D03*
D12*
X240665000Y-80645000D03*
D13*
X238125000Y-85725000D03*
D12*
X234315000Y-83185000D03*
D14*
X233045000Y-85725000D03*
X243205000Y-85725000D03*
D11*
X230060500Y-82232500D03*
%TD*%
D10*
%TO.C,MX58*%
X226277500Y-64135000D03*
X239204500Y-61595000D03*
D11*
X240184000Y-60642500D03*
X240184000Y-62547500D03*
X225298000Y-65087500D03*
D12*
X235902500Y-61595000D03*
D13*
X233362500Y-66675000D03*
D12*
X229552500Y-64135000D03*
D14*
X228282500Y-66675000D03*
X238442500Y-66675000D03*
D11*
X225298000Y-63182500D03*
%TD*%
D10*
%TO.C,MX57*%
X216752500Y-45085000D03*
X229679500Y-42545000D03*
D11*
X230659000Y-41592500D03*
X230659000Y-43497500D03*
X215773000Y-46037500D03*
D12*
X226377500Y-42545000D03*
D13*
X223837500Y-47625000D03*
D12*
X220027500Y-45085000D03*
D14*
X218757500Y-47625000D03*
X228917500Y-47625000D03*
D11*
X215773000Y-44132500D03*
%TD*%
D10*
%TO.C,MX56*%
X231040000Y-21272500D03*
X243967000Y-18732500D03*
D11*
X244946500Y-17780000D03*
X244946500Y-19685000D03*
X230060500Y-22225000D03*
D12*
X240665000Y-18732500D03*
D13*
X238125000Y-23812500D03*
D12*
X234315000Y-21272500D03*
D14*
X233045000Y-23812500D03*
X243205000Y-23812500D03*
D11*
X230060500Y-20320000D03*
%TD*%
D10*
%TO.C,MX55*%
X221515000Y-102235000D03*
X234442000Y-99695000D03*
D11*
X235421500Y-98742500D03*
X235421500Y-100647500D03*
X220535500Y-103187500D03*
D12*
X231140000Y-99695000D03*
D13*
X228600000Y-104775000D03*
D12*
X224790000Y-102235000D03*
D14*
X223520000Y-104775000D03*
X233680000Y-104775000D03*
D11*
X220535500Y-101282500D03*
%TD*%
D10*
%TO.C,MX54*%
X211990000Y-83185000D03*
X224917000Y-80645000D03*
D11*
X225896500Y-79692500D03*
X225896500Y-81597500D03*
X211010500Y-84137500D03*
D12*
X221615000Y-80645000D03*
D13*
X219075000Y-85725000D03*
D12*
X215265000Y-83185000D03*
D14*
X213995000Y-85725000D03*
X224155000Y-85725000D03*
D11*
X211010500Y-82232500D03*
%TD*%
D10*
%TO.C,MX53*%
X207227500Y-64135000D03*
X220154500Y-61595000D03*
D11*
X221134000Y-60642500D03*
X221134000Y-62547500D03*
X206248000Y-65087500D03*
D12*
X216852500Y-61595000D03*
D13*
X214312500Y-66675000D03*
D12*
X210502500Y-64135000D03*
D14*
X209232500Y-66675000D03*
X219392500Y-66675000D03*
D11*
X206248000Y-63182500D03*
%TD*%
D10*
%TO.C,MX52*%
X197702500Y-45085000D03*
X210629500Y-42545000D03*
D11*
X211609000Y-41592500D03*
X211609000Y-43497500D03*
X196723000Y-46037500D03*
D12*
X207327500Y-42545000D03*
D13*
X204787500Y-47625000D03*
D12*
X200977500Y-45085000D03*
D14*
X199707500Y-47625000D03*
X209867500Y-47625000D03*
D11*
X196723000Y-44132500D03*
%TD*%
D10*
%TO.C,MX51*%
X207227500Y-21272500D03*
X220154500Y-18732500D03*
D11*
X221134000Y-17780000D03*
X221134000Y-19685000D03*
X206248000Y-22225000D03*
D12*
X216852500Y-18732500D03*
D13*
X214312500Y-23812500D03*
D12*
X210502500Y-21272500D03*
D14*
X209232500Y-23812500D03*
X219392500Y-23812500D03*
D11*
X206248000Y-20320000D03*
%TD*%
D10*
%TO.C,MX50*%
X202465000Y-102235000D03*
X215392000Y-99695000D03*
D11*
X216371500Y-98742500D03*
X216371500Y-100647500D03*
X201485500Y-103187500D03*
D12*
X212090000Y-99695000D03*
D13*
X209550000Y-104775000D03*
D12*
X205740000Y-102235000D03*
D14*
X204470000Y-104775000D03*
X214630000Y-104775000D03*
D11*
X201485500Y-101282500D03*
%TD*%
D10*
%TO.C,MX41*%
X169127500Y-21272500D03*
X182054500Y-18732500D03*
D11*
X183034000Y-17780000D03*
X183034000Y-19685000D03*
X168148000Y-22225000D03*
D12*
X178752500Y-18732500D03*
D13*
X176212500Y-23812500D03*
D12*
X172402500Y-21272500D03*
D14*
X171132500Y-23812500D03*
X181292500Y-23812500D03*
D11*
X168148000Y-20320000D03*
%TD*%
D10*
%TO.C,MX35*%
X150077500Y-21272500D03*
X163004500Y-18732500D03*
D11*
X163984000Y-17780000D03*
X163984000Y-19685000D03*
X149098000Y-22225000D03*
D12*
X159702500Y-18732500D03*
D13*
X157162500Y-23812500D03*
D12*
X153352500Y-21272500D03*
D14*
X152082500Y-23812500D03*
X162242500Y-23812500D03*
D11*
X149098000Y-20320000D03*
%TD*%
D10*
%TO.C,MX29*%
X126265000Y-21272500D03*
X139192000Y-18732500D03*
D11*
X140171500Y-17780000D03*
X140171500Y-19685000D03*
X125285500Y-22225000D03*
D12*
X135890000Y-18732500D03*
D13*
X133350000Y-23812500D03*
D12*
X129540000Y-21272500D03*
D14*
X128270000Y-23812500D03*
X138430000Y-23812500D03*
D11*
X125285500Y-20320000D03*
%TD*%
D10*
%TO.C,MX49*%
X192940000Y-83185000D03*
X205867000Y-80645000D03*
D11*
X206846500Y-79692500D03*
X206846500Y-81597500D03*
X191960500Y-84137500D03*
D12*
X202565000Y-80645000D03*
D13*
X200025000Y-85725000D03*
D12*
X196215000Y-83185000D03*
D14*
X194945000Y-85725000D03*
X205105000Y-85725000D03*
D11*
X191960500Y-82232500D03*
%TD*%
D10*
%TO.C,MX48*%
X188177500Y-64135000D03*
X201104500Y-61595000D03*
D11*
X202084000Y-60642500D03*
X202084000Y-62547500D03*
X187198000Y-65087500D03*
D12*
X197802500Y-61595000D03*
D13*
X195262500Y-66675000D03*
D12*
X191452500Y-64135000D03*
D14*
X190182500Y-66675000D03*
X200342500Y-66675000D03*
D11*
X187198000Y-63182500D03*
%TD*%
D10*
%TO.C,MX47*%
X178652500Y-45085000D03*
X191579500Y-42545000D03*
D11*
X192559000Y-41592500D03*
X192559000Y-43497500D03*
X177673000Y-46037500D03*
D12*
X188277500Y-42545000D03*
D13*
X185737500Y-47625000D03*
D12*
X181927500Y-45085000D03*
D14*
X180657500Y-47625000D03*
X190817500Y-47625000D03*
D11*
X177673000Y-44132500D03*
%TD*%
D10*
%TO.C,MX46*%
X188177500Y-21272500D03*
X201104500Y-18732500D03*
D11*
X202084000Y-17780000D03*
X202084000Y-19685000D03*
X187198000Y-22225000D03*
D12*
X197802500Y-18732500D03*
D13*
X195262500Y-23812500D03*
D12*
X191452500Y-21272500D03*
D14*
X190182500Y-23812500D03*
X200342500Y-23812500D03*
D11*
X187198000Y-20320000D03*
%TD*%
D10*
%TO.C,MX45*%
X183415000Y-102235000D03*
X196342000Y-99695000D03*
D11*
X197321500Y-98742500D03*
X197321500Y-100647500D03*
X182435500Y-103187500D03*
D12*
X193040000Y-99695000D03*
D13*
X190500000Y-104775000D03*
D12*
X186690000Y-102235000D03*
D14*
X185420000Y-104775000D03*
X195580000Y-104775000D03*
D11*
X182435500Y-101282500D03*
%TD*%
D10*
%TO.C,MX44*%
X173890000Y-83185000D03*
X186817000Y-80645000D03*
D11*
X187796500Y-79692500D03*
X187796500Y-81597500D03*
X172910500Y-84137500D03*
D12*
X183515000Y-80645000D03*
D13*
X180975000Y-85725000D03*
D12*
X177165000Y-83185000D03*
D14*
X175895000Y-85725000D03*
X186055000Y-85725000D03*
D11*
X172910500Y-82232500D03*
%TD*%
D10*
%TO.C,MX43*%
X169127500Y-64135000D03*
X182054500Y-61595000D03*
D11*
X183034000Y-60642500D03*
X183034000Y-62547500D03*
X168148000Y-65087500D03*
D12*
X178752500Y-61595000D03*
D13*
X176212500Y-66675000D03*
D12*
X172402500Y-64135000D03*
D14*
X171132500Y-66675000D03*
X181292500Y-66675000D03*
D11*
X168148000Y-63182500D03*
%TD*%
D10*
%TO.C,MX42*%
X159602500Y-45085000D03*
X172529500Y-42545000D03*
D11*
X173509000Y-41592500D03*
X173509000Y-43497500D03*
X158623000Y-46037500D03*
D12*
X169227500Y-42545000D03*
D13*
X166687500Y-47625000D03*
D12*
X162877500Y-45085000D03*
D14*
X161607500Y-47625000D03*
X171767500Y-47625000D03*
D11*
X158623000Y-44132500D03*
%TD*%
D10*
%TO.C,MX36*%
X140552500Y-45085000D03*
X153479500Y-42545000D03*
D11*
X154459000Y-41592500D03*
X154459000Y-43497500D03*
X139573000Y-46037500D03*
D12*
X150177500Y-42545000D03*
D13*
X147637500Y-47625000D03*
D12*
X143827500Y-45085000D03*
D14*
X142557500Y-47625000D03*
X152717500Y-47625000D03*
D11*
X139573000Y-44132500D03*
%TD*%
D10*
%TO.C,MX30*%
X121502500Y-45085000D03*
X134429500Y-42545000D03*
D11*
X135409000Y-41592500D03*
X135409000Y-43497500D03*
X120523000Y-46037500D03*
D12*
X131127500Y-42545000D03*
D13*
X128587500Y-47625000D03*
D12*
X124777500Y-45085000D03*
D14*
X123507500Y-47625000D03*
X133667500Y-47625000D03*
D11*
X120523000Y-44132500D03*
%TD*%
D10*
%TO.C,MX24*%
X107215000Y-21272500D03*
X120142000Y-18732500D03*
D11*
X121121500Y-17780000D03*
X121121500Y-19685000D03*
X106235500Y-22225000D03*
D12*
X116840000Y-18732500D03*
D13*
X114300000Y-23812500D03*
D12*
X110490000Y-21272500D03*
D14*
X109220000Y-23812500D03*
X119380000Y-23812500D03*
D11*
X106235500Y-20320000D03*
%TD*%
D10*
%TO.C,MX39*%
X164365000Y-102235000D03*
X177292000Y-99695000D03*
D11*
X178271500Y-98742500D03*
X178271500Y-100647500D03*
X163385500Y-103187500D03*
D12*
X173990000Y-99695000D03*
D13*
X171450000Y-104775000D03*
D12*
X167640000Y-102235000D03*
D14*
X166370000Y-104775000D03*
X176530000Y-104775000D03*
D11*
X163385500Y-101282500D03*
%TD*%
D10*
%TO.C,MX38*%
X154840000Y-83185000D03*
X167767000Y-80645000D03*
D11*
X168746500Y-79692500D03*
X168746500Y-81597500D03*
X153860500Y-84137500D03*
D12*
X164465000Y-80645000D03*
D13*
X161925000Y-85725000D03*
D12*
X158115000Y-83185000D03*
D14*
X156845000Y-85725000D03*
X167005000Y-85725000D03*
D11*
X153860500Y-82232500D03*
%TD*%
D10*
%TO.C,MX37*%
X150077500Y-64135000D03*
X163004500Y-61595000D03*
D11*
X163984000Y-60642500D03*
X163984000Y-62547500D03*
X149098000Y-65087500D03*
D12*
X159702500Y-61595000D03*
D13*
X157162500Y-66675000D03*
D12*
X153352500Y-64135000D03*
D14*
X152082500Y-66675000D03*
X162242500Y-66675000D03*
D11*
X149098000Y-63182500D03*
%TD*%
D10*
%TO.C,MX33*%
X145315000Y-102235000D03*
X158242000Y-99695000D03*
D11*
X159221500Y-98742500D03*
X159221500Y-100647500D03*
X144335500Y-103187500D03*
D12*
X154940000Y-99695000D03*
D13*
X152400000Y-104775000D03*
D12*
X148590000Y-102235000D03*
D14*
X147320000Y-104775000D03*
X157480000Y-104775000D03*
D11*
X144335500Y-101282500D03*
%TD*%
D10*
%TO.C,MX32*%
X135790000Y-83185000D03*
X148717000Y-80645000D03*
D11*
X149696500Y-79692500D03*
X149696500Y-81597500D03*
X134810500Y-84137500D03*
D12*
X145415000Y-80645000D03*
D13*
X142875000Y-85725000D03*
D12*
X139065000Y-83185000D03*
D14*
X137795000Y-85725000D03*
X147955000Y-85725000D03*
D11*
X134810500Y-82232500D03*
%TD*%
D10*
%TO.C,MX31*%
X131027500Y-64135000D03*
X143954500Y-61595000D03*
D11*
X144934000Y-60642500D03*
X144934000Y-62547500D03*
X130048000Y-65087500D03*
D12*
X140652500Y-61595000D03*
D13*
X138112500Y-66675000D03*
D12*
X134302500Y-64135000D03*
D14*
X133032500Y-66675000D03*
X143192500Y-66675000D03*
D11*
X130048000Y-63182500D03*
%TD*%
D10*
%TO.C,MX28*%
X126265000Y-102235000D03*
X139192000Y-99695000D03*
D11*
X140171500Y-98742500D03*
X140171500Y-100647500D03*
X125285500Y-103187500D03*
D12*
X135890000Y-99695000D03*
D13*
X133350000Y-104775000D03*
D12*
X129540000Y-102235000D03*
D14*
X128270000Y-104775000D03*
X138430000Y-104775000D03*
D11*
X125285500Y-101282500D03*
%TD*%
D10*
%TO.C,MX27*%
X116740000Y-83185000D03*
X129667000Y-80645000D03*
D11*
X130646500Y-79692500D03*
X130646500Y-81597500D03*
X115760500Y-84137500D03*
D12*
X126365000Y-80645000D03*
D13*
X123825000Y-85725000D03*
D12*
X120015000Y-83185000D03*
D14*
X118745000Y-85725000D03*
X128905000Y-85725000D03*
D11*
X115760500Y-82232500D03*
%TD*%
D10*
%TO.C,MX26*%
X111977500Y-64135000D03*
X124904500Y-61595000D03*
D11*
X125884000Y-60642500D03*
X125884000Y-62547500D03*
X110998000Y-65087500D03*
D12*
X121602500Y-61595000D03*
D13*
X119062500Y-66675000D03*
D12*
X115252500Y-64135000D03*
D14*
X113982500Y-66675000D03*
X124142500Y-66675000D03*
D11*
X110998000Y-63182500D03*
%TD*%
D10*
%TO.C,MX22*%
X107215000Y-102235000D03*
X120142000Y-99695000D03*
D11*
X121121500Y-98742500D03*
X121121500Y-100647500D03*
X106235500Y-103187500D03*
D12*
X116840000Y-99695000D03*
D13*
X114300000Y-104775000D03*
D12*
X110490000Y-102235000D03*
D14*
X109220000Y-104775000D03*
X119380000Y-104775000D03*
D11*
X106235500Y-101282500D03*
%TD*%
D10*
%TO.C,MX21*%
X97690000Y-83185000D03*
X110617000Y-80645000D03*
D11*
X111596500Y-79692500D03*
X111596500Y-81597500D03*
X96710500Y-84137500D03*
D12*
X107315000Y-80645000D03*
D13*
X104775000Y-85725000D03*
D12*
X100965000Y-83185000D03*
D14*
X99695000Y-85725000D03*
X109855000Y-85725000D03*
D11*
X96710500Y-82232500D03*
%TD*%
D10*
%TO.C,MX20*%
X92927500Y-64135000D03*
X105854500Y-61595000D03*
D11*
X106834000Y-60642500D03*
X106834000Y-62547500D03*
X91948000Y-65087500D03*
D12*
X102552500Y-61595000D03*
D13*
X100012500Y-66675000D03*
D12*
X96202500Y-64135000D03*
D14*
X94932500Y-66675000D03*
X105092500Y-66675000D03*
D11*
X91948000Y-63182500D03*
%TD*%
D10*
%TO.C,MX18*%
X88165000Y-21272500D03*
X101092000Y-18732500D03*
D11*
X102071500Y-17780000D03*
X102071500Y-19685000D03*
X87185500Y-22225000D03*
D12*
X97790000Y-18732500D03*
D13*
X95250000Y-23812500D03*
D12*
X91440000Y-21272500D03*
D14*
X90170000Y-23812500D03*
X100330000Y-23812500D03*
D11*
X87185500Y-20320000D03*
%TD*%
D10*
%TO.C,MX16*%
X88165000Y-102235000D03*
X101092000Y-99695000D03*
D11*
X102071500Y-98742500D03*
X102071500Y-100647500D03*
X87185500Y-103187500D03*
D12*
X97790000Y-99695000D03*
D13*
X95250000Y-104775000D03*
D12*
X91440000Y-102235000D03*
D14*
X90170000Y-104775000D03*
X100330000Y-104775000D03*
D11*
X87185500Y-101282500D03*
%TD*%
D10*
%TO.C,MX15*%
X78640000Y-83185000D03*
X91567000Y-80645000D03*
D11*
X92546500Y-79692500D03*
X92546500Y-81597500D03*
X77660500Y-84137500D03*
D12*
X88265000Y-80645000D03*
D13*
X85725000Y-85725000D03*
D12*
X81915000Y-83185000D03*
D14*
X80645000Y-85725000D03*
X90805000Y-85725000D03*
D11*
X77660500Y-82232500D03*
%TD*%
D10*
%TO.C,MX13*%
X64352500Y-45085000D03*
X77279500Y-42545000D03*
D11*
X78259000Y-41592500D03*
X78259000Y-43497500D03*
X63373000Y-46037500D03*
D12*
X73977500Y-42545000D03*
D13*
X71437500Y-47625000D03*
D12*
X67627500Y-45085000D03*
D14*
X66357500Y-47625000D03*
X76517500Y-47625000D03*
D11*
X63373000Y-44132500D03*
%TD*%
D10*
%TO.C,MX12*%
X69115000Y-21272500D03*
X82042000Y-18732500D03*
D11*
X83021500Y-17780000D03*
X83021500Y-19685000D03*
X68135500Y-22225000D03*
D12*
X78740000Y-18732500D03*
D13*
X76200000Y-23812500D03*
D12*
X72390000Y-21272500D03*
D14*
X71120000Y-23812500D03*
X81280000Y-23812500D03*
D11*
X68135500Y-20320000D03*
%TD*%
D10*
%TO.C,MX7*%
X45302500Y-45085000D03*
X58229500Y-42545000D03*
D11*
X59209000Y-41592500D03*
X59209000Y-43497500D03*
X44323000Y-46037500D03*
D12*
X54927500Y-42545000D03*
D13*
X52387500Y-47625000D03*
D12*
X48577500Y-45085000D03*
D14*
X47307500Y-47625000D03*
X57467500Y-47625000D03*
D11*
X44323000Y-44132500D03*
%TD*%
D10*
%TO.C,MX6*%
X45302500Y-21272500D03*
X58229500Y-18732500D03*
D11*
X59209000Y-17780000D03*
X59209000Y-19685000D03*
X44323000Y-22225000D03*
D12*
X54927500Y-18732500D03*
D13*
X52387500Y-23812500D03*
D12*
X48577500Y-21272500D03*
D14*
X47307500Y-23812500D03*
X57467500Y-23812500D03*
D11*
X44323000Y-20320000D03*
%TD*%
D10*
%TO.C,MX5*%
X21490000Y-121285000D03*
X34417000Y-118745000D03*
D11*
X35396500Y-117792500D03*
X35396500Y-119697500D03*
X20510500Y-122237500D03*
D12*
X31115000Y-118745000D03*
D13*
X28575000Y-123825000D03*
D12*
X24765000Y-121285000D03*
D14*
X23495000Y-123825000D03*
X33655000Y-123825000D03*
D11*
X20510500Y-120332500D03*
%TD*%
D10*
%TO.C,MX4*%
X21490000Y-102235000D03*
X34417000Y-99695000D03*
D11*
X35396500Y-98742500D03*
X35396500Y-100647500D03*
X20510500Y-103187500D03*
D12*
X31115000Y-99695000D03*
D13*
X28575000Y-104775000D03*
D12*
X24765000Y-102235000D03*
D14*
X23495000Y-104775000D03*
X33655000Y-104775000D03*
D11*
X20510500Y-101282500D03*
%TD*%
D10*
%TO.C,MX3*%
X21490000Y-83185000D03*
X34417000Y-80645000D03*
D11*
X35396500Y-79692500D03*
X35396500Y-81597500D03*
X20510500Y-84137500D03*
D12*
X31115000Y-80645000D03*
D13*
X28575000Y-85725000D03*
D12*
X24765000Y-83185000D03*
D14*
X23495000Y-85725000D03*
X33655000Y-85725000D03*
D11*
X20510500Y-82232500D03*
%TD*%
D10*
%TO.C,MX2*%
X21490000Y-64135000D03*
X34417000Y-61595000D03*
D11*
X35396500Y-60642500D03*
X35396500Y-62547500D03*
X20510500Y-65087500D03*
D12*
X31115000Y-61595000D03*
D13*
X28575000Y-66675000D03*
D12*
X24765000Y-64135000D03*
D14*
X23495000Y-66675000D03*
X33655000Y-66675000D03*
D11*
X20510500Y-63182500D03*
%TD*%
D10*
%TO.C,MX1*%
X21490000Y-45085000D03*
X34417000Y-42545000D03*
D11*
X35396500Y-41592500D03*
X35396500Y-43497500D03*
X20510500Y-46037500D03*
D12*
X31115000Y-42545000D03*
D13*
X28575000Y-47625000D03*
D12*
X24765000Y-45085000D03*
D14*
X23495000Y-47625000D03*
X33655000Y-47625000D03*
D11*
X20510500Y-44132500D03*
%TD*%
M02*
