%TF.GenerationSoftware,KiCad,Pcbnew,(5.1.10)-1*%
%TF.CreationDate,2021-09-30T22:15:47+07:00*%
%TF.ProjectId,nonem,6e6f6e65-6d2e-46b6-9963-61645f706362,rev?*%
%TF.SameCoordinates,Original*%
%TF.FileFunction,Copper,L1,Top*%
%TF.FilePolarity,Positive*%
%FSLAX46Y46*%
G04 Gerber Fmt 4.6, Leading zero omitted, Abs format (unit mm)*
G04 Created by KiCad (PCBNEW (5.1.10)-1) date 2021-09-30 22:15:47*
%MOMM*%
%LPD*%
G01*
G04 APERTURE LIST*
%TA.AperFunction,ComponentPad*%
%ADD10C,3.800000*%
%TD*%
%TA.AperFunction,ViaPad*%
%ADD11C,0.800000*%
%TD*%
%TA.AperFunction,ViaPad*%
%ADD12C,0.600000*%
%TD*%
%TA.AperFunction,Conductor*%
%ADD13C,0.500000*%
%TD*%
%TA.AperFunction,Conductor*%
%ADD14C,0.250000*%
%TD*%
%TA.AperFunction,Conductor*%
%ADD15C,0.200000*%
%TD*%
G04 APERTURE END LIST*
D10*
%TO.P,LOGO1,1*%
%TO.N,N/C*%
X28646509Y-48859717D03*
%TD*%
%TO.P,LOGO2,1*%
%TO.N,N/C*%
X311715401Y-42580277D03*
%TD*%
%TO.P,LOGO3,1*%
%TO.N,N/C*%
X38100954Y-94249995D03*
%TD*%
%TO.P,LOGO4,1*%
%TO.N,N/C*%
X128588454Y-27151663D03*
%TD*%
%TO.P,LOGO5,1*%
%TO.N,N/C*%
X180975944Y-64924721D03*
%TD*%
%TO.P,LOGO6,1*%
%TO.N,N/C*%
X310692337Y-97225552D03*
%TD*%
%TO.P,LOGO7,1*%
%TO.N,N/C*%
X237490948Y-94368050D03*
%TD*%
%TO.P,LOGO8,1*%
%TO.N,N/C*%
X145239559Y-94368050D03*
%TD*%
%TO.P,LOGO9,1*%
%TO.N,N/C*%
X78564559Y-42580277D03*
%TD*%
%TO.P,LOGO10,1*%
%TO.N,N/C*%
X242888444Y-27151663D03*
%TD*%
D11*
%TO.N,+5V*%
X46743788Y-31242215D03*
X47752000Y-44958000D03*
D12*
X57670000Y-50304000D03*
D11*
X50050048Y-56400048D03*
X44207849Y-49899151D03*
X51947004Y-42159996D03*
X43755579Y-70544709D03*
X19558699Y-74203256D03*
X21275058Y-88545540D03*
%TO.N,GND*%
X51196918Y-49410979D03*
D12*
X55661859Y-61912656D03*
X79474419Y-61912656D03*
X85725216Y-61912656D03*
X104775264Y-61912656D03*
X123825312Y-61912656D03*
X142875360Y-61912656D03*
X161925408Y-59233743D03*
X180975456Y-59233743D03*
X200025504Y-59233743D03*
X219075552Y-61912656D03*
X238125600Y-61912656D03*
X257175648Y-61912656D03*
X276225696Y-61912656D03*
X95250240Y-80962704D03*
X114300288Y-80962704D03*
X133350336Y-80962704D03*
X152400384Y-80962704D03*
X171450432Y-80962704D03*
X190500480Y-80962704D03*
X209550528Y-80962704D03*
X228600576Y-80962704D03*
X247650624Y-80962704D03*
X266700672Y-80962704D03*
X285750720Y-78581448D03*
X80962704Y-39886038D03*
X100012752Y-42862608D03*
X119062800Y-42862608D03*
X138112848Y-42862608D03*
X157162896Y-42862608D03*
X176212944Y-42862608D03*
X195262992Y-42862608D03*
X214313040Y-42862608D03*
X233363088Y-42862608D03*
X252413136Y-42862608D03*
X271463184Y-42862608D03*
X290513232Y-40183695D03*
X72032994Y-87511158D03*
X122039370Y-91678356D03*
X149721471Y-91678356D03*
X233958402Y-94357269D03*
X261342846Y-91976013D03*
X104775088Y-86320385D03*
X142875120Y-86320385D03*
X171450144Y-86320385D03*
X193476725Y-86320385D03*
X219075184Y-86320385D03*
X238125200Y-86320385D03*
X52387544Y-66079743D03*
X82153194Y-66079743D03*
X82153194Y-58340674D03*
X52387544Y-60126613D03*
%TO.N,Net-(C6-Pad1)*%
X47759939Y-45974000D03*
X44783374Y-45974000D03*
D11*
%TO.N,RST*%
X45243864Y-34528212D03*
X52387632Y-43755579D03*
D12*
%TO.N,Net-(D73-Pad2)*%
X333970593Y-61126407D03*
X335697500Y-26352500D03*
D11*
%TO.N,C0*%
X11965000Y-40322500D03*
X11965000Y-59372500D03*
X11965000Y-21272500D03*
X11965000Y-102235000D03*
%TO.N,C1*%
X31015000Y-40322500D03*
X31015000Y-21272500D03*
X31015000Y-59372500D03*
X31015000Y-83185000D03*
X31015000Y-102235000D03*
%TO.N,C2*%
X59590000Y-40322500D03*
X54827500Y-21272500D03*
X74898250Y-56832500D03*
X62992000Y-99695000D03*
X66733750Y-78422500D03*
X71378750Y-64452500D03*
X59590000Y-40322500D03*
%TO.N,C3*%
X83402500Y-40322500D03*
X73877568Y-21272520D03*
X88165000Y-59372500D03*
X97690000Y-78422500D03*
X89185750Y-94932500D03*
%TO.N,C4*%
X102452500Y-40322500D03*
X116740000Y-78422500D03*
X107215000Y-59372500D03*
X100071250Y-97472500D03*
X92927500Y-21272500D03*
%TO.N,C5*%
X111977500Y-21272500D03*
X135790136Y-78422568D03*
X121502500Y-40322500D03*
X126265000Y-59372500D03*
X126265000Y-97472500D03*
%TO.N,C6*%
X131027500Y-21272500D03*
X154840136Y-78422568D03*
X140552500Y-40322500D03*
X145315000Y-59372500D03*
X171508750Y-97472500D03*
%TO.N,C7*%
X150077500Y-21272500D03*
X173890000Y-78422500D03*
X159602500Y-40322500D03*
X164365000Y-59372500D03*
%TO.N,C8*%
X169127500Y-21272500D03*
X192940000Y-78422500D03*
X178652500Y-40322500D03*
X183415000Y-59372500D03*
%TO.N,C9*%
X188177500Y-21272500D03*
X211990000Y-78422500D03*
X197702500Y-40322500D03*
X202465000Y-59372500D03*
D12*
X209608750Y-97472500D03*
D11*
%TO.N,C10*%
X207227500Y-21272500D03*
X231040000Y-78422500D03*
X221515000Y-59372500D03*
X216752500Y-40322500D03*
%TO.N,C11*%
X226277500Y-21272500D03*
X240565000Y-59372500D03*
X235802500Y-40322500D03*
X250090000Y-78422500D03*
D12*
X255873250Y-94932500D03*
D11*
%TO.N,C12*%
X245327500Y-21272500D03*
X269140000Y-78422500D03*
X259615000Y-59372500D03*
X254852500Y-40322500D03*
D12*
X279685750Y-94932500D03*
D11*
%TO.N,C13*%
X264377500Y-21272500D03*
X278665000Y-59372500D03*
X273902500Y-40322500D03*
X295333750Y-78422500D03*
X290571250Y-97472500D03*
D12*
%TO.N,C14*%
X56753553Y-31099553D03*
X49530000Y-42926000D03*
D11*
X283427500Y-21272500D03*
X292952500Y-40322500D03*
X309621250Y-59372500D03*
X321527500Y-78422500D03*
X316765000Y-97472500D03*
D12*
%TO.N,C15*%
X48930000Y-43459066D03*
X56745820Y-30258757D03*
D11*
X316765000Y-40322500D03*
X322770500Y-28892500D03*
D12*
%TO.N,R0*%
X48330000Y-42925299D03*
X48330000Y-27883000D03*
%TO.N,R1*%
X57249643Y-46893788D03*
X46482000Y-51816000D03*
%TO.N,R3*%
X49275040Y-88837576D03*
X49275040Y-70803460D03*
%TO.N,R2*%
X47191521Y-65943912D03*
X84398507Y-65943804D03*
X79222600Y-69948500D03*
X52641500Y-69948500D03*
%TO.N,R4*%
X54416806Y-85915500D03*
X49875040Y-71340181D03*
%TO.N,Net-(D75-Pad2)*%
X11394879Y-88022559D03*
X11394879Y-77306907D03*
%TD*%
D13*
%TO.N,+5V*%
X46743788Y-43949788D02*
X47752000Y-44958000D01*
X46743788Y-31242215D02*
X46743788Y-43949788D01*
X51573952Y-56400048D02*
X57670000Y-50304000D01*
X50050048Y-56400048D02*
X51573952Y-56400048D01*
X50050048Y-56400048D02*
X47117000Y-53467000D01*
X47117000Y-53467000D02*
X44831000Y-53467000D01*
X44207849Y-52843849D02*
X44831000Y-53467000D01*
X44207849Y-49899151D02*
X44207849Y-52843849D01*
X57670000Y-50304000D02*
X57670000Y-48121000D01*
X57670000Y-48121000D02*
X58293000Y-47498000D01*
X58293000Y-47498000D02*
X58293000Y-43561000D01*
X56891996Y-42159996D02*
X51947004Y-42159996D01*
X58293000Y-43561000D02*
X56891996Y-42159996D01*
X49149000Y-44958000D02*
X51947004Y-42159996D01*
X47752000Y-44958000D02*
X49149000Y-44958000D01*
X43755579Y-70544709D02*
X43755579Y-66377511D01*
X50050048Y-60083042D02*
X50050048Y-56400048D01*
X43755579Y-66377511D02*
X50050048Y-60083042D01*
X19558699Y-86829181D02*
X21275058Y-88545540D01*
X19558699Y-74203256D02*
X19558699Y-86829181D01*
D14*
%TO.N,Net-(C6-Pad1)*%
X47759939Y-45974000D02*
X44783374Y-45974000D01*
X44783374Y-45974000D02*
X44783374Y-45974000D01*
D15*
%TO.N,RST*%
X45243864Y-34528212D02*
X45243864Y-44053236D01*
X45243864Y-44053236D02*
X44053236Y-45243864D01*
X44053236Y-45243864D02*
X44053236Y-47029806D01*
X44053236Y-47029806D02*
X44946207Y-47922777D01*
X48220434Y-47922777D02*
X52387632Y-43755579D01*
X44946207Y-47922777D02*
X48220434Y-47922777D01*
%TO.N,Net-(D73-Pad2)*%
X333970593Y-61126407D02*
X333970593Y-39282407D01*
X335697500Y-37555500D02*
X335697500Y-26352500D01*
X333970593Y-39282407D02*
X335697500Y-37555500D01*
%TO.N,C0*%
X11965000Y-40322500D02*
X11965000Y-59372500D01*
X11965000Y-40322500D02*
X11965000Y-21272500D01*
X11965000Y-102235000D02*
X17561763Y-96638237D01*
X17561763Y-96638237D02*
X17561763Y-72330651D01*
X11965000Y-66733888D02*
X11965000Y-59372500D01*
X17561763Y-72330651D02*
X11965000Y-66733888D01*
%TO.N,C1*%
X31015000Y-40322500D02*
X31015000Y-21272500D01*
X31015000Y-40322500D02*
X31015000Y-59372500D01*
X31015000Y-59372500D02*
X31015000Y-83185000D01*
X31015000Y-83185000D02*
X31015000Y-102235000D01*
%TO.N,C2*%
X59590000Y-40322500D02*
X59590000Y-46493114D01*
X59590000Y-46493114D02*
X63103178Y-50006292D01*
X59590000Y-31014976D02*
X59590000Y-40322500D01*
X54827500Y-21272500D02*
X54827500Y-26252476D01*
X54827500Y-26252476D02*
X59590000Y-31014976D01*
X68072042Y-50006292D02*
X74898250Y-56832500D01*
X63103178Y-50006292D02*
X68072042Y-50006292D01*
X71378750Y-64452500D02*
X71378750Y-73777500D01*
X71378750Y-73777500D02*
X66733750Y-78422500D01*
X62992000Y-99695000D02*
X66733750Y-95953250D01*
X66733750Y-95953250D02*
X66733750Y-78422500D01*
%TO.N,C3*%
X92742548Y-88448881D02*
X94203969Y-86987460D01*
X79571200Y-35637560D02*
X73877568Y-29943927D01*
X73877568Y-29943927D02*
X73877568Y-21272520D01*
X81992560Y-35637560D02*
X79571200Y-35637560D01*
X83402500Y-37047500D02*
X81992560Y-35637560D01*
X83402500Y-40322500D02*
X83402500Y-37047500D01*
X88165000Y-68029491D02*
X88165000Y-59372500D01*
X93873069Y-73737560D02*
X88165000Y-68029491D01*
X96280060Y-73737560D02*
X93873069Y-73737560D01*
X97690000Y-75147500D02*
X96280060Y-73737560D01*
X97690000Y-78422500D02*
X97690000Y-75147500D01*
X84348069Y-55555569D02*
X88165000Y-59372500D01*
X84348069Y-54687560D02*
X84348069Y-55555569D01*
X82417528Y-52757019D02*
X84348069Y-54687560D01*
X83402500Y-49032531D02*
X82417528Y-50017503D01*
X82417528Y-50017503D02*
X82417528Y-52757019D01*
X83402500Y-40322500D02*
X83402500Y-49032531D01*
X97690000Y-86261717D02*
X96964257Y-86987460D01*
X97690000Y-78422500D02*
X97690000Y-86261717D01*
X94203969Y-86987460D02*
X96964257Y-86987460D01*
X92742548Y-91375702D02*
X89185750Y-94932500D01*
X92742548Y-88448881D02*
X92742548Y-91375702D01*
%TO.N,C4*%
X92342538Y-69233192D02*
X94038280Y-67537450D01*
X92342538Y-71641330D02*
X92342538Y-69233192D01*
X94038758Y-73337550D02*
X92342538Y-71641330D01*
X102130050Y-54287550D02*
X107215000Y-59372500D01*
X82817538Y-52591330D02*
X84513758Y-54287550D01*
X82817538Y-50183192D02*
X82817538Y-52591330D01*
X84513280Y-48487450D02*
X82817538Y-50183192D01*
X102126739Y-48487450D02*
X84513280Y-48487450D01*
X102452500Y-48161689D02*
X102126739Y-48487450D01*
X84513758Y-54287550D02*
X102130050Y-54287550D01*
X102452500Y-40322500D02*
X102452500Y-48161689D01*
X94369659Y-91770909D02*
X100071250Y-97472500D01*
X94369658Y-87387470D02*
X93142558Y-88614570D01*
X115367181Y-87387470D02*
X94369658Y-87387470D01*
X116740000Y-86014651D02*
X115367181Y-87387470D01*
X93142558Y-88614570D02*
X93142558Y-90543808D01*
X116740000Y-78422500D02*
X116740000Y-86014651D01*
X92927500Y-29210000D02*
X92927500Y-21272500D01*
X92700050Y-29437450D02*
X92927500Y-29210000D01*
X79736648Y-29437450D02*
X92700050Y-29437450D01*
X78041764Y-33542423D02*
X78041764Y-31132334D01*
X79736889Y-35237550D02*
X78041764Y-33542423D01*
X97367550Y-35237550D02*
X79736889Y-35237550D01*
X78041764Y-31132334D02*
X79736648Y-29437450D01*
X102452500Y-40322500D02*
X97367550Y-35237550D01*
X111655050Y-73337550D02*
X116740000Y-78422500D01*
X94038758Y-73337550D02*
X111655050Y-73337550D01*
X107215000Y-67283000D02*
X106960550Y-67537450D01*
X107215000Y-59372500D02*
X107215000Y-67283000D01*
X94038280Y-67537450D02*
X106960550Y-67537450D01*
X93142558Y-90543808D02*
X94369659Y-91770909D01*
%TO.N,C5*%
X120780040Y-53887540D02*
X126265000Y-59372500D01*
X84679447Y-53887540D02*
X120780040Y-53887540D01*
X83217548Y-52425641D02*
X84679447Y-53887540D01*
X83217548Y-50348881D02*
X83217548Y-52425641D01*
X84678969Y-48887460D02*
X83217548Y-50348881D01*
X121502500Y-48305293D02*
X120920333Y-48887460D01*
X121502500Y-40322500D02*
X121502500Y-48305293D01*
X120920333Y-48887460D02*
X84678969Y-48887460D01*
X119980020Y-91187520D02*
X126265000Y-97472500D01*
X93542568Y-88780259D02*
X93542568Y-90194740D01*
X94535347Y-87787480D02*
X93542568Y-88780259D01*
X123452201Y-87787480D02*
X94535347Y-87787480D01*
X94535348Y-91187520D02*
X119980020Y-91187520D01*
X125833451Y-85406230D02*
X123452201Y-87787480D01*
X93542568Y-90194740D02*
X94535348Y-91187520D01*
X134859580Y-85406230D02*
X125833451Y-85406230D01*
X135790136Y-84475674D02*
X134859580Y-85406230D01*
X135790136Y-78422568D02*
X135790136Y-84475674D01*
X111977500Y-29231420D02*
X111977500Y-21272500D01*
X79902337Y-29837460D02*
X111371460Y-29837460D01*
X111371460Y-29837460D02*
X111977500Y-29231420D01*
X78441774Y-33376734D02*
X78441774Y-31298023D01*
X78441774Y-31298023D02*
X79902337Y-29837460D01*
X116017540Y-34837540D02*
X79902578Y-34837540D01*
X79902578Y-34837540D02*
X78441774Y-33376734D01*
X121502500Y-40322500D02*
X116017540Y-34837540D01*
X130305108Y-72937540D02*
X135790136Y-78422568D01*
X94204447Y-72937540D02*
X130305108Y-72937540D01*
X92742548Y-71475641D02*
X94204447Y-72937540D01*
X92742548Y-69398881D02*
X92742548Y-71475641D01*
X94203969Y-67937460D02*
X92742548Y-69398881D01*
X126265000Y-67283000D02*
X125610540Y-67937460D01*
X126265000Y-59372500D02*
X126265000Y-67283000D01*
X125610540Y-67937460D02*
X94203969Y-67937460D01*
%TO.N,C6*%
X135524140Y-88406260D02*
X137905390Y-90787510D01*
X126413360Y-88406260D02*
X135524140Y-88406260D01*
X124032110Y-90787510D02*
X126413360Y-88406260D01*
X94701037Y-90787510D02*
X124032110Y-90787510D01*
X93942578Y-90029051D02*
X94701037Y-90787510D01*
X138319610Y-88187490D02*
X135938360Y-85806240D01*
X152192890Y-88187490D02*
X138319610Y-88187490D01*
X93942578Y-88945948D02*
X93942578Y-90029051D01*
X94701036Y-88187490D02*
X93942578Y-88945948D01*
X152607110Y-90787510D02*
X154988360Y-88406260D01*
X125999140Y-85806240D02*
X123617890Y-88187490D01*
X159336640Y-88406260D02*
X161717890Y-90787510D01*
X137905390Y-90787510D02*
X152607110Y-90787510D01*
X135938360Y-85806240D02*
X125999140Y-85806240D01*
X154988360Y-88406260D02*
X159336640Y-88406260D01*
X123617890Y-88187490D02*
X94701036Y-88187490D01*
X83617558Y-50514570D02*
X84844658Y-49287470D01*
X83617558Y-52259952D02*
X83617558Y-50514570D01*
X84845136Y-53487530D02*
X83617558Y-52259952D01*
X139430030Y-53487530D02*
X145315000Y-59372500D01*
X84845136Y-53487530D02*
X139430030Y-53487530D01*
X140552500Y-48161721D02*
X139426751Y-49287470D01*
X140552500Y-40322500D02*
X140552500Y-48161721D01*
X84844658Y-49287470D02*
X139426751Y-49287470D01*
X154840136Y-85540244D02*
X154840136Y-78422568D01*
X152192890Y-88187490D02*
X154840136Y-85540244D01*
X164823760Y-90787510D02*
X171508750Y-97472500D01*
X161717890Y-90787510D02*
X164823760Y-90787510D01*
X129932470Y-30237470D02*
X131027500Y-29142440D01*
X131027500Y-29142440D02*
X131027500Y-21272500D01*
X78841784Y-31463712D02*
X80068026Y-30237470D01*
X78841784Y-33211047D02*
X78841784Y-31463712D01*
X80068267Y-34437530D02*
X78841784Y-33211047D01*
X134667530Y-34437530D02*
X80068267Y-34437530D01*
X80068026Y-30237470D02*
X129932470Y-30237470D01*
X140552500Y-40322500D02*
X134667530Y-34437530D01*
X148955098Y-72537530D02*
X154840136Y-78422568D01*
X94370136Y-72537530D02*
X148955098Y-72537530D01*
X93142558Y-71309952D02*
X94370136Y-72537530D01*
X93142558Y-69564570D02*
X93142558Y-71309952D01*
X94369658Y-68337470D02*
X93142558Y-69564570D01*
X145315000Y-67305940D02*
X144283470Y-68337470D01*
X145315000Y-59372500D02*
X145315000Y-67305940D01*
X144283470Y-68337470D02*
X94369658Y-68337470D01*
%TO.N,C7*%
X159602500Y-48119426D02*
X159602500Y-40322500D01*
X158034446Y-49687480D02*
X159602500Y-48119426D01*
X85010347Y-49687480D02*
X158034446Y-49687480D01*
X84017568Y-52094263D02*
X84017568Y-50680259D01*
X84017568Y-50680259D02*
X85010347Y-49687480D01*
X85010825Y-53087520D02*
X84017568Y-52094263D01*
X158080020Y-53087520D02*
X85010825Y-53087520D01*
X164365000Y-59372500D02*
X158080020Y-53087520D01*
X150077500Y-29180460D02*
X150077500Y-21272500D01*
X148620480Y-30637480D02*
X150077500Y-29180460D01*
X80233715Y-30637480D02*
X148620480Y-30637480D01*
X79241794Y-31629401D02*
X80233715Y-30637480D01*
X79241794Y-33045358D02*
X79241794Y-31629401D01*
X80233956Y-34037520D02*
X79241794Y-33045358D01*
X153317520Y-34037520D02*
X80233956Y-34037520D01*
X159602500Y-40322500D02*
X153317520Y-34037520D01*
X167605020Y-72137520D02*
X173890000Y-78422500D01*
X93542568Y-69730259D02*
X93542568Y-71144263D01*
X94535347Y-68737480D02*
X93542568Y-69730259D01*
X93542568Y-71144263D02*
X94535825Y-72137520D01*
X94535825Y-72137520D02*
X167605020Y-72137520D01*
X164365000Y-67283000D02*
X162910520Y-68737480D01*
X164365000Y-59372500D02*
X164365000Y-67283000D01*
X162910520Y-68737480D02*
X94535347Y-68737480D01*
%TO.N,C8*%
X176730010Y-52687510D02*
X183415000Y-59372500D01*
X84417578Y-51928574D02*
X85176514Y-52687510D01*
X84417578Y-50845948D02*
X84417578Y-51928574D01*
X85176036Y-50087490D02*
X84417578Y-50845948D01*
X176726763Y-50087490D02*
X85176036Y-50087490D01*
X85176514Y-52687510D02*
X176730010Y-52687510D01*
X178652500Y-48161753D02*
X176726763Y-50087490D01*
X178652500Y-40322500D02*
X178652500Y-48161753D01*
X169127500Y-29119500D02*
X169127500Y-21272500D01*
X80399404Y-31037490D02*
X167209510Y-31037490D01*
X79641804Y-31795090D02*
X80399404Y-31037490D01*
X79641804Y-32879669D02*
X79641804Y-31795090D01*
X80399645Y-33637510D02*
X79641804Y-32879669D01*
X171967510Y-33637510D02*
X80399645Y-33637510D01*
X167209510Y-31037490D02*
X169127500Y-29119500D01*
X178652500Y-40322500D02*
X171967510Y-33637510D01*
X186255010Y-71737510D02*
X192940000Y-78422500D01*
X94701514Y-71737510D02*
X186255010Y-71737510D01*
X93942578Y-70978574D02*
X94701514Y-71737510D01*
X93942578Y-69895948D02*
X93942578Y-70978574D01*
X94701036Y-69137490D02*
X93942578Y-69895948D01*
X183415000Y-67254980D02*
X181532490Y-69137490D01*
X183415000Y-59372500D02*
X183415000Y-67254980D01*
X181532490Y-69137490D02*
X94701036Y-69137490D01*
%TO.N,C9*%
X291833195Y-51929669D02*
X291075354Y-52687510D01*
X291833195Y-50845090D02*
X291833195Y-51929669D01*
X291075595Y-50087490D02*
X291833195Y-50845090D01*
X209149990Y-52687510D02*
X202465000Y-59372500D01*
X199529990Y-50087490D02*
X291075595Y-50087490D01*
X197702500Y-48260000D02*
X199529990Y-50087490D01*
X291075354Y-52687510D02*
X209149990Y-52687510D01*
X197702500Y-40322500D02*
X197702500Y-48260000D01*
X188177500Y-29173500D02*
X188177500Y-21272500D01*
X190041490Y-31037490D02*
X188177500Y-29173500D01*
X291061463Y-31037490D02*
X190041490Y-31037490D01*
X291833195Y-31809222D02*
X291061463Y-31037490D01*
X291833195Y-32879669D02*
X291833195Y-31809222D01*
X291057864Y-33655000D02*
X291833195Y-32879669D01*
X204370000Y-33655000D02*
X291057864Y-33655000D01*
X197702500Y-40322500D02*
X204370000Y-33655000D01*
X218674990Y-71737510D02*
X211990000Y-78422500D01*
X286298485Y-71737510D02*
X218674990Y-71737510D01*
X287057421Y-70978574D02*
X286298485Y-71737510D01*
X287057421Y-69895948D02*
X287057421Y-70978574D01*
X286298963Y-69137490D02*
X287057421Y-69895948D01*
X204292490Y-69137490D02*
X286298963Y-69137490D01*
X202465000Y-67310000D02*
X204292490Y-69137490D01*
X202465000Y-59372500D02*
X202465000Y-67310000D01*
X233172880Y-90805000D02*
X230774140Y-88406260D01*
X245475860Y-88406260D02*
X243077120Y-90805000D01*
X216293740Y-90787510D02*
X209608750Y-97472500D01*
X249824140Y-88406260D02*
X245475860Y-88406260D01*
X252205390Y-90787510D02*
X249824140Y-88406260D01*
X224044610Y-90787510D02*
X216293740Y-90787510D01*
X243077120Y-90805000D02*
X233172880Y-90805000D01*
X287057421Y-90028574D02*
X286298485Y-90787510D01*
X287057421Y-88945948D02*
X287057421Y-90028574D01*
X211990000Y-78422500D02*
X211990000Y-86793400D01*
X230774140Y-88406260D02*
X226425860Y-88406260D01*
X245061640Y-85806240D02*
X250238360Y-85806240D01*
X211990000Y-86793400D02*
X213384090Y-88187490D01*
X213384090Y-88187490D02*
X223630390Y-88187490D01*
X223630390Y-88187490D02*
X226011640Y-85806240D01*
X233569610Y-88187490D02*
X242680390Y-88187490D01*
X226011640Y-85806240D02*
X231188360Y-85806240D01*
X231188360Y-85806240D02*
X233569610Y-88187490D01*
X286298485Y-90787510D02*
X252205390Y-90787510D01*
X242680390Y-88187490D02*
X245061640Y-85806240D01*
X250238360Y-85806240D02*
X252619610Y-88187490D01*
X252619610Y-88187490D02*
X286298963Y-88187490D01*
X226425860Y-88406260D02*
X224044610Y-90787510D01*
X286298963Y-88187490D02*
X287057421Y-88945948D01*
%TO.N,C10*%
X291241043Y-53087520D02*
X227799980Y-53087520D01*
X292233205Y-52095358D02*
X291241043Y-53087520D01*
X291241284Y-49687480D02*
X292233205Y-50679401D01*
X227799980Y-53087520D02*
X221515000Y-59372500D01*
X218216480Y-49687480D02*
X291241284Y-49687480D01*
X292233205Y-50679401D02*
X292233205Y-52095358D01*
X216752500Y-48223500D02*
X218216480Y-49687480D01*
X216752500Y-40322500D02*
X216752500Y-48223500D01*
X207227500Y-29173500D02*
X207227500Y-21272500D01*
X208691480Y-30637480D02*
X207227500Y-29173500D01*
X291227152Y-30637480D02*
X208691480Y-30637480D01*
X292233205Y-31643533D02*
X291227152Y-30637480D01*
X292233205Y-33045358D02*
X292233205Y-31643533D01*
X291223553Y-34055010D02*
X292233205Y-33045358D01*
X223019990Y-34055010D02*
X291223553Y-34055010D01*
X216752500Y-40322500D02*
X223019990Y-34055010D01*
X237324980Y-72137520D02*
X231040000Y-78422500D01*
X286464174Y-72137520D02*
X237324980Y-72137520D01*
X287457431Y-71144263D02*
X286464174Y-72137520D01*
X287457431Y-69730259D02*
X287457431Y-71144263D01*
X286464652Y-68737480D02*
X287457431Y-69730259D01*
X222915480Y-68737480D02*
X286464652Y-68737480D01*
X221515000Y-67337000D02*
X222915480Y-68737480D01*
X221515000Y-59372500D02*
X221515000Y-67337000D01*
%TO.N,C11*%
X246449970Y-53487530D02*
X240565000Y-59372500D01*
X292633215Y-52261047D02*
X291406732Y-53487530D01*
X292633215Y-50513712D02*
X292633215Y-52261047D01*
X291406973Y-49287470D02*
X292633215Y-50513712D01*
X236866470Y-49287470D02*
X291406973Y-49287470D01*
X235802500Y-48223500D02*
X236866470Y-49287470D01*
X291406732Y-53487530D02*
X246449970Y-53487530D01*
X235802500Y-40322500D02*
X235802500Y-48223500D01*
X226277500Y-29173500D02*
X226277500Y-21272500D01*
X227341470Y-30237470D02*
X226277500Y-29173500D01*
X291392841Y-30237470D02*
X227341470Y-30237470D01*
X292633215Y-31477844D02*
X291392841Y-30237470D01*
X292633215Y-33211047D02*
X292633215Y-31477844D01*
X291389242Y-34455020D02*
X292633215Y-33211047D01*
X241669980Y-34455020D02*
X291389242Y-34455020D01*
X235802500Y-40322500D02*
X241669980Y-34455020D01*
X286629863Y-72537530D02*
X255974970Y-72537530D01*
X287857441Y-71309952D02*
X286629863Y-72537530D01*
X287857441Y-69564570D02*
X287857441Y-71309952D01*
X286630341Y-68337470D02*
X287857441Y-69564570D01*
X241565470Y-68337470D02*
X286630341Y-68337470D01*
X255974970Y-72537530D02*
X250090000Y-78422500D01*
X240565000Y-67337000D02*
X241565470Y-68337470D01*
X240565000Y-59372500D02*
X240565000Y-67337000D01*
X259618230Y-91187520D02*
X255873250Y-94932500D01*
X287457431Y-90194263D02*
X286464174Y-91187520D01*
X286464652Y-87787480D02*
X287457431Y-88780259D01*
X286464174Y-91187520D02*
X259618230Y-91187520D01*
X252785298Y-87787480D02*
X286464652Y-87787480D01*
X287457431Y-88780259D02*
X287457431Y-90194263D01*
X250090000Y-85092182D02*
X252785298Y-87787480D01*
X250090000Y-78422500D02*
X250090000Y-85092182D01*
%TO.N,C12*%
X265099960Y-53887540D02*
X259615000Y-59372500D01*
X291572421Y-53887540D02*
X265099960Y-53887540D01*
X293033225Y-52426736D02*
X291572421Y-53887540D01*
X293033225Y-50348023D02*
X293033225Y-52426736D01*
X291572662Y-48887460D02*
X293033225Y-50348023D01*
X255461071Y-48887460D02*
X291572662Y-48887460D01*
X254852500Y-48278889D02*
X255461071Y-48887460D01*
X254852500Y-40322500D02*
X254852500Y-48278889D01*
X245327500Y-29173500D02*
X245327500Y-21272500D01*
X291558530Y-29837460D02*
X245991460Y-29837460D01*
X293033225Y-31312155D02*
X291558530Y-29837460D01*
X245991460Y-29837460D02*
X245327500Y-29173500D01*
X293033225Y-33376736D02*
X293033225Y-31312155D01*
X291554931Y-34855030D02*
X293033225Y-33376736D01*
X260319970Y-34855030D02*
X291554931Y-34855030D01*
X254852500Y-40322500D02*
X260319970Y-34855030D01*
X286795552Y-72937540D02*
X274624960Y-72937540D01*
X274624960Y-72937540D02*
X269140000Y-78422500D01*
X288257451Y-71475641D02*
X286795552Y-72937540D01*
X288257451Y-69398881D02*
X288257451Y-71475641D01*
X286796030Y-67937460D02*
X288257451Y-69398881D01*
X260215460Y-67937460D02*
X286796030Y-67937460D01*
X259615000Y-67337000D02*
X260215460Y-67937460D01*
X259615000Y-59372500D02*
X259615000Y-67337000D01*
X286629863Y-91587530D02*
X283030720Y-91587530D01*
X287857441Y-90359952D02*
X286629863Y-91587530D01*
X283030720Y-91587530D02*
X279685750Y-94932500D01*
X287857441Y-88614570D02*
X287857441Y-90359952D01*
X286630341Y-87387470D02*
X287857441Y-88614570D01*
X270165870Y-87387470D02*
X286630341Y-87387470D01*
X269140000Y-86361600D02*
X270165870Y-87387470D01*
X269140000Y-78422500D02*
X269140000Y-86361600D01*
%TO.N,C13*%
X283749950Y-54287550D02*
X278665000Y-59372500D01*
X291738351Y-48487450D02*
X293433235Y-50182334D01*
X274129950Y-48487450D02*
X291738351Y-48487450D01*
X293433235Y-50182334D02*
X293433235Y-52592425D01*
X273902500Y-48260000D02*
X274129950Y-48487450D01*
X291738110Y-54287550D02*
X283749950Y-54287550D01*
X293433235Y-52592425D02*
X291738110Y-54287550D01*
X273902500Y-40322500D02*
X273902500Y-48260000D01*
X278665000Y-67210000D02*
X278665000Y-59372500D01*
X278992450Y-67537450D02*
X278665000Y-67210000D01*
X288657461Y-69233192D02*
X286961719Y-67537450D01*
X286961719Y-67537450D02*
X278992450Y-67537450D01*
X288657461Y-71746211D02*
X295333750Y-78422500D01*
X288657461Y-69233192D02*
X288657461Y-71746211D01*
X295333750Y-92710000D02*
X290571250Y-97472500D01*
X295333750Y-78422500D02*
X295333750Y-92710000D01*
X264377500Y-29173500D02*
X264377500Y-21272500D01*
X264641450Y-29437450D02*
X264377500Y-29173500D01*
X291724219Y-29437450D02*
X264641450Y-29437450D01*
X293433235Y-33542425D02*
X293433235Y-31146466D01*
X293433235Y-31146466D02*
X291724219Y-29437450D01*
X291720620Y-35255040D02*
X293433235Y-33542425D01*
X278969960Y-35255040D02*
X291720620Y-35255040D01*
X273902500Y-40322500D02*
X278969960Y-35255040D01*
%TO.N,C14*%
X49530000Y-38323106D02*
X56753553Y-31099553D01*
X49530000Y-42926000D02*
X49530000Y-38323106D01*
X292952500Y-34588858D02*
X293833245Y-33708114D01*
X292952500Y-40322500D02*
X292952500Y-34588858D01*
X293833245Y-30980777D02*
X291889908Y-29037440D01*
X293833245Y-33708114D02*
X293833245Y-30980777D01*
X291889908Y-29037440D02*
X284434440Y-29037440D01*
X283427500Y-28030500D02*
X283427500Y-21272500D01*
X284434440Y-29037440D02*
X283427500Y-28030500D01*
X298093013Y-59372500D02*
X309621250Y-59372500D01*
X293833245Y-50016645D02*
X293833245Y-55112732D01*
X292952500Y-49135901D02*
X293833245Y-50016645D01*
X293833245Y-55112732D02*
X298093013Y-59372500D01*
X292952500Y-40322500D02*
X292952500Y-49135901D01*
X309621250Y-66516250D02*
X321527500Y-78422500D01*
X309621250Y-59372500D02*
X309621250Y-66516250D01*
X321527500Y-78422500D02*
X321527500Y-85071279D01*
X316765000Y-89833779D02*
X316765000Y-97472500D01*
X321527500Y-85071279D02*
X316765000Y-89833779D01*
%TO.N,C15*%
X48930000Y-38074577D02*
X56745820Y-30258757D01*
X48930000Y-43459066D02*
X48930000Y-38074577D01*
X316765000Y-34898000D02*
X322770500Y-28892500D01*
X316765000Y-40322500D02*
X316765000Y-34898000D01*
%TO.N,R0*%
X48330000Y-42925299D02*
X48330000Y-27883000D01*
X48330000Y-27883000D02*
X48330000Y-27883000D01*
%TO.N,R1*%
X51404212Y-46893788D02*
X46482000Y-51816000D01*
X57249643Y-46893788D02*
X51404212Y-46893788D01*
%TO.N,R3*%
X49275040Y-88837576D02*
X49275040Y-70803460D01*
X49275040Y-70803460D02*
X49275040Y-70803460D01*
%TO.N,R2*%
X47191521Y-65943912D02*
X51196109Y-69948500D01*
X80393811Y-69948500D02*
X79222600Y-69948500D01*
X84398507Y-65943804D02*
X80393811Y-69948500D01*
X51196109Y-69948500D02*
X52641500Y-69948500D01*
%TO.N,R4*%
X54416806Y-85915500D02*
X49875040Y-81373734D01*
X49875040Y-71340181D02*
X49875040Y-81373734D01*
%TO.N,Net-(D75-Pad2)*%
X11394879Y-77306907D02*
X11394879Y-88022559D01*
%TD*%
M02*
