M48
; DRILL file {KiCad (5.1.11)-1} date 11/09/22 22:12:32
; FORMAT={-:-/ absolute / metric / decimal}
; #@! TF.CreationDate,2022-11-09T22:12:32+07:00
; #@! TF.GenerationSoftware,Kicad,Pcbnew,(5.1.11)-1
; #@! TF.FileFunction,NonPlated,1,2,NPTH
FMAT,2
METRIC
T1C0.650
T2C1.702
T3C2.000
T4C3.048
T5C3.988
T6C4.500
T7C10.000
%
G90
G05
T1
X288.86Y-3.95
X294.64Y-3.95
T2
X5.425Y-10.505
X7.474Y-48.525
X7.801Y-67.535
X7.801Y-86.545
X10.178Y-29.515
X10.178Y-86.545
X12.554Y-48.525
X15.585Y-10.505
X17.306Y-67.535
X17.634Y-48.525
X17.961Y-67.535
X17.961Y-86.545
X20.337Y-29.515
X20.337Y-86.545
X22.714Y-48.525
X24.435Y-10.505
X27.466Y-67.535
X29.188Y-67.535
X29.188Y-86.545
X31.564Y-86.545
X33.94Y-29.515
X33.94Y-86.545
X34.595Y-10.505
X38.692Y-48.525
X39.347Y-67.535
X39.347Y-86.545
X41.724Y-86.545
X43.445Y-10.505
X44.1Y-29.515
X44.1Y-86.545
X48.197Y-67.535
X48.852Y-48.525
X50.574Y-86.545
X52.95Y-29.515
X53.605Y-10.505
X55.326Y-86.545
X57.703Y-48.525
X57.703Y-86.545
X58.357Y-67.535
X60.734Y-86.545
X62.455Y-10.505
X63.11Y-29.515
X65.486Y-86.545
X67.207Y-67.535
X67.862Y-48.525
X67.862Y-86.545
X71.96Y-29.515
X72.615Y-10.505
X76.712Y-48.525
X77.367Y-67.535
X81.465Y-10.505
X82.12Y-29.515
X86.218Y-67.535
X86.873Y-48.525
X90.97Y-29.515
X91.625Y-10.505
X95.722Y-48.525
X96.377Y-67.535
X100.475Y-10.505
X101.13Y-29.515
X105.227Y-67.535
X105.882Y-48.525
X109.98Y-29.515
X110.635Y-10.505
X114.733Y-48.525
X115.387Y-67.535
X119.485Y-10.505
X120.14Y-29.515
X121.861Y-86.545
X124.237Y-67.535
X124.892Y-48.525
X126.613Y-86.545
X128.99Y-29.515
X129.645Y-10.505
X132.021Y-86.545
X133.742Y-86.545
X133.743Y-48.525
X134.398Y-67.535
X136.773Y-86.545
X138.495Y-86.545
X138.495Y-10.505
X139.15Y-29.515
X143.248Y-67.535
X143.902Y-86.545
X143.903Y-48.525
X148.0Y-29.515
X148.655Y-86.545
X148.655Y-10.505
X152.752Y-48.525
X153.407Y-67.535
X157.505Y-10.505
X158.16Y-29.515
X162.257Y-67.535
X162.912Y-48.525
X167.01Y-29.515
X167.665Y-10.505
X171.762Y-48.525
X172.417Y-67.535
X176.515Y-10.505
X177.17Y-29.515
X181.267Y-67.535
X181.922Y-48.525
X186.02Y-29.515
X186.675Y-10.505
X190.772Y-48.525
X191.427Y-67.535
X193.199Y-86.545
X195.525Y-10.505
X196.18Y-29.515
X197.951Y-86.545
X200.278Y-67.535
X200.933Y-48.525
X203.359Y-86.545
X205.03Y-29.515
X205.685Y-10.505
X208.111Y-86.545
X209.782Y-48.525
X210.438Y-67.535
X214.535Y-10.505
X214.635Y-86.545
X215.19Y-29.515
X217.011Y-86.545
X219.287Y-67.535
X219.388Y-86.545
X219.942Y-48.525
X221.763Y-86.545
X224.04Y-29.515
X224.695Y-10.505
X224.795Y-86.545
X227.171Y-86.545
X228.792Y-48.525
X229.447Y-67.535
X229.548Y-86.545
X231.923Y-86.545
X233.545Y-10.505
X234.2Y-29.515
X238.297Y-67.535
X238.952Y-48.525
X240.824Y-86.545
X243.05Y-29.515
X243.2Y-86.545
X243.705Y-10.505
X247.802Y-48.525
X248.457Y-67.535
X250.179Y-67.535
X250.984Y-86.545
X252.555Y-10.505
X253.21Y-29.515
X253.36Y-86.545
X257.962Y-48.525
X259.684Y-48.525
X259.934Y-67.535
X260.339Y-67.535
X262.06Y-10.505
X262.26Y-86.545
X262.715Y-10.505
X266.812Y-29.515
X269.844Y-48.525
X270.094Y-67.535
X271.565Y-10.505
X272.22Y-10.505
X272.42Y-86.545
X274.269Y-33.94
X274.269Y-44.1
X276.972Y-29.515
X281.32Y-67.535
X281.32Y-86.545
X281.725Y-10.505
X291.48Y-67.535
X291.48Y-86.545
X300.38Y-10.505
X300.38Y-29.515
X300.38Y-86.545
X310.54Y-10.505
X310.54Y-29.515
X310.54Y-86.545
T4
X10.448Y-60.55
X34.324Y-60.55
X76.903Y-93.53
X81.655Y-93.53
X81.672Y-93.53
X86.425Y-93.53
X176.979Y-93.53
X181.731Y-93.53
X195.972Y-93.53
X200.725Y-93.53
X243.321Y-60.55
X252.826Y-41.54
X255.202Y-3.52
X267.197Y-60.55
X276.702Y-41.54
X279.078Y-3.52
X281.254Y-27.082
X281.254Y-50.958
T5
X10.448Y-75.79
X10.505Y-10.505
X12.554Y-48.525
X12.881Y-67.535
X12.881Y-86.545
X15.257Y-29.515
X15.257Y-86.545
X17.634Y-48.525
X22.386Y-67.535
X29.515Y-10.505
X34.267Y-67.535
X34.267Y-86.545
X34.324Y-75.79
X36.644Y-86.545
X39.02Y-29.515
X39.02Y-86.545
X43.773Y-48.525
X48.525Y-10.505
X53.277Y-67.535
X55.654Y-86.545
X58.03Y-29.515
X60.406Y-86.545
X62.782Y-48.525
X62.782Y-86.545
X67.535Y-10.505
X72.287Y-67.535
X76.903Y-78.29
X77.04Y-29.515
X81.655Y-78.29
X81.672Y-78.29
X81.792Y-48.525
X86.425Y-78.29
X86.545Y-10.505
X91.297Y-67.535
X96.05Y-29.515
X100.802Y-48.525
X105.555Y-10.505
X110.307Y-67.535
X115.06Y-29.515
X119.812Y-48.525
X124.565Y-10.505
X126.941Y-86.545
X129.317Y-67.535
X131.694Y-86.545
X134.07Y-29.515
X138.822Y-86.545
X138.822Y-48.525
X143.575Y-86.545
X143.575Y-10.505
X148.327Y-67.535
X153.08Y-29.515
X157.832Y-48.525
X162.585Y-10.505
X167.338Y-67.535
X172.09Y-29.515
X176.843Y-48.525
X176.979Y-78.29
X181.595Y-10.505
X181.731Y-78.29
X186.347Y-67.535
X191.1Y-29.515
X195.852Y-48.525
X195.972Y-78.29
X198.279Y-86.545
X200.605Y-10.505
X200.725Y-78.29
X203.031Y-86.545
X205.357Y-67.535
X210.11Y-29.515
X214.862Y-48.525
X219.615Y-10.505
X219.715Y-86.545
X222.091Y-86.545
X224.367Y-67.535
X224.468Y-86.545
X226.843Y-86.545
X229.12Y-29.515
X233.873Y-48.525
X238.625Y-10.505
X243.321Y-75.79
X243.377Y-67.535
X245.904Y-86.545
X248.13Y-29.515
X248.28Y-86.545
X252.826Y-56.78
X252.882Y-48.525
X255.202Y-18.76
X255.259Y-67.535
X257.635Y-10.505
X264.764Y-48.525
X265.014Y-67.535
X266.014Y-27.082
X266.014Y-50.958
X267.14Y-10.505
X267.197Y-75.79
X267.34Y-86.545
X271.892Y-29.515
X274.269Y-39.02
X276.645Y-10.505
X276.702Y-56.78
X279.078Y-18.76
X286.4Y-67.535
X286.4Y-86.545
X305.46Y-10.505
X305.46Y-29.515
X305.46Y-86.545
T6
X110.308Y-48.525
X205.358Y-48.525
T7
X291.577Y-46.44
T3
G00X18.755Y-8.755
M15
G01X18.755Y-12.255
M16
G05
G00X21.131Y-84.795
M15
G01X21.131Y-88.295
M16
G05
G00X80.537Y-65.785
M15
G01X80.537Y-69.285
M16
G05
G00X85.29Y-27.765
M15
G01X85.29Y-31.265
M16
G05
G00X149.582Y-46.775
M15
G01X149.582Y-50.275
M16
G05
G00X218.36Y-27.765
M15
G01X218.36Y-31.265
M16
G05
G00X232.617Y-65.785
M15
G01X232.617Y-69.285
M16
G05
G00X297.21Y-84.795
M15
G01X297.21Y-88.295
M16
G05
T0
M30
