%TF.GenerationSoftware,KiCad,Pcbnew,(5.1.11)-1*%
%TF.CreationDate,2022-11-09T22:12:29+07:00*%
%TF.ProjectId,Leopold Replacement,4c656f70-6f6c-4642-9052-65706c616365,rev?*%
%TF.SameCoordinates,Original*%
%TF.FileFunction,Soldermask,Bot*%
%TF.FilePolarity,Negative*%
%FSLAX46Y46*%
G04 Gerber Fmt 4.6, Leading zero omitted, Abs format (unit mm)*
G04 Created by KiCad (PCBNEW (5.1.11)-1) date 2022-11-09 22:12:29*
%MOMM*%
%LPD*%
G01*
G04 APERTURE LIST*
%ADD10R,0.600000X1.450000*%
%ADD11R,0.300000X1.450000*%
%ADD12C,0.650000*%
%ADD13O,1.000000X2.100000*%
%ADD14O,1.000000X1.600000*%
%ADD15R,0.950000X0.800000*%
%ADD16C,2.250000*%
%ADD17C,3.987800*%
%ADD18C,1.701800*%
%ADD19C,3.048000*%
%ADD20R,1.300000X0.700000*%
%ADD21C,1.905000*%
%ADD22R,1.200000X0.900000*%
%ADD23R,0.900000X1.200000*%
%ADD24C,2.000000*%
%ADD25O,2.000000X3.200000*%
%ADD26R,0.700000X1.300000*%
%ADD27R,0.750000X0.800000*%
%ADD28R,1.900000X0.400000*%
%ADD29C,4.500000*%
%ADD30R,0.700000X0.600000*%
%ADD31R,0.700000X1.000000*%
%ADD32O,2.000000X5.500000*%
%ADD33O,3.000000X6.500000*%
%ADD34C,10.000000*%
%ADD35R,1.100000X1.800000*%
%ADD36R,5.150000X5.150000*%
%ADD37R,0.800000X0.750000*%
G04 APERTURE END LIST*
D10*
%TO.C,USB1*%
X294975000Y-5395000D03*
X288525000Y-5395000D03*
X294200000Y-5395000D03*
X289300000Y-5395000D03*
D11*
X290000000Y-5395000D03*
X293500000Y-5395000D03*
X290500000Y-5395000D03*
X293000000Y-5395000D03*
X291000000Y-5395000D03*
X292500000Y-5395000D03*
X292000000Y-5395000D03*
X291500000Y-5395000D03*
D12*
X294640000Y-3950000D03*
X288860000Y-3950000D03*
D13*
X287430000Y-4480000D03*
X296070000Y-4480000D03*
D14*
X287430000Y-300000D03*
X296070000Y-300000D03*
%TD*%
D15*
%TO.C,R11*%
X286060000Y-12780000D03*
X286060000Y-11130000D03*
%TD*%
%TO.C,R10*%
X284560000Y-11130000D03*
X284560000Y-12780000D03*
%TD*%
D16*
%TO.C,MX95*%
X217214750Y-91045000D03*
X222214750Y-90545000D03*
%TD*%
D17*
%TO.C,MX96*%
X224468250Y-86545000D03*
D18*
X229548250Y-86545000D03*
X219388250Y-86545000D03*
G36*
G01*
X229381951Y-89787810D02*
X228173027Y-91685440D01*
G75*
G02*
X226447163Y-92068054I-1054239J671625D01*
G01*
X226447163Y-92068054D01*
G75*
G02*
X226064549Y-90342190I671625J1054239D01*
G01*
X227273473Y-88444560D01*
G75*
G02*
X228999337Y-88061946I1054239J-671625D01*
G01*
X228999337Y-88061946D01*
G75*
G02*
X229381951Y-89787810I-671625J-1054239D01*
G01*
G37*
G36*
G01*
X223215079Y-91130691D02*
X223175631Y-91709347D01*
G75*
G02*
X221843507Y-92871433I-1247105J85019D01*
G01*
X221843507Y-92871433D01*
G75*
G02*
X220681421Y-91539309I85019J1247105D01*
G01*
X220720869Y-90960653D01*
G75*
G02*
X222052993Y-89798567I1247105J-85019D01*
G01*
X222052993Y-89798567D01*
G75*
G02*
X223215079Y-91130691I-85019J-1247105D01*
G01*
G37*
%TD*%
D17*
%TO.C,MX52*%
X255259000Y-67535000D03*
D18*
X250179000Y-67535000D03*
X260339000Y-67535000D03*
D19*
X243321000Y-60550000D03*
X267197000Y-60550000D03*
D17*
X243321000Y-75790000D03*
X267197000Y-75790000D03*
G36*
G01*
X250345299Y-64292190D02*
X251554223Y-62394560D01*
G75*
G02*
X253280087Y-62011946I1054239J-671625D01*
G01*
X253280087Y-62011946D01*
G75*
G02*
X253662701Y-63737810I-671625J-1054239D01*
G01*
X252453777Y-65635440D01*
G75*
G02*
X250727913Y-66018054I-1054239J671625D01*
G01*
X250727913Y-66018054D01*
G75*
G02*
X250345299Y-64292190I671625J1054239D01*
G01*
G37*
G36*
G01*
X256512171Y-62949309D02*
X256551619Y-62370653D01*
G75*
G02*
X257883743Y-61208567I1247105J-85019D01*
G01*
X257883743Y-61208567D01*
G75*
G02*
X259045829Y-62540691I-85019J-1247105D01*
G01*
X259006381Y-63119347D01*
G75*
G02*
X257674257Y-64281433I-1247105J85019D01*
G01*
X257674257Y-64281433D01*
G75*
G02*
X256512171Y-62949309I85019J1247105D01*
G01*
G37*
%TD*%
%TO.C,MX35*%
X176842500Y-48525000D03*
D18*
X171762500Y-48525000D03*
X181922500Y-48525000D03*
G36*
G01*
X171928799Y-45282190D02*
X173137723Y-43384560D01*
G75*
G02*
X174863587Y-43001946I1054239J-671625D01*
G01*
X174863587Y-43001946D01*
G75*
G02*
X175246201Y-44727810I-671625J-1054239D01*
G01*
X174037277Y-46625440D01*
G75*
G02*
X172311413Y-47008054I-1054239J671625D01*
G01*
X172311413Y-47008054D01*
G75*
G02*
X171928799Y-45282190I671625J1054239D01*
G01*
G37*
G36*
G01*
X178095671Y-43939309D02*
X178135119Y-43360653D01*
G75*
G02*
X179467243Y-42198567I1247105J-85019D01*
G01*
X179467243Y-42198567D01*
G75*
G02*
X180629329Y-43530691I-85019J-1247105D01*
G01*
X180589881Y-44109347D01*
G75*
G02*
X179257757Y-45271433I-1247105J85019D01*
G01*
X179257757Y-45271433D01*
G75*
G02*
X178095671Y-43939309I85019J1247105D01*
G01*
G37*
%TD*%
D15*
%TO.C,R4*%
X291704840Y-25964220D03*
X291704840Y-27614220D03*
%TD*%
%TO.C,R3*%
X293304840Y-25964220D03*
X293304840Y-27614220D03*
%TD*%
D20*
%TO.C,R9*%
X289918892Y-27739220D03*
X289918892Y-25839220D03*
%TD*%
D21*
%TO.C,D72*%
X292472500Y-20010000D03*
X289932500Y-20010000D03*
%TD*%
%TO.C,MX29*%
G36*
G01*
X144828171Y-5919309D02*
X144867619Y-5340653D01*
G75*
G02*
X146199743Y-4178567I1247105J-85019D01*
G01*
X146199743Y-4178567D01*
G75*
G02*
X147361829Y-5510691I-85019J-1247105D01*
G01*
X147322381Y-6089347D01*
G75*
G02*
X145990257Y-7251433I-1247105J85019D01*
G01*
X145990257Y-7251433D01*
G75*
G02*
X144828171Y-5919309I85019J1247105D01*
G01*
G37*
G36*
G01*
X138661299Y-7262190D02*
X139870223Y-5364560D01*
G75*
G02*
X141596087Y-4981946I1054239J-671625D01*
G01*
X141596087Y-4981946D01*
G75*
G02*
X141978701Y-6707810I-671625J-1054239D01*
G01*
X140769777Y-8605440D01*
G75*
G02*
X139043913Y-8988054I-1054239J671625D01*
G01*
X139043913Y-8988054D01*
G75*
G02*
X138661299Y-7262190I671625J1054239D01*
G01*
G37*
D18*
X148655000Y-10505000D03*
X138495000Y-10505000D03*
D17*
X143575000Y-10505000D03*
%TD*%
D22*
%TO.C,D46*%
X238720932Y-28115800D03*
X238720932Y-31415800D03*
%TD*%
%TO.C,D42*%
X202120932Y-28115800D03*
X202120932Y-31415800D03*
%TD*%
%TO.C,D38*%
X199120932Y-28115800D03*
X199120932Y-31415800D03*
%TD*%
%TO.C,D34*%
X181570932Y-28115800D03*
X181570932Y-31415800D03*
%TD*%
%TO.C,D30*%
X162520932Y-28115800D03*
X162520932Y-31415800D03*
%TD*%
%TO.C,D26*%
X143470932Y-28115800D03*
X143470932Y-31415800D03*
%TD*%
%TO.C,D22*%
X124420932Y-28115800D03*
X124420932Y-31415800D03*
%TD*%
%TO.C,D18*%
X105370932Y-28115800D03*
X105370932Y-31415800D03*
%TD*%
%TO.C,D14*%
X69056656Y-27818142D03*
X69056656Y-31118142D03*
%TD*%
%TO.C,D10*%
X66080076Y-27818142D03*
X66080076Y-31118142D03*
%TD*%
%TO.C,D6*%
X48220596Y-27818142D03*
X48220596Y-31118142D03*
%TD*%
%TO.C,D2*%
X26789220Y-27818142D03*
X26789220Y-31118142D03*
%TD*%
%TO.C,D50*%
X257176512Y-27818142D03*
X257176512Y-31118142D03*
%TD*%
%TO.C,D51*%
X244674876Y-46868254D03*
X244674876Y-50168254D03*
%TD*%
D23*
%TO.C,D61*%
X249896772Y-14585242D03*
X246596772Y-14585242D03*
%TD*%
D22*
%TO.C,D62*%
X261939040Y-27818142D03*
X261939040Y-31118142D03*
%TD*%
%TO.C,MX51*%
G36*
G01*
X266017171Y-43939309D02*
X266056619Y-43360653D01*
G75*
G02*
X267388743Y-42198567I1247105J-85019D01*
G01*
X267388743Y-42198567D01*
G75*
G02*
X268550829Y-43530691I-85019J-1247105D01*
G01*
X268511381Y-44109347D01*
G75*
G02*
X267179257Y-45271433I-1247105J85019D01*
G01*
X267179257Y-45271433D01*
G75*
G02*
X266017171Y-43939309I85019J1247105D01*
G01*
G37*
G36*
G01*
X259850299Y-45282190D02*
X261059223Y-43384560D01*
G75*
G02*
X262785087Y-43001946I1054239J-671625D01*
G01*
X262785087Y-43001946D01*
G75*
G02*
X263167701Y-44727810I-671625J-1054239D01*
G01*
X261958777Y-46625440D01*
G75*
G02*
X260232913Y-47008054I-1054239J671625D01*
G01*
X260232913Y-47008054D01*
G75*
G02*
X259850299Y-45282190I671625J1054239D01*
G01*
G37*
D17*
X276702000Y-56780000D03*
X252826000Y-56780000D03*
D19*
X276702000Y-41540000D03*
X252826000Y-41540000D03*
D18*
X269844000Y-48525000D03*
X259684000Y-48525000D03*
D17*
X264764000Y-48525000D03*
%TD*%
D24*
%TO.C,SW3*%
X307960000Y-22515000D03*
X302960000Y-22515000D03*
D25*
X311060000Y-29515000D03*
X299860000Y-29515000D03*
D24*
X307960000Y-37015000D03*
X305460000Y-37015000D03*
X302960000Y-37015000D03*
%TD*%
%TO.C,SW2*%
X302960000Y-18005000D03*
X305460000Y-18005000D03*
X307960000Y-18005000D03*
D25*
X299860000Y-10505000D03*
X311060000Y-10505000D03*
D24*
X302960000Y-3505000D03*
X307960000Y-3505000D03*
%TD*%
D26*
%TO.C,R7*%
X312002610Y-38993198D03*
X310102610Y-38993198D03*
%TD*%
D20*
%TO.C,R2*%
X297062684Y-22976692D03*
X297062684Y-21076692D03*
%TD*%
%TO.C,R1*%
X297062684Y-19702454D03*
X297062684Y-17802454D03*
%TD*%
D27*
%TO.C,C8*%
X311945584Y-35564276D03*
X311945584Y-37064276D03*
%TD*%
%TO.C,C3*%
X298848632Y-21276692D03*
X298848632Y-22776692D03*
%TD*%
%TO.C,C2*%
X298848632Y-18002454D03*
X298848632Y-19502454D03*
%TD*%
%TO.C,C6*%
X302718186Y-54614388D03*
X302718186Y-56114388D03*
%TD*%
D22*
%TO.C,D3*%
X33934244Y-46868254D03*
X33934244Y-50168254D03*
%TD*%
%TO.C,D7*%
X52984244Y-46868254D03*
X52984244Y-50168254D03*
%TD*%
%TO.C,D43*%
X224434244Y-46868254D03*
X224434244Y-50168254D03*
%TD*%
%TO.C,D31*%
X167284244Y-46868254D03*
X167284244Y-50168254D03*
%TD*%
%TO.C,D27*%
X130684244Y-46868254D03*
X130684244Y-50168254D03*
%TD*%
%TO.C,D11*%
X72034244Y-46868254D03*
X72034244Y-50168254D03*
%TD*%
%TO.C,D23*%
X127684244Y-46868254D03*
X127684244Y-50168254D03*
%TD*%
%TO.C,D35*%
X184834244Y-46868254D03*
X184834244Y-50168254D03*
%TD*%
%TO.C,D15*%
X89584244Y-46868254D03*
X89584244Y-50168254D03*
%TD*%
%TO.C,D39*%
X187834244Y-46868254D03*
X187834244Y-50168254D03*
%TD*%
%TO.C,D47*%
X241995954Y-46868254D03*
X241995954Y-50168254D03*
%TD*%
%TO.C,D19*%
X92584244Y-46868254D03*
X92584244Y-50168254D03*
%TD*%
D28*
%TO.C,Y1*%
X309718186Y-61057760D03*
X309718186Y-62257760D03*
X309718186Y-63457760D03*
%TD*%
D17*
%TO.C,MX94*%
X200724750Y-78290000D03*
X86424750Y-78290000D03*
D19*
X86424750Y-93530000D03*
X200724750Y-93530000D03*
G36*
G01*
X144827921Y-81959309D02*
X144867369Y-81380653D01*
G75*
G02*
X146199493Y-80218567I1247105J-85019D01*
G01*
X146199493Y-80218567D01*
G75*
G02*
X147361579Y-81550691I-85019J-1247105D01*
G01*
X147322131Y-82129347D01*
G75*
G02*
X145990007Y-83291433I-1247105J85019D01*
G01*
X145990007Y-83291433D01*
G75*
G02*
X144827921Y-81959309I85019J1247105D01*
G01*
G37*
G36*
G01*
X138661049Y-83302190D02*
X139869973Y-81404560D01*
G75*
G02*
X141595837Y-81021946I1054239J-671625D01*
G01*
X141595837Y-81021946D01*
G75*
G02*
X141978451Y-82747810I-671625J-1054239D01*
G01*
X140769527Y-84645440D01*
G75*
G02*
X139043663Y-85028054I-1054239J671625D01*
G01*
X139043663Y-85028054D01*
G75*
G02*
X138661049Y-83302190I671625J1054239D01*
G01*
G37*
D18*
X148654750Y-86545000D03*
X138494750Y-86545000D03*
D17*
X143574750Y-86545000D03*
%TD*%
D16*
%TO.C,MX92*%
X64934750Y-91045000D03*
X69934750Y-90545000D03*
%TD*%
%TO.C,MX90*%
X38750000Y-91045000D03*
X43750000Y-90545000D03*
%TD*%
%TO.C,MX93*%
G36*
G01*
X61529329Y-91130691D02*
X61489881Y-91709347D01*
G75*
G02*
X60157757Y-92871433I-1247105J85019D01*
G01*
X60157757Y-92871433D01*
G75*
G02*
X58995671Y-91539309I85019J1247105D01*
G01*
X59035119Y-90960653D01*
G75*
G02*
X60367243Y-89798567I1247105J-85019D01*
G01*
X60367243Y-89798567D01*
G75*
G02*
X61529329Y-91130691I-85019J-1247105D01*
G01*
G37*
G36*
G01*
X67696201Y-89787810D02*
X66487277Y-91685440D01*
G75*
G02*
X64761413Y-92068054I-1054239J671625D01*
G01*
X64761413Y-92068054D01*
G75*
G02*
X64378799Y-90342190I671625J1054239D01*
G01*
X65587723Y-88444560D01*
G75*
G02*
X67313587Y-88061946I1054239J-671625D01*
G01*
X67313587Y-88061946D01*
G75*
G02*
X67696201Y-89787810I-671625J-1054239D01*
G01*
G37*
D18*
X57702500Y-86545000D03*
X67862500Y-86545000D03*
D17*
X62782500Y-86545000D03*
%TD*%
%TO.C,MX91*%
X39020000Y-86545000D03*
D18*
X44100000Y-86545000D03*
X33940000Y-86545000D03*
G36*
G01*
X43933701Y-89787810D02*
X42724777Y-91685440D01*
G75*
G02*
X40998913Y-92068054I-1054239J671625D01*
G01*
X40998913Y-92068054D01*
G75*
G02*
X40616299Y-90342190I671625J1054239D01*
G01*
X41825223Y-88444560D01*
G75*
G02*
X43551087Y-88061946I1054239J-671625D01*
G01*
X43551087Y-88061946D01*
G75*
G02*
X43933701Y-89787810I-671625J-1054239D01*
G01*
G37*
G36*
G01*
X37766829Y-91130691D02*
X37727381Y-91709347D01*
G75*
G02*
X36395257Y-92871433I-1247105J85019D01*
G01*
X36395257Y-92871433D01*
G75*
G02*
X35233171Y-91539309I85019J1247105D01*
G01*
X35272619Y-90960653D01*
G75*
G02*
X36604743Y-89798567I1247105J-85019D01*
G01*
X36604743Y-89798567D01*
G75*
G02*
X37766829Y-91130691I-85019J-1247105D01*
G01*
G37*
%TD*%
D22*
%TO.C,D44*%
X213717367Y-65885000D03*
X213717367Y-69185000D03*
%TD*%
%TO.C,D40*%
X194707367Y-65885000D03*
X194707367Y-69185000D03*
%TD*%
%TO.C,MX89*%
G36*
G01*
X244630671Y-62949309D02*
X244670119Y-62370653D01*
G75*
G02*
X246002243Y-61208567I1247105J-85019D01*
G01*
X246002243Y-61208567D01*
G75*
G02*
X247164329Y-62540691I-85019J-1247105D01*
G01*
X247124881Y-63119347D01*
G75*
G02*
X245792757Y-64281433I-1247105J85019D01*
G01*
X245792757Y-64281433D01*
G75*
G02*
X244630671Y-62949309I85019J1247105D01*
G01*
G37*
G36*
G01*
X238463799Y-64292190D02*
X239672723Y-62394560D01*
G75*
G02*
X241398587Y-62011946I1054239J-671625D01*
G01*
X241398587Y-62011946D01*
G75*
G02*
X241781201Y-63737810I-671625J-1054239D01*
G01*
X240572277Y-65635440D01*
G75*
G02*
X238846413Y-66018054I-1054239J671625D01*
G01*
X238846413Y-66018054D01*
G75*
G02*
X238463799Y-64292190I671625J1054239D01*
G01*
G37*
D18*
X248457500Y-67535000D03*
X238297500Y-67535000D03*
D17*
X243377500Y-67535000D03*
%TD*%
%TO.C,MX64*%
X274269000Y-39020000D03*
D18*
X274269000Y-33940000D03*
X274269000Y-44100000D03*
D19*
X281254000Y-27082000D03*
X281254000Y-50958000D03*
D17*
X266014000Y-27082000D03*
X266014000Y-50958000D03*
G36*
G01*
X277511810Y-34106299D02*
X279409440Y-35315223D01*
G75*
G02*
X279792054Y-37041087I-671625J-1054239D01*
G01*
X279792054Y-37041087D01*
G75*
G02*
X278066190Y-37423701I-1054239J671625D01*
G01*
X276168560Y-36214777D01*
G75*
G02*
X275785946Y-34488913I671625J1054239D01*
G01*
X275785946Y-34488913D01*
G75*
G02*
X277511810Y-34106299I1054239J-671625D01*
G01*
G37*
G36*
G01*
X278854691Y-40273171D02*
X279433347Y-40312619D01*
G75*
G02*
X280595433Y-41644743I-85019J-1247105D01*
G01*
X280595433Y-41644743D01*
G75*
G02*
X279263309Y-42806829I-1247105J85019D01*
G01*
X278684653Y-42767381D01*
G75*
G02*
X277522567Y-41435257I85019J1247105D01*
G01*
X277522567Y-41435257D01*
G75*
G02*
X278854691Y-40273171I1247105J-85019D01*
G01*
G37*
%TD*%
%TO.C,MX65*%
G36*
G01*
X254135171Y-43939309D02*
X254174619Y-43360653D01*
G75*
G02*
X255506743Y-42198567I1247105J-85019D01*
G01*
X255506743Y-42198567D01*
G75*
G02*
X256668829Y-43530691I-85019J-1247105D01*
G01*
X256629381Y-44109347D01*
G75*
G02*
X255297257Y-45271433I-1247105J85019D01*
G01*
X255297257Y-45271433D01*
G75*
G02*
X254135171Y-43939309I85019J1247105D01*
G01*
G37*
G36*
G01*
X247968299Y-45282190D02*
X249177223Y-43384560D01*
G75*
G02*
X250903087Y-43001946I1054239J-671625D01*
G01*
X250903087Y-43001946D01*
G75*
G02*
X251285701Y-44727810I-671625J-1054239D01*
G01*
X250076777Y-46625440D01*
G75*
G02*
X248350913Y-47008054I-1054239J671625D01*
G01*
X248350913Y-47008054D01*
G75*
G02*
X247968299Y-45282190I671625J1054239D01*
G01*
G37*
D18*
X257962000Y-48525000D03*
X247802000Y-48525000D03*
D17*
X252882000Y-48525000D03*
%TD*%
D29*
%TO.C,H16*%
X205358000Y-48525000D03*
%TD*%
%TO.C,H15*%
X110308000Y-48525000D03*
%TD*%
D30*
%TO.C,U1*%
X290750000Y-12950000D03*
X292750000Y-12950000D03*
X290750000Y-11050000D03*
D31*
X292750000Y-11250000D03*
%TD*%
D32*
%TO.C,H10*%
X21131200Y-86545000D03*
%TD*%
D33*
%TO.C,J2*%
X297210000Y-10505000D03*
%TD*%
D32*
%TO.C,H14*%
X18755000Y-10504999D03*
%TD*%
%TO.C,H13*%
X232617000Y-67535000D03*
%TD*%
%TO.C,H12*%
X297210000Y-86545000D03*
%TD*%
%TO.C,H11*%
X85290000Y-29515000D03*
%TD*%
%TO.C,H9*%
X218360000Y-29515000D03*
%TD*%
%TO.C,H8*%
X80537500Y-67535000D03*
%TD*%
%TO.C,H7*%
X149582000Y-48525000D03*
%TD*%
D34*
%TO.C,H6*%
X291577000Y-46440000D03*
%TD*%
D21*
%TO.C,D71*%
X14151200Y-53605000D03*
X11611200Y-53605000D03*
%TD*%
D17*
%TO.C,MX87*%
X12553700Y-48525000D03*
D18*
X7473700Y-48525000D03*
X17633700Y-48525000D03*
G36*
G01*
X7639999Y-45282190D02*
X8848923Y-43384560D01*
G75*
G02*
X10574787Y-43001946I1054239J-671625D01*
G01*
X10574787Y-43001946D01*
G75*
G02*
X10957401Y-44727810I-671625J-1054239D01*
G01*
X9748477Y-46625440D01*
G75*
G02*
X8022613Y-47008054I-1054239J671625D01*
G01*
X8022613Y-47008054D01*
G75*
G02*
X7639999Y-45282190I671625J1054239D01*
G01*
G37*
G36*
G01*
X13806871Y-43939309D02*
X13846319Y-43360653D01*
G75*
G02*
X15178443Y-42198567I1247105J-85019D01*
G01*
X15178443Y-42198567D01*
G75*
G02*
X16340529Y-43530691I-85019J-1247105D01*
G01*
X16301081Y-44109347D01*
G75*
G02*
X14968957Y-45271433I-1247105J85019D01*
G01*
X14968957Y-45271433D01*
G75*
G02*
X13806871Y-43939309I85019J1247105D01*
G01*
G37*
%TD*%
%TO.C,MX88*%
G36*
G01*
X16510671Y-81959309D02*
X16550119Y-81380653D01*
G75*
G02*
X17882243Y-80218567I1247105J-85019D01*
G01*
X17882243Y-80218567D01*
G75*
G02*
X19044329Y-81550691I-85019J-1247105D01*
G01*
X19004881Y-82129347D01*
G75*
G02*
X17672757Y-83291433I-1247105J85019D01*
G01*
X17672757Y-83291433D01*
G75*
G02*
X16510671Y-81959309I85019J1247105D01*
G01*
G37*
G36*
G01*
X10343799Y-83302190D02*
X11552723Y-81404560D01*
G75*
G02*
X13278587Y-81021946I1054239J-671625D01*
G01*
X13278587Y-81021946D01*
G75*
G02*
X13661201Y-82747810I-671625J-1054239D01*
G01*
X12452277Y-84645440D01*
G75*
G02*
X10726413Y-85028054I-1054239J671625D01*
G01*
X10726413Y-85028054D01*
G75*
G02*
X10343799Y-83302190I671625J1054239D01*
G01*
G37*
X20337500Y-86545000D03*
X10177500Y-86545000D03*
D17*
X15257500Y-86545000D03*
%TD*%
%TO.C,MX44*%
X205357500Y-67535000D03*
D18*
X200277500Y-67535000D03*
X210437500Y-67535000D03*
G36*
G01*
X200443799Y-64292190D02*
X201652723Y-62394560D01*
G75*
G02*
X203378587Y-62011946I1054239J-671625D01*
G01*
X203378587Y-62011946D01*
G75*
G02*
X203761201Y-63737810I-671625J-1054239D01*
G01*
X202552277Y-65635440D01*
G75*
G02*
X200826413Y-66018054I-1054239J671625D01*
G01*
X200826413Y-66018054D01*
G75*
G02*
X200443799Y-64292190I671625J1054239D01*
G01*
G37*
G36*
G01*
X206610671Y-62949309D02*
X206650119Y-62370653D01*
G75*
G02*
X207982243Y-61208567I1247105J-85019D01*
G01*
X207982243Y-61208567D01*
G75*
G02*
X209144329Y-62540691I-85019J-1247105D01*
G01*
X209104881Y-63119347D01*
G75*
G02*
X207772757Y-64281433I-1247105J85019D01*
G01*
X207772757Y-64281433D01*
G75*
G02*
X206610671Y-62949309I85019J1247105D01*
G01*
G37*
%TD*%
D17*
%TO.C,MX86*%
X195972250Y-78290000D03*
X81672250Y-78290000D03*
D19*
X81672250Y-93530000D03*
X195972250Y-93530000D03*
G36*
G01*
X140075421Y-81959309D02*
X140114869Y-81380653D01*
G75*
G02*
X141446993Y-80218567I1247105J-85019D01*
G01*
X141446993Y-80218567D01*
G75*
G02*
X142609079Y-81550691I-85019J-1247105D01*
G01*
X142569631Y-82129347D01*
G75*
G02*
X141237507Y-83291433I-1247105J85019D01*
G01*
X141237507Y-83291433D01*
G75*
G02*
X140075421Y-81959309I85019J1247105D01*
G01*
G37*
G36*
G01*
X133908549Y-83302190D02*
X135117473Y-81404560D01*
G75*
G02*
X136843337Y-81021946I1054239J-671625D01*
G01*
X136843337Y-81021946D01*
G75*
G02*
X137225951Y-82747810I-671625J-1054239D01*
G01*
X136017027Y-84645440D01*
G75*
G02*
X134291163Y-85028054I-1054239J671625D01*
G01*
X134291163Y-85028054D01*
G75*
G02*
X133908549Y-83302190I671625J1054239D01*
G01*
G37*
D18*
X143902250Y-86545000D03*
X133742250Y-86545000D03*
D17*
X138822250Y-86545000D03*
%TD*%
D16*
%TO.C,MX85*%
X141322250Y-90545000D03*
X136322250Y-91045000D03*
%TD*%
%TO.C,MX73*%
X146074750Y-90545000D03*
X141074750Y-91045000D03*
%TD*%
%TO.C,MX71*%
X217462250Y-90545000D03*
X212462250Y-91045000D03*
%TD*%
%TO.C,MX70*%
X241027750Y-91045000D03*
X246027750Y-90545000D03*
%TD*%
%TO.C,MX69*%
X226967250Y-90545000D03*
X221967250Y-91045000D03*
%TD*%
D17*
%TO.C,MX72*%
X219714750Y-86545000D03*
D18*
X214634750Y-86545000D03*
X224794750Y-86545000D03*
G36*
G01*
X214801049Y-83302190D02*
X216009973Y-81404560D01*
G75*
G02*
X217735837Y-81021946I1054239J-671625D01*
G01*
X217735837Y-81021946D01*
G75*
G02*
X218118451Y-82747810I-671625J-1054239D01*
G01*
X216909527Y-84645440D01*
G75*
G02*
X215183663Y-85028054I-1054239J671625D01*
G01*
X215183663Y-85028054D01*
G75*
G02*
X214801049Y-83302190I671625J1054239D01*
G01*
G37*
G36*
G01*
X220967921Y-81959309D02*
X221007369Y-81380653D01*
G75*
G02*
X222339493Y-80218567I1247105J-85019D01*
G01*
X222339493Y-80218567D01*
G75*
G02*
X223501579Y-81550691I-85019J-1247105D01*
G01*
X223462131Y-82129347D01*
G75*
G02*
X222130007Y-83291433I-1247105J85019D01*
G01*
X222130007Y-83291433D01*
G75*
G02*
X220967921Y-81959309I85019J1247105D01*
G01*
G37*
%TD*%
D17*
%TO.C,MX68*%
X55653700Y-86545000D03*
D18*
X50573700Y-86545000D03*
X60733700Y-86545000D03*
G36*
G01*
X50739999Y-83302190D02*
X51948923Y-81404560D01*
G75*
G02*
X53674787Y-81021946I1054239J-671625D01*
G01*
X53674787Y-81021946D01*
G75*
G02*
X54057401Y-82747810I-671625J-1054239D01*
G01*
X52848477Y-84645440D01*
G75*
G02*
X51122613Y-85028054I-1054239J671625D01*
G01*
X51122613Y-85028054D01*
G75*
G02*
X50739999Y-83302190I671625J1054239D01*
G01*
G37*
G36*
G01*
X56906871Y-81959309D02*
X56946319Y-81380653D01*
G75*
G02*
X58278443Y-80218567I1247105J-85019D01*
G01*
X58278443Y-80218567D01*
G75*
G02*
X59440529Y-81550691I-85019J-1247105D01*
G01*
X59401081Y-82129347D01*
G75*
G02*
X58068957Y-83291433I-1247105J85019D01*
G01*
X58068957Y-83291433D01*
G75*
G02*
X56906871Y-81959309I85019J1247105D01*
G01*
G37*
%TD*%
%TO.C,MX67*%
G36*
G01*
X35520671Y-81959309D02*
X35560119Y-81380653D01*
G75*
G02*
X36892243Y-80218567I1247105J-85019D01*
G01*
X36892243Y-80218567D01*
G75*
G02*
X38054329Y-81550691I-85019J-1247105D01*
G01*
X38014881Y-82129347D01*
G75*
G02*
X36682757Y-83291433I-1247105J85019D01*
G01*
X36682757Y-83291433D01*
G75*
G02*
X35520671Y-81959309I85019J1247105D01*
G01*
G37*
G36*
G01*
X29353799Y-83302190D02*
X30562723Y-81404560D01*
G75*
G02*
X32288587Y-81021946I1054239J-671625D01*
G01*
X32288587Y-81021946D01*
G75*
G02*
X32671201Y-82747810I-671625J-1054239D01*
G01*
X31462277Y-84645440D01*
G75*
G02*
X29736413Y-85028054I-1054239J671625D01*
G01*
X29736413Y-85028054D01*
G75*
G02*
X29353799Y-83302190I671625J1054239D01*
G01*
G37*
X39347500Y-86545000D03*
X29187500Y-86545000D03*
D17*
X34267500Y-86545000D03*
%TD*%
%TO.C,MX66*%
G36*
G01*
X61659371Y-81959309D02*
X61698819Y-81380653D01*
G75*
G02*
X63030943Y-80218567I1247105J-85019D01*
G01*
X63030943Y-80218567D01*
G75*
G02*
X64193029Y-81550691I-85019J-1247105D01*
G01*
X64153581Y-82129347D01*
G75*
G02*
X62821457Y-83291433I-1247105J85019D01*
G01*
X62821457Y-83291433D01*
G75*
G02*
X61659371Y-81959309I85019J1247105D01*
G01*
G37*
G36*
G01*
X55492499Y-83302190D02*
X56701423Y-81404560D01*
G75*
G02*
X58427287Y-81021946I1054239J-671625D01*
G01*
X58427287Y-81021946D01*
G75*
G02*
X58809901Y-82747810I-671625J-1054239D01*
G01*
X57600977Y-84645440D01*
G75*
G02*
X55875113Y-85028054I-1054239J671625D01*
G01*
X55875113Y-85028054D01*
G75*
G02*
X55492499Y-83302190I671625J1054239D01*
G01*
G37*
D18*
X65486200Y-86545000D03*
X55326200Y-86545000D03*
D17*
X60406200Y-86545000D03*
%TD*%
%TO.C,MX59*%
X36643750Y-86545000D03*
D18*
X31563750Y-86545000D03*
X41723750Y-86545000D03*
G36*
G01*
X31730049Y-83302190D02*
X32938973Y-81404560D01*
G75*
G02*
X34664837Y-81021946I1054239J-671625D01*
G01*
X34664837Y-81021946D01*
G75*
G02*
X35047451Y-82747810I-671625J-1054239D01*
G01*
X33838527Y-84645440D01*
G75*
G02*
X32112663Y-85028054I-1054239J671625D01*
G01*
X32112663Y-85028054D01*
G75*
G02*
X31730049Y-83302190I671625J1054239D01*
G01*
G37*
G36*
G01*
X37896921Y-81959309D02*
X37936369Y-81380653D01*
G75*
G02*
X39268493Y-80218567I1247105J-85019D01*
G01*
X39268493Y-80218567D01*
G75*
G02*
X40430579Y-81550691I-85019J-1247105D01*
G01*
X40391131Y-82129347D01*
G75*
G02*
X39059007Y-83291433I-1247105J85019D01*
G01*
X39059007Y-83291433D01*
G75*
G02*
X37896921Y-81959309I85019J1247105D01*
G01*
G37*
%TD*%
D17*
%TO.C,MX55*%
X12881200Y-86545000D03*
D18*
X7801200Y-86545000D03*
X17961200Y-86545000D03*
G36*
G01*
X7967499Y-83302190D02*
X9176423Y-81404560D01*
G75*
G02*
X10902287Y-81021946I1054239J-671625D01*
G01*
X10902287Y-81021946D01*
G75*
G02*
X11284901Y-82747810I-671625J-1054239D01*
G01*
X10075977Y-84645440D01*
G75*
G02*
X8350113Y-85028054I-1054239J671625D01*
G01*
X8350113Y-85028054D01*
G75*
G02*
X7967499Y-83302190I671625J1054239D01*
G01*
G37*
G36*
G01*
X14134371Y-81959309D02*
X14173819Y-81380653D01*
G75*
G02*
X15505943Y-80218567I1247105J-85019D01*
G01*
X15505943Y-80218567D01*
G75*
G02*
X16668029Y-81550691I-85019J-1247105D01*
G01*
X16628581Y-82129347D01*
G75*
G02*
X15296457Y-83291433I-1247105J85019D01*
G01*
X15296457Y-83291433D01*
G75*
G02*
X14134371Y-81959309I85019J1247105D01*
G01*
G37*
%TD*%
D17*
%TO.C,MX83*%
X126941000Y-86545000D03*
D18*
X121861000Y-86545000D03*
X132021000Y-86545000D03*
D19*
X176979000Y-93530000D03*
X76903000Y-93530000D03*
D17*
X176979000Y-78290000D03*
X76903000Y-78290000D03*
G36*
G01*
X122027299Y-83302190D02*
X123236223Y-81404560D01*
G75*
G02*
X124962087Y-81021946I1054239J-671625D01*
G01*
X124962087Y-81021946D01*
G75*
G02*
X125344701Y-82747810I-671625J-1054239D01*
G01*
X124135777Y-84645440D01*
G75*
G02*
X122409913Y-85028054I-1054239J671625D01*
G01*
X122409913Y-85028054D01*
G75*
G02*
X122027299Y-83302190I671625J1054239D01*
G01*
G37*
G36*
G01*
X128194171Y-81959309D02*
X128233619Y-81380653D01*
G75*
G02*
X129565743Y-80218567I1247105J-85019D01*
G01*
X129565743Y-80218567D01*
G75*
G02*
X130727829Y-81550691I-85019J-1247105D01*
G01*
X130688381Y-82129347D01*
G75*
G02*
X129356257Y-83291433I-1247105J85019D01*
G01*
X129356257Y-83291433D01*
G75*
G02*
X128194171Y-81959309I85019J1247105D01*
G01*
G37*
%TD*%
%TO.C,MX82*%
X131693500Y-86545000D03*
D18*
X126613500Y-86545000D03*
X136773500Y-86545000D03*
D19*
X181731500Y-93530000D03*
X81655500Y-93530000D03*
D17*
X181731500Y-78290000D03*
X81655500Y-78290000D03*
G36*
G01*
X126779799Y-83302190D02*
X127988723Y-81404560D01*
G75*
G02*
X129714587Y-81021946I1054239J-671625D01*
G01*
X129714587Y-81021946D01*
G75*
G02*
X130097201Y-82747810I-671625J-1054239D01*
G01*
X128888277Y-84645440D01*
G75*
G02*
X127162413Y-85028054I-1054239J671625D01*
G01*
X127162413Y-85028054D01*
G75*
G02*
X126779799Y-83302190I671625J1054239D01*
G01*
G37*
G36*
G01*
X132946671Y-81959309D02*
X132986119Y-81380653D01*
G75*
G02*
X134318243Y-80218567I1247105J-85019D01*
G01*
X134318243Y-80218567D01*
G75*
G02*
X135480329Y-81550691I-85019J-1247105D01*
G01*
X135440881Y-82129347D01*
G75*
G02*
X134108757Y-83291433I-1247105J85019D01*
G01*
X134108757Y-83291433D01*
G75*
G02*
X132946671Y-81959309I85019J1247105D01*
G01*
G37*
%TD*%
D22*
%TO.C,D70*%
X152698554Y-89433348D03*
X152698554Y-92733348D03*
%TD*%
%TO.C,MX77*%
G36*
G01*
X199532171Y-81959309D02*
X199571619Y-81380653D01*
G75*
G02*
X200903743Y-80218567I1247105J-85019D01*
G01*
X200903743Y-80218567D01*
G75*
G02*
X202065829Y-81550691I-85019J-1247105D01*
G01*
X202026381Y-82129347D01*
G75*
G02*
X200694257Y-83291433I-1247105J85019D01*
G01*
X200694257Y-83291433D01*
G75*
G02*
X199532171Y-81959309I85019J1247105D01*
G01*
G37*
G36*
G01*
X193365299Y-83302190D02*
X194574223Y-81404560D01*
G75*
G02*
X196300087Y-81021946I1054239J-671625D01*
G01*
X196300087Y-81021946D01*
G75*
G02*
X196682701Y-82747810I-671625J-1054239D01*
G01*
X195473777Y-84645440D01*
G75*
G02*
X193747913Y-85028054I-1054239J671625D01*
G01*
X193747913Y-85028054D01*
G75*
G02*
X193365299Y-83302190I671625J1054239D01*
G01*
G37*
D18*
X203359000Y-86545000D03*
X193199000Y-86545000D03*
D17*
X198279000Y-86545000D03*
%TD*%
%TO.C,MX78*%
G36*
G01*
X223344171Y-81959309D02*
X223383619Y-81380653D01*
G75*
G02*
X224715743Y-80218567I1247105J-85019D01*
G01*
X224715743Y-80218567D01*
G75*
G02*
X225877829Y-81550691I-85019J-1247105D01*
G01*
X225838381Y-82129347D01*
G75*
G02*
X224506257Y-83291433I-1247105J85019D01*
G01*
X224506257Y-83291433D01*
G75*
G02*
X223344171Y-81959309I85019J1247105D01*
G01*
G37*
G36*
G01*
X217177299Y-83302190D02*
X218386223Y-81404560D01*
G75*
G02*
X220112087Y-81021946I1054239J-671625D01*
G01*
X220112087Y-81021946D01*
G75*
G02*
X220494701Y-82747810I-671625J-1054239D01*
G01*
X219285777Y-84645440D01*
G75*
G02*
X217559913Y-85028054I-1054239J671625D01*
G01*
X217559913Y-85028054D01*
G75*
G02*
X217177299Y-83302190I671625J1054239D01*
G01*
G37*
D18*
X227171000Y-86545000D03*
X217011000Y-86545000D03*
D17*
X222091000Y-86545000D03*
%TD*%
%TO.C,MX81*%
G36*
G01*
X249533421Y-81959309D02*
X249572869Y-81380653D01*
G75*
G02*
X250904993Y-80218567I1247105J-85019D01*
G01*
X250904993Y-80218567D01*
G75*
G02*
X252067079Y-81550691I-85019J-1247105D01*
G01*
X252027631Y-82129347D01*
G75*
G02*
X250695507Y-83291433I-1247105J85019D01*
G01*
X250695507Y-83291433D01*
G75*
G02*
X249533421Y-81959309I85019J1247105D01*
G01*
G37*
G36*
G01*
X243366549Y-83302190D02*
X244575473Y-81404560D01*
G75*
G02*
X246301337Y-81021946I1054239J-671625D01*
G01*
X246301337Y-81021946D01*
G75*
G02*
X246683951Y-82747810I-671625J-1054239D01*
G01*
X245475027Y-84645440D01*
G75*
G02*
X243749163Y-85028054I-1054239J671625D01*
G01*
X243749163Y-85028054D01*
G75*
G02*
X243366549Y-83302190I671625J1054239D01*
G01*
G37*
D18*
X253360250Y-86545000D03*
X243200250Y-86545000D03*
D17*
X248280250Y-86545000D03*
%TD*%
%TO.C,MX80*%
X226843500Y-86545000D03*
D18*
X221763500Y-86545000D03*
X231923500Y-86545000D03*
G36*
G01*
X221929799Y-83302190D02*
X223138723Y-81404560D01*
G75*
G02*
X224864587Y-81021946I1054239J-671625D01*
G01*
X224864587Y-81021946D01*
G75*
G02*
X225247201Y-82747810I-671625J-1054239D01*
G01*
X224038277Y-84645440D01*
G75*
G02*
X222312413Y-85028054I-1054239J671625D01*
G01*
X222312413Y-85028054D01*
G75*
G02*
X221929799Y-83302190I671625J1054239D01*
G01*
G37*
G36*
G01*
X228096671Y-81959309D02*
X228136119Y-81380653D01*
G75*
G02*
X229468243Y-80218567I1247105J-85019D01*
G01*
X229468243Y-80218567D01*
G75*
G02*
X230630329Y-81550691I-85019J-1247105D01*
G01*
X230590881Y-82129347D01*
G75*
G02*
X229258757Y-83291433I-1247105J85019D01*
G01*
X229258757Y-83291433D01*
G75*
G02*
X228096671Y-81959309I85019J1247105D01*
G01*
G37*
%TD*%
%TO.C,MX79*%
G36*
G01*
X204284671Y-81959309D02*
X204324119Y-81380653D01*
G75*
G02*
X205656243Y-80218567I1247105J-85019D01*
G01*
X205656243Y-80218567D01*
G75*
G02*
X206818329Y-81550691I-85019J-1247105D01*
G01*
X206778881Y-82129347D01*
G75*
G02*
X205446757Y-83291433I-1247105J85019D01*
G01*
X205446757Y-83291433D01*
G75*
G02*
X204284671Y-81959309I85019J1247105D01*
G01*
G37*
G36*
G01*
X198117799Y-83302190D02*
X199326723Y-81404560D01*
G75*
G02*
X201052587Y-81021946I1054239J-671625D01*
G01*
X201052587Y-81021946D01*
G75*
G02*
X201435201Y-82747810I-671625J-1054239D01*
G01*
X200226277Y-84645440D01*
G75*
G02*
X198500413Y-85028054I-1054239J671625D01*
G01*
X198500413Y-85028054D01*
G75*
G02*
X198117799Y-83302190I671625J1054239D01*
G01*
G37*
X208111500Y-86545000D03*
X197951500Y-86545000D03*
D17*
X203031500Y-86545000D03*
%TD*%
%TO.C,MX84*%
X245904000Y-86545000D03*
D18*
X240824000Y-86545000D03*
X250984000Y-86545000D03*
G36*
G01*
X240990299Y-83302190D02*
X242199223Y-81404560D01*
G75*
G02*
X243925087Y-81021946I1054239J-671625D01*
G01*
X243925087Y-81021946D01*
G75*
G02*
X244307701Y-82747810I-671625J-1054239D01*
G01*
X243098777Y-84645440D01*
G75*
G02*
X241372913Y-85028054I-1054239J671625D01*
G01*
X241372913Y-85028054D01*
G75*
G02*
X240990299Y-83302190I671625J1054239D01*
G01*
G37*
G36*
G01*
X247157171Y-81959309D02*
X247196619Y-81380653D01*
G75*
G02*
X248528743Y-80218567I1247105J-85019D01*
G01*
X248528743Y-80218567D01*
G75*
G02*
X249690829Y-81550691I-85019J-1247105D01*
G01*
X249651381Y-82129347D01*
G75*
G02*
X248319257Y-83291433I-1247105J85019D01*
G01*
X248319257Y-83291433D01*
G75*
G02*
X247157171Y-81959309I85019J1247105D01*
G01*
G37*
%TD*%
D22*
%TO.C,D69*%
X256878854Y-89433348D03*
X256878854Y-92733348D03*
%TD*%
%TO.C,D68*%
X235447478Y-89433348D03*
X235447478Y-92733348D03*
%TD*%
%TO.C,D67*%
X208062942Y-89433348D03*
X208062942Y-92733348D03*
%TD*%
D17*
%TO.C,MX76*%
X305460000Y-86545000D03*
D18*
X300380000Y-86545000D03*
X310540000Y-86545000D03*
G36*
G01*
X300546299Y-83302190D02*
X301755223Y-81404560D01*
G75*
G02*
X303481087Y-81021946I1054239J-671625D01*
G01*
X303481087Y-81021946D01*
G75*
G02*
X303863701Y-82747810I-671625J-1054239D01*
G01*
X302654777Y-84645440D01*
G75*
G02*
X300928913Y-85028054I-1054239J671625D01*
G01*
X300928913Y-85028054D01*
G75*
G02*
X300546299Y-83302190I671625J1054239D01*
G01*
G37*
G36*
G01*
X306713171Y-81959309D02*
X306752619Y-81380653D01*
G75*
G02*
X308084743Y-80218567I1247105J-85019D01*
G01*
X308084743Y-80218567D01*
G75*
G02*
X309246829Y-81550691I-85019J-1247105D01*
G01*
X309207381Y-82129347D01*
G75*
G02*
X307875257Y-83291433I-1247105J85019D01*
G01*
X307875257Y-83291433D01*
G75*
G02*
X306713171Y-81959309I85019J1247105D01*
G01*
G37*
%TD*%
D17*
%TO.C,MX75*%
X286400000Y-86545000D03*
D18*
X281320000Y-86545000D03*
X291480000Y-86545000D03*
G36*
G01*
X281486299Y-83302190D02*
X282695223Y-81404560D01*
G75*
G02*
X284421087Y-81021946I1054239J-671625D01*
G01*
X284421087Y-81021946D01*
G75*
G02*
X284803701Y-82747810I-671625J-1054239D01*
G01*
X283594777Y-84645440D01*
G75*
G02*
X281868913Y-85028054I-1054239J671625D01*
G01*
X281868913Y-85028054D01*
G75*
G02*
X281486299Y-83302190I671625J1054239D01*
G01*
G37*
G36*
G01*
X287653171Y-81959309D02*
X287692619Y-81380653D01*
G75*
G02*
X289024743Y-80218567I1247105J-85019D01*
G01*
X289024743Y-80218567D01*
G75*
G02*
X290186829Y-81550691I-85019J-1247105D01*
G01*
X290147381Y-82129347D01*
G75*
G02*
X288815257Y-83291433I-1247105J85019D01*
G01*
X288815257Y-83291433D01*
G75*
G02*
X287653171Y-81959309I85019J1247105D01*
G01*
G37*
%TD*%
D17*
%TO.C,MX74*%
X267339999Y-86545000D03*
D18*
X262259999Y-86545000D03*
X272419999Y-86545000D03*
G36*
G01*
X262426298Y-83302190D02*
X263635222Y-81404560D01*
G75*
G02*
X265361086Y-81021946I1054239J-671625D01*
G01*
X265361086Y-81021946D01*
G75*
G02*
X265743700Y-82747810I-671625J-1054239D01*
G01*
X264534776Y-84645440D01*
G75*
G02*
X262808912Y-85028054I-1054239J671625D01*
G01*
X262808912Y-85028054D01*
G75*
G02*
X262426298Y-83302190I671625J1054239D01*
G01*
G37*
G36*
G01*
X268593170Y-81959309D02*
X268632618Y-81380653D01*
G75*
G02*
X269964742Y-80218567I1247105J-85019D01*
G01*
X269964742Y-80218567D01*
G75*
G02*
X271126828Y-81550691I-85019J-1247105D01*
G01*
X271087380Y-82129347D01*
G75*
G02*
X269755256Y-83291433I-1247105J85019D01*
G01*
X269755256Y-83291433D01*
G75*
G02*
X268593170Y-81959309I85019J1247105D01*
G01*
G37*
%TD*%
D23*
%TO.C,D66*%
X277281308Y-92273980D03*
X273981308Y-92273980D03*
%TD*%
%TO.C,D65*%
X277281308Y-89892716D03*
X273981308Y-89892716D03*
%TD*%
D22*
%TO.C,D64*%
X259855434Y-89433348D03*
X259855434Y-92733348D03*
%TD*%
%TO.C,D63*%
X52387808Y-89433348D03*
X52387808Y-92733348D03*
%TD*%
%TO.C,D60*%
X48815912Y-89433348D03*
X48815912Y-92733348D03*
%TD*%
%TO.C,D59*%
X25844500Y-84968478D03*
X25844500Y-88268478D03*
%TD*%
D35*
%TO.C,SW1*%
X304150000Y-49600000D03*
X307850000Y-43400000D03*
X307850000Y-49600000D03*
X304150000Y-43400000D03*
%TD*%
D22*
%TO.C,D24*%
X119812500Y-65885000D03*
X119812500Y-69185000D03*
%TD*%
%TO.C,D20*%
X99302500Y-65885000D03*
X99302500Y-69185000D03*
%TD*%
%TO.C,D28*%
X138822500Y-65885000D03*
X138822500Y-69185000D03*
%TD*%
%TO.C,D12*%
X62782500Y-65885000D03*
X62782500Y-69185000D03*
%TD*%
%TO.C,D16*%
X102302500Y-65885000D03*
X102302500Y-69185000D03*
%TD*%
%TO.C,D4*%
X45272500Y-65885000D03*
X45272500Y-69185000D03*
%TD*%
%TO.C,D8*%
X42272500Y-65885000D03*
X42272500Y-69185000D03*
%TD*%
%TO.C,D36*%
X176842500Y-65885000D03*
X176842500Y-69185000D03*
%TD*%
%TO.C,D32*%
X157832500Y-65885000D03*
X157832500Y-69185000D03*
%TD*%
%TO.C,D58*%
X273018750Y-69185000D03*
X273018750Y-65885000D03*
%TD*%
%TO.C,D52*%
X275629919Y-65885000D03*
X275629919Y-69185000D03*
%TD*%
%TO.C,D48*%
X216098619Y-65885000D03*
X216098619Y-69185000D03*
%TD*%
%TO.C,D56*%
X294084622Y-69185000D03*
X294084622Y-65885000D03*
%TD*%
%TO.C,D54*%
X259557776Y-27818142D03*
X259557776Y-31118142D03*
%TD*%
%TO.C,MX49*%
G36*
G01*
X239878171Y-5919309D02*
X239917619Y-5340653D01*
G75*
G02*
X241249743Y-4178567I1247105J-85019D01*
G01*
X241249743Y-4178567D01*
G75*
G02*
X242411829Y-5510691I-85019J-1247105D01*
G01*
X242372381Y-6089347D01*
G75*
G02*
X241040257Y-7251433I-1247105J85019D01*
G01*
X241040257Y-7251433D01*
G75*
G02*
X239878171Y-5919309I85019J1247105D01*
G01*
G37*
G36*
G01*
X233711299Y-7262190D02*
X234920223Y-5364560D01*
G75*
G02*
X236646087Y-4981946I1054239J-671625D01*
G01*
X236646087Y-4981946D01*
G75*
G02*
X237028701Y-6707810I-671625J-1054239D01*
G01*
X235819777Y-8605440D01*
G75*
G02*
X234093913Y-8988054I-1054239J671625D01*
G01*
X234093913Y-8988054D01*
G75*
G02*
X233711299Y-7262190I671625J1054239D01*
G01*
G37*
D18*
X243705000Y-10505000D03*
X233545000Y-10505000D03*
D17*
X238625000Y-10505000D03*
%TD*%
%TO.C,MX50*%
X248130000Y-29515000D03*
D18*
X243050000Y-29515000D03*
X253210000Y-29515000D03*
G36*
G01*
X243216299Y-26272190D02*
X244425223Y-24374560D01*
G75*
G02*
X246151087Y-23991946I1054239J-671625D01*
G01*
X246151087Y-23991946D01*
G75*
G02*
X246533701Y-25717810I-671625J-1054239D01*
G01*
X245324777Y-27615440D01*
G75*
G02*
X243598913Y-27998054I-1054239J671625D01*
G01*
X243598913Y-27998054D01*
G75*
G02*
X243216299Y-26272190I671625J1054239D01*
G01*
G37*
G36*
G01*
X249383171Y-24929309D02*
X249422619Y-24350653D01*
G75*
G02*
X250754743Y-23188567I1247105J-85019D01*
G01*
X250754743Y-23188567D01*
G75*
G02*
X251916829Y-24520691I-85019J-1247105D01*
G01*
X251877381Y-25099347D01*
G75*
G02*
X250545257Y-26261433I-1247105J85019D01*
G01*
X250545257Y-26261433D01*
G75*
G02*
X249383171Y-24929309I85019J1247105D01*
G01*
G37*
%TD*%
D17*
%TO.C,MX62*%
X305460000Y-29515000D03*
D18*
X300380000Y-29515000D03*
X310540000Y-29515000D03*
G36*
G01*
X300546299Y-26272190D02*
X301755223Y-24374560D01*
G75*
G02*
X303481087Y-23991946I1054239J-671625D01*
G01*
X303481087Y-23991946D01*
G75*
G02*
X303863701Y-25717810I-671625J-1054239D01*
G01*
X302654777Y-27615440D01*
G75*
G02*
X300928913Y-27998054I-1054239J671625D01*
G01*
X300928913Y-27998054D01*
G75*
G02*
X300546299Y-26272190I671625J1054239D01*
G01*
G37*
G36*
G01*
X306713171Y-24929309D02*
X306752619Y-24350653D01*
G75*
G02*
X308084743Y-23188567I1247105J-85019D01*
G01*
X308084743Y-23188567D01*
G75*
G02*
X309246829Y-24520691I-85019J-1247105D01*
G01*
X309207381Y-25099347D01*
G75*
G02*
X307875257Y-26261433I-1247105J85019D01*
G01*
X307875257Y-26261433D01*
G75*
G02*
X306713171Y-24929309I85019J1247105D01*
G01*
G37*
%TD*%
D21*
%TO.C,D55*%
X18903700Y-53605000D03*
X16363700Y-53605000D03*
%TD*%
D26*
%TO.C,R8*%
X24053272Y-53578440D03*
X25953272Y-53578440D03*
%TD*%
D17*
%TO.C,MX54*%
X271892000Y-29515000D03*
D18*
X266812000Y-29515000D03*
X276972000Y-29515000D03*
G36*
G01*
X266978299Y-26272190D02*
X268187223Y-24374560D01*
G75*
G02*
X269913087Y-23991946I1054239J-671625D01*
G01*
X269913087Y-23991946D01*
G75*
G02*
X270295701Y-25717810I-671625J-1054239D01*
G01*
X269086777Y-27615440D01*
G75*
G02*
X267360913Y-27998054I-1054239J671625D01*
G01*
X267360913Y-27998054D01*
G75*
G02*
X266978299Y-26272190I671625J1054239D01*
G01*
G37*
G36*
G01*
X273145171Y-24929309D02*
X273184619Y-24350653D01*
G75*
G02*
X274516743Y-23188567I1247105J-85019D01*
G01*
X274516743Y-23188567D01*
G75*
G02*
X275678829Y-24520691I-85019J-1247105D01*
G01*
X275639381Y-25099347D01*
G75*
G02*
X274307257Y-26261433I-1247105J85019D01*
G01*
X274307257Y-26261433D01*
G75*
G02*
X273145171Y-24929309I85019J1247105D01*
G01*
G37*
%TD*%
%TO.C,MX63*%
G36*
G01*
X268393171Y-5919309D02*
X268432619Y-5340653D01*
G75*
G02*
X269764743Y-4178567I1247105J-85019D01*
G01*
X269764743Y-4178567D01*
G75*
G02*
X270926829Y-5510691I-85019J-1247105D01*
G01*
X270887381Y-6089347D01*
G75*
G02*
X269555257Y-7251433I-1247105J85019D01*
G01*
X269555257Y-7251433D01*
G75*
G02*
X268393171Y-5919309I85019J1247105D01*
G01*
G37*
G36*
G01*
X262226299Y-7262190D02*
X263435223Y-5364560D01*
G75*
G02*
X265161087Y-4981946I1054239J-671625D01*
G01*
X265161087Y-4981946D01*
G75*
G02*
X265543701Y-6707810I-671625J-1054239D01*
G01*
X264334777Y-8605440D01*
G75*
G02*
X262608913Y-8988054I-1054239J671625D01*
G01*
X262608913Y-8988054D01*
G75*
G02*
X262226299Y-7262190I671625J1054239D01*
G01*
G37*
D17*
X279078000Y-18760000D03*
X255202000Y-18760000D03*
D19*
X279078000Y-3520000D03*
X255202000Y-3520000D03*
D18*
X272220000Y-10505000D03*
X262060000Y-10505000D03*
D17*
X267140000Y-10505000D03*
%TD*%
%TO.C,U2*%
G36*
G01*
X300155686Y-58682760D02*
X300280686Y-58682760D01*
G75*
G02*
X300343186Y-58745260I0J-62500D01*
G01*
X300343186Y-59495260D01*
G75*
G02*
X300280686Y-59557760I-62500J0D01*
G01*
X300155686Y-59557760D01*
G75*
G02*
X300093186Y-59495260I0J62500D01*
G01*
X300093186Y-58745260D01*
G75*
G02*
X300155686Y-58682760I62500J0D01*
G01*
G37*
G36*
G01*
X300655686Y-58682760D02*
X300780686Y-58682760D01*
G75*
G02*
X300843186Y-58745260I0J-62500D01*
G01*
X300843186Y-59495260D01*
G75*
G02*
X300780686Y-59557760I-62500J0D01*
G01*
X300655686Y-59557760D01*
G75*
G02*
X300593186Y-59495260I0J62500D01*
G01*
X300593186Y-58745260D01*
G75*
G02*
X300655686Y-58682760I62500J0D01*
G01*
G37*
G36*
G01*
X301155686Y-58682760D02*
X301280686Y-58682760D01*
G75*
G02*
X301343186Y-58745260I0J-62500D01*
G01*
X301343186Y-59495260D01*
G75*
G02*
X301280686Y-59557760I-62500J0D01*
G01*
X301155686Y-59557760D01*
G75*
G02*
X301093186Y-59495260I0J62500D01*
G01*
X301093186Y-58745260D01*
G75*
G02*
X301155686Y-58682760I62500J0D01*
G01*
G37*
G36*
G01*
X301655686Y-58682760D02*
X301780686Y-58682760D01*
G75*
G02*
X301843186Y-58745260I0J-62500D01*
G01*
X301843186Y-59495260D01*
G75*
G02*
X301780686Y-59557760I-62500J0D01*
G01*
X301655686Y-59557760D01*
G75*
G02*
X301593186Y-59495260I0J62500D01*
G01*
X301593186Y-58745260D01*
G75*
G02*
X301655686Y-58682760I62500J0D01*
G01*
G37*
G36*
G01*
X302155686Y-58682760D02*
X302280686Y-58682760D01*
G75*
G02*
X302343186Y-58745260I0J-62500D01*
G01*
X302343186Y-59495260D01*
G75*
G02*
X302280686Y-59557760I-62500J0D01*
G01*
X302155686Y-59557760D01*
G75*
G02*
X302093186Y-59495260I0J62500D01*
G01*
X302093186Y-58745260D01*
G75*
G02*
X302155686Y-58682760I62500J0D01*
G01*
G37*
G36*
G01*
X302655686Y-58682760D02*
X302780686Y-58682760D01*
G75*
G02*
X302843186Y-58745260I0J-62500D01*
G01*
X302843186Y-59495260D01*
G75*
G02*
X302780686Y-59557760I-62500J0D01*
G01*
X302655686Y-59557760D01*
G75*
G02*
X302593186Y-59495260I0J62500D01*
G01*
X302593186Y-58745260D01*
G75*
G02*
X302655686Y-58682760I62500J0D01*
G01*
G37*
G36*
G01*
X303155686Y-58682760D02*
X303280686Y-58682760D01*
G75*
G02*
X303343186Y-58745260I0J-62500D01*
G01*
X303343186Y-59495260D01*
G75*
G02*
X303280686Y-59557760I-62500J0D01*
G01*
X303155686Y-59557760D01*
G75*
G02*
X303093186Y-59495260I0J62500D01*
G01*
X303093186Y-58745260D01*
G75*
G02*
X303155686Y-58682760I62500J0D01*
G01*
G37*
G36*
G01*
X303655686Y-58682760D02*
X303780686Y-58682760D01*
G75*
G02*
X303843186Y-58745260I0J-62500D01*
G01*
X303843186Y-59495260D01*
G75*
G02*
X303780686Y-59557760I-62500J0D01*
G01*
X303655686Y-59557760D01*
G75*
G02*
X303593186Y-59495260I0J62500D01*
G01*
X303593186Y-58745260D01*
G75*
G02*
X303655686Y-58682760I62500J0D01*
G01*
G37*
G36*
G01*
X304155686Y-58682760D02*
X304280686Y-58682760D01*
G75*
G02*
X304343186Y-58745260I0J-62500D01*
G01*
X304343186Y-59495260D01*
G75*
G02*
X304280686Y-59557760I-62500J0D01*
G01*
X304155686Y-59557760D01*
G75*
G02*
X304093186Y-59495260I0J62500D01*
G01*
X304093186Y-58745260D01*
G75*
G02*
X304155686Y-58682760I62500J0D01*
G01*
G37*
G36*
G01*
X304655686Y-58682760D02*
X304780686Y-58682760D01*
G75*
G02*
X304843186Y-58745260I0J-62500D01*
G01*
X304843186Y-59495260D01*
G75*
G02*
X304780686Y-59557760I-62500J0D01*
G01*
X304655686Y-59557760D01*
G75*
G02*
X304593186Y-59495260I0J62500D01*
G01*
X304593186Y-58745260D01*
G75*
G02*
X304655686Y-58682760I62500J0D01*
G01*
G37*
G36*
G01*
X305155686Y-58682760D02*
X305280686Y-58682760D01*
G75*
G02*
X305343186Y-58745260I0J-62500D01*
G01*
X305343186Y-59495260D01*
G75*
G02*
X305280686Y-59557760I-62500J0D01*
G01*
X305155686Y-59557760D01*
G75*
G02*
X305093186Y-59495260I0J62500D01*
G01*
X305093186Y-58745260D01*
G75*
G02*
X305155686Y-58682760I62500J0D01*
G01*
G37*
G36*
G01*
X305780686Y-59932760D02*
X306530686Y-59932760D01*
G75*
G02*
X306593186Y-59995260I0J-62500D01*
G01*
X306593186Y-60120260D01*
G75*
G02*
X306530686Y-60182760I-62500J0D01*
G01*
X305780686Y-60182760D01*
G75*
G02*
X305718186Y-60120260I0J62500D01*
G01*
X305718186Y-59995260D01*
G75*
G02*
X305780686Y-59932760I62500J0D01*
G01*
G37*
G36*
G01*
X305780686Y-60432760D02*
X306530686Y-60432760D01*
G75*
G02*
X306593186Y-60495260I0J-62500D01*
G01*
X306593186Y-60620260D01*
G75*
G02*
X306530686Y-60682760I-62500J0D01*
G01*
X305780686Y-60682760D01*
G75*
G02*
X305718186Y-60620260I0J62500D01*
G01*
X305718186Y-60495260D01*
G75*
G02*
X305780686Y-60432760I62500J0D01*
G01*
G37*
G36*
G01*
X305780686Y-60932760D02*
X306530686Y-60932760D01*
G75*
G02*
X306593186Y-60995260I0J-62500D01*
G01*
X306593186Y-61120260D01*
G75*
G02*
X306530686Y-61182760I-62500J0D01*
G01*
X305780686Y-61182760D01*
G75*
G02*
X305718186Y-61120260I0J62500D01*
G01*
X305718186Y-60995260D01*
G75*
G02*
X305780686Y-60932760I62500J0D01*
G01*
G37*
G36*
G01*
X305780686Y-61432760D02*
X306530686Y-61432760D01*
G75*
G02*
X306593186Y-61495260I0J-62500D01*
G01*
X306593186Y-61620260D01*
G75*
G02*
X306530686Y-61682760I-62500J0D01*
G01*
X305780686Y-61682760D01*
G75*
G02*
X305718186Y-61620260I0J62500D01*
G01*
X305718186Y-61495260D01*
G75*
G02*
X305780686Y-61432760I62500J0D01*
G01*
G37*
G36*
G01*
X305780686Y-61932760D02*
X306530686Y-61932760D01*
G75*
G02*
X306593186Y-61995260I0J-62500D01*
G01*
X306593186Y-62120260D01*
G75*
G02*
X306530686Y-62182760I-62500J0D01*
G01*
X305780686Y-62182760D01*
G75*
G02*
X305718186Y-62120260I0J62500D01*
G01*
X305718186Y-61995260D01*
G75*
G02*
X305780686Y-61932760I62500J0D01*
G01*
G37*
G36*
G01*
X305780686Y-62432760D02*
X306530686Y-62432760D01*
G75*
G02*
X306593186Y-62495260I0J-62500D01*
G01*
X306593186Y-62620260D01*
G75*
G02*
X306530686Y-62682760I-62500J0D01*
G01*
X305780686Y-62682760D01*
G75*
G02*
X305718186Y-62620260I0J62500D01*
G01*
X305718186Y-62495260D01*
G75*
G02*
X305780686Y-62432760I62500J0D01*
G01*
G37*
G36*
G01*
X305780686Y-62932760D02*
X306530686Y-62932760D01*
G75*
G02*
X306593186Y-62995260I0J-62500D01*
G01*
X306593186Y-63120260D01*
G75*
G02*
X306530686Y-63182760I-62500J0D01*
G01*
X305780686Y-63182760D01*
G75*
G02*
X305718186Y-63120260I0J62500D01*
G01*
X305718186Y-62995260D01*
G75*
G02*
X305780686Y-62932760I62500J0D01*
G01*
G37*
G36*
G01*
X305780686Y-63432760D02*
X306530686Y-63432760D01*
G75*
G02*
X306593186Y-63495260I0J-62500D01*
G01*
X306593186Y-63620260D01*
G75*
G02*
X306530686Y-63682760I-62500J0D01*
G01*
X305780686Y-63682760D01*
G75*
G02*
X305718186Y-63620260I0J62500D01*
G01*
X305718186Y-63495260D01*
G75*
G02*
X305780686Y-63432760I62500J0D01*
G01*
G37*
G36*
G01*
X305780686Y-63932760D02*
X306530686Y-63932760D01*
G75*
G02*
X306593186Y-63995260I0J-62500D01*
G01*
X306593186Y-64120260D01*
G75*
G02*
X306530686Y-64182760I-62500J0D01*
G01*
X305780686Y-64182760D01*
G75*
G02*
X305718186Y-64120260I0J62500D01*
G01*
X305718186Y-63995260D01*
G75*
G02*
X305780686Y-63932760I62500J0D01*
G01*
G37*
G36*
G01*
X305780686Y-64432760D02*
X306530686Y-64432760D01*
G75*
G02*
X306593186Y-64495260I0J-62500D01*
G01*
X306593186Y-64620260D01*
G75*
G02*
X306530686Y-64682760I-62500J0D01*
G01*
X305780686Y-64682760D01*
G75*
G02*
X305718186Y-64620260I0J62500D01*
G01*
X305718186Y-64495260D01*
G75*
G02*
X305780686Y-64432760I62500J0D01*
G01*
G37*
G36*
G01*
X305780686Y-64932760D02*
X306530686Y-64932760D01*
G75*
G02*
X306593186Y-64995260I0J-62500D01*
G01*
X306593186Y-65120260D01*
G75*
G02*
X306530686Y-65182760I-62500J0D01*
G01*
X305780686Y-65182760D01*
G75*
G02*
X305718186Y-65120260I0J62500D01*
G01*
X305718186Y-64995260D01*
G75*
G02*
X305780686Y-64932760I62500J0D01*
G01*
G37*
G36*
G01*
X305155686Y-65557760D02*
X305280686Y-65557760D01*
G75*
G02*
X305343186Y-65620260I0J-62500D01*
G01*
X305343186Y-66370260D01*
G75*
G02*
X305280686Y-66432760I-62500J0D01*
G01*
X305155686Y-66432760D01*
G75*
G02*
X305093186Y-66370260I0J62500D01*
G01*
X305093186Y-65620260D01*
G75*
G02*
X305155686Y-65557760I62500J0D01*
G01*
G37*
G36*
G01*
X304655686Y-65557760D02*
X304780686Y-65557760D01*
G75*
G02*
X304843186Y-65620260I0J-62500D01*
G01*
X304843186Y-66370260D01*
G75*
G02*
X304780686Y-66432760I-62500J0D01*
G01*
X304655686Y-66432760D01*
G75*
G02*
X304593186Y-66370260I0J62500D01*
G01*
X304593186Y-65620260D01*
G75*
G02*
X304655686Y-65557760I62500J0D01*
G01*
G37*
G36*
G01*
X304155686Y-65557760D02*
X304280686Y-65557760D01*
G75*
G02*
X304343186Y-65620260I0J-62500D01*
G01*
X304343186Y-66370260D01*
G75*
G02*
X304280686Y-66432760I-62500J0D01*
G01*
X304155686Y-66432760D01*
G75*
G02*
X304093186Y-66370260I0J62500D01*
G01*
X304093186Y-65620260D01*
G75*
G02*
X304155686Y-65557760I62500J0D01*
G01*
G37*
G36*
G01*
X303655686Y-65557760D02*
X303780686Y-65557760D01*
G75*
G02*
X303843186Y-65620260I0J-62500D01*
G01*
X303843186Y-66370260D01*
G75*
G02*
X303780686Y-66432760I-62500J0D01*
G01*
X303655686Y-66432760D01*
G75*
G02*
X303593186Y-66370260I0J62500D01*
G01*
X303593186Y-65620260D01*
G75*
G02*
X303655686Y-65557760I62500J0D01*
G01*
G37*
G36*
G01*
X303155686Y-65557760D02*
X303280686Y-65557760D01*
G75*
G02*
X303343186Y-65620260I0J-62500D01*
G01*
X303343186Y-66370260D01*
G75*
G02*
X303280686Y-66432760I-62500J0D01*
G01*
X303155686Y-66432760D01*
G75*
G02*
X303093186Y-66370260I0J62500D01*
G01*
X303093186Y-65620260D01*
G75*
G02*
X303155686Y-65557760I62500J0D01*
G01*
G37*
G36*
G01*
X302655686Y-65557760D02*
X302780686Y-65557760D01*
G75*
G02*
X302843186Y-65620260I0J-62500D01*
G01*
X302843186Y-66370260D01*
G75*
G02*
X302780686Y-66432760I-62500J0D01*
G01*
X302655686Y-66432760D01*
G75*
G02*
X302593186Y-66370260I0J62500D01*
G01*
X302593186Y-65620260D01*
G75*
G02*
X302655686Y-65557760I62500J0D01*
G01*
G37*
G36*
G01*
X302155686Y-65557760D02*
X302280686Y-65557760D01*
G75*
G02*
X302343186Y-65620260I0J-62500D01*
G01*
X302343186Y-66370260D01*
G75*
G02*
X302280686Y-66432760I-62500J0D01*
G01*
X302155686Y-66432760D01*
G75*
G02*
X302093186Y-66370260I0J62500D01*
G01*
X302093186Y-65620260D01*
G75*
G02*
X302155686Y-65557760I62500J0D01*
G01*
G37*
G36*
G01*
X301655686Y-65557760D02*
X301780686Y-65557760D01*
G75*
G02*
X301843186Y-65620260I0J-62500D01*
G01*
X301843186Y-66370260D01*
G75*
G02*
X301780686Y-66432760I-62500J0D01*
G01*
X301655686Y-66432760D01*
G75*
G02*
X301593186Y-66370260I0J62500D01*
G01*
X301593186Y-65620260D01*
G75*
G02*
X301655686Y-65557760I62500J0D01*
G01*
G37*
G36*
G01*
X301155686Y-65557760D02*
X301280686Y-65557760D01*
G75*
G02*
X301343186Y-65620260I0J-62500D01*
G01*
X301343186Y-66370260D01*
G75*
G02*
X301280686Y-66432760I-62500J0D01*
G01*
X301155686Y-66432760D01*
G75*
G02*
X301093186Y-66370260I0J62500D01*
G01*
X301093186Y-65620260D01*
G75*
G02*
X301155686Y-65557760I62500J0D01*
G01*
G37*
G36*
G01*
X300655686Y-65557760D02*
X300780686Y-65557760D01*
G75*
G02*
X300843186Y-65620260I0J-62500D01*
G01*
X300843186Y-66370260D01*
G75*
G02*
X300780686Y-66432760I-62500J0D01*
G01*
X300655686Y-66432760D01*
G75*
G02*
X300593186Y-66370260I0J62500D01*
G01*
X300593186Y-65620260D01*
G75*
G02*
X300655686Y-65557760I62500J0D01*
G01*
G37*
G36*
G01*
X300155686Y-65557760D02*
X300280686Y-65557760D01*
G75*
G02*
X300343186Y-65620260I0J-62500D01*
G01*
X300343186Y-66370260D01*
G75*
G02*
X300280686Y-66432760I-62500J0D01*
G01*
X300155686Y-66432760D01*
G75*
G02*
X300093186Y-66370260I0J62500D01*
G01*
X300093186Y-65620260D01*
G75*
G02*
X300155686Y-65557760I62500J0D01*
G01*
G37*
G36*
G01*
X298905686Y-64932760D02*
X299655686Y-64932760D01*
G75*
G02*
X299718186Y-64995260I0J-62500D01*
G01*
X299718186Y-65120260D01*
G75*
G02*
X299655686Y-65182760I-62500J0D01*
G01*
X298905686Y-65182760D01*
G75*
G02*
X298843186Y-65120260I0J62500D01*
G01*
X298843186Y-64995260D01*
G75*
G02*
X298905686Y-64932760I62500J0D01*
G01*
G37*
G36*
G01*
X298905686Y-64432760D02*
X299655686Y-64432760D01*
G75*
G02*
X299718186Y-64495260I0J-62500D01*
G01*
X299718186Y-64620260D01*
G75*
G02*
X299655686Y-64682760I-62500J0D01*
G01*
X298905686Y-64682760D01*
G75*
G02*
X298843186Y-64620260I0J62500D01*
G01*
X298843186Y-64495260D01*
G75*
G02*
X298905686Y-64432760I62500J0D01*
G01*
G37*
G36*
G01*
X298905686Y-63932760D02*
X299655686Y-63932760D01*
G75*
G02*
X299718186Y-63995260I0J-62500D01*
G01*
X299718186Y-64120260D01*
G75*
G02*
X299655686Y-64182760I-62500J0D01*
G01*
X298905686Y-64182760D01*
G75*
G02*
X298843186Y-64120260I0J62500D01*
G01*
X298843186Y-63995260D01*
G75*
G02*
X298905686Y-63932760I62500J0D01*
G01*
G37*
G36*
G01*
X298905686Y-63432760D02*
X299655686Y-63432760D01*
G75*
G02*
X299718186Y-63495260I0J-62500D01*
G01*
X299718186Y-63620260D01*
G75*
G02*
X299655686Y-63682760I-62500J0D01*
G01*
X298905686Y-63682760D01*
G75*
G02*
X298843186Y-63620260I0J62500D01*
G01*
X298843186Y-63495260D01*
G75*
G02*
X298905686Y-63432760I62500J0D01*
G01*
G37*
G36*
G01*
X298905686Y-62932760D02*
X299655686Y-62932760D01*
G75*
G02*
X299718186Y-62995260I0J-62500D01*
G01*
X299718186Y-63120260D01*
G75*
G02*
X299655686Y-63182760I-62500J0D01*
G01*
X298905686Y-63182760D01*
G75*
G02*
X298843186Y-63120260I0J62500D01*
G01*
X298843186Y-62995260D01*
G75*
G02*
X298905686Y-62932760I62500J0D01*
G01*
G37*
G36*
G01*
X298905686Y-62432760D02*
X299655686Y-62432760D01*
G75*
G02*
X299718186Y-62495260I0J-62500D01*
G01*
X299718186Y-62620260D01*
G75*
G02*
X299655686Y-62682760I-62500J0D01*
G01*
X298905686Y-62682760D01*
G75*
G02*
X298843186Y-62620260I0J62500D01*
G01*
X298843186Y-62495260D01*
G75*
G02*
X298905686Y-62432760I62500J0D01*
G01*
G37*
G36*
G01*
X298905686Y-61932760D02*
X299655686Y-61932760D01*
G75*
G02*
X299718186Y-61995260I0J-62500D01*
G01*
X299718186Y-62120260D01*
G75*
G02*
X299655686Y-62182760I-62500J0D01*
G01*
X298905686Y-62182760D01*
G75*
G02*
X298843186Y-62120260I0J62500D01*
G01*
X298843186Y-61995260D01*
G75*
G02*
X298905686Y-61932760I62500J0D01*
G01*
G37*
G36*
G01*
X298905686Y-61432760D02*
X299655686Y-61432760D01*
G75*
G02*
X299718186Y-61495260I0J-62500D01*
G01*
X299718186Y-61620260D01*
G75*
G02*
X299655686Y-61682760I-62500J0D01*
G01*
X298905686Y-61682760D01*
G75*
G02*
X298843186Y-61620260I0J62500D01*
G01*
X298843186Y-61495260D01*
G75*
G02*
X298905686Y-61432760I62500J0D01*
G01*
G37*
G36*
G01*
X298905686Y-60932760D02*
X299655686Y-60932760D01*
G75*
G02*
X299718186Y-60995260I0J-62500D01*
G01*
X299718186Y-61120260D01*
G75*
G02*
X299655686Y-61182760I-62500J0D01*
G01*
X298905686Y-61182760D01*
G75*
G02*
X298843186Y-61120260I0J62500D01*
G01*
X298843186Y-60995260D01*
G75*
G02*
X298905686Y-60932760I62500J0D01*
G01*
G37*
G36*
G01*
X298905686Y-60432760D02*
X299655686Y-60432760D01*
G75*
G02*
X299718186Y-60495260I0J-62500D01*
G01*
X299718186Y-60620260D01*
G75*
G02*
X299655686Y-60682760I-62500J0D01*
G01*
X298905686Y-60682760D01*
G75*
G02*
X298843186Y-60620260I0J62500D01*
G01*
X298843186Y-60495260D01*
G75*
G02*
X298905686Y-60432760I62500J0D01*
G01*
G37*
G36*
G01*
X298905686Y-59932760D02*
X299655686Y-59932760D01*
G75*
G02*
X299718186Y-59995260I0J-62500D01*
G01*
X299718186Y-60120260D01*
G75*
G02*
X299655686Y-60182760I-62500J0D01*
G01*
X298905686Y-60182760D01*
G75*
G02*
X298843186Y-60120260I0J62500D01*
G01*
X298843186Y-59995260D01*
G75*
G02*
X298905686Y-59932760I62500J0D01*
G01*
G37*
D36*
X302718186Y-62557760D03*
%TD*%
%TO.C,MX1*%
G36*
G01*
X11758171Y-5919309D02*
X11797619Y-5340653D01*
G75*
G02*
X13129743Y-4178567I1247105J-85019D01*
G01*
X13129743Y-4178567D01*
G75*
G02*
X14291829Y-5510691I-85019J-1247105D01*
G01*
X14252381Y-6089347D01*
G75*
G02*
X12920257Y-7251433I-1247105J85019D01*
G01*
X12920257Y-7251433D01*
G75*
G02*
X11758171Y-5919309I85019J1247105D01*
G01*
G37*
G36*
G01*
X5591299Y-7262190D02*
X6800223Y-5364560D01*
G75*
G02*
X8526087Y-4981946I1054239J-671625D01*
G01*
X8526087Y-4981946D01*
G75*
G02*
X8908701Y-6707810I-671625J-1054239D01*
G01*
X7699777Y-8605440D01*
G75*
G02*
X5973913Y-8988054I-1054239J671625D01*
G01*
X5973913Y-8988054D01*
G75*
G02*
X5591299Y-7262190I671625J1054239D01*
G01*
G37*
D18*
X15585000Y-10505000D03*
X5425000Y-10505000D03*
D17*
X10505000Y-10505000D03*
%TD*%
%TO.C,MX60*%
G36*
G01*
X266266921Y-62949309D02*
X266306369Y-62370653D01*
G75*
G02*
X267638493Y-61208567I1247105J-85019D01*
G01*
X267638493Y-61208567D01*
G75*
G02*
X268800579Y-62540691I-85019J-1247105D01*
G01*
X268761131Y-63119347D01*
G75*
G02*
X267429007Y-64281433I-1247105J85019D01*
G01*
X267429007Y-64281433D01*
G75*
G02*
X266266921Y-62949309I85019J1247105D01*
G01*
G37*
G36*
G01*
X260100049Y-64292190D02*
X261308973Y-62394560D01*
G75*
G02*
X263034837Y-62011946I1054239J-671625D01*
G01*
X263034837Y-62011946D01*
G75*
G02*
X263417451Y-63737810I-671625J-1054239D01*
G01*
X262208527Y-65635440D01*
G75*
G02*
X260482663Y-66018054I-1054239J671625D01*
G01*
X260482663Y-66018054D01*
G75*
G02*
X260100049Y-64292190I671625J1054239D01*
G01*
G37*
D18*
X270093750Y-67535000D03*
X259933750Y-67535000D03*
D17*
X265013750Y-67535000D03*
%TD*%
%TO.C,MX58*%
X12881200Y-67535000D03*
D18*
X7801200Y-67535000D03*
X17961200Y-67535000D03*
G36*
G01*
X7967499Y-64292190D02*
X9176423Y-62394560D01*
G75*
G02*
X10902287Y-62011946I1054239J-671625D01*
G01*
X10902287Y-62011946D01*
G75*
G02*
X11284901Y-63737810I-671625J-1054239D01*
G01*
X10075977Y-65635440D01*
G75*
G02*
X8350113Y-66018054I-1054239J671625D01*
G01*
X8350113Y-66018054D01*
G75*
G02*
X7967499Y-64292190I671625J1054239D01*
G01*
G37*
G36*
G01*
X14134371Y-62949309D02*
X14173819Y-62370653D01*
G75*
G02*
X15505943Y-61208567I1247105J-85019D01*
G01*
X15505943Y-61208567D01*
G75*
G02*
X16668029Y-62540691I-85019J-1247105D01*
G01*
X16628581Y-63119347D01*
G75*
G02*
X15296457Y-64281433I-1247105J85019D01*
G01*
X15296457Y-64281433D01*
G75*
G02*
X14134371Y-62949309I85019J1247105D01*
G01*
G37*
%TD*%
D20*
%TO.C,R6*%
X296467368Y-67213682D03*
X296467368Y-69113682D03*
%TD*%
D26*
%TO.C,R5*%
X309621346Y-56852678D03*
X307721346Y-56852678D03*
%TD*%
D22*
%TO.C,D57*%
X246630000Y-8855000D03*
X246630000Y-12155000D03*
%TD*%
%TO.C,D53*%
X249630000Y-8855000D03*
X249630000Y-12155000D03*
%TD*%
%TO.C,D49*%
X230620000Y-8855000D03*
X230620000Y-12155000D03*
%TD*%
%TO.C,D45*%
X227620000Y-8855000D03*
X227620000Y-12155000D03*
%TD*%
%TO.C,D41*%
X210110000Y-8855000D03*
X210110000Y-12155000D03*
%TD*%
%TO.C,D37*%
X191100000Y-8855000D03*
X191100000Y-12155000D03*
%TD*%
%TO.C,D33*%
X172090000Y-8855000D03*
X172090000Y-12155000D03*
%TD*%
%TO.C,D29*%
X153080000Y-8855000D03*
X153080000Y-12155000D03*
%TD*%
%TO.C,D25*%
X134070000Y-8855000D03*
X134070000Y-12155000D03*
%TD*%
%TO.C,D21*%
X115060000Y-8855000D03*
X115060000Y-12155000D03*
%TD*%
%TO.C,D17*%
X96050000Y-8855000D03*
X96050000Y-12155000D03*
%TD*%
%TO.C,D13*%
X77040000Y-8855000D03*
X77040000Y-12155000D03*
%TD*%
%TO.C,D9*%
X58030000Y-8855000D03*
X58030000Y-12155000D03*
%TD*%
%TO.C,D5*%
X37520000Y-8855000D03*
X37520000Y-12155000D03*
%TD*%
%TO.C,D1*%
X40520000Y-8855000D03*
X40520000Y-12155000D03*
%TD*%
D37*
%TO.C,C7*%
X305242424Y-67866024D03*
X306742424Y-67866024D03*
%TD*%
%TO.C,C5*%
X297515026Y-65484760D03*
X296015026Y-65484760D03*
%TD*%
%TO.C,C4*%
X308814320Y-59531600D03*
X310314320Y-59531600D03*
%TD*%
D27*
%TO.C,C1*%
X298253316Y-57007362D03*
X298253316Y-55507362D03*
%TD*%
D17*
%TO.C,MX4*%
X22386300Y-67535000D03*
D18*
X17306300Y-67535000D03*
X27466300Y-67535000D03*
D19*
X10448300Y-60550000D03*
X34324300Y-60550000D03*
D17*
X10448300Y-75790000D03*
X34324300Y-75790000D03*
G36*
G01*
X17472599Y-64292190D02*
X18681523Y-62394560D01*
G75*
G02*
X20407387Y-62011946I1054239J-671625D01*
G01*
X20407387Y-62011946D01*
G75*
G02*
X20790001Y-63737810I-671625J-1054239D01*
G01*
X19581077Y-65635440D01*
G75*
G02*
X17855213Y-66018054I-1054239J671625D01*
G01*
X17855213Y-66018054D01*
G75*
G02*
X17472599Y-64292190I671625J1054239D01*
G01*
G37*
G36*
G01*
X23639471Y-62949309D02*
X23678919Y-62370653D01*
G75*
G02*
X25011043Y-61208567I1247105J-85019D01*
G01*
X25011043Y-61208567D01*
G75*
G02*
X26173129Y-62540691I-85019J-1247105D01*
G01*
X26133681Y-63119347D01*
G75*
G02*
X24801557Y-64281433I-1247105J85019D01*
G01*
X24801557Y-64281433D01*
G75*
G02*
X23639471Y-62949309I85019J1247105D01*
G01*
G37*
%TD*%
%TO.C,MX45*%
G36*
G01*
X220868171Y-5919309D02*
X220907619Y-5340653D01*
G75*
G02*
X222239743Y-4178567I1247105J-85019D01*
G01*
X222239743Y-4178567D01*
G75*
G02*
X223401829Y-5510691I-85019J-1247105D01*
G01*
X223362381Y-6089347D01*
G75*
G02*
X222030257Y-7251433I-1247105J85019D01*
G01*
X222030257Y-7251433D01*
G75*
G02*
X220868171Y-5919309I85019J1247105D01*
G01*
G37*
G36*
G01*
X214701299Y-7262190D02*
X215910223Y-5364560D01*
G75*
G02*
X217636087Y-4981946I1054239J-671625D01*
G01*
X217636087Y-4981946D01*
G75*
G02*
X218018701Y-6707810I-671625J-1054239D01*
G01*
X216809777Y-8605440D01*
G75*
G02*
X215083913Y-8988054I-1054239J671625D01*
G01*
X215083913Y-8988054D01*
G75*
G02*
X214701299Y-7262190I671625J1054239D01*
G01*
G37*
D18*
X224695000Y-10505000D03*
X214535000Y-10505000D03*
D17*
X219615000Y-10505000D03*
%TD*%
%TO.C,MX61*%
G36*
G01*
X306713171Y-5919309D02*
X306752619Y-5340653D01*
G75*
G02*
X308084743Y-4178567I1247105J-85019D01*
G01*
X308084743Y-4178567D01*
G75*
G02*
X309246829Y-5510691I-85019J-1247105D01*
G01*
X309207381Y-6089347D01*
G75*
G02*
X307875257Y-7251433I-1247105J85019D01*
G01*
X307875257Y-7251433D01*
G75*
G02*
X306713171Y-5919309I85019J1247105D01*
G01*
G37*
G36*
G01*
X300546299Y-7262190D02*
X301755223Y-5364560D01*
G75*
G02*
X303481087Y-4981946I1054239J-671625D01*
G01*
X303481087Y-4981946D01*
G75*
G02*
X303863701Y-6707810I-671625J-1054239D01*
G01*
X302654777Y-8605440D01*
G75*
G02*
X300928913Y-8988054I-1054239J671625D01*
G01*
X300928913Y-8988054D01*
G75*
G02*
X300546299Y-7262190I671625J1054239D01*
G01*
G37*
D18*
X310540000Y-10505000D03*
X300380000Y-10505000D03*
D17*
X305460000Y-10505000D03*
%TD*%
%TO.C,MX57*%
G36*
G01*
X277898171Y-5919309D02*
X277937619Y-5340653D01*
G75*
G02*
X279269743Y-4178567I1247105J-85019D01*
G01*
X279269743Y-4178567D01*
G75*
G02*
X280431829Y-5510691I-85019J-1247105D01*
G01*
X280392381Y-6089347D01*
G75*
G02*
X279060257Y-7251433I-1247105J85019D01*
G01*
X279060257Y-7251433D01*
G75*
G02*
X277898171Y-5919309I85019J1247105D01*
G01*
G37*
G36*
G01*
X271731299Y-7262190D02*
X272940223Y-5364560D01*
G75*
G02*
X274666087Y-4981946I1054239J-671625D01*
G01*
X274666087Y-4981946D01*
G75*
G02*
X275048701Y-6707810I-671625J-1054239D01*
G01*
X273839777Y-8605440D01*
G75*
G02*
X272113913Y-8988054I-1054239J671625D01*
G01*
X272113913Y-8988054D01*
G75*
G02*
X271731299Y-7262190I671625J1054239D01*
G01*
G37*
D18*
X281725000Y-10505000D03*
X271565000Y-10505000D03*
D17*
X276645000Y-10505000D03*
%TD*%
%TO.C,MX56*%
X286400000Y-67535000D03*
D18*
X281320000Y-67535000D03*
X291480000Y-67535000D03*
G36*
G01*
X281486299Y-64292190D02*
X282695223Y-62394560D01*
G75*
G02*
X284421087Y-62011946I1054239J-671625D01*
G01*
X284421087Y-62011946D01*
G75*
G02*
X284803701Y-63737810I-671625J-1054239D01*
G01*
X283594777Y-65635440D01*
G75*
G02*
X281868913Y-66018054I-1054239J671625D01*
G01*
X281868913Y-66018054D01*
G75*
G02*
X281486299Y-64292190I671625J1054239D01*
G01*
G37*
G36*
G01*
X287653171Y-62949309D02*
X287692619Y-62370653D01*
G75*
G02*
X289024743Y-61208567I1247105J-85019D01*
G01*
X289024743Y-61208567D01*
G75*
G02*
X290186829Y-62540691I-85019J-1247105D01*
G01*
X290147381Y-63119347D01*
G75*
G02*
X288815257Y-64281433I-1247105J85019D01*
G01*
X288815257Y-64281433D01*
G75*
G02*
X287653171Y-62949309I85019J1247105D01*
G01*
G37*
%TD*%
%TO.C,MX53*%
G36*
G01*
X258888171Y-5919309D02*
X258927619Y-5340653D01*
G75*
G02*
X260259743Y-4178567I1247105J-85019D01*
G01*
X260259743Y-4178567D01*
G75*
G02*
X261421829Y-5510691I-85019J-1247105D01*
G01*
X261382381Y-6089347D01*
G75*
G02*
X260050257Y-7251433I-1247105J85019D01*
G01*
X260050257Y-7251433D01*
G75*
G02*
X258888171Y-5919309I85019J1247105D01*
G01*
G37*
G36*
G01*
X252721299Y-7262190D02*
X253930223Y-5364560D01*
G75*
G02*
X255656087Y-4981946I1054239J-671625D01*
G01*
X255656087Y-4981946D01*
G75*
G02*
X256038701Y-6707810I-671625J-1054239D01*
G01*
X254829777Y-8605440D01*
G75*
G02*
X253103913Y-8988054I-1054239J671625D01*
G01*
X253103913Y-8988054D01*
G75*
G02*
X252721299Y-7262190I671625J1054239D01*
G01*
G37*
X262715000Y-10505000D03*
X252555000Y-10505000D03*
D17*
X257635000Y-10505000D03*
%TD*%
%TO.C,MX48*%
X224367500Y-67535000D03*
D18*
X219287500Y-67535000D03*
X229447500Y-67535000D03*
G36*
G01*
X219453799Y-64292190D02*
X220662723Y-62394560D01*
G75*
G02*
X222388587Y-62011946I1054239J-671625D01*
G01*
X222388587Y-62011946D01*
G75*
G02*
X222771201Y-63737810I-671625J-1054239D01*
G01*
X221562277Y-65635440D01*
G75*
G02*
X219836413Y-66018054I-1054239J671625D01*
G01*
X219836413Y-66018054D01*
G75*
G02*
X219453799Y-64292190I671625J1054239D01*
G01*
G37*
G36*
G01*
X225620671Y-62949309D02*
X225660119Y-62370653D01*
G75*
G02*
X226992243Y-61208567I1247105J-85019D01*
G01*
X226992243Y-61208567D01*
G75*
G02*
X228154329Y-62540691I-85019J-1247105D01*
G01*
X228114881Y-63119347D01*
G75*
G02*
X226782757Y-64281433I-1247105J85019D01*
G01*
X226782757Y-64281433D01*
G75*
G02*
X225620671Y-62949309I85019J1247105D01*
G01*
G37*
%TD*%
D17*
%TO.C,MX47*%
X233872500Y-48525000D03*
D18*
X228792500Y-48525000D03*
X238952500Y-48525000D03*
G36*
G01*
X228958799Y-45282190D02*
X230167723Y-43384560D01*
G75*
G02*
X231893587Y-43001946I1054239J-671625D01*
G01*
X231893587Y-43001946D01*
G75*
G02*
X232276201Y-44727810I-671625J-1054239D01*
G01*
X231067277Y-46625440D01*
G75*
G02*
X229341413Y-47008054I-1054239J671625D01*
G01*
X229341413Y-47008054D01*
G75*
G02*
X228958799Y-45282190I671625J1054239D01*
G01*
G37*
G36*
G01*
X235125671Y-43939309D02*
X235165119Y-43360653D01*
G75*
G02*
X236497243Y-42198567I1247105J-85019D01*
G01*
X236497243Y-42198567D01*
G75*
G02*
X237659329Y-43530691I-85019J-1247105D01*
G01*
X237619881Y-44109347D01*
G75*
G02*
X236287757Y-45271433I-1247105J85019D01*
G01*
X236287757Y-45271433D01*
G75*
G02*
X235125671Y-43939309I85019J1247105D01*
G01*
G37*
%TD*%
D17*
%TO.C,MX46*%
X229120000Y-29515000D03*
D18*
X224040000Y-29515000D03*
X234200000Y-29515000D03*
G36*
G01*
X224206299Y-26272190D02*
X225415223Y-24374560D01*
G75*
G02*
X227141087Y-23991946I1054239J-671625D01*
G01*
X227141087Y-23991946D01*
G75*
G02*
X227523701Y-25717810I-671625J-1054239D01*
G01*
X226314777Y-27615440D01*
G75*
G02*
X224588913Y-27998054I-1054239J671625D01*
G01*
X224588913Y-27998054D01*
G75*
G02*
X224206299Y-26272190I671625J1054239D01*
G01*
G37*
G36*
G01*
X230373171Y-24929309D02*
X230412619Y-24350653D01*
G75*
G02*
X231744743Y-23188567I1247105J-85019D01*
G01*
X231744743Y-23188567D01*
G75*
G02*
X232906829Y-24520691I-85019J-1247105D01*
G01*
X232867381Y-25099347D01*
G75*
G02*
X231535257Y-26261433I-1247105J85019D01*
G01*
X231535257Y-26261433D01*
G75*
G02*
X230373171Y-24929309I85019J1247105D01*
G01*
G37*
%TD*%
D17*
%TO.C,MX43*%
X214862500Y-48525000D03*
D18*
X209782500Y-48525000D03*
X219942500Y-48525000D03*
G36*
G01*
X209948799Y-45282190D02*
X211157723Y-43384560D01*
G75*
G02*
X212883587Y-43001946I1054239J-671625D01*
G01*
X212883587Y-43001946D01*
G75*
G02*
X213266201Y-44727810I-671625J-1054239D01*
G01*
X212057277Y-46625440D01*
G75*
G02*
X210331413Y-47008054I-1054239J671625D01*
G01*
X210331413Y-47008054D01*
G75*
G02*
X209948799Y-45282190I671625J1054239D01*
G01*
G37*
G36*
G01*
X216115671Y-43939309D02*
X216155119Y-43360653D01*
G75*
G02*
X217487243Y-42198567I1247105J-85019D01*
G01*
X217487243Y-42198567D01*
G75*
G02*
X218649329Y-43530691I-85019J-1247105D01*
G01*
X218609881Y-44109347D01*
G75*
G02*
X217277757Y-45271433I-1247105J85019D01*
G01*
X217277757Y-45271433D01*
G75*
G02*
X216115671Y-43939309I85019J1247105D01*
G01*
G37*
%TD*%
D17*
%TO.C,MX42*%
X210110000Y-29515000D03*
D18*
X205030000Y-29515000D03*
X215190000Y-29515000D03*
G36*
G01*
X205196299Y-26272190D02*
X206405223Y-24374560D01*
G75*
G02*
X208131087Y-23991946I1054239J-671625D01*
G01*
X208131087Y-23991946D01*
G75*
G02*
X208513701Y-25717810I-671625J-1054239D01*
G01*
X207304777Y-27615440D01*
G75*
G02*
X205578913Y-27998054I-1054239J671625D01*
G01*
X205578913Y-27998054D01*
G75*
G02*
X205196299Y-26272190I671625J1054239D01*
G01*
G37*
G36*
G01*
X211363171Y-24929309D02*
X211402619Y-24350653D01*
G75*
G02*
X212734743Y-23188567I1247105J-85019D01*
G01*
X212734743Y-23188567D01*
G75*
G02*
X213896829Y-24520691I-85019J-1247105D01*
G01*
X213857381Y-25099347D01*
G75*
G02*
X212525257Y-26261433I-1247105J85019D01*
G01*
X212525257Y-26261433D01*
G75*
G02*
X211363171Y-24929309I85019J1247105D01*
G01*
G37*
%TD*%
%TO.C,MX41*%
G36*
G01*
X201858171Y-5919309D02*
X201897619Y-5340653D01*
G75*
G02*
X203229743Y-4178567I1247105J-85019D01*
G01*
X203229743Y-4178567D01*
G75*
G02*
X204391829Y-5510691I-85019J-1247105D01*
G01*
X204352381Y-6089347D01*
G75*
G02*
X203020257Y-7251433I-1247105J85019D01*
G01*
X203020257Y-7251433D01*
G75*
G02*
X201858171Y-5919309I85019J1247105D01*
G01*
G37*
G36*
G01*
X195691299Y-7262190D02*
X196900223Y-5364560D01*
G75*
G02*
X198626087Y-4981946I1054239J-671625D01*
G01*
X198626087Y-4981946D01*
G75*
G02*
X199008701Y-6707810I-671625J-1054239D01*
G01*
X197799777Y-8605440D01*
G75*
G02*
X196073913Y-8988054I-1054239J671625D01*
G01*
X196073913Y-8988054D01*
G75*
G02*
X195691299Y-7262190I671625J1054239D01*
G01*
G37*
X205685000Y-10505000D03*
X195525000Y-10505000D03*
D17*
X200605000Y-10505000D03*
%TD*%
%TO.C,MX40*%
X186347500Y-67535000D03*
D18*
X181267500Y-67535000D03*
X191427500Y-67535000D03*
G36*
G01*
X181433799Y-64292190D02*
X182642723Y-62394560D01*
G75*
G02*
X184368587Y-62011946I1054239J-671625D01*
G01*
X184368587Y-62011946D01*
G75*
G02*
X184751201Y-63737810I-671625J-1054239D01*
G01*
X183542277Y-65635440D01*
G75*
G02*
X181816413Y-66018054I-1054239J671625D01*
G01*
X181816413Y-66018054D01*
G75*
G02*
X181433799Y-64292190I671625J1054239D01*
G01*
G37*
G36*
G01*
X187600671Y-62949309D02*
X187640119Y-62370653D01*
G75*
G02*
X188972243Y-61208567I1247105J-85019D01*
G01*
X188972243Y-61208567D01*
G75*
G02*
X190134329Y-62540691I-85019J-1247105D01*
G01*
X190094881Y-63119347D01*
G75*
G02*
X188762757Y-64281433I-1247105J85019D01*
G01*
X188762757Y-64281433D01*
G75*
G02*
X187600671Y-62949309I85019J1247105D01*
G01*
G37*
%TD*%
D17*
%TO.C,MX39*%
X195852500Y-48525000D03*
D18*
X190772500Y-48525000D03*
X200932500Y-48525000D03*
G36*
G01*
X190938799Y-45282190D02*
X192147723Y-43384560D01*
G75*
G02*
X193873587Y-43001946I1054239J-671625D01*
G01*
X193873587Y-43001946D01*
G75*
G02*
X194256201Y-44727810I-671625J-1054239D01*
G01*
X193047277Y-46625440D01*
G75*
G02*
X191321413Y-47008054I-1054239J671625D01*
G01*
X191321413Y-47008054D01*
G75*
G02*
X190938799Y-45282190I671625J1054239D01*
G01*
G37*
G36*
G01*
X197105671Y-43939309D02*
X197145119Y-43360653D01*
G75*
G02*
X198477243Y-42198567I1247105J-85019D01*
G01*
X198477243Y-42198567D01*
G75*
G02*
X199639329Y-43530691I-85019J-1247105D01*
G01*
X199599881Y-44109347D01*
G75*
G02*
X198267757Y-45271433I-1247105J85019D01*
G01*
X198267757Y-45271433D01*
G75*
G02*
X197105671Y-43939309I85019J1247105D01*
G01*
G37*
%TD*%
D17*
%TO.C,MX38*%
X191100000Y-29515000D03*
D18*
X186020000Y-29515000D03*
X196180000Y-29515000D03*
G36*
G01*
X186186299Y-26272190D02*
X187395223Y-24374560D01*
G75*
G02*
X189121087Y-23991946I1054239J-671625D01*
G01*
X189121087Y-23991946D01*
G75*
G02*
X189503701Y-25717810I-671625J-1054239D01*
G01*
X188294777Y-27615440D01*
G75*
G02*
X186568913Y-27998054I-1054239J671625D01*
G01*
X186568913Y-27998054D01*
G75*
G02*
X186186299Y-26272190I671625J1054239D01*
G01*
G37*
G36*
G01*
X192353171Y-24929309D02*
X192392619Y-24350653D01*
G75*
G02*
X193724743Y-23188567I1247105J-85019D01*
G01*
X193724743Y-23188567D01*
G75*
G02*
X194886829Y-24520691I-85019J-1247105D01*
G01*
X194847381Y-25099347D01*
G75*
G02*
X193515257Y-26261433I-1247105J85019D01*
G01*
X193515257Y-26261433D01*
G75*
G02*
X192353171Y-24929309I85019J1247105D01*
G01*
G37*
%TD*%
%TO.C,MX37*%
G36*
G01*
X182848171Y-5919309D02*
X182887619Y-5340653D01*
G75*
G02*
X184219743Y-4178567I1247105J-85019D01*
G01*
X184219743Y-4178567D01*
G75*
G02*
X185381829Y-5510691I-85019J-1247105D01*
G01*
X185342381Y-6089347D01*
G75*
G02*
X184010257Y-7251433I-1247105J85019D01*
G01*
X184010257Y-7251433D01*
G75*
G02*
X182848171Y-5919309I85019J1247105D01*
G01*
G37*
G36*
G01*
X176681299Y-7262190D02*
X177890223Y-5364560D01*
G75*
G02*
X179616087Y-4981946I1054239J-671625D01*
G01*
X179616087Y-4981946D01*
G75*
G02*
X179998701Y-6707810I-671625J-1054239D01*
G01*
X178789777Y-8605440D01*
G75*
G02*
X177063913Y-8988054I-1054239J671625D01*
G01*
X177063913Y-8988054D01*
G75*
G02*
X176681299Y-7262190I671625J1054239D01*
G01*
G37*
X186675000Y-10505000D03*
X176515000Y-10505000D03*
D17*
X181595000Y-10505000D03*
%TD*%
%TO.C,MX36*%
X167337500Y-67535000D03*
D18*
X162257500Y-67535000D03*
X172417500Y-67535000D03*
G36*
G01*
X162423799Y-64292190D02*
X163632723Y-62394560D01*
G75*
G02*
X165358587Y-62011946I1054239J-671625D01*
G01*
X165358587Y-62011946D01*
G75*
G02*
X165741201Y-63737810I-671625J-1054239D01*
G01*
X164532277Y-65635440D01*
G75*
G02*
X162806413Y-66018054I-1054239J671625D01*
G01*
X162806413Y-66018054D01*
G75*
G02*
X162423799Y-64292190I671625J1054239D01*
G01*
G37*
G36*
G01*
X168590671Y-62949309D02*
X168630119Y-62370653D01*
G75*
G02*
X169962243Y-61208567I1247105J-85019D01*
G01*
X169962243Y-61208567D01*
G75*
G02*
X171124329Y-62540691I-85019J-1247105D01*
G01*
X171084881Y-63119347D01*
G75*
G02*
X169752757Y-64281433I-1247105J85019D01*
G01*
X169752757Y-64281433D01*
G75*
G02*
X168590671Y-62949309I85019J1247105D01*
G01*
G37*
%TD*%
D17*
%TO.C,MX34*%
X172090000Y-29515000D03*
D18*
X167010000Y-29515000D03*
X177170000Y-29515000D03*
G36*
G01*
X167176299Y-26272190D02*
X168385223Y-24374560D01*
G75*
G02*
X170111087Y-23991946I1054239J-671625D01*
G01*
X170111087Y-23991946D01*
G75*
G02*
X170493701Y-25717810I-671625J-1054239D01*
G01*
X169284777Y-27615440D01*
G75*
G02*
X167558913Y-27998054I-1054239J671625D01*
G01*
X167558913Y-27998054D01*
G75*
G02*
X167176299Y-26272190I671625J1054239D01*
G01*
G37*
G36*
G01*
X173343171Y-24929309D02*
X173382619Y-24350653D01*
G75*
G02*
X174714743Y-23188567I1247105J-85019D01*
G01*
X174714743Y-23188567D01*
G75*
G02*
X175876829Y-24520691I-85019J-1247105D01*
G01*
X175837381Y-25099347D01*
G75*
G02*
X174505257Y-26261433I-1247105J85019D01*
G01*
X174505257Y-26261433D01*
G75*
G02*
X173343171Y-24929309I85019J1247105D01*
G01*
G37*
%TD*%
%TO.C,MX33*%
G36*
G01*
X163838171Y-5919309D02*
X163877619Y-5340653D01*
G75*
G02*
X165209743Y-4178567I1247105J-85019D01*
G01*
X165209743Y-4178567D01*
G75*
G02*
X166371829Y-5510691I-85019J-1247105D01*
G01*
X166332381Y-6089347D01*
G75*
G02*
X165000257Y-7251433I-1247105J85019D01*
G01*
X165000257Y-7251433D01*
G75*
G02*
X163838171Y-5919309I85019J1247105D01*
G01*
G37*
G36*
G01*
X157671299Y-7262190D02*
X158880223Y-5364560D01*
G75*
G02*
X160606087Y-4981946I1054239J-671625D01*
G01*
X160606087Y-4981946D01*
G75*
G02*
X160988701Y-6707810I-671625J-1054239D01*
G01*
X159779777Y-8605440D01*
G75*
G02*
X158053913Y-8988054I-1054239J671625D01*
G01*
X158053913Y-8988054D01*
G75*
G02*
X157671299Y-7262190I671625J1054239D01*
G01*
G37*
X167665000Y-10505000D03*
X157505000Y-10505000D03*
D17*
X162585000Y-10505000D03*
%TD*%
%TO.C,MX32*%
X148327500Y-67535000D03*
D18*
X143247500Y-67535000D03*
X153407500Y-67535000D03*
G36*
G01*
X143413799Y-64292190D02*
X144622723Y-62394560D01*
G75*
G02*
X146348587Y-62011946I1054239J-671625D01*
G01*
X146348587Y-62011946D01*
G75*
G02*
X146731201Y-63737810I-671625J-1054239D01*
G01*
X145522277Y-65635440D01*
G75*
G02*
X143796413Y-66018054I-1054239J671625D01*
G01*
X143796413Y-66018054D01*
G75*
G02*
X143413799Y-64292190I671625J1054239D01*
G01*
G37*
G36*
G01*
X149580671Y-62949309D02*
X149620119Y-62370653D01*
G75*
G02*
X150952243Y-61208567I1247105J-85019D01*
G01*
X150952243Y-61208567D01*
G75*
G02*
X152114329Y-62540691I-85019J-1247105D01*
G01*
X152074881Y-63119347D01*
G75*
G02*
X150742757Y-64281433I-1247105J85019D01*
G01*
X150742757Y-64281433D01*
G75*
G02*
X149580671Y-62949309I85019J1247105D01*
G01*
G37*
%TD*%
D17*
%TO.C,MX31*%
X157832500Y-48525000D03*
D18*
X152752500Y-48525000D03*
X162912500Y-48525000D03*
G36*
G01*
X152918799Y-45282190D02*
X154127723Y-43384560D01*
G75*
G02*
X155853587Y-43001946I1054239J-671625D01*
G01*
X155853587Y-43001946D01*
G75*
G02*
X156236201Y-44727810I-671625J-1054239D01*
G01*
X155027277Y-46625440D01*
G75*
G02*
X153301413Y-47008054I-1054239J671625D01*
G01*
X153301413Y-47008054D01*
G75*
G02*
X152918799Y-45282190I671625J1054239D01*
G01*
G37*
G36*
G01*
X159085671Y-43939309D02*
X159125119Y-43360653D01*
G75*
G02*
X160457243Y-42198567I1247105J-85019D01*
G01*
X160457243Y-42198567D01*
G75*
G02*
X161619329Y-43530691I-85019J-1247105D01*
G01*
X161579881Y-44109347D01*
G75*
G02*
X160247757Y-45271433I-1247105J85019D01*
G01*
X160247757Y-45271433D01*
G75*
G02*
X159085671Y-43939309I85019J1247105D01*
G01*
G37*
%TD*%
D17*
%TO.C,MX30*%
X153080000Y-29515000D03*
D18*
X148000000Y-29515000D03*
X158160000Y-29515000D03*
G36*
G01*
X148166299Y-26272190D02*
X149375223Y-24374560D01*
G75*
G02*
X151101087Y-23991946I1054239J-671625D01*
G01*
X151101087Y-23991946D01*
G75*
G02*
X151483701Y-25717810I-671625J-1054239D01*
G01*
X150274777Y-27615440D01*
G75*
G02*
X148548913Y-27998054I-1054239J671625D01*
G01*
X148548913Y-27998054D01*
G75*
G02*
X148166299Y-26272190I671625J1054239D01*
G01*
G37*
G36*
G01*
X154333171Y-24929309D02*
X154372619Y-24350653D01*
G75*
G02*
X155704743Y-23188567I1247105J-85019D01*
G01*
X155704743Y-23188567D01*
G75*
G02*
X156866829Y-24520691I-85019J-1247105D01*
G01*
X156827381Y-25099347D01*
G75*
G02*
X155495257Y-26261433I-1247105J85019D01*
G01*
X155495257Y-26261433D01*
G75*
G02*
X154333171Y-24929309I85019J1247105D01*
G01*
G37*
%TD*%
D17*
%TO.C,MX28*%
X129317500Y-67535000D03*
D18*
X124237500Y-67535000D03*
X134397500Y-67535000D03*
G36*
G01*
X124403799Y-64292190D02*
X125612723Y-62394560D01*
G75*
G02*
X127338587Y-62011946I1054239J-671625D01*
G01*
X127338587Y-62011946D01*
G75*
G02*
X127721201Y-63737810I-671625J-1054239D01*
G01*
X126512277Y-65635440D01*
G75*
G02*
X124786413Y-66018054I-1054239J671625D01*
G01*
X124786413Y-66018054D01*
G75*
G02*
X124403799Y-64292190I671625J1054239D01*
G01*
G37*
G36*
G01*
X130570671Y-62949309D02*
X130610119Y-62370653D01*
G75*
G02*
X131942243Y-61208567I1247105J-85019D01*
G01*
X131942243Y-61208567D01*
G75*
G02*
X133104329Y-62540691I-85019J-1247105D01*
G01*
X133064881Y-63119347D01*
G75*
G02*
X131732757Y-64281433I-1247105J85019D01*
G01*
X131732757Y-64281433D01*
G75*
G02*
X130570671Y-62949309I85019J1247105D01*
G01*
G37*
%TD*%
D17*
%TO.C,MX27*%
X138822500Y-48525000D03*
D18*
X133742500Y-48525000D03*
X143902500Y-48525000D03*
G36*
G01*
X133908799Y-45282190D02*
X135117723Y-43384560D01*
G75*
G02*
X136843587Y-43001946I1054239J-671625D01*
G01*
X136843587Y-43001946D01*
G75*
G02*
X137226201Y-44727810I-671625J-1054239D01*
G01*
X136017277Y-46625440D01*
G75*
G02*
X134291413Y-47008054I-1054239J671625D01*
G01*
X134291413Y-47008054D01*
G75*
G02*
X133908799Y-45282190I671625J1054239D01*
G01*
G37*
G36*
G01*
X140075671Y-43939309D02*
X140115119Y-43360653D01*
G75*
G02*
X141447243Y-42198567I1247105J-85019D01*
G01*
X141447243Y-42198567D01*
G75*
G02*
X142609329Y-43530691I-85019J-1247105D01*
G01*
X142569881Y-44109347D01*
G75*
G02*
X141237757Y-45271433I-1247105J85019D01*
G01*
X141237757Y-45271433D01*
G75*
G02*
X140075671Y-43939309I85019J1247105D01*
G01*
G37*
%TD*%
D17*
%TO.C,MX26*%
X134070000Y-29515000D03*
D18*
X128990000Y-29515000D03*
X139150000Y-29515000D03*
G36*
G01*
X129156299Y-26272190D02*
X130365223Y-24374560D01*
G75*
G02*
X132091087Y-23991946I1054239J-671625D01*
G01*
X132091087Y-23991946D01*
G75*
G02*
X132473701Y-25717810I-671625J-1054239D01*
G01*
X131264777Y-27615440D01*
G75*
G02*
X129538913Y-27998054I-1054239J671625D01*
G01*
X129538913Y-27998054D01*
G75*
G02*
X129156299Y-26272190I671625J1054239D01*
G01*
G37*
G36*
G01*
X135323171Y-24929309D02*
X135362619Y-24350653D01*
G75*
G02*
X136694743Y-23188567I1247105J-85019D01*
G01*
X136694743Y-23188567D01*
G75*
G02*
X137856829Y-24520691I-85019J-1247105D01*
G01*
X137817381Y-25099347D01*
G75*
G02*
X136485257Y-26261433I-1247105J85019D01*
G01*
X136485257Y-26261433D01*
G75*
G02*
X135323171Y-24929309I85019J1247105D01*
G01*
G37*
%TD*%
%TO.C,MX25*%
G36*
G01*
X125818171Y-5919309D02*
X125857619Y-5340653D01*
G75*
G02*
X127189743Y-4178567I1247105J-85019D01*
G01*
X127189743Y-4178567D01*
G75*
G02*
X128351829Y-5510691I-85019J-1247105D01*
G01*
X128312381Y-6089347D01*
G75*
G02*
X126980257Y-7251433I-1247105J85019D01*
G01*
X126980257Y-7251433D01*
G75*
G02*
X125818171Y-5919309I85019J1247105D01*
G01*
G37*
G36*
G01*
X119651299Y-7262190D02*
X120860223Y-5364560D01*
G75*
G02*
X122586087Y-4981946I1054239J-671625D01*
G01*
X122586087Y-4981946D01*
G75*
G02*
X122968701Y-6707810I-671625J-1054239D01*
G01*
X121759777Y-8605440D01*
G75*
G02*
X120033913Y-8988054I-1054239J671625D01*
G01*
X120033913Y-8988054D01*
G75*
G02*
X119651299Y-7262190I671625J1054239D01*
G01*
G37*
X129645000Y-10505000D03*
X119485000Y-10505000D03*
D17*
X124565000Y-10505000D03*
%TD*%
%TO.C,MX24*%
X110307500Y-67535000D03*
D18*
X105227500Y-67535000D03*
X115387500Y-67535000D03*
G36*
G01*
X105393799Y-64292190D02*
X106602723Y-62394560D01*
G75*
G02*
X108328587Y-62011946I1054239J-671625D01*
G01*
X108328587Y-62011946D01*
G75*
G02*
X108711201Y-63737810I-671625J-1054239D01*
G01*
X107502277Y-65635440D01*
G75*
G02*
X105776413Y-66018054I-1054239J671625D01*
G01*
X105776413Y-66018054D01*
G75*
G02*
X105393799Y-64292190I671625J1054239D01*
G01*
G37*
G36*
G01*
X111560671Y-62949309D02*
X111600119Y-62370653D01*
G75*
G02*
X112932243Y-61208567I1247105J-85019D01*
G01*
X112932243Y-61208567D01*
G75*
G02*
X114094329Y-62540691I-85019J-1247105D01*
G01*
X114054881Y-63119347D01*
G75*
G02*
X112722757Y-64281433I-1247105J85019D01*
G01*
X112722757Y-64281433D01*
G75*
G02*
X111560671Y-62949309I85019J1247105D01*
G01*
G37*
%TD*%
D17*
%TO.C,MX23*%
X119812500Y-48525000D03*
D18*
X114732500Y-48525000D03*
X124892500Y-48525000D03*
G36*
G01*
X114898799Y-45282190D02*
X116107723Y-43384560D01*
G75*
G02*
X117833587Y-43001946I1054239J-671625D01*
G01*
X117833587Y-43001946D01*
G75*
G02*
X118216201Y-44727810I-671625J-1054239D01*
G01*
X117007277Y-46625440D01*
G75*
G02*
X115281413Y-47008054I-1054239J671625D01*
G01*
X115281413Y-47008054D01*
G75*
G02*
X114898799Y-45282190I671625J1054239D01*
G01*
G37*
G36*
G01*
X121065671Y-43939309D02*
X121105119Y-43360653D01*
G75*
G02*
X122437243Y-42198567I1247105J-85019D01*
G01*
X122437243Y-42198567D01*
G75*
G02*
X123599329Y-43530691I-85019J-1247105D01*
G01*
X123559881Y-44109347D01*
G75*
G02*
X122227757Y-45271433I-1247105J85019D01*
G01*
X122227757Y-45271433D01*
G75*
G02*
X121065671Y-43939309I85019J1247105D01*
G01*
G37*
%TD*%
D17*
%TO.C,MX22*%
X115060000Y-29515000D03*
D18*
X109980000Y-29515000D03*
X120140000Y-29515000D03*
G36*
G01*
X110146299Y-26272190D02*
X111355223Y-24374560D01*
G75*
G02*
X113081087Y-23991946I1054239J-671625D01*
G01*
X113081087Y-23991946D01*
G75*
G02*
X113463701Y-25717810I-671625J-1054239D01*
G01*
X112254777Y-27615440D01*
G75*
G02*
X110528913Y-27998054I-1054239J671625D01*
G01*
X110528913Y-27998054D01*
G75*
G02*
X110146299Y-26272190I671625J1054239D01*
G01*
G37*
G36*
G01*
X116313171Y-24929309D02*
X116352619Y-24350653D01*
G75*
G02*
X117684743Y-23188567I1247105J-85019D01*
G01*
X117684743Y-23188567D01*
G75*
G02*
X118846829Y-24520691I-85019J-1247105D01*
G01*
X118807381Y-25099347D01*
G75*
G02*
X117475257Y-26261433I-1247105J85019D01*
G01*
X117475257Y-26261433D01*
G75*
G02*
X116313171Y-24929309I85019J1247105D01*
G01*
G37*
%TD*%
%TO.C,MX21*%
G36*
G01*
X106808171Y-5919309D02*
X106847619Y-5340653D01*
G75*
G02*
X108179743Y-4178567I1247105J-85019D01*
G01*
X108179743Y-4178567D01*
G75*
G02*
X109341829Y-5510691I-85019J-1247105D01*
G01*
X109302381Y-6089347D01*
G75*
G02*
X107970257Y-7251433I-1247105J85019D01*
G01*
X107970257Y-7251433D01*
G75*
G02*
X106808171Y-5919309I85019J1247105D01*
G01*
G37*
G36*
G01*
X100641299Y-7262190D02*
X101850223Y-5364560D01*
G75*
G02*
X103576087Y-4981946I1054239J-671625D01*
G01*
X103576087Y-4981946D01*
G75*
G02*
X103958701Y-6707810I-671625J-1054239D01*
G01*
X102749777Y-8605440D01*
G75*
G02*
X101023913Y-8988054I-1054239J671625D01*
G01*
X101023913Y-8988054D01*
G75*
G02*
X100641299Y-7262190I671625J1054239D01*
G01*
G37*
X110635000Y-10505000D03*
X100475000Y-10505000D03*
D17*
X105555000Y-10505000D03*
%TD*%
%TO.C,MX20*%
X91297500Y-67535000D03*
D18*
X86217500Y-67535000D03*
X96377500Y-67535000D03*
G36*
G01*
X86383799Y-64292190D02*
X87592723Y-62394560D01*
G75*
G02*
X89318587Y-62011946I1054239J-671625D01*
G01*
X89318587Y-62011946D01*
G75*
G02*
X89701201Y-63737810I-671625J-1054239D01*
G01*
X88492277Y-65635440D01*
G75*
G02*
X86766413Y-66018054I-1054239J671625D01*
G01*
X86766413Y-66018054D01*
G75*
G02*
X86383799Y-64292190I671625J1054239D01*
G01*
G37*
G36*
G01*
X92550671Y-62949309D02*
X92590119Y-62370653D01*
G75*
G02*
X93922243Y-61208567I1247105J-85019D01*
G01*
X93922243Y-61208567D01*
G75*
G02*
X95084329Y-62540691I-85019J-1247105D01*
G01*
X95044881Y-63119347D01*
G75*
G02*
X93712757Y-64281433I-1247105J85019D01*
G01*
X93712757Y-64281433D01*
G75*
G02*
X92550671Y-62949309I85019J1247105D01*
G01*
G37*
%TD*%
D17*
%TO.C,MX19*%
X100802500Y-48525000D03*
D18*
X95722500Y-48525000D03*
X105882500Y-48525000D03*
G36*
G01*
X95888799Y-45282190D02*
X97097723Y-43384560D01*
G75*
G02*
X98823587Y-43001946I1054239J-671625D01*
G01*
X98823587Y-43001946D01*
G75*
G02*
X99206201Y-44727810I-671625J-1054239D01*
G01*
X97997277Y-46625440D01*
G75*
G02*
X96271413Y-47008054I-1054239J671625D01*
G01*
X96271413Y-47008054D01*
G75*
G02*
X95888799Y-45282190I671625J1054239D01*
G01*
G37*
G36*
G01*
X102055671Y-43939309D02*
X102095119Y-43360653D01*
G75*
G02*
X103427243Y-42198567I1247105J-85019D01*
G01*
X103427243Y-42198567D01*
G75*
G02*
X104589329Y-43530691I-85019J-1247105D01*
G01*
X104549881Y-44109347D01*
G75*
G02*
X103217757Y-45271433I-1247105J85019D01*
G01*
X103217757Y-45271433D01*
G75*
G02*
X102055671Y-43939309I85019J1247105D01*
G01*
G37*
%TD*%
D17*
%TO.C,MX18*%
X96050000Y-29515000D03*
D18*
X90970000Y-29515000D03*
X101130000Y-29515000D03*
G36*
G01*
X91136299Y-26272190D02*
X92345223Y-24374560D01*
G75*
G02*
X94071087Y-23991946I1054239J-671625D01*
G01*
X94071087Y-23991946D01*
G75*
G02*
X94453701Y-25717810I-671625J-1054239D01*
G01*
X93244777Y-27615440D01*
G75*
G02*
X91518913Y-27998054I-1054239J671625D01*
G01*
X91518913Y-27998054D01*
G75*
G02*
X91136299Y-26272190I671625J1054239D01*
G01*
G37*
G36*
G01*
X97303171Y-24929309D02*
X97342619Y-24350653D01*
G75*
G02*
X98674743Y-23188567I1247105J-85019D01*
G01*
X98674743Y-23188567D01*
G75*
G02*
X99836829Y-24520691I-85019J-1247105D01*
G01*
X99797381Y-25099347D01*
G75*
G02*
X98465257Y-26261433I-1247105J85019D01*
G01*
X98465257Y-26261433D01*
G75*
G02*
X97303171Y-24929309I85019J1247105D01*
G01*
G37*
%TD*%
%TO.C,MX17*%
G36*
G01*
X87798171Y-5919309D02*
X87837619Y-5340653D01*
G75*
G02*
X89169743Y-4178567I1247105J-85019D01*
G01*
X89169743Y-4178567D01*
G75*
G02*
X90331829Y-5510691I-85019J-1247105D01*
G01*
X90292381Y-6089347D01*
G75*
G02*
X88960257Y-7251433I-1247105J85019D01*
G01*
X88960257Y-7251433D01*
G75*
G02*
X87798171Y-5919309I85019J1247105D01*
G01*
G37*
G36*
G01*
X81631299Y-7262190D02*
X82840223Y-5364560D01*
G75*
G02*
X84566087Y-4981946I1054239J-671625D01*
G01*
X84566087Y-4981946D01*
G75*
G02*
X84948701Y-6707810I-671625J-1054239D01*
G01*
X83739777Y-8605440D01*
G75*
G02*
X82013913Y-8988054I-1054239J671625D01*
G01*
X82013913Y-8988054D01*
G75*
G02*
X81631299Y-7262190I671625J1054239D01*
G01*
G37*
X91625000Y-10505000D03*
X81465000Y-10505000D03*
D17*
X86545000Y-10505000D03*
%TD*%
%TO.C,MX16*%
X72287500Y-67535000D03*
D18*
X67207500Y-67535000D03*
X77367500Y-67535000D03*
G36*
G01*
X67373799Y-64292190D02*
X68582723Y-62394560D01*
G75*
G02*
X70308587Y-62011946I1054239J-671625D01*
G01*
X70308587Y-62011946D01*
G75*
G02*
X70691201Y-63737810I-671625J-1054239D01*
G01*
X69482277Y-65635440D01*
G75*
G02*
X67756413Y-66018054I-1054239J671625D01*
G01*
X67756413Y-66018054D01*
G75*
G02*
X67373799Y-64292190I671625J1054239D01*
G01*
G37*
G36*
G01*
X73540671Y-62949309D02*
X73580119Y-62370653D01*
G75*
G02*
X74912243Y-61208567I1247105J-85019D01*
G01*
X74912243Y-61208567D01*
G75*
G02*
X76074329Y-62540691I-85019J-1247105D01*
G01*
X76034881Y-63119347D01*
G75*
G02*
X74702757Y-64281433I-1247105J85019D01*
G01*
X74702757Y-64281433D01*
G75*
G02*
X73540671Y-62949309I85019J1247105D01*
G01*
G37*
%TD*%
D17*
%TO.C,MX15*%
X81792500Y-48525000D03*
D18*
X76712500Y-48525000D03*
X86872500Y-48525000D03*
G36*
G01*
X76878799Y-45282190D02*
X78087723Y-43384560D01*
G75*
G02*
X79813587Y-43001946I1054239J-671625D01*
G01*
X79813587Y-43001946D01*
G75*
G02*
X80196201Y-44727810I-671625J-1054239D01*
G01*
X78987277Y-46625440D01*
G75*
G02*
X77261413Y-47008054I-1054239J671625D01*
G01*
X77261413Y-47008054D01*
G75*
G02*
X76878799Y-45282190I671625J1054239D01*
G01*
G37*
G36*
G01*
X83045671Y-43939309D02*
X83085119Y-43360653D01*
G75*
G02*
X84417243Y-42198567I1247105J-85019D01*
G01*
X84417243Y-42198567D01*
G75*
G02*
X85579329Y-43530691I-85019J-1247105D01*
G01*
X85539881Y-44109347D01*
G75*
G02*
X84207757Y-45271433I-1247105J85019D01*
G01*
X84207757Y-45271433D01*
G75*
G02*
X83045671Y-43939309I85019J1247105D01*
G01*
G37*
%TD*%
D17*
%TO.C,MX14*%
X77040000Y-29515000D03*
D18*
X71960000Y-29515000D03*
X82120000Y-29515000D03*
G36*
G01*
X72126299Y-26272190D02*
X73335223Y-24374560D01*
G75*
G02*
X75061087Y-23991946I1054239J-671625D01*
G01*
X75061087Y-23991946D01*
G75*
G02*
X75443701Y-25717810I-671625J-1054239D01*
G01*
X74234777Y-27615440D01*
G75*
G02*
X72508913Y-27998054I-1054239J671625D01*
G01*
X72508913Y-27998054D01*
G75*
G02*
X72126299Y-26272190I671625J1054239D01*
G01*
G37*
G36*
G01*
X78293171Y-24929309D02*
X78332619Y-24350653D01*
G75*
G02*
X79664743Y-23188567I1247105J-85019D01*
G01*
X79664743Y-23188567D01*
G75*
G02*
X80826829Y-24520691I-85019J-1247105D01*
G01*
X80787381Y-25099347D01*
G75*
G02*
X79455257Y-26261433I-1247105J85019D01*
G01*
X79455257Y-26261433D01*
G75*
G02*
X78293171Y-24929309I85019J1247105D01*
G01*
G37*
%TD*%
%TO.C,MX13*%
G36*
G01*
X68788171Y-5919309D02*
X68827619Y-5340653D01*
G75*
G02*
X70159743Y-4178567I1247105J-85019D01*
G01*
X70159743Y-4178567D01*
G75*
G02*
X71321829Y-5510691I-85019J-1247105D01*
G01*
X71282381Y-6089347D01*
G75*
G02*
X69950257Y-7251433I-1247105J85019D01*
G01*
X69950257Y-7251433D01*
G75*
G02*
X68788171Y-5919309I85019J1247105D01*
G01*
G37*
G36*
G01*
X62621299Y-7262190D02*
X63830223Y-5364560D01*
G75*
G02*
X65556087Y-4981946I1054239J-671625D01*
G01*
X65556087Y-4981946D01*
G75*
G02*
X65938701Y-6707810I-671625J-1054239D01*
G01*
X64729777Y-8605440D01*
G75*
G02*
X63003913Y-8988054I-1054239J671625D01*
G01*
X63003913Y-8988054D01*
G75*
G02*
X62621299Y-7262190I671625J1054239D01*
G01*
G37*
X72615000Y-10505000D03*
X62455000Y-10505000D03*
D17*
X67535000Y-10505000D03*
%TD*%
%TO.C,MX12*%
G36*
G01*
X54530671Y-62949309D02*
X54570119Y-62370653D01*
G75*
G02*
X55902243Y-61208567I1247105J-85019D01*
G01*
X55902243Y-61208567D01*
G75*
G02*
X57064329Y-62540691I-85019J-1247105D01*
G01*
X57024881Y-63119347D01*
G75*
G02*
X55692757Y-64281433I-1247105J85019D01*
G01*
X55692757Y-64281433D01*
G75*
G02*
X54530671Y-62949309I85019J1247105D01*
G01*
G37*
G36*
G01*
X48363799Y-64292190D02*
X49572723Y-62394560D01*
G75*
G02*
X51298587Y-62011946I1054239J-671625D01*
G01*
X51298587Y-62011946D01*
G75*
G02*
X51681201Y-63737810I-671625J-1054239D01*
G01*
X50472277Y-65635440D01*
G75*
G02*
X48746413Y-66018054I-1054239J671625D01*
G01*
X48746413Y-66018054D01*
G75*
G02*
X48363799Y-64292190I671625J1054239D01*
G01*
G37*
D18*
X58357500Y-67535000D03*
X48197500Y-67535000D03*
D17*
X53277500Y-67535000D03*
%TD*%
%TO.C,MX11*%
X62782500Y-48525000D03*
D18*
X57702500Y-48525000D03*
X67862500Y-48525000D03*
G36*
G01*
X57868799Y-45282190D02*
X59077723Y-43384560D01*
G75*
G02*
X60803587Y-43001946I1054239J-671625D01*
G01*
X60803587Y-43001946D01*
G75*
G02*
X61186201Y-44727810I-671625J-1054239D01*
G01*
X59977277Y-46625440D01*
G75*
G02*
X58251413Y-47008054I-1054239J671625D01*
G01*
X58251413Y-47008054D01*
G75*
G02*
X57868799Y-45282190I671625J1054239D01*
G01*
G37*
G36*
G01*
X64035671Y-43939309D02*
X64075119Y-43360653D01*
G75*
G02*
X65407243Y-42198567I1247105J-85019D01*
G01*
X65407243Y-42198567D01*
G75*
G02*
X66569329Y-43530691I-85019J-1247105D01*
G01*
X66529881Y-44109347D01*
G75*
G02*
X65197757Y-45271433I-1247105J85019D01*
G01*
X65197757Y-45271433D01*
G75*
G02*
X64035671Y-43939309I85019J1247105D01*
G01*
G37*
%TD*%
D17*
%TO.C,MX10*%
X58030000Y-29515000D03*
D18*
X52950000Y-29515000D03*
X63110000Y-29515000D03*
G36*
G01*
X53116299Y-26272190D02*
X54325223Y-24374560D01*
G75*
G02*
X56051087Y-23991946I1054239J-671625D01*
G01*
X56051087Y-23991946D01*
G75*
G02*
X56433701Y-25717810I-671625J-1054239D01*
G01*
X55224777Y-27615440D01*
G75*
G02*
X53498913Y-27998054I-1054239J671625D01*
G01*
X53498913Y-27998054D01*
G75*
G02*
X53116299Y-26272190I671625J1054239D01*
G01*
G37*
G36*
G01*
X59283171Y-24929309D02*
X59322619Y-24350653D01*
G75*
G02*
X60654743Y-23188567I1247105J-85019D01*
G01*
X60654743Y-23188567D01*
G75*
G02*
X61816829Y-24520691I-85019J-1247105D01*
G01*
X61777381Y-25099347D01*
G75*
G02*
X60445257Y-26261433I-1247105J85019D01*
G01*
X60445257Y-26261433D01*
G75*
G02*
X59283171Y-24929309I85019J1247105D01*
G01*
G37*
%TD*%
%TO.C,MX9*%
G36*
G01*
X49778171Y-5919309D02*
X49817619Y-5340653D01*
G75*
G02*
X51149743Y-4178567I1247105J-85019D01*
G01*
X51149743Y-4178567D01*
G75*
G02*
X52311829Y-5510691I-85019J-1247105D01*
G01*
X52272381Y-6089347D01*
G75*
G02*
X50940257Y-7251433I-1247105J85019D01*
G01*
X50940257Y-7251433D01*
G75*
G02*
X49778171Y-5919309I85019J1247105D01*
G01*
G37*
G36*
G01*
X43611299Y-7262190D02*
X44820223Y-5364560D01*
G75*
G02*
X46546087Y-4981946I1054239J-671625D01*
G01*
X46546087Y-4981946D01*
G75*
G02*
X46928701Y-6707810I-671625J-1054239D01*
G01*
X45719777Y-8605440D01*
G75*
G02*
X43993913Y-8988054I-1054239J671625D01*
G01*
X43993913Y-8988054D01*
G75*
G02*
X43611299Y-7262190I671625J1054239D01*
G01*
G37*
X53605000Y-10505000D03*
X43445000Y-10505000D03*
D17*
X48525000Y-10505000D03*
%TD*%
%TO.C,MX8*%
X34267500Y-67535000D03*
D18*
X29187500Y-67535000D03*
X39347500Y-67535000D03*
G36*
G01*
X29353799Y-64292190D02*
X30562723Y-62394560D01*
G75*
G02*
X32288587Y-62011946I1054239J-671625D01*
G01*
X32288587Y-62011946D01*
G75*
G02*
X32671201Y-63737810I-671625J-1054239D01*
G01*
X31462277Y-65635440D01*
G75*
G02*
X29736413Y-66018054I-1054239J671625D01*
G01*
X29736413Y-66018054D01*
G75*
G02*
X29353799Y-64292190I671625J1054239D01*
G01*
G37*
G36*
G01*
X35520671Y-62949309D02*
X35560119Y-62370653D01*
G75*
G02*
X36892243Y-61208567I1247105J-85019D01*
G01*
X36892243Y-61208567D01*
G75*
G02*
X38054329Y-62540691I-85019J-1247105D01*
G01*
X38014881Y-63119347D01*
G75*
G02*
X36682757Y-64281433I-1247105J85019D01*
G01*
X36682757Y-64281433D01*
G75*
G02*
X35520671Y-62949309I85019J1247105D01*
G01*
G37*
%TD*%
D17*
%TO.C,MX7*%
X43772500Y-48525000D03*
D18*
X38692500Y-48525000D03*
X48852500Y-48525000D03*
G36*
G01*
X38858799Y-45282190D02*
X40067723Y-43384560D01*
G75*
G02*
X41793587Y-43001946I1054239J-671625D01*
G01*
X41793587Y-43001946D01*
G75*
G02*
X42176201Y-44727810I-671625J-1054239D01*
G01*
X40967277Y-46625440D01*
G75*
G02*
X39241413Y-47008054I-1054239J671625D01*
G01*
X39241413Y-47008054D01*
G75*
G02*
X38858799Y-45282190I671625J1054239D01*
G01*
G37*
G36*
G01*
X45025671Y-43939309D02*
X45065119Y-43360653D01*
G75*
G02*
X46397243Y-42198567I1247105J-85019D01*
G01*
X46397243Y-42198567D01*
G75*
G02*
X47559329Y-43530691I-85019J-1247105D01*
G01*
X47519881Y-44109347D01*
G75*
G02*
X46187757Y-45271433I-1247105J85019D01*
G01*
X46187757Y-45271433D01*
G75*
G02*
X45025671Y-43939309I85019J1247105D01*
G01*
G37*
%TD*%
D17*
%TO.C,MX6*%
X39020000Y-29515000D03*
D18*
X33940000Y-29515000D03*
X44100000Y-29515000D03*
G36*
G01*
X34106299Y-26272190D02*
X35315223Y-24374560D01*
G75*
G02*
X37041087Y-23991946I1054239J-671625D01*
G01*
X37041087Y-23991946D01*
G75*
G02*
X37423701Y-25717810I-671625J-1054239D01*
G01*
X36214777Y-27615440D01*
G75*
G02*
X34488913Y-27998054I-1054239J671625D01*
G01*
X34488913Y-27998054D01*
G75*
G02*
X34106299Y-26272190I671625J1054239D01*
G01*
G37*
G36*
G01*
X40273171Y-24929309D02*
X40312619Y-24350653D01*
G75*
G02*
X41644743Y-23188567I1247105J-85019D01*
G01*
X41644743Y-23188567D01*
G75*
G02*
X42806829Y-24520691I-85019J-1247105D01*
G01*
X42767381Y-25099347D01*
G75*
G02*
X41435257Y-26261433I-1247105J85019D01*
G01*
X41435257Y-26261433D01*
G75*
G02*
X40273171Y-24929309I85019J1247105D01*
G01*
G37*
%TD*%
%TO.C,MX5*%
G36*
G01*
X30768171Y-5919309D02*
X30807619Y-5340653D01*
G75*
G02*
X32139743Y-4178567I1247105J-85019D01*
G01*
X32139743Y-4178567D01*
G75*
G02*
X33301829Y-5510691I-85019J-1247105D01*
G01*
X33262381Y-6089347D01*
G75*
G02*
X31930257Y-7251433I-1247105J85019D01*
G01*
X31930257Y-7251433D01*
G75*
G02*
X30768171Y-5919309I85019J1247105D01*
G01*
G37*
G36*
G01*
X24601299Y-7262190D02*
X25810223Y-5364560D01*
G75*
G02*
X27536087Y-4981946I1054239J-671625D01*
G01*
X27536087Y-4981946D01*
G75*
G02*
X27918701Y-6707810I-671625J-1054239D01*
G01*
X26709777Y-8605440D01*
G75*
G02*
X24983913Y-8988054I-1054239J671625D01*
G01*
X24983913Y-8988054D01*
G75*
G02*
X24601299Y-7262190I671625J1054239D01*
G01*
G37*
X34595000Y-10505000D03*
X24435000Y-10505000D03*
D17*
X29515000Y-10505000D03*
%TD*%
%TO.C,MX3*%
X17633700Y-48525000D03*
D18*
X12553700Y-48525000D03*
X22713700Y-48525000D03*
G36*
G01*
X12719999Y-45282190D02*
X13928923Y-43384560D01*
G75*
G02*
X15654787Y-43001946I1054239J-671625D01*
G01*
X15654787Y-43001946D01*
G75*
G02*
X16037401Y-44727810I-671625J-1054239D01*
G01*
X14828477Y-46625440D01*
G75*
G02*
X13102613Y-47008054I-1054239J671625D01*
G01*
X13102613Y-47008054D01*
G75*
G02*
X12719999Y-45282190I671625J1054239D01*
G01*
G37*
G36*
G01*
X18886871Y-43939309D02*
X18926319Y-43360653D01*
G75*
G02*
X20258443Y-42198567I1247105J-85019D01*
G01*
X20258443Y-42198567D01*
G75*
G02*
X21420529Y-43530691I-85019J-1247105D01*
G01*
X21381081Y-44109347D01*
G75*
G02*
X20048957Y-45271433I-1247105J85019D01*
G01*
X20048957Y-45271433D01*
G75*
G02*
X18886871Y-43939309I85019J1247105D01*
G01*
G37*
%TD*%
D17*
%TO.C,MX2*%
X15257500Y-29515000D03*
D18*
X10177500Y-29515000D03*
X20337500Y-29515000D03*
G36*
G01*
X10343799Y-26272190D02*
X11552723Y-24374560D01*
G75*
G02*
X13278587Y-23991946I1054239J-671625D01*
G01*
X13278587Y-23991946D01*
G75*
G02*
X13661201Y-25717810I-671625J-1054239D01*
G01*
X12452277Y-27615440D01*
G75*
G02*
X10726413Y-27998054I-1054239J671625D01*
G01*
X10726413Y-27998054D01*
G75*
G02*
X10343799Y-26272190I671625J1054239D01*
G01*
G37*
G36*
G01*
X16510671Y-24929309D02*
X16550119Y-24350653D01*
G75*
G02*
X17882243Y-23188567I1247105J-85019D01*
G01*
X17882243Y-23188567D01*
G75*
G02*
X19044329Y-24520691I-85019J-1247105D01*
G01*
X19004881Y-25099347D01*
G75*
G02*
X17672757Y-26261433I-1247105J85019D01*
G01*
X17672757Y-26261433D01*
G75*
G02*
X16510671Y-24929309I85019J1247105D01*
G01*
G37*
%TD*%
M02*
