  0
SECTION
  2
HEADER
  9
$ANGBASE
  50
0.0
  9
$ANGDIR
  70
1
  9
$MEASUREMENT
  70
1
  0
ENDSEC
  0
SECTION
  2
TABLES
  0
TABLE
  2
LTYPE
  70
4
  0
LTYPE
  5
40F
  2
CONTINUOUS
  70
0
  3
Solid line
  72
65
  73
0
  40
0.0
  0
LTYPE
  5
410
  2
DASHDOT
 70
0
  3
Dash Dot ____ _ ____ _
 72
65
 73
4
 40
2.0
 49
1.25
 49
-0.25
 49
0.25
 49
-0.25
  0
LTYPE
  5
411
  2
DASHED
 70
0
  3
Dashed __ __ __ __ __
 72
65
 73
2
 40
0.75
 49
0.5
 49
-0.25
  0
LTYPE
  5
43B
  2
DOTTED
 70
0
  3
Dotted .  .  .  .
 72
65
 73
2
 40
0.2
 49
0.0
 49
-0.2
  0
ENDTAB
  0
TABLE
  2
STYLE
  70
4
  0
STYLE
  2
KICAD
  70
0
  40
0
  41
1
  42
1
  50
0
  71
0
  3
isocp.shx
  0
STYLE
  2
KICADB
  70
0
  40
0
  41
1
  42
1
  50
0
  71
0
  3
isocp.shx
  0
STYLE
  2
KICADI
  70
0
  40
0
  41
1
  42
1
  50
15
  71
0
  3
isocp.shx
  0
STYLE
  2
KICADBI
  70
0
  40
0
  41
1
  42
1
  50
15
  71
0
  3
isocp.shx
  0
ENDTAB
  0
TABLE
  2
LAYER
  70
1
  0
LAYER
  2
BLACK
  70
0
  62
7
  6
CONTINUOUS
  0
ENDTAB
  0
ENDSEC
  0
SECTION
  2
ENTITIES
0
LINE
8
BLACK
6
CONTINUOUS
10
308.981
20
1.09511
11
308.997
21
1.09511
0
LINE
8
BLACK
6
CONTINUOUS
10
308.997
20
1.09511
11
308.998
21
1.09421
0
LINE
8
BLACK
6
CONTINUOUS
10
308.998
20
1.09421
11
309.167
21
1.09007
0
LINE
8
BLACK
6
CONTINUOUS
10
309.167
20
1.09007
11
309.567
21
1.05068
0
LINE
8
BLACK
6
CONTINUOUS
10
309.567
20
1.05068
11
309.961
21
0.972279
0
LINE
8
BLACK
6
CONTINUOUS
10
309.961
20
0.972279
11
310.345
21
0.855624
0
LINE
8
BLACK
6
CONTINUOUS
10
310.345
20
0.855624
11
310.717
21
0.701837
0
LINE
8
BLACK
6
CONTINUOUS
10
310.717
20
0.701837
11
311.071
21
0.5124
0
LINE
8
BLACK
6
CONTINUOUS
10
311.071
20
0.5124
11
311.405
21
0.289136
0
LINE
8
BLACK
6
CONTINUOUS
10
311.405
20
0.289136
11
311.716
21
0.034196
0
LINE
8
BLACK
6
CONTINUOUS
10
311.716
20
0.034196
11
312
21
-0.249965
0
LINE
8
BLACK
6
CONTINUOUS
10
312
20
-0.249965
11
312.255
21
-0.560611
0
LINE
8
BLACK
6
CONTINUOUS
10
312.255
20
-0.560611
11
312.478
21
-0.894749
0
LINE
8
BLACK
6
CONTINUOUS
10
312.478
20
-0.894749
11
312.668
21
-1.24916
0
LINE
8
BLACK
6
CONTINUOUS
10
312.668
20
-1.24916
11
312.821
21
-1.62043
0
LINE
8
BLACK
6
CONTINUOUS
10
312.821
20
-1.62043
11
312.938
21
-2.005
0
LINE
8
BLACK
6
CONTINUOUS
10
312.938
20
-2.005
11
313.016
21
-2.39914
0
LINE
8
BLACK
6
CONTINUOUS
10
313.016
20
-2.39914
11
313.056
21
-2.79907
0
LINE
8
BLACK
6
CONTINUOUS
10
313.056
20
-2.79907
11
313.06
21
-2.98335
0
LINE
8
BLACK
6
CONTINUOUS
10
313.06
20
-2.98335
11
313.066
21
-3
0
LINE
8
BLACK
6
CONTINUOUS
10
313.066
20
-3
11
313.066
21
-91.0503
0
LINE
8
BLACK
6
CONTINUOUS
10
313.066
20
-91.0503
11
313.06
21
-91.0669
0
LINE
8
BLACK
6
CONTINUOUS
10
313.06
20
-91.0669
11
313.056
21
-91.2512
0
LINE
8
BLACK
6
CONTINUOUS
10
313.056
20
-91.2512
11
313.016
21
-91.6511
0
LINE
8
BLACK
6
CONTINUOUS
10
313.016
20
-91.6511
11
312.938
21
-92.0453
0
LINE
8
BLACK
6
CONTINUOUS
10
312.938
20
-92.0453
11
312.821
21
-92.4298
0
LINE
8
BLACK
6
CONTINUOUS
10
312.821
20
-92.4298
11
312.668
21
-92.8011
0
LINE
8
BLACK
6
CONTINUOUS
10
312.668
20
-92.8011
11
312.478
21
-93.1555
0
LINE
8
BLACK
6
CONTINUOUS
10
312.478
20
-93.1555
11
312.255
21
-93.4896
0
LINE
8
BLACK
6
CONTINUOUS
10
312.255
20
-93.4896
11
312
21
-93.8003
0
LINE
8
BLACK
6
CONTINUOUS
10
312
20
-93.8003
11
311.716
21
-94.0845
0
LINE
8
BLACK
6
CONTINUOUS
10
311.716
20
-94.0845
11
311.405
21
-94.3394
0
LINE
8
BLACK
6
CONTINUOUS
10
311.405
20
-94.3394
11
311.071
21
-94.5627
0
LINE
8
BLACK
6
CONTINUOUS
10
311.071
20
-94.5627
11
310.717
21
-94.7521
0
LINE
8
BLACK
6
CONTINUOUS
10
310.717
20
-94.7521
11
310.345
21
-94.9059
0
LINE
8
BLACK
6
CONTINUOUS
10
310.345
20
-94.9059
11
309.961
21
-95.0225
0
LINE
8
BLACK
6
CONTINUOUS
10
309.961
20
-95.0225
11
309.567
21
-95.1009
0
LINE
8
BLACK
6
CONTINUOUS
10
309.567
20
-95.1009
11
309.167
21
-95.1403
0
LINE
8
BLACK
6
CONTINUOUS
10
309.167
20
-95.1403
11
308.998
21
-95.1445
0
LINE
8
BLACK
6
CONTINUOUS
10
308.998
20
-95.1445
11
308.997
21
-95.1454
0
LINE
8
BLACK
6
CONTINUOUS
10
308.997
20
-95.1454
11
308.981
21
-95.1454
0
LINE
8
BLACK
6
CONTINUOUS
10
308.981
20
-95.1454
11
308.966
21
-95.1503
0
LINE
8
BLACK
6
CONTINUOUS
10
308.966
20
-95.1503
11
5
21
-95.1503
0
LINE
8
BLACK
6
CONTINUOUS
10
5
20
-95.1503
11
4.98494
21
-95.1454
0
LINE
8
BLACK
6
CONTINUOUS
10
4.98494
20
-95.1454
11
4.9691
21
-95.1454
0
LINE
8
BLACK
6
CONTINUOUS
10
4.9691
20
-95.1454
11
4.96787
21
-95.1445
0
LINE
8
BLACK
6
CONTINUOUS
10
4.96787
20
-95.1445
11
4.79907
21
-95.1403
0
LINE
8
BLACK
6
CONTINUOUS
10
4.79907
20
-95.1403
11
4.39914
21
-95.1009
0
LINE
8
BLACK
6
CONTINUOUS
10
4.39914
20
-95.1009
11
4.005
21
-95.0225
0
LINE
8
BLACK
6
CONTINUOUS
10
4.005
20
-95.0225
11
3.62044
21
-94.9059
0
LINE
8
BLACK
6
CONTINUOUS
10
3.62044
20
-94.9059
11
3.24916
21
-94.7521
0
LINE
8
BLACK
6
CONTINUOUS
10
3.24916
20
-94.7521
11
2.89475
21
-94.5627
0
LINE
8
BLACK
6
CONTINUOUS
10
2.89475
20
-94.5627
11
2.56061
21
-94.3394
0
LINE
8
BLACK
6
CONTINUOUS
10
2.56061
20
-94.3394
11
2.24997
21
-94.0845
0
LINE
8
BLACK
6
CONTINUOUS
10
2.24997
20
-94.0845
11
1.9658
21
-93.8003
0
LINE
8
BLACK
6
CONTINUOUS
10
1.9658
20
-93.8003
11
1.71086
21
-93.4896
0
LINE
8
BLACK
6
CONTINUOUS
10
1.71086
20
-93.4896
11
1.4876
21
-93.1555
0
LINE
8
BLACK
6
CONTINUOUS
10
1.4876
20
-93.1555
11
1.29816
21
-92.8011
0
LINE
8
BLACK
6
CONTINUOUS
10
1.29816
20
-92.8011
11
1.14438
21
-92.4298
0
LINE
8
BLACK
6
CONTINUOUS
10
1.14438
20
-92.4298
11
1.02772
21
-92.0453
0
LINE
8
BLACK
6
CONTINUOUS
10
1.02772
20
-92.0453
11
0.949322
21
-91.6511
0
LINE
8
BLACK
6
CONTINUOUS
10
0.949322
20
-91.6511
11
0.909933
21
-91.2512
0
LINE
8
BLACK
6
CONTINUOUS
10
0.909933
20
-91.2512
11
0.905409
21
-91.0669
0
LINE
8
BLACK
6
CONTINUOUS
10
0.905409
20
-91.0669
11
0.9
21
-91.0503
0
LINE
8
BLACK
6
CONTINUOUS
10
0.9
20
-91.0503
11
0.9
21
-3
0
LINE
8
BLACK
6
CONTINUOUS
10
0.9
20
-3
11
0.905409
21
-2.98335
0
LINE
8
BLACK
6
CONTINUOUS
10
0.905409
20
-2.98335
11
0.909933
21
-2.79907
0
LINE
8
BLACK
6
CONTINUOUS
10
0.909933
20
-2.79907
11
0.949322
21
-2.39914
0
LINE
8
BLACK
6
CONTINUOUS
10
0.949322
20
-2.39914
11
1.02772
21
-2.005
0
LINE
8
BLACK
6
CONTINUOUS
10
1.02772
20
-2.005
11
1.14438
21
-1.62044
0
LINE
8
BLACK
6
CONTINUOUS
10
1.14438
20
-1.62044
11
1.29816
21
-1.24916
0
LINE
8
BLACK
6
CONTINUOUS
10
1.29816
20
-1.24916
11
1.4876
21
-0.89475
0
LINE
8
BLACK
6
CONTINUOUS
10
1.4876
20
-0.89475
11
1.71086
21
-0.560612
0
LINE
8
BLACK
6
CONTINUOUS
10
1.71086
20
-0.560612
11
1.9658
21
-0.249966
0
LINE
8
BLACK
6
CONTINUOUS
10
1.9658
20
-0.249966
11
2.24997
21
0.034195
0
LINE
8
BLACK
6
CONTINUOUS
10
2.24997
20
0.034195
11
2.56061
21
0.289135
0
LINE
8
BLACK
6
CONTINUOUS
10
2.56061
20
0.289135
11
2.89475
21
0.512399
0
LINE
8
BLACK
6
CONTINUOUS
10
2.89475
20
0.512399
11
3.24916
21
0.701836
0
LINE
8
BLACK
6
CONTINUOUS
10
3.24916
20
0.701836
11
3.62044
21
0.855623
0
LINE
8
BLACK
6
CONTINUOUS
10
3.62044
20
0.855623
11
4.005
21
0.972278
0
LINE
8
BLACK
6
CONTINUOUS
10
4.005
20
0.972278
11
4.39914
21
1.05068
0
LINE
8
BLACK
6
CONTINUOUS
10
4.39914
20
1.05068
11
4.79907
21
1.09007
0
LINE
8
BLACK
6
CONTINUOUS
10
4.79907
20
1.09007
11
4.96787
21
1.09421
0
LINE
8
BLACK
6
CONTINUOUS
10
4.96787
20
1.09421
11
4.9691
21
1.09511
0
LINE
8
BLACK
6
CONTINUOUS
10
4.9691
20
1.09511
11
4.98494
21
1.09511
0
LINE
8
BLACK
6
CONTINUOUS
10
4.98494
20
1.09511
11
5
21
1.1
0
LINE
8
BLACK
6
CONTINUOUS
10
5
20
1.1
11
308.966
21
1.1
0
LINE
8
BLACK
6
CONTINUOUS
10
308.966
20
1.1
11
308.981
21
1.09511
0
LINE
8
BLACK
6
CONTINUOUS
10
308.966
20
0.9
11
5
21
0.9
0
LINE
8
BLACK
6
CONTINUOUS
10
5
20
0.9
11
4.98569
21
0.904649
0
LINE
8
BLACK
6
CONTINUOUS
10
4.98569
20
0.904649
11
4.80839
21
0.900296
0
LINE
8
BLACK
6
CONTINUOUS
10
4.80839
20
0.900296
11
4.42702
21
0.862734
0
LINE
8
BLACK
6
CONTINUOUS
10
4.42702
20
0.862734
11
4.05116
21
0.787972
0
LINE
8
BLACK
6
CONTINUOUS
10
4.05116
20
0.787972
11
3.68444
21
0.676729
0
LINE
8
BLACK
6
CONTINUOUS
10
3.68444
20
0.676729
11
3.3304
21
0.530078
0
LINE
8
BLACK
6
CONTINUOUS
10
3.3304
20
0.530078
11
2.99243
21
0.34943
0
LINE
8
BLACK
6
CONTINUOUS
10
2.99243
20
0.34943
11
2.67379
21
0.136526
0
LINE
8
BLACK
6
CONTINUOUS
10
2.67379
20
0.136526
11
2.37756
21
-0.106586
0
LINE
8
BLACK
6
CONTINUOUS
10
2.37756
20
-0.106586
11
2.10659
21
-0.377562
0
LINE
8
BLACK
6
CONTINUOUS
10
2.10659
20
-0.377562
11
1.86347
21
-0.673794
0
LINE
8
BLACK
6
CONTINUOUS
10
1.86347
20
-0.673794
11
1.65057
21
-0.992429
0
LINE
8
BLACK
6
CONTINUOUS
10
1.65057
20
-0.992429
11
1.46992
21
-1.3304
0
LINE
8
BLACK
6
CONTINUOUS
10
1.46992
20
-1.3304
11
1.32327
21
-1.68444
0
LINE
8
BLACK
6
CONTINUOUS
10
1.32327
20
-1.68444
11
1.21203
21
-2.05116
0
LINE
8
BLACK
6
CONTINUOUS
10
1.21203
20
-2.05116
11
1.13727
21
-2.42702
0
LINE
8
BLACK
6
CONTINUOUS
10
1.13727
20
-2.42702
11
1.0997
21
-2.80839
0
LINE
8
BLACK
6
CONTINUOUS
10
1.0997
20
-2.80839
11
1.09535
21
-2.98569
0
LINE
8
BLACK
6
CONTINUOUS
10
1.09535
20
-2.98569
11
1.1
21
-3
0
LINE
8
BLACK
6
CONTINUOUS
10
1.1
20
-3
11
1.1
21
-91.0503
0
LINE
8
BLACK
6
CONTINUOUS
10
1.1
20
-91.0503
11
1.09535
21
-91.0646
0
LINE
8
BLACK
6
CONTINUOUS
10
1.09535
20
-91.0646
11
1.0997
21
-91.2419
0
LINE
8
BLACK
6
CONTINUOUS
10
1.0997
20
-91.2419
11
1.13727
21
-91.6232
0
LINE
8
BLACK
6
CONTINUOUS
10
1.13727
20
-91.6232
11
1.21203
21
-91.9991
0
LINE
8
BLACK
6
CONTINUOUS
10
1.21203
20
-91.9991
11
1.32327
21
-92.3658
0
LINE
8
BLACK
6
CONTINUOUS
10
1.32327
20
-92.3658
11
1.46992
21
-92.7199
0
LINE
8
BLACK
6
CONTINUOUS
10
1.46992
20
-92.7199
11
1.65057
21
-93.0578
0
LINE
8
BLACK
6
CONTINUOUS
10
1.65057
20
-93.0578
11
1.86347
21
-93.3765
0
LINE
8
BLACK
6
CONTINUOUS
10
1.86347
20
-93.3765
11
2.10659
21
-93.6727
0
LINE
8
BLACK
6
CONTINUOUS
10
2.10659
20
-93.6727
11
2.37756
21
-93.9437
0
LINE
8
BLACK
6
CONTINUOUS
10
2.37756
20
-93.9437
11
2.67379
21
-94.1868
0
LINE
8
BLACK
6
CONTINUOUS
10
2.67379
20
-94.1868
11
2.99243
21
-94.3997
0
LINE
8
BLACK
6
CONTINUOUS
10
2.99243
20
-94.3997
11
3.3304
21
-94.5803
0
LINE
8
BLACK
6
CONTINUOUS
10
3.3304
20
-94.5803
11
3.68444
21
-94.727
0
LINE
8
BLACK
6
CONTINUOUS
10
3.68444
20
-94.727
11
4.05116
21
-94.8382
0
LINE
8
BLACK
6
CONTINUOUS
10
4.05116
20
-94.8382
11
4.42702
21
-94.913
0
LINE
8
BLACK
6
CONTINUOUS
10
4.42702
20
-94.913
11
4.80839
21
-94.9506
0
LINE
8
BLACK
6
CONTINUOUS
10
4.80839
20
-94.9506
11
4.98569
21
-94.9549
0
LINE
8
BLACK
6
CONTINUOUS
10
4.98569
20
-94.9549
11
5
21
-94.9503
0
LINE
8
BLACK
6
CONTINUOUS
10
5
20
-94.9503
11
308.966
21
-94.9503
0
LINE
8
BLACK
6
CONTINUOUS
10
308.966
20
-94.9503
11
308.98
21
-94.9549
0
LINE
8
BLACK
6
CONTINUOUS
10
308.98
20
-94.9549
11
309.157
21
-94.9506
0
LINE
8
BLACK
6
CONTINUOUS
10
309.157
20
-94.9506
11
309.539
21
-94.913
0
LINE
8
BLACK
6
CONTINUOUS
10
309.539
20
-94.913
11
309.915
21
-94.8382
0
LINE
8
BLACK
6
CONTINUOUS
10
309.915
20
-94.8382
11
310.281
21
-94.727
0
LINE
8
BLACK
6
CONTINUOUS
10
310.281
20
-94.727
11
310.635
21
-94.5803
0
LINE
8
BLACK
6
CONTINUOUS
10
310.635
20
-94.5803
11
310.973
21
-94.3997
0
LINE
8
BLACK
6
CONTINUOUS
10
310.973
20
-94.3997
11
311.292
21
-94.1868
0
LINE
8
BLACK
6
CONTINUOUS
10
311.292
20
-94.1868
11
311.588
21
-93.9437
0
LINE
8
BLACK
6
CONTINUOUS
10
311.588
20
-93.9437
11
311.859
21
-93.6727
0
LINE
8
BLACK
6
CONTINUOUS
10
311.859
20
-93.6727
11
312.102
21
-93.3765
0
LINE
8
BLACK
6
CONTINUOUS
10
312.102
20
-93.3765
11
312.315
21
-93.0578
0
LINE
8
BLACK
6
CONTINUOUS
10
312.315
20
-93.0578
11
312.496
21
-92.7199
0
LINE
8
BLACK
6
CONTINUOUS
10
312.496
20
-92.7199
11
312.642
21
-92.3658
0
LINE
8
BLACK
6
CONTINUOUS
10
312.642
20
-92.3658
11
312.754
21
-91.9991
0
LINE
8
BLACK
6
CONTINUOUS
10
312.754
20
-91.9991
11
312.828
21
-91.6232
0
LINE
8
BLACK
6
CONTINUOUS
10
312.828
20
-91.6232
11
312.866
21
-91.2419
0
LINE
8
BLACK
6
CONTINUOUS
10
312.866
20
-91.2419
11
312.87
21
-91.0646
0
LINE
8
BLACK
6
CONTINUOUS
10
312.87
20
-91.0646
11
312.866
21
-91.0503
0
LINE
8
BLACK
6
CONTINUOUS
10
312.866
20
-91.0503
11
312.866
21
-3
0
LINE
8
BLACK
6
CONTINUOUS
10
312.866
20
-3
11
312.87
21
-2.98569
0
LINE
8
BLACK
6
CONTINUOUS
10
312.87
20
-2.98569
11
312.866
21
-2.80839
0
LINE
8
BLACK
6
CONTINUOUS
10
312.866
20
-2.80839
11
312.828
21
-2.42702
0
LINE
8
BLACK
6
CONTINUOUS
10
312.828
20
-2.42702
11
312.754
21
-2.05116
0
LINE
8
BLACK
6
CONTINUOUS
10
312.754
20
-2.05116
11
312.642
21
-1.68444
0
LINE
8
BLACK
6
CONTINUOUS
10
312.642
20
-1.68444
11
312.496
21
-1.3304
0
LINE
8
BLACK
6
CONTINUOUS
10
312.496
20
-1.3304
11
312.315
21
-0.992428
0
LINE
8
BLACK
6
CONTINUOUS
10
312.315
20
-0.992428
11
312.102
21
-0.673793
0
LINE
8
BLACK
6
CONTINUOUS
10
312.102
20
-0.673793
11
311.859
21
-0.377561
0
LINE
8
BLACK
6
CONTINUOUS
10
311.859
20
-0.377561
11
311.588
21
-0.106585
0
LINE
8
BLACK
6
CONTINUOUS
10
311.588
20
-0.106585
11
311.292
21
0.136527
0
LINE
8
BLACK
6
CONTINUOUS
10
311.292
20
0.136527
11
310.973
21
0.349431
0
LINE
8
BLACK
6
CONTINUOUS
10
310.973
20
0.349431
11
310.635
21
0.530079
0
LINE
8
BLACK
6
CONTINUOUS
10
310.635
20
0.530079
11
310.281
21
0.67673
0
LINE
8
BLACK
6
CONTINUOUS
10
310.281
20
0.67673
11
309.915
21
0.787973
0
LINE
8
BLACK
6
CONTINUOUS
10
309.915
20
0.787973
11
309.539
21
0.862735
0
LINE
8
BLACK
6
CONTINUOUS
10
309.539
20
0.862735
11
309.157
21
0.900297
0
LINE
8
BLACK
6
CONTINUOUS
10
309.157
20
0.900297
11
308.98
21
0.90465
0
LINE
8
BLACK
6
CONTINUOUS
10
308.98
20
0.90465
11
308.966
21
0.9
  0
ENDSEC
  0
EOF
