0
SECTION
2
HEADER
9
$INSUNITS
70
4
9
$ACADVER
1
AC1014
9
$HANDSEED
5
FFFF
0
ENDSEC
0
SECTION
2
TABLES
0
TABLE
2
VPORT
5
8
100
AcDbSymbolTable
0
ENDTAB
0
TABLE
2
LTYPE
5
5
100
AcDbSymbolTable
0
LTYPE
5
14
100
AcDbSymbolTableRecord
100
AcDbLinetypeTableRecord
2
BYBLOCK
70
0
0
LTYPE
5
15
100
AcDbSymbolTableRecord
100
AcDbLinetypeTableRecord
2
BYLAYER
70
0
0
ENDTAB
0
TABLE
2
LAYER
5
2
100
AcDbSymbolTable
70
2
0
LAYER
5
50
100
AcDbSymbolTableRecord
100
AcDbLayerTableRecord
2
0
70
0
6
CONTINUOUS
0
ENDTAB
0
TABLE
2
STYLE
5
3
100
AcDbSymbolTable
70
1
0
STYLE
5
11
100
AcDbSymbolTableRecord
100
AcDbTextStyleTableRecord
2
STANDARD
70
0
0
ENDTAB
0
TABLE
2
VIEW
5
6
100
AcDbSymbolTable
70
0
0
ENDTAB
0
TABLE
2
UCS
5
7
100
AcDbSymbolTable
70
0
0
ENDTAB
0
TABLE
2
APPID
5
9
100
AcDbSymbolTable
70
2
0
APPID
5
12
100
AcDbSymbolTableRecord
100
AcDbRegAppTableRecord
2
ACAD
70
0
0
ENDTAB
0
TABLE
2
DIMSTYLE
5
A
100
AcDbSymbolTable
70
1
0
ENDTAB
0
TABLE
2
BLOCK_RECORD
5
1
100
AcDbSymbolTable
70
1
0
BLOCK_RECORD
5
1F
100
AcDbSymbolTableRecord
100
AcDbBlockTableRecord
2
*MODEL_SPACE
0
BLOCK_RECORD
5
1B
100
AcDbSymbolTableRecord
100
AcDbBlockTableRecord
2
*PAPER_SPACE
0
ENDTAB
0
ENDSEC
0
SECTION
2
BLOCKS
0
BLOCK
5
20
100
AcDbEntity
100
AcDbBlockBegin
2
*MODEL_SPACE
0
ENDBLK
5
21
100
AcDbEntity
100
AcDbBlockEnd
0
BLOCK
5
1C
100
AcDbEntity
100
AcDbBlockBegin
2
*PAPER_SPACE
0
ENDBLK
5
1D
100
AcDbEntity
100
AcDbBlockEnd
0
ENDSEC
0
SECTION
2
ENTITIES
0
LWPOLYLINE
5
100
100
AcDbEntity
8
0
100
AcDbPolyline
90
19
70
1
43
0.0
10
-157.26924899999983
20
-72.968224000000021
42
-0.41421356237309503
10
-158.76924899999983
20
-71.468224000000021
10
-158.76924899999989
20
-19.167524
10
-156.26924899999989
20
-19.167524
42
0.99999999999999989
10
-156.26924899999989
20
-14.167524
10
-158.76924899999989
20
-14.156654212808935
10
-158.76924899999986
20
19.731775000000006
42
-0.41421356237309465
10
-157.26924899999986
20
21.231775000000003
10
124.768781
20
21.231775000000006
42
-0.41421356237309465
10
126.268781
20
19.731775000000003
10
126.268781
20
-14.166757111595949
10
126.10575639999854
20
-14.166713983800001
10
124.10521640000729
20
-14.167074081000006
42
0.41416084257692004
10
121.60566639999999
20
-16.667074040500012
10
121.60566639999999
20
-16.667524
42
0.41421356237309503
10
124.10566639999999
20
-19.167524
10
126.268781
20
-19.167524
10
126.26878099999999
20
-71.468224000000021
42
-0.41421356237309159
10
124.76878100000002
20
-72.968224000000006
0
LINE
5
101
100
AcDbEntity
8
0
100
AcDbLine
10
-125.01224899999968
20
0.18177536345915388
30
0
11
-125.01224899999967
21
0.65177500000000022
31
0
0
ARC
5
102
100
AcDbEntity
8
0
100
AcDbCircle
10
-124.51224899999966
20
0.6517750000000001
30
0
40
0.5
210
0
220
-0
230
1
100
AcDbArc
50
90
51
180
0
LINE
5
103
100
AcDbEntity
8
0
100
AcDbLine
10
-124.51224899999966
20
1.1517750000000002
30
0
11
-117.21844154363035
21
1.1517750000000049
31
0
0
ARC
5
104
100
AcDbEntity
8
0
100
AcDbCircle
10
-117.21844154363038
20
0.6517750000000001
30
0
40
0.50000000000000466
210
0
220
0
230
1
100
AcDbArc
50
-0.59194268914900972
51
89.999999999996746
0
LINE
5
105
100
AcDbEntity
8
0
100
AcDbLine
10
-116.71846822758559
20
0.64660941743969769
30
0
11
-116.7232727642712
21
0.18158149256733402
31
0
0
ARC
5
106
100
AcDbEntity
8
0
100
AcDbCircle
10
-116.73721800000001
20
-0.31822400000000001
30
0
40
0.50000000000000711
210
0
220
-0
230
1
100
AcDbArc
50
0
51
88.401786448529691
0
LINE
5
107
100
AcDbEntity
8
0
100
AcDbLine
10
-116.237218
20
-0.31822399999999995
30
0
11
-116.237218
21
-13.318224000000001
31
0
0
ARC
5
108
100
AcDbEntity
8
0
100
AcDbCircle
10
-116.73721800000001
20
-13.318224000000001
30
0
40
0.50000000000000044
210
0
220
0
230
1
100
AcDbArc
50
-90
51
0
0
LINE
5
109
100
AcDbEntity
8
0
100
AcDbLine
10
-116.73721800000001
20
-13.818224000000001
30
0
11
-155.931218
21
-13.818224000000001
31
0
0
ARC
5
110
100
AcDbEntity
8
0
100
AcDbCircle
10
-155.931218
20
-13.318224000000001
30
0
40
0.50000000000000711
210
0
220
0
230
1
100
AcDbArc
50
180
51
270
0
LINE
5
111
100
AcDbEntity
8
0
100
AcDbLine
10
-156.431218
20
-13.318224000000001
30
0
11
-156.43121750022863
21
-0.31822400000000028
31
0
0
ARC
5
112
100
AcDbEntity
8
0
100
AcDbCircle
10
-155.931218
20
-0.31822400000000001
30
0
40
0.49999900000000008
210
0
220
-0
230
1
100
AcDbArc
50
90
51
180
0
LINE
5
113
100
AcDbEntity
8
0
100
AcDbLine
10
-155.931218
20
0.18177500000000008
30
0
11
-148.8122489253841
21
0.18177554761300568
31
0
0
LINE
5
114
100
AcDbEntity
8
0
100
AcDbLine
10
-148.8122489253841
20
0.18177554761300568
30
0
11
-148.81224896153788
21
0.65177496153846382
31
0
0
ARC
5
115
100
AcDbEntity
8
0
100
AcDbCircle
10
-148.31224896153788
20
0.65177499999998223
30
0
40
0.50000000000001776
210
0
220
0
230
1
100
AcDbArc
50
90
51
180.00000435340849
0
LINE
5
116
100
AcDbEntity
8
0
100
AcDbLine
10
-148.31224896153788
20
1.151775
30
0
11
-141.01324901832919
21
1.15177499999999
31
0
0
ARC
5
117
100
AcDbEntity
8
0
100
AcDbCircle
10
-141.01324901832919
20
0.6517750000000001
30
0
40
0.49999999999998967
210
0
220
0
230
1
100
AcDbArc
50
-2.0913098143694567e-06
51
90
0
LINE
5
118
100
AcDbEntity
8
0
100
AcDbLine
10
-140.51324901832919
20
0.65177498167038983
30
0
11
-140.513249035559
21
0.18177550275193
31
0
0
LINE
5
119
100
AcDbEntity
8
0
100
AcDbLine
10
-140.513249035559
20
0.18177550275193
30
0
11
-129.73721800000001
21
0.18177499999999999
31
0
0
LINE
5
120
100
AcDbEntity
8
0
100
AcDbLine
10
-129.73721800000001
20
0.18177499999999999
30
0
11
-125.01224899999968
21
0.18177536345915388
31
0
0
LWPOLYLINE
5
121
100
AcDbEntity
8
0
100
AcDbPolyline
90
8
70
1
43
0.0
10
-74.969217999999998
20
-32.868223999999998
42
-0.41421356237309503
10
-75.469217999999998
20
-32.368223999999998
10
-75.469217999999998
20
-19.368224000000001
42
-0.41421356237309503
10
-74.969217999999998
20
-18.868224000000001
10
-61.969217999999998
20
-18.868224000000005
42
-0.41421356237309503
10
-61.469218000000005
20
-19.368224000000001
10
-61.469218000000005
20
-32.368223999999998
42
-0.41421356237309503
10
-61.969217999999998
20
-32.868223999999998
0
LWPOLYLINE
5
122
100
AcDbEntity
8
0
100
AcDbPolyline
90
8
70
1
43
0.0
10
-95.306218000000001
20
-37.918223999999995
42
-0.41421356237309503
10
-94.806218000000001
20
-38.418224000000002
10
-94.806218000000015
20
-51.418224000000009
42
-0.41421356237309503
10
-95.306218000000001
20
-51.918224000000002
10
-108.30621800000002
20
-51.918224000000009
42
-0.41421356237309503
10
-108.80621800000002
20
-51.418224000000009
10
-108.806218
20
-38.418224000000002
42
-0.41421356237309503
10
-108.30621800000002
20
-37.918224000000002
0
LWPOLYLINE
5
123
100
AcDbEntity
8
0
100
AcDbPolyline
90
8
70
1
43
0.0
10
-118.33121800000001
20
-57.468223999999999
42
-0.41421356237309503
10
-117.83121800000002
20
-56.968224000000006
10
-104.83121800000001
20
-56.968223999999992
42
-0.41421356237309503
10
-104.33121800000001
20
-57.468223999999999
10
-104.33121800000002
20
-70.468224000000006
42
-0.41421356237309503
10
-104.83121800000001
20
-70.968224000000006
10
-117.83121800000002
20
-70.968224000000021
42
-0.41421356237309503
10
-118.33121800000002
20
-70.468224000000006
0
LWPOLYLINE
5
124
100
AcDbEntity
8
0
100
AcDbPolyline
90
8
70
1
43
0.0
10
-85.28121800000001
20
-70.468224000000006
42
-0.41421356237309503
10
-85.781217999999996
20
-70.968224000000006
10
-98.78121800000001
20
-70.968224000000021
42
-0.41421356237309503
10
-99.28121800000001
20
-70.468224000000006
10
-99.281217999999996
20
-57.468223999999999
42
-0.41421356237309503
10
-98.78121800000001
20
-56.968224000000006
10
-85.781217999999996
20
-56.968223999999992
42
-0.41421356237309503
10
-85.281217999999996
20
-57.468223999999999
0
ARC
5
125
100
AcDbEntity
8
0
100
AcDbCircle
10
-103.54321800000001
20
-0.31822400000000001
30
0
40
0.49999900000000008
210
0
220
-0
230
1
100
AcDbArc
50
90
51
180
0
LINE
5
126
100
AcDbEntity
8
0
100
AcDbLine
10
-103.54321800000001
20
0.18177500000000008
30
0
11
-90.543217999999996
21
0.18177549977137636
31
0
0
ARC
5
127
100
AcDbEntity
8
0
100
AcDbCircle
10
-90.543217999999996
20
-0.31822400000000001
30
0
40
0.50000000000000711
210
0
220
-0
230
1
100
AcDbArc
50
0
51
90
0
LINE
5
128
100
AcDbEntity
8
0
100
AcDbLine
10
-90.043217999999996
20
-0.31822399999999995
30
0
11
-90.043217999999996
21
-13.318224000000001
31
0
0
ARC
5
129
100
AcDbEntity
8
0
100
AcDbCircle
10
-90.543217999999996
20
-13.318224000000001
30
0
40
0.50000000000000044
210
0
220
0
230
1
100
AcDbArc
50
-90
51
0
0
LINE
5
130
100
AcDbEntity
8
0
100
AcDbLine
10
-90.543217999999996
20
-13.818224000000001
30
0
11
-103.54321800000001
21
-13.818224000000001
31
0
0
ARC
5
131
100
AcDbEntity
8
0
100
AcDbCircle
10
-103.54321800000001
20
-13.318224000000001
30
0
40
0.50000000000000711
210
0
220
0
230
1
100
AcDbArc
50
180
51
270
0
LINE
5
132
100
AcDbEntity
8
0
100
AcDbLine
10
-104.04321800000002
20
-13.318224000000001
30
0
11
-104.043217
21
-0.31822400000000001
31
0
0
LWPOLYLINE
5
133
100
AcDbEntity
8
0
100
AcDbPolyline
90
8
70
1
43
0.0
10
-113.56921800000002
20
-19.368224000000001
42
-0.41421356237309503
10
-113.06921800000001
20
-18.868224000000001
10
-100.06921800000001
20
-18.868223999999994
42
-0.41421356237309503
10
-99.569218000000006
20
-19.368224000000001
10
-99.569218000000006
20
-32.368223999999998
42
-0.41421356237309503
10
-100.06921800000001
20
-32.868223999999998
10
-113.06921800000001
20
-32.868224000000005
42
-0.41421356237309503
10
-113.56921800000002
20
-32.368223999999998
0
LWPOLYLINE
5
134
100
AcDbEntity
8
0
100
AcDbPolyline
90
51
70
1
43
0.0
10
-154.05121800000001
20
-28.392224000000002
10
-154.05121800000001
20
-41.892223999999999
42
0.41421356237309503
10
-153.55121800000001
20
-42.392223999999999
10
-151.66821800000002
20
-42.392223999999999
10
-151.66821800000002
20
-43.967624000000001
10
-152.08121800000001
20
-43.967624000000001
42
0.41421356237309503
10
-152.58121800000001
20
-44.467624000000001
10
-152.58121800000001
20
-50.992624000000006
42
0.41421356237309503
10
-152.08121800000001
20
-51.492624000000006
10
-151.66821800000002
20
-51.492624000000006
10
-151.66821800000002
20
-51.918224000000002
10
-138.168218
20
-51.918224000000002
42
0.41421356237309503
10
-137.668218
20
-51.418224000000009
10
-137.668218
20
-46.918524000000005
10
-127.85621800000001
20
-46.918524000000005
10
-127.85621800000001
20
-51.418224000000009
42
0.41421356237309503
10
-127.35621800000001
20
-51.918224000000002
10
-114.356218
20
-51.918224000000002
42
0.41421356237309503
10
-113.85621800000001
20
-51.418224000000009
10
-113.85621799999998
20
-38.418224000000002
42
0.41421356237309503
10
-114.356218
20
-37.918224000000002
10
-127.35621800000001
20
-37.918224000000002
42
0.41421356237309503
10
-127.85621800000001
20
-38.418224000000002
10
-127.85621800000001
20
-42.918523999999998
10
-137.668218
20
-42.918523999999998
10
-137.668218
20
-38.418224000000002
42
0.41421356237309503
10
-138.168218
20
-37.918224000000002
10
-140.05121800000001
20
-37.918224000000002
10
-140.05121800000001
20
-32.868223999999998
10
-128.95021800000001
20
-32.867705999999998
10
-128.95021800000001
20
-33.336224000000001
42
0.41421356237309503
10
-128.45021800000001
20
-33.836224000000001
10
-121.92521800000002
20
-33.836224000000001
42
0.41421356237309503
10
-121.425218
20
-33.336224000000001
10
-121.425218
20
-32.867355000000003
10
-119.120195
20
-32.867247999999996
42
0.41419989563794002
10
-118.62021799947001
20
-32.367248330689002
10
-118.62021799999999
20
-19.367224
42
0.41421356237309503
10
-119.12021799999999
20
-18.867224
10
-121.425218
20
-18.867224
10
-121.425218
20
-18.398223999999999
42
0.41421356237309503
10
-121.92521800000002
20
-17.898223999999999
10
-128.45021800000001
20
-17.898223999999999
42
0.41421356237309503
10
-128.95021800000001
20
-18.398223999999999
10
-128.95021800000001
20
-18.867224
10
-146.10021800000001
20
-18.867224
10
-146.10021800000001
20
-18.398223999999999
42
0.41421356237309503
10
-146.60021800000004
20
-17.898223999999999
10
-153.12521799999999
20
-17.898223999999999
42
0.41421356237309503
10
-153.62521799999999
20
-18.398223999999999
10
-153.62521799999999
20
-28.392224000000002
0
LWPOLYLINE
5
135
100
AcDbEntity
8
0
100
AcDbPolyline
90
18
70
1
43
0.0
10
-156.00621799999999
20
-56.968224000000006
10
-156.431218
20
-56.968224000000006
10
-156.431218
20
-70.468224000000006
42
0.41421356237309503
10
-155.931218
20
-70.968224000000006
10
-123.881218
20
-70.968224000000006
42
0.41421356237309503
10
-123.38121800000002
20
-70.468224000000006
10
-123.38121800000002
20
-56.968224000000006
10
-123.806218
20
-56.968224000000006
10
-123.806218
20
-56.498224000000008
42
0.41421356237309503
10
-124.306218
20
-55.998224000000008
10
-130.83121800000001
20
-55.998224000000008
42
0.41421356237309503
10
-131.33121800000001
20
-56.498224000000008
10
-131.33121800000001
20
-56.968224000000006
10
-148.48121800000001
20
-56.968224000000006
10
-148.48121800000001
20
-56.498224000000008
42
0.41421356237309503
10
-148.98121800000001
20
-55.998224000000008
10
-155.50621799999999
20
-55.998224000000008
42
0.41421356237309503
10
-156.00621799999999
20
-56.498224000000008
0
LWPOLYLINE
5
136
100
AcDbEntity
8
0
100
AcDbPolyline
90
8
70
1
43
0.0
10
-80.519218000000009
20
-32.368223999999998
10
-80.519218000000009
20
-19.368224000000001
42
0.41421356237309503
10
-81.019217999999995
20
-18.868224000000001
10
-94.019217999999995
20
-18.868224000000001
42
0.41421356237309503
10
-94.519217999999995
20
-19.368224000000001
10
-94.519218000000009
20
-32.368223999999998
42
0.41421356237309503
10
-94.019217999999995
20
-32.868223999999998
10
-81.019217999999995
20
-32.868223999999998
42
0.41421356237309503
0
ARC
5
137
100
AcDbEntity
8
0
100
AcDbCircle
10
-84.493217999999999
20
-0.31822400000000001
30
0
40
0.49999900000000008
210
0
220
-0
230
1
100
AcDbArc
50
90
51
180
0
LINE
5
138
100
AcDbEntity
8
0
100
AcDbLine
10
-84.493217999999999
20
0.18177500000000008
30
0
11
-71.493217999999999
21
0.18177549977137636
31
0
0
ARC
5
139
100
AcDbEntity
8
0
100
AcDbCircle
10
-71.493217999999999
20
-0.31822400000000001
30
0
40
0.49999999999999822
210
0
220
-0
230
1
100
AcDbArc
50
0
51
90
0
LINE
5
140
100
AcDbEntity
8
0
100
AcDbLine
10
-70.993217999999999
20
-0.31822399999999995
30
0
11
-70.993217999999999
21
-13.318224000000001
31
0
0
ARC
5
141
100
AcDbEntity
8
0
100
AcDbCircle
10
-71.493217999999999
20
-13.318224000000001
30
0
40
0.50000000000000044
210
0
220
0
230
1
100
AcDbArc
50
-90
51
0
0
LINE
5
142
100
AcDbEntity
8
0
100
AcDbLine
10
-71.493217999999999
20
-13.818224000000001
30
0
11
-84.493217999999999
21
-13.818224000000001
31
0
0
ARC
5
143
100
AcDbEntity
8
0
100
AcDbCircle
10
-84.493217999999999
20
-13.318224000000001
30
0
40
0.50000000000000711
210
0
220
0
230
1
100
AcDbArc
50
180
51
270
0
LINE
5
144
100
AcDbEntity
8
0
100
AcDbLine
10
-84.993218000000013
20
-13.318224000000001
30
0
11
-84.993216999999987
21
-0.31822400000000001
31
0
0
LWPOLYLINE
5
145
100
AcDbEntity
8
0
100
AcDbPolyline
90
8
70
1
43
0.0
10
-70.206218000000007
20
-51.918224000000002
10
-57.206218
20
-51.918224000000002
42
0.41421356237309503
10
-56.706218
20
-51.418224000000009
10
-56.706218
20
-38.418224000000002
42
0.41421356237309503
10
-57.206218
20
-37.918224000000002
10
-70.206218000000007
20
-37.918224000000002
42
0.41421356237309503
10
-70.706218000000007
20
-38.418224000000002
10
-70.706218000000007
20
-51.418224000000009
42
0.41421356237309503
0
LWPOLYLINE
5
146
100
AcDbEntity
8
0
100
AcDbPolyline
90
8
70
1
43
0.0
10
-76.256218000000018
20
-37.918224000000002
42
-0.41421356237309503
10
-75.756218000000018
20
-38.418224000000002
10
-75.756218000000018
20
-51.418224000000009
42
-0.41421356237309503
10
-76.256218000000018
20
-51.918224000000002
10
-89.256218000000004
20
-51.918224000000009
42
-0.41421356237309503
10
-89.756218000000004
20
-51.418224000000009
10
-89.75621799999999
20
-38.418224000000002
42
-0.41421356237309503
10
-89.256218000000004
20
-37.918224000000002
0
LWPOLYLINE
5
147
100
AcDbEntity
8
0
100
AcDbPolyline
90
8
70
1
43
0.0
10
-66.731218000000013
20
-56.968224000000006
10
-79.731217999999998
20
-56.968224000000006
42
0.41421356237309503
10
-80.231217999999998
20
-57.468223999999999
10
-80.231217999999998
20
-70.468224000000006
42
0.41421356237309503
10
-79.731217999999998
20
-70.968224000000006
10
-66.731218000000013
20
-70.968224000000006
42
0.41421356237309503
10
-66.231217999999998
20
-70.468224000000006
10
-66.231218000000013
20
-57.468223999999999
42
0.41421356237309503
0
LWPOLYLINE
5
148
100
AcDbEntity
8
0
100
AcDbPolyline
90
8
70
1
43
0.0
10
66.618780999999998
20
-56.968224000000006
10
53.618780999999998
20
-56.968224000000006
42
0.41421356237309503
10
53.118781000000006
20
-57.468223999999999
10
53.118781000000006
20
-70.468224000000006
42
0.41421356237309503
10
53.618780999999998
20
-70.968224000000006
10
66.618780999999998
20
-70.968224000000006
42
0.41421356237309503
10
67.118780999999998
20
-70.468224000000006
10
67.118780999999998
20
-57.468223999999999
42
0.41421356237309503
0
LWPOLYLINE
5
149
100
AcDbEntity
8
0
100
AcDbPolyline
90
8
70
1
43
0.0
10
48.068781000000001
20
-70.468224000000006
42
-0.41421356237309503
10
47.568781000000008
20
-70.968224000000006
10
34.568781000000001
20
-70.968224000000006
42
-0.41421356237309503
10
34.068781000000008
20
-70.468224000000006
10
34.068781000000008
20
-57.468223999999999
42
-0.41421356237309503
10
34.568781000000001
20
-56.968224000000006
10
47.568781000000008
20
-56.968224000000006
42
-0.41421356237309503
10
48.068781000000001
20
-57.468223999999999
0
LWPOLYLINE
5
150
100
AcDbEntity
8
0
100
AcDbPolyline
90
8
70
1
43
0.0
10
104.71878100000001
20
-56.968223999999992
42
-0.41421356237309503
10
105.21878100000002
20
-57.468223999999999
10
105.21878100000002
20
-70.468224000000006
42
-0.41421356237309503
10
104.71878100000001
20
-70.968224000000006
10
91.718781000000007
20
-70.968224000000021
42
-0.41421356237309503
10
91.218781000000007
20
-70.468224000000006
10
91.218781000000007
20
-57.468223999999999
42
-0.41421356237309503
10
91.718781000000007
20
-56.968224000000006
0
LWPOLYLINE
5
151
100
AcDbEntity
8
0
100
AcDbPolyline
90
8
70
1
43
0.0
10
123.768781
20
-56.968224000000006
10
110.76878100000002
20
-56.968224000000006
42
0.41421356237309503
10
110.26878100000002
20
-57.468223999999999
10
110.26878100000002
20
-70.468224000000006
42
0.41421356237309503
10
110.76878100000002
20
-70.968224000000006
10
123.768781
20
-70.968224000000006
42
0.41421356237309503
10
124.26878100000002
20
-70.468224000000006
10
124.26878100000002
20
-57.468223999999999
42
0.41421356237309503
0
LWPOLYLINE
5
152
100
AcDbEntity
8
0
100
AcDbPolyline
90
8
70
1
43
0.0
10
72.168780999999996
20
-57.468223999999999
42
-0.41421356237309503
10
72.668780999999996
20
-56.968224000000006
10
85.668780999999996
20
-56.968223999999992
42
-0.41421356237309503
10
86.16878100000001
20
-57.468223999999999
10
86.16878100000001
20
-70.468224000000006
42
-0.41421356237309503
10
85.668780999999996
20
-70.968224000000006
10
72.668780999999996
20
-70.968224000000006
42
-0.41421356237309503
10
72.168780999999996
20
-70.468224000000006
0
LWPOLYLINE
5
153
100
AcDbEntity
8
0
100
AcDbPolyline
90
8
70
1
43
0.0
10
105.50578099999998
20
18.731774999999999
42
-0.41421356237309503
10
106.005781
20
19.231774999999999
10
121.38778100000002
20
19.231775000000006
42
-0.41421356237309503
10
121.88778100000002
20
18.731774999999999
10
121.88778100000002
20
5.7317750000000007
42
-0.4142135623730957
10
121.38778100000002
20
5.2317749999999998
10
106.005781
20
5.2317749999999927
42
-0.41421356237309503
10
105.50578099999998
20
5.731774999999999
0
LWPOLYLINE
5
154
100
AcDbEntity
8
0
100
AcDbPolyline
90
14
70
1
43
0.0
10
13.037781000000003
20
18.731774999999999
10
13.037781000000003
20
4.9697750000000003
42
0.41421356237309503
10
13.537781000000003
20
4.4697750000000003
10
24.849781
20
4.4697750000000012
42
0.41421356237309503
10
25.349781
20
4.9697750000000003
10
25.349781
20
5.2317749999999998
10
37.737780999999998
20
5.2317749999999998
10
37.737781000000005
20
4.9697750000000003
42
0.41421356237309503
10
38.237780999999998
20
4.4697750000000003
10
49.54978100000001
20
4.4697750000000012
42
0.41421356237309503
10
50.04978100000001
20
4.9697750000000003
10
50.04978100000001
20
18.731774999999999
42
0.41421356237309503
10
49.54978100000001
20
19.231774999999999
10
13.537781000000003
20
19.231774999999999
42
0.41421356237309503
0
LWPOLYLINE
5
155
100
AcDbEntity
8
0
100
AcDbPolyline
90
11
70
1
43
0.0
10
74.262781000000004
20
5.7317749999999998
42
-0.41421356237309503
10
73.762781000000004
20
5.2317749999999998
10
64.863715999999997
20
5.2317749999999998
10
64.863715999999997
20
4.9697750000000003
42
-0.41421356237309503
10
64.363715999999997
20
4.4697750000000012
10
58.380781000000006
20
4.4697750000000021
42
-0.41421356237309503
10
57.880781000000006
20
4.9697750000000003
10
57.880781000000006
20
18.731774999999999
42
-0.41421356237309503
10
58.380781000000006
20
19.231774999999999
10
73.762781000000004
20
19.231774999999999
42
-0.41421356237309503
10
74.262781000000004
20
18.731774999999999
0
LWPOLYLINE
5
156
100
AcDbEntity
8
0
100
AcDbPolyline
90
8
70
1
43
0.0
10
76.930780999999996
20
18.731774999999999
42
-0.41421356237309503
10
77.430780999999996
20
19.231774999999999
10
97.574781000000002
20
19.231775000000006
42
-0.41421356237309503
10
98.074781000000002
20
18.731774999999999
10
98.074781000000002
20
5.7317750000000007
42
-0.4142135623730957
10
97.574781000000002
20
5.2317749999999998
10
77.430780999999996
20
5.2317750000000016
42
-0.41421356237309503
10
76.930780999999996
20
5.731774999999999
0
LWPOLYLINE
5
157
100
AcDbEntity
8
0
100
AcDbPolyline
90
8
70
1
43
0.0
10
121.88758100006402
20
-32.367932000000003
42
-0.41420887608935614
10
121.38758900000001
20
-32.867932000000003
10
103.624989
20
-32.868215999936005
42
-0.41421824867235252
10
103.12498100000001
20
-32.368215999999997
10
103.12498099993601
20
-19.368216
42
-0.41420887608935614
10
103.62497300000001
20
-18.868216
10
121.38757300000002
20
-18.867932000063995
42
-0.41421824867235252
10
121.88758100000001
20
-19.367932
0
LWPOLYLINE
5
158
100
AcDbEntity
8
0
100
AcDbPolyline
90
20
70
1
43
0.0
10
81.693781000000001
20
-38.418224000000002
42
-0.41421356237309503
10
82.193781000000001
20
-37.918224000000002
10
95.193781000000001
20
-37.918223999999995
42
-0.41421356237309503
10
95.693781000000016
20
-38.418224000000002
10
95.693781000000001
20
-42.918523999999998
10
105.506281
20
-42.918523999999998
10
105.506281
20
-38.418224000000002
42
-0.41421356237309503
10
106.00628100000002
20
-37.918224000000002
10
119.006281
20
-37.918223999999995
42
-0.41421356237309503
10
119.50628100000002
20
-38.418224000000002
10
119.506281
20
-51.418224000000009
42
-0.41421356237309503
10
119.006281
20
-51.918224000000002
10
106.00628100000002
20
-51.918224000000009
42
-0.41421356237309503
10
105.506281
20
-51.418224000000009
10
105.506281
20
-46.918524000000005
10
95.693781000000001
20
-46.918524000000005
10
95.693781000000016
20
-51.418224000000009
42
-0.41421356237309503
10
95.193781000000001
20
-51.918224000000002
10
82.193781000000001
20
-51.918224000000009
42
-0.41421356237309503
10
81.693781000000001
20
-51.418224000000009
0
LWPOLYLINE
5
159
100
AcDbEntity
8
0
100
AcDbPolyline
90
8
70
1
43
0.0
10
52.830781000000009
20
-32.368223999999998
10
52.830781000000009
20
-19.368224000000001
42
0.41421356237309503
10
52.330781000000002
20
-18.868224000000001
10
39.330781000000002
20
-18.868224000000001
42
0.41421356237309503
10
38.830781000000002
20
-19.368224000000001
10
38.830781000000002
20
-32.368223999999998
42
0.41421356237309503
10
39.330781000000002
20
-32.868223999999998
10
52.330781000000002
20
-32.868223999999998
42
0.41421356237309503
0
ARC
5
160
100
AcDbEntity
8
0
100
AcDbCircle
10
29.806781000000004
20
-13.318224000000001
30
0
40
0.49999999999999822
210
0
220
0
230
1
100
AcDbArc
50
180
51
270
0
LINE
5
161
100
AcDbEntity
8
0
100
AcDbLine
10
29.306781000000008
20
-13.318224000000001
30
0
11
29.306781499771382
21
-0.31822400000000028
31
0
0
ARC
5
162
100
AcDbEntity
8
0
100
AcDbCircle
10
29.806781000000004
20
-0.31822400000000001
30
0
40
0.49999900000000008
210
0
220
-0
230
1
100
AcDbArc
50
90
51
180
0
LINE
5
163
100
AcDbEntity
8
0
100
AcDbLine
10
29.806781000000004
20
0.18177500000000008
30
0
11
42.806781000000001
21
0.18177549977137636
31
0
0
ARC
5
164
100
AcDbEntity
8
0
100
AcDbCircle
10
42.806781000000001
20
-0.31822400000000001
30
0
40
0.49999999999999822
210
0
220
-0
230
1
100
AcDbArc
50
0
51
90
0
LINE
5
165
100
AcDbEntity
8
0
100
AcDbLine
10
43.306781000000001
20
-0.31822399999999995
30
0
11
43.306781000000001
21
-13.318224000000001
31
0
0
ARC
5
166
100
AcDbEntity
8
0
100
AcDbCircle
10
42.806781000000001
20
-13.318224000000001
30
0
40
0.50000000000000044
210
0
220
0
230
1
100
AcDbArc
50
-90
51
0
0
LINE
5
167
100
AcDbEntity
8
0
100
AcDbLine
10
42.806781000000001
20
-13.818224000000001
30
0
11
29.806781000000004
21
-13.818224000000001
31
0
0
LWPOLYLINE
5
168
100
AcDbEntity
8
0
100
AcDbPolyline
90
8
70
1
43
0.0
10
33.780780999999998
20
-32.368223999999998
42
-0.41421356237309503
10
33.280780999999998
20
-32.868223999999998
10
20.280781000000001
20
-32.868223999999998
42
-0.41421356237309503
10
19.780781000000001
20
-32.368223999999998
10
19.780781000000001
20
-19.368224000000001
42
-0.41421356237309503
10
20.280781000000001
20
-18.868224000000001
10
33.280780999999998
20
-18.868224000000005
42
-0.41421356237309503
10
33.780780999999998
20
-19.368224000000001
0
LWPOLYLINE
5
169
100
AcDbEntity
8
0
100
AcDbPolyline
90
8
70
1
43
0.0
10
24.543781000000003
20
-38.418224000000002
42
-0.41421356237309503
10
25.043781000000003
20
-37.918224000000002
10
38.043781000000003
20
-37.918224000000002
42
-0.41421356237309503
10
38.543781000000003
20
-38.418224000000002
10
38.543781000000003
20
-51.418224000000009
42
-0.41421356237309503
10
38.043781000000003
20
-51.918224000000002
10
25.043781000000003
20
-51.918224000000002
42
-0.41421356237309503
10
24.543781000000003
20
-51.418224000000009
0
LWPOLYLINE
5
170
100
AcDbEntity
8
0
100
AcDbPolyline
90
8
70
1
43
0.0
10
57.093781000000007
20
-37.918224000000002
42
-0.41421356237309503
10
57.593781
20
-38.418224000000002
10
57.593781
20
-51.418224000000009
42
-0.41421356237309503
10
57.093781000000007
20
-51.918224000000002
10
44.093781000000007
20
-51.918224000000002
42
-0.41421356237309503
10
43.593781000000007
20
-51.418224000000009
10
43.593781000000007
20
-38.418224000000002
42
-0.41421356237309503
10
44.093781000000007
20
-37.918224000000002
0
LWPOLYLINE
5
171
100
AcDbEntity
8
0
100
AcDbPolyline
90
8
70
1
43
0.0
10
76.643781000000004
20
-51.418224000000009
10
76.643781000000004
20
-38.418224000000002
42
0.41421356237309503
10
76.143781000000004
20
-37.918224000000002
10
63.143780999999997
20
-37.918224000000002
42
0.41421356237309503
10
62.643781000000004
20
-38.418224000000002
10
62.643781000000004
20
-51.418224000000009
42
0.41421356237309503
10
63.143780999999997
20
-51.918224000000002
10
76.143781000000004
20
-51.918224000000002
42
0.41421356237309503
0
LINE
5
172
100
AcDbEntity
8
0
100
AcDbLine
10
86.956781000000007
20
0.18177499999999999
30
0
11
89.262781000000018
21
0.18177499999999999
31
0
0
LINE
5
173
100
AcDbEntity
8
0
100
AcDbLine
10
89.262781000000018
20
0.18177499999999999
30
0
11
89.262781000000018
21
0.65177499999999999
31
0
0
ARC
5
174
100
AcDbEntity
8
0
100
AcDbCircle
10
89.762781000000004
20
0.65177499999999999
30
0
40
0.5
210
0
220
-0
230
1
100
AcDbArc
50
90
51
180
0
LINE
5
175
100
AcDbEntity
8
0
100
AcDbLine
10
89.762781000000004
20
1.151775
30
0
11
96.287780999999995
21
1.151775
31
0
0
ARC
5
176
100
AcDbEntity
8
0
100
AcDbCircle
10
96.287780999999995
20
0.65177499999999999
30
0
40
0.50000000000000711
210
0
220
0
230
1
100
AcDbArc
50
0
51
90
0
LINE
5
177
100
AcDbEntity
8
0
100
AcDbLine
10
96.78778100000001
20
0.65177499999999999
30
0
11
96.78778100000001
21
0.18177499999999999
31
0
0
LINE
5
178
100
AcDbEntity
8
0
100
AcDbLine
10
96.78778100000001
20
0.18177499999999999
30
0
11
113.937781
21
0.18177499999999999
31
0
0
LINE
5
179
100
AcDbEntity
8
0
100
AcDbLine
10
113.937781
20
0.18177499999999999
30
0
11
113.937781
21
0.65177499999999999
31
0
0
ARC
5
180
100
AcDbEntity
8
0
100
AcDbCircle
10
114.43778100000002
20
0.65177499999999999
30
0
40
0.5
210
0
220
-0
230
1
100
AcDbArc
50
90
51
180
0
LINE
5
181
100
AcDbEntity
8
0
100
AcDbLine
10
114.43778100000002
20
1.151775
30
0
11
120.96278100000001
21
1.151775
31
0
0
ARC
5
182
100
AcDbEntity
8
0
100
AcDbCircle
10
120.96278100000001
20
0.65177499999999999
30
0
40
0.50000000000000711
210
0
220
0
230
1
100
AcDbArc
50
0
51
90
0
LINE
5
183
100
AcDbEntity
8
0
100
AcDbLine
10
121.46278100000002
20
0.65177499999999999
30
0
11
121.46278100000002
21
0.18177499999999999
31
0
0
LINE
5
184
100
AcDbEntity
8
0
100
AcDbLine
10
121.46278100000002
20
0.18177499999999999
30
0
11
122.00678099999999
21
0.18177549977137636
31
0
0
ARC
5
185
100
AcDbEntity
8
0
100
AcDbCircle
10
122.00678100000002
20
-0.31822400000000001
30
0
40
0.50000000000000711
210
0
220
-0
230
1
100
AcDbArc
50
0
51
90.000000000003254
0
LINE
5
186
100
AcDbEntity
8
0
100
AcDbLine
10
122.50678100000002
20
-0.31822399999999995
30
0
11
122.50678100000002
21
-13.318224000000001
31
0
0
ARC
5
187
100
AcDbEntity
8
0
100
AcDbCircle
10
122.00678100000002
20
-13.318224000000001
30
0
40
0.50000000000000044
210
0
220
0
230
1
100
AcDbArc
50
-90
51
0
0
LINE
5
188
100
AcDbEntity
8
0
100
AcDbLine
10
122.00678100000002
20
-13.818224000000001
30
0
11
86.956781000000007
21
-13.818224000000001
31
0
0
ARC
5
189
100
AcDbEntity
8
0
100
AcDbCircle
10
86.956781000000007
20
-13.318224000000001
30
0
40
0.50000000000000711
210
0
220
0
230
1
100
AcDbArc
50
180
51
270
0
LINE
5
190
100
AcDbEntity
8
0
100
AcDbLine
10
86.456780999999992
20
-13.318224000000001
30
0
11
86.456781499771381
21
-0.31822400000000028
31
0
0
ARC
5
191
100
AcDbEntity
8
0
100
AcDbCircle
10
86.956781000000007
20
-0.31822400000000001
30
0
40
0.49999899999999997
210
0
220
-0
230
1
100
AcDbArc
50
90
51
180
0
LWPOLYLINE
5
192
100
AcDbEntity
8
0
100
AcDbPolyline
90
8
70
1
43
0.0
10
76.930780999999996
20
-19.368224000000001
10
76.930780999999996
20
-32.368223999999998
42
0.41421356237309503
10
77.430780999999996
20
-32.868223999999998
10
90.43078100000001
20
-32.868223999999998
42
0.41421356237309503
10
90.930780999999996
20
-32.368223999999998
10
90.93078100000001
20
-19.368224000000001
42
0.41421356237309503
10
90.43078100000001
20
-18.868224000000001
10
77.430780999999996
20
-18.868224000000001
42
0.41421356237309503
0
LWPOLYLINE
5
193
100
AcDbEntity
8
0
100
AcDbPolyline
90
8
70
1
43
0.0
10
57.880780999999999
20
-19.368224000000001
10
57.880780999999999
20
-32.368223999999998
42
0.41421356237309503
10
58.380781000000006
20
-32.868223999999998
10
71.380780999999999
20
-32.868223999999998
42
0.41421356237309503
10
71.880780999999999
20
-32.368223999999998
10
71.880780999999999
20
-19.368224000000001
42
0.41421356237309503
10
71.380780999999999
20
-18.868224000000001
10
58.380781000000006
20
-18.868224000000001
42
0.41421356237309503
0
ARC
5
194
100
AcDbEntity
8
0
100
AcDbCircle
10
48.856780999999998
20
-0.31822400000000001
30
0
40
0.49999900000000008
210
0
220
-0
230
1
100
AcDbArc
50
90
51
180
0
LINE
5
195
100
AcDbEntity
8
0
100
AcDbLine
10
48.856780999999998
20
0.18177500000000008
30
0
11
61.856781000000005
21
0.18177549977137636
31
0
0
ARC
5
196
100
AcDbEntity
8
0
100
AcDbCircle
10
61.856781000000005
20
-0.31822400000000001
30
0
40
0.49999999999999822
210
0
220
-0
230
1
100
AcDbArc
50
0
51
90
0
LINE
5
197
100
AcDbEntity
8
0
100
AcDbLine
10
62.356781000000005
20
-0.31822399999999995
30
0
11
62.356781000000005
21
-13.318224000000001
31
0
0
ARC
5
198
100
AcDbEntity
8
0
100
AcDbCircle
10
61.856781000000005
20
-13.318224000000001
30
0
40
0.50000000000000044
210
0
220
0
230
1
100
AcDbArc
50
-90
51
0
0
LINE
5
199
100
AcDbEntity
8
0
100
AcDbLine
10
61.856781000000005
20
-13.818224000000001
30
0
11
48.856780999999998
21
-13.818224000000001
31
0
0
ARC
5
200
100
AcDbEntity
8
0
100
AcDbCircle
10
48.856780999999998
20
-13.318224000000001
30
0
40
0.49999999999999822
210
0
220
0
230
1
100
AcDbArc
50
180
51
270
0
LINE
5
201
100
AcDbEntity
8
0
100
AcDbLine
10
48.356780999999998
20
-13.318224000000001
30
0
11
48.356781999999995
21
-0.31822400000000001
31
0
0
ARC
5
202
100
AcDbEntity
8
0
100
AcDbCircle
10
80.906780999999995
20
-0.31822400000000001
30
0
40
0.50000000000000711
210
0
220
-0
230
1
100
AcDbArc
50
0
51
90
0
LINE
5
203
100
AcDbEntity
8
0
100
AcDbLine
10
81.406781000000009
20
-0.31822399999999995
30
0
11
81.406781000000009
21
-13.318224000000001
31
0
0
ARC
5
204
100
AcDbEntity
8
0
100
AcDbCircle
10
80.906780999999995
20
-13.318224000000001
30
0
40
0.50000000000000044
210
0
220
0
230
1
100
AcDbArc
50
-90
51
0
0
LINE
5
205
100
AcDbEntity
8
0
100
AcDbLine
10
80.906780999999995
20
-13.818224000000001
30
0
11
67.906780999999995
21
-13.818224000000001
31
0
0
ARC
5
206
100
AcDbEntity
8
0
100
AcDbCircle
10
67.906780999999995
20
-13.318224000000001
30
0
40
0.49999999999999822
210
0
220
0
230
1
100
AcDbArc
50
180
51
270
0
LINE
5
207
100
AcDbEntity
8
0
100
AcDbLine
10
67.406780999999995
20
-13.318224000000001
30
0
11
67.406781499771384
21
-0.31822400000000028
31
0
0
ARC
5
208
100
AcDbEntity
8
0
100
AcDbCircle
10
67.906780999999995
20
-0.31822400000000001
30
0
40
0.49999900000000008
210
0
220
-0
230
1
100
AcDbArc
50
90
51
180
0
LINE
5
209
100
AcDbEntity
8
0
100
AcDbLine
10
67.906780999999995
20
0.18177500000000008
30
0
11
80.906780999999995
21
0.18177600000000002
31
0
0
LWPOLYLINE
5
210
100
AcDbEntity
8
0
100
AcDbPolyline
90
8
70
1
43
0.0
10
28.518781000000004
20
-56.968224000000006
10
15.518781000000001
20
-56.968224000000006
42
0.41421356237309503
10
15.018781000000001
20
-57.468223999999999
10
15.018781000000001
20
-70.468224000000006
42
0.41421356237309503
10
15.518781000000001
20
-70.968224000000006
10
28.518781000000004
20
-70.968224000000006
42
0.41421356237309503
10
29.018781000000004
20
-70.468224000000006
10
29.018781000000004
20
-57.468223999999999
42
0.41421356237309503
0
LWPOLYLINE
5
211
100
AcDbEntity
8
0
100
AcDbPolyline
90
8
70
1
43
0.0
10
-28.631218000000001
20
-56.968224000000006
42
-0.41421356237309503
10
-28.131218000000004
20
-57.468223999999999
10
-28.131218000000004
20
-70.468224000000006
42
-0.41421356237309503
10
-28.631218000000001
20
-70.968224000000006
10
-41.631217999999997
20
-70.968224000000006
42
-0.41421356237309503
10
-42.131217999999997
20
-70.468224000000006
10
-42.131217999999997
20
-57.468223999999999
42
-0.41421356237309503
10
-41.631217999999997
20
-56.968224000000006
0
LWPOLYLINE
5
212
100
AcDbEntity
8
0
100
AcDbPolyline
90
8
70
1
43
0.0
10
-47.181218000000001
20
-70.468224000000006
10
-47.181218000000001
20
-57.468223999999999
42
0.41421356237309503
10
-47.681218000000001
20
-56.968224000000006
10
-60.681218000000001
20
-56.968224000000006
42
0.41421356237309503
10
-61.181218000000008
20
-57.468223999999999
10
-61.181218000000001
20
-70.468224000000006
42
0.41421356237309503
10
-60.681218000000001
20
-70.968224000000006
10
-47.681218000000001
20
-70.968224000000006
42
0.41421356237309503
0
LWPOLYLINE
5
213
100
AcDbEntity
8
0
100
AcDbPolyline
90
8
70
1
43
0.0
10
-3.5312180000000004
20
-70.968224000000006
42
-0.41421356237309503
10
-4.031218
20
-70.468224000000006
10
-4.0312179999999991
20
-57.468223999999999
42
-0.41421356237309503
10
-3.5312180000000004
20
-56.968224000000006
10
9.4687809999999999
20
-56.968224000000006
42
-0.4142135623730957
10
9.9687810000000017
20
-57.468223999999999
10
9.9687809999999981
20
-70.468224000000006
42
-0.41421356237309503
10
9.4687809999999999
20
-70.968224000000006
0
LWPOLYLINE
5
214
100
AcDbEntity
8
0
100
AcDbPolyline
90
8
70
1
43
0.0
10
-22.581218
20
-70.968224000000006
10
-9.5812179999999998
20
-70.968224000000006
42
0.41421356237309503
10
-9.0812179999999998
20
-70.468224000000006
10
-9.0812179999999998
20
-57.468223999999999
42
0.41421356237309503
10
-9.5812179999999998
20
-56.968224000000006
10
-22.581218
20
-56.968224000000006
42
0.41421356237309503
10
-23.081218
20
-57.468223999999999
10
-23.081218
20
-70.468224000000006
42
0.41421356237309503
0
LWPOLYLINE
5
215
100
AcDbEntity
8
0
100
AcDbPolyline
90
8
70
1
43
0.0
10
-52.443218000000009
20
0.18177599999999822
42
-0.41421356237309503
10
-51.943218000000009
20
-0.31822400000000028
10
-51.943218000000009
20
-13.318224000000001
42
-0.41421356237309503
10
-52.443218000000009
20
-13.818224000000001
10
-65.443218000000002
20
-13.818223999999999
42
-0.41421356237309503
10
-65.943218000000002
20
-13.318224000000001
10
-65.943217000000004
20
-0.31822400000000034
42
-0.4142135623730952
10
-65.443218000000002
20
0.18177500000000008
0
LWPOLYLINE
5
216
100
AcDbEntity
8
0
100
AcDbPolyline
90
17
70
1
43
0.0
10
-21.387218000000004
20
4.9697750000000003
42
-0.41421356237309503
10
-21.887218000000001
20
4.4697750000000012
10
-33.199218000000002
20
4.4697750000000021
42
-0.41421356237309503
10
-33.699218000000002
20
4.9697750000000003
10
-33.699218000000002
20
5.2317749999999998
10
-46.087218000000007
20
5.2317749999999998
10
-46.087218000000007
20
4.9697750000000003
42
-0.41421356237309503
10
-46.587218000000007
20
4.4697750000000012
10
-57.899218000000005
20
4.4697750000000021
42
-0.41421356237309503
10
-58.399217999999998
20
4.9697750000000003
10
-58.399217999999998
20
18.731774999999999
42
-0.41421356237309503
10
-57.899218000000005
20
19.231774999999999
10
7.0877809999999997
20
19.231774999999999
42
-0.41421356237309503
10
7.5877809999999997
20
18.731774999999999
10
7.5877809999999997
20
5.7317750000000007
42
-0.4142135623730957
10
7.0877809999999997
20
5.2317749999999998
10
-21.387218000000004
20
5.2317749999999998
0
ARC
5
217
100
AcDbEntity
8
0
100
AcDbCircle
10
10.756781
20
-13.318224000000001
30
0
40
0.50000000000000044
210
0
220
0
230
1
100
AcDbArc
50
180
51
270
0
LINE
5
218
100
AcDbEntity
8
0
100
AcDbLine
10
10.256781
20
-13.318224000000001
30
0
11
10.256781499771376
21
-0.31822400000000028
31
0
0
ARC
5
219
100
AcDbEntity
8
0
100
AcDbCircle
10
10.756781
20
-0.31822400000000001
30
0
40
0.49999900000000008
210
0
220
-0
230
1
100
AcDbArc
50
90
51
180
0
LINE
5
220
100
AcDbEntity
8
0
100
AcDbLine
10
10.756781
20
0.18177500000000008
30
0
11
23.756781
21
0.18177549977137636
31
0
0
ARC
5
221
100
AcDbEntity
8
0
100
AcDbCircle
10
23.756781
20
-0.31822400000000001
30
0
40
0.49999999999999822
210
0
220
-0
230
1
100
AcDbArc
50
0
51
90
0
LINE
5
222
100
AcDbEntity
8
0
100
AcDbLine
10
24.256780999999997
20
-0.31822399999999995
30
0
11
24.256781000000004
21
-13.318224000000001
31
0
0
ARC
5
223
100
AcDbEntity
8
0
100
AcDbCircle
10
23.756781
20
-13.318224000000001
30
0
40
0.50000000000000044
210
0
220
0
230
1
100
AcDbArc
50
-90
51
0
0
LINE
5
224
100
AcDbEntity
8
0
100
AcDbLine
10
23.756781
20
-13.818224000000001
30
0
11
10.756781
21
-13.818224000000001
31
0
0
LWPOLYLINE
5
225
100
AcDbEntity
8
0
100
AcDbPolyline
90
8
70
1
43
0.0
10
-8.7932170000000003
20
-0.31822400000000001
42
-0.41421356237309503
10
-8.2932179999999995
20
0.18177500000000008
10
4.7067809999999994
20
0.18177599999999988
42
-0.41421356237309537
10
5.2067810000000003
20
-0.31822400000000028
10
5.2067810000000003
20
-13.318224000000001
42
-0.41421356237309503
10
4.7067809999999994
20
-13.818224000000001
10
-8.2932179999999995
20
-13.818224000000001
42
-0.41421356237309503
10
-8.7932179999999995
20
-13.318224000000001
0
LWPOLYLINE
5
226
100
AcDbEntity
8
0
100
AcDbPolyline
90
8
70
1
43
0.0
10
-42.419218000000001
20
-32.368223999999998
42
-0.41421356237309503
10
-42.919218000000001
20
-32.868223999999998
10
-55.919218000000008
20
-32.868223999999998
42
-0.41421356237309503
10
-56.419218000000001
20
-32.368223999999998
10
-56.419218000000001
20
-19.368224000000001
42
-0.41421356237309503
10
-55.919218000000008
20
-18.868224000000001
10
-42.919218000000001
20
-18.868224000000005
42
-0.41421356237309503
10
-42.419218000000001
20
-19.368224000000001
0
LWPOLYLINE
5
227
100
AcDbEntity
8
0
100
AcDbPolyline
90
20
70
1
43
0.0
10
-18.319218000000003
20
-19.368224000000001
42
-0.41421356237309503
10
-17.819217999999999
20
-18.868224000000001
10
-4.8192180000000011
20
-18.868224000000001
42
-0.41421356237309503
10
-4.3192180000000011
20
-19.368224000000001
10
-4.3192180000000002
20
-23.868224000000001
10
0.73078100000000035
20
-23.868224000000001
10
0.73078099999999946
20
-19.368224000000001
42
-0.41421356237309503
10
1.2307810000000008
20
-18.868224000000001
10
14.230781
20
-18.868224000000001
42
-0.41421356237309503
10
14.730781000000002
20
-19.368224000000001
10
14.730781
20
-32.368223999999998
42
-0.41421356237309503
10
14.230781
20
-32.868223999999998
10
1.230781000000001
20
-32.868223999999998
42
-0.41421356237309553
10
0.7307809999999999
20
-32.368223999999998
10
0.73078100000000035
20
-27.868224000000001
10
-4.3192180000000002
20
-27.868224000000001
10
-4.3192180000000029
20
-32.368223999999998
42
-0.41421356237309503
10
-4.8192180000000011
20
-32.868223999999998
10
-17.819217999999999
20
-32.868223999999998
42
-0.41421356237309503
10
-18.319218000000003
20
-32.368223999999998
0
LWPOLYLINE
5
228
100
AcDbEntity
8
0
100
AcDbPolyline
90
8
70
1
43
0.0
10
-23.369218000000004
20
-32.368223999999998
42
-0.41421356237309503
10
-23.869218
20
-32.868223999999998
10
-36.869217999999996
20
-32.868223999999998
42
-0.41421356237309503
10
-37.369217999999996
20
-32.368223999999998
10
-37.369218000000004
20
-19.368224000000001
42
-0.41421356237309503
10
-36.869217999999996
20
-18.868224000000001
10
-23.869218
20
-18.868224000000005
42
-0.41421356237309503
10
-23.369218000000004
20
-19.368224000000001
0
LWPOLYLINE
5
229
100
AcDbEntity
8
0
100
AcDbPolyline
90
8
70
1
43
0.0
10
-32.893217999999997
20
-13.318224000000001
10
-32.893217999999997
20
-0.31822400000000001
42
0.41421356237309503
10
-33.393217999999997
20
0.18177599999999999
10
-46.393218000000005
20
0.18177500000000008
42
0.4142135623730952
10
-46.893217
20
-0.31822400000000028
10
-46.893218000000005
20
-13.318224000000001
42
0.41421356237309503
10
-46.393218000000005
20
-13.818224000000001
10
-33.393217999999997
20
-13.818224000000001
42
0.41421356237309503
0
LWPOLYLINE
5
230
100
AcDbEntity
8
0
100
AcDbPolyline
90
8
70
1
43
0.0
10
-27.343218
20
-13.818224000000001
10
-14.343218000000002
20
-13.818224000000001
42
0.41421356237309503
10
-13.843218000000002
20
-13.318224000000001
10
-13.843218000000002
20
-0.31822399999999995
42
0.41421356237309503
10
-14.343218000000002
20
0.18177599999999999
10
-27.343218
20
0.18177500000000008
42
0.4142135623730952
10
-27.843216999999999
20
-0.31822400000000028
10
-27.843218
20
-13.318224000000001
42
0.41421356237309503
0
LWPOLYLINE
5
231
100
AcDbEntity
8
0
100
AcDbPolyline
90
8
70
1
43
0.0
10
-18.606218000000002
20
-51.418224000000009
42
-0.41421356237309503
10
-19.106217999999998
20
-51.918224000000002
10
-32.106217999999998
20
-51.918224000000002
42
-0.41421356237309503
10
-32.606217999999998
20
-51.418224000000009
10
-32.606217999999998
20
-38.418224000000002
42
-0.41421356237309503
10
-32.106217999999998
20
-37.918224000000002
10
-19.106217999999998
20
-37.918224000000002
42
-0.41421356237309503
10
-18.606217999999998
20
-38.418224000000002
0
LWPOLYLINE
5
232
100
AcDbEntity
8
0
100
AcDbPolyline
90
8
70
1
43
0.0
10
-38.15621800000001
20
-37.918224000000002
42
-0.41421356237309503
10
-37.65621800000001
20
-38.418224000000002
10
-37.65621800000001
20
-51.418224000000009
42
-0.41421356237309503
10
-38.15621800000001
20
-51.918224000000002
10
-51.156218000000003
20
-51.918224000000002
42
-0.41421356237309503
10
-51.656218000000003
20
-51.418224000000009
10
-51.656218000000003
20
-38.418224000000002
42
-0.41421356237309503
10
-51.156218000000003
20
-37.918224000000002
0
LWPOLYLINE
5
233
100
AcDbEntity
8
0
100
AcDbPolyline
90
8
70
1
43
0.0
10
-0.056217999999998991
20
-37.918225000000007
10
-13.056217999999999
20
-37.918224000000002
42
0.41421356237309503
10
-13.556217999999999
20
-38.418224000000002
10
-13.556217999999999
20
-51.418224000000009
42
0.41421356237309503
10
-13.056217999999999
20
-51.918224000000002
10
-0.056218000000000032
20
-51.918224000000002
42
0.41421356237309509
10
0.44378200000000007
20
-51.418224000000009
10
0.44378100000000004
20
-38.418224000000002
42
0.41421356237309442
0
LWPOLYLINE
5
234
100
AcDbEntity
8
0
100
AcDbPolyline
90
8
70
1
43
0.0
10
5.9937810000000002
20
-51.918224000000002
42
-0.41421356237309503
10
5.4937810000000002
20
-51.418224000000009
10
5.493781000000002
20
-38.418224000000002
42
-0.41421356237309503
10
5.9937810000000002
20
-37.918224000000002
10
18.993780999999998
20
-37.918224000000002
42
-0.41421356237309503
10
19.493780999999998
20
-38.418224000000002
10
19.493780999999998
20
-51.418224000000009
42
-0.41421356237309503
10
18.993780999999998
20
-51.918224000000002
0
LWPOLYLINE
5
235
100
AcDbEntity
8
0
100
AcDbPolyline
90
24
70
1
43
0.0
10
-66.731218000000013
20
19.231774999999999
10
-155.931218
20
19.231774999999999
42
0.41421356237309631
10
-156.431218
20
18.731774999999999
10
-156.431218
20
5.7317749999999998
42
0.41421356237309503
10
-155.931218
20
5.2317749999999998
10
-77.604248999999641
20
5.2317749999999998
10
-77.604248999999641
20
4.9697750000000003
42
0.41421356237309537
10
-77.104248999999641
20
4.4697750000000003
10
-69.354248999999683
20
4.4697750000000012
42
0.41421356237309503
10
-68.854248999999683
20
4.9697750000000003
10
-68.854248999999683
20
5.2317749999999998
10
-66.731218000000013
20
5.2317749999999998
42
0.026213600939625225
10
-66.678898750971968
20
5.2345198379542532
42
0.38439129530372829
10
-66.230248999999731
20
5.731875999999918
10
-66.230248999999702
20
8.380154869064782
42
-0.41421356237309503
10
-65.230248999999702
20
9.3801548690647785
10
-63.010271177707402
20
9.3801548690647785
42
0.41421356237309503
10
-61.010271177707409
20
11.380154869064771
10
-61.010271177707409
20
13.033729436173385
42
0.41421356237309503
10
-63.010271177707402
20
15.033729436173378
10
-65.230248999999702
20
15.03372943617336
42
-0.41421356237309503
10
-66.230248999999731
20
16.033729436173374
10
-66.230248999999731
20
18.731425999999889
42
0.31650692330900265
10
-66.561305094293431
20
19.202019196640798
42
0.086900684426030786
0
ENDSEC
0
SECTION
2
OBJECTS
0
DICTIONARY
5
C
100
AcDbDictionary
3
ACAD_GROUP
350
D
3
ACAD_MLINESTYLE
350
17
0
DICTIONARY
5
D
100
AcDbDictionary
0
DICTIONARY
5
1A
330
C
100
AcDbDictionary
0
DICTIONARY
5
17
100
AcDbDictionary
0
ENDSEC
0
EOF
