0
SECTION
2
HEADER
9
$INSUNITS
70
4
9
$ACADVER
1
AC1014
9
$HANDSEED
5
FFFF
0
ENDSEC
0
SECTION
2
TABLES
0
TABLE
2
VPORT
5
8
100
AcDbSymbolTable
0
ENDTAB
0
TABLE
2
LTYPE
5
5
100
AcDbSymbolTable
0
LTYPE
5
14
100
AcDbSymbolTableRecord
100
AcDbLinetypeTableRecord
2
BYBLOCK
70
0
0
LTYPE
5
15
100
AcDbSymbolTableRecord
100
AcDbLinetypeTableRecord
2
BYLAYER
70
0
0
ENDTAB
0
TABLE
2
LAYER
5
2
100
AcDbSymbolTable
70
2
0
LAYER
5
50
100
AcDbSymbolTableRecord
100
AcDbLayerTableRecord
2
0
70
0
6
CONTINUOUS
0
ENDTAB
0
TABLE
2
STYLE
5
3
100
AcDbSymbolTable
70
1
0
STYLE
5
11
100
AcDbSymbolTableRecord
100
AcDbTextStyleTableRecord
2
STANDARD
70
0
0
ENDTAB
0
TABLE
2
VIEW
5
6
100
AcDbSymbolTable
70
0
0
ENDTAB
0
TABLE
2
UCS
5
7
100
AcDbSymbolTable
70
0
0
ENDTAB
0
TABLE
2
APPID
5
9
100
AcDbSymbolTable
70
2
0
APPID
5
12
100
AcDbSymbolTableRecord
100
AcDbRegAppTableRecord
2
ACAD
70
0
0
ENDTAB
0
TABLE
2
DIMSTYLE
5
A
100
AcDbSymbolTable
70
1
0
ENDTAB
0
TABLE
2
BLOCK_RECORD
5
1
100
AcDbSymbolTable
70
1
0
BLOCK_RECORD
5
1F
100
AcDbSymbolTableRecord
100
AcDbBlockTableRecord
2
*MODEL_SPACE
0
BLOCK_RECORD
5
1B
100
AcDbSymbolTableRecord
100
AcDbBlockTableRecord
2
*PAPER_SPACE
0
ENDTAB
0
ENDSEC
0
SECTION
2
BLOCKS
0
BLOCK
5
20
100
AcDbEntity
100
AcDbBlockBegin
2
*MODEL_SPACE
0
ENDBLK
5
21
100
AcDbEntity
100
AcDbBlockEnd
0
BLOCK
5
1C
100
AcDbEntity
100
AcDbBlockBegin
2
*PAPER_SPACE
0
ENDBLK
5
1D
100
AcDbEntity
100
AcDbBlockEnd
0
ENDSEC
0
SECTION
2
ENTITIES
0
LWPOLYLINE
5
100
100
AcDbEntity
8
0
100
AcDbPolyline
90
8
70
1
43
0.0
10
-43.603901999999991
20
47.251026000000003
42
-0.41421356237309503
10
-43.103901999999998
20
47.751026000000003
10
-30.103902000000001
20
47.751026000000003
42
-0.41421356237309503
10
-29.603902000000005
20
47.251026000000003
10
-29.603902000000005
20
34.25102600000001
42
-0.41421356237309503
10
-30.103902000000001
20
33.75102600000001
10
-43.103901999999998
20
33.75102600000001
42
-0.41421356237309503
10
-43.603901999999991
20
34.25102600000001
0
LWPOLYLINE
5
101
100
AcDbEntity
8
0
100
AcDbPolyline
90
8
70
1
43
0.0
10
-96.278902000000016
20
53.301026
10
-96.278902000000016
20
66.301025999999993
42
0.41421356237309503
10
-96.778902000000002
20
66.801025999999993
10
-109.77890200000002
20
66.801025999999993
42
0.41421356237309503
10
-110.27890300000001
20
66.301024999999996
10
-110.27890200000002
20
53.301026
42
0.41421356237309503
10
-109.77890200000002
20
52.801026
10
-96.778902000000002
20
52.801026
42
0.41421356237309503
0
LWPOLYLINE
5
102
100
AcDbEntity
8
0
100
AcDbPolyline
90
8
70
1
43
0.0
10
-39.128902000000004
20
53.301026
42
-0.41421356237309503
10
-39.628901999999997
20
52.801026
10
-52.628902000000004
20
52.801026
42
-0.41421356237309503
10
-53.128901999999997
20
53.301026
10
-53.128901999999997
20
66.301025999999993
42
-0.41421356237309503
10
-52.628902000000004
20
66.801025999999993
10
-39.628901999999997
20
66.801025999999993
42
-0.41421356237309503
10
-39.128902000000004
20
66.301025999999993
0
ARC
5
103
100
AcDbEntity
8
0
100
AcDbCircle
10
-77.728902000000005
20
66.301025999999993
30
0
40
0.49999999999999822
210
0
220
0
230
1
100
AcDbArc
50
0
51
90
0
LINE
5
104
100
AcDbEntity
8
0
100
AcDbLine
10
-77.228902000000005
20
66.301025999999993
30
0
11
-77.228902000000005
21
53.301026
31
0
0
ARC
5
105
100
AcDbEntity
8
0
100
AcDbCircle
10
-77.728902000000005
20
53.301026
30
0
40
0.49999999999999822
210
0
220
0
230
1
100
AcDbArc
50
-90
51
0
0
LINE
5
106
100
AcDbEntity
8
0
100
AcDbLine
10
-77.728902000000005
20
52.801026
30
0
11
-90.728902000000019
21
52.801025499771377
31
0
0
ARC
5
107
100
AcDbEntity
8
0
100
AcDbCircle
10
-90.728902000000019
20
53.301026
30
0
40
0.50000000000000711
210
0
220
0
230
1
100
AcDbArc
50
180
51
270
0
LINE
5
108
100
AcDbEntity
8
0
100
AcDbLine
10
-91.228902000000019
20
53.301026
30
0
11
-91.228902000000005
21
66.301025999999993
31
0
0
ARC
5
109
100
AcDbEntity
8
0
100
AcDbCircle
10
-90.728902000000019
20
66.301025999999993
30
0
40
0.49999999999999822
210
0
220
-0
230
1
100
AcDbArc
50
90
51
180
0
LINE
5
110
100
AcDbEntity
8
0
100
AcDbLine
10
-90.728902000000019
20
66.801025999999993
30
0
11
-77.728902000000005
21
66.801025999999993
31
0
0
ARC
5
111
100
AcDbEntity
8
0
100
AcDbCircle
10
-66.916901999999993
20
-3.8489740000000006
30
0
40
0.49999999999999822
210
0
220
0
230
1
100
AcDbArc
50
180
51
270
0
LINE
5
112
100
AcDbEntity
8
0
100
AcDbLine
10
-67.416901999999993
20
-3.8489740000000006
30
0
11
-67.416901999999993
21
9.1510259999999999
31
0
0
ARC
5
113
100
AcDbEntity
8
0
100
AcDbCircle
10
-66.916901999999993
20
9.1510259999999999
30
0
40
0.50000000000000044
210
0
220
-0
230
1
100
AcDbArc
50
90
51
180
0
LINE
5
114
100
AcDbEntity
8
0
100
AcDbLine
10
-66.916901999999993
20
9.6510259999999999
30
0
11
-53.916902
21
9.6510259999999999
31
0
0
ARC
5
115
100
AcDbEntity
8
0
100
AcDbCircle
10
-53.916902
20
9.1510259999999999
30
0
40
0.49999999999999822
210
0
220
0
230
1
100
AcDbArc
50
0
51
90
0
LINE
5
116
100
AcDbEntity
8
0
100
AcDbLine
10
-53.416902000000007
20
9.1510259999999999
30
0
11
-53.416902499771375
21
-3.8489740000000006
31
0
0
ARC
5
117
100
AcDbEntity
8
0
100
AcDbCircle
10
-53.916902
20
-3.8489740000000006
30
0
40
0.49999899999999986
210
0
220
0
230
1
100
AcDbArc
50
-90
51
0
0
LINE
5
118
100
AcDbEntity
8
0
100
AcDbLine
10
-53.916902
20
-4.3489730000000009
30
0
11
-66.916901999999993
21
-4.3489740000000001
31
0
0
LWPOLYLINE
5
119
100
AcDbEntity
8
0
100
AcDbPolyline
90
11
70
1
43
0.0
10
-44.390901999999997
20
-8.6369730000000011
42
-0.41421356237309503
10
-43.890901999999997
20
-9.1369729999999993
10
-43.890901999999997
20
-22.898973000000002
42
-0.41421356237309503
10
-44.390901999999997
20
-23.398973000000002
10
-59.772902000000002
20
-23.398973000000002
42
-0.41421356237309503
10
-60.272902000000002
20
-22.898973000000002
10
-60.272902000000002
20
-9.8989729999999998
42
-0.41421356237309503
10
-59.772902000000002
20
-9.3989729999999998
10
-50.873837000000002
20
-9.3989729999999998
10
-50.873837000000002
20
-9.1369729999999993
42
-0.41421356237309503
10
-50.373837000000002
20
-8.6369729999999993
0
LWPOLYLINE
5
120
100
AcDbEntity
8
0
100
AcDbPolyline
90
8
70
1
43
0.0
10
-63.440901999999994
20
-9.3989729999990033
42
-0.41421297658677447
10
-62.940902000000001
20
-9.8989720000000005
10
-62.940902000000001
20
-22.898973000000002
42
-0.41421356237309503
10
-63.440902000000001
20
-23.398973000000002
10
-83.584902
20
-23.398973000000009
42
-0.41421356237309503
10
-84.084902000000014
20
-22.898973000000002
10
-84.084902000000014
20
-9.8989729999999998
42
-0.41421356237309503
10
-83.584902
20
-9.3989729999999998
0
ARC
5
121
100
AcDbEntity
8
0
100
AcDbCircle
10
-107.39790200000002
20
-9.8989729999999998
30
0
40
0.50000000000000044
210
0
220
-0
230
1
100
AcDbArc
50
90
51
180
0
LINE
5
122
100
AcDbEntity
8
0
100
AcDbLine
10
-107.39790200000002
20
-9.3989729999999998
30
0
11
-92.015901999997226
21
-9.3989724997713751
31
0
0
ARC
5
123
100
AcDbEntity
8
0
100
AcDbCircle
10
-92.015901000000014
20
-9.8989729999999998
30
0
40
0.50000000000100708
210
0
220
-0
230
1
100
AcDbArc
50
0.00011459029153797541
51
90.000114591124927
0
LINE
5
124
100
AcDbEntity
8
0
100
AcDbLine
10
-91.515900999999999
20
-9.8989720000000005
30
0
11
-91.515900500228611
21
-22.898973000002837
31
0
0
ARC
5
125
100
AcDbEntity
8
0
100
AcDbCircle
10
-92.015901000000014
20
-22.898972000000001
30
0
40
0.50000100000100101
210
0
220
0
230
1
100
AcDbArc
50
269.99988540867207
51
359.99988540970844
0
LINE
5
126
100
AcDbEntity
8
0
100
AcDbLine
10
-92.015901999999997
20
-23.398973000000002
30
0
11
-107.39790200000002
21
-23.398973000000002
31
0
0
ARC
5
127
100
AcDbEntity
8
0
100
AcDbCircle
10
-107.39790200000002
20
-22.898973000000002
30
0
40
0.50000000000000711
210
0
220
0
230
1
100
AcDbArc
50
180
51
270
0
LINE
5
128
100
AcDbEntity
8
0
100
AcDbLine
10
-107.89790200000002
20
-22.898973000000002
30
0
11
-107.89790200000002
21
-9.8989729999999998
31
0
0
LWPOLYLINE
5
129
100
AcDbEntity
8
0
100
AcDbPolyline
90
8
70
1
43
0.0
10
-63.440902000000001
20
28.701025000000001
10
-76.440901999999994
20
28.701025000000001
42
0.41421356237309503
10
-76.940900999999997
20
28.201026000000002
10
-76.940901999999994
20
15.201026000000002
42
0.41421356237309503
10
-76.440901999999994
20
14.701026000000002
10
-63.440902000000001
20
14.701026000000002
42
0.41421356237309503
10
-62.940902000000001
20
15.201026000000002
10
-62.940902000000001
20
28.201025000000005
42
0.41421356237309503
0
ARC
5
130
100
AcDbEntity
8
0
100
AcDbCircle
10
-68.203901999999999
20
34.25102600000001
30
0
40
0.49999999999999822
210
0
220
0
230
1
100
AcDbArc
50
-90
51
0
0
LINE
5
131
100
AcDbEntity
8
0
100
AcDbLine
10
-68.203901999999999
20
33.75102600000001
30
0
11
-81.203902000000014
21
33.75102549977138
31
0
0
ARC
5
132
100
AcDbEntity
8
0
100
AcDbCircle
10
-81.203902000000014
20
34.25102600000001
30
0
40
0.50000000000000711
210
0
220
0
230
1
100
AcDbArc
50
180
51
270
0
LINE
5
133
100
AcDbEntity
8
0
100
AcDbLine
10
-81.703902000000014
20
34.25102600000001
30
0
11
-81.703901999999999
21
38.751325999999999
31
0
0
LINE
5
134
100
AcDbEntity
8
0
100
AcDbLine
10
-81.703901999999999
20
38.751325999999999
30
0
11
-91.516402000000014
21
38.751325999999999
31
0
0
LINE
5
135
100
AcDbEntity
8
0
100
AcDbLine
10
-91.516402000000014
20
38.751325999999999
30
0
11
-91.516402000000014
21
34.25102600000001
31
0
0
ARC
5
136
100
AcDbEntity
8
0
100
AcDbCircle
10
-92.016401999999999
20
34.25102600000001
30
0
40
0.49999999999999822
210
0
220
0
230
1
100
AcDbArc
50
-90
51
0
0
LINE
5
137
100
AcDbEntity
8
0
100
AcDbLine
10
-92.016401999999999
20
33.75102600000001
30
0
11
-105.01640199999996
21
33.75102549977138
31
0
0
ARC
5
138
100
AcDbEntity
8
0
100
AcDbCircle
10
-105.016402
20
34.25102600000001
30
0
40
0.50000000000000711
210
0
220
0
230
1
100
AcDbArc
50
180
51
270.00000000000489
0
LINE
5
139
100
AcDbEntity
8
0
100
AcDbLine
10
-105.51640200000001
20
34.25102600000001
30
0
11
-105.51640200000001
21
47.251026000000003
31
0
0
ARC
5
140
100
AcDbEntity
8
0
100
AcDbCircle
10
-105.016402
20
47.251026000000003
30
0
40
0.49999999999999822
210
0
220
-0
230
1
100
AcDbArc
50
90
51
180
0
LINE
5
141
100
AcDbEntity
8
0
100
AcDbLine
10
-105.016402
20
47.751026000000003
30
0
11
-92.016401999999999
21
47.751026000000003
31
0
0
ARC
5
142
100
AcDbEntity
8
0
100
AcDbCircle
10
-92.016401999999999
20
47.251026000000003
30
0
40
0.50000000000000711
210
0
220
0
230
1
100
AcDbArc
50
0
51
90
0
LINE
5
143
100
AcDbEntity
8
0
100
AcDbLine
10
-91.516401999999999
20
47.251026000000003
30
0
11
-91.516402000000014
21
42.751325999999999
31
0
0
LINE
5
144
100
AcDbEntity
8
0
100
AcDbLine
10
-91.516402000000014
20
42.751325999999999
30
0
11
-81.703901999999999
21
42.751325999999999
31
0
0
LINE
5
145
100
AcDbEntity
8
0
100
AcDbLine
10
-81.703901999999999
20
42.751325999999999
30
0
11
-81.703901999999999
21
47.251026000000003
31
0
0
ARC
5
146
100
AcDbEntity
8
0
100
AcDbCircle
10
-81.203902000000014
20
47.251026000000003
30
0
40
0.49999999999999822
210
0
220
-0
230
1
100
AcDbArc
50
90
51
180
0
LINE
5
147
100
AcDbEntity
8
0
100
AcDbLine
10
-81.203902000000014
20
47.751026000000003
30
0
11
-68.203901999999999
21
47.751026000000003
31
0
0
ARC
5
148
100
AcDbEntity
8
0
100
AcDbCircle
10
-68.203901999999999
20
47.251026000000003
30
0
40
0.49999999999999822
210
0
220
0
230
1
100
AcDbArc
50
0
51
90
0
LINE
5
149
100
AcDbEntity
8
0
100
AcDbLine
10
-67.703901999999999
20
47.251026000000003
30
0
11
-67.703901999999999
21
34.25102600000001
31
0
0
LWPOLYLINE
5
150
100
AcDbEntity
8
0
100
AcDbPolyline
90
18
70
1
43
0.0
10
137.37109699999999
20
52.801026
10
137.79609700000003
20
52.801026
10
137.796097
20
52.331026000000008
42
0.41421356237309503
10
138.296097
20
51.831026000000008
10
144.82109700000001
20
51.831026000000008
42
0.41421356237309503
10
145.32109700000001
20
52.331026000000008
10
145.32109700000001
20
52.801026
10
162.47109699999999
20
52.801026
10
162.47109699999999
20
52.331026000000008
42
0.41421356237309503
10
162.97109699999999
20
51.831026000000008
10
169.49609699999999
20
51.831026000000008
42
0.41421356237309503
10
169.99609700000002
20
52.331026000000008
10
169.99609700000002
20
52.801026
10
170.421097
20
52.801026
10
170.421097
20
66.301025999999993
42
0.41421356237309503
10
169.921097
20
66.801025999999993
10
137.87109699999999
20
66.801025999999993
42
0.41421356237309503
10
137.37109699999999
20
66.301025999999993
0
LWPOLYLINE
5
151
100
AcDbEntity
8
0
100
AcDbPolyline
90
8
70
1
43
0.0
10
113.27109700000001
20
53.301026
42
-0.41421356237309503
10
112.771097
20
52.801026
10
99.771096999999997
20
52.801024999999001
42
-0.41421414815965041
10
99.271096999999997
20
53.301026
10
99.271096999999997
20
66.301025999999993
42
-0.41421356237309503
10
99.771096999999997
20
66.801025999999993
10
112.771097
20
66.801026000000007
42
-0.41421356237309503
10
113.27109700000001
20
66.301025999999993
0
LWPOLYLINE
5
152
100
AcDbEntity
8
0
100
AcDbPolyline
90
8
70
1
43
0.0
10
131.82109700000001
20
66.801026000000007
42
-0.41421356237309503
10
132.32109700000001
20
66.301025999999993
10
132.32109700000001
20
53.301026
42
-0.41421356237309503
10
131.82109700000001
20
52.801026
10
118.82109700000001
20
52.801024999999001
42
-0.41421414815965041
10
118.32109700000001
20
53.301026
10
118.32109700000001
20
66.301025999999993
42
-0.41421356237309503
10
118.82109700000001
20
66.801025999999993
0
LWPOLYLINE
5
153
100
AcDbEntity
8
0
100
AcDbPolyline
90
8
70
1
43
0.0
10
-20.578901999999999
20
66.801025999999993
42
-0.41421356237309503
10
-20.078902000000003
20
66.301025999999993
10
-20.078902000000003
20
53.301026
42
-0.41421356237309503
10
-20.578901999999999
20
52.801026
10
-33.578901999999999
20
52.801026
42
-0.41421356237309503
10
-34.078901999999999
20
53.301026
10
-34.078901999999999
20
66.301025999999993
42
-0.41421356237309503
10
-33.578901999999999
20
66.801025999999993
0
ARC
5
154
100
AcDbEntity
8
0
100
AcDbCircle
10
-58.678902000000008
20
66.301025999999993
30
0
40
0.49999999999999822
210
0
220
0
230
1
100
AcDbArc
50
0
51
90
0
LINE
5
155
100
AcDbEntity
8
0
100
AcDbLine
10
-58.178902000000008
20
66.301025999999993
30
0
11
-58.178902000000008
21
53.301026
31
0
0
ARC
5
156
100
AcDbEntity
8
0
100
AcDbCircle
10
-58.678902000000008
20
53.301026
30
0
40
0.49999999999999822
210
0
220
0
230
1
100
AcDbArc
50
-90
51
0
0
LINE
5
157
100
AcDbEntity
8
0
100
AcDbLine
10
-58.678902000000008
20
52.801026
30
0
11
-71.678901999999923
21
52.801025499771377
31
0
0
ARC
5
158
100
AcDbEntity
8
0
100
AcDbCircle
10
-71.678901999999994
20
53.301026
30
0
40
0.49999999999999822
210
0
220
0
230
1
100
AcDbArc
50
180
51
270.00000000000813
0
LINE
5
159
100
AcDbEntity
8
0
100
AcDbLine
10
-72.178901999999994
20
53.301026
30
0
11
-72.178901999999994
21
66.301025999999993
31
0
0
ARC
5
160
100
AcDbEntity
8
0
100
AcDbCircle
10
-71.678901999999994
20
66.301025999999993
30
0
40
0.49999999999999822
210
0
220
-0
230
1
100
AcDbArc
50
90
51
180
0
LINE
5
161
100
AcDbEntity
8
0
100
AcDbLine
10
-71.678901999999994
20
66.801025999999993
30
0
11
-58.678902000000008
21
66.801025999999993
31
0
0
ARC
5
162
100
AcDbEntity
8
0
100
AcDbCircle
10
17.521097000000001
20
66.301025999999993
30
0
40
0.50000000000000044
210
0
220
0
230
1
100
AcDbArc
50
0
51
90
0
LINE
5
163
100
AcDbEntity
8
0
100
AcDbLine
10
18.021097000000001
20
66.301025999999993
30
0
11
18.021096499771375
21
53.301026000000071
31
0
0
ARC
5
164
100
AcDbEntity
8
0
100
AcDbCircle
10
17.521097000000001
20
53.301026
30
0
40
0.49999999999999822
210
0
220
0
230
1
100
AcDbArc
50
-90
51
0
0
LINE
5
165
100
AcDbEntity
8
0
100
AcDbLine
10
17.521097000000001
20
52.801026
30
0
11
4.5210980000000012
21
52.801026
31
0
0
ARC
5
166
100
AcDbEntity
8
0
100
AcDbCircle
10
4.5210980000000003
20
53.301026
30
0
40
0.49999999999999989
210
0
220
0
230
1
100
AcDbArc
50
180
51
270.00000000000011
0
LINE
5
167
100
AcDbEntity
8
0
100
AcDbLine
10
4.0210980000000003
20
53.301026
30
0
11
4.0210985002286241
21
66.301025999999936
31
0
0
ARC
5
168
100
AcDbEntity
8
0
100
AcDbCircle
10
4.5210980000000003
20
66.301025999999993
30
0
40
0.49999999999999822
210
0
220
-0
230
1
100
AcDbArc
50
90
51
180
0
LINE
5
169
100
AcDbEntity
8
0
100
AcDbLine
10
4.5210980000000003
20
66.801025999999993
30
0
11
17.521097000000001
21
66.801025999999993
31
0
0
LWPOLYLINE
5
170
100
AcDbEntity
8
0
100
AcDbPolyline
90
8
70
1
43
0.0
10
23.071097000000002
20
66.301025999999993
42
-0.41421356237309503
10
23.571097000000002
20
66.801025999999993
10
36.571097000000002
20
66.801025999999993
42
-0.41421356237309503
10
37.071097000000002
20
66.301025999999993
10
37.071097000000002
20
53.301026
42
-0.41421356237309503
10
36.571097000000002
20
52.801026
10
23.571096000000004
20
52.801027000000005
42
-0.41421356237309503
10
23.071097000000002
20
53.301026
0
LWPOLYLINE
5
171
100
AcDbEntity
8
0
100
AcDbPolyline
90
8
70
1
43
0.0
10
-15.028902000000002
20
66.301025999999993
10
-15.028902000000002
20
53.301026
42
0.41421356237309503
10
-14.528902000000002
20
52.801026
10
-1.528902
20
52.801026
42
0.41421356237309848
10
-1.0289010000000001
20
53.30102500000001
10
-1.028902
20
66.301025999999993
42
0.41421356237309553
10
-1.5289020000000009
20
66.801025999999993
10
-14.528902000000002
20
66.801025999999993
42
0.41421356237309503
0
LWPOLYLINE
5
172
100
AcDbEntity
8
0
100
AcDbPolyline
90
8
70
1
43
0.0
10
56.121097000000006
20
53.301026
42
-0.41421356237309503
10
55.621097000000006
20
52.801026
10
42.621096999999999
20
52.801026
42
-0.41421356237309503
10
42.121096999999999
20
53.301026
10
42.121096999999999
20
66.301025999999993
42
-0.41421356237309503
10
42.621096999999999
20
66.801025999999993
10
55.621097000000006
20
66.801025999999993
42
-0.41421356237309503
10
56.121097000000006
20
66.301025999999993
0
LWPOLYLINE
5
173
100
AcDbEntity
8
0
100
AcDbPolyline
90
8
70
1
43
0.0
10
75.171097000000003
20
53.301026
10
75.171097000000003
20
66.301025999999993
42
0.41421356237309503
10
74.671097000000003
20
66.801025999999993
10
61.67109700000001
20
66.801025999999993
42
0.41421356237309503
10
61.171097000000003
20
66.301025999999993
10
61.17109700000001
20
53.301026
42
0.41421356237309503
10
61.67109700000001
20
52.801026
10
74.671097000000003
20
52.801026
42
0.41421356237309503
0
LWPOLYLINE
5
174
100
AcDbEntity
8
0
100
AcDbPolyline
90
8
70
1
43
0.0
10
94.221097
20
53.301026
10
94.221097
20
66.301025999999993
42
0.41421356237309503
10
93.721097000000015
20
66.801025999999993
10
80.721097
20
66.801025999999993
42
0.41421356237309503
10
80.221096000000003
20
66.301024999999996
10
80.221097
20
53.301026
42
0.41421356237309503
10
80.721097
20
52.801026
10
93.721097000000015
20
52.801026
42
0.41421356237309503
0
LWPOLYLINE
5
175
100
AcDbEntity
8
0
100
AcDbPolyline
90
8
70
1
43
0.0
10
27.546097
20
34.25102600000001
10
27.546097
20
47.251026000000003
42
0.41421356237309503
10
27.046097000000003
20
47.751026000000003
10
14.046097
20
47.751026000000003
42
0.41421356237309764
10
13.546096
20
47.251027000000001
10
13.546098000000002
20
34.25102600000001
42
0.41421356237309503
10
14.046096000000002
20
33.751027999999998
10
27.046097000000003
20
33.75102600000001
42
0.41421356237309503
0
ARC
5
176
100
AcDbEntity
8
0
100
AcDbCircle
10
127.05909699999999
20
15.201026000000002
30
0
40
0.50000000000000044
210
0
220
0
230
1
100
AcDbArc
50
-90
51
0
0
LINE
5
177
100
AcDbEntity
8
0
100
AcDbLine
10
127.05909699999999
20
14.701026000000002
30
0
11
114.05909700000001
21
14.701025000000001
31
0
0
ARC
5
178
100
AcDbEntity
8
0
100
AcDbCircle
10
114.05909700000001
20
15.201025000000001
30
0
40
0.50000000000100708
210
0
220
0
230
1
100
AcDbArc
50
179.9998854097085
51
270
0
LINE
5
179
100
AcDbEntity
8
0
100
AcDbLine
10
113.55909699999999
20
15.201026000000002
30
0
11
113.55909699999999
21
28.201025000000005
31
0
0
ARC
5
180
100
AcDbEntity
8
0
100
AcDbCircle
10
114.05909700000001
20
28.201025000000005
30
0
40
0.49999999999999822
210
0
220
-0
230
1
100
AcDbArc
50
90
51
180
0
LINE
5
181
100
AcDbEntity
8
0
100
AcDbLine
10
114.05909700000001
20
28.701025000000001
30
0
11
127.05909699999998
21
28.701025500228624
31
0
0
ARC
5
182
100
AcDbEntity
8
0
100
AcDbCircle
10
127.05909699999999
20
28.201025000000005
30
0
40
0.50000000000000711
210
0
220
0
230
1
100
AcDbArc
50
0
51
90.000000000001634
0
LINE
5
183
100
AcDbEntity
8
0
100
AcDbLine
10
127.55909700000001
20
28.201025000000005
30
0
11
127.55909700000001
21
15.201026000000002
31
0
0
LWPOLYLINE
5
184
100
AcDbEntity
8
0
100
AcDbPolyline
90
8
70
1
43
0.0
10
108.009097
20
28.701025000000001
10
95.009096999999997
20
28.701025000000001
42
0.41421356237309503
10
94.509097999999994
20
28.201026000000002
10
94.509096999999983
20
15.201026000000002
42
0.41421356237309892
10
95.009096
20
14.701025000000001
10
108.009097
20
14.701026000000002
42
0.41421356237309503
10
108.50909700000001
20
15.201026000000002
10
108.50909700000001
20
28.201025000000005
42
0.41421356237309503
0
ARC
5
185
100
AcDbEntity
8
0
100
AcDbCircle
10
90.246097000000006
20
34.25102600000001
30
0
40
0.50000000000000711
210
0
220
0
230
1
100
AcDbArc
50
180
51
270
0
LINE
5
186
100
AcDbEntity
8
0
100
AcDbLine
10
89.746097000000006
20
34.25102600000001
30
0
11
89.746097000000006
21
47.251026000000003
31
0
0
ARC
5
187
100
AcDbEntity
8
0
100
AcDbCircle
10
90.246097000000006
20
47.251026000000003
30
0
40
0.49999999999999822
210
0
220
-0
230
1
100
AcDbArc
50
90
51
180
0
LINE
5
188
100
AcDbEntity
8
0
100
AcDbLine
10
90.246097000000006
20
47.751026000000003
30
0
11
103.24609700000002
21
47.751026000000003
31
0
0
ARC
5
189
100
AcDbEntity
8
0
100
AcDbCircle
10
103.24609700000002
20
47.251026000000003
30
0
40
0.50000000000000711
210
0
220
0
230
1
100
AcDbArc
50
0
51
90
0
LINE
5
190
100
AcDbEntity
8
0
100
AcDbLine
10
103.74609700000002
20
47.251026000000003
30
0
11
103.74609550022861
21
34.251025999997097
31
0
0
ARC
5
191
100
AcDbEntity
8
0
100
AcDbCircle
10
103.24609600000001
20
34.251024999999998
30
0
40
0.49999900000099984
210
0
220
0
230
1
100
AcDbArc
50
-89.999885408210417
51
0.00011459029153797541
0
LINE
5
192
100
AcDbEntity
8
0
100
AcDbLine
10
103.24609700000002
20
33.751025999999996
30
0
11
90.246097000000006
21
33.75102600000001
31
0
0
ARC
5
193
100
AcDbEntity
8
0
100
AcDbCircle
10
109.296097
20
34.251024999999998
30
0
40
0.50000000000100708
210
0
220
0
230
1
100
AcDbArc
50
179.9998854097085
51
270
0
LINE
5
194
100
AcDbEntity
8
0
100
AcDbLine
10
108.796097
20
34.25102600000001
30
0
11
108.79609700000002
21
47.251026000000003
31
0
0
ARC
5
195
100
AcDbEntity
8
0
100
AcDbCircle
10
109.296097
20
47.251026000000003
30
0
40
0.49999999999999822
210
0
220
-0
230
1
100
AcDbArc
50
90
51
180
0
LINE
5
196
100
AcDbEntity
8
0
100
AcDbLine
10
109.296097
20
47.751026000000003
30
0
11
122.296097
21
47.751026000000003
31
0
0
ARC
5
197
100
AcDbEntity
8
0
100
AcDbCircle
10
122.296097
20
47.251026000000003
30
0
40
0.50000000000000711
210
0
220
0
230
1
100
AcDbArc
50
0
51
90
0
LINE
5
198
100
AcDbEntity
8
0
100
AcDbLine
10
122.79609700000002
20
47.251026000000003
30
0
11
122.79609650022813
21
34.251025999997168
31
0
0
ARC
5
199
100
AcDbEntity
8
0
100
AcDbCircle
10
122.296097
20
34.251024999999998
30
0
40
0.49999899999999986
210
0
220
0
230
1
100
AcDbArc
50
-90
51
0.00011459029153797541
0
LINE
5
200
100
AcDbEntity
8
0
100
AcDbLine
10
122.296097
20
33.751025999999996
30
0
11
109.296097
21
33.751024999999004
31
0
0
LWPOLYLINE
5
201
100
AcDbEntity
8
0
100
AcDbPolyline
90
8
70
1
43
0.0
10
70.696096999999995
20
47.251026000000003
42
-0.41421356237309503
10
71.196096999999995
20
47.751026000000003
10
84.196097000000009
20
47.75102600000001
42
-0.41421356237309503
10
84.696097000000009
20
47.251026000000003
10
84.696096999999995
20
34.25102600000001
42
-0.41421356237309503
10
84.196097000000009
20
33.75102600000001
10
71.196096999999995
20
33.75102600000001
42
-0.41421356237309503
10
70.696096999999995
20
34.25102600000001
0
LWPOLYLINE
5
202
100
AcDbEntity
8
0
100
AcDbPolyline
90
8
70
1
43
0.0
10
75.459098000001006
20
28.201025000003845
42
-0.41421414815857438
10
75.959097
20
28.701025000000001
10
88.959097000000014
20
28.701025000000012
42
-0.41421356237309503
10
89.459097000000014
20
28.201025000000005
10
89.459097000000014
20
15.201026000000002
42
-0.41421356237309503
10
88.959097000000014
20
14.701026000000002
10
75.959097
20
14.701026000000004
42
-0.41421356237309503
10
75.459097
20
15.201026000000002
0
ARC
5
203
100
AcDbEntity
8
0
100
AcDbCircle
10
56.909097000000003
20
28.201025000000005
30
0
40
0.49999999999999822
210
0
220
-0
230
1
100
AcDbArc
50
90
51
180
0
LINE
5
204
100
AcDbEntity
8
0
100
AcDbLine
10
56.909097000000003
20
28.701025000000001
30
0
11
69.909097000000003
21
28.701025000000001
31
0
0
ARC
5
205
100
AcDbEntity
8
0
100
AcDbCircle
10
69.909097000000003
20
28.201025000000005
30
0
40
0.49999999999999822
210
0
220
0
230
1
100
AcDbArc
50
0
51
90
0
LINE
5
206
100
AcDbEntity
8
0
100
AcDbLine
10
70.409097000000003
20
28.201025000000005
30
0
11
70.409096500228131
21
15.201025999997169
31
0
0
ARC
5
207
100
AcDbEntity
8
0
100
AcDbCircle
10
69.909097000000003
20
15.201025000000001
30
0
40
0.49999899999999986
210
0
220
0
230
1
100
AcDbArc
50
-90
51
0.00011459029153797541
0
LINE
5
208
100
AcDbEntity
8
0
100
AcDbLine
10
69.909097000000003
20
14.701026000000002
30
0
11
56.909097000000003
21
14.701026000000002
31
0
0
ARC
5
209
100
AcDbEntity
8
0
100
AcDbCircle
10
56.909097000000003
20
15.201026000000002
30
0
40
0.49999999999999822
210
0
220
0
230
1
100
AcDbArc
50
180
51
270
0
LINE
5
210
100
AcDbEntity
8
0
100
AcDbLine
10
56.40909700000001
20
15.201026000000002
30
0
11
56.40909700000001
21
28.201025000000005
31
0
0
LWPOLYLINE
5
211
100
AcDbEntity
8
0
100
AcDbPolyline
90
8
70
1
43
0.0
10
51.359096999999998
20
15.201026000000002
42
-0.41421356237309503
10
50.859097000000006
20
14.701026000000002
10
37.859096999999998
20
14.701026000000004
42
-0.41421356237309503
10
37.359096999999998
20
15.201026000000002
10
37.359096999999998
20
28.201025000000005
42
-0.41421356237309503
10
37.859096999999998
20
28.701025000000001
10
50.859097000000006
20
28.701025000000001
42
-0.41421356237309503
10
51.359096999999998
20
28.201025000000005
0
LWPOLYLINE
5
212
100
AcDbEntity
8
0
100
AcDbPolyline
90
8
70
1
43
0.0
10
65.146096999999997
20
47.751026000000003
42
-0.41421356237309503
10
65.646096999999997
20
47.251026000000003
10
65.646096999999997
20
34.25102600000001
42
-0.41421356237309503
10
65.146096999999997
20
33.75102600000001
10
52.146097000000005
20
33.75102600000001
42
-0.41421356237309503
10
51.646097000000005
20
34.25102600000001
10
51.646097000000005
20
47.251026000000003
42
-0.41421356237309503
10
52.146097000000005
20
47.751026000000003
0
LWPOLYLINE
5
213
100
AcDbEntity
8
0
100
AcDbPolyline
90
8
70
1
43
0.0
10
32.596095999999008
20
47.251026000000003
42
-0.4142141481596478
10
33.096097
20
47.751026000000003
10
46.096097
20
47.751026000000003
42
-0.41421356237309503
10
46.596097
20
47.251026000000003
10
46.596097
20
34.25102600000001
42
-0.41421356237309503
10
46.096097
20
33.75102600000001
10
33.096097
20
33.75102600000001
42
-0.41421356237309503
10
32.596097
20
34.25102600000001
0
ARC
5
214
100
AcDbEntity
8
0
100
AcDbCircle
10
117.53309700000001
20
9.1510259999999999
30
0
40
0.50000000000000711
210
0
220
0
230
1
100
AcDbArc
50
0
51
90
0
LINE
5
215
100
AcDbEntity
8
0
100
AcDbLine
10
118.03309700000001
20
9.1510259999999999
30
0
11
118.033096
21
-3.8489740000000006
31
0
0
ARC
5
216
100
AcDbEntity
8
0
100
AcDbCircle
10
117.53309700000001
20
-3.8489740000000006
30
0
40
0.49999899999999986
210
0
220
0
230
1
100
AcDbArc
50
-90
51
0
0
LINE
5
217
100
AcDbEntity
8
0
100
AcDbLine
10
117.53309700000001
20
-4.3489730000000009
30
0
11
104.533097
21
-4.3489734997713771
31
0
0
ARC
5
218
100
AcDbEntity
8
0
100
AcDbCircle
10
104.533097
20
-3.8489740000000006
30
0
40
0.50000000000000711
210
0
220
0
230
1
100
AcDbArc
50
180
51
270
0
LINE
5
219
100
AcDbEntity
8
0
100
AcDbLine
10
104.033097
20
-3.8489740000000006
30
0
11
104.03309700000001
21
9.1510259999999999
31
0
0
ARC
5
220
100
AcDbEntity
8
0
100
AcDbCircle
10
104.533097
20
9.1510259999999999
30
0
40
0.50000000000000044
210
0
220
-0
230
1
100
AcDbArc
50
90
51
180
0
LINE
5
221
100
AcDbEntity
8
0
100
AcDbLine
10
104.533097
20
9.6510259999999999
30
0
11
117.53309700000001
21
9.6510259999999999
31
0
0
LINE
5
222
100
AcDbEntity
8
0
100
AcDbLine
10
79.220127000000005
20
-19.200927
30
0
11
77.000150000000005
21
-19.200927
31
0
0
ARC
5
223
100
AcDbEntity
8
0
100
AcDbCircle
10
77.000150000000005
20
-17.200927
30
0
40
2.0000000000000018
210
0
220
0
230
1
100
AcDbArc
50
180
51
270
0
LINE
5
224
100
AcDbEntity
8
0
100
AcDbLine
10
75.000150000000005
20
-17.200927
30
0
11
75.000150000000019
21
-15.547352
31
0
0
ARC
5
225
100
AcDbEntity
8
0
100
AcDbCircle
10
77.000150000000005
20
-15.547352
30
0
40
1.9999999999999996
210
0
220
-0
230
1
100
AcDbArc
50
90
51
180
0
LINE
5
226
100
AcDbEntity
8
0
100
AcDbLine
10
77.000150000000005
20
-13.547352000000002
30
0
11
79.220127000000005
21
-13.547352000000002
31
0
0
ARC
5
227
100
AcDbEntity
8
0
100
AcDbCircle
10
79.220127000000005
20
-12.547352
30
0
40
1.0000000000000009
210
0
220
0
230
1
100
AcDbArc
50
-90
51
0
0
LINE
5
228
100
AcDbEntity
8
0
100
AcDbLine
10
80.220127000000019
20
-12.547352
30
0
11
80.220127186764003
21
-9.8990727689430003
31
0
0
ARC
5
229
100
AcDbEntity
8
0
100
AcDbCircle
10
80.720127000000005
20
-9.8990730000000013
30
0
40
0.49999981323600051
210
0
220
0
230
1
100
AcDbArc
50
95.894596107562606
51
179.99997353301697
0
ARC
5
230
100
AcDbEntity
8
0
100
AcDbCircle
10
80.721097
20
-9.8989729999999998
30
0
40
0.50000000000000044
210
0
220
-0
230
1
100
AcDbArc
50
90
51
96.006338902852775
0
LINE
5
231
100
AcDbEntity
8
0
100
AcDbLine
10
80.721097
20
-9.3989729999999998
30
0
11
82.844127000000015
21
-9.3989729999999998
31
0
0
LINE
5
232
100
AcDbEntity
8
0
100
AcDbLine
10
82.844127000000015
20
-9.3989729999999998
30
0
11
82.844127000000015
21
-9.1369729999999993
31
0
0
ARC
5
233
100
AcDbEntity
8
0
100
AcDbCircle
10
83.344127
20
-9.1369729999999993
30
0
40
0.50000000000000044
210
0
220
-0
230
1
100
AcDbArc
50
90
51
180
0
LINE
5
234
100
AcDbEntity
8
0
100
AcDbLine
10
83.344127
20
-8.6369729999999993
30
0
11
91.094127
21
-8.6369729999999993
31
0
0
ARC
5
235
100
AcDbEntity
8
0
100
AcDbCircle
10
91.094127
20
-9.1369729999999993
30
0
40
0.50000000000000711
210
0
220
0
230
1
100
AcDbArc
50
0
51
90
0
LINE
5
236
100
AcDbEntity
8
0
100
AcDbLine
10
91.594127000000015
20
-9.1369729999999993
30
0
11
91.594127000000015
21
-9.3989729999999998
31
0
0
LINE
5
237
100
AcDbEntity
8
0
100
AcDbLine
10
91.594127000000015
20
-9.3989729999999998
30
0
11
169.921097
21
-9.3989729999999998
31
0
0
ARC
5
238
100
AcDbEntity
8
0
100
AcDbCircle
10
169.921097
20
-9.8989729999999998
30
0
40
0.50000000000000711
210
0
220
0
230
1
100
AcDbArc
50
0
51
90
0
LINE
5
239
100
AcDbEntity
8
0
100
AcDbLine
10
170.421097
20
-9.8989729999999998
30
0
11
170.421097
21
-22.898973000000002
31
0
0
ARC
5
240
100
AcDbEntity
8
0
100
AcDbCircle
10
169.921097
20
-22.898973000000002
30
0
40
0.49999999999999822
210
0
220
0
230
1
100
AcDbArc
50
-90
51
0
0
LINE
5
241
100
AcDbEntity
8
0
100
AcDbLine
10
169.921097
20
-23.398973000000002
30
0
11
80.721097184328997
21
-23.398972787590001
31
0
0
ARC
5
242
100
AcDbEntity
8
0
100
AcDbCircle
10
80.721097
20
-22.898972000000001
30
0
40
0.50000078759300171
210
0
220
0
230
1
100
AcDbArc
50
250.13363022842105
51
270.00002112251383
0
ARC
5
243
100
AcDbEntity
8
0
100
AcDbCircle
10
80.720127000000005
20
-22.898623000000001
30
0
40
0.50000000000000711
210
0
220
0
230
1
100
AcDbArc
50
180
51
250.25175954448093
0
LINE
5
244
100
AcDbEntity
8
0
100
AcDbLine
10
80.220126999999991
20
-22.898623000000001
30
0
11
80.220127000000019
21
-20.200927
31
0
0
ARC
5
245
100
AcDbEntity
8
0
100
AcDbCircle
10
79.220127000000005
20
-20.200927
30
0
40
1.0000000000000053
210
0
220
0
230
1
100
AcDbArc
50
0
51
90
0
ARC
5
246
100
AcDbEntity
8
0
100
AcDbCircle
10
85.483097000000015
20
-3.8489740000000006
30
0
40
0.50000000000000711
210
0
220
0
230
1
100
AcDbArc
50
180
51
270
0
LINE
5
247
100
AcDbEntity
8
0
100
AcDbLine
10
84.983097000000001
20
-3.8489740000000006
30
0
11
84.983097000000001
21
9.1510259999999999
31
0
0
ARC
5
248
100
AcDbEntity
8
0
100
AcDbCircle
10
85.483097000000015
20
9.1510259999999999
30
0
40
0.50000000000000044
210
0
220
-0
230
1
100
AcDbArc
50
90
51
180
0
LINE
5
249
100
AcDbEntity
8
0
100
AcDbLine
10
85.483097000000015
20
9.6510259999999999
30
0
11
98.483097000000015
21
9.6510259999999999
31
0
0
ARC
5
250
100
AcDbEntity
8
0
100
AcDbCircle
10
98.483097000000015
20
9.1510259999999999
30
0
40
0.50000000000000711
210
0
220
0
230
1
100
AcDbArc
50
0
51
90
0
LINE
5
251
100
AcDbEntity
8
0
100
AcDbLine
10
98.983097000000015
20
9.1510259999999999
30
0
11
98.983095499771395
21
-3.8489739999998607
31
0
0
ARC
5
252
100
AcDbEntity
8
0
100
AcDbCircle
10
98.483097000000015
20
-3.8489740000000006
30
0
40
0.49999899999999986
210
0
220
0
230
1
100
AcDbArc
50
-90
51
0
0
LINE
5
253
100
AcDbEntity
8
0
100
AcDbLine
10
98.483097000000015
20
-4.3489730000000009
30
0
11
85.483097000000015
21
-4.3489740000000001
31
0
0
ARC
5
254
100
AcDbEntity
8
0
100
AcDbCircle
10
66.433097000000004
20
-3.8489740000000006
30
0
40
0.49999999999999822
210
0
220
0
230
1
100
AcDbArc
50
180
51
270
0
LINE
5
255
100
AcDbEntity
8
0
100
AcDbLine
10
65.933097000000004
20
-3.8489740000000006
30
0
11
65.933097000000004
21
9.1510259999999999
31
0
0
ARC
5
256
100
AcDbEntity
8
0
100
AcDbCircle
10
66.433097000000004
20
9.1510259999999999
30
0
40
0.50000000000000044
210
0
220
-0
230
1
100
AcDbArc
50
90
51
180
0
LINE
5
257
100
AcDbEntity
8
0
100
AcDbLine
10
66.433097000000004
20
9.6510259999999999
30
0
11
79.433096999999933
21
9.6510254997713769
31
0
0
ARC
5
258
100
AcDbEntity
8
0
100
AcDbCircle
10
79.433097000000004
20
9.1510259999999999
30
0
40
0.49999999999999822
210
0
220
0
230
1
100
AcDbArc
50
0
51
90.000000000008143
0
LINE
5
259
100
AcDbEntity
8
0
100
AcDbLine
10
79.933097000000004
20
9.1510259999999999
30
0
11
79.933096000000006
21
-3.8489740000000006
31
0
0
ARC
5
260
100
AcDbEntity
8
0
100
AcDbCircle
10
79.433097000000004
20
-3.8489740000000006
30
0
40
0.49999899999999986
210
0
220
0
230
1
100
AcDbArc
50
-90
51
0
0
LINE
5
261
100
AcDbEntity
8
0
100
AcDbLine
10
79.433097000000004
20
-4.3489730000000009
30
0
11
66.433097000000004
21
-4.3489740000000001
31
0
0
LWPOLYLINE
5
262
100
AcDbEntity
8
0
100
AcDbPolyline
90
8
70
1
43
0.0
10
60.383096999999999
20
9.6510259999999999
10
47.383096000000002
20
9.6510259999999999
42
0.41421356237309503
10
46.883096000000002
20
9.1510259999999999
10
46.883096000000002
20
-3.8489740000000006
42
0.41421356237309503
10
47.383096000000002
20
-4.3489740000000001
10
60.383096999999999
20
-4.348973
42
0.41421356237309437
10
60.883095000000004
20
-3.8489750000000011
10
60.883096999999999
20
9.1510259999999999
42
0.41421356237309503
0
ARC
5
263
100
AcDbEntity
8
0
100
AcDbCircle
10
9.283099
20
9.1510259999999999
30
0
40
0.50000000000000044
210
0
220
-0
230
1
100
AcDbArc
50
90
51
180
0
LINE
5
264
100
AcDbEntity
8
0
100
AcDbLine
10
9.283099
20
9.6510259999999999
30
0
11
22.283097000000001
21
9.6510259999999999
31
0
0
ARC
5
265
100
AcDbEntity
8
0
100
AcDbCircle
10
22.283097000000001
20
9.1510259999999999
30
0
40
0.49999999999999822
210
0
220
0
230
1
100
AcDbArc
50
0
51
90
0
LINE
5
266
100
AcDbEntity
8
0
100
AcDbLine
10
22.783096999999998
20
9.1510259999999999
30
0
11
22.783096
21
-3.8489740000000006
31
0
0
ARC
5
267
100
AcDbEntity
8
0
100
AcDbCircle
10
22.283097000000001
20
-3.8489740000000006
30
0
40
0.49999899999999986
210
0
220
0
230
1
100
AcDbArc
50
-90
51
0
0
LINE
5
268
100
AcDbEntity
8
0
100
AcDbLine
10
22.283097000000001
20
-4.3489730000000009
30
0
11
9.283099
21
-4.3489739995427534
31
0
0
ARC
5
269
100
AcDbEntity
8
0
100
AcDbCircle
10
9.283099
20
-3.8489740000000006
30
0
40
0.50000099999999992
210
0
220
0
230
1
100
AcDbArc
50
180
51
270
0
LINE
5
270
100
AcDbEntity
8
0
100
AcDbLine
10
8.7830980000000007
20
-3.8489740000000006
30
0
11
8.783099
21
9.1510259999999999
31
0
0
LWPOLYLINE
5
271
100
AcDbEntity
8
0
100
AcDbPolyline
90
8
70
1
43
0.0
10
41.833095000000007
20
-3.8489750000000003
42
-0.41421356237309503
10
41.333097000000009
20
-4.348973
10
28.333097000000002
20
-4.3489749999999985
42
-0.41421356237309503
10
27.833097000000002
20
-3.8489750000000003
10
27.833097000000002
20
9.1510260000000017
42
-0.41421356237309437
10
28.333097000000002
20
9.6510259999999999
10
41.333097000000009
20
9.6510259999999981
42
-0.41421356237309503
10
41.833097000000009
20
9.1510259999999999
0
ARC
5
272
100
AcDbEntity
8
0
100
AcDbCircle
10
6.9020979999999996
20
-22.898973000000002
30
0
40
0.50000000000000044
210
0
220
0
230
1
100
AcDbArc
50
180
51
270
0
LINE
5
273
100
AcDbEntity
8
0
100
AcDbLine
10
6.4020979999999996
20
-22.898973000000002
30
0
11
6.4020980000000005
21
-9.8989729999999998
31
0
0
ARC
5
274
100
AcDbEntity
8
0
100
AcDbCircle
10
6.9020979999999996
20
-9.8989729999999998
30
0
40
0.50000000000000044
210
0
220
-0
230
1
100
AcDbArc
50
90
51
180
0
LINE
5
275
100
AcDbEntity
8
0
100
AcDbLine
10
6.9020979999999996
20
-9.3989729999999998
30
0
11
35.377096999999999
21
-9.3989729999999998
31
0
0
LINE
5
276
100
AcDbEntity
8
0
100
AcDbLine
10
35.377096999999999
20
-9.3989729999999998
30
0
11
35.377097499771878
21
-9.1369729999971696
31
0
0
ARC
5
277
100
AcDbEntity
8
0
100
AcDbCircle
10
35.877096999999999
20
-9.1369720000000001
30
0
40
0.49999899999999986
210
0
220
-0
230
1
100
AcDbArc
50
90
51
180.00011459029153
0
LINE
5
278
100
AcDbEntity
8
0
100
AcDbLine
10
35.877096999999999
20
-8.6369730000000011
30
0
11
47.189097000000004
21
-8.6369729999999993
31
0
0
ARC
5
279
100
AcDbEntity
8
0
100
AcDbCircle
10
47.189097000000004
20
-9.1369729999999993
30
0
40
0.49999999999999822
210
0
220
0
230
1
100
AcDbArc
50
0
51
90
0
LINE
5
280
100
AcDbEntity
8
0
100
AcDbLine
10
47.689097000000004
20
-9.1369729999999993
30
0
11
47.689097000000004
21
-9.3989729999999998
31
0
0
LINE
5
281
100
AcDbEntity
8
0
100
AcDbLine
10
47.689097000000004
20
-9.3989729999999998
30
0
11
60.077097000000002
21
-9.3989729999999998
31
0
0
LINE
5
282
100
AcDbEntity
8
0
100
AcDbLine
10
60.077097000000002
20
-9.3989729999999998
30
0
11
60.077097000000002
21
-9.1369729999999993
31
0
0
ARC
5
283
100
AcDbEntity
8
0
100
AcDbCircle
10
60.577097000000002
20
-9.1369729999999993
30
0
40
0.50000000000000044
210
0
220
-0
230
1
100
AcDbArc
50
90
51
180
0
LINE
5
284
100
AcDbEntity
8
0
100
AcDbLine
10
60.577097000000002
20
-8.6369729999999993
30
0
11
71.889097000000007
21
-8.6369725002281239
31
0
0
ARC
5
285
100
AcDbEntity
8
0
100
AcDbCircle
10
71.889097000000007
20
-9.1369720000000001
30
0
40
0.5000000000009982
210
0
220
0
230
1
100
AcDbArc
50
-0.0001145902915529748
51
90
0
LINE
5
286
100
AcDbEntity
8
0
100
AcDbLine
10
72.389097000000007
20
-9.1369729999999993
30
0
11
72.389097000000007
21
-22.898973000000002
31
0
0
ARC
5
287
100
AcDbEntity
8
0
100
AcDbCircle
10
71.889097000000007
20
-22.898973000000002
30
0
40
0.49999999999999822
210
0
220
0
230
1
100
AcDbArc
50
-90
51
0
0
LINE
5
288
100
AcDbEntity
8
0
100
AcDbLine
10
71.889097000000007
20
-23.398973000000002
30
0
11
6.9020979999999996
21
-23.398973000000002
31
0
0
ARC
5
289
100
AcDbEntity
8
0
100
AcDbCircle
10
-28.816901999999999
20
9.1510259999999999
30
0
40
0.50000000000000044
210
0
220
-0
230
1
100
AcDbArc
50
90
51
180
0
LINE
5
290
100
AcDbEntity
8
0
100
AcDbLine
10
-28.816901999999999
20
9.6510259999999999
30
0
11
-15.816902000000002
21
9.6510259999999999
31
0
0
ARC
5
291
100
AcDbEntity
8
0
100
AcDbCircle
10
-15.816902000000002
20
9.1510259999999999
30
0
40
0.50000000000000044
210
0
220
0
230
1
100
AcDbArc
50
0
51
90
0
LINE
5
292
100
AcDbEntity
8
0
100
AcDbLine
10
-15.316902000000001
20
9.1510259999999999
30
0
11
-15.316902499771377
21
-3.8489740000000006
31
0
0
ARC
5
293
100
AcDbEntity
8
0
100
AcDbCircle
10
-15.816902000000002
20
-3.8489740000000006
30
0
40
0.49999899999999986
210
0
220
0
230
1
100
AcDbArc
50
-90
51
0
0
LINE
5
294
100
AcDbEntity
8
0
100
AcDbLine
10
-15.816902000000002
20
-4.3489730000000009
30
0
11
-28.816901999999999
21
-4.3489734997713771
31
0
0
ARC
5
295
100
AcDbEntity
8
0
100
AcDbCircle
10
-28.816901999999999
20
-3.8489740000000006
30
0
40
0.49999999999999822
210
0
220
0
230
1
100
AcDbArc
50
180
51
270
0
LINE
5
296
100
AcDbEntity
8
0
100
AcDbLine
10
-29.316901999999999
20
-3.8489740000000006
30
0
11
-29.316901999999999
21
9.1510259999999999
31
0
0
ARC
5
297
100
AcDbEntity
8
0
100
AcDbCircle
10
-47.86690200000001
20
9.1510259999999999
30
0
40
0.50000000000000044
210
0
220
-0
230
1
100
AcDbArc
50
90
51
180
0
LINE
5
298
100
AcDbEntity
8
0
100
AcDbLine
10
-47.86690200000001
20
9.6510259999999999
30
0
11
-34.866902000000003
21
9.6510259999999999
31
0
0
ARC
5
299
100
AcDbEntity
8
0
100
AcDbCircle
10
-34.866902000000003
20
9.1510259999999999
30
0
40
0.49999999999999822
210
0
220
0
230
1
100
AcDbArc
50
0
51
90
0
LINE
5
300
100
AcDbEntity
8
0
100
AcDbLine
10
-34.366902000000003
20
9.1510259999999999
30
0
11
-34.366902499771385
21
-3.8489740000000006
31
0
0
ARC
5
301
100
AcDbEntity
8
0
100
AcDbCircle
10
-34.866902000000003
20
-3.8489740000000006
30
0
40
0.49999899999999986
210
0
220
0
230
1
100
AcDbArc
50
-90
51
0
0
LINE
5
302
100
AcDbEntity
8
0
100
AcDbLine
10
-34.866902000000003
20
-4.3489730000000009
30
0
11
-47.86690200000001
21
-4.3489734997713771
31
0
0
ARC
5
303
100
AcDbEntity
8
0
100
AcDbCircle
10
-47.86690200000001
20
-3.8489740000000006
30
0
40
0.49999999999999822
210
0
220
0
230
1
100
AcDbArc
50
180
51
270
0
LINE
5
304
100
AcDbEntity
8
0
100
AcDbLine
10
-48.366902000000003
20
-3.8489740000000006
30
0
11
-48.366902000000003
21
9.1510259999999999
31
0
0
ARC
5
305
100
AcDbEntity
8
0
100
AcDbCircle
10
-9.766902
20
-3.8489740000000006
30
0
40
0.49999900000000097
210
0
220
0
230
1
100
AcDbArc
50
180
51
270
0
LINE
5
306
100
AcDbEntity
8
0
100
AcDbLine
10
-10.266901000000001
20
-3.8489740000000006
30
0
11
-10.266902
21
9.1510259999999999
31
0
0
ARC
5
307
100
AcDbEntity
8
0
100
AcDbCircle
10
-9.766902
20
9.1510259999999999
30
0
40
0.50000000000000044
210
0
220
-0
230
1
100
AcDbArc
50
90
51
180
0
LINE
5
308
100
AcDbEntity
8
0
100
AcDbLine
10
-9.766902
20
9.6510259999999999
30
0
11
3.233098
21
9.6510259999999999
31
0
0
ARC
5
309
100
AcDbEntity
8
0
100
AcDbCircle
10
3.2330980000000005
20
9.1510259999999999
30
0
40
0.49999999999999989
210
0
220
0
230
1
100
AcDbArc
50
0
51
90.000000000000057
0
LINE
5
310
100
AcDbEntity
8
0
100
AcDbLine
10
3.733098
20
9.1510259999999999
30
0
11
3.7330975002286237
21
-3.8489740000000006
31
0
0
ARC
5
311
100
AcDbEntity
8
0
100
AcDbCircle
10
3.2330980000000005
20
-3.8489740000000006
30
0
40
0.49999899999999986
210
0
220
0
230
1
100
AcDbArc
50
-90
51
0
0
LINE
5
312
100
AcDbEntity
8
0
100
AcDbLine
10
3.2330980000000005
20
-4.3489730000000009
30
0
11
-9.766902
21
-4.3489730000000009
31
0
0
LWPOLYLINE
5
313
100
AcDbEntity
8
0
100
AcDbPolyline
90
14
70
1
43
0.0
10
-11.359902000000002
20
-9.1369729999999993
42
-0.41421356237309503
10
-10.859902000000002
20
-8.6369729999999993
10
0.45209800000000078
20
-8.6369729999999993
42
-0.41421356237309459
10
0.95209800000000011
20
-9.1369729999999993
10
0.95209799999999811
20
-22.898973000000002
42
-0.41421356237309503
10
0.45209799999999856
20
-23.398973000000002
10
-35.559902000000001
20
-23.398973000000002
42
-0.41421356237309503
10
-36.059902000000001
20
-22.898973000000002
10
-36.059902000000001
20
-9.1369729999999993
42
-0.41421356237309503
10
-35.559902000000001
20
-8.6369729999999993
10
-24.247900999999999
20
-8.6369720000000036
42
-0.41421356237309243
10
-23.747902000000003
20
-9.1369729999999993
10
-23.747902
20
-9.3989729999999998
10
-11.359902
20
-9.3989729999999998
0
LINE
5
314
100
AcDbEntity
8
0
100
AcDbLine
10
13.259099000000001
20
28.201025000000005
30
0
11
13.259098
21
23.701025999999999
31
0
0
LINE
5
315
100
AcDbEntity
8
0
100
AcDbLine
10
13.259098
20
23.701025999999999
30
0
11
18.309097000000001
21
23.701025999999999
31
0
0
LINE
5
316
100
AcDbEntity
8
0
100
AcDbLine
10
18.309097000000001
20
23.701025999999999
30
0
11
18.309097000000001
21
28.201025000000005
31
0
0
ARC
5
317
100
AcDbEntity
8
0
100
AcDbCircle
10
18.809097000000001
20
28.201025000000005
30
0
40
0.49999999999999822
210
0
220
-0
230
1
100
AcDbArc
50
90
51
180
0
LINE
5
318
100
AcDbEntity
8
0
100
AcDbLine
10
18.809097000000001
20
28.701025000000001
30
0
11
31.809097000000005
21
28.701025000000001
31
0
0
ARC
5
319
100
AcDbEntity
8
0
100
AcDbCircle
10
31.809097000000005
20
28.201025000000005
30
0
40
0.49999999999999822
210
0
220
0
230
1
100
AcDbArc
50
0
51
90
0
LINE
5
320
100
AcDbEntity
8
0
100
AcDbLine
10
32.309097000000001
20
28.201025000000005
30
0
11
32.309097000000001
21
15.201026000000002
31
0
0
ARC
5
321
100
AcDbEntity
8
0
100
AcDbCircle
10
31.809097000000005
20
15.201026000000002
30
0
40
0.50000000000000044
210
0
220
0
230
1
100
AcDbArc
50
-90
51
0
0
LINE
5
322
100
AcDbEntity
8
0
100
AcDbLine
10
31.809097000000005
20
14.701026000000002
30
0
11
18.809097000000001
21
14.701026000000002
31
0
0
ARC
5
323
100
AcDbEntity
8
0
100
AcDbCircle
10
18.809097000000001
20
15.201026000000002
30
0
40
0.50000000000000044
210
0
220
0
230
1
100
AcDbArc
50
180
51
270
0
LINE
5
324
100
AcDbEntity
8
0
100
AcDbLine
10
18.309097000000001
20
15.201026000000002
30
0
11
18.309097000000001
21
19.701025999999999
31
0
0
LINE
5
325
100
AcDbEntity
8
0
100
AcDbLine
10
18.309097000000001
20
19.701025999999999
30
0
11
13.259098
21
19.701025999999999
31
0
0
LINE
5
326
100
AcDbEntity
8
0
100
AcDbLine
10
13.259098
20
19.701025999999999
30
0
11
13.259098500228623
21
15.201026000000201
31
0
0
ARC
5
327
100
AcDbEntity
8
0
100
AcDbCircle
10
12.759098
20
15.201026000000002
30
0
40
0.50000000000000044
210
0
220
0
230
1
100
AcDbArc
50
-90
51
0
0
LINE
5
328
100
AcDbEntity
8
0
100
AcDbLine
10
12.759098
20
14.701026000000002
30
0
11
-0.24090200000000062
21
14.701026000000002
31
0
0
ARC
5
329
100
AcDbEntity
8
0
100
AcDbCircle
10
-0.24090200000000003
20
15.201026000000002
30
0
40
0.5
210
0
220
0
230
1
100
AcDbArc
50
180
51
269.99999999999989
0
LINE
5
330
100
AcDbEntity
8
0
100
AcDbLine
10
-0.74090200000000006
20
15.201026000000002
30
0
11
-0.74090199999999995
21
28.201025000000005
31
0
0
ARC
5
331
100
AcDbEntity
8
0
100
AcDbCircle
10
-0.24090200000000003
20
28.201025000000005
30
0
40
0.49999999999999822
210
0
220
-0
230
1
100
AcDbArc
50
90
51
180
0
LINE
5
332
100
AcDbEntity
8
0
100
AcDbLine
10
-0.24090200000000001
20
28.701025000000001
30
0
11
12.759098
21
28.701025499771383
31
0
0
ARC
5
333
100
AcDbEntity
8
0
100
AcDbCircle
10
12.759098
20
28.201025000000005
30
0
40
0.50000100000000103
210
0
220
0
230
1
100
AcDbArc
50
0
51
90
0
ARC
5
334
100
AcDbEntity
8
0
100
AcDbCircle
10
7.9960979999999999
20
34.25102600000001
30
0
40
0.49999999999999822
210
0
220
0
230
1
100
AcDbArc
50
-90
51
0
0
LINE
5
335
100
AcDbEntity
8
0
100
AcDbLine
10
7.9960979999999999
20
33.75102600000001
30
0
11
-5.0039020000000001
21
33.751026000000003
31
0
0
ARC
5
336
100
AcDbEntity
8
0
100
AcDbCircle
10
-5.0039020000000001
20
34.25102600000001
30
0
40
0.50000000000000044
210
0
220
0
230
1
100
AcDbArc
50
180
51
270
0
LINE
5
337
100
AcDbEntity
8
0
100
AcDbLine
10
-5.5039020000000001
20
34.25102600000001
30
0
11
-5.5039020000000001
21
47.251026000000003
31
0
0
ARC
5
338
100
AcDbEntity
8
0
100
AcDbCircle
10
-5.0039020000000001
20
47.251026000000003
30
0
40
0.49999999999999822
210
0
220
-0
230
1
100
AcDbArc
50
90
51
180
0
LINE
5
339
100
AcDbEntity
8
0
100
AcDbLine
10
-5.0039020000000001
20
47.751026000000003
30
0
11
7.9960980000028314
21
47.751025500228124
31
0
0
ARC
5
340
100
AcDbEntity
8
0
100
AcDbCircle
10
7.996099000000001
20
47.251026000000003
30
0
40
0.49999899999999986
210
0
220
0
230
1
100
AcDbArc
50
0
51
90.000114591349217
0
LINE
5
341
100
AcDbEntity
8
0
100
AcDbLine
10
8.4960979999999999
20
47.251026000000003
30
0
11
8.4960979999999999
21
34.25102600000001
31
0
0
LWPOLYLINE
5
342
100
AcDbEntity
8
0
100
AcDbPolyline
90
8
70
1
43
0.0
10
-10.553902000000004
20
34.25102600000001
42
-0.41421356237309503
10
-11.053902000000003
20
33.75102600000001
10
-24.053902000000001
20
33.75102600000001
42
-0.41421356237309503
10
-24.553902000000001
20
34.25102600000001
10
-24.553902000000001
20
47.251026000000003
42
-0.41421356237309503
10
-24.053902000000001
20
47.751026000000003
10
-11.053902000000003
20
47.751026000000003
42
-0.41421356237309503
10
-10.553902000000001
20
47.251026000000003
0
LWPOLYLINE
5
343
100
AcDbEntity
8
0
100
AcDbPolyline
90
8
70
1
43
0.0
10
-24.840902
20
15.201026000000002
42
-0.41421356237309503
10
-25.340902
20
14.701026000000002
10
-38.340902
20
14.701026000000004
42
-0.41421356237309503
10
-38.840902
20
15.201026000000002
10
-38.840902
20
28.201025000000005
42
-0.41421356237309503
10
-38.340902
20
28.701025000000001
10
-25.340902
20
28.701025000000001
42
-0.41421356237309503
10
-24.840902000000003
20
28.201025000000005
0
ARC
5
344
100
AcDbEntity
8
0
100
AcDbCircle
10
-6.2909020000000009
20
28.201025000000005
30
0
40
0.50000000000000044
210
0
220
0
230
1
100
AcDbArc
50
0
51
90
0
LINE
5
345
100
AcDbEntity
8
0
100
AcDbLine
10
-5.790902
20
28.201025000000005
30
0
11
-5.790902
21
15.201026000000002
31
0
0
ARC
5
346
100
AcDbEntity
8
0
100
AcDbCircle
10
-6.2909020000000009
20
15.201026000000002
30
0
40
0.50000000000000044
210
0
220
0
230
1
100
AcDbArc
50
-90
51
0
0
LINE
5
347
100
AcDbEntity
8
0
100
AcDbLine
10
-6.2909020000000009
20
14.701026000000002
30
0
11
-19.290901000000005
21
14.701025500228626
31
0
0
ARC
5
348
100
AcDbEntity
8
0
100
AcDbCircle
10
-19.290901000000002
20
15.201026000000002
30
0
40
0.50000100000000103
210
0
220
0
230
1
100
AcDbArc
50
180
51
269.9999999999996
0
LINE
5
349
100
AcDbEntity
8
0
100
AcDbLine
10
-19.790902000000003
20
15.201026000000002
30
0
11
-19.790901500228625
21
28.201025000000005
31
0
0
ARC
5
350
100
AcDbEntity
8
0
100
AcDbCircle
10
-19.290901000000002
20
28.201025000000005
30
0
40
0.49999999999999822
210
0
220
-0
230
1
100
AcDbArc
50
90
51
180
0
LINE
5
351
100
AcDbEntity
8
0
100
AcDbLine
10
-19.290901000000002
20
28.701025000000001
30
0
11
-6.2909020000000009
21
28.701025000000001
31
0
0
LWPOLYLINE
5
352
100
AcDbEntity
8
0
100
AcDbPolyline
90
8
70
1
43
0.0
10
-57.390901999999997
20
14.701026000000002
10
-44.390901999999997
20
14.701026000000002
42
0.41421356237309503
10
-43.890901999999997
20
15.201026000000002
10
-43.890901999999997
20
28.201025000000005
42
0.41421356237309503
10
-44.390901999999997
20
28.701025000000001
10
-57.390901999999997
20
28.701025000000001
42
0.41421356237309503
10
-57.890902000000004
20
28.201025000000005
10
-57.890901999999997
20
15.201026000000002
42
0.41421356237309503
0
LWPOLYLINE
5
353
100
AcDbEntity
8
0
100
AcDbPolyline
90
8
70
1
43
0.0
10
-62.653902000000002
20
47.251026000000003
42
-0.41421356237309503
10
-62.153902000000009
20
47.751026000000003
10
-49.153902000000009
20
47.751026000000003
42
-0.41421356237309503
10
-48.653902000000009
20
47.251026000000003
10
-48.653902000000009
20
34.25102600000001
42
-0.41421356237309503
10
-49.153902000000009
20
33.75102600000001
10
-62.153902000000009
20
33.75102600000001
42
-0.41421356237309503
10
-62.653902000000002
20
34.25102600000001
0
LINE
5
354
100
AcDbEntity
8
0
100
AcDbLine
10
-105.89769400019172
20
14.700757982975464
30
0
11
-105.89769400019172
21
9.6510259999999999
31
0
0
LINE
5
355
100
AcDbEntity
8
0
100
AcDbLine
10
-105.89769400019172
20
9.6510259999999999
30
0
11
-72.966902000000005
21
9.6510259999999999
31
0
0
ARC
5
356
100
AcDbEntity
8
0
100
AcDbCircle
10
-72.966902000000005
20
9.1510259999999999
30
0
40
0.49999999999999822
210
0
220
0
230
1
100
AcDbArc
50
0
51
90
0
LINE
5
357
100
AcDbEntity
8
0
100
AcDbLine
10
-72.466902000000005
20
9.1510259999997885
30
0
11
-72.466904
21
-3.8489740000000019
31
0
0
ARC
5
358
100
AcDbEntity
8
0
100
AcDbCircle
10
-72.966902000000005
20
-3.8489740000000006
30
0
40
0.49999799999999983
210
0
220
0
230
1
100
AcDbArc
50
270
51
360
0
LINE
5
359
100
AcDbEntity
8
0
100
AcDbLine
10
-72.966902000000005
20
-4.3489720000000007
30
0
11
-75.272902000000002
21
-4.3489730000000009
31
0
0
LINE
5
360
100
AcDbEntity
8
0
100
AcDbLine
10
-75.272902000000002
20
-4.3489730000000009
30
0
11
-75.272902000000002
21
-4.8189729999999997
31
0
0
ARC
5
361
100
AcDbEntity
8
0
100
AcDbCircle
10
-75.772902000000002
20
-4.8189729999999997
30
0
40
0.50000000000000044
210
0
220
0
230
1
100
AcDbArc
50
-90
51
0
0
LINE
5
362
100
AcDbEntity
8
0
100
AcDbLine
10
-75.772902000000002
20
-5.3189729999999997
30
0
11
-82.297901999999993
21
-5.3189729999999997
31
0
0
ARC
5
363
100
AcDbEntity
8
0
100
AcDbCircle
10
-82.297901999999993
20
-4.8189729999999997
30
0
40
0.50000000000000711
210
0
220
0
230
1
100
AcDbArc
50
180
51
270
0
LINE
5
364
100
AcDbEntity
8
0
100
AcDbLine
10
-82.797902000000008
20
-4.8189729999999997
30
0
11
-82.797901999999993
21
-4.3489730000000009
31
0
0
LINE
5
365
100
AcDbEntity
8
0
100
AcDbLine
10
-82.797901999999993
20
-4.3489730000000009
30
0
11
-99.947901999999999
21
-4.3489730000000009
31
0
0
LINE
5
366
100
AcDbEntity
8
0
100
AcDbLine
10
-99.947901999999999
20
-4.3489730000000009
30
0
11
-99.947901999999999
21
-4.8189729999999997
31
0
0
ARC
5
367
100
AcDbEntity
8
0
100
AcDbCircle
10
-100.44790200000001
20
-4.8189729999999997
30
0
40
0.50000000000000044
210
0
220
0
230
1
100
AcDbArc
50
-90
51
0
0
LINE
5
368
100
AcDbEntity
8
0
100
AcDbLine
10
-100.44790200000001
20
-5.3189729999999997
30
0
11
-106.972902
21
-5.3189729999999997
31
0
0
ARC
5
369
100
AcDbEntity
8
0
100
AcDbCircle
10
-106.972902
20
-4.8189729999999997
30
0
40
0.50000000000000711
210
0
220
0
230
1
100
AcDbArc
50
180
51
270
0
LINE
5
370
100
AcDbEntity
8
0
100
AcDbLine
10
-107.47290200000002
20
-4.8189729999999997
30
0
11
-107.47290200000002
21
-4.3489730000000009
31
0
0
LINE
5
371
100
AcDbEntity
8
0
100
AcDbLine
10
-107.47290200000002
20
-4.3489730000000009
30
0
11
-108.01690200000002
21
-4.3489740000000001
31
0
0
ARC
5
372
100
AcDbEntity
8
0
100
AcDbCircle
10
-108.01690200000002
20
-3.8489740000000006
30
0
40
0.49999999999999462
210
0
220
0
230
1
100
AcDbArc
50
180.00011459029153
51
270
0
LINE
5
373
100
AcDbEntity
8
0
100
AcDbLine
10
-108.51690199999901
20
-3.8489750000000003
30
0
11
-108.516902
21
9.1510260000000017
31
0
0
LINE
5
374
100
AcDbEntity
8
0
100
AcDbLine
10
-108.516902
20
9.1510260000000017
30
0
11
-112.27890200000002
21
9.1510260000000017
31
0
0
LINE
5
375
100
AcDbEntity
8
0
100
AcDbLine
10
-112.27890200000002
20
9.1510260000000017
30
0
11
-112.27890200000002
21
-23.898973000000005
31
0
0
ARC
5
376
100
AcDbEntity
8
0
100
AcDbCircle
10
-110.778902
20
-23.898973000000005
30
0
40
1.5000000000000036
210
0
220
0
230
1
100
AcDbArc
50
180
51
270
0
LINE
5
377
100
AcDbEntity
8
0
100
AcDbLine
10
-110.778902
20
-25.398973000000002
30
0
11
171.25912700000001
21
-25.398973000000002
31
0
0
ARC
5
378
100
AcDbEntity
8
0
100
AcDbCircle
10
171.25912700000001
20
-23.898973000000005
30
0
40
1.4999999999999991
210
0
220
0
230
1
100
AcDbArc
50
-90
51
0
0
LINE
5
379
100
AcDbEntity
8
0
100
AcDbLine
10
172.75912699999998
20
-23.898973000000005
30
0
11
172.75912700000003
21
8.6513259999999992
31
0
0
LINE
5
380
100
AcDbEntity
8
0
100
AcDbLine
10
172.75912700000003
20
8.6513259999999992
30
0
11
170.42109696156155
21
8.6513259999999992
31
0
0
LINE
5
381
100
AcDbEntity
8
0
100
AcDbLine
10
170.42109696156155
20
8.6513259999999992
30
0
11
170.42109600000001
21
-3.8489740000000006
31
0
0
ARC
5
382
100
AcDbEntity
8
0
100
AcDbCircle
10
169.921097
20
-3.8489740000000006
30
0
40
0.49999899999999986
210
0
220
0
230
1
100
AcDbArc
50
-90
51
0
0
LINE
5
383
100
AcDbEntity
8
0
100
AcDbLine
10
169.921097
20
-4.3489730000000009
30
0
11
162.80212700000004
21
-4.3489730000000009
31
0
0
LINE
5
384
100
AcDbEntity
8
0
100
AcDbLine
10
162.80212700000004
20
-4.3489730000000009
30
0
11
162.80212749977139
21
-4.8189719999999996
31
0
0
ARC
5
385
100
AcDbEntity
8
0
100
AcDbCircle
10
162.30212700000004
20
-4.8189719999999996
30
0
40
0.50000100000000047
210
0
220
0
230
1
100
AcDbArc
50
-90
51
0
0
LINE
5
386
100
AcDbEntity
8
0
100
AcDbLine
10
162.30212700000004
20
-5.3189729999999997
30
0
11
155.00312800000015
21
-5.3189724997718759
31
0
0
ARC
5
387
100
AcDbEntity
8
0
100
AcDbCircle
10
155.003128
20
-4.8189729999999997
30
0
40
0.50000000000100708
210
0
220
0
230
1
100
AcDbArc
50
179.9998854097085
51
270.00000000001626
0
LINE
5
388
100
AcDbEntity
8
0
100
AcDbLine
10
154.503128
20
-4.8189719999999996
30
0
11
154.503128
21
-4.3489730000000009
31
0
0
LINE
5
389
100
AcDbEntity
8
0
100
AcDbLine
10
154.503128
20
-4.3489730000000009
30
0
11
143.72709699999999
21
-4.3489730000000009
31
0
0
LINE
5
390
100
AcDbEntity
8
0
100
AcDbLine
10
143.72709699999999
20
-4.3489730000000009
30
0
11
139.002127
21
-4.3489730000000009
31
0
0
LINE
5
391
100
AcDbEntity
8
0
100
AcDbLine
10
139.002127
20
-4.3489730000000009
30
0
11
139.002127
21
-4.8189729999999997
31
0
0
ARC
5
392
100
AcDbEntity
8
0
100
AcDbCircle
10
138.502127
20
-4.8189729999999997
30
0
40
0.50000000000000044
210
0
220
0
230
1
100
AcDbArc
50
-90
51
0
0
LINE
5
393
100
AcDbEntity
8
0
100
AcDbLine
10
138.502127
20
-5.3189729999999997
30
0
11
131.20832000000001
21
-5.3189728443562965
31
0
0
ARC
5
394
100
AcDbEntity
8
0
100
AcDbCircle
10
131.20832000000001
20
-4.8189729999999997
30
0
40
0.49999968828500296
210
0
220
0
230
1
100
AcDbArc
50
179.40800910415396
51
270
0
LINE
5
395
100
AcDbEntity
8
0
100
AcDbLine
10
130.70834699999989
20
-4.8138069999999988
30
0
11
130.71315099553172
21
-4.3487792358011932
31
0
0
ARC
5
396
100
AcDbEntity
8
0
100
AcDbCircle
10
130.72709699999999
20
-3.8489740000000006
30
0
40
0.50000000000000711
210
0
220
0
230
1
100
AcDbArc
50
180
51
268.40169757107623
0
LINE
5
397
100
AcDbEntity
8
0
100
AcDbLine
10
130.22709699999999
20
-3.8489740000000006
30
0
11
130.22709700000001
21
9.1510259999999999
31
0
0
ARC
5
398
100
AcDbEntity
8
0
100
AcDbCircle
10
130.72709699999999
20
9.1510259999999999
30
0
40
0.50000000000000044
210
0
220
-0
230
1
100
AcDbArc
50
90
51
180
0
LINE
5
399
100
AcDbEntity
8
0
100
AcDbLine
10
130.72709699999999
20
9.6510259999999999
30
0
11
167.11509699999999
21
9.6510259999999999
31
0
0
LINE
5
400
100
AcDbEntity
8
0
100
AcDbLine
10
167.11509699999999
20
9.6510259999999999
30
0
11
167.11509699999999
21
13.731026000000002
31
0
0
LINE
5
401
100
AcDbEntity
8
0
100
AcDbLine
10
167.11509699999999
20
13.731026000000002
30
0
11
160.59009700000001
21
13.731026000000002
31
0
0
ARC
5
402
100
AcDbEntity
8
0
100
AcDbCircle
10
160.59009700000001
20
14.231026
30
0
40
0.50000000000000711
210
0
220
0
230
1
100
AcDbArc
50
180
51
270
0
LINE
5
403
100
AcDbEntity
8
0
100
AcDbLine
10
160.09009700000001
20
14.231026
30
0
11
160.09009700000001
21
14.700025999999999
31
0
0
LINE
5
404
100
AcDbEntity
8
0
100
AcDbLine
10
160.09009700000001
20
14.700025999999999
30
0
11
142.94009700000001
21
14.700025999999999
31
0
0
LINE
5
405
100
AcDbEntity
8
0
100
AcDbLine
10
142.94009700000001
20
14.700025999999999
30
0
11
142.94009700000001
21
14.231026
31
0
0
ARC
5
406
100
AcDbEntity
8
0
100
AcDbCircle
10
142.44009700000001
20
14.231026
30
0
40
0.50000000000000044
210
0
220
0
230
1
100
AcDbArc
50
-90
51
0
0
LINE
5
407
100
AcDbEntity
8
0
100
AcDbLine
10
142.44009700000001
20
13.731026
30
0
11
135.915097
21
13.731026000000002
31
0
0
ARC
5
408
100
AcDbEntity
8
0
100
AcDbCircle
10
135.915097
20
14.231026
30
0
40
0.50000000000000711
210
0
220
0
230
1
100
AcDbArc
50
180
51
270
0
LINE
5
409
100
AcDbEntity
8
0
100
AcDbLine
10
135.415097
20
14.231026
30
0
11
135.415097
21
14.700025999999999
31
0
0
LINE
5
410
100
AcDbEntity
8
0
100
AcDbLine
10
135.415097
20
14.700025999999999
30
0
11
133.110097
21
14.700025999999999
31
0
0
ARC
5
411
100
AcDbEntity
8
0
100
AcDbCircle
10
133.110097
20
15.200025999999999
30
0
40
0.50000000000000711
210
0
220
0
230
1
100
AcDbArc
50
180
51
270
0
LINE
5
412
100
AcDbEntity
8
0
100
AcDbLine
10
132.610097
20
15.200025999999999
30
0
11
132.61009599951001
21
28.200050330689002
31
0
0
ARC
5
413
100
AcDbEntity
8
0
100
AcDbCircle
10
133.110096
20
28.200049000000003
30
0
40
0.50000000048399817
210
0
220
0
230
1
100
AcDbArc
50
90.002521014297102
51
179.99984751593118
0
LINE
5
414
100
AcDbEntity
8
0
100
AcDbLine
10
133.110074
20
28.700049
30
0
11
135.415097
21
28.700157000000001
31
0
0
LINE
5
415
100
AcDbEntity
8
0
100
AcDbLine
10
135.415097
20
28.700157000000001
30
0
11
135.41509600000001
21
29.169025000000005
31
0
0
ARC
5
416
100
AcDbEntity
8
0
100
AcDbCircle
10
135.915097
20
29.169025000000005
30
0
40
0.50000100000000103
210
0
220
-0
230
1
100
AcDbArc
50
90
51
180
0
LINE
5
417
100
AcDbEntity
8
0
100
AcDbLine
10
135.915097
20
29.669026000000006
30
0
11
142.44009700000001
21
29.669026000000002
31
0
0
ARC
5
418
100
AcDbEntity
8
0
100
AcDbCircle
10
142.44009700000001
20
29.169026000000002
30
0
40
0.50000000000000711
210
0
220
0
230
1
100
AcDbArc
50
0
51
90
0
LINE
5
419
100
AcDbEntity
8
0
100
AcDbLine
10
142.94009700000001
20
29.169026000000002
30
0
11
142.94009700000001
21
28.700507999999999
31
0
0
LINE
5
420
100
AcDbEntity
8
0
100
AcDbLine
10
142.94009700000001
20
28.700507999999999
30
0
11
154.04109700000001
21
28.701025000000001
31
0
0
LINE
5
421
100
AcDbEntity
8
0
100
AcDbLine
10
154.04109700000001
20
28.701025000000001
30
0
11
154.04109700000001
21
33.751026000000003
31
0
0
LINE
5
422
100
AcDbEntity
8
0
100
AcDbLine
10
154.04109700000001
20
33.751026000000003
30
0
11
152.158097
21
33.751026000000003
31
0
0
ARC
5
423
100
AcDbEntity
8
0
100
AcDbCircle
10
152.158097
20
34.25102600000001
30
0
40
0.50000000000000711
210
0
220
0
230
1
100
AcDbArc
50
180
51
270
0
LINE
5
424
100
AcDbEntity
8
0
100
AcDbLine
10
151.658097
20
34.25102600000001
30
0
11
151.658097
21
38.751325999999999
31
0
0
LINE
5
425
100
AcDbEntity
8
0
100
AcDbLine
10
151.658097
20
38.751325999999999
30
0
11
141.84609699999999
21
38.751325999999999
31
0
0
LINE
5
426
100
AcDbEntity
8
0
100
AcDbLine
10
141.84609699999999
20
38.751325999999999
30
0
11
141.84609699999999
21
34.25102600000001
31
0
0
ARC
5
427
100
AcDbEntity
8
0
100
AcDbCircle
10
141.34609699999999
20
34.25102600000001
30
0
40
0.49999999999999822
210
0
220
0
230
1
100
AcDbArc
50
-90
51
0
0
LINE
5
428
100
AcDbEntity
8
0
100
AcDbLine
10
141.34609699999999
20
33.75102600000001
30
0
11
128.34609599999999
21
33.751026000000003
31
0
0
ARC
5
429
100
AcDbEntity
8
0
100
AcDbCircle
10
128.34609599999999
20
34.25102600000001
30
0
40
0.50000000000000711
210
0
220
0
230
1
100
AcDbArc
50
180
51
270
0
LINE
5
430
100
AcDbEntity
8
0
100
AcDbLine
10
127.84609599999999
20
34.25102600000001
30
0
11
127.84609700000001
21
47.251026000000003
31
0
0
ARC
5
431
100
AcDbEntity
8
0
100
AcDbCircle
10
128.34609699999999
20
47.251026000000003
30
0
40
0.49999999999999822
210
0
220
-0
230
1
100
AcDbArc
50
90
51
180
0
LINE
5
432
100
AcDbEntity
8
0
100
AcDbLine
10
128.34609699999999
20
47.751026000000003
30
0
11
141.34609699999999
21
47.751026000000003
31
0
0
ARC
5
433
100
AcDbEntity
8
0
100
AcDbCircle
10
141.34609699999999
20
47.251026000000003
30
0
40
0.50000000000000711
210
0
220
0
230
1
100
AcDbArc
50
0
51
90
0
LINE
5
434
100
AcDbEntity
8
0
100
AcDbLine
10
141.84609699999999
20
47.251026000000003
30
0
11
141.84609699999999
21
42.751325999999999
31
0
0
LINE
5
435
100
AcDbEntity
8
0
100
AcDbLine
10
141.84609699999999
20
42.751325999999999
30
0
11
151.658097
21
42.751325999999999
31
0
0
LINE
5
436
100
AcDbEntity
8
0
100
AcDbLine
10
151.658097
20
42.751325999999999
30
0
11
151.658097
21
47.251026000000003
31
0
0
ARC
5
437
100
AcDbEntity
8
0
100
AcDbCircle
10
152.158097
20
47.251026000000003
30
0
40
0.49999999999999822
210
0
220
-0
230
1
100
AcDbArc
50
90
51
180
0
LINE
5
438
100
AcDbEntity
8
0
100
AcDbLine
10
152.158097
20
47.751026000000003
30
0
11
165.658097
21
47.751026000000003
31
0
0
LINE
5
439
100
AcDbEntity
8
0
100
AcDbLine
10
165.658097
20
47.751026000000003
30
0
11
165.658097
21
47.325426000000007
31
0
0
LINE
5
440
100
AcDbEntity
8
0
100
AcDbLine
10
165.658097
20
47.325426000000007
30
0
11
166.07109700000001
21
47.325426000000007
31
0
0
ARC
5
441
100
AcDbEntity
8
0
100
AcDbCircle
10
166.07109700000001
20
46.825426000000007
30
0
40
0.50000000000000711
210
0
220
0
230
1
100
AcDbArc
50
0
51
90
0
LINE
5
442
100
AcDbEntity
8
0
100
AcDbLine
10
166.57109700000004
20
46.825426000000007
30
0
11
166.57109700000004
21
40.300426000000009
31
0
0
ARC
5
443
100
AcDbEntity
8
0
100
AcDbCircle
10
166.07109700000001
20
40.300426000000009
30
0
40
0.49999999999999822
210
0
220
0
230
1
100
AcDbArc
50
-90
51
0
0
LINE
5
444
100
AcDbEntity
8
0
100
AcDbLine
10
166.07109700000001
20
39.800426000000009
30
0
11
165.658097
21
39.800426000000002
31
0
0
LINE
5
445
100
AcDbEntity
8
0
100
AcDbLine
10
165.658097
20
39.800426000000002
30
0
11
165.658097
21
38.225026
31
0
0
LINE
5
446
100
AcDbEntity
8
0
100
AcDbLine
10
165.658097
20
38.225026
30
0
11
167.54109700000001
21
38.225026
31
0
0
ARC
5
447
100
AcDbEntity
8
0
100
AcDbCircle
10
167.54109700000001
20
37.725026
30
0
40
0.50000000000000711
210
0
220
0
230
1
100
AcDbArc
50
0
51
90
0
LINE
5
448
100
AcDbEntity
8
0
100
AcDbLine
10
168.04109700000001
20
37.725026
30
0
11
168.04109700000001
21
24.225026
31
0
0
LINE
5
449
100
AcDbEntity
8
0
100
AcDbLine
10
168.04109700000001
20
24.225026
30
0
11
167.61509700000002
21
24.225026
31
0
0
LINE
5
450
100
AcDbEntity
8
0
100
AcDbLine
10
167.61509700000002
20
24.225026
30
0
11
167.61509700000002
21
15.000325999999999
31
0
0
LINE
5
451
100
AcDbEntity
8
0
100
AcDbLine
10
167.61509700000002
20
15.000325999999999
30
0
11
172.75912700000003
21
15.000325999999999
31
0
0
LINE
5
452
100
AcDbEntity
8
0
100
AcDbLine
10
172.75912700000003
20
15.000325999999999
30
0
11
172.75912700000003
21
67.301025999999993
31
0
0
ARC
5
453
100
AcDbEntity
8
0
100
AcDbCircle
10
171.25912700000001
20
67.301025999999993
30
0
40
1.5000000000000213
210
0
220
0
230
1
100
AcDbArc
50
0
51
90
0
LINE
5
454
100
AcDbEntity
8
0
100
AcDbLine
10
171.25912700000001
20
68.801025999999993
30
0
11
-110.77890199999999
21
68.801025999999993
31
0
0
ARC
5
455
100
AcDbEntity
8
0
100
AcDbCircle
10
-110.778902
20
67.301025999999993
30
0
40
1.5000000000000036
210
0
220
-0
230
1
100
AcDbArc
50
89.99999999999946
51
180
0
LINE
5
456
100
AcDbEntity
8
0
100
AcDbLine
10
-112.27890200000002
20
67.301025999999993
30
0
11
-112.27890200000002
21
15.200734000000002
31
0
0
LINE
5
457
100
AcDbEntity
8
0
100
AcDbLine
10
-112.27890200000002
20
15.200734000000002
30
0
11
-107.897702
21
15.200734000000002
31
0
0
LINE
5
458
100
AcDbEntity
8
0
100
AcDbLine
10
-107.897702
20
15.200734000000002
30
0
11
-107.89770249980288
21
28.200734000002839
31
0
0
ARC
5
459
100
AcDbEntity
8
0
100
AcDbCircle
10
-107.39770200000001
20
28.200733000000003
30
0
40
0.50000100006400094
210
0
220
0
230
1
100
AcDbArc
50
90.000916730639617
51
179.9998854097085
0
LINE
5
460
100
AcDbEntity
8
0
100
AcDbLine
10
-107.39771000000002
20
28.700734000000004
30
0
11
-89.635109999999997
21
28.701017
31
0
0
ARC
5
461
100
AcDbEntity
8
0
100
AcDbCircle
10
-89.635102000000003
20
28.201017000000004
30
0
40
0.50000000000000711
210
0
220
0
230
1
100
AcDbArc
50
0
51
90.000916732471453
0
LINE
5
462
100
AcDbEntity
8
0
100
AcDbLine
10
-89.135101999999989
20
28.201017000000004
30
0
11
-89.135101499739392
21
15.201018000000069
31
0
0
ARC
5
463
100
AcDbEntity
8
0
100
AcDbCircle
10
-89.635102000000003
20
15.201017999999999
30
0
40
0.50000000006400047
210
0
220
0
230
1
100
AcDbArc
50
-89.999083267526942
51
0
0
LINE
5
464
100
AcDbEntity
8
0
100
AcDbLine
10
-89.635093999999995
20
14.701017999999999
30
0
11
-105.89769400019172
21
14.700757982975464
31
0
0
ENDSEC
0
SECTION
2
OBJECTS
0
DICTIONARY
5
C
100
AcDbDictionary
3
ACAD_GROUP
350
D
3
ACAD_MLINESTYLE
350
17
0
DICTIONARY
5
D
100
AcDbDictionary
0
DICTIONARY
5
1A
330
C
100
AcDbDictionary
0
DICTIONARY
5
17
100
AcDbDictionary
0
ENDSEC
0
EOF
