0
SECTION
2
HEADER
9
$INSUNITS
70
4
9
$ACADVER
1
AC1014
9
$HANDSEED
5
FFFF
0
ENDSEC
0
SECTION
2
TABLES
0
TABLE
2
VPORT
5
8
100
AcDbSymbolTable
0
ENDTAB
0
TABLE
2
LTYPE
5
5
100
AcDbSymbolTable
0
LTYPE
5
14
100
AcDbSymbolTableRecord
100
AcDbLinetypeTableRecord
2
BYBLOCK
70
0
0
LTYPE
5
15
100
AcDbSymbolTableRecord
100
AcDbLinetypeTableRecord
2
BYLAYER
70
0
0
ENDTAB
0
TABLE
2
LAYER
5
2
100
AcDbSymbolTable
70
2
0
LAYER
5
50
100
AcDbSymbolTableRecord
100
AcDbLayerTableRecord
2
0
70
0
6
CONTINUOUS
0
ENDTAB
0
TABLE
2
STYLE
5
3
100
AcDbSymbolTable
70
1
0
STYLE
5
11
100
AcDbSymbolTableRecord
100
AcDbTextStyleTableRecord
2
STANDARD
70
0
0
ENDTAB
0
TABLE
2
VIEW
5
6
100
AcDbSymbolTable
70
0
0
ENDTAB
0
TABLE
2
UCS
5
7
100
AcDbSymbolTable
70
0
0
ENDTAB
0
TABLE
2
APPID
5
9
100
AcDbSymbolTable
70
2
0
APPID
5
12
100
AcDbSymbolTableRecord
100
AcDbRegAppTableRecord
2
ACAD
70
0
0
ENDTAB
0
TABLE
2
DIMSTYLE
5
A
100
AcDbSymbolTable
70
1
0
ENDTAB
0
TABLE
2
BLOCK_RECORD
5
1
100
AcDbSymbolTable
70
1
0
BLOCK_RECORD
5
1F
100
AcDbSymbolTableRecord
100
AcDbBlockTableRecord
2
*MODEL_SPACE
0
BLOCK_RECORD
5
1B
100
AcDbSymbolTableRecord
100
AcDbBlockTableRecord
2
*PAPER_SPACE
0
ENDTAB
0
ENDSEC
0
SECTION
2
BLOCKS
0
BLOCK
5
20
100
AcDbEntity
100
AcDbBlockBegin
2
*MODEL_SPACE
0
ENDBLK
5
21
100
AcDbEntity
100
AcDbBlockEnd
0
BLOCK
5
1C
100
AcDbEntity
100
AcDbBlockBegin
2
*PAPER_SPACE
0
ENDBLK
5
1D
100
AcDbEntity
100
AcDbBlockEnd
0
ENDSEC
0
SECTION
2
ENTITIES
0
SPLINE
5
100
100
AcDbEntity
8
0
100
AcDbSpline
70
0
71
3
72
8
73
4
74
0
42
0.000000001
43
0.0000000001
44
0.0000000001
40
2
40
2
40
2
40
2
40
3
40
3
40
3
40
3
10
288.96263759594513
20
156.07776315813771
30
0
10
288.96263759594513
20
156.9061902826769
30
0
10
288.29106472085903
20
157.57776315776269
30
0
10
287.46263759632018
20
157.57776315776269
30
0
0
LINE
5
101
100
AcDbEntity
8
0
100
AcDbLine
10
287.46263759632018
20
157.57776315776269
30
0
11
218.01624140057399
21
157.57776315776269
31
0
0
SPLINE
5
102
100
AcDbEntity
8
0
100
AcDbSpline
70
0
71
3
72
8
73
4
74
0
42
0.000000001
43
0.0000000001
44
0.0000000001
40
4
40
4
40
4
40
4
40
5
40
5
40
5
40
5
10
218.01624140057399
20
157.57776315776269
30
0
10
217.1878142760352
20
157.57776315776269
30
0
10
216.5162414009491
20
156.9061902826769
30
0
10
216.5162414009491
20
156.07776315813771
30
0
0
LINE
5
103
100
AcDbEntity
8
0
100
AcDbLine
10
216.5162414009491
20
156.07776315813771
30
0
11
216.5162414009491
21
152.16437696255571
31
0
0
LINE
5
104
100
AcDbEntity
8
0
100
AcDbLine
10
216.5162414009491
20
152.16437696255571
30
0
11
187.72256397216663
21
152.16437696255571
31
0
0
LINE
5
105
100
AcDbEntity
8
0
100
AcDbLine
10
187.72256397216663
20
152.16437696255571
30
0
11
187.72256397216663
21
156.07776315813771
31
0
0
SPLINE
5
106
100
AcDbEntity
8
0
100
AcDbSpline
70
0
71
3
72
8
73
4
74
0
42
0.000000001
43
0.0000000001
44
0.0000000001
40
8
40
8
40
8
40
8
40
9
40
9
40
9
40
9
10
187.72256397216663
20
156.07776315813771
30
0
10
187.72256397216663
20
156.9061902826769
30
0
10
187.05099109708041
20
157.57776315776269
30
0
10
186.22256397254162
20
157.57776315776269
30
0
0
LINE
5
107
100
AcDbEntity
8
0
100
AcDbLine
10
186.22256397254162
20
157.57776315776269
30
0
11
111.91944441646461
21
157.57776315776269
31
0
0
SPLINE
5
108
100
AcDbEntity
8
0
100
AcDbSpline
70
0
71
3
72
8
73
4
74
0
42
0.000000001
43
0.0000000001
44
0.0000000001
40
10
40
10
40
10
40
10
40
11
40
11
40
11
40
11
10
111.91944441646461
20
157.57776315776269
30
0
10
111.0910172919254
20
157.57776315776269
30
0
10
110.4194444168396
20
156.9061902826769
30
0
10
110.4194444168396
20
156.07776315813771
30
0
0
LINE
5
109
100
AcDbEntity
8
0
100
AcDbLine
10
110.4194444168396
20
156.07776315813771
30
0
11
110.4194444168396
21
152.16437696255571
31
0
0
LINE
5
110
100
AcDbEntity
8
0
100
AcDbLine
10
110.4194444168396
20
152.16437696255571
30
0
11
79.222640632321088
21
152.16437696255571
31
0
0
LINE
5
111
100
AcDbEntity
8
0
100
AcDbLine
10
79.222640632321088
20
152.16437696255571
30
0
11
79.222640632321088
21
156.07776315813771
31
0
0
SPLINE
5
112
100
AcDbEntity
8
0
100
AcDbSpline
70
0
71
3
72
8
73
4
74
0
42
0.000000001
43
0.0000000001
44
0.0000000001
40
14
40
14
40
14
40
14
40
15
40
15
40
15
40
15
10
79.222640632321088
20
156.07776315813771
30
0
10
79.222640632321088
20
156.9061902826769
30
0
10
78.551067757235259
20
157.57776315776269
30
0
10
77.722640632696098
20
157.57776315776269
30
0
0
LINE
5
113
100
AcDbEntity
8
0
100
AcDbLine
10
77.722640632696098
20
157.57776315776269
30
0
11
6.1308112235106815
21
157.57776315776269
31
0
0
SPLINE
5
114
100
AcDbEntity
8
0
100
AcDbSpline
70
0
71
3
72
8
73
4
74
0
42
0.000000001
43
0.0000000001
44
0.0000000001
40
16
40
16
40
16
40
16
40
17
40
17
40
17
40
17
10
6.1308112235106806
20
157.57776315776269
30
0
10
5.3023840989715154
20
157.57776315776269
30
0
10
4.6308112238857007
20
156.9061902826769
30
0
10
4.6308112238857007
20
156.07776315813771
30
0
0
LINE
5
115
100
AcDbEntity
8
0
100
AcDbLine
10
4.6308112238857007
20
156.07776315813771
30
0
11
4.6308112238857007
21
152.16437696255571
31
0
0
LINE
5
116
100
AcDbEntity
8
0
100
AcDbLine
10
4.6308112238857007
20
152.16437696255571
30
0
11
-2.1055562331975692
21
152.16437696255571
31
0
0
SPLINE
5
117
100
AcDbEntity
8
0
100
AcDbSpline
70
0
71
3
72
8
73
4
74
0
42
0.000000001
43
0.0000000001
44
0.0000000001
40
19
40
19
40
19
40
19
40
20
40
20
40
20
40
20
10
-2.1055562331975688
20
152.16437696255571
30
0
10
-3.7624044896025772
20
152.16437696255571
30
0
10
-5.105545381753128
20
150.82123607040509
30
0
10
-5.105545381753128
20
149.16438781400021
30
0
0
LINE
5
118
100
AcDbEntity
8
0
100
AcDbLine
10
-5.105545381753128
20
149.16438781400021
30
0
11
-5.105545381753128
21
60.090453577913593
31
0
0
SPLINE
5
119
100
AcDbEntity
8
0
100
AcDbSpline
70
0
71
3
72
8
73
4
74
0
42
0.000000001
43
0.0000000001
44
0.0000000001
40
21
40
21
40
21
40
21
40
22
40
22
40
22
40
22
10
-5.105545381753128
20
60.090453577913593
30
0
10
-5.105545381753128
20
58.985903929257674
30
0
10
-4.2101309738343904
20
58.090489521338924
30
0
10
-3.1055813251784659
20
58.090489521338924
30
0
0
LINE
5
120
100
AcDbEntity
8
0
100
AcDbLine
10
-3.1055813251784659
20
58.090489521338924
30
0
11
4.6308112238857007
21
58.090489521338924
31
0
0
LINE
5
121
100
AcDbEntity
8
0
100
AcDbLine
10
4.6308112238857007
20
58.090489521338924
30
0
11
4.6308112238857007
21
54.177792344853977
31
0
0
SPLINE
5
122
100
AcDbEntity
8
0
100
AcDbSpline
70
0
71
3
72
8
73
4
74
0
42
0.000000001
43
0.0000000001
44
0.0000000001
40
25
40
25
40
25
40
25
40
26
40
26
40
26
40
26
10
4.6308112238857007
20
54.177792344853977
30
0
10
4.6308112238857007
20
53.349365220315129
30
0
10
5.3023840989715154
20
52.677792345228987
30
0
10
6.1308112235106806
20
52.677792345228987
30
0
0
LINE
5
123
100
AcDbEntity
8
0
100
AcDbLine
10
6.1308112235106806
20
52.677792345228987
30
0
11
77.722640632696098
21
52.677792345228987
31
0
0
SPLINE
5
124
100
AcDbEntity
8
0
100
AcDbSpline
70
0
71
3
72
8
73
4
74
0
42
0.000000001
43
0.0000000001
44
0.0000000001
40
27
40
27
40
27
40
27
40
28
40
28
40
28
40
28
10
77.722640632696098
20
52.677792345228987
30
0
10
78.551067757235259
20
52.677792345228987
30
0
10
79.222640632321088
20
53.349365220315129
30
0
10
79.222640632321088
20
54.177792344853977
30
0
0
LINE
5
125
100
AcDbEntity
8
0
100
AcDbLine
10
79.222640632321088
20
54.177792344853977
30
0
11
79.222640632321088
21
58.090489521338924
31
0
0
LINE
5
126
100
AcDbEntity
8
0
100
AcDbLine
10
79.222640632321088
20
58.090489521338924
30
0
11
110.4194444168396
21
58.090489521338924
31
0
0
LINE
5
127
100
AcDbEntity
8
0
100
AcDbLine
10
110.4194444168396
20
58.090489521338924
30
0
11
110.4194444168396
21
54.177792344853977
31
0
0
SPLINE
5
128
100
AcDbEntity
8
0
100
AcDbSpline
70
0
71
3
72
8
73
4
74
0
42
0.000000001
43
0.0000000001
44
0.0000000001
40
31
40
31
40
31
40
31
40
32
40
32
40
32
40
32
10
110.4194444168396
20
54.177792344853977
30
0
10
110.4194444168396
20
53.349365220315129
30
0
10
111.0910172919254
20
52.677792345228987
30
0
10
111.91944441646461
20
52.677792345228987
30
0
0
LINE
5
129
100
AcDbEntity
8
0
100
AcDbLine
10
111.91944441646461
20
52.677792345228987
30
0
11
186.22256397254162
21
52.677792345228987
31
0
0
SPLINE
5
130
100
AcDbEntity
8
0
100
AcDbSpline
70
0
71
3
72
8
73
4
74
0
42
0.000000001
43
0.0000000001
44
0.0000000001
40
33
40
33
40
33
40
33
40
34
40
34
40
34
40
34
10
186.22256397254162
20
52.677792345228987
30
0
10
187.05099109708041
20
52.677792345228987
30
0
10
187.72256397216663
20
53.349365220315129
30
0
10
187.72256397216663
20
54.177792344853977
30
0
0
LINE
5
131
100
AcDbEntity
8
0
100
AcDbLine
10
187.72256397216663
20
54.177792344853977
30
0
11
187.72256397216663
21
58.090489521338924
31
0
0
LINE
5
132
100
AcDbEntity
8
0
100
AcDbLine
10
187.72256397216663
20
58.090489521338924
30
0
11
216.5162414009491
21
58.090489521338924
31
0
0
LINE
5
133
100
AcDbEntity
8
0
100
AcDbLine
10
216.5162414009491
20
58.090489521338924
30
0
11
216.5162414009491
21
54.177792344853977
31
0
0
SPLINE
5
134
100
AcDbEntity
8
0
100
AcDbSpline
70
0
71
3
72
8
73
4
74
0
42
0.000000001
43
0.0000000001
44
0.0000000001
40
37
40
37
40
37
40
37
40
38
40
38
40
38
40
38
10
216.5162414009491
20
54.177792344853977
30
0
10
216.5162414009491
20
53.349365220315129
30
0
10
217.1878142760352
20
52.677792345228987
30
0
10
218.01624140057399
20
52.677792345228987
30
0
0
LINE
5
135
100
AcDbEntity
8
0
100
AcDbLine
10
218.01624140057399
20
52.677792345228987
30
0
11
287.46909715035503
21
52.677792345228987
31
0
0
SPLINE
5
136
100
AcDbEntity
8
0
100
AcDbSpline
70
0
71
3
72
8
73
4
74
0
42
0.000000001
43
0.0000000001
44
0.0000000001
40
39
40
39
40
39
40
39
40
40
40
40
40
40
40
40
10
287.46909715035503
20
52.677792345228987
30
0
10
288.29752427489382
20
52.677792345228987
30
0
10
288.96909714997997
20
53.349365220315129
30
0
10
288.96909714997997
20
54.177792344853977
30
0
0
LINE
5
137
100
AcDbEntity
8
0
100
AcDbLine
10
288.96909714997997
20
54.177792344853977
30
0
11
288.96909714997997
21
58.090489521338924
31
0
0
LINE
5
138
100
AcDbEntity
8
0
100
AcDbLine
10
288.96909714997997
20
58.090489521338924
30
0
11
300.0662449404457
21
58.090489521338924
31
0
0
SPLINE
5
139
100
AcDbEntity
8
0
100
AcDbSpline
70
0
71
3
72
8
73
4
74
0
42
0.000000001
43
0.0000000001
44
0.0000000001
40
42
40
42
40
42
40
42
40
43
40
43
40
43
40
43
10
300.0662449404457
20
58.090489521338924
30
0
10
301.21399717376181
20
58.090489521338924
30
0
10
302.14443419638229
20
59.020926543959504
30
0
10
302.14443419638229
20
60.168678777275545
30
0
0
LINE
5
140
100
AcDbEntity
8
0
100
AcDbLine
10
302.14443419638229
20
60.168678777275545
30
0
11
302.14443419638229
21
149.16438781400021
31
0
0
SPLINE
5
141
100
AcDbEntity
8
0
100
AcDbSpline
70
0
71
3
72
8
73
4
74
0
42
0.000000001
43
0.0000000001
44
0.0000000001
40
44
40
44
40
44
40
44
40
45
40
45
40
45
40
45
10
302.14443419638229
20
149.16438781400021
30
0
10
302.14443419638229
20
150.82123607040509
30
0
10
300.80129330423182
20
152.16437696255571
30
0
10
299.14444504782682
20
152.16437696255571
30
0
0
LINE
5
142
100
AcDbEntity
8
0
100
AcDbLine
10
299.14444504782682
20
152.16437696255571
30
0
11
288.96263759594513
21
152.16437696255571
31
0
0
LINE
5
143
100
AcDbEntity
8
0
100
AcDbLine
10
288.96263759594513
20
152.16437696255571
30
0
11
288.96263759594513
21
156.07776315813771
31
0
0
SPLINE
5
144
100
AcDbEntity
8
0
100
AcDbSpline
70
0
71
3
72
10
73
6
74
0
42
0.000000001
43
0.0000000001
44
0.0000000001
40
0
40
0
40
0
40
0
40
1
40
1
40
2
40
2
40
2
40
2
10
22.312894687313872
20
123.07782855197011
30
0
10
22.920407911977438
20
123.07782855197011
30
0
10
23.412894687038303
20
123.57031532703542
30
0
10
23.412894687038303
20
124.78534177635872
30
0
10
22.920407911977438
20
125.27782855142021
30
0
10
22.312894687313872
20
125.27782855142021
30
0
0
SPLINE
5
145
100
AcDbEntity
8
0
100
AcDbSpline
70
0
71
3
72
10
73
6
74
0
42
0.000000001
43
0.0000000001
44
0.0000000001
40
2
40
2
40
2
40
2
40
3
40
3
40
4
40
4
40
4
40
4
10
22.312894687313872
20
125.27782855142021
30
0
10
21.705381462654149
20
125.27782855142021
30
0
10
21.2128946875888
20
124.78534177635872
30
0
10
21.2128946875888
20
123.57031532703542
30
0
10
21.705381462654149
20
123.07782855197011
30
0
10
22.312894687313872
20
123.07782855197011
30
0
0
SPLINE
5
146
100
AcDbEntity
8
0
100
AcDbSpline
70
0
71
3
72
10
73
6
74
0
42
0.000000001
43
0.0000000001
44
0.0000000001
40
0
40
0
40
0
40
0
40
1
40
1
40
2
40
2
40
2
40
2
10
105.65694186731602
20
113.5527802562725
30
0
10
106.2644550919764
20
113.5527802562725
30
0
10
106.75694186704112
20
114.04526703133401
30
0
10
106.75694186704112
20
115.26029348065791
30
0
10
106.2644550919764
20
115.7527802557226
30
0
10
105.65694186731602
20
115.7527802557226
30
0
0
SPLINE
5
147
100
AcDbEntity
8
0
100
AcDbSpline
70
0
71
3
72
10
73
6
74
0
42
0.000000001
43
0.0000000001
44
0.0000000001
40
2
40
2
40
2
40
2
40
3
40
3
40
4
40
4
40
4
40
4
10
105.65694186731602
20
115.7527802557226
30
0
10
105.0494286426531
20
115.7527802557226
30
0
10
104.5569418675916
20
115.26029348065791
30
0
10
104.5569418675916
20
114.04526703133401
30
0
10
105.0494286426531
20
113.5527802562725
30
0
10
105.65694186731602
20
113.5527802562725
30
0
0
SPLINE
5
148
100
AcDbEntity
8
0
100
AcDbSpline
70
0
71
3
72
10
73
6
74
0
42
0.000000001
43
0.0000000001
44
0.0000000001
40
0
40
0
40
0
40
0
40
1
40
1
40
2
40
2
40
2
40
2
10
229.43749440731651
20
94.471027751971718
30
0
10
230.04500763197623
20
94.471027751971718
30
0
10
230.53749440703771
20
94.963514527032572
30
0
10
230.53749440703771
20
96.178540976359713
30
0
10
230.04500763197623
20
96.671027751420567
30
0
10
229.43749440731651
20
96.671027751420567
30
0
0
SPLINE
5
149
100
AcDbEntity
8
0
100
AcDbSpline
70
0
71
3
72
10
73
6
74
0
42
0.000000001
43
0.0000000001
44
0.0000000001
40
2
40
2
40
2
40
2
40
3
40
3
40
4
40
4
40
4
40
4
10
229.43749440731651
20
96.671027751420567
30
0
10
228.82998118265292
20
96.671027751420567
30
0
10
228.33749440759271
20
96.178540976359713
30
0
10
228.33749440759271
20
94.963514527032572
30
0
10
228.82998118265292
20
94.471027751971718
30
0
10
229.43749440731651
20
94.471027751971718
30
0
0
SPLINE
5
150
100
AcDbEntity
8
0
100
AcDbSpline
70
0
71
3
72
10
73
6
74
0
42
0.000000001
43
0.0000000001
44
0.0000000001
40
0
40
0
40
0
40
0
40
1
40
1
40
2
40
2
40
2
40
2
10
279.48889544731338
20
123.07782855197011
30
0
10
280.09640867197777
20
123.07782855197011
30
0
10
280.58889544704232
20
123.57031532703542
30
0
10
280.58889544704232
20
124.78534177635872
30
0
10
280.09640867197777
20
125.27782855142021
30
0
10
279.48889544731338
20
125.27782855142021
30
0
0
SPLINE
5
151
100
AcDbEntity
8
0
100
AcDbSpline
70
0
71
3
72
10
73
6
74
0
42
0.000000001
43
0.0000000001
44
0.0000000001
40
2
40
2
40
2
40
2
40
3
40
3
40
4
40
4
40
4
40
4
10
279.48889544731338
20
125.27782855142021
30
0
10
278.88138222265428
20
125.27782855142021
30
0
10
278.38889544758899
20
124.78534177635872
30
0
10
278.38889544758899
20
123.57031532703542
30
0
10
278.88138222265428
20
123.07782855197011
30
0
10
279.48889544731338
20
123.07782855197011
30
0
0
SPLINE
5
152
100
AcDbEntity
8
0
100
AcDbSpline
70
0
71
3
72
8
73
4
74
0
42
0.000000001
43
0.0000000001
44
0.0000000001
40
1
40
1
40
1
40
1
40
2
40
2
40
2
40
2
10
113.42122673414131
20
150.25277774974089
30
0
10
113.14409813652631
20
150.25277774974089
30
0
10
112.9194410199805
20
150.02812063319541
30
0
10
112.9194410199805
20
149.75099203558071
30
0
0
LINE
5
153
100
AcDbEntity
8
0
100
AcDbLine
10
113.42122673414131
20
150.25277774974089
30
0
11
126.46765530230731
21
150.25277774974089
31
0
0
SPLINE
5
154
100
AcDbEntity
8
0
100
AcDbSpline
70
0
71
3
72
8
73
4
74
0
42
0.000000001
43
0.0000000001
44
0.0000000001
40
7
40
7
40
7
40
7
40
8
40
8
40
8
40
8
10
126.96944101646778
20
149.75099203558071
30
0
10
126.96944101646778
20
150.02812063319541
30
0
10
126.74478389991782
20
150.25277774974089
30
0
10
126.46765530230731
20
150.25277774974089
30
0
0
LINE
5
155
100
AcDbEntity
8
0
100
AcDbLine
10
126.96944101646778
20
149.75099203558071
30
0
11
126.96944101646778
21
136.70456346741469
31
0
0
SPLINE
5
156
100
AcDbEntity
8
0
100
AcDbSpline
70
0
71
3
72
8
73
4
74
0
42
0.000000001
43
0.0000000001
44
0.0000000001
40
5
40
5
40
5
40
5
40
6
40
6
40
6
40
6
10
126.46765530230731
20
136.2027777532538
30
0
10
126.74478389991782
20
136.2027777532538
30
0
10
126.96944101646778
20
136.42743486980004
30
0
10
126.96944101646778
20
136.70456346741469
30
0
0
LINE
5
157
100
AcDbEntity
8
0
100
AcDbLine
10
126.46765530230731
20
136.2027777532538
30
0
11
113.42122673414131
21
136.2027777532538
31
0
0
SPLINE
5
158
100
AcDbEntity
8
0
100
AcDbSpline
70
0
71
3
72
8
73
4
74
0
42
0.000000001
43
0.0000000001
44
0.0000000001
40
3
40
3
40
3
40
3
40
4
40
4
40
4
40
4
10
112.9194410199805
20
136.70456346741469
30
0
10
112.9194410199805
20
136.42743486980004
30
0
10
113.14409813652631
20
136.2027777532538
30
0
10
113.42122673414131
20
136.2027777532538
30
0
0
LINE
5
159
100
AcDbEntity
8
0
100
AcDbLine
10
112.9194410199805
20
136.70456346741469
30
0
11
112.91944101998052
21
149.75099203558071
31
0
0
SPLINE
5
160
100
AcDbEntity
8
0
100
AcDbSpline
70
0
71
3
72
8
73
4
74
0
42
0.000000001
43
0.0000000001
44
0.0000000001
40
1
40
1
40
1
40
1
40
2
40
2
40
2
40
2
10
265.82122673414119
20
74.052777749740741
30
0
10
265.54409813652728
20
74.052777749740741
30
0
10
265.31944101998067
20
73.828120633194928
30
0
10
265.31944101998067
20
73.550992035580862
30
0
0
LINE
5
161
100
AcDbEntity
8
0
100
AcDbLine
10
265.82122673414119
20
74.052777749740741
30
0
11
278.86765530230753
21
74.052777749740741
31
0
0
SPLINE
5
162
100
AcDbEntity
8
0
100
AcDbSpline
70
0
71
3
72
8
73
4
74
0
42
0.000000001
43
0.0000000001
44
0.0000000001
40
7
40
7
40
7
40
7
40
8
40
8
40
8
40
8
10
279.36944101646804
20
73.550992035580862
30
0
10
279.36944101646804
20
73.828120633194928
30
0
10
279.14478389992098
20
74.052777749740741
30
0
10
278.86765530230753
20
74.052777749740741
30
0
0
LINE
5
163
100
AcDbEntity
8
0
100
AcDbLine
10
279.36944101646804
20
73.550992035580862
30
0
11
279.36944101646804
21
60.504563467415188
31
0
0
SPLINE
5
164
100
AcDbEntity
8
0
100
AcDbSpline
70
0
71
3
72
8
73
4
74
0
42
0.000000001
43
0.0000000001
44
0.0000000001
40
5
40
5
40
5
40
5
40
6
40
6
40
6
40
6
10
278.86765530230753
20
60.002777753254676
30
0
10
279.14478389992098
20
60.002777753254676
30
0
10
279.36944101646804
20
60.227434869800476
30
0
10
279.36944101646804
20
60.504563467415188
30
0
0
LINE
5
165
100
AcDbEntity
8
0
100
AcDbLine
10
278.86765530230753
20
60.002777753254676
30
0
11
265.82122673414119
21
60.002777753254676
31
0
0
SPLINE
5
166
100
AcDbEntity
8
0
100
AcDbSpline
70
0
71
3
72
8
73
4
74
0
42
0.000000001
43
0.0000000001
44
0.0000000001
40
3
40
3
40
3
40
3
40
4
40
4
40
4
40
4
10
265.31944101998067
20
60.504563467415188
30
0
10
265.31944101998067
20
60.227434869800476
30
0
10
265.54409813652728
20
60.002777753254676
30
0
10
265.82122673414119
20
60.002777753254676
30
0
0
LINE
5
167
100
AcDbEntity
8
0
100
AcDbLine
10
265.31944101998067
20
60.504563467415188
30
0
11
265.31944101998067
21
73.550992035580862
31
0
0
SPLINE
5
168
100
AcDbEntity
8
0
100
AcDbSpline
70
0
71
3
72
8
73
4
74
0
42
0.000000001
43
0.0000000001
44
0.0000000001
40
1
40
1
40
1
40
1
40
2
40
2
40
2
40
2
10
208.67122673414059
20
150.25277774974211
30
0
10
208.39409813652532
20
150.25277774974211
30
0
10
208.16944101998013
20
150.02812063319641
30
0
10
208.16944101998013
20
149.75099203558159
30
0
0
LINE
5
169
100
AcDbEntity
8
0
100
AcDbLine
10
208.67122673414059
20
150.25277774974211
30
0
11
221.71765530230761
21
150.25277774974211
31
0
0
SPLINE
5
170
100
AcDbEntity
8
0
100
AcDbSpline
70
0
71
3
72
8
73
4
74
0
42
0.000000001
43
0.0000000001
44
0.0000000001
40
7
40
7
40
7
40
7
40
8
40
8
40
8
40
8
10
222.21944101646812
20
149.75099203558159
30
0
10
222.21944101646812
20
150.02812063319641
30
0
10
221.99478389992299
20
150.25277774974211
30
0
10
221.71765530230761
20
150.25277774974211
30
0
0
LINE
5
171
100
AcDbEntity
8
0
100
AcDbLine
10
222.21944101646812
20
149.75099203558159
30
0
11
222.21944101646812
21
136.70456346741369
31
0
0
SPLINE
5
172
100
AcDbEntity
8
0
100
AcDbSpline
70
0
71
3
72
8
73
4
74
0
42
0.000000001
43
0.0000000001
44
0.0000000001
40
5
40
5
40
5
40
5
40
6
40
6
40
6
40
6
10
221.71765530230761
20
136.2027777532532
30
0
10
221.99478389992299
20
136.2027777532532
30
0
10
222.21944101646812
20
136.42743486979899
30
0
10
222.21944101646812
20
136.70456346741369
30
0
0
LINE
5
173
100
AcDbEntity
8
0
100
AcDbLine
10
221.71765530230761
20
136.2027777532532
30
0
11
208.67122673414059
21
136.2027777532532
31
0
0
SPLINE
5
174
100
AcDbEntity
8
0
100
AcDbSpline
70
0
71
3
72
8
73
4
74
0
42
0.000000001
43
0.0000000001
44
0.0000000001
40
3
40
3
40
3
40
3
40
4
40
4
40
4
40
4
10
208.16944101998013
20
136.70456346741369
30
0
10
208.16944101998013
20
136.42743486979899
30
0
10
208.39409813652532
20
136.2027777532532
30
0
10
208.67122673414059
20
136.2027777532532
30
0
0
LINE
5
175
100
AcDbEntity
8
0
100
AcDbLine
10
208.16944101998013
20
136.70456346741369
30
0
11
208.16944101998013
21
149.75099203558156
31
0
0
SPLINE
5
176
100
AcDbEntity
8
0
100
AcDbSpline
70
0
71
3
72
8
73
4
74
0
42
0.000000001
43
0.0000000001
44
0.0000000001
40
1
40
1
40
1
40
1
40
2
40
2
40
2
40
2
10
94.371226734140464
20
150.2527777497418
30
0
10
94.094098136525432
20
150.2527777497418
30
0
10
93.869441019980599
20
150.02812063319601
30
0
10
93.869441019980599
20
149.75099203558131
30
0
0
LINE
5
177
100
AcDbEntity
8
0
100
AcDbLine
10
94.371226734140464
20
150.2527777497418
30
0
11
107.4176553023074
21
150.2527777497418
31
0
0
SPLINE
5
178
100
AcDbEntity
8
0
100
AcDbSpline
70
0
71
3
72
8
73
4
74
0
42
0.000000001
43
0.0000000001
44
0.0000000001
40
7
40
7
40
7
40
7
40
8
40
8
40
8
40
8
10
107.91944101646791
20
149.75099203558131
30
0
10
107.91944101646791
20
150.02812063319601
30
0
10
107.6947838999189
20
150.2527777497418
30
0
10
107.4176553023074
20
150.2527777497418
30
0
0
LINE
5
179
100
AcDbEntity
8
0
100
AcDbLine
10
107.91944101646791
20
149.75099203558131
30
0
11
107.91944101646791
21
136.704563467414
31
0
0
SPLINE
5
180
100
AcDbEntity
8
0
100
AcDbSpline
70
0
71
3
72
8
73
4
74
0
42
0.000000001
43
0.0000000001
44
0.0000000001
40
5
40
5
40
5
40
5
40
6
40
6
40
6
40
6
10
107.4176553023074
20
136.20277775325351
30
0
10
107.6947838999189
20
136.20277775325351
30
0
10
107.91944101646791
20
136.4274348697993
30
0
10
107.91944101646791
20
136.704563467414
30
0
0
LINE
5
181
100
AcDbEntity
8
0
100
AcDbLine
10
107.4176553023074
20
136.20277775325351
30
0
11
94.371226734140464
21
136.20277775325351
31
0
0
SPLINE
5
182
100
AcDbEntity
8
0
100
AcDbSpline
70
0
71
3
72
8
73
4
74
0
42
0.000000001
43
0.0000000001
44
0.0000000001
40
3
40
3
40
3
40
3
40
4
40
4
40
4
40
4
10
93.869441019980599
20
136.704563467414
30
0
10
93.869441019980599
20
136.4274348697993
30
0
10
94.094098136525432
20
136.20277775325351
30
0
10
94.371226734140464
20
136.20277775325351
30
0
0
LINE
5
183
100
AcDbEntity
8
0
100
AcDbLine
10
93.869441019980599
20
136.704563467414
30
0
11
93.869441019980613
21
149.75099203558128
31
0
0
SPLINE
5
184
100
AcDbEntity
8
0
100
AcDbSpline
70
0
71
3
72
8
73
4
74
0
42
0.000000001
43
0.0000000001
44
0.0000000001
40
0
40
0
40
0
40
0
40
1
40
1
40
1
40
1
10
265.82122673414119
20
93.102777749740284
30
0
10
265.54409813652728
20
93.102777749740284
30
0
10
265.31944101998067
20
92.878120633195124
30
0
10
265.31944101998067
20
92.600992035580418
30
0
0
LINE
5
185
100
AcDbEntity
8
0
100
AcDbLine
10
265.82122673414119
20
93.102777749740284
30
0
11
278.86765530230753
21
93.102777749740284
31
0
0
SPLINE
5
186
100
AcDbEntity
8
0
100
AcDbSpline
70
0
71
3
72
8
73
4
74
0
42
0.000000001
43
0.0000000001
44
0.0000000001
40
2
40
2
40
2
40
2
40
3
40
3
40
3
40
3
10
279.36944101646804
20
92.600992035580418
30
0
10
279.36944101646804
20
92.878120633195124
30
0
10
279.14478389992098
20
93.102777749740284
30
0
10
278.86765530230753
20
93.102777749740284
30
0
0
LINE
5
187
100
AcDbEntity
8
0
100
AcDbLine
10
279.36944101646804
20
92.600992035580418
30
0
11
279.36944101646804
21
79.554563467414724
31
0
0
SPLINE
5
188
100
AcDbEntity
8
0
100
AcDbSpline
70
0
71
3
72
8
73
4
74
0
42
0.000000001
43
0.0000000001
44
0.0000000001
40
4
40
4
40
4
40
4
40
5
40
5
40
5
40
5
10
278.86765530230753
20
79.052777753254873
30
0
10
279.14478389992098
20
79.052777753254873
30
0
10
279.36944101646804
20
79.277434869800032
30
0
10
279.36944101646804
20
79.554563467414724
30
0
0
LINE
5
189
100
AcDbEntity
8
0
100
AcDbLine
10
278.86765530230753
20
79.052777753254873
30
0
11
265.82122673414119
21
79.052777753254873
31
0
0
SPLINE
5
190
100
AcDbEntity
8
0
100
AcDbSpline
70
0
71
3
72
8
73
4
74
0
42
0.000000001
43
0.0000000001
44
0.0000000001
40
6
40
6
40
6
40
6
40
7
40
7
40
7
40
7
10
265.31944101998067
20
79.554563467414724
30
0
10
265.31944101998067
20
79.277434869800032
30
0
10
265.54409813652728
20
79.052777753254873
30
0
10
265.82122673414119
20
79.052777753254873
30
0
0
LINE
5
191
100
AcDbEntity
8
0
100
AcDbLine
10
265.31944101998067
20
79.554563467414724
30
0
11
265.31944101998067
21
92.600992035580404
31
0
0
SPLINE
5
192
100
AcDbEntity
8
0
100
AcDbSpline
70
0
71
3
72
8
73
4
74
0
42
0.000000001
43
0.0000000001
44
0.0000000001
40
1
40
1
40
1
40
1
40
2
40
2
40
2
40
2
10
69.819441016467891
20
149.75099203558159
30
0
10
69.819441016467891
20
150.0281206331957
30
0
10
69.594783899918866
20
150.25277774974151
30
0
10
69.317655302308339
20
150.25277774974151
30
0
0
LINE
5
193
100
AcDbEntity
8
0
100
AcDbLine
10
69.819441016467891
20
149.75099203558159
30
0
11
69.819441016467891
21
136.704563467414
31
0
0
SPLINE
5
194
100
AcDbEntity
8
0
100
AcDbSpline
70
0
71
3
72
8
73
4
74
0
42
0.000000001
43
0.0000000001
44
0.0000000001
40
7
40
7
40
7
40
7
40
8
40
8
40
8
40
8
10
69.317655302308339
20
136.20277775325351
30
0
10
69.594783899918866
20
136.20277775325351
30
0
10
69.819441016467891
20
136.42743486979961
30
0
10
69.819441016467891
20
136.704563467414
30
0
0
LINE
5
195
100
AcDbEntity
8
0
100
AcDbLine
10
69.317655302308339
20
136.20277775325351
30
0
11
56.27122673414074
21
136.20277775325351
31
0
0
SPLINE
5
196
100
AcDbEntity
8
0
100
AcDbSpline
70
0
71
3
72
8
73
4
74
0
42
0.000000001
43
0.0000000001
44
0.0000000001
40
5
40
5
40
5
40
5
40
6
40
6
40
6
40
6
10
55.769441019980221
20
136.704563467414
30
0
10
55.769441019980221
20
136.42743486979961
30
0
10
55.994098136526347
20
136.20277775325351
30
0
10
56.27122673414074
20
136.20277775325351
30
0
0
LINE
5
197
100
AcDbEntity
8
0
100
AcDbLine
10
55.769441019980221
20
136.704563467414
30
0
11
55.769441019980221
21
149.75099203558159
31
0
0
SPLINE
5
198
100
AcDbEntity
8
0
100
AcDbSpline
70
0
71
3
72
8
73
4
74
0
42
0.000000001
43
0.0000000001
44
0.0000000001
40
3
40
3
40
3
40
3
40
4
40
4
40
4
40
4
10
56.27122673414074
20
150.25277774974151
30
0
10
55.994098136526347
20
150.25277774974151
30
0
10
55.769441019980221
20
150.0281206331957
30
0
10
55.769441019980221
20
149.75099203558159
30
0
0
LINE
5
199
100
AcDbEntity
8
0
100
AcDbLine
10
56.27122673414074
20
150.25277774974151
30
0
11
69.317655302308339
21
150.25277774974148
31
0
0
SPLINE
5
200
100
AcDbEntity
8
0
100
AcDbSpline
70
0
71
3
72
8
73
4
74
0
42
0.000000001
43
0.0000000001
44
0.0000000001
40
1
40
1
40
1
40
1
40
2
40
2
40
2
40
2
10
199.14622673414124
20
131.20277774974136
30
0
10
198.8690981365265
20
131.20277774974136
30
0
10
198.64444101998004
20
130.97812063319549
30
0
10
198.64444101998004
20
130.7009920355805
30
0
0
LINE
5
201
100
AcDbEntity
8
0
100
AcDbLine
10
199.14622673414124
20
131.20277774974136
30
0
11
212.19265530230825
21
131.20277774974136
31
0
0
SPLINE
5
202
100
AcDbEntity
8
0
100
AcDbSpline
70
0
71
3
72
8
73
4
74
0
42
0.000000001
43
0.0000000001
44
0.0000000001
40
7
40
7
40
7
40
7
40
8
40
8
40
8
40
8
10
212.69444101646801
20
130.7009920355805
30
0
10
212.69444101646801
20
130.97812063319549
30
0
10
212.46978389991773
20
131.20277774974136
30
0
10
212.19265530230825
20
131.20277774974136
30
0
0
LINE
5
203
100
AcDbEntity
8
0
100
AcDbLine
10
212.69444101646801
20
130.7009920355805
30
0
11
212.69444101646801
21
117.65456346741513
31
0
0
SPLINE
5
204
100
AcDbEntity
8
0
100
AcDbSpline
70
0
71
3
72
8
73
4
74
0
42
0.000000001
43
0.0000000001
44
0.0000000001
40
5
40
5
40
5
40
5
40
6
40
6
40
6
40
6
10
212.19265530230825
20
117.15277775325461
30
0
10
212.46978389991773
20
117.15277775325461
30
0
10
212.69444101646801
20
117.3774348697998
30
0
10
212.69444101646801
20
117.65456346741513
30
0
0
LINE
5
205
100
AcDbEntity
8
0
100
AcDbLine
10
212.19265530230825
20
117.15277775325461
30
0
11
199.14622673414124
21
117.15277775325461
31
0
0
SPLINE
5
206
100
AcDbEntity
8
0
100
AcDbSpline
70
0
71
3
72
8
73
4
74
0
42
0.000000001
43
0.0000000001
44
0.0000000001
40
3
40
3
40
3
40
3
40
4
40
4
40
4
40
4
10
198.64444101998004
20
117.65456346741513
30
0
10
198.64444101998004
20
117.3774348697998
30
0
10
198.8690981365265
20
117.15277775325461
30
0
10
199.14622673414124
20
117.15277775325461
30
0
0
LINE
5
207
100
AcDbEntity
8
0
100
AcDbLine
10
198.64444101998004
20
117.65456346741513
30
0
11
198.64444101998004
21
130.7009920355805
31
0
0
SPLINE
5
208
100
AcDbEntity
8
0
100
AcDbSpline
70
0
71
3
72
8
73
4
74
0
42
0.000000001
43
0.0000000001
44
0.0000000001
40
1
40
1
40
1
40
1
40
2
40
2
40
2
40
2
10
146.75872673413943
20
112.1527777497414
30
0
10
146.4815981365247
20
112.1527777497414
30
0
10
146.25694101997891
20
111.92812063319563
30
0
10
146.25694101997891
20
111.65099203558091
30
0
0
LINE
5
209
100
AcDbEntity
8
0
100
AcDbLine
10
146.75872673413943
20
112.1527777497414
30
0
11
159.80515530230599
21
112.1527777497414
31
0
0
SPLINE
5
210
100
AcDbEntity
8
0
100
AcDbSpline
70
0
71
3
72
8
73
4
74
0
42
0.000000001
43
0.0000000001
44
0.0000000001
40
7
40
7
40
7
40
7
40
8
40
8
40
8
40
8
10
160.30694101646651
20
111.65099203558091
30
0
10
160.30694101646651
20
111.92812063319563
30
0
10
160.08228389992141
20
112.1527777497414
30
0
10
159.80515530230599
20
112.1527777497414
30
0
0
LINE
5
211
100
AcDbEntity
8
0
100
AcDbLine
10
160.30694101646651
20
111.65099203558091
30
0
11
160.30694101646651
21
98.604563467414295
31
0
0
SPLINE
5
212
100
AcDbEntity
8
0
100
AcDbSpline
70
0
71
3
72
8
73
4
74
0
42
0.000000001
43
0.0000000001
44
0.0000000001
40
5
40
5
40
5
40
5
40
6
40
6
40
6
40
6
10
159.80515530230599
20
98.102777753253761
30
0
10
160.08228389992141
20
98.102777753253761
30
0
10
160.30694101646651
20
98.327434869803426
30
0
10
160.30694101646651
20
98.604563467414295
30
0
0
LINE
5
213
100
AcDbEntity
8
0
100
AcDbLine
10
159.80515530230599
20
98.102777753253761
30
0
11
146.75872673413943
21
98.102777753253761
31
0
0
SPLINE
5
214
100
AcDbEntity
8
0
100
AcDbSpline
70
0
71
3
72
8
73
4
74
0
42
0.000000001
43
0.0000000001
44
0.0000000001
40
3
40
3
40
3
40
3
40
4
40
4
40
4
40
4
10
146.25694101997891
20
98.604563467414295
30
0
10
146.25694101997891
20
98.327434869803426
30
0
10
146.4815981365247
20
98.102777753253761
30
0
10
146.75872673413943
20
98.102777753253761
30
0
0
LINE
5
215
100
AcDbEntity
8
0
100
AcDbLine
10
146.25694101997891
20
98.604563467414295
30
0
11
146.25694101997894
21
111.65099203558088
31
0
0
SPLINE
5
216
100
AcDbEntity
8
0
100
AcDbSpline
70
0
71
3
72
8
73
4
74
0
42
0.000000001
43
0.0000000001
44
0.0000000001
40
1
40
1
40
1
40
1
40
2
40
2
40
2
40
2
10
103.8962267341406
20
131.20277774974164
30
0
10
103.61909813652623
20
131.20277774974164
30
0
10
103.3944410199807
20
130.97812063319611
30
0
10
103.3944410199807
20
130.70099203558112
30
0
0
LINE
5
217
100
AcDbEntity
8
0
100
AcDbLine
10
103.8962267341406
20
131.20277774974164
30
0
11
116.94265530230822
21
131.20277774974164
31
0
0
SPLINE
5
218
100
AcDbEntity
8
0
100
AcDbSpline
70
0
71
3
72
8
73
4
74
0
42
0.000000001
43
0.0000000001
44
0.0000000001
40
7
40
7
40
7
40
7
40
8
40
8
40
8
40
8
10
117.44444101646801
20
130.70099203558112
30
0
10
117.44444101646801
20
130.97812063319611
30
0
10
117.21978389991901
20
131.20277774974164
30
0
10
116.94265530230822
20
131.20277774974164
30
0
0
LINE
5
219
100
AcDbEntity
8
0
100
AcDbLine
10
117.44444101646801
20
130.70099203558112
30
0
11
117.44444101646801
21
117.65456346741411
31
0
0
SPLINE
5
220
100
AcDbEntity
8
0
100
AcDbSpline
70
0
71
3
72
8
73
4
74
0
42
0.000000001
43
0.0000000001
44
0.0000000001
40
5
40
5
40
5
40
5
40
6
40
6
40
6
40
6
10
116.94265530230821
20
117.15277775325362
30
0
10
117.21978389991901
20
117.15277775325362
30
0
10
117.44444101646801
20
117.37743486979912
30
0
10
117.44444101646801
20
117.65456346741411
30
0
0
LINE
5
221
100
AcDbEntity
8
0
100
AcDbLine
10
116.94265530230821
20
117.15277775325362
30
0
11
103.8962267341406
21
117.15277775325362
31
0
0
SPLINE
5
222
100
AcDbEntity
8
0
100
AcDbSpline
70
0
71
3
72
8
73
4
74
0
42
0.000000001
43
0.0000000001
44
0.0000000001
40
3
40
3
40
3
40
3
40
4
40
4
40
4
40
4
10
103.3944410199807
20
117.65456346741411
30
0
10
103.3944410199807
20
117.37743486979912
30
0
10
103.61909813652623
20
117.15277775325362
30
0
10
103.8962267341406
20
117.15277775325362
30
0
0
LINE
5
223
100
AcDbEntity
8
0
100
AcDbLine
10
103.3944410199807
20
117.65456346741411
30
0
11
103.39444101998072
21
130.70099203558112
31
0
0
SPLINE
5
224
100
AcDbEntity
8
0
100
AcDbSpline
70
0
71
3
72
8
73
4
74
0
42
0.000000001
43
0.0000000001
44
0.0000000001
40
1
40
1
40
1
40
1
40
2
40
2
40
2
40
2
10
237.24622673414032
20
131.20277774974136
30
0
10
236.96909813652692
20
131.20277774974136
30
0
10
236.7444410199804
20
130.9781206331958
30
0
10
236.7444410199804
20
130.70099203558081
30
0
0
LINE
5
225
100
AcDbEntity
8
0
100
AcDbLine
10
237.24622673414032
20
131.20277774974136
30
0
11
250.29265530230859
21
131.20277774974136
31
0
0
SPLINE
5
226
100
AcDbEntity
8
0
100
AcDbSpline
70
0
71
3
72
8
73
4
74
0
42
0.000000001
43
0.0000000001
44
0.0000000001
40
7
40
7
40
7
40
7
40
8
40
8
40
8
40
8
10
250.79444101646843
20
130.70099203558081
30
0
10
250.79444101646843
20
130.9781206331958
30
0
10
250.56978389992202
20
131.20277774974136
30
0
10
250.29265530230859
20
131.20277774974136
30
0
0
LINE
5
227
100
AcDbEntity
8
0
100
AcDbLine
10
250.79444101646843
20
130.70099203558081
30
0
11
250.79444101646843
21
117.65456346741452
31
0
0
SPLINE
5
228
100
AcDbEntity
8
0
100
AcDbSpline
70
0
71
3
72
8
73
4
74
0
42
0.000000001
43
0.0000000001
44
0.0000000001
40
5
40
5
40
5
40
5
40
6
40
6
40
6
40
6
10
250.29265530230859
20
117.15277775325401
30
0
10
250.56978389992202
20
117.15277775325401
30
0
10
250.79444101646843
20
117.3774348697994
30
0
10
250.79444101646843
20
117.65456346741452
30
0
0
LINE
5
229
100
AcDbEntity
8
0
100
AcDbLine
10
250.29265530230859
20
117.15277775325401
30
0
11
237.24622673414032
21
117.15277775325401
31
0
0
SPLINE
5
230
100
AcDbEntity
8
0
100
AcDbSpline
70
0
71
3
72
8
73
4
74
0
42
0.000000001
43
0.0000000001
44
0.0000000001
40
3
40
3
40
3
40
3
40
4
40
4
40
4
40
4
10
236.7444410199804
20
117.65456346741452
30
0
10
236.7444410199804
20
117.3774348697994
30
0
10
236.96909813652692
20
117.15277775325401
30
0
10
237.24622673414032
20
117.15277775325401
30
0
0
LINE
5
231
100
AcDbEntity
8
0
100
AcDbLine
10
236.7444410199804
20
117.65456346741452
30
0
11
236.7444410199804
21
130.70099203558078
31
0
0
SPLINE
5
232
100
AcDbEntity
8
0
100
AcDbSpline
70
0
71
3
72
8
73
4
74
0
42
0.000000001
43
0.0000000001
44
0.0000000001
40
1
40
1
40
1
40
1
40
2
40
2
40
2
40
2
10
89.608726734139154
20
112.15277774974112
30
0
10
89.331598136524434
20
112.15277774974112
30
0
10
89.10694101997862
20
111.92812063319531
30
0
10
89.10694101997862
20
111.65099203558091
30
0
0
LINE
5
233
100
AcDbEntity
8
0
100
AcDbLine
10
89.608726734139154
20
112.15277774974112
30
0
11
102.6551553023055
21
112.15277774974112
31
0
0
SPLINE
5
234
100
AcDbEntity
8
0
100
AcDbSpline
70
0
71
3
72
8
73
4
74
0
42
0.000000001
43
0.0000000001
44
0.0000000001
40
7
40
7
40
7
40
7
40
8
40
8
40
8
40
8
10
103.15694101646631
20
111.65099203558091
30
0
10
103.15694101646631
20
111.92812063319531
30
0
10
102.93228389992021
20
112.15277774974112
30
0
10
102.6551553023055
20
112.15277774974112
30
0
0
LINE
5
235
100
AcDbEntity
8
0
100
AcDbLine
10
103.15694101646631
20
111.65099203558091
30
0
11
103.15694101646631
21
98.604563467414295
31
0
0
SPLINE
5
236
100
AcDbEntity
8
0
100
AcDbSpline
70
0
71
3
72
8
73
4
74
0
42
0.000000001
43
0.0000000001
44
0.0000000001
40
5
40
5
40
5
40
5
40
6
40
6
40
6
40
6
10
102.65515530230552
20
98.102777753253761
30
0
10
102.93228389992021
20
98.102777753253761
30
0
10
103.15694101646631
20
98.327434869803426
30
0
10
103.15694101646631
20
98.604563467414295
30
0
0
LINE
5
237
100
AcDbEntity
8
0
100
AcDbLine
10
102.65515530230552
20
98.102777753253761
30
0
11
89.608726734139154
21
98.102777753253761
31
0
0
SPLINE
5
238
100
AcDbEntity
8
0
100
AcDbSpline
70
0
71
3
72
8
73
4
74
0
42
0.000000001
43
0.0000000001
44
0.0000000001
40
3
40
3
40
3
40
3
40
4
40
4
40
4
40
4
10
89.10694101997862
20
98.604563467414295
30
0
10
89.10694101997862
20
98.327434869803426
30
0
10
89.331598136524434
20
98.102777753253761
30
0
10
89.608726734139154
20
98.102777753253761
30
0
0
LINE
5
239
100
AcDbEntity
8
0
100
AcDbLine
10
89.10694101997862
20
98.604563467414295
30
0
11
89.106941019978635
21
111.65099203558088
31
0
0
SPLINE
5
240
100
AcDbEntity
8
0
100
AcDbSpline
70
0
71
3
72
8
73
4
74
0
42
0.000000001
43
0.0000000001
44
0.0000000001
40
1
40
1
40
1
40
1
40
2
40
2
40
2
40
2
10
222.9587267341424
20
112.15277774974082
30
0
10
222.68159813652829
20
112.15277774974082
30
0
10
222.45694101997799
20
111.92812063319531
30
0
10
222.45694101997799
20
111.6509920355806
30
0
0
LINE
5
241
100
AcDbEntity
8
0
100
AcDbLine
10
222.9587267341424
20
112.15277774974082
30
0
11
236.00515530230939
21
112.15277774974082
31
0
0
SPLINE
5
242
100
AcDbEntity
8
0
100
AcDbSpline
70
0
71
3
72
8
73
4
74
0
42
0.000000001
43
0.0000000001
44
0.0000000001
40
7
40
7
40
7
40
7
40
8
40
8
40
8
40
8
10
236.50694101646599
20
111.6509920355806
30
0
10
236.50694101646599
20
111.92812063319531
30
0
10
236.28228389991963
20
112.15277774974082
30
0
10
236.00515530230939
20
112.15277774974082
30
0
0
LINE
5
243
100
AcDbEntity
8
0
100
AcDbLine
10
236.50694101646599
20
111.6509920355806
30
0
11
236.50694101646599
21
98.604563467414295
31
0
0
SPLINE
5
244
100
AcDbEntity
8
0
100
AcDbSpline
70
0
71
3
72
8
73
4
74
0
42
0.000000001
43
0.0000000001
44
0.0000000001
40
5
40
5
40
5
40
5
40
6
40
6
40
6
40
6
10
236.00515530230624
20
98.102777753253761
30
0
10
236.28228389991963
20
98.102777753253761
30
0
10
236.50694101646599
20
98.327434869803426
30
0
10
236.50694101646599
20
98.604563467414295
30
0
0
LINE
5
245
100
AcDbEntity
8
0
100
AcDbLine
10
236.00515530230624
20
98.102777753253761
30
0
11
222.9587267341424
21
98.102777753253761
31
0
0
SPLINE
5
246
100
AcDbEntity
8
0
100
AcDbSpline
70
0
71
3
72
8
73
4
74
0
42
0.000000001
43
0.0000000001
44
0.0000000001
40
3
40
3
40
3
40
3
40
4
40
4
40
4
40
4
10
222.45694101997799
20
98.604563467414295
30
0
10
222.45694101997799
20
98.327434869803426
30
0
10
222.68159813652829
20
98.102777753253761
30
0
10
222.9587267341424
20
98.102777753253761
30
0
0
LINE
5
247
100
AcDbEntity
8
0
100
AcDbLine
10
222.45694101997799
20
98.604563467414295
30
0
11
222.45694101997799
21
111.65099203558059
31
0
0
SPLINE
5
248
100
AcDbEntity
8
0
100
AcDbSpline
70
0
71
3
72
8
73
4
74
0
42
0.000000001
43
0.0000000001
44
0.0000000001
40
1
40
1
40
1
40
1
40
2
40
2
40
2
40
2
10
17.406941018222334
20
73.527777751497297
30
0
10
17.406941018222334
20
73.803920126414368
30
0
10
17.183083393138428
20
74.027777751497638
30
0
10
16.906941018222629
20
74.027777751497638
30
0
0
LINE
5
249
100
AcDbEntity
8
0
100
AcDbLine
10
17.406941018222334
20
73.527777751497297
30
0
11
17.406941018222323
21
60.527777751497467
31
0
0
SPLINE
5
250
100
AcDbEntity
8
0
100
AcDbSpline
70
0
71
3
72
8
73
4
74
0
42
0.000000001
43
0.0000000001
44
0.0000000001
40
7
40
7
40
7
40
7
40
8
40
8
40
8
40
8
10
16.906941018222629
20
60.027777751497773
30
0
10
17.183083393138428
20
60.027777751497773
30
0
10
17.406941018222334
20
60.251635376581667
30
0
10
17.406941018222323
20
60.527777751497467
30
0
0
LINE
5
251
100
AcDbEntity
8
0
100
AcDbLine
10
16.906941018222629
20
60.027777751497773
30
0
11
1.5256910182219863
21
60.027777751497773
31
0
0
SPLINE
5
252
100
AcDbEntity
8
0
100
AcDbSpline
70
0
71
3
72
8
73
4
74
0
42
0.000000001
43
0.0000000001
44
0.0000000001
40
5
40
5
40
5
40
5
40
6
40
6
40
6
40
6
10
1.0256910182216481
20
60.527777751497467
30
0
10
1.0256910182216481
20
60.251635376581667
30
0
10
1.249548643308755
20
60.027777751497773
30
0
10
1.5256910182219872
20
60.027777751497773
30
0
0
LINE
5
253
100
AcDbEntity
8
0
100
AcDbLine
10
1.0256910182216481
20
60.527777751497467
30
0
11
1.0256910182216481
21
73.527777751497297
31
0
0
SPLINE
5
254
100
AcDbEntity
8
0
100
AcDbSpline
70
0
71
3
72
8
73
4
74
0
42
0.000000001
43
0.0000000001
44
0.0000000001
40
3
40
3
40
3
40
3
40
4
40
4
40
4
40
4
10
1.5256910182219872
20
74.027777751497638
30
0
10
1.249548643308755
20
74.027777751497638
30
0
10
1.0256910182216481
20
73.803920126414368
30
0
10
1.0256910182216481
20
73.527777751497297
30
0
0
LINE
5
255
100
AcDbEntity
8
0
100
AcDbLine
10
1.5256910182219872
20
74.027777751497638
30
0
11
16.906941018222629
21
74.027777751497638
31
0
0
SPLINE
5
256
100
AcDbEntity
8
0
100
AcDbSpline
70
0
71
3
72
8
73
4
74
0
42
0.000000001
43
0.0000000001
44
0.0000000001
40
1
40
1
40
1
40
1
40
2
40
2
40
2
40
2
10
156.28372673413921
20
93.102777749740937
30
0
10
156.00659813652439
20
93.102777749740937
30
0
10
155.78194101997869
20
92.878120633195124
30
0
10
155.78194101997869
20
92.600992035581058
30
0
0
LINE
5
257
100
AcDbEntity
8
0
100
AcDbLine
10
156.28372673413921
20
93.102777749740937
30
0
11
169.33015530230614
21
93.102777749740937
31
0
0
SPLINE
5
258
100
AcDbEntity
8
0
100
AcDbSpline
70
0
71
3
72
8
73
4
74
0
42
0.000000001
43
0.0000000001
44
0.0000000001
40
7
40
7
40
7
40
7
40
8
40
8
40
8
40
8
10
169.831941016466
20
92.600992035581058
30
0
10
169.831941016466
20
92.878120633195124
30
0
10
169.60728389991965
20
93.102777749740937
30
0
10
169.33015530230614
20
93.102777749740937
30
0
0
LINE
5
259
100
AcDbEntity
8
0
100
AcDbLine
10
169.831941016466
20
92.600992035581058
30
0
11
169.831941016466
21
79.554563467414084
31
0
0
SPLINE
5
260
100
AcDbEntity
8
0
100
AcDbSpline
70
0
71
3
72
8
73
4
74
0
42
0.000000001
43
0.0000000001
44
0.0000000001
40
5
40
5
40
5
40
5
40
6
40
6
40
6
40
6
10
169.33015530230614
20
79.052777753254219
30
0
10
169.60728389991965
20
79.052777753254219
30
0
10
169.831941016466
20
79.277434869800032
30
0
10
169.831941016466
20
79.554563467414084
30
0
0
LINE
5
261
100
AcDbEntity
8
0
100
AcDbLine
10
169.33015530230614
20
79.052777753254219
30
0
11
156.28372673413921
21
79.052777753254219
31
0
0
SPLINE
5
262
100
AcDbEntity
8
0
100
AcDbSpline
70
0
71
3
72
8
73
4
74
0
42
0.000000001
43
0.0000000001
44
0.0000000001
40
3
40
3
40
3
40
3
40
4
40
4
40
4
40
4
10
155.78194101997869
20
79.554563467414084
30
0
10
155.78194101997869
20
79.277434869800032
30
0
10
156.00659813652439
20
79.052777753254219
30
0
10
156.28372673413921
20
79.052777753254219
30
0
0
LINE
5
263
100
AcDbEntity
8
0
100
AcDbLine
10
155.78194101997869
20
79.554563467414084
30
0
11
155.78194101997872
21
92.600992035581044
31
0
0
SPLINE
5
264
100
AcDbEntity
8
0
100
AcDbSpline
70
0
71
3
72
8
73
4
74
0
42
0.000000001
43
0.0000000001
44
0.0000000001
40
1
40
1
40
1
40
1
40
2
40
2
40
2
40
2
10
194.38372673413951
20
93.102777749740937
30
0
10
194.10659813652427
20
93.102777749740937
30
0
10
193.881941019979
20
92.878120633195124
30
0
10
193.881941019979
20
92.600992035581058
30
0
0
LINE
5
265
100
AcDbEntity
8
0
100
AcDbLine
10
194.38372673413951
20
93.102777749740937
30
0
11
207.43015530230593
21
93.102777749740937
31
0
0
SPLINE
5
266
100
AcDbEntity
8
0
100
AcDbSpline
70
0
71
3
72
8
73
4
74
0
42
0.000000001
43
0.0000000001
44
0.0000000001
40
7
40
7
40
7
40
7
40
8
40
8
40
8
40
8
10
207.9319410164664
20
92.600992035581058
30
0
10
207.9319410164664
20
92.878120633195124
30
0
10
207.7072838999199
20
93.102777749740937
30
0
10
207.43015530230593
20
93.102777749740937
30
0
0
LINE
5
267
100
AcDbEntity
8
0
100
AcDbLine
10
207.9319410164664
20
92.600992035581058
30
0
11
207.9319410164664
21
79.554563467414084
31
0
0
SPLINE
5
268
100
AcDbEntity
8
0
100
AcDbSpline
70
0
71
3
72
8
73
4
74
0
42
0.000000001
43
0.0000000001
44
0.0000000001
40
5
40
5
40
5
40
5
40
6
40
6
40
6
40
6
10
207.43015530230593
20
79.052777753254219
30
0
10
207.7072838999199
20
79.052777753254219
30
0
10
207.9319410164664
20
79.277434869800032
30
0
10
207.9319410164664
20
79.554563467414084
30
0
0
LINE
5
269
100
AcDbEntity
8
0
100
AcDbLine
10
207.43015530230593
20
79.052777753254219
30
0
11
194.38372673413951
21
79.052777753254219
31
0
0
SPLINE
5
270
100
AcDbEntity
8
0
100
AcDbSpline
70
0
71
3
72
8
73
4
74
0
42
0.000000001
43
0.0000000001
44
0.0000000001
40
3
40
3
40
3
40
3
40
4
40
4
40
4
40
4
10
193.881941019979
20
79.554563467414084
30
0
10
193.881941019979
20
79.277434869800032
30
0
10
194.10659813652427
20
79.052777753254219
30
0
10
194.38372673413951
20
79.052777753254219
30
0
0
LINE
5
271
100
AcDbEntity
8
0
100
AcDbLine
10
193.881941019979
20
79.554563467414084
30
0
11
193.881941019979
21
92.600992035581044
31
0
0
SPLINE
5
272
100
AcDbEntity
8
0
100
AcDbSpline
70
0
71
3
72
8
73
4
74
0
42
0.000000001
43
0.0000000001
44
0.0000000001
40
1
40
1
40
1
40
1
40
2
40
2
40
2
40
2
10
141.25694101646673
20
111.65099203558091
30
0
10
141.25694101646673
20
111.92812063319531
30
0
10
141.03228389992049
20
112.15277774974112
30
0
10
140.75515530230581
20
112.15277774974112
30
0
0
LINE
5
273
100
AcDbEntity
8
0
100
AcDbLine
10
141.25694101646673
20
111.65099203558091
30
0
11
141.25694101646673
21
98.604563467414295
31
0
0
SPLINE
5
274
100
AcDbEntity
8
0
100
AcDbSpline
70
0
71
3
72
8
73
4
74
0
42
0.000000001
43
0.0000000001
44
0.0000000001
40
7
40
7
40
7
40
7
40
8
40
8
40
8
40
8
10
140.75515530230581
20
98.102777753253761
30
0
10
141.03228389992049
20
98.102777753253761
30
0
10
141.25694101646673
20
98.327434869803426
30
0
10
141.25694101646673
20
98.604563467414295
30
0
0
LINE
5
275
100
AcDbEntity
8
0
100
AcDbLine
10
140.75515530230581
20
98.102777753253761
30
0
11
127.70872673413949
21
98.102777753253761
31
0
0
SPLINE
5
276
100
AcDbEntity
8
0
100
AcDbSpline
70
0
71
3
72
8
73
4
74
0
42
0.000000001
43
0.0000000001
44
0.0000000001
40
5
40
5
40
5
40
5
40
6
40
6
40
6
40
6
10
127.20694101997901
20
98.604563467414295
30
0
10
127.20694101997901
20
98.327434869803426
30
0
10
127.43159813652481
20
98.102777753253761
30
0
10
127.70872673413949
20
98.102777753253761
30
0
0
LINE
5
277
100
AcDbEntity
8
0
100
AcDbLine
10
127.20694101997901
20
98.604563467414295
30
0
11
127.20694101997901
21
111.65099203558091
31
0
0
SPLINE
5
278
100
AcDbEntity
8
0
100
AcDbSpline
70
0
71
3
72
8
73
4
74
0
42
0.000000001
43
0.0000000001
44
0.0000000001
40
3
40
3
40
3
40
3
40
4
40
4
40
4
40
4
10
127.70872673413949
20
112.15277774974112
30
0
10
127.43159813652481
20
112.15277774974112
30
0
10
127.20694101997901
20
111.92812063319531
30
0
10
127.20694101997901
20
111.65099203558091
30
0
0
LINE
5
279
100
AcDbEntity
8
0
100
AcDbLine
10
127.70872673413949
20
112.15277774974112
30
0
11
140.75515530230581
21
112.15277774974111
31
0
0
SPLINE
5
280
100
AcDbEntity
8
0
100
AcDbSpline
70
0
71
3
72
8
73
4
74
0
42
0.000000001
43
0.0000000001
44
0.0000000001
40
0
40
0
40
0
40
0
40
1
40
1
40
1
40
1
10
122.9462267341375
20
131.20277774974201
30
0
10
122.66909813652602
20
131.20277774974201
30
0
10
122.44444101998062
20
130.9781206331958
30
0
10
122.44444101998062
20
130.70099203558112
30
0
0
LINE
5
281
100
AcDbEntity
8
0
100
AcDbLine
10
122.9462267341375
20
131.20277774974201
30
0
11
135.9926553023077
21
131.20277774974201
31
0
0
SPLINE
5
282
100
AcDbEntity
8
0
100
AcDbSpline
70
0
71
3
72
8
73
4
74
0
42
0.000000001
43
0.0000000001
44
0.0000000001
40
2
40
2
40
2
40
2
40
3
40
3
40
3
40
3
10
136.4944410164679
20
130.70099203558112
30
0
10
136.4944410164679
20
130.9781206331958
30
0
10
136.26978389991919
20
131.20277774974201
30
0
10
135.9926553023077
20
131.20277774974201
30
0
0
LINE
5
283
100
AcDbEntity
8
0
100
AcDbLine
10
136.4944410164679
20
130.70099203558112
30
0
11
136.4944410164679
21
117.65456346741411
31
0
0
SPLINE
5
284
100
AcDbEntity
8
0
100
AcDbSpline
70
0
71
3
72
8
73
4
74
0
42
0.000000001
43
0.0000000001
44
0.0000000001
40
4
40
4
40
4
40
4
40
5
40
5
40
5
40
5
10
135.9926553023077
20
117.15277775325401
30
0
10
136.26978389991919
20
117.15277775325401
30
0
10
136.4944410164679
20
117.3774348697994
30
0
10
136.4944410164679
20
117.65456346741411
30
0
0
LINE
5
285
100
AcDbEntity
8
0
100
AcDbLine
10
135.9926553023077
20
117.15277775325401
30
0
11
122.9462267341375
21
117.15277775325401
31
0
0
SPLINE
5
286
100
AcDbEntity
8
0
100
AcDbSpline
70
0
71
3
72
8
73
4
74
0
42
0.000000001
43
0.0000000001
44
0.0000000001
40
6
40
6
40
6
40
6
40
7
40
7
40
7
40
7
10
122.44444101998062
20
117.65456346741411
30
0
10
122.44444101998062
20
117.3774348697994
30
0
10
122.66909813652602
20
117.15277775325401
30
0
10
122.9462267341375
20
117.15277775325401
30
0
0
LINE
5
287
100
AcDbEntity
8
0
100
AcDbLine
10
122.44444101998062
20
117.65456346741411
30
0
11
122.44444101998063
21
130.70099203558112
31
0
0
SPLINE
5
288
100
AcDbEntity
8
0
100
AcDbSpline
70
0
71
3
72
8
73
4
74
0
42
0.000000001
43
0.0000000001
44
0.0000000001
40
1
40
1
40
1
40
1
40
2
40
2
40
2
40
2
10
260.31944101646792
20
73.550992035581515
30
0
10
260.31944101646792
20
73.828120633195567
30
0
10
260.09478389992142
20
74.052777749741381
30
0
10
259.81765530230803
20
74.052777749741381
30
0
0
LINE
5
289
100
AcDbEntity
8
0
100
AcDbLine
10
260.31944101646792
20
73.550992035581515
30
0
11
260.31944101646792
21
60.504563467414542
31
0
0
SPLINE
5
290
100
AcDbEntity
8
0
100
AcDbSpline
70
0
71
3
72
8
73
4
74
0
42
0.000000001
43
0.0000000001
44
0.0000000001
40
7
40
7
40
7
40
7
40
8
40
8
40
8
40
8
10
259.81765530230803
20
60.002777753254023
30
0
10
260.09478389992142
20
60.002777753254023
30
0
10
260.31944101646792
20
60.227434869799836
30
0
10
260.31944101646792
20
60.504563467414542
30
0
0
LINE
5
291
100
AcDbEntity
8
0
100
AcDbLine
10
259.81765530230803
20
60.002777753254023
30
0
11
246.77122673414104
21
60.002777753254023
31
0
0
SPLINE
5
292
100
AcDbEntity
8
0
100
AcDbSpline
70
0
71
3
72
8
73
4
74
0
42
0.000000001
43
0.0000000001
44
0.0000000001
40
5
40
5
40
5
40
5
40
6
40
6
40
6
40
6
10
246.26944101997992
20
60.504563467414549
30
0
10
246.26944101997992
20
60.227434869799836
30
0
10
246.4940981365263
20
60.002777753254023
30
0
10
246.77122673414104
20
60.002777753254023
30
0
0
LINE
5
293
100
AcDbEntity
8
0
100
AcDbLine
10
246.26944101997992
20
60.504563467414549
30
0
11
246.26944101997992
21
73.550992035581515
31
0
0
SPLINE
5
294
100
AcDbEntity
8
0
100
AcDbSpline
70
0
71
3
72
8
73
4
74
0
42
0.000000001
43
0.0000000001
44
0.0000000001
40
3
40
3
40
3
40
3
40
4
40
4
40
4
40
4
10
246.77122673414104
20
74.052777749741381
30
0
10
246.4940981365263
20
74.052777749741381
30
0
10
246.26944101997992
20
73.828120633195567
30
0
10
246.26944101997992
20
73.550992035581515
30
0
0
LINE
5
295
100
AcDbEntity
8
0
100
AcDbLine
10
246.77122673414104
20
74.052777749741381
30
0
11
259.81765530230808
21
74.052777749741381
31
0
0
SPLINE
5
296
100
AcDbEntity
8
0
100
AcDbSpline
70
0
71
3
72
8
73
4
74
0
42
0.000000001
43
0.0000000001
44
0.0000000001
40
0
40
0
40
0
40
0
40
1
40
1
40
1
40
1
10
246.29444101822361
20
134.72777775149791
30
0
10
246.29444101822361
20
134.45163537658141
30
0
10
246.51829864330821
20
134.22777775149751
30
0
10
246.79444101822466
20
134.22777775149751
30
0
0
LINE
5
297
100
AcDbEntity
8
0
100
AcDbLine
10
246.29444101822361
20
134.72777775149791
30
0
11
246.29444101822361
21
149.72777775149774
31
0
0
SPLINE
5
298
100
AcDbEntity
8
0
100
AcDbSpline
70
0
71
3
72
8
73
4
74
0
42
0.000000001
43
0.0000000001
44
0.0000000001
40
14
40
14
40
14
40
14
40
15
40
15
40
15
40
15
10
246.79444101822466
20
150.22777775149771
30
0
10
246.51829864330821
20
150.22777775149771
30
0
10
246.29444101822361
20
150.00392012641379
30
0
10
246.29444101822361
20
149.72777775149774
30
0
0
LINE
5
299
100
AcDbEntity
8
0
100
AcDbLine
10
246.79444101822466
20
150.22777775149771
30
0
11
278.84444101822459
21
150.22777775149771
31
0
0
SPLINE
5
300
100
AcDbEntity
8
0
100
AcDbSpline
70
0
71
3
72
8
73
4
74
0
42
0.000000001
43
0.0000000001
44
0.0000000001
40
12
40
12
40
12
40
12
40
13
40
13
40
13
40
13
10
279.34444101822493
20
149.72777775149774
30
0
10
279.34444101822493
20
150.00392012641379
30
0
10
279.12058339314103
20
150.22777775149771
30
0
10
278.84444101822459
20
150.22777775149771
30
0
0
LINE
5
301
100
AcDbEntity
8
0
100
AcDbLine
10
279.34444101822493
20
149.72777775149774
30
0
11
279.34444101822493
21
134.72777775149791
31
0
0
SPLINE
5
302
100
AcDbEntity
8
0
100
AcDbSpline
70
0
71
3
72
8
73
4
74
0
42
0.000000001
43
0.0000000001
44
0.0000000001
40
10
40
10
40
10
40
10
40
11
40
11
40
11
40
11
10
278.84444101822459
20
134.22777775149751
30
0
10
279.12058339313722
20
134.22777775149751
30
0
10
279.34444101822493
20
134.45163537658141
30
0
10
279.34444101822493
20
134.72777775149791
30
0
0
LINE
5
303
100
AcDbEntity
8
0
100
AcDbLine
10
278.84444101822459
20
134.22777775149751
30
0
11
271.7574410182246
21
134.22777775149751
31
0
0
SPLINE
5
304
100
AcDbEntity
8
0
100
AcDbSpline
70
0
71
3
72
8
73
4
74
0
42
0.000000001
43
0.0000000001
44
0.0000000001
40
8
40
8
40
8
40
8
40
9
40
9
40
9
40
9
10
271.25744101822431
20
134.72777775149791
30
0
10
271.25744101822431
20
134.45163537658141
30
0
10
271.48129864330821
20
134.22777775149751
30
0
10
271.7574410182246
20
134.22777775149751
30
0
0
LINE
5
305
100
AcDbEntity
8
0
100
AcDbLine
10
271.25744101822431
20
134.72777775149791
30
0
11
271.25744101822431
21
135.72777775149791
31
0
0
SPLINE
5
306
100
AcDbEntity
8
0
100
AcDbSpline
70
0
71
3
72
8
73
4
74
0
42
0.000000001
43
0.0000000001
44
0.0000000001
40
6
40
6
40
6
40
6
40
7
40
7
40
7
40
7
10
270.75744101822454
20
136.2277777514976
30
0
10
271.0335833931378
20
136.2277777514976
30
0
10
271.25744101822431
20
136.0039201264143
30
0
10
271.25744101822431
20
135.72777775149791
30
0
0
LINE
5
307
100
AcDbEntity
8
0
100
AcDbLine
10
270.75744101822454
20
136.2277777514976
30
0
11
254.88144101822402
21
136.2277777514976
31
0
0
SPLINE
5
308
100
AcDbEntity
8
0
100
AcDbSpline
70
0
71
3
72
8
73
4
74
0
42
0.000000001
43
0.0000000001
44
0.0000000001
40
4
40
4
40
4
40
4
40
5
40
5
40
5
40
5
10
254.38144101822431
20
135.72777775149791
30
0
10
254.38144101822431
20
136.0039201264143
30
0
10
254.60529864330763
20
136.2277777514976
30
0
10
254.88144101822402
20
136.2277777514976
30
0
0
LINE
5
309
100
AcDbEntity
8
0
100
AcDbLine
10
254.38144101822431
20
135.72777775149791
30
0
11
254.38144101822431
21
134.72777775149791
31
0
0
SPLINE
5
310
100
AcDbEntity
8
0
100
AcDbSpline
70
0
71
3
72
8
73
4
74
0
42
0.000000001
43
0.0000000001
44
0.0000000001
40
2
40
2
40
2
40
2
40
3
40
3
40
3
40
3
10
253.88144101822459
20
134.22777775149751
30
0
10
254.1575833931411
20
134.22777775149751
30
0
10
254.38144101822431
20
134.45163537658141
30
0
10
254.38144101822431
20
134.72777775149791
30
0
0
LINE
5
311
100
AcDbEntity
8
0
100
AcDbLine
10
253.88144101822459
20
134.22777775149751
30
0
11
246.79444101822466
21
134.22777775149751
31
0
0
SPLINE
5
312
100
AcDbEntity
8
0
100
AcDbSpline
70
0
71
3
72
8
73
4
74
0
42
0.000000001
43
0.0000000001
44
0.0000000001
40
1
40
1
40
1
40
1
40
2
40
2
40
2
40
2
10
118.18372673413911
20
93.102777749742231
30
0
10
117.90659813652439
20
93.102777749742231
30
0
10
117.68194101997891
20
92.878120633195763
30
0
10
117.68194101997891
20
92.600992035582337
30
0
0
LINE
5
313
100
AcDbEntity
8
0
100
AcDbLine
10
118.18372673413911
20
93.102777749742231
30
0
11
131.23015530230612
21
93.102777749742231
31
0
0
SPLINE
5
314
100
AcDbEntity
8
0
100
AcDbSpline
70
0
71
3
72
8
73
4
74
0
42
0.000000001
43
0.0000000001
44
0.0000000001
40
7
40
7
40
7
40
7
40
8
40
8
40
8
40
8
10
131.73194101646629
20
92.600992035582337
30
0
10
131.73194101646629
20
92.878120633195763
30
0
10
131.50728389992079
20
93.102777749742231
30
0
10
131.23015530230612
20
93.102777749742231
30
0
0
LINE
5
315
100
AcDbEntity
8
0
100
AcDbLine
10
131.73194101646629
20
92.600992035582337
30
0
11
131.73194101646629
21
79.554563467413445
31
0
0
SPLINE
5
316
100
AcDbEntity
8
0
100
AcDbSpline
70
0
71
3
72
8
73
4
74
0
42
0.000000001
43
0.0000000001
44
0.0000000001
40
5
40
5
40
5
40
5
40
6
40
6
40
6
40
6
10
131.23015530230612
20
79.052777753252926
30
0
10
131.50728389992079
20
79.052777753252926
30
0
10
131.73194101646629
20
79.277434869800032
30
0
10
131.73194101646629
20
79.554563467413445
30
0
0
LINE
5
317
100
AcDbEntity
8
0
100
AcDbLine
10
131.23015530230612
20
79.052777753252926
30
0
11
118.18372673413911
21
79.052777753252926
31
0
0
SPLINE
5
318
100
AcDbEntity
8
0
100
AcDbSpline
70
0
71
3
72
8
73
4
74
0
42
0.000000001
43
0.0000000001
44
0.0000000001
40
3
40
3
40
3
40
3
40
4
40
4
40
4
40
4
10
117.68194101997891
20
79.554563467413445
30
0
10
117.68194101997891
20
79.277434869800032
30
0
10
117.90659813652439
20
79.052777753252926
30
0
10
118.18372673413911
20
79.052777753252926
30
0
0
LINE
5
319
100
AcDbEntity
8
0
100
AcDbLine
10
117.68194101997891
20
79.554563467413445
30
0
11
117.68194101997892
21
92.600992035582323
31
0
0
SPLINE
5
320
100
AcDbEntity
8
0
100
AcDbSpline
70
0
71
3
72
8
73
4
74
0
42
0.000000001
43
0.0000000001
44
0.0000000001
40
1
40
1
40
1
40
1
40
2
40
2
40
2
40
2
10
55.531941016466142
20
92.600992035581058
30
0
10
55.531941016466142
20
92.878120633195124
30
0
10
55.30728389992067
20
93.102777749740937
30
0
10
55.03015530230563
20
93.102777749740937
30
0
0
LINE
5
321
100
AcDbEntity
8
0
100
AcDbLine
10
55.531941016466142
20
92.600992035581058
30
0
11
55.531941016466142
21
79.554563467414084
31
0
0
SPLINE
5
322
100
AcDbEntity
8
0
100
AcDbSpline
70
0
71
3
72
8
73
4
74
0
42
0.000000001
43
0.0000000001
44
0.0000000001
40
7
40
7
40
7
40
7
40
8
40
8
40
8
40
8
10
55.03015530230563
20
79.052777753254219
30
0
10
55.30728389992067
20
79.052777753254219
30
0
10
55.531941016466142
20
79.277434869800032
30
0
10
55.531941016466142
20
79.554563467414084
30
0
0
LINE
5
323
100
AcDbEntity
8
0
100
AcDbLine
10
55.03015530230563
20
79.052777753254219
30
0
11
41.98372673413931
21
79.052777753254219
31
0
0
SPLINE
5
324
100
AcDbEntity
8
0
100
AcDbSpline
70
0
71
3
72
8
73
4
74
0
42
0.000000001
43
0.0000000001
44
0.0000000001
40
5
40
5
40
5
40
5
40
6
40
6
40
6
40
6
10
41.481941019978777
20
79.554563467414084
30
0
10
41.481941019978777
20
79.277434869800032
30
0
10
41.706598136524271
20
79.052777753254219
30
0
10
41.98372673413931
20
79.052777753254219
30
0
0
LINE
5
325
100
AcDbEntity
8
0
100
AcDbLine
10
41.481941019978777
20
79.554563467414084
30
0
11
41.481941019978777
21
92.600992035581058
31
0
0
SPLINE
5
326
100
AcDbEntity
8
0
100
AcDbSpline
70
0
71
3
72
8
73
4
74
0
42
0.000000001
43
0.0000000001
44
0.0000000001
40
3
40
3
40
3
40
3
40
4
40
4
40
4
40
4
10
41.98372673413931
20
93.102777749740937
30
0
10
41.706598136524271
20
93.102777749740937
30
0
10
41.481941019978777
20
92.878120633195124
30
0
10
41.481941019978777
20
92.600992035581058
30
0
0
LINE
5
327
100
AcDbEntity
8
0
100
AcDbLine
10
41.98372673413931
20
93.102777749740937
30
0
11
55.03015530230563
21
93.102777749740909
31
0
0
SPLINE
5
328
100
AcDbEntity
8
0
100
AcDbSpline
70
0
71
3
72
8
73
4
74
0
42
0.000000001
43
0.0000000001
44
0.0000000001
40
1
40
1
40
1
40
1
40
2
40
2
40
2
40
2
10
137.23372673413829
20
93.102777749740937
30
0
10
136.95659813652361
20
93.102777749740937
30
0
10
136.73194101997839
20
92.878120633196403
30
0
10
136.73194101997839
20
92.600992035581058
30
0
0
LINE
5
329
100
AcDbEntity
8
0
100
AcDbLine
10
137.23372673413829
20
93.102777749740937
30
0
11
150.2801553023059
21
93.102777749740937
31
0
0
SPLINE
5
330
100
AcDbEntity
8
0
100
AcDbSpline
70
0
71
3
72
8
73
4
74
0
42
0.000000001
43
0.0000000001
44
0.0000000001
40
7
40
7
40
7
40
7
40
8
40
8
40
8
40
8
10
150.78194101646579
20
92.600992035581058
30
0
10
150.78194101646579
20
92.878120633196403
30
0
10
150.55728389992129
20
93.102777749740937
30
0
10
150.2801553023059
20
93.102777749740937
30
0
0
LINE
5
331
100
AcDbEntity
8
0
100
AcDbLine
10
150.78194101646579
20
92.600992035581058
30
0
11
150.78194101646579
21
79.554563467414084
31
0
0
SPLINE
5
332
100
AcDbEntity
8
0
100
AcDbSpline
70
0
71
3
72
8
73
4
74
0
42
0.000000001
43
0.0000000001
44
0.0000000001
40
5
40
5
40
5
40
5
40
6
40
6
40
6
40
6
10
150.2801553023059
20
79.052777753254219
30
0
10
150.55728389992129
20
79.052777753254219
30
0
10
150.78194101646579
20
79.277434869799379
30
0
10
150.78194101646579
20
79.554563467414084
30
0
0
LINE
5
333
100
AcDbEntity
8
0
100
AcDbLine
10
150.2801553023059
20
79.052777753254219
30
0
11
137.23372673413829
21
79.052777753254219
31
0
0
SPLINE
5
334
100
AcDbEntity
8
0
100
AcDbSpline
70
0
71
3
72
8
73
4
74
0
42
0.000000001
43
0.0000000001
44
0.0000000001
40
3
40
3
40
3
40
3
40
4
40
4
40
4
40
4
10
136.73194101997839
20
79.554563467414084
30
0
10
136.73194101997839
20
79.277434869799379
30
0
10
136.95659813652361
20
79.052777753254219
30
0
10
137.23372673413829
20
79.052777753254219
30
0
0
LINE
5
335
100
AcDbEntity
8
0
100
AcDbLine
10
136.73194101997839
20
79.554563467414084
30
0
11
136.73194101997842
21
92.600992035581044
31
0
0
SPLINE
5
336
100
AcDbEntity
8
0
100
AcDbSpline
70
0
71
3
72
8
73
4
74
0
42
0.000000001
43
0.0000000001
44
0.0000000001
40
1
40
1
40
1
40
1
40
2
40
2
40
2
40
2
10
18.171226734141314
20
150.27777774973481
30
0
10
17.894098136526605
20
150.27777774973481
30
0
10
17.669441019980471
20
150.05232114167137
30
0
10
17.669441019980471
20
149.77420632128934
30
0
0
LINE
5
337
100
AcDbEntity
8
0
100
AcDbLine
10
18.171226734141314
20
150.27777774973481
30
0
11
31.217655302307637
21
150.27777774973481
31
0
0
SPLINE
5
338
100
AcDbEntity
8
0
100
AcDbSpline
70
0
71
3
72
8
73
4
74
0
42
0.000000001
43
0.0000000001
44
0.0000000001
40
7
40
7
40
7
40
7
40
8
40
8
40
8
40
8
10
31.719441016468149
20
149.77420632128934
30
0
10
31.719441016468149
20
150.05232114167137
30
0
10
31.494783899918168
20
150.27777774973481
30
0
10
31.217655302307637
20
150.27777774973481
30
0
0
LINE
5
339
100
AcDbEntity
8
0
100
AcDbLine
10
31.719441016468149
20
149.77420632128934
30
0
11
31.719441016468149
21
136.68134918170603
31
0
0
SPLINE
5
340
100
AcDbEntity
8
0
100
AcDbSpline
70
0
71
3
72
8
73
4
74
0
42
0.000000001
43
0.0000000001
44
0.0000000001
40
5
40
5
40
5
40
5
40
6
40
6
40
6
40
6
10
31.217655302307634
20
136.17777775325979
30
0
10
31.494783899918168
20
136.17777775325979
30
0
10
31.719441016468149
20
136.40323436132402
30
0
10
31.719441016468149
20
136.68134918170603
30
0
0
LINE
5
341
100
AcDbEntity
8
0
100
AcDbLine
10
31.217655302307634
20
136.17777775325979
30
0
11
18.171226734141314
21
136.17777775325979
31
0
0
SPLINE
5
342
100
AcDbEntity
8
0
100
AcDbSpline
70
0
71
3
72
8
73
4
74
0
42
0.000000001
43
0.0000000001
44
0.0000000001
40
3
40
3
40
3
40
3
40
4
40
4
40
4
40
4
10
17.669441019980471
20
136.68134918170603
30
0
10
17.669441019980471
20
136.40323436132402
30
0
10
17.894098136526605
20
136.17777775325979
30
0
10
18.171226734141314
20
136.17777775325979
30
0
0
LINE
5
343
100
AcDbEntity
8
0
100
AcDbLine
10
17.669441019980471
20
136.68134918170603
30
0
11
17.669441019980471
21
149.77420632128934
31
0
0
SPLINE
5
344
100
AcDbEntity
8
0
100
AcDbSpline
70
0
71
3
72
8
73
4
74
0
42
0.000000001
43
0.0000000001
44
0.0000000001
40
1
40
1
40
1
40
1
40
2
40
2
40
2
40
2
10
36.456941018222523
20
92.577777751497479
30
0
10
36.456941018222523
20
92.853920126413939
30
0
10
36.233083393138948
20
93.07777775149718
30
0
10
35.956941018222182
20
93.07777775149718
30
0
0
LINE
5
345
100
AcDbEntity
8
0
100
AcDbLine
10
36.456941018222523
20
92.577777751497479
30
0
11
36.456941018222501
21
77.577777751497607
31
0
0
SPLINE
5
346
100
AcDbEntity
8
0
100
AcDbSpline
70
0
71
3
72
8
73
4
74
0
42
0.000000001
43
0.0000000001
44
0.0000000001
40
15
40
15
40
15
40
15
40
16
40
16
40
16
40
16
10
35.956941018222182
20
77.077777751497905
30
0
10
36.233083393138948
20
77.077777751497905
30
0
10
36.456941018222523
20
77.3016353765818
30
0
10
36.456941018222501
20
77.577777751497607
30
0
0
LINE
5
347
100
AcDbEntity
8
0
100
AcDbLine
10
35.956941018222182
20
77.077777751497905
30
0
11
26.488691018221981
21
77.077777751497905
31
0
0
SPLINE
5
348
100
AcDbEntity
8
0
100
AcDbSpline
70
0
71
3
72
8
73
4
74
0
42
0.000000001
43
0.0000000001
44
0.0000000001
40
13
40
13
40
13
40
13
40
14
40
14
40
14
40
14
10
25.98869101822164
20
77.577777751497607
30
0
10
25.98869101822164
20
77.3016353765818
30
0
10
26.212548643305542
20
77.077777751497905
30
0
10
26.488691018221981
20
77.077777751497905
30
0
0
LINE
5
349
100
AcDbEntity
8
0
100
AcDbLine
10
25.98869101822164
20
77.577777751497607
30
0
11
25.98869101822164
21
78.577777751498289
31
0
0
SPLINE
5
350
100
AcDbEntity
8
0
100
AcDbSpline
70
0
71
3
72
8
73
4
74
0
42
0.000000001
43
0.0000000001
44
0.0000000001
40
11
40
11
40
11
40
11
40
12
40
12
40
12
40
12
10
25.488691018221303
20
79.077777751497962
30
0
10
25.764833393137742
20
79.077777751497962
30
0
10
25.98869101822164
20
78.853920126414067
30
0
10
25.98869101822164
20
78.577777751498289
30
0
0
LINE
5
351
100
AcDbEntity
8
0
100
AcDbLine
10
25.488691018221303
20
79.077777751497962
30
0
11
9.6126910182213976
21
79.077777751497962
31
0
0
SPLINE
5
352
100
AcDbEntity
8
0
100
AcDbSpline
70
0
71
3
72
8
73
4
74
0
42
0.000000001
43
0.0000000001
44
0.0000000001
40
9
40
9
40
9
40
9
40
10
40
10
40
10
40
10
10
9.1126910182216996
20
78.577777751498289
30
0
10
9.1126910182216996
20
78.853920126414067
30
0
10
9.3365486433049565
20
79.077777751497962
30
0
10
9.6126910182213958
20
79.077777751497962
30
0
0
LINE
5
353
100
AcDbEntity
8
0
100
AcDbLine
10
9.1126910182216996
20
78.577777751498289
30
0
11
9.1126910182216996
21
77.577777751497607
31
0
0
SPLINE
5
354
100
AcDbEntity
8
0
100
AcDbSpline
70
0
71
3
72
8
73
4
74
0
42
0.000000001
43
0.0000000001
44
0.0000000001
40
7
40
7
40
7
40
7
40
8
40
8
40
8
40
8
10
8.6126910182220033
20
77.077777751497905
30
0
10
8.8888333931378032
20
77.077777751497905
30
0
10
9.1126910182216996
20
77.3016353765818
30
0
10
9.1126910182216996
20
77.577777751497607
30
0
0
LINE
5
355
100
AcDbEntity
8
0
100
AcDbLine
10
8.6126910182220033
20
77.077777751497905
30
0
11
1.5256910182219874
21
77.077777751497905
31
0
0
SPLINE
5
356
100
AcDbEntity
8
0
100
AcDbSpline
70
0
71
3
72
8
73
4
74
0
42
0.000000001
43
0.0000000001
44
0.0000000001
40
5
40
5
40
5
40
5
40
6
40
6
40
6
40
6
10
1.0256910182216481
20
77.577777751497607
30
0
10
1.0256910182216481
20
77.3016353765818
30
0
10
1.2495486433055469
20
77.077777751497905
30
0
10
1.5256910182219872
20
77.077777751497905
30
0
0
LINE
5
357
100
AcDbEntity
8
0
100
AcDbLine
10
1.0256910182216481
20
77.577777751497607
30
0
11
1.0256910182216481
21
92.577777751497479
31
0
0
SPLINE
5
358
100
AcDbEntity
8
0
100
AcDbSpline
70
0
71
3
72
8
73
4
74
0
42
0.000000001
43
0.0000000001
44
0.0000000001
40
3
40
3
40
3
40
3
40
4
40
4
40
4
40
4
10
1.5256910182219872
20
93.07777775149718
30
0
10
1.2495486433055469
20
93.07777775149718
30
0
10
1.0256910182216481
20
92.853920126413939
30
0
10
1.0256910182216481
20
92.577777751497479
30
0
0
LINE
5
359
100
AcDbEntity
8
0
100
AcDbLine
10
1.5256910182219872
20
93.07777775149718
30
0
11
35.956941018222182
21
93.07777775149718
31
0
0
SPLINE
5
360
100
AcDbEntity
8
0
100
AcDbSpline
70
0
71
3
72
8
73
4
74
0
42
0.000000001
43
0.0000000001
44
0.0000000001
40
1
40
1
40
1
40
1
40
2
40
2
40
2
40
2
10
88.869441016467761
20
149.75099203558131
30
0
10
88.869441016467761
20
150.02812063319601
30
0
10
88.644783899919389
20
150.2527777497418
30
0
10
88.367655302307895
20
150.2527777497418
30
0
0
LINE
5
361
100
AcDbEntity
8
0
100
AcDbLine
10
88.869441016467761
20
149.75099203558131
30
0
11
88.869441016467761
21
136.704563467414
31
0
0
SPLINE
5
362
100
AcDbEntity
8
0
100
AcDbSpline
70
0
71
3
72
8
73
4
74
0
42
0.000000001
43
0.0000000001
44
0.0000000001
40
7
40
7
40
7
40
7
40
8
40
8
40
8
40
8
10
88.367655302307895
20
136.20277775325351
30
0
10
88.644783899919389
20
136.20277775325351
30
0
10
88.869441016467761
20
136.4274348697993
30
0
10
88.869441016467761
20
136.704563467414
30
0
0
LINE
5
363
100
AcDbEntity
8
0
100
AcDbLine
10
88.367655302307895
20
136.20277775325351
30
0
11
75.321226734140282
21
136.20277775325351
31
0
0
SPLINE
5
364
100
AcDbEntity
8
0
100
AcDbSpline
70
0
71
3
72
8
73
4
74
0
42
0.000000001
43
0.0000000001
44
0.0000000001
40
5
40
5
40
5
40
5
40
6
40
6
40
6
40
6
10
74.819441019980403
20
136.704563467414
30
0
10
74.819441019980403
20
136.4274348697993
30
0
10
75.044098136525889
20
136.20277775325351
30
0
10
75.321226734140282
20
136.20277775325351
30
0
0
LINE
5
365
100
AcDbEntity
8
0
100
AcDbLine
10
74.819441019980403
20
136.704563467414
30
0
11
74.819441019980403
21
149.75099203558131
31
0
0
SPLINE
5
366
100
AcDbEntity
8
0
100
AcDbSpline
70
0
71
3
72
8
73
4
74
0
42
0.000000001
43
0.0000000001
44
0.0000000001
40
3
40
3
40
3
40
3
40
4
40
4
40
4
40
4
10
75.321226734140282
20
150.2527777497418
30
0
10
75.044098136525889
20
150.2527777497418
30
0
10
74.819441019980403
20
150.02812063319601
30
0
10
74.819441019980403
20
149.75099203558131
30
0
0
LINE
5
367
100
AcDbEntity
8
0
100
AcDbLine
10
75.321226734140282
20
150.2527777497418
30
0
11
88.367655302307867
21
150.25277774974177
31
0
0
SPLINE
5
368
100
AcDbEntity
8
0
100
AcDbSpline
70
0
71
3
72
8
73
4
74
0
42
0.000000001
43
0.0000000001
44
0.0000000001
40
1
40
1
40
1
40
1
40
2
40
2
40
2
40
2
10
151.52122673414144
20
150.2527777497412
30
0
10
151.24409813652659
20
150.2527777497412
30
0
10
151.01944101998089
20
150.0281206331957
30
0
10
151.01944101998089
20
149.75099203558099
30
0
0
LINE
5
369
100
AcDbEntity
8
0
100
AcDbLine
10
151.52122673414144
20
150.2527777497412
30
0
11
164.56765530230831
21
150.2527777497412
31
0
0
SPLINE
5
370
100
AcDbEntity
8
0
100
AcDbSpline
70
0
71
3
72
8
73
4
74
0
42
0.000000001
43
0.0000000001
44
0.0000000001
40
7
40
7
40
7
40
7
40
8
40
8
40
8
40
8
10
165.0694410164682
20
149.75099203558099
30
0
10
165.0694410164682
20
150.0281206331957
30
0
10
164.84478389991861
20
150.2527777497412
30
0
10
164.56765530230831
20
150.2527777497412
30
0
0
LINE
5
371
100
AcDbEntity
8
0
100
AcDbLine
10
165.0694410164682
20
149.75099203558099
30
0
11
165.0694410164682
21
136.70456346741429
31
0
0
SPLINE
5
372
100
AcDbEntity
8
0
100
AcDbSpline
70
0
71
3
72
8
73
4
74
0
42
0.000000001
43
0.0000000001
44
0.0000000001
40
5
40
5
40
5
40
5
40
6
40
6
40
6
40
6
10
164.56765530230831
20
136.20277775325351
30
0
10
164.84478389991861
20
136.20277775325351
30
0
10
165.0694410164682
20
136.42743486979961
30
0
10
165.0694410164682
20
136.70456346741429
30
0
0
LINE
5
373
100
AcDbEntity
8
0
100
AcDbLine
10
164.56765530230831
20
136.20277775325351
30
0
11
151.52122673414144
21
136.20277775325351
31
0
0
SPLINE
5
374
100
AcDbEntity
8
0
100
AcDbSpline
70
0
71
3
72
8
73
4
74
0
42
0.000000001
43
0.0000000001
44
0.0000000001
40
3
40
3
40
3
40
3
40
4
40
4
40
4
40
4
10
151.01944101998089
20
136.70456346741429
30
0
10
151.01944101998089
20
136.42743486979961
30
0
10
151.24409813652659
20
136.20277775325351
30
0
10
151.52122673414144
20
136.20277775325351
30
0
0
LINE
5
375
100
AcDbEntity
8
0
100
AcDbLine
10
151.01944101998089
20
136.70456346741429
30
0
11
151.01944101998092
21
149.75099203558099
31
0
0
SPLINE
5
376
100
AcDbEntity
8
0
100
AcDbSpline
70
0
71
3
72
8
73
4
74
0
42
0.000000001
43
0.0000000001
44
0.0000000001
40
1
40
1
40
1
40
1
40
2
40
2
40
2
40
2
10
141.99622673414001
20
131.20277774974201
30
0
10
141.71909813652593
20
131.20277774974201
30
0
10
141.49444101998009
20
130.97812063319611
30
0
10
141.49444101998009
20
130.70099203558141
30
0
0
LINE
5
377
100
AcDbEntity
8
0
100
AcDbLine
10
141.99622673414001
20
131.20277774974201
30
0
11
155.04265530230822
21
131.20277774974201
31
0
0
SPLINE
5
378
100
AcDbEntity
8
0
100
AcDbSpline
70
0
71
3
72
8
73
4
74
0
42
0.000000001
43
0.0000000001
44
0.0000000001
40
7
40
7
40
7
40
7
40
8
40
8
40
8
40
8
10
155.54444101646749
20
130.70099203558141
30
0
10
155.54444101646749
20
130.97812063319611
30
0
10
155.3197838999223
20
131.20277774974201
30
0
10
155.04265530230822
20
131.20277774974201
30
0
0
LINE
5
379
100
AcDbEntity
8
0
100
AcDbLine
10
155.54444101646749
20
130.70099203558141
30
0
11
155.54444101646749
21
117.65456346741381
31
0
0
SPLINE
5
380
100
AcDbEntity
8
0
100
AcDbSpline
70
0
71
3
72
8
73
4
74
0
42
0.000000001
43
0.0000000001
44
0.0000000001
40
5
40
5
40
5
40
5
40
6
40
6
40
6
40
6
10
155.04265530230822
20
117.15277775325332
30
0
10
155.3197838999223
20
117.15277775325332
30
0
10
155.54444101646749
20
117.37743486979912
30
0
10
155.54444101646749
20
117.65456346741381
30
0
0
LINE
5
381
100
AcDbEntity
8
0
100
AcDbLine
10
155.04265530230822
20
117.15277775325332
30
0
11
141.99622673414001
21
117.15277775325332
31
0
0
SPLINE
5
382
100
AcDbEntity
8
0
100
AcDbSpline
70
0
71
3
72
8
73
4
74
0
42
0.000000001
43
0.0000000001
44
0.0000000001
40
3
40
3
40
3
40
3
40
4
40
4
40
4
40
4
10
141.49444101998009
20
117.65456346741381
30
0
10
141.49444101998009
20
117.37743486979912
30
0
10
141.71909813652593
20
117.15277775325332
30
0
10
141.99622673414001
20
117.15277775325332
30
0
0
LINE
5
383
100
AcDbEntity
8
0
100
AcDbLine
10
141.49444101998009
20
117.65456346741381
30
0
11
141.49444101998012
21
130.70099203558141
31
0
0
SPLINE
5
384
100
AcDbEntity
8
0
100
AcDbSpline
70
0
71
3
72
8
73
4
74
0
42
0.000000001
43
0.0000000001
44
0.0000000001
40
1
40
1
40
1
40
1
40
2
40
2
40
2
40
2
10
84.846226734141354
20
131.20277774974164
30
0
10
84.569098136526634
20
131.20277774974164
30
0
10
84.344441019980508
20
130.97812063319549
30
0
10
84.344441019980508
20
130.70099203558081
30
0
0
LINE
5
385
100
AcDbEntity
8
0
100
AcDbLine
10
84.846226734141354
20
131.20277774974164
30
0
11
97.892655302308
21
131.20277774974164
31
0
0
SPLINE
5
386
100
AcDbEntity
8
0
100
AcDbSpline
70
0
71
3
72
8
73
4
74
0
42
0.000000001
43
0.0000000001
44
0.0000000001
40
7
40
7
40
7
40
7
40
8
40
8
40
8
40
8
10
98.394441016468193
20
130.70099203558081
30
0
10
98.394441016468193
20
130.97812063319549
30
0
10
98.169783899918528
20
131.20277774974164
30
0
10
97.892655302308
20
131.20277774974164
30
0
0
LINE
5
387
100
AcDbEntity
8
0
100
AcDbLine
10
98.394441016468193
20
130.70099203558081
30
0
11
98.394441016468193
21
117.6545634674148
31
0
0
SPLINE
5
388
100
AcDbEntity
8
0
100
AcDbSpline
70
0
71
3
72
8
73
4
74
0
42
0.000000001
43
0.0000000001
44
0.0000000001
40
5
40
5
40
5
40
5
40
6
40
6
40
6
40
6
10
97.892655302308
20
117.15277775325433
30
0
10
98.169783899918528
20
117.15277775325433
30
0
10
98.394441016468193
20
117.3774348697998
30
0
10
98.394441016468193
20
117.6545634674148
30
0
0
LINE
5
389
100
AcDbEntity
8
0
100
AcDbLine
10
97.892655302308
20
117.15277775325433
30
0
11
84.846226734141354
21
117.15277775325433
31
0
0
SPLINE
5
390
100
AcDbEntity
8
0
100
AcDbSpline
70
0
71
3
72
8
73
4
74
0
42
0.000000001
43
0.0000000001
44
0.0000000001
40
3
40
3
40
3
40
3
40
4
40
4
40
4
40
4
10
84.344441019980508
20
117.6545634674148
30
0
10
84.344441019980508
20
117.3774348697998
30
0
10
84.569098136526634
20
117.15277775325433
30
0
10
84.846226734141354
20
117.15277775325433
30
0
0
LINE
5
391
100
AcDbEntity
8
0
100
AcDbLine
10
84.344441019980508
20
117.6545634674148
30
0
11
84.344441019980522
21
130.70099203558078
31
0
0
SPLINE
5
392
100
AcDbEntity
8
0
100
AcDbSpline
70
0
71
3
72
8
73
4
74
0
42
0.000000001
43
0.0000000001
44
0.0000000001
40
1
40
1
40
1
40
1
40
2
40
2
40
2
40
2
10
284.87122673414137
20
93.102777749740937
30
0
10
284.59409813652672
20
93.102777749740937
30
0
10
284.36944101998029
20
92.878120633195763
30
0
10
284.36944101998029
20
92.600992035581058
30
0
0
LINE
5
393
100
AcDbEntity
8
0
100
AcDbLine
10
284.87122673414137
20
93.102777749740937
30
0
11
297.91765530230782
21
93.102777749740937
31
0
0
SPLINE
5
394
100
AcDbEntity
8
0
100
AcDbSpline
70
0
71
3
72
8
73
4
74
0
42
0.000000001
43
0.0000000001
44
0.0000000001
40
7
40
7
40
7
40
7
40
8
40
8
40
8
40
8
10
298.41944101646834
20
92.600992035581058
30
0
10
298.41944101646834
20
92.878120633195763
30
0
10
298.19478389991917
20
93.102777749740937
30
0
10
297.91765530230782
20
93.102777749740937
30
0
0
LINE
5
395
100
AcDbEntity
8
0
100
AcDbLine
10
298.41944101646834
20
92.600992035581058
30
0
11
298.41944101646834
21
79.554563467414084
31
0
0
SPLINE
5
396
100
AcDbEntity
8
0
100
AcDbSpline
70
0
71
3
72
8
73
4
74
0
42
0.000000001
43
0.0000000001
44
0.0000000001
40
5
40
5
40
5
40
5
40
6
40
6
40
6
40
6
10
297.91765530230782
20
79.052777753254219
30
0
10
298.19478389991917
20
79.052777753254219
30
0
10
298.41944101646834
20
79.277434869800032
30
0
10
298.41944101646834
20
79.554563467414084
30
0
0
LINE
5
397
100
AcDbEntity
8
0
100
AcDbLine
10
297.91765530230782
20
79.052777753254219
30
0
11
284.87122673414137
21
79.052777753254219
31
0
0
SPLINE
5
398
100
AcDbEntity
8
0
100
AcDbSpline
70
0
71
3
72
8
73
4
74
0
42
0.000000001
43
0.0000000001
44
0.0000000001
40
3
40
3
40
3
40
3
40
4
40
4
40
4
40
4
10
284.36944101998029
20
79.554563467414084
30
0
10
284.36944101998029
20
79.277434869800032
30
0
10
284.59409813652672
20
79.052777753254219
30
0
10
284.87122673414137
20
79.052777753254219
30
0
0
LINE
5
399
100
AcDbEntity
8
0
100
AcDbLine
10
284.36944101998029
20
79.554563467414084
30
0
11
284.36944101998029
21
92.600992035581044
31
0
0
SPLINE
5
400
100
AcDbEntity
8
0
100
AcDbSpline
70
0
71
3
72
8
73
4
74
0
42
0.000000001
43
0.0000000001
44
0.0000000001
40
1
40
1
40
1
40
1
40
2
40
2
40
2
40
2
10
184.8587267341382
20
112.1527777497414
30
0
10
184.58159813652469
20
112.1527777497414
30
0
10
184.35694101997893
20
111.92812063319563
30
0
10
184.35694101997893
20
111.65099203558091
30
0
0
LINE
5
401
100
AcDbEntity
8
0
100
AcDbLine
10
184.8587267341382
20
112.1527777497414
30
0
11
197.90515530230647
21
112.1527777497414
31
0
0
SPLINE
5
402
100
AcDbEntity
8
0
100
AcDbSpline
70
0
71
3
72
8
73
4
74
0
42
0.000000001
43
0.0000000001
44
0.0000000001
40
7
40
7
40
7
40
7
40
8
40
8
40
8
40
8
10
198.40694101646633
20
111.65099203558091
30
0
10
198.40694101646633
20
111.92812063319563
30
0
10
198.18228389991984
20
112.1527777497414
30
0
10
197.90515530230647
20
112.1527777497414
30
0
0
LINE
5
403
100
AcDbEntity
8
0
100
AcDbLine
10
198.40694101646633
20
111.65099203558091
30
0
11
198.40694101646633
21
98.604563467414295
31
0
0
SPLINE
5
404
100
AcDbEntity
8
0
100
AcDbSpline
70
0
71
3
72
8
73
4
74
0
42
0.000000001
43
0.0000000001
44
0.0000000001
40
5
40
5
40
5
40
5
40
6
40
6
40
6
40
6
10
197.90515530230647
20
98.102777753253761
30
0
10
198.18228389991984
20
98.102777753253761
30
0
10
198.40694101646633
20
98.327434869803426
30
0
10
198.40694101646633
20
98.604563467414295
30
0
0
LINE
5
405
100
AcDbEntity
8
0
100
AcDbLine
10
197.90515530230647
20
98.102777753253761
30
0
11
184.8587267341382
21
98.102777753253761
31
0
0
SPLINE
5
406
100
AcDbEntity
8
0
100
AcDbSpline
70
0
71
3
72
8
73
4
74
0
42
0.000000001
43
0.0000000001
44
0.0000000001
40
3
40
3
40
3
40
3
40
4
40
4
40
4
40
4
10
184.35694101997893
20
98.604563467414295
30
0
10
184.35694101997893
20
98.327434869803426
30
0
10
184.58159813652469
20
98.102777753253761
30
0
10
184.8587267341382
20
98.102777753253761
30
0
0
LINE
5
407
100
AcDbEntity
8
0
100
AcDbLine
10
184.35694101997893
20
98.604563467414295
30
0
11
184.35694101997893
21
111.65099203558088
31
0
0
SPLINE
5
408
100
AcDbEntity
8
0
100
AcDbSpline
70
0
71
3
72
8
73
4
74
0
42
0.000000001
43
0.0000000001
44
0.0000000001
40
1
40
1
40
1
40
1
40
2
40
2
40
2
40
2
10
17.43194101646608
20
130.70099203558112
30
0
10
17.43194101646608
20
130.97812063319611
30
0
10
17.20728389992059
20
131.20277774974164
30
0
10
16.930155302306204
20
131.20277774974164
30
0
0
LINE
5
409
100
AcDbEntity
8
0
100
AcDbLine
10
17.43194101646608
20
130.70099203558112
30
0
11
17.431941016466055
21
117.65456346741411
31
0
0
SPLINE
5
410
100
AcDbEntity
8
0
100
AcDbSpline
70
0
71
3
72
8
73
4
74
0
42
0.000000001
43
0.0000000001
44
0.0000000001
40
7
40
7
40
7
40
7
40
8
40
8
40
8
40
8
10
16.930155302306204
20
117.15277775325362
30
0
10
17.20728389992059
20
117.15277775325362
30
0
10
17.43194101646608
20
117.37743486979912
30
0
10
17.431941016466055
20
117.65456346741411
30
0
0
LINE
5
411
100
AcDbEntity
8
0
100
AcDbLine
10
16.930155302306204
20
117.15277775325362
30
0
11
3.8837267341385973
21
117.15277775325362
31
0
0
SPLINE
5
412
100
AcDbEntity
8
0
100
AcDbSpline
70
0
71
3
72
8
73
4
74
0
42
0.000000001
43
0.0000000001
44
0.0000000001
40
5
40
5
40
5
40
5
40
6
40
6
40
6
40
6
10
3.381941019978723
20
117.65456346741411
30
0
10
3.381941019978723
20
117.37743486979912
30
0
10
3.6065981365242084
20
117.15277775325362
30
0
10
3.8837267341385973
20
117.15277775325362
30
0
0
LINE
5
413
100
AcDbEntity
8
0
100
AcDbLine
10
3.381941019978723
20
117.65456346741411
30
0
11
3.381941019978723
21
130.70099203558112
31
0
0
SPLINE
5
414
100
AcDbEntity
8
0
100
AcDbSpline
70
0
71
3
72
8
73
4
74
0
42
0.000000001
43
0.0000000001
44
0.0000000001
40
3
40
3
40
3
40
3
40
4
40
4
40
4
40
4
10
3.8837267341385973
20
131.20277774974164
30
0
10
3.6065981365242084
20
131.20277774974164
30
0
10
3.381941019978723
20
130.97812063319611
30
0
10
3.381941019978723
20
130.70099203558112
30
0
0
LINE
5
415
100
AcDbEntity
8
0
100
AcDbLine
10
3.8837267341385973
20
131.20277774974164
30
0
11
16.930155302306201
21
131.20277774974161
31
0
0
SPLINE
5
416
100
AcDbEntity
8
0
100
AcDbSpline
70
0
71
3
72
8
73
4
74
0
42
0.000000001
43
0.0000000001
44
0.0000000001
40
33
40
33
40
33
40
33
40
34
40
34
40
34
40
34
10
276.96319101822348
20
121.1527777514975
30
0
10
276.96319101822348
20
121.4289201264139
30
0
10
276.73933339313965
20
121.65277775149781
30
0
10
276.46319101822309
20
121.65277775149781
30
0
0
LINE
5
417
100
AcDbEntity
8
0
100
AcDbLine
10
276.96319101822348
20
121.1527777514975
30
0
11
276.96319101822348
21
108.1527777514976
31
0
0
SPLINE
5
418
100
AcDbEntity
8
0
100
AcDbSpline
70
0
71
3
72
8
73
4
74
0
42
0.000000001
43
0.0000000001
44
0.0000000001
40
31
40
31
40
31
40
31
40
32
40
32
40
32
40
32
10
276.46319101822309
20
107.65277775149761
30
0
10
276.73933339313965
20
107.65277775149761
30
0
10
276.96319101822348
20
107.87663537658121
30
0
10
276.96319101822348
20
108.1527777514976
30
0
0
SPLINE
5
419
100
AcDbEntity
8
0
100
AcDbSpline
70
0
71
3
72
8
73
4
74
0
42
0.000000001
43
0.0000000001
44
0.0000000001
40
30
40
30
40
30
40
30
40
31
40
31
40
31
40
31
10
275.96319101822417
20
107.1527777514976
30
0
10
275.96319101822417
20
107.428920126414
30
0
10
276.1870486433067
20
107.65277775149761
30
0
10
276.46319101822309
20
107.65277775149761
30
0
0
LINE
5
420
100
AcDbEntity
8
0
100
AcDbLine
10
275.96319101822417
20
107.1527777514976
30
0
11
275.96319101822417
21
96.627777751497788
31
0
0
SPLINE
5
421
100
AcDbEntity
8
0
100
AcDbSpline
70
0
71
3
72
8
73
4
74
0
42
0.000000001
43
0.0000000001
44
0.0000000001
40
28
40
28
40
28
40
28
40
29
40
29
40
29
40
29
10
275.46319101822309
20
96.127777751498087
30
0
10
275.73933339314021
20
96.127777751498087
30
0
10
275.96319101822417
20
96.351635376585207
30
0
10
275.96319101822417
20
96.627777751497788
30
0
0
LINE
5
422
100
AcDbEntity
8
0
100
AcDbLine
10
275.46319101822309
20
96.127777751498087
30
0
11
268.84238901820476
21
96.127777751498087
31
0
0
SPLINE
5
423
100
AcDbEntity
8
0
100
AcDbSpline
70
0
71
3
72
8
73
4
74
0
42
0.000000001
43
0.0000000001
44
0.0000000001
40
26
40
26
40
26
40
26
40
27
40
27
40
27
40
27
10
268.34238901820441
20
96.627777751497788
30
0
10
268.34238901820441
20
96.351635376585207
30
0
10
268.56624664329217
20
96.127777751498087
30
0
10
268.84238901820476
20
96.127777751498087
30
0
0
LINE
5
424
100
AcDbEntity
8
0
100
AcDbLine
10
268.34238901820441
20
96.627777751497788
30
0
11
268.34238901820441
21
97.627777751497177
31
0
0
SPLINE
5
425
100
AcDbEntity
8
0
100
AcDbSpline
70
0
71
3
72
8
73
4
74
0
42
0.000000001
43
0.0000000001
44
0.0000000001
40
24
40
24
40
24
40
24
40
25
40
25
40
25
40
25
10
267.84238901820788
20
98.127777751498172
30
0
10
268.11853139312109
20
98.127777751498172
30
0
10
268.34238901820441
20
97.903920126414263
30
0
10
268.34238901820441
20
97.627777751497177
30
0
0
LINE
5
426
100
AcDbEntity
8
0
100
AcDbLine
10
267.84238901820788
20
98.127777751498172
30
0
11
252.5001910182238
21
98.127777751498172
31
0
0
SPLINE
5
427
100
AcDbEntity
8
0
100
AcDbSpline
70
0
71
3
72
8
73
4
74
0
42
0.000000001
43
0.0000000001
44
0.0000000001
40
22
40
22
40
22
40
22
40
23
40
23
40
23
40
23
10
252.00019101822352
20
97.627777751497177
30
0
10
252.00019101822352
20
97.903920126414263
30
0
10
252.22404864330744
20
98.127777751498172
30
0
10
252.5001910182238
20
98.127777751498172
30
0
0
LINE
5
428
100
AcDbEntity
8
0
100
AcDbLine
10
252.00019101822352
20
97.627777751497177
30
0
11
252.00019101822352
21
96.627777751497788
31
0
0
SPLINE
5
429
100
AcDbEntity
8
0
100
AcDbSpline
70
0
71
3
72
8
73
4
74
0
42
0.000000001
43
0.0000000001
44
0.0000000001
40
20
40
20
40
20
40
20
40
21
40
21
40
21
40
21
10
251.50019101822309
20
96.127777751498087
30
0
10
251.77633339313959
20
96.127777751498087
30
0
10
252.00019101822352
20
96.351635376585207
30
0
10
252.00019101822352
20
96.627777751497788
30
0
0
LINE
5
430
100
AcDbEntity
8
0
100
AcDbLine
10
251.50019101822309
20
96.127777751498087
30
0
11
244.64771309832852
21
96.127777751498087
31
0
0
SPLINE
5
431
100
AcDbEntity
8
0
100
AcDbSpline
70
0
71
3
72
8
73
4
74
0
42
0.000000001
43
0.0000000001
44
0.0000000001
40
18
40
18
40
18
40
18
40
19
40
19
40
19
40
19
10
244.14771309832884
20
96.627777751497788
30
0
10
244.14771309832884
20
96.351635376585207
30
0
10
244.37157072341273
20
96.127777751498087
30
0
10
244.64771309832852
20
96.127777751498087
30
0
0
LINE
5
432
100
AcDbEntity
8
0
100
AcDbLine
10
244.14771309832884
20
96.627777751497788
30
0
11
244.14771309832884
21
97.627777751497177
31
0
0
SPLINE
5
433
100
AcDbEntity
8
0
100
AcDbSpline
70
0
71
3
72
8
73
4
74
0
42
0.000000001
43
0.0000000001
44
0.0000000001
40
16
40
16
40
16
40
16
40
17
40
17
40
17
40
17
10
243.6477130983285
20
98.127777751498172
30
0
10
243.92385547324494
20
98.127777751498172
30
0
10
244.14771309832884
20
97.903920126414263
30
0
10
244.14771309832884
20
97.627777751497177
30
0
0
LINE
5
434
100
AcDbEntity
8
0
100
AcDbLine
10
243.6477130983285
20
98.127777751498172
30
0
11
242.03194101822302
21
98.127777751498172
31
0
0
SPLINE
5
435
100
AcDbEntity
8
0
100
AcDbSpline
70
0
71
3
72
8
73
4
74
0
42
0.000000001
43
0.0000000001
44
0.0000000001
40
14
40
14
40
14
40
14
40
15
40
15
40
15
40
15
10
241.53194101822262
20
98.627777751497234
30
0
10
241.53194101822262
20
98.351635376585278
30
0
10
241.75579864331041
20
98.127777751498172
30
0
10
242.03194101822302
20
98.127777751498172
30
0
0
LINE
5
436
100
AcDbEntity
8
0
100
AcDbLine
10
241.53194101822262
20
98.627777751497234
30
0
11
241.53194101822262
21
111.62777775149732
31
0
0
SPLINE
5
437
100
AcDbEntity
8
0
100
AcDbSpline
70
0
71
3
72
8
73
4
74
0
42
0.000000001
43
0.0000000001
44
0.0000000001
40
12
40
12
40
12
40
12
40
13
40
13
40
13
40
13
10
242.03194101822302
20
112.1277777514974
30
0
10
241.75579864331041
20
112.1277777514974
30
0
10
241.53194101822262
20
111.90392012641381
30
0
10
241.53194101822262
20
111.62777775149732
30
0
0
LINE
5
438
100
AcDbEntity
8
0
100
AcDbLine
10
242.03194101822302
20
112.1277777514974
30
0
11
262.46319101822388
21
112.1277777514974
31
0
0
SPLINE
5
439
100
AcDbEntity
8
0
100
AcDbSpline
70
0
71
3
72
8
73
4
74
0
42
0.000000001
43
0.0000000001
44
0.0000000001
40
10
40
10
40
10
40
10
40
11
40
11
40
11
40
11
10
262.96319101822297
20
112.627777751498
30
0
10
262.96319101822297
20
112.3516353765816
30
0
10
262.73933339314044
20
112.1277777514974
30
0
10
262.46319101822388
20
112.1277777514974
30
0
0
LINE
5
440
100
AcDbEntity
8
0
100
AcDbLine
10
262.96319101822297
20
112.627777751498
30
0
11
262.96319101822297
21
116.67777775149742
31
0
0
SPLINE
5
441
100
AcDbEntity
8
0
100
AcDbSpline
70
0
71
3
72
8
73
4
74
0
42
0.000000001
43
0.0000000001
44
0.0000000001
40
8
40
8
40
8
40
8
40
9
40
9
40
9
40
9
10
262.46319101822388
20
117.177777751498
30
0
10
262.73933339314044
20
117.177777751498
30
0
10
262.96319101822297
20
116.95392012641412
30
0
10
262.96319101822297
20
116.67777775149742
30
0
0
LINE
5
442
100
AcDbEntity
8
0
100
AcDbLine
10
262.46319101822388
20
117.177777751498
30
0
11
261.08194101822249
21
117.177777751498
31
0
0
SPLINE
5
443
100
AcDbEntity
8
0
100
AcDbSpline
70
0
71
3
72
8
73
4
74
0
42
0.000000001
43
0.0000000001
44
0.0000000001
40
6
40
6
40
6
40
6
40
7
40
7
40
7
40
7
10
260.58194101822278
20
117.67777775149773
30
0
10
260.58194101822278
20
117.40163537658131
30
0
10
260.80579864331048
20
117.177777751498
30
0
10
261.08194101822249
20
117.177777751498
30
0
0
LINE
5
444
100
AcDbEntity
8
0
100
AcDbLine
10
260.58194101822278
20
117.67777775149773
30
0
11
260.58194101822278
21
130.6777777514975
31
0
0
SPLINE
5
445
100
AcDbEntity
8
0
100
AcDbSpline
70
0
71
3
72
8
73
4
74
0
42
0.000000001
43
0.0000000001
44
0.0000000001
40
4
40
4
40
4
40
4
40
5
40
5
40
5
40
5
10
261.08194101822249
20
131.17777775149793
30
0
10
260.80579864331048
20
131.17777775149793
30
0
10
260.58194101822278
20
130.95392012641369
30
0
10
260.58194101822278
20
130.6777777514975
30
0
0
LINE
5
446
100
AcDbEntity
8
0
100
AcDbLine
10
261.08194101822249
20
131.17777775149793
30
0
11
275.46319101822309
21
131.17777775149793
31
0
0
SPLINE
5
447
100
AcDbEntity
8
0
100
AcDbSpline
70
0
71
3
72
8
73
4
74
0
42
0.000000001
43
0.0000000001
44
0.0000000001
40
2
40
2
40
2
40
2
40
3
40
3
40
3
40
3
10
275.96319101822417
20
130.6777777514975
30
0
10
275.96319101822417
20
130.95392012641369
30
0
10
275.73933339314021
20
131.17777775149793
30
0
10
275.46319101822309
20
131.17777775149793
30
0
0
LINE
5
448
100
AcDbEntity
8
0
100
AcDbLine
10
275.96319101822417
20
130.6777777514975
30
0
11
275.96319101822417
21
122.15277775149751
31
0
0
SPLINE
5
449
100
AcDbEntity
8
0
100
AcDbSpline
70
0
71
3
72
8
73
4
74
0
42
0.000000001
43
0.0000000001
44
0.0000000001
40
0
40
0
40
0
40
0
40
1
40
1
40
1
40
1
10
276.46319101822309
20
121.65277775149781
30
0
10
276.1870486433067
20
121.65277775149781
30
0
10
275.96319101822417
20
121.87663537658491
30
0
10
275.96319101822417
20
122.15277775149751
30
0
0
SPLINE
5
450
100
AcDbEntity
8
0
100
AcDbSpline
70
0
71
3
72
8
73
4
74
0
42
0.000000001
43
0.0000000001
44
0.0000000001
40
1
40
1
40
1
40
1
40
2
40
2
40
2
40
2
10
224.40193950195803
20
153.3694443821029
30
0
10
224.40193950122392
20
153.09330200666801
30
0
10
224.5802547633518
20
152.86944438064944
30
0
10
224.80021778679554
20
152.86944438056153
30
0
0
LINE
5
451
100
AcDbEntity
8
0
100
AcDbLine
10
224.40193950195803
20
153.3694443821029
30
0
11
224.40193950195803
21
154.36944438727849
31
0
0
SPLINE
5
452
100
AcDbEntity
8
0
100
AcDbSpline
70
0
71
3
72
8
73
4
74
0
42
0.000000001
43
0.0000000001
44
0.0000000001
40
3
40
3
40
3
40
3
40
4
40
4
40
4
40
4
10
224.80021778679483
20
154.86944438548599
30
0
10
224.58025476438874
20
154.86944438539811
30
0
10
224.40193950269213
20
154.64558676141149
30
0
10
224.40193950195803
20
154.36944438727849
30
0
0
LINE
5
453
100
AcDbEntity
8
0
100
AcDbLine
10
224.80021778679483
20
154.86944438548599
30
0
11
280.6786612071885
21
154.86944438548599
31
0
0
SPLINE
5
454
100
AcDbEntity
8
0
100
AcDbSpline
70
0
71
3
72
8
73
4
74
0
42
0.000000001
43
0.0000000001
44
0.0000000001
40
5
40
5
40
5
40
5
40
6
40
6
40
6
40
6
10
281.07693949228081
20
154.36944438416307
30
0
10
281.07693949291604
20
154.64558675963661
30
0
10
280.89862423066307
20
154.86944438557424
30
0
10
280.6786612071885
20
154.86944438548599
30
0
0
LINE
5
455
100
AcDbEntity
8
0
100
AcDbLine
10
281.07693949228081
20
154.36944438416307
30
0
11
281.07693949262989
21
153.36944437898779
31
0
0
SPLINE
5
456
100
AcDbEntity
8
0
100
AcDbSpline
70
0
71
3
72
8
73
4
74
0
42
0.000000001
43
0.0000000001
44
0.0000000001
40
7
40
7
40
7
40
7
40
8
40
8
40
8
40
8
10
280.678661207537
20
152.86944438056153
30
0
10
280.89862423011323
20
152.869444380473
30
0
10
281.07693949199216
20
153.09330200464314
30
0
10
281.07693949262989
20
153.36944437898779
30
0
0
LINE
5
457
100
AcDbEntity
8
0
100
AcDbLine
10
280.678661207537
20
152.86944438056153
30
0
11
224.80021778679549
21
152.86944438056153
31
0
0
SPLINE
5
458
100
AcDbEntity
8
0
100
AcDbSpline
70
0
71
3
72
8
73
4
74
0
42
0.000000001
43
0.0000000001
44
0.0000000001
40
1
40
1
40
1
40
1
40
2
40
2
40
2
40
2
10
224.40193950195803
20
56.35648149062871
30
0
10
224.40193950122392
20
56.08033911519378
30
0
10
224.5802547633518
20
55.856481489175565
30
0
10
224.80021778679554
20
55.856481489087024
30
0
0
LINE
5
459
100
AcDbEntity
8
0
100
AcDbLine
10
224.40193950195803
20
56.35648149062871
30
0
11
224.40193950195803
21
57.356481495804061
31
0
0
SPLINE
5
460
100
AcDbEntity
8
0
100
AcDbSpline
70
0
71
3
72
8
73
4
74
0
42
0.000000001
43
0.0000000001
44
0.0000000001
40
3
40
3
40
3
40
3
40
4
40
4
40
4
40
4
10
224.80021778679483
20
57.856481494011483
30
0
10
224.58025476438874
20
57.856481493924214
30
0
10
224.40193950269213
20
57.632623869937618
30
0
10
224.40193950195803
20
57.356481495804061
30
0
0
LINE
5
461
100
AcDbEntity
8
0
100
AcDbLine
10
224.80021778679483
20
57.856481494011483
30
0
11
280.6786612071885
21
57.856481494011483
31
0
0
SPLINE
5
462
100
AcDbEntity
8
0
100
AcDbSpline
70
0
71
3
72
8
73
4
74
0
42
0.000000001
43
0.0000000001
44
0.0000000001
40
5
40
5
40
5
40
5
40
6
40
6
40
6
40
6
10
281.07693949228081
20
57.356481492687976
30
0
10
281.07693949291604
20
57.63262386816141
30
0
10
280.89862423066307
20
57.856481494099405
30
0
10
280.6786612071885
20
57.856481494011483
30
0
0
LINE
5
463
100
AcDbEntity
8
0
100
AcDbLine
10
281.07693949228081
20
57.356481492687976
30
0
11
281.07693949262989
21
56.356481487512617
31
0
0
SPLINE
5
464
100
AcDbEntity
8
0
100
AcDbSpline
70
0
71
3
72
8
73
4
74
0
42
0.000000001
43
0.0000000001
44
0.0000000001
40
7
40
7
40
7
40
7
40
8
40
8
40
8
40
8
10
280.678661207537
20
55.856481489087024
30
0
10
280.89862423011323
20
55.856481488998469
30
0
10
281.07693949199216
20
56.080339113168584
30
0
10
281.07693949262989
20
56.356481487512617
30
0
0
LINE
5
465
100
AcDbEntity
8
0
100
AcDbLine
10
280.678661207537
20
55.856481489087024
30
0
11
224.80021778679549
21
55.856481489087024
31
0
0
SPLINE
5
466
100
AcDbEntity
8
0
100
AcDbSpline
70
0
71
3
72
8
73
4
74
0
42
0.000000001
43
0.0000000001
44
0.0000000001
40
1
40
1
40
1
40
1
40
2
40
2
40
2
40
2
10
120.18194441082549
20
55.502780862523466
30
0
10
120.18194441009142
20
55.226638487088529
30
0
10
120.36025967221872
20
55.002780861070313
30
0
10
120.5802226956624
20
55.002780860981765
30
0
0
LINE
5
467
100
AcDbEntity
8
0
100
AcDbLine
10
120.18194441082549
20
55.502780862523466
30
0
11
120.18194441082549
21
56.502780867698803
31
0
0
SPLINE
5
468
100
AcDbEntity
8
0
100
AcDbSpline
70
0
71
3
72
8
73
4
74
0
42
0.000000001
43
0.0000000001
44
0.0000000001
40
3
40
3
40
3
40
3
40
4
40
4
40
4
40
4
10
120.5802226956624
20
57.002780865906232
30
0
10
120.36025967325629
20
57.002780865818963
30
0
10
120.1819444115593
20
56.778923241832373
30
0
10
120.18194441082549
20
56.502780867698803
30
0
0
LINE
5
469
100
AcDbEntity
8
0
100
AcDbLine
10
120.5802226956624
20
57.002780865906232
30
0
11
176.45866611605581
21
57.002780865906232
31
0
0
SPLINE
5
470
100
AcDbEntity
8
0
100
AcDbSpline
70
0
71
3
72
8
73
4
74
0
42
0.000000001
43
0.0000000001
44
0.0000000001
40
5
40
5
40
5
40
5
40
6
40
6
40
6
40
6
10
176.85694440114872
20
56.502780864582711
30
0
10
176.85694440178401
20
56.778923240056152
30
0
10
176.6786291395303
20
57.002780865994147
30
0
10
176.45866611605581
20
57.002780865906232
30
0
0
LINE
5
471
100
AcDbEntity
8
0
100
AcDbLine
10
176.85694440114872
20
56.502780864582711
30
0
11
176.85694440149683
21
55.502780859407359
31
0
0
SPLINE
5
472
100
AcDbEntity
8
0
100
AcDbSpline
70
0
71
3
72
8
73
4
74
0
42
0.000000001
43
0.0000000001
44
0.0000000001
40
7
40
7
40
7
40
7
40
8
40
8
40
8
40
8
10
176.45866611640389
20
55.002780860981765
30
0
10
176.67862913898003
20
55.002780860893196
30
0
10
176.85694440085894
20
55.226638485063326
30
0
10
176.85694440149683
20
55.502780859407359
30
0
0
LINE
5
473
100
AcDbEntity
8
0
100
AcDbLine
10
176.45866611640389
20
55.002780860981765
30
0
11
120.58022269566243
21
55.002780860981765
31
0
0
SPLINE
5
474
100
AcDbEntity
8
0
100
AcDbSpline
70
0
71
3
72
8
73
4
74
0
42
0.000000001
43
0.0000000001
44
0.0000000001
40
1
40
1
40
1
40
1
40
2
40
2
40
2
40
2
10
108.3759497783968
20
114.15278025507
30
0
10
108.375949777476
20
113.87663787963503
30
0
10
108.59980740267602
20
113.6527802536162
30
0
10
108.87594977811102
20
113.65278025352831
30
0
0
LINE
5
475
100
AcDbEntity
8
0
100
AcDbLine
10
108.3759497783968
20
114.15278025507
30
0
11
108.37594977839683
21
115.15278026024531
31
0
0
SPLINE
5
476
100
AcDbEntity
8
0
100
AcDbSpline
70
0
71
3
72
8
73
4
74
0
42
0.000000001
43
0.0000000001
44
0.0000000001
40
3
40
3
40
3
40
3
40
4
40
4
40
4
40
4
10
108.87594977811162
20
115.65278025845271
30
0
10
108.5998074039781
20
115.6527802583648
30
0
10
108.37594977931772
20
115.42892263437821
30
0
10
108.37594977839683
20
115.15278026024531
30
0
0
LINE
5
477
100
AcDbEntity
8
0
100
AcDbLine
10
108.87594977811162
20
115.65278025845271
30
0
11
179.02594981053483
21
115.65278025845271
31
0
0
SPLINE
5
478
100
AcDbEntity
8
0
100
AcDbSpline
70
0
71
3
72
8
73
4
74
0
42
0.000000001
43
0.0000000001
44
0.0000000001
40
5
40
5
40
5
40
5
40
6
40
6
40
6
40
6
10
179.52594981056984
20
115.15278025712989
30
0
10
179.52594981136812
20
115.42892263260391
30
0
10
179.30209218600891
20
115.65278025854133
30
0
10
179.02594981053483
20
115.65278025845271
30
0
0
LINE
5
479
100
AcDbEntity
8
0
100
AcDbLine
10
179.52594981056984
20
115.15278025712989
30
0
11
179.52594981100742
21
114.15278025195522
31
0
0
SPLINE
5
480
100
AcDbEntity
8
0
100
AcDbSpline
70
0
71
3
72
8
73
4
74
0
42
0.000000001
43
0.0000000001
44
0.0000000001
40
7
40
7
40
7
40
7
40
8
40
8
40
8
40
8
10
179.02594981097309
20
113.65278025352831
30
0
10
179.3020921853165
20
113.65278025344041
30
0
10
179.52594981020724
20
113.87663787760982
30
0
10
179.52594981100742
20
114.15278025195522
30
0
0
LINE
5
481
100
AcDbEntity
8
0
100
AcDbLine
10
179.02594981097309
20
113.65278025352831
30
0
11
108.87594977811102
21
113.65278025352831
31
0
0
SPLINE
5
482
100
AcDbEntity
8
0
100
AcDbSpline
70
0
71
3
72
8
73
4
74
0
42
0.000000001
43
0.0000000001
44
0.0000000001
40
1
40
1
40
1
40
1
40
2
40
2
40
2
40
2
10
72.903731720151626
20
95.071027742697254
30
0
10
72.903731719763385
20
94.794885367723708
30
0
10
73.127589344674675
20
94.571027742322812
30
0
10
73.403731719650807
20
94.571027742118105
30
0
0
LINE
5
483
100
AcDbEntity
8
0
100
AcDbLine
10
72.903731720151626
20
95.071027742697254
30
0
11
72.903731720151626
21
96.071027748309618
31
0
0
SPLINE
5
484
100
AcDbEntity
8
0
100
AcDbSpline
70
0
71
3
72
8
73
4
74
0
42
0.000000001
43
0.0000000001
44
0.0000000001
40
3
40
3
40
3
40
3
40
4
40
4
40
4
40
4
10
73.403731719650139
20
96.571027747473792
30
0
10
73.127589345227818
20
96.571027747265887
30
0
10
72.90373172054305
20
96.347170122731299
30
0
10
72.903731720151626
20
96.071027748309618
30
0
0
LINE
5
485
100
AcDbEntity
8
0
100
AcDbLine
10
73.403731719650139
20
96.571027747473792
30
0
11
102.63194109502521
21
96.571027747473792
31
0
0
SPLINE
5
486
100
AcDbEntity
8
0
100
AcDbSpline
70
0
71
3
72
8
73
4
74
0
42
0.000000001
43
0.0000000001
44
0.0000000001
40
5
40
5
40
5
40
5
40
6
40
6
40
6
40
6
10
103.13194109527581
20
96.071027746982566
30
0
10
103.13194109561792
20
96.347170122217278
30
0
10
102.90808347025872
20
96.571027747681072
30
0
10
102.63194109502521
20
96.571027747473792
30
0
0
LINE
5
487
100
AcDbEntity
8
0
100
AcDbLine
10
103.13194109527581
20
96.071027746982566
30
0
11
103.13194109546642
21
95.071027741377279
31
0
0
SPLINE
5
488
100
AcDbEntity
8
0
100
AcDbSpline
70
0
71
3
72
8
73
4
74
0
42
0.000000001
43
0.0000000001
44
0.0000000001
40
7
40
7
40
7
40
7
40
8
40
8
40
8
40
8
10
102.63194109521579
20
94.571027742118105
30
0
10
102.9080834699667
20
94.571027741913412
30
0
10
103.1319410951244
20
94.794885366626417
30
0
10
103.13194109546642
20
95.071027741377279
30
0
0
LINE
5
489
100
AcDbEntity
8
0
100
AcDbLine
10
102.63194109521579
20
94.571027742118105
30
0
11
73.403731719650807
21
94.571027742118105
31
0
0
SPLINE
5
490
100
AcDbEntity
8
0
100
AcDbSpline
70
0
71
3
72
8
73
4
74
0
42
0.000000001
43
0.0000000001
44
0.0000000001
40
1
40
1
40
1
40
1
40
2
40
2
40
2
40
2
10
108.1819410004703
20
95.071027750767897
30
0
10
108.18194099955009
20
94.794885375333621
30
0
10
108.4057986247501
20
94.571027749315405
30
0
10
108.68194100018512
20
94.571027749226204
30
0
0
LINE
5
491
100
AcDbEntity
8
0
100
AcDbLine
10
108.1819410004703
20
95.071027750767897
30
0
11
108.1819410004703
21
96.071027755943902
31
0
0
SPLINE
5
492
100
AcDbEntity
8
0
100
AcDbSpline
70
0
71
3
72
8
73
4
74
0
42
0.000000001
43
0.0000000001
44
0.0000000001
40
3
40
3
40
3
40
3
40
4
40
4
40
4
40
4
10
108.68194100018442
20
96.57102775415197
30
0
10
108.40579862605182
20
96.571027754062754
30
0
10
108.18194100139144
20
96.347170130076805
30
0
10
108.1819410004703
20
96.071027755943902
30
0
0
LINE
5
493
100
AcDbEntity
8
0
100
AcDbLine
10
108.68194100018442
20
96.57102775415197
30
0
11
178.8319410326082
21
96.57102775415197
31
0
0
SPLINE
5
494
100
AcDbEntity
8
0
100
AcDbSpline
70
0
71
3
72
8
73
4
74
0
42
0.000000001
43
0.0000000001
44
0.0000000001
40
5
40
5
40
5
40
5
40
6
40
6
40
6
40
6
10
179.33194103264324
20
96.071027752827803
30
0
10
179.33194103344022
20
96.347170128301869
30
0
10
179.10808340808228
20
96.571027754239864
30
0
10
178.8319410326082
20
96.57102775415197
30
0
0
LINE
5
495
100
AcDbEntity
8
0
100
AcDbLine
10
179.33194103264324
20
96.071027752827803
30
0
11
179.33194103308094
21
95.07102774765373
31
0
0
SPLINE
5
496
100
AcDbEntity
8
0
100
AcDbSpline
70
0
71
3
72
8
73
4
74
0
42
0.000000001
43
0.0000000001
44
0.0000000001
40
7
40
7
40
7
40
7
40
8
40
8
40
8
40
8
10
178.83194103304589
20
94.571027749226204
30
0
10
179.10808340739064
20
94.571027749138281
30
0
10
179.33194103228072
20
94.794885373309057
30
0
10
179.33194103308094
20
95.07102774765373
30
0
0
LINE
5
497
100
AcDbEntity
8
0
100
AcDbLine
10
178.83194103304589
20
94.571027749226204
30
0
11
108.68194100018512
21
94.571027749226204
31
0
0
SPLINE
5
498
100
AcDbEntity
8
0
100
AcDbSpline
70
0
71
3
72
8
73
4
74
0
42
0.000000001
43
0.0000000001
44
0.0000000001
40
1
40
1
40
1
40
1
40
2
40
2
40
2
40
2
10
199.66348171425992
20
75.527775511934351
30
0
10
199.66348171425992
20
75.803917886780198
30
0
10
199.43962408923252
20
76.027775511810191
30
0
10
199.16348171438599
20
76.027775511810191
30
0
0
LINE
5
499
100
AcDbEntity
8
0
100
AcDbLine
10
199.66348171425992
20
75.527775511934351
30
0
11
199.66348171425992
21
74.527789923262674
31
0
0
SPLINE
5
500
100
AcDbEntity
8
0
100
AcDbSpline
70
0
71
3
72
8
73
4
74
0
42
0.000000001
43
0.0000000001
44
0.0000000001
40
15
40
15
40
15
40
15
40
16
40
16
40
16
40
16
10
200.16348171413583
20
74.027789923389392
30
0
10
199.88733933928989
20
74.027789923389392
30
0
10
199.66348171425992
20
74.251647548416173
30
0
10
199.66348171425992
20
74.527789923262674
30
0
0
LINE
5
501
100
AcDbEntity
8
0
100
AcDbLine
10
200.16348171413583
20
74.027789923389392
30
0
11
205.02574231947364
21
74.027789923389392
31
0
0
SPLINE
5
502
100
AcDbEntity
8
0
100
AcDbSpline
70
0
71
3
72
8
73
4
74
0
42
0.000000001
43
0.0000000001
44
0.0000000001
40
13
40
13
40
13
40
13
40
14
40
14
40
14
40
14
10
205.52574231934952
20
73.527789923512898
30
0
10
205.52574231934952
20
73.803932298358106
30
0
10
205.30188469431951
20
74.027789923389392
30
0
10
205.02574231947364
20
74.027789923389392
30
0
0
LINE
5
503
100
AcDbEntity
8
0
100
AcDbLine
10
205.52574231934952
20
73.527789923512898
30
0
11
205.52574231934952
21
60.527783145078004
31
0
0
SPLINE
5
504
100
AcDbEntity
8
0
100
AcDbSpline
70
0
71
3
72
8
73
4
74
0
42
0.000000001
43
0.0000000001
44
0.0000000001
40
11
40
11
40
11
40
11
40
12
40
12
40
12
40
12
10
205.02574231947364
20
60.027783145204729
30
0
10
205.30188469431951
20
60.027783145204729
30
0
10
205.52574231934952
20
60.251640770232797
30
0
10
205.52574231934952
20
60.527783145078004
30
0
0
LINE
5
505
100
AcDbEntity
8
0
100
AcDbLine
10
205.02574231947364
20
60.027783145204729
30
0
11
192.02573554104262
21
60.027783145204729
31
0
0
SPLINE
5
506
100
AcDbEntity
8
0
100
AcDbSpline
70
0
71
3
72
8
73
4
74
0
42
0.000000001
43
0.0000000001
44
0.0000000001
40
9
40
9
40
9
40
9
40
10
40
10
40
10
40
10
10
191.52573554116555
20
60.527783145078004
30
0
10
191.52573554116555
20
60.251640770232797
30
0
10
191.7495931661922
20
60.027783145204729
30
0
10
192.02573554104262
20
60.027783145204729
30
0
0
LINE
5
507
100
AcDbEntity
8
0
100
AcDbLine
10
191.52573554116555
20
60.527783145078004
30
0
11
191.52573554116555
21
73.527789923512898
31
0
0
SPLINE
5
508
100
AcDbEntity
8
0
100
AcDbSpline
70
0
71
3
72
8
73
4
74
0
42
0.000000001
43
0.0000000001
44
0.0000000001
40
7
40
7
40
7
40
7
40
8
40
8
40
8
40
8
10
192.02573554104262
20
74.027789923389392
30
0
10
191.7495931661922
20
74.027789923389392
30
0
10
191.52573554116555
20
73.803932298358106
30
0
10
191.52573554116555
20
73.527789923512898
30
0
0
LINE
5
509
100
AcDbEntity
8
0
100
AcDbLine
10
192.02573554104262
20
74.027789923389392
30
0
11
192.1634783252934
21
74.027789923389392
31
0
0
SPLINE
5
510
100
AcDbEntity
8
0
100
AcDbSpline
70
0
71
3
72
8
73
4
74
0
42
0.000000001
43
0.0000000001
44
0.0000000001
40
5
40
5
40
5
40
5
40
6
40
6
40
6
40
6
10
192.66347832516919
20
74.527789923262674
30
0
10
192.66347832516919
20
74.251647548416173
30
0
10
192.43962070013922
20
74.027789923389392
30
0
10
192.1634783252934
20
74.027789923389392
30
0
0
LINE
5
511
100
AcDbEntity
8
0
100
AcDbLine
10
192.66347832516919
20
74.527789923262674
30
0
11
192.66347832516919
21
75.527775511934351
31
0
0
SPLINE
5
512
100
AcDbEntity
8
0
100
AcDbSpline
70
0
71
3
72
8
73
4
74
0
42
0.000000001
43
0.0000000001
44
0.0000000001
40
3
40
3
40
3
40
3
40
4
40
4
40
4
40
4
10
193.16347832504633
20
76.027775511810191
30
0
10
192.88733595019661
20
76.027775511810191
30
0
10
192.66347832516919
20
75.803917886780198
30
0
10
192.66347832516919
20
75.527775511934351
30
0
0
LINE
5
513
100
AcDbEntity
8
0
100
AcDbLine
10
193.16347832504633
20
76.027775511810191
30
0
11
199.16348171438599
21
76.027775511810191
31
0
0
SPLINE
5
514
100
AcDbEntity
8
0
100
AcDbSpline
70
0
71
3
72
8
73
4
74
0
42
0.000000001
43
0.0000000001
44
0.0000000001
40
1
40
1
40
1
40
1
40
2
40
2
40
2
40
2
10
97.926194184583608
20
76.027775511810191
30
0
10
97.650057048555254
20
76.027775511810191
30
0
10
97.426203670428748
20
75.803922133683685
30
0
10
97.426203670428748
20
75.527784997655317
30
0
0
LINE
5
515
100
AcDbEntity
8
0
100
AcDbLine
10
97.926194184583608
20
76.027775511810191
30
0
11
103.9262165453684
21
76.027775511810191
31
0
0
SPLINE
5
516
100
AcDbEntity
8
0
100
AcDbSpline
70
0
71
3
72
8
73
4
74
0
42
0.000000001
43
0.0000000001
44
0.0000000001
40
21
40
21
40
21
40
21
40
22
40
22
40
22
40
22
10
104.42620705952331
20
75.527784997655317
30
0
10
104.42620705952331
20
75.803922133683685
30
0
10
104.2023536813968
20
76.027775511810191
30
0
10
103.9262165453684
20
76.027775511810191
30
0
0
LINE
5
517
100
AcDbEntity
8
0
100
AcDbLine
10
104.42620705952331
20
75.527784997655317
30
0
11
104.42620705952331
21
61.527755687643086
31
0
0
SPLINE
5
518
100
AcDbEntity
8
0
100
AcDbSpline
70
0
71
3
72
8
73
4
74
0
42
0.000000001
43
0.0000000001
44
0.0000000001
40
19
40
19
40
19
40
19
40
20
40
20
40
20
40
20
10
103.9262165453684
20
61.027765173491417
30
0
10
104.2023536813968
20
61.027765173491417
30
0
10
104.42620705952331
20
61.251618551617923
30
0
10
104.42620705952331
20
61.527755687643086
30
0
0
LINE
5
519
100
AcDbEntity
8
0
100
AcDbLine
10
103.9262165453684
20
61.027765173491417
30
0
11
98.606815861387659
21
61.027765173491417
31
0
0
SPLINE
5
520
100
AcDbEntity
8
0
100
AcDbSpline
70
0
71
3
72
8
73
4
74
0
42
0.000000001
43
0.0000000001
44
0.0000000001
40
17
40
17
40
17
40
17
40
18
40
18
40
18
40
18
10
98.106825347235983
20
60.527773659356399
30
0
10
98.106825347235983
20
60.80391179536619
30
0
10
98.330678725362489
20
61.027765173491417
30
0
10
98.606815861387659
20
61.027765173491417
30
0
0
SPLINE
5
521
100
AcDbEntity
8
0
100
AcDbSpline
70
0
71
3
72
8
73
4
74
0
42
0.000000001
43
0.0000000001
44
0.0000000001
40
16
40
16
40
16
40
16
40
17
40
17
40
17
40
17
10
97.606834833081109
20
60.027783145204729
30
0
10
97.882971969110145
20
60.027783145204729
30
0
10
98.106825347235983
20
60.251636523328017
30
0
10
98.106825347235983
20
60.527773659356399
30
0
0
LINE
5
522
100
AcDbEntity
8
0
100
AcDbLine
10
97.606834833081109
20
60.027783145204729
30
0
11
82.488183019008247
21
60.027783145204729
31
0
0
SPLINE
5
523
100
AcDbEntity
8
0
100
AcDbSpline
70
0
71
3
72
8
73
4
74
0
42
0.000000001
43
0.0000000001
44
0.0000000001
40
14
40
14
40
14
40
14
40
15
40
15
40
15
40
15
10
81.98819250485721
20
60.52777465933719
30
0
10
81.98819250485721
20
60.251636523328017
30
0
10
82.212045882983404
20
60.027783145204729
30
0
10
82.488183019008247
20
60.027783145204729
30
0
0
SPLINE
5
524
100
AcDbEntity
8
0
100
AcDbSpline
70
0
71
3
72
8
73
4
74
0
42
0.000000001
43
0.0000000001
44
0.0000000001
40
13
40
13
40
13
40
13
40
14
40
14
40
14
40
14
10
81.48820199070235
20
61.027765173491417
30
0
10
81.764339126731358
20
61.027765173491417
30
0
10
81.98819250485721
20
60.80391179536619
30
0
10
81.98819250485721
20
60.52777465933719
30
0
0
LINE
5
525
100
AcDbEntity
8
0
100
AcDbLine
10
81.48820199070235
20
61.027765173491417
30
0
11
74.050153710678742
21
61.027765173491417
31
0
0
SPLINE
5
526
100
AcDbEntity
8
0
100
AcDbSpline
70
0
71
3
72
8
73
4
74
0
42
0.000000001
43
0.0000000001
44
0.0000000001
40
11
40
11
40
11
40
11
40
12
40
12
40
12
40
12
10
73.55016319652708
20
61.527755687643086
30
0
10
73.55016319652708
20
61.251618551617923
30
0
10
73.774016574653572
20
61.027765173491417
30
0
10
74.050153710678742
20
61.027765173491417
30
0
0
LINE
5
527
100
AcDbEntity
8
0
100
AcDbLine
10
73.55016319652708
20
61.527755687643086
30
0
11
73.55016319652708
21
75.527784997655317
31
0
0
SPLINE
5
528
100
AcDbEntity
8
0
100
AcDbSpline
70
0
71
3
72
8
73
4
74
0
42
0.000000001
43
0.0000000001
44
0.0000000001
40
9
40
9
40
9
40
9
40
10
40
10
40
10
40
10
10
74.050153710678742
20
76.027775511810191
30
0
10
73.774016574653572
20
76.027775511810191
30
0
10
73.55016319652708
20
75.803922133683685
30
0
10
73.55016319652708
20
75.527784997655317
30
0
0
LINE
5
529
100
AcDbEntity
8
0
100
AcDbLine
10
74.050153710678742
20
76.027775511810191
30
0
11
84.844457076128862
21
76.027775511810191
31
0
0
SPLINE
5
530
100
AcDbEntity
8
0
100
AcDbSpline
70
0
71
3
72
8
73
4
74
0
42
0.000000001
43
0.0000000001
44
0.0000000001
40
7
40
7
40
7
40
7
40
8
40
8
40
8
40
8
10
85.344447590279898
20
75.527784997655317
30
0
10
85.344447590279898
20
75.803922133683685
30
0
10
85.120594212154032
20
76.027775511810191
30
0
10
84.844457076128862
20
76.027775511810191
30
0
0
LINE
5
531
100
AcDbEntity
8
0
100
AcDbLine
10
85.344447590279898
20
75.527784997655317
30
0
11
85.344447590279898
21
74.527780437541054
31
0
0
SPLINE
5
532
100
AcDbEntity
8
0
100
AcDbSpline
70
0
71
3
72
8
73
4
74
0
42
0.000000001
43
0.0000000001
44
0.0000000001
40
5
40
5
40
5
40
5
40
6
40
6
40
6
40
6
10
85.844438104431561
20
74.027789923389392
30
0
10
85.568300968406405
20
74.027789923389392
30
0
10
85.344447590279898
20
74.251643301511407
30
0
10
85.344447590279898
20
74.527780437541054
30
0
0
LINE
5
533
100
AcDbEntity
8
0
100
AcDbLine
10
85.844438104431561
20
74.027789923389392
30
0
11
96.926213156277726
21
74.027789923389392
31
0
0
SPLINE
5
534
100
AcDbEntity
8
0
100
AcDbSpline
70
0
71
3
72
8
73
4
74
0
42
0.000000001
43
0.0000000001
44
0.0000000001
40
3
40
3
40
3
40
3
40
4
40
4
40
4
40
4
10
97.426203670428748
20
74.527780437541054
30
0
10
97.426203670428748
20
74.251643301511407
30
0
10
97.202350292302881
20
74.027789923389392
30
0
10
96.926213156277726
20
74.027789923389392
30
0
0
LINE
5
535
100
AcDbEntity
8
0
100
AcDbLine
10
97.426203670428748
20
74.527780437541054
30
0
11
97.426203670428748
21
75.527784997655317
31
0
0
SPLINE
5
536
100
AcDbEntity
8
0
100
AcDbSpline
70
0
71
3
72
8
73
4
74
0
42
0.000000001
43
0.0000000001
44
0.0000000001
40
1
40
1
40
1
40
1
40
2
40
2
40
2
40
2
10
169.33194417844089
20
76.027775511810191
30
0
10
169.05580180359499
20
76.027775511810191
30
0
10
168.83194417856441
20
75.803917886780198
30
0
10
168.83194417856441
20
75.527775511934351
30
0
0
LINE
5
537
100
AcDbEntity
8
0
100
AcDbLine
10
169.33194417844089
20
76.027775511810191
30
0
11
180.12622857244392
21
76.027775511810191
31
0
0
SPLINE
5
538
100
AcDbEntity
8
0
100
AcDbSpline
70
0
71
3
72
8
73
4
74
0
42
0.000000001
43
0.0000000001
44
0.0000000001
40
24
40
24
40
24
40
24
40
25
40
25
40
25
40
25
10
180.62622857231719
20
75.527775511934351
30
0
10
180.62622857231719
20
75.803917886780198
30
0
10
180.4023709472898
20
76.027775511810191
30
0
10
180.12622857244392
20
76.027775511810191
30
0
0
LINE
5
539
100
AcDbEntity
8
0
100
AcDbLine
10
180.62622857231719
20
75.527775511934351
30
0
11
180.62622857231719
21
61.52776519457607
31
0
0
SPLINE
5
540
100
AcDbEntity
8
0
100
AcDbSpline
70
0
71
3
72
8
73
4
74
0
42
0.000000001
43
0.0000000001
44
0.0000000001
40
22
40
22
40
22
40
22
40
23
40
23
40
23
40
23
10
180.1262285721231
20
61.02776519469959
30
0
10
180.40237094709599
20
61.027765194522487
30
0
10
180.62622857231719
20
61.251622819603178
30
0
10
180.62622857231719
20
61.52776519457607
30
0
0
LINE
5
541
100
AcDbEntity
8
0
100
AcDbLine
10
180.1262285721231
20
61.02776519469959
30
0
11
171.63179381735571
21
61.02776519469959
31
0
0
SPLINE
5
542
100
AcDbEntity
8
0
100
AcDbSpline
70
0
71
3
72
8
73
4
74
0
42
0.000000001
43
0.0000000001
44
0.0000000001
40
20
40
20
40
20
40
20
40
21
40
21
40
21
40
21
10
171.1318253289794
20
60.527795706657564
30
0
10
171.1318253289794
20
60.803921678116637
30
0
10
171.35566884588059
20
61.027765194876046
30
0
10
171.63179381735571
20
61.02776519469959
30
0
0
SPLINE
5
543
100
AcDbEntity
8
0
100
AcDbSpline
70
0
71
3
72
8
73
4
74
0
42
0.000000001
43
0.0000000001
44
0.0000000001
40
19
40
19
40
19
40
19
40
20
40
20
40
20
40
20
10
170.63181276721605
20
60.027783145204729
30
0
10
170.90796207975063
20
60.027783145035336
30
0
10
171.1318253289794
20
60.251646394123625
30
0
10
171.1318253289794
20
60.527795706657564
30
0
0
LINE
5
544
100
AcDbEntity
8
0
100
AcDbLine
10
170.63181276721605
20
60.027783145204729
30
0
11
115.82570504251072
21
60.027783145204729
31
0
0
SPLINE
5
545
100
AcDbEntity
8
0
100
AcDbSpline
70
0
71
3
72
8
73
4
74
0
42
0.000000001
43
0.0000000001
44
0.0000000001
40
15
40
15
40
15
40
15
40
16
40
16
40
16
40
16
10
115.32569249652282
20
60.527795691192608
30
0
10
115.32569249652282
20
60.251646387319028
30
0
10
115.54955573863651
20
60.027783145204729
30
0
10
115.82570504251072
20
60.027783145204729
30
0
0
LINE
5
546
100
AcDbEntity
8
0
100
AcDbLine
10
115.32569249652282
20
60.527795691192608
30
0
11
115.32569249652282
21
73.527777377398294
31
0
0
SPLINE
5
547
100
AcDbEntity
8
0
100
AcDbSpline
70
0
71
3
72
8
73
4
74
0
42
0.000000001
43
0.0000000001
44
0.0000000001
40
13
40
13
40
13
40
13
40
14
40
14
40
14
40
14
10
115.82570504251072
20
74.027789923389392
30
0
10
115.54955573863651
20
74.027789923389392
30
0
10
115.32569249652282
20
73.803926681271875
30
0
10
115.32569249652282
20
73.527777377398294
30
0
0
LINE
5
548
100
AcDbEntity
8
0
100
AcDbLine
10
115.82570504251072
20
74.027789923389392
30
0
11
144.487706242488
21
74.027789923389392
31
0
0
SPLINE
5
549
100
AcDbEntity
8
0
100
AcDbSpline
70
0
71
3
72
8
73
4
74
0
42
0.000000001
43
0.0000000001
44
0.0000000001
40
11
40
11
40
11
40
11
40
12
40
12
40
12
40
12
10
144.98770624236059
20
74.527789923262674
30
0
10
144.98770624236059
20
74.251647548416173
30
0
10
144.76384861733379
20
74.027789923389392
30
0
10
144.487706242488
20
74.027789923389392
30
0
0
LINE
5
550
100
AcDbEntity
8
0
100
AcDbLine
10
144.98770624236059
20
74.527789923262674
30
0
11
144.98770624236059
21
75.527775511934351
31
0
0
SPLINE
5
551
100
AcDbEntity
8
0
100
AcDbSpline
70
0
71
3
72
8
73
4
74
0
42
0.000000001
43
0.0000000001
44
0.0000000001
40
9
40
9
40
9
40
9
40
10
40
10
40
10
40
10
10
145.4877062422371
20
76.027775511810191
30
0
10
145.21156386739119
20
76.027775511810191
30
0
10
144.98770624236059
20
75.803917886780198
30
0
10
144.98770624236059
20
75.527775511934351
30
0
0
LINE
5
552
100
AcDbEntity
8
0
100
AcDbLine
10
145.4877062422371
20
76.027775511810191
30
0
11
151.48768809972972
21
76.027775511810191
31
0
0
SPLINE
5
553
100
AcDbEntity
8
0
100
AcDbSpline
70
0
71
3
72
8
73
4
74
0
42
0.000000001
43
0.0000000001
44
0.0000000001
40
7
40
7
40
7
40
7
40
8
40
8
40
8
40
8
10
151.9876880996068
20
75.527775511934351
30
0
10
151.9876880996068
20
75.803917886780198
30
0
10
151.76383047457881
20
76.027775511810191
30
0
10
151.48768809972972
20
76.027775511810191
30
0
0
LINE
5
554
100
AcDbEntity
8
0
100
AcDbLine
10
151.9876880996068
20
75.527775511934351
30
0
11
151.9876880996068
21
74.527789923262674
31
0
0
SPLINE
5
555
100
AcDbEntity
8
0
100
AcDbSpline
70
0
71
3
72
8
73
4
74
0
42
0.000000001
43
0.0000000001
44
0.0000000001
40
5
40
5
40
5
40
5
40
6
40
6
40
6
40
6
10
152.48768809948012
20
74.027789923389392
30
0
10
152.2115457246336
20
74.027789923389392
30
0
10
151.9876880996068
20
74.251647548416173
30
0
10
151.9876880996068
20
74.527789923262674
30
0
0
LINE
5
556
100
AcDbEntity
8
0
100
AcDbLine
10
152.48768809948012
20
74.027789923389392
30
0
11
168.33194417869109
21
74.027789923389392
31
0
0
SPLINE
5
557
100
AcDbEntity
8
0
100
AcDbSpline
70
0
71
3
72
8
73
4
74
0
42
0.000000001
43
0.0000000001
44
0.0000000001
40
3
40
3
40
3
40
3
40
4
40
4
40
4
40
4
10
168.83194417856441
20
74.527789923262674
30
0
10
168.83194417856441
20
74.251647548416173
30
0
10
168.60808655353702
20
74.027789923389392
30
0
10
168.33194417869109
20
74.027789923389392
30
0
0
LINE
5
558
100
AcDbEntity
8
0
100
AcDbLine
10
168.83194417856441
20
74.527789923262674
30
0
11
168.83194417856436
21
75.527775511934351
31
0
0
SPLINE
5
559
100
AcDbEntity
8
0
100
AcDbSpline
70
0
71
3
72
8
73
4
74
0
42
0.000000001
43
0.0000000001
44
0.0000000001
40
1
40
1
40
1
40
1
40
2
40
2
40
2
40
2
10
184.38194099879141
20
95.071027704629103
30
0
10
184.38194099824079
20
94.794885329497049
30
0
10
184.60579862326824
20
94.571027703905571
30
0
10
184.8819409984003
20
94.571027703756698
30
0
0
LINE
5
560
100
AcDbEntity
8
0
100
AcDbLine
10
184.38194099879141
20
95.071027704629103
30
0
11
184.38194099879141
21
96.071027710018768
31
0
0
SPLINE
5
561
100
AcDbEntity
8
0
100
AcDbSpline
70
0
71
3
72
8
73
4
74
0
42
0.000000001
43
0.0000000001
44
0.0000000001
40
3
40
3
40
3
40
3
40
4
40
4
40
4
40
4
10
184.88194099839637
20
96.571027708897432
30
0
10
184.6057986240447
20
96.571027708749199
30
0
10
184.38194099934191
20
96.347170084370518
30
0
10
184.38194099879141
20
96.071027710018768
30
0
0
LINE
5
562
100
AcDbEntity
8
0
100
AcDbLine
10
184.88194099839637
20
96.571027708897432
30
0
11
226.45694097880607
21
96.571027708897432
31
0
0
SPLINE
5
563
100
AcDbEntity
8
0
100
AcDbSpline
70
0
71
3
72
8
73
4
74
0
42
0.000000001
43
0.0000000001
44
0.0000000001
40
5
40
5
40
5
40
5
40
6
40
6
40
6
40
6
10
226.95694097894761
20
96.071027708157217
30
0
10
226.95694097942763
20
96.347170083447111
30
0
10
226.73308335409732
20
96.571027709045012
30
0
10
226.45694097880607
20
96.571027708897432
30
0
0
LINE
5
564
100
AcDbEntity
8
0
100
AcDbLine
10
226.95694097894761
20
96.071027708157217
30
0
11
226.95694097921202
21
95.071027702761128
31
0
0
SPLINE
5
565
100
AcDbEntity
8
0
100
AcDbSpline
70
0
71
3
72
8
73
4
74
0
42
0.000000001
43
0.0000000001
44
0.0000000001
40
7
40
7
40
7
40
7
40
8
40
8
40
8
40
8
10
226.45694097907182
20
94.571027703756698
30
0
10
226.73308335368415
20
94.571027703607825
30
0
10
226.95694097873329
20
94.794885328152688
30
0
10
226.95694097921202
20
95.071027702761128
30
0
0
LINE
5
566
100
AcDbEntity
8
0
100
AcDbLine
10
226.45694097907182
20
94.571027703756698
30
0
11
184.8819409984003
21
94.571027703756698
31
0
0
SPLINE
5
567
100
AcDbEntity
8
0
100
AcDbSpline
70
0
71
3
72
8
73
4
74
0
42
0.000000001
43
0.0000000001
44
0.0000000001
40
1
40
1
40
1
40
1
40
2
40
2
40
2
40
2
10
31.981940972280324
20
95.071027718538573
30
0
10
31.981940971825349
20
94.794885343502798
30
0
10
32.205798596788611
20
94.571027718026812
30
0
10
32.481940971828259
20
94.571027717847755
30
0
0
LINE
5
568
100
AcDbEntity
8
0
100
AcDbLine
10
31.981940972280324
20
95.071027718538573
30
0
11
31.981940972280299
21
96.071027724048875
31
0
0
SPLINE
5
569
100
AcDbEntity
8
0
100
AcDbSpline
70
0
71
3
72
8
73
4
74
0
42
0.000000001
43
0.0000000001
44
0.0000000001
40
3
40
3
40
3
40
3
40
4
40
4
40
4
40
4
10
32.481940971828905
20
96.57102772310401
30
0
10
32.205798597430963
20
96.571027722923688
30
0
10
31.981940972732087
20
96.347170098446838
30
0
10
31.981940972280299
20
96.071027724048875
30
0
0
LINE
5
570
100
AcDbEntity
8
0
100
AcDbLine
10
32.481940971828905
20
96.57102772310401
30
0
11
66.450629838825648
21
96.57102772310401
31
0
0
SPLINE
5
571
100
AcDbEntity
8
0
100
AcDbSpline
70
0
71
3
72
8
73
4
74
0
42
0.000000001
43
0.0000000001
44
0.0000000001
40
5
40
5
40
5
40
5
40
6
40
6
40
6
40
6
10
66.950629839023009
20
96.071027722519077
30
0
10
66.950629839418269
20
96.347170097770487
30
0
10
66.726772214073208
20
96.571027723283692
30
0
10
66.450629838825648
20
96.57102772310401
30
0
0
LINE
5
572
100
AcDbEntity
8
0
100
AcDbLine
10
66.950629839023009
20
96.071027722519077
30
0
11
66.950629839238587
21
95.071027717011972
31
0
0
SPLINE
5
573
100
AcDbEntity
8
0
100
AcDbSpline
70
0
71
3
72
8
73
4
74
0
42
0.000000001
43
0.0000000001
44
0.0000000001
40
7
40
7
40
7
40
7
40
8
40
8
40
8
40
8
10
66.450629839037404
20
94.571027717847755
30
0
10
66.726772213735359
20
94.571027717667448
30
0
10
66.950629838843298
20
94.794885342317556
30
0
10
66.950629839238587
20
95.071027717011972
30
0
0
LINE
5
574
100
AcDbEntity
8
0
100
AcDbLine
10
66.450629839037404
20
94.571027717847755
30
0
11
32.481940971828259
21
94.571027717847755
31
0
0
SPLINE
5
575
100
AcDbEntity
8
0
100
AcDbSpline
70
0
71
3
72
8
73
4
74
0
42
0.000000001
43
0.0000000001
44
0.0000000001
40
1
40
1
40
1
40
1
40
2
40
2
40
2
40
2
10
184.09444102432784
20
114.15278025257571
30
0
10
184.09444102346282
20
113.87663787718662
30
0
10
184.31829864863911
20
113.6527802512348
30
0
10
184.59444102403171
20
113.65278025113993
30
0
0
LINE
5
576
100
AcDbEntity
8
0
100
AcDbLine
10
184.09444102432784
20
114.15278025257571
30
0
11
184.09444102432784
21
115.1527802577754
31
0
0
SPLINE
5
577
100
AcDbEntity
8
0
100
AcDbSpline
70
0
71
3
72
8
73
4
74
0
42
0.000000001
43
0.0000000001
44
0.0000000001
40
3
40
3
40
3
40
3
40
4
40
4
40
4
40
4
10
184.59444102403157
20
115.6527802560858
30
0
10
184.31829864986341
20
115.65278025599051
30
0
10
184.09444102519279
20
115.42892263194432
30
0
10
184.09444102432784
20
115.1527802577754
30
0
0
LINE
5
578
100
AcDbEntity
8
0
100
AcDbLine
10
184.59444102403157
20
115.6527802560858
30
0
11
250.26944102237417
21
115.6527802560858
31
0
0
SPLINE
5
579
100
AcDbEntity
8
0
100
AcDbSpline
70
0
71
3
72
8
73
4
74
0
42
0.000000001
43
0.0000000001
44
0.0000000001
40
5
40
5
40
5
40
5
40
6
40
6
40
6
40
6
10
250.76944102241947
20
115.1527802548546
30
0
10
250.76944102317157
20
115.42892263029631
30
0
10
250.54558339781551
20
115.65278025618072
30
0
10
250.26944102237417
20
115.6527802560858
30
0
0
LINE
5
580
100
AcDbEntity
8
0
100
AcDbLine
10
250.76944102241947
20
115.1527802548546
30
0
11
250.76944102282764
21
114.15278024965822
31
0
0
SPLINE
5
581
100
AcDbEntity
8
0
100
AcDbSpline
70
0
71
3
72
8
73
4
74
0
42
0.000000001
43
0.0000000001
44
0.0000000001
40
7
40
7
40
7
40
7
40
8
40
8
40
8
40
8
10
250.26944102278233
20
113.65278025113993
30
0
10
250.54558339716621
20
113.6527802510446
30
0
10
250.76944102207682
20
113.87663787527472
30
0
10
250.76944102282764
20
114.15278024965822
30
0
0
LINE
5
582
100
AcDbEntity
8
0
100
AcDbLine
10
250.26944102278233
20
113.65278025113993
30
0
11
184.59444102403171
21
113.65278025113993
31
0
0
SPLINE
5
583
100
AcDbEntity
8
0
100
AcDbSpline
70
0
71
3
72
8
73
4
74
0
42
0.000000001
43
0.0000000001
44
0.0000000001
40
1
40
1
40
1
40
1
40
2
40
2
40
2
40
2
10
27.219440994334509
20
114.15278025441739
30
0
10
27.21944099335655
20
113.87663787893621
30
0
10
27.443298618578424
20
113.6527802528545
30
0
10
27.71944099405891
20
113.6527802527698
30
0
0
LINE
5
584
100
AcDbEntity
8
0
100
AcDbLine
10
27.219440994334509
20
114.15278025441739
30
0
11
27.219440994334487
21
115.15278025957471
31
0
0
SPLINE
5
585
100
AcDbEntity
8
0
100
AcDbSpline
70
0
71
3
72
8
73
4
74
0
42
0.000000001
43
0.0000000001
44
0.0000000001
40
3
40
3
40
3
40
3
40
4
40
4
40
4
40
4
10
27.719440994059561
20
115.65278025767689
30
0
10
27.443298619965141
20
115.6527802575954
30
0
10
27.219440995311821
20
115.4289226336688
30
0
10
27.219440994334487
20
115.15278025957471
30
0
0
LINE
5
586
100
AcDbEntity
8
0
100
AcDbLine
10
27.719440994059561
20
115.65278025767689
30
0
11
102.33104645908386
21
115.65278025767689
31
0
0
SPLINE
5
587
100
AcDbEntity
8
0
100
AcDbSpline
70
0
71
3
72
8
73
4
74
0
42
0.000000001
43
0.0000000001
44
0.0000000001
40
5
40
5
40
5
40
5
40
6
40
6
40
6
40
6
10
102.83104645910856
20
115.1527802562623
30
0
10
102.83104645995888
20
115.42892263176779
30
0
10
102.60718883458937
20
115.6527802577578
30
0
10
102.33104645908386
20
115.65278025767689
30
0
0
LINE
5
588
100
AcDbEntity
8
0
100
AcDbLine
10
102.83104645910856
20
115.1527802562623
30
0
11
102.8310464595738
21
114.1527802511046
31
0
0
SPLINE
5
589
100
AcDbEntity
8
0
100
AcDbSpline
70
0
71
3
72
8
73
4
74
0
42
0.000000001
43
0.0000000001
44
0.0000000001
40
7
40
7
40
7
40
7
40
8
40
8
40
8
40
8
10
102.3310464595491
20
113.6527802527698
30
0
10
102.60718883385212
20
113.65278025268871
30
0
10
102.83104645872362
20
113.87663787680232
30
0
10
102.8310464595738
20
114.1527802511046
30
0
0
LINE
5
590
100
AcDbEntity
8
0
100
AcDbLine
10
102.3310464595491
20
113.6527802527698
30
0
11
27.71944099405891
21
113.6527802527698
31
0
0
SPLINE
5
591
100
AcDbEntity
8
0
100
AcDbSpline
70
0
71
3
72
8
73
4
74
0
42
0.000000001
43
0.0000000001
44
0.0000000001
40
1
40
1
40
1
40
1
40
2
40
2
40
2
40
2
10
120.18194441082549
20
153.3694443821029
30
0
10
120.18194441009142
20
153.09330200666801
30
0
10
120.36025967221872
20
152.86944438064944
30
0
10
120.5802226956624
20
152.86944438056153
30
0
0
LINE
5
592
100
AcDbEntity
8
0
100
AcDbLine
10
120.18194441082549
20
153.3694443821029
30
0
11
120.18194441082549
21
154.36944438727849
31
0
0
SPLINE
5
593
100
AcDbEntity
8
0
100
AcDbSpline
70
0
71
3
72
8
73
4
74
0
42
0.000000001
43
0.0000000001
44
0.0000000001
40
3
40
3
40
3
40
3
40
4
40
4
40
4
40
4
10
120.5802226956624
20
154.86944438548599
30
0
10
120.36025967325629
20
154.86944438539811
30
0
10
120.1819444115593
20
154.64558676141149
30
0
10
120.18194441082549
20
154.36944438727849
30
0
0
LINE
5
594
100
AcDbEntity
8
0
100
AcDbLine
10
120.5802226956624
20
154.86944438548599
30
0
11
176.45866611605581
21
154.86944438548599
31
0
0
SPLINE
5
595
100
AcDbEntity
8
0
100
AcDbSpline
70
0
71
3
72
8
73
4
74
0
42
0.000000001
43
0.0000000001
44
0.0000000001
40
5
40
5
40
5
40
5
40
6
40
6
40
6
40
6
10
176.85694440114872
20
154.36944438416307
30
0
10
176.85694440178401
20
154.64558675963661
30
0
10
176.6786291395303
20
154.86944438557424
30
0
10
176.45866611605581
20
154.86944438548599
30
0
0
LINE
5
596
100
AcDbEntity
8
0
100
AcDbLine
10
176.85694440114872
20
154.36944438416307
30
0
11
176.85694440149683
21
153.36944437898779
31
0
0
SPLINE
5
597
100
AcDbEntity
8
0
100
AcDbSpline
70
0
71
3
72
8
73
4
74
0
42
0.000000001
43
0.0000000001
44
0.0000000001
40
7
40
7
40
7
40
7
40
8
40
8
40
8
40
8
10
176.45866611640389
20
152.86944438056153
30
0
10
176.67862913898003
20
152.869444380473
30
0
10
176.85694440085894
20
153.09330200464314
30
0
10
176.85694440149683
20
153.36944437898779
30
0
0
LINE
5
598
100
AcDbEntity
8
0
100
AcDbLine
10
176.45866611640389
20
152.86944438056153
30
0
11
120.58022269566243
21
152.86944438056153
31
0
0
SPLINE
5
599
100
AcDbEntity
8
0
100
AcDbSpline
70
0
71
3
72
8
73
4
74
0
42
0.000000001
43
0.0000000001
44
0.0000000001
40
1
40
1
40
1
40
1
40
2
40
2
40
2
40
2
10
13.58922593161429
20
56.35648149062871
30
0
10
13.589225930880184
20
56.08033911519378
30
0
10
13.767541193007451
20
55.856481489175565
30
0
10
13.98750421645116
20
55.856481489087024
30
0
0
LINE
5
600
100
AcDbEntity
8
0
100
AcDbLine
10
13.58922593161429
20
56.35648149062871
30
0
11
13.589225931614271
21
57.356481495804061
31
0
0
SPLINE
5
601
100
AcDbEntity
8
0
100
AcDbSpline
70
0
71
3
72
8
73
4
74
0
42
0.000000001
43
0.0000000001
44
0.0000000001
40
3
40
3
40
3
40
3
40
4
40
4
40
4
40
4
10
13.98750421645116
20
57.856481494011483
30
0
10
13.76754119404508
20
57.856481493924214
30
0
10
13.589225932348068
20
57.632623869937618
30
0
10
13.589225931614271
20
57.356481495804061
30
0
0
LINE
5
602
100
AcDbEntity
8
0
100
AcDbLine
10
13.98750421645116
20
57.856481494011483
30
0
11
69.865947636844879
21
57.856481494011483
31
0
0
SPLINE
5
603
100
AcDbEntity
8
0
100
AcDbSpline
70
0
71
3
72
8
73
4
74
0
42
0.000000001
43
0.0000000001
44
0.0000000001
40
5
40
5
40
5
40
5
40
6
40
6
40
6
40
6
10
70.264225921937467
20
57.356481492687976
30
0
10
70.264225922572749
20
57.63262386816141
30
0
10
70.085910660319385
20
57.856481494099405
30
0
10
69.865947636844879
20
57.856481494011483
30
0
0
LINE
5
604
100
AcDbEntity
8
0
100
AcDbLine
10
70.264225921937467
20
57.356481492687976
30
0
11
70.26422592228559
21
56.356481487512617
31
0
0
SPLINE
5
605
100
AcDbEntity
8
0
100
AcDbSpline
70
0
71
3
72
8
73
4
74
0
42
0.000000001
43
0.0000000001
44
0.0000000001
40
7
40
7
40
7
40
7
40
8
40
8
40
8
40
8
10
69.865947637192676
20
55.856481489087024
30
0
10
70.0859106597688
20
55.856481488998469
30
0
10
70.26422592164775
20
56.080339113168584
30
0
10
70.26422592228559
20
56.356481487512617
30
0
0
LINE
5
606
100
AcDbEntity
8
0
100
AcDbLine
10
69.865947637192676
20
55.856481489087024
30
0
11
13.98750421645116
21
55.856481489087024
31
0
0
SPLINE
5
607
100
AcDbEntity
8
0
100
AcDbSpline
70
0
71
3
72
8
73
4
74
0
42
0.000000001
43
0.0000000001
44
0.0000000001
40
1
40
1
40
1
40
1
40
2
40
2
40
2
40
2
10
13.58922593161429
20
153.3694443821029
30
0
10
13.589225930880184
20
153.09330200666801
30
0
10
13.767541193007451
20
152.86944438064944
30
0
10
13.98750421645116
20
152.86944438056153
30
0
0
LINE
5
608
100
AcDbEntity
8
0
100
AcDbLine
10
13.58922593161429
20
153.3694443821029
30
0
11
13.589225931614271
21
154.36944438727849
31
0
0
SPLINE
5
609
100
AcDbEntity
8
0
100
AcDbSpline
70
0
71
3
72
8
73
4
74
0
42
0.000000001
43
0.0000000001
44
0.0000000001
40
3
40
3
40
3
40
3
40
4
40
4
40
4
40
4
10
13.98750421645116
20
154.86944438548599
30
0
10
13.76754119404508
20
154.86944438539811
30
0
10
13.589225932348068
20
154.64558676141149
30
0
10
13.589225931614271
20
154.36944438727849
30
0
0
LINE
5
610
100
AcDbEntity
8
0
100
AcDbLine
10
13.98750421645116
20
154.86944438548599
30
0
11
69.865947636844879
21
154.86944438548599
31
0
0
SPLINE
5
611
100
AcDbEntity
8
0
100
AcDbSpline
70
0
71
3
72
8
73
4
74
0
42
0.000000001
43
0.0000000001
44
0.0000000001
40
5
40
5
40
5
40
5
40
6
40
6
40
6
40
6
10
70.264225921937467
20
154.36944438416307
30
0
10
70.264225922572749
20
154.64558675963661
30
0
10
70.085910660319385
20
154.86944438557424
30
0
10
69.865947636844879
20
154.86944438548599
30
0
0
LINE
5
612
100
AcDbEntity
8
0
100
AcDbLine
10
70.264225921937467
20
154.36944438416307
30
0
11
70.26422592228559
21
153.36944437898779
31
0
0
SPLINE
5
613
100
AcDbEntity
8
0
100
AcDbSpline
70
0
71
3
72
8
73
4
74
0
42
0.000000001
43
0.0000000001
44
0.0000000001
40
7
40
7
40
7
40
7
40
8
40
8
40
8
40
8
10
69.865947637192676
20
152.86944438056153
30
0
10
70.0859106597688
20
152.869444380473
30
0
10
70.26422592164775
20
153.09330200464314
30
0
10
70.26422592228559
20
153.36944437898779
30
0
0
LINE
5
614
100
AcDbEntity
8
0
100
AcDbLine
10
69.865947637192676
20
152.86944438056153
30
0
11
13.98750421645116
21
152.86944438056153
31
0
0
SPLINE
5
615
100
AcDbEntity
8
0
100
AcDbSpline
70
0
71
3
72
8
73
4
74
0
42
0.000000001
43
0.0000000001
44
0.0000000001
40
1
40
1
40
1
40
1
40
2
40
2
40
2
40
2
10
284.87122673414137
20
74.052777749741381
30
0
10
284.59409813652672
20
74.052777749741381
30
0
10
284.36944101998029
20
73.828120633196235
30
0
10
284.36944101998029
20
73.550992035581515
30
0
0
LINE
5
616
100
AcDbEntity
8
0
100
AcDbLine
10
284.87122673414137
20
74.052777749741381
30
0
11
297.91765530230782
21
74.052777749741381
31
0
0
SPLINE
5
617
100
AcDbEntity
8
0
100
AcDbSpline
70
0
71
3
72
8
73
4
74
0
42
0.000000001
43
0.0000000001
44
0.0000000001
40
7
40
7
40
7
40
7
40
8
40
8
40
8
40
8
10
298.41944101646834
20
73.550992035581515
30
0
10
298.41944101646834
20
73.828120633196235
30
0
10
298.19478389991917
20
74.052777749741381
30
0
10
297.91765530230782
20
74.052777749741381
30
0
0
LINE
5
618
100
AcDbEntity
8
0
100
AcDbLine
10
298.41944101646834
20
73.550992035581515
30
0
11
298.41944101646834
21
60.504563467414549
31
0
0
SPLINE
5
619
100
AcDbEntity
8
0
100
AcDbSpline
70
0
71
3
72
8
73
4
74
0
42
0.000000001
43
0.0000000001
44
0.0000000001
40
5
40
5
40
5
40
5
40
6
40
6
40
6
40
6
10
297.91765530230782
20
60.002777753254023
30
0
10
298.19478389991917
20
60.002777753254023
30
0
10
298.41944101646834
20
60.227434869799836
30
0
10
298.41944101646834
20
60.504563467414549
30
0
0
LINE
5
620
100
AcDbEntity
8
0
100
AcDbLine
10
297.91765530230782
20
60.002777753254023
30
0
11
284.87122673414137
21
60.002777753254023
31
0
0
SPLINE
5
621
100
AcDbEntity
8
0
100
AcDbSpline
70
0
71
3
72
8
73
4
74
0
42
0.000000001
43
0.0000000001
44
0.0000000001
40
3
40
3
40
3
40
3
40
4
40
4
40
4
40
4
10
284.36944101998029
20
60.504563467414549
30
0
10
284.36944101998029
20
60.227434869799836
30
0
10
284.59409813652672
20
60.002777753254023
30
0
10
284.87122673414137
20
60.002777753254023
30
0
0
LINE
5
622
100
AcDbEntity
8
0
100
AcDbLine
10
284.36944101998029
20
60.504563467414549
30
0
11
284.36944101998029
21
73.550992035581515
31
0
0
SPLINE
5
623
100
AcDbEntity
8
0
100
AcDbSpline
70
0
71
3
72
8
73
4
74
0
42
0.000000001
43
0.0000000001
44
0.0000000001
40
1
40
1
40
1
40
1
40
2
40
2
40
2
40
2
10
175.33372673413939
20
93.102777749740937
30
0
10
175.05659813652852
20
93.102777749740937
30
0
10
174.83194101997822
20
92.878120633195124
30
0
10
174.83194101997822
20
92.600992035581058
30
0
0
LINE
5
624
100
AcDbEntity
8
0
100
AcDbLine
10
175.33372673413939
20
93.102777749740937
30
0
11
188.3801553023057
21
93.102777749740937
31
0
0
SPLINE
5
625
100
AcDbEntity
8
0
100
AcDbSpline
70
0
71
3
72
8
73
4
74
0
42
0.000000001
43
0.0000000001
44
0.0000000001
40
7
40
7
40
7
40
7
40
8
40
8
40
8
40
8
10
188.88194101646619
20
92.600992035581058
30
0
10
188.88194101646619
20
92.878120633195124
30
0
10
188.65728389991969
20
93.102777749740937
30
0
10
188.3801553023057
20
93.102777749740937
30
0
0
LINE
5
626
100
AcDbEntity
8
0
100
AcDbLine
10
188.88194101646619
20
92.600992035581058
30
0
11
188.88194101646619
21
79.554563467414084
31
0
0
SPLINE
5
627
100
AcDbEntity
8
0
100
AcDbSpline
70
0
71
3
72
8
73
4
74
0
42
0.000000001
43
0.0000000001
44
0.0000000001
40
5
40
5
40
5
40
5
40
6
40
6
40
6
40
6
10
188.3801553023057
20
79.052777753254219
30
0
10
188.65728389991969
20
79.052777753254219
30
0
10
188.88194101646619
20
79.277434869800032
30
0
10
188.88194101646619
20
79.554563467414084
30
0
0
LINE
5
628
100
AcDbEntity
8
0
100
AcDbLine
10
188.3801553023057
20
79.052777753254219
30
0
11
175.33372673413939
21
79.052777753254219
31
0
0
SPLINE
5
629
100
AcDbEntity
8
0
100
AcDbSpline
70
0
71
3
72
8
73
4
74
0
42
0.000000001
43
0.0000000001
44
0.0000000001
40
3
40
3
40
3
40
3
40
4
40
4
40
4
40
4
10
174.83194101997822
20
79.554563467414084
30
0
10
174.83194101997822
20
79.277434869800032
30
0
10
175.05659813652852
20
79.052777753254219
30
0
10
175.33372673413939
20
79.052777753254219
30
0
0
LINE
5
630
100
AcDbEntity
8
0
100
AcDbLine
10
174.83194101997822
20
79.554563467414084
30
0
11
174.83194101997822
21
92.600992035581044
31
0
0
SPLINE
5
631
100
AcDbEntity
8
0
100
AcDbSpline
70
0
71
3
72
8
73
4
74
0
42
0.000000001
43
0.0000000001
44
0.0000000001
40
0
40
0
40
0
40
0
40
1
40
1
40
1
40
1
10
70.558726734138631
20
112.1527777497414
30
0
10
70.281598136523598
20
112.1527777497414
30
0
10
70.056941019978751
20
111.928120633196
30
0
10
70.056941019978751
20
111.65099203558091
30
0
0
LINE
5
632
100
AcDbEntity
8
0
100
AcDbLine
10
70.558726734138631
20
112.1527777497414
30
0
11
83.605155302306258
21
112.1527777497414
31
0
0
SPLINE
5
633
100
AcDbEntity
8
0
100
AcDbSpline
70
0
71
3
72
8
73
4
74
0
42
0.000000001
43
0.0000000001
44
0.0000000001
40
2
40
2
40
2
40
2
40
3
40
3
40
3
40
3
10
84.106941016466109
20
111.65099203558091
30
0
10
84.106941016466109
20
111.928120633196
30
0
10
83.882283899920637
20
112.1527777497414
30
0
10
83.605155302306258
20
112.1527777497414
30
0
0
LINE
5
634
100
AcDbEntity
8
0
100
AcDbLine
10
84.106941016466109
20
111.65099203558091
30
0
11
84.106941016466109
21
98.604563467414295
31
0
0
SPLINE
5
635
100
AcDbEntity
8
0
100
AcDbSpline
70
0
71
3
72
8
73
4
74
0
42
0.000000001
43
0.0000000001
44
0.0000000001
40
4
40
4
40
4
40
4
40
5
40
5
40
5
40
5
10
83.60515530230623
20
98.102777753253761
30
0
10
83.882283899920637
20
98.102777753253761
30
0
10
84.106941016466109
20
98.327434869803426
30
0
10
84.106941016466109
20
98.604563467414295
30
0
0
LINE
5
636
100
AcDbEntity
8
0
100
AcDbLine
10
83.60515530230623
20
98.102777753253761
30
0
11
70.558726734138631
21
98.102777753253761
31
0
0
SPLINE
5
637
100
AcDbEntity
8
0
100
AcDbSpline
70
0
71
3
72
8
73
4
74
0
42
0.000000001
43
0.0000000001
44
0.0000000001
40
6
40
6
40
6
40
6
40
7
40
7
40
7
40
7
10
70.056941019978751
20
98.604563467414295
30
0
10
70.056941019978751
20
98.327434869803426
30
0
10
70.281598136523598
20
98.102777753253761
30
0
10
70.558726734138631
20
98.102777753253761
30
0
0
LINE
5
638
100
AcDbEntity
8
0
100
AcDbLine
10
70.056941019978751
20
98.604563467414295
30
0
11
70.056941019978751
21
111.65099203558088
31
0
0
SPLINE
5
639
100
AcDbEntity
8
0
100
AcDbSpline
70
0
71
3
72
8
73
4
74
0
42
0.000000001
43
0.0000000001
44
0.0000000001
40
1
40
1
40
1
40
1
40
2
40
2
40
2
40
2
10
79.344441016467982
20
130.7009920355805
30
0
10
79.344441016467982
20
130.97812063319549
30
0
10
79.119783899918005
20
131.20277774974136
30
0
10
78.842655302307151
20
131.20277774974136
30
0
0
LINE
5
640
100
AcDbEntity
8
0
100
AcDbLine
10
79.344441016467982
20
130.7009920355805
30
0
11
79.344441016467982
21
117.65456346741513
31
0
0
SPLINE
5
641
100
AcDbEntity
8
0
100
AcDbSpline
70
0
71
3
72
8
73
4
74
0
42
0.000000001
43
0.0000000001
44
0.0000000001
40
7
40
7
40
7
40
7
40
8
40
8
40
8
40
8
10
78.842655302307151
20
117.15277775325461
30
0
10
79.119783899918005
20
117.15277775325461
30
0
10
79.344441016467982
20
117.3774348697998
30
0
10
79.344441016467982
20
117.65456346741513
30
0
0
LINE
5
642
100
AcDbEntity
8
0
100
AcDbLine
10
78.842655302307151
20
117.15277775325461
30
0
11
65.79622673414147
21
117.15277775325461
31
0
0
SPLINE
5
643
100
AcDbEntity
8
0
100
AcDbSpline
70
0
71
3
72
8
73
4
74
0
42
0.000000001
43
0.0000000001
44
0.0000000001
40
5
40
5
40
5
40
5
40
6
40
6
40
6
40
6
10
65.294441019980638
20
117.65456346741513
30
0
10
65.294441019980638
20
117.3774348697998
30
0
10
65.519098136526438
20
117.15277775325461
30
0
10
65.79622673414147
20
117.15277775325461
30
0
0
LINE
5
644
100
AcDbEntity
8
0
100
AcDbLine
10
65.294441019980638
20
117.65456346741513
30
0
11
65.294441019980638
21
130.7009920355805
31
0
0
SPLINE
5
645
100
AcDbEntity
8
0
100
AcDbSpline
70
0
71
3
72
8
73
4
74
0
42
0.000000001
43
0.0000000001
44
0.0000000001
40
3
40
3
40
3
40
3
40
4
40
4
40
4
40
4
10
65.79622673414147
20
131.20277774974136
30
0
10
65.519098136526438
20
131.20277774974136
30
0
10
65.294441019980638
20
130.97812063319549
30
0
10
65.294441019980638
20
130.7009920355805
30
0
0
LINE
5
646
100
AcDbEntity
8
0
100
AcDbLine
10
65.79622673414147
20
131.20277774974136
30
0
11
78.842655302307151
21
131.20277774974133
31
0
0
SPLINE
5
647
100
AcDbEntity
8
0
100
AcDbSpline
70
0
71
3
72
8
73
4
74
0
42
0.000000001
43
0.0000000001
44
0.0000000001
40
1
40
1
40
1
40
1
40
2
40
2
40
2
40
2
10
27.696226734140765
20
131.20277774974136
30
0
10
27.419098136525729
20
131.20277774974136
30
0
10
27.194441019980893
20
130.9781206331958
30
0
10
27.194441019980893
20
130.70099203558081
30
0
0
LINE
5
648
100
AcDbEntity
8
0
100
AcDbLine
10
27.696226734140765
20
131.20277774974136
30
0
11
40.742655302307085
21
131.20277774974136
31
0
0
SPLINE
5
649
100
AcDbEntity
8
0
100
AcDbSpline
70
0
71
3
72
8
73
4
74
0
42
0.000000001
43
0.0000000001
44
0.0000000001
40
7
40
7
40
7
40
7
40
8
40
8
40
8
40
8
10
41.244441016467277
20
130.70099203558081
30
0
10
41.244441016467277
20
130.9781206331958
30
0
10
41.019783899918593
20
131.20277774974136
30
0
10
40.742655302307085
20
131.20277774974136
30
0
0
LINE
5
650
100
AcDbEntity
8
0
100
AcDbLine
10
41.244441016467277
20
130.70099203558081
30
0
11
41.244441016467277
21
117.65456346741452
31
0
0
SPLINE
5
651
100
AcDbEntity
8
0
100
AcDbSpline
70
0
71
3
72
8
73
4
74
0
42
0.000000001
43
0.0000000001
44
0.0000000001
40
5
40
5
40
5
40
5
40
6
40
6
40
6
40
6
10
40.742655302307099
20
117.15277775325401
30
0
10
41.019783899918593
20
117.15277775325401
30
0
10
41.244441016467277
20
117.3774348697994
30
0
10
41.244441016467277
20
117.65456346741452
30
0
0
LINE
5
652
100
AcDbEntity
8
0
100
AcDbLine
10
40.742655302307099
20
117.15277775325401
30
0
11
27.696226734140765
21
117.15277775325401
31
0
0
SPLINE
5
653
100
AcDbEntity
8
0
100
AcDbSpline
70
0
71
3
72
8
73
4
74
0
42
0.000000001
43
0.0000000001
44
0.0000000001
40
3
40
3
40
3
40
3
40
4
40
4
40
4
40
4
10
27.194441019980893
20
117.65456346741452
30
0
10
27.194441019980893
20
117.3774348697994
30
0
10
27.419098136525729
20
117.15277775325401
30
0
10
27.696226734140765
20
117.15277775325401
30
0
0
LINE
5
654
100
AcDbEntity
8
0
100
AcDbLine
10
27.194441019980893
20
117.65456346741452
30
0
11
27.194441019980893
21
130.70099203558078
31
0
0
SPLINE
5
655
100
AcDbEntity
8
0
100
AcDbSpline
70
0
71
3
72
8
73
4
74
0
42
0.000000001
43
0.0000000001
44
0.0000000001
40
0
40
0
40
0
40
0
40
1
40
1
40
1
40
1
10
32.458726734138892
20
112.1527777497414
30
0
10
32.181598136524492
20
112.1527777497414
30
0
10
31.956941019979009
20
111.928120633196
30
0
10
31.956941019979009
20
111.65099203558091
30
0
0
LINE
5
656
100
AcDbEntity
8
0
100
AcDbLine
10
32.458726734138892
20
112.1527777497414
30
0
11
45.505155302306505
21
112.1527777497414
31
0
0
SPLINE
5
657
100
AcDbEntity
8
0
100
AcDbSpline
70
0
71
3
72
8
73
4
74
0
42
0.000000001
43
0.0000000001
44
0.0000000001
40
2
40
2
40
2
40
2
40
3
40
3
40
3
40
3
10
46.006941016466357
20
111.65099203558091
30
0
10
46.006941016466357
20
111.928120633196
30
0
10
45.782283899920884
20
112.1527777497414
30
0
10
45.505155302306505
20
112.1527777497414
30
0
0
LINE
5
658
100
AcDbEntity
8
0
100
AcDbLine
10
46.006941016466357
20
111.65099203558091
30
0
11
46.006941016466357
21
98.604563467414295
31
0
0
SPLINE
5
659
100
AcDbEntity
8
0
100
AcDbSpline
70
0
71
3
72
8
73
4
74
0
42
0.000000001
43
0.0000000001
44
0.0000000001
40
4
40
4
40
4
40
4
40
5
40
5
40
5
40
5
10
45.505155302306491
20
98.102777753253761
30
0
10
45.782283899920884
20
98.102777753253761
30
0
10
46.006941016466357
20
98.327434869803426
30
0
10
46.006941016466357
20
98.604563467414295
30
0
0
LINE
5
660
100
AcDbEntity
8
0
100
AcDbLine
10
45.505155302306491
20
98.102777753253761
30
0
11
32.458726734138892
21
98.102777753253761
31
0
0
SPLINE
5
661
100
AcDbEntity
8
0
100
AcDbSpline
70
0
71
3
72
8
73
4
74
0
42
0.000000001
43
0.0000000001
44
0.0000000001
40
6
40
6
40
6
40
6
40
7
40
7
40
7
40
7
10
31.956941019979009
20
98.604563467414295
30
0
10
31.956941019979009
20
98.327434869803426
30
0
10
32.181598136524492
20
98.102777753253761
30
0
10
32.458726734138892
20
98.102777753253761
30
0
0
LINE
5
662
100
AcDbEntity
8
0
100
AcDbLine
10
31.956941019979009
20
98.604563467414295
30
0
11
31.956941019979009
21
111.65099203558088
31
0
0
SPLINE
5
663
100
AcDbEntity
8
0
100
AcDbSpline
70
0
71
3
72
8
73
4
74
0
42
0.000000001
43
0.0000000001
44
0.0000000001
40
1
40
1
40
1
40
1
40
2
40
2
40
2
40
2
10
189.62122673414052
20
150.25277774974151
30
0
10
189.34409813652644
20
150.25277774974151
30
0
10
189.1194410199806
20
150.02812063319601
30
0
10
189.1194410199806
20
149.75099203558159
30
0
0
LINE
5
664
100
AcDbEntity
8
0
100
AcDbLine
10
189.62122673414052
20
150.25277774974151
30
0
11
202.66765530230813
21
150.25277774974151
31
0
0
SPLINE
5
665
100
AcDbEntity
8
0
100
AcDbSpline
70
0
71
3
72
8
73
4
74
0
42
0.000000001
43
0.0000000001
44
0.0000000001
40
7
40
7
40
7
40
7
40
8
40
8
40
8
40
8
10
203.16944101646865
20
149.75099203558159
30
0
10
203.16944101646865
20
150.02812063319601
30
0
10
202.9447838999221
20
150.25277774974151
30
0
10
202.66765530230813
20
150.25277774974151
30
0
0
LINE
5
666
100
AcDbEntity
8
0
100
AcDbLine
10
203.16944101646865
20
149.75099203558159
30
0
11
203.16944101646865
21
136.704563467414
31
0
0
SPLINE
5
667
100
AcDbEntity
8
0
100
AcDbSpline
70
0
71
3
72
8
73
4
74
0
42
0.000000001
43
0.0000000001
44
0.0000000001
40
5
40
5
40
5
40
5
40
6
40
6
40
6
40
6
10
202.66765530230813
20
136.20277775325351
30
0
10
202.9447838999221
20
136.20277775325351
30
0
10
203.16944101646865
20
136.4274348697993
30
0
10
203.16944101646865
20
136.704563467414
30
0
0
LINE
5
668
100
AcDbEntity
8
0
100
AcDbLine
10
202.66765530230813
20
136.20277775325351
30
0
11
189.62122673414052
21
136.20277775325351
31
0
0
SPLINE
5
669
100
AcDbEntity
8
0
100
AcDbSpline
70
0
71
3
72
8
73
4
74
0
42
0.000000001
43
0.0000000001
44
0.0000000001
40
3
40
3
40
3
40
3
40
4
40
4
40
4
40
4
10
189.1194410199806
20
136.704563467414
30
0
10
189.1194410199806
20
136.4274348697993
30
0
10
189.34409813652644
20
136.20277775325351
30
0
10
189.62122673414052
20
136.20277775325351
30
0
0
LINE
5
670
100
AcDbEntity
8
0
100
AcDbLine
10
189.1194410199806
20
136.704563467414
30
0
11
189.1194410199806
21
149.75099203558156
31
0
0
SPLINE
5
671
100
AcDbEntity
8
0
100
AcDbSpline
70
0
71
3
72
8
73
4
74
0
42
0.000000001
43
0.0000000001
44
0.0000000001
40
1
40
1
40
1
40
1
40
2
40
2
40
2
40
2
10
165.80872673413862
20
112.15277774974112
30
0
10
165.53159813652394
20
112.15277774974112
30
0
10
165.30694101997881
20
111.92812063319563
30
0
10
165.30694101997881
20
111.6509920355806
30
0
0
LINE
5
672
100
AcDbEntity
8
0
100
AcDbLine
10
165.80872673413862
20
112.15277774974112
30
0
11
178.85515530230691
21
112.15277774974112
31
0
0
SPLINE
5
673
100
AcDbEntity
8
0
100
AcDbSpline
70
0
71
3
72
8
73
4
74
0
42
0.000000001
43
0.0000000001
44
0.0000000001
40
7
40
7
40
7
40
7
40
8
40
8
40
8
40
8
10
179.35694101646672
20
111.6509920355806
30
0
10
179.35694101646672
20
111.92812063319563
30
0
10
179.13228389992031
20
112.15277774974112
30
0
10
178.85515530230691
20
112.15277774974112
30
0
0
LINE
5
674
100
AcDbEntity
8
0
100
AcDbLine
10
179.35694101646672
20
111.6509920355806
30
0
11
179.35694101646672
21
98.604563467414295
31
0
0
SPLINE
5
675
100
AcDbEntity
8
0
100
AcDbSpline
70
0
71
3
72
8
73
4
74
0
42
0.000000001
43
0.0000000001
44
0.0000000001
40
5
40
5
40
5
40
5
40
6
40
6
40
6
40
6
10
178.85515530230691
20
98.102777753253761
30
0
10
179.13228389992031
20
98.102777753253761
30
0
10
179.35694101646672
20
98.327434869803426
30
0
10
179.35694101646672
20
98.604563467414295
30
0
0
LINE
5
676
100
AcDbEntity
8
0
100
AcDbLine
10
178.85515530230691
20
98.102777753253761
30
0
11
165.80872673413862
21
98.102777753253761
31
0
0
SPLINE
5
677
100
AcDbEntity
8
0
100
AcDbSpline
70
0
71
3
72
8
73
4
74
0
42
0.000000001
43
0.0000000001
44
0.0000000001
40
3
40
3
40
3
40
3
40
4
40
4
40
4
40
4
10
165.30694101997881
20
98.604563467414295
30
0
10
165.30694101997881
20
98.327434869803426
30
0
10
165.53159813652394
20
98.102777753253761
30
0
10
165.80872673413862
20
98.102777753253761
30
0
0
LINE
5
678
100
AcDbEntity
8
0
100
AcDbLine
10
165.30694101997881
20
98.604563467414295
30
0
11
165.30694101997881
21
111.65099203558059
31
0
0
SPLINE
5
679
100
AcDbEntity
8
0
100
AcDbSpline
70
0
71
3
72
8
73
4
74
0
42
0.000000001
43
0.0000000001
44
0.0000000001
40
1
40
1
40
1
40
1
40
2
40
2
40
2
40
2
10
112.68194101646642
20
92.600992035581058
30
0
10
112.68194101646642
20
92.878120633195763
30
0
10
112.4572838999209
20
93.102777749740937
30
0
10
112.18015530230652
20
93.102777749740937
30
0
0
LINE
5
680
100
AcDbEntity
8
0
100
AcDbLine
10
112.68194101646642
20
92.600992035581058
30
0
11
112.68194101646641
21
79.554563467414084
31
0
0
SPLINE
5
681
100
AcDbEntity
8
0
100
AcDbSpline
70
0
71
3
72
8
73
4
74
0
42
0.000000001
43
0.0000000001
44
0.0000000001
40
7
40
7
40
7
40
7
40
8
40
8
40
8
40
8
10
112.18015530230652
20
79.052777753254219
30
0
10
112.4572838999209
20
79.052777753254219
30
0
10
112.68194101646642
20
79.277434869800032
30
0
10
112.68194101646641
20
79.554563467414084
30
0
0
LINE
5
682
100
AcDbEntity
8
0
100
AcDbLine
10
112.18015530230652
20
79.052777753254219
30
0
11
99.133726734138904
21
79.052777753254219
31
0
0
SPLINE
5
683
100
AcDbEntity
8
0
100
AcDbSpline
70
0
71
3
72
8
73
4
74
0
42
0.000000001
43
0.0000000001
44
0.0000000001
40
5
40
5
40
5
40
5
40
6
40
6
40
6
40
6
10
98.631941019979052
20
79.554563467414084
30
0
10
98.631941019979052
20
79.277434869800032
30
0
10
98.856598136524525
20
79.052777753254219
30
0
10
99.133726734138904
20
79.052777753254219
30
0
0
LINE
5
684
100
AcDbEntity
8
0
100
AcDbLine
10
98.631941019979052
20
79.554563467414084
30
0
11
98.631941019979052
21
92.600992035581058
31
0
0
SPLINE
5
685
100
AcDbEntity
8
0
100
AcDbSpline
70
0
71
3
72
8
73
4
74
0
42
0.000000001
43
0.0000000001
44
0.0000000001
40
3
40
3
40
3
40
3
40
4
40
4
40
4
40
4
10
99.133726734138904
20
93.102777749740937
30
0
10
98.856598136524525
20
93.102777749740937
30
0
10
98.631941019979052
20
92.878120633195763
30
0
10
98.631941019979052
20
92.600992035581058
30
0
0
LINE
5
686
100
AcDbEntity
8
0
100
AcDbLine
10
99.133726734138904
20
93.102777749740937
30
0
11
112.1801553023065
21
93.102777749740909
31
0
0
SPLINE
5
687
100
AcDbEntity
8
0
100
AcDbSpline
70
0
71
3
72
8
73
4
74
0
42
0.000000001
43
0.0000000001
44
0.0000000001
40
1
40
1
40
1
40
1
40
2
40
2
40
2
40
2
10
284.87122673414137
20
131.20277774974136
30
0
10
284.59409813652672
20
131.20277774974136
30
0
10
284.36944101998029
20
130.9781206331958
30
0
10
284.36944101998029
20
130.70099203558081
30
0
0
LINE
5
688
100
AcDbEntity
8
0
100
AcDbLine
10
284.87122673414137
20
131.20277774974136
30
0
11
297.91765530230782
21
131.20277774974136
31
0
0
SPLINE
5
689
100
AcDbEntity
8
0
100
AcDbSpline
70
0
71
3
72
8
73
4
74
0
42
0.000000001
43
0.0000000001
44
0.0000000001
40
7
40
7
40
7
40
7
40
8
40
8
40
8
40
8
10
298.41944101646834
20
130.70099203558081
30
0
10
298.41944101646834
20
130.9781206331958
30
0
10
298.19478389991917
20
131.20277774974136
30
0
10
297.91765530230782
20
131.20277774974136
30
0
0
LINE
5
690
100
AcDbEntity
8
0
100
AcDbLine
10
298.41944101646834
20
130.70099203558081
30
0
11
298.41944101646834
21
117.65456346741452
31
0
0
SPLINE
5
691
100
AcDbEntity
8
0
100
AcDbSpline
70
0
71
3
72
8
73
4
74
0
42
0.000000001
43
0.0000000001
44
0.0000000001
40
5
40
5
40
5
40
5
40
6
40
6
40
6
40
6
10
297.91765530230782
20
117.15277775325401
30
0
10
298.19478389991917
20
117.15277775325401
30
0
10
298.41944101646834
20
117.3774348697994
30
0
10
298.41944101646834
20
117.65456346741452
30
0
0
LINE
5
692
100
AcDbEntity
8
0
100
AcDbLine
10
297.91765530230782
20
117.15277775325401
30
0
11
284.87122673414137
21
117.15277775325401
31
0
0
SPLINE
5
693
100
AcDbEntity
8
0
100
AcDbSpline
70
0
71
3
72
8
73
4
74
0
42
0.000000001
43
0.0000000001
44
0.0000000001
40
3
40
3
40
3
40
3
40
4
40
4
40
4
40
4
10
284.36944101998029
20
117.65456346741452
30
0
10
284.36944101998029
20
117.3774348697994
30
0
10
284.59409813652672
20
117.15277775325401
30
0
10
284.87122673414137
20
117.15277775325401
30
0
0
LINE
5
694
100
AcDbEntity
8
0
100
AcDbLine
10
284.36944101998029
20
117.65456346741452
30
0
11
284.36944101998029
21
130.70099203558078
31
0
0
SPLINE
5
695
100
AcDbEntity
8
0
100
AcDbSpline
70
0
71
3
72
8
73
4
74
0
42
0.000000001
43
0.0000000001
44
0.0000000001
40
1
40
1
40
1
40
1
40
2
40
2
40
2
40
2
10
108.65872673413961
20
112.15277774974082
30
0
10
108.3815981365246
20
112.15277774974082
30
0
10
108.1569410199788
20
111.92812063319531
30
0
10
108.1569410199788
20
111.6509920355806
30
0
0
LINE
5
696
100
AcDbEntity
8
0
100
AcDbLine
10
108.65872673413961
20
112.15277774974082
30
0
11
121.70515530230531
21
112.15277774974082
31
0
0
SPLINE
5
697
100
AcDbEntity
8
0
100
AcDbSpline
70
0
71
3
72
8
73
4
74
0
42
0.000000001
43
0.0000000001
44
0.0000000001
40
7
40
7
40
7
40
7
40
8
40
8
40
8
40
8
10
122.20694101646622
20
111.6509920355806
30
0
10
122.20694101646622
20
111.92812063319531
30
0
10
121.98228389992042
20
112.15277774974082
30
0
10
121.70515530230531
20
112.15277774974082
30
0
0
LINE
5
698
100
AcDbEntity
8
0
100
AcDbLine
10
122.20694101646622
20
111.6509920355806
30
0
11
122.20694101646622
21
98.604563467414295
31
0
0
SPLINE
5
699
100
AcDbEntity
8
0
100
AcDbSpline
70
0
71
3
72
8
73
4
74
0
42
0.000000001
43
0.0000000001
44
0.0000000001
40
5
40
5
40
5
40
5
40
6
40
6
40
6
40
6
10
121.70515530230531
20
98.102777753253761
30
0
10
121.98228389992042
20
98.102777753253761
30
0
10
122.20694101646622
20
98.327434869803426
30
0
10
122.20694101646622
20
98.604563467414295
30
0
0
LINE
5
700
100
AcDbEntity
8
0
100
AcDbLine
10
121.70515530230531
20
98.102777753253761
30
0
11
108.65872673413961
21
98.102777753253761
31
0
0
SPLINE
5
701
100
AcDbEntity
8
0
100
AcDbSpline
70
0
71
3
72
8
73
4
74
0
42
0.000000001
43
0.0000000001
44
0.0000000001
40
3
40
3
40
3
40
3
40
4
40
4
40
4
40
4
10
108.1569410199788
20
98.604563467414295
30
0
10
108.1569410199788
20
98.327434869803426
30
0
10
108.3815981365246
20
98.102777753253761
30
0
10
108.65872673413961
20
98.102777753253761
30
0
0
LINE
5
702
100
AcDbEntity
8
0
100
AcDbLine
10
108.1569410199788
20
98.604563467414295
30
0
11
108.15694101997883
21
111.65099203558059
31
0
0
SPLINE
5
703
100
AcDbEntity
8
0
100
AcDbSpline
70
0
71
3
72
8
73
4
74
0
42
0.000000001
43
0.0000000001
44
0.0000000001
40
1
40
1
40
1
40
1
40
2
40
2
40
2
40
2
10
170.57122673414031
20
150.2527777497418
30
0
10
170.29409813652691
20
150.2527777497418
30
0
10
170.06944101998042
20
150.02812063319601
30
0
10
170.06944101998042
20
149.75099203558131
30
0
0
LINE
5
704
100
AcDbEntity
8
0
100
AcDbLine
10
170.57122673414031
20
150.2527777497418
30
0
11
183.61765530231111
21
150.2527777497418
31
0
0
SPLINE
5
705
100
AcDbEntity
8
0
100
AcDbSpline
70
0
71
3
72
8
73
4
74
0
42
0.000000001
43
0.0000000001
44
0.0000000001
40
7
40
7
40
7
40
7
40
8
40
8
40
8
40
8
10
184.11944101646779
20
149.75099203558131
30
0
10
184.11944101646779
20
150.02812063319601
30
0
10
183.89478389992001
20
150.2527777497418
30
0
10
183.61765530231111
20
150.2527777497418
30
0
0
LINE
5
706
100
AcDbEntity
8
0
100
AcDbLine
10
184.11944101646779
20
149.75099203558131
30
0
11
184.11944101646779
21
136.704563467414
31
0
0
SPLINE
5
707
100
AcDbEntity
8
0
100
AcDbSpline
70
0
71
3
72
8
73
4
74
0
42
0.000000001
43
0.0000000001
44
0.0000000001
40
5
40
5
40
5
40
5
40
6
40
6
40
6
40
6
10
183.61765530231111
20
136.20277775325351
30
0
10
183.89478389992001
20
136.20277775325351
30
0
10
184.11944101646779
20
136.4274348697993
30
0
10
184.11944101646779
20
136.704563467414
30
0
0
LINE
5
708
100
AcDbEntity
8
0
100
AcDbLine
10
183.61765530231111
20
136.20277775325351
30
0
11
170.57122673414031
21
136.20277775325351
31
0
0
SPLINE
5
709
100
AcDbEntity
8
0
100
AcDbSpline
70
0
71
3
72
8
73
4
74
0
42
0.000000001
43
0.0000000001
44
0.0000000001
40
3
40
3
40
3
40
3
40
4
40
4
40
4
40
4
10
170.06944101998042
20
136.704563467414
30
0
10
170.06944101998042
20
136.4274348697993
30
0
10
170.29409813652691
20
136.20277775325351
30
0
10
170.57122673414031
20
136.20277775325351
30
0
0
LINE
5
710
100
AcDbEntity
8
0
100
AcDbLine
10
170.06944101998042
20
136.704563467414
30
0
11
170.06944101998042
21
149.75099203558128
31
0
0
SPLINE
5
711
100
AcDbEntity
8
0
100
AcDbSpline
70
0
71
3
72
8
73
4
74
0
42
0.000000001
43
0.0000000001
44
0.0000000001
40
1
40
1
40
1
40
1
40
2
40
2
40
2
40
2
10
93.6319410164662
20
92.600992035581058
30
0
10
93.6319410164662
20
92.878120633195763
30
0
10
93.407283899921353
20
93.102777749740937
30
0
10
93.130155302306321
20
93.102777749740937
30
0
0
LINE
5
712
100
AcDbEntity
8
0
100
AcDbLine
10
93.6319410164662
20
92.600992035581058
30
0
11
93.631941016466214
21
79.554563467414084
31
0
0
SPLINE
5
713
100
AcDbEntity
8
0
100
AcDbSpline
70
0
71
3
72
8
73
4
74
0
42
0.000000001
43
0.0000000001
44
0.0000000001
40
7
40
7
40
7
40
7
40
8
40
8
40
8
40
8
10
93.130155302306321
20
79.052777753254219
30
0
10
93.407283899921353
20
79.052777753254219
30
0
10
93.6319410164662
20
79.277434869800032
30
0
10
93.631941016466214
20
79.554563467414084
30
0
0
LINE
5
714
100
AcDbEntity
8
0
100
AcDbLine
10
93.130155302306321
20
79.052777753254219
30
0
11
80.083726734139361
21
79.052777753254219
31
0
0
SPLINE
5
715
100
AcDbEntity
8
0
100
AcDbSpline
70
0
71
3
72
8
73
4
74
0
42
0.000000001
43
0.0000000001
44
0.0000000001
40
5
40
5
40
5
40
5
40
6
40
6
40
6
40
6
10
79.581941019978842
20
79.554563467414084
30
0
10
79.581941019978842
20
79.277434869800032
30
0
10
79.806598136524343
20
79.052777753254219
30
0
10
80.083726734139361
20
79.052777753254219
30
0
0
LINE
5
716
100
AcDbEntity
8
0
100
AcDbLine
10
79.581941019978842
20
79.554563467414084
30
0
11
79.581941019978842
21
92.600992035581058
31
0
0
SPLINE
5
717
100
AcDbEntity
8
0
100
AcDbSpline
70
0
71
3
72
8
73
4
74
0
42
0.000000001
43
0.0000000001
44
0.0000000001
40
3
40
3
40
3
40
3
40
4
40
4
40
4
40
4
10
80.083726734139361
20
93.102777749740937
30
0
10
79.806598136524343
20
93.102777749740937
30
0
10
79.581941019978842
20
92.878120633195763
30
0
10
79.581941019978842
20
92.600992035581058
30
0
0
LINE
5
718
100
AcDbEntity
8
0
100
AcDbLine
10
80.083726734139361
20
93.102777749740937
30
0
11
93.130155302306306
21
93.102777749740909
31
0
0
SPLINE
5
719
100
AcDbEntity
8
0
100
AcDbSpline
70
0
71
3
72
8
73
4
74
0
42
0.000000001
43
0.0000000001
44
0.0000000001
40
1
40
1
40
1
40
1
40
2
40
2
40
2
40
2
10
213.45694101822332
20
74.027777751497638
30
0
10
213.18079864330622
20
74.027777751497638
30
0
10
212.95694101822232
20
73.803920126414368
30
0
10
212.95694101822232
20
73.527777751497297
30
0
0
LINE
5
720
100
AcDbEntity
8
0
100
AcDbLine
10
213.45694101822332
20
74.027777751497638
30
0
11
228.83819101822331
21
74.027777751497638
31
0
0
SPLINE
5
721
100
AcDbEntity
8
0
100
AcDbSpline
70
0
71
3
72
8
73
4
74
0
42
0.000000001
43
0.0000000001
44
0.0000000001
40
7
40
7
40
7
40
7
40
8
40
8
40
8
40
8
10
229.33819101822303
20
73.527777751497297
30
0
10
229.33819101822303
20
73.803920126414368
30
0
10
229.11433339313984
20
74.027777751497638
30
0
10
228.83819101822331
20
74.027777751497638
30
0
0
LINE
5
722
100
AcDbEntity
8
0
100
AcDbLine
10
229.33819101822303
20
73.527777751497297
30
0
11
229.33819101822303
21
60.527777751497467
31
0
0
SPLINE
5
723
100
AcDbEntity
8
0
100
AcDbSpline
70
0
71
3
72
8
73
4
74
0
42
0.000000001
43
0.0000000001
44
0.0000000001
40
5
40
5
40
5
40
5
40
6
40
6
40
6
40
6
10
228.83819101822331
20
60.027777751497773
30
0
10
229.11433339313984
20
60.027777751497773
30
0
10
229.33819101822303
20
60.251635376581667
30
0
10
229.33819101822303
20
60.527777751497467
30
0
0
LINE
5
724
100
AcDbEntity
8
0
100
AcDbLine
10
228.83819101822331
20
60.027777751497773
30
0
11
213.45694101822332
21
60.027777751497773
31
0
0
SPLINE
5
725
100
AcDbEntity
8
0
100
AcDbSpline
70
0
71
3
72
8
73
4
74
0
42
0.000000001
43
0.0000000001
44
0.0000000001
40
3
40
3
40
3
40
3
40
4
40
4
40
4
40
4
10
212.95694101822232
20
60.527777751497467
30
0
10
212.95694101822232
20
60.251635376581667
30
0
10
213.18079864330622
20
60.027777751497773
30
0
10
213.45694101822332
20
60.027777751497773
30
0
0
LINE
5
726
100
AcDbEntity
8
0
100
AcDbLine
10
212.95694101822232
20
60.527777751497467
30
0
11
212.95694101822227
21
73.527777751497297
31
0
0
SPLINE
5
727
100
AcDbEntity
8
0
100
AcDbSpline
70
0
71
3
72
8
73
4
74
0
42
0.000000001
43
0.0000000001
44
0.0000000001
40
1
40
1
40
1
40
1
40
2
40
2
40
2
40
2
10
284.87122673414137
20
150.25277774974151
30
0
10
284.59409813652672
20
150.25277774974151
30
0
10
284.36944101998029
20
150.0281206331957
30
0
10
284.36944101998029
20
149.75099203558099
30
0
0
LINE
5
728
100
AcDbEntity
8
0
100
AcDbLine
10
284.87122673414137
20
150.25277774974151
30
0
11
297.91765530230782
21
150.25277774974151
31
0
0
SPLINE
5
729
100
AcDbEntity
8
0
100
AcDbSpline
70
0
71
3
72
8
73
4
74
0
42
0.000000001
43
0.0000000001
44
0.0000000001
40
7
40
7
40
7
40
7
40
8
40
8
40
8
40
8
10
298.41944101646834
20
149.75099203558099
30
0
10
298.41944101646834
20
150.0281206331957
30
0
10
298.19478389991917
20
150.25277774974151
30
0
10
297.91765530230782
20
150.25277774974151
30
0
0
LINE
5
730
100
AcDbEntity
8
0
100
AcDbLine
10
298.41944101646834
20
149.75099203558099
30
0
11
298.41944101646834
21
136.70456346741429
31
0
0
SPLINE
5
731
100
AcDbEntity
8
0
100
AcDbSpline
70
0
71
3
72
8
73
4
74
0
42
0.000000001
43
0.0000000001
44
0.0000000001
40
5
40
5
40
5
40
5
40
6
40
6
40
6
40
6
10
297.91765530230782
20
136.2027777532538
30
0
10
298.19478389991917
20
136.2027777532538
30
0
10
298.41944101646834
20
136.42743486979961
30
0
10
298.41944101646834
20
136.70456346741429
30
0
0
LINE
5
732
100
AcDbEntity
8
0
100
AcDbLine
10
297.91765530230782
20
136.2027777532538
30
0
11
284.87122673414137
21
136.2027777532538
31
0
0
SPLINE
5
733
100
AcDbEntity
8
0
100
AcDbSpline
70
0
71
3
72
8
73
4
74
0
42
0.000000001
43
0.0000000001
44
0.0000000001
40
3
40
3
40
3
40
3
40
4
40
4
40
4
40
4
10
284.36944101998029
20
136.70456346741429
30
0
10
284.36944101998029
20
136.42743486979961
30
0
10
284.59409813652672
20
136.2027777532538
30
0
10
284.87122673414137
20
136.2027777532538
30
0
0
LINE
5
734
100
AcDbEntity
8
0
100
AcDbLine
10
284.36944101998029
20
136.70456346741429
30
0
11
284.36944101998029
21
149.75099203558099
31
0
0
SPLINE
5
735
100
AcDbEntity
8
0
100
AcDbSpline
70
0
71
3
72
8
73
4
74
0
42
0.000000001
43
0.0000000001
44
0.0000000001
40
0
40
0
40
0
40
0
40
1
40
1
40
1
40
1
10
46.746226734141267
20
131.20277774974136
30
0
10
46.469098136526242
20
131.20277774974136
30
0
10
46.244441019980442
20
130.97812063319549
30
0
10
46.244441019980442
20
130.7009920355805
30
0
0
LINE
5
736
100
AcDbEntity
8
0
100
AcDbLine
10
46.746226734141267
20
131.20277774974136
30
0
11
59.792655302306954
21
131.20277774974136
31
0
0
SPLINE
5
737
100
AcDbEntity
8
0
100
AcDbSpline
70
0
71
3
72
8
73
4
74
0
42
0.000000001
43
0.0000000001
44
0.0000000001
40
2
40
2
40
2
40
2
40
3
40
3
40
3
40
3
10
60.2944410164678
20
130.7009920355805
30
0
10
60.2944410164678
20
130.97812063319549
30
0
10
60.06978389991783
20
131.20277774974136
30
0
10
59.792655302306954
20
131.20277774974136
30
0
0
LINE
5
738
100
AcDbEntity
8
0
100
AcDbLine
10
60.2944410164678
20
130.7009920355805
30
0
11
60.2944410164678
21
117.65456346741513
31
0
0
SPLINE
5
739
100
AcDbEntity
8
0
100
AcDbSpline
70
0
71
3
72
8
73
4
74
0
42
0.000000001
43
0.0000000001
44
0.0000000001
40
4
40
4
40
4
40
4
40
5
40
5
40
5
40
5
10
59.792655302306947
20
117.15277775325461
30
0
10
60.06978389991783
20
117.15277775325461
30
0
10
60.2944410164678
20
117.3774348697998
30
0
10
60.2944410164678
20
117.65456346741513
30
0
0
LINE
5
740
100
AcDbEntity
8
0
100
AcDbLine
10
59.792655302306947
20
117.15277775325461
30
0
11
46.746226734141267
21
117.15277775325461
31
0
0
SPLINE
5
741
100
AcDbEntity
8
0
100
AcDbSpline
70
0
71
3
72
8
73
4
74
0
42
0.000000001
43
0.0000000001
44
0.0000000001
40
6
40
6
40
6
40
6
40
7
40
7
40
7
40
7
10
46.244441019980442
20
117.65456346741513
30
0
10
46.244441019980442
20
117.3774348697998
30
0
10
46.469098136526242
20
117.15277775325461
30
0
10
46.746226734141267
20
117.15277775325461
30
0
0
LINE
5
742
100
AcDbEntity
8
0
100
AcDbLine
10
46.244441019980442
20
117.65456346741513
30
0
11
46.244441019980442
21
130.7009920355805
31
0
0
SPLINE
5
743
100
AcDbEntity
8
0
100
AcDbSpline
70
0
71
3
72
8
73
4
74
0
42
0.000000001
43
0.0000000001
44
0.0000000001
40
1
40
1
40
1
40
1
40
2
40
2
40
2
40
2
10
174.59444101646829
20
130.70099203558141
30
0
10
174.59444101646829
20
130.97812063319654
30
0
10
174.36978389991933
20
131.20277774974201
30
0
10
174.0926553023078
20
131.20277774974201
30
0
0
LINE
5
744
100
AcDbEntity
8
0
100
AcDbLine
10
174.59444101646829
20
130.70099203558141
30
0
11
174.59444101646829
21
117.65456346741381
31
0
0
SPLINE
5
745
100
AcDbEntity
8
0
100
AcDbSpline
70
0
71
3
72
8
73
4
74
0
42
0.000000001
43
0.0000000001
44
0.0000000001
40
7
40
7
40
7
40
7
40
8
40
8
40
8
40
8
10
174.0926553023078
20
117.15277775325332
30
0
10
174.36978389991933
20
117.15277775325332
30
0
10
174.59444101646829
20
117.3774348697988
30
0
10
174.59444101646829
20
117.65456346741381
30
0
0
LINE
5
746
100
AcDbEntity
8
0
100
AcDbLine
10
174.0926553023078
20
117.15277775325332
30
0
11
161.04622673413954
21
117.15277775325332
31
0
0
SPLINE
5
747
100
AcDbEntity
8
0
100
AcDbSpline
70
0
71
3
72
8
73
4
74
0
42
0.000000001
43
0.0000000001
44
0.0000000001
40
5
40
5
40
5
40
5
40
6
40
6
40
6
40
6
10
160.5444410199803
20
117.65456346741381
30
0
10
160.5444410199803
20
117.3774348697988
30
0
10
160.76909813652551
20
117.15277775325332
30
0
10
161.04622673413954
20
117.15277775325332
30
0
0
LINE
5
748
100
AcDbEntity
8
0
100
AcDbLine
10
160.5444410199803
20
117.65456346741381
30
0
11
160.5444410199803
21
130.70099203558141
31
0
0
SPLINE
5
749
100
AcDbEntity
8
0
100
AcDbSpline
70
0
71
3
72
8
73
4
74
0
42
0.000000001
43
0.0000000001
44
0.0000000001
40
3
40
3
40
3
40
3
40
4
40
4
40
4
40
4
10
161.04622673413954
20
131.20277774974201
30
0
10
160.76909813652551
20
131.20277774974201
30
0
10
160.5444410199803
20
130.97812063319654
30
0
10
160.5444410199803
20
130.70099203558141
30
0
0
LINE
5
750
100
AcDbEntity
8
0
100
AcDbLine
10
161.04622673413954
20
131.20277774974201
30
0
11
174.09265530230783
21
131.20277774974201
31
0
0
SPLINE
5
751
100
AcDbEntity
8
0
100
AcDbSpline
70
0
71
3
72
8
73
4
74
0
42
0.000000001
43
0.0000000001
44
0.0000000001
40
1
40
1
40
1
40
1
40
2
40
2
40
2
40
2
10
227.72122673413949
20
150.25277774974211
30
0
10
227.44409813652553
20
150.25277774974211
30
0
10
227.21944101998034
20
150.02812063319641
30
0
10
227.21944101998034
20
149.75099203558159
30
0
0
LINE
5
752
100
AcDbEntity
8
0
100
AcDbLine
10
227.72122673413949
20
150.25277774974211
30
0
11
240.76765530230779
21
150.25277774974211
31
0
0
SPLINE
5
753
100
AcDbEntity
8
0
100
AcDbSpline
70
0
71
3
72
8
73
4
74
0
42
0.000000001
43
0.0000000001
44
0.0000000001
40
7
40
7
40
7
40
7
40
8
40
8
40
8
40
8
10
241.26944101646831
20
149.75099203558159
30
0
10
241.26944101646831
20
150.02812063319641
30
0
10
241.04478389991931
20
150.25277774974211
30
0
10
240.76765530230779
20
150.25277774974211
30
0
0
LINE
5
754
100
AcDbEntity
8
0
100
AcDbLine
10
241.26944101646831
20
149.75099203558159
30
0
11
241.26944101646831
21
136.70456346741369
31
0
0
SPLINE
5
755
100
AcDbEntity
8
0
100
AcDbSpline
70
0
71
3
72
8
73
4
74
0
42
0.000000001
43
0.0000000001
44
0.0000000001
40
5
40
5
40
5
40
5
40
6
40
6
40
6
40
6
10
240.76765530230779
20
136.2027777532532
30
0
10
241.04478389991931
20
136.2027777532532
30
0
10
241.26944101646831
20
136.42743486979899
30
0
10
241.26944101646831
20
136.70456346741369
30
0
0
LINE
5
756
100
AcDbEntity
8
0
100
AcDbLine
10
240.76765530230779
20
136.2027777532532
30
0
11
227.72122673413949
21
136.2027777532532
31
0
0
SPLINE
5
757
100
AcDbEntity
8
0
100
AcDbSpline
70
0
71
3
72
8
73
4
74
0
42
0.000000001
43
0.0000000001
44
0.0000000001
40
3
40
3
40
3
40
3
40
4
40
4
40
4
40
4
10
227.21944101998034
20
136.70456346741369
30
0
10
227.21944101998034
20
136.42743486979899
30
0
10
227.44409813652553
20
136.2027777532532
30
0
10
227.72122673413949
20
136.2027777532532
30
0
0
LINE
5
758
100
AcDbEntity
8
0
100
AcDbLine
10
227.21944101998034
20
136.70456346741369
30
0
11
227.21944101998034
21
149.75099203558156
31
0
0
SPLINE
5
759
100
AcDbEntity
8
0
100
AcDbSpline
70
0
71
3
72
8
73
4
74
0
42
0.000000001
43
0.0000000001
44
0.0000000001
40
1
40
1
40
1
40
1
40
2
40
2
40
2
40
2
10
61.033726734139506
20
93.102777749740937
30
0
10
60.756598136524786
20
93.102777749740937
30
0
10
60.53194101997866
20
92.878120633195124
30
0
10
60.53194101997866
20
92.600992035581058
30
0
0
LINE
5
760
100
AcDbEntity
8
0
100
AcDbLine
10
61.033726734139506
20
93.102777749740937
30
0
11
74.080155302305798
21
93.102777749740937
31
0
0
SPLINE
5
761
100
AcDbEntity
8
0
100
AcDbSpline
70
0
71
3
72
8
73
4
74
0
42
0.000000001
43
0.0000000001
44
0.0000000001
40
7
40
7
40
7
40
7
40
8
40
8
40
8
40
8
10
74.581941016466331
20
92.600992035581058
30
0
10
74.581941016466331
20
92.878120633195124
30
0
10
74.357283899920532
20
93.102777749740937
30
0
10
74.080155302305798
20
93.102777749740937
30
0
0
LINE
5
762
100
AcDbEntity
8
0
100
AcDbLine
10
74.581941016466331
20
92.600992035581058
30
0
11
74.581941016466331
21
79.554563467414084
31
0
0
SPLINE
5
763
100
AcDbEntity
8
0
100
AcDbSpline
70
0
71
3
72
8
73
4
74
0
42
0.000000001
43
0.0000000001
44
0.0000000001
40
5
40
5
40
5
40
5
40
6
40
6
40
6
40
6
10
74.080155302305826
20
79.052777753254219
30
0
10
74.357283899920532
20
79.052777753254219
30
0
10
74.581941016466331
20
79.277434869800032
30
0
10
74.581941016466331
20
79.554563467414084
30
0
0
LINE
5
764
100
AcDbEntity
8
0
100
AcDbLine
10
74.080155302305826
20
79.052777753254219
30
0
11
61.033726734139506
21
79.052777753254219
31
0
0
SPLINE
5
765
100
AcDbEntity
8
0
100
AcDbSpline
70
0
71
3
72
8
73
4
74
0
42
0.000000001
43
0.0000000001
44
0.0000000001
40
3
40
3
40
3
40
3
40
4
40
4
40
4
40
4
10
60.53194101997866
20
79.554563467414084
30
0
10
60.53194101997866
20
79.277434869800032
30
0
10
60.756598136524786
20
79.052777753254219
30
0
10
61.033726734139506
20
79.052777753254219
30
0
0
LINE
5
766
100
AcDbEntity
8
0
100
AcDbLine
10
60.53194101997866
20
79.554563467414084
30
0
11
60.53194101997866
21
92.600992035581044
31
0
0
SPLINE
5
767
100
AcDbEntity
8
0
100
AcDbSpline
70
0
71
3
72
8
73
4
74
0
42
0.000000001
43
0.0000000001
44
0.0000000001
40
0
40
0
40
0
40
0
40
1
40
1
40
1
40
1
10
284.87122673414137
20
112.15277774974112
30
0
10
284.59409813652672
20
112.15277774974112
30
0
10
284.36944101998029
20
111.92812063319563
30
0
10
284.36944101998029
20
111.6509920355806
30
0
0
LINE
5
768
100
AcDbEntity
8
0
100
AcDbLine
10
284.87122673414137
20
112.15277774974112
30
0
11
297.91765530230782
21
112.15277774974112
31
0
0
SPLINE
5
769
100
AcDbEntity
8
0
100
AcDbSpline
70
0
71
3
72
8
73
4
74
0
42
0.000000001
43
0.0000000001
44
0.0000000001
40
2
40
2
40
2
40
2
40
3
40
3
40
3
40
3
10
298.41944101646834
20
111.6509920355806
30
0
10
298.41944101646834
20
111.92812063319563
30
0
10
298.19478389991917
20
112.15277774974112
30
0
10
297.91765530230782
20
112.15277774974112
30
0
0
LINE
5
770
100
AcDbEntity
8
0
100
AcDbLine
10
298.41944101646834
20
111.6509920355806
30
0
11
298.41944101646834
21
98.604563467414295
31
0
0
SPLINE
5
771
100
AcDbEntity
8
0
100
AcDbSpline
70
0
71
3
72
8
73
4
74
0
42
0.000000001
43
0.0000000001
44
0.0000000001
40
4
40
4
40
4
40
4
40
5
40
5
40
5
40
5
10
297.91765530230782
20
98.102777753253761
30
0
10
298.19478389991917
20
98.102777753253761
30
0
10
298.41944101646834
20
98.327434869803426
30
0
10
298.41944101646834
20
98.604563467414295
30
0
0
LINE
5
772
100
AcDbEntity
8
0
100
AcDbLine
10
297.91765530230782
20
98.102777753253761
30
0
11
284.87122673414137
21
98.102777753253761
31
0
0
SPLINE
5
773
100
AcDbEntity
8
0
100
AcDbSpline
70
0
71
3
72
8
73
4
74
0
42
0.000000001
43
0.0000000001
44
0.0000000001
40
6
40
6
40
6
40
6
40
7
40
7
40
7
40
7
10
284.36944101998029
20
98.604563467414295
30
0
10
284.36944101998029
20
98.327434869803426
30
0
10
284.59409813652672
20
98.102777753253761
30
0
10
284.87122673414137
20
98.102777753253761
30
0
0
LINE
5
774
100
AcDbEntity
8
0
100
AcDbLine
10
284.36944101998029
20
98.604563467414295
30
0
11
284.36944101998029
21
111.65099203558059
31
0
0
SPLINE
5
775
100
AcDbEntity
8
0
100
AcDbSpline
70
0
71
3
72
8
73
4
74
0
42
0.000000001
43
0.0000000001
44
0.0000000001
40
1
40
1
40
1
40
1
40
2
40
2
40
2
40
2
10
49.150691018221828
20
74.027777751497638
30
0
10
48.87454864330924
20
74.027777751497638
30
0
10
48.650691018221494
20
73.803920126414368
30
0
10
48.650691018221494
20
73.527777751497297
30
0
0
LINE
5
776
100
AcDbEntity
8
0
100
AcDbLine
10
49.150691018221828
20
74.027777751497638
30
0
11
64.531941018222483
21
74.027777751497638
31
0
0
SPLINE
5
777
100
AcDbEntity
8
0
100
AcDbSpline
70
0
71
3
72
8
73
4
74
0
42
0.000000001
43
0.0000000001
44
0.0000000001
40
7
40
7
40
7
40
7
40
8
40
8
40
8
40
8
10
65.031941018222156
20
73.527777751497297
30
0
10
65.031941018222156
20
73.803920126414368
30
0
10
64.808083393138901
20
74.027777751497638
30
0
10
64.531941018222483
20
74.027777751497638
30
0
0
LINE
5
778
100
AcDbEntity
8
0
100
AcDbLine
10
65.031941018222156
20
73.527777751497297
30
0
11
65.031941018222156
21
60.527777751497467
31
0
0
SPLINE
5
779
100
AcDbEntity
8
0
100
AcDbSpline
70
0
71
3
72
8
73
4
74
0
42
0.000000001
43
0.0000000001
44
0.0000000001
40
5
40
5
40
5
40
5
40
6
40
6
40
6
40
6
10
64.531941018222469
20
60.027777751497773
30
0
10
64.808083393138901
20
60.027777751497773
30
0
10
65.031941018222156
20
60.251635376581667
30
0
10
65.031941018222156
20
60.527777751497467
30
0
0
LINE
5
780
100
AcDbEntity
8
0
100
AcDbLine
10
64.531941018222469
20
60.027777751497773
30
0
11
49.150691018221828
21
60.027777751497773
31
0
0
SPLINE
5
781
100
AcDbEntity
8
0
100
AcDbSpline
70
0
71
3
72
8
73
4
74
0
42
0.000000001
43
0.0000000001
44
0.0000000001
40
3
40
3
40
3
40
3
40
4
40
4
40
4
40
4
10
48.650691018221494
20
60.527777751497467
30
0
10
48.650691018221494
20
60.251635376581667
30
0
10
48.87454864330924
20
60.027777751497773
30
0
10
49.150691018221828
20
60.027777751497773
30
0
0
LINE
5
782
100
AcDbEntity
8
0
100
AcDbLine
10
48.650691018221494
20
60.527777751497467
30
0
11
48.650691018221494
21
73.527777751497297
31
0
0
SPLINE
5
783
100
AcDbEntity
8
0
100
AcDbSpline
70
0
71
3
72
8
73
4
74
0
42
0.000000001
43
0.0000000001
44
0.0000000001
40
0
40
0
40
0
40
0
40
1
40
1
40
1
40
1
10
25.338191018223831
20
74.027777751497638
30
0
10
25.062048643307389
20
74.027777751497638
30
0
10
24.83819101822349
20
73.803920126414368
30
0
10
24.83819101822349
20
73.527777751497297
30
0
0
LINE
5
784
100
AcDbEntity
8
0
100
AcDbLine
10
25.338191018223831
20
74.027777751497638
30
0
11
40.719441018223833
21
74.027777751497638
31
0
0
SPLINE
5
785
100
AcDbEntity
8
0
100
AcDbSpline
70
0
71
3
72
8
73
4
74
0
42
0.000000001
43
0.0000000001
44
0.0000000001
40
2
40
2
40
2
40
2
40
3
40
3
40
3
40
3
10
41.219441018224174
20
73.527777751497297
30
0
10
41.219441018224174
20
73.803920126414368
30
0
10
40.995583393137061
20
74.027777751497638
30
0
10
40.719441018223833
20
74.027777751497638
30
0
0
LINE
5
786
100
AcDbEntity
8
0
100
AcDbLine
10
41.219441018224174
20
73.527777751497297
30
0
11
41.219441018224174
21
60.527777751497467
31
0
0
SPLINE
5
787
100
AcDbEntity
8
0
100
AcDbSpline
70
0
71
3
72
8
73
4
74
0
42
0.000000001
43
0.0000000001
44
0.0000000001
40
4
40
4
40
4
40
4
40
5
40
5
40
5
40
5
10
40.719441018223833
20
60.027777751497773
30
0
10
40.995583393137061
20
60.027777751497773
30
0
10
41.219441018224174
20
60.251635376581667
30
0
10
41.219441018224174
20
60.527777751497467
30
0
0
LINE
5
788
100
AcDbEntity
8
0
100
AcDbLine
10
40.719441018223833
20
60.027777751497773
30
0
11
25.338191018223831
21
60.027777751497773
31
0
0
SPLINE
5
789
100
AcDbEntity
8
0
100
AcDbSpline
70
0
71
3
72
8
73
4
74
0
42
0.000000001
43
0.0000000001
44
0.0000000001
40
6
40
6
40
6
40
6
40
7
40
7
40
7
40
7
10
24.83819101822349
20
60.527777751497467
30
0
10
24.83819101822349
20
60.251635376581667
30
0
10
25.062048643307389
20
60.027777751497773
30
0
10
25.338191018223831
20
60.027777751497773
30
0
0
LINE
5
790
100
AcDbEntity
8
0
100
AcDbLine
10
24.83819101822349
20
60.527777751497467
30
0
11
24.83819101822349
21
73.527777751497297
31
0
0
SPLINE
5
791
100
AcDbEntity
8
0
100
AcDbSpline
70
0
71
3
72
8
73
4
74
0
42
0.000000001
43
0.0000000001
44
0.0000000001
40
1
40
1
40
1
40
1
40
2
40
2
40
2
40
2
10
51.508726734139394
20
112.15277774974182
30
0
10
51.231598136524042
20
112.15277774974182
30
0
10
51.006941019978882
20
111.928120633196
30
0
10
51.006941019978882
20
111.65099203558121
30
0
0
LINE
5
792
100
AcDbEntity
8
0
100
AcDbLine
10
51.508726734139394
20
112.15277774974182
30
0
11
64.555155302306048
21
112.15277774974182
31
0
0
SPLINE
5
793
100
AcDbEntity
8
0
100
AcDbSpline
70
0
71
3
72
8
73
4
74
0
42
0.000000001
43
0.0000000001
44
0.0000000001
40
7
40
7
40
7
40
7
40
8
40
8
40
8
40
8
10
65.05694101646624
20
111.65099203558121
30
0
10
65.05694101646624
20
111.928120633196
30
0
10
64.832283899920753
20
112.15277774974182
30
0
10
64.555155302306048
20
112.15277774974182
30
0
0
LINE
5
794
100
AcDbEntity
8
0
100
AcDbLine
10
65.05694101646624
20
111.65099203558121
30
0
11
65.05694101646624
21
98.604563467413655
31
0
0
SPLINE
5
795
100
AcDbEntity
8
0
100
AcDbSpline
70
0
71
3
72
8
73
4
74
0
42
0.000000001
43
0.0000000001
44
0.0000000001
40
5
40
5
40
5
40
5
40
6
40
6
40
6
40
6
10
64.555155302306048
20
98.102777753253122
30
0
10
64.832283899920753
20
98.102777753253122
30
0
10
65.05694101646624
20
98.327434869803426
30
0
10
65.05694101646624
20
98.604563467413655
30
0
0
LINE
5
796
100
AcDbEntity
8
0
100
AcDbLine
10
64.555155302306048
20
98.102777753253122
30
0
11
51.508726734139394
21
98.102777753253122
31
0
0
SPLINE
5
797
100
AcDbEntity
8
0
100
AcDbSpline
70
0
71
3
72
8
73
4
74
0
42
0.000000001
43
0.0000000001
44
0.0000000001
40
3
40
3
40
3
40
3
40
4
40
4
40
4
40
4
10
51.006941019978882
20
98.604563467413655
30
0
10
51.006941019978882
20
98.327434869803426
30
0
10
51.231598136524042
20
98.102777753253122
30
0
10
51.508726734139394
20
98.102777753253122
30
0
0
LINE
5
798
100
AcDbEntity
8
0
100
AcDbLine
10
51.006941019978882
20
98.604563467413655
30
0
11
51.006941019978882
21
111.6509920355812
31
0
0
SPLINE
5
799
100
AcDbEntity
8
0
100
AcDbSpline
70
0
71
3
72
8
73
4
74
0
42
0.000000001
43
0.0000000001
44
0.0000000001
40
0
40
0
40
0
40
0
40
1
40
1
40
1
40
1
10
213.4337267341391
20
93.102777749740937
30
0
10
213.15659813652502
20
93.102777749740937
30
0
10
212.93194101997864
20
92.878120633195763
30
0
10
212.93194101997864
20
92.600992035581058
30
0
0
LINE
5
800
100
AcDbEntity
8
0
100
AcDbLine
10
213.4337267341391
20
93.102777749740937
30
0
11
226.48015530230609
21
93.102777749740937
31
0
0
SPLINE
5
801
100
AcDbEntity
8
0
100
AcDbSpline
70
0
71
3
72
8
73
4
74
0
42
0.000000001
43
0.0000000001
44
0.0000000001
40
2
40
2
40
2
40
2
40
3
40
3
40
3
40
3
10
226.98194101646664
20
92.600992035581058
30
0
10
226.98194101646664
20
92.878120633195763
30
0
10
226.75728389992142
20
93.102777749740937
30
0
10
226.48015530230609
20
93.102777749740937
30
0
0
LINE
5
802
100
AcDbEntity
8
0
100
AcDbLine
10
226.98194101646664
20
92.600992035581058
30
0
11
226.98194101646664
21
79.554563467414084
31
0
0
SPLINE
5
803
100
AcDbEntity
8
0
100
AcDbSpline
70
0
71
3
72
8
73
4
74
0
42
0.000000001
43
0.0000000001
44
0.0000000001
40
4
40
4
40
4
40
4
40
5
40
5
40
5
40
5
10
226.48015530230609
20
79.052777753254219
30
0
10
226.75728389992142
20
79.052777753254219
30
0
10
226.98194101646664
20
79.277434869800032
30
0
10
226.98194101646664
20
79.554563467414084
30
0
0
LINE
5
804
100
AcDbEntity
8
0
100
AcDbLine
10
226.48015530230609
20
79.052777753254219
30
0
11
213.4337267341391
21
79.052777753254219
31
0
0
SPLINE
5
805
100
AcDbEntity
8
0
100
AcDbSpline
70
0
71
3
72
8
73
4
74
0
42
0.000000001
43
0.0000000001
44
0.0000000001
40
6
40
6
40
6
40
6
40
7
40
7
40
7
40
7
10
212.93194101997864
20
79.554563467414084
30
0
10
212.93194101997864
20
79.277434869800032
30
0
10
213.15659813652502
20
79.052777753254219
30
0
10
213.4337267341391
20
79.052777753254219
30
0
0
LINE
5
806
100
AcDbEntity
8
0
100
AcDbLine
10
212.93194101997864
20
79.554563467414084
30
0
11
212.93194101997864
21
92.600992035581044
31
0
0
SPLINE
5
807
100
AcDbEntity
8
0
100
AcDbSpline
70
0
71
3
72
8
73
4
74
0
42
0.000000001
43
0.0000000001
44
0.0000000001
40
0
40
0
40
0
40
0
40
1
40
1
40
1
40
1
10
203.90872673413901
20
112.1527777497414
30
0
10
203.63159813652359
20
112.1527777497414
30
0
10
203.40694101997852
20
111.928120633196
30
0
10
203.40694101997852
20
111.65099203558091
30
0
0
LINE
5
808
100
AcDbEntity
8
0
100
AcDbLine
10
203.90872673413901
20
112.1527777497414
30
0
11
216.95515530230603
21
112.1527777497414
31
0
0
SPLINE
5
809
100
AcDbEntity
8
0
100
AcDbSpline
70
0
71
3
72
8
73
4
74
0
42
0.000000001
43
0.0000000001
44
0.0000000001
40
2
40
2
40
2
40
2
40
3
40
3
40
3
40
3
10
217.45694101646581
20
111.65099203558091
30
0
10
217.45694101646581
20
111.928120633196
30
0
10
217.23228389992073
20
112.1527777497414
30
0
10
216.95515530230603
20
112.1527777497414
30
0
0
LINE
5
810
100
AcDbEntity
8
0
100
AcDbLine
10
217.45694101646581
20
111.65099203558091
30
0
11
217.45694101646581
21
98.604563467414295
31
0
0
SPLINE
5
811
100
AcDbEntity
8
0
100
AcDbSpline
70
0
71
3
72
8
73
4
74
0
42
0.000000001
43
0.0000000001
44
0.0000000001
40
4
40
4
40
4
40
4
40
5
40
5
40
5
40
5
10
216.95515530230603
20
98.102777753253761
30
0
10
217.23228389992073
20
98.102777753253761
30
0
10
217.45694101646581
20
98.327434869803426
30
0
10
217.45694101646581
20
98.604563467414295
30
0
0
LINE
5
812
100
AcDbEntity
8
0
100
AcDbLine
10
216.95515530230603
20
98.102777753253761
30
0
11
203.90872673413901
21
98.102777753253761
31
0
0
SPLINE
5
813
100
AcDbEntity
8
0
100
AcDbSpline
70
0
71
3
72
8
73
4
74
0
42
0.000000001
43
0.0000000001
44
0.0000000001
40
6
40
6
40
6
40
6
40
7
40
7
40
7
40
7
10
203.40694101997852
20
98.604563467414295
30
0
10
203.40694101997852
20
98.327434869803426
30
0
10
203.63159813652359
20
98.102777753253761
30
0
10
203.90872673413901
20
98.102777753253761
30
0
0
LINE
5
814
100
AcDbEntity
8
0
100
AcDbLine
10
203.40694101997852
20
98.604563467414295
30
0
11
203.40694101997852
21
111.65099203558088
31
0
0
SPLINE
5
815
100
AcDbEntity
8
0
100
AcDbSpline
70
0
71
3
72
8
73
4
74
0
42
0.000000001
43
0.0000000001
44
0.0000000001
40
1
40
1
40
1
40
1
40
2
40
2
40
2
40
2
10
193.64444101646794
20
130.7009920355805
30
0
10
193.64444101646794
20
130.97812063319549
30
0
10
193.41978389991752
20
131.20277774974136
30
0
10
193.14265530230799
20
131.20277774974136
30
0
0
LINE
5
816
100
AcDbEntity
8
0
100
AcDbLine
10
193.64444101646794
20
130.7009920355805
30
0
11
193.64444101646794
21
117.65456346741513
31
0
0
SPLINE
5
817
100
AcDbEntity
8
0
100
AcDbSpline
70
0
71
3
72
8
73
4
74
0
42
0.000000001
43
0.0000000001
44
0.0000000001
40
7
40
7
40
7
40
7
40
8
40
8
40
8
40
8
10
193.14265530230799
20
117.15277775325461
30
0
10
193.41978389991752
20
117.15277775325461
30
0
10
193.64444101646794
20
117.3774348697998
30
0
10
193.64444101646794
20
117.65456346741513
30
0
0
LINE
5
818
100
AcDbEntity
8
0
100
AcDbLine
10
193.14265530230799
20
117.15277775325461
30
0
11
180.0962267341404
21
117.15277775325461
31
0
0
SPLINE
5
819
100
AcDbEntity
8
0
100
AcDbSpline
70
0
71
3
72
8
73
4
74
0
42
0.000000001
43
0.0000000001
44
0.0000000001
40
5
40
5
40
5
40
5
40
6
40
6
40
6
40
6
10
179.59444101997997
20
117.65456346741513
30
0
10
179.59444101997997
20
117.3774348697998
30
0
10
179.81909813652632
20
117.15277775325461
30
0
10
180.0962267341404
20
117.15277775325461
30
0
0
LINE
5
820
100
AcDbEntity
8
0
100
AcDbLine
10
179.59444101997997
20
117.65456346741513
30
0
11
179.59444101997997
21
130.7009920355805
31
0
0
SPLINE
5
821
100
AcDbEntity
8
0
100
AcDbSpline
70
0
71
3
72
8
73
4
74
0
42
0.000000001
43
0.0000000001
44
0.0000000001
40
3
40
3
40
3
40
3
40
4
40
4
40
4
40
4
10
180.0962267341404
20
131.20277774974136
30
0
10
179.81909813652632
20
131.20277774974136
30
0
10
179.59444101997997
20
130.97812063319549
30
0
10
179.59444101997997
20
130.7009920355805
30
0
0
LINE
5
822
100
AcDbEntity
8
0
100
AcDbLine
10
180.0962267341404
20
131.20277774974136
30
0
11
193.14265530230801
21
131.20277774974133
31
0
0
SPLINE
5
823
100
AcDbEntity
8
0
100
AcDbSpline
70
0
71
3
72
8
73
4
74
0
42
0.000000001
43
0.0000000001
44
0.0000000001
40
1
40
1
40
1
40
1
40
2
40
2
40
2
40
2
10
218.19622673414145
20
131.20277774974136
30
0
10
217.91909813652671
20
131.20277774974136
30
0
10
217.69444101998019
20
130.9781206331958
30
0
10
217.69444101998019
20
130.70099203558081
30
0
0
LINE
5
824
100
AcDbEntity
8
0
100
AcDbLine
10
218.19622673414145
20
131.20277774974136
30
0
11
231.24265530230832
21
131.20277774974136
31
0
0
SPLINE
5
825
100
AcDbEntity
8
0
100
AcDbSpline
70
0
71
3
72
8
73
4
74
0
42
0.000000001
43
0.0000000001
44
0.0000000001
40
7
40
7
40
7
40
7
40
8
40
8
40
8
40
8
10
231.74444101646822
20
130.70099203558081
30
0
10
231.74444101646822
20
130.9781206331958
30
0
10
231.51978389992311
20
131.20277774974136
30
0
10
231.24265530230832
20
131.20277774974136
30
0
0
LINE
5
826
100
AcDbEntity
8
0
100
AcDbLine
10
231.74444101646822
20
130.70099203558081
30
0
11
231.74444101646822
21
117.65456346741452
31
0
0
SPLINE
5
827
100
AcDbEntity
8
0
100
AcDbSpline
70
0
71
3
72
8
73
4
74
0
42
0.000000001
43
0.0000000001
44
0.0000000001
40
5
40
5
40
5
40
5
40
6
40
6
40
6
40
6
10
231.24265530230832
20
117.15277775325401
30
0
10
231.51978389992311
20
117.15277775325401
30
0
10
231.74444101646822
20
117.3774348697994
30
0
10
231.74444101646822
20
117.65456346741452
30
0
0
LINE
5
828
100
AcDbEntity
8
0
100
AcDbLine
10
231.24265530230832
20
117.15277775325401
30
0
11
218.19622673414145
21
117.15277775325401
31
0
0
SPLINE
5
829
100
AcDbEntity
8
0
100
AcDbSpline
70
0
71
3
72
8
73
4
74
0
42
0.000000001
43
0.0000000001
44
0.0000000001
40
3
40
3
40
3
40
3
40
4
40
4
40
4
40
4
10
217.69444101998019
20
117.65456346741452
30
0
10
217.69444101998019
20
117.3774348697994
30
0
10
217.91909813652671
20
117.15277775325401
30
0
10
218.19622673414145
20
117.15277775325401
30
0
0
LINE
5
830
100
AcDbEntity
8
0
100
AcDbLine
10
217.69444101998019
20
117.65456346741452
30
0
11
217.69444101998019
21
130.70099203558078
31
0
0
SPLINE
5
831
100
AcDbEntity
8
0
100
AcDbSpline
70
0
71
3
72
8
73
4
74
0
42
0.000000001
43
0.0000000001
44
0.0000000001
40
1
40
1
40
1
40
1
40
2
40
2
40
2
40
2
10
37.221226734141183
20
150.2527777497418
30
0
10
36.944098136526136
20
150.2527777497418
30
0
10
36.719441019980657
20
150.02812063319601
30
0
10
36.719441019980657
20
149.75099203558131
30
0
0
LINE
5
832
100
AcDbEntity
8
0
100
AcDbLine
10
37.221226734141183
20
150.2527777497418
30
0
11
50.26765530230815
21
150.2527777497418
31
0
0
SPLINE
5
833
100
AcDbEntity
8
0
100
AcDbSpline
70
0
71
3
72
8
73
4
74
0
42
0.000000001
43
0.0000000001
44
0.0000000001
40
7
40
7
40
7
40
7
40
8
40
8
40
8
40
8
10
50.769441016468015
20
149.75099203558131
30
0
10
50.769441016468015
20
150.02812063319601
30
0
10
50.544783899919317
20
150.2527777497418
30
0
10
50.26765530230815
20
150.2527777497418
30
0
0
LINE
5
834
100
AcDbEntity
8
0
100
AcDbLine
10
50.769441016468015
20
149.75099203558131
30
0
11
50.769441016468015
21
136.704563467414
31
0
0
SPLINE
5
835
100
AcDbEntity
8
0
100
AcDbSpline
70
0
71
3
72
8
73
4
74
0
42
0.000000001
43
0.0000000001
44
0.0000000001
40
5
40
5
40
5
40
5
40
6
40
6
40
6
40
6
10
50.26765530230815
20
136.20277775325351
30
0
10
50.544783899919317
20
136.20277775325351
30
0
10
50.769441016468015
20
136.4274348697993
30
0
10
50.769441016468015
20
136.704563467414
30
0
0
LINE
5
836
100
AcDbEntity
8
0
100
AcDbLine
10
50.26765530230815
20
136.20277775325351
30
0
11
37.221226734141183
21
136.20277775325351
31
0
0
SPLINE
5
837
100
AcDbEntity
8
0
100
AcDbSpline
70
0
71
3
72
8
73
4
74
0
42
0.000000001
43
0.0000000001
44
0.0000000001
40
3
40
3
40
3
40
3
40
4
40
4
40
4
40
4
10
36.719441019980657
20
136.704563467414
30
0
10
36.719441019980657
20
136.4274348697993
30
0
10
36.944098136526136
20
136.20277775325351
30
0
10
37.221226734141183
20
136.20277775325351
30
0
0
LINE
5
838
100
AcDbEntity
8
0
100
AcDbLine
10
36.719441019980657
20
136.704563467414
30
0
11
36.719441019980657
21
149.75099203558128
31
0
0
SPLINE
5
839
100
AcDbEntity
8
0
100
AcDbSpline
70
0
71
3
72
8
73
4
74
0
42
0.000000001
43
0.0000000001
44
0.0000000001
40
1
40
1
40
1
40
1
40
2
40
2
40
2
40
2
10
1.5256910182219872
20
112.1277777514974
30
0
10
1.249548643308755
20
112.1277777514974
30
0
10
1.0256910182216481
20
111.90392012641381
30
0
10
1.0256910182216481
20
111.62777775149732
30
0
0
LINE
5
840
100
AcDbEntity
8
0
100
AcDbLine
10
1.5256910182219872
20
112.1277777514974
30
0
11
19.28819101822349
21
112.1277777514974
31
0
0
SPLINE
5
841
100
AcDbEntity
8
0
100
AcDbSpline
70
0
71
3
72
8
73
4
74
0
42
0.000000001
43
0.0000000001
44
0.0000000001
40
7
40
7
40
7
40
7
40
8
40
8
40
8
40
8
10
19.788191018223799
20
111.62777775149732
30
0
10
19.788191018223799
20
111.90392012641381
30
0
10
19.564333393139901
20
112.1277777514974
30
0
10
19.28819101822349
20
112.1277777514974
30
0
0
LINE
5
842
100
AcDbEntity
8
0
100
AcDbLine
10
19.788191018223799
20
111.62777775149732
30
0
11
19.788191018223799
21
98.627777751497234
31
0
0
SPLINE
5
843
100
AcDbEntity
8
0
100
AcDbSpline
70
0
71
3
72
8
73
4
74
0
42
0.000000001
43
0.0000000001
44
0.0000000001
40
5
40
5
40
5
40
5
40
6
40
6
40
6
40
6
10
19.288191018223461
20
98.127777751498172
30
0
10
19.564333393139901
20
98.127777751498172
30
0
10
19.788191018223799
20
98.351635376585278
30
0
10
19.788191018223799
20
98.627777751497234
30
0
0
LINE
5
844
100
AcDbEntity
8
0
100
AcDbLine
10
19.288191018223461
20
98.127777751498172
30
0
11
1.5256910182219863
21
98.127777751498172
31
0
0
SPLINE
5
845
100
AcDbEntity
8
0
100
AcDbSpline
70
0
71
3
72
8
73
4
74
0
42
0.000000001
43
0.0000000001
44
0.0000000001
40
3
40
3
40
3
40
3
40
4
40
4
40
4
40
4
10
1.0256910182216481
20
98.627777751497234
30
0
10
1.0256910182216481
20
98.351635376585278
30
0
10
1.249548643308755
20
98.127777751498172
30
0
10
1.5256910182219872
20
98.127777751498172
30
0
0
LINE
5
846
100
AcDbEntity
8
0
100
AcDbLine
10
1.0256910182216481
20
98.627777751497234
30
0
11
1.0256910182216481
21
111.62777775149732
31
0
0
SPLINE
5
847
100
AcDbEntity
8
0
100
AcDbSpline
70
0
71
3
72
8
73
4
74
0
42
0.000000001
43
0.0000000001
44
0.0000000001
40
1
40
1
40
1
40
1
40
2
40
2
40
2
40
2
10
239.6274767341379
20
93.102777749740937
30
0
10
239.35034813652774
20
93.102777749740937
30
0
10
239.12569101998119
20
92.878120633195124
30
0
10
239.12569101998119
20
92.600992035581058
30
0
0
LINE
5
848
100
AcDbEntity
8
0
100
AcDbLine
10
239.6274767341379
20
93.102777749740937
30
0
11
252.6739053023087
21
93.102777749740937
31
0
0
SPLINE
5
849
100
AcDbEntity
8
0
100
AcDbSpline
70
0
71
3
72
8
73
4
74
0
42
0.000000001
43
0.0000000001
44
0.0000000001
40
7
40
7
40
7
40
7
40
8
40
8
40
8
40
8
10
253.17569101646922
20
92.600992035581058
30
0
10
253.17569101646922
20
92.878120633195124
30
0
10
252.95103389991894
20
93.102777749740937
30
0
10
252.6739053023087
20
93.102777749740937
30
0
0
LINE
5
850
100
AcDbEntity
8
0
100
AcDbLine
10
253.17569101646922
20
92.600992035581058
30
0
11
253.17569101646922
21
79.554563467414084
31
0
0
SPLINE
5
851
100
AcDbEntity
8
0
100
AcDbSpline
70
0
71
3
72
8
73
4
74
0
42
0.000000001
43
0.0000000001
44
0.0000000001
40
5
40
5
40
5
40
5
40
6
40
6
40
6
40
6
10
252.6739053023087
20
79.052777753254219
30
0
10
252.95103389991894
20
79.052777753254219
30
0
10
253.17569101646922
20
79.277434869800032
30
0
10
253.17569101646922
20
79.554563467414084
30
0
0
LINE
5
852
100
AcDbEntity
8
0
100
AcDbLine
10
252.6739053023087
20
79.052777753254219
30
0
11
239.6274767341379
21
79.052777753254219
31
0
0
SPLINE
5
853
100
AcDbEntity
8
0
100
AcDbSpline
70
0
71
3
72
8
73
4
74
0
42
0.000000001
43
0.0000000001
44
0.0000000001
40
3
40
3
40
3
40
3
40
4
40
4
40
4
40
4
10
239.12569101998119
20
79.554563467414084
30
0
10
239.12569101998119
20
79.277434869800032
30
0
10
239.35034813652774
20
79.052777753254219
30
0
10
239.6274767341379
20
79.052777753254219
30
0
0
LINE
5
854
100
AcDbEntity
8
0
100
AcDbLine
10
239.12569101998119
20
79.554563467414084
30
0
11
239.12569101998119
21
92.600992035581044
31
0
0
SPLINE
5
855
100
AcDbEntity
8
0
100
AcDbSpline
70
0
71
3
72
8
73
4
74
0
42
0.000000001
43
0.0000000001
44
0.0000000001
40
1
40
1
40
1
40
1
40
2
40
2
40
2
40
2
10
132.47122673414151
20
150.25277774974089
30
0
10
132.19409813652649
20
150.25277774974089
30
0
10
131.96944101998059
20
150.02812063319541
30
0
10
131.96944101998059
20
149.75099203558071
30
0
0
LINE
5
856
100
AcDbEntity
8
0
100
AcDbLine
10
132.47122673414151
20
150.25277774974089
30
0
11
145.51765530230719
21
150.25277774974089
31
0
0
SPLINE
5
857
100
AcDbEntity
8
0
100
AcDbSpline
70
0
71
3
72
8
73
4
74
0
42
0.000000001
43
0.0000000001
44
0.0000000001
40
7
40
7
40
7
40
7
40
8
40
8
40
8
40
8
10
146.01944101646802
20
149.75099203558071
30
0
10
146.01944101646802
20
150.02812063319541
30
0
10
145.794783899918
20
150.25277774974089
30
0
10
145.51765530230719
20
150.25277774974089
30
0
0
LINE
5
858
100
AcDbEntity
8
0
100
AcDbLine
10
146.01944101646802
20
149.75099203558071
30
0
11
146.01944101646802
21
136.70456346741469
31
0
0
SPLINE
5
859
100
AcDbEntity
8
0
100
AcDbSpline
70
0
71
3
72
8
73
4
74
0
42
0.000000001
43
0.0000000001
44
0.0000000001
40
5
40
5
40
5
40
5
40
6
40
6
40
6
40
6
10
145.51765530230719
20
136.2027777532538
30
0
10
145.794783899918
20
136.2027777532538
30
0
10
146.01944101646802
20
136.42743486980004
30
0
10
146.01944101646802
20
136.70456346741469
30
0
0
LINE
5
860
100
AcDbEntity
8
0
100
AcDbLine
10
145.51765530230719
20
136.2027777532538
30
0
11
132.47122673414151
21
136.2027777532538
31
0
0
SPLINE
5
861
100
AcDbEntity
8
0
100
AcDbSpline
70
0
71
3
72
8
73
4
74
0
42
0.000000001
43
0.0000000001
44
0.0000000001
40
3
40
3
40
3
40
3
40
4
40
4
40
4
40
4
10
131.96944101998059
20
136.70456346741469
30
0
10
131.96944101998059
20
136.42743486980004
30
0
10
132.19409813652649
20
136.2027777532538
30
0
10
132.47122673414151
20
136.2027777532538
30
0
0
LINE
5
862
100
AcDbEntity
8
0
100
AcDbLine
10
131.96944101998059
20
136.70456346741469
30
0
11
131.96944101998062
21
149.75099203558071
31
0
0
SPLINE
5
863
100
AcDbEntity
8
0
100
AcDbSpline
70
0
71
3
72
10
73
6
74
0
42
0.000000001
43
0.0000000001
44
0.0000000001
40
0
40
0
40
0
40
0
40
1
40
1
40
2
40
2
40
2
40
2
10
69.925494407313266
20
94.471027751971718
30
0
10
70.533007631976844
20
94.471027751971718
30
0
10
71.025494407037698
20
94.963514527032572
30
0
10
71.025494407037698
20
96.178540976359713
30
0
10
70.533007631976844
20
96.671027751420567
30
0
10
69.925494407313266
20
96.671027751420567
30
0
0
SPLINE
5
864
100
AcDbEntity
8
0
100
AcDbSpline
70
0
71
3
72
10
73
6
74
0
42
0.000000001
43
0.0000000001
44
0.0000000001
40
2
40
2
40
2
40
2
40
3
40
3
40
4
40
4
40
4
40
4
10
69.925494407313266
20
96.671027751420567
30
0
10
69.31798118265354
20
96.671027751420567
30
0
10
68.825494407588835
20
96.178540976359713
30
0
10
68.825494407588835
20
94.963514527032572
30
0
10
69.31798118265354
20
94.471027751971718
30
0
10
69.925494407313266
20
94.471027751971718
30
0
0
SPLINE
5
865
100
AcDbEntity
8
0
100
AcDbSpline
70
0
71
3
72
10
73
6
74
0
42
0.000000001
43
0.0000000001
44
0.0000000001
40
0
40
0
40
0
40
0
40
1
40
1
40
2
40
2
40
2
40
2
10
281.86944186731455
20
75.452729456273204
30
0
10
282.47695509197808
20
75.452729456273204
30
0
10
282.96944186703968
20
75.945216231334712
30
0
10
282.96944186703968
20
77.160242680658001
30
0
10
282.47695509197808
20
77.652729455722081
30
0
10
281.86944186731455
20
77.652729455722081
30
0
0
SPLINE
5
866
100
AcDbEntity
8
0
100
AcDbSpline
70
0
71
3
72
10
73
6
74
0
42
0.000000001
43
0.0000000001
44
0.0000000001
40
2
40
2
40
2
40
2
40
3
40
3
40
4
40
4
40
4
40
4
10
281.86944186731455
20
77.652729455722081
30
0
10
281.2619286426542
20
77.652729455722081
30
0
10
280.76944186758953
20
77.160242680658001
30
0
10
280.76944186758953
20
75.945216231334712
30
0
10
281.2619286426542
20
75.452729456273204
30
0
10
281.86944186731455
20
75.452729456273204
30
0
0
SPLINE
5
867
100
AcDbEntity
8
0
100
AcDbSpline
70
0
71
3
72
10
73
6
74
0
42
0.000000001
43
0.0000000001
44
0.0000000001
40
0
40
0
40
0
40
0
40
1
40
1
40
2
40
2
40
2
40
2
10
181.85694186731322
20
113.5527802562725
30
0
10
182.46445509197554
20
113.5527802562725
30
0
10
182.95694186704094
20
114.04526703133401
30
0
10
182.95694186704094
20
115.26029348065791
30
0
10
182.46445509197554
20
115.7527802557226
30
0
10
181.85694186731322
20
115.7527802557226
30
0
0
SPLINE
5
868
100
AcDbEntity
8
0
100
AcDbSpline
70
0
71
3
72
10
73
6
74
0
42
0.000000001
43
0.0000000001
44
0.0000000001
40
2
40
2
40
2
40
2
40
3
40
3
40
4
40
4
40
4
40
4
10
181.85694186731322
20
115.7527802557226
30
0
10
181.2494286426529
20
115.7527802557226
30
0
10
180.7569418675875
20
115.26029348065791
30
0
10
180.7569418675875
20
114.04526703133401
30
0
10
181.2494286426529
20
113.5527802562725
30
0
10
181.85694186731322
20
113.5527802562725
30
0
0
SPLINE
5
869
100
AcDbEntity
8
0
100
AcDbSpline
70
0
71
3
72
10
73
6
74
0
42
0.000000001
43
0.0000000001
44
0.0000000001
40
0
40
0
40
0
40
0
40
1
40
1
40
2
40
2
40
2
40
2
10
38.981944407312852
20
75.452678656273349
30
0
10
39.589457631976423
20
75.452678656273349
30
0
10
40.081944407041128
20
75.945165431334203
30
0
10
40.081944407041128
20
77.160191880657493
30
0
10
39.589457631976423
20
77.652678655722198
30
0
10
38.981944407312852
20
77.652678655722198
30
0
0
SPLINE
5
870
100
AcDbEntity
8
0
100
AcDbSpline
70
0
71
3
72
10
73
6
74
0
42
0.000000001
43
0.0000000001
44
0.0000000001
40
2
40
2
40
2
40
2
40
3
40
3
40
4
40
4
40
4
40
4
10
38.981944407312852
20
77.652678655722198
30
0
10
38.374431182653133
20
77.652678655722198
30
0
10
37.881944407588101
20
77.160191880657493
30
0
10
37.881944407588101
20
75.945165431334203
30
0
10
38.374431182653133
20
75.452678656273349
30
0
10
38.981944407312852
20
75.452678656273349
30
0
0
SPLINE
5
871
100
AcDbEntity
8
0
100
AcDbSpline
70
0
71
3
72
8
73
4
74
0
42
0.000000001
43
0.0000000001
44
0.0000000001
40
1
40
1
40
1
40
1
40
2
40
2
40
2
40
2
10
-0.87877326585888438
20
150.25277774974151
30
0
10
-1.155901863473914
20
150.25277774974151
30
0
10
-1.3805589800193991
20
150.0281206331957
30
0
10
-1.3805589800193991
20
149.75099203558131
30
0
0
LINE
5
872
100
AcDbEntity
8
0
100
AcDbLine
10
-0.87877326585888438
20
150.25277774974151
30
0
11
12.167655302307455
21
150.25277774974151
31
0
0
SPLINE
5
873
100
AcDbEntity
8
0
100
AcDbSpline
70
0
71
3
72
8
73
4
74
0
42
0.000000001
43
0.0000000001
44
0.0000000001
40
7
40
7
40
7
40
7
40
8
40
8
40
8
40
8
10
12.66944101646795
20
149.75099203558131
30
0
10
12.66944101646795
20
150.0281206331957
30
0
10
12.444783899918299
20
150.25277774974151
30
0
10
12.167655302307455
20
150.25277774974151
30
0
0
LINE
5
874
100
AcDbEntity
8
0
100
AcDbLine
10
12.66944101646795
20
149.75099203558131
30
0
11
12.66944101646795
21
136.704563467414
31
0
0
SPLINE
5
875
100
AcDbEntity
8
0
100
AcDbSpline
70
0
71
3
72
8
73
4
74
0
42
0.000000001
43
0.0000000001
44
0.0000000001
40
5
40
5
40
5
40
5
40
6
40
6
40
6
40
6
10
12.167655302307441
20
136.20277775325351
30
0
10
12.444783899918299
20
136.20277775325351
30
0
10
12.66944101646795
20
136.42743486979961
30
0
10
12.66944101646795
20
136.704563467414
30
0
0
LINE
5
876
100
AcDbEntity
8
0
100
AcDbLine
10
12.167655302307441
20
136.20277775325351
30
0
11
-0.87877326585888538
21
136.20277775325351
31
0
0
SPLINE
5
877
100
AcDbEntity
8
0
100
AcDbSpline
70
0
71
3
72
8
73
4
74
0
42
0.000000001
43
0.0000000001
44
0.0000000001
40
3
40
3
40
3
40
3
40
4
40
4
40
4
40
4
10
-1.3805589800193991
20
136.704563467414
30
0
10
-1.3805589800193991
20
136.42743486979961
30
0
10
-1.155901863473914
20
136.20277775325351
30
0
10
-0.87877326585888438
20
136.20277775325351
30
0
0
LINE
5
878
100
AcDbEntity
8
0
100
AcDbLine
10
-1.3805589800193991
20
136.704563467414
30
0
11
-1.3805589800193991
21
149.75099203558128
31
0
0
ENDSEC
0
SECTION
2
OBJECTS
0
DICTIONARY
5
C
100
AcDbDictionary
3
ACAD_GROUP
350
D
3
ACAD_MLINESTYLE
350
17
0
DICTIONARY
5
D
100
AcDbDictionary
0
DICTIONARY
5
1A
330
C
100
AcDbDictionary
0
DICTIONARY
5
17
100
AcDbDictionary
0
ENDSEC
0
EOF
