G04 #@! TF.GenerationSoftware,KiCad,Pcbnew,(5.1.2)-2*
G04 #@! TF.CreationDate,2021-06-11T08:51:19+07:00*
G04 #@! TF.ProjectId,Plate,506c6174-652e-46b6-9963-61645f706362,rev?*
G04 #@! TF.SameCoordinates,Original*
G04 #@! TF.FileFunction,Soldermask,Top*
G04 #@! TF.FilePolarity,Negative*
%FSLAX45Y45*%
G04 Gerber Fmt 4.5, Leading zero omitted, Abs format (unit mm)*
G04 Created by KiCad (PCBNEW (5.1.2)-2) date 2021-06-11 08:51:19*
%MOMM*%
%LPD*%
G04 APERTURE LIST*
%ADD10C,0.375000*%
%ADD11C,2.000000*%
%ADD12C,2.500000*%
%ADD13C,0.010000*%
G04 APERTURE END LIST*
D10*
X-9041857Y1661714D02*
X-9091857Y1661714D01*
X-9091857Y1583143D02*
X-9091857Y1733143D01*
X-9020429Y1733143D01*
X-8877571Y1583143D02*
X-8927571Y1654571D01*
X-8963286Y1583143D02*
X-8963286Y1733143D01*
X-8906143Y1733143D01*
X-8891857Y1726000D01*
X-8884714Y1718857D01*
X-8877571Y1704571D01*
X-8877571Y1683143D01*
X-8884714Y1668857D01*
X-8891857Y1661714D01*
X-8906143Y1654571D01*
X-8963286Y1654571D01*
X-8749000Y1683143D02*
X-8749000Y1583143D01*
X-8784714Y1740286D02*
X-8820429Y1633143D01*
X-8727571Y1633143D01*
X-8556143Y1583143D02*
X-8556143Y1733143D01*
X-8556143Y1676000D02*
X-8541857Y1683143D01*
X-8513286Y1683143D01*
X-8499000Y1676000D01*
X-8491857Y1668857D01*
X-8484714Y1654571D01*
X-8484714Y1611714D01*
X-8491857Y1597428D01*
X-8499000Y1590286D01*
X-8513286Y1583143D01*
X-8541857Y1583143D01*
X-8556143Y1590286D01*
X-8434714Y1683143D02*
X-8399000Y1583143D01*
X-8363286Y1683143D02*
X-8399000Y1583143D01*
X-8413286Y1547428D01*
X-8420429Y1540286D01*
X-8434714Y1533143D01*
X-8199000Y1590286D02*
X-8177571Y1583143D01*
X-8141857Y1583143D01*
X-8127571Y1590286D01*
X-8120428Y1597428D01*
X-8113286Y1611714D01*
X-8113286Y1626000D01*
X-8120428Y1640286D01*
X-8127571Y1647428D01*
X-8141857Y1654571D01*
X-8170428Y1661714D01*
X-8184714Y1668857D01*
X-8191857Y1676000D01*
X-8199000Y1690286D01*
X-8199000Y1704571D01*
X-8191857Y1718857D01*
X-8184714Y1726000D01*
X-8170428Y1733143D01*
X-8134714Y1733143D01*
X-8113286Y1726000D01*
X-7984714Y1583143D02*
X-7984714Y1661714D01*
X-7991857Y1676000D01*
X-8006143Y1683143D01*
X-8034714Y1683143D01*
X-8049000Y1676000D01*
X-7984714Y1590286D02*
X-7999000Y1583143D01*
X-8034714Y1583143D01*
X-8049000Y1590286D01*
X-8056143Y1604571D01*
X-8056143Y1618857D01*
X-8049000Y1633143D01*
X-8034714Y1640286D01*
X-7999000Y1640286D01*
X-7984714Y1647428D01*
X-7927571Y1683143D02*
X-7899000Y1583143D01*
X-7870428Y1654571D01*
X-7841857Y1583143D01*
X-7813286Y1683143D01*
X-7756143Y1683143D02*
X-7756143Y1583143D01*
X-7756143Y1668857D02*
X-7749000Y1676000D01*
X-7734714Y1683143D01*
X-7713286Y1683143D01*
X-7699000Y1676000D01*
X-7691857Y1661714D01*
X-7691857Y1583143D01*
X-7627571Y1590286D02*
X-7613286Y1583143D01*
X-7584714Y1583143D01*
X-7570428Y1590286D01*
X-7563286Y1604571D01*
X-7563286Y1611714D01*
X-7570428Y1626000D01*
X-7584714Y1633143D01*
X-7606143Y1633143D01*
X-7620428Y1640286D01*
X-7627571Y1654571D01*
X-7627571Y1661714D01*
X-7620428Y1676000D01*
X-7606143Y1683143D01*
X-7584714Y1683143D01*
X-7570428Y1676000D01*
X-7499000Y1583143D02*
X-7499000Y1733143D01*
X-7441857Y1733143D01*
X-7427571Y1726000D01*
X-7420428Y1718857D01*
X-7413286Y1704571D01*
X-7413286Y1683143D01*
X-7420428Y1668857D01*
X-7427571Y1661714D01*
X-7441857Y1654571D01*
X-7499000Y1654571D01*
X-7349000Y1583143D02*
X-7349000Y1683143D01*
X-7349000Y1654571D02*
X-7341857Y1668857D01*
X-7334714Y1676000D01*
X-7320428Y1683143D01*
X-7306143Y1683143D01*
X-7234714Y1583143D02*
X-7249000Y1590286D01*
X-7256143Y1597428D01*
X-7263286Y1611714D01*
X-7263286Y1654571D01*
X-7256143Y1668857D01*
X-7249000Y1676000D01*
X-7234714Y1683143D01*
X-7213286Y1683143D01*
X-7199000Y1676000D01*
X-7191857Y1668857D01*
X-7184714Y1654571D01*
X-7184714Y1611714D01*
X-7191857Y1597428D01*
X-7199000Y1590286D01*
X-7213286Y1583143D01*
X-7234714Y1583143D01*
X-7120428Y1683143D02*
X-7120428Y1554571D01*
X-7127571Y1540286D01*
X-7141857Y1533143D01*
X-7149000Y1533143D01*
X-7120428Y1733143D02*
X-7127571Y1726000D01*
X-7120428Y1718857D01*
X-7113286Y1726000D01*
X-7120428Y1733143D01*
X-7120428Y1718857D01*
X-6991857Y1590286D02*
X-7006143Y1583143D01*
X-7034714Y1583143D01*
X-7049000Y1590286D01*
X-7056143Y1604571D01*
X-7056143Y1661714D01*
X-7049000Y1676000D01*
X-7034714Y1683143D01*
X-7006143Y1683143D01*
X-6991857Y1676000D01*
X-6984714Y1661714D01*
X-6984714Y1647428D01*
X-7056143Y1633143D01*
X-6856143Y1590286D02*
X-6870428Y1583143D01*
X-6899000Y1583143D01*
X-6913286Y1590286D01*
X-6920428Y1597428D01*
X-6927571Y1611714D01*
X-6927571Y1654571D01*
X-6920428Y1668857D01*
X-6913286Y1676000D01*
X-6899000Y1683143D01*
X-6870428Y1683143D01*
X-6856143Y1676000D01*
X-6813286Y1683143D02*
X-6756143Y1683143D01*
X-6791857Y1733143D02*
X-6791857Y1604571D01*
X-6784714Y1590286D01*
X-6770428Y1583143D01*
X-6756143Y1583143D01*
X-6713286Y1590286D02*
X-6699000Y1583143D01*
X-6670428Y1583143D01*
X-6656143Y1590286D01*
X-6649000Y1604571D01*
X-6649000Y1611714D01*
X-6656143Y1626000D01*
X-6670428Y1633143D01*
X-6691857Y1633143D01*
X-6706143Y1640286D01*
X-6713286Y1654571D01*
X-6713286Y1661714D01*
X-6706143Y1676000D01*
X-6691857Y1683143D01*
X-6670428Y1683143D01*
X-6656143Y1676000D01*
D11*
X16148122Y-1873178D02*
X16148122Y-573178D01*
X17548122Y-573178D02*
X17548122Y-1873178D01*
X17498122Y-523178D02*
G75*
G02X17548122Y-573178I0J-50000D01*
G01*
X16148122Y-573178D02*
G75*
G02X16198122Y-523178I50000J0D01*
G01*
X16198122Y-523178D02*
X17498122Y-523178D01*
X16198122Y-1923178D02*
G75*
G02X16148122Y-1873178I0J50000D01*
G01*
X17498122Y-1923177D02*
X16198122Y-1923177D01*
X17548122Y-1873178D02*
G75*
G02X17498122Y-1923177I-50000J0D01*
G01*
D12*
X6317822Y-1223178D02*
G75*
G03X6317822Y-1223178I-200000J0D01*
G01*
D11*
X-7266878Y5696822D02*
X-8566878Y5696822D01*
X-7216878Y5746822D02*
G75*
G02X-7266878Y5696822I-50000J0D01*
G01*
X-7216878Y7046822D02*
X-7216878Y5746822D01*
X-7266878Y7096822D02*
G75*
G02X-7216878Y7046822I0J-50000D01*
G01*
X-8566878Y7096822D02*
X-7266878Y7096822D01*
X-8616878Y7046822D02*
G75*
G02X-8566878Y7096822I50000J0D01*
G01*
X-8616878Y5746822D02*
X-8616878Y7046822D01*
X-8566878Y5696822D02*
G75*
G02X-8616878Y5746822I0J50000D01*
G01*
X-4756878Y5696822D02*
G75*
G02X-4806878Y5746822I0J50000D01*
G01*
X-4806878Y7046822D02*
X-4806878Y5746822D01*
X-4806878Y7046822D02*
G75*
G02X-4756878Y7096822I50000J0D01*
G01*
X-3456878Y7096822D02*
X-4756878Y7096822D01*
X-3456878Y7096822D02*
G75*
G02X-3406878Y7046822I0J-50000D01*
G01*
X-3406878Y5746822D02*
X-3406878Y7046822D01*
X-3406878Y5746822D02*
G75*
G02X-3456878Y5696822I-50000J0D01*
G01*
X-4756878Y5696822D02*
X-3456878Y5696822D01*
X4163122Y5696822D02*
X2863122Y5696822D01*
X4213122Y5746822D02*
G75*
G02X4163122Y5696822I-50000J0D01*
G01*
X4213122Y7046822D02*
X4213122Y5746822D01*
X4163122Y7096822D02*
G75*
G02X4213122Y7046822I0J-50000D01*
G01*
X2863122Y7096822D02*
X4163122Y7096822D01*
X2813122Y7046822D02*
G75*
G02X2863122Y7096822I50000J0D01*
G01*
X2813122Y5746822D02*
X2813122Y7046822D01*
X2863122Y5696822D02*
G75*
G02X2813122Y5746822I0J50000D01*
G01*
X-6711878Y7046822D02*
G75*
G02X-6661878Y7096822I50000J0D01*
G01*
X-5361878Y7096822D02*
X-6661878Y7096822D01*
X-5361878Y7096822D02*
G75*
G02X-5311878Y7046822I0J-50000D01*
G01*
X-5311878Y5746822D02*
X-5311878Y7046822D01*
X-5311878Y5746822D02*
G75*
G02X-5361878Y5696822I-50000J0D01*
G01*
X-6661878Y5696822D02*
X-5361878Y5696822D01*
X-6661878Y5696822D02*
G75*
G02X-6711878Y5746822I0J50000D01*
G01*
X-6711878Y7046822D02*
X-6711878Y5746822D01*
X-4409378Y3791822D02*
X-5709378Y3791822D01*
X-4359378Y3841822D02*
G75*
G02X-4409378Y3791822I-50000J0D01*
G01*
X-4359378Y5141822D02*
X-4359378Y3841822D01*
X-4409378Y5191822D02*
G75*
G02X-4359378Y5141822I0J-50000D01*
G01*
X-5709378Y5191822D02*
X-4409378Y5191822D01*
X-5759378Y5141822D02*
G75*
G02X-5709378Y5191822I50000J0D01*
G01*
X-5759378Y3841822D02*
X-5759378Y5141822D01*
X-5709378Y3791822D02*
G75*
G02X-5759378Y3841822I0J50000D01*
G01*
X17548122Y1331822D02*
X17548122Y31822D01*
X17498122Y1381822D02*
G75*
G02X17548122Y1331822I0J-50000D01*
G01*
X16198122Y1381822D02*
X17498122Y1381822D01*
X16148122Y1331822D02*
G75*
G02X16198122Y1381822I50000J0D01*
G01*
X16148122Y31822D02*
X16148122Y1331822D01*
X16198122Y-18178D02*
G75*
G02X16148122Y31822I0J50000D01*
G01*
X17498122Y-18178D02*
X16198122Y-18178D01*
X17548122Y31822D02*
G75*
G02X17498122Y-18178I-50000J0D01*
G01*
X6673122Y5696822D02*
G75*
G02X6623122Y5746822I0J50000D01*
G01*
X6623122Y7046822D02*
X6623122Y5746822D01*
X6623122Y7046822D02*
G75*
G02X6673122Y7096822I50000J0D01*
G01*
X7973122Y7096822D02*
X6673122Y7096822D01*
X7973122Y7096822D02*
G75*
G02X8023122Y7046822I0J-50000D01*
G01*
X8023122Y5746822D02*
X8023122Y7046822D01*
X8023122Y5746822D02*
G75*
G02X7973122Y5696822I-50000J0D01*
G01*
X6673122Y5696822D02*
X7973122Y5696822D01*
X8975622Y3841822D02*
G75*
G02X8925622Y3791822I-50000J0D01*
G01*
X7625622Y3791822D02*
X8925622Y3791822D01*
X7625622Y3791822D02*
G75*
G02X7575622Y3841822I0J50000D01*
G01*
X7575622Y5141822D02*
X7575622Y3841822D01*
X7575622Y5141822D02*
G75*
G02X7625622Y5191822I50000J0D01*
G01*
X8925622Y5191822D02*
X7625622Y5191822D01*
X8925622Y5191822D02*
G75*
G02X8975622Y5141822I0J-50000D01*
G01*
X8975622Y3841822D02*
X8975622Y5141822D01*
X829322Y1381822D02*
G75*
G02X879322Y1331822I0J-50000D01*
G01*
X879322Y31822D02*
X879322Y1331822D01*
X879322Y31822D02*
G75*
G02X829322Y-18178I-50000J0D01*
G01*
X-470678Y-18178D02*
X829322Y-18178D01*
X-470678Y-18178D02*
G75*
G02X-520678Y31822I0J50000D01*
G01*
X-520678Y1331822D02*
X-520678Y31822D01*
X-520678Y1331822D02*
G75*
G02X-470678Y1381822I50000J0D01*
G01*
X829322Y1381822D02*
X-470678Y1381822D01*
X-3804378Y5191822D02*
X-2504378Y5191822D01*
X-3854378Y5141822D02*
G75*
G02X-3804378Y5191822I50000J0D01*
G01*
X-3854378Y3841822D02*
X-3854378Y5141822D01*
X-3804378Y3791822D02*
G75*
G02X-3854378Y3841822I0J50000D01*
G01*
X-2504378Y3791822D02*
X-3804378Y3791822D01*
X-2454378Y3841822D02*
G75*
G02X-2504378Y3791822I-50000J0D01*
G01*
X-2454378Y5141822D02*
X-2454378Y3841822D01*
X-2504378Y5191822D02*
G75*
G02X-2454378Y5141822I0J-50000D01*
G01*
X1384322Y1331822D02*
G75*
G02X1434322Y1381822I50000J0D01*
G01*
X2734322Y1381822D02*
X1434322Y1381822D01*
X2734322Y1381822D02*
G75*
G02X2784322Y1331822I0J-50000D01*
G01*
X2784322Y31822D02*
X2784322Y1331822D01*
X2784322Y31822D02*
G75*
G02X2734322Y-18178I-50000J0D01*
G01*
X1434322Y-18178D02*
X2734322Y-18178D01*
X1434322Y-18178D02*
G75*
G02X1384322Y31822I0J50000D01*
G01*
X1384322Y1331822D02*
X1384322Y31822D01*
X-2851878Y5696822D02*
G75*
G02X-2901878Y5746822I0J50000D01*
G01*
X-2901878Y7046822D02*
X-2901878Y5746822D01*
X-2901878Y7046822D02*
G75*
G02X-2851878Y7096822I50000J0D01*
G01*
X-1551878Y7096822D02*
X-2851878Y7096822D01*
X-1551878Y7096822D02*
G75*
G02X-1501878Y7046822I0J-50000D01*
G01*
X-1501878Y5746822D02*
X-1501878Y7046822D01*
X-1501878Y5746822D02*
G75*
G02X-1551878Y5696822I-50000J0D01*
G01*
X-2851878Y5696822D02*
X-1551878Y5696822D01*
X9928122Y7046822D02*
X9928122Y5746822D01*
X9878122Y7096822D02*
G75*
G02X9928122Y7046822I0J-50000D01*
G01*
X8578122Y7096822D02*
X9878122Y7096822D01*
X8528122Y7046822D02*
G75*
G02X8578122Y7096822I50000J0D01*
G01*
X8528122Y5746822D02*
X8528122Y7046822D01*
X8578122Y5696822D02*
G75*
G02X8528122Y5746822I0J50000D01*
G01*
X9878122Y5696822D02*
X8578122Y5696822D01*
X9928122Y5746822D02*
G75*
G02X9878122Y5696822I-50000J0D01*
G01*
X-7664378Y5141822D02*
G75*
G02X-7614378Y5191822I50000J0D01*
G01*
X-6314378Y5191822D02*
X-7614378Y5191822D01*
X-6314378Y5191822D02*
G75*
G02X-6264378Y5141822I0J-50000D01*
G01*
X-6264378Y3841822D02*
X-6264378Y5141822D01*
X-6264378Y3841822D02*
G75*
G02X-6314378Y3791822I-50000J0D01*
G01*
X-7614378Y3791822D02*
X-6314378Y3791822D01*
X-7614378Y3791822D02*
G75*
G02X-7664378Y3841822I0J50000D01*
G01*
X-7664378Y5141822D02*
X-7664378Y3841822D01*
X-8219378Y3791822D02*
X-9519378Y3791822D01*
X-8169378Y3841822D02*
G75*
G02X-8219378Y3791822I-50000J0D01*
G01*
X-8169378Y5141822D02*
X-8169378Y3841822D01*
X-8219378Y5191822D02*
G75*
G02X-8169378Y5141822I0J-50000D01*
G01*
X-9519378Y5191822D02*
X-8219378Y5191822D01*
X-9569378Y5141822D02*
G75*
G02X-9519378Y5191822I50000J0D01*
G01*
X-9569378Y4691852D02*
X-9569378Y5141822D01*
X-10550628Y4691852D02*
X-9569378Y4691852D01*
X-10550628Y5141822D02*
X-10550628Y4691852D01*
X-10600628Y5191822D02*
G75*
G02X-10550628Y5141822I0J-50000D01*
G01*
X-11900628Y5191822D02*
X-10600628Y5191822D01*
X-11950628Y5141822D02*
G75*
G02X-11900628Y5191822I50000J0D01*
G01*
X-11950628Y3841822D02*
X-11950628Y5141822D01*
X-11900628Y3791822D02*
G75*
G02X-11950628Y3841822I0J50000D01*
G01*
X-10600628Y3791822D02*
X-11900628Y3791822D01*
X-10550628Y3841822D02*
G75*
G02X-10600628Y3791822I-50000J0D01*
G01*
X-10550628Y4291852D02*
X-10550628Y3841822D01*
X-9569378Y4291852D02*
X-10550628Y4291852D01*
X-9569378Y3841822D02*
X-9569378Y4291852D01*
X-9519378Y3791822D02*
G75*
G02X-9569378Y3841822I0J50000D01*
G01*
X6594322Y31822D02*
G75*
G02X6544322Y-18178I-50000J0D01*
G01*
X5244322Y-18178D02*
X6544322Y-18178D01*
X5244322Y-18178D02*
G75*
G02X5194322Y31822I0J50000D01*
G01*
X5194322Y1331822D02*
X5194322Y31822D01*
X5194322Y1331822D02*
G75*
G02X5244322Y1381822I50000J0D01*
G01*
X6544322Y1381822D02*
X5244322Y1381822D01*
X6544322Y1381822D02*
G75*
G02X6594322Y1331822I0J-50000D01*
G01*
X6594322Y31822D02*
X6594322Y1331822D01*
X-10521878Y5746822D02*
X-10521878Y7046822D01*
X-10471878Y5696822D02*
G75*
G02X-10521878Y5746822I0J50000D01*
G01*
X-9171878Y5696822D02*
X-10471878Y5696822D01*
X-9121878Y5746822D02*
G75*
G02X-9171878Y5696822I-50000J0D01*
G01*
X-9121878Y7046822D02*
X-9121878Y5746822D01*
X-9171878Y7096822D02*
G75*
G02X-9121878Y7046822I0J-50000D01*
G01*
X-10471878Y7096822D02*
X-9171878Y7096822D01*
X-10521878Y7046822D02*
G75*
G02X-10471878Y7096822I50000J0D01*
G01*
X10354322Y-18178D02*
X9054322Y-18178D01*
X10404322Y31822D02*
G75*
G02X10354322Y-18178I-50000J0D01*
G01*
X10404322Y1331822D02*
X10404322Y31822D01*
X10354322Y1381822D02*
G75*
G02X10404322Y1331822I0J-50000D01*
G01*
X9054322Y1381822D02*
X10354322Y1381822D01*
X9004322Y1331822D02*
G75*
G02X9054322Y1381822I50000J0D01*
G01*
X9004322Y31822D02*
X9004322Y1331822D01*
X9054322Y-18178D02*
G75*
G02X9004322Y31822I0J50000D01*
G01*
X8499322Y1331822D02*
X8499322Y31822D01*
X8449322Y1381822D02*
G75*
G02X8499322Y1331822I0J-50000D01*
G01*
X7149322Y1381822D02*
X8449322Y1381822D01*
X7099322Y1331822D02*
G75*
G02X7149322Y1381822I50000J0D01*
G01*
X7099322Y31822D02*
X7099322Y1331822D01*
X7149322Y-18178D02*
G75*
G02X7099322Y31822I0J50000D01*
G01*
X8449322Y-18178D02*
X7149322Y-18178D01*
X8499322Y31822D02*
G75*
G02X8449322Y-18178I-50000J0D01*
G01*
X-10550578Y-573178D02*
X-10550578Y-1873177D01*
X-10600578Y-523177D02*
G75*
G02X-10550578Y-573178I0J-50000D01*
G01*
X-12138778Y-523177D02*
X-10600578Y-523177D01*
X-12188778Y-573178D02*
G75*
G02X-12138778Y-523177I50000J0D01*
G01*
X-12188778Y-1873177D02*
X-12188778Y-573178D01*
X-12138778Y-1923177D02*
G75*
G02X-12188778Y-1873177I0J50000D01*
G01*
X-10600578Y-1923177D02*
X-12138778Y-1923177D01*
X-10550578Y-1873177D02*
G75*
G02X-10600578Y-1923177I-50000J0D01*
G01*
D12*
X-9980218Y-1222178D02*
G75*
G03X-9980218Y-1222178I-200000J0D01*
G01*
D11*
X-10312498Y3236822D02*
X-10312498Y1936822D01*
X-10362499Y3286822D02*
G75*
G02X-10312498Y3236822I1J-50000D01*
G01*
X-12138759Y3286793D02*
X-10362499Y3286822D01*
X-12188758Y3236793D02*
G75*
G02X-12138759Y3286793I50000J0D01*
G01*
X-12188758Y1936793D02*
X-12188758Y3236793D01*
X-12138757Y1886793D02*
G75*
G02X-12188758Y1936793I-1J50000D01*
G01*
X-10362497Y1886822D02*
X-12138757Y1886793D01*
X-10312498Y1936822D02*
G75*
G02X-10362497Y1886822I-50000J0D01*
G01*
X-7693078Y-573178D02*
X-7693078Y-1873177D01*
X-7743078Y-523177D02*
G75*
G02X-7693078Y-573178I0J-50000D01*
G01*
X-9757478Y-523177D02*
X-7743078Y-523177D01*
X-9807478Y-573178D02*
G75*
G02X-9757478Y-523177I50000J0D01*
G01*
X-9807478Y-1873177D02*
X-9807478Y-573178D01*
X-9757478Y-1923177D02*
G75*
G02X-9807478Y-1873177I0J50000D01*
G01*
X-7743078Y-1923177D02*
X-9757478Y-1923177D01*
X-7693078Y-1873177D02*
G75*
G02X-7743078Y-1923177I-50000J0D01*
G01*
X-12200678Y1381822D02*
X-8695678Y1381822D01*
X-12250678Y1331822D02*
G75*
G02X-12200678Y1381822I50000J0D01*
G01*
X-12250678Y31822D02*
X-12250678Y1331822D01*
X-12200678Y-18178D02*
G75*
G02X-12250678Y31822I0J50000D01*
G01*
X-12146278Y-18178D02*
X-12200678Y-18178D01*
X-12146278Y-65177D02*
X-12146278Y-18178D01*
X-12096278Y-115177D02*
G75*
G02X-12146278Y-65177I0J50000D01*
G01*
X-11443778Y-115177D02*
X-12096278Y-115177D01*
X-11393778Y-65177D02*
G75*
G02X-11443778Y-115177I-50000J0D01*
G01*
X-11393778Y-18178D02*
X-11393778Y-65177D01*
X-9678778Y-18178D02*
X-11393778Y-18178D01*
X-9678778Y-65177D02*
X-9678778Y-18178D01*
X-9628778Y-115177D02*
G75*
G02X-9678778Y-65177I0J50000D01*
G01*
X-8976278Y-115177D02*
X-9628778Y-115177D01*
X-8926278Y-65177D02*
G75*
G02X-8976278Y-115177I-50000J0D01*
G01*
X-8926278Y-18178D02*
X-8926278Y-65177D01*
X-8695678Y-18178D02*
X-8926278Y-18178D01*
X-8645678Y31822D02*
G75*
G02X-8695678Y-18178I-50000J0D01*
G01*
X-8645678Y1331822D02*
X-8645678Y31822D01*
X-8695678Y1381822D02*
G75*
G02X-8645678Y1331822I0J-50000D01*
G01*
X10483122Y7096822D02*
X11783122Y7096822D01*
X10433122Y7046822D02*
G75*
G02X10483122Y7096822I50000J0D01*
G01*
X10433122Y5746822D02*
X10433122Y7046822D01*
X10483122Y5696822D02*
G75*
G02X10433122Y5746822I0J50000D01*
G01*
X11783122Y5696822D02*
X10483122Y5696822D01*
X11833122Y5746822D02*
G75*
G02X11783122Y5696822I-50000J0D01*
G01*
X11833122Y7046822D02*
X11833122Y5746822D01*
X11783122Y7096822D02*
G75*
G02X11833122Y7046822I0J-50000D01*
G01*
X-7693078Y1936822D02*
G75*
G02X-7743078Y1886822I-50000J0D01*
G01*
X-9043078Y1886822D02*
X-7743078Y1886822D01*
X-9043078Y1886822D02*
G75*
G02X-9093078Y1936822I0J50000D01*
G01*
X-9093078Y3236822D02*
X-9093078Y1936822D01*
X-9093078Y3236822D02*
G75*
G02X-9043078Y3286822I50000J0D01*
G01*
X-7743078Y3286822D02*
X-9043078Y3286822D01*
X-7743078Y3286822D02*
G75*
G02X-7693078Y3236822I0J-50000D01*
G01*
X-7693078Y1936822D02*
X-7693078Y3236822D01*
X-11026878Y5746822D02*
G75*
G02X-11076878Y5696822I-50000J0D01*
G01*
X-12376878Y5696822D02*
X-11076878Y5696822D01*
X-12376878Y5696822D02*
G75*
G02X-12426878Y5746822I0J50000D01*
G01*
X-12426878Y7046822D02*
X-12426878Y5746822D01*
X-12426878Y7046822D02*
G75*
G02X-12376878Y7096822I50000J0D01*
G01*
X-11076878Y7096822D02*
X-12376878Y7096822D01*
X-11076878Y7096822D02*
G75*
G02X-11026878Y7046822I0J-50000D01*
G01*
X-11026878Y5746822D02*
X-11026878Y7046822D01*
X9530622Y3791822D02*
G75*
G02X9480622Y3841822I0J50000D01*
G01*
X9480622Y5141822D02*
X9480622Y3841822D01*
X9480622Y5141822D02*
G75*
G02X9530622Y5191822I50000J0D01*
G01*
X10830622Y5191822D02*
X9530622Y5191822D01*
X10830622Y5191822D02*
G75*
G02X10880622Y5141822I0J-50000D01*
G01*
X10880622Y3841822D02*
X10880622Y5141822D01*
X10880622Y3841822D02*
G75*
G02X10830622Y3791822I-50000J0D01*
G01*
X9530622Y3791822D02*
X10830622Y3791822D01*
X-2425678Y31822D02*
X-2425678Y1331822D01*
X-2375678Y-18178D02*
G75*
G02X-2425678Y31822I0J50000D01*
G01*
X-1075678Y-18178D02*
X-2375678Y-18178D01*
X-1025678Y31822D02*
G75*
G02X-1075678Y-18178I-50000J0D01*
G01*
X-1025678Y1331822D02*
X-1025678Y31822D01*
X-1075678Y1381822D02*
G75*
G02X-1025678Y1331822I0J-50000D01*
G01*
X-2375678Y1381822D02*
X-1075678Y1381822D01*
X-2425678Y1331822D02*
G75*
G02X-2375678Y1381822I50000J0D01*
G01*
X6146922Y1936822D02*
X6146922Y3236822D01*
X6196922Y1886822D02*
G75*
G02X6146922Y1936822I0J50000D01*
G01*
X7496922Y1886822D02*
X6196922Y1886822D01*
X7546922Y1936822D02*
G75*
G02X7496922Y1886822I-50000J0D01*
G01*
X7546922Y3236822D02*
X7546922Y1936822D01*
X7496922Y3286822D02*
G75*
G02X7546922Y3236822I0J-50000D01*
G01*
X6196922Y3286822D02*
X7496922Y3286822D01*
X6146922Y3236822D02*
G75*
G02X6196922Y3286822I50000J0D01*
G01*
X6118122Y5746822D02*
G75*
G02X6068122Y5696822I-50000J0D01*
G01*
X4768122Y5696822D02*
X6068122Y5696822D01*
X4768122Y5696822D02*
G75*
G02X4718122Y5746822I0J50000D01*
G01*
X4718122Y7046822D02*
X4718122Y5746822D01*
X4718122Y7046822D02*
G75*
G02X4768122Y7096822I50000J0D01*
G01*
X6068122Y7096822D02*
X4768122Y7096822D01*
X6068122Y7096822D02*
G75*
G02X6118122Y7046822I0J-50000D01*
G01*
X6118122Y5746822D02*
X6118122Y7046822D01*
X5670622Y5141822D02*
G75*
G02X5720622Y5191822I50000J0D01*
G01*
X7020622Y5191822D02*
X5720622Y5191822D01*
X7020622Y5191822D02*
G75*
G02X7070622Y5141822I0J-50000D01*
G01*
X7070622Y3841822D02*
X7070622Y5141822D01*
X7070622Y3841822D02*
G75*
G02X7020622Y3791822I-50000J0D01*
G01*
X5720622Y3791822D02*
X7020622Y3791822D01*
X5720622Y3791822D02*
G75*
G02X5670622Y3841822I0J50000D01*
G01*
X5670622Y5141822D02*
X5670622Y3841822D01*
X3339322Y-18178D02*
G75*
G02X3289322Y31822I0J50000D01*
G01*
X3289322Y1331822D02*
X3289322Y31822D01*
X3289322Y1331822D02*
G75*
G02X3339322Y1381822I50000J0D01*
G01*
X4639322Y1381822D02*
X3339322Y1381822D01*
X4639322Y1381822D02*
G75*
G02X4689322Y1331822I0J-50000D01*
G01*
X4689322Y31822D02*
X4689322Y1331822D01*
X4689322Y31822D02*
G75*
G02X4639322Y-18178I-50000J0D01*
G01*
X3339322Y-18178D02*
X4639322Y-18178D01*
X-1899378Y5191822D02*
X-599378Y5191822D01*
X-1949378Y5141822D02*
G75*
G02X-1899378Y5191822I50000J0D01*
G01*
X-1949378Y3841822D02*
X-1949378Y5141822D01*
X-1899378Y3791822D02*
G75*
G02X-1949378Y3841822I0J50000D01*
G01*
X-599378Y3791822D02*
X-1899378Y3791822D01*
X-549378Y3841822D02*
G75*
G02X-599378Y3791822I-50000J0D01*
G01*
X-549378Y5141822D02*
X-549378Y3841822D01*
X-599378Y5191822D02*
G75*
G02X-549378Y5141822I0J-50000D01*
G01*
X-996878Y5746822D02*
X-996878Y7046822D01*
X-946878Y5696822D02*
G75*
G02X-996878Y5746822I0J50000D01*
G01*
X353122Y5696822D02*
X-946878Y5696822D01*
X403122Y5746822D02*
G75*
G02X353122Y5696822I-50000J0D01*
G01*
X403122Y7046822D02*
X403122Y5746822D01*
X353122Y7096822D02*
G75*
G02X403122Y7046822I0J-50000D01*
G01*
X-946878Y7096822D02*
X353122Y7096822D01*
X-996878Y7046822D02*
G75*
G02X-946878Y7096822I50000J0D01*
G01*
X3319922Y-446977D02*
G75*
G02X3369922Y-496977I0J-50000D01*
G01*
X3369922Y-523177D02*
X3369922Y-496977D01*
X4608722Y-523177D02*
X3369922Y-523177D01*
X4608722Y-496977D02*
X4608722Y-523177D01*
X4608722Y-496977D02*
G75*
G02X4658722Y-446977I50000J0D01*
G01*
X5789922Y-446977D02*
X4658722Y-446977D01*
X5789922Y-446977D02*
G75*
G02X5839922Y-496977I0J-50000D01*
G01*
X5839922Y-1873177D02*
X5839922Y-496977D01*
X5839922Y-1873177D02*
G75*
G02X5789922Y-1923177I-50000J0D01*
G01*
X-708778Y-1923177D02*
X5789922Y-1923177D01*
X-708778Y-1923177D02*
G75*
G02X-758778Y-1873177I0J50000D01*
G01*
X-758778Y-573178D02*
X-758778Y-1873177D01*
X-758778Y-573178D02*
G75*
G02X-708778Y-523177I50000J0D01*
G01*
X2138722Y-523177D02*
X-708778Y-523177D01*
X2138722Y-496977D02*
X2138722Y-523177D01*
X2138722Y-496977D02*
G75*
G02X2188722Y-446977I50000J0D01*
G01*
X3319922Y-446977D02*
X2188722Y-446977D01*
X908122Y7046822D02*
G75*
G02X958122Y7096822I50000J0D01*
G01*
X2258122Y7096822D02*
X958122Y7096822D01*
X2258122Y7096822D02*
G75*
G02X2308122Y7046822I0J-50000D01*
G01*
X2308122Y5746822D02*
X2308122Y7046822D01*
X2308122Y5746822D02*
G75*
G02X2258122Y5696822I-50000J0D01*
G01*
X958122Y5696822D02*
X2258122Y5696822D01*
X958122Y5696822D02*
G75*
G02X908122Y5746822I0J50000D01*
G01*
X908122Y7046822D02*
X908122Y5746822D01*
X1831922Y1936822D02*
G75*
G02X1781922Y1886822I-50000J0D01*
G01*
X481922Y1886822D02*
X1781922Y1886822D01*
X481922Y1886822D02*
G75*
G02X431922Y1936822I0J50000D01*
G01*
X431922Y2386822D02*
X431922Y1936822D01*
X-73078Y2386822D02*
X431922Y2386822D01*
X-73078Y1936822D02*
X-73078Y2386822D01*
X-73078Y1936822D02*
G75*
G02X-123078Y1886822I-50000J0D01*
G01*
X-1423078Y1886822D02*
X-123078Y1886822D01*
X-1423078Y1886822D02*
G75*
G02X-1473078Y1936822I0J50000D01*
G01*
X-1473078Y3236822D02*
X-1473078Y1936822D01*
X-1473078Y3236822D02*
G75*
G02X-1423078Y3286822I50000J0D01*
G01*
X-123078Y3286822D02*
X-1423078Y3286822D01*
X-123078Y3286822D02*
G75*
G02X-73078Y3236822I0J-50000D01*
G01*
X-73078Y2786822D02*
X-73078Y3236822D01*
X431922Y2786822D02*
X-73078Y2786822D01*
X431922Y3236822D02*
X431922Y2786822D01*
X431922Y3236822D02*
G75*
G02X481922Y3286822I50000J0D01*
G01*
X1781922Y3286822D02*
X481922Y3286822D01*
X1781922Y3286822D02*
G75*
G02X1831922Y3236822I0J-50000D01*
G01*
X1831922Y1936822D02*
X1831922Y3236822D01*
X-6740678Y1331822D02*
X-6740678Y31822D01*
X-6790678Y1381822D02*
G75*
G02X-6740678Y1331822I0J-50000D01*
G01*
X-8090678Y1381822D02*
X-6790678Y1381822D01*
X-8140678Y1331822D02*
G75*
G02X-8090678Y1381822I50000J0D01*
G01*
X-8140678Y31822D02*
X-8140678Y1331822D01*
X-8090678Y-18178D02*
G75*
G02X-8140678Y31822I0J50000D01*
G01*
X-6790678Y-18178D02*
X-8090678Y-18178D01*
X-6740678Y31822D02*
G75*
G02X-6790678Y-18178I-50000J0D01*
G01*
X-2534978Y-523177D02*
X-3773778Y-523177D01*
X-2534978Y-496977D02*
X-2534978Y-523177D01*
X-2534978Y-496977D02*
G75*
G02X-2484978Y-446977I50000J0D01*
G01*
X-1353778Y-446977D02*
X-2484978Y-446977D01*
X-1353778Y-446977D02*
G75*
G02X-1303778Y-496977I0J-50000D01*
G01*
X-1303778Y-1873177D02*
X-1303778Y-496977D01*
X-1303778Y-1873177D02*
G75*
G02X-1353778Y-1923177I-50000J0D01*
G01*
X-4954978Y-1923177D02*
X-1353778Y-1923177D01*
X-4954978Y-1923177D02*
G75*
G02X-5004978Y-1873177I0J50000D01*
G01*
X-5004978Y-496977D02*
X-5004978Y-1873177D01*
X-5004978Y-496977D02*
G75*
G02X-4954978Y-446977I50000J0D01*
G01*
X-3823778Y-446977D02*
X-4954978Y-446977D01*
X-3823778Y-446977D02*
G75*
G02X-3773778Y-496977I0J-50000D01*
G01*
X-3773778Y-523177D02*
X-3773778Y-496977D01*
X-6486372Y-523177D02*
X-6486372Y-496977D01*
X-7376278Y-523177D02*
X-6486372Y-523177D01*
X-7426278Y-573178D02*
G75*
G02X-7376278Y-523177I50000J0D01*
G01*
X-7426278Y-1873177D02*
X-7426278Y-573178D01*
X-7376278Y-1923177D02*
G75*
G02X-7426278Y-1873177I0J50000D01*
G01*
X-5838078Y-1923177D02*
X-7376278Y-1923177D01*
X-5788078Y-1873177D02*
G75*
G02X-5838078Y-1923177I-50000J0D01*
G01*
X-5788078Y-496977D02*
X-5788078Y-1873177D01*
X-5838078Y-446977D02*
G75*
G02X-5788078Y-496977I0J-50000D01*
G01*
X-6436372Y-446977D02*
X-5838078Y-446977D01*
X-6486372Y-496977D02*
G75*
G02X-6436372Y-446977I50000J0D01*
G01*
X4241922Y1936822D02*
X4241922Y3236822D01*
X4291922Y1886822D02*
G75*
G02X4241922Y1936822I0J50000D01*
G01*
X5591922Y1886822D02*
X4291922Y1886822D01*
X5641922Y1936822D02*
G75*
G02X5591922Y1886822I-50000J0D01*
G01*
X5641922Y3236822D02*
X5641922Y1936822D01*
X5591922Y3286822D02*
G75*
G02X5641922Y3236822I0J-50000D01*
G01*
X4291922Y3286822D02*
X5591922Y3286822D01*
X4241922Y3236822D02*
G75*
G02X4291922Y3286822I50000J0D01*
G01*
X-5788078Y1936822D02*
G75*
G02X-5838078Y1886822I-50000J0D01*
G01*
X-7138078Y1886822D02*
X-5838078Y1886822D01*
X-7138078Y1886822D02*
G75*
G02X-7188078Y1936822I0J50000D01*
G01*
X-7188078Y3236822D02*
X-7188078Y1936822D01*
X-7188078Y3236822D02*
G75*
G02X-7138078Y3286822I50000J0D01*
G01*
X-5838078Y3286822D02*
X-7138078Y3286822D01*
X-5838078Y3286822D02*
G75*
G02X-5788078Y3236822I0J-50000D01*
G01*
X-5788078Y1936822D02*
X-5788078Y3236822D01*
X3765622Y3841822D02*
X3765622Y5141822D01*
X3815622Y3791822D02*
G75*
G02X3765622Y3841822I0J50000D01*
G01*
X5115622Y3791822D02*
X3815622Y3791822D01*
X5165622Y3841822D02*
G75*
G02X5115622Y3791822I-50000J0D01*
G01*
X5165622Y5141822D02*
X5165622Y3841822D01*
X5115622Y5191822D02*
G75*
G02X5165622Y5141822I0J-50000D01*
G01*
X3815622Y5191822D02*
X5115622Y5191822D01*
X3765622Y5141822D02*
G75*
G02X3815622Y5191822I50000J0D01*
G01*
X-2028078Y1886822D02*
X-3328078Y1886822D01*
X-1978078Y1936822D02*
G75*
G02X-2028078Y1886822I-50000J0D01*
G01*
X-1978078Y3236822D02*
X-1978078Y1936822D01*
X-2028078Y3286822D02*
G75*
G02X-1978078Y3236822I0J-50000D01*
G01*
X-3328078Y3286822D02*
X-2028078Y3286822D01*
X-3378078Y3236822D02*
G75*
G02X-3328078Y3286822I50000J0D01*
G01*
X-3378078Y1936822D02*
X-3378078Y3236822D01*
X-3328078Y1886822D02*
G75*
G02X-3378078Y1936822I0J50000D01*
G01*
X1355622Y3841822D02*
G75*
G02X1305622Y3791822I-50000J0D01*
G01*
X5622Y3791822D02*
X1305622Y3791822D01*
X5622Y3791822D02*
G75*
G02X-44378Y3841822I0J50000D01*
G01*
X-44378Y5141822D02*
X-44378Y3841822D01*
X-44378Y5141822D02*
G75*
G02X5622Y5191822I50000J0D01*
G01*
X1305622Y5191822D02*
X5622Y5191822D01*
X1305622Y5191822D02*
G75*
G02X1355622Y5141822I0J-50000D01*
G01*
X1355622Y3841822D02*
X1355622Y5141822D01*
X2386922Y3286822D02*
X3686922Y3286822D01*
X2336922Y3236822D02*
G75*
G02X2386922Y3286822I50000J0D01*
G01*
X2336922Y1936822D02*
X2336922Y3236822D01*
X2386922Y1886822D02*
G75*
G02X2336922Y1936822I0J50000D01*
G01*
X3686922Y1886822D02*
X2386922Y1886822D01*
X3736922Y1936822D02*
G75*
G02X3686922Y1886822I-50000J0D01*
G01*
X3736922Y3236822D02*
X3736922Y1936822D01*
X3686922Y3286822D02*
G75*
G02X3736922Y3236822I0J-50000D01*
G01*
X-2980678Y-18178D02*
X-4280678Y-18178D01*
X-2930678Y31822D02*
G75*
G02X-2980678Y-18178I-50000J0D01*
G01*
X-2930678Y1331822D02*
X-2930678Y31822D01*
X-2980678Y1381822D02*
G75*
G02X-2930678Y1331822I0J-50000D01*
G01*
X-4280678Y1381822D02*
X-2980678Y1381822D01*
X-4330678Y1331822D02*
G75*
G02X-4280678Y1381822I50000J0D01*
G01*
X-4330678Y31822D02*
X-4330678Y1331822D01*
X-4280678Y-18178D02*
G75*
G02X-4330678Y31822I0J50000D01*
G01*
X-4835678Y1331822D02*
X-4835678Y31822D01*
X-4885678Y1381822D02*
G75*
G02X-4835678Y1331822I0J-50000D01*
G01*
X-6185678Y1381822D02*
X-4885678Y1381822D01*
X-6235678Y1331822D02*
G75*
G02X-6185678Y1381822I50000J0D01*
G01*
X-6235678Y31822D02*
X-6235678Y1331822D01*
X-6185678Y-18178D02*
G75*
G02X-6235678Y31822I0J50000D01*
G01*
X-4885678Y-18178D02*
X-6185678Y-18178D01*
X-4835678Y31822D02*
G75*
G02X-4885678Y-18178I-50000J0D01*
G01*
X3260622Y3841822D02*
G75*
G02X3210622Y3791822I-50000J0D01*
G01*
X1910622Y3791822D02*
X3210622Y3791822D01*
X1910622Y3791822D02*
G75*
G02X1860622Y3841822I0J50000D01*
G01*
X1860622Y5141822D02*
X1860622Y3841822D01*
X1860622Y5141822D02*
G75*
G02X1910622Y5191822I50000J0D01*
G01*
X3210622Y5191822D02*
X1910622Y5191822D01*
X3210622Y5191822D02*
G75*
G02X3260622Y5141822I0J-50000D01*
G01*
X3260622Y3841822D02*
X3260622Y5141822D01*
X-5233078Y1886822D02*
G75*
G02X-5283078Y1936822I0J50000D01*
G01*
X-5283078Y3236822D02*
X-5283078Y1936822D01*
X-5283078Y3236822D02*
G75*
G02X-5233078Y3286822I50000J0D01*
G01*
X-3933078Y3286822D02*
X-5233078Y3286822D01*
X-3933078Y3286822D02*
G75*
G02X-3883078Y3236822I0J-50000D01*
G01*
X-3883078Y1936822D02*
X-3883078Y3236822D01*
X-3883078Y1936822D02*
G75*
G02X-3933078Y1886822I-50000J0D01*
G01*
X-5233078Y1886822D02*
X-3933078Y1886822D01*
X15593122Y7096822D02*
G75*
G02X15643122Y7046822I0J-50000D01*
G01*
X15643122Y5696822D02*
X15643122Y7046822D01*
X15600622Y5696822D02*
X15643122Y5696822D01*
X15600622Y5649822D02*
X15600622Y5696822D01*
X15600622Y5649822D02*
G75*
G02X15550622Y5599822I-50000J0D01*
G01*
X14898122Y5599822D02*
X15550622Y5599822D01*
X14898122Y5599822D02*
G75*
G02X14848122Y5649822I0J50000D01*
G01*
X14848122Y5696822D02*
X14848122Y5649822D01*
X13133122Y5696822D02*
X14848122Y5696822D01*
X13133122Y5649822D02*
X13133122Y5696822D01*
X13133122Y5649822D02*
G75*
G02X13083122Y5599822I-50000J0D01*
G01*
X12430622Y5599822D02*
X13083122Y5599822D01*
X12430622Y5599822D02*
G75*
G02X12380622Y5649822I0J50000D01*
G01*
X12380622Y5696822D02*
X12380622Y5649822D01*
X12338122Y5696822D02*
X12380622Y5696822D01*
X12338122Y7046822D02*
X12338122Y5696822D01*
X12338122Y7046822D02*
G75*
G02X12388122Y7096822I50000J0D01*
G01*
X15593122Y7096822D02*
X12388122Y7096822D01*
X12388122Y-1923177D02*
G75*
G02X12338122Y-1873177I0J50000D01*
G01*
X12338122Y-573178D02*
X12338122Y-1873177D01*
X12338122Y-573178D02*
G75*
G02X12388122Y-523177I50000J0D01*
G01*
X13688122Y-523177D02*
X12388122Y-523177D01*
X13688122Y-523177D02*
G75*
G02X13738122Y-573178I0J-50000D01*
G01*
X13738122Y-1023177D02*
X13738122Y-573178D01*
X14243122Y-1023177D02*
X13738122Y-1023177D01*
X14243122Y-573178D02*
X14243122Y-1023177D01*
X14243122Y-573178D02*
G75*
G02X14293122Y-523177I50000J0D01*
G01*
X15593122Y-523177D02*
X14293122Y-523177D01*
X15593122Y-523177D02*
G75*
G02X15643122Y-573178I0J-50000D01*
G01*
X15643122Y-1873177D02*
X15643122Y-573178D01*
X15643122Y-1873177D02*
G75*
G02X15593122Y-1923177I-50000J0D01*
G01*
X14293122Y-1923177D02*
X15593122Y-1923177D01*
X14293122Y-1923177D02*
G75*
G02X14243122Y-1873177I0J50000D01*
G01*
X14243122Y-1423177D02*
X14243122Y-1873177D01*
X13738122Y-1423177D02*
X14243122Y-1423177D01*
X13738122Y-1873177D02*
X13738122Y-1423177D01*
X13738122Y-1873177D02*
G75*
G02X13688122Y-1923177I-50000J0D01*
G01*
X12388122Y-1923177D02*
X13688122Y-1923177D01*
X15643122Y1331822D02*
X15643122Y31822D01*
X15593122Y1381822D02*
G75*
G02X15643122Y1331822I0J-50000D01*
G01*
X14293122Y1381822D02*
X15593122Y1381822D01*
X14243122Y1331822D02*
G75*
G02X14293122Y1381822I50000J0D01*
G01*
X14243122Y31822D02*
X14243122Y1331822D01*
X14293122Y-18178D02*
G75*
G02X14243122Y31822I0J50000D01*
G01*
X15593122Y-18178D02*
X14293122Y-18178D01*
X15643122Y31822D02*
G75*
G02X15593122Y-18178I-50000J0D01*
G01*
X11833122Y-1873177D02*
G75*
G02X11783122Y-1923177I-50000J0D01*
G01*
X6673122Y-1923177D02*
X11783122Y-1923177D01*
X6673122Y-1923177D02*
G75*
G02X6623122Y-1873177I0J50000D01*
G01*
X6623122Y-573178D02*
X6623122Y-1873177D01*
X6623122Y-573178D02*
G75*
G02X6673122Y-523177I50000J0D01*
G01*
X11783122Y-523177D02*
X6673122Y-523177D01*
X11783122Y-523177D02*
G75*
G02X11833122Y-573178I0J-50000D01*
G01*
X11833122Y-1873177D02*
X11833122Y-573178D01*
X17548122Y5746822D02*
G75*
G02X17498122Y5696822I-50000J0D01*
G01*
X16198122Y5696822D02*
X17498122Y5696822D01*
X16198122Y5696822D02*
G75*
G02X16148122Y5746822I0J50000D01*
G01*
X16148122Y7046822D02*
X16148122Y5746822D01*
X16148122Y7046822D02*
G75*
G02X16198122Y7096822I50000J0D01*
G01*
X17498122Y7096822D02*
X16198122Y7096822D01*
X17498122Y7096822D02*
G75*
G02X17548122Y7046822I0J-50000D01*
G01*
X17548122Y5746822D02*
X17548122Y7046822D01*
X9451922Y1936822D02*
G75*
G02X9401922Y1886822I-50000J0D01*
G01*
X8101922Y1886822D02*
X9401922Y1886822D01*
X8101922Y1886822D02*
G75*
G02X8051922Y1936822I0J50000D01*
G01*
X8051922Y3236822D02*
X8051922Y1936822D01*
X8051922Y3236822D02*
G75*
G02X8101922Y3286822I50000J0D01*
G01*
X9401922Y3286822D02*
X8101922Y3286822D01*
X9401922Y3286822D02*
G75*
G02X9451922Y3236822I0J-50000D01*
G01*
X9451922Y1936822D02*
X9451922Y3236822D01*
X17498122Y3286822D02*
G75*
G02X17548122Y3236822I0J-50000D01*
G01*
X17548122Y1936822D02*
X17548122Y3236822D01*
X17548122Y1936822D02*
G75*
G02X17498122Y1886822I-50000J0D01*
G01*
X16198122Y1886822D02*
X17498122Y1886822D01*
X16198122Y1886822D02*
G75*
G02X16148122Y1936822I0J50000D01*
G01*
X16148122Y3236822D02*
X16148122Y1936822D01*
X16148122Y3236822D02*
G75*
G02X16198122Y3286822I50000J0D01*
G01*
X17498122Y3286822D02*
X16198122Y3286822D01*
X17548122Y3841822D02*
G75*
G02X17498122Y3791822I-50000J0D01*
G01*
X16198122Y3791822D02*
X17498122Y3791822D01*
X16198122Y3791822D02*
G75*
G02X16148122Y3841822I0J50000D01*
G01*
X16148122Y5141822D02*
X16148122Y3841822D01*
X16148122Y5141822D02*
G75*
G02X16198122Y5191822I50000J0D01*
G01*
X17498122Y5191822D02*
X16198122Y5191822D01*
X17498122Y5191822D02*
G75*
G02X17548122Y5141822I0J-50000D01*
G01*
X17548122Y3841822D02*
X17548122Y5141822D01*
X10006922Y1886822D02*
G75*
G02X9956922Y1936822I0J50000D01*
G01*
X9956922Y3236822D02*
X9956922Y1936822D01*
X9956922Y3236822D02*
G75*
G02X10006922Y3286822I50000J0D01*
G01*
X11306922Y3286822D02*
X10006922Y3286822D01*
X11306922Y3286822D02*
G75*
G02X11356922Y3236822I0J-50000D01*
G01*
X11356922Y1936822D02*
X11356922Y3236822D01*
X11356922Y1936822D02*
G75*
G02X11306922Y1886822I-50000J0D01*
G01*
X10006922Y1886822D02*
X11306922Y1886822D01*
X11623722Y31822D02*
X11623722Y1331822D01*
X11673722Y-18178D02*
G75*
G02X11623722Y31822I0J50000D01*
G01*
X12973722Y-18178D02*
X11673722Y-18178D01*
X13023722Y31822D02*
G75*
G02X12973722Y-18178I-50000J0D01*
G01*
X13023722Y1331822D02*
X13023722Y31822D01*
X12973722Y1381822D02*
G75*
G02X13023722Y1331822I0J-50000D01*
G01*
X11673722Y1381822D02*
X12973722Y1381822D01*
X11623722Y1331822D02*
G75*
G02X11673722Y1381822I50000J0D01*
G01*
X12192522Y1789822D02*
G75*
G02X12142522Y1839822I0J50000D01*
G01*
X12142522Y1886722D02*
X12142522Y1839822D01*
X11912022Y1886722D02*
X12142522Y1886722D01*
X11912022Y1886722D02*
G75*
G02X11862022Y1936722I0J50000D01*
G01*
X11862022Y3236725D02*
X11862022Y1936722D01*
X11862022Y3236725D02*
G75*
G02X11912019Y3286725I50000J0D01*
G01*
X12142522Y3286735D02*
X11912019Y3286725D01*
X12142522Y3333622D02*
X12142522Y3286735D01*
X12142522Y3333622D02*
G75*
G02X12192522Y3383622I50000J0D01*
G01*
X12845022Y3383622D02*
X12192522Y3383622D01*
X12845022Y3383622D02*
G75*
G02X12895022Y3333622I0J-50000D01*
G01*
X12895022Y3286771D02*
X12895022Y3333622D01*
X14005122Y3286822D02*
X12895022Y3286771D01*
X14005122Y3791822D02*
X14005122Y3286822D01*
X13816822Y3791822D02*
X14005122Y3791822D01*
X13816822Y3791822D02*
G75*
G02X13766822Y3841822I0J50000D01*
G01*
X13766822Y4291852D02*
X13766822Y3841822D01*
X12785622Y4291852D02*
X13766822Y4291852D01*
X12785622Y3841822D02*
X12785622Y4291852D01*
X12785622Y3841822D02*
G75*
G02X12735622Y3791822I-50000J0D01*
G01*
X11435622Y3791822D02*
X12735622Y3791822D01*
X11435622Y3791822D02*
G75*
G02X11385622Y3841822I0J50000D01*
G01*
X11385622Y5141822D02*
X11385622Y3841822D01*
X11385622Y5141822D02*
G75*
G02X11435622Y5191822I50000J0D01*
G01*
X12735622Y5191822D02*
X11435622Y5191822D01*
X12735622Y5191822D02*
G75*
G02X12785622Y5141822I0J-50000D01*
G01*
X12785622Y4691852D02*
X12785622Y5141822D01*
X13766822Y4691852D02*
X12785622Y4691852D01*
X13766822Y5141822D02*
X13766822Y4691852D01*
X13766822Y5141822D02*
G75*
G02X13816822Y5191822I50000J0D01*
G01*
X15166822Y5191822D02*
X13816822Y5191822D01*
X15166822Y5149262D02*
X15166822Y5191822D01*
X15208122Y5149262D02*
X15166822Y5149262D01*
X15208122Y5149262D02*
G75*
G02X15258122Y5099262I0J-50000D01*
G01*
X15258122Y4446762D02*
X15258122Y5099262D01*
X15258122Y4446762D02*
G75*
G02X15208122Y4396762I-50000J0D01*
G01*
X15166822Y4396762D02*
X15208122Y4396762D01*
X15166822Y4239222D02*
X15166822Y4396762D01*
X15355122Y4239222D02*
X15166822Y4239222D01*
X15355122Y4239222D02*
G75*
G02X15405122Y4189222I0J-50000D01*
G01*
X15405122Y2839222D02*
X15405122Y4189222D01*
X15362522Y2839222D02*
X15405122Y2839222D01*
X15362522Y1839822D02*
X15362522Y2839222D01*
X15362522Y1839822D02*
G75*
G02X15312522Y1789822I-50000J0D01*
G01*
X14660022Y1789822D02*
X15312522Y1789822D01*
X14660022Y1789822D02*
G75*
G02X14610022Y1839822I0J50000D01*
G01*
X14610022Y1886722D02*
X14610022Y1839822D01*
X12895022Y1886722D02*
X14610022Y1886722D01*
X12895022Y1839822D02*
X12895022Y1886722D01*
X12895022Y1839822D02*
G75*
G02X12845022Y1789822I-50000J0D01*
G01*
X12192522Y1789822D02*
X12845022Y1789822D01*
D13*
G36*
X-9821505Y3090032D02*
G01*
X-9818246Y3088920D01*
X-9815439Y3086944D01*
X-9814046Y3085329D01*
X-9812719Y3082595D01*
X-9812060Y3079358D01*
X-9812136Y3076084D01*
X-9812495Y3074499D01*
X-9812662Y3074207D01*
X-9813057Y3073693D01*
X-9813701Y3072937D01*
X-9814614Y3071919D01*
X-9815817Y3070616D01*
X-9817330Y3069010D01*
X-9819174Y3067079D01*
X-9821368Y3064802D01*
X-9823933Y3062160D01*
X-9826890Y3059131D01*
X-9830259Y3055696D01*
X-9834061Y3051833D01*
X-9838315Y3047522D01*
X-9843042Y3042742D01*
X-9848263Y3037473D01*
X-9853998Y3031694D01*
X-9860267Y3025385D01*
X-9867091Y3018524D01*
X-9874491Y3011093D01*
X-9882485Y3003069D01*
X-9891096Y2994432D01*
X-9900343Y2985162D01*
X-9910246Y2975238D01*
X-9920827Y2964640D01*
X-9932105Y2953347D01*
X-9944101Y2941338D01*
X-9956836Y2928593D01*
X-9970329Y2915092D01*
X-9984601Y2900813D01*
X-9990793Y2894618D01*
X-10168389Y2716960D01*
X-9697492Y2246063D01*
X-9462043Y2481512D01*
X-9226595Y2716962D01*
X-9403912Y2894333D01*
X-9415843Y2906271D01*
X-9427573Y2918011D01*
X-9439076Y2929528D01*
X-9450326Y2940795D01*
X-9461296Y2951787D01*
X-9471961Y2962477D01*
X-9482295Y2972839D01*
X-9492271Y2982847D01*
X-9501865Y2992476D01*
X-9511049Y3001698D01*
X-9519798Y3010487D01*
X-9528086Y3018819D01*
X-9535886Y3026665D01*
X-9543174Y3034001D01*
X-9549923Y3040800D01*
X-9556106Y3047037D01*
X-9561699Y3052684D01*
X-9566674Y3057715D01*
X-9571007Y3062106D01*
X-9574670Y3065829D01*
X-9577638Y3068858D01*
X-9579886Y3071168D01*
X-9581386Y3072731D01*
X-9582114Y3073523D01*
X-9582180Y3073611D01*
X-9583048Y3076532D01*
X-9583052Y3079774D01*
X-9582261Y3082996D01*
X-9580740Y3085856D01*
X-9579530Y3087232D01*
X-9576819Y3089030D01*
X-9573588Y3090027D01*
X-9570177Y3090174D01*
X-9566926Y3089425D01*
X-9566249Y3089126D01*
X-9565705Y3088689D01*
X-9564495Y3087579D01*
X-9562611Y3085790D01*
X-9560047Y3083317D01*
X-9556797Y3080151D01*
X-9552855Y3076288D01*
X-9548214Y3071721D01*
X-9542868Y3066443D01*
X-9536810Y3060448D01*
X-9530034Y3053730D01*
X-9522533Y3046283D01*
X-9514302Y3038099D01*
X-9505333Y3029173D01*
X-9495621Y3019498D01*
X-9485158Y3009068D01*
X-9473939Y2997876D01*
X-9461957Y2985916D01*
X-9449206Y2973182D01*
X-9435679Y2959668D01*
X-9421369Y2945366D01*
X-9406271Y2930271D01*
X-9390378Y2914377D01*
X-9381481Y2905476D01*
X-9199033Y2722955D01*
X-9198344Y2719958D01*
X-9197956Y2717490D01*
X-9198095Y2715215D01*
X-9198347Y2713965D01*
X-9198450Y2713550D01*
X-9198588Y2713129D01*
X-9198800Y2712662D01*
X-9199125Y2712109D01*
X-9199601Y2711430D01*
X-9200267Y2710584D01*
X-9201161Y2709532D01*
X-9202322Y2708233D01*
X-9203790Y2706647D01*
X-9205601Y2704734D01*
X-9207796Y2702454D01*
X-9210412Y2699767D01*
X-9213489Y2696632D01*
X-9217064Y2693010D01*
X-9221177Y2688859D01*
X-9225867Y2684141D01*
X-9231171Y2678815D01*
X-9237129Y2672841D01*
X-9243779Y2666178D01*
X-9251160Y2658786D01*
X-9259040Y2650896D01*
X-9319043Y2590824D01*
X-9288448Y2560141D01*
X-9282741Y2554416D01*
X-9277787Y2549439D01*
X-9273532Y2545152D01*
X-9269921Y2541497D01*
X-9266899Y2538415D01*
X-9264412Y2535847D01*
X-9262406Y2533737D01*
X-9260825Y2532025D01*
X-9259615Y2530652D01*
X-9258722Y2529561D01*
X-9258090Y2528693D01*
X-9257666Y2527990D01*
X-9257395Y2527393D01*
X-9257223Y2526844D01*
X-9257188Y2526707D01*
X-9256824Y2523267D01*
X-9257337Y2519979D01*
X-9257955Y2518433D01*
X-9258397Y2517952D01*
X-9259622Y2516688D01*
X-9261607Y2514664D01*
X-9264330Y2511903D01*
X-9267766Y2508429D01*
X-9271892Y2504266D01*
X-9276685Y2499438D01*
X-9282120Y2493967D01*
X-9288176Y2487877D01*
X-9294828Y2481192D01*
X-9302052Y2473935D01*
X-9309826Y2466130D01*
X-9318126Y2457801D01*
X-9326928Y2448970D01*
X-9336209Y2439662D01*
X-9345945Y2429900D01*
X-9356114Y2419708D01*
X-9366691Y2409108D01*
X-9377653Y2398126D01*
X-9388976Y2386783D01*
X-9400638Y2375104D01*
X-9412614Y2363113D01*
X-9424882Y2350832D01*
X-9437417Y2338285D01*
X-9450197Y2325497D01*
X-9463198Y2312489D01*
X-9474636Y2301047D01*
X-9492158Y2283523D01*
X-9508882Y2266799D01*
X-9524818Y2250867D01*
X-9539973Y2235720D01*
X-9554357Y2221349D01*
X-9567977Y2207744D01*
X-9580842Y2194899D01*
X-9592960Y2182804D01*
X-9604339Y2171452D01*
X-9614989Y2160834D01*
X-9624917Y2150942D01*
X-9634131Y2141767D01*
X-9642641Y2133301D01*
X-9650454Y2125536D01*
X-9657579Y2118463D01*
X-9664024Y2112074D01*
X-9669797Y2106361D01*
X-9674908Y2101315D01*
X-9679364Y2096929D01*
X-9683173Y2093193D01*
X-9686345Y2090100D01*
X-9688887Y2087640D01*
X-9690808Y2085807D01*
X-9692116Y2084591D01*
X-9692819Y2083984D01*
X-9692927Y2083913D01*
X-9696107Y2083020D01*
X-9699654Y2083064D01*
X-9701774Y2083528D01*
X-9702080Y2083726D01*
X-9702695Y2084238D01*
X-9703635Y2085080D01*
X-9704918Y2086269D01*
X-9706562Y2087824D01*
X-9708582Y2089760D01*
X-9710997Y2092096D01*
X-9713824Y2094848D01*
X-9717080Y2098034D01*
X-9720782Y2101671D01*
X-9724949Y2105775D01*
X-9729596Y2110364D01*
X-9734742Y2115456D01*
X-9740403Y2121066D01*
X-9746597Y2127214D01*
X-9753341Y2133915D01*
X-9760653Y2141187D01*
X-9768550Y2149046D01*
X-9777048Y2157511D01*
X-9786166Y2166599D01*
X-9795920Y2176325D01*
X-9806329Y2186709D01*
X-9817408Y2197766D01*
X-9829176Y2209514D01*
X-9841650Y2221971D01*
X-9854847Y2235152D01*
X-9868784Y2249076D01*
X-9883478Y2263760D01*
X-9898948Y2279221D01*
X-9912254Y2292521D01*
X-9925558Y2305822D01*
X-9938624Y2318888D01*
X-9951429Y2331697D01*
X-9963950Y2344226D01*
X-9976164Y2356451D01*
X-9988048Y2368350D01*
X-9999580Y2379900D01*
X-10010738Y2391079D01*
X-10021498Y2401863D01*
X-10031837Y2412230D01*
X-10041734Y2422158D01*
X-10051166Y2431623D01*
X-10060109Y2440602D01*
X-10068541Y2449073D01*
X-10076440Y2457013D01*
X-10083782Y2464399D01*
X-10090546Y2471208D01*
X-10096707Y2477418D01*
X-10102245Y2483006D01*
X-10107135Y2487949D01*
X-10111356Y2492225D01*
X-10114885Y2495810D01*
X-10117698Y2498681D01*
X-10119774Y2500817D01*
X-10121089Y2502193D01*
X-10121621Y2502788D01*
X-10121630Y2502803D01*
X-10122749Y2506281D01*
X-10122755Y2508053D01*
X-10094188Y2508053D01*
X-9896126Y2309981D01*
X-9883520Y2297376D01*
X-9871116Y2284976D01*
X-9858937Y2272804D01*
X-9847008Y2260885D01*
X-9835355Y2249245D01*
X-9824000Y2237906D01*
X-9812970Y2226893D01*
X-9802287Y2216231D01*
X-9791978Y2205944D01*
X-9782065Y2196057D01*
X-9772574Y2186594D01*
X-9763530Y2177579D01*
X-9754955Y2169037D01*
X-9746876Y2160991D01*
X-9739317Y2153467D01*
X-9732302Y2146489D01*
X-9725855Y2140081D01*
X-9720001Y2134268D01*
X-9714765Y2129074D01*
X-9710170Y2124522D01*
X-9706242Y2120639D01*
X-9703005Y2117448D01*
X-9700483Y2114973D01*
X-9698702Y2113239D01*
X-9697684Y2112271D01*
X-9697438Y2112061D01*
X-9696999Y2112471D01*
X-9695778Y2113664D01*
X-9693799Y2115618D01*
X-9691085Y2118307D01*
X-9687660Y2121709D01*
X-9683550Y2125798D01*
X-9678776Y2130552D01*
X-9673365Y2135946D01*
X-9667339Y2141955D01*
X-9660722Y2148557D01*
X-9653540Y2155727D01*
X-9645814Y2163441D01*
X-9637571Y2171675D01*
X-9628833Y2180406D01*
X-9619625Y2189608D01*
X-9609970Y2199259D01*
X-9599893Y2209334D01*
X-9589418Y2219809D01*
X-9578569Y2230660D01*
X-9567369Y2241863D01*
X-9555843Y2253395D01*
X-9544014Y2265231D01*
X-9531908Y2277347D01*
X-9519547Y2289720D01*
X-9506956Y2302325D01*
X-9494158Y2315138D01*
X-9491279Y2318022D01*
X-9285745Y2523830D01*
X-9310823Y2548903D01*
X-9335902Y2573977D01*
X-9513273Y2396626D01*
X-9528857Y2381044D01*
X-9543649Y2366260D01*
X-9557659Y2352261D01*
X-9570900Y2339035D01*
X-9583384Y2326570D01*
X-9595123Y2314854D01*
X-9606129Y2303875D01*
X-9616414Y2293621D01*
X-9625991Y2284080D01*
X-9634870Y2275241D01*
X-9643065Y2267090D01*
X-9650587Y2259617D01*
X-9657449Y2252809D01*
X-9663662Y2246654D01*
X-9669239Y2241140D01*
X-9674191Y2236256D01*
X-9678531Y2231989D01*
X-9682271Y2228327D01*
X-9685423Y2225258D01*
X-9687999Y2222771D01*
X-9690011Y2220852D01*
X-9691471Y2219491D01*
X-9692391Y2218676D01*
X-9692765Y2218399D01*
X-9695197Y2217765D01*
X-9698059Y2217547D01*
X-9700788Y2217763D01*
X-9702165Y2218121D01*
X-9702684Y2218565D01*
X-9703986Y2219795D01*
X-9706049Y2221788D01*
X-9708850Y2224520D01*
X-9712366Y2227968D01*
X-9716573Y2232111D01*
X-9721450Y2236926D01*
X-9726973Y2242389D01*
X-9733118Y2248478D01*
X-9739864Y2255170D01*
X-9747188Y2262442D01*
X-9755066Y2270271D01*
X-9763475Y2278636D01*
X-9772393Y2287512D01*
X-9781797Y2296878D01*
X-9791663Y2306710D01*
X-9801970Y2316986D01*
X-9812693Y2327682D01*
X-9823810Y2338777D01*
X-9835299Y2350247D01*
X-9847136Y2362070D01*
X-9859298Y2374222D01*
X-9871763Y2386682D01*
X-9873723Y2388642D01*
X-10043675Y2558566D01*
X-10094188Y2508053D01*
X-10122755Y2508053D01*
X-10122761Y2509784D01*
X-10122436Y2511335D01*
X-10122257Y2511885D01*
X-10121973Y2512491D01*
X-10121531Y2513210D01*
X-10120876Y2514101D01*
X-10119953Y2515222D01*
X-10118709Y2516631D01*
X-10117087Y2518385D01*
X-10115035Y2520544D01*
X-10112496Y2523165D01*
X-10109418Y2526307D01*
X-10105745Y2530026D01*
X-10101423Y2534383D01*
X-10096397Y2539434D01*
X-10091117Y2544733D01*
X-10060526Y2575418D01*
X-10127996Y2642908D01*
X-10137581Y2652502D01*
X-10146372Y2661312D01*
X-10154386Y2669355D01*
X-10161640Y2676650D01*
X-10168152Y2683215D01*
X-10173939Y2689067D01*
X-10179019Y2694224D01*
X-10183410Y2698704D01*
X-10187129Y2702525D01*
X-10190193Y2705705D01*
X-10192620Y2708261D01*
X-10194428Y2710212D01*
X-10195634Y2711575D01*
X-10196256Y2712369D01*
X-10196341Y2712520D01*
X-10197115Y2715786D01*
X-10196946Y2719217D01*
X-10196120Y2721813D01*
X-10195632Y2722400D01*
X-10194366Y2723760D01*
X-10192354Y2725862D01*
X-10189627Y2728675D01*
X-10186215Y2732168D01*
X-10182151Y2736309D01*
X-10177465Y2741068D01*
X-10172189Y2746414D01*
X-10166353Y2752314D01*
X-10159989Y2758739D01*
X-10153128Y2765656D01*
X-10145801Y2773036D01*
X-10138039Y2780846D01*
X-10129873Y2789055D01*
X-10121335Y2797633D01*
X-10112456Y2806548D01*
X-10103267Y2815769D01*
X-10093799Y2825265D01*
X-10084082Y2835005D01*
X-10074150Y2844958D01*
X-10064031Y2855092D01*
X-10053759Y2865377D01*
X-10043363Y2875781D01*
X-10032875Y2886272D01*
X-10022326Y2896821D01*
X-10011747Y2907396D01*
X-10001170Y2917965D01*
X-9990626Y2928498D01*
X-9980145Y2938963D01*
X-9969759Y2949330D01*
X-9959499Y2959567D01*
X-9949397Y2969642D01*
X-9939483Y2979526D01*
X-9929788Y2989186D01*
X-9920344Y2998591D01*
X-9911182Y3007711D01*
X-9902333Y3016515D01*
X-9893828Y3024970D01*
X-9885699Y3033047D01*
X-9877975Y3040713D01*
X-9870690Y3047938D01*
X-9863873Y3054690D01*
X-9857557Y3060939D01*
X-9851771Y3066653D01*
X-9846548Y3071801D01*
X-9841918Y3076353D01*
X-9837913Y3080276D01*
X-9834563Y3083540D01*
X-9831901Y3086113D01*
X-9829956Y3087965D01*
X-9828761Y3089064D01*
X-9828364Y3089380D01*
X-9824963Y3090210D01*
X-9821505Y3090032D01*
X-9821505Y3090032D01*
G37*
X-9821505Y3090032D02*
X-9818246Y3088920D01*
X-9815439Y3086944D01*
X-9814046Y3085329D01*
X-9812719Y3082595D01*
X-9812060Y3079358D01*
X-9812136Y3076084D01*
X-9812495Y3074499D01*
X-9812662Y3074207D01*
X-9813057Y3073693D01*
X-9813701Y3072937D01*
X-9814614Y3071919D01*
X-9815817Y3070616D01*
X-9817330Y3069010D01*
X-9819174Y3067079D01*
X-9821368Y3064802D01*
X-9823933Y3062160D01*
X-9826890Y3059131D01*
X-9830259Y3055696D01*
X-9834061Y3051833D01*
X-9838315Y3047522D01*
X-9843042Y3042742D01*
X-9848263Y3037473D01*
X-9853998Y3031694D01*
X-9860267Y3025385D01*
X-9867091Y3018524D01*
X-9874491Y3011093D01*
X-9882485Y3003069D01*
X-9891096Y2994432D01*
X-9900343Y2985162D01*
X-9910246Y2975238D01*
X-9920827Y2964640D01*
X-9932105Y2953347D01*
X-9944101Y2941338D01*
X-9956836Y2928593D01*
X-9970329Y2915092D01*
X-9984601Y2900813D01*
X-9990793Y2894618D01*
X-10168389Y2716960D01*
X-9697492Y2246063D01*
X-9462043Y2481512D01*
X-9226595Y2716962D01*
X-9403912Y2894333D01*
X-9415843Y2906271D01*
X-9427573Y2918011D01*
X-9439076Y2929528D01*
X-9450326Y2940795D01*
X-9461296Y2951787D01*
X-9471961Y2962477D01*
X-9482295Y2972839D01*
X-9492271Y2982847D01*
X-9501865Y2992476D01*
X-9511049Y3001698D01*
X-9519798Y3010487D01*
X-9528086Y3018819D01*
X-9535886Y3026665D01*
X-9543174Y3034001D01*
X-9549923Y3040800D01*
X-9556106Y3047037D01*
X-9561699Y3052684D01*
X-9566674Y3057715D01*
X-9571007Y3062106D01*
X-9574670Y3065829D01*
X-9577638Y3068858D01*
X-9579886Y3071168D01*
X-9581386Y3072731D01*
X-9582114Y3073523D01*
X-9582180Y3073611D01*
X-9583048Y3076532D01*
X-9583052Y3079774D01*
X-9582261Y3082996D01*
X-9580740Y3085856D01*
X-9579530Y3087232D01*
X-9576819Y3089030D01*
X-9573588Y3090027D01*
X-9570177Y3090174D01*
X-9566926Y3089425D01*
X-9566249Y3089126D01*
X-9565705Y3088689D01*
X-9564495Y3087579D01*
X-9562611Y3085790D01*
X-9560047Y3083317D01*
X-9556797Y3080151D01*
X-9552855Y3076288D01*
X-9548214Y3071721D01*
X-9542868Y3066443D01*
X-9536810Y3060448D01*
X-9530034Y3053730D01*
X-9522533Y3046283D01*
X-9514302Y3038099D01*
X-9505333Y3029173D01*
X-9495621Y3019498D01*
X-9485158Y3009068D01*
X-9473939Y2997876D01*
X-9461957Y2985916D01*
X-9449206Y2973182D01*
X-9435679Y2959668D01*
X-9421369Y2945366D01*
X-9406271Y2930271D01*
X-9390378Y2914377D01*
X-9381481Y2905476D01*
X-9199033Y2722955D01*
X-9198344Y2719958D01*
X-9197956Y2717490D01*
X-9198095Y2715215D01*
X-9198347Y2713965D01*
X-9198450Y2713550D01*
X-9198588Y2713129D01*
X-9198800Y2712662D01*
X-9199125Y2712109D01*
X-9199601Y2711430D01*
X-9200267Y2710584D01*
X-9201161Y2709532D01*
X-9202322Y2708233D01*
X-9203790Y2706647D01*
X-9205601Y2704734D01*
X-9207796Y2702454D01*
X-9210412Y2699767D01*
X-9213489Y2696632D01*
X-9217064Y2693010D01*
X-9221177Y2688859D01*
X-9225867Y2684141D01*
X-9231171Y2678815D01*
X-9237129Y2672841D01*
X-9243779Y2666178D01*
X-9251160Y2658786D01*
X-9259040Y2650896D01*
X-9319043Y2590824D01*
X-9288448Y2560141D01*
X-9282741Y2554416D01*
X-9277787Y2549439D01*
X-9273532Y2545152D01*
X-9269921Y2541497D01*
X-9266899Y2538415D01*
X-9264412Y2535847D01*
X-9262406Y2533737D01*
X-9260825Y2532025D01*
X-9259615Y2530652D01*
X-9258722Y2529561D01*
X-9258090Y2528693D01*
X-9257666Y2527990D01*
X-9257395Y2527393D01*
X-9257223Y2526844D01*
X-9257188Y2526707D01*
X-9256824Y2523267D01*
X-9257337Y2519979D01*
X-9257955Y2518433D01*
X-9258397Y2517952D01*
X-9259622Y2516688D01*
X-9261607Y2514664D01*
X-9264330Y2511903D01*
X-9267766Y2508429D01*
X-9271892Y2504266D01*
X-9276685Y2499438D01*
X-9282120Y2493967D01*
X-9288176Y2487877D01*
X-9294828Y2481192D01*
X-9302052Y2473935D01*
X-9309826Y2466130D01*
X-9318126Y2457801D01*
X-9326928Y2448970D01*
X-9336209Y2439662D01*
X-9345945Y2429900D01*
X-9356114Y2419708D01*
X-9366691Y2409108D01*
X-9377653Y2398126D01*
X-9388976Y2386783D01*
X-9400638Y2375104D01*
X-9412614Y2363113D01*
X-9424882Y2350832D01*
X-9437417Y2338285D01*
X-9450197Y2325497D01*
X-9463198Y2312489D01*
X-9474636Y2301047D01*
X-9492158Y2283523D01*
X-9508882Y2266799D01*
X-9524818Y2250867D01*
X-9539973Y2235720D01*
X-9554357Y2221349D01*
X-9567977Y2207744D01*
X-9580842Y2194899D01*
X-9592960Y2182804D01*
X-9604339Y2171452D01*
X-9614989Y2160834D01*
X-9624917Y2150942D01*
X-9634131Y2141767D01*
X-9642641Y2133301D01*
X-9650454Y2125536D01*
X-9657579Y2118463D01*
X-9664024Y2112074D01*
X-9669797Y2106361D01*
X-9674908Y2101315D01*
X-9679364Y2096929D01*
X-9683173Y2093193D01*
X-9686345Y2090100D01*
X-9688887Y2087640D01*
X-9690808Y2085807D01*
X-9692116Y2084591D01*
X-9692819Y2083984D01*
X-9692927Y2083913D01*
X-9696107Y2083020D01*
X-9699654Y2083064D01*
X-9701774Y2083528D01*
X-9702080Y2083726D01*
X-9702695Y2084238D01*
X-9703635Y2085080D01*
X-9704918Y2086269D01*
X-9706562Y2087824D01*
X-9708582Y2089760D01*
X-9710997Y2092096D01*
X-9713824Y2094848D01*
X-9717080Y2098034D01*
X-9720782Y2101671D01*
X-9724949Y2105775D01*
X-9729596Y2110364D01*
X-9734742Y2115456D01*
X-9740403Y2121066D01*
X-9746597Y2127214D01*
X-9753341Y2133915D01*
X-9760653Y2141187D01*
X-9768550Y2149046D01*
X-9777048Y2157511D01*
X-9786166Y2166599D01*
X-9795920Y2176325D01*
X-9806329Y2186709D01*
X-9817408Y2197766D01*
X-9829176Y2209514D01*
X-9841650Y2221971D01*
X-9854847Y2235152D01*
X-9868784Y2249076D01*
X-9883478Y2263760D01*
X-9898948Y2279221D01*
X-9912254Y2292521D01*
X-9925558Y2305822D01*
X-9938624Y2318888D01*
X-9951429Y2331697D01*
X-9963950Y2344226D01*
X-9976164Y2356451D01*
X-9988048Y2368350D01*
X-9999580Y2379900D01*
X-10010738Y2391079D01*
X-10021498Y2401863D01*
X-10031837Y2412230D01*
X-10041734Y2422158D01*
X-10051166Y2431623D01*
X-10060109Y2440602D01*
X-10068541Y2449073D01*
X-10076440Y2457013D01*
X-10083782Y2464399D01*
X-10090546Y2471208D01*
X-10096707Y2477418D01*
X-10102245Y2483006D01*
X-10107135Y2487949D01*
X-10111356Y2492225D01*
X-10114885Y2495810D01*
X-10117698Y2498681D01*
X-10119774Y2500817D01*
X-10121089Y2502193D01*
X-10121621Y2502788D01*
X-10121630Y2502803D01*
X-10122749Y2506281D01*
X-10122755Y2508053D01*
X-10094188Y2508053D01*
X-9896126Y2309981D01*
X-9883520Y2297376D01*
X-9871116Y2284976D01*
X-9858937Y2272804D01*
X-9847008Y2260885D01*
X-9835355Y2249245D01*
X-9824000Y2237906D01*
X-9812970Y2226893D01*
X-9802287Y2216231D01*
X-9791978Y2205944D01*
X-9782065Y2196057D01*
X-9772574Y2186594D01*
X-9763530Y2177579D01*
X-9754955Y2169037D01*
X-9746876Y2160991D01*
X-9739317Y2153467D01*
X-9732302Y2146489D01*
X-9725855Y2140081D01*
X-9720001Y2134268D01*
X-9714765Y2129074D01*
X-9710170Y2124522D01*
X-9706242Y2120639D01*
X-9703005Y2117448D01*
X-9700483Y2114973D01*
X-9698702Y2113239D01*
X-9697684Y2112271D01*
X-9697438Y2112061D01*
X-9696999Y2112471D01*
X-9695778Y2113664D01*
X-9693799Y2115618D01*
X-9691085Y2118307D01*
X-9687660Y2121709D01*
X-9683550Y2125798D01*
X-9678776Y2130552D01*
X-9673365Y2135946D01*
X-9667339Y2141955D01*
X-9660722Y2148557D01*
X-9653540Y2155727D01*
X-9645814Y2163441D01*
X-9637571Y2171675D01*
X-9628833Y2180406D01*
X-9619625Y2189608D01*
X-9609970Y2199259D01*
X-9599893Y2209334D01*
X-9589418Y2219809D01*
X-9578569Y2230660D01*
X-9567369Y2241863D01*
X-9555843Y2253395D01*
X-9544014Y2265231D01*
X-9531908Y2277347D01*
X-9519547Y2289720D01*
X-9506956Y2302325D01*
X-9494158Y2315138D01*
X-9491279Y2318022D01*
X-9285745Y2523830D01*
X-9310823Y2548903D01*
X-9335902Y2573977D01*
X-9513273Y2396626D01*
X-9528857Y2381044D01*
X-9543649Y2366260D01*
X-9557659Y2352261D01*
X-9570900Y2339035D01*
X-9583384Y2326570D01*
X-9595123Y2314854D01*
X-9606129Y2303875D01*
X-9616414Y2293621D01*
X-9625991Y2284080D01*
X-9634870Y2275241D01*
X-9643065Y2267090D01*
X-9650587Y2259617D01*
X-9657449Y2252809D01*
X-9663662Y2246654D01*
X-9669239Y2241140D01*
X-9674191Y2236256D01*
X-9678531Y2231989D01*
X-9682271Y2228327D01*
X-9685423Y2225258D01*
X-9687999Y2222771D01*
X-9690011Y2220852D01*
X-9691471Y2219491D01*
X-9692391Y2218676D01*
X-9692765Y2218399D01*
X-9695197Y2217765D01*
X-9698059Y2217547D01*
X-9700788Y2217763D01*
X-9702165Y2218121D01*
X-9702684Y2218565D01*
X-9703986Y2219795D01*
X-9706049Y2221788D01*
X-9708850Y2224520D01*
X-9712366Y2227968D01*
X-9716573Y2232111D01*
X-9721450Y2236926D01*
X-9726973Y2242389D01*
X-9733118Y2248478D01*
X-9739864Y2255170D01*
X-9747188Y2262442D01*
X-9755066Y2270271D01*
X-9763475Y2278636D01*
X-9772393Y2287512D01*
X-9781797Y2296878D01*
X-9791663Y2306710D01*
X-9801970Y2316986D01*
X-9812693Y2327682D01*
X-9823810Y2338777D01*
X-9835299Y2350247D01*
X-9847136Y2362070D01*
X-9859298Y2374222D01*
X-9871763Y2386682D01*
X-9873723Y2388642D01*
X-10043675Y2558566D01*
X-10094188Y2508053D01*
X-10122755Y2508053D01*
X-10122761Y2509784D01*
X-10122436Y2511335D01*
X-10122257Y2511885D01*
X-10121973Y2512491D01*
X-10121531Y2513210D01*
X-10120876Y2514101D01*
X-10119953Y2515222D01*
X-10118709Y2516631D01*
X-10117087Y2518385D01*
X-10115035Y2520544D01*
X-10112496Y2523165D01*
X-10109418Y2526307D01*
X-10105745Y2530026D01*
X-10101423Y2534383D01*
X-10096397Y2539434D01*
X-10091117Y2544733D01*
X-10060526Y2575418D01*
X-10127996Y2642908D01*
X-10137581Y2652502D01*
X-10146372Y2661312D01*
X-10154386Y2669355D01*
X-10161640Y2676650D01*
X-10168152Y2683215D01*
X-10173939Y2689067D01*
X-10179019Y2694224D01*
X-10183410Y2698704D01*
X-10187129Y2702525D01*
X-10190193Y2705705D01*
X-10192620Y2708261D01*
X-10194428Y2710212D01*
X-10195634Y2711575D01*
X-10196256Y2712369D01*
X-10196341Y2712520D01*
X-10197115Y2715786D01*
X-10196946Y2719217D01*
X-10196120Y2721813D01*
X-10195632Y2722400D01*
X-10194366Y2723760D01*
X-10192354Y2725862D01*
X-10189627Y2728675D01*
X-10186215Y2732168D01*
X-10182151Y2736309D01*
X-10177465Y2741068D01*
X-10172189Y2746414D01*
X-10166353Y2752314D01*
X-10159989Y2758739D01*
X-10153128Y2765656D01*
X-10145801Y2773036D01*
X-10138039Y2780846D01*
X-10129873Y2789055D01*
X-10121335Y2797633D01*
X-10112456Y2806548D01*
X-10103267Y2815769D01*
X-10093799Y2825265D01*
X-10084082Y2835005D01*
X-10074150Y2844958D01*
X-10064031Y2855092D01*
X-10053759Y2865377D01*
X-10043363Y2875781D01*
X-10032875Y2886272D01*
X-10022326Y2896821D01*
X-10011747Y2907396D01*
X-10001170Y2917965D01*
X-9990626Y2928498D01*
X-9980145Y2938963D01*
X-9969759Y2949330D01*
X-9959499Y2959567D01*
X-9949397Y2969642D01*
X-9939483Y2979526D01*
X-9929788Y2989186D01*
X-9920344Y2998591D01*
X-9911182Y3007711D01*
X-9902333Y3016515D01*
X-9893828Y3024970D01*
X-9885699Y3033047D01*
X-9877975Y3040713D01*
X-9870690Y3047938D01*
X-9863873Y3054690D01*
X-9857557Y3060939D01*
X-9851771Y3066653D01*
X-9846548Y3071801D01*
X-9841918Y3076353D01*
X-9837913Y3080276D01*
X-9834563Y3083540D01*
X-9831901Y3086113D01*
X-9829956Y3087965D01*
X-9828761Y3089064D01*
X-9828364Y3089380D01*
X-9824963Y3090210D01*
X-9821505Y3090032D01*
G36*
X-9614812Y2831312D02*
G01*
X-9609995Y2829588D01*
X-9607486Y2828161D01*
X-9604374Y2826004D01*
X-9600815Y2823242D01*
X-9596961Y2820001D01*
X-9592966Y2816406D01*
X-9588984Y2812582D01*
X-9588445Y2812044D01*
X-9581452Y2804643D01*
X-9575318Y2797274D01*
X-9569835Y2789644D01*
X-9564791Y2781460D01*
X-9559977Y2772430D01*
X-9559935Y2772346D01*
X-9554624Y2760434D01*
X-9550377Y2748162D01*
X-9547201Y2735601D01*
X-9545105Y2722825D01*
X-9544094Y2709904D01*
X-9544178Y2696913D01*
X-9545362Y2683922D01*
X-9547656Y2671004D01*
X-9548885Y2665876D01*
X-9552015Y2655540D01*
X-9556081Y2645030D01*
X-9560959Y2634592D01*
X-9566524Y2624475D01*
X-9572652Y2614927D01*
X-9578267Y2607371D01*
X-9580959Y2604191D01*
X-9584295Y2600543D01*
X-9588029Y2596673D01*
X-9591917Y2592828D01*
X-9595712Y2589253D01*
X-9599167Y2586194D01*
X-9600744Y2584892D01*
X-9610021Y2578074D01*
X-9620013Y2571825D01*
X-9630517Y2566244D01*
X-9641327Y2561426D01*
X-9652241Y2557468D01*
X-9663054Y2554469D01*
X-9666100Y2553800D01*
X-9673877Y2552438D01*
X-9682139Y2551422D01*
X-9690533Y2550776D01*
X-9698706Y2550526D01*
X-9706303Y2550696D01*
X-9708670Y2550852D01*
X-9720699Y2552259D01*
X-9732446Y2554594D01*
X-9743878Y2557805D01*
X-9756339Y2562371D01*
X-9768212Y2567892D01*
X-9779458Y2574323D01*
X-9790038Y2581618D01*
X-9799916Y2589732D01*
X-9809054Y2598620D01*
X-9817413Y2608238D01*
X-9824955Y2618539D01*
X-9831644Y2629480D01*
X-9837440Y2641014D01*
X-9842307Y2653098D01*
X-9846206Y2665685D01*
X-9849099Y2678731D01*
X-9849977Y2684142D01*
X-9850437Y2688285D01*
X-9850762Y2693276D01*
X-9850952Y2698830D01*
X-9851007Y2704661D01*
X-9850928Y2710484D01*
X-9850713Y2716013D01*
X-9850364Y2720962D01*
X-9849987Y2724318D01*
X-9847596Y2737490D01*
X-9844143Y2750304D01*
X-9839651Y2762704D01*
X-9834144Y2774635D01*
X-9827645Y2786042D01*
X-9820177Y2796867D01*
X-9818861Y2798584D01*
X-9815703Y2802427D01*
X-9812077Y2806471D01*
X-9808130Y2810584D01*
X-9804005Y2814631D01*
X-9799848Y2818479D01*
X-9795803Y2821994D01*
X-9792017Y2825044D01*
X-9788633Y2827494D01*
X-9785797Y2829210D01*
X-9785394Y2829412D01*
X-9780429Y2831209D01*
X-9775279Y2831947D01*
X-9770118Y2831645D01*
X-9765120Y2830319D01*
X-9760460Y2827987D01*
X-9758713Y2826763D01*
X-9756260Y2824447D01*
X-9753850Y2821413D01*
X-9751762Y2818062D01*
X-9750276Y2814793D01*
X-9750197Y2814566D01*
X-9749169Y2809819D01*
X-9749084Y2804783D01*
X-9749904Y2799749D01*
X-9751590Y2795008D01*
X-9753238Y2792058D01*
X-9754539Y2790428D01*
X-9756430Y2788466D01*
X-9758576Y2786510D01*
X-9759388Y2785840D01*
X-9762637Y2783079D01*
X-9766233Y2779746D01*
X-9769959Y2776067D01*
X-9773597Y2772268D01*
X-9776929Y2768573D01*
X-9779737Y2765209D01*
X-9781257Y2763195D01*
X-9786071Y2755631D01*
X-9790357Y2747312D01*
X-9793978Y2738553D01*
X-9796800Y2729672D01*
X-9798232Y2723526D01*
X-9799001Y2718526D01*
X-9799539Y2712798D01*
X-9799829Y2706734D01*
X-9799857Y2700724D01*
X-9799607Y2695162D01*
X-9799402Y2692924D01*
X-9797686Y2682446D01*
X-9794883Y2672249D01*
X-9791032Y2662407D01*
X-9786167Y2652993D01*
X-9780325Y2644080D01*
X-9773544Y2635742D01*
X-9768281Y2630309D01*
X-9760463Y2623565D01*
X-9751884Y2617583D01*
X-9742694Y2612440D01*
X-9733041Y2608211D01*
X-9723078Y2604974D01*
X-9714331Y2603032D01*
X-9710891Y2602580D01*
X-9706656Y2602250D01*
X-9701923Y2602044D01*
X-9696993Y2601967D01*
X-9692165Y2602020D01*
X-9687737Y2602208D01*
X-9684010Y2602531D01*
X-9682652Y2602720D01*
X-9671967Y2605012D01*
X-9661701Y2608321D01*
X-9651918Y2612606D01*
X-9642686Y2617822D01*
X-9634069Y2623926D01*
X-9626135Y2630874D01*
X-9618947Y2638623D01*
X-9612574Y2647129D01*
X-9610431Y2650465D01*
X-9608461Y2653909D01*
X-9606331Y2658030D01*
X-9604223Y2662446D01*
X-9602318Y2666773D01*
X-9600797Y2670628D01*
X-9600470Y2671557D01*
X-9597625Y2681633D01*
X-9595862Y2691936D01*
X-9595169Y2702361D01*
X-9595536Y2712803D01*
X-9596951Y2723155D01*
X-9599404Y2733311D01*
X-9602885Y2743166D01*
X-9607382Y2752615D01*
X-9609022Y2755515D01*
X-9613611Y2762701D01*
X-9618586Y2769238D01*
X-9624165Y2775382D01*
X-9630568Y2781385D01*
X-9633172Y2783608D01*
X-9635669Y2785762D01*
X-9638014Y2787915D01*
X-9639982Y2789850D01*
X-9641344Y2791349D01*
X-9641577Y2791649D01*
X-9643847Y2795604D01*
X-9645399Y2800142D01*
X-9646168Y2804925D01*
X-9646088Y2809618D01*
X-9645611Y2812224D01*
X-9643782Y2817285D01*
X-9641125Y2821703D01*
X-9637766Y2825419D01*
X-9633829Y2828370D01*
X-9629440Y2830496D01*
X-9624724Y2831736D01*
X-9619807Y2832028D01*
X-9614812Y2831312D01*
X-9614812Y2831312D01*
G37*
X-9614812Y2831312D02*
X-9609995Y2829588D01*
X-9607486Y2828161D01*
X-9604374Y2826004D01*
X-9600815Y2823242D01*
X-9596961Y2820001D01*
X-9592966Y2816406D01*
X-9588984Y2812582D01*
X-9588445Y2812044D01*
X-9581452Y2804643D01*
X-9575318Y2797274D01*
X-9569835Y2789644D01*
X-9564791Y2781460D01*
X-9559977Y2772430D01*
X-9559935Y2772346D01*
X-9554624Y2760434D01*
X-9550377Y2748162D01*
X-9547201Y2735601D01*
X-9545105Y2722825D01*
X-9544094Y2709904D01*
X-9544178Y2696913D01*
X-9545362Y2683922D01*
X-9547656Y2671004D01*
X-9548885Y2665876D01*
X-9552015Y2655540D01*
X-9556081Y2645030D01*
X-9560959Y2634592D01*
X-9566524Y2624475D01*
X-9572652Y2614927D01*
X-9578267Y2607371D01*
X-9580959Y2604191D01*
X-9584295Y2600543D01*
X-9588029Y2596673D01*
X-9591917Y2592828D01*
X-9595712Y2589253D01*
X-9599167Y2586194D01*
X-9600744Y2584892D01*
X-9610021Y2578074D01*
X-9620013Y2571825D01*
X-9630517Y2566244D01*
X-9641327Y2561426D01*
X-9652241Y2557468D01*
X-9663054Y2554469D01*
X-9666100Y2553800D01*
X-9673877Y2552438D01*
X-9682139Y2551422D01*
X-9690533Y2550776D01*
X-9698706Y2550526D01*
X-9706303Y2550696D01*
X-9708670Y2550852D01*
X-9720699Y2552259D01*
X-9732446Y2554594D01*
X-9743878Y2557805D01*
X-9756339Y2562371D01*
X-9768212Y2567892D01*
X-9779458Y2574323D01*
X-9790038Y2581618D01*
X-9799916Y2589732D01*
X-9809054Y2598620D01*
X-9817413Y2608238D01*
X-9824955Y2618539D01*
X-9831644Y2629480D01*
X-9837440Y2641014D01*
X-9842307Y2653098D01*
X-9846206Y2665685D01*
X-9849099Y2678731D01*
X-9849977Y2684142D01*
X-9850437Y2688285D01*
X-9850762Y2693276D01*
X-9850952Y2698830D01*
X-9851007Y2704661D01*
X-9850928Y2710484D01*
X-9850713Y2716013D01*
X-9850364Y2720962D01*
X-9849987Y2724318D01*
X-9847596Y2737490D01*
X-9844143Y2750304D01*
X-9839651Y2762704D01*
X-9834144Y2774635D01*
X-9827645Y2786042D01*
X-9820177Y2796867D01*
X-9818861Y2798584D01*
X-9815703Y2802427D01*
X-9812077Y2806471D01*
X-9808130Y2810584D01*
X-9804005Y2814631D01*
X-9799848Y2818479D01*
X-9795803Y2821994D01*
X-9792017Y2825044D01*
X-9788633Y2827494D01*
X-9785797Y2829210D01*
X-9785394Y2829412D01*
X-9780429Y2831209D01*
X-9775279Y2831947D01*
X-9770118Y2831645D01*
X-9765120Y2830319D01*
X-9760460Y2827987D01*
X-9758713Y2826763D01*
X-9756260Y2824447D01*
X-9753850Y2821413D01*
X-9751762Y2818062D01*
X-9750276Y2814793D01*
X-9750197Y2814566D01*
X-9749169Y2809819D01*
X-9749084Y2804783D01*
X-9749904Y2799749D01*
X-9751590Y2795008D01*
X-9753238Y2792058D01*
X-9754539Y2790428D01*
X-9756430Y2788466D01*
X-9758576Y2786510D01*
X-9759388Y2785840D01*
X-9762637Y2783079D01*
X-9766233Y2779746D01*
X-9769959Y2776067D01*
X-9773597Y2772268D01*
X-9776929Y2768573D01*
X-9779737Y2765209D01*
X-9781257Y2763195D01*
X-9786071Y2755631D01*
X-9790357Y2747312D01*
X-9793978Y2738553D01*
X-9796800Y2729672D01*
X-9798232Y2723526D01*
X-9799001Y2718526D01*
X-9799539Y2712798D01*
X-9799829Y2706734D01*
X-9799857Y2700724D01*
X-9799607Y2695162D01*
X-9799402Y2692924D01*
X-9797686Y2682446D01*
X-9794883Y2672249D01*
X-9791032Y2662407D01*
X-9786167Y2652993D01*
X-9780325Y2644080D01*
X-9773544Y2635742D01*
X-9768281Y2630309D01*
X-9760463Y2623565D01*
X-9751884Y2617583D01*
X-9742694Y2612440D01*
X-9733041Y2608211D01*
X-9723078Y2604974D01*
X-9714331Y2603032D01*
X-9710891Y2602580D01*
X-9706656Y2602250D01*
X-9701923Y2602044D01*
X-9696993Y2601967D01*
X-9692165Y2602020D01*
X-9687737Y2602208D01*
X-9684010Y2602531D01*
X-9682652Y2602720D01*
X-9671967Y2605012D01*
X-9661701Y2608321D01*
X-9651918Y2612606D01*
X-9642686Y2617822D01*
X-9634069Y2623926D01*
X-9626135Y2630874D01*
X-9618947Y2638623D01*
X-9612574Y2647129D01*
X-9610431Y2650465D01*
X-9608461Y2653909D01*
X-9606331Y2658030D01*
X-9604223Y2662446D01*
X-9602318Y2666773D01*
X-9600797Y2670628D01*
X-9600470Y2671557D01*
X-9597625Y2681633D01*
X-9595862Y2691936D01*
X-9595169Y2702361D01*
X-9595536Y2712803D01*
X-9596951Y2723155D01*
X-9599404Y2733311D01*
X-9602885Y2743166D01*
X-9607382Y2752615D01*
X-9609022Y2755515D01*
X-9613611Y2762701D01*
X-9618586Y2769238D01*
X-9624165Y2775382D01*
X-9630568Y2781385D01*
X-9633172Y2783608D01*
X-9635669Y2785762D01*
X-9638014Y2787915D01*
X-9639982Y2789850D01*
X-9641344Y2791349D01*
X-9641577Y2791649D01*
X-9643847Y2795604D01*
X-9645399Y2800142D01*
X-9646168Y2804925D01*
X-9646088Y2809618D01*
X-9645611Y2812224D01*
X-9643782Y2817285D01*
X-9641125Y2821703D01*
X-9637766Y2825419D01*
X-9633829Y2828370D01*
X-9629440Y2830496D01*
X-9624724Y2831736D01*
X-9619807Y2832028D01*
X-9614812Y2831312D01*
G36*
X-9692907Y2882918D02*
G01*
X-9688716Y2881772D01*
X-9687590Y2881316D01*
X-9683277Y2878854D01*
X-9679427Y2875566D01*
X-9676238Y2871668D01*
X-9673908Y2867380D01*
X-9673240Y2865537D01*
X-9673067Y2864953D01*
X-9672913Y2864342D01*
X-9672775Y2863641D01*
X-9672654Y2862784D01*
X-9672548Y2861708D01*
X-9672457Y2860350D01*
X-9672379Y2858645D01*
X-9672313Y2856529D01*
X-9672258Y2853939D01*
X-9672214Y2850810D01*
X-9672179Y2847080D01*
X-9672152Y2842683D01*
X-9672132Y2837556D01*
X-9672118Y2831635D01*
X-9672110Y2824856D01*
X-9672106Y2817156D01*
X-9672105Y2808470D01*
X-9672106Y2798734D01*
X-9672107Y2794100D01*
X-9672114Y2783226D01*
X-9672130Y2773156D01*
X-9672156Y2763924D01*
X-9672190Y2755563D01*
X-9672233Y2748105D01*
X-9672284Y2741583D01*
X-9672343Y2736028D01*
X-9672410Y2731473D01*
X-9672484Y2727952D01*
X-9672565Y2725496D01*
X-9672654Y2724138D01*
X-9672686Y2723930D01*
X-9674053Y2719852D01*
X-9676271Y2716026D01*
X-9679081Y2712623D01*
X-9682204Y2709617D01*
X-9685251Y2707450D01*
X-9688565Y2705902D01*
X-9690319Y2705323D01*
X-9693599Y2704676D01*
X-9697377Y2704438D01*
X-9701189Y2704602D01*
X-9704569Y2705165D01*
X-9705647Y2705484D01*
X-9710362Y2707697D01*
X-9714526Y2710815D01*
X-9718010Y2714682D01*
X-9720686Y2719144D01*
X-9722427Y2724045D01*
X-9722875Y2726380D01*
X-9722964Y2727589D01*
X-9723046Y2729848D01*
X-9723120Y2733065D01*
X-9723186Y2737148D01*
X-9723245Y2742006D01*
X-9723296Y2747548D01*
X-9723340Y2753681D01*
X-9723377Y2760316D01*
X-9723406Y2767360D01*
X-9723427Y2774721D01*
X-9723442Y2782309D01*
X-9723448Y2790032D01*
X-9723448Y2797799D01*
X-9723440Y2805517D01*
X-9723424Y2813096D01*
X-9723401Y2820445D01*
X-9723371Y2827471D01*
X-9723333Y2834084D01*
X-9723288Y2840191D01*
X-9723235Y2845702D01*
X-9723175Y2850525D01*
X-9723108Y2854569D01*
X-9723034Y2857742D01*
X-9722952Y2859953D01*
X-9722866Y2861085D01*
X-9721571Y2866233D01*
X-9719300Y2870929D01*
X-9716167Y2875057D01*
X-9712288Y2878498D01*
X-9707777Y2881133D01*
X-9702750Y2882846D01*
X-9701352Y2883130D01*
X-9697286Y2883392D01*
X-9692907Y2882918D01*
X-9692907Y2882918D01*
G37*
X-9692907Y2882918D02*
X-9688716Y2881772D01*
X-9687590Y2881316D01*
X-9683277Y2878854D01*
X-9679427Y2875566D01*
X-9676238Y2871668D01*
X-9673908Y2867380D01*
X-9673240Y2865537D01*
X-9673067Y2864953D01*
X-9672913Y2864342D01*
X-9672775Y2863641D01*
X-9672654Y2862784D01*
X-9672548Y2861708D01*
X-9672457Y2860350D01*
X-9672379Y2858645D01*
X-9672313Y2856529D01*
X-9672258Y2853939D01*
X-9672214Y2850810D01*
X-9672179Y2847080D01*
X-9672152Y2842683D01*
X-9672132Y2837556D01*
X-9672118Y2831635D01*
X-9672110Y2824856D01*
X-9672106Y2817156D01*
X-9672105Y2808470D01*
X-9672106Y2798734D01*
X-9672107Y2794100D01*
X-9672114Y2783226D01*
X-9672130Y2773156D01*
X-9672156Y2763924D01*
X-9672190Y2755563D01*
X-9672233Y2748105D01*
X-9672284Y2741583D01*
X-9672343Y2736028D01*
X-9672410Y2731473D01*
X-9672484Y2727952D01*
X-9672565Y2725496D01*
X-9672654Y2724138D01*
X-9672686Y2723930D01*
X-9674053Y2719852D01*
X-9676271Y2716026D01*
X-9679081Y2712623D01*
X-9682204Y2709617D01*
X-9685251Y2707450D01*
X-9688565Y2705902D01*
X-9690319Y2705323D01*
X-9693599Y2704676D01*
X-9697377Y2704438D01*
X-9701189Y2704602D01*
X-9704569Y2705165D01*
X-9705647Y2705484D01*
X-9710362Y2707697D01*
X-9714526Y2710815D01*
X-9718010Y2714682D01*
X-9720686Y2719144D01*
X-9722427Y2724045D01*
X-9722875Y2726380D01*
X-9722964Y2727589D01*
X-9723046Y2729848D01*
X-9723120Y2733065D01*
X-9723186Y2737148D01*
X-9723245Y2742006D01*
X-9723296Y2747548D01*
X-9723340Y2753681D01*
X-9723377Y2760316D01*
X-9723406Y2767360D01*
X-9723427Y2774721D01*
X-9723442Y2782309D01*
X-9723448Y2790032D01*
X-9723448Y2797799D01*
X-9723440Y2805517D01*
X-9723424Y2813096D01*
X-9723401Y2820445D01*
X-9723371Y2827471D01*
X-9723333Y2834084D01*
X-9723288Y2840191D01*
X-9723235Y2845702D01*
X-9723175Y2850525D01*
X-9723108Y2854569D01*
X-9723034Y2857742D01*
X-9722952Y2859953D01*
X-9722866Y2861085D01*
X-9721571Y2866233D01*
X-9719300Y2870929D01*
X-9716167Y2875057D01*
X-9712288Y2878498D01*
X-9707777Y2881133D01*
X-9702750Y2882846D01*
X-9701352Y2883130D01*
X-9697286Y2883392D01*
X-9692907Y2882918D01*
M02*
