M48
; DRILL file {KiCad (5.1.5)-3} date 10/26/2020 10:48:42 AM
; FORMAT={-:-/ absolute / metric / decimal}
; #@! TF.CreationDate,2020-10-26T10:48:42-07:00
; #@! TF.GenerationSoftware,Kicad,Pcbnew,(5.1.5)-3
; #@! TF.FileFunction,NonPlated,1,2,NPTH
FMAT,2
METRIC
T1C0.650
T2C1.750
T3C3.048
T4C3.988
%
G90
G05
T1
X38.328Y-23.977
X44.108Y-23.977
T2
X255.27Y-31.75
X265.43Y-31.75
X183.832Y-88.9
X193.992Y-88.9
X293.37Y-107.95
X303.53Y-107.95
X293.37Y-88.9
X303.53Y-88.9
X160.02Y-107.95
X170.18Y-107.95
X29.051Y-107.95
X39.211Y-107.95
X264.795Y-50.8
X274.955Y-50.8
X221.932Y-88.9
X232.093Y-88.9
X245.745Y-50.8
X255.905Y-50.8
X155.257Y-69.85
X165.417Y-69.85
X240.982Y-107.95
X251.142Y-107.95
X226.695Y-50.8
X236.855Y-50.8
X169.545Y-50.8
X179.705Y-50.8
X281.464Y-69.85
X291.624Y-69.85
X31.432Y-50.8
X41.593Y-50.8
X188.595Y-50.8
X198.755Y-50.8
X136.207Y-69.85
X146.368Y-69.85
X107.632Y-88.9
X117.792Y-88.9
X140.97Y-31.75
X151.13Y-31.75
X312.42Y-88.9
X322.58Y-88.9
X83.82Y-31.75
X93.98Y-31.75
X52.864Y-107.95
X63.024Y-107.95
X243.364Y-107.95
X253.524Y-107.95
X55.245Y-50.8
X65.405Y-50.8
X74.295Y-50.8
X84.455Y-50.8
X38.576Y-88.9
X48.736Y-88.9
X64.77Y-31.75
X74.93Y-31.75
X312.42Y-31.75
X322.58Y-31.75
X93.345Y-50.8
X103.505Y-50.8
X312.42Y-107.95
X322.58Y-107.95
X60.008Y-69.85
X70.167Y-69.85
X79.057Y-69.85
X89.218Y-69.85
X148.114Y-107.95
X158.274Y-107.95
X219.551Y-107.95
X229.711Y-107.95
X55.245Y-107.95
X65.405Y-107.95
X29.051Y-69.85
X39.211Y-69.85
X193.357Y-69.85
X203.517Y-69.85
X102.87Y-31.75
X113.03Y-31.75
X312.42Y-69.85
X322.58Y-69.85
X288.607Y-50.8
X298.767Y-50.8
X202.882Y-88.9
X213.042Y-88.9
X26.67Y-31.75
X36.83Y-31.75
X174.308Y-69.85
X184.468Y-69.85
X164.782Y-88.9
X174.942Y-88.9
X267.176Y-88.9
X277.336Y-88.9
X88.582Y-88.9
X98.742Y-88.9
X33.814Y-69.85
X43.974Y-69.85
X179.07Y-31.75
X189.23Y-31.75
X231.457Y-69.85
X241.617Y-69.85
X283.845Y-31.75
X294.005Y-31.75
X198.12Y-31.75
X208.28Y-31.75
X121.92Y-31.75
X132.08Y-31.75
X212.407Y-69.85
X222.567Y-69.85
X126.682Y-88.9
X136.843Y-88.9
X112.395Y-50.8
X122.555Y-50.8
X150.495Y-50.8
X160.655Y-50.8
X76.676Y-107.95
X86.836Y-107.95
X45.72Y-31.75
X55.88Y-31.75
X236.22Y-31.75
X246.38Y-31.75
X79.057Y-107.95
X89.218Y-107.95
X160.02Y-31.75
X170.18Y-31.75
X240.982Y-88.9
X251.142Y-88.9
X31.432Y-107.95
X41.593Y-107.95
X250.507Y-69.85
X260.667Y-69.85
X274.32Y-107.95
X284.48Y-107.95
X207.645Y-50.8
X217.805Y-50.8
X131.445Y-50.8
X141.605Y-50.8
X98.108Y-69.85
X108.267Y-69.85
X145.732Y-88.9
X155.892Y-88.9
X69.532Y-88.9
X79.692Y-88.9
X117.157Y-69.85
X127.317Y-69.85
X312.42Y-50.8
X322.58Y-50.8
X217.17Y-31.75
X227.33Y-31.75
T3
X107.95Y-114.935
X222.25Y-114.935
X274.606Y-62.865
X298.482Y-62.865
X31.718Y-81.915
X55.594Y-81.915
X103.194Y-114.935
X203.194Y-114.935
X276.987Y-24.765
X300.863Y-24.765
T4
X317.5Y-31.75
X98.425Y-50.8
X317.5Y-107.95
X65.087Y-69.85
X84.138Y-69.85
X103.194Y-99.695
X153.194Y-107.95
X203.194Y-99.695
X224.631Y-107.95
X60.325Y-107.95
X34.131Y-69.85
X198.438Y-69.85
X107.95Y-31.75
X317.5Y-69.85
X293.688Y-50.8
X207.962Y-88.9
X31.75Y-31.75
X179.387Y-69.85
X169.862Y-88.9
X272.256Y-88.9
X93.662Y-88.9
X38.894Y-69.85
X184.15Y-31.75
X236.537Y-69.85
X276.987Y-40.005
X288.925Y-31.75
X300.863Y-40.005
X203.2Y-31.75
X127.0Y-31.75
X217.487Y-69.85
X131.762Y-88.9
X117.475Y-50.8
X155.575Y-50.8
X81.756Y-107.95
X50.8Y-31.75
X241.3Y-31.75
X84.138Y-107.95
X165.1Y-31.75
X246.062Y-88.9
X36.512Y-107.95
X255.587Y-69.85
X279.4Y-107.95
X212.725Y-50.8
X136.525Y-50.8
X103.188Y-69.85
X150.812Y-88.9
X74.612Y-88.9
X122.237Y-69.85
X317.5Y-50.8
X222.25Y-31.75
X260.35Y-31.75
X188.912Y-88.9
X298.45Y-107.95
X298.45Y-88.9
X107.95Y-99.695
X165.1Y-107.95
X222.25Y-99.695
X34.131Y-107.95
X269.875Y-50.8
X227.012Y-88.9
X250.825Y-50.8
X160.338Y-69.85
X246.062Y-107.95
X231.775Y-50.8
X174.625Y-50.8
X274.606Y-78.105
X286.544Y-69.85
X298.482Y-78.105
X36.512Y-50.8
X193.675Y-50.8
X141.287Y-69.85
X112.712Y-88.9
X146.05Y-31.75
X317.5Y-88.9
X88.9Y-31.75
X57.944Y-107.95
X248.444Y-107.95
X60.325Y-50.8
X79.375Y-50.8
X31.718Y-97.155
X43.656Y-88.9
X55.594Y-97.155
X69.85Y-31.75
T0
M30
