M48
; DRILL file {KiCad (5.1.5)-3} date 10/26/2020 10:48:42 AM
; FORMAT={-:-/ absolute / metric / decimal}
; #@! TF.CreationDate,2020-10-26T10:48:42-07:00
; #@! TF.GenerationSoftware,Kicad,Pcbnew,(5.1.5)-3
; #@! TF.FileFunction,Plated,1,2,PTH
FMAT,2
METRIC
T1C0.300
T2C0.400
T3C0.600
T4C1.000
T5C1.040
T6C1.470
%
G90
G05
T1
X49.06Y-41.547
X57.978Y-39.741
T2
X27.222Y-69.476
X28.57Y-41.859
X30.05Y-71.8
X30.227Y-73.278
X30.75Y-61.0
X30.807Y-60.199
X32.3Y-72.45
X32.779Y-41.681
X33.175Y-79.025
X34.428Y-98.538
X35.687Y-61.849
X35.687Y-62.738
X37.846Y-43.053
X38.62Y-32.154
X38.85Y-60.2
X38.989Y-53.086
X39.121Y-61.0
X39.894Y-30.661
X39.967Y-29.312
X40.01Y-41.923
X41.47Y-55.55
X41.65Y-68.198
X41.91Y-72.265
X42.126Y-30.62
X42.968Y-28.746
X43.058Y-60.22
X43.307Y-71.374
X43.641Y-66.212
X43.942Y-68.326
X43.95Y-75.7
X44.069Y-43.053
X44.069Y-53.34
X44.348Y-33.414
X44.55Y-60.95
X44.704Y-73.025
X45.466Y-61.468
X45.466Y-62.357
X45.466Y-71.374
X45.745Y-37.541
X45.847Y-76.708
X46.482Y-64.77
X46.482Y-91.059
X46.609Y-102.108
X46.75Y-58.85
X47.244Y-110.109
X47.752Y-71.374
X47.892Y-35.687
X48.006Y-62.611
X48.641Y-61.595
X49.784Y-73.406
X49.911Y-81.915
X50.8Y-81.915
X52.5Y-59.6
X52.629Y-45.588
X54.305Y-38.341
X54.983Y-37.607
X55.499Y-74.676
X55.629Y-45.588
X55.715Y-42.423
X56.007Y-69.977
X56.134Y-61.849
X56.642Y-71.755
X57.15Y-73.406
X57.785Y-41.656
X57.785Y-72.644
X58.547Y-69.215
X59.055Y-60.82
X59.309Y-44.45
X59.436Y-36.449
X60.05Y-57.4
X66.802Y-96.393
X67.678Y-41.643
X68.922Y-82.128
X77.203Y-79.959
X252.349Y-33.528
X254.0Y-38.481
X259.842Y-111.506
X261.022Y-53.377
X264.668Y-73.406
X266.319Y-92.456
X266.446Y-64.008
X272.16Y-99.573
X302.676Y-42.994
X309.202Y-94.92
X311.323Y-44.722
X313.89Y-59.66
T4
X25.58Y-75.16
X25.58Y-77.7
X25.58Y-80.24
X28.12Y-75.16
X28.12Y-77.7
X28.12Y-80.24
T5
X201.93Y-36.83
X204.47Y-36.83
X125.73Y-36.83
X128.27Y-36.83
X216.218Y-74.93
X218.757Y-74.93
X130.493Y-93.98
X133.032Y-93.98
X116.205Y-55.88
X118.745Y-55.88
X154.305Y-55.88
X156.845Y-55.88
X80.486Y-113.03
X83.026Y-113.03
X49.53Y-36.83
X52.07Y-36.83
X240.03Y-36.83
X242.57Y-36.83
X82.867Y-113.03
X85.407Y-113.03
X163.83Y-36.83
X166.37Y-36.83
X244.792Y-93.98
X247.332Y-93.98
X35.242Y-113.03
X37.782Y-113.03
X254.317Y-74.93
X256.858Y-74.93
X278.13Y-113.03
X280.67Y-113.03
X211.455Y-55.88
X213.995Y-55.88
X135.255Y-55.88
X137.795Y-55.88
X101.917Y-74.93
X104.457Y-74.93
X149.542Y-93.98
X152.082Y-93.98
X73.343Y-93.98
X75.882Y-93.98
X120.968Y-74.93
X123.507Y-74.93
X316.23Y-55.88
X318.77Y-55.88
X220.98Y-36.83
X223.52Y-36.83
X259.08Y-36.83
X261.62Y-36.83
X187.642Y-93.98
X190.183Y-93.98
X297.18Y-113.03
X299.72Y-113.03
X297.18Y-93.98
X299.72Y-93.98
X163.83Y-113.03
X166.37Y-113.03
X32.861Y-113.03
X35.401Y-113.03
X268.605Y-55.88
X271.145Y-55.88
X225.742Y-93.98
X228.282Y-93.98
X249.555Y-55.88
X252.095Y-55.88
X159.067Y-74.93
X161.607Y-74.93
X244.792Y-113.03
X247.332Y-113.03
X230.505Y-55.88
X233.045Y-55.88
X173.355Y-55.88
X175.895Y-55.88
X285.274Y-74.93
X287.814Y-74.93
X35.242Y-55.88
X37.782Y-55.88
X192.405Y-55.88
X194.945Y-55.88
X140.017Y-74.93
X142.558Y-74.93
X111.442Y-93.98
X113.983Y-93.98
X144.78Y-36.83
X147.32Y-36.83
X316.23Y-93.98
X318.77Y-93.98
X87.63Y-36.83
X90.17Y-36.83
X56.674Y-113.03
X59.214Y-113.03
X247.174Y-113.03
X249.714Y-113.03
X59.055Y-55.88
X61.595Y-55.88
X78.105Y-55.88
X80.645Y-55.88
X42.386Y-93.98
X44.926Y-93.98
X68.58Y-36.83
X71.12Y-36.83
X316.23Y-36.83
X318.77Y-36.83
X97.155Y-55.88
X99.695Y-55.88
X316.23Y-113.03
X318.77Y-113.03
X63.817Y-74.93
X66.358Y-74.93
X82.867Y-74.93
X85.407Y-74.93
X151.924Y-113.03
X154.464Y-113.03
X223.361Y-113.03
X225.901Y-113.03
X59.055Y-113.03
X61.595Y-113.03
X32.861Y-74.93
X35.401Y-74.93
X197.167Y-74.93
X199.707Y-74.93
X106.68Y-36.83
X109.22Y-36.83
X316.23Y-74.93
X318.77Y-74.93
X292.417Y-55.88
X294.957Y-55.88
X206.692Y-93.98
X209.232Y-93.98
X30.48Y-36.83
X33.02Y-36.83
X178.117Y-74.93
X180.657Y-74.93
X168.593Y-93.98
X171.132Y-93.98
X270.986Y-93.98
X273.526Y-93.98
X92.392Y-93.98
X94.932Y-93.98
X37.624Y-74.93
X40.164Y-74.93
X182.88Y-36.83
X185.42Y-36.83
X235.267Y-74.93
X237.807Y-74.93
X287.655Y-36.83
X290.195Y-36.83
T6
X39.846Y-86.36
X46.196Y-83.82
X66.04Y-29.21
X72.39Y-26.67
X313.69Y-29.21
X320.04Y-26.67
X94.615Y-48.26
X100.965Y-45.72
X313.69Y-105.41
X320.04Y-102.87
X61.277Y-67.31
X67.627Y-64.77
X80.328Y-67.31
X86.677Y-64.77
X149.384Y-105.41
X155.734Y-102.87
X220.821Y-105.41
X227.171Y-102.87
X56.515Y-105.41
X62.865Y-102.87
X30.321Y-67.31
X36.671Y-64.77
X194.627Y-67.31
X200.977Y-64.77
X104.14Y-29.21
X110.49Y-26.67
X313.69Y-67.31
X320.04Y-64.77
X289.877Y-48.26
X296.227Y-45.72
X204.153Y-86.36
X210.502Y-83.82
X27.94Y-29.21
X34.29Y-26.67
X175.577Y-67.31
X181.927Y-64.77
X166.052Y-86.36
X172.403Y-83.82
X268.446Y-86.36
X274.796Y-83.82
X89.852Y-86.36
X96.203Y-83.82
X35.084Y-67.31
X41.434Y-64.77
X180.34Y-29.21
X186.69Y-26.67
X232.727Y-67.31
X239.077Y-64.77
X285.115Y-29.21
X291.465Y-26.67
X199.39Y-29.21
X205.74Y-26.67
X123.19Y-29.21
X129.54Y-26.67
X213.677Y-67.31
X220.028Y-64.77
X127.953Y-86.36
X134.302Y-83.82
X113.665Y-48.26
X120.015Y-45.72
X151.765Y-48.26
X158.115Y-45.72
X77.946Y-105.41
X84.296Y-102.87
X46.99Y-29.21
X53.34Y-26.67
X237.49Y-29.21
X243.84Y-26.67
X80.328Y-105.41
X86.677Y-102.87
X161.29Y-29.21
X167.64Y-26.67
X242.252Y-86.36
X248.602Y-83.82
X32.703Y-105.41
X39.052Y-102.87
X251.777Y-67.31
X258.127Y-64.77
X275.59Y-105.41
X281.94Y-102.87
X208.915Y-48.26
X215.265Y-45.72
X132.715Y-48.26
X139.065Y-45.72
X99.377Y-67.31
X105.727Y-64.77
X147.002Y-86.36
X153.352Y-83.82
X70.802Y-86.36
X77.153Y-83.82
X118.427Y-67.31
X124.777Y-64.77
X313.69Y-48.26
X320.04Y-45.72
X218.44Y-29.21
X224.79Y-26.67
X256.54Y-29.21
X262.89Y-26.67
X185.102Y-86.36
X191.452Y-83.82
X294.64Y-105.41
X300.99Y-102.87
X294.64Y-86.36
X300.99Y-83.82
X161.29Y-105.41
X167.64Y-102.87
X30.321Y-105.41
X36.671Y-102.87
X266.065Y-48.26
X272.415Y-45.72
X223.202Y-86.36
X229.552Y-83.82
X247.015Y-48.26
X253.365Y-45.72
X156.528Y-67.31
X162.877Y-64.77
X242.252Y-105.41
X248.602Y-102.87
X227.965Y-48.26
X234.315Y-45.72
X170.815Y-48.26
X177.165Y-45.72
X282.734Y-67.31
X289.084Y-64.77
X32.703Y-48.26
X39.052Y-45.72
X189.865Y-48.26
X196.215Y-45.72
X137.477Y-67.31
X143.827Y-64.77
X108.902Y-86.36
X115.252Y-83.82
X142.24Y-29.21
X148.59Y-26.67
X313.69Y-86.36
X320.04Y-83.82
X85.09Y-29.21
X91.44Y-26.67
X54.134Y-105.41
X60.484Y-102.87
X244.634Y-105.41
X250.984Y-102.87
X56.515Y-48.26
X62.865Y-45.72
X75.565Y-48.26
X81.915Y-45.72
T3
G00X36.898Y-20.027
M15
G01X36.898Y-20.627
M16
G05
G00X36.898Y-23.957
M15
G01X36.898Y-25.057
M16
G05
G00X45.538Y-20.027
M15
G01X45.538Y-20.627
M16
G05
G00X45.538Y-23.957
M15
G01X45.538Y-25.057
M16
G05
T0
M30
