0
SECTION
2
HEADER
9
$INSUNITS
70
4
9
$ACADVER
1
AC1014
9
$HANDSEED
5
FFFF
0
ENDSEC
0
SECTION
2
TABLES
0
TABLE
2
VPORT
5
8
100
AcDbSymbolTable
0
ENDTAB
0
TABLE
2
LTYPE
5
5
100
AcDbSymbolTable
0
LTYPE
5
14
100
AcDbSymbolTableRecord
100
AcDbLinetypeTableRecord
2
BYBLOCK
70
0
0
LTYPE
5
15
100
AcDbSymbolTableRecord
100
AcDbLinetypeTableRecord
2
BYLAYER
70
0
0
ENDTAB
0
TABLE
2
LAYER
5
2
100
AcDbSymbolTable
70
2
0
LAYER
5
50
100
AcDbSymbolTableRecord
100
AcDbLayerTableRecord
2
0
70
0
6
CONTINUOUS
0
ENDTAB
0
TABLE
2
STYLE
5
3
100
AcDbSymbolTable
70
1
0
STYLE
5
11
100
AcDbSymbolTableRecord
100
AcDbTextStyleTableRecord
2
STANDARD
70
0
0
ENDTAB
0
TABLE
2
VIEW
5
6
100
AcDbSymbolTable
70
0
0
ENDTAB
0
TABLE
2
UCS
5
7
100
AcDbSymbolTable
70
0
0
ENDTAB
0
TABLE
2
APPID
5
9
100
AcDbSymbolTable
70
2
0
APPID
5
12
100
AcDbSymbolTableRecord
100
AcDbRegAppTableRecord
2
ACAD
70
0
0
ENDTAB
0
TABLE
2
DIMSTYLE
5
A
100
AcDbSymbolTable
70
1
0
ENDTAB
0
TABLE
2
BLOCK_RECORD
5
1
100
AcDbSymbolTable
70
1
0
BLOCK_RECORD
5
1F
100
AcDbSymbolTableRecord
100
AcDbBlockTableRecord
2
*MODEL_SPACE
0
BLOCK_RECORD
5
1B
100
AcDbSymbolTableRecord
100
AcDbBlockTableRecord
2
*PAPER_SPACE
0
ENDTAB
0
ENDSEC
0
SECTION
2
BLOCKS
0
BLOCK
5
20
100
AcDbEntity
100
AcDbBlockBegin
2
*MODEL_SPACE
0
ENDBLK
5
21
100
AcDbEntity
100
AcDbBlockEnd
0
BLOCK
5
1C
100
AcDbEntity
100
AcDbBlockBegin
2
*PAPER_SPACE
0
ENDBLK
5
1D
100
AcDbEntity
100
AcDbBlockEnd
0
ENDSEC
0
SECTION
2
ENTITIES
0
LINE
5
100
100
AcDbEntity
8
0
100
AcDbLine
10
255.49000000000004
20
-28.775000500000001
30
0
11
219.44324128772112
21
-28.775000500000001
31
0
0
LINE
5
101
100
AcDbEntity
8
0
100
AcDbLine
10
219.44324128772112
20
-28.775000500000001
30
0
11
142.55878853106563
21
-45.117294376346777
31
0
0
LINE
5
102
100
AcDbEntity
8
0
100
AcDbLine
10
142.55878853106563
20
-45.117294376346777
30
0
11
64.309999999999974
21
-28.48500099999999
31
0
0
LINE
5
103
100
AcDbEntity
8
0
100
AcDbLine
10
64.309999999999974
20
-28.48500099999999
30
0
11
34.292601534819589
21
-28.48500099999999
31
0
0
LWPOLYLINE
5
104
100
AcDbEntity
8
0
100
AcDbPolyline
90
10
70
1
43
0.0
10
34.292601534819589
20
-29.085000999999995
10
64.24693745909525
20
-29.085000999999995
10
142.55878852732519
20
-45.730698732361276
10
219.50630382492676
20
-29.375000500000006
10
255.49000000000004
20
-29.375000500000006
42
0.99999999999999989
10
255.49000000000004
20
-28.175000499999996
10
219.38017875051548
20
-28.175000499999996
10
142.55878853480607
20
-44.503890020332278
10
64.373062540904726
20
-27.885000999999985
10
34.292601534819589
20
-27.885000999999985
42
0.99999999999999989
0
LWPOLYLINE
5
105
100
AcDbEntity
8
0
100
AcDbPolyline
90
10
70
1
43
0.0
10
41.292601534819582
20
-48.135001000000003
10
64.24693745909525
20
-48.135001000000003
10
142.55878852732519
20
-64.780698732361245
10
219.50630382492676
20
-48.425000500000017
10
264.49000000000001
20
-48.425000500000017
42
0.99999999999999989
10
264.49000000000001
20
-47.225000500000007
10
219.38017875051548
20
-47.225000500000007
10
142.55878853480607
20
-63.55389002033229
10
64.373062540904726
20
-46.935001
10
41.292601534819582
20
-46.935001
42
0.99999999999999989
0
LINE
5
106
100
AcDbEntity
8
0
100
AcDbLine
10
264.49000000000001
20
-47.825000500000016
30
0
11
219.44324128772112
21
-47.825000500000016
31
0
0
LINE
5
107
100
AcDbEntity
8
0
100
AcDbLine
10
219.44324128772112
20
-47.825000500000016
30
0
11
142.55878853106563
21
-64.167294376346732
31
0
0
LINE
5
108
100
AcDbEntity
8
0
100
AcDbLine
10
142.55878853106563
20
-64.167294376346732
30
0
11
64.309999999999974
21
-47.535001000000001
31
0
0
LINE
5
109
100
AcDbEntity
8
0
100
AcDbLine
10
64.309999999999974
20
-47.535001000000001
30
0
11
41.292601534819582
21
-47.535001000000001
31
0
0
CIRCLE
5
110
100
AcDbEntity
8
0
100
AcDbCircle
10
0
20
0
30
0
40
1.9939
210
0
220
0
230
1
0
ENDSEC
0
SECTION
2
OBJECTS
0
DICTIONARY
5
C
100
AcDbDictionary
3
ACAD_GROUP
350
D
3
ACAD_MLINESTYLE
350
17
0
DICTIONARY
5
D
100
AcDbDictionary
0
DICTIONARY
5
1A
330
C
100
AcDbDictionary
0
DICTIONARY
5
17
100
AcDbDictionary
0
ENDSEC
0
EOF
