0
SECTION
2
HEADER
9
$INSUNITS
70
4
9
$ACADVER
1
AC1014
9
$HANDSEED
5
FFFF
0
ENDSEC
0
SECTION
2
TABLES
0
TABLE
2
VPORT
5
8
100
AcDbSymbolTable
0
ENDTAB
0
TABLE
2
LTYPE
5
5
100
AcDbSymbolTable
0
LTYPE
5
14
100
AcDbSymbolTableRecord
100
AcDbLinetypeTableRecord
2
BYBLOCK
70
0
0
LTYPE
5
15
100
AcDbSymbolTableRecord
100
AcDbLinetypeTableRecord
2
BYLAYER
70
0
0
ENDTAB
0
TABLE
2
LAYER
5
2
100
AcDbSymbolTable
70
2
0
LAYER
5
50
100
AcDbSymbolTableRecord
100
AcDbLayerTableRecord
2
0
70
0
6
CONTINUOUS
0
ENDTAB
0
TABLE
2
STYLE
5
3
100
AcDbSymbolTable
70
1
0
STYLE
5
11
100
AcDbSymbolTableRecord
100
AcDbTextStyleTableRecord
2
STANDARD
70
0
0
ENDTAB
0
TABLE
2
VIEW
5
6
100
AcDbSymbolTable
70
0
0
ENDTAB
0
TABLE
2
UCS
5
7
100
AcDbSymbolTable
70
0
0
ENDTAB
0
TABLE
2
APPID
5
9
100
AcDbSymbolTable
70
2
0
APPID
5
12
100
AcDbSymbolTableRecord
100
AcDbRegAppTableRecord
2
ACAD
70
0
0
ENDTAB
0
TABLE
2
DIMSTYLE
5
A
100
AcDbSymbolTable
70
1
0
ENDTAB
0
TABLE
2
BLOCK_RECORD
5
1
100
AcDbSymbolTable
70
1
0
BLOCK_RECORD
5
1F
100
AcDbSymbolTableRecord
100
AcDbBlockTableRecord
2
*MODEL_SPACE
0
BLOCK_RECORD
5
1B
100
AcDbSymbolTableRecord
100
AcDbBlockTableRecord
2
*PAPER_SPACE
0
ENDTAB
0
ENDSEC
0
SECTION
2
BLOCKS
0
BLOCK
5
20
100
AcDbEntity
100
AcDbBlockBegin
2
*MODEL_SPACE
0
ENDBLK
5
21
100
AcDbEntity
100
AcDbBlockEnd
0
BLOCK
5
1C
100
AcDbEntity
100
AcDbBlockBegin
2
*PAPER_SPACE
0
ENDBLK
5
1D
100
AcDbEntity
100
AcDbBlockEnd
0
ENDSEC
0
SECTION
2
ENTITIES
0
LWPOLYLINE
5
100
100
AcDbEntity
8
0
100
AcDbPolyline
90
40
70
1
43
0.0
10
-210.22968430171389
20
-103.27917320232713
10
-278.44661714886917
20
-103.27917320232714
42
0.55007404733433585
10
-279.35102610258173
20
-104.70583986899386
42
-1.5774574774057517
10
-284.32527534800096
20
-104.70583986899388
42
0.55007404733433107
10
-285.22968430171363
20
-103.27917320232729
10
-289.83815072529137
20
-103.27917320232729
42
-0.4142135623730846
10
-290.83815072529148
20
-102.27917320232717
10
-290.83815072529137
20
-6.4798432023271246
42
-0.41421356237318541
10
-289.83815072529137
20
-5.4798432023271459
10
-285.22968430171363
20
-5.4798432023271202
42
0.55007404733426357
10
-284.3252753480009
20
-4.053176535660211
42
-1.5774574774056773
10
-279.3510261025819
20
-4.0531765356603948
42
0.55007404733418452
10
-278.44661714886917
20
-5.4798432023270927
10
-210.22968430171389
20
-5.4798432023271406
42
0.550074047334139
10
-209.3252753480013
20
-4.0531765356604685
42
-1.5774574774056642
10
-204.35102610258213
20
-4.0531765356603042
42
0.55007404733422638
10
-203.44661714886925
20
-5.4798432023270571
10
-87.530334301713566
20
-5.4798432023271637
42
0.55007404733424259
10
-86.62592534800099
20
-4.0531765356604499
42
-1.5774574774056471
10
-81.651676102581533
20
-4.0531765356604552
42
0.5500740473341893
10
-80.747267148869071
20
-5.4798432023270749
10
-12.530334301713566
20
-5.4798432023271726
42
0.55007404733420151
10
-11.625925348000676
20
-4.0531765356602216
42
-1.5774574774057091
10
-6.6516761025816127
20
-4.0531765356604295
42
0.55007404733426035
10
-5.747267148869355
20
-5.4798432023271637
10
-1.138800725291276
20
-5.4798432023270118
42
-0.41421356237302964
10
-0.13880072529119047
20
-6.4798432023271602
10
-0.13880072529120324
20
-102.2791732023272
42
-0.4142135623730081
10
-1.1388007252912757
20
-103.27917320232729
10
-5.747267148869355
20
-103.27917320232716
42
0.55007404733419729
10
-6.651676102581817
20
-104.70583986899385
42
-1.5774574774056898
10
-11.625925348001287
20
-104.70583986899392
42
0.55007404733422405
10
-12.530334301713566
20
-103.27917320232729
10
-80.747267148869085
20
-103.27917320232716
42
0.55007404733426524
10
-81.65167610258159
20
-104.70583986899382
42
-1.5774574774057362
10
-86.625925348000919
20
-104.70583986899393
42
0.55007404733425747
10
-87.530334301713566
20
-103.27917320232716
10
-203.44661714886925
20
-103.27917320232713
42
0.55007404733420628
10
-204.35102610258201
20
-104.70583986899392
42
-1.5774574774057262
10
-209.32527534800118
20
-104.70583986899386
42
0.55007404733408072
0
ENDSEC
0
SECTION
2
OBJECTS
0
DICTIONARY
5
C
100
AcDbDictionary
3
ACAD_GROUP
350
D
3
ACAD_MLINESTYLE
350
17
0
DICTIONARY
5
D
100
AcDbDictionary
0
DICTIONARY
5
1A
330
C
100
AcDbDictionary
0
DICTIONARY
5
17
100
AcDbDictionary
0
ENDSEC
0
EOF
