0
SECTION
2
HEADER
9
$INSUNITS
70
4
9
$ACADVER
1
AC1014
9
$HANDSEED
5
FFFF
0
ENDSEC
0
SECTION
2
TABLES
0
TABLE
2
VPORT
5
8
100
AcDbSymbolTable
0
ENDTAB
0
TABLE
2
LTYPE
5
5
100
AcDbSymbolTable
0
LTYPE
5
14
100
AcDbSymbolTableRecord
100
AcDbLinetypeTableRecord
2
BYBLOCK
70
0
0
LTYPE
5
15
100
AcDbSymbolTableRecord
100
AcDbLinetypeTableRecord
2
BYLAYER
70
0
0
ENDTAB
0
TABLE
2
LAYER
5
2
100
AcDbSymbolTable
70
2
0
LAYER
5
50
100
AcDbSymbolTableRecord
100
AcDbLayerTableRecord
2
0
70
0
6
CONTINUOUS
0
ENDTAB
0
TABLE
2
STYLE
5
3
100
AcDbSymbolTable
70
1
0
STYLE
5
11
100
AcDbSymbolTableRecord
100
AcDbTextStyleTableRecord
2
STANDARD
70
0
0
ENDTAB
0
TABLE
2
VIEW
5
6
100
AcDbSymbolTable
70
0
0
ENDTAB
0
TABLE
2
UCS
5
7
100
AcDbSymbolTable
70
0
0
ENDTAB
0
TABLE
2
APPID
5
9
100
AcDbSymbolTable
70
2
0
APPID
5
12
100
AcDbSymbolTableRecord
100
AcDbRegAppTableRecord
2
ACAD
70
0
0
ENDTAB
0
TABLE
2
DIMSTYLE
5
A
100
AcDbSymbolTable
70
1
0
ENDTAB
0
TABLE
2
BLOCK_RECORD
5
1
100
AcDbSymbolTable
70
1
0
BLOCK_RECORD
5
1F
100
AcDbSymbolTableRecord
100
AcDbBlockTableRecord
2
*MODEL_SPACE
0
BLOCK_RECORD
5
1B
100
AcDbSymbolTableRecord
100
AcDbBlockTableRecord
2
*PAPER_SPACE
0
ENDTAB
0
ENDSEC
0
SECTION
2
BLOCKS
0
BLOCK
5
20
100
AcDbEntity
100
AcDbBlockBegin
2
*MODEL_SPACE
0
ENDBLK
5
21
100
AcDbEntity
100
AcDbBlockEnd
0
BLOCK
5
1C
100
AcDbEntity
100
AcDbBlockBegin
2
*PAPER_SPACE
0
ENDBLK
5
1D
100
AcDbEntity
100
AcDbBlockEnd
0
ENDSEC
0
SECTION
2
ENTITIES
0
LWPOLYLINE
5
100
100
AcDbEntity
8
0
100
AcDbPolyline
90
40
70
1
43
0.0
10
-210.22968430171389
20
-103.27917320232713
10
-278.44661714886917
20
-103.27917320232714
42
0.55007404733433585
10
-279.35102610258173
20
-104.70583986899386
42
-1.5774574774057517
10
-284.32527534800096
20
-104.70583986899388
42
0.55007404733433107
10
-285.22968430171363
20
-103.27917320232729
10
-289.83815072529137
20
-103.27917320232729
42
-0.4142135623730846
10
-290.83815072529148
20
-102.27917320232717
10
-290.83815072529137
20
-6.4798432023271246
42
-0.41421356237318541
10
-289.83815072529137
20
-5.4798432023271459
10
-285.22968430171363
20
-5.4798432023271202
42
0.55007404733426357
10
-284.3252753480009
20
-4.053176535660211
42
-1.5774574774056773
10
-279.3510261025819
20
-4.0531765356603948
42
0.55007404733418452
10
-278.44661714886917
20
-5.4798432023270927
10
-210.22968430171389
20
-5.4798432023271406
42
0.550074047334139
10
-209.3252753480013
20
-4.0531765356604685
42
-1.5774574774056642
10
-204.35102610258213
20
-4.0531765356603042
42
0.55007404733422638
10
-203.44661714886925
20
-5.4798432023270571
10
-87.530334301713566
20
-5.4798432023271637
42
0.55007404733424259
10
-86.62592534800099
20
-4.0531765356604499
42
-1.5774574774056471
10
-81.651676102581533
20
-4.0531765356604552
42
0.5500740473341893
10
-80.747267148869071
20
-5.4798432023270749
10
-12.530334301713566
20
-5.4798432023271726
42
0.55007404733420151
10
-11.625925348000676
20
-4.0531765356602216
42
-1.5774574774057091
10
-6.6516761025816127
20
-4.0531765356604295
42
0.55007404733426035
10
-5.747267148869355
20
-5.4798432023271637
10
-1.138800725291276
20
-5.4798432023270118
42
-0.41421356237302964
10
-0.13880072529119047
20
-6.4798432023271602
10
-0.13880072529120324
20
-102.2791732023272
42
-0.4142135623730081
10
-1.1388007252912757
20
-103.27917320232729
10
-5.747267148869355
20
-103.27917320232716
42
0.55007404733419729
10
-6.651676102581817
20
-104.70583986899385
42
-1.5774574774056898
10
-11.625925348001287
20
-104.70583986899392
42
0.55007404733422405
10
-12.530334301713566
20
-103.27917320232729
10
-80.747267148869085
20
-103.27917320232716
42
0.55007404733426524
10
-81.65167610258159
20
-104.70583986899382
42
-1.5774574774057362
10
-86.625925348000919
20
-104.70583986899393
42
0.55007404733425747
10
-87.530334301713566
20
-103.27917320232716
10
-203.44661714886925
20
-103.27917320232713
42
0.55007404733420628
10
-204.35102610258201
20
-104.70583986899392
42
-1.5774574774057262
10
-209.32527534800118
20
-104.70583986899386
42
0.55007404733408072
0
LWPOLYLINE
5
101
100
AcDbEntity
8
0
100
AcDbPolyline
90
4
70
1
43
0.0
10
-189.45519999999999
20
-12.404499999999974
10
-189.45519999999999
20
-7.1967999999999677
10
-192.12220000000005
20
-7.1967999999999677
10
-192.12220000000005
20
-12.404499999999974
0
LWPOLYLINE
5
102
100
AcDbEntity
8
0
100
AcDbPolyline
90
4
70
1
43
0.0
10
-189.45519999999999
20
-25.364499999999968
10
-189.45519999999999
20
-20.156799999999926
10
-192.12220000000005
20
-20.156799999999926
10
-192.12220000000005
20
-25.364499999999968
0
LWPOLYLINE
5
103
100
AcDbEntity
8
0
100
AcDbPolyline
90
4
70
1
43
0.0
10
-100.1887
20
-17.454500000000017
10
-100.1887
20
-15.104500000000005
10
-102.53869999999999
20
-15.104500000000005
10
-102.53869999999999
20
-17.454500000000017
0
LWPOLYLINE
5
104
100
AcDbEntity
8
0
100
AcDbPolyline
90
4
70
1
43
0.0
10
-101.5222
20
-25.364499999999968
10
-98.855199999999996
20
-25.364499999999968
10
-98.855199999999996
20
-20.156799999999926
10
-101.5222
20
-20.156799999999926
0
LWPOLYLINE
5
105
100
AcDbEntity
8
0
100
AcDbPolyline
90
4
70
1
43
0.0
10
-88.938699999999997
20
-7.1956499999999757
10
-88.938699999999997
20
-12.403349999999982
10
-86.271699999999996
20
-12.403349999999982
10
-86.271699999999996
20
-7.1956499999999757
0
LWPOLYLINE
5
106
100
AcDbEntity
8
0
100
AcDbPolyline
90
10
70
1
43
0.0
10
-113.31134862752944
20
-15.104500000000005
10
-114.68870000000003
20
-15.104500000000005
10
-114.68870000000003
20
-17.454500000000017
10
-113.31134862752944
20
-17.454500000000021
42
0.44532950429864832
10
-108.91370000000022
20
-19.062820858255609
42
0.44532950429867091
10
-104.51605137247036
20
-17.454500000000071
10
-103.13869999999994
20
-17.454500000000017
10
-103.13869999999994
20
-15.104500000000005
10
-104.51605137247051
20
-15.104500000000007
42
0.44532950429866158
10
-108.91370000000016
20
-13.496179141744546
42
0.44532950429861962
0
LWPOLYLINE
5
107
100
AcDbEntity
8
0
100
AcDbPolyline
90
10
70
1
43
0.0
10
-176.28870000000006
20
-17.454500000000017
10
-176.28870000000006
20
-15.104500000000005
10
-177.66605137247066
20
-15.104499999999991
42
0.44532950429866486
10
-182.06370000000078
20
-13.496179141744133
42
0.44532950429857121
10
-186.46134862752947
20
-15.104500000000005
10
-187.83870000000007
20
-15.104500000000005
10
-187.83870000000007
20
-17.454500000000017
10
-186.46134862752945
20
-17.454499999999996
42
0.44532950429857338
10
-182.06370000000081
20
-19.06282085825584
42
0.44532950429868728
10
-177.66605137247058
20
-17.454500000000017
0
LWPOLYLINE
5
108
100
AcDbEntity
8
0
100
AcDbPolyline
90
4
70
1
43
0.0
10
-86.271699999999996
20
-25.363349999999976
10
-86.271699999999996
20
-20.155649999999934
10
-88.938699999999997
20
-20.155649999999934
10
-88.938699999999997
20
-25.363349999999976
0
LWPOLYLINE
5
109
100
AcDbEntity
8
0
100
AcDbPolyline
90
4
70
1
43
0.0
10
-118.9387
20
-20.155649999999934
10
-118.9387
20
-25.363349999999976
10
-116.2717
20
-25.363349999999976
10
-116.2717
20
-20.155649999999934
0
LWPOLYLINE
5
110
100
AcDbEntity
8
0
100
AcDbPolyline
90
4
70
1
43
0.0
10
-115.28869999999998
20
-15.104500000000005
10
-117.63869999999997
20
-15.104500000000005
10
-117.63869999999997
20
-17.454500000000017
10
-115.28869999999998
20
-17.454500000000017
0
LWPOLYLINE
5
111
100
AcDbEntity
8
0
100
AcDbPolyline
90
4
70
1
43
0.0
10
-202.03870000000009
20
-20.155649999999934
10
-204.70570000000009
20
-20.155649999999934
10
-204.70570000000009
20
-25.363349999999976
10
-202.03870000000009
20
-25.363349999999976
0
LWPOLYLINE
5
112
100
AcDbEntity
8
0
100
AcDbPolyline
90
8
70
1
43
0.0
10
-134.18870000000001
20
-14.279500000000009
10
-134.18870000000001
20
-18.279499999999977
42
0.41421356237309204
10
-132.68869999999998
20
-19.779500000000017
10
-122.6887
20
-19.779500000000017
42
0.4142135623730725
10
-121.18869999999998
20
-18.279500000000013
10
-121.18870000000001
20
-14.279500000000009
42
0.41421356237309936
10
-122.6887
20
-12.779500000000006
10
-132.68869999999998
20
-12.779500000000006
42
0.41421356237310414
0
LWPOLYLINE
5
113
100
AcDbEntity
8
0
100
AcDbPolyline
90
4
70
1
43
0.0
10
-187.70570000000006
20
-20.155649999999934
10
-187.70570000000006
20
-25.363349999999976
10
-185.03870000000006
20
-25.363349999999976
10
-185.03870000000006
20
-20.155649999999934
0
LWPOLYLINE
5
114
100
AcDbEntity
8
0
100
AcDbPolyline
90
4
70
1
43
0.0
10
-204.70570000000009
20
-7.1956499999999757
10
-204.70570000000009
20
-12.403349999999982
10
-202.03870000000009
20
-12.403349999999982
10
-202.03870000000009
20
-7.1956499999999757
0
LWPOLYLINE
5
115
100
AcDbEntity
8
0
100
AcDbPolyline
90
4
70
1
43
0.0
10
-187.70570000000006
20
-12.403349999999982
10
-185.03870000000006
20
-12.403349999999982
10
-185.03870000000006
20
-7.1956499999999757
10
-187.70570000000006
20
-7.1956499999999757
0
LWPOLYLINE
5
116
100
AcDbEntity
8
0
100
AcDbPolyline
90
4
70
1
43
0.0
10
-116.2717
20
-12.403349999999982
10
-116.2717
20
-7.1956499999999757
10
-118.9387
20
-7.1956499999999757
10
-118.9387
20
-12.403349999999982
0
LWPOLYLINE
5
117
100
AcDbEntity
8
0
100
AcDbPolyline
90
4
70
1
43
0.0
10
-173.33870000000007
20
-15.104500000000005
10
-175.68870000000007
20
-15.104500000000005
10
-175.68870000000007
20
-17.454500000000017
10
-173.33870000000007
20
-17.454500000000017
0
LWPOLYLINE
5
118
100
AcDbEntity
8
0
100
AcDbPolyline
90
4
70
1
43
0.0
10
-105.93869999999998
20
-25.363349999999976
10
-103.27169999999998
20
-25.363349999999976
10
-103.27169999999998
20
-20.155649999999934
10
-105.93869999999998
20
-20.155649999999934
0
LWPOLYLINE
5
119
100
AcDbEntity
8
0
100
AcDbPolyline
90
4
70
1
43
0.0
10
-105.93869999999998
20
-7.1956499999999757
10
-105.93869999999998
20
-12.403349999999982
10
-103.27169999999998
20
-12.403349999999982
10
-103.27169999999998
20
-7.1956499999999757
0
LWPOLYLINE
5
120
100
AcDbEntity
8
0
100
AcDbPolyline
90
4
70
1
43
0.0
10
-188.43870000000007
20
-15.104500000000005
10
-190.78870000000006
20
-15.104500000000005
10
-190.78870000000006
20
-17.454500000000017
10
-188.43870000000007
20
-17.454500000000017
0
LWPOLYLINE
5
121
100
AcDbEntity
8
0
100
AcDbPolyline
90
4
70
1
43
0.0
10
-101.5222
20
-12.404499999999974
10
-98.855199999999996
20
-12.404499999999974
10
-98.855199999999996
20
-7.1967999999999677
10
-101.5222
20
-7.1967999999999677
0
LWPOLYLINE
5
122
100
AcDbEntity
8
0
100
AcDbPolyline
90
8
70
1
43
0.0
10
-156.78870000000001
20
-18.279499999999977
42
-0.4142135623730816
10
-158.28870000000001
20
-19.779499999999981
10
-168.28870000000012
20
-19.779499999999967
42
-0.41421356237308854
10
-169.78870000000006
20
-18.279499999999977
10
-169.78870000000015
20
-14.279500000000009
42
-0.41421356237311241
10
-168.28870000000009
20
-12.779500000000006
10
-158.28870000000001
20
-12.779500000000008
42
-0.41421356237308771
10
-156.78870000000001
20
-14.279500000000009
0
LWPOLYLINE
5
123
100
AcDbEntity
8
0
100
AcDbPolyline
90
8
70
1
43
0.0
10
-105.61400000000005
20
-67.329000000000022
42
-0.41421356237310375
10
-105.31400000000002
20
-67.029000000000025
10
-90.413999999999987
20
-67.029000000000025
42
-0.41421356237315576
10
-90.113999999999976
20
-67.329000000000022
10
-90.113999999999962
20
-79.529000000000025
42
-0.41421356237312978
10
-90.413999999999987
20
-79.829000000000022
10
-105.31400000000004
20
-79.828999999999994
42
-0.41421356237305174
10
-105.61399999999999
20
-79.529000000000025
0
LWPOLYLINE
5
124
100
AcDbEntity
8
0
100
AcDbPolyline
90
8
70
1
43
0.0
10
-109.16400000000002
20
-79.529000000000025
42
-0.41421356237309503
10
-109.464
20
-79.829000000000022
10
-124.36399999999999
20
-79.828999999999994
42
-0.41421356237311241
10
-124.664
20
-79.529000000000025
10
-124.664
20
-67.329000000000022
42
-0.41421356237308637
10
-124.36399999999999
20
-67.029000000000025
10
-109.464
20
-67.029000000000025
42
-0.41421356237308637
10
-109.16400000000003
20
-67.329000000000022
0
LWPOLYLINE
5
125
100
AcDbEntity
8
0
100
AcDbPolyline
90
8
70
1
43
0.0
10
-99.639000000000024
20
-98.579000000000008
10
-99.639000000000024
20
-86.379000000000033
42
0.41421356237306034
10
-99.939000000000036
20
-86.079000000000022
10
-114.839
20
-86.078999999999994
42
0.41421356237314705
10
-115.139
20
-86.379000000000033
10
-115.13900000000001
20
-98.579000000000008
42
0.41421356237307771
10
-114.83899999999998
20
-98.879000000000019
10
-99.939000000000036
20
-98.879000000000033
42
0.41421356237316442
0
LWPOLYLINE
5
126
100
AcDbEntity
8
0
100
AcDbPolyline
90
8
70
1
43
0.0
10
-113.92650000000003
20
-60.479000000000021
10
-113.92650000000003
20
-48.279000000000011
42
0.41421356237313839
10
-114.22650000000004
20
-47.979000000000021
10
-129.12650000000002
20
-47.979000000000013
42
0.41421356237305174
10
-129.4265
20
-48.279000000000011
10
-129.4265
20
-60.479000000000021
42
0.41421356237308637
10
-129.12650000000002
20
-60.779000000000011
10
-114.22650000000003
20
-60.779000000000011
42
0.41421356237311241
0
LWPOLYLINE
5
127
100
AcDbEntity
8
0
100
AcDbPolyline
90
8
70
1
43
0.0
10
-9.1515000000000057
20
-22.379000000000016
10
-9.1515000000000057
20
-10.179000000000009
42
0.41421356237307877
10
-9.4514999999999816
20
-9.8790000000000155
10
-24.351500000000001
20
-9.8790000000000138
42
0.41421356237308854
10
-24.651500000000013
20
-10.179000000000009
10
-24.651499999999999
20
-22.379000000000016
42
0.41421356237307339
10
-24.351500000000001
20
-22.679000000000009
10
-9.4514999999999993
20
-22.679000000000009
42
0.41421356237309287
0
LWPOLYLINE
5
128
100
AcDbEntity
8
0
100
AcDbPolyline
90
8
70
1
43
0.0
10
-205.32650000000004
20
-60.778999999999954
42
-0.41421356237315576
10
-205.62649999999996
20
-60.479000000000021
10
-205.62650000000005
20
-48.279000000000011
42
-0.41421356237309503
10
-205.32650000000004
20
-47.978999999999999
10
-190.42650000000006
20
-47.979000000000013
42
-0.41421356237315576
10
-190.12650000000005
20
-48.279000000000011
10
-190.12650000000002
20
-60.479000000000021
42
-0.41421356237313839
10
-190.42650000000006
20
-60.779000000000039
0
LWPOLYLINE
5
129
100
AcDbEntity
8
0
100
AcDbPolyline
90
8
70
1
43
0.0
10
-232.98900000000003
20
-98.579000000000008
42
-0.41421356237304302
10
-233.28900000000004
20
-98.879000000000033
10
-248.18899999999996
20
-98.879000000000033
42
-0.41421356237304302
10
-248.489
20
-98.579000000000008
10
-248.489
20
-86.379000000000033
42
-0.41421356237300833
10
-248.18899999999999
20
-86.078999999999979
10
-233.28900000000004
20
-86.078999999999994
42
-0.41421356237319906
10
-232.98900000000003
20
-86.379000000000033
0
LWPOLYLINE
5
130
100
AcDbEntity
8
0
100
AcDbPolyline
90
8
70
1
43
0.0
10
-180.60149999999999
20
-41.429000000000009
42
-0.41421356237309503
10
-180.9015
20
-41.729000000000021
10
-195.80150000000003
20
-41.729000000000013
42
-0.41421356237305174
10
-196.10150000000002
20
-41.429000000000009
10
-196.10150000000004
20
-29.229000000000003
42
-0.41421356237309503
10
-195.80150000000003
20
-28.928999999999991
10
-180.9015
20
-28.929000000000002
42
-0.41421356237305601
10
-180.60150000000004
20
-29.229000000000006
0
LWPOLYLINE
5
131
100
AcDbEntity
8
0
100
AcDbPolyline
90
8
70
1
43
0.0
10
-148.47649999999999
20
-48.279000000000011
10
-148.47649999999999
20
-60.479000000000021
42
0.41421356237315576
10
-148.1765
20
-60.779000000000011
10
-133.27650000000003
20
-60.779000000000025
42
0.41421356237310375
10
-132.97650000000002
20
-60.479000000000021
10
-132.97650000000002
20
-48.279000000000011
42
0.41421356237312978
10
-133.2765
20
-47.979000000000042
10
-148.1765
20
-47.979000000000021
42
0.41421356237309503
0
LWPOLYLINE
5
132
100
AcDbEntity
8
0
100
AcDbPolyline
90
8
70
1
43
0.0
10
-147.26400000000001
20
-79.529000000000025
10
-147.26400000000001
20
-67.329000000000022
42
0.41421356237305174
10
-147.56399999999999
20
-67.029000000000025
10
-162.464
20
-67.029000000000025
42
0.41421356237308637
10
-162.76400000000001
20
-67.329000000000022
10
-162.76400000000001
20
-79.529000000000025
42
0.41421356237309503
10
-162.464
20
-79.829000000000036
10
-147.56399999999999
20
-79.829000000000022
42
0.41421356237308637
0
LWPOLYLINE
5
133
100
AcDbEntity
8
0
100
AcDbPolyline
90
8
70
1
43
0.0
10
-229.1390000000001
20
-98.878999999999948
42
-0.41421356237319906
10
-229.43899999999999
20
-98.579000000000008
10
-229.43900000000011
20
-86.379000000000033
42
-0.41421356237304302
10
-229.1390000000001
20
-86.079000000000008
10
-214.23900000000003
20
-86.078999999999994
42
-0.41421356237319906
10
-213.93900000000002
20
-86.379000000000033
10
-213.93900000000002
20
-98.579000000000008
42
-0.41421356237304302
10
-214.23900000000003
20
-98.879000000000033
0
LWPOLYLINE
5
134
100
AcDbEntity
8
0
100
AcDbPolyline
90
8
70
1
43
0.0
10
-191.03900000000007
20
-98.879000000000019
10
-176.13900000000001
20
-98.879000000000019
42
0.41421356237312978
10
-175.83900000000003
20
-98.579000000000008
10
-175.83900000000003
20
-86.379000000000033
42
0.41421356237316442
10
-176.13900000000001
20
-86.078999999999994
10
-191.03900000000007
20
-86.079000000000008
42
0.41421356237304302
10
-191.33900000000008
20
-86.379000000000033
10
-191.33900000000011
20
-98.579000000000008
42
0.41421356237307771
0
LWPOLYLINE
5
135
100
AcDbEntity
8
0
100
AcDbPolyline
90
8
70
1
43
0.0
10
-199.95150000000001
20
-28.929000000000002
42
-0.41421356237305601
10
-199.65150000000006
20
-29.229000000000006
10
-199.6515
20
-41.429000000000009
42
-0.41421356237309503
10
-199.95150000000001
20
-41.729000000000021
10
-214.85150000000004
20
-41.728999999999942
42
-0.41421356237315576
10
-215.1515
20
-41.429000000000009
10
-215.15150000000008
20
-29.229000000000003
42
-0.41421356237317308
10
-214.85150000000004
20
-28.929000000000016
0
LWPOLYLINE
5
136
100
AcDbEntity
8
0
100
AcDbPolyline
90
8
70
1
43
0.0
10
-210.3890000000001
20
-86.379000000000033
10
-210.3890000000001
20
-98.579000000000008
42
0.41421356237312978
10
-210.08900000000011
20
-98.879000000000019
10
-195.18900000000002
20
-98.879000000000019
42
0.41421356237304302
10
-194.88900000000001
20
-98.579000000000008
10
-194.88900000000001
20
-86.379000000000033
42
0.41421356237300833
10
-195.18900000000002
20
-86.078999999999979
10
-210.08900000000011
20
-86.078999999999994
42
0.41421356237316442
0
LWPOLYLINE
5
137
100
AcDbEntity
8
0
100
AcDbPolyline
90
8
70
1
43
0.0
10
-219.00149999999999
20
-28.928999999999981
42
-0.414213562373004
10
-218.70150000000001
20
-29.229000000000006
10
-218.70150000000001
20
-41.429000000000009
42
-0.41421356237319046
10
-219.00149999999999
20
-41.729000000000013
10
-233.90150000000003
20
-41.729000000000013
42
-0.41421356237308637
10
-234.20150000000004
20
-41.429000000000009
10
-234.20150000000004
20
-29.229000000000003
42
-0.41421356237312978
10
-233.90150000000003
20
-28.929000000000027
0
LWPOLYLINE
5
138
100
AcDbEntity
8
0
100
AcDbPolyline
90
8
70
1
43
0.0
10
-171.37650000000005
20
-47.979000000000042
10
-186.27650000000003
20
-47.979000000000013
42
0.41421356237305174
10
-186.57650000000001
20
-48.279000000000011
10
-186.57650000000004
20
-60.479000000000021
42
0.41421356237309503
10
-186.27650000000003
20
-60.779000000000032
10
-171.37650000000005
20
-60.779000000000011
42
0.41421356237312101
10
-171.07650000000001
20
-60.479000000000021
10
-171.07650000000004
20
-48.279000000000011
42
0.41421356237312978
0
LWPOLYLINE
5
139
100
AcDbEntity
8
0
100
AcDbPolyline
90
8
70
1
43
0.0
10
-16.595249999999986
20
-28.929000000000002
10
-31.495250000000006
20
-28.929000000000009
42
0.41421356237309503
10
-31.795249999999982
20
-29.229000000000003
10
-31.795249999999999
20
-41.429000000000009
42
0.41421356237311241
10
-31.495250000000006
20
-41.728999999999999
10
-16.59525
20
-41.729000000000021
42
0.41421356237309936
10
-16.295249999999974
20
-41.429000000000009
10
-16.295250000000006
20
-29.229000000000003
42
0.41421356237308204
0
LWPOLYLINE
5
140
100
AcDbEntity
8
0
100
AcDbPolyline
90
4
70
1
43
0.0
10
-279.59775000000002
20
-45.294000000000018
10
-282.26775000000009
20
-45.294000000000018
10
-282.26775000000009
20
-50.504000000000026
10
-279.59775000000002
20
-50.504000000000026
0
LWPOLYLINE
5
141
100
AcDbEntity
8
0
100
AcDbPolyline
90
8
70
1
43
0.0
10
-267.53899999999999
20
-86.379000000000033
10
-267.53899999999999
20
-98.579000000000008
42
0.41421356237306034
10
-267.23900000000003
20
-98.879000000000019
10
-252.33900000000006
20
-98.879000000000033
42
0.41421356237314705
10
-252.03900000000002
20
-98.579000000000008
10
-252.03900000000004
20
-86.379000000000033
42
0.41421356237311241
10
-252.33900000000006
20
-86.078999999999994
10
-267.23900000000009
20
-86.079000000000008
42
0.41421356237311241
0
LWPOLYLINE
5
142
100
AcDbEntity
8
0
100
AcDbPolyline
90
8
70
1
43
0.0
10
-53.226499999999994
20
-48.279000000000011
10
-53.226499999999994
20
-60.479000000000021
42
0.41421356237307771
10
-52.926500000000019
20
-60.779000000000025
10
-38.026500000000013
20
-60.779000000000011
42
0.41421356237309076
10
-37.726500000000023
20
-60.479000000000021
10
-37.726500000000009
20
-48.279000000000011
42
0.41421356237306473
10
-38.026499999999999
20
-47.979000000000013
10
-52.926500000000004
20
-47.979000000000021
42
0.41421356237312101
0
LWPOLYLINE
5
143
100
AcDbEntity
8
0
100
AcDbPolyline
90
4
70
1
43
0.0
10
-36.710250000000002
20
-31.454000000000022
10
-36.710250000000002
20
-26.244000000000014
10
-39.380249999999997
20
-26.244000000000014
10
-39.380249999999997
20
-31.454000000000022
0
LWPOLYLINE
5
144
100
AcDbEntity
8
0
100
AcDbPolyline
90
8
70
1
43
0.0
10
-110.07649999999998
20
-60.779000000000025
10
-95.176500000000033
20
-60.779000000000025
42
0.41421356237310375
10
-94.876500000000021
20
-60.479000000000021
10
-94.876500000000007
20
-48.279000000000011
42
0.41421356237310375
10
-95.176500000000033
20
-47.979000000000013
10
-110.0765
20
-47.979000000000021
42
0.41421356237312101
10
-110.37649999999999
20
-48.279000000000011
10
-110.37649999999999
20
-60.479000000000021
42
0.41421356237315576
0
LWPOLYLINE
5
145
100
AcDbEntity
8
0
100
AcDbPolyline
90
8
70
1
43
0.0
10
-123.45150000000001
20
-41.429000000000009
10
-123.45150000000004
20
-29.229000000000003
42
0.41421356237305174
10
-123.75150000000004
20
-28.929000000000009
10
-138.6515
20
-28.929000000000013
42
0.4142135623731254
10
-138.95149999999998
20
-29.229000000000003
10
-138.95150000000001
20
-41.429000000000009
42
0.41421356237308637
10
-138.6515
20
-41.729000000000013
10
-123.75150000000005
20
-41.729000000000013
42
0.41421356237312101
0
LWPOLYLINE
5
146
100
AcDbEntity
8
0
100
AcDbPolyline
90
8
70
1
43
0.0
10
-104.40150000000004
20
-41.429000000000009
42
-0.41421356237313839
10
-104.70150000000004
20
-41.729000000000013
10
-119.6015
20
-41.728999999999992
42
-0.41421356237312101
10
-119.9015
20
-41.429000000000009
10
-119.9015
20
-29.229000000000003
42
-0.4142135623731254
10
-119.6015
20
-28.929000000000013
10
-104.70150000000004
20
-28.928999999999995
42
-0.41421356237311241
10
-104.40150000000001
20
-29.229000000000006
0
LWPOLYLINE
5
147
100
AcDbEntity
8
0
100
AcDbPolyline
90
4
70
1
43
0.0
10
-251.59774999999999
20
-45.294000000000018
10
-254.26775000000004
20
-45.294000000000018
10
-254.26775000000004
20
-50.504000000000026
10
-251.59774999999999
20
-50.504000000000026
0
LWPOLYLINE
5
148
100
AcDbEntity
8
0
100
AcDbPolyline
90
4
70
1
43
0.0
10
-241.98025000000001
20
-26.244000000000014
10
-241.98025000000001
20
-31.454000000000022
10
-239.31025000000002
20
-31.454000000000022
10
-239.31025000000002
20
-26.244000000000014
0
LWPOLYLINE
5
149
100
AcDbEntity
8
0
100
AcDbPolyline
90
8
70
1
43
0.0
10
-67.51400000000001
20
-67.329000000000022
10
-67.51400000000001
20
-79.529000000000025
42
0.41421356237312101
10
-67.213999999999999
20
-79.829000000000022
10
-52.314000000000007
20
-79.829000000000022
42
0.41421356237310375
10
-52.013999999999996
20
-79.529000000000025
10
-52.014000000000003
20
-67.329000000000022
42
0.41421356237308637
10
-52.314000000000007
20
-67.029000000000011
10
-67.213999999999999
20
-67.029000000000025
42
0.41421356237312101
0
LWPOLYLINE
5
150
100
AcDbEntity
8
0
100
AcDbPolyline
90
8
70
1
43
0.0
10
-228.52650000000011
20
-47.978999999999999
10
-243.42650000000003
20
-47.979000000000013
42
0.41421356237319046
10
-243.72649999999999
20
-48.279000000000011
10
-243.72649999999999
20
-60.479000000000021
42
0.41421356237300833
10
-243.42650000000003
20
-60.779000000000032
10
-228.52650000000011
20
-60.779000000000003
42
0.41421356237317308
10
-228.22650000000007
20
-60.479000000000021
10
-228.22650000000007
20
-48.279000000000011
42
0.41421356237298235
0
LWPOLYLINE
5
151
100
AcDbEntity
8
0
100
AcDbPolyline
90
8
70
1
43
0.0
10
-71.976499999999987
20
-22.679000000000009
10
-57.07650000000001
20
-22.679000000000009
42
0.41421356237309503
10
-56.776499999999999
20
-22.379000000000016
10
-56.776500000000006
20
-10.179000000000009
42
0.41421356237311024
10
-57.07650000000001
20
-9.8789999999999978
10
-71.976500000000001
20
-9.8790000000000084
42
0.41421356237311024
10
-72.276499999999999
20
-10.179000000000009
10
-72.276499999999999
20
-22.379000000000016
42
0.41421356237306473
0
LWPOLYLINE
5
152
100
AcDbEntity
8
0
100
AcDbPolyline
90
8
70
1
43
0.0
10
-258.01400000000001
20
-67.329000000000022
42
-0.41421356237309503
10
-257.714
20
-67.029000000000011
10
-242.81400000000002
20
-67.029000000000082
42
-0.414213562373069
10
-242.51400000000004
20
-67.329000000000022
10
-242.51399999999995
20
-79.529000000000025
42
-0.41421356237313839
10
-242.81400000000002
20
-79.82900000000005
10
-257.714
20
-79.829000000000036
42
-0.41421356237308637
10
-258.01400000000001
20
-79.529000000000025
0
LWPOLYLINE
5
153
100
AcDbEntity
8
0
100
AcDbPolyline
90
8
70
1
43
0.0
10
-143.714
20
-67.329000000000022
10
-143.714
20
-79.529000000000025
42
0.4142135623731818
10
-143.41400000000004
20
-79.828999999999979
10
-128.51400000000001
20
-79.829000000000036
42
0.41421356237308637
10
-128.214
20
-79.529000000000025
10
-128.21400000000006
20
-67.329000000000022
42
0.41421356237308637
10
-128.51400000000001
20
-67.029000000000025
10
-143.41400000000004
20
-67.029000000000011
42
0.41421356237311241
0
LWPOLYLINE
5
154
100
AcDbEntity
8
0
100
AcDbPolyline
90
8
70
1
43
0.0
10
-238.96400000000011
20
-67.329000000000022
10
-238.96400000000003
20
-79.529000000000025
42
0.41421356237314705
10
-238.66400000000002
20
-79.829000000000022
10
-223.76400000000004
20
-79.829000000000022
42
0.41421356237308637
10
-223.46400000000003
20
-79.529000000000025
10
-223.46400000000003
20
-67.329000000000022
42
0.41421356237309503
10
-223.76400000000004
20
-67.029000000000011
10
-238.66400000000004
20
-67.029000000000025
42
0.41421356237298235
0
LWPOLYLINE
5
155
100
AcDbEntity
8
0
100
AcDbPolyline
90
8
70
1
43
0.0
10
-118.68899999999999
20
-98.579000000000008
10
-118.68900000000004
20
-86.379000000000033
42
0.41421356237314705
10
-118.98899999999999
20
-86.079000000000022
10
-133.88900000000001
20
-86.078999999999994
42
0.41421356237306034
10
-134.18900000000002
20
-86.379000000000033
10
-134.18900000000002
20
-98.579000000000008
42
0.41421356237306034
10
-133.88900000000001
20
-98.879000000000019
10
-118.98899999999999
20
-98.879000000000033
42
0.41421356237316442
0
LWPOLYLINE
5
156
100
AcDbEntity
8
0
100
AcDbPolyline
90
8
70
1
43
0.0
10
-161.55149999999998
20
-41.429000000000009
10
-161.55150000000003
20
-29.229000000000003
42
0.41421356237305174
10
-161.85149999999999
20
-28.928999999999991
10
-176.75150000000005
20
-28.929000000000006
42
0.41421356237318607
10
-177.05150000000003
20
-29.229000000000003
10
-177.05150000000003
20
-41.429000000000009
42
0.41421356237299967
10
-176.75150000000005
20
-41.729000000000013
10
-161.85149999999999
20
-41.729000000000021
42
0.41421356237309503
0
LWPOLYLINE
5
157
100
AcDbEntity
8
0
100
AcDbPolyline
90
8
70
1
43
0.0
10
-72.276499999999999
20
-48.279000000000011
10
-72.276499999999999
20
-60.479000000000021
42
0.41421356237307771
10
-71.976499999999987
20
-60.779000000000011
10
-57.07650000000001
20
-60.779000000000025
42
0.41421356237308637
10
-56.776499999999999
20
-60.479000000000021
10
-56.776499999999999
20
-48.279000000000011
42
0.41421356237308637
10
-57.07650000000001
20
-47.979000000000013
10
-71.976500000000001
20
-47.978999999999999
42
0.41421356237310375
0
LWPOLYLINE
5
158
100
AcDbEntity
8
0
100
AcDbPolyline
90
8
70
1
43
0.0
10
-152.93900000000002
20
-22.679000000000045
10
-138.03900000000002
20
-22.679000000000009
42
0.41421356237305174
10
-137.73900000000003
20
-22.379000000000016
10
-137.739
20
-10.179000000000009
42
0.414213562373069
10
-138.03900000000002
20
-9.8789999999999978
10
-152.93900000000002
20
-9.8790000000000049
42
0.41421356237305385
10
-153.23899999999998
20
-10.179000000000009
10
-153.23900000000003
20
-22.379000000000016
42
0.41421356237313406
0
LWPOLYLINE
5
159
100
AcDbEntity
8
0
100
AcDbPolyline
90
8
70
1
43
0.0
10
-9.151500000000004
20
-79.529000000000025
42
-0.41421356237309725
10
-9.4514999999999993
20
-79.829000000000022
10
-24.351500000000001
20
-79.829000000000022
42
-0.41421356237310802
10
-24.651500000000013
20
-79.529000000000025
10
-24.651499999999999
20
-67.329000000000036
42
-0.41421356237308204
10
-24.351500000000001
20
-67.029000000000011
10
-9.4514999999999816
20
-67.029000000000011
42
-0.41421356237306795
10
-9.1515000000000022
20
-67.329000000000022
0
LWPOLYLINE
5
160
100
AcDbEntity
8
0
100
AcDbPolyline
90
8
70
1
43
0.0
10
-91.026500000000041
20
-60.779000000000025
42
-0.41421356237310375
10
-91.326499999999996
20
-60.479000000000021
10
-91.32650000000001
20
-48.279000000000011
42
-0.41421356237311241
10
-91.026500000000027
20
-47.979000000000013
10
-76.126499999999993
20
-47.979000000000013
42
-0.41421356237312101
10
-75.826500000000024
20
-48.279000000000011
10
-75.826500000000024
20
-60.479000000000021
42
-0.41421356237307771
10
-76.126499999999993
20
-60.779000000000025
0
LWPOLYLINE
5
161
100
AcDbEntity
8
0
100
AcDbPolyline
90
8
70
1
43
0.0
10
-19.588999999999999
20
-98.879000000000019
10
-4.6890000000000143
20
-98.879000000000019
42
0.41421356237309992
10
-4.3890000000000029
20
-98.579000000000008
10
-4.3889999999999958
20
-86.379000000000033
42
0.41421356237310153
10
-4.6890000000000143
20
-86.079000000000022
10
-19.588999999999999
20
-86.078999999999994
42
0.41421356237306473
10
-19.88900000000001
20
-86.379000000000033
10
-19.889000000000003
20
-98.579000000000008
42
0.41421356237308854
0
LWPOLYLINE
5
162
100
AcDbEntity
8
0
100
AcDbPolyline
90
4
70
1
43
0.0
10
-32.617750000000001
20
-50.504000000000026
10
-29.947750000000006
20
-50.504000000000026
10
-29.947750000000006
20
-45.294000000000018
10
-32.617750000000001
20
-45.294000000000018
0
LWPOLYLINE
5
163
100
AcDbEntity
8
0
100
AcDbPolyline
90
4
70
1
43
0.0
10
-280.19435818566086
20
-66.228478036115774
10
-280.19435818566086
20
-68.362078036115804
10
-278.00995818566088
20
-68.362078036115832
10
-278.00995818566088
20
-66.228478036115817
0
LWPOLYLINE
5
164
100
AcDbEntity
8
0
100
AcDbPolyline
90
8
70
1
43
0.0
10
-27.032750000000018
20
-48.279000000000011
42
-0.41421356237309503
10
-26.732750000000006
20
-47.978999999999999
10
-11.832750000000019
20
-47.979000000000013
42
-0.41421356237311024
10
-11.53275
20
-48.279000000000011
10
-11.532749999999993
20
-60.479000000000021
42
-0.41421356237310802
10
-11.832750000000001
20
-60.779000000000032
10
-26.732750000000003
20
-60.779000000000011
42
-0.41421356237309936
10
-27.03275
20
-60.479000000000021
0
LWPOLYLINE
5
165
100
AcDbEntity
8
0
100
AcDbPolyline
90
8
70
1
43
0.0
10
-38.639000000000003
20
-98.879000000000019
42
-0.41421356237308637
10
-38.939000000000007
20
-98.579000000000008
10
-38.939000000000014
20
-86.379000000000033
42
-0.41421356237306034
10
-38.639000000000003
20
-86.078999999999994
10
-23.73899999999999
20
-86.078999999999994
42
-0.41421356237304735
10
-23.438999999999993
20
-86.379000000000033
10
-23.439000000000007
20
-98.579000000000008
42
-0.41421356237308204
10
-23.739000000000004
20
-98.879000000000019
0
LWPOLYLINE
5
166
100
AcDbEntity
8
0
100
AcDbPolyline
90
4
70
1
43
0.0
10
-265.98025000000001
20
-31.454000000000022
10
-263.31025000000005
20
-31.454000000000022
10
-263.31025000000005
20
-26.244000000000014
10
-265.98025000000001
20
-26.244000000000014
0
LWPOLYLINE
5
167
100
AcDbEntity
8
0
100
AcDbPolyline
90
8
70
1
43
0.0
10
-66.601500000000016
20
-28.929000000000009
10
-81.501499999999965
20
-28.929000000000009
42
0.41421356237314277
10
-81.801499999999976
20
-29.229000000000003
10
-81.801500000000004
20
-41.429000000000009
42
0.41421356237312101
10
-81.501499999999965
20
-41.729000000000013
10
-66.601500000000001
20
-41.729000000000013
42
0.41421356237308637
10
-66.301500000000004
20
-41.429000000000009
10
-66.301500000000004
20
-29.229000000000006
42
0.414213562373069
0
LWPOLYLINE
5
168
100
AcDbEntity
8
0
100
AcDbPolyline
90
4
70
1
43
0.0
10
-8.7102499999999949
20
-31.454000000000022
10
-8.7102499999999949
20
-26.244000000000014
10
-11.38024999999999
20
-26.244000000000014
10
-11.38024999999999
20
-31.454000000000022
0
LWPOLYLINE
5
169
100
AcDbEntity
8
0
100
AcDbPolyline
90
8
70
1
43
0.0
10
-157.089
20
-86.079000000000022
10
-171.98900000000009
20
-86.079000000000008
42
0.41421356237300833
10
-172.28900000000007
20
-86.379000000000033
10
-172.2890000000001
20
-98.579000000000008
42
0.41421356237307771
10
-171.98900000000006
20
-98.879000000000019
10
-157.089
20
-98.879000000000019
42
0.41421356237306034
10
-156.78899999999999
20
-98.579000000000008
10
-156.78900000000004
20
-86.379000000000033
42
0.41421356237306034
0
LWPOLYLINE
5
170
100
AcDbEntity
8
0
100
AcDbPolyline
90
8
70
1
43
0.0
10
-200.86400000000003
20
-67.329000000000022
10
-200.86400000000003
20
-79.529000000000025
42
0.4142135623731818
10
-200.56399999999999
20
-79.829000000000022
10
-185.66399999999999
20
-79.828999999999994
42
0.4142135623732251
10
-185.364
20
-79.529000000000025
10
-185.364
20
-67.329000000000022
42
0.41421356237300833
10
-185.66399999999999
20
-67.029000000000011
10
-200.56399999999999
20
-67.029000000000011
42
0.41421356237312978
0
LWPOLYLINE
5
171
100
AcDbEntity
8
0
100
AcDbPolyline
90
8
70
1
43
0.0
10
-224.67650000000006
20
-48.279000000000011
42
-0.41421356237312101
10
-224.37650000000002
20
-47.979000000000021
10
-209.47650000000007
20
-47.979000000000042
42
-0.41421356237312978
10
-209.17650000000006
20
-48.279000000000011
10
-209.17650000000006
20
-60.479000000000021
42
-0.41421356237308637
10
-209.47650000000007
20
-60.779000000000025
10
-224.37650000000002
20
-60.778999999999996
42
-0.41421356237312978
10
-224.67650000000003
20
-60.479000000000021
0
LWPOLYLINE
5
172
100
AcDbEntity
8
0
100
AcDbPolyline
90
8
70
1
43
0.0
10
-260.09525000000002
20
-41.729000000000013
10
-245.19525000000002
20
-41.729000000000021
42
0.41421356237309503
10
-244.89525
20
-41.429000000000009
10
-244.89525000000003
20
-29.229000000000006
42
0.41421356237305601
10
-245.19525000000002
20
-28.928999999999991
10
-260.09525000000002
20
-28.928999999999991
42
0.41421356237309503
10
-260.39525000000003
20
-29.229000000000003
10
-260.39525000000003
20
-41.429000000000009
42
0.41421356237305174
0
LWPOLYLINE
5
173
100
AcDbEntity
8
0
100
AcDbPolyline
90
8
70
1
43
0.0
10
-219.61400000000003
20
-79.829000000000036
42
-0.41421356237308637
10
-219.91400000000004
20
-79.529000000000025
10
-219.91400000000004
20
-67.329000000000022
42
-0.41421356237309503
10
-219.61400000000003
20
-67.029000000000011
10
-204.71400000000003
20
-67.029000000000025
42
-0.41421356237305174
10
-204.41400000000004
20
-67.329000000000022
10
-204.41400000000002
20
-79.529000000000025
42
-0.41421356237309503
10
-204.71400000000003
20
-79.829000000000036
0
LWPOLYLINE
5
174
100
AcDbEntity
8
0
100
AcDbPolyline
90
8
70
1
43
0.0
10
-259.18275
20
-60.479000000000021
10
-259.18275000000006
20
-48.279000000000011
42
0.41421356237305174
10
-259.48275000000001
20
-47.978999999999999
10
-274.38275000000004
20
-47.978999999999999
42
0.41421356237309503
10
-274.68275000000006
20
-48.279000000000011
10
-274.68275
20
-60.479000000000021
42
0.41421356237305174
10
-274.38275000000004
20
-60.779000000000032
10
-259.48275000000001
20
-60.779000000000032
42
0.41421356237309503
0
LWPOLYLINE
5
175
100
AcDbEntity
8
0
100
AcDbPolyline
90
8
70
1
43
0.0
10
-86.264000000000038
20
-79.828999999999994
10
-71.364000000000019
20
-79.829000000000022
42
0.41421356237311241
10
-71.063999999999965
20
-79.529000000000025
10
-71.064000000000036
20
-67.329000000000022
42
0.41421356237312101
10
-71.364000000000019
20
-67.029000000000025
10
-86.26400000000001
20
-67.029000000000025
42
0.41421356237310375
10
-86.56400000000005
20
-67.329000000000022
10
-86.563999999999979
20
-79.529000000000025
42
0.41421356237305174
0
LWPOLYLINE
5
176
100
AcDbEntity
8
0
100
AcDbPolyline
90
8
70
1
43
0.0
10
-271.38900000000001
20
-86.078999999999994
42
-0.41421356237319906
10
-271.089
20
-86.379000000000033
10
-271.089
20
-98.579000000000008
42
-0.41421356237311241
10
-271.38900000000007
20
-98.879000000000005
10
-286.28899999999999
20
-98.879000000000005
42
-0.41421356237293894
10
-286.58900000000006
20
-98.579000000000008
10
-286.58900000000006
20
-86.379000000000033
42
-0.41421356237314705
10
-286.28899999999999
20
-86.078999999999979
0
LWPOLYLINE
5
177
100
AcDbEntity
8
0
100
AcDbPolyline
90
8
70
1
43
0.0
10
-33.263999999999996
20
-67.029000000000011
10
-48.164000000000016
20
-67.029000000000025
42
0.41421356237310375
10
-48.463999999999992
20
-67.329000000000022
10
-48.463999999999992
20
-79.529000000000025
42
0.41421356237307771
10
-48.164000000000016
20
-79.829000000000022
10
-33.264000000000003
20
-79.829000000000022
42
0.41421356237312101
10
-32.963999999999984
20
-79.529000000000025
10
-32.963999999999999
20
-67.329000000000022
42
0.41421356237307771
0
LWPOLYLINE
5
178
100
AcDbEntity
8
0
100
AcDbPolyline
90
8
70
1
43
0.0
10
-234.20150000000004
20
-10.179000000000009
42
-0.4142135623731254
10
-233.90150000000003
20
-9.8790000000000369
10
-219.00149999999999
20
-9.8789999999999836
42
-0.414213562373004
10
-218.70150000000001
20
-10.179000000000009
10
-218.70150000000001
20
-22.379000000000016
42
-0.41421356237322948
10
-219.00149999999999
20
-22.678999999999988
10
-233.90150000000003
20
-22.679000000000052
42
-0.41421356237308637
10
-234.20150000000007
20
-22.379000000000016
0
LWPOLYLINE
5
179
100
AcDbEntity
8
0
100
AcDbPolyline
90
4
70
1
43
0.0
10
-280.19435818566086
20
-78.395396001191813
10
-280.19435818566086
20
-80.528996001191672
10
-278.00995818566088
20
-80.528996001191686
10
-278.00995818566088
20
-78.39539600119187
0
LWPOLYLINE
5
180
100
AcDbEntity
8
0
100
AcDbPolyline
90
8
70
1
43
0.0
10
-76.739000000000004
20
-98.879000000000019
42
-0.41421356237309503
10
-77.039000000000016
20
-98.579000000000008
10
-77.039000000000016
20
-86.379000000000033
42
-0.41421356237304302
10
-76.739000000000004
20
-86.079000000000008
10
-61.839000000000013
20
-86.078999999999994
42
-0.414213562373069
10
-61.538999999999994
20
-86.379000000000076
10
-61.539000000000009
20
-98.579000000000008
42
-0.41421356237308637
10
-61.839000000000013
20
-98.879000000000019
0
LWPOLYLINE
5
181
100
AcDbEntity
8
0
100
AcDbPolyline
90
8
70
1
43
0.0
10
-62.451500000000017
20
-41.729000000000013
42
-0.41421356237312101
10
-62.751500000000007
20
-41.429000000000009
10
-62.751500000000021
20
-29.229000000000003
42
-0.41421356237307339
10
-62.451500000000017
20
-28.929000000000009
10
-47.551500000000004
20
-28.929000000000013
42
-0.41421356237308637
10
-47.2515
20
-29.229000000000006
10
-47.2515
20
-41.429000000000009
42
-0.41421356237308637
10
-47.551499999999997
20
-41.729000000000013
0
LWPOLYLINE
5
182
100
AcDbEntity
8
0
100
AcDbPolyline
90
8
70
1
43
0.0
10
-57.689000000000014
20
-98.879000000000019
42
-0.41421356237309503
10
-57.98899999999999
20
-98.579000000000008
10
-57.989000000000026
20
-86.379000000000033
42
-0.41421356237304302
10
-57.689000000000014
20
-86.079000000000008
10
-42.789000000000001
20
-86.079000000000022
42
-0.41421356237311241
10
-42.489000000000004
20
-86.379000000000033
10
-42.488999999999997
20
-98.579000000000008
42
-0.41421356237308637
10
-42.789000000000001
20
-98.879000000000019
0
LWPOLYLINE
5
183
100
AcDbEntity
8
0
100
AcDbPolyline
90
4
70
1
43
0.0
10
-174.70570000000006
20
-25.363349999999976
10
-172.03870000000006
20
-25.363349999999976
10
-172.03870000000006
20
-20.155649999999934
10
-174.70570000000006
20
-20.155649999999934
0
LWPOLYLINE
5
184
100
AcDbEntity
8
0
100
AcDbPolyline
90
8
70
1
43
0.0
10
-157.70150000000001
20
-41.728999999999999
10
-142.8015
20
-41.728999999999999
42
0.41421356237311241
10
-142.50149999999999
20
-41.429000000000009
10
-142.50149999999996
20
-29.229000000000006
42
0.41421356237309076
10
-142.8015
20
-28.928999999999991
10
-157.70150000000001
20
-28.929000000000013
42
0.4142135623731254
10
-158.00149999999999
20
-29.229000000000003
10
-158.00150000000002
20
-41.429000000000009
42
0.41421356237315576
0
LWPOLYLINE
5
185
100
AcDbEntity
8
0
100
AcDbPolyline
90
8
70
1
43
0.0
10
-281.5265
20
-22.679000000000052
42
-0.41421356237305174
10
-281.82650000000001
20
-22.379000000000016
10
-281.82650000000001
20
-10.179000000000009
42
-0.41421356237309076
10
-281.5265
20
-9.8790000000000013
10
-266.62650000000002
20
-9.8790000000000067
42
-0.41421356237308637
10
-266.32650000000001
20
-10.179000000000009
10
-266.32650000000001
20
-22.379000000000016
42
-0.4142135623731254
10
-266.62650000000002
20
-22.678999999999988
0
LWPOLYLINE
5
186
100
AcDbEntity
8
0
100
AcDbPolyline
90
8
70
1
43
0.0
10
-152.32650000000001
20
-47.979000000000021
10
-167.22650000000004
20
-47.979000000000049
42
0.4142135623732251
10
-167.52650000000003
20
-48.279000000000011
10
-167.52650000000003
20
-60.479000000000021
42
0.41421356237300833
10
-167.22650000000004
20
-60.779000000000032
10
-152.32650000000004
20
-60.779000000000025
42
0.41421356237310375
10
-152.02650000000003
20
-60.479000000000021
10
-152.02650000000003
20
-48.279000000000011
42
0.41421356237313839
0
LWPOLYLINE
5
187
100
AcDbEntity
8
0
100
AcDbPolyline
90
4
70
1
43
0.0
10
-174.70570000000006
20
-7.1956499999999757
10
-174.70570000000006
20
-12.403349999999982
10
-172.03870000000006
20
-12.403349999999982
10
-172.03870000000006
20
-7.1956499999999757
0
LWPOLYLINE
5
188
100
AcDbEntity
8
0
100
AcDbPolyline
90
8
70
1
43
0.0
10
-80.588999999999999
20
-98.579000000000008
42
-0.41421356237316442
10
-80.889000000000024
20
-98.879000000000033
10
-95.789000000000016
20
-98.879000000000019
42
-0.41421356237306034
10
-96.089000000000027
20
-98.579000000000008
10
-96.089000000000027
20
-86.379000000000033
42
-0.41421356237307771
10
-95.789000000000016
20
-86.079000000000008
10
-80.889000000000024
20
-86.079000000000022
42
-0.41421356237306034
10
-80.589000000000013
20
-86.379000000000033
0
LWPOLYLINE
5
189
100
AcDbEntity
8
0
100
AcDbPolyline
90
8
70
1
43
0.0
10
-166.614
20
-67.029000000000025
42
-0.41421356237305174
10
-166.31400000000002
20
-67.329000000000022
10
-166.31399999999999
20
-79.529000000000025
42
-0.41421356237309503
10
-166.614
20
-79.829000000000036
10
-181.51400000000001
20
-79.828999999999979
42
-0.41421356237309503
10
-181.81400000000002
20
-79.529000000000025
10
-181.81399999999999
20
-67.329000000000022
42
-0.41421356237308637
10
-181.51400000000001
20
-67.028999999999982
0
LWPOLYLINE
5
190
100
AcDbEntity
8
0
100
AcDbPolyline
90
8
70
1
43
0.0
10
-286.28899999999999
20
-41.729000000000013
42
-0.41421356237298235
10
-286.58900000000006
20
-41.429000000000009
10
-286.58900000000006
20
-29.229000000000003
42
-0.41421356237317308
10
-286.28899999999999
20
-28.929000000000016
10
-271.38900000000001
20
-28.929000000000002
42
-0.41421356237309076
10
-271.089
20
-29.229000000000006
10
-271.089
20
-41.429000000000009
42
-0.41421356237312978
10
-271.38900000000001
20
-41.728999999999985
0
LWPOLYLINE
5
191
100
AcDbEntity
8
0
100
AcDbPolyline
90
8
70
1
43
0.0
10
-138.03900000000002
20
-86.079000000000022
10
-152.93900000000002
20
-86.079000000000008
42
0.41421356237307771
10
-153.23900000000003
20
-86.379000000000033
10
-153.23900000000003
20
-98.579000000000008
42
0.41421356237306034
10
-152.93900000000002
20
-98.879000000000019
10
-138.03900000000002
20
-98.879000000000019
42
0.41421356237306034
10
-137.739
20
-98.579000000000008
10
-137.73900000000003
20
-86.379000000000033
42
0.41421356237306034
0
LWPOLYLINE
5
192
100
AcDbEntity
8
0
100
AcDbPolyline
90
4
70
1
43
0.0
10
-8.6177500000000151
20
-50.504000000000026
10
-5.947749999999985
20
-50.504000000000026
10
-5.947749999999985
20
-45.294000000000018
10
-8.6177500000000151
20
-45.294000000000018
0
LWPOLYLINE
5
193
100
AcDbEntity
8
0
100
AcDbPolyline
90
8
70
1
43
0.0
10
-85.351500000000001
20
-41.429000000000009
42
-0.41421356237311241
10
-85.651500000000013
20
-41.728999999999999
10
-100.5515
20
-41.729000000000013
42
-0.41421356237315576
10
-100.85150000000002
20
-41.429000000000009
10
-100.8515
20
-29.229000000000003
42
-0.4142135623731254
10
-100.5515
20
-28.929000000000013
10
-85.651500000000027
20
-28.929000000000013
42
-0.41421356237309503
10
-85.351500000000001
20
-29.229000000000006
0
CIRCLE
5
194
100
AcDbEntity
8
0
100
AcDbCircle
10
-84.138800725291233
20
-105.87917320232719
30
0
40
1.3499999999999623
210
0
220
0
230
1
0
CIRCLE
5
195
100
AcDbEntity
8
0
100
AcDbCircle
10
-9.1388007252915351
20
-105.87917320232717
30
0
40
1.3500000000000734
210
0
220
0
230
1
0
CIRCLE
5
196
100
AcDbEntity
8
0
100
AcDbCircle
10
-281.83815072529137
20
-2.8798432023271499
30
0
40
1.3499999999999801
210
0
220
0
230
1
0
CIRCLE
5
197
100
AcDbEntity
8
0
100
AcDbCircle
10
-281.83815072529131
20
-105.87917320232721
30
0
40
1.3499999999999801
210
0
220
0
230
1
0
CIRCLE
5
198
100
AcDbEntity
8
0
100
AcDbCircle
10
-206.8381507252916
20
-105.87917320232717
30
0
40
1.3499999999999446
210
0
220
0
230
1
0
CIRCLE
5
199
100
AcDbEntity
8
0
100
AcDbCircle
10
-279.00215691226595
20
-73.37873701865378
30
0
40
3.2385000000000019
210
0
220
0
230
1
0
CIRCLE
5
200
100
AcDbEntity
8
0
100
AcDbCircle
10
-9.1388007252910946
20
-2.879843202327113
30
0
40
1.3500000000000734
210
0
220
0
230
1
0
CIRCLE
5
201
100
AcDbEntity
8
0
100
AcDbCircle
10
-84.138800725291262
20
-2.8798432023272547
30
0
40
1.3499999999999623
210
0
220
0
230
1
0
CIRCLE
5
202
100
AcDbEntity
8
0
100
AcDbCircle
10
-206.83815072529174
20
-2.879843202327228
30
0
40
1.3499999999999446
210
0
220
0
230
1
0
ENDSEC
0
SECTION
2
OBJECTS
0
DICTIONARY
5
C
100
AcDbDictionary
3
ACAD_GROUP
350
D
3
ACAD_MLINESTYLE
350
17
0
DICTIONARY
5
D
100
AcDbDictionary
0
DICTIONARY
5
1A
330
C
100
AcDbDictionary
0
DICTIONARY
5
17
100
AcDbDictionary
0
ENDSEC
0
EOF
