G04 #@! TF.GenerationSoftware,KiCad,Pcbnew,(5.1.10)-1*
G04 #@! TF.CreationDate,2021-06-23T21:24:03+07:00*
G04 #@! TF.ProjectId,uso!VNC,75736f21-564e-4432-9e6b-696361645f70,rev?*
G04 #@! TF.SameCoordinates,Original*
G04 #@! TF.FileFunction,Profile,NP*
%FSLAX45Y45*%
G04 Gerber Fmt 4.5, Leading zero omitted, Abs format (unit mm)*
G04 Created by KiCad (PCBNEW (5.1.10)-1) date 2021-06-23 21:24:03*
%MOMM*%
%LPD*%
G01*
G04 APERTURE LIST*
G04 #@! TA.AperFunction,Profile*
%ADD10C,0.150000*%
G04 #@! TD*
G04 APERTURE END LIST*
D10*
X31789687Y-21738438D02*
G75*
G02*
X31739687Y-21788438I-50000J0D01*
G01*
X13980312Y-21788438D02*
G75*
G02*
X13930312Y-21738438I0J50000D01*
G01*
X13930312Y-18266563D02*
G75*
G02*
X13980312Y-18216563I50000J0D01*
G01*
X31739687Y-18216563D02*
G75*
G02*
X31789687Y-18266563I0J-50000D01*
G01*
X31839687Y-19407188D02*
G75*
G02*
X31789687Y-19357188I0J50000D01*
G01*
X31789687Y-20647813D02*
G75*
G02*
X31839687Y-20597813I50000J0D01*
G01*
X13930312Y-18266563D02*
X13930312Y-21738438D01*
X31739687Y-18216563D02*
X13980312Y-18216563D01*
X31789687Y-19357188D02*
X31789687Y-18266563D01*
X32027812Y-19407188D02*
X31839687Y-19407188D01*
X32027812Y-20597813D02*
X32027812Y-19407188D01*
X31839687Y-20597813D02*
X32027812Y-20597813D01*
X31789687Y-21738438D02*
X31789687Y-20647813D01*
X13980312Y-21788438D02*
X31739687Y-21788438D01*
X23050000Y-21293000D02*
X23050000Y-21633000D01*
X22670000Y-21633000D02*
X23050000Y-21633000D01*
X22670000Y-21293000D02*
X22670000Y-21633000D01*
X22670000Y-21293000D02*
X23050000Y-21293000D01*
X25527500Y-21125000D02*
X25527500Y-20785000D01*
X25907500Y-20785000D02*
X25527500Y-20785000D01*
X25907500Y-21125000D02*
X25907500Y-20785000D01*
X25907500Y-21125000D02*
X25527500Y-21125000D01*
X19812500Y-21125000D02*
X19812500Y-20785000D01*
X20192500Y-20785000D02*
X19812500Y-20785000D01*
X20192500Y-21125000D02*
X20192500Y-20785000D01*
X20192500Y-21125000D02*
X19812500Y-21125000D01*
X15906250Y-21293000D02*
X15906250Y-21633000D01*
X15526250Y-21633000D02*
X15906250Y-21633000D01*
X15526250Y-21293000D02*
X15526250Y-21633000D01*
X15526250Y-21293000D02*
X15906250Y-21293000D01*
X15191875Y-21293000D02*
X15191875Y-21633000D01*
X14811875Y-21633000D02*
X15191875Y-21633000D01*
X14811875Y-21293000D02*
X14811875Y-21633000D01*
X14811875Y-21293000D02*
X15191875Y-21293000D01*
X29813750Y-21293000D02*
X30193750Y-21293000D01*
X29813750Y-21293000D02*
X29813750Y-21633000D01*
X29813750Y-21633000D02*
X30193750Y-21633000D01*
X30193750Y-21293000D02*
X30193750Y-21633000D01*
X30908125Y-21293000D02*
X30908125Y-21633000D01*
X30528125Y-21633000D02*
X30908125Y-21633000D01*
X30528125Y-21293000D02*
X30528125Y-21633000D01*
X30528125Y-21293000D02*
X30908125Y-21293000D01*
X17335000Y-19388000D02*
X17335000Y-19728000D01*
X16955000Y-19728000D02*
X17335000Y-19728000D01*
X16955000Y-19388000D02*
X16955000Y-19728000D01*
X16955000Y-19388000D02*
X17335000Y-19388000D01*
X18049375Y-19388000D02*
X18049375Y-19728000D01*
X17669375Y-19728000D02*
X18049375Y-19728000D01*
X17669375Y-19388000D02*
X17669375Y-19728000D01*
X17669375Y-19388000D02*
X18049375Y-19388000D01*
X23050000Y-19388000D02*
X23050000Y-19728000D01*
X22670000Y-19728000D02*
X23050000Y-19728000D01*
X22670000Y-19388000D02*
X22670000Y-19728000D01*
X22670000Y-19388000D02*
X23050000Y-19388000D01*
X28050625Y-19388000D02*
X28050625Y-19728000D01*
X27670625Y-19728000D02*
X28050625Y-19728000D01*
X27670625Y-19388000D02*
X27670625Y-19728000D01*
X27670625Y-19388000D02*
X28050625Y-19388000D01*
X28765000Y-19388000D02*
X28765000Y-19728000D01*
X28385000Y-19728000D02*
X28765000Y-19728000D01*
X28385000Y-19388000D02*
X28385000Y-19728000D01*
X28385000Y-19388000D02*
X28765000Y-19388000D01*
M02*
