G04 #@! TF.GenerationSoftware,KiCad,Pcbnew,(5.1.10)-1*
G04 #@! TF.CreationDate,2021-06-23T21:24:03+07:00*
G04 #@! TF.ProjectId,uso!VNC,75736f21-564e-4432-9e6b-696361645f70,rev?*
G04 #@! TF.SameCoordinates,Original*
G04 #@! TF.FileFunction,Soldermask,Top*
G04 #@! TF.FilePolarity,Negative*
%FSLAX45Y45*%
G04 Gerber Fmt 4.5, Leading zero omitted, Abs format (unit mm)*
G04 Created by KiCad (PCBNEW (5.1.10)-1) date 2021-06-23 21:24:03*
%MOMM*%
%LPD*%
G01*
G04 APERTURE LIST*
%ADD10C,0.010000*%
%ADD11C,2.900000*%
%ADD12C,4.387800*%
%ADD13C,2.150000*%
%ADD14C,2.100000*%
%ADD15C,3.448000*%
%ADD16O,2.000000X1.400000*%
%ADD17O,2.500000X1.400000*%
%ADD18C,1.050000*%
%ADD19C,2.600000*%
G04 APERTURE END LIST*
D10*
G36*
X25633889Y-18553244D02*
G01*
X25629698Y-18554390D01*
X25628572Y-18554846D01*
X25624259Y-18557308D01*
X25620409Y-18560597D01*
X25617220Y-18564494D01*
X25614890Y-18568783D01*
X25614222Y-18570626D01*
X25614049Y-18571209D01*
X25613894Y-18571820D01*
X25613757Y-18572522D01*
X25613636Y-18573379D01*
X25613530Y-18574454D01*
X25613439Y-18575813D01*
X25613360Y-18577518D01*
X25613295Y-18579633D01*
X25613240Y-18582224D01*
X25613195Y-18585352D01*
X25613160Y-18589083D01*
X25613133Y-18593480D01*
X25613114Y-18598606D01*
X25613100Y-18604527D01*
X25613092Y-18611306D01*
X25613088Y-18619006D01*
X25613087Y-18627693D01*
X25613088Y-18637428D01*
X25613089Y-18642062D01*
X25613096Y-18652937D01*
X25613112Y-18663007D01*
X25613138Y-18672238D01*
X25613172Y-18680599D01*
X25613215Y-18688057D01*
X25613266Y-18694580D01*
X25613325Y-18700135D01*
X25613392Y-18704689D01*
X25613466Y-18708210D01*
X25613547Y-18710667D01*
X25613636Y-18712025D01*
X25613668Y-18712232D01*
X25615035Y-18716310D01*
X25617253Y-18720137D01*
X25620063Y-18723540D01*
X25623186Y-18726546D01*
X25626233Y-18728712D01*
X25629547Y-18730260D01*
X25631301Y-18730840D01*
X25634581Y-18731486D01*
X25638359Y-18731725D01*
X25642171Y-18731560D01*
X25645551Y-18730997D01*
X25646629Y-18730679D01*
X25651344Y-18728465D01*
X25655507Y-18725348D01*
X25658991Y-18721480D01*
X25661668Y-18717018D01*
X25663409Y-18712117D01*
X25663857Y-18709783D01*
X25663946Y-18708573D01*
X25664027Y-18706314D01*
X25664101Y-18703098D01*
X25664168Y-18699015D01*
X25664227Y-18694157D01*
X25664278Y-18688615D01*
X25664322Y-18682481D01*
X25664359Y-18675847D01*
X25664388Y-18668803D01*
X25664409Y-18661441D01*
X25664423Y-18653853D01*
X25664430Y-18646130D01*
X25664429Y-18638364D01*
X25664421Y-18630645D01*
X25664406Y-18623066D01*
X25664383Y-18615718D01*
X25664353Y-18608691D01*
X25664315Y-18602079D01*
X25664270Y-18595971D01*
X25664217Y-18590460D01*
X25664157Y-18585637D01*
X25664090Y-18581593D01*
X25664015Y-18578420D01*
X25663933Y-18576210D01*
X25663848Y-18575077D01*
X25662553Y-18569930D01*
X25660282Y-18565233D01*
X25657149Y-18561105D01*
X25653269Y-18557665D01*
X25648759Y-18555029D01*
X25643732Y-18553316D01*
X25642334Y-18553033D01*
X25638267Y-18552770D01*
X25633889Y-18553244D01*
G37*
X25633889Y-18553244D02*
X25629698Y-18554390D01*
X25628572Y-18554846D01*
X25624259Y-18557308D01*
X25620409Y-18560597D01*
X25617220Y-18564494D01*
X25614890Y-18568783D01*
X25614222Y-18570626D01*
X25614049Y-18571209D01*
X25613894Y-18571820D01*
X25613757Y-18572522D01*
X25613636Y-18573379D01*
X25613530Y-18574454D01*
X25613439Y-18575813D01*
X25613360Y-18577518D01*
X25613295Y-18579633D01*
X25613240Y-18582224D01*
X25613195Y-18585352D01*
X25613160Y-18589083D01*
X25613133Y-18593480D01*
X25613114Y-18598606D01*
X25613100Y-18604527D01*
X25613092Y-18611306D01*
X25613088Y-18619006D01*
X25613087Y-18627693D01*
X25613088Y-18637428D01*
X25613089Y-18642062D01*
X25613096Y-18652937D01*
X25613112Y-18663007D01*
X25613138Y-18672238D01*
X25613172Y-18680599D01*
X25613215Y-18688057D01*
X25613266Y-18694580D01*
X25613325Y-18700135D01*
X25613392Y-18704689D01*
X25613466Y-18708210D01*
X25613547Y-18710667D01*
X25613636Y-18712025D01*
X25613668Y-18712232D01*
X25615035Y-18716310D01*
X25617253Y-18720137D01*
X25620063Y-18723540D01*
X25623186Y-18726546D01*
X25626233Y-18728712D01*
X25629547Y-18730260D01*
X25631301Y-18730840D01*
X25634581Y-18731486D01*
X25638359Y-18731725D01*
X25642171Y-18731560D01*
X25645551Y-18730997D01*
X25646629Y-18730679D01*
X25651344Y-18728465D01*
X25655507Y-18725348D01*
X25658991Y-18721480D01*
X25661668Y-18717018D01*
X25663409Y-18712117D01*
X25663857Y-18709783D01*
X25663946Y-18708573D01*
X25664027Y-18706314D01*
X25664101Y-18703098D01*
X25664168Y-18699015D01*
X25664227Y-18694157D01*
X25664278Y-18688615D01*
X25664322Y-18682481D01*
X25664359Y-18675847D01*
X25664388Y-18668803D01*
X25664409Y-18661441D01*
X25664423Y-18653853D01*
X25664430Y-18646130D01*
X25664429Y-18638364D01*
X25664421Y-18630645D01*
X25664406Y-18623066D01*
X25664383Y-18615718D01*
X25664353Y-18608691D01*
X25664315Y-18602079D01*
X25664270Y-18595971D01*
X25664217Y-18590460D01*
X25664157Y-18585637D01*
X25664090Y-18581593D01*
X25664015Y-18578420D01*
X25663933Y-18576210D01*
X25663848Y-18575077D01*
X25662553Y-18569930D01*
X25660282Y-18565233D01*
X25657149Y-18561105D01*
X25653269Y-18557665D01*
X25648759Y-18555029D01*
X25643732Y-18553316D01*
X25642334Y-18553033D01*
X25638267Y-18552770D01*
X25633889Y-18553244D01*
G36*
X25555794Y-18604850D02*
G01*
X25550977Y-18606574D01*
X25548468Y-18608001D01*
X25545356Y-18610158D01*
X25541797Y-18612920D01*
X25537942Y-18616161D01*
X25533948Y-18619757D01*
X25529966Y-18623581D01*
X25529427Y-18624119D01*
X25522433Y-18631519D01*
X25516300Y-18638889D01*
X25510816Y-18646519D01*
X25505773Y-18654703D01*
X25500958Y-18663733D01*
X25500917Y-18663816D01*
X25495606Y-18675728D01*
X25491359Y-18688001D01*
X25488183Y-18700561D01*
X25486086Y-18713338D01*
X25485076Y-18726258D01*
X25485159Y-18739250D01*
X25486344Y-18752241D01*
X25488638Y-18765158D01*
X25489867Y-18770286D01*
X25492997Y-18780622D01*
X25497063Y-18791133D01*
X25501941Y-18801570D01*
X25507506Y-18811687D01*
X25513634Y-18821236D01*
X25519249Y-18828792D01*
X25521940Y-18831972D01*
X25525276Y-18835619D01*
X25529011Y-18839489D01*
X25532899Y-18843334D01*
X25536693Y-18846910D01*
X25540149Y-18849969D01*
X25541726Y-18851271D01*
X25551003Y-18858089D01*
X25560995Y-18864337D01*
X25571498Y-18869919D01*
X25582309Y-18874737D01*
X25593222Y-18878694D01*
X25604036Y-18881694D01*
X25607081Y-18882362D01*
X25614858Y-18883725D01*
X25623121Y-18884741D01*
X25631515Y-18885386D01*
X25639687Y-18885636D01*
X25647284Y-18885466D01*
X25649652Y-18885310D01*
X25661680Y-18883904D01*
X25673427Y-18881568D01*
X25684859Y-18878358D01*
X25697321Y-18873791D01*
X25709194Y-18868270D01*
X25720439Y-18861840D01*
X25731020Y-18854545D01*
X25740898Y-18846431D01*
X25750036Y-18837543D01*
X25758395Y-18827925D01*
X25765937Y-18817623D01*
X25772626Y-18806683D01*
X25778422Y-18795148D01*
X25783289Y-18783065D01*
X25787188Y-18770478D01*
X25790081Y-18757432D01*
X25790959Y-18752021D01*
X25791418Y-18747878D01*
X25791743Y-18742887D01*
X25791934Y-18737333D01*
X25791989Y-18731502D01*
X25791909Y-18725679D01*
X25791695Y-18720150D01*
X25791346Y-18715200D01*
X25790968Y-18711845D01*
X25788577Y-18698673D01*
X25785124Y-18685859D01*
X25780633Y-18673458D01*
X25775126Y-18661527D01*
X25768626Y-18650121D01*
X25761159Y-18639295D01*
X25759842Y-18637578D01*
X25756684Y-18633736D01*
X25753059Y-18629691D01*
X25749111Y-18625579D01*
X25744986Y-18621532D01*
X25740829Y-18617683D01*
X25736785Y-18614168D01*
X25732998Y-18611119D01*
X25729615Y-18608669D01*
X25726778Y-18606952D01*
X25726376Y-18606750D01*
X25721411Y-18604954D01*
X25716261Y-18604215D01*
X25711100Y-18604518D01*
X25706102Y-18605844D01*
X25701442Y-18608176D01*
X25699695Y-18609399D01*
X25697242Y-18611716D01*
X25694832Y-18614749D01*
X25692744Y-18618100D01*
X25691257Y-18621369D01*
X25691179Y-18621596D01*
X25690150Y-18626343D01*
X25690066Y-18631379D01*
X25690886Y-18636413D01*
X25692572Y-18641154D01*
X25694220Y-18644105D01*
X25695521Y-18645735D01*
X25697412Y-18647697D01*
X25699558Y-18649652D01*
X25700370Y-18650323D01*
X25703618Y-18653084D01*
X25707215Y-18656417D01*
X25710941Y-18660096D01*
X25714579Y-18663895D01*
X25717911Y-18667589D01*
X25720718Y-18670953D01*
X25722239Y-18672967D01*
X25727053Y-18680531D01*
X25731339Y-18688851D01*
X25734960Y-18697609D01*
X25737781Y-18706490D01*
X25739214Y-18712637D01*
X25739983Y-18717636D01*
X25740520Y-18723364D01*
X25740811Y-18729429D01*
X25740838Y-18735438D01*
X25740589Y-18741000D01*
X25740384Y-18743239D01*
X25738667Y-18753717D01*
X25735865Y-18763913D01*
X25732013Y-18773756D01*
X25727149Y-18783170D01*
X25721307Y-18792083D01*
X25714526Y-18800421D01*
X25709262Y-18805853D01*
X25701445Y-18812598D01*
X25692866Y-18818580D01*
X25683675Y-18823723D01*
X25674023Y-18827951D01*
X25664059Y-18831189D01*
X25655313Y-18833131D01*
X25651873Y-18833583D01*
X25647637Y-18833913D01*
X25642905Y-18834118D01*
X25637975Y-18834195D01*
X25633146Y-18834142D01*
X25628719Y-18833955D01*
X25624992Y-18833631D01*
X25623634Y-18833442D01*
X25612949Y-18831151D01*
X25602683Y-18827841D01*
X25592900Y-18823556D01*
X25583668Y-18818340D01*
X25575051Y-18812237D01*
X25567116Y-18805288D01*
X25559929Y-18797539D01*
X25553555Y-18789033D01*
X25551413Y-18785697D01*
X25549443Y-18782254D01*
X25547313Y-18778132D01*
X25545205Y-18773716D01*
X25543300Y-18769389D01*
X25541779Y-18765534D01*
X25541451Y-18764606D01*
X25538607Y-18754530D01*
X25536844Y-18744227D01*
X25536151Y-18733801D01*
X25536518Y-18723360D01*
X25537933Y-18713008D01*
X25540386Y-18702851D01*
X25543867Y-18692996D01*
X25548363Y-18683548D01*
X25550003Y-18680648D01*
X25554593Y-18673462D01*
X25559568Y-18666924D01*
X25565147Y-18660781D01*
X25571550Y-18654777D01*
X25574154Y-18652555D01*
X25576651Y-18650400D01*
X25578996Y-18648247D01*
X25580964Y-18646312D01*
X25582326Y-18644813D01*
X25582559Y-18644514D01*
X25584828Y-18640558D01*
X25586381Y-18636021D01*
X25587150Y-18631238D01*
X25587069Y-18626545D01*
X25586593Y-18623938D01*
X25584764Y-18618878D01*
X25582107Y-18614459D01*
X25578748Y-18610744D01*
X25574811Y-18607792D01*
X25570422Y-18605666D01*
X25565706Y-18604427D01*
X25560788Y-18604134D01*
X25555794Y-18604850D01*
G37*
X25555794Y-18604850D02*
X25550977Y-18606574D01*
X25548468Y-18608001D01*
X25545356Y-18610158D01*
X25541797Y-18612920D01*
X25537942Y-18616161D01*
X25533948Y-18619757D01*
X25529966Y-18623581D01*
X25529427Y-18624119D01*
X25522433Y-18631519D01*
X25516300Y-18638889D01*
X25510816Y-18646519D01*
X25505773Y-18654703D01*
X25500958Y-18663733D01*
X25500917Y-18663816D01*
X25495606Y-18675728D01*
X25491359Y-18688001D01*
X25488183Y-18700561D01*
X25486086Y-18713338D01*
X25485076Y-18726258D01*
X25485159Y-18739250D01*
X25486344Y-18752241D01*
X25488638Y-18765158D01*
X25489867Y-18770286D01*
X25492997Y-18780622D01*
X25497063Y-18791133D01*
X25501941Y-18801570D01*
X25507506Y-18811687D01*
X25513634Y-18821236D01*
X25519249Y-18828792D01*
X25521940Y-18831972D01*
X25525276Y-18835619D01*
X25529011Y-18839489D01*
X25532899Y-18843334D01*
X25536693Y-18846910D01*
X25540149Y-18849969D01*
X25541726Y-18851271D01*
X25551003Y-18858089D01*
X25560995Y-18864337D01*
X25571498Y-18869919D01*
X25582309Y-18874737D01*
X25593222Y-18878694D01*
X25604036Y-18881694D01*
X25607081Y-18882362D01*
X25614858Y-18883725D01*
X25623121Y-18884741D01*
X25631515Y-18885386D01*
X25639687Y-18885636D01*
X25647284Y-18885466D01*
X25649652Y-18885310D01*
X25661680Y-18883904D01*
X25673427Y-18881568D01*
X25684859Y-18878358D01*
X25697321Y-18873791D01*
X25709194Y-18868270D01*
X25720439Y-18861840D01*
X25731020Y-18854545D01*
X25740898Y-18846431D01*
X25750036Y-18837543D01*
X25758395Y-18827925D01*
X25765937Y-18817623D01*
X25772626Y-18806683D01*
X25778422Y-18795148D01*
X25783289Y-18783065D01*
X25787188Y-18770478D01*
X25790081Y-18757432D01*
X25790959Y-18752021D01*
X25791418Y-18747878D01*
X25791743Y-18742887D01*
X25791934Y-18737333D01*
X25791989Y-18731502D01*
X25791909Y-18725679D01*
X25791695Y-18720150D01*
X25791346Y-18715200D01*
X25790968Y-18711845D01*
X25788577Y-18698673D01*
X25785124Y-18685859D01*
X25780633Y-18673458D01*
X25775126Y-18661527D01*
X25768626Y-18650121D01*
X25761159Y-18639295D01*
X25759842Y-18637578D01*
X25756684Y-18633736D01*
X25753059Y-18629691D01*
X25749111Y-18625579D01*
X25744986Y-18621532D01*
X25740829Y-18617683D01*
X25736785Y-18614168D01*
X25732998Y-18611119D01*
X25729615Y-18608669D01*
X25726778Y-18606952D01*
X25726376Y-18606750D01*
X25721411Y-18604954D01*
X25716261Y-18604215D01*
X25711100Y-18604518D01*
X25706102Y-18605844D01*
X25701442Y-18608176D01*
X25699695Y-18609399D01*
X25697242Y-18611716D01*
X25694832Y-18614749D01*
X25692744Y-18618100D01*
X25691257Y-18621369D01*
X25691179Y-18621596D01*
X25690150Y-18626343D01*
X25690066Y-18631379D01*
X25690886Y-18636413D01*
X25692572Y-18641154D01*
X25694220Y-18644105D01*
X25695521Y-18645735D01*
X25697412Y-18647697D01*
X25699558Y-18649652D01*
X25700370Y-18650323D01*
X25703618Y-18653084D01*
X25707215Y-18656417D01*
X25710941Y-18660096D01*
X25714579Y-18663895D01*
X25717911Y-18667589D01*
X25720718Y-18670953D01*
X25722239Y-18672967D01*
X25727053Y-18680531D01*
X25731339Y-18688851D01*
X25734960Y-18697609D01*
X25737781Y-18706490D01*
X25739214Y-18712637D01*
X25739983Y-18717636D01*
X25740520Y-18723364D01*
X25740811Y-18729429D01*
X25740838Y-18735438D01*
X25740589Y-18741000D01*
X25740384Y-18743239D01*
X25738667Y-18753717D01*
X25735865Y-18763913D01*
X25732013Y-18773756D01*
X25727149Y-18783170D01*
X25721307Y-18792083D01*
X25714526Y-18800421D01*
X25709262Y-18805853D01*
X25701445Y-18812598D01*
X25692866Y-18818580D01*
X25683675Y-18823723D01*
X25674023Y-18827951D01*
X25664059Y-18831189D01*
X25655313Y-18833131D01*
X25651873Y-18833583D01*
X25647637Y-18833913D01*
X25642905Y-18834118D01*
X25637975Y-18834195D01*
X25633146Y-18834142D01*
X25628719Y-18833955D01*
X25624992Y-18833631D01*
X25623634Y-18833442D01*
X25612949Y-18831151D01*
X25602683Y-18827841D01*
X25592900Y-18823556D01*
X25583668Y-18818340D01*
X25575051Y-18812237D01*
X25567116Y-18805288D01*
X25559929Y-18797539D01*
X25553555Y-18789033D01*
X25551413Y-18785697D01*
X25549443Y-18782254D01*
X25547313Y-18778132D01*
X25545205Y-18773716D01*
X25543300Y-18769389D01*
X25541779Y-18765534D01*
X25541451Y-18764606D01*
X25538607Y-18754530D01*
X25536844Y-18744227D01*
X25536151Y-18733801D01*
X25536518Y-18723360D01*
X25537933Y-18713008D01*
X25540386Y-18702851D01*
X25543867Y-18692996D01*
X25548363Y-18683548D01*
X25550003Y-18680648D01*
X25554593Y-18673462D01*
X25559568Y-18666924D01*
X25565147Y-18660781D01*
X25571550Y-18654777D01*
X25574154Y-18652555D01*
X25576651Y-18650400D01*
X25578996Y-18648247D01*
X25580964Y-18646312D01*
X25582326Y-18644813D01*
X25582559Y-18644514D01*
X25584828Y-18640558D01*
X25586381Y-18636021D01*
X25587150Y-18631238D01*
X25587069Y-18626545D01*
X25586593Y-18623938D01*
X25584764Y-18618878D01*
X25582107Y-18614459D01*
X25578748Y-18610744D01*
X25574811Y-18607792D01*
X25570422Y-18605666D01*
X25565706Y-18604427D01*
X25560788Y-18604134D01*
X25555794Y-18604850D01*
D11*
X30734128Y-20447088D03*
D12*
X30480128Y-20955088D03*
D11*
X30099128Y-20701088D03*
D13*
X29972128Y-20955088D03*
X30988128Y-20955088D03*
D11*
X15494064Y-20447088D03*
D12*
X15240064Y-20955088D03*
D11*
X14859064Y-20701088D03*
D13*
X14732064Y-20955088D03*
X15748064Y-20955088D03*
G36*
G01*
X31627482Y-18538288D02*
X31457482Y-18538288D01*
G75*
G02*
X31437482Y-18518288I0J20000D01*
G01*
X31437482Y-18348288D01*
G75*
G02*
X31457482Y-18328288I20000J0D01*
G01*
X31627482Y-18328288D01*
G75*
G02*
X31647482Y-18348288I0J-20000D01*
G01*
X31647482Y-18518288D01*
G75*
G02*
X31627482Y-18538288I-20000J0D01*
G01*
G37*
D14*
X31542482Y-18687288D03*
X31288482Y-18433288D03*
X31288482Y-18687288D03*
X31034482Y-18433288D03*
X31034482Y-18687288D03*
D11*
X23114000Y-18542000D03*
D12*
X22860000Y-19050000D03*
D11*
X22479000Y-18796000D03*
D13*
X22352000Y-19050000D03*
X23368000Y-19050000D03*
D11*
X23114000Y-20447000D03*
D12*
X22860000Y-20955000D03*
D11*
X22479000Y-20701000D03*
D13*
X22352000Y-20955000D03*
X23368000Y-20955000D03*
D15*
X17610010Y-21653500D03*
X28109990Y-21653500D03*
D12*
X17610010Y-20129500D03*
X28109990Y-20129500D03*
D16*
X31925000Y-20434500D03*
X31925000Y-19570500D03*
D17*
X31507000Y-20434500D03*
X31507000Y-19570500D03*
D18*
X31560000Y-19713500D03*
X31560000Y-20291500D03*
D11*
X30495875Y-20447000D03*
D12*
X30241875Y-20955000D03*
D11*
X29860875Y-20701000D03*
D13*
X29733875Y-20955000D03*
X30749875Y-20955000D03*
D11*
X28352750Y-18542000D03*
D12*
X28098750Y-19050000D03*
D11*
X27717750Y-18796000D03*
D13*
X27590750Y-19050000D03*
X28606750Y-19050000D03*
X15986125Y-20955000D03*
X14970125Y-20955000D03*
D11*
X15097125Y-20701000D03*
D12*
X15478125Y-20955000D03*
D11*
X15732125Y-20447000D03*
X17875250Y-18542000D03*
D12*
X17621250Y-19050000D03*
D11*
X17240250Y-18796000D03*
D13*
X17113250Y-19050000D03*
X18129250Y-19050000D03*
D11*
X30972125Y-20447000D03*
D12*
X30718125Y-20955000D03*
D19*
X30337125Y-20701000D03*
D13*
X30210125Y-20955000D03*
X31226125Y-20955000D03*
D11*
X28829000Y-18542000D03*
D12*
X28575000Y-19050000D03*
D11*
X28194000Y-18796000D03*
D13*
X28067000Y-19050000D03*
X29083000Y-19050000D03*
D11*
X23114000Y-20447000D03*
D12*
X22860000Y-20955000D03*
D11*
X22479000Y-20701000D03*
D13*
X22352000Y-20955000D03*
X23368000Y-20955000D03*
D15*
X17145000Y-21653500D03*
X28575000Y-21653500D03*
D12*
X17145000Y-20129500D03*
X28575000Y-20129500D03*
D19*
X15255875Y-20447000D03*
D12*
X15001875Y-20955000D03*
D11*
X14620875Y-20701000D03*
D13*
X14493875Y-20955000D03*
X15509875Y-20955000D03*
D11*
X17399000Y-18542000D03*
D12*
X17145000Y-19050000D03*
D11*
X16764000Y-18796000D03*
D13*
X16637000Y-19050000D03*
X17653000Y-19050000D03*
D19*
X30257750Y-20447000D03*
D12*
X30003750Y-20955000D03*
D11*
X29622750Y-20701000D03*
D13*
X29495750Y-20955000D03*
X30511750Y-20955000D03*
D11*
X28114625Y-18542000D03*
D12*
X27860625Y-19050000D03*
D11*
X27479625Y-18796000D03*
D13*
X27352625Y-19050000D03*
X28368625Y-19050000D03*
D11*
X23114000Y-20447000D03*
D12*
X22860000Y-20955000D03*
D11*
X22479000Y-20701000D03*
D13*
X22352000Y-20955000D03*
X23368000Y-20955000D03*
D15*
X17860010Y-21653500D03*
X27859990Y-21653500D03*
D12*
X17860010Y-20129500D03*
X27859990Y-20129500D03*
D11*
X15970250Y-20447000D03*
D12*
X15716250Y-20955000D03*
D19*
X15335250Y-20701000D03*
D13*
X15208250Y-20955000D03*
X16224250Y-20955000D03*
D11*
X18113375Y-18542000D03*
D12*
X17859375Y-19050000D03*
D11*
X17478375Y-18796000D03*
D13*
X17351375Y-19050000D03*
X18367375Y-19050000D03*
M02*
