0
SECTION
2
HEADER
9
$INSUNITS
70
4
9
$ACADVER
1
AC1014
9
$HANDSEED
5
FFFF
0
ENDSEC
0
SECTION
2
TABLES
0
TABLE
2
VPORT
5
8
100
AcDbSymbolTable
0
ENDTAB
0
TABLE
2
LTYPE
5
5
100
AcDbSymbolTable
0
LTYPE
5
14
100
AcDbSymbolTableRecord
100
AcDbLinetypeTableRecord
2
BYBLOCK
70
0
0
LTYPE
5
15
100
AcDbSymbolTableRecord
100
AcDbLinetypeTableRecord
2
BYLAYER
70
0
0
ENDTAB
0
TABLE
2
LAYER
5
2
100
AcDbSymbolTable
70
2
0
LAYER
5
50
100
AcDbSymbolTableRecord
100
AcDbLayerTableRecord
2
0
70
0
6
CONTINUOUS
0
ENDTAB
0
TABLE
2
STYLE
5
3
100
AcDbSymbolTable
70
1
0
STYLE
5
11
100
AcDbSymbolTableRecord
100
AcDbTextStyleTableRecord
2
STANDARD
70
0
0
ENDTAB
0
TABLE
2
VIEW
5
6
100
AcDbSymbolTable
70
0
0
ENDTAB
0
TABLE
2
UCS
5
7
100
AcDbSymbolTable
70
0
0
ENDTAB
0
TABLE
2
APPID
5
9
100
AcDbSymbolTable
70
2
0
APPID
5
12
100
AcDbSymbolTableRecord
100
AcDbRegAppTableRecord
2
ACAD
70
0
0
ENDTAB
0
TABLE
2
DIMSTYLE
5
A
100
AcDbSymbolTable
70
1
0
ENDTAB
0
TABLE
2
BLOCK_RECORD
5
1
100
AcDbSymbolTable
70
1
0
BLOCK_RECORD
5
1F
100
AcDbSymbolTableRecord
100
AcDbBlockTableRecord
2
*MODEL_SPACE
0
BLOCK_RECORD
5
1B
100
AcDbSymbolTableRecord
100
AcDbBlockTableRecord
2
*PAPER_SPACE
0
ENDTAB
0
ENDSEC
0
SECTION
2
BLOCKS
0
BLOCK
5
20
100
AcDbEntity
100
AcDbBlockBegin
2
*MODEL_SPACE
0
ENDBLK
5
21
100
AcDbEntity
100
AcDbBlockEnd
0
BLOCK
5
1C
100
AcDbEntity
100
AcDbBlockBegin
2
*PAPER_SPACE
0
ENDBLK
5
1D
100
AcDbEntity
100
AcDbBlockEnd
0
ENDSEC
0
SECTION
2
ENTITIES
0
LWPOLYLINE
5
100
100
AcDbEntity
8
0
100
AcDbPolyline
90
8
70
1
43
0.0
10
224.69291105002412
20
-9.1632191414536237
10
219.39291105002411
20
-9.1632191414535669
42
-0.41421356237309503
10
218.39291105002417
20
-8.1632191414536237
10
218.39291105002411
20
4.3367808585463763
42
-0.41421356237309503
10
219.39291105002411
20
5.3367808585463763
10
224.69291105002412
20
5.3367808585463195
42
-0.41421356237309503
10
225.69291105002407
20
4.3367808585463763
10
225.69291105002412
20
-8.1632191414536237
42
-0.41421356237309503
0
LINE
5
101
100
AcDbEntity
8
0
100
AcDbLine
10
247.05491105002409
20
10.41691085854637
30
0
11
234.24491105002403
21
10.41691085854637
31
0
0
LINE
5
102
100
AcDbEntity
8
0
100
AcDbLine
10
251.85491105002413
20
-80.823219141453592
30
0
11
251.85491105002399
21
-23.213219141453635
31
0
0
LINE
5
103
100
AcDbEntity
8
0
100
AcDbLine
10
248.05491105002417
20
9.4169108585463679
30
0
11
248.05491105002417
21
2.0167808585463831
31
0
0
LINE
5
104
100
AcDbEntity
8
0
100
AcDbLine
10
196.24091105002407
20
15.916780858546362
30
0
11
245.24491105002411
21
15.916780858546362
31
0
0
LINE
5
105
100
AcDbEntity
8
0
100
AcDbLine
10
250.85491105002404
20
-22.213219141453635
30
0
11
247.65491105002411
21
-22.213219141453635
31
0
0
LINE
5
106
100
AcDbEntity
8
0
100
AcDbLine
10
151.24091105002407
20
-88.122339141453651
30
0
11
207.24091105002401
21
-88.122339141453651
31
0
0
LINE
5
107
100
AcDbEntity
8
0
100
AcDbLine
10
207.24091105002401
20
10.41691085854637
30
0
11
149.24091105002404
21
10.41691085854637
31
0
0
LINE
5
108
100
AcDbEntity
8
0
100
AcDbLine
10
234.24491105002403
20
-88.122339141453651
30
0
11
246.11423411130644
21
-88.122339141453651
31
0
0
LINE
5
109
100
AcDbEntity
8
0
100
AcDbLine
10
196.24344997102412
20
-90.222339141453631
30
0
11
207.24091105002401
21
-90.222339141453631
31
0
0
LINE
5
110
100
AcDbEntity
8
0
100
AcDbLine
10
234.24491105002403
20
-90.222339141453631
30
0
11
245.24237212912411
21
-90.222339141453631
31
0
0
LWPOLYLINE
5
111
100
AcDbEntity
8
0
100
AcDbPolyline
90
8
70
1
43
0.0
10
201.69291105002401
20
4.3367808585463763
10
201.69291105002407
20
-8.1632191414536237
42
-0.41421356237309503
10
200.69291105002407
20
-9.1632191414536237
10
195.39291105002405
20
-9.1632191414535669
42
-0.41421356237309503
10
194.39291105002411
20
-8.1632191414536237
10
194.39291105002405
20
4.3367808585463763
42
-0.41421356237309503
10
195.39291105002405
20
5.3367808585463763
10
200.69291105002407
20
5.3367808585463195
42
-0.41421356237309503
0
ARC
5
112
100
AcDbEntity
8
0
100
AcDbCircle
10
250.8549110500239
20
-80.823219141453592
30
0
40
0.99999999999999645
210
0
220
0
230
1
100
AcDbArc
50
-90
51
0
0
LINE
5
113
100
AcDbEntity
8
0
100
AcDbLine
10
248.05491105002417
20
-86.123219141453617
30
0
11
248.05491105002361
21
-83.82321914145372
31
0
0
LINE
5
114
100
AcDbEntity
8
0
100
AcDbLine
10
196.24091105002407
20
-93.623219141453632
30
0
11
245.24491105002411
21
-93.623219141453632
31
0
0
LWPOLYLINE
5
115
100
AcDbEntity
8
0
100
AcDbPolyline
90
4
70
1
43
0.0
10
201.62416105002421
20
-13.993219141453636
42
-0.99999999999999989
10
204.17416105002417
20
-13.993219141453636
10
204.17416105002417
20
-26.443219141453625
42
-0.99999999999999989
10
201.62416105002421
20
-26.443219141453625
0
ARC
5
116
100
AcDbEntity
8
0
100
AcDbCircle
10
196.24091105002407
20
14.216845858546378
30
0
40
1.6999349999999835
210
0
220
-0
230
1
100
AcDbArc
50
90
51
270
0
ARC
5
117
100
AcDbEntity
8
0
100
AcDbCircle
10
234.2961610500241
20
-89.172339141453634
30
0
40
1.0512499999999898
210
0
220
0
230
1
100
AcDbArc
50
92.794362054596448
51
267.20563794540357
0
LINE
5
118
100
AcDbEntity
8
0
100
AcDbLine
10
250.05491105002363
20
-81.823219141453592
30
0
11
250.8549110500239
21
-81.823219141453592
31
0
0
ARC
5
119
100
AcDbEntity
8
0
100
AcDbCircle
10
207.18966105002409
20
11.466910858546367
30
0
40
1.051249999999994
210
0
220
0
230
1
100
AcDbArc
50
-87.205637945411326
51
87.20563794541134
0
ARC
5
120
100
AcDbEntity
8
0
100
AcDbCircle
10
196.24091105002407
20
-91.922779141453631
30
0
40
1.6999349999999971
210
0
220
-0
230
1
100
AcDbArc
50
89.914451938300417
51
270.08554806169957
0
LWPOLYLINE
5
121
100
AcDbEntity
8
0
100
AcDbPolyline
90
8
70
1
43
0.0
10
217.01166105002414
20
-32.763219141453646
10
222.31166105002416
20
-32.763219141453703
42
-0.41421356237309503
10
223.3116610500241
20
-33.763219141453646
10
223.31166105002416
20
-46.263219141453646
42
-0.41421356237309503
10
222.31166105002416
20
-47.263219141453654
10
217.01166105002414
20
-47.263219141453732
42
-0.41421356237309503
10
216.01166105002406
20
-46.263219141453646
10
216.01166105002414
20
-33.763219141453646
42
-0.41421356237309503
0
ARC
5
122
100
AcDbEntity
8
0
100
AcDbCircle
10
245.24491105002411
20
14.216845858546378
30
0
40
1.6999350000000102
210
0
220
0
230
1
100
AcDbArc
50
-90
51
90
0
LINE
5
123
100
AcDbEntity
8
0
100
AcDbLine
10
207.24091105002401
20
12.516910858546368
30
0
11
196.24091105002407
21
12.516910858546368
31
0
0
ARC
5
124
100
AcDbEntity
8
0
100
AcDbCircle
10
250.85491105002404
20
-23.213219141453635
30
0
40
0.99999999999994316
210
0
220
0
230
1
100
AcDbArc
50
0
51
90
0
ARC
5
125
100
AcDbEntity
8
0
100
AcDbCircle
10
249.05491105002412
20
2.0167808585463831
30
0
40
0.99999999999994316
210
0
220
0
230
1
100
AcDbArc
50
180
51
270
0
CIRCLE
5
126
100
AcDbEntity
8
0
100
AcDbCircle
10
228.80291105002414
20
-10.683219141453634
30
0
40
1.1000000000000001
210
0
220
0
230
1
0
LWPOLYLINE
5
127
100
AcDbEntity
8
0
100
AcDbPolyline
90
8
70
1
43
0.0
10
193.01166105002409
20
-32.763219141453646
10
198.3116610500241
20
-32.763219141453561
42
-0.41421356237309503
10
199.31166105002418
20
-33.763219141453646
10
199.3116610500241
20
-46.263219141453646
42
-0.41421356237309503
10
198.3116610500241
20
-47.263219141453654
10
193.01166105002409
20
-47.26321914145359
42
-0.41421356237309503
10
192.01166105002414
20
-46.263219141453646
10
192.01166105002409
20
-33.763219141453646
42
-0.41421356237309503
0
ARC
5
128
100
AcDbEntity
8
0
100
AcDbCircle
10
247.65491105002411
20
-12.713219141453635
30
0
40
1.0000000000000009
210
0
220
-0
230
1
100
AcDbArc
50
90
51
180
0
LINE
5
129
100
AcDbEntity
8
0
100
AcDbLine
10
245.24491105002411
20
12.516910858546368
30
0
11
234.24491105002403
21
12.516910858546368
31
0
0
LINE
5
130
100
AcDbEntity
8
0
100
AcDbLine
10
250.85491105002404
20
-11.713219141453635
30
0
11
247.65491105002411
21
-11.713219141453635
31
0
0
ARC
5
131
100
AcDbEntity
8
0
100
AcDbCircle
10
247.05491105002409
20
9.4169108585463679
30
0
40
1.0000000000000853
210
0
220
0
230
1
100
AcDbArc
50
0
51
90
0
ARC
5
132
100
AcDbEntity
8
0
100
AcDbCircle
10
247.65491105002411
20
-21.213219141453635
30
0
40
0.99999999999994316
210
0
220
0
230
1
100
AcDbArc
50
180
51
270
0
ARC
5
133
100
AcDbEntity
8
0
100
AcDbCircle
10
250.85491105002404
20
0.016780858546383115
30
0
40
1.0000000000000853
210
0
220
-0
230
1
100
AcDbArc
50
0
51
90
0
LINE
5
134
100
AcDbEntity
8
0
100
AcDbLine
10
250.85491105002404
20
1.0167808585463831
30
0
11
249.05491105002412
21
1.0167808585463831
31
0
0
LINE
5
135
100
AcDbEntity
8
0
100
AcDbLine
10
246.65491105002417
20
-12.713219141453635
30
0
11
246.65491105002417
21
-21.213219141453635
31
0
0
ARC
5
136
100
AcDbEntity
8
0
100
AcDbCircle
10
250.85491105002404
20
-10.713219141453635
30
0
40
0.99999999999999867
210
0
220
0
230
1
100
AcDbArc
50
-90
51
0
0
ARC
5
137
100
AcDbEntity
8
0
100
AcDbCircle
10
234.2961610500241
20
11.466910858546367
30
0
40
1.0512500000000053
210
0
220
0
230
1
100
AcDbArc
50
92.794362054596405
51
267.20563794540357
0
LINE
5
138
100
AcDbEntity
8
0
100
AcDbLine
10
251.85491105002413
20
-10.713219141453635
30
0
11
251.85491105002413
21
0.016780858546383559
31
0
0
LWPOLYLINE
5
139
100
AcDbEntity
8
0
100
AcDbPolyline
90
4
70
1
43
0.0
10
-29.189588949975871
20
-13.993219141453636
10
-29.189588949975871
20
-26.443219141453625
42
-0.99999999999999989
10
-31.739588949975825
20
-26.443219141453625
10
-31.739588949975825
20
-13.993219141453636
42
-0.99999999999999989
0
ARC
5
140
100
AcDbEntity
8
0
100
AcDbCircle
10
-53.759088949975933
20
14.216845858546378
30
0
40
1.6999349999999835
210
0
220
-0
230
1
100
AcDbArc
50
90
51
270
0
ARC
5
141
100
AcDbEntity
8
0
100
AcDbCircle
10
-56.36908894997589
20
8.4169108585463679
30
0
40
2.0000000000000009
210
0
220
-0
230
1
100
AcDbArc
50
90
51
180
0
ARC
5
142
100
AcDbEntity
8
0
100
AcDbCircle
10
-42.810338949975915
20
11.466910858546367
30
0
40
1.051249999999994
210
0
220
0
230
1
100
AcDbArc
50
-87.205637945411326
51
87.20563794541134
0
CIRCLE
5
143
100
AcDbEntity
8
0
100
AcDbCircle
10
-55.36708894997588
20
-10.683219141453634
30
0
40
1.1000000000000001
210
0
220
0
230
1
0
LINE
5
144
100
AcDbEntity
8
0
100
AcDbLine
10
-42.75908894997599
20
12.516910858546368
30
0
11
-53.759088949975933
21
12.516910858546368
31
0
0
ARC
5
145
100
AcDbEntity
8
0
100
AcDbCircle
10
-15.707838949975965
20
-89.172339141453634
30
0
40
1.0512499999999863
210
0
220
0
230
1
100
AcDbArc
50
92.794362054592582
51
267.20563794540743
0
LWPOLYLINE
5
146
100
AcDbEntity
8
0
100
AcDbPolyline
90
8
70
1
43
0.0
10
27.011661050024003
20
-83.863219141453627
10
21.611661050024082
20
-83.86321914145357
42
-0.41421356237309503
10
20.611661050024139
20
-82.863219141453627
10
20.611661050024086
20
-70.363219141453627
42
-0.41421356237309503
10
21.611661050024082
20
-69.363219141453641
10
27.011661050024003
20
-69.363219141453541
42
-0.41421356237309503
10
28.011661050024088
20
-70.363219141453627
10
28.011661050023999
20
-82.863219141453627
42
-0.41421356237309503
0
LINE
5
147
100
AcDbEntity
8
0
100
AcDbLine
10
-42.75908894997599
20
10.41691085854637
30
0
11
-56.36908894997589
21
10.41691085854637
31
0
0
LINE
5
148
100
AcDbEntity
8
0
100
AcDbLine
10
-53.759088949975933
20
15.916780858546362
30
0
11
-4.7590889499760181
21
15.916780858546362
31
0
0
CIRCLE
5
149
100
AcDbEntity
8
0
100
AcDbCircle
10
14.775411050024161
20
-67.633219141453637
30
0
40
1.1000000000000001
210
0
220
0
230
1
0
LINE
5
150
100
AcDbEntity
8
0
100
AcDbLine
10
-15.759088949975961
20
-90.222339141453631
30
0
11
-4.7616278708758841
21
-90.222339141453631
31
0
0
ARC
5
151
100
AcDbEntity
8
0
100
AcDbCircle
10
-4.7590889499760181
20
-91.922779141453631
30
0
40
1.6999349999999971
210
0
220
0
230
1
100
AcDbArc
50
-90.085548061699612
51
90.085548061699583
0
LINE
5
152
100
AcDbEntity
8
0
100
AcDbLine
10
78.240911050024096
20
12.516910858546368
30
0
11
67.24091105002401
21
12.516910858546368
31
0
0
ARC
5
153
100
AcDbEntity
8
0
100
AcDbCircle
10
67.292161050024077
20
11.466910858546367
30
0
40
1.0512500000000053
210
0
220
0
230
1
100
AcDbArc
50
92.794362054596405
51
267.20563794540357
0
ARC
5
154
100
AcDbEntity
8
0
100
AcDbCircle
10
78.240911050024096
20
14.216845858546378
30
0
40
1.6999350000000102
210
0
220
0
230
1
100
AcDbArc
50
-90
51
90
0
LINE
5
155
100
AcDbEntity
8
0
100
AcDbLine
10
40.240911050023982
20
12.516910858546368
30
0
11
29.240911050024039
21
12.516910858546368
31
0
0
LINE
5
156
100
AcDbEntity
8
0
100
AcDbLine
10
29.240911050024039
20
15.916780858546362
30
0
11
78.240911050024096
21
15.916780858546362
31
0
0
ARC
5
157
100
AcDbEntity
8
0
100
AcDbCircle
10
-4.7590889499760181
20
14.216845858546378
30
0
40
1.6999350000000102
210
0
220
0
230
1
100
AcDbArc
50
-90
51
90
0
ARC
5
158
100
AcDbEntity
8
0
100
AcDbCircle
10
-15.707838949975965
20
11.466910858546367
30
0
40
1.0512500000000018
210
0
220
0
230
1
100
AcDbArc
50
92.794362054592554
51
267.20563794540743
0
LINE
5
159
100
AcDbEntity
8
0
100
AcDbLine
10
-4.7590889499760181
20
12.516910858546368
30
0
11
-15.759088949975961
21
12.516910858546368
31
0
0
LINE
5
160
100
AcDbEntity
8
0
100
AcDbLine
10
124.24091105002404
20
10.41691085854637
30
0
11
67.24091105002401
21
10.41691085854637
31
0
0
ARC
5
161
100
AcDbEntity
8
0
100
AcDbCircle
10
40.189661050024057
20
-89.172339141453634
30
0
40
1.0512500000000007
210
0
220
0
230
1
100
AcDbArc
50
-87.205637945411326
51
87.205637945411283
0
ARC
5
162
100
AcDbEntity
8
0
100
AcDbCircle
10
29.240911050024039
20
-91.922779141453631
30
0
40
1.6999349999999971
210
0
220
-0
230
1
100
AcDbArc
50
89.914451938300417
51
270.08554806169957
0
LWPOLYLINE
5
163
100
AcDbEntity
8
0
100
AcDbPolyline
90
4
70
1
43
0.0
10
58.323911050024293
20
-83.863254141453638
42
-0.99999999999999989
10
55.773911050024054
20
-83.863254141453638
10
55.773911050024196
20
-71.413254141453635
42
-0.99999999999999989
10
58.323911050024151
20
-71.413254141453635
0
ARC
5
164
100
AcDbEntity
8
0
100
AcDbCircle
10
40.189661050024057
20
11.466910858546367
30
0
40
1.051249999999994
210
0
220
0
230
1
100
AcDbArc
50
-87.205637945411326
51
87.20563794541134
0
CIRCLE
5
165
100
AcDbEntity
8
0
100
AcDbCircle
10
29.072911050024146
20
-10.683219141453634
30
0
40
1.1000000000000001
210
0
220
0
230
1
0
LINE
5
166
100
AcDbEntity
8
0
100
AcDbLine
10
67.24091105002401
20
-88.122339141453651
30
0
11
124.24091105002404
21
-88.122339141453651
31
0
0
ARC
5
167
100
AcDbEntity
8
0
100
AcDbCircle
10
67.292161050024077
20
-89.172339141453634
30
0
40
1.0512499999999898
210
0
220
0
230
1
100
AcDbArc
50
92.794362054596448
51
267.20563794540357
0
LINE
5
168
100
AcDbEntity
8
0
100
AcDbLine
10
29.243449971024091
20
-90.222339141453631
30
0
11
40.240911050023982
21
-90.222339141453631
31
0
0
ARC
5
169
100
AcDbEntity
8
0
100
AcDbCircle
10
78.240911050024096
20
-91.922779141453631
30
0
40
1.6999350000000018
210
0
220
0
230
1
100
AcDbArc
50
-90.051739523301777
51
90.017883105500999
0
LINE
5
170
100
AcDbEntity
8
0
100
AcDbLine
10
67.24091105002401
20
-90.222339141453631
30
0
11
78.240380310324156
21
-90.222339141453631
31
0
0
LINE
5
171
100
AcDbEntity
8
0
100
AcDbLine
10
29.240911050024039
20
-93.623219141453632
30
0
11
78.240911050024096
21
-93.623219141453632
31
0
0
ARC
5
172
100
AcDbEntity
8
0
100
AcDbCircle
10
29.240911050024039
20
14.216845858546378
30
0
40
1.6999349999999835
210
0
220
-0
230
1
100
AcDbArc
50
90
51
270
0
LWPOLYLINE
5
173
100
AcDbEntity
8
0
100
AcDbPolyline
90
8
70
1
43
0.0
10
128.01166105002414
20
-82.863219141453627
42
-0.41421356237309503
10
127.01166105002414
20
-83.863219141453627
10
121.61166105002408
20
-83.86321914145357
42
-0.41421356237309503
10
120.61166105002414
20
-82.863219141453627
10
120.61166105002408
20
-70.363219141453627
42
-0.41421356237309503
10
121.61166105002408
20
-69.363219141453641
10
127.01166105002414
20
-69.363219141453683
42
-0.41421356237309503
10
128.01166105002409
20
-70.363219141453627
0
LINE
5
174
100
AcDbEntity
8
0
100
AcDbLine
10
40.240911050023982
20
10.41691085854637
30
0
11
-15.759088949975961
21
10.41691085854637
31
0
0
ARC
5
175
100
AcDbEntity
8
0
100
AcDbCircle
10
-42.810338949975915
20
-89.172339141453634
30
0
40
1.0512500000000007
210
0
220
0
230
1
100
AcDbArc
50
-87.205637945411326
51
87.205637945411283
0
CIRCLE
5
176
100
AcDbEntity
8
0
100
AcDbCircle
10
138.60541105002412
20
-67.83321914145364
30
0
40
1.1000000000000001
210
0
220
0
230
1
0
LWPOLYLINE
5
177
100
AcDbEntity
8
0
100
AcDbPolyline
90
8
70
1
43
0.0
10
-26.875838949975872
20
-65.313219141453629
10
-26.875838949975854
20
-52.813219141453629
42
-0.41421356237309503
10
-25.875838949975858
20
-51.813219141453636
10
-20.575838949975918
20
-51.813219141453615
42
-0.41421356237309503
10
-19.575838949975903
20
-52.813219141453629
10
-19.57583894997591
20
-65.313219141453629
42
-0.41421356237309503
10
-20.575838949975918
20
-66.313219141453629
10
-25.875838949975858
20
-66.313219141453644
42
-0.41421356237309503
0
LWPOLYLINE
5
178
100
AcDbEntity
8
0
100
AcDbPolyline
90
8
70
1
43
0.0
10
-43.575838949975889
20
-52.813219141453629
10
-43.575838949975896
20
-65.313219141453629
42
-0.41421356237309503
10
-44.575838949975903
20
-66.313219141453629
10
-49.875838949975844
20
-66.313219141453644
42
-0.41421356237309503
10
-50.875838949975858
20
-65.313219141453629
10
-50.875838949975844
20
-52.813219141453629
42
-0.41421356237309503
10
-49.875838949975844
20
-51.813219141453636
10
-44.575838949975903
20
-51.813219141453615
42
-0.41421356237309503
0
LINE
5
179
100
AcDbEntity
8
0
100
AcDbLine
10
-56.36908894997589
20
-88.122339141453651
30
0
11
-42.75908894997599
21
-88.122339141453651
31
0
0
ARC
5
180
100
AcDbEntity
8
0
100
AcDbCircle
10
-56.36908894997589
20
-86.122339141453637
30
0
40
1.9999999999999574
210
0
220
0
230
1
100
AcDbArc
50
180
51
270
0
LINE
5
181
100
AcDbEntity
8
0
100
AcDbLine
10
-58.369088949975847
20
8.4169108585463679
30
0
11
-58.369088949975847
21
-86.122339141453637
31
0
0
LINE
5
182
100
AcDbEntity
8
0
100
AcDbLine
10
-15.759088949975961
20
-88.122339141453651
30
0
11
40.240911050023982
21
-88.122339141453651
31
0
0
ARC
5
183
100
AcDbEntity
8
0
100
AcDbCircle
10
-53.759088949975933
20
-91.922779141453631
30
0
40
1.6999349999999971
210
0
220
-0
230
1
100
AcDbArc
50
89.914451938300417
51
270.08554806169957
0
CIRCLE
5
184
100
AcDbEntity
8
0
100
AcDbCircle
10
-55.364588949975868
20
-67.853219141453636
30
0
40
1.1000000000000001
210
0
220
0
230
1
0
LINE
5
185
100
AcDbEntity
8
0
100
AcDbLine
10
-53.756550028975951
20
-90.222339141453631
30
0
11
-42.75908894997599
21
-90.222339141453631
31
0
0
ARC
5
186
100
AcDbEntity
8
0
100
AcDbCircle
10
113.2409110500241
20
-91.922779141453631
30
0
40
1.6999349999999971
210
0
220
-0
230
1
100
AcDbArc
50
89.914451938300417
51
270.08554806169957
0
LINE
5
187
100
AcDbEntity
8
0
100
AcDbLine
10
-53.759088949975933
20
-93.623219141453632
30
0
11
-4.7590889499760181
21
-93.623219141453632
31
0
0
ARC
5
188
100
AcDbEntity
8
0
100
AcDbCircle
10
124.18966105002411
20
-89.172339141453634
30
0
40
1.0512500000000007
210
0
220
0
230
1
100
AcDbArc
50
-87.205637945411326
51
87.205637945411283
0
ARC
5
189
100
AcDbEntity
8
0
100
AcDbCircle
10
162.24091105002401
20
-91.922779141453631
30
0
40
1.6999349999999971
210
0
220
0
230
1
100
AcDbArc
50
-90.085548061699612
51
90.085548061699583
0
ARC
5
190
100
AcDbEntity
8
0
100
AcDbCircle
10
151.29216105002399
20
-89.172339141453634
30
0
40
1.0512499999999829
210
0
220
0
230
1
100
AcDbArc
50
92.794362054588717
51
267.20563794541135
0
LINE
5
191
100
AcDbEntity
8
0
100
AcDbLine
10
124.24091105002404
20
12.516910858546368
30
0
11
113.2409110500241
21
12.516910858546368
31
0
0
CIRCLE
5
192
100
AcDbEntity
8
0
100
AcDbCircle
10
143.37291105002407
20
-10.483219141453645
30
0
40
1.1000000000000001
210
0
220
0
230
1
0
LINE
5
193
100
AcDbEntity
8
0
100
AcDbLine
10
113.2409110500241
20
-93.623219141453632
30
0
11
162.24091105002401
21
-93.623219141453632
31
0
0
LINE
5
194
100
AcDbEntity
8
0
100
AcDbLine
10
151.24091105002407
20
-90.222339141453631
30
0
11
162.23837212912414
21
-90.222339141453631
31
0
0
ARC
5
195
100
AcDbEntity
8
0
100
AcDbCircle
10
113.2409110500241
20
14.216845858546378
30
0
40
1.6999349999999835
210
0
220
-0
230
1
100
AcDbArc
50
90
51
270
0
ARC
5
196
100
AcDbEntity
8
0
100
AcDbCircle
10
124.18966105002411
20
11.466910858546367
30
0
40
1.051249999999994
210
0
220
0
230
1
100
AcDbArc
50
-87.205637945411326
51
87.20563794541134
0
LINE
5
197
100
AcDbEntity
8
0
100
AcDbLine
10
113.24344997102415
20
-90.222339141453631
30
0
11
124.24091105002404
21
-90.222339141453631
31
0
0
ARC
5
198
100
AcDbEntity
8
0
100
AcDbCircle
10
246.05491105002415
20
-86.123219141453617
30
0
40
1.9999999999999929
210
0
220
0
230
1
100
AcDbArc
50
-90
51
0
0
CIRCLE
5
199
100
AcDbEntity
8
0
100
AcDbCircle
10
228.85541105002403
20
-67.853219141453636
30
0
40
1.1000000000000001
210
0
220
0
230
1
0
ARC
5
200
100
AcDbEntity
8
0
100
AcDbCircle
10
250.05491105002363
20
-83.823219141453578
30
0
40
1.9999999999999929
210
0
220
-0
230
1
100
AcDbArc
50
90
51
180
0
ARC
5
201
100
AcDbEntity
8
0
100
AcDbCircle
10
245.24491105002411
20
-91.922779141453631
30
0
40
1.6999349999999971
210
0
220
0
230
1
100
AcDbArc
50
-90.085548061699612
51
90.085548061699583
0
ARC
5
202
100
AcDbEntity
8
0
100
AcDbCircle
10
207.18966105002409
20
-89.172339141453634
30
0
40
1.0512500000000007
210
0
220
0
230
1
100
AcDbArc
50
-87.205637945411326
51
87.205637945411283
0
LINE
5
203
100
AcDbEntity
8
0
100
AcDbLine
10
151.24091105002407
20
12.516910858546368
30
0
11
149.24091105002404
21
12.516910858546368
31
0
0
ARC
5
204
100
AcDbEntity
8
0
100
AcDbCircle
10
149.29216105002411
20
11.466910858546367
30
0
40
1.0512500000000053
210
0
220
0
230
1
100
AcDbArc
50
92.794362054596405
51
267.20563794540357
0
ARC
5
205
100
AcDbEntity
8
0
100
AcDbCircle
10
151.24091105002407
20
14.216845858546378
30
0
40
1.6999350000000102
210
0
220
0
230
1
100
AcDbArc
50
-90
51
90
0
LINE
5
206
100
AcDbEntity
8
0
100
AcDbLine
10
113.2409110500241
20
15.916780858546362
30
0
11
151.24091105002407
21
15.916780858546362
31
0
0
ARC
5
207
100
AcDbEntity
8
0
100
AcDbCircle
10
857.18966105002414
20
11.466910858546367
30
0
40
1.051249999999994
210
0
220
0
230
1
100
AcDbArc
50
-87.205637945414438
51
87.205637945414438
0
LWPOLYLINE
5
208
100
AcDbEntity
8
0
100
AcDbPolyline
90
4
70
1
43
0.0
10
847.99291105002408
20
-13.213219141453635
10
847.99291105002408
20
-27.213219141453635
10
833.99291105002419
20
-27.213219141453635
10
833.99291105002419
20
-13.213219141453635
0
LWPOLYLINE
5
209
100
AcDbEntity
8
0
100
AcDbPolyline
90
4
70
1
43
0.0
10
881.61791105002408
20
5.8367808585463763
10
895.61791105002408
20
5.8367808585463754
10
895.61791105002408
20
-8.1632191414536237
10
881.61791105002408
20
-8.1632191414536219
0
LINE
5
210
100
AcDbEntity
8
0
100
AcDbLine
10
900.85491105002404
20
-11.713219141453635
30
0
11
897.65491105002411
21
-11.713219141453635
31
0
0
LWPOLYLINE
5
211
100
AcDbEntity
8
0
100
AcDbPolyline
90
8
70
1
43
0.0
10
874.69291105002412
20
-9.1632191414536237
10
869.39291105002417
20
-9.1632191414535669
42
-0.41421356237309503
10
868.39291105002417
20
-8.1632191414536237
10
868.39291105002417
20
4.3367808585463763
42
-0.41421356237309503
10
869.39291105002417
20
5.3367808585463763
10
874.69291105002412
20
5.3367808585463195
42
-0.41421356237309503
10
875.69291105002412
20
4.3367808585463763
10
875.69291105002412
20
-8.1632191414536237
42
-0.41421356237309503
0
LWPOLYLINE
5
212
100
AcDbEntity
8
0
100
AcDbPolyline
90
4
70
1
43
0.0
10
854.17416105002417
20
-13.993219141453636
10
854.17416105002417
20
-26.443219141453625
42
-0.99999999999999989
10
851.62416105002421
20
-26.443219141453625
10
851.62416105002421
20
-13.993219141453636
42
-0.99999999999999989
0
ARC
5
213
100
AcDbEntity
8
0
100
AcDbCircle
10
897.65491105002411
20
-21.213219141453635
30
0
40
0.99999999999994316
210
0
220
0
230
1
100
AcDbArc
50
180
51
270
0
LWPOLYLINE
5
214
100
AcDbEntity
8
0
100
AcDbPolyline
90
4
70
1
43
0.0
10
881.61791105002408
20
-27.213219141453635
10
881.61791105002408
20
-13.213219141453635
10
895.61791105002408
20
-13.213219141453635
10
895.61791105002408
20
-27.213219141453635
0
LWPOLYLINE
5
215
100
AcDbEntity
8
0
100
AcDbPolyline
90
4
70
1
43
0.0
10
853.04291105002403
20
5.8367808585463763
10
867.04291105002414
20
5.8367808585463754
10
867.04291105002414
20
-8.1632191414536237
10
853.04291105002403
20
-8.1632191414536219
0
LWPOLYLINE
5
216
100
AcDbEntity
8
0
100
AcDbPolyline
90
8
70
1
43
0.0
10
843.01166105002403
20
-32.763219141453646
10
848.3116610500241
20
-32.763219141453561
42
-0.41421356237309503
10
849.31166105002421
20
-33.763219141453646
10
849.31166105002399
20
-46.263219141453646
42
-0.41421356237309503
10
848.3116610500241
20
-47.263219141453654
10
843.01166105002403
20
-47.26321914145359
42
-0.41421356237309503
10
842.01166105002414
20
-46.263219141453646
10
842.01166105002414
20
-33.763219141453646
42
-0.41421356237309503
0
ARC
5
217
100
AcDbEntity
8
0
100
AcDbCircle
10
899.05491105002409
20
2.0167808585463831
30
0
40
0.99999999999994316
210
0
220
0
230
1
100
AcDbArc
50
180
51
270
0
LWPOLYLINE
5
218
100
AcDbEntity
8
0
100
AcDbPolyline
90
4
70
1
43
0.0
10
871.80541105002419
20
-27.213219141453635
10
857.80541105002408
20
-27.213219141453635
10
857.80541105002408
20
-13.213219141453635
10
871.80541105002419
20
-13.213219141453635
0
LINE
5
219
100
AcDbEntity
8
0
100
AcDbLine
10
846.24091105002412
20
15.916780858546362
30
0
11
895.24491105002414
21
15.916780858546362
31
0
0
ARC
5
220
100
AcDbEntity
8
0
100
AcDbCircle
10
895.24491105002414
20
14.216845858546378
30
0
40
1.6999350000000102
210
0
220
0
230
1
100
AcDbArc
50
-90
51
90
0
LWPOLYLINE
5
221
100
AcDbEntity
8
0
100
AcDbPolyline
90
4
70
1
43
0.0
10
850.66166105002412
20
-46.263219141453646
10
850.66166105002412
20
-32.263219141453646
10
864.66166105002401
20
-32.263219141453646
10
864.66166105002401
20
-46.263219141453646
0
CIRCLE
5
222
100
AcDbEntity
8
0
100
AcDbCircle
10
878.80291105002414
20
-10.683219141453634
30
0
40
2
210
0
220
0
230
1
0
LINE
5
223
100
AcDbEntity
8
0
100
AcDbLine
10
901.85491105002416
20
-80.823219141453592
30
0
11
901.85491105002393
21
-23.213219141453635
31
0
0
LWPOLYLINE
5
224
100
AcDbEntity
8
0
100
AcDbPolyline
90
8
70
1
43
0.0
10
873.3116610500241
20
-33.763219141453646
10
873.3116610500241
20
-46.263219141453646
42
-0.41421356237309503
10
872.31166105002421
20
-47.263219141453654
10
867.01166105002414
20
-47.263219141453732
42
-0.41421356237309503
10
866.01166105002403
20
-46.263219141453646
10
866.01166105002426
20
-33.763219141453646
42
-0.41421356237309503
10
867.01166105002414
20
-32.763219141453646
10
872.31166105002421
20
-32.763219141453703
42
-0.41421356237309503
0
ARC
5
225
100
AcDbEntity
8
0
100
AcDbCircle
10
897.05491105002409
20
9.4169108585463679
30
0
40
1.0000000000000853
210
0
220
0
230
1
100
AcDbArc
50
0
51
90
0
LWPOLYLINE
5
226
100
AcDbEntity
8
0
100
AcDbPolyline
90
4
70
1
43
0.0
10
895.61791105002408
20
-32.263219141453646
10
895.61791105002408
20
-46.263219141453646
10
881.61791105002408
20
-46.263219141453646
10
881.61791105002408
20
-32.263219141453646
0
LINE
5
227
100
AcDbEntity
8
0
100
AcDbLine
10
897.05491105002409
20
10.41691085854637
30
0
11
884.24491105002403
21
10.41691085854637
31
0
0
LWPOLYLINE
5
228
100
AcDbEntity
8
0
100
AcDbPolyline
90
8
70
1
43
0.0
10
844.39291105002417
20
-8.1632191414536237
10
844.39291105002417
20
4.3367808585463763
42
-0.41421356237309503
10
845.39291105002405
20
5.3367808585463763
10
850.69291105002412
20
5.3367808585463195
42
-0.41421356237309503
10
851.69291105002401
20
4.3367808585463763
10
851.69291105002401
20
-8.1632191414536237
42
-0.41421356237309503
10
850.69291105002412
20
-9.1632191414536237
10
845.39291105002405
20
-9.1632191414535669
42
-0.41421356237309503
0
LINE
5
229
100
AcDbEntity
8
0
100
AcDbLine
10
896.65491105002411
20
-12.713219141453635
30
0
11
896.65491105002411
21
-21.213219141453635
31
0
0
ARC
5
230
100
AcDbEntity
8
0
100
AcDbCircle
10
900.85491105002404
20
-10.713219141453635
30
0
40
0.99999999999999867
210
0
220
0
230
1
100
AcDbArc
50
-90
51
0
0
LINE
5
231
100
AcDbEntity
8
0
100
AcDbLine
10
901.85491105002416
20
-10.713219141453635
30
0
11
901.85491105002416
21
0.016780858546383559
31
0
0
ARC
5
232
100
AcDbEntity
8
0
100
AcDbCircle
10
897.65491105002411
20
-12.713219141453635
30
0
40
1.0000000000000009
210
0
220
-0
230
1
100
AcDbArc
50
90
51
180
0
ARC
5
233
100
AcDbEntity
8
0
100
AcDbCircle
10
900.85491105002404
20
-23.213219141453635
30
0
40
0.99999999999994316
210
0
220
0
230
1
100
AcDbArc
50
0
51
90
0
ARC
5
234
100
AcDbEntity
8
0
100
AcDbCircle
10
846.24091105002412
20
14.216845858546378
30
0
40
1.6999349999999835
210
0
220
-0
230
1
100
AcDbArc
50
90
51
270
0
ARC
5
235
100
AcDbEntity
8
0
100
AcDbCircle
10
900.85491105002404
20
0.016780858546383115
30
0
40
1.0000000000000853
210
0
220
-0
230
1
100
AcDbArc
50
0
51
90
0
ARC
5
236
100
AcDbEntity
8
0
100
AcDbCircle
10
884.29616105002412
20
11.466910858546367
30
0
40
1.0512500000000053
210
0
220
0
230
1
100
AcDbArc
50
92.79436205459794
51
267.20563794540209
0
LINE
5
237
100
AcDbEntity
8
0
100
AcDbLine
10
900.85491105002404
20
1.0167808585463831
30
0
11
899.05491105002409
21
1.0167808585463831
31
0
0
LINE
5
238
100
AcDbEntity
8
0
100
AcDbLine
10
857.24091105002401
20
12.516910858546368
30
0
11
846.24091105002412
21
12.516910858546368
31
0
0
CIRCLE
5
239
100
AcDbEntity
8
0
100
AcDbCircle
10
878.80291105002414
20
-10.683219141453634
30
0
40
1.1000000000000001
210
0
220
0
230
1
0
LINE
5
240
100
AcDbEntity
8
0
100
AcDbLine
10
895.24491105002414
20
12.516910858546368
30
0
11
884.24491105002403
21
12.516910858546368
31
0
0
LINE
5
241
100
AcDbEntity
8
0
100
AcDbLine
10
898.0549110500242
20
9.4169108585463679
30
0
11
898.0549110500242
21
2.0167808585463831
31
0
0
LINE
5
242
100
AcDbEntity
8
0
100
AcDbLine
10
900.85491105002404
20
-22.213219141453635
30
0
11
897.65491105002411
21
-22.213219141453635
31
0
0
LWPOLYLINE
5
243
100
AcDbEntity
8
0
100
AcDbPolyline
90
4
70
1
43
0.0
10
753.0304110500241
20
-51.313219141453636
10
767.0304110500241
20
-51.313219141453636
10
767.0304110500241
20
-65.313219141453629
10
753.0304110500241
20
-65.313219141453629
0
LWPOLYLINE
5
244
100
AcDbEntity
8
0
100
AcDbPolyline
90
4
70
1
43
0.0
10
748.26791105002417
20
5.8367808585463763
10
762.26791105002405
20
5.8367808585463754
10
762.26791105002405
20
-8.1632191414536237
10
748.26791105002417
20
-8.1632191414536219
0
LINE
5
245
100
AcDbEntity
8
0
100
AcDbLine
10
801.24091105002412
20
-88.122339141453651
30
0
11
857.24091105002401
21
-88.122339141453651
31
0
0
LWPOLYLINE
5
246
100
AcDbEntity
8
0
100
AcDbPolyline
90
4
70
1
43
0.0
10
850.37416105002421
20
-65.313219141453629
10
836.37416105002421
20
-65.313219141453629
10
836.37416105002421
20
-51.313219141453636
10
850.37416105002421
20
-51.313219141453636
0
LWPOLYLINE
5
247
100
AcDbEntity
8
0
100
AcDbPolyline
90
4
70
1
43
0.0
10
743.50541105002412
20
-32.263219141453646
10
757.50541105002401
20
-32.263219141453646
10
757.50541105002401
20
-46.263219141453646
10
743.50541105002412
20
-46.263219141453646
0
LINE
5
248
100
AcDbEntity
8
0
100
AcDbLine
10
717.24091105002401
20
-88.122339141453651
30
0
11
774.24091105002401
21
-88.122339141453651
31
0
0
LINE
5
249
100
AcDbEntity
8
0
100
AcDbLine
10
857.24091105002401
20
10.41691085854637
30
0
11
799.24091105002401
21
10.41691085854637
31
0
0
LINE
5
250
100
AcDbEntity
8
0
100
AcDbLine
10
774.24091105002401
20
10.41691085854637
30
0
11
717.24091105002401
21
10.41691085854637
31
0
0
LWPOLYLINE
5
251
100
AcDbEntity
8
0
100
AcDbPolyline
90
4
70
1
43
0.0
10
800.36791105002408
20
-8.1632191414536237
10
786.36791105002419
20
-8.1632191414536219
10
786.36791105002419
20
5.8367808585463763
10
800.36791105002408
20
5.8367808585463754
0
LWPOLYLINE
5
252
100
AcDbEntity
8
0
100
AcDbPolyline
90
4
70
1
43
0.0
10
795.60541105002414
20
-32.263219141453646
10
795.60541105002414
20
-46.263219141453646
10
781.60541105002403
20
-46.263219141453646
10
781.60541105002403
20
-32.263219141453646
0
LWPOLYLINE
5
253
100
AcDbEntity
8
0
100
AcDbPolyline
90
4
70
1
43
0.0
10
776.55541105002408
20
-32.263219141453646
10
776.55541105002408
20
-46.263219141453646
10
762.55541105002408
20
-46.263219141453646
10
762.55541105002408
20
-32.263219141453646
0
LWPOLYLINE
5
254
100
AcDbEntity
8
0
100
AcDbPolyline
90
4
70
1
43
0.0
10
824.46791105002421
20
5.8367808585463763
10
838.4679110500241
20
5.8367808585463754
10
838.4679110500241
20
-8.1632191414536237
10
824.46791105002421
20
-8.1632191414536219
0
LWPOLYLINE
5
255
100
AcDbEntity
8
0
100
AcDbPolyline
90
4
70
1
43
0.0
10
857.51791105002417
20
-70.363219141453627
10
857.51791105002417
20
-84.363219141453641
10
843.51791105002405
20
-84.363219141453641
10
843.51791105002405
20
-70.363219141453627
0
LWPOLYLINE
5
256
100
AcDbEntity
8
0
100
AcDbPolyline
90
4
70
1
43
0.0
10
862.56791105002412
20
-70.363219141453627
10
876.56791105002412
20
-70.363219141453627
10
876.56791105002412
20
-84.363219141453641
10
862.56791105002412
20
-84.363219141453641
0
LWPOLYLINE
5
257
100
AcDbEntity
8
0
100
AcDbPolyline
90
4
70
1
43
0.0
10
895.61791105002408
20
-65.313219141453629
10
881.61791105002408
20
-65.313219141453629
10
881.61791105002408
20
-51.313219141453636
10
895.61791105002408
20
-51.313219141453636
0
ARC
5
258
100
AcDbEntity
8
0
100
AcDbCircle
10
846.24091105002412
20
-91.922779141453631
30
0
40
1.6999349999999971
210
0
220
-0
230
1
100
AcDbArc
50
89.914451938301383
51
270.08554806169866
0
LWPOLYLINE
5
259
100
AcDbEntity
8
0
100
AcDbPolyline
90
4
70
1
43
0.0
10
881.61791105002408
20
-70.363219141453627
10
895.61791105002408
20
-70.363219141453627
10
895.61791105002408
20
-84.363219141453641
10
881.61791105002408
20
-84.363219141453641
0
LWPOLYLINE
5
260
100
AcDbEntity
8
0
100
AcDbPolyline
90
4
70
1
43
0.0
10
805.41791105002403
20
-8.1632191414536219
10
805.41791105002403
20
5.8367808585463763
10
819.41791105002403
20
5.8367808585463754
10
819.41791105002403
20
-8.1632191414536237
0
LINE
5
261
100
AcDbEntity
8
0
100
AcDbLine
10
801.24091105002412
20
12.516910858546368
30
0
11
799.24091105002401
21
12.516910858546368
31
0
0
LWPOLYLINE
5
262
100
AcDbEntity
8
0
100
AcDbPolyline
90
4
70
1
43
0.0
10
814.65541105002421
20
-32.263219141453646
10
814.65541105002421
20
-46.263219141453646
10
800.6554110500241
20
-46.263219141453646
10
800.6554110500241
20
-32.263219141453646
0
ARC
5
263
100
AcDbEntity
8
0
100
AcDbCircle
10
801.24091105002412
20
14.216845858546378
30
0
40
1.6999350000000102
210
0
220
0
230
1
100
AcDbArc
50
-90
51
90
0
LINE
5
264
100
AcDbEntity
8
0
100
AcDbLine
10
884.24491105002403
20
-88.122339141453651
30
0
11
896.11423411130647
21
-88.122339141453651
31
0
0
LINE
5
265
100
AcDbEntity
8
0
100
AcDbLine
10
846.24091105002412
20
-93.623219141453632
30
0
11
895.24491105002414
21
-93.623219141453632
31
0
0
LWPOLYLINE
5
266
100
AcDbEntity
8
0
100
AcDbPolyline
90
4
70
1
43
0.0
10
862.56791105002412
20
-51.313219141453636
10
876.56791105002412
20
-51.313219141453636
10
876.56791105002412
20
-65.313219141453629
10
862.56791105002412
20
-65.313219141453629
0
ARC
5
267
100
AcDbEntity
8
0
100
AcDbCircle
10
900.05491105002363
20
-83.823219141453578
30
0
40
1.9999999999999929
210
0
220
-0
230
1
100
AcDbArc
50
90
51
180
0
CIRCLE
5
268
100
AcDbEntity
8
0
100
AcDbCircle
10
878.85541105002403
20
-67.853219141453636
30
0
40
1.1000000000000001
210
0
220
0
230
1
0
ARC
5
269
100
AcDbEntity
8
0
100
AcDbCircle
10
895.24491105002414
20
-91.922779141453631
30
0
40
1.6999349999999971
210
0
220
0
230
1
100
AcDbArc
50
-90.08554806170244
51
90.085548061702468
0
LWPOLYLINE
5
270
100
AcDbEntity
8
0
100
AcDbPolyline
90
4
70
1
43
0.0
10
828.94291105002412
20
-27.213219141453635
10
814.94291105002401
20
-27.213219141453635
10
814.94291105002401
20
-13.213219141453635
10
828.94291105002412
20
-13.213219141453635
0
CIRCLE
5
271
100
AcDbEntity
8
0
100
AcDbCircle
10
793.37291105002407
20
-10.483219141453645
30
0
40
2
210
0
220
0
230
1
0
LWPOLYLINE
5
272
100
AcDbEntity
8
0
100
AcDbPolyline
90
4
70
1
43
0.0
10
819.70541105002417
20
-46.263219141453646
10
819.70541105002417
20
-32.263219141453646
10
833.70541105002417
20
-32.263219141453646
10
833.70541105002417
20
-46.263219141453646
0
ARC
5
273
100
AcDbEntity
8
0
100
AcDbCircle
10
799.29216105002411
20
11.466910858546367
30
0
40
1.0512500000000053
210
0
220
0
230
1
100
AcDbArc
50
92.79436205459794
51
267.20563794540209
0
LWPOLYLINE
5
274
100
AcDbEntity
8
0
100
AcDbPolyline
90
4
70
1
43
0.0
10
795.89291105002417
20
-27.213219141453635
10
795.89291105002417
20
-13.213219141453635
10
809.89291105002405
20
-13.213219141453635
10
809.89291105002405
20
-27.213219141453635
0
LINE
5
275
100
AcDbEntity
8
0
100
AcDbLine
10
763.24091105002412
20
15.916780858546362
30
0
11
801.24091105002412
21
15.916780858546362
31
0
0
LINE
5
276
100
AcDbEntity
8
0
100
AcDbLine
10
884.24491105002403
20
-90.222339141453631
30
0
11
895.24237212912408
21
-90.222339141453631
31
0
0
LINE
5
277
100
AcDbEntity
8
0
100
AcDbLine
10
900.05491105002363
20
-81.823219141453592
30
0
11
900.85491105002393
21
-81.823219141453592
31
0
0
LINE
5
278
100
AcDbEntity
8
0
100
AcDbLine
10
846.24344997102412
20
-90.222339141453631
30
0
11
857.24091105002401
21
-90.222339141453631
31
0
0
LINE
5
279
100
AcDbEntity
8
0
100
AcDbLine
10
898.0549110500242
20
-86.123219141453617
30
0
11
898.05491105002363
21
-83.82321914145372
31
0
0
ARC
5
280
100
AcDbEntity
8
0
100
AcDbCircle
10
884.29616105002412
20
-89.172339141453634
30
0
40
1.0512499999999898
210
0
220
0
230
1
100
AcDbArc
50
92.794362054597997
51
267.20563794540209
0
CIRCLE
5
281
100
AcDbEntity
8
0
100
AcDbCircle
10
878.85541105002403
20
-67.853219141453636
30
0
40
2
210
0
220
0
230
1
0
ARC
5
282
100
AcDbEntity
8
0
100
AcDbCircle
10
900.85491105002393
20
-80.823219141453592
30
0
40
0.99999999999999645
210
0
220
0
230
1
100
AcDbArc
50
-90
51
0
0
ARC
5
283
100
AcDbEntity
8
0
100
AcDbCircle
10
857.18966105002414
20
-89.172339141453634
30
0
40
1.0512500000000007
210
0
220
0
230
1
100
AcDbArc
50
-87.205637945414438
51
87.205637945414381
0
ARC
5
284
100
AcDbEntity
8
0
100
AcDbCircle
10
896.0549110500242
20
-86.123219141453617
30
0
40
1.9999999999999929
210
0
220
0
230
1
100
AcDbArc
50
-90
51
0
0
ARC
5
285
100
AcDbEntity
8
0
100
AcDbCircle
10
690.18966105002403
20
-89.172339141453634
30
0
40
1.0512500000000007
210
0
220
0
230
1
100
AcDbArc
50
-87.205637945408213
51
87.205637945408199
0
LWPOLYLINE
5
286
100
AcDbEntity
8
0
100
AcDbPolyline
90
4
70
1
43
0.0
10
676.83041105002405
20
-51.313219141453636
10
690.83041105002405
20
-51.313219141453636
10
690.83041105002405
20
-65.313219141453629
10
676.83041105002405
20
-65.313219141453629
0
LINE
5
287
100
AcDbEntity
8
0
100
AcDbLine
10
679.24344997102412
20
-90.222339141453631
30
0
11
690.24091105002401
21
-90.222339141453631
31
0
0
LWPOLYLINE
5
288
100
AcDbEntity
8
0
100
AcDbPolyline
90
4
70
1
43
0.0
10
676.54291105002403
20
-13.213219141453635
10
676.54291105002403
20
-27.213219141453635
10
662.54291105002403
20
-27.213219141453635
10
662.54291105002403
20
-13.213219141453635
0
LWPOLYLINE
5
289
100
AcDbEntity
8
0
100
AcDbPolyline
90
4
70
1
43
0.0
10
705.77391105002425
20
-71.413254141453635
42
-0.99999999999999989
10
708.32391105002421
20
-71.413254141453635
10
708.32391105002432
20
-83.863254141453638
42
-0.99999999999999989
10
705.77391105002403
20
-83.863254141453638
0
LWPOLYLINE
5
290
100
AcDbEntity
8
0
100
AcDbPolyline
90
4
70
1
43
0.0
10
717.31166105002421
20
-84.363219141453641
10
717.31166105002421
20
-70.363219141453627
10
731.3116610500241
20
-70.363219141453627
10
731.3116610500241
20
-84.363219141453641
0
LWPOLYLINE
5
291
100
AcDbEntity
8
0
100
AcDbPolyline
90
4
70
1
43
0.0
10
728.93041105002408
20
-65.313219141453629
10
714.93041105002408
20
-65.313219141453629
10
714.93041105002408
20
-51.313219141453636
10
728.93041105002408
20
-51.313219141453636
0
ARC
5
292
100
AcDbEntity
8
0
100
AcDbCircle
10
679.24091105002401
20
14.216845858546378
30
0
40
1.6999349999999835
210
0
220
-0
230
1
100
AcDbArc
50
90
51
270
0
LWPOLYLINE
5
293
100
AcDbEntity
8
0
100
AcDbPolyline
90
4
70
1
43
0.0
10
719.4054110500241
20
-46.263219141453646
10
705.40541105002421
20
-46.263219141453646
10
705.40541105002421
20
-32.263219141453646
10
719.4054110500241
20
-32.263219141453646
0
LWPOLYLINE
5
294
100
AcDbEntity
8
0
100
AcDbPolyline
90
4
70
1
43
0.0
10
700.35541105002403
20
-46.263219141453646
10
686.35541105002403
20
-46.263219141453646
10
686.35541105002403
20
-32.263219141453646
10
700.35541105002403
20
-32.263219141453646
0
LWPOLYLINE
5
295
100
AcDbEntity
8
0
100
AcDbPolyline
90
4
70
1
43
0.0
10
709.88041105002412
20
-65.313219141453629
10
695.88041105002401
20
-65.313219141453629
10
695.88041105002401
20
-51.313219141453636
10
709.88041105002412
20
-51.313219141453636
0
ARC
5
296
100
AcDbEntity
8
0
100
AcDbCircle
10
679.24091105002401
20
-91.922779141453631
30
0
40
1.6999349999999971
210
0
220
-0
230
1
100
AcDbArc
50
89.914451938297546
51
270.08554806170247
0
LWPOLYLINE
5
297
100
AcDbEntity
8
0
100
AcDbPolyline
90
8
70
1
43
0.0
10
678.01166105002403
20
-70.363219141453627
10
678.01166105002392
20
-82.863219141453627
42
-0.41421356237309503
10
677.01166105002403
20
-83.863219141453627
10
671.61166105002405
20
-83.86321914145357
42
-0.41421356237309503
10
670.61166105002417
20
-82.863219141453627
10
670.61166105002417
20
-70.363219141453627
42
-0.41421356237309503
10
671.61166105002405
20
-69.363219141453641
10
677.01166105002403
20
-69.363219141453541
42
-0.41421356237309503
0
LWPOLYLINE
5
298
100
AcDbEntity
8
0
100
AcDbPolyline
90
4
70
1
43
0.0
10
747.98041105002414
20
-65.313219141453629
10
733.98041105002403
20
-65.313219141453629
10
733.98041105002403
20
-51.313219141453636
10
747.98041105002414
20
-51.313219141453636
0
LINE
5
299
100
AcDbEntity
8
0
100
AcDbLine
10
679.24091105002401
20
-93.623219141453632
30
0
11
728.24091105002412
21
-93.623219141453632
31
0
0
CIRCLE
5
300
100
AcDbEntity
8
0
100
AcDbCircle
10
679.07291105002412
20
-10.683219141453634
30
0
40
2
210
0
220
0
230
1
0
CIRCLE
5
301
100
AcDbEntity
8
0
100
AcDbCircle
10
679.07291105002412
20
-10.683219141453634
30
0
40
1.1000000000000001
210
0
220
0
230
1
0
LWPOLYLINE
5
302
100
AcDbEntity
8
0
100
AcDbPolyline
90
4
70
1
43
0.0
10
710.16791105002414
20
-8.1632191414536219
10
710.16791105002414
20
5.8367808585463763
10
724.16791105002403
20
5.8367808585463754
10
724.16791105002403
20
-8.1632191414536237
0
LWPOLYLINE
5
303
100
AcDbEntity
8
0
100
AcDbPolyline
90
4
70
1
43
0.0
10
686.06791105002401
20
5.8367808585463754
10
686.06791105002401
20
-8.1632191414536237
10
672.06791105002412
20
-8.1632191414536219
10
672.06791105002412
20
5.8367808585463763
0
LWPOLYLINE
5
304
100
AcDbEntity
8
0
100
AcDbPolyline
90
4
70
1
43
0.0
10
681.5929110500241
20
-13.213219141453635
10
695.59291105002421
20
-13.213219141453635
10
695.59291105002421
20
-27.213219141453635
10
681.5929110500241
20
-27.213219141453635
0
LWPOLYLINE
5
305
100
AcDbEntity
8
0
100
AcDbPolyline
90
4
70
1
43
0.0
10
714.64291105002405
20
-13.213219141453635
10
714.64291105002405
20
-27.213219141453635
10
700.64291105002417
20
-27.213219141453635
10
700.64291105002417
20
-13.213219141453635
0
LINE
5
306
100
AcDbEntity
8
0
100
AcDbLine
10
717.24091105002401
20
-90.222339141453631
30
0
11
728.2403803103241
21
-90.222339141453631
31
0
0
ARC
5
307
100
AcDbEntity
8
0
100
AcDbCircle
10
690.18966105002403
20
11.466910858546367
30
0
40
1.051249999999994
210
0
220
0
230
1
100
AcDbArc
50
-87.205637945408213
51
87.205637945408256
0
LWPOLYLINE
5
308
100
AcDbEntity
8
0
100
AcDbPolyline
90
4
70
1
43
0.0
10
691.11791105002408
20
5.8367808585463763
10
705.11791105002419
20
5.8367808585463754
10
705.11791105002419
20
-8.1632191414536237
10
691.11791105002408
20
-8.1632191414536219
0
LWPOLYLINE
5
309
100
AcDbEntity
8
0
100
AcDbPolyline
90
4
70
1
43
0.0
10
738.45541105002417
20
-46.263219141453646
10
724.45541105002405
20
-46.263219141453646
10
724.45541105002405
20
-32.263219141453646
10
738.45541105002417
20
-32.263219141453646
0
ARC
5
310
100
AcDbEntity
8
0
100
AcDbCircle
10
728.24091105002412
20
-91.922779141453631
30
0
40
1.6999350000000018
210
0
220
0
230
1
100
AcDbArc
50
-90.051739523301777
51
90.017883105501951
0
LINE
5
311
100
AcDbEntity
8
0
100
AcDbLine
10
690.24091105002401
20
12.516910858546368
30
0
11
679.24091105002401
21
12.516910858546368
31
0
0
ARC
5
312
100
AcDbEntity
8
0
100
AcDbCircle
10
717.29216105002411
20
-89.172339141453634
30
0
40
1.0512499999999898
210
0
220
0
230
1
100
AcDbArc
50
92.794362054597997
51
267.20563794540209
0
ARC
5
313
100
AcDbEntity
8
0
100
AcDbCircle
10
728.24091105002412
20
14.216845858546378
30
0
40
1.6999350000000102
210
0
220
0
230
1
100
AcDbArc
50
-90
51
90
0
LWPOLYLINE
5
314
100
AcDbEntity
8
0
100
AcDbPolyline
90
4
70
1
43
0.0
10
729.2179110500241
20
5.8367808585463763
10
743.21791105002421
20
5.8367808585463754
10
743.21791105002421
20
-8.1632191414536237
10
729.2179110500241
20
-8.1632191414536219
0
LWPOLYLINE
5
315
100
AcDbEntity
8
0
100
AcDbPolyline
90
4
70
1
43
0.0
10
738.74291105002408
20
-27.213219141453635
10
738.74291105002408
20
-13.213219141453635
10
752.74291105002408
20
-13.213219141453635
10
752.74291105002408
20
-27.213219141453635
0
LWPOLYLINE
5
316
100
AcDbEntity
8
0
100
AcDbPolyline
90
4
70
1
43
0.0
10
647.9679110500241
20
-8.1632191414536237
10
633.9679110500241
20
-8.1632191414536219
10
633.9679110500241
20
5.8367808585463763
10
647.9679110500241
20
5.8367808585463754
0
LWPOLYLINE
5
317
100
AcDbEntity
8
0
100
AcDbPolyline
90
4
70
1
43
0.0
10
667.01791105002417
20
5.8367808585463754
10
667.01791105002417
20
-8.1632191414536237
10
653.01791105002405
20
-8.1632191414536219
10
653.01791105002405
20
5.8367808585463763
0
CIRCLE
5
318
100
AcDbEntity
8
0
100
AcDbCircle
10
594.63291105002418
20
-10.683219141453634
30
0
40
1.1000000000000001
210
0
220
0
230
1
0
LWPOLYLINE
5
319
100
AcDbEntity
8
0
100
AcDbPolyline
90
4
70
1
43
0.0
10
629.20541105002405
20
-32.263219141453646
10
643.20541105002405
20
-32.263219141453646
10
643.20541105002405
20
-46.263219141453646
10
629.20541105002405
20
-46.263219141453646
0
LWPOLYLINE
5
320
100
AcDbEntity
8
0
100
AcDbPolyline
90
4
70
1
43
0.0
10
614.63041105002401
20
-13.213219141453635
10
614.63041105002401
20
-27.213219141453635
10
600.63041105002401
20
-27.213219141453635
10
600.63041105002401
20
-13.213219141453635
0
LWPOLYLINE
5
321
100
AcDbEntity
8
0
100
AcDbPolyline
90
4
70
1
43
0.0
10
681.30541105002408
20
-32.263219141453646
10
681.30541105002408
20
-46.263219141453646
10
667.30541105002419
20
-46.263219141453646
10
667.30541105002419
20
-32.263219141453646
0
LWPOLYLINE
5
322
100
AcDbEntity
8
0
100
AcDbPolyline
90
4
70
1
43
0.0
10
648.25541105002401
20
-32.263219141453646
10
662.25541105002412
20
-32.263219141453646
10
662.25541105002412
20
-46.263219141453646
10
648.25541105002401
20
-46.263219141453646
0
LWPOLYLINE
5
323
100
AcDbEntity
8
0
100
AcDbPolyline
90
4
70
1
43
0.0
10
657.49291105002408
20
-27.213219141453635
10
643.49291105002408
20
-27.213219141453635
10
643.49291105002408
20
-13.213219141453635
10
657.49291105002408
20
-13.213219141453635
0
LWPOLYLINE
5
324
100
AcDbEntity
8
0
100
AcDbPolyline
90
4
70
1
43
0.0
10
618.26041105002423
20
-13.993219141453636
42
-0.99999999999999989
10
620.81041105002419
20
-13.993219141453636
10
620.81041105002419
20
-26.443219141453625
42
-0.99999999999999989
10
618.26041105002423
20
-26.443219141453625
0
LWPOLYLINE
5
325
100
AcDbEntity
8
0
100
AcDbPolyline
90
4
70
1
43
0.0
10
614.91791105002403
20
-8.1632191414536219
10
614.91791105002403
20
5.8367808585463763
10
628.91791105002403
20
5.8367808585463754
10
628.91791105002403
20
-8.1632191414536237
0
ARC
5
326
100
AcDbEntity
8
0
100
AcDbCircle
10
717.29216105002411
20
11.466910858546367
30
0
40
1.0512500000000053
210
0
220
0
230
1
100
AcDbArc
50
92.79436205459794
51
267.20563794540209
0
LWPOLYLINE
5
327
100
AcDbEntity
8
0
100
AcDbPolyline
90
4
70
1
43
0.0
10
719.69291105002401
20
-27.213219141453635
10
719.69291105002401
20
-13.213219141453635
10
733.69291105002401
20
-13.213219141453635
10
733.69291105002401
20
-27.213219141453635
0
LWPOLYLINE
5
328
100
AcDbEntity
8
0
100
AcDbPolyline
90
4
70
1
43
0.0
10
595.86791105002408
20
-8.1632191414536219
10
595.86791105002408
20
5.8367808585463763
10
609.86791105002408
20
5.8367808585463754
10
609.86791105002408
20
-8.1632191414536237
0
ARC
5
329
100
AcDbEntity
8
0
100
AcDbCircle
10
596.24091105002412
20
14.216845858546378
30
0
40
1.6999349999999835
210
0
220
-0
230
1
100
AcDbArc
50
90
51
270
0
ARC
5
330
100
AcDbEntity
8
0
100
AcDbCircle
10
593.63091105002411
20
8.4169108585463679
30
0
40
2.0000000000000009
210
0
220
-0
230
1
100
AcDbArc
50
90
51
180
0
LWPOLYLINE
5
331
100
AcDbEntity
8
0
100
AcDbPolyline
90
4
70
1
43
0.0
10
638.44291105002401
20
-13.213219141453635
10
638.44291105002401
20
-27.213219141453635
10
624.44291105002412
20
-27.213219141453635
10
624.44291105002412
20
-13.213219141453635
0
ARC
5
332
100
AcDbEntity
8
0
100
AcDbCircle
10
645.24091105002401
20
14.216845858546378
30
0
40
1.6999350000000102
210
0
220
0
230
1
100
AcDbArc
50
-90
51
90
0
LINE
5
333
100
AcDbEntity
8
0
100
AcDbLine
10
728.24091105002412
20
12.516910858546368
30
0
11
717.24091105002401
21
12.516910858546368
31
0
0
LINE
5
334
100
AcDbEntity
8
0
100
AcDbLine
10
645.24091105002401
20
12.516910858546368
30
0
11
634.24091105002401
21
12.516910858546368
31
0
0
ARC
5
335
100
AcDbEntity
8
0
100
AcDbCircle
10
634.29216105002399
20
11.466910858546367
30
0
40
1.0512500000000018
210
0
220
0
230
1
100
AcDbArc
50
92.794362054591772
51
267.20563794540823
0
LINE
5
336
100
AcDbEntity
8
0
100
AcDbLine
10
679.24091105002401
20
15.916780858546362
30
0
11
728.24091105002412
21
15.916780858546362
31
0
0
CIRCLE
5
337
100
AcDbEntity
8
0
100
AcDbCircle
10
594.63291105002418
20
-10.683219141453634
30
0
40
2
210
0
220
0
230
1
0
ARC
5
338
100
AcDbEntity
8
0
100
AcDbCircle
10
607.18966105002414
20
11.466910858546367
30
0
40
1.051249999999994
210
0
220
0
230
1
100
AcDbArc
50
-87.205637945414438
51
87.205637945414438
0
LINE
5
339
100
AcDbEntity
8
0
100
AcDbLine
10
607.24091105002401
20
10.41691085854637
30
0
11
593.63091105002411
21
10.41691085854637
31
0
0
LINE
5
340
100
AcDbEntity
8
0
100
AcDbLine
10
607.24091105002401
20
12.516910858546368
30
0
11
596.24091105002412
21
12.516910858546368
31
0
0
LWPOLYLINE
5
341
100
AcDbEntity
8
0
100
AcDbPolyline
90
8
70
1
43
0.0
10
606.42416105002417
20
-65.313219141453629
42
-0.41421356237309503
10
605.42416105002405
20
-66.313219141453629
10
600.12416105002421
20
-66.313219141453644
42
-0.41421356237309503
10
599.1241610500241
20
-65.313219141453629
10
599.1241610500241
20
-52.813219141453629
42
-0.41421356237309503
10
600.12416105002421
20
-51.813219141453636
10
605.42416105002405
20
-51.813219141453615
42
-0.41421356237309503
10
606.42416105002417
20
-52.813219141453629
0
LWPOLYLINE
5
342
100
AcDbEntity
8
0
100
AcDbPolyline
90
4
70
1
43
0.0
10
657.78041105002421
20
-51.313219141453636
10
671.7804110500241
20
-51.313219141453636
10
671.7804110500241
20
-65.313219141453629
10
657.78041105002421
20
-65.313219141453629
0
ARC
5
343
100
AcDbEntity
8
0
100
AcDbCircle
10
607.18966105002414
20
-89.172339141453634
30
0
40
1.0512500000000007
210
0
220
0
230
1
100
AcDbArc
50
-87.205637945414438
51
87.205637945414381
0
LWPOLYLINE
5
344
100
AcDbEntity
8
0
100
AcDbPolyline
90
4
70
1
43
0.0
10
652.73041105002403
20
-51.313219141453636
10
652.73041105002403
20
-65.313219141453629
10
638.73041105002403
20
-65.313219141453629
10
638.73041105002403
20
-51.313219141453636
0
CIRCLE
5
345
100
AcDbEntity
8
0
100
AcDbCircle
10
664.7754110500241
20
-67.633219141453637
30
0
40
2
210
0
220
0
230
1
0
LWPOLYLINE
5
346
100
AcDbEntity
8
0
100
AcDbPolyline
90
4
70
1
43
0.0
10
612.2491610500241
20
-70.363219141453627
10
612.2491610500241
20
-84.363219141453641
10
598.24916105002421
20
-84.363219141453641
10
598.24916105002421
20
-70.363219141453627
0
LWPOLYLINE
5
347
100
AcDbEntity
8
0
100
AcDbPolyline
90
8
70
1
43
0.0
10
624.1241610500241
20
-51.813219141453636
10
629.42416105002405
20
-51.813219141453615
42
-0.41421356237309503
10
630.42416105002405
20
-52.813219141453629
10
630.42416105002405
20
-65.313219141453629
42
-0.41421356237309503
10
629.42416105002405
20
-66.313219141453629
10
624.1241610500241
20
-66.313219141453644
42
-0.41421356237309503
10
623.1241610500241
20
-65.313219141453629
10
623.1241610500241
20
-52.813219141453629
42
-0.41421356237309503
0
ARC
5
348
100
AcDbEntity
8
0
100
AcDbCircle
10
596.24091105002412
20
-91.922779141453631
30
0
40
1.6999349999999971
210
0
220
-0
230
1
100
AcDbArc
50
89.914451938301383
51
270.08554806169866
0
LWPOLYLINE
5
349
100
AcDbEntity
8
0
100
AcDbPolyline
90
4
70
1
43
0.0
10
622.0616610500241
20
-84.363219141453641
10
622.0616610500241
20
-70.363219141453627
10
636.06166105002421
20
-70.363219141453627
10
636.06166105002421
20
-84.363219141453641
0
CIRCLE
5
350
100
AcDbEntity
8
0
100
AcDbCircle
10
664.7754110500241
20
-67.633219141453637
30
0
40
1.1000000000000001
210
0
220
0
230
1
0
LINE
5
351
100
AcDbEntity
8
0
100
AcDbLine
10
634.24091105002401
20
-90.222339141453631
30
0
11
645.23837212912417
21
-90.222339141453631
31
0
0
LWPOLYLINE
5
352
100
AcDbEntity
8
0
100
AcDbPolyline
90
4
70
1
43
0.0
10
659.8741610500241
20
-70.363219141453627
10
659.8741610500241
20
-84.363219141453641
10
645.87416105002421
20
-84.363219141453641
10
645.87416105002421
20
-70.363219141453627
0
CIRCLE
5
353
100
AcDbEntity
8
0
100
AcDbCircle
10
594.63541105002412
20
-67.853219141453636
30
0
40
2
210
0
220
0
230
1
0
LINE
5
354
100
AcDbEntity
8
0
100
AcDbLine
10
593.63091105002411
20
-88.122339141453651
30
0
11
607.24091105002401
21
-88.122339141453651
31
0
0
LWPOLYLINE
5
355
100
AcDbEntity
8
0
100
AcDbPolyline
90
4
70
1
43
0.0
10
621.77416105002408
20
-51.313219141453636
10
621.77416105002408
20
-65.313219141453629
10
607.77416105002408
20
-65.313219141453629
10
607.77416105002408
20
-51.313219141453636
0
ARC
5
356
100
AcDbEntity
8
0
100
AcDbCircle
10
593.63091105002411
20
-86.122339141453637
30
0
40
1.9999999999999574
210
0
220
0
230
1
100
AcDbArc
50
180
51
270
0
LINE
5
357
100
AcDbEntity
8
0
100
AcDbLine
10
596.24091105002412
20
15.916780858546362
30
0
11
645.24091105002401
21
15.916780858546362
31
0
0
LWPOLYLINE
5
358
100
AcDbEntity
8
0
100
AcDbPolyline
90
4
70
1
43
0.0
10
617.01166105002403
20
-46.263219141453646
10
603.01166105002403
20
-46.263219141453646
10
603.01166105002403
20
-32.263219141453646
10
617.01166105002403
20
-32.263219141453646
0
ARC
5
359
100
AcDbEntity
8
0
100
AcDbCircle
10
645.24091105002401
20
-91.922779141453631
30
0
40
1.6999349999999971
210
0
220
0
230
1
100
AcDbArc
50
-90.08554806170244
51
90.085548061702468
0
ARC
5
360
100
AcDbEntity
8
0
100
AcDbCircle
10
634.29216105002399
20
-89.172339141453634
30
0
40
1.0512499999999863
210
0
220
0
230
1
100
AcDbArc
50
92.794362054591815
51
267.20563794540823
0
CIRCLE
5
361
100
AcDbEntity
8
0
100
AcDbCircle
10
594.63541105002412
20
-67.853219141453636
30
0
40
1.1000000000000001
210
0
220
0
230
1
0
LINE
5
362
100
AcDbEntity
8
0
100
AcDbLine
10
763.24344997102412
20
-90.222339141453631
30
0
11
774.24091105002401
21
-90.222339141453631
31
0
0
LWPOLYLINE
5
363
100
AcDbEntity
8
0
100
AcDbPolyline
90
8
70
1
43
0.0
10
771.61166105002405
20
-83.86321914145357
42
-0.41421356237309503
10
770.61166105002417
20
-82.863219141453627
10
770.61166105002417
20
-70.363219141453627
42
-0.41421356237309503
10
771.61166105002405
20
-69.363219141453641
10
777.01166105002414
20
-69.363219141453683
42
-0.41421356237309503
10
778.01166105002403
20
-70.363219141453627
10
778.01166105002403
20
-82.863219141453627
42
-0.41421356237309503
10
777.01166105002414
20
-83.863219141453627
0
LWPOLYLINE
5
364
100
AcDbEntity
8
0
100
AcDbPolyline
90
4
70
1
43
0.0
10
826.5616610500241
20
-70.363219141453627
10
826.5616610500241
20
-84.363219141453641
10
812.56166105002421
20
-84.363219141453641
10
812.56166105002421
20
-70.363219141453627
0
LWPOLYLINE
5
365
100
AcDbEntity
8
0
100
AcDbPolyline
90
4
70
1
43
0.0
10
791.13041105002412
20
-51.313219141453636
10
805.13041105002401
20
-51.313219141453636
10
805.13041105002401
20
-65.313219141453629
10
791.13041105002412
20
-65.313219141453629
0
LWPOLYLINE
5
366
100
AcDbEntity
8
0
100
AcDbPolyline
90
4
70
1
43
0.0
10
788.7491610500241
20
-84.363219141453641
10
788.7491610500241
20
-70.363219141453627
10
802.74916105002421
20
-70.363219141453627
10
802.74916105002421
20
-84.363219141453641
0
CIRCLE
5
367
100
AcDbEntity
8
0
100
AcDbCircle
10
788.60541105002414
20
-67.83321914145364
30
0
40
1.1000000000000001
210
0
220
0
230
1
0
ARC
5
368
100
AcDbEntity
8
0
100
AcDbCircle
10
812.24091105002401
20
-91.922779141453631
30
0
40
1.6999349999999971
210
0
220
0
230
1
100
AcDbArc
50
-90.085548061698645
51
90.085548061698645
0
LWPOLYLINE
5
369
100
AcDbEntity
8
0
100
AcDbPolyline
90
4
70
1
43
0.0
10
786.08041105002417
20
-51.313219141453636
10
786.08041105002417
20
-65.313219141453629
10
772.08041105002405
20
-65.313219141453629
10
772.08041105002405
20
-51.313219141453636
0
ARC
5
370
100
AcDbEntity
8
0
100
AcDbCircle
10
763.24091105002412
20
-91.922779141453631
30
0
40
1.6999349999999971
210
0
220
-0
230
1
100
AcDbArc
50
89.914451938301383
51
270.08554806169866
0
LWPOLYLINE
5
371
100
AcDbEntity
8
0
100
AcDbPolyline
90
4
70
1
43
0.0
10
810.18041105002408
20
-51.313219141453636
10
824.18041105002419
20
-51.313219141453636
10
824.18041105002419
20
-65.313219141453629
10
810.18041105002408
20
-65.313219141453629
0
LINE
5
372
100
AcDbEntity
8
0
100
AcDbLine
10
634.24091105002401
20
-88.122339141453651
30
0
11
690.24091105002401
21
-88.122339141453651
31
0
0
LINE
5
373
100
AcDbEntity
8
0
100
AcDbLine
10
591.63091105002411
20
8.4169108585463679
30
0
11
591.63091105002411
21
-86.122339141453637
31
0
0
LINE
5
374
100
AcDbEntity
8
0
100
AcDbLine
10
596.24344997102401
20
-90.222339141453631
30
0
11
607.24091105002401
21
-90.222339141453631
31
0
0
ARC
5
375
100
AcDbEntity
8
0
100
AcDbCircle
10
774.18966105002414
20
-89.172339141453634
30
0
40
1.0512500000000007
210
0
220
0
230
1
100
AcDbArc
50
-87.205637945414438
51
87.205637945414381
0
CIRCLE
5
376
100
AcDbEntity
8
0
100
AcDbCircle
10
788.60541105002414
20
-67.83321914145364
30
0
40
2
210
0
220
0
230
1
0
LINE
5
377
100
AcDbEntity
8
0
100
AcDbLine
10
690.24091105002401
20
10.41691085854637
30
0
11
634.24091105002401
21
10.41691085854637
31
0
0
LINE
5
378
100
AcDbEntity
8
0
100
AcDbLine
10
596.24091105002412
20
-93.623219141453632
30
0
11
645.24091105002401
21
-93.623219141453632
31
0
0
LINE
5
379
100
AcDbEntity
8
0
100
AcDbLine
10
801.24091105002412
20
-90.222339141453631
30
0
11
812.23837212912417
21
-90.222339141453631
31
0
0
ARC
5
380
100
AcDbEntity
8
0
100
AcDbCircle
10
801.29216105002399
20
-89.172339141453634
30
0
40
1.0512499999999829
210
0
220
0
230
1
100
AcDbArc
50
92.794362054585619
51
267.20563794541442
0
LWPOLYLINE
5
381
100
AcDbEntity
8
0
100
AcDbPolyline
90
4
70
1
43
0.0
10
757.79291105002403
20
-13.213219141453635
10
771.79291105002403
20
-13.213219141453635
10
771.79291105002403
20
-27.213219141453635
10
757.79291105002403
20
-27.213219141453635
0
ARC
5
382
100
AcDbEntity
8
0
100
AcDbCircle
10
763.24091105002412
20
14.216845858546378
30
0
40
1.6999349999999835
210
0
220
-0
230
1
100
AcDbArc
50
90
51
270
0
LWPOLYLINE
5
383
100
AcDbEntity
8
0
100
AcDbPolyline
90
4
70
1
43
0.0
10
767.31791105002401
20
5.8367808585463763
10
781.31791105002412
20
5.8367808585463754
10
781.31791105002412
20
-8.1632191414536237
10
767.31791105002401
20
-8.1632191414536219
0
LWPOLYLINE
5
384
100
AcDbEntity
8
0
100
AcDbPolyline
90
4
70
1
43
0.0
10
790.84291105002421
20
-13.213219141453635
10
790.84291105002421
20
-27.213219141453635
10
776.84291105002421
20
-27.213219141453635
10
776.84291105002421
20
-13.213219141453635
0
ARC
5
385
100
AcDbEntity
8
0
100
AcDbCircle
10
774.18966105002414
20
11.466910858546367
30
0
40
1.051249999999994
210
0
220
0
230
1
100
AcDbArc
50
-87.205637945414438
51
87.205637945414438
0
LINE
5
386
100
AcDbEntity
8
0
100
AcDbLine
10
774.24091105002401
20
12.516910858546368
30
0
11
763.24091105002412
21
12.516910858546368
31
0
0
CIRCLE
5
387
100
AcDbEntity
8
0
100
AcDbCircle
10
793.37291105002407
20
-10.483219141453645
30
0
40
1.1000000000000001
210
0
220
0
230
1
0
LINE
5
388
100
AcDbEntity
8
0
100
AcDbLine
10
763.24091105002412
20
-93.623219141453632
30
0
11
812.24091105002401
21
-93.623219141453632
31
0
0
LWPOLYLINE
5
389
100
AcDbEntity
8
0
100
AcDbPolyline
90
4
70
1
43
0.0
10
-54.202088949975874
20
-8.2332191414536222
10
-54.202088949975874
20
5.9067808585463766
10
-40.062088949975902
20
5.9067808585463775
10
-40.062088949975902
20
-8.233219141453624
0
LWPOLYLINE
5
390
100
AcDbEntity
8
0
100
AcDbPolyline
90
4
70
1
43
0.0
10
-35.152088949975877
20
5.9067808585463766
10
-21.012088949975897
20
5.9067808585463775
10
-21.012088949975897
20
-8.233219141453624
10
-35.152088949975877
20
-8.2332191414536222
0
LWPOLYLINE
5
391
100
AcDbEntity
8
0
100
AcDbPolyline
90
4
70
1
43
0.0
10
-16.102088949975872
20
5.9067808585463766
10
-1.9620889499758931
20
5.9067808585463775
10
-1.9620889499758931
20
-8.233219141453624
10
-16.102088949975872
20
-8.2332191414536222
0
LWPOLYLINE
5
392
100
AcDbEntity
8
0
100
AcDbPolyline
90
4
70
1
43
0.0
10
2.9479110500241301
20
5.9067808585463766
10
17.087911050024111
20
5.9067808585463775
10
17.087911050024111
20
-8.233219141453624
10
2.9479110500241301
20
-8.2332191414536222
0
LWPOLYLINE
5
393
100
AcDbEntity
8
0
100
AcDbPolyline
90
4
70
1
43
0.0
10
21.997911050024133
20
5.9067808585463766
10
36.137911050024115
20
5.9067808585463775
10
36.137911050024115
20
-8.233219141453624
10
21.997911050024133
20
-8.2332191414536222
0
LWPOLYLINE
5
394
100
AcDbEntity
8
0
100
AcDbPolyline
90
4
70
1
43
0.0
10
41.047911050024133
20
5.9067808585463766
10
55.187911050024113
20
5.9067808585463775
10
55.187911050024113
20
-8.233219141453624
10
41.047911050024133
20
-8.2332191414536222
0
LWPOLYLINE
5
395
100
AcDbEntity
8
0
100
AcDbPolyline
90
4
70
1
43
0.0
10
60.097911050024138
20
5.9067808585463766
10
74.23791105002411
20
5.9067808585463775
10
74.23791105002411
20
-8.233219141453624
10
60.097911050024138
20
-8.2332191414536222
0
LWPOLYLINE
5
396
100
AcDbEntity
8
0
100
AcDbPolyline
90
4
70
1
43
0.0
10
79.147911050024135
20
5.9067808585463766
10
93.287911050024121
20
5.9067808585463775
10
93.287911050024121
20
-8.233219141453624
10
79.147911050024135
20
-8.2332191414536222
0
LWPOLYLINE
5
397
100
AcDbEntity
8
0
100
AcDbPolyline
90
4
70
1
43
0.0
10
98.197911050024146
20
5.9067808585463766
10
112.33791105002412
20
5.9067808585463775
10
112.33791105002412
20
-8.233219141453624
10
98.197911050024146
20
-8.2332191414536222
0
LWPOLYLINE
5
398
100
AcDbEntity
8
0
100
AcDbPolyline
90
4
70
1
43
0.0
10
117.24791105002413
20
5.9067808585463766
10
131.38791105002412
20
5.9067808585463775
10
131.38791105002412
20
-8.233219141453624
10
117.24791105002413
20
-8.2332191414536222
0
LWPOLYLINE
5
399
100
AcDbEntity
8
0
100
AcDbPolyline
90
4
70
1
43
0.0
10
136.29791105002414
20
5.9067808585463766
10
150.43791105002413
20
5.9067808585463775
10
150.43791105002413
20
-8.233219141453624
10
136.29791105002414
20
-8.2332191414536222
0
LWPOLYLINE
5
400
100
AcDbEntity
8
0
100
AcDbPolyline
90
4
70
1
43
0.0
10
155.34791105002415
20
5.9067808585463766
10
169.48791105002414
20
5.9067808585463775
10
169.48791105002414
20
-8.233219141453624
10
155.34791105002415
20
-8.2332191414536222
0
LWPOLYLINE
5
401
100
AcDbEntity
8
0
100
AcDbPolyline
90
4
70
1
43
0.0
10
217.11291105002414
20
-8.233219141453624
10
202.97291105002404
20
-8.233219141453624
10
202.97291105002404
20
5.9067808585463766
10
217.11291105002414
20
5.906780858546373
0
LWPOLYLINE
5
402
100
AcDbEntity
8
0
100
AcDbPolyline
90
4
70
1
43
0.0
10
174.39791105002416
20
-8.2332191414536222
10
174.39791105002416
20
5.9067808585463766
10
188.53791105002415
20
5.9067808585463775
10
188.53791105002415
20
-8.233219141453624
0
LWPOLYLINE
5
403
100
AcDbEntity
8
0
100
AcDbPolyline
90
4
70
1
43
0.0
10
231.54791105002417
20
-8.2332191414536222
10
231.54791105002417
20
5.9067808585463766
10
245.68791105002416
20
5.9067808585463775
10
245.68791105002416
20
-8.233219141453624
0
LWPOLYLINE
5
404
100
AcDbEntity
8
0
100
AcDbPolyline
90
4
70
1
43
0.0
10
-35.29958894997597
20
-27.283219141453632
10
-49.439588949975942
20
-27.283219141453632
10
-49.439588949975942
20
-13.143219141453635
10
-35.29958894997597
20
-13.143219141453635
0
LWPOLYLINE
5
405
100
AcDbEntity
8
0
100
AcDbPolyline
90
4
70
1
43
0.0
10
-25.62708894997586
20
-13.143219141453635
10
-11.487088949975915
20
-13.143219141453635
10
-11.487088949975915
20
-27.283219141453632
10
-25.62708894997586
20
-27.283219141453632
0
LWPOLYLINE
5
406
100
AcDbEntity
8
0
100
AcDbPolyline
90
4
70
1
43
0.0
10
-6.5770889499758578
20
-13.143219141453635
10
7.5629110500240877
20
-13.143219141453635
10
7.5629110500240877
20
-27.283219141453632
10
-6.5770889499758578
20
-27.283219141453632
0
LWPOLYLINE
5
407
100
AcDbEntity
8
0
100
AcDbPolyline
90
4
70
1
43
0.0
10
12.472911050024145
20
-13.143219141453635
10
26.612911050024088
20
-13.143219141453635
10
26.612911050024088
20
-27.283219141453632
10
12.472911050024145
20
-27.283219141453632
0
LWPOLYLINE
5
408
100
AcDbEntity
8
0
100
AcDbPolyline
90
4
70
1
43
0.0
10
31.522911050024149
20
-13.143219141453635
10
45.662911050024093
20
-13.143219141453635
10
45.662911050024093
20
-27.283219141453632
10
31.522911050024149
20
-27.283219141453632
0
LWPOLYLINE
5
409
100
AcDbEntity
8
0
100
AcDbPolyline
90
4
70
1
43
0.0
10
50.572911050024146
20
-13.143219141453635
10
64.71291105002409
20
-13.143219141453635
10
64.71291105002409
20
-27.283219141453632
10
50.572911050024146
20
-27.283219141453632
0
LWPOLYLINE
5
410
100
AcDbEntity
8
0
100
AcDbPolyline
90
4
70
1
43
0.0
10
69.622911050024157
20
-13.143219141453635
10
83.762911050024101
20
-13.143219141453635
10
83.762911050024101
20
-27.283219141453632
10
69.622911050024157
20
-27.283219141453632
0
LWPOLYLINE
5
411
100
AcDbEntity
8
0
100
AcDbPolyline
90
4
70
1
43
0.0
10
88.672911050024155
20
-13.143219141453635
10
102.8129110500241
20
-13.143219141453635
10
102.8129110500241
20
-27.283219141453632
10
88.672911050024155
20
-27.283219141453632
0
LWPOLYLINE
5
412
100
AcDbEntity
8
0
100
AcDbPolyline
90
4
70
1
43
0.0
10
107.72291105002417
20
-13.143219141453635
10
121.86291105002411
20
-13.143219141453635
10
121.86291105002411
20
-27.283219141453632
10
107.72291105002417
20
-27.283219141453632
0
LWPOLYLINE
5
413
100
AcDbEntity
8
0
100
AcDbPolyline
90
4
70
1
43
0.0
10
126.77291105002416
20
-13.143219141453635
10
140.91291105002409
20
-13.143219141453635
10
140.91291105002409
20
-27.283219141453632
10
126.77291105002416
20
-27.283219141453632
0
LWPOLYLINE
5
414
100
AcDbEntity
8
0
100
AcDbPolyline
90
4
70
1
43
0.0
10
145.82291105002415
20
-13.143219141453635
10
159.9629110500241
20
-13.143219141453635
10
159.9629110500241
20
-27.283219141453632
10
145.82291105002415
20
-27.283219141453632
0
LWPOLYLINE
5
415
100
AcDbEntity
8
0
100
AcDbPolyline
90
4
70
1
43
0.0
10
164.87291105002416
20
-13.143219141453635
10
179.01291105002412
20
-13.143219141453635
10
179.01291105002412
20
-27.283219141453632
10
164.87291105002416
20
-27.283219141453632
0
LWPOLYLINE
5
416
100
AcDbEntity
8
0
100
AcDbPolyline
90
4
70
1
43
0.0
10
183.92291105002417
20
-13.143219141453635
10
198.06291105002413
20
-13.143219141453635
10
198.06291105002413
20
-27.283219141453632
10
183.92291105002417
20
-27.283219141453632
0
LWPOLYLINE
5
417
100
AcDbEntity
8
0
100
AcDbPolyline
90
4
70
1
43
0.0
10
207.73541105002411
20
-13.143219141453635
10
221.87541105002421
20
-13.143219141453635
10
221.87541105002421
20
-27.283219141453632
10
207.73541105002411
20
-27.283219141453632
0
LWPOLYLINE
5
418
100
AcDbEntity
8
0
100
AcDbPolyline
90
4
70
1
43
0.0
10
231.54791105002417
20
-13.143219141453626
10
245.68791105002416
20
-13.143219141453626
10
245.68791105002416
20
-27.283219141453628
10
231.54791105002417
20
-27.283219141453621
0
LWPOLYLINE
5
419
100
AcDbEntity
8
0
100
AcDbPolyline
90
4
70
1
43
0.0
10
-32.918338949975933
20
-46.33321914145364
10
-47.058338949975905
20
-46.33321914145364
10
-47.058338949975905
20
-32.193219141453653
10
-32.918338949975933
20
-32.193219141453653
0
LWPOLYLINE
5
420
100
AcDbEntity
8
0
100
AcDbPolyline
90
4
70
1
43
0.0
10
-6.7245889499758427
20
-46.33321914145364
10
-20.864588949975929
20
-46.33321914145364
10
-20.864588949975929
20
-32.193219141453653
10
-6.7245889499758418
20
-32.193219141453653
0
LWPOLYLINE
5
421
100
AcDbEntity
8
0
100
AcDbPolyline
90
4
70
1
43
0.0
10
12.32541105002416
20
-46.33321914145364
10
-1.814588949975926
20
-46.33321914145364
10
-1.814588949975926
20
-32.193219141453653
10
12.32541105002416
20
-32.193219141453653
0
LWPOLYLINE
5
422
100
AcDbEntity
8
0
100
AcDbPolyline
90
4
70
1
43
0.0
10
17.235411050024076
20
-32.193219141453653
10
31.375411050024162
20
-32.193219141453653
10
31.375411050024162
20
-46.33321914145364
10
17.235411050024076
20
-46.33321914145364
0
LWPOLYLINE
5
423
100
AcDbEntity
8
0
100
AcDbPolyline
90
4
70
1
43
0.0
10
36.285411050024081
20
-32.193219141453653
10
50.425411050024167
20
-32.193219141453653
10
50.425411050024167
20
-46.33321914145364
10
36.285411050024081
20
-46.33321914145364
0
LWPOLYLINE
5
424
100
AcDbEntity
8
0
100
AcDbPolyline
90
4
70
1
43
0.0
10
126.62541105002418
20
-46.33321914145364
10
112.4854110500241
20
-46.33321914145364
10
112.4854110500241
20
-32.193219141453653
10
126.62541105002418
20
-32.193219141453653
0
LWPOLYLINE
5
425
100
AcDbEntity
8
0
100
AcDbPolyline
90
4
70
1
43
0.0
10
107.57541105002417
20
-46.33321914145364
10
93.435411050024086
20
-46.33321914145364
10
93.435411050024086
20
-32.193219141453653
10
107.57541105002417
20
-32.193219141453653
0
LWPOLYLINE
5
426
100
AcDbEntity
8
0
100
AcDbPolyline
90
4
70
1
43
0.0
10
88.525411050024175
20
-46.33321914145364
10
74.385411050024089
20
-46.33321914145364
10
74.385411050024089
20
-32.193219141453653
10
88.525411050024175
20
-32.193219141453653
0
LWPOLYLINE
5
427
100
AcDbEntity
8
0
100
AcDbPolyline
90
4
70
1
43
0.0
10
69.475411050024178
20
-46.33321914145364
10
55.335411050024092
20
-46.33321914145364
10
55.335411050024092
20
-32.193219141453653
10
69.475411050024178
20
-32.193219141453653
0
LWPOLYLINE
5
428
100
AcDbEntity
8
0
100
AcDbPolyline
90
4
70
1
43
0.0
10
183.77541105002419
20
-46.33321914145364
10
169.63541105002409
20
-46.33321914145364
10
169.63541105002409
20
-32.193219141453653
10
183.77541105002419
20
-32.193219141453653
0
LWPOLYLINE
5
429
100
AcDbEntity
8
0
100
AcDbPolyline
90
4
70
1
43
0.0
10
164.72541105002418
20
-46.33321914145364
10
150.58541105002408
20
-46.33321914145364
10
150.58541105002408
20
-32.193219141453653
10
164.72541105002418
20
-32.193219141453653
0
LWPOLYLINE
5
430
100
AcDbEntity
8
0
100
AcDbPolyline
90
4
70
1
43
0.0
10
145.67541105002417
20
-46.33321914145364
10
131.53541105002409
20
-46.33321914145364
10
131.53541105002409
20
-32.193219141453653
10
145.67541105002417
20
-32.193219141453653
0
LWPOLYLINE
5
431
100
AcDbEntity
8
0
100
AcDbPolyline
90
4
70
1
43
0.0
10
231.54791105002417
20
-32.193219141453625
10
245.68791105002416
20
-32.193219141453625
10
245.68791105002416
20
-46.333219141453625
10
231.54791105002417
20
-46.333219141453625
0
LWPOLYLINE
5
432
100
AcDbEntity
8
0
100
AcDbPolyline
90
4
70
1
43
0.0
10
214.73166105002403
20
-46.33321914145364
10
200.59166105002407
20
-46.33321914145364
10
200.59166105002407
20
-32.193219141453653
10
214.73166105002403
20
-32.193219141453653
0
LWPOLYLINE
5
433
100
AcDbEntity
8
0
100
AcDbPolyline
90
4
70
1
43
0.0
10
-28.155838949975927
20
-65.383219141453623
10
-42.295838949975902
20
-65.383219141453623
10
-42.295838949975902
20
-51.243219141453636
10
-28.155838949975927
20
-51.243219141453636
0
LWPOLYLINE
5
434
100
AcDbEntity
8
0
100
AcDbPolyline
90
4
70
1
43
0.0
10
2.8004110500241453
20
-65.383219141453623
10
-11.339588949975942
20
-65.383219141453623
10
-11.339588949975944
20
-51.243219141453636
10
2.8004110500241461
20
-51.243219141453636
0
LWPOLYLINE
5
435
100
AcDbEntity
8
0
100
AcDbPolyline
90
4
70
1
43
0.0
10
186.30416105002413
20
-51.243219141453636
10
200.44416105002423
20
-51.243219141453636
10
200.44416105002423
20
-65.383219141453623
10
186.30416105002413
20
-65.383219141453623
0
LWPOLYLINE
5
436
100
AcDbEntity
8
0
100
AcDbPolyline
90
4
70
1
43
0.0
10
7.7104110500240601
20
-65.383219141453623
10
7.7104110500240575
20
-51.243219141453636
10
21.85041105002415
20
-51.243219141453636
10
21.85041105002415
20
-65.383219141453623
0
LWPOLYLINE
5
437
100
AcDbEntity
8
0
100
AcDbPolyline
90
4
70
1
43
0.0
10
26.760411050024061
20
-51.243219141453636
10
40.900411050024147
20
-51.243219141453636
10
40.900411050024147
20
-65.383219141453623
10
26.760411050024064
20
-65.383219141453623
0
LWPOLYLINE
5
438
100
AcDbEntity
8
0
100
AcDbPolyline
90
4
70
1
43
0.0
10
59.950411050024151
20
-51.243219141453636
10
59.950411050024151
20
-65.383219141453623
10
45.810411050024065
20
-65.383219141453623
10
45.810411050024058
20
-51.243219141453636
0
LWPOLYLINE
5
439
100
AcDbEntity
8
0
100
AcDbPolyline
90
4
70
1
43
0.0
10
122.01041105002406
20
-51.243219141453636
10
136.15041105002416
20
-51.243219141453636
10
136.15041105002416
20
-65.383219141453623
10
122.01041105002406
20
-65.383219141453623
0
LWPOLYLINE
5
440
100
AcDbEntity
8
0
100
AcDbPolyline
90
4
70
1
43
0.0
10
102.96041105002408
20
-51.243219141453636
10
117.10041105002416
20
-51.243219141453636
10
117.10041105002416
20
-65.383219141453623
10
102.96041105002408
20
-65.383219141453623
0
LWPOLYLINE
5
441
100
AcDbEntity
8
0
100
AcDbPolyline
90
4
70
1
43
0.0
10
83.910411050024067
20
-51.243219141453636
10
98.050411050024167
20
-51.243219141453636
10
98.050411050024167
20
-65.383219141453623
10
83.910411050024067
20
-65.383219141453623
0
LWPOLYLINE
5
442
100
AcDbEntity
8
0
100
AcDbPolyline
90
4
70
1
43
0.0
10
64.860411050024069
20
-51.243219141453636
10
79.000411050024155
20
-51.243219141453636
10
79.000411050024155
20
-65.383219141453623
10
64.860411050024069
20
-65.383219141453623
0
LWPOLYLINE
5
443
100
AcDbEntity
8
0
100
AcDbPolyline
90
4
70
1
43
0.0
10
160.11041105002408
20
-51.243219141453636
10
174.25041105002418
20
-51.243219141453636
10
174.25041105002418
20
-65.383219141453623
10
160.11041105002408
20
-65.383219141453623
0
LWPOLYLINE
5
444
100
AcDbEntity
8
0
100
AcDbPolyline
90
4
70
1
43
0.0
10
141.0604110500241
20
-51.243219141453636
10
155.20041105002417
20
-51.243219141453636
10
155.20041105002417
20
-65.383219141453623
10
141.0604110500241
20
-65.383219141453623
0
LWPOLYLINE
5
445
100
AcDbEntity
8
0
100
AcDbPolyline
90
4
70
1
43
0.0
10
231.54791105002417
20
-51.243219141453629
10
245.68791105002416
20
-51.243219141453629
10
245.68791105002416
20
-65.383219141453623
10
231.54791105002417
20
-65.383219141453623
0
LWPOLYLINE
5
446
100
AcDbEntity
8
0
100
AcDbPolyline
90
4
70
1
43
0.0
10
226.63791105002414
20
-51.243219141453629
10
226.63791105002414
20
-65.383219141453623
10
212.49791105002416
20
-65.383219141453623
10
212.49791105002416
20
-51.243219141453629
0
LWPOLYLINE
5
447
100
AcDbEntity
8
0
100
AcDbPolyline
90
4
70
1
43
0.0
10
231.54791105002417
20
-70.293219141453633
10
245.68791105002416
20
-70.293219141453633
10
245.68791105002416
20
-84.433219141453634
10
231.54791105002417
20
-84.433219141453634
0
LWPOLYLINE
5
448
100
AcDbEntity
8
0
100
AcDbPolyline
90
4
70
1
43
0.0
10
212.49791105002416
20
-70.293219141453633
10
226.63791105002414
20
-70.293219141453633
10
226.63791105002414
20
-84.433219141453634
10
212.49791105002416
20
-84.433219141453634
0
LWPOLYLINE
5
449
100
AcDbEntity
8
0
100
AcDbPolyline
90
4
70
1
43
0.0
10
207.58791105002413
20
-70.293219141453633
10
207.58791105002413
20
-84.433219141453634
10
193.44791105002415
20
-84.433219141453634
10
193.44791105002415
20
-70.293219141453633
0
LWPOLYLINE
5
450
100
AcDbEntity
8
0
100
AcDbPolyline
90
4
70
1
43
0.0
10
162.49166105002419
20
-70.293219141453633
10
176.63166105002415
20
-70.293219141453633
10
176.63166105002415
20
-84.433219141453634
10
162.49166105002419
20
-84.433219141453634
0
LWPOLYLINE
5
451
100
AcDbEntity
8
0
100
AcDbPolyline
90
4
70
1
43
0.0
10
138.67916105002413
20
-84.433219141453634
10
138.67916105002413
20
-70.293219141453633
10
152.81916105002418
20
-70.293219141453633
10
152.81916105002418
20
-84.433219141453634
0
LWPOLYLINE
5
452
100
AcDbEntity
8
0
100
AcDbPolyline
90
4
70
1
43
0.0
10
67.241661050024163
20
-84.433219141453634
10
67.241661050024163
20
-70.293219141453633
10
81.381661050024064
20
-70.293219141453633
10
81.381661050024064
20
-84.433219141453634
0
LWPOLYLINE
5
453
100
AcDbEntity
8
0
100
AcDbPolyline
90
4
70
1
43
0.0
10
-4.1958389499758155
20
-84.433219141453634
10
-4.1958389499758155
20
-70.293219141453633
10
9.9441610500240998
20
-70.293219141453633
10
9.944161050024098
20
-84.433219141453634
0
LWPOLYLINE
5
454
100
AcDbEntity
8
0
100
AcDbPolyline
90
4
70
1
43
0.0
10
-28.008338949975897
20
-84.433219141453634
10
-28.008338949975897
20
-70.293219141453633
10
-13.868338949975843
20
-70.293219141453633
10
-13.868338949975843
20
-84.433219141453634
0
LWPOLYLINE
5
455
100
AcDbEntity
8
0
100
AcDbPolyline
90
4
70
1
43
0.0
10
-51.820838949975837
20
-84.433219141453634
10
-51.820838949975837
20
-70.293219141453633
10
-37.680838949975865
20
-70.293219141453633
10
-37.680838949975865
20
-84.433219141453634
0
ENDSEC
0
SECTION
2
OBJECTS
0
DICTIONARY
5
C
100
AcDbDictionary
3
ACAD_GROUP
350
D
3
ACAD_MLINESTYLE
350
17
0
DICTIONARY
5
D
100
AcDbDictionary
0
DICTIONARY
5
1A
330
C
100
AcDbDictionary
0
DICTIONARY
5
17
100
AcDbDictionary
0
ENDSEC
0
EOF
