M48
; DRILL file {KiCad (5.1.10)-1} date 09/28/21 15:43:47
; FORMAT={-:-/ absolute / metric / decimal}
; #@! TF.CreationDate,2021-09-28T15:43:47+07:00
; #@! TF.GenerationSoftware,Kicad,Pcbnew,(5.1.10)-1
FMAT,2
METRIC
T1C0.305
T2C0.600
T3C2.200
T4C0.650
T5C2.200
%
G90
G05
T1
X72.552Y-65.239
X73.733Y-66.89
X74.504Y-68.018
X75.002Y-66.026
X75.502Y-68.016
X76.272Y-66.89
X77.453Y-65.239
T3
X82.004Y-58.543
T4
X72.112Y-62.792
X77.892Y-62.792
T5
X68.004Y-58.543
X68.004Y-71.043
X82.004Y-71.043
T2
G00X70.703Y-59.443
M15
G01X70.703Y-58.843
M16
G05
G00X70.703Y-63.893
M15
G01X70.703Y-62.793
M16
G05
G00X79.302Y-59.443
M15
G01X79.302Y-58.843
M16
G05
G00X79.302Y-63.893
M15
G01X79.302Y-62.793
M16
G05
T0
M30
