G04 #@! TF.GenerationSoftware,KiCad,Pcbnew,(5.1.10)-1*
G04 #@! TF.CreationDate,2021-09-28T15:44:08+07:00*
G04 #@! TF.ProjectId,Unified-Daughterboard,556e6966-6965-4642-9d44-617567687465,C3*
G04 #@! TF.SameCoordinates,Original*
G04 #@! TF.FileFunction,Legend,Top*
G04 #@! TF.FilePolarity,Positive*
%FSLAX46Y46*%
G04 Gerber Fmt 4.6, Leading zero omitted, Abs format (unit mm)*
G04 Created by KiCad (PCBNEW (5.1.10)-1) date 2021-09-28 15:44:08*
%MOMM*%
%LPD*%
G01*
G04 APERTURE LIST*
%ADD10C,0.400000*%
%ADD11C,0.120000*%
%ADD12C,0.101600*%
%ADD13C,0.100000*%
%ADD14C,0.150000*%
%ADD15C,0.152400*%
%ADD16C,0.127000*%
%ADD17C,0.200000*%
%ADD18R,0.250000X0.550000*%
%ADD19R,0.300000X0.550000*%
%ADD20R,0.900000X0.500000*%
%ADD21O,1.100000X2.200000*%
%ADD22O,1.300000X1.900000*%
%ADD23C,0.650000*%
%ADD24C,3.500001*%
%ADD25R,0.600000X1.550000*%
%ADD26R,1.200000X1.800000*%
G04 APERTURE END LIST*
D10*
X73502500Y-66426400D02*
G75*
G03*
X73502500Y-66426400I0J0D01*
G01*
D11*
X82897500Y-66476064D02*
X82897500Y-65271936D01*
X81077500Y-66476064D02*
X81077500Y-65271936D01*
X72634500Y-66629000D02*
X72634500Y-67629000D01*
X71274500Y-67629000D02*
X71274500Y-66629000D01*
X66980500Y-62604936D02*
X66980500Y-63809064D01*
X68800500Y-62604936D02*
X68800500Y-63809064D01*
D12*
X71002500Y-68040000D02*
X70052500Y-68040000D01*
X71002500Y-65740000D02*
X70052500Y-65740000D01*
X71002500Y-65740000D02*
X71002500Y-68040000D01*
X66302500Y-68040000D02*
X67252500Y-68040000D01*
X66302500Y-65740000D02*
X67252500Y-65740000D01*
X66302500Y-68040000D02*
X66302500Y-65740000D01*
D13*
G36*
X68652500Y-66890000D02*
G01*
X69363500Y-66290000D01*
X69363500Y-67490000D01*
X68652500Y-66890000D01*
G37*
X68652500Y-66890000D02*
X69363500Y-66290000D01*
X69363500Y-67490000D01*
X68652500Y-66890000D01*
G36*
X68652500Y-66890000D02*
G01*
X67941500Y-67490000D01*
X67941500Y-66290000D01*
X68652500Y-66890000D01*
G37*
X68652500Y-66890000D02*
X67941500Y-67490000D01*
X67941500Y-66290000D01*
X68652500Y-66890000D01*
D11*
X68652500Y-66255000D02*
X68652500Y-67525000D01*
X68652500Y-67525000D02*
X68398500Y-67525000D01*
X68652500Y-66255000D02*
X68906500Y-66255000D01*
D14*
X72004500Y-68393000D02*
X73004500Y-68393000D01*
X72004500Y-70793000D02*
X72004500Y-68393000D01*
X77004500Y-72593000D02*
X73004500Y-72593000D01*
X78004500Y-68393000D02*
X78004500Y-70793000D01*
X77004500Y-68393000D02*
X78004500Y-68393000D01*
D11*
X77243500Y-67629000D02*
X77243500Y-66629000D01*
X78603500Y-66629000D02*
X78603500Y-67629000D01*
D14*
X76401128Y-66483542D02*
X76886842Y-66483542D01*
X76943985Y-66454971D01*
X76972557Y-66426400D01*
X77001128Y-66369257D01*
X77001128Y-66254971D01*
X76972557Y-66197828D01*
X76943985Y-66169257D01*
X76886842Y-66140685D01*
X76401128Y-66140685D01*
X77001128Y-65540685D02*
X77001128Y-65883542D01*
X77001128Y-65712114D02*
X76401128Y-65712114D01*
X76486842Y-65769257D01*
X76543985Y-65826400D01*
X76572557Y-65883542D01*
D15*
X81860500Y-63282714D02*
X81497642Y-63282714D01*
X81497642Y-62520714D01*
X82513642Y-63282714D02*
X82078214Y-63282714D01*
X82295928Y-63282714D02*
X82295928Y-62520714D01*
X82223357Y-62629571D01*
X82150785Y-62702142D01*
X82078214Y-62738428D01*
D16*
X71603133Y-65742280D02*
X71408400Y-65464090D01*
X71269304Y-65742280D02*
X71269304Y-65158080D01*
X71491857Y-65158080D01*
X71547495Y-65185900D01*
X71575314Y-65213719D01*
X71603133Y-65269357D01*
X71603133Y-65352814D01*
X71575314Y-65408452D01*
X71547495Y-65436271D01*
X71491857Y-65464090D01*
X71269304Y-65464090D01*
X71825685Y-65213719D02*
X71853504Y-65185900D01*
X71909142Y-65158080D01*
X72048238Y-65158080D01*
X72103876Y-65185900D01*
X72131695Y-65213719D01*
X72159514Y-65269357D01*
X72159514Y-65324995D01*
X72131695Y-65408452D01*
X71797866Y-65742280D01*
X72159514Y-65742280D01*
X67678833Y-63161642D02*
X67467166Y-63161642D01*
X67467166Y-63494261D02*
X67467166Y-62859261D01*
X67769547Y-62859261D01*
X68344071Y-63494261D02*
X67981214Y-63494261D01*
X68162642Y-63494261D02*
X68162642Y-62859261D01*
X68102166Y-62949976D01*
X68041690Y-63010452D01*
X67981214Y-63040690D01*
D17*
X68062023Y-68902904D02*
X68062023Y-68102904D01*
X68252500Y-68102904D01*
X68366785Y-68141000D01*
X68442976Y-68217190D01*
X68481071Y-68293380D01*
X68519166Y-68445761D01*
X68519166Y-68560047D01*
X68481071Y-68712428D01*
X68442976Y-68788619D01*
X68366785Y-68864809D01*
X68252500Y-68902904D01*
X68062023Y-68902904D01*
X69281071Y-68902904D02*
X68823928Y-68902904D01*
X69052500Y-68902904D02*
X69052500Y-68102904D01*
X68976309Y-68217190D01*
X68900119Y-68293380D01*
X68823928Y-68331476D01*
D14*
X74669166Y-59295380D02*
X74669166Y-60009666D01*
X74621547Y-60152523D01*
X74526309Y-60247761D01*
X74383452Y-60295380D01*
X74288214Y-60295380D01*
X75669166Y-60295380D02*
X75097738Y-60295380D01*
X75383452Y-60295380D02*
X75383452Y-59295380D01*
X75288214Y-59438238D01*
X75192976Y-59533476D01*
X75097738Y-59581095D01*
X74675166Y-71056380D02*
X74675166Y-71770666D01*
X74627547Y-71913523D01*
X74532309Y-72008761D01*
X74389452Y-72056380D01*
X74294214Y-72056380D01*
X75103738Y-71151619D02*
X75151357Y-71104000D01*
X75246595Y-71056380D01*
X75484690Y-71056380D01*
X75579928Y-71104000D01*
X75627547Y-71151619D01*
X75675166Y-71246857D01*
X75675166Y-71342095D01*
X75627547Y-71484952D01*
X75056119Y-72056380D01*
X75675166Y-72056380D01*
D16*
X78325666Y-65765261D02*
X78114000Y-65462880D01*
X77962809Y-65765261D02*
X77962809Y-65130261D01*
X78204714Y-65130261D01*
X78265190Y-65160500D01*
X78295428Y-65190738D01*
X78325666Y-65251214D01*
X78325666Y-65341928D01*
X78295428Y-65402404D01*
X78265190Y-65432642D01*
X78204714Y-65462880D01*
X77962809Y-65462880D01*
X78930428Y-65765261D02*
X78567571Y-65765261D01*
X78749000Y-65765261D02*
X78749000Y-65130261D01*
X78688523Y-65220976D01*
X78628047Y-65281452D01*
X78567571Y-65311690D01*
%LPC*%
G36*
G01*
X73877500Y-66561400D02*
X73877500Y-66261400D01*
G75*
G02*
X74002500Y-66136400I125000J0D01*
G01*
X74002500Y-66136400D01*
G75*
G02*
X74127500Y-66261400I0J-125000D01*
G01*
X74127500Y-66561400D01*
G75*
G02*
X74002500Y-66686400I-125000J0D01*
G01*
X74002500Y-66686400D01*
G75*
G02*
X73877500Y-66561400I0J125000D01*
G01*
G37*
D18*
X74502500Y-66411400D03*
D19*
X75002500Y-66411400D03*
D18*
X75502500Y-66411400D03*
X76002500Y-66411400D03*
X74502500Y-65641400D03*
X76002500Y-65641400D03*
X75502500Y-65641400D03*
X74002500Y-65641400D03*
D19*
X75002500Y-65641400D03*
G36*
G01*
X82612500Y-65099000D02*
X81362500Y-65099000D01*
G75*
G02*
X81112500Y-64849000I0J250000D01*
G01*
X81112500Y-64099000D01*
G75*
G02*
X81362500Y-63849000I250000J0D01*
G01*
X82612500Y-63849000D01*
G75*
G02*
X82862500Y-64099000I0J-250000D01*
G01*
X82862500Y-64849000D01*
G75*
G02*
X82612500Y-65099000I-250000J0D01*
G01*
G37*
G36*
G01*
X82612500Y-67899000D02*
X81362500Y-67899000D01*
G75*
G02*
X81112500Y-67649000I0J250000D01*
G01*
X81112500Y-66899000D01*
G75*
G02*
X81362500Y-66649000I250000J0D01*
G01*
X82612500Y-66649000D01*
G75*
G02*
X82862500Y-66899000I0J-250000D01*
G01*
X82862500Y-67649000D01*
G75*
G02*
X82612500Y-67899000I-250000J0D01*
G01*
G37*
D20*
X71954500Y-66379000D03*
X71954500Y-67879000D03*
G36*
G01*
X67265500Y-63982000D02*
X68515500Y-63982000D01*
G75*
G02*
X68765500Y-64232000I0J-250000D01*
G01*
X68765500Y-64982000D01*
G75*
G02*
X68515500Y-65232000I-250000J0D01*
G01*
X67265500Y-65232000D01*
G75*
G02*
X67015500Y-64982000I0J250000D01*
G01*
X67015500Y-64232000D01*
G75*
G02*
X67265500Y-63982000I250000J0D01*
G01*
G37*
G36*
G01*
X67265500Y-61182000D02*
X68515500Y-61182000D01*
G75*
G02*
X68765500Y-61432000I0J-250000D01*
G01*
X68765500Y-62182000D01*
G75*
G02*
X68515500Y-62432000I-250000J0D01*
G01*
X67265500Y-62432000D01*
G75*
G02*
X67015500Y-62182000I0J250000D01*
G01*
X67015500Y-61432000D01*
G75*
G02*
X67265500Y-61182000I250000J0D01*
G01*
G37*
G36*
G01*
X70802500Y-66540000D02*
X70802500Y-67240000D01*
G75*
G02*
X70552500Y-67490000I-250000J0D01*
G01*
X70052500Y-67490000D01*
G75*
G02*
X69802500Y-67240000I0J250000D01*
G01*
X69802500Y-66540000D01*
G75*
G02*
X70052500Y-66290000I250000J0D01*
G01*
X70552500Y-66290000D01*
G75*
G02*
X70802500Y-66540000I0J-250000D01*
G01*
G37*
G36*
G01*
X67502500Y-66540000D02*
X67502500Y-67240000D01*
G75*
G02*
X67252500Y-67490000I-250000J0D01*
G01*
X66752500Y-67490000D01*
G75*
G02*
X66502500Y-67240000I0J250000D01*
G01*
X66502500Y-66540000D01*
G75*
G02*
X66752500Y-66290000I250000J0D01*
G01*
X67252500Y-66290000D01*
G75*
G02*
X67502500Y-66540000I0J-250000D01*
G01*
G37*
D21*
X70702500Y-63343000D03*
D22*
X70702500Y-59143000D03*
D23*
X72112500Y-62792000D03*
X77892500Y-62792000D03*
D22*
X79302500Y-59143000D03*
G36*
G01*
X78552500Y-63543000D02*
X78552500Y-64693000D01*
G75*
G02*
X78402500Y-64843000I-150000J0D01*
G01*
X78102500Y-64843000D01*
G75*
G02*
X77952500Y-64693000I0J150000D01*
G01*
X77952500Y-63543000D01*
G75*
G02*
X78102500Y-63393000I150000J0D01*
G01*
X78402500Y-63393000D01*
G75*
G02*
X78552500Y-63543000I0J-150000D01*
G01*
G37*
G36*
G01*
X76902500Y-63468000D02*
X76902500Y-64768000D01*
G75*
G02*
X76827500Y-64843000I-75000J0D01*
G01*
X76677500Y-64843000D01*
G75*
G02*
X76602500Y-64768000I0J75000D01*
G01*
X76602500Y-63468000D01*
G75*
G02*
X76677500Y-63393000I75000J0D01*
G01*
X76827500Y-63393000D01*
G75*
G02*
X76902500Y-63468000I0J-75000D01*
G01*
G37*
G36*
G01*
X76402500Y-63468000D02*
X76402500Y-64768000D01*
G75*
G02*
X76327500Y-64843000I-75000J0D01*
G01*
X76177500Y-64843000D01*
G75*
G02*
X76102500Y-64768000I0J75000D01*
G01*
X76102500Y-63468000D01*
G75*
G02*
X76177500Y-63393000I75000J0D01*
G01*
X76327500Y-63393000D01*
G75*
G02*
X76402500Y-63468000I0J-75000D01*
G01*
G37*
G36*
G01*
X75902500Y-63468000D02*
X75902500Y-64768000D01*
G75*
G02*
X75827500Y-64843000I-75000J0D01*
G01*
X75677500Y-64843000D01*
G75*
G02*
X75602500Y-64768000I0J75000D01*
G01*
X75602500Y-63468000D01*
G75*
G02*
X75677500Y-63393000I75000J0D01*
G01*
X75827500Y-63393000D01*
G75*
G02*
X75902500Y-63468000I0J-75000D01*
G01*
G37*
G36*
G01*
X75406500Y-63468000D02*
X75406500Y-64768000D01*
G75*
G02*
X75331500Y-64843000I-75000J0D01*
G01*
X75181500Y-64843000D01*
G75*
G02*
X75106500Y-64768000I0J75000D01*
G01*
X75106500Y-63468000D01*
G75*
G02*
X75181500Y-63393000I75000J0D01*
G01*
X75331500Y-63393000D01*
G75*
G02*
X75406500Y-63468000I0J-75000D01*
G01*
G37*
G36*
G01*
X73402500Y-63468000D02*
X73402500Y-64768000D01*
G75*
G02*
X73327500Y-64843000I-75000J0D01*
G01*
X73177500Y-64843000D01*
G75*
G02*
X73102500Y-64768000I0J75000D01*
G01*
X73102500Y-63468000D01*
G75*
G02*
X73177500Y-63393000I75000J0D01*
G01*
X73327500Y-63393000D01*
G75*
G02*
X73402500Y-63468000I0J-75000D01*
G01*
G37*
G36*
G01*
X73902500Y-63468000D02*
X73902500Y-64768000D01*
G75*
G02*
X73827500Y-64843000I-75000J0D01*
G01*
X73677500Y-64843000D01*
G75*
G02*
X73602500Y-64768000I0J75000D01*
G01*
X73602500Y-63468000D01*
G75*
G02*
X73677500Y-63393000I75000J0D01*
G01*
X73827500Y-63393000D01*
G75*
G02*
X73902500Y-63468000I0J-75000D01*
G01*
G37*
G36*
G01*
X74402500Y-63468000D02*
X74402500Y-64768000D01*
G75*
G02*
X74327500Y-64843000I-75000J0D01*
G01*
X74177500Y-64843000D01*
G75*
G02*
X74102500Y-64768000I0J75000D01*
G01*
X74102500Y-63468000D01*
G75*
G02*
X74177500Y-63393000I75000J0D01*
G01*
X74327500Y-63393000D01*
G75*
G02*
X74402500Y-63468000I0J-75000D01*
G01*
G37*
G36*
G01*
X74902500Y-63468000D02*
X74902500Y-64768000D01*
G75*
G02*
X74827500Y-64843000I-75000J0D01*
G01*
X74677500Y-64843000D01*
G75*
G02*
X74602500Y-64768000I0J75000D01*
G01*
X74602500Y-63468000D01*
G75*
G02*
X74677500Y-63393000I75000J0D01*
G01*
X74827500Y-63393000D01*
G75*
G02*
X74902500Y-63468000I0J-75000D01*
G01*
G37*
D21*
X79302500Y-63343000D03*
G36*
G01*
X77752500Y-63543000D02*
X77752500Y-64693000D01*
G75*
G02*
X77602500Y-64843000I-150000J0D01*
G01*
X77302500Y-64843000D01*
G75*
G02*
X77152500Y-64693000I0J150000D01*
G01*
X77152500Y-63543000D01*
G75*
G02*
X77302500Y-63393000I150000J0D01*
G01*
X77602500Y-63393000D01*
G75*
G02*
X77752500Y-63543000I0J-150000D01*
G01*
G37*
G36*
G01*
X72052500Y-63543000D02*
X72052500Y-64693000D01*
G75*
G02*
X71902500Y-64843000I-150000J0D01*
G01*
X71602500Y-64843000D01*
G75*
G02*
X71452500Y-64693000I0J150000D01*
G01*
X71452500Y-63543000D01*
G75*
G02*
X71602500Y-63393000I150000J0D01*
G01*
X71902500Y-63393000D01*
G75*
G02*
X72052500Y-63543000I0J-150000D01*
G01*
G37*
G36*
G01*
X72852500Y-63543000D02*
X72852500Y-64693000D01*
G75*
G02*
X72702500Y-64843000I-150000J0D01*
G01*
X72402500Y-64843000D01*
G75*
G02*
X72252500Y-64693000I0J150000D01*
G01*
X72252500Y-63543000D01*
G75*
G02*
X72402500Y-63393000I150000J0D01*
G01*
X72702500Y-63393000D01*
G75*
G02*
X72852500Y-63543000I0J-150000D01*
G01*
G37*
D24*
X68004500Y-58543000D03*
X82004500Y-58543000D03*
X68004500Y-71043000D03*
X82004500Y-71043000D03*
D25*
X75504500Y-68018000D03*
X76504500Y-68018000D03*
X74504500Y-68018000D03*
X73504500Y-68018000D03*
D26*
X72204500Y-71893000D03*
X77804500Y-71893000D03*
D20*
X77923500Y-67879000D03*
X77923500Y-66379000D03*
M02*
