G04 #@! TF.GenerationSoftware,KiCad,Pcbnew,(5.1.10)-1*
G04 #@! TF.CreationDate,2022-02-11T01:48:37+07:00*
G04 #@! TF.ProjectId,uso!VNC,75736f21-564e-4432-9e6b-696361645f70,rev?*
G04 #@! TF.SameCoordinates,Original*
G04 #@! TF.FileFunction,Soldermask,Bot*
G04 #@! TF.FilePolarity,Negative*
%FSLAX45Y45*%
G04 Gerber Fmt 4.5, Leading zero omitted, Abs format (unit mm)*
G04 Created by KiCad (PCBNEW (5.1.10)-1) date 2022-02-11 01:48:37*
%MOMM*%
%LPD*%
G01*
G04 APERTURE LIST*
%ADD10C,3.100000*%
%ADD11C,4.087800*%
%ADD12C,1.850000*%
%ADD13C,3.148000*%
%ADD14C,3.900000*%
%ADD15O,1.100000X1.700000*%
%ADD16O,1.100000X2.200000*%
%ADD17C,0.750000*%
G04 APERTURE END LIST*
G36*
G01*
X31468985Y-6091031D02*
X31468985Y-5981031D01*
G75*
G02*
X31473985Y-5976031I5000J0D01*
G01*
X31653985Y-5976031D01*
G75*
G02*
X31658985Y-5981031I0J-5000D01*
G01*
X31658985Y-6091031D01*
G75*
G02*
X31653985Y-6096031I-5000J0D01*
G01*
X31473985Y-6096031D01*
G75*
G02*
X31468985Y-6091031I0J5000D01*
G01*
G37*
G36*
G01*
X30848985Y-6461031D02*
X30848985Y-6351031D01*
G75*
G02*
X30853985Y-6346031I5000J0D01*
G01*
X31033985Y-6346031D01*
G75*
G02*
X31038985Y-6351031I0J-5000D01*
G01*
X31038985Y-6461031D01*
G75*
G02*
X31033985Y-6466031I-5000J0D01*
G01*
X30853985Y-6466031D01*
G75*
G02*
X30848985Y-6461031I0J5000D01*
G01*
G37*
G36*
G01*
X31468985Y-6461031D02*
X31468985Y-6351031D01*
G75*
G02*
X31473985Y-6346031I5000J0D01*
G01*
X31653985Y-6346031D01*
G75*
G02*
X31658985Y-6351031I0J-5000D01*
G01*
X31658985Y-6461031D01*
G75*
G02*
X31653985Y-6466031I-5000J0D01*
G01*
X31473985Y-6466031D01*
G75*
G02*
X31468985Y-6461031I0J5000D01*
G01*
G37*
G36*
G01*
X30848985Y-6091031D02*
X30848985Y-5981031D01*
G75*
G02*
X30853985Y-5976031I5000J0D01*
G01*
X31033985Y-5976031D01*
G75*
G02*
X31038985Y-5981031I0J-5000D01*
G01*
X31038985Y-6091031D01*
G75*
G02*
X31033985Y-6096031I-5000J0D01*
G01*
X30853985Y-6096031D01*
G75*
G02*
X30848985Y-6091031I0J5000D01*
G01*
G37*
G36*
G01*
X19065796Y-6334816D02*
X19078170Y-6322441D01*
G75*
G02*
X19090545Y-6322441I6187J-6187D01*
G01*
X19161255Y-6393152D01*
G75*
G02*
X19161255Y-6405526I-6187J-6187D01*
G01*
X19148881Y-6417901D01*
G75*
G02*
X19136507Y-6417901I-6187J6187D01*
G01*
X19065796Y-6347190D01*
G75*
G02*
X19065796Y-6334816I6187J6187D01*
G01*
G37*
G36*
G01*
X19098500Y-6302112D02*
X19116177Y-6284434D01*
G75*
G02*
X19123248Y-6284434I3536J-3536D01*
G01*
X19199262Y-6360448D01*
G75*
G02*
X19199262Y-6367519I-3536J-3536D01*
G01*
X19181585Y-6385197D01*
G75*
G02*
X19174514Y-6385197I-3536J3536D01*
G01*
X19098500Y-6309183D01*
G75*
G02*
X19098500Y-6302112I3536J3536D01*
G01*
G37*
G36*
G01*
X19133855Y-6266757D02*
X19151533Y-6249079D01*
G75*
G02*
X19158604Y-6249079I3536J-3536D01*
G01*
X19234618Y-6325093D01*
G75*
G02*
X19234618Y-6332164I-3536J-3536D01*
G01*
X19216940Y-6349842D01*
G75*
G02*
X19209869Y-6349842I-3536J3536D01*
G01*
X19133855Y-6273828D01*
G75*
G02*
X19133855Y-6266757I3536J3536D01*
G01*
G37*
G36*
G01*
X19169210Y-6231401D02*
X19186888Y-6213724D01*
G75*
G02*
X19193959Y-6213724I3536J-3536D01*
G01*
X19269973Y-6289738D01*
G75*
G02*
X19269973Y-6296809I-3536J-3536D01*
G01*
X19252295Y-6314486D01*
G75*
G02*
X19245224Y-6314486I-3536J3536D01*
G01*
X19169210Y-6238472D01*
G75*
G02*
X19169210Y-6231401I3536J3536D01*
G01*
G37*
G36*
G01*
X19204566Y-6196046D02*
X19222243Y-6178368D01*
G75*
G02*
X19229314Y-6178368I3536J-3536D01*
G01*
X19305328Y-6254382D01*
G75*
G02*
X19305328Y-6261453I-3536J-3536D01*
G01*
X19287651Y-6279131D01*
G75*
G02*
X19280580Y-6279131I-3536J3536D01*
G01*
X19204566Y-6203117D01*
G75*
G02*
X19204566Y-6196046I3536J3536D01*
G01*
G37*
G36*
G01*
X19239921Y-6160691D02*
X19257599Y-6143013D01*
G75*
G02*
X19264670Y-6143013I3536J-3536D01*
G01*
X19340684Y-6219027D01*
G75*
G02*
X19340684Y-6226098I-3536J-3536D01*
G01*
X19323006Y-6243776D01*
G75*
G02*
X19315935Y-6243776I-3536J3536D01*
G01*
X19239921Y-6167762D01*
G75*
G02*
X19239921Y-6160691I3536J3536D01*
G01*
G37*
G36*
G01*
X19275276Y-6125335D02*
X19292954Y-6107658D01*
G75*
G02*
X19300025Y-6107658I3536J-3536D01*
G01*
X19376039Y-6183672D01*
G75*
G02*
X19376039Y-6190743I-3536J-3536D01*
G01*
X19358361Y-6208420D01*
G75*
G02*
X19351290Y-6208420I-3536J3536D01*
G01*
X19275276Y-6132406D01*
G75*
G02*
X19275276Y-6125335I3536J3536D01*
G01*
G37*
G36*
G01*
X19310632Y-6089980D02*
X19328309Y-6072302D01*
G75*
G02*
X19335380Y-6072302I3536J-3536D01*
G01*
X19411394Y-6148316D01*
G75*
G02*
X19411394Y-6155387I-3536J-3536D01*
G01*
X19393717Y-6173065D01*
G75*
G02*
X19386646Y-6173065I-3536J3536D01*
G01*
X19310632Y-6097051D01*
G75*
G02*
X19310632Y-6089980I3536J3536D01*
G01*
G37*
G36*
G01*
X19345987Y-6054625D02*
X19363665Y-6036947D01*
G75*
G02*
X19370736Y-6036947I3536J-3536D01*
G01*
X19446750Y-6112961D01*
G75*
G02*
X19446750Y-6120032I-3536J-3536D01*
G01*
X19429072Y-6137710D01*
G75*
G02*
X19422001Y-6137710I-3536J3536D01*
G01*
X19345987Y-6061696D01*
G75*
G02*
X19345987Y-6054625I3536J3536D01*
G01*
G37*
G36*
G01*
X19381342Y-6019269D02*
X19399020Y-6001592D01*
G75*
G02*
X19406091Y-6001592I3536J-3536D01*
G01*
X19482105Y-6077606D01*
G75*
G02*
X19482105Y-6084677I-3536J-3536D01*
G01*
X19464427Y-6102354D01*
G75*
G02*
X19457356Y-6102354I-3536J3536D01*
G01*
X19381342Y-6026340D01*
G75*
G02*
X19381342Y-6019269I3536J3536D01*
G01*
G37*
G36*
G01*
X19416698Y-5983914D02*
X19434375Y-5966236D01*
G75*
G02*
X19441446Y-5966236I3536J-3536D01*
G01*
X19517460Y-6042250D01*
G75*
G02*
X19517460Y-6049321I-3536J-3536D01*
G01*
X19499783Y-6066999D01*
G75*
G02*
X19492712Y-6066999I-3536J3536D01*
G01*
X19416698Y-5990985D01*
G75*
G02*
X19416698Y-5983914I3536J3536D01*
G01*
G37*
G36*
G01*
X19535138Y-6042250D02*
X19611152Y-5966236D01*
G75*
G02*
X19618223Y-5966236I3536J-3536D01*
G01*
X19635901Y-5983914D01*
G75*
G02*
X19635901Y-5990985I-3536J-3536D01*
G01*
X19559887Y-6066999D01*
G75*
G02*
X19552816Y-6066999I-3536J3536D01*
G01*
X19535138Y-6049321D01*
G75*
G02*
X19535138Y-6042250I3536J3536D01*
G01*
G37*
G36*
G01*
X19570493Y-6077606D02*
X19646507Y-6001592D01*
G75*
G02*
X19653578Y-6001592I3536J-3536D01*
G01*
X19671256Y-6019269D01*
G75*
G02*
X19671256Y-6026340I-3536J-3536D01*
G01*
X19595242Y-6102354D01*
G75*
G02*
X19588171Y-6102354I-3536J3536D01*
G01*
X19570493Y-6084677D01*
G75*
G02*
X19570493Y-6077606I3536J3536D01*
G01*
G37*
G36*
G01*
X19605849Y-6112961D02*
X19681863Y-6036947D01*
G75*
G02*
X19688934Y-6036947I3536J-3536D01*
G01*
X19706611Y-6054625D01*
G75*
G02*
X19706611Y-6061696I-3536J-3536D01*
G01*
X19630597Y-6137710D01*
G75*
G02*
X19623526Y-6137710I-3536J3536D01*
G01*
X19605849Y-6120032D01*
G75*
G02*
X19605849Y-6112961I3536J3536D01*
G01*
G37*
G36*
G01*
X19641204Y-6148316D02*
X19717218Y-6072302D01*
G75*
G02*
X19724289Y-6072302I3536J-3536D01*
G01*
X19741967Y-6089980D01*
G75*
G02*
X19741967Y-6097051I-3536J-3536D01*
G01*
X19665953Y-6173065D01*
G75*
G02*
X19658882Y-6173065I-3536J3536D01*
G01*
X19641204Y-6155387D01*
G75*
G02*
X19641204Y-6148316I3536J3536D01*
G01*
G37*
G36*
G01*
X19676559Y-6183672D02*
X19752573Y-6107658D01*
G75*
G02*
X19759644Y-6107658I3536J-3536D01*
G01*
X19777322Y-6125335D01*
G75*
G02*
X19777322Y-6132406I-3536J-3536D01*
G01*
X19701308Y-6208420D01*
G75*
G02*
X19694237Y-6208420I-3536J3536D01*
G01*
X19676559Y-6190743D01*
G75*
G02*
X19676559Y-6183672I3536J3536D01*
G01*
G37*
G36*
G01*
X19711915Y-6219027D02*
X19787929Y-6143013D01*
G75*
G02*
X19795000Y-6143013I3536J-3536D01*
G01*
X19812677Y-6160691D01*
G75*
G02*
X19812677Y-6167762I-3536J-3536D01*
G01*
X19736663Y-6243776D01*
G75*
G02*
X19729592Y-6243776I-3536J3536D01*
G01*
X19711915Y-6226098D01*
G75*
G02*
X19711915Y-6219027I3536J3536D01*
G01*
G37*
G36*
G01*
X19747270Y-6254382D02*
X19823284Y-6178368D01*
G75*
G02*
X19830355Y-6178368I3536J-3536D01*
G01*
X19848033Y-6196046D01*
G75*
G02*
X19848033Y-6203117I-3536J-3536D01*
G01*
X19772019Y-6279131D01*
G75*
G02*
X19764948Y-6279131I-3536J3536D01*
G01*
X19747270Y-6261453D01*
G75*
G02*
X19747270Y-6254382I3536J3536D01*
G01*
G37*
G36*
G01*
X19782626Y-6289738D02*
X19858640Y-6213724D01*
G75*
G02*
X19865711Y-6213724I3536J-3536D01*
G01*
X19883388Y-6231401D01*
G75*
G02*
X19883388Y-6238472I-3536J-3536D01*
G01*
X19807374Y-6314486D01*
G75*
G02*
X19800303Y-6314486I-3536J3536D01*
G01*
X19782626Y-6296809D01*
G75*
G02*
X19782626Y-6289738I3536J3536D01*
G01*
G37*
G36*
G01*
X19817981Y-6325093D02*
X19893995Y-6249079D01*
G75*
G02*
X19901066Y-6249079I3536J-3536D01*
G01*
X19918743Y-6266757D01*
G75*
G02*
X19918743Y-6273828I-3536J-3536D01*
G01*
X19842729Y-6349842D01*
G75*
G02*
X19835658Y-6349842I-3536J3536D01*
G01*
X19817981Y-6332164D01*
G75*
G02*
X19817981Y-6325093I3536J3536D01*
G01*
G37*
G36*
G01*
X19853336Y-6360448D02*
X19929350Y-6284434D01*
G75*
G02*
X19936421Y-6284434I3536J-3536D01*
G01*
X19954099Y-6302112D01*
G75*
G02*
X19954099Y-6309183I-3536J-3536D01*
G01*
X19878085Y-6385197D01*
G75*
G02*
X19871014Y-6385197I-3536J3536D01*
G01*
X19853336Y-6367519D01*
G75*
G02*
X19853336Y-6360448I3536J3536D01*
G01*
G37*
G36*
G01*
X19888692Y-6395804D02*
X19964706Y-6319790D01*
G75*
G02*
X19971777Y-6319790I3536J-3536D01*
G01*
X19989454Y-6337467D01*
G75*
G02*
X19989454Y-6344538I-3536J-3536D01*
G01*
X19913440Y-6420552D01*
G75*
G02*
X19906369Y-6420552I-3536J3536D01*
G01*
X19888692Y-6402875D01*
G75*
G02*
X19888692Y-6395804I3536J3536D01*
G01*
G37*
G36*
G01*
X19888692Y-6455908D02*
X19906369Y-6438230D01*
G75*
G02*
X19913440Y-6438230I3536J-3536D01*
G01*
X19989454Y-6514244D01*
G75*
G02*
X19989454Y-6521315I-3536J-3536D01*
G01*
X19971777Y-6538993D01*
G75*
G02*
X19964706Y-6538993I-3536J3536D01*
G01*
X19888692Y-6462979D01*
G75*
G02*
X19888692Y-6455908I3536J3536D01*
G01*
G37*
G36*
G01*
X19853336Y-6491263D02*
X19871014Y-6473585D01*
G75*
G02*
X19878085Y-6473585I3536J-3536D01*
G01*
X19954099Y-6549599D01*
G75*
G02*
X19954099Y-6556670I-3536J-3536D01*
G01*
X19936421Y-6574348D01*
G75*
G02*
X19929350Y-6574348I-3536J3536D01*
G01*
X19853336Y-6498334D01*
G75*
G02*
X19853336Y-6491263I3536J3536D01*
G01*
G37*
G36*
G01*
X19817981Y-6526618D02*
X19835658Y-6508941D01*
G75*
G02*
X19842729Y-6508941I3536J-3536D01*
G01*
X19918743Y-6584955D01*
G75*
G02*
X19918743Y-6592026I-3536J-3536D01*
G01*
X19901066Y-6609703D01*
G75*
G02*
X19893995Y-6609703I-3536J3536D01*
G01*
X19817981Y-6533689D01*
G75*
G02*
X19817981Y-6526618I3536J3536D01*
G01*
G37*
G36*
G01*
X19782626Y-6561974D02*
X19800303Y-6544296D01*
G75*
G02*
X19807374Y-6544296I3536J-3536D01*
G01*
X19883388Y-6620310D01*
G75*
G02*
X19883388Y-6627381I-3536J-3536D01*
G01*
X19865711Y-6645059D01*
G75*
G02*
X19858640Y-6645059I-3536J3536D01*
G01*
X19782626Y-6569045D01*
G75*
G02*
X19782626Y-6561974I3536J3536D01*
G01*
G37*
G36*
G01*
X19747270Y-6597329D02*
X19764948Y-6579651D01*
G75*
G02*
X19772019Y-6579651I3536J-3536D01*
G01*
X19848033Y-6655665D01*
G75*
G02*
X19848033Y-6662736I-3536J-3536D01*
G01*
X19830355Y-6680414D01*
G75*
G02*
X19823284Y-6680414I-3536J3536D01*
G01*
X19747270Y-6604400D01*
G75*
G02*
X19747270Y-6597329I3536J3536D01*
G01*
G37*
G36*
G01*
X19711915Y-6632684D02*
X19729592Y-6615007D01*
G75*
G02*
X19736663Y-6615007I3536J-3536D01*
G01*
X19812677Y-6691021D01*
G75*
G02*
X19812677Y-6698092I-3536J-3536D01*
G01*
X19795000Y-6715769D01*
G75*
G02*
X19787929Y-6715769I-3536J3536D01*
G01*
X19711915Y-6639755D01*
G75*
G02*
X19711915Y-6632684I3536J3536D01*
G01*
G37*
G36*
G01*
X19676559Y-6668040D02*
X19694237Y-6650362D01*
G75*
G02*
X19701308Y-6650362I3536J-3536D01*
G01*
X19777322Y-6726376D01*
G75*
G02*
X19777322Y-6733447I-3536J-3536D01*
G01*
X19759644Y-6751125D01*
G75*
G02*
X19752573Y-6751125I-3536J3536D01*
G01*
X19676559Y-6675111D01*
G75*
G02*
X19676559Y-6668040I3536J3536D01*
G01*
G37*
G36*
G01*
X19641204Y-6703395D02*
X19658882Y-6685717D01*
G75*
G02*
X19665953Y-6685717I3536J-3536D01*
G01*
X19741967Y-6761731D01*
G75*
G02*
X19741967Y-6768802I-3536J-3536D01*
G01*
X19724289Y-6786480D01*
G75*
G02*
X19717218Y-6786480I-3536J3536D01*
G01*
X19641204Y-6710466D01*
G75*
G02*
X19641204Y-6703395I3536J3536D01*
G01*
G37*
G36*
G01*
X19605849Y-6738750D02*
X19623526Y-6721073D01*
G75*
G02*
X19630597Y-6721073I3536J-3536D01*
G01*
X19706611Y-6797087D01*
G75*
G02*
X19706611Y-6804158I-3536J-3536D01*
G01*
X19688934Y-6821835D01*
G75*
G02*
X19681863Y-6821835I-3536J3536D01*
G01*
X19605849Y-6745821D01*
G75*
G02*
X19605849Y-6738750I3536J3536D01*
G01*
G37*
G36*
G01*
X19570493Y-6774106D02*
X19588171Y-6756428D01*
G75*
G02*
X19595242Y-6756428I3536J-3536D01*
G01*
X19671256Y-6832442D01*
G75*
G02*
X19671256Y-6839513I-3536J-3536D01*
G01*
X19653578Y-6857191D01*
G75*
G02*
X19646507Y-6857191I-3536J3536D01*
G01*
X19570493Y-6781177D01*
G75*
G02*
X19570493Y-6774106I3536J3536D01*
G01*
G37*
G36*
G01*
X19535138Y-6809461D02*
X19552816Y-6791783D01*
G75*
G02*
X19559887Y-6791783I3536J-3536D01*
G01*
X19635901Y-6867797D01*
G75*
G02*
X19635901Y-6874868I-3536J-3536D01*
G01*
X19618223Y-6892546D01*
G75*
G02*
X19611152Y-6892546I-3536J3536D01*
G01*
X19535138Y-6816532D01*
G75*
G02*
X19535138Y-6809461I3536J3536D01*
G01*
G37*
G36*
G01*
X19416698Y-6867797D02*
X19492712Y-6791783D01*
G75*
G02*
X19499783Y-6791783I3536J-3536D01*
G01*
X19517460Y-6809461D01*
G75*
G02*
X19517460Y-6816532I-3536J-3536D01*
G01*
X19441446Y-6892546D01*
G75*
G02*
X19434375Y-6892546I-3536J3536D01*
G01*
X19416698Y-6874868D01*
G75*
G02*
X19416698Y-6867797I3536J3536D01*
G01*
G37*
G36*
G01*
X19381342Y-6832442D02*
X19457356Y-6756428D01*
G75*
G02*
X19464427Y-6756428I3536J-3536D01*
G01*
X19482105Y-6774106D01*
G75*
G02*
X19482105Y-6781177I-3536J-3536D01*
G01*
X19406091Y-6857191D01*
G75*
G02*
X19399020Y-6857191I-3536J3536D01*
G01*
X19381342Y-6839513D01*
G75*
G02*
X19381342Y-6832442I3536J3536D01*
G01*
G37*
G36*
G01*
X19345987Y-6797087D02*
X19422001Y-6721073D01*
G75*
G02*
X19429072Y-6721073I3536J-3536D01*
G01*
X19446750Y-6738750D01*
G75*
G02*
X19446750Y-6745821I-3536J-3536D01*
G01*
X19370736Y-6821835D01*
G75*
G02*
X19363665Y-6821835I-3536J3536D01*
G01*
X19345987Y-6804158D01*
G75*
G02*
X19345987Y-6797087I3536J3536D01*
G01*
G37*
G36*
G01*
X19310632Y-6761731D02*
X19386646Y-6685717D01*
G75*
G02*
X19393717Y-6685717I3536J-3536D01*
G01*
X19411394Y-6703395D01*
G75*
G02*
X19411394Y-6710466I-3536J-3536D01*
G01*
X19335380Y-6786480D01*
G75*
G02*
X19328309Y-6786480I-3536J3536D01*
G01*
X19310632Y-6768802D01*
G75*
G02*
X19310632Y-6761731I3536J3536D01*
G01*
G37*
G36*
G01*
X19275276Y-6726376D02*
X19351290Y-6650362D01*
G75*
G02*
X19358361Y-6650362I3536J-3536D01*
G01*
X19376039Y-6668040D01*
G75*
G02*
X19376039Y-6675111I-3536J-3536D01*
G01*
X19300025Y-6751125D01*
G75*
G02*
X19292954Y-6751125I-3536J3536D01*
G01*
X19275276Y-6733447D01*
G75*
G02*
X19275276Y-6726376I3536J3536D01*
G01*
G37*
G36*
G01*
X19239921Y-6691021D02*
X19315935Y-6615007D01*
G75*
G02*
X19323006Y-6615007I3536J-3536D01*
G01*
X19340684Y-6632684D01*
G75*
G02*
X19340684Y-6639755I-3536J-3536D01*
G01*
X19264670Y-6715769D01*
G75*
G02*
X19257599Y-6715769I-3536J3536D01*
G01*
X19239921Y-6698092D01*
G75*
G02*
X19239921Y-6691021I3536J3536D01*
G01*
G37*
G36*
G01*
X19204566Y-6655665D02*
X19280580Y-6579651D01*
G75*
G02*
X19287651Y-6579651I3536J-3536D01*
G01*
X19305328Y-6597329D01*
G75*
G02*
X19305328Y-6604400I-3536J-3536D01*
G01*
X19229314Y-6680414D01*
G75*
G02*
X19222243Y-6680414I-3536J3536D01*
G01*
X19204566Y-6662736D01*
G75*
G02*
X19204566Y-6655665I3536J3536D01*
G01*
G37*
G36*
G01*
X19169210Y-6620310D02*
X19245224Y-6544296D01*
G75*
G02*
X19252295Y-6544296I3536J-3536D01*
G01*
X19269973Y-6561974D01*
G75*
G02*
X19269973Y-6569045I-3536J-3536D01*
G01*
X19193959Y-6645059D01*
G75*
G02*
X19186888Y-6645059I-3536J3536D01*
G01*
X19169210Y-6627381D01*
G75*
G02*
X19169210Y-6620310I3536J3536D01*
G01*
G37*
G36*
G01*
X19133855Y-6584955D02*
X19209869Y-6508941D01*
G75*
G02*
X19216940Y-6508941I3536J-3536D01*
G01*
X19234618Y-6526618D01*
G75*
G02*
X19234618Y-6533689I-3536J-3536D01*
G01*
X19158604Y-6609703D01*
G75*
G02*
X19151533Y-6609703I-3536J3536D01*
G01*
X19133855Y-6592026D01*
G75*
G02*
X19133855Y-6584955I3536J3536D01*
G01*
G37*
G36*
G01*
X19098500Y-6549599D02*
X19174514Y-6473585D01*
G75*
G02*
X19181585Y-6473585I3536J-3536D01*
G01*
X19199262Y-6491263D01*
G75*
G02*
X19199262Y-6498334I-3536J-3536D01*
G01*
X19123248Y-6574348D01*
G75*
G02*
X19116177Y-6574348I-3536J3536D01*
G01*
X19098500Y-6556670D01*
G75*
G02*
X19098500Y-6549599I3536J3536D01*
G01*
G37*
G36*
G01*
X19063144Y-6514244D02*
X19139158Y-6438230D01*
G75*
G02*
X19146229Y-6438230I3536J-3536D01*
G01*
X19163907Y-6455908D01*
G75*
G02*
X19163907Y-6462979I-3536J-3536D01*
G01*
X19087893Y-6538993D01*
G75*
G02*
X19080822Y-6538993I-3536J3536D01*
G01*
X19063144Y-6521315D01*
G75*
G02*
X19063144Y-6514244I3536J3536D01*
G01*
G37*
G36*
G01*
X19155068Y-6425856D02*
X19522764Y-6058160D01*
G75*
G02*
X19529835Y-6058160I3536J-3536D01*
G01*
X19897530Y-6425856D01*
G75*
G02*
X19897530Y-6432927I-3536J-3536D01*
G01*
X19529835Y-6800622D01*
G75*
G02*
X19522764Y-6800622I-3536J3536D01*
G01*
X19155068Y-6432927D01*
G75*
G02*
X19155068Y-6425856I3536J3536D01*
G01*
G37*
G36*
G01*
X33419147Y-10019401D02*
X33494147Y-10019401D01*
G75*
G02*
X33521647Y-10046901I0J-27500D01*
G01*
X33521647Y-10101901D01*
G75*
G02*
X33494147Y-10129401I-27500J0D01*
G01*
X33419147Y-10129401D01*
G75*
G02*
X33391647Y-10101901I0J27500D01*
G01*
X33391647Y-10046901D01*
G75*
G02*
X33419147Y-10019401I27500J0D01*
G01*
G37*
G36*
G01*
X33419147Y-10349401D02*
X33494147Y-10349401D01*
G75*
G02*
X33521647Y-10376901I0J-27500D01*
G01*
X33521647Y-10431901D01*
G75*
G02*
X33494147Y-10459401I-27500J0D01*
G01*
X33419147Y-10459401D01*
G75*
G02*
X33391647Y-10431901I0J27500D01*
G01*
X33391647Y-10376901D01*
G75*
G02*
X33419147Y-10349401I27500J0D01*
G01*
G37*
G36*
G01*
X33181021Y-10019401D02*
X33256021Y-10019401D01*
G75*
G02*
X33283521Y-10046901I0J-27500D01*
G01*
X33283521Y-10101901D01*
G75*
G02*
X33256021Y-10129401I-27500J0D01*
G01*
X33181021Y-10129401D01*
G75*
G02*
X33153521Y-10101901I0J27500D01*
G01*
X33153521Y-10046901D01*
G75*
G02*
X33181021Y-10019401I27500J0D01*
G01*
G37*
G36*
G01*
X33181021Y-10349401D02*
X33256021Y-10349401D01*
G75*
G02*
X33283521Y-10376901I0J-27500D01*
G01*
X33283521Y-10431901D01*
G75*
G02*
X33256021Y-10459401I-27500J0D01*
G01*
X33181021Y-10459401D01*
G75*
G02*
X33153521Y-10431901I0J27500D01*
G01*
X33153521Y-10376901D01*
G75*
G02*
X33181021Y-10349401I27500J0D01*
G01*
G37*
G36*
G01*
X32898833Y-7869785D02*
X32823833Y-7869785D01*
G75*
G02*
X32796333Y-7842285I0J27500D01*
G01*
X32796333Y-7787285D01*
G75*
G02*
X32823833Y-7759785I27500J0D01*
G01*
X32898833Y-7759785D01*
G75*
G02*
X32926333Y-7787285I0J-27500D01*
G01*
X32926333Y-7842285D01*
G75*
G02*
X32898833Y-7869785I-27500J0D01*
G01*
G37*
G36*
G01*
X32898833Y-7539785D02*
X32823833Y-7539785D01*
G75*
G02*
X32796333Y-7512285I0J27500D01*
G01*
X32796333Y-7457285D01*
G75*
G02*
X32823833Y-7429785I27500J0D01*
G01*
X32898833Y-7429785D01*
G75*
G02*
X32926333Y-7457285I0J-27500D01*
G01*
X32926333Y-7512285D01*
G75*
G02*
X32898833Y-7539785I-27500J0D01*
G01*
G37*
G36*
G01*
X27198115Y-9930104D02*
X27273115Y-9930104D01*
G75*
G02*
X27300615Y-9957604I0J-27500D01*
G01*
X27300615Y-10012604D01*
G75*
G02*
X27273115Y-10040104I-27500J0D01*
G01*
X27198115Y-10040104D01*
G75*
G02*
X27170615Y-10012604I0J27500D01*
G01*
X27170615Y-9957604D01*
G75*
G02*
X27198115Y-9930104I27500J0D01*
G01*
G37*
G36*
G01*
X27198115Y-10260104D02*
X27273115Y-10260104D01*
G75*
G02*
X27300615Y-10287604I0J-27500D01*
G01*
X27300615Y-10342604D01*
G75*
G02*
X27273115Y-10370104I-27500J0D01*
G01*
X27198115Y-10370104D01*
G75*
G02*
X27170615Y-10342604I0J27500D01*
G01*
X27170615Y-10287604D01*
G75*
G02*
X27198115Y-10260104I27500J0D01*
G01*
G37*
G36*
G01*
X25293111Y-10078932D02*
X25368111Y-10078932D01*
G75*
G02*
X25395611Y-10106432I0J-27500D01*
G01*
X25395611Y-10161432D01*
G75*
G02*
X25368111Y-10188932I-27500J0D01*
G01*
X25293111Y-10188932D01*
G75*
G02*
X25265611Y-10161432I0J27500D01*
G01*
X25265611Y-10106432D01*
G75*
G02*
X25293111Y-10078932I27500J0D01*
G01*
G37*
G36*
G01*
X25293111Y-10408932D02*
X25368111Y-10408932D01*
G75*
G02*
X25395611Y-10436432I0J-27500D01*
G01*
X25395611Y-10491432D01*
G75*
G02*
X25368111Y-10518932I-27500J0D01*
G01*
X25293111Y-10518932D01*
G75*
G02*
X25265611Y-10491432I0J27500D01*
G01*
X25265611Y-10436432D01*
G75*
G02*
X25293111Y-10408932I27500J0D01*
G01*
G37*
G36*
G01*
X32660707Y-7869785D02*
X32585707Y-7869785D01*
G75*
G02*
X32558207Y-7842285I0J27500D01*
G01*
X32558207Y-7787285D01*
G75*
G02*
X32585707Y-7759785I27500J0D01*
G01*
X32660707Y-7759785D01*
G75*
G02*
X32688207Y-7787285I0J-27500D01*
G01*
X32688207Y-7842285D01*
G75*
G02*
X32660707Y-7869785I-27500J0D01*
G01*
G37*
G36*
G01*
X32660707Y-7539785D02*
X32585707Y-7539785D01*
G75*
G02*
X32558207Y-7512285I0J27500D01*
G01*
X32558207Y-7457285D01*
G75*
G02*
X32585707Y-7429785I27500J0D01*
G01*
X32660707Y-7429785D01*
G75*
G02*
X32688207Y-7457285I0J-27500D01*
G01*
X32688207Y-7512285D01*
G75*
G02*
X32660707Y-7539785I-27500J0D01*
G01*
G37*
D10*
X20256500Y-5207000D03*
D11*
X20002500Y-5715000D03*
D10*
X19621500Y-5461000D03*
D12*
X19494500Y-5715000D03*
X20510500Y-5715000D03*
G36*
G01*
X19161500Y-5586000D02*
X19161500Y-5336000D01*
G75*
G02*
X19166500Y-5331000I5000J0D01*
G01*
X19421500Y-5331000D01*
G75*
G02*
X19426500Y-5336000I0J-5000D01*
G01*
X19426500Y-5586000D01*
G75*
G02*
X19421500Y-5591000I-5000J0D01*
G01*
X19166500Y-5591000D01*
G75*
G02*
X19161500Y-5586000I0J5000D01*
G01*
G37*
G36*
G01*
X20454200Y-5332000D02*
X20454200Y-5082000D01*
G75*
G02*
X20459200Y-5077000I5000J0D01*
G01*
X20714200Y-5077000D01*
G75*
G02*
X20719200Y-5082000I0J-5000D01*
G01*
X20719200Y-5332000D01*
G75*
G02*
X20714200Y-5337000I-5000J0D01*
G01*
X20459200Y-5337000D01*
G75*
G02*
X20454200Y-5332000I0J5000D01*
G01*
G37*
G36*
G01*
X5609389Y-6415797D02*
X5664389Y-6415797D01*
G75*
G02*
X5691889Y-6443297I0J-27500D01*
G01*
X5691889Y-6548297D01*
G75*
G02*
X5664389Y-6575797I-27500J0D01*
G01*
X5609389Y-6575797D01*
G75*
G02*
X5581889Y-6548297I0J27500D01*
G01*
X5581889Y-6443297D01*
G75*
G02*
X5609389Y-6415797I27500J0D01*
G01*
G37*
G36*
G01*
X5266889Y-6415797D02*
X5366889Y-6415797D01*
G75*
G02*
X5371889Y-6420797I0J-5000D01*
G01*
X5371889Y-6570797D01*
G75*
G02*
X5366889Y-6575797I-5000J0D01*
G01*
X5266889Y-6575797D01*
G75*
G02*
X5261889Y-6570797I0J5000D01*
G01*
X5261889Y-6420797D01*
G75*
G02*
X5266889Y-6415797I5000J0D01*
G01*
G37*
G36*
G01*
X5586889Y-5925797D02*
X5686889Y-5925797D01*
G75*
G02*
X5691889Y-5930797I0J-5000D01*
G01*
X5691889Y-6080797D01*
G75*
G02*
X5686889Y-6085797I-5000J0D01*
G01*
X5586889Y-6085797D01*
G75*
G02*
X5581889Y-6080797I0J5000D01*
G01*
X5581889Y-5930797D01*
G75*
G02*
X5586889Y-5925797I5000J0D01*
G01*
G37*
G36*
G01*
X5266889Y-5925797D02*
X5366889Y-5925797D01*
G75*
G02*
X5371889Y-5930797I0J-5000D01*
G01*
X5371889Y-6080797D01*
G75*
G02*
X5366889Y-6085797I-5000J0D01*
G01*
X5266889Y-6085797D01*
G75*
G02*
X5261889Y-6080797I0J5000D01*
G01*
X5261889Y-5930797D01*
G75*
G02*
X5266889Y-5925797I5000J0D01*
G01*
G37*
G36*
G01*
X5609389Y-9600727D02*
X5664389Y-9600727D01*
G75*
G02*
X5691889Y-9628227I0J-27500D01*
G01*
X5691889Y-9733227D01*
G75*
G02*
X5664389Y-9760727I-27500J0D01*
G01*
X5609389Y-9760727D01*
G75*
G02*
X5581889Y-9733227I0J27500D01*
G01*
X5581889Y-9628227D01*
G75*
G02*
X5609389Y-9600727I27500J0D01*
G01*
G37*
G36*
G01*
X5266889Y-9600727D02*
X5366889Y-9600727D01*
G75*
G02*
X5371889Y-9605727I0J-5000D01*
G01*
X5371889Y-9755727D01*
G75*
G02*
X5366889Y-9760727I-5000J0D01*
G01*
X5266889Y-9760727D01*
G75*
G02*
X5261889Y-9755727I0J5000D01*
G01*
X5261889Y-9605727D01*
G75*
G02*
X5266889Y-9600727I5000J0D01*
G01*
G37*
G36*
G01*
X5586889Y-9110727D02*
X5686889Y-9110727D01*
G75*
G02*
X5691889Y-9115727I0J-5000D01*
G01*
X5691889Y-9265727D01*
G75*
G02*
X5686889Y-9270727I-5000J0D01*
G01*
X5586889Y-9270727D01*
G75*
G02*
X5581889Y-9265727I0J5000D01*
G01*
X5581889Y-9115727D01*
G75*
G02*
X5586889Y-9110727I5000J0D01*
G01*
G37*
G36*
G01*
X5266889Y-9110727D02*
X5366889Y-9110727D01*
G75*
G02*
X5371889Y-9115727I0J-5000D01*
G01*
X5371889Y-9265727D01*
G75*
G02*
X5366889Y-9270727I-5000J0D01*
G01*
X5266889Y-9270727D01*
G75*
G02*
X5261889Y-9265727I0J5000D01*
G01*
X5261889Y-9115727D01*
G75*
G02*
X5266889Y-9110727I5000J0D01*
G01*
G37*
D10*
X18113375Y-10922000D03*
D11*
X17859375Y-11430000D03*
D10*
X17478375Y-11176000D03*
D12*
X17351375Y-11430000D03*
X18367375Y-11430000D03*
G36*
G01*
X17018375Y-11301000D02*
X17018375Y-11051000D01*
G75*
G02*
X17023375Y-11046000I5000J0D01*
G01*
X17278375Y-11046000D01*
G75*
G02*
X17283375Y-11051000I0J-5000D01*
G01*
X17283375Y-11301000D01*
G75*
G02*
X17278375Y-11306000I-5000J0D01*
G01*
X17023375Y-11306000D01*
G75*
G02*
X17018375Y-11301000I0J5000D01*
G01*
G37*
G36*
G01*
X18311075Y-11047000D02*
X18311075Y-10797000D01*
G75*
G02*
X18316075Y-10792000I5000J0D01*
G01*
X18571075Y-10792000D01*
G75*
G02*
X18576075Y-10797000I0J-5000D01*
G01*
X18576075Y-11047000D01*
G75*
G02*
X18571075Y-11052000I-5000J0D01*
G01*
X18316075Y-11052000D01*
G75*
G02*
X18311075Y-11047000I0J5000D01*
G01*
G37*
D13*
X22859365Y-12128500D03*
X12859385Y-12128500D03*
D11*
X22859365Y-10604500D03*
X12859385Y-10604500D03*
G36*
G01*
X17539732Y-7988848D02*
X17464732Y-7988848D01*
G75*
G02*
X17437232Y-7961348I0J27500D01*
G01*
X17437232Y-7906348D01*
G75*
G02*
X17464732Y-7878848I27500J0D01*
G01*
X17539732Y-7878848D01*
G75*
G02*
X17567232Y-7906348I0J-27500D01*
G01*
X17567232Y-7961348D01*
G75*
G02*
X17539732Y-7988848I-27500J0D01*
G01*
G37*
G36*
G01*
X17539732Y-7658848D02*
X17464732Y-7658848D01*
G75*
G02*
X17437232Y-7631348I0J27500D01*
G01*
X17437232Y-7576348D01*
G75*
G02*
X17464732Y-7548848I27500J0D01*
G01*
X17539732Y-7548848D01*
G75*
G02*
X17567232Y-7576348I0J-27500D01*
G01*
X17567232Y-7631348D01*
G75*
G02*
X17539732Y-7658848I-27500J0D01*
G01*
G37*
G36*
G01*
X33494147Y-9923618D02*
X33419147Y-9923618D01*
G75*
G02*
X33391647Y-9896118I0J27500D01*
G01*
X33391647Y-9841118D01*
G75*
G02*
X33419147Y-9813618I27500J0D01*
G01*
X33494147Y-9813618D01*
G75*
G02*
X33521647Y-9841118I0J-27500D01*
G01*
X33521647Y-9896118D01*
G75*
G02*
X33494147Y-9923618I-27500J0D01*
G01*
G37*
G36*
G01*
X33494147Y-9593618D02*
X33419147Y-9593618D01*
G75*
G02*
X33391647Y-9566118I0J27500D01*
G01*
X33391647Y-9511118D01*
G75*
G02*
X33419147Y-9483618I27500J0D01*
G01*
X33494147Y-9483618D01*
G75*
G02*
X33521647Y-9511118I0J-27500D01*
G01*
X33521647Y-9566118D01*
G75*
G02*
X33494147Y-9593618I-27500J0D01*
G01*
G37*
G36*
G01*
X25159751Y-7869785D02*
X25084751Y-7869785D01*
G75*
G02*
X25057251Y-7842285I0J27500D01*
G01*
X25057251Y-7787285D01*
G75*
G02*
X25084751Y-7759785I27500J0D01*
G01*
X25159751Y-7759785D01*
G75*
G02*
X25187251Y-7787285I0J-27500D01*
G01*
X25187251Y-7842285D01*
G75*
G02*
X25159751Y-7869785I-27500J0D01*
G01*
G37*
G36*
G01*
X25159751Y-7539785D02*
X25084751Y-7539785D01*
G75*
G02*
X25057251Y-7512285I0J27500D01*
G01*
X25057251Y-7457285D01*
G75*
G02*
X25084751Y-7429785I27500J0D01*
G01*
X25159751Y-7429785D01*
G75*
G02*
X25187251Y-7457285I0J-27500D01*
G01*
X25187251Y-7512285D01*
G75*
G02*
X25159751Y-7539785I-27500J0D01*
G01*
G37*
G36*
G01*
X27064756Y-7869785D02*
X26989756Y-7869785D01*
G75*
G02*
X26962256Y-7842285I0J27500D01*
G01*
X26962256Y-7787285D01*
G75*
G02*
X26989756Y-7759785I27500J0D01*
G01*
X27064756Y-7759785D01*
G75*
G02*
X27092256Y-7787285I0J-27500D01*
G01*
X27092256Y-7842285D01*
G75*
G02*
X27064756Y-7869785I-27500J0D01*
G01*
G37*
G36*
G01*
X27064756Y-7539785D02*
X26989756Y-7539785D01*
G75*
G02*
X26962256Y-7512285I0J27500D01*
G01*
X26962256Y-7457285D01*
G75*
G02*
X26989756Y-7429785I27500J0D01*
G01*
X27064756Y-7429785D01*
G75*
G02*
X27092256Y-7457285I0J-27500D01*
G01*
X27092256Y-7512285D01*
G75*
G02*
X27064756Y-7539785I-27500J0D01*
G01*
G37*
G36*
G01*
X24207248Y-9774790D02*
X24132248Y-9774790D01*
G75*
G02*
X24104748Y-9747290I0J27500D01*
G01*
X24104748Y-9692290D01*
G75*
G02*
X24132248Y-9664790I27500J0D01*
G01*
X24207248Y-9664790D01*
G75*
G02*
X24234748Y-9692290I0J-27500D01*
G01*
X24234748Y-9747290D01*
G75*
G02*
X24207248Y-9774790I-27500J0D01*
G01*
G37*
G36*
G01*
X24207248Y-9444790D02*
X24132248Y-9444790D01*
G75*
G02*
X24104748Y-9417290I0J27500D01*
G01*
X24104748Y-9362290D01*
G75*
G02*
X24132248Y-9334790I27500J0D01*
G01*
X24207248Y-9334790D01*
G75*
G02*
X24234748Y-9362290I0J-27500D01*
G01*
X24234748Y-9417290D01*
G75*
G02*
X24207248Y-9444790I-27500J0D01*
G01*
G37*
G36*
G01*
X23254746Y-7869785D02*
X23179746Y-7869785D01*
G75*
G02*
X23152246Y-7842285I0J27500D01*
G01*
X23152246Y-7787285D01*
G75*
G02*
X23179746Y-7759785I27500J0D01*
G01*
X23254746Y-7759785D01*
G75*
G02*
X23282246Y-7787285I0J-27500D01*
G01*
X23282246Y-7842285D01*
G75*
G02*
X23254746Y-7869785I-27500J0D01*
G01*
G37*
G36*
G01*
X23254746Y-7539785D02*
X23179746Y-7539785D01*
G75*
G02*
X23152246Y-7512285I0J27500D01*
G01*
X23152246Y-7457285D01*
G75*
G02*
X23179746Y-7429785I27500J0D01*
G01*
X23254746Y-7429785D01*
G75*
G02*
X23282246Y-7457285I0J-27500D01*
G01*
X23282246Y-7512285D01*
G75*
G02*
X23254746Y-7539785I-27500J0D01*
G01*
G37*
G36*
G01*
X29132886Y-9930104D02*
X29207886Y-9930104D01*
G75*
G02*
X29235386Y-9957604I0J-27500D01*
G01*
X29235386Y-10012604D01*
G75*
G02*
X29207886Y-10040104I-27500J0D01*
G01*
X29132886Y-10040104D01*
G75*
G02*
X29105386Y-10012604I0J27500D01*
G01*
X29105386Y-9957604D01*
G75*
G02*
X29132886Y-9930104I27500J0D01*
G01*
G37*
G36*
G01*
X29132886Y-10260104D02*
X29207886Y-10260104D01*
G75*
G02*
X29235386Y-10287604I0J-27500D01*
G01*
X29235386Y-10342604D01*
G75*
G02*
X29207886Y-10370104I-27500J0D01*
G01*
X29132886Y-10370104D01*
G75*
G02*
X29105386Y-10342604I0J27500D01*
G01*
X29105386Y-10287604D01*
G75*
G02*
X29132886Y-10260104I27500J0D01*
G01*
G37*
G36*
G01*
X26112253Y-9774790D02*
X26037253Y-9774790D01*
G75*
G02*
X26009753Y-9747290I0J27500D01*
G01*
X26009753Y-9692290D01*
G75*
G02*
X26037253Y-9664790I27500J0D01*
G01*
X26112253Y-9664790D01*
G75*
G02*
X26139753Y-9692290I0J-27500D01*
G01*
X26139753Y-9747290D01*
G75*
G02*
X26112253Y-9774790I-27500J0D01*
G01*
G37*
G36*
G01*
X26112253Y-9444790D02*
X26037253Y-9444790D01*
G75*
G02*
X26009753Y-9417290I0J27500D01*
G01*
X26009753Y-9362290D01*
G75*
G02*
X26037253Y-9334790I27500J0D01*
G01*
X26112253Y-9334790D01*
G75*
G02*
X26139753Y-9362290I0J-27500D01*
G01*
X26139753Y-9417290D01*
G75*
G02*
X26112253Y-9444790I-27500J0D01*
G01*
G37*
G36*
G01*
X28969760Y-7869785D02*
X28894760Y-7869785D01*
G75*
G02*
X28867260Y-7842285I0J27500D01*
G01*
X28867260Y-7787285D01*
G75*
G02*
X28894760Y-7759785I27500J0D01*
G01*
X28969760Y-7759785D01*
G75*
G02*
X28997260Y-7787285I0J-27500D01*
G01*
X28997260Y-7842285D01*
G75*
G02*
X28969760Y-7869785I-27500J0D01*
G01*
G37*
G36*
G01*
X28969760Y-7539785D02*
X28894760Y-7539785D01*
G75*
G02*
X28867260Y-7512285I0J27500D01*
G01*
X28867260Y-7457285D01*
G75*
G02*
X28894760Y-7429785I27500J0D01*
G01*
X28969760Y-7429785D01*
G75*
G02*
X28997260Y-7457285I0J-27500D01*
G01*
X28997260Y-7512285D01*
G75*
G02*
X28969760Y-7539785I-27500J0D01*
G01*
G37*
G36*
G01*
X30636633Y-9774790D02*
X30561633Y-9774790D01*
G75*
G02*
X30534133Y-9747290I0J27500D01*
G01*
X30534133Y-9692290D01*
G75*
G02*
X30561633Y-9664790I27500J0D01*
G01*
X30636633Y-9664790D01*
G75*
G02*
X30664133Y-9692290I0J-27500D01*
G01*
X30664133Y-9747290D01*
G75*
G02*
X30636633Y-9774790I-27500J0D01*
G01*
G37*
G36*
G01*
X30636633Y-9444790D02*
X30561633Y-9444790D01*
G75*
G02*
X30534133Y-9417290I0J27500D01*
G01*
X30534133Y-9362290D01*
G75*
G02*
X30561633Y-9334790I27500J0D01*
G01*
X30636633Y-9334790D01*
G75*
G02*
X30664133Y-9362290I0J-27500D01*
G01*
X30664133Y-9417290D01*
G75*
G02*
X30636633Y-9444790I-27500J0D01*
G01*
G37*
G36*
G01*
X29698434Y-9930104D02*
X29773434Y-9930104D01*
G75*
G02*
X29800934Y-9957604I0J-27500D01*
G01*
X29800934Y-10012604D01*
G75*
G02*
X29773434Y-10040104I-27500J0D01*
G01*
X29698434Y-10040104D01*
G75*
G02*
X29670934Y-10012604I0J27500D01*
G01*
X29670934Y-9957604D01*
G75*
G02*
X29698434Y-9930104I27500J0D01*
G01*
G37*
G36*
G01*
X29698434Y-10260104D02*
X29773434Y-10260104D01*
G75*
G02*
X29800934Y-10287604I0J-27500D01*
G01*
X29800934Y-10342604D01*
G75*
G02*
X29773434Y-10370104I-27500J0D01*
G01*
X29698434Y-10370104D01*
G75*
G02*
X29670934Y-10342604I0J27500D01*
G01*
X29670934Y-10287604D01*
G75*
G02*
X29698434Y-10260104I27500J0D01*
G01*
G37*
G36*
G01*
X28017258Y-9774790D02*
X27942258Y-9774790D01*
G75*
G02*
X27914758Y-9747290I0J27500D01*
G01*
X27914758Y-9692290D01*
G75*
G02*
X27942258Y-9664790I27500J0D01*
G01*
X28017258Y-9664790D01*
G75*
G02*
X28044758Y-9692290I0J-27500D01*
G01*
X28044758Y-9747290D01*
G75*
G02*
X28017258Y-9774790I-27500J0D01*
G01*
G37*
G36*
G01*
X28017258Y-9444790D02*
X27942258Y-9444790D01*
G75*
G02*
X27914758Y-9417290I0J27500D01*
G01*
X27914758Y-9362290D01*
G75*
G02*
X27942258Y-9334790I27500J0D01*
G01*
X28017258Y-9334790D01*
G75*
G02*
X28044758Y-9362290I0J-27500D01*
G01*
X28044758Y-9417290D01*
G75*
G02*
X28017258Y-9444790I-27500J0D01*
G01*
G37*
G36*
G01*
X33256021Y-9923618D02*
X33181021Y-9923618D01*
G75*
G02*
X33153521Y-9896118I0J27500D01*
G01*
X33153521Y-9841118D01*
G75*
G02*
X33181021Y-9813618I27500J0D01*
G01*
X33256021Y-9813618D01*
G75*
G02*
X33283521Y-9841118I0J-27500D01*
G01*
X33283521Y-9896118D01*
G75*
G02*
X33256021Y-9923618I-27500J0D01*
G01*
G37*
G36*
G01*
X33256021Y-9593618D02*
X33181021Y-9593618D01*
G75*
G02*
X33153521Y-9566118I0J27500D01*
G01*
X33153521Y-9511118D01*
G75*
G02*
X33181021Y-9483618I27500J0D01*
G01*
X33256021Y-9483618D01*
G75*
G02*
X33283521Y-9511118I0J-27500D01*
G01*
X33283521Y-9566118D01*
G75*
G02*
X33256021Y-9593618I-27500J0D01*
G01*
G37*
G36*
G01*
X20397239Y-9774790D02*
X20322239Y-9774790D01*
G75*
G02*
X20294739Y-9747290I0J27500D01*
G01*
X20294739Y-9692290D01*
G75*
G02*
X20322239Y-9664790I27500J0D01*
G01*
X20397239Y-9664790D01*
G75*
G02*
X20424739Y-9692290I0J-27500D01*
G01*
X20424739Y-9747290D01*
G75*
G02*
X20397239Y-9774790I-27500J0D01*
G01*
G37*
G36*
G01*
X20397239Y-9444790D02*
X20322239Y-9444790D01*
G75*
G02*
X20294739Y-9417290I0J27500D01*
G01*
X20294739Y-9362290D01*
G75*
G02*
X20322239Y-9334790I27500J0D01*
G01*
X20397239Y-9334790D01*
G75*
G02*
X20424739Y-9362290I0J-27500D01*
G01*
X20424739Y-9417290D01*
G75*
G02*
X20397239Y-9444790I-27500J0D01*
G01*
G37*
G36*
G01*
X22302244Y-9774790D02*
X22227244Y-9774790D01*
G75*
G02*
X22199744Y-9747290I0J27500D01*
G01*
X22199744Y-9692290D01*
G75*
G02*
X22227244Y-9664790I27500J0D01*
G01*
X22302244Y-9664790D01*
G75*
G02*
X22329744Y-9692290I0J-27500D01*
G01*
X22329744Y-9747290D01*
G75*
G02*
X22302244Y-9774790I-27500J0D01*
G01*
G37*
G36*
G01*
X22302244Y-9444790D02*
X22227244Y-9444790D01*
G75*
G02*
X22199744Y-9417290I0J27500D01*
G01*
X22199744Y-9362290D01*
G75*
G02*
X22227244Y-9334790I27500J0D01*
G01*
X22302244Y-9334790D01*
G75*
G02*
X22329744Y-9362290I0J-27500D01*
G01*
X22329744Y-9417290D01*
G75*
G02*
X22302244Y-9444790I-27500J0D01*
G01*
G37*
G36*
G01*
X21349741Y-7869785D02*
X21274741Y-7869785D01*
G75*
G02*
X21247241Y-7842285I0J27500D01*
G01*
X21247241Y-7787285D01*
G75*
G02*
X21274741Y-7759785I27500J0D01*
G01*
X21349741Y-7759785D01*
G75*
G02*
X21377241Y-7787285I0J-27500D01*
G01*
X21377241Y-7842285D01*
G75*
G02*
X21349741Y-7869785I-27500J0D01*
G01*
G37*
G36*
G01*
X21349741Y-7539785D02*
X21274741Y-7539785D01*
G75*
G02*
X21247241Y-7512285I0J27500D01*
G01*
X21247241Y-7457285D01*
G75*
G02*
X21274741Y-7429785I27500J0D01*
G01*
X21349741Y-7429785D01*
G75*
G02*
X21377241Y-7457285I0J-27500D01*
G01*
X21377241Y-7512285D01*
G75*
G02*
X21349741Y-7539785I-27500J0D01*
G01*
G37*
G36*
G01*
X17732623Y-10078932D02*
X17807623Y-10078932D01*
G75*
G02*
X17835123Y-10106432I0J-27500D01*
G01*
X17835123Y-10161432D01*
G75*
G02*
X17807623Y-10188932I-27500J0D01*
G01*
X17732623Y-10188932D01*
G75*
G02*
X17705123Y-10161432I0J27500D01*
G01*
X17705123Y-10106432D01*
G75*
G02*
X17732623Y-10078932I27500J0D01*
G01*
G37*
G36*
G01*
X17732623Y-10408932D02*
X17807623Y-10408932D01*
G75*
G02*
X17835123Y-10436432I0J-27500D01*
G01*
X17835123Y-10491432D01*
G75*
G02*
X17807623Y-10518932I-27500J0D01*
G01*
X17732623Y-10518932D01*
G75*
G02*
X17705123Y-10491432I0J27500D01*
G01*
X17705123Y-10436432D01*
G75*
G02*
X17732623Y-10408932I27500J0D01*
G01*
G37*
G36*
G01*
X18492234Y-9774790D02*
X18417234Y-9774790D01*
G75*
G02*
X18389734Y-9747290I0J27500D01*
G01*
X18389734Y-9692290D01*
G75*
G02*
X18417234Y-9664790I27500J0D01*
G01*
X18492234Y-9664790D01*
G75*
G02*
X18519734Y-9692290I0J-27500D01*
G01*
X18519734Y-9747290D01*
G75*
G02*
X18492234Y-9774790I-27500J0D01*
G01*
G37*
G36*
G01*
X18492234Y-9444790D02*
X18417234Y-9444790D01*
G75*
G02*
X18389734Y-9417290I0J27500D01*
G01*
X18389734Y-9362290D01*
G75*
G02*
X18417234Y-9334790I27500J0D01*
G01*
X18492234Y-9334790D01*
G75*
G02*
X18519734Y-9362290I0J-27500D01*
G01*
X18519734Y-9417290D01*
G75*
G02*
X18492234Y-9444790I-27500J0D01*
G01*
G37*
G36*
G01*
X17777857Y-7988848D02*
X17702857Y-7988848D01*
G75*
G02*
X17675357Y-7961348I0J27500D01*
G01*
X17675357Y-7906348D01*
G75*
G02*
X17702857Y-7878848I27500J0D01*
G01*
X17777857Y-7878848D01*
G75*
G02*
X17805357Y-7906348I0J-27500D01*
G01*
X17805357Y-7961348D01*
G75*
G02*
X17777857Y-7988848I-27500J0D01*
G01*
G37*
G36*
G01*
X17777857Y-7658848D02*
X17702857Y-7658848D01*
G75*
G02*
X17675357Y-7631348I0J27500D01*
G01*
X17675357Y-7576348D01*
G75*
G02*
X17702857Y-7548848I27500J0D01*
G01*
X17777857Y-7548848D01*
G75*
G02*
X17805357Y-7576348I0J-27500D01*
G01*
X17805357Y-7631348D01*
G75*
G02*
X17777857Y-7658848I-27500J0D01*
G01*
G37*
G36*
G01*
X16587229Y-9774790D02*
X16512229Y-9774790D01*
G75*
G02*
X16484729Y-9747290I0J27500D01*
G01*
X16484729Y-9692290D01*
G75*
G02*
X16512229Y-9664790I27500J0D01*
G01*
X16587229Y-9664790D01*
G75*
G02*
X16614729Y-9692290I0J-27500D01*
G01*
X16614729Y-9747290D01*
G75*
G02*
X16587229Y-9774790I-27500J0D01*
G01*
G37*
G36*
G01*
X16587229Y-9444790D02*
X16512229Y-9444790D01*
G75*
G02*
X16484729Y-9417290I0J27500D01*
G01*
X16484729Y-9362290D01*
G75*
G02*
X16512229Y-9334790I27500J0D01*
G01*
X16587229Y-9334790D01*
G75*
G02*
X16614729Y-9362290I0J-27500D01*
G01*
X16614729Y-9417290D01*
G75*
G02*
X16587229Y-9444790I-27500J0D01*
G01*
G37*
G36*
G01*
X8014708Y-7869785D02*
X7939708Y-7869785D01*
G75*
G02*
X7912208Y-7842285I0J27500D01*
G01*
X7912208Y-7787285D01*
G75*
G02*
X7939708Y-7759785I27500J0D01*
G01*
X8014708Y-7759785D01*
G75*
G02*
X8042208Y-7787285I0J-27500D01*
G01*
X8042208Y-7842285D01*
G75*
G02*
X8014708Y-7869785I-27500J0D01*
G01*
G37*
G36*
G01*
X8014708Y-7539785D02*
X7939708Y-7539785D01*
G75*
G02*
X7912208Y-7512285I0J27500D01*
G01*
X7912208Y-7457285D01*
G75*
G02*
X7939708Y-7429785I27500J0D01*
G01*
X8014708Y-7429785D01*
G75*
G02*
X8042208Y-7457285I0J-27500D01*
G01*
X8042208Y-7512285D01*
G75*
G02*
X8014708Y-7539785I-27500J0D01*
G01*
G37*
G36*
G01*
X9919712Y-7869785D02*
X9844712Y-7869785D01*
G75*
G02*
X9817212Y-7842285I0J27500D01*
G01*
X9817212Y-7787285D01*
G75*
G02*
X9844712Y-7759785I27500J0D01*
G01*
X9919712Y-7759785D01*
G75*
G02*
X9947212Y-7787285I0J-27500D01*
G01*
X9947212Y-7842285D01*
G75*
G02*
X9919712Y-7869785I-27500J0D01*
G01*
G37*
G36*
G01*
X9919712Y-7539785D02*
X9844712Y-7539785D01*
G75*
G02*
X9817212Y-7512285I0J27500D01*
G01*
X9817212Y-7457285D01*
G75*
G02*
X9844712Y-7429785I27500J0D01*
G01*
X9919712Y-7429785D01*
G75*
G02*
X9947212Y-7457285I0J-27500D01*
G01*
X9947212Y-7512285D01*
G75*
G02*
X9919712Y-7539785I-27500J0D01*
G01*
G37*
G36*
G01*
X15634727Y-7869785D02*
X15559727Y-7869785D01*
G75*
G02*
X15532227Y-7842285I0J27500D01*
G01*
X15532227Y-7787285D01*
G75*
G02*
X15559727Y-7759785I27500J0D01*
G01*
X15634727Y-7759785D01*
G75*
G02*
X15662227Y-7787285I0J-27500D01*
G01*
X15662227Y-7842285D01*
G75*
G02*
X15634727Y-7869785I-27500J0D01*
G01*
G37*
G36*
G01*
X15634727Y-7539785D02*
X15559727Y-7539785D01*
G75*
G02*
X15532227Y-7512285I0J27500D01*
G01*
X15532227Y-7457285D01*
G75*
G02*
X15559727Y-7429785I27500J0D01*
G01*
X15634727Y-7429785D01*
G75*
G02*
X15662227Y-7457285I0J-27500D01*
G01*
X15662227Y-7512285D01*
G75*
G02*
X15634727Y-7539785I-27500J0D01*
G01*
G37*
G36*
G01*
X8967210Y-9774790D02*
X8892210Y-9774790D01*
G75*
G02*
X8864710Y-9747290I0J27500D01*
G01*
X8864710Y-9692290D01*
G75*
G02*
X8892210Y-9664790I27500J0D01*
G01*
X8967210Y-9664790D01*
G75*
G02*
X8994710Y-9692290I0J-27500D01*
G01*
X8994710Y-9747290D01*
G75*
G02*
X8967210Y-9774790I-27500J0D01*
G01*
G37*
G36*
G01*
X8967210Y-9444790D02*
X8892210Y-9444790D01*
G75*
G02*
X8864710Y-9417290I0J27500D01*
G01*
X8864710Y-9362290D01*
G75*
G02*
X8892210Y-9334790I27500J0D01*
G01*
X8967210Y-9334790D01*
G75*
G02*
X8994710Y-9362290I0J-27500D01*
G01*
X8994710Y-9417290D01*
G75*
G02*
X8967210Y-9444790I-27500J0D01*
G01*
G37*
G36*
G01*
X13729722Y-7869785D02*
X13654722Y-7869785D01*
G75*
G02*
X13627222Y-7842285I0J27500D01*
G01*
X13627222Y-7787285D01*
G75*
G02*
X13654722Y-7759785I27500J0D01*
G01*
X13729722Y-7759785D01*
G75*
G02*
X13757222Y-7787285I0J-27500D01*
G01*
X13757222Y-7842285D01*
G75*
G02*
X13729722Y-7869785I-27500J0D01*
G01*
G37*
G36*
G01*
X13729722Y-7539785D02*
X13654722Y-7539785D01*
G75*
G02*
X13627222Y-7512285I0J27500D01*
G01*
X13627222Y-7457285D01*
G75*
G02*
X13654722Y-7429785I27500J0D01*
G01*
X13729722Y-7429785D01*
G75*
G02*
X13757222Y-7457285I0J-27500D01*
G01*
X13757222Y-7512285D01*
G75*
G02*
X13729722Y-7539785I-27500J0D01*
G01*
G37*
G36*
G01*
X9963775Y-9989635D02*
X10038775Y-9989635D01*
G75*
G02*
X10066275Y-10017135I0J-27500D01*
G01*
X10066275Y-10072135D01*
G75*
G02*
X10038775Y-10099635I-27500J0D01*
G01*
X9963775Y-10099635D01*
G75*
G02*
X9936275Y-10072135I0J27500D01*
G01*
X9936275Y-10017135D01*
G75*
G02*
X9963775Y-9989635I27500J0D01*
G01*
G37*
G36*
G01*
X9963775Y-10319635D02*
X10038775Y-10319635D01*
G75*
G02*
X10066275Y-10347135I0J-27500D01*
G01*
X10066275Y-10402135D01*
G75*
G02*
X10038775Y-10429635I-27500J0D01*
G01*
X9963775Y-10429635D01*
G75*
G02*
X9936275Y-10402135I0J27500D01*
G01*
X9936275Y-10347135D01*
G75*
G02*
X9963775Y-10319635I27500J0D01*
G01*
G37*
G36*
G01*
X10872215Y-9774790D02*
X10797215Y-9774790D01*
G75*
G02*
X10769715Y-9747290I0J27500D01*
G01*
X10769715Y-9692290D01*
G75*
G02*
X10797215Y-9664790I27500J0D01*
G01*
X10872215Y-9664790D01*
G75*
G02*
X10899715Y-9692290I0J-27500D01*
G01*
X10899715Y-9747290D01*
G75*
G02*
X10872215Y-9774790I-27500J0D01*
G01*
G37*
G36*
G01*
X10872215Y-9444790D02*
X10797215Y-9444790D01*
G75*
G02*
X10769715Y-9417290I0J27500D01*
G01*
X10769715Y-9362290D01*
G75*
G02*
X10797215Y-9334790I27500J0D01*
G01*
X10872215Y-9334790D01*
G75*
G02*
X10899715Y-9362290I0J-27500D01*
G01*
X10899715Y-9417290D01*
G75*
G02*
X10872215Y-9444790I-27500J0D01*
G01*
G37*
G36*
G01*
X11824717Y-7869785D02*
X11749717Y-7869785D01*
G75*
G02*
X11722217Y-7842285I0J27500D01*
G01*
X11722217Y-7787285D01*
G75*
G02*
X11749717Y-7759785I27500J0D01*
G01*
X11824717Y-7759785D01*
G75*
G02*
X11852217Y-7787285I0J-27500D01*
G01*
X11852217Y-7842285D01*
G75*
G02*
X11824717Y-7869785I-27500J0D01*
G01*
G37*
G36*
G01*
X11824717Y-7539785D02*
X11749717Y-7539785D01*
G75*
G02*
X11722217Y-7512285I0J27500D01*
G01*
X11722217Y-7457285D01*
G75*
G02*
X11749717Y-7429785I27500J0D01*
G01*
X11824717Y-7429785D01*
G75*
G02*
X11852217Y-7457285I0J-27500D01*
G01*
X11852217Y-7512285D01*
G75*
G02*
X11824717Y-7539785I-27500J0D01*
G01*
G37*
G36*
G01*
X14682224Y-9774790D02*
X14607224Y-9774790D01*
G75*
G02*
X14579724Y-9747290I0J27500D01*
G01*
X14579724Y-9692290D01*
G75*
G02*
X14607224Y-9664790I27500J0D01*
G01*
X14682224Y-9664790D01*
G75*
G02*
X14709724Y-9692290I0J-27500D01*
G01*
X14709724Y-9747290D01*
G75*
G02*
X14682224Y-9774790I-27500J0D01*
G01*
G37*
G36*
G01*
X14682224Y-9444790D02*
X14607224Y-9444790D01*
G75*
G02*
X14579724Y-9417290I0J27500D01*
G01*
X14579724Y-9362290D01*
G75*
G02*
X14607224Y-9334790I27500J0D01*
G01*
X14682224Y-9334790D01*
G75*
G02*
X14709724Y-9362290I0J-27500D01*
G01*
X14709724Y-9417290D01*
G75*
G02*
X14682224Y-9444790I-27500J0D01*
G01*
G37*
G36*
G01*
X8892210Y-9989635D02*
X8967210Y-9989635D01*
G75*
G02*
X8994710Y-10017135I0J-27500D01*
G01*
X8994710Y-10072135D01*
G75*
G02*
X8967210Y-10099635I-27500J0D01*
G01*
X8892210Y-10099635D01*
G75*
G02*
X8864710Y-10072135I0J27500D01*
G01*
X8864710Y-10017135D01*
G75*
G02*
X8892210Y-9989635I27500J0D01*
G01*
G37*
G36*
G01*
X8892210Y-10319635D02*
X8967210Y-10319635D01*
G75*
G02*
X8994710Y-10347135I0J-27500D01*
G01*
X8994710Y-10402135D01*
G75*
G02*
X8967210Y-10429635I-27500J0D01*
G01*
X8892210Y-10429635D01*
G75*
G02*
X8864710Y-10402135I0J27500D01*
G01*
X8864710Y-10347135D01*
G75*
G02*
X8892210Y-10319635I27500J0D01*
G01*
G37*
G36*
G01*
X6243063Y-9989635D02*
X6318063Y-9989635D01*
G75*
G02*
X6345563Y-10017135I0J-27500D01*
G01*
X6345563Y-10072135D01*
G75*
G02*
X6318063Y-10099635I-27500J0D01*
G01*
X6243063Y-10099635D01*
G75*
G02*
X6215563Y-10072135I0J27500D01*
G01*
X6215563Y-10017135D01*
G75*
G02*
X6243063Y-9989635I27500J0D01*
G01*
G37*
G36*
G01*
X6243063Y-10319635D02*
X6318063Y-10319635D01*
G75*
G02*
X6345563Y-10347135I0J-27500D01*
G01*
X6345563Y-10402135D01*
G75*
G02*
X6318063Y-10429635I-27500J0D01*
G01*
X6243063Y-10429635D01*
G75*
G02*
X6215563Y-10402135I0J27500D01*
G01*
X6215563Y-10347135D01*
G75*
G02*
X6243063Y-10319635I27500J0D01*
G01*
G37*
G36*
G01*
X12777220Y-9774790D02*
X12702220Y-9774790D01*
G75*
G02*
X12674720Y-9747290I0J27500D01*
G01*
X12674720Y-9692290D01*
G75*
G02*
X12702220Y-9664790I27500J0D01*
G01*
X12777220Y-9664790D01*
G75*
G02*
X12804720Y-9692290I0J-27500D01*
G01*
X12804720Y-9747290D01*
G75*
G02*
X12777220Y-9774790I-27500J0D01*
G01*
G37*
G36*
G01*
X12777220Y-9444790D02*
X12702220Y-9444790D01*
G75*
G02*
X12674720Y-9417290I0J27500D01*
G01*
X12674720Y-9362290D01*
G75*
G02*
X12702220Y-9334790I27500J0D01*
G01*
X12777220Y-9334790D01*
G75*
G02*
X12804720Y-9362290I0J-27500D01*
G01*
X12804720Y-9417290D01*
G75*
G02*
X12777220Y-9444790I-27500J0D01*
G01*
G37*
D10*
X34544000Y-10922000D03*
D11*
X34290000Y-11430000D03*
D10*
X33909000Y-11176000D03*
D12*
X33782000Y-11430000D03*
X34798000Y-11430000D03*
G36*
G01*
X33449000Y-11301000D02*
X33449000Y-11051000D01*
G75*
G02*
X33454000Y-11046000I5000J0D01*
G01*
X33709000Y-11046000D01*
G75*
G02*
X33714000Y-11051000I0J-5000D01*
G01*
X33714000Y-11301000D01*
G75*
G02*
X33709000Y-11306000I-5000J0D01*
G01*
X33454000Y-11306000D01*
G75*
G02*
X33449000Y-11301000I0J5000D01*
G01*
G37*
G36*
G01*
X34741700Y-11047000D02*
X34741700Y-10797000D01*
G75*
G02*
X34746700Y-10792000I5000J0D01*
G01*
X35001700Y-10792000D01*
G75*
G02*
X35006700Y-10797000I0J-5000D01*
G01*
X35006700Y-11047000D01*
G75*
G02*
X35001700Y-11052000I-5000J0D01*
G01*
X34746700Y-11052000D01*
G75*
G02*
X34741700Y-11047000I0J5000D01*
G01*
G37*
G36*
G01*
X17328949Y-6439625D02*
X17328949Y-6534625D01*
G75*
G02*
X17323949Y-6539625I-5000J0D01*
G01*
X17243949Y-6539625D01*
G75*
G02*
X17238949Y-6534625I0J5000D01*
G01*
X17238949Y-6439625D01*
G75*
G02*
X17243949Y-6434625I5000J0D01*
G01*
X17323949Y-6434625D01*
G75*
G02*
X17328949Y-6439625I0J-5000D01*
G01*
G37*
G36*
G01*
X17493949Y-6439625D02*
X17493949Y-6534625D01*
G75*
G02*
X17488949Y-6539625I-5000J0D01*
G01*
X17408949Y-6539625D01*
G75*
G02*
X17403949Y-6534625I0J5000D01*
G01*
X17403949Y-6439625D01*
G75*
G02*
X17408949Y-6434625I5000J0D01*
G01*
X17488949Y-6434625D01*
G75*
G02*
X17493949Y-6439625I0J-5000D01*
G01*
G37*
G36*
G01*
X17328949Y-6264625D02*
X17328949Y-6359625D01*
G75*
G02*
X17323949Y-6364625I-5000J0D01*
G01*
X17243949Y-6364625D01*
G75*
G02*
X17238949Y-6359625I0J5000D01*
G01*
X17238949Y-6264625D01*
G75*
G02*
X17243949Y-6259625I5000J0D01*
G01*
X17323949Y-6259625D01*
G75*
G02*
X17328949Y-6264625I0J-5000D01*
G01*
G37*
G36*
G01*
X17493949Y-6264625D02*
X17493949Y-6359625D01*
G75*
G02*
X17488949Y-6364625I-5000J0D01*
G01*
X17408949Y-6364625D01*
G75*
G02*
X17403949Y-6359625I0J5000D01*
G01*
X17403949Y-6264625D01*
G75*
G02*
X17408949Y-6259625I5000J0D01*
G01*
X17488949Y-6259625D01*
G75*
G02*
X17493949Y-6264625I0J-5000D01*
G01*
G37*
G36*
G01*
X33181021Y-4780638D02*
X33256021Y-4780638D01*
G75*
G02*
X33283521Y-4808138I0J-27500D01*
G01*
X33283521Y-4863138D01*
G75*
G02*
X33256021Y-4890638I-27500J0D01*
G01*
X33181021Y-4890638D01*
G75*
G02*
X33153521Y-4863138I0J27500D01*
G01*
X33153521Y-4808138D01*
G75*
G02*
X33181021Y-4780638I27500J0D01*
G01*
G37*
G36*
G01*
X33181021Y-5110638D02*
X33256021Y-5110638D01*
G75*
G02*
X33283521Y-5138138I0J-27500D01*
G01*
X33283521Y-5193138D01*
G75*
G02*
X33256021Y-5220638I-27500J0D01*
G01*
X33181021Y-5220638D01*
G75*
G02*
X33153521Y-5193138I0J27500D01*
G01*
X33153521Y-5138138D01*
G75*
G02*
X33181021Y-5110638I27500J0D01*
G01*
G37*
G36*
G01*
X24697797Y-4780638D02*
X24772797Y-4780638D01*
G75*
G02*
X24800297Y-4808138I0J-27500D01*
G01*
X24800297Y-4863138D01*
G75*
G02*
X24772797Y-4890638I-27500J0D01*
G01*
X24697797Y-4890638D01*
G75*
G02*
X24670297Y-4863138I0J27500D01*
G01*
X24670297Y-4808138D01*
G75*
G02*
X24697797Y-4780638I27500J0D01*
G01*
G37*
G36*
G01*
X24697797Y-5110638D02*
X24772797Y-5110638D01*
G75*
G02*
X24800297Y-5138138I0J-27500D01*
G01*
X24800297Y-5193138D01*
G75*
G02*
X24772797Y-5220638I-27500J0D01*
G01*
X24697797Y-5220638D01*
G75*
G02*
X24670297Y-5193138I0J27500D01*
G01*
X24670297Y-5138138D01*
G75*
G02*
X24697797Y-5110638I27500J0D01*
G01*
G37*
G36*
G01*
X32422574Y-4030010D02*
X32347574Y-4030010D01*
G75*
G02*
X32320074Y-4002510I0J27500D01*
G01*
X32320074Y-3947510D01*
G75*
G02*
X32347574Y-3920010I27500J0D01*
G01*
X32422574Y-3920010D01*
G75*
G02*
X32450074Y-3947510I0J-27500D01*
G01*
X32450074Y-4002510D01*
G75*
G02*
X32422574Y-4030010I-27500J0D01*
G01*
G37*
G36*
G01*
X32422574Y-3700010D02*
X32347574Y-3700010D01*
G75*
G02*
X32320074Y-3672510I0J27500D01*
G01*
X32320074Y-3617510D01*
G75*
G02*
X32347574Y-3590010I27500J0D01*
G01*
X32422574Y-3590010D01*
G75*
G02*
X32450074Y-3617510I0J-27500D01*
G01*
X32450074Y-3672510D01*
G75*
G02*
X32422574Y-3700010I-27500J0D01*
G01*
G37*
G36*
G01*
X20887787Y-4780638D02*
X20962787Y-4780638D01*
G75*
G02*
X20990287Y-4808138I0J-27500D01*
G01*
X20990287Y-4863138D01*
G75*
G02*
X20962787Y-4890638I-27500J0D01*
G01*
X20887787Y-4890638D01*
G75*
G02*
X20860287Y-4863138I0J27500D01*
G01*
X20860287Y-4808138D01*
G75*
G02*
X20887787Y-4780638I27500J0D01*
G01*
G37*
G36*
G01*
X20887787Y-5110638D02*
X20962787Y-5110638D01*
G75*
G02*
X20990287Y-5138138I0J-27500D01*
G01*
X20990287Y-5193138D01*
G75*
G02*
X20962787Y-5220638I-27500J0D01*
G01*
X20887787Y-5220638D01*
G75*
G02*
X20860287Y-5193138I0J27500D01*
G01*
X20860287Y-5138138D01*
G75*
G02*
X20887787Y-5110638I27500J0D01*
G01*
G37*
G36*
G01*
X18016012Y-4059775D02*
X17941012Y-4059775D01*
G75*
G02*
X17913512Y-4032275I0J27500D01*
G01*
X17913512Y-3977275D01*
G75*
G02*
X17941012Y-3949775I27500J0D01*
G01*
X18016012Y-3949775D01*
G75*
G02*
X18043512Y-3977275I0J-27500D01*
G01*
X18043512Y-4032275D01*
G75*
G02*
X18016012Y-4059775I-27500J0D01*
G01*
G37*
G36*
G01*
X18016012Y-3729775D02*
X17941012Y-3729775D01*
G75*
G02*
X17913512Y-3702275I0J27500D01*
G01*
X17913512Y-3647275D01*
G75*
G02*
X17941012Y-3619775I27500J0D01*
G01*
X18016012Y-3619775D01*
G75*
G02*
X18043512Y-3647275I0J-27500D01*
G01*
X18043512Y-3702275D01*
G75*
G02*
X18016012Y-3729775I-27500J0D01*
G01*
G37*
G36*
G01*
X28745932Y-4780638D02*
X28820932Y-4780638D01*
G75*
G02*
X28848432Y-4808138I0J-27500D01*
G01*
X28848432Y-4863138D01*
G75*
G02*
X28820932Y-4890638I-27500J0D01*
G01*
X28745932Y-4890638D01*
G75*
G02*
X28718432Y-4863138I0J27500D01*
G01*
X28718432Y-4808138D01*
G75*
G02*
X28745932Y-4780638I27500J0D01*
G01*
G37*
G36*
G01*
X28745932Y-5110638D02*
X28820932Y-5110638D01*
G75*
G02*
X28848432Y-5138138I0J-27500D01*
G01*
X28848432Y-5193138D01*
G75*
G02*
X28820932Y-5220638I-27500J0D01*
G01*
X28745932Y-5220638D01*
G75*
G02*
X28718432Y-5193138I0J27500D01*
G01*
X28718432Y-5138138D01*
G75*
G02*
X28745932Y-5110638I27500J0D01*
G01*
G37*
G36*
G01*
X29446012Y-4059775D02*
X29371012Y-4059775D01*
G75*
G02*
X29343512Y-4032275I0J27500D01*
G01*
X29343512Y-3977275D01*
G75*
G02*
X29371012Y-3949775I27500J0D01*
G01*
X29446012Y-3949775D01*
G75*
G02*
X29473512Y-3977275I0J-27500D01*
G01*
X29473512Y-4032275D01*
G75*
G02*
X29446012Y-4059775I-27500J0D01*
G01*
G37*
G36*
G01*
X29446012Y-3729775D02*
X29371012Y-3729775D01*
G75*
G02*
X29343512Y-3702275I0J27500D01*
G01*
X29343512Y-3647275D01*
G75*
G02*
X29371012Y-3619775I27500J0D01*
G01*
X29446012Y-3619775D01*
G75*
G02*
X29473512Y-3647275I0J-27500D01*
G01*
X29473512Y-3702275D01*
G75*
G02*
X29446012Y-3729775I-27500J0D01*
G01*
G37*
G36*
G01*
X32660707Y-4030010D02*
X32585707Y-4030010D01*
G75*
G02*
X32558207Y-4002510I0J27500D01*
G01*
X32558207Y-3947510D01*
G75*
G02*
X32585707Y-3920010I27500J0D01*
G01*
X32660707Y-3920010D01*
G75*
G02*
X32688207Y-3947510I0J-27500D01*
G01*
X32688207Y-4002510D01*
G75*
G02*
X32660707Y-4030010I-27500J0D01*
G01*
G37*
G36*
G01*
X32660707Y-3700010D02*
X32585707Y-3700010D01*
G75*
G02*
X32558207Y-3672510I0J27500D01*
G01*
X32558207Y-3617510D01*
G75*
G02*
X32585707Y-3590010I27500J0D01*
G01*
X32660707Y-3590010D01*
G75*
G02*
X32688207Y-3617510I0J-27500D01*
G01*
X32688207Y-3672510D01*
G75*
G02*
X32660707Y-3700010I-27500J0D01*
G01*
G37*
G36*
G01*
X24935922Y-4780638D02*
X25010922Y-4780638D01*
G75*
G02*
X25038422Y-4808138I0J-27500D01*
G01*
X25038422Y-4863138D01*
G75*
G02*
X25010922Y-4890638I-27500J0D01*
G01*
X24935922Y-4890638D01*
G75*
G02*
X24908422Y-4863138I0J27500D01*
G01*
X24908422Y-4808138D01*
G75*
G02*
X24935922Y-4780638I27500J0D01*
G01*
G37*
G36*
G01*
X24935922Y-5110638D02*
X25010922Y-5110638D01*
G75*
G02*
X25038422Y-5138138I0J-27500D01*
G01*
X25038422Y-5193138D01*
G75*
G02*
X25010922Y-5220638I-27500J0D01*
G01*
X24935922Y-5220638D01*
G75*
G02*
X24908422Y-5193138I0J27500D01*
G01*
X24908422Y-5138138D01*
G75*
G02*
X24935922Y-5110638I27500J0D01*
G01*
G37*
G36*
G01*
X28507806Y-4780638D02*
X28582806Y-4780638D01*
G75*
G02*
X28610306Y-4808138I0J-27500D01*
G01*
X28610306Y-4863138D01*
G75*
G02*
X28582806Y-4890638I-27500J0D01*
G01*
X28507806Y-4890638D01*
G75*
G02*
X28480306Y-4863138I0J27500D01*
G01*
X28480306Y-4808138D01*
G75*
G02*
X28507806Y-4780638I27500J0D01*
G01*
G37*
G36*
G01*
X28507806Y-5110638D02*
X28582806Y-5110638D01*
G75*
G02*
X28610306Y-5138138I0J-27500D01*
G01*
X28610306Y-5193138D01*
G75*
G02*
X28582806Y-5220638I-27500J0D01*
G01*
X28507806Y-5220638D01*
G75*
G02*
X28480306Y-5193138I0J27500D01*
G01*
X28480306Y-5138138D01*
G75*
G02*
X28507806Y-5110638I27500J0D01*
G01*
G37*
G36*
G01*
X33419147Y-4780638D02*
X33494147Y-4780638D01*
G75*
G02*
X33521647Y-4808138I0J-27500D01*
G01*
X33521647Y-4863138D01*
G75*
G02*
X33494147Y-4890638I-27500J0D01*
G01*
X33419147Y-4890638D01*
G75*
G02*
X33391647Y-4863138I0J27500D01*
G01*
X33391647Y-4808138D01*
G75*
G02*
X33419147Y-4780638I27500J0D01*
G01*
G37*
G36*
G01*
X33419147Y-5110638D02*
X33494147Y-5110638D01*
G75*
G02*
X33521647Y-5138138I0J-27500D01*
G01*
X33521647Y-5193138D01*
G75*
G02*
X33494147Y-5220638I-27500J0D01*
G01*
X33419147Y-5220638D01*
G75*
G02*
X33391647Y-5193138I0J27500D01*
G01*
X33391647Y-5138138D01*
G75*
G02*
X33419147Y-5110638I27500J0D01*
G01*
G37*
G36*
G01*
X27541012Y-4059775D02*
X27466012Y-4059775D01*
G75*
G02*
X27438512Y-4032275I0J27500D01*
G01*
X27438512Y-3977275D01*
G75*
G02*
X27466012Y-3949775I27500J0D01*
G01*
X27541012Y-3949775D01*
G75*
G02*
X27568512Y-3977275I0J-27500D01*
G01*
X27568512Y-4032275D01*
G75*
G02*
X27541012Y-4059775I-27500J0D01*
G01*
G37*
G36*
G01*
X27541012Y-3729775D02*
X27466012Y-3729775D01*
G75*
G02*
X27438512Y-3702275I0J27500D01*
G01*
X27438512Y-3647275D01*
G75*
G02*
X27466012Y-3619775I27500J0D01*
G01*
X27541012Y-3619775D01*
G75*
G02*
X27568512Y-3647275I0J-27500D01*
G01*
X27568512Y-3702275D01*
G75*
G02*
X27541012Y-3729775I-27500J0D01*
G01*
G37*
G36*
G01*
X25636012Y-4059775D02*
X25561012Y-4059775D01*
G75*
G02*
X25533512Y-4032275I0J27500D01*
G01*
X25533512Y-3977275D01*
G75*
G02*
X25561012Y-3949775I27500J0D01*
G01*
X25636012Y-3949775D01*
G75*
G02*
X25663512Y-3977275I0J-27500D01*
G01*
X25663512Y-4032275D01*
G75*
G02*
X25636012Y-4059775I-27500J0D01*
G01*
G37*
G36*
G01*
X25636012Y-3729775D02*
X25561012Y-3729775D01*
G75*
G02*
X25533512Y-3702275I0J27500D01*
G01*
X25533512Y-3647275D01*
G75*
G02*
X25561012Y-3619775I27500J0D01*
G01*
X25636012Y-3619775D01*
G75*
G02*
X25663512Y-3647275I0J-27500D01*
G01*
X25663512Y-3702275D01*
G75*
G02*
X25636012Y-3729775I-27500J0D01*
G01*
G37*
G36*
G01*
X23731012Y-4059775D02*
X23656012Y-4059775D01*
G75*
G02*
X23628512Y-4032275I0J27500D01*
G01*
X23628512Y-3977275D01*
G75*
G02*
X23656012Y-3949775I27500J0D01*
G01*
X23731012Y-3949775D01*
G75*
G02*
X23758512Y-3977275I0J-27500D01*
G01*
X23758512Y-4032275D01*
G75*
G02*
X23731012Y-4059775I-27500J0D01*
G01*
G37*
G36*
G01*
X23731012Y-3729775D02*
X23656012Y-3729775D01*
G75*
G02*
X23628512Y-3702275I0J27500D01*
G01*
X23628512Y-3647275D01*
G75*
G02*
X23656012Y-3619775I27500J0D01*
G01*
X23731012Y-3619775D01*
G75*
G02*
X23758512Y-3647275I0J-27500D01*
G01*
X23758512Y-3702275D01*
G75*
G02*
X23731012Y-3729775I-27500J0D01*
G01*
G37*
G36*
G01*
X21125913Y-4780638D02*
X21200913Y-4780638D01*
G75*
G02*
X21228413Y-4808138I0J-27500D01*
G01*
X21228413Y-4863138D01*
G75*
G02*
X21200913Y-4890638I-27500J0D01*
G01*
X21125913Y-4890638D01*
G75*
G02*
X21098413Y-4863138I0J27500D01*
G01*
X21098413Y-4808138D01*
G75*
G02*
X21125913Y-4780638I27500J0D01*
G01*
G37*
G36*
G01*
X21125913Y-5110638D02*
X21200913Y-5110638D01*
G75*
G02*
X21228413Y-5138138I0J-27500D01*
G01*
X21228413Y-5193138D01*
G75*
G02*
X21200913Y-5220638I-27500J0D01*
G01*
X21125913Y-5220638D01*
G75*
G02*
X21098413Y-5193138I0J27500D01*
G01*
X21098413Y-5138138D01*
G75*
G02*
X21125913Y-5110638I27500J0D01*
G01*
G37*
G36*
G01*
X21826012Y-4059775D02*
X21751012Y-4059775D01*
G75*
G02*
X21723512Y-4032275I0J27500D01*
G01*
X21723512Y-3977275D01*
G75*
G02*
X21751012Y-3949775I27500J0D01*
G01*
X21826012Y-3949775D01*
G75*
G02*
X21853512Y-3977275I0J-27500D01*
G01*
X21853512Y-4032275D01*
G75*
G02*
X21826012Y-4059775I-27500J0D01*
G01*
G37*
G36*
G01*
X21826012Y-3729775D02*
X21751012Y-3729775D01*
G75*
G02*
X21723512Y-3702275I0J27500D01*
G01*
X21723512Y-3647275D01*
G75*
G02*
X21751012Y-3619775I27500J0D01*
G01*
X21826012Y-3619775D01*
G75*
G02*
X21853512Y-3647275I0J-27500D01*
G01*
X21853512Y-3702275D01*
G75*
G02*
X21826012Y-3729775I-27500J0D01*
G01*
G37*
G36*
G01*
X19921012Y-4059775D02*
X19846012Y-4059775D01*
G75*
G02*
X19818512Y-4032275I0J27500D01*
G01*
X19818512Y-3977275D01*
G75*
G02*
X19846012Y-3949775I27500J0D01*
G01*
X19921012Y-3949775D01*
G75*
G02*
X19948512Y-3977275I0J-27500D01*
G01*
X19948512Y-4032275D01*
G75*
G02*
X19921012Y-4059775I-27500J0D01*
G01*
G37*
G36*
G01*
X19921012Y-3729775D02*
X19846012Y-3729775D01*
G75*
G02*
X19818512Y-3702275I0J27500D01*
G01*
X19818512Y-3647275D01*
G75*
G02*
X19846012Y-3619775I27500J0D01*
G01*
X19921012Y-3619775D01*
G75*
G02*
X19948512Y-3647275I0J-27500D01*
G01*
X19948512Y-3702275D01*
G75*
G02*
X19921012Y-3729775I-27500J0D01*
G01*
G37*
G36*
G01*
X17315903Y-4780638D02*
X17390903Y-4780638D01*
G75*
G02*
X17418403Y-4808138I0J-27500D01*
G01*
X17418403Y-4863138D01*
G75*
G02*
X17390903Y-4890638I-27500J0D01*
G01*
X17315903Y-4890638D01*
G75*
G02*
X17288403Y-4863138I0J27500D01*
G01*
X17288403Y-4808138D01*
G75*
G02*
X17315903Y-4780638I27500J0D01*
G01*
G37*
G36*
G01*
X17315903Y-5110638D02*
X17390903Y-5110638D01*
G75*
G02*
X17418403Y-5138138I0J-27500D01*
G01*
X17418403Y-5193138D01*
G75*
G02*
X17390903Y-5220638I-27500J0D01*
G01*
X17315903Y-5220638D01*
G75*
G02*
X17288403Y-5193138I0J27500D01*
G01*
X17288403Y-5138138D01*
G75*
G02*
X17315903Y-5110638I27500J0D01*
G01*
G37*
G36*
G01*
X17077778Y-4780638D02*
X17152778Y-4780638D01*
G75*
G02*
X17180278Y-4808138I0J-27500D01*
G01*
X17180278Y-4863138D01*
G75*
G02*
X17152778Y-4890638I-27500J0D01*
G01*
X17077778Y-4890638D01*
G75*
G02*
X17050278Y-4863138I0J27500D01*
G01*
X17050278Y-4808138D01*
G75*
G02*
X17077778Y-4780638I27500J0D01*
G01*
G37*
G36*
G01*
X17077778Y-5110638D02*
X17152778Y-5110638D01*
G75*
G02*
X17180278Y-5138138I0J-27500D01*
G01*
X17180278Y-5193138D01*
G75*
G02*
X17152778Y-5220638I-27500J0D01*
G01*
X17077778Y-5220638D01*
G75*
G02*
X17050278Y-5193138I0J27500D01*
G01*
X17050278Y-5138138D01*
G75*
G02*
X17077778Y-5110638I27500J0D01*
G01*
G37*
G36*
G01*
X16111012Y-4059775D02*
X16036012Y-4059775D01*
G75*
G02*
X16008512Y-4032275I0J27500D01*
G01*
X16008512Y-3977275D01*
G75*
G02*
X16036012Y-3949775I27500J0D01*
G01*
X16111012Y-3949775D01*
G75*
G02*
X16138512Y-3977275I0J-27500D01*
G01*
X16138512Y-4032275D01*
G75*
G02*
X16111012Y-4059775I-27500J0D01*
G01*
G37*
G36*
G01*
X16111012Y-3729775D02*
X16036012Y-3729775D01*
G75*
G02*
X16008512Y-3702275I0J27500D01*
G01*
X16008512Y-3647275D01*
G75*
G02*
X16036012Y-3619775I27500J0D01*
G01*
X16111012Y-3619775D01*
G75*
G02*
X16138512Y-3647275I0J-27500D01*
G01*
X16138512Y-3702275D01*
G75*
G02*
X16111012Y-3729775I-27500J0D01*
G01*
G37*
G36*
G01*
X14206012Y-4059775D02*
X14131012Y-4059775D01*
G75*
G02*
X14103512Y-4032275I0J27500D01*
G01*
X14103512Y-3977275D01*
G75*
G02*
X14131012Y-3949775I27500J0D01*
G01*
X14206012Y-3949775D01*
G75*
G02*
X14233512Y-3977275I0J-27500D01*
G01*
X14233512Y-4032275D01*
G75*
G02*
X14206012Y-4059775I-27500J0D01*
G01*
G37*
G36*
G01*
X14206012Y-3729775D02*
X14131012Y-3729775D01*
G75*
G02*
X14103512Y-3702275I0J27500D01*
G01*
X14103512Y-3647275D01*
G75*
G02*
X14131012Y-3619775I27500J0D01*
G01*
X14206012Y-3619775D01*
G75*
G02*
X14233512Y-3647275I0J-27500D01*
G01*
X14233512Y-3702275D01*
G75*
G02*
X14206012Y-3729775I-27500J0D01*
G01*
G37*
G36*
G01*
X12301012Y-4059775D02*
X12226012Y-4059775D01*
G75*
G02*
X12198512Y-4032275I0J27500D01*
G01*
X12198512Y-3977275D01*
G75*
G02*
X12226012Y-3949775I27500J0D01*
G01*
X12301012Y-3949775D01*
G75*
G02*
X12328512Y-3977275I0J-27500D01*
G01*
X12328512Y-4032275D01*
G75*
G02*
X12301012Y-4059775I-27500J0D01*
G01*
G37*
G36*
G01*
X12301012Y-3729775D02*
X12226012Y-3729775D01*
G75*
G02*
X12198512Y-3702275I0J27500D01*
G01*
X12198512Y-3647275D01*
G75*
G02*
X12226012Y-3619775I27500J0D01*
G01*
X12301012Y-3619775D01*
G75*
G02*
X12328512Y-3647275I0J-27500D01*
G01*
X12328512Y-3702275D01*
G75*
G02*
X12301012Y-3729775I-27500J0D01*
G01*
G37*
G36*
G01*
X10396012Y-4059775D02*
X10321012Y-4059775D01*
G75*
G02*
X10293512Y-4032275I0J27500D01*
G01*
X10293512Y-3977275D01*
G75*
G02*
X10321012Y-3949775I27500J0D01*
G01*
X10396012Y-3949775D01*
G75*
G02*
X10423512Y-3977275I0J-27500D01*
G01*
X10423512Y-4032275D01*
G75*
G02*
X10396012Y-4059775I-27500J0D01*
G01*
G37*
G36*
G01*
X10396012Y-3729775D02*
X10321012Y-3729775D01*
G75*
G02*
X10293512Y-3702275I0J27500D01*
G01*
X10293512Y-3647275D01*
G75*
G02*
X10321012Y-3619775I27500J0D01*
G01*
X10396012Y-3619775D01*
G75*
G02*
X10423512Y-3647275I0J-27500D01*
G01*
X10423512Y-3702275D01*
G75*
G02*
X10396012Y-3729775I-27500J0D01*
G01*
G37*
G36*
G01*
X9427993Y-5121655D02*
X9502993Y-5121655D01*
G75*
G02*
X9530493Y-5149155I0J-27500D01*
G01*
X9530493Y-5204155D01*
G75*
G02*
X9502993Y-5231655I-27500J0D01*
G01*
X9427993Y-5231655D01*
G75*
G02*
X9400493Y-5204155I0J27500D01*
G01*
X9400493Y-5149155D01*
G75*
G02*
X9427993Y-5121655I27500J0D01*
G01*
G37*
G36*
G01*
X9427993Y-5451655D02*
X9502993Y-5451655D01*
G75*
G02*
X9530493Y-5479155I0J-27500D01*
G01*
X9530493Y-5534155D01*
G75*
G02*
X9502993Y-5561655I-27500J0D01*
G01*
X9427993Y-5561655D01*
G75*
G02*
X9400493Y-5534155I0J27500D01*
G01*
X9400493Y-5479155D01*
G75*
G02*
X9427993Y-5451655I27500J0D01*
G01*
G37*
G36*
G01*
X11332993Y-5121655D02*
X11407993Y-5121655D01*
G75*
G02*
X11435493Y-5149155I0J-27500D01*
G01*
X11435493Y-5204155D01*
G75*
G02*
X11407993Y-5231655I-27500J0D01*
G01*
X11332993Y-5231655D01*
G75*
G02*
X11305493Y-5204155I0J27500D01*
G01*
X11305493Y-5149155D01*
G75*
G02*
X11332993Y-5121655I27500J0D01*
G01*
G37*
G36*
G01*
X11332993Y-5451655D02*
X11407993Y-5451655D01*
G75*
G02*
X11435493Y-5479155I0J-27500D01*
G01*
X11435493Y-5534155D01*
G75*
G02*
X11407993Y-5561655I-27500J0D01*
G01*
X11332993Y-5561655D01*
G75*
G02*
X11305493Y-5534155I0J27500D01*
G01*
X11305493Y-5479155D01*
G75*
G02*
X11332993Y-5451655I27500J0D01*
G01*
G37*
G36*
G01*
X33232115Y-8407360D02*
X33232115Y-8462360D01*
G75*
G02*
X33204615Y-8489860I-27500J0D01*
G01*
X33099615Y-8489860D01*
G75*
G02*
X33072115Y-8462360I0J27500D01*
G01*
X33072115Y-8407360D01*
G75*
G02*
X33099615Y-8379860I27500J0D01*
G01*
X33204615Y-8379860D01*
G75*
G02*
X33232115Y-8407360I0J-27500D01*
G01*
G37*
G36*
G01*
X33232115Y-8064860D02*
X33232115Y-8164860D01*
G75*
G02*
X33227115Y-8169860I-5000J0D01*
G01*
X33077115Y-8169860D01*
G75*
G02*
X33072115Y-8164860I0J5000D01*
G01*
X33072115Y-8064860D01*
G75*
G02*
X33077115Y-8059860I5000J0D01*
G01*
X33227115Y-8059860D01*
G75*
G02*
X33232115Y-8064860I0J-5000D01*
G01*
G37*
G36*
G01*
X33722115Y-8384860D02*
X33722115Y-8484860D01*
G75*
G02*
X33717115Y-8489860I-5000J0D01*
G01*
X33567115Y-8489860D01*
G75*
G02*
X33562115Y-8484860I0J5000D01*
G01*
X33562115Y-8384860D01*
G75*
G02*
X33567115Y-8379860I5000J0D01*
G01*
X33717115Y-8379860D01*
G75*
G02*
X33722115Y-8384860I0J-5000D01*
G01*
G37*
G36*
G01*
X33722115Y-8064860D02*
X33722115Y-8164860D01*
G75*
G02*
X33717115Y-8169860I-5000J0D01*
G01*
X33567115Y-8169860D01*
G75*
G02*
X33562115Y-8164860I0J5000D01*
G01*
X33562115Y-8064860D01*
G75*
G02*
X33567115Y-8059860I5000J0D01*
G01*
X33717115Y-8059860D01*
G75*
G02*
X33722115Y-8064860I0J-5000D01*
G01*
G37*
G36*
G01*
X33232115Y-6502360D02*
X33232115Y-6557360D01*
G75*
G02*
X33204615Y-6584860I-27500J0D01*
G01*
X33099615Y-6584860D01*
G75*
G02*
X33072115Y-6557360I0J27500D01*
G01*
X33072115Y-6502360D01*
G75*
G02*
X33099615Y-6474860I27500J0D01*
G01*
X33204615Y-6474860D01*
G75*
G02*
X33232115Y-6502360I0J-27500D01*
G01*
G37*
G36*
G01*
X33232115Y-6159860D02*
X33232115Y-6259860D01*
G75*
G02*
X33227115Y-6264860I-5000J0D01*
G01*
X33077115Y-6264860D01*
G75*
G02*
X33072115Y-6259860I0J5000D01*
G01*
X33072115Y-6159860D01*
G75*
G02*
X33077115Y-6154860I5000J0D01*
G01*
X33227115Y-6154860D01*
G75*
G02*
X33232115Y-6159860I0J-5000D01*
G01*
G37*
G36*
G01*
X33722115Y-6479860D02*
X33722115Y-6579860D01*
G75*
G02*
X33717115Y-6584860I-5000J0D01*
G01*
X33567115Y-6584860D01*
G75*
G02*
X33562115Y-6579860I0J5000D01*
G01*
X33562115Y-6479860D01*
G75*
G02*
X33567115Y-6474860I5000J0D01*
G01*
X33717115Y-6474860D01*
G75*
G02*
X33722115Y-6479860I0J-5000D01*
G01*
G37*
G36*
G01*
X33722115Y-6159860D02*
X33722115Y-6259860D01*
G75*
G02*
X33717115Y-6264860I-5000J0D01*
G01*
X33567115Y-6264860D01*
G75*
G02*
X33562115Y-6259860I0J5000D01*
G01*
X33562115Y-6159860D01*
G75*
G02*
X33567115Y-6154860I5000J0D01*
G01*
X33717115Y-6154860D01*
G75*
G02*
X33722115Y-6159860I0J-5000D01*
G01*
G37*
G36*
G01*
X31597579Y-10196198D02*
X31597579Y-10141198D01*
G75*
G02*
X31625079Y-10113698I27500J0D01*
G01*
X31730079Y-10113698D01*
G75*
G02*
X31757579Y-10141198I0J-27500D01*
G01*
X31757579Y-10196198D01*
G75*
G02*
X31730079Y-10223698I-27500J0D01*
G01*
X31625079Y-10223698D01*
G75*
G02*
X31597579Y-10196198I0J27500D01*
G01*
G37*
G36*
G01*
X31597579Y-10538698D02*
X31597579Y-10438698D01*
G75*
G02*
X31602579Y-10433698I5000J0D01*
G01*
X31752579Y-10433698D01*
G75*
G02*
X31757579Y-10438698I0J-5000D01*
G01*
X31757579Y-10538698D01*
G75*
G02*
X31752579Y-10543698I-5000J0D01*
G01*
X31602579Y-10543698D01*
G75*
G02*
X31597579Y-10538698I0J5000D01*
G01*
G37*
G36*
G01*
X31107579Y-10218698D02*
X31107579Y-10118698D01*
G75*
G02*
X31112579Y-10113698I5000J0D01*
G01*
X31262579Y-10113698D01*
G75*
G02*
X31267579Y-10118698I0J-5000D01*
G01*
X31267579Y-10218698D01*
G75*
G02*
X31262579Y-10223698I-5000J0D01*
G01*
X31112579Y-10223698D01*
G75*
G02*
X31107579Y-10218698I0J5000D01*
G01*
G37*
G36*
G01*
X31107579Y-10538698D02*
X31107579Y-10438698D01*
G75*
G02*
X31112579Y-10433698I5000J0D01*
G01*
X31262579Y-10433698D01*
G75*
G02*
X31267579Y-10438698I0J-5000D01*
G01*
X31267579Y-10538698D01*
G75*
G02*
X31262579Y-10543698I-5000J0D01*
G01*
X31112579Y-10543698D01*
G75*
G02*
X31107579Y-10538698I0J5000D01*
G01*
G37*
G36*
G01*
X31267579Y-4775949D02*
X31267579Y-4830949D01*
G75*
G02*
X31240079Y-4858449I-27500J0D01*
G01*
X31135079Y-4858449D01*
G75*
G02*
X31107579Y-4830949I0J27500D01*
G01*
X31107579Y-4775949D01*
G75*
G02*
X31135079Y-4748449I27500J0D01*
G01*
X31240079Y-4748449D01*
G75*
G02*
X31267579Y-4775949I0J-27500D01*
G01*
G37*
G36*
G01*
X31267579Y-4433449D02*
X31267579Y-4533449D01*
G75*
G02*
X31262579Y-4538449I-5000J0D01*
G01*
X31112579Y-4538449D01*
G75*
G02*
X31107579Y-4533449I0J5000D01*
G01*
X31107579Y-4433449D01*
G75*
G02*
X31112579Y-4428449I5000J0D01*
G01*
X31262579Y-4428449D01*
G75*
G02*
X31267579Y-4433449I0J-5000D01*
G01*
G37*
G36*
G01*
X31757579Y-4753449D02*
X31757579Y-4853449D01*
G75*
G02*
X31752579Y-4858449I-5000J0D01*
G01*
X31602579Y-4858449D01*
G75*
G02*
X31597579Y-4853449I0J5000D01*
G01*
X31597579Y-4753449D01*
G75*
G02*
X31602579Y-4748449I5000J0D01*
G01*
X31752579Y-4748449D01*
G75*
G02*
X31757579Y-4753449I0J-5000D01*
G01*
G37*
G36*
G01*
X31757579Y-4433449D02*
X31757579Y-4533449D01*
G75*
G02*
X31752579Y-4538449I-5000J0D01*
G01*
X31602579Y-4538449D01*
G75*
G02*
X31597579Y-4533449I0J5000D01*
G01*
X31597579Y-4433449D01*
G75*
G02*
X31602579Y-4428449I5000J0D01*
G01*
X31752579Y-4428449D01*
G75*
G02*
X31757579Y-4433449I0J-5000D01*
G01*
G37*
G36*
G01*
X26358816Y-10345026D02*
X26358816Y-10290026D01*
G75*
G02*
X26386316Y-10262526I27500J0D01*
G01*
X26491316Y-10262526D01*
G75*
G02*
X26518816Y-10290026I0J-27500D01*
G01*
X26518816Y-10345026D01*
G75*
G02*
X26491316Y-10372526I-27500J0D01*
G01*
X26386316Y-10372526D01*
G75*
G02*
X26358816Y-10345026I0J27500D01*
G01*
G37*
G36*
G01*
X26358816Y-10687526D02*
X26358816Y-10587526D01*
G75*
G02*
X26363816Y-10582526I5000J0D01*
G01*
X26513816Y-10582526D01*
G75*
G02*
X26518816Y-10587526I0J-5000D01*
G01*
X26518816Y-10687526D01*
G75*
G02*
X26513816Y-10692526I-5000J0D01*
G01*
X26363816Y-10692526D01*
G75*
G02*
X26358816Y-10687526I0J5000D01*
G01*
G37*
G36*
G01*
X25868816Y-10367526D02*
X25868816Y-10267526D01*
G75*
G02*
X25873816Y-10262526I5000J0D01*
G01*
X26023816Y-10262526D01*
G75*
G02*
X26028816Y-10267526I0J-5000D01*
G01*
X26028816Y-10367526D01*
G75*
G02*
X26023816Y-10372526I-5000J0D01*
G01*
X25873816Y-10372526D01*
G75*
G02*
X25868816Y-10367526I0J5000D01*
G01*
G37*
G36*
G01*
X25868816Y-10687526D02*
X25868816Y-10587526D01*
G75*
G02*
X25873816Y-10582526I5000J0D01*
G01*
X26023816Y-10582526D01*
G75*
G02*
X26028816Y-10587526I0J-5000D01*
G01*
X26028816Y-10687526D01*
G75*
G02*
X26023816Y-10692526I-5000J0D01*
G01*
X25873816Y-10692526D01*
G75*
G02*
X25868816Y-10687526I0J5000D01*
G01*
G37*
G36*
G01*
X26505067Y-4895012D02*
X26505067Y-4950012D01*
G75*
G02*
X26477567Y-4977512I-27500J0D01*
G01*
X26372567Y-4977512D01*
G75*
G02*
X26345067Y-4950012I0J27500D01*
G01*
X26345067Y-4895012D01*
G75*
G02*
X26372567Y-4867512I27500J0D01*
G01*
X26477567Y-4867512D01*
G75*
G02*
X26505067Y-4895012I0J-27500D01*
G01*
G37*
G36*
G01*
X26505067Y-4552512D02*
X26505067Y-4652512D01*
G75*
G02*
X26500067Y-4657512I-5000J0D01*
G01*
X26350067Y-4657512D01*
G75*
G02*
X26345067Y-4652512I0J5000D01*
G01*
X26345067Y-4552512D01*
G75*
G02*
X26350067Y-4547512I5000J0D01*
G01*
X26500067Y-4547512D01*
G75*
G02*
X26505067Y-4552512I0J-5000D01*
G01*
G37*
G36*
G01*
X26995067Y-4872512D02*
X26995067Y-4972512D01*
G75*
G02*
X26990067Y-4977512I-5000J0D01*
G01*
X26840067Y-4977512D01*
G75*
G02*
X26835067Y-4972512I0J5000D01*
G01*
X26835067Y-4872512D01*
G75*
G02*
X26840067Y-4867512I5000J0D01*
G01*
X26990067Y-4867512D01*
G75*
G02*
X26995067Y-4872512I0J-5000D01*
G01*
G37*
G36*
G01*
X26995067Y-4552512D02*
X26995067Y-4652512D01*
G75*
G02*
X26990067Y-4657512I-5000J0D01*
G01*
X26840067Y-4657512D01*
G75*
G02*
X26835067Y-4652512I0J5000D01*
G01*
X26835067Y-4552512D01*
G75*
G02*
X26840067Y-4547512I5000J0D01*
G01*
X26990067Y-4547512D01*
G75*
G02*
X26995067Y-4552512I0J-5000D01*
G01*
G37*
G36*
G01*
X22310681Y-10345026D02*
X22310681Y-10290026D01*
G75*
G02*
X22338181Y-10262526I27500J0D01*
G01*
X22443181Y-10262526D01*
G75*
G02*
X22470681Y-10290026I0J-27500D01*
G01*
X22470681Y-10345026D01*
G75*
G02*
X22443181Y-10372526I-27500J0D01*
G01*
X22338181Y-10372526D01*
G75*
G02*
X22310681Y-10345026I0J27500D01*
G01*
G37*
G36*
G01*
X22310681Y-10687526D02*
X22310681Y-10587526D01*
G75*
G02*
X22315681Y-10582526I5000J0D01*
G01*
X22465681Y-10582526D01*
G75*
G02*
X22470681Y-10587526I0J-5000D01*
G01*
X22470681Y-10687526D01*
G75*
G02*
X22465681Y-10692526I-5000J0D01*
G01*
X22315681Y-10692526D01*
G75*
G02*
X22310681Y-10687526I0J5000D01*
G01*
G37*
G36*
G01*
X21820681Y-10367526D02*
X21820681Y-10267526D01*
G75*
G02*
X21825681Y-10262526I5000J0D01*
G01*
X21975681Y-10262526D01*
G75*
G02*
X21980681Y-10267526I0J-5000D01*
G01*
X21980681Y-10367526D01*
G75*
G02*
X21975681Y-10372526I-5000J0D01*
G01*
X21825681Y-10372526D01*
G75*
G02*
X21820681Y-10367526I0J5000D01*
G01*
G37*
G36*
G01*
X21820681Y-10687526D02*
X21820681Y-10587526D01*
G75*
G02*
X21825681Y-10582526I5000J0D01*
G01*
X21975681Y-10582526D01*
G75*
G02*
X21980681Y-10587526I0J-5000D01*
G01*
X21980681Y-10687526D01*
G75*
G02*
X21975681Y-10692526I-5000J0D01*
G01*
X21825681Y-10692526D01*
G75*
G02*
X21820681Y-10687526I0J5000D01*
G01*
G37*
G36*
G01*
X22695058Y-4895012D02*
X22695058Y-4950012D01*
G75*
G02*
X22667558Y-4977512I-27500J0D01*
G01*
X22562558Y-4977512D01*
G75*
G02*
X22535058Y-4950012I0J27500D01*
G01*
X22535058Y-4895012D01*
G75*
G02*
X22562558Y-4867512I27500J0D01*
G01*
X22667558Y-4867512D01*
G75*
G02*
X22695058Y-4895012I0J-27500D01*
G01*
G37*
G36*
G01*
X22695058Y-4552512D02*
X22695058Y-4652512D01*
G75*
G02*
X22690058Y-4657512I-5000J0D01*
G01*
X22540058Y-4657512D01*
G75*
G02*
X22535058Y-4652512I0J5000D01*
G01*
X22535058Y-4552512D01*
G75*
G02*
X22540058Y-4547512I5000J0D01*
G01*
X22690058Y-4547512D01*
G75*
G02*
X22695058Y-4552512I0J-5000D01*
G01*
G37*
G36*
G01*
X23185058Y-4872512D02*
X23185058Y-4972512D01*
G75*
G02*
X23180058Y-4977512I-5000J0D01*
G01*
X23030058Y-4977512D01*
G75*
G02*
X23025058Y-4972512I0J5000D01*
G01*
X23025058Y-4872512D01*
G75*
G02*
X23030058Y-4867512I5000J0D01*
G01*
X23180058Y-4867512D01*
G75*
G02*
X23185058Y-4872512I0J-5000D01*
G01*
G37*
G36*
G01*
X23185058Y-4552512D02*
X23185058Y-4652512D01*
G75*
G02*
X23180058Y-4657512I-5000J0D01*
G01*
X23030058Y-4657512D01*
G75*
G02*
X23025058Y-4652512I0J5000D01*
G01*
X23025058Y-4552512D01*
G75*
G02*
X23030058Y-4547512I5000J0D01*
G01*
X23180058Y-4547512D01*
G75*
G02*
X23185058Y-4552512I0J-5000D01*
G01*
G37*
G36*
G01*
X19215048Y-10345026D02*
X19215048Y-10290026D01*
G75*
G02*
X19242548Y-10262526I27500J0D01*
G01*
X19347548Y-10262526D01*
G75*
G02*
X19375048Y-10290026I0J-27500D01*
G01*
X19375048Y-10345026D01*
G75*
G02*
X19347548Y-10372526I-27500J0D01*
G01*
X19242548Y-10372526D01*
G75*
G02*
X19215048Y-10345026I0J27500D01*
G01*
G37*
G36*
G01*
X19215048Y-10687526D02*
X19215048Y-10587526D01*
G75*
G02*
X19220048Y-10582526I5000J0D01*
G01*
X19370048Y-10582526D01*
G75*
G02*
X19375048Y-10587526I0J-5000D01*
G01*
X19375048Y-10687526D01*
G75*
G02*
X19370048Y-10692526I-5000J0D01*
G01*
X19220048Y-10692526D01*
G75*
G02*
X19215048Y-10687526I0J5000D01*
G01*
G37*
G36*
G01*
X18725048Y-10367526D02*
X18725048Y-10267526D01*
G75*
G02*
X18730048Y-10262526I5000J0D01*
G01*
X18880048Y-10262526D01*
G75*
G02*
X18885048Y-10267526I0J-5000D01*
G01*
X18885048Y-10367526D01*
G75*
G02*
X18880048Y-10372526I-5000J0D01*
G01*
X18730048Y-10372526D01*
G75*
G02*
X18725048Y-10367526I0J5000D01*
G01*
G37*
G36*
G01*
X18725048Y-10687526D02*
X18725048Y-10587526D01*
G75*
G02*
X18730048Y-10582526I5000J0D01*
G01*
X18880048Y-10582526D01*
G75*
G02*
X18885048Y-10587526I0J-5000D01*
G01*
X18885048Y-10687526D01*
G75*
G02*
X18880048Y-10692526I-5000J0D01*
G01*
X18730048Y-10692526D01*
G75*
G02*
X18725048Y-10687526I0J5000D01*
G01*
G37*
G36*
G01*
X18885048Y-4895012D02*
X18885048Y-4950012D01*
G75*
G02*
X18857548Y-4977512I-27500J0D01*
G01*
X18752548Y-4977512D01*
G75*
G02*
X18725048Y-4950012I0J27500D01*
G01*
X18725048Y-4895012D01*
G75*
G02*
X18752548Y-4867512I27500J0D01*
G01*
X18857548Y-4867512D01*
G75*
G02*
X18885048Y-4895012I0J-27500D01*
G01*
G37*
G36*
G01*
X18885048Y-4552512D02*
X18885048Y-4652512D01*
G75*
G02*
X18880048Y-4657512I-5000J0D01*
G01*
X18730048Y-4657512D01*
G75*
G02*
X18725048Y-4652512I0J5000D01*
G01*
X18725048Y-4552512D01*
G75*
G02*
X18730048Y-4547512I5000J0D01*
G01*
X18880048Y-4547512D01*
G75*
G02*
X18885048Y-4552512I0J-5000D01*
G01*
G37*
G36*
G01*
X19375048Y-4872512D02*
X19375048Y-4972512D01*
G75*
G02*
X19370048Y-4977512I-5000J0D01*
G01*
X19220048Y-4977512D01*
G75*
G02*
X19215048Y-4972512I0J5000D01*
G01*
X19215048Y-4872512D01*
G75*
G02*
X19220048Y-4867512I5000J0D01*
G01*
X19370048Y-4867512D01*
G75*
G02*
X19375048Y-4872512I0J-5000D01*
G01*
G37*
G36*
G01*
X19375048Y-4552512D02*
X19375048Y-4652512D01*
G75*
G02*
X19370048Y-4657512I-5000J0D01*
G01*
X19220048Y-4657512D01*
G75*
G02*
X19215048Y-4652512I0J5000D01*
G01*
X19215048Y-4552512D01*
G75*
G02*
X19220048Y-4547512I5000J0D01*
G01*
X19370048Y-4547512D01*
G75*
G02*
X19375048Y-4552512I0J-5000D01*
G01*
G37*
G36*
G01*
X15405038Y-10345026D02*
X15405038Y-10290026D01*
G75*
G02*
X15432538Y-10262526I27500J0D01*
G01*
X15537538Y-10262526D01*
G75*
G02*
X15565038Y-10290026I0J-27500D01*
G01*
X15565038Y-10345026D01*
G75*
G02*
X15537538Y-10372526I-27500J0D01*
G01*
X15432538Y-10372526D01*
G75*
G02*
X15405038Y-10345026I0J27500D01*
G01*
G37*
G36*
G01*
X15405038Y-10687526D02*
X15405038Y-10587526D01*
G75*
G02*
X15410038Y-10582526I5000J0D01*
G01*
X15560038Y-10582526D01*
G75*
G02*
X15565038Y-10587526I0J-5000D01*
G01*
X15565038Y-10687526D01*
G75*
G02*
X15560038Y-10692526I-5000J0D01*
G01*
X15410038Y-10692526D01*
G75*
G02*
X15405038Y-10687526I0J5000D01*
G01*
G37*
G36*
G01*
X14915038Y-10367526D02*
X14915038Y-10267526D01*
G75*
G02*
X14920038Y-10262526I5000J0D01*
G01*
X15070038Y-10262526D01*
G75*
G02*
X15075038Y-10267526I0J-5000D01*
G01*
X15075038Y-10367526D01*
G75*
G02*
X15070038Y-10372526I-5000J0D01*
G01*
X14920038Y-10372526D01*
G75*
G02*
X14915038Y-10367526I0J5000D01*
G01*
G37*
G36*
G01*
X14915038Y-10687526D02*
X14915038Y-10587526D01*
G75*
G02*
X14920038Y-10582526I5000J0D01*
G01*
X15070038Y-10582526D01*
G75*
G02*
X15075038Y-10587526I0J-5000D01*
G01*
X15075038Y-10687526D01*
G75*
G02*
X15070038Y-10692526I-5000J0D01*
G01*
X14920038Y-10692526D01*
G75*
G02*
X14915038Y-10687526I0J5000D01*
G01*
G37*
G36*
G01*
X15075038Y-4895012D02*
X15075038Y-4950012D01*
G75*
G02*
X15047538Y-4977512I-27500J0D01*
G01*
X14942538Y-4977512D01*
G75*
G02*
X14915038Y-4950012I0J27500D01*
G01*
X14915038Y-4895012D01*
G75*
G02*
X14942538Y-4867512I27500J0D01*
G01*
X15047538Y-4867512D01*
G75*
G02*
X15075038Y-4895012I0J-27500D01*
G01*
G37*
G36*
G01*
X15075038Y-4552512D02*
X15075038Y-4652512D01*
G75*
G02*
X15070038Y-4657512I-5000J0D01*
G01*
X14920038Y-4657512D01*
G75*
G02*
X14915038Y-4652512I0J5000D01*
G01*
X14915038Y-4552512D01*
G75*
G02*
X14920038Y-4547512I5000J0D01*
G01*
X15070038Y-4547512D01*
G75*
G02*
X15075038Y-4552512I0J-5000D01*
G01*
G37*
G36*
G01*
X15565038Y-4872512D02*
X15565038Y-4972512D01*
G75*
G02*
X15560038Y-4977512I-5000J0D01*
G01*
X15410038Y-4977512D01*
G75*
G02*
X15405038Y-4972512I0J5000D01*
G01*
X15405038Y-4872512D01*
G75*
G02*
X15410038Y-4867512I5000J0D01*
G01*
X15560038Y-4867512D01*
G75*
G02*
X15565038Y-4872512I0J-5000D01*
G01*
G37*
G36*
G01*
X15565038Y-4552512D02*
X15565038Y-4652512D01*
G75*
G02*
X15560038Y-4657512I-5000J0D01*
G01*
X15410038Y-4657512D01*
G75*
G02*
X15405038Y-4652512I0J5000D01*
G01*
X15405038Y-4552512D01*
G75*
G02*
X15410038Y-4547512I5000J0D01*
G01*
X15560038Y-4547512D01*
G75*
G02*
X15565038Y-4552512I0J-5000D01*
G01*
G37*
G36*
G01*
X11595029Y-10196198D02*
X11595029Y-10141198D01*
G75*
G02*
X11622529Y-10113698I27500J0D01*
G01*
X11727529Y-10113698D01*
G75*
G02*
X11755029Y-10141198I0J-27500D01*
G01*
X11755029Y-10196198D01*
G75*
G02*
X11727529Y-10223698I-27500J0D01*
G01*
X11622529Y-10223698D01*
G75*
G02*
X11595029Y-10196198I0J27500D01*
G01*
G37*
G36*
G01*
X11595029Y-10538698D02*
X11595029Y-10438698D01*
G75*
G02*
X11600029Y-10433698I5000J0D01*
G01*
X11750029Y-10433698D01*
G75*
G02*
X11755029Y-10438698I0J-5000D01*
G01*
X11755029Y-10538698D01*
G75*
G02*
X11750029Y-10543698I-5000J0D01*
G01*
X11600029Y-10543698D01*
G75*
G02*
X11595029Y-10538698I0J5000D01*
G01*
G37*
G36*
G01*
X11105029Y-10218698D02*
X11105029Y-10118698D01*
G75*
G02*
X11110029Y-10113698I5000J0D01*
G01*
X11260029Y-10113698D01*
G75*
G02*
X11265029Y-10118698I0J-5000D01*
G01*
X11265029Y-10218698D01*
G75*
G02*
X11260029Y-10223698I-5000J0D01*
G01*
X11110029Y-10223698D01*
G75*
G02*
X11105029Y-10218698I0J5000D01*
G01*
G37*
G36*
G01*
X11105029Y-10538698D02*
X11105029Y-10438698D01*
G75*
G02*
X11110029Y-10433698I5000J0D01*
G01*
X11260029Y-10433698D01*
G75*
G02*
X11265029Y-10438698I0J-5000D01*
G01*
X11265029Y-10538698D01*
G75*
G02*
X11260029Y-10543698I-5000J0D01*
G01*
X11110029Y-10543698D01*
G75*
G02*
X11105029Y-10538698I0J5000D01*
G01*
G37*
G36*
G01*
X11265029Y-4895012D02*
X11265029Y-4950012D01*
G75*
G02*
X11237529Y-4977512I-27500J0D01*
G01*
X11132529Y-4977512D01*
G75*
G02*
X11105029Y-4950012I0J27500D01*
G01*
X11105029Y-4895012D01*
G75*
G02*
X11132529Y-4867512I27500J0D01*
G01*
X11237529Y-4867512D01*
G75*
G02*
X11265029Y-4895012I0J-27500D01*
G01*
G37*
G36*
G01*
X11265029Y-4552512D02*
X11265029Y-4652512D01*
G75*
G02*
X11260029Y-4657512I-5000J0D01*
G01*
X11110029Y-4657512D01*
G75*
G02*
X11105029Y-4652512I0J5000D01*
G01*
X11105029Y-4552512D01*
G75*
G02*
X11110029Y-4547512I5000J0D01*
G01*
X11260029Y-4547512D01*
G75*
G02*
X11265029Y-4552512I0J-5000D01*
G01*
G37*
G36*
G01*
X11755029Y-4872512D02*
X11755029Y-4972512D01*
G75*
G02*
X11750029Y-4977512I-5000J0D01*
G01*
X11600029Y-4977512D01*
G75*
G02*
X11595029Y-4972512I0J5000D01*
G01*
X11595029Y-4872512D01*
G75*
G02*
X11600029Y-4867512I5000J0D01*
G01*
X11750029Y-4867512D01*
G75*
G02*
X11755029Y-4872512I0J-5000D01*
G01*
G37*
G36*
G01*
X11755029Y-4552512D02*
X11755029Y-4652512D01*
G75*
G02*
X11750029Y-4657512I-5000J0D01*
G01*
X11600029Y-4657512D01*
G75*
G02*
X11595029Y-4652512I0J5000D01*
G01*
X11595029Y-4552512D01*
G75*
G02*
X11600029Y-4547512I5000J0D01*
G01*
X11750029Y-4547512D01*
G75*
G02*
X11755029Y-4552512I0J-5000D01*
G01*
G37*
G36*
G01*
X7308779Y-10196198D02*
X7308779Y-10141198D01*
G75*
G02*
X7336279Y-10113698I27500J0D01*
G01*
X7441279Y-10113698D01*
G75*
G02*
X7468779Y-10141198I0J-27500D01*
G01*
X7468779Y-10196198D01*
G75*
G02*
X7441279Y-10223698I-27500J0D01*
G01*
X7336279Y-10223698D01*
G75*
G02*
X7308779Y-10196198I0J27500D01*
G01*
G37*
G36*
G01*
X7308779Y-10538698D02*
X7308779Y-10438698D01*
G75*
G02*
X7313779Y-10433698I5000J0D01*
G01*
X7463779Y-10433698D01*
G75*
G02*
X7468779Y-10438698I0J-5000D01*
G01*
X7468779Y-10538698D01*
G75*
G02*
X7463779Y-10543698I-5000J0D01*
G01*
X7313779Y-10543698D01*
G75*
G02*
X7308779Y-10538698I0J5000D01*
G01*
G37*
G36*
G01*
X6818779Y-10218698D02*
X6818779Y-10118698D01*
G75*
G02*
X6823779Y-10113698I5000J0D01*
G01*
X6973779Y-10113698D01*
G75*
G02*
X6978779Y-10118698I0J-5000D01*
G01*
X6978779Y-10218698D01*
G75*
G02*
X6973779Y-10223698I-5000J0D01*
G01*
X6823779Y-10223698D01*
G75*
G02*
X6818779Y-10218698I0J5000D01*
G01*
G37*
G36*
G01*
X6818779Y-10538698D02*
X6818779Y-10438698D01*
G75*
G02*
X6823779Y-10433698I5000J0D01*
G01*
X6973779Y-10433698D01*
G75*
G02*
X6978779Y-10438698I0J-5000D01*
G01*
X6978779Y-10538698D01*
G75*
G02*
X6973779Y-10543698I-5000J0D01*
G01*
X6823779Y-10543698D01*
G75*
G02*
X6818779Y-10538698I0J5000D01*
G01*
G37*
D10*
X31686500Y-3302003D03*
D11*
X31432500Y-3810003D03*
D10*
X31051500Y-3556003D03*
D12*
X30924500Y-3810003D03*
X31940500Y-3810003D03*
G36*
G01*
X30591500Y-3681003D02*
X30591500Y-3431003D01*
G75*
G02*
X30596500Y-3426003I5000J0D01*
G01*
X30851500Y-3426003D01*
G75*
G02*
X30856500Y-3431003I0J-5000D01*
G01*
X30856500Y-3681003D01*
G75*
G02*
X30851500Y-3686003I-5000J0D01*
G01*
X30596500Y-3686003D01*
G75*
G02*
X30591500Y-3681003I0J5000D01*
G01*
G37*
G36*
G01*
X31884200Y-3427003D02*
X31884200Y-3177003D01*
G75*
G02*
X31889200Y-3172003I5000J0D01*
G01*
X32144200Y-3172003D01*
G75*
G02*
X32149200Y-3177003I0J-5000D01*
G01*
X32149200Y-3427003D01*
G75*
G02*
X32144200Y-3432003I-5000J0D01*
G01*
X31889200Y-3432003D01*
G75*
G02*
X31884200Y-3427003I0J5000D01*
G01*
G37*
D13*
X32626300Y-3111503D03*
X30238700Y-3111503D03*
D11*
X32626300Y-4635503D03*
X30238700Y-4635503D03*
G36*
G01*
X13505893Y-4780638D02*
X13580893Y-4780638D01*
G75*
G02*
X13608393Y-4808138I0J-27500D01*
G01*
X13608393Y-4863138D01*
G75*
G02*
X13580893Y-4890638I-27500J0D01*
G01*
X13505893Y-4890638D01*
G75*
G02*
X13478393Y-4863138I0J27500D01*
G01*
X13478393Y-4808138D01*
G75*
G02*
X13505893Y-4780638I27500J0D01*
G01*
G37*
G36*
G01*
X13505893Y-5110638D02*
X13580893Y-5110638D01*
G75*
G02*
X13608393Y-5138138I0J-27500D01*
G01*
X13608393Y-5193138D01*
G75*
G02*
X13580893Y-5220638I-27500J0D01*
G01*
X13505893Y-5220638D01*
G75*
G02*
X13478393Y-5193138I0J27500D01*
G01*
X13478393Y-5138138D01*
G75*
G02*
X13505893Y-5110638I27500J0D01*
G01*
G37*
G36*
G01*
X13267768Y-4780638D02*
X13342768Y-4780638D01*
G75*
G02*
X13370268Y-4808138I0J-27500D01*
G01*
X13370268Y-4863138D01*
G75*
G02*
X13342768Y-4890638I-27500J0D01*
G01*
X13267768Y-4890638D01*
G75*
G02*
X13240268Y-4863138I0J27500D01*
G01*
X13240268Y-4808138D01*
G75*
G02*
X13267768Y-4780638I27500J0D01*
G01*
G37*
G36*
G01*
X13267768Y-5110638D02*
X13342768Y-5110638D01*
G75*
G02*
X13370268Y-5138138I0J-27500D01*
G01*
X13370268Y-5193138D01*
G75*
G02*
X13342768Y-5220638I-27500J0D01*
G01*
X13267768Y-5220638D01*
G75*
G02*
X13240268Y-5193138I0J27500D01*
G01*
X13240268Y-5138138D01*
G75*
G02*
X13267768Y-5110638I27500J0D01*
G01*
G37*
G36*
G01*
X8729084Y-4476495D02*
X8654084Y-4476495D01*
G75*
G02*
X8626584Y-4448995I0J27500D01*
G01*
X8626584Y-4393995D01*
G75*
G02*
X8654084Y-4366495I27500J0D01*
G01*
X8729084Y-4366495D01*
G75*
G02*
X8756584Y-4393995I0J-27500D01*
G01*
X8756584Y-4448995D01*
G75*
G02*
X8729084Y-4476495I-27500J0D01*
G01*
G37*
G36*
G01*
X8729084Y-4146495D02*
X8654084Y-4146495D01*
G75*
G02*
X8626584Y-4118995I0J27500D01*
G01*
X8626584Y-4063995D01*
G75*
G02*
X8654084Y-4036495I27500J0D01*
G01*
X8729084Y-4036495D01*
G75*
G02*
X8756584Y-4063995I0J-27500D01*
G01*
X8756584Y-4118995D01*
G75*
G02*
X8729084Y-4146495I-27500J0D01*
G01*
G37*
G36*
G01*
X9685493Y-5737046D02*
X9685493Y-5812046D01*
G75*
G02*
X9657993Y-5839546I-27500J0D01*
G01*
X9602993Y-5839546D01*
G75*
G02*
X9575493Y-5812046I0J27500D01*
G01*
X9575493Y-5737046D01*
G75*
G02*
X9602993Y-5709546I27500J0D01*
G01*
X9657993Y-5709546D01*
G75*
G02*
X9685493Y-5737046I0J-27500D01*
G01*
G37*
G36*
G01*
X9355493Y-5737046D02*
X9355493Y-5812046D01*
G75*
G02*
X9327993Y-5839546I-27500J0D01*
G01*
X9272993Y-5839546D01*
G75*
G02*
X9245493Y-5812046I0J27500D01*
G01*
X9245493Y-5737046D01*
G75*
G02*
X9272993Y-5709546I27500J0D01*
G01*
X9327993Y-5709546D01*
G75*
G02*
X9355493Y-5737046I0J-27500D01*
G01*
G37*
G36*
G01*
X6764548Y-4744386D02*
X6689548Y-4744386D01*
G75*
G02*
X6662048Y-4716886I0J27500D01*
G01*
X6662048Y-4661886D01*
G75*
G02*
X6689548Y-4634386I27500J0D01*
G01*
X6764548Y-4634386D01*
G75*
G02*
X6792048Y-4661886I0J-27500D01*
G01*
X6792048Y-4716886D01*
G75*
G02*
X6764548Y-4744386I-27500J0D01*
G01*
G37*
G36*
G01*
X6764548Y-4414386D02*
X6689548Y-4414386D01*
G75*
G02*
X6662048Y-4386886I0J27500D01*
G01*
X6662048Y-4331886D01*
G75*
G02*
X6689548Y-4304386I27500J0D01*
G01*
X6764548Y-4304386D01*
G75*
G02*
X6792048Y-4331886I0J-27500D01*
G01*
X6792048Y-4386886D01*
G75*
G02*
X6764548Y-4414386I-27500J0D01*
G01*
G37*
G36*
G01*
X7228534Y-8161270D02*
X7228534Y-8031270D01*
G75*
G02*
X7233534Y-8026270I5000J0D01*
G01*
X7303534Y-8026270D01*
G75*
G02*
X7308534Y-8031270I0J-5000D01*
G01*
X7308534Y-8161270D01*
G75*
G02*
X7303534Y-8166270I-5000J0D01*
G01*
X7233534Y-8166270D01*
G75*
G02*
X7228534Y-8161270I0J5000D01*
G01*
G37*
G36*
G01*
X7038534Y-8161270D02*
X7038534Y-8031270D01*
G75*
G02*
X7043534Y-8026270I5000J0D01*
G01*
X7113534Y-8026270D01*
G75*
G02*
X7118534Y-8031270I0J-5000D01*
G01*
X7118534Y-8161270D01*
G75*
G02*
X7113534Y-8166270I-5000J0D01*
G01*
X7043534Y-8166270D01*
G75*
G02*
X7038534Y-8161270I0J5000D01*
G01*
G37*
G36*
G01*
X6234375Y-7978000D02*
X6234375Y-8278000D01*
G75*
G02*
X6229375Y-8283000I-5000J0D01*
G01*
X6110375Y-8283000D01*
G75*
G02*
X6105375Y-8278000I0J5000D01*
G01*
X6105375Y-7978000D01*
G75*
G02*
X6110375Y-7973000I5000J0D01*
G01*
X6229375Y-7973000D01*
G75*
G02*
X6234375Y-7978000I0J-5000D01*
G01*
G37*
G36*
G01*
X6753375Y-7978000D02*
X6753375Y-8278000D01*
G75*
G02*
X6748375Y-8283000I-5000J0D01*
G01*
X6629375Y-8283000D01*
G75*
G02*
X6624375Y-8278000I0J5000D01*
G01*
X6624375Y-7978000D01*
G75*
G02*
X6629375Y-7973000I5000J0D01*
G01*
X6748375Y-7973000D01*
G75*
G02*
X6753375Y-7978000I0J-5000D01*
G01*
G37*
D10*
X34544000Y-5207000D03*
D11*
X34290000Y-5715000D03*
D10*
X33909000Y-5461000D03*
D12*
X33782000Y-5715000D03*
X34798000Y-5715000D03*
G36*
G01*
X33449000Y-5586000D02*
X33449000Y-5336000D01*
G75*
G02*
X33454000Y-5331000I5000J0D01*
G01*
X33709000Y-5331000D01*
G75*
G02*
X33714000Y-5336000I0J-5000D01*
G01*
X33714000Y-5586000D01*
G75*
G02*
X33709000Y-5591000I-5000J0D01*
G01*
X33454000Y-5591000D01*
G75*
G02*
X33449000Y-5586000I0J5000D01*
G01*
G37*
G36*
G01*
X34741700Y-5332000D02*
X34741700Y-5082000D01*
G75*
G02*
X34746700Y-5077000I5000J0D01*
G01*
X35001700Y-5077000D01*
G75*
G02*
X35006700Y-5082000I0J-5000D01*
G01*
X35006700Y-5332000D01*
G75*
G02*
X35001700Y-5337000I-5000J0D01*
G01*
X34746700Y-5337000D01*
G75*
G02*
X34741700Y-5332000I0J5000D01*
G01*
G37*
D14*
X13870839Y-8572536D03*
X27146364Y-8572568D03*
X10477526Y-4494621D03*
X29527574Y-4494621D03*
X5357826Y-7024705D03*
X31432579Y-11757451D03*
X7143780Y-11787237D03*
X34528270Y-6667573D03*
G36*
G01*
X7465722Y-5770014D02*
X7595722Y-5770014D01*
G75*
G02*
X7600722Y-5775014I0J-5000D01*
G01*
X7600722Y-5845014D01*
G75*
G02*
X7595722Y-5850014I-5000J0D01*
G01*
X7465722Y-5850014D01*
G75*
G02*
X7460722Y-5845014I0J5000D01*
G01*
X7460722Y-5775014D01*
G75*
G02*
X7465722Y-5770014I5000J0D01*
G01*
G37*
G36*
G01*
X7465722Y-5580014D02*
X7595722Y-5580014D01*
G75*
G02*
X7600722Y-5585014I0J-5000D01*
G01*
X7600722Y-5655014D01*
G75*
G02*
X7595722Y-5660014I-5000J0D01*
G01*
X7465722Y-5660014D01*
G75*
G02*
X7460722Y-5655014I0J5000D01*
G01*
X7460722Y-5585014D01*
G75*
G02*
X7465722Y-5580014I5000J0D01*
G01*
G37*
D10*
X6445250Y-5207000D03*
D11*
X6191250Y-5715000D03*
D10*
X5810250Y-5461000D03*
D12*
X5683250Y-5715000D03*
X6699250Y-5715000D03*
G36*
G01*
X5350250Y-5586000D02*
X5350250Y-5336000D01*
G75*
G02*
X5355250Y-5331000I5000J0D01*
G01*
X5610250Y-5331000D01*
G75*
G02*
X5615250Y-5336000I0J-5000D01*
G01*
X5615250Y-5586000D01*
G75*
G02*
X5610250Y-5591000I-5000J0D01*
G01*
X5355250Y-5591000D01*
G75*
G02*
X5350250Y-5586000I0J5000D01*
G01*
G37*
G36*
G01*
X6642950Y-5332000D02*
X6642950Y-5082000D01*
G75*
G02*
X6647950Y-5077000I5000J0D01*
G01*
X6902950Y-5077000D01*
G75*
G02*
X6907950Y-5082000I0J-5000D01*
G01*
X6907950Y-5332000D01*
G75*
G02*
X6902950Y-5337000I-5000J0D01*
G01*
X6647950Y-5337000D01*
G75*
G02*
X6642950Y-5332000I0J5000D01*
G01*
G37*
D10*
X10969625Y-10922000D03*
D11*
X10715625Y-11430000D03*
D10*
X10334625Y-11176000D03*
D12*
X10207625Y-11430000D03*
X11223625Y-11430000D03*
G36*
G01*
X9874625Y-11301000D02*
X9874625Y-11051000D01*
G75*
G02*
X9879625Y-11046000I5000J0D01*
G01*
X10134625Y-11046000D01*
G75*
G02*
X10139625Y-11051000I0J-5000D01*
G01*
X10139625Y-11301000D01*
G75*
G02*
X10134625Y-11306000I-5000J0D01*
G01*
X9879625Y-11306000D01*
G75*
G02*
X9874625Y-11301000I0J5000D01*
G01*
G37*
G36*
G01*
X11167325Y-11047000D02*
X11167325Y-10797000D01*
G75*
G02*
X11172325Y-10792000I5000J0D01*
G01*
X11427325Y-10792000D01*
G75*
G02*
X11432325Y-10797000I0J-5000D01*
G01*
X11432325Y-11047000D01*
G75*
G02*
X11427325Y-11052000I-5000J0D01*
G01*
X11172325Y-11052000D01*
G75*
G02*
X11167325Y-11047000I0J5000D01*
G01*
G37*
D10*
X14065250Y-9017000D03*
D11*
X13811250Y-9525000D03*
D10*
X13430250Y-9271000D03*
D12*
X13303250Y-9525000D03*
X14319250Y-9525000D03*
G36*
G01*
X12970250Y-9396000D02*
X12970250Y-9146000D01*
G75*
G02*
X12975250Y-9141000I5000J0D01*
G01*
X13230250Y-9141000D01*
G75*
G02*
X13235250Y-9146000I0J-5000D01*
G01*
X13235250Y-9396000D01*
G75*
G02*
X13230250Y-9401000I-5000J0D01*
G01*
X12975250Y-9401000D01*
G75*
G02*
X12970250Y-9396000I0J5000D01*
G01*
G37*
G36*
G01*
X14262950Y-9142000D02*
X14262950Y-8892000D01*
G75*
G02*
X14267950Y-8887000I5000J0D01*
G01*
X14522950Y-8887000D01*
G75*
G02*
X14527950Y-8892000I0J-5000D01*
G01*
X14527950Y-9142000D01*
G75*
G02*
X14522950Y-9147000I-5000J0D01*
G01*
X14267950Y-9147000D01*
G75*
G02*
X14262950Y-9142000I0J5000D01*
G01*
G37*
D10*
X20732750Y-7112000D03*
D11*
X20478750Y-7620000D03*
D10*
X20097750Y-7366000D03*
D12*
X19970750Y-7620000D03*
X20986750Y-7620000D03*
G36*
G01*
X19637750Y-7491000D02*
X19637750Y-7241000D01*
G75*
G02*
X19642750Y-7236000I5000J0D01*
G01*
X19897750Y-7236000D01*
G75*
G02*
X19902750Y-7241000I0J-5000D01*
G01*
X19902750Y-7491000D01*
G75*
G02*
X19897750Y-7496000I-5000J0D01*
G01*
X19642750Y-7496000D01*
G75*
G02*
X19637750Y-7491000I0J5000D01*
G01*
G37*
G36*
G01*
X20930450Y-7237000D02*
X20930450Y-6987000D01*
G75*
G02*
X20935450Y-6982000I5000J0D01*
G01*
X21190450Y-6982000D01*
G75*
G02*
X21195450Y-6987000I0J-5000D01*
G01*
X21195450Y-7237000D01*
G75*
G02*
X21190450Y-7242000I-5000J0D01*
G01*
X20935450Y-7242000D01*
G75*
G02*
X20930450Y-7237000I0J5000D01*
G01*
G37*
G36*
G01*
X16836449Y-6334625D02*
X16836449Y-6264625D01*
G75*
G02*
X16841449Y-6259625I5000J0D01*
G01*
X16941449Y-6259625D01*
G75*
G02*
X16946449Y-6264625I0J-5000D01*
G01*
X16946449Y-6334625D01*
G75*
G02*
X16941449Y-6339625I-5000J0D01*
G01*
X16841449Y-6339625D01*
G75*
G02*
X16836449Y-6334625I0J5000D01*
G01*
G37*
G36*
G01*
X16836449Y-6534625D02*
X16836449Y-6464625D01*
G75*
G02*
X16841449Y-6459625I5000J0D01*
G01*
X16901449Y-6459625D01*
G75*
G02*
X16906449Y-6464625I0J-5000D01*
G01*
X16906449Y-6534625D01*
G75*
G02*
X16901449Y-6539625I-5000J0D01*
G01*
X16841449Y-6539625D01*
G75*
G02*
X16836449Y-6534625I0J5000D01*
G01*
G37*
G36*
G01*
X17026449Y-6334625D02*
X17026449Y-6264625D01*
G75*
G02*
X17031449Y-6259625I5000J0D01*
G01*
X17091449Y-6259625D01*
G75*
G02*
X17096449Y-6264625I0J-5000D01*
G01*
X17096449Y-6334625D01*
G75*
G02*
X17091449Y-6339625I-5000J0D01*
G01*
X17031449Y-6339625D01*
G75*
G02*
X17026449Y-6334625I0J5000D01*
G01*
G37*
G36*
G01*
X17026449Y-6534625D02*
X17026449Y-6464625D01*
G75*
G02*
X17031449Y-6459625I5000J0D01*
G01*
X17091449Y-6459625D01*
G75*
G02*
X17096449Y-6464625I0J-5000D01*
G01*
X17096449Y-6534625D01*
G75*
G02*
X17091449Y-6539625I-5000J0D01*
G01*
X17031449Y-6539625D01*
G75*
G02*
X17026449Y-6534625I0J5000D01*
G01*
G37*
D10*
X28829120Y-10922048D03*
D11*
X28575120Y-11430048D03*
D10*
X28194120Y-11176048D03*
D12*
X28067120Y-11430048D03*
X29083120Y-11430048D03*
G36*
G01*
X27734120Y-11301048D02*
X27734120Y-11051048D01*
G75*
G02*
X27739120Y-11046048I5000J0D01*
G01*
X27994120Y-11046048D01*
G75*
G02*
X27999120Y-11051048I0J-5000D01*
G01*
X27999120Y-11301048D01*
G75*
G02*
X27994120Y-11306048I-5000J0D01*
G01*
X27739120Y-11306048D01*
G75*
G02*
X27734120Y-11301048I0J5000D01*
G01*
G37*
G36*
G01*
X29026820Y-11047048D02*
X29026820Y-10797048D01*
G75*
G02*
X29031820Y-10792048I5000J0D01*
G01*
X29286820Y-10792048D01*
G75*
G02*
X29291820Y-10797048I0J-5000D01*
G01*
X29291820Y-11047048D01*
G75*
G02*
X29286820Y-11052048I-5000J0D01*
G01*
X29031820Y-11052048D01*
G75*
G02*
X29026820Y-11047048I0J5000D01*
G01*
G37*
D10*
X26924112Y-10922048D03*
D11*
X26670112Y-11430048D03*
D10*
X26289112Y-11176048D03*
D12*
X26162112Y-11430048D03*
X27178112Y-11430048D03*
G36*
G01*
X25829112Y-11301048D02*
X25829112Y-11051048D01*
G75*
G02*
X25834112Y-11046048I5000J0D01*
G01*
X26089112Y-11046048D01*
G75*
G02*
X26094112Y-11051048I0J-5000D01*
G01*
X26094112Y-11301048D01*
G75*
G02*
X26089112Y-11306048I-5000J0D01*
G01*
X25834112Y-11306048D01*
G75*
G02*
X25829112Y-11301048I0J5000D01*
G01*
G37*
G36*
G01*
X27121812Y-11047048D02*
X27121812Y-10797048D01*
G75*
G02*
X27126812Y-10792048I5000J0D01*
G01*
X27381812Y-10792048D01*
G75*
G02*
X27386812Y-10797048I0J-5000D01*
G01*
X27386812Y-11047048D01*
G75*
G02*
X27381812Y-11052048I-5000J0D01*
G01*
X27126812Y-11052048D01*
G75*
G02*
X27121812Y-11047048I0J5000D01*
G01*
G37*
D10*
X25019104Y-10922048D03*
D11*
X24765104Y-11430048D03*
D10*
X24384104Y-11176048D03*
D12*
X24257104Y-11430048D03*
X25273104Y-11430048D03*
G36*
G01*
X23924104Y-11301048D02*
X23924104Y-11051048D01*
G75*
G02*
X23929104Y-11046048I5000J0D01*
G01*
X24184104Y-11046048D01*
G75*
G02*
X24189104Y-11051048I0J-5000D01*
G01*
X24189104Y-11301048D01*
G75*
G02*
X24184104Y-11306048I-5000J0D01*
G01*
X23929104Y-11306048D01*
G75*
G02*
X23924104Y-11301048I0J5000D01*
G01*
G37*
G36*
G01*
X25216804Y-11047048D02*
X25216804Y-10797048D01*
G75*
G02*
X25221804Y-10792048I5000J0D01*
G01*
X25476804Y-10792048D01*
G75*
G02*
X25481804Y-10797048I0J-5000D01*
G01*
X25481804Y-11047048D01*
G75*
G02*
X25476804Y-11052048I-5000J0D01*
G01*
X25221804Y-11052048D01*
G75*
G02*
X25216804Y-11047048I0J5000D01*
G01*
G37*
D10*
X7366000Y-4318000D03*
D11*
X7620000Y-3810000D03*
D10*
X8001000Y-4064000D03*
D12*
X8128000Y-3810000D03*
X7112000Y-3810000D03*
G36*
G01*
X8461000Y-3939000D02*
X8461000Y-4189000D01*
G75*
G02*
X8456000Y-4194000I-5000J0D01*
G01*
X8201000Y-4194000D01*
G75*
G02*
X8196000Y-4189000I0J5000D01*
G01*
X8196000Y-3939000D01*
G75*
G02*
X8201000Y-3934000I5000J0D01*
G01*
X8456000Y-3934000D01*
G75*
G02*
X8461000Y-3939000I0J-5000D01*
G01*
G37*
G36*
G01*
X7168300Y-4193000D02*
X7168300Y-4443000D01*
G75*
G02*
X7163300Y-4448000I-5000J0D01*
G01*
X6908300Y-4448000D01*
G75*
G02*
X6903300Y-4443000I0J5000D01*
G01*
X6903300Y-4193000D01*
G75*
G02*
X6908300Y-4188000I5000J0D01*
G01*
X7163300Y-4188000D01*
G75*
G02*
X7168300Y-4193000I0J-5000D01*
G01*
G37*
D10*
X25019000Y-3302000D03*
D11*
X24765000Y-3810000D03*
D10*
X24384000Y-3556000D03*
D12*
X24257000Y-3810000D03*
X25273000Y-3810000D03*
G36*
G01*
X23924000Y-3681000D02*
X23924000Y-3431000D01*
G75*
G02*
X23929000Y-3426000I5000J0D01*
G01*
X24184000Y-3426000D01*
G75*
G02*
X24189000Y-3431000I0J-5000D01*
G01*
X24189000Y-3681000D01*
G75*
G02*
X24184000Y-3686000I-5000J0D01*
G01*
X23929000Y-3686000D01*
G75*
G02*
X23924000Y-3681000I0J5000D01*
G01*
G37*
G36*
G01*
X25216700Y-3427000D02*
X25216700Y-3177000D01*
G75*
G02*
X25221700Y-3172000I5000J0D01*
G01*
X25476700Y-3172000D01*
G75*
G02*
X25481700Y-3177000I0J-5000D01*
G01*
X25481700Y-3427000D01*
G75*
G02*
X25476700Y-3432000I-5000J0D01*
G01*
X25221700Y-3432000D01*
G75*
G02*
X25216700Y-3427000I0J5000D01*
G01*
G37*
G36*
G01*
X7825956Y-4731106D02*
X7825956Y-4831106D01*
G75*
G02*
X7820956Y-4836106I-5000J0D01*
G01*
X7670956Y-4836106D01*
G75*
G02*
X7665956Y-4831106I0J5000D01*
G01*
X7665956Y-4731106D01*
G75*
G02*
X7670956Y-4726106I5000J0D01*
G01*
X7820956Y-4726106D01*
G75*
G02*
X7825956Y-4731106I0J-5000D01*
G01*
G37*
G36*
G01*
X7825956Y-5051106D02*
X7825956Y-5151106D01*
G75*
G02*
X7820956Y-5156106I-5000J0D01*
G01*
X7670956Y-5156106D01*
G75*
G02*
X7665956Y-5151106I0J5000D01*
G01*
X7665956Y-5051106D01*
G75*
G02*
X7670956Y-5046106I5000J0D01*
G01*
X7820956Y-5046106D01*
G75*
G02*
X7825956Y-5051106I0J-5000D01*
G01*
G37*
G36*
G01*
X7335956Y-4731106D02*
X7335956Y-4831106D01*
G75*
G02*
X7330956Y-4836106I-5000J0D01*
G01*
X7180956Y-4836106D01*
G75*
G02*
X7175956Y-4831106I0J5000D01*
G01*
X7175956Y-4731106D01*
G75*
G02*
X7180956Y-4726106I5000J0D01*
G01*
X7330956Y-4726106D01*
G75*
G02*
X7335956Y-4731106I0J-5000D01*
G01*
G37*
G36*
G01*
X7335956Y-5051106D02*
X7335956Y-5151106D01*
G75*
G02*
X7330956Y-5156106I-5000J0D01*
G01*
X7180956Y-5156106D01*
G75*
G02*
X7175956Y-5151106I0J5000D01*
G01*
X7175956Y-5051106D01*
G75*
G02*
X7180956Y-5046106I5000J0D01*
G01*
X7330956Y-5046106D01*
G75*
G02*
X7335956Y-5051106I0J-5000D01*
G01*
G37*
D10*
X6683375Y-7112000D03*
D11*
X6429375Y-7620000D03*
D10*
X6048375Y-7366000D03*
D12*
X5921375Y-7620000D03*
X6937375Y-7620000D03*
G36*
G01*
X5588375Y-7491000D02*
X5588375Y-7241000D01*
G75*
G02*
X5593375Y-7236000I5000J0D01*
G01*
X5848375Y-7236000D01*
G75*
G02*
X5853375Y-7241000I0J-5000D01*
G01*
X5853375Y-7491000D01*
G75*
G02*
X5848375Y-7496000I-5000J0D01*
G01*
X5593375Y-7496000D01*
G75*
G02*
X5588375Y-7491000I0J5000D01*
G01*
G37*
G36*
G01*
X6881075Y-7237000D02*
X6881075Y-6987000D01*
G75*
G02*
X6886075Y-6982000I5000J0D01*
G01*
X7141075Y-6982000D01*
G75*
G02*
X7146075Y-6987000I0J-5000D01*
G01*
X7146075Y-7237000D01*
G75*
G02*
X7141075Y-7242000I-5000J0D01*
G01*
X6886075Y-7242000D01*
G75*
G02*
X6881075Y-7237000I0J5000D01*
G01*
G37*
D10*
X34544000Y-9017000D03*
D11*
X34290000Y-9525000D03*
D10*
X33909000Y-9271000D03*
D12*
X33782000Y-9525000D03*
X34798000Y-9525000D03*
G36*
G01*
X33449000Y-9396000D02*
X33449000Y-9146000D01*
G75*
G02*
X33454000Y-9141000I5000J0D01*
G01*
X33709000Y-9141000D01*
G75*
G02*
X33714000Y-9146000I0J-5000D01*
G01*
X33714000Y-9396000D01*
G75*
G02*
X33709000Y-9401000I-5000J0D01*
G01*
X33454000Y-9401000D01*
G75*
G02*
X33449000Y-9396000I0J5000D01*
G01*
G37*
G36*
G01*
X34741700Y-9142000D02*
X34741700Y-8892000D01*
G75*
G02*
X34746700Y-8887000I5000J0D01*
G01*
X35001700Y-8887000D01*
G75*
G02*
X35006700Y-8892000I0J-5000D01*
G01*
X35006700Y-9142000D01*
G75*
G02*
X35001700Y-9147000I-5000J0D01*
G01*
X34746700Y-9147000D01*
G75*
G02*
X34741700Y-9142000I0J5000D01*
G01*
G37*
D10*
X34544000Y-7112000D03*
D11*
X34290000Y-7620000D03*
D10*
X33909000Y-7366000D03*
D12*
X33782000Y-7620000D03*
X34798000Y-7620000D03*
G36*
G01*
X33449000Y-7491000D02*
X33449000Y-7241000D01*
G75*
G02*
X33454000Y-7236000I5000J0D01*
G01*
X33709000Y-7236000D01*
G75*
G02*
X33714000Y-7241000I0J-5000D01*
G01*
X33714000Y-7491000D01*
G75*
G02*
X33709000Y-7496000I-5000J0D01*
G01*
X33454000Y-7496000D01*
G75*
G02*
X33449000Y-7491000I0J5000D01*
G01*
G37*
G36*
G01*
X34741700Y-7237000D02*
X34741700Y-6987000D01*
G75*
G02*
X34746700Y-6982000I5000J0D01*
G01*
X35001700Y-6982000D01*
G75*
G02*
X35006700Y-6987000I0J-5000D01*
G01*
X35006700Y-7237000D01*
G75*
G02*
X35001700Y-7242000I-5000J0D01*
G01*
X34746700Y-7242000D01*
G75*
G02*
X34741700Y-7237000I0J5000D01*
G01*
G37*
D10*
X34544000Y-3302000D03*
D11*
X34290000Y-3810000D03*
D10*
X33909000Y-3556000D03*
D12*
X33782000Y-3810000D03*
X34798000Y-3810000D03*
G36*
G01*
X33449000Y-3681000D02*
X33449000Y-3431000D01*
G75*
G02*
X33454000Y-3426000I5000J0D01*
G01*
X33709000Y-3426000D01*
G75*
G02*
X33714000Y-3431000I0J-5000D01*
G01*
X33714000Y-3681000D01*
G75*
G02*
X33709000Y-3686000I-5000J0D01*
G01*
X33454000Y-3686000D01*
G75*
G02*
X33449000Y-3681000I0J5000D01*
G01*
G37*
G36*
G01*
X34741700Y-3427000D02*
X34741700Y-3177000D01*
G75*
G02*
X34746700Y-3172000I5000J0D01*
G01*
X35001700Y-3172000D01*
G75*
G02*
X35006700Y-3177000I0J-5000D01*
G01*
X35006700Y-3427000D01*
G75*
G02*
X35001700Y-3432000I-5000J0D01*
G01*
X34746700Y-3432000D01*
G75*
G02*
X34741700Y-3427000I0J5000D01*
G01*
G37*
D10*
X32639000Y-10922000D03*
D11*
X32385000Y-11430000D03*
D10*
X32004000Y-11176000D03*
D12*
X31877000Y-11430000D03*
X32893000Y-11430000D03*
G36*
G01*
X31544000Y-11301000D02*
X31544000Y-11051000D01*
G75*
G02*
X31549000Y-11046000I5000J0D01*
G01*
X31804000Y-11046000D01*
G75*
G02*
X31809000Y-11051000I0J-5000D01*
G01*
X31809000Y-11301000D01*
G75*
G02*
X31804000Y-11306000I-5000J0D01*
G01*
X31549000Y-11306000D01*
G75*
G02*
X31544000Y-11301000I0J5000D01*
G01*
G37*
G36*
G01*
X32836700Y-11047000D02*
X32836700Y-10797000D01*
G75*
G02*
X32841700Y-10792000I5000J0D01*
G01*
X33096700Y-10792000D01*
G75*
G02*
X33101700Y-10797000I0J-5000D01*
G01*
X33101700Y-11047000D01*
G75*
G02*
X33096700Y-11052000I-5000J0D01*
G01*
X32841700Y-11052000D01*
G75*
G02*
X32836700Y-11047000I0J5000D01*
G01*
G37*
D10*
X32639000Y-9017000D03*
D11*
X32385000Y-9525000D03*
D10*
X32004000Y-9271000D03*
D12*
X31877000Y-9525000D03*
X32893000Y-9525000D03*
G36*
G01*
X31544000Y-9396000D02*
X31544000Y-9146000D01*
G75*
G02*
X31549000Y-9141000I5000J0D01*
G01*
X31804000Y-9141000D01*
G75*
G02*
X31809000Y-9146000I0J-5000D01*
G01*
X31809000Y-9396000D01*
G75*
G02*
X31804000Y-9401000I-5000J0D01*
G01*
X31549000Y-9401000D01*
G75*
G02*
X31544000Y-9396000I0J5000D01*
G01*
G37*
G36*
G01*
X32836700Y-9142000D02*
X32836700Y-8892000D01*
G75*
G02*
X32841700Y-8887000I5000J0D01*
G01*
X33096700Y-8887000D01*
G75*
G02*
X33101700Y-8892000I0J-5000D01*
G01*
X33101700Y-9142000D01*
G75*
G02*
X33096700Y-9147000I-5000J0D01*
G01*
X32841700Y-9147000D01*
G75*
G02*
X32836700Y-9142000I0J5000D01*
G01*
G37*
D10*
X31448375Y-7112000D03*
D11*
X31194375Y-7620000D03*
D10*
X30813375Y-7366000D03*
D12*
X30686375Y-7620000D03*
X31702375Y-7620000D03*
G36*
G01*
X30353375Y-7491000D02*
X30353375Y-7241000D01*
G75*
G02*
X30358375Y-7236000I5000J0D01*
G01*
X30613375Y-7236000D01*
G75*
G02*
X30618375Y-7241000I0J-5000D01*
G01*
X30618375Y-7491000D01*
G75*
G02*
X30613375Y-7496000I-5000J0D01*
G01*
X30358375Y-7496000D01*
G75*
G02*
X30353375Y-7491000I0J5000D01*
G01*
G37*
G36*
G01*
X31646075Y-7237000D02*
X31646075Y-6987000D01*
G75*
G02*
X31651075Y-6982000I5000J0D01*
G01*
X31906075Y-6982000D01*
G75*
G02*
X31911075Y-6987000I0J-5000D01*
G01*
X31911075Y-7237000D01*
G75*
G02*
X31906075Y-7242000I-5000J0D01*
G01*
X31651075Y-7242000D01*
G75*
G02*
X31646075Y-7237000I0J5000D01*
G01*
G37*
D13*
X32388175Y-8318500D03*
X30000575Y-8318500D03*
D11*
X32388175Y-6794500D03*
X30000575Y-6794500D03*
D10*
X32162750Y-5207000D03*
D11*
X31908750Y-5715000D03*
D10*
X31527750Y-5461000D03*
D12*
X31400750Y-5715000D03*
X32416750Y-5715000D03*
G36*
G01*
X31067750Y-5586000D02*
X31067750Y-5336000D01*
G75*
G02*
X31072750Y-5331000I5000J0D01*
G01*
X31327750Y-5331000D01*
G75*
G02*
X31332750Y-5336000I0J-5000D01*
G01*
X31332750Y-5586000D01*
G75*
G02*
X31327750Y-5591000I-5000J0D01*
G01*
X31072750Y-5591000D01*
G75*
G02*
X31067750Y-5586000I0J5000D01*
G01*
G37*
G36*
G01*
X32360450Y-5332000D02*
X32360450Y-5082000D01*
G75*
G02*
X32365450Y-5077000I5000J0D01*
G01*
X32620450Y-5077000D01*
G75*
G02*
X32625450Y-5082000I0J-5000D01*
G01*
X32625450Y-5332000D01*
G75*
G02*
X32620450Y-5337000I-5000J0D01*
G01*
X32365450Y-5337000D01*
G75*
G02*
X32360450Y-5332000I0J5000D01*
G01*
G37*
D10*
X30734000Y-10922000D03*
D11*
X30480000Y-11430000D03*
D10*
X30099000Y-11176000D03*
D12*
X29972000Y-11430000D03*
X30988000Y-11430000D03*
G36*
G01*
X29639000Y-11301000D02*
X29639000Y-11051000D01*
G75*
G02*
X29644000Y-11046000I5000J0D01*
G01*
X29899000Y-11046000D01*
G75*
G02*
X29904000Y-11051000I0J-5000D01*
G01*
X29904000Y-11301000D01*
G75*
G02*
X29899000Y-11306000I-5000J0D01*
G01*
X29644000Y-11306000D01*
G75*
G02*
X29639000Y-11301000I0J5000D01*
G01*
G37*
G36*
G01*
X30931700Y-11047000D02*
X30931700Y-10797000D01*
G75*
G02*
X30936700Y-10792000I5000J0D01*
G01*
X31191700Y-10792000D01*
G75*
G02*
X31196700Y-10797000I0J-5000D01*
G01*
X31196700Y-11047000D01*
G75*
G02*
X31191700Y-11052000I-5000J0D01*
G01*
X30936700Y-11052000D01*
G75*
G02*
X30931700Y-11047000I0J5000D01*
G01*
G37*
D10*
X30019625Y-9017000D03*
D11*
X29765625Y-9525000D03*
D10*
X29384625Y-9271000D03*
D12*
X29257625Y-9525000D03*
X30273625Y-9525000D03*
G36*
G01*
X28924625Y-9396000D02*
X28924625Y-9146000D01*
G75*
G02*
X28929625Y-9141000I5000J0D01*
G01*
X29184625Y-9141000D01*
G75*
G02*
X29189625Y-9146000I0J-5000D01*
G01*
X29189625Y-9396000D01*
G75*
G02*
X29184625Y-9401000I-5000J0D01*
G01*
X28929625Y-9401000D01*
G75*
G02*
X28924625Y-9396000I0J5000D01*
G01*
G37*
G36*
G01*
X30217325Y-9142000D02*
X30217325Y-8892000D01*
G75*
G02*
X30222325Y-8887000I5000J0D01*
G01*
X30477325Y-8887000D01*
G75*
G02*
X30482325Y-8892000I0J-5000D01*
G01*
X30482325Y-9142000D01*
G75*
G02*
X30477325Y-9147000I-5000J0D01*
G01*
X30222325Y-9147000D01*
G75*
G02*
X30217325Y-9142000I0J5000D01*
G01*
G37*
D10*
X29781500Y-5207000D03*
D11*
X29527500Y-5715000D03*
D10*
X29146500Y-5461000D03*
D12*
X29019500Y-5715000D03*
X30035500Y-5715000D03*
G36*
G01*
X28686500Y-5586000D02*
X28686500Y-5336000D01*
G75*
G02*
X28691500Y-5331000I5000J0D01*
G01*
X28946500Y-5331000D01*
G75*
G02*
X28951500Y-5336000I0J-5000D01*
G01*
X28951500Y-5586000D01*
G75*
G02*
X28946500Y-5591000I-5000J0D01*
G01*
X28691500Y-5591000D01*
G75*
G02*
X28686500Y-5586000I0J5000D01*
G01*
G37*
G36*
G01*
X29979200Y-5332000D02*
X29979200Y-5082000D01*
G75*
G02*
X29984200Y-5077000I5000J0D01*
G01*
X30239200Y-5077000D01*
G75*
G02*
X30244200Y-5082000I0J-5000D01*
G01*
X30244200Y-5332000D01*
G75*
G02*
X30239200Y-5337000I-5000J0D01*
G01*
X29984200Y-5337000D01*
G75*
G02*
X29979200Y-5332000I0J5000D01*
G01*
G37*
D10*
X28829000Y-3302000D03*
D11*
X28575000Y-3810000D03*
D10*
X28194000Y-3556000D03*
D12*
X28067000Y-3810000D03*
X29083000Y-3810000D03*
G36*
G01*
X27734000Y-3681000D02*
X27734000Y-3431000D01*
G75*
G02*
X27739000Y-3426000I5000J0D01*
G01*
X27994000Y-3426000D01*
G75*
G02*
X27999000Y-3431000I0J-5000D01*
G01*
X27999000Y-3681000D01*
G75*
G02*
X27994000Y-3686000I-5000J0D01*
G01*
X27739000Y-3686000D01*
G75*
G02*
X27734000Y-3681000I0J5000D01*
G01*
G37*
G36*
G01*
X29026700Y-3427000D02*
X29026700Y-3177000D01*
G75*
G02*
X29031700Y-3172000I5000J0D01*
G01*
X29286700Y-3172000D01*
G75*
G02*
X29291700Y-3177000I0J-5000D01*
G01*
X29291700Y-3427000D01*
G75*
G02*
X29286700Y-3432000I-5000J0D01*
G01*
X29031700Y-3432000D01*
G75*
G02*
X29026700Y-3427000I0J5000D01*
G01*
G37*
D10*
X27400250Y-9017000D03*
D11*
X27146250Y-9525000D03*
D10*
X26765250Y-9271000D03*
D12*
X26638250Y-9525000D03*
X27654250Y-9525000D03*
G36*
G01*
X26305250Y-9396000D02*
X26305250Y-9146000D01*
G75*
G02*
X26310250Y-9141000I5000J0D01*
G01*
X26565250Y-9141000D01*
G75*
G02*
X26570250Y-9146000I0J-5000D01*
G01*
X26570250Y-9396000D01*
G75*
G02*
X26565250Y-9401000I-5000J0D01*
G01*
X26310250Y-9401000D01*
G75*
G02*
X26305250Y-9396000I0J5000D01*
G01*
G37*
G36*
G01*
X27597950Y-9142000D02*
X27597950Y-8892000D01*
G75*
G02*
X27602950Y-8887000I5000J0D01*
G01*
X27857950Y-8887000D01*
G75*
G02*
X27862950Y-8892000I0J-5000D01*
G01*
X27862950Y-9142000D01*
G75*
G02*
X27857950Y-9147000I-5000J0D01*
G01*
X27602950Y-9147000D01*
G75*
G02*
X27597950Y-9142000I0J5000D01*
G01*
G37*
D10*
X28352750Y-7112000D03*
D11*
X28098750Y-7620000D03*
D10*
X27717750Y-7366000D03*
D12*
X27590750Y-7620000D03*
X28606750Y-7620000D03*
G36*
G01*
X27257750Y-7491000D02*
X27257750Y-7241000D01*
G75*
G02*
X27262750Y-7236000I5000J0D01*
G01*
X27517750Y-7236000D01*
G75*
G02*
X27522750Y-7241000I0J-5000D01*
G01*
X27522750Y-7491000D01*
G75*
G02*
X27517750Y-7496000I-5000J0D01*
G01*
X27262750Y-7496000D01*
G75*
G02*
X27257750Y-7491000I0J5000D01*
G01*
G37*
G36*
G01*
X28550450Y-7237000D02*
X28550450Y-6987000D01*
G75*
G02*
X28555450Y-6982000I5000J0D01*
G01*
X28810450Y-6982000D01*
G75*
G02*
X28815450Y-6987000I0J-5000D01*
G01*
X28815450Y-7237000D01*
G75*
G02*
X28810450Y-7242000I-5000J0D01*
G01*
X28555450Y-7242000D01*
G75*
G02*
X28550450Y-7237000I0J5000D01*
G01*
G37*
D10*
X27876500Y-5207000D03*
D11*
X27622500Y-5715000D03*
D10*
X27241500Y-5461000D03*
D12*
X27114500Y-5715000D03*
X28130500Y-5715000D03*
G36*
G01*
X26781500Y-5586000D02*
X26781500Y-5336000D01*
G75*
G02*
X26786500Y-5331000I5000J0D01*
G01*
X27041500Y-5331000D01*
G75*
G02*
X27046500Y-5336000I0J-5000D01*
G01*
X27046500Y-5586000D01*
G75*
G02*
X27041500Y-5591000I-5000J0D01*
G01*
X26786500Y-5591000D01*
G75*
G02*
X26781500Y-5586000I0J5000D01*
G01*
G37*
G36*
G01*
X28074200Y-5332000D02*
X28074200Y-5082000D01*
G75*
G02*
X28079200Y-5077000I5000J0D01*
G01*
X28334200Y-5077000D01*
G75*
G02*
X28339200Y-5082000I0J-5000D01*
G01*
X28339200Y-5332000D01*
G75*
G02*
X28334200Y-5337000I-5000J0D01*
G01*
X28079200Y-5337000D01*
G75*
G02*
X28074200Y-5332000I0J5000D01*
G01*
G37*
D10*
X26924000Y-3302000D03*
D11*
X26670000Y-3810000D03*
D10*
X26289000Y-3556000D03*
D12*
X26162000Y-3810000D03*
X27178000Y-3810000D03*
G36*
G01*
X25829000Y-3681000D02*
X25829000Y-3431000D01*
G75*
G02*
X25834000Y-3426000I5000J0D01*
G01*
X26089000Y-3426000D01*
G75*
G02*
X26094000Y-3431000I0J-5000D01*
G01*
X26094000Y-3681000D01*
G75*
G02*
X26089000Y-3686000I-5000J0D01*
G01*
X25834000Y-3686000D01*
G75*
G02*
X25829000Y-3681000I0J5000D01*
G01*
G37*
G36*
G01*
X27121700Y-3427000D02*
X27121700Y-3177000D01*
G75*
G02*
X27126700Y-3172000I5000J0D01*
G01*
X27381700Y-3172000D01*
G75*
G02*
X27386700Y-3177000I0J-5000D01*
G01*
X27386700Y-3427000D01*
G75*
G02*
X27381700Y-3432000I-5000J0D01*
G01*
X27126700Y-3432000D01*
G75*
G02*
X27121700Y-3427000I0J5000D01*
G01*
G37*
D10*
X25495250Y-9017000D03*
D11*
X25241250Y-9525000D03*
D10*
X24860250Y-9271000D03*
D12*
X24733250Y-9525000D03*
X25749250Y-9525000D03*
G36*
G01*
X24400250Y-9396000D02*
X24400250Y-9146000D01*
G75*
G02*
X24405250Y-9141000I5000J0D01*
G01*
X24660250Y-9141000D01*
G75*
G02*
X24665250Y-9146000I0J-5000D01*
G01*
X24665250Y-9396000D01*
G75*
G02*
X24660250Y-9401000I-5000J0D01*
G01*
X24405250Y-9401000D01*
G75*
G02*
X24400250Y-9396000I0J5000D01*
G01*
G37*
G36*
G01*
X25692950Y-9142000D02*
X25692950Y-8892000D01*
G75*
G02*
X25697950Y-8887000I5000J0D01*
G01*
X25952950Y-8887000D01*
G75*
G02*
X25957950Y-8892000I0J-5000D01*
G01*
X25957950Y-9142000D01*
G75*
G02*
X25952950Y-9147000I-5000J0D01*
G01*
X25697950Y-9147000D01*
G75*
G02*
X25692950Y-9142000I0J5000D01*
G01*
G37*
D10*
X26447750Y-7112000D03*
D11*
X26193750Y-7620000D03*
D10*
X25812750Y-7366000D03*
D12*
X25685750Y-7620000D03*
X26701750Y-7620000D03*
G36*
G01*
X25352750Y-7491000D02*
X25352750Y-7241000D01*
G75*
G02*
X25357750Y-7236000I5000J0D01*
G01*
X25612750Y-7236000D01*
G75*
G02*
X25617750Y-7241000I0J-5000D01*
G01*
X25617750Y-7491000D01*
G75*
G02*
X25612750Y-7496000I-5000J0D01*
G01*
X25357750Y-7496000D01*
G75*
G02*
X25352750Y-7491000I0J5000D01*
G01*
G37*
G36*
G01*
X26645450Y-7237000D02*
X26645450Y-6987000D01*
G75*
G02*
X26650450Y-6982000I5000J0D01*
G01*
X26905450Y-6982000D01*
G75*
G02*
X26910450Y-6987000I0J-5000D01*
G01*
X26910450Y-7237000D01*
G75*
G02*
X26905450Y-7242000I-5000J0D01*
G01*
X26650450Y-7242000D01*
G75*
G02*
X26645450Y-7237000I0J5000D01*
G01*
G37*
D10*
X25971500Y-5207000D03*
D11*
X25717500Y-5715000D03*
D10*
X25336500Y-5461000D03*
D12*
X25209500Y-5715000D03*
X26225500Y-5715000D03*
G36*
G01*
X24876500Y-5586000D02*
X24876500Y-5336000D01*
G75*
G02*
X24881500Y-5331000I5000J0D01*
G01*
X25136500Y-5331000D01*
G75*
G02*
X25141500Y-5336000I0J-5000D01*
G01*
X25141500Y-5586000D01*
G75*
G02*
X25136500Y-5591000I-5000J0D01*
G01*
X24881500Y-5591000D01*
G75*
G02*
X24876500Y-5586000I0J5000D01*
G01*
G37*
G36*
G01*
X26169200Y-5332000D02*
X26169200Y-5082000D01*
G75*
G02*
X26174200Y-5077000I5000J0D01*
G01*
X26429200Y-5077000D01*
G75*
G02*
X26434200Y-5082000I0J-5000D01*
G01*
X26434200Y-5332000D01*
G75*
G02*
X26429200Y-5337000I-5000J0D01*
G01*
X26174200Y-5337000D01*
G75*
G02*
X26169200Y-5332000I0J5000D01*
G01*
G37*
D10*
X23590250Y-9017000D03*
D11*
X23336250Y-9525000D03*
D10*
X22955250Y-9271000D03*
D12*
X22828250Y-9525000D03*
X23844250Y-9525000D03*
G36*
G01*
X22495250Y-9396000D02*
X22495250Y-9146000D01*
G75*
G02*
X22500250Y-9141000I5000J0D01*
G01*
X22755250Y-9141000D01*
G75*
G02*
X22760250Y-9146000I0J-5000D01*
G01*
X22760250Y-9396000D01*
G75*
G02*
X22755250Y-9401000I-5000J0D01*
G01*
X22500250Y-9401000D01*
G75*
G02*
X22495250Y-9396000I0J5000D01*
G01*
G37*
G36*
G01*
X23787950Y-9142000D02*
X23787950Y-8892000D01*
G75*
G02*
X23792950Y-8887000I5000J0D01*
G01*
X24047950Y-8887000D01*
G75*
G02*
X24052950Y-8892000I0J-5000D01*
G01*
X24052950Y-9142000D01*
G75*
G02*
X24047950Y-9147000I-5000J0D01*
G01*
X23792950Y-9147000D01*
G75*
G02*
X23787950Y-9142000I0J5000D01*
G01*
G37*
D10*
X24542750Y-7112000D03*
D11*
X24288750Y-7620000D03*
D10*
X23907750Y-7366000D03*
D12*
X23780750Y-7620000D03*
X24796750Y-7620000D03*
G36*
G01*
X23447750Y-7491000D02*
X23447750Y-7241000D01*
G75*
G02*
X23452750Y-7236000I5000J0D01*
G01*
X23707750Y-7236000D01*
G75*
G02*
X23712750Y-7241000I0J-5000D01*
G01*
X23712750Y-7491000D01*
G75*
G02*
X23707750Y-7496000I-5000J0D01*
G01*
X23452750Y-7496000D01*
G75*
G02*
X23447750Y-7491000I0J5000D01*
G01*
G37*
G36*
G01*
X24740450Y-7237000D02*
X24740450Y-6987000D01*
G75*
G02*
X24745450Y-6982000I5000J0D01*
G01*
X25000450Y-6982000D01*
G75*
G02*
X25005450Y-6987000I0J-5000D01*
G01*
X25005450Y-7237000D01*
G75*
G02*
X25000450Y-7242000I-5000J0D01*
G01*
X24745450Y-7242000D01*
G75*
G02*
X24740450Y-7237000I0J5000D01*
G01*
G37*
D10*
X24066500Y-5207000D03*
D11*
X23812500Y-5715000D03*
D10*
X23431500Y-5461000D03*
D12*
X23304500Y-5715000D03*
X24320500Y-5715000D03*
G36*
G01*
X22971500Y-5586000D02*
X22971500Y-5336000D01*
G75*
G02*
X22976500Y-5331000I5000J0D01*
G01*
X23231500Y-5331000D01*
G75*
G02*
X23236500Y-5336000I0J-5000D01*
G01*
X23236500Y-5586000D01*
G75*
G02*
X23231500Y-5591000I-5000J0D01*
G01*
X22976500Y-5591000D01*
G75*
G02*
X22971500Y-5586000I0J5000D01*
G01*
G37*
G36*
G01*
X24264200Y-5332000D02*
X24264200Y-5082000D01*
G75*
G02*
X24269200Y-5077000I5000J0D01*
G01*
X24524200Y-5077000D01*
G75*
G02*
X24529200Y-5082000I0J-5000D01*
G01*
X24529200Y-5332000D01*
G75*
G02*
X24524200Y-5337000I-5000J0D01*
G01*
X24269200Y-5337000D01*
G75*
G02*
X24264200Y-5332000I0J5000D01*
G01*
G37*
D10*
X23114000Y-3302000D03*
D11*
X22860000Y-3810000D03*
D10*
X22479000Y-3556000D03*
D12*
X22352000Y-3810000D03*
X23368000Y-3810000D03*
G36*
G01*
X22019000Y-3681000D02*
X22019000Y-3431000D01*
G75*
G02*
X22024000Y-3426000I5000J0D01*
G01*
X22279000Y-3426000D01*
G75*
G02*
X22284000Y-3431000I0J-5000D01*
G01*
X22284000Y-3681000D01*
G75*
G02*
X22279000Y-3686000I-5000J0D01*
G01*
X22024000Y-3686000D01*
G75*
G02*
X22019000Y-3681000I0J5000D01*
G01*
G37*
G36*
G01*
X23311700Y-3427000D02*
X23311700Y-3177000D01*
G75*
G02*
X23316700Y-3172000I5000J0D01*
G01*
X23571700Y-3172000D01*
G75*
G02*
X23576700Y-3177000I0J-5000D01*
G01*
X23576700Y-3427000D01*
G75*
G02*
X23571700Y-3432000I-5000J0D01*
G01*
X23316700Y-3432000D01*
G75*
G02*
X23311700Y-3427000I0J5000D01*
G01*
G37*
D10*
X21685250Y-9017000D03*
D11*
X21431250Y-9525000D03*
D10*
X21050250Y-9271000D03*
D12*
X20923250Y-9525000D03*
X21939250Y-9525000D03*
G36*
G01*
X20590250Y-9396000D02*
X20590250Y-9146000D01*
G75*
G02*
X20595250Y-9141000I5000J0D01*
G01*
X20850250Y-9141000D01*
G75*
G02*
X20855250Y-9146000I0J-5000D01*
G01*
X20855250Y-9396000D01*
G75*
G02*
X20850250Y-9401000I-5000J0D01*
G01*
X20595250Y-9401000D01*
G75*
G02*
X20590250Y-9396000I0J5000D01*
G01*
G37*
G36*
G01*
X21882950Y-9142000D02*
X21882950Y-8892000D01*
G75*
G02*
X21887950Y-8887000I5000J0D01*
G01*
X22142950Y-8887000D01*
G75*
G02*
X22147950Y-8892000I0J-5000D01*
G01*
X22147950Y-9142000D01*
G75*
G02*
X22142950Y-9147000I-5000J0D01*
G01*
X21887950Y-9147000D01*
G75*
G02*
X21882950Y-9142000I0J5000D01*
G01*
G37*
D10*
X22637750Y-7112000D03*
D11*
X22383750Y-7620000D03*
D10*
X22002750Y-7366000D03*
D12*
X21875750Y-7620000D03*
X22891750Y-7620000D03*
G36*
G01*
X21542750Y-7491000D02*
X21542750Y-7241000D01*
G75*
G02*
X21547750Y-7236000I5000J0D01*
G01*
X21802750Y-7236000D01*
G75*
G02*
X21807750Y-7241000I0J-5000D01*
G01*
X21807750Y-7491000D01*
G75*
G02*
X21802750Y-7496000I-5000J0D01*
G01*
X21547750Y-7496000D01*
G75*
G02*
X21542750Y-7491000I0J5000D01*
G01*
G37*
G36*
G01*
X22835450Y-7237000D02*
X22835450Y-6987000D01*
G75*
G02*
X22840450Y-6982000I5000J0D01*
G01*
X23095450Y-6982000D01*
G75*
G02*
X23100450Y-6987000I0J-5000D01*
G01*
X23100450Y-7237000D01*
G75*
G02*
X23095450Y-7242000I-5000J0D01*
G01*
X22840450Y-7242000D01*
G75*
G02*
X22835450Y-7237000I0J5000D01*
G01*
G37*
D10*
X22161500Y-5207000D03*
D11*
X21907500Y-5715000D03*
D10*
X21526500Y-5461000D03*
D12*
X21399500Y-5715000D03*
X22415500Y-5715000D03*
G36*
G01*
X21066500Y-5586000D02*
X21066500Y-5336000D01*
G75*
G02*
X21071500Y-5331000I5000J0D01*
G01*
X21326500Y-5331000D01*
G75*
G02*
X21331500Y-5336000I0J-5000D01*
G01*
X21331500Y-5586000D01*
G75*
G02*
X21326500Y-5591000I-5000J0D01*
G01*
X21071500Y-5591000D01*
G75*
G02*
X21066500Y-5586000I0J5000D01*
G01*
G37*
G36*
G01*
X22359200Y-5332000D02*
X22359200Y-5082000D01*
G75*
G02*
X22364200Y-5077000I5000J0D01*
G01*
X22619200Y-5077000D01*
G75*
G02*
X22624200Y-5082000I0J-5000D01*
G01*
X22624200Y-5332000D01*
G75*
G02*
X22619200Y-5337000I-5000J0D01*
G01*
X22364200Y-5337000D01*
G75*
G02*
X22359200Y-5332000I0J5000D01*
G01*
G37*
D10*
X21209000Y-3302000D03*
D11*
X20955000Y-3810000D03*
D10*
X20574000Y-3556000D03*
D12*
X20447000Y-3810000D03*
X21463000Y-3810000D03*
G36*
G01*
X20114000Y-3681000D02*
X20114000Y-3431000D01*
G75*
G02*
X20119000Y-3426000I5000J0D01*
G01*
X20374000Y-3426000D01*
G75*
G02*
X20379000Y-3431000I0J-5000D01*
G01*
X20379000Y-3681000D01*
G75*
G02*
X20374000Y-3686000I-5000J0D01*
G01*
X20119000Y-3686000D01*
G75*
G02*
X20114000Y-3681000I0J5000D01*
G01*
G37*
G36*
G01*
X21406700Y-3427000D02*
X21406700Y-3177000D01*
G75*
G02*
X21411700Y-3172000I5000J0D01*
G01*
X21666700Y-3172000D01*
G75*
G02*
X21671700Y-3177000I0J-5000D01*
G01*
X21671700Y-3427000D01*
G75*
G02*
X21666700Y-3432000I-5000J0D01*
G01*
X21411700Y-3432000D01*
G75*
G02*
X21406700Y-3427000I0J5000D01*
G01*
G37*
D10*
X19780250Y-9017000D03*
D11*
X19526250Y-9525000D03*
D10*
X19145250Y-9271000D03*
D12*
X19018250Y-9525000D03*
X20034250Y-9525000D03*
G36*
G01*
X18685250Y-9396000D02*
X18685250Y-9146000D01*
G75*
G02*
X18690250Y-9141000I5000J0D01*
G01*
X18945250Y-9141000D01*
G75*
G02*
X18950250Y-9146000I0J-5000D01*
G01*
X18950250Y-9396000D01*
G75*
G02*
X18945250Y-9401000I-5000J0D01*
G01*
X18690250Y-9401000D01*
G75*
G02*
X18685250Y-9396000I0J5000D01*
G01*
G37*
G36*
G01*
X19977950Y-9142000D02*
X19977950Y-8892000D01*
G75*
G02*
X19982950Y-8887000I5000J0D01*
G01*
X20237950Y-8887000D01*
G75*
G02*
X20242950Y-8892000I0J-5000D01*
G01*
X20242950Y-9142000D01*
G75*
G02*
X20237950Y-9147000I-5000J0D01*
G01*
X19982950Y-9147000D01*
G75*
G02*
X19977950Y-9142000I0J5000D01*
G01*
G37*
D10*
X19304000Y-3302000D03*
D11*
X19050000Y-3810000D03*
D10*
X18669000Y-3556000D03*
D12*
X18542000Y-3810000D03*
X19558000Y-3810000D03*
G36*
G01*
X18209000Y-3681000D02*
X18209000Y-3431000D01*
G75*
G02*
X18214000Y-3426000I5000J0D01*
G01*
X18469000Y-3426000D01*
G75*
G02*
X18474000Y-3431000I0J-5000D01*
G01*
X18474000Y-3681000D01*
G75*
G02*
X18469000Y-3686000I-5000J0D01*
G01*
X18214000Y-3686000D01*
G75*
G02*
X18209000Y-3681000I0J5000D01*
G01*
G37*
G36*
G01*
X19501700Y-3427000D02*
X19501700Y-3177000D01*
G75*
G02*
X19506700Y-3172000I5000J0D01*
G01*
X19761700Y-3172000D01*
G75*
G02*
X19766700Y-3177000I0J-5000D01*
G01*
X19766700Y-3427000D01*
G75*
G02*
X19761700Y-3432000I-5000J0D01*
G01*
X19506700Y-3432000D01*
G75*
G02*
X19501700Y-3427000I0J5000D01*
G01*
G37*
D10*
X17875250Y-9017000D03*
D11*
X17621250Y-9525000D03*
D10*
X17240250Y-9271000D03*
D12*
X17113250Y-9525000D03*
X18129250Y-9525000D03*
G36*
G01*
X16780250Y-9396000D02*
X16780250Y-9146000D01*
G75*
G02*
X16785250Y-9141000I5000J0D01*
G01*
X17040250Y-9141000D01*
G75*
G02*
X17045250Y-9146000I0J-5000D01*
G01*
X17045250Y-9396000D01*
G75*
G02*
X17040250Y-9401000I-5000J0D01*
G01*
X16785250Y-9401000D01*
G75*
G02*
X16780250Y-9396000I0J5000D01*
G01*
G37*
G36*
G01*
X18072950Y-9142000D02*
X18072950Y-8892000D01*
G75*
G02*
X18077950Y-8887000I5000J0D01*
G01*
X18332950Y-8887000D01*
G75*
G02*
X18337950Y-8892000I0J-5000D01*
G01*
X18337950Y-9142000D01*
G75*
G02*
X18332950Y-9147000I-5000J0D01*
G01*
X18077950Y-9147000D01*
G75*
G02*
X18072950Y-9142000I0J5000D01*
G01*
G37*
D10*
X18827750Y-7112000D03*
D11*
X18573750Y-7620000D03*
D10*
X18192750Y-7366000D03*
D12*
X18065750Y-7620000D03*
X19081750Y-7620000D03*
G36*
G01*
X17732750Y-7491000D02*
X17732750Y-7241000D01*
G75*
G02*
X17737750Y-7236000I5000J0D01*
G01*
X17992750Y-7236000D01*
G75*
G02*
X17997750Y-7241000I0J-5000D01*
G01*
X17997750Y-7491000D01*
G75*
G02*
X17992750Y-7496000I-5000J0D01*
G01*
X17737750Y-7496000D01*
G75*
G02*
X17732750Y-7491000I0J5000D01*
G01*
G37*
G36*
G01*
X19025450Y-7237000D02*
X19025450Y-6987000D01*
G75*
G02*
X19030450Y-6982000I5000J0D01*
G01*
X19285450Y-6982000D01*
G75*
G02*
X19290450Y-6987000I0J-5000D01*
G01*
X19290450Y-7237000D01*
G75*
G02*
X19285450Y-7242000I-5000J0D01*
G01*
X19030450Y-7242000D01*
G75*
G02*
X19025450Y-7237000I0J5000D01*
G01*
G37*
D10*
X18351500Y-5207000D03*
D11*
X18097500Y-5715000D03*
D10*
X17716500Y-5461000D03*
D12*
X17589500Y-5715000D03*
X18605500Y-5715000D03*
G36*
G01*
X17256500Y-5586000D02*
X17256500Y-5336000D01*
G75*
G02*
X17261500Y-5331000I5000J0D01*
G01*
X17516500Y-5331000D01*
G75*
G02*
X17521500Y-5336000I0J-5000D01*
G01*
X17521500Y-5586000D01*
G75*
G02*
X17516500Y-5591000I-5000J0D01*
G01*
X17261500Y-5591000D01*
G75*
G02*
X17256500Y-5586000I0J5000D01*
G01*
G37*
G36*
G01*
X18549200Y-5332000D02*
X18549200Y-5082000D01*
G75*
G02*
X18554200Y-5077000I5000J0D01*
G01*
X18809200Y-5077000D01*
G75*
G02*
X18814200Y-5082000I0J-5000D01*
G01*
X18814200Y-5332000D01*
G75*
G02*
X18809200Y-5337000I-5000J0D01*
G01*
X18554200Y-5337000D01*
G75*
G02*
X18549200Y-5332000I0J5000D01*
G01*
G37*
D10*
X17399000Y-3302000D03*
D11*
X17145000Y-3810000D03*
D10*
X16764000Y-3556000D03*
D12*
X16637000Y-3810000D03*
X17653000Y-3810000D03*
G36*
G01*
X16304000Y-3681000D02*
X16304000Y-3431000D01*
G75*
G02*
X16309000Y-3426000I5000J0D01*
G01*
X16564000Y-3426000D01*
G75*
G02*
X16569000Y-3431000I0J-5000D01*
G01*
X16569000Y-3681000D01*
G75*
G02*
X16564000Y-3686000I-5000J0D01*
G01*
X16309000Y-3686000D01*
G75*
G02*
X16304000Y-3681000I0J5000D01*
G01*
G37*
G36*
G01*
X17596700Y-3427000D02*
X17596700Y-3177000D01*
G75*
G02*
X17601700Y-3172000I5000J0D01*
G01*
X17856700Y-3172000D01*
G75*
G02*
X17861700Y-3177000I0J-5000D01*
G01*
X17861700Y-3427000D01*
G75*
G02*
X17856700Y-3432000I-5000J0D01*
G01*
X17601700Y-3432000D01*
G75*
G02*
X17596700Y-3427000I0J5000D01*
G01*
G37*
D10*
X15970250Y-9017000D03*
D11*
X15716250Y-9525000D03*
D10*
X15335250Y-9271000D03*
D12*
X15208250Y-9525000D03*
X16224250Y-9525000D03*
G36*
G01*
X14875250Y-9396000D02*
X14875250Y-9146000D01*
G75*
G02*
X14880250Y-9141000I5000J0D01*
G01*
X15135250Y-9141000D01*
G75*
G02*
X15140250Y-9146000I0J-5000D01*
G01*
X15140250Y-9396000D01*
G75*
G02*
X15135250Y-9401000I-5000J0D01*
G01*
X14880250Y-9401000D01*
G75*
G02*
X14875250Y-9396000I0J5000D01*
G01*
G37*
G36*
G01*
X16167950Y-9142000D02*
X16167950Y-8892000D01*
G75*
G02*
X16172950Y-8887000I5000J0D01*
G01*
X16427950Y-8887000D01*
G75*
G02*
X16432950Y-8892000I0J-5000D01*
G01*
X16432950Y-9142000D01*
G75*
G02*
X16427950Y-9147000I-5000J0D01*
G01*
X16172950Y-9147000D01*
G75*
G02*
X16167950Y-9142000I0J5000D01*
G01*
G37*
D10*
X16922750Y-7112000D03*
D11*
X16668750Y-7620000D03*
D10*
X16287750Y-7366000D03*
D12*
X16160750Y-7620000D03*
X17176750Y-7620000D03*
G36*
G01*
X15827750Y-7491000D02*
X15827750Y-7241000D01*
G75*
G02*
X15832750Y-7236000I5000J0D01*
G01*
X16087750Y-7236000D01*
G75*
G02*
X16092750Y-7241000I0J-5000D01*
G01*
X16092750Y-7491000D01*
G75*
G02*
X16087750Y-7496000I-5000J0D01*
G01*
X15832750Y-7496000D01*
G75*
G02*
X15827750Y-7491000I0J5000D01*
G01*
G37*
G36*
G01*
X17120450Y-7237000D02*
X17120450Y-6987000D01*
G75*
G02*
X17125450Y-6982000I5000J0D01*
G01*
X17380450Y-6982000D01*
G75*
G02*
X17385450Y-6987000I0J-5000D01*
G01*
X17385450Y-7237000D01*
G75*
G02*
X17380450Y-7242000I-5000J0D01*
G01*
X17125450Y-7242000D01*
G75*
G02*
X17120450Y-7237000I0J5000D01*
G01*
G37*
D10*
X16446500Y-5207000D03*
D11*
X16192500Y-5715000D03*
D10*
X15811500Y-5461000D03*
D12*
X15684500Y-5715000D03*
X16700500Y-5715000D03*
G36*
G01*
X15351500Y-5586000D02*
X15351500Y-5336000D01*
G75*
G02*
X15356500Y-5331000I5000J0D01*
G01*
X15611500Y-5331000D01*
G75*
G02*
X15616500Y-5336000I0J-5000D01*
G01*
X15616500Y-5586000D01*
G75*
G02*
X15611500Y-5591000I-5000J0D01*
G01*
X15356500Y-5591000D01*
G75*
G02*
X15351500Y-5586000I0J5000D01*
G01*
G37*
G36*
G01*
X16644200Y-5332000D02*
X16644200Y-5082000D01*
G75*
G02*
X16649200Y-5077000I5000J0D01*
G01*
X16904200Y-5077000D01*
G75*
G02*
X16909200Y-5082000I0J-5000D01*
G01*
X16909200Y-5332000D01*
G75*
G02*
X16904200Y-5337000I-5000J0D01*
G01*
X16649200Y-5337000D01*
G75*
G02*
X16644200Y-5332000I0J5000D01*
G01*
G37*
D10*
X15494000Y-3302000D03*
D11*
X15240000Y-3810000D03*
D10*
X14859000Y-3556000D03*
D12*
X14732000Y-3810000D03*
X15748000Y-3810000D03*
G36*
G01*
X14399000Y-3681000D02*
X14399000Y-3431000D01*
G75*
G02*
X14404000Y-3426000I5000J0D01*
G01*
X14659000Y-3426000D01*
G75*
G02*
X14664000Y-3431000I0J-5000D01*
G01*
X14664000Y-3681000D01*
G75*
G02*
X14659000Y-3686000I-5000J0D01*
G01*
X14404000Y-3686000D01*
G75*
G02*
X14399000Y-3681000I0J5000D01*
G01*
G37*
G36*
G01*
X15691700Y-3427000D02*
X15691700Y-3177000D01*
G75*
G02*
X15696700Y-3172000I5000J0D01*
G01*
X15951700Y-3172000D01*
G75*
G02*
X15956700Y-3177000I0J-5000D01*
G01*
X15956700Y-3427000D01*
G75*
G02*
X15951700Y-3432000I-5000J0D01*
G01*
X15696700Y-3432000D01*
G75*
G02*
X15691700Y-3427000I0J5000D01*
G01*
G37*
D10*
X15017750Y-7112000D03*
D11*
X14763750Y-7620000D03*
D10*
X14382750Y-7366000D03*
D12*
X14255750Y-7620000D03*
X15271750Y-7620000D03*
G36*
G01*
X13922750Y-7491000D02*
X13922750Y-7241000D01*
G75*
G02*
X13927750Y-7236000I5000J0D01*
G01*
X14182750Y-7236000D01*
G75*
G02*
X14187750Y-7241000I0J-5000D01*
G01*
X14187750Y-7491000D01*
G75*
G02*
X14182750Y-7496000I-5000J0D01*
G01*
X13927750Y-7496000D01*
G75*
G02*
X13922750Y-7491000I0J5000D01*
G01*
G37*
G36*
G01*
X15215450Y-7237000D02*
X15215450Y-6987000D01*
G75*
G02*
X15220450Y-6982000I5000J0D01*
G01*
X15475450Y-6982000D01*
G75*
G02*
X15480450Y-6987000I0J-5000D01*
G01*
X15480450Y-7237000D01*
G75*
G02*
X15475450Y-7242000I-5000J0D01*
G01*
X15220450Y-7242000D01*
G75*
G02*
X15215450Y-7237000I0J5000D01*
G01*
G37*
D10*
X14541500Y-5207000D03*
D11*
X14287500Y-5715000D03*
D10*
X13906500Y-5461000D03*
D12*
X13779500Y-5715000D03*
X14795500Y-5715000D03*
G36*
G01*
X13446500Y-5586000D02*
X13446500Y-5336000D01*
G75*
G02*
X13451500Y-5331000I5000J0D01*
G01*
X13706500Y-5331000D01*
G75*
G02*
X13711500Y-5336000I0J-5000D01*
G01*
X13711500Y-5586000D01*
G75*
G02*
X13706500Y-5591000I-5000J0D01*
G01*
X13451500Y-5591000D01*
G75*
G02*
X13446500Y-5586000I0J5000D01*
G01*
G37*
G36*
G01*
X14739200Y-5332000D02*
X14739200Y-5082000D01*
G75*
G02*
X14744200Y-5077000I5000J0D01*
G01*
X14999200Y-5077000D01*
G75*
G02*
X15004200Y-5082000I0J-5000D01*
G01*
X15004200Y-5332000D01*
G75*
G02*
X14999200Y-5337000I-5000J0D01*
G01*
X14744200Y-5337000D01*
G75*
G02*
X14739200Y-5332000I0J5000D01*
G01*
G37*
D10*
X13589000Y-3302000D03*
D11*
X13335000Y-3810000D03*
D10*
X12954000Y-3556000D03*
D12*
X12827000Y-3810000D03*
X13843000Y-3810000D03*
G36*
G01*
X12494000Y-3681000D02*
X12494000Y-3431000D01*
G75*
G02*
X12499000Y-3426000I5000J0D01*
G01*
X12754000Y-3426000D01*
G75*
G02*
X12759000Y-3431000I0J-5000D01*
G01*
X12759000Y-3681000D01*
G75*
G02*
X12754000Y-3686000I-5000J0D01*
G01*
X12499000Y-3686000D01*
G75*
G02*
X12494000Y-3681000I0J5000D01*
G01*
G37*
G36*
G01*
X13786700Y-3427000D02*
X13786700Y-3177000D01*
G75*
G02*
X13791700Y-3172000I5000J0D01*
G01*
X14046700Y-3172000D01*
G75*
G02*
X14051700Y-3177000I0J-5000D01*
G01*
X14051700Y-3427000D01*
G75*
G02*
X14046700Y-3432000I-5000J0D01*
G01*
X13791700Y-3432000D01*
G75*
G02*
X13786700Y-3427000I0J5000D01*
G01*
G37*
D10*
X12160250Y-9017000D03*
D11*
X11906250Y-9525000D03*
D10*
X11525250Y-9271000D03*
D12*
X11398250Y-9525000D03*
X12414250Y-9525000D03*
G36*
G01*
X11065250Y-9396000D02*
X11065250Y-9146000D01*
G75*
G02*
X11070250Y-9141000I5000J0D01*
G01*
X11325250Y-9141000D01*
G75*
G02*
X11330250Y-9146000I0J-5000D01*
G01*
X11330250Y-9396000D01*
G75*
G02*
X11325250Y-9401000I-5000J0D01*
G01*
X11070250Y-9401000D01*
G75*
G02*
X11065250Y-9396000I0J5000D01*
G01*
G37*
G36*
G01*
X12357950Y-9142000D02*
X12357950Y-8892000D01*
G75*
G02*
X12362950Y-8887000I5000J0D01*
G01*
X12617950Y-8887000D01*
G75*
G02*
X12622950Y-8892000I0J-5000D01*
G01*
X12622950Y-9142000D01*
G75*
G02*
X12617950Y-9147000I-5000J0D01*
G01*
X12362950Y-9147000D01*
G75*
G02*
X12357950Y-9142000I0J5000D01*
G01*
G37*
D10*
X13112750Y-7112000D03*
D11*
X12858750Y-7620000D03*
D10*
X12477750Y-7366000D03*
D12*
X12350750Y-7620000D03*
X13366750Y-7620000D03*
G36*
G01*
X12017750Y-7491000D02*
X12017750Y-7241000D01*
G75*
G02*
X12022750Y-7236000I5000J0D01*
G01*
X12277750Y-7236000D01*
G75*
G02*
X12282750Y-7241000I0J-5000D01*
G01*
X12282750Y-7491000D01*
G75*
G02*
X12277750Y-7496000I-5000J0D01*
G01*
X12022750Y-7496000D01*
G75*
G02*
X12017750Y-7491000I0J5000D01*
G01*
G37*
G36*
G01*
X13310450Y-7237000D02*
X13310450Y-6987000D01*
G75*
G02*
X13315450Y-6982000I5000J0D01*
G01*
X13570450Y-6982000D01*
G75*
G02*
X13575450Y-6987000I0J-5000D01*
G01*
X13575450Y-7237000D01*
G75*
G02*
X13570450Y-7242000I-5000J0D01*
G01*
X13315450Y-7242000D01*
G75*
G02*
X13310450Y-7237000I0J5000D01*
G01*
G37*
D10*
X12636500Y-5207000D03*
D11*
X12382500Y-5715000D03*
D10*
X12001500Y-5461000D03*
D12*
X11874500Y-5715000D03*
X12890500Y-5715000D03*
G36*
G01*
X11541500Y-5586000D02*
X11541500Y-5336000D01*
G75*
G02*
X11546500Y-5331000I5000J0D01*
G01*
X11801500Y-5331000D01*
G75*
G02*
X11806500Y-5336000I0J-5000D01*
G01*
X11806500Y-5586000D01*
G75*
G02*
X11801500Y-5591000I-5000J0D01*
G01*
X11546500Y-5591000D01*
G75*
G02*
X11541500Y-5586000I0J5000D01*
G01*
G37*
G36*
G01*
X12834200Y-5332000D02*
X12834200Y-5082000D01*
G75*
G02*
X12839200Y-5077000I5000J0D01*
G01*
X13094200Y-5077000D01*
G75*
G02*
X13099200Y-5082000I0J-5000D01*
G01*
X13099200Y-5332000D01*
G75*
G02*
X13094200Y-5337000I-5000J0D01*
G01*
X12839200Y-5337000D01*
G75*
G02*
X12834200Y-5332000I0J5000D01*
G01*
G37*
D10*
X11684000Y-3302000D03*
D11*
X11430000Y-3810000D03*
D10*
X11049000Y-3556000D03*
D12*
X10922000Y-3810000D03*
X11938000Y-3810000D03*
G36*
G01*
X10589000Y-3681000D02*
X10589000Y-3431000D01*
G75*
G02*
X10594000Y-3426000I5000J0D01*
G01*
X10849000Y-3426000D01*
G75*
G02*
X10854000Y-3431000I0J-5000D01*
G01*
X10854000Y-3681000D01*
G75*
G02*
X10849000Y-3686000I-5000J0D01*
G01*
X10594000Y-3686000D01*
G75*
G02*
X10589000Y-3681000I0J5000D01*
G01*
G37*
G36*
G01*
X11881700Y-3427000D02*
X11881700Y-3177000D01*
G75*
G02*
X11886700Y-3172000I5000J0D01*
G01*
X12141700Y-3172000D01*
G75*
G02*
X12146700Y-3177000I0J-5000D01*
G01*
X12146700Y-3427000D01*
G75*
G02*
X12141700Y-3432000I-5000J0D01*
G01*
X11886700Y-3432000D01*
G75*
G02*
X11881700Y-3427000I0J5000D01*
G01*
G37*
D10*
X10255250Y-9017000D03*
D11*
X10001250Y-9525000D03*
D10*
X9620250Y-9271000D03*
D12*
X9493250Y-9525000D03*
X10509250Y-9525000D03*
G36*
G01*
X9160250Y-9396000D02*
X9160250Y-9146000D01*
G75*
G02*
X9165250Y-9141000I5000J0D01*
G01*
X9420250Y-9141000D01*
G75*
G02*
X9425250Y-9146000I0J-5000D01*
G01*
X9425250Y-9396000D01*
G75*
G02*
X9420250Y-9401000I-5000J0D01*
G01*
X9165250Y-9401000D01*
G75*
G02*
X9160250Y-9396000I0J5000D01*
G01*
G37*
G36*
G01*
X10452950Y-9142000D02*
X10452950Y-8892000D01*
G75*
G02*
X10457950Y-8887000I5000J0D01*
G01*
X10712950Y-8887000D01*
G75*
G02*
X10717950Y-8892000I0J-5000D01*
G01*
X10717950Y-9142000D01*
G75*
G02*
X10712950Y-9147000I-5000J0D01*
G01*
X10457950Y-9147000D01*
G75*
G02*
X10452950Y-9142000I0J5000D01*
G01*
G37*
D10*
X11207750Y-7112000D03*
D11*
X10953750Y-7620000D03*
D10*
X10572750Y-7366000D03*
D12*
X10445750Y-7620000D03*
X11461750Y-7620000D03*
G36*
G01*
X10112750Y-7491000D02*
X10112750Y-7241000D01*
G75*
G02*
X10117750Y-7236000I5000J0D01*
G01*
X10372750Y-7236000D01*
G75*
G02*
X10377750Y-7241000I0J-5000D01*
G01*
X10377750Y-7491000D01*
G75*
G02*
X10372750Y-7496000I-5000J0D01*
G01*
X10117750Y-7496000D01*
G75*
G02*
X10112750Y-7491000I0J5000D01*
G01*
G37*
G36*
G01*
X11405450Y-7237000D02*
X11405450Y-6987000D01*
G75*
G02*
X11410450Y-6982000I5000J0D01*
G01*
X11665450Y-6982000D01*
G75*
G02*
X11670450Y-6987000I0J-5000D01*
G01*
X11670450Y-7237000D01*
G75*
G02*
X11665450Y-7242000I-5000J0D01*
G01*
X11410450Y-7242000D01*
G75*
G02*
X11405450Y-7237000I0J5000D01*
G01*
G37*
D10*
X10731500Y-5207000D03*
D11*
X10477500Y-5715000D03*
D10*
X10096500Y-5461000D03*
D12*
X9969500Y-5715000D03*
X10985500Y-5715000D03*
G36*
G01*
X9636500Y-5586000D02*
X9636500Y-5336000D01*
G75*
G02*
X9641500Y-5331000I5000J0D01*
G01*
X9896500Y-5331000D01*
G75*
G02*
X9901500Y-5336000I0J-5000D01*
G01*
X9901500Y-5586000D01*
G75*
G02*
X9896500Y-5591000I-5000J0D01*
G01*
X9641500Y-5591000D01*
G75*
G02*
X9636500Y-5586000I0J5000D01*
G01*
G37*
G36*
G01*
X10929200Y-5332000D02*
X10929200Y-5082000D01*
G75*
G02*
X10934200Y-5077000I5000J0D01*
G01*
X11189200Y-5077000D01*
G75*
G02*
X11194200Y-5082000I0J-5000D01*
G01*
X11194200Y-5332000D01*
G75*
G02*
X11189200Y-5337000I-5000J0D01*
G01*
X10934200Y-5337000D01*
G75*
G02*
X10929200Y-5332000I0J5000D01*
G01*
G37*
D10*
X9779000Y-3302000D03*
D11*
X9525000Y-3810000D03*
D10*
X9144000Y-3556000D03*
D12*
X9017000Y-3810000D03*
X10033000Y-3810000D03*
G36*
G01*
X8684000Y-3681000D02*
X8684000Y-3431000D01*
G75*
G02*
X8689000Y-3426000I5000J0D01*
G01*
X8944000Y-3426000D01*
G75*
G02*
X8949000Y-3431000I0J-5000D01*
G01*
X8949000Y-3681000D01*
G75*
G02*
X8944000Y-3686000I-5000J0D01*
G01*
X8689000Y-3686000D01*
G75*
G02*
X8684000Y-3681000I0J5000D01*
G01*
G37*
G36*
G01*
X9976700Y-3427000D02*
X9976700Y-3177000D01*
G75*
G02*
X9981700Y-3172000I5000J0D01*
G01*
X10236700Y-3172000D01*
G75*
G02*
X10241700Y-3177000I0J-5000D01*
G01*
X10241700Y-3427000D01*
G75*
G02*
X10236700Y-3432000I-5000J0D01*
G01*
X9981700Y-3432000D01*
G75*
G02*
X9976700Y-3427000I0J5000D01*
G01*
G37*
D10*
X8588375Y-10922000D03*
D11*
X8334375Y-11430000D03*
D10*
X7953375Y-11176000D03*
D12*
X7826375Y-11430000D03*
X8842375Y-11430000D03*
G36*
G01*
X7493375Y-11301000D02*
X7493375Y-11051000D01*
G75*
G02*
X7498375Y-11046000I5000J0D01*
G01*
X7753375Y-11046000D01*
G75*
G02*
X7758375Y-11051000I0J-5000D01*
G01*
X7758375Y-11301000D01*
G75*
G02*
X7753375Y-11306000I-5000J0D01*
G01*
X7498375Y-11306000D01*
G75*
G02*
X7493375Y-11301000I0J5000D01*
G01*
G37*
G36*
G01*
X8786075Y-11047000D02*
X8786075Y-10797000D01*
G75*
G02*
X8791075Y-10792000I5000J0D01*
G01*
X9046075Y-10792000D01*
G75*
G02*
X9051075Y-10797000I0J-5000D01*
G01*
X9051075Y-11047000D01*
G75*
G02*
X9046075Y-11052000I-5000J0D01*
G01*
X8791075Y-11052000D01*
G75*
G02*
X8786075Y-11047000I0J5000D01*
G01*
G37*
D10*
X9302750Y-7112000D03*
D11*
X9048750Y-7620000D03*
D10*
X8667750Y-7366000D03*
D12*
X8540750Y-7620000D03*
X9556750Y-7620000D03*
G36*
G01*
X8207750Y-7491000D02*
X8207750Y-7241000D01*
G75*
G02*
X8212750Y-7236000I5000J0D01*
G01*
X8467750Y-7236000D01*
G75*
G02*
X8472750Y-7241000I0J-5000D01*
G01*
X8472750Y-7491000D01*
G75*
G02*
X8467750Y-7496000I-5000J0D01*
G01*
X8212750Y-7496000D01*
G75*
G02*
X8207750Y-7491000I0J5000D01*
G01*
G37*
G36*
G01*
X9500450Y-7237000D02*
X9500450Y-6987000D01*
G75*
G02*
X9505450Y-6982000I5000J0D01*
G01*
X9760450Y-6982000D01*
G75*
G02*
X9765450Y-6987000I0J-5000D01*
G01*
X9765450Y-7237000D01*
G75*
G02*
X9760450Y-7242000I-5000J0D01*
G01*
X9505450Y-7242000D01*
G75*
G02*
X9500450Y-7237000I0J5000D01*
G01*
G37*
D10*
X8826500Y-5207000D03*
D11*
X8572500Y-5715000D03*
D10*
X8191500Y-5461000D03*
D12*
X8064500Y-5715000D03*
X9080500Y-5715000D03*
G36*
G01*
X7731500Y-5586000D02*
X7731500Y-5336000D01*
G75*
G02*
X7736500Y-5331000I5000J0D01*
G01*
X7991500Y-5331000D01*
G75*
G02*
X7996500Y-5336000I0J-5000D01*
G01*
X7996500Y-5586000D01*
G75*
G02*
X7991500Y-5591000I-5000J0D01*
G01*
X7736500Y-5591000D01*
G75*
G02*
X7731500Y-5586000I0J5000D01*
G01*
G37*
G36*
G01*
X9024200Y-5332000D02*
X9024200Y-5082000D01*
G75*
G02*
X9029200Y-5077000I5000J0D01*
G01*
X9284200Y-5077000D01*
G75*
G02*
X9289200Y-5082000I0J-5000D01*
G01*
X9289200Y-5332000D01*
G75*
G02*
X9284200Y-5337000I-5000J0D01*
G01*
X9029200Y-5337000D01*
G75*
G02*
X9024200Y-5332000I0J5000D01*
G01*
G37*
D10*
X6207125Y-10922000D03*
D11*
X5953125Y-11430000D03*
D10*
X5572125Y-11176000D03*
D12*
X5445125Y-11430000D03*
X6461125Y-11430000D03*
G36*
G01*
X5112125Y-11301000D02*
X5112125Y-11051000D01*
G75*
G02*
X5117125Y-11046000I5000J0D01*
G01*
X5372125Y-11046000D01*
G75*
G02*
X5377125Y-11051000I0J-5000D01*
G01*
X5377125Y-11301000D01*
G75*
G02*
X5372125Y-11306000I-5000J0D01*
G01*
X5117125Y-11306000D01*
G75*
G02*
X5112125Y-11301000I0J5000D01*
G01*
G37*
G36*
G01*
X6404825Y-11047000D02*
X6404825Y-10797000D01*
G75*
G02*
X6409825Y-10792000I5000J0D01*
G01*
X6664825Y-10792000D01*
G75*
G02*
X6669825Y-10797000I0J-5000D01*
G01*
X6669825Y-11047000D01*
G75*
G02*
X6664825Y-11052000I-5000J0D01*
G01*
X6409825Y-11052000D01*
G75*
G02*
X6404825Y-11047000I0J5000D01*
G01*
G37*
D10*
X7159625Y-9017000D03*
D11*
X6905625Y-9525000D03*
D10*
X6524625Y-9271000D03*
D12*
X6397625Y-9525000D03*
X7413625Y-9525000D03*
G36*
G01*
X6064625Y-9396000D02*
X6064625Y-9146000D01*
G75*
G02*
X6069625Y-9141000I5000J0D01*
G01*
X6324625Y-9141000D01*
G75*
G02*
X6329625Y-9146000I0J-5000D01*
G01*
X6329625Y-9396000D01*
G75*
G02*
X6324625Y-9401000I-5000J0D01*
G01*
X6069625Y-9401000D01*
G75*
G02*
X6064625Y-9396000I0J5000D01*
G01*
G37*
G36*
G01*
X7357325Y-9142000D02*
X7357325Y-8892000D01*
G75*
G02*
X7362325Y-8887000I5000J0D01*
G01*
X7617325Y-8887000D01*
G75*
G02*
X7622325Y-8892000I0J-5000D01*
G01*
X7622325Y-9142000D01*
G75*
G02*
X7617325Y-9147000I-5000J0D01*
G01*
X7362325Y-9147000D01*
G75*
G02*
X7357325Y-9142000I0J5000D01*
G01*
G37*
D13*
X8099425Y-10223500D03*
X5711825Y-10223500D03*
D11*
X8099425Y-8699500D03*
X5711825Y-8699500D03*
D10*
X5461000Y-4318003D03*
D11*
X5715000Y-3810003D03*
D10*
X6096000Y-4064003D03*
D12*
X6223000Y-3810003D03*
X5207000Y-3810003D03*
G36*
G01*
X6556000Y-3939003D02*
X6556000Y-4189003D01*
G75*
G02*
X6551000Y-4194003I-5000J0D01*
G01*
X6296000Y-4194003D01*
G75*
G02*
X6291000Y-4189003I0J5000D01*
G01*
X6291000Y-3939003D01*
G75*
G02*
X6296000Y-3934003I5000J0D01*
G01*
X6551000Y-3934003D01*
G75*
G02*
X6556000Y-3939003I0J-5000D01*
G01*
G37*
G36*
G01*
X5263300Y-4193003D02*
X5263300Y-4443003D01*
G75*
G02*
X5258300Y-4448003I-5000J0D01*
G01*
X5003300Y-4448003D01*
G75*
G02*
X4998300Y-4443003I0J5000D01*
G01*
X4998300Y-4193003D01*
G75*
G02*
X5003300Y-4188003I5000J0D01*
G01*
X5258300Y-4188003D01*
G75*
G02*
X5263300Y-4193003I0J-5000D01*
G01*
G37*
G36*
G01*
X21050756Y-5937067D02*
X21050756Y-6057067D01*
G75*
G02*
X21045756Y-6062067I-5000J0D01*
G01*
X20905756Y-6062067D01*
G75*
G02*
X20900756Y-6057067I0J5000D01*
G01*
X20900756Y-5937067D01*
G75*
G02*
X20905756Y-5932067I5000J0D01*
G01*
X21045756Y-5932067D01*
G75*
G02*
X21050756Y-5937067I0J-5000D01*
G01*
G37*
G36*
G01*
X20830756Y-5937067D02*
X20830756Y-6057067D01*
G75*
G02*
X20825756Y-6062067I-5000J0D01*
G01*
X20685756Y-6062067D01*
G75*
G02*
X20680756Y-6057067I0J5000D01*
G01*
X20680756Y-5937067D01*
G75*
G02*
X20685756Y-5932067I5000J0D01*
G01*
X20825756Y-5932067D01*
G75*
G02*
X20830756Y-5937067I0J-5000D01*
G01*
G37*
G36*
G01*
X20830756Y-5767067D02*
X20830756Y-5887067D01*
G75*
G02*
X20825756Y-5892067I-5000J0D01*
G01*
X20685756Y-5892067D01*
G75*
G02*
X20680756Y-5887067I0J5000D01*
G01*
X20680756Y-5767067D01*
G75*
G02*
X20685756Y-5762067I5000J0D01*
G01*
X20825756Y-5762067D01*
G75*
G02*
X20830756Y-5767067I0J-5000D01*
G01*
G37*
G36*
G01*
X21050756Y-5767067D02*
X21050756Y-5887067D01*
G75*
G02*
X21045756Y-5892067I-5000J0D01*
G01*
X20905756Y-5892067D01*
G75*
G02*
X20900756Y-5887067I0J5000D01*
G01*
X20900756Y-5767067D01*
G75*
G02*
X20905756Y-5762067I5000J0D01*
G01*
X21045756Y-5762067D01*
G75*
G02*
X21050756Y-5767067I0J-5000D01*
G01*
G37*
G36*
G01*
X19492002Y-7685019D02*
X19492002Y-7555019D01*
G75*
G02*
X19497002Y-7550019I5000J0D01*
G01*
X19567002Y-7550019D01*
G75*
G02*
X19572002Y-7555019I0J-5000D01*
G01*
X19572002Y-7685019D01*
G75*
G02*
X19567002Y-7690019I-5000J0D01*
G01*
X19497002Y-7690019D01*
G75*
G02*
X19492002Y-7685019I0J5000D01*
G01*
G37*
G36*
G01*
X19302002Y-7685019D02*
X19302002Y-7555019D01*
G75*
G02*
X19307002Y-7550019I5000J0D01*
G01*
X19377002Y-7550019D01*
G75*
G02*
X19382002Y-7555019I0J-5000D01*
G01*
X19382002Y-7685019D01*
G75*
G02*
X19377002Y-7690019I-5000J0D01*
G01*
X19307002Y-7690019D01*
G75*
G02*
X19302002Y-7685019I0J5000D01*
G01*
G37*
G36*
G01*
X31913362Y-6334625D02*
X31913362Y-6464625D01*
G75*
G02*
X31908362Y-6469625I-5000J0D01*
G01*
X31838362Y-6469625D01*
G75*
G02*
X31833362Y-6464625I0J5000D01*
G01*
X31833362Y-6334625D01*
G75*
G02*
X31838362Y-6329625I5000J0D01*
G01*
X31908362Y-6329625D01*
G75*
G02*
X31913362Y-6334625I0J-5000D01*
G01*
G37*
G36*
G01*
X32103362Y-6334625D02*
X32103362Y-6464625D01*
G75*
G02*
X32098362Y-6469625I-5000J0D01*
G01*
X32028362Y-6469625D01*
G75*
G02*
X32023362Y-6464625I0J5000D01*
G01*
X32023362Y-6334625D01*
G75*
G02*
X32028362Y-6329625I5000J0D01*
G01*
X32098362Y-6329625D01*
G75*
G02*
X32103362Y-6334625I0J-5000D01*
G01*
G37*
G36*
G01*
X7565019Y-3238993D02*
X7565019Y-3368993D01*
G75*
G02*
X7560019Y-3373993I-5000J0D01*
G01*
X7490019Y-3373993D01*
G75*
G02*
X7485019Y-3368993I0J5000D01*
G01*
X7485019Y-3238993D01*
G75*
G02*
X7490019Y-3233993I5000J0D01*
G01*
X7560019Y-3233993D01*
G75*
G02*
X7565019Y-3238993I0J-5000D01*
G01*
G37*
G36*
G01*
X7755019Y-3238993D02*
X7755019Y-3368993D01*
G75*
G02*
X7750019Y-3373993I-5000J0D01*
G01*
X7680019Y-3373993D01*
G75*
G02*
X7675019Y-3368993I0J5000D01*
G01*
X7675019Y-3238993D01*
G75*
G02*
X7680019Y-3233993I5000J0D01*
G01*
X7750019Y-3233993D01*
G75*
G02*
X7755019Y-3238993I0J-5000D01*
G01*
G37*
G36*
G01*
X5770014Y-3368993D02*
X5770014Y-3238993D01*
G75*
G02*
X5775014Y-3233993I5000J0D01*
G01*
X5845014Y-3233993D01*
G75*
G02*
X5850014Y-3238993I0J-5000D01*
G01*
X5850014Y-3368993D01*
G75*
G02*
X5845014Y-3373993I-5000J0D01*
G01*
X5775014Y-3373993D01*
G75*
G02*
X5770014Y-3368993I0J5000D01*
G01*
G37*
G36*
G01*
X5580014Y-3368993D02*
X5580014Y-3238993D01*
G75*
G02*
X5585014Y-3233993I5000J0D01*
G01*
X5655014Y-3233993D01*
G75*
G02*
X5660014Y-3238993I0J-5000D01*
G01*
X5660014Y-3368993D01*
G75*
G02*
X5655014Y-3373993I-5000J0D01*
G01*
X5585014Y-3373993D01*
G75*
G02*
X5580014Y-3368993I0J5000D01*
G01*
G37*
G36*
G01*
X19444736Y-7084002D02*
X19369736Y-7084002D01*
G75*
G02*
X19364736Y-7079002I0J5000D01*
G01*
X19364736Y-6999002D01*
G75*
G02*
X19369736Y-6994002I5000J0D01*
G01*
X19444736Y-6994002D01*
G75*
G02*
X19449736Y-6999002I0J-5000D01*
G01*
X19449736Y-7079002D01*
G75*
G02*
X19444736Y-7084002I-5000J0D01*
G01*
G37*
G36*
G01*
X19444736Y-7234002D02*
X19369736Y-7234002D01*
G75*
G02*
X19364736Y-7229002I0J5000D01*
G01*
X19364736Y-7149002D01*
G75*
G02*
X19369736Y-7144002I5000J0D01*
G01*
X19444736Y-7144002D01*
G75*
G02*
X19449736Y-7149002I0J-5000D01*
G01*
X19449736Y-7229002D01*
G75*
G02*
X19444736Y-7234002I-5000J0D01*
G01*
G37*
G36*
G01*
X18603328Y-6243063D02*
X18603328Y-6318063D01*
G75*
G02*
X18598328Y-6323063I-5000J0D01*
G01*
X18518328Y-6323063D01*
G75*
G02*
X18513328Y-6318063I0J5000D01*
G01*
X18513328Y-6243063D01*
G75*
G02*
X18518328Y-6238063I5000J0D01*
G01*
X18598328Y-6238063D01*
G75*
G02*
X18603328Y-6243063I0J-5000D01*
G01*
G37*
G36*
G01*
X18753328Y-6243063D02*
X18753328Y-6318063D01*
G75*
G02*
X18748328Y-6323063I-5000J0D01*
G01*
X18668328Y-6323063D01*
G75*
G02*
X18663328Y-6318063I0J5000D01*
G01*
X18663328Y-6243063D01*
G75*
G02*
X18668328Y-6238063I5000J0D01*
G01*
X18748328Y-6238063D01*
G75*
G02*
X18753328Y-6243063I0J-5000D01*
G01*
G37*
G36*
G01*
X20210676Y-6481188D02*
X20210676Y-6556188D01*
G75*
G02*
X20205676Y-6561188I-5000J0D01*
G01*
X20125676Y-6561188D01*
G75*
G02*
X20120676Y-6556188I0J5000D01*
G01*
X20120676Y-6481188D01*
G75*
G02*
X20125676Y-6476188I5000J0D01*
G01*
X20205676Y-6476188D01*
G75*
G02*
X20210676Y-6481188I0J-5000D01*
G01*
G37*
G36*
G01*
X20360676Y-6481188D02*
X20360676Y-6556188D01*
G75*
G02*
X20355676Y-6561188I-5000J0D01*
G01*
X20275676Y-6561188D01*
G75*
G02*
X20270676Y-6556188I0J5000D01*
G01*
X20270676Y-6481188D01*
G75*
G02*
X20275676Y-6476188I5000J0D01*
G01*
X20355676Y-6476188D01*
G75*
G02*
X20360676Y-6481188I0J-5000D01*
G01*
G37*
G36*
G01*
X20329739Y-5885874D02*
X20329739Y-5960874D01*
G75*
G02*
X20324739Y-5965874I-5000J0D01*
G01*
X20244739Y-5965874D01*
G75*
G02*
X20239739Y-5960874I0J5000D01*
G01*
X20239739Y-5885874D01*
G75*
G02*
X20244739Y-5880874I5000J0D01*
G01*
X20324739Y-5880874D01*
G75*
G02*
X20329739Y-5885874I0J-5000D01*
G01*
G37*
G36*
G01*
X20479739Y-5885874D02*
X20479739Y-5960874D01*
G75*
G02*
X20474739Y-5965874I-5000J0D01*
G01*
X20394739Y-5965874D01*
G75*
G02*
X20389739Y-5960874I0J5000D01*
G01*
X20389739Y-5885874D01*
G75*
G02*
X20394739Y-5880874I5000J0D01*
G01*
X20474739Y-5880874D01*
G75*
G02*
X20479739Y-5885874I0J-5000D01*
G01*
G37*
G36*
G01*
X20895756Y-5663217D02*
X20895756Y-5588217D01*
G75*
G02*
X20900756Y-5583217I5000J0D01*
G01*
X20980756Y-5583217D01*
G75*
G02*
X20985756Y-5588217I0J-5000D01*
G01*
X20985756Y-5663217D01*
G75*
G02*
X20980756Y-5668217I-5000J0D01*
G01*
X20900756Y-5668217D01*
G75*
G02*
X20895756Y-5663217I0J5000D01*
G01*
G37*
G36*
G01*
X20745756Y-5663217D02*
X20745756Y-5588217D01*
G75*
G02*
X20750756Y-5583217I5000J0D01*
G01*
X20830756Y-5583217D01*
G75*
G02*
X20835756Y-5588217I0J-5000D01*
G01*
X20835756Y-5663217D01*
G75*
G02*
X20830756Y-5668217I-5000J0D01*
G01*
X20750756Y-5668217D01*
G75*
G02*
X20745756Y-5663217I0J5000D01*
G01*
G37*
G36*
G01*
X21200913Y-5863609D02*
X21125913Y-5863609D01*
G75*
G02*
X21120913Y-5858609I0J5000D01*
G01*
X21120913Y-5778609D01*
G75*
G02*
X21125913Y-5773609I5000J0D01*
G01*
X21200913Y-5773609D01*
G75*
G02*
X21205913Y-5778609I0J-5000D01*
G01*
X21205913Y-5858609D01*
G75*
G02*
X21200913Y-5863609I-5000J0D01*
G01*
G37*
G36*
G01*
X21200913Y-6013609D02*
X21125913Y-6013609D01*
G75*
G02*
X21120913Y-6008609I0J5000D01*
G01*
X21120913Y-5928609D01*
G75*
G02*
X21125913Y-5923609I5000J0D01*
G01*
X21200913Y-5923609D01*
G75*
G02*
X21205913Y-5928609I0J-5000D01*
G01*
X21205913Y-6008609D01*
G75*
G02*
X21200913Y-6013609I-5000J0D01*
G01*
G37*
G36*
G01*
X18663328Y-6615720D02*
X18663328Y-6540720D01*
G75*
G02*
X18668328Y-6535720I5000J0D01*
G01*
X18748328Y-6535720D01*
G75*
G02*
X18753328Y-6540720I0J-5000D01*
G01*
X18753328Y-6615720D01*
G75*
G02*
X18748328Y-6620720I-5000J0D01*
G01*
X18668328Y-6620720D01*
G75*
G02*
X18663328Y-6615720I0J5000D01*
G01*
G37*
G36*
G01*
X18513328Y-6615720D02*
X18513328Y-6540720D01*
G75*
G02*
X18518328Y-6535720I5000J0D01*
G01*
X18598328Y-6535720D01*
G75*
G02*
X18603328Y-6540720I0J-5000D01*
G01*
X18603328Y-6615720D01*
G75*
G02*
X18598328Y-6620720I-5000J0D01*
G01*
X18518328Y-6620720D01*
G75*
G02*
X18513328Y-6615720I0J5000D01*
G01*
G37*
D15*
X7061400Y-2954940D03*
X6197400Y-2954940D03*
D16*
X7061400Y-3372940D03*
X6197400Y-3372940D03*
D17*
X6340400Y-3319940D03*
X6918400Y-3319940D03*
G36*
G01*
X6584400Y-3536940D02*
X6584400Y-3391940D01*
G75*
G02*
X6589400Y-3386940I5000J0D01*
G01*
X6619400Y-3386940D01*
G75*
G02*
X6624400Y-3391940I0J-5000D01*
G01*
X6624400Y-3536940D01*
G75*
G02*
X6619400Y-3541940I-5000J0D01*
G01*
X6589400Y-3541940D01*
G75*
G02*
X6584400Y-3536940I0J5000D01*
G01*
G37*
G36*
G01*
X6634400Y-3536940D02*
X6634400Y-3391940D01*
G75*
G02*
X6639400Y-3386940I5000J0D01*
G01*
X6669400Y-3386940D01*
G75*
G02*
X6674400Y-3391940I0J-5000D01*
G01*
X6674400Y-3536940D01*
G75*
G02*
X6669400Y-3541940I-5000J0D01*
G01*
X6639400Y-3541940D01*
G75*
G02*
X6634400Y-3536940I0J5000D01*
G01*
G37*
G36*
G01*
X6684400Y-3536940D02*
X6684400Y-3391940D01*
G75*
G02*
X6689400Y-3386940I5000J0D01*
G01*
X6719400Y-3386940D01*
G75*
G02*
X6724400Y-3391940I0J-5000D01*
G01*
X6724400Y-3536940D01*
G75*
G02*
X6719400Y-3541940I-5000J0D01*
G01*
X6689400Y-3541940D01*
G75*
G02*
X6684400Y-3536940I0J5000D01*
G01*
G37*
G36*
G01*
X6534400Y-3536940D02*
X6534400Y-3391940D01*
G75*
G02*
X6539400Y-3386940I5000J0D01*
G01*
X6569400Y-3386940D01*
G75*
G02*
X6574400Y-3391940I0J-5000D01*
G01*
X6574400Y-3536940D01*
G75*
G02*
X6569400Y-3541940I-5000J0D01*
G01*
X6539400Y-3541940D01*
G75*
G02*
X6534400Y-3536940I0J5000D01*
G01*
G37*
G36*
G01*
X6734400Y-3536940D02*
X6734400Y-3391940D01*
G75*
G02*
X6739400Y-3386940I5000J0D01*
G01*
X6769400Y-3386940D01*
G75*
G02*
X6774400Y-3391940I0J-5000D01*
G01*
X6774400Y-3536940D01*
G75*
G02*
X6769400Y-3541940I-5000J0D01*
G01*
X6739400Y-3541940D01*
G75*
G02*
X6734400Y-3536940I0J5000D01*
G01*
G37*
G36*
G01*
X6484400Y-3536940D02*
X6484400Y-3391940D01*
G75*
G02*
X6489400Y-3386940I5000J0D01*
G01*
X6519400Y-3386940D01*
G75*
G02*
X6524400Y-3391940I0J-5000D01*
G01*
X6524400Y-3536940D01*
G75*
G02*
X6519400Y-3541940I-5000J0D01*
G01*
X6489400Y-3541940D01*
G75*
G02*
X6484400Y-3536940I0J5000D01*
G01*
G37*
G36*
G01*
X6784400Y-3536940D02*
X6784400Y-3391940D01*
G75*
G02*
X6789400Y-3386940I5000J0D01*
G01*
X6819400Y-3386940D01*
G75*
G02*
X6824400Y-3391940I0J-5000D01*
G01*
X6824400Y-3536940D01*
G75*
G02*
X6819400Y-3541940I-5000J0D01*
G01*
X6789400Y-3541940D01*
G75*
G02*
X6784400Y-3536940I0J5000D01*
G01*
G37*
G36*
G01*
X6434400Y-3536940D02*
X6434400Y-3391940D01*
G75*
G02*
X6439400Y-3386940I5000J0D01*
G01*
X6469400Y-3386940D01*
G75*
G02*
X6474400Y-3391940I0J-5000D01*
G01*
X6474400Y-3536940D01*
G75*
G02*
X6469400Y-3541940I-5000J0D01*
G01*
X6439400Y-3541940D01*
G75*
G02*
X6434400Y-3536940I0J5000D01*
G01*
G37*
G36*
G01*
X6349400Y-3536940D02*
X6349400Y-3391940D01*
G75*
G02*
X6354400Y-3386940I5000J0D01*
G01*
X6414400Y-3386940D01*
G75*
G02*
X6419400Y-3391940I0J-5000D01*
G01*
X6419400Y-3536940D01*
G75*
G02*
X6414400Y-3541940I-5000J0D01*
G01*
X6354400Y-3541940D01*
G75*
G02*
X6349400Y-3536940I0J5000D01*
G01*
G37*
G36*
G01*
X6839400Y-3536940D02*
X6839400Y-3391940D01*
G75*
G02*
X6844400Y-3386940I5000J0D01*
G01*
X6904400Y-3386940D01*
G75*
G02*
X6909400Y-3391940I0J-5000D01*
G01*
X6909400Y-3536940D01*
G75*
G02*
X6904400Y-3541940I-5000J0D01*
G01*
X6844400Y-3541940D01*
G75*
G02*
X6839400Y-3536940I0J5000D01*
G01*
G37*
G36*
G01*
X6271900Y-3536940D02*
X6271900Y-3391940D01*
G75*
G02*
X6276900Y-3386940I5000J0D01*
G01*
X6336900Y-3386940D01*
G75*
G02*
X6341900Y-3391940I0J-5000D01*
G01*
X6341900Y-3536940D01*
G75*
G02*
X6336900Y-3541940I-5000J0D01*
G01*
X6276900Y-3541940D01*
G75*
G02*
X6271900Y-3536940I0J5000D01*
G01*
G37*
G36*
G01*
X6916900Y-3536940D02*
X6916900Y-3391940D01*
G75*
G02*
X6921900Y-3386940I5000J0D01*
G01*
X6981900Y-3386940D01*
G75*
G02*
X6986900Y-3391940I0J-5000D01*
G01*
X6986900Y-3536940D01*
G75*
G02*
X6981900Y-3541940I-5000J0D01*
G01*
X6921900Y-3541940D01*
G75*
G02*
X6916900Y-3536940I0J5000D01*
G01*
G37*
M02*
