0
SECTION
2
HEADER
9
$INSUNITS
70
4
9
$ACADVER
1
AC1014
9
$HANDSEED
5
FFFF
0
ENDSEC
0
SECTION
2
TABLES
0
TABLE
2
VPORT
5
8
100
AcDbSymbolTable
0
ENDTAB
0
TABLE
2
LTYPE
5
5
100
AcDbSymbolTable
0
LTYPE
5
14
100
AcDbSymbolTableRecord
100
AcDbLinetypeTableRecord
2
BYBLOCK
70
0
0
LTYPE
5
15
100
AcDbSymbolTableRecord
100
AcDbLinetypeTableRecord
2
BYLAYER
70
0
0
ENDTAB
0
TABLE
2
LAYER
5
2
100
AcDbSymbolTable
70
2
0
LAYER
5
50
100
AcDbSymbolTableRecord
100
AcDbLayerTableRecord
2
0
70
0
6
CONTINUOUS
0
ENDTAB
0
TABLE
2
STYLE
5
3
100
AcDbSymbolTable
70
1
0
STYLE
5
11
100
AcDbSymbolTableRecord
100
AcDbTextStyleTableRecord
2
STANDARD
70
0
0
ENDTAB
0
TABLE
2
VIEW
5
6
100
AcDbSymbolTable
70
0
0
ENDTAB
0
TABLE
2
UCS
5
7
100
AcDbSymbolTable
70
0
0
ENDTAB
0
TABLE
2
APPID
5
9
100
AcDbSymbolTable
70
2
0
APPID
5
12
100
AcDbSymbolTableRecord
100
AcDbRegAppTableRecord
2
ACAD
70
0
0
ENDTAB
0
TABLE
2
DIMSTYLE
5
A
100
AcDbSymbolTable
70
1
0
ENDTAB
0
TABLE
2
BLOCK_RECORD
5
1
100
AcDbSymbolTable
70
1
0
BLOCK_RECORD
5
1F
100
AcDbSymbolTableRecord
100
AcDbBlockTableRecord
2
*MODEL_SPACE
0
BLOCK_RECORD
5
1B
100
AcDbSymbolTableRecord
100
AcDbBlockTableRecord
2
*PAPER_SPACE
0
ENDTAB
0
ENDSEC
0
SECTION
2
BLOCKS
0
BLOCK
5
20
100
AcDbEntity
100
AcDbBlockBegin
2
*MODEL_SPACE
0
ENDBLK
5
21
100
AcDbEntity
100
AcDbBlockEnd
0
BLOCK
5
1C
100
AcDbEntity
100
AcDbBlockBegin
2
*PAPER_SPACE
0
ENDBLK
5
1D
100
AcDbEntity
100
AcDbBlockEnd
0
ENDSEC
0
SECTION
2
ENTITIES
0
LWPOLYLINE
5
100
100
AcDbEntity
8
0
100
AcDbPolyline
90
16
70
1
43
0.0
10
-9.5
20
2.2860000000000005
42
0.99999999999999989
10
-9.5
20
-2.2860000000000005
10
-9.4220000000000006
20
-2.2859999999999969
42
-0.23768035735381321
10
-7.5879999999999956
20
-3.2179999999999969
42
0.23860251201122762
10
-5.7460000000000013
20
-4.1500000000000083
10
5.7460000000000013
20
-4.1500000000000004
42
0.23860251201122762
10
7.5879999999999974
20
-3.2179999999999991
42
-0.23768035735381179
10
9.4220000000000006
20
-2.285999999999996
10
9.5
20
-2.2860000000000005
42
0.99999999999999989
10
9.5
20
2.2860000000000005
10
9.4299999999999997
20
2.2860000000000009
42
-0.23860251201122676
10
7.5879999999999992
20
3.218
42
0.23860251201122765
10
5.7460000000000013
20
4.1499999999999995
10
-5.7460000000000013
20
4.1500000000000004
42
0.2386025120112267
10
-7.5879999999999992
20
3.218
42
-0.23860251201122676
10
-9.4299999999999997
20
2.2860000000000014
0
LWPOLYLINE
5
101
100
AcDbEntity
8
0
100
AcDbPolyline
90
4
70
1
43
0.0
10
3.9950000000000001
20
-2.0779999999999998
10
3.995000000000001
20
-1.4780000000000002
42
-0.99999999999999989
10
4.6450000000000005
20
-1.4780000000000002
10
4.6450000000000005
20
-2.0779999999999998
42
-0.99999999999999989
0
LWPOLYLINE
5
102
100
AcDbEntity
8
0
100
AcDbPolyline
90
4
70
1
43
0.0
10
3.9950000000000001
20
1.8520000000000003
10
3.9950000000000014
20
2.952
42
-0.99999999999999989
10
4.6449999999999996
20
2.952
10
4.6450000000000005
20
1.8520000000000003
42
-0.99999999999999989
0
LWPOLYLINE
5
103
100
AcDbEntity
8
0
100
AcDbPolyline
90
4
70
1
43
0.0
10
-4.6449999999999996
20
-2.0779999999999998
10
-4.6450000000000005
20
-1.4780000000000002
42
-0.99999999999999989
10
-3.995000000000001
20
-1.4780000000000002
10
-3.9950000000000014
20
-2.0779999999999998
42
-0.99999999999999989
0
LWPOLYLINE
5
104
100
AcDbEntity
8
0
100
AcDbPolyline
90
4
70
1
43
0.0
10
-4.6449999999999996
20
1.8520000000000003
10
-4.6450000000000005
20
2.952
42
-0.99999999999999989
10
-3.995000000000001
20
2.952
10
-3.9950000000000014
20
1.8520000000000003
42
-0.99999999999999989
0
CIRCLE
5
105
100
AcDbEntity
8
0
100
AcDbCircle
10
9.5
20
0
30
0
40
1.1000000000000001
210
0
220
0
230
-1
0
CIRCLE
5
106
100
AcDbEntity
8
0
100
AcDbCircle
10
-2.8900000000000006
20
1.8720000000000003
30
0
40
0.34999999999999998
210
0
220
0
230
-1
0
CIRCLE
5
107
100
AcDbEntity
8
0
100
AcDbCircle
10
3.4230000000000005
20
0.96700000000000008
30
0
40
0.17499999999999999
210
0
220
0
230
-1
0
CIRCLE
5
108
100
AcDbEntity
8
0
100
AcDbCircle
10
1.137
20
0.89300000000000002
30
0
40
0.125
210
0
220
0
230
-1
0
CIRCLE
5
109
100
AcDbEntity
8
0
100
AcDbCircle
10
5.8040000000000003
20
2.3809999999999998
30
0
40
0.17499999999999999
210
0
220
0
230
-1
0
CIRCLE
5
110
100
AcDbEntity
8
0
100
AcDbCircle
10
0.379
20
0.89300000000000002
30
0
40
0.125
210
0
220
0
230
-1
0
CIRCLE
5
111
100
AcDbEntity
8
0
100
AcDbCircle
10
3.274
20
-0.81899999999999995
30
0
40
0.125
210
0
220
0
230
-1
0
CIRCLE
5
112
100
AcDbEntity
8
0
100
AcDbCircle
10
-3.2000000000000006
20
-0.67000000000000004
30
0
40
0.125
210
0
220
0
230
-1
0
CIRCLE
5
113
100
AcDbEntity
8
0
100
AcDbCircle
10
0.48600000000000004
20
-2.391
30
0
40
0.125
210
0
220
0
230
-1
0
CIRCLE
5
114
100
AcDbEntity
8
0
100
AcDbCircle
10
-2.6040000000000001
20
-2.0840000000000005
30
0
40
0.125
210
0
220
0
230
-1
0
CIRCLE
5
115
100
AcDbEntity
8
0
100
AcDbCircle
10
-7.293000000000001
20
-2.6789999999999998
30
0
40
0.125
210
0
220
0
230
-1
0
CIRCLE
5
116
100
AcDbEntity
8
0
100
AcDbCircle
10
5.7300000000000004
20
-2.6040000000000001
30
0
40
0.17499999999999999
210
0
220
0
230
-1
0
CIRCLE
5
117
100
AcDbEntity
8
0
100
AcDbCircle
10
-7.293000000000001
20
2.6789999999999998
30
0
40
0.125
210
0
220
0
230
-1
0
CIRCLE
5
118
100
AcDbEntity
8
0
100
AcDbCircle
10
2.6040000000000001
20
-1.786
30
0
40
0.125
210
0
220
0
230
-1
0
CIRCLE
5
119
100
AcDbEntity
8
0
100
AcDbCircle
10
-1.4139999999999999
20
1.9350000000000001
30
0
40
0.17499999999999999
210
0
220
0
230
-1
0
CIRCLE
5
120
100
AcDbEntity
8
0
100
AcDbCircle
10
1.339
20
1.9350000000000001
30
0
40
0.17499999999999999
210
0
220
0
230
-1
0
CIRCLE
5
121
100
AcDbEntity
8
0
100
AcDbCircle
10
-0.53000000000000003
20
-2.391
30
0
40
0.125
210
0
220
0
230
-1
0
CIRCLE
5
122
100
AcDbEntity
8
0
100
AcDbCircle
10
-1.137
20
0.89300000000000002
30
0
40
0.125
210
0
220
0
230
-1
0
CIRCLE
5
123
100
AcDbEntity
8
0
100
AcDbCircle
10
-0.379
20
0.89300000000000002
30
0
40
0.125
210
0
220
0
230
-1
0
CIRCLE
5
124
100
AcDbEntity
8
0
100
AcDbCircle
10
-3.4230000000000005
20
0.96700000000000008
30
0
40
0.17499999999999999
210
0
220
0
230
-1
0
CIRCLE
5
125
100
AcDbEntity
8
0
100
AcDbCircle
10
1.4880000000000002
20
-2.3809999999999998
30
0
40
0.125
210
0
220
0
230
-1
0
CIRCLE
5
126
100
AcDbEntity
8
0
100
AcDbCircle
10
2.8900000000000006
20
1.8720000000000003
30
0
40
0.34999999999999998
210
0
220
0
230
-1
0
CIRCLE
5
127
100
AcDbEntity
8
0
100
AcDbCircle
10
-9.5
20
0
30
0
40
1.1000000000000001
210
0
220
0
230
-1
0
LWPOLYLINE
5
128
100
AcDbEntity
8
0
100
AcDbPolyline
90
4
70
1
43
0.0
10
4.2140000000000004
20
-3.3220000000000005
10
3.6140000000000008
20
-3.3220000000000005
10
3.6140000000000008
20
-3.8220000000000001
10
4.2140000000000004
20
-3.8220000000000001
0
LWPOLYLINE
5
129
100
AcDbEntity
8
0
100
AcDbPolyline
90
4
70
1
43
0.0
10
1.9880000000000004
20
-3.0230000000000006
10
0.98800000000000021
20
-3.0230000000000001
10
0.9880000000000001
20
-3.8230000000000004
10
1.9880000000000004
20
-3.8230000000000008
0
LWPOLYLINE
5
130
100
AcDbEntity
8
0
100
AcDbPolyline
90
4
70
1
43
0.0
10
-0.98799999999999988
20
-3.0200000000000005
10
-1.9879999999999998
20
-3.02
10
-1.988
20
-3.8200000000000003
10
-0.98800000000000021
20
-3.8200000000000007
0
LWPOLYLINE
5
131
100
AcDbEntity
8
0
100
AcDbPolyline
90
4
70
1
43
0.0
10
-4.2140000000000004
20
-3.8029999999999999
10
-3.6139999999999999
20
-3.8029999999999999
10
-3.6139999999999999
20
-3.3030000000000004
10
-4.2140000000000004
20
-3.3030000000000004
0
LWPOLYLINE
5
132
100
AcDbEntity
8
0
100
AcDbPolyline
90
20
70
1
43
0.0
10
3.3000000000000012
20
2.4757762451171894
10
2.9500000000000015
20
2.4757762451171894
10
2.9500000000000015
20
2.2857762451171895
10
3.0700000000000012
20
2.285776245117189
10
3.0700000000000003
20
0.71577624511718618
10
2.6900000000000008
20
0.71577624511718629
10
2.6900000000000008
20
0.48577624511718631
10
3.0400000000000009
20
0.48577624511718631
10
3.0400000000000009
20
-0.5142237548828108
10
-3.0400000000000005
20
-0.51422375488280947
10
-3.0400000000000005
20
0.48577624511718887
10
-2.6899999999999995
20
0.48577624511718875
10
-2.6899999999999995
20
0.71577624511718874
10
-3.0699999999999994
20
0.71577624511718885
10
-3.069999999999999
20
2.2857762451171908
10
-2.9499999999999993
20
2.2857762451171908
10
-2.9499999999999993
20
2.4757762451171907
10
-3.2999999999999989
20
2.4757762451171912
10
-3.3000000000000003
20
-1.1142237548828087
10
3.3000000000000003
20
-1.1142237548828109
0
LWPOLYLINE
5
133
100
AcDbEntity
8
0
100
AcDbPolyline
90
3
70
1
43
0.0
10
1.8000000000000005
20
-0.61422375488281067
10
2.0750000000000006
20
-1.0142237548828106
10
1.5249999999999999
20
-1.0142237548828104
0
LWPOLYLINE
5
134
100
AcDbEntity
8
0
100
AcDbPolyline
90
16
70
1
43
0.0
10
-1.9512499999999999
20
0.51577624511718856
10
-1.6487499999999999
20
0.51577624511718845
10
-0.75124999999999997
20
0.51577624511718823
10
-0.44874999999999998
20
0.51577624511718811
10
0.44874999999999993
20
0.51577624511718789
10
0.75124999999999997
20
0.51577624511718778
10
1.6487499999999999
20
0.51577624511718656
10
1.9512499999999999
20
0.51577624511718645
10
2.1000000000000001
20
0.51577624511718645
10
2.100000000000001
20
3.3857762451171896
10
1.9500000000000006
20
3.3857762451171896
10
1.4100000000000001
20
2.7057762451171898
10
-1.4099999999999993
20
2.7057762451171903
10
-1.9499999999999995
20
3.3857762451171904
10
-2.0999999999999996
20
3.3857762451171909
10
-2.1000000000000005
20
0.51577624511718878
0
LWPOLYLINE
5
135
100
AcDbEntity
8
0
100
AcDbPolyline
90
4
70
1
43
0.0
10
5.3280000000000003
20
1.2100000000000002
10
5.3280000000000003
20
2.5099999999999998
10
6.5780000000000003
20
2.5100000000000007
10
6.5780000000000003
20
1.2100000000000004
0
LWPOLYLINE
5
136
100
AcDbEntity
8
0
100
AcDbPolyline
90
4
70
1
43
0.0
10
5.3929999999999998
20
-0.96000000000000041
10
6.5129999999999999
20
-0.95999999999999996
10
6.5130000000000008
20
-2.7600000000000002
10
5.3930000000000007
20
-2.7600000000000007
0
LWPOLYLINE
5
137
100
AcDbEntity
8
0
100
AcDbPolyline
90
4
70
1
43
0.0
10
-4.968
20
1.0850000000000004
10
-4.968
20
-1.0149999999999997
10
-6.5679999999999996
20
-1.0150000000000003
10
-6.5680000000000005
20
1.085
0
LWPOLYLINE
5
138
100
AcDbEntity
8
0
100
AcDbPolyline
90
30
70
1
43
0.0
10
-3.2199999999999989
20
-4.3780000000000019
10
0.26824489654217687
20
-4.3780000000000001
10
0.2682448965421762
20
-3.5011250778383602
42
0.5114268210840045
10
0.041904117746537628
20
-3.3377198086967814
10
-0.029782264547379249
20
-3.3614912371271624
42
-0.51142682108400572
10
-0.32206175669400011
20
-3.1504819380829794
10
-0.32206175669400072
20
-2.3825812981524299
42
-0.5114268210840055
10
-0.029782264547379578
20
-2.1715719991082469
10
0.041904117746536199
20
-2.1953434275386301
42
0.51142682108400284
10
0.26824489654217465
20
-2.0319381583970495
10
0.26824489654217426
20
-0.39308663915952807
42
0.5114268210840045
10
0.041904117746535033
20
-0.22968137001795022
10
-0.029782264547381743
20
-0.25345279844833302
42
-0.51142682108400461
10
-0.32206175669400205
20
-0.042443499404150237
10
-0.32206175669400261
20
0.72545714052639987
42
-0.51142682108400628
10
-0.029782264547381487
20
0.93646643957058295
10
0.041904117746534297
20
0.91269501114019991
42
0.5114268210840035
10
0.26824489654217293
20
1.0761002802817805
10
0.26824489654217276
20
2.0270000000000006
10
-2.1450000000000022
20
2.0269999999999992
42
0.41421356237309465
10
-2.345000000000002
20
1.8269999999999988
10
-2.345000000000002
20
1.6369999999999987
42
-0.41421356237309503
10
-2.5450000000000017
20
1.4369999999999989
10
-3.2200000000000024
20
1.4369999999999985
10
-3.2200000000000011
20
-0.57800000000000096
10
-2.5000000000000004
20
-0.57800000000000051
42
-0.41421356237309503
10
-2.2000000000000006
20
-0.87800000000000045
10
-2.1999999999999997
20
-2.2180000000000017
42
-0.41421356237309531
10
-2.4999999999999991
20
-2.5180000000000016
10
-3.2199999999999998
20
-2.518000000000002
0
LWPOLYLINE
5
139
100
AcDbEntity
8
0
100
AcDbPolyline
90
4
70
1
43
0.0
10
-2.1956210396706415
20
1.0209125525678686
10
-1.0956210396706414
20
1.0209125525678693
10
-1.0956210396706414
20
0.52091255359917743
10
-2.1956210396706415
20
0.52091255359917665
0
LINE
5
140
100
AcDbEntity
8
0
100
AcDbLine
10
5.9530000000000012
20
-2.7600000000000002
30
0
11
5.9530000000000012
21
-1.8600000000000005
31
0
0
CIRCLE
5
141
100
AcDbEntity
8
0
100
AcDbCircle
10
5.9530000000000012
20
-1.8600000000000005
30
0
40
0.20696162147812758
210
0
220
0
230
1
0
LINE
5
142
100
AcDbEntity
8
0
100
AcDbLine
10
3.9140000000000006
20
-3.8220000000000001
30
-2.8563306234130718e-17
11
3.9140000000000006
21
-3.5720000000000001
31
-3.469446951953621e-17
0
CIRCLE
5
143
100
AcDbEntity
8
0
100
AcDbCircle
10
3.9140000000000006
20
-3.5720000000000001
30
-3.469446951953621e-17
40
0.086885697998326239
210
0
220
0
230
1
0
LINE
5
144
100
AcDbEntity
8
0
100
AcDbLine
10
1.4880000000000002
20
-3.8230000000000008
30
-2.4475864043860651e-17
11
1.4880000000000004
21
-3.4230000000000005
31
-3.543711097672514e-31
0
CIRCLE
5
145
100
AcDbEntity
8
0
100
AcDbCircle
10
1.4880000000000004
20
-3.4230000000000005
30
-3.543711097672514e-31
40
0.13654938293339303
210
0
220
0
230
1
0
LINE
5
146
100
AcDbEntity
8
0
100
AcDbLine
10
-1.4880000000000002
20
-3.8200000000000003
30
-2.4475864043860528e-17
11
-1.488
21
-3.4199999999999999
31
-2.4475864043860528e-17
0
CIRCLE
5
147
100
AcDbEntity
8
0
100
AcDbCircle
10
-1.488
20
-3.4199999999999999
30
-2.4475864043860528e-17
40
0.12020148188040924
210
0
220
0
230
1
0
LINE
5
148
100
AcDbEntity
8
0
100
AcDbLine
10
-3.9139999999999997
20
-3.8029999999999999
30
4.0825632804941085e-17
11
-3.9139999999999997
21
-3.3030000000000004
31
2.8563306234130151e-17
0
LINE
5
149
100
AcDbEntity
8
0
100
AcDbLine
10
-4.2140000000000004
20
-3.5529999999999999
30
3.4694469519535612e-17
11
-3.9139999999999997
21
-3.5529999999999999
31
3.4694469519535618e-17
0
CIRCLE
5
150
100
AcDbEntity
8
0
100
AcDbCircle
10
-3.9139999999999997
20
-3.5529999999999999
30
3.4694469519535618e-17
40
0.15000000000000013
210
0
220
0
230
1
0
LINE
5
151
100
AcDbEntity
8
0
100
AcDbLine
10
5.9530000000000003
20
1.2100000000000002
30
0
11
5.9530000000000003
21
2.5099999999999998
31
0
0
CIRCLE
5
152
100
AcDbEntity
8
0
100
AcDbCircle
10
5.9530000000000003
20
1.8599999999999999
30
0
40
0.20696162147812647
210
0
220
0
230
1
0
LINE
5
153
100
AcDbEntity
8
0
100
AcDbLine
10
-5.7679999999999998
20
-1.0150000000000001
30
-2.7755575615628914e-16
11
-5.7679999999999998
21
1.0850000000000002
31
-2.7755575615628914e-16
0
CIRCLE
5
154
100
AcDbEntity
8
0
100
AcDbCircle
10
-5.7679999999999998
20
0.035000000000000031
30
-2.7755575615628914e-16
40
0.2259823314310716
210
0
220
0
230
1
0
LINE
5
155
100
AcDbEntity
8
0
100
AcDbLine
10
0
20
-4.1500000000000039
30
0
11
1.4513364578585302e-16
21
-4.3780000000000001
31
0
0
CIRCLE
5
156
100
AcDbEntity
8
0
100
AcDbCircle
10
1.4513364578585302e-16
20
-4.3780000000000001
30
0
40
0.37320765041126891
210
0
220
0
230
1
0
ENDSEC
0
SECTION
2
OBJECTS
0
DICTIONARY
5
C
100
AcDbDictionary
3
ACAD_GROUP
350
D
3
ACAD_MLINESTYLE
350
17
0
DICTIONARY
5
D
100
AcDbDictionary
0
DICTIONARY
5
1A
330
C
100
AcDbDictionary
0
DICTIONARY
5
17
100
AcDbDictionary
0
ENDSEC
0
EOF
