0
SECTION
2
HEADER
9
$INSUNITS
70
4
9
$ACADVER
1
AC1014
9
$HANDSEED
5
FFFF
0
ENDSEC
0
SECTION
2
TABLES
0
TABLE
2
VPORT
5
8
100
AcDbSymbolTable
0
ENDTAB
0
TABLE
2
LTYPE
5
5
100
AcDbSymbolTable
0
LTYPE
5
14
100
AcDbSymbolTableRecord
100
AcDbLinetypeTableRecord
2
BYBLOCK
70
0
0
LTYPE
5
15
100
AcDbSymbolTableRecord
100
AcDbLinetypeTableRecord
2
BYLAYER
70
0
0
ENDTAB
0
TABLE
2
LAYER
5
2
100
AcDbSymbolTable
70
2
0
LAYER
5
50
100
AcDbSymbolTableRecord
100
AcDbLayerTableRecord
2
0
70
0
6
CONTINUOUS
0
ENDTAB
0
TABLE
2
STYLE
5
3
100
AcDbSymbolTable
70
1
0
STYLE
5
11
100
AcDbSymbolTableRecord
100
AcDbTextStyleTableRecord
2
STANDARD
70
0
0
ENDTAB
0
TABLE
2
VIEW
5
6
100
AcDbSymbolTable
70
0
0
ENDTAB
0
TABLE
2
UCS
5
7
100
AcDbSymbolTable
70
0
0
ENDTAB
0
TABLE
2
APPID
5
9
100
AcDbSymbolTable
70
2
0
APPID
5
12
100
AcDbSymbolTableRecord
100
AcDbRegAppTableRecord
2
ACAD
70
0
0
ENDTAB
0
TABLE
2
DIMSTYLE
5
A
100
AcDbSymbolTable
70
1
0
ENDTAB
0
TABLE
2
BLOCK_RECORD
5
1
100
AcDbSymbolTable
70
1
0
BLOCK_RECORD
5
1F
100
AcDbSymbolTableRecord
100
AcDbBlockTableRecord
2
*MODEL_SPACE
0
BLOCK_RECORD
5
1B
100
AcDbSymbolTableRecord
100
AcDbBlockTableRecord
2
*PAPER_SPACE
0
ENDTAB
0
ENDSEC
0
SECTION
2
BLOCKS
0
BLOCK
5
20
100
AcDbEntity
100
AcDbBlockBegin
2
*MODEL_SPACE
0
ENDBLK
5
21
100
AcDbEntity
100
AcDbBlockEnd
0
BLOCK
5
1C
100
AcDbEntity
100
AcDbBlockBegin
2
*PAPER_SPACE
0
ENDBLK
5
1D
100
AcDbEntity
100
AcDbBlockEnd
0
ENDSEC
0
SECTION
2
ENTITIES
0
LWPOLYLINE
5
100
100
AcDbEntity
8
0
100
AcDbPolyline
90
16
70
1
43
0.0
10
-9.5
20
2.2860000000000005
42
0.99999999999999989
10
-9.5
20
-2.2860000000000005
10
-9.4220000000000006
20
-2.2859999999999969
42
-0.23768035735381321
10
-7.5879999999999956
20
-3.2179999999999969
42
0.23860251201122762
10
-5.7460000000000013
20
-4.1500000000000083
10
5.7460000000000013
20
-4.1500000000000004
42
0.23860251201122762
10
7.5879999999999974
20
-3.2179999999999991
42
-0.23768035735381179
10
9.4220000000000006
20
-2.285999999999996
10
9.5
20
-2.2860000000000005
42
0.99999999999999989
10
9.5
20
2.2860000000000005
10
9.4299999999999997
20
2.2860000000000009
42
-0.23860251201122676
10
7.5879999999999992
20
3.218
42
0.23860251201122765
10
5.7460000000000013
20
4.1499999999999995
10
-5.7460000000000013
20
4.1500000000000004
42
0.2386025120112267
10
-7.5879999999999992
20
3.218
42
-0.23860251201122676
10
-9.4299999999999997
20
2.2860000000000014
0
LWPOLYLINE
5
101
100
AcDbEntity
8
0
100
AcDbPolyline
90
4
70
1
43
0.0
10
3.9950000000000001
20
-2.0779999999999998
10
3.995000000000001
20
-1.4780000000000002
42
-0.99999999999999989
10
4.6450000000000005
20
-1.4780000000000002
10
4.6450000000000005
20
-2.0779999999999998
42
-0.99999999999999989
0
LWPOLYLINE
5
102
100
AcDbEntity
8
0
100
AcDbPolyline
90
4
70
1
43
0.0
10
3.9950000000000001
20
1.8520000000000003
10
3.9950000000000014
20
2.952
42
-0.99999999999999989
10
4.6449999999999996
20
2.952
10
4.6450000000000005
20
1.8520000000000003
42
-0.99999999999999989
0
LWPOLYLINE
5
103
100
AcDbEntity
8
0
100
AcDbPolyline
90
4
70
1
43
0.0
10
-4.6449999999999996
20
-2.0779999999999998
10
-4.6450000000000005
20
-1.4780000000000002
42
-0.99999999999999989
10
-3.995000000000001
20
-1.4780000000000002
10
-3.9950000000000014
20
-2.0779999999999998
42
-0.99999999999999989
0
LWPOLYLINE
5
104
100
AcDbEntity
8
0
100
AcDbPolyline
90
4
70
1
43
0.0
10
-4.6449999999999996
20
1.8520000000000003
10
-4.6450000000000005
20
2.952
42
-0.99999999999999989
10
-3.995000000000001
20
2.952
10
-3.9950000000000014
20
1.8520000000000003
42
-0.99999999999999989
0
CIRCLE
5
105
100
AcDbEntity
8
0
100
AcDbCircle
10
9.5
20
0
30
0
40
1.1000000000000001
210
0
220
0
230
-1
0
CIRCLE
5
106
100
AcDbEntity
8
0
100
AcDbCircle
10
-2.8900000000000006
20
1.8720000000000003
30
0
40
0.34999999999999998
210
0
220
0
230
-1
0
CIRCLE
5
107
100
AcDbEntity
8
0
100
AcDbCircle
10
3.4230000000000005
20
0.96700000000000008
30
0
40
0.17499999999999999
210
0
220
0
230
-1
0
CIRCLE
5
108
100
AcDbEntity
8
0
100
AcDbCircle
10
1.137
20
0.89300000000000002
30
0
40
0.125
210
0
220
0
230
-1
0
CIRCLE
5
109
100
AcDbEntity
8
0
100
AcDbCircle
10
5.8040000000000003
20
2.3809999999999998
30
0
40
0.17499999999999999
210
0
220
0
230
-1
0
CIRCLE
5
110
100
AcDbEntity
8
0
100
AcDbCircle
10
0.379
20
0.89300000000000002
30
0
40
0.125
210
0
220
0
230
-1
0
CIRCLE
5
111
100
AcDbEntity
8
0
100
AcDbCircle
10
3.274
20
-0.81899999999999995
30
0
40
0.125
210
0
220
0
230
-1
0
CIRCLE
5
112
100
AcDbEntity
8
0
100
AcDbCircle
10
-3.2000000000000006
20
-0.67000000000000004
30
0
40
0.125
210
0
220
0
230
-1
0
CIRCLE
5
113
100
AcDbEntity
8
0
100
AcDbCircle
10
0.48600000000000004
20
-2.391
30
0
40
0.125
210
0
220
0
230
-1
0
CIRCLE
5
114
100
AcDbEntity
8
0
100
AcDbCircle
10
-2.6040000000000001
20
-2.0840000000000005
30
0
40
0.125
210
0
220
0
230
-1
0
CIRCLE
5
115
100
AcDbEntity
8
0
100
AcDbCircle
10
-7.293000000000001
20
-2.6789999999999998
30
0
40
0.125
210
0
220
0
230
-1
0
CIRCLE
5
116
100
AcDbEntity
8
0
100
AcDbCircle
10
5.7300000000000004
20
-2.6040000000000001
30
0
40
0.17499999999999999
210
0
220
0
230
-1
0
CIRCLE
5
117
100
AcDbEntity
8
0
100
AcDbCircle
10
-7.293000000000001
20
2.6789999999999998
30
0
40
0.125
210
0
220
0
230
-1
0
CIRCLE
5
118
100
AcDbEntity
8
0
100
AcDbCircle
10
2.6040000000000001
20
-1.786
30
0
40
0.125
210
0
220
0
230
-1
0
CIRCLE
5
119
100
AcDbEntity
8
0
100
AcDbCircle
10
-1.4139999999999999
20
1.9350000000000001
30
0
40
0.17499999999999999
210
0
220
0
230
-1
0
CIRCLE
5
120
100
AcDbEntity
8
0
100
AcDbCircle
10
1.339
20
1.9350000000000001
30
0
40
0.17499999999999999
210
0
220
0
230
-1
0
CIRCLE
5
121
100
AcDbEntity
8
0
100
AcDbCircle
10
-0.53000000000000003
20
-2.391
30
0
40
0.125
210
0
220
0
230
-1
0
CIRCLE
5
122
100
AcDbEntity
8
0
100
AcDbCircle
10
-1.137
20
0.89300000000000002
30
0
40
0.125
210
0
220
0
230
-1
0
CIRCLE
5
123
100
AcDbEntity
8
0
100
AcDbCircle
10
-0.379
20
0.89300000000000002
30
0
40
0.125
210
0
220
0
230
-1
0
CIRCLE
5
124
100
AcDbEntity
8
0
100
AcDbCircle
10
-3.4230000000000005
20
0.96700000000000008
30
0
40
0.17499999999999999
210
0
220
0
230
-1
0
CIRCLE
5
125
100
AcDbEntity
8
0
100
AcDbCircle
10
1.4880000000000002
20
-2.3809999999999998
30
0
40
0.125
210
0
220
0
230
-1
0
CIRCLE
5
126
100
AcDbEntity
8
0
100
AcDbCircle
10
2.8900000000000006
20
1.8720000000000003
30
0
40
0.34999999999999998
210
0
220
0
230
-1
0
CIRCLE
5
127
100
AcDbEntity
8
0
100
AcDbCircle
10
-9.5
20
0
30
0
40
1.1000000000000001
210
0
220
0
230
-1
0
ENDSEC
0
SECTION
2
OBJECTS
0
DICTIONARY
5
C
100
AcDbDictionary
3
ACAD_GROUP
350
D
3
ACAD_MLINESTYLE
350
17
0
DICTIONARY
5
D
100
AcDbDictionary
0
DICTIONARY
5
1A
330
C
100
AcDbDictionary
0
DICTIONARY
5
17
100
AcDbDictionary
0
ENDSEC
0
EOF
