0
SECTION
2
HEADER
9
$INSUNITS
70
4
9
$ACADVER
1
AC1014
9
$HANDSEED
5
FFFF
0
ENDSEC
0
SECTION
2
TABLES
0
TABLE
2
VPORT
5
8
100
AcDbSymbolTable
0
ENDTAB
0
TABLE
2
LTYPE
5
5
100
AcDbSymbolTable
0
LTYPE
5
14
100
AcDbSymbolTableRecord
100
AcDbLinetypeTableRecord
2
BYBLOCK
70
0
0
LTYPE
5
15
100
AcDbSymbolTableRecord
100
AcDbLinetypeTableRecord
2
BYLAYER
70
0
0
ENDTAB
0
TABLE
2
LAYER
5
2
100
AcDbSymbolTable
70
2
0
LAYER
5
50
100
AcDbSymbolTableRecord
100
AcDbLayerTableRecord
2
0
70
0
6
CONTINUOUS
0
ENDTAB
0
TABLE
2
STYLE
5
3
100
AcDbSymbolTable
70
1
0
STYLE
5
11
100
AcDbSymbolTableRecord
100
AcDbTextStyleTableRecord
2
STANDARD
70
0
0
ENDTAB
0
TABLE
2
VIEW
5
6
100
AcDbSymbolTable
70
0
0
ENDTAB
0
TABLE
2
UCS
5
7
100
AcDbSymbolTable
70
0
0
ENDTAB
0
TABLE
2
APPID
5
9
100
AcDbSymbolTable
70
2
0
APPID
5
12
100
AcDbSymbolTableRecord
100
AcDbRegAppTableRecord
2
ACAD
70
0
0
ENDTAB
0
TABLE
2
DIMSTYLE
5
A
100
AcDbSymbolTable
70
1
0
ENDTAB
0
TABLE
2
BLOCK_RECORD
5
1
100
AcDbSymbolTable
70
1
0
BLOCK_RECORD
5
1F
100
AcDbSymbolTableRecord
100
AcDbBlockTableRecord
2
*MODEL_SPACE
0
BLOCK_RECORD
5
1B
100
AcDbSymbolTableRecord
100
AcDbBlockTableRecord
2
*PAPER_SPACE
0
ENDTAB
0
ENDSEC
0
SECTION
2
BLOCKS
0
BLOCK
5
20
100
AcDbEntity
100
AcDbBlockBegin
2
*MODEL_SPACE
0
ENDBLK
5
21
100
AcDbEntity
100
AcDbBlockEnd
0
BLOCK
5
1C
100
AcDbEntity
100
AcDbBlockBegin
2
*PAPER_SPACE
0
ENDBLK
5
1D
100
AcDbEntity
100
AcDbBlockEnd
0
ENDSEC
0
SECTION
2
ENTITIES
0
SPLINE
5
100
100
AcDbEntity
8
0
100
AcDbSpline
70
0
71
3
72
8
73
4
74
0
42
0.000000001
43
0.0000000001
44
0.0000000001
40
-6
40
-6
40
-6
40
-6
40
-5
40
-5
40
-5
40
-5
10
-153.63060944830607
20
-84.208302414723661
30
0
10
-153.63060944830607
20
-83.67250809682244
30
0
10
-153.19626390742565
20
-83.238162555938331
30
0
10
-152.6604715297951
20
-83.238162555938331
30
0
0
LINE
5
101
100
AcDbEntity
8
0
100
AcDbLine
10
-152.6604715297951
20
-83.238162555938317
30
0
11
-84.950310394357302
21
-83.238162555938331
31
0
0
SPLINE
5
102
100
AcDbEntity
8
0
100
AcDbSpline
70
0
71
3
72
8
73
4
74
0
42
0.000000001
43
0.0000000001
44
0.0000000001
40
-4
40
-4
40
-4
40
-4
40
-3
40
-3
40
-3
40
-3
10
-84.950310394357302
20
-83.238162555938331
30
0
10
-84.41451801673395
20
-83.238162555938331
30
0
10
-83.980172475853294
20
-83.67250809682244
30
0
10
-83.980172475853294
20
-84.208300474445139
30
0
0
SPLINE
5
103
100
AcDbEntity
8
0
100
AcDbSpline
70
0
71
3
72
8
73
4
74
0
42
0.000000001
43
0.0000000001
44
0.0000000001
40
-2
40
-2
40
-2
40
-2
40
-1
40
-1
40
-1
40
-1
10
-83.980172475853294
20
-84.208300474445139
30
0
10
-83.980172475853294
20
-84.744094792347624
30
0
10
-84.41451801673395
20
-85.178440333231038
30
0
10
-84.950310394357302
20
-85.178440333231038
30
0
0
LINE
5
104
100
AcDbEntity
8
0
100
AcDbLine
10
-84.950310394357302
20
-85.178440333231066
30
0
11
-152.6604715297951
21
-85.178440333231038
31
0
0
SPLINE
5
105
100
AcDbEntity
8
0
100
AcDbSpline
70
0
71
3
72
8
73
4
74
0
42
0.000000001
43
0.0000000001
44
0.0000000001
40
-8
40
-8
40
-8
40
-8
40
-7
40
-7
40
-7
40
-7
10
-152.6604715297951
20
-85.178440333231038
30
0
10
-153.19626390742565
20
-85.178440333231038
30
0
10
-153.63060944830607
20
-84.744094792347624
30
0
10
-153.63060944830607
20
-84.208302414723661
30
0
0
SPLINE
5
106
100
AcDbEntity
8
0
100
AcDbSpline
70
0
71
3
72
8
73
4
74
0
42
0.000000001
43
0.0000000001
44
0.0000000001
40
-8
40
-8
40
-8
40
-8
40
-7
40
-7
40
-7
40
-7
10
-117.60346000689765
20
18.660439594989953
30
0
10
-117.0676676292743
20
18.660439594989953
30
0
10
-116.63332208839378
20
18.22609405410617
30
0
10
-116.63332208839378
20
17.690301676482179
30
0
0
SPLINE
5
107
100
AcDbEntity
8
0
100
AcDbSpline
70
0
71
3
72
8
73
4
74
0
42
0.000000001
43
0.0000000001
44
0.0000000001
40
-6
40
-6
40
-6
40
-6
40
-5
40
-5
40
-5
40
-5
10
-116.63332208839378
20
17.690301676482179
30
0
10
-116.63332208839378
20
17.154507358580986
30
0
10
-117.0676676292743
20
16.720161817697345
30
0
10
-117.60346000689765
20
16.720161817697345
30
0
0
LINE
5
108
100
AcDbEntity
8
0
100
AcDbLine
10
-117.60346000689765
20
16.720161817697345
30
0
11
-162.89317761369153
21
16.720161817697345
31
0
0
SPLINE
5
109
100
AcDbEntity
8
0
100
AcDbSpline
70
0
71
3
72
8
73
4
74
0
42
0.000000001
43
0.0000000001
44
0.0000000001
40
-4
40
-4
40
-4
40
-4
40
-3
40
-3
40
-3
40
-3
10
-162.89317761369153
20
16.720161817697345
30
0
10
-163.42896999132208
20
16.720161817697345
30
0
10
-163.86331553220259
20
17.154507358580986
30
0
10
-163.86331553220259
20
17.690299736203769
30
0
0
SPLINE
5
110
100
AcDbEntity
8
0
100
AcDbSpline
70
0
71
3
72
8
73
4
74
0
42
0.000000001
43
0.0000000001
44
0.0000000001
40
-2
40
-2
40
-2
40
-2
40
-1
40
-1
40
-1
40
-1
10
-163.86331553220259
20
17.690299736203769
30
0
10
-163.86331553220259
20
18.22609405410617
30
0
10
-163.42896999132208
20
18.660439594989953
30
0
10
-162.89317761369153
20
18.660439594989953
30
0
0
LINE
5
111
100
AcDbEntity
8
0
100
AcDbLine
10
-162.89317761369159
20
18.660439594989953
30
0
11
-117.60346000689765
21
18.660439594989953
31
0
0
SPLINE
5
112
100
AcDbEntity
8
0
100
AcDbSpline
70
0
71
3
72
8
73
4
74
0
42
0.000000001
43
0.0000000001
44
0.0000000001
40
-4
40
-4
40
-4
40
-4
40
-3
40
-3
40
-3
40
-3
10
-28.391919973575241
20
-83.238162555938331
30
0
10
-27.856127595951534
20
-83.238162555938331
30
0
10
-27.421782055067752
20
-83.67250809682244
30
0
10
-27.421782055067752
20
-84.208300474445139
30
0
0
SPLINE
5
113
100
AcDbEntity
8
0
100
AcDbSpline
70
0
71
3
72
8
73
4
74
0
42
0.000000001
43
0.0000000001
44
0.0000000001
40
-2
40
-2
40
-2
40
-2
40
-1
40
-1
40
-1
40
-1
10
-27.421782055067752
20
-84.208300474445139
30
0
10
-27.421782055067752
20
-84.744094792347624
30
0
10
-27.856127595951534
20
-85.178440333231038
30
0
10
-28.391919973575241
20
-85.178440333231038
30
0
0
LINE
5
114
100
AcDbEntity
8
0
100
AcDbLine
10
-28.391919973575241
20
-85.178440333231066
30
0
11
-42.153019565828416
21
-85.178440333231038
31
0
0
SPLINE
5
115
100
AcDbEntity
8
0
100
AcDbSpline
70
0
71
3
72
8
73
4
74
0
42
0.000000001
43
0.0000000001
44
0.0000000001
40
-8
40
-8
40
-8
40
-8
40
-7
40
-7
40
-7
40
-7
10
-42.153019565828416
20
-85.178440333231038
30
0
10
-42.688811943452478
20
-85.178440333231038
30
0
10
-43.123157484336119
20
-84.744094792347624
30
0
10
-43.123157484336119
20
-84.208302414723661
30
0
0
SPLINE
5
116
100
AcDbEntity
8
0
100
AcDbSpline
70
0
71
3
72
8
73
4
74
0
42
0.000000001
43
0.0000000001
44
0.0000000001
40
-6
40
-6
40
-6
40
-6
40
-5
40
-5
40
-5
40
-5
10
-43.123157484336119
20
-84.208302414723661
30
0
10
-43.123157484336119
20
-83.67250809682244
30
0
10
-42.688811943452478
20
-83.238162555938331
30
0
10
-42.153019565828416
20
-83.238162555938331
30
0
0
LINE
5
117
100
AcDbEntity
8
0
100
AcDbLine
10
-42.153019565828416
20
-83.238162555938317
30
0
11
-28.391919973575241
21
-83.238162555938331
31
0
0
SPLINE
5
118
100
AcDbEntity
8
0
100
AcDbSpline
70
0
71
3
72
8
73
4
74
0
42
0.000000001
43
0.0000000001
44
0.0000000001
40
-2
40
-2
40
-2
40
-2
40
-1
40
-1
40
-1
40
-1
10
27.557893902322732
20
-84.208300474445139
30
0
10
27.557893902322732
20
-84.744094792347624
30
0
10
27.123548361439092
20
-85.178440333231038
30
0
10
26.587755983815384
20
-85.178440333231038
30
0
0
LINE
5
119
100
AcDbEntity
8
0
100
AcDbLine
10
26.587755983815384
20
-85.178440333231066
30
0
11
12.826656391561784
21
-85.178440333231038
31
0
0
SPLINE
5
120
100
AcDbEntity
8
0
100
AcDbSpline
70
0
71
3
72
8
73
4
74
0
42
0.000000001
43
0.0000000001
44
0.0000000001
40
-8
40
-8
40
-8
40
-8
40
-7
40
-7
40
-7
40
-7
10
12.826656391561784
20
-85.178440333231038
30
0
10
12.290864013938219
20
-85.178440333231038
30
0
10
11.856518473054436
20
-84.744094792347624
30
0
10
11.856518473054436
20
-84.208302414723661
30
0
0
SPLINE
5
121
100
AcDbEntity
8
0
100
AcDbSpline
70
0
71
3
72
8
73
4
74
0
42
0.000000001
43
0.0000000001
44
0.0000000001
40
-6
40
-6
40
-6
40
-6
40
-5
40
-5
40
-5
40
-5
10
11.856518473054436
20
-84.208302414723661
30
0
10
11.856518473054436
20
-83.67250809682244
30
0
10
12.290864013938219
20
-83.238162555938331
30
0
10
12.826656391561784
20
-83.238162555938331
30
0
0
LINE
5
122
100
AcDbEntity
8
0
100
AcDbLine
10
12.826656391561784
20
-83.238162555938317
30
0
11
26.587755983815384
21
-83.238162555938331
31
0
0
SPLINE
5
123
100
AcDbEntity
8
0
100
AcDbSpline
70
0
71
3
72
8
73
4
74
0
42
0.000000001
43
0.0000000001
44
0.0000000001
40
-4
40
-4
40
-4
40
-4
40
-3
40
-3
40
-3
40
-3
10
26.587755983815384
20
-83.238162555938331
30
0
10
27.123548361439092
20
-83.238162555938331
30
0
10
27.557893902322732
20
-83.67250809682244
30
0
10
27.557893902322732
20
-84.208300474445139
30
0
0
SPLINE
5
124
100
AcDbEntity
8
0
100
AcDbSpline
70
0
71
3
72
8
73
4
74
0
42
0.000000001
43
0.0000000001
44
0.0000000001
40
-6
40
-6
40
-6
40
-6
40
-5
40
-5
40
-5
40
-5
10
148.29822420496504
20
17.690301676482179
30
0
10
148.29822420496504
20
17.154507358580986
30
0
10
147.86387866408069
20
16.720161817697345
30
0
10
147.32808628645728
20
16.720161817697345
30
0
0
LINE
5
125
100
AcDbEntity
8
0
100
AcDbLine
10
147.32808628645728
20
16.720161817697345
30
0
11
102.03836867966231
21
16.720161817697345
31
0
0
SPLINE
5
126
100
AcDbEntity
8
0
100
AcDbSpline
70
0
71
3
72
8
73
4
74
0
42
0.000000001
43
0.0000000001
44
0.0000000001
40
-4
40
-4
40
-4
40
-4
40
-3
40
-3
40
-3
40
-3
10
102.03836867966231
20
16.720161817697345
30
0
10
101.50257630203868
20
16.720161817697345
30
0
10
101.06823076115489
20
17.154507358580986
30
0
10
101.06823076115489
20
17.690299736203698
30
0
0
SPLINE
5
127
100
AcDbEntity
8
0
100
AcDbSpline
70
0
71
3
72
8
73
4
74
0
42
0.000000001
43
0.0000000001
44
0.0000000001
40
-2
40
-2
40
-2
40
-2
40
-1
40
-1
40
-1
40
-1
10
101.06823076115489
20
17.690299736203698
30
0
10
101.06823076115489
20
18.226094054106099
30
0
10
101.50257630203868
20
18.660439594989953
30
0
10
102.03836867966231
20
18.660439594989953
30
0
0
LINE
5
128
100
AcDbEntity
8
0
100
AcDbLine
10
102.03836867966231
20
18.660439594989953
30
0
11
147.32808628645728
21
18.660439594989953
31
0
0
SPLINE
5
129
100
AcDbEntity
8
0
100
AcDbSpline
70
0
71
3
72
8
73
4
74
0
42
0.000000001
43
0.0000000001
44
0.0000000001
40
-8
40
-8
40
-8
40
-8
40
-7
40
-7
40
-7
40
-7
10
147.32808628645728
20
18.660439594989953
30
0
10
147.86387866408069
20
18.660439594989953
30
0
10
148.29822420496504
20
18.22609405410617
30
0
10
148.29822420496504
20
17.690301676482179
30
0
0
SPLINE
5
130
100
AcDbEntity
8
0
100
AcDbSpline
70
0
71
3
72
10
73
6
74
0
42
0.000000001
43
0.0000000001
44
0.0000000001
40
0
40
0
40
0
40
0
40
1
40
1
40
2
40
2
40
2
40
2
10
157.00928873148791
20
12.051154684837115
30
0
10
157.00928873148791
20
13.225834128991494
30
0
10
157.96157706458362
20
14.178122462079656
30
0
10
160.3110065084405
20
14.178122462079656
30
0
10
161.26329484153561
20
13.225834128991494
30
0
10
161.26329484153561
20
12.051154684837115
30
0
0
SPLINE
5
131
100
AcDbEntity
8
0
100
AcDbSpline
70
0
71
3
72
10
73
6
74
0
42
0.000000001
43
0.0000000001
44
0.0000000001
40
2
40
2
40
2
40
2
40
3
40
3
40
4
40
4
40
4
40
4
10
161.26329484153561
20
12.051154684837115
30
0
10
161.26329484153561
20
10.876439962912059
30
0
10
160.3110065084405
20
9.9241516298099697
30
0
10
157.96157706458362
20
9.9241516298099697
30
0
10
157.00928873148791
20
10.876439962912059
30
0
10
157.00928873148791
20
12.051154684837115
30
0
0
SPLINE
5
132
100
AcDbEntity
8
0
100
AcDbSpline
70
0
71
3
72
8
73
4
74
0
42
0.000000001
43
0.0000000001
44
0.0000000001
40
-2
40
-2
40
-2
40
-2
40
-1
40
-1
40
-1
40
-1
10
138.02267733859429
20
-84.208300474445139
30
0
10
138.02267733859429
20
-84.744094792347624
30
0
10
137.58833179770988
20
-85.178440333231038
30
0
10
137.05253942008653
20
-85.178440333231038
30
0
0
LINE
5
133
100
AcDbEntity
8
0
100
AcDbLine
10
137.05253942008653
20
-85.178440333231066
30
0
11
69.342378284644042
21
-85.178440333231038
31
0
0
SPLINE
5
134
100
AcDbEntity
8
0
100
AcDbSpline
70
0
71
3
72
8
73
4
74
0
42
0.000000001
43
0.0000000001
44
0.0000000001
40
-8
40
-8
40
-8
40
-8
40
-7
40
-7
40
-7
40
-7
10
69.342378284644042
20
-85.178440333231038
30
0
10
68.806585907020335
20
-85.178440333231038
30
0
10
68.372240366136694
20
-84.744094792347624
30
0
10
68.372240366136694
20
-84.208302414723661
30
0
0
SPLINE
5
135
100
AcDbEntity
8
0
100
AcDbSpline
70
0
71
3
72
8
73
4
74
0
42
0.000000001
43
0.0000000001
44
0.0000000001
40
-6
40
-6
40
-6
40
-6
40
-5
40
-5
40
-5
40
-5
10
68.372240366136694
20
-84.208302414723661
30
0
10
68.372240366136694
20
-83.67250809682244
30
0
10
68.806585907020335
20
-83.238162555938331
30
0
10
69.342378284644042
20
-83.238162555938331
30
0
0
LINE
5
136
100
AcDbEntity
8
0
100
AcDbLine
10
69.342378284644042
20
-83.238162555938317
30
0
11
137.05253942008653
21
-83.238162555938331
31
0
0
SPLINE
5
137
100
AcDbEntity
8
0
100
AcDbSpline
70
0
71
3
72
8
73
4
74
0
42
0.000000001
43
0.0000000001
44
0.0000000001
40
-4
40
-4
40
-4
40
-4
40
-3
40
-3
40
-3
40
-3
10
137.05253942008653
20
-83.238162555938331
30
0
10
137.58833179770988
20
-83.238162555938331
30
0
10
138.02267733859429
20
-83.67250809682244
30
0
10
138.02267733859429
20
-84.208300474445139
30
0
0
LINE
5
138
100
AcDbEntity
8
0
100
AcDbLine
10
160.59077993439365
20
16.268036215901418
30
0
11
154.7685685643215
21
16.268036215901418
31
0
0
LINE
5
139
100
AcDbEntity
8
0
100
AcDbLine
10
154.7685685643215
20
16.268036215901418
30
0
11
154.7685685643215
21
20.171329400689544
31
0
0
SPLINE
5
140
100
AcDbEntity
8
0
100
AcDbSpline
70
0
71
3
72
8
73
4
74
0
42
0.000000001
43
0.0000000001
44
0.0000000001
40
-11
40
-11
40
-11
40
-11
40
-10
40
-10
40
-10
40
-10
10
154.7685685643215
20
20.171329400689544
30
0
10
154.7685685643215
20
20.667767660114009
30
0
10
154.3648033734502
20
21.071532850985264
30
0
10
153.86853736880002
20
21.071532850985264
30
0
0
LINE
5
141
100
AcDbEntity
8
0
100
AcDbLine
10
153.86853736880002
20
21.071532850985264
30
0
11
95.497940052662216
21
21.071532850985264
31
0
0
SPLINE
5
142
100
AcDbEntity
8
0
100
AcDbSpline
70
0
71
3
72
8
73
4
74
0
42
0.000000001
43
0.0000000001
44
0.0000000001
40
-9
40
-9
40
-9
40
-9
40
-8
40
-8
40
-8
40
-8
10
95.497940052662216
20
21.071532850985264
30
0
10
95.001674048012035
20
21.071532850985264
30
0
10
94.597736602366354
20
20.667767660114009
30
0
10
94.597736602366354
20
20.171329400689544
30
0
0
LINE
5
143
100
AcDbEntity
8
0
100
AcDbLine
10
94.597736602366354
20
20.171329400689544
30
0
11
94.597736602366354
21
16.268036215901418
31
0
0
LINE
5
144
100
AcDbEntity
8
0
100
AcDbLine
10
29.442540492352975
20
29.156482935769645
30
0
11
30.339987866260572
21
33.297487709039899
31
0
0
SPLINE
5
145
100
AcDbEntity
8
0
100
AcDbSpline
70
0
71
3
72
8
73
4
74
0
42
0.000000001
43
0.0000000001
44
0.0000000001
40
-3
40
-3
40
-3
40
-3
40
-2
40
-2
40
-2
40
-2
10
30.339987866260572
20
33.297487709039899
30
0
10
30.445063278560767
20
33.782557153363086
30
0
10
30.136210468308136
20
34.262458954458381
30
0
10
29.651657788307801
20
34.367534366758647
30
0
0
SPLINE
5
146
100
AcDbEntity
8
0
100
AcDbSpline
70
0
71
3
72
8
73
4
74
0
42
0.000000001
43
0.0000000001
44
0.0000000001
40
-61
40
-61
40
-61
40
-61
40
-60
40
-60
40
-60
40
-60
10
-45.216640532818886
20
34.367534366758647
30
0
10
-45.70119321281922
20
34.262458954458381
30
0
10
-46.010046023071922
20
33.782557153363086
30
0
10
-45.904970610771656
20
33.297487709039899
30
0
0
LINE
5
147
100
AcDbEntity
8
0
100
AcDbLine
10
-45.904970610771656
20
33.297487709039899
30
0
11
-45.007523236864202
21
29.156482935769645
31
0
0
LINE
5
148
100
AcDbEntity
8
0
100
AcDbLine
10
-110.16289160165172
20
16.268036215901418
30
0
11
-110.16289160165172
21
20.171329400689544
31
0
0
SPLINE
5
149
100
AcDbEntity
8
0
100
AcDbSpline
70
0
71
3
72
8
73
4
74
0
42
0.000000001
43
0.0000000001
44
0.0000000001
40
-55
40
-55
40
-55
40
-55
40
-54
40
-54
40
-54
40
-54
10
-110.16289160165172
20
20.171329400689544
30
0
10
-110.16289160165172
20
20.667767660114009
30
0
10
-110.56665679252305
20
21.071532850985264
30
0
10
-111.06292279717337
20
21.071532850985264
30
0
0
LINE
5
150
100
AcDbEntity
8
0
100
AcDbLine
10
-111.06292279717337
20
21.071532850985264
30
0
11
-169.433692368084
21
21.071532850985264
31
0
0
SPLINE
5
151
100
AcDbEntity
8
0
100
AcDbSpline
70
0
71
3
72
8
73
4
74
0
42
0.000000001
43
0.0000000001
44
0.0000000001
40
-53
40
-53
40
-53
40
-53
40
-52
40
-52
40
-52
40
-52
10
-169.433692368084
20
21.071532850985264
30
0
10
-169.92995837273426
20
21.071532850985264
30
0
10
-170.33389581837986
20
20.667767660114009
30
0
10
-170.33389581837986
20
20.171329400689544
30
0
0
LINE
5
152
100
AcDbEntity
8
0
100
AcDbLine
10
-170.33389581837991
20
20.171329400689544
30
0
11
-170.33389581837986
21
16.268036215901418
31
0
0
LINE
5
153
100
AcDbEntity
8
0
100
AcDbLine
10
-170.33389581837986
20
16.268036215901418
30
0
11
-176.1562794432264
21
16.268036215901347
31
0
0
SPLINE
5
154
100
AcDbEntity
8
0
100
AcDbSpline
70
0
71
3
72
8
73
4
74
0
42
0.000000001
43
0.0000000001
44
0.0000000001
40
-50
40
-50
40
-50
40
-50
40
-49
40
-49
40
-49
40
-49
10
-176.1562794432264
20
16.268036215901347
30
0
10
-177.2039329802908
20
16.268036215901347
30
0
10
-178.05642185811578
20
15.415719592850508
30
0
10
-178.05642185811578
20
14.368066055786102
30
0
0
LINE
5
155
100
AcDbEntity
8
0
100
AcDbLine
10
-178.05642185811581
20
14.368066055786102
30
0
11
-178.05642185811578
21
-80.885723525435111
31
0
0
SPLINE
5
156
100
AcDbEntity
8
0
100
AcDbSpline
70
0
71
3
72
8
73
4
74
0
42
0.000000001
43
0.0000000001
44
0.0000000001
40
-48
40
-48
40
-48
40
-48
40
-47
40
-47
40
-47
40
-47
10
-178.05642185811578
20
-80.885723525435111
30
0
10
-178.05642185811578
20
-81.93337706249963
30
0
10
-177.2039329802908
20
-82.785693685550427
30
0
10
-176.1562794432264
20
-82.785693685550427
30
0
0
LINE
5
157
100
AcDbEntity
8
0
100
AcDbLine
10
-176.1562794432264
20
-82.785693685550413
30
0
11
-157.52313600170419
21
-82.785693685550427
31
0
0
LINE
5
158
100
AcDbEntity
8
0
100
AcDbLine
10
-157.52313600170419
20
-82.785693685550427
30
0
11
-157.52313600170419
21
-86.689331379887022
31
0
0
SPLINE
5
159
100
AcDbEntity
8
0
100
AcDbSpline
70
0
71
3
72
8
73
4
74
0
42
0.000000001
43
0.0000000001
44
0.0000000001
40
-45
40
-45
40
-45
40
-45
40
-44
40
-44
40
-44
40
-44
10
-157.52313600170419
20
-86.689331379887022
30
0
10
-157.52313600170419
20
-87.18576963931153
30
0
10
-157.11937081083278
20
-87.589534830182814
30
0
10
-156.6231048061826
20
-87.589534830182814
30
0
0
LINE
5
160
100
AcDbEntity
8
0
100
AcDbLine
10
-156.6231048061826
20
-87.589534830182814
30
0
11
-80.9021453524565
21
-87.589534830182814
31
0
0
SPLINE
5
161
100
AcDbEntity
8
0
100
AcDbSpline
70
0
71
3
72
8
73
4
74
0
42
0.000000001
43
0.0000000001
44
0.0000000001
40
-43
40
-43
40
-43
40
-43
40
-42
40
-42
40
-42
40
-42
10
-80.9021453524565
20
-87.589534830182814
30
0
10
-80.405879347806248
20
-87.589534830182814
30
0
10
-80.002114156934994
20
-87.18576963931153
30
0
10
-80.002114156934994
20
-86.689331379887022
30
0
0
LINE
5
162
100
AcDbEntity
8
0
100
AcDbLine
10
-80.002114156934994
20
-86.689331379887022
30
0
11
-80.002114156934994
21
-82.785693685550427
31
0
0
LINE
5
163
100
AcDbEntity
8
0
100
AcDbLine
10
-80.002114156934994
20
-82.785693685550427
30
0
11
-46.072057741806418
21
-82.785693685550427
31
0
0
LINE
5
164
100
AcDbEntity
8
0
100
AcDbLine
10
-46.072057741806418
20
-82.785693685550427
30
0
11
-46.072057741806418
21
-87.508575086279421
31
0
0
SPLINE
5
165
100
AcDbEntity
8
0
100
AcDbSpline
70
0
71
3
72
8
73
4
74
0
42
0.000000001
43
0.0000000001
44
0.0000000001
40
-39
40
-39
40
-39
40
-39
40
-38
40
-38
40
-38
40
-38
10
-46.072057741806418
20
-87.508575086279421
30
0
10
-46.072057741806418
20
-88.005013345703915
30
0
10
-45.668120296160808
20
-88.408778536575241
30
0
10
-45.171854291510556
20
-88.408778536575241
30
0
0
LINE
5
166
100
AcDbEntity
8
0
100
AcDbLine
10
-45.171854291510549
20
-88.408778536575241
30
0
11
-25.373062792554109
21
-88.408778536575241
31
0
0
SPLINE
5
167
100
AcDbEntity
8
0
100
AcDbSpline
70
0
71
3
72
8
73
4
74
0
42
0.000000001
43
0.0000000001
44
0.0000000001
40
-37
40
-37
40
-37
40
-37
40
-36
40
-36
40
-36
40
-36
10
-25.373062792554109
20
-88.408778536575241
30
0
10
-24.876796787903857
20
-88.408778536575241
30
0
10
-24.473203851806886
20
-88.005013345703915
30
0
10
-24.473203851806886
20
-87.508575086279421
30
0
0
LINE
5
168
100
AcDbEntity
8
0
100
AcDbLine
10
-24.473203851806886
20
-87.508575086279421
30
0
11
-24.473203851806886
21
-82.785693685550427
31
0
0
LINE
5
169
100
AcDbEntity
8
0
100
AcDbLine
10
-24.473203851806886
20
-82.785693685550427
30
0
11
8.9078765977472329
21
-82.785693685550427
31
0
0
LINE
5
170
100
AcDbEntity
8
0
100
AcDbLine
10
8.9078765977472329
20
-82.785693685550427
30
0
11
8.9078765977472329
21
-87.508575086279421
31
0
0
SPLINE
5
171
100
AcDbEntity
8
0
100
AcDbSpline
70
0
71
3
72
8
73
4
74
0
42
0.000000001
43
0.0000000001
44
0.0000000001
40
-33
40
-33
40
-33
40
-33
40
-32
40
-32
40
-32
40
-32
10
8.9078765977472329
20
-87.508575086279421
30
0
10
8.9078765977472329
20
-88.005013345703915
30
0
10
9.31181404339263
20
-88.408778536575241
30
0
10
9.808080048042882
20
-88.408778536575241
30
0
0
LINE
5
172
100
AcDbEntity
8
0
100
AcDbLine
10
9.8080800480428803
20
-88.408778536575241
30
0
11
29.606354782676689
21
-88.408778536575241
31
0
0
SPLINE
5
173
100
AcDbEntity
8
0
100
AcDbSpline
70
0
71
3
72
8
73
4
74
0
42
0.000000001
43
0.0000000001
44
0.0000000001
40
-31
40
-31
40
-31
40
-31
40
-30
40
-30
40
-30
40
-30
10
29.606354782676689
20
-88.408778536575241
30
0
10
30.10262078732687
20
-88.408778536575241
30
0
10
30.506385978198267
20
-88.005013345703915
30
0
10
30.506385978198267
20
-87.508575086279421
30
0
0
LINE
5
174
100
AcDbEntity
8
0
100
AcDbLine
10
30.506385978198267
20
-87.508575086279421
30
0
11
30.506385978198267
21
-82.785693685550427
31
0
0
LINE
5
175
100
AcDbEntity
8
0
100
AcDbLine
10
30.506385978198267
20
-82.785693685550427
30
0
11
64.437131412423909
21
-82.785693685550427
31
0
0
LINE
5
176
100
AcDbEntity
8
0
100
AcDbLine
10
64.437131412423909
20
-82.785693685550427
30
0
11
64.437131412423909
21
-86.689331379887022
31
0
0
SPLINE
5
177
100
AcDbEntity
8
0
100
AcDbSpline
70
0
71
3
72
8
73
4
74
0
42
0.000000001
43
0.0000000001
44
0.0000000001
40
-27
40
-27
40
-27
40
-27
40
-26
40
-26
40
-26
40
-26
10
64.437131412423909
20
-86.689331379887022
30
0
10
64.437131412423909
20
-87.18576963931153
30
0
10
64.840896603295093
20
-87.589534830182814
30
0
10
65.337162607945345
20
-87.589534830182814
30
0
0
LINE
5
178
100
AcDbEntity
8
0
100
AcDbLine
10
65.337162607945359
20
-87.589534830182814
30
0
11
141.05777755212415
21
-87.589534830182814
31
0
0
SPLINE
5
179
100
AcDbEntity
8
0
100
AcDbSpline
70
0
71
3
72
8
73
4
74
0
42
0.000000001
43
0.0000000001
44
0.0000000001
40
-25
40
-25
40
-25
40
-25
40
-24
40
-24
40
-24
40
-24
10
141.05777755212415
20
-87.589534830182814
30
0
10
141.55404355677439
20
-87.589534830182814
30
0
10
141.95780874764574
20
-87.18576963931153
30
0
10
141.95780874764574
20
-86.689331379887022
30
0
0
LINE
5
180
100
AcDbEntity
8
0
100
AcDbLine
10
141.95780874764574
20
-86.689331379887022
30
0
11
141.95780874764574
21
-82.785693685550427
31
0
0
LINE
5
181
100
AcDbEntity
8
0
100
AcDbLine
10
141.95780874764574
20
-82.785693685550427
30
0
11
160.59077993439365
21
-82.785693685550399
31
0
0
SPLINE
5
182
100
AcDbEntity
8
0
100
AcDbSpline
70
0
71
3
72
8
73
4
74
0
42
0.000000001
43
0.0000000001
44
0.0000000001
40
-22
40
-22
40
-22
40
-22
40
-21
40
-21
40
-21
40
-21
10
160.59077993439365
20
-82.785693685550399
30
0
10
161.63843347145817
20
-82.785693685550399
30
0
10
162.490750094509
20
-81.933377062499602
30
0
10
162.490750094509
20
-80.885723525435083
30
0
0
LINE
5
183
100
AcDbEntity
8
0
100
AcDbLine
10
162.49075009450902
20
-80.885723525435068
30
0
11
162.490750094509
21
-26.987204658701422
31
0
0
LINE
5
184
100
AcDbEntity
8
0
100
AcDbLine
10
162.490750094509
20
-26.987204658701422
30
0
11
164.43636776980389
21
-26.987204658701422
31
0
0
SPLINE
5
185
100
AcDbEntity
8
0
100
AcDbSpline
70
0
71
3
72
8
73
4
74
0
42
0.000000001
43
0.0000000001
44
0.0000000001
40
-19
40
-19
40
-19
40
-19
40
-18
40
-18
40
-18
40
-18
10
164.43636776980389
20
-26.987204658701422
30
0
10
164.93263377445408
20
-26.987204658701422
30
0
10
165.33622671055105
20
-26.583439467830061
30
0
10
165.33622671055105
20
-26.087001208405596
30
0
0
LINE
5
186
100
AcDbEntity
8
0
100
AcDbLine
10
165.3362267105511
20
-26.087001208405596
30
0
11
165.33622671055105
21
-7.5368845680778662
31
0
0
SPLINE
5
187
100
AcDbEntity
8
0
100
AcDbSpline
70
0
71
3
72
8
73
4
74
0
42
0.000000001
43
0.0000000001
44
0.0000000001
40
-17
40
-17
40
-17
40
-17
40
-16
40
-16
40
-16
40
-16
10
165.33622671055105
20
-7.5368845680778662
30
0
10
165.33622671055105
20
-7.0404463086534719
30
0
10
164.93263377445408
20
-6.6366811177821461
30
0
10
164.43636776980389
20
-6.6366811177821461
30
0
0
LINE
5
188
100
AcDbEntity
8
0
100
AcDbLine
10
164.43636776980395
20
-6.6366811177821461
30
0
11
162.490750094509
21
-6.6366811177821461
31
0
0
LINE
5
189
100
AcDbEntity
8
0
100
AcDbLine
10
162.490750094509
20
-6.6366811177821461
30
0
11
162.490750094509
21
14.368066055786173
31
0
0
SPLINE
5
190
100
AcDbEntity
8
0
100
AcDbSpline
70
0
71
3
72
8
73
4
74
0
42
0.000000001
43
0.0000000001
44
0.0000000001
40
-14
40
-14
40
-14
40
-14
40
-13
40
-13
40
-13
40
-13
10
162.490750094509
20
14.368066055786173
30
0
10
162.490750094509
20
15.415719592850579
30
0
10
161.63843347145817
20
16.268036215901418
30
0
10
160.59077993439365
20
16.268036215901418
30
0
0
LWPOLYLINE
5
191
100
AcDbEntity
8
0
100
AcDbPolyline
90
8
70
1
43
0.0
10
157.83635867316286
20
-28.726991419107364
42
-0.41421356237309503
10
158.83635867316286
20
-29.726991419107378
10
158.83635867316283
20
-41.726991419107371
42
-0.41421356237310025
10
157.83635867316286
20
-42.726991419107385
10
145.83635867316281
20
-42.726991419107364
42
-0.41421356237308982
10
144.83635867316281
20
-41.726991419107371
10
144.83635867316281
20
-29.726991419107378
42
-0.41421356237309503
10
145.83635867316281
20
-28.726991419107364
0
LWPOLYLINE
5
192
100
AcDbEntity
8
0
100
AcDbPolyline
90
20
70
1
43
0.0
10
136.51435867315809
20
-19.536991120875307
42
-0.41421356237318868
10
135.51435867315831
20
-20.536991120875268
10
130.51435867315959
20
-20.536991120875268
10
130.51435867316394
20
-20.536985208754817
42
-0.41421334684911959
10
129.51435867316422
20
-21.536984472909879
10
112.63835867316129
20
-21.536984472909872
42
-0.41421377789761321
10
111.63835867316155
20
-20.53698373706316
10
111.63835867315612
20
-20.536991120876138
10
106.63835867316003
20
-20.536991120876138
42
-0.41421356237282447
10
105.63835867315944
20
-19.536991120876408
10
105.63835867315944
20
-6.5369911208764009
42
-0.41421356237333434
10
106.63835867316003
20
-5.5369911208754985
10
111.63835867315726
20
-5.5369911208754985
42
-0.41421356237279328
10
112.63835867315699
20
-6.536991120875264
10
112.63835867315697
20
-7.5369844729095572
10
129.51435867315899
20
-7.5369844729098787
10
129.51435867315899
20
-6.5369911208755127
42
-0.41421356237311585
10
130.51435867315882
20
-5.5369911208757827
10
135.5143586731578
20
-5.5369911208757827
42
-0.41421356237312623
10
136.5143586731582
20
-6.536991120875264
0
LWPOLYLINE
5
193
100
AcDbEntity
8
0
100
AcDbPolyline
90
20
70
1
43
0.0
10
-161.79364132683719
20
-65.686991419107343
42
-0.41421356237315227
10
-160.79364132683719
20
-64.686991419107343
10
-160.70664132684124
20
-64.686991419107343
10
-160.70664132684126
20
-63.68699112087539
42
-0.41421356237202844
10
-159.70664132684004
20
-62.68699112087539
10
-154.7066413268428
20
-62.686991120875405
42
-0.41421356237278806
10
-153.70664132684314
20
-63.686991120875156
10
-153.70664132684334
20
-64.686991419107343
10
-136.83064132684018
20
-64.686991419107343
10
-136.83064132683984
20
-63.68699112087539
42
-0.41421356237359969
10
-135.83064132684044
20
-62.68699112087539
10
-130.83064132684146
20
-62.686991120875405
42
-0.41421356237278806
10
-129.8306413268418
20
-63.686991120875156
10
-129.830641326842
20
-64.686991419107343
10
-129.74364132683718
20
-64.686991419107358
42
-0.4142135623730846
10
-128.74364132683718
20
-65.686991419107343
10
-128.74364132683712
20
-77.686991419107329
42
-0.4142135623730846
10
-129.74364132683718
20
-78.686991419107358
10
-160.79364132683719
20
-78.686991419107272
42
-0.41421356237314705
10
-161.79364132683716
20
-77.686991419107329
0
LWPOLYLINE
5
194
100
AcDbEntity
8
0
100
AcDbPolyline
90
13
70
1
43
0.0
10
-166.17164132684132
20
-7.5369914191073306
10
-166.17164132684138
20
-6.5369911208754061
42
-0.41421356237208568
10
-165.17164132684005
20
-5.5369911208753919
10
-160.17164132684286
20
-5.5369911208753742
42
-0.41421356237272561
10
-159.17164132684314
20
-6.536991120875193
10
-159.17164132684334
20
-19.536991120875165
42
-0.41421356237326151
10
-160.17164132684411
20
-20.536991120875996
10
-160.4023913268372
20
-20.536991120875996
42
-0.41421364972294694
10
-161.40239132683718
20
-21.536991419107334
10
-173.4023913268372
20
-21.536991419107387
42
-0.41421356237306384
10
-174.40239132683723
20
-20.536991419107338
10
-174.40239132683718
20
-8.5369914191073093
42
-0.4142135623730534
10
-173.4023913268372
20
-7.5369914191073306
0
LWPOLYLINE
5
195
100
AcDbEntity
8
0
100
AcDbPolyline
90
8
70
1
43
0.0
10
-147.20364132683721
20
-46.636991419107332
10
-147.20364132683719
20
-58.636991419107346
42
-0.4142135623730846
10
-148.20364132683721
20
-59.636991419107339
10
-160.20364132683721
20
-59.63699141910736
42
-0.41421356237312623
10
-161.20364132683719
20
-58.636991419107346
10
-161.20364132683719
20
-46.636991419107332
42
-0.41421356237312623
10
-160.20364132683721
20
-45.636991419107318
10
-148.20364132683721
20
-45.636991419107353
42
-0.4142135623730846
0
LWPOLYLINE
5
196
100
AcDbEntity
8
0
100
AcDbPolyline
90
8
70
1
43
0.0
10
-165.95924132683729
20
10.561008580892679
10
-165.95924132683729
20
-1.4389914191073316
42
0.41421356237307422
10
-164.95924132683726
20
-2.4389914191073458
10
-152.95924132683717
20
-2.4389914191073458
42
0.41421356237304818
10
-151.95924132683723
20
-1.4389914191073494
10
-151.95924132683714
20
10.561008580892697
42
0.4142135623730846
10
-152.95924132683717
20
11.561008580892675
10
-164.95924132683726
20
11.561008580892675
42
0.41421356237307422
0
LWPOLYLINE
5
197
100
AcDbEntity
8
0
100
AcDbPolyline
90
20
70
1
43
0.0
10
-141.88564132683157
20
-42.586991717339231
42
-0.41421356237276202
10
-142.88564132683143
20
-41.586991717339394
10
-142.885641326832
20
-40.586984472912278
10
-159.76164132683579
20
-40.586984472912278
10
-159.76164132683459
20
-41.586991717339288
42
-0.41421356237357371
10
-160.76164132683397
20
-42.586991717339302
10
-165.76164132683289
20
-42.586991717339387
42
-0.41421356237275686
10
-166.76164132683277
20
-41.586991717339572
10
-166.76164132683255
20
-28.586991717339547
42
-0.41421356237317308
10
-165.76164132683274
20
-27.586991717339604
10
-160.2616420626785
20
-27.586991717339995
10
-160.2616420626785
20
-27.586984472912274
42
-0.41421356237309631
10
-159.2616420626785
20
-26.586984472912274
10
-143.38564206267085
20
-26.586984472912274
42
-0.41421356237309631
10
-142.38564206267085
20
-27.586984472912274
10
-142.38564206267085
20
-27.586991717342197
10
-136.8856413268345
20
-27.586991717338485
42
-0.41421356237339158
10
-135.88564132683354
20
-28.586991717339121
10
-135.88564132683319
20
-41.586991717339131
42
-0.41421356237202323
10
-136.88564132683439
20
-42.586991717339146
0
LWPOLYLINE
5
198
100
AcDbEntity
8
0
100
AcDbPolyline
90
8
70
1
43
0.0
10
-136.38364132683719
20
-59.63699141910736
42
-0.41421356237307422
10
-137.38364132683722
20
-58.636991419107346
10
-137.38364132683719
20
-46.636991419107332
42
-0.41421356237307422
10
-136.38364132683719
20
-45.636991419107332
10
-124.38364132683719
20
-45.636991419107375
42
-0.41421356237311063
10
-123.38364132683722
20
-46.636991419107332
10
-123.38364132683716
20
-58.636991419107346
42
-0.41421356237311063
10
-124.38364132683719
20
-59.63699141910736
0
LWPOLYLINE
5
199
100
AcDbEntity
8
0
100
AcDbPolyline
90
8
70
1
43
0.0
10
-108.32364132683725
20
-27.586991419107338
10
-108.32364132683725
20
-39.586991419107349
42
0.41421356237307944
10
-107.32364132683728
20
-40.586991419107328
10
-95.323641326837176
20
-40.586991419107328
42
0.41421356237310542
10
-94.323641326837162
20
-39.586991419107349
10
-94.323641326837162
20
-27.586991419107356
42
0.41421356237309503
10
-95.323641326837176
20
-26.586991419107342
10
-107.32364132683728
20
-26.586991419107342
42
0.41421356237307944
0
LWPOLYLINE
5
200
100
AcDbEntity
8
0
100
AcDbPolyline
90
14
70
1
43
0.0
10
-157.7336413268371
20
-8.5369914191073093
10
-157.73364132683719
20
-20.536991419107338
42
0.41421356237313667
10
-156.73364132683716
20
-21.536991419107316
10
-135.20864132683721
20
-21.536991419107316
42
0.41421356237313667
10
-134.20864132683721
20
-20.536991419107338
10
-134.20864132683727
20
-8.5369914191073093
42
0.41421356237310542
10
-135.20864132683721
20
-7.5369914191073306
10
-135.29564132684209
20
-7.5369914191073306
10
-135.2956413268418
20
-6.536991120875193
42
0.41421356237272561
10
-136.29564132684152
20
-5.5369911208753742
10
-141.29564132684061
20
-5.5369911208753919
42
0.41421356237355289
10
-142.29564132683998
20
-6.5369911208754061
10
-142.29564132684027
20
-7.5369914191073306
10
-156.73364132683716
20
-7.5369914191073306
42
0.41421356237310542
0
LWPOLYLINE
5
201
100
AcDbEntity
8
0
100
AcDbPolyline
90
8
70
1
43
0.0
10
-101.96364132683719
20
-7.5369914191073306
10
-89.963641326837205
20
-7.5369914191073306
42
-0.41421356237306384
10
-88.963641326837177
20
-8.5369914191073093
10
-88.963641326837219
20
-20.536991419107338
42
-0.4142135623730846
10
-89.963641326837205
20
-21.536991419107352
10
-101.96364132683719
20
-21.536991419107352
42
-0.41421356237307422
10
-102.96364132683721
20
-20.536991419107338
10
-102.96364132683721
20
-8.5369914191073093
42
-0.41421356237306384
0
LWPOLYLINE
5
202
100
AcDbEntity
8
0
100
AcDbPolyline
90
8
70
1
43
0.0
10
-127.37364132683726
20
-27.586991419107321
10
-127.37364132683726
20
-39.586991419107349
42
0.41421356237305862
10
-126.37364132683729
20
-40.586991419107349
10
-114.37364132683715
20
-40.586991419107328
42
0.41421356237305862
10
-113.37364132683717
20
-39.586991419107349
10
-113.37364132683717
20
-27.586991419107321
42
0.41421356237306384
10
-114.37364132683715
20
-26.586991419107306
10
-126.37364132683729
20
-26.586991419107342
42
0.41421356237306384
0
LWPOLYLINE
5
203
100
AcDbEntity
8
0
100
AcDbPolyline
90
8
70
1
43
0.0
10
-98.703641326837186
20
-46.696991419107334
10
-86.703641326837158
20
-46.69699141910732
42
-0.414213562373069
10
-85.703641326837186
20
-47.696991419107349
10
-85.703641326837186
20
-59.696991419107363
42
-0.41421356237305862
10
-86.703641326837158
20
-60.696991419107356
10
-98.703641326837186
20
-60.69699141910732
42
-0.41421356237309503
10
-99.703641326837158
20
-59.696991419107341
10
-99.7036413268372
20
-47.696991419107349
42
-0.41421356237309503
0
LWPOLYLINE
5
204
100
AcDbEntity
8
0
100
AcDbPolyline
90
18
70
1
43
0.0
10
-25.802557058787947
20
22.17348697569216
10
-23.099705078156742
20
9.4575681661527433
42
-0.41421356237199913
10
-23.869940988073957
20
8.271508874600908
10
-28.760678991740289
20
7.2319504205127068
42
-0.41421356237278578
10
-29.946738283291516
20
8.0021863304285468
10
-30.154650036115136
20
8.9803342228769996
10
-46.661868946101983
20
5.4716165286359422
10
-46.45395719327837
20
4.4934686361875
42
-0.4142135623735736
10
-47.224193103193812
20
3.3074093446360386
10
-52.114931106861917
20
2.2678508905473951
42
-0.41421356237278689
10
-53.300990398413148
20
3.0380868004632333
10
-56.003842379043846
20
15.754005610002984
42
-0.41421356237314405
10
-55.233606469128063
20
16.940064901554255
10
-47.958144676880288
20
18.486512349570816
42
-0.41421356237310014
10
-47.187908766964313
20
19.672571641122385
10
-35.450137558158666
20
22.167511930935881
42
-0.41421356237303908
10
-34.264078266607072
20
21.397276021019813
10
-26.988616350340564
20
22.943722885608608
42
-0.41421356237340934
0
LWPOLYLINE
5
205
100
AcDbEntity
8
0
100
AcDbPolyline
90
8
70
1
43
0.0
10
-15.149002176221698
20
6.9996650611708313
42
-0.41421356237308377
10
-13.962942884670149
20
6.2294291512548128
10
-11.468002594856998
20
-5.508342057550875
42
-0.41421356237312773
10
-12.238238504773058
20
-6.6944013491024279
10
-23.976009713578719
20
-9.1893416389154954
42
-0.41421356237306634
10
-25.162069005130334
20
-8.4191057289995186
10
-27.657009294943435
20
3.3186654798061355
42
-0.41421356237309503
10
-26.886773385027354
20
4.5047247713577221
0
LWPOLYLINE
5
206
100
AcDbEntity
8
0
100
AcDbPolyline
90
8
70
1
43
0.0
10
-79.877145095515729
20
-21.071494769150547
10
-68.139373886710047
20
-18.57655447933741
42
0.41421356237308266
10
-67.369137976793994
20
-17.390495187785859
10
-69.864078266607095
20
-5.6527239789802053
42
0.41421356237310525
10
-71.050137558158681
20
-4.8824880690640882
10
-82.787908766964335
20
-7.3774283588772605
42
0.4142135623731012
10
-83.558144676880374
20
-8.5634876504288471
10
-81.063204387067287
20
-20.301258859234537
42
0.41421356237307871
0
LWPOLYLINE
5
207
100
AcDbEntity
8
0
100
AcDbPolyline
90
8
70
1
43
0.0
10
-61.243433301536747
20
-17.110777059072205
42
-0.41421356237306239
10
-62.429492593088298
20
-16.340541149156174
10
-64.924432882901442
20
-4.6027699403505009
42
-0.41421356237310014
10
-64.154196972985318
20
-3.4167106487989329
10
-52.416425764179706
20
-0.92177035898580384
42
-0.41421356237308082
10
-51.230366472628148
20
-1.6920062689018778
10
-48.735426182815004
20
-13.429777477707523
42
-0.4142135623731299
10
-49.505662092731058
20
-14.615836769259083
0
LWPOLYLINE
5
208
100
AcDbEntity
8
0
100
AcDbPolyline
90
8
70
1
43
0.0
10
-74.674078266607111
20
14.3372760210198
10
-72.179137976793854
20
2.5995048122142017
42
-0.41421356237305834
10
-72.949373886709878
20
1.4134455206626129
10
-84.687145095515575
20
-1.0814947691506154
42
-0.41421356237311646
10
-85.873204387067119
20
-0.31125885923458441
10
-88.368144676880362
20
11.426512349571052
42
-0.41421356237308998
10
-87.597908766964423
20
12.612571641122621
10
-75.860137558158698
20
15.107511930935882
42
-0.41421356237309503
0
LWPOLYLINE
5
209
100
AcDbEntity
8
0
100
AcDbPolyline
90
8
70
1
43
0.0
10
-57.77642576417967
20
-21.531770358985849
42
-0.41421356237311829
10
-56.590366472628091
20
-22.302006268901859
10
-54.095426182814933
20
-34.039777477707524
42
-0.4142135623730645
10
-54.865662092731036
20
-35.225836769259082
10
-66.60343330153664
20
-37.720777059072226
42
-0.4142135623730554
10
-67.789492593088312
20
-36.950541149156194
10
-70.284432882901427
20
-25.212769940350523
42
-0.41421356237307466
10
-69.514196972985332
20
-24.026710648798932
0
LWPOLYLINE
5
210
100
AcDbEntity
8
0
100
AcDbPolyline
90
8
70
1
43
0.0
10
-51.650721088922431
20
-21.252052230272174
10
-49.155780799109294
20
-32.989823439077846
42
0.41421356237302775
10
-47.969721507557708
20
-33.760059348993856
10
-36.231950298752018
20
-31.265119059180737
42
0.41421356237304602
10
-35.461714388835972
20
-30.079059767629186
10
-37.956654678649144
20
-18.341288558823514
42
0.41421356237311541
10
-39.142713970200695
20
-17.571052648907468
10
-50.880485179006314
20
-20.065992938720605
42
0.41421356237308377
0
LWPOLYLINE
5
211
100
AcDbEntity
8
0
100
AcDbPolyline
90
8
70
1
43
0.0
10
-19.322942884670091
20
-14.380570848745204
10
-16.828002594856969
20
-26.118342057550873
42
-0.4142135623730645
10
-17.598238504773001
20
-27.304401349102427
10
-29.336009713578733
20
-29.799341638915532
42
-0.41421356237306634
10
-30.522069005130312
20
-29.029105728999518
10
-33.017009294943435
20
-17.29133452019385
42
-0.41421356237309104
10
-32.246773385027332
20
-16.10527522864226
10
-20.509002176221681
20
-13.610334938829137
42
-0.4142135623730645
0
LWPOLYLINE
5
212
100
AcDbEntity
8
0
100
AcDbPolyline
90
8
70
1
43
0.0
10
-104.0636413268372
20
-80.826991419107344
42
-0.4142135623730846
10
-105.06364132683721
20
-79.826991419107358
10
-105.06364132683721
20
-67.82699141910733
42
-0.4142135623730846
10
-104.0636413268372
20
-66.826991419107344
10
-92.063641326837171
20
-66.826991419107387
42
-0.4142135623730846
10
-91.0636413268372
20
-67.82699141910733
10
-91.063641326837157
20
-79.826991419107358
42
-0.41421356237309503
10
-92.063641326837171
20
-80.826991419107372
0
LWPOLYLINE
5
213
100
AcDbEntity
8
0
100
AcDbPolyline
90
8
70
1
43
0.0
10
-109.69364132683715
20
-77.686991419107329
42
-0.41421356237307422
10
-110.69364132683717
20
-78.686991419107358
10
-122.69364132683717
20
-78.686991419107272
42
-0.41421356237314705
10
-123.69364132683714
20
-77.686991419107329
10
-123.69364132683712
20
-65.686991419107329
42
-0.41421356237312623
10
-122.69364132683717
20
-64.686991419107329
10
-110.69364132683717
20
-64.686991419107329
42
-0.414213562373069
10
-109.69364132683715
20
-65.686991419107329
0
LWPOLYLINE
5
214
100
AcDbEntity
8
0
100
AcDbPolyline
90
8
70
1
43
0.0
10
-105.33364132683718
20
-45.636991419107332
42
-0.41421356237310025
10
-104.33364132683721
20
-46.636991419107332
10
-104.33364132683721
20
-58.636991419107346
42
-0.41421356237310542
10
-105.33364132683718
20
-59.63699141910736
10
-117.33364132683718
20
-59.636991419107318
42
-0.4142135623730846
10
-118.3336413268372
20
-58.636991419107346
10
-118.33364132683721
20
-46.636991419107332
42
-0.4142135623730846
10
-117.33364132683718
20
-45.636991419107332
0
LWPOLYLINE
5
215
100
AcDbEntity
8
0
100
AcDbPolyline
90
8
70
1
43
0.0
10
89.17635867316281
20
-46.636991419107368
42
-0.41421356237309503
10
90.176358673162838
20
-45.636991419107353
10
102.17635867316287
20
-45.636991419107353
42
-0.4142135623730846
10
103.17635867316284
20
-46.636991419107368
10
103.17635867316282
20
-58.636991419107375
42
-0.4142135623730846
10
102.17635867316287
20
-59.636991419107375
10
90.176358673162838
20
-59.636991419107339
42
-0.41421356237308982
10
89.176358673162852
20
-58.636991419107375
0
LWPOLYLINE
5
216
100
AcDbEntity
8
0
100
AcDbPolyline
90
8
70
1
43
0.0
10
83.000626113289968
20
-47.617428358877248
42
-0.41421356237309798
10
83.77086202320605
20
-48.803487650428856
10
81.275921733392877
20
-60.541258859234539
42
-0.41421356237311863
10
80.089862441841319
20
-61.311494769150571
10
68.352091233035623
20
-58.816554479337483
42
-0.41421356237315216
10
67.581855323119626
20
-57.630495187785868
10
70.076795612932756
20
-45.892723978980214
42
-0.41421356237312157
10
71.262854904484243
20
-45.122488069064168
0
LWPOLYLINE
5
217
100
AcDbEntity
8
0
100
AcDbPolyline
90
8
70
1
43
0.0
10
113.98635867316284
20
-59.63699141910736
42
-0.41421356237309503
10
112.98635867316285
20
-58.636991419107375
10
112.98635867316281
20
-46.636991419107368
42
-0.41421356237309503
10
113.98635867316284
20
-45.636991419107353
10
125.98635867316283
20
-45.636991419107353
42
-0.41421356237309503
10
126.98635867316284
20
-46.636991419107368
10
126.98635867316281
20
-58.636991419107375
42
-0.41421356237310025
10
125.98635867316283
20
-59.636991419107375
0
LWPOLYLINE
5
218
100
AcDbEntity
8
0
100
AcDbPolyline
90
8
70
1
43
0.0
10
75.896358673162823
20
-67.826991419107372
10
75.896358673162823
20
-79.826991419107401
42
0.4142135623730846
10
76.896358673162837
20
-80.826991419107372
10
88.896358673162837
20
-80.826991419107372
42
0.41421356237309503
10
89.896358673162808
20
-79.826991419107401
10
89.896358673162808
20
-67.826991419107372
42
0.41421356237309503
10
88.896358673162837
20
-66.826991419107372
10
76.896358673162837
20
-66.826991419107372
42
0.41421356237309503
0
LWPOLYLINE
5
219
100
AcDbEntity
8
0
100
AcDbPolyline
90
8
70
1
43
0.0
10
114.58635867316282
20
-78.686991419107386
42
-0.41421356237309503
10
113.58635867316281
20
-77.686991419107372
10
113.58635867316282
20
-65.686991419107358
42
-0.41421356237309503
10
114.58635867316282
20
-64.686991419107358
10
126.58635867316285
20
-64.686991419107343
42
-0.41421356237309503
10
127.58635867316286
20
-65.686991419107358
10
127.58635867316283
20
-77.686991419107414
42
-0.41421356237309503
10
126.58635867316285
20
-78.686991419107386
0
LWPOLYLINE
5
220
100
AcDbEntity
8
0
100
AcDbPolyline
90
8
70
1
43
0.0
10
108.53635867316285
20
-65.686991419107358
10
108.53635867316285
20
-77.686991419107372
42
-0.41421356237309503
10
107.53635867316284
20
-78.686991419107386
10
95.536358673162809
20
-78.686991419107358
42
-0.41421356237309503
10
94.536358673162823
20
-77.686991419107372
10
94.536358673162809
20
-65.686991419107358
42
-0.41421356237309503
10
95.536358673162809
20
-64.686991419107358
10
107.53635867316284
20
-64.686991419107343
42
-0.41421356237309503
0
LWPOLYLINE
5
221
100
AcDbEntity
8
0
100
AcDbPolyline
90
8
70
1
43
0.0
10
102.47635867316284
20
-39.586991419107363
42
-0.41421356237307944
10
101.47635867316285
20
-40.586991419107363
10
89.476358673162821
20
-40.586991419107349
42
-0.41421356237310025
10
88.476358673162849
20
-39.586991419107349
10
88.476358673162849
20
-27.586991419107356
42
-0.4142135623730846
10
89.476358673162821
20
-26.586991419107342
10
101.47635867316285
20
-26.586991419107378
42
-0.41421356237309503
10
102.47635867316284
20
-27.586991419107356
0
LWPOLYLINE
5
222
100
AcDbEntity
8
0
100
AcDbPolyline
90
8
70
1
43
0.0
10
80.575921733392946
20
-40.911258859234543
42
-0.41421356237310919
10
79.389862441841359
20
-41.681494769150582
10
67.652091233035705
20
-39.186554479337474
42
-0.41421356237313683
10
66.881855323119623
20
-38.000495187785859
10
69.37679561293281
20
-26.262723978980205
42
-0.41421356237311141
10
70.562854904484311
20
-25.492488069064159
10
82.300626113290036
20
-27.987428358877281
42
-0.41421356237306239
10
83.070862023206075
20
-29.173487650428847
0
LWPOLYLINE
5
223
100
AcDbEntity
8
0
100
AcDbPolyline
90
8
70
1
43
0.0
10
154.76635867316281
20
-60.776991419107361
42
-0.41421356237308982
10
153.76635867316281
20
-61.776991419107361
10
141.76635867316287
20
-61.776991419107347
42
-0.41421356237308982
10
140.76635867316284
20
-60.776991419107347
10
140.76635867316287
20
-48.776991419107354
42
-0.41421356237309503
10
141.76635867316287
20
-47.776991419107361
10
153.76635867316281
20
-47.776991419107318
42
-0.41421356237310025
10
154.76635867316281
20
-48.776991419107354
0
LWPOLYLINE
5
224
100
AcDbEntity
8
0
100
AcDbPolyline
90
8
70
1
43
0.0
10
136.60635867316279
20
-67.826991419107372
42
-0.41421356237309503
10
137.60635867316282
20
-66.826991419107344
10
149.60635867316279
20
-66.826991419107387
42
-0.41421356237312623
10
150.60635867316279
20
-67.826991419107372
10
150.60635867316284
20
-79.826991419107358
42
-0.41421356237310542
10
149.60635867316279
20
-80.826991419107344
10
137.60635867316282
20
-80.826991419107372
42
-0.41421356237309503
10
136.60635867316279
20
-79.826991419107358
0
LWPOLYLINE
5
225
100
AcDbEntity
8
0
100
AcDbPolyline
90
8
70
1
43
0.0
10
84.126358673162827
20
-21.536991419107352
42
-0.41421356237309503
10
83.126358673162855
20
-20.536991419107373
10
83.126358673162855
20
-8.5369914191073448
42
-0.41421356237307944
10
84.126358673162827
20
-7.5369914191073484
10
96.126358673162855
20
-7.5369914191073484
42
-0.41421356237308982
10
97.126358673162869
20
-8.5369914191073448
10
97.126358673162869
20
-20.536991419107373
42
-0.41421356237309503
10
96.126358673162883
20
-21.536991419107352
0
LWPOLYLINE
5
226
100
AcDbEntity
8
0
100
AcDbPolyline
90
8
70
1
43
0.0
10
80.035921733392883
20
-0.31125885923451085
42
-0.41421356237315426
10
78.849862441841339
20
-1.0814947691505594
10
67.112091233035699
20
1.4134455206625844
42
-0.414213562373135
10
66.341855323119674
20
2.5995048122141107
10
68.836795612932775
20
14.337276021019836
42
-0.41421356237311646
10
70.022854904484319
20
15.107511930935864
10
81.760626113290002
20
12.612571641122788
42
-0.41421356237305507
10
82.530862023206026
20
11.426512349571176
0
LWPOLYLINE
5
227
100
AcDbEntity
8
0
100
AcDbPolyline
90
8
70
1
43
0.0
10
77.720862023206109
20
-8.5634876504288648
10
75.225921733392894
20
-20.301258859234537
42
-0.41421356237311141
10
74.039862441841393
20
-21.071494769150583
10
62.302091233035668
20
-18.576554479337432
42
-0.41421356237312662
10
61.531855323119657
20
-17.39049518778593
10
64.026795612932744
20
-5.6527239789802017
42
-0.41421356237311541
10
65.212854904484317
20
-4.8824880690641592
10
76.950626113290042
20
-7.3774283588772596
42
-0.41421356237304602
0
LWPOLYLINE
5
228
100
AcDbEntity
8
0
100
AcDbPolyline
90
8
70
1
43
0.0
10
33.223438435248056
20
-57.532052230272242
10
30.72849814543487
20
-69.269823439077925
42
-0.41421356237312773
10
29.542438853883333
20
-70.040059348993964
10
17.804667645077647
20
-67.54511905918082
42
-0.4142135623731063
10
17.034431735161633
20
-66.359059767629262
10
19.529372024974766
20
-54.621288558823615
42
-0.41421356237312373
10
20.71543131652632
20
-53.851052648907554
10
32.453202525331982
20
-56.345992938720627
42
-0.41421356237306534
0
LWPOLYLINE
5
229
100
AcDbEntity
8
0
100
AcDbPolyline
90
8
70
1
43
0.0
10
25.0346676450777
20
-10.655119059180853
42
-0.41421356237313067
10
24.264431735161622
20
-9.4690597676292576
10
26.759372024974798
20
2.268711441176396
42
-0.41421356237311646
10
27.94543131652631
20
3.0389473510924603
10
39.683202525332028
20
0.5440070612793062
42
-0.41421356237307072
10
40.453438435248046
20
-0.64205223027224534
10
37.958498145434937
20
-12.379823439077915
42
-0.41421356237311141
10
36.772438853883358
20
-13.150059348993963
0
LWPOLYLINE
5
230
100
AcDbEntity
8
0
100
AcDbPolyline
90
8
70
1
43
0.0
10
32.809372024974763
20
-37.971288558823616
10
30.314431735161662
20
-49.70905976762927
42
0.41421356237314411
10
31.084667645077673
20
-50.895119059180857
10
42.822438853883327
20
-53.390059348993972
42
0.41421356237311757
10
44.008498145434913
20
-52.619823439077926
10
46.503438435248015
20
-40.882052230272237
42
0.41421356237306961
10
45.733202525332004
20
-39.695992938720664
10
33.995431316526279
20
-37.201052648907549
42
0.41421356237313067
0
LWPOLYLINE
5
231
100
AcDbEntity
8
0
100
AcDbPolyline
90
8
70
1
43
0.0
10
0.89566023099579328
20
-50.660570848745294
42
-0.41421356237311141
10
2.0817195225473029
20
-49.890334938829248
10
13.819490731352959
20
-52.38527522864235
42
-0.41421356237306745
10
14.589726641269003
20
-53.571334520193936
10
12.094786351455916
20
-65.30910572899964
42
-0.41421356237313978
10
10.908727059904351
20
-66.079341638915679
10
-0.82904414890129796
20
-63.584401349102528
42
-0.41421356237316043
10
-1.5992800588173139
20
-62.398342057550963
0
LWPOLYLINE
5
232
100
AcDbEntity
8
0
100
AcDbPolyline
90
8
70
1
43
0.0
10
11.750955851098652
20
-27.304401349102534
10
23.488727059904306
20
-29.799341638915671
42
0.41421356237313361
10
24.674786351455893
20
-29.029105728999625
10
27.16972664126903
20
-17.291334520193935
42
0.41421356237309903
10
26.399490731352984
20
-16.105275228642384
10
14.661719522547259
20
-13.610334938829247
42
0.4142135623730645
10
13.475660230995743
20
-14.380570848745293
10
10.980719941182642
20
-26.118342057550965
42
0.414213562373143
0
LWPOLYLINE
5
233
100
AcDbEntity
8
0
100
AcDbPolyline
90
8
70
1
43
0.0
10
12.450955851098655
20
-46.934401349102544
10
24.188727059904345
20
-49.429341638915645
42
0.41421356237311646
10
25.374786351455896
20
-48.65910572899962
10
27.869726641269033
20
-36.921334520193923
42
0.41421356237306239
10
27.099490731352986
20
-35.735275228642379
10
15.361719522547332
20
-33.240334938829257
42
0.414213562373143
10
14.175660230995781
20
-34.010570848745289
10
11.680719941182645
20
-45.748342057550957
42
0.4142135623731768
0
LWPOLYLINE
5
234
100
AcDbEntity
8
0
100
AcDbPolyline
90
8
70
1
43
0.0
10
30.38466764507767
20
-31.265119059180854
42
-0.4142135623731103
10
29.614431735161659
20
-30.079059767629275
10
32.109372024974789
20
-18.34128855882361
42
-0.41421356237313389
10
33.295431316526312
20
-17.571052648907557
10
45.033202525332001
20
-20.06599293872069
42
-0.41421356237312773
10
45.803438435248083
20
-21.252052230272263
10
43.308498145434953
20
-32.989823439077924
42
-0.41421356237310308
10
42.122438853883359
20
-33.760059348993963
0
LWPOLYLINE
5
235
100
AcDbEntity
8
0
100
AcDbPolyline
90
8
70
1
43
0.0
10
19.008853312952603
20
23.391682525424908
10
16.513913023139448
20
11.653911316619187
42
-0.41421356237306961
10
15.327853731587915
20
10.883675406703155
10
1.2620912330357084
20
13.873445520662548
42
-0.41421356237311541
10
0.4918553231196654
20
15.059504812214115
10
2.9867956129327315
20
26.797276021019798
42
-0.4142135623731194
10
4.1728549044842822
20
27.567511930935833
10
18.238617403036564
20
24.577741816976459
42
-0.41421356237309287
0
LWPOLYLINE
5
236
100
AcDbEntity
8
0
100
AcDbPolyline
90
8
70
1
43
0.0
10
21.049490731353018
20
4.5047247713576493
42
-0.41421356237304197
10
21.819726641269028
20
3.3186654798060644
10
19.324786351455902
20
-8.4191057289996021
42
-0.41421356237316043
10
18.138727059904305
20
-9.1893416389156535
10
6.4009558510986917
20
-6.6944013491025078
42
-0.41421356237310736
10
5.6307199411826758
20
-5.5083420575509479
10
8.1256602309958073
20
6.2294291512546813
42
-0.41421356237310231
10
9.3117195225472926
20
6.9996650611707523
0
LWPOLYLINE
5
237
100
AcDbEntity
8
0
100
AcDbPolyline
90
35
70
1
43
0.0
10
22.912658334406618
20
7.2315088745994718
42
-0.41421356237280321
10
22.142422424490782
20
8.4175681661507618
10
24.845274405121867
20
21.1334869756902
42
-0.41421356237314699
10
26.031333696673116
20
21.903722885606225
10
30.922071700340936
20
20.864164431517729
42
-0.029842482052014119
10
31.037042967082726
20
20.832455733047208
10
33.208102191561359
20
20.370982849110042
42
-0.024892862965009945
10
33.304287508866324
20
20.345476319111135
10
33.306795612932795
20
20.357276021019782
42
-0.41421356237308082
10
34.492854904484282
20
21.127511930935796
10
46.230626113290008
20
18.632571641122681
42
-0.024024055625534203
10
46.323500936407527
20
18.608115538219643
10
48.52206712175505
20
18.140795869258181
42
-0.41417043669291537
10
49.29233363451047
20
16.954880604884529
42
-0.023636216218981484
10
49.385585811795885
20
16.939623355641977
10
54.276323815461041
20
15.900064901554057
42
-0.029842482062461064
10
54.39129508222706
20
15.868356203075713
10
56.562354306680689
20
15.406883319143834
42
-0.4142135623723196
10
57.33259021659741
20
14.220824027592407
10
54.629738235966542
20
1.5049052180530464
42
-0.41421356237347368
10
53.443678944414579
20
0.73466930813708586
10
48.552940940744811
20
1.7742277622261078
42
-0.029842482058926634
10
48.437969673992072
20
1.805936460700508
10
46.266910449528325
20
2.2674093446345385
42
-0.41421356237284213
10
45.496674539612485
20
3.453468636185768
10
45.704555616774272
20
4.4314722109908793
42
-0.023636213495560245
10
45.611303450306266
20
4.4467294589848549
10
33.87353224150182
20
6.9416697487978407
42
-0.024024055624659063
10
33.780657418384763
20
6.9661258517007774
10
31.582091233035676
20
7.4334455206625254
42
-0.0248928629654512
10
31.485905915730257
20
7.458952050661658
10
31.275486120845638
20
6.4690047480178148
42
-0.41421356237402862
10
30.089426829292947
20
5.6987688381023638
10
25.198688825614539
20
6.738327292193242
42
-0.029842482053665267
10
25.083717558859462
20
6.7700359906678287
0
LWPOLYLINE
5
238
100
AcDbEntity
8
0
100
AcDbPolyline
90
8
70
1
43
0.0
10
45.393083818953812
20
-1.6920062689019462
42
-0.41421356237312079
10
46.579143110505328
20
-0.92177035898586723
10
58.316914319311017
20
-3.4167106487989636
42
-0.41421356237305218
10
59.087150229227063
20
-4.6027699403505551
10
56.592209939413891
20
-16.34054114915623
42
-0.41421356237309936
10
55.406150647862376
20
-17.110777059072255
10
43.66837943905665
20
-14.615836769259154
42
-0.41421356237309503
10
42.89814352914064
20
-13.429777477707567
0
LWPOLYLINE
5
239
100
AcDbEntity
8
0
100
AcDbPolyline
90
8
70
1
43
0.0
10
39.349143110505267
20
-57.811770358985854
10
51.086914319310992
20
-60.306710648798983
42
-0.4142135623731012
10
51.857150229227038
20
-61.492769940350556
10
49.362209939413908
20
-73.230541149156238
42
-0.41421356237310736
10
48.17615064786235
20
-74.000777059072249
10
36.438379439056661
20
-71.505836769259162
42
-0.4142135623731481
10
35.66814352914065
20
-70.319777477707561
10
38.163083818953744
20
-58.582006268901914
42
-0.4142135623731103
0
LWPOLYLINE
5
240
100
AcDbEntity
8
0
100
AcDbPolyline
90
8
70
1
43
0.0
10
55.072091233035678
20
-75.466554479337432
42
-0.41421356237313794
10
54.301855323119668
20
-74.280495187785903
10
56.796795612932797
20
-62.542723978980234
42
-0.41421356237312884
10
57.982854904484284
20
-61.77248806906416
10
69.720626113289995
20
-64.267428358877311
42
-0.41421356237308593
10
70.49086202320602
20
-65.453487650428855
10
67.995921733392933
20
-77.191258859234551
42
-0.41421356237312557
10
66.809862441841332
20
-77.96149476915059
0
LWPOLYLINE
5
241
100
AcDbEntity
8
0
100
AcDbPolyline
90
8
70
1
43
0.0
10
62.642209939413867
20
-56.580541149156225
42
-0.41421356237310231
10
61.456150647862344
20
-57.350777059072264
10
49.718379439056648
20
-54.855836769259156
42
-0.41421356237315216
10
48.948143529140609
20
-53.669777477707576
10
51.443083818953781
20
-41.932006268901901
42
-0.41421356237312157
10
52.629143110505261
20
-41.161770358985862
10
64.366914319310979
20
-43.656710648798985
42
-0.41421356237308488
10
65.137150229227032
20
-44.842769940350564
0
LWPOLYLINE
5
242
100
AcDbEntity
8
0
100
AcDbPolyline
90
8
70
1
43
0.0
10
50.743083818953778
20
-22.302006268901913
10
48.248143529140641
20
-34.039777477707567
42
0.41421356237312662
10
49.018379439056652
20
-35.225836769259132
10
60.756150647862341
20
-37.720777059072276
42
0.41421356237313472
10
61.942209939413857
20
-36.950541149156244
10
64.437150229227029
20
-25.212769940350555
42
0.41421356237304197
10
63.666914319311019
20
-24.026710648798968
10
51.929143110505294
20
-21.531770358985867
42
0.4142135623731299
0
LWPOLYLINE
5
243
100
AcDbEntity
8
0
100
AcDbPolyline
90
8
70
1
43
0.0
10
-121.0136413268372
20
-21.536991419107352
42
-0.41421356237313667
10
-122.01364132683722
20
-20.536991419107338
10
-122.01364132683722
20
-8.5369914191073093
42
-0.41421356237312623
10
-121.0136413268372
20
-7.5369914191073306
10
-109.01364132683722
20
-7.5369914191073306
42
-0.41421356237306384
10
-108.01364132683719
20
-8.5369914191073093
10
-108.01364132683722
20
-20.536991419107338
42
-0.41421356237307422
10
-109.01364132683722
20
-21.536991419107334
0
LWPOLYLINE
5
244
100
AcDbEntity
8
0
100
AcDbPolyline
90
8
70
1
43
0.0
10
134.21635867316283
20
11.513008580892627
42
-0.4142135623730846
10
135.21635867316286
20
10.513008580892649
10
135.2163586731628
20
-1.4869914191073619
42
-0.41421356237310542
10
134.21635867316283
20
-2.4869914191073761
10
122.2163586731628
20
-2.4869914191073406
42
-0.41421356237307422
10
121.21635867316289
20
-1.4869914191073619
10
121.21635867316284
20
10.513008580892649
42
-0.41421356237306384
10
122.2163586731628
20
11.513008580892645
0
LWPOLYLINE
5
245
100
AcDbEntity
8
0
100
AcDbPolyline
90
8
70
1
43
0.0
10
-13.568002594856974
20
-64.378342057550867
42
-0.41421356237310336
10
-14.338238504773066
20
-65.56440134910244
10
-26.076009713578681
20
-68.059341638915555
42
-0.4142135623730645
10
-27.262069005130307
20
-67.289105728999516
10
-29.75700929494343
20
-55.551334520193848
42
-0.41421356237308887
10
-28.986773385027327
20
-54.365275228642261
10
-17.249002176221701
20
-51.870334938829174
42
-0.41421356237310919
10
-16.062942884670086
20
-52.640570848745192
0
LWPOLYLINE
5
246
100
AcDbEntity
8
0
100
AcDbPolyline
90
8
70
1
43
0.0
10
-48.390721088922454
20
-59.512052230272189
42
-0.41421356237310231
10
-47.620485179006344
20
-58.32599293872061
10
-35.88271397020069
20
-55.831052648907466
42
-0.41421356237311141
10
-34.696654678649104
20
-56.601288558823519
10
-32.20171438883601
20
-68.339059767629209
42
-0.41421356237310525
10
-32.971950298752084
20
-69.525119059180753
10
-44.709721507557703
20
-72.020059348993883
42
-0.41421356237306239
10
-45.895780799109325
20
-71.249823439077858
0
LWPOLYLINE
5
247
100
AcDbEntity
8
0
100
AcDbPolyline
90
8
70
1
43
0.0
10
-24.397009294943434
20
-34.941334520193848
42
-0.41421356237308782
10
-23.626773385027349
20
-33.755275228642283
10
-11.889002176221728
20
-31.260334938829189
42
-0.41421356237310525
10
-10.702942884670108
20
-32.030570848745192
10
-8.2080025948570565
20
-43.768342057550882
42
-0.41421356237311541
10
-8.9782385047730884
20
-44.954401349102433
10
-20.71600971357871
20
-47.449341638915513
42
-0.4142135623730725
10
-21.902069005130329
20
-46.679105728999524
0
LWPOLYLINE
5
248
100
AcDbEntity
8
0
100
AcDbPolyline
90
8
70
1
43
0.0
10
-76.617145095515724
20
-59.331494769150524
42
-0.41421356237305218
10
-77.803204387067353
20
-58.561258859234528
10
-80.298144676880483
20
-46.823487650428824
42
-0.4142135623729849
10
-79.527908766964401
20
-45.637428358877266
10
-67.790137558158676
20
-43.142488069064164
42
-0.41421356237310009
10
-66.60407826660709
20
-43.912723978980196
10
-64.109137976793988
20
-55.650495187785879
42
-0.41421356237304197
10
-64.879373886710027
20
-56.836554479337437
0
LWPOLYLINE
5
249
100
AcDbEntity
8
0
100
AcDbPolyline
90
8
70
1
43
0.0
10
-50.835426182814992
20
-72.299777477707536
42
-0.41421356237306239
10
-51.605662092731031
20
-73.485836769259095
10
-63.343433301536734
20
-75.980777059072167
42
-0.41421356237303764
10
-64.529492593088349
20
-75.210541149156171
10
-67.024432882901422
20
-63.472769940350517
42
-0.41421356237306128
10
-66.254196972985326
20
-62.286710648798916
10
-54.516425764179672
20
-59.791770358985794
42
-0.41421356237311141
10
-53.330366472628086
20
-60.562006268901847
0
LWPOLYLINE
5
250
100
AcDbEntity
8
0
100
AcDbPolyline
90
8
70
1
43
0.0
10
-71.964078266607061
20
-64.522723978980167
10
-69.469137976793945
20
-76.260495187785892
42
-0.41421356237306239
10
-70.239373886710013
20
-77.446554479337408
10
-81.977145095515709
20
-79.941494769150509
42
-0.41421356237305218
10
-83.163204387067282
20
-79.171258859234541
10
-85.658144676880397
20
-67.433487650428845
42
-0.41421356237308782
10
-84.887908766964301
20
-66.247428358877286
10
-73.15013755815869
20
-63.752488069064142
42
-0.41421356237311646
0
LWPOLYLINE
5
251
100
AcDbEntity
8
0
100
AcDbPolyline
90
8
70
1
43
0.0
10
-45.475426182815013
20
-51.689777477707537
42
-0.41421356237307871
10
-46.245662092731052
20
-52.875836769259088
10
-57.983433301536699
20
-55.370777059072239
42
-0.41421356237307577
10
-59.169492593088329
20
-54.600541149156179
10
-61.664432882901473
20
-42.862769940350518
42
-0.41421356237305618
10
-60.894196972985384
20
-41.676710648798938
10
-49.156425764179694
20
-39.18177035898583
42
-0.41421356237308377
10
-47.970366472628143
20
-39.952006268901847
0
LWPOLYLINE
5
252
100
AcDbEntity
8
0
100
AcDbPolyline
90
8
70
1
43
0.0
10
-43.030721088922448
20
-38.902052230272176
10
-40.535780799109347
20
-50.639823439077851
42
0.4142135623730645
10
-39.349721507557724
20
-51.410059348993862
10
-27.61195029875207
20
-48.915119059180761
42
0.41421356237309104
10
-26.841714388836024
20
-47.729059767629209
10
-29.336654678649126
20
-35.99128855882352
42
0.41421356237310009
10
-30.522713970200712
20
-35.221052648907488
10
-42.260485179006402
20
-37.715992938720611
42
0.41421356237305945
0
LWPOLYLINE
5
253
100
AcDbEntity
8
0
100
AcDbPolyline
90
8
70
1
43
0.0
10
-72.729137976793965
20
-38.000495187785859
42
-0.41421356237308488
10
-73.49937388671006
20
-39.18655447933741
10
-85.237145095515672
20
-41.681494769150511
42
-0.41421356237304091
10
-86.423204387067329
20
-40.911258859234501
10
-88.918144676880445
20
-29.17348765042885
42
-0.4142135623730645
10
-88.147908766964321
20
-27.98742835887726
10
-76.410137558158652
20
-25.492488069064176
42
-0.41421356237312157
10
-75.22407826660708
20
-26.262723978980187
0
LWPOLYLINE
5
254
100
AcDbEntity
8
0
100
AcDbPolyline
90
8
70
1
43
0.0
10
-32.596654678649166
20
2.2687114411764853
10
-30.101714388836033
20
-9.4690597676292061
42
-0.41421356237310009
10
-30.87195029875204
20
-10.655119059180738
10
-42.609721507557737
20
-13.150059348993803
42
-0.41421356237307039
10
-43.795780799109316
20
-12.379823439077846
10
-46.290721088922446
20
-0.64205223027219072
42
-0.41421356237310525
10
-45.520485179006336
20
0.54400706127939458
10
-33.782713970200675
20
3.0389473510924998
42
-0.4142135623730398
0
CIRCLE
5
255
100
AcDbEntity
8
0
100
AcDbCircle
10
149.8013204191744
20
-45.251940766711428
30
0
40
1.1500401519074543
210
0
220
0
230
1
0
LWPOLYLINE
5
256
100
AcDbEntity
8
0
100
AcDbPolyline
90
8
70
1
43
0.0
10
162.90634561826135
20
-22.677028131935103
10
162.90634561826135
20
-10.677028131935078
42
0.41421356237309503
10
161.90634561826133
20
-9.6770281319350762
10
149.90634561826135
20
-9.6770281319350904
42
0.4142135623730957
10
148.90634561826135
20
-10.677028131935089
10
148.90634561826135
20
-22.677028131935103
42
0.41421356237309503
10
149.90634561826135
20
-23.677028131935103
10
161.90634561826135
20
-23.67702813193511
42
0.4142135623730846
0
LWPOLYLINE
5
257
100
AcDbEntity
8
0
100
AcDbPolyline
90
8
70
1
43
0.0
10
114.76275380946595
20
-26.587014268000431
10
133.3051443964994
20
-26.587014268000431
42
-0.41421356237309631
10
134.3051443964994
20
-27.587014268000431
10
134.3051443964994
20
-39.587034482972307
42
-0.41421356237309243
10
133.3051443964994
20
-40.5870344829723
10
114.76275380946595
20
-40.5870344829723
42
-0.41421356237309503
10
113.76275380946595
20
-39.5870344829723
10
113.76275380946595
20
-27.587014268000431
42
-0.41421356237309503
0
CIRCLE
5
258
100
AcDbEntity
8
0
100
AcDbCircle
10
-144.66039504433752
20
8.3710592063813927
30
0
40
1.1499999997124455
210
0
220
0
230
1
0
CIRCLE
5
259
100
AcDbEntity
8
0
100
AcDbCircle
10
-169.72365945304986
20
-33.586937430237768
30
0
40
1.14999999971241
210
0
220
0
230
1
0
CIRCLE
5
260
100
AcDbEntity
8
0
100
AcDbCircle
10
-126.20717237694564
20
-71.686912179989264
30
0
40
1.1499999997123922
210
0
220
0
230
1
0
CIRCLE
5
261
100
AcDbEntity
8
0
100
AcDbCircle
10
-50.272402355939221
20
-62.556973739077684
30
0
40
1.1499999997123922
210
0
220
0
230
1
0
CIRCLE
5
262
100
AcDbEntity
8
0
100
AcDbCircle
10
-71.864907927022983
20
-29.867590427071129
30
0
40
1.1499999999999939
210
0
220
0
230
1
0
CIRCLE
5
263
100
AcDbEntity
8
0
100
AcDbCircle
10
-64.545242364352475
20
3.2042367140023131
30
0
40
1.1499999997123922
210
0
220
0
230
1
0
CIRCLE
5
264
100
AcDbEntity
8
0
100
AcDbCircle
10
34.727518968064928
20
-62.556973739077684
30
0
40
1.1500000000000001
210
0
220
0
230
1
0
CIRCLE
5
265
100
AcDbEntity
8
0
100
AcDbCircle
10
111.06131675779736
20
-67.876938790831801
30
0
40
1.1499999999999999
210
0
220
0
230
1
0
CIRCLE
5
266
100
AcDbEntity
8
0
100
AcDbCircle
10
66.040258606062878
20
-29.867630135876979
30
0
40
1.1500000000000024
210
0
220
0
230
1
0
CIRCLE
5
267
100
AcDbEntity
8
0
100
AcDbCircle
10
58.875601956535917
20
3.2430473506074442
30
0
40
1.1499999999999972
210
0
220
0
230
1
0
CIRCLE
5
268
100
AcDbEntity
8
0
100
AcDbCircle
10
118.70252395898
20
4.5129198758216305
30
0
40
1.1500000000000021
210
0
220
0
230
1
0
CIRCLE
5
269
100
AcDbEntity
8
0
100
AcDbCircle
10
159.13629178651178
20
12.051154684837115
30
0
40
2.1270030550238594
210
0
220
0
230
1
0
CIRCLE
5
270
100
AcDbEntity
8
0
100
AcDbCircle
10
159.13629178651178
20
3.0511585759758475
30
0
40
2.1270030550238594
210
0
220
0
230
1
0
CIRCLE
5
271
100
AcDbEntity
8
0
100
AcDbCircle
10
159.13629178651175
20
7.5511566304064459
30
0
40
2.1270030550238594
210
0
220
0
230
1
0
LINE
5
272
100
AcDbEntity
8
0
100
AcDbLine
10
-22.380507096334416
20
39.333294999197562
30
0
11
-45.216640532818886
21
34.367534366758647
31
0
0
LINE
5
273
100
AcDbEntity
8
0
100
AcDbLine
10
-22.380507096334416
20
39.333294999197562
30
0
11
6.8153513770181862
21
39.333294999198159
31
0
0
LINE
5
274
100
AcDbEntity
8
0
100
AcDbLine
10
6.8153513770181862
20
39.333294999198159
30
0
11
29.651657788307798
21
34.367534366758647
31
0
0
LINE
5
275
100
AcDbEntity
8
0
100
AcDbLine
10
88.715105205985623
20
16.268036215901418
30
0
11
88.715105205985623
21
16.231284181093578
31
0
0
LINE
5
276
100
AcDbEntity
8
0
100
AcDbLine
10
94.597736602366354
20
16.268036215901418
30
0
11
88.715105205985623
21
16.268036215901418
31
0
0
LINE
5
277
100
AcDbEntity
8
0
100
AcDbLine
10
29.442540492352975
20
29.156482935769645
30
0
11
88.715105205985623
21
16.231284181093578
31
0
0
LINE
5
278
100
AcDbEntity
8
0
100
AcDbLine
10
-104.28026053742626
20
16.268036215901418
30
0
11
-45.007523236864202
21
29.156482935769645
31
0
0
LINE
5
279
100
AcDbEntity
8
0
100
AcDbLine
10
-104.28026053742626
20
16.268036215901418
30
0
11
-110.16289160165172
21
16.268036215901418
31
0
0
LWPOLYLINE
5
280
100
AcDbEntity
8
0
100
AcDbPolyline
90
8
70
1
43
0.0
10
-98.113473563156631
20
-2.1692893353892018
10
-135.76401053073073
20
-2.1692893353891995
42
-0.41421356237309537
10
-136.76401053073073
20
-1.1692893353892009
10
-136.76401053073073
20
10.218876059631668
42
-0.41421356237309503
10
-135.76401053073073
20
11.218876059631668
10
-98.113473563156631
20
11.218876059631665
42
-0.41421356237309503
10
-97.113473563156631
20
10.218876059631668
10
-97.113473563156631
20
-1.1692893353892018
42
-0.41421356237309503
0
ENDSEC
0
SECTION
2
OBJECTS
0
DICTIONARY
5
C
100
AcDbDictionary
3
ACAD_GROUP
350
D
3
ACAD_MLINESTYLE
350
17
0
DICTIONARY
5
D
100
AcDbDictionary
0
DICTIONARY
5
1A
330
C
100
AcDbDictionary
0
DICTIONARY
5
17
100
AcDbDictionary
0
ENDSEC
0
EOF
