0
SECTION
2
HEADER
9
$INSUNITS
70
4
9
$ACADVER
1
AC1014
9
$HANDSEED
5
FFFF
0
ENDSEC
0
SECTION
2
TABLES
0
TABLE
2
VPORT
5
8
100
AcDbSymbolTable
0
ENDTAB
0
TABLE
2
LTYPE
5
5
100
AcDbSymbolTable
0
LTYPE
5
14
100
AcDbSymbolTableRecord
100
AcDbLinetypeTableRecord
2
BYBLOCK
70
0
0
LTYPE
5
15
100
AcDbSymbolTableRecord
100
AcDbLinetypeTableRecord
2
BYLAYER
70
0
0
ENDTAB
0
TABLE
2
LAYER
5
2
100
AcDbSymbolTable
70
2
0
LAYER
5
50
100
AcDbSymbolTableRecord
100
AcDbLayerTableRecord
2
0
70
0
6
CONTINUOUS
0
ENDTAB
0
TABLE
2
STYLE
5
3
100
AcDbSymbolTable
70
1
0
STYLE
5
11
100
AcDbSymbolTableRecord
100
AcDbTextStyleTableRecord
2
STANDARD
70
0
0
ENDTAB
0
TABLE
2
VIEW
5
6
100
AcDbSymbolTable
70
0
0
ENDTAB
0
TABLE
2
UCS
5
7
100
AcDbSymbolTable
70
0
0
ENDTAB
0
TABLE
2
APPID
5
9
100
AcDbSymbolTable
70
2
0
APPID
5
12
100
AcDbSymbolTableRecord
100
AcDbRegAppTableRecord
2
ACAD
70
0
0
ENDTAB
0
TABLE
2
DIMSTYLE
5
A
100
AcDbSymbolTable
70
1
0
ENDTAB
0
TABLE
2
BLOCK_RECORD
5
1
100
AcDbSymbolTable
70
1
0
BLOCK_RECORD
5
1F
100
AcDbSymbolTableRecord
100
AcDbBlockTableRecord
2
*MODEL_SPACE
0
BLOCK_RECORD
5
1B
100
AcDbSymbolTableRecord
100
AcDbBlockTableRecord
2
*PAPER_SPACE
0
ENDTAB
0
ENDSEC
0
SECTION
2
BLOCKS
0
BLOCK
5
20
100
AcDbEntity
100
AcDbBlockBegin
2
*MODEL_SPACE
0
ENDBLK
5
21
100
AcDbEntity
100
AcDbBlockEnd
0
BLOCK
5
1C
100
AcDbEntity
100
AcDbBlockBegin
2
*PAPER_SPACE
0
ENDBLK
5
1D
100
AcDbEntity
100
AcDbBlockEnd
0
ENDSEC
0
SECTION
2
ENTITIES
0
SPLINE
5
100
100
AcDbEntity
8
0
100
AcDbSpline
70
0
71
3
72
8
73
4
74
0
42
0.000000001
43
0.0000000001
44
0.0000000001
40
60
40
60
40
60
40
60
40
61
40
61
40
61
40
61
10
45.904970610771656
20
-33.297487709039899
30
0
10
46.010046023071922
20
-33.782557153363086
30
0
10
45.70119321281922
20
-34.262458954458381
30
0
10
45.216640532818886
20
-34.367534366758647
30
0
0
LINE
5
101
100
AcDbEntity
8
0
100
AcDbLine
10
22.475565234684609
20
-39.31262442628622
30
0
11
45.216640532818886
21
-34.367534366758647
31
0
0
LINE
5
102
100
AcDbEntity
8
0
100
AcDbLine
10
24.473203851806886
20
87.508575086279421
30
0
11
24.473203851806886
21
82.785693685550427
31
0
0
LINE
5
103
100
AcDbEntity
8
0
100
AcDbLine
10
45.171854291510556
20
88.408778536575241
30
0
11
25.373062792554109
21
88.408778536575241
31
0
0
LINE
5
104
100
AcDbEntity
8
0
100
AcDbLine
10
24.473203851806886
20
82.785693685550427
30
0
11
-8.9078765977472329
21
82.785693685550427
31
0
0
SPLINE
5
105
100
AcDbEntity
8
0
100
AcDbSpline
70
0
71
3
72
8
73
4
74
0
42
0.000000001
43
0.0000000001
44
0.0000000001
40
16
40
16
40
16
40
16
40
17
40
17
40
17
40
17
10
-164.43636776980389
20
6.6366811177821461
30
0
10
-164.93263377445408
20
6.6366811177821461
30
0
10
-165.33622671055105
20
7.0404463086534719
30
0
10
-165.33622671055105
20
7.5368845680778662
30
0
0
SPLINE
5
106
100
AcDbEntity
8
0
100
AcDbSpline
70
0
71
3
72
8
73
4
74
0
42
0.000000001
43
0.0000000001
44
0.0000000001
40
36
40
36
40
36
40
36
40
37
40
37
40
37
40
37
10
24.473203851806886
20
87.508575086279421
30
0
10
24.473203851806886
20
88.005013345703915
30
0
10
24.876796787903857
20
88.408778536575241
30
0
10
25.373062792554109
20
88.408778536575241
30
0
0
SPLINE
5
107
100
AcDbEntity
8
0
100
AcDbSpline
70
0
71
3
72
8
73
4
74
0
42
0.000000001
43
0.0000000001
44
0.0000000001
40
10
40
10
40
10
40
10
40
11
40
11
40
11
40
11
10
-153.86853736880002
20
-21.071532850985264
30
0
10
-154.3648033734502
20
-21.071532850985264
30
0
10
-154.7685685643215
20
-20.667767660114009
30
0
10
-154.7685685643215
20
-20.171329400689544
30
0
0
SPLINE
5
108
100
AcDbEntity
8
0
100
AcDbSpline
70
0
71
3
72
8
73
4
74
0
42
0.000000001
43
0.0000000001
44
0.0000000001
40
38
40
38
40
38
40
38
40
39
40
39
40
39
40
39
10
45.171854291510556
20
88.408778536575241
30
0
10
45.668120296160808
20
88.408778536575241
30
0
10
46.072057741806418
20
88.005013345703915
30
0
10
46.072057741806418
20
87.508575086279421
30
0
0
SPLINE
5
109
100
AcDbEntity
8
0
100
AcDbSpline
70
0
71
3
72
8
73
4
74
0
42
0.000000001
43
0.0000000001
44
0.0000000001
40
13
40
13
40
13
40
13
40
14
40
14
40
14
40
14
10
-160.59077993439365
20
-16.268036215901418
30
0
10
-161.63843347145817
20
-16.268036215901418
30
0
10
-162.490750094509
20
-15.415719592850579
30
0
10
-162.490750094509
20
-14.368066055786173
30
0
0
LINE
5
110
100
AcDbEntity
8
0
100
AcDbLine
10
-29.442540492352975
20
-29.156482935769645
30
0
11
-30.339987866260572
21
-33.297487709039899
31
0
0
LINE
5
111
100
AcDbEntity
8
0
100
AcDbLine
10
178.05642185811578
20
-14.368066055786102
30
0
11
178.05642185811578
21
80.885723525435111
31
0
0
LINE
5
112
100
AcDbEntity
8
0
100
AcDbLine
10
80.002114156934994
20
86.689331379887022
30
0
11
80.002114156934994
21
82.785693685550427
31
0
0
SPLINE
5
113
100
AcDbEntity
8
0
100
AcDbSpline
70
0
71
3
72
8
73
4
74
0
42
0.000000001
43
0.0000000001
44
0.0000000001
40
42
40
42
40
42
40
42
40
43
40
43
40
43
40
43
10
80.002114156934994
20
86.689331379887022
30
0
10
80.002114156934994
20
87.18576963931153
30
0
10
80.405879347806248
20
87.589534830182814
30
0
10
80.9021453524565
20
87.589534830182814
30
0
0
LINE
5
114
100
AcDbEntity
8
0
100
AcDbLine
10
80.002114156934994
20
82.785693685550427
30
0
11
46.072057741806418
21
82.785693685550427
31
0
0
LINE
5
115
100
AcDbEntity
8
0
100
AcDbLine
10
157.52313600170419
20
82.785693685550427
30
0
11
157.52313600170419
21
86.689331379887022
31
0
0
SPLINE
5
116
100
AcDbEntity
8
0
100
AcDbSpline
70
0
71
3
72
8
73
4
74
0
42
0.000000001
43
0.0000000001
44
0.0000000001
40
30
40
30
40
30
40
30
40
31
40
31
40
31
40
31
10
-30.506385978198267
20
87.508575086279421
30
0
10
-30.506385978198267
20
88.005013345703915
30
0
10
-30.10262078732687
20
88.408778536575241
30
0
10
-29.606354782676689
20
88.408778536575241
30
0
0
LINE
5
117
100
AcDbEntity
8
0
100
AcDbLine
10
110.16289160165172
20
-16.268036215901418
30
0
11
110.16289160165172
21
-20.171329400689544
31
0
0
LINE
5
118
100
AcDbEntity
8
0
100
AcDbLine
10
170.33389581837986
20
-16.268036215901418
30
0
11
176.1562794432264
21
-16.268036215901347
31
0
0
LINE
5
119
100
AcDbEntity
8
0
100
AcDbLine
10
170.33389581837986
20
-20.171329400689544
30
0
11
170.33389581837986
21
-16.268036215901418
31
0
0
SPLINE
5
120
100
AcDbEntity
8
0
100
AcDbSpline
70
0
71
3
72
8
73
4
74
0
42
0.000000001
43
0.0000000001
44
0.0000000001
40
49
40
49
40
49
40
49
40
50
40
50
40
50
40
50
10
178.05642185811578
20
-14.368066055786102
30
0
10
178.05642185811578
20
-15.415719592850508
30
0
10
177.2039329802908
20
-16.268036215901347
30
0
10
176.1562794432264
20
-16.268036215901347
30
0
0
SPLINE
5
121
100
AcDbEntity
8
0
100
AcDbSpline
70
0
71
3
72
8
73
4
74
0
42
0.000000001
43
0.0000000001
44
0.0000000001
40
52
40
52
40
52
40
52
40
53
40
53
40
53
40
53
10
170.33389581837986
20
-20.171329400689544
30
0
10
170.33389581837986
20
-20.667767660114009
30
0
10
169.92995837273426
20
-21.071532850985264
30
0
10
169.433692368084
20
-21.071532850985264
30
0
0
LINE
5
122
100
AcDbEntity
8
0
100
AcDbLine
10
-162.490750094509
20
80.885723525435083
30
0
11
-162.490750094509
21
26.987204658701422
31
0
0
LINE
5
123
100
AcDbEntity
8
0
100
AcDbLine
10
-141.95780874764574
20
86.689331379887022
30
0
11
-141.95780874764574
21
82.785693685550427
31
0
0
LINE
5
124
100
AcDbEntity
8
0
100
AcDbLine
10
111.06292279717337
20
-21.071532850985264
30
0
11
169.433692368084
21
-21.071532850985264
31
0
0
LINE
5
125
100
AcDbEntity
8
0
100
AcDbLine
10
156.6231048061826
20
87.589534830182814
30
0
11
80.9021453524565
21
87.589534830182814
31
0
0
SPLINE
5
126
100
AcDbEntity
8
0
100
AcDbSpline
70
0
71
3
72
8
73
4
74
0
42
0.000000001
43
0.0000000001
44
0.0000000001
40
54
40
54
40
54
40
54
40
55
40
55
40
55
40
55
10
111.06292279717337
20
-21.071532850985264
30
0
10
110.56665679252305
20
-21.071532850985264
30
0
10
110.16289160165172
20
-20.667767660114009
30
0
10
110.16289160165172
20
-20.171329400689544
30
0
0
LINE
5
127
100
AcDbEntity
8
0
100
AcDbLine
10
-141.95780874764574
20
82.785693685550427
30
0
11
-160.59077993439365
21
82.785693685550399
31
0
0
LINE
5
128
100
AcDbEntity
8
0
100
AcDbLine
10
-65.337162607945345
20
87.589534830182814
30
0
11
-141.05777755212415
21
87.589534830182814
31
0
0
SPLINE
5
129
100
AcDbEntity
8
0
100
AcDbSpline
70
0
71
3
72
8
73
4
74
0
42
0.000000001
43
0.0000000001
44
0.0000000001
40
47
40
47
40
47
40
47
40
48
40
48
40
48
40
48
10
176.1562794432264
20
82.785693685550427
30
0
10
177.2039329802908
20
82.785693685550427
30
0
10
178.05642185811578
20
81.93337706249963
30
0
10
178.05642185811578
20
80.885723525435111
30
0
0
SPLINE
5
130
100
AcDbEntity
8
0
100
AcDbSpline
70
0
71
3
72
8
73
4
74
0
42
0.000000001
43
0.0000000001
44
0.0000000001
40
44
40
44
40
44
40
44
40
45
40
45
40
45
40
45
10
156.6231048061826
20
87.589534830182814
30
0
10
157.11937081083278
20
87.589534830182814
30
0
10
157.52313600170419
20
87.18576963931153
30
0
10
157.52313600170419
20
86.689331379887022
30
0
0
LINE
5
131
100
AcDbEntity
8
0
100
AcDbLine
10
176.1562794432264
20
82.785693685550427
30
0
11
157.52313600170419
21
82.785693685550427
31
0
0
LINE
5
132
100
AcDbEntity
8
0
100
AcDbLine
10
46.072057741806418
20
82.785693685550427
30
0
11
46.072057741806418
21
87.508575086279421
31
0
0
LINE
5
133
100
AcDbEntity
8
0
100
AcDbLine
10
45.904970610771656
20
-33.297487709039899
30
0
11
45.007523236864202
21
-29.156482935769645
31
0
0
SPLINE
5
134
100
AcDbEntity
8
0
100
AcDbSpline
70
0
71
3
72
8
73
4
74
0
42
0.000000001
43
0.0000000001
44
0.0000000001
40
26
40
26
40
26
40
26
40
27
40
27
40
27
40
27
10
-65.337162607945345
20
87.589534830182814
30
0
10
-64.840896603295093
20
87.589534830182814
30
0
10
-64.437131412423909
20
87.18576963931153
30
0
10
-64.437131412423909
20
86.689331379887022
30
0
0
LINE
5
135
100
AcDbEntity
8
0
100
AcDbLine
10
-30.506385978198267
20
87.508575086279421
30
0
11
-30.506385978198267
21
82.785693685550427
31
0
0
SPLINE
5
136
100
AcDbEntity
8
0
100
AcDbSpline
70
0
71
3
72
8
73
4
74
0
42
0.000000001
43
0.0000000001
44
0.0000000001
40
21
40
21
40
21
40
21
40
22
40
22
40
22
40
22
10
-162.490750094509
20
80.885723525435083
30
0
10
-162.490750094509
20
81.933377062499602
30
0
10
-161.63843347145817
20
82.785693685550399
30
0
10
-160.59077993439365
20
82.785693685550399
30
0
0
LINE
5
137
100
AcDbEntity
8
0
100
AcDbLine
10
-64.437131412423909
20
82.785693685550427
30
0
11
-64.437131412423909
21
86.689331379887022
31
0
0
SPLINE
5
138
100
AcDbEntity
8
0
100
AcDbSpline
70
0
71
3
72
8
73
4
74
0
42
0.000000001
43
0.0000000001
44
0.0000000001
40
24
40
24
40
24
40
24
40
25
40
25
40
25
40
25
10
-141.95780874764574
20
86.689331379887022
30
0
10
-141.95780874764574
20
87.18576963931153
30
0
10
-141.55404355677439
20
87.589534830182814
30
0
10
-141.05777755212415
20
87.589534830182814
30
0
0
LINE
5
139
100
AcDbEntity
8
0
100
AcDbLine
10
-30.506385978198267
20
82.785693685550427
30
0
11
-64.437131412423909
21
82.785693685550427
31
0
0
ELLIPSE
5
140
100
AcDbEntity
8
0
100
AcDbEllipse
10
-6.7180661697970123
20
-38.876783343247538
30
0
11
0.64232046450105496
21
0.0018821331852801305
31
0.0
40
0.71071653681188174
41
4.4061890042622114
42
4.7082614764294206
0
LINE
5
141
100
AcDbEntity
8
0
100
AcDbLine
10
-162.490750094509
20
26.987204658701422
30
0
11
-164.43636776980389
21
26.987204658701422
31
0
0
LINE
5
142
100
AcDbEntity
8
0
100
AcDbLine
10
-29.651657788307801
20
-34.367534366758647
30
0
11
-6.9104102353993824
21
-39.31262442628622
31
0
0
LINE
5
143
100
AcDbEntity
8
0
100
AcDbLine
10
-165.33622671055105
20
26.087001208405596
30
0
11
-165.33622671055105
21
7.5368845680778662
31
0
0
LINE
5
144
100
AcDbEntity
8
0
100
AcDbLine
10
-8.9078765977472329
20
82.785693685550427
30
0
11
-8.9078765977472329
21
87.508575086279421
31
0
0
LINE
5
145
100
AcDbEntity
8
0
100
AcDbLine
10
-9.808080048042882
20
88.408778536575241
30
0
11
-29.606354782676689
21
88.408778536575241
31
0
0
LINE
5
146
100
AcDbEntity
8
0
100
AcDbLine
10
-94.597736602366354
20
-20.171329400689544
30
0
11
-94.597736602366354
21
-16.268036215901418
31
0
0
SPLINE
5
147
100
AcDbEntity
8
0
100
AcDbSpline
70
0
71
3
72
8
73
4
74
0
42
0.000000001
43
0.0000000001
44
0.0000000001
40
32
40
32
40
32
40
32
40
33
40
33
40
33
40
33
10
-9.808080048042882
20
88.408778536575241
30
0
10
-9.31181404339263
20
88.408778536575241
30
0
10
-8.9078765977472329
20
88.005013345703915
30
0
10
-8.9078765977472329
20
87.508575086279421
30
0
0
LINE
5
148
100
AcDbEntity
8
0
100
AcDbLine
10
-6.7193796907422154
20
-39.333294999197577
30
0
11
22.284362435253442
21
-39.333294999197577
31
0
0
SPLINE
5
149
100
AcDbEntity
8
0
100
AcDbSpline
70
0
71
3
72
8
73
4
74
0
42
0.000000001
43
0.0000000001
44
0.0000000001
40
8
40
8
40
8
40
8
40
9
40
9
40
9
40
9
10
-94.597736602366354
20
-20.171329400689544
30
0
10
-94.597736602366354
20
-20.667767660114009
30
0
10
-95.001674048012035
20
-21.071532850985264
30
0
10
-95.497940052662216
20
-21.071532850985264
30
0
0
ELLIPSE
5
150
100
AcDbEntity
8
0
100
AcDbEllipse
10
22.283150055246708
20
-38.839616638933876
30
0
11
0.66794365023039204
21
-0.0019707331493105337
31
0.0
40
0.73909592008179636
41
4.7163847310896383
42
5.006780734865937
0
LINE
5
151
100
AcDbEntity
8
0
100
AcDbLine
10
-154.7685685643215
20
-16.268036215901418
30
0
11
-154.7685685643215
21
-20.171329400689544
31
0
0
LINE
5
152
100
AcDbEntity
8
0
100
AcDbLine
10
-162.490750094509
20
6.6366811177821461
30
0
11
-162.490750094509
21
-14.368066055786173
31
0
0
LINE
5
153
100
AcDbEntity
8
0
100
AcDbLine
10
-164.43636776980389
20
6.6366811177821461
30
0
11
-162.490750094509
21
6.6366811177821461
31
0
0
LINE
5
154
100
AcDbEntity
8
0
100
AcDbLine
10
-160.59077993439365
20
-16.268036215901418
30
0
11
-154.7685685643215
21
-16.268036215901418
31
0
0
SPLINE
5
155
100
AcDbEntity
8
0
100
AcDbSpline
70
0
71
3
72
8
73
4
74
0
42
0.000000001
43
0.0000000001
44
0.0000000001
40
2
40
2
40
2
40
2
40
3
40
3
40
3
40
3
10
-29.651657788307801
20
-34.367534366758647
30
0
10
-30.136210468308136
20
-34.262458954458381
30
0
10
-30.445063278560767
20
-33.782557153363086
30
0
10
-30.339987866260572
20
-33.297487709039899
30
0
0
SPLINE
5
156
100
AcDbEntity
8
0
100
AcDbSpline
70
0
71
3
72
8
73
4
74
0
42
0.000000001
43
0.0000000001
44
0.0000000001
40
18
40
18
40
18
40
18
40
19
40
19
40
19
40
19
10
-165.33622671055105
20
26.087001208405596
30
0
10
-165.33622671055105
20
26.583439467830061
30
0
10
-164.93263377445408
20
26.987204658701422
30
0
10
-164.43636776980389
20
26.987204658701422
30
0
0
LINE
5
157
100
AcDbEntity
8
0
100
AcDbLine
10
-153.86853736880002
20
-21.071532850985264
30
0
11
-95.497940052662216
21
-21.071532850985264
31
0
0
LINE
5
158
100
AcDbEntity
8
0
100
AcDbLine
10
-94.597736602366354
20
-16.268036215901418
30
0
11
-88.715105205985608
21
-16.268036215901418
31
0
0
LINE
5
159
100
AcDbEntity
8
0
100
AcDbLine
10
-29.442540492352975
20
-29.156482935769645
30
0
11
-88.715105205985608
21
-16.268036215901418
31
0
0
LINE
5
160
100
AcDbEntity
8
0
100
AcDbLine
10
110.16289160165172
20
-16.268036215901418
30
0
11
104.28026053742671
21
-16.268036215901343
31
0
0
LINE
5
161
100
AcDbEntity
8
0
100
AcDbLine
10
45.007523236864202
20
-29.156482935769645
30
0
11
104.28026053742671
21
-16.268036215901343
31
0
0
ENDSEC
0
SECTION
2
OBJECTS
0
DICTIONARY
5
C
100
AcDbDictionary
3
ACAD_GROUP
350
D
3
ACAD_MLINESTYLE
350
17
0
DICTIONARY
5
D
100
AcDbDictionary
0
DICTIONARY
5
1A
330
C
100
AcDbDictionary
0
DICTIONARY
5
17
100
AcDbDictionary
0
ENDSEC
0
EOF
