%TF.GenerationSoftware,KiCad,Pcbnew,(5.1.11)-1*%
%TF.CreationDate,2022-07-15T11:42:44+07:00*%
%TF.ProjectId,TX75v2 PCB replacement,54583735-7632-4205-9043-42207265706c,rev?*%
%TF.SameCoordinates,Original*%
%TF.FileFunction,Soldermask,Top*%
%TF.FilePolarity,Negative*%
%FSLAX46Y46*%
G04 Gerber Fmt 4.6, Leading zero omitted, Abs format (unit mm)*
G04 Created by KiCad (PCBNEW (5.1.11)-1) date 2022-07-15 11:42:44*
%MOMM*%
%LPD*%
G01*
G04 APERTURE LIST*
%ADD10C,0.010000*%
%ADD11C,2.500000*%
%ADD12C,3.987800*%
%ADD13C,1.750000*%
%ADD14C,2.300000*%
%ADD15O,1.700000X1.700000*%
%ADD16R,1.700000X1.700000*%
%ADD17C,3.048000*%
%ADD18C,2.350000*%
%ADD19R,0.600000X1.450000*%
%ADD20R,0.300000X1.450000*%
%ADD21C,0.650000*%
%ADD22O,1.000000X2.100000*%
%ADD23O,1.000000X1.600000*%
G04 APERTURE END LIST*
D10*
%TO.C,G\u002A\u002A\u002A*%
G36*
X71743249Y-146385936D02*
G01*
X71834399Y-146389434D01*
X72285519Y-146435108D01*
X72714603Y-146535837D01*
X73130402Y-146696114D01*
X73541666Y-146920433D01*
X73957144Y-147213288D01*
X74385588Y-147579172D01*
X74654851Y-147837955D01*
X75179902Y-148399833D01*
X75632666Y-148964522D01*
X76009728Y-149527244D01*
X76307674Y-150083218D01*
X76387372Y-150262777D01*
X76570725Y-150726618D01*
X76748679Y-151229276D01*
X76914481Y-151748367D01*
X77061377Y-152261504D01*
X77182615Y-152746303D01*
X77271442Y-153180379D01*
X77276637Y-153210430D01*
X77311360Y-153478883D01*
X77332300Y-153780230D01*
X77339466Y-154091469D01*
X77332871Y-154389600D01*
X77312524Y-154651621D01*
X77278437Y-154854532D01*
X77275855Y-154864709D01*
X77131876Y-155251264D01*
X76910174Y-155610412D01*
X76614257Y-155938609D01*
X76247634Y-156232315D01*
X75813816Y-156487986D01*
X75543784Y-156612828D01*
X75371140Y-156679042D01*
X75157864Y-156750845D01*
X74923367Y-156822809D01*
X74687057Y-156889505D01*
X74468343Y-156945505D01*
X74286634Y-156985379D01*
X74161339Y-157003700D01*
X74144146Y-157004302D01*
X74054414Y-157022091D01*
X74014784Y-157051043D01*
X73960920Y-157095959D01*
X73859323Y-157154015D01*
X73811202Y-157177113D01*
X73767349Y-157195090D01*
X73716829Y-157210117D01*
X73652150Y-157222445D01*
X73565818Y-157232325D01*
X73450338Y-157240006D01*
X73298217Y-157245741D01*
X73101959Y-157249778D01*
X72854072Y-157252370D01*
X72547061Y-157253766D01*
X72173431Y-157254217D01*
X71725690Y-157253974D01*
X71519842Y-157253733D01*
X71100474Y-157252480D01*
X70703845Y-157249917D01*
X70338600Y-157246196D01*
X70013386Y-157241469D01*
X69736847Y-157235888D01*
X69517629Y-157229606D01*
X69364379Y-157222775D01*
X69285742Y-157215546D01*
X69280591Y-157214341D01*
X69163224Y-157158299D01*
X69049630Y-157073803D01*
X69046973Y-157071280D01*
X68932583Y-156996159D01*
X68748149Y-156917976D01*
X68555723Y-156856251D01*
X68163557Y-156733674D01*
X67768144Y-156590840D01*
X67386853Y-156435250D01*
X67037056Y-156274406D01*
X66736121Y-156115809D01*
X66508848Y-155972297D01*
X66287993Y-155769329D01*
X66092279Y-155499851D01*
X65933171Y-155180910D01*
X65880799Y-155038656D01*
X65836710Y-154899023D01*
X65805825Y-154776687D01*
X65785889Y-154651476D01*
X65774646Y-154503218D01*
X65769842Y-154311742D01*
X65769305Y-154090678D01*
X66130375Y-154090678D01*
X66138343Y-154387518D01*
X66160104Y-154640530D01*
X66182456Y-154772704D01*
X66288897Y-155103211D01*
X66447766Y-155391014D01*
X66650058Y-155621875D01*
X66784489Y-155724557D01*
X66954788Y-155823723D01*
X67172033Y-155935087D01*
X67421233Y-156052479D01*
X67687400Y-156169734D01*
X67955546Y-156280682D01*
X68210680Y-156379158D01*
X68437816Y-156458992D01*
X68621963Y-156514019D01*
X68748132Y-156538070D01*
X68762953Y-156538635D01*
X68777075Y-156533087D01*
X68789135Y-156512367D01*
X68799294Y-156470359D01*
X68807712Y-156400948D01*
X68814551Y-156298017D01*
X68819969Y-156155452D01*
X68824129Y-155967137D01*
X68827190Y-155726956D01*
X68829313Y-155428794D01*
X68830658Y-155066535D01*
X68831386Y-154634063D01*
X68831658Y-154125263D01*
X68831675Y-153920229D01*
X68831675Y-151301822D01*
X68926925Y-151162280D01*
X69031771Y-151045911D01*
X69158877Y-150950322D01*
X69169681Y-150944353D01*
X69206806Y-150926880D01*
X69251675Y-150912205D01*
X69311537Y-150900086D01*
X69393636Y-150890280D01*
X69505219Y-150882544D01*
X69653532Y-150876636D01*
X69845822Y-150872313D01*
X70089333Y-150869333D01*
X70391313Y-150867452D01*
X70759007Y-150866429D01*
X71199662Y-150866020D01*
X71510285Y-150865968D01*
X71998069Y-150866076D01*
X72408513Y-150866576D01*
X72748940Y-150867732D01*
X73026677Y-150869810D01*
X73249047Y-150873073D01*
X73423378Y-150877787D01*
X73556993Y-150884215D01*
X73657218Y-150892623D01*
X73731378Y-150903275D01*
X73786798Y-150916435D01*
X73830804Y-150932368D01*
X73870459Y-150951205D01*
X74041164Y-151083974D01*
X74122772Y-151203518D01*
X74140189Y-151240024D01*
X74155057Y-151280409D01*
X74167579Y-151331280D01*
X74177955Y-151399242D01*
X74186386Y-151490902D01*
X74193075Y-151612864D01*
X74198223Y-151771735D01*
X74202030Y-151974121D01*
X74204698Y-152226627D01*
X74206428Y-152535860D01*
X74207422Y-152908424D01*
X74207881Y-153350927D01*
X74208006Y-153869973D01*
X74208009Y-154000669D01*
X74208009Y-156630744D01*
X74387925Y-156600947D01*
X74504131Y-156575133D01*
X74674343Y-156529223D01*
X74872456Y-156470521D01*
X75011308Y-156426529D01*
X75511471Y-156233615D01*
X75942519Y-156004489D01*
X76302267Y-155741138D01*
X76588534Y-155445550D01*
X76799136Y-155119713D01*
X76931889Y-154765615D01*
X76955888Y-154655908D01*
X76991832Y-154309724D01*
X76985832Y-153901423D01*
X76940021Y-153441176D01*
X76856531Y-152939153D01*
X76737497Y-152405527D01*
X76585050Y-151850468D01*
X76401325Y-151284148D01*
X76188453Y-150716737D01*
X76070030Y-150431787D01*
X75830407Y-149943698D01*
X75533770Y-149453113D01*
X75190641Y-148971753D01*
X74811540Y-148511339D01*
X74406990Y-148083595D01*
X73987511Y-147700242D01*
X73563624Y-147373001D01*
X73145851Y-147113595D01*
X73044782Y-147061304D01*
X72727685Y-146917500D01*
X72442270Y-146821624D01*
X72156306Y-146766072D01*
X71837560Y-146743243D01*
X71689175Y-146741578D01*
X71423167Y-146748235D01*
X71198061Y-146771322D01*
X70989781Y-146817167D01*
X70774251Y-146892098D01*
X70527393Y-147002441D01*
X70337382Y-147096839D01*
X69639724Y-147497677D01*
X68997663Y-147959889D01*
X68414236Y-148479526D01*
X67892481Y-149052642D01*
X67435436Y-149675288D01*
X67046139Y-150343517D01*
X66727628Y-151053383D01*
X66482941Y-151800938D01*
X66377789Y-152241802D01*
X66331736Y-152459975D01*
X66283249Y-152683380D01*
X66240242Y-152875760D01*
X66225314Y-152940302D01*
X66183669Y-153174821D01*
X66153594Y-153460565D01*
X66135644Y-153773772D01*
X66130375Y-154090678D01*
X65769305Y-154090678D01*
X65769222Y-154056876D01*
X65769263Y-154040968D01*
X65778270Y-153632917D01*
X65802682Y-153301985D01*
X65838785Y-153067302D01*
X65875495Y-152894620D01*
X65923022Y-152670268D01*
X65974765Y-152425430D01*
X66016628Y-152226907D01*
X66227278Y-151413277D01*
X66506189Y-150649667D01*
X66853844Y-149935364D01*
X67270721Y-149269651D01*
X67757302Y-148651814D01*
X68314068Y-148081137D01*
X68941499Y-147556905D01*
X69352062Y-147264373D01*
X69856242Y-146949069D01*
X70326653Y-146702634D01*
X70759877Y-146526749D01*
X70989067Y-146458657D01*
X71174084Y-146416629D01*
X71341056Y-146392170D01*
X71520579Y-146382774D01*
X71743249Y-146385936D01*
G37*
X71743249Y-146385936D02*
X71834399Y-146389434D01*
X72285519Y-146435108D01*
X72714603Y-146535837D01*
X73130402Y-146696114D01*
X73541666Y-146920433D01*
X73957144Y-147213288D01*
X74385588Y-147579172D01*
X74654851Y-147837955D01*
X75179902Y-148399833D01*
X75632666Y-148964522D01*
X76009728Y-149527244D01*
X76307674Y-150083218D01*
X76387372Y-150262777D01*
X76570725Y-150726618D01*
X76748679Y-151229276D01*
X76914481Y-151748367D01*
X77061377Y-152261504D01*
X77182615Y-152746303D01*
X77271442Y-153180379D01*
X77276637Y-153210430D01*
X77311360Y-153478883D01*
X77332300Y-153780230D01*
X77339466Y-154091469D01*
X77332871Y-154389600D01*
X77312524Y-154651621D01*
X77278437Y-154854532D01*
X77275855Y-154864709D01*
X77131876Y-155251264D01*
X76910174Y-155610412D01*
X76614257Y-155938609D01*
X76247634Y-156232315D01*
X75813816Y-156487986D01*
X75543784Y-156612828D01*
X75371140Y-156679042D01*
X75157864Y-156750845D01*
X74923367Y-156822809D01*
X74687057Y-156889505D01*
X74468343Y-156945505D01*
X74286634Y-156985379D01*
X74161339Y-157003700D01*
X74144146Y-157004302D01*
X74054414Y-157022091D01*
X74014784Y-157051043D01*
X73960920Y-157095959D01*
X73859323Y-157154015D01*
X73811202Y-157177113D01*
X73767349Y-157195090D01*
X73716829Y-157210117D01*
X73652150Y-157222445D01*
X73565818Y-157232325D01*
X73450338Y-157240006D01*
X73298217Y-157245741D01*
X73101959Y-157249778D01*
X72854072Y-157252370D01*
X72547061Y-157253766D01*
X72173431Y-157254217D01*
X71725690Y-157253974D01*
X71519842Y-157253733D01*
X71100474Y-157252480D01*
X70703845Y-157249917D01*
X70338600Y-157246196D01*
X70013386Y-157241469D01*
X69736847Y-157235888D01*
X69517629Y-157229606D01*
X69364379Y-157222775D01*
X69285742Y-157215546D01*
X69280591Y-157214341D01*
X69163224Y-157158299D01*
X69049630Y-157073803D01*
X69046973Y-157071280D01*
X68932583Y-156996159D01*
X68748149Y-156917976D01*
X68555723Y-156856251D01*
X68163557Y-156733674D01*
X67768144Y-156590840D01*
X67386853Y-156435250D01*
X67037056Y-156274406D01*
X66736121Y-156115809D01*
X66508848Y-155972297D01*
X66287993Y-155769329D01*
X66092279Y-155499851D01*
X65933171Y-155180910D01*
X65880799Y-155038656D01*
X65836710Y-154899023D01*
X65805825Y-154776687D01*
X65785889Y-154651476D01*
X65774646Y-154503218D01*
X65769842Y-154311742D01*
X65769305Y-154090678D01*
X66130375Y-154090678D01*
X66138343Y-154387518D01*
X66160104Y-154640530D01*
X66182456Y-154772704D01*
X66288897Y-155103211D01*
X66447766Y-155391014D01*
X66650058Y-155621875D01*
X66784489Y-155724557D01*
X66954788Y-155823723D01*
X67172033Y-155935087D01*
X67421233Y-156052479D01*
X67687400Y-156169734D01*
X67955546Y-156280682D01*
X68210680Y-156379158D01*
X68437816Y-156458992D01*
X68621963Y-156514019D01*
X68748132Y-156538070D01*
X68762953Y-156538635D01*
X68777075Y-156533087D01*
X68789135Y-156512367D01*
X68799294Y-156470359D01*
X68807712Y-156400948D01*
X68814551Y-156298017D01*
X68819969Y-156155452D01*
X68824129Y-155967137D01*
X68827190Y-155726956D01*
X68829313Y-155428794D01*
X68830658Y-155066535D01*
X68831386Y-154634063D01*
X68831658Y-154125263D01*
X68831675Y-153920229D01*
X68831675Y-151301822D01*
X68926925Y-151162280D01*
X69031771Y-151045911D01*
X69158877Y-150950322D01*
X69169681Y-150944353D01*
X69206806Y-150926880D01*
X69251675Y-150912205D01*
X69311537Y-150900086D01*
X69393636Y-150890280D01*
X69505219Y-150882544D01*
X69653532Y-150876636D01*
X69845822Y-150872313D01*
X70089333Y-150869333D01*
X70391313Y-150867452D01*
X70759007Y-150866429D01*
X71199662Y-150866020D01*
X71510285Y-150865968D01*
X71998069Y-150866076D01*
X72408513Y-150866576D01*
X72748940Y-150867732D01*
X73026677Y-150869810D01*
X73249047Y-150873073D01*
X73423378Y-150877787D01*
X73556993Y-150884215D01*
X73657218Y-150892623D01*
X73731378Y-150903275D01*
X73786798Y-150916435D01*
X73830804Y-150932368D01*
X73870459Y-150951205D01*
X74041164Y-151083974D01*
X74122772Y-151203518D01*
X74140189Y-151240024D01*
X74155057Y-151280409D01*
X74167579Y-151331280D01*
X74177955Y-151399242D01*
X74186386Y-151490902D01*
X74193075Y-151612864D01*
X74198223Y-151771735D01*
X74202030Y-151974121D01*
X74204698Y-152226627D01*
X74206428Y-152535860D01*
X74207422Y-152908424D01*
X74207881Y-153350927D01*
X74208006Y-153869973D01*
X74208009Y-154000669D01*
X74208009Y-156630744D01*
X74387925Y-156600947D01*
X74504131Y-156575133D01*
X74674343Y-156529223D01*
X74872456Y-156470521D01*
X75011308Y-156426529D01*
X75511471Y-156233615D01*
X75942519Y-156004489D01*
X76302267Y-155741138D01*
X76588534Y-155445550D01*
X76799136Y-155119713D01*
X76931889Y-154765615D01*
X76955888Y-154655908D01*
X76991832Y-154309724D01*
X76985832Y-153901423D01*
X76940021Y-153441176D01*
X76856531Y-152939153D01*
X76737497Y-152405527D01*
X76585050Y-151850468D01*
X76401325Y-151284148D01*
X76188453Y-150716737D01*
X76070030Y-150431787D01*
X75830407Y-149943698D01*
X75533770Y-149453113D01*
X75190641Y-148971753D01*
X74811540Y-148511339D01*
X74406990Y-148083595D01*
X73987511Y-147700242D01*
X73563624Y-147373001D01*
X73145851Y-147113595D01*
X73044782Y-147061304D01*
X72727685Y-146917500D01*
X72442270Y-146821624D01*
X72156306Y-146766072D01*
X71837560Y-146743243D01*
X71689175Y-146741578D01*
X71423167Y-146748235D01*
X71198061Y-146771322D01*
X70989781Y-146817167D01*
X70774251Y-146892098D01*
X70527393Y-147002441D01*
X70337382Y-147096839D01*
X69639724Y-147497677D01*
X68997663Y-147959889D01*
X68414236Y-148479526D01*
X67892481Y-149052642D01*
X67435436Y-149675288D01*
X67046139Y-150343517D01*
X66727628Y-151053383D01*
X66482941Y-151800938D01*
X66377789Y-152241802D01*
X66331736Y-152459975D01*
X66283249Y-152683380D01*
X66240242Y-152875760D01*
X66225314Y-152940302D01*
X66183669Y-153174821D01*
X66153594Y-153460565D01*
X66135644Y-153773772D01*
X66130375Y-154090678D01*
X65769305Y-154090678D01*
X65769222Y-154056876D01*
X65769263Y-154040968D01*
X65778270Y-153632917D01*
X65802682Y-153301985D01*
X65838785Y-153067302D01*
X65875495Y-152894620D01*
X65923022Y-152670268D01*
X65974765Y-152425430D01*
X66016628Y-152226907D01*
X66227278Y-151413277D01*
X66506189Y-150649667D01*
X66853844Y-149935364D01*
X67270721Y-149269651D01*
X67757302Y-148651814D01*
X68314068Y-148081137D01*
X68941499Y-147556905D01*
X69352062Y-147264373D01*
X69856242Y-146949069D01*
X70326653Y-146702634D01*
X70759877Y-146526749D01*
X70989067Y-146458657D01*
X71174084Y-146416629D01*
X71341056Y-146392170D01*
X71520579Y-146382774D01*
X71743249Y-146385936D01*
G36*
X76139059Y-153468455D02*
G01*
X76211506Y-153549172D01*
X76239512Y-153700383D01*
X76240009Y-153730011D01*
X76217819Y-153922095D01*
X76157971Y-154101888D01*
X76070544Y-154257597D01*
X75965616Y-154377431D01*
X75853267Y-154449597D01*
X75743577Y-154462302D01*
X75655809Y-154413502D01*
X75607904Y-154315377D01*
X75638780Y-154206753D01*
X75693596Y-154143253D01*
X75792518Y-154032574D01*
X75854178Y-153901505D01*
X75891592Y-153720567D01*
X75896306Y-153684136D01*
X75917847Y-153553892D01*
X75949246Y-153486133D01*
X76002503Y-153458708D01*
X76020089Y-153455635D01*
X76139059Y-153468455D01*
G37*
X76139059Y-153468455D02*
X76211506Y-153549172D01*
X76239512Y-153700383D01*
X76240009Y-153730011D01*
X76217819Y-153922095D01*
X76157971Y-154101888D01*
X76070544Y-154257597D01*
X75965616Y-154377431D01*
X75853267Y-154449597D01*
X75743577Y-154462302D01*
X75655809Y-154413502D01*
X75607904Y-154315377D01*
X75638780Y-154206753D01*
X75693596Y-154143253D01*
X75792518Y-154032574D01*
X75854178Y-153901505D01*
X75891592Y-153720567D01*
X75896306Y-153684136D01*
X75917847Y-153553892D01*
X75949246Y-153486133D01*
X76002503Y-153458708D01*
X76020089Y-153455635D01*
X76139059Y-153468455D01*
G36*
X67942623Y-152187797D02*
G01*
X67980172Y-152279643D01*
X67959742Y-152401465D01*
X67899819Y-152508622D01*
X67836112Y-152631080D01*
X67791416Y-152781535D01*
X67785604Y-152817386D01*
X67762368Y-152950162D01*
X67733089Y-153056046D01*
X67723771Y-153077885D01*
X67651650Y-153141614D01*
X67553706Y-153148202D01*
X67463722Y-153100635D01*
X67429579Y-153051855D01*
X67407280Y-152922827D01*
X67425722Y-152750479D01*
X67478437Y-152561773D01*
X67558959Y-152383674D01*
X67608519Y-152305793D01*
X67696928Y-152197692D01*
X67770477Y-152149156D01*
X67849577Y-152143947D01*
X67942623Y-152187797D01*
G37*
X67942623Y-152187797D02*
X67980172Y-152279643D01*
X67959742Y-152401465D01*
X67899819Y-152508622D01*
X67836112Y-152631080D01*
X67791416Y-152781535D01*
X67785604Y-152817386D01*
X67762368Y-152950162D01*
X67733089Y-153056046D01*
X67723771Y-153077885D01*
X67651650Y-153141614D01*
X67553706Y-153148202D01*
X67463722Y-153100635D01*
X67429579Y-153051855D01*
X67407280Y-152922827D01*
X67425722Y-152750479D01*
X67478437Y-152561773D01*
X67558959Y-152383674D01*
X67608519Y-152305793D01*
X67696928Y-152197692D01*
X67770477Y-152149156D01*
X67849577Y-152143947D01*
X67942623Y-152187797D01*
G36*
X74789435Y-150313914D02*
G01*
X74922812Y-150395941D01*
X75053834Y-150516554D01*
X75169582Y-150663134D01*
X75257136Y-150823062D01*
X75303578Y-150983720D01*
X75307745Y-151039324D01*
X75279801Y-151144718D01*
X75211255Y-151238255D01*
X75127592Y-151287586D01*
X75110820Y-151289302D01*
X75051786Y-151260831D01*
X74997736Y-151211885D01*
X74942186Y-151108366D01*
X74927675Y-151027094D01*
X74890937Y-150893321D01*
X74793869Y-150757980D01*
X74656188Y-150647083D01*
X74627604Y-150631202D01*
X74532980Y-150547091D01*
X74503050Y-150441557D01*
X74542745Y-150340370D01*
X74567292Y-150316091D01*
X74666622Y-150283091D01*
X74789435Y-150313914D01*
G37*
X74789435Y-150313914D02*
X74922812Y-150395941D01*
X75053834Y-150516554D01*
X75169582Y-150663134D01*
X75257136Y-150823062D01*
X75303578Y-150983720D01*
X75307745Y-151039324D01*
X75279801Y-151144718D01*
X75211255Y-151238255D01*
X75127592Y-151287586D01*
X75110820Y-151289302D01*
X75051786Y-151260831D01*
X74997736Y-151211885D01*
X74942186Y-151108366D01*
X74927675Y-151027094D01*
X74890937Y-150893321D01*
X74793869Y-150757980D01*
X74656188Y-150647083D01*
X74627604Y-150631202D01*
X74532980Y-150547091D01*
X74503050Y-150441557D01*
X74542745Y-150340370D01*
X74567292Y-150316091D01*
X74666622Y-150283091D01*
X74789435Y-150313914D01*
G36*
X68773921Y-150005578D02*
G01*
X68805947Y-150061451D01*
X68810509Y-150139654D01*
X68800829Y-150235082D01*
X68756141Y-150290772D01*
X68652972Y-150335327D01*
X68648728Y-150336791D01*
X68499729Y-150409104D01*
X68398490Y-150517920D01*
X68323583Y-150686719D01*
X68320314Y-150696635D01*
X68258083Y-150828313D01*
X68177972Y-150920407D01*
X68106941Y-150950635D01*
X68055693Y-150923887D01*
X68005710Y-150880622D01*
X67959339Y-150776908D01*
X67970078Y-150625703D01*
X68035849Y-150440056D01*
X68093397Y-150330284D01*
X68212669Y-150185395D01*
X68373318Y-150069151D01*
X68547554Y-149997591D01*
X68692431Y-149984579D01*
X68773921Y-150005578D01*
G37*
X68773921Y-150005578D02*
X68805947Y-150061451D01*
X68810509Y-150139654D01*
X68800829Y-150235082D01*
X68756141Y-150290772D01*
X68652972Y-150335327D01*
X68648728Y-150336791D01*
X68499729Y-150409104D01*
X68398490Y-150517920D01*
X68323583Y-150686719D01*
X68320314Y-150696635D01*
X68258083Y-150828313D01*
X68177972Y-150920407D01*
X68106941Y-150950635D01*
X68055693Y-150923887D01*
X68005710Y-150880622D01*
X67959339Y-150776908D01*
X67970078Y-150625703D01*
X68035849Y-150440056D01*
X68093397Y-150330284D01*
X68212669Y-150185395D01*
X68373318Y-150069151D01*
X68547554Y-149997591D01*
X68692431Y-149984579D01*
X68773921Y-150005578D01*
G36*
X70505130Y-149928889D02*
G01*
X70585728Y-149988587D01*
X70609675Y-150073287D01*
X70576906Y-150195810D01*
X70481779Y-150262239D01*
X70397462Y-150273302D01*
X70281448Y-150309004D01*
X70165175Y-150400302D01*
X70040762Y-150501286D01*
X69935415Y-150522144D01*
X69856142Y-150476502D01*
X69807917Y-150375401D01*
X69836491Y-150252752D01*
X69939661Y-150117467D01*
X69946451Y-150110809D01*
X70087670Y-150004140D01*
X70239154Y-149937625D01*
X70383957Y-149912222D01*
X70505130Y-149928889D01*
G37*
X70505130Y-149928889D02*
X70585728Y-149988587D01*
X70609675Y-150073287D01*
X70576906Y-150195810D01*
X70481779Y-150262239D01*
X70397462Y-150273302D01*
X70281448Y-150309004D01*
X70165175Y-150400302D01*
X70040762Y-150501286D01*
X69935415Y-150522144D01*
X69856142Y-150476502D01*
X69807917Y-150375401D01*
X69836491Y-150252752D01*
X69939661Y-150117467D01*
X69946451Y-150110809D01*
X70087670Y-150004140D01*
X70239154Y-149937625D01*
X70383957Y-149912222D01*
X70505130Y-149928889D01*
G36*
X72618490Y-149164419D02*
G01*
X72809803Y-149286116D01*
X72901735Y-149376466D01*
X72987542Y-149466159D01*
X73063979Y-149512712D01*
X73164998Y-149530119D01*
X73280216Y-149532468D01*
X73471127Y-149550067D01*
X73609505Y-149612482D01*
X73717060Y-149734144D01*
X73789724Y-149871135D01*
X73847152Y-150008749D01*
X73863731Y-150097800D01*
X73840440Y-150163343D01*
X73802818Y-150206778D01*
X73701452Y-150268346D01*
X73598297Y-150247011D01*
X73588350Y-150240903D01*
X73542257Y-150184208D01*
X73487651Y-150082046D01*
X73474093Y-150051052D01*
X73394434Y-149930244D01*
X73290124Y-149890367D01*
X73161773Y-149931539D01*
X73095790Y-149976968D01*
X73010925Y-150035787D01*
X72953779Y-150061544D01*
X72952498Y-150061592D01*
X72914024Y-150027607D01*
X72851803Y-149939867D01*
X72799144Y-149851990D01*
X72657734Y-149641017D01*
X72516791Y-149514549D01*
X72374502Y-149472452D01*
X72229054Y-149514593D01*
X72078636Y-149640841D01*
X71961358Y-149790805D01*
X71874486Y-149904910D01*
X71804712Y-149959428D01*
X71730461Y-149970094D01*
X71717204Y-149968838D01*
X71621868Y-149926568D01*
X71588082Y-149834866D01*
X71616047Y-149702649D01*
X71705964Y-149538836D01*
X71707451Y-149536670D01*
X71871395Y-149334230D01*
X72043723Y-149199880D01*
X72222680Y-149124000D01*
X72416248Y-149107951D01*
X72618490Y-149164419D01*
G37*
X72618490Y-149164419D02*
X72809803Y-149286116D01*
X72901735Y-149376466D01*
X72987542Y-149466159D01*
X73063979Y-149512712D01*
X73164998Y-149530119D01*
X73280216Y-149532468D01*
X73471127Y-149550067D01*
X73609505Y-149612482D01*
X73717060Y-149734144D01*
X73789724Y-149871135D01*
X73847152Y-150008749D01*
X73863731Y-150097800D01*
X73840440Y-150163343D01*
X73802818Y-150206778D01*
X73701452Y-150268346D01*
X73598297Y-150247011D01*
X73588350Y-150240903D01*
X73542257Y-150184208D01*
X73487651Y-150082046D01*
X73474093Y-150051052D01*
X73394434Y-149930244D01*
X73290124Y-149890367D01*
X73161773Y-149931539D01*
X73095790Y-149976968D01*
X73010925Y-150035787D01*
X72953779Y-150061544D01*
X72952498Y-150061592D01*
X72914024Y-150027607D01*
X72851803Y-149939867D01*
X72799144Y-149851990D01*
X72657734Y-149641017D01*
X72516791Y-149514549D01*
X72374502Y-149472452D01*
X72229054Y-149514593D01*
X72078636Y-149640841D01*
X71961358Y-149790805D01*
X71874486Y-149904910D01*
X71804712Y-149959428D01*
X71730461Y-149970094D01*
X71717204Y-149968838D01*
X71621868Y-149926568D01*
X71588082Y-149834866D01*
X71616047Y-149702649D01*
X71705964Y-149538836D01*
X71707451Y-149536670D01*
X71871395Y-149334230D01*
X72043723Y-149199880D01*
X72222680Y-149124000D01*
X72416248Y-149107951D01*
X72618490Y-149164419D01*
G36*
X70157570Y-148523366D02*
G01*
X70250104Y-148561543D01*
X70286732Y-148624656D01*
X70292175Y-148708553D01*
X70292175Y-148855135D01*
X70059342Y-148877608D01*
X69844875Y-148913537D01*
X69693074Y-148977853D01*
X69595593Y-149064490D01*
X69514280Y-149116309D01*
X69414815Y-149127136D01*
X69334099Y-149096681D01*
X69312614Y-149066707D01*
X69304310Y-148934109D01*
X69376109Y-148800462D01*
X69523870Y-148673148D01*
X69538887Y-148663434D01*
X69780525Y-148542862D01*
X70001494Y-148502012D01*
X70157570Y-148523366D01*
G37*
X70157570Y-148523366D02*
X70250104Y-148561543D01*
X70286732Y-148624656D01*
X70292175Y-148708553D01*
X70292175Y-148855135D01*
X70059342Y-148877608D01*
X69844875Y-148913537D01*
X69693074Y-148977853D01*
X69595593Y-149064490D01*
X69514280Y-149116309D01*
X69414815Y-149127136D01*
X69334099Y-149096681D01*
X69312614Y-149066707D01*
X69304310Y-148934109D01*
X69376109Y-148800462D01*
X69523870Y-148673148D01*
X69538887Y-148663434D01*
X69780525Y-148542862D01*
X70001494Y-148502012D01*
X70157570Y-148523366D01*
G36*
X73537981Y-148232485D02*
G01*
X73671098Y-148283880D01*
X73783056Y-148389191D01*
X73863392Y-148526442D01*
X73901644Y-148673658D01*
X73887346Y-148808863D01*
X73845782Y-148878946D01*
X73752916Y-148950860D01*
X73667994Y-148941801D01*
X73604596Y-148886885D01*
X73545886Y-148785232D01*
X73523952Y-148706968D01*
X73504814Y-148640016D01*
X73455131Y-148608894D01*
X73349890Y-148599968D01*
X73327159Y-148599696D01*
X73175003Y-148575484D01*
X73085949Y-148511500D01*
X73067351Y-148416433D01*
X73101797Y-148333490D01*
X73172839Y-148283589D01*
X73296655Y-148246279D01*
X73441519Y-148228906D01*
X73537981Y-148232485D01*
G37*
X73537981Y-148232485D02*
X73671098Y-148283880D01*
X73783056Y-148389191D01*
X73863392Y-148526442D01*
X73901644Y-148673658D01*
X73887346Y-148808863D01*
X73845782Y-148878946D01*
X73752916Y-148950860D01*
X73667994Y-148941801D01*
X73604596Y-148886885D01*
X73545886Y-148785232D01*
X73523952Y-148706968D01*
X73504814Y-148640016D01*
X73455131Y-148608894D01*
X73349890Y-148599968D01*
X73327159Y-148599696D01*
X73175003Y-148575484D01*
X73085949Y-148511500D01*
X73067351Y-148416433D01*
X73101797Y-148333490D01*
X73172839Y-148283589D01*
X73296655Y-148246279D01*
X73441519Y-148228906D01*
X73537981Y-148232485D01*
G36*
X71761355Y-147356097D02*
G01*
X71916233Y-147425057D01*
X72052192Y-147528720D01*
X72160003Y-147652225D01*
X72230432Y-147780709D01*
X72254249Y-147899310D01*
X72222222Y-147993164D01*
X72178792Y-148028145D01*
X72094783Y-148065744D01*
X72038540Y-148053286D01*
X71974925Y-147991592D01*
X71892873Y-147901989D01*
X71801149Y-147801092D01*
X71671949Y-147709869D01*
X71524722Y-147701227D01*
X71360144Y-147775173D01*
X71329342Y-147796802D01*
X71186604Y-147881710D01*
X71077619Y-147896680D01*
X70999142Y-147851835D01*
X70954509Y-147760665D01*
X70978913Y-147660559D01*
X71058631Y-147560442D01*
X71179937Y-147469240D01*
X71329109Y-147395880D01*
X71492423Y-147349286D01*
X71656154Y-147338385D01*
X71761355Y-147356097D01*
G37*
X71761355Y-147356097D02*
X71916233Y-147425057D01*
X72052192Y-147528720D01*
X72160003Y-147652225D01*
X72230432Y-147780709D01*
X72254249Y-147899310D01*
X72222222Y-147993164D01*
X72178792Y-148028145D01*
X72094783Y-148065744D01*
X72038540Y-148053286D01*
X71974925Y-147991592D01*
X71892873Y-147901989D01*
X71801149Y-147801092D01*
X71671949Y-147709869D01*
X71524722Y-147701227D01*
X71360144Y-147775173D01*
X71329342Y-147796802D01*
X71186604Y-147881710D01*
X71077619Y-147896680D01*
X70999142Y-147851835D01*
X70954509Y-147760665D01*
X70978913Y-147660559D01*
X71058631Y-147560442D01*
X71179937Y-147469240D01*
X71329109Y-147395880D01*
X71492423Y-147349286D01*
X71656154Y-147338385D01*
X71761355Y-147356097D01*
%TD*%
D11*
%TO.C,MX107*%
X35854319Y-150289434D03*
D12*
X33314319Y-155369434D03*
D11*
X29504319Y-152829434D03*
D13*
X28234319Y-155369434D03*
X38394319Y-155369434D03*
%TD*%
D11*
%TO.C,MX106*%
X16804143Y-150289274D03*
D12*
X14264143Y-155369274D03*
D11*
X10454143Y-152829274D03*
D13*
X9184143Y-155369274D03*
X19344143Y-155369274D03*
%TD*%
D14*
%TO.C,MX105*%
X-2245937Y-150289274D03*
D12*
X-4785937Y-155369274D03*
D11*
X-8595937Y-152829274D03*
D13*
X-9865937Y-155369274D03*
X294063Y-155369274D03*
%TD*%
D11*
%TO.C,MX104*%
X-21296017Y-150289274D03*
D12*
X-23836017Y-155369274D03*
D11*
X-27646017Y-152829274D03*
D13*
X-28916017Y-155369274D03*
X-18756017Y-155369274D03*
%TD*%
D11*
%TO.C,MX99*%
X275169608Y-74088874D03*
D12*
X272629608Y-79168874D03*
D11*
X268819608Y-76628874D03*
D13*
X267549608Y-79168874D03*
X277709608Y-79168874D03*
%TD*%
D11*
%TO.C,MX100*%
X275169608Y-93138874D03*
D12*
X272629608Y-98218874D03*
D11*
X268819608Y-95678874D03*
D13*
X267549608Y-98218874D03*
X277709608Y-98218874D03*
%TD*%
D11*
%TO.C,MX89*%
X245403983Y-55038874D03*
D12*
X242863983Y-60118874D03*
D11*
X239053983Y-57578874D03*
D13*
X237783983Y-60118874D03*
X247943983Y-60118874D03*
%TD*%
D15*
%TO.C,J1*%
X280369507Y-63512255D03*
X280369507Y-66052255D03*
X280369507Y-68592255D03*
D16*
X280369507Y-71132255D03*
%TD*%
D12*
%TO.C,MX97*%
X232227733Y-95805874D03*
X232227733Y-119681874D03*
D17*
X247467733Y-95805874D03*
X247467733Y-119681874D03*
D13*
X240482733Y-112823874D03*
X240482733Y-102663874D03*
D11*
X243022733Y-103933874D03*
D12*
X240482733Y-107743874D03*
D11*
X245562733Y-110283874D03*
%TD*%
%TO.C,MX92*%
X221591483Y-112188874D03*
D12*
X219051483Y-117268874D03*
D11*
X215241483Y-114728874D03*
D13*
X213971483Y-117268874D03*
X224131483Y-117268874D03*
%TD*%
D11*
%TO.C,MX91*%
X226353983Y-74088874D03*
D12*
X223813983Y-79168874D03*
D11*
X220003983Y-76628874D03*
D13*
X218733983Y-79168874D03*
X228893983Y-79168874D03*
%TD*%
D11*
%TO.C,MX86*%
X245403983Y-74088874D03*
D12*
X242863983Y-79168874D03*
D11*
X239053983Y-76628874D03*
D13*
X237783983Y-79168874D03*
X247943983Y-79168874D03*
%TD*%
D11*
%TO.C,MX93*%
X233497733Y-112188874D03*
D12*
X230957733Y-117268874D03*
D11*
X227147733Y-114728874D03*
D13*
X225877733Y-117268874D03*
X236037733Y-117268874D03*
D17*
X219051483Y-124253874D03*
X242863983Y-124253874D03*
D12*
X219051483Y-109013874D03*
X242863983Y-109013874D03*
%TD*%
D14*
%TO.C,MX44*%
X93003983Y-150288874D03*
D12*
X90463983Y-155368874D03*
D11*
X86653983Y-152828874D03*
D13*
X85383983Y-155368874D03*
X95543983Y-155368874D03*
D17*
X33313983Y-162353874D03*
X147613983Y-162353874D03*
D12*
X33313983Y-147113874D03*
X147613983Y-147113874D03*
%TD*%
D11*
%TO.C,MX42*%
X100147733Y-150288874D03*
D12*
X97607733Y-155368874D03*
D11*
X93797733Y-152828874D03*
D13*
X92527733Y-155368874D03*
X102687733Y-155368874D03*
D17*
X47607833Y-162353874D03*
X147607633Y-162353874D03*
D12*
X47607833Y-147113874D03*
X147607633Y-147113874D03*
%TD*%
D11*
%TO.C,MX45*%
X112053983Y-150288874D03*
D12*
X109513983Y-155368874D03*
D11*
X105703983Y-152828874D03*
D13*
X104433983Y-155368874D03*
X114593983Y-155368874D03*
D17*
X52363983Y-162353874D03*
X166663983Y-162353874D03*
D12*
X52363983Y-147113874D03*
X166663983Y-147113874D03*
%TD*%
D11*
%TO.C,MX43*%
X102528983Y-150288874D03*
D12*
X99988983Y-155368874D03*
D11*
X96178983Y-152828874D03*
D13*
X94908983Y-155368874D03*
X105068983Y-155368874D03*
D17*
X42838983Y-162353874D03*
X157138983Y-162353874D03*
D12*
X42838983Y-147113874D03*
X157138983Y-147113874D03*
%TD*%
D11*
%TO.C,MX5*%
X-18914767Y-112188874D03*
D12*
X-21454767Y-117268874D03*
D11*
X-25264767Y-114728874D03*
D13*
X-26534767Y-117268874D03*
X-16374767Y-117268874D03*
%TD*%
%TO.C,MX95*%
X253301796Y-160726687D03*
X243141796Y-160726687D03*
D11*
X244411796Y-158186687D03*
D12*
X248221796Y-160726687D03*
D11*
X250761796Y-155646687D03*
%TD*%
D13*
%TO.C,MX88*%
X234251796Y-160726687D03*
X224091796Y-160726687D03*
D11*
X225361796Y-158186687D03*
D12*
X229171796Y-160726687D03*
D11*
X231711796Y-155646687D03*
%TD*%
D13*
%TO.C,MX80*%
X207462733Y-155368874D03*
X197302733Y-155368874D03*
D11*
X198572733Y-152828874D03*
D12*
X202382733Y-155368874D03*
D11*
X204922733Y-150288874D03*
%TD*%
%TO.C,MX81*%
X202541483Y-150288874D03*
D12*
X200001483Y-155368874D03*
D11*
X196191483Y-152828874D03*
D13*
X194921483Y-155368874D03*
X205081483Y-155368874D03*
%TD*%
D11*
%TO.C,MX73*%
X181110233Y-150288874D03*
D12*
X178570233Y-155368874D03*
D18*
X174760233Y-152828874D03*
D13*
X173490233Y-155368874D03*
X183650233Y-155368874D03*
%TD*%
%TO.C,MX67*%
X176507047Y-155368874D03*
X166347047Y-155368874D03*
D11*
X167617047Y-152828874D03*
D12*
X171427047Y-155368874D03*
D18*
X173967047Y-150288874D03*
%TD*%
D11*
%TO.C,MX82*%
X207303983Y-150288874D03*
D12*
X204763983Y-155368874D03*
D11*
X200953983Y-152828874D03*
D13*
X199683983Y-155368874D03*
X209843983Y-155368874D03*
%TD*%
D11*
%TO.C,MX74*%
X188253983Y-150288874D03*
D12*
X185713983Y-155368874D03*
D11*
X181903983Y-152828874D03*
D13*
X180633983Y-155368874D03*
X190793983Y-155368874D03*
%TD*%
D11*
%TO.C,MX66*%
X169203983Y-150288874D03*
D12*
X166663983Y-155368874D03*
D11*
X162853983Y-152828874D03*
D13*
X161583983Y-155368874D03*
X171743983Y-155368874D03*
%TD*%
D11*
%TO.C,MX26*%
X31091483Y-150288874D03*
D12*
X28551483Y-155368874D03*
D11*
X24741483Y-152828874D03*
D13*
X23471483Y-155368874D03*
X33631483Y-155368874D03*
%TD*%
D11*
%TO.C,MX25*%
X28710233Y-150288874D03*
D12*
X26170233Y-155368874D03*
D11*
X22360233Y-152828874D03*
D13*
X21090233Y-155368874D03*
X31250233Y-155368874D03*
%TD*%
D11*
%TO.C,MX24*%
X23947733Y-150288874D03*
D12*
X21407733Y-155368874D03*
D11*
X17597733Y-152828874D03*
D13*
X16327733Y-155368874D03*
X26487733Y-155368874D03*
%TD*%
%TO.C,MX18*%
X14581483Y-155368874D03*
X4421483Y-155368874D03*
D14*
X5691483Y-152828874D03*
D12*
X9501483Y-155368874D03*
D11*
X12041483Y-150288874D03*
%TD*%
D13*
%TO.C,MX17*%
X9818983Y-155368874D03*
X-341017Y-155368874D03*
D11*
X928983Y-152828874D03*
D12*
X4738983Y-155368874D03*
D11*
X7278983Y-150288874D03*
%TD*%
%TO.C,MX16*%
X2516483Y-150288874D03*
D12*
X-23517Y-155368874D03*
D11*
X-3833517Y-152828874D03*
D13*
X-5103517Y-155368874D03*
X5056483Y-155368874D03*
%TD*%
D11*
%TO.C,MX15*%
X4897733Y-150288874D03*
D12*
X2357733Y-155368874D03*
D11*
X-1452267Y-152828874D03*
D13*
X-2722267Y-155368874D03*
X7437733Y-155368874D03*
%TD*%
%TO.C,MX9*%
X-13993517Y-155368874D03*
X-24153517Y-155368874D03*
D11*
X-22883517Y-152828874D03*
D12*
X-19073517Y-155368874D03*
D11*
X-16533517Y-150288874D03*
%TD*%
%TO.C,MX8*%
X-18914767Y-150288874D03*
D12*
X-21454767Y-155368874D03*
D11*
X-25264767Y-152828874D03*
D13*
X-26534767Y-155368874D03*
X-16374767Y-155368874D03*
%TD*%
D11*
%TO.C,MX7*%
X-18914767Y-131238874D03*
D12*
X-21454767Y-136318874D03*
D11*
X-25264767Y-133778874D03*
D13*
X-26534767Y-136318874D03*
X-16374767Y-136318874D03*
%TD*%
D11*
%TO.C,MX14*%
X2516483Y-131238874D03*
D12*
X-23517Y-136318874D03*
D11*
X-3833517Y-133778874D03*
D13*
X-5103517Y-136318874D03*
X5056483Y-136318874D03*
%TD*%
D11*
%TO.C,MX87*%
X219210233Y-131238874D03*
D12*
X216670233Y-136318874D03*
D11*
X212860233Y-133778874D03*
D13*
X211590233Y-136318874D03*
X221750233Y-136318874D03*
%TD*%
D11*
%TO.C,MX94*%
X250761796Y-136596687D03*
D12*
X248221796Y-141676687D03*
D11*
X244411796Y-139136687D03*
D13*
X243141796Y-141676687D03*
X253301796Y-141676687D03*
%TD*%
D11*
%TO.C,MX79*%
X193016483Y-131238874D03*
D12*
X190476483Y-136318874D03*
D11*
X186666483Y-133778874D03*
D13*
X185396483Y-136318874D03*
X195556483Y-136318874D03*
%TD*%
D11*
%TO.C,MX72*%
X173966483Y-131238874D03*
D12*
X171426483Y-136318874D03*
D11*
X167616483Y-133778874D03*
D13*
X166346483Y-136318874D03*
X176506483Y-136318874D03*
%TD*%
D11*
%TO.C,MX65*%
X154916483Y-131238874D03*
D12*
X152376483Y-136318874D03*
D11*
X148566483Y-133778874D03*
D13*
X147296483Y-136318874D03*
X157456483Y-136318874D03*
%TD*%
D11*
%TO.C,MX60*%
X135866483Y-131238874D03*
D12*
X133326483Y-136318874D03*
D11*
X129516483Y-133778874D03*
D13*
X128246483Y-136318874D03*
X138406483Y-136318874D03*
%TD*%
D11*
%TO.C,MX55*%
X116816483Y-131238874D03*
D12*
X114276483Y-136318874D03*
D11*
X110466483Y-133778874D03*
D13*
X109196483Y-136318874D03*
X119356483Y-136318874D03*
%TD*%
D11*
%TO.C,MX50*%
X97766483Y-131238874D03*
D12*
X95226483Y-136318874D03*
D11*
X91416483Y-133778874D03*
D13*
X90146483Y-136318874D03*
X100306483Y-136318874D03*
%TD*%
D11*
%TO.C,MX41*%
X78716483Y-131238874D03*
D12*
X76176483Y-136318874D03*
D11*
X72366483Y-133778874D03*
D13*
X71096483Y-136318874D03*
X81256483Y-136318874D03*
%TD*%
D11*
%TO.C,MX36*%
X59666483Y-131238874D03*
D12*
X57126483Y-136318874D03*
D11*
X53316483Y-133778874D03*
D13*
X52046483Y-136318874D03*
X62206483Y-136318874D03*
%TD*%
D11*
%TO.C,MX31*%
X40616483Y-131238874D03*
D12*
X38076483Y-136318874D03*
D11*
X34266483Y-133778874D03*
D13*
X32996483Y-136318874D03*
X43156483Y-136318874D03*
%TD*%
D11*
%TO.C,MX23*%
X21566483Y-131238874D03*
D12*
X19026483Y-136318874D03*
D11*
X15216483Y-133778874D03*
D13*
X13946483Y-136318874D03*
X24106483Y-136318874D03*
%TD*%
D11*
%TO.C,MX6*%
X-9389767Y-131238874D03*
D12*
X-11929767Y-136318874D03*
D11*
X-15739767Y-133778874D03*
D13*
X-17009767Y-136318874D03*
X-6849767Y-136318874D03*
D17*
X-23836017Y-129333874D03*
X-23517Y-129333874D03*
D12*
X-23836017Y-144573874D03*
X-23517Y-144573874D03*
%TD*%
D11*
%TO.C,MX78*%
X202541483Y-112188874D03*
D12*
X200001483Y-117268874D03*
D11*
X196191483Y-114728874D03*
D13*
X194921483Y-117268874D03*
X205081483Y-117268874D03*
%TD*%
D11*
%TO.C,MX71*%
X183491483Y-112188874D03*
D12*
X180951483Y-117268874D03*
D11*
X177141483Y-114728874D03*
D13*
X175871483Y-117268874D03*
X186031483Y-117268874D03*
%TD*%
D11*
%TO.C,MX64*%
X164441483Y-112188874D03*
D12*
X161901483Y-117268874D03*
D11*
X158091483Y-114728874D03*
D13*
X156821483Y-117268874D03*
X166981483Y-117268874D03*
%TD*%
D11*
%TO.C,MX59*%
X145391483Y-112188874D03*
D12*
X142851483Y-117268874D03*
D11*
X139041483Y-114728874D03*
D13*
X137771483Y-117268874D03*
X147931483Y-117268874D03*
%TD*%
D11*
%TO.C,MX54*%
X126341483Y-112188874D03*
D12*
X123801483Y-117268874D03*
D11*
X119991483Y-114728874D03*
D13*
X118721483Y-117268874D03*
X128881483Y-117268874D03*
%TD*%
D11*
%TO.C,MX49*%
X107291483Y-112188874D03*
D12*
X104751483Y-117268874D03*
D11*
X100941483Y-114728874D03*
D13*
X99671483Y-117268874D03*
X109831483Y-117268874D03*
%TD*%
D11*
%TO.C,MX40*%
X88241483Y-112188874D03*
D12*
X85701483Y-117268874D03*
D11*
X81891483Y-114728874D03*
D13*
X80621483Y-117268874D03*
X90781483Y-117268874D03*
%TD*%
D11*
%TO.C,MX35*%
X69191483Y-112188874D03*
D12*
X66651483Y-117268874D03*
D11*
X62841483Y-114728874D03*
D13*
X61571483Y-117268874D03*
X71731483Y-117268874D03*
%TD*%
D11*
%TO.C,MX30*%
X50141483Y-112188874D03*
D12*
X47601483Y-117268874D03*
D11*
X43791483Y-114728874D03*
D13*
X42521483Y-117268874D03*
X52681483Y-117268874D03*
%TD*%
D11*
%TO.C,MX22*%
X31091483Y-112188874D03*
D12*
X28551483Y-117268874D03*
D11*
X24741483Y-114728874D03*
D13*
X23471483Y-117268874D03*
X33631483Y-117268874D03*
%TD*%
D11*
%TO.C,MX13*%
X12041483Y-112188874D03*
D12*
X9501483Y-117268874D03*
D11*
X5691483Y-114728874D03*
D13*
X4421483Y-117268874D03*
X14581483Y-117268874D03*
%TD*%
D11*
%TO.C,MX4*%
X-14152267Y-112188874D03*
D12*
X-16692267Y-117268874D03*
D11*
X-20502267Y-114728874D03*
D13*
X-21772267Y-117268874D03*
X-11612267Y-117268874D03*
%TD*%
D11*
%TO.C,MX85*%
X216828983Y-93138874D03*
D12*
X214288983Y-98218874D03*
D11*
X210478983Y-95678874D03*
D13*
X209208983Y-98218874D03*
X219368983Y-98218874D03*
%TD*%
D11*
%TO.C,MX77*%
X197778983Y-93138874D03*
D12*
X195238983Y-98218874D03*
D11*
X191428983Y-95678874D03*
D13*
X190158983Y-98218874D03*
X200318983Y-98218874D03*
%TD*%
D11*
%TO.C,MX70*%
X178728983Y-93138874D03*
D12*
X176188983Y-98218874D03*
D11*
X172378983Y-95678874D03*
D13*
X171108983Y-98218874D03*
X181268983Y-98218874D03*
%TD*%
D11*
%TO.C,MX63*%
X159678983Y-93138874D03*
D12*
X157138983Y-98218874D03*
D11*
X153328983Y-95678874D03*
D13*
X152058983Y-98218874D03*
X162218983Y-98218874D03*
%TD*%
D11*
%TO.C,MX58*%
X140628983Y-93138874D03*
D12*
X138088983Y-98218874D03*
D11*
X134278983Y-95678874D03*
D13*
X133008983Y-98218874D03*
X143168983Y-98218874D03*
%TD*%
D11*
%TO.C,MX53*%
X121578983Y-93138874D03*
D12*
X119038983Y-98218874D03*
D11*
X115228983Y-95678874D03*
D13*
X113958983Y-98218874D03*
X124118983Y-98218874D03*
%TD*%
D11*
%TO.C,MX48*%
X102528983Y-93138874D03*
D12*
X99988983Y-98218874D03*
D11*
X96178983Y-95678874D03*
D13*
X94908983Y-98218874D03*
X105068983Y-98218874D03*
%TD*%
D11*
%TO.C,MX39*%
X83478983Y-93138874D03*
D12*
X80938983Y-98218874D03*
D11*
X77128983Y-95678874D03*
D13*
X75858983Y-98218874D03*
X86018983Y-98218874D03*
%TD*%
D11*
%TO.C,MX96*%
X240641483Y-93138874D03*
D12*
X238101483Y-98218874D03*
D11*
X234291483Y-95678874D03*
D13*
X233021483Y-98218874D03*
X243181483Y-98218874D03*
%TD*%
D11*
%TO.C,MX34*%
X64428983Y-93138874D03*
D12*
X61888983Y-98218874D03*
D11*
X58078983Y-95678874D03*
D13*
X56808983Y-98218874D03*
X66968983Y-98218874D03*
%TD*%
D11*
%TO.C,MX29*%
X45378983Y-93138874D03*
D12*
X42838983Y-98218874D03*
D11*
X39028983Y-95678874D03*
D13*
X37758983Y-98218874D03*
X47918983Y-98218874D03*
%TD*%
D11*
%TO.C,MX21*%
X26328983Y-93138874D03*
D12*
X23788983Y-98218874D03*
D11*
X19978983Y-95678874D03*
D13*
X18708983Y-98218874D03*
X28868983Y-98218874D03*
%TD*%
D11*
%TO.C,MX12*%
X7278983Y-93138874D03*
D12*
X4738983Y-98218874D03*
D11*
X928983Y-95678874D03*
D13*
X-341017Y-98218874D03*
X9818983Y-98218874D03*
%TD*%
D11*
%TO.C,MX3*%
X-16533517Y-93138874D03*
D12*
X-19073517Y-98218874D03*
D11*
X-22883517Y-95678874D03*
D13*
X-24153517Y-98218874D03*
X-13993517Y-98218874D03*
%TD*%
D11*
%TO.C,MX90*%
X235878983Y-74088874D03*
D12*
X233338983Y-79168874D03*
D11*
X229528983Y-76628874D03*
D13*
X228258983Y-79168874D03*
X238418983Y-79168874D03*
D17*
X221432733Y-72183874D03*
X245245233Y-72183874D03*
D12*
X221432733Y-87423874D03*
X245245233Y-87423874D03*
%TD*%
D19*
%TO.C,USB1*%
X254521796Y-52145124D03*
X260971796Y-52145124D03*
X255296796Y-52145124D03*
X260196796Y-52145124D03*
D20*
X259496796Y-52145124D03*
X255996796Y-52145124D03*
X258996796Y-52145124D03*
X256496796Y-52145124D03*
X258496796Y-52145124D03*
X256996796Y-52145124D03*
X257496796Y-52145124D03*
X257996796Y-52145124D03*
D21*
X254856796Y-50700124D03*
X260636796Y-50700124D03*
D22*
X262066796Y-51230124D03*
X253426796Y-51230124D03*
D23*
X262066796Y-47050124D03*
X253426796Y-47050124D03*
%TD*%
D13*
%TO.C,MX103*%
X272351796Y-160726687D03*
X262191796Y-160726687D03*
D11*
X263461796Y-158186687D03*
D12*
X267271796Y-160726687D03*
D11*
X269811796Y-155646687D03*
%TD*%
D13*
%TO.C,MX102*%
X277709608Y-136318874D03*
X267549608Y-136318874D03*
D11*
X268819608Y-133778874D03*
D12*
X272629608Y-136318874D03*
D11*
X275169608Y-131238874D03*
%TD*%
%TO.C,MX101*%
X275169608Y-112188874D03*
D12*
X272629608Y-117268874D03*
D11*
X268819608Y-114728874D03*
D13*
X267549608Y-117268874D03*
X277709608Y-117268874D03*
%TD*%
D11*
%TO.C,MX84*%
X207303983Y-74088874D03*
D12*
X204763983Y-79168874D03*
D11*
X200953983Y-76628874D03*
D13*
X199683983Y-79168874D03*
X209843983Y-79168874D03*
%TD*%
D11*
%TO.C,MX76*%
X188253983Y-74088874D03*
D12*
X185713983Y-79168874D03*
D11*
X181903983Y-76628874D03*
D13*
X180633983Y-79168874D03*
X190793983Y-79168874D03*
%TD*%
D11*
%TO.C,MX69*%
X169203983Y-74088874D03*
D12*
X166663983Y-79168874D03*
D11*
X162853983Y-76628874D03*
D13*
X161583983Y-79168874D03*
X171743983Y-79168874D03*
%TD*%
D11*
%TO.C,MX62*%
X150153983Y-74088874D03*
D12*
X147613983Y-79168874D03*
D11*
X143803983Y-76628874D03*
D13*
X142533983Y-79168874D03*
X152693983Y-79168874D03*
%TD*%
D11*
%TO.C,MX57*%
X131103983Y-74088874D03*
D12*
X128563983Y-79168874D03*
D11*
X124753983Y-76628874D03*
D13*
X123483983Y-79168874D03*
X133643983Y-79168874D03*
%TD*%
D11*
%TO.C,MX52*%
X112053983Y-74088874D03*
D12*
X109513983Y-79168874D03*
D11*
X105703983Y-76628874D03*
D13*
X104433983Y-79168874D03*
X114593983Y-79168874D03*
%TD*%
D11*
%TO.C,MX47*%
X93003983Y-74088874D03*
D12*
X90463983Y-79168874D03*
D11*
X86653983Y-76628874D03*
D13*
X85383983Y-79168874D03*
X95543983Y-79168874D03*
%TD*%
D11*
%TO.C,MX38*%
X73953983Y-74088874D03*
D12*
X71413983Y-79168874D03*
D11*
X67603983Y-76628874D03*
D13*
X66333983Y-79168874D03*
X76493983Y-79168874D03*
%TD*%
D11*
%TO.C,MX33*%
X54903983Y-74088874D03*
D12*
X52363983Y-79168874D03*
D11*
X48553983Y-76628874D03*
D13*
X47283983Y-79168874D03*
X57443983Y-79168874D03*
%TD*%
D11*
%TO.C,MX28*%
X35853983Y-74088874D03*
D12*
X33313983Y-79168874D03*
D11*
X29503983Y-76628874D03*
D13*
X28233983Y-79168874D03*
X38393983Y-79168874D03*
%TD*%
D11*
%TO.C,MX20*%
X16803983Y-74088874D03*
D12*
X14263983Y-79168874D03*
D11*
X10453983Y-76628874D03*
D13*
X9183983Y-79168874D03*
X19343983Y-79168874D03*
%TD*%
D11*
%TO.C,MX11*%
X-2246017Y-74088874D03*
D12*
X-4786017Y-79168874D03*
D11*
X-8596017Y-76628874D03*
D13*
X-9866017Y-79168874D03*
X293983Y-79168874D03*
%TD*%
D11*
%TO.C,MX2*%
X-21296017Y-74088874D03*
D12*
X-23836017Y-79168874D03*
D11*
X-27646017Y-76628874D03*
D13*
X-28916017Y-79168874D03*
X-18756017Y-79168874D03*
%TD*%
%TO.C,MX98*%
X277709608Y-60118874D03*
X267549608Y-60118874D03*
D11*
X268819608Y-57578874D03*
D12*
X272629608Y-60118874D03*
D11*
X275169608Y-55038874D03*
%TD*%
%TO.C,MX83*%
X221591483Y-55038874D03*
D12*
X219051483Y-60118874D03*
D11*
X215241483Y-57578874D03*
D13*
X213971483Y-60118874D03*
X224131483Y-60118874D03*
%TD*%
D11*
%TO.C,MX75*%
X202541483Y-55038874D03*
D12*
X200001483Y-60118874D03*
D11*
X196191483Y-57578874D03*
D13*
X194921483Y-60118874D03*
X205081483Y-60118874D03*
%TD*%
D11*
%TO.C,MX68*%
X183491483Y-55038874D03*
D12*
X180951483Y-60118874D03*
D11*
X177141483Y-57578874D03*
D13*
X175871483Y-60118874D03*
X186031483Y-60118874D03*
%TD*%
D11*
%TO.C,MX61*%
X164441483Y-55038874D03*
D12*
X161901483Y-60118874D03*
D11*
X158091483Y-57578874D03*
D13*
X156821483Y-60118874D03*
X166981483Y-60118874D03*
%TD*%
D11*
%TO.C,MX56*%
X140628983Y-55038874D03*
D12*
X138088983Y-60118874D03*
D11*
X134278983Y-57578874D03*
D13*
X133008983Y-60118874D03*
X143168983Y-60118874D03*
%TD*%
D11*
%TO.C,MX51*%
X121578983Y-55038874D03*
D12*
X119038983Y-60118874D03*
D11*
X115228983Y-57578874D03*
D13*
X113958983Y-60118874D03*
X124118983Y-60118874D03*
%TD*%
D11*
%TO.C,MX46*%
X102528983Y-55038874D03*
D12*
X99988983Y-60118874D03*
D11*
X96178983Y-57578874D03*
D13*
X94908983Y-60118874D03*
X105068983Y-60118874D03*
%TD*%
D11*
%TO.C,MX37*%
X83478983Y-55038874D03*
D12*
X80938983Y-60118874D03*
D11*
X77128983Y-57578874D03*
D13*
X75858983Y-60118874D03*
X86018983Y-60118874D03*
%TD*%
D11*
%TO.C,MX32*%
X59666483Y-55038874D03*
D12*
X57126483Y-60118874D03*
D11*
X53316483Y-57578874D03*
D13*
X52046483Y-60118874D03*
X62206483Y-60118874D03*
%TD*%
D11*
%TO.C,MX27*%
X40616483Y-55038874D03*
D12*
X38076483Y-60118874D03*
D11*
X34266483Y-57578874D03*
D13*
X32996483Y-60118874D03*
X43156483Y-60118874D03*
%TD*%
D11*
%TO.C,MX19*%
X21566483Y-55038874D03*
D12*
X19026483Y-60118874D03*
D11*
X15216483Y-57578874D03*
D13*
X13946483Y-60118874D03*
X24106483Y-60118874D03*
%TD*%
D11*
%TO.C,MX10*%
X2516483Y-55038874D03*
D12*
X-23517Y-60118874D03*
D11*
X-3833517Y-57578874D03*
D13*
X-5103517Y-60118874D03*
X5056483Y-60118874D03*
%TD*%
D11*
%TO.C,MX1*%
X-21296017Y-55038874D03*
D12*
X-23836017Y-60118874D03*
D11*
X-27646017Y-57578874D03*
D13*
X-28916017Y-60118874D03*
X-18756017Y-60118874D03*
%TD*%
M02*
