%TF.GenerationSoftware,KiCad,Pcbnew,(5.1.11)-1*%
%TF.CreationDate,2022-09-25T18:14:13+07:00*%
%TF.ProjectId,Eclipse65,45636c69-7073-4653-9635-2e6b69636164,rev?*%
%TF.SameCoordinates,Original*%
%TF.FileFunction,Profile,NP*%
%FSLAX46Y46*%
G04 Gerber Fmt 4.6, Leading zero omitted, Abs format (unit mm)*
G04 Created by KiCad (PCBNEW (5.1.11)-1) date 2022-09-25 18:14:13*
%MOMM*%
%LPD*%
G01*
G04 APERTURE LIST*
%TA.AperFunction,Profile*%
%ADD10C,1.000000*%
%TD*%
G04 APERTURE END LIST*
D10*
X237205776Y-123300004D02*
X314910882Y-123300004D01*
X230205775Y-29099995D02*
G75*
G02*
X223327549Y-29099995I-3439113J649999D01*
G01*
X332849995Y-120300000D02*
G75*
G02*
X329849994Y-123299999I-3000000J1D01*
G01*
X314910882Y-29099995D02*
X230205776Y-29099995D01*
X321789110Y-29099997D02*
G75*
G02*
X314910882Y-29099995I-3439114J649997D01*
G01*
X329849995Y-29099995D02*
X321789110Y-29099995D01*
X230327548Y-123300004D02*
G75*
G02*
X237205776Y-123300004I3439114J-649999D01*
G01*
X314910882Y-123300002D02*
G75*
G02*
X321789110Y-123300004I3439114J-649997D01*
G01*
X329849996Y-29099995D02*
G75*
G02*
X332849995Y-32099996I-1J-3000000D01*
G01*
X332849995Y-120299999D02*
X332849995Y-32099996D01*
X321789110Y-123300004D02*
X329849994Y-123299999D01*
X32099996Y-123299996D02*
G75*
G02*
X29099996Y-120299996I0J3000000D01*
G01*
X29099996Y-32099995D02*
X29099996Y-120299996D01*
X40160882Y-29099995D02*
X32099996Y-29099995D01*
X47039109Y-29099997D02*
G75*
G02*
X40160882Y-29099995I-3439113J650000D01*
G01*
X138622442Y-29099995D02*
G75*
G02*
X131744216Y-29099995I-3439113J650000D01*
G01*
X223327549Y-29099995D02*
X138622442Y-29099995D01*
X29099995Y-32099994D02*
G75*
G02*
X32099996Y-29099995I3000000J-1D01*
G01*
X131744216Y-29099995D02*
X47039109Y-29099995D01*
X131622442Y-123300004D02*
X230327548Y-123300004D01*
X47039109Y-123300004D02*
X124744216Y-123300004D01*
X32099995Y-123299996D02*
X40160882Y-123300004D01*
X40160883Y-123300004D02*
G75*
G02*
X47039109Y-123300004I3439113J-649999D01*
G01*
X124744216Y-123300004D02*
G75*
G02*
X131622442Y-123300004I3439113J-650000D01*
G01*
M02*
