0
SECTION
2
HEADER
9
$INSUNITS
70
4
9
$ACADVER
1
AC1014
9
$HANDSEED
5
FFFF
0
ENDSEC
0
SECTION
2
TABLES
0
TABLE
2
VPORT
5
8
100
AcDbSymbolTable
0
ENDTAB
0
TABLE
2
LTYPE
5
5
100
AcDbSymbolTable
0
LTYPE
5
14
100
AcDbSymbolTableRecord
100
AcDbLinetypeTableRecord
2
BYBLOCK
70
0
0
LTYPE
5
15
100
AcDbSymbolTableRecord
100
AcDbLinetypeTableRecord
2
BYLAYER
70
0
0
ENDTAB
0
TABLE
2
LAYER
5
2
100
AcDbSymbolTable
70
2
0
LAYER
5
50
100
AcDbSymbolTableRecord
100
AcDbLayerTableRecord
2
0
70
0
6
CONTINUOUS
0
ENDTAB
0
TABLE
2
STYLE
5
3
100
AcDbSymbolTable
70
1
0
STYLE
5
11
100
AcDbSymbolTableRecord
100
AcDbTextStyleTableRecord
2
STANDARD
70
0
0
ENDTAB
0
TABLE
2
VIEW
5
6
100
AcDbSymbolTable
70
0
0
ENDTAB
0
TABLE
2
UCS
5
7
100
AcDbSymbolTable
70
0
0
ENDTAB
0
TABLE
2
APPID
5
9
100
AcDbSymbolTable
70
2
0
APPID
5
12
100
AcDbSymbolTableRecord
100
AcDbRegAppTableRecord
2
ACAD
70
0
0
ENDTAB
0
TABLE
2
DIMSTYLE
5
A
100
AcDbSymbolTable
70
1
0
ENDTAB
0
TABLE
2
BLOCK_RECORD
5
1
100
AcDbSymbolTable
70
1
0
BLOCK_RECORD
5
1F
100
AcDbSymbolTableRecord
100
AcDbBlockTableRecord
2
*MODEL_SPACE
0
BLOCK_RECORD
5
1B
100
AcDbSymbolTableRecord
100
AcDbBlockTableRecord
2
*PAPER_SPACE
0
ENDTAB
0
ENDSEC
0
SECTION
2
BLOCKS
0
BLOCK
5
20
100
AcDbEntity
100
AcDbBlockBegin
2
*MODEL_SPACE
0
ENDBLK
5
21
100
AcDbEntity
100
AcDbBlockEnd
0
BLOCK
5
1C
100
AcDbEntity
100
AcDbBlockBegin
2
*PAPER_SPACE
0
ENDBLK
5
1D
100
AcDbEntity
100
AcDbBlockEnd
0
ENDSEC
0
SECTION
2
ENTITIES
0
SPLINE
5
100
100
AcDbEntity
8
0
100
AcDbSpline
70
0
71
3
72
8
73
4
74
0
42
0.000000001
43
0.0000000001
44
0.0000000001
40
0
40
0
40
0
40
0
40
1
40
1
40
1
40
1
10
289.42387528077711
20
-155.57451914144991
30
0
10
289.43261101348179
20
-155.0161831321372
30
0
10
288.98240200230958
20
-154.55887504299761
30
0
10
288.42399765748303
20
-154.5588750429655
30
0
0
LINE
5
101
100
AcDbEntity
8
0
100
AcDbLine
10
288.42399765748303
20
-154.5588750429655
30
0
11
263.10649178675982
21
-154.55887504151144
31
0
0
LINE
5
102
100
AcDbEntity
8
0
100
AcDbLine
10
263.10649178675982
20
-154.55887504151144
30
0
11
263.10649178675851
21
-152.55863407533269
31
0
0
LINE
5
103
100
AcDbEntity
8
0
100
AcDbLine
10
263.10649178675851
20
-152.55863407533269
30
0
11
299.76116186062558
21
-152.55863407703831
31
0
0
SPLINE
5
104
100
AcDbEntity
8
0
100
AcDbSpline
70
0
71
3
72
8
73
4
74
0
42
0.000000001
43
0.0000000001
44
0.0000000001
40
117
40
117
40
117
40
117
40
118
40
118
40
118
40
118
10
299.76116186062558
20
-152.55863407703831
30
0
10
300.90891538684451
20
-152.55863407709089
30
0
10
301.83935345759835
20
-151.62819600637954
30
0
10
301.83935345759835
20
-150.4804424801618
30
0
0
LINE
5
105
100
AcDbEntity
8
0
100
AcDbLine
10
301.83935345759835
20
-150.4804424801618
30
0
11
301.83935345759835
21
-61.484737880315365
31
0
0
SPLINE
5
106
100
AcDbEntity
8
0
100
AcDbSpline
70
0
71
3
72
8
73
4
74
0
42
0.000000001
43
0.0000000001
44
0.0000000001
40
115
40
115
40
115
40
115
40
116
40
116
40
116
40
116
10
301.83935345759835
20
-61.484737880315365
30
0
10
301.83935345759835
20
-59.827889623954
30
0
10
300.49621256547277
20
-58.484748731843872
30
0
10
298.83936430911081
20
-58.484748731863768
30
0
0
LINE
5
107
100
AcDbEntity
8
0
100
AcDbLine
10
298.83936430911081
20
-58.484748731863768
30
0
11
264.18176533018169
21
-58.48474873228858
31
0
0
SPLINE
5
108
100
AcDbEntity
8
0
100
AcDbSpline
70
0
71
3
72
8
73
4
74
0
42
0.000000001
43
0.0000000001
44
0.0000000001
40
113
40
113
40
113
40
113
40
114
40
114
40
114
40
114
10
264.18176533018169
20
-58.48474873228858
30
0
10
263.62923980473738
20
-58.484748732294989
30
0
10
263.18132936737948
20
-58.036838294899823
30
0
10
263.18132936743086
20
-57.484249250721497
30
0
0
SPLINE
5
109
100
AcDbEntity
8
0
100
AcDbSpline
70
0
71
3
72
8
73
4
74
0
42
0.000000001
43
0.0000000001
44
0.0000000001
40
112
40
112
40
112
40
112
40
113
40
113
40
113
40
113
10
263.18132936743086
20
-57.484249250721497
30
0
10
263.18132936748208
20
-56.931723725481298
30
0
10
263.62923980470339
20
-56.483813288305591
30
0
10
264.18176532994562
20
-56.483813288311353
30
0
0
LINE
5
110
100
AcDbEntity
8
0
100
AcDbLine
10
264.18176532994562
20
-56.483813288311353
30
0
11
288.40756088892851
21
-56.483813288544283
31
0
0
SPLINE
5
111
100
AcDbEntity
8
0
100
AcDbSpline
70
0
71
3
72
8
73
4
74
0
42
0.000000001
43
0.0000000001
44
0.0000000001
40
110
40
110
40
110
40
110
40
111
40
111
40
111
40
111
10
288.40756088892851
20
-56.483813288544283
30
0
10
288.95984563860225
20
-56.483813288551367
30
0
10
289.40756088865578
20
-56.036098038528586
30
0
10
289.40756088868909
20
-55.483813288854201
30
0
0
LINE
5
112
100
AcDbEntity
8
0
100
AcDbLine
10
289.40756088868909
20
-55.483813288854194
30
0
11
289.40756088877379
21
-54.071357047936708
31
0
0
SPLINE
5
113
100
AcDbEntity
8
0
100
AcDbSpline
70
0
71
3
72
8
73
4
74
0
42
0.000000001
43
0.0000000001
44
0.0000000001
40
108
40
108
40
108
40
108
40
109
40
109
40
109
40
109
10
289.40756088877379
20
-54.071357047936708
30
0
10
289.40756088880664
20
-53.521357048065177
30
0
10
288.95756088893859
20
-53.071357048149714
30
0
10
288.40756088906699
20
-53.071357048126615
30
0
0
LINE
5
114
100
AcDbEntity
8
0
100
AcDbLine
10
288.40756088906699
20
-53.071357048126622
30
0
11
218.96112875016001
21
-53.071357046919132
31
0
0
SPLINE
5
115
100
AcDbEntity
8
0
100
AcDbSpline
70
0
71
3
72
8
73
4
74
0
42
0.000000001
43
0.0000000001
44
0.0000000001
40
102
40
102
40
102
40
102
40
103
40
103
40
103
40
103
10
218.96112875016001
20
-53.071357047839776
30
0
10
217.85657910150474
20
-53.071357047839776
30
0
10
216.9611646935866
20
-53.966771455758504
30
0
10
216.9611646935866
20
-55.071321104413791
30
0
0
LINE
5
116
100
AcDbEntity
8
0
100
AcDbLine
10
216.9611646935866
20
-55.071321104413791
30
0
11
216.9611646935866
21
-55.485271703871945
31
0
0
SPLINE
5
117
100
AcDbEntity
8
0
100
AcDbSpline
70
0
71
3
72
8
73
4
74
0
42
0.000000001
43
0.0000000001
44
0.0000000001
40
100
40
100
40
100
40
100
40
101
40
101
40
101
40
101
10
216.9611646935866
20
-55.485271703871945
30
0
10
216.9611646935866
20
-56.037578759747397
30
0
10
217.40891475659981
20
-56.485303248773249
30
0
10
217.96122181157429
20
-56.485271701937904
30
0
0
LINE
5
118
100
AcDbEntity
8
0
100
AcDbLine
10
217.96122181157429
20
-56.485271701937904
30
0
11
242.41764404160651
21
-56.483874792892657
31
0
0
SPLINE
5
119
100
AcDbEntity
8
0
100
AcDbSpline
70
0
71
3
72
8
73
4
74
0
42
0.000000001
43
0.0000000001
44
0.0000000001
40
98
40
98
40
98
40
98
40
99
40
99
40
99
40
99
10
242.41764404160651
20
-56.483874792892657
30
0
10
242.97018517900631
20
-56.483843232686873
30
0
10
243.41812501049961
20
-56.931757479093967
30
0
10
243.41812501081785
20
-57.484312774571187
30
0
0
SPLINE
5
120
100
AcDbEntity
8
0
100
AcDbSpline
70
0
71
3
72
8
73
4
74
0
42
0.000000001
43
0.0000000001
44
0.0000000001
40
97
40
97
40
97
40
97
40
98
40
98
40
98
40
98
10
243.41812501081785
20
-57.484312774571187
30
0
10
243.41812501113611
20
-58.036838303961247
30
0
10
242.97021457060239
20
-58.484748744667591
30
0
10
242.41768904121429
20
-58.484748744564278
30
0
0
LINE
5
121
100
AcDbEntity
8
0
100
AcDbLine
10
242.41768904121429
20
-58.484748744564278
30
0
11
160.41397845185489
21
-58.484748729183387
31
0
0
SPLINE
5
122
100
AcDbEntity
8
0
100
AcDbSpline
70
0
71
3
72
8
73
4
74
0
42
0.000000001
43
0.0000000001
44
0.0000000001
40
95
40
95
40
95
40
95
40
96
40
96
40
96
40
96
10
160.41397845185489
20
-58.484748729183387
30
0
10
159.86146341466701
20
-58.484748729080067
30
0
10
159.41356147975071
20
-58.03684679411824
30
0
10
159.4135614797039
20
-57.48431417094038
30
0
0
SPLINE
5
123
100
AcDbEntity
8
0
100
AcDbSpline
70
0
71
3
72
8
73
4
74
0
42
0.000000001
43
0.0000000001
44
0.0000000001
40
94
40
94
40
94
40
94
40
95
40
95
40
95
40
95
10
159.4135614797039
20
-57.48431417094038
30
0
10
159.41356147965701
20
-56.931798739558701
30
0
10
159.8614640317453
20
-56.483896642322087
30
0
10
160.41397946312642
20
-56.483897203457083
30
0
0
LINE
5
124
100
AcDbEntity
8
0
100
AcDbLine
10
160.41397946312645
20
-56.48389720345709
30
0
11
187.16748624944171
21
-56.483924374349037
31
0
0
SPLINE
5
125
100
AcDbEntity
8
0
100
AcDbSpline
70
0
71
3
72
8
73
4
74
0
42
0.000000001
43
0.0000000001
44
0.0000000001
40
92
40
92
40
92
40
92
40
93
40
93
40
93
40
93
10
187.16748624944171
20
-56.483924374349037
30
0
10
187.71977139575614
20
-56.483924935250478
30
0
10
188.16748726480282
20
-56.036209520903967
30
0
10
188.16748726480282
20
-55.483924374589009
30
0
0
LINE
5
126
100
AcDbEntity
8
0
100
AcDbLine
10
188.16748726480282
20
-55.483924374589002
30
0
11
188.16748726480282
21
-55.071321104413791
31
0
0
SPLINE
5
127
100
AcDbEntity
8
0
100
AcDbSpline
70
0
71
3
72
8
73
4
74
0
42
0.000000001
43
0.0000000001
44
0.0000000001
40
90
40
90
40
90
40
90
40
91
40
91
40
91
40
91
10
188.16748726480282
20
-55.071321104413791
30
0
10
188.16748726480282
20
-53.966771455758504
30
0
10
187.27207285688411
20
-53.071357047839776
30
0
10
186.1675232082294
20
-53.071357047839776
30
0
0
LINE
5
128
100
AcDbEntity
8
0
100
AcDbLine
10
186.16752320822937
20
-53.071357047839776
30
0
11
112.8611450527263
21
-53.071357047839776
31
0
0
SPLINE
5
129
100
AcDbEntity
8
0
100
AcDbSpline
70
0
71
3
72
8
73
4
74
0
42
0.000000001
43
0.0000000001
44
0.0000000001
40
84
40
84
40
84
40
84
40
85
40
85
40
85
40
85
10
112.8611450527263
20
-53.071357047839776
30
0
10
111.7565954040716
20
-53.071357047839776
30
0
10
110.86118099615349
20
-53.966771455758504
30
0
10
110.86118099615349
20
-55.071321104413791
30
0
0
LINE
5
130
100
AcDbEntity
8
0
100
AcDbLine
10
110.86118099615351
20
-55.071321104413791
30
0
11
110.86118099615349
21
-55.484453829968885
31
0
0
SPLINE
5
131
100
AcDbEntity
8
0
100
AcDbSpline
70
0
71
3
72
8
73
4
74
0
42
0.000000001
43
0.0000000001
44
0.0000000001
40
82
40
82
40
82
40
82
40
83
40
83
40
83
40
83
10
110.86118099615349
20
-55.484453829968885
30
0
10
110.86118099615349
20
-56.036746466440803
30
0
10
111.30890855490399
20
-56.484464983217997
30
0
10
111.86120119126301
20
-56.484453829414477
30
0
0
LINE
5
132
100
AcDbEntity
8
0
100
AcDbLine
10
111.86120119126301
20
-56.484453829414477
30
0
11
138.64992389699839
21
-56.483912818847074
31
0
0
SPLINE
5
133
100
AcDbEntity
8
0
100
AcDbSpline
70
0
71
3
72
8
73
4
74
0
42
0.000000001
43
0.0000000001
44
0.0000000001
40
80
40
80
40
80
40
80
40
81
40
81
40
81
40
81
10
138.64992389699839
20
-56.483912818847074
30
0
10
139.20244464002181
20
-56.483901660436153
30
0
10
139.65035711851971
20
-56.931805092313077
30
0
10
139.65035711964725
20
-57.484331749056068
30
0
0
SPLINE
5
134
100
AcDbEntity
8
0
100
AcDbSpline
70
0
71
3
72
8
73
4
74
0
42
0.000000001
43
0.0000000001
44
0.0000000001
40
79
40
79
40
79
40
79
40
80
40
80
40
80
40
80
10
139.65035711964725
20
-57.484331749056068
30
0
10
139.650357120774
20
-58.036846769937114
30
0
10
139.20245519948421
20
-58.484748692344084
30
0
10
138.6499401786032
20
-58.484748692593698
30
0
0
LINE
5
135
100
AcDbEntity
8
0
100
AcDbLine
10
138.6499401786032
20
-58.484748692593698
30
0
11
53.246833907874148
21
-58.484748731314475
31
0
0
SPLINE
5
136
100
AcDbEntity
8
0
100
AcDbSpline
70
0
71
3
72
8
73
4
74
0
42
0.000000001
43
0.0000000001
44
0.0000000001
40
77
40
77
40
77
40
77
40
78
40
78
40
78
40
78
10
53.246833907874141
20
-58.484748731314475
30
0
10
52.694318869273857
20
-58.484748731564089
30
0
10
52.246416933037629
20
-58.036846795531261
30
0
10
52.246416933039875
20
-57.4842283130168
30
0
0
SPLINE
5
137
100
AcDbEntity
8
0
100
AcDbSpline
70
0
71
3
72
8
73
4
74
0
42
0.000000001
43
0.0000000001
44
0.0000000001
40
76
40
76
40
76
40
76
40
77
40
77
40
77
40
77
10
52.246416933039875
20
-57.4842283130168
30
0
10
52.246416933042752
20
-56.931713274576303
30
0
10
52.694318869019128
20
-56.483811338606358
30
0
10
53.246833907459603
20
-56.483811338611496
30
0
0
LINE
5
138
100
AcDbEntity
8
0
100
AcDbLine
10
53.246833907459603
20
-56.483811338611496
30
0
11
78.667563925202387
21
-56.483811338854693
31
0
0
SPLINE
5
139
100
AcDbEntity
8
0
100
AcDbSpline
70
0
71
3
72
8
73
4
74
0
42
0.000000001
43
0.0000000001
44
0.0000000001
40
74
40
74
40
74
40
74
40
75
40
75
40
75
40
75
10
78.667563925202387
20
-56.483811338854693
30
0
10
79.21984867489698
20
-56.483811338860477
30
0
10
79.667563924958586
20
-56.036096088803049
30
0
10
79.667563924958586
20
-55.483811339108769
30
0
0
LINE
5
140
100
AcDbEntity
8
0
100
AcDbLine
10
79.667563924958586
20
-55.483811339108762
30
0
11
79.667563924958586
21
-55.071407231802205
31
0
0
SPLINE
5
141
100
AcDbEntity
8
0
100
AcDbSpline
70
0
71
3
72
8
73
4
74
0
42
0.000000001
43
0.0000000001
44
0.0000000001
40
72
40
72
40
72
40
72
40
73
40
73
40
73
40
73
10
79.667563924958586
20
-55.071407231802205
30
0
10
79.667563924958586
20
-53.966810016303405
30
0
10
78.772110956495268
20
-53.071357047839776
30
0
10
77.667513740996782
20
-53.071357047839776
30
0
0
LINE
5
142
100
AcDbEntity
8
0
100
AcDbLine
10
77.667513740996796
20
-53.071357047839768
30
0
11
6.3767748261219204
21
-53.071357047839776
31
0
0
SPLINE
5
143
100
AcDbEntity
8
0
100
AcDbSpline
70
0
71
3
72
8
73
4
74
0
42
0.000000001
43
0.0000000001
44
0.0000000001
40
66
40
66
40
66
40
66
40
67
40
67
40
67
40
67
10
6.3767748261219239
20
-53.071357047839776
30
0
10
5.6312121379555631
20
-53.07135704770117
30
0
10
5.0268141611322106
20
-53.675755024508476
30
0
10
5.0268141609287929
20
-54.421317712613877
30
0
0
LINE
5
144
100
AcDbEntity
8
0
100
AcDbLine
10
5.0268141609287937
20
-54.421317712613877
30
0
11
5.0268141606387449
21
-55.484400583726298
31
0
0
SPLINE
5
145
100
AcDbEntity
8
0
100
AcDbSpline
70
0
71
3
72
8
73
4
74
0
42
0.000000001
43
0.0000000001
44
0.0000000001
40
64
40
64
40
64
40
64
40
65
40
65
40
65
40
65
10
5.0268141606387449
20
-55.484400583726298
30
0
10
5.0268141604885876
20
-56.036691566979364
30
0
10
5.4745409981367903
20
-56.484408416356793
30
0
10
6.0268319812518953
20
-56.484396095094169
30
0
0
LINE
5
146
100
AcDbEntity
8
0
100
AcDbLine
10
6.0268319812518945
20
-56.484396095094169
30
0
11
31.482773282794348
21
-56.4838281891085
31
0
0
SPLINE
5
147
100
AcDbEntity
8
0
100
AcDbSpline
70
0
71
3
72
8
73
4
74
0
42
0.000000001
43
0.0000000001
44
0.0000000001
40
62
40
62
40
62
40
62
40
63
40
63
40
63
40
63
10
31.482773282794348
20
-56.4838281891085
30
0
10
32.035297037153114
20
-56.483815862652619
30
0
10
32.483212575973511
20
-56.93172140887269
30
0
10
32.483212575970313
20
-57.48433175692908
30
0
0
SPLINE
5
148
100
AcDbEntity
8
0
100
AcDbSpline
70
0
71
3
72
8
73
4
74
0
42
0.000000001
43
0.0000000001
44
0.0000000001
40
61
40
61
40
61
40
61
40
62
40
62
40
62
40
62
10
32.483212575970313
20
-57.48433175692908
30
0
10
32.483212575967727
20
-58.036846795558219
30
0
10
32.035310639841221
20
-58.484748731680895
30
0
10
31.482795601213365
20
-58.484748731679588
30
0
0
LINE
5
149
100
AcDbEntity
8
0
100
AcDbLine
10
31.482795601213365
20
-58.484748731679588
30
0
11
-0.91063568738984468
21
-58.48474873163596
31
0
0
SPLINE
5
150
100
AcDbEntity
8
0
100
AcDbSpline
70
0
71
3
72
8
73
4
74
0
42
0.000000001
43
0.0000000001
44
0.0000000001
40
59
40
59
40
59
40
59
40
60
40
60
40
60
40
60
10
-0.91063568738984257
20
-58.48474873163596
30
0
10
-2.567483943793567
20
-58.484748731633402
30
0
10
-3.910624835943477
20
-59.82788962378266
30
0
10
-3.910624835943477
20
-61.484737880185747
30
0
0
LINE
5
151
100
AcDbEntity
8
0
100
AcDbLine
10
-3.9106248359434774
20
-61.48473788018574
30
0
11
-3.910624835943477
21
-150.55867002046239
31
0
0
SPLINE
5
152
100
AcDbEntity
8
0
100
AcDbSpline
70
0
71
3
72
8
73
4
74
0
42
0.000000001
43
0.0000000001
44
0.0000000001
40
57
40
57
40
57
40
57
40
58
40
58
40
58
40
58
10
-3.910624835943477
20
-150.55867002046239
30
0
10
-3.910624835943477
20
-151.6632196691196
30
0
10
-3.015210428024738
20
-152.55863407703831
30
0
10
-1.9106607793675312
20
-152.55863407703831
30
0
0
LINE
5
153
100
AcDbEntity
8
0
100
AcDbLine
10
-1.910660779367531
20
-152.55863407703831
30
0
11
31.480513293271066
21
-152.5586340770422
31
0
0
SPLINE
5
154
100
AcDbEntity
8
0
100
AcDbSpline
70
0
71
3
72
8
73
4
74
0
42
0.000000001
43
0.0000000001
44
0.0000000001
40
54
40
54
40
54
40
54
40
55
40
55
40
55
40
55
10
31.480513293271066
20
-152.5586340770422
30
0
10
32.024621176676213
20
-152.5586340770422
30
0
10
32.465707766904075
20
-152.99972066727071
30
0
10
32.465707766904075
20
-153.54382855067519
30
0
0
LINE
5
155
100
AcDbEntity
8
0
100
AcDbLine
10
32.465707766904082
20
-153.54382855067522
30
0
11
32.465707766904075
21
-153.57367181389591
31
0
0
SPLINE
5
156
100
AcDbEntity
8
0
100
AcDbSpline
70
0
71
3
72
8
73
4
74
0
42
0.000000001
43
0.0000000001
44
0.0000000001
40
52
40
52
40
52
40
52
40
53
40
53
40
53
40
53
10
32.465707766904075
20
-153.57367181389591
30
0
10
32.465707766904075
20
-154.11777956898882
30
0
10
32.024621376929957
20
-154.5588661060705
30
0
10
31.480513621837009
20
-154.5588662875353
30
0
0
LINE
5
157
100
AcDbEntity
8
0
100
AcDbLine
10
31.480513621837009
20
-154.5588662875353
30
0
11
6.0268138268686533
21
-154.55887477660781
31
0
0
SPLINE
5
158
100
AcDbEntity
8
0
100
AcDbSpline
70
0
71
3
72
8
73
4
74
0
42
0.000000001
43
0.0000000001
44
0.0000000001
40
50
40
50
40
50
40
50
40
51
40
51
40
51
40
51
10
6.0268138268686506
20
-154.55887477660781
30
0
10
5.4745292074200327
20
-154.55887496080109
30
0
10
5.0268141606297618
20
-155.00659015690829
30
0
10
5.0268141606297618
20
-155.5588747763569
30
0
0
LINE
5
159
100
AcDbEntity
8
0
100
AcDbLine
10
5.0268141606297618
20
-155.55887477635693
30
0
11
5.0268141606297618
21
-156.6924222888581
31
0
0
SPLINE
5
160
100
AcDbEntity
8
0
100
AcDbSpline
70
0
71
3
72
8
73
4
74
0
42
0.000000001
43
0.0000000001
44
0.0000000001
40
48
40
48
40
48
40
48
40
49
40
49
40
49
40
49
10
5.0268141606297618
20
-156.6924222888581
30
0
10
5.0268141606297618
20
-157.398742332479
30
0
10
5.5993996885220101
20
-157.97132786037119
30
0
10
6.3057197321429159
20
-157.97132786037119
30
0
0
LINE
5
161
100
AcDbEntity
8
0
100
AcDbLine
10
6.3057197321429159
20
-157.97132786037119
30
0
11
77.66759986838872
21
-157.97132786037119
31
0
0
SPLINE
5
162
100
AcDbEntity
8
0
100
AcDbSpline
70
0
71
3
72
8
73
4
74
0
42
0.000000001
43
0.0000000001
44
0.0000000001
40
42
40
42
40
42
40
42
40
43
40
43
40
43
40
43
10
77.66759986838872
20
-157.97132786037119
30
0
10
78.772149517042095
20
-157.97132786037119
30
0
10
79.667563924958586
20
-157.07591345245501
30
0
10
79.667563924958586
20
-155.97136380380169
30
0
0
LINE
5
163
100
AcDbEntity
8
0
100
AcDbLine
10
79.667563924958586
20
-155.97136380380169
30
0
11
79.667563924958586
21
-155.52361066359779
31
0
0
SPLINE
5
164
100
AcDbEntity
8
0
100
AcDbSpline
70
0
71
3
72
8
73
4
74
0
42
0.000000001
43
0.0000000001
44
0.0000000001
40
40
40
40
40
40
40
40
40
41
40
41
40
41
40
41
10
79.667563924958586
20
-155.52361066359779
30
0
10
79.667563924958586
20
-154.97091252445071
30
0
10
79.219203321095335
20
-154.52302622966701
30
0
10
78.666505491535929
20
-154.52361122398901
30
0
0
LINE
5
165
100
AcDbEntity
8
0
100
AcDbLine
10
78.666505491535929
20
-154.52361122398901
30
0
11
53.215156366636201
21
-154.55733613266131
31
0
0
SPLINE
5
166
100
AcDbEntity
8
0
100
AcDbSpline
70
0
71
3
72
8
73
4
74
0
42
0.000000001
43
0.0000000001
44
0.0000000001
40
38
40
38
40
38
40
38
40
39
40
39
40
39
40
39
10
53.215156366636201
20
-154.55733613266131
30
0
10
52.670736730547944
20
-154.5579123650578
30
0
10
52.229053860501892
20
-154.11680589201561
30
0
10
52.228919160150014
20
-153.57238596763759
30
0
0
LINE
5
167
100
AcDbEntity
8
0
100
AcDbLine
10
52.228919160150014
20
-153.57238596763759
30
0
11
52.228912154783849
21
-153.54407230744769
31
0
0
SPLINE
5
168
100
AcDbEntity
8
0
100
AcDbSpline
70
0
71
3
72
8
73
4
74
0
42
0.000000001
43
0.0000000001
44
0.0000000001
40
36
40
36
40
36
40
36
40
37
40
37
40
37
40
37
10
52.228912154783849
20
-153.54407230744769
30
0
10
52.228777508061988
20
-152.99986924532419
30
0
10
52.669903519446194
20
-152.55863407704089
30
0
10
53.214106598227495
20
-152.5586340770422
30
0
0
LINE
5
169
100
AcDbEntity
8
0
100
AcDbLine
10
53.214106598227502
20
-152.5586340770422
30
0
11
138.59509667660629
21
-152.55863407737709
31
0
0
SPLINE
5
170
100
AcDbEntity
8
0
100
AcDbSpline
70
0
71
3
72
8
73
4
74
0
42
0.000000001
43
0.0000000001
44
0.0000000001
40
34
40
34
40
34
40
34
40
35
40
35
40
35
40
35
10
138.59509667660629
20
-152.55863407737709
30
0
10
139.11615309634851
20
-152.55863407737971
30
0
10
139.54702693353329
20
-152.9645292118131
30
0
10
139.57810773645301
20
-153.48465782691289
30
0
0
LINE
5
171
100
AcDbEntity
8
0
100
AcDbLine
10
139.57810773645301
20
-153.48465782691289
30
0
11
139.58012919247321
21
-153.5184863326717
31
0
0
SPLINE
5
172
100
AcDbEntity
8
0
100
AcDbSpline
70
0
71
3
72
8
73
4
74
0
42
0.000000001
43
0.0000000001
44
0.0000000001
40
32
40
32
40
32
40
32
40
33
40
33
40
33
40
33
10
139.58012919247321
20
-153.5184863326717
30
0
10
139.61384754368601
20
-154.08275358681209
30
0
10
139.16532863008939
20
-154.55887247574464
30
0
10
138.60005483687149
20
-154.558870359108
30
0
0
LINE
5
173
100
AcDbEntity
8
0
100
AcDbLine
10
138.60005483687149
20
-154.558870359108
30
0
11
111.8611847403478
21
-154.5587702369026
31
0
0
SPLINE
5
174
100
AcDbEntity
8
0
100
AcDbSpline
70
0
71
3
72
8
73
4
74
0
42
0.000000001
43
0.0000000001
44
0.0000000001
40
30
40
30
40
30
40
30
40
31
40
31
40
31
40
31
10
111.8611847403478
20
-154.5587702369026
30
0
10
111.30889852836161
20
-154.55876816889793
30
0
10
110.86118099615349
20
-155.00648402465632
30
0
10
110.86118099615349
20
-155.55877023664539
30
0
0
LINE
5
175
100
AcDbEntity
8
0
100
AcDbLine
10
110.86118099615351
20
-155.55877023664542
30
0
11
110.86118099615349
21
-155.97136380379911
31
0
0
SPLINE
5
176
100
AcDbEntity
8
0
100
AcDbSpline
70
0
71
3
72
8
73
4
74
0
42
0.000000001
43
0.0000000001
44
0.0000000001
40
28
40
28
40
28
40
28
40
29
40
29
40
29
40
29
10
110.86118099615349
20
-155.97136380379911
30
0
10
110.86118099615349
20
-157.07591345245379
30
0
10
111.75659540407102
20
-157.97132786037119
30
0
10
112.86114505272563
20
-157.97132786037119
30
0
0
LINE
5
177
100
AcDbEntity
8
0
100
AcDbLine
10
112.86114505272563
20
-157.97132786037119
30
0
11
186.16752320823332
21
-157.97132786037119
31
0
0
SPLINE
5
178
100
AcDbEntity
8
0
100
AcDbSpline
70
0
71
3
72
8
73
4
74
0
42
0.000000001
43
0.0000000001
44
0.0000000001
40
22
40
22
40
22
40
22
40
23
40
23
40
23
40
23
10
186.16752320823332
20
-157.97132786037119
30
0
10
187.27207285688661
20
-157.97132786037119
30
0
10
188.16748726480282
20
-157.07591345245501
30
0
10
188.16748726480282
20
-155.97136380380169
30
0
0
LINE
5
179
100
AcDbEntity
8
0
100
AcDbLine
10
188.16748726480284
20
-155.97136380380169
30
0
11
188.16748726480282
21
-155.55887456348353
31
0
0
SPLINE
5
180
100
AcDbEntity
8
0
100
AcDbSpline
70
0
71
3
72
8
73
4
74
0
42
0.000000001
43
0.0000000001
44
0.0000000001
40
20
40
20
40
20
40
20
40
21
40
21
40
21
40
21
10
188.16748726480282
20
-155.55887456348353
30
0
10
188.16748726480282
20
-155.00658981379183
30
0
10
187.71977201474539
20
-154.55887456373441
30
0
10
187.16748726505369
20
-154.55887456373441
30
0
0
LINE
5
181
100
AcDbEntity
8
0
100
AcDbLine
10
187.16748726505369
20
-154.55887456373441
30
0
11
160.33031217294371
21
-154.55887456373966
31
0
0
SPLINE
5
182
100
AcDbEntity
8
0
100
AcDbSpline
70
0
71
3
72
8
73
4
74
0
42
0.000000001
43
0.0000000001
44
0.0000000001
40
18
40
18
40
18
40
18
40
19
40
19
40
19
40
19
10
160.33031217294371
20
-154.55887456373966
30
0
10
159.7862043814587
20
-154.55887456373966
30
0
10
159.34511782933811
20
-154.1177881169038
30
0
10
159.3451176994615
20
-153.57368032541879
30
0
0
LINE
5
183
100
AcDbEntity
8
0
100
AcDbLine
10
159.3451176994615
20
-153.57368032541879
30
0
11
159.34511769233669
21
-153.5438287858245
31
0
0
SPLINE
5
184
100
AcDbEntity
8
0
100
AcDbSpline
70
0
71
3
72
8
73
4
74
0
42
0.000000001
43
0.0000000001
44
0.0000000001
40
16
40
16
40
16
40
16
40
17
40
17
40
17
40
17
10
159.34511769233669
20
-153.5438287858245
30
0
10
159.34511756246133
20
-152.99972081058769
30
0
10
159.78620419072519
20
-152.55863407703831
30
0
10
160.330312165962
20
-152.55863407703831
30
0
0
LINE
5
185
100
AcDbEntity
8
0
100
AcDbLine
10
160.33031216596197
20
-152.55863407703831
30
0
11
242.35809295613524
21
-152.55863407703711
31
0
0
SPLINE
5
186
100
AcDbEntity
8
0
100
AcDbSpline
70
0
71
3
72
8
73
4
74
0
42
0.000000001
43
0.0000000001
44
0.0000000001
40
14
40
14
40
14
40
14
40
15
40
15
40
15
40
15
10
242.35809295613524
20
-152.55863407703711
30
0
10
242.9022049642214
20
-152.55863407703711
30
0
10
243.34329326292544
20
-152.99972710451561
30
0
10
243.34328742969512
20
-153.54383911257042
30
0
0
LINE
5
187
100
AcDbEntity
8
0
100
AcDbLine
10
243.34328742969512
20
-153.54383911257042
30
0
11
243.34328711037543
21
-153.573624615249
31
0
0
SPLINE
5
188
100
AcDbEntity
8
0
100
AcDbSpline
70
0
71
3
72
8
73
4
74
0
42
0.000000001
43
0.0000000001
44
0.0000000001
40
12
40
12
40
12
40
12
40
13
40
13
40
13
40
13
10
243.34328711037543
20
-153.573624615249
30
0
10
243.34328127699609
20
-154.11775060063431
30
0
10
242.90216170649731
20
-154.55883995952721
30
0
10
242.3580357219891
20
-154.55880852527224
30
0
0
LINE
5
189
100
AcDbEntity
8
0
100
AcDbLine
10
242.3580357219891
20
-154.55880852527224
30
0
11
217.96122246344422
21
-154.5573991170366
31
0
0
SPLINE
5
190
100
AcDbEntity
8
0
100
AcDbSpline
70
0
71
3
72
8
73
4
74
0
42
0.000000001
43
0.0000000001
44
0.0000000001
40
10
40
10
40
10
40
10
40
11
40
11
40
11
40
11
10
217.96122246344422
20
-154.5573991170366
30
0
10
217.40891515391934
20
-154.5573672101458
30
0
10
216.9611646935866
20
-155.00509180460159
30
0
10
216.9611646935866
20
-155.55739911504801
30
0
0
LINE
5
191
100
AcDbEntity
8
0
100
AcDbLine
10
216.9611646935866
20
-155.55739911504801
30
0
11
216.9611646935866
21
-155.97127767640939
31
0
0
SPLINE
5
192
100
AcDbEntity
8
0
100
AcDbSpline
70
0
71
3
72
8
73
4
74
0
42
0.000000001
43
0.0000000001
44
0.0000000001
40
8
40
8
40
8
40
8
40
9
40
9
40
9
40
9
10
216.9611646935866
20
-155.97127767640939
30
0
10
216.9611646935866
20
-157.0758748919076
30
0
10
217.85661766205024
20
-157.97132786037119
30
0
10
218.9612148775484
20
-157.97132786037119
30
0
0
LINE
5
193
100
AcDbEntity
8
0
100
AcDbLine
10
218.96121487754843
20
-157.97132786037116
30
0
11
286.99168767955109
21
-157.97132786037119
31
0
0
LINE
5
194
100
AcDbEntity
8
0
100
AcDbLine
10
286.99168767955109
20
-157.97132786037119
30
0
11
288.05760022268748
21
-157.97132765931659
31
0
0
SPLINE
5
195
100
AcDbEntity
8
0
100
AcDbSpline
70
0
71
3
72
8
73
4
74
0
42
0.000000001
43
0.0000000001
44
0.0000000001
40
2
40
2
40
2
40
2
40
3
40
3
40
3
40
3
10
288.05760022268748
20
-157.97132765931659
30
0
10
288.80268922142295
20
-157.97132751877692
30
0
10
289.40617105029395
20
-157.36113200398771
30
0
10
289.40757956357635
20
-156.61604433657629
30
0
0
LINE
5
196
100
AcDbEntity
8
0
100
AcDbLine
10
289.40757956357635
20
-156.61604433657629
30
0
11
289.42387528077711
21
-155.57451914144991
31
0
0
LINE
5
197
100
AcDbEntity
8
0
100
AcDbLine
10
-1.010635687365141
20
-74.014199595313499
30
0
11
-1.010635687365141
21
-60.828485312896404
31
0
0
SPLINE
5
198
100
AcDbEntity
8
0
100
AcDbSpline
70
0
71
3
72
8
73
4
74
0
42
0.000000001
43
0.0000000001
44
0.0000000001
40
1
40
1
40
1
40
1
40
2
40
2
40
2
40
2
10
-0.50349283034806158
20
-60.321342455878693
30
0
10
-0.78358009626548819
20
-60.321342455878693
30
0
10
-1.010635687365141
20
-60.54839804698026
30
0
10
-1.010635687365141
20
-60.828485312896404
30
0
0
LINE
5
199
100
AcDbEntity
8
0
100
AcDbLine
10
-0.50349283034806158
20
-60.321342455878693
30
0
11
12.682221452069042
21
-60.321342455878693
31
0
0
SPLINE
5
200
100
AcDbEntity
8
0
100
AcDbSpline
70
0
71
3
72
8
73
4
74
0
42
0.000000001
43
0.0000000001
44
0.0000000001
40
7
40
7
40
7
40
7
40
8
40
8
40
8
40
8
10
13.189364309084841
20
-60.828485312896404
30
0
10
13.189364309084841
20
-60.54839804698026
30
0
10
12.96230871798134
20
-60.321342455878693
30
0
10
12.682221452069042
20
-60.321342455878693
30
0
0
LINE
5
201
100
AcDbEntity
8
0
100
AcDbLine
10
13.189364309084841
20
-60.828485312896404
30
0
11
13.189364309084841
21
-74.014199595313499
31
0
0
SPLINE
5
202
100
AcDbEntity
8
0
100
AcDbSpline
70
0
71
3
72
8
73
4
74
0
42
0.000000001
43
0.0000000001
44
0.0000000001
40
5
40
5
40
5
40
5
40
6
40
6
40
6
40
6
10
12.68222145206904
20
-74.521342452329293
30
0
10
12.96230871798134
20
-74.521342452329293
30
0
10
13.189364309084841
20
-74.294286861229025
30
0
10
13.189364309084841
20
-74.014199595313499
30
0
0
LINE
5
203
100
AcDbEntity
8
0
100
AcDbLine
10
12.68222145206904
20
-74.521342452329293
30
0
11
-0.50349283034806236
21
-74.521342452329293
31
0
0
SPLINE
5
204
100
AcDbEntity
8
0
100
AcDbSpline
70
0
71
3
72
8
73
4
74
0
42
0.000000001
43
0.0000000001
44
0.0000000001
40
3
40
3
40
3
40
3
40
4
40
4
40
4
40
4
10
-1.010635687365141
20
-74.014199595313499
30
0
10
-1.010635687365141
20
-74.294286861229025
30
0
10
-0.78358009626548819
20
-74.521342452329293
30
0
10
-0.50349283034806158
20
-74.521342452329293
30
0
0
SPLINE
5
205
100
AcDbEntity
8
0
100
AcDbSpline
70
0
71
3
72
10
73
6
74
0
42
0.000000001
43
0.0000000001
44
0.0000000001
40
2
40
2
40
2
40
2
40
3
40
3
40
4
40
4
40
4
40
4
10
22.757817979949444
20
-85.371291654182571
30
0
10
22.150304755290364
20
-85.371291654182571
30
0
10
21.657817980224369
20
-85.863778429242785
30
0
10
21.657817980224369
20
-87.078804878566075
30
0
10
22.150304755290364
20
-87.571291653632088
30
0
10
22.757817979949444
20
-87.571291653632088
30
0
0
SPLINE
5
206
100
AcDbEntity
8
0
100
AcDbSpline
70
0
71
3
72
10
73
6
74
0
42
0.000000001
43
0.0000000001
44
0.0000000001
40
0
40
0
40
0
40
0
40
1
40
1
40
2
40
2
40
2
40
2
10
22.757817979949444
20
-87.571291653632088
30
0
10
23.365331204613653
20
-87.571291653632088
30
0
10
23.857817979674515
20
-87.078804878566075
30
0
10
23.857817979674515
20
-85.863778429242785
30
0
10
23.365331204613653
20
-85.371291654182571
30
0
10
22.757817979949444
20
-85.371291654182571
30
0
0
SPLINE
5
207
100
AcDbEntity
8
0
100
AcDbSpline
70
0
71
3
72
10
73
6
74
0
42
0.000000001
43
0.0000000001
44
0.0000000001
40
2
40
2
40
2
40
2
40
3
40
3
40
4
40
4
40
4
40
4
10
39.426867699948417
20
-132.9964415498799
30
0
10
38.819354475289018
20
-132.9964415498799
30
0
10
38.326867700223993
20
-133.4889283249446
30
0
10
38.326867700223993
20
-134.70395477426791
30
0
10
38.819354475289018
20
-135.19644154933013
30
0
10
39.426867699948417
20
-135.19644154933013
30
0
0
SPLINE
5
208
100
AcDbEntity
8
0
100
AcDbSpline
70
0
71
3
72
10
73
6
74
0
42
0.000000001
43
0.0000000001
44
0.0000000001
40
0
40
0
40
0
40
0
40
1
40
1
40
2
40
2
40
2
40
2
10
39.426867699948417
20
-135.19644154933013
30
0
10
40.034380924612634
20
-135.19644154933013
30
0
10
40.526867699677346
20
-134.70395477426791
30
0
10
40.526867699677346
20
-133.4889283249446
30
0
10
40.034380924612634
20
-132.9964415498799
30
0
10
39.426867699948417
20
-132.9964415498799
30
0
0
SPLINE
5
209
100
AcDbEntity
8
0
100
AcDbSpline
70
0
71
3
72
10
73
6
74
0
42
0.000000001
43
0.0000000001
44
0.0000000001
40
2
40
2
40
2
40
2
40
3
40
3
40
4
40
4
40
4
40
4
10
106.10186515995221
20
-94.896339949879518
30
0
10
105.4943519352893
20
-94.896339949879518
30
0
10
105.0018651602271
20
-95.388826724944863
30
0
10
105.0018651602271
20
-96.603853174268153
30
0
10
105.4943519352893
20
-97.0963399493303
30
0
10
106.10186515995221
20
-97.0963399493303
30
0
0
SPLINE
5
210
100
AcDbEntity
8
0
100
AcDbSpline
70
0
71
3
72
10
73
6
74
0
42
0.000000001
43
0.0000000001
44
0.0000000001
40
0
40
0
40
0
40
0
40
1
40
1
40
2
40
2
40
2
40
2
10
106.10186515995221
20
-97.0963399493303
30
0
10
106.70937838461263
20
-97.0963399493303
30
0
10
107.20186515967761
20
-96.603853174268153
30
0
10
107.20186515967761
20
-95.388826724944863
30
0
10
106.70937838461263
20
-94.896339949879518
30
0
10
106.10186515995221
20
-94.896339949879518
30
0
0
SPLINE
5
211
100
AcDbEntity
8
0
100
AcDbSpline
70
0
71
3
72
10
73
6
74
0
42
0.000000001
43
0.0000000001
44
0.0000000001
40
2
40
2
40
2
40
2
40
3
40
3
40
4
40
4
40
4
40
4
10
182.30186515994941
20
-94.896339949879518
30
0
10
181.69435193528909
20
-94.896339949879518
30
0
10
181.2018651602244
20
-95.388826724944863
30
0
10
181.2018651602244
20
-96.603853174268153
30
0
10
181.69435193528909
20
-97.0963399493303
30
0
10
182.30186515994941
20
-97.0963399493303
30
0
0
SPLINE
5
212
100
AcDbEntity
8
0
100
AcDbSpline
70
0
71
3
72
10
73
6
74
0
42
0.000000001
43
0.0000000001
44
0.0000000001
40
0
40
0
40
0
40
0
40
1
40
1
40
2
40
2
40
2
40
2
10
182.30186515994941
20
-97.0963399493303
30
0
10
182.90937838461244
20
-97.0963399493303
30
0
10
183.40186515967713
20
-96.603853174268153
30
0
10
183.40186515967713
20
-95.388826724944863
30
0
10
182.90937838461244
20
-94.896339949879518
30
0
10
182.30186515994941
20
-94.896339949879518
30
0
0
SPLINE
5
213
100
AcDbEntity
8
0
100
AcDbSpline
70
0
71
3
72
10
73
6
74
0
42
0.000000001
43
0.0000000001
44
0.0000000001
40
2
40
2
40
2
40
2
40
3
40
3
40
4
40
4
40
4
40
4
10
229.88241769995273
20
-113.97809245418222
30
0
10
229.27490447528982
20
-113.97809245418222
30
0
10
228.78241770022893
20
-114.4705792292431
30
0
10
228.78241770022893
20
-115.6856056785702
30
0
10
229.27490447528982
20
-116.17809245363111
30
0
10
229.88241769995273
20
-116.17809245363111
30
0
0
SPLINE
5
214
100
AcDbEntity
8
0
100
AcDbSpline
70
0
71
3
72
10
73
6
74
0
42
0.000000001
43
0.0000000001
44
0.0000000001
40
0
40
0
40
0
40
0
40
1
40
1
40
2
40
2
40
2
40
2
10
229.88241769995273
20
-116.17809245363111
30
0
10
230.48993092461313
20
-116.17809245363111
30
0
10
230.9824176996739
20
-115.6856056785702
30
0
10
230.9824176996739
20
-114.4705792292431
30
0
10
230.48993092461313
20
-113.97809245418222
30
0
10
229.88241769995273
20
-113.97809245418222
30
0
0
SPLINE
5
215
100
AcDbEntity
8
0
100
AcDbSpline
70
0
71
3
72
10
73
6
74
0
42
0.000000001
43
0.0000000001
44
0.0000000001
40
2
40
2
40
2
40
2
40
3
40
3
40
4
40
4
40
4
40
4
10
282.3143651599508
20
-132.99639074988073
30
0
10
281.70685193529039
20
-132.99639074988073
30
0
10
281.21436516022573
20
-133.48887752494539
30
0
10
281.21436516022573
20
-134.70390397426871
30
0
10
281.70685193529039
20
-135.19639074932962
30
0
10
282.3143651599508
20
-135.19639074932962
30
0
0
SPLINE
5
216
100
AcDbEntity
8
0
100
AcDbSpline
70
0
71
3
72
10
73
6
74
0
42
0.000000001
43
0.0000000001
44
0.0000000001
40
0
40
0
40
0
40
0
40
1
40
1
40
2
40
2
40
2
40
2
10
282.3143651599508
20
-135.19639074932962
30
0
10
282.92187838461501
20
-135.19639074932962
30
0
10
283.41436515967519
20
-134.70390397426871
30
0
10
283.41436515967519
20
-133.48887752494539
30
0
10
282.92187838461501
20
-132.99639074988073
30
0
10
282.3143651599508
20
-132.99639074988073
30
0
0
SPLINE
5
217
100
AcDbEntity
8
0
100
AcDbSpline
70
0
71
3
72
10
73
6
74
0
42
0.000000001
43
0.0000000001
44
0.0000000001
40
2
40
2
40
2
40
2
40
3
40
3
40
4
40
4
40
4
40
4
10
279.93381873994963
20
-85.371291654182571
30
0
10
279.32630551529053
20
-85.371291654182571
30
0
10
278.83381874022461
20
-85.863778429242785
30
0
10
278.83381874022461
20
-87.078804878566075
30
0
10
279.32630551529053
20
-87.571291653632088
30
0
10
279.93381873994963
20
-87.571291653632088
30
0
0
SPLINE
5
218
100
AcDbEntity
8
0
100
AcDbSpline
70
0
71
3
72
10
73
6
74
0
42
0.000000001
43
0.0000000001
44
0.0000000001
40
0
40
0
40
0
40
0
40
1
40
1
40
2
40
2
40
2
40
2
10
279.93381873994963
20
-87.571291653632088
30
0
10
280.54133196461379
20
-87.571291653632088
30
0
10
281.03381873967862
20
-87.078804878566075
30
0
10
281.03381873967862
20
-85.863778429242785
30
0
10
280.54133196461379
20
-85.371291654182571
30
0
10
279.93381873994963
20
-85.371291654182571
30
0
0
SPLINE
5
219
100
AcDbEntity
8
0
100
AcDbSpline
70
0
71
3
72
10
73
6
74
0
42
0.000000001
43
0.0000000001
44
0.0000000001
40
2
40
2
40
2
40
2
40
3
40
3
40
4
40
4
40
4
40
4
10
70.370417699948831
20
-113.97809245418222
30
0
10
69.762904475289787
20
-113.97809245418222
30
0
10
69.270417700225053
20
-114.4705792292431
30
0
10
69.270417700225053
20
-115.6856056785702
30
0
10
69.762904475289787
20
-116.17809245363111
30
0
10
70.370417699948831
20
-116.17809245363111
30
0
0
SPLINE
5
220
100
AcDbEntity
8
0
100
AcDbSpline
70
0
71
3
72
10
73
6
74
0
42
0.000000001
43
0.0000000001
44
0.0000000001
40
0
40
0
40
0
40
0
40
1
40
1
40
2
40
2
40
2
40
2
10
70.370417699948831
20
-116.17809245363111
30
0
10
70.977930924613048
20
-116.17809245363111
30
0
10
71.470417699673916
20
-115.6856056785702
30
0
10
71.470417699673916
20
-114.4705792292431
30
0
10
70.977930924613048
20
-113.97809245418222
30
0
10
70.370417699948831
20
-113.97809245418222
30
0
0
LINE
5
221
100
AcDbEntity
8
0
100
AcDbLine
10
113.28936431263472
20
-74.01419959531286
30
0
11
113.28936431263472
21
-60.828485312895111
31
0
0
SPLINE
5
222
100
AcDbEntity
8
0
100
AcDbSpline
70
0
71
3
72
8
73
4
74
0
42
0.000000001
43
0.0000000001
44
0.0000000001
40
1
40
1
40
1
40
1
40
2
40
2
40
2
40
2
10
113.79650716965182
20
-60.321342455879325
30
0
10
113.5164199037344
20
-60.321342455879325
30
0
10
113.28936431263472
20
-60.548398046978974
30
0
10
113.28936431263472
20
-60.828485312895111
30
0
0
LINE
5
223
100
AcDbEntity
8
0
100
AcDbLine
10
113.79650716965182
20
-60.321342455879325
30
0
11
126.9822214520689
21
-60.321342455879325
31
0
0
SPLINE
5
224
100
AcDbEntity
8
0
100
AcDbSpline
70
0
71
3
72
8
73
4
74
0
42
0.000000001
43
0.0000000001
44
0.0000000001
40
7
40
7
40
7
40
7
40
8
40
8
40
8
40
8
10
127.4893643090853
20
-60.828485312895111
30
0
10
127.4893643090853
20
-60.548398046978974
30
0
10
127.26230871798121
20
-60.321342455879325
30
0
10
126.9822214520689
20
-60.321342455879325
30
0
0
LINE
5
225
100
AcDbEntity
8
0
100
AcDbLine
10
127.4893643090853
20
-60.828485312895111
30
0
11
127.4893643090853
21
-74.01419959531286
31
0
0
SPLINE
5
226
100
AcDbEntity
8
0
100
AcDbSpline
70
0
71
3
72
8
73
4
74
0
42
0.000000001
43
0.0000000001
44
0.0000000001
40
5
40
5
40
5
40
5
40
6
40
6
40
6
40
6
10
126.9822214520689
20
-74.521342452329947
30
0
10
127.26230871798121
20
-74.521342452329947
30
0
10
127.4893643090853
20
-74.29428686123029
30
0
10
127.4893643090853
20
-74.01419959531286
30
0
0
LINE
5
227
100
AcDbEntity
8
0
100
AcDbLine
10
126.9822214520689
20
-74.521342452329947
30
0
11
113.79650716965182
21
-74.521342452329947
31
0
0
SPLINE
5
228
100
AcDbEntity
8
0
100
AcDbSpline
70
0
71
3
72
8
73
4
74
0
42
0.000000001
43
0.0000000001
44
0.0000000001
40
3
40
3
40
3
40
3
40
4
40
4
40
4
40
4
10
113.28936431263472
20
-74.01419959531286
30
0
10
113.28936431263472
20
-74.29428686123029
30
0
10
113.5164199037344
20
-74.521342452329947
30
0
10
113.79650716965182
20
-74.521342452329947
30
0
0
LINE
5
229
100
AcDbEntity
8
0
100
AcDbLine
10
132.33936431263521
20
-74.01419959531286
30
0
11
132.33936431263521
21
-60.828485312895111
31
0
0
SPLINE
5
230
100
AcDbEntity
8
0
100
AcDbSpline
70
0
71
3
72
8
73
4
74
0
42
0.000000001
43
0.0000000001
44
0.0000000001
40
1
40
1
40
1
40
1
40
2
40
2
40
2
40
2
10
132.846507169652
20
-60.321342455879325
30
0
10
132.56641990373461
20
-60.321342455879325
30
0
10
132.33936431263521
20
-60.548398046978974
30
0
10
132.33936431263521
20
-60.828485312895111
30
0
0
LINE
5
231
100
AcDbEntity
8
0
100
AcDbLine
10
132.846507169652
20
-60.321342455879325
30
0
11
146.03222145206851
21
-60.321342455879325
31
0
0
SPLINE
5
232
100
AcDbEntity
8
0
100
AcDbSpline
70
0
71
3
72
8
73
4
74
0
42
0.000000001
43
0.0000000001
44
0.0000000001
40
7
40
7
40
7
40
7
40
8
40
8
40
8
40
8
10
146.5393643090855
20
-60.828485312895111
30
0
10
146.5393643090855
20
-60.548398046978974
30
0
10
146.31230871798141
20
-60.321342455879325
30
0
10
146.03222145206851
20
-60.321342455879325
30
0
0
LINE
5
233
100
AcDbEntity
8
0
100
AcDbLine
10
146.5393643090855
20
-60.828485312895111
30
0
11
146.5393643090855
21
-74.01419959531286
31
0
0
SPLINE
5
234
100
AcDbEntity
8
0
100
AcDbSpline
70
0
71
3
72
8
73
4
74
0
42
0.000000001
43
0.0000000001
44
0.0000000001
40
5
40
5
40
5
40
5
40
6
40
6
40
6
40
6
10
146.03222145206851
20
-74.521342452329947
30
0
10
146.31230871798141
20
-74.521342452329947
30
0
10
146.5393643090855
20
-74.294286861229025
30
0
10
146.5393643090855
20
-74.01419959531286
30
0
0
LINE
5
235
100
AcDbEntity
8
0
100
AcDbLine
10
146.03222145206851
20
-74.521342452329947
30
0
11
132.846507169652
21
-74.521342452329947
31
0
0
SPLINE
5
236
100
AcDbEntity
8
0
100
AcDbSpline
70
0
71
3
72
8
73
4
74
0
42
0.000000001
43
0.0000000001
44
0.0000000001
40
3
40
3
40
3
40
3
40
4
40
4
40
4
40
4
10
132.33936431263521
20
-74.01419959531286
30
0
10
132.33936431263521
20
-74.294286861229025
30
0
10
132.56641990373461
20
-74.521342452329947
30
0
10
132.846507169652
20
-74.521342452329947
30
0
0
LINE
5
237
100
AcDbEntity
8
0
100
AcDbLine
10
265.68936431263529
20
-150.21419959531141
30
0
11
265.68936431263529
21
-137.02848531289681
31
0
0
SPLINE
5
238
100
AcDbEntity
8
0
100
AcDbSpline
70
0
71
3
72
8
73
4
74
0
42
0.000000001
43
0.0000000001
44
0.0000000001
40
1
40
1
40
1
40
1
40
2
40
2
40
2
40
2
10
266.19650716965242
20
-136.52134245588101
30
0
10
265.91641990373489
20
-136.52134245588101
30
0
10
265.68936431263529
20
-136.7483980469807
30
0
10
265.68936431263529
20
-137.02848531289681
30
0
0
LINE
5
239
100
AcDbEntity
8
0
100
AcDbLine
10
266.19650716965242
20
-136.52134245588101
30
0
11
279.38222145206822
21
-136.52134245588101
31
0
0
SPLINE
5
240
100
AcDbEntity
8
0
100
AcDbSpline
70
0
71
3
72
8
73
4
74
0
42
0.000000001
43
0.0000000001
44
0.0000000001
40
7
40
7
40
7
40
7
40
8
40
8
40
8
40
8
10
279.88936430908529
20
-137.02848531289681
30
0
10
279.88936430908529
20
-136.7483980469807
30
0
10
279.66230871798427
20
-136.52134245588101
30
0
10
279.38222145206822
20
-136.52134245588101
30
0
0
LINE
5
241
100
AcDbEntity
8
0
100
AcDbLine
10
279.88936430908529
20
-137.02848531289681
30
0
11
279.88936430908529
21
-150.21419959531141
31
0
0
SPLINE
5
242
100
AcDbEntity
8
0
100
AcDbSpline
70
0
71
3
72
8
73
4
74
0
42
0.000000001
43
0.0000000001
44
0.0000000001
40
5
40
5
40
5
40
5
40
6
40
6
40
6
40
6
10
279.38222145206822
20
-150.72134245232854
30
0
10
279.66230871798427
20
-150.72134245232854
30
0
10
279.88936430908529
20
-150.49428686122883
30
0
10
279.88936430908529
20
-150.21419959531141
30
0
0
LINE
5
243
100
AcDbEntity
8
0
100
AcDbLine
10
279.38222145206822
20
-150.72134245232854
30
0
11
266.19650716965242
21
-150.72134245232854
31
0
0
SPLINE
5
244
100
AcDbEntity
8
0
100
AcDbSpline
70
0
71
3
72
8
73
4
74
0
42
0.000000001
43
0.0000000001
44
0.0000000001
40
3
40
3
40
3
40
3
40
4
40
4
40
4
40
4
10
265.68936431263529
20
-150.21419959531141
30
0
10
265.68936431263529
20
-150.49428686122883
30
0
10
265.91641990373489
20
-150.72134245232854
30
0
10
266.19650716965242
20
-150.72134245232854
30
0
0
LINE
5
245
100
AcDbEntity
8
0
100
AcDbLine
10
239.49561431263584
20
-131.16419959531379
30
0
11
239.49561431263584
21
-117.9784853128954
31
0
0
SPLINE
5
246
100
AcDbEntity
8
0
100
AcDbSpline
70
0
71
3
72
8
73
4
74
0
42
0.000000001
43
0.0000000001
44
0.0000000001
40
1
40
1
40
1
40
1
40
2
40
2
40
2
40
2
10
240.00275716964779
20
-117.47134245587959
30
0
10
239.72266990373552
20
-117.47134245587959
30
0
10
239.49561431263584
20
-117.69839804697921
30
0
10
239.49561431263584
20
-117.9784853128954
30
0
0
LINE
5
247
100
AcDbEntity
8
0
100
AcDbLine
10
240.00275716964779
20
-117.47134245587959
30
0
11
253.18847145207059
21
-117.47134245587959
31
0
0
SPLINE
5
248
100
AcDbEntity
8
0
100
AcDbSpline
70
0
71
3
72
8
73
4
74
0
42
0.000000001
43
0.0000000001
44
0.0000000001
40
7
40
7
40
7
40
7
40
8
40
8
40
8
40
8
10
253.69561430908647
20
-117.9784853128954
30
0
10
253.69561430908647
20
-117.69839804697921
30
0
10
253.46855871798365
20
-117.47134245587959
30
0
10
253.18847145207059
20
-117.47134245587959
30
0
0
LINE
5
249
100
AcDbEntity
8
0
100
AcDbLine
10
253.69561430908647
20
-117.9784853128954
30
0
11
253.69561430908647
21
-131.16419959531379
31
0
0
SPLINE
5
250
100
AcDbEntity
8
0
100
AcDbSpline
70
0
71
3
72
8
73
4
74
0
42
0.000000001
43
0.0000000001
44
0.0000000001
40
5
40
5
40
5
40
5
40
6
40
6
40
6
40
6
10
253.18847145207059
20
-131.67134245232961
30
0
10
253.46855871798365
20
-131.67134245232961
30
0
10
253.69561430908647
20
-131.44428686123121
30
0
10
253.69561430908647
20
-131.16419959531379
30
0
0
LINE
5
251
100
AcDbEntity
8
0
100
AcDbLine
10
253.18847145207059
20
-131.67134245232961
30
0
11
240.00275716964779
21
-131.67134245232961
31
0
0
SPLINE
5
252
100
AcDbEntity
8
0
100
AcDbSpline
70
0
71
3
72
8
73
4
74
0
42
0.000000001
43
0.0000000001
44
0.0000000001
40
3
40
3
40
3
40
3
40
4
40
4
40
4
40
4
10
239.49561431263584
20
-131.16419959531379
30
0
10
239.49561431263584
20
-131.44428686123121
30
0
10
239.72266990373552
20
-131.67134245232961
30
0
10
240.00275716964779
20
-131.67134245232961
30
0
0
LINE
5
253
100
AcDbEntity
8
0
100
AcDbLine
10
208.53936431263602
20
-74.014199595313499
30
0
11
208.53936431263602
21
-60.828485312896404
31
0
0
SPLINE
5
254
100
AcDbEntity
8
0
100
AcDbSpline
70
0
71
3
72
8
73
4
74
0
42
0.000000001
43
0.0000000001
44
0.0000000001
40
1
40
1
40
1
40
1
40
2
40
2
40
2
40
2
10
209.04650716965179
20
-60.321342455878693
30
0
10
208.76641990373443
20
-60.321342455878693
30
0
10
208.53936431263602
20
-60.548398046977695
30
0
10
208.53936431263602
20
-60.828485312896404
30
0
0
LINE
5
255
100
AcDbEntity
8
0
100
AcDbLine
10
209.04650716965179
20
-60.321342455878693
30
0
11
222.2322214520689
21
-60.321342455878693
31
0
0
SPLINE
5
256
100
AcDbEntity
8
0
100
AcDbSpline
70
0
71
3
72
8
73
4
74
0
42
0.000000001
43
0.0000000001
44
0.0000000001
40
7
40
7
40
7
40
7
40
8
40
8
40
8
40
8
10
222.73936430908469
20
-60.828485312896404
30
0
10
222.73936430908469
20
-60.548398046977695
30
0
10
222.51230871798569
20
-60.321342455878693
30
0
10
222.2322214520689
20
-60.321342455878693
30
0
0
LINE
5
257
100
AcDbEntity
8
0
100
AcDbLine
10
222.73936430908469
20
-60.828485312896404
30
0
11
222.73936430908469
21
-74.014199595313499
31
0
0
SPLINE
5
258
100
AcDbEntity
8
0
100
AcDbSpline
70
0
71
3
72
8
73
4
74
0
42
0.000000001
43
0.0000000001
44
0.0000000001
40
5
40
5
40
5
40
5
40
6
40
6
40
6
40
6
10
222.2322214520689
20
-74.521342452329293
30
0
10
222.51230871798569
20
-74.521342452329293
30
0
10
222.73936430908469
20
-74.294286861229665
30
0
10
222.73936430908469
20
-74.014199595313499
30
0
0
LINE
5
259
100
AcDbEntity
8
0
100
AcDbLine
10
222.2322214520689
20
-74.521342452329293
30
0
11
209.04650716965179
21
-74.521342452329293
31
0
0
SPLINE
5
260
100
AcDbEntity
8
0
100
AcDbSpline
70
0
71
3
72
8
73
4
74
0
42
0.000000001
43
0.0000000001
44
0.0000000001
40
3
40
3
40
3
40
3
40
4
40
4
40
4
40
4
10
208.53936431263602
20
-74.014199595313499
30
0
10
208.53936431263602
20
-74.294286861229665
30
0
10
208.76641990373443
20
-74.521342452329293
30
0
10
209.04650716965179
20
-74.521342452329293
30
0
0
LINE
5
261
100
AcDbEntity
8
0
100
AcDbLine
10
1.4706143108578624
20
-112.02134245410491
30
0
11
1.4706143108578624
21
-99.021342454104797
31
0
0
SPLINE
5
262
100
AcDbEntity
8
0
100
AcDbSpline
70
0
71
3
72
8
73
4
74
0
42
0.000000001
43
0.0000000001
44
0.0000000001
40
1
40
1
40
1
40
1
40
2
40
2
40
2
40
2
10
1.9706143108582004
20
-98.521342454106389
30
0
10
1.6944719359443272
20
-98.521342454106389
30
0
10
1.4706143108578624
20
-98.745200079189004
30
0
10
1.4706143108578624
20
-99.021342454104797
30
0
0
LINE
5
263
100
AcDbEntity
8
0
100
AcDbLine
10
1.9706143108582004
20
-98.521342454106389
30
0
11
19.733114310859722
21
-98.521342454106389
31
0
0
SPLINE
5
264
100
AcDbEntity
8
0
100
AcDbSpline
70
0
71
3
72
8
73
4
74
0
42
0.000000001
43
0.0000000001
44
0.0000000001
40
7
40
7
40
7
40
7
40
8
40
8
40
8
40
8
10
20.23311431086001
20
-99.021342454104797
30
0
10
20.23311431086001
20
-98.745200079189004
30
0
10
20.009256685776112
20
-98.521342454106389
30
0
10
19.733114310859722
20
-98.521342454106389
30
0
0
LINE
5
265
100
AcDbEntity
8
0
100
AcDbLine
10
20.23311431086001
20
-99.021342454104797
30
0
11
20.23311431086001
21
-112.02134245410491
31
0
0
SPLINE
5
266
100
AcDbEntity
8
0
100
AcDbSpline
70
0
71
3
72
8
73
4
74
0
42
0.000000001
43
0.0000000001
44
0.0000000001
40
5
40
5
40
5
40
5
40
6
40
6
40
6
40
6
10
19.733114310859669
20
-112.52134245410531
30
0
10
20.009256685776112
20
-112.52134245410531
30
0
10
20.23311431086001
20
-112.29748482901752
30
0
10
20.23311431086001
20
-112.02134245410491
30
0
0
LINE
5
267
100
AcDbEntity
8
0
100
AcDbLine
10
19.733114310859669
20
-112.52134245410531
30
0
11
1.9706143108582008
21
-112.52134245410531
31
0
0
SPLINE
5
268
100
AcDbEntity
8
0
100
AcDbSpline
70
0
71
3
72
8
73
4
74
0
42
0.000000001
43
0.0000000001
44
0.0000000001
40
3
40
3
40
3
40
3
40
4
40
4
40
4
40
4
10
1.4706143108578624
20
-112.02134245410491
30
0
10
1.4706143108578624
20
-112.29748482901752
30
0
10
1.6944719359443272
20
-112.52134245410531
30
0
10
1.9706143108582004
20
-112.52134245410531
30
0
0
LINE
5
269
100
AcDbEntity
8
0
100
AcDbLine
10
94.239364312635189
20
-74.014199595314139
30
0
11
94.239364312635189
21
-60.828485312895111
31
0
0
SPLINE
5
270
100
AcDbEntity
8
0
100
AcDbSpline
70
0
71
3
72
8
73
4
74
0
42
0.000000001
43
0.0000000001
44
0.0000000001
40
1
40
1
40
1
40
1
40
2
40
2
40
2
40
2
10
94.746507169651295
20
-60.321342455878693
30
0
10
94.466419903734192
20
-60.321342455878693
30
0
10
94.239364312635189
20
-60.548398046977695
30
0
10
94.239364312635189
20
-60.828485312895111
30
0
0
LINE
5
271
100
AcDbEntity
8
0
100
AcDbLine
10
94.746507169651295
20
-60.321342455878693
30
0
11
107.93222145206872
21
-60.321342455878693
31
0
0
SPLINE
5
272
100
AcDbEntity
8
0
100
AcDbSpline
70
0
71
3
72
8
73
4
74
0
42
0.000000001
43
0.0000000001
44
0.0000000001
40
7
40
7
40
7
40
7
40
8
40
8
40
8
40
8
10
108.43936430908512
20
-60.828485312895111
30
0
10
108.43936430908512
20
-60.548398046977695
30
0
10
108.2123087179823
20
-60.321342455878693
30
0
10
107.93222145206872
20
-60.321342455878693
30
0
0
LINE
5
273
100
AcDbEntity
8
0
100
AcDbLine
10
108.43936430908512
20
-60.828485312895111
30
0
11
108.43936430908512
21
-74.014199595314139
31
0
0
SPLINE
5
274
100
AcDbEntity
8
0
100
AcDbSpline
70
0
71
3
72
8
73
4
74
0
42
0.000000001
43
0.0000000001
44
0.0000000001
40
5
40
5
40
5
40
5
40
6
40
6
40
6
40
6
10
107.93222145206872
20
-74.521342452329293
30
0
10
108.2123087179823
20
-74.521342452329293
30
0
10
108.43936430908512
20
-74.294286861229665
30
0
10
108.43936430908512
20
-74.014199595314139
30
0
0
LINE
5
275
100
AcDbEntity
8
0
100
AcDbLine
10
107.93222145206872
20
-74.521342452329293
30
0
11
94.746507169651295
21
-74.521342452329293
31
0
0
SPLINE
5
276
100
AcDbEntity
8
0
100
AcDbSpline
70
0
71
3
72
8
73
4
74
0
42
0.000000001
43
0.0000000001
44
0.0000000001
40
3
40
3
40
3
40
3
40
4
40
4
40
4
40
4
10
94.239364312635189
20
-74.014199595314139
30
0
10
94.239364312635189
20
-74.294286861229665
30
0
10
94.466419903734192
20
-74.521342452329293
30
0
10
94.746507169651295
20
-74.521342452329293
30
0
0
LINE
5
277
100
AcDbEntity
8
0
100
AcDbLine
10
37.089364312635247
20
-74.014199595314139
30
0
11
37.089364312635247
21
-60.828485312895111
31
0
0
SPLINE
5
278
100
AcDbEntity
8
0
100
AcDbSpline
70
0
71
3
72
8
73
4
74
0
42
0.000000001
43
0.0000000001
44
0.0000000001
40
1
40
1
40
1
40
1
40
2
40
2
40
2
40
2
10
37.596507169651048
20
-60.321342455878693
30
0
10
37.316419903734896
20
-60.321342455878693
30
0
10
37.089364312635247
20
-60.548398046977695
30
0
10
37.089364312635247
20
-60.828485312895111
30
0
0
LINE
5
279
100
AcDbEntity
8
0
100
AcDbLine
10
37.596507169651048
20
-60.321342455878693
30
0
11
50.782221452069436
21
-60.321342455878693
31
0
0
SPLINE
5
280
100
AcDbEntity
8
0
100
AcDbSpline
70
0
71
3
72
8
73
4
74
0
42
0.000000001
43
0.0000000001
44
0.0000000001
40
7
40
7
40
7
40
7
40
8
40
8
40
8
40
8
10
51.289364309085236
20
-60.828485312895111
30
0
10
51.289364309085236
20
-60.548398046977695
30
0
10
51.062308717983001
20
-60.321342455878693
30
0
10
50.782221452069436
20
-60.321342455878693
30
0
0
LINE
5
281
100
AcDbEntity
8
0
100
AcDbLine
10
51.289364309085236
20
-60.828485312895111
30
0
11
51.289364309085236
21
-74.014199595314139
31
0
0
SPLINE
5
282
100
AcDbEntity
8
0
100
AcDbSpline
70
0
71
3
72
8
73
4
74
0
42
0.000000001
43
0.0000000001
44
0.0000000001
40
5
40
5
40
5
40
5
40
6
40
6
40
6
40
6
10
50.782221452069436
20
-74.521342452329947
30
0
10
51.062308717983001
20
-74.521342452329947
30
0
10
51.289364309085236
20
-74.294286861229665
30
0
10
51.289364309085236
20
-74.014199595314139
30
0
0
LINE
5
283
100
AcDbEntity
8
0
100
AcDbLine
10
50.782221452069436
20
-74.521342452329947
30
0
11
37.596507169651048
21
-74.521342452329947
31
0
0
SPLINE
5
284
100
AcDbEntity
8
0
100
AcDbSpline
70
0
71
3
72
8
73
4
74
0
42
0.000000001
43
0.0000000001
44
0.0000000001
40
3
40
3
40
3
40
3
40
4
40
4
40
4
40
4
10
37.089364312635247
20
-74.014199595314139
30
0
10
37.089364312635247
20
-74.294286861229665
30
0
10
37.316419903734896
20
-74.521342452329947
30
0
10
37.596507169651048
20
-74.521342452329947
30
0
0
LINE
5
285
100
AcDbEntity
8
0
100
AcDbLine
10
265.68936431263472
20
-131.16419959531379
30
0
11
265.68936431263472
21
-117.9784853128954
31
0
0
SPLINE
5
286
100
AcDbEntity
8
0
100
AcDbSpline
70
0
71
3
72
8
73
4
74
0
42
0.000000001
43
0.0000000001
44
0.0000000001
40
0
40
0
40
0
40
0
40
1
40
1
40
1
40
1
10
266.19650716965111
20
-117.47134245587959
30
0
10
265.91641990373489
20
-117.47134245587959
30
0
10
265.68936431263472
20
-117.69839804697921
30
0
10
265.68936431263472
20
-117.9784853128954
30
0
0
LINE
5
287
100
AcDbEntity
8
0
100
AcDbLine
10
266.19650716965111
20
-117.47134245587959
30
0
11
279.38222145206879
21
-117.47134245587959
31
0
0
SPLINE
5
288
100
AcDbEntity
8
0
100
AcDbSpline
70
0
71
3
72
8
73
4
74
0
42
0.000000001
43
0.0000000001
44
0.0000000001
40
2
40
2
40
2
40
2
40
3
40
3
40
3
40
3
10
279.88936430908529
20
-117.9784853128954
30
0
10
279.88936430908529
20
-117.69839804697921
30
0
10
279.66230871798558
20
-117.47134245587959
30
0
10
279.38222145206879
20
-117.47134245587959
30
0
0
LINE
5
289
100
AcDbEntity
8
0
100
AcDbLine
10
279.88936430908529
20
-117.9784853128954
30
0
11
279.88936430908529
21
-131.16419959531379
31
0
0
SPLINE
5
290
100
AcDbEntity
8
0
100
AcDbSpline
70
0
71
3
72
8
73
4
74
0
42
0.000000001
43
0.0000000001
44
0.0000000001
40
4
40
4
40
4
40
4
40
5
40
5
40
5
40
5
10
279.38222145206879
20
-131.67134245232961
30
0
10
279.66230871798558
20
-131.67134245232961
30
0
10
279.88936430908529
20
-131.44428686122993
30
0
10
279.88936430908529
20
-131.16419959531379
30
0
0
LINE
5
291
100
AcDbEntity
8
0
100
AcDbLine
10
279.38222145206879
20
-131.67134245232961
30
0
11
266.19650716965111
21
-131.67134245232961
31
0
0
SPLINE
5
292
100
AcDbEntity
8
0
100
AcDbSpline
70
0
71
3
72
8
73
4
74
0
42
0.000000001
43
0.0000000001
44
0.0000000001
40
6
40
6
40
6
40
6
40
7
40
7
40
7
40
7
10
265.68936431263472
20
-131.16419959531379
30
0
10
265.68936431263472
20
-131.44428686122993
30
0
10
265.91641990373489
20
-131.67134245232961
30
0
10
266.19650716965111
20
-131.67134245232961
30
0
0
LINE
5
293
100
AcDbEntity
8
0
100
AcDbLine
10
218.06436431263549
20
-93.064199595311763
30
0
11
218.06436431263549
21
-79.878485312896586
31
0
0
SPLINE
5
294
100
AcDbEntity
8
0
100
AcDbSpline
70
0
71
3
72
8
73
4
74
0
42
0.000000001
43
0.0000000001
44
0.0000000001
40
1
40
1
40
1
40
1
40
2
40
2
40
2
40
2
10
218.57150716965251
20
-79.371342455878874
30
0
10
218.29141990373572
20
-79.371342455878874
30
0
10
218.06436431263549
20
-79.598398046977877
30
0
10
218.06436431263549
20
-79.878485312896586
30
0
0
LINE
5
295
100
AcDbEntity
8
0
100
AcDbLine
10
218.57150716965251
20
-79.371342455878874
30
0
11
231.75722145206839
21
-79.371342455878874
31
0
0
SPLINE
5
296
100
AcDbEntity
8
0
100
AcDbSpline
70
0
71
3
72
8
73
4
74
0
42
0.000000001
43
0.0000000001
44
0.0000000001
40
7
40
7
40
7
40
7
40
8
40
8
40
8
40
8
10
232.26436430908421
20
-79.878485312896586
30
0
10
232.26436430908421
20
-79.598398046977877
30
0
10
232.03730871798584
20
-79.371342455878874
30
0
10
231.75722145206839
20
-79.371342455878874
30
0
0
LINE
5
297
100
AcDbEntity
8
0
100
AcDbLine
10
232.26436430908421
20
-79.878485312896586
30
0
11
232.26436430908421
21
-93.064199595311763
31
0
0
SPLINE
5
298
100
AcDbEntity
8
0
100
AcDbSpline
70
0
71
3
72
8
73
4
74
0
42
0.000000001
43
0.0000000001
44
0.0000000001
40
5
40
5
40
5
40
5
40
6
40
6
40
6
40
6
10
231.75722145206839
20
-93.571342452329489
30
0
10
232.03730871798584
20
-93.571342452329489
30
0
10
232.26436430908421
20
-93.344286861230486
30
0
10
232.26436430908421
20
-93.064199595311763
30
0
0
LINE
5
299
100
AcDbEntity
8
0
100
AcDbLine
10
231.75722145206839
20
-93.571342452329489
30
0
11
218.57150716965251
21
-93.571342452329489
31
0
0
SPLINE
5
300
100
AcDbEntity
8
0
100
AcDbSpline
70
0
71
3
72
8
73
4
74
0
42
0.000000001
43
0.0000000001
44
0.0000000001
40
3
40
3
40
3
40
3
40
4
40
4
40
4
40
4
10
218.06436431263549
20
-93.064199595311763
30
0
10
218.06436431263549
20
-93.344286861230486
30
0
10
218.29141990373572
20
-93.571342452329489
30
0
10
218.57150716965251
20
-93.571342452329489
30
0
0
LINE
5
301
100
AcDbEntity
8
0
100
AcDbLine
10
56.646507169651237
20
-60.321342455880604
30
0
11
69.832221452069632
21
-60.321342455880604
31
0
0
SPLINE
5
302
100
AcDbEntity
8
0
100
AcDbSpline
70
0
71
3
72
8
73
4
74
0
42
0.000000001
43
0.0000000001
44
0.0000000001
40
1
40
1
40
1
40
1
40
2
40
2
40
2
40
2
10
70.339364309084772
20
-60.828485312895111
30
0
10
70.339364309084772
20
-60.548398046978974
30
0
10
70.112308717981904
20
-60.321342455880604
30
0
10
69.832221452069632
20
-60.321342455880604
30
0
0
LINE
5
303
100
AcDbEntity
8
0
100
AcDbLine
10
70.339364309084772
20
-60.828485312895111
30
0
11
70.339364309084772
21
-74.014199595314139
31
0
0
SPLINE
5
304
100
AcDbEntity
8
0
100
AcDbSpline
70
0
71
3
72
8
73
4
74
0
42
0.000000001
43
0.0000000001
44
0.0000000001
40
7
40
7
40
7
40
7
40
8
40
8
40
8
40
8
10
69.832221452069632
20
-74.521342452329293
30
0
10
70.112308717981904
20
-74.521342452329293
30
0
10
70.339364309084772
20
-74.294286861229665
30
0
10
70.339364309084772
20
-74.014199595314139
30
0
0
LINE
5
305
100
AcDbEntity
8
0
100
AcDbLine
10
69.832221452069632
20
-74.521342452329293
30
0
11
56.646507169651237
21
-74.521342452329293
31
0
0
SPLINE
5
306
100
AcDbEntity
8
0
100
AcDbSpline
70
0
71
3
72
8
73
4
74
0
42
0.000000001
43
0.0000000001
44
0.0000000001
40
5
40
5
40
5
40
5
40
6
40
6
40
6
40
6
10
56.13936431263479
20
-74.014199595314139
30
0
10
56.13936431263479
20
-74.294286861229665
30
0
10
56.366419903735093
20
-74.521342452329293
30
0
10
56.646507169651237
20
-74.521342452329293
30
0
0
LINE
5
307
100
AcDbEntity
8
0
100
AcDbLine
10
56.13936431263479
20
-74.014199595314139
30
0
11
56.13936431263479
21
-60.828485312895111
31
0
0
SPLINE
5
308
100
AcDbEntity
8
0
100
AcDbSpline
70
0
71
3
72
8
73
4
74
0
42
0.000000001
43
0.0000000001
44
0.0000000001
40
3
40
3
40
3
40
3
40
4
40
4
40
4
40
4
10
56.646507169651237
20
-60.321342455880604
30
0
10
56.366419903735093
20
-60.321342455880604
30
0
10
56.13936431263479
20
-60.548398046978974
30
0
10
56.13936431263479
20
-60.828485312895111
30
0
0
LINE
5
309
100
AcDbEntity
8
0
100
AcDbLine
10
180.47150716965217
20
-79.371342455878874
30
0
11
193.65722145206931
21
-79.371342455878874
31
0
0
SPLINE
5
310
100
AcDbEntity
8
0
100
AcDbSpline
70
0
71
3
72
8
73
4
74
0
42
0.000000001
43
0.0000000001
44
0.0000000001
40
1
40
1
40
1
40
1
40
2
40
2
40
2
40
2
10
194.16436430908502
20
-79.878485312896586
30
0
10
194.16436430908502
20
-79.598398046977877
30
0
10
193.93730871798164
20
-79.371342455878874
30
0
10
193.65722145206931
20
-79.371342455878874
30
0
0
LINE
5
311
100
AcDbEntity
8
0
100
AcDbLine
10
194.16436430908502
20
-79.878485312896586
30
0
11
194.16436430908502
21
-93.064199595311763
31
0
0
SPLINE
5
312
100
AcDbEntity
8
0
100
AcDbSpline
70
0
71
3
72
8
73
4
74
0
42
0.000000001
43
0.0000000001
44
0.0000000001
40
7
40
7
40
7
40
7
40
8
40
8
40
8
40
8
10
193.65722145206931
20
-93.571342452329489
30
0
10
193.93730871798164
20
-93.571342452329489
30
0
10
194.16436430908502
20
-93.344286861230486
30
0
10
194.16436430908502
20
-93.064199595311763
30
0
0
LINE
5
313
100
AcDbEntity
8
0
100
AcDbLine
10
193.65722145206931
20
-93.571342452329489
30
0
11
180.47150716965217
21
-93.571342452329489
31
0
0
SPLINE
5
314
100
AcDbEntity
8
0
100
AcDbSpline
70
0
71
3
72
8
73
4
74
0
42
0.000000001
43
0.0000000001
44
0.0000000001
40
5
40
5
40
5
40
5
40
6
40
6
40
6
40
6
10
179.9643643126351
20
-93.064199595311763
30
0
10
179.9643643126351
20
-93.344286861230486
30
0
10
180.19141990373541
20
-93.571342452329489
30
0
10
180.47150716965217
20
-93.571342452329489
30
0
0
LINE
5
315
100
AcDbEntity
8
0
100
AcDbLine
10
179.9643643126351
20
-93.064199595311763
30
0
11
179.9643643126351
21
-79.878485312896586
31
0
0
SPLINE
5
316
100
AcDbEntity
8
0
100
AcDbSpline
70
0
71
3
72
8
73
4
74
0
42
0.000000001
43
0.0000000001
44
0.0000000001
40
3
40
3
40
3
40
3
40
4
40
4
40
4
40
4
10
180.47150716965217
20
-79.371342455878874
30
0
10
180.19141990373541
20
-79.371342455878874
30
0
10
179.9643643126351
20
-79.598398046977877
30
0
10
179.9643643126351
20
-79.878485312896586
30
0
0
LINE
5
317
100
AcDbEntity
8
0
100
AcDbLine
10
199.01436431263534
20
-93.064199595311763
30
0
11
199.01436431263534
21
-79.878485312896586
31
0
0
SPLINE
5
318
100
AcDbEntity
8
0
100
AcDbSpline
70
0
71
3
72
8
73
4
74
0
42
0.000000001
43
0.0000000001
44
0.0000000001
40
1
40
1
40
1
40
1
40
2
40
2
40
2
40
2
10
199.52150716965241
20
-79.371342455878874
30
0
10
199.24141990373559
20
-79.371342455878874
30
0
10
199.01436431263534
20
-79.598398046977877
30
0
10
199.01436431263534
20
-79.878485312896586
30
0
0
LINE
5
319
100
AcDbEntity
8
0
100
AcDbLine
10
199.52150716965241
20
-79.371342455878874
30
0
11
212.70722145206943
21
-79.371342455878874
31
0
0
SPLINE
5
320
100
AcDbEntity
8
0
100
AcDbSpline
70
0
71
3
72
8
73
4
74
0
42
0.000000001
43
0.0000000001
44
0.0000000001
40
7
40
7
40
7
40
7
40
8
40
8
40
8
40
8
10
213.21436430908534
20
-79.878485312896586
30
0
10
213.21436430908534
20
-79.598398046977877
30
0
10
212.98730871798242
20
-79.371342455878874
30
0
10
212.70722145206943
20
-79.371342455878874
30
0
0
LINE
5
321
100
AcDbEntity
8
0
100
AcDbLine
10
213.21436430908534
20
-79.878485312896586
30
0
11
213.21436430908534
21
-93.064199595311763
31
0
0
SPLINE
5
322
100
AcDbEntity
8
0
100
AcDbSpline
70
0
71
3
72
8
73
4
74
0
42
0.000000001
43
0.0000000001
44
0.0000000001
40
5
40
5
40
5
40
5
40
6
40
6
40
6
40
6
10
212.70722145206943
20
-93.571342452329489
30
0
10
212.98730871798242
20
-93.571342452329489
30
0
10
213.21436430908534
20
-93.344286861230486
30
0
10
213.21436430908534
20
-93.064199595311763
30
0
0
LINE
5
323
100
AcDbEntity
8
0
100
AcDbLine
10
212.70722145206943
20
-93.571342452329489
30
0
11
199.52150716965241
21
-93.571342452329489
31
0
0
SPLINE
5
324
100
AcDbEntity
8
0
100
AcDbSpline
70
0
71
3
72
8
73
4
74
0
42
0.000000001
43
0.0000000001
44
0.0000000001
40
3
40
3
40
3
40
3
40
4
40
4
40
4
40
4
10
199.01436431263534
20
-93.064199595311763
30
0
10
199.01436431263534
20
-93.344286861230486
30
0
10
199.24141990373559
20
-93.571342452329489
30
0
10
199.52150716965241
20
-93.571342452329489
30
0
0
LINE
5
325
100
AcDbEntity
8
0
100
AcDbLine
10
203.77686431263314
20
-112.11419959531362
30
0
11
203.77686431263314
21
-98.928485312895518
31
0
0
SPLINE
5
326
100
AcDbEntity
8
0
100
AcDbSpline
70
0
71
3
72
8
73
4
74
0
42
0.000000001
43
0.0000000001
44
0.0000000001
40
0
40
0
40
0
40
0
40
1
40
1
40
1
40
1
10
204.2840071696489
20
-98.42134245587971
30
0
10
204.00391990373271
20
-98.42134245587971
30
0
10
203.77686431263314
20
-98.648398046978727
30
0
10
203.77686431263314
20
-98.928485312895518
30
0
0
LINE
5
327
100
AcDbEntity
8
0
100
AcDbLine
10
204.2840071696489
20
-98.42134245587971
30
0
11
217.46972145206735
21
-98.42134245587971
31
0
0
SPLINE
5
328
100
AcDbEntity
8
0
100
AcDbSpline
70
0
71
3
72
8
73
4
74
0
42
0.000000001
43
0.0000000001
44
0.0000000001
40
2
40
2
40
2
40
2
40
3
40
3
40
3
40
3
10
217.97686430908314
20
-98.928485312895518
30
0
10
217.97686430908314
20
-98.648398046978727
30
0
10
217.74980871798473
20
-98.42134245587971
30
0
10
217.46972145206735
20
-98.42134245587971
30
0
0
LINE
5
329
100
AcDbEntity
8
0
100
AcDbLine
10
217.97686430908314
20
-98.928485312895518
30
0
11
217.97686430908314
21
-112.11419959531362
31
0
0
SPLINE
5
330
100
AcDbEntity
8
0
100
AcDbSpline
70
0
71
3
72
8
73
4
74
0
42
0.000000001
43
0.0000000001
44
0.0000000001
40
4
40
4
40
4
40
4
40
5
40
5
40
5
40
5
10
217.46972145206735
20
-112.62134245232943
30
0
10
217.74980871798473
20
-112.62134245232943
30
0
10
217.97686430908314
20
-112.3942868612271
30
0
10
217.97686430908314
20
-112.11419959531362
30
0
0
LINE
5
331
100
AcDbEntity
8
0
100
AcDbLine
10
217.46972145206735
20
-112.62134245232943
30
0
11
204.2840071696489
21
-112.62134245232943
31
0
0
SPLINE
5
332
100
AcDbEntity
8
0
100
AcDbSpline
70
0
71
3
72
8
73
4
74
0
42
0.000000001
43
0.0000000001
44
0.0000000001
40
6
40
6
40
6
40
6
40
7
40
7
40
7
40
7
10
203.77686431263314
20
-112.11419959531362
30
0
10
203.77686431263314
20
-112.3942868612271
30
0
10
204.00391990373271
20
-112.62134245232943
30
0
10
204.2840071696489
20
-112.62134245232943
30
0
0
LINE
5
333
100
AcDbEntity
8
0
100
AcDbLine
10
146.6268643126331
20
-112.11419959531362
30
0
11
146.6268643126331
21
-98.928485312895518
31
0
0
SPLINE
5
334
100
AcDbEntity
8
0
100
AcDbSpline
70
0
71
3
72
8
73
4
74
0
42
0.000000001
43
0.0000000001
44
0.0000000001
40
1
40
1
40
1
40
1
40
2
40
2
40
2
40
2
10
147.13400716964964
20
-98.42134245587971
30
0
10
146.85391990373211
20
-98.42134245587971
30
0
10
146.6268643126331
20
-98.648398046978727
30
0
10
146.6268643126331
20
-98.928485312895518
30
0
0
LINE
5
335
100
AcDbEntity
8
0
100
AcDbLine
10
147.13400716964964
20
-98.42134245587971
30
0
11
160.31972145206799
21
-98.42134245587971
31
0
0
SPLINE
5
336
100
AcDbEntity
8
0
100
AcDbSpline
70
0
71
3
72
8
73
4
74
0
42
0.000000001
43
0.0000000001
44
0.0000000001
40
7
40
7
40
7
40
7
40
8
40
8
40
8
40
8
10
160.82686430908441
20
-98.928485312895518
30
0
10
160.82686430908441
20
-98.648398046978727
30
0
10
160.59980871798541
20
-98.42134245587971
30
0
10
160.31972145206799
20
-98.42134245587971
30
0
0
LINE
5
337
100
AcDbEntity
8
0
100
AcDbLine
10
160.82686430908441
20
-98.928485312895518
30
0
11
160.82686430908441
21
-112.11419959531362
31
0
0
SPLINE
5
338
100
AcDbEntity
8
0
100
AcDbSpline
70
0
71
3
72
8
73
4
74
0
42
0.000000001
43
0.0000000001
44
0.0000000001
40
5
40
5
40
5
40
5
40
6
40
6
40
6
40
6
10
160.31972145206799
20
-112.62134245232943
30
0
10
160.59980871798541
20
-112.62134245232943
30
0
10
160.82686430908441
20
-112.3942868612271
30
0
10
160.82686430908441
20
-112.11419959531362
30
0
0
LINE
5
339
100
AcDbEntity
8
0
100
AcDbLine
10
160.31972145206799
20
-112.62134245232943
30
0
11
147.13400716964964
21
-112.62134245232943
31
0
0
SPLINE
5
340
100
AcDbEntity
8
0
100
AcDbSpline
70
0
71
3
72
8
73
4
74
0
42
0.000000001
43
0.0000000001
44
0.0000000001
40
3
40
3
40
3
40
3
40
4
40
4
40
4
40
4
10
146.6268643126331
20
-112.11419959531362
30
0
10
146.6268643126331
20
-112.3942868612271
30
0
10
146.85391990373211
20
-112.62134245232943
30
0
10
147.13400716964964
20
-112.62134245232943
30
0
0
LINE
5
341
100
AcDbEntity
8
0
100
AcDbLine
10
213.3018643126332
20
-131.16419959531379
30
0
11
213.3018643126332
21
-117.9784853128954
31
0
0
SPLINE
5
342
100
AcDbEntity
8
0
100
AcDbSpline
70
0
71
3
72
8
73
4
74
0
42
0.000000001
43
0.0000000001
44
0.0000000001
40
0
40
0
40
0
40
0
40
1
40
1
40
1
40
1
10
213.80900716965019
20
-117.47134245587959
30
0
10
213.52891990373351
20
-117.47134245587959
30
0
10
213.3018643126332
20
-117.69839804697921
30
0
10
213.3018643126332
20
-117.9784853128954
30
0
0
LINE
5
343
100
AcDbEntity
8
0
100
AcDbLine
10
213.80900716965019
20
-117.47134245587959
30
0
11
226.99472145206863
21
-117.47134245587959
31
0
0
SPLINE
5
344
100
AcDbEntity
8
0
100
AcDbSpline
70
0
71
3
72
8
73
4
74
0
42
0.000000001
43
0.0000000001
44
0.0000000001
40
2
40
2
40
2
40
2
40
3
40
3
40
3
40
3
10
227.50186430908383
20
-117.9784853128954
30
0
10
227.50186430908383
20
-117.69839804697921
30
0
10
227.27480871798542
20
-117.47134245587959
30
0
10
226.99472145206863
20
-117.47134245587959
30
0
0
LINE
5
345
100
AcDbEntity
8
0
100
AcDbLine
10
227.50186430908383
20
-117.9784853128954
30
0
11
227.50186430908383
21
-131.16419959531379
31
0
0
SPLINE
5
346
100
AcDbEntity
8
0
100
AcDbSpline
70
0
71
3
72
8
73
4
74
0
42
0.000000001
43
0.0000000001
44
0.0000000001
40
4
40
4
40
4
40
4
40
5
40
5
40
5
40
5
10
226.99472145206863
20
-131.67134245232961
30
0
10
227.27480871798542
20
-131.67134245232961
30
0
10
227.50186430908383
20
-131.44428686123121
30
0
10
227.50186430908383
20
-131.16419959531379
30
0
0
LINE
5
347
100
AcDbEntity
8
0
100
AcDbLine
10
226.99472145206863
20
-131.67134245232961
30
0
11
213.80900716965019
21
-131.67134245232961
31
0
0
SPLINE
5
348
100
AcDbEntity
8
0
100
AcDbSpline
70
0
71
3
72
8
73
4
74
0
42
0.000000001
43
0.0000000001
44
0.0000000001
40
6
40
6
40
6
40
6
40
7
40
7
40
7
40
7
10
213.3018643126332
20
-131.16419959531379
30
0
10
213.3018643126332
20
-131.44428686123121
30
0
10
213.52891990373351
20
-131.67134245232961
30
0
10
213.80900716965019
20
-131.67134245232961
30
0
0
LINE
5
349
100
AcDbEntity
8
0
100
AcDbLine
10
103.76436431263562
20
-93.064199595313696
30
0
11
103.76436431263562
21
-79.878485312895947
31
0
0
SPLINE
5
350
100
AcDbEntity
8
0
100
AcDbSpline
70
0
71
3
72
8
73
4
74
0
42
0.000000001
43
0.0000000001
44
0.0000000001
40
1
40
1
40
1
40
1
40
2
40
2
40
2
40
2
10
104.2715071696511
20
-79.371342455878874
30
0
10
103.9914199037343
20
-79.371342455878874
30
0
10
103.76436431263562
20
-79.598398046977877
30
0
10
103.76436431263562
20
-79.878485312895947
30
0
0
LINE
5
351
100
AcDbEntity
8
0
100
AcDbLine
10
104.2715071696511
20
-79.371342455878874
30
0
11
117.45722145207012
21
-79.371342455878874
31
0
0
SPLINE
5
352
100
AcDbEntity
8
0
100
AcDbSpline
70
0
71
3
72
8
73
4
74
0
42
0.000000001
43
0.0000000001
44
0.0000000001
40
7
40
7
40
7
40
7
40
8
40
8
40
8
40
8
10
117.96436430908491
20
-79.878485312895947
30
0
10
117.96436430908491
20
-79.598398046977877
30
0
10
117.73730871798301
20
-79.371342455878874
30
0
10
117.45722145207012
20
-79.371342455878874
30
0
0
LINE
5
353
100
AcDbEntity
8
0
100
AcDbLine
10
117.96436430908491
20
-79.878485312895947
30
0
11
117.96436430908491
21
-93.064199595313696
31
0
0
SPLINE
5
354
100
AcDbEntity
8
0
100
AcDbSpline
70
0
71
3
72
8
73
4
74
0
42
0.000000001
43
0.0000000001
44
0.0000000001
40
5
40
5
40
5
40
5
40
6
40
6
40
6
40
6
10
117.45722145207012
20
-93.571342452329489
30
0
10
117.73730871798301
20
-93.571342452329489
30
0
10
117.96436430908491
20
-93.344286861230486
30
0
10
117.96436430908491
20
-93.064199595313696
30
0
0
LINE
5
355
100
AcDbEntity
8
0
100
AcDbLine
10
117.45722145207012
20
-93.571342452329489
30
0
11
104.2715071696511
21
-93.571342452329489
31
0
0
SPLINE
5
356
100
AcDbEntity
8
0
100
AcDbSpline
70
0
71
3
72
8
73
4
74
0
42
0.000000001
43
0.0000000001
44
0.0000000001
40
3
40
3
40
3
40
3
40
4
40
4
40
4
40
4
10
103.76436431263562
20
-93.064199595313696
30
0
10
103.76436431263562
20
-93.344286861230486
30
0
10
103.9914199037343
20
-93.571342452329489
30
0
10
104.2715071696511
20
-93.571342452329489
30
0
0
LINE
5
357
100
AcDbEntity
8
0
100
AcDbLine
10
51.376864312633785
20
-112.11419959531483
30
0
11
51.376864312633785
21
-98.928485312896797
31
0
0
SPLINE
5
358
100
AcDbEntity
8
0
100
AcDbSpline
70
0
71
3
72
8
73
4
74
0
42
0.000000001
43
0.0000000001
44
0.0000000001
40
1
40
1
40
1
40
1
40
2
40
2
40
2
40
2
10
51.884007169649905
20
-98.421342455880989
30
0
10
51.603919903732788
20
-98.421342455880989
30
0
10
51.376864312633785
20
-98.648398046979366
30
0
10
51.376864312633785
20
-98.928485312896797
30
0
0
LINE
5
359
100
AcDbEntity
8
0
100
AcDbLine
10
51.884007169649905
20
-98.421342455880989
30
0
11
65.069721452066688
21
-98.421342455880989
31
0
0
SPLINE
5
360
100
AcDbEntity
8
0
100
AcDbSpline
70
0
71
3
72
8
73
4
74
0
42
0.000000001
43
0.0000000001
44
0.0000000001
40
7
40
7
40
7
40
7
40
8
40
8
40
8
40
8
10
65.57686430908312
20
-98.928485312896797
30
0
10
65.57686430908312
20
-98.648398046979366
30
0
10
65.349808717984104
20
-98.421342455880989
30
0
10
65.069721452066688
20
-98.421342455880989
30
0
0
LINE
5
361
100
AcDbEntity
8
0
100
AcDbLine
10
65.57686430908312
20
-98.928485312896797
30
0
11
65.57686430908312
21
-112.11419959531483
31
0
0
SPLINE
5
362
100
AcDbEntity
8
0
100
AcDbSpline
70
0
71
3
72
8
73
4
74
0
42
0.000000001
43
0.0000000001
44
0.0000000001
40
5
40
5
40
5
40
5
40
6
40
6
40
6
40
6
10
65.069721452066688
20
-112.62134245233062
30
0
10
65.349808717984104
20
-112.62134245233062
30
0
10
65.57686430908312
20
-112.39428686122591
30
0
10
65.57686430908312
20
-112.11419959531483
30
0
0
LINE
5
363
100
AcDbEntity
8
0
100
AcDbLine
10
65.069721452066688
20
-112.62134245233062
30
0
11
51.884007169649905
21
-112.62134245233062
31
0
0
SPLINE
5
364
100
AcDbEntity
8
0
100
AcDbSpline
70
0
71
3
72
8
73
4
74
0
42
0.000000001
43
0.0000000001
44
0.0000000001
40
3
40
3
40
3
40
3
40
4
40
4
40
4
40
4
10
51.376864312633785
20
-112.11419959531483
30
0
10
51.376864312633785
20
-112.39428686122591
30
0
10
51.603919903732788
20
-112.62134245233062
30
0
10
51.884007169649905
20
-112.62134245233062
30
0
0
LINE
5
365
100
AcDbEntity
8
0
100
AcDbLine
10
237.11436431263562
20
-93.064199595311763
30
0
11
237.11436431263562
21
-79.878485312896586
31
0
0
SPLINE
5
366
100
AcDbEntity
8
0
100
AcDbSpline
70
0
71
3
72
8
73
4
74
0
42
0.000000001
43
0.0000000001
44
0.0000000001
40
1
40
1
40
1
40
1
40
2
40
2
40
2
40
2
10
237.62150716965269
20
-79.371342455878874
30
0
10
237.3414199037353
20
-79.371342455878874
30
0
10
237.11436431263562
20
-79.598398046977877
30
0
10
237.11436431263562
20
-79.878485312896586
30
0
0
LINE
5
367
100
AcDbEntity
8
0
100
AcDbLine
10
237.62150716965269
20
-79.371342455878874
30
0
11
250.80722145206849
21
-79.371342455878874
31
0
0
SPLINE
5
368
100
AcDbEntity
8
0
100
AcDbSpline
70
0
71
3
72
8
73
4
74
0
42
0.000000001
43
0.0000000001
44
0.0000000001
40
7
40
7
40
7
40
7
40
8
40
8
40
8
40
8
10
251.31436430908437
20
-79.878485312896586
30
0
10
251.31436430908437
20
-79.598398046977877
30
0
10
251.08730871798474
20
-79.371342455878874
30
0
10
250.80722145206849
20
-79.371342455878874
30
0
0
LINE
5
369
100
AcDbEntity
8
0
100
AcDbLine
10
251.31436430908437
20
-79.878485312896586
30
0
11
251.31436430908437
21
-93.064199595311763
31
0
0
SPLINE
5
370
100
AcDbEntity
8
0
100
AcDbSpline
70
0
71
3
72
8
73
4
74
0
42
0.000000001
43
0.0000000001
44
0.0000000001
40
5
40
5
40
5
40
5
40
6
40
6
40
6
40
6
10
250.80722145206852
20
-93.571342452329489
30
0
10
251.08730871798474
20
-93.571342452329489
30
0
10
251.31436430908437
20
-93.344286861230486
30
0
10
251.31436430908437
20
-93.064199595311763
30
0
0
LINE
5
371
100
AcDbEntity
8
0
100
AcDbLine
10
250.80722145206852
20
-93.571342452329489
30
0
11
237.62150716965269
21
-93.571342452329489
31
0
0
SPLINE
5
372
100
AcDbEntity
8
0
100
AcDbSpline
70
0
71
3
72
8
73
4
74
0
42
0.000000001
43
0.0000000001
44
0.0000000001
40
3
40
3
40
3
40
3
40
4
40
4
40
4
40
4
10
237.11436431263562
20
-93.064199595311763
30
0
10
237.11436431263562
20
-93.344286861230486
30
0
10
237.3414199037353
20
-93.571342452329489
30
0
10
237.62150716965269
20
-93.571342452329489
30
0
0
LINE
5
373
100
AcDbEntity
8
0
100
AcDbLine
10
89.476864312633836
20
-112.11419959531362
30
0
11
89.476864312633836
21
-98.928485312896797
31
0
0
SPLINE
5
374
100
AcDbEntity
8
0
100
AcDbSpline
70
0
71
3
72
8
73
4
74
0
42
0.000000001
43
0.0000000001
44
0.0000000001
40
1
40
1
40
1
40
1
40
2
40
2
40
2
40
2
10
89.984007169649956
20
-98.42134245587971
30
0
10
89.703919903732526
20
-98.42134245587971
30
0
10
89.476864312633836
20
-98.648398046981299
30
0
10
89.476864312633836
20
-98.928485312896797
30
0
0
LINE
5
375
100
AcDbEntity
8
0
100
AcDbLine
10
89.984007169649956
20
-98.42134245587971
30
0
11
103.1697214520667
21
-98.42134245587971
31
0
0
SPLINE
5
376
100
AcDbEntity
8
0
100
AcDbSpline
70
0
71
3
72
8
73
4
74
0
42
0.000000001
43
0.0000000001
44
0.0000000001
40
7
40
7
40
7
40
7
40
8
40
8
40
8
40
8
10
103.6768643090838
20
-98.928485312896797
30
0
10
103.6768643090838
20
-98.648398046981299
30
0
10
103.4498087179832
20
-98.42134245587971
30
0
10
103.1697214520667
20
-98.42134245587971
30
0
0
LINE
5
377
100
AcDbEntity
8
0
100
AcDbLine
10
103.6768643090838
20
-98.928485312896797
30
0
11
103.6768643090838
21
-112.11419959531362
31
0
0
SPLINE
5
378
100
AcDbEntity
8
0
100
AcDbSpline
70
0
71
3
72
8
73
4
74
0
42
0.000000001
43
0.0000000001
44
0.0000000001
40
5
40
5
40
5
40
5
40
6
40
6
40
6
40
6
10
103.1697214520667
20
-112.62134245232943
30
0
10
103.4498087179832
20
-112.62134245232943
30
0
10
103.6768643090838
20
-112.39428686122591
30
0
10
103.6768643090838
20
-112.11419959531362
30
0
0
LINE
5
379
100
AcDbEntity
8
0
100
AcDbLine
10
103.1697214520667
20
-112.62134245232943
30
0
11
89.984007169649956
21
-112.62134245232943
31
0
0
SPLINE
5
380
100
AcDbEntity
8
0
100
AcDbSpline
70
0
71
3
72
8
73
4
74
0
42
0.000000001
43
0.0000000001
44
0.0000000001
40
3
40
3
40
3
40
3
40
4
40
4
40
4
40
4
10
89.476864312633836
20
-112.11419959531362
30
0
10
89.476864312633836
20
-112.39428686122591
30
0
10
89.703919903732526
20
-112.62134245232943
30
0
10
89.984007169649956
20
-112.62134245232943
30
0
0
LINE
5
381
100
AcDbEntity
8
0
100
AcDbLine
10
222.82686431263329
20
-112.11419959531362
30
0
11
222.82686431263329
21
-98.928485312896797
31
0
0
SPLINE
5
382
100
AcDbEntity
8
0
100
AcDbSpline
70
0
71
3
72
8
73
4
74
0
42
0.000000001
43
0.0000000001
44
0.0000000001
40
1
40
1
40
1
40
1
40
2
40
2
40
2
40
2
10
223.33400716965423
20
-98.421342455880989
30
0
10
223.05391990373803
20
-98.421342455880989
30
0
10
222.82686431263329
20
-98.648398046979366
30
0
10
222.82686431263329
20
-98.928485312896797
30
0
0
LINE
5
383
100
AcDbEntity
8
0
100
AcDbLine
10
223.33400716965423
20
-98.421342455880989
30
0
11
236.51972145207
21
-98.421342455880989
31
0
0
SPLINE
5
384
100
AcDbEntity
8
0
100
AcDbSpline
70
0
71
3
72
8
73
4
74
0
42
0.000000001
43
0.0000000001
44
0.0000000001
40
7
40
7
40
7
40
7
40
8
40
8
40
8
40
8
10
237.02686430908324
20
-98.928485312896797
30
0
10
237.02686430908324
20
-98.648398046979366
30
0
10
236.79980871798364
20
-98.421342455880989
30
0
10
236.51972145207
20
-98.421342455880989
30
0
0
LINE
5
385
100
AcDbEntity
8
0
100
AcDbLine
10
237.02686430908324
20
-98.928485312896797
30
0
11
237.02686430908324
21
-112.11419959531362
31
0
0
SPLINE
5
386
100
AcDbEntity
8
0
100
AcDbSpline
70
0
71
3
72
8
73
4
74
0
42
0.000000001
43
0.0000000001
44
0.0000000001
40
5
40
5
40
5
40
5
40
6
40
6
40
6
40
6
10
236.51972145206742
20
-112.62134245232943
30
0
10
236.79980871798364
20
-112.62134245232943
30
0
10
237.02686430908324
20
-112.39428686122591
30
0
10
237.02686430908324
20
-112.11419959531362
30
0
0
LINE
5
387
100
AcDbEntity
8
0
100
AcDbLine
10
236.51972145206742
20
-112.62134245232943
30
0
11
223.33400716965423
21
-112.62134245232943
31
0
0
SPLINE
5
388
100
AcDbEntity
8
0
100
AcDbSpline
70
0
71
3
72
8
73
4
74
0
42
0.000000001
43
0.0000000001
44
0.0000000001
40
3
40
3
40
3
40
3
40
4
40
4
40
4
40
4
10
222.82686431263329
20
-112.11419959531362
30
0
10
222.82686431263329
20
-112.39428686122591
30
0
10
223.05391990373803
20
-112.62134245232943
30
0
10
223.33400716965423
20
-112.62134245232943
30
0
0
LINE
5
389
100
AcDbEntity
8
0
100
AcDbLine
10
284.73936431263547
20
-112.11419959531362
30
0
11
284.73936431263547
21
-98.928485312896797
31
0
0
SPLINE
5
390
100
AcDbEntity
8
0
100
AcDbSpline
70
0
71
3
72
8
73
4
74
0
42
0.000000001
43
0.0000000001
44
0.0000000001
40
0
40
0
40
0
40
0
40
1
40
1
40
1
40
1
10
285.24650716965249
20
-98.421342455880989
30
0
10
284.96641990373507
20
-98.421342455880989
30
0
10
284.73936431263547
20
-98.648398046979366
30
0
10
284.73936431263547
20
-98.928485312896797
30
0
0
LINE
5
391
100
AcDbEntity
8
0
100
AcDbLine
10
285.24650716965249
20
-98.421342455880989
30
0
11
298.43222145206971
21
-98.421342455880989
31
0
0
SPLINE
5
392
100
AcDbEntity
8
0
100
AcDbSpline
70
0
71
3
72
8
73
4
74
0
42
0.000000001
43
0.0000000001
44
0.0000000001
40
2
40
2
40
2
40
2
40
3
40
3
40
3
40
3
10
298.93936430908548
20
-98.928485312896797
30
0
10
298.93936430908548
20
-98.648398046979366
30
0
10
298.71230871798207
20
-98.421342455880989
30
0
10
298.43222145206971
20
-98.421342455880989
30
0
0
LINE
5
393
100
AcDbEntity
8
0
100
AcDbLine
10
298.93936430908548
20
-98.928485312896797
30
0
11
298.93936430908548
21
-112.11419959531362
31
0
0
SPLINE
5
394
100
AcDbEntity
8
0
100
AcDbSpline
70
0
71
3
72
8
73
4
74
0
42
0.000000001
43
0.0000000001
44
0.0000000001
40
4
40
4
40
4
40
4
40
5
40
5
40
5
40
5
10
298.43222145206971
20
-112.62134245232943
30
0
10
298.71230871798207
20
-112.62134245232943
30
0
10
298.93936430908548
20
-112.39428686122591
30
0
10
298.93936430908548
20
-112.11419959531362
30
0
0
LINE
5
395
100
AcDbEntity
8
0
100
AcDbLine
10
298.43222145206971
20
-112.62134245232943
30
0
11
285.24650716965249
21
-112.62134245232943
31
0
0
SPLINE
5
396
100
AcDbEntity
8
0
100
AcDbSpline
70
0
71
3
72
8
73
4
74
0
42
0.000000001
43
0.0000000001
44
0.0000000001
40
6
40
6
40
6
40
6
40
7
40
7
40
7
40
7
10
284.73936431263547
20
-112.11419959531362
30
0
10
284.73936431263547
20
-112.39428686122591
30
0
10
284.96641990373507
20
-112.62134245232943
30
0
10
285.24650716965249
20
-112.62134245232943
30
0
0
LINE
5
397
100
AcDbEntity
8
0
100
AcDbLine
10
60.901864312633251
20
-131.16419959531379
30
0
11
60.901864312633251
21
-117.9784853128954
31
0
0
SPLINE
5
398
100
AcDbEntity
8
0
100
AcDbSpline
70
0
71
3
72
8
73
4
74
0
42
0.000000001
43
0.0000000001
44
0.0000000001
40
1
40
1
40
1
40
1
40
2
40
2
40
2
40
2
10
61.409007169650323
20
-117.47134245588093
30
0
10
61.12891990373322
20
-117.47134245588093
30
0
10
60.901864312633251
20
-117.69839804698051
30
0
10
60.901864312633251
20
-117.9784853128954
30
0
0
LINE
5
399
100
AcDbEntity
8
0
100
AcDbLine
10
61.409007169650323
20
-117.47134245588093
30
0
11
74.594721452067432
21
-117.47134245588093
31
0
0
SPLINE
5
400
100
AcDbEntity
8
0
100
AcDbSpline
70
0
71
3
72
8
73
4
74
0
42
0.000000001
43
0.0000000001
44
0.0000000001
40
7
40
7
40
7
40
7
40
8
40
8
40
8
40
8
10
75.101864309083211
20
-117.9784853128954
30
0
10
75.101864309083211
20
-117.69839804698051
30
0
10
74.874808717983569
20
-117.47134245588093
30
0
10
74.594721452067432
20
-117.47134245588093
30
0
0
LINE
5
401
100
AcDbEntity
8
0
100
AcDbLine
10
75.101864309083211
20
-117.9784853128954
30
0
11
75.101864309083211
21
-131.16419959531379
31
0
0
SPLINE
5
402
100
AcDbEntity
8
0
100
AcDbSpline
70
0
71
3
72
8
73
4
74
0
42
0.000000001
43
0.0000000001
44
0.0000000001
40
5
40
5
40
5
40
5
40
6
40
6
40
6
40
6
10
74.594721452067432
20
-131.67134245232961
30
0
10
74.874808717983569
20
-131.67134245232961
30
0
10
75.101864309083211
20
-131.44428686122993
30
0
10
75.101864309083211
20
-131.16419959531379
30
0
0
LINE
5
403
100
AcDbEntity
8
0
100
AcDbLine
10
74.594721452067432
20
-131.67134245232961
30
0
11
61.409007169650323
21
-131.67134245232961
31
0
0
SPLINE
5
404
100
AcDbEntity
8
0
100
AcDbSpline
70
0
71
3
72
8
73
4
74
0
42
0.000000001
43
0.0000000001
44
0.0000000001
40
3
40
3
40
3
40
3
40
4
40
4
40
4
40
4
10
60.901864312633251
20
-131.16419959531379
30
0
10
60.901864312633251
20
-131.44428686122993
30
0
10
61.12891990373322
20
-131.67134245232961
30
0
10
61.409007169650323
20
-131.67134245232961
30
0
0
LINE
5
405
100
AcDbEntity
8
0
100
AcDbLine
10
156.1518643126326
20
-131.16419959531379
30
0
11
156.1518643126326
21
-117.9784853128954
31
0
0
SPLINE
5
406
100
AcDbEntity
8
0
100
AcDbSpline
70
0
71
3
72
8
73
4
74
0
42
0.000000001
43
0.0000000001
44
0.0000000001
40
1
40
1
40
1
40
1
40
2
40
2
40
2
40
2
10
156.6590071696497
20
-117.47134245588093
30
0
10
156.37891990373291
20
-117.47134245588093
30
0
10
156.1518643126326
20
-117.69839804698051
30
0
10
156.1518643126326
20
-117.9784853128954
30
0
0
LINE
5
407
100
AcDbEntity
8
0
100
AcDbLine
10
156.6590071696497
20
-117.47134245588093
30
0
11
169.84472145206681
21
-117.47134245588093
31
0
0
SPLINE
5
408
100
AcDbEntity
8
0
100
AcDbSpline
70
0
71
3
72
8
73
4
74
0
42
0.000000001
43
0.0000000001
44
0.0000000001
40
7
40
7
40
7
40
7
40
8
40
8
40
8
40
8
10
170.35186430908394
20
-117.9784853128954
30
0
10
170.35186430908394
20
-117.69839804698051
30
0
10
170.12480871798229
20
-117.47134245588093
30
0
10
169.84472145206681
20
-117.47134245588093
30
0
0
LINE
5
409
100
AcDbEntity
8
0
100
AcDbLine
10
170.35186430908394
20
-117.9784853128954
30
0
11
170.35186430908394
21
-131.16419959531379
31
0
0
SPLINE
5
410
100
AcDbEntity
8
0
100
AcDbSpline
70
0
71
3
72
8
73
4
74
0
42
0.000000001
43
0.0000000001
44
0.0000000001
40
5
40
5
40
5
40
5
40
6
40
6
40
6
40
6
10
169.84472145206681
20
-131.67134245232961
30
0
10
170.12480871798229
20
-131.67134245232961
30
0
10
170.35186430908394
20
-131.44428686122993
30
0
10
170.35186430908394
20
-131.16419959531379
30
0
0
LINE
5
411
100
AcDbEntity
8
0
100
AcDbLine
10
169.84472145206681
20
-131.67134245232961
30
0
11
156.6590071696497
21
-131.67134245232961
31
0
0
SPLINE
5
412
100
AcDbEntity
8
0
100
AcDbSpline
70
0
71
3
72
8
73
4
74
0
42
0.000000001
43
0.0000000001
44
0.0000000001
40
3
40
3
40
3
40
3
40
4
40
4
40
4
40
4
10
156.1518643126326
20
-131.16419959531379
30
0
10
156.1518643126326
20
-131.44428686122993
30
0
10
156.37891990373291
20
-131.67134245232961
30
0
10
156.6590071696497
20
-131.67134245232961
30
0
0
LINE
5
413
100
AcDbEntity
8
0
100
AcDbLine
10
227.58936431263621
20
-74.014199595313499
30
0
11
227.58936431263621
21
-60.828485312896404
31
0
0
SPLINE
5
414
100
AcDbEntity
8
0
100
AcDbSpline
70
0
71
3
72
8
73
4
74
0
42
0.000000001
43
0.0000000001
44
0.0000000001
40
1
40
1
40
1
40
1
40
2
40
2
40
2
40
2
10
228.096507169652
20
-60.321342455878693
30
0
10
227.81641990373461
20
-60.321342455878693
30
0
10
227.58936431263621
20
-60.548398046977695
30
0
10
227.58936431263621
20
-60.828485312896404
30
0
0
LINE
5
415
100
AcDbEntity
8
0
100
AcDbLine
10
228.096507169652
20
-60.321342455878693
30
0
11
241.28222145206911
21
-60.321342455878693
31
0
0
SPLINE
5
416
100
AcDbEntity
8
0
100
AcDbSpline
70
0
71
3
72
8
73
4
74
0
42
0.000000001
43
0.0000000001
44
0.0000000001
40
7
40
7
40
7
40
7
40
8
40
8
40
8
40
8
10
241.78936430908493
20
-60.828485312896404
30
0
10
241.78936430908493
20
-60.548398046977695
30
0
10
241.56230871798272
20
-60.321342455878693
30
0
10
241.28222145206911
20
-60.321342455878693
30
0
0
LINE
5
417
100
AcDbEntity
8
0
100
AcDbLine
10
241.78936430908493
20
-60.828485312896404
30
0
11
241.78936430908493
21
-74.014199595313499
31
0
0
SPLINE
5
418
100
AcDbEntity
8
0
100
AcDbSpline
70
0
71
3
72
8
73
4
74
0
42
0.000000001
43
0.0000000001
44
0.0000000001
40
5
40
5
40
5
40
5
40
6
40
6
40
6
40
6
10
241.28222145206911
20
-74.521342452329293
30
0
10
241.56230871798272
20
-74.521342452329293
30
0
10
241.78936430908493
20
-74.294286861229665
30
0
10
241.78936430908493
20
-74.014199595313499
30
0
0
LINE
5
419
100
AcDbEntity
8
0
100
AcDbLine
10
241.28222145206911
20
-74.521342452329293
30
0
11
228.096507169652
21
-74.521342452329293
31
0
0
SPLINE
5
420
100
AcDbEntity
8
0
100
AcDbSpline
70
0
71
3
72
8
73
4
74
0
42
0.000000001
43
0.0000000001
44
0.0000000001
40
3
40
3
40
3
40
3
40
4
40
4
40
4
40
4
10
227.58936431263621
20
-74.014199595313499
30
0
10
227.58936431263621
20
-74.294286861229665
30
0
10
227.81641990373461
20
-74.521342452329293
30
0
10
228.096507169652
20
-74.521342452329293
30
0
0
LINE
5
421
100
AcDbEntity
8
0
100
AcDbLine
10
194.25186431263359
20
-131.16419959531379
30
0
11
194.25186431263359
21
-117.97848531289672
31
0
0
SPLINE
5
422
100
AcDbEntity
8
0
100
AcDbSpline
70
0
71
3
72
8
73
4
74
0
42
0.000000001
43
0.0000000001
44
0.0000000001
40
1
40
1
40
1
40
1
40
2
40
2
40
2
40
2
10
194.75900716965072
20
-117.47134245588093
30
0
10
194.47891990373333
20
-117.47134245588093
30
0
10
194.25186431263359
20
-117.69839804698051
30
0
10
194.25186431263359
20
-117.97848531289672
30
0
0
LINE
5
423
100
AcDbEntity
8
0
100
AcDbLine
10
194.75900716965072
20
-117.47134245588093
30
0
11
207.94472145206652
21
-117.47134245588093
31
0
0
SPLINE
5
424
100
AcDbEntity
8
0
100
AcDbSpline
70
0
71
3
72
8
73
4
74
0
42
0.000000001
43
0.0000000001
44
0.0000000001
40
7
40
7
40
7
40
7
40
8
40
8
40
8
40
8
10
208.45186430908365
20
-117.97848531289672
30
0
10
208.45186430908365
20
-117.69839804698051
30
0
10
208.22480871798274
20
-117.47134245588093
30
0
10
207.94472145206652
20
-117.47134245588093
30
0
0
LINE
5
425
100
AcDbEntity
8
0
100
AcDbLine
10
208.45186430908365
20
-117.97848531289672
30
0
11
208.45186430908365
21
-131.16419959531379
31
0
0
SPLINE
5
426
100
AcDbEntity
8
0
100
AcDbSpline
70
0
71
3
72
8
73
4
74
0
42
0.000000001
43
0.0000000001
44
0.0000000001
40
5
40
5
40
5
40
5
40
6
40
6
40
6
40
6
10
207.94472145206652
20
-131.67134245232961
30
0
10
208.22480871798274
20
-131.67134245232961
30
0
10
208.45186430908365
20
-131.44428686122993
30
0
10
208.45186430908365
20
-131.16419959531379
30
0
0
LINE
5
427
100
AcDbEntity
8
0
100
AcDbLine
10
207.94472145206652
20
-131.67134245232961
30
0
11
194.75900716965072
21
-131.67134245232961
31
0
0
SPLINE
5
428
100
AcDbEntity
8
0
100
AcDbSpline
70
0
71
3
72
8
73
4
74
0
42
0.000000001
43
0.0000000001
44
0.0000000001
40
3
40
3
40
3
40
3
40
4
40
4
40
4
40
4
10
194.25186431263359
20
-131.16419959531379
30
0
10
194.25186431263359
20
-131.44428686122993
30
0
10
194.47891990373333
20
-131.67134245232961
30
0
10
194.75900716965072
20
-131.67134245232961
30
0
0
LINE
5
429
100
AcDbEntity
8
0
100
AcDbLine
10
161.42150716965202
20
-79.371342455878874
30
0
11
174.60722145206913
21
-79.371342455878874
31
0
0
SPLINE
5
430
100
AcDbEntity
8
0
100
AcDbSpline
70
0
71
3
72
8
73
4
74
0
42
0.000000001
43
0.0000000001
44
0.0000000001
40
1
40
1
40
1
40
1
40
2
40
2
40
2
40
2
10
175.11436430908489
20
-79.878485312896586
30
0
10
175.11436430908489
20
-79.598398046977877
30
0
10
174.8873087179814
20
-79.371342455878874
30
0
10
174.60722145206913
20
-79.371342455878874
30
0
0
LINE
5
431
100
AcDbEntity
8
0
100
AcDbLine
10
175.11436430908489
20
-79.878485312896586
30
0
11
175.11436430908489
21
-93.064199595313056
31
0
0
SPLINE
5
432
100
AcDbEntity
8
0
100
AcDbSpline
70
0
71
3
72
8
73
4
74
0
42
0.000000001
43
0.0000000001
44
0.0000000001
40
7
40
7
40
7
40
7
40
8
40
8
40
8
40
8
10
174.60722145206913
20
-93.571342452329489
30
0
10
174.8873087179814
20
-93.571342452329489
30
0
10
175.11436430908489
20
-93.344286861230486
30
0
10
175.11436430908489
20
-93.064199595313056
30
0
0
LINE
5
433
100
AcDbEntity
8
0
100
AcDbLine
10
174.60722145206913
20
-93.571342452329489
30
0
11
161.42150716965202
21
-93.571342452329489
31
0
0
SPLINE
5
434
100
AcDbEntity
8
0
100
AcDbSpline
70
0
71
3
72
8
73
4
74
0
42
0.000000001
43
0.0000000001
44
0.0000000001
40
5
40
5
40
5
40
5
40
6
40
6
40
6
40
6
10
160.9143643126362
20
-93.064199595313056
30
0
10
160.9143643126362
20
-93.344286861230486
30
0
10
161.14141990373523
20
-93.571342452329489
30
0
10
161.42150716965202
20
-93.571342452329489
30
0
0
LINE
5
435
100
AcDbEntity
8
0
100
AcDbLine
10
160.9143643126362
20
-93.064199595313056
30
0
11
160.9143643126362
21
-79.878485312896586
31
0
0
SPLINE
5
436
100
AcDbEntity
8
0
100
AcDbSpline
70
0
71
3
72
8
73
4
74
0
42
0.000000001
43
0.0000000001
44
0.0000000001
40
3
40
3
40
3
40
3
40
4
40
4
40
4
40
4
10
161.42150716965202
20
-79.371342455878874
30
0
10
161.14141990373523
20
-79.371342455878874
30
0
10
160.9143643126362
20
-79.598398046977877
30
0
10
160.9143643126362
20
-79.878485312896586
30
0
0
LINE
5
437
100
AcDbEntity
8
0
100
AcDbLine
10
128.08400716965033
20
-98.421342455880989
30
0
11
141.26972145206781
21
-98.421342455880989
31
0
0
SPLINE
5
438
100
AcDbEntity
8
0
100
AcDbSpline
70
0
71
3
72
8
73
4
74
0
42
0.000000001
43
0.0000000001
44
0.0000000001
40
1
40
1
40
1
40
1
40
2
40
2
40
2
40
2
10
141.77686430908321
20
-98.928485312896797
30
0
10
141.77686430908321
20
-98.648398046981299
30
0
10
141.54980871798361
20
-98.421342455880989
30
0
10
141.26972145206781
20
-98.421342455880989
30
0
0
LINE
5
439
100
AcDbEntity
8
0
100
AcDbLine
10
141.77686430908321
20
-98.928485312896797
30
0
11
141.77686430908321
21
-112.11419959531362
31
0
0
SPLINE
5
440
100
AcDbEntity
8
0
100
AcDbSpline
70
0
71
3
72
8
73
4
74
0
42
0.000000001
43
0.0000000001
44
0.0000000001
40
7
40
7
40
7
40
7
40
8
40
8
40
8
40
8
10
141.26972145206781
20
-112.62134245232943
30
0
10
141.54980871798361
20
-112.62134245232943
30
0
10
141.77686430908321
20
-112.39428686122591
30
0
10
141.77686430908321
20
-112.11419959531362
30
0
0
LINE
5
441
100
AcDbEntity
8
0
100
AcDbLine
10
141.26972145206781
20
-112.62134245232943
30
0
11
128.08400716965033
21
-112.62134245232943
31
0
0
SPLINE
5
442
100
AcDbEntity
8
0
100
AcDbSpline
70
0
71
3
72
8
73
4
74
0
42
0.000000001
43
0.0000000001
44
0.0000000001
40
5
40
5
40
5
40
5
40
6
40
6
40
6
40
6
10
127.57686431263332
20
-112.11419959531362
30
0
10
127.57686431263332
20
-112.39428686122591
30
0
10
127.80391990373391
20
-112.62134245232943
30
0
10
128.08400716965033
20
-112.62134245232943
30
0
0
LINE
5
443
100
AcDbEntity
8
0
100
AcDbLine
10
127.57686431263332
20
-112.11419959531362
30
0
11
127.57686431263332
21
-98.928485312896797
31
0
0
SPLINE
5
444
100
AcDbEntity
8
0
100
AcDbSpline
70
0
71
3
72
8
73
4
74
0
42
0.000000001
43
0.0000000001
44
0.0000000001
40
3
40
3
40
3
40
3
40
4
40
4
40
4
40
4
10
128.08400716965033
20
-98.421342455880989
30
0
10
127.80391990373391
20
-98.421342455880989
30
0
10
127.57686431263332
20
-98.648398046981299
30
0
10
127.57686431263332
20
-98.928485312896797
30
0
0
LINE
5
445
100
AcDbEntity
8
0
100
AcDbLine
10
46.614364312634706
20
-93.064199595313056
30
0
11
46.614364312634706
21
-79.878485312895947
31
0
0
SPLINE
5
446
100
AcDbEntity
8
0
100
AcDbSpline
70
0
71
3
72
8
73
4
74
0
42
0.000000001
43
0.0000000001
44
0.0000000001
40
0
40
0
40
0
40
0
40
1
40
1
40
1
40
1
10
47.121507169651771
20
-79.371342455878874
30
0
10
46.841419903734348
20
-79.371342455878874
30
0
10
46.614364312634706
20
-79.598398046979156
30
0
10
46.614364312634706
20
-79.878485312895947
30
0
0
LINE
5
447
100
AcDbEntity
8
0
100
AcDbLine
10
47.121507169651771
20
-79.371342455878874
30
0
11
60.307221452068873
21
-79.371342455878874
31
0
0
SPLINE
5
448
100
AcDbEntity
8
0
100
AcDbSpline
70
0
71
3
72
8
73
4
74
0
42
0.000000001
43
0.0000000001
44
0.0000000001
40
2
40
2
40
2
40
2
40
3
40
3
40
3
40
3
10
60.81436430908532
20
-79.878485312895947
30
0
10
60.81436430908532
20
-79.598398046979156
30
0
10
60.58730871798118
20
-79.371342455878874
30
0
10
60.307221452068873
20
-79.371342455878874
30
0
0
LINE
5
449
100
AcDbEntity
8
0
100
AcDbLine
10
60.81436430908532
20
-79.878485312895947
30
0
11
60.81436430908532
21
-93.064199595313056
31
0
0
SPLINE
5
450
100
AcDbEntity
8
0
100
AcDbSpline
70
0
71
3
72
8
73
4
74
0
42
0.000000001
43
0.0000000001
44
0.0000000001
40
4
40
4
40
4
40
4
40
5
40
5
40
5
40
5
10
60.30722145206888
20
-93.571342452328864
30
0
10
60.58730871798118
20
-93.571342452328864
30
0
10
60.81436430908532
20
-93.344286861230486
30
0
10
60.81436430908532
20
-93.064199595313056
30
0
0
LINE
5
451
100
AcDbEntity
8
0
100
AcDbLine
10
60.30722145206888
20
-93.571342452328864
30
0
11
47.121507169651771
21
-93.571342452328864
31
0
0
SPLINE
5
452
100
AcDbEntity
8
0
100
AcDbSpline
70
0
71
3
72
8
73
4
74
0
42
0.000000001
43
0.0000000001
44
0.0000000001
40
6
40
6
40
6
40
6
40
7
40
7
40
7
40
7
10
46.614364312634706
20
-93.064199595313056
30
0
10
46.614364312634706
20
-93.344286861230486
30
0
10
46.841419903734348
20
-93.571342452328864
30
0
10
47.121507169651771
20
-93.571342452328864
30
0
0
LINE
5
453
100
AcDbEntity
8
0
100
AcDbLine
10
122.8143643126355
20
-93.064199595313696
30
0
11
122.8143643126355
21
-79.878485312895947
31
0
0
SPLINE
5
454
100
AcDbEntity
8
0
100
AcDbSpline
70
0
71
3
72
8
73
4
74
0
42
0.000000001
43
0.0000000001
44
0.0000000001
40
0
40
0
40
0
40
0
40
1
40
1
40
1
40
1
10
123.3215071696474
20
-79.371342455878874
30
0
10
123.04141990373452
20
-79.371342455878874
30
0
10
122.8143643126355
20
-79.598398046977877
30
0
10
122.8143643126355
20
-79.878485312895947
30
0
0
LINE
5
455
100
AcDbEntity
8
0
100
AcDbLine
10
123.3215071696474
20
-79.371342455878874
30
0
11
136.50722145206959
21
-79.371342455878874
31
0
0
SPLINE
5
456
100
AcDbEntity
8
0
100
AcDbSpline
70
0
71
3
72
8
73
4
74
0
42
0.000000001
43
0.0000000001
44
0.0000000001
40
2
40
2
40
2
40
2
40
3
40
3
40
3
40
3
10
137.01436430908544
20
-79.878485312895947
30
0
10
137.01436430908544
20
-79.598398046977877
30
0
10
136.7873087179826
20
-79.371342455878874
30
0
10
136.50722145206959
20
-79.371342455878874
30
0
0
LINE
5
457
100
AcDbEntity
8
0
100
AcDbLine
10
137.01436430908544
20
-79.878485312895947
30
0
11
137.01436430908544
21
-93.064199595313696
31
0
0
SPLINE
5
458
100
AcDbEntity
8
0
100
AcDbSpline
70
0
71
3
72
8
73
4
74
0
42
0.000000001
43
0.0000000001
44
0.0000000001
40
4
40
4
40
4
40
4
40
5
40
5
40
5
40
5
10
136.50722145206959
20
-93.571342452329489
30
0
10
136.7873087179826
20
-93.571342452329489
30
0
10
137.01436430908544
20
-93.344286861230486
30
0
10
137.01436430908544
20
-93.064199595313696
30
0
0
LINE
5
459
100
AcDbEntity
8
0
100
AcDbLine
10
136.50722145206959
20
-93.571342452329489
30
0
11
123.3215071696474
21
-93.571342452329489
31
0
0
SPLINE
5
460
100
AcDbEntity
8
0
100
AcDbSpline
70
0
71
3
72
8
73
4
74
0
42
0.000000001
43
0.0000000001
44
0.0000000001
40
6
40
6
40
6
40
6
40
7
40
7
40
7
40
7
10
122.8143643126355
20
-93.064199595313696
30
0
10
122.8143643126355
20
-93.344286861230486
30
0
10
123.04141990373452
20
-93.571342452329489
30
0
10
123.3215071696474
20
-93.571342452329489
30
0
0
LINE
5
461
100
AcDbEntity
8
0
100
AcDbLine
10
284.73936431263547
20
-74.014199595313499
30
0
11
284.73936431263547
21
-60.828485312894486
31
0
0
SPLINE
5
462
100
AcDbEntity
8
0
100
AcDbSpline
70
0
71
3
72
8
73
4
74
0
42
0.000000001
43
0.0000000001
44
0.0000000001
40
1
40
1
40
1
40
1
40
2
40
2
40
2
40
2
10
285.2465071696513
20
-60.321342455878693
30
0
10
284.9664199037345
20
-60.321342455878693
30
0
10
284.73936431263547
20
-60.548398046977695
30
0
10
284.73936431263547
20
-60.828485312894486
30
0
0
LINE
5
463
100
AcDbEntity
8
0
100
AcDbLine
10
285.2465071696513
20
-60.321342455878693
30
0
11
298.43222145206971
21
-60.321342455878693
31
0
0
SPLINE
5
464
100
AcDbEntity
8
0
100
AcDbSpline
70
0
71
3
72
8
73
4
74
0
42
0.000000001
43
0.0000000001
44
0.0000000001
40
7
40
7
40
7
40
7
40
8
40
8
40
8
40
8
10
298.93936430908548
20
-60.828485312894486
30
0
10
298.93936430908548
20
-60.548398046977695
30
0
10
298.71230871798264
20
-60.321342455878693
30
0
10
298.43222145206971
20
-60.321342455878693
30
0
0
LINE
5
465
100
AcDbEntity
8
0
100
AcDbLine
10
298.93936430908548
20
-60.828485312894486
30
0
11
298.93936430908548
21
-74.014199595313499
31
0
0
SPLINE
5
466
100
AcDbEntity
8
0
100
AcDbSpline
70
0
71
3
72
8
73
4
74
0
42
0.000000001
43
0.0000000001
44
0.0000000001
40
5
40
5
40
5
40
5
40
6
40
6
40
6
40
6
10
298.43222145206971
20
-74.5213424523306
30
0
10
298.71230871798264
20
-74.5213424523306
30
0
10
298.93936430908548
20
-74.294286861231569
30
0
10
298.93936430908548
20
-74.014199595313499
30
0
0
LINE
5
467
100
AcDbEntity
8
0
100
AcDbLine
10
298.43222145206971
20
-74.5213424523306
30
0
11
285.2465071696513
21
-74.5213424523306
31
0
0
SPLINE
5
468
100
AcDbEntity
8
0
100
AcDbSpline
70
0
71
3
72
8
73
4
74
0
42
0.000000001
43
0.0000000001
44
0.0000000001
40
3
40
3
40
3
40
3
40
4
40
4
40
4
40
4
10
284.73936431263547
20
-74.014199595313499
30
0
10
284.73936431263547
20
-74.294286861231569
30
0
10
284.9664199037345
20
-74.5213424523306
30
0
10
285.2465071696513
20
-74.5213424523306
30
0
0
LINE
5
469
100
AcDbEntity
8
0
100
AcDbLine
10
247.14650716965224
20
-136.52134245588101
30
0
11
260.33222145206798
21
-136.52134245588101
31
0
0
SPLINE
5
470
100
AcDbEntity
8
0
100
AcDbSpline
70
0
71
3
72
8
73
4
74
0
42
0.000000001
43
0.0000000001
44
0.0000000001
40
1
40
1
40
1
40
1
40
2
40
2
40
2
40
2
10
260.83936430908511
20
-137.02848531289681
30
0
10
260.83936430908511
20
-136.7483980469807
30
0
10
260.61230871798409
20
-136.52134245588101
30
0
10
260.33222145206798
20
-136.52134245588101
30
0
0
LINE
5
471
100
AcDbEntity
8
0
100
AcDbLine
10
260.83936430908511
20
-137.02848531289681
30
0
11
260.83936430908511
21
-150.21419959531141
31
0
0
SPLINE
5
472
100
AcDbEntity
8
0
100
AcDbSpline
70
0
71
3
72
8
73
4
74
0
42
0.000000001
43
0.0000000001
44
0.0000000001
40
7
40
7
40
7
40
7
40
8
40
8
40
8
40
8
10
260.33222145206798
20
-150.72134245232854
30
0
10
260.61230871798409
20
-150.72134245232854
30
0
10
260.83936430908511
20
-150.49428686122883
30
0
10
260.83936430908511
20
-150.21419959531141
30
0
0
LINE
5
473
100
AcDbEntity
8
0
100
AcDbLine
10
260.33222145206798
20
-150.72134245232854
30
0
11
247.14650716965224
21
-150.72134245232854
31
0
0
SPLINE
5
474
100
AcDbEntity
8
0
100
AcDbSpline
70
0
71
3
72
8
73
4
74
0
42
0.000000001
43
0.0000000001
44
0.0000000001
40
5
40
5
40
5
40
5
40
6
40
6
40
6
40
6
10
246.63936431263511
20
-150.21419959531141
30
0
10
246.63936431263511
20
-150.49428686122883
30
0
10
246.86641990373474
20
-150.72134245232854
30
0
10
247.14650716965224
20
-150.72134245232854
30
0
0
LINE
5
475
100
AcDbEntity
8
0
100
AcDbLine
10
246.63936431263511
20
-150.21419959531141
30
0
11
246.63936431263511
21
-137.02848531289681
31
0
0
SPLINE
5
476
100
AcDbEntity
8
0
100
AcDbSpline
70
0
71
3
72
8
73
4
74
0
42
0.000000001
43
0.0000000001
44
0.0000000001
40
3
40
3
40
3
40
3
40
4
40
4
40
4
40
4
10
247.14650716965224
20
-136.52134245588101
30
0
10
246.86641990373474
20
-136.52134245588101
30
0
10
246.63936431263511
20
-136.7483980469807
30
0
10
246.63936431263511
20
-137.02848531289681
30
0
0
LINE
5
477
100
AcDbEntity
8
0
100
AcDbLine
10
254.32636431086081
20
-76.421342454105286
30
0
11
247.23936431086082
21
-76.421342454105286
31
0
0
SPLINE
5
478
100
AcDbEntity
8
0
100
AcDbSpline
70
0
71
3
72
8
73
4
74
0
42
0.000000001
43
0.0000000001
44
0.0000000001
40
0
40
0
40
0
40
0
40
1
40
1
40
1
40
1
10
246.73936431086051
20
-75.92134245410432
30
0
10
246.73936431086051
20
-76.197484829021363
30
0
10
246.9632219359444
20
-76.421342454105286
30
0
10
247.23936431086082
20
-76.421342454105286
30
0
0
LINE
5
479
100
AcDbEntity
8
0
100
AcDbLine
10
246.73936431086051
20
-75.92134245410432
30
0
11
246.73936431086051
21
-60.921342454104405
31
0
0
SPLINE
5
480
100
AcDbEntity
8
0
100
AcDbSpline
70
0
71
3
72
8
73
4
74
0
42
0.000000001
43
0.0000000001
44
0.0000000001
40
14
40
14
40
14
40
14
40
15
40
15
40
15
40
15
10
247.23936431086082
20
-60.421342454104703
30
0
10
246.9632219359444
20
-60.421342454104703
30
0
10
246.73936431086051
20
-60.645200079187958
30
0
10
246.73936431086051
20
-60.921342454104405
30
0
0
LINE
5
481
100
AcDbEntity
8
0
100
AcDbLine
10
247.23936431086082
20
-60.421342454104703
30
0
11
279.28936431086078
21
-60.421342454104703
31
0
0
SPLINE
5
482
100
AcDbEntity
8
0
100
AcDbSpline
70
0
71
3
72
8
73
4
74
0
42
0.000000001
43
0.0000000001
44
0.0000000001
40
12
40
12
40
12
40
12
40
13
40
13
40
13
40
13
10
279.78936431086117
20
-60.921342454104405
30
0
10
279.78936431086117
20
-60.645200079187958
30
0
10
279.56550668577728
20
-60.421342454104703
30
0
10
279.28936431086078
20
-60.421342454104703
30
0
0
LINE
5
483
100
AcDbEntity
8
0
100
AcDbLine
10
279.78936431086117
20
-60.921342454104405
30
0
11
279.78936431086117
21
-75.92134245410432
31
0
0
SPLINE
5
484
100
AcDbEntity
8
0
100
AcDbSpline
70
0
71
3
72
8
73
4
74
0
42
0.000000001
43
0.0000000001
44
0.0000000001
40
10
40
10
40
10
40
10
40
11
40
11
40
11
40
11
10
279.28936431086078
20
-76.421342454105286
30
0
10
279.56550668577341
20
-76.421342454105286
30
0
10
279.78936431086117
20
-76.197484829021363
30
0
10
279.78936431086117
20
-75.92134245410432
30
0
0
LINE
5
485
100
AcDbEntity
8
0
100
AcDbLine
10
279.28936431086078
20
-76.421342454105286
30
0
11
272.20236431086079
21
-76.421342454105286
31
0
0
SPLINE
5
486
100
AcDbEntity
8
0
100
AcDbSpline
70
0
71
3
72
8
73
4
74
0
42
0.000000001
43
0.0000000001
44
0.0000000001
40
8
40
8
40
8
40
8
40
9
40
9
40
9
40
9
10
271.70236431086056
20
-75.92134245410432
30
0
10
271.70236431086056
20
-76.197484829021363
30
0
10
271.9262219359444
20
-76.421342454105286
30
0
10
272.20236431086079
20
-76.421342454105286
30
0
0
LINE
5
487
100
AcDbEntity
8
0
100
AcDbLine
10
271.70236431086056
20
-75.92134245410432
30
0
11
271.70236431086056
21
-74.921342454103609
31
0
0
SPLINE
5
488
100
AcDbEntity
8
0
100
AcDbSpline
70
0
71
3
72
8
73
4
74
0
42
0.000000001
43
0.0000000001
44
0.0000000001
40
6
40
6
40
6
40
6
40
7
40
7
40
7
40
7
10
271.20236431086022
20
-74.421342454105201
30
0
10
271.47850668577399
20
-74.421342454105201
30
0
10
271.70236431086056
20
-74.645200079187191
30
0
10
271.70236431086056
20
-74.921342454103609
30
0
0
LINE
5
489
100
AcDbEntity
8
0
100
AcDbLine
10
271.20236431086022
20
-74.421342454105201
30
0
11
255.32636431086019
21
-74.421342454105201
31
0
0
SPLINE
5
490
100
AcDbEntity
8
0
100
AcDbSpline
70
0
71
3
72
8
73
4
74
0
42
0.000000001
43
0.0000000001
44
0.0000000001
40
4
40
4
40
4
40
4
40
5
40
5
40
5
40
5
10
254.82636431086121
20
-74.921342454103609
30
0
10
254.82636431086121
20
-74.645200079187191
30
0
10
255.05022193594382
20
-74.421342454105201
30
0
10
255.32636431086019
20
-74.421342454105201
30
0
0
LINE
5
491
100
AcDbEntity
8
0
100
AcDbLine
10
254.82636431086121
20
-74.921342454103609
30
0
11
254.82636431086121
21
-75.92134245410432
31
0
0
SPLINE
5
492
100
AcDbEntity
8
0
100
AcDbSpline
70
0
71
3
72
8
73
4
74
0
42
0.000000001
43
0.0000000001
44
0.0000000001
40
2
40
2
40
2
40
2
40
3
40
3
40
3
40
3
10
254.32636431086081
20
-76.421342454105286
30
0
10
254.60250668577737
20
-76.421342454105286
30
0
10
254.82636431086121
20
-76.197484829021363
30
0
10
254.82636431086121
20
-75.92134245410432
30
0
0
LINE
5
493
100
AcDbEntity
8
0
100
AcDbLine
10
80.459007169649865
20
-117.47134245588093
30
0
11
93.644721452067614
21
-117.47134245588093
31
0
0
SPLINE
5
494
100
AcDbEntity
8
0
100
AcDbSpline
70
0
71
3
72
8
73
4
74
0
42
0.000000001
43
0.0000000001
44
0.0000000001
40
1
40
1
40
1
40
1
40
2
40
2
40
2
40
2
10
94.151864309083408
20
-117.9784853128954
30
0
10
94.151864309083408
20
-117.69839804698051
30
0
10
93.92480871798503
20
-117.47134245588093
30
0
10
93.644721452067614
20
-117.47134245588093
30
0
0
LINE
5
495
100
AcDbEntity
8
0
100
AcDbLine
10
94.151864309083408
20
-117.9784853128954
30
0
11
94.151864309083408
21
-131.16419959531379
31
0
0
SPLINE
5
496
100
AcDbEntity
8
0
100
AcDbSpline
70
0
71
3
72
8
73
4
74
0
42
0.000000001
43
0.0000000001
44
0.0000000001
40
7
40
7
40
7
40
7
40
8
40
8
40
8
40
8
10
93.644721452067614
20
-131.67134245232961
30
0
10
93.92480871798503
20
-131.67134245232961
30
0
10
94.151864309083408
20
-131.44428686123121
30
0
10
94.151864309083408
20
-131.16419959531379
30
0
0
LINE
5
497
100
AcDbEntity
8
0
100
AcDbLine
10
93.644721452067614
20
-131.67134245232961
30
0
11
80.459007169649865
21
-131.67134245232961
31
0
0
SPLINE
5
498
100
AcDbEntity
8
0
100
AcDbSpline
70
0
71
3
72
8
73
4
74
0
42
0.000000001
43
0.0000000001
44
0.0000000001
40
5
40
5
40
5
40
5
40
6
40
6
40
6
40
6
10
79.951864312633433
20
-131.16419959531379
30
0
10
79.951864312633433
20
-131.44428686123121
30
0
10
80.178919903733075
20
-131.67134245232961
30
0
10
80.459007169649865
20
-131.67134245232961
30
0
0
LINE
5
499
100
AcDbEntity
8
0
100
AcDbLine
10
79.951864312633433
20
-131.16419959531379
30
0
11
79.951864312633433
21
-117.9784853128954
31
0
0
SPLINE
5
500
100
AcDbEntity
8
0
100
AcDbSpline
70
0
71
3
72
8
73
4
74
0
42
0.000000001
43
0.0000000001
44
0.0000000001
40
3
40
3
40
3
40
3
40
4
40
4
40
4
40
4
10
80.459007169649865
20
-117.47134245588093
30
0
10
80.178919903733075
20
-117.47134245588093
30
0
10
79.951864312633433
20
-117.69839804698051
30
0
10
79.951864312633433
20
-117.9784853128954
30
0
0
LINE
5
501
100
AcDbEntity
8
0
100
AcDbLine
10
118.05186431263451
20
-131.16419959531379
30
0
11
118.05186431263451
21
-117.9784853128954
31
0
0
SPLINE
5
502
100
AcDbEntity
8
0
100
AcDbSpline
70
0
71
3
72
8
73
4
74
0
42
0.000000001
43
0.0000000001
44
0.0000000001
40
1
40
1
40
1
40
1
40
2
40
2
40
2
40
2
10
118.5590071696509
20
-117.47134245587959
30
0
10
118.27891990373351
20
-117.47134245587959
30
0
10
118.05186431263451
20
-117.69839804698051
30
0
10
118.05186431263451
20
-117.9784853128954
30
0
0
LINE
5
503
100
AcDbEntity
8
0
100
AcDbLine
10
118.5590071696509
20
-117.47134245587959
30
0
11
131.7447214520667
21
-117.47134245587959
31
0
0
SPLINE
5
504
100
AcDbEntity
8
0
100
AcDbSpline
70
0
71
3
72
8
73
4
74
0
42
0.000000001
43
0.0000000001
44
0.0000000001
40
7
40
7
40
7
40
7
40
8
40
8
40
8
40
8
10
132.25186430908249
20
-117.9784853128954
30
0
10
132.25186430908249
20
-117.69839804698051
30
0
10
132.02480871798289
20
-117.47134245587959
30
0
10
131.7447214520667
20
-117.47134245587959
30
0
0
LINE
5
505
100
AcDbEntity
8
0
100
AcDbLine
10
132.25186430908249
20
-117.9784853128954
30
0
11
132.25186430908249
21
-131.16419959531379
31
0
0
SPLINE
5
506
100
AcDbEntity
8
0
100
AcDbSpline
70
0
71
3
72
8
73
4
74
0
42
0.000000001
43
0.0000000001
44
0.0000000001
40
5
40
5
40
5
40
5
40
6
40
6
40
6
40
6
10
131.7447214520667
20
-131.67134245232961
30
0
10
132.02480871798289
20
-131.67134245232961
30
0
10
132.25186430908249
20
-131.44428686122993
30
0
10
132.25186430908249
20
-131.16419959531379
30
0
0
LINE
5
507
100
AcDbEntity
8
0
100
AcDbLine
10
131.7447214520667
20
-131.67134245232961
30
0
11
118.5590071696509
21
-131.67134245232961
31
0
0
SPLINE
5
508
100
AcDbEntity
8
0
100
AcDbSpline
70
0
71
3
72
8
73
4
74
0
42
0.000000001
43
0.0000000001
44
0.0000000001
40
3
40
3
40
3
40
3
40
4
40
4
40
4
40
4
10
118.05186431263451
20
-131.16419959531379
30
0
10
118.05186431263451
20
-131.44428686122993
30
0
10
118.27891990373351
20
-131.67134245232961
30
0
10
118.5590071696509
20
-131.67134245232961
30
0
0
LINE
5
509
100
AcDbEntity
8
0
100
AcDbLine
10
170.4393643126356
20
-74.014199595313499
30
0
11
170.4393643126356
21
-60.828485312896404
31
0
0
SPLINE
5
510
100
AcDbEntity
8
0
100
AcDbSpline
70
0
71
3
72
8
73
4
74
0
42
0.000000001
43
0.0000000001
44
0.0000000001
40
1
40
1
40
1
40
1
40
2
40
2
40
2
40
2
10
170.9465071696514
20
-60.321342455878693
30
0
10
170.66641990373594
20
-60.321342455878693
30
0
10
170.4393643126356
20
-60.548398046977695
30
0
10
170.4393643126356
20
-60.828485312896404
30
0
0
LINE
5
511
100
AcDbEntity
8
0
100
AcDbLine
10
170.9465071696514
20
-60.321342455878693
30
0
11
184.1322214520724
21
-60.321342455878693
31
0
0
SPLINE
5
512
100
AcDbEntity
8
0
100
AcDbSpline
70
0
71
3
72
8
73
4
74
0
42
0.000000001
43
0.0000000001
44
0.0000000001
40
7
40
7
40
7
40
7
40
8
40
8
40
8
40
8
10
184.63936430908561
20
-60.828485312896404
30
0
10
184.63936430908561
20
-60.548398046977695
30
0
10
184.41230871798274
20
-60.321342455878693
30
0
10
184.1322214520724
20
-60.321342455878693
30
0
0
LINE
5
513
100
AcDbEntity
8
0
100
AcDbLine
10
184.63936430908561
20
-60.828485312896404
30
0
11
184.63936430908561
21
-74.014199595313499
31
0
0
SPLINE
5
514
100
AcDbEntity
8
0
100
AcDbSpline
70
0
71
3
72
8
73
4
74
0
42
0.000000001
43
0.0000000001
44
0.0000000001
40
5
40
5
40
5
40
5
40
6
40
6
40
6
40
6
10
184.1322214520724
20
-74.521342452329293
30
0
10
184.41230871798274
20
-74.521342452329293
30
0
10
184.63936430908561
20
-74.294286861229665
30
0
10
184.63936430908561
20
-74.014199595313499
30
0
0
LINE
5
515
100
AcDbEntity
8
0
100
AcDbLine
10
184.1322214520724
20
-74.521342452329293
30
0
11
170.9465071696514
21
-74.521342452329293
31
0
0
SPLINE
5
516
100
AcDbEntity
8
0
100
AcDbSpline
70
0
71
3
72
8
73
4
74
0
42
0.000000001
43
0.0000000001
44
0.0000000001
40
3
40
3
40
3
40
3
40
4
40
4
40
4
40
4
10
170.4393643126356
20
-74.014199595313499
30
0
10
170.4393643126356
20
-74.294286861229665
30
0
10
170.66641990373594
20
-74.521342452329293
30
0
10
170.9465071696514
20
-74.521342452329293
30
0
0
LINE
5
517
100
AcDbEntity
8
0
100
AcDbLine
10
42.35900716965012
20
-117.47134245588093
30
0
11
55.544721452067236
21
-117.47134245588093
31
0
0
SPLINE
5
518
100
AcDbEntity
8
0
100
AcDbSpline
70
0
71
3
72
8
73
4
74
0
42
0.000000001
43
0.0000000001
44
0.0000000001
40
1
40
1
40
1
40
1
40
2
40
2
40
2
40
2
10
56.051864309083676
20
-117.97848531289672
30
0
10
56.051864309083676
20
-117.69839804698051
30
0
10
55.82480871798402
20
-117.47134245588093
30
0
10
55.544721452067236
20
-117.47134245588093
30
0
0
LINE
5
519
100
AcDbEntity
8
0
100
AcDbLine
10
56.051864309083676
20
-117.97848531289672
30
0
11
56.051864309083655
21
-131.16419959531379
31
0
0
SPLINE
5
520
100
AcDbEntity
8
0
100
AcDbSpline
70
0
71
3
72
8
73
4
74
0
42
0.000000001
43
0.0000000001
44
0.0000000001
40
7
40
7
40
7
40
7
40
8
40
8
40
8
40
8
10
55.544721452067236
20
-131.67134245232961
30
0
10
55.82480871798402
20
-131.67134245232961
30
0
10
56.051864309083676
20
-131.44428686122993
30
0
10
56.051864309083655
20
-131.16419959531379
30
0
0
LINE
5
521
100
AcDbEntity
8
0
100
AcDbLine
10
55.544721452067236
20
-131.67134245232961
30
0
11
42.35900716965012
21
-131.67134245232961
31
0
0
SPLINE
5
522
100
AcDbEntity
8
0
100
AcDbSpline
70
0
71
3
72
8
73
4
74
0
42
0.000000001
43
0.0000000001
44
0.0000000001
40
5
40
5
40
5
40
5
40
6
40
6
40
6
40
6
10
41.85186431263304
20
-131.16419959531379
30
0
10
41.85186431263304
20
-131.44428686122993
30
0
10
42.078919903732697
20
-131.67134245232961
30
0
10
42.35900716965012
20
-131.67134245232961
30
0
0
LINE
5
523
100
AcDbEntity
8
0
100
AcDbLine
10
41.85186431263304
20
-131.16419959531379
30
0
11
41.85186431263304
21
-117.97848531289672
31
0
0
SPLINE
5
524
100
AcDbEntity
8
0
100
AcDbSpline
70
0
71
3
72
8
73
4
74
0
42
0.000000001
43
0.0000000001
44
0.0000000001
40
3
40
3
40
3
40
3
40
4
40
4
40
4
40
4
10
42.35900716965012
20
-117.47134245588093
30
0
10
42.078919903732697
20
-117.47134245588093
30
0
10
41.85186431263304
20
-117.69839804698051
30
0
10
41.85186431263304
20
-117.97848531289672
30
0
0
LINE
5
525
100
AcDbEntity
8
0
100
AcDbLine
10
108.52686431263309
20
-112.11419959531362
30
0
11
108.52686431263309
21
-98.928485312896797
31
0
0
SPLINE
5
526
100
AcDbEntity
8
0
100
AcDbSpline
70
0
71
3
72
8
73
4
74
0
42
0.000000001
43
0.0000000001
44
0.0000000001
40
1
40
1
40
1
40
1
40
2
40
2
40
2
40
2
10
109.03400716965021
20
-98.421342455880989
30
0
10
108.75391990373271
20
-98.421342455880989
30
0
10
108.52686431263309
20
-98.648398046979366
30
0
10
108.52686431263309
20
-98.928485312896797
30
0
0
LINE
5
527
100
AcDbEntity
8
0
100
AcDbLine
10
109.03400716965021
20
-98.421342455880989
30
0
11
122.21972145206658
21
-98.421342455880989
31
0
0
SPLINE
5
528
100
AcDbEntity
8
0
100
AcDbSpline
70
0
71
3
72
8
73
4
74
0
42
0.000000001
43
0.0000000001
44
0.0000000001
40
7
40
7
40
7
40
7
40
8
40
8
40
8
40
8
10
122.7268643090831
20
-98.928485312896797
30
0
10
122.7268643090831
20
-98.648398046979366
30
0
10
122.49980871798341
20
-98.421342455880989
30
0
10
122.21972145206658
20
-98.421342455880989
30
0
0
LINE
5
529
100
AcDbEntity
8
0
100
AcDbLine
10
122.7268643090831
20
-98.928485312896797
30
0
11
122.7268643090831
21
-112.11419959531362
31
0
0
SPLINE
5
530
100
AcDbEntity
8
0
100
AcDbSpline
70
0
71
3
72
8
73
4
74
0
42
0.000000001
43
0.0000000001
44
0.0000000001
40
5
40
5
40
5
40
5
40
6
40
6
40
6
40
6
10
122.21972145206661
20
-112.62134245232943
30
0
10
122.49980871798341
20
-112.62134245232943
30
0
10
122.7268643090831
20
-112.39428686122591
30
0
10
122.7268643090831
20
-112.11419959531362
30
0
0
LINE
5
531
100
AcDbEntity
8
0
100
AcDbLine
10
122.21972145206661
20
-112.62134245232943
30
0
11
109.03400716965021
21
-112.62134245232943
31
0
0
SPLINE
5
532
100
AcDbEntity
8
0
100
AcDbSpline
70
0
71
3
72
8
73
4
74
0
42
0.000000001
43
0.0000000001
44
0.0000000001
40
3
40
3
40
3
40
3
40
4
40
4
40
4
40
4
10
108.52686431263309
20
-112.11419959531362
30
0
10
108.52686431263309
20
-112.39428686122591
30
0
10
108.75391990373271
20
-112.62134245232943
30
0
10
109.03400716965021
20
-112.62134245232943
30
0
0
LINE
5
533
100
AcDbEntity
8
0
100
AcDbLine
10
137.10186431263276
20
-131.16419959531379
30
0
11
137.10186431263276
21
-117.9784853128954
31
0
0
SPLINE
5
534
100
AcDbEntity
8
0
100
AcDbSpline
70
0
71
3
72
8
73
4
74
0
42
0.000000001
43
0.0000000001
44
0.0000000001
40
1
40
1
40
1
40
1
40
2
40
2
40
2
40
2
10
137.60900716964881
20
-117.47134245587959
30
0
10
137.32891990373241
20
-117.47134245587959
30
0
10
137.10186431263276
20
-117.69839804697921
30
0
10
137.10186431263276
20
-117.9784853128954
30
0
0
LINE
5
535
100
AcDbEntity
8
0
100
AcDbLine
10
137.60900716964881
20
-117.47134245587959
30
0
11
150.79472145206722
21
-117.47134245587959
31
0
0
SPLINE
5
536
100
AcDbEntity
8
0
100
AcDbSpline
70
0
71
3
72
8
73
4
74
0
42
0.000000001
43
0.0000000001
44
0.0000000001
40
7
40
7
40
7
40
7
40
8
40
8
40
8
40
8
10
151.30186430908299
20
-117.9784853128954
30
0
10
151.30186430908299
20
-117.69839804697921
30
0
10
151.07480871798461
20
-117.47134245587959
30
0
10
150.79472145206722
20
-117.47134245587959
30
0
0
LINE
5
537
100
AcDbEntity
8
0
100
AcDbLine
10
151.30186430908299
20
-117.9784853128954
30
0
11
151.30186430908299
21
-131.16419959531379
31
0
0
SPLINE
5
538
100
AcDbEntity
8
0
100
AcDbSpline
70
0
71
3
72
8
73
4
74
0
42
0.000000001
43
0.0000000001
44
0.0000000001
40
5
40
5
40
5
40
5
40
6
40
6
40
6
40
6
10
150.79472145206722
20
-131.67134245232961
30
0
10
151.07480871798461
20
-131.67134245232961
30
0
10
151.30186430908299
20
-131.44428686123121
30
0
10
151.30186430908299
20
-131.16419959531379
30
0
0
LINE
5
539
100
AcDbEntity
8
0
100
AcDbLine
10
150.79472145206722
20
-131.67134245232961
30
0
11
137.60900716964881
21
-131.67134245232961
31
0
0
SPLINE
5
540
100
AcDbEntity
8
0
100
AcDbSpline
70
0
71
3
72
8
73
4
74
0
42
0.000000001
43
0.0000000001
44
0.0000000001
40
3
40
3
40
3
40
3
40
4
40
4
40
4
40
4
10
137.10186431263276
20
-131.16419959531379
30
0
10
137.10186431263276
20
-131.44428686123121
30
0
10
137.32891990373241
20
-131.67134245232961
30
0
10
137.60900716964881
20
-131.67134245232961
30
0
0
LINE
5
541
100
AcDbEntity
8
0
100
AcDbLine
10
284.73936431263485
20
-93.064199595313056
30
0
11
284.73936431263485
21
-79.878485312895947
31
0
0
SPLINE
5
542
100
AcDbEntity
8
0
100
AcDbSpline
70
0
71
3
72
8
73
4
74
0
42
0.000000001
43
0.0000000001
44
0.0000000001
40
1
40
1
40
1
40
1
40
2
40
2
40
2
40
2
10
285.2465071696513
20
-79.371342455878874
30
0
10
284.96641990373507
20
-79.371342455878874
30
0
10
284.73936431263485
20
-79.598398046977877
30
0
10
284.73936431263485
20
-79.878485312895947
30
0
0
LINE
5
543
100
AcDbEntity
8
0
100
AcDbLine
10
285.2465071696513
20
-79.371342455878874
30
0
11
298.43222145206897
21
-79.371342455878874
31
0
0
SPLINE
5
544
100
AcDbEntity
8
0
100
AcDbSpline
70
0
71
3
72
8
73
4
74
0
42
0.000000001
43
0.0000000001
44
0.0000000001
40
7
40
7
40
7
40
7
40
8
40
8
40
8
40
8
10
298.93936430908423
20
-79.878485312895947
30
0
10
298.93936430908423
20
-79.598398046977877
30
0
10
298.71230871798264
20
-79.371342455878874
30
0
10
298.43222145206897
20
-79.371342455878874
30
0
0
LINE
5
545
100
AcDbEntity
8
0
100
AcDbLine
10
298.93936430908423
20
-79.878485312895947
30
0
11
298.93936430908423
21
-93.064199595313056
31
0
0
SPLINE
5
546
100
AcDbEntity
8
0
100
AcDbSpline
70
0
71
3
72
8
73
4
74
0
42
0.000000001
43
0.0000000001
44
0.0000000001
40
5
40
5
40
5
40
5
40
6
40
6
40
6
40
6
10
298.43222145206897
20
-93.571342452329489
30
0
10
298.71230871798264
20
-93.571342452329489
30
0
10
298.93936430908423
20
-93.344286861230486
30
0
10
298.93936430908423
20
-93.064199595313056
30
0
0
LINE
5
547
100
AcDbEntity
8
0
100
AcDbLine
10
298.43222145206897
20
-93.571342452329489
30
0
11
285.2465071696513
21
-93.571342452329489
31
0
0
SPLINE
5
548
100
AcDbEntity
8
0
100
AcDbSpline
70
0
71
3
72
8
73
4
74
0
42
0.000000001
43
0.0000000001
44
0.0000000001
40
3
40
3
40
3
40
3
40
4
40
4
40
4
40
4
10
284.73936431263485
20
-93.064199595313056
30
0
10
284.73936431263485
20
-93.344286861230486
30
0
10
284.96641990373507
20
-93.571342452329489
30
0
10
285.2465071696513
20
-93.571342452329489
30
0
0
LINE
5
549
100
AcDbEntity
8
0
100
AcDbLine
10
18.039364312635051
20
-74.01419959531286
30
0
11
18.039364312635051
21
-60.828485312895111
31
0
0
SPLINE
5
550
100
AcDbEntity
8
0
100
AcDbSpline
70
0
71
3
72
8
73
4
74
0
42
0.000000001
43
0.0000000001
44
0.0000000001
40
1
40
1
40
1
40
1
40
2
40
2
40
2
40
2
10
18.546507169652131
20
-60.321342455879325
30
0
10
18.2664199037347
20
-60.321342455879325
30
0
10
18.039364312635051
20
-60.548398046978974
30
0
10
18.039364312635051
20
-60.828485312895111
30
0
0
LINE
5
551
100
AcDbEntity
8
0
100
AcDbLine
10
18.546507169652131
20
-60.321342455879325
30
0
11
31.732221452069279
21
-60.321342455879325
31
0
0
SPLINE
5
552
100
AcDbEntity
8
0
100
AcDbSpline
70
0
71
3
72
8
73
4
74
0
42
0.000000001
43
0.0000000001
44
0.0000000001
40
7
40
7
40
7
40
7
40
8
40
8
40
8
40
8
10
32.239364309085033
20
-60.828485312895111
30
0
10
32.239364309085033
20
-60.548398046978974
30
0
10
32.012308717981533
20
-60.321342455879325
30
0
10
31.732221452069279
20
-60.321342455879325
30
0
0
LINE
5
553
100
AcDbEntity
8
0
100
AcDbLine
10
32.239364309085033
20
-60.828485312895111
30
0
11
32.239364309085033
21
-74.01419959531286
31
0
0
SPLINE
5
554
100
AcDbEntity
8
0
100
AcDbSpline
70
0
71
3
72
8
73
4
74
0
42
0.000000001
43
0.0000000001
44
0.0000000001
40
5
40
5
40
5
40
5
40
6
40
6
40
6
40
6
10
31.732221452069243
20
-74.521342452329947
30
0
10
32.012308717981533
20
-74.521342452329947
30
0
10
32.239364309085033
20
-74.294286861228358
30
0
10
32.239364309085033
20
-74.01419959531286
30
0
0
LINE
5
555
100
AcDbEntity
8
0
100
AcDbLine
10
31.732221452069243
20
-74.521342452329947
30
0
11
18.546507169652131
21
-74.521342452329947
31
0
0
SPLINE
5
556
100
AcDbEntity
8
0
100
AcDbSpline
70
0
71
3
72
8
73
4
74
0
42
0.000000001
43
0.0000000001
44
0.0000000001
40
3
40
3
40
3
40
3
40
4
40
4
40
4
40
4
10
18.039364312635051
20
-74.01419959531286
30
0
10
18.039364312635051
20
-74.294286861228358
30
0
10
18.2664199037347
20
-74.521342452329947
30
0
10
18.546507169652131
20
-74.521342452329947
30
0
0
LINE
5
557
100
AcDbEntity
8
0
100
AcDbLine
10
99.509007169649436
20
-117.47134245587959
30
0
11
112.69472145206812
21
-117.47134245587959
31
0
0
SPLINE
5
558
100
AcDbEntity
8
0
100
AcDbSpline
70
0
71
3
72
8
73
4
74
0
42
0.000000001
43
0.0000000001
44
0.0000000001
40
1
40
1
40
1
40
1
40
2
40
2
40
2
40
2
10
113.20186430908362
20
-117.9784853128954
30
0
10
113.20186430908362
20
-117.69839804698051
30
0
10
112.97480871798392
20
-117.47134245587959
30
0
10
112.69472145206812
20
-117.47134245587959
30
0
0
LINE
5
559
100
AcDbEntity
8
0
100
AcDbLine
10
113.20186430908362
20
-117.9784853128954
30
0
11
113.20186430908362
21
-131.16419959531379
31
0
0
SPLINE
5
560
100
AcDbEntity
8
0
100
AcDbSpline
70
0
71
3
72
8
73
4
74
0
42
0.000000001
43
0.0000000001
44
0.0000000001
40
7
40
7
40
7
40
7
40
8
40
8
40
8
40
8
10
112.69472145206812
20
-131.67134245232961
30
0
10
112.97480871798392
20
-131.67134245232961
30
0
10
113.20186430908362
20
-131.44428686123121
30
0
10
113.20186430908362
20
-131.16419959531379
30
0
0
LINE
5
561
100
AcDbEntity
8
0
100
AcDbLine
10
112.69472145206812
20
-131.67134245232961
30
0
11
99.509007169649436
21
-131.67134245232961
31
0
0
SPLINE
5
562
100
AcDbEntity
8
0
100
AcDbSpline
70
0
71
3
72
8
73
4
74
0
42
0.000000001
43
0.0000000001
44
0.0000000001
40
5
40
5
40
5
40
5
40
6
40
6
40
6
40
6
10
99.001864312633643
20
-131.16419959531379
30
0
10
99.001864312633643
20
-131.44428686123121
30
0
10
99.228919903732645
20
-131.67134245232961
30
0
10
99.509007169649436
20
-131.67134245232961
30
0
0
LINE
5
563
100
AcDbEntity
8
0
100
AcDbLine
10
99.001864312633643
20
-131.16419959531379
30
0
11
99.001864312633643
21
-117.9784853128954
31
0
0
SPLINE
5
564
100
AcDbEntity
8
0
100
AcDbSpline
70
0
71
3
72
8
73
4
74
0
42
0.000000001
43
0.0000000001
44
0.0000000001
40
3
40
3
40
3
40
3
40
4
40
4
40
4
40
4
10
99.509007169649436
20
-117.47134245587959
30
0
10
99.228919903732645
20
-117.47134245587959
30
0
10
99.001864312633643
20
-117.69839804698051
30
0
10
99.001864312633643
20
-117.9784853128954
30
0
0
LINE
5
565
100
AcDbEntity
8
0
100
AcDbLine
10
1.9706143108582004
20
-117.57134245410499
30
0
11
36.401864310858393
21
-117.57134245410499
31
0
0
SPLINE
5
566
100
AcDbEntity
8
0
100
AcDbSpline
70
0
71
3
72
8
73
4
74
0
42
0.000000001
43
0.0000000001
44
0.0000000001
40
1
40
1
40
1
40
1
40
2
40
2
40
2
40
2
10
36.901864310858727
20
-118.07134245410531
30
0
10
36.901864310858727
20
-117.7952000791889
30
0
10
36.678006685774832
20
-117.57134245410499
30
0
10
36.401864310858393
20
-117.57134245410499
30
0
0
LINE
5
567
100
AcDbEntity
8
0
100
AcDbLine
10
36.901864310858727
20
-118.07134245410531
30
0
11
36.901864310858734
21
-133.07134245410521
31
0
0
SPLINE
5
568
100
AcDbEntity
8
0
100
AcDbSpline
70
0
71
3
72
8
73
4
74
0
42
0.000000001
43
0.0000000001
44
0.0000000001
40
15
40
15
40
15
40
15
40
16
40
16
40
16
40
16
10
36.401864310858393
20
-133.57134245410549
30
0
10
36.678006685774832
20
-133.57134245410549
30
0
10
36.901864310858727
20
-133.3474848290216
30
0
10
36.901864310858734
20
-133.07134245410521
30
0
0
LINE
5
569
100
AcDbEntity
8
0
100
AcDbLine
10
36.401864310858393
20
-133.57134245410549
30
0
11
26.933614310858193
21
-133.57134245410549
31
0
0
SPLINE
5
570
100
AcDbEntity
8
0
100
AcDbSpline
70
0
71
3
72
8
73
4
74
0
42
0.000000001
43
0.0000000001
44
0.0000000001
40
13
40
13
40
13
40
13
40
14
40
14
40
14
40
14
10
26.433614310857863
20
-133.07134245410521
30
0
10
26.433614310857863
20
-133.3474848290216
30
0
10
26.65747193594175
20
-133.57134245410549
30
0
10
26.933614310858193
20
-133.57134245410549
30
0
0
LINE
5
571
100
AcDbEntity
8
0
100
AcDbLine
10
26.433614310857863
20
-133.07134245410521
30
0
11
26.433614310857863
21
-132.07134245410452
31
0
0
SPLINE
5
572
100
AcDbEntity
8
0
100
AcDbSpline
70
0
71
3
72
8
73
4
74
0
42
0.000000001
43
0.0000000001
44
0.0000000001
40
11
40
11
40
11
40
11
40
12
40
12
40
12
40
12
10
25.933614310857514
20
-131.57134245410549
30
0
10
26.209756685773968
20
-131.57134245410549
30
0
10
26.433614310857863
20
-131.79520007918941
30
0
10
26.433614310857863
20
-132.07134245410452
30
0
0
LINE
5
573
100
AcDbEntity
8
0
100
AcDbLine
10
25.933614310857514
20
-131.57134245410549
30
0
11
10.057614310857613
21
-131.57134245410549
31
0
0
SPLINE
5
574
100
AcDbEntity
8
0
100
AcDbSpline
70
0
71
3
72
8
73
4
74
0
42
0.000000001
43
0.0000000001
44
0.0000000001
40
9
40
9
40
9
40
9
40
10
40
10
40
10
40
10
10
9.5576143108572715
20
-132.07134245410452
30
0
10
9.5576143108572715
20
-131.79520007918941
30
0
10
9.7814719359411697
20
-131.57134245410549
30
0
10
10.057614310857613
20
-131.57134245410549
30
0
0
LINE
5
575
100
AcDbEntity
8
0
100
AcDbLine
10
9.5576143108572715
20
-132.07134245410452
30
0
11
9.5576143108572715
21
-133.07134245410521
31
0
0
SPLINE
5
576
100
AcDbEntity
8
0
100
AcDbSpline
70
0
71
3
72
8
73
4
74
0
42
0.000000001
43
0.0000000001
44
0.0000000001
40
7
40
7
40
7
40
7
40
8
40
8
40
8
40
8
10
9.0576143108582166
20
-133.57134245410549
30
0
10
9.3337566857733734
20
-133.57134245410549
30
0
10
9.5576143108572715
20
-133.3474848290216
30
0
10
9.5576143108572715
20
-133.07134245410521
30
0
0
LINE
5
577
100
AcDbEntity
8
0
100
AcDbLine
10
9.0576143108582166
20
-133.57134245410549
30
0
11
1.9706143108582008
21
-133.57134245410549
31
0
0
SPLINE
5
578
100
AcDbEntity
8
0
100
AcDbSpline
70
0
71
3
72
8
73
4
74
0
42
0.000000001
43
0.0000000001
44
0.0000000001
40
5
40
5
40
5
40
5
40
6
40
6
40
6
40
6
10
1.4706143108578624
20
-133.07134245410521
30
0
10
1.4706143108578624
20
-133.3474848290216
30
0
10
1.6944719359417602
20
-133.57134245410549
30
0
10
1.9706143108582004
20
-133.57134245410549
30
0
0
LINE
5
579
100
AcDbEntity
8
0
100
AcDbLine
10
1.4706143108578624
20
-133.07134245410521
30
0
11
1.4706143108578624
21
-118.07134245410531
31
0
0
SPLINE
5
580
100
AcDbEntity
8
0
100
AcDbSpline
70
0
71
3
72
8
73
4
74
0
42
0.000000001
43
0.0000000001
44
0.0000000001
40
3
40
3
40
3
40
3
40
4
40
4
40
4
40
4
10
1.9706143108582004
20
-117.57134245410499
30
0
10
1.6944719359417602
20
-117.57134245410499
30
0
10
1.4706143108578624
20
-117.7952000791889
30
0
10
1.4706143108578624
20
-118.07134245410531
30
0
0
LINE
5
581
100
AcDbEntity
8
0
100
AcDbLine
10
165.67686431263272
20
-112.11419959531362
30
0
11
165.67686431263272
21
-98.928485312895518
31
0
0
SPLINE
5
582
100
AcDbEntity
8
0
100
AcDbSpline
70
0
71
3
72
8
73
4
74
0
42
0.000000001
43
0.0000000001
44
0.0000000001
40
1
40
1
40
1
40
1
40
2
40
2
40
2
40
2
10
166.18400716964854
20
-98.42134245587971
30
0
10
165.90391990373172
20
-98.42134245587971
30
0
10
165.67686431263272
20
-98.648398046978727
30
0
10
165.67686431263272
20
-98.928485312895518
30
0
0
LINE
5
583
100
AcDbEntity
8
0
100
AcDbLine
10
166.18400716964854
20
-98.42134245587971
30
0
11
179.3697214520688
21
-98.42134245587971
31
0
0
SPLINE
5
584
100
AcDbEntity
8
0
100
AcDbSpline
70
0
71
3
72
8
73
4
74
0
42
0.000000001
43
0.0000000001
44
0.0000000001
40
7
40
7
40
7
40
7
40
8
40
8
40
8
40
8
10
179.87686430908462
20
-98.928485312895518
30
0
10
179.87686430908462
20
-98.648398046978727
30
0
10
179.64980871798431
20
-98.42134245587971
30
0
10
179.3697214520688
20
-98.42134245587971
30
0
0
LINE
5
585
100
AcDbEntity
8
0
100
AcDbLine
10
179.87686430908462
20
-98.928485312895518
30
0
11
179.87686430908462
21
-112.11419959531362
31
0
0
SPLINE
5
586
100
AcDbEntity
8
0
100
AcDbSpline
70
0
71
3
72
8
73
4
74
0
42
0.000000001
43
0.0000000001
44
0.0000000001
40
5
40
5
40
5
40
5
40
6
40
6
40
6
40
6
10
179.3697214520688
20
-112.62134245232943
30
0
10
179.64980871798431
20
-112.62134245232943
30
0
10
179.87686430908462
20
-112.3942868612271
30
0
10
179.87686430908462
20
-112.11419959531362
30
0
0
LINE
5
587
100
AcDbEntity
8
0
100
AcDbLine
10
179.3697214520688
20
-112.62134245232943
30
0
11
166.18400716964854
21
-112.62134245232943
31
0
0
SPLINE
5
588
100
AcDbEntity
8
0
100
AcDbSpline
70
0
71
3
72
8
73
4
74
0
42
0.000000001
43
0.0000000001
44
0.0000000001
40
3
40
3
40
3
40
3
40
4
40
4
40
4
40
4
10
165.67686431263272
20
-112.11419959531362
30
0
10
165.67686431263272
20
-112.3942868612271
30
0
10
165.90391990373172
20
-112.62134245232943
30
0
10
166.18400716964854
20
-112.62134245232943
30
0
0
LINE
5
589
100
AcDbEntity
8
0
100
AcDbLine
10
75.696507169650772
20
-60.321342455878693
30
0
11
88.88222145206916
21
-60.321342455878693
31
0
0
SPLINE
5
590
100
AcDbEntity
8
0
100
AcDbSpline
70
0
71
3
72
8
73
4
74
0
42
0.000000001
43
0.0000000001
44
0.0000000001
40
1
40
1
40
1
40
1
40
2
40
2
40
2
40
2
10
89.389364309084328
20
-60.828485312896404
30
0
10
89.389364309084328
20
-60.548398046977695
30
0
10
89.162308717982114
20
-60.321342455878693
30
0
10
88.88222145206916
20
-60.321342455878693
30
0
0
LINE
5
591
100
AcDbEntity
8
0
100
AcDbLine
10
89.389364309084328
20
-60.828485312896404
30
0
11
89.389364309084328
21
-74.014199595313499
31
0
0
SPLINE
5
592
100
AcDbEntity
8
0
100
AcDbSpline
70
0
71
3
72
8
73
4
74
0
42
0.000000001
43
0.0000000001
44
0.0000000001
40
7
40
7
40
7
40
7
40
8
40
8
40
8
40
8
10
88.88222145206916
20
-74.521342452329293
30
0
10
89.162308717982114
20
-74.521342452329293
30
0
10
89.389364309084328
20
-74.294286861229665
30
0
10
89.389364309084328
20
-74.014199595313499
30
0
0
LINE
5
593
100
AcDbEntity
8
0
100
AcDbLine
10
88.88222145206916
20
-74.521342452329293
30
0
11
75.696507169650772
21
-74.521342452329293
31
0
0
SPLINE
5
594
100
AcDbEntity
8
0
100
AcDbSpline
70
0
71
3
72
8
73
4
74
0
42
0.000000001
43
0.0000000001
44
0.0000000001
40
5
40
5
40
5
40
5
40
6
40
6
40
6
40
6
10
75.189364312635959
20
-74.014199595313499
30
0
10
75.189364312635959
20
-74.294286861229665
30
0
10
75.416419903734635
20
-74.521342452329293
30
0
10
75.696507169650772
20
-74.521342452329293
30
0
0
LINE
5
595
100
AcDbEntity
8
0
100
AcDbLine
10
75.189364312635959
20
-74.014199595313499
30
0
11
75.189364312635959
21
-60.828485312896404
31
0
0
SPLINE
5
596
100
AcDbEntity
8
0
100
AcDbSpline
70
0
71
3
72
8
73
4
74
0
42
0.000000001
43
0.0000000001
44
0.0000000001
40
3
40
3
40
3
40
3
40
4
40
4
40
4
40
4
10
75.696507169650772
20
-60.321342455878693
30
0
10
75.416419903734635
20
-60.321342455878693
30
0
10
75.189364312635959
20
-60.548398046977695
30
0
10
75.189364312635959
20
-60.828485312896404
30
0
0
LINE
5
597
100
AcDbEntity
8
0
100
AcDbLine
10
189.48936431263519
20
-74.014199595314139
30
0
11
189.48936431263519
21
-60.828485312895111
31
0
0
SPLINE
5
598
100
AcDbEntity
8
0
100
AcDbSpline
70
0
71
3
72
8
73
4
74
0
42
0.000000001
43
0.0000000001
44
0.0000000001
40
1
40
1
40
1
40
1
40
2
40
2
40
2
40
2
10
189.99650716965104
20
-60.321342455879325
30
0
10
189.71641990373422
20
-60.321342455879325
30
0
10
189.48936431263519
20
-60.548398046978974
30
0
10
189.48936431263519
20
-60.828485312895111
30
0
0
LINE
5
599
100
AcDbEntity
8
0
100
AcDbLine
10
189.99650716965104
20
-60.321342455879325
30
0
11
203.18222145206931
21
-60.321342455879325
31
0
0
SPLINE
5
600
100
AcDbEntity
8
0
100
AcDbSpline
70
0
71
3
72
8
73
4
74
0
42
0.000000001
43
0.0000000001
44
0.0000000001
40
7
40
7
40
7
40
7
40
8
40
8
40
8
40
8
10
203.68936430908514
20
-60.828485312895111
30
0
10
203.68936430908514
20
-60.548398046978974
30
0
10
203.4623087179861
20
-60.321342455879325
30
0
10
203.18222145206931
20
-60.321342455879325
30
0
0
LINE
5
601
100
AcDbEntity
8
0
100
AcDbLine
10
203.68936430908514
20
-60.828485312895111
30
0
11
203.68936430908514
21
-74.014199595314139
31
0
0
SPLINE
5
602
100
AcDbEntity
8
0
100
AcDbSpline
70
0
71
3
72
8
73
4
74
0
42
0.000000001
43
0.0000000001
44
0.0000000001
40
5
40
5
40
5
40
5
40
6
40
6
40
6
40
6
10
203.18222145206931
20
-74.521342452329947
30
0
10
203.4623087179861
20
-74.521342452329947
30
0
10
203.68936430908514
20
-74.29428686123029
30
0
10
203.68936430908514
20
-74.014199595314139
30
0
0
LINE
5
603
100
AcDbEntity
8
0
100
AcDbLine
10
203.18222145206931
20
-74.521342452329947
30
0
11
189.99650716965104
21
-74.521342452329947
31
0
0
SPLINE
5
604
100
AcDbEntity
8
0
100
AcDbSpline
70
0
71
3
72
8
73
4
74
0
42
0.000000001
43
0.0000000001
44
0.0000000001
40
3
40
3
40
3
40
3
40
4
40
4
40
4
40
4
10
189.48936431263519
20
-74.014199595314139
30
0
10
189.48936431263519
20
-74.29428686123029
30
0
10
189.71641990373422
20
-74.521342452329947
30
0
10
189.99650716965104
20
-74.521342452329947
30
0
0
LINE
5
605
100
AcDbEntity
8
0
100
AcDbLine
10
151.38936431263539
20
-74.01419959531286
30
0
11
151.38936431263539
21
-60.828485312895111
31
0
0
SPLINE
5
606
100
AcDbEntity
8
0
100
AcDbSpline
70
0
71
3
72
8
73
4
74
0
42
0.000000001
43
0.0000000001
44
0.0000000001
40
1
40
1
40
1
40
1
40
2
40
2
40
2
40
2
10
151.89650716965119
20
-60.321342455879325
30
0
10
151.61641990373511
20
-60.321342455879325
30
0
10
151.38936431263539
20
-60.548398046978974
30
0
10
151.38936431263539
20
-60.828485312895111
30
0
0
LINE
5
607
100
AcDbEntity
8
0
100
AcDbLine
10
151.89650716965119
20
-60.321342455879325
30
0
11
165.08222145206904
21
-60.321342455879325
31
0
0
SPLINE
5
608
100
AcDbEntity
8
0
100
AcDbSpline
70
0
71
3
72
8
73
4
74
0
42
0.000000001
43
0.0000000001
44
0.0000000001
40
7
40
7
40
7
40
7
40
8
40
8
40
8
40
8
10
165.58936430908614
20
-60.828485312895111
30
0
10
165.58936430908614
20
-60.548398046978974
30
0
10
165.36230871798193
20
-60.321342455879325
30
0
10
165.08222145206904
20
-60.321342455879325
30
0
0
LINE
5
609
100
AcDbEntity
8
0
100
AcDbLine
10
165.58936430908614
20
-60.828485312895111
30
0
11
165.58936430908614
21
-74.01419959531286
31
0
0
SPLINE
5
610
100
AcDbEntity
8
0
100
AcDbSpline
70
0
71
3
72
8
73
4
74
0
42
0.000000001
43
0.0000000001
44
0.0000000001
40
5
40
5
40
5
40
5
40
6
40
6
40
6
40
6
10
165.08222145206904
20
-74.521342452329947
30
0
10
165.36230871798193
20
-74.521342452329947
30
0
10
165.58936430908614
20
-74.294286861229025
30
0
10
165.58936430908614
20
-74.01419959531286
30
0
0
LINE
5
611
100
AcDbEntity
8
0
100
AcDbLine
10
165.08222145206904
20
-74.521342452329947
30
0
11
151.89650716965119
21
-74.521342452329947
31
0
0
SPLINE
5
612
100
AcDbEntity
8
0
100
AcDbSpline
70
0
71
3
72
8
73
4
74
0
42
0.000000001
43
0.0000000001
44
0.0000000001
40
3
40
3
40
3
40
3
40
4
40
4
40
4
40
4
10
151.38936431263539
20
-74.01419959531286
30
0
10
151.38936431263539
20
-74.294286861229025
30
0
10
151.61641990373511
20
-74.521342452329947
30
0
10
151.89650716965119
20
-74.521342452329947
30
0
0
LINE
5
613
100
AcDbEntity
8
0
100
AcDbLine
10
32.326864312633589
20
-112.11419959531362
30
0
11
32.326864312633589
21
-98.928485312895518
31
0
0
SPLINE
5
614
100
AcDbEntity
8
0
100
AcDbSpline
70
0
71
3
72
8
73
4
74
0
42
0.000000001
43
0.0000000001
44
0.0000000001
40
0
40
0
40
0
40
0
40
1
40
1
40
1
40
1
10
32.834007169649382
20
-98.421342455880989
30
0
10
32.553919903733252
20
-98.421342455880989
30
0
10
32.326864312633589
20
-98.648398046979366
30
0
10
32.326864312633589
20
-98.928485312895518
30
0
0
LINE
5
615
100
AcDbEntity
8
0
100
AcDbLine
10
32.834007169649382
20
-98.421342455880989
30
0
11
46.019721452067451
21
-98.421342455880989
31
0
0
SPLINE
5
616
100
AcDbEntity
8
0
100
AcDbSpline
70
0
71
3
72
8
73
4
74
0
42
0.000000001
43
0.0000000001
44
0.0000000001
40
2
40
2
40
2
40
2
40
3
40
3
40
3
40
3
10
46.526864309083571
20
-98.928485312895518
30
0
10
46.526864309083571
20
-98.648398046979366
30
0
10
46.299808717983908
20
-98.421342455880989
30
0
10
46.019721452067451
20
-98.421342455880989
30
0
0
LINE
5
617
100
AcDbEntity
8
0
100
AcDbLine
10
46.526864309083571
20
-98.928485312895518
30
0
11
46.526864309083571
21
-112.11419959531362
31
0
0
SPLINE
5
618
100
AcDbEntity
8
0
100
AcDbSpline
70
0
71
3
72
8
73
4
74
0
42
0.000000001
43
0.0000000001
44
0.0000000001
40
4
40
4
40
4
40
4
40
5
40
5
40
5
40
5
10
46.019721452067451
20
-112.62134245232943
30
0
10
46.299808717983908
20
-112.62134245232943
30
0
10
46.526864309083571
20
-112.39428686122591
30
0
10
46.526864309083571
20
-112.11419959531362
30
0
0
LINE
5
619
100
AcDbEntity
8
0
100
AcDbLine
10
46.019721452067451
20
-112.62134245232943
30
0
11
32.834007169649382
21
-112.62134245232943
31
0
0
SPLINE
5
620
100
AcDbEntity
8
0
100
AcDbSpline
70
0
71
3
72
8
73
4
74
0
42
0.000000001
43
0.0000000001
44
0.0000000001
40
6
40
6
40
6
40
6
40
7
40
7
40
7
40
7
10
32.326864312633589
20
-112.11419959531362
30
0
10
32.326864312633589
20
-112.39428686122591
30
0
10
32.553919903733252
20
-112.62134245232943
30
0
10
32.834007169649382
20
-112.62134245232943
30
0
0
LINE
5
621
100
AcDbEntity
8
0
100
AcDbLine
10
141.86436431263439
20
-93.064199595313696
30
0
11
141.86436431263439
21
-79.878485312895947
31
0
0
SPLINE
5
622
100
AcDbEntity
8
0
100
AcDbSpline
70
0
71
3
72
8
73
4
74
0
42
0.000000001
43
0.0000000001
44
0.0000000001
40
1
40
1
40
1
40
1
40
2
40
2
40
2
40
2
10
142.37150716965084
20
-79.371342455878874
30
0
10
142.0914199037347
20
-79.371342455878874
30
0
10
141.86436431263439
20
-79.598398046977877
30
0
10
141.86436431263439
20
-79.878485312895947
30
0
0
LINE
5
623
100
AcDbEntity
8
0
100
AcDbLine
10
142.37150716965084
20
-79.371342455878874
30
0
11
155.55722145206889
21
-79.371342455878874
31
0
0
SPLINE
5
624
100
AcDbEntity
8
0
100
AcDbSpline
70
0
71
3
72
8
73
4
74
0
42
0.000000001
43
0.0000000001
44
0.0000000001
40
7
40
7
40
7
40
7
40
8
40
8
40
8
40
8
10
156.06436430908471
20
-79.878485312895947
30
0
10
156.06436430908471
20
-79.598398046977877
30
0
10
155.83730871798559
20
-79.371342455878874
30
0
10
155.55722145206889
20
-79.371342455878874
30
0
0
LINE
5
625
100
AcDbEntity
8
0
100
AcDbLine
10
156.06436430908471
20
-79.878485312895947
30
0
11
156.06436430908471
21
-93.064199595313696
31
0
0
SPLINE
5
626
100
AcDbEntity
8
0
100
AcDbSpline
70
0
71
3
72
8
73
4
74
0
42
0.000000001
43
0.0000000001
44
0.0000000001
40
5
40
5
40
5
40
5
40
6
40
6
40
6
40
6
10
155.55722145206889
20
-93.571342452329489
30
0
10
155.83730871798559
20
-93.571342452329489
30
0
10
156.06436430908471
20
-93.344286861230486
30
0
10
156.06436430908471
20
-93.064199595313696
30
0
0
LINE
5
627
100
AcDbEntity
8
0
100
AcDbLine
10
155.55722145206889
20
-93.571342452329489
30
0
11
142.37150716965084
21
-93.571342452329489
31
0
0
SPLINE
5
628
100
AcDbEntity
8
0
100
AcDbSpline
70
0
71
3
72
8
73
4
74
0
42
0.000000001
43
0.0000000001
44
0.0000000001
40
3
40
3
40
3
40
3
40
4
40
4
40
4
40
4
10
141.86436431263439
20
-93.064199595313696
30
0
10
141.86436431263439
20
-93.344286861230486
30
0
10
142.0914199037347
20
-93.571342452329489
30
0
10
142.37150716965084
20
-93.571342452329489
30
0
0
LINE
5
629
100
AcDbEntity
8
0
100
AcDbLine
10
27.564364312634503
20
-93.064199595313056
30
0
11
27.564364312634503
21
-79.878485312895947
31
0
0
SPLINE
5
630
100
AcDbEntity
8
0
100
AcDbSpline
70
0
71
3
72
8
73
4
74
0
42
0.000000001
43
0.0000000001
44
0.0000000001
40
1
40
1
40
1
40
1
40
2
40
2
40
2
40
2
10
28.0715071696503
20
-79.371342455878874
30
0
10
27.791419903734162
20
-79.371342455878874
30
0
10
27.564364312634503
20
-79.598398046977877
30
0
10
27.564364312634503
20
-79.878485312895947
30
0
0
LINE
5
631
100
AcDbEntity
8
0
100
AcDbLine
10
28.0715071696503
20
-79.371342455878874
30
0
11
41.257221452068706
21
-79.371342455878874
31
0
0
SPLINE
5
632
100
AcDbEntity
8
0
100
AcDbSpline
70
0
71
3
72
8
73
4
74
0
42
0.000000001
43
0.0000000001
44
0.0000000001
40
7
40
7
40
7
40
7
40
8
40
8
40
8
40
8
10
41.764364309085124
20
-79.878485312895947
30
0
10
41.764364309085124
20
-79.598398046977877
30
0
10
41.53730871798227
20
-79.371342455878874
30
0
10
41.257221452068706
20
-79.371342455878874
30
0
0
LINE
5
633
100
AcDbEntity
8
0
100
AcDbLine
10
41.764364309085124
20
-79.878485312895947
30
0
11
41.764364309085124
21
-93.064199595313056
31
0
0
SPLINE
5
634
100
AcDbEntity
8
0
100
AcDbSpline
70
0
71
3
72
8
73
4
74
0
42
0.000000001
43
0.0000000001
44
0.0000000001
40
5
40
5
40
5
40
5
40
6
40
6
40
6
40
6
10
41.257221452068691
20
-93.571342452329489
30
0
10
41.53730871798227
20
-93.571342452329489
30
0
10
41.764364309085124
20
-93.344286861230486
30
0
10
41.764364309085124
20
-93.064199595313056
30
0
0
LINE
5
635
100
AcDbEntity
8
0
100
AcDbLine
10
41.257221452068691
20
-93.571342452329489
30
0
11
28.0715071696503
21
-93.571342452329489
31
0
0
SPLINE
5
636
100
AcDbEntity
8
0
100
AcDbSpline
70
0
71
3
72
8
73
4
74
0
42
0.000000001
43
0.0000000001
44
0.0000000001
40
3
40
3
40
3
40
3
40
4
40
4
40
4
40
4
10
27.564364312634503
20
-93.064199595313056
30
0
10
27.564364312634503
20
-93.344286861230486
30
0
10
27.791419903734162
20
-93.571342452329489
30
0
10
28.0715071696503
20
-93.571342452329489
30
0
0
LINE
5
637
100
AcDbEntity
8
0
100
AcDbLine
10
84.714364312635098
20
-93.064199595313056
30
0
11
84.714364312635098
21
-79.878485312895947
31
0
0
SPLINE
5
638
100
AcDbEntity
8
0
100
AcDbSpline
70
0
71
3
72
8
73
4
74
0
42
0.000000001
43
0.0000000001
44
0.0000000001
40
1
40
1
40
1
40
1
40
2
40
2
40
2
40
2
10
85.221507169652156
20
-79.371342455878874
30
0
10
84.941419903734726
20
-79.371342455878874
30
0
10
84.714364312635098
20
-79.598398046979156
30
0
10
84.714364312635098
20
-79.878485312895947
30
0
0
LINE
5
639
100
AcDbEntity
8
0
100
AcDbLine
10
85.221507169652156
20
-79.371342455878874
30
0
11
98.407221452069308
21
-79.371342455878874
31
0
0
SPLINE
5
640
100
AcDbEntity
8
0
100
AcDbSpline
70
0
71
3
72
8
73
4
74
0
42
0.000000001
43
0.0000000001
44
0.0000000001
40
7
40
7
40
7
40
7
40
8
40
8
40
8
40
8
10
98.914364309085073
20
-79.878485312895947
30
0
10
98.914364309085073
20
-79.598398046979156
30
0
10
98.687308717981566
20
-79.371342455878874
30
0
10
98.407221452069308
20
-79.371342455878874
30
0
0
LINE
5
641
100
AcDbEntity
8
0
100
AcDbLine
10
98.914364309085073
20
-79.878485312895947
30
0
11
98.914364309085073
21
-93.064199595313056
31
0
0
SPLINE
5
642
100
AcDbEntity
8
0
100
AcDbSpline
70
0
71
3
72
8
73
4
74
0
42
0.000000001
43
0.0000000001
44
0.0000000001
40
5
40
5
40
5
40
5
40
6
40
6
40
6
40
6
10
98.40722145206928
20
-93.571342452328864
30
0
10
98.687308717981566
20
-93.571342452328864
30
0
10
98.914364309085073
20
-93.344286861229193
30
0
10
98.914364309085073
20
-93.064199595313056
30
0
0
LINE
5
643
100
AcDbEntity
8
0
100
AcDbLine
10
98.40722145206928
20
-93.571342452328864
30
0
11
85.221507169652156
21
-93.571342452328864
31
0
0
SPLINE
5
644
100
AcDbEntity
8
0
100
AcDbSpline
70
0
71
3
72
8
73
4
74
0
42
0.000000001
43
0.0000000001
44
0.0000000001
40
3
40
3
40
3
40
3
40
4
40
4
40
4
40
4
10
84.714364312635098
20
-93.064199595313056
30
0
10
84.714364312635098
20
-93.344286861229193
30
0
10
84.941419903734726
20
-93.571342452328864
30
0
10
85.221507169652156
20
-93.571342452328864
30
0
0
LINE
5
645
100
AcDbEntity
8
0
100
AcDbLine
10
66.17150716965196
20
-79.371342455878874
30
0
11
79.35722145206843
21
-79.371342455878874
31
0
0
SPLINE
5
646
100
AcDbEntity
8
0
100
AcDbSpline
70
0
71
3
72
8
73
4
74
0
42
0.000000001
43
0.0000000001
44
0.0000000001
40
1
40
1
40
1
40
1
40
2
40
2
40
2
40
2
10
79.864364309084863
20
-79.878485312895947
30
0
10
79.864364309084863
20
-79.598398046979156
30
0
10
79.637308717981682
20
-79.371342455878874
30
0
10
79.35722145206843
20
-79.371342455878874
30
0
0
LINE
5
647
100
AcDbEntity
8
0
100
AcDbLine
10
79.864364309084863
20
-79.878485312895947
30
0
11
79.864364309084863
21
-93.064199595313056
31
0
0
SPLINE
5
648
100
AcDbEntity
8
0
100
AcDbSpline
70
0
71
3
72
8
73
4
74
0
42
0.000000001
43
0.0000000001
44
0.0000000001
40
7
40
7
40
7
40
7
40
8
40
8
40
8
40
8
10
79.35722145206843
20
-93.571342452327571
30
0
10
79.637308717981682
20
-93.571342452327571
30
0
10
79.864364309084863
20
-93.344286861230486
30
0
10
79.864364309084863
20
-93.064199595313056
30
0
0
LINE
5
649
100
AcDbEntity
8
0
100
AcDbLine
10
79.35722145206843
20
-93.571342452327571
30
0
11
66.17150716965196
21
-93.571342452327571
31
0
0
SPLINE
5
650
100
AcDbEntity
8
0
100
AcDbSpline
70
0
71
3
72
8
73
4
74
0
42
0.000000001
43
0.0000000001
44
0.0000000001
40
5
40
5
40
5
40
5
40
6
40
6
40
6
40
6
10
65.664364312634888
20
-93.064199595313056
30
0
10
65.664364312634888
20
-93.344286861230486
30
0
10
65.891419903734558
20
-93.571342452327571
30
0
10
66.17150716965196
20
-93.571342452327571
30
0
0
LINE
5
651
100
AcDbEntity
8
0
100
AcDbLine
10
65.664364312634888
20
-93.064199595313056
30
0
11
65.664364312634888
21
-79.878485312895947
31
0
0
SPLINE
5
652
100
AcDbEntity
8
0
100
AcDbSpline
70
0
71
3
72
8
73
4
74
0
42
0.000000001
43
0.0000000001
44
0.0000000001
40
3
40
3
40
3
40
3
40
4
40
4
40
4
40
4
10
66.17150716965196
20
-79.371342455878874
30
0
10
65.891419903734558
20
-79.371342455878874
30
0
10
65.664364312634888
20
-79.598398046979156
30
0
10
65.664364312634888
20
-79.878485312895947
30
0
0
LINE
5
653
100
AcDbEntity
8
0
100
AcDbLine
10
284.73936431263547
20
-131.16419959531379
30
0
11
284.73936431263547
21
-117.97848531289672
31
0
0
SPLINE
5
654
100
AcDbEntity
8
0
100
AcDbSpline
70
0
71
3
72
8
73
4
74
0
42
0.000000001
43
0.0000000001
44
0.0000000001
40
1
40
1
40
1
40
1
40
2
40
2
40
2
40
2
10
285.24650716965249
20
-117.47134245588093
30
0
10
284.96641990373507
20
-117.47134245588093
30
0
10
284.73936431263547
20
-117.69839804698051
30
0
10
284.73936431263547
20
-117.97848531289672
30
0
0
LINE
5
655
100
AcDbEntity
8
0
100
AcDbLine
10
285.24650716965249
20
-117.47134245588093
30
0
11
298.43222145206971
21
-117.47134245588093
31
0
0
SPLINE
5
656
100
AcDbEntity
8
0
100
AcDbSpline
70
0
71
3
72
8
73
4
74
0
42
0.000000001
43
0.0000000001
44
0.0000000001
40
7
40
7
40
7
40
7
40
8
40
8
40
8
40
8
10
298.93936430908548
20
-117.97848531289672
30
0
10
298.93936430908548
20
-117.69839804698051
30
0
10
298.71230871798207
20
-117.47134245588093
30
0
10
298.43222145206971
20
-117.47134245588093
30
0
0
LINE
5
657
100
AcDbEntity
8
0
100
AcDbLine
10
298.93936430908548
20
-117.97848531289672
30
0
11
298.93936430908548
21
-131.16419959531379
31
0
0
SPLINE
5
658
100
AcDbEntity
8
0
100
AcDbSpline
70
0
71
3
72
8
73
4
74
0
42
0.000000001
43
0.0000000001
44
0.0000000001
40
5
40
5
40
5
40
5
40
6
40
6
40
6
40
6
10
298.43222145206971
20
-131.67134245232961
30
0
10
298.71230871798207
20
-131.67134245232961
30
0
10
298.93936430908548
20
-131.44428686123121
30
0
10
298.93936430908548
20
-131.16419959531379
30
0
0
LINE
5
659
100
AcDbEntity
8
0
100
AcDbLine
10
298.43222145206971
20
-131.67134245232961
30
0
11
285.24650716965249
21
-131.67134245232961
31
0
0
SPLINE
5
660
100
AcDbEntity
8
0
100
AcDbSpline
70
0
71
3
72
8
73
4
74
0
42
0.000000001
43
0.0000000001
44
0.0000000001
40
3
40
3
40
3
40
3
40
4
40
4
40
4
40
4
10
284.73936431263547
20
-131.16419959531379
30
0
10
284.73936431263547
20
-131.44428686123121
30
0
10
284.96641990373507
20
-131.67134245232961
30
0
10
285.24650716965249
20
-131.67134245232961
30
0
0
LINE
5
661
100
AcDbEntity
8
0
100
AcDbLine
10
70.426864312633327
20
-112.11419959531362
30
0
11
70.426864312633327
21
-98.928485312895518
31
0
0
SPLINE
5
662
100
AcDbEntity
8
0
100
AcDbSpline
70
0
71
3
72
8
73
4
74
0
42
0.000000001
43
0.0000000001
44
0.0000000001
40
0
40
0
40
0
40
0
40
1
40
1
40
1
40
1
10
70.934007169648169
20
-98.421342455880989
30
0
10
70.653919903732344
20
-98.421342455880989
30
0
10
70.426864312633327
20
-98.648398046979366
30
0
10
70.426864312633327
20
-98.928485312895518
30
0
0
LINE
5
663
100
AcDbEntity
8
0
100
AcDbLine
10
70.934007169648169
20
-98.421342455880989
30
0
11
84.119721452067523
21
-98.421342455880989
31
0
0
SPLINE
5
664
100
AcDbEntity
8
0
100
AcDbSpline
70
0
71
3
72
8
73
4
74
0
42
0.000000001
43
0.0000000001
44
0.0000000001
40
2
40
2
40
2
40
2
40
3
40
3
40
3
40
3
10
84.626864309083331
20
-98.928485312895518
30
0
10
84.626864309083331
20
-98.648398046979366
30
0
10
84.399808717984314
20
-98.421342455880989
30
0
10
84.119721452067523
20
-98.421342455880989
30
0
0
LINE
5
665
100
AcDbEntity
8
0
100
AcDbLine
10
84.626864309083331
20
-98.928485312895518
30
0
11
84.626864309083331
21
-112.11419959531362
31
0
0
SPLINE
5
666
100
AcDbEntity
8
0
100
AcDbSpline
70
0
71
3
72
8
73
4
74
0
42
0.000000001
43
0.0000000001
44
0.0000000001
40
4
40
4
40
4
40
4
40
5
40
5
40
5
40
5
10
84.119721452067523
20
-112.62134245232943
30
0
10
84.399808717984314
20
-112.62134245232943
30
0
10
84.626864309083331
20
-112.39428686122591
30
0
10
84.626864309083331
20
-112.11419959531362
30
0
0
LINE
5
667
100
AcDbEntity
8
0
100
AcDbLine
10
84.119721452067523
20
-112.62134245232943
30
0
11
70.934007169648169
21
-112.62134245232943
31
0
0
SPLINE
5
668
100
AcDbEntity
8
0
100
AcDbSpline
70
0
71
3
72
8
73
4
74
0
42
0.000000001
43
0.0000000001
44
0.0000000001
40
6
40
6
40
6
40
6
40
7
40
7
40
7
40
7
10
70.426864312633327
20
-112.11419959531362
30
0
10
70.426864312633327
20
-112.39428686122591
30
0
10
70.653919903732344
20
-112.62134245232943
30
0
10
70.934007169648169
20
-112.62134245232943
30
0
0
LINE
5
669
100
AcDbEntity
8
0
100
AcDbLine
10
184.72686431263293
20
-112.11419959531362
30
0
11
184.72686431263293
21
-98.928485312895518
31
0
0
SPLINE
5
670
100
AcDbEntity
8
0
100
AcDbSpline
70
0
71
3
72
8
73
4
74
0
42
0.000000001
43
0.0000000001
44
0.0000000001
40
1
40
1
40
1
40
1
40
2
40
2
40
2
40
2
10
185.23400716964929
20
-98.42134245587971
30
0
10
184.95391990373193
20
-98.42134245587971
30
0
10
184.72686431263293
20
-98.648398046978727
30
0
10
184.72686431263293
20
-98.928485312895518
30
0
0
LINE
5
671
100
AcDbEntity
8
0
100
AcDbLine
10
185.23400716964929
20
-98.42134245587971
30
0
11
198.41972145206711
21
-98.42134245587971
31
0
0
SPLINE
5
672
100
AcDbEntity
8
0
100
AcDbSpline
70
0
71
3
72
8
73
4
74
0
42
0.000000001
43
0.0000000001
44
0.0000000001
40
7
40
7
40
7
40
7
40
8
40
8
40
8
40
8
10
198.92686430908282
20
-98.928485312895518
30
0
10
198.92686430908282
20
-98.648398046978727
30
0
10
198.69980871798452
20
-98.42134245587971
30
0
10
198.41972145206711
20
-98.42134245587971
30
0
0
LINE
5
673
100
AcDbEntity
8
0
100
AcDbLine
10
198.92686430908282
20
-98.928485312895518
30
0
11
198.92686430908282
21
-112.11419959531362
31
0
0
SPLINE
5
674
100
AcDbEntity
8
0
100
AcDbSpline
70
0
71
3
72
8
73
4
74
0
42
0.000000001
43
0.0000000001
44
0.0000000001
40
5
40
5
40
5
40
5
40
6
40
6
40
6
40
6
10
198.41972145206711
20
-112.62134245232943
30
0
10
198.69980871798452
20
-112.62134245232943
30
0
10
198.92686430908282
20
-112.3942868612271
30
0
10
198.92686430908282
20
-112.11419959531362
30
0
0
LINE
5
675
100
AcDbEntity
8
0
100
AcDbLine
10
198.41972145206711
20
-112.62134245232943
30
0
11
185.23400716964929
21
-112.62134245232943
31
0
0
SPLINE
5
676
100
AcDbEntity
8
0
100
AcDbSpline
70
0
71
3
72
8
73
4
74
0
42
0.000000001
43
0.0000000001
44
0.0000000001
40
3
40
3
40
3
40
3
40
4
40
4
40
4
40
4
10
184.72686431263293
20
-112.11419959531362
30
0
10
184.72686431263293
20
-112.3942868612271
30
0
10
184.95391990373193
20
-112.62134245232943
30
0
10
185.23400716964929
20
-112.62134245232943
30
0
0
LINE
5
677
100
AcDbEntity
8
0
100
AcDbLine
10
175.2018643126334
20
-131.16419959531379
30
0
11
175.2018643126334
21
-117.97848531289672
31
0
0
SPLINE
5
678
100
AcDbEntity
8
0
100
AcDbSpline
70
0
71
3
72
8
73
4
74
0
42
0.000000001
43
0.0000000001
44
0.0000000001
40
1
40
1
40
1
40
1
40
2
40
2
40
2
40
2
10
175.70900716965053
20
-117.47134245588093
30
0
10
175.42891990373761
20
-117.47134245588093
30
0
10
175.2018643126334
20
-117.69839804698051
30
0
10
175.2018643126334
20
-117.97848531289672
30
0
0
LINE
5
679
100
AcDbEntity
8
0
100
AcDbLine
10
175.70900716965053
20
-117.47134245588093
30
0
11
188.89472145206634
21
-117.47134245588093
31
0
0
SPLINE
5
680
100
AcDbEntity
8
0
100
AcDbSpline
70
0
71
3
72
8
73
4
74
0
42
0.000000001
43
0.0000000001
44
0.0000000001
40
7
40
7
40
7
40
7
40
8
40
8
40
8
40
8
10
189.40186430908341
20
-117.97848531289672
30
0
10
189.40186430908341
20
-117.69839804698051
30
0
10
189.1748087179825
20
-117.47134245588093
30
0
10
188.89472145206634
20
-117.47134245588093
30
0
0
LINE
5
681
100
AcDbEntity
8
0
100
AcDbLine
10
189.40186430908341
20
-117.97848531289672
30
0
11
189.40186430908341
21
-131.16419959531379
31
0
0
SPLINE
5
682
100
AcDbEntity
8
0
100
AcDbSpline
70
0
71
3
72
8
73
4
74
0
42
0.000000001
43
0.0000000001
44
0.0000000001
40
5
40
5
40
5
40
5
40
6
40
6
40
6
40
6
10
188.89472145206634
20
-131.67134245232961
30
0
10
189.1748087179825
20
-131.67134245232961
30
0
10
189.40186430908341
20
-131.44428686122993
30
0
10
189.40186430908341
20
-131.16419959531379
30
0
0
LINE
5
683
100
AcDbEntity
8
0
100
AcDbLine
10
188.89472145206634
20
-131.67134245232961
30
0
11
175.70900716965053
21
-131.67134245232961
31
0
0
SPLINE
5
684
100
AcDbEntity
8
0
100
AcDbSpline
70
0
71
3
72
8
73
4
74
0
42
0.000000001
43
0.0000000001
44
0.0000000001
40
3
40
3
40
3
40
3
40
4
40
4
40
4
40
4
10
175.2018643126334
20
-131.16419959531379
30
0
10
175.2018643126334
20
-131.44428686122993
30
0
10
175.42891990373761
20
-131.67134245232961
30
0
10
175.70900716965053
20
-131.67134245232961
30
0
0
LINE
5
685
100
AcDbEntity
8
0
100
AcDbLine
10
4.2590071696484566
20
-79.371342455878874
30
0
11
17.44472145206813
21
-79.371342455878874
31
0
0
SPLINE
5
686
100
AcDbEntity
8
0
100
AcDbSpline
70
0
71
3
72
8
73
4
74
0
42
0.000000001
43
0.0000000001
44
0.0000000001
40
1
40
1
40
1
40
1
40
2
40
2
40
2
40
2
10
17.95186430908328
20
-79.878485312895947
30
0
10
17.95186430908328
20
-79.598398046977877
30
0
10
17.724808717984271
20
-79.371342455878874
30
0
10
17.44472145206813
20
-79.371342455878874
30
0
0
LINE
5
687
100
AcDbEntity
8
0
100
AcDbLine
10
17.95186430908328
20
-79.878485312895947
30
0
11
17.951864309083298
21
-93.064199595313696
31
0
0
SPLINE
5
688
100
AcDbEntity
8
0
100
AcDbSpline
70
0
71
3
72
8
73
4
74
0
42
0.000000001
43
0.0000000001
44
0.0000000001
40
7
40
7
40
7
40
7
40
8
40
8
40
8
40
8
10
17.44472145206813
20
-93.571342452329489
30
0
10
17.724808717984271
20
-93.571342452329489
30
0
10
17.95186430908328
20
-93.344286861230486
30
0
10
17.951864309083298
20
-93.064199595313696
30
0
0
LINE
5
689
100
AcDbEntity
8
0
100
AcDbLine
10
17.44472145206813
20
-93.571342452329489
30
0
11
4.2590071696484566
21
-93.571342452329489
31
0
0
SPLINE
5
690
100
AcDbEntity
8
0
100
AcDbSpline
70
0
71
3
72
8
73
4
74
0
42
0.000000001
43
0.0000000001
44
0.0000000001
40
5
40
5
40
5
40
5
40
6
40
6
40
6
40
6
10
3.7518643126333036
20
-93.064199595313696
30
0
10
3.7518643126333036
20
-93.344286861230486
30
0
10
3.9789199037323142
20
-93.571342452329489
30
0
10
4.2590071696484566
20
-93.571342452329489
30
0
0
LINE
5
691
100
AcDbEntity
8
0
100
AcDbLine
10
3.7518643126333036
20
-93.064199595313696
30
0
11
3.7518643126333036
21
-79.878485312895947
31
0
0
SPLINE
5
692
100
AcDbEntity
8
0
100
AcDbSpline
70
0
71
3
72
8
73
4
74
0
42
0.000000001
43
0.0000000001
44
0.0000000001
40
3
40
3
40
3
40
3
40
4
40
4
40
4
40
4
10
4.2590071696484566
20
-79.371342455878874
30
0
10
3.9789199037323142
20
-79.371342455878874
30
0
10
3.7518643126333036
20
-79.598398046977877
30
0
10
3.7518643126333036
20
-79.878485312895947
30
0
0
LINE
5
693
100
AcDbEntity
8
0
100
AcDbLine
10
284.73936431263547
20
-150.21419959531272
30
0
11
284.73936431263547
21
-137.02848531289681
31
0
0
SPLINE
5
694
100
AcDbEntity
8
0
100
AcDbSpline
70
0
71
3
72
8
73
4
74
0
42
0.000000001
43
0.0000000001
44
0.0000000001
40
1
40
1
40
1
40
1
40
2
40
2
40
2
40
2
10
285.24650716965249
20
-136.52134245588101
30
0
10
284.96641990373507
20
-136.52134245588101
30
0
10
284.73936431263547
20
-136.7483980469807
30
0
10
284.73936431263547
20
-137.02848531289681
30
0
0
LINE
5
695
100
AcDbEntity
8
0
100
AcDbLine
10
285.24650716965249
20
-136.52134245588101
30
0
11
298.43222145206971
21
-136.52134245588101
31
0
0
SPLINE
5
696
100
AcDbEntity
8
0
100
AcDbSpline
70
0
71
3
72
8
73
4
74
0
42
0.000000001
43
0.0000000001
44
0.0000000001
40
7
40
7
40
7
40
7
40
8
40
8
40
8
40
8
10
298.93936430908548
20
-137.02848531289681
30
0
10
298.93936430908548
20
-136.7483980469807
30
0
10
298.71230871798207
20
-136.52134245588101
30
0
10
298.43222145206971
20
-136.52134245588101
30
0
0
LINE
5
697
100
AcDbEntity
8
0
100
AcDbLine
10
298.93936430908548
20
-137.02848531289681
30
0
11
298.93936430908548
21
-150.21419959531272
31
0
0
SPLINE
5
698
100
AcDbEntity
8
0
100
AcDbSpline
70
0
71
3
72
8
73
4
74
0
42
0.000000001
43
0.0000000001
44
0.0000000001
40
5
40
5
40
5
40
5
40
6
40
6
40
6
40
6
10
298.43222145206971
20
-150.72134245232854
30
0
10
298.71230871798207
20
-150.72134245232854
30
0
10
298.93936430908548
20
-150.49428686123011
30
0
10
298.93936430908548
20
-150.21419959531272
30
0
0
LINE
5
699
100
AcDbEntity
8
0
100
AcDbLine
10
298.43222145206971
20
-150.72134245232854
30
0
11
285.24650716965249
21
-150.72134245232854
31
0
0
SPLINE
5
700
100
AcDbEntity
8
0
100
AcDbSpline
70
0
71
3
72
8
73
4
74
0
42
0.000000001
43
0.0000000001
44
0.0000000001
40
3
40
3
40
3
40
3
40
4
40
4
40
4
40
4
10
284.73936431263547
20
-150.21419959531272
30
0
10
284.73936431263547
20
-150.49428686123011
30
0
10
284.96641990373507
20
-150.72134245232854
30
0
10
285.24650716965249
20
-150.72134245232854
30
0
0
SPLINE
5
701
100
AcDbEntity
8
0
100
AcDbSpline
70
0
71
3
72
8
73
4
74
0
42
0.000000001
43
0.0000000001
44
0.0000000001
40
0
40
0
40
0
40
0
40
1
40
1
40
1
40
1
10
276.90811431085939
20
-88.99634245410374
30
0
10
276.63197193594289
20
-88.99634245410374
30
0
10
276.4081143108603
20
-88.772484829017898
30
0
10
276.4081143108603
20
-88.496342454105289
30
0
0
SPLINE
5
702
100
AcDbEntity
8
0
100
AcDbSpline
70
0
71
3
72
8
73
4
74
0
42
0.000000001
43
0.0000000001
44
0.0000000001
40
33
40
33
40
33
40
33
40
34
40
34
40
34
40
34
10
277.40811431085967
20
-89.496342454104706
30
0
10
277.40811431085967
20
-89.22020007918762
30
0
10
277.18425668577584
20
-88.99634245410374
30
0
10
276.90811431085939
20
-88.99634245410374
30
0
0
LINE
5
703
100
AcDbEntity
8
0
100
AcDbLine
10
277.40811431085967
20
-89.496342454104706
30
0
11
277.40811431085967
21
-102.49634245410581
31
0
0
SPLINE
5
704
100
AcDbEntity
8
0
100
AcDbSpline
70
0
71
3
72
8
73
4
74
0
42
0.000000001
43
0.0000000001
44
0.0000000001
40
31
40
31
40
31
40
31
40
32
40
32
40
32
40
32
10
276.90811431085939
20
-102.99634245410552
30
0
10
277.18425668577584
20
-102.99634245410552
30
0
10
277.40811431085967
20
-102.77248482902159
30
0
10
277.40811431085967
20
-102.49634245410581
30
0
0
SPLINE
5
705
100
AcDbEntity
8
0
100
AcDbSpline
70
0
71
3
72
8
73
4
74
0
42
0.000000001
43
0.0000000001
44
0.0000000001
40
30
40
30
40
30
40
30
40
31
40
31
40
31
40
31
10
276.4081143108603
20
-103.4963424541052
30
0
10
276.4081143108603
20
-103.2202000791881
30
0
10
276.63197193594289
20
-102.99634245410552
30
0
10
276.90811431085939
20
-102.99634245410552
30
0
0
LINE
5
706
100
AcDbEntity
8
0
100
AcDbLine
10
276.4081143108603
20
-103.4963424541052
30
0
11
276.4081143108603
21
-114.02134245410501
31
0
0
SPLINE
5
707
100
AcDbEntity
8
0
100
AcDbSpline
70
0
71
3
72
8
73
4
74
0
42
0.000000001
43
0.0000000001
44
0.0000000001
40
28
40
28
40
28
40
28
40
29
40
29
40
29
40
29
10
275.90811431086001
20
-114.52134245410531
30
0
10
276.1842566857764
20
-114.52134245410531
30
0
10
276.4081143108603
20
-114.29748482901761
30
0
10
276.4081143108603
20
-114.02134245410501
30
0
0
LINE
5
708
100
AcDbEntity
8
0
100
AcDbLine
10
275.90811431086001
20
-114.52134245410531
30
0
11
269.28731231084089
21
-114.52134245410531
31
0
0
SPLINE
5
709
100
AcDbEntity
8
0
100
AcDbSpline
70
0
71
3
72
8
73
4
74
0
42
0.000000001
43
0.0000000001
44
0.0000000001
40
26
40
26
40
26
40
26
40
27
40
27
40
27
40
27
10
268.7873123108406
20
-114.02134245410501
30
0
10
268.7873123108406
20
-114.29748482901761
30
0
10
269.01116993592842
20
-114.52134245410531
30
0
10
269.28731231084089
20
-114.52134245410531
30
0
0
LINE
5
710
100
AcDbEntity
8
0
100
AcDbLine
10
268.7873123108406
20
-114.02134245410501
30
0
11
268.7873123108406
21
-113.02134245410562
31
0
0
SPLINE
5
711
100
AcDbEntity
8
0
100
AcDbSpline
70
0
71
3
72
8
73
4
74
0
42
0.000000001
43
0.0000000001
44
0.0000000001
40
24
40
24
40
24
40
24
40
25
40
25
40
25
40
25
10
268.28731231084407
20
-112.52134245410531
30
0
10
268.56345468575802
20
-112.52134245410531
30
0
10
268.7873123108406
20
-112.74520007918922
30
0
10
268.7873123108406
20
-113.02134245410562
30
0
0
LINE
5
712
100
AcDbEntity
8
0
100
AcDbLine
10
268.28731231084407
20
-112.52134245410531
30
0
11
252.94511431085996
21
-112.52134245410531
31
0
0
SPLINE
5
713
100
AcDbEntity
8
0
100
AcDbSpline
70
0
71
3
72
8
73
4
74
0
42
0.000000001
43
0.0000000001
44
0.0000000001
40
22
40
22
40
22
40
22
40
23
40
23
40
23
40
23
10
252.44511431085971
20
-113.02134245410562
30
0
10
252.44511431085971
20
-112.74520007918922
30
0
10
252.66897193594363
20
-112.52134245410531
30
0
10
252.94511431085996
20
-112.52134245410531
30
0
0
LINE
5
714
100
AcDbEntity
8
0
100
AcDbLine
10
252.44511431085971
20
-113.02134245410562
30
0
11
252.44511431085971
21
-114.02134245410501
31
0
0
SPLINE
5
715
100
AcDbEntity
8
0
100
AcDbSpline
70
0
71
3
72
8
73
4
74
0
42
0.000000001
43
0.0000000001
44
0.0000000001
40
20
40
20
40
20
40
20
40
21
40
21
40
21
40
21
10
251.94511431085942
20
-114.52134245410531
30
0
10
252.22125668577587
20
-114.52134245410531
30
0
10
252.44511431085971
20
-114.29748482901761
30
0
10
252.44511431085971
20
-114.02134245410501
30
0
0
LINE
5
716
100
AcDbEntity
8
0
100
AcDbLine
10
251.94511431085942
20
-114.52134245410531
30
0
11
245.09263639096542
21
-114.52134245410531
31
0
0
SPLINE
5
717
100
AcDbEntity
8
0
100
AcDbSpline
70
0
71
3
72
8
73
4
74
0
42
0.000000001
43
0.0000000001
44
0.0000000001
40
18
40
18
40
18
40
18
40
19
40
19
40
19
40
19
10
244.59263639096514
20
-114.02134245410501
30
0
10
244.59263639096514
20
-114.29748482901761
30
0
10
244.81649401604895
20
-114.52134245410531
30
0
10
245.09263639096542
20
-114.52134245410531
30
0
0
LINE
5
718
100
AcDbEntity
8
0
100
AcDbLine
10
244.59263639096514
20
-114.02134245410501
30
0
11
244.59263639096514
21
-113.02134245410562
31
0
0
SPLINE
5
719
100
AcDbEntity
8
0
100
AcDbSpline
70
0
71
3
72
8
73
4
74
0
42
0.000000001
43
0.0000000001
44
0.0000000001
40
16
40
16
40
16
40
16
40
17
40
17
40
17
40
17
10
244.09263639096474
20
-112.52134245410531
30
0
10
244.36877876588113
20
-112.52134245410531
30
0
10
244.59263639096514
20
-112.74520007918922
30
0
10
244.59263639096514
20
-113.02134245410562
30
0
0
LINE
5
720
100
AcDbEntity
8
0
100
AcDbLine
10
244.09263639096474
20
-112.52134245410531
30
0
11
242.47686431085924
21
-112.52134245410531
31
0
0
SPLINE
5
721
100
AcDbEntity
8
0
100
AcDbSpline
70
0
71
3
72
8
73
4
74
0
42
0.000000001
43
0.0000000001
44
0.0000000001
40
14
40
14
40
14
40
14
40
15
40
15
40
15
40
15
10
241.97686431085882
20
-112.02134245410491
30
0
10
241.97686431085882
20
-112.29748482901752
30
0
10
242.2007219359466
20
-112.52134245410531
30
0
10
242.47686431085924
20
-112.52134245410531
30
0
0
LINE
5
722
100
AcDbEntity
8
0
100
AcDbLine
10
241.97686431085882
20
-112.02134245410491
30
0
11
241.97686431085882
21
-99.021342454104797
31
0
0
SPLINE
5
723
100
AcDbEntity
8
0
100
AcDbSpline
70
0
71
3
72
8
73
4
74
0
42
0.000000001
43
0.0000000001
44
0.0000000001
40
12
40
12
40
12
40
12
40
13
40
13
40
13
40
13
10
242.47686431085924
20
-98.521342454106389
30
0
10
242.2007219359466
20
-98.521342454106389
30
0
10
241.97686431085882
20
-98.745200079189004
30
0
10
241.97686431085882
20
-99.021342454104797
30
0
0
LINE
5
724
100
AcDbEntity
8
0
100
AcDbLine
10
242.47686431085924
20
-98.521342454106389
30
0
11
262.90811431086013
21
-98.521342454106389
31
0
0
SPLINE
5
725
100
AcDbEntity
8
0
100
AcDbSpline
70
0
71
3
72
8
73
4
74
0
42
0.000000001
43
0.0000000001
44
0.0000000001
40
10
40
10
40
10
40
10
40
11
40
11
40
11
40
11
10
263.40811431085922
20
-98.021342454104115
30
0
10
263.40811431085922
20
-98.297484829021187
30
0
10
263.18425668577663
20
-98.521342454106389
30
0
10
262.90811431086013
20
-98.521342454106389
30
0
0
LINE
5
726
100
AcDbEntity
8
0
100
AcDbLine
10
263.40811431085922
20
-98.021342454104115
30
0
11
263.40811431085922
21
-93.971342454104445
31
0
0
SPLINE
5
727
100
AcDbEntity
8
0
100
AcDbSpline
70
0
71
3
72
8
73
4
74
0
42
0.000000001
43
0.0000000001
44
0.0000000001
40
8
40
8
40
8
40
8
40
9
40
9
40
9
40
9
10
262.90811431086013
20
-93.471342454105411
30
0
10
263.18425668577663
20
-93.471342454105411
30
0
10
263.40811431085922
20
-93.695200079187998
30
0
10
263.40811431085922
20
-93.971342454104445
30
0
0
LINE
5
728
100
AcDbEntity
8
0
100
AcDbLine
10
262.90811431086013
20
-93.471342454105411
30
0
11
261.52686431085942
21
-93.471342454105411
31
0
0
SPLINE
5
729
100
AcDbEntity
8
0
100
AcDbSpline
70
0
71
3
72
8
73
4
74
0
42
0.000000001
43
0.0000000001
44
0.0000000001
40
6
40
6
40
6
40
6
40
7
40
7
40
7
40
7
10
261.02686431085903
20
-92.971342454104402
30
0
10
261.02686431085903
20
-93.247484829021502
30
0
10
261.25072193594679
20
-93.471342454105411
30
0
10
261.52686431085942
20
-93.471342454105411
30
0
0
LINE
5
730
100
AcDbEntity
8
0
100
AcDbLine
10
261.02686431085903
20
-92.971342454104402
30
0
11
261.02686431085903
21
-79.971342454104587
31
0
0
SPLINE
5
731
100
AcDbEntity
8
0
100
AcDbSpline
70
0
71
3
72
8
73
4
74
0
42
0.000000001
43
0.0000000001
44
0.0000000001
40
4
40
4
40
4
40
4
40
5
40
5
40
5
40
5
10
261.52686431085942
20
-79.471342454104928
30
0
10
261.25072193594679
20
-79.471342454104928
30
0
10
261.02686431085903
20
-79.695200079188808
30
0
10
261.02686431085903
20
-79.971342454104587
30
0
0
LINE
5
732
100
AcDbEntity
8
0
100
AcDbLine
10
261.52686431085942
20
-79.471342454104928
30
0
11
275.90811431086001
21
-79.471342454104928
31
0
0
SPLINE
5
733
100
AcDbEntity
8
0
100
AcDbSpline
70
0
71
3
72
8
73
4
74
0
42
0.000000001
43
0.0000000001
44
0.0000000001
40
2
40
2
40
2
40
2
40
3
40
3
40
3
40
3
10
276.4081143108603
20
-79.971342454104587
30
0
10
276.4081143108603
20
-79.695200079188808
30
0
10
276.1842566857764
20
-79.471342454104928
30
0
10
275.90811431086001
20
-79.471342454104928
30
0
0
LINE
5
734
100
AcDbEntity
8
0
100
AcDbLine
10
276.4081143108603
20
-79.971342454104587
30
0
11
276.4081143108603
21
-88.496342454105289
31
0
0
LINE
5
735
100
AcDbEntity
8
0
100
AcDbLine
10
1.370606935801493
20
-150.21420079827249
30
0
11
1.370606935801493
21
-137.0284693562738
31
0
0
SPLINE
5
736
100
AcDbEntity
8
0
100
AcDbSpline
70
0
71
3
72
8
73
4
74
0
42
0.000000001
43
0.0000000001
44
0.0000000001
40
1
40
1
40
1
40
1
40
2
40
2
40
2
40
2
10
1.877741213026485
20
-136.52133507904881
30
0
10
1.597650041008718
20
-136.52133507904881
30
0
10
1.370606935801493
20
-136.74837818425732
30
0
10
1.370606935801493
20
-137.0284693562738
30
0
0
LINE
5
737
100
AcDbEntity
8
0
100
AcDbLine
10
1.877741213026485
20
-136.52133507904881
30
0
11
15.063472655025889
21
-136.52133507904881
31
0
0
SPLINE
5
738
100
AcDbEntity
8
0
100
AcDbSpline
70
0
71
3
72
8
73
4
74
0
42
0.000000001
43
0.0000000001
44
0.0000000001
40
7
40
7
40
7
40
7
40
8
40
8
40
8
40
8
10
15.570606932251472
20
-137.0284693562738
30
0
10
15.570606932251472
20
-136.74837818425732
30
0
10
15.343563827042974
20
-136.52133507904881
30
0
10
15.063472655025889
20
-136.52133507904881
30
0
0
LINE
5
739
100
AcDbEntity
8
0
100
AcDbLine
10
15.570606932251472
20
-137.0284693562738
30
0
11
15.570606932251472
21
-150.21420079827249
31
0
0
SPLINE
5
740
100
AcDbEntity
8
0
100
AcDbSpline
70
0
71
3
72
8
73
4
74
0
42
0.000000001
43
0.0000000001
44
0.0000000001
40
5
40
5
40
5
40
5
40
6
40
6
40
6
40
6
10
15.063472655025842
20
-150.72133507549751
30
0
10
15.343563827042974
20
-150.72133507549751
30
0
10
15.570606932251472
20
-150.49429197029019
30
0
10
15.570606932251472
20
-150.21420079827249
30
0
0
LINE
5
741
100
AcDbEntity
8
0
100
AcDbLine
10
15.063472655025842
20
-150.72133507549751
30
0
11
1.8777412130264848
21
-150.72133507549751
31
0
0
SPLINE
5
742
100
AcDbEntity
8
0
100
AcDbSpline
70
0
71
3
72
8
73
4
74
0
42
0.000000001
43
0.0000000001
44
0.0000000001
40
3
40
3
40
3
40
3
40
4
40
4
40
4
40
4
10
1.370606935801493
20
-150.21420079827249
30
0
10
1.370606935801493
20
-150.49429197029019
30
0
10
1.597650041008718
20
-150.72133507549751
30
0
10
1.877741213026485
20
-150.72133507549751
30
0
0
LINE
5
743
100
AcDbEntity
8
0
100
AcDbLine
10
25.18360200851296
20
-150.21420079827249
30
0
11
25.18360200851296
21
-137.0284693562738
31
0
0
SPLINE
5
744
100
AcDbEntity
8
0
100
AcDbSpline
70
0
71
3
72
8
73
4
74
0
42
0.000000001
43
0.0000000001
44
0.0000000001
40
1
40
1
40
1
40
1
40
2
40
2
40
2
40
2
10
25.690736285738602
20
-136.52133507904881
30
0
10
25.410645113721468
20
-136.52133507904881
30
0
10
25.18360200851296
20
-136.74837818425732
30
0
10
25.18360200851296
20
-137.0284693562738
30
0
0
LINE
5
745
100
AcDbEntity
8
0
100
AcDbLine
10
25.690736285738602
20
-136.52133507904881
30
0
11
38.876467727738614
21
-136.52133507904881
31
0
0
SPLINE
5
746
100
AcDbEntity
8
0
100
AcDbSpline
70
0
71
3
72
8
73
4
74
0
42
0.000000001
43
0.0000000001
44
0.0000000001
40
7
40
7
40
7
40
7
40
8
40
8
40
8
40
8
10
39.383623844431263
20
-137.0284693562738
30
0
10
39.383623844431263
20
-136.74837818425732
30
0
10
39.156558899755723
20
-136.52133507904881
30
0
10
38.876467727738614
20
-136.52133507904881
30
0
0
LINE
5
747
100
AcDbEntity
8
0
100
AcDbLine
10
39.383623844431263
20
-137.0284693562738
30
0
11
39.383623844431263
21
-150.21420079827249
31
0
0
SPLINE
5
748
100
AcDbEntity
8
0
100
AcDbSpline
70
0
71
3
72
8
73
4
74
0
42
0.000000001
43
0.0000000001
44
0.0000000001
40
5
40
5
40
5
40
5
40
6
40
6
40
6
40
6
10
38.8764677277386
20
-150.72133507549881
30
0
10
39.156558899755723
20
-150.72133507549881
30
0
10
39.383623844431263
20
-150.49429197029019
30
0
10
39.383623844431263
20
-150.21420079827249
30
0
0
LINE
5
749
100
AcDbEntity
8
0
100
AcDbLine
10
38.8764677277386
20
-150.72133507549881
30
0
11
25.690736285738602
21
-150.72133507549881
31
0
0
SPLINE
5
750
100
AcDbEntity
8
0
100
AcDbSpline
70
0
71
3
72
8
73
4
74
0
42
0.000000001
43
0.0000000001
44
0.0000000001
40
3
40
3
40
3
40
3
40
4
40
4
40
4
40
4
10
25.18360200851296
20
-150.21420079827249
30
0
10
25.18360200851296
20
-150.49429197029019
30
0
10
25.410645113721468
20
-150.72133507549881
30
0
10
25.690736285738602
20
-150.72133507549881
30
0
0
LINE
5
751
100
AcDbEntity
8
0
100
AcDbLine
10
49.04560692388258
20
-150.1677721664347
30
0
11
49.04560692388258
21
-137.07489798811162
31
0
0
SPLINE
5
752
100
AcDbEntity
8
0
100
AcDbSpline
70
0
71
3
72
8
73
4
74
0
42
0.000000001
43
0.0000000001
44
0.0000000001
40
1
40
1
40
1
40
1
40
2
40
2
40
2
40
2
10
49.549169832958064
20
-136.57133507903609
30
0
10
49.27105113398283
20
-136.57133507903609
30
0
10
49.04560692388258
20
-136.79677928913731
30
0
10
49.04560692388258
20
-137.07489798811162
30
0
0
LINE
5
753
100
AcDbEntity
8
0
100
AcDbLine
10
49.549169832958064
20
-136.57133507903609
30
0
11
62.642044011281463
21
-136.57133507903609
31
0
0
SPLINE
5
754
100
AcDbEntity
8
0
100
AcDbSpline
70
0
71
3
72
8
73
4
74
0
42
0.000000001
43
0.0000000001
44
0.0000000001
40
7
40
7
40
7
40
7
40
8
40
8
40
8
40
8
10
63.145606920357899
20
-137.07489798811162
30
0
10
63.145606920357899
20
-136.79677928913731
30
0
10
62.920162710256378
20
-136.57133507903609
30
0
10
62.642044011281463
20
-136.57133507903609
30
0
0
LINE
5
755
100
AcDbEntity
8
0
100
AcDbLine
10
63.145606920357899
20
-137.07489798811162
30
0
11
63.145606920357899
21
-150.1677721664347
31
0
0
SPLINE
5
756
100
AcDbEntity
8
0
100
AcDbSpline
70
0
71
3
72
8
73
4
74
0
42
0.000000001
43
0.0000000001
44
0.0000000001
40
5
40
5
40
5
40
5
40
6
40
6
40
6
40
6
10
62.64204401128147
20
-150.67133507551009
30
0
10
62.920162710256378
20
-150.67133507551009
30
0
10
63.145606920357899
20
-150.4458908654089
30
0
10
63.145606920357899
20
-150.1677721664347
30
0
0
LINE
5
757
100
AcDbEntity
8
0
100
AcDbLine
10
62.64204401128147
20
-150.67133507551009
30
0
11
49.549169832958064
21
-150.67133507551009
31
0
0
SPLINE
5
758
100
AcDbEntity
8
0
100
AcDbSpline
70
0
71
3
72
8
73
4
74
0
42
0.000000001
43
0.0000000001
44
0.0000000001
40
3
40
3
40
3
40
3
40
4
40
4
40
4
40
4
10
49.04560692388258
20
-150.1677721664347
30
0
10
49.04560692388258
20
-150.4458908654089
30
0
10
49.27105113398283
20
-150.67133507551009
30
0
10
49.549169832958064
20
-150.67133507551009
30
0
0
LINE
5
759
100
AcDbEntity
8
0
100
AcDbLine
10
191.87060673436542
20
-150.21420079827249
30
0
11
191.87060673436542
21
-137.0284693562738
31
0
0
SPLINE
5
760
100
AcDbEntity
8
0
100
AcDbSpline
70
0
71
3
72
8
73
4
74
0
42
0.000000001
43
0.0000000001
44
0.0000000001
40
1
40
1
40
1
40
1
40
2
40
2
40
2
40
2
10
192.37774101159039
20
-136.52133507904881
30
0
10
192.09767167904104
20
-136.52133507904881
30
0
10
191.87060673436542
20
-136.74837818425732
30
0
10
191.87060673436542
20
-137.0284693562738
30
0
0
LINE
5
761
100
AcDbEntity
8
0
100
AcDbLine
10
192.37774101159039
20
-136.52133507904881
30
0
11
205.56347245359103
21
-136.52133507904881
31
0
0
SPLINE
5
762
100
AcDbEntity
8
0
100
AcDbSpline
70
0
71
3
72
8
73
4
74
0
42
0.000000001
43
0.0000000001
44
0.0000000001
40
7
40
7
40
7
40
7
40
8
40
8
40
8
40
8
10
206.0706285702837
20
-137.0284693562738
30
0
10
206.0706285702837
20
-136.74837818425732
30
0
10
205.84356362560823
20
-136.52133507904881
30
0
10
205.56347245359103
20
-136.52133507904881
30
0
0
LINE
5
763
100
AcDbEntity
8
0
100
AcDbLine
10
206.0706285702837
20
-137.0284693562738
30
0
11
206.0706285702837
21
-150.21420079827249
31
0
0
SPLINE
5
764
100
AcDbEntity
8
0
100
AcDbSpline
70
0
71
3
72
8
73
4
74
0
42
0.000000001
43
0.0000000001
44
0.0000000001
40
5
40
5
40
5
40
5
40
6
40
6
40
6
40
6
10
205.56347245359103
20
-150.72133507549881
30
0
10
205.84356362560823
20
-150.72133507549881
30
0
10
206.0706285702837
20
-150.49429197029019
30
0
10
206.0706285702837
20
-150.21420079827249
30
0
0
LINE
5
765
100
AcDbEntity
8
0
100
AcDbLine
10
205.56347245359103
20
-150.72133507549881
30
0
11
192.37774101159039
21
-150.72133507549881
31
0
0
SPLINE
5
766
100
AcDbEntity
8
0
100
AcDbSpline
70
0
71
3
72
8
73
4
74
0
42
0.000000001
43
0.0000000001
44
0.0000000001
40
3
40
3
40
3
40
3
40
4
40
4
40
4
40
4
10
191.87060673436542
20
-150.21420079827249
30
0
10
191.87060673436542
20
-150.49429197029019
30
0
10
192.09767167904104
20
-150.72133507549881
30
0
10
192.37774101159039
20
-150.72133507549881
30
0
0
LINE
5
767
100
AcDbEntity
8
0
100
AcDbLine
10
215.68360211469911
20
-150.21420079827249
30
0
11
215.68360211469911
21
-137.0284693562738
31
0
0
SPLINE
5
768
100
AcDbEntity
8
0
100
AcDbSpline
70
0
71
3
72
8
73
4
74
0
42
0.000000001
43
0.0000000001
44
0.0000000001
40
1
40
1
40
1
40
1
40
2
40
2
40
2
40
2
10
216.19073639192402
20
-136.52133507904881
30
0
10
215.91066705937405
20
-136.52133507904881
30
0
10
215.68360211469911
20
-136.74837818425732
30
0
10
215.68360211469911
20
-137.0284693562738
30
0
0
LINE
5
769
100
AcDbEntity
8
0
100
AcDbLine
10
216.19073639192402
20
-136.52133507904881
30
0
11
229.37646783392404
21
-136.52133507904881
31
0
0
SPLINE
5
770
100
AcDbEntity
8
0
100
AcDbSpline
70
0
71
3
72
8
73
4
74
0
42
0.000000001
43
0.0000000001
44
0.0000000001
40
7
40
7
40
7
40
7
40
8
40
8
40
8
40
8
10
229.883602111149
20
-137.0284693562738
30
0
10
229.883602111149
20
-136.74837818425732
30
0
10
229.65655900594123
20
-136.52133507904881
30
0
10
229.37646783392404
20
-136.52133507904881
30
0
0
LINE
5
771
100
AcDbEntity
8
0
100
AcDbLine
10
229.883602111149
20
-137.0284693562738
30
0
11
229.883602111149
21
-150.21420079827249
31
0
0
SPLINE
5
772
100
AcDbEntity
8
0
100
AcDbSpline
70
0
71
3
72
8
73
4
74
0
42
0.000000001
43
0.0000000001
44
0.0000000001
40
5
40
5
40
5
40
5
40
6
40
6
40
6
40
6
10
229.37646783392404
20
-150.72133507549751
30
0
10
229.65655900594123
20
-150.72133507549751
30
0
10
229.883602111149
20
-150.49429197029019
30
0
10
229.883602111149
20
-150.21420079827249
30
0
0
LINE
5
773
100
AcDbEntity
8
0
100
AcDbLine
10
229.37646783392404
20
-150.72133507549751
30
0
11
216.19073639192402
21
-150.72133507549751
31
0
0
SPLINE
5
774
100
AcDbEntity
8
0
100
AcDbSpline
70
0
71
3
72
8
73
4
74
0
42
0.000000001
43
0.0000000001
44
0.0000000001
40
3
40
3
40
3
40
3
40
4
40
4
40
4
40
4
10
215.68360211469911
20
-150.21420079827249
30
0
10
215.68360211469911
20
-150.49429197029019
30
0
10
215.91066705937405
20
-150.72133507549751
30
0
10
216.19073639192402
20
-150.72133507549751
30
0
0
LINE
5
775
100
AcDbEntity
8
0
100
AcDbLine
10
87.602507097678654
20
-136.5213426488387
30
0
11
100.78822138009541
21
-136.5213426488387
31
0
0
SPLINE
5
776
100
AcDbEntity
8
0
100
AcDbSpline
70
0
71
3
72
8
73
4
74
0
42
0.000000001
43
0.0000000001
44
0.0000000001
40
1
40
1
40
1
40
1
40
2
40
2
40
2
40
2
10
101.2953642371119
20
-137.02848550585452
30
0
10
101.2953642371119
20
-136.7483946289374
30
0
10
101.06831225701382
20
-136.5213426488387
30
0
10
100.78822138009541
20
-136.5213426488387
30
0
0
LINE
5
777
100
AcDbEntity
8
0
100
AcDbLine
10
101.2953642371119
20
-137.02848550585452
30
0
11
101.29536423711188
21
-150.21419978827163
31
0
0
SPLINE
5
778
100
AcDbEntity
8
0
100
AcDbSpline
70
0
71
3
72
8
73
4
74
0
42
0.000000001
43
0.0000000001
44
0.0000000001
40
3
40
3
40
3
40
3
40
4
40
4
40
4
40
4
10
100.78822138009541
20
-150.72134264528739
30
0
10
101.06831225701382
20
-150.72134264528739
30
0
10
101.2953642371119
20
-150.49429066518991
30
0
10
101.29536423711188
20
-150.21419978827163
30
0
0
LINE
5
779
100
AcDbEntity
8
0
100
AcDbLine
10
100.78822138009541
20
-150.72134264528739
30
0
11
87.602507097678654
21
-150.72134264528739
31
0
0
SPLINE
5
780
100
AcDbEntity
8
0
100
AcDbSpline
70
0
71
3
72
8
73
4
74
0
42
0.000000001
43
0.0000000001
44
0.0000000001
40
5
40
5
40
5
40
5
40
6
40
6
40
6
40
6
10
87.095364240661567
20
-150.21419978827163
30
0
10
87.095364240661567
20
-150.49429066518991
30
0
10
87.322416220759976
20
-150.72134264528739
30
0
10
87.602507097678654
20
-150.72134264528739
30
0
0
LINE
5
781
100
AcDbEntity
8
0
100
AcDbLine
10
87.095364240661567
20
-150.21419978827163
30
0
11
87.095364240661567
21
-137.02848550585452
31
0
0
SPLINE
5
782
100
AcDbEntity
8
0
100
AcDbSpline
70
0
71
3
72
8
73
4
74
0
42
0.000000001
43
0.0000000001
44
0.0000000001
40
7
40
7
40
7
40
7
40
8
40
8
40
8
40
8
10
87.602507097678654
20
-136.5213426488387
30
0
10
87.322416220759976
20
-136.5213426488387
30
0
10
87.095364240661567
20
-136.7483946289374
30
0
10
87.095364240661567
20
-137.02848550585452
30
0
0
LINE
5
783
100
AcDbEntity
8
0
100
AcDbLine
10
174.171202106989
20
-134.36272030085249
30
0
11
180.89572704834171
21
-134.36272030085249
31
0
0
SPLINE
5
784
100
AcDbEntity
8
0
100
AcDbSpline
70
0
71
3
72
8
73
4
74
0
42
0.000000001
43
0.0000000001
44
0.0000000001
40
2
40
2
40
2
40
2
40
3
40
3
40
3
40
3
10
181.45611489271121
20
-134.8940401520652
30
0
10
181.45611489271121
20
-134.60058261226231
30
0
10
181.20522581399794
20
-134.36272030085249
30
0
10
180.89572704834171
20
-134.36272030085249
30
0
0
LINE
5
785
100
AcDbEntity
8
0
100
AcDbLine
10
181.45611489271121
20
-134.8940401520652
30
0
11
181.45611489271121
21
-136.52135253636979
31
0
0
LINE
5
786
100
AcDbEntity
8
0
100
AcDbLine
10
181.45611489271121
20
-136.52135253636979
30
0
11
181.75123038471639
21
-136.52135253636979
31
0
0
SPLINE
5
787
100
AcDbEntity
8
0
100
AcDbSpline
70
0
71
3
72
8
73
4
74
0
42
0.000000001
43
0.0000000001
44
0.0000000001
40
13
40
13
40
13
40
13
40
14
40
14
40
14
40
14
10
182.25836997199133
20
-137.02849212364529
30
0
10
182.25836997199133
20
-136.74838432884769
30
0
10
182.0312951158204
20
-136.52135253636979
30
0
10
181.75123038471639
20
-136.52135253636979
30
0
0
LINE
5
788
100
AcDbEntity
8
0
100
AcDbLine
10
182.25836997199133
20
-137.02849212364529
30
0
11
182.25836997199133
21
-150.21420752019702
31
0
0
SPLINE
5
789
100
AcDbEntity
8
0
100
AcDbSpline
70
0
71
3
72
8
73
4
74
0
42
0.000000001
43
0.0000000001
44
0.0000000001
40
11
40
11
40
11
40
11
40
12
40
12
40
12
40
12
10
181.75123038471639
20
-150.7213471074725
30
0
10
182.0312951158204
20
-150.7213471074725
30
0
10
182.25836997199133
20
-150.49429378314784
30
0
10
182.25836997199133
20
-150.21420752019702
30
0
0
LINE
5
790
100
AcDbEntity
8
0
100
AcDbLine
10
181.75123038471639
20
-150.7213471074725
30
0
11
168.56551498816413
21
-150.7213471074725
31
0
0
SPLINE
5
791
100
AcDbEntity
8
0
100
AcDbSpline
70
0
71
3
72
8
73
4
74
0
42
0.000000001
43
0.0000000001
44
0.0000000001
40
9
40
9
40
9
40
9
40
10
40
10
40
10
40
10
10
168.05835386904243
20
-150.21420752019702
30
0
10
168.05835386904243
20
-150.49429378314784
30
0
10
168.28542872521393
20
-150.7213471074725
30
0
10
168.56551498816413
20
-150.7213471074725
30
0
0
LINE
5
792
100
AcDbEntity
8
0
100
AcDbLine
10
168.05835386904243
20
-150.21420752019702
30
0
11
168.05835386904243
21
-137.02849212364529
31
0
0
SPLINE
5
793
100
AcDbEntity
8
0
100
AcDbSpline
70
0
71
3
72
8
73
4
74
0
42
0.000000001
43
0.0000000001
44
0.0000000001
40
7
40
7
40
7
40
7
40
8
40
8
40
8
40
8
10
168.56551498816413
20
-136.52135253636979
30
0
10
168.28542872521393
20
-136.52135253636979
30
0
10
168.05835386904243
20
-136.74838432884769
30
0
10
168.05835386904243
20
-137.02849212364529
30
0
0
LINE
5
794
100
AcDbEntity
8
0
100
AcDbLine
10
168.56551498816413
20
-136.52135253636979
30
0
11
173.61083579446631
21
-136.52135253636979
31
0
0
LINE
5
795
100
AcDbEntity
8
0
100
AcDbLine
10
173.61083579446631
20
-136.52135253636979
30
0
11
173.61083579446631
21
-134.8940401520652
31
0
0
SPLINE
5
796
100
AcDbEntity
8
0
100
AcDbSpline
70
0
71
3
72
8
73
4
74
0
42
0.000000001
43
0.0000000001
44
0.0000000001
40
4
40
4
40
4
40
4
40
5
40
5
40
5
40
5
10
174.171202106989
20
-134.36272030085249
30
0
10
173.86172487317961
20
-134.36272030085249
30
0
10
173.61083579446631
20
-134.60058261226231
30
0
10
173.61083579446631
20
-134.8940401520652
30
0
0
LINE
5
797
100
AcDbEntity
8
0
100
AcDbLine
10
73.995601746611172
20
-149.1497759739778
30
0
11
73.995601746611172
21
-134.95372993474291
31
0
0
SPLINE
5
798
100
AcDbEntity
8
0
100
AcDbSpline
70
0
71
3
72
8
73
4
74
0
42
0.000000001
43
0.0000000001
44
0.0000000001
40
3
40
3
40
3
40
3
40
4
40
4
40
4
40
4
10
74.497203441215575
20
-134.44671503449962
30
0
10
74.220167924515152
20
-134.44671503449962
30
0
10
73.995601746611172
20
-134.67371675346601
30
0
10
73.995601746611172
20
-134.95372993474291
30
0
0
LINE
5
799
100
AcDbEntity
8
0
100
AcDbLine
10
74.497203441215575
20
-134.44671503449962
30
0
11
85.255750825184492
21
-134.44671503449962
31
0
0
SPLINE
5
800
100
AcDbEntity
8
0
100
AcDbSpline
70
0
71
3
72
8
73
4
74
0
42
0.000000001
43
0.0000000001
44
0.0000000001
40
11
40
11
40
11
40
11
40
12
40
12
40
12
40
12
10
85.757374120999813
20
-134.95372993474291
30
0
10
85.757374120999813
20
-134.67371675346601
30
0
10
85.532786341885867
20
-134.44671503449962
30
0
10
85.255750825184492
20
-134.44671503449962
30
0
0
LINE
5
801
100
AcDbEntity
8
0
100
AcDbLine
10
85.757374120999813
20
-134.95372993474291
30
0
11
85.757374120999813
21
-149.1497759739778
31
0
0
SPLINE
5
802
100
AcDbEntity
8
0
100
AcDbSpline
70
0
71
3
72
8
73
4
74
0
42
0.000000001
43
0.0000000001
44
0.0000000001
40
9
40
9
40
9
40
9
40
10
40
10
40
10
40
10
10
85.255750825184492
20
-149.656790874221
30
0
10
85.532786341885867
20
-149.656790874221
30
0
10
85.757374120999813
20
-149.4297891552547
30
0
10
85.757374120999813
20
-149.1497759739778
30
0
0
LINE
5
803
100
AcDbEntity
8
0
100
AcDbLine
10
85.255750825184492
20
-149.656790874221
30
0
11
74.497203441215575
21
-149.656790874221
31
0
0
SPLINE
5
804
100
AcDbEntity
8
0
100
AcDbSpline
70
0
71
3
72
8
73
4
74
0
42
0.000000001
43
0.0000000001
44
0.0000000001
40
5
40
5
40
5
40
5
40
6
40
6
40
6
40
6
10
73.995601746611172
20
-149.1497759739778
30
0
10
73.995601746611172
20
-149.4297891552547
30
0
10
74.220167924515152
20
-149.656790874221
30
0
10
74.497203441215575
20
-149.656790874221
30
0
0
LINE
5
805
100
AcDbEntity
8
0
100
AcDbLine
10
103.1333680253065
20
-134.44671503449962
30
0
11
109.1333681906992
21
-134.44671503449962
31
0
0
SPLINE
5
806
100
AcDbEntity
8
0
100
AcDbSpline
70
0
71
3
72
8
73
4
74
0
42
0.000000001
43
0.0000000001
44
0.0000000001
40
1
40
1
40
1
40
1
40
2
40
2
40
2
40
2
10
109.63336820448221
20
-134.94671504828244
30
0
10
109.63336820448221
20
-134.67056910561169
30
0
10
109.40951413337021
20
-134.44671503449962
30
0
10
109.1333681906992
20
-134.44671503449962
30
0
0
LINE
5
807
100
AcDbEntity
8
0
100
AcDbLine
10
109.63336820448221
20
-134.94671504828244
30
0
11
109.63336820448222
21
-148.9467154341981
31
0
0
SPLINE
5
808
100
AcDbEntity
8
0
100
AcDbSpline
70
0
71
3
72
8
73
4
74
0
42
0.000000001
43
0.0000000001
44
0.0000000001
40
3
40
3
40
3
40
3
40
4
40
4
40
4
40
4
10
109.1333681906992
20
-149.44671544798223
30
0
10
109.40951413337021
20
-149.44671544798223
30
0
10
109.63336820448221
20
-149.22286137686879
30
0
10
109.63336820448222
20
-148.9467154341981
30
0
0
LINE
5
809
100
AcDbEntity
8
0
100
AcDbLine
10
109.1333681906992
20
-149.44671544798223
30
0
11
103.1333680253065
21
-149.44671544798223
31
0
0
SPLINE
5
810
100
AcDbEntity
8
0
100
AcDbSpline
70
0
71
3
72
8
73
4
74
0
42
0.000000001
43
0.0000000001
44
0.0000000001
40
5
40
5
40
5
40
5
40
6
40
6
40
6
40
6
10
102.6333680115237
20
-148.9467154341981
30
0
10
102.6333680115237
20
-149.22286137686879
30
0
10
102.8572220826358
20
-149.44671544798223
30
0
10
103.1333680253065
20
-149.44671544798223
30
0
0
LINE
5
811
100
AcDbEntity
8
0
100
AcDbLine
10
102.6333680115237
20
-148.9467154341981
30
0
11
102.6333680115237
21
-134.94671504828244
31
0
0
SPLINE
5
812
100
AcDbEntity
8
0
100
AcDbSpline
70
0
71
3
72
8
73
4
74
0
42
0.000000001
43
0.0000000001
44
0.0000000001
40
7
40
7
40
7
40
7
40
8
40
8
40
8
40
8
10
103.1333680253065
20
-134.44671503449962
30
0
10
102.8572220826358
20
-134.44671503449962
30
0
10
102.6333680115237
20
-134.67056910561169
30
0
10
102.6333680115237
20
-134.94671504828244
30
0
0
LINE
5
813
100
AcDbEntity
8
0
100
AcDbLine
10
126.88236173414523
20
-134.44671503449962
30
0
11
132.88236156310313
21
-134.44671503449962
31
0
0
SPLINE
5
814
100
AcDbEntity
8
0
100
AcDbSpline
70
0
71
3
72
8
73
4
74
0
42
0.000000001
43
0.0000000001
44
0.0000000001
40
4
40
4
40
4
40
4
40
5
40
5
40
5
40
5
10
133.38235257724679
20
-134.94670604864331
30
0
10
133.38235257724679
20
-134.67056011365381
30
0
10
133.15850749809269
20
-134.44671503449962
30
0
10
132.88236156310313
20
-134.44671503449962
30
0
0
LINE
5
815
100
AcDbEntity
8
0
100
AcDbLine
10
133.38235257724679
20
-134.94670604864331
30
0
11
133.38235257724679
21
-136.6213454321765
31
0
0
LINE
5
816
100
AcDbEntity
8
0
100
AcDbLine
10
133.38235257724679
20
-136.6213454321765
30
0
11
148.26899774225311
21
-136.6213454321765
31
0
0
SPLINE
5
817
100
AcDbEntity
8
0
100
AcDbSpline
70
0
71
3
72
8
73
4
74
0
42
0.000000001
43
0.0000000001
44
0.0000000001
40
17
40
17
40
17
40
17
40
18
40
18
40
18
40
18
10
148.82036374282049
20
-137.12133644632021
30
0
10
148.82036374282049
20
-136.8451905113306
30
0
10
148.57350111945561
20
-136.6213454321765
30
0
10
148.26899774225311
20
-136.6213454321765
30
0
0
LINE
5
818
100
AcDbEntity
8
0
100
AcDbLine
10
148.82036374282049
20
-137.12133644632021
30
0
11
148.82036374282049
21
-150.1213396643688
31
0
0
SPLINE
5
819
100
AcDbEntity
8
0
100
AcDbSpline
70
0
71
3
72
8
73
4
74
0
42
0.000000001
43
0.0000000001
44
0.0000000001
40
15
40
15
40
15
40
15
40
16
40
16
40
16
40
16
10
148.26899774225311
20
-150.62133067851244
30
0
10
148.57350111945561
20
-150.62133067851244
30
0
10
148.82036374282049
20
-150.3974855993583
30
0
10
148.82036374282049
20
-150.1213396643688
30
0
0
LINE
5
820
100
AcDbEntity
8
0
100
AcDbLine
10
148.26899774225311
20
-150.62133067851244
30
0
11
121.03336474667522
21
-150.62133067851244
31
0
0
SPLINE
5
821
100
AcDbEntity
8
0
100
AcDbSpline
70
0
71
3
72
8
73
4
74
0
42
0.000000001
43
0.0000000001
44
0.0000000001
40
11
40
11
40
11
40
11
40
12
40
12
40
12
40
12
10
120.5333737325315
20
-150.1213396643688
30
0
10
120.5333737325315
20
-150.3974855993583
30
0
10
120.75721881168562
20
-150.62133067851244
30
0
10
121.03336474667522
20
-150.62133067851244
30
0
0
LINE
5
822
100
AcDbEntity
8
0
100
AcDbLine
10
120.5333737325315
20
-150.1213396643688
30
0
11
120.5333737325315
21
-137.12133644632021
31
0
0
SPLINE
5
823
100
AcDbEntity
8
0
100
AcDbSpline
70
0
71
3
72
8
73
4
74
0
42
0.000000001
43
0.0000000001
44
0.0000000001
40
9
40
9
40
9
40
9
40
10
40
10
40
10
40
10
10
121.03336474667522
20
-136.6213454321765
30
0
10
120.75721881168562
20
-136.6213454321765
30
0
10
120.5333737325315
20
-136.8451905113306
30
0
10
120.5333737325315
20
-137.12133644632021
30
0
0
LINE
5
824
100
AcDbEntity
8
0
100
AcDbLine
10
121.03336474667522
20
-136.6213454321765
30
0
11
126.38237072000152
21
-136.6213454321765
31
0
0
LINE
5
825
100
AcDbEntity
8
0
100
AcDbLine
10
126.38237072000152
20
-136.6213454321765
30
0
11
126.38237072000152
21
-134.94670604864331
31
0
0
SPLINE
5
826
100
AcDbEntity
8
0
100
AcDbSpline
70
0
71
3
72
8
73
4
74
0
42
0.000000001
43
0.0000000001
44
0.0000000001
40
6
40
6
40
6
40
6
40
7
40
7
40
7
40
7
10
126.88236173414523
20
-134.44671503449962
30
0
10
126.60621579915559
20
-134.44671503449962
30
0
10
126.38237072000152
20
-134.67056011365381
30
0
10
126.38237072000152
20
-134.94670604864331
30
0
0
LINE
5
827
100
AcDbEntity
8
0
100
AcDbLine
10
150.75836933811311
20
-134.44671503449962
30
0
11
156.7583695035068
21
-134.44671503449962
31
0
0
SPLINE
5
828
100
AcDbEntity
8
0
100
AcDbSpline
70
0
71
3
72
8
73
4
74
0
42
0.000000001
43
0.0000000001
44
0.0000000001
40
1
40
1
40
1
40
1
40
2
40
2
40
2
40
2
10
157.25836951728954
20
-134.95371756249023
30
0
10
157.25836951728954
20
-134.6737041881517
30
0
10
157.03450781678271
20
-134.44671503449962
30
0
10
156.7583695035068
20
-134.44671503449962
30
0
0
LINE
5
829
100
AcDbEntity
8
0
100
AcDbLine
10
157.25836951728954
20
-134.95371756249023
30
0
11
157.25836951728954
21
-149.14978834622909
31
0
0
SPLINE
5
830
100
AcDbEntity
8
0
100
AcDbSpline
70
0
71
3
72
8
73
4
74
0
42
0.000000001
43
0.0000000001
44
0.0000000001
40
3
40
3
40
3
40
3
40
4
40
4
40
4
40
4
10
156.7583695035068
20
-149.656790874221
30
0
10
157.03450781678271
20
-149.656790874221
30
0
10
157.25836951728954
20
-149.42980172056761
30
0
10
157.25836951728954
20
-149.14978834622909
30
0
0
LINE
5
831
100
AcDbEntity
8
0
100
AcDbLine
10
156.7583695035068
20
-149.656790874221
30
0
11
150.75836933811311
21
-149.656790874221
31
0
0
SPLINE
5
832
100
AcDbEntity
8
0
100
AcDbSpline
70
0
71
3
72
8
73
4
74
0
42
0.000000001
43
0.0000000001
44
0.0000000001
40
5
40
5
40
5
40
5
40
6
40
6
40
6
40
6
10
150.2583693243304
20
-149.14978834622909
30
0
10
150.2583693243304
20
-149.42980172056761
30
0
10
150.4822310248372
20
-149.656790874221
30
0
10
150.75836933811311
20
-149.656790874221
30
0
0
LINE
5
833
100
AcDbEntity
8
0
100
AcDbLine
10
150.2583693243304
20
-149.14978834622909
30
0
11
150.2583693243304
21
-134.95371756249023
31
0
0
SPLINE
5
834
100
AcDbEntity
8
0
100
AcDbSpline
70
0
71
3
72
8
73
4
74
0
42
0.000000001
43
0.0000000001
44
0.0000000001
40
7
40
7
40
7
40
7
40
8
40
8
40
8
40
8
10
150.75836933811311
20
-134.44671503449962
30
0
10
150.4822310248372
20
-134.44671503449962
30
0
10
150.2583693243304
20
-134.6737041881517
30
0
10
150.2583693243304
20
-134.95371756249023
30
0
0
ENDSEC
0
SECTION
2
OBJECTS
0
DICTIONARY
5
C
100
AcDbDictionary
3
ACAD_GROUP
350
D
3
ACAD_MLINESTYLE
350
17
0
DICTIONARY
5
D
100
AcDbDictionary
0
DICTIONARY
5
1A
330
C
100
AcDbDictionary
0
DICTIONARY
5
17
100
AcDbDictionary
0
ENDSEC
0
EOF
