0
SECTION
2
HEADER
9
$INSUNITS
70
4
9
$ACADVER
1
AC1014
9
$HANDSEED
5
FFFF
0
ENDSEC
0
SECTION
2
TABLES
0
TABLE
2
VPORT
5
8
100
AcDbSymbolTable
0
ENDTAB
0
TABLE
2
LTYPE
5
5
100
AcDbSymbolTable
0
LTYPE
5
14
100
AcDbSymbolTableRecord
100
AcDbLinetypeTableRecord
2
BYBLOCK
70
0
0
LTYPE
5
15
100
AcDbSymbolTableRecord
100
AcDbLinetypeTableRecord
2
BYLAYER
70
0
0
ENDTAB
0
TABLE
2
LAYER
5
2
100
AcDbSymbolTable
70
2
0
LAYER
5
50
100
AcDbSymbolTableRecord
100
AcDbLayerTableRecord
2
0
70
0
6
CONTINUOUS
0
ENDTAB
0
TABLE
2
STYLE
5
3
100
AcDbSymbolTable
70
1
0
STYLE
5
11
100
AcDbSymbolTableRecord
100
AcDbTextStyleTableRecord
2
STANDARD
70
0
0
ENDTAB
0
TABLE
2
VIEW
5
6
100
AcDbSymbolTable
70
0
0
ENDTAB
0
TABLE
2
UCS
5
7
100
AcDbSymbolTable
70
0
0
ENDTAB
0
TABLE
2
APPID
5
9
100
AcDbSymbolTable
70
2
0
APPID
5
12
100
AcDbSymbolTableRecord
100
AcDbRegAppTableRecord
2
ACAD
70
0
0
ENDTAB
0
TABLE
2
DIMSTYLE
5
A
100
AcDbSymbolTable
70
1
0
ENDTAB
0
TABLE
2
BLOCK_RECORD
5
1
100
AcDbSymbolTable
70
1
0
BLOCK_RECORD
5
1F
100
AcDbSymbolTableRecord
100
AcDbBlockTableRecord
2
*MODEL_SPACE
0
BLOCK_RECORD
5
1B
100
AcDbSymbolTableRecord
100
AcDbBlockTableRecord
2
*PAPER_SPACE
0
ENDTAB
0
ENDSEC
0
SECTION
2
BLOCKS
0
BLOCK
5
20
100
AcDbEntity
100
AcDbBlockBegin
2
*MODEL_SPACE
0
ENDBLK
5
21
100
AcDbEntity
100
AcDbBlockEnd
0
BLOCK
5
1C
100
AcDbEntity
100
AcDbBlockBegin
2
*PAPER_SPACE
0
ENDBLK
5
1D
100
AcDbEntity
100
AcDbBlockEnd
0
ENDSEC
0
SECTION
2
ENTITIES
0
ARC
5
100
100
AcDbEntity
8
0
100
AcDbCircle
10
109.53863
20
7.9966990000000004
30
0
40
3.2500000746409992
210
0
220
0
230
1
100
AcDbArc
50
208.02221283166287
51
331.97777101472639
0
ARC
5
101
100
AcDbEntity
8
0
100
AcDbCircle
10
105.78687700000002
20
5.9999900000000004
30
0
40
0.99999961991080133
210
0
220
-0
230
1
100
AcDbArc
50
28.022235251270569
51
89.999994746057126
0
LINE
5
102
100
AcDbEntity
8
0
100
AcDbLine
10
105.78687709169859
20
6.9999896199099965
30
0
11
91.860701001457855
21
6.9999900000000004
31
0
0
ARC
5
103
100
AcDbEntity
8
0
100
AcDbCircle
10
91.860701000000006
20
5.9999900000000004
30
0
40
0.99999999999999978
210
0
220
-0
230
1
100
AcDbArc
50
89.99999991647141
51
151.97778815319194
0
ARC
5
104
100
AcDbEntity
8
0
100
AcDbCircle
10
88.108947999999998
20
7.9966990000000004
30
0
40
3.25
210
0
220
0
230
1
100
AcDbArc
50
270.00000002995557
51
331.97777996696624
0
LINE
5
105
100
AcDbEntity
8
0
100
AcDbLine
10
88.108948001699176
20
4.7466990000000004
30
0
11
85.724698966864281
21
4.7466998081240028
31
0
0
ARC
5
106
100
AcDbEntity
8
0
100
AcDbCircle
10
85.724699000000001
20
7.9966990000000004
30
0
40
3.2499991918760052
210
0
220
0
230
1
100
AcDbArc
50
208.02222111379618
51
269.99999941583462
0
ARC
5
107
100
AcDbEntity
8
0
100
AcDbCircle
10
81.972945999999993
20
5.9999900000000004
30
0
40
1.0000005026757715
210
0
220
-0
230
1
100
AcDbArc
50
28.022208334337051
51
89.999990293378659
0
LINE
5
108
100
AcDbEntity
8
0
100
AcDbLine
10
81.97294616941258
20
6.9999905026759865
30
0
11
27.565383001356984
21
6.9999900000000004
31
0
0
ARC
5
109
100
AcDbEntity
8
0
100
AcDbCircle
10
27.565383000000004
20
5.9999900000000004
30
0
40
0.99999999999999978
210
0
220
-0
230
1
100
AcDbArc
50
89.999999922250751
51
151.97772783135989
0
ARC
5
110
100
AcDbEntity
8
0
100
AcDbCircle
10
23.81363
20
7.9966999999999997
30
0
40
3.2500005444550006
210
0
220
0
230
1
100
AcDbArc
50
208.02222839435501
51
331.97778296484205
0
ARC
5
111
100
AcDbEntity
8
0
100
AcDbCircle
10
20.061876999999999
20
5.9999900000000004
30
0
40
0.99999961991076569
210
0
220
-0
230
1
100
AcDbArc
50
28.02223525125034
51
89.999994743746157
0
LINE
5
112
100
AcDbEntity
8
0
100
AcDbLine
10
20.0618770917389
20
6.9999896199099965
30
0
11
15.658482001921332
21
6.9999900000000004
31
0
0
ARC
5
113
100
AcDbEntity
8
0
100
AcDbCircle
10
15.658481999999999
20
5.9999900000000004
30
0
40
0.99999999999999978
210
0
220
-0
230
1
100
AcDbArc
50
89.999999889915756
51
151.97770779325637
0
ARC
5
114
100
AcDbEntity
8
0
100
AcDbCircle
10
11.906729
20
7.9966999999999997
30
0
40
3.24999966169
210
0
220
0
230
1
100
AcDbArc
50
208.02223667936789
51
331.97778913041196
0
ARC
5
115
100
AcDbEntity
8
0
100
AcDbCircle
10
8.1549760000000013
20
5.9999900000000004
30
0
40
1.0000005026758547
210
0
220
-0
230
1
100
AcDbArc
50
28.022208324968908
51
89.999990548531983
0
ARC
5
116
100
AcDbEntity
8
0
100
AcDbCircle
10
-2.5003410000000006
20
1.9999900000000002
30
0
40
5.0000002057650947
210
0
220
0
230
1
100
AcDbArc
50
90.00000165420586
51
180
0
LINE
5
117
100
AcDbEntity
8
0
100
AcDbLine
10
-7.5003410000000006
20
1.9999900014096907
30
0
11
-7.5003410000000024
21
-103.01232300163848
31
0
0
ARC
5
118
100
AcDbEntity
8
0
100
AcDbCircle
10
-2.5003410000000006
20
-103.01232300000001
30
0
40
5.0000000000000018
210
0
220
0
230
1
100
AcDbArc
50
180
51
269.99999998087566
0
ARC
5
119
100
AcDbEntity
8
0
100
AcDbCircle
10
33.645614000000002
20
-107.01232300000001
30
0
40
0.99999999999999645
210
0
220
0
230
1
100
AcDbArc
50
270.00000009052565
51
353.56427920613766
0
ARC
5
120
100
AcDbEntity
8
0
100
AcDbCircle
10
35.633009999999999
20
-107.23650000000001
30
0
40
0.99999999999999645
210
0
220
-0
230
1
100
AcDbArc
50
89.999999908835221
51
173.56427288886917
0
LINE
5
121
100
AcDbEntity
8
0
100
AcDbLine
10
35.633010001591124
20
-106.23650000000001
30
0
11
65.850972347761527
21
-106.23649956113334
31
0
0
ARC
5
122
100
AcDbEntity
8
0
100
AcDbCircle
10
65.850971999999999
20
-109.23650000000002
30
0
40
3.0000008778670018
210
0
220
-0
230
1
100
AcDbArc
50
23.87942272782082
51
89.999993358245035
0
LINE
5
123
100
AcDbEntity
8
0
100
AcDbLine
10
68.594171000577418
20
-108.02206000130356
30
0
11
69.283176000798804
21
-109.57839800180395
31
0
0
ARC
5
124
100
AcDbEntity
8
0
100
AcDbCircle
10
71.111975000000001
20
-108.76877200000001
30
0
40
2.0000000105690892
210
0
220
0
230
1
100
AcDbArc
50
203.87940921350804
51
269.9999883402287
0
LINE
5
125
100
AcDbEntity
8
0
100
AcDbLine
10
71.1119745929972
20
-110.76877201056897
30
0
11
76.45658500148771
21
-110.76877199997683
31
0
0
ARC
5
126
100
AcDbEntity
8
0
100
AcDbCircle
10
76.456585000000004
20
-108.76877200000001
30
0
40
1.9999999999768292
210
0
220
0
230
1
100
AcDbArc
50
270.0000000426196
51
336.12057918549255
0
LINE
5
127
100
AcDbEntity
8
0
100
AcDbLine
10
78.285383825607255
20
-109.57839836781267
30
0
11
78.451723128699982
21
-109.20266722100338
31
0
0
ARC
5
128
100
AcDbEntity
8
0
100
AcDbCircle
10
80.280522000000019
20
-110.012294
30
0
40
2.0000000008700027
210
0
220
0
230
1
100
AcDbArc
50
90.001690181712604
51
156.12056894417864
0
LINE
5
129
100
AcDbEntity
8
0
100
AcDbLine
10
80.280463001528318
20
-108.0122940000002
30
0
11
81.694004136537274
21
-108.01225179283463
31
0
0
ARC
5
130
100
AcDbEntity
8
0
100
AcDbCircle
10
81.694063
20
-110.012252
30
0
40
2.0000004153819941
210
0
220
-0
230
1
100
AcDbArc
50
23.879435302203326
51
90.001686313815711
0
LINE
5
131
100
AcDbEntity
8
0
100
AcDbLine
10
83.522862000711712
20
-109.20262500160877
30
0
11
83.689176000798767
21
-109.57829800180397
31
0
0
ARC
5
132
100
AcDbEntity
8
0
100
AcDbCircle
10
85.517975000000007
20
-108.768672
30
0
40
2.0000000105691358
210
0
220
0
230
1
100
AcDbArc
50
203.87940921350861
51
269.99998834022705
0
LINE
5
133
100
AcDbEntity
8
0
100
AcDbLine
10
85.517974592997149
20
-110.76867201056896
30
0
11
86.105585001487711
21
-110.76867199997702
31
0
0
ARC
5
134
100
AcDbEntity
8
0
100
AcDbCircle
10
86.105585000000019
20
-108.768672
30
0
40
1.9999999999770246
210
0
220
0
230
1
100
AcDbArc
50
270.00000004261921
51
336.12057918549306
0
LINE
5
135
100
AcDbEntity
8
0
100
AcDbLine
10
87.934383825607284
20
-109.57829836781264
30
0
11
88.100710006049297
21
-109.20259799919492
31
0
0
ARC
5
136
100
AcDbEntity
8
0
100
AcDbCircle
10
89.929508999999996
20
-110.01222400000002
30
0
40
2.0000000000009948
210
0
220
-0
230
1
100
AcDbArc
50
89.999942650417239
51
156.12059075176694
0
ARC
5
137
100
AcDbEntity
8
0
100
AcDbCircle
10
134.65333602115999
20
-105.35232136402101
30
0
40
2.6599999999992359
210
0
220
0
230
1
100
AcDbArc
50
269.99987595151418
51
318.2256253555318
0
ARC
5
138
100
AcDbEntity
8
0
100
AcDbCircle
10
138.62085385887599
20
-108.89650000051802
30
0
40
2.6600000000000001
210
0
220
-0
230
1
100
AcDbArc
50
90
51
138.22562535551538
0
LINE
5
139
100
AcDbEntity
8
0
100
AcDbLine
10
138.62085385887599
20
-106.23650000051802
30
0
11
165.92697278246303
21
-106.23650000051902
31
0
0
ARC
5
140
100
AcDbEntity
8
0
100
AcDbCircle
10
165.92697278246303
20
-109.236500000519
30
0
40
2.9999999999999947
210
0
220
-0
230
1
100
AcDbArc
50
23.879420864638046
51
90
0
LINE
5
141
100
AcDbEntity
8
0
100
AcDbLine
10
168.67017101981133
20
-108.02206044639988
30
0
11
169.35917642745
21
-109.57839844061901
31
0
0
ARC
5
142
100
AcDbEntity
8
0
100
AcDbCircle
10
171.18797525234899
20
-108.768772071206
30
0
40
2.0000000000002101
210
0
220
0
230
1
100
AcDbArc
50
203.87942086464341
51
270
0
LINE
5
143
100
AcDbEntity
8
0
100
AcDbLine
10
171.18797525234899
20
-110.768772071206
30
0
11
171.77558565145401
21
-110.76877207120602
31
0
0
ARC
5
144
100
AcDbEntity
8
0
100
AcDbCircle
10
171.77558565145401
20
-108.768772071206
30
0
40
2.0000000000000107
210
0
220
0
230
1
100
AcDbArc
50
270
51
336.12057913529304
0
LINE
5
145
100
AcDbEntity
8
0
100
AcDbLine
10
173.6043844763519
20
-109.57839844062094
30
0
11
173.77071104553204
21
-109.20269694946802
31
0
0
ARC
5
146
100
AcDbEntity
8
0
100
AcDbCircle
10
175.59950987043004
20
-110.01232331888302
30
0
40
1.9999999999999929
210
0
220
-0
230
1
100
AcDbArc
50
90
51
156.1205791352929
0
LINE
5
147
100
AcDbEntity
8
0
100
AcDbLine
10
175.59950987043004
20
-108.01232331888302
30
0
11
177.74740798503501
21
-108.01232331888301
31
0
0
ARC
5
148
100
AcDbEntity
8
0
100
AcDbCircle
10
177.74740798503501
20
-108.51232331888301
30
0
40
0.50000000000002065
210
0
220
-0
230
1
100
AcDbArc
50
23.879420864604622
51
90
0
LINE
5
149
100
AcDbEntity
8
0
100
AcDbLine
10
178.20460769125987
20
-108.30991672653008
30
0
11
178.76617642745001
21
-109.57839844061901
31
0
0
ARC
5
150
100
AcDbEntity
8
0
100
AcDbCircle
10
180.594975252349
20
-108.768772071206
30
0
40
2.0000000000002101
210
0
220
0
230
1
100
AcDbArc
50
203.87942086464341
51
270
0
LINE
5
151
100
AcDbEntity
8
0
100
AcDbLine
10
180.594975252349
20
-110.768772071206
30
0
11
181.18258565145399
21
-110.76877207120602
31
0
0
ARC
5
152
100
AcDbEntity
8
0
100
AcDbCircle
10
181.18258565145399
20
-108.768772071206
30
0
40
2.0000000000000107
210
0
220
0
230
1
100
AcDbArc
50
270
51
336.12057913529344
0
LINE
5
153
100
AcDbEntity
8
0
100
AcDbLine
10
183.01138447635191
20
-109.57839844062094
30
0
11
183.572953212545
21
-108.309916726529
31
0
0
ARC
5
154
100
AcDbEntity
8
0
100
AcDbCircle
10
184.03015291877
20
-108.51232331888301
30
0
40
0.50000000000000711
210
0
220
-0
230
1
100
AcDbArc
50
90
51
156.12057913528878
0
LINE
5
155
100
AcDbEntity
8
0
100
AcDbLine
10
184.03015291877
20
-108.01232331888301
30
0
11
186.42009760634704
21
-108.012394316019
31
0
0
ARC
5
156
100
AcDbEntity
8
0
100
AcDbCircle
10
186.420038193143
20
-110.01239431513602
30
0
40
1.9999999999999987
210
0
220
-0
230
1
100
AcDbArc
50
23.879420864616943
51
89.998297937080295
0
LINE
5
157
100
AcDbEntity
8
0
100
AcDbLine
10
188.2488370180422
20
-109.20276794572393
30
0
11
188.41517642745001
21
-109.578498440619
31
0
0
ARC
5
158
100
AcDbEntity
8
0
100
AcDbCircle
10
190.243975252349
20
-108.76887207120701
30
0
40
1.9999999999998002
210
0
220
0
230
1
100
AcDbArc
50
203.87942086461663
51
270
0
LINE
5
159
100
AcDbEntity
8
0
100
AcDbLine
10
190.243975252349
20
-110.76887207120703
30
0
11
190.83158565145399
21
-110.768872071206
31
0
0
ARC
5
160
100
AcDbEntity
8
0
100
AcDbCircle
10
190.83158565145399
20
-108.76887207120602
30
0
40
1.9999999999999929
210
0
220
0
230
1
100
AcDbArc
50
270
51
336.12057913529344
0
LINE
5
161
100
AcDbEntity
8
0
100
AcDbLine
10
192.66038447635191
20
-109.57849844062096
30
0
11
193.44867927166604
21
-107.797883764761
31
0
0
ARC
5
162
100
AcDbEntity
8
0
100
AcDbCircle
10
196.19187750901304
20
-109.01232331888302
30
0
40
3.0000000000000071
210
0
220
-0
230
1
100
AcDbArc
50
90
51
156.12057913530123
0
LINE
5
163
100
AcDbEntity
8
0
100
AcDbLine
10
196.19187750901304
20
-106.01232331888301
30
0
11
207.24424957362601
21
-106.01232331888301
31
0
0
ARC
5
164
100
AcDbEntity
8
0
100
AcDbCircle
10
207.24424957362601
20
-107.01232331888301
30
0
40
1.0000000000000142
210
0
220
0
230
1
100
AcDbArc
50
0
51
90
0
ARC
5
165
100
AcDbEntity
8
0
100
AcDbCircle
10
209.24424957362604
20
-107.01232331888301
30
0
40
1.0000000000000142
210
0
220
0
230
1
100
AcDbArc
50
180
51
270
0
LINE
5
166
100
AcDbEntity
8
0
100
AcDbLine
10
209.24424957362604
20
-108.01232331888302
30
0
11
224.92165829620504
21
-108.01232331888301
31
0
0
ARC
5
167
100
AcDbEntity
8
0
100
AcDbCircle
10
224.92165829620401
20
-107.01232331888301
30
0
40
0.99999999999999645
210
0
220
0
230
1
100
AcDbArc
50
270.00000000005861
51
324.39730039304044
0
ARC
5
168
100
AcDbEntity
8
0
100
AcDbCircle
10
228.37721995822
20
-109.486508760601
30
0
40
3.2500000000001301
210
0
220
-0
230
1
100
AcDbArc
50
35.60269960698227
51
144.39730039302736
0
ARC
5
169
100
AcDbEntity
8
0
100
AcDbCircle
10
231.83278162023501
20
-107.01232331888301
30
0
40
0.99999999999953615
210
0
220
0
230
1
100
AcDbArc
50
215.60269960696053
51
270
0
ARC
5
170
100
AcDbEntity
8
0
100
AcDbCircle
10
277.531938338835
20
-107.01232331888301
30
0
40
0.99999999999999645
210
0
220
0
230
1
100
AcDbArc
50
270
51
324.39730039304106
0
ARC
5
171
100
AcDbEntity
8
0
100
AcDbCircle
10
280.98750000084999
20
-109.486508760601
30
0
40
3.2500000000001394
210
0
220
-0
230
1
100
AcDbArc
50
35.602699606971548
51
144.39730039301696
0
ARC
5
172
100
AcDbEntity
8
0
100
AcDbCircle
10
284.443061662866
20
-107.01232331888301
30
0
40
1.0000000000003353
210
0
220
0
230
1
100
AcDbArc
50
215.60269960696218
51
270
0
LINE
5
173
100
AcDbEntity
8
0
100
AcDbLine
10
284.443061662866
20
-108.01232331888292
30
0
11
296.58193833883502
21
-108.01232331888301
31
0
0
ARC
5
174
100
AcDbEntity
8
0
100
AcDbCircle
10
296.58193833883502
20
-107.01232331888301
30
0
40
0.99999999999999645
210
0
220
0
230
1
100
AcDbArc
50
270
51
324.39730039303788
0
ARC
5
175
100
AcDbEntity
8
0
100
AcDbCircle
10
300.03750000085
20
-109.486508760601
30
0
40
3.2500000000001394
210
0
220
-0
230
1
100
AcDbArc
50
35.602699606971548
51
144.39730039301796
0
ARC
5
176
100
AcDbEntity
8
0
100
AcDbCircle
10
303.49306166286601
20
-107.01232331888301
30
0
40
1.0000000000003353
210
0
220
0
230
1
100
AcDbArc
50
215.60269960696218
51
270
0
LINE
5
177
100
AcDbEntity
8
0
100
AcDbLine
10
303.49306166286601
20
-108.01232331888292
30
0
11
316.10693833883499
21
-108.01232331888301
31
0
0
ARC
5
178
100
AcDbEntity
8
0
100
AcDbCircle
10
316.10693833883499
20
-107.01232331888301
30
0
40
0.99999999999999645
210
0
220
0
230
1
100
AcDbArc
50
270
51
324.39730039304044
0
ARC
5
179
100
AcDbEntity
8
0
100
AcDbCircle
10
319.56250000084998
20
-109.486508760601
30
0
40
3.2500000000000999
210
0
220
-0
230
1
100
AcDbArc
50
35.602699606971917
51
144.39730039301716
0
ARC
5
180
100
AcDbEntity
8
0
100
AcDbCircle
10
323.01806166286605
20
-107.01232331888301
30
0
40
1.0000000000004035
210
0
220
0
230
1
100
AcDbArc
50
215.60269960695908
51
270
0
ARC
5
181
100
AcDbEntity
8
0
100
AcDbCircle
10
331.11244399999998
20
-103.01232300000001
30
0
40
5
210
0
220
0
230
1
100
AcDbArc
50
270.00000002256047
51
360
0
LINE
5
182
100
AcDbEntity
8
0
100
AcDbLine
10
336.11244399999998
20
-103.01232300163848
30
0
11
336.1124439999864
21
2.069444001957681
31
0
0
ARC
5
183
100
AcDbEntity
8
0
100
AcDbCircle
10
331.11292600000007
20
1.9999900000000002
30
0
40
5.0000004090575167
210
0
220
-0
230
1
100
AcDbArc
50
0.79590976848331463
51
90.000000425573617
0
ARC
5
184
100
AcDbEntity
8
0
100
AcDbCircle
10
322.83925799999997
20
5.9999900000000004
30
0
40
1.0000002057650674
210
0
220
-0
230
1
100
AcDbArc
50
89.999989074543493
51
151.97792970691222
0
ARC
5
185
100
AcDbEntity
8
0
100
AcDbCircle
10
319.08749999999998
20
7.9966889999999999
30
0
40
3.24999984720501
210
0
220
0
230
1
100
AcDbArc
50
208.02205520499041
51
331.97793345173619
0
ARC
5
186
100
AcDbEntity
8
0
100
AcDbCircle
10
315.33574099999998
20
5.9999900000000004
30
0
40
1.0000004458164518
210
0
220
-0
230
1
100
AcDbArc
50
28.022080240497829
51
90.000016163592448
0
LINE
5
187
100
AcDbEntity
8
0
100
AcDbLine
10
315.33574071789195
20
6.9999904458159614
30
0
11
303.31425800146968
21
6.9999899999998805
31
0
0
ARC
5
188
100
AcDbEntity
8
0
100
AcDbCircle
10
303.314258
20
5.9999900000000004
30
0
40
0.99999999999987987
210
0
220
-0
230
1
100
AcDbArc
50
89.999999915793168
51
151.97792970691054
0
ARC
5
189
100
AcDbEntity
8
0
100
AcDbCircle
10
299.5625
20
7.9966889999999999
30
0
40
3.2499998472049914
210
0
220
0
230
1
100
AcDbArc
50
208.02205520499126
51
331.9779334517367
0
ARC
5
190
100
AcDbEntity
8
0
100
AcDbCircle
10
295.81074100000001
20
5.9999900000000004
30
0
40
1.0000004458164706
210
0
220
-0
230
1
100
AcDbArc
50
28.022080240494962
51
90.000016163595717
0
LINE
5
191
100
AcDbEntity
8
0
100
AcDbLine
10
295.81074071789192
20
6.9999904458159614
30
0
11
284.97273500134963
21
6.9999899999998796
31
0
0
ARC
5
192
100
AcDbEntity
8
0
100
AcDbCircle
10
284.972735
20
5.9999900000000004
30
0
40
0.99999999999987876
210
0
220
-0
230
1
100
AcDbArc
50
89.999999922671705
51
180
0
LINE
5
193
100
AcDbEntity
8
0
100
AcDbLine
10
283.972735
20
5.9999900014096896
30
0
11
283.972735
21
5.4999900014096914
31
0
0
ARC
5
194
100
AcDbEntity
8
0
100
AcDbCircle
10
282.97273500000006
20
5.4999900000000004
30
0
40
0.99999999999999978
210
0
220
0
230
1
100
AcDbArc
50
-89.999999922674974
51
0
0
LINE
5
195
100
AcDbEntity
8
0
100
AcDbLine
10
282.97273500134963
20
4.4999900000000004
30
0
11
282.10670900196141
21
4.4999900000000004
31
0
0
ARC
5
196
100
AcDbEntity
8
0
100
AcDbCircle
10
282.10670900000002
20
4.9999900000000004
30
0
40
0.50000000000000044
210
0
220
-0
230
1
100
AcDbArc
50
89.999999775242159
51
270.00000022475785
0
LINE
5
197
100
AcDbEntity
8
0
100
AcDbLine
10
282.10670900196141
20
5.4999900000000013
30
0
11
282.90670900196136
21
5.4999900000000004
31
0
0
ARC
5
198
100
AcDbEntity
8
0
100
AcDbCircle
10
282.90670899999998
20
5.9999900000000004
30
0
40
0.50000000000000044
210
0
220
0
230
1
100
AcDbArc
50
-89.999999775242159
51
0
0
LINE
5
199
100
AcDbEntity
8
0
100
AcDbLine
10
283.40670899999998
20
5.9999900014096896
30
0
11
283.40670900065379
21
14.149983000664907
31
0
0
LINE
5
200
100
AcDbEntity
8
0
100
AcDbLine
10
283.40670900065379
20
14.149983000664907
30
0
11
273.80671800005234
21
14.149983000664907
31
0
0
LINE
5
201
100
AcDbEntity
8
0
100
AcDbLine
10
273.80671800005234
20
14.149983000664907
30
0
11
273.80671800000005
21
5.9999900014096896
31
0
0
ARC
5
202
100
AcDbEntity
8
0
100
AcDbCircle
10
274.30671799999999
20
5.9999900000000004
30
0
40
0.49999999999997158
210
0
220
0
230
1
100
AcDbArc
50
180
51
270.00000020491035
0
LINE
5
203
100
AcDbEntity
8
0
100
AcDbLine
10
274.30671800178817
20
5.4999900000000004
30
0
11
275.10671800178824
21
5.4999900000000013
31
0
0
ARC
5
204
100
AcDbEntity
8
0
100
AcDbCircle
10
275.106718
20
4.9999900000000004
30
0
40
0.49999999999999989
210
0
220
0
230
1
100
AcDbArc
50
-89.999999795083127
51
89.999999795083127
0
LINE
5
205
100
AcDbEntity
8
0
100
AcDbLine
10
275.10671800178824
20
4.4999900000000013
30
0
11
273.9727430016186
21
4.4999900000000004
31
0
0
ARC
5
206
100
AcDbEntity
8
0
100
AcDbCircle
10
273.97274299999998
20
5.4999900000000004
30
0
40
1.0000000000000142
210
0
220
0
230
1
100
AcDbArc
50
180
51
270.00000009273987
0
LINE
5
207
100
AcDbEntity
8
0
100
AcDbLine
10
272.97274299999998
20
5.4999900014096914
30
0
11
272.97274299999998
21
5.9999900014096896
31
0
0
ARC
5
208
100
AcDbEntity
8
0
100
AcDbCircle
10
271.97274299999998
20
5.9999900000000004
30
0
40
0.99999999999997868
210
0
220
-0
230
1
100
AcDbArc
50
0
51
89.999987967179791
0
ARC
5
209
100
AcDbEntity
8
0
100
AcDbCircle
10
258.546942
20
5.9999900000000004
30
0
40
1.0000002057650639
210
0
220
-0
230
1
100
AcDbArc
50
89.999993878240588
51
151.97777079472954
0
ARC
5
210
100
AcDbEntity
8
0
100
AcDbCircle
10
254.79518900000002
20
7.9966990000000004
30
0
40
3.2500000746409925
210
0
220
0
230
1
100
AcDbArc
50
208.02221283539745
51
331.97778530803191
0
ARC
5
211
100
AcDbEntity
8
0
100
AcDbCircle
10
251.04343499999999
20
5.9999900000000004
30
0
40
1.0000005026762946
210
0
220
-0
230
1
100
AcDbArc
50
28.022208320775572
51
89.999986369175005
0
LINE
5
212
100
AcDbEntity
8
0
100
AcDbLine
10
251.04343523790288
20
6.9999905026759723
30
0
11
225.21070100145789
21
6.9999900000000501
31
0
0
ARC
5
213
100
AcDbEntity
8
0
100
AcDbCircle
10
225.21070100000003
20
5.9999900000000004
30
0
40
1.0000000000000497
210
0
220
-0
230
1
100
AcDbArc
50
89.9999999164706
51
151.97777399052043
0
ARC
5
214
100
AcDbEntity
8
0
100
AcDbCircle
10
221.45894800000002
20
7.9966990000000004
30
0
40
3.25
210
0
220
0
230
1
100
AcDbArc
50
270.00000002995631
51
331.97778432471171
0
LINE
5
215
100
AcDbEntity
8
0
100
AcDbLine
10
221.45894800169924
20
4.7466990000000004
30
0
11
219.07469919753083
21
4.7466994040004176
31
0
0
ARC
5
216
100
AcDbEntity
8
0
100
AcDbCircle
10
219.07469900000001
20
7.9966990000000004
30
0
40
3.2499991918759896
210
0
220
0
230
1
100
AcDbArc
50
208.02222111379641
51
270.00000348236432
0
ARC
5
217
100
AcDbEntity
8
0
100
AcDbCircle
10
215.322946
20
5.9999900000000004
30
0
40
1.0000005026758028
210
0
220
-0
230
1
100
AcDbArc
50
28.022208334336295
51
89.99998638199736
0
LINE
5
218
100
AcDbEntity
8
0
100
AcDbLine
10
215.3229462376791
20
6.9999905026759723
30
0
11
199.01538300135701
21
6.9999900000000501
31
0
0
ARC
5
219
100
AcDbEntity
8
0
100
AcDbCircle
10
199.01538300000001
20
5.9999900000000004
30
0
40
1.0000000000000497
210
0
220
-0
230
1
100
AcDbArc
50
89.999999922249941
51
151.97776891308004
0
ARC
5
220
100
AcDbEntity
8
0
100
AcDbCircle
10
195.26363000000003
20
7.9966999999999997
30
0
40
3.2500005444549931
210
0
220
0
230
1
100
AcDbArc
50
208.02222839435493
51
331.97777032431321
0
ARC
5
221
100
AcDbEntity
8
0
100
AcDbCircle
10
191.51187700000003
20
5.9999900000000004
30
0
40
0.99999961991079345
210
0
220
-0
230
1
100
AcDbArc
50
28.022235251250706
51
90.000013274829726
0
LINE
5
222
100
AcDbEntity
8
0
100
AcDbLine
10
191.51187676831063
20
6.9999896199099743
30
0
11
177.58540100145791
21
6.999989999999868
31
0
0
ARC
5
223
100
AcDbEntity
8
0
100
AcDbCircle
10
177.58540100000002
20
5.9999900000000004
30
0
40
0.99999999999986766
210
0
220
-0
230
1
100
AcDbArc
50
89.999999916468965
51
151.97777399051992
0
ARC
5
224
100
AcDbEntity
8
0
100
AcDbCircle
10
173.83364800000004
20
7.9966990000000004
30
0
40
3.25
210
0
220
0
230
1
100
AcDbArc
50
270.00000002995483
51
331.97778432471165
0
LINE
5
225
100
AcDbEntity
8
0
100
AcDbLine
10
173.83364800169917
20
4.7466990000000004
30
0
11
171.44939919753074
21
4.7466994040004176
31
0
0
ARC
5
226
100
AcDbEntity
8
0
100
AcDbCircle
10
171.449399
20
7.9966990000000004
30
0
40
3.2499991918759985
210
0
220
0
230
1
100
AcDbArc
50
208.02222111379669
51
270.00000348236279
0
ARC
5
227
100
AcDbEntity
8
0
100
AcDbCircle
10
167.69764599999999
20
5.9999900000000004
30
0
40
1.0000005026757934
210
0
220
-0
230
1
100
AcDbArc
50
28.02220833433525
51
89.999986382002248
0
ARC
5
228
100
AcDbEntity
8
0
100
AcDbCircle
10
113.29038300000001
20
5.9999900000000004
30
0
40
1.0000002057650947
210
0
220
-0
230
1
100
AcDbArc
50
89.999989912385075
51
151.97781724796877
0
CIRCLE
5
229
100
AcDbEntity
8
0
100
AcDbCircle
10
0
20
0
30
0
40
1.9939
210
0
220
0
230
1
0
LINE
5
230
100
AcDbEntity
8
0
100
AcDbLine
10
-2.5003411443566996
20
6.9999902057650933
30
0
11
8.1549761649593204
21
6.9999905026759865
31
0
0
LINE
5
231
100
AcDbEntity
8
0
100
AcDbLine
10
-2.5003410016689127
20
-108.01232300000001
30
0
11
33.645614001579972
21
-108.01232300000001
31
0
0
LINE
5
232
100
AcDbEntity
8
0
100
AcDbLine
10
134.65333026211499
20
-108.01232136401401
30
0
11
89.929511001878083
21
-108.01222400000002
31
0
0
LINE
5
233
100
AcDbEntity
8
0
100
AcDbLine
10
231.83278162023501
20
-108.01232331888292
30
0
11
277.531938338835
21
-108.01232331888301
31
0
0
LINE
5
234
100
AcDbEntity
8
0
100
AcDbLine
10
323.01806166286605
20
-108.01232331888293
30
0
11
331.11244400196875
21
-108.01232300000001
31
0
0
LINE
5
235
100
AcDbEntity
8
0
100
AcDbLine
10
322.8392581906852
20
6.9999902057650498
30
0
11
331.11292596286177
21
6.9999904090439999
31
0
0
LINE
5
236
100
AcDbEntity
8
0
100
AcDbLine
10
258.54694210684488
20
6.9999902057650587
30
0
11
271.97274321001231
21
6.9999899999999782
31
0
0
LINE
5
237
100
AcDbEntity
8
0
100
AcDbLine
10
167.69764623767901
20
6.9999905026759723
30
0
11
113.29038317606214
21
6.99999020576508
31
0
0
CIRCLE
5
238
100
AcDbEntity
8
0
100
AcDbCircle
10
275.91039899999998
20
4.59999
30
0
40
0.25
210
0
220
0
230
1
0
CIRCLE
5
239
100
AcDbEntity
8
0
100
AcDbCircle
10
276.66039899999998
20
4.59999
30
0
40
0.25
210
0
220
0
230
1
0
CIRCLE
5
240
100
AcDbEntity
8
0
100
AcDbCircle
10
277.55039900000003
20
4.59999
30
0
40
0.25
210
0
220
0
230
1
0
CIRCLE
5
241
100
AcDbEntity
8
0
100
AcDbCircle
10
278.30039900000003
20
4.59999
30
0
40
0.25
210
0
220
0
230
1
0
CIRCLE
5
242
100
AcDbEntity
8
0
100
AcDbCircle
10
279.05039900000008
20
4.59999
30
0
40
0.25
210
0
220
0
230
1
0
CIRCLE
5
243
100
AcDbEntity
8
0
100
AcDbCircle
10
279.80039900000003
20
4.59999
30
0
40
0.25
210
0
220
0
230
1
0
CIRCLE
5
244
100
AcDbEntity
8
0
100
AcDbCircle
10
280.55039900000003
20
4.59999
30
0
40
0.25
210
0
220
0
230
1
0
CIRCLE
5
245
100
AcDbEntity
8
0
100
AcDbCircle
10
281.30039900000003
20
4.59999
30
0
40
0.25
210
0
220
0
230
1
0
CIRCLE
5
246
100
AcDbEntity
8
0
100
AcDbCircle
10
277.74333799999999
20
8.4395100000000021
30
0
40
0.34999999999999998
210
0
220
0
230
1
0
CIRCLE
5
247
100
AcDbEntity
8
0
100
AcDbCircle
10
276.94333799999998
20
7.2395100000000001
30
0
40
0.34999999999999998
210
0
220
0
230
1
0
CIRCLE
5
248
100
AcDbEntity
8
0
100
AcDbCircle
10
278.54333800000001
20
7.2395100000000001
30
0
40
0.34999999999999998
210
0
220
0
230
1
0
CIRCLE
5
249
100
AcDbEntity
8
0
100
AcDbCircle
10
280.14333800000003
20
7.2395100000000001
30
0
40
0.34999999999999998
210
0
220
0
230
1
0
CIRCLE
5
250
100
AcDbEntity
8
0
100
AcDbCircle
10
279.34333800000002
20
8.4395100000000021
30
0
40
0.34999999999999998
210
0
220
0
230
1
0
LWPOLYLINE
5
251
100
AcDbEntity
8
0
100
AcDbPolyline
90
4
70
1
43
0.0
10
275.24333799999999
20
12.339510000000002
42
-0.99999999999999989
10
274.44333800000004
20
12.339510000000002
10
274.44333800000004
20
13.439510000000002
42
-0.99999999999999989
10
275.24333799999999
20
13.439510000000002
0
LWPOLYLINE
5
252
100
AcDbEntity
8
0
100
AcDbPolyline
90
4
70
1
43
0.0
10
281.84333800000002
20
13.439510000000002
42
-0.99999999999999989
10
282.64333799999997
20
13.439510000000002
10
282.64333799999997
20
12.339510000000002
42
-0.99999999999999989
10
281.84333800000002
20
12.339510000000002
0
ENDSEC
0
SECTION
2
OBJECTS
0
DICTIONARY
5
C
100
AcDbDictionary
3
ACAD_GROUP
350
D
3
ACAD_MLINESTYLE
350
17
0
DICTIONARY
5
D
100
AcDbDictionary
0
DICTIONARY
5
1A
330
C
100
AcDbDictionary
0
DICTIONARY
5
17
100
AcDbDictionary
0
ENDSEC
0
EOF
