0
SECTION
2
HEADER
9
$INSUNITS
70
4
9
$ACADVER
1
AC1014
9
$HANDSEED
5
FFFF
0
ENDSEC
0
SECTION
2
TABLES
0
TABLE
2
VPORT
5
8
100
AcDbSymbolTable
0
ENDTAB
0
TABLE
2
LTYPE
5
5
100
AcDbSymbolTable
0
LTYPE
5
14
100
AcDbSymbolTableRecord
100
AcDbLinetypeTableRecord
2
BYBLOCK
70
0
0
LTYPE
5
15
100
AcDbSymbolTableRecord
100
AcDbLinetypeTableRecord
2
BYLAYER
70
0
0
ENDTAB
0
TABLE
2
LAYER
5
2
100
AcDbSymbolTable
70
2
0
LAYER
5
50
100
AcDbSymbolTableRecord
100
AcDbLayerTableRecord
2
0
70
0
6
CONTINUOUS
0
ENDTAB
0
TABLE
2
STYLE
5
3
100
AcDbSymbolTable
70
1
0
STYLE
5
11
100
AcDbSymbolTableRecord
100
AcDbTextStyleTableRecord
2
STANDARD
70
0
0
ENDTAB
0
TABLE
2
VIEW
5
6
100
AcDbSymbolTable
70
0
0
ENDTAB
0
TABLE
2
UCS
5
7
100
AcDbSymbolTable
70
0
0
ENDTAB
0
TABLE
2
APPID
5
9
100
AcDbSymbolTable
70
2
0
APPID
5
12
100
AcDbSymbolTableRecord
100
AcDbRegAppTableRecord
2
ACAD
70
0
0
ENDTAB
0
TABLE
2
DIMSTYLE
5
A
100
AcDbSymbolTable
70
1
0
ENDTAB
0
TABLE
2
BLOCK_RECORD
5
1
100
AcDbSymbolTable
70
1
0
BLOCK_RECORD
5
1F
100
AcDbSymbolTableRecord
100
AcDbBlockTableRecord
2
*MODEL_SPACE
0
BLOCK_RECORD
5
1B
100
AcDbSymbolTableRecord
100
AcDbBlockTableRecord
2
*PAPER_SPACE
0
ENDTAB
0
ENDSEC
0
SECTION
2
BLOCKS
0
BLOCK
5
20
100
AcDbEntity
100
AcDbBlockBegin
2
*MODEL_SPACE
0
ENDBLK
5
21
100
AcDbEntity
100
AcDbBlockEnd
0
BLOCK
5
1C
100
AcDbEntity
100
AcDbBlockBegin
2
*PAPER_SPACE
0
ENDBLK
5
1D
100
AcDbEntity
100
AcDbBlockEnd
0
ENDSEC
0
SECTION
2
ENTITIES
0
LINE
5
100
100
AcDbEntity
8
0
100
AcDbLine
10
60.150019
20
-15.815499004180001
30
0
11
60.150019999999998
21
-16.037520000000001
31
0
0
ARC
5
101
100
AcDbEntity
8
0
100
AcDbCircle
10
57.150019999999998
20
-16.037520000000001
30
0
40
2.9999999999999982
210
0
220
0
230
1
100
AcDbArc
50
-180
51
0
0
LINE
5
102
100
AcDbEntity
8
0
100
AcDbLine
10
54.150020000000005
20
-16.037520000000001
30
0
11
54.150020000000005
21
-15.8155
31
0
0
ARC
5
103
100
AcDbEntity
8
0
100
AcDbCircle
10
53.650020000000005
20
-15.8155
30
0
40
0.49999999999999822
210
0
220
0
230
1
100
AcDbArc
50
0
51
89.999999519975418
0
LINE
5
104
100
AcDbEntity
8
0
100
AcDbLine
10
53.65002000418901
20
-15.3155
30
0
11
50.837485000000001
21
-15.315500000000002
31
0
0
ARC
5
105
100
AcDbEntity
8
0
100
AcDbCircle
10
50.837485000000001
20
-16.3155
30
0
40
0.99999999999999867
210
0
220
-0
230
1
100
AcDbArc
50
90
51
171.15547121958247
0
ARC
5
106
100
AcDbEntity
8
0
100
AcDbCircle
10
47.626130000000011
20
-15.815801
30
0
40
2.2500024436239991
210
0
220
0
230
1
100
AcDbArc
50
188.84454269662118
51
351.15549441792433
0
ARC
5
107
100
AcDbEntity
8
0
100
AcDbCircle
10
44.414774000000001
20
-16.3155
30
0
40
0.99999854858273873
210
0
220
-0
230
1
100
AcDbArc
50
8.8444364630771855
51
89.999907683072522
0
LINE
5
108
100
AcDbEntity
8
0
100
AcDbLine
10
44.414775611232002
20
-15.315501451418299
30
0
11
39.939749999999997
21
-15.315500000000002
31
0
0
ARC
5
109
100
AcDbEntity
8
0
100
AcDbCircle
10
39.939749999999997
20
-16.3155
30
0
40
0.99999999999999867
210
0
220
-0
230
1
100
AcDbArc
50
90
51
173.24774594999076
0
ARC
5
110
100
AcDbEntity
8
0
100
AcDbCircle
10
35.719228999999999
20
-15.815799999999999
30
0
40
3.2500011730369986
210
0
220
0
230
1
100
AcDbArc
50
186.75339643024765
51
353.24774495974037
0
ARC
5
111
100
AcDbEntity
8
0
100
AcDbCircle
10
31.498718
20
-16.315583
30
0
40
0.99999837381166001
210
0
220
-0
230
1
100
AcDbArc
50
6.7533344637260395
51
90.004616673732158
0
LINE
5
112
100
AcDbEntity
8
0
100
AcDbLine
10
31.498637423974003
20
-15.315584629435254
30
0
11
20.214941
21
-15.3165
31
0
0
ARC
5
113
100
AcDbEntity
8
0
100
AcDbCircle
10
20.126332000000001
20
-19.316859999999998
30
0
40
4.0013412356959766
210
0
220
-0
230
1
100
AcDbArc
50
88.731091284790381
51
181.25502512470942
0
LINE
5
114
100
AcDbEntity
8
0
100
AcDbLine
10
16.125950646210001
20
-19.404499652710001
30
0
11
16.125951000000001
21
-128.79950000000002
31
0
0
ARC
5
115
100
AcDbEntity
8
0
100
AcDbCircle
10
20.125679999999999
20
-128.79977099999999
30
0
40
3.9997290091807454
210
0
220
0
230
1
100
AcDbArc
50
179.9961179479356
51
270.00388295792987
0
LINE
5
116
100
AcDbEntity
8
0
100
AcDbLine
10
20.125951063237007
20
-132.79949999999599
30
0
11
34.075018999999998
21
-132.79949999999999
31
0
0
ARC
5
117
100
AcDbEntity
8
0
100
AcDbCircle
10
34.075020000000002
20
-132.29949999999999
30
0
40
0.50000000000098932
210
0
220
0
230
1
100
AcDbArc
50
269.99988540844043
51
359.99988540970844
0
LINE
5
118
100
AcDbEntity
8
0
100
AcDbLine
10
34.575020000000002
20
-132.29950099999999
30
0
11
34.575020000000002
21
-131.600019
31
0
0
ARC
5
119
100
AcDbEntity
8
0
100
AcDbCircle
10
37.575020000000009
20
-131.600019
30
0
40
2.9999999999999982
210
0
220
0
230
1
100
AcDbArc
50
0
51
180
0
LINE
5
120
100
AcDbEntity
8
0
100
AcDbLine
10
40.575020000000002
20
-131.600019
30
0
11
40.575020000000002
21
-132.29949999999999
31
0
0
ARC
5
121
100
AcDbEntity
8
0
100
AcDbCircle
10
41.075020000000002
20
-132.29949999999999
30
0
40
0.49999999999999822
210
0
220
0
230
1
100
AcDbArc
50
180
51
270
0
LINE
5
122
100
AcDbEntity
8
0
100
AcDbLine
10
41.075020000000002
20
-132.79950000000002
30
0
11
63.896450000000009
21
-132.79949999999999
31
0
0
ARC
5
123
100
AcDbEntity
8
0
100
AcDbCircle
10
63.896450000000009
20
-131.79949999999999
30
0
40
0.99999999999999645
210
0
220
0
230
1
100
AcDbArc
50
270
51
339.352146731461
0
ARC
5
124
100
AcDbEntity
8
0
100
AcDbCircle
10
67.872944000000004
20
-133.297957
30
0
40
3.2494566325769991
210
0
220
-0
230
1
100
AcDbArc
50
20.647849776284986
51
159.35215331072786
0
ARC
5
125
100
AcDbEntity
8
0
100
AcDbCircle
10
71.849439000000004
20
-131.79949999999999
30
0
40
1.0000004934421247
210
0
220
0
230
1
100
AcDbArc
50
200.6478230336144
51
269.99996976359927
0
LINE
5
126
100
AcDbEntity
8
0
100
AcDbLine
10
71.849438472274997
20
-132.79950049344188
30
0
11
222.24973700000004
21
-132.79461699999999
31
0
0
ARC
5
127
100
AcDbEntity
8
0
100
AcDbCircle
10
222.24958799999999
20
-131.79461699999999
30
0
40
1.0000000111004965
210
0
220
0
230
1
100
AcDbArc
50
270.00853707108712
51
339.34188727546325
0
ARC
5
128
100
AcDbEntity
8
0
100
AcDbCircle
10
226.22556200000002
20
-133.29369
30
0
40
3.2491875099520029
210
0
220
-0
230
1
100
AcDbArc
50
20.587765137881476
51
159.3419127108663
0
ARC
5
129
100
AcDbEntity
8
0
100
AcDbCircle
10
230.20337400000003
20
-131.79949999999999
30
0
40
0.99999971391260467
210
0
220
0
230
1
100
AcDbArc
50
200.58766384937857
51
269.99992345911897
0
LINE
5
130
100
AcDbEntity
8
0
100
AcDbLine
10
230.20337266411002
20
-132.7994997139111
30
0
11
300.82332100000002
21
-132.79949999999999
31
0
0
ARC
5
131
100
AcDbEntity
8
0
100
AcDbCircle
10
300.82332100000002
20
-131.79949999999999
30
0
40
0.99999999999999645
210
0
220
0
230
1
100
AcDbArc
50
270
51
339.33976406335944
0
ARC
5
132
100
AcDbEntity
8
0
100
AcDbCircle
10
304.80000000000007
20
-133.29900799999999
30
0
40
3.249998449020004
210
0
220
-0
230
1
100
AcDbArc
50
20.660245686771233
51
159.33977502810961
0
ARC
5
133
100
AcDbEntity
8
0
100
AcDbCircle
10
308.776678
20
-131.79949999999999
30
0
40
1.0000006283623604
210
0
220
0
230
1
100
AcDbArc
50
200.66018882873939
51
269.99995288857485
0
LINE
5
134
100
AcDbEntity
8
0
100
AcDbLine
10
308.77667717775
20
-132.79950062836167
30
0
11
320.35001999999997
21
-132.79949999999999
31
0
0
ARC
5
135
100
AcDbEntity
8
0
100
AcDbCircle
10
320.35001999999997
20
-132.29949999999999
30
0
40
0.49999999999998934
210
0
220
0
230
1
100
AcDbArc
50
270
51
359.99999879258172
0
LINE
5
136
100
AcDbEntity
8
0
100
AcDbLine
10
320.85001999999997
20
-132.29950001020001
30
0
11
320.85001999999997
21
-131.600019
31
0
0
ARC
5
137
100
AcDbEntity
8
0
100
AcDbCircle
10
323.85001999999997
20
-131.600019
30
0
40
2.9999999999999716
210
0
220
0
230
1
100
AcDbArc
50
0
51
180
0
LINE
5
138
100
AcDbEntity
8
0
100
AcDbLine
10
326.85001999999997
20
-131.600019
30
0
11
326.85001999999997
21
-132.29949999999999
31
0
0
ARC
5
139
100
AcDbEntity
8
0
100
AcDbCircle
10
327.35002000000003
20
-132.29949999999999
30
0
40
0.50000000000004263
210
0
220
0
230
1
100
AcDbArc
50
180
51
270.00000117914328
0
LINE
5
140
100
AcDbEntity
8
0
100
AcDbLine
10
327.35002001029
20
-132.79950000000002
30
0
11
339.39832100000001
21
-132.79949999999999
31
0
0
ARC
5
141
100
AcDbEntity
8
0
100
AcDbCircle
10
339.39832100000001
20
-131.79949999999999
30
0
40
0.99999999999999645
210
0
220
0
230
1
100
AcDbArc
50
270
51
339.33976406336666
0
ARC
5
142
100
AcDbEntity
8
0
100
AcDbCircle
10
343.375
20
-133.29900799999999
30
0
40
3.2499984490199911
210
0
220
-0
230
1
100
AcDbArc
50
20.660245686770406
51
159.33977502810703
0
ARC
5
143
100
AcDbEntity
8
0
100
AcDbCircle
10
347.35167799999999
20
-131.79949999999999
30
0
40
1.0000006283624059
210
0
220
0
230
1
100
AcDbArc
50
200.6601888287409
51
269.99995288857485
0
LINE
5
144
100
AcDbEntity
8
0
100
AcDbLine
10
347.35167717774999
20
-132.79950062836167
30
0
11
356.12594999999999
21
-132.79949999999999
31
0
0
ARC
5
145
100
AcDbEntity
8
0
100
AcDbCircle
10
356.12620200000003
20
-128.79975099999999
30
0
40
3.9997490079384996
210
0
220
0
230
1
100
AcDbArc
50
-90.003609860623939
51
0.003595389639224436
0
LINE
5
146
100
AcDbEntity
8
0
100
AcDbLine
10
360.12595100006411
20
-128.79950001020001
30
0
11
360.12594999999999
21
-19.315499999999997
31
0
0
ARC
5
147
100
AcDbEntity
8
0
100
AcDbCircle
10
356.12619700000005
20
-19.315253999999999
30
0
40
3.9997530075649084
210
0
220
0
230
1
100
AcDbArc
50
-0.0035239079848131999
51
90.003535622023662
0
LINE
5
148
100
AcDbEntity
8
0
100
AcDbLine
10
356.12595018226
20
-15.315501000050343
30
0
11
347.06751100000008
21
-15.316697000000001
31
0
0
ARC
5
149
100
AcDbEntity
8
0
100
AcDbCircle
10
347.12054700000004
20
-16.315289
30
0
40
0.99999939987981912
210
0
220
0
230
1
100
AcDbArc
50
93.040167164217877
51
173.25083064395284
0
ARC
5
150
100
AcDbEntity
8
0
100
AcDbCircle
10
342.89999999999998
20
-15.815811000000002
30
0
40
3.2500016444699757
210
0
220
0
230
1
100
AcDbArc
50
186.75211725777677
51
353.250736312855
0
ARC
5
151
100
AcDbEntity
8
0
100
AcDbCircle
10
338.67947700000002
20
-16.3155
30
0
40
0.99999876614797256
210
0
220
-0
230
1
100
AcDbArc
50
6.7520624877664215
51
89.999948767769624
0
LINE
5
152
100
AcDbEntity
8
0
100
AcDbLine
10
338.67947789417002
20
-15.3155012338524
30
0
11
327.34915800000005
21
-15.315500000000002
31
0
0
ARC
5
153
100
AcDbEntity
8
0
100
AcDbCircle
10
327.35001899999997
20
-15.815499000000003
30
0
40
0.49999974132193287
210
0
220
0
230
1
100
AcDbArc
50
90.098663432118485
51
180.00005146775285
0
LINE
5
154
100
AcDbEntity
8
0
100
AcDbLine
10
326.85001925867823
20
-15.815499449170002
30
0
11
326.85001999999997
21
-16.037520000000001
31
0
0
ARC
5
155
100
AcDbEntity
8
0
100
AcDbCircle
10
323.85001999999997
20
-16.037519
30
0
40
2.9999999999999716
210
0
220
0
230
1
100
AcDbArc
50
180
51
359.99998090904091
0
LINE
5
156
100
AcDbEntity
8
0
100
AcDbLine
10
320.85002000000003
20
-16.037519
30
0
11
320.85001900000003
21
-15.815498000000002
31
0
0
ARC
5
157
100
AcDbEntity
8
0
100
AcDbCircle
10
320.35001899999997
20
-15.815499000000003
30
0
40
0.50000000000104261
210
0
220
-0
230
1
100
AcDbArc
50
0.00011459029153797541
51
90.098755202282291
0
LINE
5
158
100
AcDbEntity
8
0
100
AcDbLine
10
320.34915719871003
20
-15.315499742701018
30
0
11
309.49894899999998
21
-15.315500000000002
31
0
0
ARC
5
159
100
AcDbEntity
8
0
100
AcDbCircle
10
309.49894899999998
20
-16.3155
30
0
40
0.99999999999999867
210
0
220
-0
230
1
100
AcDbArc
50
90
51
180
0
LINE
5
160
100
AcDbEntity
8
0
100
AcDbLine
10
308.49894899999998
20
-16.3155
30
0
11
308.49894899999998
21
-18.31251
31
0
0
ARC
5
161
100
AcDbEntity
8
0
100
AcDbCircle
10
307.49894900000004
20
-18.31251
30
0
40
1.0000000000000009
210
0
220
0
230
1
100
AcDbArc
50
-90
51
0
0
LINE
5
162
100
AcDbEntity
8
0
100
AcDbLine
10
307.49894900000004
20
-19.31251
30
0
11
305.91920900000002
21
-19.31251
31
0
0
ARC
5
163
100
AcDbEntity
8
0
100
AcDbCircle
10
305.91920900000002
20
-18.81251
30
0
40
0.50000000000000044
210
0
220
-0
230
1
100
AcDbArc
50
90
51
270
0
LINE
5
164
100
AcDbEntity
8
0
100
AcDbLine
10
305.91920900000002
20
-18.31251
30
0
11
306.71920899999998
21
-18.31251
31
0
0
ARC
5
165
100
AcDbEntity
8
0
100
AcDbCircle
10
306.71920899999998
20
-17.812510000000003
30
0
40
0.49999999999999822
210
0
220
0
230
1
100
AcDbArc
50
270
51
360
0
LINE
5
166
100
AcDbEntity
8
0
100
AcDbLine
10
307.21920899999998
20
-17.81251000192
30
0
11
307.21920899999998
21
-9.6625169999999994
31
0
0
LINE
5
167
100
AcDbEntity
8
0
100
AcDbLine
10
307.21920899999998
20
-9.6625169999999994
30
0
11
297.61921799999999
21
-9.6625169999999994
31
0
0
LINE
5
168
100
AcDbEntity
8
0
100
AcDbLine
10
297.61921799999999
20
-9.6625169999999994
30
0
11
297.61921799999999
21
-17.812510000000003
31
0
0
ARC
5
169
100
AcDbEntity
8
0
100
AcDbCircle
10
298.11921799999999
20
-17.812510000000003
30
0
40
0.50000000000000711
210
0
220
0
230
1
100
AcDbArc
50
180
51
270.00000019939318
0
LINE
5
170
100
AcDbEntity
8
0
100
AcDbLine
10
298.11921800174002
20
-18.312510000000003
30
0
11
298.919218
21
-18.31251
31
0
0
ARC
5
171
100
AcDbEntity
8
0
100
AcDbCircle
10
298.919218
20
-18.81251
30
0
40
0.50000000000000044
210
0
220
0
230
1
100
AcDbArc
50
-90
51
90
0
LINE
5
172
100
AcDbEntity
8
0
100
AcDbLine
10
298.919218
20
-19.31251
30
0
11
297.33895000000007
21
-19.31251
31
0
0
ARC
5
173
100
AcDbEntity
8
0
100
AcDbCircle
10
297.33895000000007
20
-18.31251
30
0
40
1.0000000000000142
210
0
220
0
230
1
100
AcDbArc
50
180
51
270
0
LINE
5
174
100
AcDbEntity
8
0
100
AcDbLine
10
296.33895000000001
20
-18.31251
30
0
11
296.33895000000001
21
-16.3155
31
0
0
ARC
5
175
100
AcDbEntity
8
0
100
AcDbCircle
10
295.33895000000001
20
-16.3155
30
0
40
1.0000000000000142
210
0
220
0
230
1
100
AcDbArc
50
0
51
90
0
LINE
5
176
100
AcDbEntity
8
0
100
AcDbLine
10
295.33895000000001
20
-15.3155
30
0
11
282.82821000000001
21
-15.315500000000002
31
0
0
ARC
5
177
100
AcDbEntity
8
0
100
AcDbCircle
10
282.82821000000001
20
-16.3155
30
0
40
0.99999999999999867
210
0
220
-0
230
1
100
AcDbArc
50
90
51
173.24774595000127
0
ARC
5
178
100
AcDbEntity
8
0
100
AcDbCircle
10
278.60768899999999
20
-15.815801
30
0
40
3.2500004813680095
210
0
220
0
230
1
100
AcDbArc
50
186.75224395365808
51
353.24776246692898
0
ARC
5
179
100
AcDbEntity
8
0
100
AcDbCircle
10
274.38716699999998
20
-16.3155
30
0
40
1.0000001119360979
210
0
220
-0
230
1
100
AcDbArc
50
6.7522264464700381
51
89.999972396613671
0
LINE
5
180
100
AcDbEntity
8
0
100
AcDbLine
10
274.38716748177001
20
-15.315499888064117
30
0
11
249.49196900000004
21
-15.315500000000002
31
0
0
ARC
5
181
100
AcDbEntity
8
0
100
AcDbCircle
10
249.49196900000004
20
-16.3155
30
0
40
0.99999999999999867
210
0
220
-0
230
1
100
AcDbArc
50
90
51
173.24774595001435
0
ARC
5
182
100
AcDbEntity
8
0
100
AcDbCircle
10
245.27144800000002
20
-15.815801
30
0
40
3.2499999999999996
210
0
220
0
230
1
100
AcDbArc
50
270
51
353.247762466925
0
LINE
5
183
100
AcDbEntity
8
0
100
AcDbLine
10
245.27144800000002
20
-19.065801
30
0
11
242.88720000000001
21
-19.065801741039714
31
0
0
ARC
5
184
100
AcDbEntity
8
0
100
AcDbCircle
10
242.88720000000001
20
-15.815801
30
0
40
3.2500004813680095
210
0
220
0
230
1
100
AcDbArc
50
186.75224395365808
51
270
0
ARC
5
185
100
AcDbEntity
8
0
100
AcDbCircle
10
238.66667800000002
20
-16.3155
30
0
40
1.0000001119360979
210
0
220
-0
230
1
100
AcDbArc
50
6.7522264464702539
51
89.999972396615306
0
LINE
5
186
100
AcDbEntity
8
0
100
AcDbLine
10
238.66667848177002
20
-15.315499888064117
30
0
11
223.296651
21
-15.315500000000002
31
0
0
ARC
5
187
100
AcDbEntity
8
0
100
AcDbCircle
10
223.296651
20
-16.3155
30
0
40
0.99999999999999867
210
0
220
-0
230
1
100
AcDbArc
50
90
51
173.2477458033807
0
ARC
5
188
100
AcDbEntity
8
0
100
AcDbCircle
10
219.07613000000001
20
-15.818843000000001
30
0
40
3.2496442184220098
210
0
220
0
230
1
100
AcDbArc
50
186.69898124321654
51
353.30102523763247
0
ARC
5
189
100
AcDbEntity
8
0
100
AcDbCircle
10
214.85560899999999
20
-16.3155
30
0
40
0.99999911887234738
210
0
220
-0
230
1
100
AcDbArc
50
6.7522331830838462
51
89.999979133429193
0
LINE
5
190
100
AcDbEntity
8
0
100
AcDbLine
10
214.85560936419003
20
-15.315500881128067
30
0
11
201.86666900000003
21
-15.315500000000002
31
0
0
ARC
5
191
100
AcDbEntity
8
0
100
AcDbCircle
10
201.86666900000003
20
-16.3155
30
0
40
0.99999999999999867
210
0
220
-0
230
1
100
AcDbArc
50
90
51
173.24774595001418
0
ARC
5
192
100
AcDbEntity
8
0
100
AcDbCircle
10
197.64614800000004
20
-15.815801
30
0
40
3.2499999999999996
210
0
220
0
230
1
100
AcDbArc
50
270
51
353.247762466925
0
LINE
5
193
100
AcDbEntity
8
0
100
AcDbLine
10
197.64614800000004
20
-19.065801
30
0
11
195.26190000000003
21
-19.065801741039714
31
0
0
ARC
5
194
100
AcDbEntity
8
0
100
AcDbCircle
10
195.2619
20
-15.815801
30
0
40
3.2500004813680099
210
0
220
0
230
1
100
AcDbArc
50
186.75224395365817
51
270.00000000000051
0
ARC
5
195
100
AcDbEntity
8
0
100
AcDbCircle
10
191.04137800000001
20
-16.3155
30
0
40
1.0000001119360973
210
0
220
-0
230
1
100
AcDbArc
50
6.7522264464698214
51
89.999972396615306
0
LINE
5
196
100
AcDbEntity
8
0
100
AcDbLine
10
191.04137848177001
20
-15.315499888064117
30
0
11
136.55865900000003
21
-15.315500000000002
31
0
0
ARC
5
197
100
AcDbEntity
8
0
100
AcDbCircle
10
136.55865900000003
20
-16.3155
30
0
40
0.99999999999999867
210
0
220
-0
230
1
100
AcDbArc
50
90
51
171.28829654975917
0
ARC
5
198
100
AcDbEntity
8
0
100
AcDbCircle
10
133.35112899999999
20
-15.824009
30
0
40
2.2449662877639978
210
0
220
0
230
1
100
AcDbArc
50
188.71171057816781
51
351.28831183682621
0
ARC
5
199
100
AcDbEntity
8
0
100
AcDbCircle
10
130.14359999999999
20
-16.3155
30
0
40
0.99999991990651371
210
0
220
-0
230
1
100
AcDbArc
50
8.7116618074932912
51
89.99995898767699
0
LINE
5
200
100
AcDbEntity
8
0
100
AcDbLine
10
130.14360071580001
20
-15.315500080094255
30
0
11
120.66618900000002
21
-15.315500000000002
31
0
0
ARC
5
201
100
AcDbEntity
8
0
100
AcDbCircle
10
120.66618900000002
20
-16.3155
30
0
40
0.99999999999999867
210
0
220
-0
230
1
100
AcDbArc
50
90
51
159.33605485014553
0
ARC
5
202
100
AcDbEntity
8
0
100
AcDbCircle
10
116.68994600000002
20
-14.815861999999999
30
0
40
3.2496389999999997
210
0
220
0
230
1
100
AcDbArc
50
270
51
339.33605949461656
0
LINE
5
203
100
AcDbEntity
8
0
100
AcDbLine
10
116.68994600000002
20
-18.065500999999998
30
0
11
109.53719799998993
21
-18.065802156610765
31
0
0
ARC
5
204
100
AcDbEntity
8
0
100
AcDbCircle
10
109.53719900000002
20
-15.815802000000001
30
0
40
2.2500003136520039
210
0
220
0
230
1
100
AcDbArc
50
188.84452536526041
51
269.99997453495394
0
ARC
5
205
100
AcDbEntity
8
0
100
AcDbCircle
10
106.325844
20
-16.3155
30
0
40
0.99999953669192676
210
0
220
-0
230
1
100
AcDbArc
50
8.8444276537196327
51
89.999913544065464
0
LINE
5
206
100
AcDbEntity
8
0
100
AcDbLine
10
106.32584550894002
20
-15.315500463309139
30
0
11
60.650019999999998
21
-15.315500000000002
31
0
0
ARC
5
207
100
AcDbEntity
8
0
100
AcDbCircle
10
60.650019
20
-15.8155
30
0
40
0.5000000000009982
210
0
220
-0
230
1
100
AcDbArc
50
89.999885408441259
51
179.99988588779428
0
CIRCLE
5
208
100
AcDbEntity
8
0
100
AcDbCircle
10
23.8125
20
-23.8125
30
0
40
1.9939
210
0
220
0
230
1
0
ENDSEC
0
SECTION
2
OBJECTS
0
DICTIONARY
5
C
100
AcDbDictionary
3
ACAD_GROUP
350
D
3
ACAD_MLINESTYLE
350
17
0
DICTIONARY
5
D
100
AcDbDictionary
0
DICTIONARY
5
1A
330
C
100
AcDbDictionary
0
DICTIONARY
5
17
100
AcDbDictionary
0
ENDSEC
0
EOF
