%TF.GenerationSoftware,KiCad,Pcbnew,(5.1.10)-1*%
%TF.CreationDate,2022-04-07T18:11:13+07:00*%
%TF.ProjectId,solder,736f6c64-6572-42e6-9b69-6361645f7063,rev?*%
%TF.SameCoordinates,Original*%
%TF.FileFunction,Profile,NP*%
%FSLAX46Y46*%
G04 Gerber Fmt 4.6, Leading zero omitted, Abs format (unit mm)*
G04 Created by KiCad (PCBNEW (5.1.10)-1) date 2022-04-07 18:11:13*
%MOMM*%
%LPD*%
G01*
G04 APERTURE LIST*
%TA.AperFunction,Profile*%
%ADD10C,0.200000*%
%TD*%
G04 APERTURE END LIST*
D10*
X17812520Y-133350017D02*
G75*
G02*
X14287520Y-129825017I0J3525000D01*
G01*
X14287520Y-17812519D02*
X14287520Y-129825017D01*
X14287520Y-17812519D02*
G75*
G02*
X17812520Y-14287519I3525000J0D01*
G01*
X358425020Y-14287521D02*
X327600019Y-14287520D01*
X358425020Y-14287521D02*
G75*
G02*
X361950020Y-17812521I0J-3525000D01*
G01*
X361950020Y-129825019D02*
X361950020Y-17812521D01*
X17812520Y-133350018D02*
X34575020Y-133350018D01*
X326850019Y-15037520D02*
G75*
G02*
X327600019Y-14287520I750000J0D01*
G01*
X320100020Y-14287520D02*
G75*
G02*
X320850020Y-15037520I0J-750000D01*
G01*
X320850019Y-16037519D02*
X320850019Y-15037520D01*
X326850020Y-16037519D02*
G75*
G02*
X320850020Y-16037519I-3000000J0D01*
G01*
X326850019Y-15037520D02*
X326850020Y-16037520D01*
X60150020Y-15037519D02*
G75*
G02*
X60900020Y-14287519I750000J0D01*
G01*
X54150020Y-16037520D02*
X54150020Y-15037519D01*
X60150020Y-16037520D02*
G75*
G02*
X54150020Y-16037520I-3000000J0D01*
G01*
X320100020Y-14287520D02*
X60900020Y-14287519D01*
X60150020Y-15037519D02*
X60150020Y-16037520D01*
X35325020Y-132600018D02*
X35325020Y-131600019D01*
X35325020Y-132600018D02*
G75*
G02*
X34575020Y-133350018I-750000J0D01*
G01*
X320850020Y-132600019D02*
G75*
G02*
X320100020Y-133350019I-750000J0D01*
G01*
X42075020Y-133350018D02*
X320100020Y-133350019D01*
X42075020Y-133350018D02*
G75*
G02*
X41325020Y-132600018I0J750000D01*
G01*
X41325020Y-131600019D02*
X41325020Y-132600018D01*
X35325020Y-131600019D02*
G75*
G02*
X41325020Y-131600019I3000000J0D01*
G01*
X53400020Y-14287519D02*
X17812520Y-14287519D01*
X53400020Y-14287519D02*
G75*
G02*
X54150020Y-15037519I0J-750000D01*
G01*
X327600020Y-133350019D02*
G75*
G02*
X326850020Y-132600019I0J750000D01*
G01*
X326850020Y-131600019D02*
X326850020Y-132600019D01*
X320850020Y-131600019D02*
G75*
G02*
X326850020Y-131600019I3000000J0D01*
G01*
X320850019Y-132600019D02*
X320850020Y-131600019D01*
X327600020Y-133350019D02*
X358425020Y-133350019D01*
X361950020Y-129825019D02*
G75*
G02*
X358425020Y-133350019I-3525000J0D01*
G01*
M02*
