<?xml version="1.0" encoding="UTF-8" standalone="no"?>
<!-- Created with Inkscape (http://www.inkscape.org/) -->

<svg
   xmlns:dc="http://purl.org/dc/elements/1.1/"
   xmlns:cc="http://creativecommons.org/ns#"
   xmlns:rdf="http://www.w3.org/1999/02/22-rdf-syntax-ns#"
   xmlns:svg="http://www.w3.org/2000/svg"
   xmlns="http://www.w3.org/2000/svg"
   xmlns:sodipodi="http://sodipodi.sourceforge.net/DTD/sodipodi-0.dtd"
   xmlns:inkscape="http://www.inkscape.org/namespaces/inkscape"
   width="20.000002mm"
   height="22.753111mm"
   viewBox="0 0 20.000002 22.753111"
   version="1.1"
   id="svg8"
   inkscape:version="0.92.4 5da689c313, 2019-01-14"
   sodipodi:docname="logo.svg">
  <defs
     id="defs2" />
  <sodipodi:namedview
     id="base"
     pagecolor="#ffffff"
     bordercolor="#666666"
     borderopacity="1.0"
     inkscape:pageopacity="0.0"
     inkscape:pageshadow="2"
     inkscape:zoom="1.979899"
     inkscape:cx="122.00689"
     inkscape:cy="13.688594"
     inkscape:document-units="mm"
     inkscape:current-layer="layer1"
     showgrid="false"
     inkscape:window-width="1920"
     inkscape:window-height="1043"
     inkscape:window-x="1920"
     inkscape:window-y="310"
     inkscape:window-maximized="1"
     inkscape:snap-global="false" />
  <metadata
     id="metadata5">
    <rdf:RDF>
      <cc:Work
         rdf:about="">
        <dc:format>image/svg+xml</dc:format>
        <dc:type
           rdf:resource="http://purl.org/dc/dcmitype/StillImage" />
        <dc:title></dc:title>
      </cc:Work>
    </rdf:RDF>
  </metadata>
  <g
     inkscape:label="Layer 1"
     inkscape:groupmode="layer"
     id="layer1"
     transform="translate(97.194983,-39.247942)">
    <path
       style="fill:none;stroke:#000000;stroke-width:1;stroke-linecap:butt;stroke-linejoin:miter;stroke-miterlimit:4;stroke-dasharray:none;stroke-opacity:1"
       d="m 11.903946,-343.92739 c 0,0 8.952336,-48.11824 29.552039,-84.59294 -2.656098,-38.0777 -118.879336,-54.00947 -131.063246,0.18899 2.07887,2.26786 10.4416,21.21392 10.4416,21.21392"
       id="path888"
       inkscape:connector-curvature="0"
       sodipodi:nodetypes="cccc" />
    <path
       style="fill:none;stroke:#000000;stroke-width:1;stroke-linecap:butt;stroke-linejoin:miter;stroke-miterlimit:4;stroke-dasharray:none;stroke-opacity:1"
       d="m 14.241699,-353.91728 c 25.865902,-1.48266 5.726812,14.90189 -6.6808823,9.2549 -12.407694,-5.647 -20.5129357,-21.78247 -52.1843747,-21.44839 -31.671433,0.33409 -42.917463,19.97253 -31.918083,33.55346 10.99937,13.58093 46.267976,-10.28097 64.88337,-7.44071"
       id="path890"
       inkscape:connector-curvature="0"
       sodipodi:nodetypes="czzzc" />
    <path
       style="fill:none;stroke:#000000;stroke-width:1;stroke-linecap:butt;stroke-linejoin:miter;stroke-miterlimit:4;stroke-dasharray:none;stroke-opacity:1"
       d="m -41.282688,-391.63501 c 0,0 37.6850017,-5.61266 63.209242,9.48807"
       id="path892"
       inkscape:connector-curvature="0"
       sodipodi:nodetypes="cc" />
    <path
       style="fill:none;stroke:#000000;stroke-width:1;stroke-linecap:butt;stroke-linejoin:miter;stroke-miterlimit:4;stroke-dasharray:none;stroke-opacity:1"
       d="m -11.658271,-339.99802 c -21.737565,-4.793 -44.37093,9.46865 -43.24567,-0.15123 1.125255,-9.61989 29.113124,-6.89262 49.7227837,2.80633 20.6096603,9.69893 37.1303183,5.84357 41.1393613,-8.32173 0,0 8.552626,-21.38156 -20.980657,-14.29892"
       id="path894"
       inkscape:connector-curvature="0"
       sodipodi:nodetypes="czzcc" />
    <path
       style="fill:none;stroke:#000000;stroke-width:1;stroke-linecap:butt;stroke-linejoin:miter;stroke-miterlimit:4;stroke-dasharray:none;stroke-opacity:1"
       d="m -72.362091,-358.73647 -24.19048,-33.4509 c 19.65476,-21.73363 48.947916,-25.98586 48.947916,-25.98586 l 12.756698,52.53869"
       id="path896"
       inkscape:connector-curvature="0"
       sodipodi:nodetypes="cccc" />
    <path
       style="fill:none;fill-opacity:1;stroke:#0d0000;stroke-width:2;stroke-linecap:butt;stroke-linejoin:miter;stroke-miterlimit:4;stroke-dasharray:none;stroke-opacity:1"
       d="m -85.108851,-386.90126 0.56694,-4.44123 11.62278,19.56027"
       id="path906"
       inkscape:connector-curvature="0" />
    <ellipse
       style="fill:none;fill-opacity:1;stroke:#0d0000;stroke-width:1.7810744;stroke-linecap:butt;stroke-miterlimit:4;stroke-dasharray:none;stroke-dashoffset:0;stroke-opacity:1"
       id="path908"
       cx="126.85048"
       cy="-344.91785"
       rx="4.9293833"
       ry="10.757556"
       transform="matrix(0.75513256,-0.65557213,0.48337218,0.87541495,0,0)" />
    <path
       style="fill:none;stroke:#0d0000;stroke-width:2;stroke-linecap:butt;stroke-linejoin:miter;stroke-miterlimit:4;stroke-dasharray:none;stroke-opacity:1"
       d="m -60.445911,-406.27254 1.70089,37.9866"
       id="path910"
       inkscape:connector-curvature="0" />
    <path
       style="fill:none;stroke:#0d0000;stroke-width:2;stroke-linecap:butt;stroke-linejoin:miter;stroke-miterlimit:4;stroke-dasharray:none;stroke-opacity:1"
       d="m -50.240564,-392.57091 c -6.414467,17.70661 0.61937,20.17833 3.89342,18.5246 3.27406,-1.65373 1.71579,-6.55947 -1.0586,-6.90183 -2.77439,-0.34236 -4.52147,4.77056 -4.52147,4.77056"
       id="path912"
       inkscape:connector-curvature="0"
       sodipodi:nodetypes="czzc" />
    <flowRoot
       xml:space="preserve"
       id="flowRoot829"
       style="font-style:normal;font-variant:normal;font-weight:normal;font-stretch:normal;font-size:40px;line-height:1.25;font-family:Macbeth;-inkscape-font-specification:Macbeth;letter-spacing:0px;word-spacing:0px;fill:#000000;fill-opacity:1;stroke:none"
       transform="matrix(0.9556733,0,0,0.9556733,820.68979,956.07113)"><flowRegion
         id="flowRegion831"><rect
           id="rect833"
           width="658.57141"
           height="407.14285"
           x="-955.71429"
           y="-1344.6232" /></flowRegion><flowPara
         id="flowPara835"
         style="font-style:normal;font-variant:normal;font-weight:normal;font-stretch:normal;font-family:'Alice in wonderland';-inkscape-font-specification:'Alice in wonderland'">Mad Hatter</flowPara></flowRoot>    <g
       aria-label="Mad Hatter"
       transform="matrix(0.12049053,0,0,0.12049053,19.036485,219.38247)"
       style="font-style:normal;font-variant:normal;font-weight:normal;font-stretch:normal;font-size:40px;line-height:1.25;font-family:Macbeth;-inkscape-font-specification:Macbeth;letter-spacing:0px;word-spacing:0px;fill:#000000;fill-opacity:1;stroke:none"
       id="flowRoot851"
       inkscape:export-xdpi="5000"
       inkscape:export-ydpi="5000">
      <path
         d="m -942.07638,-1319.1188 q -0.33203,0.7421 -0.68359,1.5429 -0.33203,0.8008 -0.64453,1.4453 -0.11719,0.1953 -1.13282,1.1328 -1.01562,0.9375 -1.05468,1.0938 -0.17578,0.1562 -0.58594,0.1172 -0.39063,-0.059 -0.39063,-0.4297 0,-0.1563 0.27344,-0.293 0.27344,-0.1367 0.42969,-0.2929 0.3125,-0.3321 0.52734,-0.7422 0.42969,-1.0157 0.3711,-2.1485 -0.0391,-0.4687 -0.15625,-0.8398 -0.0977,-0.3711 -0.15625,-0.8594 -0.15625,-0.4297 -0.21485,-0.8594 -0.0586,-0.4296 -0.0976,-0.8984 -0.17578,-0.5859 -0.54688,-1.4844 -0.37109,-0.9179 -0.58594,-1.5625 -0.2539,-0.5273 -1.26953,-3.0273 -1.01562,-2.5195 -1.17187,-2.6758 -0.27344,0.2148 -0.42969,1.6016 -0.15625,1.3867 -0.21484,1.875 -0.15625,0.8984 -0.29297,1.8164 -0.13672,0.8984 -0.23438,1.7968 -0.17578,0.8594 -0.0586,1.9727 0.0586,1.3867 -0.21484,1.875 -0.52735,0.7422 -0.82032,1.3672 -0.29297,0.6055 -0.19531,1.8359 0,0.625 0.21484,1.8946 0.21485,1.25 0.3711,1.6211 0.48828,0.957 1.28906,0.957 0.80078,0 1.11328,0.4297 -0.15625,0.2734 -0.37109,0.3711 -0.0586,0 -1.13281,-0.3711 -1.05469,-0.3711 -1.21094,-0.4297 -0.70313,-0.3125 -1.07422,-0.586 -0.37109,-0.2734 -0.89844,-0.5859 -0.80078,-0.3125 -1.26953,-0.332 -0.44922,-0.039 -1.25,-0.2539 -0.58594,-0.1563 -1.40625,-0.1758 -0.82031,-0.039 -0.82031,-0.6836 0,-0.2539 0.29297,-0.1367 0.29297,0.098 0.54687,0.098 0.85938,0.098 1.71875,-0.1757 0.21485,-0.039 0.42969,-0.625 0.0391,-0.1758 0.25391,-0.4297 0.21484,-0.2735 0.37109,-0.5469 0.37109,-0.625 0.42969,-1.0742 0.0586,-0.4688 0.27343,-1.2696 0.15625,-0.5859 0.3711,-1.1328 0.21484,-0.5664 0.37109,-1.2109 0.11719,-0.5859 0.13672,-1.3477 0.0195,-0.7812 0.17578,-1.4257 0.11719,-0.6446 0.19531,-1.2696 0.0781,-0.6445 0.23438,-1.289 0.15625,-0.4883 0.37109,-1.2305 0.21485,-0.7422 0.21485,-1.3281 -0.0391,-0.7032 -0.0977,-1.543 -0.0586,-0.8594 0.0586,-1.5039 0,-0.5859 0.15625,-1.25 0.15625,-0.6641 0.15625,-1.4649 -0.0586,-0.5859 -0.78125,-1.9726 -0.70312,-1.3867 -0.97656,-1.875 -0.64453,-0.9961 -1.28906,-1.543 -0.0977,-0.039 -0.68359,-0.2344 -0.58594,-0.1953 -0.95704,-0.3515 -0.48828,-0.059 -1.44531,0.059 -0.42969,0 -0.64453,0.4492 -0.21484,0.4492 -0.21484,0.9375 0.11718,0.8594 0.42968,0.9766 0.3125,0.098 1.11329,0.039 h 0.0586 q 0.15625,0 0.15625,-0.078 0,-0.078 0.27344,-0.1953 0.0586,0 0.0586,0.1172 0,0.5859 -0.27344,0.7422 0,0 -0.44922,0.1171 -0.44921,0.098 -0.44921,0.098 h -0.11719 q -0.3125,0.059 -0.82031,-0.4492 -0.50782,-0.5078 -0.78125,-0.7227 -0.52735,-0.4297 -0.42969,-1.0742 0.27344,-0.4687 0.41015,-0.625 0.13672,-0.1758 0.13672,-0.2734 0.21485,-0.2149 2.05078,-0.8985 1.83594,-0.7031 2.42188,-0.7031 l 1.97266,0.2149 q 0.27343,0.098 0.48828,0.3125 0.68359,0.957 1.32812,1.8164 0.64453,0.8593 1.44531,1.7578 0.3125,0.4297 0.66407,0.8593 0.35156,0.4297 0.66406,0.8985 0.0977,0.2734 0.25391,0.5664 0.17578,0.293 0.33203,0.4492 0.15625,0.3125 0.29297,0.5859 0.13671,0.2735 0.29296,0.4883 0.15625,0.2539 0.29297,0.5274 0.13672,0.2734 0.29297,0.4297 0.48828,0.4687 0.64453,1.0156 0.0977,0.7422 0.27344,1.3867 0.19531,0.625 0.37109,1.2695 0.0977,0.586 0.41016,1.1524 0.33203,0.5664 0.64453,0.9375 0.15625,0.3125 0.60547,1.0351 0.46875,0.7227 0.89844,0.6641 0.0391,-0.3125 0.52734,-1.0547 0.48828,-0.7617 0.70313,-1.3476 0.0976,-0.3125 0.17578,-0.625 0.0781,-0.3321 0.23437,-0.6446 0,-0.059 0.27344,-0.664 0.27344,-0.625 0.27344,-0.6836 0.15625,-0.4102 0.44922,-1.0157 0.29297,-0.625 0.44922,-1.1718 0.15625,-0.4688 0.2539,-1.1133 0.11719,-0.6445 0.39063,-1.2695 0.27343,-0.586 0.68359,-0.879 0.42969,-0.3125 1.01563,-0.6835 0.21484,-0.1563 0.44921,-0.2735 0.25391,-0.1367 0.50782,-0.3515 0.27343,-0.1758 0.44922,-0.3321 0.19531,-0.1562 0.5664,-0.3125 0.48828,-0.1562 1.15235,-0.4687 0.66406,-0.3321 1.36718,-0.3907 0.74219,-0.058 1.40625,0.3711 0.66407,0.4297 0.78125,1.2305 0,0.1172 -0.48828,0.7422 -0.21484,0.2148 -0.15625,0.4102 0.0586,0.1757 -0.27344,0.3515 -0.21484,-0.059 -0.0586,-0.332 0.0586,-0.059 0.13672,-0.1367 0.0781,-0.078 0.19531,-0.1758 0.0586,-0.1563 0.0586,-0.3711 0,-0.332 -0.70313,-0.7227 -0.68359,-0.4101 -0.85937,-0.4101 l -0.0977,0.059 q -0.58594,0.059 -1.13281,0.5078 -0.52735,0.4492 -0.6836,0.8203 -0.64453,1.0156 -0.52734,2.4609 l 0.0391,0.5274 q 0,0.8594 0.21485,2.0898 0.21484,1.211 0.42968,2.0117 0.27344,1.1329 0.3125,2.0508 0.0586,0.8985 0.17578,2.1094 l 0.0586,0.2734 q 0,0.4883 0.17578,0.8399 0.19531,0.332 0.35156,0.664 0.27344,0.625 0.23438,0.7618 -0.0195,0.1367 0.0781,0.8203 v 0.4883 q 0.0586,0.8007 0.21485,1.6015 0.15625,0.8008 0.33203,1.543 0,0.3711 0.11718,0.7031 0.13672,0.3125 0.29297,0.625 0.17578,0.5859 0.27344,1.2305 0,0.2148 0.15625,0.332 0.42969,0.4102 0.54688,0.4688 0.15625,0.2734 0.23437,0.4296 0.0781,0.1563 0.39063,0.3125 0.21484,0.1758 1.01562,0.254 0.80078,0.078 1.17188,0.019 0.15625,0.1172 0.15625,0.2148 0,0.098 -0.0977,0.3516 -0.0977,0.2344 -0.21484,0.2344 -0.21485,0 -0.50782,-0.098 -0.29297,-0.1172 -0.50781,-0.1172 -0.25391,0 -0.80078,0.2149 -0.21484,0.1172 -0.44922,0.059 -0.23437,-0.059 -0.44922,-0.059 -0.64453,0.059 -1.58203,0.3515 -0.9375,0.293 -1.25,0.5078 -0.46875,0.2539 -0.89844,0.4102 -0.42968,0.1758 -0.80078,0.4297 -0.64453,0.332 -1.26953,0.7031 -0.60547,0.3711 -0.82031,0.4688 -0.3125,0.1171 -0.44922,-0.3125 -0.13672,-0.4297 0.13672,-0.4297 0.42969,0 0.64453,-0.039 0.41016,-0.1758 0.70312,-0.5273 0.29297,-0.3321 0.46875,-0.6055 0.25391,-0.5273 0.41016,-0.6641 0.17578,-0.1367 0.39063,-0.9765 0.0391,-0.4883 0.19531,-0.8789 0.17578,-0.4102 0.21484,-1.0547 0,-0.1563 -0.13672,-0.4492 -0.11718,-0.293 -0.17578,-0.5079 -0.21484,-0.5859 -0.15625,-0.5468 0.0586,0.019 0.0586,-0.4688 0,-0.2539 -0.19532,-0.6836 -0.17578,-0.4297 -0.23437,-0.7617 -0.27344,-0.5273 -0.3711,-1.4844 -0.17578,-0.7422 -0.2539,-1.7578 -0.0781,-1.0156 -0.0781,-1.875 -0.0976,-0.957 -0.21484,-1.7773 -0.0977,-0.8203 -0.21484,-1.7383 -0.15625,-0.8008 -0.44922,-1.6211 -0.29297,-0.8398 -0.29297,-1.5234 -0.21485,0 -0.25391,0.098 -0.21484,0.2149 -0.70312,1.3477 -0.48828,1.1133 -0.97657,2.4219 -0.46875,1.3085 -0.83984,2.5195 -0.37109,1.1914 -0.37109,1.5039 l -0.15625,0.4297 -1.01563,2.7734 z"
         style="font-style:normal;font-variant:normal;font-weight:normal;font-stretch:normal;font-family:'Alice in wonderland';-inkscape-font-specification:'Alice in wonderland'"
         id="path853"
         inkscape:connector-curvature="0" />
      <path
         d="m -918.62247,-1327.3033 -0.58594,2.5 q -0.15625,0.6055 0,1.836 0.15625,1.2109 0.21485,1.6992 0.15625,1.0547 0.42969,1.5429 0.21484,0.4297 0.46875,0.586 0.15625,0.098 0.42968,0.1562 0.27344,0.059 0.27344,0.2735 -0.11719,0.5273 -0.91797,0.3711 l -0.2539,-0.059 q -0.85938,-0.059 -1.38672,-0.8008 -0.33203,-0.2539 -0.44922,-0.6445 -0.0977,-0.4102 -0.3125,-0.625 -0.95703,1.4257 -1.83594,2.9296 -0.87891,1.4844 -3.125,1.1719 l -0.15625,-0.059 q -0.68359,-0.059 -1.40625,-0.4687 -0.72266,-0.4297 -1.03516,-0.8008 -0.85937,-0.7617 -0.70312,-2.6172 0.11719,-1.0742 0.27344,-1.543 0.15625,-0.4882 0.80078,-1.1328 0.74219,-0.8008 2.1875,-1.2695 0.74219,-0.2149 1.1914,-0.4492 0.44922,-0.2539 1.15235,-0.5664 0.52734,-0.2735 1.03515,-0.6446 0.50782,-0.3711 0.78125,-1.1132 0.42969,-1.0157 0.25391,-1.3282 -0.3125,-0.332 -1.05469,-0.8008 -0.58593,-0.2734 -1.26953,-0.625 -0.66406,-0.3515 -1.40625,-0.4492 l -0.0977,-0.059 q -1.01563,-0.098 -1.71875,0.8008 -0.6836,1.0156 -0.29297,1.1719 0.41015,0.1562 0.35156,0.6445 -0.0586,0.2735 -0.52734,0.4883 -0.3711,-0.2148 -0.70313,-0.4297 -0.3125,-0.2148 -0.21484,-0.8594 0.0586,-0.5859 0.64453,-1.2304 0.58594,-0.6446 1.01562,-0.8985 0.64453,-0.332 1.03516,-0.7031 0.41016,-0.3711 1.52344,-0.2148 h 0.21484 q 0.74219,0.1757 1.64063,0.6836 0.91796,0.4882 1.5625,0.8203 0.3125,0.2148 0.91796,0.3515 0.625,0.1172 0.78125,0.3321 0.42969,0.7617 0.27344,1.7578 z m -2.77344,4.4922 q 0.0977,-0.9766 -0.52734,-1.0742 h -0.17578 q -0.89844,-0.1172 -1.30859,1.1719 -0.39063,1.289 -0.70313,1.2304 h -0.0586 q -0.27344,0 -0.33203,-0.3515 -0.0391,-0.3516 -0.19532,-0.3907 h -0.11718 q -1.44532,-0.1757 -1.60157,1.1719 0,0.098 0.0195,0.2149 0.0391,0.098 0.0391,0.1562 0.3125,0.5274 0.39062,0.6445 0.0977,0.098 0.56641,0.4688 0.37109,0.3125 0.52734,0.4883 0.17578,0.098 0.25391,0.2734 0.0781,0.1563 0.23437,0.1953 0.74219,-1.0547 1.48438,-1.8554 0.33203,-0.3321 0.83984,-0.918 0.50781,-0.586 0.60547,-1.1133 z"
         style="font-style:normal;font-variant:normal;font-weight:normal;font-stretch:normal;font-family:'Alice in wonderland';-inkscape-font-specification:'Alice in wonderland'"
         id="path855"
         inkscape:connector-curvature="0" />
      <path
         d="m -910.61124,-1330.8034 q -0.0619,1.2686 0,2.5372 0.0928,1.2686 0.0928,2.5372 0,0.8353 0.0309,1.7326 0.0619,0.8972 0.0619,1.6399 0,1.7945 -0.0928,3.4343 -0.0928,1.6399 0,3.5892 0,0.495 0.12372,1.1138 0.12372,0.5879 0.21658,1.0829 1.02104,0.1857 1.6089,0.1857 1.26856,0 2.01113,0.032 0.77351,0.03 1.88737,-1.2995 0.34034,-0.5261 0.83539,-1.0212 0.49504,-0.5259 0.8354,-1.1138 0.77351,-1.2686 1.11385,-2.6918 0.24752,-0.6807 0.52598,-1.4851 0.3094,-0.8044 0.3094,-1.5471 0,-0.7734 -0.21657,-1.8563 -0.21658,-1.114 -0.37129,-1.7019 -0.24752,-0.495 -0.83539,-1.1756 -0.58787,-0.6807 -0.92821,-1.2068 -0.77351,-0.9901 -2.28959,-2.0419 -1.51608,-1.083 -2.78466,-1.083 -1.60889,0 -2.13488,0.3403 z m 2.19677,-2.6918 q 1.60889,0.1553 3.65096,1.021 1.08293,0.4951 1.60891,0.8355 1.67079,1.1758 2.50618,2.1659 0.86634,0.959 1.98018,2.7226 0.40224,0.7736 0.61882,1.7637 0.21657,0.9592 0.55693,1.7945 0.24752,0.6807 0.77351,1.7017 0.55692,0.9901 0.55692,1.609 0,0.6497 -1.17574,2.1348 -1.17573,1.4852 -1.67077,2.2587 -0.43317,0.495 -0.86634,1.052 -0.40222,0.526 -0.74258,1.0519 -0.7735,1.0212 -1.48514,1.3923 -0.71163,0.3713 -1.73266,0.8973 -0.6807,0.2476 -1.45421,0.3404 -0.74257,0.062 -1.23761,0.5879 -0.27847,0.2474 -0.46411,0.495 -0.15462,0.2475 -0.40222,0.4951 -0.68069,0.6188 -1.39232,0.464 -0.71164,-0.1855 -1.39231,-0.464 -0.83541,-0.1553 -1.5161,-0.2785 -0.68068,-0.1236 -1.70171,-0.1236 -1.08293,0 -2.28961,0 -1.17572,0 -2.10394,0.5879 -0.24752,0.2475 -0.61882,0.7734 -0.37127,0.495 -0.64974,0.495 -0.15477,0 -0.15477,-0.3402 0,-0.094 0.21659,-0.4642 0.21658,-0.3712 0.21658,-0.5568 0.34034,-0.4951 0.64974,-0.6807 0.43317,-0.2476 0.9901,-0.3094 0.55694,-0.093 1.1448,-0.3713 0.24752,-0.062 0.86634,-0.4331 0.64974,-0.4024 0.74257,-0.6499 0.24752,-0.6807 0.3094,-1.4851 0.0928,-0.8044 0.0928,-1.5471 0,-1.2684 -0.0309,-2.5061 -0.0309,-1.2376 -0.0309,-2.4753 0,-1.547 -0.61882,-3.1559 -0.34033,-0.8353 -0.34033,-1.578 l 0.18564,-1.8564 q 0,-0.526 -0.12372,-1.021 -0.12372,-0.526 -0.12372,-1.1138 -0.0928,-0.2476 -0.61882,-1.2067 -0.49505,-0.9901 -0.74257,-1.052 -0.24752,0 -0.80445,-0.093 -0.55692,-0.094 -0.71163,-0.1857 -1.02103,-0.3402 -1.85642,-1.7636 -0.34035,-0.5877 -0.58788,-1.2684 0,-0.1553 -0.0309,-0.8664 -0.0619,-0.7426 0.18565,-0.7426 0.24752,0 0.58786,0.7426 0.34036,0.7116 0.43317,0.9592 0.15477,0.2475 0.24752,0.464 0.0928,0.2166 0.18565,0.4642 0.49505,1.021 1.51608,0.8353 0.74257,-0.1553 1.4542,-0.1553 0.74257,0 1.57796,-0.3404 1.51608,-0.5259 2.87747,-0.8044 1.36137,-0.3094 2.93934,-0.2166 z"
         style="font-style:normal;font-variant:normal;font-weight:normal;font-stretch:normal;font-family:'Alice in wonderland';-inkscape-font-specification:'Alice in wonderland';stroke-width:1.58415103"
         id="path857"
         inkscape:connector-curvature="0" />
      <path
         d="m -867.19922,-1335.1378 h -0.76172 q -0.3125,0.2734 -0.46875,0.2539 -0.15625,-0.039 -0.33203,-0.039 -0.42969,0.2148 -1.11328,0.8594 -0.48828,0.4883 -0.70312,0.8008 -0.19532,0.3125 -0.25391,1.1132 -0.15625,1.2305 -0.41016,2.5977 -0.23437,1.3476 -0.23437,2.6953 v 1.9727 q 0,0.5273 0.15625,1.1132 0.15625,0.586 0.15625,0.8985 -0.0391,0.9179 -0.21485,1.7773 -0.15625,0.8399 -0.15625,1.6406 l 0.0586,3.4766 q 0,2.0117 1.38672,2.3438 0.85937,0.2734 1.52343,0.3711 0.66407,0.098 1.6211,0.098 0.21484,0 0.15625,0.4297 -0.0391,0.4297 -1.79688,0.3711 -0.48828,0 -0.97656,0.2148 -0.46875,0.2149 -0.83984,0.3711 -0.95703,0.4297 -1.58203,0.8203 -0.60547,0.3711 -1.25,0.9961 -0.42969,0.3711 -1.44532,1.211 -1.01562,0.8203 -2.07031,1.5625 -1.75781,1.0156 -2.08984,1.0156 -0.52735,0 -0.74219,-0.098 -0.3125,-0.2734 0,-0.3711 0.21484,-0.1171 0.54687,-0.2539 0.35157,-0.1367 0.52735,-0.1367 0.74219,-0.3711 1.11328,-0.5859 0.3125,-0.2539 0.76172,-0.8008 0.46875,-0.5273 0.72265,-0.957 0.58594,-0.8985 0.87891,-2.4414 0.3125,-1.543 0.3125,-3.0469 v -1.1133 l -0.17578,-2.3437 v -3.6329 q 0,-0.7421 0.21484,-1.0156 0.21485,-0.2734 -0.80078,-0.098 -0.74219,0.039 -1.75781,0.4101 -0.80078,0.3711 -1.62109,0.7617 -0.82032,0.3711 -1.58204,0.6836 -1.54296,0.7422 -1.48437,0.9375 0.0586,0.1758 -0.0586,2.1094 -0.0977,1.0156 -0.21485,2.0899 -0.0977,1.0546 -0.0977,2.1093 v 0.7617 q 0,0.3711 0.0391,1.3868 0.0586,1.0156 0.21484,1.1718 0.17578,0.4688 0.70313,0.8985 0.52734,0.4297 0.52734,0.5859 0,0.3711 -0.64453,0.3711 -0.25391,0.059 -0.3125,-0.1758 -0.0586,-0.2343 -0.37109,-0.3515 -0.15625,0 -0.42969,0 -0.27344,0 -0.3711,0 -0.27343,0 -0.39062,-0.1368 -0.0977,-0.1367 -0.13672,-0.1367 -0.58594,-0.039 -1.23047,0.1563 -0.64453,0.1758 -1.28906,0.1758 -0.21484,0.059 -0.625,0.1367 -0.39063,0.078 -0.54688,0.1172 -0.2539,0.1172 -0.58593,0.3125 -0.3125,0.1757 -0.3125,0.1757 -0.33203,0 -0.33203,-0.4296 0,-0.7422 0.80078,-1.1329 0.80078,-0.4101 1.13281,-0.996 0.15625,-0.3125 0.37109,-0.5079 0.21485,-0.1953 0.42969,-0.7226 0.15625,-0.4688 0.15625,-0.7422 0,-0.2734 0.0977,-0.918 0.11718,-1.0547 0.0781,-1.8164 -0.0195,-0.7812 -0.0195,-1.914 0,-0.4688 0,-0.9766 0,-0.5078 0,-0.9961 0,-0.8008 -0.15625,-0.8203 -0.15625,-0.02 -0.95703,-0.02 -0.42969,-0.2735 -0.54688,-0.625 -0.0976,-0.3516 -0.83984,-0.8789 -0.37109,-0.2149 -0.83984,-0.625 -0.44922,-0.4297 -0.44922,-1.0352 v -0.625 q 0,-0.5859 0.42969,-0.5859 0.37109,0 0.50781,0.9179 0.13672,0.8985 1.40625,0.8985 h 0.80078 q 0.48828,0 0.48828,-0.3321 v -0.3125 q 0,-0.4882 -0.13672,-0.9179 -0.13672,-0.4297 -0.17578,-0.8985 -0.0586,-0.2148 -0.11719,-0.3711 -0.0586,-0.1562 -0.0586,-0.4882 0,-0.4688 -0.11719,-0.4883 -0.0977,-0.039 -0.0977,-0.3516 -0.0977,-0.4297 -0.0781,-0.9375 0.0391,-0.5078 -0.0781,-1.0351 -0.0977,-0.6055 -0.42969,-1.6602 -0.46875,-1.7578 -0.64453,-1.5234 -0.15625,0.2343 -1.58203,-0.3907 -0.70313,-0.332 -1.46485,-0.625 -0.78125,-0.2929 -0.78125,-1.25 0,-0.3125 0.3125,-0.3125 0.54688,0 0.91797,0.6055 0.37109,0.6055 1.54297,0.6055 0.89844,0 1.5625,0.2539 0.68359,0.2344 1.58203,0.2344 0.21484,0 0.42969,0 0.21484,0 0.42969,0 0.89843,0 1.79687,-0.039 0.91797,-0.059 1.40625,-0.332 0.0977,-0.1563 0.3125,-0.5274 0.21484,-0.3906 0.42969,-0.3906 0.21484,0 0.21484,0.2148 0,0.1172 0,0.1758 0,0.039 0,0.098 0,0.5273 -0.46875,0.8008 -0.44922,0.2734 -0.82031,0.4296 -0.64453,0.3125 -1.01563,0.3516 -0.37109,0.02 -0.37109,0.8203 v 1.8555 q 0,0.2148 0.13672,0.7812 0.13672,0.5664 0.19531,0.7813 0.0391,0.4687 0.0391,0.8984 0,0.4297 0.11719,0.8008 0.15625,0.8008 0.15625,1.6797 0,0.8789 0.21485,1.6211 h 0.21484 q 0.85937,0 1.32812,-0.2344 0.48829,-0.2344 1.11329,-0.3906 0.64453,-0.1758 1.21093,-0.293 0.56641,-0.1367 1.36719,-0.2539 0.3125,0 0.60547,-0.078 0.29297,-0.078 0.60547,-0.1758 0.37109,-0.059 0.80078,0 0.42969,0.039 0.48828,-0.2734 0.0977,-0.586 0.0977,-1.4258 0,-0.8594 0.0586,-1.5039 0,-0.8008 0.0781,-1.4453 0.0781,-0.6446 0.0781,-1.4453 0,-1.1133 -0.46875,-2.0704 -0.33203,-0.5273 -0.89844,-0.5468 -0.54687,-0.039 -0.54687,-0.5274 0,-0.1562 0.3125,-0.3125 1.01562,0 1.99219,-0.1562 0.99609,-0.1758 1.95312,-0.3321 0.91797,-0.1562 1.93359,-0.6054 1.01563,-0.4492 1.97266,-0.4492 h 0.0391 q 0.17578,0 0.21485,0.019 0.0586,0.02 0.21484,0.02 0.33203,0.4883 0.17578,0.586 z"
         style="font-style:normal;font-variant:normal;font-weight:normal;font-stretch:normal;font-family:'Alice in wonderland';-inkscape-font-specification:'Alice in wonderland'"
         id="path859"
         inkscape:connector-curvature="0" />
      <path
         d="m -855.92969,-1323.5278 -0.58593,2.5 q -0.15625,0.6055 0,1.836 0.15625,1.2109 0.21484,1.6992 0.15625,1.0547 0.42969,1.5429 0.21484,0.4297 0.46875,0.586 0.15625,0.098 0.42968,0.1562 0.27344,0.059 0.27344,0.2735 -0.11719,0.5273 -0.91797,0.3711 l -0.2539,-0.059 q -0.85938,-0.059 -1.38672,-0.8008 -0.33203,-0.2539 -0.44922,-0.6445 -0.0977,-0.4102 -0.3125,-0.625 -0.95703,1.4257 -1.83594,2.9296 -0.8789,1.4844 -3.125,1.1719 l -0.15625,-0.059 q -0.68359,-0.059 -1.40625,-0.4687 -0.72265,-0.4297 -1.03515,-0.8008 -0.85938,-0.7617 -0.70313,-2.6172 0.11719,-1.0742 0.27344,-1.543 0.15625,-0.4882 0.80078,-1.1328 0.74219,-0.8008 2.1875,-1.2695 0.74219,-0.2149 1.19141,-0.4492 0.44921,-0.2539 1.15234,-0.5664 0.52734,-0.2735 1.03516,-0.6446 0.50781,-0.3711 0.78125,-1.1132 0.42968,-1.0157 0.2539,-1.3282 -0.3125,-0.332 -1.05469,-0.8008 -0.58593,-0.2734 -1.26953,-0.625 -0.66406,-0.3515 -1.40625,-0.4492 l -0.0976,-0.059 q -1.01563,-0.098 -1.71875,0.8008 -0.6836,1.0156 -0.29297,1.1719 0.41015,0.1562 0.35156,0.6445 -0.0586,0.2735 -0.52734,0.4883 -0.3711,-0.2148 -0.70313,-0.4297 -0.3125,-0.2148 -0.21484,-0.8594 0.0586,-0.5859 0.64453,-1.2304 0.58594,-0.6446 1.01562,-0.8985 0.64454,-0.332 1.03516,-0.7031 0.41016,-0.3711 1.52344,-0.2148 h 0.21484 q 0.74219,0.1757 1.64063,0.6836 0.91797,0.4882 1.5625,0.8203 0.3125,0.2148 0.91797,0.3515 0.625,0.1172 0.78125,0.3321 0.42968,0.7617 0.27343,1.7578 z m -2.77343,4.4922 q 0.0977,-0.9766 -0.52735,-1.0742 h -0.17578 q -0.89844,-0.1172 -1.30859,1.1719 -0.39063,1.289 -0.70313,1.2304 h -0.0586 q -0.27344,0 -0.33203,-0.3515 -0.0391,-0.3516 -0.19532,-0.3907 h -0.11718 q -1.44532,-0.1757 -1.60157,1.1719 0,0.098 0.0195,0.2149 0.0391,0.098 0.0391,0.1562 0.3125,0.5274 0.39062,0.6445 0.0977,0.098 0.56641,0.4688 0.37109,0.3125 0.52734,0.4883 0.17578,0.098 0.25391,0.2734 0.0781,0.1563 0.23437,0.1953 0.74219,-1.0547 1.48438,-1.8554 0.33203,-0.3321 0.83984,-0.918 0.50782,-0.586 0.60547,-1.1133 z"
         style="font-style:normal;font-variant:normal;font-weight:normal;font-stretch:normal;font-family:'Alice in wonderland';-inkscape-font-specification:'Alice in wonderland'"
         id="path861"
         inkscape:connector-curvature="0" />
      <path
         d="m -845.41663,-1322.3719 q 0,0.3953 0,1.2466 0,0.8212 0.0912,1.1556 0.0609,0.2434 0.0609,1.1556 0,0.4866 0.18246,1.1556 0,0.5169 0.36491,0.821 0.39533,0.2737 0.63861,0.7603 0.15211,0.669 0.48655,0.7602 0.48656,0.2434 1.15557,0.2434 0.42573,0 1.21639,-0.365 0.79065,-0.3953 1.21639,-0.3953 0.63859,0 0.63859,0.5169 0,0.2434 -0.45615,0.6082 -0.45613,0.3649 -0.60818,0.5474 -0.51696,0.4866 -2.34155,0.4866 -0.91228,0 -1.85498,-0.1825 -0.94271,-0.2128 -1.94622,-0.2128 -0.24328,0 -0.33452,0.029 -0.0912,0.031 -0.24328,0.031 -1.18598,0 -1.76376,-0.1215 -0.57777,-0.1214 -2.49359,-0.031 -1.06435,0 -1.15557,-0.1825 0.18246,-0.7297 0.76024,-0.7602 0.5778,-0.061 1.30763,-0.3041 0.51696,-0.092 0.63859,-0.821 0.1216,-0.7603 0.27369,-1.3381 0.18246,-0.4865 0.24327,-1.3684 0.0912,-0.8819 0.18247,-1.3684 0,-0.7603 0.0304,-1.4901 0.0609,-0.7602 0.21287,-1.4901 0,-0.7603 -0.0304,-1.4597 -0.0304,-0.6994 0.1216,-1.4597 0.0912,-0.669 0.0304,-1.4596 -0.0304,-0.7907 -0.0304,-1.5204 0,-0.3346 -0.0609,-0.6996 -0.0304,-0.3953 -0.0304,-0.821 0,-1.1556 -0.0609,-1.49 -0.0912,-0.4865 -0.0912,-1.4293 0,-0.9731 0,-1.6421 -0.42572,-0.2432 -0.88187,-0.1825 -0.45615,0.031 -0.85148,0.031 -0.85146,0 -1.24679,0.1526 -1.09475,0.4257 -1.76376,1.3381 -0.39533,0.4865 -0.69943,1.0034 -0.30409,0.4866 -0.54737,0.9124 -0.57779,0.821 -0.66902,0.9123 -0.15211,0.1525 -0.3649,0.4865 -0.21287,0.3345 -0.36493,0.3345 -0.57778,0 -0.66901,-0.6691 0.48655,-0.9731 0.82107,-1.5812 0.42572,-0.6386 0.669,-1.8854 0,-0.5169 0.1216,-1.0947 0.1216,-0.5778 0.1216,-1.1556 0,-0.5171 -0.0304,-1.2772 -0.0304,-0.7908 0.45614,-0.7908 0.24328,0.061 0.63861,0.365 0.42574,0.2737 0.94271,0.365 0.91227,0.3344 2.98014,0.3344 0.42574,0 0.69943,-0.061 0.30409,-0.092 0.63859,-0.092 1.06435,0 1.49009,-0.092 1.00352,-0.2433 1.24679,-0.2433 0.669,0 1.33802,-0.1823 0.66902,0 1.39885,0.061 0.76024,0.03 1.42926,-0.2128 1.06433,-0.1825 1.45966,-0.4257 0.42574,-0.2434 0.85147,-0.2434 0.48655,0 0.57779,0.6994 0.0912,0.6994 0.18245,1.2772 0.0609,0.9428 0.39533,2.4328 0.0912,0.3346 0.24328,1.1556 0.0912,0.4258 0.0912,1.2468 -0.0912,0.4865 -0.18244,1.3988 -0.0609,0.9124 -0.39533,0.9124 -0.48656,0 -0.54737,-0.7907 -0.0304,-0.7906 -0.0304,-1.2772 0,-0.5777 -0.33451,-1.0036 -0.3345,-0.669 -0.48656,-0.821 -0.51696,-0.4865 -1.49007,-1.2772 -0.9427,-0.7906 -1.85498,-0.7906 -0.63861,0 -0.97311,0.1526 -0.2737,0.1825 -0.36492,1.1859 -0.0609,0.9731 -0.0609,1.2165 -0.0912,0.5169 -0.15212,0.9428 -0.0304,0.3953 -0.0304,0.8209 0,1.3076 -0.0609,1.8247 -0.0912,0.9122 -0.0609,1.9157 0.0609,0.9731 0.0609,1.8246 0,0.9731 -0.0609,1.9462 -0.0304,0.9428 -0.0304,1.7943 z"
         style="font-style:normal;font-variant:normal;font-weight:normal;font-stretch:normal;font-family:'Alice in wonderland';-inkscape-font-specification:'Alice in wonderland';stroke-width:1.55697596"
         id="path863"
         inkscape:connector-curvature="0" />
      <path
         d="m -832.21875,-1318.3214 q 0,0.2539 0,0.8007 0,0.5274 0.0586,0.7422 0.0391,0.1563 0.0391,0.7422 0,0.3125 0.11718,0.7422 0,0.332 0.23438,0.5273 0.25391,0.1758 0.41016,0.4883 0.0977,0.4297 0.3125,0.4883 0.3125,0.1563 0.74218,0.1563 0.27344,0 0.78125,-0.2344 0.50782,-0.2539 0.78125,-0.2539 0.41016,0 0.41016,0.332 0,0.1563 -0.29297,0.3906 -0.29297,0.2344 -0.39062,0.3516 -0.33204,0.3125 -1.50391,0.3125 -0.58594,0 -1.19141,-0.1172 -0.60547,-0.1367 -1.25,-0.1367 -0.15625,0 -0.21484,0.019 -0.0586,0.02 -0.15625,0.02 -0.76172,0 -1.13281,-0.078 -0.3711,-0.078 -1.60157,-0.02 -0.68359,0 -0.74218,-0.1172 0.11718,-0.4687 0.48828,-0.4883 0.37109,-0.039 0.83984,-0.1953 0.33203,-0.059 0.41016,-0.5273 0.0781,-0.4883 0.17578,-0.8594 0.11719,-0.3125 0.15625,-0.8789 0.0586,-0.5664 0.11719,-0.8789 0,-0.4883 0.0195,-0.957 0.0391,-0.4883 0.13672,-0.9571 0,-0.4883 -0.0195,-0.9375 -0.0195,-0.4492 0.0781,-0.9375 0.0586,-0.4297 0.0195,-0.9375 -0.0195,-0.5078 -0.0195,-0.9765 0,-0.2149 -0.0391,-0.4493 -0.0195,-0.2539 -0.0195,-0.5273 0,-0.7422 -0.0391,-0.957 -0.0586,-0.3125 -0.0586,-0.918 0,-0.625 0,-1.0547 -0.27344,-0.1562 -0.56641,-0.1172 -0.29296,0.02 -0.54687,0.02 -0.54688,0 -0.80078,0.098 -0.70313,0.2734 -1.13281,0.8594 -0.25391,0.3125 -0.44922,0.6445 -0.19532,0.3125 -0.35157,0.586 -0.37109,0.5273 -0.42968,0.5859 -0.0977,0.098 -0.23438,0.3125 -0.13672,0.2148 -0.23437,0.2148 -0.3711,0 -0.42969,-0.4297 0.3125,-0.625 0.52734,-1.0156 0.27344,-0.4101 0.42969,-1.2109 0,-0.332 0.0781,-0.7031 0.0781,-0.3711 0.0781,-0.7422 0,-0.3321 -0.0195,-0.8203 -0.0195,-0.5079 0.29297,-0.5079 0.15625,0.039 0.41015,0.2344 0.27344,0.1758 0.60547,0.2344 0.58594,0.2148 1.91407,0.2148 0.27343,0 0.44921,-0.039 0.19532,-0.059 0.41016,-0.059 0.68359,0 0.95703,-0.059 0.64453,-0.1563 0.80078,-0.1563 0.42969,0 0.85938,-0.1171 0.42969,0 0.89844,0.039 0.48828,0.019 0.91796,-0.1367 0.6836,-0.1172 0.9375,-0.2734 0.27344,-0.1563 0.54688,-0.1563 0.3125,0 0.37109,0.4492 0.0586,0.4492 0.11719,0.8203 0.0391,0.6055 0.25391,1.5625 0.0586,0.2149 0.15625,0.7422 0.0586,0.2735 0.0586,0.8008 -0.0586,0.3125 -0.11719,0.8984 -0.0391,0.586 -0.2539,0.586 -0.3125,0 -0.35157,-0.5078 -0.0195,-0.5078 -0.0195,-0.8203 0,-0.3711 -0.21484,-0.6446 -0.21484,-0.4297 -0.3125,-0.5273 -0.33203,-0.3125 -0.95703,-0.8203 -0.60547,-0.5078 -1.19141,-0.5078 -0.41015,0 -0.625,0.098 -0.17578,0.1172 -0.23437,0.7617 -0.0391,0.625 -0.0391,0.7813 -0.0586,0.332 -0.0976,0.6055 -0.0195,0.2539 -0.0195,0.5273 0,0.8398 -0.0391,1.1719 -0.0586,0.5859 -0.0391,1.2304 0.0391,0.625 0.0391,1.1719 0,0.625 -0.0391,1.25 -0.0195,0.6055 -0.0195,1.1524 z"
         style="font-style:normal;font-variant:normal;font-weight:normal;font-stretch:normal;font-family:'Alice in wonderland';-inkscape-font-specification:'Alice in wonderland'"
         id="path865"
         inkscape:connector-curvature="0" />
      <path
         d="m -815.70654,-1331.2274 q -0.94616,0.2538 -1.93847,0.1845 -0.96923,-0.07 -1.84616,-0.07 -0.25384,0 -0.43846,-0.046 -0.18461,-0.07 -0.36923,-0.07 -0.20769,0 -0.53077,0.1615 -0.3,0.1616 -0.36923,0.1616 -0.18461,0.1157 -0.36923,0.8769 -0.43846,1.2 -0.43846,2.0077 0,1.3846 0.76154,1.3846 0.11532,0 0.92308,-0.4385 0.83076,-0.4384 1.33846,-0.4384 1.26923,0 2.14616,0.6924 0.25384,0.1845 0.71537,0.5999 0.48462,0.4154 0.48462,0.7846 0,0.5769 -0.20769,0.9924 -0.18461,0.3922 -0.3,0.7845 -0.32307,0.9924 -0.87692,0.9924 -0.57693,0 -0.46154,-0.3 0.20769,-0.2539 0.50769,-0.2539 0.32308,0 0.32308,-0.5769 0,-1.0154 -1.38462,-1.0154 -0.39231,0 -0.87693,0.1385 -0.64614,0 -1.8923,0.1158 -0.32308,0 -0.55385,0.046 -0.20769,0.024 -0.39231,0.024 -0.18461,0.2539 -0.41538,0.6692 -0.23078,0.3924 -0.23078,0.7155 0,0.4384 0.11544,0.9922 0.13847,0.5309 0.13847,0.7847 -0.0462,0.4846 -0.0462,1.5692 0,0.3231 0.3923,0.3924 0.41539,0.046 0.6,0.046 0.69231,0 1.4077,-0.1615 0.73846,-0.1615 1.24615,-0.1615 0.57692,-0.046 1.22308,0.2077 0.66923,0.2308 1.24615,0.2308 1.06154,0 2.12308,-1.0616 0.25385,-0.2538 0.16154,-1.3153 -0.0923,-1.0847 0.41538,-1.0847 0.25385,0 0.36923,0.6 0.13846,0.6 0.13846,0.7847 0,1.1307 -0.3,1.7076 -0.27692,0.577 -0.78461,1.1308 -0.48461,0.4384 -0.9,1.1307 -0.41539,0.6924 -1.17692,0.6924 -0.55385,0 -1.1077,-0.092 -0.53077,-0.092 -1.08461,-0.092 -0.64615,0 -1.22309,0 -0.55384,0 -1.10769,0 -0.32307,0 -0.62307,0 -0.27692,0 -0.57693,0 -1.52307,0 -2.90769,-0.3693 -0.18462,-0.07 -0.66923,-0.1845 -0.46154,-0.1385 -0.64616,-0.2077 -0.25384,0 -0.55384,0.046 -0.27692,0.022 -0.53077,0.022 -0.36923,0 -0.36923,-0.2539 0,-0.5076 0.87692,-0.5308 0.87693,-0.022 1.08462,-0.4153 0.36923,-0.9923 0.36923,-2.5846 0,-0.5077 -0.18462,-1.0616 -0.25385,-0.8769 -0.25385,-1.2692 0,-0.3692 0.18462,-0.8769 0.18461,-0.5078 0.25385,-1.0155 0,-0.4384 0.0923,-1.0384 0.0923,-0.6 0.0923,-1.0846 0,-1.5923 -0.11544,-2.2846 -0.13846,-0.7616 -0.18462,-1.3154 -0.0692,-0.5769 -0.83076,-0.7615 -0.36923,-0.1158 -0.78462,-0.092 -0.41539,0.024 -0.34615,-0.3461 0,-0.07 0.39231,-0.2539 0.41538,-0.1846 0.66922,-0.1846 0.39231,0 0.66924,0.1615 0.27692,0.1615 0.78461,0.1615 0.18462,0 0.36923,0 0.20769,0 0.39231,0 0.62308,0 1.38462,-0.1615 0.76154,-0.1615 1.31539,-0.3462 0.94615,-0.1384 1.33845,-0.2538 0.43847,-0.1384 1.38463,-0.2539 0.62307,0 1.43076,-0.1158 0.83077,-0.1384 1.15385,-0.5077 0.18462,-0.323 0.64615,-0.9231 0.48462,-0.6 0.99232,-0.6 0.29999,0 0.29999,0.1847 0,0.07 -0.16154,0.5769 -0.13845,0.5076 -0.13845,0.5538 -0.43847,0.9 -0.5077,1.0847 -0.13846,0.2538 -0.23076,0.6 -0.0923,0.3461 -0.16154,0.5307 -0.23078,0.6923 -0.55385,0.9462 z"
         style="font-style:normal;font-variant:normal;font-weight:normal;font-stretch:normal;font-family:'Alice in wonderland';-inkscape-font-specification:'Alice in wonderland';stroke-width:1.1815393"
         id="path867"
         inkscape:connector-curvature="0" />
      <path
         d="m -806.55469,-1327.5011 -0.95703,0.098 q -0.17578,0.4883 -0.2539,0.625 -0.0781,0.1367 -0.23438,0.3907 -0.11719,0.1562 -0.27344,0.5664 -0.15625,0.3906 -0.0976,0.5664 l 0.21484,1.4257 q 0,0.2735 0,0.4883 0,0.2149 0,0.4297 0,0.3125 -0.0586,0.4492 -0.0586,0.1368 0,0.3907 0.3125,0.2148 0.58593,0.059 0.27344,-0.1563 0.58594,-0.2149 0.58594,0 0.89844,-0.5469 0.33203,-0.5664 0.48828,-1.0937 0.0586,-0.332 0.13672,-0.7617 0.0781,-0.4297 0.23437,-0.8008 0,-0.1563 0.35157,-0.6836 0.35156,-0.5274 0.35156,-0.5859 0,-0.1172 -0.33203,-0.3711 -0.3125,-0.2735 -0.42969,-0.3321 -0.58594,-0.1562 -1.21094,-0.098 z m -4.16015,4.1601 q 0,-0.5859 -0.11719,-1.1914 -0.0977,-0.625 -0.0977,-1.2695 -0.0586,-0.8399 -0.39062,-1.2695 -0.3125,-0.4297 -1.26953,-0.4297 -0.3125,-0.1563 -0.3125,-0.3711 0,-0.2149 0.58593,-0.2149 0.46875,-0.059 0.9961,-0.1953 0.54687,-0.1367 1.07422,-0.1758 0.80078,-0.059 1.60156,-0.098 0.80078,-0.059 1.60156,-0.1758 0.3711,0 0.74219,0.039 0.37109,0.02 0.85937,0.02 0.58594,-0.059 1.54297,0.059 0.80078,0.3125 1.17188,0.4687 0.33203,0.1563 0.58594,0.2735 0.42968,0.098 0.48828,0.4297 0,0.3125 -0.13672,0.5078 -0.13672,0.1758 -0.17578,0.3906 -0.33203,1.1719 -0.39063,1.8164 0,0.4688 -0.0977,0.8984 -0.15625,0.4883 -1.07422,1.2305 -0.89844,0.7422 -1.38672,0.918 0.11719,0.4687 0.21484,0.8984 0.11719,0.4297 0.27344,0.8594 0.3125,1.0156 1.07422,1.9141 0.3125,0.4882 0.52734,0.8984 0.0977,0.332 0.44922,1.1133 0.35156,0.7617 0.56641,0.8594 0.3125,0.2148 0.39062,0.2734 0.0781,0.059 0.41016,0.3711 0.2539,0.3711 1.05469,0.3711 0.27343,0 0.44921,-0.2344 0.19532,-0.2344 0.46875,-0.293 0.25391,0 0.3711,0.4297 0,0.098 -0.52735,0.4297 -0.11718,0.098 -0.27343,0.293 -0.15625,0.1758 -0.21485,0.1758 -0.3125,0.1562 -0.80078,0.2148 -0.42969,0 -0.80078,0.1172 -0.37109,0.098 -0.74219,0.039 -0.11718,0 -0.54687,-0.1563 -0.41016,-0.1562 -0.52735,-0.2148 -0.46875,-0.1563 -0.85937,-0.6836 -0.15625,-0.2149 -0.27344,-0.4688 -0.0977,-0.2734 -0.2539,-0.5469 -0.25391,-0.5273 -0.52735,-1.0742 -0.64453,-0.957 -0.85937,-2.2265 -0.0977,-0.4883 -0.17578,-1.0157 -0.0781,-0.5468 -0.13672,-1.0742 0,-0.5273 -0.3711,-0.4883 -0.27343,0 -0.9375,0.1172 -0.66406,0.098 -0.78125,0.2735 0.0586,0.957 0,1.7578 -0.0976,1.3867 -0.0391,2.0703 0.0391,1.1719 1.54297,0.957 0.42969,0 0.58594,0.4883 0,0.2148 -0.3711,0.2148 -0.33203,0.059 -0.5664,0.039 -0.23438,-0.039 -0.56641,-0.039 -1.17187,0 -1.69922,0.059 -0.42969,0.098 -0.85937,0.293 -0.42969,0.1758 -0.80078,0.293 -1.48438,0.3711 -2.44141,0.4101 -0.85938,0.1172 -0.85938,-0.4687 0,-0.1563 0.27344,-0.1758 0.25391,-0.039 0.3711,-0.098 0.2539,0 0.80078,-0.2148 0.15625,-0.039 0.52734,-0.3125 0.37109,-0.2734 0.48828,-0.4883 0.15625,-0.3125 0.25391,-0.6055 0.11719,-0.2929 0.27344,-0.6054 0.0977,-0.2149 0.19531,-0.6641 0.11719,-0.4687 0.17578,-0.7812 0,-0.3321 0.0977,-0.7422 0.11718,-0.4297 0.17578,-0.7617 0,-0.3125 0.0195,-0.8204 0.0195,-0.5078 0.0195,-0.8203 -0.0391,-0.6445 -0.0391,-1.8164 z"
         style="font-style:normal;font-variant:normal;font-weight:normal;font-stretch:normal;font-family:'Alice in wonderland';-inkscape-font-specification:'Alice in wonderland'"
         id="path869"
         inkscape:connector-curvature="0" />
    </g>
    <path
       sodipodi:nodetypes="csccc"
       inkscape:connector-curvature="0"
       id="path872"
       d="m -83.439877,54.35861 c 0,0 0.397623,-2.137197 1.263915,-4.836144 0.593257,-1.848301 1.406313,-3.960052 2.461983,-5.829266 -0.334879,-4.800807 -14.988212,-6.809471 -16.52435,0.02383 0.262102,0.28593 1.316469,2.674635 1.316469,2.674635"
       style="fill:none;stroke:#000000;stroke-width:0.1260792;stroke-linecap:butt;stroke-linejoin:miter;stroke-miterlimit:4;stroke-dasharray:none;stroke-opacity:1"
       inkscape:export-xdpi="5000"
       inkscape:export-ydpi="5000" />
    <path
       sodipodi:nodetypes="csssszc"
       inkscape:connector-curvature="0"
       id="path874"
       d="m -83.145135,53.099093 c 2.916413,-0.167172 1.19404,1.467247 -0.321538,1.30546 -0.179151,-0.01913 -0.355413,-0.06335 -0.520782,-0.13861 -1.390846,-0.633003 -2.352899,-2.311315 -5.355567,-2.646217 -0.374578,-0.04178 -0.780912,-0.06265 -1.223798,-0.05798 -3.993109,0.04212 -5.410999,2.518121 -4.024206,4.230394 1.386792,1.712272 5.83343,-1.296217 8.180443,-0.938119"
       style="fill:none;stroke:#000000;stroke-width:0.1260792;stroke-linecap:butt;stroke-linejoin:miter;stroke-miterlimit:4;stroke-dasharray:none;stroke-opacity:1"
       inkscape:export-xdpi="5000"
       inkscape:export-ydpi="5000" />
    <path
       sodipodi:nodetypes="cc"
       inkscape:connector-curvature="0"
       id="path876"
       d="m -90.145605,48.343671 c 0,0 4.751294,-0.70764 7.969371,1.196249"
       style="fill:none;stroke:#000000;stroke-width:0.1260792;stroke-linecap:butt;stroke-linejoin:miter;stroke-miterlimit:4;stroke-dasharray:none;stroke-opacity:1"
       inkscape:export-xdpi="5000"
       inkscape:export-ydpi="5000" />
    <path
       sodipodi:nodetypes="czzcc"
       inkscape:connector-curvature="0"
       id="path878"
       d="m -86.410583,54.854022 c -2.740655,-0.604298 -5.594251,1.1938 -5.452379,-0.01907 0.141871,-1.212868 3.670559,-0.869016 6.269009,0.35382 2.598449,1.222834 4.681361,0.736753 5.186818,-1.049196 0,0 1.078308,-2.695771 -2.645225,-1.802797"
       style="fill:none;stroke:#000000;stroke-width:0.1260792;stroke-linecap:butt;stroke-linejoin:miter;stroke-miterlimit:4;stroke-dasharray:none;stroke-opacity:1"
       inkscape:export-xdpi="5000"
       inkscape:export-ydpi="5000" />
    <path
       sodipodi:nodetypes="ccccc"
       inkscape:connector-curvature="0"
       id="path880"
       d="m -94.064072,52.491493 -3.049916,-4.217463 c 2.478057,-2.740159 6.171314,-3.276276 6.171314,-3.276276 l 0.812386,3.345824 0.795968,3.278212"
       style="fill:none;stroke:#000000;stroke-width:0.1260792;stroke-linecap:butt;stroke-linejoin:miter;stroke-miterlimit:4;stroke-dasharray:none;stroke-opacity:1"
       inkscape:export-xdpi="5000"
       inkscape:export-ydpi="5000" />
    <path
       inkscape:connector-curvature="0"
       id="path882"
       d="m -95.671173,48.940499 0.07148,-0.559947 1.465391,2.466143"
       style="fill:none;fill-opacity:1;stroke:#0d0000;stroke-width:0.2521584;stroke-linecap:butt;stroke-linejoin:miter;stroke-miterlimit:4;stroke-dasharray:none;stroke-opacity:1"
       inkscape:export-xdpi="5000"
       inkscape:export-ydpi="5000" />
    <ellipse
       transform="matrix(0.75513256,-0.65557213,0.48337218,0.87541495,0,0)"
       ry="1.3563042"
       rx="0.62149274"
       cy="-24.971186"
       cx="-108.34354"
       id="ellipse884"
       style="fill:none;fill-opacity:1;stroke:#0d0000;stroke-width:0.22455643;stroke-linecap:butt;stroke-miterlimit:4;stroke-dasharray:none;stroke-dashoffset:0;stroke-opacity:1"
       inkscape:export-xdpi="5000"
       inkscape:export-ydpi="5000" />
    <path
       inkscape:connector-curvature="0"
       id="path886"
       d="m -92.561689,46.498183 0.214446,4.789321"
       style="fill:none;stroke:#0d0000;stroke-width:0.2521584;stroke-linecap:butt;stroke-linejoin:miter;stroke-miterlimit:4;stroke-dasharray:none;stroke-opacity:1"
       inkscape:export-xdpi="5000"
       inkscape:export-ydpi="5000" />
    <path
       sodipodi:nodetypes="czzc"
       inkscape:connector-curvature="0"
       id="path889"
       d="m -91.275007,48.225673 c -0.808731,2.232436 0.07809,2.544069 0.490879,2.335567 0.412791,-0.2085 0.216326,-0.827012 -0.133467,-0.870176 -0.349793,-0.04317 -0.570063,0.601468 -0.570063,0.601468"
       style="fill:none;stroke:#0d0000;stroke-width:0.2521584;stroke-linecap:butt;stroke-linejoin:miter;stroke-miterlimit:4;stroke-dasharray:none;stroke-opacity:1"
       inkscape:export-xdpi="5000"
       inkscape:export-ydpi="5000" />
    <path
       style="fill:#000000;fill-opacity:1;stroke:#000000;stroke-width:0.1260792;stroke-linecap:butt;stroke-linejoin:miter;stroke-miterlimit:4;stroke-dasharray:none;stroke-opacity:1"
       d="m -90.028068,48.343625 c 0,0 4.600671,-0.719507 7.818884,1.175654 -0.866157,2.69022 -1.277178,4.850388 -1.277178,4.850388 -0.192549,0.0039 -0.225846,-0.02846 -0.391214,-0.103724 -1.390847,-0.633003 -2.352899,-2.311315 -5.351217,-2.645185 z"
       id="path953"
       inkscape:connector-curvature="0"
       sodipodi:nodetypes="cccscc"
       inkscape:export-xdpi="5000"
       inkscape:export-ydpi="5000" />
  </g>
</svg>
