<?xml version="1.0" encoding="UTF-8" standalone="no"?>
<!-- Created with Inkscape (http://www.inkscape.org/) -->

<svg
   xmlns:dc="http://purl.org/dc/elements/1.1/"
   xmlns:cc="http://creativecommons.org/ns#"
   xmlns:rdf="http://www.w3.org/1999/02/22-rdf-syntax-ns#"
   xmlns:svg="http://www.w3.org/2000/svg"
   xmlns="http://www.w3.org/2000/svg"
   xmlns:sodipodi="http://sodipodi.sourceforge.net/DTD/sodipodi-0.dtd"
   xmlns:inkscape="http://www.inkscape.org/namespaces/inkscape"
   width="241.97842mm"
   height="132.84767mm"
   viewBox="0 0 241.97842 132.84767"
   version="1.1"
   id="svg8"
   inkscape:version="0.92.4 5da689c313, 2019-01-14"
   sodipodi:docname="quote.svg">
  <defs
     id="defs2" />
  <sodipodi:namedview
     id="base"
     pagecolor="#ffffff"
     bordercolor="#666666"
     borderopacity="1.0"
     inkscape:pageopacity="0.0"
     inkscape:pageshadow="2"
     inkscape:zoom="0.175"
     inkscape:cx="177.70228"
     inkscape:cy="-419.43445"
     inkscape:document-units="mm"
     inkscape:current-layer="layer1"
     showgrid="false"
     inkscape:window-width="1920"
     inkscape:window-height="1043"
     inkscape:window-x="1920"
     inkscape:window-y="310"
     inkscape:window-maximized="1"
     inkscape:snap-global="false" />
  <metadata
     id="metadata5">
    <rdf:RDF>
      <cc:Work
         rdf:about="">
        <dc:format>image/svg+xml</dc:format>
        <dc:type
           rdf:resource="http://purl.org/dc/dcmitype/StillImage" />
        <dc:title></dc:title>
      </cc:Work>
    </rdf:RDF>
  </metadata>
  <g
     inkscape:label="Layer 1"
     inkscape:groupmode="layer"
     id="layer1"
     transform="translate(-85.984255,328.86287)">
    <flowRoot
       transform="matrix(0.9556733,0,0,0.9556733,1000.9956,949.7453)"
       style="font-style:normal;font-variant:normal;font-weight:normal;font-stretch:normal;font-size:40px;line-height:1.25;font-family:Macbeth;-inkscape-font-specification:Macbeth;letter-spacing:0px;word-spacing:0px;fill:#000000;fill-opacity:1;stroke:none"
       id="flowRoot843"
       xml:space="preserve"><flowRegion
         id="flowRegion839"><rect
           y="-1344.6232"
           x="-955.71429"
           height="407.14285"
           width="658.57141"
           id="rect837" /></flowRegion><flowPara
         style="font-style:normal;font-variant:normal;font-weight:normal;font-stretch:normal;font-family:'Alice in wonderland';-inkscape-font-specification:'Alice in wonderland'"
         id="flowPara841">We are all mad here</flowPara></flowRoot>    <g
       aria-label="We are all mad here"
       transform="matrix(0.9556733,0,0,0.9556733,945.05512,1028.9569)"
       style="font-style:normal;font-variant:normal;font-weight:normal;font-stretch:normal;font-size:40px;line-height:1.25;font-family:Macbeth;-inkscape-font-specification:Macbeth;letter-spacing:0px;word-spacing:0px;fill:#000000;fill-opacity:1;stroke:none"
       id="flowRoot897">
      <g
         id="g945"
         transform="translate(57.051906,24.051294)">
        <path
           id="path899"
           style="font-style:normal;font-variant:normal;font-weight:normal;font-stretch:normal;font-family:'Alice in wonderland';-inkscape-font-specification:'Alice in wonderland'"
           d="m -949.03516,-1314.0636 q -0.0976,-0.6836 -0.21484,-1.211 -0.0977,-0.5468 -0.21484,-1.25 -0.15625,-0.5273 -0.23438,-1.25 -0.0781,-0.7226 -0.23437,-1.1914 -0.17578,-0.5859 -0.29297,-1.2304 -0.0977,-0.6446 -0.25391,-1.1719 -0.37109,-1.2305 -0.52734,-2.4024 -0.15625,-1.0156 -0.52735,-2.3437 -0.37109,-1.3281 -0.37109,-2.5586 0,-0.918 -0.0391,-1.2109 -0.0195,-0.293 -0.23438,-1.0938 -0.15625,-0.4101 -0.35156,-0.9375 -0.17578,-0.5469 -0.44922,-0.8594 -0.3125,-0.4297 -0.5664,-0.7422 -0.23438,-0.332 -0.66407,-0.6445 -0.3125,-0.1758 -0.48828,-0.2148 -0.15625,-0.059 -0.41015,-0.2149 -0.27344,-0.1562 -0.56641,-0.1367 -0.29297,0.019 -0.29297,-0.293 0.27344,-0.4882 1.09375,-0.098 0.82031,0.3711 1.30859,0.3711 l 3.24219,-0.2149 q 0.33203,0 0.50781,0.059 0.19532,0.039 0.50782,-0.059 0.17578,0 0.50781,-0.098 0.35156,-0.1172 0.41016,-0.1172 0.21484,0 0.3125,0.2148 -0.15625,0.2149 -0.48829,0.6055 -0.3125,0.3906 -0.3125,0.7813 l 0.52735,4.4726 q 0.0586,0.4883 -0.0781,1.1524 -0.11718,0.664 -0.0781,1.0937 l 0.15625,1.6406 0.0586,0.1172 0.15625,0.039 q 0.0586,0.2734 0.13672,0.7031 0.0781,0.4297 0.19531,0.6445 0.0977,0.3711 0.0781,0.7422 -0.0195,0.3711 0.0781,0.7422 0.0586,0.7422 0.0977,1.5234 0.0586,0.7813 0.54687,1.0938 0.3125,-0.5273 0.52735,-1.1133 0.11719,-0.332 0.21484,-0.5859 0.0977,-0.2735 0.27344,-0.586 0.15625,-0.4296 0.46875,-1.1132 0.33203,-0.7032 0.48828,-1.1914 0.15625,-0.586 0.33203,-1.211 0.19531,-0.6445 0.35156,-1.4062 0,-0.3125 0.0781,-0.6641 0.0781,-0.3516 0.13672,-0.7227 0,-0.2539 0.0976,-0.6835 0.11719,-0.4297 0.44922,-0.4297 0.15625,0 0.39063,0.664 0.23437,0.6641 0.39062,0.8203 0,0.8594 0.19532,1.6602 0.19531,0.8008 0.35156,1.6016 0.0976,0.4882 0.11719,0.8398 0.0391,0.332 0.19531,0.7617 0.0586,0.4883 0.19531,0.7813 0.13672,0.2929 0.29297,0.7031 0.15625,0.7617 0.74219,3.2617 0.58593,2.5 0.89843,2.6758 0.17579,-0.1172 0.72266,-1.3672 0.56641,-1.25 1.19141,-2.7734 0.64453,-1.5235 1.17187,-2.9102 0.54688,-1.3867 0.70313,-1.8555 0.37109,-1.289 0.52734,-2.6171 0.17578,-1.3477 0.48828,-2.7344 0.15625,-0.625 0.25391,-1.3477 0.11719,-0.7226 0.27344,-1.3672 0.0586,-0.3125 0.19531,-1.3476 0.13672,-1.0547 0.13672,-1.4844 0,-1.2109 -0.52735,-1.3867 -0.17578,0 -0.78125,-0.1758 -0.60547,-0.1953 -0.60547,-0.3516 0,-0.2539 0.66407,-0.4101 0.66406,-0.1758 1.03515,-0.1758 h 0.0977 q 0.54687,0 1.07422,0.2734 0.52734,0.254 0.95703,0.4297 0.64453,0.3711 2.1875,0.625 0.80078,0.1758 1.19141,0.039 0.41015,-0.1367 1.11328,-0.293 0.41015,-0.059 1.05468,-0.332 0.3711,-0.1563 0.39063,-0.332 0.0391,-0.1953 0.25391,-0.4688 0.21484,-0.039 -0.0391,0.625 -0.23437,0.6641 -0.23437,0.7617 -0.0977,0.2149 -0.50781,0.3907 -0.39063,0.1562 -0.60547,0.1953 -0.85938,0.332 -1.3086,0.3906 -0.44922,0.039 -1.1914,0.5273 -0.42969,0.3125 -0.64453,1.0938 -0.21485,0.7617 -0.27344,1.4062 -0.15625,0.7422 -0.35156,1.4454 -0.17579,0.6835 -0.11719,1.3867 0.15625,0.059 0.19531,0.059 0.0586,0 0.21484,-0.1563 0.17579,-0.1758 0.21485,0.039 -0.0391,0.4297 -0.52735,1.3086 -0.48828,0.8789 -0.64453,1.3672 -0.21484,0.5273 -0.5664,1.4062 -0.33203,0.8789 -0.39063,1.4649 -0.0586,0.6445 -0.21484,1.7773 -0.15625,1.1133 -0.42969,1.4258 -0.25391,0.3125 -0.46875,0.4883 -0.21484,0.1562 -0.33203,0.625 -0.0977,0.4296 -0.15625,0.8593 -0.0586,0.4297 -0.21484,0.7422 -0.25391,0.7031 -0.58594,1.3477 -0.3125,0.625 -0.58594,1.2695 -0.3125,0.6445 -0.66406,1.3477 -0.35156,0.6836 -0.56641,1.3281 -0.15625,0.3711 -0.19531,0.8008 -0.0195,0.4101 -0.17578,0.7422 -0.0977,0.2148 -0.35156,0.5859 -0.23438,0.3711 -0.33204,0.6445 -0.21484,0.3711 -0.78125,1.2305 -0.54687,0.8398 -0.97656,0.8398 0,0 -0.21484,-0.098 0,-1.2305 -0.0391,-1.8164 -0.0195,-0.586 -0.50782,-1.5039 -0.2539,-0.4102 -0.39062,-1.4453 -0.13672,-1.0547 -0.35156,-1.6993 -0.3125,-0.6836 -0.60547,-1.3281 -0.29297,-0.6445 -0.56641,-1.3867 -0.42969,-0.8594 -0.64453,-1.3281 -0.0977,-0.2149 -0.37109,-0.6836 -0.25391,-0.4883 -0.25391,-0.6641 -0.33203,0.1758 -0.33203,0.4883 0,0.3125 -0.15625,0.4883 -0.15625,0.1562 -0.33203,0.2929 -0.15625,0.1172 -0.19532,0.1758 -0.11718,0.1563 -0.11718,0.3516 0,0.1758 -0.0391,0.4492 -0.27343,0.2734 -0.625,1.6016 -0.35156,1.3281 -0.76171,2.8515 -0.39063,1.5235 -0.80079,2.7735 -0.39062,1.25 -0.76171,1.25 -0.0977,0 -0.29297,-0.918 -0.17578,-0.9375 -0.29297,-1.3672 -0.0977,-0.2148 -0.15625,-0.5273 -0.0586,-0.3321 -0.0977,-0.6446 -0.27344,-0.9179 -0.27344,-1.2304 z"
           inkscape:connector-curvature="0" />
        <path
           inkscape:connector-curvature="0"
           id="path901"
           style="font-style:normal;font-variant:normal;font-weight:normal;font-stretch:normal;font-family:'Alice in wonderland';-inkscape-font-specification:'Alice in wonderland'"
           d="m -920.48047,-1318.2042 q -0.80078,0.2148 -1.64062,0.1562 -0.82032,-0.059 -1.5625,-0.059 -0.21485,0 -0.3711,-0.039 -0.15625,-0.059 -0.3125,-0.059 -0.17578,0 -0.44922,0.1367 -0.2539,0.1367 -0.3125,0.1367 -0.15625,0.098 -0.3125,0.7422 -0.37109,1.0156 -0.37109,1.6992 0,1.1719 0.64453,1.1719 0.0977,0 0.78125,-0.3711 0.70313,-0.3711 1.13281,-0.3711 1.07422,0 1.81641,0.586 0.21484,0.1562 0.60547,0.5078 0.41016,0.3515 0.41016,0.664 0,0.4883 -0.17579,0.8399 -0.15625,0.332 -0.2539,0.664 -0.27344,0.8399 -0.74219,0.8399 -0.48828,0 -0.39062,-0.2539 0.17578,-0.2149 0.42968,-0.2149 0.27344,0 0.27344,-0.4882 0,-0.8594 -1.17187,-0.8594 -0.33204,0 -0.74219,0.1172 -0.54688,0 -1.60156,0.098 -0.27344,0 -0.46875,0.039 -0.17579,0.02 -0.33204,0.02 -0.15625,0.2149 -0.35156,0.5664 -0.19531,0.3321 -0.19531,0.6055 0,0.3711 0.0977,0.8398 0.11718,0.4493 0.11718,0.6641 -0.0391,0.4102 -0.0391,1.3281 0,0.2735 0.33203,0.3321 0.35156,0.039 0.50781,0.039 0.58594,0 1.19141,-0.1367 0.625,-0.1367 1.05469,-0.1367 0.48828,-0.039 1.03515,0.1758 0.56641,0.1953 1.05469,0.1953 0.89844,0 1.79688,-0.8985 0.21484,-0.2148 0.13672,-1.1132 -0.0781,-0.918 0.35156,-0.918 0.21484,0 0.3125,0.5078 0.11719,0.5078 0.11719,0.6641 0,0.957 -0.25391,1.4453 -0.23438,0.4883 -0.66406,0.957 -0.41016,0.3711 -0.76172,0.957 -0.35156,0.586 -0.9961,0.586 -0.46875,0 -0.9375,-0.078 -0.44921,-0.078 -0.91796,-0.078 -0.54688,0 -1.03516,0 -0.46875,0 -0.9375,0 -0.27344,0 -0.52734,0 -0.23438,0 -0.48829,0 -1.28906,0 -2.46093,-0.3125 -0.15625,-0.059 -0.56641,-0.1562 -0.39062,-0.1172 -0.54687,-0.1758 -0.21485,0 -0.46875,0.039 -0.23438,0.019 -0.44922,0.019 -0.3125,0 -0.3125,-0.2149 0,-0.4296 0.74218,-0.4492 0.74219,-0.019 0.91797,-0.3515 0.3125,-0.8399 0.3125,-2.1875 0,-0.4297 -0.15625,-0.8985 -0.21484,-0.7422 -0.21484,-1.0742 0,-0.3125 0.15625,-0.7422 0.15625,-0.4297 0.21484,-0.8594 0,-0.3711 0.0781,-0.8789 0.0781,-0.5078 0.0781,-0.9179 0,-1.3477 -0.0976,-1.9336 -0.11719,-0.6446 -0.15625,-1.1133 -0.0586,-0.4883 -0.70313,-0.6445 -0.3125,-0.098 -0.66406,-0.078 -0.35156,0.02 -0.29297,-0.2929 0,-0.059 0.33203,-0.2149 0.35156,-0.1562 0.56641,-0.1562 0.33203,0 0.5664,0.1367 0.23438,0.1367 0.66407,0.1367 0.15625,0 0.3125,0 0.17578,0 0.33203,0 0.52734,0 1.17187,-0.1367 0.64453,-0.1367 1.11328,-0.293 0.80079,-0.1172 1.13282,-0.2148 0.37109,-0.1172 1.17187,-0.2149 0.52735,0 1.21094,-0.098 0.70312,-0.1172 0.97656,-0.4297 0.15625,-0.2734 0.54688,-0.7813 0.41015,-0.5078 0.83984,-0.5078 0.25391,0 0.25391,0.1563 0,0.059 -0.13672,0.4883 -0.11719,0.4296 -0.11719,0.4687 -0.37109,0.7617 -0.42969,0.918 -0.11718,0.2148 -0.19531,0.5078 -0.0781,0.293 -0.13672,0.4492 -0.19531,0.5859 -0.46875,0.8008 z" />
        <path
           inkscape:connector-curvature="0"
           id="path903"
           style="font-style:normal;font-variant:normal;font-weight:normal;font-stretch:normal;font-family:'Alice in wonderland';-inkscape-font-specification:'Alice in wonderland'"
           d="m -898.20067,-1322.2179 -0.58594,2.5 q -0.15625,0.6055 0,1.836 0.15625,1.2109 0.21484,1.6992 0.15625,1.0547 0.42969,1.5429 0.21484,0.4297 0.46875,0.586 0.15625,0.098 0.42969,0.1562 0.27344,0.059 0.27344,0.2735 -0.11719,0.5273 -0.91797,0.3711 l -0.25391,-0.059 q -0.85937,-0.059 -1.38672,-0.8008 -0.33203,-0.2539 -0.44922,-0.6445 -0.0976,-0.4102 -0.3125,-0.625 -0.95703,1.4257 -1.83593,2.9296 -0.87891,1.4844 -3.125,1.1719 l -0.15625,-0.059 q -0.6836,-0.059 -1.40625,-0.4687 -0.72266,-0.4297 -1.03516,-0.8008 -0.85938,-0.7617 -0.70313,-2.6172 0.11719,-1.0742 0.27344,-1.543 0.15625,-0.4882 0.80078,-1.1328 0.74219,-0.8008 2.1875,-1.2695 0.74219,-0.2149 1.19141,-0.4492 0.44922,-0.2539 1.15234,-0.5664 0.52735,-0.2735 1.03516,-0.6446 0.50781,-0.3711 0.78125,-1.1132 0.42969,-1.0157 0.25391,-1.3282 -0.3125,-0.332 -1.05469,-0.8008 -0.58594,-0.2734 -1.26953,-0.625 -0.66407,-0.3515 -1.40625,-0.4492 l -0.0977,-0.059 q -1.01562,-0.098 -1.71875,0.8008 -0.68359,1.0156 -0.29297,1.1719 0.41016,0.1562 0.35156,0.6445 -0.0586,0.2735 -0.52734,0.4883 -0.37109,-0.2148 -0.70312,-0.4297 -0.3125,-0.2148 -0.21485,-0.8594 0.0586,-0.5859 0.64453,-1.2304 0.58594,-0.6446 1.01563,-0.8985 0.64453,-0.332 1.03515,-0.7031 0.41016,-0.3711 1.52344,-0.2148 h 0.21485 q 0.74218,0.1757 1.64062,0.6836 0.91797,0.4882 1.5625,0.8203 0.3125,0.2148 0.91797,0.3515 0.625,0.1172 0.78125,0.3321 0.42969,0.7617 0.27344,1.7578 z m -2.77344,4.4922 q 0.0977,-0.9766 -0.52734,-1.0742 h -0.17579 q -0.89843,-0.1172 -1.30859,1.1719 -0.39062,1.289 -0.70312,1.2304 h -0.0586 q -0.27344,0 -0.33203,-0.3515 -0.0391,-0.3516 -0.19531,-0.3907 h -0.11719 q -1.44531,-0.1757 -1.60156,1.1719 0,0.098 0.0195,0.2149 0.0391,0.098 0.0391,0.1562 0.3125,0.5274 0.39063,0.6445 0.0976,0.098 0.5664,0.4688 0.3711,0.3125 0.52735,0.4883 0.17578,0.098 0.2539,0.2734 0.0781,0.1563 0.23438,0.1953 0.74219,-1.0547 1.48437,-1.8554 0.33203,-0.3321 0.83985,-0.918 0.50781,-0.586 0.60547,-1.1133 z" />
        <path
           inkscape:connector-curvature="0"
           id="path905"
           style="font-style:normal;font-variant:normal;font-weight:normal;font-stretch:normal;font-family:'Alice in wonderland';-inkscape-font-specification:'Alice in wonderland';stroke-width:1.45392168"
           d="m -887.74872,-1331.9136 -1.39144,0.1425 q -0.25558,0.7099 -0.36917,0.9087 -0.11355,0.1987 -0.34076,0.568 -0.17038,0.2271 -0.39756,0.8235 -0.22717,0.5679 -0.14204,0.8235 l 0.31237,2.0729 q 0,0.3976 0,0.7099 0,0.3125 0,0.6248 0,0.4543 -0.0852,0.6531 -0.0852,0.1989 0,0.568 0.45435,0.3123 0.85191,0.086 0.39756,-0.2272 0.85191,-0.3124 0.8519,0 1.30625,-0.7952 0.48276,-0.8235 0.70994,-1.5901 0.0852,-0.4827 0.19876,-1.1075 0.11355,-0.6247 0.34077,-1.1643 0,-0.2272 0.51114,-0.9939 0.51114,-0.7668 0.51114,-0.8518 0,-0.1704 -0.48274,-0.5396 -0.45435,-0.3976 -0.62472,-0.4828 -0.85192,-0.2271 -1.76062,-0.1425 z m -6.04854,6.0485 q 0,-0.8519 -0.17039,-1.7322 -0.1419,-0.9087 -0.1419,-1.8458 -0.0852,-1.2211 -0.56795,-1.8457 -0.45435,-0.6248 -1.8458,-0.6248 -0.45435,-0.2272 -0.45435,-0.5395 0,-0.3125 0.85191,-0.3125 0.68153,-0.086 1.44824,-0.2839 0.79512,-0.1988 1.56183,-0.2556 1.16427,-0.086 2.32855,-0.1425 1.16428,-0.086 2.32855,-0.2556 0.53954,0 1.07908,0.057 0.53955,0.029 1.24947,0.029 0.85191,-0.086 2.24335,0.086 1.16428,0.4544 1.70381,0.6815 0.48275,0.2272 0.85191,0.3976 0.62474,0.1425 0.70992,0.6248 0,0.4543 -0.19878,0.7383 -0.19878,0.2556 -0.25557,0.5679 -0.48274,1.7038 -0.56793,2.6409 0,0.6816 -0.14205,1.3062 -0.22717,0.7099 -1.56183,1.789 -1.30626,1.0791 -2.01618,1.3347 0.17038,0.6815 0.31237,1.3062 0.17037,0.6248 0.39755,1.2495 0.45435,1.4767 1.56183,2.783 0.45435,0.7098 0.76673,1.3062 0.1419,0.4827 0.65313,1.6187 0.51114,1.1074 0.8235,1.2495 0.45435,0.3123 0.56794,0.3975 0.11356,0.086 0.59633,0.5395 0.36917,0.5396 1.53344,0.5396 0.39756,0 0.65313,-0.3408 0.28396,-0.3408 0.68152,-0.426 0.36917,0 0.53954,0.6247 0,0.1425 -0.76671,0.6248 -0.17039,0.1424 -0.39756,0.426 -0.22718,0.2556 -0.31236,0.2556 -0.45435,0.2271 -1.16427,0.3123 -0.62474,0 -1.16428,0.1704 -0.53955,0.1424 -1.07908,0.057 -0.17039,0 -0.79512,-0.2273 -0.59633,-0.2271 -0.76671,-0.3123 -0.68153,-0.2272 -1.24947,-0.9939 -0.22718,-0.3124 -0.39755,-0.6816 -0.14205,-0.3975 -0.36917,-0.7951 -0.36916,-0.7667 -0.76671,-1.5618 -0.93709,-1.3914 -1.24947,-3.2372 -0.14205,-0.7099 -0.25557,-1.4767 -0.11355,-0.795 -0.19878,-1.5618 0,-0.7667 -0.53953,-0.71 -0.39756,0 -1.36306,0.1704 -0.96549,0.1425 -1.13587,0.3977 0.0852,1.3914 0,2.5557 -0.14205,2.0161 -0.0569,3.01 0.0569,1.7039 2.24334,1.3914 0.62474,0 0.85191,0.71 0,0.3123 -0.53953,0.3123 -0.48275,0.086 -0.82352,0.057 -0.34075,-0.057 -0.8235,-0.057 -1.70382,0 -2.47053,0.086 -0.62474,0.1425 -1.24947,0.426 -0.62474,0.2556 -1.16427,0.426 -2.15816,0.5396 -3.54962,0.5963 -1.24946,0.1704 -1.24946,-0.6815 0,-0.2272 0.39756,-0.2556 0.36915,-0.057 0.53954,-0.1424 0.36916,0 1.16427,-0.3123 0.22717,-0.057 0.76672,-0.4544 0.53954,-0.3975 0.70992,-0.7099 0.22718,-0.4544 0.36915,-0.8804 0.17039,-0.4258 0.39757,-0.8802 0.14204,-0.3124 0.28396,-0.9655 0.17039,-0.6815 0.25557,-1.1358 0,-0.4829 0.14205,-1.0792 0.17038,-0.6247 0.25557,-1.1074 0,-0.4544 0.0283,-1.1928 0.0284,-0.7383 0.0284,-1.1927 -0.0569,-0.937 -0.0569,-2.6409 z" />
        <path
           id="path907"
           style="font-style:normal;font-variant:normal;font-weight:normal;font-stretch:normal;font-family:'Alice in wonderland';-inkscape-font-specification:'Alice in wonderland'"
           d="m -870.48047,-1326.1144 q -0.80078,0.2148 -1.64062,0.1562 -0.82032,-0.059 -1.5625,-0.059 -0.21485,0 -0.3711,-0.039 -0.15625,-0.059 -0.3125,-0.059 -0.17578,0 -0.44922,0.1367 -0.2539,0.1367 -0.3125,0.1367 -0.15625,0.098 -0.3125,0.7422 -0.37109,1.0156 -0.37109,1.6992 0,1.1719 0.64453,1.1719 0.0977,0 0.78125,-0.3711 0.70313,-0.3711 1.13281,-0.3711 1.07422,0 1.81641,0.586 0.21484,0.1562 0.60547,0.5078 0.41016,0.3515 0.41016,0.664 0,0.4883 -0.17579,0.8399 -0.15625,0.332 -0.2539,0.664 -0.27344,0.8399 -0.74219,0.8399 -0.48828,0 -0.39062,-0.2539 0.17578,-0.2149 0.42968,-0.2149 0.27344,0 0.27344,-0.4882 0,-0.8594 -1.17187,-0.8594 -0.33204,0 -0.74219,0.1172 -0.54688,0 -1.60156,0.098 -0.27344,0 -0.46875,0.039 -0.17579,0.02 -0.33204,0.02 -0.15625,0.2149 -0.35156,0.5664 -0.19531,0.3321 -0.19531,0.6055 0,0.3711 0.0977,0.8398 0.11718,0.4493 0.11718,0.6641 -0.0391,0.4102 -0.0391,1.3281 0,0.2735 0.33203,0.3321 0.35156,0.039 0.50781,0.039 0.58594,0 1.19141,-0.1367 0.625,-0.1367 1.05469,-0.1367 0.48828,-0.039 1.03515,0.1758 0.56641,0.1953 1.05469,0.1953 0.89844,0 1.79688,-0.8985 0.21484,-0.2148 0.13672,-1.1132 -0.0781,-0.918 0.35156,-0.918 0.21484,0 0.3125,0.5078 0.11719,0.5078 0.11719,0.6641 0,0.957 -0.25391,1.4453 -0.23438,0.4883 -0.66406,0.957 -0.41016,0.3711 -0.76172,0.957 -0.35156,0.586 -0.9961,0.586 -0.46875,0 -0.9375,-0.078 -0.44921,-0.078 -0.91796,-0.078 -0.54688,0 -1.03516,0 -0.46875,0 -0.9375,0 -0.27344,0 -0.52734,0 -0.23438,0 -0.48829,0 -1.28906,0 -2.46093,-0.3125 -0.15625,-0.059 -0.56641,-0.1562 -0.39062,-0.1172 -0.54687,-0.1758 -0.21485,0 -0.46875,0.039 -0.23438,0.019 -0.44922,0.019 -0.3125,0 -0.3125,-0.2149 0,-0.4296 0.74218,-0.4492 0.74219,-0.019 0.91797,-0.3515 0.3125,-0.8399 0.3125,-2.1875 0,-0.4297 -0.15625,-0.8985 -0.21484,-0.7422 -0.21484,-1.0742 0,-0.3125 0.15625,-0.7422 0.15625,-0.4297 0.21484,-0.8594 0,-0.3711 0.0781,-0.8789 0.0781,-0.5078 0.0781,-0.9179 0,-1.3477 -0.0976,-1.9336 -0.11719,-0.6446 -0.15625,-1.1133 -0.0586,-0.4883 -0.70313,-0.6445 -0.3125,-0.098 -0.66406,-0.078 -0.35156,0.02 -0.29297,-0.2929 0,-0.059 0.33203,-0.2149 0.35156,-0.1562 0.56641,-0.1562 0.33203,0 0.5664,0.1367 0.23438,0.1367 0.66407,0.1367 0.15625,0 0.3125,0 0.17578,0 0.33203,0 0.52734,0 1.17187,-0.1367 0.64453,-0.1367 1.11328,-0.293 0.80079,-0.1172 1.13282,-0.2148 0.37109,-0.1172 1.17187,-0.2149 0.52735,0 1.21094,-0.098 0.70312,-0.1172 0.97656,-0.4297 0.15625,-0.2734 0.54688,-0.7813 0.41015,-0.5078 0.83984,-0.5078 0.25391,0 0.25391,0.1563 0,0.059 -0.13672,0.4883 -0.11719,0.4296 -0.11719,0.4687 -0.37109,0.7617 -0.42969,0.918 -0.11718,0.2148 -0.19531,0.5078 -0.0781,0.293 -0.13672,0.4492 -0.19531,0.5859 -0.46875,0.8008 z"
           inkscape:connector-curvature="0" />
        <path
           id="path909"
           style="font-style:normal;font-variant:normal;font-weight:normal;font-stretch:normal;font-family:'Alice in wonderland';-inkscape-font-specification:'Alice in wonderland'"
           d="m -846.80859,-1323.388 -0.58594,2.5 q -0.15625,0.6055 0,1.836 0.15625,1.2109 0.21484,1.6992 0.15625,1.0547 0.42969,1.5429 0.21484,0.4297 0.46875,0.586 0.15625,0.098 0.42969,0.1562 0.27344,0.059 0.27344,0.2735 -0.11719,0.5273 -0.91797,0.3711 l -0.25391,-0.059 q -0.85937,-0.059 -1.38672,-0.8008 -0.33203,-0.2539 -0.44922,-0.6445 -0.0976,-0.4102 -0.3125,-0.625 -0.95703,1.4257 -1.83593,2.9296 -0.87891,1.4844 -3.125,1.1719 l -0.15625,-0.059 q -0.6836,-0.059 -1.40625,-0.4687 -0.72266,-0.4297 -1.03516,-0.8008 -0.85938,-0.7617 -0.70313,-2.6172 0.11719,-1.0742 0.27344,-1.543 0.15625,-0.4882 0.80078,-1.1328 0.74219,-0.8008 2.1875,-1.2695 0.74219,-0.2149 1.19141,-0.4492 0.44922,-0.2539 1.15234,-0.5664 0.52735,-0.2735 1.03516,-0.6446 0.50781,-0.3711 0.78125,-1.1132 0.42969,-1.0157 0.25391,-1.3282 -0.3125,-0.332 -1.05469,-0.8008 -0.58594,-0.2734 -1.26953,-0.625 -0.66407,-0.3515 -1.40625,-0.4492 l -0.0977,-0.059 q -1.01562,-0.098 -1.71875,0.8008 -0.68359,1.0156 -0.29297,1.1719 0.41016,0.1562 0.35156,0.6445 -0.0586,0.2735 -0.52734,0.4883 -0.37109,-0.2148 -0.70312,-0.4297 -0.3125,-0.2148 -0.21485,-0.8594 0.0586,-0.5859 0.64453,-1.2304 0.58594,-0.6446 1.01563,-0.8985 0.64453,-0.332 1.03515,-0.7031 0.41016,-0.3711 1.52344,-0.2148 h 0.21485 q 0.74218,0.1757 1.64062,0.6836 0.91797,0.4882 1.5625,0.8203 0.3125,0.2148 0.91797,0.3515 0.625,0.1172 0.78125,0.3321 0.42969,0.7617 0.27344,1.7578 z m -2.77344,4.4922 q 0.0977,-0.9766 -0.52734,-1.0742 h -0.17579 q -0.89843,-0.1172 -1.30859,1.1719 -0.39062,1.289 -0.70312,1.2304 h -0.0586 q -0.27344,0 -0.33203,-0.3515 -0.0391,-0.3516 -0.19531,-0.3907 H -853 q -1.44531,-0.1757 -1.60156,1.1719 0,0.098 0.0195,0.2149 0.0391,0.098 0.0391,0.1562 0.3125,0.5274 0.39063,0.6445 0.0976,0.098 0.5664,0.4688 0.3711,0.3125 0.52735,0.4883 0.17578,0.098 0.2539,0.2734 0.0781,0.1563 0.23438,0.1953 0.74219,-1.0547 1.48437,-1.8554 0.33203,-0.3321 0.83985,-0.918 0.50781,-0.586 0.60547,-1.1133 z"
           inkscape:connector-curvature="0" />
        <path
           id="path911"
           style="font-style:normal;font-variant:normal;font-weight:normal;font-stretch:normal;font-family:'Alice in wonderland';-inkscape-font-specification:'Alice in wonderland'"
           d="m -843.99609,-1328.1457 q 0.21484,-0.098 0.50781,-0.3711 0.29297,-0.2734 0.625,-0.2734 h 0.0586 q 0.9961,0 2.10938,0.4102 1.13281,0.3906 2.24609,0.3515 l 1.01563,-0.059 q 0.17578,0 0.17578,0.078 0,0.078 -0.17578,0.078 -0.80078,0 -0.83985,0.4883 -0.0586,0.3125 -0.19531,0.8593 -0.13672,0.5274 -0.17578,0.7813 -0.11719,0.4883 -0.17578,0.9375 -0.0391,0.4492 -0.0391,0.9375 0,0.3711 -0.0977,0.9961 -0.0781,0.6055 -0.0781,0.918 -0.0976,0.4882 -0.0781,1.0546 0.0391,0.5469 0.0391,0.918 l -0.48828,4.4922 q -0.0586,0.4687 0.46875,0.7422 0.54688,0.2539 0.85938,0.4297 0.27343,0.1562 0.85937,0.3125 0.58594,0.1562 1.01563,0.1562 h 0.37109 q 0.58594,0 0.85937,-0.1562 0.25391,-0.1563 0.27344,-0.3907 0.0391,-0.2539 0.52735,-0.1953 0.15625,0.059 -0.19532,0.5664 -0.35156,0.5079 -0.35156,0.5079 -0.25391,0.2148 -0.60547,0.2343 -0.35156,0.02 -0.66406,0.078 -0.64453,0.098 -1.28906,0.4296 -0.3125,0.1563 -1.32813,0.1563 -0.21484,-0.1563 -1.15234,-0.2539 -0.91797,-0.1172 -1.34766,-0.2735 -0.27344,-0.058 -0.70312,-0.1367 -0.42969,-0.078 -0.58594,-0.1367 -0.52734,-0.2148 -1.26953,-0.2148 -0.11719,0 -0.11719,-0.078 0,-0.078 0.15625,-0.1367 0.17578,-0.059 0.35156,-0.059 0.19532,0 0.41016,-0.1562 0.0391,-0.039 0.17578,-0.1758 0.13672,-0.1367 0.29297,-0.293 0.37109,-0.3711 0.37109,-1.289 0,-0.1563 0.0586,-0.1563 0,0 0.0391,-0.039 0.0586,-0.059 0.11719,-0.1172 0.11718,-0.2149 0.0781,-0.6055 -0.0195,-0.4102 0.0781,-0.7227 0.0586,-0.3906 0.11718,-0.8007 0.0586,-0.4297 0.15625,-0.8008 0.15625,-0.7031 0.3125,-1.4453 0.17579,-0.7422 0.17579,-1.7578 0,-0.6446 -0.0391,-1.7774 -0.0195,-1.1523 -0.17578,-1.7383 -0.11719,-0.3906 -0.13672,-0.8398 -0.0195,-0.4492 -0.0781,-0.8203 -0.11719,-0.4883 -0.33203,-0.586 -0.41016,-0.2734 -0.625,-0.2734 h -0.17578 q -0.19532,0 -0.52735,0.1172 -0.68359,0.2539 -0.80078,0.2539 -0.15625,0 -0.15625,0 0,-0.1563 0.0977,-0.1563 z"
           inkscape:connector-curvature="0" />
        <path
           inkscape:connector-curvature="0"
           id="path913"
           style="font-style:normal;font-variant:normal;font-weight:normal;font-stretch:normal;font-family:'Alice in wonderland';-inkscape-font-specification:'Alice in wonderland';stroke-width:1.22797966"
           d="m -834.85729,-1326.7591 q 0.26382,-0.1204 0.62358,-0.4557 0.35976,-0.3357 0.76749,-0.3357 h 0.072 q 1.22319,0 2.59027,0.5037 1.39107,0.4796 2.75815,0.4316 l 1.24718,-0.072 q 0.21585,0 0.21585,0.096 0,0.096 -0.21585,0.096 -0.98336,0 -1.03132,0.5996 -0.072,0.3838 -0.23984,1.0552 -0.16789,0.6477 -0.21585,0.9595 -0.14391,0.5996 -0.21586,1.1512 -0.048,0.5516 -0.048,1.1512 0,0.4557 -0.11985,1.2232 -0.0959,0.7436 -0.0959,1.1273 -0.11985,0.5995 -0.0959,1.295 0.048,0.6716 0.048,1.1273 l -0.5996,5.5163 q -0.072,0.5756 0.57562,0.9114 0.67155,0.3118 1.05529,0.5277 0.33578,0.1918 1.0553,0.3838 0.71952,0.1918 1.24716,0.1918 h 0.4557 q 0.71953,0 1.05529,-0.1918 0.3118,-0.192 0.33578,-0.4798 0.048,-0.3118 0.64756,-0.2398 0.19188,0.072 -0.23983,0.6955 -0.43171,0.6237 -0.43171,0.6237 -0.3118,0.2637 -0.74351,0.2877 -0.4317,0.025 -0.81545,0.096 -0.79147,0.1203 -1.58294,0.5275 -0.38374,0.1919 -1.63091,0.1919 -0.26382,-0.1919 -1.41505,-0.3117 -1.12725,-0.144 -1.6549,-0.3359 -0.33578,-0.071 -0.86342,-0.1679 -0.52765,-0.096 -0.71952,-0.1678 -0.64758,-0.2638 -1.55896,-0.2638 -0.14391,0 -0.14391,-0.096 0,-0.096 0.19188,-0.1678 0.21585,-0.073 0.4317,-0.073 0.23984,0 0.50367,-0.1918 0.048,-0.048 0.21586,-0.2159 0.16789,-0.1678 0.35976,-0.3598 0.45569,-0.4557 0.45569,-1.5828 0,-0.192 0.072,-0.192 0,0 0.048,-0.048 0.072,-0.072 0.14391,-0.1439 0.14389,-0.2639 0.0959,-0.7435 -0.0239,-0.5037 0.0959,-0.8875 0.072,-0.4796 0.14389,-0.9832 0.072,-0.5277 0.19188,-0.9834 0.19187,-0.8634 0.38374,-1.7748 0.21585,-0.9114 0.21585,-2.1585 0,-0.7916 -0.048,-2.1826 -0.024,-1.415 -0.21585,-2.1346 -0.14391,-0.4797 -0.16789,-1.0313 -0.024,-0.5516 -0.0959,-1.0073 -0.14391,-0.5996 -0.40772,-0.7196 -0.50367,-0.3357 -0.76749,-0.3357 h -0.21587 q -0.23984,0 -0.64756,0.1439 -0.83944,0.3118 -0.98334,0.3118 -0.19187,0 -0.19187,0 0,-0.192 0.11997,-0.192 z" />
        <path
           inkscape:connector-curvature="0"
           id="path915"
           style="font-style:normal;font-variant:normal;font-weight:normal;font-stretch:normal;font-family:'Alice in wonderland';-inkscape-font-specification:'Alice in wonderland'"
           d="m -803.34733,-1329.0113 -0.0391,0.5859 q 0,0.2735 0.0781,0.9961 0.0781,0.7032 0.17578,0.8789 0.0586,0.3711 0,0.8008 -0.0391,0.4102 0.11719,0.7422 0.0586,0.3125 0.15625,0.6445 0.0976,0.3125 0.15625,0.625 0.0586,0.7032 0.23437,1.3672 0.19532,0.6641 0.35157,1.3086 0.11718,0.4883 0.13671,0.9766 0.0195,0.4687 0.13672,0.9375 0.0586,1.0742 0.3125,1.875 0.11719,0.8008 0.58594,1.543 0.11719,0.371 0.42969,0.6445 0.11719,0.098 0.37109,0.2734 0.27344,0.1563 0.27344,0.1953 0,0.3321 -0.41016,0.4102 -0.39062,0.078 -0.60547,0.078 -0.3125,0 -0.72265,-0.02 -0.39063,-0.039 -0.60547,-0.039 -0.37109,0 -0.58594,0.059 -0.21484,0.059 -0.54687,0.2149 -0.625,0.2148 -0.9961,0.3711 -0.11718,0.058 -0.625,0.1757 -0.50781,0.098 -0.50781,-0.078 0,-0.039 0.23438,-0.1953 0.2539,-0.1758 0.35156,-0.2148 0.21484,-0.1758 0.54687,-0.4883 0.0977,-0.1563 0.13672,-0.3711 0.0586,-0.2149 0.17578,-0.3711 0.3711,-0.5469 0.3711,-0.7031 v -0.2149 q 0,-0.3711 -0.11719,-0.7422 -0.0977,-0.3711 -0.15625,-0.7422 -0.0391,-0.1562 -0.0977,-0.3711 -0.0586,-0.2148 -0.0586,-0.4296 -0.0586,-0.1563 -0.13672,-0.3321 -0.0781,-0.1953 -0.0781,-0.3711 -0.0391,-0.3125 -0.39063,-1.4453 -0.35156,-1.1523 -0.50781,-1.3281 -0.0586,0.1758 -0.13672,0.3711 -0.0781,0.1758 -0.0781,0.2734 -0.52734,1.1719 -0.85937,1.7578 -0.25391,0.586 -0.58594,1.1719 -0.21484,0.4297 -0.46875,1.2305 -0.17578,0.4883 -0.3125,1.0547 -0.11719,0.5468 -0.27344,0.9179 -0.0586,0.1563 -0.19531,0.293 -0.13672,0.1367 -0.19531,0.2539 -0.15625,0.3125 -0.74219,1.0352 -0.58594,0.7226 -0.95703,0.7226 -0.15625,0 -0.15625,-0.2148 0,-0.4883 0.33203,-0.7031 0.35156,-0.2149 0.35156,-0.8399 v -0.2148 q 0,-0.6446 -0.48828,-2.0313 -0.46875,-1.3867 -0.68359,-1.914 -0.0977,-0.2149 -0.17578,-0.4493 -0.0781,-0.2539 -0.13672,-0.5273 -0.27344,-0.3711 -0.42969,-0.8789 -0.15625,-0.5078 -0.3125,-0.9766 -0.11719,-0.2148 -0.2539,-0.4492 -0.11719,-0.2539 -0.11719,-0.4687 -0.11719,0 -0.15625,0.5468 -0.0195,0.5274 -0.0195,0.586 -0.0977,0.3125 -0.21485,1.0547 -0.0976,0.5859 -0.21484,1.0742 -0.0977,0.4883 -0.19531,0.957 -0.17578,0.5274 -0.0586,1.0742 0,0.4688 0.0977,0.4688 0.11719,0 0.42969,0.2148 0.11718,0.1172 0.33203,0.3906 0.21484,0.254 0.3125,0.254 0.58594,0.2148 0.58594,0.5859 0,0.2148 -0.3711,0.2148 -0.15625,0 -0.35156,-0.078 -0.17578,-0.078 -0.29297,-0.1367 -0.58594,-0.098 -1.17187,-0.098 -0.58594,0 -1.11329,-0.1172 -0.33203,0 -0.78125,0.1172 -0.44921,0.098 -0.60546,0.1563 -0.33204,0.098 -0.85938,0.293 -0.52734,0.1757 -0.58594,0.019 0.15625,-0.3125 0.6836,-0.4688 0.27343,-0.1172 0.41015,-0.1562 0.13672,-0.059 0.39063,-0.2344 0.48828,-0.3711 0.85937,-1.543 0.15625,-0.4687 0.21485,-0.9765 0.0586,-0.5078 0.21484,-1.0352 0.21484,-0.9179 0.3125,-2.0898 0.17578,-1.1133 0.33203,-2.0703 0.0977,-0.4883 0.23438,-0.9571 0.13672,-0.4882 0.23437,-1.0351 0,-0.2539 -0.0195,-0.5078 -0.0195,-0.2735 0.0781,-0.6055 0,-0.2734 0.0586,-0.5078 0.0586,-0.2344 0.0977,-0.5469 0,-0.2148 0.13671,-1.0351 0.13672,-0.8399 0.44922,-0.8399 0.15625,0 0.54688,1.1328 0.41015,1.1133 0.52734,1.4258 0.0977,0.3125 0.23438,0.6445 0.13672,0.3125 0.29297,0.6446 0.27343,0.5273 0.70312,1.1718 0.42969,0.625 0.58594,1.1719 0.0391,0.4297 0.13672,0.7422 0.11718,0.3125 0.29297,0.6445 0.41015,1.0547 0.74218,1.9727 0,0.1562 0.0195,0.1562 0.0391,0 0.0781,0.098 0.37109,-0.4688 0.66406,-1.2891 0.29297,-0.8398 0.46875,-1.1523 0.15625,-0.7031 0.27344,-1.3281 0.13672,-0.6446 0.56641,-1.3477 0.33203,-0.5859 0.64453,-1.2109 0.3125,-0.6446 0.64453,-1.2305 0.15625,-0.2734 0.3125,-0.5664 0.15625,-0.293 0.37109,-0.5664 0.0586,-0.098 0.44922,-0.4883 0.41016,-0.4101 0.52734,-0.4101 0.0977,0 0.19532,0.1562 z" />
        <path
           inkscape:connector-curvature="0"
           id="path917"
           style="font-style:normal;font-variant:normal;font-weight:normal;font-stretch:normal;font-family:'Alice in wonderland';-inkscape-font-specification:'Alice in wonderland';stroke-width:1.19277239"
           d="m -783.79823,-1325.4344 -0.69888,2.9819 q -0.18637,0.7222 0,2.1899 0.18637,1.4444 0.25626,2.0268 0.18637,1.258 0.51252,1.8403 0.25626,0.5126 0.55911,0.699 0.18637,0.1169 0.51251,0.1863 0.32615,0.07 0.32615,0.3262 -0.13978,0.629 -1.09493,0.4426 l -0.30284,-0.07 q -1.02504,-0.07 -1.65404,-0.9551 -0.39604,-0.3029 -0.53581,-0.7689 -0.11654,-0.4892 -0.37275,-0.7454 -1.14152,1.7005 -2.18985,3.4943 -1.04833,1.7706 -3.72742,1.3979 l -0.18637,-0.071 q -0.81537,-0.07 -1.67734,-0.5589 -0.86195,-0.5126 -1.2347,-0.9553 -1.02504,-0.9085 -0.83867,-3.1217 0.13978,-1.2813 0.32615,-1.8404 0.18637,-0.5823 0.95515,-1.3512 0.88526,-0.9552 2.60919,-1.5142 0.88526,-0.2563 1.42108,-0.5358 0.5358,-0.3029 1.37448,-0.6756 0.62899,-0.3262 1.23471,-0.7688 0.6057,-0.4427 0.93185,-1.3278 0.51251,-1.2115 0.30285,-1.5843 -0.37274,-0.396 -1.25801,-0.9552 -0.69888,-0.3261 -1.51425,-0.7455 -0.79208,-0.4192 -1.67734,-0.5357 l -0.11642,-0.07 q -1.21141,-0.1169 -2.05008,0.9552 -0.81537,1.2113 -0.34945,1.3978 0.48922,0.1863 0.41934,0.7687 -0.0699,0.3262 -0.629,0.5825 -0.44264,-0.2563 -0.83867,-0.5126 -0.37274,-0.2562 -0.25626,-1.0251 0.0699,-0.6988 0.76878,-1.4676 0.69889,-0.7688 1.2114,-1.0717 0.76879,-0.396 1.23471,-0.8386 0.48923,-0.4426 1.81712,-0.2562 h 0.25626 q 0.88526,0.2096 1.9569,0.8154 1.09492,0.5823 1.8637,0.9784 0.37274,0.2562 1.09493,0.4193 0.74548,0.1398 0.93185,0.3961 0.51252,0.9086 0.32614,2.0966 z m -3.30807,5.3581 q 0.11653,-1.1649 -0.62901,-1.2812 h -0.20966 q -1.07164,-0.1398 -1.56085,1.3978 -0.46594,1.5375 -0.83867,1.4675 h -0.0699 q -0.32615,0 -0.39604,-0.4192 -0.0466,-0.4194 -0.23297,-0.4661 h -0.13977 q -1.72394,-0.2095 -1.91031,1.3979 0,0.1169 0.0233,0.2563 0.0466,0.1169 0.0466,0.1864 0.37274,0.629 0.46592,0.7687 0.11653,0.1169 0.6756,0.5591 0.44263,0.3728 0.629,0.5825 0.20966,0.1169 0.30285,0.3261 0.0931,0.1864 0.27955,0.2329 0.88527,-1.258 1.77053,-2.2131 0.39604,-0.3961 1.00174,-1.0949 0.60571,-0.699 0.72218,-1.3279 z" />
        <path
           inkscape:connector-curvature="0"
           id="path919"
           style="font-style:normal;font-variant:normal;font-weight:normal;font-stretch:normal;font-family:'Alice in wonderland';-inkscape-font-specification:'Alice in wonderland';stroke-width:1.36509442"
           d="m -777.18743,-1330.6471 q -0.0534,1.0931 0,2.1863 0.08,1.0932 0.08,2.1863 0,0.7199 0.0266,1.4931 0.0534,0.7731 0.0534,1.4131 0,1.5464 -0.08,2.9594 -0.08,1.4131 0,3.0929 0,0.4266 0.10661,0.9598 0.10662,0.5066 0.18664,0.9332 0.87984,0.1599 1.38641,0.1599 1.09314,0 1.73303,0.027 0.66655,0.026 1.62639,-1.1197 0.29328,-0.4534 0.71987,-0.88 0.42659,-0.4532 0.71988,-0.9598 0.66655,-1.0931 0.95983,-2.3195 0.21329,-0.5866 0.45325,-1.2798 0.26663,-0.6932 0.26663,-1.3332 0,-0.6664 -0.18664,-1.5996 -0.18663,-0.9599 -0.31995,-1.4665 -0.21329,-0.4266 -0.71987,-1.013 -0.50658,-0.5866 -0.79986,-1.04 -0.66655,-0.8532 -1.97298,-1.7596 -1.30644,-0.9332 -2.39958,-0.9332 -1.38643,0 -1.83968,0.2933 z m 1.89301,-2.3196 q 1.38641,0.1338 3.14612,0.8798 0.93316,0.4266 1.38641,0.72 1.43975,1.0131 2.15962,1.8663 0.74655,0.8264 1.70637,2.3462 0.34661,0.6666 0.53325,1.5198 0.18663,0.8265 0.47991,1.5463 0.2133,0.5866 0.66655,1.4664 0.47991,0.8532 0.47991,1.3866 0,0.5598 -1.01314,1.8396 -1.01316,1.2797 -1.43976,1.9463 -0.37327,0.4266 -0.74654,0.9066 -0.3466,0.4532 -0.63989,0.9064 -0.66654,0.8799 -1.27977,1.1998 -0.61323,0.32 -1.49307,0.7732 -0.58656,0.2133 -1.25312,0.2933 -0.63989,0.053 -1.06648,0.5066 -0.23996,0.2132 -0.39992,0.4266 -0.13337,0.2132 -0.34661,0.4266 -0.58657,0.5332 -1.19979,0.3998 -0.61323,-0.1598 -1.19979,-0.3998 -0.71988,-0.1338 -1.30643,-0.24 -0.58657,-0.1065 -1.46641,-0.1065 -0.93318,0 -1.973,0 -1.01315,0 -1.81301,0.5066 -0.2133,0.2132 -0.53325,0.6665 -0.31993,0.4265 -0.55989,0.4265 -0.13337,0 -0.13337,-0.2932 0,-0.081 0.18664,-0.3999 0.18663,-0.3199 0.18663,-0.4799 0.29328,-0.4266 0.55991,-0.5866 0.37326,-0.2133 0.85318,-0.2666 0.47991,-0.08 0.98649,-0.3199 0.21329,-0.053 0.74654,-0.3733 0.55989,-0.3467 0.63989,-0.5599 0.21329,-0.5866 0.26661,-1.2798 0.08,-0.6932 0.08,-1.3331 0,-1.0931 -0.0266,-2.1596 -0.0266,-1.0664 -0.0266,-2.133 0,-1.3331 -0.53323,-2.7195 -0.29329,-0.7198 -0.29329,-1.3598 l 0.15997,-1.5997 q 0,-0.4533 -0.10661,-0.8799 -0.10662,-0.4532 -0.10662,-0.9598 -0.08,-0.2133 -0.53324,-1.0397 -0.42659,-0.8532 -0.63989,-0.9066 -0.2133,0 -0.69321,-0.081 -0.47991,-0.081 -0.61323,-0.16 -0.87984,-0.2933 -1.59971,-1.5198 -0.29329,-0.5064 -0.50659,-1.093 0,-0.1338 -0.0266,-0.7466 -0.0534,-0.6399 0.15998,-0.6399 0.2133,0 0.50657,0.6399 0.29329,0.6132 0.37327,0.8266 0.13337,0.2132 0.2133,0.3998 0.08,0.1866 0.15998,0.4 0.42659,0.8798 1.30643,0.7198 0.63989,-0.1338 1.25312,-0.1338 0.63989,0 1.35975,-0.2933 1.30644,-0.4533 2.47958,-0.6932 1.17312,-0.2666 2.53289,-0.1866 z" />
        <path
           id="path921"
           style="font-style:normal;font-variant:normal;font-weight:normal;font-stretch:normal;font-family:'Alice in wonderland';-inkscape-font-specification:'Alice in wonderland'"
           d="m -750.53906,-1329.63 q 0.42969,0 0.72265,0.1172 0.29297,0.098 0.76172,-0.1758 0.58594,-0.2735 1.25,-0.5274 0.6836,-0.2734 1.42578,-0.3711 0.3711,0 0.74219,-0.078 0.3711,-0.098 0.80078,-0.098 0.27344,0 0.58594,0.1757 0.3125,0.1563 0.64453,0.1563 0,0.039 0.0195,0.078 0.0391,0.019 0.0391,0.019 0,0.4297 -0.48829,0.4297 -0.21484,0 -0.42968,-0.078 -0.21485,-0.078 -0.42969,-0.078 -0.68359,0 -1.01563,0.5273 -0.15625,0.2149 -0.15625,0.3321 0,0.098 -0.0391,0.2539 -0.17578,0.332 -0.27344,0.4882 -0.70312,1.1719 -0.70312,2.4414 0,0.4883 -0.0586,0.7813 -0.0391,0.293 -0.0391,0.6641 -0.0586,0.3125 -0.11718,0.664 -0.0391,0.3516 -0.0391,0.6641 -0.15625,0.7617 -0.19531,1.5625 -0.0195,0.7812 -0.0195,1.4844 0,0.4296 0,1.0937 0,0.6641 0.0586,0.9766 0.0977,0.5468 0.0977,1.0156 0,0.2734 0.0977,0.4883 0.11718,0.2148 0.11718,0.4297 -0.0586,0.3125 -0.0976,0.5859 -0.0195,0.2539 -0.0195,0.5273 0,0.7422 0.42968,1.3282 0.33203,0.5859 1.01563,0.5859 0.15625,0 0.44922,-0.039 0.29297,-0.058 0.46875,0.098 0.15625,0.2148 -0.17578,0.4297 -0.3125,0.2148 -0.46875,0.2148 -0.42969,0 -0.78125,-0.1562 -0.35157,-0.1563 -0.72266,-0.332 -0.21484,0 -0.41016,0 -0.17578,0 -0.33203,-0.098 -0.46875,-0.1172 -0.89844,-0.4492 -0.42968,-0.3516 -0.91796,-0.3516 -0.21485,0 -0.80079,-0.02 -0.58593,-0.039 -0.58593,-0.3516 0,-0.1562 0.35156,-0.4687 0.35156,-0.3321 0.50781,-0.4883 0.48828,-0.6445 0.48828,-1.8164 -0.0586,-0.4883 -0.0976,-0.957 -0.0195,-0.4883 -0.0195,-1.0157 0,-0.4297 0,-1.0156 0,-0.5859 0.21484,-1.0156 -0.74219,0 -1.21094,-0.3321 -0.44922,-0.3515 -1.07422,-0.4687 -1.38672,-0.2148 -2.08984,0.1562 0,0.3321 0.0195,0.5274 0.0391,0.1758 0.0391,0.4883 0,0.5273 -0.13672,1.0156 -0.13671,0.4883 -0.13671,1.0156 0,0.8008 0.0977,1.4453 0.11719,0.625 0.17578,1.1133 0,0.2735 -0.29297,0.7227 -0.29296,0.4492 -0.29296,0.5664 0,0.1562 0.3125,0.1562 0.33203,0 0.48828,0 0.83984,-0.1172 1.26953,-0.1172 0.42969,0 0.42969,0.4883 0,0.3125 -0.3125,0.4688 -0.48829,0 -1.01563,0.1367 -0.52734,0.1367 -0.91797,-0.02 -0.37109,-0.1172 -0.48828,0 -0.0977,0.098 -0.35156,0.1562 -0.54688,0.1563 -1.11328,0.1172 -0.54688,-0.059 -1.01563,0.1562 -0.33203,0.1563 -0.5664,0.293 -0.23438,0.1367 -0.44922,0.2344 -0.76172,0.3711 -1.13282,0.3711 -0.52734,0 -0.52734,-0.2149 0,-0.1562 0.52734,-0.3711 0.54688,-0.2148 0.95704,-0.7421 0.17578,-0.1563 0.48828,-0.3711 0.3125,-0.2149 0.37109,-0.5469 0.11719,-0.4688 0.35156,-0.8594 0.23438,-0.4101 0.39063,-0.9961 0.0586,-0.5859 0.11719,-1.1719 0.0586,-0.5859 0.15625,-1.2304 0.0586,-0.6446 0.0586,-1.2696 0,-0.6445 0,-1.289 0,-0.4297 0.0391,-0.8594 0.0586,-0.4297 0.0586,-0.8984 0,-0.1172 -0.15625,-0.7422 -0.0977,-0.2149 -0.19532,-0.3711 -0.0781,-0.1758 -0.0781,-0.4883 0,-0.2148 0.0976,-0.4687 0.11719,-0.2735 0.17579,-0.5469 0.0586,-0.5274 0.0586,-1.543 0,-1.1719 -0.48828,-1.5039 -0.21485,-0.1562 -0.64453,-0.3711 -0.52735,-0.3125 -0.52735,-0.4297 0,-0.4101 0.52735,-0.3125 0.17578,0.098 0.48828,0.2149 0.3125,0.098 0.52734,0.098 0.42969,0 0.78125,-0.039 0.35156,-0.059 0.82031,-0.1172 0.64454,0 1.25,-0.098 0.625,-0.1172 1.3086,-0.1172 0.11719,0.1172 0.11719,0.2735 0,0.2734 -0.42969,0.2734 -0.58594,0.098 -0.85938,0.3711 -0.58593,0.6836 -0.58593,1.3281 0,0.3711 0.0977,0.7227 0.11719,0.3515 0.11719,0.664 l -0.21484,1.9141 0.0586,0.7422 q 0.58594,0.3906 1.38672,0.3906 0.80078,0.1563 1.5625,-0.019 0.78125,-0.1953 1.36719,-0.039 0.3125,-0.4883 0.3125,-0.4883 0.0586,-0.3125 0.0781,-0.625 0.0391,-0.332 0.0977,-0.6445 0.0976,-0.7422 0.0976,-1.0156 0,-0.3711 -0.19531,-0.7227 -0.17578,-0.3515 -0.17578,-0.7812 0,-0.039 0,-0.1953 0,-0.1758 0,-0.3321 -0.0977,-0.5273 -0.60547,-0.664 -0.50781,-0.1367 -0.50781,-0.6055 0,-0.2148 0.15625,-0.2148 z"
           inkscape:connector-curvature="0" />
        <path
           inkscape:connector-curvature="0"
           id="path923"
           style="font-style:normal;font-variant:normal;font-weight:normal;font-stretch:normal;font-family:'Alice in wonderland';-inkscape-font-specification:'Alice in wonderland';stroke-width:1.31769371"
           d="m -732.67821,-1331.951 q -1.05519,0.283 -2.16185,0.2058 -1.08092,-0.078 -2.0589,-0.078 -0.28309,0 -0.48898,-0.051 -0.20589,-0.078 -0.41178,-0.078 -0.23163,0 -0.59194,0.1802 -0.33457,0.1801 -0.41177,0.1801 -0.20589,0.1291 -0.41178,0.978 -0.48899,1.3382 -0.48899,2.239 0,1.5442 0.8493,1.5442 0.1286,0 1.02944,-0.489 0.9265,-0.489 1.4927,-0.489 1.41549,0 2.39347,0.7722 0.2831,0.2058 0.79781,0.6691 0.54047,0.4632 0.54047,0.875 0,0.6434 -0.23163,1.1067 -0.20588,0.4375 -0.33457,0.8749 -0.3603,1.1068 -0.97797,1.1068 -0.64341,0 -0.51473,-0.3346 0.23163,-0.2832 0.5662,-0.2832 0.36031,0 0.36031,-0.6433 0,-1.1324 -1.54418,-1.1324 -0.43751,0 -0.97798,0.1545 -0.7206,0 -2.11036,0.1291 -0.36031,0 -0.61767,0.051 -0.23162,0.026 -0.43751,0.026 -0.20589,0.2832 -0.46325,0.7464 -0.25737,0.4376 -0.25737,0.7978 0,0.489 0.12873,1.1066 0.15443,0.5921 0.15443,0.8751 -0.0515,0.5405 -0.0515,1.75 0,0.3604 0.43752,0.4377 0.46325,0.051 0.66914,0.051 0.77208,0 1.56991,-0.1801 0.82356,-0.1801 1.38974,-0.1801 0.64341,-0.051 1.36403,0.2316 0.74635,0.2574 1.38976,0.2574 1.18385,0 2.36772,-1.184 0.28311,-0.283 0.18016,-1.4668 -0.10292,-1.2097 0.46324,-1.2097 0.28311,0 0.41178,0.6692 0.15442,0.6691 0.15442,0.875 0,1.2611 -0.33457,1.9045 -0.30883,0.6434 -0.87503,1.261 -0.54045,0.489 -1.00371,1.2611 -0.46325,0.7721 -1.31254,0.7721 -0.61767,0 -1.23534,-0.1027 -0.59194,-0.1028 -1.20961,-0.1028 -0.7206,0 -1.36402,0 -0.61767,0 -1.23534,0 -0.36029,0 -0.69487,0 -0.30883,0 -0.6434,0 -1.69859,0 -3.24277,-0.4118 -0.20589,-0.078 -0.74634,-0.2058 -0.51473,-0.1545 -0.72062,-0.2317 -0.28309,0 -0.61767,0.051 -0.30883,0.025 -0.59193,0.025 -0.41178,0 -0.41178,-0.2831 0,-0.5661 0.97798,-0.5919 0.97797,-0.025 1.2096,-0.4632 0.41178,-1.1067 0.41178,-2.8825 0,-0.5662 -0.20589,-1.1839 -0.28311,-0.978 -0.28311,-1.4155 0,-0.4117 0.20589,-0.978 0.20589,-0.5662 0.28311,-1.1324 0,-0.489 0.10291,-1.1581 0.10291,-0.6691 0.10291,-1.2095 0,-1.7759 -0.12874,-2.5479 -0.15442,-0.8494 -0.20589,-1.467 -0.0772,-0.6434 -0.92649,-0.8493 -0.41178,-0.1291 -0.87504,-0.1027 -0.46325,0.026 -0.38604,-0.386 0,-0.078 0.43752,-0.2832 0.46325,-0.2058 0.74634,-0.2058 0.43751,0 0.74635,0.1801 0.30883,0.1802 0.87503,0.1802 0.20589,0 0.41178,0 0.23163,0 0.43752,0 0.69488,0 1.54417,-0.1802 0.8493,-0.1801 1.46697,-0.386 1.05518,-0.1545 1.49269,-0.2831 0.489,-0.1544 1.54418,-0.2832 0.69487,0 1.59564,-0.1291 0.92651,-0.1544 1.28682,-0.5662 0.20589,-0.3603 0.7206,-1.0295 0.54047,-0.6691 1.10667,-0.6691 0.33456,0 0.33456,0.2059 0,0.078 -0.18015,0.6434 -0.15441,0.5661 -0.15441,0.6177 -0.489,1.0036 -0.5662,1.2096 -0.15442,0.283 -0.25736,0.6691 -0.10291,0.3861 -0.18015,0.5919 -0.25738,0.7721 -0.61767,1.0552 z" />
        <path
           id="path925"
           style="font-style:normal;font-variant:normal;font-weight:normal;font-stretch:normal;font-family:'Alice in wonderland';-inkscape-font-specification:'Alice in wonderland';stroke-width:0.77303934"
           d="m -723.88738,-1325.987 -0.73982,0.076 q -0.13589,0.3774 -0.19628,0.4831 -0.0604,0.1057 -0.18118,0.302 -0.0906,0.1208 -0.21138,0.4379 -0.12079,0.3019 -0.0754,0.4378 l 0.16608,1.1022 q 0,0.2114 0,0.3774 0,0.1662 0,0.3322 0,0.2416 -0.0453,0.3473 -0.0453,0.1057 0,0.302 0.24157,0.166 0.45294,0.046 0.21138,-0.1208 0.45296,-0.1661 0.45295,0 0.69453,-0.4228 0.25667,-0.4379 0.37746,-0.8455 0.0453,-0.2566 0.10569,-0.5888 0.0604,-0.3322 0.18118,-0.6191 0,-0.1208 0.27177,-0.5284 0.27177,-0.4077 0.27177,-0.4529 0,-0.091 -0.25667,-0.2869 -0.24157,-0.2114 -0.33217,-0.2567 -0.45295,-0.1208 -0.9361,-0.076 z m -3.21596,3.2159 q 0,-0.4529 -0.0906,-0.921 -0.0755,-0.4831 -0.0755,-0.9814 -0.0453,-0.6492 -0.30197,-0.9813 -0.24157,-0.3322 -0.98139,-0.3322 -0.24158,-0.1208 -0.24158,-0.2869 0,-0.1661 0.45295,-0.1661 0.36236,-0.046 0.77002,-0.151 0.42276,-0.1057 0.83042,-0.1359 0.61903,-0.046 1.23807,-0.076 0.61903,-0.046 1.23807,-0.1359 0.28687,0 0.57374,0.03 0.28687,0.015 0.66433,0.015 0.45295,-0.046 1.19277,0.046 0.61904,0.2416 0.90591,0.3623 0.25667,0.1208 0.45296,0.2114 0.33216,0.076 0.37746,0.3322 0,0.2416 -0.10569,0.3926 -0.10569,0.1359 -0.13589,0.3019 -0.25667,0.9059 -0.30197,1.4042 0,0.3624 -0.0755,0.6945 -0.12078,0.3774 -0.83041,0.9512 -0.69453,0.5737 -1.07199,0.7096 0.0906,0.3624 0.16608,0.6945 0.0906,0.3322 0.21138,0.6644 0.24157,0.7851 0.83041,1.4796 0.24158,0.3774 0.40766,0.6945 0.0755,0.2567 0.34726,0.8607 0.27177,0.5888 0.43786,0.6643 0.24157,0.1661 0.30196,0.2114 0.0604,0.046 0.31707,0.2868 0.19628,0.2869 0.81532,0.2869 0.21137,0 0.34726,-0.1812 0.15099,-0.1812 0.36236,-0.2265 0.19628,0 0.28688,0.3322 0,0.076 -0.40767,0.3322 -0.0906,0.076 -0.21137,0.2265 -0.12079,0.1359 -0.16609,0.1359 -0.24157,0.1207 -0.61903,0.166 -0.33217,0 -0.61904,0.091 -0.28686,0.076 -0.57374,0.03 -0.0906,0 -0.42275,-0.1209 -0.31707,-0.1207 -0.40766,-0.166 -0.36236,-0.1208 -0.66433,-0.5285 -0.12079,-0.1661 -0.21138,-0.3624 -0.0755,-0.2113 -0.19627,-0.4227 -0.19629,-0.4077 -0.40767,-0.8304 -0.49824,-0.7398 -0.66432,-1.7212 -0.0755,-0.3775 -0.13589,-0.7852 -0.0604,-0.4227 -0.10569,-0.8304 0,-0.4076 -0.28687,-0.3775 -0.21137,0 -0.72473,0.091 -0.51334,0.076 -0.60393,0.2115 0.0453,0.7398 0,1.3588 -0.0755,1.072 -0.0302,1.6004 0.0302,0.906 1.19278,0.7398 0.33216,0 0.45295,0.3775 0,0.1661 -0.28687,0.1661 -0.25668,0.046 -0.43785,0.03 -0.18119,-0.03 -0.43786,-0.03 -0.9059,0 -1.31356,0.046 -0.33217,0.076 -0.66433,0.2265 -0.33217,0.1359 -0.61903,0.2265 -1.14749,0.2869 -1.88731,0.317 -0.66434,0.091 -0.66434,-0.3623 0,-0.1208 0.21138,-0.1359 0.19629,-0.03 0.28688,-0.076 0.19627,0 0.61903,-0.166 0.12079,-0.03 0.40766,-0.2416 0.28687,-0.2114 0.37746,-0.3775 0.12079,-0.2416 0.19628,-0.4681 0.0906,-0.2264 0.21138,-0.468 0.0755,-0.1661 0.15098,-0.5133 0.0906,-0.3624 0.13589,-0.6039 0,-0.2568 0.0755,-0.5738 0.0906,-0.3321 0.13589,-0.5888 0,-0.2416 0.0151,-0.6342 0.0151,-0.3925 0.0151,-0.6341 -0.0302,-0.4982 -0.0302,-1.4042 z"
           inkscape:connector-curvature="0" />
        <path
           inkscape:connector-curvature="0"
           id="path927"
           style="font-style:normal;font-variant:normal;font-weight:normal;font-stretch:normal;font-family:'Alice in wonderland';-inkscape-font-specification:'Alice in wonderland'"
           d="m -706.65234,-1322.1991 q -0.80078,0.2148 -1.64063,0.1562 -0.82031,-0.059 -1.5625,-0.059 -0.21484,0 -0.37109,-0.039 -0.15625,-0.059 -0.3125,-0.059 -0.17578,0 -0.44922,0.1367 -0.25391,0.1367 -0.3125,0.1367 -0.15625,0.098 -0.3125,0.7422 -0.37109,1.0156 -0.37109,1.6992 0,1.1719 0.64453,1.1719 0.0976,0 0.78125,-0.3711 0.70312,-0.3711 1.13281,-0.3711 1.07422,0 1.81641,0.586 0.21484,0.1562 0.60546,0.5078 0.41016,0.3515 0.41016,0.664 0,0.4883 -0.17578,0.8399 -0.15625,0.332 -0.25391,0.664 -0.27343,0.8399 -0.74218,0.8399 -0.48829,0 -0.39063,-0.2539 0.17578,-0.2149 0.42969,-0.2149 0.27344,0 0.27344,-0.4882 0,-0.8594 -1.17188,-0.8594 -0.33203,0 -0.74219,0.1172 -0.54687,0 -1.60156,0.098 -0.27344,0 -0.46875,0.039 -0.17578,0.02 -0.33203,0.02 -0.15625,0.2149 -0.35156,0.5664 -0.19532,0.3321 -0.19532,0.6055 0,0.3711 0.0977,0.8398 0.11719,0.4493 0.11719,0.6641 -0.0391,0.4102 -0.0391,1.3281 0,0.2735 0.33203,0.3321 0.35156,0.039 0.50781,0.039 0.58594,0 1.19141,-0.1367 0.625,-0.1367 1.05468,-0.1367 0.48828,-0.039 1.03516,0.1758 0.56641,0.1953 1.05469,0.1953 0.89843,0 1.79687,-0.8985 0.21485,-0.2148 0.13672,-1.1132 -0.0781,-0.918 0.35156,-0.918 0.21485,0 0.3125,0.5078 0.11719,0.5078 0.11719,0.6641 0,0.957 -0.25391,1.4453 -0.23437,0.4883 -0.66406,0.957 -0.41015,0.3711 -0.76172,0.957 -0.35156,0.586 -0.99609,0.586 -0.46875,0 -0.9375,-0.078 -0.44922,-0.078 -0.91797,-0.078 -0.54687,0 -1.03516,0 -0.46875,0 -0.9375,0 -0.27343,0 -0.52734,0 -0.23437,0 -0.48828,0 -1.28906,0 -2.46094,-0.3125 -0.15625,-0.059 -0.5664,-0.1562 -0.39063,-0.1172 -0.54688,-0.1758 -0.21484,0 -0.46875,0.039 -0.23437,0.019 -0.44922,0.019 -0.3125,0 -0.3125,-0.2149 0,-0.4296 0.74219,-0.4492 0.74219,-0.019 0.91797,-0.3515 0.3125,-0.8399 0.3125,-2.1875 0,-0.4297 -0.15625,-0.8985 -0.21485,-0.7422 -0.21485,-1.0742 0,-0.3125 0.15625,-0.7422 0.15625,-0.4297 0.21485,-0.8594 0,-0.3711 0.0781,-0.8789 0.0781,-0.5078 0.0781,-0.9179 0,-1.3477 -0.0977,-1.9336 -0.11719,-0.6446 -0.15625,-1.1133 -0.0586,-0.4883 -0.70312,-0.6445 -0.3125,-0.098 -0.66407,-0.078 -0.35156,0.02 -0.29296,-0.2929 0,-0.059 0.33203,-0.2149 0.35156,-0.1562 0.5664,-0.1562 0.33203,0 0.56641,0.1367 0.23437,0.1367 0.66406,0.1367 0.15625,0 0.3125,0 0.17578,0 0.33203,0 0.52735,0 1.17188,-0.1367 0.64453,-0.1367 1.11328,-0.293 0.80078,-0.1172 1.13281,-0.2148 0.3711,-0.1172 1.17188,-0.2149 0.52734,0 1.21093,-0.098 0.70313,-0.1172 0.97657,-0.4297 0.15625,-0.2734 0.54687,-0.7813 0.41016,-0.5078 0.83985,-0.5078 0.2539,0 0.2539,0.1563 0,0.059 -0.13672,0.4883 -0.11718,0.4296 -0.11718,0.4687 -0.3711,0.7617 -0.42969,0.918 -0.11719,0.2148 -0.19531,0.5078 -0.0781,0.293 -0.13672,0.4492 -0.19532,0.5859 -0.46875,0.8008 z" />
      </g>
    </g>
  </g>
</svg>
