G04 #@! TF.GenerationSoftware,KiCad,Pcbnew,(5.1.10)-1*
G04 #@! TF.CreationDate,2021-07-14T12:47:45+07:00*
G04 #@! TF.ProjectId,averange65,61766572-616e-4676-9536-352e6b696361,rev?*
G04 #@! TF.SameCoordinates,Original*
G04 #@! TF.FileFunction,Legend,Bot*
G04 #@! TF.FilePolarity,Positive*
%FSLAX46Y46*%
G04 Gerber Fmt 4.6, Leading zero omitted, Abs format (unit mm)*
G04 Created by KiCad (PCBNEW (5.1.10)-1) date 2021-07-14 12:47:45*
%MOMM*%
%LPD*%
G01*
G04 APERTURE LIST*
%ADD10C,0.187500*%
%ADD11C,0.150000*%
%ADD12C,0.120000*%
G04 APERTURE END LIST*
D10*
X17766219Y-70903995D02*
X17766219Y-70153995D01*
X17587647Y-70153995D01*
X17480505Y-70189710D01*
X17409076Y-70261138D01*
X17373362Y-70332567D01*
X17337647Y-70475424D01*
X17337647Y-70582567D01*
X17373362Y-70725424D01*
X17409076Y-70796852D01*
X17480505Y-70868281D01*
X17587647Y-70903995D01*
X17766219Y-70903995D01*
X17016219Y-70618281D02*
X16444790Y-70618281D01*
X16730505Y-70903995D02*
X16730505Y-70332567D01*
X15980274Y-70903995D02*
X15980274Y-70153995D01*
X15801702Y-70153995D01*
X15694560Y-70189710D01*
X15623131Y-70261138D01*
X15587417Y-70332567D01*
X15551702Y-70475424D01*
X15551702Y-70582567D01*
X15587417Y-70725424D01*
X15623131Y-70796852D01*
X15694560Y-70868281D01*
X15801702Y-70903995D01*
X15980274Y-70903995D01*
X15230274Y-70618281D02*
X14658845Y-70618281D01*
X20653508Y-77333490D02*
X20724937Y-77297775D01*
X20832080Y-77297775D01*
X20939222Y-77333490D01*
X21010651Y-77404918D01*
X21046365Y-77476347D01*
X21082080Y-77619204D01*
X21082080Y-77726347D01*
X21046365Y-77869204D01*
X21010651Y-77940632D01*
X20939222Y-78012061D01*
X20832080Y-78047775D01*
X20760651Y-78047775D01*
X20653508Y-78012061D01*
X20617794Y-77976347D01*
X20617794Y-77726347D01*
X20760651Y-77726347D01*
X20296365Y-78047775D02*
X20296365Y-77297775D01*
X19867794Y-78047775D01*
X19867794Y-77297775D01*
X19510651Y-78047775D02*
X19510651Y-77297775D01*
X19332080Y-77297775D01*
X19224937Y-77333490D01*
X19153508Y-77404918D01*
X19117794Y-77476347D01*
X19082080Y-77619204D01*
X19082080Y-77726347D01*
X19117794Y-77869204D01*
X19153508Y-77940632D01*
X19224937Y-78012061D01*
X19332080Y-78047775D01*
X19510651Y-78047775D01*
X13938300Y-77297775D02*
X13688300Y-78047775D01*
X13438300Y-77297775D01*
X12759728Y-77976347D02*
X12795442Y-78012061D01*
X12902585Y-78047775D01*
X12974014Y-78047775D01*
X13081157Y-78012061D01*
X13152585Y-77940632D01*
X13188300Y-77869204D01*
X13224014Y-77726347D01*
X13224014Y-77619204D01*
X13188300Y-77476347D01*
X13152585Y-77404918D01*
X13081157Y-77333490D01*
X12974014Y-77297775D01*
X12902585Y-77297775D01*
X12795442Y-77333490D01*
X12759728Y-77369204D01*
X12009728Y-77976347D02*
X12045442Y-78012061D01*
X12152585Y-78047775D01*
X12224014Y-78047775D01*
X12331157Y-78012061D01*
X12402585Y-77940632D01*
X12438300Y-77869204D01*
X12474014Y-77726347D01*
X12474014Y-77619204D01*
X12438300Y-77476347D01*
X12402585Y-77404918D01*
X12331157Y-77333490D01*
X12224014Y-77297775D01*
X12152585Y-77297775D01*
X12045442Y-77333490D01*
X12009728Y-77369204D01*
D11*
X9771095Y-58658410D02*
G75*
G03*
X9771095Y-58658410I-1000000J0D01*
G01*
X11371095Y-61258410D02*
X11371095Y-56058410D01*
X6171095Y-61258410D02*
X11371095Y-61258410D01*
X6171095Y-56058410D02*
X6171095Y-61258410D01*
X11371095Y-56058410D02*
X6171095Y-56058410D01*
D12*
X156873270Y-117785225D02*
X156873270Y-119785225D01*
X156873270Y-119785225D02*
X152973270Y-119785225D01*
X156873270Y-117785225D02*
X152973270Y-117785225D01*
X21714597Y-93918023D02*
X22914597Y-93918023D01*
X22914597Y-92158023D02*
X21714597Y-92158023D01*
X21714597Y-91983246D02*
X22914597Y-91983246D01*
X22914597Y-90223246D02*
X21714597Y-90223246D01*
X21815768Y-89470811D02*
X22515768Y-89470811D01*
X22515768Y-88270811D02*
X21815768Y-88270811D01*
X263434515Y-113617800D02*
X259534515Y-113617800D01*
X263434515Y-115617800D02*
X259534515Y-115617800D01*
X263434515Y-113617800D02*
X263434515Y-115617800D01*
X273222075Y-112641225D02*
X277122075Y-112641225D01*
X273222075Y-110641225D02*
X277122075Y-110641225D01*
X273222075Y-112641225D02*
X273222075Y-110641225D01*
X51502515Y-117785225D02*
X47602515Y-117785225D01*
X51502515Y-119785225D02*
X47602515Y-119785225D01*
X51502515Y-117785225D02*
X51502515Y-119785225D01*
X25903970Y-117785225D02*
X22003970Y-117785225D01*
X25903970Y-119785225D02*
X22003970Y-119785225D01*
X25903970Y-117785225D02*
X25903970Y-119785225D01*
X273222215Y-115618020D02*
X277122215Y-115618020D01*
X273222215Y-113618020D02*
X277122215Y-113618020D01*
X273222215Y-115618020D02*
X273222215Y-113618020D01*
X214023510Y-117785225D02*
X210123510Y-117785225D01*
X214023510Y-119785225D02*
X210123510Y-119785225D01*
X214023510Y-117785225D02*
X214023510Y-119785225D01*
X264292490Y-115618020D02*
X268192490Y-115618020D01*
X264292490Y-113618020D02*
X268192490Y-113618020D01*
X264292490Y-115618020D02*
X264292490Y-113618020D01*
X73529170Y-117785225D02*
X69629170Y-117785225D01*
X73529170Y-119785225D02*
X69629170Y-119785225D01*
X73529170Y-117785225D02*
X73529170Y-119785225D01*
X15046250Y-97227500D02*
X13846250Y-97227500D01*
X13846250Y-98987500D02*
X15046250Y-98987500D01*
D11*
X17803850Y-50342500D02*
X17803850Y-53242500D01*
X17803850Y-50342500D02*
X19103850Y-50342500D01*
X19103850Y-50342500D02*
X19103850Y-53242500D01*
X19103850Y-53242500D02*
X17803850Y-53242500D01*
D12*
X37656250Y-87411000D02*
X36956250Y-87411000D01*
X36956250Y-88611000D02*
X37656250Y-88611000D01*
X35753750Y-95662000D02*
X35753750Y-96362000D01*
X36953750Y-96362000D02*
X36953750Y-95662000D01*
X24323750Y-94697500D02*
X24323750Y-95397500D01*
X25523750Y-95397500D02*
X25523750Y-94697500D01*
X41696750Y-100047500D02*
X41696750Y-101247500D01*
X43456750Y-101247500D02*
X43456750Y-100047500D01*
D11*
X18510190Y-76155340D02*
X19510190Y-76155340D01*
X19510190Y-76155340D02*
X19510190Y-73755340D01*
X18510190Y-71955340D02*
X14510190Y-71955340D01*
X13510190Y-73755340D02*
X13510190Y-76155340D01*
X13510190Y-76155340D02*
X14510190Y-76155340D01*
D12*
X287783200Y-107342980D02*
X285783200Y-107342980D01*
X285783200Y-107342980D02*
X285783200Y-103442980D01*
X287783200Y-107342980D02*
X287783200Y-103442980D01*
X215154770Y-107342980D02*
X213154770Y-107342980D01*
X213154770Y-107342980D02*
X213154770Y-103442980D01*
X215154770Y-107342980D02*
X215154770Y-103442980D01*
X234204850Y-107342980D02*
X232204850Y-107342980D01*
X232204850Y-107342980D02*
X232204850Y-103442980D01*
X234204850Y-107342980D02*
X234204850Y-103442980D01*
X177054610Y-107342980D02*
X175054610Y-107342980D01*
X175054610Y-107342980D02*
X175054610Y-103442980D01*
X177054610Y-107342980D02*
X177054610Y-103442980D01*
X119904370Y-107342980D02*
X117904370Y-107342980D01*
X117904370Y-107342980D02*
X117904370Y-103442980D01*
X119904370Y-107342980D02*
X119904370Y-103442980D01*
X100854290Y-107342980D02*
X98854290Y-107342980D01*
X98854290Y-107342980D02*
X98854290Y-103442980D01*
X100854290Y-107342980D02*
X100854290Y-103442980D01*
X138954450Y-107342980D02*
X136954450Y-107342980D01*
X136954450Y-107342980D02*
X136954450Y-103442980D01*
X138954450Y-107342980D02*
X138954450Y-103442980D01*
X285401940Y-107342980D02*
X283401940Y-107342980D01*
X283401940Y-107342980D02*
X283401940Y-103442980D01*
X285401940Y-107342980D02*
X285401940Y-103442980D01*
X158004530Y-107342980D02*
X156004530Y-107342980D01*
X156004530Y-107342980D02*
X156004530Y-103442980D01*
X158004530Y-107342980D02*
X158004530Y-103442980D01*
X81804210Y-107342980D02*
X79804210Y-107342980D01*
X79804210Y-107342980D02*
X79804210Y-103442980D01*
X81804210Y-107342980D02*
X81804210Y-103442980D01*
X62754130Y-107342980D02*
X60754130Y-107342980D01*
X60754130Y-107342980D02*
X60754130Y-103442980D01*
X62754130Y-107342980D02*
X62754130Y-103442980D01*
X43704050Y-107342980D02*
X41704050Y-107342980D01*
X41704050Y-107342980D02*
X41704050Y-103442980D01*
X43704050Y-107342980D02*
X43704050Y-103442980D01*
X267542490Y-107342980D02*
X265542490Y-107342980D01*
X265542490Y-107342980D02*
X265542490Y-103442980D01*
X267542490Y-107342980D02*
X267542490Y-103442980D01*
X33682750Y-94415420D02*
X34407750Y-94415420D01*
X34407750Y-94415420D02*
X34407750Y-93690420D01*
X27912750Y-87195420D02*
X27187750Y-87195420D01*
X27187750Y-87195420D02*
X27187750Y-87920420D01*
X33682750Y-87195420D02*
X34407750Y-87195420D01*
X34407750Y-87195420D02*
X34407750Y-87920420D01*
X27912750Y-94415420D02*
X27187750Y-94415420D01*
X18164250Y-95304500D02*
X19364250Y-95304500D01*
X19364250Y-93544500D02*
X18164250Y-93544500D01*
X281942570Y-117368020D02*
X281942570Y-116218020D01*
X289242570Y-117368020D02*
X281942570Y-117368020D01*
X289242570Y-111868020D02*
X281942570Y-111868020D01*
X263792350Y-121683470D02*
X264942350Y-121683470D01*
X263792350Y-128983470D02*
X263792350Y-121683470D01*
X269292350Y-128983470D02*
X269292350Y-121683470D01*
X209023510Y-121683690D02*
X210173510Y-121683690D01*
X209023510Y-128983690D02*
X209023510Y-121683690D01*
X214523510Y-128983690D02*
X214523510Y-121683690D01*
X159612225Y-121088155D02*
X160762225Y-121088155D01*
X159612225Y-128388155D02*
X159612225Y-121088155D01*
X165112225Y-128388155D02*
X165112225Y-121088155D01*
X117345000Y-121683690D02*
X118495000Y-121683690D01*
X117345000Y-128983690D02*
X117345000Y-121683690D01*
X122845000Y-128983690D02*
X122845000Y-121683690D01*
X87169880Y-121614950D02*
X88319880Y-121614950D01*
X87169880Y-128914950D02*
X87169880Y-121614950D01*
X92669880Y-128914950D02*
X92669880Y-121614950D01*
X45907200Y-121683690D02*
X47057200Y-121683690D01*
X45907200Y-128983690D02*
X45907200Y-121683690D01*
X51407200Y-128983690D02*
X51407200Y-121683690D01*
X22541450Y-111868020D02*
X22541450Y-113018020D01*
X15241450Y-111868020D02*
X22541450Y-111868020D01*
X15241450Y-117368020D02*
X22541450Y-117368020D01*
X8544520Y-95646050D02*
X7394520Y-95646050D01*
X8544520Y-88346050D02*
X8544520Y-95646050D01*
X3044520Y-88346050D02*
X3044520Y-95646050D01*
X8544520Y-77786600D02*
X7394520Y-77786600D01*
X8544520Y-70486600D02*
X8544520Y-77786600D01*
X3044520Y-70486600D02*
X3044520Y-77786600D01*
X295939500Y-90727310D02*
X297089500Y-90727310D01*
X295939500Y-98027310D02*
X295939500Y-90727310D01*
X301439500Y-98027310D02*
X301439500Y-90727310D01*
X295939500Y-71677230D02*
X297089500Y-71677230D01*
X295939500Y-78977230D02*
X295939500Y-71677230D01*
X301439500Y-78977230D02*
X301439500Y-71677230D01*
X281942570Y-60217780D02*
X281942570Y-59067780D01*
X289242570Y-60217780D02*
X281942570Y-60217780D01*
X289242570Y-54717780D02*
X281942570Y-54717780D01*
X250242410Y-50402110D02*
X249092410Y-50402110D01*
X250242410Y-43102110D02*
X250242410Y-50402110D01*
X244742410Y-43102110D02*
X244742410Y-50402110D01*
X212142250Y-50402110D02*
X210992250Y-50402110D01*
X212142250Y-43102110D02*
X212142250Y-50402110D01*
X206642250Y-43102110D02*
X206642250Y-50402110D01*
X174042090Y-50402110D02*
X172892090Y-50402110D01*
X174042090Y-43102110D02*
X174042090Y-50402110D01*
X168542090Y-43102110D02*
X168542090Y-50402110D01*
X135941930Y-50402110D02*
X134791930Y-50402110D01*
X135941930Y-43102110D02*
X135941930Y-50402110D01*
X130441930Y-43102110D02*
X130441930Y-50402110D01*
X97841770Y-50402110D02*
X96691770Y-50402110D01*
X97841770Y-43102110D02*
X97841770Y-50402110D01*
X92341770Y-43102110D02*
X92341770Y-50402110D01*
X59741610Y-50402110D02*
X58591610Y-50402110D01*
X59741610Y-43102110D02*
X59741610Y-50402110D01*
X54241610Y-43102110D02*
X54241610Y-50402110D01*
X15241450Y-60217780D02*
X15241450Y-59067780D01*
X22541450Y-60217780D02*
X15241450Y-60217780D01*
X22541450Y-54717780D02*
X15241450Y-54717780D01*
X287495212Y-45249828D02*
X284737496Y-42492112D01*
X286080998Y-46664042D02*
X283323282Y-43906326D01*
X287495212Y-45249828D02*
X286080998Y-46664042D01*
X287000347Y-48826403D02*
X284242631Y-46068687D01*
X285586133Y-50240617D02*
X282828417Y-47482901D01*
X287000347Y-48826403D02*
X285586133Y-50240617D01*
X237776740Y-69242820D02*
X235776740Y-69242820D01*
X235776740Y-69242820D02*
X235776740Y-65342820D01*
X237776740Y-69242820D02*
X237776740Y-65342820D01*
X196104690Y-107342980D02*
X194104690Y-107342980D01*
X194104690Y-107342980D02*
X194104690Y-103442980D01*
X196104690Y-107342980D02*
X196104690Y-103442980D01*
X287783200Y-88292900D02*
X285783200Y-88292900D01*
X285783200Y-88292900D02*
X285783200Y-84392900D01*
X287783200Y-88292900D02*
X287783200Y-84392900D01*
X285401940Y-88292900D02*
X283401940Y-88292900D01*
X283401940Y-88292900D02*
X283401940Y-84392900D01*
X285401940Y-88292900D02*
X285401940Y-84392900D01*
X242539260Y-88292900D02*
X240539260Y-88292900D01*
X240539260Y-88292900D02*
X240539260Y-84392900D01*
X242539260Y-88292900D02*
X242539260Y-84392900D01*
X224679810Y-88292900D02*
X222679810Y-88292900D01*
X222679810Y-88292900D02*
X222679810Y-84392900D01*
X224679810Y-88292900D02*
X224679810Y-84392900D01*
X205629730Y-88292900D02*
X203629730Y-88292900D01*
X203629730Y-88292900D02*
X203629730Y-84392900D01*
X205629730Y-88292900D02*
X205629730Y-84392900D01*
X186579650Y-88292900D02*
X184579650Y-88292900D01*
X184579650Y-88292900D02*
X184579650Y-84392900D01*
X186579650Y-88292900D02*
X186579650Y-84392900D01*
X167529570Y-88292900D02*
X165529570Y-88292900D01*
X165529570Y-88292900D02*
X165529570Y-84392900D01*
X167529570Y-88292900D02*
X167529570Y-84392900D01*
X148479490Y-88292900D02*
X146479490Y-88292900D01*
X146479490Y-88292900D02*
X146479490Y-84392900D01*
X148479490Y-88292900D02*
X148479490Y-84392900D01*
X111569960Y-88292900D02*
X109569960Y-88292900D01*
X109569960Y-88292900D02*
X109569960Y-84392900D01*
X111569960Y-88292900D02*
X111569960Y-84392900D01*
X109188700Y-88292900D02*
X107188700Y-88292900D01*
X107188700Y-88292900D02*
X107188700Y-84392900D01*
X109188700Y-88292900D02*
X109188700Y-84392900D01*
X91329250Y-88292900D02*
X89329250Y-88292900D01*
X89329250Y-88292900D02*
X89329250Y-84392900D01*
X91329250Y-88292900D02*
X91329250Y-84392900D01*
X72279170Y-88292900D02*
X70279170Y-88292900D01*
X70279170Y-88292900D02*
X70279170Y-84392900D01*
X72279170Y-88292900D02*
X72279170Y-84392900D01*
X52038125Y-88292500D02*
X52038125Y-84392500D01*
X50038125Y-88292500D02*
X50038125Y-84392500D01*
X52038125Y-88292500D02*
X50038125Y-88292500D01*
X54419375Y-88292500D02*
X52419375Y-88292500D01*
X52419375Y-88292500D02*
X52419375Y-84392500D01*
X54419375Y-88292500D02*
X54419375Y-84392500D01*
X287783200Y-69242820D02*
X285783200Y-69242820D01*
X285783200Y-69242820D02*
X285783200Y-65342820D01*
X287783200Y-69242820D02*
X287783200Y-65342820D01*
X244920520Y-88292900D02*
X242920520Y-88292900D01*
X242920520Y-88292900D02*
X242920520Y-84392900D01*
X244920520Y-88292900D02*
X244920520Y-84392900D01*
X240157100Y-69242500D02*
X238157100Y-69242500D01*
X238157100Y-69242500D02*
X238157100Y-65342500D01*
X240157100Y-69242500D02*
X240157100Y-65342500D01*
X221107920Y-69242820D02*
X219107920Y-69242820D01*
X219107920Y-69242820D02*
X219107920Y-65342820D01*
X221107920Y-69242820D02*
X221107920Y-65342820D01*
X218726660Y-69242820D02*
X216726660Y-69242820D01*
X216726660Y-69242820D02*
X216726660Y-65342820D01*
X218726660Y-69242820D02*
X218726660Y-65342820D01*
X200867210Y-69242820D02*
X198867210Y-69242820D01*
X198867210Y-69242820D02*
X198867210Y-65342820D01*
X200867210Y-69242820D02*
X200867210Y-65342820D01*
X181816426Y-69242500D02*
X179816426Y-69242500D01*
X179816426Y-69242500D02*
X179816426Y-65342500D01*
X181816426Y-69242500D02*
X181816426Y-65342500D01*
X162767050Y-69242820D02*
X160767050Y-69242820D01*
X160767050Y-69242820D02*
X160767050Y-65342820D01*
X162767050Y-69242820D02*
X162767050Y-65342820D01*
X143716394Y-69242500D02*
X141716394Y-69242500D01*
X141716394Y-69242500D02*
X141716394Y-65342500D01*
X143716394Y-69242500D02*
X143716394Y-65342500D01*
X124666378Y-69242500D02*
X122666378Y-69242500D01*
X122666378Y-69242500D02*
X122666378Y-65342500D01*
X124666378Y-69242500D02*
X124666378Y-65342500D01*
X105616362Y-69242500D02*
X103616362Y-69242500D01*
X103616362Y-69242500D02*
X103616362Y-65342500D01*
X105616362Y-69242500D02*
X105616362Y-65342500D01*
X86566346Y-69242500D02*
X84566346Y-69242500D01*
X84566346Y-69242500D02*
X84566346Y-65342500D01*
X86566346Y-69242500D02*
X86566346Y-65342500D01*
X67516330Y-69242500D02*
X65516330Y-69242500D01*
X65516330Y-69242500D02*
X65516330Y-65342500D01*
X67516330Y-69242500D02*
X67516330Y-65342500D01*
X48466570Y-69242820D02*
X46466570Y-69242820D01*
X46466570Y-69242820D02*
X46466570Y-65342820D01*
X48466570Y-69242820D02*
X48466570Y-65342820D01*
X6794520Y-69242820D02*
X4794520Y-69242820D01*
X4794520Y-69242820D02*
X4794520Y-65342820D01*
X6794520Y-69242820D02*
X6794520Y-65342820D01*
X32559380Y-84692130D02*
X28559380Y-84692130D01*
X32559380Y-81392130D02*
X32559380Y-84692130D01*
X23200250Y-75146500D02*
X23200250Y-73946500D01*
X21440250Y-73946500D02*
X21440250Y-75146500D01*
X37341530Y-45250850D02*
X38541530Y-45250850D01*
X38541530Y-43490850D02*
X37341530Y-43490850D01*
X37341530Y-42869590D02*
X38541530Y-42869590D01*
X38541530Y-41109590D02*
X37341530Y-41109590D01*
X230632960Y-50192740D02*
X230632960Y-46292740D01*
X228632960Y-50192740D02*
X228632960Y-46292740D01*
X230632960Y-50192740D02*
X228632960Y-50192740D01*
X228250840Y-50192500D02*
X228250840Y-46292500D01*
X226250840Y-50192500D02*
X226250840Y-46292500D01*
X228250840Y-50192500D02*
X226250840Y-50192500D01*
X192532800Y-50192500D02*
X192532800Y-46292500D01*
X190532800Y-50192500D02*
X190532800Y-46292500D01*
X192532800Y-50192500D02*
X190532800Y-50192500D01*
X190150808Y-50192500D02*
X190150808Y-46292500D01*
X188150808Y-50192500D02*
X188150808Y-46292500D01*
X190150808Y-50192500D02*
X188150808Y-50192500D01*
X154432640Y-50192500D02*
X154432640Y-46292500D01*
X152432640Y-50192500D02*
X152432640Y-46292500D01*
X154432640Y-50192500D02*
X152432640Y-50192500D01*
X152050776Y-50192500D02*
X152050776Y-46292500D01*
X150050776Y-50192500D02*
X150050776Y-46292500D01*
X152050776Y-50192500D02*
X150050776Y-50192500D01*
X116332480Y-50192500D02*
X116332480Y-46292500D01*
X114332480Y-50192500D02*
X114332480Y-46292500D01*
X116332480Y-50192500D02*
X114332480Y-50192500D01*
X113950744Y-50192500D02*
X113950744Y-46292500D01*
X111950744Y-50192500D02*
X111950744Y-46292500D01*
X113950744Y-50192500D02*
X111950744Y-50192500D01*
X78232320Y-50192740D02*
X78232320Y-46292740D01*
X76232320Y-50192740D02*
X76232320Y-46292740D01*
X78232320Y-50192740D02*
X76232320Y-50192740D01*
X75850712Y-50192500D02*
X75850712Y-46292500D01*
X73850712Y-50192500D02*
X73850712Y-46292500D01*
X75850712Y-50192500D02*
X73850712Y-50192500D01*
X40132160Y-50192740D02*
X40132160Y-46292740D01*
X38132160Y-50192740D02*
X38132160Y-46292740D01*
X40132160Y-50192740D02*
X38132160Y-50192740D01*
X37750900Y-50192740D02*
X35750900Y-50192740D01*
X35750900Y-50192740D02*
X35750900Y-46292740D01*
X37750900Y-50192740D02*
X37750900Y-46292740D01*
X8044520Y-51705260D02*
X8044520Y-53705260D01*
X8044520Y-53705260D02*
X4144520Y-53705260D01*
X8044520Y-51705260D02*
X4144520Y-51705260D01*
X25954880Y-84785130D02*
X26654880Y-84785130D01*
X26654880Y-83585130D02*
X25954880Y-83585130D01*
X25954880Y-83007130D02*
X26654880Y-83007130D01*
X26654880Y-81807130D02*
X25954880Y-81807130D01*
X33134380Y-82755630D02*
X33134380Y-83455630D01*
X34334380Y-83455630D02*
X34334380Y-82755630D01*
D11*
X14859085Y-92717928D02*
X15620990Y-92717928D01*
X15240038Y-93098880D02*
X15240038Y-92336976D01*
X12636581Y-92717928D02*
X13398486Y-92717928D01*
X13017534Y-93098880D02*
X13017534Y-92336976D01*
X10104428Y-63127171D02*
X9961571Y-63174790D01*
X9723475Y-63174790D01*
X9628237Y-63127171D01*
X9580618Y-63079552D01*
X9532999Y-62984314D01*
X9532999Y-62889076D01*
X9580618Y-62793838D01*
X9628237Y-62746219D01*
X9723475Y-62698600D01*
X9913952Y-62650981D01*
X10009190Y-62603362D01*
X10056809Y-62555743D01*
X10104428Y-62460505D01*
X10104428Y-62365267D01*
X10056809Y-62270029D01*
X10009190Y-62222410D01*
X9913952Y-62174790D01*
X9675856Y-62174790D01*
X9532999Y-62222410D01*
X9199666Y-62174790D02*
X8961571Y-63174790D01*
X8771095Y-62460505D01*
X8580618Y-63174790D01*
X8342523Y-62174790D01*
X7437761Y-63174790D02*
X8009190Y-63174790D01*
X7723475Y-63174790D02*
X7723475Y-62174790D01*
X7818714Y-62317648D01*
X7913952Y-62412886D01*
X8009190Y-62460505D01*
X155837555Y-117237605D02*
X155837555Y-116237605D01*
X155599460Y-116237605D01*
X155456603Y-116285225D01*
X155361365Y-116380463D01*
X155313746Y-116475701D01*
X155266127Y-116666177D01*
X155266127Y-116809034D01*
X155313746Y-116999510D01*
X155361365Y-117094748D01*
X155456603Y-117189986D01*
X155599460Y-117237605D01*
X155837555Y-117237605D01*
X154408984Y-116237605D02*
X154599460Y-116237605D01*
X154694698Y-116285225D01*
X154742317Y-116332844D01*
X154837555Y-116475701D01*
X154885174Y-116666177D01*
X154885174Y-117047129D01*
X154837555Y-117142367D01*
X154789936Y-117189986D01*
X154694698Y-117237605D01*
X154504222Y-117237605D01*
X154408984Y-117189986D01*
X154361365Y-117142367D01*
X154313746Y-117047129D01*
X154313746Y-116809034D01*
X154361365Y-116713796D01*
X154408984Y-116666177D01*
X154504222Y-116618558D01*
X154694698Y-116618558D01*
X154789936Y-116666177D01*
X154837555Y-116713796D01*
X154885174Y-116809034D01*
X153408984Y-116237605D02*
X153885174Y-116237605D01*
X153932793Y-116713796D01*
X153885174Y-116666177D01*
X153789936Y-116618558D01*
X153551841Y-116618558D01*
X153456603Y-116666177D01*
X153408984Y-116713796D01*
X153361365Y-116809034D01*
X153361365Y-117047129D01*
X153408984Y-117142367D01*
X153456603Y-117189986D01*
X153551841Y-117237605D01*
X153789936Y-117237605D01*
X153885174Y-117189986D01*
X153932793Y-117142367D01*
X22481263Y-91840403D02*
X22814597Y-91364213D01*
X23052692Y-91840403D02*
X23052692Y-90840403D01*
X22671739Y-90840403D01*
X22576501Y-90888023D01*
X22528882Y-90935642D01*
X22481263Y-91030880D01*
X22481263Y-91173737D01*
X22528882Y-91268975D01*
X22576501Y-91316594D01*
X22671739Y-91364213D01*
X23052692Y-91364213D01*
X21624120Y-91173737D02*
X21624120Y-91840403D01*
X21862216Y-90792784D02*
X22100311Y-91507070D01*
X21481263Y-91507070D01*
X22481263Y-89905626D02*
X22814597Y-89429436D01*
X23052692Y-89905626D02*
X23052692Y-88905626D01*
X22671739Y-88905626D01*
X22576501Y-88953246D01*
X22528882Y-89000865D01*
X22481263Y-89096103D01*
X22481263Y-89238960D01*
X22528882Y-89334198D01*
X22576501Y-89381817D01*
X22671739Y-89429436D01*
X23052692Y-89429436D01*
X22147930Y-88905626D02*
X21528882Y-88905626D01*
X21862216Y-89286579D01*
X21719358Y-89286579D01*
X21624120Y-89334198D01*
X21576501Y-89381817D01*
X21528882Y-89477055D01*
X21528882Y-89715150D01*
X21576501Y-89810388D01*
X21624120Y-89858007D01*
X21719358Y-89905626D01*
X22005073Y-89905626D01*
X22100311Y-89858007D01*
X22147930Y-89810388D01*
X22332434Y-87727953D02*
X22380053Y-87775572D01*
X22522910Y-87823191D01*
X22618148Y-87823191D01*
X22761006Y-87775572D01*
X22856244Y-87680334D01*
X22903863Y-87585096D01*
X22951482Y-87394620D01*
X22951482Y-87251763D01*
X22903863Y-87061287D01*
X22856244Y-86966049D01*
X22761006Y-86870811D01*
X22618148Y-86823191D01*
X22522910Y-86823191D01*
X22380053Y-86870811D01*
X22332434Y-86918430D01*
X21475291Y-86823191D02*
X21665768Y-86823191D01*
X21761006Y-86870811D01*
X21808625Y-86918430D01*
X21903863Y-87061287D01*
X21951482Y-87251763D01*
X21951482Y-87632715D01*
X21903863Y-87727953D01*
X21856244Y-87775572D01*
X21761006Y-87823191D01*
X21570529Y-87823191D01*
X21475291Y-87775572D01*
X21427672Y-87727953D01*
X21380053Y-87632715D01*
X21380053Y-87394620D01*
X21427672Y-87299382D01*
X21475291Y-87251763D01*
X21570529Y-87204144D01*
X21761006Y-87204144D01*
X21856244Y-87251763D01*
X21903863Y-87299382D01*
X21951482Y-87394620D01*
X262398800Y-113070180D02*
X262398800Y-112070180D01*
X262160705Y-112070180D01*
X262017848Y-112117800D01*
X261922610Y-112213038D01*
X261874991Y-112308276D01*
X261827372Y-112498752D01*
X261827372Y-112641609D01*
X261874991Y-112832085D01*
X261922610Y-112927323D01*
X262017848Y-113022561D01*
X262160705Y-113070180D01*
X262398800Y-113070180D01*
X261494038Y-112070180D02*
X260827372Y-112070180D01*
X261255943Y-113070180D01*
X260494038Y-112165419D02*
X260446419Y-112117800D01*
X260351181Y-112070180D01*
X260113086Y-112070180D01*
X260017848Y-112117800D01*
X259970229Y-112165419D01*
X259922610Y-112260657D01*
X259922610Y-112355895D01*
X259970229Y-112498752D01*
X260541657Y-113070180D01*
X259922610Y-113070180D01*
X276686360Y-114093605D02*
X276686360Y-113093605D01*
X276448265Y-113093605D01*
X276305408Y-113141225D01*
X276210170Y-113236463D01*
X276162551Y-113331701D01*
X276114932Y-113522177D01*
X276114932Y-113665034D01*
X276162551Y-113855510D01*
X276210170Y-113950748D01*
X276305408Y-114045986D01*
X276448265Y-114093605D01*
X276686360Y-114093605D01*
X275781598Y-113093605D02*
X275114932Y-113093605D01*
X275543503Y-114093605D01*
X274210170Y-114093605D02*
X274781598Y-114093605D01*
X274495884Y-114093605D02*
X274495884Y-113093605D01*
X274591122Y-113236463D01*
X274686360Y-113331701D01*
X274781598Y-113379320D01*
X50466800Y-117237605D02*
X50466800Y-116237605D01*
X50228705Y-116237605D01*
X50085848Y-116285225D01*
X49990610Y-116380463D01*
X49942991Y-116475701D01*
X49895372Y-116666177D01*
X49895372Y-116809034D01*
X49942991Y-116999510D01*
X49990610Y-117094748D01*
X50085848Y-117189986D01*
X50228705Y-117237605D01*
X50466800Y-117237605D01*
X49038229Y-116237605D02*
X49228705Y-116237605D01*
X49323943Y-116285225D01*
X49371562Y-116332844D01*
X49466800Y-116475701D01*
X49514419Y-116666177D01*
X49514419Y-117047129D01*
X49466800Y-117142367D01*
X49419181Y-117189986D01*
X49323943Y-117237605D01*
X49133467Y-117237605D01*
X49038229Y-117189986D01*
X48990610Y-117142367D01*
X48942991Y-117047129D01*
X48942991Y-116809034D01*
X48990610Y-116713796D01*
X49038229Y-116666177D01*
X49133467Y-116618558D01*
X49323943Y-116618558D01*
X49419181Y-116666177D01*
X49466800Y-116713796D01*
X49514419Y-116809034D01*
X48562038Y-116332844D02*
X48514419Y-116285225D01*
X48419181Y-116237605D01*
X48181086Y-116237605D01*
X48085848Y-116285225D01*
X48038229Y-116332844D01*
X47990610Y-116428082D01*
X47990610Y-116523320D01*
X48038229Y-116666177D01*
X48609657Y-117237605D01*
X47990610Y-117237605D01*
X24868255Y-117237605D02*
X24868255Y-116237605D01*
X24630160Y-116237605D01*
X24487303Y-116285225D01*
X24392065Y-116380463D01*
X24344446Y-116475701D01*
X24296827Y-116666177D01*
X24296827Y-116809034D01*
X24344446Y-116999510D01*
X24392065Y-117094748D01*
X24487303Y-117189986D01*
X24630160Y-117237605D01*
X24868255Y-117237605D01*
X23439684Y-116237605D02*
X23630160Y-116237605D01*
X23725398Y-116285225D01*
X23773017Y-116332844D01*
X23868255Y-116475701D01*
X23915874Y-116666177D01*
X23915874Y-117047129D01*
X23868255Y-117142367D01*
X23820636Y-117189986D01*
X23725398Y-117237605D01*
X23534922Y-117237605D01*
X23439684Y-117189986D01*
X23392065Y-117142367D01*
X23344446Y-117047129D01*
X23344446Y-116809034D01*
X23392065Y-116713796D01*
X23439684Y-116666177D01*
X23534922Y-116618558D01*
X23725398Y-116618558D01*
X23820636Y-116666177D01*
X23868255Y-116713796D01*
X23915874Y-116809034D01*
X22392065Y-117237605D02*
X22963493Y-117237605D01*
X22677779Y-117237605D02*
X22677779Y-116237605D01*
X22773017Y-116380463D01*
X22868255Y-116475701D01*
X22963493Y-116523320D01*
X276686500Y-117070400D02*
X276686500Y-116070400D01*
X276448405Y-116070400D01*
X276305548Y-116118020D01*
X276210310Y-116213258D01*
X276162691Y-116308496D01*
X276115072Y-116498972D01*
X276115072Y-116641829D01*
X276162691Y-116832305D01*
X276210310Y-116927543D01*
X276305548Y-117022781D01*
X276448405Y-117070400D01*
X276686500Y-117070400D01*
X275781738Y-116070400D02*
X275115072Y-116070400D01*
X275543643Y-117070400D01*
X274305548Y-116403734D02*
X274305548Y-117070400D01*
X274543643Y-116022781D02*
X274781738Y-116737067D01*
X274162691Y-116737067D01*
X212987795Y-117237605D02*
X212987795Y-116237605D01*
X212749700Y-116237605D01*
X212606843Y-116285225D01*
X212511605Y-116380463D01*
X212463986Y-116475701D01*
X212416367Y-116666177D01*
X212416367Y-116809034D01*
X212463986Y-116999510D01*
X212511605Y-117094748D01*
X212606843Y-117189986D01*
X212749700Y-117237605D01*
X212987795Y-117237605D01*
X212083033Y-116237605D02*
X211416367Y-116237605D01*
X211844938Y-117237605D01*
X210844938Y-116237605D02*
X210749700Y-116237605D01*
X210654462Y-116285225D01*
X210606843Y-116332844D01*
X210559224Y-116428082D01*
X210511605Y-116618558D01*
X210511605Y-116856653D01*
X210559224Y-117047129D01*
X210606843Y-117142367D01*
X210654462Y-117189986D01*
X210749700Y-117237605D01*
X210844938Y-117237605D01*
X210940176Y-117189986D01*
X210987795Y-117142367D01*
X211035414Y-117047129D01*
X211083033Y-116856653D01*
X211083033Y-116618558D01*
X211035414Y-116428082D01*
X210987795Y-116332844D01*
X210940176Y-116285225D01*
X210844938Y-116237605D01*
X267756775Y-117070400D02*
X267756775Y-116070400D01*
X267518680Y-116070400D01*
X267375823Y-116118020D01*
X267280585Y-116213258D01*
X267232966Y-116308496D01*
X267185347Y-116498972D01*
X267185347Y-116641829D01*
X267232966Y-116832305D01*
X267280585Y-116927543D01*
X267375823Y-117022781D01*
X267518680Y-117070400D01*
X267756775Y-117070400D01*
X266852013Y-116070400D02*
X266185347Y-116070400D01*
X266613918Y-117070400D01*
X265899632Y-116070400D02*
X265280585Y-116070400D01*
X265613918Y-116451353D01*
X265471061Y-116451353D01*
X265375823Y-116498972D01*
X265328204Y-116546591D01*
X265280585Y-116641829D01*
X265280585Y-116879924D01*
X265328204Y-116975162D01*
X265375823Y-117022781D01*
X265471061Y-117070400D01*
X265756775Y-117070400D01*
X265852013Y-117022781D01*
X265899632Y-116975162D01*
X72493455Y-117237605D02*
X72493455Y-116237605D01*
X72255360Y-116237605D01*
X72112503Y-116285225D01*
X72017265Y-116380463D01*
X71969646Y-116475701D01*
X71922027Y-116666177D01*
X71922027Y-116809034D01*
X71969646Y-116999510D01*
X72017265Y-117094748D01*
X72112503Y-117189986D01*
X72255360Y-117237605D01*
X72493455Y-117237605D01*
X71064884Y-116237605D02*
X71255360Y-116237605D01*
X71350598Y-116285225D01*
X71398217Y-116332844D01*
X71493455Y-116475701D01*
X71541074Y-116666177D01*
X71541074Y-117047129D01*
X71493455Y-117142367D01*
X71445836Y-117189986D01*
X71350598Y-117237605D01*
X71160122Y-117237605D01*
X71064884Y-117189986D01*
X71017265Y-117142367D01*
X70969646Y-117047129D01*
X70969646Y-116809034D01*
X71017265Y-116713796D01*
X71064884Y-116666177D01*
X71160122Y-116618558D01*
X71350598Y-116618558D01*
X71445836Y-116666177D01*
X71493455Y-116713796D01*
X71541074Y-116809034D01*
X70636312Y-116237605D02*
X70017265Y-116237605D01*
X70350598Y-116618558D01*
X70207741Y-116618558D01*
X70112503Y-116666177D01*
X70064884Y-116713796D01*
X70017265Y-116809034D01*
X70017265Y-117047129D01*
X70064884Y-117142367D01*
X70112503Y-117189986D01*
X70207741Y-117237605D01*
X70493455Y-117237605D01*
X70588693Y-117189986D01*
X70636312Y-117142367D01*
X14612916Y-100209880D02*
X14946250Y-99733690D01*
X15184345Y-100209880D02*
X15184345Y-99209880D01*
X14803392Y-99209880D01*
X14708154Y-99257500D01*
X14660535Y-99305119D01*
X14612916Y-99400357D01*
X14612916Y-99543214D01*
X14660535Y-99638452D01*
X14708154Y-99686071D01*
X14803392Y-99733690D01*
X15184345Y-99733690D01*
X14279583Y-99209880D02*
X13612916Y-99209880D01*
X14041488Y-100209880D01*
X19215754Y-53694880D02*
X19215754Y-54504404D01*
X19168135Y-54599642D01*
X19120516Y-54647261D01*
X19025278Y-54694880D01*
X18834802Y-54694880D01*
X18739564Y-54647261D01*
X18691945Y-54599642D01*
X18644326Y-54504404D01*
X18644326Y-53694880D01*
X17644326Y-54694880D02*
X18215754Y-54694880D01*
X17930040Y-54694880D02*
X17930040Y-53694880D01*
X18025278Y-53837738D01*
X18120516Y-53932976D01*
X18215754Y-53980595D01*
X37472916Y-89868142D02*
X37520535Y-89915761D01*
X37663392Y-89963380D01*
X37758630Y-89963380D01*
X37901488Y-89915761D01*
X37996726Y-89820523D01*
X38044345Y-89725285D01*
X38091964Y-89534809D01*
X38091964Y-89391952D01*
X38044345Y-89201476D01*
X37996726Y-89106238D01*
X37901488Y-89011000D01*
X37758630Y-88963380D01*
X37663392Y-88963380D01*
X37520535Y-89011000D01*
X37472916Y-89058619D01*
X37139583Y-88963380D02*
X36472916Y-88963380D01*
X36901488Y-89963380D01*
X38210892Y-95845333D02*
X38258511Y-95797714D01*
X38306130Y-95654857D01*
X38306130Y-95559619D01*
X38258511Y-95416761D01*
X38163273Y-95321523D01*
X38068035Y-95273904D01*
X37877559Y-95226285D01*
X37734702Y-95226285D01*
X37544226Y-95273904D01*
X37448988Y-95321523D01*
X37353750Y-95416761D01*
X37306130Y-95559619D01*
X37306130Y-95654857D01*
X37353750Y-95797714D01*
X37401369Y-95845333D01*
X37639464Y-96702476D02*
X38306130Y-96702476D01*
X37258511Y-96464380D02*
X37972797Y-96226285D01*
X37972797Y-96845333D01*
X26780892Y-94880833D02*
X26828511Y-94833214D01*
X26876130Y-94690357D01*
X26876130Y-94595119D01*
X26828511Y-94452261D01*
X26733273Y-94357023D01*
X26638035Y-94309404D01*
X26447559Y-94261785D01*
X26304702Y-94261785D01*
X26114226Y-94309404D01*
X26018988Y-94357023D01*
X25923750Y-94452261D01*
X25876130Y-94595119D01*
X25876130Y-94690357D01*
X25923750Y-94833214D01*
X25971369Y-94880833D01*
X26876130Y-95833214D02*
X26876130Y-95261785D01*
X26876130Y-95547500D02*
X25876130Y-95547500D01*
X26018988Y-95452261D01*
X26114226Y-95357023D01*
X26161845Y-95261785D01*
X44679130Y-100480833D02*
X44202940Y-100147500D01*
X44679130Y-99909404D02*
X43679130Y-99909404D01*
X43679130Y-100290357D01*
X43726750Y-100385595D01*
X43774369Y-100433214D01*
X43869607Y-100480833D01*
X44012464Y-100480833D01*
X44107702Y-100433214D01*
X44155321Y-100385595D01*
X44202940Y-100290357D01*
X44202940Y-99909404D01*
X43679130Y-101337976D02*
X43679130Y-101147500D01*
X43726750Y-101052261D01*
X43774369Y-101004642D01*
X43917226Y-100909404D01*
X44107702Y-100861785D01*
X44488654Y-100861785D01*
X44583892Y-100909404D01*
X44631511Y-100957023D01*
X44679130Y-101052261D01*
X44679130Y-101242738D01*
X44631511Y-101337976D01*
X44583892Y-101385595D01*
X44488654Y-101433214D01*
X44250559Y-101433214D01*
X44155321Y-101385595D01*
X44107702Y-101337976D01*
X44060083Y-101242738D01*
X44060083Y-101052261D01*
X44107702Y-100957023D01*
X44155321Y-100909404D01*
X44250559Y-100861785D01*
X16843523Y-77707720D02*
X16843523Y-78422006D01*
X16891142Y-78564863D01*
X16986380Y-78660101D01*
X17129237Y-78707720D01*
X17224475Y-78707720D01*
X15843523Y-78707720D02*
X16414951Y-78707720D01*
X16129237Y-78707720D02*
X16129237Y-77707720D01*
X16224475Y-77850578D01*
X16319713Y-77945816D01*
X16414951Y-77993435D01*
X289235580Y-103878694D02*
X288235580Y-103878694D01*
X288235580Y-104116789D01*
X288283200Y-104259646D01*
X288378438Y-104354884D01*
X288473676Y-104402503D01*
X288664152Y-104450122D01*
X288807009Y-104450122D01*
X288997485Y-104402503D01*
X289092723Y-104354884D01*
X289187961Y-104259646D01*
X289235580Y-104116789D01*
X289235580Y-103878694D01*
X288235580Y-105307265D02*
X288235580Y-105116789D01*
X288283200Y-105021551D01*
X288330819Y-104973932D01*
X288473676Y-104878694D01*
X288664152Y-104831075D01*
X289045104Y-104831075D01*
X289140342Y-104878694D01*
X289187961Y-104926313D01*
X289235580Y-105021551D01*
X289235580Y-105212027D01*
X289187961Y-105307265D01*
X289140342Y-105354884D01*
X289045104Y-105402503D01*
X288807009Y-105402503D01*
X288711771Y-105354884D01*
X288664152Y-105307265D01*
X288616533Y-105212027D01*
X288616533Y-105021551D01*
X288664152Y-104926313D01*
X288711771Y-104878694D01*
X288807009Y-104831075D01*
X288235580Y-106021551D02*
X288235580Y-106116789D01*
X288283200Y-106212027D01*
X288330819Y-106259646D01*
X288426057Y-106307265D01*
X288616533Y-106354884D01*
X288854628Y-106354884D01*
X289045104Y-106307265D01*
X289140342Y-106259646D01*
X289187961Y-106212027D01*
X289235580Y-106116789D01*
X289235580Y-106021551D01*
X289187961Y-105926313D01*
X289140342Y-105878694D01*
X289045104Y-105831075D01*
X288854628Y-105783456D01*
X288616533Y-105783456D01*
X288426057Y-105831075D01*
X288330819Y-105878694D01*
X288283200Y-105926313D01*
X288235580Y-106021551D01*
X216607150Y-103878694D02*
X215607150Y-103878694D01*
X215607150Y-104116789D01*
X215654770Y-104259646D01*
X215750008Y-104354884D01*
X215845246Y-104402503D01*
X216035722Y-104450122D01*
X216178579Y-104450122D01*
X216369055Y-104402503D01*
X216464293Y-104354884D01*
X216559531Y-104259646D01*
X216607150Y-104116789D01*
X216607150Y-103878694D01*
X215607150Y-105354884D02*
X215607150Y-104878694D01*
X216083341Y-104831075D01*
X216035722Y-104878694D01*
X215988103Y-104973932D01*
X215988103Y-105212027D01*
X216035722Y-105307265D01*
X216083341Y-105354884D01*
X216178579Y-105402503D01*
X216416674Y-105402503D01*
X216511912Y-105354884D01*
X216559531Y-105307265D01*
X216607150Y-105212027D01*
X216607150Y-104973932D01*
X216559531Y-104878694D01*
X216511912Y-104831075D01*
X215607150Y-106259646D02*
X215607150Y-106069170D01*
X215654770Y-105973932D01*
X215702389Y-105926313D01*
X215845246Y-105831075D01*
X216035722Y-105783456D01*
X216416674Y-105783456D01*
X216511912Y-105831075D01*
X216559531Y-105878694D01*
X216607150Y-105973932D01*
X216607150Y-106164408D01*
X216559531Y-106259646D01*
X216511912Y-106307265D01*
X216416674Y-106354884D01*
X216178579Y-106354884D01*
X216083341Y-106307265D01*
X216035722Y-106259646D01*
X215988103Y-106164408D01*
X215988103Y-105973932D01*
X216035722Y-105878694D01*
X216083341Y-105831075D01*
X216178579Y-105783456D01*
X235657230Y-103878694D02*
X234657230Y-103878694D01*
X234657230Y-104116789D01*
X234704850Y-104259646D01*
X234800088Y-104354884D01*
X234895326Y-104402503D01*
X235085802Y-104450122D01*
X235228659Y-104450122D01*
X235419135Y-104402503D01*
X235514373Y-104354884D01*
X235609611Y-104259646D01*
X235657230Y-104116789D01*
X235657230Y-103878694D01*
X234657230Y-105354884D02*
X234657230Y-104878694D01*
X235133421Y-104831075D01*
X235085802Y-104878694D01*
X235038183Y-104973932D01*
X235038183Y-105212027D01*
X235085802Y-105307265D01*
X235133421Y-105354884D01*
X235228659Y-105402503D01*
X235466754Y-105402503D01*
X235561992Y-105354884D01*
X235609611Y-105307265D01*
X235657230Y-105212027D01*
X235657230Y-104973932D01*
X235609611Y-104878694D01*
X235561992Y-104831075D01*
X234657230Y-105735837D02*
X234657230Y-106402503D01*
X235657230Y-105973932D01*
X178506990Y-103878694D02*
X177506990Y-103878694D01*
X177506990Y-104116789D01*
X177554610Y-104259646D01*
X177649848Y-104354884D01*
X177745086Y-104402503D01*
X177935562Y-104450122D01*
X178078419Y-104450122D01*
X178268895Y-104402503D01*
X178364133Y-104354884D01*
X178459371Y-104259646D01*
X178506990Y-104116789D01*
X178506990Y-103878694D01*
X177506990Y-105354884D02*
X177506990Y-104878694D01*
X177983181Y-104831075D01*
X177935562Y-104878694D01*
X177887943Y-104973932D01*
X177887943Y-105212027D01*
X177935562Y-105307265D01*
X177983181Y-105354884D01*
X178078419Y-105402503D01*
X178316514Y-105402503D01*
X178411752Y-105354884D01*
X178459371Y-105307265D01*
X178506990Y-105212027D01*
X178506990Y-104973932D01*
X178459371Y-104878694D01*
X178411752Y-104831075D01*
X177840324Y-106259646D02*
X178506990Y-106259646D01*
X177459371Y-106021551D02*
X178173657Y-105783456D01*
X178173657Y-106402503D01*
X121356750Y-103878694D02*
X120356750Y-103878694D01*
X120356750Y-104116789D01*
X120404370Y-104259646D01*
X120499608Y-104354884D01*
X120594846Y-104402503D01*
X120785322Y-104450122D01*
X120928179Y-104450122D01*
X121118655Y-104402503D01*
X121213893Y-104354884D01*
X121309131Y-104259646D01*
X121356750Y-104116789D01*
X121356750Y-103878694D01*
X120356750Y-105354884D02*
X120356750Y-104878694D01*
X120832941Y-104831075D01*
X120785322Y-104878694D01*
X120737703Y-104973932D01*
X120737703Y-105212027D01*
X120785322Y-105307265D01*
X120832941Y-105354884D01*
X120928179Y-105402503D01*
X121166274Y-105402503D01*
X121261512Y-105354884D01*
X121309131Y-105307265D01*
X121356750Y-105212027D01*
X121356750Y-104973932D01*
X121309131Y-104878694D01*
X121261512Y-104831075D01*
X121356750Y-106354884D02*
X121356750Y-105783456D01*
X121356750Y-106069170D02*
X120356750Y-106069170D01*
X120499608Y-105973932D01*
X120594846Y-105878694D01*
X120642465Y-105783456D01*
X102306670Y-103878694D02*
X101306670Y-103878694D01*
X101306670Y-104116789D01*
X101354290Y-104259646D01*
X101449528Y-104354884D01*
X101544766Y-104402503D01*
X101735242Y-104450122D01*
X101878099Y-104450122D01*
X102068575Y-104402503D01*
X102163813Y-104354884D01*
X102259051Y-104259646D01*
X102306670Y-104116789D01*
X102306670Y-103878694D01*
X101306670Y-105354884D02*
X101306670Y-104878694D01*
X101782861Y-104831075D01*
X101735242Y-104878694D01*
X101687623Y-104973932D01*
X101687623Y-105212027D01*
X101735242Y-105307265D01*
X101782861Y-105354884D01*
X101878099Y-105402503D01*
X102116194Y-105402503D01*
X102211432Y-105354884D01*
X102259051Y-105307265D01*
X102306670Y-105212027D01*
X102306670Y-104973932D01*
X102259051Y-104878694D01*
X102211432Y-104831075D01*
X101306670Y-106021551D02*
X101306670Y-106116789D01*
X101354290Y-106212027D01*
X101401909Y-106259646D01*
X101497147Y-106307265D01*
X101687623Y-106354884D01*
X101925718Y-106354884D01*
X102116194Y-106307265D01*
X102211432Y-106259646D01*
X102259051Y-106212027D01*
X102306670Y-106116789D01*
X102306670Y-106021551D01*
X102259051Y-105926313D01*
X102211432Y-105878694D01*
X102116194Y-105831075D01*
X101925718Y-105783456D01*
X101687623Y-105783456D01*
X101497147Y-105831075D01*
X101401909Y-105878694D01*
X101354290Y-105926313D01*
X101306670Y-106021551D01*
X140406830Y-103878694D02*
X139406830Y-103878694D01*
X139406830Y-104116789D01*
X139454450Y-104259646D01*
X139549688Y-104354884D01*
X139644926Y-104402503D01*
X139835402Y-104450122D01*
X139978259Y-104450122D01*
X140168735Y-104402503D01*
X140263973Y-104354884D01*
X140359211Y-104259646D01*
X140406830Y-104116789D01*
X140406830Y-103878694D01*
X139406830Y-105354884D02*
X139406830Y-104878694D01*
X139883021Y-104831075D01*
X139835402Y-104878694D01*
X139787783Y-104973932D01*
X139787783Y-105212027D01*
X139835402Y-105307265D01*
X139883021Y-105354884D01*
X139978259Y-105402503D01*
X140216354Y-105402503D01*
X140311592Y-105354884D01*
X140359211Y-105307265D01*
X140406830Y-105212027D01*
X140406830Y-104973932D01*
X140359211Y-104878694D01*
X140311592Y-104831075D01*
X139502069Y-105783456D02*
X139454450Y-105831075D01*
X139406830Y-105926313D01*
X139406830Y-106164408D01*
X139454450Y-106259646D01*
X139502069Y-106307265D01*
X139597307Y-106354884D01*
X139692545Y-106354884D01*
X139835402Y-106307265D01*
X140406830Y-105735837D01*
X140406830Y-106354884D01*
X286854320Y-103878694D02*
X285854320Y-103878694D01*
X285854320Y-104116789D01*
X285901940Y-104259646D01*
X285997178Y-104354884D01*
X286092416Y-104402503D01*
X286282892Y-104450122D01*
X286425749Y-104450122D01*
X286616225Y-104402503D01*
X286711463Y-104354884D01*
X286806701Y-104259646D01*
X286854320Y-104116789D01*
X286854320Y-103878694D01*
X285854320Y-105354884D02*
X285854320Y-104878694D01*
X286330511Y-104831075D01*
X286282892Y-104878694D01*
X286235273Y-104973932D01*
X286235273Y-105212027D01*
X286282892Y-105307265D01*
X286330511Y-105354884D01*
X286425749Y-105402503D01*
X286663844Y-105402503D01*
X286759082Y-105354884D01*
X286806701Y-105307265D01*
X286854320Y-105212027D01*
X286854320Y-104973932D01*
X286806701Y-104878694D01*
X286759082Y-104831075D01*
X286854320Y-105878694D02*
X286854320Y-106069170D01*
X286806701Y-106164408D01*
X286759082Y-106212027D01*
X286616225Y-106307265D01*
X286425749Y-106354884D01*
X286044797Y-106354884D01*
X285949559Y-106307265D01*
X285901940Y-106259646D01*
X285854320Y-106164408D01*
X285854320Y-105973932D01*
X285901940Y-105878694D01*
X285949559Y-105831075D01*
X286044797Y-105783456D01*
X286282892Y-105783456D01*
X286378130Y-105831075D01*
X286425749Y-105878694D01*
X286473368Y-105973932D01*
X286473368Y-106164408D01*
X286425749Y-106259646D01*
X286378130Y-106307265D01*
X286282892Y-106354884D01*
X159456910Y-103878694D02*
X158456910Y-103878694D01*
X158456910Y-104116789D01*
X158504530Y-104259646D01*
X158599768Y-104354884D01*
X158695006Y-104402503D01*
X158885482Y-104450122D01*
X159028339Y-104450122D01*
X159218815Y-104402503D01*
X159314053Y-104354884D01*
X159409291Y-104259646D01*
X159456910Y-104116789D01*
X159456910Y-103878694D01*
X158456910Y-105354884D02*
X158456910Y-104878694D01*
X158933101Y-104831075D01*
X158885482Y-104878694D01*
X158837863Y-104973932D01*
X158837863Y-105212027D01*
X158885482Y-105307265D01*
X158933101Y-105354884D01*
X159028339Y-105402503D01*
X159266434Y-105402503D01*
X159361672Y-105354884D01*
X159409291Y-105307265D01*
X159456910Y-105212027D01*
X159456910Y-104973932D01*
X159409291Y-104878694D01*
X159361672Y-104831075D01*
X158456910Y-105735837D02*
X158456910Y-106354884D01*
X158837863Y-106021551D01*
X158837863Y-106164408D01*
X158885482Y-106259646D01*
X158933101Y-106307265D01*
X159028339Y-106354884D01*
X159266434Y-106354884D01*
X159361672Y-106307265D01*
X159409291Y-106259646D01*
X159456910Y-106164408D01*
X159456910Y-105878694D01*
X159409291Y-105783456D01*
X159361672Y-105735837D01*
X83256590Y-103878694D02*
X82256590Y-103878694D01*
X82256590Y-104116789D01*
X82304210Y-104259646D01*
X82399448Y-104354884D01*
X82494686Y-104402503D01*
X82685162Y-104450122D01*
X82828019Y-104450122D01*
X83018495Y-104402503D01*
X83113733Y-104354884D01*
X83208971Y-104259646D01*
X83256590Y-104116789D01*
X83256590Y-103878694D01*
X82589924Y-105307265D02*
X83256590Y-105307265D01*
X82208971Y-105069170D02*
X82923257Y-104831075D01*
X82923257Y-105450122D01*
X83256590Y-105878694D02*
X83256590Y-106069170D01*
X83208971Y-106164408D01*
X83161352Y-106212027D01*
X83018495Y-106307265D01*
X82828019Y-106354884D01*
X82447067Y-106354884D01*
X82351829Y-106307265D01*
X82304210Y-106259646D01*
X82256590Y-106164408D01*
X82256590Y-105973932D01*
X82304210Y-105878694D01*
X82351829Y-105831075D01*
X82447067Y-105783456D01*
X82685162Y-105783456D01*
X82780400Y-105831075D01*
X82828019Y-105878694D01*
X82875638Y-105973932D01*
X82875638Y-106164408D01*
X82828019Y-106259646D01*
X82780400Y-106307265D01*
X82685162Y-106354884D01*
X64206510Y-103878694D02*
X63206510Y-103878694D01*
X63206510Y-104116789D01*
X63254130Y-104259646D01*
X63349368Y-104354884D01*
X63444606Y-104402503D01*
X63635082Y-104450122D01*
X63777939Y-104450122D01*
X63968415Y-104402503D01*
X64063653Y-104354884D01*
X64158891Y-104259646D01*
X64206510Y-104116789D01*
X64206510Y-103878694D01*
X63539844Y-105307265D02*
X64206510Y-105307265D01*
X63158891Y-105069170D02*
X63873177Y-104831075D01*
X63873177Y-105450122D01*
X63635082Y-105973932D02*
X63587463Y-105878694D01*
X63539844Y-105831075D01*
X63444606Y-105783456D01*
X63396987Y-105783456D01*
X63301749Y-105831075D01*
X63254130Y-105878694D01*
X63206510Y-105973932D01*
X63206510Y-106164408D01*
X63254130Y-106259646D01*
X63301749Y-106307265D01*
X63396987Y-106354884D01*
X63444606Y-106354884D01*
X63539844Y-106307265D01*
X63587463Y-106259646D01*
X63635082Y-106164408D01*
X63635082Y-105973932D01*
X63682701Y-105878694D01*
X63730320Y-105831075D01*
X63825558Y-105783456D01*
X64016034Y-105783456D01*
X64111272Y-105831075D01*
X64158891Y-105878694D01*
X64206510Y-105973932D01*
X64206510Y-106164408D01*
X64158891Y-106259646D01*
X64111272Y-106307265D01*
X64016034Y-106354884D01*
X63825558Y-106354884D01*
X63730320Y-106307265D01*
X63682701Y-106259646D01*
X63635082Y-106164408D01*
X45156430Y-103878694D02*
X44156430Y-103878694D01*
X44156430Y-104116789D01*
X44204050Y-104259646D01*
X44299288Y-104354884D01*
X44394526Y-104402503D01*
X44585002Y-104450122D01*
X44727859Y-104450122D01*
X44918335Y-104402503D01*
X45013573Y-104354884D01*
X45108811Y-104259646D01*
X45156430Y-104116789D01*
X45156430Y-103878694D01*
X44489764Y-105307265D02*
X45156430Y-105307265D01*
X44108811Y-105069170D02*
X44823097Y-104831075D01*
X44823097Y-105450122D01*
X44156430Y-106259646D02*
X44156430Y-106069170D01*
X44204050Y-105973932D01*
X44251669Y-105926313D01*
X44394526Y-105831075D01*
X44585002Y-105783456D01*
X44965954Y-105783456D01*
X45061192Y-105831075D01*
X45108811Y-105878694D01*
X45156430Y-105973932D01*
X45156430Y-106164408D01*
X45108811Y-106259646D01*
X45061192Y-106307265D01*
X44965954Y-106354884D01*
X44727859Y-106354884D01*
X44632621Y-106307265D01*
X44585002Y-106259646D01*
X44537383Y-106164408D01*
X44537383Y-105973932D01*
X44585002Y-105878694D01*
X44632621Y-105831075D01*
X44727859Y-105783456D01*
X268994870Y-103878694D02*
X267994870Y-103878694D01*
X267994870Y-104116789D01*
X268042490Y-104259646D01*
X268137728Y-104354884D01*
X268232966Y-104402503D01*
X268423442Y-104450122D01*
X268566299Y-104450122D01*
X268756775Y-104402503D01*
X268852013Y-104354884D01*
X268947251Y-104259646D01*
X268994870Y-104116789D01*
X268994870Y-103878694D01*
X267994870Y-105354884D02*
X267994870Y-104878694D01*
X268471061Y-104831075D01*
X268423442Y-104878694D01*
X268375823Y-104973932D01*
X268375823Y-105212027D01*
X268423442Y-105307265D01*
X268471061Y-105354884D01*
X268566299Y-105402503D01*
X268804394Y-105402503D01*
X268899632Y-105354884D01*
X268947251Y-105307265D01*
X268994870Y-105212027D01*
X268994870Y-104973932D01*
X268947251Y-104878694D01*
X268899632Y-104831075D01*
X268423442Y-105973932D02*
X268375823Y-105878694D01*
X268328204Y-105831075D01*
X268232966Y-105783456D01*
X268185347Y-105783456D01*
X268090109Y-105831075D01*
X268042490Y-105878694D01*
X267994870Y-105973932D01*
X267994870Y-106164408D01*
X268042490Y-106259646D01*
X268090109Y-106307265D01*
X268185347Y-106354884D01*
X268232966Y-106354884D01*
X268328204Y-106307265D01*
X268375823Y-106259646D01*
X268423442Y-106164408D01*
X268423442Y-105973932D01*
X268471061Y-105878694D01*
X268518680Y-105831075D01*
X268613918Y-105783456D01*
X268804394Y-105783456D01*
X268899632Y-105831075D01*
X268947251Y-105878694D01*
X268994870Y-105973932D01*
X268994870Y-106164408D01*
X268947251Y-106259646D01*
X268899632Y-106307265D01*
X268804394Y-106354884D01*
X268613918Y-106354884D01*
X268518680Y-106307265D01*
X268471061Y-106259646D01*
X268423442Y-106164408D01*
X31559654Y-95077800D02*
X31559654Y-95887324D01*
X31512035Y-95982562D01*
X31464416Y-96030181D01*
X31369178Y-96077800D01*
X31178702Y-96077800D01*
X31083464Y-96030181D01*
X31035845Y-95982562D01*
X30988226Y-95887324D01*
X30988226Y-95077800D01*
X30559654Y-95173039D02*
X30512035Y-95125420D01*
X30416797Y-95077800D01*
X30178702Y-95077800D01*
X30083464Y-95125420D01*
X30035845Y-95173039D01*
X29988226Y-95268277D01*
X29988226Y-95363515D01*
X30035845Y-95506372D01*
X30607273Y-96077800D01*
X29988226Y-96077800D01*
X18930916Y-96526880D02*
X19264250Y-96050690D01*
X19502345Y-96526880D02*
X19502345Y-95526880D01*
X19121392Y-95526880D01*
X19026154Y-95574500D01*
X18978535Y-95622119D01*
X18930916Y-95717357D01*
X18930916Y-95860214D01*
X18978535Y-95955452D01*
X19026154Y-96003071D01*
X19121392Y-96050690D01*
X19502345Y-96050690D01*
X18359488Y-95955452D02*
X18454726Y-95907833D01*
X18502345Y-95860214D01*
X18549964Y-95764976D01*
X18549964Y-95717357D01*
X18502345Y-95622119D01*
X18454726Y-95574500D01*
X18359488Y-95526880D01*
X18169011Y-95526880D01*
X18073773Y-95574500D01*
X18026154Y-95622119D01*
X17978535Y-95717357D01*
X17978535Y-95764976D01*
X18026154Y-95860214D01*
X18073773Y-95907833D01*
X18169011Y-95955452D01*
X18359488Y-95955452D01*
X18454726Y-96003071D01*
X18502345Y-96050690D01*
X18549964Y-96145928D01*
X18549964Y-96336404D01*
X18502345Y-96431642D01*
X18454726Y-96479261D01*
X18359488Y-96526880D01*
X18169011Y-96526880D01*
X18073773Y-96479261D01*
X18026154Y-96431642D01*
X17978535Y-96336404D01*
X17978535Y-96145928D01*
X18026154Y-96050690D01*
X18073773Y-96003071D01*
X18169011Y-95955452D01*
X287235427Y-111570400D02*
X287568760Y-111094210D01*
X287806855Y-111570400D02*
X287806855Y-110570400D01*
X287425903Y-110570400D01*
X287330665Y-110618020D01*
X287283046Y-110665639D01*
X287235427Y-110760877D01*
X287235427Y-110903734D01*
X287283046Y-110998972D01*
X287330665Y-111046591D01*
X287425903Y-111094210D01*
X287806855Y-111094210D01*
X286283046Y-110618020D02*
X286378284Y-110570400D01*
X286521141Y-110570400D01*
X286663998Y-110618020D01*
X286759236Y-110713258D01*
X286806855Y-110808496D01*
X286854474Y-110998972D01*
X286854474Y-111141829D01*
X286806855Y-111332305D01*
X286759236Y-111427543D01*
X286663998Y-111522781D01*
X286521141Y-111570400D01*
X286425903Y-111570400D01*
X286283046Y-111522781D01*
X286235427Y-111475162D01*
X286235427Y-111141829D01*
X286425903Y-111141829D01*
X285473522Y-111046591D02*
X285330665Y-111094210D01*
X285283046Y-111141829D01*
X285235427Y-111237067D01*
X285235427Y-111379924D01*
X285283046Y-111475162D01*
X285330665Y-111522781D01*
X285425903Y-111570400D01*
X285806855Y-111570400D01*
X285806855Y-110570400D01*
X285473522Y-110570400D01*
X285378284Y-110618020D01*
X285330665Y-110665639D01*
X285283046Y-110760877D01*
X285283046Y-110856115D01*
X285330665Y-110951353D01*
X285378284Y-110998972D01*
X285473522Y-111046591D01*
X285806855Y-111046591D01*
X284854474Y-110665639D02*
X284806855Y-110618020D01*
X284711617Y-110570400D01*
X284473522Y-110570400D01*
X284378284Y-110618020D01*
X284330665Y-110665639D01*
X284283046Y-110760877D01*
X284283046Y-110856115D01*
X284330665Y-110998972D01*
X284902093Y-111570400D01*
X284283046Y-111570400D01*
X283663998Y-110570400D02*
X283568760Y-110570400D01*
X283473522Y-110618020D01*
X283425903Y-110665639D01*
X283378284Y-110760877D01*
X283330665Y-110951353D01*
X283330665Y-111189448D01*
X283378284Y-111379924D01*
X283425903Y-111475162D01*
X283473522Y-111522781D01*
X283568760Y-111570400D01*
X283663998Y-111570400D01*
X283759236Y-111522781D01*
X283806855Y-111475162D01*
X283854474Y-111379924D01*
X283902093Y-111189448D01*
X283902093Y-110951353D01*
X283854474Y-110760877D01*
X283806855Y-110665639D01*
X283759236Y-110618020D01*
X283663998Y-110570400D01*
X289456855Y-113470400D02*
X290028284Y-113470400D01*
X289742570Y-113470400D02*
X289742570Y-112470400D01*
X289837808Y-112613258D01*
X289933046Y-112708496D01*
X290028284Y-112756115D01*
X270494730Y-123690612D02*
X270018540Y-123357279D01*
X270494730Y-123119184D02*
X269494730Y-123119184D01*
X269494730Y-123500136D01*
X269542350Y-123595374D01*
X269589969Y-123642993D01*
X269685207Y-123690612D01*
X269828064Y-123690612D01*
X269923302Y-123642993D01*
X269970921Y-123595374D01*
X270018540Y-123500136D01*
X270018540Y-123119184D01*
X269542350Y-124642993D02*
X269494730Y-124547755D01*
X269494730Y-124404898D01*
X269542350Y-124262041D01*
X269637588Y-124166803D01*
X269732826Y-124119184D01*
X269923302Y-124071565D01*
X270066159Y-124071565D01*
X270256635Y-124119184D01*
X270351873Y-124166803D01*
X270447111Y-124262041D01*
X270494730Y-124404898D01*
X270494730Y-124500136D01*
X270447111Y-124642993D01*
X270399492Y-124690612D01*
X270066159Y-124690612D01*
X270066159Y-124500136D01*
X269970921Y-125452517D02*
X270018540Y-125595374D01*
X270066159Y-125642993D01*
X270161397Y-125690612D01*
X270304254Y-125690612D01*
X270399492Y-125642993D01*
X270447111Y-125595374D01*
X270494730Y-125500136D01*
X270494730Y-125119184D01*
X269494730Y-125119184D01*
X269494730Y-125452517D01*
X269542350Y-125547755D01*
X269589969Y-125595374D01*
X269685207Y-125642993D01*
X269780445Y-125642993D01*
X269875683Y-125595374D01*
X269923302Y-125547755D01*
X269970921Y-125452517D01*
X269970921Y-125119184D01*
X270494730Y-126642993D02*
X270494730Y-126071565D01*
X270494730Y-126357279D02*
X269494730Y-126357279D01*
X269637588Y-126262041D01*
X269732826Y-126166803D01*
X269780445Y-126071565D01*
X270494730Y-127119184D02*
X270494730Y-127309660D01*
X270447111Y-127404898D01*
X270399492Y-127452517D01*
X270256635Y-127547755D01*
X270066159Y-127595374D01*
X269685207Y-127595374D01*
X269589969Y-127547755D01*
X269542350Y-127500136D01*
X269494730Y-127404898D01*
X269494730Y-127214422D01*
X269542350Y-127119184D01*
X269589969Y-127071565D01*
X269685207Y-127023946D01*
X269923302Y-127023946D01*
X270018540Y-127071565D01*
X270066159Y-127119184D01*
X270113778Y-127214422D01*
X270113778Y-127404898D01*
X270066159Y-127500136D01*
X270018540Y-127547755D01*
X269923302Y-127595374D01*
X268594730Y-129769184D02*
X268594730Y-129197755D01*
X268594730Y-129483470D02*
X267594730Y-129483470D01*
X267737588Y-129388231D01*
X267832826Y-129292993D01*
X267880445Y-129197755D01*
X215725890Y-123690832D02*
X215249700Y-123357499D01*
X215725890Y-123119404D02*
X214725890Y-123119404D01*
X214725890Y-123500356D01*
X214773510Y-123595594D01*
X214821129Y-123643213D01*
X214916367Y-123690832D01*
X215059224Y-123690832D01*
X215154462Y-123643213D01*
X215202081Y-123595594D01*
X215249700Y-123500356D01*
X215249700Y-123119404D01*
X214773510Y-124643213D02*
X214725890Y-124547975D01*
X214725890Y-124405118D01*
X214773510Y-124262261D01*
X214868748Y-124167023D01*
X214963986Y-124119404D01*
X215154462Y-124071785D01*
X215297319Y-124071785D01*
X215487795Y-124119404D01*
X215583033Y-124167023D01*
X215678271Y-124262261D01*
X215725890Y-124405118D01*
X215725890Y-124500356D01*
X215678271Y-124643213D01*
X215630652Y-124690832D01*
X215297319Y-124690832D01*
X215297319Y-124500356D01*
X215202081Y-125452737D02*
X215249700Y-125595594D01*
X215297319Y-125643213D01*
X215392557Y-125690832D01*
X215535414Y-125690832D01*
X215630652Y-125643213D01*
X215678271Y-125595594D01*
X215725890Y-125500356D01*
X215725890Y-125119404D01*
X214725890Y-125119404D01*
X214725890Y-125452737D01*
X214773510Y-125547975D01*
X214821129Y-125595594D01*
X214916367Y-125643213D01*
X215011605Y-125643213D01*
X215106843Y-125595594D01*
X215154462Y-125547975D01*
X215202081Y-125452737D01*
X215202081Y-125119404D01*
X215725890Y-126643213D02*
X215725890Y-126071785D01*
X215725890Y-126357499D02*
X214725890Y-126357499D01*
X214868748Y-126262261D01*
X214963986Y-126167023D01*
X215011605Y-126071785D01*
X215154462Y-127214642D02*
X215106843Y-127119404D01*
X215059224Y-127071785D01*
X214963986Y-127024166D01*
X214916367Y-127024166D01*
X214821129Y-127071785D01*
X214773510Y-127119404D01*
X214725890Y-127214642D01*
X214725890Y-127405118D01*
X214773510Y-127500356D01*
X214821129Y-127547975D01*
X214916367Y-127595594D01*
X214963986Y-127595594D01*
X215059224Y-127547975D01*
X215106843Y-127500356D01*
X215154462Y-127405118D01*
X215154462Y-127214642D01*
X215202081Y-127119404D01*
X215249700Y-127071785D01*
X215344938Y-127024166D01*
X215535414Y-127024166D01*
X215630652Y-127071785D01*
X215678271Y-127119404D01*
X215725890Y-127214642D01*
X215725890Y-127405118D01*
X215678271Y-127500356D01*
X215630652Y-127547975D01*
X215535414Y-127595594D01*
X215344938Y-127595594D01*
X215249700Y-127547975D01*
X215202081Y-127500356D01*
X215154462Y-127405118D01*
X213825890Y-129769404D02*
X213825890Y-129197975D01*
X213825890Y-129483690D02*
X212825890Y-129483690D01*
X212968748Y-129388451D01*
X213063986Y-129293213D01*
X213111605Y-129197975D01*
X166314605Y-123095297D02*
X165838415Y-122761964D01*
X166314605Y-122523869D02*
X165314605Y-122523869D01*
X165314605Y-122904821D01*
X165362225Y-123000059D01*
X165409844Y-123047678D01*
X165505082Y-123095297D01*
X165647939Y-123095297D01*
X165743177Y-123047678D01*
X165790796Y-123000059D01*
X165838415Y-122904821D01*
X165838415Y-122523869D01*
X165362225Y-124047678D02*
X165314605Y-123952440D01*
X165314605Y-123809583D01*
X165362225Y-123666726D01*
X165457463Y-123571488D01*
X165552701Y-123523869D01*
X165743177Y-123476250D01*
X165886034Y-123476250D01*
X166076510Y-123523869D01*
X166171748Y-123571488D01*
X166266986Y-123666726D01*
X166314605Y-123809583D01*
X166314605Y-123904821D01*
X166266986Y-124047678D01*
X166219367Y-124095297D01*
X165886034Y-124095297D01*
X165886034Y-123904821D01*
X165790796Y-124857202D02*
X165838415Y-125000059D01*
X165886034Y-125047678D01*
X165981272Y-125095297D01*
X166124129Y-125095297D01*
X166219367Y-125047678D01*
X166266986Y-125000059D01*
X166314605Y-124904821D01*
X166314605Y-124523869D01*
X165314605Y-124523869D01*
X165314605Y-124857202D01*
X165362225Y-124952440D01*
X165409844Y-125000059D01*
X165505082Y-125047678D01*
X165600320Y-125047678D01*
X165695558Y-125000059D01*
X165743177Y-124952440D01*
X165790796Y-124857202D01*
X165790796Y-124523869D01*
X166314605Y-126047678D02*
X166314605Y-125476250D01*
X166314605Y-125761964D02*
X165314605Y-125761964D01*
X165457463Y-125666726D01*
X165552701Y-125571488D01*
X165600320Y-125476250D01*
X165314605Y-126381012D02*
X165314605Y-127047678D01*
X166314605Y-126619107D01*
X164414605Y-129173869D02*
X164414605Y-128602440D01*
X164414605Y-128888155D02*
X163414605Y-128888155D01*
X163557463Y-128792916D01*
X163652701Y-128697678D01*
X163700320Y-128602440D01*
X124047380Y-123690832D02*
X123571190Y-123357499D01*
X124047380Y-123119404D02*
X123047380Y-123119404D01*
X123047380Y-123500356D01*
X123095000Y-123595594D01*
X123142619Y-123643213D01*
X123237857Y-123690832D01*
X123380714Y-123690832D01*
X123475952Y-123643213D01*
X123523571Y-123595594D01*
X123571190Y-123500356D01*
X123571190Y-123119404D01*
X123095000Y-124643213D02*
X123047380Y-124547975D01*
X123047380Y-124405118D01*
X123095000Y-124262261D01*
X123190238Y-124167023D01*
X123285476Y-124119404D01*
X123475952Y-124071785D01*
X123618809Y-124071785D01*
X123809285Y-124119404D01*
X123904523Y-124167023D01*
X123999761Y-124262261D01*
X124047380Y-124405118D01*
X124047380Y-124500356D01*
X123999761Y-124643213D01*
X123952142Y-124690832D01*
X123618809Y-124690832D01*
X123618809Y-124500356D01*
X123523571Y-125452737D02*
X123571190Y-125595594D01*
X123618809Y-125643213D01*
X123714047Y-125690832D01*
X123856904Y-125690832D01*
X123952142Y-125643213D01*
X123999761Y-125595594D01*
X124047380Y-125500356D01*
X124047380Y-125119404D01*
X123047380Y-125119404D01*
X123047380Y-125452737D01*
X123095000Y-125547975D01*
X123142619Y-125595594D01*
X123237857Y-125643213D01*
X123333095Y-125643213D01*
X123428333Y-125595594D01*
X123475952Y-125547975D01*
X123523571Y-125452737D01*
X123523571Y-125119404D01*
X124047380Y-126643213D02*
X124047380Y-126071785D01*
X124047380Y-126357499D02*
X123047380Y-126357499D01*
X123190238Y-126262261D01*
X123285476Y-126167023D01*
X123333095Y-126071785D01*
X123047380Y-127500356D02*
X123047380Y-127309880D01*
X123095000Y-127214642D01*
X123142619Y-127167023D01*
X123285476Y-127071785D01*
X123475952Y-127024166D01*
X123856904Y-127024166D01*
X123952142Y-127071785D01*
X123999761Y-127119404D01*
X124047380Y-127214642D01*
X124047380Y-127405118D01*
X123999761Y-127500356D01*
X123952142Y-127547975D01*
X123856904Y-127595594D01*
X123618809Y-127595594D01*
X123523571Y-127547975D01*
X123475952Y-127500356D01*
X123428333Y-127405118D01*
X123428333Y-127214642D01*
X123475952Y-127119404D01*
X123523571Y-127071785D01*
X123618809Y-127024166D01*
X122147380Y-129769404D02*
X122147380Y-129197975D01*
X122147380Y-129483690D02*
X121147380Y-129483690D01*
X121290238Y-129388451D01*
X121385476Y-129293213D01*
X121433095Y-129197975D01*
X93872260Y-123622092D02*
X93396070Y-123288759D01*
X93872260Y-123050664D02*
X92872260Y-123050664D01*
X92872260Y-123431616D01*
X92919880Y-123526854D01*
X92967499Y-123574473D01*
X93062737Y-123622092D01*
X93205594Y-123622092D01*
X93300832Y-123574473D01*
X93348451Y-123526854D01*
X93396070Y-123431616D01*
X93396070Y-123050664D01*
X92919880Y-124574473D02*
X92872260Y-124479235D01*
X92872260Y-124336378D01*
X92919880Y-124193521D01*
X93015118Y-124098283D01*
X93110356Y-124050664D01*
X93300832Y-124003045D01*
X93443689Y-124003045D01*
X93634165Y-124050664D01*
X93729403Y-124098283D01*
X93824641Y-124193521D01*
X93872260Y-124336378D01*
X93872260Y-124431616D01*
X93824641Y-124574473D01*
X93777022Y-124622092D01*
X93443689Y-124622092D01*
X93443689Y-124431616D01*
X93348451Y-125383997D02*
X93396070Y-125526854D01*
X93443689Y-125574473D01*
X93538927Y-125622092D01*
X93681784Y-125622092D01*
X93777022Y-125574473D01*
X93824641Y-125526854D01*
X93872260Y-125431616D01*
X93872260Y-125050664D01*
X92872260Y-125050664D01*
X92872260Y-125383997D01*
X92919880Y-125479235D01*
X92967499Y-125526854D01*
X93062737Y-125574473D01*
X93157975Y-125574473D01*
X93253213Y-125526854D01*
X93300832Y-125479235D01*
X93348451Y-125383997D01*
X93348451Y-125050664D01*
X93872260Y-126574473D02*
X93872260Y-126003045D01*
X93872260Y-126288759D02*
X92872260Y-126288759D01*
X93015118Y-126193521D01*
X93110356Y-126098283D01*
X93157975Y-126003045D01*
X92872260Y-127479235D02*
X92872260Y-127003045D01*
X93348451Y-126955426D01*
X93300832Y-127003045D01*
X93253213Y-127098283D01*
X93253213Y-127336378D01*
X93300832Y-127431616D01*
X93348451Y-127479235D01*
X93443689Y-127526854D01*
X93681784Y-127526854D01*
X93777022Y-127479235D01*
X93824641Y-127431616D01*
X93872260Y-127336378D01*
X93872260Y-127098283D01*
X93824641Y-127003045D01*
X93777022Y-126955426D01*
X91972260Y-129700664D02*
X91972260Y-129129235D01*
X91972260Y-129414950D02*
X90972260Y-129414950D01*
X91115118Y-129319711D01*
X91210356Y-129224473D01*
X91257975Y-129129235D01*
X52609580Y-123690832D02*
X52133390Y-123357499D01*
X52609580Y-123119404D02*
X51609580Y-123119404D01*
X51609580Y-123500356D01*
X51657200Y-123595594D01*
X51704819Y-123643213D01*
X51800057Y-123690832D01*
X51942914Y-123690832D01*
X52038152Y-123643213D01*
X52085771Y-123595594D01*
X52133390Y-123500356D01*
X52133390Y-123119404D01*
X51657200Y-124643213D02*
X51609580Y-124547975D01*
X51609580Y-124405118D01*
X51657200Y-124262261D01*
X51752438Y-124167023D01*
X51847676Y-124119404D01*
X52038152Y-124071785D01*
X52181009Y-124071785D01*
X52371485Y-124119404D01*
X52466723Y-124167023D01*
X52561961Y-124262261D01*
X52609580Y-124405118D01*
X52609580Y-124500356D01*
X52561961Y-124643213D01*
X52514342Y-124690832D01*
X52181009Y-124690832D01*
X52181009Y-124500356D01*
X52085771Y-125452737D02*
X52133390Y-125595594D01*
X52181009Y-125643213D01*
X52276247Y-125690832D01*
X52419104Y-125690832D01*
X52514342Y-125643213D01*
X52561961Y-125595594D01*
X52609580Y-125500356D01*
X52609580Y-125119404D01*
X51609580Y-125119404D01*
X51609580Y-125452737D01*
X51657200Y-125547975D01*
X51704819Y-125595594D01*
X51800057Y-125643213D01*
X51895295Y-125643213D01*
X51990533Y-125595594D01*
X52038152Y-125547975D01*
X52085771Y-125452737D01*
X52085771Y-125119404D01*
X52609580Y-126643213D02*
X52609580Y-126071785D01*
X52609580Y-126357499D02*
X51609580Y-126357499D01*
X51752438Y-126262261D01*
X51847676Y-126167023D01*
X51895295Y-126071785D01*
X51942914Y-127500356D02*
X52609580Y-127500356D01*
X51561961Y-127262261D02*
X52276247Y-127024166D01*
X52276247Y-127643213D01*
X50709580Y-129769404D02*
X50709580Y-129197975D01*
X50709580Y-129483690D02*
X49709580Y-129483690D01*
X49852438Y-129388451D01*
X49947676Y-129293213D01*
X49995295Y-129197975D01*
X20534307Y-118570400D02*
X20867640Y-118094210D01*
X21105735Y-118570400D02*
X21105735Y-117570400D01*
X20724783Y-117570400D01*
X20629545Y-117618020D01*
X20581926Y-117665639D01*
X20534307Y-117760877D01*
X20534307Y-117903734D01*
X20581926Y-117998972D01*
X20629545Y-118046591D01*
X20724783Y-118094210D01*
X21105735Y-118094210D01*
X19581926Y-117618020D02*
X19677164Y-117570400D01*
X19820021Y-117570400D01*
X19962878Y-117618020D01*
X20058116Y-117713258D01*
X20105735Y-117808496D01*
X20153354Y-117998972D01*
X20153354Y-118141829D01*
X20105735Y-118332305D01*
X20058116Y-118427543D01*
X19962878Y-118522781D01*
X19820021Y-118570400D01*
X19724783Y-118570400D01*
X19581926Y-118522781D01*
X19534307Y-118475162D01*
X19534307Y-118141829D01*
X19724783Y-118141829D01*
X18772402Y-118046591D02*
X18629545Y-118094210D01*
X18581926Y-118141829D01*
X18534307Y-118237067D01*
X18534307Y-118379924D01*
X18581926Y-118475162D01*
X18629545Y-118522781D01*
X18724783Y-118570400D01*
X19105735Y-118570400D01*
X19105735Y-117570400D01*
X18772402Y-117570400D01*
X18677164Y-117618020D01*
X18629545Y-117665639D01*
X18581926Y-117760877D01*
X18581926Y-117856115D01*
X18629545Y-117951353D01*
X18677164Y-117998972D01*
X18772402Y-118046591D01*
X19105735Y-118046591D01*
X17581926Y-118570400D02*
X18153354Y-118570400D01*
X17867640Y-118570400D02*
X17867640Y-117570400D01*
X17962878Y-117713258D01*
X18058116Y-117808496D01*
X18153354Y-117856115D01*
X17248592Y-117570400D02*
X16629545Y-117570400D01*
X16962878Y-117951353D01*
X16820021Y-117951353D01*
X16724783Y-117998972D01*
X16677164Y-118046591D01*
X16629545Y-118141829D01*
X16629545Y-118379924D01*
X16677164Y-118475162D01*
X16724783Y-118522781D01*
X16820021Y-118570400D01*
X17105735Y-118570400D01*
X17200973Y-118522781D01*
X17248592Y-118475162D01*
X14455735Y-116670400D02*
X15027164Y-116670400D01*
X14741450Y-116670400D02*
X14741450Y-115670400D01*
X14836688Y-115813258D01*
X14931926Y-115908496D01*
X15027164Y-115956115D01*
X2746900Y-90353192D02*
X2270710Y-90019859D01*
X2746900Y-89781764D02*
X1746900Y-89781764D01*
X1746900Y-90162716D01*
X1794520Y-90257954D01*
X1842139Y-90305573D01*
X1937377Y-90353192D01*
X2080234Y-90353192D01*
X2175472Y-90305573D01*
X2223091Y-90257954D01*
X2270710Y-90162716D01*
X2270710Y-89781764D01*
X1794520Y-91305573D02*
X1746900Y-91210335D01*
X1746900Y-91067478D01*
X1794520Y-90924621D01*
X1889758Y-90829383D01*
X1984996Y-90781764D01*
X2175472Y-90734145D01*
X2318329Y-90734145D01*
X2508805Y-90781764D01*
X2604043Y-90829383D01*
X2699281Y-90924621D01*
X2746900Y-91067478D01*
X2746900Y-91162716D01*
X2699281Y-91305573D01*
X2651662Y-91353192D01*
X2318329Y-91353192D01*
X2318329Y-91162716D01*
X2223091Y-92115097D02*
X2270710Y-92257954D01*
X2318329Y-92305573D01*
X2413567Y-92353192D01*
X2556424Y-92353192D01*
X2651662Y-92305573D01*
X2699281Y-92257954D01*
X2746900Y-92162716D01*
X2746900Y-91781764D01*
X1746900Y-91781764D01*
X1746900Y-92115097D01*
X1794520Y-92210335D01*
X1842139Y-92257954D01*
X1937377Y-92305573D01*
X2032615Y-92305573D01*
X2127853Y-92257954D01*
X2175472Y-92210335D01*
X2223091Y-92115097D01*
X2223091Y-91781764D01*
X2746900Y-93305573D02*
X2746900Y-92734145D01*
X2746900Y-93019859D02*
X1746900Y-93019859D01*
X1889758Y-92924621D01*
X1984996Y-92829383D01*
X2032615Y-92734145D01*
X1842139Y-93686526D02*
X1794520Y-93734145D01*
X1746900Y-93829383D01*
X1746900Y-94067478D01*
X1794520Y-94162716D01*
X1842139Y-94210335D01*
X1937377Y-94257954D01*
X2032615Y-94257954D01*
X2175472Y-94210335D01*
X2746900Y-93638907D01*
X2746900Y-94257954D01*
X4646900Y-88131764D02*
X4646900Y-87560335D01*
X4646900Y-87846050D02*
X3646900Y-87846050D01*
X3789758Y-87750811D01*
X3884996Y-87655573D01*
X3932615Y-87560335D01*
X2746900Y-72493742D02*
X2270710Y-72160409D01*
X2746900Y-71922314D02*
X1746900Y-71922314D01*
X1746900Y-72303266D01*
X1794520Y-72398504D01*
X1842139Y-72446123D01*
X1937377Y-72493742D01*
X2080234Y-72493742D01*
X2175472Y-72446123D01*
X2223091Y-72398504D01*
X2270710Y-72303266D01*
X2270710Y-71922314D01*
X1794520Y-73446123D02*
X1746900Y-73350885D01*
X1746900Y-73208028D01*
X1794520Y-73065171D01*
X1889758Y-72969933D01*
X1984996Y-72922314D01*
X2175472Y-72874695D01*
X2318329Y-72874695D01*
X2508805Y-72922314D01*
X2604043Y-72969933D01*
X2699281Y-73065171D01*
X2746900Y-73208028D01*
X2746900Y-73303266D01*
X2699281Y-73446123D01*
X2651662Y-73493742D01*
X2318329Y-73493742D01*
X2318329Y-73303266D01*
X2223091Y-74255647D02*
X2270710Y-74398504D01*
X2318329Y-74446123D01*
X2413567Y-74493742D01*
X2556424Y-74493742D01*
X2651662Y-74446123D01*
X2699281Y-74398504D01*
X2746900Y-74303266D01*
X2746900Y-73922314D01*
X1746900Y-73922314D01*
X1746900Y-74255647D01*
X1794520Y-74350885D01*
X1842139Y-74398504D01*
X1937377Y-74446123D01*
X2032615Y-74446123D01*
X2127853Y-74398504D01*
X2175472Y-74350885D01*
X2223091Y-74255647D01*
X2223091Y-73922314D01*
X2746900Y-75446123D02*
X2746900Y-74874695D01*
X2746900Y-75160409D02*
X1746900Y-75160409D01*
X1889758Y-75065171D01*
X1984996Y-74969933D01*
X2032615Y-74874695D01*
X2746900Y-76398504D02*
X2746900Y-75827076D01*
X2746900Y-76112790D02*
X1746900Y-76112790D01*
X1889758Y-76017552D01*
X1984996Y-75922314D01*
X2032615Y-75827076D01*
X4646900Y-70272314D02*
X4646900Y-69700885D01*
X4646900Y-69986600D02*
X3646900Y-69986600D01*
X3789758Y-69891361D01*
X3884996Y-69796123D01*
X3932615Y-69700885D01*
X302641880Y-92734452D02*
X302165690Y-92401119D01*
X302641880Y-92163024D02*
X301641880Y-92163024D01*
X301641880Y-92543976D01*
X301689500Y-92639214D01*
X301737119Y-92686833D01*
X301832357Y-92734452D01*
X301975214Y-92734452D01*
X302070452Y-92686833D01*
X302118071Y-92639214D01*
X302165690Y-92543976D01*
X302165690Y-92163024D01*
X301689500Y-93686833D02*
X301641880Y-93591595D01*
X301641880Y-93448738D01*
X301689500Y-93305881D01*
X301784738Y-93210643D01*
X301879976Y-93163024D01*
X302070452Y-93115405D01*
X302213309Y-93115405D01*
X302403785Y-93163024D01*
X302499023Y-93210643D01*
X302594261Y-93305881D01*
X302641880Y-93448738D01*
X302641880Y-93543976D01*
X302594261Y-93686833D01*
X302546642Y-93734452D01*
X302213309Y-93734452D01*
X302213309Y-93543976D01*
X302118071Y-94496357D02*
X302165690Y-94639214D01*
X302213309Y-94686833D01*
X302308547Y-94734452D01*
X302451404Y-94734452D01*
X302546642Y-94686833D01*
X302594261Y-94639214D01*
X302641880Y-94543976D01*
X302641880Y-94163024D01*
X301641880Y-94163024D01*
X301641880Y-94496357D01*
X301689500Y-94591595D01*
X301737119Y-94639214D01*
X301832357Y-94686833D01*
X301927595Y-94686833D01*
X302022833Y-94639214D01*
X302070452Y-94591595D01*
X302118071Y-94496357D01*
X302118071Y-94163024D01*
X302641880Y-95686833D02*
X302641880Y-95115405D01*
X302641880Y-95401119D02*
X301641880Y-95401119D01*
X301784738Y-95305881D01*
X301879976Y-95210643D01*
X301927595Y-95115405D01*
X301641880Y-96305881D02*
X301641880Y-96401119D01*
X301689500Y-96496357D01*
X301737119Y-96543976D01*
X301832357Y-96591595D01*
X302022833Y-96639214D01*
X302260928Y-96639214D01*
X302451404Y-96591595D01*
X302546642Y-96543976D01*
X302594261Y-96496357D01*
X302641880Y-96401119D01*
X302641880Y-96305881D01*
X302594261Y-96210643D01*
X302546642Y-96163024D01*
X302451404Y-96115405D01*
X302260928Y-96067786D01*
X302022833Y-96067786D01*
X301832357Y-96115405D01*
X301737119Y-96163024D01*
X301689500Y-96210643D01*
X301641880Y-96305881D01*
X300741880Y-98813024D02*
X300741880Y-98241595D01*
X300741880Y-98527310D02*
X299741880Y-98527310D01*
X299884738Y-98432071D01*
X299979976Y-98336833D01*
X300027595Y-98241595D01*
X302641880Y-74160563D02*
X302165690Y-73827230D01*
X302641880Y-73589134D02*
X301641880Y-73589134D01*
X301641880Y-73970087D01*
X301689500Y-74065325D01*
X301737119Y-74112944D01*
X301832357Y-74160563D01*
X301975214Y-74160563D01*
X302070452Y-74112944D01*
X302118071Y-74065325D01*
X302165690Y-73970087D01*
X302165690Y-73589134D01*
X301689500Y-75112944D02*
X301641880Y-75017706D01*
X301641880Y-74874849D01*
X301689500Y-74731991D01*
X301784738Y-74636753D01*
X301879976Y-74589134D01*
X302070452Y-74541515D01*
X302213309Y-74541515D01*
X302403785Y-74589134D01*
X302499023Y-74636753D01*
X302594261Y-74731991D01*
X302641880Y-74874849D01*
X302641880Y-74970087D01*
X302594261Y-75112944D01*
X302546642Y-75160563D01*
X302213309Y-75160563D01*
X302213309Y-74970087D01*
X302118071Y-75922468D02*
X302165690Y-76065325D01*
X302213309Y-76112944D01*
X302308547Y-76160563D01*
X302451404Y-76160563D01*
X302546642Y-76112944D01*
X302594261Y-76065325D01*
X302641880Y-75970087D01*
X302641880Y-75589134D01*
X301641880Y-75589134D01*
X301641880Y-75922468D01*
X301689500Y-76017706D01*
X301737119Y-76065325D01*
X301832357Y-76112944D01*
X301927595Y-76112944D01*
X302022833Y-76065325D01*
X302070452Y-76017706D01*
X302118071Y-75922468D01*
X302118071Y-75589134D01*
X302641880Y-76636753D02*
X302641880Y-76827230D01*
X302594261Y-76922468D01*
X302546642Y-76970087D01*
X302403785Y-77065325D01*
X302213309Y-77112944D01*
X301832357Y-77112944D01*
X301737119Y-77065325D01*
X301689500Y-77017706D01*
X301641880Y-76922468D01*
X301641880Y-76731991D01*
X301689500Y-76636753D01*
X301737119Y-76589134D01*
X301832357Y-76541515D01*
X302070452Y-76541515D01*
X302165690Y-76589134D01*
X302213309Y-76636753D01*
X302260928Y-76731991D01*
X302260928Y-76922468D01*
X302213309Y-77017706D01*
X302165690Y-77065325D01*
X302070452Y-77112944D01*
X300741880Y-79762944D02*
X300741880Y-79191515D01*
X300741880Y-79477230D02*
X299741880Y-79477230D01*
X299884738Y-79381991D01*
X299979976Y-79286753D01*
X300027595Y-79191515D01*
X286759236Y-54420160D02*
X287092570Y-53943970D01*
X287330665Y-54420160D02*
X287330665Y-53420160D01*
X286949712Y-53420160D01*
X286854474Y-53467780D01*
X286806855Y-53515399D01*
X286759236Y-53610637D01*
X286759236Y-53753494D01*
X286806855Y-53848732D01*
X286854474Y-53896351D01*
X286949712Y-53943970D01*
X287330665Y-53943970D01*
X285806855Y-53467780D02*
X285902093Y-53420160D01*
X286044950Y-53420160D01*
X286187808Y-53467780D01*
X286283046Y-53563018D01*
X286330665Y-53658256D01*
X286378284Y-53848732D01*
X286378284Y-53991589D01*
X286330665Y-54182065D01*
X286283046Y-54277303D01*
X286187808Y-54372541D01*
X286044950Y-54420160D01*
X285949712Y-54420160D01*
X285806855Y-54372541D01*
X285759236Y-54324922D01*
X285759236Y-53991589D01*
X285949712Y-53991589D01*
X284997331Y-53896351D02*
X284854474Y-53943970D01*
X284806855Y-53991589D01*
X284759236Y-54086827D01*
X284759236Y-54229684D01*
X284806855Y-54324922D01*
X284854474Y-54372541D01*
X284949712Y-54420160D01*
X285330665Y-54420160D01*
X285330665Y-53420160D01*
X284997331Y-53420160D01*
X284902093Y-53467780D01*
X284854474Y-53515399D01*
X284806855Y-53610637D01*
X284806855Y-53705875D01*
X284854474Y-53801113D01*
X284902093Y-53848732D01*
X284997331Y-53896351D01*
X285330665Y-53896351D01*
X284187808Y-53848732D02*
X284283046Y-53801113D01*
X284330665Y-53753494D01*
X284378284Y-53658256D01*
X284378284Y-53610637D01*
X284330665Y-53515399D01*
X284283046Y-53467780D01*
X284187808Y-53420160D01*
X283997331Y-53420160D01*
X283902093Y-53467780D01*
X283854474Y-53515399D01*
X283806855Y-53610637D01*
X283806855Y-53658256D01*
X283854474Y-53753494D01*
X283902093Y-53801113D01*
X283997331Y-53848732D01*
X284187808Y-53848732D01*
X284283046Y-53896351D01*
X284330665Y-53943970D01*
X284378284Y-54039208D01*
X284378284Y-54229684D01*
X284330665Y-54324922D01*
X284283046Y-54372541D01*
X284187808Y-54420160D01*
X283997331Y-54420160D01*
X283902093Y-54372541D01*
X283854474Y-54324922D01*
X283806855Y-54229684D01*
X283806855Y-54039208D01*
X283854474Y-53943970D01*
X283902093Y-53896351D01*
X283997331Y-53848732D01*
X289456855Y-56320160D02*
X290028284Y-56320160D01*
X289742570Y-56320160D02*
X289742570Y-55320160D01*
X289837808Y-55463018D01*
X289933046Y-55558256D01*
X290028284Y-55605875D01*
X244444790Y-45585443D02*
X243968600Y-45252110D01*
X244444790Y-45014014D02*
X243444790Y-45014014D01*
X243444790Y-45394967D01*
X243492410Y-45490205D01*
X243540029Y-45537824D01*
X243635267Y-45585443D01*
X243778124Y-45585443D01*
X243873362Y-45537824D01*
X243920981Y-45490205D01*
X243968600Y-45394967D01*
X243968600Y-45014014D01*
X243492410Y-46537824D02*
X243444790Y-46442586D01*
X243444790Y-46299729D01*
X243492410Y-46156871D01*
X243587648Y-46061633D01*
X243682886Y-46014014D01*
X243873362Y-45966395D01*
X244016219Y-45966395D01*
X244206695Y-46014014D01*
X244301933Y-46061633D01*
X244397171Y-46156871D01*
X244444790Y-46299729D01*
X244444790Y-46394967D01*
X244397171Y-46537824D01*
X244349552Y-46585443D01*
X244016219Y-46585443D01*
X244016219Y-46394967D01*
X243920981Y-47347348D02*
X243968600Y-47490205D01*
X244016219Y-47537824D01*
X244111457Y-47585443D01*
X244254314Y-47585443D01*
X244349552Y-47537824D01*
X244397171Y-47490205D01*
X244444790Y-47394967D01*
X244444790Y-47014014D01*
X243444790Y-47014014D01*
X243444790Y-47347348D01*
X243492410Y-47442586D01*
X243540029Y-47490205D01*
X243635267Y-47537824D01*
X243730505Y-47537824D01*
X243825743Y-47490205D01*
X243873362Y-47442586D01*
X243920981Y-47347348D01*
X243920981Y-47014014D01*
X243444790Y-47918776D02*
X243444790Y-48585443D01*
X244444790Y-48156871D01*
X246344790Y-42887824D02*
X246344790Y-42316395D01*
X246344790Y-42602110D02*
X245344790Y-42602110D01*
X245487648Y-42506871D01*
X245582886Y-42411633D01*
X245630505Y-42316395D01*
X206344630Y-45585443D02*
X205868440Y-45252110D01*
X206344630Y-45014014D02*
X205344630Y-45014014D01*
X205344630Y-45394967D01*
X205392250Y-45490205D01*
X205439869Y-45537824D01*
X205535107Y-45585443D01*
X205677964Y-45585443D01*
X205773202Y-45537824D01*
X205820821Y-45490205D01*
X205868440Y-45394967D01*
X205868440Y-45014014D01*
X205392250Y-46537824D02*
X205344630Y-46442586D01*
X205344630Y-46299729D01*
X205392250Y-46156871D01*
X205487488Y-46061633D01*
X205582726Y-46014014D01*
X205773202Y-45966395D01*
X205916059Y-45966395D01*
X206106535Y-46014014D01*
X206201773Y-46061633D01*
X206297011Y-46156871D01*
X206344630Y-46299729D01*
X206344630Y-46394967D01*
X206297011Y-46537824D01*
X206249392Y-46585443D01*
X205916059Y-46585443D01*
X205916059Y-46394967D01*
X205820821Y-47347348D02*
X205868440Y-47490205D01*
X205916059Y-47537824D01*
X206011297Y-47585443D01*
X206154154Y-47585443D01*
X206249392Y-47537824D01*
X206297011Y-47490205D01*
X206344630Y-47394967D01*
X206344630Y-47014014D01*
X205344630Y-47014014D01*
X205344630Y-47347348D01*
X205392250Y-47442586D01*
X205439869Y-47490205D01*
X205535107Y-47537824D01*
X205630345Y-47537824D01*
X205725583Y-47490205D01*
X205773202Y-47442586D01*
X205820821Y-47347348D01*
X205820821Y-47014014D01*
X205344630Y-48442586D02*
X205344630Y-48252110D01*
X205392250Y-48156871D01*
X205439869Y-48109252D01*
X205582726Y-48014014D01*
X205773202Y-47966395D01*
X206154154Y-47966395D01*
X206249392Y-48014014D01*
X206297011Y-48061633D01*
X206344630Y-48156871D01*
X206344630Y-48347348D01*
X206297011Y-48442586D01*
X206249392Y-48490205D01*
X206154154Y-48537824D01*
X205916059Y-48537824D01*
X205820821Y-48490205D01*
X205773202Y-48442586D01*
X205725583Y-48347348D01*
X205725583Y-48156871D01*
X205773202Y-48061633D01*
X205820821Y-48014014D01*
X205916059Y-47966395D01*
X208244630Y-42887824D02*
X208244630Y-42316395D01*
X208244630Y-42602110D02*
X207244630Y-42602110D01*
X207387488Y-42506871D01*
X207482726Y-42411633D01*
X207530345Y-42316395D01*
X168244470Y-45585443D02*
X167768280Y-45252110D01*
X168244470Y-45014014D02*
X167244470Y-45014014D01*
X167244470Y-45394967D01*
X167292090Y-45490205D01*
X167339709Y-45537824D01*
X167434947Y-45585443D01*
X167577804Y-45585443D01*
X167673042Y-45537824D01*
X167720661Y-45490205D01*
X167768280Y-45394967D01*
X167768280Y-45014014D01*
X167292090Y-46537824D02*
X167244470Y-46442586D01*
X167244470Y-46299729D01*
X167292090Y-46156871D01*
X167387328Y-46061633D01*
X167482566Y-46014014D01*
X167673042Y-45966395D01*
X167815899Y-45966395D01*
X168006375Y-46014014D01*
X168101613Y-46061633D01*
X168196851Y-46156871D01*
X168244470Y-46299729D01*
X168244470Y-46394967D01*
X168196851Y-46537824D01*
X168149232Y-46585443D01*
X167815899Y-46585443D01*
X167815899Y-46394967D01*
X167720661Y-47347348D02*
X167768280Y-47490205D01*
X167815899Y-47537824D01*
X167911137Y-47585443D01*
X168053994Y-47585443D01*
X168149232Y-47537824D01*
X168196851Y-47490205D01*
X168244470Y-47394967D01*
X168244470Y-47014014D01*
X167244470Y-47014014D01*
X167244470Y-47347348D01*
X167292090Y-47442586D01*
X167339709Y-47490205D01*
X167434947Y-47537824D01*
X167530185Y-47537824D01*
X167625423Y-47490205D01*
X167673042Y-47442586D01*
X167720661Y-47347348D01*
X167720661Y-47014014D01*
X167244470Y-48490205D02*
X167244470Y-48014014D01*
X167720661Y-47966395D01*
X167673042Y-48014014D01*
X167625423Y-48109252D01*
X167625423Y-48347348D01*
X167673042Y-48442586D01*
X167720661Y-48490205D01*
X167815899Y-48537824D01*
X168053994Y-48537824D01*
X168149232Y-48490205D01*
X168196851Y-48442586D01*
X168244470Y-48347348D01*
X168244470Y-48109252D01*
X168196851Y-48014014D01*
X168149232Y-47966395D01*
X170144470Y-42887824D02*
X170144470Y-42316395D01*
X170144470Y-42602110D02*
X169144470Y-42602110D01*
X169287328Y-42506871D01*
X169382566Y-42411633D01*
X169430185Y-42316395D01*
X130144310Y-45585443D02*
X129668120Y-45252110D01*
X130144310Y-45014014D02*
X129144310Y-45014014D01*
X129144310Y-45394967D01*
X129191930Y-45490205D01*
X129239549Y-45537824D01*
X129334787Y-45585443D01*
X129477644Y-45585443D01*
X129572882Y-45537824D01*
X129620501Y-45490205D01*
X129668120Y-45394967D01*
X129668120Y-45014014D01*
X129191930Y-46537824D02*
X129144310Y-46442586D01*
X129144310Y-46299729D01*
X129191930Y-46156871D01*
X129287168Y-46061633D01*
X129382406Y-46014014D01*
X129572882Y-45966395D01*
X129715739Y-45966395D01*
X129906215Y-46014014D01*
X130001453Y-46061633D01*
X130096691Y-46156871D01*
X130144310Y-46299729D01*
X130144310Y-46394967D01*
X130096691Y-46537824D01*
X130049072Y-46585443D01*
X129715739Y-46585443D01*
X129715739Y-46394967D01*
X129620501Y-47347348D02*
X129668120Y-47490205D01*
X129715739Y-47537824D01*
X129810977Y-47585443D01*
X129953834Y-47585443D01*
X130049072Y-47537824D01*
X130096691Y-47490205D01*
X130144310Y-47394967D01*
X130144310Y-47014014D01*
X129144310Y-47014014D01*
X129144310Y-47347348D01*
X129191930Y-47442586D01*
X129239549Y-47490205D01*
X129334787Y-47537824D01*
X129430025Y-47537824D01*
X129525263Y-47490205D01*
X129572882Y-47442586D01*
X129620501Y-47347348D01*
X129620501Y-47014014D01*
X129477644Y-48442586D02*
X130144310Y-48442586D01*
X129096691Y-48204490D02*
X129810977Y-47966395D01*
X129810977Y-48585443D01*
X132044310Y-42887824D02*
X132044310Y-42316395D01*
X132044310Y-42602110D02*
X131044310Y-42602110D01*
X131187168Y-42506871D01*
X131282406Y-42411633D01*
X131330025Y-42316395D01*
X92044150Y-45585443D02*
X91567960Y-45252110D01*
X92044150Y-45014014D02*
X91044150Y-45014014D01*
X91044150Y-45394967D01*
X91091770Y-45490205D01*
X91139389Y-45537824D01*
X91234627Y-45585443D01*
X91377484Y-45585443D01*
X91472722Y-45537824D01*
X91520341Y-45490205D01*
X91567960Y-45394967D01*
X91567960Y-45014014D01*
X91091770Y-46537824D02*
X91044150Y-46442586D01*
X91044150Y-46299729D01*
X91091770Y-46156871D01*
X91187008Y-46061633D01*
X91282246Y-46014014D01*
X91472722Y-45966395D01*
X91615579Y-45966395D01*
X91806055Y-46014014D01*
X91901293Y-46061633D01*
X91996531Y-46156871D01*
X92044150Y-46299729D01*
X92044150Y-46394967D01*
X91996531Y-46537824D01*
X91948912Y-46585443D01*
X91615579Y-46585443D01*
X91615579Y-46394967D01*
X91520341Y-47347348D02*
X91567960Y-47490205D01*
X91615579Y-47537824D01*
X91710817Y-47585443D01*
X91853674Y-47585443D01*
X91948912Y-47537824D01*
X91996531Y-47490205D01*
X92044150Y-47394967D01*
X92044150Y-47014014D01*
X91044150Y-47014014D01*
X91044150Y-47347348D01*
X91091770Y-47442586D01*
X91139389Y-47490205D01*
X91234627Y-47537824D01*
X91329865Y-47537824D01*
X91425103Y-47490205D01*
X91472722Y-47442586D01*
X91520341Y-47347348D01*
X91520341Y-47014014D01*
X91044150Y-47918776D02*
X91044150Y-48537824D01*
X91425103Y-48204490D01*
X91425103Y-48347348D01*
X91472722Y-48442586D01*
X91520341Y-48490205D01*
X91615579Y-48537824D01*
X91853674Y-48537824D01*
X91948912Y-48490205D01*
X91996531Y-48442586D01*
X92044150Y-48347348D01*
X92044150Y-48061633D01*
X91996531Y-47966395D01*
X91948912Y-47918776D01*
X93944150Y-42887824D02*
X93944150Y-42316395D01*
X93944150Y-42602110D02*
X92944150Y-42602110D01*
X93087008Y-42506871D01*
X93182246Y-42411633D01*
X93229865Y-42316395D01*
X53943990Y-45585443D02*
X53467800Y-45252110D01*
X53943990Y-45014014D02*
X52943990Y-45014014D01*
X52943990Y-45394967D01*
X52991610Y-45490205D01*
X53039229Y-45537824D01*
X53134467Y-45585443D01*
X53277324Y-45585443D01*
X53372562Y-45537824D01*
X53420181Y-45490205D01*
X53467800Y-45394967D01*
X53467800Y-45014014D01*
X52991610Y-46537824D02*
X52943990Y-46442586D01*
X52943990Y-46299729D01*
X52991610Y-46156871D01*
X53086848Y-46061633D01*
X53182086Y-46014014D01*
X53372562Y-45966395D01*
X53515419Y-45966395D01*
X53705895Y-46014014D01*
X53801133Y-46061633D01*
X53896371Y-46156871D01*
X53943990Y-46299729D01*
X53943990Y-46394967D01*
X53896371Y-46537824D01*
X53848752Y-46585443D01*
X53515419Y-46585443D01*
X53515419Y-46394967D01*
X53420181Y-47347348D02*
X53467800Y-47490205D01*
X53515419Y-47537824D01*
X53610657Y-47585443D01*
X53753514Y-47585443D01*
X53848752Y-47537824D01*
X53896371Y-47490205D01*
X53943990Y-47394967D01*
X53943990Y-47014014D01*
X52943990Y-47014014D01*
X52943990Y-47347348D01*
X52991610Y-47442586D01*
X53039229Y-47490205D01*
X53134467Y-47537824D01*
X53229705Y-47537824D01*
X53324943Y-47490205D01*
X53372562Y-47442586D01*
X53420181Y-47347348D01*
X53420181Y-47014014D01*
X53039229Y-47966395D02*
X52991610Y-48014014D01*
X52943990Y-48109252D01*
X52943990Y-48347348D01*
X52991610Y-48442586D01*
X53039229Y-48490205D01*
X53134467Y-48537824D01*
X53229705Y-48537824D01*
X53372562Y-48490205D01*
X53943990Y-47918776D01*
X53943990Y-48537824D01*
X55843990Y-42887824D02*
X55843990Y-42316395D01*
X55843990Y-42602110D02*
X54843990Y-42602110D01*
X54986848Y-42506871D01*
X55082086Y-42411633D01*
X55129705Y-42316395D01*
X20058116Y-54420160D02*
X20391450Y-53943970D01*
X20629545Y-54420160D02*
X20629545Y-53420160D01*
X20248592Y-53420160D01*
X20153354Y-53467780D01*
X20105735Y-53515399D01*
X20058116Y-53610637D01*
X20058116Y-53753494D01*
X20105735Y-53848732D01*
X20153354Y-53896351D01*
X20248592Y-53943970D01*
X20629545Y-53943970D01*
X19105735Y-53467780D02*
X19200973Y-53420160D01*
X19343830Y-53420160D01*
X19486688Y-53467780D01*
X19581926Y-53563018D01*
X19629545Y-53658256D01*
X19677164Y-53848732D01*
X19677164Y-53991589D01*
X19629545Y-54182065D01*
X19581926Y-54277303D01*
X19486688Y-54372541D01*
X19343830Y-54420160D01*
X19248592Y-54420160D01*
X19105735Y-54372541D01*
X19058116Y-54324922D01*
X19058116Y-53991589D01*
X19248592Y-53991589D01*
X18296211Y-53896351D02*
X18153354Y-53943970D01*
X18105735Y-53991589D01*
X18058116Y-54086827D01*
X18058116Y-54229684D01*
X18105735Y-54324922D01*
X18153354Y-54372541D01*
X18248592Y-54420160D01*
X18629545Y-54420160D01*
X18629545Y-53420160D01*
X18296211Y-53420160D01*
X18200973Y-53467780D01*
X18153354Y-53515399D01*
X18105735Y-53610637D01*
X18105735Y-53705875D01*
X18153354Y-53801113D01*
X18200973Y-53848732D01*
X18296211Y-53896351D01*
X18629545Y-53896351D01*
X17105735Y-54420160D02*
X17677164Y-54420160D01*
X17391450Y-54420160D02*
X17391450Y-53420160D01*
X17486688Y-53563018D01*
X17581926Y-53658256D01*
X17677164Y-53705875D01*
X22755735Y-56320160D02*
X23327164Y-56320160D01*
X23041450Y-56320160D02*
X23041450Y-55320160D01*
X23136688Y-55463018D01*
X23231926Y-55558256D01*
X23327164Y-55605875D01*
X287150077Y-44130242D02*
X287857183Y-43423135D01*
X287688825Y-43254776D01*
X287554138Y-43187433D01*
X287419451Y-43187433D01*
X287318435Y-43221105D01*
X287150077Y-43322120D01*
X287049061Y-43423135D01*
X286948046Y-43591494D01*
X286914374Y-43692509D01*
X286914374Y-43827196D01*
X286981718Y-43961883D01*
X287150077Y-44130242D01*
X286072580Y-43052746D02*
X286476641Y-43456807D01*
X286274611Y-43254776D02*
X286981718Y-42547669D01*
X286948046Y-42716028D01*
X286948046Y-42850715D01*
X286981718Y-42951731D01*
X286173596Y-41739547D02*
X286308283Y-41874234D01*
X286341954Y-41975250D01*
X286341954Y-42042593D01*
X286308283Y-42210952D01*
X286207267Y-42379311D01*
X285937893Y-42648685D01*
X285836878Y-42682356D01*
X285769535Y-42682356D01*
X285668519Y-42648685D01*
X285533832Y-42513998D01*
X285500161Y-42412982D01*
X285500161Y-42345639D01*
X285533832Y-42244624D01*
X285702191Y-42076265D01*
X285803206Y-42042593D01*
X285870550Y-42042593D01*
X285971565Y-42076265D01*
X286106252Y-42210952D01*
X286139924Y-42311967D01*
X286139924Y-42379311D01*
X286106252Y-42480326D01*
X286655212Y-47706817D02*
X287362318Y-46999710D01*
X287193960Y-46831351D01*
X287059273Y-46764008D01*
X286924586Y-46764008D01*
X286823570Y-46797680D01*
X286655212Y-46898695D01*
X286554196Y-46999710D01*
X286453181Y-47168069D01*
X286419509Y-47269084D01*
X286419509Y-47403771D01*
X286486853Y-47538458D01*
X286655212Y-47706817D01*
X285577715Y-46629321D02*
X285981776Y-47033382D01*
X285779746Y-46831351D02*
X286486853Y-46124244D01*
X286453181Y-46292603D01*
X286453181Y-46427290D01*
X286486853Y-46528306D01*
X285645059Y-45282451D02*
X285981776Y-45619168D01*
X285678731Y-45989557D01*
X285678731Y-45922214D01*
X285645059Y-45821199D01*
X285476700Y-45652840D01*
X285375685Y-45619168D01*
X285308341Y-45619168D01*
X285207326Y-45652840D01*
X285038967Y-45821199D01*
X285005296Y-45922214D01*
X285005296Y-45989557D01*
X285038967Y-46090573D01*
X285207326Y-46258931D01*
X285308341Y-46292603D01*
X285375685Y-46292603D01*
X239229120Y-65778534D02*
X238229120Y-65778534D01*
X238229120Y-66016629D01*
X238276740Y-66159486D01*
X238371978Y-66254724D01*
X238467216Y-66302343D01*
X238657692Y-66349962D01*
X238800549Y-66349962D01*
X238991025Y-66302343D01*
X239086263Y-66254724D01*
X239181501Y-66159486D01*
X239229120Y-66016629D01*
X239229120Y-65778534D01*
X239229120Y-67302343D02*
X239229120Y-66730915D01*
X239229120Y-67016629D02*
X238229120Y-67016629D01*
X238371978Y-66921391D01*
X238467216Y-66826153D01*
X238514835Y-66730915D01*
X238562454Y-68159486D02*
X239229120Y-68159486D01*
X238181501Y-67921391D02*
X238895787Y-67683296D01*
X238895787Y-68302343D01*
X197557070Y-103878694D02*
X196557070Y-103878694D01*
X196557070Y-104116789D01*
X196604690Y-104259646D01*
X196699928Y-104354884D01*
X196795166Y-104402503D01*
X196985642Y-104450122D01*
X197128499Y-104450122D01*
X197318975Y-104402503D01*
X197414213Y-104354884D01*
X197509451Y-104259646D01*
X197557070Y-104116789D01*
X197557070Y-103878694D01*
X196557070Y-105354884D02*
X196557070Y-104878694D01*
X197033261Y-104831075D01*
X196985642Y-104878694D01*
X196938023Y-104973932D01*
X196938023Y-105212027D01*
X196985642Y-105307265D01*
X197033261Y-105354884D01*
X197128499Y-105402503D01*
X197366594Y-105402503D01*
X197461832Y-105354884D01*
X197509451Y-105307265D01*
X197557070Y-105212027D01*
X197557070Y-104973932D01*
X197509451Y-104878694D01*
X197461832Y-104831075D01*
X196557070Y-106307265D02*
X196557070Y-105831075D01*
X197033261Y-105783456D01*
X196985642Y-105831075D01*
X196938023Y-105926313D01*
X196938023Y-106164408D01*
X196985642Y-106259646D01*
X197033261Y-106307265D01*
X197128499Y-106354884D01*
X197366594Y-106354884D01*
X197461832Y-106307265D01*
X197509451Y-106259646D01*
X197557070Y-106164408D01*
X197557070Y-105926313D01*
X197509451Y-105831075D01*
X197461832Y-105783456D01*
X289235580Y-84828614D02*
X288235580Y-84828614D01*
X288235580Y-85066709D01*
X288283200Y-85209566D01*
X288378438Y-85304804D01*
X288473676Y-85352423D01*
X288664152Y-85400042D01*
X288807009Y-85400042D01*
X288997485Y-85352423D01*
X289092723Y-85304804D01*
X289187961Y-85209566D01*
X289235580Y-85066709D01*
X289235580Y-84828614D01*
X288568914Y-86257185D02*
X289235580Y-86257185D01*
X288187961Y-86019090D02*
X288902247Y-85780995D01*
X288902247Y-86400042D01*
X288235580Y-86685757D02*
X288235580Y-87352423D01*
X289235580Y-86923852D01*
X286854320Y-84828614D02*
X285854320Y-84828614D01*
X285854320Y-85066709D01*
X285901940Y-85209566D01*
X285997178Y-85304804D01*
X286092416Y-85352423D01*
X286282892Y-85400042D01*
X286425749Y-85400042D01*
X286616225Y-85352423D01*
X286711463Y-85304804D01*
X286806701Y-85209566D01*
X286854320Y-85066709D01*
X286854320Y-84828614D01*
X286187654Y-86257185D02*
X286854320Y-86257185D01*
X285806701Y-86019090D02*
X286520987Y-85780995D01*
X286520987Y-86400042D01*
X285854320Y-87257185D02*
X285854320Y-86780995D01*
X286330511Y-86733376D01*
X286282892Y-86780995D01*
X286235273Y-86876233D01*
X286235273Y-87114328D01*
X286282892Y-87209566D01*
X286330511Y-87257185D01*
X286425749Y-87304804D01*
X286663844Y-87304804D01*
X286759082Y-87257185D01*
X286806701Y-87209566D01*
X286854320Y-87114328D01*
X286854320Y-86876233D01*
X286806701Y-86780995D01*
X286759082Y-86733376D01*
X243991640Y-84828614D02*
X242991640Y-84828614D01*
X242991640Y-85066709D01*
X243039260Y-85209566D01*
X243134498Y-85304804D01*
X243229736Y-85352423D01*
X243420212Y-85400042D01*
X243563069Y-85400042D01*
X243753545Y-85352423D01*
X243848783Y-85304804D01*
X243944021Y-85209566D01*
X243991640Y-85066709D01*
X243991640Y-84828614D01*
X243324974Y-86257185D02*
X243991640Y-86257185D01*
X242944021Y-86019090D02*
X243658307Y-85780995D01*
X243658307Y-86400042D01*
X242991640Y-86685757D02*
X242991640Y-87304804D01*
X243372593Y-86971471D01*
X243372593Y-87114328D01*
X243420212Y-87209566D01*
X243467831Y-87257185D01*
X243563069Y-87304804D01*
X243801164Y-87304804D01*
X243896402Y-87257185D01*
X243944021Y-87209566D01*
X243991640Y-87114328D01*
X243991640Y-86828614D01*
X243944021Y-86733376D01*
X243896402Y-86685757D01*
X226132190Y-84828614D02*
X225132190Y-84828614D01*
X225132190Y-85066709D01*
X225179810Y-85209566D01*
X225275048Y-85304804D01*
X225370286Y-85352423D01*
X225560762Y-85400042D01*
X225703619Y-85400042D01*
X225894095Y-85352423D01*
X225989333Y-85304804D01*
X226084571Y-85209566D01*
X226132190Y-85066709D01*
X226132190Y-84828614D01*
X225465524Y-86257185D02*
X226132190Y-86257185D01*
X225084571Y-86019090D02*
X225798857Y-85780995D01*
X225798857Y-86400042D01*
X225227429Y-86733376D02*
X225179810Y-86780995D01*
X225132190Y-86876233D01*
X225132190Y-87114328D01*
X225179810Y-87209566D01*
X225227429Y-87257185D01*
X225322667Y-87304804D01*
X225417905Y-87304804D01*
X225560762Y-87257185D01*
X226132190Y-86685757D01*
X226132190Y-87304804D01*
X207082110Y-84828614D02*
X206082110Y-84828614D01*
X206082110Y-85066709D01*
X206129730Y-85209566D01*
X206224968Y-85304804D01*
X206320206Y-85352423D01*
X206510682Y-85400042D01*
X206653539Y-85400042D01*
X206844015Y-85352423D01*
X206939253Y-85304804D01*
X207034491Y-85209566D01*
X207082110Y-85066709D01*
X207082110Y-84828614D01*
X206415444Y-86257185D02*
X207082110Y-86257185D01*
X206034491Y-86019090D02*
X206748777Y-85780995D01*
X206748777Y-86400042D01*
X207082110Y-87304804D02*
X207082110Y-86733376D01*
X207082110Y-87019090D02*
X206082110Y-87019090D01*
X206224968Y-86923852D01*
X206320206Y-86828614D01*
X206367825Y-86733376D01*
X188032030Y-84828614D02*
X187032030Y-84828614D01*
X187032030Y-85066709D01*
X187079650Y-85209566D01*
X187174888Y-85304804D01*
X187270126Y-85352423D01*
X187460602Y-85400042D01*
X187603459Y-85400042D01*
X187793935Y-85352423D01*
X187889173Y-85304804D01*
X187984411Y-85209566D01*
X188032030Y-85066709D01*
X188032030Y-84828614D01*
X187365364Y-86257185D02*
X188032030Y-86257185D01*
X186984411Y-86019090D02*
X187698697Y-85780995D01*
X187698697Y-86400042D01*
X187032030Y-86971471D02*
X187032030Y-87066709D01*
X187079650Y-87161947D01*
X187127269Y-87209566D01*
X187222507Y-87257185D01*
X187412983Y-87304804D01*
X187651078Y-87304804D01*
X187841554Y-87257185D01*
X187936792Y-87209566D01*
X187984411Y-87161947D01*
X188032030Y-87066709D01*
X188032030Y-86971471D01*
X187984411Y-86876233D01*
X187936792Y-86828614D01*
X187841554Y-86780995D01*
X187651078Y-86733376D01*
X187412983Y-86733376D01*
X187222507Y-86780995D01*
X187127269Y-86828614D01*
X187079650Y-86876233D01*
X187032030Y-86971471D01*
X168981950Y-84828614D02*
X167981950Y-84828614D01*
X167981950Y-85066709D01*
X168029570Y-85209566D01*
X168124808Y-85304804D01*
X168220046Y-85352423D01*
X168410522Y-85400042D01*
X168553379Y-85400042D01*
X168743855Y-85352423D01*
X168839093Y-85304804D01*
X168934331Y-85209566D01*
X168981950Y-85066709D01*
X168981950Y-84828614D01*
X167981950Y-85733376D02*
X167981950Y-86352423D01*
X168362903Y-86019090D01*
X168362903Y-86161947D01*
X168410522Y-86257185D01*
X168458141Y-86304804D01*
X168553379Y-86352423D01*
X168791474Y-86352423D01*
X168886712Y-86304804D01*
X168934331Y-86257185D01*
X168981950Y-86161947D01*
X168981950Y-85876233D01*
X168934331Y-85780995D01*
X168886712Y-85733376D01*
X168981950Y-86828614D02*
X168981950Y-87019090D01*
X168934331Y-87114328D01*
X168886712Y-87161947D01*
X168743855Y-87257185D01*
X168553379Y-87304804D01*
X168172427Y-87304804D01*
X168077189Y-87257185D01*
X168029570Y-87209566D01*
X167981950Y-87114328D01*
X167981950Y-86923852D01*
X168029570Y-86828614D01*
X168077189Y-86780995D01*
X168172427Y-86733376D01*
X168410522Y-86733376D01*
X168505760Y-86780995D01*
X168553379Y-86828614D01*
X168600998Y-86923852D01*
X168600998Y-87114328D01*
X168553379Y-87209566D01*
X168505760Y-87257185D01*
X168410522Y-87304804D01*
X149931870Y-84828614D02*
X148931870Y-84828614D01*
X148931870Y-85066709D01*
X148979490Y-85209566D01*
X149074728Y-85304804D01*
X149169966Y-85352423D01*
X149360442Y-85400042D01*
X149503299Y-85400042D01*
X149693775Y-85352423D01*
X149789013Y-85304804D01*
X149884251Y-85209566D01*
X149931870Y-85066709D01*
X149931870Y-84828614D01*
X148931870Y-85733376D02*
X148931870Y-86352423D01*
X149312823Y-86019090D01*
X149312823Y-86161947D01*
X149360442Y-86257185D01*
X149408061Y-86304804D01*
X149503299Y-86352423D01*
X149741394Y-86352423D01*
X149836632Y-86304804D01*
X149884251Y-86257185D01*
X149931870Y-86161947D01*
X149931870Y-85876233D01*
X149884251Y-85780995D01*
X149836632Y-85733376D01*
X149360442Y-86923852D02*
X149312823Y-86828614D01*
X149265204Y-86780995D01*
X149169966Y-86733376D01*
X149122347Y-86733376D01*
X149027109Y-86780995D01*
X148979490Y-86828614D01*
X148931870Y-86923852D01*
X148931870Y-87114328D01*
X148979490Y-87209566D01*
X149027109Y-87257185D01*
X149122347Y-87304804D01*
X149169966Y-87304804D01*
X149265204Y-87257185D01*
X149312823Y-87209566D01*
X149360442Y-87114328D01*
X149360442Y-86923852D01*
X149408061Y-86828614D01*
X149455680Y-86780995D01*
X149550918Y-86733376D01*
X149741394Y-86733376D01*
X149836632Y-86780995D01*
X149884251Y-86828614D01*
X149931870Y-86923852D01*
X149931870Y-87114328D01*
X149884251Y-87209566D01*
X149836632Y-87257185D01*
X149741394Y-87304804D01*
X149550918Y-87304804D01*
X149455680Y-87257185D01*
X149408061Y-87209566D01*
X149360442Y-87114328D01*
X113022340Y-84828614D02*
X112022340Y-84828614D01*
X112022340Y-85066709D01*
X112069960Y-85209566D01*
X112165198Y-85304804D01*
X112260436Y-85352423D01*
X112450912Y-85400042D01*
X112593769Y-85400042D01*
X112784245Y-85352423D01*
X112879483Y-85304804D01*
X112974721Y-85209566D01*
X113022340Y-85066709D01*
X113022340Y-84828614D01*
X112022340Y-85733376D02*
X112022340Y-86352423D01*
X112403293Y-86019090D01*
X112403293Y-86161947D01*
X112450912Y-86257185D01*
X112498531Y-86304804D01*
X112593769Y-86352423D01*
X112831864Y-86352423D01*
X112927102Y-86304804D01*
X112974721Y-86257185D01*
X113022340Y-86161947D01*
X113022340Y-85876233D01*
X112974721Y-85780995D01*
X112927102Y-85733376D01*
X112022340Y-86685757D02*
X112022340Y-87352423D01*
X113022340Y-86923852D01*
X110641080Y-84828614D02*
X109641080Y-84828614D01*
X109641080Y-85066709D01*
X109688700Y-85209566D01*
X109783938Y-85304804D01*
X109879176Y-85352423D01*
X110069652Y-85400042D01*
X110212509Y-85400042D01*
X110402985Y-85352423D01*
X110498223Y-85304804D01*
X110593461Y-85209566D01*
X110641080Y-85066709D01*
X110641080Y-84828614D01*
X109641080Y-85733376D02*
X109641080Y-86352423D01*
X110022033Y-86019090D01*
X110022033Y-86161947D01*
X110069652Y-86257185D01*
X110117271Y-86304804D01*
X110212509Y-86352423D01*
X110450604Y-86352423D01*
X110545842Y-86304804D01*
X110593461Y-86257185D01*
X110641080Y-86161947D01*
X110641080Y-85876233D01*
X110593461Y-85780995D01*
X110545842Y-85733376D01*
X109641080Y-87209566D02*
X109641080Y-87019090D01*
X109688700Y-86923852D01*
X109736319Y-86876233D01*
X109879176Y-86780995D01*
X110069652Y-86733376D01*
X110450604Y-86733376D01*
X110545842Y-86780995D01*
X110593461Y-86828614D01*
X110641080Y-86923852D01*
X110641080Y-87114328D01*
X110593461Y-87209566D01*
X110545842Y-87257185D01*
X110450604Y-87304804D01*
X110212509Y-87304804D01*
X110117271Y-87257185D01*
X110069652Y-87209566D01*
X110022033Y-87114328D01*
X110022033Y-86923852D01*
X110069652Y-86828614D01*
X110117271Y-86780995D01*
X110212509Y-86733376D01*
X92781630Y-84828614D02*
X91781630Y-84828614D01*
X91781630Y-85066709D01*
X91829250Y-85209566D01*
X91924488Y-85304804D01*
X92019726Y-85352423D01*
X92210202Y-85400042D01*
X92353059Y-85400042D01*
X92543535Y-85352423D01*
X92638773Y-85304804D01*
X92734011Y-85209566D01*
X92781630Y-85066709D01*
X92781630Y-84828614D01*
X91781630Y-85733376D02*
X91781630Y-86352423D01*
X92162583Y-86019090D01*
X92162583Y-86161947D01*
X92210202Y-86257185D01*
X92257821Y-86304804D01*
X92353059Y-86352423D01*
X92591154Y-86352423D01*
X92686392Y-86304804D01*
X92734011Y-86257185D01*
X92781630Y-86161947D01*
X92781630Y-85876233D01*
X92734011Y-85780995D01*
X92686392Y-85733376D01*
X91781630Y-87257185D02*
X91781630Y-86780995D01*
X92257821Y-86733376D01*
X92210202Y-86780995D01*
X92162583Y-86876233D01*
X92162583Y-87114328D01*
X92210202Y-87209566D01*
X92257821Y-87257185D01*
X92353059Y-87304804D01*
X92591154Y-87304804D01*
X92686392Y-87257185D01*
X92734011Y-87209566D01*
X92781630Y-87114328D01*
X92781630Y-86876233D01*
X92734011Y-86780995D01*
X92686392Y-86733376D01*
X73731550Y-84828614D02*
X72731550Y-84828614D01*
X72731550Y-85066709D01*
X72779170Y-85209566D01*
X72874408Y-85304804D01*
X72969646Y-85352423D01*
X73160122Y-85400042D01*
X73302979Y-85400042D01*
X73493455Y-85352423D01*
X73588693Y-85304804D01*
X73683931Y-85209566D01*
X73731550Y-85066709D01*
X73731550Y-84828614D01*
X72731550Y-85733376D02*
X72731550Y-86352423D01*
X73112503Y-86019090D01*
X73112503Y-86161947D01*
X73160122Y-86257185D01*
X73207741Y-86304804D01*
X73302979Y-86352423D01*
X73541074Y-86352423D01*
X73636312Y-86304804D01*
X73683931Y-86257185D01*
X73731550Y-86161947D01*
X73731550Y-85876233D01*
X73683931Y-85780995D01*
X73636312Y-85733376D01*
X73064884Y-87209566D02*
X73731550Y-87209566D01*
X72683931Y-86971471D02*
X73398217Y-86733376D01*
X73398217Y-87352423D01*
X53490505Y-84828214D02*
X52490505Y-84828214D01*
X52490505Y-85066309D01*
X52538125Y-85209166D01*
X52633363Y-85304404D01*
X52728601Y-85352023D01*
X52919077Y-85399642D01*
X53061934Y-85399642D01*
X53252410Y-85352023D01*
X53347648Y-85304404D01*
X53442886Y-85209166D01*
X53490505Y-85066309D01*
X53490505Y-84828214D01*
X52490505Y-85732976D02*
X52490505Y-86352023D01*
X52871458Y-86018690D01*
X52871458Y-86161547D01*
X52919077Y-86256785D01*
X52966696Y-86304404D01*
X53061934Y-86352023D01*
X53300029Y-86352023D01*
X53395267Y-86304404D01*
X53442886Y-86256785D01*
X53490505Y-86161547D01*
X53490505Y-85875833D01*
X53442886Y-85780595D01*
X53395267Y-85732976D01*
X52490505Y-86685357D02*
X52490505Y-87304404D01*
X52871458Y-86971071D01*
X52871458Y-87113928D01*
X52919077Y-87209166D01*
X52966696Y-87256785D01*
X53061934Y-87304404D01*
X53300029Y-87304404D01*
X53395267Y-87256785D01*
X53442886Y-87209166D01*
X53490505Y-87113928D01*
X53490505Y-86828214D01*
X53442886Y-86732976D01*
X53395267Y-86685357D01*
X55871755Y-84828214D02*
X54871755Y-84828214D01*
X54871755Y-85066309D01*
X54919375Y-85209166D01*
X55014613Y-85304404D01*
X55109851Y-85352023D01*
X55300327Y-85399642D01*
X55443184Y-85399642D01*
X55633660Y-85352023D01*
X55728898Y-85304404D01*
X55824136Y-85209166D01*
X55871755Y-85066309D01*
X55871755Y-84828214D01*
X54871755Y-85732976D02*
X54871755Y-86352023D01*
X55252708Y-86018690D01*
X55252708Y-86161547D01*
X55300327Y-86256785D01*
X55347946Y-86304404D01*
X55443184Y-86352023D01*
X55681279Y-86352023D01*
X55776517Y-86304404D01*
X55824136Y-86256785D01*
X55871755Y-86161547D01*
X55871755Y-85875833D01*
X55824136Y-85780595D01*
X55776517Y-85732976D01*
X54871755Y-86971071D02*
X54871755Y-87066309D01*
X54919375Y-87161547D01*
X54966994Y-87209166D01*
X55062232Y-87256785D01*
X55252708Y-87304404D01*
X55490803Y-87304404D01*
X55681279Y-87256785D01*
X55776517Y-87209166D01*
X55824136Y-87161547D01*
X55871755Y-87066309D01*
X55871755Y-86971071D01*
X55824136Y-86875833D01*
X55776517Y-86828214D01*
X55681279Y-86780595D01*
X55490803Y-86732976D01*
X55252708Y-86732976D01*
X55062232Y-86780595D01*
X54966994Y-86828214D01*
X54919375Y-86875833D01*
X54871755Y-86971071D01*
X289235580Y-65778534D02*
X288235580Y-65778534D01*
X288235580Y-66016629D01*
X288283200Y-66159486D01*
X288378438Y-66254724D01*
X288473676Y-66302343D01*
X288664152Y-66349962D01*
X288807009Y-66349962D01*
X288997485Y-66302343D01*
X289092723Y-66254724D01*
X289187961Y-66159486D01*
X289235580Y-66016629D01*
X289235580Y-65778534D01*
X288235580Y-66683296D02*
X288235580Y-67302343D01*
X288616533Y-66969010D01*
X288616533Y-67111867D01*
X288664152Y-67207105D01*
X288711771Y-67254724D01*
X288807009Y-67302343D01*
X289045104Y-67302343D01*
X289140342Y-67254724D01*
X289187961Y-67207105D01*
X289235580Y-67111867D01*
X289235580Y-66826153D01*
X289187961Y-66730915D01*
X289140342Y-66683296D01*
X288330819Y-67683296D02*
X288283200Y-67730915D01*
X288235580Y-67826153D01*
X288235580Y-68064248D01*
X288283200Y-68159486D01*
X288330819Y-68207105D01*
X288426057Y-68254724D01*
X288521295Y-68254724D01*
X288664152Y-68207105D01*
X289235580Y-67635677D01*
X289235580Y-68254724D01*
X246372900Y-84828614D02*
X245372900Y-84828614D01*
X245372900Y-85066709D01*
X245420520Y-85209566D01*
X245515758Y-85304804D01*
X245610996Y-85352423D01*
X245801472Y-85400042D01*
X245944329Y-85400042D01*
X246134805Y-85352423D01*
X246230043Y-85304804D01*
X246325281Y-85209566D01*
X246372900Y-85066709D01*
X246372900Y-84828614D01*
X245372900Y-85733376D02*
X245372900Y-86352423D01*
X245753853Y-86019090D01*
X245753853Y-86161947D01*
X245801472Y-86257185D01*
X245849091Y-86304804D01*
X245944329Y-86352423D01*
X246182424Y-86352423D01*
X246277662Y-86304804D01*
X246325281Y-86257185D01*
X246372900Y-86161947D01*
X246372900Y-85876233D01*
X246325281Y-85780995D01*
X246277662Y-85733376D01*
X246372900Y-87304804D02*
X246372900Y-86733376D01*
X246372900Y-87019090D02*
X245372900Y-87019090D01*
X245515758Y-86923852D01*
X245610996Y-86828614D01*
X245658615Y-86733376D01*
X241609480Y-65778214D02*
X240609480Y-65778214D01*
X240609480Y-66016309D01*
X240657100Y-66159166D01*
X240752338Y-66254404D01*
X240847576Y-66302023D01*
X241038052Y-66349642D01*
X241180909Y-66349642D01*
X241371385Y-66302023D01*
X241466623Y-66254404D01*
X241561861Y-66159166D01*
X241609480Y-66016309D01*
X241609480Y-65778214D01*
X240704719Y-66730595D02*
X240657100Y-66778214D01*
X240609480Y-66873452D01*
X240609480Y-67111547D01*
X240657100Y-67206785D01*
X240704719Y-67254404D01*
X240799957Y-67302023D01*
X240895195Y-67302023D01*
X241038052Y-67254404D01*
X241609480Y-66682976D01*
X241609480Y-67302023D01*
X241609480Y-67778214D02*
X241609480Y-67968690D01*
X241561861Y-68063928D01*
X241514242Y-68111547D01*
X241371385Y-68206785D01*
X241180909Y-68254404D01*
X240799957Y-68254404D01*
X240704719Y-68206785D01*
X240657100Y-68159166D01*
X240609480Y-68063928D01*
X240609480Y-67873452D01*
X240657100Y-67778214D01*
X240704719Y-67730595D01*
X240799957Y-67682976D01*
X241038052Y-67682976D01*
X241133290Y-67730595D01*
X241180909Y-67778214D01*
X241228528Y-67873452D01*
X241228528Y-68063928D01*
X241180909Y-68159166D01*
X241133290Y-68206785D01*
X241038052Y-68254404D01*
X222560300Y-65778534D02*
X221560300Y-65778534D01*
X221560300Y-66016629D01*
X221607920Y-66159486D01*
X221703158Y-66254724D01*
X221798396Y-66302343D01*
X221988872Y-66349962D01*
X222131729Y-66349962D01*
X222322205Y-66302343D01*
X222417443Y-66254724D01*
X222512681Y-66159486D01*
X222560300Y-66016629D01*
X222560300Y-65778534D01*
X221655539Y-66730915D02*
X221607920Y-66778534D01*
X221560300Y-66873772D01*
X221560300Y-67111867D01*
X221607920Y-67207105D01*
X221655539Y-67254724D01*
X221750777Y-67302343D01*
X221846015Y-67302343D01*
X221988872Y-67254724D01*
X222560300Y-66683296D01*
X222560300Y-67302343D01*
X221988872Y-67873772D02*
X221941253Y-67778534D01*
X221893634Y-67730915D01*
X221798396Y-67683296D01*
X221750777Y-67683296D01*
X221655539Y-67730915D01*
X221607920Y-67778534D01*
X221560300Y-67873772D01*
X221560300Y-68064248D01*
X221607920Y-68159486D01*
X221655539Y-68207105D01*
X221750777Y-68254724D01*
X221798396Y-68254724D01*
X221893634Y-68207105D01*
X221941253Y-68159486D01*
X221988872Y-68064248D01*
X221988872Y-67873772D01*
X222036491Y-67778534D01*
X222084110Y-67730915D01*
X222179348Y-67683296D01*
X222369824Y-67683296D01*
X222465062Y-67730915D01*
X222512681Y-67778534D01*
X222560300Y-67873772D01*
X222560300Y-68064248D01*
X222512681Y-68159486D01*
X222465062Y-68207105D01*
X222369824Y-68254724D01*
X222179348Y-68254724D01*
X222084110Y-68207105D01*
X222036491Y-68159486D01*
X221988872Y-68064248D01*
X220179040Y-65778534D02*
X219179040Y-65778534D01*
X219179040Y-66016629D01*
X219226660Y-66159486D01*
X219321898Y-66254724D01*
X219417136Y-66302343D01*
X219607612Y-66349962D01*
X219750469Y-66349962D01*
X219940945Y-66302343D01*
X220036183Y-66254724D01*
X220131421Y-66159486D01*
X220179040Y-66016629D01*
X220179040Y-65778534D01*
X219274279Y-66730915D02*
X219226660Y-66778534D01*
X219179040Y-66873772D01*
X219179040Y-67111867D01*
X219226660Y-67207105D01*
X219274279Y-67254724D01*
X219369517Y-67302343D01*
X219464755Y-67302343D01*
X219607612Y-67254724D01*
X220179040Y-66683296D01*
X220179040Y-67302343D01*
X219179040Y-67635677D02*
X219179040Y-68302343D01*
X220179040Y-67873772D01*
X202319590Y-65778534D02*
X201319590Y-65778534D01*
X201319590Y-66016629D01*
X201367210Y-66159486D01*
X201462448Y-66254724D01*
X201557686Y-66302343D01*
X201748162Y-66349962D01*
X201891019Y-66349962D01*
X202081495Y-66302343D01*
X202176733Y-66254724D01*
X202271971Y-66159486D01*
X202319590Y-66016629D01*
X202319590Y-65778534D01*
X201414829Y-66730915D02*
X201367210Y-66778534D01*
X201319590Y-66873772D01*
X201319590Y-67111867D01*
X201367210Y-67207105D01*
X201414829Y-67254724D01*
X201510067Y-67302343D01*
X201605305Y-67302343D01*
X201748162Y-67254724D01*
X202319590Y-66683296D01*
X202319590Y-67302343D01*
X201319590Y-68159486D02*
X201319590Y-67969010D01*
X201367210Y-67873772D01*
X201414829Y-67826153D01*
X201557686Y-67730915D01*
X201748162Y-67683296D01*
X202129114Y-67683296D01*
X202224352Y-67730915D01*
X202271971Y-67778534D01*
X202319590Y-67873772D01*
X202319590Y-68064248D01*
X202271971Y-68159486D01*
X202224352Y-68207105D01*
X202129114Y-68254724D01*
X201891019Y-68254724D01*
X201795781Y-68207105D01*
X201748162Y-68159486D01*
X201700543Y-68064248D01*
X201700543Y-67873772D01*
X201748162Y-67778534D01*
X201795781Y-67730915D01*
X201891019Y-67683296D01*
X183268806Y-65778214D02*
X182268806Y-65778214D01*
X182268806Y-66016309D01*
X182316426Y-66159166D01*
X182411664Y-66254404D01*
X182506902Y-66302023D01*
X182697378Y-66349642D01*
X182840235Y-66349642D01*
X183030711Y-66302023D01*
X183125949Y-66254404D01*
X183221187Y-66159166D01*
X183268806Y-66016309D01*
X183268806Y-65778214D01*
X182364045Y-66730595D02*
X182316426Y-66778214D01*
X182268806Y-66873452D01*
X182268806Y-67111547D01*
X182316426Y-67206785D01*
X182364045Y-67254404D01*
X182459283Y-67302023D01*
X182554521Y-67302023D01*
X182697378Y-67254404D01*
X183268806Y-66682976D01*
X183268806Y-67302023D01*
X182268806Y-68206785D02*
X182268806Y-67730595D01*
X182744997Y-67682976D01*
X182697378Y-67730595D01*
X182649759Y-67825833D01*
X182649759Y-68063928D01*
X182697378Y-68159166D01*
X182744997Y-68206785D01*
X182840235Y-68254404D01*
X183078330Y-68254404D01*
X183173568Y-68206785D01*
X183221187Y-68159166D01*
X183268806Y-68063928D01*
X183268806Y-67825833D01*
X183221187Y-67730595D01*
X183173568Y-67682976D01*
X164219430Y-65778534D02*
X163219430Y-65778534D01*
X163219430Y-66016629D01*
X163267050Y-66159486D01*
X163362288Y-66254724D01*
X163457526Y-66302343D01*
X163648002Y-66349962D01*
X163790859Y-66349962D01*
X163981335Y-66302343D01*
X164076573Y-66254724D01*
X164171811Y-66159486D01*
X164219430Y-66016629D01*
X164219430Y-65778534D01*
X163314669Y-66730915D02*
X163267050Y-66778534D01*
X163219430Y-66873772D01*
X163219430Y-67111867D01*
X163267050Y-67207105D01*
X163314669Y-67254724D01*
X163409907Y-67302343D01*
X163505145Y-67302343D01*
X163648002Y-67254724D01*
X164219430Y-66683296D01*
X164219430Y-67302343D01*
X163552764Y-68159486D02*
X164219430Y-68159486D01*
X163171811Y-67921391D02*
X163886097Y-67683296D01*
X163886097Y-68302343D01*
X145168774Y-65778214D02*
X144168774Y-65778214D01*
X144168774Y-66016309D01*
X144216394Y-66159166D01*
X144311632Y-66254404D01*
X144406870Y-66302023D01*
X144597346Y-66349642D01*
X144740203Y-66349642D01*
X144930679Y-66302023D01*
X145025917Y-66254404D01*
X145121155Y-66159166D01*
X145168774Y-66016309D01*
X145168774Y-65778214D01*
X144264013Y-66730595D02*
X144216394Y-66778214D01*
X144168774Y-66873452D01*
X144168774Y-67111547D01*
X144216394Y-67206785D01*
X144264013Y-67254404D01*
X144359251Y-67302023D01*
X144454489Y-67302023D01*
X144597346Y-67254404D01*
X145168774Y-66682976D01*
X145168774Y-67302023D01*
X144168774Y-67635357D02*
X144168774Y-68254404D01*
X144549727Y-67921071D01*
X144549727Y-68063928D01*
X144597346Y-68159166D01*
X144644965Y-68206785D01*
X144740203Y-68254404D01*
X144978298Y-68254404D01*
X145073536Y-68206785D01*
X145121155Y-68159166D01*
X145168774Y-68063928D01*
X145168774Y-67778214D01*
X145121155Y-67682976D01*
X145073536Y-67635357D01*
X126118758Y-65778214D02*
X125118758Y-65778214D01*
X125118758Y-66016309D01*
X125166378Y-66159166D01*
X125261616Y-66254404D01*
X125356854Y-66302023D01*
X125547330Y-66349642D01*
X125690187Y-66349642D01*
X125880663Y-66302023D01*
X125975901Y-66254404D01*
X126071139Y-66159166D01*
X126118758Y-66016309D01*
X126118758Y-65778214D01*
X125213997Y-66730595D02*
X125166378Y-66778214D01*
X125118758Y-66873452D01*
X125118758Y-67111547D01*
X125166378Y-67206785D01*
X125213997Y-67254404D01*
X125309235Y-67302023D01*
X125404473Y-67302023D01*
X125547330Y-67254404D01*
X126118758Y-66682976D01*
X126118758Y-67302023D01*
X125213997Y-67682976D02*
X125166378Y-67730595D01*
X125118758Y-67825833D01*
X125118758Y-68063928D01*
X125166378Y-68159166D01*
X125213997Y-68206785D01*
X125309235Y-68254404D01*
X125404473Y-68254404D01*
X125547330Y-68206785D01*
X126118758Y-67635357D01*
X126118758Y-68254404D01*
X107068742Y-65778214D02*
X106068742Y-65778214D01*
X106068742Y-66016309D01*
X106116362Y-66159166D01*
X106211600Y-66254404D01*
X106306838Y-66302023D01*
X106497314Y-66349642D01*
X106640171Y-66349642D01*
X106830647Y-66302023D01*
X106925885Y-66254404D01*
X107021123Y-66159166D01*
X107068742Y-66016309D01*
X107068742Y-65778214D01*
X106163981Y-66730595D02*
X106116362Y-66778214D01*
X106068742Y-66873452D01*
X106068742Y-67111547D01*
X106116362Y-67206785D01*
X106163981Y-67254404D01*
X106259219Y-67302023D01*
X106354457Y-67302023D01*
X106497314Y-67254404D01*
X107068742Y-66682976D01*
X107068742Y-67302023D01*
X107068742Y-68254404D02*
X107068742Y-67682976D01*
X107068742Y-67968690D02*
X106068742Y-67968690D01*
X106211600Y-67873452D01*
X106306838Y-67778214D01*
X106354457Y-67682976D01*
X88018726Y-65778214D02*
X87018726Y-65778214D01*
X87018726Y-66016309D01*
X87066346Y-66159166D01*
X87161584Y-66254404D01*
X87256822Y-66302023D01*
X87447298Y-66349642D01*
X87590155Y-66349642D01*
X87780631Y-66302023D01*
X87875869Y-66254404D01*
X87971107Y-66159166D01*
X88018726Y-66016309D01*
X88018726Y-65778214D01*
X87113965Y-66730595D02*
X87066346Y-66778214D01*
X87018726Y-66873452D01*
X87018726Y-67111547D01*
X87066346Y-67206785D01*
X87113965Y-67254404D01*
X87209203Y-67302023D01*
X87304441Y-67302023D01*
X87447298Y-67254404D01*
X88018726Y-66682976D01*
X88018726Y-67302023D01*
X87018726Y-67921071D02*
X87018726Y-68016309D01*
X87066346Y-68111547D01*
X87113965Y-68159166D01*
X87209203Y-68206785D01*
X87399679Y-68254404D01*
X87637774Y-68254404D01*
X87828250Y-68206785D01*
X87923488Y-68159166D01*
X87971107Y-68111547D01*
X88018726Y-68016309D01*
X88018726Y-67921071D01*
X87971107Y-67825833D01*
X87923488Y-67778214D01*
X87828250Y-67730595D01*
X87637774Y-67682976D01*
X87399679Y-67682976D01*
X87209203Y-67730595D01*
X87113965Y-67778214D01*
X87066346Y-67825833D01*
X87018726Y-67921071D01*
X68968710Y-65778214D02*
X67968710Y-65778214D01*
X67968710Y-66016309D01*
X68016330Y-66159166D01*
X68111568Y-66254404D01*
X68206806Y-66302023D01*
X68397282Y-66349642D01*
X68540139Y-66349642D01*
X68730615Y-66302023D01*
X68825853Y-66254404D01*
X68921091Y-66159166D01*
X68968710Y-66016309D01*
X68968710Y-65778214D01*
X68968710Y-67302023D02*
X68968710Y-66730595D01*
X68968710Y-67016309D02*
X67968710Y-67016309D01*
X68111568Y-66921071D01*
X68206806Y-66825833D01*
X68254425Y-66730595D01*
X68968710Y-67778214D02*
X68968710Y-67968690D01*
X68921091Y-68063928D01*
X68873472Y-68111547D01*
X68730615Y-68206785D01*
X68540139Y-68254404D01*
X68159187Y-68254404D01*
X68063949Y-68206785D01*
X68016330Y-68159166D01*
X67968710Y-68063928D01*
X67968710Y-67873452D01*
X68016330Y-67778214D01*
X68063949Y-67730595D01*
X68159187Y-67682976D01*
X68397282Y-67682976D01*
X68492520Y-67730595D01*
X68540139Y-67778214D01*
X68587758Y-67873452D01*
X68587758Y-68063928D01*
X68540139Y-68159166D01*
X68492520Y-68206785D01*
X68397282Y-68254404D01*
X49918950Y-65778534D02*
X48918950Y-65778534D01*
X48918950Y-66016629D01*
X48966570Y-66159486D01*
X49061808Y-66254724D01*
X49157046Y-66302343D01*
X49347522Y-66349962D01*
X49490379Y-66349962D01*
X49680855Y-66302343D01*
X49776093Y-66254724D01*
X49871331Y-66159486D01*
X49918950Y-66016629D01*
X49918950Y-65778534D01*
X49918950Y-67302343D02*
X49918950Y-66730915D01*
X49918950Y-67016629D02*
X48918950Y-67016629D01*
X49061808Y-66921391D01*
X49157046Y-66826153D01*
X49204665Y-66730915D01*
X49347522Y-67873772D02*
X49299903Y-67778534D01*
X49252284Y-67730915D01*
X49157046Y-67683296D01*
X49109427Y-67683296D01*
X49014189Y-67730915D01*
X48966570Y-67778534D01*
X48918950Y-67873772D01*
X48918950Y-68064248D01*
X48966570Y-68159486D01*
X49014189Y-68207105D01*
X49109427Y-68254724D01*
X49157046Y-68254724D01*
X49252284Y-68207105D01*
X49299903Y-68159486D01*
X49347522Y-68064248D01*
X49347522Y-67873772D01*
X49395141Y-67778534D01*
X49442760Y-67730915D01*
X49537998Y-67683296D01*
X49728474Y-67683296D01*
X49823712Y-67730915D01*
X49871331Y-67778534D01*
X49918950Y-67873772D01*
X49918950Y-68064248D01*
X49871331Y-68159486D01*
X49823712Y-68207105D01*
X49728474Y-68254724D01*
X49537998Y-68254724D01*
X49442760Y-68207105D01*
X49395141Y-68159486D01*
X49347522Y-68064248D01*
X8246900Y-65778534D02*
X7246900Y-65778534D01*
X7246900Y-66016629D01*
X7294520Y-66159486D01*
X7389758Y-66254724D01*
X7484996Y-66302343D01*
X7675472Y-66349962D01*
X7818329Y-66349962D01*
X8008805Y-66302343D01*
X8104043Y-66254724D01*
X8199281Y-66159486D01*
X8246900Y-66016629D01*
X8246900Y-65778534D01*
X8246900Y-67302343D02*
X8246900Y-66730915D01*
X8246900Y-67016629D02*
X7246900Y-67016629D01*
X7389758Y-66921391D01*
X7484996Y-66826153D01*
X7532615Y-66730915D01*
X7246900Y-67635677D02*
X7246900Y-68302343D01*
X8246900Y-67873772D01*
X20191945Y-45494880D02*
X20191945Y-46304404D01*
X20144326Y-46399642D01*
X20096707Y-46447261D01*
X20001469Y-46494880D01*
X19810992Y-46494880D01*
X19715754Y-46447261D01*
X19668135Y-46399642D01*
X19620516Y-46304404D01*
X19620516Y-45494880D01*
X19191945Y-46447261D02*
X19049088Y-46494880D01*
X18810992Y-46494880D01*
X18715754Y-46447261D01*
X18668135Y-46399642D01*
X18620516Y-46304404D01*
X18620516Y-46209166D01*
X18668135Y-46113928D01*
X18715754Y-46066309D01*
X18810992Y-46018690D01*
X19001469Y-45971071D01*
X19096707Y-45923452D01*
X19144326Y-45875833D01*
X19191945Y-45780595D01*
X19191945Y-45685357D01*
X19144326Y-45590119D01*
X19096707Y-45542500D01*
X19001469Y-45494880D01*
X18763373Y-45494880D01*
X18620516Y-45542500D01*
X17858611Y-45971071D02*
X17715754Y-46018690D01*
X17668135Y-46066309D01*
X17620516Y-46161547D01*
X17620516Y-46304404D01*
X17668135Y-46399642D01*
X17715754Y-46447261D01*
X17810992Y-46494880D01*
X18191945Y-46494880D01*
X18191945Y-45494880D01*
X17858611Y-45494880D01*
X17763373Y-45542500D01*
X17715754Y-45590119D01*
X17668135Y-45685357D01*
X17668135Y-45780595D01*
X17715754Y-45875833D01*
X17763373Y-45923452D01*
X17858611Y-45971071D01*
X18191945Y-45971071D01*
X16668135Y-46494880D02*
X17239564Y-46494880D01*
X16953850Y-46494880D02*
X16953850Y-45494880D01*
X17049088Y-45637738D01*
X17144326Y-45732976D01*
X17239564Y-45780595D01*
X31035570Y-80568320D02*
X31035570Y-81044510D01*
X31368903Y-80044510D02*
X31035570Y-80568320D01*
X30702237Y-80044510D01*
X29845094Y-81044510D02*
X30416522Y-81044510D01*
X30130808Y-81044510D02*
X30130808Y-80044510D01*
X30226046Y-80187368D01*
X30321284Y-80282606D01*
X30416522Y-80330225D01*
X24701665Y-74565248D02*
X24225475Y-74231915D01*
X24701665Y-73993819D02*
X23701665Y-73993819D01*
X23701665Y-74374772D01*
X23749285Y-74470010D01*
X23796904Y-74517629D01*
X23892142Y-74565248D01*
X24034999Y-74565248D01*
X24130237Y-74517629D01*
X24177856Y-74470010D01*
X24225475Y-74374772D01*
X24225475Y-73993819D01*
X23701665Y-75470010D02*
X23701665Y-74993819D01*
X24177856Y-74946200D01*
X24130237Y-74993819D01*
X24082618Y-75089057D01*
X24082618Y-75327153D01*
X24130237Y-75422391D01*
X24177856Y-75470010D01*
X24273094Y-75517629D01*
X24511189Y-75517629D01*
X24606427Y-75470010D01*
X24654046Y-75422391D01*
X24701665Y-75327153D01*
X24701665Y-75089057D01*
X24654046Y-74993819D01*
X24606427Y-74946200D01*
X38108196Y-43173230D02*
X38441530Y-42697040D01*
X38679625Y-43173230D02*
X38679625Y-42173230D01*
X38298672Y-42173230D01*
X38203434Y-42220850D01*
X38155815Y-42268469D01*
X38108196Y-42363707D01*
X38108196Y-42506564D01*
X38155815Y-42601802D01*
X38203434Y-42649421D01*
X38298672Y-42697040D01*
X38679625Y-42697040D01*
X37727244Y-42268469D02*
X37679625Y-42220850D01*
X37584387Y-42173230D01*
X37346291Y-42173230D01*
X37251053Y-42220850D01*
X37203434Y-42268469D01*
X37155815Y-42363707D01*
X37155815Y-42458945D01*
X37203434Y-42601802D01*
X37774863Y-43173230D01*
X37155815Y-43173230D01*
X38108196Y-40791970D02*
X38441530Y-40315780D01*
X38679625Y-40791970D02*
X38679625Y-39791970D01*
X38298672Y-39791970D01*
X38203434Y-39839590D01*
X38155815Y-39887209D01*
X38108196Y-39982447D01*
X38108196Y-40125304D01*
X38155815Y-40220542D01*
X38203434Y-40268161D01*
X38298672Y-40315780D01*
X38679625Y-40315780D01*
X37155815Y-40791970D02*
X37727244Y-40791970D01*
X37441530Y-40791970D02*
X37441530Y-39791970D01*
X37536768Y-39934828D01*
X37632006Y-40030066D01*
X37727244Y-40077685D01*
X232085340Y-46728454D02*
X231085340Y-46728454D01*
X231085340Y-46966549D01*
X231132960Y-47109406D01*
X231228198Y-47204644D01*
X231323436Y-47252263D01*
X231513912Y-47299882D01*
X231656769Y-47299882D01*
X231847245Y-47252263D01*
X231942483Y-47204644D01*
X232037721Y-47109406D01*
X232085340Y-46966549D01*
X232085340Y-46728454D01*
X232085340Y-48252263D02*
X232085340Y-47680835D01*
X232085340Y-47966549D02*
X231085340Y-47966549D01*
X231228198Y-47871311D01*
X231323436Y-47776073D01*
X231371055Y-47680835D01*
X231085340Y-48585597D02*
X231085340Y-49204644D01*
X231466293Y-48871311D01*
X231466293Y-49014168D01*
X231513912Y-49109406D01*
X231561531Y-49157025D01*
X231656769Y-49204644D01*
X231894864Y-49204644D01*
X231990102Y-49157025D01*
X232037721Y-49109406D01*
X232085340Y-49014168D01*
X232085340Y-48728454D01*
X232037721Y-48633216D01*
X231990102Y-48585597D01*
X229703220Y-46728214D02*
X228703220Y-46728214D01*
X228703220Y-46966309D01*
X228750840Y-47109166D01*
X228846078Y-47204404D01*
X228941316Y-47252023D01*
X229131792Y-47299642D01*
X229274649Y-47299642D01*
X229465125Y-47252023D01*
X229560363Y-47204404D01*
X229655601Y-47109166D01*
X229703220Y-46966309D01*
X229703220Y-46728214D01*
X229703220Y-48252023D02*
X229703220Y-47680595D01*
X229703220Y-47966309D02*
X228703220Y-47966309D01*
X228846078Y-47871071D01*
X228941316Y-47775833D01*
X228988935Y-47680595D01*
X228798459Y-48632976D02*
X228750840Y-48680595D01*
X228703220Y-48775833D01*
X228703220Y-49013928D01*
X228750840Y-49109166D01*
X228798459Y-49156785D01*
X228893697Y-49204404D01*
X228988935Y-49204404D01*
X229131792Y-49156785D01*
X229703220Y-48585357D01*
X229703220Y-49204404D01*
X193985180Y-46728214D02*
X192985180Y-46728214D01*
X192985180Y-46966309D01*
X193032800Y-47109166D01*
X193128038Y-47204404D01*
X193223276Y-47252023D01*
X193413752Y-47299642D01*
X193556609Y-47299642D01*
X193747085Y-47252023D01*
X193842323Y-47204404D01*
X193937561Y-47109166D01*
X193985180Y-46966309D01*
X193985180Y-46728214D01*
X193985180Y-48252023D02*
X193985180Y-47680595D01*
X193985180Y-47966309D02*
X192985180Y-47966309D01*
X193128038Y-47871071D01*
X193223276Y-47775833D01*
X193270895Y-47680595D01*
X193985180Y-49204404D02*
X193985180Y-48632976D01*
X193985180Y-48918690D02*
X192985180Y-48918690D01*
X193128038Y-48823452D01*
X193223276Y-48728214D01*
X193270895Y-48632976D01*
X191603188Y-46728214D02*
X190603188Y-46728214D01*
X190603188Y-46966309D01*
X190650808Y-47109166D01*
X190746046Y-47204404D01*
X190841284Y-47252023D01*
X191031760Y-47299642D01*
X191174617Y-47299642D01*
X191365093Y-47252023D01*
X191460331Y-47204404D01*
X191555569Y-47109166D01*
X191603188Y-46966309D01*
X191603188Y-46728214D01*
X191603188Y-48252023D02*
X191603188Y-47680595D01*
X191603188Y-47966309D02*
X190603188Y-47966309D01*
X190746046Y-47871071D01*
X190841284Y-47775833D01*
X190888903Y-47680595D01*
X190603188Y-48871071D02*
X190603188Y-48966309D01*
X190650808Y-49061547D01*
X190698427Y-49109166D01*
X190793665Y-49156785D01*
X190984141Y-49204404D01*
X191222236Y-49204404D01*
X191412712Y-49156785D01*
X191507950Y-49109166D01*
X191555569Y-49061547D01*
X191603188Y-48966309D01*
X191603188Y-48871071D01*
X191555569Y-48775833D01*
X191507950Y-48728214D01*
X191412712Y-48680595D01*
X191222236Y-48632976D01*
X190984141Y-48632976D01*
X190793665Y-48680595D01*
X190698427Y-48728214D01*
X190650808Y-48775833D01*
X190603188Y-48871071D01*
X155885020Y-47204404D02*
X154885020Y-47204404D01*
X154885020Y-47442500D01*
X154932640Y-47585357D01*
X155027878Y-47680595D01*
X155123116Y-47728214D01*
X155313592Y-47775833D01*
X155456449Y-47775833D01*
X155646925Y-47728214D01*
X155742163Y-47680595D01*
X155837401Y-47585357D01*
X155885020Y-47442500D01*
X155885020Y-47204404D01*
X155885020Y-48252023D02*
X155885020Y-48442500D01*
X155837401Y-48537738D01*
X155789782Y-48585357D01*
X155646925Y-48680595D01*
X155456449Y-48728214D01*
X155075497Y-48728214D01*
X154980259Y-48680595D01*
X154932640Y-48632976D01*
X154885020Y-48537738D01*
X154885020Y-48347261D01*
X154932640Y-48252023D01*
X154980259Y-48204404D01*
X155075497Y-48156785D01*
X155313592Y-48156785D01*
X155408830Y-48204404D01*
X155456449Y-48252023D01*
X155504068Y-48347261D01*
X155504068Y-48537738D01*
X155456449Y-48632976D01*
X155408830Y-48680595D01*
X155313592Y-48728214D01*
X153503156Y-47204404D02*
X152503156Y-47204404D01*
X152503156Y-47442500D01*
X152550776Y-47585357D01*
X152646014Y-47680595D01*
X152741252Y-47728214D01*
X152931728Y-47775833D01*
X153074585Y-47775833D01*
X153265061Y-47728214D01*
X153360299Y-47680595D01*
X153455537Y-47585357D01*
X153503156Y-47442500D01*
X153503156Y-47204404D01*
X152931728Y-48347261D02*
X152884109Y-48252023D01*
X152836490Y-48204404D01*
X152741252Y-48156785D01*
X152693633Y-48156785D01*
X152598395Y-48204404D01*
X152550776Y-48252023D01*
X152503156Y-48347261D01*
X152503156Y-48537738D01*
X152550776Y-48632976D01*
X152598395Y-48680595D01*
X152693633Y-48728214D01*
X152741252Y-48728214D01*
X152836490Y-48680595D01*
X152884109Y-48632976D01*
X152931728Y-48537738D01*
X152931728Y-48347261D01*
X152979347Y-48252023D01*
X153026966Y-48204404D01*
X153122204Y-48156785D01*
X153312680Y-48156785D01*
X153407918Y-48204404D01*
X153455537Y-48252023D01*
X153503156Y-48347261D01*
X153503156Y-48537738D01*
X153455537Y-48632976D01*
X153407918Y-48680595D01*
X153312680Y-48728214D01*
X153122204Y-48728214D01*
X153026966Y-48680595D01*
X152979347Y-48632976D01*
X152931728Y-48537738D01*
X117784860Y-47204404D02*
X116784860Y-47204404D01*
X116784860Y-47442500D01*
X116832480Y-47585357D01*
X116927718Y-47680595D01*
X117022956Y-47728214D01*
X117213432Y-47775833D01*
X117356289Y-47775833D01*
X117546765Y-47728214D01*
X117642003Y-47680595D01*
X117737241Y-47585357D01*
X117784860Y-47442500D01*
X117784860Y-47204404D01*
X116784860Y-48109166D02*
X116784860Y-48775833D01*
X117784860Y-48347261D01*
X115403124Y-47204404D02*
X114403124Y-47204404D01*
X114403124Y-47442500D01*
X114450744Y-47585357D01*
X114545982Y-47680595D01*
X114641220Y-47728214D01*
X114831696Y-47775833D01*
X114974553Y-47775833D01*
X115165029Y-47728214D01*
X115260267Y-47680595D01*
X115355505Y-47585357D01*
X115403124Y-47442500D01*
X115403124Y-47204404D01*
X114403124Y-48632976D02*
X114403124Y-48442500D01*
X114450744Y-48347261D01*
X114498363Y-48299642D01*
X114641220Y-48204404D01*
X114831696Y-48156785D01*
X115212648Y-48156785D01*
X115307886Y-48204404D01*
X115355505Y-48252023D01*
X115403124Y-48347261D01*
X115403124Y-48537738D01*
X115355505Y-48632976D01*
X115307886Y-48680595D01*
X115212648Y-48728214D01*
X114974553Y-48728214D01*
X114879315Y-48680595D01*
X114831696Y-48632976D01*
X114784077Y-48537738D01*
X114784077Y-48347261D01*
X114831696Y-48252023D01*
X114879315Y-48204404D01*
X114974553Y-48156785D01*
X79684700Y-47204644D02*
X78684700Y-47204644D01*
X78684700Y-47442740D01*
X78732320Y-47585597D01*
X78827558Y-47680835D01*
X78922796Y-47728454D01*
X79113272Y-47776073D01*
X79256129Y-47776073D01*
X79446605Y-47728454D01*
X79541843Y-47680835D01*
X79637081Y-47585597D01*
X79684700Y-47442740D01*
X79684700Y-47204644D01*
X78684700Y-48680835D02*
X78684700Y-48204644D01*
X79160891Y-48157025D01*
X79113272Y-48204644D01*
X79065653Y-48299882D01*
X79065653Y-48537978D01*
X79113272Y-48633216D01*
X79160891Y-48680835D01*
X79256129Y-48728454D01*
X79494224Y-48728454D01*
X79589462Y-48680835D01*
X79637081Y-48633216D01*
X79684700Y-48537978D01*
X79684700Y-48299882D01*
X79637081Y-48204644D01*
X79589462Y-48157025D01*
X77303092Y-47204404D02*
X76303092Y-47204404D01*
X76303092Y-47442500D01*
X76350712Y-47585357D01*
X76445950Y-47680595D01*
X76541188Y-47728214D01*
X76731664Y-47775833D01*
X76874521Y-47775833D01*
X77064997Y-47728214D01*
X77160235Y-47680595D01*
X77255473Y-47585357D01*
X77303092Y-47442500D01*
X77303092Y-47204404D01*
X76636426Y-48632976D02*
X77303092Y-48632976D01*
X76255473Y-48394880D02*
X76969759Y-48156785D01*
X76969759Y-48775833D01*
X41584540Y-47204644D02*
X40584540Y-47204644D01*
X40584540Y-47442740D01*
X40632160Y-47585597D01*
X40727398Y-47680835D01*
X40822636Y-47728454D01*
X41013112Y-47776073D01*
X41155969Y-47776073D01*
X41346445Y-47728454D01*
X41441683Y-47680835D01*
X41536921Y-47585597D01*
X41584540Y-47442740D01*
X41584540Y-47204644D01*
X40584540Y-48109406D02*
X40584540Y-48728454D01*
X40965493Y-48395120D01*
X40965493Y-48537978D01*
X41013112Y-48633216D01*
X41060731Y-48680835D01*
X41155969Y-48728454D01*
X41394064Y-48728454D01*
X41489302Y-48680835D01*
X41536921Y-48633216D01*
X41584540Y-48537978D01*
X41584540Y-48252263D01*
X41536921Y-48157025D01*
X41489302Y-48109406D01*
X39203280Y-47204644D02*
X38203280Y-47204644D01*
X38203280Y-47442740D01*
X38250900Y-47585597D01*
X38346138Y-47680835D01*
X38441376Y-47728454D01*
X38631852Y-47776073D01*
X38774709Y-47776073D01*
X38965185Y-47728454D01*
X39060423Y-47680835D01*
X39155661Y-47585597D01*
X39203280Y-47442740D01*
X39203280Y-47204644D01*
X38298519Y-48157025D02*
X38250900Y-48204644D01*
X38203280Y-48299882D01*
X38203280Y-48537978D01*
X38250900Y-48633216D01*
X38298519Y-48680835D01*
X38393757Y-48728454D01*
X38488995Y-48728454D01*
X38631852Y-48680835D01*
X39203280Y-48109406D01*
X39203280Y-48728454D01*
X6532615Y-51157640D02*
X6532615Y-50157640D01*
X6294520Y-50157640D01*
X6151662Y-50205260D01*
X6056424Y-50300498D01*
X6008805Y-50395736D01*
X5961186Y-50586212D01*
X5961186Y-50729069D01*
X6008805Y-50919545D01*
X6056424Y-51014783D01*
X6151662Y-51110021D01*
X6294520Y-51157640D01*
X6532615Y-51157640D01*
X5008805Y-51157640D02*
X5580234Y-51157640D01*
X5294520Y-51157640D02*
X5294520Y-50157640D01*
X5389758Y-50300498D01*
X5484996Y-50395736D01*
X5580234Y-50443355D01*
X26471546Y-83042272D02*
X26519165Y-83089891D01*
X26662022Y-83137510D01*
X26757260Y-83137510D01*
X26900118Y-83089891D01*
X26995356Y-82994653D01*
X27042975Y-82899415D01*
X27090594Y-82708939D01*
X27090594Y-82566082D01*
X27042975Y-82375606D01*
X26995356Y-82280368D01*
X26900118Y-82185130D01*
X26757260Y-82137510D01*
X26662022Y-82137510D01*
X26519165Y-82185130D01*
X26471546Y-82232749D01*
X25566784Y-82137510D02*
X26042975Y-82137510D01*
X26090594Y-82613701D01*
X26042975Y-82566082D01*
X25947737Y-82518463D01*
X25709641Y-82518463D01*
X25614403Y-82566082D01*
X25566784Y-82613701D01*
X25519165Y-82708939D01*
X25519165Y-82947034D01*
X25566784Y-83042272D01*
X25614403Y-83089891D01*
X25709641Y-83137510D01*
X25947737Y-83137510D01*
X26042975Y-83089891D01*
X26090594Y-83042272D01*
X26471546Y-81264272D02*
X26519165Y-81311891D01*
X26662022Y-81359510D01*
X26757260Y-81359510D01*
X26900118Y-81311891D01*
X26995356Y-81216653D01*
X27042975Y-81121415D01*
X27090594Y-80930939D01*
X27090594Y-80788082D01*
X27042975Y-80597606D01*
X26995356Y-80502368D01*
X26900118Y-80407130D01*
X26757260Y-80359510D01*
X26662022Y-80359510D01*
X26519165Y-80407130D01*
X26471546Y-80454749D01*
X26138213Y-80359510D02*
X25519165Y-80359510D01*
X25852499Y-80740463D01*
X25709641Y-80740463D01*
X25614403Y-80788082D01*
X25566784Y-80835701D01*
X25519165Y-80930939D01*
X25519165Y-81169034D01*
X25566784Y-81264272D01*
X25614403Y-81311891D01*
X25709641Y-81359510D01*
X25995356Y-81359510D01*
X26090594Y-81311891D01*
X26138213Y-81264272D01*
X35591522Y-82938963D02*
X35639141Y-82891344D01*
X35686760Y-82748487D01*
X35686760Y-82653249D01*
X35639141Y-82510391D01*
X35543903Y-82415153D01*
X35448665Y-82367534D01*
X35258189Y-82319915D01*
X35115332Y-82319915D01*
X34924856Y-82367534D01*
X34829618Y-82415153D01*
X34734380Y-82510391D01*
X34686760Y-82653249D01*
X34686760Y-82748487D01*
X34734380Y-82891344D01*
X34781999Y-82938963D01*
X34781999Y-83319915D02*
X34734380Y-83367534D01*
X34686760Y-83462772D01*
X34686760Y-83700868D01*
X34734380Y-83796106D01*
X34781999Y-83843725D01*
X34877237Y-83891344D01*
X34972475Y-83891344D01*
X35115332Y-83843725D01*
X35686760Y-83272296D01*
X35686760Y-83891344D01*
M02*
