M48
; DRILL file {KiCad (5.1.10)-1} date 07/14/21 12:47:50
; FORMAT={-:-/ absolute / metric / decimal}
; #@! TF.CreationDate,2021-07-14T12:47:50+07:00
; #@! TF.GenerationSoftware,Kicad,Pcbnew,(5.1.10)-1
FMAT,2
METRIC
T1C0.400
T2C0.600
T3C1.000
T4C1.040
T5C1.470
T6C1.500
T7C0.650
T8C1.750
T9C3.048
T10C3.988
%
G90
G05
T1
X5.683Y-97.218
X9.239Y-77.533
X9.366Y-52.768
X11.144Y-69.787
X11.157Y-76.53
X12.343Y-79.494
X13.708Y-56.808
X14.319Y-59.118
X16.004Y-49.392
X18.002Y-78.803
X20.161Y-47.561
X20.86Y-76.517
X20.904Y-48.724
X21.05Y-74.612
X22.552Y-79.566
X24.249Y-61.04
X24.606Y-86.454
X25.178Y-54.102
X25.241Y-85.28
X25.495Y-94.805
X26.003Y-90.205
X27.242Y-103.441
X31.417Y-53.276
X31.988Y-80.685
X33.515Y-50.844
X33.774Y-80.685
X34.004Y-53.276
X37.433Y-95.186
X38.957Y-88.075
X40.735Y-103.441
X41.688Y-54.102
X44.056Y-69.894
X52.229Y-110.451
X53.435Y-82.105
X56.801Y-47.942
X56.801Y-54.102
X56.992Y-72.351
X60.563Y-49.729
X61.754Y-91.401
X71.279Y-111.046
X76.042Y-72.351
X80.804Y-91.401
X93.306Y-41.394
X95.092Y-72.351
X95.687Y-111.046
X98.664Y-49.729
X99.854Y-91.401
X109.379Y-111.046
X114.142Y-72.351
X118.904Y-91.401
X121.881Y-130.692
X128.429Y-111.046
X131.477Y-42.291
X133.192Y-72.351
X133.636Y-42.545
X134.863Y-46.545
X137.359Y-91.401
X139.74Y-49.729
X152.242Y-72.351
X153.433Y-50.531
X157.005Y-91.401
X162.958Y-54.491
X169.506Y-41.394
X171.292Y-72.351
X174.864Y-49.729
X176.055Y-91.401
X182.008Y-54.491
X190.342Y-72.351
X190.342Y-111.046
X190.342Y-130.692
X195.105Y-91.401
X200.463Y-54.491
X205.82Y-130.691
X207.606Y-41.394
X209.392Y-72.351
X212.964Y-49.729
X214.155Y-91.401
X214.75Y-111.046
X219.513Y-54.491
X223.68Y-130.691
X227.252Y-130.691
X233.205Y-111.046
X236.777Y-62.23
X238.563Y-54.491
X243.427Y-45.402
X245.135Y-83.178
X245.363Y-111.962
X246.805Y-46.317
X247.351Y-80.962
X247.492Y-41.394
X247.974Y-46.317
X249.874Y-75.923
X251.064Y-49.729
X258.231Y-59.571
X258.77Y-58.871
X281.718Y-41.783
X286.783Y-113.427
X286.783Y-126.524
X287.974Y-119.976
X287.974Y-122.952
X292.069Y-110.996
X292.513Y-111.697
X300.069Y-99.807
X302.284Y-98.822
T3
X143.478Y-53.276
X146.018Y-53.276
X148.558Y-53.276
X151.098Y-53.276
X153.638Y-53.276
X156.178Y-53.276
X292.616Y-40.942
X292.616Y-55.442
X295.116Y-55.442
X297.616Y-40.942
X297.616Y-55.442
T4
X10.478Y-91.123
X13.018Y-91.123
X15.24Y-91.123
X17.78Y-91.123
T5
X5.556Y-45.402
X7.938Y-83.502
X7.938Y-121.603
X10.319Y-64.453
X10.319Y-121.603
X11.906Y-42.862
X12.7Y-83.502
X14.288Y-80.962
X14.288Y-119.063
X16.669Y-61.912
X16.669Y-119.063
X17.463Y-102.552
X19.05Y-80.962
X23.813Y-100.012
X24.606Y-45.402
X30.956Y-42.862
X31.75Y-121.603
X34.131Y-64.453
X34.132Y-121.603
X38.1Y-119.063
X38.894Y-83.502
X40.481Y-61.912
X40.482Y-119.063
X43.656Y-45.402
X45.244Y-80.962
X48.419Y-102.552
X50.006Y-42.862
X53.181Y-64.453
X54.769Y-100.012
X55.563Y-121.603
X57.944Y-83.502
X57.944Y-121.603
X59.531Y-61.912
X61.913Y-119.063
X62.706Y-45.402
X64.294Y-80.962
X64.294Y-119.063
X67.469Y-102.552
X69.056Y-42.862
X72.231Y-64.453
X73.819Y-100.012
X76.994Y-83.502
X78.581Y-61.912
X81.756Y-45.402
X83.344Y-80.962
X86.519Y-102.552
X88.106Y-42.862
X91.281Y-64.453
X92.869Y-100.012
X96.044Y-83.502
X97.631Y-61.912
X100.806Y-45.402
X102.394Y-80.962
X105.569Y-102.552
X107.156Y-42.862
X110.331Y-64.453
X111.919Y-100.012
X115.094Y-83.502
X116.681Y-61.912
X119.856Y-45.402
X121.444Y-80.962
X124.619Y-102.552
X126.206Y-42.862
X127.001Y-121.603
X129.381Y-64.453
X130.969Y-100.012
X133.351Y-119.063
X134.144Y-83.502
X135.731Y-61.912
X138.906Y-45.402
X138.907Y-121.603
X140.494Y-80.962
X143.669Y-102.552
X145.256Y-42.862
X145.257Y-119.063
X148.431Y-64.453
X150.019Y-100.012
X153.194Y-83.502
X154.781Y-61.912
X157.956Y-45.402
X159.544Y-80.962
X162.719Y-102.552
X164.306Y-42.862
X167.481Y-64.453
X169.069Y-100.012
X172.244Y-83.502
X173.831Y-61.912
X177.006Y-45.402
X178.594Y-80.962
X181.769Y-102.552
X183.356Y-42.862
X186.531Y-64.453
X188.119Y-100.012
X191.294Y-83.502
X192.881Y-61.912
X196.056Y-45.402
X197.644Y-80.962
X198.438Y-121.603
X200.819Y-102.552
X202.406Y-42.862
X204.788Y-119.063
X205.581Y-64.453
X207.169Y-100.012
X210.344Y-83.502
X211.931Y-61.912
X215.106Y-45.402
X216.694Y-80.962
X219.869Y-102.552
X219.87Y-121.603
X221.456Y-42.862
X222.251Y-121.603
X224.631Y-64.453
X226.219Y-100.012
X226.22Y-119.063
X228.601Y-119.063
X229.394Y-83.502
X230.981Y-61.912
X234.156Y-45.402
X235.744Y-80.962
X240.506Y-42.862
X243.681Y-64.453
X246.063Y-102.552
X248.444Y-83.502
X250.031Y-61.912
X252.413Y-100.012
X253.206Y-45.402
X253.207Y-121.603
X254.794Y-80.962
X259.556Y-42.862
X259.557Y-119.063
X260.35Y-83.502
X262.731Y-45.402
X266.7Y-80.962
X267.494Y-64.453
X269.081Y-42.862
X272.256Y-45.402
X272.257Y-102.552
X272.258Y-121.603
X273.844Y-61.912
X276.225Y-72.707
X278.606Y-42.862
X278.607Y-100.012
X278.608Y-119.063
X278.765Y-79.057
X291.306Y-45.402
X291.307Y-64.453
X291.307Y-83.502
X291.307Y-102.552
X291.308Y-121.603
X297.656Y-42.862
X297.657Y-61.912
X297.657Y-80.962
X297.657Y-100.012
X297.658Y-119.063
T7
X15.564Y-43.042
X21.344Y-43.042
T8
X4.286Y-47.942
X6.668Y-86.042
X6.668Y-124.143
X9.049Y-66.992
X9.049Y-124.143
X11.43Y-86.042
X14.446Y-47.942
X16.193Y-105.093
X16.828Y-86.042
X16.828Y-124.143
X19.209Y-66.992
X19.209Y-124.143
X21.59Y-86.042
X23.336Y-47.942
X26.353Y-105.093
X30.48Y-124.143
X32.861Y-66.992
X32.862Y-124.143
X33.496Y-47.942
X37.624Y-86.042
X40.64Y-124.143
X42.386Y-47.942
X43.021Y-66.992
X43.022Y-124.143
X47.149Y-105.093
X47.784Y-86.042
X51.911Y-66.992
X52.546Y-47.942
X54.293Y-124.143
X56.674Y-86.042
X56.674Y-124.143
X57.309Y-105.093
X61.436Y-47.942
X62.071Y-66.992
X64.453Y-124.143
X66.199Y-105.093
X66.834Y-86.042
X66.834Y-124.143
X70.961Y-66.992
X71.596Y-47.942
X75.724Y-86.042
X76.359Y-105.093
X80.486Y-47.942
X81.121Y-66.992
X85.249Y-105.093
X85.884Y-86.042
X90.011Y-66.992
X90.646Y-47.942
X94.774Y-86.042
X95.409Y-105.093
X99.536Y-47.942
X100.171Y-66.992
X104.299Y-105.093
X104.934Y-86.042
X109.061Y-66.992
X109.696Y-47.942
X113.824Y-86.042
X114.459Y-105.093
X118.586Y-47.942
X119.221Y-66.992
X123.349Y-105.093
X123.984Y-86.042
X125.731Y-124.143
X128.111Y-66.992
X128.746Y-47.942
X132.874Y-86.042
X133.509Y-105.093
X135.891Y-124.143
X137.636Y-47.942
X137.637Y-124.143
X138.271Y-66.992
X142.399Y-105.093
X143.034Y-86.042
X147.161Y-66.992
X147.796Y-47.942
X147.797Y-124.143
X151.924Y-86.042
X152.559Y-105.093
X156.686Y-47.942
X157.321Y-66.992
X161.449Y-105.093
X162.084Y-86.042
X166.211Y-66.992
X166.846Y-47.942
X170.974Y-86.042
X171.609Y-105.093
X175.736Y-47.942
X176.371Y-66.992
X180.499Y-105.093
X181.134Y-86.042
X185.261Y-66.992
X185.896Y-47.942
X190.024Y-86.042
X190.659Y-105.093
X194.786Y-47.942
X195.421Y-66.992
X197.168Y-124.143
X199.549Y-105.093
X200.184Y-86.042
X204.311Y-66.992
X204.946Y-47.942
X207.328Y-124.143
X209.074Y-86.042
X209.709Y-105.093
X213.836Y-47.942
X214.471Y-66.992
X218.599Y-105.093
X218.6Y-124.143
X219.234Y-86.042
X220.981Y-124.143
X223.361Y-66.992
X223.996Y-47.942
X228.124Y-86.042
X228.759Y-105.093
X228.76Y-124.143
X231.141Y-124.143
X232.886Y-47.942
X233.521Y-66.992
X238.284Y-86.042
X242.411Y-66.992
X243.046Y-47.942
X244.793Y-105.093
X247.174Y-86.042
X251.936Y-47.942
X251.937Y-124.143
X252.571Y-66.992
X254.953Y-105.093
X257.334Y-86.042
X259.08Y-86.042
X261.461Y-47.942
X262.096Y-47.942
X262.097Y-124.143
X266.224Y-66.992
X269.24Y-86.042
X270.986Y-47.942
X270.987Y-105.093
X270.988Y-124.143
X271.621Y-47.942
X273.685Y-71.438
X273.685Y-81.597
X276.384Y-66.992
X281.146Y-47.942
X281.147Y-105.093
X281.148Y-124.143
X290.036Y-47.942
X290.037Y-66.992
X290.037Y-86.042
X290.037Y-105.093
X290.038Y-124.143
X300.196Y-47.942
X300.197Y-66.992
X300.197Y-86.042
X300.197Y-105.093
X300.198Y-124.143
T9
X9.366Y-98.108
X33.179Y-98.108
X80.811Y-131.128
X85.567Y-131.128
X180.811Y-131.128
X199.867Y-131.128
X252.254Y-79.057
X254.635Y-40.957
X276.066Y-79.057
X278.447Y-40.957
X280.67Y-64.579
X280.67Y-88.456
T10
X9.366Y-47.942
X9.366Y-113.347
X11.748Y-86.042
X11.748Y-124.143
X14.129Y-66.992
X14.129Y-124.143
X16.51Y-86.042
X21.273Y-105.093
X28.416Y-47.942
X33.179Y-113.347
X35.56Y-124.143
X37.941Y-66.992
X37.942Y-124.143
X42.704Y-86.042
X47.466Y-47.942
X52.229Y-105.093
X56.991Y-66.992
X59.373Y-124.143
X61.754Y-86.042
X61.754Y-124.143
X66.516Y-47.942
X71.279Y-105.093
X76.041Y-66.992
X80.804Y-86.042
X80.811Y-115.888
X85.566Y-47.942
X85.567Y-115.888
X90.329Y-105.093
X95.091Y-66.992
X99.854Y-86.042
X104.616Y-47.942
X109.379Y-105.093
X114.141Y-66.992
X118.904Y-86.042
X123.666Y-47.942
X128.429Y-105.093
X130.811Y-124.143
X133.191Y-66.992
X137.954Y-86.042
X142.716Y-47.942
X142.717Y-124.143
X147.479Y-105.093
X152.241Y-66.992
X157.004Y-86.042
X161.766Y-47.942
X166.529Y-105.093
X171.291Y-66.992
X176.054Y-86.042
X180.811Y-115.888
X180.816Y-47.942
X185.579Y-105.093
X190.341Y-66.992
X195.104Y-86.042
X199.866Y-47.942
X199.867Y-115.888
X202.248Y-124.143
X204.629Y-105.093
X209.391Y-66.992
X214.154Y-86.042
X218.916Y-47.942
X223.679Y-105.093
X223.68Y-124.143
X226.061Y-124.143
X228.441Y-66.992
X233.204Y-86.042
X237.966Y-47.942
X247.491Y-66.992
X249.873Y-105.093
X252.254Y-86.042
X252.254Y-94.297
X254.635Y-56.197
X257.016Y-47.942
X257.017Y-124.143
X264.16Y-86.042
X265.43Y-64.579
X265.43Y-88.456
X266.541Y-47.942
X271.304Y-66.992
X273.685Y-76.517
X276.066Y-47.942
X276.066Y-94.297
X276.067Y-105.093
X276.068Y-124.143
X278.447Y-56.197
X295.116Y-47.942
X295.117Y-66.992
X295.117Y-86.042
X295.117Y-105.093
X295.118Y-124.143
T2
G00X14.134Y-39.093
M15
G01X14.134Y-39.692
M16
G05
G00X14.134Y-43.023
M15
G01X14.134Y-44.122
M16
G05
G00X22.774Y-39.093
M15
G01X22.774Y-39.692
M16
G05
G00X22.774Y-43.023
M15
G01X22.774Y-44.122
M16
G05
T6
G00X289.516Y-48.593
M15
G01X289.516Y-47.292
M16
G05
G00X300.716Y-48.593
M15
G01X300.716Y-47.292
M16
G05
T0
M30
