0
SECTION
2
HEADER
9
$INSUNITS
70
4
9
$ACADVER
1
AC1014
9
$HANDSEED
5
FFFF
0
ENDSEC
0
SECTION
2
TABLES
0
TABLE
2
VPORT
5
8
100
AcDbSymbolTable
0
ENDTAB
0
TABLE
2
LTYPE
5
5
100
AcDbSymbolTable
0
LTYPE
5
14
100
AcDbSymbolTableRecord
100
AcDbLinetypeTableRecord
2
BYBLOCK
70
0
0
LTYPE
5
15
100
AcDbSymbolTableRecord
100
AcDbLinetypeTableRecord
2
BYLAYER
70
0
0
ENDTAB
0
TABLE
2
LAYER
5
2
100
AcDbSymbolTable
70
2
0
LAYER
5
50
100
AcDbSymbolTableRecord
100
AcDbLayerTableRecord
2
0
70
0
6
CONTINUOUS
0
ENDTAB
0
TABLE
2
STYLE
5
3
100
AcDbSymbolTable
70
1
0
STYLE
5
11
100
AcDbSymbolTableRecord
100
AcDbTextStyleTableRecord
2
STANDARD
70
0
0
ENDTAB
0
TABLE
2
VIEW
5
6
100
AcDbSymbolTable
70
0
0
ENDTAB
0
TABLE
2
UCS
5
7
100
AcDbSymbolTable
70
0
0
ENDTAB
0
TABLE
2
APPID
5
9
100
AcDbSymbolTable
70
2
0
APPID
5
12
100
AcDbSymbolTableRecord
100
AcDbRegAppTableRecord
2
ACAD
70
0
0
ENDTAB
0
TABLE
2
DIMSTYLE
5
A
100
AcDbSymbolTable
70
1
0
ENDTAB
0
TABLE
2
BLOCK_RECORD
5
1
100
AcDbSymbolTable
70
1
0
BLOCK_RECORD
5
1F
100
AcDbSymbolTableRecord
100
AcDbBlockTableRecord
2
*MODEL_SPACE
0
BLOCK_RECORD
5
1B
100
AcDbSymbolTableRecord
100
AcDbBlockTableRecord
2
*PAPER_SPACE
0
ENDTAB
0
ENDSEC
0
SECTION
2
BLOCKS
0
BLOCK
5
20
100
AcDbEntity
100
AcDbBlockBegin
2
*MODEL_SPACE
0
ENDBLK
5
21
100
AcDbEntity
100
AcDbBlockEnd
0
BLOCK
5
1C
100
AcDbEntity
100
AcDbBlockBegin
2
*PAPER_SPACE
0
ENDBLK
5
1D
100
AcDbEntity
100
AcDbBlockEnd
0
ENDSEC
0
SECTION
2
ENTITIES
0
LWPOLYLINE
5
100
100
AcDbEntity
8
0
100
AcDbPolyline
90
12
70
1
43
0.0
10
251.65103999999999
20
-88.250400000000013
10
251.65103999999999
20
-86.750399999999985
10
243.65104000000002
20
-86.750399999999985
10
243.65104000000002
20
-88.250400000000013
10
240.65104000000002
20
-88.250400000000013
10
240.65104000000002
20
-102.2504
10
243.65104000000002
20
-102.2504
10
243.65104000000002
20
-104.25040000000001
10
251.65103999999999
20
-104.25040000000001
10
251.65103999999999
20
-102.2504
10
254.65103999999999
20
-102.2504
10
254.65103999999999
20
-88.250400000000013
0
LWPOLYLINE
5
101
100
AcDbEntity
8
0
100
AcDbPolyline
90
4
70
1
43
0.0
10
254.65000000000001
20
-107.30000000000001
10
240.65000000000001
20
-107.30000000000001
10
240.65000000000001
20
-121.29999999999998
10
254.65000000000001
20
-121.29999999999998
0
CIRCLE
5
102
100
AcDbEntity
8
0
100
AcDbCircle
10
234.33926300000007
20
-82.53473000000001
30
0
40
1.1500000000000199
210
0
220
0
230
1
0
LWPOLYLINE
5
103
100
AcDbEntity
8
0
100
AcDbPolyline
90
4
70
1
43
0.0
10
278.74999999999972
20
-126.35000000000073
10
278.74999999999972
20
-140.35000000000073
10
292.75
20
-140.35000000000073
10
292.75
20
-126.34999999999999
0
LWPOLYLINE
5
104
100
AcDbEntity
8
0
100
AcDbPolyline
90
4
70
1
43
0.0
10
278.75000000000006
20
-121.29999999999998
10
292.75
20
-121.29999999999998
10
292.75
20
-107.29999999999998
10
278.75
20
-107.29999999999998
0
CIRCLE
5
105
100
AcDbEntity
8
0
100
AcDbCircle
10
299.06118473045785
20
-82.53473000000001
30
0
40
1.1499999999999844
210
0
220
0
230
1
0
CIRCLE
5
106
100
AcDbEntity
8
0
100
AcDbCircle
10
299.06118473045785
20
-146.06574599999999
30
0
40
1.1500000000000199
210
0
220
0
230
1
0
LWPOLYLINE
5
107
100
AcDbEntity
8
0
100
AcDbPolyline
90
4
70
1
43
0.0
10
240.65000000000001
20
-126.34999999999999
10
240.65000000000001
20
-140.34999999999999
10
254.65000000000001
20
-140.34999999999999
10
254.65000000000001
20
-126.35000000000002
0
LWPOLYLINE
5
108
100
AcDbEntity
8
0
100
AcDbPolyline
90
4
70
1
43
0.0
10
273.69999999999999
20
-107.30000000000001
10
259.70000000000005
20
-107.30000000000001
10
259.70000000000005
20
-121.29999999999998
10
273.69999999999999
20
-121.29999999999998
0
CIRCLE
5
109
100
AcDbEntity
8
0
100
AcDbCircle
10
234.33926300000007
20
-146.06574599999999
30
0
40
1.1499999999999844
210
0
220
0
230
1
0
LWPOLYLINE
5
110
100
AcDbEntity
8
0
100
AcDbPolyline
90
4
70
1
43
0.0
10
259.70000000000005
20
-140.35000000000002
10
273.69999999999999
20
-140.35000000000002
10
273.69999999999999
20
-126.35000000000002
10
259.70000000000005
20
-126.35000000000004
0
LWPOLYLINE
5
111
100
AcDbEntity
8
0
100
AcDbPolyline
90
8
70
1
43
0.0
10
302.06118473045785
20
-147.06574599999999
42
-0.41421356237309764
10
300.06118473045785
20
-149.06574599999999
10
233.33926300000002
20
-149.06574599999996
42
-0.41421356237309764
10
231.33926300000007
20
-147.06574599999999
10
231.33926300000007
20
-81.534729999999996
42
-0.41421356237309764
10
233.33926300000002
20
-79.53473000000001
10
300.06118473045785
20
-79.534730000000025
42
-0.41421356237309764
10
302.06118473045785
20
-81.534729999999996
0
ENDSEC
0
SECTION
2
OBJECTS
0
DICTIONARY
5
C
100
AcDbDictionary
3
ACAD_GROUP
350
D
3
ACAD_MLINESTYLE
350
17
0
DICTIONARY
5
D
100
AcDbDictionary
0
DICTIONARY
5
1A
330
C
100
AcDbDictionary
0
DICTIONARY
5
17
100
AcDbDictionary
0
ENDSEC
0
EOF
