%TF.GenerationSoftware,KiCad,Pcbnew,(5.1.12)-1*%
%TF.CreationDate,2022-12-21T19:59:57+07:00*%
%TF.ProjectId,Eclipse60,45636c69-7073-4653-9630-2e6b69636164,rev?*%
%TF.SameCoordinates,Original*%
%TF.FileFunction,Soldermask,Top*%
%TF.FilePolarity,Negative*%
%FSLAX46Y46*%
G04 Gerber Fmt 4.6, Leading zero omitted, Abs format (unit mm)*
G04 Created by KiCad (PCBNEW (5.1.12)-1) date 2022-12-21 19:59:57*
%MOMM*%
%LPD*%
G01*
G04 APERTURE LIST*
%ADD10C,1.000000*%
%ADD11C,0.010000*%
%ADD12C,0.500000*%
%ADD13C,3.000000*%
%ADD14C,3.048000*%
%ADD15C,3.987800*%
%ADD16C,1.750000*%
G04 APERTURE END LIST*
D10*
X121325000Y-122729002D02*
G75*
G02*
X127270000Y-120774999I3499597J-626676D01*
G01*
X211758997Y-123300001D02*
G75*
G02*
X214874999Y-120974996I3117524J-927591D01*
G01*
X70771999Y-29100001D02*
X80195003Y-29100001D01*
X29099994Y-86499998D02*
X31993000Y-86499998D01*
X44750004Y-120974996D02*
X41175007Y-120974996D01*
X45184002Y-120794996D02*
G75*
G02*
X44750004Y-120974996I-430255J424180D01*
G01*
X31992999Y-84300000D02*
G75*
G02*
X31993000Y-86499998I8J-1099999D01*
G01*
X80195003Y-29100002D02*
G75*
G02*
X80766002Y-29671000I-880J-571879D01*
G01*
X70201000Y-29671001D02*
G75*
G02*
X70771999Y-29100001I571880J-880D01*
G01*
X70201000Y-29671001D02*
G75*
G02*
X63201000Y-29671000I-3500000J626658D01*
G01*
X73621997Y-122744000D02*
G75*
G02*
X83539997Y-122744001I4959000J-771681D01*
G01*
X62630000Y-29100001D02*
G75*
G02*
X63201000Y-29671000I-880J-571880D01*
G01*
X29099994Y-31100001D02*
G75*
G02*
X31099994Y-29100001I2000725J-725D01*
G01*
X121325001Y-122729002D02*
G75*
G02*
X120754001Y-123300001I-570175J-824D01*
G01*
X120754001Y-123300001D02*
X84096004Y-123300001D01*
X29099994Y-84300001D02*
X29099994Y-31100000D01*
X73065998Y-123300001D02*
X51722004Y-123300001D01*
X38058994Y-123300000D02*
G75*
G02*
X41175007Y-120974996I3117544J-927619D01*
G01*
X31993000Y-84300001D02*
X29099994Y-84300001D01*
X45184000Y-120794996D02*
G75*
G02*
X51150997Y-122729002I2466475J-2562179D01*
G01*
X29099994Y-121300001D02*
X29099994Y-86499998D01*
X31099994Y-123300002D02*
G75*
G02*
X29099994Y-121300001I-981J1999019D01*
G01*
X51722004Y-123300000D02*
G75*
G02*
X51150997Y-122729002I-833J570174D01*
G01*
X128025001Y-120974996D02*
X127755001Y-120974996D01*
X211758998Y-123300001D02*
X131141002Y-123300001D01*
X84096004Y-123300001D02*
G75*
G02*
X83539997Y-122744001I517J556524D01*
G01*
X31099994Y-29100001D02*
X36058994Y-29100001D01*
X38058994Y-123300001D02*
X31099994Y-123300001D01*
X128025001Y-120974997D02*
G75*
G02*
X131141002Y-123300001I-1522J-3252595D01*
G01*
X42291004Y-29100001D02*
X62630001Y-29100001D01*
X127755000Y-120974997D02*
G75*
G02*
X127270000Y-120774999I750J689889D01*
G01*
X73621997Y-122744001D02*
G75*
G02*
X73065998Y-123300001I-556511J511D01*
G01*
X42291004Y-29100002D02*
G75*
G02*
X36058994Y-29100001I-3116005J925564D01*
G01*
X269834002Y-123300002D02*
G75*
G02*
X269278002Y-122744001I512J556512D01*
G01*
X313800006Y-31100000D02*
X313800006Y-84300001D01*
X291177996Y-123300001D02*
X269834002Y-123300001D01*
X291749003Y-122729002D02*
G75*
G02*
X297621997Y-120707998I3500114J-627357D01*
G01*
X304841006Y-29100001D02*
X311800006Y-29100001D01*
X301724993Y-120974996D02*
X298268000Y-120974996D01*
X280269999Y-29100001D02*
X298608996Y-29100001D01*
X301724994Y-120974996D02*
G75*
G02*
X304841006Y-123300001I-1532J-3252623D01*
G01*
X310907000Y-86499998D02*
X313800006Y-86499998D01*
X310907001Y-86499997D02*
G75*
G02*
X310907000Y-84300001I-8J1099998D01*
G01*
X214874999Y-31425000D02*
X215129000Y-31425000D01*
X251644999Y-29100002D02*
G75*
G02*
X252215998Y-29671000I-880J-571879D01*
G01*
X131141002Y-29100001D02*
X211758998Y-29100001D01*
X313800006Y-84300001D02*
X310907000Y-84300001D01*
X215129000Y-31424999D02*
G75*
G02*
X215642001Y-31638000I-2442J-730151D01*
G01*
X304841006Y-29100002D02*
G75*
G02*
X298608996Y-29100001I-3116005J925564D01*
G01*
X221574999Y-29671000D02*
G75*
G02*
X222145999Y-29100001I571880J-881D01*
G01*
X262133998Y-29671001D02*
G75*
G02*
X252215998Y-29671000I-4959000J770501D01*
G01*
X311800005Y-29100001D02*
G75*
G02*
X313800006Y-31100000I-724J-2000725D01*
G01*
X279699000Y-29671001D02*
G75*
G02*
X272699000Y-29671000I-3500000J626658D01*
G01*
X298268000Y-120974996D02*
G75*
G02*
X297621997Y-120707998I-2701J908467D01*
G01*
X279699000Y-29671001D02*
G75*
G02*
X280269999Y-29100001I571880J-880D01*
G01*
X313800005Y-121300001D02*
G75*
G02*
X311800006Y-123300001I-1999018J-982D01*
G01*
X259360004Y-122744001D02*
G75*
G02*
X269278002Y-122744001I4958999J-771680D01*
G01*
X291749004Y-122729002D02*
G75*
G02*
X291177996Y-123300001I-570175J-824D01*
G01*
X215143000Y-120974996D02*
X214874999Y-120974996D01*
X259360003Y-122744001D02*
G75*
G02*
X258803996Y-123300001I-556524J524D01*
G01*
X313800006Y-86499998D02*
X313800006Y-121300001D01*
X215631998Y-120773000D02*
G75*
G02*
X215143000Y-120974996I-487743J487855D01*
G01*
X215632000Y-120773000D02*
G75*
G02*
X221574999Y-122729002I2443145J-2583322D01*
G01*
X214874999Y-31425000D02*
G75*
G02*
X211758998Y-29100001I-899J3249352D01*
G01*
X222145999Y-123300001D02*
G75*
G02*
X221574999Y-122729002I-825J570175D01*
G01*
X258803996Y-123300001D02*
X222145999Y-123300001D01*
X272128000Y-29100001D02*
G75*
G02*
X272699000Y-29671000I-880J-571880D01*
G01*
X262133997Y-29671000D02*
G75*
G02*
X262704997Y-29100001I571880J-881D01*
G01*
X222145999Y-29100001D02*
X251644999Y-29100001D01*
X311800006Y-123300001D02*
X304841006Y-123300001D01*
X262704997Y-29100001D02*
X272128001Y-29100001D01*
X221574999Y-29671001D02*
G75*
G02*
X215642001Y-31638000I-3500071J625896D01*
G01*
X131141002Y-29100001D02*
G75*
G02*
X128025001Y-31425000I-3115102J924353D01*
G01*
X90684001Y-29671000D02*
G75*
G02*
X91255001Y-29100001I571880J-881D01*
G01*
X127799000Y-31425000D02*
X128025001Y-31425000D01*
X127235001Y-31659000D02*
G75*
G02*
X127799000Y-31425000I565427J-566132D01*
G01*
X120754001Y-29100001D02*
G75*
G02*
X121325001Y-29671000I-880J-571880D01*
G01*
X91255001Y-29100001D02*
X120754001Y-29100001D01*
X90684002Y-29671001D02*
G75*
G02*
X80766002Y-29671000I-4959000J770501D01*
G01*
X127235000Y-31659000D02*
G75*
G02*
X121325001Y-29671000I-2410177J2613668D01*
G01*
D11*
%TO.C,a*%
G36*
X186824377Y-113037517D02*
G01*
X186894815Y-113069925D01*
X186971746Y-113122023D01*
X187057491Y-113195180D01*
X187072078Y-113208831D01*
X187154493Y-113293004D01*
X187214584Y-113369254D01*
X187253350Y-113439718D01*
X187271790Y-113506534D01*
X187270904Y-113571838D01*
X187260966Y-113612876D01*
X187227292Y-113681591D01*
X187177209Y-113739187D01*
X187115519Y-113783001D01*
X187047027Y-113810372D01*
X186976536Y-113818636D01*
X186911950Y-113806311D01*
X186859443Y-113780341D01*
X186797048Y-113739354D01*
X186729586Y-113687623D01*
X186661882Y-113629422D01*
X186598758Y-113569023D01*
X186545039Y-113510699D01*
X186505547Y-113458723D01*
X186491287Y-113433650D01*
X186465311Y-113353216D01*
X186461536Y-113274511D01*
X186477779Y-113200890D01*
X186511859Y-113135708D01*
X186561592Y-113082320D01*
X186624797Y-113044080D01*
X186699291Y-113024345D01*
X186758112Y-113023428D01*
X186824377Y-113037517D01*
G37*
X186824377Y-113037517D02*
X186894815Y-113069925D01*
X186971746Y-113122023D01*
X187057491Y-113195180D01*
X187072078Y-113208831D01*
X187154493Y-113293004D01*
X187214584Y-113369254D01*
X187253350Y-113439718D01*
X187271790Y-113506534D01*
X187270904Y-113571838D01*
X187260966Y-113612876D01*
X187227292Y-113681591D01*
X187177209Y-113739187D01*
X187115519Y-113783001D01*
X187047027Y-113810372D01*
X186976536Y-113818636D01*
X186911950Y-113806311D01*
X186859443Y-113780341D01*
X186797048Y-113739354D01*
X186729586Y-113687623D01*
X186661882Y-113629422D01*
X186598758Y-113569023D01*
X186545039Y-113510699D01*
X186505547Y-113458723D01*
X186491287Y-113433650D01*
X186465311Y-113353216D01*
X186461536Y-113274511D01*
X186477779Y-113200890D01*
X186511859Y-113135708D01*
X186561592Y-113082320D01*
X186624797Y-113044080D01*
X186699291Y-113024345D01*
X186758112Y-113023428D01*
X186824377Y-113037517D01*
G36*
X192139381Y-113143779D02*
G01*
X192177277Y-113151295D01*
X192213815Y-113167988D01*
X192234245Y-113180086D01*
X192295045Y-113231399D01*
X192337922Y-113296290D01*
X192362219Y-113369814D01*
X192367280Y-113447023D01*
X192352450Y-113522972D01*
X192317072Y-113592715D01*
X192292901Y-113622216D01*
X192279031Y-113634891D01*
X192258822Y-113649656D01*
X192230418Y-113667477D01*
X192191965Y-113689323D01*
X192141606Y-113716158D01*
X192077487Y-113748951D01*
X191997753Y-113788668D01*
X191900548Y-113836275D01*
X191784017Y-113892740D01*
X191649050Y-113957710D01*
X191552247Y-114004057D01*
X191475082Y-114040487D01*
X191414376Y-114068244D01*
X191366948Y-114088569D01*
X191329621Y-114102708D01*
X191299214Y-114111901D01*
X191272548Y-114117394D01*
X191246444Y-114120428D01*
X191229950Y-114121572D01*
X191172102Y-114122673D01*
X191128929Y-114116939D01*
X191090300Y-114103002D01*
X191089351Y-114102559D01*
X191024944Y-114059320D01*
X190976742Y-114000661D01*
X190945651Y-113931437D01*
X190932577Y-113856504D01*
X190938425Y-113780715D01*
X190964102Y-113708928D01*
X191005198Y-113651449D01*
X191025679Y-113636237D01*
X191066366Y-113611552D01*
X191124517Y-113578811D01*
X191197393Y-113539430D01*
X191282253Y-113494828D01*
X191376354Y-113446421D01*
X191476957Y-113395627D01*
X191581321Y-113343862D01*
X191686705Y-113292545D01*
X191790367Y-113243091D01*
X191839550Y-113220041D01*
X191907387Y-113188974D01*
X191958115Y-113167491D01*
X191997352Y-113153838D01*
X192030718Y-113146258D01*
X192063829Y-113142995D01*
X192088195Y-113142356D01*
X192139381Y-113143779D01*
G37*
X192139381Y-113143779D02*
X192177277Y-113151295D01*
X192213815Y-113167988D01*
X192234245Y-113180086D01*
X192295045Y-113231399D01*
X192337922Y-113296290D01*
X192362219Y-113369814D01*
X192367280Y-113447023D01*
X192352450Y-113522972D01*
X192317072Y-113592715D01*
X192292901Y-113622216D01*
X192279031Y-113634891D01*
X192258822Y-113649656D01*
X192230418Y-113667477D01*
X192191965Y-113689323D01*
X192141606Y-113716158D01*
X192077487Y-113748951D01*
X191997753Y-113788668D01*
X191900548Y-113836275D01*
X191784017Y-113892740D01*
X191649050Y-113957710D01*
X191552247Y-114004057D01*
X191475082Y-114040487D01*
X191414376Y-114068244D01*
X191366948Y-114088569D01*
X191329621Y-114102708D01*
X191299214Y-114111901D01*
X191272548Y-114117394D01*
X191246444Y-114120428D01*
X191229950Y-114121572D01*
X191172102Y-114122673D01*
X191128929Y-114116939D01*
X191090300Y-114103002D01*
X191089351Y-114102559D01*
X191024944Y-114059320D01*
X190976742Y-114000661D01*
X190945651Y-113931437D01*
X190932577Y-113856504D01*
X190938425Y-113780715D01*
X190964102Y-113708928D01*
X191005198Y-113651449D01*
X191025679Y-113636237D01*
X191066366Y-113611552D01*
X191124517Y-113578811D01*
X191197393Y-113539430D01*
X191282253Y-113494828D01*
X191376354Y-113446421D01*
X191476957Y-113395627D01*
X191581321Y-113343862D01*
X191686705Y-113292545D01*
X191790367Y-113243091D01*
X191839550Y-113220041D01*
X191907387Y-113188974D01*
X191958115Y-113167491D01*
X191997352Y-113153838D01*
X192030718Y-113146258D01*
X192063829Y-113142995D01*
X192088195Y-113142356D01*
X192139381Y-113143779D01*
G36*
X190223054Y-113432999D02*
G01*
X190260107Y-113443935D01*
X190277450Y-113451377D01*
X190342865Y-113494485D01*
X190391503Y-113552558D01*
X190422687Y-113620918D01*
X190435742Y-113694888D01*
X190429996Y-113769789D01*
X190404771Y-113840945D01*
X190359394Y-113903677D01*
X190344704Y-113917600D01*
X190314723Y-113938491D01*
X190267918Y-113964873D01*
X190211156Y-113993083D01*
X190161735Y-114015123D01*
X190027548Y-114067712D01*
X189906011Y-114107260D01*
X189798872Y-114133388D01*
X189707880Y-114145720D01*
X189634784Y-114143877D01*
X189601175Y-114136130D01*
X189573474Y-114123904D01*
X189560118Y-114112454D01*
X189559900Y-114111262D01*
X189549788Y-114100727D01*
X189544025Y-114099744D01*
X189523927Y-114088662D01*
X189497947Y-114061089D01*
X189470830Y-114023604D01*
X189447318Y-113982787D01*
X189432155Y-113945217D01*
X189431876Y-113944199D01*
X189424039Y-113870107D01*
X189437033Y-113789898D01*
X189446523Y-113761420D01*
X189454849Y-113736411D01*
X189456089Y-113725649D01*
X189456017Y-113725642D01*
X189462093Y-113717610D01*
X189481986Y-113696836D01*
X189506463Y-113672630D01*
X189554014Y-113636156D01*
X189622194Y-113597419D01*
X189706581Y-113558334D01*
X189802751Y-113520814D01*
X189906280Y-113486775D01*
X189988156Y-113464160D01*
X190070138Y-113444682D01*
X190133197Y-113433146D01*
X190182460Y-113429328D01*
X190223054Y-113432999D01*
G37*
X190223054Y-113432999D02*
X190260107Y-113443935D01*
X190277450Y-113451377D01*
X190342865Y-113494485D01*
X190391503Y-113552558D01*
X190422687Y-113620918D01*
X190435742Y-113694888D01*
X190429996Y-113769789D01*
X190404771Y-113840945D01*
X190359394Y-113903677D01*
X190344704Y-113917600D01*
X190314723Y-113938491D01*
X190267918Y-113964873D01*
X190211156Y-113993083D01*
X190161735Y-114015123D01*
X190027548Y-114067712D01*
X189906011Y-114107260D01*
X189798872Y-114133388D01*
X189707880Y-114145720D01*
X189634784Y-114143877D01*
X189601175Y-114136130D01*
X189573474Y-114123904D01*
X189560118Y-114112454D01*
X189559900Y-114111262D01*
X189549788Y-114100727D01*
X189544025Y-114099744D01*
X189523927Y-114088662D01*
X189497947Y-114061089D01*
X189470830Y-114023604D01*
X189447318Y-113982787D01*
X189432155Y-113945217D01*
X189431876Y-113944199D01*
X189424039Y-113870107D01*
X189437033Y-113789898D01*
X189446523Y-113761420D01*
X189454849Y-113736411D01*
X189456089Y-113725649D01*
X189456017Y-113725642D01*
X189462093Y-113717610D01*
X189481986Y-113696836D01*
X189506463Y-113672630D01*
X189554014Y-113636156D01*
X189622194Y-113597419D01*
X189706581Y-113558334D01*
X189802751Y-113520814D01*
X189906280Y-113486775D01*
X189988156Y-113464160D01*
X190070138Y-113444682D01*
X190133197Y-113433146D01*
X190182460Y-113429328D01*
X190223054Y-113432999D01*
G36*
X187920730Y-113698155D02*
G01*
X187992765Y-113720387D01*
X188057373Y-113761890D01*
X188061490Y-113765532D01*
X188093944Y-113799667D01*
X188116129Y-113837038D01*
X188130706Y-113884383D01*
X188140340Y-113948437D01*
X188142538Y-113970543D01*
X188153810Y-114042212D01*
X188173303Y-114092362D01*
X188202583Y-114123985D01*
X188229354Y-114136582D01*
X188259132Y-114143223D01*
X188306887Y-114151005D01*
X188365297Y-114158822D01*
X188410550Y-114163924D01*
X188508998Y-114174831D01*
X188609175Y-114187234D01*
X188706474Y-114200453D01*
X188796290Y-114213807D01*
X188874015Y-114226616D01*
X188935045Y-114238199D01*
X188970762Y-114246689D01*
X189040466Y-114279028D01*
X189097226Y-114330142D01*
X189138069Y-114395448D01*
X189160024Y-114470363D01*
X189161351Y-114540662D01*
X189142421Y-114622148D01*
X189106098Y-114688118D01*
X189053917Y-114736069D01*
X189034960Y-114746785D01*
X189005382Y-114759614D01*
X188972438Y-114769730D01*
X188934138Y-114777048D01*
X188888496Y-114781484D01*
X188833522Y-114782956D01*
X188767230Y-114781377D01*
X188687630Y-114776665D01*
X188592736Y-114768736D01*
X188480558Y-114757505D01*
X188349109Y-114742888D01*
X188196401Y-114724802D01*
X188029550Y-114704296D01*
X187842121Y-114680991D01*
X187678196Y-114660566D01*
X187536081Y-114642698D01*
X187414082Y-114627067D01*
X187310506Y-114613351D01*
X187223658Y-114601228D01*
X187151846Y-114590377D01*
X187093374Y-114580477D01*
X187046550Y-114571206D01*
X187009679Y-114562242D01*
X186981069Y-114553265D01*
X186959024Y-114543952D01*
X186941852Y-114533983D01*
X186927858Y-114523036D01*
X186915349Y-114510789D01*
X186902631Y-114496921D01*
X186895466Y-114489063D01*
X186848219Y-114420864D01*
X186823354Y-114346461D01*
X186820117Y-114270129D01*
X186837754Y-114196146D01*
X186875511Y-114128787D01*
X186932632Y-114072328D01*
X186973503Y-114046697D01*
X187002343Y-114033600D01*
X187032370Y-114025633D01*
X187070638Y-114021809D01*
X187124201Y-114021144D01*
X187153250Y-114021574D01*
X187221968Y-114024150D01*
X187294655Y-114028889D01*
X187358809Y-114034920D01*
X187376896Y-114037170D01*
X187448300Y-114043509D01*
X187500981Y-114038187D01*
X187540035Y-114018362D01*
X187570557Y-113981195D01*
X187597644Y-113923844D01*
X187602437Y-113911455D01*
X187623898Y-113862412D01*
X187649449Y-113814375D01*
X187662063Y-113794426D01*
X187711934Y-113743329D01*
X187775127Y-113710001D01*
X187846455Y-113694818D01*
X187920730Y-113698155D01*
G37*
X187920730Y-113698155D02*
X187992765Y-113720387D01*
X188057373Y-113761890D01*
X188061490Y-113765532D01*
X188093944Y-113799667D01*
X188116129Y-113837038D01*
X188130706Y-113884383D01*
X188140340Y-113948437D01*
X188142538Y-113970543D01*
X188153810Y-114042212D01*
X188173303Y-114092362D01*
X188202583Y-114123985D01*
X188229354Y-114136582D01*
X188259132Y-114143223D01*
X188306887Y-114151005D01*
X188365297Y-114158822D01*
X188410550Y-114163924D01*
X188508998Y-114174831D01*
X188609175Y-114187234D01*
X188706474Y-114200453D01*
X188796290Y-114213807D01*
X188874015Y-114226616D01*
X188935045Y-114238199D01*
X188970762Y-114246689D01*
X189040466Y-114279028D01*
X189097226Y-114330142D01*
X189138069Y-114395448D01*
X189160024Y-114470363D01*
X189161351Y-114540662D01*
X189142421Y-114622148D01*
X189106098Y-114688118D01*
X189053917Y-114736069D01*
X189034960Y-114746785D01*
X189005382Y-114759614D01*
X188972438Y-114769730D01*
X188934138Y-114777048D01*
X188888496Y-114781484D01*
X188833522Y-114782956D01*
X188767230Y-114781377D01*
X188687630Y-114776665D01*
X188592736Y-114768736D01*
X188480558Y-114757505D01*
X188349109Y-114742888D01*
X188196401Y-114724802D01*
X188029550Y-114704296D01*
X187842121Y-114680991D01*
X187678196Y-114660566D01*
X187536081Y-114642698D01*
X187414082Y-114627067D01*
X187310506Y-114613351D01*
X187223658Y-114601228D01*
X187151846Y-114590377D01*
X187093374Y-114580477D01*
X187046550Y-114571206D01*
X187009679Y-114562242D01*
X186981069Y-114553265D01*
X186959024Y-114543952D01*
X186941852Y-114533983D01*
X186927858Y-114523036D01*
X186915349Y-114510789D01*
X186902631Y-114496921D01*
X186895466Y-114489063D01*
X186848219Y-114420864D01*
X186823354Y-114346461D01*
X186820117Y-114270129D01*
X186837754Y-114196146D01*
X186875511Y-114128787D01*
X186932632Y-114072328D01*
X186973503Y-114046697D01*
X187002343Y-114033600D01*
X187032370Y-114025633D01*
X187070638Y-114021809D01*
X187124201Y-114021144D01*
X187153250Y-114021574D01*
X187221968Y-114024150D01*
X187294655Y-114028889D01*
X187358809Y-114034920D01*
X187376896Y-114037170D01*
X187448300Y-114043509D01*
X187500981Y-114038187D01*
X187540035Y-114018362D01*
X187570557Y-113981195D01*
X187597644Y-113923844D01*
X187602437Y-113911455D01*
X187623898Y-113862412D01*
X187649449Y-113814375D01*
X187662063Y-113794426D01*
X187711934Y-113743329D01*
X187775127Y-113710001D01*
X187846455Y-113694818D01*
X187920730Y-113698155D01*
G36*
X191770690Y-114271850D02*
G01*
X192362230Y-114271850D01*
X192424178Y-114310146D01*
X192482144Y-114359362D01*
X192524041Y-114422278D01*
X192549243Y-114493815D01*
X192557125Y-114568891D01*
X192547059Y-114642426D01*
X192518421Y-114709341D01*
X192479227Y-114757018D01*
X192455051Y-114777019D01*
X192428737Y-114792848D01*
X192396791Y-114805190D01*
X192355716Y-114814729D01*
X192302017Y-114822149D01*
X192232198Y-114828135D01*
X192142763Y-114833370D01*
X192072009Y-114836715D01*
X191977939Y-114840859D01*
X191901474Y-114843939D01*
X191837147Y-114845945D01*
X191779492Y-114846868D01*
X191723040Y-114846699D01*
X191662326Y-114845428D01*
X191591881Y-114843048D01*
X191506239Y-114839548D01*
X191416091Y-114835629D01*
X191333295Y-114831843D01*
X191271436Y-114828325D01*
X191226072Y-114824373D01*
X191192758Y-114819285D01*
X191167052Y-114812359D01*
X191144509Y-114802892D01*
X191120687Y-114790182D01*
X191117641Y-114788468D01*
X191070418Y-114756422D01*
X191036360Y-114717641D01*
X191015998Y-114683136D01*
X190994879Y-114638723D01*
X190985290Y-114601720D01*
X190984408Y-114558582D01*
X190985752Y-114537976D01*
X190997606Y-114463768D01*
X191022596Y-114404613D01*
X191064377Y-114352003D01*
X191066581Y-114349781D01*
X191084160Y-114332118D01*
X191100062Y-114317344D01*
X191116614Y-114305203D01*
X191136148Y-114295436D01*
X191160991Y-114287785D01*
X191193475Y-114281993D01*
X191235927Y-114277803D01*
X191290677Y-114274955D01*
X191360056Y-114273193D01*
X191446391Y-114272258D01*
X191552014Y-114271893D01*
X191679252Y-114271839D01*
X191770690Y-114271850D01*
G37*
X191770690Y-114271850D02*
X192362230Y-114271850D01*
X192424178Y-114310146D01*
X192482144Y-114359362D01*
X192524041Y-114422278D01*
X192549243Y-114493815D01*
X192557125Y-114568891D01*
X192547059Y-114642426D01*
X192518421Y-114709341D01*
X192479227Y-114757018D01*
X192455051Y-114777019D01*
X192428737Y-114792848D01*
X192396791Y-114805190D01*
X192355716Y-114814729D01*
X192302017Y-114822149D01*
X192232198Y-114828135D01*
X192142763Y-114833370D01*
X192072009Y-114836715D01*
X191977939Y-114840859D01*
X191901474Y-114843939D01*
X191837147Y-114845945D01*
X191779492Y-114846868D01*
X191723040Y-114846699D01*
X191662326Y-114845428D01*
X191591881Y-114843048D01*
X191506239Y-114839548D01*
X191416091Y-114835629D01*
X191333295Y-114831843D01*
X191271436Y-114828325D01*
X191226072Y-114824373D01*
X191192758Y-114819285D01*
X191167052Y-114812359D01*
X191144509Y-114802892D01*
X191120687Y-114790182D01*
X191117641Y-114788468D01*
X191070418Y-114756422D01*
X191036360Y-114717641D01*
X191015998Y-114683136D01*
X190994879Y-114638723D01*
X190985290Y-114601720D01*
X190984408Y-114558582D01*
X190985752Y-114537976D01*
X190997606Y-114463768D01*
X191022596Y-114404613D01*
X191064377Y-114352003D01*
X191066581Y-114349781D01*
X191084160Y-114332118D01*
X191100062Y-114317344D01*
X191116614Y-114305203D01*
X191136148Y-114295436D01*
X191160991Y-114287785D01*
X191193475Y-114281993D01*
X191235927Y-114277803D01*
X191290677Y-114274955D01*
X191360056Y-114273193D01*
X191446391Y-114272258D01*
X191552014Y-114271893D01*
X191679252Y-114271839D01*
X191770690Y-114271850D01*
G36*
X199778372Y-101816794D02*
G01*
X199899792Y-101846465D01*
X200010444Y-101897411D01*
X200112814Y-101970853D01*
X200209384Y-102068014D01*
X200233997Y-102097494D01*
X200338528Y-102242486D01*
X200422419Y-102394483D01*
X200487951Y-102558287D01*
X200536336Y-102733900D01*
X200545439Y-102777780D01*
X200552300Y-102820343D01*
X200557227Y-102866241D01*
X200560530Y-102920124D01*
X200562517Y-102986645D01*
X200563498Y-103070455D01*
X200563758Y-103146650D01*
X200562876Y-103282596D01*
X200559405Y-103400245D01*
X200552689Y-103506625D01*
X200542073Y-103608766D01*
X200526903Y-103713695D01*
X200506523Y-103828442D01*
X200494477Y-103890178D01*
X200421473Y-104192276D01*
X200324756Y-104485334D01*
X200204216Y-104769636D01*
X200059743Y-105045471D01*
X200028823Y-105098213D01*
X199995940Y-105152203D01*
X199962062Y-105205208D01*
X199924917Y-105260416D01*
X199882236Y-105321018D01*
X199831749Y-105390200D01*
X199771187Y-105471153D01*
X199698280Y-105567064D01*
X199653225Y-105625877D01*
X199631660Y-105659874D01*
X199619380Y-105690677D01*
X199618300Y-105698862D01*
X199630535Y-105731580D01*
X199666685Y-105769230D01*
X199725916Y-105811034D01*
X199759914Y-105831014D01*
X199798734Y-105854285D01*
X199851275Y-105887862D01*
X199910624Y-105927239D01*
X199969464Y-105967628D01*
X200196840Y-106140290D01*
X200407597Y-106328751D01*
X200602317Y-106533851D01*
X200781585Y-106756429D01*
X200945982Y-106997327D01*
X201096091Y-107257383D01*
X201232497Y-107537437D01*
X201355781Y-107838330D01*
X201444925Y-108093300D01*
X201595525Y-108593969D01*
X201724685Y-109103794D01*
X201831661Y-109619098D01*
X201915709Y-110136204D01*
X201976083Y-110651434D01*
X201986322Y-110766650D01*
X201998230Y-110912205D01*
X202008076Y-111040888D01*
X202016110Y-111158001D01*
X202022583Y-111268847D01*
X202027745Y-111378727D01*
X202031845Y-111492945D01*
X202035134Y-111616803D01*
X202037860Y-111755603D01*
X202040210Y-111909912D01*
X202041281Y-112263290D01*
X202034156Y-112596584D01*
X202018395Y-112913895D01*
X201993558Y-113219326D01*
X201959207Y-113516977D01*
X201914901Y-113810952D01*
X201860202Y-114105353D01*
X201794670Y-114404280D01*
X201755896Y-114563950D01*
X201682838Y-114834524D01*
X201604169Y-115084083D01*
X201518420Y-115316669D01*
X201424121Y-115536327D01*
X201339804Y-115708824D01*
X201267662Y-115843491D01*
X201200520Y-115956903D01*
X201135705Y-116052015D01*
X201070542Y-116131785D01*
X201002358Y-116199170D01*
X200928479Y-116257126D01*
X200846232Y-116308610D01*
X200754950Y-116355628D01*
X200671266Y-116393350D01*
X200598725Y-116420440D01*
X200529740Y-116438526D01*
X200456724Y-116449236D01*
X200372090Y-116454200D01*
X200291400Y-116455128D01*
X200216312Y-116454638D01*
X200160187Y-116452834D01*
X200116592Y-116448921D01*
X200079094Y-116442100D01*
X200041259Y-116431574D01*
X200005771Y-116419722D01*
X199868333Y-116360005D01*
X199749050Y-116282633D01*
X199648108Y-116187902D01*
X199565691Y-116076109D01*
X199501986Y-115947550D01*
X199457178Y-115802522D01*
X199431452Y-115641321D01*
X199424728Y-115491050D01*
X199425435Y-115439792D01*
X199427723Y-115391684D01*
X199432203Y-115342274D01*
X199439486Y-115287115D01*
X199450182Y-115221756D01*
X199464901Y-115141749D01*
X199484255Y-115042644D01*
X199490705Y-115010281D01*
X199508031Y-114922477D01*
X199523254Y-114843139D01*
X199535773Y-114775581D01*
X199544988Y-114723114D01*
X199550299Y-114689049D01*
X199551169Y-114676735D01*
X199537759Y-114679924D01*
X199511767Y-114698436D01*
X199477347Y-114728487D01*
X199438651Y-114766293D01*
X199399830Y-114808069D01*
X199375329Y-114837000D01*
X199333953Y-114885055D01*
X199277000Y-114946752D01*
X199207822Y-115018793D01*
X199129770Y-115097881D01*
X199046194Y-115180718D01*
X198960446Y-115264007D01*
X198875878Y-115344452D01*
X198795840Y-115418755D01*
X198723683Y-115483618D01*
X198678500Y-115522617D01*
X198376784Y-115763975D01*
X198066962Y-115986503D01*
X197753112Y-116187315D01*
X197668850Y-116237067D01*
X197197073Y-116501018D01*
X196725434Y-116745756D01*
X196255155Y-116970804D01*
X195787458Y-117175687D01*
X195323565Y-117359928D01*
X194864698Y-117523051D01*
X194412080Y-117664579D01*
X193966931Y-117784036D01*
X193530475Y-117880946D01*
X193376250Y-117910125D01*
X193222601Y-117936656D01*
X193072735Y-117959958D01*
X192922993Y-117980390D01*
X192769721Y-117998313D01*
X192609263Y-118014087D01*
X192437963Y-118028071D01*
X192252165Y-118040625D01*
X192048213Y-118052110D01*
X191826850Y-118062690D01*
X191732147Y-118067055D01*
X191659044Y-118070978D01*
X191603754Y-118074931D01*
X191562494Y-118079388D01*
X191531477Y-118084820D01*
X191506919Y-118091701D01*
X191485036Y-118100502D01*
X191471250Y-118107081D01*
X191444558Y-118123366D01*
X191410173Y-118150144D01*
X191366255Y-118189118D01*
X191310962Y-118241993D01*
X191242453Y-118310471D01*
X191160128Y-118394971D01*
X190998592Y-118559091D01*
X190847029Y-118706006D01*
X190701090Y-118839490D01*
X190556425Y-118963316D01*
X190408686Y-119081257D01*
X190253523Y-119197087D01*
X190153579Y-119268172D01*
X190011278Y-119364258D01*
X189860466Y-119459760D01*
X189704632Y-119552831D01*
X189547265Y-119641625D01*
X189391855Y-119724295D01*
X189241891Y-119798995D01*
X189100861Y-119863878D01*
X188972255Y-119917098D01*
X188859563Y-119956809D01*
X188842350Y-119962050D01*
X188790906Y-119976213D01*
X188743530Y-119986191D01*
X188693208Y-119992863D01*
X188632925Y-119997107D01*
X188555665Y-119999803D01*
X188537550Y-120000234D01*
X188464786Y-120001030D01*
X188395761Y-120000269D01*
X188336959Y-119998125D01*
X188294867Y-119994775D01*
X188285578Y-119993403D01*
X188129671Y-119954501D01*
X187986933Y-119897176D01*
X187859440Y-119822639D01*
X187749270Y-119732105D01*
X187658892Y-119627334D01*
X187587410Y-119506774D01*
X187539106Y-119378548D01*
X187513880Y-119245158D01*
X187511631Y-119109103D01*
X187532259Y-118972884D01*
X187575665Y-118839001D01*
X187641749Y-118709954D01*
X187698868Y-118627175D01*
X187746787Y-118571173D01*
X187812555Y-118503627D01*
X187893017Y-118427270D01*
X187985013Y-118344835D01*
X188085387Y-118259053D01*
X188190981Y-118172659D01*
X188298636Y-118088384D01*
X188405195Y-118008961D01*
X188451598Y-117975778D01*
X188517816Y-117927639D01*
X188563808Y-117890277D01*
X188591275Y-117861653D01*
X188601921Y-117839726D01*
X188597448Y-117822460D01*
X188587530Y-117812980D01*
X188563440Y-117799355D01*
X188550997Y-117796025D01*
X188516366Y-117793163D01*
X188463093Y-117785589D01*
X188397253Y-117774432D01*
X188324924Y-117760823D01*
X188252183Y-117745891D01*
X188185105Y-117730766D01*
X188142814Y-117720146D01*
X187917078Y-117648917D01*
X187700712Y-117557598D01*
X187488881Y-117444035D01*
X187400806Y-117389639D01*
X187331810Y-117348282D01*
X187277410Y-117323037D01*
X187233545Y-117312777D01*
X187196154Y-117316378D01*
X187172147Y-117326281D01*
X187153816Y-117338653D01*
X187120124Y-117363711D01*
X187075428Y-117398131D01*
X187024087Y-117438591D01*
X187008842Y-117450768D01*
X186738127Y-117656404D01*
X186456347Y-117847941D01*
X186160140Y-118027409D01*
X185846144Y-118196838D01*
X185510997Y-118358257D01*
X185489984Y-118367804D01*
X185310706Y-118444339D01*
X185146899Y-118503888D01*
X184995485Y-118546815D01*
X184853384Y-118573485D01*
X184717519Y-118584263D01*
X184584809Y-118579514D01*
X184452177Y-118559601D01*
X184316544Y-118524889D01*
X184274966Y-118511697D01*
X184138620Y-118456285D01*
X184023351Y-118386910D01*
X183928753Y-118303158D01*
X183854417Y-118204617D01*
X183799937Y-118090872D01*
X183773514Y-118002475D01*
X183760137Y-117903387D01*
X183761600Y-117816268D01*
X184334649Y-117816268D01*
X184341525Y-117872944D01*
X184368424Y-117919639D01*
X184416410Y-117957354D01*
X184486549Y-117987092D01*
X184579906Y-118009852D01*
X184633954Y-118018691D01*
X184691402Y-118021835D01*
X184758554Y-118015621D01*
X184837247Y-117999482D01*
X184929315Y-117972852D01*
X185036593Y-117935162D01*
X185160915Y-117885846D01*
X185304118Y-117824337D01*
X185395685Y-117783243D01*
X185551341Y-117709868D01*
X185702119Y-117633138D01*
X185851071Y-117551142D01*
X186001252Y-117461965D01*
X186155717Y-117363693D01*
X186317519Y-117254412D01*
X186489714Y-117132209D01*
X186675356Y-116995169D01*
X186781662Y-116914787D01*
X186847565Y-116865338D01*
X186912715Y-116817781D01*
X186972014Y-116775741D01*
X187020366Y-116742845D01*
X187047288Y-116725816D01*
X187137998Y-116681569D01*
X187222412Y-116661174D01*
X187303488Y-116664828D01*
X187384182Y-116692728D01*
X187467452Y-116745071D01*
X187479863Y-116754660D01*
X187584204Y-116833139D01*
X187690605Y-116906044D01*
X187792732Y-116969261D01*
X187884252Y-117018677D01*
X187892700Y-117022760D01*
X188047455Y-117087626D01*
X188223372Y-117145084D01*
X188417064Y-117194235D01*
X188625141Y-117234184D01*
X188772500Y-117255556D01*
X188886420Y-117269463D01*
X188978522Y-117279006D01*
X189052069Y-117283828D01*
X189110324Y-117283571D01*
X189156552Y-117277879D01*
X189194015Y-117266393D01*
X189225978Y-117248757D01*
X189255703Y-117224613D01*
X189280477Y-117199940D01*
X189315913Y-117162655D01*
X189360930Y-117115225D01*
X189407651Y-117065952D01*
X189423656Y-117049060D01*
X189478757Y-116993495D01*
X189524105Y-116955275D01*
X189565152Y-116931398D01*
X189607347Y-116918860D01*
X189656143Y-116914659D01*
X189667850Y-116914556D01*
X189750940Y-116926071D01*
X189823851Y-116958765D01*
X189883148Y-117010005D01*
X189925398Y-117077159D01*
X189941193Y-117124224D01*
X189947700Y-117162418D01*
X189947867Y-117200763D01*
X189940534Y-117241081D01*
X189924542Y-117285196D01*
X189898730Y-117334931D01*
X189861939Y-117392109D01*
X189813010Y-117458554D01*
X189750782Y-117536088D01*
X189674096Y-117626535D01*
X189581792Y-117731719D01*
X189488371Y-117836090D01*
X189428096Y-117901740D01*
X189369341Y-117962720D01*
X189309392Y-118021363D01*
X189245534Y-118080001D01*
X189175053Y-118140966D01*
X189095235Y-118206593D01*
X189003366Y-118279212D01*
X188896732Y-118361157D01*
X188772619Y-118454760D01*
X188740750Y-118478606D01*
X188594835Y-118589289D01*
X188469579Y-118688100D01*
X188363895Y-118776293D01*
X188276694Y-118855119D01*
X188206888Y-118925830D01*
X188153390Y-118989680D01*
X188115111Y-119047920D01*
X188090964Y-119101804D01*
X188079861Y-119152582D01*
X188080714Y-119201508D01*
X188086776Y-119231484D01*
X188117496Y-119299346D01*
X188168122Y-119355068D01*
X188235897Y-119397976D01*
X188318064Y-119427398D01*
X188411864Y-119442661D01*
X188514540Y-119443093D01*
X188623335Y-119428019D01*
X188735491Y-119396767D01*
X188747100Y-119392611D01*
X188940430Y-119315328D01*
X189135402Y-119223926D01*
X189333933Y-119117235D01*
X189537940Y-118994081D01*
X189749341Y-118853292D01*
X189970053Y-118693695D01*
X190201993Y-118514118D01*
X190260999Y-118466739D01*
X190304726Y-118430166D01*
X190357849Y-118383794D01*
X190417611Y-118330226D01*
X190481254Y-118272069D01*
X190546022Y-118211928D01*
X190609157Y-118152406D01*
X190667901Y-118096110D01*
X190719498Y-118045643D01*
X190761189Y-118003612D01*
X190790218Y-117972621D01*
X190803827Y-117955275D01*
X190804500Y-117953277D01*
X190810653Y-117942587D01*
X190829809Y-117919650D01*
X190863011Y-117883351D01*
X190911302Y-117832573D01*
X190975724Y-117766202D01*
X191052150Y-117688365D01*
X191104660Y-117636705D01*
X191150309Y-117597266D01*
X191194099Y-117568032D01*
X191241031Y-117546988D01*
X191296104Y-117532115D01*
X191364319Y-117521399D01*
X191450679Y-117512822D01*
X191496650Y-117509135D01*
X191585222Y-117503133D01*
X191681200Y-117498007D01*
X191774863Y-117494193D01*
X191856491Y-117492126D01*
X191881315Y-117491893D01*
X192229608Y-117481608D01*
X192590452Y-117453606D01*
X192958897Y-117408576D01*
X193329991Y-117347208D01*
X193698782Y-117270189D01*
X193981662Y-117199692D01*
X194529521Y-117040006D01*
X195068603Y-116856645D01*
X195599219Y-116649475D01*
X196121678Y-116418365D01*
X196636292Y-116163182D01*
X197143370Y-115883795D01*
X197319600Y-115779982D01*
X197638794Y-115581108D01*
X197933750Y-115381142D01*
X198205627Y-115178913D01*
X198455587Y-114973250D01*
X198684789Y-114762983D01*
X198894396Y-114546939D01*
X199085567Y-114323949D01*
X199259463Y-114092841D01*
X199417246Y-113852443D01*
X199560075Y-113601586D01*
X199644327Y-113434690D01*
X199690018Y-113342767D01*
X199729372Y-113271547D01*
X199764962Y-113217946D01*
X199799358Y-113178878D01*
X199835128Y-113151260D01*
X199874845Y-113132006D01*
X199904584Y-113122350D01*
X199984933Y-113112220D01*
X200064794Y-113124509D01*
X200138479Y-113157134D01*
X200200295Y-113208010D01*
X200225009Y-113239691D01*
X200238051Y-113260404D01*
X200247433Y-113280050D01*
X200253868Y-113303308D01*
X200258065Y-113334855D01*
X200260737Y-113379368D01*
X200262595Y-113441526D01*
X200263716Y-113494258D01*
X200263817Y-113598802D01*
X200260607Y-113719161D01*
X200254518Y-113849045D01*
X200245982Y-113982161D01*
X200235433Y-114112218D01*
X200223302Y-114232924D01*
X200210021Y-114337988D01*
X200202381Y-114386840D01*
X200192749Y-114439552D01*
X200178637Y-114511877D01*
X200161103Y-114598639D01*
X200141205Y-114694661D01*
X200120002Y-114794768D01*
X200101894Y-114878508D01*
X200073510Y-115009803D01*
X200050567Y-115119687D01*
X200032589Y-115211448D01*
X200019102Y-115288375D01*
X200009629Y-115353758D01*
X200003695Y-115410886D01*
X200000825Y-115463048D01*
X200000544Y-115513533D01*
X200002375Y-115565631D01*
X200002428Y-115566672D01*
X200014013Y-115669224D01*
X200038086Y-115750399D01*
X200076041Y-115811668D01*
X200129270Y-115854502D01*
X200199166Y-115880372D01*
X200287120Y-115890749D01*
X200309565Y-115891100D01*
X200389590Y-115885963D01*
X200462167Y-115869411D01*
X200529102Y-115839725D01*
X200592203Y-115795189D01*
X200653275Y-115734086D01*
X200714127Y-115654700D01*
X200776565Y-115555314D01*
X200842395Y-115434211D01*
X200889116Y-115340444D01*
X200961396Y-115177884D01*
X201031884Y-114993102D01*
X201099731Y-114789258D01*
X201164087Y-114569513D01*
X201224102Y-114337027D01*
X201278927Y-114094962D01*
X201327712Y-113846477D01*
X201369608Y-113594733D01*
X201382899Y-113503500D01*
X201407127Y-113319431D01*
X201427072Y-113141988D01*
X201442964Y-112966843D01*
X201455031Y-112789667D01*
X201463503Y-112606130D01*
X201468609Y-112411905D01*
X201470579Y-112202662D01*
X201469640Y-111974073D01*
X201468609Y-111884250D01*
X201461026Y-111545521D01*
X201447152Y-111225611D01*
X201426417Y-110918593D01*
X201398256Y-110618538D01*
X201362100Y-110319519D01*
X201317381Y-110015608D01*
X201263534Y-109700879D01*
X201255264Y-109655775D01*
X201200766Y-109371618D01*
X201146351Y-109110625D01*
X201091290Y-108870571D01*
X201034858Y-108649233D01*
X200976326Y-108444388D01*
X200914968Y-108253811D01*
X200850057Y-108075279D01*
X200780866Y-107906568D01*
X200706668Y-107745455D01*
X200626735Y-107589716D01*
X200540341Y-107437126D01*
X200517263Y-107398575D01*
X200361551Y-107158897D01*
X200198658Y-106943244D01*
X200027761Y-106751049D01*
X199848037Y-106581747D01*
X199658663Y-106434771D01*
X199458819Y-106309555D01*
X199247680Y-106205532D01*
X199024425Y-106122137D01*
X198788232Y-106058803D01*
X198538277Y-106014963D01*
X198500700Y-106010174D01*
X198431145Y-106003585D01*
X198342431Y-105998031D01*
X198239850Y-105993590D01*
X198128691Y-105990342D01*
X198014247Y-105988366D01*
X197901808Y-105987740D01*
X197796664Y-105988543D01*
X197704107Y-105990853D01*
X197629427Y-105994751D01*
X197605147Y-105996831D01*
X197401207Y-106023632D01*
X197206916Y-106062934D01*
X197018053Y-106116226D01*
X196830398Y-106184999D01*
X196639730Y-106270743D01*
X196441828Y-106374948D01*
X196300407Y-106457453D01*
X196119941Y-106570496D01*
X195949665Y-106685974D01*
X195784913Y-106807501D01*
X195621016Y-106938696D01*
X195453307Y-107083172D01*
X195277120Y-107244548D01*
X195243150Y-107276614D01*
X195149359Y-107366600D01*
X195047736Y-107466055D01*
X194939741Y-107573421D01*
X194826838Y-107687141D01*
X194710487Y-107805657D01*
X194592152Y-107927411D01*
X194473294Y-108050847D01*
X194355376Y-108174408D01*
X194239860Y-108296534D01*
X194128208Y-108415670D01*
X194021881Y-108530258D01*
X193922343Y-108638740D01*
X193831056Y-108739559D01*
X193749481Y-108831158D01*
X193679080Y-108911979D01*
X193621317Y-108980465D01*
X193577652Y-109035058D01*
X193549549Y-109074201D01*
X193540527Y-109090147D01*
X193526545Y-109127835D01*
X193516544Y-109171853D01*
X193509459Y-109228505D01*
X193504231Y-109304094D01*
X193504121Y-109306150D01*
X193494743Y-109453421D01*
X193482660Y-109584061D01*
X193466829Y-109706781D01*
X193446205Y-109830295D01*
X193433143Y-109898206D01*
X193404182Y-110032611D01*
X193375847Y-110142450D01*
X193347884Y-110228542D01*
X193320037Y-110291707D01*
X193300550Y-110322623D01*
X193246546Y-110373855D01*
X193180117Y-110406813D01*
X193106546Y-110421431D01*
X193031118Y-110417641D01*
X192959118Y-110395378D01*
X192895830Y-110354573D01*
X192869843Y-110328078D01*
X192845159Y-110294035D01*
X192829476Y-110258064D01*
X192821021Y-110213242D01*
X192818023Y-110152647D01*
X192817940Y-110125300D01*
X192819110Y-110054850D01*
X192822499Y-110001773D01*
X192829052Y-109958076D01*
X192839714Y-109915764D01*
X192844612Y-109899736D01*
X192857486Y-109852980D01*
X192867557Y-109806326D01*
X192868914Y-109798136D01*
X192875231Y-109759390D01*
X192881076Y-109727793D01*
X192881611Y-109725250D01*
X192895755Y-109658820D01*
X192906830Y-109603105D01*
X192915219Y-109553534D01*
X192921306Y-109505536D01*
X192925473Y-109454538D01*
X192928104Y-109395970D01*
X192929581Y-109325260D01*
X192930289Y-109237838D01*
X192930585Y-109141050D01*
X192930172Y-109002918D01*
X192928051Y-108886049D01*
X192923882Y-108786342D01*
X192917323Y-108699697D01*
X192908034Y-108622012D01*
X192895674Y-108549188D01*
X192879901Y-108477124D01*
X192873112Y-108449750D01*
X192858074Y-108398403D01*
X192838691Y-108342925D01*
X192817201Y-108288542D01*
X192795847Y-108240481D01*
X192776868Y-108203968D01*
X192762505Y-108184230D01*
X192758419Y-108182200D01*
X192748812Y-108171886D01*
X192747600Y-108163150D01*
X192741529Y-108146237D01*
X192736381Y-108144099D01*
X192724437Y-108133555D01*
X192718716Y-108119449D01*
X192701602Y-108097161D01*
X192667040Y-108076680D01*
X192622922Y-108061526D01*
X192577142Y-108055220D01*
X192574649Y-108055200D01*
X192527290Y-108061510D01*
X192463718Y-108079206D01*
X192389394Y-108106433D01*
X192309782Y-108141336D01*
X192284050Y-108153839D01*
X192170872Y-108215825D01*
X192058066Y-108289280D01*
X191944498Y-108375401D01*
X191829039Y-108475382D01*
X191710557Y-108590419D01*
X191587920Y-108721707D01*
X191459998Y-108870441D01*
X191325659Y-109037816D01*
X191183772Y-109225027D01*
X191033206Y-109433270D01*
X190920323Y-109594678D01*
X190853686Y-109689340D01*
X190797353Y-109764801D01*
X190748730Y-109823738D01*
X190705224Y-109868832D01*
X190664240Y-109902762D01*
X190623185Y-109928207D01*
X190579463Y-109947846D01*
X190577768Y-109948494D01*
X190547839Y-109959151D01*
X190520633Y-109966189D01*
X190490625Y-109969960D01*
X190452292Y-109970815D01*
X190400110Y-109969107D01*
X190328555Y-109965187D01*
X190321900Y-109964792D01*
X190215697Y-109959737D01*
X190100288Y-109956425D01*
X189980601Y-109954818D01*
X189861569Y-109954880D01*
X189748122Y-109956572D01*
X189645190Y-109959857D01*
X189557705Y-109964698D01*
X189490596Y-109971057D01*
X189490050Y-109971127D01*
X189425031Y-109980434D01*
X189345850Y-109993103D01*
X189263216Y-110007363D01*
X189197950Y-110019470D01*
X189078408Y-110039294D01*
X188979215Y-110047867D01*
X188897655Y-110044574D01*
X188831011Y-110028802D01*
X188776568Y-109999936D01*
X188731610Y-109957365D01*
X188696657Y-109906208D01*
X188662464Y-109835336D01*
X188648358Y-109773146D01*
X188655078Y-109715218D01*
X188683366Y-109657133D01*
X188733961Y-109594471D01*
X188752022Y-109575709D01*
X188791270Y-109534443D01*
X188821458Y-109497033D01*
X188843622Y-109459382D01*
X188858800Y-109417390D01*
X188868031Y-109366959D01*
X188872351Y-109303991D01*
X188872800Y-109224387D01*
X188870413Y-109124048D01*
X188869967Y-109109851D01*
X188861679Y-108931688D01*
X188848530Y-108756655D01*
X188830981Y-108587375D01*
X188809491Y-108426468D01*
X188784519Y-108276555D01*
X188756526Y-108140258D01*
X188725972Y-108020197D01*
X188693315Y-107918995D01*
X188659017Y-107839272D01*
X188641792Y-107808910D01*
X188594726Y-107752296D01*
X188540441Y-107717757D01*
X188481526Y-107706559D01*
X188443643Y-107711938D01*
X188383347Y-107736736D01*
X188312319Y-107780392D01*
X188233524Y-107840376D01*
X188149929Y-107914156D01*
X188064499Y-107999200D01*
X187980200Y-108092977D01*
X187939443Y-108142298D01*
X187741601Y-108408982D01*
X187564894Y-108689483D01*
X187409725Y-108982939D01*
X187276498Y-109288491D01*
X187165617Y-109605278D01*
X187077487Y-109932440D01*
X187058273Y-110019456D01*
X187032817Y-110133107D01*
X187006700Y-110231604D01*
X186977751Y-110318885D01*
X186943800Y-110398889D01*
X186902677Y-110475556D01*
X186852212Y-110552823D01*
X186790233Y-110634631D01*
X186714571Y-110724917D01*
X186623055Y-110827622D01*
X186597582Y-110855550D01*
X186453547Y-111017585D01*
X186309065Y-111188989D01*
X186166352Y-111366688D01*
X186027625Y-111547606D01*
X185895101Y-111728667D01*
X185770997Y-111906797D01*
X185657530Y-112078919D01*
X185556916Y-112241959D01*
X185471373Y-112392841D01*
X185425783Y-112481150D01*
X185328852Y-112696515D01*
X185251893Y-112910924D01*
X185192170Y-113132796D01*
X185157383Y-113307195D01*
X185146648Y-113389029D01*
X185139235Y-113487150D01*
X185135144Y-113595142D01*
X185134375Y-113706588D01*
X185136928Y-113815073D01*
X185142802Y-113914180D01*
X185151999Y-113997493D01*
X185157385Y-114028949D01*
X185204682Y-114218906D01*
X185267950Y-114390831D01*
X185348574Y-114547488D01*
X185447939Y-114691638D01*
X185545743Y-114803876D01*
X185643533Y-114897520D01*
X185749485Y-114982173D01*
X185867261Y-115060106D01*
X186000523Y-115133592D01*
X186152934Y-115204902D01*
X186271550Y-115254175D01*
X186408251Y-115305877D01*
X186546445Y-115352404D01*
X186688709Y-115394255D01*
X186837617Y-115431924D01*
X186995748Y-115465911D01*
X187165675Y-115496710D01*
X187349976Y-115524819D01*
X187551226Y-115550735D01*
X187772001Y-115574954D01*
X188014878Y-115597974D01*
X188086700Y-115604229D01*
X188210856Y-115615460D01*
X188314435Y-115626105D01*
X188396300Y-115636021D01*
X188455315Y-115645070D01*
X188490345Y-115653109D01*
X188494741Y-115654738D01*
X188567071Y-115697069D01*
X188620225Y-115752133D01*
X188654358Y-115816188D01*
X188669623Y-115885488D01*
X188666175Y-115956292D01*
X188644169Y-116024855D01*
X188603759Y-116087434D01*
X188545100Y-116140285D01*
X188473155Y-116177866D01*
X188453473Y-116184948D01*
X188434212Y-116190113D01*
X188411869Y-116193367D01*
X188382943Y-116194718D01*
X188343928Y-116194171D01*
X188291324Y-116191733D01*
X188221628Y-116187411D01*
X188131336Y-116181211D01*
X188093995Y-116178583D01*
X187816970Y-116156662D01*
X187562321Y-116131439D01*
X187327192Y-116102513D01*
X187108724Y-116069485D01*
X186904061Y-116031952D01*
X186710344Y-115989515D01*
X186662127Y-115977805D01*
X186582811Y-115957957D01*
X186518691Y-115943019D01*
X186466285Y-115934423D01*
X186422111Y-115933601D01*
X186382689Y-115941984D01*
X186344538Y-115961003D01*
X186304175Y-115992091D01*
X186258119Y-116036678D01*
X186202889Y-116096197D01*
X186135005Y-116172079D01*
X186103277Y-116207615D01*
X186002475Y-116316202D01*
X185898308Y-116419808D01*
X185787556Y-116521149D01*
X185666999Y-116622943D01*
X185533420Y-116727905D01*
X185383599Y-116838753D01*
X185214317Y-116958202D01*
X185212003Y-116959804D01*
X185067855Y-117060442D01*
X184934906Y-117155073D01*
X184814918Y-117242386D01*
X184709654Y-117321065D01*
X184620876Y-117389798D01*
X184550346Y-117447271D01*
X184507982Y-117484504D01*
X184435057Y-117564584D01*
X184381800Y-117653672D01*
X184346731Y-117748609D01*
X184334649Y-117816268D01*
X183761600Y-117816268D01*
X183762027Y-117790909D01*
X183778304Y-117671256D01*
X183808085Y-117550646D01*
X183850490Y-117435292D01*
X183855521Y-117423998D01*
X183885982Y-117360907D01*
X183919090Y-117301583D01*
X183956512Y-117244490D01*
X183999916Y-117188092D01*
X184050969Y-117130853D01*
X184111339Y-117071235D01*
X184182692Y-117007705D01*
X184266696Y-116938724D01*
X184365018Y-116862758D01*
X184479326Y-116778271D01*
X184611287Y-116683725D01*
X184762567Y-116577586D01*
X184810100Y-116544551D01*
X184959110Y-116440052D01*
X185089089Y-116346286D01*
X185202804Y-116260950D01*
X185303025Y-116181744D01*
X185392523Y-116106369D01*
X185474066Y-116032524D01*
X185550424Y-115957908D01*
X185624366Y-115880221D01*
X185668082Y-115831900D01*
X185711731Y-115782022D01*
X185742145Y-115742388D01*
X185758133Y-115709844D01*
X185758503Y-115681235D01*
X185742065Y-115653407D01*
X185707629Y-115623205D01*
X185654001Y-115587476D01*
X185579993Y-115543064D01*
X185553050Y-115527230D01*
X185433007Y-115452895D01*
X185329605Y-115379587D01*
X185235102Y-115301222D01*
X185141753Y-115211714D01*
X185111005Y-115179876D01*
X184991440Y-115042921D01*
X184889932Y-114901203D01*
X184803469Y-114749548D01*
X184729036Y-114582781D01*
X184674694Y-114430600D01*
X184647137Y-114348864D01*
X184624071Y-114288386D01*
X184604007Y-114245739D01*
X184585454Y-114217496D01*
X184578815Y-114210152D01*
X184542608Y-114173854D01*
X184296150Y-114183095D01*
X184210884Y-114186173D01*
X184146836Y-114187938D01*
X184099841Y-114188127D01*
X184065740Y-114186474D01*
X184040370Y-114182718D01*
X184019570Y-114176593D01*
X183999177Y-114167836D01*
X183990604Y-114163732D01*
X183926962Y-114119273D01*
X183877764Y-114056342D01*
X183846371Y-113979320D01*
X183845009Y-113973854D01*
X183839266Y-113898414D01*
X183856120Y-113824624D01*
X183892970Y-113757313D01*
X183947213Y-113701313D01*
X184012483Y-113662988D01*
X184044577Y-113654247D01*
X184096935Y-113645381D01*
X184164435Y-113637116D01*
X184241953Y-113630175D01*
X184247433Y-113629771D01*
X184336423Y-113623146D01*
X184403521Y-113617536D01*
X184452184Y-113612295D01*
X184485867Y-113606778D01*
X184508023Y-113600340D01*
X184522110Y-113592335D01*
X184531581Y-113582118D01*
X184535695Y-113575931D01*
X184545788Y-113550413D01*
X184556845Y-113507860D01*
X184566813Y-113456456D01*
X184568777Y-113443974D01*
X184576009Y-113386042D01*
X184576461Y-113340135D01*
X184567601Y-113302297D01*
X184546896Y-113268570D01*
X184511813Y-113234996D01*
X184459822Y-113197620D01*
X184388389Y-113152483D01*
X184378300Y-113146302D01*
X184287934Y-113089230D01*
X184217703Y-113040232D01*
X184164732Y-112996615D01*
X184126151Y-112955688D01*
X184099085Y-112914760D01*
X184080664Y-112871140D01*
X184078984Y-112865878D01*
X184065162Y-112784494D01*
X184074308Y-112709791D01*
X184104326Y-112644361D01*
X184153116Y-112590792D01*
X184218579Y-112551673D01*
X184298617Y-112529595D01*
X184354760Y-112525599D01*
X184389705Y-112528402D01*
X184427480Y-112538217D01*
X184474225Y-112557155D01*
X184536082Y-112587326D01*
X184539549Y-112589100D01*
X184592698Y-112615111D01*
X184639828Y-112635967D01*
X184675045Y-112649186D01*
X184690383Y-112652600D01*
X184709732Y-112649379D01*
X184727555Y-112637572D01*
X184745997Y-112613955D01*
X184767204Y-112575308D01*
X184793322Y-112518410D01*
X184817309Y-112462100D01*
X184906195Y-112265707D01*
X185011407Y-112062786D01*
X185133594Y-111852393D01*
X185273402Y-111633583D01*
X185431479Y-111405411D01*
X185608474Y-111166931D01*
X185805032Y-110917200D01*
X186021801Y-110655273D01*
X186187925Y-110461850D01*
X186253233Y-110385482D01*
X186311901Y-110314196D01*
X186361371Y-110251256D01*
X186399088Y-110199928D01*
X186422495Y-110163477D01*
X186424641Y-110159441D01*
X186445207Y-110110011D01*
X186467626Y-110040077D01*
X186490488Y-109954326D01*
X186504826Y-109892741D01*
X186594323Y-109541442D01*
X186705042Y-109203436D01*
X186837687Y-108877041D01*
X186992963Y-108560577D01*
X187171576Y-108252362D01*
X187232488Y-108157168D01*
X187387407Y-107934017D01*
X187544507Y-107734966D01*
X187704926Y-107558738D01*
X187869804Y-107404054D01*
X187991450Y-107305659D01*
X188117095Y-107223855D01*
X188244803Y-107166924D01*
X188373858Y-107134954D01*
X188503541Y-107128033D01*
X188633134Y-107146253D01*
X188761919Y-107189701D01*
X188796154Y-107205619D01*
X188859256Y-107243943D01*
X188929168Y-107298331D01*
X188999701Y-107363021D01*
X189064667Y-107432257D01*
X189117878Y-107500277D01*
X189126392Y-107512963D01*
X189185205Y-107619508D01*
X189238655Y-107749290D01*
X189286407Y-107900651D01*
X189328122Y-108071929D01*
X189363465Y-108261465D01*
X189392099Y-108467599D01*
X189413687Y-108688671D01*
X189427893Y-108923021D01*
X189431336Y-109016863D01*
X189434483Y-109116291D01*
X189437392Y-109193476D01*
X189440370Y-109251571D01*
X189443727Y-109293727D01*
X189447773Y-109323096D01*
X189452818Y-109342829D01*
X189459169Y-109356079D01*
X189465424Y-109364155D01*
X189475598Y-109374202D01*
X189487687Y-109381157D01*
X189505806Y-109385347D01*
X189534072Y-109387097D01*
X189576601Y-109386733D01*
X189637508Y-109384581D01*
X189693144Y-109382192D01*
X189862847Y-109379216D01*
X190021207Y-109385315D01*
X190065047Y-109388886D01*
X190152030Y-109395755D01*
X190222642Y-109397030D01*
X190280802Y-109390550D01*
X190330430Y-109374153D01*
X190375443Y-109345677D01*
X190419762Y-109302962D01*
X190467305Y-109243846D01*
X190521992Y-109166167D01*
X190553287Y-109119620D01*
X190738471Y-108855481D01*
X190929619Y-108610327D01*
X191132028Y-108377754D01*
X191350991Y-108151356D01*
X191365051Y-108137554D01*
X191489814Y-108018813D01*
X191603629Y-107918077D01*
X191710155Y-107832570D01*
X191813048Y-107759514D01*
X191915965Y-107696133D01*
X192017350Y-107642225D01*
X192187623Y-107566918D01*
X192347790Y-107514708D01*
X192497780Y-107485596D01*
X192637524Y-107479586D01*
X192766949Y-107496681D01*
X192885986Y-107536883D01*
X192994563Y-107600195D01*
X192998553Y-107603109D01*
X193061593Y-107654558D01*
X193119018Y-107713057D01*
X193173194Y-107781999D01*
X193226489Y-107864775D01*
X193281268Y-107964777D01*
X193339899Y-108085398D01*
X193349411Y-108106000D01*
X193376919Y-108164943D01*
X193401519Y-108215840D01*
X193420912Y-108254058D01*
X193432796Y-108274968D01*
X193434393Y-108277019D01*
X193447595Y-108274112D01*
X193475775Y-108253532D01*
X193519151Y-108215064D01*
X193577940Y-108158491D01*
X193652358Y-108083598D01*
X193742622Y-107990171D01*
X193848950Y-107877993D01*
X193971558Y-107746848D01*
X194015416Y-107699600D01*
X194201974Y-107500122D01*
X194375404Y-107318675D01*
X194538017Y-107153117D01*
X194692123Y-107001308D01*
X194840032Y-106861107D01*
X194984054Y-106730374D01*
X195126500Y-106606969D01*
X195269680Y-106488751D01*
X195415904Y-106373580D01*
X195567483Y-106259315D01*
X195579700Y-106250304D01*
X195850329Y-106061689D01*
X196116578Y-105897807D01*
X196378905Y-105758458D01*
X196637768Y-105643439D01*
X196893622Y-105552550D01*
X197146927Y-105485589D01*
X197398139Y-105442354D01*
X197421200Y-105439557D01*
X197516948Y-105422321D01*
X197591814Y-105394774D01*
X197611018Y-105381528D01*
X198308364Y-105381528D01*
X198314390Y-105397087D01*
X198326047Y-105408043D01*
X198333723Y-105412595D01*
X198352455Y-105417629D01*
X198392322Y-105425018D01*
X198449235Y-105434121D01*
X198519107Y-105444292D01*
X198597850Y-105454889D01*
X198621631Y-105457933D01*
X198700952Y-105468218D01*
X198771450Y-105477836D01*
X198829335Y-105486228D01*
X198870817Y-105492840D01*
X198892104Y-105497115D01*
X198894040Y-105497906D01*
X198911975Y-105500931D01*
X198944300Y-105495882D01*
X198982171Y-105484951D01*
X199016746Y-105470331D01*
X199025593Y-105465281D01*
X199052933Y-105443314D01*
X199087226Y-105409283D01*
X199114493Y-105378325D01*
X199143477Y-105342993D01*
X199183278Y-105294383D01*
X199228659Y-105238896D01*
X199274380Y-105182934D01*
X199274514Y-105182771D01*
X199437045Y-104963923D01*
X199580781Y-104729191D01*
X199704803Y-104480734D01*
X199808193Y-104220714D01*
X199890030Y-103951290D01*
X199949396Y-103674624D01*
X199967908Y-103553050D01*
X199978754Y-103449737D01*
X199985633Y-103336106D01*
X199988586Y-103218128D01*
X199987656Y-103101774D01*
X199982884Y-102993017D01*
X199974310Y-102897828D01*
X199962885Y-102826355D01*
X199936124Y-102727563D01*
X199900080Y-102634192D01*
X199857089Y-102550244D01*
X199809488Y-102479725D01*
X199759614Y-102426636D01*
X199711553Y-102395697D01*
X199644188Y-102380637D01*
X199573896Y-102387827D01*
X199507186Y-102415935D01*
X199467975Y-102445581D01*
X199453469Y-102460993D01*
X199438522Y-102481426D01*
X199422272Y-102508901D01*
X199403859Y-102545440D01*
X199382421Y-102593065D01*
X199357096Y-102653797D01*
X199327025Y-102729657D01*
X199291344Y-102822669D01*
X199249194Y-102934853D01*
X199199713Y-103068231D01*
X199180152Y-103121250D01*
X199090253Y-103364435D01*
X199007619Y-103586332D01*
X198931189Y-103789648D01*
X198859904Y-103977092D01*
X198792706Y-104151372D01*
X198728534Y-104315197D01*
X198666330Y-104471276D01*
X198605035Y-104622317D01*
X198543588Y-104771028D01*
X198480931Y-104920117D01*
X198428602Y-105042930D01*
X198386539Y-105141823D01*
X198354194Y-105220195D01*
X198330884Y-105280699D01*
X198315930Y-105325987D01*
X198308650Y-105358712D01*
X198308364Y-105381528D01*
X197611018Y-105381528D01*
X197648690Y-105355545D01*
X197682643Y-105315635D01*
X197694932Y-105292964D01*
X197715739Y-105249417D01*
X197743941Y-105187618D01*
X197778413Y-105110189D01*
X197818032Y-105019755D01*
X197861674Y-104918937D01*
X197908214Y-104810358D01*
X197956528Y-104696643D01*
X198005493Y-104580413D01*
X198053984Y-104464292D01*
X198100878Y-104350904D01*
X198145050Y-104242870D01*
X198185377Y-104142814D01*
X198187599Y-104137250D01*
X198222071Y-104049842D01*
X198263102Y-103944126D01*
X198308573Y-103825664D01*
X198356363Y-103700021D01*
X198404352Y-103572758D01*
X198450421Y-103449439D01*
X198475542Y-103381600D01*
X198554965Y-103167129D01*
X198627173Y-102973862D01*
X198692008Y-102802211D01*
X198749310Y-102652588D01*
X198798920Y-102525407D01*
X198840680Y-102421080D01*
X198874429Y-102340020D01*
X198895414Y-102292506D01*
X198967779Y-102163287D01*
X199056879Y-102052318D01*
X199161067Y-101960670D01*
X199278696Y-101889409D01*
X199408119Y-101839604D01*
X199547690Y-101812323D01*
X199643700Y-101807175D01*
X199778372Y-101816794D01*
G37*
X199778372Y-101816794D02*
X199899792Y-101846465D01*
X200010444Y-101897411D01*
X200112814Y-101970853D01*
X200209384Y-102068014D01*
X200233997Y-102097494D01*
X200338528Y-102242486D01*
X200422419Y-102394483D01*
X200487951Y-102558287D01*
X200536336Y-102733900D01*
X200545439Y-102777780D01*
X200552300Y-102820343D01*
X200557227Y-102866241D01*
X200560530Y-102920124D01*
X200562517Y-102986645D01*
X200563498Y-103070455D01*
X200563758Y-103146650D01*
X200562876Y-103282596D01*
X200559405Y-103400245D01*
X200552689Y-103506625D01*
X200542073Y-103608766D01*
X200526903Y-103713695D01*
X200506523Y-103828442D01*
X200494477Y-103890178D01*
X200421473Y-104192276D01*
X200324756Y-104485334D01*
X200204216Y-104769636D01*
X200059743Y-105045471D01*
X200028823Y-105098213D01*
X199995940Y-105152203D01*
X199962062Y-105205208D01*
X199924917Y-105260416D01*
X199882236Y-105321018D01*
X199831749Y-105390200D01*
X199771187Y-105471153D01*
X199698280Y-105567064D01*
X199653225Y-105625877D01*
X199631660Y-105659874D01*
X199619380Y-105690677D01*
X199618300Y-105698862D01*
X199630535Y-105731580D01*
X199666685Y-105769230D01*
X199725916Y-105811034D01*
X199759914Y-105831014D01*
X199798734Y-105854285D01*
X199851275Y-105887862D01*
X199910624Y-105927239D01*
X199969464Y-105967628D01*
X200196840Y-106140290D01*
X200407597Y-106328751D01*
X200602317Y-106533851D01*
X200781585Y-106756429D01*
X200945982Y-106997327D01*
X201096091Y-107257383D01*
X201232497Y-107537437D01*
X201355781Y-107838330D01*
X201444925Y-108093300D01*
X201595525Y-108593969D01*
X201724685Y-109103794D01*
X201831661Y-109619098D01*
X201915709Y-110136204D01*
X201976083Y-110651434D01*
X201986322Y-110766650D01*
X201998230Y-110912205D01*
X202008076Y-111040888D01*
X202016110Y-111158001D01*
X202022583Y-111268847D01*
X202027745Y-111378727D01*
X202031845Y-111492945D01*
X202035134Y-111616803D01*
X202037860Y-111755603D01*
X202040210Y-111909912D01*
X202041281Y-112263290D01*
X202034156Y-112596584D01*
X202018395Y-112913895D01*
X201993558Y-113219326D01*
X201959207Y-113516977D01*
X201914901Y-113810952D01*
X201860202Y-114105353D01*
X201794670Y-114404280D01*
X201755896Y-114563950D01*
X201682838Y-114834524D01*
X201604169Y-115084083D01*
X201518420Y-115316669D01*
X201424121Y-115536327D01*
X201339804Y-115708824D01*
X201267662Y-115843491D01*
X201200520Y-115956903D01*
X201135705Y-116052015D01*
X201070542Y-116131785D01*
X201002358Y-116199170D01*
X200928479Y-116257126D01*
X200846232Y-116308610D01*
X200754950Y-116355628D01*
X200671266Y-116393350D01*
X200598725Y-116420440D01*
X200529740Y-116438526D01*
X200456724Y-116449236D01*
X200372090Y-116454200D01*
X200291400Y-116455128D01*
X200216312Y-116454638D01*
X200160187Y-116452834D01*
X200116592Y-116448921D01*
X200079094Y-116442100D01*
X200041259Y-116431574D01*
X200005771Y-116419722D01*
X199868333Y-116360005D01*
X199749050Y-116282633D01*
X199648108Y-116187902D01*
X199565691Y-116076109D01*
X199501986Y-115947550D01*
X199457178Y-115802522D01*
X199431452Y-115641321D01*
X199424728Y-115491050D01*
X199425435Y-115439792D01*
X199427723Y-115391684D01*
X199432203Y-115342274D01*
X199439486Y-115287115D01*
X199450182Y-115221756D01*
X199464901Y-115141749D01*
X199484255Y-115042644D01*
X199490705Y-115010281D01*
X199508031Y-114922477D01*
X199523254Y-114843139D01*
X199535773Y-114775581D01*
X199544988Y-114723114D01*
X199550299Y-114689049D01*
X199551169Y-114676735D01*
X199537759Y-114679924D01*
X199511767Y-114698436D01*
X199477347Y-114728487D01*
X199438651Y-114766293D01*
X199399830Y-114808069D01*
X199375329Y-114837000D01*
X199333953Y-114885055D01*
X199277000Y-114946752D01*
X199207822Y-115018793D01*
X199129770Y-115097881D01*
X199046194Y-115180718D01*
X198960446Y-115264007D01*
X198875878Y-115344452D01*
X198795840Y-115418755D01*
X198723683Y-115483618D01*
X198678500Y-115522617D01*
X198376784Y-115763975D01*
X198066962Y-115986503D01*
X197753112Y-116187315D01*
X197668850Y-116237067D01*
X197197073Y-116501018D01*
X196725434Y-116745756D01*
X196255155Y-116970804D01*
X195787458Y-117175687D01*
X195323565Y-117359928D01*
X194864698Y-117523051D01*
X194412080Y-117664579D01*
X193966931Y-117784036D01*
X193530475Y-117880946D01*
X193376250Y-117910125D01*
X193222601Y-117936656D01*
X193072735Y-117959958D01*
X192922993Y-117980390D01*
X192769721Y-117998313D01*
X192609263Y-118014087D01*
X192437963Y-118028071D01*
X192252165Y-118040625D01*
X192048213Y-118052110D01*
X191826850Y-118062690D01*
X191732147Y-118067055D01*
X191659044Y-118070978D01*
X191603754Y-118074931D01*
X191562494Y-118079388D01*
X191531477Y-118084820D01*
X191506919Y-118091701D01*
X191485036Y-118100502D01*
X191471250Y-118107081D01*
X191444558Y-118123366D01*
X191410173Y-118150144D01*
X191366255Y-118189118D01*
X191310962Y-118241993D01*
X191242453Y-118310471D01*
X191160128Y-118394971D01*
X190998592Y-118559091D01*
X190847029Y-118706006D01*
X190701090Y-118839490D01*
X190556425Y-118963316D01*
X190408686Y-119081257D01*
X190253523Y-119197087D01*
X190153579Y-119268172D01*
X190011278Y-119364258D01*
X189860466Y-119459760D01*
X189704632Y-119552831D01*
X189547265Y-119641625D01*
X189391855Y-119724295D01*
X189241891Y-119798995D01*
X189100861Y-119863878D01*
X188972255Y-119917098D01*
X188859563Y-119956809D01*
X188842350Y-119962050D01*
X188790906Y-119976213D01*
X188743530Y-119986191D01*
X188693208Y-119992863D01*
X188632925Y-119997107D01*
X188555665Y-119999803D01*
X188537550Y-120000234D01*
X188464786Y-120001030D01*
X188395761Y-120000269D01*
X188336959Y-119998125D01*
X188294867Y-119994775D01*
X188285578Y-119993403D01*
X188129671Y-119954501D01*
X187986933Y-119897176D01*
X187859440Y-119822639D01*
X187749270Y-119732105D01*
X187658892Y-119627334D01*
X187587410Y-119506774D01*
X187539106Y-119378548D01*
X187513880Y-119245158D01*
X187511631Y-119109103D01*
X187532259Y-118972884D01*
X187575665Y-118839001D01*
X187641749Y-118709954D01*
X187698868Y-118627175D01*
X187746787Y-118571173D01*
X187812555Y-118503627D01*
X187893017Y-118427270D01*
X187985013Y-118344835D01*
X188085387Y-118259053D01*
X188190981Y-118172659D01*
X188298636Y-118088384D01*
X188405195Y-118008961D01*
X188451598Y-117975778D01*
X188517816Y-117927639D01*
X188563808Y-117890277D01*
X188591275Y-117861653D01*
X188601921Y-117839726D01*
X188597448Y-117822460D01*
X188587530Y-117812980D01*
X188563440Y-117799355D01*
X188550997Y-117796025D01*
X188516366Y-117793163D01*
X188463093Y-117785589D01*
X188397253Y-117774432D01*
X188324924Y-117760823D01*
X188252183Y-117745891D01*
X188185105Y-117730766D01*
X188142814Y-117720146D01*
X187917078Y-117648917D01*
X187700712Y-117557598D01*
X187488881Y-117444035D01*
X187400806Y-117389639D01*
X187331810Y-117348282D01*
X187277410Y-117323037D01*
X187233545Y-117312777D01*
X187196154Y-117316378D01*
X187172147Y-117326281D01*
X187153816Y-117338653D01*
X187120124Y-117363711D01*
X187075428Y-117398131D01*
X187024087Y-117438591D01*
X187008842Y-117450768D01*
X186738127Y-117656404D01*
X186456347Y-117847941D01*
X186160140Y-118027409D01*
X185846144Y-118196838D01*
X185510997Y-118358257D01*
X185489984Y-118367804D01*
X185310706Y-118444339D01*
X185146899Y-118503888D01*
X184995485Y-118546815D01*
X184853384Y-118573485D01*
X184717519Y-118584263D01*
X184584809Y-118579514D01*
X184452177Y-118559601D01*
X184316544Y-118524889D01*
X184274966Y-118511697D01*
X184138620Y-118456285D01*
X184023351Y-118386910D01*
X183928753Y-118303158D01*
X183854417Y-118204617D01*
X183799937Y-118090872D01*
X183773514Y-118002475D01*
X183760137Y-117903387D01*
X183761600Y-117816268D01*
X184334649Y-117816268D01*
X184341525Y-117872944D01*
X184368424Y-117919639D01*
X184416410Y-117957354D01*
X184486549Y-117987092D01*
X184579906Y-118009852D01*
X184633954Y-118018691D01*
X184691402Y-118021835D01*
X184758554Y-118015621D01*
X184837247Y-117999482D01*
X184929315Y-117972852D01*
X185036593Y-117935162D01*
X185160915Y-117885846D01*
X185304118Y-117824337D01*
X185395685Y-117783243D01*
X185551341Y-117709868D01*
X185702119Y-117633138D01*
X185851071Y-117551142D01*
X186001252Y-117461965D01*
X186155717Y-117363693D01*
X186317519Y-117254412D01*
X186489714Y-117132209D01*
X186675356Y-116995169D01*
X186781662Y-116914787D01*
X186847565Y-116865338D01*
X186912715Y-116817781D01*
X186972014Y-116775741D01*
X187020366Y-116742845D01*
X187047288Y-116725816D01*
X187137998Y-116681569D01*
X187222412Y-116661174D01*
X187303488Y-116664828D01*
X187384182Y-116692728D01*
X187467452Y-116745071D01*
X187479863Y-116754660D01*
X187584204Y-116833139D01*
X187690605Y-116906044D01*
X187792732Y-116969261D01*
X187884252Y-117018677D01*
X187892700Y-117022760D01*
X188047455Y-117087626D01*
X188223372Y-117145084D01*
X188417064Y-117194235D01*
X188625141Y-117234184D01*
X188772500Y-117255556D01*
X188886420Y-117269463D01*
X188978522Y-117279006D01*
X189052069Y-117283828D01*
X189110324Y-117283571D01*
X189156552Y-117277879D01*
X189194015Y-117266393D01*
X189225978Y-117248757D01*
X189255703Y-117224613D01*
X189280477Y-117199940D01*
X189315913Y-117162655D01*
X189360930Y-117115225D01*
X189407651Y-117065952D01*
X189423656Y-117049060D01*
X189478757Y-116993495D01*
X189524105Y-116955275D01*
X189565152Y-116931398D01*
X189607347Y-116918860D01*
X189656143Y-116914659D01*
X189667850Y-116914556D01*
X189750940Y-116926071D01*
X189823851Y-116958765D01*
X189883148Y-117010005D01*
X189925398Y-117077159D01*
X189941193Y-117124224D01*
X189947700Y-117162418D01*
X189947867Y-117200763D01*
X189940534Y-117241081D01*
X189924542Y-117285196D01*
X189898730Y-117334931D01*
X189861939Y-117392109D01*
X189813010Y-117458554D01*
X189750782Y-117536088D01*
X189674096Y-117626535D01*
X189581792Y-117731719D01*
X189488371Y-117836090D01*
X189428096Y-117901740D01*
X189369341Y-117962720D01*
X189309392Y-118021363D01*
X189245534Y-118080001D01*
X189175053Y-118140966D01*
X189095235Y-118206593D01*
X189003366Y-118279212D01*
X188896732Y-118361157D01*
X188772619Y-118454760D01*
X188740750Y-118478606D01*
X188594835Y-118589289D01*
X188469579Y-118688100D01*
X188363895Y-118776293D01*
X188276694Y-118855119D01*
X188206888Y-118925830D01*
X188153390Y-118989680D01*
X188115111Y-119047920D01*
X188090964Y-119101804D01*
X188079861Y-119152582D01*
X188080714Y-119201508D01*
X188086776Y-119231484D01*
X188117496Y-119299346D01*
X188168122Y-119355068D01*
X188235897Y-119397976D01*
X188318064Y-119427398D01*
X188411864Y-119442661D01*
X188514540Y-119443093D01*
X188623335Y-119428019D01*
X188735491Y-119396767D01*
X188747100Y-119392611D01*
X188940430Y-119315328D01*
X189135402Y-119223926D01*
X189333933Y-119117235D01*
X189537940Y-118994081D01*
X189749341Y-118853292D01*
X189970053Y-118693695D01*
X190201993Y-118514118D01*
X190260999Y-118466739D01*
X190304726Y-118430166D01*
X190357849Y-118383794D01*
X190417611Y-118330226D01*
X190481254Y-118272069D01*
X190546022Y-118211928D01*
X190609157Y-118152406D01*
X190667901Y-118096110D01*
X190719498Y-118045643D01*
X190761189Y-118003612D01*
X190790218Y-117972621D01*
X190803827Y-117955275D01*
X190804500Y-117953277D01*
X190810653Y-117942587D01*
X190829809Y-117919650D01*
X190863011Y-117883351D01*
X190911302Y-117832573D01*
X190975724Y-117766202D01*
X191052150Y-117688365D01*
X191104660Y-117636705D01*
X191150309Y-117597266D01*
X191194099Y-117568032D01*
X191241031Y-117546988D01*
X191296104Y-117532115D01*
X191364319Y-117521399D01*
X191450679Y-117512822D01*
X191496650Y-117509135D01*
X191585222Y-117503133D01*
X191681200Y-117498007D01*
X191774863Y-117494193D01*
X191856491Y-117492126D01*
X191881315Y-117491893D01*
X192229608Y-117481608D01*
X192590452Y-117453606D01*
X192958897Y-117408576D01*
X193329991Y-117347208D01*
X193698782Y-117270189D01*
X193981662Y-117199692D01*
X194529521Y-117040006D01*
X195068603Y-116856645D01*
X195599219Y-116649475D01*
X196121678Y-116418365D01*
X196636292Y-116163182D01*
X197143370Y-115883795D01*
X197319600Y-115779982D01*
X197638794Y-115581108D01*
X197933750Y-115381142D01*
X198205627Y-115178913D01*
X198455587Y-114973250D01*
X198684789Y-114762983D01*
X198894396Y-114546939D01*
X199085567Y-114323949D01*
X199259463Y-114092841D01*
X199417246Y-113852443D01*
X199560075Y-113601586D01*
X199644327Y-113434690D01*
X199690018Y-113342767D01*
X199729372Y-113271547D01*
X199764962Y-113217946D01*
X199799358Y-113178878D01*
X199835128Y-113151260D01*
X199874845Y-113132006D01*
X199904584Y-113122350D01*
X199984933Y-113112220D01*
X200064794Y-113124509D01*
X200138479Y-113157134D01*
X200200295Y-113208010D01*
X200225009Y-113239691D01*
X200238051Y-113260404D01*
X200247433Y-113280050D01*
X200253868Y-113303308D01*
X200258065Y-113334855D01*
X200260737Y-113379368D01*
X200262595Y-113441526D01*
X200263716Y-113494258D01*
X200263817Y-113598802D01*
X200260607Y-113719161D01*
X200254518Y-113849045D01*
X200245982Y-113982161D01*
X200235433Y-114112218D01*
X200223302Y-114232924D01*
X200210021Y-114337988D01*
X200202381Y-114386840D01*
X200192749Y-114439552D01*
X200178637Y-114511877D01*
X200161103Y-114598639D01*
X200141205Y-114694661D01*
X200120002Y-114794768D01*
X200101894Y-114878508D01*
X200073510Y-115009803D01*
X200050567Y-115119687D01*
X200032589Y-115211448D01*
X200019102Y-115288375D01*
X200009629Y-115353758D01*
X200003695Y-115410886D01*
X200000825Y-115463048D01*
X200000544Y-115513533D01*
X200002375Y-115565631D01*
X200002428Y-115566672D01*
X200014013Y-115669224D01*
X200038086Y-115750399D01*
X200076041Y-115811668D01*
X200129270Y-115854502D01*
X200199166Y-115880372D01*
X200287120Y-115890749D01*
X200309565Y-115891100D01*
X200389590Y-115885963D01*
X200462167Y-115869411D01*
X200529102Y-115839725D01*
X200592203Y-115795189D01*
X200653275Y-115734086D01*
X200714127Y-115654700D01*
X200776565Y-115555314D01*
X200842395Y-115434211D01*
X200889116Y-115340444D01*
X200961396Y-115177884D01*
X201031884Y-114993102D01*
X201099731Y-114789258D01*
X201164087Y-114569513D01*
X201224102Y-114337027D01*
X201278927Y-114094962D01*
X201327712Y-113846477D01*
X201369608Y-113594733D01*
X201382899Y-113503500D01*
X201407127Y-113319431D01*
X201427072Y-113141988D01*
X201442964Y-112966843D01*
X201455031Y-112789667D01*
X201463503Y-112606130D01*
X201468609Y-112411905D01*
X201470579Y-112202662D01*
X201469640Y-111974073D01*
X201468609Y-111884250D01*
X201461026Y-111545521D01*
X201447152Y-111225611D01*
X201426417Y-110918593D01*
X201398256Y-110618538D01*
X201362100Y-110319519D01*
X201317381Y-110015608D01*
X201263534Y-109700879D01*
X201255264Y-109655775D01*
X201200766Y-109371618D01*
X201146351Y-109110625D01*
X201091290Y-108870571D01*
X201034858Y-108649233D01*
X200976326Y-108444388D01*
X200914968Y-108253811D01*
X200850057Y-108075279D01*
X200780866Y-107906568D01*
X200706668Y-107745455D01*
X200626735Y-107589716D01*
X200540341Y-107437126D01*
X200517263Y-107398575D01*
X200361551Y-107158897D01*
X200198658Y-106943244D01*
X200027761Y-106751049D01*
X199848037Y-106581747D01*
X199658663Y-106434771D01*
X199458819Y-106309555D01*
X199247680Y-106205532D01*
X199024425Y-106122137D01*
X198788232Y-106058803D01*
X198538277Y-106014963D01*
X198500700Y-106010174D01*
X198431145Y-106003585D01*
X198342431Y-105998031D01*
X198239850Y-105993590D01*
X198128691Y-105990342D01*
X198014247Y-105988366D01*
X197901808Y-105987740D01*
X197796664Y-105988543D01*
X197704107Y-105990853D01*
X197629427Y-105994751D01*
X197605147Y-105996831D01*
X197401207Y-106023632D01*
X197206916Y-106062934D01*
X197018053Y-106116226D01*
X196830398Y-106184999D01*
X196639730Y-106270743D01*
X196441828Y-106374948D01*
X196300407Y-106457453D01*
X196119941Y-106570496D01*
X195949665Y-106685974D01*
X195784913Y-106807501D01*
X195621016Y-106938696D01*
X195453307Y-107083172D01*
X195277120Y-107244548D01*
X195243150Y-107276614D01*
X195149359Y-107366600D01*
X195047736Y-107466055D01*
X194939741Y-107573421D01*
X194826838Y-107687141D01*
X194710487Y-107805657D01*
X194592152Y-107927411D01*
X194473294Y-108050847D01*
X194355376Y-108174408D01*
X194239860Y-108296534D01*
X194128208Y-108415670D01*
X194021881Y-108530258D01*
X193922343Y-108638740D01*
X193831056Y-108739559D01*
X193749481Y-108831158D01*
X193679080Y-108911979D01*
X193621317Y-108980465D01*
X193577652Y-109035058D01*
X193549549Y-109074201D01*
X193540527Y-109090147D01*
X193526545Y-109127835D01*
X193516544Y-109171853D01*
X193509459Y-109228505D01*
X193504231Y-109304094D01*
X193504121Y-109306150D01*
X193494743Y-109453421D01*
X193482660Y-109584061D01*
X193466829Y-109706781D01*
X193446205Y-109830295D01*
X193433143Y-109898206D01*
X193404182Y-110032611D01*
X193375847Y-110142450D01*
X193347884Y-110228542D01*
X193320037Y-110291707D01*
X193300550Y-110322623D01*
X193246546Y-110373855D01*
X193180117Y-110406813D01*
X193106546Y-110421431D01*
X193031118Y-110417641D01*
X192959118Y-110395378D01*
X192895830Y-110354573D01*
X192869843Y-110328078D01*
X192845159Y-110294035D01*
X192829476Y-110258064D01*
X192821021Y-110213242D01*
X192818023Y-110152647D01*
X192817940Y-110125300D01*
X192819110Y-110054850D01*
X192822499Y-110001773D01*
X192829052Y-109958076D01*
X192839714Y-109915764D01*
X192844612Y-109899736D01*
X192857486Y-109852980D01*
X192867557Y-109806326D01*
X192868914Y-109798136D01*
X192875231Y-109759390D01*
X192881076Y-109727793D01*
X192881611Y-109725250D01*
X192895755Y-109658820D01*
X192906830Y-109603105D01*
X192915219Y-109553534D01*
X192921306Y-109505536D01*
X192925473Y-109454538D01*
X192928104Y-109395970D01*
X192929581Y-109325260D01*
X192930289Y-109237838D01*
X192930585Y-109141050D01*
X192930172Y-109002918D01*
X192928051Y-108886049D01*
X192923882Y-108786342D01*
X192917323Y-108699697D01*
X192908034Y-108622012D01*
X192895674Y-108549188D01*
X192879901Y-108477124D01*
X192873112Y-108449750D01*
X192858074Y-108398403D01*
X192838691Y-108342925D01*
X192817201Y-108288542D01*
X192795847Y-108240481D01*
X192776868Y-108203968D01*
X192762505Y-108184230D01*
X192758419Y-108182200D01*
X192748812Y-108171886D01*
X192747600Y-108163150D01*
X192741529Y-108146237D01*
X192736381Y-108144099D01*
X192724437Y-108133555D01*
X192718716Y-108119449D01*
X192701602Y-108097161D01*
X192667040Y-108076680D01*
X192622922Y-108061526D01*
X192577142Y-108055220D01*
X192574649Y-108055200D01*
X192527290Y-108061510D01*
X192463718Y-108079206D01*
X192389394Y-108106433D01*
X192309782Y-108141336D01*
X192284050Y-108153839D01*
X192170872Y-108215825D01*
X192058066Y-108289280D01*
X191944498Y-108375401D01*
X191829039Y-108475382D01*
X191710557Y-108590419D01*
X191587920Y-108721707D01*
X191459998Y-108870441D01*
X191325659Y-109037816D01*
X191183772Y-109225027D01*
X191033206Y-109433270D01*
X190920323Y-109594678D01*
X190853686Y-109689340D01*
X190797353Y-109764801D01*
X190748730Y-109823738D01*
X190705224Y-109868832D01*
X190664240Y-109902762D01*
X190623185Y-109928207D01*
X190579463Y-109947846D01*
X190577768Y-109948494D01*
X190547839Y-109959151D01*
X190520633Y-109966189D01*
X190490625Y-109969960D01*
X190452292Y-109970815D01*
X190400110Y-109969107D01*
X190328555Y-109965187D01*
X190321900Y-109964792D01*
X190215697Y-109959737D01*
X190100288Y-109956425D01*
X189980601Y-109954818D01*
X189861569Y-109954880D01*
X189748122Y-109956572D01*
X189645190Y-109959857D01*
X189557705Y-109964698D01*
X189490596Y-109971057D01*
X189490050Y-109971127D01*
X189425031Y-109980434D01*
X189345850Y-109993103D01*
X189263216Y-110007363D01*
X189197950Y-110019470D01*
X189078408Y-110039294D01*
X188979215Y-110047867D01*
X188897655Y-110044574D01*
X188831011Y-110028802D01*
X188776568Y-109999936D01*
X188731610Y-109957365D01*
X188696657Y-109906208D01*
X188662464Y-109835336D01*
X188648358Y-109773146D01*
X188655078Y-109715218D01*
X188683366Y-109657133D01*
X188733961Y-109594471D01*
X188752022Y-109575709D01*
X188791270Y-109534443D01*
X188821458Y-109497033D01*
X188843622Y-109459382D01*
X188858800Y-109417390D01*
X188868031Y-109366959D01*
X188872351Y-109303991D01*
X188872800Y-109224387D01*
X188870413Y-109124048D01*
X188869967Y-109109851D01*
X188861679Y-108931688D01*
X188848530Y-108756655D01*
X188830981Y-108587375D01*
X188809491Y-108426468D01*
X188784519Y-108276555D01*
X188756526Y-108140258D01*
X188725972Y-108020197D01*
X188693315Y-107918995D01*
X188659017Y-107839272D01*
X188641792Y-107808910D01*
X188594726Y-107752296D01*
X188540441Y-107717757D01*
X188481526Y-107706559D01*
X188443643Y-107711938D01*
X188383347Y-107736736D01*
X188312319Y-107780392D01*
X188233524Y-107840376D01*
X188149929Y-107914156D01*
X188064499Y-107999200D01*
X187980200Y-108092977D01*
X187939443Y-108142298D01*
X187741601Y-108408982D01*
X187564894Y-108689483D01*
X187409725Y-108982939D01*
X187276498Y-109288491D01*
X187165617Y-109605278D01*
X187077487Y-109932440D01*
X187058273Y-110019456D01*
X187032817Y-110133107D01*
X187006700Y-110231604D01*
X186977751Y-110318885D01*
X186943800Y-110398889D01*
X186902677Y-110475556D01*
X186852212Y-110552823D01*
X186790233Y-110634631D01*
X186714571Y-110724917D01*
X186623055Y-110827622D01*
X186597582Y-110855550D01*
X186453547Y-111017585D01*
X186309065Y-111188989D01*
X186166352Y-111366688D01*
X186027625Y-111547606D01*
X185895101Y-111728667D01*
X185770997Y-111906797D01*
X185657530Y-112078919D01*
X185556916Y-112241959D01*
X185471373Y-112392841D01*
X185425783Y-112481150D01*
X185328852Y-112696515D01*
X185251893Y-112910924D01*
X185192170Y-113132796D01*
X185157383Y-113307195D01*
X185146648Y-113389029D01*
X185139235Y-113487150D01*
X185135144Y-113595142D01*
X185134375Y-113706588D01*
X185136928Y-113815073D01*
X185142802Y-113914180D01*
X185151999Y-113997493D01*
X185157385Y-114028949D01*
X185204682Y-114218906D01*
X185267950Y-114390831D01*
X185348574Y-114547488D01*
X185447939Y-114691638D01*
X185545743Y-114803876D01*
X185643533Y-114897520D01*
X185749485Y-114982173D01*
X185867261Y-115060106D01*
X186000523Y-115133592D01*
X186152934Y-115204902D01*
X186271550Y-115254175D01*
X186408251Y-115305877D01*
X186546445Y-115352404D01*
X186688709Y-115394255D01*
X186837617Y-115431924D01*
X186995748Y-115465911D01*
X187165675Y-115496710D01*
X187349976Y-115524819D01*
X187551226Y-115550735D01*
X187772001Y-115574954D01*
X188014878Y-115597974D01*
X188086700Y-115604229D01*
X188210856Y-115615460D01*
X188314435Y-115626105D01*
X188396300Y-115636021D01*
X188455315Y-115645070D01*
X188490345Y-115653109D01*
X188494741Y-115654738D01*
X188567071Y-115697069D01*
X188620225Y-115752133D01*
X188654358Y-115816188D01*
X188669623Y-115885488D01*
X188666175Y-115956292D01*
X188644169Y-116024855D01*
X188603759Y-116087434D01*
X188545100Y-116140285D01*
X188473155Y-116177866D01*
X188453473Y-116184948D01*
X188434212Y-116190113D01*
X188411869Y-116193367D01*
X188382943Y-116194718D01*
X188343928Y-116194171D01*
X188291324Y-116191733D01*
X188221628Y-116187411D01*
X188131336Y-116181211D01*
X188093995Y-116178583D01*
X187816970Y-116156662D01*
X187562321Y-116131439D01*
X187327192Y-116102513D01*
X187108724Y-116069485D01*
X186904061Y-116031952D01*
X186710344Y-115989515D01*
X186662127Y-115977805D01*
X186582811Y-115957957D01*
X186518691Y-115943019D01*
X186466285Y-115934423D01*
X186422111Y-115933601D01*
X186382689Y-115941984D01*
X186344538Y-115961003D01*
X186304175Y-115992091D01*
X186258119Y-116036678D01*
X186202889Y-116096197D01*
X186135005Y-116172079D01*
X186103277Y-116207615D01*
X186002475Y-116316202D01*
X185898308Y-116419808D01*
X185787556Y-116521149D01*
X185666999Y-116622943D01*
X185533420Y-116727905D01*
X185383599Y-116838753D01*
X185214317Y-116958202D01*
X185212003Y-116959804D01*
X185067855Y-117060442D01*
X184934906Y-117155073D01*
X184814918Y-117242386D01*
X184709654Y-117321065D01*
X184620876Y-117389798D01*
X184550346Y-117447271D01*
X184507982Y-117484504D01*
X184435057Y-117564584D01*
X184381800Y-117653672D01*
X184346731Y-117748609D01*
X184334649Y-117816268D01*
X183761600Y-117816268D01*
X183762027Y-117790909D01*
X183778304Y-117671256D01*
X183808085Y-117550646D01*
X183850490Y-117435292D01*
X183855521Y-117423998D01*
X183885982Y-117360907D01*
X183919090Y-117301583D01*
X183956512Y-117244490D01*
X183999916Y-117188092D01*
X184050969Y-117130853D01*
X184111339Y-117071235D01*
X184182692Y-117007705D01*
X184266696Y-116938724D01*
X184365018Y-116862758D01*
X184479326Y-116778271D01*
X184611287Y-116683725D01*
X184762567Y-116577586D01*
X184810100Y-116544551D01*
X184959110Y-116440052D01*
X185089089Y-116346286D01*
X185202804Y-116260950D01*
X185303025Y-116181744D01*
X185392523Y-116106369D01*
X185474066Y-116032524D01*
X185550424Y-115957908D01*
X185624366Y-115880221D01*
X185668082Y-115831900D01*
X185711731Y-115782022D01*
X185742145Y-115742388D01*
X185758133Y-115709844D01*
X185758503Y-115681235D01*
X185742065Y-115653407D01*
X185707629Y-115623205D01*
X185654001Y-115587476D01*
X185579993Y-115543064D01*
X185553050Y-115527230D01*
X185433007Y-115452895D01*
X185329605Y-115379587D01*
X185235102Y-115301222D01*
X185141753Y-115211714D01*
X185111005Y-115179876D01*
X184991440Y-115042921D01*
X184889932Y-114901203D01*
X184803469Y-114749548D01*
X184729036Y-114582781D01*
X184674694Y-114430600D01*
X184647137Y-114348864D01*
X184624071Y-114288386D01*
X184604007Y-114245739D01*
X184585454Y-114217496D01*
X184578815Y-114210152D01*
X184542608Y-114173854D01*
X184296150Y-114183095D01*
X184210884Y-114186173D01*
X184146836Y-114187938D01*
X184099841Y-114188127D01*
X184065740Y-114186474D01*
X184040370Y-114182718D01*
X184019570Y-114176593D01*
X183999177Y-114167836D01*
X183990604Y-114163732D01*
X183926962Y-114119273D01*
X183877764Y-114056342D01*
X183846371Y-113979320D01*
X183845009Y-113973854D01*
X183839266Y-113898414D01*
X183856120Y-113824624D01*
X183892970Y-113757313D01*
X183947213Y-113701313D01*
X184012483Y-113662988D01*
X184044577Y-113654247D01*
X184096935Y-113645381D01*
X184164435Y-113637116D01*
X184241953Y-113630175D01*
X184247433Y-113629771D01*
X184336423Y-113623146D01*
X184403521Y-113617536D01*
X184452184Y-113612295D01*
X184485867Y-113606778D01*
X184508023Y-113600340D01*
X184522110Y-113592335D01*
X184531581Y-113582118D01*
X184535695Y-113575931D01*
X184545788Y-113550413D01*
X184556845Y-113507860D01*
X184566813Y-113456456D01*
X184568777Y-113443974D01*
X184576009Y-113386042D01*
X184576461Y-113340135D01*
X184567601Y-113302297D01*
X184546896Y-113268570D01*
X184511813Y-113234996D01*
X184459822Y-113197620D01*
X184388389Y-113152483D01*
X184378300Y-113146302D01*
X184287934Y-113089230D01*
X184217703Y-113040232D01*
X184164732Y-112996615D01*
X184126151Y-112955688D01*
X184099085Y-112914760D01*
X184080664Y-112871140D01*
X184078984Y-112865878D01*
X184065162Y-112784494D01*
X184074308Y-112709791D01*
X184104326Y-112644361D01*
X184153116Y-112590792D01*
X184218579Y-112551673D01*
X184298617Y-112529595D01*
X184354760Y-112525599D01*
X184389705Y-112528402D01*
X184427480Y-112538217D01*
X184474225Y-112557155D01*
X184536082Y-112587326D01*
X184539549Y-112589100D01*
X184592698Y-112615111D01*
X184639828Y-112635967D01*
X184675045Y-112649186D01*
X184690383Y-112652600D01*
X184709732Y-112649379D01*
X184727555Y-112637572D01*
X184745997Y-112613955D01*
X184767204Y-112575308D01*
X184793322Y-112518410D01*
X184817309Y-112462100D01*
X184906195Y-112265707D01*
X185011407Y-112062786D01*
X185133594Y-111852393D01*
X185273402Y-111633583D01*
X185431479Y-111405411D01*
X185608474Y-111166931D01*
X185805032Y-110917200D01*
X186021801Y-110655273D01*
X186187925Y-110461850D01*
X186253233Y-110385482D01*
X186311901Y-110314196D01*
X186361371Y-110251256D01*
X186399088Y-110199928D01*
X186422495Y-110163477D01*
X186424641Y-110159441D01*
X186445207Y-110110011D01*
X186467626Y-110040077D01*
X186490488Y-109954326D01*
X186504826Y-109892741D01*
X186594323Y-109541442D01*
X186705042Y-109203436D01*
X186837687Y-108877041D01*
X186992963Y-108560577D01*
X187171576Y-108252362D01*
X187232488Y-108157168D01*
X187387407Y-107934017D01*
X187544507Y-107734966D01*
X187704926Y-107558738D01*
X187869804Y-107404054D01*
X187991450Y-107305659D01*
X188117095Y-107223855D01*
X188244803Y-107166924D01*
X188373858Y-107134954D01*
X188503541Y-107128033D01*
X188633134Y-107146253D01*
X188761919Y-107189701D01*
X188796154Y-107205619D01*
X188859256Y-107243943D01*
X188929168Y-107298331D01*
X188999701Y-107363021D01*
X189064667Y-107432257D01*
X189117878Y-107500277D01*
X189126392Y-107512963D01*
X189185205Y-107619508D01*
X189238655Y-107749290D01*
X189286407Y-107900651D01*
X189328122Y-108071929D01*
X189363465Y-108261465D01*
X189392099Y-108467599D01*
X189413687Y-108688671D01*
X189427893Y-108923021D01*
X189431336Y-109016863D01*
X189434483Y-109116291D01*
X189437392Y-109193476D01*
X189440370Y-109251571D01*
X189443727Y-109293727D01*
X189447773Y-109323096D01*
X189452818Y-109342829D01*
X189459169Y-109356079D01*
X189465424Y-109364155D01*
X189475598Y-109374202D01*
X189487687Y-109381157D01*
X189505806Y-109385347D01*
X189534072Y-109387097D01*
X189576601Y-109386733D01*
X189637508Y-109384581D01*
X189693144Y-109382192D01*
X189862847Y-109379216D01*
X190021207Y-109385315D01*
X190065047Y-109388886D01*
X190152030Y-109395755D01*
X190222642Y-109397030D01*
X190280802Y-109390550D01*
X190330430Y-109374153D01*
X190375443Y-109345677D01*
X190419762Y-109302962D01*
X190467305Y-109243846D01*
X190521992Y-109166167D01*
X190553287Y-109119620D01*
X190738471Y-108855481D01*
X190929619Y-108610327D01*
X191132028Y-108377754D01*
X191350991Y-108151356D01*
X191365051Y-108137554D01*
X191489814Y-108018813D01*
X191603629Y-107918077D01*
X191710155Y-107832570D01*
X191813048Y-107759514D01*
X191915965Y-107696133D01*
X192017350Y-107642225D01*
X192187623Y-107566918D01*
X192347790Y-107514708D01*
X192497780Y-107485596D01*
X192637524Y-107479586D01*
X192766949Y-107496681D01*
X192885986Y-107536883D01*
X192994563Y-107600195D01*
X192998553Y-107603109D01*
X193061593Y-107654558D01*
X193119018Y-107713057D01*
X193173194Y-107781999D01*
X193226489Y-107864775D01*
X193281268Y-107964777D01*
X193339899Y-108085398D01*
X193349411Y-108106000D01*
X193376919Y-108164943D01*
X193401519Y-108215840D01*
X193420912Y-108254058D01*
X193432796Y-108274968D01*
X193434393Y-108277019D01*
X193447595Y-108274112D01*
X193475775Y-108253532D01*
X193519151Y-108215064D01*
X193577940Y-108158491D01*
X193652358Y-108083598D01*
X193742622Y-107990171D01*
X193848950Y-107877993D01*
X193971558Y-107746848D01*
X194015416Y-107699600D01*
X194201974Y-107500122D01*
X194375404Y-107318675D01*
X194538017Y-107153117D01*
X194692123Y-107001308D01*
X194840032Y-106861107D01*
X194984054Y-106730374D01*
X195126500Y-106606969D01*
X195269680Y-106488751D01*
X195415904Y-106373580D01*
X195567483Y-106259315D01*
X195579700Y-106250304D01*
X195850329Y-106061689D01*
X196116578Y-105897807D01*
X196378905Y-105758458D01*
X196637768Y-105643439D01*
X196893622Y-105552550D01*
X197146927Y-105485589D01*
X197398139Y-105442354D01*
X197421200Y-105439557D01*
X197516948Y-105422321D01*
X197591814Y-105394774D01*
X197611018Y-105381528D01*
X198308364Y-105381528D01*
X198314390Y-105397087D01*
X198326047Y-105408043D01*
X198333723Y-105412595D01*
X198352455Y-105417629D01*
X198392322Y-105425018D01*
X198449235Y-105434121D01*
X198519107Y-105444292D01*
X198597850Y-105454889D01*
X198621631Y-105457933D01*
X198700952Y-105468218D01*
X198771450Y-105477836D01*
X198829335Y-105486228D01*
X198870817Y-105492840D01*
X198892104Y-105497115D01*
X198894040Y-105497906D01*
X198911975Y-105500931D01*
X198944300Y-105495882D01*
X198982171Y-105484951D01*
X199016746Y-105470331D01*
X199025593Y-105465281D01*
X199052933Y-105443314D01*
X199087226Y-105409283D01*
X199114493Y-105378325D01*
X199143477Y-105342993D01*
X199183278Y-105294383D01*
X199228659Y-105238896D01*
X199274380Y-105182934D01*
X199274514Y-105182771D01*
X199437045Y-104963923D01*
X199580781Y-104729191D01*
X199704803Y-104480734D01*
X199808193Y-104220714D01*
X199890030Y-103951290D01*
X199949396Y-103674624D01*
X199967908Y-103553050D01*
X199978754Y-103449737D01*
X199985633Y-103336106D01*
X199988586Y-103218128D01*
X199987656Y-103101774D01*
X199982884Y-102993017D01*
X199974310Y-102897828D01*
X199962885Y-102826355D01*
X199936124Y-102727563D01*
X199900080Y-102634192D01*
X199857089Y-102550244D01*
X199809488Y-102479725D01*
X199759614Y-102426636D01*
X199711553Y-102395697D01*
X199644188Y-102380637D01*
X199573896Y-102387827D01*
X199507186Y-102415935D01*
X199467975Y-102445581D01*
X199453469Y-102460993D01*
X199438522Y-102481426D01*
X199422272Y-102508901D01*
X199403859Y-102545440D01*
X199382421Y-102593065D01*
X199357096Y-102653797D01*
X199327025Y-102729657D01*
X199291344Y-102822669D01*
X199249194Y-102934853D01*
X199199713Y-103068231D01*
X199180152Y-103121250D01*
X199090253Y-103364435D01*
X199007619Y-103586332D01*
X198931189Y-103789648D01*
X198859904Y-103977092D01*
X198792706Y-104151372D01*
X198728534Y-104315197D01*
X198666330Y-104471276D01*
X198605035Y-104622317D01*
X198543588Y-104771028D01*
X198480931Y-104920117D01*
X198428602Y-105042930D01*
X198386539Y-105141823D01*
X198354194Y-105220195D01*
X198330884Y-105280699D01*
X198315930Y-105325987D01*
X198308650Y-105358712D01*
X198308364Y-105381528D01*
X197611018Y-105381528D01*
X197648690Y-105355545D01*
X197682643Y-105315635D01*
X197694932Y-105292964D01*
X197715739Y-105249417D01*
X197743941Y-105187618D01*
X197778413Y-105110189D01*
X197818032Y-105019755D01*
X197861674Y-104918937D01*
X197908214Y-104810358D01*
X197956528Y-104696643D01*
X198005493Y-104580413D01*
X198053984Y-104464292D01*
X198100878Y-104350904D01*
X198145050Y-104242870D01*
X198185377Y-104142814D01*
X198187599Y-104137250D01*
X198222071Y-104049842D01*
X198263102Y-103944126D01*
X198308573Y-103825664D01*
X198356363Y-103700021D01*
X198404352Y-103572758D01*
X198450421Y-103449439D01*
X198475542Y-103381600D01*
X198554965Y-103167129D01*
X198627173Y-102973862D01*
X198692008Y-102802211D01*
X198749310Y-102652588D01*
X198798920Y-102525407D01*
X198840680Y-102421080D01*
X198874429Y-102340020D01*
X198895414Y-102292506D01*
X198967779Y-102163287D01*
X199056879Y-102052318D01*
X199161067Y-101960670D01*
X199278696Y-101889409D01*
X199408119Y-101839604D01*
X199547690Y-101812323D01*
X199643700Y-101807175D01*
X199778372Y-101816794D01*
%TD*%
D12*
%TO.C,mouse-bite-3mm-slot*%
X285575992Y-123549933D03*
X286337992Y-123549933D03*
X287111992Y-123549933D03*
X288611992Y-123549933D03*
X287861992Y-123549933D03*
%TD*%
%TO.C,mouse-bite-3mm-slot*%
X166025992Y-123549933D03*
X166787992Y-123549933D03*
X167561992Y-123549933D03*
X169061992Y-123549933D03*
X168311992Y-123549933D03*
%TD*%
%TO.C,mouse-bite-3mm-slot*%
X100025992Y-123549933D03*
X100787992Y-123549933D03*
X101561992Y-123549933D03*
X103061992Y-123549933D03*
X102311992Y-123549933D03*
%TD*%
%TO.C,mouse-bite-3mm-slot*%
X243025992Y-123549933D03*
X243787992Y-123549933D03*
X244561992Y-123549933D03*
X246061992Y-123549933D03*
X245311992Y-123549933D03*
%TD*%
%TO.C,mouse-bite-3mm-slot*%
X59311992Y-123549933D03*
X60061992Y-123549933D03*
X58561992Y-123549933D03*
X57787992Y-123549933D03*
X57025992Y-123549933D03*
%TD*%
%TO.C,mouse-bite-3mm-slot*%
X242873996Y-28849996D03*
X242111996Y-28849996D03*
X241337996Y-28849996D03*
X239837996Y-28849996D03*
X240587996Y-28849996D03*
%TD*%
%TO.C,mouse-bite-3mm-slot*%
X176873996Y-28849996D03*
X176111996Y-28849996D03*
X175337996Y-28849996D03*
X173837996Y-28849996D03*
X174587996Y-28849996D03*
%TD*%
%TO.C,mouse-bite-3mm-slot*%
X48873996Y-28849996D03*
X48111996Y-28849996D03*
X47337996Y-28849996D03*
X45837996Y-28849996D03*
X46587996Y-28849996D03*
%TD*%
%TO.C,mouse-bite-3mm-slot*%
X99873996Y-28849996D03*
X99111996Y-28849996D03*
X98337996Y-28849996D03*
X96837996Y-28849996D03*
X97587996Y-28849996D03*
%TD*%
%TO.C,mouse-bite-3mm-slot*%
X291587996Y-28849996D03*
X290837996Y-28849996D03*
X292337996Y-28849996D03*
X293111996Y-28849996D03*
X293873996Y-28849996D03*
%TD*%
D13*
%TO.C,REF\u002A\u002A*%
X39099992Y-128799933D03*
%TD*%
%TO.C,REF\u002A\u002A*%
X303799993Y-128799933D03*
%TD*%
%TO.C,REF\u002A\u002A*%
X303799996Y-23599996D03*
%TD*%
%TO.C,REF\u002A\u002A*%
X39099995Y-23599996D03*
%TD*%
D14*
%TO.C,MX84*%
X309403750Y-78613000D03*
X309403750Y-54737000D03*
D15*
X294163750Y-78613000D03*
X294163750Y-54737000D03*
D16*
X302418750Y-61595000D03*
D15*
X302418750Y-66675000D03*
D16*
X302418750Y-71755000D03*
%TD*%
%TO.C,MX83*%
X275907500Y-76200000D03*
D15*
X280987500Y-76200000D03*
D16*
X286067500Y-76200000D03*
%TD*%
D15*
%TO.C,MX45*%
X304800000Y-67945000D03*
X280987500Y-67945000D03*
D14*
X304800000Y-83185000D03*
X280987500Y-83185000D03*
D16*
X287813750Y-76200000D03*
D15*
X292893750Y-76200000D03*
D16*
X297973750Y-76200000D03*
%TD*%
%TO.C,MX82*%
X61595000Y-114300000D03*
D15*
X66675000Y-114300000D03*
D16*
X71755000Y-114300000D03*
%TD*%
%TO.C,MX81*%
X85407500Y-114300000D03*
D15*
X90487500Y-114300000D03*
D16*
X95567500Y-114300000D03*
%TD*%
%TO.C,MX80*%
X37782500Y-114300000D03*
D15*
X42862500Y-114300000D03*
D16*
X47942500Y-114300000D03*
%TD*%
D15*
%TO.C,MX79*%
X228600000Y-106045000D03*
X114300000Y-106045000D03*
D14*
X228600000Y-121285000D03*
X114300000Y-121285000D03*
D16*
X166370000Y-114300000D03*
D15*
X171450000Y-114300000D03*
D16*
X176530000Y-114300000D03*
%TD*%
%TO.C,MX61*%
X247332500Y-114300000D03*
D15*
X252412500Y-114300000D03*
D16*
X257492500Y-114300000D03*
%TD*%
%TO.C,MX78*%
X305117500Y-114300000D03*
D15*
X300037500Y-114300000D03*
D16*
X294957500Y-114300000D03*
%TD*%
%TO.C,MX77*%
X281305000Y-114300000D03*
D15*
X276225000Y-114300000D03*
D16*
X271145000Y-114300000D03*
%TD*%
%TO.C,MX74*%
X297338750Y-114300000D03*
D15*
X302418750Y-114300000D03*
D16*
X307498750Y-114300000D03*
%TD*%
%TO.C,MX71*%
X273526250Y-114300000D03*
D15*
X278606250Y-114300000D03*
D16*
X283686250Y-114300000D03*
%TD*%
%TO.C,MX69*%
X249713750Y-114300000D03*
D15*
X254793750Y-114300000D03*
D16*
X259873750Y-114300000D03*
%TD*%
%TO.C,MX64*%
X225901250Y-114300000D03*
D15*
X230981250Y-114300000D03*
D16*
X236061250Y-114300000D03*
%TD*%
%TO.C,MX40*%
X180657500Y-76200000D03*
D15*
X185737500Y-76200000D03*
D16*
X190817500Y-76200000D03*
%TD*%
%TO.C,MX34*%
X66357500Y-76200000D03*
D15*
X71437500Y-76200000D03*
D16*
X76517500Y-76200000D03*
%TD*%
%TO.C,MX48*%
X271780000Y-114300000D03*
D15*
X266700000Y-114300000D03*
D16*
X261620000Y-114300000D03*
%TD*%
%TO.C,MX32*%
X252730000Y-114300000D03*
D15*
X247650000Y-114300000D03*
D16*
X242570000Y-114300000D03*
%TD*%
%TO.C,MX16*%
X233680000Y-114300000D03*
D15*
X228600000Y-114300000D03*
D16*
X223520000Y-114300000D03*
%TD*%
%TO.C,MX76*%
X293211250Y-95250000D03*
D15*
X288131250Y-95250000D03*
D16*
X283051250Y-95250000D03*
D14*
X276225000Y-88265000D03*
X300037500Y-88265000D03*
D15*
X276225000Y-103505000D03*
X300037500Y-103505000D03*
%TD*%
D16*
%TO.C,MX75*%
X290830000Y-95250000D03*
D15*
X285750000Y-95250000D03*
D16*
X280670000Y-95250000D03*
%TD*%
%TO.C,MX47*%
X264636250Y-95250000D03*
D15*
X259556250Y-95250000D03*
D16*
X254476250Y-95250000D03*
%TD*%
%TO.C,MX46*%
X290195000Y-38100000D03*
D15*
X295275000Y-38100000D03*
D16*
X300355000Y-38100000D03*
D15*
X307181250Y-46355000D03*
X283368750Y-46355000D03*
D14*
X307181250Y-31115000D03*
X283368750Y-31115000D03*
%TD*%
D16*
%TO.C,MX31*%
X55086250Y-95250000D03*
D15*
X50006250Y-95250000D03*
D16*
X44926250Y-95250000D03*
D14*
X38100000Y-88265000D03*
X61912500Y-88265000D03*
D15*
X38100000Y-103505000D03*
X61912500Y-103505000D03*
%TD*%
D16*
%TO.C,MX30*%
X305117500Y-57150000D03*
D15*
X300037500Y-57150000D03*
D16*
X294957500Y-57150000D03*
%TD*%
%TO.C,MX73*%
X299720000Y-114300000D03*
D15*
X304800000Y-114300000D03*
D16*
X309880000Y-114300000D03*
%TD*%
%TO.C,MX72*%
X280670000Y-114300000D03*
D15*
X285750000Y-114300000D03*
D16*
X290830000Y-114300000D03*
%TD*%
D15*
%TO.C,MX70*%
X209543650Y-106045000D03*
X109543850Y-106045000D03*
D14*
X209543650Y-121285000D03*
X109543850Y-121285000D03*
D16*
X154463750Y-114300000D03*
D15*
X159543750Y-114300000D03*
D16*
X164623750Y-114300000D03*
%TD*%
%TO.C,MX68*%
X83026250Y-114300000D03*
D15*
X88106250Y-114300000D03*
D16*
X93186250Y-114300000D03*
%TD*%
%TO.C,MX67*%
X59213750Y-114300000D03*
D15*
X64293750Y-114300000D03*
D16*
X69373750Y-114300000D03*
%TD*%
%TO.C,MX66*%
X35401250Y-114300000D03*
D15*
X40481250Y-114300000D03*
D16*
X45561250Y-114300000D03*
%TD*%
%TO.C,MX65*%
X35401250Y-76200000D03*
D15*
X40481250Y-76200000D03*
D16*
X45561250Y-76200000D03*
%TD*%
%TO.C,MX62*%
X273526250Y-95250000D03*
D15*
X278606250Y-95250000D03*
D16*
X283686250Y-95250000D03*
%TD*%
%TO.C,MX63*%
X299720000Y-95250000D03*
D15*
X304800000Y-95250000D03*
D16*
X309880000Y-95250000D03*
%TD*%
%TO.C,MX60*%
X247332500Y-95250000D03*
D15*
X252412500Y-95250000D03*
D16*
X257492500Y-95250000D03*
%TD*%
%TO.C,MX59*%
X228282500Y-95250000D03*
D15*
X233362500Y-95250000D03*
D16*
X238442500Y-95250000D03*
%TD*%
%TO.C,MX58*%
X209232500Y-95250000D03*
D15*
X214312500Y-95250000D03*
D16*
X219392500Y-95250000D03*
%TD*%
%TO.C,MX57*%
X190182500Y-95250000D03*
D15*
X195262500Y-95250000D03*
D16*
X200342500Y-95250000D03*
%TD*%
%TO.C,MX56*%
X171132500Y-95250000D03*
D15*
X176212500Y-95250000D03*
D16*
X181292500Y-95250000D03*
%TD*%
%TO.C,MX55*%
X152082500Y-95250000D03*
D15*
X157162500Y-95250000D03*
D16*
X162242500Y-95250000D03*
%TD*%
%TO.C,MX54*%
X133032500Y-95250000D03*
D15*
X138112500Y-95250000D03*
D16*
X143192500Y-95250000D03*
%TD*%
%TO.C,MX53*%
X113982500Y-95250000D03*
D15*
X119062500Y-95250000D03*
D16*
X124142500Y-95250000D03*
%TD*%
%TO.C,MX52*%
X94932500Y-95250000D03*
D15*
X100012500Y-95250000D03*
D16*
X105092500Y-95250000D03*
%TD*%
%TO.C,MX51*%
X75882500Y-95250000D03*
D15*
X80962500Y-95250000D03*
D16*
X86042500Y-95250000D03*
%TD*%
%TO.C,MX50*%
X56832500Y-95250000D03*
D15*
X61912500Y-95250000D03*
D16*
X66992500Y-95250000D03*
%TD*%
%TO.C,MX49*%
X35401250Y-95250000D03*
D15*
X40481250Y-95250000D03*
D16*
X45561250Y-95250000D03*
%TD*%
%TO.C,MX33*%
X40163750Y-76200000D03*
D15*
X45243750Y-76200000D03*
D16*
X50323750Y-76200000D03*
%TD*%
%TO.C,MX44*%
X256857500Y-76200000D03*
D15*
X261937500Y-76200000D03*
D16*
X267017500Y-76200000D03*
%TD*%
%TO.C,MX43*%
X237807500Y-76200000D03*
D15*
X242887500Y-76200000D03*
D16*
X247967500Y-76200000D03*
%TD*%
%TO.C,MX42*%
X218757500Y-76200000D03*
D15*
X223837500Y-76200000D03*
D16*
X228917500Y-76200000D03*
%TD*%
%TO.C,MX41*%
X199707500Y-76200000D03*
D15*
X204787500Y-76200000D03*
D16*
X209867500Y-76200000D03*
%TD*%
%TO.C,MX39*%
X161607500Y-76200000D03*
D15*
X166687500Y-76200000D03*
D16*
X171767500Y-76200000D03*
%TD*%
%TO.C,MX38*%
X142557500Y-76200000D03*
D15*
X147637500Y-76200000D03*
D16*
X152717500Y-76200000D03*
%TD*%
%TO.C,MX37*%
X123507500Y-76200000D03*
D15*
X128587500Y-76200000D03*
D16*
X133667500Y-76200000D03*
%TD*%
%TO.C,MX36*%
X104457500Y-76200000D03*
D15*
X109537500Y-76200000D03*
D16*
X114617500Y-76200000D03*
%TD*%
%TO.C,MX35*%
X85407500Y-76200000D03*
D15*
X90487500Y-76200000D03*
D16*
X95567500Y-76200000D03*
%TD*%
%TO.C,MX17*%
X37782500Y-57150000D03*
D15*
X42862500Y-57150000D03*
D16*
X47942500Y-57150000D03*
%TD*%
%TO.C,MX29*%
X271145000Y-57150000D03*
D15*
X276225000Y-57150000D03*
D16*
X281305000Y-57150000D03*
%TD*%
%TO.C,MX28*%
X252095000Y-57150000D03*
D15*
X257175000Y-57150000D03*
D16*
X262255000Y-57150000D03*
%TD*%
%TO.C,MX27*%
X233045000Y-57150000D03*
D15*
X238125000Y-57150000D03*
D16*
X243205000Y-57150000D03*
%TD*%
%TO.C,MX26*%
X213995000Y-57150000D03*
D15*
X219075000Y-57150000D03*
D16*
X224155000Y-57150000D03*
%TD*%
%TO.C,MX25*%
X194945000Y-57150000D03*
D15*
X200025000Y-57150000D03*
D16*
X205105000Y-57150000D03*
%TD*%
%TO.C,MX24*%
X175895000Y-57150000D03*
D15*
X180975000Y-57150000D03*
D16*
X186055000Y-57150000D03*
%TD*%
%TO.C,MX23*%
X156845000Y-57150000D03*
D15*
X161925000Y-57150000D03*
D16*
X167005000Y-57150000D03*
%TD*%
%TO.C,MX22*%
X137795000Y-57150000D03*
D15*
X142875000Y-57150000D03*
D16*
X147955000Y-57150000D03*
%TD*%
%TO.C,MX21*%
X118745000Y-57150000D03*
D15*
X123825000Y-57150000D03*
D16*
X128905000Y-57150000D03*
%TD*%
%TO.C,MX20*%
X99695000Y-57150000D03*
D15*
X104775000Y-57150000D03*
D16*
X109855000Y-57150000D03*
%TD*%
%TO.C,MX19*%
X80645000Y-57150000D03*
D15*
X85725000Y-57150000D03*
D16*
X90805000Y-57150000D03*
%TD*%
%TO.C,MX18*%
X61595000Y-57150000D03*
D15*
X66675000Y-57150000D03*
D16*
X71755000Y-57150000D03*
%TD*%
%TO.C,MX15*%
X299720000Y-38100000D03*
D15*
X304800000Y-38100000D03*
D16*
X309880000Y-38100000D03*
%TD*%
%TO.C,MX14*%
X280670000Y-38100000D03*
D15*
X285750000Y-38100000D03*
D16*
X290830000Y-38100000D03*
%TD*%
%TO.C,MX13*%
X261620000Y-38100000D03*
D15*
X266700000Y-38100000D03*
D16*
X271780000Y-38100000D03*
%TD*%
%TO.C,MX12*%
X242570000Y-38100000D03*
D15*
X247650000Y-38100000D03*
D16*
X252730000Y-38100000D03*
%TD*%
%TO.C,MX11*%
X223520000Y-38100000D03*
D15*
X228600000Y-38100000D03*
D16*
X233680000Y-38100000D03*
%TD*%
%TO.C,MX10*%
X204470000Y-38100000D03*
D15*
X209550000Y-38100000D03*
D16*
X214630000Y-38100000D03*
%TD*%
%TO.C,MX9*%
X185420000Y-38100000D03*
D15*
X190500000Y-38100000D03*
D16*
X195580000Y-38100000D03*
%TD*%
%TO.C,MX8*%
X166370000Y-38100000D03*
D15*
X171450000Y-38100000D03*
D16*
X176530000Y-38100000D03*
%TD*%
%TO.C,MX7*%
X147320000Y-38100000D03*
D15*
X152400000Y-38100000D03*
D16*
X157480000Y-38100000D03*
%TD*%
%TO.C,MX6*%
X128270000Y-38100000D03*
D15*
X133350000Y-38100000D03*
D16*
X138430000Y-38100000D03*
%TD*%
%TO.C,MX5*%
X109220000Y-38100000D03*
D15*
X114300000Y-38100000D03*
D16*
X119380000Y-38100000D03*
%TD*%
%TO.C,MX4*%
X90170000Y-38100000D03*
D15*
X95250000Y-38100000D03*
D16*
X100330000Y-38100000D03*
%TD*%
%TO.C,MX3*%
X71120000Y-38100000D03*
D15*
X76200000Y-38100000D03*
D16*
X81280000Y-38100000D03*
%TD*%
%TO.C,MX2*%
X52070000Y-38100000D03*
D15*
X57150000Y-38100000D03*
D16*
X62230000Y-38100000D03*
%TD*%
%TO.C,MX1*%
X33020000Y-38100000D03*
D15*
X38100000Y-38100000D03*
D16*
X43180000Y-38100000D03*
%TD*%
M02*
