%TF.GenerationSoftware,KiCad,Pcbnew,(5.1.12)-1*%
%TF.CreationDate,2022-12-21T19:59:57+07:00*%
%TF.ProjectId,Eclipse60,45636c69-7073-4653-9630-2e6b69636164,rev?*%
%TF.SameCoordinates,Original*%
%TF.FileFunction,Legend,Top*%
%TF.FilePolarity,Positive*%
%FSLAX46Y46*%
G04 Gerber Fmt 4.6, Leading zero omitted, Abs format (unit mm)*
G04 Created by KiCad (PCBNEW (5.1.12)-1) date 2022-12-21 19:59:57*
%MOMM*%
%LPD*%
G01*
G04 APERTURE LIST*
%ADD10C,0.010000*%
G04 APERTURE END LIST*
D10*
%TO.C,G\u002A\u002A\u002A*%
G36*
X138001741Y-106641471D02*
G01*
X138009147Y-106652341D01*
X138021172Y-106671308D01*
X138037964Y-106698627D01*
X138059670Y-106734551D01*
X138086439Y-106779334D01*
X138118416Y-106833230D01*
X138155751Y-106896492D01*
X138198590Y-106969375D01*
X138247081Y-107052132D01*
X138301372Y-107145017D01*
X138361609Y-107248284D01*
X138427941Y-107362187D01*
X138500516Y-107486979D01*
X138579479Y-107622915D01*
X138664980Y-107770247D01*
X138757166Y-107929231D01*
X138856184Y-108100119D01*
X138962182Y-108283166D01*
X139075306Y-108478625D01*
X139195706Y-108686751D01*
X139323528Y-108907796D01*
X139458920Y-109142015D01*
X139602029Y-109389662D01*
X139753003Y-109650990D01*
X139911989Y-109926254D01*
X140079135Y-110215707D01*
X140241210Y-110496427D01*
X140378356Y-110733996D01*
X140513390Y-110967926D01*
X140646067Y-111197786D01*
X140776137Y-111423149D01*
X140903354Y-111643583D01*
X141027470Y-111858660D01*
X141148237Y-112067951D01*
X141265408Y-112271026D01*
X141378735Y-112467456D01*
X141487971Y-112656812D01*
X141592868Y-112838664D01*
X141693178Y-113012582D01*
X141788654Y-113178138D01*
X141879049Y-113334903D01*
X141964114Y-113482446D01*
X142043602Y-113620338D01*
X142117266Y-113748151D01*
X142184858Y-113865454D01*
X142246130Y-113971819D01*
X142300835Y-114066816D01*
X142348725Y-114150015D01*
X142389553Y-114220988D01*
X142423071Y-114279305D01*
X142449031Y-114324537D01*
X142467187Y-114356254D01*
X142477290Y-114374027D01*
X142479433Y-114377926D01*
X142478830Y-114378915D01*
X142475966Y-114379854D01*
X142470423Y-114380745D01*
X142461783Y-114381589D01*
X142449630Y-114382388D01*
X142433544Y-114383142D01*
X142413110Y-114383853D01*
X142387908Y-114384522D01*
X142357523Y-114385151D01*
X142321535Y-114385740D01*
X142279529Y-114386291D01*
X142231085Y-114386805D01*
X142175787Y-114387283D01*
X142113218Y-114387727D01*
X142042958Y-114388138D01*
X141964592Y-114388517D01*
X141877701Y-114388866D01*
X141781869Y-114389185D01*
X141676676Y-114389476D01*
X141561707Y-114389740D01*
X141436542Y-114389978D01*
X141300766Y-114390192D01*
X141153960Y-114390383D01*
X140995706Y-114390552D01*
X140825588Y-114390700D01*
X140643187Y-114390829D01*
X140448087Y-114390939D01*
X140239869Y-114391033D01*
X140018116Y-114391112D01*
X139782411Y-114391175D01*
X139532335Y-114391226D01*
X139267472Y-114391265D01*
X138987404Y-114391293D01*
X138691714Y-114391312D01*
X138379983Y-114391323D01*
X138051794Y-114391326D01*
X138004802Y-114391326D01*
X137730198Y-114391319D01*
X137459850Y-114391296D01*
X137194250Y-114391259D01*
X136933892Y-114391208D01*
X136679268Y-114391144D01*
X136430871Y-114391066D01*
X136189193Y-114390976D01*
X135954728Y-114390873D01*
X135727968Y-114390759D01*
X135509406Y-114390633D01*
X135299535Y-114390496D01*
X135098847Y-114390349D01*
X134907836Y-114390192D01*
X134726995Y-114390025D01*
X134556815Y-114389850D01*
X134397790Y-114389665D01*
X134250412Y-114389473D01*
X134115175Y-114389272D01*
X133992571Y-114389065D01*
X133883093Y-114388850D01*
X133787233Y-114388629D01*
X133705486Y-114388402D01*
X133638342Y-114388170D01*
X133586295Y-114387932D01*
X133549839Y-114387690D01*
X133529464Y-114387444D01*
X133525030Y-114387262D01*
X133529216Y-114379666D01*
X133541573Y-114357930D01*
X133561800Y-114322575D01*
X133589596Y-114274122D01*
X133624660Y-114213094D01*
X133666690Y-114140011D01*
X133715387Y-114055394D01*
X133770449Y-113959766D01*
X133831575Y-113853647D01*
X133898463Y-113737560D01*
X133931563Y-113680127D01*
X134752292Y-113680127D01*
X138004600Y-113680127D01*
X138293112Y-113680117D01*
X138565118Y-113680088D01*
X138821045Y-113680037D01*
X139061321Y-113679963D01*
X139286374Y-113679866D01*
X139496629Y-113679743D01*
X139692516Y-113679593D01*
X139874460Y-113679415D01*
X140042890Y-113679207D01*
X140198233Y-113678968D01*
X140340916Y-113678697D01*
X140471366Y-113678392D01*
X140590012Y-113678052D01*
X140697280Y-113677675D01*
X140793597Y-113677260D01*
X140879391Y-113676805D01*
X140955089Y-113676310D01*
X141021119Y-113675773D01*
X141077908Y-113675192D01*
X141125884Y-113674566D01*
X141165473Y-113673894D01*
X141197103Y-113673174D01*
X141221202Y-113672404D01*
X141238196Y-113671585D01*
X141248513Y-113670713D01*
X141252581Y-113669788D01*
X141252670Y-113669543D01*
X141247861Y-113660742D01*
X141234954Y-113637950D01*
X141214301Y-113601778D01*
X141186258Y-113552840D01*
X141151177Y-113491747D01*
X141109413Y-113419111D01*
X141061319Y-113335544D01*
X141007250Y-113241660D01*
X140947558Y-113138068D01*
X140882598Y-113025383D01*
X140812724Y-112904215D01*
X140738288Y-112775178D01*
X140659646Y-112638882D01*
X140577151Y-112495941D01*
X140491157Y-112346967D01*
X140402017Y-112192571D01*
X140310086Y-112033365D01*
X140215717Y-111869962D01*
X140119264Y-111702975D01*
X140021080Y-111533014D01*
X139921520Y-111360693D01*
X139820938Y-111186622D01*
X139719686Y-111011416D01*
X139618120Y-110835684D01*
X139516592Y-110660041D01*
X139415457Y-110485097D01*
X139315069Y-110311465D01*
X139215780Y-110139757D01*
X139117946Y-109970586D01*
X139021919Y-109804562D01*
X138928054Y-109642299D01*
X138836704Y-109484409D01*
X138748224Y-109331503D01*
X138662967Y-109184194D01*
X138581286Y-109043094D01*
X138503536Y-108908816D01*
X138430071Y-108781970D01*
X138361243Y-108663169D01*
X138297408Y-108553026D01*
X138238919Y-108452153D01*
X138186129Y-108361161D01*
X138139393Y-108280663D01*
X138099063Y-108211271D01*
X138065495Y-108153597D01*
X138039042Y-108108253D01*
X138020058Y-108075852D01*
X138008896Y-108057005D01*
X138005829Y-108052094D01*
X138001347Y-108059228D01*
X137988752Y-108080414D01*
X137968400Y-108115040D01*
X137940644Y-108162494D01*
X137905838Y-108222163D01*
X137864337Y-108293435D01*
X137816496Y-108375697D01*
X137762667Y-108468337D01*
X137703206Y-108570743D01*
X137638466Y-108682302D01*
X137568802Y-108802401D01*
X137494569Y-108930428D01*
X137416119Y-109065771D01*
X137333808Y-109207818D01*
X137247989Y-109355955D01*
X137159017Y-109509571D01*
X137067247Y-109668053D01*
X136973031Y-109830788D01*
X136876725Y-109997165D01*
X136778683Y-110166570D01*
X136679259Y-110338392D01*
X136578806Y-110512017D01*
X136477680Y-110686834D01*
X136376235Y-110862230D01*
X136274824Y-111037593D01*
X136173802Y-111212309D01*
X136073523Y-111385767D01*
X135974342Y-111557355D01*
X135876612Y-111726459D01*
X135780688Y-111892468D01*
X135686923Y-112054769D01*
X135595673Y-112212749D01*
X135507292Y-112365797D01*
X135422132Y-112513299D01*
X135340550Y-112654644D01*
X135262899Y-112789218D01*
X135189532Y-112916409D01*
X135120806Y-113035606D01*
X135057073Y-113146195D01*
X134998687Y-113247564D01*
X134946004Y-113339101D01*
X134899377Y-113420193D01*
X134859160Y-113490228D01*
X134825708Y-113548593D01*
X134799375Y-113594677D01*
X134780515Y-113627865D01*
X134769482Y-113647547D01*
X134767311Y-113651556D01*
X134752292Y-113680127D01*
X133931563Y-113680127D01*
X133970814Y-113612024D01*
X134048325Y-113477563D01*
X134130696Y-113334696D01*
X134217626Y-113183946D01*
X134308813Y-113025834D01*
X134403957Y-112860881D01*
X134502757Y-112689609D01*
X134604912Y-112512539D01*
X134710120Y-112330192D01*
X134818081Y-112143090D01*
X134928493Y-111951755D01*
X135041056Y-111756707D01*
X135155469Y-111558468D01*
X135271430Y-111357560D01*
X135388638Y-111154503D01*
X135506793Y-110949819D01*
X135625594Y-110744031D01*
X135744739Y-110537658D01*
X135863927Y-110331222D01*
X135982858Y-110125245D01*
X136101230Y-109920248D01*
X136218742Y-109716753D01*
X136335094Y-109515281D01*
X136449984Y-109316353D01*
X136563111Y-109120491D01*
X136674174Y-108928216D01*
X136782873Y-108740049D01*
X136888906Y-108556512D01*
X136991972Y-108378127D01*
X137091770Y-108205414D01*
X137187999Y-108038895D01*
X137280358Y-107879092D01*
X137368547Y-107726525D01*
X137452263Y-107581717D01*
X137531206Y-107445188D01*
X137605076Y-107317460D01*
X137673570Y-107199055D01*
X137736388Y-107090493D01*
X137793229Y-106992297D01*
X137843792Y-106904987D01*
X137887776Y-106829085D01*
X137924880Y-106765112D01*
X137954803Y-106713591D01*
X137977243Y-106675041D01*
X137991900Y-106649985D01*
X137998473Y-106638943D01*
X137998806Y-106638444D01*
X138001741Y-106641471D01*
G37*
X138001741Y-106641471D02*
X138009147Y-106652341D01*
X138021172Y-106671308D01*
X138037964Y-106698627D01*
X138059670Y-106734551D01*
X138086439Y-106779334D01*
X138118416Y-106833230D01*
X138155751Y-106896492D01*
X138198590Y-106969375D01*
X138247081Y-107052132D01*
X138301372Y-107145017D01*
X138361609Y-107248284D01*
X138427941Y-107362187D01*
X138500516Y-107486979D01*
X138579479Y-107622915D01*
X138664980Y-107770247D01*
X138757166Y-107929231D01*
X138856184Y-108100119D01*
X138962182Y-108283166D01*
X139075306Y-108478625D01*
X139195706Y-108686751D01*
X139323528Y-108907796D01*
X139458920Y-109142015D01*
X139602029Y-109389662D01*
X139753003Y-109650990D01*
X139911989Y-109926254D01*
X140079135Y-110215707D01*
X140241210Y-110496427D01*
X140378356Y-110733996D01*
X140513390Y-110967926D01*
X140646067Y-111197786D01*
X140776137Y-111423149D01*
X140903354Y-111643583D01*
X141027470Y-111858660D01*
X141148237Y-112067951D01*
X141265408Y-112271026D01*
X141378735Y-112467456D01*
X141487971Y-112656812D01*
X141592868Y-112838664D01*
X141693178Y-113012582D01*
X141788654Y-113178138D01*
X141879049Y-113334903D01*
X141964114Y-113482446D01*
X142043602Y-113620338D01*
X142117266Y-113748151D01*
X142184858Y-113865454D01*
X142246130Y-113971819D01*
X142300835Y-114066816D01*
X142348725Y-114150015D01*
X142389553Y-114220988D01*
X142423071Y-114279305D01*
X142449031Y-114324537D01*
X142467187Y-114356254D01*
X142477290Y-114374027D01*
X142479433Y-114377926D01*
X142478830Y-114378915D01*
X142475966Y-114379854D01*
X142470423Y-114380745D01*
X142461783Y-114381589D01*
X142449630Y-114382388D01*
X142433544Y-114383142D01*
X142413110Y-114383853D01*
X142387908Y-114384522D01*
X142357523Y-114385151D01*
X142321535Y-114385740D01*
X142279529Y-114386291D01*
X142231085Y-114386805D01*
X142175787Y-114387283D01*
X142113218Y-114387727D01*
X142042958Y-114388138D01*
X141964592Y-114388517D01*
X141877701Y-114388866D01*
X141781869Y-114389185D01*
X141676676Y-114389476D01*
X141561707Y-114389740D01*
X141436542Y-114389978D01*
X141300766Y-114390192D01*
X141153960Y-114390383D01*
X140995706Y-114390552D01*
X140825588Y-114390700D01*
X140643187Y-114390829D01*
X140448087Y-114390939D01*
X140239869Y-114391033D01*
X140018116Y-114391112D01*
X139782411Y-114391175D01*
X139532335Y-114391226D01*
X139267472Y-114391265D01*
X138987404Y-114391293D01*
X138691714Y-114391312D01*
X138379983Y-114391323D01*
X138051794Y-114391326D01*
X138004802Y-114391326D01*
X137730198Y-114391319D01*
X137459850Y-114391296D01*
X137194250Y-114391259D01*
X136933892Y-114391208D01*
X136679268Y-114391144D01*
X136430871Y-114391066D01*
X136189193Y-114390976D01*
X135954728Y-114390873D01*
X135727968Y-114390759D01*
X135509406Y-114390633D01*
X135299535Y-114390496D01*
X135098847Y-114390349D01*
X134907836Y-114390192D01*
X134726995Y-114390025D01*
X134556815Y-114389850D01*
X134397790Y-114389665D01*
X134250412Y-114389473D01*
X134115175Y-114389272D01*
X133992571Y-114389065D01*
X133883093Y-114388850D01*
X133787233Y-114388629D01*
X133705486Y-114388402D01*
X133638342Y-114388170D01*
X133586295Y-114387932D01*
X133549839Y-114387690D01*
X133529464Y-114387444D01*
X133525030Y-114387262D01*
X133529216Y-114379666D01*
X133541573Y-114357930D01*
X133561800Y-114322575D01*
X133589596Y-114274122D01*
X133624660Y-114213094D01*
X133666690Y-114140011D01*
X133715387Y-114055394D01*
X133770449Y-113959766D01*
X133831575Y-113853647D01*
X133898463Y-113737560D01*
X133931563Y-113680127D01*
X134752292Y-113680127D01*
X138004600Y-113680127D01*
X138293112Y-113680117D01*
X138565118Y-113680088D01*
X138821045Y-113680037D01*
X139061321Y-113679963D01*
X139286374Y-113679866D01*
X139496629Y-113679743D01*
X139692516Y-113679593D01*
X139874460Y-113679415D01*
X140042890Y-113679207D01*
X140198233Y-113678968D01*
X140340916Y-113678697D01*
X140471366Y-113678392D01*
X140590012Y-113678052D01*
X140697280Y-113677675D01*
X140793597Y-113677260D01*
X140879391Y-113676805D01*
X140955089Y-113676310D01*
X141021119Y-113675773D01*
X141077908Y-113675192D01*
X141125884Y-113674566D01*
X141165473Y-113673894D01*
X141197103Y-113673174D01*
X141221202Y-113672404D01*
X141238196Y-113671585D01*
X141248513Y-113670713D01*
X141252581Y-113669788D01*
X141252670Y-113669543D01*
X141247861Y-113660742D01*
X141234954Y-113637950D01*
X141214301Y-113601778D01*
X141186258Y-113552840D01*
X141151177Y-113491747D01*
X141109413Y-113419111D01*
X141061319Y-113335544D01*
X141007250Y-113241660D01*
X140947558Y-113138068D01*
X140882598Y-113025383D01*
X140812724Y-112904215D01*
X140738288Y-112775178D01*
X140659646Y-112638882D01*
X140577151Y-112495941D01*
X140491157Y-112346967D01*
X140402017Y-112192571D01*
X140310086Y-112033365D01*
X140215717Y-111869962D01*
X140119264Y-111702975D01*
X140021080Y-111533014D01*
X139921520Y-111360693D01*
X139820938Y-111186622D01*
X139719686Y-111011416D01*
X139618120Y-110835684D01*
X139516592Y-110660041D01*
X139415457Y-110485097D01*
X139315069Y-110311465D01*
X139215780Y-110139757D01*
X139117946Y-109970586D01*
X139021919Y-109804562D01*
X138928054Y-109642299D01*
X138836704Y-109484409D01*
X138748224Y-109331503D01*
X138662967Y-109184194D01*
X138581286Y-109043094D01*
X138503536Y-108908816D01*
X138430071Y-108781970D01*
X138361243Y-108663169D01*
X138297408Y-108553026D01*
X138238919Y-108452153D01*
X138186129Y-108361161D01*
X138139393Y-108280663D01*
X138099063Y-108211271D01*
X138065495Y-108153597D01*
X138039042Y-108108253D01*
X138020058Y-108075852D01*
X138008896Y-108057005D01*
X138005829Y-108052094D01*
X138001347Y-108059228D01*
X137988752Y-108080414D01*
X137968400Y-108115040D01*
X137940644Y-108162494D01*
X137905838Y-108222163D01*
X137864337Y-108293435D01*
X137816496Y-108375697D01*
X137762667Y-108468337D01*
X137703206Y-108570743D01*
X137638466Y-108682302D01*
X137568802Y-108802401D01*
X137494569Y-108930428D01*
X137416119Y-109065771D01*
X137333808Y-109207818D01*
X137247989Y-109355955D01*
X137159017Y-109509571D01*
X137067247Y-109668053D01*
X136973031Y-109830788D01*
X136876725Y-109997165D01*
X136778683Y-110166570D01*
X136679259Y-110338392D01*
X136578806Y-110512017D01*
X136477680Y-110686834D01*
X136376235Y-110862230D01*
X136274824Y-111037593D01*
X136173802Y-111212309D01*
X136073523Y-111385767D01*
X135974342Y-111557355D01*
X135876612Y-111726459D01*
X135780688Y-111892468D01*
X135686923Y-112054769D01*
X135595673Y-112212749D01*
X135507292Y-112365797D01*
X135422132Y-112513299D01*
X135340550Y-112654644D01*
X135262899Y-112789218D01*
X135189532Y-112916409D01*
X135120806Y-113035606D01*
X135057073Y-113146195D01*
X134998687Y-113247564D01*
X134946004Y-113339101D01*
X134899377Y-113420193D01*
X134859160Y-113490228D01*
X134825708Y-113548593D01*
X134799375Y-113594677D01*
X134780515Y-113627865D01*
X134769482Y-113647547D01*
X134767311Y-113651556D01*
X134752292Y-113680127D01*
X133931563Y-113680127D01*
X133970814Y-113612024D01*
X134048325Y-113477563D01*
X134130696Y-113334696D01*
X134217626Y-113183946D01*
X134308813Y-113025834D01*
X134403957Y-112860881D01*
X134502757Y-112689609D01*
X134604912Y-112512539D01*
X134710120Y-112330192D01*
X134818081Y-112143090D01*
X134928493Y-111951755D01*
X135041056Y-111756707D01*
X135155469Y-111558468D01*
X135271430Y-111357560D01*
X135388638Y-111154503D01*
X135506793Y-110949819D01*
X135625594Y-110744031D01*
X135744739Y-110537658D01*
X135863927Y-110331222D01*
X135982858Y-110125245D01*
X136101230Y-109920248D01*
X136218742Y-109716753D01*
X136335094Y-109515281D01*
X136449984Y-109316353D01*
X136563111Y-109120491D01*
X136674174Y-108928216D01*
X136782873Y-108740049D01*
X136888906Y-108556512D01*
X136991972Y-108378127D01*
X137091770Y-108205414D01*
X137187999Y-108038895D01*
X137280358Y-107879092D01*
X137368547Y-107726525D01*
X137452263Y-107581717D01*
X137531206Y-107445188D01*
X137605076Y-107317460D01*
X137673570Y-107199055D01*
X137736388Y-107090493D01*
X137793229Y-106992297D01*
X137843792Y-106904987D01*
X137887776Y-106829085D01*
X137924880Y-106765112D01*
X137954803Y-106713591D01*
X137977243Y-106675041D01*
X137991900Y-106649985D01*
X137998473Y-106638943D01*
X137998806Y-106638444D01*
X138001741Y-106641471D01*
G36*
X131351861Y-109446801D02*
G01*
X131622210Y-109446823D01*
X131887809Y-109446860D01*
X132148168Y-109446911D01*
X132402792Y-109446976D01*
X132651189Y-109447053D01*
X132892867Y-109447144D01*
X133127332Y-109447246D01*
X133354092Y-109447360D01*
X133572654Y-109447486D01*
X133782525Y-109447623D01*
X133983212Y-109447770D01*
X134174223Y-109447927D01*
X134355065Y-109448093D01*
X134525245Y-109448269D01*
X134684270Y-109448453D01*
X134831648Y-109448645D01*
X134966885Y-109448845D01*
X135089489Y-109449053D01*
X135198967Y-109449267D01*
X135294826Y-109449488D01*
X135376574Y-109449715D01*
X135443718Y-109449947D01*
X135495764Y-109450184D01*
X135532221Y-109450426D01*
X135552595Y-109450672D01*
X135557030Y-109450853D01*
X135552844Y-109458450D01*
X135540487Y-109480187D01*
X135520260Y-109515542D01*
X135492464Y-109563995D01*
X135457400Y-109625024D01*
X135415370Y-109698107D01*
X135366673Y-109782724D01*
X135311611Y-109878352D01*
X135250486Y-109984471D01*
X135183597Y-110100559D01*
X135111247Y-110226095D01*
X135033736Y-110360557D01*
X134951366Y-110503424D01*
X134864436Y-110654174D01*
X134773249Y-110812287D01*
X134678105Y-110977240D01*
X134579305Y-111148513D01*
X134477151Y-111325583D01*
X134371943Y-111507930D01*
X134263983Y-111695032D01*
X134153571Y-111886368D01*
X134041008Y-112081417D01*
X133926596Y-112279656D01*
X133810635Y-112480565D01*
X133693427Y-112683622D01*
X133575272Y-112888306D01*
X133456472Y-113094095D01*
X133337327Y-113300468D01*
X133218139Y-113506904D01*
X133099209Y-113712882D01*
X132980837Y-113917879D01*
X132863325Y-114121374D01*
X132746974Y-114322847D01*
X132632084Y-114521775D01*
X132518958Y-114717637D01*
X132407894Y-114909913D01*
X132299196Y-115098080D01*
X132193164Y-115281617D01*
X132090098Y-115460002D01*
X131990300Y-115632716D01*
X131894071Y-115799235D01*
X131801712Y-115959038D01*
X131713524Y-116111605D01*
X131629808Y-116256413D01*
X131550865Y-116392942D01*
X131476996Y-116520670D01*
X131408502Y-116639075D01*
X131345683Y-116747637D01*
X131288842Y-116845834D01*
X131238279Y-116933143D01*
X131194296Y-117009045D01*
X131157192Y-117073018D01*
X131127269Y-117124540D01*
X131104829Y-117163089D01*
X131090172Y-117188145D01*
X131083599Y-117199187D01*
X131083266Y-117199685D01*
X131080343Y-117196681D01*
X131072973Y-117185874D01*
X131061006Y-117167010D01*
X131044295Y-117139833D01*
X131022692Y-117104090D01*
X130996048Y-117059524D01*
X130964216Y-117005882D01*
X130927046Y-116942907D01*
X130884391Y-116870345D01*
X130836102Y-116787941D01*
X130782032Y-116695440D01*
X130722032Y-116592587D01*
X130655954Y-116479127D01*
X130583649Y-116354806D01*
X130504970Y-116219367D01*
X130419768Y-116072556D01*
X130327896Y-115914118D01*
X130229204Y-115743799D01*
X130123545Y-115561343D01*
X130010770Y-115366494D01*
X129890731Y-115158999D01*
X129763281Y-114938603D01*
X129628270Y-114705049D01*
X129485551Y-114458084D01*
X129334975Y-114197452D01*
X129176395Y-113922898D01*
X129009661Y-113634167D01*
X128840943Y-113341947D01*
X128703799Y-113104384D01*
X128568765Y-112870459D01*
X128436089Y-112640603D01*
X128306018Y-112415244D01*
X128178801Y-112194812D01*
X128054685Y-111979737D01*
X127933917Y-111770447D01*
X127816746Y-111567373D01*
X127703418Y-111370943D01*
X127594182Y-111181587D01*
X127489284Y-110999735D01*
X127388973Y-110825815D01*
X127293496Y-110660257D01*
X127203101Y-110503491D01*
X127118035Y-110355946D01*
X127038546Y-110218051D01*
X126964882Y-110090236D01*
X126897290Y-109972930D01*
X126836017Y-109866563D01*
X126781312Y-109771563D01*
X126733422Y-109688361D01*
X126692595Y-109617385D01*
X126659077Y-109559066D01*
X126633118Y-109513832D01*
X126614964Y-109482113D01*
X126604862Y-109464338D01*
X126602721Y-109460438D01*
X126603224Y-109459432D01*
X126605806Y-109458477D01*
X126610884Y-109457570D01*
X126618878Y-109456711D01*
X126630206Y-109455899D01*
X126645287Y-109455132D01*
X126664541Y-109454409D01*
X126688385Y-109453728D01*
X126717239Y-109453089D01*
X126751522Y-109452490D01*
X126791652Y-109451929D01*
X126838048Y-109451406D01*
X126891129Y-109450920D01*
X126951314Y-109450468D01*
X127019022Y-109450050D01*
X127094672Y-109449665D01*
X127178681Y-109449310D01*
X127271470Y-109448986D01*
X127373457Y-109448690D01*
X127485061Y-109448421D01*
X127606701Y-109448178D01*
X127738795Y-109447961D01*
X127881762Y-109447766D01*
X128036022Y-109447594D01*
X128201993Y-109447443D01*
X128380094Y-109447311D01*
X128570743Y-109447198D01*
X128774360Y-109447102D01*
X128991363Y-109447021D01*
X129222171Y-109446955D01*
X129467204Y-109446903D01*
X129726879Y-109446862D01*
X130001616Y-109446832D01*
X130291833Y-109446812D01*
X130597950Y-109446799D01*
X130920385Y-109446794D01*
X131077257Y-109446793D01*
X131351861Y-109446801D01*
G37*
X131351861Y-109446801D02*
X131622210Y-109446823D01*
X131887809Y-109446860D01*
X132148168Y-109446911D01*
X132402792Y-109446976D01*
X132651189Y-109447053D01*
X132892867Y-109447144D01*
X133127332Y-109447246D01*
X133354092Y-109447360D01*
X133572654Y-109447486D01*
X133782525Y-109447623D01*
X133983212Y-109447770D01*
X134174223Y-109447927D01*
X134355065Y-109448093D01*
X134525245Y-109448269D01*
X134684270Y-109448453D01*
X134831648Y-109448645D01*
X134966885Y-109448845D01*
X135089489Y-109449053D01*
X135198967Y-109449267D01*
X135294826Y-109449488D01*
X135376574Y-109449715D01*
X135443718Y-109449947D01*
X135495764Y-109450184D01*
X135532221Y-109450426D01*
X135552595Y-109450672D01*
X135557030Y-109450853D01*
X135552844Y-109458450D01*
X135540487Y-109480187D01*
X135520260Y-109515542D01*
X135492464Y-109563995D01*
X135457400Y-109625024D01*
X135415370Y-109698107D01*
X135366673Y-109782724D01*
X135311611Y-109878352D01*
X135250486Y-109984471D01*
X135183597Y-110100559D01*
X135111247Y-110226095D01*
X135033736Y-110360557D01*
X134951366Y-110503424D01*
X134864436Y-110654174D01*
X134773249Y-110812287D01*
X134678105Y-110977240D01*
X134579305Y-111148513D01*
X134477151Y-111325583D01*
X134371943Y-111507930D01*
X134263983Y-111695032D01*
X134153571Y-111886368D01*
X134041008Y-112081417D01*
X133926596Y-112279656D01*
X133810635Y-112480565D01*
X133693427Y-112683622D01*
X133575272Y-112888306D01*
X133456472Y-113094095D01*
X133337327Y-113300468D01*
X133218139Y-113506904D01*
X133099209Y-113712882D01*
X132980837Y-113917879D01*
X132863325Y-114121374D01*
X132746974Y-114322847D01*
X132632084Y-114521775D01*
X132518958Y-114717637D01*
X132407894Y-114909913D01*
X132299196Y-115098080D01*
X132193164Y-115281617D01*
X132090098Y-115460002D01*
X131990300Y-115632716D01*
X131894071Y-115799235D01*
X131801712Y-115959038D01*
X131713524Y-116111605D01*
X131629808Y-116256413D01*
X131550865Y-116392942D01*
X131476996Y-116520670D01*
X131408502Y-116639075D01*
X131345683Y-116747637D01*
X131288842Y-116845834D01*
X131238279Y-116933143D01*
X131194296Y-117009045D01*
X131157192Y-117073018D01*
X131127269Y-117124540D01*
X131104829Y-117163089D01*
X131090172Y-117188145D01*
X131083599Y-117199187D01*
X131083266Y-117199685D01*
X131080343Y-117196681D01*
X131072973Y-117185874D01*
X131061006Y-117167010D01*
X131044295Y-117139833D01*
X131022692Y-117104090D01*
X130996048Y-117059524D01*
X130964216Y-117005882D01*
X130927046Y-116942907D01*
X130884391Y-116870345D01*
X130836102Y-116787941D01*
X130782032Y-116695440D01*
X130722032Y-116592587D01*
X130655954Y-116479127D01*
X130583649Y-116354806D01*
X130504970Y-116219367D01*
X130419768Y-116072556D01*
X130327896Y-115914118D01*
X130229204Y-115743799D01*
X130123545Y-115561343D01*
X130010770Y-115366494D01*
X129890731Y-115158999D01*
X129763281Y-114938603D01*
X129628270Y-114705049D01*
X129485551Y-114458084D01*
X129334975Y-114197452D01*
X129176395Y-113922898D01*
X129009661Y-113634167D01*
X128840943Y-113341947D01*
X128703799Y-113104384D01*
X128568765Y-112870459D01*
X128436089Y-112640603D01*
X128306018Y-112415244D01*
X128178801Y-112194812D01*
X128054685Y-111979737D01*
X127933917Y-111770447D01*
X127816746Y-111567373D01*
X127703418Y-111370943D01*
X127594182Y-111181587D01*
X127489284Y-110999735D01*
X127388973Y-110825815D01*
X127293496Y-110660257D01*
X127203101Y-110503491D01*
X127118035Y-110355946D01*
X127038546Y-110218051D01*
X126964882Y-110090236D01*
X126897290Y-109972930D01*
X126836017Y-109866563D01*
X126781312Y-109771563D01*
X126733422Y-109688361D01*
X126692595Y-109617385D01*
X126659077Y-109559066D01*
X126633118Y-109513832D01*
X126614964Y-109482113D01*
X126604862Y-109464338D01*
X126602721Y-109460438D01*
X126603224Y-109459432D01*
X126605806Y-109458477D01*
X126610884Y-109457570D01*
X126618878Y-109456711D01*
X126630206Y-109455899D01*
X126645287Y-109455132D01*
X126664541Y-109454409D01*
X126688385Y-109453728D01*
X126717239Y-109453089D01*
X126751522Y-109452490D01*
X126791652Y-109451929D01*
X126838048Y-109451406D01*
X126891129Y-109450920D01*
X126951314Y-109450468D01*
X127019022Y-109450050D01*
X127094672Y-109449665D01*
X127178681Y-109449310D01*
X127271470Y-109448986D01*
X127373457Y-109448690D01*
X127485061Y-109448421D01*
X127606701Y-109448178D01*
X127738795Y-109447961D01*
X127881762Y-109447766D01*
X128036022Y-109447594D01*
X128201993Y-109447443D01*
X128380094Y-109447311D01*
X128570743Y-109447198D01*
X128774360Y-109447102D01*
X128991363Y-109447021D01*
X129222171Y-109446955D01*
X129467204Y-109446903D01*
X129726879Y-109446862D01*
X130001616Y-109446832D01*
X130291833Y-109446812D01*
X130597950Y-109446799D01*
X130920385Y-109446794D01*
X131077257Y-109446793D01*
X131351861Y-109446801D01*
%TO.C,c*%
G36*
X198227346Y-105980987D02*
G01*
X198418682Y-105994110D01*
X198596271Y-106013672D01*
X198627700Y-106018076D01*
X198873741Y-106066003D01*
X199108700Y-106136599D01*
X199332704Y-106229945D01*
X199545881Y-106346126D01*
X199748356Y-106485224D01*
X199940257Y-106647323D01*
X200121712Y-106832506D01*
X200292847Y-107040855D01*
X200383202Y-107166200D01*
X200490718Y-107328853D01*
X200589118Y-107492169D01*
X200679323Y-107658620D01*
X200762256Y-107830678D01*
X200838839Y-108010816D01*
X200909993Y-108201505D01*
X200976642Y-108405219D01*
X201039708Y-108624429D01*
X201100112Y-108861608D01*
X201158777Y-109119228D01*
X201216626Y-109399762D01*
X201216948Y-109401400D01*
X201276245Y-109714346D01*
X201326781Y-110008865D01*
X201369070Y-110290177D01*
X201403626Y-110563500D01*
X201430961Y-110834054D01*
X201451588Y-111107058D01*
X201466021Y-111387733D01*
X201474772Y-111681297D01*
X201478355Y-111992970D01*
X201478500Y-112062050D01*
X201477989Y-112263007D01*
X201476027Y-112442823D01*
X201472347Y-112605727D01*
X201466682Y-112755950D01*
X201458764Y-112897721D01*
X201448326Y-113035271D01*
X201435099Y-113172831D01*
X201418816Y-113314631D01*
X201399211Y-113464900D01*
X201382115Y-113586050D01*
X201349186Y-113790680D01*
X201308985Y-114002286D01*
X201262642Y-114216516D01*
X201211292Y-114429013D01*
X201156064Y-114635425D01*
X201098093Y-114831398D01*
X201038510Y-115012576D01*
X200978447Y-115174606D01*
X200952754Y-115237307D01*
X200914637Y-115321515D01*
X200868832Y-115413678D01*
X200818968Y-115507157D01*
X200768676Y-115595312D01*
X200721585Y-115671504D01*
X200690776Y-115716495D01*
X200618401Y-115795095D01*
X200531835Y-115853043D01*
X200432783Y-115889505D01*
X200322948Y-115903643D01*
X200309565Y-115903800D01*
X200217142Y-115895997D01*
X200142152Y-115871480D01*
X200081571Y-115828587D01*
X200032371Y-115765654D01*
X200020667Y-115745050D01*
X200009849Y-115722258D01*
X200002346Y-115697988D01*
X199997581Y-115667171D01*
X199994973Y-115624736D01*
X199993946Y-115565615D01*
X199993860Y-115510100D01*
X199994122Y-115458565D01*
X199995067Y-115413084D01*
X199997206Y-115370474D01*
X200001051Y-115327550D01*
X200007113Y-115281130D01*
X200015903Y-115228031D01*
X200027932Y-115165068D01*
X200043711Y-115089059D01*
X200063751Y-114996821D01*
X200088565Y-114885169D01*
X200108490Y-114796239D01*
X200127972Y-114707539D01*
X200147410Y-114615694D01*
X200165333Y-114527903D01*
X200180268Y-114451362D01*
X200189723Y-114399299D01*
X200204004Y-114302793D01*
X200217530Y-114186924D01*
X200229826Y-114057728D01*
X200240414Y-113921242D01*
X200248819Y-113783500D01*
X200254564Y-113650538D01*
X200256986Y-113546978D01*
X200257747Y-113467192D01*
X200257477Y-113408302D01*
X200255758Y-113365812D01*
X200252171Y-113335226D01*
X200246296Y-113312046D01*
X200237716Y-113291777D01*
X200232238Y-113281250D01*
X200181465Y-113210174D01*
X200117824Y-113158955D01*
X200044191Y-113129428D01*
X199983832Y-113122624D01*
X199933185Y-113129963D01*
X199876030Y-113148933D01*
X199822531Y-113175264D01*
X199782849Y-113204686D01*
X199779139Y-113208624D01*
X199766540Y-113227792D01*
X199745030Y-113265918D01*
X199716699Y-113319066D01*
X199683638Y-113383302D01*
X199647938Y-113454689D01*
X199641920Y-113466921D01*
X199515925Y-113709150D01*
X199384302Y-113932281D01*
X199243259Y-114141598D01*
X199089000Y-114342389D01*
X198917734Y-114539940D01*
X198736141Y-114729107D01*
X198567369Y-114891035D01*
X198391770Y-115046371D01*
X198206387Y-115197336D01*
X198008265Y-115346152D01*
X197794448Y-115495040D01*
X197561981Y-115646224D01*
X197313250Y-115798734D01*
X196814489Y-116082655D01*
X196307405Y-116343446D01*
X195792954Y-116580681D01*
X195272091Y-116793937D01*
X194745773Y-116982787D01*
X194409276Y-117089810D01*
X194133821Y-117170206D01*
X193875160Y-117239446D01*
X193627878Y-117298698D01*
X193386559Y-117349133D01*
X193145789Y-117391920D01*
X192900153Y-117428229D01*
X192760300Y-117445947D01*
X192649208Y-117458311D01*
X192535120Y-117469009D01*
X192414009Y-117478300D01*
X192281845Y-117486445D01*
X192134600Y-117493705D01*
X191968246Y-117500340D01*
X191864950Y-117503890D01*
X191725048Y-117508799D01*
X191608024Y-117513734D01*
X191511353Y-117518955D01*
X191432515Y-117524719D01*
X191368986Y-117531284D01*
X191318244Y-117538910D01*
X191277768Y-117547854D01*
X191245033Y-117558374D01*
X191218880Y-117570028D01*
X191195286Y-117585885D01*
X191159432Y-117614566D01*
X191114967Y-117652674D01*
X191065543Y-117696809D01*
X191014809Y-117743575D01*
X190966417Y-117789574D01*
X190924016Y-117831408D01*
X190891259Y-117865680D01*
X190871794Y-117888993D01*
X190868000Y-117896595D01*
X190859189Y-117908781D01*
X190835650Y-117933329D01*
X190801719Y-117965817D01*
X190785450Y-117980733D01*
X190748329Y-118015955D01*
X190719862Y-118046028D01*
X190704436Y-118066186D01*
X190702900Y-118070452D01*
X190693629Y-118086339D01*
X190667671Y-118115962D01*
X190627801Y-118156739D01*
X190576798Y-118206089D01*
X190517439Y-118261430D01*
X190452502Y-118320183D01*
X190384764Y-118379765D01*
X190317004Y-118437595D01*
X190251998Y-118491092D01*
X190239350Y-118501221D01*
X190006621Y-118681786D01*
X189786650Y-118842309D01*
X189577880Y-118983730D01*
X189378753Y-119106989D01*
X189187713Y-119213027D01*
X189003203Y-119302783D01*
X188823664Y-119377198D01*
X188736670Y-119408470D01*
X188623501Y-119438819D01*
X188509188Y-119454276D01*
X188401102Y-119454213D01*
X188327647Y-119443395D01*
X188235769Y-119412993D01*
X188163564Y-119368591D01*
X188111968Y-119311175D01*
X188081915Y-119241732D01*
X188074000Y-119175687D01*
X188076535Y-119134114D01*
X188084947Y-119093027D01*
X188100442Y-119051240D01*
X188124227Y-119007567D01*
X188157512Y-118960824D01*
X188201502Y-118909826D01*
X188257406Y-118853386D01*
X188326431Y-118790321D01*
X188409783Y-118719444D01*
X188508672Y-118639570D01*
X188624304Y-118549515D01*
X188757887Y-118448093D01*
X188910629Y-118334119D01*
X188994750Y-118271916D01*
X189086687Y-118199159D01*
X189189535Y-118109086D01*
X189299717Y-118005245D01*
X189413656Y-117891182D01*
X189527775Y-117770445D01*
X189638498Y-117646580D01*
X189709006Y-117563602D01*
X189778651Y-117478581D01*
X189832830Y-117409149D01*
X189873332Y-117352259D01*
X189901952Y-117304866D01*
X189920479Y-117263923D01*
X189930707Y-117226383D01*
X189934426Y-117189201D01*
X189934550Y-117180150D01*
X189922535Y-117108061D01*
X189889166Y-117041780D01*
X189838458Y-116985824D01*
X189774423Y-116944715D01*
X189706938Y-116923850D01*
X189636791Y-116925301D01*
X189563311Y-116951768D01*
X189486712Y-117003113D01*
X189407208Y-117079200D01*
X189343646Y-117155208D01*
X189305870Y-117197876D01*
X189262995Y-117237095D01*
X189230809Y-117260199D01*
X189198526Y-117277431D01*
X189168633Y-117287557D01*
X189132659Y-117292249D01*
X189082132Y-117293180D01*
X189064600Y-117293000D01*
X188955923Y-117287666D01*
X188829755Y-117275021D01*
X188692571Y-117256162D01*
X188550850Y-117232184D01*
X188411067Y-117204184D01*
X188279699Y-117173257D01*
X188163223Y-117140499D01*
X188163009Y-117140433D01*
X187998382Y-117082505D01*
X187848229Y-117014814D01*
X187705211Y-116933448D01*
X187561988Y-116834498D01*
X187501396Y-116787851D01*
X187420425Y-116729202D01*
X187349298Y-116690850D01*
X187283687Y-116672014D01*
X187219266Y-116671911D01*
X187151706Y-116689759D01*
X187096100Y-116714594D01*
X187063567Y-116732169D01*
X187027020Y-116754242D01*
X186984085Y-116782497D01*
X186932391Y-116818620D01*
X186869564Y-116864293D01*
X186793234Y-116921202D01*
X186701026Y-116991029D01*
X186625998Y-117048318D01*
X186310254Y-117276961D01*
X185991483Y-117481557D01*
X185667346Y-117663447D01*
X185335506Y-117823973D01*
X185108255Y-117920021D01*
X185013884Y-117956890D01*
X184937442Y-117984380D01*
X184873743Y-118003642D01*
X184817605Y-118015831D01*
X184763841Y-118022099D01*
X184707267Y-118023598D01*
X184650235Y-118021849D01*
X184544971Y-118012485D01*
X184462496Y-117994797D01*
X184401259Y-117967723D01*
X184359709Y-117930198D01*
X184336294Y-117881160D01*
X184329463Y-117819546D01*
X184330139Y-117802450D01*
X184344972Y-117720927D01*
X184377016Y-117635642D01*
X184422198Y-117556692D01*
X184437705Y-117535754D01*
X184466610Y-117503748D01*
X184509309Y-117463792D01*
X184566751Y-117415166D01*
X184639886Y-117357150D01*
X184729662Y-117289024D01*
X184837027Y-117210067D01*
X184962932Y-117119559D01*
X185108325Y-117016781D01*
X185273650Y-116901362D01*
X185348969Y-116848361D01*
X185426464Y-116792635D01*
X185500233Y-116738512D01*
X185564376Y-116690316D01*
X185610200Y-116654621D01*
X185681812Y-116594378D01*
X185765199Y-116519628D01*
X185855520Y-116435072D01*
X185947929Y-116345412D01*
X186037585Y-116255349D01*
X186119645Y-116169585D01*
X186189265Y-116092822D01*
X186191318Y-116090469D01*
X186246418Y-116028629D01*
X186292830Y-115982261D01*
X186335164Y-115950167D01*
X186378030Y-115931146D01*
X186426040Y-115923996D01*
X186483805Y-115927517D01*
X186555934Y-115940508D01*
X186647038Y-115961769D01*
X186666853Y-115966640D01*
X186859166Y-116010585D01*
X187060055Y-116049440D01*
X187272842Y-116083688D01*
X187500853Y-116113813D01*
X187747411Y-116140302D01*
X188015841Y-116163637D01*
X188021360Y-116164068D01*
X188141654Y-116172990D01*
X188239751Y-116178917D01*
X188318716Y-116181507D01*
X188381614Y-116180418D01*
X188431509Y-116175308D01*
X188471465Y-116165836D01*
X188504547Y-116151659D01*
X188533819Y-116132436D01*
X188562345Y-116107826D01*
X188567237Y-116103181D01*
X188619679Y-116041209D01*
X188648743Y-115976348D01*
X188656385Y-115903881D01*
X188655666Y-115890071D01*
X188640031Y-115813179D01*
X188604313Y-115750574D01*
X188546877Y-115699778D01*
X188519059Y-115683080D01*
X188490585Y-115668776D01*
X188461932Y-115657940D01*
X188427937Y-115649526D01*
X188383438Y-115642490D01*
X188323271Y-115635787D01*
X188253728Y-115629373D01*
X188003734Y-115606606D01*
X187776903Y-115584149D01*
X187571010Y-115561548D01*
X187383829Y-115538350D01*
X187213134Y-115514103D01*
X187056700Y-115488353D01*
X186912302Y-115460647D01*
X186777714Y-115430531D01*
X186650711Y-115397554D01*
X186529066Y-115361261D01*
X186410555Y-115321199D01*
X186292952Y-115276916D01*
X186174032Y-115227958D01*
X186080261Y-115186833D01*
X185898767Y-115093821D01*
X185733824Y-114985630D01*
X185586929Y-114863659D01*
X185459575Y-114729310D01*
X185353258Y-114583983D01*
X185269473Y-114429080D01*
X185267966Y-114425735D01*
X185217938Y-114292088D01*
X186831303Y-114292088D01*
X186839715Y-114367413D01*
X186843853Y-114381079D01*
X186877030Y-114449869D01*
X186926367Y-114502915D01*
X186994176Y-114542004D01*
X187082770Y-114568924D01*
X187088357Y-114570100D01*
X187124547Y-114576418D01*
X187182584Y-114585104D01*
X187259653Y-114595822D01*
X187352940Y-114608237D01*
X187459630Y-114622012D01*
X187576911Y-114636813D01*
X187701967Y-114652302D01*
X187831985Y-114668144D01*
X187964151Y-114684004D01*
X188095650Y-114699545D01*
X188223668Y-114714431D01*
X188345392Y-114728327D01*
X188458006Y-114740897D01*
X188558698Y-114751804D01*
X188644653Y-114760714D01*
X188713057Y-114767290D01*
X188761096Y-114771196D01*
X188781399Y-114772166D01*
X188842898Y-114771188D01*
X188903474Y-114767412D01*
X188952497Y-114761577D01*
X188963376Y-114759532D01*
X189035551Y-114732646D01*
X189091089Y-114686573D01*
X189129860Y-114621427D01*
X189136098Y-114604632D01*
X189141076Y-114579285D01*
X190996363Y-114579285D01*
X191011522Y-114650529D01*
X191047280Y-114715596D01*
X191062281Y-114733287D01*
X191094641Y-114763067D01*
X191131313Y-114785242D01*
X191176975Y-114801218D01*
X191236302Y-114812403D01*
X191313974Y-114820206D01*
X191361326Y-114823288D01*
X191600712Y-114832687D01*
X191844031Y-114834109D01*
X192078977Y-114827538D01*
X192141181Y-114824288D01*
X192224870Y-114818465D01*
X192296792Y-114811564D01*
X192352822Y-114804074D01*
X192388835Y-114796482D01*
X192395181Y-114794231D01*
X192440340Y-114766143D01*
X192484745Y-114724501D01*
X192519438Y-114678479D01*
X192530921Y-114655198D01*
X192542136Y-114601310D01*
X192542601Y-114536671D01*
X192532891Y-114473264D01*
X192520361Y-114436051D01*
X192485940Y-114383331D01*
X192436436Y-114335647D01*
X192380752Y-114300770D01*
X192353900Y-114290709D01*
X192328954Y-114287390D01*
X192282042Y-114284580D01*
X192216493Y-114282275D01*
X192135637Y-114280468D01*
X192042800Y-114279154D01*
X191941314Y-114278327D01*
X191834506Y-114277982D01*
X191725705Y-114278113D01*
X191618240Y-114278714D01*
X191515439Y-114279780D01*
X191420633Y-114281305D01*
X191337148Y-114283284D01*
X191268315Y-114285710D01*
X191217462Y-114288578D01*
X191187918Y-114291882D01*
X191184513Y-114292696D01*
X191115978Y-114325272D01*
X191061609Y-114374857D01*
X191022693Y-114436811D01*
X191000515Y-114506500D01*
X190996363Y-114579285D01*
X189141076Y-114579285D01*
X189152384Y-114521710D01*
X189143624Y-114442849D01*
X189109738Y-114367554D01*
X189094042Y-114344757D01*
X189071221Y-114318286D01*
X189043818Y-114295733D01*
X189009177Y-114276372D01*
X188964645Y-114259475D01*
X188907567Y-114244316D01*
X188835288Y-114230169D01*
X188745155Y-114216306D01*
X188634512Y-114202002D01*
X188526704Y-114189442D01*
X188430824Y-114178577D01*
X188356858Y-114169886D01*
X188301477Y-114162716D01*
X188261352Y-114156414D01*
X188233156Y-114150328D01*
X188213560Y-114143804D01*
X188199235Y-114136189D01*
X188186853Y-114126832D01*
X188180674Y-114121574D01*
X188163328Y-114103401D01*
X188151851Y-114080541D01*
X188143999Y-114046214D01*
X188137526Y-113993641D01*
X188137183Y-113990263D01*
X188122563Y-113901650D01*
X188119447Y-113893089D01*
X189411673Y-113893089D01*
X189421071Y-113944878D01*
X189438873Y-113987885D01*
X189455778Y-114008325D01*
X189467377Y-114020896D01*
X189464863Y-114024200D01*
X189465024Y-114032054D01*
X189479544Y-114051406D01*
X189483700Y-114055950D01*
X189508614Y-114077618D01*
X189529103Y-114087621D01*
X189530363Y-114087700D01*
X189545809Y-114094008D01*
X189547200Y-114098160D01*
X189558872Y-114110496D01*
X189589794Y-114121124D01*
X189633819Y-114128876D01*
X189684802Y-114132585D01*
X189725000Y-114131947D01*
X189774388Y-114125668D01*
X189837291Y-114113012D01*
X189903323Y-114096205D01*
X189932920Y-114087369D01*
X190016918Y-114058852D01*
X190101659Y-114026597D01*
X190181788Y-113992933D01*
X190251947Y-113960187D01*
X190306781Y-113930689D01*
X190332807Y-113913502D01*
X190381023Y-113862246D01*
X190389606Y-113844051D01*
X190944324Y-113844051D01*
X190955973Y-113922389D01*
X190988292Y-113993880D01*
X191037839Y-114053254D01*
X191101172Y-114095241D01*
X191111143Y-114099511D01*
X191155262Y-114109301D01*
X191212449Y-114111689D01*
X191271542Y-114106891D01*
X191320428Y-114095466D01*
X191349597Y-114083512D01*
X191397169Y-114062228D01*
X191459997Y-114033152D01*
X191534932Y-113997818D01*
X191618828Y-113957764D01*
X191708536Y-113914526D01*
X191800909Y-113869640D01*
X191892800Y-113824641D01*
X191981061Y-113781068D01*
X192062544Y-113740454D01*
X192134101Y-113704338D01*
X192192586Y-113674255D01*
X192234850Y-113651741D01*
X192257746Y-113638333D01*
X192259242Y-113637259D01*
X192304672Y-113588397D01*
X192338136Y-113523902D01*
X192355771Y-113452213D01*
X192357528Y-113422592D01*
X192345759Y-113344338D01*
X192312914Y-113274317D01*
X192262687Y-113216256D01*
X192198771Y-113173884D01*
X192124859Y-113150930D01*
X192085428Y-113147900D01*
X192062083Y-113150127D01*
X192031674Y-113157343D01*
X191992371Y-113170350D01*
X191942347Y-113189947D01*
X191879774Y-113216937D01*
X191802822Y-113252119D01*
X191709664Y-113296296D01*
X191598472Y-113350268D01*
X191467417Y-113414836D01*
X191401400Y-113447600D01*
X191285967Y-113505615D01*
X191191580Y-113554931D01*
X191116156Y-113597352D01*
X191057616Y-113634684D01*
X191013878Y-113668730D01*
X190982861Y-113701296D01*
X190962484Y-113734188D01*
X190950667Y-113769210D01*
X190945328Y-113808166D01*
X190944324Y-113844051D01*
X190389606Y-113844051D01*
X190410608Y-113799533D01*
X190422446Y-113730159D01*
X190417422Y-113658925D01*
X190396422Y-113590629D01*
X190360329Y-113530069D01*
X190310029Y-113482044D01*
X190247654Y-113451720D01*
X190190339Y-113444182D01*
X190114951Y-113449084D01*
X190025038Y-113465533D01*
X189924148Y-113492639D01*
X189815829Y-113529510D01*
X189703627Y-113575252D01*
X189640611Y-113604320D01*
X189576675Y-113635658D01*
X189531407Y-113659776D01*
X189500283Y-113679814D01*
X189478781Y-113698910D01*
X189462378Y-113720207D01*
X189453942Y-113733907D01*
X189432228Y-113779099D01*
X189416300Y-113826709D01*
X189413091Y-113841922D01*
X189411673Y-113893089D01*
X188119447Y-113893089D01*
X188097615Y-113833116D01*
X188060477Y-113780794D01*
X188020711Y-113747989D01*
X187989568Y-113729564D01*
X187959773Y-113718983D01*
X187922364Y-113714170D01*
X187869782Y-113713050D01*
X187818347Y-113713895D01*
X187783971Y-113717911D01*
X187758332Y-113727322D01*
X187733106Y-113744348D01*
X187723271Y-113752164D01*
X187682797Y-113795304D01*
X187642330Y-113857062D01*
X187605812Y-113930963D01*
X187589989Y-113971208D01*
X187576517Y-114001937D01*
X187559029Y-114024369D01*
X187534051Y-114039252D01*
X187498105Y-114047339D01*
X187447716Y-114049377D01*
X187379408Y-114046118D01*
X187289705Y-114038311D01*
X187282299Y-114037590D01*
X187215026Y-114032068D01*
X187151752Y-114028751D01*
X187099507Y-114027892D01*
X187065318Y-114029742D01*
X187064873Y-114029807D01*
X186990442Y-114052659D01*
X186927160Y-114094621D01*
X186877735Y-114151384D01*
X186844880Y-114218642D01*
X186831303Y-114292088D01*
X185217938Y-114292088D01*
X185199702Y-114243372D01*
X185152382Y-114048630D01*
X185125920Y-113843373D01*
X185120229Y-113629464D01*
X185135222Y-113408769D01*
X185156280Y-113275272D01*
X186476232Y-113275272D01*
X186476529Y-113342079D01*
X186489635Y-113400878D01*
X186518094Y-113457267D01*
X186564453Y-113516842D01*
X186606054Y-113560585D01*
X186670768Y-113621082D01*
X186740074Y-113678930D01*
X186808223Y-113729773D01*
X186869468Y-113769258D01*
X186907063Y-113788646D01*
X186978226Y-113806390D01*
X187050893Y-113798902D01*
X187080632Y-113788606D01*
X187148014Y-113748514D01*
X187203003Y-113692239D01*
X187241670Y-113625354D01*
X187260088Y-113553434D01*
X187261080Y-113532580D01*
X187249931Y-113470739D01*
X187218661Y-113401647D01*
X187170200Y-113328720D01*
X187107477Y-113255376D01*
X187033423Y-113185031D01*
X186950968Y-113121103D01*
X186863041Y-113067008D01*
X186860877Y-113065853D01*
X186784640Y-113037918D01*
X186709277Y-113032978D01*
X186638510Y-113049009D01*
X186576058Y-113083984D01*
X186525642Y-113135878D01*
X186490984Y-113202664D01*
X186476232Y-113275272D01*
X185156280Y-113275272D01*
X185170812Y-113183150D01*
X185226914Y-112954472D01*
X185303440Y-112724599D01*
X185352727Y-112601800D01*
X185414817Y-112469268D01*
X185494148Y-112321905D01*
X185589138Y-112161936D01*
X185698208Y-111991586D01*
X185819775Y-111813080D01*
X185952260Y-111628644D01*
X186094082Y-111440503D01*
X186243660Y-111250883D01*
X186399414Y-111062007D01*
X186559761Y-110876102D01*
X186651391Y-110773661D01*
X186704358Y-110714495D01*
X186754081Y-110657587D01*
X186796866Y-110607265D01*
X186829020Y-110567859D01*
X186844456Y-110547325D01*
X186887095Y-110476589D01*
X186930167Y-110389966D01*
X186969722Y-110296588D01*
X187001816Y-110205589D01*
X187018624Y-110144350D01*
X187056730Y-109981139D01*
X187091280Y-109839216D01*
X187123377Y-109714903D01*
X187154128Y-109604519D01*
X187184636Y-109504383D01*
X187216008Y-109410817D01*
X187249347Y-109320140D01*
X187285759Y-109228672D01*
X187313159Y-109163391D01*
X187404453Y-108964609D01*
X187507213Y-108767503D01*
X187618927Y-108575933D01*
X187737081Y-108393757D01*
X187859163Y-108224835D01*
X187982661Y-108073024D01*
X188105062Y-107942183D01*
X188114003Y-107933445D01*
X188193520Y-107858325D01*
X188260059Y-107800668D01*
X188316859Y-107758387D01*
X188367161Y-107729394D01*
X188414202Y-107711604D01*
X188461223Y-107702930D01*
X188473357Y-107701941D01*
X188518464Y-107700147D01*
X188548038Y-107703738D01*
X188571806Y-107715456D01*
X188598557Y-107737215D01*
X188631213Y-107772999D01*
X188662947Y-107818967D01*
X188676250Y-107843343D01*
X188710099Y-107927040D01*
X188742306Y-108033205D01*
X188772407Y-108158932D01*
X188799939Y-108301316D01*
X188824436Y-108457451D01*
X188845436Y-108624433D01*
X188862473Y-108799356D01*
X188875084Y-108979314D01*
X188881860Y-109130487D01*
X188884479Y-109215058D01*
X188885768Y-109278761D01*
X188885438Y-109326107D01*
X188883202Y-109361606D01*
X188878771Y-109389768D01*
X188871859Y-109415105D01*
X188862178Y-109442126D01*
X188861937Y-109442758D01*
X188832065Y-109502858D01*
X188787831Y-109558590D01*
X188763916Y-109582458D01*
X188707332Y-109642976D01*
X188673029Y-109698093D01*
X188659791Y-109752048D01*
X188666400Y-109809080D01*
X188684627Y-109858600D01*
X188731943Y-109935913D01*
X188795477Y-109993938D01*
X188828311Y-110013358D01*
X188868455Y-110027109D01*
X188922934Y-110033666D01*
X188993864Y-110032941D01*
X189083365Y-110024845D01*
X189193555Y-110009290D01*
X189280500Y-109994565D01*
X189547425Y-109957340D01*
X189817414Y-109939585D01*
X190084114Y-109941503D01*
X190324536Y-109961230D01*
X190386791Y-109967421D01*
X190434540Y-109968047D01*
X190478137Y-109962742D01*
X190515036Y-109954475D01*
X190562863Y-109940785D01*
X190605064Y-109924093D01*
X190644173Y-109901987D01*
X190682724Y-109872053D01*
X190723249Y-109831878D01*
X190768283Y-109779050D01*
X190820358Y-109711154D01*
X190882009Y-109625779D01*
X190926382Y-109562680D01*
X191027023Y-109419579D01*
X191116473Y-109294485D01*
X191197260Y-109184028D01*
X191271909Y-109084836D01*
X191342946Y-108993538D01*
X191412897Y-108906763D01*
X191463799Y-108845441D01*
X191537317Y-108761083D01*
X191619002Y-108672864D01*
X191705227Y-108584283D01*
X191792362Y-108498840D01*
X191876778Y-108420035D01*
X191954846Y-108351367D01*
X192022937Y-108296337D01*
X192062890Y-108267692D01*
X192154676Y-108210778D01*
X192248535Y-108159816D01*
X192340749Y-108116276D01*
X192427600Y-108081630D01*
X192505370Y-108057346D01*
X192570341Y-108044895D01*
X192618795Y-108045748D01*
X192622194Y-108046521D01*
X192648632Y-108059009D01*
X192680352Y-108081558D01*
X192710009Y-108107870D01*
X192730255Y-108131646D01*
X192734900Y-108143152D01*
X192744194Y-108158372D01*
X192745362Y-108158916D01*
X192755239Y-108172318D01*
X192771386Y-108203936D01*
X192791413Y-108248109D01*
X192812933Y-108299173D01*
X192833557Y-108351466D01*
X192850896Y-108399326D01*
X192862327Y-108436200D01*
X192884274Y-108536979D01*
X192902717Y-108656869D01*
X192917237Y-108789765D01*
X192927420Y-108929567D01*
X192932850Y-109070172D01*
X192933109Y-109205477D01*
X192927781Y-109329382D01*
X192925340Y-109359997D01*
X192915179Y-109470809D01*
X192906192Y-109560054D01*
X192897851Y-109631508D01*
X192889629Y-109688946D01*
X192880999Y-109736146D01*
X192871435Y-109776882D01*
X192863037Y-109806433D01*
X192855877Y-109837799D01*
X192855518Y-109858151D01*
X192856125Y-109859530D01*
X192853858Y-109874344D01*
X192851352Y-109876319D01*
X192844660Y-109885446D01*
X192839666Y-109905543D01*
X192836093Y-109939835D01*
X192833663Y-109991547D01*
X192832098Y-110063904D01*
X192831580Y-110106250D01*
X192831455Y-110169592D01*
X192833238Y-110213742D01*
X192837862Y-110244890D01*
X192846260Y-110269226D01*
X192859365Y-110292937D01*
X192859830Y-110293687D01*
X192890342Y-110330526D01*
X192930198Y-110364102D01*
X192942380Y-110371842D01*
X193021096Y-110404741D01*
X193097781Y-110413408D01*
X193169986Y-110399009D01*
X193235263Y-110362709D01*
X193291163Y-110305673D01*
X193335236Y-110229065D01*
X193354523Y-110175759D01*
X193408544Y-109966355D01*
X193450183Y-109743727D01*
X193480012Y-109504350D01*
X193495306Y-109306150D01*
X193500321Y-109230764D01*
X193505748Y-109175290D01*
X193512531Y-109134245D01*
X193521618Y-109102146D01*
X193533955Y-109073512D01*
X193536255Y-109068961D01*
X193555747Y-109039286D01*
X193591710Y-108993219D01*
X193642656Y-108932328D01*
X193707093Y-108858181D01*
X193783535Y-108772346D01*
X193870491Y-108676393D01*
X193966472Y-108571888D01*
X194069990Y-108460401D01*
X194179554Y-108343500D01*
X194293676Y-108222753D01*
X194410867Y-108099728D01*
X194529637Y-107975994D01*
X194648498Y-107853119D01*
X194765959Y-107732671D01*
X194880533Y-107616219D01*
X194990730Y-107505331D01*
X195095060Y-107401576D01*
X195192035Y-107306521D01*
X195280165Y-107221735D01*
X195357961Y-107148786D01*
X195370150Y-107137585D01*
X195655483Y-106892016D01*
X195949854Y-106669598D01*
X196252565Y-106470853D01*
X196278200Y-106455344D01*
X196475820Y-106341524D01*
X196661247Y-106245804D01*
X196838693Y-106166890D01*
X197012371Y-106103491D01*
X197186493Y-106054312D01*
X197365272Y-106018062D01*
X197552919Y-105993448D01*
X197753648Y-105979179D01*
X197840300Y-105976029D01*
X198031480Y-105974796D01*
X198227346Y-105980987D01*
G37*
X198227346Y-105980987D02*
X198418682Y-105994110D01*
X198596271Y-106013672D01*
X198627700Y-106018076D01*
X198873741Y-106066003D01*
X199108700Y-106136599D01*
X199332704Y-106229945D01*
X199545881Y-106346126D01*
X199748356Y-106485224D01*
X199940257Y-106647323D01*
X200121712Y-106832506D01*
X200292847Y-107040855D01*
X200383202Y-107166200D01*
X200490718Y-107328853D01*
X200589118Y-107492169D01*
X200679323Y-107658620D01*
X200762256Y-107830678D01*
X200838839Y-108010816D01*
X200909993Y-108201505D01*
X200976642Y-108405219D01*
X201039708Y-108624429D01*
X201100112Y-108861608D01*
X201158777Y-109119228D01*
X201216626Y-109399762D01*
X201216948Y-109401400D01*
X201276245Y-109714346D01*
X201326781Y-110008865D01*
X201369070Y-110290177D01*
X201403626Y-110563500D01*
X201430961Y-110834054D01*
X201451588Y-111107058D01*
X201466021Y-111387733D01*
X201474772Y-111681297D01*
X201478355Y-111992970D01*
X201478500Y-112062050D01*
X201477989Y-112263007D01*
X201476027Y-112442823D01*
X201472347Y-112605727D01*
X201466682Y-112755950D01*
X201458764Y-112897721D01*
X201448326Y-113035271D01*
X201435099Y-113172831D01*
X201418816Y-113314631D01*
X201399211Y-113464900D01*
X201382115Y-113586050D01*
X201349186Y-113790680D01*
X201308985Y-114002286D01*
X201262642Y-114216516D01*
X201211292Y-114429013D01*
X201156064Y-114635425D01*
X201098093Y-114831398D01*
X201038510Y-115012576D01*
X200978447Y-115174606D01*
X200952754Y-115237307D01*
X200914637Y-115321515D01*
X200868832Y-115413678D01*
X200818968Y-115507157D01*
X200768676Y-115595312D01*
X200721585Y-115671504D01*
X200690776Y-115716495D01*
X200618401Y-115795095D01*
X200531835Y-115853043D01*
X200432783Y-115889505D01*
X200322948Y-115903643D01*
X200309565Y-115903800D01*
X200217142Y-115895997D01*
X200142152Y-115871480D01*
X200081571Y-115828587D01*
X200032371Y-115765654D01*
X200020667Y-115745050D01*
X200009849Y-115722258D01*
X200002346Y-115697988D01*
X199997581Y-115667171D01*
X199994973Y-115624736D01*
X199993946Y-115565615D01*
X199993860Y-115510100D01*
X199994122Y-115458565D01*
X199995067Y-115413084D01*
X199997206Y-115370474D01*
X200001051Y-115327550D01*
X200007113Y-115281130D01*
X200015903Y-115228031D01*
X200027932Y-115165068D01*
X200043711Y-115089059D01*
X200063751Y-114996821D01*
X200088565Y-114885169D01*
X200108490Y-114796239D01*
X200127972Y-114707539D01*
X200147410Y-114615694D01*
X200165333Y-114527903D01*
X200180268Y-114451362D01*
X200189723Y-114399299D01*
X200204004Y-114302793D01*
X200217530Y-114186924D01*
X200229826Y-114057728D01*
X200240414Y-113921242D01*
X200248819Y-113783500D01*
X200254564Y-113650538D01*
X200256986Y-113546978D01*
X200257747Y-113467192D01*
X200257477Y-113408302D01*
X200255758Y-113365812D01*
X200252171Y-113335226D01*
X200246296Y-113312046D01*
X200237716Y-113291777D01*
X200232238Y-113281250D01*
X200181465Y-113210174D01*
X200117824Y-113158955D01*
X200044191Y-113129428D01*
X199983832Y-113122624D01*
X199933185Y-113129963D01*
X199876030Y-113148933D01*
X199822531Y-113175264D01*
X199782849Y-113204686D01*
X199779139Y-113208624D01*
X199766540Y-113227792D01*
X199745030Y-113265918D01*
X199716699Y-113319066D01*
X199683638Y-113383302D01*
X199647938Y-113454689D01*
X199641920Y-113466921D01*
X199515925Y-113709150D01*
X199384302Y-113932281D01*
X199243259Y-114141598D01*
X199089000Y-114342389D01*
X198917734Y-114539940D01*
X198736141Y-114729107D01*
X198567369Y-114891035D01*
X198391770Y-115046371D01*
X198206387Y-115197336D01*
X198008265Y-115346152D01*
X197794448Y-115495040D01*
X197561981Y-115646224D01*
X197313250Y-115798734D01*
X196814489Y-116082655D01*
X196307405Y-116343446D01*
X195792954Y-116580681D01*
X195272091Y-116793937D01*
X194745773Y-116982787D01*
X194409276Y-117089810D01*
X194133821Y-117170206D01*
X193875160Y-117239446D01*
X193627878Y-117298698D01*
X193386559Y-117349133D01*
X193145789Y-117391920D01*
X192900153Y-117428229D01*
X192760300Y-117445947D01*
X192649208Y-117458311D01*
X192535120Y-117469009D01*
X192414009Y-117478300D01*
X192281845Y-117486445D01*
X192134600Y-117493705D01*
X191968246Y-117500340D01*
X191864950Y-117503890D01*
X191725048Y-117508799D01*
X191608024Y-117513734D01*
X191511353Y-117518955D01*
X191432515Y-117524719D01*
X191368986Y-117531284D01*
X191318244Y-117538910D01*
X191277768Y-117547854D01*
X191245033Y-117558374D01*
X191218880Y-117570028D01*
X191195286Y-117585885D01*
X191159432Y-117614566D01*
X191114967Y-117652674D01*
X191065543Y-117696809D01*
X191014809Y-117743575D01*
X190966417Y-117789574D01*
X190924016Y-117831408D01*
X190891259Y-117865680D01*
X190871794Y-117888993D01*
X190868000Y-117896595D01*
X190859189Y-117908781D01*
X190835650Y-117933329D01*
X190801719Y-117965817D01*
X190785450Y-117980733D01*
X190748329Y-118015955D01*
X190719862Y-118046028D01*
X190704436Y-118066186D01*
X190702900Y-118070452D01*
X190693629Y-118086339D01*
X190667671Y-118115962D01*
X190627801Y-118156739D01*
X190576798Y-118206089D01*
X190517439Y-118261430D01*
X190452502Y-118320183D01*
X190384764Y-118379765D01*
X190317004Y-118437595D01*
X190251998Y-118491092D01*
X190239350Y-118501221D01*
X190006621Y-118681786D01*
X189786650Y-118842309D01*
X189577880Y-118983730D01*
X189378753Y-119106989D01*
X189187713Y-119213027D01*
X189003203Y-119302783D01*
X188823664Y-119377198D01*
X188736670Y-119408470D01*
X188623501Y-119438819D01*
X188509188Y-119454276D01*
X188401102Y-119454213D01*
X188327647Y-119443395D01*
X188235769Y-119412993D01*
X188163564Y-119368591D01*
X188111968Y-119311175D01*
X188081915Y-119241732D01*
X188074000Y-119175687D01*
X188076535Y-119134114D01*
X188084947Y-119093027D01*
X188100442Y-119051240D01*
X188124227Y-119007567D01*
X188157512Y-118960824D01*
X188201502Y-118909826D01*
X188257406Y-118853386D01*
X188326431Y-118790321D01*
X188409783Y-118719444D01*
X188508672Y-118639570D01*
X188624304Y-118549515D01*
X188757887Y-118448093D01*
X188910629Y-118334119D01*
X188994750Y-118271916D01*
X189086687Y-118199159D01*
X189189535Y-118109086D01*
X189299717Y-118005245D01*
X189413656Y-117891182D01*
X189527775Y-117770445D01*
X189638498Y-117646580D01*
X189709006Y-117563602D01*
X189778651Y-117478581D01*
X189832830Y-117409149D01*
X189873332Y-117352259D01*
X189901952Y-117304866D01*
X189920479Y-117263923D01*
X189930707Y-117226383D01*
X189934426Y-117189201D01*
X189934550Y-117180150D01*
X189922535Y-117108061D01*
X189889166Y-117041780D01*
X189838458Y-116985824D01*
X189774423Y-116944715D01*
X189706938Y-116923850D01*
X189636791Y-116925301D01*
X189563311Y-116951768D01*
X189486712Y-117003113D01*
X189407208Y-117079200D01*
X189343646Y-117155208D01*
X189305870Y-117197876D01*
X189262995Y-117237095D01*
X189230809Y-117260199D01*
X189198526Y-117277431D01*
X189168633Y-117287557D01*
X189132659Y-117292249D01*
X189082132Y-117293180D01*
X189064600Y-117293000D01*
X188955923Y-117287666D01*
X188829755Y-117275021D01*
X188692571Y-117256162D01*
X188550850Y-117232184D01*
X188411067Y-117204184D01*
X188279699Y-117173257D01*
X188163223Y-117140499D01*
X188163009Y-117140433D01*
X187998382Y-117082505D01*
X187848229Y-117014814D01*
X187705211Y-116933448D01*
X187561988Y-116834498D01*
X187501396Y-116787851D01*
X187420425Y-116729202D01*
X187349298Y-116690850D01*
X187283687Y-116672014D01*
X187219266Y-116671911D01*
X187151706Y-116689759D01*
X187096100Y-116714594D01*
X187063567Y-116732169D01*
X187027020Y-116754242D01*
X186984085Y-116782497D01*
X186932391Y-116818620D01*
X186869564Y-116864293D01*
X186793234Y-116921202D01*
X186701026Y-116991029D01*
X186625998Y-117048318D01*
X186310254Y-117276961D01*
X185991483Y-117481557D01*
X185667346Y-117663447D01*
X185335506Y-117823973D01*
X185108255Y-117920021D01*
X185013884Y-117956890D01*
X184937442Y-117984380D01*
X184873743Y-118003642D01*
X184817605Y-118015831D01*
X184763841Y-118022099D01*
X184707267Y-118023598D01*
X184650235Y-118021849D01*
X184544971Y-118012485D01*
X184462496Y-117994797D01*
X184401259Y-117967723D01*
X184359709Y-117930198D01*
X184336294Y-117881160D01*
X184329463Y-117819546D01*
X184330139Y-117802450D01*
X184344972Y-117720927D01*
X184377016Y-117635642D01*
X184422198Y-117556692D01*
X184437705Y-117535754D01*
X184466610Y-117503748D01*
X184509309Y-117463792D01*
X184566751Y-117415166D01*
X184639886Y-117357150D01*
X184729662Y-117289024D01*
X184837027Y-117210067D01*
X184962932Y-117119559D01*
X185108325Y-117016781D01*
X185273650Y-116901362D01*
X185348969Y-116848361D01*
X185426464Y-116792635D01*
X185500233Y-116738512D01*
X185564376Y-116690316D01*
X185610200Y-116654621D01*
X185681812Y-116594378D01*
X185765199Y-116519628D01*
X185855520Y-116435072D01*
X185947929Y-116345412D01*
X186037585Y-116255349D01*
X186119645Y-116169585D01*
X186189265Y-116092822D01*
X186191318Y-116090469D01*
X186246418Y-116028629D01*
X186292830Y-115982261D01*
X186335164Y-115950167D01*
X186378030Y-115931146D01*
X186426040Y-115923996D01*
X186483805Y-115927517D01*
X186555934Y-115940508D01*
X186647038Y-115961769D01*
X186666853Y-115966640D01*
X186859166Y-116010585D01*
X187060055Y-116049440D01*
X187272842Y-116083688D01*
X187500853Y-116113813D01*
X187747411Y-116140302D01*
X188015841Y-116163637D01*
X188021360Y-116164068D01*
X188141654Y-116172990D01*
X188239751Y-116178917D01*
X188318716Y-116181507D01*
X188381614Y-116180418D01*
X188431509Y-116175308D01*
X188471465Y-116165836D01*
X188504547Y-116151659D01*
X188533819Y-116132436D01*
X188562345Y-116107826D01*
X188567237Y-116103181D01*
X188619679Y-116041209D01*
X188648743Y-115976348D01*
X188656385Y-115903881D01*
X188655666Y-115890071D01*
X188640031Y-115813179D01*
X188604313Y-115750574D01*
X188546877Y-115699778D01*
X188519059Y-115683080D01*
X188490585Y-115668776D01*
X188461932Y-115657940D01*
X188427937Y-115649526D01*
X188383438Y-115642490D01*
X188323271Y-115635787D01*
X188253728Y-115629373D01*
X188003734Y-115606606D01*
X187776903Y-115584149D01*
X187571010Y-115561548D01*
X187383829Y-115538350D01*
X187213134Y-115514103D01*
X187056700Y-115488353D01*
X186912302Y-115460647D01*
X186777714Y-115430531D01*
X186650711Y-115397554D01*
X186529066Y-115361261D01*
X186410555Y-115321199D01*
X186292952Y-115276916D01*
X186174032Y-115227958D01*
X186080261Y-115186833D01*
X185898767Y-115093821D01*
X185733824Y-114985630D01*
X185586929Y-114863659D01*
X185459575Y-114729310D01*
X185353258Y-114583983D01*
X185269473Y-114429080D01*
X185267966Y-114425735D01*
X185217938Y-114292088D01*
X186831303Y-114292088D01*
X186839715Y-114367413D01*
X186843853Y-114381079D01*
X186877030Y-114449869D01*
X186926367Y-114502915D01*
X186994176Y-114542004D01*
X187082770Y-114568924D01*
X187088357Y-114570100D01*
X187124547Y-114576418D01*
X187182584Y-114585104D01*
X187259653Y-114595822D01*
X187352940Y-114608237D01*
X187459630Y-114622012D01*
X187576911Y-114636813D01*
X187701967Y-114652302D01*
X187831985Y-114668144D01*
X187964151Y-114684004D01*
X188095650Y-114699545D01*
X188223668Y-114714431D01*
X188345392Y-114728327D01*
X188458006Y-114740897D01*
X188558698Y-114751804D01*
X188644653Y-114760714D01*
X188713057Y-114767290D01*
X188761096Y-114771196D01*
X188781399Y-114772166D01*
X188842898Y-114771188D01*
X188903474Y-114767412D01*
X188952497Y-114761577D01*
X188963376Y-114759532D01*
X189035551Y-114732646D01*
X189091089Y-114686573D01*
X189129860Y-114621427D01*
X189136098Y-114604632D01*
X189141076Y-114579285D01*
X190996363Y-114579285D01*
X191011522Y-114650529D01*
X191047280Y-114715596D01*
X191062281Y-114733287D01*
X191094641Y-114763067D01*
X191131313Y-114785242D01*
X191176975Y-114801218D01*
X191236302Y-114812403D01*
X191313974Y-114820206D01*
X191361326Y-114823288D01*
X191600712Y-114832687D01*
X191844031Y-114834109D01*
X192078977Y-114827538D01*
X192141181Y-114824288D01*
X192224870Y-114818465D01*
X192296792Y-114811564D01*
X192352822Y-114804074D01*
X192388835Y-114796482D01*
X192395181Y-114794231D01*
X192440340Y-114766143D01*
X192484745Y-114724501D01*
X192519438Y-114678479D01*
X192530921Y-114655198D01*
X192542136Y-114601310D01*
X192542601Y-114536671D01*
X192532891Y-114473264D01*
X192520361Y-114436051D01*
X192485940Y-114383331D01*
X192436436Y-114335647D01*
X192380752Y-114300770D01*
X192353900Y-114290709D01*
X192328954Y-114287390D01*
X192282042Y-114284580D01*
X192216493Y-114282275D01*
X192135637Y-114280468D01*
X192042800Y-114279154D01*
X191941314Y-114278327D01*
X191834506Y-114277982D01*
X191725705Y-114278113D01*
X191618240Y-114278714D01*
X191515439Y-114279780D01*
X191420633Y-114281305D01*
X191337148Y-114283284D01*
X191268315Y-114285710D01*
X191217462Y-114288578D01*
X191187918Y-114291882D01*
X191184513Y-114292696D01*
X191115978Y-114325272D01*
X191061609Y-114374857D01*
X191022693Y-114436811D01*
X191000515Y-114506500D01*
X190996363Y-114579285D01*
X189141076Y-114579285D01*
X189152384Y-114521710D01*
X189143624Y-114442849D01*
X189109738Y-114367554D01*
X189094042Y-114344757D01*
X189071221Y-114318286D01*
X189043818Y-114295733D01*
X189009177Y-114276372D01*
X188964645Y-114259475D01*
X188907567Y-114244316D01*
X188835288Y-114230169D01*
X188745155Y-114216306D01*
X188634512Y-114202002D01*
X188526704Y-114189442D01*
X188430824Y-114178577D01*
X188356858Y-114169886D01*
X188301477Y-114162716D01*
X188261352Y-114156414D01*
X188233156Y-114150328D01*
X188213560Y-114143804D01*
X188199235Y-114136189D01*
X188186853Y-114126832D01*
X188180674Y-114121574D01*
X188163328Y-114103401D01*
X188151851Y-114080541D01*
X188143999Y-114046214D01*
X188137526Y-113993641D01*
X188137183Y-113990263D01*
X188122563Y-113901650D01*
X188119447Y-113893089D01*
X189411673Y-113893089D01*
X189421071Y-113944878D01*
X189438873Y-113987885D01*
X189455778Y-114008325D01*
X189467377Y-114020896D01*
X189464863Y-114024200D01*
X189465024Y-114032054D01*
X189479544Y-114051406D01*
X189483700Y-114055950D01*
X189508614Y-114077618D01*
X189529103Y-114087621D01*
X189530363Y-114087700D01*
X189545809Y-114094008D01*
X189547200Y-114098160D01*
X189558872Y-114110496D01*
X189589794Y-114121124D01*
X189633819Y-114128876D01*
X189684802Y-114132585D01*
X189725000Y-114131947D01*
X189774388Y-114125668D01*
X189837291Y-114113012D01*
X189903323Y-114096205D01*
X189932920Y-114087369D01*
X190016918Y-114058852D01*
X190101659Y-114026597D01*
X190181788Y-113992933D01*
X190251947Y-113960187D01*
X190306781Y-113930689D01*
X190332807Y-113913502D01*
X190381023Y-113862246D01*
X190389606Y-113844051D01*
X190944324Y-113844051D01*
X190955973Y-113922389D01*
X190988292Y-113993880D01*
X191037839Y-114053254D01*
X191101172Y-114095241D01*
X191111143Y-114099511D01*
X191155262Y-114109301D01*
X191212449Y-114111689D01*
X191271542Y-114106891D01*
X191320428Y-114095466D01*
X191349597Y-114083512D01*
X191397169Y-114062228D01*
X191459997Y-114033152D01*
X191534932Y-113997818D01*
X191618828Y-113957764D01*
X191708536Y-113914526D01*
X191800909Y-113869640D01*
X191892800Y-113824641D01*
X191981061Y-113781068D01*
X192062544Y-113740454D01*
X192134101Y-113704338D01*
X192192586Y-113674255D01*
X192234850Y-113651741D01*
X192257746Y-113638333D01*
X192259242Y-113637259D01*
X192304672Y-113588397D01*
X192338136Y-113523902D01*
X192355771Y-113452213D01*
X192357528Y-113422592D01*
X192345759Y-113344338D01*
X192312914Y-113274317D01*
X192262687Y-113216256D01*
X192198771Y-113173884D01*
X192124859Y-113150930D01*
X192085428Y-113147900D01*
X192062083Y-113150127D01*
X192031674Y-113157343D01*
X191992371Y-113170350D01*
X191942347Y-113189947D01*
X191879774Y-113216937D01*
X191802822Y-113252119D01*
X191709664Y-113296296D01*
X191598472Y-113350268D01*
X191467417Y-113414836D01*
X191401400Y-113447600D01*
X191285967Y-113505615D01*
X191191580Y-113554931D01*
X191116156Y-113597352D01*
X191057616Y-113634684D01*
X191013878Y-113668730D01*
X190982861Y-113701296D01*
X190962484Y-113734188D01*
X190950667Y-113769210D01*
X190945328Y-113808166D01*
X190944324Y-113844051D01*
X190389606Y-113844051D01*
X190410608Y-113799533D01*
X190422446Y-113730159D01*
X190417422Y-113658925D01*
X190396422Y-113590629D01*
X190360329Y-113530069D01*
X190310029Y-113482044D01*
X190247654Y-113451720D01*
X190190339Y-113444182D01*
X190114951Y-113449084D01*
X190025038Y-113465533D01*
X189924148Y-113492639D01*
X189815829Y-113529510D01*
X189703627Y-113575252D01*
X189640611Y-113604320D01*
X189576675Y-113635658D01*
X189531407Y-113659776D01*
X189500283Y-113679814D01*
X189478781Y-113698910D01*
X189462378Y-113720207D01*
X189453942Y-113733907D01*
X189432228Y-113779099D01*
X189416300Y-113826709D01*
X189413091Y-113841922D01*
X189411673Y-113893089D01*
X188119447Y-113893089D01*
X188097615Y-113833116D01*
X188060477Y-113780794D01*
X188020711Y-113747989D01*
X187989568Y-113729564D01*
X187959773Y-113718983D01*
X187922364Y-113714170D01*
X187869782Y-113713050D01*
X187818347Y-113713895D01*
X187783971Y-113717911D01*
X187758332Y-113727322D01*
X187733106Y-113744348D01*
X187723271Y-113752164D01*
X187682797Y-113795304D01*
X187642330Y-113857062D01*
X187605812Y-113930963D01*
X187589989Y-113971208D01*
X187576517Y-114001937D01*
X187559029Y-114024369D01*
X187534051Y-114039252D01*
X187498105Y-114047339D01*
X187447716Y-114049377D01*
X187379408Y-114046118D01*
X187289705Y-114038311D01*
X187282299Y-114037590D01*
X187215026Y-114032068D01*
X187151752Y-114028751D01*
X187099507Y-114027892D01*
X187065318Y-114029742D01*
X187064873Y-114029807D01*
X186990442Y-114052659D01*
X186927160Y-114094621D01*
X186877735Y-114151384D01*
X186844880Y-114218642D01*
X186831303Y-114292088D01*
X185217938Y-114292088D01*
X185199702Y-114243372D01*
X185152382Y-114048630D01*
X185125920Y-113843373D01*
X185120229Y-113629464D01*
X185135222Y-113408769D01*
X185156280Y-113275272D01*
X186476232Y-113275272D01*
X186476529Y-113342079D01*
X186489635Y-113400878D01*
X186518094Y-113457267D01*
X186564453Y-113516842D01*
X186606054Y-113560585D01*
X186670768Y-113621082D01*
X186740074Y-113678930D01*
X186808223Y-113729773D01*
X186869468Y-113769258D01*
X186907063Y-113788646D01*
X186978226Y-113806390D01*
X187050893Y-113798902D01*
X187080632Y-113788606D01*
X187148014Y-113748514D01*
X187203003Y-113692239D01*
X187241670Y-113625354D01*
X187260088Y-113553434D01*
X187261080Y-113532580D01*
X187249931Y-113470739D01*
X187218661Y-113401647D01*
X187170200Y-113328720D01*
X187107477Y-113255376D01*
X187033423Y-113185031D01*
X186950968Y-113121103D01*
X186863041Y-113067008D01*
X186860877Y-113065853D01*
X186784640Y-113037918D01*
X186709277Y-113032978D01*
X186638510Y-113049009D01*
X186576058Y-113083984D01*
X186525642Y-113135878D01*
X186490984Y-113202664D01*
X186476232Y-113275272D01*
X185156280Y-113275272D01*
X185170812Y-113183150D01*
X185226914Y-112954472D01*
X185303440Y-112724599D01*
X185352727Y-112601800D01*
X185414817Y-112469268D01*
X185494148Y-112321905D01*
X185589138Y-112161936D01*
X185698208Y-111991586D01*
X185819775Y-111813080D01*
X185952260Y-111628644D01*
X186094082Y-111440503D01*
X186243660Y-111250883D01*
X186399414Y-111062007D01*
X186559761Y-110876102D01*
X186651391Y-110773661D01*
X186704358Y-110714495D01*
X186754081Y-110657587D01*
X186796866Y-110607265D01*
X186829020Y-110567859D01*
X186844456Y-110547325D01*
X186887095Y-110476589D01*
X186930167Y-110389966D01*
X186969722Y-110296588D01*
X187001816Y-110205589D01*
X187018624Y-110144350D01*
X187056730Y-109981139D01*
X187091280Y-109839216D01*
X187123377Y-109714903D01*
X187154128Y-109604519D01*
X187184636Y-109504383D01*
X187216008Y-109410817D01*
X187249347Y-109320140D01*
X187285759Y-109228672D01*
X187313159Y-109163391D01*
X187404453Y-108964609D01*
X187507213Y-108767503D01*
X187618927Y-108575933D01*
X187737081Y-108393757D01*
X187859163Y-108224835D01*
X187982661Y-108073024D01*
X188105062Y-107942183D01*
X188114003Y-107933445D01*
X188193520Y-107858325D01*
X188260059Y-107800668D01*
X188316859Y-107758387D01*
X188367161Y-107729394D01*
X188414202Y-107711604D01*
X188461223Y-107702930D01*
X188473357Y-107701941D01*
X188518464Y-107700147D01*
X188548038Y-107703738D01*
X188571806Y-107715456D01*
X188598557Y-107737215D01*
X188631213Y-107772999D01*
X188662947Y-107818967D01*
X188676250Y-107843343D01*
X188710099Y-107927040D01*
X188742306Y-108033205D01*
X188772407Y-108158932D01*
X188799939Y-108301316D01*
X188824436Y-108457451D01*
X188845436Y-108624433D01*
X188862473Y-108799356D01*
X188875084Y-108979314D01*
X188881860Y-109130487D01*
X188884479Y-109215058D01*
X188885768Y-109278761D01*
X188885438Y-109326107D01*
X188883202Y-109361606D01*
X188878771Y-109389768D01*
X188871859Y-109415105D01*
X188862178Y-109442126D01*
X188861937Y-109442758D01*
X188832065Y-109502858D01*
X188787831Y-109558590D01*
X188763916Y-109582458D01*
X188707332Y-109642976D01*
X188673029Y-109698093D01*
X188659791Y-109752048D01*
X188666400Y-109809080D01*
X188684627Y-109858600D01*
X188731943Y-109935913D01*
X188795477Y-109993938D01*
X188828311Y-110013358D01*
X188868455Y-110027109D01*
X188922934Y-110033666D01*
X188993864Y-110032941D01*
X189083365Y-110024845D01*
X189193555Y-110009290D01*
X189280500Y-109994565D01*
X189547425Y-109957340D01*
X189817414Y-109939585D01*
X190084114Y-109941503D01*
X190324536Y-109961230D01*
X190386791Y-109967421D01*
X190434540Y-109968047D01*
X190478137Y-109962742D01*
X190515036Y-109954475D01*
X190562863Y-109940785D01*
X190605064Y-109924093D01*
X190644173Y-109901987D01*
X190682724Y-109872053D01*
X190723249Y-109831878D01*
X190768283Y-109779050D01*
X190820358Y-109711154D01*
X190882009Y-109625779D01*
X190926382Y-109562680D01*
X191027023Y-109419579D01*
X191116473Y-109294485D01*
X191197260Y-109184028D01*
X191271909Y-109084836D01*
X191342946Y-108993538D01*
X191412897Y-108906763D01*
X191463799Y-108845441D01*
X191537317Y-108761083D01*
X191619002Y-108672864D01*
X191705227Y-108584283D01*
X191792362Y-108498840D01*
X191876778Y-108420035D01*
X191954846Y-108351367D01*
X192022937Y-108296337D01*
X192062890Y-108267692D01*
X192154676Y-108210778D01*
X192248535Y-108159816D01*
X192340749Y-108116276D01*
X192427600Y-108081630D01*
X192505370Y-108057346D01*
X192570341Y-108044895D01*
X192618795Y-108045748D01*
X192622194Y-108046521D01*
X192648632Y-108059009D01*
X192680352Y-108081558D01*
X192710009Y-108107870D01*
X192730255Y-108131646D01*
X192734900Y-108143152D01*
X192744194Y-108158372D01*
X192745362Y-108158916D01*
X192755239Y-108172318D01*
X192771386Y-108203936D01*
X192791413Y-108248109D01*
X192812933Y-108299173D01*
X192833557Y-108351466D01*
X192850896Y-108399326D01*
X192862327Y-108436200D01*
X192884274Y-108536979D01*
X192902717Y-108656869D01*
X192917237Y-108789765D01*
X192927420Y-108929567D01*
X192932850Y-109070172D01*
X192933109Y-109205477D01*
X192927781Y-109329382D01*
X192925340Y-109359997D01*
X192915179Y-109470809D01*
X192906192Y-109560054D01*
X192897851Y-109631508D01*
X192889629Y-109688946D01*
X192880999Y-109736146D01*
X192871435Y-109776882D01*
X192863037Y-109806433D01*
X192855877Y-109837799D01*
X192855518Y-109858151D01*
X192856125Y-109859530D01*
X192853858Y-109874344D01*
X192851352Y-109876319D01*
X192844660Y-109885446D01*
X192839666Y-109905543D01*
X192836093Y-109939835D01*
X192833663Y-109991547D01*
X192832098Y-110063904D01*
X192831580Y-110106250D01*
X192831455Y-110169592D01*
X192833238Y-110213742D01*
X192837862Y-110244890D01*
X192846260Y-110269226D01*
X192859365Y-110292937D01*
X192859830Y-110293687D01*
X192890342Y-110330526D01*
X192930198Y-110364102D01*
X192942380Y-110371842D01*
X193021096Y-110404741D01*
X193097781Y-110413408D01*
X193169986Y-110399009D01*
X193235263Y-110362709D01*
X193291163Y-110305673D01*
X193335236Y-110229065D01*
X193354523Y-110175759D01*
X193408544Y-109966355D01*
X193450183Y-109743727D01*
X193480012Y-109504350D01*
X193495306Y-109306150D01*
X193500321Y-109230764D01*
X193505748Y-109175290D01*
X193512531Y-109134245D01*
X193521618Y-109102146D01*
X193533955Y-109073512D01*
X193536255Y-109068961D01*
X193555747Y-109039286D01*
X193591710Y-108993219D01*
X193642656Y-108932328D01*
X193707093Y-108858181D01*
X193783535Y-108772346D01*
X193870491Y-108676393D01*
X193966472Y-108571888D01*
X194069990Y-108460401D01*
X194179554Y-108343500D01*
X194293676Y-108222753D01*
X194410867Y-108099728D01*
X194529637Y-107975994D01*
X194648498Y-107853119D01*
X194765959Y-107732671D01*
X194880533Y-107616219D01*
X194990730Y-107505331D01*
X195095060Y-107401576D01*
X195192035Y-107306521D01*
X195280165Y-107221735D01*
X195357961Y-107148786D01*
X195370150Y-107137585D01*
X195655483Y-106892016D01*
X195949854Y-106669598D01*
X196252565Y-106470853D01*
X196278200Y-106455344D01*
X196475820Y-106341524D01*
X196661247Y-106245804D01*
X196838693Y-106166890D01*
X197012371Y-106103491D01*
X197186493Y-106054312D01*
X197365272Y-106018062D01*
X197552919Y-105993448D01*
X197753648Y-105979179D01*
X197840300Y-105976029D01*
X198031480Y-105974796D01*
X198227346Y-105980987D01*
G36*
X199694925Y-102378051D02*
G01*
X199753968Y-102403105D01*
X199797139Y-102440305D01*
X199841564Y-102498203D01*
X199884785Y-102572370D01*
X199924346Y-102658376D01*
X199957790Y-102751791D01*
X199969123Y-102791050D01*
X199976848Y-102823208D01*
X199982723Y-102857193D01*
X199986978Y-102896940D01*
X199989841Y-102946383D01*
X199991540Y-103009456D01*
X199992305Y-103090095D01*
X199992365Y-103191100D01*
X199990780Y-103331821D01*
X199986099Y-103453721D01*
X199977572Y-103563273D01*
X199964451Y-103666945D01*
X199945986Y-103771211D01*
X199921430Y-103882539D01*
X199904294Y-103952135D01*
X199831629Y-104194817D01*
X199737645Y-104436968D01*
X199625063Y-104672845D01*
X199496604Y-104896707D01*
X199366148Y-105087904D01*
X199313208Y-105157229D01*
X199257036Y-105227490D01*
X199200460Y-105295467D01*
X199146310Y-105357937D01*
X199097412Y-105411677D01*
X199056597Y-105453468D01*
X199026690Y-105480085D01*
X199015592Y-105487242D01*
X198989707Y-105494091D01*
X198950592Y-105499312D01*
X198906623Y-105502441D01*
X198866178Y-105503010D01*
X198837632Y-105500555D01*
X198829841Y-105497572D01*
X198816152Y-105494575D01*
X198781264Y-105489207D01*
X198729210Y-105482024D01*
X198664021Y-105473581D01*
X198589729Y-105464437D01*
X198589600Y-105464421D01*
X198510443Y-105454143D01*
X198440102Y-105443540D01*
X198382861Y-105433365D01*
X198343003Y-105424366D01*
X198326075Y-105418256D01*
X198309971Y-105404333D01*
X198300958Y-105385178D01*
X198299648Y-105358087D01*
X198306653Y-105320353D01*
X198322582Y-105269272D01*
X198348049Y-105202137D01*
X198383664Y-105116243D01*
X198406167Y-105063797D01*
X198472093Y-104909959D01*
X198536890Y-104755867D01*
X198601581Y-104598917D01*
X198667184Y-104436504D01*
X198734722Y-104266027D01*
X198805215Y-104084881D01*
X198879683Y-103890464D01*
X198959148Y-103680171D01*
X199044629Y-103451399D01*
X199137149Y-103201544D01*
X199150366Y-103165700D01*
X199206933Y-103012966D01*
X199255953Y-102882441D01*
X199298207Y-102772336D01*
X199334476Y-102680863D01*
X199365541Y-102606236D01*
X199392184Y-102546667D01*
X199415185Y-102500367D01*
X199435325Y-102465550D01*
X199453387Y-102440427D01*
X199470151Y-102423211D01*
X199477212Y-102417754D01*
X199546360Y-102383172D01*
X199621004Y-102369828D01*
X199694925Y-102378051D01*
G37*
X199694925Y-102378051D02*
X199753968Y-102403105D01*
X199797139Y-102440305D01*
X199841564Y-102498203D01*
X199884785Y-102572370D01*
X199924346Y-102658376D01*
X199957790Y-102751791D01*
X199969123Y-102791050D01*
X199976848Y-102823208D01*
X199982723Y-102857193D01*
X199986978Y-102896940D01*
X199989841Y-102946383D01*
X199991540Y-103009456D01*
X199992305Y-103090095D01*
X199992365Y-103191100D01*
X199990780Y-103331821D01*
X199986099Y-103453721D01*
X199977572Y-103563273D01*
X199964451Y-103666945D01*
X199945986Y-103771211D01*
X199921430Y-103882539D01*
X199904294Y-103952135D01*
X199831629Y-104194817D01*
X199737645Y-104436968D01*
X199625063Y-104672845D01*
X199496604Y-104896707D01*
X199366148Y-105087904D01*
X199313208Y-105157229D01*
X199257036Y-105227490D01*
X199200460Y-105295467D01*
X199146310Y-105357937D01*
X199097412Y-105411677D01*
X199056597Y-105453468D01*
X199026690Y-105480085D01*
X199015592Y-105487242D01*
X198989707Y-105494091D01*
X198950592Y-105499312D01*
X198906623Y-105502441D01*
X198866178Y-105503010D01*
X198837632Y-105500555D01*
X198829841Y-105497572D01*
X198816152Y-105494575D01*
X198781264Y-105489207D01*
X198729210Y-105482024D01*
X198664021Y-105473581D01*
X198589729Y-105464437D01*
X198589600Y-105464421D01*
X198510443Y-105454143D01*
X198440102Y-105443540D01*
X198382861Y-105433365D01*
X198343003Y-105424366D01*
X198326075Y-105418256D01*
X198309971Y-105404333D01*
X198300958Y-105385178D01*
X198299648Y-105358087D01*
X198306653Y-105320353D01*
X198322582Y-105269272D01*
X198348049Y-105202137D01*
X198383664Y-105116243D01*
X198406167Y-105063797D01*
X198472093Y-104909959D01*
X198536890Y-104755867D01*
X198601581Y-104598917D01*
X198667184Y-104436504D01*
X198734722Y-104266027D01*
X198805215Y-104084881D01*
X198879683Y-103890464D01*
X198959148Y-103680171D01*
X199044629Y-103451399D01*
X199137149Y-103201544D01*
X199150366Y-103165700D01*
X199206933Y-103012966D01*
X199255953Y-102882441D01*
X199298207Y-102772336D01*
X199334476Y-102680863D01*
X199365541Y-102606236D01*
X199392184Y-102546667D01*
X199415185Y-102500367D01*
X199435325Y-102465550D01*
X199453387Y-102440427D01*
X199470151Y-102423211D01*
X199477212Y-102417754D01*
X199546360Y-102383172D01*
X199621004Y-102369828D01*
X199694925Y-102378051D01*
%TD*%
M02*
