0
SECTION
2
HEADER
9
$INSUNITS
70
4
9
$ACADVER
1
AC1014
9
$HANDSEED
5
FFFF
0
ENDSEC
0
SECTION
2
TABLES
0
TABLE
2
VPORT
5
8
100
AcDbSymbolTable
0
ENDTAB
0
TABLE
2
LTYPE
5
5
100
AcDbSymbolTable
0
LTYPE
5
14
100
AcDbSymbolTableRecord
100
AcDbLinetypeTableRecord
2
BYBLOCK
70
0
0
LTYPE
5
15
100
AcDbSymbolTableRecord
100
AcDbLinetypeTableRecord
2
BYLAYER
70
0
0
ENDTAB
0
TABLE
2
LAYER
5
2
100
AcDbSymbolTable
70
2
0
LAYER
5
50
100
AcDbSymbolTableRecord
100
AcDbLayerTableRecord
2
0
70
0
6
CONTINUOUS
0
ENDTAB
0
TABLE
2
STYLE
5
3
100
AcDbSymbolTable
70
1
0
STYLE
5
11
100
AcDbSymbolTableRecord
100
AcDbTextStyleTableRecord
2
STANDARD
70
0
0
ENDTAB
0
TABLE
2
VIEW
5
6
100
AcDbSymbolTable
70
0
0
ENDTAB
0
TABLE
2
UCS
5
7
100
AcDbSymbolTable
70
0
0
ENDTAB
0
TABLE
2
APPID
5
9
100
AcDbSymbolTable
70
2
0
APPID
5
12
100
AcDbSymbolTableRecord
100
AcDbRegAppTableRecord
2
ACAD
70
0
0
ENDTAB
0
TABLE
2
DIMSTYLE
5
A
100
AcDbSymbolTable
70
1
0
ENDTAB
0
TABLE
2
BLOCK_RECORD
5
1
100
AcDbSymbolTable
70
1
0
BLOCK_RECORD
5
1F
100
AcDbSymbolTableRecord
100
AcDbBlockTableRecord
2
*MODEL_SPACE
0
BLOCK_RECORD
5
1B
100
AcDbSymbolTableRecord
100
AcDbBlockTableRecord
2
*PAPER_SPACE
0
ENDTAB
0
ENDSEC
0
SECTION
2
BLOCKS
0
BLOCK
5
20
100
AcDbEntity
100
AcDbBlockBegin
2
*MODEL_SPACE
0
ENDBLK
5
21
100
AcDbEntity
100
AcDbBlockEnd
0
BLOCK
5
1C
100
AcDbEntity
100
AcDbBlockBegin
2
*PAPER_SPACE
0
ENDBLK
5
1D
100
AcDbEntity
100
AcDbBlockEnd
0
ENDSEC
0
SECTION
2
ENTITIES
0
LWPOLYLINE
5
100
100
AcDbEntity
8
0
100
AcDbPolyline
90
21
70
1
43
0.0
10
48.507399919960008
20
-89.655400059990015
10
210.70980000000003
20
-89.655202000000003
10
210.70980000000003
20
-83.472399999999993
10
221.54375099999999
20
-83.472399999999993
10
221.54375099999999
20
-89.655202000000003
10
383.74615000057508
20
-89.655200000002267
42
-0.41422818936415856
10
384.74579999126007
20
-90.655199930000009
10
384.74581319942001
20
-94.215277895771521
42
1.010180999890758
10
384.74582432909006
20
-97.215123991479999
10
384.74590394487279
20
-118.67445169120933
42
0.32449845793876797
10
384.74591263205008
20
-121.0159622848
10
384.74597763111484
20
-138.5355570206022
42
0.2150135510015681
10
384.74598029974004
20
-139.2548508982
10
384.74614999995021
20
-184.99520000000001
42
-0.41411107103271155
10
383.74614999250008
20
-185.99515000869999
10
310.554913
20
-185.99520000000001
10
215.87739900000003
20
-206.11952700000003
10
121.19988600000001
20
-185.99520000000001
10
48.507400999999845
20
-185.99519999959961
42
-0.41427238821945861
10
47.506799940036004
20
-184.99520012000002
10
47.50740000040026
20
-90.655202000393018
42
-0.41438994230998666
0
LWPOLYLINE
5
101
100
AcDbEntity
8
0
100
AcDbPolyline
90
2
70
1
43
0.0
10
82.729152049768388
20
-137.07851094152127
42
-30.252669485176501
10
82.482568527436371
20
-136.98605955866532
42
-11.073750446757812
0
CIRCLE
5
102
100
AcDbEntity
8
0
100
AcDbCircle
10
380.82614999999998
20
-176.99520000000004
30
0
40
0.87500000000000011
210
0
220
0
230
1
0
CIRCLE
5
103
100
AcDbEntity
8
0
100
AcDbCircle
10
375.74615
20
-176.99520000000004
30
0
40
1.9939
210
0
220
0
230
1
0
CIRCLE
5
104
100
AcDbEntity
8
0
100
AcDbCircle
10
370.66615000000007
20
-176.99520000000004
30
0
40
0.87500000000000011
210
0
220
0
230
1
0
CIRCLE
5
105
100
AcDbEntity
8
0
100
AcDbCircle
10
371.93615
20
-174.45519999999999
30
0
40
1.5000000000000002
210
0
220
0
230
1
0
CIRCLE
5
106
100
AcDbEntity
8
0
100
AcDbCircle
10
367.68165000000005
20
-175.40770000000003
30
0
40
0.14999999999999999
210
0
220
0
230
1
0
CIRCLE
5
107
100
AcDbEntity
8
0
100
AcDbCircle
10
382.56765000000001
20
-172.86770000000001
30
0
40
0.14999999999999999
210
0
220
0
230
1
0
CIRCLE
5
108
100
AcDbEntity
8
0
100
AcDbCircle
10
382.56765000000001
20
-170.96270000000001
30
0
40
0.14999999999999999
210
0
220
0
230
1
0
CIRCLE
5
109
100
AcDbEntity
8
0
100
AcDbCircle
10
378.28615000000008
20
-171.9152
30
0
40
1.5000000000000002
210
0
220
0
230
1
0
CIRCLE
5
110
100
AcDbEntity
8
0
100
AcDbCircle
10
367.68165000000005
20
-173.5027
30
0
40
0.14999999999999999
210
0
220
0
230
1
0
CIRCLE
5
111
100
AcDbEntity
8
0
100
AcDbCircle
10
363.51765
20
-172.86770000000001
30
0
40
0.14999999999999999
210
0
220
0
230
1
0
CIRCLE
5
112
100
AcDbEntity
8
0
100
AcDbCircle
10
363.51765
20
-170.96270000000001
30
0
40
0.14999999999999999
210
0
220
0
230
1
0
CIRCLE
5
113
100
AcDbEntity
8
0
100
AcDbCircle
10
361.77614999999997
20
-176.99520000000004
30
0
40
0.87500000000000011
210
0
220
0
230
1
0
CIRCLE
5
114
100
AcDbEntity
8
0
100
AcDbCircle
10
356.69614999999999
20
-176.99520000000004
30
0
40
1.9939
210
0
220
0
230
1
0
CIRCLE
5
115
100
AcDbEntity
8
0
100
AcDbCircle
10
351.61615000000006
20
-176.99520000000004
30
0
40
0.87500000000000011
210
0
220
0
230
1
0
CIRCLE
5
116
100
AcDbEntity
8
0
100
AcDbCircle
10
348.63165000000004
20
-175.40770000000003
30
0
40
0.14999999999999999
210
0
220
0
230
1
0
CIRCLE
5
117
100
AcDbEntity
8
0
100
AcDbCircle
10
352.88614999999999
20
-174.45519999999999
30
0
40
1.5000000000000002
210
0
220
0
230
1
0
CIRCLE
5
118
100
AcDbEntity
8
0
100
AcDbCircle
10
359.23615000000007
20
-171.9152
30
0
40
1.5000000000000002
210
0
220
0
230
1
0
CIRCLE
5
119
100
AcDbEntity
8
0
100
AcDbCircle
10
348.63165000000004
20
-173.5027
30
0
40
0.14999999999999999
210
0
220
0
230
1
0
CIRCLE
5
120
100
AcDbEntity
8
0
100
AcDbCircle
10
261.33678921792
20
-190.90551122610003
30
0
40
1.524
210
0
220
0
230
1
0
CIRCLE
5
121
100
AcDbEntity
8
0
100
AcDbCircle
10
237.98253710279999
20
-195.86961075610003
30
0
40
1.524
210
0
220
0
230
1
0
CIRCLE
5
122
100
AcDbEntity
8
0
100
AcDbCircle
10
243.23841018827
20
-187.61139138930002
30
0
40
0.87500000000000011
210
0
220
0
230
1
0
CIRCLE
5
123
100
AcDbEntity
8
0
100
AcDbCircle
10
253.17638981171999
20
-185.49900861059999
30
0
40
0.87500000000000011
210
0
220
0
230
1
0
CIRCLE
5
124
100
AcDbEntity
8
0
100
AcDbCircle
10
248.20740000000001
20
-186.55520000000001
30
0
40
1.9939
210
0
220
0
230
1
0
CIRCLE
5
125
100
AcDbEntity
8
0
100
AcDbCircle
10
239.98906886469999
20
-186.67909451439999
30
0
40
0.14999999999999999
210
0
220
0
230
1
0
CIRCLE
5
126
100
AcDbEntity
8
0
100
AcDbCircle
10
243.95256194652004
20
-184.86284863610001
30
0
40
1.5000000000000002
210
0
220
0
230
1
0
CIRCLE
5
127
100
AcDbEntity
8
0
100
AcDbCircle
10
239.59299709370001
20
-184.815723335
30
0
40
0.14999999999999999
210
0
220
0
230
1
0
CIRCLE
5
128
100
AcDbEntity
8
0
100
AcDbCircle
10
293.58638881171998
20
-178.43900961060001
30
0
40
0.87500000000000011
210
0
220
0
230
1
0
CIRCLE
5
129
100
AcDbEntity
8
0
100
AcDbCircle
10
288.61739899999998
20
-179.49520100000001
30
0
40
1.9939
210
0
220
0
230
1
0
CIRCLE
5
130
100
AcDbEntity
8
0
100
AcDbCircle
10
283.64840918827002
20
-180.55139238929999
30
0
40
0.87500000000000011
210
0
220
0
230
1
0
CIRCLE
5
131
100
AcDbEntity
8
0
100
AcDbCircle
10
284.36256094651998
20
-177.80284963610001
30
0
40
1.5000000000000002
210
0
220
0
230
1
0
CIRCLE
5
132
100
AcDbEntity
8
0
100
AcDbCircle
10
280.39906786469999
20
-179.61909551439999
30
0
40
0.14999999999999999
210
0
220
0
230
1
0
CIRCLE
5
133
100
AcDbEntity
8
0
100
AcDbCircle
10
280.00299609370006
20
-177.755724335
30
0
40
0.14999999999999999
210
0
220
0
230
1
0
CIRCLE
5
134
100
AcDbEntity
8
0
100
AcDbCircle
10
294.43167735455
20
-174.03962717900001
30
0
40
0.14999999999999999
210
0
220
0
230
1
0
CIRCLE
5
135
100
AcDbEntity
8
0
100
AcDbCircle
10
294.03560558354002
20
-172.17625599959999
30
0
40
0.14999999999999999
210
0
220
0
230
1
0
CIRCLE
5
136
100
AcDbEntity
8
0
100
AcDbCircle
10
290.04570251651
20
-173.99811549350002
30
0
40
1.5000000000000002
210
0
220
0
230
1
0
CIRCLE
5
137
100
AcDbEntity
8
0
100
AcDbCircle
10
254.02167835455003
20
-181.09962617900004
30
0
40
0.14999999999999999
210
0
220
0
230
1
0
CIRCLE
5
138
100
AcDbEntity
8
0
100
AcDbCircle
10
249.63570351651001
20
-181.0581144935
30
0
40
1.5000000000000002
210
0
220
0
230
1
0
CIRCLE
5
139
100
AcDbEntity
8
0
100
AcDbCircle
10
253.62560658353999
20
-179.23625499959999
30
0
40
0.14999999999999999
210
0
220
0
230
1
0
CIRCLE
5
140
100
AcDbEntity
8
0
100
AcDbCircle
10
234.81396293473
20
-180.96264132089999
30
0
40
1.9939
210
0
220
0
230
1
0
CIRCLE
5
141
100
AcDbEntity
8
0
100
AcDbCircle
10
258.16821504986001
20
-175.99854179089999
30
0
40
1.9939
210
0
220
0
230
1
0
CIRCLE
5
142
100
AcDbEntity
8
0
100
AcDbCircle
10
227.90626400000002
20
-171.38735399999999
30
0
40
1.9939
210
0
220
0
230
1
0
CIRCLE
5
143
100
AcDbEntity
8
0
100
AcDbCircle
10
222.93727418827004
20
-172.4435453893
30
0
40
0.87500000000000011
210
0
220
0
230
1
0
CIRCLE
5
144
100
AcDbEntity
8
0
100
AcDbCircle
10
219.68793286470003
20
-171.51124851439999
30
0
40
0.14999999999999999
210
0
220
0
230
1
0
CIRCLE
5
145
100
AcDbEntity
8
0
100
AcDbCircle
10
380.82614999999998
20
-157.9452
30
0
40
0.87500000000000011
210
0
220
0
230
1
0
CIRCLE
5
146
100
AcDbEntity
8
0
100
AcDbCircle
10
375.74615
20
-157.9452
30
0
40
1.9939
210
0
220
0
230
1
0
CIRCLE
5
147
100
AcDbEntity
8
0
100
AcDbCircle
10
370.66615000000007
20
-157.9452
30
0
40
0.87500000000000011
210
0
220
0
230
1
0
CIRCLE
5
148
100
AcDbEntity
8
0
100
AcDbCircle
10
354.63240000000008
20
-157.9452
30
0
40
0.87500000000000011
210
0
220
0
230
1
0
CIRCLE
5
149
100
AcDbEntity
8
0
100
AcDbCircle
10
349.55239999999998
20
-157.9452
30
0
40
1.9939
210
0
220
0
230
1
0
CIRCLE
5
150
100
AcDbEntity
8
0
100
AcDbCircle
10
344.47239999999999
20
-157.9452
30
0
40
0.87500000000000011
210
0
220
0
230
1
0
CIRCLE
5
151
100
AcDbEntity
8
0
100
AcDbCircle
10
328.43739900000003
20
-157.945201
30
0
40
0.87500000000000011
210
0
220
0
230
1
0
CIRCLE
5
152
100
AcDbEntity
8
0
100
AcDbCircle
10
323.35739899999999
20
-157.945201
30
0
40
1.9939
210
0
220
0
230
1
0
CIRCLE
5
153
100
AcDbEntity
8
0
100
AcDbCircle
10
318.277399
20
-157.945201
30
0
40
0.87500000000000011
210
0
220
0
230
1
0
CIRCLE
5
154
100
AcDbEntity
8
0
100
AcDbCircle
10
309.38740000000001
20
-157.945201
30
0
40
0.87500000000000011
210
0
220
0
230
1
0
CIRCLE
5
155
100
AcDbEntity
8
0
100
AcDbCircle
10
304.30740000000003
20
-157.945201
30
0
40
1.9939
210
0
220
0
230
1
0
CIRCLE
5
156
100
AcDbEntity
8
0
100
AcDbCircle
10
367.68165000000005
20
-156.35770000000002
30
0
40
0.14999999999999999
210
0
220
0
230
1
0
CIRCLE
5
157
100
AcDbEntity
8
0
100
AcDbCircle
10
371.93615
20
-155.40520000000001
30
0
40
1.5000000000000002
210
0
220
0
230
1
0
CIRCLE
5
158
100
AcDbEntity
8
0
100
AcDbCircle
10
367.68165000000005
20
-154.45269999999999
30
0
40
0.14999999999999999
210
0
220
0
230
1
0
CIRCLE
5
159
100
AcDbEntity
8
0
100
AcDbCircle
10
382.56765000000001
20
-153.8177
30
0
40
0.14999999999999999
210
0
220
0
230
1
0
CIRCLE
5
160
100
AcDbEntity
8
0
100
AcDbCircle
10
378.28615000000008
20
-152.86519999999999
30
0
40
1.5000000000000002
210
0
220
0
230
1
0
CIRCLE
5
161
100
AcDbEntity
8
0
100
AcDbCircle
10
382.56765000000001
20
-151.9127
30
0
40
0.14999999999999999
210
0
220
0
230
1
0
CIRCLE
5
162
100
AcDbEntity
8
0
100
AcDbCircle
10
345.74239999999998
20
-155.40520000000001
30
0
40
1.5000000000000002
210
0
220
0
230
1
0
CIRCLE
5
163
100
AcDbEntity
8
0
100
AcDbCircle
10
356.37390000000005
20
-153.8177
30
0
40
0.14999999999999999
210
0
220
0
230
1
0
CIRCLE
5
164
100
AcDbEntity
8
0
100
AcDbCircle
10
356.37390000000005
20
-151.9127
30
0
40
0.14999999999999999
210
0
220
0
230
1
0
CIRCLE
5
165
100
AcDbEntity
8
0
100
AcDbCircle
10
352.0924
20
-152.86519999999999
30
0
40
1.5000000000000002
210
0
220
0
230
1
0
CIRCLE
5
166
100
AcDbEntity
8
0
100
AcDbCircle
10
371.60539999999997
20
-145.880201
30
0
40
1.524
210
0
220
0
230
1
0
CIRCLE
5
167
100
AcDbEntity
8
0
100
AcDbCircle
10
347.7294
20
-145.880201
30
0
40
1.524
210
0
220
0
230
1
0
CIRCLE
5
168
100
AcDbEntity
8
0
100
AcDbCircle
10
341.48790000000008
20
-156.35770000000002
30
0
40
0.14999999999999999
210
0
220
0
230
1
0
CIRCLE
5
169
100
AcDbEntity
8
0
100
AcDbCircle
10
341.48790000000008
20
-154.45269999999999
30
0
40
0.14999999999999999
210
0
220
0
230
1
0
CIRCLE
5
170
100
AcDbEntity
8
0
100
AcDbCircle
10
330.178899
20
-153.817701
30
0
40
0.14999999999999999
210
0
220
0
230
1
0
CIRCLE
5
171
100
AcDbEntity
8
0
100
AcDbCircle
10
325.89739900000006
20
-152.86520100000001
30
0
40
1.5000000000000002
210
0
220
0
230
1
0
CIRCLE
5
172
100
AcDbEntity
8
0
100
AcDbCircle
10
330.178899
20
-151.912701
30
0
40
0.14999999999999999
210
0
220
0
230
1
0
CIRCLE
5
173
100
AcDbEntity
8
0
100
AcDbCircle
10
315.29289899999998
20
-156.35770099999999
30
0
40
0.14999999999999999
210
0
220
0
230
1
0
CIRCLE
5
174
100
AcDbEntity
8
0
100
AcDbCircle
10
319.54739899999998
20
-155.40520100000003
30
0
40
1.5000000000000002
210
0
220
0
230
1
0
CIRCLE
5
175
100
AcDbEntity
8
0
100
AcDbCircle
10
315.29289899999998
20
-154.45270099999999
30
0
40
0.14999999999999999
210
0
220
0
230
1
0
CIRCLE
5
176
100
AcDbEntity
8
0
100
AcDbCircle
10
311.12889999999999
20
-153.817701
30
0
40
0.14999999999999999
210
0
220
0
230
1
0
CIRCLE
5
177
100
AcDbEntity
8
0
100
AcDbCircle
10
306.84739999999999
20
-152.86520100000001
30
0
40
1.5000000000000002
210
0
220
0
230
1
0
CIRCLE
5
178
100
AcDbEntity
8
0
100
AcDbCircle
10
311.12889999999999
20
-151.912701
30
0
40
0.14999999999999999
210
0
220
0
230
1
0
CIRCLE
5
179
100
AcDbEntity
8
0
100
AcDbCircle
10
260.20469818827002
20
-164.5221093893
30
0
40
0.87500000000000011
210
0
220
0
230
1
0
CIRCLE
5
180
100
AcDbEntity
8
0
100
AcDbCircle
10
299.22739999999999
20
-157.945201
30
0
40
0.87500000000000011
210
0
220
0
230
1
0
CIRCLE
5
181
100
AcDbEntity
8
0
100
AcDbCircle
10
283.80739899999998
20
-159.5052
30
0
40
1.9939
210
0
220
0
230
1
0
CIRCLE
5
182
100
AcDbEntity
8
0
100
AcDbCircle
10
288.77638881171998
20
-158.4490086106
30
0
40
0.87500000000000011
210
0
220
0
230
1
0
CIRCLE
5
183
100
AcDbEntity
8
0
100
AcDbCircle
10
270.14267781171998
20
-162.40972661059999
30
0
40
0.87500000000000011
210
0
220
0
230
1
0
CIRCLE
5
184
100
AcDbEntity
8
0
100
AcDbCircle
10
265.17368800000003
20
-163.46591799999999
30
0
40
1.9939
210
0
220
0
230
1
0
CIRCLE
5
185
100
AcDbEntity
8
0
100
AcDbCircle
10
260.91884994652003
20
-161.77356663610001
30
0
40
1.5000000000000002
210
0
220
0
230
1
0
CIRCLE
5
186
100
AcDbEntity
8
0
100
AcDbCircle
10
278.83840918827002
20
-160.56139138930004
30
0
40
0.87500000000000011
210
0
220
0
230
1
0
CIRCLE
5
187
100
AcDbEntity
8
0
100
AcDbCircle
10
275.58906786469998
20
-159.62909451440001
30
0
40
0.14999999999999999
210
0
220
0
230
1
0
CIRCLE
5
188
100
AcDbEntity
8
0
100
AcDbCircle
10
279.55256094651998
20
-157.8128486361
30
0
40
1.5000000000000002
210
0
220
0
230
1
0
CIRCLE
5
189
100
AcDbEntity
8
0
100
AcDbCircle
10
275.1929960937
20
-157.76572333499999
30
0
40
0.14999999999999999
210
0
220
0
230
1
0
CIRCLE
5
190
100
AcDbEntity
8
0
100
AcDbCircle
10
270.98796635455005
20
-158.01034417899999
30
0
40
0.14999999999999999
210
0
220
0
230
1
0
CIRCLE
5
191
100
AcDbEntity
8
0
100
AcDbCircle
10
266.60199151651
20
-157.9688324935
30
0
40
1.5000000000000002
210
0
220
0
230
1
0
CIRCLE
5
192
100
AcDbEntity
8
0
100
AcDbCircle
10
241.57098618827004
20
-168.48282738930004
30
0
40
0.87500000000000011
210
0
220
0
230
1
0
CIRCLE
5
193
100
AcDbEntity
8
0
100
AcDbCircle
10
251.50896581172003
20
-166.3704446106
30
0
40
0.87500000000000011
210
0
220
0
230
1
0
CIRCLE
5
194
100
AcDbEntity
8
0
100
AcDbCircle
10
246.539976
20
-167.426636
30
0
40
1.9939
210
0
220
0
230
1
0
CIRCLE
5
195
100
AcDbEntity
8
0
100
AcDbCircle
10
242.28513794652002
20
-165.7342846361
30
0
40
1.5000000000000002
210
0
220
0
230
1
0
CIRCLE
5
196
100
AcDbEntity
8
0
100
AcDbCircle
10
232.87525381172003
20
-170.33116261059999
30
0
40
0.87500000000000011
210
0
220
0
230
1
0
CIRCLE
5
197
100
AcDbEntity
8
0
100
AcDbCircle
10
238.32164486470003
20
-167.55053051440001
30
0
40
0.14999999999999999
210
0
220
0
230
1
0
CIRCLE
5
198
100
AcDbEntity
8
0
100
AcDbCircle
10
223.65142594651999
20
-169.69500263610001
30
0
40
1.5000000000000002
210
0
220
0
230
1
0
CIRCLE
5
199
100
AcDbEntity
8
0
100
AcDbCircle
10
219.29186109369999
20
-169.647877335
30
0
40
0.14999999999999999
210
0
220
0
230
1
0
CIRCLE
5
200
100
AcDbEntity
8
0
100
AcDbCircle
10
233.72054235454999
20
-165.93178017899999
30
0
40
0.14999999999999999
210
0
220
0
230
1
0
CIRCLE
5
201
100
AcDbEntity
8
0
100
AcDbCircle
10
229.33456751650999
20
-165.89026849350003
30
0
40
1.5000000000000002
210
0
220
0
230
1
0
CIRCLE
5
202
100
AcDbEntity
8
0
100
AcDbCircle
10
237.9255730937
20
-165.68715933499999
30
0
40
0.14999999999999999
210
0
220
0
230
1
0
CIRCLE
5
203
100
AcDbEntity
8
0
100
AcDbCircle
10
256.95535686469998
20
-163.58981251439999
30
0
40
0.14999999999999999
210
0
220
0
230
1
0
CIRCLE
5
204
100
AcDbEntity
8
0
100
AcDbCircle
10
256.5592850937
20
-161.726441335
30
0
40
0.14999999999999999
210
0
220
0
230
1
0
CIRCLE
5
205
100
AcDbEntity
8
0
100
AcDbCircle
10
252.35425435454999
20
-161.971062179
30
0
40
0.14999999999999999
210
0
220
0
230
1
0
CIRCLE
5
206
100
AcDbEntity
8
0
100
AcDbCircle
10
247.96827951650999
20
-161.92955049350002
30
0
40
1.5000000000000002
210
0
220
0
230
1
0
CIRCLE
5
207
100
AcDbEntity
8
0
100
AcDbCircle
10
251.95818258354001
20
-160.10769099960001
30
0
40
0.14999999999999999
210
0
220
0
230
1
0
CIRCLE
5
208
100
AcDbEntity
8
0
100
AcDbCircle
10
233.32447058354003
20
-164.0684089996
30
0
40
0.14999999999999999
210
0
220
0
230
1
0
CIRCLE
5
209
100
AcDbEntity
8
0
100
AcDbCircle
10
296.24290000000002
20
-156.35770099999999
30
0
40
0.14999999999999999
210
0
220
0
230
1
0
CIRCLE
5
210
100
AcDbEntity
8
0
100
AcDbCircle
10
300.49740000000003
20
-155.40520100000003
30
0
40
1.5000000000000002
210
0
220
0
230
1
0
CIRCLE
5
211
100
AcDbEntity
8
0
100
AcDbCircle
10
296.24290000000002
20
-154.45270099999999
30
0
40
0.14999999999999999
210
0
220
0
230
1
0
CIRCLE
5
212
100
AcDbEntity
8
0
100
AcDbCircle
10
289.62167735455
20
-154.049626179
30
0
40
0.14999999999999999
210
0
220
0
230
1
0
CIRCLE
5
213
100
AcDbEntity
8
0
100
AcDbCircle
10
285.23570251651
20
-154.00811449349999
30
0
40
1.5000000000000002
210
0
220
0
230
1
0
CIRCLE
5
214
100
AcDbEntity
8
0
100
AcDbCircle
10
289.22560558354002
20
-152.18625499960001
30
0
40
0.14999999999999999
210
0
220
0
230
1
0
CIRCLE
5
215
100
AcDbEntity
8
0
100
AcDbCircle
10
270.59189458354001
20
-156.1469729996
30
0
40
0.14999999999999999
210
0
220
0
230
1
0
CIRCLE
5
216
100
AcDbEntity
8
0
100
AcDbCircle
10
228.29727418827002
20
-151.83354538930001
30
0
40
0.87500000000000011
210
0
220
0
230
1
0
CIRCLE
5
217
100
AcDbEntity
8
0
100
AcDbCircle
10
246.93098618827003
20
-147.8728273893
30
0
40
0.87500000000000011
210
0
220
0
230
1
0
CIRCLE
5
218
100
AcDbEntity
8
0
100
AcDbCircle
10
251.89997600000001
20
-146.81663600000002
30
0
40
1.9939
210
0
220
0
230
1
0
CIRCLE
5
219
100
AcDbEntity
8
0
100
AcDbCircle
10
256.86896581171999
20
-145.76044461060002
30
0
40
0.87500000000000011
210
0
220
0
230
1
0
CIRCLE
5
220
100
AcDbEntity
8
0
100
AcDbCircle
10
243.68164486469999
20
-146.9405305144
30
0
40
0.14999999999999999
210
0
220
0
230
1
0
CIRCLE
5
221
100
AcDbEntity
8
0
100
AcDbCircle
10
247.64513794652004
20
-145.12428463610001
30
0
40
1.5000000000000002
210
0
220
0
230
1
0
CIRCLE
5
222
100
AcDbEntity
8
0
100
AcDbCircle
10
239.08054235455
20
-145.32178017900003
30
0
40
0.14999999999999999
210
0
220
0
230
1
0
CIRCLE
5
223
100
AcDbEntity
8
0
100
AcDbCircle
10
243.28557309370001
20
-145.07715933500003
30
0
40
0.14999999999999999
210
0
220
0
230
1
0
CIRCLE
5
224
100
AcDbEntity
8
0
100
AcDbCircle
10
238.23525381172004
20
-149.7211626106
30
0
40
0.87500000000000011
210
0
220
0
230
1
0
CIRCLE
5
225
100
AcDbEntity
8
0
100
AcDbCircle
10
233.26626400000004
20
-150.777354
30
0
40
1.9939
210
0
220
0
230
1
0
CIRCLE
5
226
100
AcDbEntity
8
0
100
AcDbCircle
10
229.01142594652001
20
-149.0850026361
30
0
40
1.5000000000000002
210
0
220
0
230
1
0
CIRCLE
5
227
100
AcDbEntity
8
0
100
AcDbCircle
10
225.04793286470002
20
-150.90124851440004
30
0
40
0.14999999999999999
210
0
220
0
230
1
0
CIRCLE
5
228
100
AcDbEntity
8
0
100
AcDbCircle
10
224.65186109370001
20
-149.03787733499999
30
0
40
0.14999999999999999
210
0
220
0
230
1
0
CIRCLE
5
229
100
AcDbEntity
8
0
100
AcDbCircle
10
234.69456751651001
20
-145.28026849349999
30
0
40
1.5000000000000002
210
0
220
0
230
1
0
CIRCLE
5
230
100
AcDbEntity
8
0
100
AcDbCircle
10
202.41140981172003
20
-192.51932738930003
30
0
40
0.87500000000000011
210
0
220
0
230
1
0
CIRCLE
5
231
100
AcDbEntity
8
0
100
AcDbCircle
10
177.37082089718999
20
-194.33783575609999
30
0
40
1.524
210
0
220
0
230
1
0
CIRCLE
5
232
100
AcDbEntity
8
0
100
AcDbCircle
10
197.44242
20
-191.46313599999999
30
0
40
1.9939
210
0
220
0
230
1
0
CIRCLE
5
233
100
AcDbEntity
8
0
100
AcDbCircle
10
204.97300936225002
20
-188.84410137680004
30
0
40
0.14999999999999999
210
0
220
0
230
1
0
CIRCLE
5
234
100
AcDbEntity
8
0
100
AcDbCircle
10
205.36908113326004
20
-186.98073019740002
30
0
40
0.14999999999999999
210
0
220
0
230
1
0
CIRCLE
5
235
100
AcDbEntity
8
0
100
AcDbCircle
10
200.98310629521001
20
-187.0222418829
30
0
40
1.5000000000000002
210
0
220
0
230
1
0
CIRCLE
5
236
100
AcDbEntity
8
0
100
AcDbCircle
10
192.47343018826999
20
-190.40694461059999
30
0
40
0.87500000000000011
210
0
220
0
230
1
0
CIRCLE
5
237
100
AcDbEntity
8
0
100
AcDbCircle
10
194.24377333588001
20
-188.18649755210001
30
0
40
1.5000000000000002
210
0
220
0
230
1
0
CIRCLE
5
238
100
AcDbEntity
8
0
100
AcDbCircle
10
189.88420848305
20
-188.23362285319999
30
0
40
0.14999999999999999
210
0
220
0
230
1
0
CIRCLE
5
239
100
AcDbEntity
8
0
100
AcDbCircle
10
190.28028025405999
20
-186.3702516738
30
0
40
0.14999999999999999
210
0
220
0
230
1
0
CIRCLE
5
240
100
AcDbEntity
8
0
100
AcDbCircle
10
172.11494781172001
20
-186.07961638930004
30
0
40
0.87500000000000011
210
0
220
0
230
1
0
CIRCLE
5
241
100
AcDbEntity
8
0
100
AcDbCircle
10
167.14595800000001
20
-185.023425
30
0
40
1.9939
210
0
220
0
230
1
0
CIRCLE
5
242
100
AcDbEntity
8
0
100
AcDbCircle
10
154.01656878207001
20
-189.37373622609999
30
0
40
1.524
210
0
220
0
230
1
0
CIRCLE
5
243
100
AcDbEntity
8
0
100
AcDbCircle
10
180.53939506526004
20
-179.43086632090001
30
0
40
1.9939
210
0
220
0
230
1
0
CIRCLE
5
244
100
AcDbEntity
8
0
100
AcDbCircle
10
199.58752481171999
20
-172.4435453893
30
0
40
0.87500000000000011
210
0
220
0
230
1
0
CIRCLE
5
245
100
AcDbEntity
8
0
100
AcDbCircle
10
194.61853500000004
20
-171.38735399999999
30
0
40
1.9939
210
0
220
0
230
1
0
CIRCLE
5
246
100
AcDbEntity
8
0
100
AcDbCircle
10
174.67654736225001
20
-182.40439037680002
30
0
40
0.14999999999999999
210
0
220
0
230
1
0
CIRCLE
5
247
100
AcDbEntity
8
0
100
AcDbCircle
10
162.17696818827
20
-183.9672336106
30
0
40
0.87500000000000011
210
0
220
0
230
1
0
CIRCLE
5
248
100
AcDbEntity
8
0
100
AcDbCircle
10
163.94731133587999
20
-181.74678655209999
30
0
40
1.5000000000000002
210
0
220
0
230
1
0
CIRCLE
5
249
100
AcDbEntity
8
0
100
AcDbCircle
10
159.58774648305001
20
-181.7939118532
30
0
40
0.14999999999999999
210
0
220
0
230
1
0
CIRCLE
5
250
100
AcDbEntity
8
0
100
AcDbCircle
10
175.07261913326002
20
-180.54101919740003
30
0
40
0.14999999999999999
210
0
220
0
230
1
0
CIRCLE
5
251
100
AcDbEntity
8
0
100
AcDbCircle
10
170.68664429520999
20
-180.58253088289999
30
0
40
1.5000000000000002
210
0
220
0
230
1
0
CIRCLE
5
252
100
AcDbEntity
8
0
100
AcDbCircle
10
159.98381825406
20
-179.93054067380001
30
0
40
0.14999999999999999
210
0
220
0
230
1
0
CIRCLE
5
253
100
AcDbEntity
8
0
100
AcDbCircle
10
138.87638981172
20
-180.55139238929999
30
0
40
0.87500000000000011
210
0
220
0
230
1
0
CIRCLE
5
254
100
AcDbEntity
8
0
100
AcDbCircle
10
157.18514295014
20
-174.46676679090001
30
0
40
1.9939
210
0
220
0
230
1
0
CIRCLE
5
255
100
AcDbEntity
8
0
100
AcDbCircle
10
141.43798936224999
20
-176.87616637680003
30
0
40
0.14999999999999999
210
0
220
0
230
1
0
CIRCLE
5
256
100
AcDbEntity
8
0
100
AcDbCircle
10
141.83406113326001
20
-175.01279519740001
30
0
40
0.14999999999999999
210
0
220
0
230
1
0
CIRCLE
5
257
100
AcDbEntity
8
0
100
AcDbCircle
10
137.44808629521
20
-175.05430688290002
30
0
40
1.5000000000000002
210
0
220
0
230
1
0
CIRCLE
5
258
100
AcDbEntity
8
0
100
AcDbCircle
10
133.9074
20
-179.49520100000001
30
0
40
1.9939
210
0
220
0
230
1
0
CIRCLE
5
259
100
AcDbEntity
8
0
100
AcDbCircle
10
128.93841018827001
20
-178.43900961060001
30
0
40
0.87500000000000011
210
0
220
0
230
1
0
CIRCLE
5
260
100
AcDbEntity
8
0
100
AcDbCircle
10
130.70875333588
20
-176.21856255210002
30
0
40
1.5000000000000002
210
0
220
0
230
1
0
CIRCLE
5
261
100
AcDbEntity
8
0
100
AcDbCircle
10
126.34918848305
20
-176.26568785320001
30
0
40
0.14999999999999999
210
0
220
0
230
1
0
CIRCLE
5
262
100
AcDbEntity
8
0
100
AcDbCircle
10
126.74526025406001
20
-174.40231667380002
30
0
40
0.14999999999999999
210
0
220
0
230
1
0
CIRCLE
5
263
100
AcDbEntity
8
0
100
AcDbCircle
10
85.207400000000021
20
-176.99520100000001
30
0
40
0.87500000000000011
210
0
220
0
230
1
0
CIRCLE
5
264
100
AcDbEntity
8
0
100
AcDbCircle
10
80.127399999999994
20
-176.99520100000001
30
0
40
1.9939
210
0
220
0
230
1
0
CIRCLE
5
265
100
AcDbEntity
8
0
100
AcDbCircle
10
75.047399999999996
20
-176.99520100000001
30
0
40
0.87500000000000011
210
0
220
0
230
1
0
CIRCLE
5
266
100
AcDbEntity
8
0
100
AcDbCircle
10
76.317400000000006
20
-174.45520099999999
30
0
40
1.5000000000000002
210
0
220
0
230
1
0
CIRCLE
5
267
100
AcDbEntity
8
0
100
AcDbCircle
10
86.948899999999995
20
-172.86770100000001
30
0
40
0.14999999999999999
210
0
220
0
230
1
0
CIRCLE
5
268
100
AcDbEntity
8
0
100
AcDbCircle
10
86.948899999999995
20
-170.96270100000001
30
0
40
0.14999999999999999
210
0
220
0
230
1
0
CIRCLE
5
269
100
AcDbEntity
8
0
100
AcDbCircle
10
82.667400000000001
20
-171.91520100000002
30
0
40
1.5000000000000002
210
0
220
0
230
1
0
CIRCLE
5
270
100
AcDbEntity
8
0
100
AcDbCircle
10
72.062899999999999
20
-175.407701
30
0
40
0.14999999999999999
210
0
220
0
230
1
0
CIRCLE
5
271
100
AcDbEntity
8
0
100
AcDbCircle
10
72.062899999999999
20
-173.502701
30
0
40
0.14999999999999999
210
0
220
0
230
1
0
CIRCLE
5
272
100
AcDbEntity
8
0
100
AcDbCircle
10
202.14912436225003
20
-168.76831937680004
30
0
40
0.14999999999999999
210
0
220
0
230
1
0
CIRCLE
5
273
100
AcDbEntity
8
0
100
AcDbCircle
10
202.54519613325999
20
-166.90494819739999
30
0
40
0.14999999999999999
210
0
220
0
230
1
0
CIRCLE
5
274
100
AcDbEntity
8
0
100
AcDbCircle
10
198.15922129520999
20
-166.94645988290003
30
0
40
1.5000000000000002
210
0
220
0
230
1
0
CIRCLE
5
275
100
AcDbEntity
8
0
100
AcDbCircle
10
189.64954518827
20
-170.33116261059999
30
0
40
0.87500000000000011
210
0
220
0
230
1
0
CIRCLE
5
276
100
AcDbEntity
8
0
100
AcDbCircle
10
191.41988833587999
20
-168.11071555210003
30
0
40
1.5000000000000002
210
0
220
0
230
1
0
CIRCLE
5
277
100
AcDbEntity
8
0
100
AcDbCircle
10
187.06032348305001
20
-168.15784085320001
30
0
40
0.14999999999999999
210
0
220
0
230
1
0
CIRCLE
5
278
100
AcDbEntity
8
0
100
AcDbCircle
10
180.95381281172001
20
-168.48282738930004
30
0
40
0.87500000000000011
210
0
220
0
230
1
0
CIRCLE
5
279
100
AcDbEntity
8
0
100
AcDbCircle
10
187.45639525406003
20
-166.29446967380002
30
0
40
0.14999999999999999
210
0
220
0
230
1
0
CIRCLE
5
280
100
AcDbEntity
8
0
100
AcDbCircle
10
183.51541236225
20
-164.80760137679999
30
0
40
0.14999999999999999
210
0
220
0
230
1
0
CIRCLE
5
281
100
AcDbEntity
8
0
100
AcDbCircle
10
183.91148413325999
20
-162.94423019740003
30
0
40
0.14999999999999999
210
0
220
0
230
1
0
CIRCLE
5
282
100
AcDbEntity
8
0
100
AcDbCircle
10
179.52550929520999
20
-162.98574188290002
30
0
40
1.5000000000000002
210
0
220
0
230
1
0
CIRCLE
5
283
100
AcDbEntity
8
0
100
AcDbCircle
10
175.98482300000001
20
-167.426636
30
0
40
1.9939
210
0
220
0
230
1
0
CIRCLE
5
284
100
AcDbEntity
8
0
100
AcDbCircle
10
171.01583318826999
20
-166.3704446106
30
0
40
0.87500000000000011
210
0
220
0
230
1
0
CIRCLE
5
285
100
AcDbEntity
8
0
100
AcDbCircle
10
162.32010081172004
20
-164.5221093893
30
0
40
0.87500000000000011
210
0
220
0
230
1
0
CIRCLE
5
286
100
AcDbEntity
8
0
100
AcDbCircle
10
172.78617633587999
20
-164.14999755210002
30
0
40
1.5000000000000002
210
0
220
0
230
1
0
CIRCLE
5
287
100
AcDbEntity
8
0
100
AcDbCircle
10
168.42661148305001
20
-164.1971228532
30
0
40
0.14999999999999999
210
0
220
0
230
1
0
CIRCLE
5
288
100
AcDbEntity
8
0
100
AcDbCircle
10
168.82268325406
20
-162.33375167380001
30
0
40
0.14999999999999999
210
0
220
0
230
1
0
CIRCLE
5
289
100
AcDbEntity
8
0
100
AcDbCircle
10
157.351111
20
-163.46591799999999
30
0
40
1.9939
210
0
220
0
230
1
0
CIRCLE
5
290
100
AcDbEntity
8
0
100
AcDbCircle
10
164.88170036225
20
-160.84688337680004
30
0
40
0.14999999999999999
210
0
220
0
230
1
0
CIRCLE
5
291
100
AcDbEntity
8
0
100
AcDbCircle
10
165.27777213326002
20
-158.98351219739999
30
0
40
0.14999999999999999
210
0
220
0
230
1
0
CIRCLE
5
292
100
AcDbEntity
8
0
100
AcDbCircle
10
160.89179729521004
20
-159.0250238829
30
0
40
1.5000000000000002
210
0
220
0
230
1
0
CIRCLE
5
293
100
AcDbEntity
8
0
100
AcDbCircle
10
152.38212118826999
20
-162.40972661059999
30
0
40
0.87500000000000011
210
0
220
0
230
1
0
CIRCLE
5
294
100
AcDbEntity
8
0
100
AcDbCircle
10
154.15246433588004
20
-160.1892795521
30
0
40
1.5000000000000002
210
0
220
0
230
1
0
CIRCLE
5
295
100
AcDbEntity
8
0
100
AcDbCircle
10
149.79289948305001
20
-160.23640485320001
30
0
40
0.14999999999999999
210
0
220
0
230
1
0
CIRCLE
5
296
100
AcDbEntity
8
0
100
AcDbCircle
10
150.18897125405999
20
-158.37303367379999
30
0
40
0.14999999999999999
210
0
220
0
230
1
0
CIRCLE
5
297
100
AcDbEntity
8
0
100
AcDbCircle
10
143.68638881172001
20
-160.56139238930001
30
0
40
0.87500000000000011
210
0
220
0
230
1
0
CIRCLE
5
298
100
AcDbEntity
8
0
100
AcDbCircle
10
138.717399
20
-159.505201
30
0
40
1.9939
210
0
220
0
230
1
0
CIRCLE
5
299
100
AcDbEntity
8
0
100
AcDbCircle
10
194.23752481172002
20
-151.83354538930001
30
0
40
0.87500000000000011
210
0
220
0
230
1
0
CIRCLE
5
300
100
AcDbEntity
8
0
100
AcDbCircle
10
189.26853500000004
20
-150.777354
30
0
40
1.9939
210
0
220
0
230
1
0
CIRCLE
5
301
100
AcDbEntity
8
0
100
AcDbCircle
10
196.79912436225004
20
-148.15831937679999
30
0
40
0.14999999999999999
210
0
220
0
230
1
0
CIRCLE
5
302
100
AcDbEntity
8
0
100
AcDbCircle
10
184.29954518827
20
-149.7211626106
30
0
40
0.87500000000000011
210
0
220
0
230
1
0
CIRCLE
5
303
100
AcDbEntity
8
0
100
AcDbCircle
10
197.19519613326
20
-146.2949481974
30
0
40
0.14999999999999999
210
0
220
0
230
1
0
CIRCLE
5
304
100
AcDbEntity
8
0
100
AcDbCircle
10
192.80922129521002
20
-146.33645988289999
30
0
40
1.5000000000000002
210
0
220
0
230
1
0
CIRCLE
5
305
100
AcDbEntity
8
0
100
AcDbCircle
10
186.06988833588002
20
-147.50071555209999
30
0
40
1.5000000000000002
210
0
220
0
230
1
0
CIRCLE
5
306
100
AcDbEntity
8
0
100
AcDbCircle
10
181.71032348305002
20
-147.5478408532
30
0
40
0.14999999999999999
210
0
220
0
230
1
0
CIRCLE
5
307
100
AcDbEntity
8
0
100
AcDbCircle
10
182.10639525406003
20
-145.68446967380001
30
0
40
0.14999999999999999
210
0
220
0
230
1
0
CIRCLE
5
308
100
AcDbEntity
8
0
100
AcDbCircle
10
146.24798836225
20
-156.88616637679999
30
0
40
0.14999999999999999
210
0
220
0
230
1
0
CIRCLE
5
309
100
AcDbEntity
8
0
100
AcDbCircle
10
146.64406013326001
20
-155.0227951974
30
0
40
0.14999999999999999
210
0
220
0
230
1
0
CIRCLE
5
310
100
AcDbEntity
8
0
100
AcDbCircle
10
135.51875233588001
20
-156.22856255209999
30
0
40
1.5000000000000002
210
0
220
0
230
1
0
CIRCLE
5
311
100
AcDbEntity
8
0
100
AcDbCircle
10
142.25808529521001
20
-155.06430688290004
30
0
40
1.5000000000000002
210
0
220
0
230
1
0
CIRCLE
5
312
100
AcDbEntity
8
0
100
AcDbCircle
10
175.60381281171999
20
-147.8728273893
30
0
40
0.87500000000000011
210
0
220
0
230
1
0
CIRCLE
5
313
100
AcDbEntity
8
0
100
AcDbCircle
10
170.63482300000001
20
-146.81663600000002
30
0
40
1.9939
210
0
220
0
230
1
0
CIRCLE
5
314
100
AcDbEntity
8
0
100
AcDbCircle
10
165.66583318827
20
-145.76044461060002
30
0
40
0.87500000000000011
210
0
220
0
230
1
0
CIRCLE
5
315
100
AcDbEntity
8
0
100
AcDbCircle
10
99.205400000000012
20
-164.93020000000001
30
0
40
1.524
210
0
220
0
230
1
0
CIRCLE
5
316
100
AcDbEntity
8
0
100
AcDbCircle
10
133.74840918826999
20
-158.4490096106
30
0
40
0.87500000000000011
210
0
220
0
230
1
0
CIRCLE
5
317
100
AcDbEntity
8
0
100
AcDbCircle
10
123.29740000000001
20
-157.9452
30
0
40
0.87500000000000011
210
0
220
0
230
1
0
CIRCLE
5
318
100
AcDbEntity
8
0
100
AcDbCircle
10
118.2174
20
-157.9452
30
0
40
1.9939
210
0
220
0
230
1
0
CIRCLE
5
319
100
AcDbEntity
8
0
100
AcDbCircle
10
113.13740000000001
20
-157.9452
30
0
40
0.87500000000000011
210
0
220
0
230
1
0
CIRCLE
5
320
100
AcDbEntity
8
0
100
AcDbCircle
10
75.329400000000007
20
-164.93020000000001
30
0
40
1.524
210
0
220
0
230
1
0
CIRCLE
5
321
100
AcDbEntity
8
0
100
AcDbCircle
10
92.347400000000007
20
-157.9452
30
0
40
0.87500000000000011
210
0
220
0
230
1
0
CIRCLE
5
322
100
AcDbEntity
8
0
100
AcDbCircle
10
87.267399999999995
20
-157.9452
30
0
40
1.9939
210
0
220
0
230
1
0
CIRCLE
5
323
100
AcDbEntity
8
0
100
AcDbCircle
10
82.187399999999997
20
-157.9452
30
0
40
0.87500000000000011
210
0
220
0
230
1
0
CIRCLE
5
324
100
AcDbEntity
8
0
100
AcDbCircle
10
131.15918748305
20
-156.2756878532
30
0
40
0.14999999999999999
210
0
220
0
230
1
0
CIRCLE
5
325
100
AcDbEntity
8
0
100
AcDbCircle
10
131.55525925405999
20
-154.41231667380004
30
0
40
0.14999999999999999
210
0
220
0
230
1
0
CIRCLE
5
326
100
AcDbEntity
8
0
100
AcDbCircle
10
125.0389
20
-153.8177
30
0
40
0.14999999999999999
210
0
220
0
230
1
0
CIRCLE
5
327
100
AcDbEntity
8
0
100
AcDbCircle
10
125.0389
20
-151.9127
30
0
40
0.14999999999999999
210
0
220
0
230
1
0
CIRCLE
5
328
100
AcDbEntity
8
0
100
AcDbCircle
10
120.75740000000002
20
-152.86519999999999
30
0
40
1.5000000000000002
210
0
220
0
230
1
0
CIRCLE
5
329
100
AcDbEntity
8
0
100
AcDbCircle
10
110.1529
20
-156.35770000000002
30
0
40
0.14999999999999999
210
0
220
0
230
1
0
CIRCLE
5
330
100
AcDbEntity
8
0
100
AcDbCircle
10
114.4074
20
-155.40520000000001
30
0
40
1.5000000000000002
210
0
220
0
230
1
0
CIRCLE
5
331
100
AcDbEntity
8
0
100
AcDbCircle
10
110.1529
20
-154.45269999999999
30
0
40
0.14999999999999999
210
0
220
0
230
1
0
CIRCLE
5
332
100
AcDbEntity
8
0
100
AcDbCircle
10
94.088899999999995
20
-153.8177
30
0
40
0.14999999999999999
210
0
220
0
230
1
0
CIRCLE
5
333
100
AcDbEntity
8
0
100
AcDbCircle
10
94.088899999999995
20
-151.9127
30
0
40
0.14999999999999999
210
0
220
0
230
1
0
CIRCLE
5
334
100
AcDbEntity
8
0
100
AcDbCircle
10
99.205400000000012
20
-149.6902
30
0
40
1.9939
210
0
220
0
230
1
0
CIRCLE
5
335
100
AcDbEntity
8
0
100
AcDbCircle
10
83.457400000000007
20
-155.40520000000001
30
0
40
1.5000000000000002
210
0
220
0
230
1
0
CIRCLE
5
336
100
AcDbEntity
8
0
100
AcDbCircle
10
79.2029
20
-156.35770000000002
30
0
40
0.14999999999999999
210
0
220
0
230
1
0
CIRCLE
5
337
100
AcDbEntity
8
0
100
AcDbCircle
10
79.2029
20
-154.45269999999999
30
0
40
0.14999999999999999
210
0
220
0
230
1
0
CIRCLE
5
338
100
AcDbEntity
8
0
100
AcDbCircle
10
89.807400000000001
20
-152.86519999999999
30
0
40
1.5000000000000002
210
0
220
0
230
1
0
CIRCLE
5
339
100
AcDbEntity
8
0
100
AcDbCircle
10
75.329400000000007
20
-149.6902
30
0
40
1.9939
210
0
220
0
230
1
0
CIRCLE
5
340
100
AcDbEntity
8
0
100
AcDbCircle
10
364.74740000000003
20
-138.89520099999999
30
0
40
0.87500000000000011
210
0
220
0
230
1
0
CIRCLE
5
341
100
AcDbEntity
8
0
100
AcDbCircle
10
359.66740000000004
20
-138.89520099999999
30
0
40
1.9939
210
0
220
0
230
1
0
CIRCLE
5
342
100
AcDbEntity
8
0
100
AcDbCircle
10
354.5874
20
-138.89520099999999
30
0
40
0.87500000000000011
210
0
220
0
230
1
0
CIRCLE
5
343
100
AcDbEntity
8
0
100
AcDbCircle
10
382.55915000000005
20
-137.30770100000001
30
0
40
0.14999999999999999
210
0
220
0
230
1
0
CIRCLE
5
344
100
AcDbEntity
8
0
100
AcDbCircle
10
382.55915000000005
20
-135.40270100000001
30
0
40
0.14999999999999999
210
0
220
0
230
1
0
CIRCLE
5
345
100
AcDbEntity
8
0
100
AcDbCircle
10
366.4889
20
-134.76770099999999
30
0
40
0.14999999999999999
210
0
220
0
230
1
0
CIRCLE
5
346
100
AcDbEntity
8
0
100
AcDbCircle
10
366.4889
20
-132.86270099999999
30
0
40
0.14999999999999999
210
0
220
0
230
1
0
CIRCLE
5
347
100
AcDbEntity
8
0
100
AcDbCircle
10
355.85739999999998
20
-136.35520100000002
30
0
40
1.5000000000000002
210
0
220
0
230
1
0
CIRCLE
5
348
100
AcDbEntity
8
0
100
AcDbCircle
10
351.60289999999998
20
-137.30770100000001
30
0
40
0.14999999999999999
210
0
220
0
230
1
0
CIRCLE
5
349
100
AcDbEntity
8
0
100
AcDbCircle
10
351.60289999999998
20
-135.40270100000001
30
0
40
0.14999999999999999
210
0
220
0
230
1
0
CIRCLE
5
350
100
AcDbEntity
8
0
100
AcDbCircle
10
362.20740000000001
20
-133.815201
30
0
40
1.5000000000000002
210
0
220
0
230
1
0
CIRCLE
5
351
100
AcDbEntity
8
0
100
AcDbCircle
10
333.79739999999998
20
-138.89520099999999
30
0
40
0.87500000000000011
210
0
220
0
230
1
0
CIRCLE
5
352
100
AcDbEntity
8
0
100
AcDbCircle
10
328.7174
20
-138.89520099999999
30
0
40
1.9939
210
0
220
0
230
1
0
CIRCLE
5
353
100
AcDbEntity
8
0
100
AcDbCircle
10
323.63740000000001
20
-138.89520099999999
30
0
40
0.87500000000000011
210
0
220
0
230
1
0
CIRCLE
5
354
100
AcDbEntity
8
0
100
AcDbCircle
10
314.74739899999997
20
-138.89520099999999
30
0
40
0.87500000000000011
210
0
220
0
230
1
0
CIRCLE
5
355
100
AcDbEntity
8
0
100
AcDbCircle
10
309.66739899999999
20
-138.89520099999999
30
0
40
1.9939
210
0
220
0
230
1
0
CIRCLE
5
356
100
AcDbEntity
8
0
100
AcDbCircle
10
304.587399
20
-138.89520099999999
30
0
40
0.87500000000000011
210
0
220
0
230
1
0
CIRCLE
5
357
100
AcDbEntity
8
0
100
AcDbCircle
10
335.53890000000001
20
-134.76770099999999
30
0
40
0.14999999999999999
210
0
220
0
230
1
0
CIRCLE
5
358
100
AcDbEntity
8
0
100
AcDbCircle
10
324.90740000000005
20
-136.35520100000002
30
0
40
1.5000000000000002
210
0
220
0
230
1
0
CIRCLE
5
359
100
AcDbEntity
8
0
100
AcDbCircle
10
335.53890000000001
20
-132.86270099999999
30
0
40
0.14999999999999999
210
0
220
0
230
1
0
CIRCLE
5
360
100
AcDbEntity
8
0
100
AcDbCircle
10
331.25740000000002
20
-133.815201
30
0
40
1.5000000000000002
210
0
220
0
230
1
0
CIRCLE
5
361
100
AcDbEntity
8
0
100
AcDbCircle
10
320.65289999999999
20
-137.30770100000001
30
0
40
0.14999999999999999
210
0
220
0
230
1
0
CIRCLE
5
362
100
AcDbEntity
8
0
100
AcDbCircle
10
320.65289999999999
20
-135.40270100000001
30
0
40
0.14999999999999999
210
0
220
0
230
1
0
CIRCLE
5
363
100
AcDbEntity
8
0
100
AcDbCircle
10
316.488899
20
-134.76770099999999
30
0
40
0.14999999999999999
210
0
220
0
230
1
0
CIRCLE
5
364
100
AcDbEntity
8
0
100
AcDbCircle
10
301.60289899999998
20
-137.30770100000001
30
0
40
0.14999999999999999
210
0
220
0
230
1
0
CIRCLE
5
365
100
AcDbEntity
8
0
100
AcDbCircle
10
305.85739899999999
20
-136.35520100000002
30
0
40
1.5000000000000002
210
0
220
0
230
1
0
CIRCLE
5
366
100
AcDbEntity
8
0
100
AcDbCircle
10
301.60289899999998
20
-135.40270100000001
30
0
40
0.14999999999999999
210
0
220
0
230
1
0
CIRCLE
5
367
100
AcDbEntity
8
0
100
AcDbCircle
10
312.20739900000001
20
-133.815201
30
0
40
1.5000000000000002
210
0
220
0
230
1
0
CIRCLE
5
368
100
AcDbEntity
8
0
100
AcDbCircle
10
316.488899
20
-132.86270099999999
30
0
40
0.14999999999999999
210
0
220
0
230
1
0
CIRCLE
5
369
100
AcDbEntity
8
0
100
AcDbCircle
10
371.60539999999997
20
-130.64020099999999
30
0
40
1.9939
210
0
220
0
230
1
0
CIRCLE
5
370
100
AcDbEntity
8
0
100
AcDbCircle
10
347.7294
20
-130.64020099999999
30
0
40
1.9939
210
0
220
0
230
1
0
CIRCLE
5
371
100
AcDbEntity
8
0
100
AcDbCircle
10
381.27990000000005
20
-119.845201
30
0
40
0.87500000000000011
210
0
220
0
230
1
0
CIRCLE
5
372
100
AcDbEntity
8
0
100
AcDbCircle
10
378.29540000000003
20
-118.257701
30
0
40
0.14999999999999999
210
0
220
0
230
1
0
CIRCLE
5
373
100
AcDbEntity
8
0
100
AcDbCircle
10
367.62740000000002
20
-119.845201
30
0
40
0.87500000000000011
210
0
220
0
230
1
0
CIRCLE
5
374
100
AcDbEntity
8
0
100
AcDbCircle
10
362.54739999999998
20
-119.845201
30
0
40
1.9939
210
0
220
0
230
1
0
CIRCLE
5
375
100
AcDbEntity
8
0
100
AcDbCircle
10
357.4674
20
-119.845201
30
0
40
0.87500000000000011
210
0
220
0
230
1
0
CIRCLE
5
376
100
AcDbEntity
8
0
100
AcDbCircle
10
354.48289999999997
20
-118.257701
30
0
40
0.14999999999999999
210
0
220
0
230
1
0
CIRCLE
5
377
100
AcDbEntity
8
0
100
AcDbCircle
10
343.80739999999997
20
-119.845201
30
0
40
0.87500000000000011
210
0
220
0
230
1
0
CIRCLE
5
378
100
AcDbEntity
8
0
100
AcDbCircle
10
338.72739999999999
20
-119.845201
30
0
40
1.9939
210
0
220
0
230
1
0
CIRCLE
5
379
100
AcDbEntity
8
0
100
AcDbCircle
10
333.64740000000006
20
-119.845201
30
0
40
0.87500000000000011
210
0
220
0
230
1
0
CIRCLE
5
380
100
AcDbEntity
8
0
100
AcDbCircle
10
324.75740000000002
20
-119.84520000000002
30
0
40
0.87500000000000011
210
0
220
0
230
1
0
CIRCLE
5
381
100
AcDbEntity
8
0
100
AcDbCircle
10
330.66290000000004
20
-118.257701
30
0
40
0.14999999999999999
210
0
220
0
230
1
0
CIRCLE
5
382
100
AcDbEntity
8
0
100
AcDbCircle
10
319.67739999999998
20
-119.84520000000002
30
0
40
1.9939
210
0
220
0
230
1
0
CIRCLE
5
383
100
AcDbEntity
8
0
100
AcDbCircle
10
314.59739999999999
20
-119.84520000000002
30
0
40
0.87500000000000011
210
0
220
0
230
1
0
CIRCLE
5
384
100
AcDbEntity
8
0
100
AcDbCircle
10
311.61290000000002
20
-118.2577
30
0
40
0.14999999999999999
210
0
220
0
230
1
0
CIRCLE
5
385
100
AcDbEntity
8
0
100
AcDbCircle
10
306.12739900000003
20
-118.78520000000002
30
0
40
0.87500000000000011
210
0
220
0
230
1
0
CIRCLE
5
386
100
AcDbEntity
8
0
100
AcDbCircle
10
294.13638981171999
20
-137.83900961059999
30
0
40
0.87500000000000011
210
0
220
0
230
1
0
CIRCLE
5
387
100
AcDbEntity
8
0
100
AcDbCircle
10
284.19841018827003
20
-139.9513923893
30
0
40
0.87500000000000011
210
0
220
0
230
1
0
CIRCLE
5
388
100
AcDbEntity
8
0
100
AcDbCircle
10
289.16739999999999
20
-138.89520099999999
30
0
40
1.9939
210
0
220
0
230
1
0
CIRCLE
5
389
100
AcDbEntity
8
0
100
AcDbCircle
10
280.9490688647
20
-139.01909551439999
30
0
40
0.14999999999999999
210
0
220
0
230
1
0
CIRCLE
5
390
100
AcDbEntity
8
0
100
AcDbCircle
10
270.53368799999998
20
-142.855918
30
0
40
1.9939
210
0
220
0
230
1
0
CIRCLE
5
391
100
AcDbEntity
8
0
100
AcDbCircle
10
275.50267781171999
20
-141.7997266106
30
0
40
0.87500000000000011
210
0
220
0
230
1
0
CIRCLE
5
392
100
AcDbEntity
8
0
100
AcDbCircle
10
265.56469818826997
20
-143.91210938930001
30
0
40
0.87500000000000011
210
0
220
0
230
1
0
CIRCLE
5
393
100
AcDbEntity
8
0
100
AcDbCircle
10
262.31535686469999
20
-142.97981251440001
30
0
40
0.14999999999999999
210
0
220
0
230
1
0
CIRCLE
5
394
100
AcDbEntity
8
0
100
AcDbCircle
10
266.27884994651998
20
-141.1635666361
30
0
40
1.5000000000000002
210
0
220
0
230
1
0
CIRCLE
5
395
100
AcDbEntity
8
0
100
AcDbCircle
10
261.91928509370001
20
-141.11644133499999
30
0
40
0.14999999999999999
210
0
220
0
230
1
0
CIRCLE
5
396
100
AcDbEntity
8
0
100
AcDbCircle
10
284.91256194651999
20
-137.20284963610001
30
0
40
1.5000000000000002
210
0
220
0
230
1
0
CIRCLE
5
397
100
AcDbEntity
8
0
100
AcDbCircle
10
280.55299709370001
20
-137.155724335
30
0
40
0.14999999999999999
210
0
220
0
230
1
0
CIRCLE
5
398
100
AcDbEntity
8
0
100
AcDbCircle
10
294.98167835455001
20
-133.43962717900001
30
0
40
0.14999999999999999
210
0
220
0
230
1
0
CIRCLE
5
399
100
AcDbEntity
8
0
100
AcDbCircle
10
294.58560658354003
20
-131.57625599959999
30
0
40
0.14999999999999999
210
0
220
0
230
1
0
CIRCLE
5
400
100
AcDbEntity
8
0
100
AcDbCircle
10
290.59570351651007
20
-133.3981154935
30
0
40
1.5000000000000002
210
0
220
0
230
1
0
CIRCLE
5
401
100
AcDbEntity
8
0
100
AcDbCircle
10
276.34796635455007
20
-137.400344179
30
0
40
0.14999999999999999
210
0
220
0
230
1
0
CIRCLE
5
402
100
AcDbEntity
8
0
100
AcDbCircle
10
271.96199151651001
20
-137.35883249349999
30
0
40
1.5000000000000002
210
0
220
0
230
1
0
CIRCLE
5
403
100
AcDbEntity
8
0
100
AcDbCircle
10
275.95189458354002
20
-135.53697299960001
30
0
40
0.14999999999999999
210
0
220
0
230
1
0
CIRCLE
5
404
100
AcDbEntity
8
0
100
AcDbCircle
10
257.71425435455001
20
-141.36106217899999
30
0
40
0.14999999999999999
210
0
220
0
230
1
0
CIRCLE
5
405
100
AcDbEntity
8
0
100
AcDbCircle
10
253.32827951651001
20
-141.3195504935
30
0
40
1.5000000000000002
210
0
220
0
230
1
0
CIRCLE
5
406
100
AcDbEntity
8
0
100
AcDbCircle
10
257.31818258354002
20
-139.49769099960002
30
0
40
0.14999999999999999
210
0
220
0
230
1
0
CIRCLE
5
407
100
AcDbEntity
8
0
100
AcDbCircle
10
238.68447058354002
20
-143.45840899960001
30
0
40
0.14999999999999999
210
0
220
0
230
1
0
CIRCLE
5
408
100
AcDbEntity
8
0
100
AcDbCircle
10
229.61525381172004
20
-132.07116261060003
30
0
40
0.87500000000000011
210
0
220
0
230
1
0
CIRCLE
5
409
100
AcDbEntity
8
0
100
AcDbCircle
10
224.646264
20
-133.12735400000003
30
0
40
1.9939
210
0
220
0
230
1
0
CIRCLE
5
410
100
AcDbEntity
8
0
100
AcDbCircle
10
219.67727418826999
20
-134.18354538930001
30
0
40
0.87500000000000011
210
0
220
0
230
1
0
CIRCLE
5
411
100
AcDbEntity
8
0
100
AcDbCircle
10
220.39142594652003
20
-131.43500263610002
30
0
40
1.5000000000000002
210
0
220
0
230
1
0
CIRCLE
5
412
100
AcDbEntity
8
0
100
AcDbCircle
10
261.91368799999998
20
-125.205918
30
0
40
1.9939
210
0
220
0
230
1
0
CIRCLE
5
413
100
AcDbEntity
8
0
100
AcDbCircle
10
280.54739999999998
20
-121.24520000000001
30
0
40
1.9939
210
0
220
0
230
1
0
CIRCLE
5
414
100
AcDbEntity
8
0
100
AcDbCircle
10
301.04739899999998
20
-118.78520000000002
30
0
40
1.9939
210
0
220
0
230
1
0
CIRCLE
5
415
100
AcDbEntity
8
0
100
AcDbCircle
10
295.967399
20
-118.78520000000002
30
0
40
0.87500000000000011
210
0
220
0
230
1
0
CIRCLE
5
416
100
AcDbEntity
8
0
100
AcDbCircle
10
285.51638981171999
20
-120.18900861060001
30
0
40
0.87500000000000011
210
0
220
0
230
1
0
CIRCLE
5
417
100
AcDbEntity
8
0
100
AcDbCircle
10
275.57841018827003
20
-122.30139138929999
30
0
40
0.87500000000000011
210
0
220
0
230
1
0
CIRCLE
5
418
100
AcDbEntity
8
0
100
AcDbCircle
10
272.32906886469999
20
-121.36909451440002
30
0
40
0.14999999999999999
210
0
220
0
230
1
0
CIRCLE
5
419
100
AcDbEntity
8
0
100
AcDbCircle
10
266.88267781171999
20
-124.1497266106
30
0
40
0.87500000000000011
210
0
220
0
230
1
0
CIRCLE
5
420
100
AcDbEntity
8
0
100
AcDbCircle
10
276.29256194651998
20
-119.55284863610001
30
0
40
1.5000000000000002
210
0
220
0
230
1
0
CIRCLE
5
421
100
AcDbEntity
8
0
100
AcDbCircle
10
271.93299709370001
20
-119.505723335
30
0
40
0.14999999999999999
210
0
220
0
230
1
0
CIRCLE
5
422
100
AcDbEntity
8
0
100
AcDbCircle
10
267.72796635455001
20
-119.750344179
30
0
40
0.14999999999999999
210
0
220
0
230
1
0
CIRCLE
5
423
100
AcDbEntity
8
0
100
AcDbCircle
10
263.34199151651001
20
-119.70883249350001
30
0
40
1.5000000000000002
210
0
220
0
230
1
0
CIRCLE
5
424
100
AcDbEntity
8
0
100
AcDbCircle
10
267.33189458354002
20
-117.8869729996
30
0
40
0.14999999999999999
210
0
220
0
230
1
0
CIRCLE
5
425
100
AcDbEntity
8
0
100
AcDbCircle
10
248.24896581172001
20
-128.11044461060001
30
0
40
0.87500000000000011
210
0
220
0
230
1
0
CIRCLE
5
426
100
AcDbEntity
8
0
100
AcDbCircle
10
243.27997600000003
20
-129.16663600000001
30
0
40
1.9939
210
0
220
0
230
1
0
CIRCLE
5
427
100
AcDbEntity
8
0
100
AcDbCircle
10
256.94469818827002
20
-126.26210938930001
30
0
40
0.87500000000000011
210
0
220
0
230
1
0
CIRCLE
5
428
100
AcDbEntity
8
0
100
AcDbCircle
10
253.69535686470002
20
-125.3298125144
30
0
40
0.14999999999999999
210
0
220
0
230
1
0
CIRCLE
5
429
100
AcDbEntity
8
0
100
AcDbCircle
10
239.02513794652003
20
-127.47428463609999
30
0
40
1.5000000000000002
210
0
220
0
230
1
0
CIRCLE
5
430
100
AcDbEntity
8
0
100
AcDbCircle
10
238.31098618826999
20
-130.22282738929999
30
0
40
0.87500000000000011
210
0
220
0
230
1
0
CIRCLE
5
431
100
AcDbEntity
8
0
100
AcDbCircle
10
235.06164486470001
20
-129.29053051440002
30
0
40
0.14999999999999999
210
0
220
0
230
1
0
CIRCLE
5
432
100
AcDbEntity
8
0
100
AcDbCircle
10
234.66557309370003
20
-127.42715933500001
30
0
40
0.14999999999999999
210
0
220
0
230
1
0
CIRCLE
5
433
100
AcDbEntity
8
0
100
AcDbCircle
10
230.46054235455003
20
-127.67178017900001
30
0
40
0.14999999999999999
210
0
220
0
230
1
0
CIRCLE
5
434
100
AcDbEntity
8
0
100
AcDbCircle
10
230.06447058353999
20
-125.80840899960002
30
0
40
0.14999999999999999
210
0
220
0
230
1
0
CIRCLE
5
435
100
AcDbEntity
8
0
100
AcDbCircle
10
226.07456751651
20
-127.6302684935
30
0
40
1.5000000000000002
210
0
220
0
230
1
0
CIRCLE
5
436
100
AcDbEntity
8
0
100
AcDbCircle
10
257.65884994651998
20
-123.51356663609999
30
0
40
1.5000000000000002
210
0
220
0
230
1
0
CIRCLE
5
437
100
AcDbEntity
8
0
100
AcDbCircle
10
253.29928509370004
20
-123.466441335
30
0
40
0.14999999999999999
210
0
220
0
230
1
0
CIRCLE
5
438
100
AcDbEntity
8
0
100
AcDbCircle
10
249.09425435455003
20
-123.711062179
30
0
40
0.14999999999999999
210
0
220
0
230
1
0
CIRCLE
5
439
100
AcDbEntity
8
0
100
AcDbCircle
10
244.70827951651003
20
-123.6695504935
30
0
40
1.5000000000000002
210
0
220
0
230
1
0
CIRCLE
5
440
100
AcDbEntity
8
0
100
AcDbCircle
10
248.69818258354002
20
-121.8476909996
30
0
40
0.14999999999999999
210
0
220
0
230
1
0
CIRCLE
5
441
100
AcDbEntity
8
0
100
AcDbCircle
10
382.54989999999998
20
-117.305201
30
0
40
1.5000000000000002
210
0
220
0
230
1
0
CIRCLE
5
442
100
AcDbEntity
8
0
100
AcDbCircle
10
378.29540000000003
20
-116.352701
30
0
40
0.14999999999999999
210
0
220
0
230
1
0
CIRCLE
5
443
100
AcDbEntity
8
0
100
AcDbCircle
10
369.3689
20
-115.71770100000002
30
0
40
0.14999999999999999
210
0
220
0
230
1
0
CIRCLE
5
444
100
AcDbEntity
8
0
100
AcDbCircle
10
365.0874
20
-114.76520100000002
30
0
40
1.5000000000000002
210
0
220
0
230
1
0
CIRCLE
5
445
100
AcDbEntity
8
0
100
AcDbCircle
10
369.3689
20
-113.81270100000002
30
0
40
0.14999999999999999
210
0
220
0
230
1
0
CIRCLE
5
446
100
AcDbEntity
8
0
100
AcDbCircle
10
358.73739999999998
20
-117.305201
30
0
40
1.5000000000000002
210
0
220
0
230
1
0
CIRCLE
5
447
100
AcDbEntity
8
0
100
AcDbCircle
10
354.48289999999997
20
-116.352701
30
0
40
0.14999999999999999
210
0
220
0
230
1
0
CIRCLE
5
448
100
AcDbEntity
8
0
100
AcDbCircle
10
345.5489
20
-115.71770100000002
30
0
40
0.14999999999999999
210
0
220
0
230
1
0
CIRCLE
5
449
100
AcDbEntity
8
0
100
AcDbCircle
10
345.5489
20
-113.81270100000002
30
0
40
0.14999999999999999
210
0
220
0
230
1
0
CIRCLE
5
450
100
AcDbEntity
8
0
100
AcDbCircle
10
365.55362500000001
20
-109.05020100000002
30
0
40
1.9939
210
0
220
0
230
1
0
CIRCLE
5
451
100
AcDbEntity
8
0
100
AcDbCircle
10
334.91739999999999
20
-117.305201
30
0
40
1.5000000000000002
210
0
220
0
230
1
0
CIRCLE
5
452
100
AcDbEntity
8
0
100
AcDbCircle
10
341.26740000000007
20
-114.76520100000002
30
0
40
1.5000000000000002
210
0
220
0
230
1
0
CIRCLE
5
453
100
AcDbEntity
8
0
100
AcDbCircle
10
330.66290000000004
20
-116.352701
30
0
40
0.14999999999999999
210
0
220
0
230
1
0
CIRCLE
5
454
100
AcDbEntity
8
0
100
AcDbCircle
10
326.49889999999999
20
-115.71770000000001
30
0
40
0.14999999999999999
210
0
220
0
230
1
0
CIRCLE
5
455
100
AcDbEntity
8
0
100
AcDbCircle
10
322.21740000000005
20
-114.76520000000001
30
0
40
1.5000000000000002
210
0
220
0
230
1
0
CIRCLE
5
456
100
AcDbEntity
8
0
100
AcDbCircle
10
326.49889999999999
20
-113.81270000000001
30
0
40
0.14999999999999999
210
0
220
0
230
1
0
CIRCLE
5
457
100
AcDbEntity
8
0
100
AcDbCircle
10
315.86739999999998
20
-117.3052
30
0
40
1.5000000000000002
210
0
220
0
230
1
0
CIRCLE
5
458
100
AcDbEntity
8
0
100
AcDbCircle
10
311.61290000000002
20
-116.3527
30
0
40
0.14999999999999999
210
0
220
0
230
1
0
CIRCLE
5
459
100
AcDbEntity
8
0
100
AcDbCircle
10
307.868899
20
-114.65770000000001
30
0
40
0.14999999999999999
210
0
220
0
230
1
0
CIRCLE
5
460
100
AcDbEntity
8
0
100
AcDbCircle
10
303.587399
20
-113.7052
30
0
40
1.5000000000000002
210
0
220
0
230
1
0
CIRCLE
5
461
100
AcDbEntity
8
0
100
AcDbCircle
10
307.868899
20
-112.7527
30
0
40
0.14999999999999999
210
0
220
0
230
1
0
CIRCLE
5
462
100
AcDbEntity
8
0
100
AcDbCircle
10
341.67762500000003
20
-109.05020100000002
30
0
40
1.9939
210
0
220
0
230
1
0
CIRCLE
5
463
100
AcDbEntity
8
0
100
AcDbCircle
10
382.19062500000001
20
-100.79520100000002
30
0
40
1.9939
210
0
220
0
230
1
0
CIRCLE
5
464
100
AcDbEntity
8
0
100
AcDbCircle
10
377.11062500000003
20
-100.79520100000002
30
0
40
0.87500000000000011
210
0
220
0
230
1
0
CIRCLE
5
465
100
AcDbEntity
8
0
100
AcDbCircle
10
374.126125
20
-99.207701
30
0
40
0.14999999999999999
210
0
220
0
230
1
0
CIRCLE
5
466
100
AcDbEntity
8
0
100
AcDbCircle
10
378.38062500000001
20
-98.255201
30
0
40
1.5000000000000002
210
0
220
0
230
1
0
CIRCLE
5
467
100
AcDbEntity
8
0
100
AcDbCircle
10
358.69562500000001
20
-100.79520100000002
30
0
40
0.87500000000000011
210
0
220
0
230
1
0
CIRCLE
5
468
100
AcDbEntity
8
0
100
AcDbCircle
10
353.61562500000002
20
-100.79520100000002
30
0
40
1.9939
210
0
220
0
230
1
0
CIRCLE
5
469
100
AcDbEntity
8
0
100
AcDbCircle
10
348.53562500000004
20
-100.79520100000002
30
0
40
0.87500000000000011
210
0
220
0
230
1
0
CIRCLE
5
470
100
AcDbEntity
8
0
100
AcDbCircle
10
349.80562500000008
20
-98.255201
30
0
40
1.5000000000000002
210
0
220
0
230
1
0
CIRCLE
5
471
100
AcDbEntity
8
0
100
AcDbCircle
10
345.55112500000001
20
-99.207701
30
0
40
0.14999999999999999
210
0
220
0
230
1
0
CIRCLE
5
472
100
AcDbEntity
8
0
100
AcDbCircle
10
374.126125
20
-97.302700999999999
30
0
40
0.14999999999999999
210
0
220
0
230
1
0
CIRCLE
5
473
100
AcDbEntity
8
0
100
AcDbCircle
10
365.55362500000001
20
-93.810201000000006
30
0
40
1.524
210
0
220
0
230
1
0
CIRCLE
5
474
100
AcDbEntity
8
0
100
AcDbCircle
10
360.43712499999998
20
-96.667701000000008
30
0
40
0.14999999999999999
210
0
220
0
230
1
0
CIRCLE
5
475
100
AcDbEntity
8
0
100
AcDbCircle
10
360.43712499999998
20
-94.762701000000007
30
0
40
0.14999999999999999
210
0
220
0
230
1
0
CIRCLE
5
476
100
AcDbEntity
8
0
100
AcDbCircle
10
356.15562500000004
20
-95.715200999999993
30
0
40
1.5000000000000002
210
0
220
0
230
1
0
CIRCLE
5
477
100
AcDbEntity
8
0
100
AcDbCircle
10
345.55112500000001
20
-97.302700999999999
30
0
40
0.14999999999999999
210
0
220
0
230
1
0
CIRCLE
5
478
100
AcDbEntity
8
0
100
AcDbCircle
10
330.11739999999998
20
-100.79520100000002
30
0
40
0.87500000000000011
210
0
220
0
230
1
0
CIRCLE
5
479
100
AcDbEntity
8
0
100
AcDbCircle
10
325.03739999999999
20
-100.79520100000002
30
0
40
1.9939
210
0
220
0
230
1
0
CIRCLE
5
480
100
AcDbEntity
8
0
100
AcDbCircle
10
319.95740000000001
20
-100.79520100000002
30
0
40
0.87500000000000011
210
0
220
0
230
1
0
CIRCLE
5
481
100
AcDbEntity
8
0
100
AcDbCircle
10
316.97289999999998
20
-99.207701
30
0
40
0.14999999999999999
210
0
220
0
230
1
0
CIRCLE
5
482
100
AcDbEntity
8
0
100
AcDbCircle
10
321.22739999999999
20
-98.255201
30
0
40
1.5000000000000002
210
0
220
0
230
1
0
CIRCLE
5
483
100
AcDbEntity
8
0
100
AcDbCircle
10
311.48739999999998
20
-98.655201000000005
30
0
40
0.87500000000000011
210
0
220
0
230
1
0
CIRCLE
5
484
100
AcDbEntity
8
0
100
AcDbCircle
10
306.4074
20
-98.655201000000005
30
0
40
1.9939
210
0
220
0
230
1
0
CIRCLE
5
485
100
AcDbEntity
8
0
100
AcDbCircle
10
301.32740000000001
20
-98.655201000000005
30
0
40
0.87500000000000011
210
0
220
0
230
1
0
CIRCLE
5
486
100
AcDbEntity
8
0
100
AcDbCircle
10
331.85890000000001
20
-96.667701000000008
30
0
40
0.14999999999999999
210
0
220
0
230
1
0
CIRCLE
5
487
100
AcDbEntity
8
0
100
AcDbCircle
10
327.57740000000007
20
-95.715200999999993
30
0
40
1.5000000000000002
210
0
220
0
230
1
0
CIRCLE
5
488
100
AcDbEntity
8
0
100
AcDbCircle
10
331.85890000000001
20
-94.762701000000007
30
0
40
0.14999999999999999
210
0
220
0
230
1
0
CIRCLE
5
489
100
AcDbEntity
8
0
100
AcDbCircle
10
341.67762500000003
20
-93.810201000000006
30
0
40
1.524
210
0
220
0
230
1
0
CIRCLE
5
490
100
AcDbEntity
8
0
100
AcDbCircle
10
316.97289999999998
20
-97.302700999999999
30
0
40
0.14999999999999999
210
0
220
0
230
1
0
CIRCLE
5
491
100
AcDbEntity
8
0
100
AcDbCircle
10
302.59739999999999
20
-96.115200999999999
30
0
40
1.5000000000000002
210
0
220
0
230
1
0
CIRCLE
5
492
100
AcDbEntity
8
0
100
AcDbCircle
10
313.22890000000001
20
-94.527701000000008
30
0
40
0.14999999999999999
210
0
220
0
230
1
0
CIRCLE
5
493
100
AcDbEntity
8
0
100
AcDbCircle
10
313.22890000000001
20
-92.622701000000006
30
0
40
0.14999999999999999
210
0
220
0
230
1
0
CIRCLE
5
494
100
AcDbEntity
8
0
100
AcDbCircle
10
308.94740000000002
20
-93.575201000000007
30
0
40
1.5000000000000002
210
0
220
0
230
1
0
CIRCLE
5
495
100
AcDbEntity
8
0
100
AcDbCircle
10
297.23739899999998
20
-116.24520000000001
30
0
40
1.5000000000000002
210
0
220
0
230
1
0
CIRCLE
5
496
100
AcDbEntity
8
0
100
AcDbCircle
10
292.98289899999997
20
-117.1977
30
0
40
0.14999999999999999
210
0
220
0
230
1
0
CIRCLE
5
497
100
AcDbEntity
8
0
100
AcDbCircle
10
292.98289899999997
20
-115.2927
30
0
40
0.14999999999999999
210
0
220
0
230
1
0
CIRCLE
5
498
100
AcDbEntity
8
0
100
AcDbCircle
10
286.36167835455001
20
-115.78962617900001
30
0
40
0.14999999999999999
210
0
220
0
230
1
0
CIRCLE
5
499
100
AcDbEntity
8
0
100
AcDbCircle
10
281.97570351651001
20
-115.74811449350001
30
0
40
1.5000000000000002
210
0
220
0
230
1
0
CIRCLE
5
500
100
AcDbEntity
8
0
100
AcDbCircle
10
285.96560658354002
20
-113.92625499960002
30
0
40
0.14999999999999999
210
0
220
0
230
1
0
CIRCLE
5
501
100
AcDbEntity
8
0
100
AcDbCircle
10
267.27368799999999
20
-104.595918
30
0
40
1.9939
210
0
220
0
230
1
0
CIRCLE
5
502
100
AcDbEntity
8
0
100
AcDbCircle
10
262.30469818826998
20
-105.65210938930001
30
0
40
0.87500000000000011
210
0
220
0
230
1
0
CIRCLE
5
503
100
AcDbEntity
8
0
100
AcDbCircle
10
234.97525381171999
20
-111.46116261060001
30
0
40
0.87500000000000011
210
0
220
0
230
1
0
CIRCLE
5
504
100
AcDbEntity
8
0
100
AcDbCircle
10
230.00626400000002
20
-112.51735400000001
30
0
40
1.9939
210
0
220
0
230
1
0
CIRCLE
5
505
100
AcDbEntity
8
0
100
AcDbCircle
10
225.03727418827
20
-113.57354538929999
30
0
40
0.87500000000000011
210
0
220
0
230
1
0
CIRCLE
5
506
100
AcDbEntity
8
0
100
AcDbCircle
10
221.7879328647
20
-112.64124851440002
30
0
40
0.14999999999999999
210
0
220
0
230
1
0
CIRCLE
5
507
100
AcDbEntity
8
0
100
AcDbCircle
10
243.67098618827001
20
-109.61282738930001
30
0
40
0.87500000000000011
210
0
220
0
230
1
0
CIRCLE
5
508
100
AcDbEntity
8
0
100
AcDbCircle
10
248.63997600000002
20
-108.556636
30
0
40
1.9939
210
0
220
0
230
1
0
CIRCLE
5
509
100
AcDbEntity
8
0
100
AcDbCircle
10
240.4216448647
20
-108.6805305144
30
0
40
0.14999999999999999
210
0
220
0
230
1
0
CIRCLE
5
510
100
AcDbEntity
8
0
100
AcDbCircle
10
253.60896581172
20
-107.5004446106
30
0
40
0.87500000000000011
210
0
220
0
230
1
0
CIRCLE
5
511
100
AcDbEntity
8
0
100
AcDbCircle
10
259.0553568647
20
-104.7198125144
30
0
40
0.14999999999999999
210
0
220
0
230
1
0
CIRCLE
5
512
100
AcDbEntity
8
0
100
AcDbCircle
10
244.38513794651999
20
-106.8642846361
30
0
40
1.5000000000000002
210
0
220
0
230
1
0
CIRCLE
5
513
100
AcDbEntity
8
0
100
AcDbCircle
10
240.02557309370002
20
-106.81715933500001
30
0
40
0.14999999999999999
210
0
220
0
230
1
0
CIRCLE
5
514
100
AcDbEntity
8
0
100
AcDbCircle
10
225.75142594651999
20
-110.82500263610001
30
0
40
1.5000000000000002
210
0
220
0
230
1
0
CIRCLE
5
515
100
AcDbEntity
8
0
100
AcDbCircle
10
221.39186109370002
20
-110.77787733500001
30
0
40
0.14999999999999999
210
0
220
0
230
1
0
CIRCLE
5
516
100
AcDbEntity
8
0
100
AcDbCircle
10
235.82054235455004
20
-107.06178017900001
30
0
40
0.14999999999999999
210
0
220
0
230
1
0
CIRCLE
5
517
100
AcDbEntity
8
0
100
AcDbCircle
10
231.43456751651001
20
-107.0202684935
30
0
40
1.5000000000000002
210
0
220
0
230
1
0
CIRCLE
5
518
100
AcDbEntity
8
0
100
AcDbCircle
10
235.42447058354
20
-105.19840899960002
30
0
40
0.14999999999999999
210
0
220
0
230
1
0
CIRCLE
5
519
100
AcDbEntity
8
0
100
AcDbCircle
10
280.93841018826998
20
-101.69139238930001
30
0
40
0.87500000000000011
210
0
220
0
230
1
0
CIRCLE
5
520
100
AcDbEntity
8
0
100
AcDbCircle
10
290.87638981172
20
-99.57900961064
30
0
40
0.87500000000000011
210
0
220
0
230
1
0
CIRCLE
5
521
100
AcDbEntity
8
0
100
AcDbCircle
10
285.9074
20
-100.635201
30
0
40
1.9939
210
0
220
0
230
1
0
CIRCLE
5
522
100
AcDbEntity
8
0
100
AcDbCircle
10
281.65256194652
20
-98.942849636150001
30
0
40
1.5000000000000002
210
0
220
0
230
1
0
CIRCLE
5
523
100
AcDbEntity
8
0
100
AcDbCircle
10
272.24267781172
20
-103.5397266106
30
0
40
0.87500000000000011
210
0
220
0
230
1
0
CIRCLE
5
524
100
AcDbEntity
8
0
100
AcDbCircle
10
263.01884994651999
20
-102.9035666361
30
0
40
1.5000000000000002
210
0
220
0
230
1
0
CIRCLE
5
525
100
AcDbEntity
8
0
100
AcDbCircle
10
277.6890688647
20
-100.7590955144
30
0
40
0.14999999999999999
210
0
220
0
230
1
0
CIRCLE
5
526
100
AcDbEntity
8
0
100
AcDbCircle
10
277.29299709370002
20
-98.895724335029996
30
0
40
0.14999999999999999
210
0
220
0
230
1
0
CIRCLE
5
527
100
AcDbEntity
8
0
100
AcDbCircle
10
273.08796635455002
20
-99.140344179050004
30
0
40
0.14999999999999999
210
0
220
0
230
1
0
CIRCLE
5
528
100
AcDbEntity
8
0
100
AcDbCircle
10
268.70199151651002
20
-99.098832493589995
30
0
40
1.5000000000000002
210
0
220
0
230
1
0
CIRCLE
5
529
100
AcDbEntity
8
0
100
AcDbCircle
10
298.34289999999999
20
-97.067701
30
0
40
0.14999999999999999
210
0
220
0
230
1
0
CIRCLE
5
530
100
AcDbEntity
8
0
100
AcDbCircle
10
298.34289999999999
20
-95.162700999999998
30
0
40
0.14999999999999999
210
0
220
0
230
1
0
CIRCLE
5
531
100
AcDbEntity
8
0
100
AcDbCircle
10
291.72167835455002
20
-95.179627179050001
30
0
40
0.14999999999999999
210
0
220
0
230
1
0
CIRCLE
5
532
100
AcDbEntity
8
0
100
AcDbCircle
10
287.33570351651002
20
-95.138115493590021
30
0
40
1.5000000000000002
210
0
220
0
230
1
0
CIRCLE
5
533
100
AcDbEntity
8
0
100
AcDbCircle
10
291.32560658353998
20
-93.316255999660015
30
0
40
0.14999999999999999
210
0
220
0
230
1
0
CIRCLE
5
534
100
AcDbEntity
8
0
100
AcDbCircle
10
272.69189458353998
20
-97.276972999660018
30
0
40
0.14999999999999999
210
0
220
0
230
1
0
CIRCLE
5
535
100
AcDbEntity
8
0
100
AcDbCircle
10
258.65928509370002
20
-102.856441335
30
0
40
0.14999999999999999
210
0
220
0
230
1
0
CIRCLE
5
536
100
AcDbEntity
8
0
100
AcDbCircle
10
254.45425435455002
20
-103.101062179
30
0
40
0.14999999999999999
210
0
220
0
230
1
0
CIRCLE
5
537
100
AcDbEntity
8
0
100
AcDbCircle
10
250.06827951651002
20
-103.05955049350001
30
0
40
1.5000000000000002
210
0
220
0
230
1
0
CIRCLE
5
538
100
AcDbEntity
8
0
100
AcDbCircle
10
254.05818258354003
20
-101.23769099960001
30
0
40
0.14999999999999999
210
0
220
0
230
1
0
CIRCLE
5
539
100
AcDbEntity
8
0
100
AcDbCircle
10
255.690448
20
-93.732877999999999
30
0
40
2.5
210
0
220
0
230
1
0
CIRCLE
5
540
100
AcDbEntity
8
0
100
AcDbCircle
10
178.16541236225004
20
-144.19760137680001
30
0
40
0.14999999999999999
210
0
220
0
230
1
0
CIRCLE
5
541
100
AcDbEntity
8
0
100
AcDbCircle
10
178.56148413326
20
-142.33423019739999
30
0
40
0.14999999999999999
210
0
220
0
230
1
0
CIRCLE
5
542
100
AcDbEntity
8
0
100
AcDbCircle
10
216.42793286470004
20
-133.2512485144
30
0
40
0.14999999999999999
210
0
220
0
230
1
0
CIRCLE
5
543
100
AcDbEntity
8
0
100
AcDbCircle
10
216.0318610937
20
-131.38787733500004
30
0
40
0.14999999999999999
210
0
220
0
230
1
0
CIRCLE
5
544
100
AcDbEntity
8
0
100
AcDbCircle
10
193.53752481172
20
-132.20354538929999
30
0
40
0.87500000000000011
210
0
220
0
230
1
0
CIRCLE
5
545
100
AcDbEntity
8
0
100
AcDbCircle
10
188.568535
20
-131.14735400000001
30
0
40
1.9939
210
0
220
0
230
1
0
CIRCLE
5
546
100
AcDbEntity
8
0
100
AcDbCircle
10
167.43617633587999
20
-143.5399975521
30
0
40
1.5000000000000002
210
0
220
0
230
1
0
CIRCLE
5
547
100
AcDbEntity
8
0
100
AcDbCircle
10
174.17550929520999
20
-142.3757418829
30
0
40
1.5000000000000002
210
0
220
0
230
1
0
CIRCLE
5
548
100
AcDbEntity
8
0
100
AcDbCircle
10
163.07661148304999
20
-143.58712285319999
30
0
40
0.14999999999999999
210
0
220
0
230
1
0
CIRCLE
5
549
100
AcDbEntity
8
0
100
AcDbCircle
10
156.97010081171999
20
-143.91210938930001
30
0
40
0.87500000000000011
210
0
220
0
230
1
0
CIRCLE
5
550
100
AcDbEntity
8
0
100
AcDbCircle
10
163.47268325406003
20
-141.7237516738
30
0
40
0.14999999999999999
210
0
220
0
230
1
0
CIRCLE
5
551
100
AcDbEntity
8
0
100
AcDbCircle
10
159.53170036225001
20
-140.23688337679999
30
0
40
0.14999999999999999
210
0
220
0
230
1
0
CIRCLE
5
552
100
AcDbEntity
8
0
100
AcDbCircle
10
159.92777213326002
20
-138.3735121974
30
0
40
0.14999999999999999
210
0
220
0
230
1
0
CIRCLE
5
553
100
AcDbEntity
8
0
100
AcDbCircle
10
152.00111100000001
20
-142.855918
30
0
40
1.9939
210
0
220
0
230
1
0
CIRCLE
5
554
100
AcDbEntity
8
0
100
AcDbCircle
10
147.03212118827
20
-141.7997266106
30
0
40
0.87500000000000011
210
0
220
0
230
1
0
CIRCLE
5
555
100
AcDbEntity
8
0
100
AcDbCircle
10
148.80246433587999
20
-139.57927955209999
30
0
40
1.5000000000000002
210
0
220
0
230
1
0
CIRCLE
5
556
100
AcDbEntity
8
0
100
AcDbCircle
10
155.54179729520999
20
-138.41502388289999
30
0
40
1.5000000000000002
210
0
220
0
230
1
0
CIRCLE
5
557
100
AcDbEntity
8
0
100
AcDbCircle
10
144.44289948305001
20
-139.62640485320003
30
0
40
0.14999999999999999
210
0
220
0
230
1
0
CIRCLE
5
558
100
AcDbEntity
8
0
100
AcDbCircle
10
138.33638981172001
20
-139.9513923893
30
0
40
0.87500000000000011
210
0
220
0
230
1
0
CIRCLE
5
559
100
AcDbEntity
8
0
100
AcDbCircle
10
144.83897125406
20
-137.76303367380001
30
0
40
0.14999999999999999
210
0
220
0
230
1
0
CIRCLE
5
560
100
AcDbEntity
8
0
100
AcDbCircle
10
140.89798936225003
20
-136.27616637680001
30
0
40
0.14999999999999999
210
0
220
0
230
1
0
CIRCLE
5
561
100
AcDbEntity
8
0
100
AcDbCircle
10
141.29406113325999
20
-134.41279519739999
30
0
40
0.14999999999999999
210
0
220
0
230
1
0
CIRCLE
5
562
100
AcDbEntity
8
0
100
AcDbCircle
10
136.90808629521001
20
-134.4543068829
30
0
40
1.5000000000000002
210
0
220
0
230
1
0
CIRCLE
5
563
100
AcDbEntity
8
0
100
AcDbCircle
10
196.09912436225002
20
-128.52831937680003
30
0
40
0.14999999999999999
210
0
220
0
230
1
0
CIRCLE
5
564
100
AcDbEntity
8
0
100
AcDbCircle
10
183.59954518827004
20
-130.09116261060001
30
0
40
0.87500000000000011
210
0
220
0
230
1
0
CIRCLE
5
565
100
AcDbEntity
8
0
100
AcDbCircle
10
185.36988833588001
20
-127.87071555209999
30
0
40
1.5000000000000002
210
0
220
0
230
1
0
CIRCLE
5
566
100
AcDbEntity
8
0
100
AcDbCircle
10
181.01032348305
20
-127.91784085320002
30
0
40
0.14999999999999999
210
0
220
0
230
1
0
CIRCLE
5
567
100
AcDbEntity
8
0
100
AcDbCircle
10
196.49519613326004
20
-126.66494819740001
30
0
40
0.14999999999999999
210
0
220
0
230
1
0
CIRCLE
5
568
100
AcDbEntity
8
0
100
AcDbCircle
10
192.10922129521003
20
-126.70645988290002
30
0
40
1.5000000000000002
210
0
220
0
230
1
0
CIRCLE
5
569
100
AcDbEntity
8
0
100
AcDbCircle
10
181.40639525405999
20
-126.05446967380001
30
0
40
0.14999999999999999
210
0
220
0
230
1
0
CIRCLE
5
570
100
AcDbEntity
8
0
100
AcDbCircle
10
177.46541236224999
20
-124.5676013768
30
0
40
0.14999999999999999
210
0
220
0
230
1
0
CIRCLE
5
571
100
AcDbEntity
8
0
100
AcDbCircle
10
177.86148413326001
20
-122.70423019740001
30
0
40
0.14999999999999999
210
0
220
0
230
1
0
CIRCLE
5
572
100
AcDbEntity
8
0
100
AcDbCircle
10
174.90381281172003
20
-128.24282738930003
30
0
40
0.87500000000000011
210
0
220
0
230
1
0
CIRCLE
5
573
100
AcDbEntity
8
0
100
AcDbCircle
10
169.93482299999999
20
-127.18663599999999
30
0
40
1.9939
210
0
220
0
230
1
0
CIRCLE
5
574
100
AcDbEntity
8
0
100
AcDbCircle
10
164.96583318827004
20
-126.13044461059999
30
0
40
0.87500000000000011
210
0
220
0
230
1
0
CIRCLE
5
575
100
AcDbEntity
8
0
100
AcDbCircle
10
166.73617633588003
20
-123.90999755210001
30
0
40
1.5000000000000002
210
0
220
0
230
1
0
CIRCLE
5
576
100
AcDbEntity
8
0
100
AcDbCircle
10
173.47550929521003
20
-122.74574188290002
30
0
40
1.5000000000000002
210
0
220
0
230
1
0
CIRCLE
5
577
100
AcDbEntity
8
0
100
AcDbCircle
10
162.37661148305
20
-123.95712285320002
30
0
40
0.14999999999999999
210
0
220
0
230
1
0
CIRCLE
5
578
100
AcDbEntity
8
0
100
AcDbCircle
10
156.27010081172
20
-124.2821093893
30
0
40
0.87500000000000011
210
0
220
0
230
1
0
CIRCLE
5
579
100
AcDbEntity
8
0
100
AcDbCircle
10
162.77268325406001
20
-122.09375167380001
30
0
40
0.14999999999999999
210
0
220
0
230
1
0
CIRCLE
5
580
100
AcDbEntity
8
0
100
AcDbCircle
10
158.83170036224999
20
-120.6068833768
30
0
40
0.14999999999999999
210
0
220
0
230
1
0
CIRCLE
5
581
100
AcDbEntity
8
0
100
AcDbCircle
10
159.22777213326
20
-118.74351219739999
30
0
40
0.14999999999999999
210
0
220
0
230
1
0
CIRCLE
5
582
100
AcDbEntity
8
0
100
AcDbCircle
10
151.30111099999999
20
-123.22591799999999
30
0
40
1.9939
210
0
220
0
230
1
0
CIRCLE
5
583
100
AcDbEntity
8
0
100
AcDbCircle
10
146.33212118827001
20
-122.16972661059999
30
0
40
0.87500000000000011
210
0
220
0
230
1
0
CIRCLE
5
584
100
AcDbEntity
8
0
100
AcDbCircle
10
148.10246433588
20
-119.94927955210001
30
0
40
1.5000000000000002
210
0
220
0
230
1
0
CIRCLE
5
585
100
AcDbEntity
8
0
100
AcDbCircle
10
154.84179729521
20
-118.78502388290002
30
0
40
1.5000000000000002
210
0
220
0
230
1
0
CIRCLE
5
586
100
AcDbEntity
8
0
100
AcDbCircle
10
143.74289948305
20
-119.9964048532
30
0
40
0.14999999999999999
210
0
220
0
230
1
0
CIRCLE
5
587
100
AcDbEntity
8
0
100
AcDbCircle
10
137.63638981171999
20
-120.3213923893
30
0
40
0.87500000000000011
210
0
220
0
230
1
0
CIRCLE
5
588
100
AcDbEntity
8
0
100
AcDbCircle
10
144.13897125406004
20
-118.13303367380001
30
0
40
0.14999999999999999
210
0
220
0
230
1
0
CIRCLE
5
589
100
AcDbEntity
8
0
100
AcDbCircle
10
133.3674
20
-138.89520099999999
30
0
40
1.9939
210
0
220
0
230
1
0
CIRCLE
5
590
100
AcDbEntity
8
0
100
AcDbCircle
10
128.39841018826999
20
-137.83900961059999
30
0
40
0.87500000000000011
210
0
220
0
230
1
0
CIRCLE
5
591
100
AcDbEntity
8
0
100
AcDbCircle
10
117.94740000000002
20
-138.89519999999999
30
0
40
0.87500000000000011
210
0
220
0
230
1
0
CIRCLE
5
592
100
AcDbEntity
8
0
100
AcDbCircle
10
112.86740000000002
20
-138.89519999999999
30
0
40
1.9939
210
0
220
0
230
1
0
CIRCLE
5
593
100
AcDbEntity
8
0
100
AcDbCircle
10
107.78740000000001
20
-138.89519999999999
30
0
40
0.87500000000000011
210
0
220
0
230
1
0
CIRCLE
5
594
100
AcDbEntity
8
0
100
AcDbCircle
10
130.16875333588001
20
-135.6185625521
30
0
40
1.5000000000000002
210
0
220
0
230
1
0
CIRCLE
5
595
100
AcDbEntity
8
0
100
AcDbCircle
10
125.80918848305001
20
-135.66568785320001
30
0
40
0.14999999999999999
210
0
220
0
230
1
0
CIRCLE
5
596
100
AcDbEntity
8
0
100
AcDbCircle
10
119.68890000000002
20
-134.76769999999999
30
0
40
0.14999999999999999
210
0
220
0
230
1
0
CIRCLE
5
597
100
AcDbEntity
8
0
100
AcDbCircle
10
126.20526025406001
20
-133.80231667379999
30
0
40
0.14999999999999999
210
0
220
0
230
1
0
CIRCLE
5
598
100
AcDbEntity
8
0
100
AcDbCircle
10
119.68890000000002
20
-132.86269999999999
30
0
40
0.14999999999999999
210
0
220
0
230
1
0
CIRCLE
5
599
100
AcDbEntity
8
0
100
AcDbCircle
10
115.4074
20
-133.8152
30
0
40
1.5000000000000002
210
0
220
0
230
1
0
CIRCLE
5
600
100
AcDbEntity
8
0
100
AcDbCircle
10
104.80289999999999
20
-137.30770000000001
30
0
40
0.14999999999999999
210
0
220
0
230
1
0
CIRCLE
5
601
100
AcDbEntity
8
0
100
AcDbCircle
10
109.05740000000002
20
-136.3552
30
0
40
1.5000000000000002
210
0
220
0
230
1
0
CIRCLE
5
602
100
AcDbEntity
8
0
100
AcDbCircle
10
104.80289999999999
20
-135.40270000000001
30
0
40
0.14999999999999999
210
0
220
0
230
1
0
CIRCLE
5
603
100
AcDbEntity
8
0
100
AcDbCircle
10
91.749719000000013
20
-138.89520099999999
30
0
40
0.87500000000000011
210
0
220
0
230
1
0
CIRCLE
5
604
100
AcDbEntity
8
0
100
AcDbCircle
10
86.669719000000001
20
-138.89520099999999
30
0
40
1.9939
210
0
220
0
230
1
0
CIRCLE
5
605
100
AcDbEntity
8
0
100
AcDbCircle
10
76.827399
20
-138.89519999999999
30
0
40
0.87500000000000011
210
0
220
0
230
1
0
CIRCLE
5
606
100
AcDbEntity
8
0
100
AcDbCircle
10
65.557400000000001
20
-138.89519899999999
30
0
40
0.87500000000000011
210
0
220
0
230
1
0
CIRCLE
5
607
100
AcDbEntity
8
0
100
AcDbCircle
10
60.47740000000001
20
-138.89519899999999
30
0
40
1.9939
210
0
220
0
230
1
0
CIRCLE
5
608
100
AcDbEntity
8
0
100
AcDbCircle
10
55.397400000000005
20
-138.89519899999999
30
0
40
0.87500000000000011
210
0
220
0
230
1
0
CIRCLE
5
609
100
AcDbEntity
8
0
100
AcDbCircle
10
78.097398999999996
20
-136.3552
30
0
40
0.73499999999999999
210
0
220
0
230
1
0
CIRCLE
5
610
100
AcDbEntity
8
0
100
AcDbCircle
10
89.209719000000007
20
-133.815201
30
0
40
0.73499999999999999
210
0
220
0
230
1
0
CIRCLE
5
611
100
AcDbEntity
8
0
100
AcDbCircle
10
84.447399000000004
20
-133.8152
30
0
40
0.73499999999999999
210
0
220
0
230
1
0
CIRCLE
5
612
100
AcDbEntity
8
0
100
AcDbCircle
10
67.298900000000003
20
-134.76769899999999
30
0
40
0.14999999999999999
210
0
220
0
230
1
0
CIRCLE
5
613
100
AcDbEntity
8
0
100
AcDbCircle
10
52.4129
20
-137.30769900000001
30
0
40
0.14999999999999999
210
0
220
0
230
1
0
CIRCLE
5
614
100
AcDbEntity
8
0
100
AcDbCircle
10
56.667400000000008
20
-136.355199
30
0
40
1.5000000000000002
210
0
220
0
230
1
0
CIRCLE
5
615
100
AcDbEntity
8
0
100
AcDbCircle
10
52.4129
20
-135.40269900000001
30
0
40
0.14999999999999999
210
0
220
0
230
1
0
CIRCLE
5
616
100
AcDbEntity
8
0
100
AcDbCircle
10
63.017400000000009
20
-133.81519900000001
30
0
40
1.5000000000000002
210
0
220
0
230
1
0
CIRCLE
5
617
100
AcDbEntity
8
0
100
AcDbCircle
10
67.298900000000003
20
-132.86269900000002
30
0
40
0.14999999999999999
210
0
220
0
230
1
0
CIRCLE
5
618
100
AcDbEntity
8
0
100
AcDbCircle
10
132.66739999999999
20
-119.26520100000002
30
0
40
1.9939
210
0
220
0
230
1
0
CIRCLE
5
619
100
AcDbEntity
8
0
100
AcDbCircle
10
127.69841018827002
20
-118.20900961060002
30
0
40
0.87500000000000011
210
0
220
0
230
1
0
CIRCLE
5
620
100
AcDbEntity
8
0
100
AcDbCircle
10
117.2474
20
-119.84520000000002
30
0
40
0.87500000000000011
210
0
220
0
230
1
0
CIRCLE
5
621
100
AcDbEntity
8
0
100
AcDbCircle
10
112.16740000000001
20
-119.84520000000002
30
0
40
1.9939
210
0
220
0
230
1
0
CIRCLE
5
622
100
AcDbEntity
8
0
100
AcDbCircle
10
107.0874
20
-119.84520000000002
30
0
40
0.87500000000000011
210
0
220
0
230
1
0
CIRCLE
5
623
100
AcDbEntity
8
0
100
AcDbCircle
10
104.10290000000002
20
-118.2577
30
0
40
0.14999999999999999
210
0
220
0
230
1
0
CIRCLE
5
624
100
AcDbEntity
8
0
100
AcDbCircle
10
93.437399999999997
20
-119.84520000000002
30
0
40
0.87500000000000011
210
0
220
0
230
1
0
CIRCLE
5
625
100
AcDbEntity
8
0
100
AcDbCircle
10
88.357399999999998
20
-119.84520000000002
30
0
40
1.9939
210
0
220
0
230
1
0
CIRCLE
5
626
100
AcDbEntity
8
0
100
AcDbCircle
10
83.2774
20
-119.84520000000002
30
0
40
0.87500000000000011
210
0
220
0
230
1
0
CIRCLE
5
627
100
AcDbEntity
8
0
100
AcDbCircle
10
80.292900000000017
20
-118.2577
30
0
40
0.14999999999999999
210
0
220
0
230
1
0
CIRCLE
5
628
100
AcDbEntity
8
0
100
AcDbCircle
10
69.627399999999994
20
-119.84519900000001
30
0
40
0.87500000000000011
210
0
220
0
230
1
0
CIRCLE
5
629
100
AcDbEntity
8
0
100
AcDbCircle
10
64.547399999999996
20
-119.84519900000001
30
0
40
1.9939
210
0
220
0
230
1
0
CIRCLE
5
630
100
AcDbEntity
8
0
100
AcDbCircle
10
59.467399999999998
20
-119.84519900000001
30
0
40
0.87500000000000011
210
0
220
0
230
1
0
CIRCLE
5
631
100
AcDbEntity
8
0
100
AcDbCircle
10
56.482900000000001
20
-118.257699
30
0
40
0.14999999999999999
210
0
220
0
230
1
0
CIRCLE
5
632
100
AcDbEntity
8
0
100
AcDbCircle
10
206.81752481172001
20
-115.55354538930001
30
0
40
0.87500000000000011
210
0
220
0
230
1
0
CIRCLE
5
633
100
AcDbEntity
8
0
100
AcDbCircle
10
201.84853500000003
20
-114.49735400000002
30
0
40
1.9939
210
0
220
0
230
1
0
CIRCLE
5
634
100
AcDbEntity
8
0
100
AcDbCircle
10
209.37912436225002
20
-111.87831937680001
30
0
40
0.14999999999999999
210
0
220
0
230
1
0
CIRCLE
5
635
100
AcDbEntity
8
0
100
AcDbCircle
10
198.64988833588001
20
-111.2207155521
30
0
40
1.5000000000000002
210
0
220
0
230
1
0
CIRCLE
5
636
100
AcDbEntity
8
0
100
AcDbCircle
10
196.87954518826999
20
-113.44116261060002
30
0
40
0.87500000000000011
210
0
220
0
230
1
0
CIRCLE
5
637
100
AcDbEntity
8
0
100
AcDbCircle
10
194.29032348305
20
-111.2678408532
30
0
40
0.14999999999999999
210
0
220
0
230
1
0
CIRCLE
5
638
100
AcDbEntity
8
0
100
AcDbCircle
10
188.18381281172003
20
-111.59282738930001
30
0
40
0.87500000000000011
210
0
220
0
230
1
0
CIRCLE
5
639
100
AcDbEntity
8
0
100
AcDbCircle
10
209.77519613326001
20
-110.01494819740002
30
0
40
0.14999999999999999
210
0
220
0
230
1
0
CIRCLE
5
640
100
AcDbEntity
8
0
100
AcDbCircle
10
205.38922129521001
20
-110.0564598829
30
0
40
1.5000000000000002
210
0
220
0
230
1
0
CIRCLE
5
641
100
AcDbEntity
8
0
100
AcDbCircle
10
194.68639525406002
20
-109.40446967379999
30
0
40
0.14999999999999999
210
0
220
0
230
1
0
CIRCLE
5
642
100
AcDbEntity
8
0
100
AcDbCircle
10
190.74541236224999
20
-107.91760137680001
30
0
40
0.14999999999999999
210
0
220
0
230
1
0
CIRCLE
5
643
100
AcDbEntity
8
0
100
AcDbCircle
10
183.214823
20
-110.536636
30
0
40
1.9939
210
0
220
0
230
1
0
CIRCLE
5
644
100
AcDbEntity
8
0
100
AcDbCircle
10
178.24583318827001
20
-109.4804446106
30
0
40
0.87500000000000011
210
0
220
0
230
1
0
CIRCLE
5
645
100
AcDbEntity
8
0
100
AcDbCircle
10
191.14148413326004
20
-106.05423019740002
30
0
40
0.14999999999999999
210
0
220
0
230
1
0
CIRCLE
5
646
100
AcDbEntity
8
0
100
AcDbCircle
10
180.01617633588
20
-107.2599975521
30
0
40
1.5000000000000002
210
0
220
0
230
1
0
CIRCLE
5
647
100
AcDbEntity
8
0
100
AcDbCircle
10
186.75550929521
20
-106.0957418829
30
0
40
1.5000000000000002
210
0
220
0
230
1
0
CIRCLE
5
648
100
AcDbEntity
8
0
100
AcDbCircle
10
140.19798936225001
20
-116.6461663768
30
0
40
0.14999999999999999
210
0
220
0
230
1
0
CIRCLE
5
649
100
AcDbEntity
8
0
100
AcDbCircle
10
140.59406113326
20
-114.78279519740001
30
0
40
0.14999999999999999
210
0
220
0
230
1
0
CIRCLE
5
650
100
AcDbEntity
8
0
100
AcDbCircle
10
136.20808629521002
20
-114.82430688290002
30
0
40
1.5000000000000002
210
0
220
0
230
1
0
CIRCLE
5
651
100
AcDbEntity
8
0
100
AcDbCircle
10
175.65661148305
20
-107.30712285320001
30
0
40
0.14999999999999999
210
0
220
0
230
1
0
CIRCLE
5
652
100
AcDbEntity
8
0
100
AcDbCircle
10
169.55010081172003
20
-107.63210938930001
30
0
40
0.87500000000000011
210
0
220
0
230
1
0
CIRCLE
5
653
100
AcDbEntity
8
0
100
AcDbCircle
10
176.05268325406001
20
-105.44375167379999
30
0
40
0.14999999999999999
210
0
220
0
230
1
0
CIRCLE
5
654
100
AcDbEntity
8
0
100
AcDbCircle
10
164.58111099999999
20
-106.575918
30
0
40
1.9939
210
0
220
0
230
1
0
CIRCLE
5
655
100
AcDbEntity
8
0
100
AcDbCircle
10
159.61212118827001
20
-105.5197266106
30
0
40
0.87500000000000011
210
0
220
0
230
1
0
CIRCLE
5
656
100
AcDbEntity
8
0
100
AcDbCircle
10
172.11170036224999
20
-103.95688337679999
30
0
40
0.14999999999999999
210
0
220
0
230
1
0
CIRCLE
5
657
100
AcDbEntity
8
0
100
AcDbCircle
10
172.50777213326
20
-102.0935121974
30
0
40
0.14999999999999999
210
0
220
0
230
1
0
CIRCLE
5
658
100
AcDbEntity
8
0
100
AcDbCircle
10
168.12179729521003
20
-102.13502388290001
30
0
40
1.5000000000000002
210
0
220
0
230
1
0
CIRCLE
5
659
100
AcDbEntity
8
0
100
AcDbCircle
10
161.38246433588
20
-103.29927955210002
30
0
40
1.5000000000000002
210
0
220
0
230
1
0
CIRCLE
5
660
100
AcDbEntity
8
0
100
AcDbCircle
10
157.02289948305003
20
-103.34640485320001
30
0
40
0.14999999999999999
210
0
220
0
230
1
0
CIRCLE
5
661
100
AcDbEntity
8
0
100
AcDbCircle
10
157.41897125406001
20
-101.48303367380001
30
0
40
0.14999999999999999
210
0
220
0
230
1
0
CIRCLE
5
662
100
AcDbEntity
8
0
100
AcDbCircle
10
150.91638981171999
20
-103.67139238930001
30
0
40
0.87500000000000011
210
0
220
0
230
1
0
CIRCLE
5
663
100
AcDbEntity
8
0
100
AcDbCircle
10
145.94739999999999
20
-102.615201
30
0
40
1.9939
210
0
220
0
230
1
0
CIRCLE
5
664
100
AcDbEntity
8
0
100
AcDbCircle
10
140.97841018827
20
-101.5590096106
30
0
40
0.87500000000000011
210
0
220
0
230
1
0
CIRCLE
5
665
100
AcDbEntity
8
0
100
AcDbCircle
10
153.47798936225001
20
-99.996166376879998
30
0
40
0.14999999999999999
210
0
220
0
230
1
0
CIRCLE
5
666
100
AcDbEntity
8
0
100
AcDbCircle
10
153.87406113326
20
-98.132795197480007
30
0
40
0.14999999999999999
210
0
220
0
230
1
0
CIRCLE
5
667
100
AcDbEntity
8
0
100
AcDbCircle
10
149.48808629521
20
-98.174306882940016
30
0
40
1.5000000000000002
210
0
220
0
230
1
0
CIRCLE
5
668
100
AcDbEntity
8
0
100
AcDbCircle
10
142.74875333588
20
-99.338562552119996
30
0
40
1.5000000000000002
210
0
220
0
230
1
0
CIRCLE
5
669
100
AcDbEntity
8
0
100
AcDbCircle
10
138.38918848304999
20
-99.385687853229996
30
0
40
0.14999999999999999
210
0
220
0
230
1
0
CIRCLE
5
670
100
AcDbEntity
8
0
100
AcDbCircle
10
174.74514800000003
20
-95.413342
30
0
40
2.5
210
0
220
0
230
1
0
CIRCLE
5
671
100
AcDbEntity
8
0
100
AcDbCircle
10
138.78526025406001
20
-97.522316673830005
30
0
40
0.14999999999999999
210
0
220
0
230
1
0
CIRCLE
5
672
100
AcDbEntity
8
0
100
AcDbCircle
10
129.46875333588
20
-115.98856255210002
30
0
40
1.5000000000000002
210
0
220
0
230
1
0
CIRCLE
5
673
100
AcDbEntity
8
0
100
AcDbCircle
10
125.10918848305002
20
-116.0356878532
30
0
40
0.14999999999999999
210
0
220
0
230
1
0
CIRCLE
5
674
100
AcDbEntity
8
0
100
AcDbCircle
10
118.98890000000002
20
-115.71770000000001
30
0
40
0.14999999999999999
210
0
220
0
230
1
0
CIRCLE
5
675
100
AcDbEntity
8
0
100
AcDbCircle
10
114.70740000000001
20
-114.76520000000001
30
0
40
1.5000000000000002
210
0
220
0
230
1
0
CIRCLE
5
676
100
AcDbEntity
8
0
100
AcDbCircle
10
125.50526025406
20
-114.17231667380001
30
0
40
0.14999999999999999
210
0
220
0
230
1
0
CIRCLE
5
677
100
AcDbEntity
8
0
100
AcDbCircle
10
118.98890000000002
20
-113.81270000000001
30
0
40
0.14999999999999999
210
0
220
0
230
1
0
CIRCLE
5
678
100
AcDbEntity
8
0
100
AcDbCircle
10
108.35740000000001
20
-117.3052
30
0
40
1.5000000000000002
210
0
220
0
230
1
0
CIRCLE
5
679
100
AcDbEntity
8
0
100
AcDbCircle
10
104.10290000000002
20
-116.3527
30
0
40
0.14999999999999999
210
0
220
0
230
1
0
CIRCLE
5
680
100
AcDbEntity
8
0
100
AcDbCircle
10
95.178899999999999
20
-115.71770000000001
30
0
40
0.14999999999999999
210
0
220
0
230
1
0
CIRCLE
5
681
100
AcDbEntity
8
0
100
AcDbCircle
10
95.178899999999999
20
-113.81270000000001
30
0
40
0.14999999999999999
210
0
220
0
230
1
0
CIRCLE
5
682
100
AcDbEntity
8
0
100
AcDbCircle
10
84.547399999999996
20
-117.3052
30
0
40
1.5000000000000002
210
0
220
0
230
1
0
CIRCLE
5
683
100
AcDbEntity
8
0
100
AcDbCircle
10
90.897400000000005
20
-114.76520000000001
30
0
40
1.5000000000000002
210
0
220
0
230
1
0
CIRCLE
5
684
100
AcDbEntity
8
0
100
AcDbCircle
10
80.292900000000017
20
-116.3527
30
0
40
0.14999999999999999
210
0
220
0
230
1
0
CIRCLE
5
685
100
AcDbEntity
8
0
100
AcDbCircle
10
71.368899999999996
20
-115.717699
30
0
40
0.14999999999999999
210
0
220
0
230
1
0
CIRCLE
5
686
100
AcDbEntity
8
0
100
AcDbCircle
10
67.087400000000002
20
-114.765199
30
0
40
1.5000000000000002
210
0
220
0
230
1
0
CIRCLE
5
687
100
AcDbEntity
8
0
100
AcDbCircle
10
60.737400000000008
20
-117.30519900000002
30
0
40
1.5000000000000002
210
0
220
0
230
1
0
CIRCLE
5
688
100
AcDbEntity
8
0
100
AcDbCircle
10
56.482900000000001
20
-116.352699
30
0
40
0.14999999999999999
210
0
220
0
230
1
0
CIRCLE
5
689
100
AcDbEntity
8
0
100
AcDbCircle
10
71.368899999999996
20
-113.81269899999999
30
0
40
0.14999999999999999
210
0
220
0
230
1
0
CIRCLE
5
690
100
AcDbEntity
8
0
100
AcDbCircle
10
130.5274
20
-98.655201000000005
30
0
40
0.87500000000000011
210
0
220
0
230
1
0
CIRCLE
5
691
100
AcDbEntity
8
0
100
AcDbCircle
10
125.44740000000002
20
-98.655201000000005
30
0
40
1.9939
210
0
220
0
230
1
0
CIRCLE
5
692
100
AcDbEntity
8
0
100
AcDbCircle
10
120.36740000000002
20
-98.655201000000005
30
0
40
0.87500000000000011
210
0
220
0
230
1
0
CIRCLE
5
693
100
AcDbEntity
8
0
100
AcDbCircle
10
111.88740000000001
20
-100.79520000000001
30
0
40
0.87500000000000011
210
0
220
0
230
1
0
CIRCLE
5
694
100
AcDbEntity
8
0
100
AcDbCircle
10
106.8074
20
-100.79520000000001
30
0
40
1.9939
210
0
220
0
230
1
0
CIRCLE
5
695
100
AcDbEntity
8
0
100
AcDbCircle
10
101.72740000000002
20
-100.79520000000001
30
0
40
0.87500000000000011
210
0
220
0
230
1
0
CIRCLE
5
696
100
AcDbEntity
8
0
100
AcDbCircle
10
102.9974
20
-98.255200000000002
30
0
40
1.5000000000000002
210
0
220
0
230
1
0
CIRCLE
5
697
100
AcDbEntity
8
0
100
AcDbCircle
10
98.74290000000002
20
-99.207700000000017
30
0
40
0.14999999999999999
210
0
220
0
230
1
0
CIRCLE
5
698
100
AcDbEntity
8
0
100
AcDbCircle
10
117.38290000000001
20
-97.067701
30
0
40
0.14999999999999999
210
0
220
0
230
1
0
CIRCLE
5
699
100
AcDbEntity
8
0
100
AcDbCircle
10
121.63740000000001
20
-96.115200999999999
30
0
40
1.5000000000000002
210
0
220
0
230
1
0
CIRCLE
5
700
100
AcDbEntity
8
0
100
AcDbCircle
10
117.38290000000001
20
-95.162700999999998
30
0
40
0.14999999999999999
210
0
220
0
230
1
0
CIRCLE
5
701
100
AcDbEntity
8
0
100
AcDbCircle
10
132.2689
20
-94.527701000000008
30
0
40
0.14999999999999999
210
0
220
0
230
1
0
CIRCLE
5
702
100
AcDbEntity
8
0
100
AcDbCircle
10
127.98740000000001
20
-93.575201000000007
30
0
40
1.5000000000000002
210
0
220
0
230
1
0
CIRCLE
5
703
100
AcDbEntity
8
0
100
AcDbCircle
10
132.2689
20
-92.622701000000006
30
0
40
0.14999999999999999
210
0
220
0
230
1
0
CIRCLE
5
704
100
AcDbEntity
8
0
100
AcDbCircle
10
113.6289
20
-96.667699999999996
30
0
40
0.14999999999999999
210
0
220
0
230
1
0
CIRCLE
5
705
100
AcDbEntity
8
0
100
AcDbCircle
10
109.34739999999999
20
-95.715199999999996
30
0
40
1.5000000000000002
210
0
220
0
230
1
0
CIRCLE
5
706
100
AcDbEntity
8
0
100
AcDbCircle
10
113.6289
20
-94.762699999999995
30
0
40
0.14999999999999999
210
0
220
0
230
1
0
CIRCLE
5
707
100
AcDbEntity
8
0
100
AcDbCircle
10
98.74290000000002
20
-97.302700000000016
30
0
40
0.14999999999999999
210
0
220
0
230
1
0
CIRCLE
5
708
100
AcDbEntity
8
0
100
AcDbCircle
10
94.578900000000004
20
-96.667699999999996
30
0
40
0.14999999999999999
210
0
220
0
230
1
0
CIRCLE
5
709
100
AcDbEntity
8
0
100
AcDbCircle
10
94.578900000000004
20
-94.762699999999995
30
0
40
0.14999999999999999
210
0
220
0
230
1
0
CIRCLE
5
710
100
AcDbEntity
8
0
100
AcDbCircle
10
92.837400000000002
20
-100.79520000000001
30
0
40
0.87500000000000011
210
0
220
0
230
1
0
CIRCLE
5
711
100
AcDbEntity
8
0
100
AcDbCircle
10
87.757400000000004
20
-100.79520000000001
30
0
40
1.9939
210
0
220
0
230
1
0
CIRCLE
5
712
100
AcDbEntity
8
0
100
AcDbCircle
10
83.947400000000002
20
-98.255200000000002
30
0
40
1.5000000000000002
210
0
220
0
230
1
0
CIRCLE
5
713
100
AcDbEntity
8
0
100
AcDbCircle
10
82.67740000000002
20
-100.79520000000001
30
0
40
0.87500000000000011
210
0
220
0
230
1
0
CIRCLE
5
714
100
AcDbEntity
8
0
100
AcDbCircle
10
73.787400000000005
20
-100.79520000000001
30
0
40
0.87500000000000011
210
0
220
0
230
1
0
CIRCLE
5
715
100
AcDbEntity
8
0
100
AcDbCircle
10
79.692899999999995
20
-99.207700000000017
30
0
40
0.14999999999999999
210
0
220
0
230
1
0
CIRCLE
5
716
100
AcDbEntity
8
0
100
AcDbCircle
10
68.707400000000007
20
-100.79520000000001
30
0
40
1.9939
210
0
220
0
230
1
0
CIRCLE
5
717
100
AcDbEntity
8
0
100
AcDbCircle
10
63.627400000000009
20
-100.79520000000001
30
0
40
0.87500000000000011
210
0
220
0
230
1
0
CIRCLE
5
718
100
AcDbEntity
8
0
100
AcDbCircle
10
64.897400000000005
20
-98.255200000000002
30
0
40
1.5000000000000002
210
0
220
0
230
1
0
CIRCLE
5
719
100
AcDbEntity
8
0
100
AcDbCircle
10
60.642899999999997
20
-99.207700000000017
30
0
40
0.14999999999999999
210
0
220
0
230
1
0
CIRCLE
5
720
100
AcDbEntity
8
0
100
AcDbCircle
10
90.29740000000001
20
-95.715199999999996
30
0
40
1.5000000000000002
210
0
220
0
230
1
0
CIRCLE
5
721
100
AcDbEntity
8
0
100
AcDbCircle
10
79.692899999999995
20
-97.302700000000016
30
0
40
0.14999999999999999
210
0
220
0
230
1
0
CIRCLE
5
722
100
AcDbEntity
8
0
100
AcDbCircle
10
75.528899999999993
20
-96.667699999999996
30
0
40
0.14999999999999999
210
0
220
0
230
1
0
CIRCLE
5
723
100
AcDbEntity
8
0
100
AcDbCircle
10
75.528899999999993
20
-94.762699999999995
30
0
40
0.14999999999999999
210
0
220
0
230
1
0
CIRCLE
5
724
100
AcDbEntity
8
0
100
AcDbCircle
10
71.247399999999999
20
-95.715199999999996
30
0
40
1.5000000000000002
210
0
220
0
230
1
0
CIRCLE
5
725
100
AcDbEntity
8
0
100
AcDbCircle
10
60.642899999999997
20
-97.302700000000016
30
0
40
0.14999999999999999
210
0
220
0
230
1
0
LINE
5
726
100
AcDbEntity
8
0
100
AcDbLine
10
133.01739999999998
20
-128.08020099999999
30
0
11
103.0000015348196
21
-128.08020099999999
31
0
0
LINE
5
727
100
AcDbEntity
8
0
100
AcDbLine
10
324.19740000000002
20
-128.37020050000001
30
0
11
288.15064128772116
21
-128.37020050000001
31
0
0
LINE
5
728
100
AcDbEntity
8
0
100
AcDbLine
10
288.15064128772116
20
-128.37020050000001
30
0
11
211.26618853106564
21
-144.7124943763468
31
0
0
LINE
5
729
100
AcDbEntity
8
0
100
AcDbLine
10
211.26618853106564
20
-144.7124943763468
30
0
11
133.01739999999998
21
-128.08020099999999
31
0
0
LWPOLYLINE
5
730
100
AcDbEntity
8
0
100
AcDbPolyline
90
10
70
1
43
0.0
10
288.08757875051549
20
-127.77020050000002
10
324.19740000000002
20
-127.77020050000002
42
-0.99999999999999989
10
324.19740000000002
20
-128.97020050000003
10
288.21370382492677
20
-128.97020050000003
10
211.2661885273252
20
-145.32589873236128
10
132.95433745909526
20
-128.68020100000001
10
103.0000015348196
20
-128.68020100000001
42
-0.99999999999999989
10
103.0000015348196
20
-127.48020099999999
10
133.08046254090473
20
-127.48020099999999
10
211.26618853480608
20
-144.09909002033228
0
LWPOLYLINE
5
731
100
AcDbEntity
8
0
100
AcDbPolyline
90
10
70
1
43
0.0
10
110.0000015348196
20
-146.53020100000001
10
133.08046254090473
20
-146.53020100000001
10
211.26618853480608
20
-163.14909002033232
10
288.08757875051549
20
-146.82020050000003
10
333.19740000000002
20
-146.82020050000003
42
-0.99999999999999989
10
333.19740000000002
20
-148.02020050000004
10
288.21370382492677
20
-148.02020050000004
10
211.2661885273252
20
-164.37589873236129
10
132.95433745909526
20
-147.73020100000002
10
110.0000015348196
20
-147.73020100000002
42
-0.99999999999999989
0
LINE
5
732
100
AcDbEntity
8
0
100
AcDbLine
10
333.19740000000002
20
-147.42020050000002
30
0
11
288.15064128772116
21
-147.42020050000002
31
0
0
LINE
5
733
100
AcDbEntity
8
0
100
AcDbLine
10
211.26618853106564
20
-163.76249437634675
30
0
11
133.01739999999998
21
-147.130201
31
0
0
LINE
5
734
100
AcDbEntity
8
0
100
AcDbLine
10
133.01739999999998
20
-147.130201
30
0
11
110.0000015348196
21
-147.130201
31
0
0
LINE
5
735
100
AcDbEntity
8
0
100
AcDbLine
10
288.15064128772116
20
-147.42020050000002
30
0
11
211.26618853106564
21
-163.76249437634675
31
0
0
ENDSEC
0
SECTION
2
OBJECTS
0
DICTIONARY
5
C
100
AcDbDictionary
3
ACAD_GROUP
350
D
3
ACAD_MLINESTYLE
350
17
0
DICTIONARY
5
D
100
AcDbDictionary
0
DICTIONARY
5
1A
330
C
100
AcDbDictionary
0
DICTIONARY
5
17
100
AcDbDictionary
0
ENDSEC
0
EOF
