0
SECTION
2
HEADER
9
$INSUNITS
70
4
9
$ACADVER
1
AC1014
9
$HANDSEED
5
FFFF
0
ENDSEC
0
SECTION
2
TABLES
0
TABLE
2
VPORT
5
8
100
AcDbSymbolTable
0
ENDTAB
0
TABLE
2
LTYPE
5
5
100
AcDbSymbolTable
0
LTYPE
5
14
100
AcDbSymbolTableRecord
100
AcDbLinetypeTableRecord
2
BYBLOCK
70
0
0
LTYPE
5
15
100
AcDbSymbolTableRecord
100
AcDbLinetypeTableRecord
2
BYLAYER
70
0
0
ENDTAB
0
TABLE
2
LAYER
5
2
100
AcDbSymbolTable
70
2
0
LAYER
5
50
100
AcDbSymbolTableRecord
100
AcDbLayerTableRecord
2
0
70
0
6
CONTINUOUS
0
ENDTAB
0
TABLE
2
STYLE
5
3
100
AcDbSymbolTable
70
1
0
STYLE
5
11
100
AcDbSymbolTableRecord
100
AcDbTextStyleTableRecord
2
STANDARD
70
0
0
ENDTAB
0
TABLE
2
VIEW
5
6
100
AcDbSymbolTable
70
0
0
ENDTAB
0
TABLE
2
UCS
5
7
100
AcDbSymbolTable
70
0
0
ENDTAB
0
TABLE
2
APPID
5
9
100
AcDbSymbolTable
70
2
0
APPID
5
12
100
AcDbSymbolTableRecord
100
AcDbRegAppTableRecord
2
ACAD
70
0
0
ENDTAB
0
TABLE
2
DIMSTYLE
5
A
100
AcDbSymbolTable
70
1
0
ENDTAB
0
TABLE
2
BLOCK_RECORD
5
1
100
AcDbSymbolTable
70
1
0
BLOCK_RECORD
5
1F
100
AcDbSymbolTableRecord
100
AcDbBlockTableRecord
2
*MODEL_SPACE
0
BLOCK_RECORD
5
1B
100
AcDbSymbolTableRecord
100
AcDbBlockTableRecord
2
*PAPER_SPACE
0
ENDTAB
0
ENDSEC
0
SECTION
2
BLOCKS
0
BLOCK
5
20
100
AcDbEntity
100
AcDbBlockBegin
2
*MODEL_SPACE
0
ENDBLK
5
21
100
AcDbEntity
100
AcDbBlockEnd
0
BLOCK
5
1C
100
AcDbEntity
100
AcDbBlockBegin
2
*PAPER_SPACE
0
ENDBLK
5
1D
100
AcDbEntity
100
AcDbBlockEnd
0
ENDSEC
0
SECTION
2
ENTITIES
0
LWPOLYLINE
5
100
100
AcDbEntity
8
0
100
AcDbPolyline
90
20
70
1
43
0.0
10
-144.88159999999999
20
136.71879999999999
10
-87.731600000000014
20
136.71879999999999
10
-82.905600000000007
20
131.89279999999999
10
-26.806400000000004
20
131.89279999999999
10
-26.806399999989061
20
125.96300544360122
42
17.979302526416074
10
-26.806400000000004
20
125.62499455630001
10
-26.806400000000082
20
102.08700544370001
42
17.979302515843145
10
-26.806400000000004
20
101.7489945562
10
-26.806400000000082
20
87.863005443700004
42
17.979302520600346
10
-26.806400000000004
20
87.524994556289997
10
-26.806399999998977
20
63.987005443690123
42
17.979302521658589
10
-26.806400000000004
20
63.648994556300011
10
-26.806400000000004
20
14.368400000000001
10
-215.392
20
14.368400000000001
10
-215.392
20
5.3768000000000002
10
-226.56800000000004
20
5.3768000000000002
10
-226.56800000000004
20
14.368400000000001
10
-415.30599999999998
20
14.368400000000001
10
-415.30599999999998
20
131.89279999999999
10
-149.70760000000001
20
131.89279999999999
0
LWPOLYLINE
5
101
100
AcDbEntity
8
0
100
AcDbPolyline
90
6
70
1
43
0.0
10
-165.83734703984658
20
122.93814120790972
42
-3.6798478192568185
10
-165.83734703984294
20
123.82385879202504
42
-0.54200742299409221
10
-162.70262499999316
20
124.98039029614141
42
-0.54200742299174121
10
-159.56790296019159
20
123.82385879202528
42
-3.6798478191907051
10
-159.56790296017181
20
122.93814120791014
42
-0.54200742297101889
10
-162.70262499997864
20
121.78160970385711
42
-0.54200742298122717
0
LWPOLYLINE
5
102
100
AcDbEntity
8
0
100
AcDbPolyline
90
2
70
1
43
0.0
10
-162.70262500002761
20
127.94709377374917
42
-1.1663120027830758
10
-162.70262500001323
20
128.97490622625307
42
-1.1663120028730389
0
LWPOLYLINE
5
103
100
AcDbEntity
8
0
100
AcDbPolyline
90
14
70
1
43
0.0
10
-374.01878601120558
20
121.47197000812413
42
-11.095897629720232
10
-374.2648795752275
20
121.56425509465106
42
-0.18008869880970205
10
-375.25283843669331
20
122.54372650839915
42
-0.34667251149518069
10
-376.26165296017183
20
122.93814120791018
42
-0.43452314449930973
10
-378.78128601125513
20
121.4719700081537
42
-11.095897634650376
10
-379.02737957517536
20
121.56425509462741
42
-0.053851112097516321
10
-379.39637499998946
20
121.78160970387157
42
-0.33134673290042888
10
-381.77762499999125
20
121.78160970387023
42
-0.54200742297872306
10
-384.91234703984509
20
122.93814120791208
42
-3.6798478192680029
10
-384.91234703984298
20
123.82385879202505
42
-0.54200742299280047
10
-381.77762499999506
20
124.98039029614004
42
-0.33134673290715783
10
-379.39637499999321
20
124.98039029614145
42
-0.54200742299173876
10
-376.26165296019161
20
123.82385879202523
42
-0.34667251151892803
10
-375.25283843672196
20
124.21827349161319
42
-2.1929727875516947
0
ARC
5
104
100
AcDbEntity
8
0
100
AcDbCircle
10
-368.36324999999999
20
123.381
30
0
40
0.87499999999997369
210
0
220
-0
230
1
100
AcDbArc
50
3.7515593574784356
51
356.24844063598954
0
ARC
5
105
100
AcDbEntity
8
0
100
AcDbCircle
10
-366.61700000000002
20
123.381
30
0
40
0.87500000000351053
210
0
220
0
230
1
100
AcDbArc
50
-176.24844063600446
51
176.24844064248143
0
LWPOLYLINE
5
106
100
AcDbEntity
8
0
100
AcDbPolyline
90
2
70
1
43
0.0
10
-355.58387500011548
20
127.94709377373559
42
-1.1663120025811926
10
-355.5838750001011
20
128.97490622626665
42
-1.1663120030653533
0
LWPOLYLINE
5
107
100
AcDbEntity
8
0
100
AcDbPolyline
90
10
70
1
43
0.0
10
-357.35003601124242
20
121.47197000814616
42
-11.095897634027272
10
-357.59612957517527
20
121.56425509462743
42
-0.23469591569120249
10
-358.71859703984433
20
122.9381412079135
42
-0.34667251148385037
10
-359.72741156329312
20
122.54372650839967
42
-4.5427073409916545
10
-359.7274115632942
20
124.21827349160466
42
-0.34667251151857137
10
-358.71859703984217
20
123.82385879202863
42
-0.54200742299350002
10
-355.5838749999931
20
124.98039029614145
42
-0.54200742299209959
10
-352.44915296019252
20
123.82385879202387
42
-3.679847819176489
10
-352.44915296017268
20
122.93814120790655
42
-0.54200742297041182
10
-355.58387499998423
20
121.78160970386466
42
-0.2375049460324494
0
LWPOLYLINE
5
108
100
AcDbEntity
8
0
100
AcDbPolyline
90
2
70
1
43
0.0
10
-290.67116156333054
20
122.54372650831874
42
-4.5427073407496712
10
-290.67116156331855
20
124.21827349168493
42
-1.3486173569624973
0
LWPOLYLINE
5
109
100
AcDbEntity
8
0
100
AcDbPolyline
90
10
70
1
43
0.0
10
-205.19612957512743
20
121.56425509460577
42
-0.18008869883567882
10
-206.18408843670528
20
122.54372650839554
42
-0.34667251149115735
10
-207.19290296017181
20
122.93814120791012
42
-0.54200742297231697
10
-210.32762499999131
20
121.7816097038702
42
-0.5420074229787184
10
-213.46234703984521
20
122.93814120791211
42
-3.679847819268216
10
-213.46234703984297
20
123.82385879202502
42
-0.54200742299279137
10
-210.32762499999504
20
124.98039029614006
42
-0.54200742299211846
10
-207.19290296019165
20
123.82385879202525
42
-0.34667251152824363
10
-206.18408843670301
20
124.21827349160884
42
-2.1929727876234546
10
-204.95003601130213
20
121.4719700081656
42
-11.095897638753113
0
LWPOLYLINE
5
110
100
AcDbEntity
8
0
100
AcDbPolyline
90
10
70
1
43
0.0
10
-183.76487957512745
20
121.56425509460577
42
-0.053851112104129725
10
-184.13387499998942
20
121.7816097038716
42
-0.33134673290043176
10
-186.51512499999126
20
121.7816097038702
42
-0.54200742297872118
10
-189.64984703984521
20
122.93814120791212
42
-3.6798478192683519
10
-189.64984703984297
20
123.82385879202502
42
-0.5420074229927927
10
-186.51512499999501
20
124.98039029614003
42
-0.33134673290715189
10
-184.1338749999932
20
124.98039029614142
42
-0.54200742299174642
10
-180.99915296019159
20
123.82385879202525
42
-3.6798478191908797
10
-180.99915296017184
20
122.93814120791014
42
-0.43452314450644602
10
-183.51878601130213
20
121.4719700081656
42
-11.095897638751515
0
LWPOLYLINE
5
111
100
AcDbEntity
8
0
100
AcDbPolyline
90
2
70
1
43
0.0
10
-210.32762499997881
20
127.94709377375669
42
-1.1663120028951703
10
-210.3276249999644
20
128.97490622624554
42
-1.166312002766082
0
LWPOLYLINE
5
112
100
AcDbEntity
8
0
100
AcDbPolyline
90
2
70
1
43
0.0
10
-235.33392499884673
20
131.88999669270717
42
-1.0020855072420642
10
-235.33392499884661
20
128.84200330729286
42
-1.0020855087587768
0
LWPOLYLINE
5
113
100
AcDbEntity
8
0
100
AcDbPolyline
90
2
70
1
43
0.0
10
-281.76512500006561
20
128.97490622623647
42
-1.1663120029624394
10
-281.76512500005123
20
127.94709377376579
42
-1.1663120027019522
0
LWPOLYLINE
5
114
100
AcDbEntity
8
0
100
AcDbPolyline
90
2
70
1
43
0.0
10
-284.14637500011554
20
127.94709377373559
42
-1.1663120025811493
10
-284.14637500010116
20
128.97490622626665
42
-1.1663120030655492
0
LWPOLYLINE
5
115
100
AcDbEntity
8
0
100
AcDbPolyline
90
12
70
1
43
0.0
10
-281.76512500003054
20
121.78160970384099
42
-0.33134673289218075
10
-284.1463749999894
20
121.78160970387155
42
-0.4760948471625524
10
-287.14658843669332
20
122.54372650839915
42
-0.16806883093375075
10
-287.71824999997136
20
122.56563581757487
42
-1.462536650166014
10
-287.71824999997824
20
124.1963641824448
42
-0.16806883093732172
10
-287.14658843670469
20
124.21827349160517
42
-0.47609484717863226
10
-284.14637499999321
20
124.98039029614141
42
-0.33134673290571387
10
-281.76512499999507
20
124.98039029614004
42
-0.54200742299212024
10
-278.63040296019159
20
123.82385879202523
42
-3.6798478191907438
10
-278.63040296017181
20
122.93814120791014
42
-0.43452314448931556
10
-281.15003601119929
20
121.47197000812039
42
-11.095897629412388
10
-281.39612957524258
20
121.56425509461783
42
-0.053851112097478462
0
LWPOLYLINE
5
116
100
AcDbEntity
8
0
100
AcDbPolyline
90
2
70
1
43
0.0
10
-143.28304412915963
20
83.464103425230846
42
-30.477505008448095
10
-143.03829728399114
20
83.372275179778157
42
-11.157215944479518
0
ARC
5
117
100
AcDbEntity
8
0
100
AcDbCircle
10
-388.04849999999999
20
85.281000000000006
30
0
40
0.87500000000000777
210
0
220
0
230
1
100
AcDbArc
50
-176.24844062279143
51
176.24844062344417
0
ARC
5
118
100
AcDbEntity
8
0
100
AcDbCircle
10
-389.79475000000008
20
85.281000000000006
30
0
40
0.87500000002863942
210
0
220
-0
230
1
100
AcDbArc
50
3.7515593764329607
51
356.24844062291976
0
LWPOLYLINE
5
119
100
AcDbEntity
8
0
100
AcDbPolyline
90
2
70
1
43
0.0
10
-235.33392500031002
20
117.11989747213167
42
-1.0015936266647072
10
-235.33392500030999
20
113.13210252786834
42
-1.0015936263532856
0
LWPOLYLINE
5
120
100
AcDbEntity
8
0
100
AcDbPolyline
90
4
70
1
43
0.0
10
-225.06399999999999
20
10.548
10
-225.06399999999999
20
11.648
42
0.99999999999999989
10
-225.66400000000002
20
11.648
10
-225.66400000000002
20
10.548
42
0.99999999999999989
0
LWPOLYLINE
5
121
100
AcDbEntity
8
0
100
AcDbPolyline
90
4
70
1
43
0.0
10
-216.42399999999998
20
10.548
42
-0.99999999999999989
10
-217.024
20
10.548
10
-217.024
20
11.648
42
-0.99999999999999989
10
-216.42399999999998
20
11.648
0
LWPOLYLINE
5
122
100
AcDbEntity
8
0
100
AcDbPolyline
90
4
70
1
43
0.0
10
-216.42399999999998
20
6.6180000000000003
42
-0.99999999999999989
10
-217.024
20
6.6180000000000003
10
-217.024
20
7.218
42
-0.99999999999999989
10
-216.42399999999998
20
7.218
0
LWPOLYLINE
5
123
100
AcDbEntity
8
0
100
AcDbPolyline
90
4
70
1
43
0.0
10
-225.66400000000002
20
7.218
42
-0.99999999999999989
10
-225.06399999999999
20
7.218
10
-225.06399999999999
20
6.6180000000000003
42
-0.99999999999999989
10
-225.66400000000002
20
6.6180000000000003
0
LWPOLYLINE
5
124
100
AcDbEntity
8
0
100
AcDbPolyline
90
10
70
1
43
0.0
10
-402.83987957527688
20
121.56425509467333
42
-0.053851112085526884
10
-403.20887499999316
20
121.78160970386882
42
-0.33134673289978889
10
-405.5901249999913
20
121.78160970387025
42
-0.54200742296254467
10
-408.72484703988192
20
122.93814120784941
42
-3.6798478186289856
10
-408.72484703982991
20
123.82385879208272
42
-0.5420074229832077
10
-405.59012499999506
20
124.98039029614004
42
-0.33134673290492678
10
-403.20887499999691
20
124.98039029613867
42
-0.54200742297630944
10
-400.07415296015483
20
123.82385879208785
42
-3.6798478185517265
10
-400.07415296018502
20
122.93814120785248
42
-0.43452314446908535
10
-402.59378601112223
20
121.47197000810458
42
-11.095897624197274
0
LWPOLYLINE
5
125
100
AcDbEntity
8
0
100
AcDbPolyline
90
2
70
1
43
0.0
10
-396.42448833815342
20
86.535570959844023
42
-19.261443267657715
10
-396.20709392203679
20
86.764407187335308
42
-25.228675829786827
0
ARC
5
126
100
AcDbEntity
8
0
100
AcDbCircle
10
-404.39975000000004
20
75.756
30
0
40
1.9938999999999978
210
0
220
0
230
1
100
AcDbArc
50
-160.89882357193457
51
105.38174237000372
0
ARC
5
127
100
AcDbEntity
8
0
100
AcDbCircle
10
-406.81274999999999
20
77.02600000000001
30
0
40
1.9939000000001297
210
0
220
-0
230
1
100
AcDbArc
50
19.101176427870133
51
285.38174237002136
0
CIRCLE
5
128
100
AcDbEntity
8
0
100
AcDbCircle
10
-376.77700000000004
20
120.84099999999999
30
0
40
0.73499999999999999
210
0
220
0
230
1
0
CIRCLE
5
129
100
AcDbEntity
8
0
100
AcDbCircle
10
-350.58325000000002
20
120.84099999999999
30
0
40
0.73499999999999999
210
0
220
0
230
1
0
CIRCLE
5
130
100
AcDbEntity
8
0
100
AcDbCircle
10
-230.57460000000003
20
115.126
30
0
40
1.9939
210
0
220
0
230
1
0
CIRCLE
5
131
100
AcDbEntity
8
0
100
AcDbCircle
10
-279.14575000000002
20
120.84099999999999
30
0
40
0.73499999999999999
210
0
220
0
230
1
0
CIRCLE
5
132
100
AcDbEntity
8
0
100
AcDbCircle
10
-265.17600000000004
20
71.311000000000007
30
0
40
0.52000000000000002
210
0
220
0
230
1
0
CIRCLE
5
133
100
AcDbEntity
8
0
100
AcDbCircle
10
-252.15850000000003
20
80.200999999999993
30
0
40
0.73499999999999999
210
0
220
0
230
1
0
CIRCLE
5
134
100
AcDbEntity
8
0
100
AcDbCircle
10
-236.2835
20
101.791
30
0
40
0.73499999999999999
210
0
220
0
230
1
0
CIRCLE
5
135
100
AcDbEntity
8
0
100
AcDbCircle
10
-245.80850000000001
20
82.741000000000014
30
0
40
0.73499999999999999
210
0
220
0
230
1
0
CIRCLE
5
136
100
AcDbEntity
8
0
100
AcDbCircle
10
-257.87349999999998
20
109.411
30
0
40
0.52000000000000002
210
0
220
0
230
1
0
CIRCLE
5
137
100
AcDbEntity
8
0
100
AcDbCircle
10
-353.12350000000004
20
109.411
30
0
40
0.52000000000000002
210
0
220
0
230
1
0
CIRCLE
5
138
100
AcDbEntity
8
0
100
AcDbCircle
10
-309.30849999999998
20
80.200999999999993
30
0
40
0.73499999999999999
210
0
220
0
230
1
0
CIRCLE
5
139
100
AcDbEntity
8
0
100
AcDbCircle
10
-362.64850000000001
20
90.361000000000018
30
0
40
0.52000000000000002
210
0
220
0
230
1
0
CIRCLE
5
140
100
AcDbEntity
8
0
100
AcDbCircle
10
-230.5685
20
85.281000000000006
30
0
40
1.9939
210
0
220
0
230
1
0
CIRCLE
5
141
100
AcDbEntity
8
0
100
AcDbCircle
10
-233.10850000000002
20
80.200999999999993
30
0
40
0.73499999999999999
210
0
220
0
230
1
0
CIRCLE
5
142
100
AcDbEntity
8
0
100
AcDbCircle
10
-244.85600000000002
20
66.230999999999995
30
0
40
1.9939
210
0
220
0
230
1
0
CIRCLE
5
143
100
AcDbEntity
8
0
100
AcDbCircle
10
-258.82600000000002
20
66.230999999999995
30
0
40
0.87500000000000011
210
0
220
0
230
1
0
CIRCLE
5
144
100
AcDbEntity
8
0
100
AcDbCircle
10
-220.726
20
66.230999999999995
30
0
40
0.87500000000000011
210
0
220
0
230
1
0
CIRCLE
5
145
100
AcDbEntity
8
0
100
AcDbCircle
10
-43.561000000000007
20
63.817999999999998
30
0
40
1.9939
210
0
220
0
230
1
0
CIRCLE
5
146
100
AcDbEntity
8
0
100
AcDbCircle
10
-59.436
20
104.33100000000002
30
0
40
0.87500000000000011
210
0
220
0
230
1
0
CIRCLE
5
147
100
AcDbEntity
8
0
100
AcDbCircle
10
-43.561000000000007
20
87.694000000000017
30
0
40
1.9939
210
0
220
0
230
1
0
CIRCLE
5
148
100
AcDbEntity
8
0
100
AcDbCircle
10
-68.325999999999993
20
104.33100000000002
30
0
40
0.87500000000000011
210
0
220
0
230
1
0
CIRCLE
5
149
100
AcDbEntity
8
0
100
AcDbCircle
10
-72.135999999999996
20
71.311000000000007
30
0
40
0.52000000000000002
210
0
220
0
230
1
0
CIRCLE
5
150
100
AcDbEntity
8
0
100
AcDbCircle
10
-75.945999999999998
20
80.200999999999993
30
0
40
0.73499999999999999
210
0
220
0
230
1
0
CIRCLE
5
151
100
AcDbEntity
8
0
100
AcDbCircle
10
-112.459
20
106.554
30
0
40
0.73499999999999999
210
0
220
0
230
1
0
CIRCLE
5
152
100
AcDbEntity
8
0
100
AcDbCircle
10
-93.725999999999999
20
71.311000000000007
30
0
40
0.52000000000000002
210
0
220
0
230
1
0
CIRCLE
5
153
100
AcDbEntity
8
0
100
AcDbCircle
10
-93.725999999999999
20
90.361000000000018
30
0
40
0.52000000000000002
210
0
220
0
230
1
0
CIRCLE
5
154
100
AcDbEntity
8
0
100
AcDbCircle
10
-92.456000000000017
20
66.230999999999995
30
0
40
1.9939
210
0
220
0
230
1
0
CIRCLE
5
155
100
AcDbEntity
8
0
100
AcDbCircle
10
-56.896000000000001
20
118.30100000000002
30
0
40
0.73499999999999999
210
0
220
0
230
1
0
CIRCLE
5
156
100
AcDbEntity
8
0
100
AcDbCircle
10
-72.135999999999996
20
109.411
30
0
40
0.52000000000000002
210
0
220
0
230
1
0
CIRCLE
5
157
100
AcDbEntity
8
0
100
AcDbCircle
10
-75.945999999999998
20
118.30100000000002
30
0
40
0.73499999999999999
210
0
220
0
230
1
0
CIRCLE
5
158
100
AcDbEntity
8
0
100
AcDbCircle
10
-187.86449999999999
20
118.30100000000002
30
0
40
0.73499999999999999
210
0
220
0
230
1
0
CIRCLE
5
159
100
AcDbEntity
8
0
100
AcDbCircle
10
-148.17724999999999
20
101.791
30
0
40
0.73499999999999999
210
0
220
0
230
1
0
CIRCLE
5
160
100
AcDbEntity
8
0
100
AcDbCircle
10
-150.71725000000001
20
109.411
30
0
40
0.52000000000000002
210
0
220
0
230
1
0
CIRCLE
5
161
100
AcDbEntity
8
0
100
AcDbCircle
10
-164.05200000000002
20
118.30100000000002
30
0
40
0.73499999999999999
210
0
220
0
230
1
0
CIRCLE
5
162
100
AcDbEntity
8
0
100
AcDbCircle
10
-166.43325000000002
20
118.30100000000002
30
0
40
0.73499999999999999
210
0
220
0
230
1
0
CIRCLE
5
163
100
AcDbEntity
8
0
100
AcDbCircle
10
-163.92525000000003
20
112.58600000000001
30
0
40
1.9939
210
0
220
0
230
1
0
CIRCLE
5
164
100
AcDbEntity
8
0
100
AcDbCircle
10
-144.84350000000001
20
66.230999999999995
30
0
40
1.9939
210
0
220
0
230
1
0
CIRCLE
5
165
100
AcDbEntity
8
0
100
AcDbCircle
10
-163.57600000000002
20
66.230999999999995
30
0
40
0.87500000000000011
210
0
220
0
230
1
0
CIRCLE
5
166
100
AcDbEntity
8
0
100
AcDbCircle
10
-187.70599999999999
20
66.230999999999995
30
0
40
1.9939
210
0
220
0
230
1
0
CIRCLE
5
167
100
AcDbEntity
8
0
100
AcDbCircle
10
-149.76474999999999
20
80.200999999999993
30
0
40
0.73499999999999999
210
0
220
0
230
1
0
CIRCLE
5
168
100
AcDbEntity
8
0
100
AcDbCircle
10
-138.65174999999999
20
82.741000000000014
30
0
40
0.73499999999999999
210
0
220
0
230
1
0
CIRCLE
5
169
100
AcDbEntity
8
0
100
AcDbCircle
10
-205.48599999999999
20
71.311000000000007
30
0
40
0.52000000000000002
210
0
220
0
230
1
0
CIRCLE
5
170
100
AcDbEntity
8
0
100
AcDbCircle
10
-197.54850000000002
20
85.281000000000006
30
0
40
0.87500000000000011
210
0
220
0
230
1
0
CIRCLE
5
171
100
AcDbEntity
8
0
100
AcDbCircle
10
-73.406000000000006
20
123.381
30
0
40
1.9939
210
0
220
0
230
1
0
CIRCLE
5
172
100
AcDbEntity
8
0
100
AcDbCircle
10
-78.486000000000018
20
123.381
30
0
40
0.87500000000000011
210
0
220
0
230
1
0
CIRCLE
5
173
100
AcDbEntity
8
0
100
AcDbCircle
10
-112.459
20
125.60400000000001
30
0
40
0.73499999999999999
210
0
220
0
230
1
0
CIRCLE
5
174
100
AcDbEntity
8
0
100
AcDbCircle
10
-93.40900000000002
20
125.60400000000001
30
0
40
0.73499999999999999
210
0
220
0
230
1
0
CIRCLE
5
175
100
AcDbEntity
8
0
100
AcDbCircle
10
-99.759000000000015
20
123.06399999999999
30
0
40
0.73499999999999999
210
0
220
0
230
1
0
CIRCLE
5
176
100
AcDbEntity
8
0
100
AcDbCircle
10
-157.702
20
120.84099999999999
30
0
40
0.73499999999999999
210
0
220
0
230
1
0
CIRCLE
5
177
100
AcDbEntity
8
0
100
AcDbCircle
10
-156.43200000000002
20
123.381
30
0
40
0.87500000000000011
210
0
220
0
230
1
0
CIRCLE
5
178
100
AcDbEntity
8
0
100
AcDbCircle
10
-131.50900000000001
20
125.60400000000001
30
0
40
0.73499999999999999
210
0
220
0
230
1
0
CIRCLE
5
179
100
AcDbEntity
8
0
100
AcDbCircle
10
-137.85900000000001
20
123.06399999999999
30
0
40
0.73499999999999999
210
0
220
0
230
1
0
CIRCLE
5
180
100
AcDbEntity
8
0
100
AcDbCircle
10
-118.809
20
123.06399999999999
30
0
40
0.73499999999999999
210
0
220
0
230
1
0
CIRCLE
5
181
100
AcDbEntity
8
0
100
AcDbCircle
10
-43.561000000000007
20
125.794
30
0
40
1.9939
210
0
220
0
230
1
0
CIRCLE
5
182
100
AcDbEntity
8
0
100
AcDbCircle
10
-50.546000000000006
20
120.84099999999999
30
0
40
0.73499999999999999
210
0
220
0
230
1
0
CIRCLE
5
183
100
AcDbEntity
8
0
100
AcDbCircle
10
-49.27600000000001
20
123.381
30
0
40
0.87500000000000011
210
0
220
0
230
1
0
CIRCLE
5
184
100
AcDbEntity
8
0
100
AcDbCircle
10
-59.436
20
123.381
30
0
40
0.87500000000000011
210
0
220
0
230
1
0
CIRCLE
5
185
100
AcDbEntity
8
0
100
AcDbCircle
10
-54.356000000000009
20
123.381
30
0
40
1.9939
210
0
220
0
230
1
0
CIRCLE
5
186
100
AcDbEntity
8
0
100
AcDbCircle
10
-68.325999999999993
20
123.381
30
0
40
0.87500000000000011
210
0
220
0
230
1
0
CIRCLE
5
187
100
AcDbEntity
8
0
100
AcDbCircle
10
-69.596000000000004
20
120.84099999999999
30
0
40
0.73499999999999999
210
0
220
0
230
1
0
CIRCLE
5
188
100
AcDbEntity
8
0
100
AcDbCircle
10
-160.08324999999999
20
120.84099999999999
30
0
40
0.73499999999999999
210
0
220
0
230
1
0
CIRCLE
5
189
100
AcDbEntity
8
0
100
AcDbCircle
10
-94.995999999999995
20
42.100999999999999
30
0
40
0.73499999999999999
210
0
220
0
230
1
0
CIRCLE
5
190
100
AcDbEntity
8
0
100
AcDbCircle
10
-345.82100000000003
20
44.641000000000005
30
0
40
0.73499999999999999
210
0
220
0
230
1
0
CIRCLE
5
191
100
AcDbEntity
8
0
100
AcDbCircle
10
-231.52100000000002
20
44.641000000000005
30
0
40
0.73499999999999999
210
0
220
0
230
1
0
CIRCLE
5
192
100
AcDbEntity
8
0
100
AcDbCircle
10
-141.351
20
52.26100000000001
30
0
40
0.52000000000000002
210
0
220
0
230
1
0
CIRCLE
5
193
100
AcDbEntity
8
0
100
AcDbCircle
10
-297.56099999999998
20
47.180999999999997
30
0
40
0.87500000000000011
210
0
220
0
230
1
0
CIRCLE
5
194
100
AcDbEntity
8
0
100
AcDbCircle
10
-259.46100000000001
20
47.180999999999997
30
0
40
0.87500000000000011
210
0
220
0
230
1
0
CIRCLE
5
195
100
AcDbEntity
8
0
100
AcDbCircle
10
-138.81100000000001
20
52.26100000000001
30
0
40
0.52000000000000002
210
0
220
0
230
1
0
CIRCLE
5
196
100
AcDbEntity
8
0
100
AcDbCircle
10
-111.18899999999999
20
47.180999999999997
30
0
40
0.87500000000000011
210
0
220
0
230
1
0
CIRCLE
5
197
100
AcDbEntity
8
0
100
AcDbCircle
10
-80.822800000000001
20
59.029600000000002
30
0
40
0.5
210
0
220
0
230
1
0
CIRCLE
5
198
100
AcDbEntity
8
0
100
AcDbCircle
10
-69.596000000000004
20
20.828000000000003
30
0
40
0.73499999999999999
210
0
220
0
230
1
0
CIRCLE
5
199
100
AcDbEntity
8
0
100
AcDbCircle
10
-74.676000000000016
20
28.448
30
0
40
0.52000000000000002
210
0
220
0
230
1
0
CIRCLE
5
200
100
AcDbEntity
8
0
100
AcDbCircle
10
-162.624
20
28.448
30
0
40
0.52000000000000002
210
0
220
0
230
1
0
CIRCLE
5
201
100
AcDbEntity
8
0
100
AcDbCircle
10
-160.084
20
20.828000000000003
30
0
40
0.73499999999999999
210
0
220
0
230
1
0
CIRCLE
5
202
100
AcDbEntity
8
0
100
AcDbCircle
10
-141.351
20
28.448
30
0
40
0.52000000000000002
210
0
220
0
230
1
0
CIRCLE
5
203
100
AcDbEntity
8
0
100
AcDbCircle
10
-116.26900000000001
20
23.367999999999999
30
0
40
1.9939
210
0
220
0
230
1
0
CIRCLE
5
204
100
AcDbEntity
8
0
100
AcDbCircle
10
-368.99799999999999
20
23.367999999999999
30
0
40
0.87500000000000011
210
0
220
0
230
1
0
CIRCLE
5
205
100
AcDbEntity
8
0
100
AcDbCircle
10
-226.12400000000002
20
23.367999999999999
30
0
40
0.87500000000000011
210
0
220
0
230
1
0
CIRCLE
5
206
100
AcDbEntity
8
0
100
AcDbCircle
10
-246.126
20
28.448
30
0
40
0.52000000000000002
210
0
220
0
230
1
0
CIRCLE
5
207
100
AcDbEntity
8
0
100
AcDbCircle
10
-241.04600000000002
20
20.828000000000003
30
0
40
0.73499999999999999
210
0
220
0
230
1
0
CIRCLE
5
208
100
AcDbEntity
8
0
100
AcDbCircle
10
-72.135999999999996
20
128.46100000000001
30
0
40
0.52000000000000002
210
0
220
0
230
1
0
CIRCLE
5
209
100
AcDbEntity
8
0
100
AcDbCircle
10
-74.676000000000016
20
128.46100000000001
30
0
40
0.52000000000000002
210
0
220
0
230
1
0
CIRCLE
5
210
100
AcDbEntity
8
0
100
AcDbCircle
10
-92.13900000000001
20
128.14400000000001
30
0
40
0.87500000000000011
210
0
220
0
230
1
0
CIRCLE
5
211
100
AcDbEntity
8
0
100
AcDbCircle
10
-97.218999999999994
20
128.14400000000001
30
0
40
1.9939
210
0
220
0
230
1
0
CIRCLE
5
212
100
AcDbEntity
8
0
100
AcDbCircle
10
-102.29900000000001
20
128.14400000000001
30
0
40
0.87500000000000011
210
0
220
0
230
1
0
CIRCLE
5
213
100
AcDbEntity
8
0
100
AcDbCircle
10
-116.26900000000001
20
128.14400000000001
30
0
40
1.9939
210
0
220
0
230
1
0
CIRCLE
5
214
100
AcDbEntity
8
0
100
AcDbCircle
10
-111.18899999999999
20
128.14400000000001
30
0
40
0.87500000000000011
210
0
220
0
230
1
0
CIRCLE
5
215
100
AcDbEntity
8
0
100
AcDbCircle
10
-165.16325000000001
20
128.46100000000001
30
0
40
0.52000000000000002
210
0
220
0
230
1
0
CIRCLE
5
216
100
AcDbEntity
8
0
100
AcDbCircle
10
-160.24200000000002
20
128.46100000000001
30
0
40
0.52000000000000002
210
0
220
0
230
1
0
CIRCLE
5
217
100
AcDbEntity
8
0
100
AcDbCircle
10
-121.34900000000002
20
128.14400000000001
30
0
40
0.87500000000000011
210
0
220
0
230
1
0
CIRCLE
5
218
100
AcDbEntity
8
0
100
AcDbCircle
10
-135.31900000000002
20
128.14400000000001
30
0
40
1.9939
210
0
220
0
230
1
0
CIRCLE
5
219
100
AcDbEntity
8
0
100
AcDbCircle
10
-130.239
20
128.14400000000001
30
0
40
0.87500000000000011
210
0
220
0
230
1
0
CIRCLE
5
220
100
AcDbEntity
8
0
100
AcDbCircle
10
-140.399
20
128.14400000000001
30
0
40
0.87500000000000011
210
0
220
0
230
1
0
CIRCLE
5
221
100
AcDbEntity
8
0
100
AcDbCircle
10
-53.085999999999999
20
128.46100000000001
30
0
40
0.52000000000000002
210
0
220
0
230
1
0
CIRCLE
5
222
100
AcDbEntity
8
0
100
AcDbCircle
10
-55.625999999999998
20
128.46100000000001
30
0
40
0.52000000000000002
210
0
220
0
230
1
0
CIRCLE
5
223
100
AcDbEntity
8
0
100
AcDbCircle
10
-408.05074999999999
20
128.46100000000001
30
0
40
0.52000000000000002
210
0
220
0
230
1
0
CIRCLE
5
224
100
AcDbEntity
8
0
100
AcDbCircle
10
-403.28825000000001
20
128.46100000000001
30
0
40
0.52000000000000002
210
0
220
0
230
1
0
CIRCLE
5
225
100
AcDbEntity
8
0
100
AcDbCircle
10
-405.51074999999997
20
128.46100000000001
30
0
40
0.52000000000000002
210
0
220
0
230
1
0
CIRCLE
5
226
100
AcDbEntity
8
0
100
AcDbCircle
10
-396.93825000000004
20
123.381
30
0
40
0.87500000000000011
210
0
220
0
230
1
0
CIRCLE
5
227
100
AcDbEntity
8
0
100
AcDbCircle
10
-400.74825000000004
20
128.46100000000001
30
0
40
0.52000000000000002
210
0
220
0
230
1
0
CIRCLE
5
228
100
AcDbEntity
8
0
100
AcDbCircle
10
-406.93950000000001
20
118.30100000000002
30
0
40
0.73499999999999999
210
0
220
0
230
1
0
CIRCLE
5
229
100
AcDbEntity
8
0
100
AcDbCircle
10
-400.58950000000004
20
120.84099999999999
30
0
40
0.73499999999999999
210
0
220
0
230
1
0
CIRCLE
5
230
100
AcDbEntity
8
0
100
AcDbCircle
10
-402.05025000000006
20
112.58600000000001
30
0
40
1.9939
210
0
220
0
230
1
0
CIRCLE
5
231
100
AcDbEntity
8
0
100
AcDbCircle
10
-393.60475000000008
20
90.361000000000018
30
0
40
0.52000000000000002
210
0
220
0
230
1
0
CIRCLE
5
232
100
AcDbEntity
8
0
100
AcDbCircle
10
-392.65224999999998
20
99.251000000000005
30
0
40
0.73499999999999999
210
0
220
0
230
1
0
CIRCLE
5
233
100
AcDbEntity
8
0
100
AcDbCircle
10
-396.14474999999999
20
90.361000000000018
30
0
40
0.52000000000000002
210
0
220
0
230
1
0
CIRCLE
5
234
100
AcDbEntity
8
0
100
AcDbCircle
10
-406.81274999999999
20
92.26600000000002
30
0
40
1.524
210
0
220
0
230
1
0
CIRCLE
5
235
100
AcDbEntity
8
0
100
AcDbCircle
10
-402.05025000000006
20
97.346000000000004
30
0
40
1.524
210
0
220
0
230
1
0
CIRCLE
5
236
100
AcDbEntity
8
0
100
AcDbCircle
10
-390.11225000000002
20
104.33100000000002
30
0
40
1.9939
210
0
220
0
230
1
0
CIRCLE
5
237
100
AcDbEntity
8
0
100
AcDbCircle
10
-384.23824999999999
20
128.46100000000001
30
0
40
0.52000000000000002
210
0
220
0
230
1
0
CIRCLE
5
238
100
AcDbEntity
8
0
100
AcDbCircle
10
-379.47575000000001
20
128.46100000000001
30
0
40
0.52000000000000002
210
0
220
0
230
1
0
CIRCLE
5
239
100
AcDbEntity
8
0
100
AcDbCircle
10
-381.69824999999997
20
128.46100000000001
30
0
40
0.52000000000000002
210
0
220
0
230
1
0
CIRCLE
5
240
100
AcDbEntity
8
0
100
AcDbCircle
10
-374.71325000000002
20
128.46100000000001
30
0
40
0.52000000000000002
210
0
220
0
230
1
0
CIRCLE
5
241
100
AcDbEntity
8
0
100
AcDbCircle
10
-376.93575000000004
20
128.46100000000001
30
0
40
0.52000000000000002
210
0
220
0
230
1
0
CIRCLE
5
242
100
AcDbEntity
8
0
100
AcDbCircle
10
-372.17325000000005
20
128.46100000000001
30
0
40
0.52000000000000002
210
0
220
0
230
1
0
CIRCLE
5
243
100
AcDbEntity
8
0
100
AcDbCircle
10
-385.50825000000003
20
118.30100000000002
30
0
40
0.73499999999999999
210
0
220
0
230
1
0
CIRCLE
5
244
100
AcDbEntity
8
0
100
AcDbCircle
10
-380.74575000000004
20
118.30100000000002
30
0
40
0.73499999999999999
210
0
220
0
230
1
0
CIRCLE
5
245
100
AcDbEntity
8
0
100
AcDbCircle
10
-383.12700000000001
20
118.30100000000002
30
0
40
0.73499999999999999
210
0
220
0
230
1
0
CIRCLE
5
246
100
AcDbEntity
8
0
100
AcDbCircle
10
-375.98325
20
118.30100000000002
30
0
40
0.73499999999999999
210
0
220
0
230
1
0
CIRCLE
5
247
100
AcDbEntity
8
0
100
AcDbCircle
10
-391.38225000000006
20
109.411
30
0
40
0.52000000000000002
210
0
220
0
230
1
0
CIRCLE
5
248
100
AcDbEntity
8
0
100
AcDbCircle
10
-388.04825
20
123.381
30
0
40
0.87500000000000011
210
0
220
0
230
1
0
CIRCLE
5
249
100
AcDbEntity
8
0
100
AcDbCircle
10
-385.31800000000004
20
40.195999999999998
30
0
40
1.524
210
0
220
0
230
1
0
CIRCLE
5
250
100
AcDbEntity
8
0
100
AcDbCircle
10
-393.44600000000008
20
44.641000000000005
30
0
40
0.73499999999999999
210
0
220
0
230
1
0
CIRCLE
5
251
100
AcDbEntity
8
0
100
AcDbCircle
10
-397.25599999999997
20
47.180999999999997
30
0
40
1.9939
210
0
220
0
230
1
0
CIRCLE
5
252
100
AcDbEntity
8
0
100
AcDbCircle
10
-392.17600000000004
20
47.180999999999997
30
0
40
0.87500000000000011
210
0
220
0
230
1
0
CIRCLE
5
253
100
AcDbEntity
8
0
100
AcDbCircle
10
-399.79600000000005
20
42.100999999999999
30
0
40
0.73499999999999999
210
0
220
0
230
1
0
CIRCLE
5
254
100
AcDbEntity
8
0
100
AcDbCircle
10
-402.33600000000001
20
47.180999999999997
30
0
40
0.87500000000000011
210
0
220
0
230
1
0
CIRCLE
5
255
100
AcDbEntity
8
0
100
AcDbCircle
10
-399.31975
20
75.756
30
0
40
0.87500000000000011
210
0
220
0
230
1
0
CIRCLE
5
256
100
AcDbEntity
8
0
100
AcDbCircle
10
-399.47850000000005
20
71.311000000000007
30
0
40
0.73499999999999999
210
0
220
0
230
1
0
CIRCLE
5
257
100
AcDbEntity
8
0
100
AcDbCircle
10
-400.58975000000004
20
73.216000000000008
30
0
40
0.73499999999999999
210
0
220
0
230
1
0
CIRCLE
5
258
100
AcDbEntity
8
0
100
AcDbCircle
10
-402.01850000000007
20
66.230999999999995
30
0
40
1.9939
210
0
220
0
230
1
0
CIRCLE
5
259
100
AcDbEntity
8
0
100
AcDbCircle
10
-396.93849999999998
20
66.230999999999995
30
0
40
0.87500000000000011
210
0
220
0
230
1
0
CIRCLE
5
260
100
AcDbEntity
8
0
100
AcDbCircle
10
-383.286
20
66.230999999999995
30
0
40
0.87500000000000011
210
0
220
0
230
1
0
CIRCLE
5
261
100
AcDbEntity
8
0
100
AcDbCircle
10
-397.41475000000008
20
63.817999999999998
30
0
40
1.524
210
0
220
0
230
1
0
CIRCLE
5
262
100
AcDbEntity
8
0
100
AcDbCircle
10
-400.74849999999998
20
61.15100000000001
30
0
40
0.52000000000000002
210
0
220
0
230
1
0
CIRCLE
5
263
100
AcDbEntity
8
0
100
AcDbCircle
10
-403.2885
20
61.15100000000001
30
0
40
0.52000000000000002
210
0
220
0
230
1
0
CIRCLE
5
264
100
AcDbEntity
8
0
100
AcDbCircle
10
-379.1585
20
82.741000000000014
30
0
40
0.73499999999999999
210
0
220
0
230
1
0
CIRCLE
5
265
100
AcDbEntity
8
0
100
AcDbCircle
10
-391.06475
20
82.741000000000014
30
0
40
0.73499999999999999
210
0
220
0
230
1
0
CIRCLE
5
266
100
AcDbEntity
8
0
100
AcDbCircle
10
-403.12975
20
80.836000000000013
30
0
40
0.52000000000000002
210
0
220
0
230
1
0
CIRCLE
5
267
100
AcDbEntity
8
0
100
AcDbCircle
10
-397.41475000000008
20
80.200999999999993
30
0
40
0.73499999999999999
210
0
220
0
230
1
0
CIRCLE
5
268
100
AcDbEntity
8
0
100
AcDbCircle
10
-406.93975
20
70.676000000000002
30
0
40
0.73499999999999999
210
0
220
0
230
1
0
CIRCLE
5
269
100
AcDbEntity
8
0
100
AcDbCircle
10
-405.82850000000008
20
68.771000000000001
30
0
40
0.73499999999999999
210
0
220
0
230
1
0
CIRCLE
5
270
100
AcDbEntity
8
0
100
AcDbCircle
10
-407.09850000000006
20
66.230999999999995
30
0
40
0.87500000000000011
210
0
220
0
230
1
0
CIRCLE
5
271
100
AcDbEntity
8
0
100
AcDbCircle
10
-405.66975000000008
20
80.836000000000013
30
0
40
0.52000000000000002
210
0
220
0
230
1
0
CIRCLE
5
272
100
AcDbEntity
8
0
100
AcDbCircle
10
-381.69850000000002
20
90.361000000000018
30
0
40
0.52000000000000002
210
0
220
0
230
1
0
CIRCLE
5
273
100
AcDbEntity
8
0
100
AcDbCircle
10
-369.63324999999998
20
120.84099999999999
30
0
40
0.73499999999999999
210
0
220
0
230
1
0
CIRCLE
5
274
100
AcDbEntity
8
0
100
AcDbCircle
10
-350.58350000000007
20
101.791
30
0
40
0.73499999999999999
210
0
220
0
230
1
0
CIRCLE
5
275
100
AcDbEntity
8
0
100
AcDbCircle
10
-349.94850000000008
20
85.281000000000006
30
0
40
0.87500000000000011
210
0
220
0
230
1
0
CIRCLE
5
276
100
AcDbEntity
8
0
100
AcDbCircle
10
-358.83850000000001
20
85.281000000000006
30
0
40
0.87500000000000011
210
0
220
0
230
1
0
CIRCLE
5
277
100
AcDbEntity
8
0
100
AcDbCircle
10
-350.90100000000001
20
52.26100000000001
30
0
40
0.52000000000000002
210
0
220
0
230
1
0
CIRCLE
5
278
100
AcDbEntity
8
0
100
AcDbCircle
10
-359.15600000000006
20
66.230999999999995
30
0
40
1.9939
210
0
220
0
230
1
0
CIRCLE
5
279
100
AcDbEntity
8
0
100
AcDbCircle
10
-361.69600000000003
20
61.15100000000001
30
0
40
0.73499999999999999
210
0
220
0
230
1
0
CIRCLE
5
280
100
AcDbEntity
8
0
100
AcDbCircle
10
-364.87099999999998
20
44.641000000000005
30
0
40
0.73499999999999999
210
0
220
0
230
1
0
CIRCLE
5
281
100
AcDbEntity
8
0
100
AcDbCircle
10
-349.63074999999998
20
130.36600000000001
30
0
40
1.524
210
0
220
0
230
1
0
CIRCLE
5
282
100
AcDbEntity
8
0
100
AcDbCircle
10
-360.267
20
128.46100000000001
30
0
40
0.52000000000000002
210
0
220
0
230
1
0
CIRCLE
5
283
100
AcDbEntity
8
0
100
AcDbCircle
10
-349.31325000000004
20
123.381
30
0
40
0.87500000000000011
210
0
220
0
230
1
0
CIRCLE
5
284
100
AcDbEntity
8
0
100
AcDbCircle
10
-352.96449999999999
20
120.84099999999999
30
0
40
0.73499999999999999
210
0
220
0
230
1
0
CIRCLE
5
285
100
AcDbEntity
8
0
100
AcDbCircle
10
-362.80700000000002
20
128.46100000000001
30
0
40
0.52000000000000002
210
0
220
0
230
1
0
CIRCLE
5
286
100
AcDbEntity
8
0
100
AcDbCircle
10
-358.04450000000003
20
128.46100000000001
30
0
40
0.52000000000000002
210
0
220
0
230
1
0
CIRCLE
5
287
100
AcDbEntity
8
0
100
AcDbCircle
10
-353.12324999999998
20
128.46100000000001
30
0
40
0.52000000000000002
210
0
220
0
230
1
0
CIRCLE
5
288
100
AcDbEntity
8
0
100
AcDbCircle
10
-356.93325000000004
20
118.30100000000002
30
0
40
0.73499999999999999
210
0
220
0
230
1
0
CIRCLE
5
289
100
AcDbEntity
8
0
100
AcDbCircle
10
-359.31450000000007
20
118.30100000000002
30
0
40
0.73499999999999999
210
0
220
0
230
1
0
CIRCLE
5
290
100
AcDbEntity
8
0
100
AcDbCircle
10
-364.077
20
118.30100000000002
30
0
40
0.73499999999999999
210
0
220
0
230
1
0
CIRCLE
5
291
100
AcDbEntity
8
0
100
AcDbCircle
10
-286.60700000000008
20
128.46100000000001
30
0
40
0.52000000000000002
210
0
220
0
230
1
0
CIRCLE
5
292
100
AcDbEntity
8
0
100
AcDbCircle
10
-293.75074999999998
20
128.46100000000001
30
0
40
0.52000000000000002
210
0
220
0
230
1
0
CIRCLE
5
293
100
AcDbEntity
8
0
100
AcDbCircle
10
-291.21075000000008
20
128.46100000000001
30
0
40
0.52000000000000002
210
0
220
0
230
1
0
CIRCLE
5
294
100
AcDbEntity
8
0
100
AcDbCircle
10
-285.49574999999999
20
118.30100000000002
30
0
40
0.73499999999999999
210
0
220
0
230
1
0
CIRCLE
5
295
100
AcDbEntity
8
0
100
AcDbCircle
10
-287.87700000000001
20
118.30100000000002
30
0
40
0.73499999999999999
210
0
220
0
230
1
0
CIRCLE
5
296
100
AcDbEntity
8
0
100
AcDbCircle
10
-288.67075
20
120.84099999999999
30
0
40
0.73499999999999999
210
0
220
0
230
1
0
CIRCLE
5
297
100
AcDbEntity
8
0
100
AcDbCircle
10
-295.02075000000002
20
118.30100000000002
30
0
40
0.73499999999999999
210
0
220
0
230
1
0
CIRCLE
5
298
100
AcDbEntity
8
0
100
AcDbCircle
10
-297.56074999999998
20
123.381
30
0
40
0.87500000000000011
210
0
220
0
230
1
0
CIRCLE
5
299
100
AcDbEntity
8
0
100
AcDbCircle
10
-317.56349999999998
20
109.411
30
0
40
0.52000000000000002
210
0
220
0
230
1
0
CIRCLE
5
300
100
AcDbEntity
8
0
100
AcDbCircle
10
-308.0385
20
90.361000000000018
30
0
40
0.52000000000000002
210
0
220
0
230
1
0
CIRCLE
5
301
100
AcDbEntity
8
0
100
AcDbCircle
10
-305.49849999999998
20
90.361000000000018
30
0
40
0.52000000000000002
210
0
220
0
230
1
0
CIRCLE
5
302
100
AcDbEntity
8
0
100
AcDbCircle
10
-330.57440000000008
20
130.36600000000001
30
0
40
1.524
210
0
220
0
230
1
0
CIRCLE
5
303
100
AcDbEntity
8
0
100
AcDbCircle
10
-330.58100000000002
20
47.180999999999997
30
0
40
1.9939
210
0
220
0
230
1
0
CIRCLE
5
304
100
AcDbEntity
8
0
100
AcDbCircle
10
-307.08600000000001
20
66.230999999999995
30
0
40
0.87500000000000011
210
0
220
0
230
1
0
CIRCLE
5
305
100
AcDbEntity
8
0
100
AcDbCircle
10
-330.89850000000007
20
85.281000000000006
30
0
40
0.87500000000000011
210
0
220
0
230
1
0
CIRCLE
5
306
100
AcDbEntity
8
0
100
AcDbCircle
10
-325.81849999999997
20
85.281000000000006
30
0
40
1.9939
210
0
220
0
230
1
0
CIRCLE
5
307
100
AcDbEntity
8
0
100
AcDbCircle
10
-328.35849999999999
20
80.200999999999993
30
0
40
0.73499999999999999
210
0
220
0
230
1
0
CIRCLE
5
308
100
AcDbEntity
8
0
100
AcDbCircle
10
-306.76850000000002
20
85.281000000000006
30
0
40
1.9939
210
0
220
0
230
1
0
CIRCLE
5
309
100
AcDbEntity
8
0
100
AcDbCircle
10
-335.33690000000001
20
130.36600000000001
30
0
40
1.524
210
0
220
0
230
1
0
CIRCLE
5
310
100
AcDbEntity
8
0
100
AcDbCircle
10
-346.13850000000008
20
90.361000000000018
30
0
40
0.52000000000000002
210
0
220
0
230
1
0
CIRCLE
5
311
100
AcDbEntity
8
0
100
AcDbCircle
10
-340.10575000000006
20
130.36600000000001
30
0
40
1.524
210
0
220
0
230
1
0
CIRCLE
5
312
100
AcDbEntity
8
0
100
AcDbCircle
10
-381.69800000000004
20
28.448
30
0
40
0.52000000000000002
210
0
220
0
230
1
0
CIRCLE
5
313
100
AcDbEntity
8
0
100
AcDbCircle
10
-327.08800000000002
20
28.448
30
0
40
0.52000000000000002
210
0
220
0
230
1
0
CIRCLE
5
314
100
AcDbEntity
8
0
100
AcDbCircle
10
-405.51100000000008
20
28.448
30
0
40
0.52000000000000002
210
0
220
0
230
1
0
CIRCLE
5
315
100
AcDbEntity
8
0
100
AcDbCircle
10
-379.15800000000002
20
20.828000000000003
30
0
40
0.73499999999999999
210
0
220
0
230
1
0
CIRCLE
5
316
100
AcDbEntity
8
0
100
AcDbCircle
10
-382.96800000000007
20
23.367999999999999
30
0
40
1.9939
210
0
220
0
230
1
0
CIRCLE
5
317
100
AcDbEntity
8
0
100
AcDbCircle
10
-388.048
20
23.367999999999999
30
0
40
0.87500000000000011
210
0
220
0
230
1
0
CIRCLE
5
318
100
AcDbEntity
8
0
100
AcDbCircle
10
-401.70100000000002
20
23.367999999999999
30
0
40
0.87500000000000011
210
0
220
0
230
1
0
CIRCLE
5
319
100
AcDbEntity
8
0
100
AcDbCircle
10
-402.971
20
20.828000000000003
30
0
40
0.73499999999999999
210
0
220
0
230
1
0
CIRCLE
5
320
100
AcDbEntity
8
0
100
AcDbCircle
10
-168.97325000000001
20
123.381
30
0
40
0.87500000000000011
210
0
220
0
230
1
0
CIRCLE
5
321
100
AcDbEntity
8
0
100
AcDbCircle
10
-179.13325
20
120.84099999999999
30
0
40
0.73499999999999999
210
0
220
0
230
1
0
CIRCLE
5
322
100
AcDbEntity
8
0
100
AcDbCircle
10
-177.86325000000002
20
123.381
30
0
40
0.87500000000000011
210
0
220
0
230
1
0
CIRCLE
5
323
100
AcDbEntity
8
0
100
AcDbCircle
10
-177.86349999999999
20
104.33100000000002
30
0
40
0.87500000000000011
210
0
220
0
230
1
0
CIRCLE
5
324
100
AcDbEntity
8
0
100
AcDbCircle
10
-172.14850000000001
20
90.361000000000018
30
0
40
0.52000000000000002
210
0
220
0
230
1
0
CIRCLE
5
325
100
AcDbEntity
8
0
100
AcDbCircle
10
-175.95849999999999
20
80.200999999999993
30
0
40
0.73499999999999999
210
0
220
0
230
1
0
CIRCLE
5
326
100
AcDbEntity
8
0
100
AcDbCircle
10
-173.41849999999999
20
85.281000000000006
30
0
40
1.9939
210
0
220
0
230
1
0
CIRCLE
5
327
100
AcDbEntity
8
0
100
AcDbCircle
10
-184.21400000000003
20
28.448
30
0
40
0.52000000000000002
210
0
220
0
230
1
0
CIRCLE
5
328
100
AcDbEntity
8
0
100
AcDbCircle
10
-243.58600000000001
20
71.311000000000007
30
0
40
0.52000000000000002
210
0
220
0
230
1
0
CIRCLE
5
329
100
AcDbEntity
8
0
100
AcDbCircle
10
-235.64850000000004
20
85.281000000000006
30
0
40
0.87500000000000011
210
0
220
0
230
1
0
CIRCLE
5
330
100
AcDbEntity
8
0
100
AcDbCircle
10
-210.24850000000001
20
90.361000000000018
30
0
40
0.52000000000000002
210
0
220
0
230
1
0
CIRCLE
5
331
100
AcDbEntity
8
0
100
AcDbCircle
10
-212.78850000000003
20
90.361000000000018
30
0
40
0.52000000000000002
210
0
220
0
230
1
0
CIRCLE
5
332
100
AcDbEntity
8
0
100
AcDbCircle
10
-206.4385
20
85.281000000000006
30
0
40
0.87500000000000011
210
0
220
0
230
1
0
CIRCLE
5
333
100
AcDbEntity
8
0
100
AcDbCircle
10
-214.05824999999999
20
118.30100000000002
30
0
40
0.73499999999999999
210
0
220
0
230
1
0
CIRCLE
5
334
100
AcDbEntity
8
0
100
AcDbCircle
10
-235.01350000000002
20
104.33100000000002
30
0
40
0.87500000000000011
210
0
220
0
230
1
0
CIRCLE
5
335
100
AcDbEntity
8
0
100
AcDbCircle
10
-206.91450000000003
20
118.30100000000002
30
0
40
0.73499999999999999
210
0
220
0
230
1
0
CIRCLE
5
336
100
AcDbEntity
8
0
100
AcDbCircle
10
-211.67699999999999
20
118.30100000000002
30
0
40
0.73499999999999999
210
0
220
0
230
1
0
CIRCLE
5
337
100
AcDbEntity
8
0
100
AcDbCircle
10
-200.56450000000001
20
120.84099999999999
30
0
40
0.73499999999999999
210
0
220
0
230
1
0
CIRCLE
5
338
100
AcDbEntity
8
0
100
AcDbCircle
10
-207.70825000000002
20
120.84099999999999
30
0
40
0.73499999999999999
210
0
220
0
230
1
0
CIRCLE
5
339
100
AcDbEntity
8
0
100
AcDbCircle
10
-216.59825000000001
20
123.381
30
0
40
0.87500000000000011
210
0
220
0
230
1
0
CIRCLE
5
340
100
AcDbEntity
8
0
100
AcDbCircle
10
-190.24574999999999
20
118.30100000000002
30
0
40
0.73499999999999999
210
0
220
0
230
1
0
CIRCLE
5
341
100
AcDbEntity
8
0
100
AcDbCircle
10
-181.5145
20
120.84099999999999
30
0
40
0.73499999999999999
210
0
220
0
230
1
0
CIRCLE
5
342
100
AcDbEntity
8
0
100
AcDbCircle
10
-199.29450000000003
20
123.381
30
0
40
0.87500000000000011
210
0
220
0
230
1
0
CIRCLE
5
343
100
AcDbEntity
8
0
100
AcDbCircle
10
-192.78575000000004
20
123.381
30
0
40
0.87500000000000011
210
0
220
0
230
1
0
CIRCLE
5
344
100
AcDbEntity
8
0
100
AcDbCircle
10
-185.48325000000003
20
118.30100000000002
30
0
40
0.73499999999999999
210
0
220
0
230
1
0
CIRCLE
5
345
100
AcDbEntity
8
0
100
AcDbCircle
10
-225.80574999999999
20
130.36600000000001
30
0
40
1.524
210
0
220
0
230
1
0
CIRCLE
5
346
100
AcDbEntity
8
0
100
AcDbCircle
10
-212.78825000000001
20
128.46100000000001
30
0
40
0.52000000000000002
210
0
220
0
230
1
0
CIRCLE
5
347
100
AcDbEntity
8
0
100
AcDbCircle
10
-188.97575000000001
20
128.46100000000001
30
0
40
0.52000000000000002
210
0
220
0
230
1
0
CIRCLE
5
348
100
AcDbEntity
8
0
100
AcDbCircle
10
-207.86699999999999
20
128.46100000000001
30
0
40
0.52000000000000002
210
0
220
0
230
1
0
CIRCLE
5
349
100
AcDbEntity
8
0
100
AcDbCircle
10
-205.64449999999999
20
128.46100000000001
30
0
40
0.52000000000000002
210
0
220
0
230
1
0
CIRCLE
5
350
100
AcDbEntity
8
0
100
AcDbCircle
10
-203.10450000000003
20
128.46100000000001
30
0
40
0.52000000000000002
210
0
220
0
230
1
0
CIRCLE
5
351
100
AcDbEntity
8
0
100
AcDbCircle
10
-181.67325000000002
20
128.46100000000001
30
0
40
0.52000000000000002
210
0
220
0
230
1
0
CIRCLE
5
352
100
AcDbEntity
8
0
100
AcDbCircle
10
-184.21324999999999
20
128.46100000000001
30
0
40
0.52000000000000002
210
0
220
0
230
1
0
CIRCLE
5
353
100
AcDbEntity
8
0
100
AcDbCircle
10
-186.43575000000001
20
128.46100000000001
30
0
40
0.52000000000000002
210
0
220
0
230
1
0
CIRCLE
5
354
100
AcDbEntity
8
0
100
AcDbCircle
10
-230.57460000000003
20
130.36600000000001
30
0
40
1.524
210
0
220
0
230
1
0
CIRCLE
5
355
100
AcDbEntity
8
0
100
AcDbCircle
10
-254.06350000000003
20
104.33100000000002
30
0
40
0.87500000000000011
210
0
220
0
230
1
0
CIRCLE
5
356
100
AcDbEntity
8
0
100
AcDbCircle
10
-283.27350000000001
20
104.33100000000002
30
0
40
0.87500000000000011
210
0
220
0
230
1
0
CIRCLE
5
357
100
AcDbEntity
8
0
100
AcDbCircle
10
-264.85849999999999
20
82.741000000000014
30
0
40
0.73499999999999999
210
0
220
0
230
1
0
CIRCLE
5
358
100
AcDbEntity
8
0
100
AcDbCircle
10
-267.39850000000001
20
90.361000000000018
30
0
40
0.52000000000000002
210
0
220
0
230
1
0
CIRCLE
5
359
100
AcDbEntity
8
0
100
AcDbCircle
10
-279.30450000000002
20
128.46100000000001
30
0
40
0.52000000000000002
210
0
220
0
230
1
0
CIRCLE
5
360
100
AcDbEntity
8
0
100
AcDbCircle
10
-275.49450000000002
20
123.381
30
0
40
0.87500000000000011
210
0
220
0
230
1
0
CIRCLE
5
361
100
AcDbEntity
8
0
100
AcDbCircle
10
-283.11450000000002
20
118.30100000000002
30
0
40
0.73499999999999999
210
0
220
0
230
1
0
CIRCLE
5
362
100
AcDbEntity
8
0
100
AcDbCircle
10
-276.7645
20
120.84099999999999
30
0
40
0.73499999999999999
210
0
220
0
230
1
0
CIRCLE
5
363
100
AcDbEntity
8
0
100
AcDbCircle
10
-37.845999999999997
20
18.288000000000004
30
0
40
0.73499999999999999
210
0
220
0
230
1
0
CIRCLE
5
364
100
AcDbEntity
8
0
100
AcDbCircle
10
-56.896000000000001
20
18.288000000000004
30
0
40
0.73499999999999999
210
0
220
0
230
1
0
CIRCLE
5
365
100
AcDbEntity
8
0
100
AcDbCircle
10
-50.546000000000006
20
20.828000000000003
30
0
40
0.73499999999999999
210
0
220
0
230
1
0
CIRCLE
5
366
100
AcDbEntity
8
0
100
AcDbCircle
10
-54.356000000000009
20
23.367999999999999
30
0
40
1.9939
210
0
220
0
230
1
0
CIRCLE
5
367
100
AcDbEntity
8
0
100
AcDbCircle
10
-40.38600000000001
20
23.367999999999999
30
0
40
0.87500000000000011
210
0
220
0
230
1
0
CIRCLE
5
368
100
AcDbEntity
8
0
100
AcDbCircle
10
-49.27600000000001
20
23.367999999999999
30
0
40
0.87500000000000011
210
0
220
0
230
1
0
CIRCLE
5
369
100
AcDbEntity
8
0
100
AcDbCircle
10
-56.896000000000001
20
42.100999999999999
30
0
40
0.73499999999999999
210
0
220
0
230
1
0
CIRCLE
5
370
100
AcDbEntity
8
0
100
AcDbCircle
10
-55.625999999999998
20
28.448
30
0
40
0.52000000000000002
210
0
220
0
230
1
0
CIRCLE
5
371
100
AcDbEntity
8
0
100
AcDbCircle
10
-53.085999999999999
20
28.448
30
0
40
0.52000000000000002
210
0
220
0
230
1
0
CIRCLE
5
372
100
AcDbEntity
8
0
100
AcDbCircle
10
-40.38600000000001
20
74.486000000000004
30
0
40
0.52000000000000002
210
0
220
0
230
1
0
CIRCLE
5
373
100
AcDbEntity
8
0
100
AcDbCircle
10
-53.085999999999999
20
71.311000000000007
30
0
40
0.52000000000000002
210
0
220
0
230
1
0
CIRCLE
5
374
100
AcDbEntity
8
0
100
AcDbCircle
10
-49.27600000000001
20
66.230999999999995
30
0
40
0.87500000000000011
210
0
220
0
230
1
0
CIRCLE
5
375
100
AcDbEntity
8
0
100
AcDbCircle
10
-55.625999999999998
20
71.311000000000007
30
0
40
0.52000000000000002
210
0
220
0
230
1
0
CIRCLE
5
376
100
AcDbEntity
8
0
100
AcDbCircle
10
-55.625999999999998
20
52.26100000000001
30
0
40
0.52000000000000002
210
0
220
0
230
1
0
CIRCLE
5
377
100
AcDbEntity
8
0
100
AcDbCircle
10
-53.085999999999999
20
52.26100000000001
30
0
40
0.52000000000000002
210
0
220
0
230
1
0
CIRCLE
5
378
100
AcDbEntity
8
0
100
AcDbCircle
10
-50.546000000000006
20
63.691000000000003
30
0
40
0.73499999999999999
210
0
220
0
230
1
0
CIRCLE
5
379
100
AcDbEntity
8
0
100
AcDbCircle
10
-54.356000000000009
20
66.230999999999995
30
0
40
1.9939
210
0
220
0
230
1
0
CIRCLE
5
380
100
AcDbEntity
8
0
100
AcDbCircle
10
-56.896000000000001
20
61.15100000000001
30
0
40
0.73499999999999999
210
0
220
0
230
1
0
CIRCLE
5
381
100
AcDbEntity
8
0
100
AcDbCircle
10
-49.27600000000001
20
47.180999999999997
30
0
40
0.87500000000000011
210
0
220
0
230
1
0
CIRCLE
5
382
100
AcDbEntity
8
0
100
AcDbCircle
10
-50.546000000000006
20
44.641000000000005
30
0
40
0.73499999999999999
210
0
220
0
230
1
0
CIRCLE
5
383
100
AcDbEntity
8
0
100
AcDbCircle
10
-54.356000000000009
20
47.180999999999997
30
0
40
1.9939
210
0
220
0
230
1
0
CIRCLE
5
384
100
AcDbEntity
8
0
100
AcDbCircle
10
-40.38600000000001
20
47.180999999999997
30
0
40
0.87500000000000011
210
0
220
0
230
1
0
CIRCLE
5
385
100
AcDbEntity
8
0
100
AcDbCircle
10
-59.436
20
23.367999999999999
30
0
40
0.87500000000000011
210
0
220
0
230
1
0
CIRCLE
5
386
100
AcDbEntity
8
0
100
AcDbCircle
10
-59.436
20
47.180999999999997
30
0
40
0.87500000000000011
210
0
220
0
230
1
0
CIRCLE
5
387
100
AcDbEntity
8
0
100
AcDbCircle
10
-59.436
20
66.230999999999995
30
0
40
0.87500000000000011
210
0
220
0
230
1
0
CIRCLE
5
388
100
AcDbEntity
8
0
100
AcDbCircle
10
-112.459
20
20.828000000000003
30
0
40
0.73499999999999999
210
0
220
0
230
1
0
CIRCLE
5
389
100
AcDbEntity
8
0
100
AcDbCircle
10
-111.18899999999999
20
23.367999999999999
30
0
40
0.87500000000000011
210
0
220
0
230
1
0
CIRCLE
5
390
100
AcDbEntity
8
0
100
AcDbCircle
10
-111.18899999999999
20
66.230999999999995
30
0
40
0.87500000000000011
210
0
220
0
230
1
0
CIRCLE
5
391
100
AcDbEntity
8
0
100
AcDbCircle
10
-112.459
20
63.691000000000003
30
0
40
0.73499999999999999
210
0
220
0
230
1
0
CIRCLE
5
392
100
AcDbEntity
8
0
100
AcDbCircle
10
-112.459
20
44.641000000000005
30
0
40
0.73499999999999999
210
0
220
0
230
1
0
CIRCLE
5
393
100
AcDbEntity
8
0
100
AcDbCircle
10
-92.456000000000017
20
23.367999999999999
30
0
40
1.9939
210
0
220
0
230
1
0
CIRCLE
5
394
100
AcDbEntity
8
0
100
AcDbCircle
10
-91.186000000000007
20
28.448
30
0
40
0.52000000000000002
210
0
220
0
230
1
0
CIRCLE
5
395
100
AcDbEntity
8
0
100
AcDbCircle
10
-93.725999999999999
20
28.448
30
0
40
0.52000000000000002
210
0
220
0
230
1
0
CIRCLE
5
396
100
AcDbEntity
8
0
100
AcDbCircle
10
-94.995999999999995
20
61.15100000000001
30
0
40
0.73499999999999999
210
0
220
0
230
1
0
CIRCLE
5
397
100
AcDbEntity
8
0
100
AcDbCircle
10
-93.725999999999999
20
52.26100000000001
30
0
40
0.52000000000000002
210
0
220
0
230
1
0
CIRCLE
5
398
100
AcDbEntity
8
0
100
AcDbCircle
10
-92.456000000000017
20
47.180999999999997
30
0
40
1.9939
210
0
220
0
230
1
0
CIRCLE
5
399
100
AcDbEntity
8
0
100
AcDbCircle
10
-91.186000000000007
20
52.26100000000001
30
0
40
0.52000000000000002
210
0
220
0
230
1
0
CIRCLE
5
400
100
AcDbEntity
8
0
100
AcDbCircle
10
-97.536000000000001
20
23.367999999999999
30
0
40
0.87500000000000011
210
0
220
0
230
1
0
CIRCLE
5
401
100
AcDbEntity
8
0
100
AcDbCircle
10
-97.536000000000001
20
66.230999999999995
30
0
40
0.87500000000000011
210
0
220
0
230
1
0
CIRCLE
5
402
100
AcDbEntity
8
0
100
AcDbCircle
10
-97.536000000000001
20
47.180999999999997
30
0
40
0.87500000000000011
210
0
220
0
230
1
0
CIRCLE
5
403
100
AcDbEntity
8
0
100
AcDbCircle
10
-73.406000000000006
20
23.367999999999999
30
0
40
1.9939
210
0
220
0
230
1
0
CIRCLE
5
404
100
AcDbEntity
8
0
100
AcDbCircle
10
-78.486000000000018
20
23.367999999999999
30
0
40
0.87500000000000011
210
0
220
0
230
1
0
CIRCLE
5
405
100
AcDbEntity
8
0
100
AcDbCircle
10
-88.646000000000015
20
20.828000000000003
30
0
40
0.73499999999999999
210
0
220
0
230
1
0
CIRCLE
5
406
100
AcDbEntity
8
0
100
AcDbCircle
10
-87.376000000000005
20
23.367999999999999
30
0
40
0.87500000000000011
210
0
220
0
230
1
0
CIRCLE
5
407
100
AcDbEntity
8
0
100
AcDbCircle
10
-72.135999999999996
20
28.448
30
0
40
0.52000000000000002
210
0
220
0
230
1
0
CIRCLE
5
408
100
AcDbEntity
8
0
100
AcDbCircle
10
-87.376000000000005
20
47.180999999999997
30
0
40
0.87500000000000011
210
0
220
0
230
1
0
CIRCLE
5
409
100
AcDbEntity
8
0
100
AcDbCircle
10
-88.646000000000015
20
44.641000000000005
30
0
40
0.73499999999999999
210
0
220
0
230
1
0
CIRCLE
5
410
100
AcDbEntity
8
0
100
AcDbCircle
10
-73.406000000000006
20
47.180999999999997
30
0
40
1.9939
210
0
220
0
230
1
0
CIRCLE
5
411
100
AcDbEntity
8
0
100
AcDbCircle
10
-78.486000000000018
20
47.180999999999997
30
0
40
0.87500000000000011
210
0
220
0
230
1
0
CIRCLE
5
412
100
AcDbEntity
8
0
100
AcDbCircle
10
-75.945999999999998
20
42.100999999999999
30
0
40
0.73499999999999999
210
0
220
0
230
1
0
CIRCLE
5
413
100
AcDbEntity
8
0
100
AcDbCircle
10
-83.362800000000007
20
59.029600000000002
30
0
40
0.5
210
0
220
0
230
1
0
CIRCLE
5
414
100
AcDbEntity
8
0
100
AcDbCircle
10
-80.822800000000001
20
56.48960000000001
30
0
40
0.5
210
0
220
0
230
1
0
CIRCLE
5
415
100
AcDbEntity
8
0
100
AcDbCircle
10
-83.362800000000007
20
56.48960000000001
30
0
40
0.5
210
0
220
0
230
1
0
CIRCLE
5
416
100
AcDbEntity
8
0
100
AcDbCircle
10
-74.676000000000016
20
52.26100000000001
30
0
40
0.52000000000000002
210
0
220
0
230
1
0
CIRCLE
5
417
100
AcDbEntity
8
0
100
AcDbCircle
10
-72.135999999999996
20
52.26100000000001
30
0
40
0.52000000000000002
210
0
220
0
230
1
0
CIRCLE
5
418
100
AcDbEntity
8
0
100
AcDbCircle
10
-85.902799999999999
20
59.029600000000002
30
0
40
0.5
210
0
220
0
230
1
0
CIRCLE
5
419
100
AcDbEntity
8
0
100
AcDbCircle
10
-85.902799999999999
20
56.48960000000001
30
0
40
0.5
210
0
220
0
230
1
0
CIRCLE
5
420
100
AcDbEntity
8
0
100
AcDbCircle
10
-87.376000000000005
20
66.230999999999995
30
0
40
0.87500000000000011
210
0
220
0
230
1
0
CIRCLE
5
421
100
AcDbEntity
8
0
100
AcDbCircle
10
-88.646000000000015
20
63.691000000000003
30
0
40
0.73499999999999999
210
0
220
0
230
1
0
CIRCLE
5
422
100
AcDbEntity
8
0
100
AcDbCircle
10
-73.406000000000006
20
66.230999999999995
30
0
40
1.9939
210
0
220
0
230
1
0
CIRCLE
5
423
100
AcDbEntity
8
0
100
AcDbCircle
10
-78.486000000000018
20
66.230999999999995
30
0
40
0.87500000000000011
210
0
220
0
230
1
0
CIRCLE
5
424
100
AcDbEntity
8
0
100
AcDbCircle
10
-75.945999999999998
20
61.15100000000001
30
0
40
0.73499999999999999
210
0
220
0
230
1
0
CIRCLE
5
425
100
AcDbEntity
8
0
100
AcDbCircle
10
-69.596000000000004
20
44.641000000000005
30
0
40
0.73499999999999999
210
0
220
0
230
1
0
CIRCLE
5
426
100
AcDbEntity
8
0
100
AcDbCircle
10
-68.325999999999993
20
23.367999999999999
30
0
40
0.87500000000000011
210
0
220
0
230
1
0
CIRCLE
5
427
100
AcDbEntity
8
0
100
AcDbCircle
10
-68.325999999999993
20
66.230999999999995
30
0
40
0.87500000000000011
210
0
220
0
230
1
0
CIRCLE
5
428
100
AcDbEntity
8
0
100
AcDbCircle
10
-69.596000000000004
20
63.691000000000003
30
0
40
0.73499999999999999
210
0
220
0
230
1
0
CIRCLE
5
429
100
AcDbEntity
8
0
100
AcDbCircle
10
-68.325999999999993
20
47.180999999999997
30
0
40
0.87500000000000011
210
0
220
0
230
1
0
CIRCLE
5
430
100
AcDbEntity
8
0
100
AcDbCircle
10
-94.995999999999995
20
18.288000000000004
30
0
40
0.73499999999999999
210
0
220
0
230
1
0
CIRCLE
5
431
100
AcDbEntity
8
0
100
AcDbCircle
10
-75.945999999999998
20
18.288000000000004
30
0
40
0.73499999999999999
210
0
220
0
230
1
0
CIRCLE
5
432
100
AcDbEntity
8
0
100
AcDbCircle
10
-91.186000000000007
20
71.311000000000007
30
0
40
0.52000000000000002
210
0
220
0
230
1
0
CIRCLE
5
433
100
AcDbEntity
8
0
100
AcDbCircle
10
-74.676000000000016
20
71.311000000000007
30
0
40
0.52000000000000002
210
0
220
0
230
1
0
CIRCLE
5
434
100
AcDbEntity
8
0
100
AcDbCircle
10
-155.321
20
44.641000000000005
30
0
40
0.73499999999999999
210
0
220
0
230
1
0
CIRCLE
5
435
100
AcDbEntity
8
0
100
AcDbCircle
10
-154.05099999999999
20
47.180999999999997
30
0
40
0.87500000000000011
210
0
220
0
230
1
0
CIRCLE
5
436
100
AcDbEntity
8
0
100
AcDbCircle
10
-145.161
20
47.180999999999997
30
0
40
0.87500000000000011
210
0
220
0
230
1
0
CIRCLE
5
437
100
AcDbEntity
8
0
100
AcDbCircle
10
-135.001
20
47.180999999999997
30
0
40
0.87500000000000011
210
0
220
0
230
1
0
CIRCLE
5
438
100
AcDbEntity
8
0
100
AcDbCircle
10
-136.27099999999999
20
44.641000000000005
30
0
40
0.73499999999999999
210
0
220
0
230
1
0
CIRCLE
5
439
100
AcDbEntity
8
0
100
AcDbCircle
10
-140.08099999999999
20
47.180999999999997
30
0
40
1.9939
210
0
220
0
230
1
0
CIRCLE
5
440
100
AcDbEntity
8
0
100
AcDbCircle
10
-117.53900000000002
20
52.26100000000001
30
0
40
0.52000000000000002
210
0
220
0
230
1
0
CIRCLE
5
441
100
AcDbEntity
8
0
100
AcDbCircle
10
-116.26900000000001
20
47.180999999999997
30
0
40
1.9939
210
0
220
0
230
1
0
CIRCLE
5
442
100
AcDbEntity
8
0
100
AcDbCircle
10
-121.34900000000002
20
47.180999999999997
30
0
40
0.87500000000000011
210
0
220
0
230
1
0
CIRCLE
5
443
100
AcDbEntity
8
0
100
AcDbCircle
10
-146.11349999999999
20
71.311000000000007
30
0
40
0.52000000000000002
210
0
220
0
230
1
0
CIRCLE
5
444
100
AcDbEntity
8
0
100
AcDbCircle
10
-143.5735
20
71.311000000000007
30
0
40
0.52000000000000002
210
0
220
0
230
1
0
CIRCLE
5
445
100
AcDbEntity
8
0
100
AcDbCircle
10
-117.53900000000002
20
71.311000000000007
30
0
40
0.52000000000000002
210
0
220
0
230
1
0
CIRCLE
5
446
100
AcDbEntity
8
0
100
AcDbCircle
10
-121.34900000000002
20
66.230999999999995
30
0
40
0.87500000000000011
210
0
220
0
230
1
0
CIRCLE
5
447
100
AcDbEntity
8
0
100
AcDbCircle
10
-139.76349999999999
20
66.230999999999995
30
0
40
0.87500000000000011
210
0
220
0
230
1
0
CIRCLE
5
448
100
AcDbEntity
8
0
100
AcDbCircle
10
-141.0335
20
63.691000000000003
30
0
40
0.73499999999999999
210
0
220
0
230
1
0
CIRCLE
5
449
100
AcDbEntity
8
0
100
AcDbCircle
10
-147.3835
20
61.15100000000001
30
0
40
0.73499999999999999
210
0
220
0
230
1
0
CIRCLE
5
450
100
AcDbEntity
8
0
100
AcDbCircle
10
-149.92349999999999
20
66.230999999999995
30
0
40
0.87500000000000011
210
0
220
0
230
1
0
CIRCLE
5
451
100
AcDbEntity
8
0
100
AcDbCircle
10
-114.999
20
52.26100000000001
30
0
40
0.52000000000000002
210
0
220
0
230
1
0
CIRCLE
5
452
100
AcDbEntity
8
0
100
AcDbCircle
10
-118.809
20
61.15100000000001
30
0
40
0.73499999999999999
210
0
220
0
230
1
0
CIRCLE
5
453
100
AcDbEntity
8
0
100
AcDbCircle
10
-114.999
20
71.311000000000007
30
0
40
0.52000000000000002
210
0
220
0
230
1
0
CIRCLE
5
454
100
AcDbEntity
8
0
100
AcDbCircle
10
-116.26900000000001
20
66.230999999999995
30
0
40
1.9939
210
0
220
0
230
1
0
CIRCLE
5
455
100
AcDbEntity
8
0
100
AcDbCircle
10
-136.27099999999999
20
20.828000000000003
30
0
40
0.73499999999999999
210
0
220
0
230
1
0
CIRCLE
5
456
100
AcDbEntity
8
0
100
AcDbCircle
10
-135.001
20
23.367999999999999
30
0
40
0.87500000000000011
210
0
220
0
230
1
0
CIRCLE
5
457
100
AcDbEntity
8
0
100
AcDbCircle
10
-121.34900000000002
20
23.367999999999999
30
0
40
0.87500000000000011
210
0
220
0
230
1
0
CIRCLE
5
458
100
AcDbEntity
8
0
100
AcDbCircle
10
-140.08099999999999
20
23.367999999999999
30
0
40
1.9939
210
0
220
0
230
1
0
CIRCLE
5
459
100
AcDbEntity
8
0
100
AcDbCircle
10
-117.53900000000002
20
28.448
30
0
40
0.52000000000000002
210
0
220
0
230
1
0
CIRCLE
5
460
100
AcDbEntity
8
0
100
AcDbCircle
10
-138.81100000000001
20
28.448
30
0
40
0.52000000000000002
210
0
220
0
230
1
0
CIRCLE
5
461
100
AcDbEntity
8
0
100
AcDbCircle
10
-114.999
20
28.448
30
0
40
0.52000000000000002
210
0
220
0
230
1
0
CIRCLE
5
462
100
AcDbEntity
8
0
100
AcDbCircle
10
-142.62100000000001
20
42.100999999999999
30
0
40
0.73499999999999999
210
0
220
0
230
1
0
CIRCLE
5
463
100
AcDbEntity
8
0
100
AcDbCircle
10
-118.809
20
42.100999999999999
30
0
40
0.73499999999999999
210
0
220
0
230
1
0
CIRCLE
5
464
100
AcDbEntity
8
0
100
AcDbCircle
10
-145.161
20
23.367999999999999
30
0
40
0.87500000000000011
210
0
220
0
230
1
0
CIRCLE
5
465
100
AcDbEntity
8
0
100
AcDbCircle
10
-118.809
20
18.288000000000004
30
0
40
0.73499999999999999
210
0
220
0
230
1
0
CIRCLE
5
466
100
AcDbEntity
8
0
100
AcDbCircle
10
-142.62100000000001
20
18.288000000000004
30
0
40
0.73499999999999999
210
0
220
0
230
1
0
CIRCLE
5
467
100
AcDbEntity
8
0
100
AcDbCircle
10
-176.91100000000003
20
52.26100000000001
30
0
40
0.52000000000000002
210
0
220
0
230
1
0
CIRCLE
5
468
100
AcDbEntity
8
0
100
AcDbCircle
10
-171.19600000000003
20
61.15100000000001
30
0
40
0.73499999999999999
210
0
220
0
230
1
0
CIRCLE
5
469
100
AcDbEntity
8
0
100
AcDbCircle
10
-167.38600000000002
20
71.311000000000007
30
0
40
0.52000000000000002
210
0
220
0
230
1
0
CIRCLE
5
470
100
AcDbEntity
8
0
100
AcDbCircle
10
-169.92599999999999
20
71.311000000000007
30
0
40
0.52000000000000002
210
0
220
0
230
1
0
CIRCLE
5
471
100
AcDbEntity
8
0
100
AcDbCircle
10
-168.65600000000001
20
66.230999999999995
30
0
40
1.9939
210
0
220
0
230
1
0
CIRCLE
5
472
100
AcDbEntity
8
0
100
AcDbCircle
10
-173.73599999999999
20
66.230999999999995
30
0
40
0.87500000000000011
210
0
220
0
230
1
0
CIRCLE
5
473
100
AcDbEntity
8
0
100
AcDbCircle
10
-160.40100000000001
20
52.26100000000001
30
0
40
0.52000000000000002
210
0
220
0
230
1
0
CIRCLE
5
474
100
AcDbEntity
8
0
100
AcDbCircle
10
-164.846
20
63.691000000000003
30
0
40
0.73499999999999999
210
0
220
0
230
1
0
CIRCLE
5
475
100
AcDbEntity
8
0
100
AcDbCircle
10
-157.86099999999999
20
52.26100000000001
30
0
40
0.52000000000000002
210
0
220
0
230
1
0
CIRCLE
5
476
100
AcDbEntity
8
0
100
AcDbCircle
10
-173.10100000000003
20
47.180999999999997
30
0
40
0.87500000000000011
210
0
220
0
230
1
0
CIRCLE
5
477
100
AcDbEntity
8
0
100
AcDbCircle
10
-158.81399999999999
20
23.367999999999999
30
0
40
0.87500000000000011
210
0
220
0
230
1
0
CIRCLE
5
478
100
AcDbEntity
8
0
100
AcDbCircle
10
-159.131
20
47.180999999999997
30
0
40
1.9939
210
0
220
0
230
1
0
CIRCLE
5
479
100
AcDbEntity
8
0
100
AcDbCircle
10
-164.21100000000001
20
47.180999999999997
30
0
40
0.87500000000000011
210
0
220
0
230
1
0
CIRCLE
5
480
100
AcDbEntity
8
0
100
AcDbCircle
10
-165.16400000000002
20
28.448
30
0
40
0.52000000000000002
210
0
220
0
230
1
0
CIRCLE
5
481
100
AcDbEntity
8
0
100
AcDbCircle
10
-161.67100000000002
20
42.100999999999999
30
0
40
0.73499999999999999
210
0
220
0
230
1
0
CIRCLE
5
482
100
AcDbEntity
8
0
100
AcDbCircle
10
-163.89400000000001
20
23.367999999999999
30
0
40
1.9939
210
0
220
0
230
1
0
CIRCLE
5
483
100
AcDbEntity
8
0
100
AcDbCircle
10
-174.37100000000001
20
44.641000000000005
30
0
40
0.73499999999999999
210
0
220
0
230
1
0
CIRCLE
5
484
100
AcDbEntity
8
0
100
AcDbCircle
10
-168.97400000000002
20
23.367999999999999
30
0
40
0.87500000000000011
210
0
220
0
230
1
0
CIRCLE
5
485
100
AcDbEntity
8
0
100
AcDbCircle
10
-166.434
20
18.288000000000004
30
0
40
0.73499999999999999
210
0
220
0
230
1
0
CIRCLE
5
486
100
AcDbEntity
8
0
100
AcDbCircle
10
-182.94399999999999
20
23.367999999999999
30
0
40
1.9939
210
0
220
0
230
1
0
CIRCLE
5
487
100
AcDbEntity
8
0
100
AcDbCircle
10
-181.67400000000001
20
28.448
30
0
40
0.52000000000000002
210
0
220
0
230
1
0
CIRCLE
5
488
100
AcDbEntity
8
0
100
AcDbCircle
10
-180.72100000000003
20
42.100999999999999
30
0
40
0.73499999999999999
210
0
220
0
230
1
0
CIRCLE
5
489
100
AcDbEntity
8
0
100
AcDbCircle
10
-179.13399999999999
20
20.828000000000003
30
0
40
0.73499999999999999
210
0
220
0
230
1
0
CIRCLE
5
490
100
AcDbEntity
8
0
100
AcDbCircle
10
-177.864
20
23.367999999999999
30
0
40
0.87500000000000011
210
0
220
0
230
1
0
CIRCLE
5
491
100
AcDbEntity
8
0
100
AcDbCircle
10
-179.45099999999999
20
52.26100000000001
30
0
40
0.52000000000000002
210
0
220
0
230
1
0
CIRCLE
5
492
100
AcDbEntity
8
0
100
AcDbCircle
10
-178.18100000000001
20
47.180999999999997
30
0
40
1.9939
210
0
220
0
230
1
0
CIRCLE
5
493
100
AcDbEntity
8
0
100
AcDbCircle
10
-183.261
20
47.180999999999997
30
0
40
0.87500000000000011
210
0
220
0
230
1
0
CIRCLE
5
494
100
AcDbEntity
8
0
100
AcDbCircle
10
-185.48400000000001
20
18.288000000000004
30
0
40
0.73499999999999999
210
0
220
0
230
1
0
CIRCLE
5
495
100
AcDbEntity
8
0
100
AcDbCircle
10
-186.43600000000004
20
71.311000000000007
30
0
40
0.52000000000000002
210
0
220
0
230
1
0
CIRCLE
5
496
100
AcDbEntity
8
0
100
AcDbCircle
10
-183.89599999999999
20
63.691000000000003
30
0
40
0.73499999999999999
210
0
220
0
230
1
0
CIRCLE
5
497
100
AcDbEntity
8
0
100
AcDbCircle
10
-182.62600000000003
20
66.230999999999995
30
0
40
0.87500000000000011
210
0
220
0
230
1
0
CIRCLE
5
498
100
AcDbEntity
8
0
100
AcDbCircle
10
-190.24600000000004
20
61.15100000000001
30
0
40
0.73499999999999999
210
0
220
0
230
1
0
CIRCLE
5
499
100
AcDbEntity
8
0
100
AcDbCircle
10
-188.976
20
71.311000000000007
30
0
40
0.52000000000000002
210
0
220
0
230
1
0
CIRCLE
5
500
100
AcDbEntity
8
0
100
AcDbCircle
10
-188.02400000000003
20
23.367999999999999
30
0
40
0.87500000000000011
210
0
220
0
230
1
0
CIRCLE
5
501
100
AcDbEntity
8
0
100
AcDbCircle
10
-347.40800000000002
20
18.288000000000004
30
0
40
0.73499999999999999
210
0
220
0
230
1
0
CIRCLE
5
502
100
AcDbEntity
8
0
100
AcDbCircle
10
-343.59800000000001
20
28.448
30
0
40
0.52000000000000002
210
0
220
0
230
1
0
CIRCLE
5
503
100
AcDbEntity
8
0
100
AcDbCircle
10
-346.13799999999998
20
28.448
30
0
40
0.52000000000000002
210
0
220
0
230
1
0
CIRCLE
5
504
100
AcDbEntity
8
0
100
AcDbCircle
10
-344.86800000000005
20
23.367999999999999
30
0
40
1.9939
210
0
220
0
230
1
0
CIRCLE
5
505
100
AcDbEntity
8
0
100
AcDbCircle
10
-330.89800000000002
20
23.367999999999999
30
0
40
0.87500000000000011
210
0
220
0
230
1
0
CIRCLE
5
506
100
AcDbEntity
8
0
100
AcDbCircle
10
-341.05799999999999
20
20.828000000000003
30
0
40
0.73499999999999999
210
0
220
0
230
1
0
CIRCLE
5
507
100
AcDbEntity
8
0
100
AcDbCircle
10
-339.78800000000001
20
23.367999999999999
30
0
40
0.87500000000000011
210
0
220
0
230
1
0
CIRCLE
5
508
100
AcDbEntity
8
0
100
AcDbCircle
10
-328.358
20
18.288000000000004
30
0
40
0.73499999999999999
210
0
220
0
230
1
0
CIRCLE
5
509
100
AcDbEntity
8
0
100
AcDbCircle
10
-326.77100000000002
20
44.641000000000005
30
0
40
0.73499999999999999
210
0
220
0
230
1
0
CIRCLE
5
510
100
AcDbEntity
8
0
100
AcDbCircle
10
-333.12099999999998
20
42.100999999999999
30
0
40
0.73499999999999999
210
0
220
0
230
1
0
CIRCLE
5
511
100
AcDbEntity
8
0
100
AcDbCircle
10
-325.81799999999998
20
23.367999999999999
30
0
40
1.9939
210
0
220
0
230
1
0
CIRCLE
5
512
100
AcDbEntity
8
0
100
AcDbCircle
10
-329.31100000000004
20
52.26100000000001
30
0
40
0.52000000000000002
210
0
220
0
230
1
0
CIRCLE
5
513
100
AcDbEntity
8
0
100
AcDbCircle
10
-331.851
20
52.26100000000001
30
0
40
0.52000000000000002
210
0
220
0
230
1
0
CIRCLE
5
514
100
AcDbEntity
8
0
100
AcDbCircle
10
-335.661
20
47.180999999999997
30
0
40
0.87500000000000011
210
0
220
0
230
1
0
CIRCLE
5
515
100
AcDbEntity
8
0
100
AcDbCircle
10
-344.55100000000004
20
47.180999999999997
30
0
40
0.87500000000000011
210
0
220
0
230
1
0
CIRCLE
5
516
100
AcDbEntity
8
0
100
AcDbCircle
10
-325.50099999999998
20
47.180999999999997
30
0
40
0.87500000000000011
210
0
220
0
230
1
0
CIRCLE
5
517
100
AcDbEntity
8
0
100
AcDbCircle
10
-348.36099999999999
20
52.26100000000001
30
0
40
0.52000000000000002
210
0
220
0
230
1
0
CIRCLE
5
518
100
AcDbEntity
8
0
100
AcDbCircle
10
-324.548
20
28.448
30
0
40
0.52000000000000002
210
0
220
0
230
1
0
CIRCLE
5
519
100
AcDbEntity
8
0
100
AcDbCircle
10
-322.00800000000004
20
20.828000000000003
30
0
40
0.73499999999999999
210
0
220
0
230
1
0
CIRCLE
5
520
100
AcDbEntity
8
0
100
AcDbCircle
10
-320.738
20
23.367999999999999
30
0
40
0.87500000000000011
210
0
220
0
230
1
0
CIRCLE
5
521
100
AcDbEntity
8
0
100
AcDbCircle
10
-302.00599999999997
20
23.367999999999999
30
0
40
1.9939
210
0
220
0
230
1
0
CIRCLE
5
522
100
AcDbEntity
8
0
100
AcDbCircle
10
-307.08600000000001
20
23.367999999999999
30
0
40
0.87500000000000011
210
0
220
0
230
1
0
CIRCLE
5
523
100
AcDbEntity
8
0
100
AcDbCircle
10
-303.27600000000007
20
28.448
30
0
40
0.52000000000000002
210
0
220
0
230
1
0
CIRCLE
5
524
100
AcDbEntity
8
0
100
AcDbCircle
10
-300.73599999999999
20
28.448
30
0
40
0.52000000000000002
210
0
220
0
230
1
0
CIRCLE
5
525
100
AcDbEntity
8
0
100
AcDbCircle
10
-312.80099999999999
20
52.26100000000001
30
0
40
0.52000000000000002
210
0
220
0
230
1
0
CIRCLE
5
526
100
AcDbEntity
8
0
100
AcDbCircle
10
-310.26100000000002
20
52.26100000000001
30
0
40
0.52000000000000002
210
0
220
0
230
1
0
CIRCLE
5
527
100
AcDbEntity
8
0
100
AcDbCircle
10
-311.53100000000001
20
47.180999999999997
30
0
40
1.9939
210
0
220
0
230
1
0
CIRCLE
5
528
100
AcDbEntity
8
0
100
AcDbCircle
10
-306.45100000000002
20
47.180999999999997
30
0
40
0.87500000000000011
210
0
220
0
230
1
0
CIRCLE
5
529
100
AcDbEntity
8
0
100
AcDbCircle
10
-307.721
20
44.641000000000005
30
0
40
0.73499999999999999
210
0
220
0
230
1
0
CIRCLE
5
530
100
AcDbEntity
8
0
100
AcDbCircle
10
-314.07100000000003
20
42.100999999999999
30
0
40
0.73499999999999999
210
0
220
0
230
1
0
CIRCLE
5
531
100
AcDbEntity
8
0
100
AcDbCircle
10
-316.61099999999999
20
47.180999999999997
30
0
40
0.87500000000000011
210
0
220
0
230
1
0
CIRCLE
5
532
100
AcDbEntity
8
0
100
AcDbCircle
10
-304.54599999999999
20
18.288000000000004
30
0
40
0.73499999999999999
210
0
220
0
230
1
0
CIRCLE
5
533
100
AcDbEntity
8
0
100
AcDbCircle
10
-317.24599999999998
20
63.691000000000003
30
0
40
0.73499999999999999
210
0
220
0
230
1
0
CIRCLE
5
534
100
AcDbEntity
8
0
100
AcDbCircle
10
-321.05600000000004
20
66.230999999999995
30
0
40
1.9939
210
0
220
0
230
1
0
CIRCLE
5
535
100
AcDbEntity
8
0
100
AcDbCircle
10
-326.13600000000008
20
66.230999999999995
30
0
40
0.87500000000000011
210
0
220
0
230
1
0
CIRCLE
5
536
100
AcDbEntity
8
0
100
AcDbCircle
10
-340.10600000000005
20
66.230999999999995
30
0
40
1.9939
210
0
220
0
230
1
0
CIRCLE
5
537
100
AcDbEntity
8
0
100
AcDbCircle
10
-336.29600000000005
20
63.691000000000003
30
0
40
0.73499999999999999
210
0
220
0
230
1
0
CIRCLE
5
538
100
AcDbEntity
8
0
100
AcDbCircle
10
-335.02600000000001
20
66.230999999999995
30
0
40
0.87500000000000011
210
0
220
0
230
1
0
CIRCLE
5
539
100
AcDbEntity
8
0
100
AcDbCircle
10
-342.64600000000002
20
61.15100000000001
30
0
40
0.73499999999999999
210
0
220
0
230
1
0
CIRCLE
5
540
100
AcDbEntity
8
0
100
AcDbCircle
10
-323.596
20
61.15100000000001
30
0
40
0.73499999999999999
210
0
220
0
230
1
0
CIRCLE
5
541
100
AcDbEntity
8
0
100
AcDbCircle
10
-304.54599999999999
20
61.15100000000001
30
0
40
0.73499999999999999
210
0
220
0
230
1
0
CIRCLE
5
542
100
AcDbEntity
8
0
100
AcDbCircle
10
-345.18599999999998
20
66.230999999999995
30
0
40
0.87500000000000011
210
0
220
0
230
1
0
CIRCLE
5
543
100
AcDbEntity
8
0
100
AcDbCircle
10
-260.096
20
63.691000000000003
30
0
40
0.73499999999999999
210
0
220
0
230
1
0
CIRCLE
5
544
100
AcDbEntity
8
0
100
AcDbCircle
10
-258.82600000000002
20
23.367999999999999
30
0
40
0.87500000000000011
210
0
220
0
230
1
0
CIRCLE
5
545
100
AcDbEntity
8
0
100
AcDbCircle
10
-263.90600000000001
20
23.367999999999999
30
0
40
1.9939
210
0
220
0
230
1
0
CIRCLE
5
546
100
AcDbEntity
8
0
100
AcDbCircle
10
-265.17600000000004
20
28.448
30
0
40
0.52000000000000002
210
0
220
0
230
1
0
CIRCLE
5
547
100
AcDbEntity
8
0
100
AcDbCircle
10
-262.63600000000002
20
28.448
30
0
40
0.52000000000000002
210
0
220
0
230
1
0
CIRCLE
5
548
100
AcDbEntity
8
0
100
AcDbCircle
10
-266.44600000000003
20
61.15100000000001
30
0
40
0.73499999999999999
210
0
220
0
230
1
0
CIRCLE
5
549
100
AcDbEntity
8
0
100
AcDbCircle
10
-260.096
20
20.828000000000003
30
0
40
0.73499999999999999
210
0
220
0
230
1
0
CIRCLE
5
550
100
AcDbEntity
8
0
100
AcDbCircle
10
-278.51100000000002
20
47.180999999999997
30
0
40
0.87500000000000011
210
0
220
0
230
1
0
CIRCLE
5
551
100
AcDbEntity
8
0
100
AcDbCircle
10
-279.14600000000002
20
63.691000000000003
30
0
40
0.73499999999999999
210
0
220
0
230
1
0
CIRCLE
5
552
100
AcDbEntity
8
0
100
AcDbCircle
10
-268.351
20
47.180999999999997
30
0
40
0.87500000000000011
210
0
220
0
230
1
0
CIRCLE
5
553
100
AcDbEntity
8
0
100
AcDbCircle
10
-274.70100000000002
20
52.26100000000001
30
0
40
0.52000000000000002
210
0
220
0
230
1
0
CIRCLE
5
554
100
AcDbEntity
8
0
100
AcDbCircle
10
-272.161
20
52.26100000000001
30
0
40
0.52000000000000002
210
0
220
0
230
1
0
CIRCLE
5
555
100
AcDbEntity
8
0
100
AcDbCircle
10
-273.43099999999998
20
47.180999999999997
30
0
40
1.9939
210
0
220
0
230
1
0
CIRCLE
5
556
100
AcDbEntity
8
0
100
AcDbCircle
10
-269.62099999999998
20
44.641000000000005
30
0
40
0.73499999999999999
210
0
220
0
230
1
0
CIRCLE
5
557
100
AcDbEntity
8
0
100
AcDbCircle
10
-277.87599999999998
20
23.367999999999999
30
0
40
0.87500000000000011
210
0
220
0
230
1
0
CIRCLE
5
558
100
AcDbEntity
8
0
100
AcDbCircle
10
-268.98599999999999
20
23.367999999999999
30
0
40
0.87500000000000011
210
0
220
0
230
1
0
CIRCLE
5
559
100
AcDbEntity
8
0
100
AcDbCircle
10
-275.971
20
42.100999999999999
30
0
40
0.73499999999999999
210
0
220
0
230
1
0
CIRCLE
5
560
100
AcDbEntity
8
0
100
AcDbCircle
10
-279.14600000000002
20
20.828000000000003
30
0
40
0.73499999999999999
210
0
220
0
230
1
0
CIRCLE
5
561
100
AcDbEntity
8
0
100
AcDbCircle
10
-298.19600000000003
20
20.828000000000003
30
0
40
0.73499999999999999
210
0
220
0
230
1
0
CIRCLE
5
562
100
AcDbEntity
8
0
100
AcDbCircle
10
-296.92599999999999
20
23.367999999999999
30
0
40
0.87500000000000011
210
0
220
0
230
1
0
CIRCLE
5
563
100
AcDbEntity
8
0
100
AcDbCircle
10
-291.21100000000001
20
52.26100000000001
30
0
40
0.52000000000000002
210
0
220
0
230
1
0
CIRCLE
5
564
100
AcDbEntity
8
0
100
AcDbCircle
10
-293.75099999999998
20
52.26100000000001
30
0
40
0.52000000000000002
210
0
220
0
230
1
0
CIRCLE
5
565
100
AcDbEntity
8
0
100
AcDbCircle
10
-292.48099999999999
20
47.180999999999997
30
0
40
1.9939
210
0
220
0
230
1
0
CIRCLE
5
566
100
AcDbEntity
8
0
100
AcDbCircle
10
-295.02100000000002
20
42.100999999999999
30
0
40
0.73499999999999999
210
0
220
0
230
1
0
CIRCLE
5
567
100
AcDbEntity
8
0
100
AcDbCircle
10
-282.95600000000002
20
23.367999999999999
30
0
40
1.9939
210
0
220
0
230
1
0
CIRCLE
5
568
100
AcDbEntity
8
0
100
AcDbCircle
10
-284.226
20
28.448
30
0
40
0.52000000000000002
210
0
220
0
230
1
0
CIRCLE
5
569
100
AcDbEntity
8
0
100
AcDbCircle
10
-281.68599999999998
20
28.448
30
0
40
0.52000000000000002
210
0
220
0
230
1
0
CIRCLE
5
570
100
AcDbEntity
8
0
100
AcDbCircle
10
-288.03600000000006
20
23.367999999999999
30
0
40
0.87500000000000011
210
0
220
0
230
1
0
CIRCLE
5
571
100
AcDbEntity
8
0
100
AcDbCircle
10
-288.67099999999999
20
44.641000000000005
30
0
40
0.73499999999999999
210
0
220
0
230
1
0
CIRCLE
5
572
100
AcDbEntity
8
0
100
AcDbCircle
10
-287.40100000000001
20
47.180999999999997
30
0
40
0.87500000000000011
210
0
220
0
230
1
0
CIRCLE
5
573
100
AcDbEntity
8
0
100
AcDbCircle
10
-285.49599999999998
20
61.15100000000001
30
0
40
0.73499999999999999
210
0
220
0
230
1
0
CIRCLE
5
574
100
AcDbEntity
8
0
100
AcDbCircle
10
-285.49599999999998
20
18.288000000000004
30
0
40
0.73499999999999999
210
0
220
0
230
1
0
CIRCLE
5
575
100
AcDbEntity
8
0
100
AcDbCircle
10
-266.44600000000003
20
18.288000000000004
30
0
40
0.73499999999999999
210
0
220
0
230
1
0
CIRCLE
5
576
100
AcDbEntity
8
0
100
AcDbCircle
10
-201.994
20
23.367999999999999
30
0
40
1.9939
210
0
220
0
230
1
0
CIRCLE
5
577
100
AcDbEntity
8
0
100
AcDbCircle
10
-200.72400000000002
20
28.448
30
0
40
0.52000000000000002
210
0
220
0
230
1
0
CIRCLE
5
578
100
AcDbEntity
8
0
100
AcDbCircle
10
-203.26400000000004
20
28.448
30
0
40
0.52000000000000002
210
0
220
0
230
1
0
CIRCLE
5
579
100
AcDbEntity
8
0
100
AcDbCircle
10
-207.07400000000004
20
23.367999999999999
30
0
40
0.87500000000000011
210
0
220
0
230
1
0
CIRCLE
5
580
100
AcDbEntity
8
0
100
AcDbCircle
10
-211.20100000000002
20
47.180999999999997
30
0
40
0.87500000000000011
210
0
220
0
230
1
0
CIRCLE
5
581
100
AcDbEntity
8
0
100
AcDbCircle
10
-202.31100000000001
20
47.180999999999997
30
0
40
0.87500000000000011
210
0
220
0
230
1
0
CIRCLE
5
582
100
AcDbEntity
8
0
100
AcDbCircle
10
-212.47100000000003
20
44.641000000000005
30
0
40
0.73499999999999999
210
0
220
0
230
1
0
CIRCLE
5
583
100
AcDbEntity
8
0
100
AcDbCircle
10
-199.77100000000002
20
42.100999999999999
30
0
40
0.73499999999999999
210
0
220
0
230
1
0
CIRCLE
5
584
100
AcDbEntity
8
0
100
AcDbCircle
10
-221.04400000000001
20
23.367999999999999
30
0
40
1.9939
210
0
220
0
230
1
0
CIRCLE
5
585
100
AcDbEntity
8
0
100
AcDbCircle
10
-222.31400000000002
20
28.448
30
0
40
0.52000000000000002
210
0
220
0
230
1
0
CIRCLE
5
586
100
AcDbEntity
8
0
100
AcDbCircle
10
-219.77400000000003
20
28.448
30
0
40
0.52000000000000002
210
0
220
0
230
1
0
CIRCLE
5
587
100
AcDbEntity
8
0
100
AcDbCircle
10
-215.96400000000003
20
23.367999999999999
30
0
40
0.87500000000000011
210
0
220
0
230
1
0
CIRCLE
5
588
100
AcDbEntity
8
0
100
AcDbCircle
10
-217.23400000000001
20
20.828000000000003
30
0
40
0.73499999999999999
210
0
220
0
230
1
0
CIRCLE
5
589
100
AcDbEntity
8
0
100
AcDbCircle
10
-216.28100000000003
20
47.180999999999997
30
0
40
1.9939
210
0
220
0
230
1
0
CIRCLE
5
590
100
AcDbEntity
8
0
100
AcDbCircle
10
-218.82100000000003
20
42.100999999999999
30
0
40
0.73499999999999999
210
0
220
0
230
1
0
CIRCLE
5
591
100
AcDbEntity
8
0
100
AcDbCircle
10
-249.30099999999999
20
47.180999999999997
30
0
40
0.87500000000000011
210
0
220
0
230
1
0
CIRCLE
5
592
100
AcDbEntity
8
0
100
AcDbCircle
10
-250.57100000000003
20
44.641000000000005
30
0
40
0.73499999999999999
210
0
220
0
230
1
0
CIRCLE
5
593
100
AcDbEntity
8
0
100
AcDbCircle
10
-240.411
20
47.180999999999997
30
0
40
0.87500000000000011
210
0
220
0
230
1
0
CIRCLE
5
594
100
AcDbEntity
8
0
100
AcDbCircle
10
-221.36099999999999
20
47.180999999999997
30
0
40
0.87500000000000011
210
0
220
0
230
1
0
CIRCLE
5
595
100
AcDbEntity
8
0
100
AcDbCircle
10
-235.33100000000002
20
47.180999999999997
30
0
40
1.9939
210
0
220
0
230
1
0
CIRCLE
5
596
100
AcDbEntity
8
0
100
AcDbCircle
10
-230.25100000000003
20
47.180999999999997
30
0
40
0.87500000000000011
210
0
220
0
230
1
0
CIRCLE
5
597
100
AcDbEntity
8
0
100
AcDbCircle
10
-237.87100000000004
20
42.100999999999999
30
0
40
0.73499999999999999
210
0
220
0
230
1
0
CIRCLE
5
598
100
AcDbEntity
8
0
100
AcDbCircle
10
-243.58600000000001
20
28.448
30
0
40
0.52000000000000002
210
0
220
0
230
1
0
CIRCLE
5
599
100
AcDbEntity
8
0
100
AcDbCircle
10
-249.93600000000001
20
23.367999999999999
30
0
40
0.87500000000000011
210
0
220
0
230
1
0
CIRCLE
5
600
100
AcDbEntity
8
0
100
AcDbCircle
10
-244.85600000000002
20
23.367999999999999
30
0
40
1.9939
210
0
220
0
230
1
0
CIRCLE
5
601
100
AcDbEntity
8
0
100
AcDbCircle
10
-239.77600000000001
20
23.367999999999999
30
0
40
0.87500000000000011
210
0
220
0
230
1
0
CIRCLE
5
602
100
AcDbEntity
8
0
100
AcDbCircle
10
-254.38100000000003
20
47.180999999999997
30
0
40
1.9939
210
0
220
0
230
1
0
CIRCLE
5
603
100
AcDbEntity
8
0
100
AcDbCircle
10
-256.92099999999999
20
42.100999999999999
30
0
40
0.73499999999999999
210
0
220
0
230
1
0
CIRCLE
5
604
100
AcDbEntity
8
0
100
AcDbCircle
10
-204.53400000000002
20
18.288000000000004
30
0
40
0.73499999999999999
210
0
220
0
230
1
0
CIRCLE
5
605
100
AcDbEntity
8
0
100
AcDbCircle
10
-223.58400000000003
20
18.288000000000004
30
0
40
0.73499999999999999
210
0
220
0
230
1
0
CIRCLE
5
606
100
AcDbEntity
8
0
100
AcDbCircle
10
-247.39599999999999
20
18.288000000000004
30
0
40
0.73499999999999999
210
0
220
0
230
1
0
CIRCLE
5
607
100
AcDbEntity
8
0
100
AcDbCircle
10
-241.04600000000002
20
63.691000000000003
30
0
40
0.73499999999999999
210
0
220
0
230
1
0
CIRCLE
5
608
100
AcDbEntity
8
0
100
AcDbCircle
10
-247.39599999999999
20
61.15100000000001
30
0
40
0.73499999999999999
210
0
220
0
230
1
0
CIRCLE
5
609
100
AcDbEntity
8
0
100
AcDbCircle
10
-253.11099999999999
20
52.26100000000001
30
0
40
0.52000000000000002
210
0
220
0
230
1
0
CIRCLE
5
610
100
AcDbEntity
8
0
100
AcDbCircle
10
-234.06100000000004
20
52.26100000000001
30
0
40
0.52000000000000002
210
0
220
0
230
1
0
CIRCLE
5
611
100
AcDbEntity
8
0
100
AcDbCircle
10
-236.601
20
52.26100000000001
30
0
40
0.52000000000000002
210
0
220
0
230
1
0
CIRCLE
5
612
100
AcDbEntity
8
0
100
AcDbCircle
10
-228.346
20
61.15100000000001
30
0
40
0.73499999999999999
210
0
220
0
230
1
0
CIRCLE
5
613
100
AcDbEntity
8
0
100
AcDbCircle
10
-225.80600000000004
20
66.230999999999995
30
0
40
1.9939
210
0
220
0
230
1
0
CIRCLE
5
614
100
AcDbEntity
8
0
100
AcDbCircle
10
-209.29599999999999
20
61.15100000000001
30
0
40
0.73499999999999999
210
0
220
0
230
1
0
CIRCLE
5
615
100
AcDbEntity
8
0
100
AcDbCircle
10
-206.75600000000003
20
66.230999999999995
30
0
40
1.9939
210
0
220
0
230
1
0
CIRCLE
5
616
100
AcDbEntity
8
0
100
AcDbCircle
10
-211.83600000000001
20
66.230999999999995
30
0
40
0.87500000000000011
210
0
220
0
230
1
0
CIRCLE
5
617
100
AcDbEntity
8
0
100
AcDbCircle
10
-215.01100000000002
20
52.26100000000001
30
0
40
0.52000000000000002
210
0
220
0
230
1
0
CIRCLE
5
618
100
AcDbEntity
8
0
100
AcDbCircle
10
-221.99600000000004
20
63.691000000000003
30
0
40
0.73499999999999999
210
0
220
0
230
1
0
CIRCLE
5
619
100
AcDbEntity
8
0
100
AcDbCircle
10
-217.55099999999999
20
52.26100000000001
30
0
40
0.52000000000000002
210
0
220
0
230
1
0
CIRCLE
5
620
100
AcDbEntity
8
0
100
AcDbCircle
10
-202.94600000000003
20
63.691000000000003
30
0
40
0.73499999999999999
210
0
220
0
230
1
0
CIRCLE
5
621
100
AcDbEntity
8
0
100
AcDbCircle
10
-201.67599999999999
20
66.230999999999995
30
0
40
0.87500000000000011
210
0
220
0
230
1
0
CIRCLE
5
622
100
AcDbEntity
8
0
100
AcDbCircle
10
-255.65100000000001
20
52.26100000000001
30
0
40
0.52000000000000002
210
0
220
0
230
1
0
CIRCLE
5
623
100
AcDbEntity
8
0
100
AcDbCircle
10
-230.886
20
66.230999999999995
30
0
40
0.87500000000000011
210
0
220
0
230
1
0
CIRCLE
5
624
100
AcDbEntity
8
0
100
AcDbCircle
10
-239.77600000000001
20
66.230999999999995
30
0
40
0.87500000000000011
210
0
220
0
230
1
0
CIRCLE
5
625
100
AcDbEntity
8
0
100
AcDbCircle
10
-249.93600000000001
20
66.230999999999995
30
0
40
0.87500000000000011
210
0
220
0
230
1
0
CIRCLE
5
626
100
AcDbEntity
8
0
100
AcDbCircle
10
-268.98599999999999
20
66.230999999999995
30
0
40
0.87500000000000011
210
0
220
0
230
1
0
CIRCLE
5
627
100
AcDbEntity
8
0
100
AcDbCircle
10
-263.90600000000001
20
66.230999999999995
30
0
40
1.9939
210
0
220
0
230
1
0
CIRCLE
5
628
100
AcDbEntity
8
0
100
AcDbCircle
10
-315.976
20
66.230999999999995
30
0
40
0.87500000000000011
210
0
220
0
230
1
0
CIRCLE
5
629
100
AcDbEntity
8
0
100
AcDbCircle
10
-288.03600000000006
20
66.230999999999995
30
0
40
0.87500000000000011
210
0
220
0
230
1
0
CIRCLE
5
630
100
AcDbEntity
8
0
100
AcDbCircle
10
-296.92599999999999
20
66.230999999999995
30
0
40
0.87500000000000011
210
0
220
0
230
1
0
CIRCLE
5
631
100
AcDbEntity
8
0
100
AcDbCircle
10
-302.00599999999997
20
66.230999999999995
30
0
40
1.9939
210
0
220
0
230
1
0
CIRCLE
5
632
100
AcDbEntity
8
0
100
AcDbCircle
10
-298.19600000000003
20
63.691000000000003
30
0
40
0.73499999999999999
210
0
220
0
230
1
0
CIRCLE
5
633
100
AcDbEntity
8
0
100
AcDbCircle
10
-277.87599999999998
20
66.230999999999995
30
0
40
0.87500000000000011
210
0
220
0
230
1
0
CIRCLE
5
634
100
AcDbEntity
8
0
100
AcDbCircle
10
-282.95600000000002
20
66.230999999999995
30
0
40
1.9939
210
0
220
0
230
1
0
CIRCLE
5
635
100
AcDbEntity
8
0
100
AcDbCircle
10
-196.91400000000002
20
23.367999999999999
30
0
40
0.87500000000000011
210
0
220
0
230
1
0
CIRCLE
5
636
100
AcDbEntity
8
0
100
AcDbCircle
10
-198.501
20
52.26100000000001
30
0
40
0.52000000000000002
210
0
220
0
230
1
0
CIRCLE
5
637
100
AcDbEntity
8
0
100
AcDbCircle
10
-195.96100000000004
20
52.26100000000001
30
0
40
0.52000000000000002
210
0
220
0
230
1
0
CIRCLE
5
638
100
AcDbEntity
8
0
100
AcDbCircle
10
-197.23100000000002
20
47.180999999999997
30
0
40
1.9939
210
0
220
0
230
1
0
CIRCLE
5
639
100
AcDbEntity
8
0
100
AcDbCircle
10
-198.184
20
20.828000000000003
30
0
40
0.73499999999999999
210
0
220
0
230
1
0
CIRCLE
5
640
100
AcDbEntity
8
0
100
AcDbCircle
10
-192.786
20
66.230999999999995
30
0
40
0.87500000000000011
210
0
220
0
230
1
0
CIRCLE
5
641
100
AcDbEntity
8
0
100
AcDbCircle
10
-192.15100000000004
20
47.180999999999997
30
0
40
0.87500000000000011
210
0
220
0
230
1
0
CIRCLE
5
642
100
AcDbEntity
8
0
100
AcDbCircle
10
-193.42100000000002
20
44.641000000000005
30
0
40
0.73499999999999999
210
0
220
0
230
1
0
CIRCLE
5
643
100
AcDbEntity
8
0
100
AcDbCircle
10
-300.73599999999999
20
71.311000000000007
30
0
40
0.52000000000000002
210
0
220
0
230
1
0
CIRCLE
5
644
100
AcDbEntity
8
0
100
AcDbCircle
10
-303.27600000000007
20
71.311000000000007
30
0
40
0.52000000000000002
210
0
220
0
230
1
0
CIRCLE
5
645
100
AcDbEntity
8
0
100
AcDbCircle
10
-319.786
20
71.311000000000007
30
0
40
0.52000000000000002
210
0
220
0
230
1
0
CIRCLE
5
646
100
AcDbEntity
8
0
100
AcDbCircle
10
-338.83600000000001
20
71.311000000000007
30
0
40
0.52000000000000002
210
0
220
0
230
1
0
CIRCLE
5
647
100
AcDbEntity
8
0
100
AcDbCircle
10
-322.32600000000002
20
71.311000000000007
30
0
40
0.52000000000000002
210
0
220
0
230
1
0
CIRCLE
5
648
100
AcDbEntity
8
0
100
AcDbCircle
10
-281.68599999999998
20
71.311000000000007
30
0
40
0.52000000000000002
210
0
220
0
230
1
0
CIRCLE
5
649
100
AcDbEntity
8
0
100
AcDbCircle
10
-284.226
20
71.311000000000007
30
0
40
0.52000000000000002
210
0
220
0
230
1
0
CIRCLE
5
650
100
AcDbEntity
8
0
100
AcDbCircle
10
-224.536
20
71.311000000000007
30
0
40
0.52000000000000002
210
0
220
0
230
1
0
CIRCLE
5
651
100
AcDbEntity
8
0
100
AcDbCircle
10
-227.07599999999999
20
71.311000000000007
30
0
40
0.52000000000000002
210
0
220
0
230
1
0
CIRCLE
5
652
100
AcDbEntity
8
0
100
AcDbCircle
10
-246.126
20
71.311000000000007
30
0
40
0.52000000000000002
210
0
220
0
230
1
0
CIRCLE
5
653
100
AcDbEntity
8
0
100
AcDbCircle
10
-262.63600000000002
20
71.311000000000007
30
0
40
0.52000000000000002
210
0
220
0
230
1
0
CIRCLE
5
654
100
AcDbEntity
8
0
100
AcDbCircle
10
-341.37599999999998
20
71.311000000000007
30
0
40
0.52000000000000002
210
0
220
0
230
1
0
CIRCLE
5
655
100
AcDbEntity
8
0
100
AcDbCircle
10
-208.02600000000001
20
71.311000000000007
30
0
40
0.52000000000000002
210
0
220
0
230
1
0
CIRCLE
5
656
100
AcDbEntity
8
0
100
AcDbCircle
10
-385.50800000000004
20
18.288000000000004
30
0
40
0.73499999999999999
210
0
220
0
230
1
0
CIRCLE
5
657
100
AcDbEntity
8
0
100
AcDbCircle
10
-377.88800000000003
20
23.367999999999999
30
0
40
0.87500000000000011
210
0
220
0
230
1
0
CIRCLE
5
658
100
AcDbEntity
8
0
100
AcDbCircle
10
-384.238
20
28.448
30
0
40
0.52000000000000002
210
0
220
0
230
1
0
CIRCLE
5
659
100
AcDbEntity
8
0
100
AcDbCircle
10
-376.93599999999998
20
71.311000000000007
30
0
40
0.52000000000000002
210
0
220
0
230
1
0
CIRCLE
5
660
100
AcDbEntity
8
0
100
AcDbCircle
10
-379.476
20
71.311000000000007
30
0
40
0.52000000000000002
210
0
220
0
230
1
0
CIRCLE
5
661
100
AcDbEntity
8
0
100
AcDbCircle
10
-378.20600000000007
20
66.230999999999995
30
0
40
1.9939
210
0
220
0
230
1
0
CIRCLE
5
662
100
AcDbEntity
8
0
100
AcDbCircle
10
-380.74599999999998
20
61.15100000000001
30
0
40
0.73499999999999999
210
0
220
0
230
1
0
CIRCLE
5
663
100
AcDbEntity
8
0
100
AcDbCircle
10
-385.31800000000004
20
55.436000000000007
30
0
40
1.9939
210
0
220
0
230
1
0
CIRCLE
5
664
100
AcDbEntity
8
0
100
AcDbCircle
10
-371.221
20
42.100999999999999
30
0
40
0.73499999999999999
210
0
220
0
230
1
0
CIRCLE
5
665
100
AcDbEntity
8
0
100
AcDbCircle
10
-368.68099999999998
20
47.180999999999997
30
0
40
1.9939
210
0
220
0
230
1
0
CIRCLE
5
666
100
AcDbEntity
8
0
100
AcDbCircle
10
-369.95100000000002
20
52.26100000000001
30
0
40
0.52000000000000002
210
0
220
0
230
1
0
CIRCLE
5
667
100
AcDbEntity
8
0
100
AcDbCircle
10
-367.41100000000006
20
52.26100000000001
30
0
40
0.52000000000000002
210
0
220
0
230
1
0
CIRCLE
5
668
100
AcDbEntity
8
0
100
AcDbCircle
10
-373.76100000000002
20
47.180999999999997
30
0
40
0.87500000000000011
210
0
220
0
230
1
0
CIRCLE
5
669
100
AcDbEntity
8
0
100
AcDbCircle
10
-374.39600000000007
20
63.691000000000003
30
0
40
0.73499999999999999
210
0
220
0
230
1
0
CIRCLE
5
670
100
AcDbEntity
8
0
100
AcDbCircle
10
-366.45800000000003
20
18.288000000000004
30
0
40
0.73499999999999999
210
0
220
0
230
1
0
CIRCLE
5
671
100
AcDbEntity
8
0
100
AcDbCircle
10
-373.12599999999998
20
66.230999999999995
30
0
40
0.87500000000000011
210
0
220
0
230
1
0
CIRCLE
5
672
100
AcDbEntity
8
0
100
AcDbCircle
10
-363.91800000000001
20
23.367999999999999
30
0
40
1.9939
210
0
220
0
230
1
0
CIRCLE
5
673
100
AcDbEntity
8
0
100
AcDbCircle
10
-365.18799999999999
20
28.448
30
0
40
0.52000000000000002
210
0
220
0
230
1
0
CIRCLE
5
674
100
AcDbEntity
8
0
100
AcDbCircle
10
-362.64800000000002
20
28.448
30
0
40
0.52000000000000002
210
0
220
0
230
1
0
CIRCLE
5
675
100
AcDbEntity
8
0
100
AcDbCircle
10
-364.23599999999999
20
66.230999999999995
30
0
40
0.87500000000000011
210
0
220
0
230
1
0
CIRCLE
5
676
100
AcDbEntity
8
0
100
AcDbCircle
10
-363.601
20
47.180999999999997
30
0
40
0.87500000000000011
210
0
220
0
230
1
0
CIRCLE
5
677
100
AcDbEntity
8
0
100
AcDbCircle
10
-358.83800000000002
20
23.367999999999999
30
0
40
0.87500000000000011
210
0
220
0
230
1
0
CIRCLE
5
678
100
AcDbEntity
8
0
100
AcDbCircle
10
-357.88600000000002
20
71.311000000000007
30
0
40
0.52000000000000002
210
0
220
0
230
1
0
CIRCLE
5
679
100
AcDbEntity
8
0
100
AcDbCircle
10
-360.42599999999999
20
71.311000000000007
30
0
40
0.52000000000000002
210
0
220
0
230
1
0
CIRCLE
5
680
100
AcDbEntity
8
0
100
AcDbCircle
10
-360.10800000000006
20
20.828000000000003
30
0
40
0.73499999999999999
210
0
220
0
230
1
0
CIRCLE
5
681
100
AcDbEntity
8
0
100
AcDbCircle
10
-354.71100000000001
20
47.180999999999997
30
0
40
0.87500000000000011
210
0
220
0
230
1
0
CIRCLE
5
682
100
AcDbEntity
8
0
100
AcDbCircle
10
-355.34600000000006
20
63.691000000000003
30
0
40
0.73499999999999999
210
0
220
0
230
1
0
CIRCLE
5
683
100
AcDbEntity
8
0
100
AcDbCircle
10
-354.07600000000002
20
66.230999999999995
30
0
40
0.87500000000000011
210
0
220
0
230
1
0
CIRCLE
5
684
100
AcDbEntity
8
0
100
AcDbCircle
10
-352.17100000000005
20
42.100999999999999
30
0
40
0.73499999999999999
210
0
220
0
230
1
0
CIRCLE
5
685
100
AcDbEntity
8
0
100
AcDbCircle
10
-349.63099999999997
20
47.180999999999997
30
0
40
1.9939
210
0
220
0
230
1
0
CIRCLE
5
686
100
AcDbEntity
8
0
100
AcDbCircle
10
-349.94799999999998
20
23.367999999999999
30
0
40
0.87500000000000011
210
0
220
0
230
1
0
CIRCLE
5
687
100
AcDbEntity
8
0
100
AcDbCircle
10
-40.38600000000001
20
112.58600000000001
30
0
40
0.52000000000000002
210
0
220
0
230
1
0
CIRCLE
5
688
100
AcDbEntity
8
0
100
AcDbCircle
10
-53.085999999999999
20
109.411
30
0
40
0.52000000000000002
210
0
220
0
230
1
0
CIRCLE
5
689
100
AcDbEntity
8
0
100
AcDbCircle
10
-121.34900000000002
20
109.09399999999999
30
0
40
0.87500000000000011
210
0
220
0
230
1
0
CIRCLE
5
690
100
AcDbEntity
8
0
100
AcDbCircle
10
-91.186000000000007
20
109.411
30
0
40
0.52000000000000002
210
0
220
0
230
1
0
CIRCLE
5
691
100
AcDbEntity
8
0
100
AcDbCircle
10
-93.725999999999999
20
109.411
30
0
40
0.52000000000000002
210
0
220
0
230
1
0
CIRCLE
5
692
100
AcDbEntity
8
0
100
AcDbCircle
10
-56.896000000000001
20
99.251000000000005
30
0
40
0.73499999999999999
210
0
220
0
230
1
0
CIRCLE
5
693
100
AcDbEntity
8
0
100
AcDbCircle
10
-54.356000000000009
20
104.33100000000002
30
0
40
1.9939
210
0
220
0
230
1
0
CIRCLE
5
694
100
AcDbEntity
8
0
100
AcDbCircle
10
-78.486000000000018
20
104.33100000000002
30
0
40
0.87500000000000011
210
0
220
0
230
1
0
CIRCLE
5
695
100
AcDbEntity
8
0
100
AcDbCircle
10
-69.596000000000004
20
101.791
30
0
40
0.73499999999999999
210
0
220
0
230
1
0
CIRCLE
5
696
100
AcDbEntity
8
0
100
AcDbCircle
10
-73.406000000000006
20
104.33100000000002
30
0
40
1.9939
210
0
220
0
230
1
0
CIRCLE
5
697
100
AcDbEntity
8
0
100
AcDbCircle
10
-75.945999999999998
20
99.251000000000005
30
0
40
0.73499999999999999
210
0
220
0
230
1
0
CIRCLE
5
698
100
AcDbEntity
8
0
100
AcDbCircle
10
-88.646000000000015
20
101.791
30
0
40
0.73499999999999999
210
0
220
0
230
1
0
CIRCLE
5
699
100
AcDbEntity
8
0
100
AcDbCircle
10
-87.376000000000005
20
104.33100000000002
30
0
40
0.87500000000000011
210
0
220
0
230
1
0
CIRCLE
5
700
100
AcDbEntity
8
0
100
AcDbCircle
10
-94.995999999999995
20
99.251000000000005
30
0
40
0.73499999999999999
210
0
220
0
230
1
0
CIRCLE
5
701
100
AcDbEntity
8
0
100
AcDbCircle
10
-92.456000000000017
20
104.33100000000002
30
0
40
1.9939
210
0
220
0
230
1
0
CIRCLE
5
702
100
AcDbEntity
8
0
100
AcDbCircle
10
-43.561000000000007
20
101.91800000000001
30
0
40
1.9939
210
0
220
0
230
1
0
CIRCLE
5
703
100
AcDbEntity
8
0
100
AcDbCircle
10
-50.546000000000006
20
101.791
30
0
40
0.73499999999999999
210
0
220
0
230
1
0
CIRCLE
5
704
100
AcDbEntity
8
0
100
AcDbCircle
10
-49.27600000000001
20
104.33100000000002
30
0
40
0.87500000000000011
210
0
220
0
230
1
0
CIRCLE
5
705
100
AcDbEntity
8
0
100
AcDbCircle
10
-97.536000000000001
20
104.33100000000002
30
0
40
0.87500000000000011
210
0
220
0
230
1
0
CIRCLE
5
706
100
AcDbEntity
8
0
100
AcDbCircle
10
-118.809
20
104.01400000000001
30
0
40
0.73499999999999999
210
0
220
0
230
1
0
CIRCLE
5
707
100
AcDbEntity
8
0
100
AcDbCircle
10
-92.456000000000017
20
85.281000000000006
30
0
40
1.9939
210
0
220
0
230
1
0
CIRCLE
5
708
100
AcDbEntity
8
0
100
AcDbCircle
10
-87.376000000000005
20
85.281000000000006
30
0
40
0.87500000000000011
210
0
220
0
230
1
0
CIRCLE
5
709
100
AcDbEntity
8
0
100
AcDbCircle
10
-88.646000000000015
20
82.741000000000014
30
0
40
0.73499999999999999
210
0
220
0
230
1
0
CIRCLE
5
710
100
AcDbEntity
8
0
100
AcDbCircle
10
-68.325999999999993
20
85.281000000000006
30
0
40
0.87500000000000011
210
0
220
0
230
1
0
CIRCLE
5
711
100
AcDbEntity
8
0
100
AcDbCircle
10
-69.596000000000004
20
82.741000000000014
30
0
40
0.73499999999999999
210
0
220
0
230
1
0
CIRCLE
5
712
100
AcDbEntity
8
0
100
AcDbCircle
10
-73.406000000000006
20
85.281000000000006
30
0
40
1.9939
210
0
220
0
230
1
0
CIRCLE
5
713
100
AcDbEntity
8
0
100
AcDbCircle
10
-78.486000000000018
20
85.281000000000006
30
0
40
0.87500000000000011
210
0
220
0
230
1
0
CIRCLE
5
714
100
AcDbEntity
8
0
100
AcDbCircle
10
-49.27600000000001
20
85.281000000000006
30
0
40
0.87500000000000011
210
0
220
0
230
1
0
CIRCLE
5
715
100
AcDbEntity
8
0
100
AcDbCircle
10
-54.356000000000009
20
85.281000000000006
30
0
40
1.9939
210
0
220
0
230
1
0
CIRCLE
5
716
100
AcDbEntity
8
0
100
AcDbCircle
10
-59.436
20
85.281000000000006
30
0
40
0.87500000000000011
210
0
220
0
230
1
0
CIRCLE
5
717
100
AcDbEntity
8
0
100
AcDbCircle
10
-50.546000000000006
20
82.741000000000014
30
0
40
0.73499999999999999
210
0
220
0
230
1
0
CIRCLE
5
718
100
AcDbEntity
8
0
100
AcDbCircle
10
-72.135999999999996
20
90.361000000000018
30
0
40
0.52000000000000002
210
0
220
0
230
1
0
CIRCLE
5
719
100
AcDbEntity
8
0
100
AcDbCircle
10
-55.625999999999998
20
90.361000000000018
30
0
40
0.52000000000000002
210
0
220
0
230
1
0
CIRCLE
5
720
100
AcDbEntity
8
0
100
AcDbCircle
10
-53.085999999999999
20
90.361000000000018
30
0
40
0.52000000000000002
210
0
220
0
230
1
0
CIRCLE
5
721
100
AcDbEntity
8
0
100
AcDbCircle
10
-74.676000000000016
20
90.361000000000018
30
0
40
0.52000000000000002
210
0
220
0
230
1
0
CIRCLE
5
722
100
AcDbEntity
8
0
100
AcDbCircle
10
-91.186000000000007
20
90.361000000000018
30
0
40
0.52000000000000002
210
0
220
0
230
1
0
CIRCLE
5
723
100
AcDbEntity
8
0
100
AcDbCircle
10
-97.536000000000001
20
85.281000000000006
30
0
40
0.87500000000000011
210
0
220
0
230
1
0
CIRCLE
5
724
100
AcDbEntity
8
0
100
AcDbCircle
10
-207.70849999999999
20
82.741000000000014
30
0
40
0.73499999999999999
210
0
220
0
230
1
0
CIRCLE
5
725
100
AcDbEntity
8
0
100
AcDbCircle
10
-200.7235
20
109.411
30
0
40
0.52000000000000002
210
0
220
0
230
1
0
CIRCLE
5
726
100
AcDbEntity
8
0
100
AcDbCircle
10
-201.99350000000004
20
104.33100000000002
30
0
40
1.9939
210
0
220
0
230
1
0
CIRCLE
5
727
100
AcDbEntity
8
0
100
AcDbCircle
10
-198.18350000000004
20
101.791
30
0
40
0.73499999999999999
210
0
220
0
230
1
0
CIRCLE
5
728
100
AcDbEntity
8
0
100
AcDbCircle
10
-192.46850000000001
20
85.281000000000006
30
0
40
1.9939
210
0
220
0
230
1
0
CIRCLE
5
729
100
AcDbEntity
8
0
100
AcDbCircle
10
-191.1985
20
90.361000000000018
30
0
40
0.52000000000000002
210
0
220
0
230
1
0
CIRCLE
5
730
100
AcDbEntity
8
0
100
AcDbCircle
10
-153.25725
20
109.411
30
0
40
0.52000000000000002
210
0
220
0
230
1
0
CIRCLE
5
731
100
AcDbEntity
8
0
100
AcDbCircle
10
-151.98724999999999
20
104.33100000000002
30
0
40
1.9939
210
0
220
0
230
1
0
CIRCLE
5
732
100
AcDbEntity
8
0
100
AcDbCircle
10
-157.06725
20
104.33100000000002
30
0
40
0.87500000000000011
210
0
220
0
230
1
0
CIRCLE
5
733
100
AcDbEntity
8
0
100
AcDbCircle
10
-184.21350000000001
20
109.411
30
0
40
0.52000000000000002
210
0
220
0
230
1
0
CIRCLE
5
734
100
AcDbEntity
8
0
100
AcDbCircle
10
-181.67349999999999
20
109.411
30
0
40
0.52000000000000002
210
0
220
0
230
1
0
CIRCLE
5
735
100
AcDbEntity
8
0
100
AcDbCircle
10
-182.94350000000003
20
104.33100000000002
30
0
40
1.9939
210
0
220
0
230
1
0
CIRCLE
5
736
100
AcDbEntity
8
0
100
AcDbCircle
10
-179.13350000000003
20
101.791
30
0
40
0.73499999999999999
210
0
220
0
230
1
0
CIRCLE
5
737
100
AcDbEntity
8
0
100
AcDbCircle
10
-174.6885
20
90.361000000000018
30
0
40
0.52000000000000002
210
0
220
0
230
1
0
CIRCLE
5
738
100
AcDbEntity
8
0
100
AcDbCircle
10
-185.48349999999999
20
99.251000000000005
30
0
40
0.73499999999999999
210
0
220
0
230
1
0
CIRCLE
5
739
100
AcDbEntity
8
0
100
AcDbCircle
10
-169.60849999999999
20
82.741000000000014
30
0
40
0.73499999999999999
210
0
220
0
230
1
0
CIRCLE
5
740
100
AcDbEntity
8
0
100
AcDbCircle
10
-137.38175000000001
20
85.281000000000006
30
0
40
0.87500000000000011
210
0
220
0
230
1
0
CIRCLE
5
741
100
AcDbEntity
8
0
100
AcDbCircle
10
-143.73175000000001
20
90.361000000000018
30
0
40
0.52000000000000002
210
0
220
0
230
1
0
CIRCLE
5
742
100
AcDbEntity
8
0
100
AcDbCircle
10
-141.19175000000001
20
90.361000000000018
30
0
40
0.52000000000000002
210
0
220
0
230
1
0
CIRCLE
5
743
100
AcDbEntity
8
0
100
AcDbCircle
10
-147.22475
20
85.281000000000006
30
0
40
1.9939
210
0
220
0
230
1
0
CIRCLE
5
744
100
AcDbEntity
8
0
100
AcDbCircle
10
-140.04925
20
97.346000000000004
30
0
40
1.524
210
0
220
0
230
1
0
CIRCLE
5
745
100
AcDbEntity
8
0
100
AcDbCircle
10
-293.43349999999998
20
101.791
30
0
40
0.73499999999999999
210
0
220
0
230
1
0
CIRCLE
5
746
100
AcDbEntity
8
0
100
AcDbCircle
10
-273.74849999999998
20
85.281000000000006
30
0
40
0.87500000000000011
210
0
220
0
230
1
0
CIRCLE
5
747
100
AcDbEntity
8
0
100
AcDbCircle
10
-248.34850000000003
20
90.361000000000018
30
0
40
0.52000000000000002
210
0
220
0
230
1
0
CIRCLE
5
748
100
AcDbEntity
8
0
100
AcDbCircle
10
-263.58850000000007
20
85.281000000000006
30
0
40
0.87500000000000011
210
0
220
0
230
1
0
CIRCLE
5
749
100
AcDbEntity
8
0
100
AcDbCircle
10
-268.66849999999999
20
85.281000000000006
30
0
40
1.9939
210
0
220
0
230
1
0
CIRCLE
5
750
100
AcDbEntity
8
0
100
AcDbCircle
10
-241.36349999999999
20
109.411
30
0
40
0.52000000000000002
210
0
220
0
230
1
0
CIRCLE
5
751
100
AcDbEntity
8
0
100
AcDbCircle
10
-245.17349999999999
20
104.33100000000002
30
0
40
0.87500000000000011
210
0
220
0
230
1
0
CIRCLE
5
752
100
AcDbEntity
8
0
100
AcDbCircle
10
-259.14350000000002
20
104.33100000000002
30
0
40
1.9939
210
0
220
0
230
1
0
CIRCLE
5
753
100
AcDbEntity
8
0
100
AcDbCircle
10
-279.46350000000001
20
109.411
30
0
40
0.52000000000000002
210
0
220
0
230
1
0
CIRCLE
5
754
100
AcDbEntity
8
0
100
AcDbCircle
10
-244.53850000000003
20
85.281000000000006
30
0
40
0.87500000000000011
210
0
220
0
230
1
0
CIRCLE
5
755
100
AcDbEntity
8
0
100
AcDbCircle
10
-226.12350000000004
20
104.33100000000002
30
0
40
0.87500000000000011
210
0
220
0
230
1
0
CIRCLE
5
756
100
AcDbEntity
8
0
100
AcDbCircle
10
-225.48850000000002
20
85.281000000000006
30
0
40
0.87500000000000011
210
0
220
0
230
1
0
CIRCLE
5
757
100
AcDbEntity
8
0
100
AcDbCircle
10
-215.96350000000001
20
104.33100000000002
30
0
40
0.87500000000000011
210
0
220
0
230
1
0
CIRCLE
5
758
100
AcDbEntity
8
0
100
AcDbCircle
10
-223.58350000000002
20
99.251000000000005
30
0
40
0.73499999999999999
210
0
220
0
230
1
0
CIRCLE
5
759
100
AcDbEntity
8
0
100
AcDbCircle
10
-216.59850000000003
20
85.281000000000006
30
0
40
0.87500000000000011
210
0
220
0
230
1
0
CIRCLE
5
760
100
AcDbEntity
8
0
100
AcDbCircle
10
-56.896000000000001
20
80.200999999999993
30
0
40
0.73499999999999999
210
0
220
0
230
1
0
CIRCLE
5
761
100
AcDbEntity
8
0
100
AcDbCircle
10
-94.995999999999995
20
80.200999999999993
30
0
40
0.73499999999999999
210
0
220
0
230
1
0
CIRCLE
5
762
100
AcDbEntity
8
0
100
AcDbCircle
10
-385.50850000000003
20
80.200999999999993
30
0
40
0.73499999999999999
210
0
220
0
230
1
0
CIRCLE
5
763
100
AcDbEntity
8
0
100
AcDbCircle
10
-377.88850000000002
20
85.281000000000006
30
0
40
0.87500000000000011
210
0
220
0
230
1
0
CIRCLE
5
764
100
AcDbEntity
8
0
100
AcDbCircle
10
-382.96850000000001
20
85.281000000000006
30
0
40
1.9939
210
0
220
0
230
1
0
CIRCLE
5
765
100
AcDbEntity
8
0
100
AcDbCircle
10
-378.17425000000003
20
97.346000000000004
30
0
40
1.524
210
0
220
0
230
1
0
CIRCLE
5
766
100
AcDbEntity
8
0
100
AcDbCircle
10
-382.93675000000002
20
92.26600000000002
30
0
40
1.524
210
0
220
0
230
1
0
CIRCLE
5
767
100
AcDbEntity
8
0
100
AcDbCircle
10
-384.23850000000004
20
90.361000000000018
30
0
40
0.52000000000000002
210
0
220
0
230
1
0
CIRCLE
5
768
100
AcDbEntity
8
0
100
AcDbCircle
10
-385.03224999999998
20
104.33100000000002
30
0
40
0.87500000000000011
210
0
220
0
230
1
0
CIRCLE
5
769
100
AcDbEntity
8
0
100
AcDbCircle
10
-386.30225000000002
20
101.791
30
0
40
0.73499999999999999
210
0
220
0
230
1
0
CIRCLE
5
770
100
AcDbEntity
8
0
100
AcDbCircle
10
-359.4735
20
104.33100000000002
30
0
40
0.87500000000000011
210
0
220
0
230
1
0
CIRCLE
5
771
100
AcDbEntity
8
0
100
AcDbCircle
10
-365.18849999999998
20
90.361000000000018
30
0
40
0.52000000000000002
210
0
220
0
230
1
0
CIRCLE
5
772
100
AcDbEntity
8
0
100
AcDbCircle
10
-366.45850000000002
20
80.200999999999993
30
0
40
0.73499999999999999
210
0
220
0
230
1
0
CIRCLE
5
773
100
AcDbEntity
8
0
100
AcDbCircle
10
-363.91849999999999
20
85.281000000000006
30
0
40
1.9939
210
0
220
0
230
1
0
CIRCLE
5
774
100
AcDbEntity
8
0
100
AcDbCircle
10
-360.10849999999999
20
82.741000000000014
30
0
40
0.73499999999999999
210
0
220
0
230
1
0
CIRCLE
5
775
100
AcDbEntity
8
0
100
AcDbCircle
10
-368.99850000000004
20
85.281000000000006
30
0
40
0.87500000000000011
210
0
220
0
230
1
0
CIRCLE
5
776
100
AcDbEntity
8
0
100
AcDbCircle
10
-335.34350000000006
20
104.33100000000002
30
0
40
1.9939
210
0
220
0
230
1
0
CIRCLE
5
777
100
AcDbEntity
8
0
100
AcDbCircle
10
-340.42349999999999
20
104.33100000000002
30
0
40
0.87500000000000011
210
0
220
0
230
1
0
CIRCLE
5
778
100
AcDbEntity
8
0
100
AcDbCircle
10
-354.39350000000002
20
104.33100000000002
30
0
40
1.9939
210
0
220
0
230
1
0
CIRCLE
5
779
100
AcDbEntity
8
0
100
AcDbCircle
10
-349.31350000000003
20
104.33100000000002
30
0
40
0.87500000000000011
210
0
220
0
230
1
0
CIRCLE
5
780
100
AcDbEntity
8
0
100
AcDbCircle
10
-356.93350000000004
20
99.251000000000005
30
0
40
0.73499999999999999
210
0
220
0
230
1
0
CIRCLE
5
781
100
AcDbEntity
8
0
100
AcDbCircle
10
-344.86849999999998
20
85.281000000000006
30
0
40
1.9939
210
0
220
0
230
1
0
CIRCLE
5
782
100
AcDbEntity
8
0
100
AcDbCircle
10
-341.05849999999998
20
82.741000000000014
30
0
40
0.73499999999999999
210
0
220
0
230
1
0
CIRCLE
5
783
100
AcDbEntity
8
0
100
AcDbCircle
10
-339.7885
20
85.281000000000006
30
0
40
0.87500000000000011
210
0
220
0
230
1
0
CIRCLE
5
784
100
AcDbEntity
8
0
100
AcDbCircle
10
-343.5985
20
90.361000000000018
30
0
40
0.52000000000000002
210
0
220
0
230
1
0
CIRCLE
5
785
100
AcDbEntity
8
0
100
AcDbCircle
10
-337.88350000000003
20
99.251000000000005
30
0
40
0.73499999999999999
210
0
220
0
230
1
0
CIRCLE
5
786
100
AcDbEntity
8
0
100
AcDbCircle
10
-347.4085
20
80.200999999999993
30
0
40
0.73499999999999999
210
0
220
0
230
1
0
CIRCLE
5
787
100
AcDbEntity
8
0
100
AcDbCircle
10
-320.73849999999999
20
85.281000000000006
30
0
40
0.87500000000000011
210
0
220
0
230
1
0
CIRCLE
5
788
100
AcDbEntity
8
0
100
AcDbCircle
10
-321.37349999999998
20
104.33100000000002
30
0
40
0.87500000000000011
210
0
220
0
230
1
0
CIRCLE
5
789
100
AcDbEntity
8
0
100
AcDbCircle
10
-322.00850000000003
20
82.741000000000014
30
0
40
0.73499999999999999
210
0
220
0
230
1
0
CIRCLE
5
790
100
AcDbEntity
8
0
100
AcDbCircle
10
-324.54849999999999
20
90.361000000000018
30
0
40
0.52000000000000002
210
0
220
0
230
1
0
CIRCLE
5
791
100
AcDbEntity
8
0
100
AcDbCircle
10
-330.26350000000002
20
104.33100000000002
30
0
40
0.87500000000000011
210
0
220
0
230
1
0
CIRCLE
5
792
100
AcDbEntity
8
0
100
AcDbCircle
10
-331.5335
20
101.791
30
0
40
0.73499999999999999
210
0
220
0
230
1
0
CIRCLE
5
793
100
AcDbEntity
8
0
100
AcDbCircle
10
-327.08850000000007
20
90.361000000000018
30
0
40
0.52000000000000002
210
0
220
0
230
1
0
CIRCLE
5
794
100
AcDbEntity
8
0
100
AcDbCircle
10
-271.20850000000007
20
80.200999999999993
30
0
40
0.73499999999999999
210
0
220
0
230
1
0
CIRCLE
5
795
100
AcDbEntity
8
0
100
AcDbCircle
10
-282.63850000000002
20
85.281000000000006
30
0
40
0.87500000000000011
210
0
220
0
230
1
0
CIRCLE
5
796
100
AcDbEntity
8
0
100
AcDbCircle
10
-283.9085
20
82.741000000000014
30
0
40
0.73499999999999999
210
0
220
0
230
1
0
CIRCLE
5
797
100
AcDbEntity
8
0
100
AcDbCircle
10
-286.44850000000008
20
90.361000000000018
30
0
40
0.52000000000000002
210
0
220
0
230
1
0
CIRCLE
5
798
100
AcDbEntity
8
0
100
AcDbCircle
10
-288.98849999999999
20
90.361000000000018
30
0
40
0.52000000000000002
210
0
220
0
230
1
0
CIRCLE
5
799
100
AcDbEntity
8
0
100
AcDbCircle
10
-287.71850000000001
20
85.281000000000006
30
0
40
1.9939
210
0
220
0
230
1
0
CIRCLE
5
800
100
AcDbEntity
8
0
100
AcDbCircle
10
-290.25850000000003
20
80.200999999999993
30
0
40
0.73499999999999999
210
0
220
0
230
1
0
CIRCLE
5
801
100
AcDbEntity
8
0
100
AcDbCircle
10
-273.11349999999999
20
104.33100000000002
30
0
40
0.87500000000000011
210
0
220
0
230
1
0
CIRCLE
5
802
100
AcDbEntity
8
0
100
AcDbCircle
10
-274.38350000000003
20
101.791
30
0
40
0.73499999999999999
210
0
220
0
230
1
0
CIRCLE
5
803
100
AcDbEntity
8
0
100
AcDbCircle
10
-278.19349999999997
20
104.33100000000002
30
0
40
1.9939
210
0
220
0
230
1
0
CIRCLE
5
804
100
AcDbEntity
8
0
100
AcDbCircle
10
-280.73349999999999
20
99.251000000000005
30
0
40
0.73499999999999999
210
0
220
0
230
1
0
CIRCLE
5
805
100
AcDbEntity
8
0
100
AcDbCircle
10
-292.79849999999999
20
85.281000000000006
30
0
40
0.87500000000000011
210
0
220
0
230
1
0
CIRCLE
5
806
100
AcDbEntity
8
0
100
AcDbCircle
10
-292.1635
20
104.33100000000002
30
0
40
0.87500000000000011
210
0
220
0
230
1
0
CIRCLE
5
807
100
AcDbEntity
8
0
100
AcDbCircle
10
-316.29349999999999
20
104.33100000000002
30
0
40
1.9939
210
0
220
0
230
1
0
CIRCLE
5
808
100
AcDbEntity
8
0
100
AcDbCircle
10
-311.21350000000001
20
104.33100000000002
30
0
40
0.87500000000000011
210
0
220
0
230
1
0
CIRCLE
5
809
100
AcDbEntity
8
0
100
AcDbCircle
10
-312.48350000000005
20
101.791
30
0
40
0.73499999999999999
210
0
220
0
230
1
0
CIRCLE
5
810
100
AcDbEntity
8
0
100
AcDbCircle
10
-302.32350000000002
20
104.33100000000002
30
0
40
0.87500000000000011
210
0
220
0
230
1
0
CIRCLE
5
811
100
AcDbEntity
8
0
100
AcDbCircle
10
-318.83350000000002
20
99.251000000000005
30
0
40
0.73499999999999999
210
0
220
0
230
1
0
CIRCLE
5
812
100
AcDbEntity
8
0
100
AcDbCircle
10
-299.7835
20
99.251000000000005
30
0
40
0.73499999999999999
210
0
220
0
230
1
0
CIRCLE
5
813
100
AcDbEntity
8
0
100
AcDbCircle
10
-297.24350000000004
20
104.33100000000002
30
0
40
1.9939
210
0
220
0
230
1
0
CIRCLE
5
814
100
AcDbEntity
8
0
100
AcDbCircle
10
-311.8485
20
85.281000000000006
30
0
40
0.87500000000000011
210
0
220
0
230
1
0
CIRCLE
5
815
100
AcDbEntity
8
0
100
AcDbCircle
10
-301.68849999999998
20
85.281000000000006
30
0
40
0.87500000000000011
210
0
220
0
230
1
0
CIRCLE
5
816
100
AcDbEntity
8
0
100
AcDbCircle
10
-302.95850000000002
20
82.741000000000014
30
0
40
0.73499999999999999
210
0
220
0
230
1
0
CIRCLE
5
817
100
AcDbEntity
8
0
100
AcDbCircle
10
-378.17425000000003
20
112.58600000000001
30
0
40
1.9939
210
0
220
0
230
1
0
CIRCLE
5
818
100
AcDbEntity
8
0
100
AcDbCircle
10
-349.63074999999998
20
115.126
30
0
40
1.9939
210
0
220
0
230
1
0
CIRCLE
5
819
100
AcDbEntity
8
0
100
AcDbCircle
10
-355.6635
20
109.411
30
0
40
0.52000000000000002
210
0
220
0
230
1
0
CIRCLE
5
820
100
AcDbEntity
8
0
100
AcDbCircle
10
-315.02350000000001
20
109.411
30
0
40
0.52000000000000002
210
0
220
0
230
1
0
CIRCLE
5
821
100
AcDbEntity
8
0
100
AcDbCircle
10
-336.61349999999999
20
109.411
30
0
40
0.52000000000000002
210
0
220
0
230
1
0
CIRCLE
5
822
100
AcDbEntity
8
0
100
AcDbCircle
10
-295.9735
20
109.411
30
0
40
0.52000000000000002
210
0
220
0
230
1
0
CIRCLE
5
823
100
AcDbEntity
8
0
100
AcDbCircle
10
-298.51350000000002
20
109.411
30
0
40
0.52000000000000002
210
0
220
0
230
1
0
CIRCLE
5
824
100
AcDbEntity
8
0
100
AcDbCircle
10
-276.92349999999999
20
109.411
30
0
40
0.52000000000000002
210
0
220
0
230
1
0
CIRCLE
5
825
100
AcDbEntity
8
0
100
AcDbCircle
10
-195.0085
20
80.200999999999993
30
0
40
0.73499999999999999
210
0
220
0
230
1
0
CIRCLE
5
826
100
AcDbEntity
8
0
100
AcDbCircle
10
-214.05850000000001
20
80.200999999999993
30
0
40
0.73499999999999999
210
0
220
0
230
1
0
CIRCLE
5
827
100
AcDbEntity
8
0
100
AcDbCircle
10
-211.51849999999999
20
85.281000000000006
30
0
40
1.9939
210
0
220
0
230
1
0
CIRCLE
5
828
100
AcDbEntity
8
0
100
AcDbCircle
10
-254.69850000000002
20
85.281000000000006
30
0
40
0.87500000000000011
210
0
220
0
230
1
0
CIRCLE
5
829
100
AcDbEntity
8
0
100
AcDbCircle
10
-249.61850000000001
20
85.281000000000006
30
0
40
1.9939
210
0
220
0
230
1
0
CIRCLE
5
830
100
AcDbEntity
8
0
100
AcDbCircle
10
-226.7585
20
82.741000000000014
30
0
40
0.73499999999999999
210
0
220
0
230
1
0
CIRCLE
5
831
100
AcDbEntity
8
0
100
AcDbCircle
10
-231.83850000000004
20
90.361000000000018
30
0
40
0.52000000000000002
210
0
220
0
230
1
0
CIRCLE
5
832
100
AcDbEntity
8
0
100
AcDbCircle
10
-229.29850000000002
20
90.361000000000018
30
0
40
0.52000000000000002
210
0
220
0
230
1
0
CIRCLE
5
833
100
AcDbEntity
8
0
100
AcDbCircle
10
-250.88850000000002
20
90.361000000000018
30
0
40
0.52000000000000002
210
0
220
0
230
1
0
CIRCLE
5
834
100
AcDbEntity
8
0
100
AcDbCircle
10
-221.04349999999999
20
104.33100000000002
30
0
40
1.9939
210
0
220
0
230
1
0
CIRCLE
5
835
100
AcDbEntity
8
0
100
AcDbCircle
10
-217.23349999999999
20
101.791
30
0
40
0.73499999999999999
210
0
220
0
230
1
0
CIRCLE
5
836
100
AcDbEntity
8
0
100
AcDbCircle
10
-196.9135
20
104.33100000000002
30
0
40
0.87500000000000011
210
0
220
0
230
1
0
CIRCLE
5
837
100
AcDbEntity
8
0
100
AcDbCircle
10
-207.07350000000002
20
104.33100000000002
30
0
40
0.87500000000000011
210
0
220
0
230
1
0
CIRCLE
5
838
100
AcDbEntity
8
0
100
AcDbCircle
10
-204.5335
20
99.251000000000005
30
0
40
0.73499999999999999
210
0
220
0
230
1
0
CIRCLE
5
839
100
AcDbEntity
8
0
100
AcDbCircle
10
-242.63350000000003
20
99.251000000000005
30
0
40
0.73499999999999999
210
0
220
0
230
1
0
CIRCLE
5
840
100
AcDbEntity
8
0
100
AcDbCircle
10
-240.09350000000001
20
104.33100000000002
30
0
40
1.9939
210
0
220
0
230
1
0
CIRCLE
5
841
100
AcDbEntity
8
0
100
AcDbCircle
10
-255.33349999999999
20
101.791
30
0
40
0.73499999999999999
210
0
220
0
230
1
0
CIRCLE
5
842
100
AcDbEntity
8
0
100
AcDbCircle
10
-203.26350000000002
20
109.411
30
0
40
0.52000000000000002
210
0
220
0
230
1
0
CIRCLE
5
843
100
AcDbEntity
8
0
100
AcDbCircle
10
-269.93849999999998
20
90.361000000000018
30
0
40
0.52000000000000002
210
0
220
0
230
1
0
CIRCLE
5
844
100
AcDbEntity
8
0
100
AcDbCircle
10
-264.2235
20
104.33100000000002
30
0
40
0.87500000000000011
210
0
220
0
230
1
0
CIRCLE
5
845
100
AcDbEntity
8
0
100
AcDbCircle
10
-261.68349999999998
20
99.251000000000005
30
0
40
0.73499999999999999
210
0
220
0
230
1
0
CIRCLE
5
846
100
AcDbEntity
8
0
100
AcDbCircle
10
-145.00174999999999
20
80.200999999999993
30
0
40
0.73499999999999999
210
0
220
0
230
1
0
CIRCLE
5
847
100
AcDbEntity
8
0
100
AcDbCircle
10
-145.95474999999999
20
90.361000000000018
30
0
40
0.52000000000000002
210
0
220
0
230
1
0
CIRCLE
5
848
100
AcDbEntity
8
0
100
AcDbCircle
10
-146.90725
20
104.33100000000002
30
0
40
0.87500000000000011
210
0
220
0
230
1
0
CIRCLE
5
849
100
AcDbEntity
8
0
100
AcDbCircle
10
-168.33850000000001
20
85.281000000000006
30
0
40
0.87500000000000011
210
0
220
0
230
1
0
CIRCLE
5
850
100
AcDbEntity
8
0
100
AcDbCircle
10
-148.49475000000001
20
90.361000000000018
30
0
40
0.52000000000000002
210
0
220
0
230
1
0
CIRCLE
5
851
100
AcDbEntity
8
0
100
AcDbCircle
10
-152.30475000000001
20
85.281000000000006
30
0
40
0.87500000000000011
210
0
220
0
230
1
0
CIRCLE
5
852
100
AcDbEntity
8
0
100
AcDbCircle
10
-163.92525000000003
20
97.346000000000004
30
0
40
1.524
210
0
220
0
230
1
0
CIRCLE
5
853
100
AcDbEntity
8
0
100
AcDbCircle
10
-154.52725000000001
20
99.251000000000005
30
0
40
0.73499999999999999
210
0
220
0
230
1
0
CIRCLE
5
854
100
AcDbEntity
8
0
100
AcDbCircle
10
-188.6585
20
82.741000000000014
30
0
40
0.73499999999999999
210
0
220
0
230
1
0
CIRCLE
5
855
100
AcDbEntity
8
0
100
AcDbCircle
10
-187.38849999999999
20
85.281000000000006
30
0
40
0.87500000000000011
210
0
220
0
230
1
0
CIRCLE
5
856
100
AcDbEntity
8
0
100
AcDbCircle
10
-188.02350000000001
20
104.33100000000002
30
0
40
0.87500000000000011
210
0
220
0
230
1
0
CIRCLE
5
857
100
AcDbEntity
8
0
100
AcDbCircle
10
-178.49850000000001
20
85.281000000000006
30
0
40
0.87500000000000011
210
0
220
0
230
1
0
CIRCLE
5
858
100
AcDbEntity
8
0
100
AcDbCircle
10
-193.73850000000002
20
90.361000000000018
30
0
40
0.52000000000000002
210
0
220
0
230
1
0
CIRCLE
5
859
100
AcDbEntity
8
0
100
AcDbCircle
10
-382.93675000000002
20
77.02600000000001
30
0
40
1.9939
210
0
220
0
230
1
0
CIRCLE
5
860
100
AcDbEntity
8
0
100
AcDbCircle
10
-40.38600000000001
20
77.02600000000001
30
0
40
0.52000000000000002
210
0
220
0
230
1
0
CIRCLE
5
861
100
AcDbEntity
8
0
100
AcDbCircle
10
-388.84225000000004
20
109.411
30
0
40
0.52000000000000002
210
0
220
0
230
1
0
CIRCLE
5
862
100
AcDbEntity
8
0
100
AcDbCircle
10
-40.38600000000001
20
115.126
30
0
40
0.52000000000000002
210
0
220
0
230
1
0
CIRCLE
5
863
100
AcDbEntity
8
0
100
AcDbCircle
10
-117.53900000000002
20
114.17400000000001
30
0
40
0.52000000000000002
210
0
220
0
230
1
0
CIRCLE
5
864
100
AcDbEntity
8
0
100
AcDbCircle
10
-114.999
20
114.17400000000001
30
0
40
0.52000000000000002
210
0
220
0
230
1
0
CIRCLE
5
865
100
AcDbEntity
8
0
100
AcDbCircle
10
-55.625999999999998
20
109.411
30
0
40
0.52000000000000002
210
0
220
0
230
1
0
CIRCLE
5
866
100
AcDbEntity
8
0
100
AcDbCircle
10
-140.04925
20
112.58600000000001
30
0
40
1.9939
210
0
220
0
230
1
0
CIRCLE
5
867
100
AcDbEntity
8
0
100
AcDbCircle
10
-116.26900000000001
20
109.09399999999999
30
0
40
1.9939
210
0
220
0
230
1
0
CIRCLE
5
868
100
AcDbEntity
8
0
100
AcDbCircle
10
-111.18899999999999
20
109.09399999999999
30
0
40
0.87500000000000011
210
0
220
0
230
1
0
CIRCLE
5
869
100
AcDbEntity
8
0
100
AcDbCircle
10
-74.676000000000016
20
109.411
30
0
40
0.52000000000000002
210
0
220
0
230
1
0
CIRCLE
5
870
100
AcDbEntity
8
0
100
AcDbCircle
10
-340.10575000000006
20
115.126
30
0
40
1.9939
210
0
220
0
230
1
0
CIRCLE
5
871
100
AcDbEntity
8
0
100
AcDbCircle
10
-335.33690000000001
20
115.126
30
0
40
1.9939
210
0
220
0
230
1
0
CIRCLE
5
872
100
AcDbEntity
8
0
100
AcDbCircle
10
-330.57440000000008
20
115.126
30
0
40
1.9939
210
0
220
0
230
1
0
CIRCLE
5
873
100
AcDbEntity
8
0
100
AcDbCircle
10
-225.80574999999999
20
115.126
30
0
40
1.9939
210
0
220
0
230
1
0
CIRCLE
5
874
100
AcDbEntity
8
0
100
AcDbCircle
10
-238.82350000000002
20
109.411
30
0
40
0.52000000000000002
210
0
220
0
230
1
0
CIRCLE
5
875
100
AcDbEntity
8
0
100
AcDbCircle
10
-260.4135
20
109.411
30
0
40
0.52000000000000002
210
0
220
0
230
1
0
CIRCLE
5
876
100
AcDbEntity
8
0
100
AcDbCircle
10
-334.07350000000002
20
109.411
30
0
40
0.52000000000000002
210
0
220
0
230
1
0
CIRCLE
5
877
100
AcDbEntity
8
0
100
AcDbCircle
10
-222.31350000000003
20
109.411
30
0
40
0.52000000000000002
210
0
220
0
230
1
0
CIRCLE
5
878
100
AcDbEntity
8
0
100
AcDbCircle
10
-219.77350000000001
20
109.411
30
0
40
0.52000000000000002
210
0
220
0
230
1
0
CIRCLE
5
879
100
AcDbEntity
8
0
100
AcDbCircle
10
-223.934
20
10.568
30
0
40
0.32500000000000001
210
0
220
0
230
1
0
CIRCLE
5
880
100
AcDbEntity
8
0
100
AcDbCircle
10
-218.154
20
10.568
30
0
40
0.32500000000000001
210
0
220
0
230
1
0
CIRCLE
5
881
100
AcDbEntity
8
0
100
AcDbCircle
10
-31.495999999999999
20
20.828000000000003
30
0
40
0.73499999999999999
210
0
220
0
230
1
0
CIRCLE
5
882
100
AcDbEntity
8
0
100
AcDbCircle
10
-30.226000000000003
20
23.367999999999999
30
0
40
0.87500000000000011
210
0
220
0
230
1
0
CIRCLE
5
883
100
AcDbEntity
8
0
100
AcDbCircle
10
-30.226000000000003
20
111.316
30
0
40
0.73499999999999999
210
0
220
0
230
1
0
CIRCLE
5
884
100
AcDbEntity
8
0
100
AcDbCircle
10
-30.226000000000003
20
73.216000000000008
30
0
40
0.73499999999999999
210
0
220
0
230
1
0
CIRCLE
5
885
100
AcDbEntity
8
0
100
AcDbCircle
10
-35.305999999999997
20
23.367999999999999
30
0
40
1.9939
210
0
220
0
230
1
0
CIRCLE
5
886
100
AcDbEntity
8
0
100
AcDbCircle
10
-35.305999999999997
20
80.836000000000013
30
0
40
0.87500000000000011
210
0
220
0
230
1
0
CIRCLE
5
887
100
AcDbEntity
8
0
100
AcDbCircle
10
-35.305999999999997
20
70.676000000000002
30
0
40
0.87500000000000011
210
0
220
0
230
1
0
CIRCLE
5
888
100
AcDbEntity
8
0
100
AcDbCircle
10
-36.576000000000008
20
52.26100000000001
30
0
40
0.52000000000000002
210
0
220
0
230
1
0
CIRCLE
5
889
100
AcDbEntity
8
0
100
AcDbCircle
10
-32.766000000000005
20
117.666
30
0
40
0.73499999999999999
210
0
220
0
230
1
0
CIRCLE
5
890
100
AcDbEntity
8
0
100
AcDbCircle
10
-35.305999999999997
20
118.93600000000001
30
0
40
0.87500000000000011
210
0
220
0
230
1
0
CIRCLE
5
891
100
AcDbEntity
8
0
100
AcDbCircle
10
-35.305999999999997
20
113.85599999999999
30
0
40
1.9939
210
0
220
0
230
1
0
CIRCLE
5
892
100
AcDbEntity
8
0
100
AcDbCircle
10
-35.305999999999997
20
108.77600000000001
30
0
40
0.87500000000000011
210
0
220
0
230
1
0
CIRCLE
5
893
100
AcDbEntity
8
0
100
AcDbCircle
10
-35.305999999999997
20
75.756
30
0
40
1.9939
210
0
220
0
230
1
0
CIRCLE
5
894
100
AcDbEntity
8
0
100
AcDbCircle
10
-32.766000000000005
20
79.566000000000003
30
0
40
0.73499999999999999
210
0
220
0
230
1
0
CIRCLE
5
895
100
AcDbEntity
8
0
100
AcDbCircle
10
-35.305999999999997
20
47.180999999999997
30
0
40
1.9939
210
0
220
0
230
1
0
CIRCLE
5
896
100
AcDbEntity
8
0
100
AcDbCircle
10
-31.495999999999999
20
44.641000000000005
30
0
40
0.73499999999999999
210
0
220
0
230
1
0
CIRCLE
5
897
100
AcDbEntity
8
0
100
AcDbCircle
10
-30.226000000000003
20
47.180999999999997
30
0
40
0.87500000000000011
210
0
220
0
230
1
0
CIRCLE
5
898
100
AcDbEntity
8
0
100
AcDbCircle
10
-34.036000000000001
20
52.26100000000001
30
0
40
0.52000000000000002
210
0
220
0
230
1
0
CIRCLE
5
899
100
AcDbEntity
8
0
100
AcDbCircle
10
-34.036000000000001
20
28.448
30
0
40
0.52000000000000002
210
0
220
0
230
1
0
CIRCLE
5
900
100
AcDbEntity
8
0
100
AcDbCircle
10
-37.845999999999997
20
42.100999999999999
30
0
40
0.73499999999999999
210
0
220
0
230
1
0
CIRCLE
5
901
100
AcDbEntity
8
0
100
AcDbCircle
10
-36.576000000000008
20
28.448
30
0
40
0.52000000000000002
210
0
220
0
230
1
0
CIRCLE
5
902
100
AcDbEntity
8
0
100
AcDbCircle
10
-98.489000000000004
20
133.22399999999999
30
0
40
0.52000000000000002
210
0
220
0
230
1
0
CIRCLE
5
903
100
AcDbEntity
8
0
100
AcDbCircle
10
-114.999
20
133.22399999999999
30
0
40
0.52000000000000002
210
0
220
0
230
1
0
CIRCLE
5
904
100
AcDbEntity
8
0
100
AcDbCircle
10
-134.04900000000001
20
133.22399999999999
30
0
40
0.52000000000000002
210
0
220
0
230
1
0
CIRCLE
5
905
100
AcDbEntity
8
0
100
AcDbCircle
10
-117.53900000000002
20
133.22399999999999
30
0
40
0.52000000000000002
210
0
220
0
230
1
0
CIRCLE
5
906
100
AcDbEntity
8
0
100
AcDbCircle
10
-95.949000000000012
20
133.22399999999999
30
0
40
0.52000000000000002
210
0
220
0
230
1
0
CIRCLE
5
907
100
AcDbEntity
8
0
100
AcDbCircle
10
-136.589
20
133.22399999999999
30
0
40
0.52000000000000002
210
0
220
0
230
1
0
CIRCLE
5
908
100
AcDbEntity
8
0
100
AcDbCircle
10
-411.86100000000005
20
23.367999999999999
30
0
40
0.87500000000000011
210
0
220
0
230
1
0
CIRCLE
5
909
100
AcDbEntity
8
0
100
AcDbCircle
10
-408.05100000000004
20
28.448
30
0
40
0.52000000000000002
210
0
220
0
230
1
0
CIRCLE
5
910
100
AcDbEntity
8
0
100
AcDbCircle
10
-406.78100000000001
20
23.367999999999999
30
0
40
1.9939
210
0
220
0
230
1
0
CIRCLE
5
911
100
AcDbEntity
8
0
100
AcDbCircle
10
-409.19400000000002
20
40.195999999999998
30
0
40
1.524
210
0
220
0
230
1
0
CIRCLE
5
912
100
AcDbEntity
8
0
100
AcDbCircle
10
-412.65475000000004
20
63.817999999999998
30
0
40
1.9939
210
0
220
0
230
1
0
CIRCLE
5
913
100
AcDbEntity
8
0
100
AcDbCircle
10
-409.19400000000002
20
55.436000000000007
30
0
40
1.9939
210
0
220
0
230
1
0
CIRCLE
5
914
100
AcDbEntity
8
0
100
AcDbCircle
10
-395.98600000000005
20
52.26100000000001
30
0
40
0.52000000000000002
210
0
220
0
230
1
0
CIRCLE
5
915
100
AcDbEntity
8
0
100
AcDbCircle
10
-398.52600000000001
20
52.26100000000001
30
0
40
0.52000000000000002
210
0
220
0
230
1
0
CIRCLE
5
916
100
AcDbEntity
8
0
100
AcDbCircle
10
-411.86075000000005
20
123.381
30
0
40
0.87500000000000011
210
0
220
0
230
1
0
CIRCLE
5
917
100
AcDbEntity
8
0
100
AcDbCircle
10
-398.20825000000008
20
120.84099999999999
30
0
40
0.73499999999999999
210
0
220
0
230
1
0
CIRCLE
5
918
100
AcDbEntity
8
0
100
AcDbCircle
10
-404.55825000000004
20
118.30100000000002
30
0
40
0.73499999999999999
210
0
220
0
230
1
0
CIRCLE
5
919
100
AcDbEntity
8
0
100
AcDbCircle
10
-409.32074999999998
20
118.30100000000002
30
0
40
0.73499999999999999
210
0
220
0
230
1
0
CIRCLE
5
920
100
AcDbEntity
8
0
100
AcDbCircle
10
-395.19225000000006
20
104.33100000000002
30
0
40
0.87500000000000011
210
0
220
0
230
1
0
CIRCLE
5
921
100
AcDbEntity
8
0
100
AcDbCircle
10
-399.95474999999999
20
85.281000000000006
30
0
40
0.87500000000000011
210
0
220
0
230
1
0
CIRCLE
5
922
100
AcDbEntity
8
0
100
AcDbCircle
10
-412.65475000000004
20
87.694000000000017
30
0
40
1.9939
210
0
220
0
230
1
0
CIRCLE
5
923
100
AcDbEntity
8
0
100
AcDbCircle
10
-409.47975000000008
20
75.756
30
0
40
0.87500000000000011
210
0
220
0
230
1
0
CIRCLE
5
924
100
AcDbEntity
8
0
100
AcDbCircle
10
-409.32100000000003
20
18.288000000000004
30
0
40
0.73499999999999999
210
0
220
0
230
1
0
ENDSEC
0
SECTION
2
OBJECTS
0
DICTIONARY
5
C
100
AcDbDictionary
3
ACAD_GROUP
350
D
3
ACAD_MLINESTYLE
350
17
0
DICTIONARY
5
D
100
AcDbDictionary
0
DICTIONARY
5
1A
330
C
100
AcDbDictionary
0
DICTIONARY
5
17
100
AcDbDictionary
0
ENDSEC
0
EOF
