  0
SECTION
  2
HEADER
  9
$ACADVER
  1
AC1024
  9
$ACADMAINTVER
 70
     6
  9
$DWGCODEPAGE
  3
ANSI_1252
  9
$INSBASE
 10
0.0
 20
0.0
 30
0.0
  9
$EXTMIN
 10
1.000000000000000E+20
 20
1.000000000000000E+20
 30
1.000000000000000E+20
  9
$EXTMAX
 10
-1.000000000000000E+20
 20
-1.000000000000000E+20
 30
-1.000000000000000E+20
  9
$LIMMIN
 10
0.0
 20
0.0
  9
$LIMMAX
 10
12.0
 20
9.0
  9
$ORTHOMODE
 70
     0
  9
$REGENMODE
 70
     1
  9
$FILLMODE
 70
     1
  9
$QTEXTMODE
 70
     0
  9
$MIRRTEXT
 70
     1
  9
$LTSCALE
 40
1.0
  9
$ATTMODE
 70
     1
  9
$TEXTSIZE
 40
0.2
  9
$TRACEWID
 40
0.05
  9
$TEXTSTYLE
  7
Standard
  9
$CLAYER
  8
0
  9
$CELTYPE
  6
ByLayer
  9
$CECOLOR
 62
   256
  9
$CELTSCALE
 40
1.0
  9
$DISPSILH
 70
     0
  9
$DIMSCALE
 40
1.0
  9
$DIMASZ
 40
0.18
  9
$DIMEXO
 40
0.0625
  9
$DIMDLI
 40
0.38
  9
$DIMRND
 40
0.0
  9
$DIMDLE
 40
0.0
  9
$DIMEXE
 40
0.18
  9
$DIMTP
 40
0.0
  9
$DIMTM
 40
0.0
  9
$DIMTXT
 40
0.18
  9
$DIMCEN
 40
0.09
  9
$DIMTSZ
 40
0.0
  9
$DIMTOL
 70
     0
  9
$DIMLIM
 70
     0
  9
$DIMTIH
 70
     1
  9
$DIMTOH
 70
     1
  9
$DIMSE1
 70
     0
  9
$DIMSE2
 70
     0
  9
$DIMTAD
 70
     0
  9
$DIMZIN
 70
     0
  9
$DIMBLK
  1

  9
$DIMASO
 70
     1
  9
$DIMSHO
 70
     1
  9
$DIMPOST
  1

  9
$DIMAPOST
  1

  9
$DIMALT
 70
     0
  9
$DIMALTD
 70
     2
  9
$DIMALTF
 40
25.4
  9
$DIMLFAC
 40
1.0
  9
$DIMTOFL
 70
     0
  9
$DIMTVP
 40
0.0
  9
$DIMTIX
 70
     0
  9
$DIMSOXD
 70
     0
  9
$DIMSAH
 70
     0
  9
$DIMBLK1
  1

  9
$DIMBLK2
  1

  9
$DIMSTYLE
  2
Standard
  9
$DIMCLRD
 70
     0
  9
$DIMCLRE
 70
     0
  9
$DIMCLRT
 70
     0
  9
$DIMTFAC
 40
1.0
  9
$DIMGAP
 40
0.09
  9
$DIMJUST
 70
     0
  9
$DIMSD1
 70
     0
  9
$DIMSD2
 70
     0
  9
$DIMTOLJ
 70
     1
  9
$DIMTZIN
 70
     0
  9
$DIMALTZ
 70
     0
  9
$DIMALTTZ
 70
     0
  9
$DIMUPT
 70
     0
  9
$DIMDEC
 70
     4
  9
$DIMTDEC
 70
     4
  9
$DIMALTU
 70
     2
  9
$DIMALTTD
 70
     2
  9
$DIMTXSTY
  7
Standard
  9
$DIMAUNIT
 70
     0
  9
$DIMADEC
 70
     0
  9
$DIMALTRND
 40
0.0
  9
$DIMAZIN
 70
     0
  9
$DIMDSEP
 70
    46
  9
$DIMATFIT
 70
     3
  9
$DIMFRAC
 70
     0
  9
$DIMLDRBLK
  1

  9
$DIMLUNIT
 70
     2
  9
$DIMLWD
 70
    -2
  9
$DIMLWE
 70
    -2
  9
$DIMTMOVE
 70
     0
  9
$DIMFXL
 40
1.0
  9
$DIMFXLON
 70
     0
  9
$DIMJOGANG
 40
0.7853981633974483
  9
$DIMTFILL
 70
     0
  9
$DIMTFILLCLR
 70
     0
  9
$DIMARCSYM
 70
     0
  9
$DIMLTYPE
  6

  9
$DIMLTEX1
  6

  9
$DIMLTEX2
  6

  9
$DIMTXTDIRECTION
 70
     0
  9
$LUNITS
 70
     2
  9
$LUPREC
 70
     4
  9
$SKETCHINC
 40
0.1
  9
$FILLETRAD
 40
0.5
  9
$AUNITS
 70
     0
  9
$AUPREC
 70
     0
  9
$MENU
  1
.
  9
$ELEVATION
 40
0.0
  9
$PELEVATION
 40
0.0
  9
$THICKNESS
 40
0.0
  9
$LIMCHECK
 70
     0
  9
$CHAMFERA
 40
0.5
  9
$CHAMFERB
 40
0.5
  9
$CHAMFERC
 40
1.0
  9
$CHAMFERD
 40
0.0
  9
$SKPOLY
 70
     0
  9
$TDCREATE
 40
2459072.726702188
  9
$TDUCREATE
 40
2459073.018368854
  9
$TDUPDATE
 40
2459072.726702558
  9
$TDUUPDATE
 40
2459073.018369224
  9
$TDINDWG
 40
0.0000000116
  9
$TDUSRTIMER
 40
0.0000000116
  9
$USRTIMER
 70
     1
  9
$ANGBASE
 50
0.0
  9
$ANGDIR
 70
     0
  9
$PDMODE
 70
     0
  9
$PDSIZE
 40
0.0
  9
$PLINEWID
 40
0.0
  9
$SPLFRAME
 70
     0
  9
$SPLINETYPE
 70
     6
  9
$SPLINESEGS
 70
     8
  9
$HANDSEED
  5
D3
  9
$SURFTAB1
 70
     6
  9
$SURFTAB2
 70
     6
  9
$SURFTYPE
 70
     6
  9
$SURFU
 70
     6
  9
$SURFV
 70
     6
  9
$UCSBASE
  2

  9
$UCSNAME
  2

  9
$UCSORG
 10
0.0
 20
0.0
 30
0.0
  9
$UCSXDIR
 10
1.0
 20
0.0
 30
0.0
  9
$UCSYDIR
 10
0.0
 20
1.0
 30
0.0
  9
$UCSORTHOREF
  2

  9
$UCSORTHOVIEW
 70
     0
  9
$UCSORGTOP
 10
0.0
 20
0.0
 30
0.0
  9
$UCSORGBOTTOM
 10
0.0
 20
0.0
 30
0.0
  9
$UCSORGLEFT
 10
0.0
 20
0.0
 30
0.0
  9
$UCSORGRIGHT
 10
0.0
 20
0.0
 30
0.0
  9
$UCSORGFRONT
 10
0.0
 20
0.0
 30
0.0
  9
$UCSORGBACK
 10
0.0
 20
0.0
 30
0.0
  9
$PUCSBASE
  2

  9
$PUCSNAME
  2

  9
$PUCSORG
 10
0.0
 20
0.0
 30
0.0
  9
$PUCSXDIR
 10
1.0
 20
0.0
 30
0.0
  9
$PUCSYDIR
 10
0.0
 20
1.0
 30
0.0
  9
$PUCSORTHOREF
  2

  9
$PUCSORTHOVIEW
 70
     0
  9
$PUCSORGTOP
 10
0.0
 20
0.0
 30
0.0
  9
$PUCSORGBOTTOM
 10
0.0
 20
0.0
 30
0.0
  9
$PUCSORGLEFT
 10
0.0
 20
0.0
 30
0.0
  9
$PUCSORGRIGHT
 10
0.0
 20
0.0
 30
0.0
  9
$PUCSORGFRONT
 10
0.0
 20
0.0
 30
0.0
  9
$PUCSORGBACK
 10
0.0
 20
0.0
 30
0.0
  9
$USERI1
 70
     0
  9
$USERI2
 70
     0
  9
$USERI3
 70
     0
  9
$USERI4
 70
     0
  9
$USERI5
 70
     0
  9
$USERR1
 40
0.0
  9
$USERR2
 40
0.0
  9
$USERR3
 40
0.0
  9
$USERR4
 40
0.0
  9
$USERR5
 40
0.0
  9
$WORLDVIEW
 70
     1
  9
$SHADEDGE
 70
     3
  9
$SHADEDIF
 70
    70
  9
$TILEMODE
 70
     1
  9
$MAXACTVP
 70
    64
  9
$PINSBASE
 10
0.0
 20
0.0
 30
0.0
  9
$PLIMCHECK
 70
     0
  9
$PEXTMIN
 10
1.000000000000000E+20
 20
1.000000000000000E+20
 30
1.000000000000000E+20
  9
$PEXTMAX
 10
-1.000000000000000E+20
 20
-1.000000000000000E+20
 30
-1.000000000000000E+20
  9
$PLIMMIN
 10
0.0
 20
0.0
  9
$PLIMMAX
 10
12.0
 20
9.0
  9
$UNITMODE
 70
     0
  9
$VISRETAIN
 70
     1
  9
$PLINEGEN
 70
     0
  9
$PSLTSCALE
 70
     1
  9
$TREEDEPTH
 70
  3020
  9
$CMLSTYLE
  2
Standard
  9
$CMLJUST
 70
     0
  9
$CMLSCALE
 40
1.0
  9
$PROXYGRAPHICS
 70
     1
  9
$MEASUREMENT
 70
     0
  9
$CELWEIGHT
370
    -1
  9
$ENDCAPS
280
     0
  9
$JOINSTYLE
280
     0
  9
$LWDISPLAY
290
     1
  9
$INSUNITS
 70
     0
  9
$HYPERLINKBASE
  1

  9
$STYLESHEET
  1

  9
$XEDIT
290
     1
  9
$CEPSNTYPE
380
     0
  9
$PSTYLEMODE
290
     1
  9
$FINGERPRINTGUID
  2
{AB85DA6C-8C24-4B63-A5E9-9265A514A6B9}
  9
$VERSIONGUID
  2
{FAEB1C32-E019-11D5-929B-00C0DF256EC4}
  9
$EXTNAMES
290
     1
  9
$PSVPSCALE
 40
0.0
  9
$OLESTARTUP
290
     0
  9
$SORTENTS
280
   127
  9
$INDEXCTL
280
     0
  9
$HIDETEXT
280
     1
  9
$XCLIPFRAME
280
     2
  9
$HALOGAP
280
     0
  9
$OBSCOLOR
 70
   257
  9
$OBSLTYPE
280
     0
  9
$INTERSECTIONDISPLAY
280
     0
  9
$INTERSECTIONCOLOR
 70
   257
  9
$DIMASSOC
280
     2
  9
$PROJECTNAME
  1

  9
$CAMERADISPLAY
290
     0
  9
$LENSLENGTH
 40
50.0
  9
$CAMERAHEIGHT
 40
0.0
  9
$STEPSPERSEC
 40
2.0
  9
$STEPSIZE
 40
6.0
  9
$3DDWFPREC
 40
2.0
  9
$PSOLWIDTH
 40
0.25
  9
$PSOLHEIGHT
 40
4.0
  9
$LOFTANG1
 40
1.570796326794897
  9
$LOFTANG2
 40
1.570796326794897
  9
$LOFTMAG1
 40
0.0
  9
$LOFTMAG2
 40
0.0
  9
$LOFTPARAM
 70
     7
  9
$LOFTNORMALS
280
     1
  9
$LATITUDE
 40
37.795
  9
$LONGITUDE
 40
-122.394
  9
$NORTHDIRECTION
 40
0.0
  9
$TIMEZONE
 70
 -8000
  9
$LIGHTGLYPHDISPLAY
280
     1
  9
$TILEMODELIGHTSYNCH
280
     1
  9
$CMATERIAL
347
3C
  9
$SOLIDHIST
280
     1
  9
$SHOWHIST
280
     1
  9
$DWFFRAME
280
     2
  9
$DGNFRAME
280
     2
  9
$REALWORLDSCALE
290
     1
  9
$INTERFERECOLOR
 62
   256
  9
$CSHADOW
280
     0
  9
$SHADOWPLANELOCATION
 40
0.0
  0
ENDSEC
  0
SECTION
  2
CLASSES
  0
CLASS
  1
ACDBDICTIONARYWDFLT
  2
AcDbDictionaryWithDefault
  3
ObjectDBX Classes
 90
        0
 91
        4
280
     0
281
     0
  0
CLASS
  1
VISUALSTYLE
  2
AcDbVisualStyle
  3
ObjectDBX Classes
 90
     4095
 91
        4
280
     0
281
     0
  0
CLASS
  1
MATERIAL
  2
AcDbMaterial
  3
ObjectDBX Classes
 90
     1153
 91
        4
280
     0
281
     0
  0
CLASS
  1
SUN
  2
AcDbSun
  3
SCENEOE
 90
     1024
 91
        4
280
     0
281
     0
  0
ENDSEC
  0
SECTION
  2
TABLES
  0
TABLE
  2
VPORT
  5
8
330
0
100
AcDbSymbolTable
 70
     1
  0
VPORT
  5
29
330
8
100
AcDbSymbolTableRecord
100
AcDbViewportTableRecord
  2
*Active
 70
     0
 10
0.0
 20
0.0
 11
1.0
 21
1.0
 12
0.0
 22
0.0
 13
0.0
 23
0.0
 14
0.5
 24
0.5
 15
0.5
 25
0.5
 16
0.0
 26
0.0
 36
1.0
 17
500.0
 27
-500.0
 37
0.0
 40
1000.0
 41
1.0
 42
50.0
 43
0.0
 44
0.0
 50
0.0
 51
0.0
 71
     0
 72
   100
 73
     1
 74
     3
 75
     0
 76
     0
 77
     0
 78
     0
281
     0
 65
     1
110
0.0
120
0.0
130
0.0
111
1.0
121
0.0
131
0.0
112
0.0
122
1.0
132
0.0
 79
     0
146
0.0
 60
     3
 61
     5
292
     1
282
     1
141
0.0
142
0.0
 63
   250
361
3F
  0
ENDTAB
  0
TABLE
  2
LTYPE
  5
5
330
0
100
AcDbSymbolTable
 70
     1
  0
LTYPE
  5
14
330
5
100
AcDbSymbolTableRecord
100
AcDbLinetypeTableRecord
  2
ByBlock
 70
     0
  3

 72
    65
 73
     0
 40
0.0
  0
LTYPE
  5
15
330
5
100
AcDbSymbolTableRecord
100
AcDbLinetypeTableRecord
  2
ByLayer
 70
     0
  3

 72
    65
 73
     0
 40
0.0
  0
LTYPE
  5
16
330
5
100
AcDbSymbolTableRecord
100
AcDbLinetypeTableRecord
  2
Continuous
 70
     0
  3
Solid line
 72
    65
 73
     0
 40
0.0
  0
ENDTAB
  0
TABLE
  2
LAYER
  5
2
330
0
100
AcDbSymbolTable
 70
     2
  0
LAYER
  5
10
330
2
100
AcDbSymbolTableRecord
100
AcDbLayerTableRecord
  2
0
 70
     0
 62
     7
  6
Continuous
370
    -3
390
F
347
3E
  0
LAYER
  5
40
330
2
100
AcDbSymbolTableRecord
100
AcDbLayerTableRecord
  2
Layer 1
 70
     0
 62
     7
  6
Continuous
370
    -3
390
F
347
3E
  0
ENDTAB
  0
TABLE
  2
STYLE
  5
3
330
0
100
AcDbSymbolTable
 70
     1
  0
STYLE
  5
11
330
3
100
AcDbSymbolTableRecord
100
AcDbTextStyleTableRecord
  2
Standard
 70
     0
 40
0.0
 41
1.0
 50
0.0
 71
     0
 42
0.2
  3
txt
  4

  0
ENDTAB
  0
TABLE
  2
VIEW
  5
6
330
0
100
AcDbSymbolTable
 70
     0
  0
ENDTAB
  0
TABLE
  2
UCS
  5
7
330
0
100
AcDbSymbolTable
 70
     0
  0
ENDTAB
  0
TABLE
  2
APPID
  5
9
330
0
100
AcDbSymbolTable
 70
     1
  0
APPID
  5
12
330
9
100
AcDbSymbolTableRecord
100
AcDbRegAppTableRecord
  2
ACAD
 70
     0
  0
ENDTAB
  0
TABLE
  2
DIMSTYLE
  5
A
330
0
100
AcDbSymbolTable
 70
     1
100
AcDbDimStyleTable
  0
DIMSTYLE
105
27
330
A
100
AcDbSymbolTableRecord
100
AcDbDimStyleTableRecord
  2
Standard
 70
     0
178
     0
340
11
  0
ENDTAB
  0
TABLE
  2
BLOCK_RECORD
  5
1
330
0
100
AcDbSymbolTable
 70
     1
  0
BLOCK_RECORD
  5
1F
330
1
100
AcDbSymbolTableRecord
100
AcDbBlockTableRecord
  2
*Model_Space
340
22
 70
     0
280
     1
281
     0
  0
BLOCK_RECORD
  5
1B
330
1
100
AcDbSymbolTableRecord
100
AcDbBlockTableRecord
  2
*Paper_Space
340
1E
 70
     0
280
     1
281
     0
  0
BLOCK_RECORD
  5
23
330
1
100
AcDbSymbolTableRecord
100
AcDbBlockTableRecord
  2
*Paper_Space0
340
26
 70
     0
280
     1
281
     0
  0
ENDTAB
  0
ENDSEC
  0
SECTION
  2
BLOCKS
  0
BLOCK
  5
20
330
1F
100
AcDbEntity
  8
0
100
AcDbBlockBegin
  2
*Model_Space
 70
     0
 10
0.0
 20
0.0
 30
0.0
  3
*Model_Space
  1

  0
ENDBLK
  5
21
330
1F
100
AcDbEntity
  8
0
100
AcDbBlockEnd
  0
BLOCK
  5
1C
330
1B
100
AcDbEntity
 67
     1
  8
0
100
AcDbBlockBegin
  2
*Paper_Space
 70
     0
 10
0.0
 20
0.0
 30
0.0
  3
*Paper_Space
  1

  0
ENDBLK
  5
1D
330
1B
100
AcDbEntity
 67
     1
  8
0
100
AcDbBlockEnd
  0
BLOCK
  5
24
330
23
100
AcDbEntity
  8
0
100
AcDbBlockBegin
  2
*Paper_Space0
 70
     0
 10
0.0
 20
0.0
 30
0.0
  3
*Paper_Space0
  1

  0
ENDBLK
  5
25
330
23
100
AcDbEntity
  8
0
100
AcDbBlockEnd
  0
ENDSEC
  0
SECTION
  2
ENTITIES
  0
POLYLINE
  5
41
330
1F
100
AcDbEntity
  8
Layer 1
370
     0
100
AcDb2dPolyline
 66
     1
 10
0.0
 20
0.0
 30
0.0
  0
VERTEX
  5
42
330
41
100
AcDbEntity
  8
Layer 1
370
     0
100
AcDbVertex
100
AcDb2dVertex
 10
461.645933558093
 20
-413.8426186514816
 30
0.0
  0
VERTEX
  5
43
330
41
100
AcDbEntity
  8
Layer 1
370
     0
100
AcDbVertex
100
AcDb2dVertex
 10
426.2905944987651
 20
-449.1979577108086
 30
0.0
  0
VERTEX
  5
44
330
41
100
AcDbEntity
  8
Layer 1
370
     0
100
AcDbVertex
100
AcDb2dVertex
 10
405.0773905497826
 20
-427.9847537618261
 30
0.0
  0
VERTEX
  5
45
330
41
100
AcDbEntity
  8
Layer 1
370
     0
100
AcDbVertex
100
AcDb2dVertex
 10
440.4327296091105
 20
-392.6294147024983
 30
0.0
  0
VERTEX
  5
46
330
41
100
AcDbEntity
  8
Layer 1
370
     0
100
AcDbVertex
100
AcDb2dVertex
 10
461.645933558093
 20
-413.8426186514816
 30
0.0
  0
SEQEND
  5
48
330
41
100
AcDbEntity
  8
Layer 1
370
     0
  0
HATCH
  5
47
330
1F
100
AcDbEntity
  8
Layer 1
 62
     7
420
 16777215
100
AcDbHatch
 10
0.0
 20
0.0
 30
0.0
210
0.0
220
0.0
230
1.0
  2
SOLID
 70
     1
 71
     0
 91
        1
 92
        1
 93
        4
 72
     1
 10
461.645933558093
 20
-413.8426186514816
 11
426.2905944987651
 21
-449.1979577108086
 72
     1
 10
426.2905944987651
 20
-449.1979577108086
 11
405.0773905497826
 21
-427.9847537618261
 72
     1
 10
405.0773905497826
 20
-427.9847537618261
 11
440.4327296091105
 21
-392.6294147024983
 72
     1
 10
440.4327296091105
 20
-392.6294147024983
 11
461.645933558093
 21
-413.8426186514816
 97
        0
 75
     2
 76
     1
 98
        0
  0
POLYLINE
  5
49
330
1F
100
AcDbEntity
  8
Layer 1
370
     0
100
AcDb2dPolyline
 66
     1
 10
0.0
 20
0.0
 30
0.0
  0
VERTEX
  5
4A
330
49
100
AcDbEntity
  8
Layer 1
370
     0
100
AcDbVertex
100
AcDb2dVertex
 10
581.8540863598064
 20
-604.7614495718499
 30
0.0
  0
VERTEX
  5
4B
330
49
100
AcDbEntity
  8
Layer 1
370
     0
100
AcDbVertex
100
AcDb2dVertex
 10
617.2094254191325
 20
-569.406110512522
 30
0.0
  0
VERTEX
  5
4C
330
49
100
AcDbEntity
  8
Layer 1
370
     0
100
AcDbVertex
100
AcDb2dVertex
 10
638.4226257804312
 20
-590.6193108738207
 30
0.0
  0
VERTEX
  5
4D
330
49
100
AcDbEntity
  8
Layer 1
370
     0
100
AcDbVertex
100
AcDb2dVertex
 10
603.0672867211033
 20
-625.9746499331468
 30
0.0
  0
VERTEX
  5
4E
330
49
100
AcDbEntity
  8
Layer 1
370
     0
100
AcDbVertex
100
AcDb2dVertex
 10
581.8540863598064
 20
-604.7614495718499
 30
0.0
  0
SEQEND
  5
50
330
49
100
AcDbEntity
  8
Layer 1
370
     0
  0
HATCH
  5
4F
330
1F
100
AcDbEntity
  8
Layer 1
 62
     7
420
 16777215
100
AcDbHatch
 10
0.0
 20
0.0
 30
0.0
210
0.0
220
0.0
230
1.0
  2
SOLID
 70
     1
 71
     0
 91
        1
 92
        1
 93
        4
 72
     1
 10
581.8540863598064
 20
-604.7614495718499
 11
617.2094254191325
 21
-569.406110512522
 72
     1
 10
617.2094254191325
 20
-569.406110512522
 11
638.4226257804312
 21
-590.6193108738207
 72
     1
 10
638.4226257804312
 20
-590.6193108738207
 11
603.0672867211033
 21
-625.9746499331468
 72
     1
 10
603.0672867211033
 20
-625.9746499331468
 11
581.8540863598064
 21
-604.7614495718499
 97
        0
 75
     2
 76
     1
 98
        0
  0
POLYLINE
  5
51
330
1F
100
AcDbEntity
  8
Layer 1
370
     0
100
AcDb2dPolyline
 66
     1
 10
0.0
 20
0.0
 30
0.0
  0
VERTEX
  5
52
330
51
100
AcDbEntity
  8
Layer 1
370
     0
100
AcDbVertex
100
AcDb2dVertex
 10
426.2905947072823
 20
-569.4061096942642
 30
0.0
  0
VERTEX
  5
53
330
51
100
AcDbEntity
  8
Layer 1
370
     0
100
AcDbVertex
100
AcDb2dVertex
 10
461.6459337666092
 20
-604.761448753592
 30
0.0
  0
VERTEX
  5
54
330
51
100
AcDbEntity
  8
Layer 1
370
     0
100
AcDbVertex
100
AcDb2dVertex
 10
440.4327298176268
 20
-625.9746527025745
 30
0.0
  0
VERTEX
  5
55
330
51
100
AcDbEntity
  8
Layer 1
370
     0
100
AcDbVertex
100
AcDb2dVertex
 10
405.0773907582989
 20
-590.6193136432485
 30
0.0
  0
VERTEX
  5
56
330
51
100
AcDbEntity
  8
Layer 1
370
     0
100
AcDbVertex
100
AcDb2dVertex
 10
426.2905947072823
 20
-569.4061096942642
 30
0.0
  0
SEQEND
  5
58
330
51
100
AcDbEntity
  8
Layer 1
370
     0
  0
HATCH
  5
57
330
1F
100
AcDbEntity
  8
Layer 1
 62
     7
420
 16777215
100
AcDbHatch
 10
0.0
 20
0.0
 30
0.0
210
0.0
220
0.0
230
1.0
  2
SOLID
 70
     1
 71
     0
 91
        1
 92
        1
 93
        4
 72
     1
 10
426.2905947072823
 20
-569.4061096942642
 11
461.6459337666092
 21
-604.761448753592
 72
     1
 10
461.6459337666092
 20
-604.761448753592
 11
440.4327298176268
 21
-625.9746527025745
 72
     1
 10
440.4327298176268
 20
-625.9746527025745
 11
405.0773907582989
 21
-590.6193136432485
 72
     1
 10
405.0773907582989
 20
-590.6193136432485
 11
426.2905947072823
 21
-569.4061096942642
 97
        0
 75
     2
 76
     1
 98
        0
  0
POLYLINE
  5
59
330
1F
100
AcDbEntity
  8
Layer 1
370
     0
100
AcDb2dPolyline
 66
     1
 10
0.0
 20
0.0
 30
0.0
  0
VERTEX
  5
5A
330
59
100
AcDbEntity
  8
Layer 1
370
     0
100
AcDbVertex
100
AcDb2dVertex
 10
603.0672900039153
 20
-392.6294143976284
 30
0.0
  0
VERTEX
  5
5B
330
59
100
AcDbEntity
  8
Layer 1
370
     0
100
AcDbVertex
100
AcDb2dVertex
 10
638.4226290632414
 20
-427.9847534569553
 30
0.0
  0
VERTEX
  5
5C
330
59
100
AcDbEntity
  8
Layer 1
370
     0
100
AcDbVertex
100
AcDb2dVertex
 10
617.2094251142607
 20
-449.197957405936
 30
0.0
  0
VERTEX
  5
5D
330
59
100
AcDbEntity
  8
Layer 1
370
     0
100
AcDbVertex
100
AcDb2dVertex
 10
581.8540860549347
 20
-413.842618346609
 30
0.0
  0
VERTEX
  5
5E
330
59
100
AcDbEntity
  8
Layer 1
370
     0
100
AcDbVertex
100
AcDb2dVertex
 10
603.0672900039153
 20
-392.6294143976284
 30
0.0
  0
SEQEND
  5
60
330
59
100
AcDbEntity
  8
Layer 1
370
     0
  0
HATCH
  5
5F
330
1F
100
AcDbEntity
  8
Layer 1
 62
     7
420
 16777215
100
AcDbHatch
 10
0.0
 20
0.0
 30
0.0
210
0.0
220
0.0
230
1.0
  2
SOLID
 70
     1
 71
     0
 91
        1
 92
        1
 93
        4
 72
     1
 10
603.0672900039153
 20
-392.6294143976284
 11
638.4226290632414
 21
-427.9847534569553
 72
     1
 10
638.4226290632414
 20
-427.9847534569553
 11
617.2094251142607
 21
-449.197957405936
 72
     1
 10
617.2094251142607
 20
-449.197957405936
 11
581.8540860549347
 21
-413.842618346609
 72
     1
 10
581.8540860549347
 20
-413.842618346609
 11
603.0672900039153
 21
-392.6294143976284
 97
        0
 75
     2
 76
     1
 98
        0
  0
POLYLINE
  5
61
330
1F
100
AcDbEntity
  8
Layer 1
370
     0
100
AcDb2dPolyline
 66
     1
 10
0.0
 20
0.0
 30
0.0
  0
VERTEX
  5
62
330
61
100
AcDbEntity
  8
Layer 1
370
     0
100
AcDbVertex
100
AcDb2dVertex
 10
309.6179754944233
 20
-509.3020340031035
 30
0.0
  0
VERTEX
  5
63
330
61
100
AcDbEntity
  8
Layer 1
370
     0
100
AcDbVertex
100
AcDb2dVertex
 10
521.7500088618453
 20
-297.1700006356814
 30
0.0
  0
VERTEX
  5
64
330
61
100
AcDbEntity
  8
Layer 1
370
     0
100
AcDbVertex
100
AcDb2dVertex
 10
528.8210762685503
 20
-304.2410680423864
 30
0.0
  0
VERTEX
  5
65
330
61
100
AcDbEntity
  8
Layer 1
370
     0
100
AcDbVertex
100
AcDb2dVertex
 10
316.6890429011282
 20
-516.3731014098084
 30
0.0
  0
VERTEX
  5
66
330
61
100
AcDbEntity
  8
Layer 1
370
     0
100
AcDbVertex
100
AcDb2dVertex
 10
309.6179754944233
 20
-509.3020340031035
 30
0.0
  0
SEQEND
  5
68
330
61
100
AcDbEntity
  8
Layer 1
370
     0
  0
HATCH
  5
67
330
1F
100
AcDbEntity
  8
Layer 1
 62
     7
420
 16777215
100
AcDbHatch
 10
0.0
 20
0.0
 30
0.0
210
0.0
220
0.0
230
1.0
  2
SOLID
 70
     1
 71
     0
 91
        1
 92
        1
 93
        4
 72
     1
 10
309.6179754944233
 20
-509.3020340031035
 11
521.7500088618453
 21
-297.1700006356814
 72
     1
 10
521.7500088618453
 20
-297.1700006356814
 11
528.8210762685503
 21
-304.2410680423864
 72
     1
 10
528.8210762685503
 20
-304.2410680423864
 11
316.6890429011282
 21
-516.3731014098084
 72
     1
 10
316.6890429011282
 20
-516.3731014098084
 11
309.6179754944233
 21
-509.3020340031035
 97
        0
 75
     2
 76
     1
 98
        0
  0
POLYLINE
  5
69
330
1F
100
AcDbEntity
  8
Layer 1
370
     0
100
AcDb2dPolyline
 66
     1
 10
0.0
 20
0.0
 30
0.0
  0
VERTEX
  5
6A
330
69
100
AcDbEntity
  8
Layer 1
370
     0
100
AcDbVertex
100
AcDb2dVertex
 10
726.810976711562
 20
-516.3731011052769
 30
0.0
  0
VERTEX
  5
6B
330
69
100
AcDbEntity
  8
Layer 1
370
     0
100
AcDbVertex
100
AcDb2dVertex
 10
733.8820430215019
 20
-509.302034795337
 30
0.0
  0
VERTEX
  5
6C
330
69
100
AcDbEntity
  8
Layer 1
370
     0
100
AcDbVertex
100
AcDb2dVertex
 10
521.7500088618453
 20
-297.1700006356814
 30
0.0
  0
VERTEX
  5
6D
330
69
100
AcDbEntity
  8
Layer 1
370
     0
100
AcDbVertex
100
AcDb2dVertex
 10
514.6789425519055
 20
-304.2410669456203
 30
0.0
  0
VERTEX
  5
6E
330
69
100
AcDbEntity
  8
Layer 1
370
     0
100
AcDbVertex
100
AcDb2dVertex
 10
726.810976711562
 20
-516.3731011052769
 30
0.0
  0
SEQEND
  5
70
330
69
100
AcDbEntity
  8
Layer 1
370
     0
  0
HATCH
  5
6F
330
1F
100
AcDbEntity
  8
Layer 1
 62
     7
420
 16777215
100
AcDbHatch
 10
0.0
 20
0.0
 30
0.0
210
0.0
220
0.0
230
1.0
  2
SOLID
 70
     1
 71
     0
 91
        1
 92
        1
 93
        4
 72
     1
 10
726.810976711562
 20
-516.3731011052769
 11
733.8820430215019
 21
-509.302034795337
 72
     1
 10
733.8820430215019
 20
-509.302034795337
 11
521.7500088618453
 21
-297.1700006356814
 72
     1
 10
521.7500088618453
 20
-297.1700006356814
 11
514.6789425519055
 21
-304.2410669456203
 72
     1
 10
514.6789425519055
 20
-304.2410669456203
 11
726.810976711562
 21
-516.3731011052769
 97
        0
 75
     2
 76
     1
 98
        0
  0
POLYLINE
  5
71
330
1F
100
AcDbEntity
  8
Layer 1
370
     0
100
AcDb2dPolyline
 66
     1
 10
0.0
 20
0.0
 30
0.0
  0
VERTEX
  5
72
330
71
100
AcDbEntity
  8
Layer 1
370
     0
100
AcDbVertex
100
AcDb2dVertex
 10
514.6789418422122
 20
-714.3630003508933
 30
0.0
  0
VERTEX
  5
73
330
71
100
AcDbEntity
  8
Layer 1
370
     0
100
AcDbVertex
100
AcDb2dVertex
 10
726.8109752096352
 20
-502.2309669834704
 30
0.0
  0
VERTEX
  5
74
330
71
100
AcDbEntity
  8
Layer 1
370
     0
100
AcDbVertex
100
AcDb2dVertex
 10
733.8820430215019
 20
-509.302034795337
 30
0.0
  0
VERTEX
  5
75
330
71
100
AcDbEntity
  8
Layer 1
370
     0
100
AcDbVertex
100
AcDb2dVertex
 10
521.7500096540789
 20
-721.43406816276
 30
0.0
  0
VERTEX
  5
76
330
71
100
AcDbEntity
  8
Layer 1
370
     0
100
AcDbVertex
100
AcDb2dVertex
 10
514.6789418422122
 20
-714.3630003508933
 30
0.0
  0
SEQEND
  5
78
330
71
100
AcDbEntity
  8
Layer 1
370
     0
  0
HATCH
  5
77
330
1F
100
AcDbEntity
  8
Layer 1
 62
     7
420
 16777215
100
AcDbHatch
 10
0.0
 20
0.0
 30
0.0
210
0.0
220
0.0
230
1.0
  2
SOLID
 70
     1
 71
     0
 91
        1
 92
        1
 93
        4
 72
     1
 10
514.6789418422122
 20
-714.3630003508933
 11
726.8109752096352
 21
-502.2309669834704
 72
     1
 10
726.8109752096352
 20
-502.2309669834704
 11
733.8820430215019
 21
-509.302034795337
 72
     1
 10
733.8820430215019
 20
-509.302034795337
 11
521.7500096540789
 21
-721.43406816276
 72
     1
 10
521.7500096540789
 20
-721.43406816276
 11
514.6789418422122
 21
-714.3630003508933
 97
        0
 75
     2
 76
     1
 98
        0
  0
POLYLINE
  5
79
330
1F
100
AcDbEntity
  8
Layer 1
370
     0
100
AcDb2dPolyline
 66
     1
 10
0.0
 20
0.0
 30
0.0
  0
VERTEX
  5
7A
330
79
100
AcDbEntity
  8
Layer 1
370
     0
100
AcDbVertex
100
AcDb2dVertex
 10
528.8210774659456
 20
-714.3630003508933
 30
0.0
  0
VERTEX
  5
7B
330
79
100
AcDbEntity
  8
Layer 1
370
     0
100
AcDbVertex
100
AcDb2dVertex
 10
521.7500096540789
 20
-721.43406816276
 30
0.0
  0
VERTEX
  5
7C
330
79
100
AcDbEntity
  8
Layer 1
370
     0
100
AcDbVertex
100
AcDb2dVertex
 10
309.6179754944233
 20
-509.3020340031035
 30
0.0
  0
VERTEX
  5
7D
330
79
100
AcDbEntity
  8
Layer 1
370
     0
100
AcDbVertex
100
AcDb2dVertex
 10
316.6890433062881
 20
-502.2309661912368
 30
0.0
  0
VERTEX
  5
7E
330
79
100
AcDbEntity
  8
Layer 1
370
     0
100
AcDbVertex
100
AcDb2dVertex
 10
528.8210774659456
 20
-714.3630003508933
 30
0.0
  0
SEQEND
  5
80
330
79
100
AcDbEntity
  8
Layer 1
370
     0
  0
HATCH
  5
7F
330
1F
100
AcDbEntity
  8
Layer 1
 62
     7
420
 16777215
100
AcDbHatch
 10
0.0
 20
0.0
 30
0.0
210
0.0
220
0.0
230
1.0
  2
SOLID
 70
     1
 71
     0
 91
        1
 92
        1
 93
        4
 72
     1
 10
528.8210774659456
 20
-714.3630003508933
 11
521.7500096540789
 21
-721.43406816276
 72
     1
 10
521.7500096540789
 20
-721.43406816276
 11
309.6179754944233
 21
-509.3020340031035
 72
     1
 10
309.6179754944233
 20
-509.3020340031035
 11
316.6890433062881
 21
-502.2309661912368
 72
     1
 10
316.6890433062881
 20
-502.2309661912368
 11
528.8210774659456
 21
-714.3630003508933
 97
        0
 75
     2
 76
     1
 98
        0
  0
POLYLINE
  5
81
330
1F
100
AcDbEntity
  8
Layer 1
370
     0
100
AcDb2dPolyline
 66
     1
 10
0.0
 20
0.0
 30
0.0
  0
VERTEX
  5
82
330
81
100
AcDbEntity
  8
Layer 1
370
     0
100
AcDbVertex
100
AcDb2dVertex
 10
303.9611034916643
 20
-458.3903280044051
 30
0.0
  0
VERTEX
  5
83
330
81
100
AcDbEntity
  8
Layer 1
370
     0
100
AcDbVertex
100
AcDb2dVertex
 10
308.5426237225993
 20
-462.9718482353401
 30
0.0
  0
VERTEX
  5
84
330
81
100
AcDbEntity
  8
Layer 1
370
     0
100
AcDbVertex
100
AcDb2dVertex
 10
303.5928762542944
 20
-467.9215957036458
 30
0.0
  0
VERTEX
  5
85
330
81
100
AcDbEntity
  8
Layer 1
370
     0
100
AcDbVertex
100
AcDb2dVertex
 10
327.2956272708198
 20
-491.624346720173
 30
0.0
  0
VERTEX
  5
86
330
81
100
AcDbEntity
  8
Layer 1
370
     0
100
AcDbVertex
100
AcDb2dVertex
 10
493.4657208496592
 20
-325.4542531413335
 30
0.0
  0
VERTEX
  5
87
330
81
100
AcDbEntity
  8
Layer 1
370
     0
100
AcDbVertex
100
AcDb2dVertex
 10
465.1814496021971
 20
-297.1699818938723
 30
0.0
  0
VERTEX
  5
88
330
81
100
AcDbEntity
  8
Layer 1
370
     0
100
AcDbVertex
100
AcDb2dVertex
 10
303.9611034916643
 20
-458.3903280044051
 30
0.0
  0
SEQEND
  5
89
330
81
100
AcDbEntity
  8
Layer 1
370
     0
  0
SPLINE
  5
8A
330
1F
100
AcDbEntity
  8
Layer 1
370
     0
100
AcDbSpline
210
0.0
220
0.0
230
1.0
 70
    11
 71
     3
 72
    23
 73
    19
 74
     0
 42
0.0000000001
 43
0.0000000001
 12
1.0
 22
0.0
 32
0.0
 13
1.0
 23
0.0
 33
0.0
 40
0.0
 40
0.0
 40
0.0
 40
0.0
 40
1.0
 40
1.0
 40
1.0
 40
2.0
 40
2.0
 40
2.0
 40
3.0
 40
3.0
 40
3.0
 40
4.0
 40
4.0
 40
4.0
 40
5.0
 40
5.0
 40
5.0
 40
6.0
 40
6.0
 40
6.0
 40
6.0
 10
429.9989598262346
 20
-364.638991467501
 30
0.0
 10
430.5823315523876
 20
-365.2223631936549
 30
0.0
 10
430.5823315523876
 20
-366.1769400849071
 30
0.0
 10
429.9989598262346
 20
-366.760311811061
 30
0.0
 10
429.9989598262346
 20
-366.760311811061
 30
0.0
 10
388.2796597362294
 20
-408.4796119010671
 30
0.0
 10
388.2796597362294
 20
-408.4796119010671
 30
0.0
 10
387.6962880100746
 20
-409.0629836272201
 30
0.0
 10
386.7417111188224
 20
-409.0629836272201
 30
0.0
 10
386.1583393926694
 20
-408.4796119010671
 30
0.0
 10
385.5749676665146
 20
-407.8962401749141
 30
0.0
 10
385.5749676665146
 20
-406.941663283661
 30
0.0
 10
386.1583393926694
 20
-406.3582915575071
 30
0.0
 10
386.1583393926694
 20
-406.3582915575071
 30
0.0
 10
427.8776394826746
 20
-364.638991467501
 30
0.0
 10
427.8776394826746
 20
-364.638991467501
 30
0.0
 10
428.4610112088294
 20
-364.055619741348
 30
0.0
 10
429.4155881000806
 20
-364.055619741348
 30
0.0
 10
429.9989598262346
 20
-364.638991467501
 30
0.0
  0
SPLINE
  5
8B
330
1F
100
AcDbEntity
  8
Layer 1
370
     0
100
AcDbSpline
210
0.0
220
0.0
230
1.0
 70
    11
 71
     3
 72
    53
 73
    49
 74
     0
 42
0.0000000001
 43
0.0000000001
 12
1.0
 22
0.0
 32
0.0
 13
1.0
 23
0.0
 33
0.0
 40
0.0
 40
0.0
 40
0.0
 40
0.0
 40
1.0
 40
1.0
 40
1.0
 40
2.0
 40
2.0
 40
2.0
 40
3.0
 40
3.0
 40
3.0
 40
4.0
 40
4.0
 40
4.0
 40
5.0
 40
5.0
 40
5.0
 40
6.0
 40
6.0
 40
6.0
 40
7.0
 40
7.0
 40
7.0
 40
8.0
 40
8.0
 40
8.0
 40
9.0
 40
9.0
 40
9.0
 40
10.0
 40
10.0
 40
10.0
 40
11.0
 40
11.0
 40
11.0
 40
12.0
 40
12.0
 40
12.0
 40
13.0
 40
13.0
 40
13.0
 40
14.0
 40
14.0
 40
14.0
 40
15.0
 40
15.0
 40
15.0
 40
16.0
 40
16.0
 40
16.0
 40
16.0
 10
403.9185708896421
 20
-369.0394623242246
 30
0.0
 10
403.9185708896421
 20
-369.0394623242246
 30
0.0
 10
405.6863378426087
 20
-367.2716953712588
 30
0.0
 10
405.6863378426087
 20
-367.2716953712588
 30
0.0
 10
405.6863378426087
 20
-367.2716953712588
 30
0.0
 10
403.9185708896421
 20
-365.5039284182922
 30
0.0
 10
403.9185708896421
 20
-365.5039284182922
 30
0.0
 10
402.9462990655111
 20
-364.5316565941603
 30
0.0
 10
402.9462990655111
 20
-362.9406663364907
 30
0.0
 10
403.9185708896421
 20
-361.9683945123597
 30
0.0
 10
404.890842713774
 20
-360.9961226882278
 30
0.0
 10
406.4818329714444
 20
-360.9961226882278
 30
0.0
 10
407.4541047955754
 20
-361.9683945123597
 30
0.0
 10
407.4541047955754
 20
-361.9683945123597
 30
0.0
 10
409.2218717485412
 20
-363.7361614653264
 30
0.0
 10
409.2218717485412
 20
-363.7361614653264
 30
0.0
 10
409.2218717485412
 20
-363.7361614653264
 30
0.0
 10
410.9896387015078
 20
-361.9683945123597
 30
0.0
 10
410.9896387015078
 20
-361.9683945123597
 30
0.0
 10
411.9619105256388
 20
-360.9961226882278
 30
0.0
 10
413.5529007833093
 20
-360.9961226882278
 30
0.0
 10
414.5251726074403
 20
-361.9683945123597
 30
0.0
 10
415.4974444315721
 20
-362.9406663364907
 30
0.0
 10
415.4974444315721
 20
-364.5316565941603
 30
0.0
 10
414.5251726074403
 20
-365.5039284182922
 30
0.0
 10
414.5251726074403
 20
-365.5039284182922
 30
0.0
 10
412.7574056544754
 20
-367.2716953712588
 30
0.0
 10
412.7574056544754
 20
-367.2716953712588
 30
0.0
 10
412.7574056544754
 20
-367.2716953712588
 30
0.0
 10
414.5251726074403
 20
-369.0394623242246
 30
0.0
 10
414.5251726074403
 20
-369.0394623242246
 30
0.0
 10
415.4974444315721
 20
-370.0117341483574
 30
0.0
 10
415.4974444315721
 20
-371.602724406026
 30
0.0
 10
414.5251726074403
 20
-372.5749962301579
 30
0.0
 10
413.5529007833093
 20
-373.5472680542889
 30
0.0
 10
411.9619105256388
 20
-373.5472680542889
 30
0.0
 10
410.9896387015078
 20
-372.5749962301579
 30
0.0
 10
410.9896387015078
 20
-372.5749962301579
 30
0.0
 10
409.2218717485412
 20
-370.8072292771913
 30
0.0
 10
409.2218717485412
 20
-370.8072292771913
 30
0.0
 10
409.2218717485412
 20
-370.8072292771913
 30
0.0
 10
407.4541047955754
 20
-372.5749962301579
 30
0.0
 10
407.4541047955754
 20
-372.5749962301579
 30
0.0
 10
406.4818329714444
 20
-373.5472680542889
 30
0.0
 10
404.890842713774
 20
-373.5472680542889
 30
0.0
 10
403.9185708896421
 20
-372.5749962301579
 30
0.0
 10
402.9462990655111
 20
-371.602724406026
 30
0.0
 10
402.9462990655111
 20
-370.0117341483574
 30
0.0
 10
403.9185708896421
 20
-369.0394623242246
 30
0.0
  0
SPLINE
  5
8C
330
1F
100
AcDbEntity
  8
Layer 1
370
     0
100
AcDbSpline
210
0.0
220
0.0
230
1.0
 70
    11
 71
     3
 72
    53
 73
    49
 74
     0
 42
0.0000000001
 43
0.0000000001
 12
1.0
 22
0.0
 32
0.0
 13
1.0
 23
0.0
 33
0.0
 40
0.0
 40
0.0
 40
0.0
 40
0.0
 40
1.0
 40
1.0
 40
1.0
 40
2.0
 40
2.0
 40
2.0
 40
3.0
 40
3.0
 40
3.0
 40
4.0
 40
4.0
 40
4.0
 40
5.0
 40
5.0
 40
5.0
 40
6.0
 40
6.0
 40
6.0
 40
7.0
 40
7.0
 40
7.0
 40
8.0
 40
8.0
 40
8.0
 40
9.0
 40
9.0
 40
9.0
 40
10.0
 40
10.0
 40
10.0
 40
11.0
 40
11.0
 40
11.0
 40
12.0
 40
12.0
 40
12.0
 40
13.0
 40
13.0
 40
13.0
 40
14.0
 40
14.0
 40
14.0
 40
15.0
 40
15.0
 40
15.0
 40
16.0
 40
16.0
 40
16.0
 40
16.0
 10
329.4953232195212
 20
-454.0693117121446
 30
0.0
 10
329.4953232195212
 20
-454.0693117121446
 30
0.0
 10
327.7275562665545
 20
-455.8370786651103
 30
0.0
 10
327.7275562665545
 20
-455.8370786651103
 30
0.0
 10
327.7275562665545
 20
-455.8370786651103
 30
0.0
 10
329.4953232195212
 20
-457.604845618077
 30
0.0
 10
329.4953232195212
 20
-457.604845618077
 30
0.0
 10
330.4675950436522
 20
-458.5771174422089
 30
0.0
 10
330.4675950436522
 20
-460.1681076998784
 30
0.0
 10
329.4953232195212
 20
-461.1403795240103
 30
0.0
 10
328.5230513953893
 20
-462.1126513481413
 30
0.0
 10
326.9320611377198
 20
-462.1126513481413
 30
0.0
 10
325.9597893135879
 20
-461.1403795240103
 30
0.0
 10
325.9597893135879
 20
-461.1403795240103
 30
0.0
 10
324.1920223606221
 20
-459.3726125710436
 30
0.0
 10
324.1920223606221
 20
-459.3726125710436
 30
0.0
 10
324.1920223606221
 20
-459.3726125710436
 30
0.0
 10
322.4242554076554
 20
-461.1403795240094
 30
0.0
 10
322.4242554076554
 20
-461.1403795240094
 30
0.0
 10
321.4519835835235
 20
-462.1126513481413
 30
0.0
 10
319.860993325854
 20
-462.1126513481413
 30
0.0
 10
318.888721501723
 20
-461.1403795240103
 30
0.0
 10
317.9164496775911
 20
-460.1681076998784
 30
0.0
 10
317.9164496775911
 20
-458.5771174422089
 30
0.0
 10
318.888721501723
 20
-457.604845618077
 30
0.0
 10
318.888721501723
 20
-457.604845618077
 30
0.0
 10
320.6564884546888
 20
-455.8370786651112
 30
0.0
 10
320.6564884546888
 20
-455.8370786651112
 30
0.0
 10
320.6564884546888
 20
-455.8370786651112
 30
0.0
 10
318.888721501723
 20
-454.0693117121446
 30
0.0
 10
318.888721501723
 20
-454.0693117121446
 30
0.0
 10
317.9164496775911
 20
-453.0970398880127
 30
0.0
 10
317.9164496775911
 20
-451.5060496303431
 30
0.0
 10
318.888721501723
 20
-450.5337778062112
 30
0.0
 10
319.860993325854
 20
-449.5615059820802
 30
0.0
 10
321.4519835835235
 20
-449.5615059820802
 30
0.0
 10
322.4242554076554
 20
-450.5337778062112
 30
0.0
 10
322.4242554076554
 20
-450.5337778062112
 30
0.0
 10
324.1920223606221
 20
-452.3015447591779
 30
0.0
 10
324.1920223606221
 20
-452.3015447591779
 30
0.0
 10
324.1920223606221
 20
-452.3015447591779
 30
0.0
 10
325.9597893135879
 20
-450.5337778062112
 30
0.0
 10
325.9597893135879
 20
-450.5337778062112
 30
0.0
 10
326.9320611377198
 20
-449.5615059820802
 30
0.0
 10
328.5230513953893
 20
-449.5615059820802
 30
0.0
 10
329.4953232195212
 20
-450.5337778062121
 30
0.0
 10
330.4675950436522
 20
-451.5060496303431
 30
0.0
 10
330.4675950436522
 20
-453.0970398880127
 30
0.0
 10
329.4953232195212
 20
-454.0693117121446
 30
0.0
  0
SPLINE
  5
8D
330
1F
100
AcDbEntity
  8
Layer 1
370
     0
100
AcDbSpline
210
0.0
220
0.0
230
1.0
 70
    11
 71
     3
 72
    23
 73
    19
 74
     0
 42
0.0000000001
 43
0.0000000001
 12
1.0
 22
0.0
 32
0.0
 13
1.0
 23
0.0
 33
0.0
 40
0.0
 40
0.0
 40
0.0
 40
0.0
 40
1.0
 40
1.0
 40
1.0
 40
2.0
 40
2.0
 40
2.0
 40
3.0
 40
3.0
 40
3.0
 40
4.0
 40
4.0
 40
4.0
 40
5.0
 40
5.0
 40
5.0
 40
6.0
 40
6.0
 40
6.0
 40
6.0
 10
336.566391031386
 20
-439.927176088413
 30
0.0
 10
335.983019305233
 20
-439.34380436226
 30
0.0
 10
335.983019305233
 20
-438.389227471007
 30
0.0
 10
336.566391031386
 20
-437.8058557448539
 30
0.0
 10
336.566391031386
 20
-437.8058557448539
 30
0.0
 10
391.0136131827503
 20
-383.3586335934897
 30
0.0
 10
391.0136131827503
 20
-383.3586335934897
 30
0.0
 10
391.5969849089042
 20
-382.7752618673367
 30
0.0
 10
392.5515618001564
 20
-382.7752618673367
 30
0.0
 10
393.1349335263103
 20
-383.3586335934897
 30
0.0
 10
393.7183052524633
 20
-383.9420053196427
 30
0.0
 10
393.7183052524633
 20
-384.8965822108958
 30
0.0
 10
393.1349335263103
 20
-385.4799539370497
 30
0.0
 10
393.1349335263103
 20
-385.4799539370497
 30
0.0
 10
338.687711374946
 20
-439.927176088413
 30
0.0
 10
338.687711374946
 20
-439.927176088413
 30
0.0
 10
338.104339648793
 20
-440.510547814567
 30
0.0
 10
337.14976275754
 20
-440.510547814567
 30
0.0
 10
336.566391031386
 20
-439.927176088413
 30
0.0
  0
SPLINE
  5
8E
330
1F
100
AcDbEntity
  8
Layer 1
370
     0
100
AcDbSpline
210
0.0
220
0.0
230
1.0
 70
    11
 71
     3
 72
    53
 73
    49
 74
     0
 42
0.0000000001
 43
0.0000000001
 12
1.0
 22
0.0
 32
0.0
 13
1.0
 23
0.0
 33
0.0
 40
0.0
 40
0.0
 40
0.0
 40
0.0
 40
1.0
 40
1.0
 40
1.0
 40
2.0
 40
2.0
 40
2.0
 40
3.0
 40
3.0
 40
3.0
 40
4.0
 40
4.0
 40
4.0
 40
5.0
 40
5.0
 40
5.0
 40
6.0
 40
6.0
 40
6.0
 40
7.0
 40
7.0
 40
7.0
 40
8.0
 40
8.0
 40
8.0
 40
9.0
 40
9.0
 40
9.0
 40
10.0
 40
10.0
 40
10.0
 40
11.0
 40
11.0
 40
11.0
 40
12.0
 40
12.0
 40
12.0
 40
13.0
 40
13.0
 40
13.0
 40
14.0
 40
14.0
 40
14.0
 40
15.0
 40
15.0
 40
15.0
 40
16.0
 40
16.0
 40
16.0
 40
16.0
 10
361.7818861755604
 20
-443.929467796991
 30
0.0
 10
361.7818861755604
 20
-443.929467796991
 30
0.0
 10
360.0141192225938
 20
-445.6972347499577
 30
0.0
 10
360.0141192225938
 20
-445.6972347499577
 30
0.0
 10
360.0141192225938
 20
-445.6972347499577
 30
0.0
 10
361.7818861755604
 20
-447.4650017029244
 30
0.0
 10
361.7818861755604
 20
-447.4650017029244
 30
0.0
 10
362.7541579996923
 20
-448.4372735270554
 30
0.0
 10
362.7541579996923
 20
-450.0282637847249
 30
0.0
 10
361.7818861755604
 20
-451.0005356088568
 30
0.0
 10
360.8096143514285
 20
-451.9728074329878
 30
0.0
 10
359.218624093759
 20
-451.9728074329878
 30
0.0
 10
358.2463522696271
 20
-451.0005356088568
 30
0.0
 10
358.2463522696271
 20
-451.0005356088568
 30
0.0
 10
356.4785853166613
 20
-449.2327686558901
 30
0.0
 10
356.4785853166613
 20
-449.2327686558901
 30
0.0
 10
356.4785853166613
 20
-449.2327686558901
 30
0.0
 10
354.7108183636947
 20
-451.0005356088568
 30
0.0
 10
354.7108183636947
 20
-451.0005356088568
 30
0.0
 10
353.7385465395637
 20
-451.9728074329878
 30
0.0
 10
352.1475562818941
 20
-451.9728074329878
 30
0.0
 10
351.1752844577622
 20
-451.0005356088568
 30
0.0
 10
350.2030126336304
 20
-450.0282637847249
 30
0.0
 10
350.2030126336304
 20
-448.4372735270554
 30
0.0
 10
351.1752844577622
 20
-447.4650017029244
 30
0.0
 10
351.1752844577622
 20
-447.4650017029244
 30
0.0
 10
352.943051410728
 20
-445.6972347499577
 30
0.0
 10
352.943051410728
 20
-445.6972347499577
 30
0.0
 10
352.943051410728
 20
-445.6972347499577
 30
0.0
 10
351.1752844577622
 20
-443.929467796991
 30
0.0
 10
351.1752844577622
 20
-443.929467796991
 30
0.0
 10
350.2030126336304
 20
-442.9571959728592
 30
0.0
 10
350.2030126336304
 20
-441.3662057151896
 30
0.0
 10
351.1752844577622
 20
-440.3939338910586
 30
0.0
 10
352.1475562818941
 20
-439.4216620669267
 30
0.0
 10
353.7385465395637
 20
-439.4216620669267
 30
0.0
 10
354.7108183636947
 20
-440.3939338910586
 30
0.0
 10
354.7108183636947
 20
-440.3939338910586
 30
0.0
 10
356.4785853166613
 20
-442.1617008440244
 30
0.0
 10
356.4785853166613
 20
-442.1617008440244
 30
0.0
 10
356.4785853166613
 20
-442.1617008440244
 30
0.0
 10
358.246352269628
 20
-440.3939338910586
 30
0.0
 10
358.246352269628
 20
-440.3939338910586
 30
0.0
 10
359.218624093759
 20
-439.4216620669267
 30
0.0
 10
360.8096143514285
 20
-439.4216620669267
 30
0.0
 10
361.7818861755604
 20
-440.3939338910586
 30
0.0
 10
362.7541579996923
 20
-441.3662057151896
 30
0.0
 10
362.7541579996923
 20
-442.9571959728592
 30
0.0
 10
361.7818861755604
 20
-443.929467796991
 30
0.0
  0
SPLINE
  5
8F
330
1F
100
AcDbEntity
  8
Layer 1
370
     0
100
AcDbSpline
210
0.0
220
0.0
230
1.0
 70
    11
 71
     3
 72
    53
 73
    49
 74
     0
 42
0.0000000001
 43
0.0000000001
 12
1.0
 22
0.0
 32
0.0
 13
1.0
 23
0.0
 33
0.0
 40
0.0
 40
0.0
 40
0.0
 40
0.0
 40
1.0
 40
1.0
 40
1.0
 40
2.0
 40
2.0
 40
2.0
 40
3.0
 40
3.0
 40
3.0
 40
4.0
 40
4.0
 40
4.0
 40
5.0
 40
5.0
 40
5.0
 40
6.0
 40
6.0
 40
6.0
 40
7.0
 40
7.0
 40
7.0
 40
8.0
 40
8.0
 40
8.0
 40
9.0
 40
9.0
 40
9.0
 40
10.0
 40
10.0
 40
10.0
 40
11.0
 40
11.0
 40
11.0
 40
12.0
 40
12.0
 40
12.0
 40
13.0
 40
13.0
 40
13.0
 40
14.0
 40
14.0
 40
14.0
 40
15.0
 40
15.0
 40
15.0
 40
16.0
 40
16.0
 40
16.0
 40
16.0
 10
380.1102976514358
 20
-415.9418672046731
 30
0.0
 10
380.1102976514358
 20
-415.9418672046731
 30
0.0
 10
378.3425306984691
 20
-417.7096341576398
 30
0.0
 10
378.3425306984691
 20
-417.7096341576398
 30
0.0
 10
378.3425306984691
 20
-417.7096341576398
 30
0.0
 10
380.1102976514358
 20
-419.4774011106056
 30
0.0
 10
380.1102976514358
 20
-419.4774011106056
 30
0.0
 10
381.0825694755677
 20
-420.4496729347375
 30
0.0
 10
381.0825694755677
 20
-422.040663192407
 30
0.0
 10
380.1102976514358
 20
-423.0129350165389
 30
0.0
 10
379.1380258273039
 20
-423.9852068406699
 30
0.0
 10
377.5470355696343
 20
-423.9852068406699
 30
0.0
 10
376.5747637455024
 20
-423.012935016538
 30
0.0
 10
376.5747637455024
 20
-423.012935016538
 30
0.0
 10
374.8069967925367
 20
-421.2451680635722
 30
0.0
 10
374.8069967925367
 20
-421.2451680635722
 30
0.0
 10
374.8069967925367
 20
-421.2451680635722
 30
0.0
 10
373.03922983957
 20
-423.0129350165389
 30
0.0
 10
373.03922983957
 20
-423.0129350165389
 30
0.0
 10
372.066958015439
 20
-423.9852068406699
 30
0.0
 10
370.4759677577695
 20
-423.9852068406699
 30
0.0
 10
369.5036959336376
 20
-423.0129350165389
 30
0.0
 10
368.5314241095057
 20
-422.040663192407
 30
0.0
 10
368.5314241095057
 20
-420.4496729347375
 30
0.0
 10
369.5036959336376
 20
-419.4774011106056
 30
0.0
 10
369.5036959336376
 20
-419.4774011106056
 30
0.0
 10
371.2714628866033
 20
-417.7096341576389
 30
0.0
 10
371.2714628866033
 20
-417.7096341576389
 30
0.0
 10
371.2714628866033
 20
-417.7096341576389
 30
0.0
 10
369.5036959336376
 20
-415.9418672046731
 30
0.0
 10
369.5036959336376
 20
-415.9418672046731
 30
0.0
 10
368.5314241095057
 20
-414.9695953805413
 30
0.0
 10
368.5314241095057
 20
-413.3786051228717
 30
0.0
 10
369.5036959336376
 20
-412.4063332987407
 30
0.0
 10
370.4759677577695
 20
-411.4340614746088
 30
0.0
 10
372.066958015439
 20
-411.4340614746088
 30
0.0
 10
373.03922983957
 20
-412.4063332987398
 30
0.0
 10
373.03922983957
 20
-412.4063332987398
 30
0.0
 10
374.8069967925367
 20
-414.1741002517074
 30
0.0
 10
374.8069967925367
 20
-414.1741002517074
 30
0.0
 10
374.8069967925367
 20
-414.1741002517074
 30
0.0
 10
376.5747637455024
 20
-412.4063332987398
 30
0.0
 10
376.5747637455024
 20
-412.4063332987398
 30
0.0
 10
377.5470355696343
 20
-411.4340614746088
 30
0.0
 10
379.1380258273039
 20
-411.4340614746088
 30
0.0
 10
380.1102976514358
 20
-412.4063332987398
 30
0.0
 10
381.0825694755677
 20
-413.3786051228717
 30
0.0
 10
381.0825694755677
 20
-414.9695953805413
 30
0.0
 10
380.1102976514358
 20
-415.9418672046731
 30
0.0
  0
SPLINE
  5
90
330
1F
100
AcDbEntity
  8
Layer 1
370
     0
100
AcDbSpline
210
0.0
220
0.0
230
1.0
 70
    11
 71
     3
 72
    23
 73
    19
 74
     0
 42
0.0000000001
 43
0.0000000001
 12
1.0
 22
0.0
 32
0.0
 13
1.0
 23
0.0
 33
0.0
 40
0.0
 40
0.0
 40
0.0
 40
0.0
 40
1.0
 40
1.0
 40
1.0
 40
2.0
 40
2.0
 40
2.0
 40
3.0
 40
3.0
 40
3.0
 40
4.0
 40
4.0
 40
4.0
 40
5.0
 40
5.0
 40
5.0
 40
6.0
 40
6.0
 40
6.0
 40
6.0
 10
463.7822983119568
 20
-342.6361624417814
 30
0.0
 10
463.7822983119568
 20
-342.6361624417814
 30
0.0
 10
388.1218727249961
 20
-418.2965880287411
 30
0.0
 10
388.1218727249961
 20
-418.2965880287411
 30
0.0
 10
387.5385441572162
 20
-418.879916596522
 30
0.0
 10
386.5839241075901
 20
-418.879959754895
 30
0.0
 10
386.000552381437
 20
-418.2965880287411
 30
0.0
 10
385.4171806552831
 20
-417.7132163025881
 30
0.0
 10
385.4172238136562
 20
-416.7585962529629
 30
0.0
 10
386.000552381437
 20
-416.175267685182
 30
0.0
 10
386.000552381437
 20
-416.175267685182
 30
0.0
 10
461.6609779683977
 20
-340.5148420982214
 30
0.0
 10
461.6609779683977
 20
-340.5148420982214
 30
0.0
 10
462.2443496945507
 20
-339.9314703720665
 30
0.0
 10
463.1989265858037
 20
-339.9314703720665
 30
0.0
 10
463.7822983119568
 20
-340.5148420982214
 30
0.0
 10
464.3656700381107
 20
-341.0982138243744
 30
0.0
 10
464.3656700381107
 20
-342.0527907156265
 30
0.0
 10
463.7822983119568
 20
-342.6361624417814
 30
0.0
  0
SPLINE
  5
91
330
1F
100
AcDbEntity
  8
Layer 1
370
     0
100
AcDbSpline
210
0.0
220
0.0
230
1.0
 70
    11
 71
     3
 72
    53
 73
    49
 74
     0
 42
0.0000000001
 43
0.0000000001
 12
1.0
 22
0.0
 32
0.0
 13
1.0
 23
0.0
 33
0.0
 40
0.0
 40
0.0
 40
0.0
 40
0.0
 40
1.0
 40
1.0
 40
1.0
 40
2.0
 40
2.0
 40
2.0
 40
3.0
 40
3.0
 40
3.0
 40
4.0
 40
4.0
 40
4.0
 40
5.0
 40
5.0
 40
5.0
 40
6.0
 40
6.0
 40
6.0
 40
7.0
 40
7.0
 40
7.0
 40
8.0
 40
8.0
 40
8.0
 40
9.0
 40
9.0
 40
9.0
 40
10.0
 40
10.0
 40
10.0
 40
11.0
 40
11.0
 40
11.0
 40
12.0
 40
12.0
 40
12.0
 40
13.0
 40
13.0
 40
13.0
 40
14.0
 40
14.0
 40
14.0
 40
15.0
 40
15.0
 40
15.0
 40
16.0
 40
16.0
 40
16.0
 40
16.0
 10
478.3373732473574
 20
-327.3739807251941
 30
0.0
 10
478.3373732473574
 20
-327.3739807251941
 30
0.0
 10
476.5696062943916
 20
-329.1417476781598
 30
0.0
 10
476.5696062943916
 20
-329.1417476781598
 30
0.0
 10
476.5696062943916
 20
-329.1417476781598
 30
0.0
 10
478.3373732473574
 20
-330.9095146311274
 30
0.0
 10
478.3373732473574
 20
-330.9095146311274
 30
0.0
 10
479.3096450714893
 20
-331.8817864552584
 30
0.0
 10
479.3096450714893
 20
-333.472776712928
 30
0.0
 10
478.3373732473574
 20
-334.4450485370589
 30
0.0
 10
477.3651014232264
 20
-335.4173203611908
 30
0.0
 10
475.774111165556
 20
-335.4173203611908
 30
0.0
 10
474.801839341425
 20
-334.4450485370589
 30
0.0
 10
474.801839341425
 20
-334.4450485370589
 30
0.0
 10
473.0340723884583
 20
-332.6772815840932
 30
0.0
 10
473.0340723884583
 20
-332.6772815840932
 30
0.0
 10
473.0340723884583
 20
-332.6772815840932
 30
0.0
 10
471.2663054354925
 20
-334.4450485370598
 30
0.0
 10
471.2663054354925
 20
-334.4450485370598
 30
0.0
 10
470.2940336113606
 20
-335.4173203611908
 30
0.0
 10
468.7030433536911
 20
-335.4173203611908
 30
0.0
 10
467.7307715295592
 20
-334.4450485370589
 30
0.0
 10
466.7584997054282
 20
-333.472776712928
 30
0.0
 10
466.7584997054273
 20
-331.8817864552584
 30
0.0
 10
467.7307715295592
 20
-330.9095146311274
 30
0.0
 10
467.7307715295592
 20
-330.9095146311274
 30
0.0
 10
469.4985384825259
 20
-329.1417476781598
 30
0.0
 10
469.4985384825259
 20
-329.1417476781598
 30
0.0
 10
469.4985384825259
 20
-329.1417476781598
 30
0.0
 10
467.7307715295592
 20
-327.3739807251941
 30
0.0
 10
467.7307715295592
 20
-327.3739807251941
 30
0.0
 10
466.7584997054273
 20
-326.4017089010622
 30
0.0
 10
466.7584997054282
 20
-324.8107186433926
 30
0.0
 10
467.7307715295592
 20
-323.8384468192608
 30
0.0
 10
468.7030433536911
 20
-322.8661749951298
 30
0.0
 10
470.2940336113606
 20
-322.8661749951298
 30
0.0
 10
471.2663054354925
 20
-323.8384468192608
 30
0.0
 10
471.2663054354925
 20
-323.8384468192608
 30
0.0
 10
473.0340723884583
 20
-325.6062137722274
 30
0.0
 10
473.0340723884583
 20
-325.6062137722274
 30
0.0
 10
473.0340723884583
 20
-325.6062137722274
 30
0.0
 10
474.801839341425
 20
-323.8384468192608
 30
0.0
 10
474.801839341425
 20
-323.8384468192608
 30
0.0
 10
475.774111165556
 20
-322.8661749951298
 30
0.0
 10
477.3651014232264
 20
-322.8661749951298
 30
0.0
 10
478.3373732473574
 20
-323.8384468192608
 30
0.0
 10
479.3096450714893
 20
-324.8107186433926
 30
0.0
 10
479.3096450714893
 20
-326.4017089010622
 30
0.0
 10
478.3373732473574
 20
-327.3739807251941
 30
0.0
  0
HATCH
  5
92
330
1F
100
AcDbEntity
  8
Layer 1
 62
     7
420
 16777215
100
AcDbHatch
 10
0.0
 20
0.0
 30
0.0
210
0.0
220
0.0
230
1.0
  2
SOLID
 70
     1
 71
     0
 91
        9
 92
        1
 93
        6
 72
     1
 10
303.9611034916643
 20
-458.3903280044051
 11
308.5426237225993
 21
-462.9718482353401
 72
     1
 10
308.5426237225993
 20
-462.9718482353401
 11
303.5928762542944
 21
-467.9215957036458
 72
     1
 10
303.5928762542944
 20
-467.9215957036458
 11
327.2956272708198
 21
-491.624346720173
 72
     1
 10
327.2956272708198
 20
-491.624346720173
 11
493.4657208496592
 21
-325.4542531413335
 72
     1
 10
493.4657208496592
 20
-325.4542531413335
 11
465.1814496021971
 21
-297.1699818938723
 72
     1
 10
465.1814496021971
 20
-297.1699818938723
 11
303.9611034916643
 21
-458.3903280044051
 97
        0
 92
        1
 93
        1
 72
     4
 94
        3
 73
     0
 74
     1
 95
       23
 96
       19
 40
0.0
 40
0.0
 40
0.0
 40
0.0
 40
1.0
 40
1.0
 40
1.0
 40
2.0
 40
2.0
 40
2.0
 40
3.0
 40
3.0
 40
3.0
 40
4.0
 40
4.0
 40
4.0
 40
5.0
 40
5.0
 40
5.0
 40
6.0
 40
6.0
 40
6.0
 40
6.0
 10
429.9989598262346
 20
-364.638991467501
 10
430.5823315523876
 20
-365.2223631936549
 10
430.5823315523876
 20
-366.1769400849071
 10
429.9989598262346
 20
-366.760311811061
 10
429.9989598262346
 20
-366.760311811061
 10
388.2796597362294
 20
-408.4796119010671
 10
388.2796597362294
 20
-408.4796119010671
 10
387.6962880100746
 20
-409.0629836272201
 10
386.7417111188224
 20
-409.0629836272201
 10
386.1583393926694
 20
-408.4796119010671
 10
385.5749676665146
 20
-407.8962401749141
 10
385.5749676665146
 20
-406.941663283661
 10
386.1583393926694
 20
-406.3582915575071
 10
386.1583393926694
 20
-406.3582915575071
 10
427.8776394826746
 20
-364.638991467501
 10
427.8776394826746
 20
-364.638991467501
 10
428.4610112088294
 20
-364.055619741348
 10
429.4155881000806
 20
-364.055619741348
 10
429.9989598262346
 20
-364.638991467501
 97
        0
 97
        0
 92
        1
 93
        1
 72
     4
 94
        3
 73
     0
 74
     1
 95
       53
 96
       49
 40
0.0
 40
0.0
 40
0.0
 40
0.0
 40
1.0
 40
1.0
 40
1.0
 40
2.0
 40
2.0
 40
2.0
 40
3.0
 40
3.0
 40
3.0
 40
4.0
 40
4.0
 40
4.0
 40
5.0
 40
5.0
 40
5.0
 40
6.0
 40
6.0
 40
6.0
 40
7.0
 40
7.0
 40
7.0
 40
8.0
 40
8.0
 40
8.0
 40
9.0
 40
9.0
 40
9.0
 40
10.0
 40
10.0
 40
10.0
 40
11.0
 40
11.0
 40
11.0
 40
12.0
 40
12.0
 40
12.0
 40
13.0
 40
13.0
 40
13.0
 40
14.0
 40
14.0
 40
14.0
 40
15.0
 40
15.0
 40
15.0
 40
16.0
 40
16.0
 40
16.0
 40
16.0
 10
403.9185708896421
 20
-369.0394623242246
 10
403.9185708896421
 20
-369.0394623242246
 10
405.6863378426087
 20
-367.2716953712588
 10
405.6863378426087
 20
-367.2716953712588
 10
405.6863378426087
 20
-367.2716953712588
 10
403.9185708896421
 20
-365.5039284182922
 10
403.9185708896421
 20
-365.5039284182922
 10
402.9462990655111
 20
-364.5316565941603
 10
402.9462990655111
 20
-362.9406663364907
 10
403.9185708896421
 20
-361.9683945123597
 10
404.890842713774
 20
-360.9961226882278
 10
406.4818329714444
 20
-360.9961226882278
 10
407.4541047955754
 20
-361.9683945123597
 10
407.4541047955754
 20
-361.9683945123597
 10
409.2218717485412
 20
-363.7361614653264
 10
409.2218717485412
 20
-363.7361614653264
 10
409.2218717485412
 20
-363.7361614653264
 10
410.9896387015078
 20
-361.9683945123597
 10
410.9896387015078
 20
-361.9683945123597
 10
411.9619105256388
 20
-360.9961226882278
 10
413.5529007833093
 20
-360.9961226882278
 10
414.5251726074403
 20
-361.9683945123597
 10
415.4974444315721
 20
-362.9406663364907
 10
415.4974444315721
 20
-364.5316565941603
 10
414.5251726074403
 20
-365.5039284182922
 10
414.5251726074403
 20
-365.5039284182922
 10
412.7574056544754
 20
-367.2716953712588
 10
412.7574056544754
 20
-367.2716953712588
 10
412.7574056544754
 20
-367.2716953712588
 10
414.5251726074403
 20
-369.0394623242246
 10
414.5251726074403
 20
-369.0394623242246
 10
415.4974444315721
 20
-370.0117341483574
 10
415.4974444315721
 20
-371.602724406026
 10
414.5251726074403
 20
-372.5749962301579
 10
413.5529007833093
 20
-373.5472680542889
 10
411.9619105256388
 20
-373.5472680542889
 10
410.9896387015078
 20
-372.5749962301579
 10
410.9896387015078
 20
-372.5749962301579
 10
409.2218717485412
 20
-370.8072292771913
 10
409.2218717485412
 20
-370.8072292771913
 10
409.2218717485412
 20
-370.8072292771913
 10
407.4541047955754
 20
-372.5749962301579
 10
407.4541047955754
 20
-372.5749962301579
 10
406.4818329714444
 20
-373.5472680542889
 10
404.890842713774
 20
-373.5472680542889
 10
403.9185708896421
 20
-372.5749962301579
 10
402.9462990655111
 20
-371.602724406026
 10
402.9462990655111
 20
-370.0117341483574
 10
403.9185708896421
 20
-369.0394623242246
 97
        0
 97
        0
 92
        1
 93
        1
 72
     4
 94
        3
 73
     0
 74
     1
 95
       53
 96
       49
 40
0.0
 40
0.0
 40
0.0
 40
0.0
 40
1.0
 40
1.0
 40
1.0
 40
2.0
 40
2.0
 40
2.0
 40
3.0
 40
3.0
 40
3.0
 40
4.0
 40
4.0
 40
4.0
 40
5.0
 40
5.0
 40
5.0
 40
6.0
 40
6.0
 40
6.0
 40
7.0
 40
7.0
 40
7.0
 40
8.0
 40
8.0
 40
8.0
 40
9.0
 40
9.0
 40
9.0
 40
10.0
 40
10.0
 40
10.0
 40
11.0
 40
11.0
 40
11.0
 40
12.0
 40
12.0
 40
12.0
 40
13.0
 40
13.0
 40
13.0
 40
14.0
 40
14.0
 40
14.0
 40
15.0
 40
15.0
 40
15.0
 40
16.0
 40
16.0
 40
16.0
 40
16.0
 10
329.4953232195212
 20
-454.0693117121446
 10
329.4953232195212
 20
-454.0693117121446
 10
327.7275562665545
 20
-455.8370786651103
 10
327.7275562665545
 20
-455.8370786651103
 10
327.7275562665545
 20
-455.8370786651103
 10
329.4953232195212
 20
-457.604845618077
 10
329.4953232195212
 20
-457.604845618077
 10
330.4675950436522
 20
-458.5771174422089
 10
330.4675950436522
 20
-460.1681076998784
 10
329.4953232195212
 20
-461.1403795240103
 10
328.5230513953893
 20
-462.1126513481413
 10
326.9320611377198
 20
-462.1126513481413
 10
325.9597893135879
 20
-461.1403795240103
 10
325.9597893135879
 20
-461.1403795240103
 10
324.1920223606221
 20
-459.3726125710436
 10
324.1920223606221
 20
-459.3726125710436
 10
324.1920223606221
 20
-459.3726125710436
 10
322.4242554076554
 20
-461.1403795240094
 10
322.4242554076554
 20
-461.1403795240094
 10
321.4519835835235
 20
-462.1126513481413
 10
319.860993325854
 20
-462.1126513481413
 10
318.888721501723
 20
-461.1403795240103
 10
317.9164496775911
 20
-460.1681076998784
 10
317.9164496775911
 20
-458.5771174422089
 10
318.888721501723
 20
-457.604845618077
 10
318.888721501723
 20
-457.604845618077
 10
320.6564884546888
 20
-455.8370786651112
 10
320.6564884546888
 20
-455.8370786651112
 10
320.6564884546888
 20
-455.8370786651112
 10
318.888721501723
 20
-454.0693117121446
 10
318.888721501723
 20
-454.0693117121446
 10
317.9164496775911
 20
-453.0970398880127
 10
317.9164496775911
 20
-451.5060496303431
 10
318.888721501723
 20
-450.5337778062112
 10
319.860993325854
 20
-449.5615059820802
 10
321.4519835835235
 20
-449.5615059820802
 10
322.4242554076554
 20
-450.5337778062112
 10
322.4242554076554
 20
-450.5337778062112
 10
324.1920223606221
 20
-452.3015447591779
 10
324.1920223606221
 20
-452.3015447591779
 10
324.1920223606221
 20
-452.3015447591779
 10
325.9597893135879
 20
-450.5337778062112
 10
325.9597893135879
 20
-450.5337778062112
 10
326.9320611377198
 20
-449.5615059820802
 10
328.5230513953893
 20
-449.5615059820802
 10
329.4953232195212
 20
-450.5337778062121
 10
330.4675950436522
 20
-451.5060496303431
 10
330.4675950436522
 20
-453.0970398880127
 10
329.4953232195212
 20
-454.0693117121446
 97
        0
 97
        0
 92
        1
 93
        1
 72
     4
 94
        3
 73
     0
 74
     1
 95
       23
 96
       19
 40
0.0
 40
0.0
 40
0.0
 40
0.0
 40
1.0
 40
1.0
 40
1.0
 40
2.0
 40
2.0
 40
2.0
 40
3.0
 40
3.0
 40
3.0
 40
4.0
 40
4.0
 40
4.0
 40
5.0
 40
5.0
 40
5.0
 40
6.0
 40
6.0
 40
6.0
 40
6.0
 10
336.566391031386
 20
-439.927176088413
 10
335.983019305233
 20
-439.34380436226
 10
335.983019305233
 20
-438.389227471007
 10
336.566391031386
 20
-437.8058557448539
 10
336.566391031386
 20
-437.8058557448539
 10
391.0136131827503
 20
-383.3586335934897
 10
391.0136131827503
 20
-383.3586335934897
 10
391.5969849089042
 20
-382.7752618673367
 10
392.5515618001564
 20
-382.7752618673367
 10
393.1349335263103
 20
-383.3586335934897
 10
393.7183052524633
 20
-383.9420053196427
 10
393.7183052524633
 20
-384.8965822108958
 10
393.1349335263103
 20
-385.4799539370497
 10
393.1349335263103
 20
-385.4799539370497
 10
338.687711374946
 20
-439.927176088413
 10
338.687711374946
 20
-439.927176088413
 10
338.104339648793
 20
-440.510547814567
 10
337.14976275754
 20
-440.510547814567
 10
336.566391031386
 20
-439.927176088413
 97
        0
 97
        0
 92
        1
 93
        1
 72
     4
 94
        3
 73
     0
 74
     1
 95
       53
 96
       49
 40
0.0
 40
0.0
 40
0.0
 40
0.0
 40
1.0
 40
1.0
 40
1.0
 40
2.0
 40
2.0
 40
2.0
 40
3.0
 40
3.0
 40
3.0
 40
4.0
 40
4.0
 40
4.0
 40
5.0
 40
5.0
 40
5.0
 40
6.0
 40
6.0
 40
6.0
 40
7.0
 40
7.0
 40
7.0
 40
8.0
 40
8.0
 40
8.0
 40
9.0
 40
9.0
 40
9.0
 40
10.0
 40
10.0
 40
10.0
 40
11.0
 40
11.0
 40
11.0
 40
12.0
 40
12.0
 40
12.0
 40
13.0
 40
13.0
 40
13.0
 40
14.0
 40
14.0
 40
14.0
 40
15.0
 40
15.0
 40
15.0
 40
16.0
 40
16.0
 40
16.0
 40
16.0
 10
361.7818861755604
 20
-443.929467796991
 10
361.7818861755604
 20
-443.929467796991
 10
360.0141192225938
 20
-445.6972347499577
 10
360.0141192225938
 20
-445.6972347499577
 10
360.0141192225938
 20
-445.6972347499577
 10
361.7818861755604
 20
-447.4650017029244
 10
361.7818861755604
 20
-447.4650017029244
 10
362.7541579996923
 20
-448.4372735270554
 10
362.7541579996923
 20
-450.0282637847249
 10
361.7818861755604
 20
-451.0005356088568
 10
360.8096143514285
 20
-451.9728074329878
 10
359.218624093759
 20
-451.9728074329878
 10
358.2463522696271
 20
-451.0005356088568
 10
358.2463522696271
 20
-451.0005356088568
 10
356.4785853166613
 20
-449.2327686558901
 10
356.4785853166613
 20
-449.2327686558901
 10
356.4785853166613
 20
-449.2327686558901
 10
354.7108183636947
 20
-451.0005356088568
 10
354.7108183636947
 20
-451.0005356088568
 10
353.7385465395637
 20
-451.9728074329878
 10
352.1475562818941
 20
-451.9728074329878
 10
351.1752844577622
 20
-451.0005356088568
 10
350.2030126336304
 20
-450.0282637847249
 10
350.2030126336304
 20
-448.4372735270554
 10
351.1752844577622
 20
-447.4650017029244
 10
351.1752844577622
 20
-447.4650017029244
 10
352.943051410728
 20
-445.6972347499577
 10
352.943051410728
 20
-445.6972347499577
 10
352.943051410728
 20
-445.6972347499577
 10
351.1752844577622
 20
-443.929467796991
 10
351.1752844577622
 20
-443.929467796991
 10
350.2030126336304
 20
-442.9571959728592
 10
350.2030126336304
 20
-441.3662057151896
 10
351.1752844577622
 20
-440.3939338910586
 10
352.1475562818941
 20
-439.4216620669267
 10
353.7385465395637
 20
-439.4216620669267
 10
354.7108183636947
 20
-440.3939338910586
 10
354.7108183636947
 20
-440.3939338910586
 10
356.4785853166613
 20
-442.1617008440244
 10
356.4785853166613
 20
-442.1617008440244
 10
356.4785853166613
 20
-442.1617008440244
 10
358.246352269628
 20
-440.3939338910586
 10
358.246352269628
 20
-440.3939338910586
 10
359.218624093759
 20
-439.4216620669267
 10
360.8096143514285
 20
-439.4216620669267
 10
361.7818861755604
 20
-440.3939338910586
 10
362.7541579996923
 20
-441.3662057151896
 10
362.7541579996923
 20
-442.9571959728592
 10
361.7818861755604
 20
-443.929467796991
 97
        0
 97
        0
 92
        1
 93
        1
 72
     4
 94
        3
 73
     0
 74
     1
 95
       53
 96
       49
 40
0.0
 40
0.0
 40
0.0
 40
0.0
 40
1.0
 40
1.0
 40
1.0
 40
2.0
 40
2.0
 40
2.0
 40
3.0
 40
3.0
 40
3.0
 40
4.0
 40
4.0
 40
4.0
 40
5.0
 40
5.0
 40
5.0
 40
6.0
 40
6.0
 40
6.0
 40
7.0
 40
7.0
 40
7.0
 40
8.0
 40
8.0
 40
8.0
 40
9.0
 40
9.0
 40
9.0
 40
10.0
 40
10.0
 40
10.0
 40
11.0
 40
11.0
 40
11.0
 40
12.0
 40
12.0
 40
12.0
 40
13.0
 40
13.0
 40
13.0
 40
14.0
 40
14.0
 40
14.0
 40
15.0
 40
15.0
 40
15.0
 40
16.0
 40
16.0
 40
16.0
 40
16.0
 10
380.1102976514358
 20
-415.9418672046731
 10
380.1102976514358
 20
-415.9418672046731
 10
378.3425306984691
 20
-417.7096341576398
 10
378.3425306984691
 20
-417.7096341576398
 10
378.3425306984691
 20
-417.7096341576398
 10
380.1102976514358
 20
-419.4774011106056
 10
380.1102976514358
 20
-419.4774011106056
 10
381.0825694755677
 20
-420.4496729347375
 10
381.0825694755677
 20
-422.040663192407
 10
380.1102976514358
 20
-423.0129350165389
 10
379.1380258273039
 20
-423.9852068406699
 10
377.5470355696343
 20
-423.9852068406699
 10
376.5747637455024
 20
-423.012935016538
 10
376.5747637455024
 20
-423.012935016538
 10
374.8069967925367
 20
-421.2451680635722
 10
374.8069967925367
 20
-421.2451680635722
 10
374.8069967925367
 20
-421.2451680635722
 10
373.03922983957
 20
-423.0129350165389
 10
373.03922983957
 20
-423.0129350165389
 10
372.066958015439
 20
-423.9852068406699
 10
370.4759677577695
 20
-423.9852068406699
 10
369.5036959336376
 20
-423.0129350165389
 10
368.5314241095057
 20
-422.040663192407
 10
368.5314241095057
 20
-420.4496729347375
 10
369.5036959336376
 20
-419.4774011106056
 10
369.5036959336376
 20
-419.4774011106056
 10
371.2714628866033
 20
-417.7096341576389
 10
371.2714628866033
 20
-417.7096341576389
 10
371.2714628866033
 20
-417.7096341576389
 10
369.5036959336376
 20
-415.9418672046731
 10
369.5036959336376
 20
-415.9418672046731
 10
368.5314241095057
 20
-414.9695953805413
 10
368.5314241095057
 20
-413.3786051228717
 10
369.5036959336376
 20
-412.4063332987407
 10
370.4759677577695
 20
-411.4340614746088
 10
372.066958015439
 20
-411.4340614746088
 10
373.03922983957
 20
-412.4063332987398
 10
373.03922983957
 20
-412.4063332987398
 10
374.8069967925367
 20
-414.1741002517074
 10
374.8069967925367
 20
-414.1741002517074
 10
374.8069967925367
 20
-414.1741002517074
 10
376.5747637455024
 20
-412.4063332987398
 10
376.5747637455024
 20
-412.4063332987398
 10
377.5470355696343
 20
-411.4340614746088
 10
379.1380258273039
 20
-411.4340614746088
 10
380.1102976514358
 20
-412.4063332987398
 10
381.0825694755677
 20
-413.3786051228717
 10
381.0825694755677
 20
-414.9695953805413
 10
380.1102976514358
 20
-415.9418672046731
 97
        0
 97
        0
 92
        1
 93
        1
 72
     4
 94
        3
 73
     0
 74
     1
 95
       23
 96
       19
 40
0.0
 40
0.0
 40
0.0
 40
0.0
 40
1.0
 40
1.0
 40
1.0
 40
2.0
 40
2.0
 40
2.0
 40
3.0
 40
3.0
 40
3.0
 40
4.0
 40
4.0
 40
4.0
 40
5.0
 40
5.0
 40
5.0
 40
6.0
 40
6.0
 40
6.0
 40
6.0
 10
463.7822983119568
 20
-342.6361624417814
 10
463.7822983119568
 20
-342.6361624417814
 10
388.1218727249961
 20
-418.2965880287411
 10
388.1218727249961
 20
-418.2965880287411
 10
387.5385441572162
 20
-418.879916596522
 10
386.5839241075901
 20
-418.879959754895
 10
386.000552381437
 20
-418.2965880287411
 10
385.4171806552831
 20
-417.7132163025881
 10
385.4172238136562
 20
-416.7585962529629
 10
386.000552381437
 20
-416.175267685182
 10
386.000552381437
 20
-416.175267685182
 10
461.6609779683977
 20
-340.5148420982214
 10
461.6609779683977
 20
-340.5148420982214
 10
462.2443496945507
 20
-339.9314703720665
 10
463.1989265858037
 20
-339.9314703720665
 10
463.7822983119568
 20
-340.5148420982214
 10
464.3656700381107
 20
-341.0982138243744
 10
464.3656700381107
 20
-342.0527907156265
 10
463.7822983119568
 20
-342.6361624417814
 97
        0
 97
        0
 92
        1
 93
        1
 72
     4
 94
        3
 73
     0
 74
     1
 95
       53
 96
       49
 40
0.0
 40
0.0
 40
0.0
 40
0.0
 40
1.0
 40
1.0
 40
1.0
 40
2.0
 40
2.0
 40
2.0
 40
3.0
 40
3.0
 40
3.0
 40
4.0
 40
4.0
 40
4.0
 40
5.0
 40
5.0
 40
5.0
 40
6.0
 40
6.0
 40
6.0
 40
7.0
 40
7.0
 40
7.0
 40
8.0
 40
8.0
 40
8.0
 40
9.0
 40
9.0
 40
9.0
 40
10.0
 40
10.0
 40
10.0
 40
11.0
 40
11.0
 40
11.0
 40
12.0
 40
12.0
 40
12.0
 40
13.0
 40
13.0
 40
13.0
 40
14.0
 40
14.0
 40
14.0
 40
15.0
 40
15.0
 40
15.0
 40
16.0
 40
16.0
 40
16.0
 40
16.0
 10
478.3373732473574
 20
-327.3739807251941
 10
478.3373732473574
 20
-327.3739807251941
 10
476.5696062943916
 20
-329.1417476781598
 10
476.5696062943916
 20
-329.1417476781598
 10
476.5696062943916
 20
-329.1417476781598
 10
478.3373732473574
 20
-330.9095146311274
 10
478.3373732473574
 20
-330.9095146311274
 10
479.3096450714893
 20
-331.8817864552584
 10
479.3096450714893
 20
-333.472776712928
 10
478.3373732473574
 20
-334.4450485370589
 10
477.3651014232264
 20
-335.4173203611908
 10
475.774111165556
 20
-335.4173203611908
 10
474.801839341425
 20
-334.4450485370589
 10
474.801839341425
 20
-334.4450485370589
 10
473.0340723884583
 20
-332.6772815840932
 10
473.0340723884583
 20
-332.6772815840932
 10
473.0340723884583
 20
-332.6772815840932
 10
471.2663054354925
 20
-334.4450485370598
 10
471.2663054354925
 20
-334.4450485370598
 10
470.2940336113606
 20
-335.4173203611908
 10
468.7030433536911
 20
-335.4173203611908
 10
467.7307715295592
 20
-334.4450485370589
 10
466.7584997054282
 20
-333.472776712928
 10
466.7584997054273
 20
-331.8817864552584
 10
467.7307715295592
 20
-330.9095146311274
 10
467.7307715295592
 20
-330.9095146311274
 10
469.4985384825259
 20
-329.1417476781598
 10
469.4985384825259
 20
-329.1417476781598
 10
469.4985384825259
 20
-329.1417476781598
 10
467.7307715295592
 20
-327.3739807251941
 10
467.7307715295592
 20
-327.3739807251941
 10
466.7584997054273
 20
-326.4017089010622
 10
466.7584997054282
 20
-324.8107186433926
 10
467.7307715295592
 20
-323.8384468192608
 10
468.7030433536911
 20
-322.8661749951298
 10
470.2940336113606
 20
-322.8661749951298
 10
471.2663054354925
 20
-323.8384468192608
 10
471.2663054354925
 20
-323.8384468192608
 10
473.0340723884583
 20
-325.6062137722274
 10
473.0340723884583
 20
-325.6062137722274
 10
473.0340723884583
 20
-325.6062137722274
 10
474.801839341425
 20
-323.8384468192608
 10
474.801839341425
 20
-323.8384468192608
 10
475.774111165556
 20
-322.8661749951298
 10
477.3651014232264
 20
-322.8661749951298
 10
478.3373732473574
 20
-323.8384468192608
 10
479.3096450714893
 20
-324.8107186433926
 10
479.3096450714893
 20
-326.4017089010622
 10
478.3373732473574
 20
-327.3739807251941
 97
        0
 97
        0
 75
     2
 76
     1
 98
        0
  0
POLYLINE
  5
93
330
1F
100
AcDbEntity
  8
Layer 1
370
     0
100
AcDb2dPolyline
 66
     1
 10
0.0
 20
0.0
 30
0.0
  0
VERTEX
  5
94
330
93
100
AcDbEntity
  8
Layer 1
370
     0
100
AcDbVertex
100
AcDb2dVertex
 10
360.8832169361958
 20
-546.4251398211454
 30
0.0
  0
VERTEX
  5
95
330
93
100
AcDbEntity
  8
Layer 1
370
     0
100
AcDbVertex
100
AcDb2dVertex
 10
329.0634110628062
 20
-578.244945694536
 30
0.0
  0
VERTEX
  5
96
330
93
100
AcDbEntity
  8
Layer 1
370
     0
100
AcDbVertex
100
AcDb2dVertex
 10
321.992342700014
 20
-571.1738773317447
 30
0.0
  0
VERTEX
  5
97
330
93
100
AcDbEntity
  8
Layer 1
370
     0
100
AcDbVertex
100
AcDb2dVertex
 10
353.8121485734046
 20
-539.3540714583542
 30
0.0
  0
VERTEX
  5
98
330
93
100
AcDbEntity
  8
Layer 1
370
     0
100
AcDbVertex
100
AcDb2dVertex
 10
360.8832169361958
 20
-546.4251398211454
 30
0.0
  0
SEQEND
  5
9A
330
93
100
AcDbEntity
  8
Layer 1
370
     0
  0
HATCH
  5
99
330
1F
100
AcDbEntity
  8
Layer 1
 62
     7
420
 16777215
100
AcDbHatch
 10
0.0
 20
0.0
 30
0.0
210
0.0
220
0.0
230
1.0
  2
SOLID
 70
     1
 71
     0
 91
        1
 92
        1
 93
        4
 72
     1
 10
360.8832169361958
 20
-546.4251398211454
 11
329.0634110628062
 21
-578.244945694536
 72
     1
 10
329.0634110628062
 20
-578.244945694536
 11
321.992342700014
 21
-571.1738773317447
 72
     1
 10
321.992342700014
 20
-571.1738773317447
 11
353.8121485734046
 21
-539.3540714583542
 72
     1
 10
353.8121485734046
 20
-539.3540714583542
 11
360.8832169361958
 21
-546.4251398211454
 97
        0
 75
     2
 76
     1
 98
        0
  0
POLYLINE
  5
9B
330
1F
100
AcDbEntity
  8
Layer 1
370
     0
100
AcDb2dPolyline
 66
     1
 10
0.0
 20
0.0
 30
0.0
  0
VERTEX
  5
9C
330
9B
100
AcDbEntity
  8
Layer 1
370
     0
100
AcDbVertex
100
AcDb2dVertex
 10
528.8210739056158
 20
-763.8604729052422
 30
0.0
  0
VERTEX
  5
9D
330
9B
100
AcDbEntity
  8
Layer 1
370
     0
100
AcDbVertex
100
AcDb2dVertex
 10
521.7500060895636
 20
-770.9315407212925
 30
0.0
  0
VERTEX
  5
9E
330
9B
100
AcDbEntity
  8
Layer 1
370
     0
100
AcDbVertex
100
AcDb2dVertex
 10
321.992342700014
 20
-571.1738773317447
 30
0.0
  0
VERTEX
  5
9F
330
9B
100
AcDbEntity
  8
Layer 1
370
     0
100
AcDbVertex
100
AcDb2dVertex
 10
329.0634105160661
 20
-564.1028095156926
 30
0.0
  0
VERTEX
  5
A0
330
9B
100
AcDbEntity
  8
Layer 1
370
     0
100
AcDbVertex
100
AcDb2dVertex
 10
528.8210739056158
 20
-763.8604729052422
 30
0.0
  0
SEQEND
  5
A2
330
9B
100
AcDbEntity
  8
Layer 1
370
     0
  0
HATCH
  5
A1
330
1F
100
AcDbEntity
  8
Layer 1
 62
     7
420
 16777215
100
AcDbHatch
 10
0.0
 20
0.0
 30
0.0
210
0.0
220
0.0
230
1.0
  2
SOLID
 70
     1
 71
     0
 91
        1
 92
        1
 93
        4
 72
     1
 10
528.8210739056158
 20
-763.8604729052422
 11
521.7500060895636
 21
-770.9315407212925
 72
     1
 10
521.7500060895636
 20
-770.9315407212925
 11
321.992342700014
 21
-571.1738773317447
 72
     1
 10
321.992342700014
 20
-571.1738773317447
 11
329.0634105160661
 21
-564.1028095156926
 72
     1
 10
329.0634105160661
 20
-564.1028095156926
 11
528.8210739056158
 21
-763.8604729052422
 97
        0
 75
     2
 76
     1
 98
        0
  0
POLYLINE
  5
A3
330
1F
100
AcDbEntity
  8
Layer 1
370
     0
100
AcDb2dPolyline
 66
     1
 10
0.0
 20
0.0
 30
0.0
  0
VERTEX
  5
A4
330
A3
100
AcDbEntity
  8
Layer 1
370
     0
100
AcDbVertex
100
AcDb2dVertex
 10
714.4366019114095
 20
-578.2449464896235
 30
0.0
  0
VERTEX
  5
A5
330
A3
100
AcDbEntity
  8
Layer 1
370
     0
100
AcDbVertex
100
AcDb2dVertex
 10
682.616796038019
 20
-546.425140616233
 30
0.0
  0
VERTEX
  5
A6
330
A3
100
AcDbEntity
  8
Layer 1
370
     0
100
AcDbVertex
100
AcDb2dVertex
 10
689.687864400812
 20
-539.3540722534399
 30
0.0
  0
VERTEX
  5
A7
330
A3
100
AcDbEntity
  8
Layer 1
370
     0
100
AcDbVertex
100
AcDb2dVertex
 10
721.5076702742026
 20
-571.1738781268323
 30
0.0
  0
VERTEX
  5
A8
330
A3
100
AcDbEntity
  8
Layer 1
370
     0
100
AcDbVertex
100
AcDb2dVertex
 10
714.4366019114095
 20
-578.2449464896235
 30
0.0
  0
SEQEND
  5
AA
330
A3
100
AcDbEntity
  8
Layer 1
370
     0
  0
HATCH
  5
A9
330
1F
100
AcDbEntity
  8
Layer 1
 62
     7
420
 16777215
100
AcDbHatch
 10
0.0
 20
0.0
 30
0.0
210
0.0
220
0.0
230
1.0
  2
SOLID
 70
     1
 71
     0
 91
        1
 92
        1
 93
        4
 72
     1
 10
714.4366019114095
 20
-578.2449464896235
 11
682.616796038019
 21
-546.425140616233
 72
     1
 10
682.616796038019
 20
-546.425140616233
 11
689.687864400812
 21
-539.3540722534399
 72
     1
 10
689.687864400812
 20
-539.3540722534399
 11
721.5076702742026
 21
-571.1738781268323
 72
     1
 10
721.5076702742026
 20
-571.1738781268323
 11
714.4366019114095
 21
-578.2449464896235
 97
        0
 75
     2
 76
     1
 98
        0
  0
POLYLINE
  5
AB
330
1F
100
AcDbEntity
  8
Layer 1
370
     0
100
AcDb2dPolyline
 66
     1
 10
0.0
 20
0.0
 30
0.0
  0
VERTEX
  5
AC
330
AB
100
AcDbEntity
  8
Layer 1
370
     0
100
AcDbVertex
100
AcDb2dVertex
 10
521.7500061181563
 20
-770.9315407498852
 30
0.0
  0
VERTEX
  5
AD
330
AB
100
AcDbEntity
  8
Layer 1
370
     0
100
AcDbVertex
100
AcDb2dVertex
 10
514.678938302106
 20
-763.8604729338349
 30
0.0
  0
VERTEX
  5
AE
330
AB
100
AcDbEntity
  8
Layer 1
370
     0
100
AcDbVertex
100
AcDb2dVertex
 10
714.4366016916538
 20
-564.1028095442834
 30
0.0
  0
VERTEX
  5
AF
330
AB
100
AcDbEntity
  8
Layer 1
370
     0
100
AcDbVertex
100
AcDb2dVertex
 10
721.5076695077059
 20
-571.1738773603356
 30
0.0
  0
VERTEX
  5
B0
330
AB
100
AcDbEntity
  8
Layer 1
370
     0
100
AcDbVertex
100
AcDb2dVertex
 10
521.7500061181563
 20
-770.9315407498852
 30
0.0
  0
SEQEND
  5
B2
330
AB
100
AcDbEntity
  8
Layer 1
370
     0
  0
HATCH
  5
B1
330
1F
100
AcDbEntity
  8
Layer 1
 62
     7
420
 16777215
100
AcDbHatch
 10
0.0
 20
0.0
 30
0.0
210
0.0
220
0.0
230
1.0
  2
SOLID
 70
     1
 71
     0
 91
        1
 92
        1
 93
        4
 72
     1
 10
521.7500061181563
 20
-770.9315407498852
 11
514.678938302106
 21
-763.8604729338349
 72
     1
 10
514.678938302106
 20
-763.8604729338349
 11
714.4366016916538
 21
-564.1028095442834
 72
     1
 10
714.4366016916538
 20
-564.1028095442834
 11
721.5076695077059
 21
-571.1738773603356
 72
     1
 10
721.5076695077059
 20
-571.1738773603356
 11
521.7500061181563
 21
-770.9315407498852
 97
        0
 75
     2
 76
     1
 98
        0
  0
POLYLINE
  5
B3
330
1F
100
AcDbEntity
  8
Layer 1
370
     0
100
AcDb2dPolyline
 66
     1
 10
0.0
 20
0.0
 30
0.0
  0
VERTEX
  5
B4
330
B3
100
AcDbEntity
  8
Layer 1
370
     0
100
AcDbVertex
100
AcDb2dVertex
 10
366.1865002360801
 20
-509.302016249836
 30
0.0
  0
VERTEX
  5
B5
330
B3
100
AcDbEntity
  8
Layer 1
370
     0
100
AcDbVertex
100
AcDb2dVertex
 10
521.7499920971204
 20
-664.8655081108773
 30
0.0
  0
VERTEX
  5
B6
330
B3
100
AcDbEntity
  8
Layer 1
370
     0
100
AcDbVertex
100
AcDb2dVertex
 10
677.3134839581617
 20
-509.302016249836
 30
0.0
  0
VERTEX
  5
B7
330
B3
100
AcDbEntity
  8
Layer 1
370
     0
100
AcDbVertex
100
AcDb2dVertex
 10
521.7499920971204
 20
-353.7385243887957
 30
0.0
  0
VERTEX
  5
B8
330
B3
100
AcDbEntity
  8
Layer 1
370
     0
100
AcDbVertex
100
AcDb2dVertex
 10
366.1865002360801
 20
-509.302016249836
 30
0.0
  0
SEQEND
  5
B9
330
B3
100
AcDbEntity
  8
Layer 1
370
     0
  0
SPLINE
  5
BA
330
1F
100
AcDbEntity
  8
Layer 1
370
     0
100
AcDbSpline
210
0.0
220
0.0
230
1.0
 70
    11
 71
     3
 72
    35
 73
    31
 74
     0
 42
0.0000000001
 43
0.0000000001
 12
1.0
 22
0.0
 32
0.0
 13
1.0
 23
0.0
 33
0.0
 40
0.0
 40
0.0
 40
0.0
 40
0.0
 40
1.0
 40
1.0
 40
1.0
 40
2.0
 40
2.0
 40
2.0
 40
3.0
 40
3.0
 40
3.0
 40
4.0
 40
4.0
 40
4.0
 40
5.0
 40
5.0
 40
5.0
 40
6.0
 40
6.0
 40
6.0
 40
7.0
 40
7.0
 40
7.0
 40
8.0
 40
8.0
 40
8.0
 40
9.0
 40
9.0
 40
9.0
 40
10.0
 40
10.0
 40
10.0
 40
10.0
 10
515.1848698904705
 20
-451.3790345389716
 30
0.0
 10
517.0330408921036
 20
-449.5308635373385
 30
0.0
 10
519.2212567136194
 20
-448.6056343396413
 30
0.0
 10
521.7508984229516
 20
-448.6055911812682
 30
0.0
 10
524.2802811820457
 20
-448.6056343396413
 30
0.0
 10
526.4700507049856
 20
-449.52982773639
 30
0.0
 10
528.3167111635667
 20
-451.3789913805995
 30
0.0
 10
530.1650979570641
 20
-453.2261697396552
 30
0.0
 10
531.090111362897
 20
-455.414428719544
 30
0.0
 10
531.090111362897
 20
-457.9440272705033
 30
0.0
 10
531.090111362897
 20
-457.9440272705033
 30
0.0
 10
531.0900682045249
 20
-504.6340929564049
 30
0.0
 10
531.0900682045249
 20
-504.6340929564049
 30
0.0
 10
531.090111362897
 20
-507.1624399145512
 30
0.0
 10
530.1641053144886
 20
-509.3522094374894
 30
0.0
 10
528.3167111635667
 20
-511.1993446381748
 30
0.0
 10
526.4698349131213
 20
-513.0490693412303
 30
0.0
 10
524.2802811820457
 20
-513.9712342944531
 30
0.0
 10
521.7509415813238
 20
-513.9712342944531
 30
0.0
 10
519.2220335643306
 20
-513.9712342944531
 30
0.0
 10
517.0329977337315
 20
-513.0490693412303
 30
0.0
 10
515.1848698904705
 20
-511.1996467467834
 30
0.0
 10
513.3366988888374
 20
-509.3522525958633
 30
0.0
 10
512.4124623337157
 20
-507.1626988647877
 30
0.0
 10
512.4125054920896
 20
-504.6343519066431
 30
0.0
 10
512.4125054920896
 20
-504.6343519066431
 30
0.0
 10
512.4124623337157
 20
-457.9440272705033
 30
0.0
 10
512.4124623337157
 20
-457.9440272705033
 30
0.0
 10
512.4125054920896
 20
-455.4154213621214
 30
0.0
 10
513.3366988888374
 20
-453.2261697396552
 30
0.0
 10
515.1848698904705
 20
-451.3790345389716
 30
0.0
  0
SPLINE
  5
BB
330
1F
100
AcDbEntity
  8
Layer 1
370
     0
100
AcDbSpline
210
0.0
220
0.0
230
1.0
 70
    11
 71
     3
 72
   101
 73
    97
 74
     0
 42
0.0000000001
 43
0.0000000001
 12
1.0
 22
0.0
 32
0.0
 13
1.0
 23
0.0
 33
0.0
 40
0.0
 40
0.0
 40
0.0
 40
0.0
 40
1.0
 40
1.0
 40
1.0
 40
2.0
 40
2.0
 40
2.0
 40
3.0
 40
3.0
 40
3.0
 40
4.0
 40
4.0
 40
4.0
 40
5.0
 40
5.0
 40
5.0
 40
6.0
 40
6.0
 40
6.0
 40
7.0
 40
7.0
 40
7.0
 40
8.0
 40
8.0
 40
8.0
 40
9.0
 40
9.0
 40
9.0
 40
10.0
 40
10.0
 40
10.0
 40
11.0
 40
11.0
 40
11.0
 40
12.0
 40
12.0
 40
12.0
 40
13.0
 40
13.0
 40
13.0
 40
14.0
 40
14.0
 40
14.0
 40
15.0
 40
15.0
 40
15.0
 40
16.0
 40
16.0
 40
16.0
 40
17.0
 40
17.0
 40
17.0
 40
18.0
 40
18.0
 40
18.0
 40
19.0
 40
19.0
 40
19.0
 40
20.0
 40
20.0
 40
20.0
 40
21.0
 40
21.0
 40
21.0
 40
22.0
 40
22.0
 40
22.0
 40
23.0
 40
23.0
 40
23.0
 40
24.0
 40
24.0
 40
24.0
 40
25.0
 40
25.0
 40
25.0
 40
26.0
 40
26.0
 40
26.0
 40
27.0
 40
27.0
 40
27.0
 40
28.0
 40
28.0
 40
28.0
 40
29.0
 40
29.0
 40
29.0
 40
30.0
 40
30.0
 40
30.0
 40
31.0
 40
31.0
 40
31.0
 40
32.0
 40
32.0
 40
32.0
 40
32.0
 10
571.9067972425928
 20
-488.9485707602862
 30
0.0
 10
575.8223837800633
 20
-496.778966984517
 30
0.0
 10
577.7768106957155
 20
-505.1195383345057
 30
0.0
 10
577.7765517454791
 20
-513.9707163939784
 30
0.0
 10
577.7765085871051
 20
-521.5570520196015
 30
0.0
 10
576.2942774290805
 20
-528.80455125978
 30
0.0
 10
573.3274414025236
 20
-535.71071092889
 30
0.0
 10
570.3606485343407
 20
-542.6168274396259
 30
0.0
 10
566.3732896227775
 20
-548.5750566069055
 30
0.0
 10
561.3646309754968
 20
-553.5837152541862
 30
0.0
 10
556.3551954775048
 20
-558.592373901467
 30
0.0
 10
550.3975273690721
 20
-562.5807254556057
 30
0.0
 10
543.490634007625
 20
-565.545791988874
 30
0.0
 10
536.5842153882768
 20
-568.5135774996343
 30
0.0
 10
529.3380108992842
 20
-569.9983981600308
 30
0.0
 10
521.7508984229516
 20
-569.9984413184047
 30
0.0
 10
514.1640448968537
 20
-569.9983981600308
 30
0.0
 10
506.9175382992507
 20
-568.5136206580082
 30
0.0
 10
500.0114217885148
 20
-565.545791988874
 30
0.0
 10
493.1047873773041
 20
-562.5817612565552
 30
0.0
 10
487.146860318634
 20
-558.5926328517035
 30
0.0
 10
482.1381585129811
 20
-553.5836720958141
 30
0.0
 10
477.1279893226501
 20
-548.5735029054831
 30
0.0
 10
473.1406304110869
 20
-542.6168274396259
 30
0.0
 10
470.1733196424284
 20
-535.71071092889
 30
0.0
 10
467.2070015163463
 20
-528.80455125978
 30
0.0
 10
465.7234324487627
 20
-521.5588215128882
 30
0.0
 10
465.7234324487627
 20
-513.9707163939784
 30
0.0
 10
465.7234756071357
 20
-505.1198404431161
 30
0.0
 10
467.6804488667867
 20
-496.7792259347543
 30
0.0
 10
471.5959922458851
 20
-488.9486139186592
 30
0.0
 10
475.5118377335939
 20
-481.1189945451397
 30
0.0
 10
481.0187597957183
 20
-474.5529660126595
 30
0.0
 10
488.1201247853423
 20
-469.2522546561322
 30
0.0
 10
490.211018476024
 20
-467.6961795221187
 30
0.0
 10
492.5339315792844
 20
-467.0877759396981
 30
0.0
 10
495.0876125023069
 20
-467.4281228681912
 30
0.0
 10
497.6414660588216
 20
-467.7684697966852
 30
0.0
 10
499.6710748600217
 20
-468.9844569524421
 30
0.0
 10
501.1788557747877
 20
-471.0751348512604
 30
0.0
 10
502.7354919676491
 20
-473.117475372459
 30
0.0
 10
503.3308617214625
 20
-475.4163924203986
 30
0.0
 10
502.96621662904
 20
-477.9687354338639
 30
0.0
 10
502.6008378442784
 20
-480.5226753071238
 30
0.0
 10
501.3975824085192
 20
-482.5764959555063
 30
0.0
 10
499.3549829370841
 20
-484.1339089990797
 30
0.0
 10
494.5890469788537
 20
-487.7333604552414
 30
0.0
 10
490.9050051118575
 20
-492.1352123798961
 30
0.0
 10
488.3030731279596
 20
-497.3385584472162
 30
0.0
 10
485.7014000943
 20
-502.5426813652484
 30
0.0
 10
484.4002614688598
 20
-508.0868922615373
 30
0.0
 10
484.4003046272319
 20
-513.9704574437419
 30
0.0
 10
484.4003046272319
 20
-519.0299998126429
 30
0.0
 10
485.3853081713623
 20
-523.855925909169
 30
0.0
 10
487.3548405175197
 20
-528.4527673624743
 30
0.0
 10
489.3248907641519
 20
-533.0490045985607
 30
0.0
 10
491.9878918456679
 20
-537.0238475819897
 30
0.0
 10
495.3425490108802
 20
-540.3800584486253
 30
0.0
 10
498.6988030358898
 20
-543.7352766726854
 30
0.0
 10
502.6741639197935
 20
-546.3977598537276
 30
0.0
 10
507.2706601061163
 20
-548.3678101003588
 30
0.0
 10
511.8667247087105
 20
-550.3378603469919
 30
0.0
 10
516.6939455564225
 20
-551.3241586423082
 30
0.0
 10
521.7511573731881
 20
-551.3241586423082
 30
0.0
 10
526.8091460406649
 20
-551.3241586423082
 30
0.0
 10
531.6361079381404
 20
-550.3378603469919
 30
0.0
 10
536.2321293823625
 20
-548.3677669419867
 30
0.0
 10
540.8289276772957
 20
-546.3977598537276
 30
0.0
 10
544.8029938100117
 20
-543.7352766726854
 30
0.0
 10
548.1591615182751
 20
-540.3800584486253
 30
0.0
 10
551.5154155432847
 20
-537.0238044236157
 30
0.0
 10
554.1789776836486
 20
-533.0487456483224
 30
0.0
 10
556.1479489709582
 20
-528.4527242041022
 30
0.0
 10
558.1172655252522
 20
-523.855925909169
 30
0.0
 10
559.1020101191443
 20
-519.0299998126429
 30
0.0
 10
559.1020101191443
 20
-513.9704574437419
 30
0.0
 10
559.1020101191443
 20
-508.0869354199094
 30
0.0
 10
557.8024683535004
 20
-502.5419045145372
 30
0.0
 10
555.2002774193661
 20
-497.3385584472162
 30
0.0
 10
552.599597028282
 20
-492.1346513210483
 30
0.0
 10
548.9132677675225
 20
-487.7325836045284
 30
0.0
 10
544.1491013025807
 20
-484.1338658407067
 30
0.0
 10
542.1065018311456
 20
-482.5774885980827
 30
0.0
 10
540.9014337437256
 20
-480.5234089994628
 30
0.0
 10
540.5379107689969
 20
-477.968735433863
 30
0.0
 10
540.1739993689152
 20
-475.4153134610779
 30
0.0
 10
540.7686354303878
 20
-473.117475372459
 30
0.0
 10
542.3249695146387
 20
-471.0750916928873
 30
0.0
 10
543.8325346375404
 20
-468.9844569524421
 30
0.0
 10
545.8751341089774
 20
-467.7686855885504
 30
0.0
 10
548.4530268791823
 20
-467.4281228681912
 30
0.0
 10
551.0307038575247
 20
-467.0880348899354
 30
0.0
 10
553.3408852407847
 20
-467.6961363637456
 30
0.0
 10
555.3834847122198
 20
-469.2522546561322
 30
0.0
 10
562.4838139008953
 20
-474.5529660126595
 30
0.0
 10
567.9909949132561
 20
-481.1189945451397
 30
0.0
 10
571.9067972425928
 20
-488.9485707602862
 30
0.0
  0
HATCH
  5
BC
330
1F
100
AcDbEntity
  8
Layer 1
 62
     7
420
 16777215
100
AcDbHatch
 10
0.0
 20
0.0
 30
0.0
210
0.0
220
0.0
230
1.0
  2
SOLID
 70
     1
 71
     0
 91
        3
 92
        1
 93
        4
 72
     1
 10
366.1865002360801
 20
-509.302016249836
 11
521.7499920971204
 21
-664.8655081108773
 72
     1
 10
521.7499920971204
 20
-664.8655081108773
 11
677.3134839581617
 21
-509.302016249836
 72
     1
 10
677.3134839581617
 20
-509.302016249836
 11
521.7499920971204
 21
-353.7385243887957
 72
     1
 10
521.7499920971204
 20
-353.7385243887957
 11
366.1865002360801
 21
-509.302016249836
 97
        0
 92
        1
 93
        1
 72
     4
 94
        3
 73
     0
 74
     1
 95
       35
 96
       31
 40
0.0
 40
0.0
 40
0.0
 40
0.0
 40
1.0
 40
1.0
 40
1.0
 40
2.0
 40
2.0
 40
2.0
 40
3.0
 40
3.0
 40
3.0
 40
4.0
 40
4.0
 40
4.0
 40
5.0
 40
5.0
 40
5.0
 40
6.0
 40
6.0
 40
6.0
 40
7.0
 40
7.0
 40
7.0
 40
8.0
 40
8.0
 40
8.0
 40
9.0
 40
9.0
 40
9.0
 40
10.0
 40
10.0
 40
10.0
 40
10.0
 10
515.1848698904705
 20
-451.3790345389716
 10
517.0330408921036
 20
-449.5308635373385
 10
519.2212567136194
 20
-448.6056343396413
 10
521.7508984229516
 20
-448.6055911812682
 10
524.2802811820457
 20
-448.6056343396413
 10
526.4700507049856
 20
-449.52982773639
 10
528.3167111635667
 20
-451.3789913805995
 10
530.1650979570641
 20
-453.2261697396552
 10
531.090111362897
 20
-455.414428719544
 10
531.090111362897
 20
-457.9440272705033
 10
531.090111362897
 20
-457.9440272705033
 10
531.0900682045249
 20
-504.6340929564049
 10
531.0900682045249
 20
-504.6340929564049
 10
531.090111362897
 20
-507.1624399145512
 10
530.1641053144886
 20
-509.3522094374894
 10
528.3167111635667
 20
-511.1993446381748
 10
526.4698349131213
 20
-513.0490693412303
 10
524.2802811820457
 20
-513.9712342944531
 10
521.7509415813238
 20
-513.9712342944531
 10
519.2220335643306
 20
-513.9712342944531
 10
517.0329977337315
 20
-513.0490693412303
 10
515.1848698904705
 20
-511.1996467467834
 10
513.3366988888374
 20
-509.3522525958633
 10
512.4124623337157
 20
-507.1626988647877
 10
512.4125054920896
 20
-504.6343519066431
 10
512.4125054920896
 20
-504.6343519066431
 10
512.4124623337157
 20
-457.9440272705033
 10
512.4124623337157
 20
-457.9440272705033
 10
512.4125054920896
 20
-455.4154213621214
 10
513.3366988888374
 20
-453.2261697396552
 10
515.1848698904705
 20
-451.3790345389716
 97
        0
 97
        0
 92
        1
 93
        1
 72
     4
 94
        3
 73
     0
 74
     1
 95
      101
 96
       97
 40
0.0
 40
0.0
 40
0.0
 40
0.0
 40
1.0
 40
1.0
 40
1.0
 40
2.0
 40
2.0
 40
2.0
 40
3.0
 40
3.0
 40
3.0
 40
4.0
 40
4.0
 40
4.0
 40
5.0
 40
5.0
 40
5.0
 40
6.0
 40
6.0
 40
6.0
 40
7.0
 40
7.0
 40
7.0
 40
8.0
 40
8.0
 40
8.0
 40
9.0
 40
9.0
 40
9.0
 40
10.0
 40
10.0
 40
10.0
 40
11.0
 40
11.0
 40
11.0
 40
12.0
 40
12.0
 40
12.0
 40
13.0
 40
13.0
 40
13.0
 40
14.0
 40
14.0
 40
14.0
 40
15.0
 40
15.0
 40
15.0
 40
16.0
 40
16.0
 40
16.0
 40
17.0
 40
17.0
 40
17.0
 40
18.0
 40
18.0
 40
18.0
 40
19.0
 40
19.0
 40
19.0
 40
20.0
 40
20.0
 40
20.0
 40
21.0
 40
21.0
 40
21.0
 40
22.0
 40
22.0
 40
22.0
 40
23.0
 40
23.0
 40
23.0
 40
24.0
 40
24.0
 40
24.0
 40
25.0
 40
25.0
 40
25.0
 40
26.0
 40
26.0
 40
26.0
 40
27.0
 40
27.0
 40
27.0
 40
28.0
 40
28.0
 40
28.0
 40
29.0
 40
29.0
 40
29.0
 40
30.0
 40
30.0
 40
30.0
 40
31.0
 40
31.0
 40
31.0
 40
32.0
 40
32.0
 40
32.0
 40
32.0
 10
571.9067972425928
 20
-488.9485707602862
 10
575.8223837800633
 20
-496.778966984517
 10
577.7768106957155
 20
-505.1195383345057
 10
577.7765517454791
 20
-513.9707163939784
 10
577.7765085871051
 20
-521.5570520196015
 10
576.2942774290805
 20
-528.80455125978
 10
573.3274414025236
 20
-535.71071092889
 10
570.3606485343407
 20
-542.6168274396259
 10
566.3732896227775
 20
-548.5750566069055
 10
561.3646309754968
 20
-553.5837152541862
 10
556.3551954775048
 20
-558.592373901467
 10
550.3975273690721
 20
-562.5807254556057
 10
543.490634007625
 20
-565.545791988874
 10
536.5842153882768
 20
-568.5135774996343
 10
529.3380108992842
 20
-569.9983981600308
 10
521.7508984229516
 20
-569.9984413184047
 10
514.1640448968537
 20
-569.9983981600308
 10
506.9175382992507
 20
-568.5136206580082
 10
500.0114217885148
 20
-565.545791988874
 10
493.1047873773041
 20
-562.5817612565552
 10
487.146860318634
 20
-558.5926328517035
 10
482.1381585129811
 20
-553.5836720958141
 10
477.1279893226501
 20
-548.5735029054831
 10
473.1406304110869
 20
-542.6168274396259
 10
470.1733196424284
 20
-535.71071092889
 10
467.2070015163463
 20
-528.80455125978
 10
465.7234324487627
 20
-521.5588215128882
 10
465.7234324487627
 20
-513.9707163939784
 10
465.7234756071357
 20
-505.1198404431161
 10
467.6804488667867
 20
-496.7792259347543
 10
471.5959922458851
 20
-488.9486139186592
 10
475.5118377335939
 20
-481.1189945451397
 10
481.0187597957183
 20
-474.5529660126595
 10
488.1201247853423
 20
-469.2522546561322
 10
490.211018476024
 20
-467.6961795221187
 10
492.5339315792844
 20
-467.0877759396981
 10
495.0876125023069
 20
-467.4281228681912
 10
497.6414660588216
 20
-467.7684697966852
 10
499.6710748600217
 20
-468.9844569524421
 10
501.1788557747877
 20
-471.0751348512604
 10
502.7354919676491
 20
-473.117475372459
 10
503.3308617214625
 20
-475.4163924203986
 10
502.96621662904
 20
-477.9687354338639
 10
502.6008378442784
 20
-480.5226753071238
 10
501.3975824085192
 20
-482.5764959555063
 10
499.3549829370841
 20
-484.1339089990797
 10
494.5890469788537
 20
-487.7333604552414
 10
490.9050051118575
 20
-492.1352123798961
 10
488.3030731279596
 20
-497.3385584472162
 10
485.7014000943
 20
-502.5426813652484
 10
484.4002614688598
 20
-508.0868922615373
 10
484.4003046272319
 20
-513.9704574437419
 10
484.4003046272319
 20
-519.0299998126429
 10
485.3853081713623
 20
-523.855925909169
 10
487.3548405175197
 20
-528.4527673624743
 10
489.3248907641519
 20
-533.0490045985607
 10
491.9878918456679
 20
-537.0238475819897
 10
495.3425490108802
 20
-540.3800584486253
 10
498.6988030358898
 20
-543.7352766726854
 10
502.6741639197935
 20
-546.3977598537276
 10
507.2706601061163
 20
-548.3678101003588
 10
511.8667247087105
 20
-550.3378603469919
 10
516.6939455564225
 20
-551.3241586423082
 10
521.7511573731881
 20
-551.3241586423082
 10
526.8091460406649
 20
-551.3241586423082
 10
531.6361079381404
 20
-550.3378603469919
 10
536.2321293823625
 20
-548.3677669419867
 10
540.8289276772957
 20
-546.3977598537276
 10
544.8029938100117
 20
-543.7352766726854
 10
548.1591615182751
 20
-540.3800584486253
 10
551.5154155432847
 20
-537.0238044236157
 10
554.1789776836486
 20
-533.0487456483224
 10
556.1479489709582
 20
-528.4527242041022
 10
558.1172655252522
 20
-523.855925909169
 10
559.1020101191443
 20
-519.0299998126429
 10
559.1020101191443
 20
-513.9704574437419
 10
559.1020101191443
 20
-508.0869354199094
 10
557.8024683535004
 20
-502.5419045145372
 10
555.2002774193661
 20
-497.3385584472162
 10
552.599597028282
 20
-492.1346513210483
 10
548.9132677675225
 20
-487.7325836045284
 10
544.1491013025807
 20
-484.1338658407067
 10
542.1065018311456
 20
-482.5774885980827
 10
540.9014337437256
 20
-480.5234089994628
 10
540.5379107689969
 20
-477.968735433863
 10
540.1739993689152
 20
-475.4153134610779
 10
540.7686354303878
 20
-473.117475372459
 10
542.3249695146387
 20
-471.0750916928873
 10
543.8325346375404
 20
-468.9844569524421
 10
545.8751341089774
 20
-467.7686855885504
 10
548.4530268791823
 20
-467.4281228681912
 10
551.0307038575247
 20
-467.0880348899354
 10
553.3408852407847
 20
-467.6961363637456
 10
555.3834847122198
 20
-469.2522546561322
 10
562.4838139008953
 20
-474.5529660126595
 10
567.9909949132561
 20
-481.1189945451397
 10
571.9067972425928
 20
-488.9485707602862
 97
        0
 97
        0
 75
     2
 76
     1
 98
        0
  0
POLYLINE
  5
BD
330
1F
100
AcDbEntity
  8
Layer 1
370
     0
100
AcDb2dPolyline
 66
     1
 10
0.0
 20
0.0
 30
0.0
  0
VERTEX
  5
BE
330
BD
100
AcDbEntity
  8
Layer 1
370
     0
100
AcDbVertex
100
AcDb2dVertex
 10
550.0342633445835
 20
-325.4542531413335
 30
0.0
  0
VERTEX
  5
BF
330
BD
100
AcDbEntity
  8
Layer 1
370
     0
100
AcDbVertex
100
AcDb2dVertex
 10
716.2043569234211
 20
-491.624346720173
 30
0.0
  0
VERTEX
  5
C0
330
BD
100
AcDbEntity
  8
Layer 1
370
     0
100
AcDbVertex
100
AcDb2dVertex
 10
739.5388807025774
 20
-468.2898229410166
 30
0.0
  0
VERTEX
  5
C1
330
BD
100
AcDbEntity
  8
Layer 1
370
     0
100
AcDbVertex
100
AcDb2dVertex
 10
734.5891332342708
 20
-463.3400754727109
 30
0.0
  0
VERTEX
  5
C2
330
BD
100
AcDbEntity
  8
Layer 1
370
     0
100
AcDbVertex
100
AcDb2dVertex
 10
739.5388807025774
 20
-458.3903280044051
 30
0.0
  0
VERTEX
  5
C3
330
BD
100
AcDbEntity
  8
Layer 1
370
     0
100
AcDbVertex
100
AcDb2dVertex
 10
578.3185345920447
 20
-297.1699818938723
 30
0.0
  0
VERTEX
  5
C4
330
BD
100
AcDbEntity
  8
Layer 1
370
     0
100
AcDbVertex
100
AcDb2dVertex
 10
550.0342633445835
 20
-325.4542531413335
 30
0.0
  0
SEQEND
  5
C5
330
BD
100
AcDbEntity
  8
Layer 1
370
     0
  0
SPLINE
  5
C6
330
1F
100
AcDbEntity
  8
Layer 1
370
     0
100
AcDbSpline
210
0.0
220
0.0
230
1.0
 70
    11
 71
     3
 72
    53
 73
    49
 74
     0
 42
0.0000000001
 43
0.0000000001
 12
1.0
 22
0.0
 32
0.0
 13
1.0
 23
0.0
 33
0.0
 40
0.0
 40
0.0
 40
0.0
 40
0.0
 40
1.0
 40
1.0
 40
1.0
 40
2.0
 40
2.0
 40
2.0
 40
3.0
 40
3.0
 40
3.0
 40
4.0
 40
4.0
 40
4.0
 40
5.0
 40
5.0
 40
5.0
 40
6.0
 40
6.0
 40
6.0
 40
7.0
 40
7.0
 40
7.0
 40
8.0
 40
8.0
 40
8.0
 40
9.0
 40
9.0
 40
9.0
 40
10.0
 40
10.0
 40
10.0
 40
11.0
 40
11.0
 40
11.0
 40
12.0
 40
12.0
 40
12.0
 40
13.0
 40
13.0
 40
13.0
 40
14.0
 40
14.0
 40
14.0
 40
15.0
 40
15.0
 40
15.0
 40
16.0
 40
16.0
 40
16.0
 40
16.0
 10
577.0075990159621
 20
-325.5575311276243
 30
0.0
 10
577.0075990159621
 20
-325.5575311276243
 30
0.0
 10
578.7753659689279
 20
-323.7897641746576
 30
0.0
 10
578.7753659689279
 20
-323.7897641746576
 30
0.0
 10
578.7753659689279
 20
-323.7897641746576
 30
0.0
 10
577.0075990159621
 20
-322.0219972216919
 30
0.0
 10
577.0075990159621
 20
-322.0219972216919
 30
0.0
 10
576.0353271918302
 20
-321.04972539756
 30
0.0
 10
576.0353271918302
 20
-319.4587351398895
 30
0.0
 10
577.0075990159621
 20
-318.4864633157595
 30
0.0
 10
577.9798708400922
 20
-317.5141914916276
 30
0.0
 10
579.5708610977636
 20
-317.5141914916276
 30
0.0
 10
580.5431329218936
 20
-318.4864633157595
 30
0.0
 10
580.5431329218936
 20
-318.4864633157595
 30
0.0
 10
582.3108998748612
 20
-320.2542302687252
 30
0.0
 10
582.3108998748612
 20
-320.2542302687252
 30
0.0
 10
582.3108998748612
 20
-320.2542302687252
 30
0.0
 10
584.078666827827
 20
-318.4864633157595
 30
0.0
 10
584.078666827827
 20
-318.4864633157595
 30
0.0
 10
585.0509386519589
 20
-317.5141914916276
 30
0.0
 10
586.6419289096284
 20
-317.5141914916276
 30
0.0
 10
587.6142007337603
 20
-318.4864633157595
 30
0.0
 10
588.5864725578904
 20
-319.4587351398895
 30
0.0
 10
588.5864725578904
 20
-321.04972539756
 30
0.0
 10
587.6142007337603
 20
-322.0219972216919
 30
0.0
 10
587.6142007337603
 20
-322.0219972216919
 30
0.0
 10
585.8464337807927
 20
-323.7897641746576
 30
0.0
 10
585.8464337807927
 20
-323.7897641746576
 30
0.0
 10
585.8464337807927
 20
-323.7897641746576
 30
0.0
 10
587.6142007337603
 20
-325.5575311276243
 30
0.0
 10
587.6142007337603
 20
-325.5575311276243
 30
0.0
 10
588.5864725578904
 20
-326.5298029517562
 30
0.0
 10
588.5864725578904
 20
-328.1207932094258
 30
0.0
 10
587.6142007337603
 20
-329.0930650335567
 30
0.0
 10
586.6419289096284
 20
-330.0653368576886
 30
0.0
 10
585.0509386519589
 20
-330.0653368576886
 30
0.0
 10
584.078666827827
 20
-329.0930650335567
 30
0.0
 10
584.078666827827
 20
-329.0930650335567
 30
0.0
 10
582.3108998748612
 20
-327.325298080591
 30
0.0
 10
582.3108998748612
 20
-327.325298080591
 30
0.0
 10
582.3108998748612
 20
-327.325298080591
 30
0.0
 10
580.5431329218936
 20
-329.0930650335567
 30
0.0
 10
580.5431329218936
 20
-329.0930650335567
 30
0.0
 10
579.5708610977636
 20
-330.0653368576886
 30
0.0
 10
577.9798708400922
 20
-330.0653368576886
 30
0.0
 10
577.0075990159621
 20
-329.0930650335567
 30
0.0
 10
576.0353271918302
 20
-328.1207932094258
 30
0.0
 10
576.0353271918302
 20
-326.5298029517562
 30
0.0
 10
577.0075990159621
 20
-325.5575311276243
 30
0.0
  0
SPLINE
  5
C7
330
1F
100
AcDbEntity
  8
Layer 1
370
     0
100
AcDbSpline
210
0.0
220
0.0
230
1.0
 70
    11
 71
     3
 72
    53
 73
    49
 74
     0
 42
0.0000000001
 43
0.0000000001
 12
1.0
 22
0.0
 32
0.0
 13
1.0
 23
0.0
 33
0.0
 40
0.0
 40
0.0
 40
0.0
 40
0.0
 40
1.0
 40
1.0
 40
1.0
 40
2.0
 40
2.0
 40
2.0
 40
3.0
 40
3.0
 40
3.0
 40
4.0
 40
4.0
 40
4.0
 40
5.0
 40
5.0
 40
5.0
 40
6.0
 40
6.0
 40
6.0
 40
7.0
 40
7.0
 40
7.0
 40
8.0
 40
8.0
 40
8.0
 40
9.0
 40
9.0
 40
9.0
 40
10.0
 40
10.0
 40
10.0
 40
11.0
 40
11.0
 40
11.0
 40
12.0
 40
12.0
 40
12.0
 40
13.0
 40
13.0
 40
13.0
 40
14.0
 40
14.0
 40
14.0
 40
15.0
 40
15.0
 40
15.0
 40
16.0
 40
16.0
 40
16.0
 40
16.0
 10
682.4791527659618
 20
-431.8883680815688
 30
0.0
 10
681.5068809418299
 20
-432.8606399056998
 30
0.0
 10
679.9158906841603
 20
-432.8606399056998
 30
0.0
 10
678.9436188600284
 20
-431.8883680815688
 30
0.0
 10
677.9713470358965
 20
-430.9160962574369
 30
0.0
 10
677.9713470358965
 20
-429.3251059997674
 30
0.0
 10
678.9436188600284
 20
-428.3528341756364
 30
0.0
 10
678.9436188600284
 20
-428.3528341756364
 30
0.0
 10
680.7113858129942
 20
-426.5850672226697
 30
0.0
 10
680.7113858129942
 20
-426.5850672226697
 30
0.0
 10
680.7113858129942
 20
-426.5850672226697
 30
0.0
 10
678.9436188600284
 20
-424.8173002697031
 30
0.0
 10
678.9436188600284
 20
-424.8173002697031
 30
0.0
 10
677.9713470358965
 20
-423.8450284455712
 30
0.0
 10
677.9713470358965
 20
-422.2540381879016
 30
0.0
 10
678.9436188600284
 20
-421.2817663637707
 30
0.0
 10
679.9158906841603
 20
-420.3094945396388
 30
0.0
 10
681.5068809418299
 20
-420.3094945396388
 30
0.0
 10
682.4791527659618
 20
-421.2817663637707
 30
0.0
 10
682.4791527659618
 20
-421.2817663637707
 30
0.0
 10
684.2469197189275
 20
-423.0495333167364
 30
0.0
 10
684.2469197189275
 20
-423.0495333167364
 30
0.0
 10
684.2469197189275
 20
-423.0495333167364
 30
0.0
 10
686.0146866718933
 20
-421.2817663637697
 30
0.0
 10
686.0146866718933
 20
-421.2817663637697
 30
0.0
 10
686.9869584960252
 20
-420.3094945396388
 30
0.0
 10
688.5779487536947
 20
-420.3094945396388
 30
0.0
 10
689.5502205778266
 20
-421.2817663637707
 30
0.0
 10
690.5224924019585
 20
-422.2540381879016
 30
0.0
 10
690.5224924019585
 20
-423.8450284455712
 30
0.0
 10
689.5502205778266
 20
-424.8173002697031
 30
0.0
 10
689.5502205778266
 20
-424.8173002697031
 30
0.0
 10
687.7824536248609
 20
-426.5850672226697
 30
0.0
 10
687.7824536248609
 20
-426.5850672226697
 30
0.0
 10
687.7824536248609
 20
-426.5850672226697
 30
0.0
 10
689.5502205778266
 20
-428.3528341756364
 30
0.0
 10
689.5502205778266
 20
-428.3528341756364
 30
0.0
 10
690.5224924019585
 20
-429.3251059997674
 30
0.0
 10
690.5224924019585
 20
-430.9160962574369
 30
0.0
 10
689.5502205778266
 20
-431.8883680815688
 30
0.0
 10
688.5779487536947
 20
-432.8606399056998
 30
0.0
 10
686.9869584960252
 20
-432.8606399056998
 30
0.0
 10
686.0146866718933
 20
-431.8883680815688
 30
0.0
 10
686.0146866718933
 20
-431.8883680815688
 30
0.0
 10
684.2469197189275
 20
-430.1206011286022
 30
0.0
 10
684.2469197189275
 20
-430.1206011286022
 30
0.0
 10
684.2469197189275
 20
-430.1206011286022
 30
0.0
 10
682.4791527659618
 20
-431.8883680815688
 30
0.0
 10
682.4791527659618
 20
-431.8883680815688
 30
0.0
  0
SPLINE
  5
C8
330
1F
100
AcDbEntity
  8
Layer 1
370
     0
100
AcDbSpline
210
0.0
220
0.0
230
1.0
 70
    11
 71
     3
 72
    23
 73
    19
 74
     0
 42
0.0000000001
 43
0.0000000001
 12
1.0
 22
0.0
 32
0.0
 13
1.0
 23
0.0
 33
0.0
 40
0.0
 40
0.0
 40
0.0
 40
0.0
 40
1.0
 40
1.0
 40
1.0
 40
2.0
 40
2.0
 40
2.0
 40
3.0
 40
3.0
 40
3.0
 40
4.0
 40
4.0
 40
4.0
 40
5.0
 40
5.0
 40
5.0
 40
6.0
 40
6.0
 40
6.0
 40
6.0
 10
663.4694000575055
 20
-410.0501882483668
 30
0.0
 10
663.4694000575055
 20
-410.0501882483668
 30
0.0
 10
621.7500568091273
 20
-368.3308449999877
 30
0.0
 10
621.7500568091273
 20
-368.3308449999877
 30
0.0
 10
621.1667282413455
 20
-367.7475164322068
 30
0.0
 10
621.1667713997194
 20
-366.7928963825816
 30
0.0
 10
621.7500999674994
 20
-366.2095678148007
 30
0.0
 10
622.3334716936533
 20
-365.6261960886477
 30
0.0
 10
623.2880485849055
 20
-365.6261960886477
 30
0.0
 10
623.8713771526855
 20
-366.2095246564277
 30
0.0
 10
623.8713771526855
 20
-366.2095246564277
 30
0.0
 10
665.5907204010655
 20
-407.9288679048068
 30
0.0
 10
665.5907204010655
 20
-407.9288679048068
 30
0.0
 10
666.1740489688455
 20
-408.5121964725877
 30
0.0
 10
666.1740921272194
 20
-409.4668165222138
 30
0.0
 10
665.5907204010655
 20
-410.0501882483668
 30
0.0
 10
665.0073918332855
 20
-410.6335168161477
 30
0.0
 10
664.0527286252873
 20
-410.6335168161477
 30
0.0
 10
663.4694000575055
 20
-410.0501882483668
 30
0.0
  0
SPLINE
  5
C9
330
1F
100
AcDbEntity
  8
Layer 1
370
     0
100
AcDbSpline
210
0.0
220
0.0
230
1.0
 70
    11
 71
     3
 72
    29
 73
    25
 74
     0
 42
0.0000000001
 43
0.0000000001
 12
1.0
 22
0.0
 32
0.0
 13
1.0
 23
0.0
 33
0.0
 40
0.0
 40
0.0
 40
0.0
 40
0.0
 40
1.0
 40
1.0
 40
1.0
 40
2.0
 40
2.0
 40
2.0
 40
3.0
 40
3.0
 40
3.0
 40
4.0
 40
4.0
 40
4.0
 40
5.0
 40
5.0
 40
5.0
 40
6.0
 40
6.0
 40
6.0
 40
7.0
 40
7.0
 40
7.0
 40
8.0
 40
8.0
 40
8.0
 40
8.0
 10
672.6027907172102
 20
-409.0576751473573
 30
0.0
 10
672.6027907172102
 20
-409.0576751473573
 30
0.0
 10
596.9423651302495
 20
-333.3972495603966
 30
0.0
 10
596.9423651302495
 20
-333.3972495603966
 30
0.0
 10
596.3589934040974
 20
-332.8138778342427
 30
0.0
 10
596.3590365624696
 20
-331.8592577846184
 30
0.0
 10
596.9423651302495
 20
-331.2759292168366
 30
0.0
 10
596.9423651302495
 20
-331.2759292168366
 30
0.0
 10
596.9424082886235
 20
-331.2758860584636
 30
0.0
 10
596.9424082886235
 20
-331.2758860584636
 30
0.0
 10
597.5257368564035
 20
-330.6925574906836
 30
0.0
 10
598.4803137476556
 20
-330.6925574906836
 30
0.0
 10
599.0636854738095
 20
-331.2759292168366
 30
0.0
 10
599.0636854738095
 20
-331.2759292168366
 30
0.0
 10
674.7241110607702
 20
-406.9363548037973
 30
0.0
 10
674.7241110607702
 20
-406.9363548037973
 30
0.0
 10
675.307439628552
 20
-407.5196833715781
 30
0.0
 10
675.3074827869241
 20
-408.4743034212033
 30
0.0
 10
674.7241542191441
 20
-409.0576319889842
 30
0.0
 10
674.7241542191441
 20
-409.0576319889842
 30
0.0
 10
674.7241110607702
 20
-409.0576751473573
 30
0.0
 10
674.7241110607702
 20
-409.0576751473573
 30
0.0
 10
674.1407824929902
 20
-409.6410037151372
 30
0.0
 10
673.186119284992
 20
-409.6410037151372
 30
0.0
 10
672.6027907172102
 20
-409.0576751473573
 30
0.0
  0
SPLINE
  5
CA
330
1F
100
AcDbEntity
  8
Layer 1
370
     0
100
AcDbSpline
210
0.0
220
0.0
230
1.0
 70
    11
 71
     3
 72
    53
 73
    49
 74
     0
 42
0.0000000001
 43
0.0000000001
 12
1.0
 22
0.0
 32
0.0
 13
1.0
 23
0.0
 33
0.0
 40
0.0
 40
0.0
 40
0.0
 40
0.0
 40
1.0
 40
1.0
 40
1.0
 40
2.0
 40
2.0
 40
2.0
 40
3.0
 40
3.0
 40
3.0
 40
4.0
 40
4.0
 40
4.0
 40
5.0
 40
5.0
 40
5.0
 40
6.0
 40
6.0
 40
6.0
 40
7.0
 40
7.0
 40
7.0
 40
8.0
 40
8.0
 40
8.0
 40
9.0
 40
9.0
 40
9.0
 40
10.0
 40
10.0
 40
10.0
 40
11.0
 40
11.0
 40
11.0
 40
12.0
 40
12.0
 40
12.0
 40
13.0
 40
13.0
 40
13.0
 40
14.0
 40
14.0
 40
14.0
 40
15.0
 40
15.0
 40
15.0
 40
16.0
 40
16.0
 40
16.0
 40
16.0
 10
590.1590341903429
 20
-349.3155680198042
 30
0.0
 10
590.1590341903429
 20
-349.3155680198042
 30
0.0
 10
591.9268011433087
 20
-347.5478010668376
 30
0.0
 10
591.9268011433087
 20
-347.5478010668376
 30
0.0
 10
591.9268011433087
 20
-347.5478010668376
 30
0.0
 10
590.1590341903429
 20
-345.7800341138718
 30
0.0
 10
590.1590341903429
 20
-345.7800341138718
 30
0.0
 10
589.186762366211
 20
-344.8077622897399
 30
0.0
 10
589.186762366211
 20
-343.2167720320704
 30
0.0
 10
590.1590341903429
 20
-342.2445002079394
 30
0.0
 10
591.1313060144748
 20
-341.2722283838084
 30
0.0
 10
592.7222962721444
 20
-341.2722283838084
 30
0.0
 10
593.6945680962763
 20
-342.2445002079394
 30
0.0
 10
593.6945680962763
 20
-342.2445002079394
 30
0.0
 10
595.462335049242
 20
-344.0122671609051
 30
0.0
 10
595.462335049242
 20
-344.0122671609051
 30
0.0
 10
595.462335049242
 20
-344.0122671609051
 30
0.0
 10
597.2301020022096
 20
-342.2445002079394
 30
0.0
 10
597.2301020022096
 20
-342.2445002079394
 30
0.0
 10
598.2023738263397
 20
-341.2722283838084
 30
0.0
 10
599.7933640840092
 20
-341.2722283838084
 30
0.0
 10
600.7656359081411
 20
-342.2445002079394
 30
0.0
 10
601.737907732273
 20
-343.2167720320704
 30
0.0
 10
601.737907732273
 20
-344.8077622897399
 30
0.0
 10
600.7656359081411
 20
-345.7800341138718
 30
0.0
 10
600.7656359081411
 20
-345.7800341138718
 30
0.0
 10
598.9978689551754
 20
-347.5478010668376
 30
0.0
 10
598.9978689551754
 20
-347.5478010668376
 30
0.0
 10
598.9978689551754
 20
-347.5478010668376
 30
0.0
 10
600.7656359081411
 20
-349.3155680198042
 30
0.0
 10
600.7656359081411
 20
-349.3155680198042
 30
0.0
 10
601.737907732273
 20
-350.2878398439361
 30
0.0
 10
601.737907732273
 20
-351.8788301016057
 30
0.0
 10
600.7656359081411
 20
-352.8511019257367
 30
0.0
 10
599.7933640840092
 20
-353.8233737498686
 30
0.0
 10
598.2023738263397
 20
-353.8233737498686
 30
0.0
 10
597.2301020022096
 20
-352.8511019257367
 30
0.0
 10
597.2301020022096
 20
-352.8511019257367
 30
0.0
 10
595.462335049242
 20
-351.0833349727709
 30
0.0
 10
595.462335049242
 20
-351.0833349727709
 30
0.0
 10
595.462335049242
 20
-351.0833349727709
 30
0.0
 10
593.6945680962763
 20
-352.8511019257367
 30
0.0
 10
593.6945680962763
 20
-352.8511019257367
 30
0.0
 10
592.7222962721444
 20
-353.8233737498686
 30
0.0
 10
591.1313060144748
 20
-353.8233737498686
 30
0.0
 10
590.1590341903429
 20
-352.8511019257367
 30
0.0
 10
589.186762366211
 20
-351.8788301016057
 30
0.0
 10
589.186762366211
 20
-350.2878398439361
 30
0.0
 10
590.1590341903429
 20
-349.3155680198042
 30
0.0
  0
SPLINE
  5
CB
330
1F
100
AcDbEntity
  8
Layer 1
370
     0
100
AcDbSpline
210
0.0
220
0.0
230
1.0
 70
    11
 71
     3
 72
    23
 73
    19
 74
     0
 42
0.0000000001
 43
0.0000000001
 12
1.0
 22
0.0
 32
0.0
 13
1.0
 23
0.0
 33
0.0
 40
0.0
 40
0.0
 40
0.0
 40
0.0
 40
1.0
 40
1.0
 40
1.0
 40
2.0
 40
2.0
 40
2.0
 40
3.0
 40
3.0
 40
3.0
 40
4.0
 40
4.0
 40
4.0
 40
5.0
 40
5.0
 40
5.0
 40
6.0
 40
6.0
 40
6.0
 40
6.0
 10
608.8091050192579
 20
-362.6252217891461
 30
0.0
 10
608.8091050192579
 20
-362.6252217891461
 30
0.0
 10
623.6583474241743
 20
-377.4744641940642
 30
0.0
 10
623.6583474241743
 20
-377.4744641940642
 30
0.0
 10
624.2417191503282
 20
-378.0578359202173
 30
0.0
 10
624.2417191503282
 20
-379.0124128114703
 30
0.0
 10
623.6583474241743
 20
-379.5957845376233
 30
0.0
 10
623.0749756980204
 20
-380.1791562637773
 30
0.0
 10
622.1203988067682
 20
-380.1791562637773
 30
0.0
 10
621.5370270806143
 20
-379.5957845376233
 30
0.0
 10
621.5370270806143
 20
-379.5957845376233
 30
0.0
 10
606.6877846756979
 20
-364.7465421327061
 30
0.0
 10
606.6877846756979
 20
-364.7465421327061
 30
0.0
 10
606.104412949544
 20
-364.1631704065521
 30
0.0
 10
606.104412949544
 20
-363.2085935153
 30
0.0
 10
606.6877846756979
 20
-362.6252217891461
 30
0.0
 10
607.27115640185
 20
-362.041850062993
 30
0.0
 10
608.225733293104
 20
-362.041850062993
 30
0.0
 10
608.8091050192579
 20
-362.6252217891461
 30
0.0
  0
SPLINE
  5
CC
330
1F
100
AcDbEntity
  8
Layer 1
370
     0
100
AcDbSpline
210
0.0
220
0.0
230
1.0
 70
    11
 71
     3
 72
    53
 73
    49
 74
     0
 42
0.0000000001
 43
0.0000000001
 12
1.0
 22
0.0
 32
0.0
 13
1.0
 23
0.0
 33
0.0
 40
0.0
 40
0.0
 40
0.0
 40
0.0
 40
1.0
 40
1.0
 40
1.0
 40
2.0
 40
2.0
 40
2.0
 40
3.0
 40
3.0
 40
3.0
 40
4.0
 40
4.0
 40
4.0
 40
5.0
 40
5.0
 40
5.0
 40
6.0
 40
6.0
 40
6.0
 40
7.0
 40
7.0
 40
7.0
 40
8.0
 40
8.0
 40
8.0
 40
9.0
 40
9.0
 40
9.0
 40
10.0
 40
10.0
 40
10.0
 40
11.0
 40
11.0
 40
11.0
 40
12.0
 40
12.0
 40
12.0
 40
13.0
 40
13.0
 40
13.0
 40
14.0
 40
14.0
 40
14.0
 40
15.0
 40
15.0
 40
15.0
 40
16.0
 40
16.0
 40
16.0
 40
16.0
 10
625.4394934727316
 20
-397.0464410259638
 30
0.0
 10
624.4672216486015
 20
-396.0741692018328
 30
0.0
 10
624.4672216486015
 20
-394.4831789441623
 30
0.0
 10
625.4394934727316
 20
-393.5109071200313
 30
0.0
 10
625.4394934727316
 20
-393.5109071200313
 30
0.0
 10
627.2072604256991
 20
-391.7431401670647
 30
0.0
 10
627.2072604256991
 20
-391.7431401670647
 30
0.0
 10
627.2072604256991
 20
-391.7431401670647
 30
0.0
 10
625.4394934727316
 20
-389.975373214098
 30
0.0
 10
625.4394934727316
 20
-389.975373214098
 30
0.0
 10
624.4672216486015
 20
-389.003101389967
 30
0.0
 10
624.4672216486015
 20
-387.4121111322966
 30
0.0
 10
625.4394934727316
 20
-386.4398393081656
 30
0.0
 10
626.4117652968635
 20
-385.4675674840346
 30
0.0
 10
628.002755554533
 20
-385.4675674840346
 30
0.0
 10
628.9750273786649
 20
-386.4398393081656
 30
0.0
 10
628.9750273786649
 20
-386.4398393081656
 30
0.0
 10
630.7427943316306
 20
-388.2076062611322
 30
0.0
 10
630.7427943316306
 20
-388.2076062611322
 30
0.0
 10
630.7427943316306
 20
-388.2076062611322
 30
0.0
 10
632.5105612845982
 20
-386.4398393081656
 30
0.0
 10
632.5105612845982
 20
-386.4398393081656
 30
0.0
 10
633.4828331087301
 20
-385.4675674840346
 30
0.0
 10
635.0738233663997
 20
-385.4675674840346
 30
0.0
 10
636.0460951905297
 20
-386.4398393081656
 30
0.0
 10
637.0183670146616
 20
-387.4121111322966
 30
0.0
 10
637.0183670146616
 20
-389.003101389967
 30
0.0
 10
636.0460951905297
 20
-389.975373214098
 30
0.0
 10
636.0460951905297
 20
-389.975373214098
 30
0.0
 10
634.278328237564
 20
-391.7431401670647
 30
0.0
 10
634.278328237564
 20
-391.7431401670647
 30
0.0
 10
634.278328237564
 20
-391.7431401670647
 30
0.0
 10
636.0460951905297
 20
-393.5109071200313
 30
0.0
 10
636.0460951905297
 20
-393.5109071200313
 30
0.0
 10
637.0183670146616
 20
-394.4831789441623
 30
0.0
 10
637.0183670146616
 20
-396.0741692018328
 30
0.0
 10
636.0460951905297
 20
-397.0464410259638
 30
0.0
 10
635.0738233663997
 20
-398.0187128500957
 30
0.0
 10
633.4828331087301
 20
-398.0187128500957
 30
0.0
 10
632.5105612845982
 20
-397.0464410259638
 30
0.0
 10
632.5105612845982
 20
-397.0464410259638
 30
0.0
 10
630.7427943316306
 20
-395.2786740729971
 30
0.0
 10
630.7427943316306
 20
-395.2786740729971
 30
0.0
 10
630.7427943316306
 20
-395.2786740729971
 30
0.0
 10
628.9750273786649
 20
-397.0464410259638
 30
0.0
 10
628.9750273786649
 20
-397.0464410259638
 30
0.0
 10
628.002755554533
 20
-398.0187128500957
 30
0.0
 10
626.4117652968635
 20
-398.0187128500957
 30
0.0
 10
625.4394934727316
 20
-397.0464410259638
 30
0.0
  0
SPLINE
  5
CD
330
1F
100
AcDbEntity
  8
Layer 1
370
     0
100
AcDbSpline
210
0.0
220
0.0
230
1.0
 70
    11
 71
     3
 72
    23
 73
    19
 74
     0
 42
0.0000000001
 43
0.0000000001
 12
1.0
 22
0.0
 32
0.0
 13
1.0
 23
0.0
 33
0.0
 40
0.0
 40
0.0
 40
0.0
 40
0.0
 40
1.0
 40
1.0
 40
1.0
 40
2.0
 40
2.0
 40
2.0
 40
3.0
 40
3.0
 40
3.0
 40
4.0
 40
4.0
 40
4.0
 40
5.0
 40
5.0
 40
5.0
 40
6.0
 40
6.0
 40
6.0
 40
6.0
 10
641.7304413235452
 20
-398.2107244510171
 30
0.0
 10
641.7304413235452
 20
-398.2107244510171
 30
0.0
 10
696.1776634749076
 20
-452.6579466023813
 30
0.0
 10
696.1776634749076
 20
-452.6579466023813
 30
0.0
 10
696.7609920426894
 20
-453.2412751701613
 30
0.0
 10
696.7610352010615
 20
-454.1958952197874
 30
0.0
 10
696.1776634749076
 20
-454.7792669459395
 30
0.0
 10
695.5943349071276
 20
-455.3625955137213
 30
0.0
 10
694.6396716991294
 20
-455.3625955137213
 30
0.0
 10
694.0563431313494
 20
-454.7792669459395
 30
0.0
 10
694.0563431313494
 20
-454.7792669459395
 30
0.0
 10
639.6091209799852
 20
-400.3320447945771
 30
0.0
 10
639.6091209799852
 20
-400.3320447945771
 30
0.0
 10
639.0257492538312
 20
-399.7486730684232
 30
0.0
 10
639.0257924122034
 20
-398.794053018798
 30
0.0
 10
639.6091209799852
 20
-398.2107244510171
 30
0.0
 10
640.1924927061373
 20
-397.6273527248632
 30
0.0
 10
641.1470695973912
 20
-397.6273527248632
 30
0.0
 10
641.7304413235452
 20
-398.2107244510171
 30
0.0
  0
SPLINE
  5
CE
330
1F
100
AcDbEntity
  8
Layer 1
370
     0
100
AcDbSpline
210
0.0
220
0.0
230
1.0
 70
    11
 71
     3
 72
    53
 73
    49
 74
     0
 42
0.0000000001
 43
0.0000000001
 12
1.0
 22
0.0
 32
0.0
 13
1.0
 23
0.0
 33
0.0
 40
0.0
 40
0.0
 40
0.0
 40
0.0
 40
1.0
 40
1.0
 40
1.0
 40
2.0
 40
2.0
 40
2.0
 40
3.0
 40
3.0
 40
3.0
 40
4.0
 40
4.0
 40
4.0
 40
5.0
 40
5.0
 40
5.0
 40
6.0
 40
6.0
 40
6.0
 40
7.0
 40
7.0
 40
7.0
 40
8.0
 40
8.0
 40
8.0
 40
9.0
 40
9.0
 40
9.0
 40
10.0
 40
10.0
 40
10.0
 40
11.0
 40
11.0
 40
11.0
 40
12.0
 40
12.0
 40
12.0
 40
13.0
 40
13.0
 40
13.0
 40
14.0
 40
14.0
 40
14.0
 40
15.0
 40
15.0
 40
15.0
 40
16.0
 40
16.0
 40
16.0
 40
16.0
 10
711.4149428103465
 20
-459.4099445635802
 30
0.0
 10
711.4149428103465
 20
-459.4099445635802
 30
0.0
 10
709.6471758573807
 20
-461.1777115165469
 30
0.0
 10
709.6471758573807
 20
-461.1777115165469
 30
0.0
 10
709.6471758573807
 20
-461.1777115165469
 30
0.0
 10
711.4149428103465
 20
-462.9454784695135
 30
0.0
 10
711.4149428103465
 20
-462.9454784695135
 30
0.0
 10
712.3872146344784
 20
-463.9177502936454
 30
0.0
 10
712.3872146344784
 20
-465.508740551315
 30
0.0
 10
711.4149428103465
 20
-466.481012375446
 30
0.0
 10
710.4426709862146
 20
-467.4532841995779
 30
0.0
 10
708.851680728545
 20
-467.4532841995779
 30
0.0
 10
707.8794089044131
 20
-466.481012375446
 30
0.0
 10
707.8794089044131
 20
-466.481012375446
 30
0.0
 10
706.1116419514474
 20
-464.7132454224793
 30
0.0
 10
706.1116419514474
 20
-464.7132454224793
 30
0.0
 10
706.1116419514474
 20
-464.7132454224793
 30
0.0
 10
704.3438749984816
 20
-466.481012375446
 30
0.0
 10
704.3438749984816
 20
-466.481012375446
 30
0.0
 10
703.3716031743497
 20
-467.4532841995779
 30
0.0
 10
701.7806129166802
 20
-467.4532841995779
 30
0.0
 10
700.8083410925483
 20
-466.481012375446
 30
0.0
 10
699.8360692684164
 20
-465.508740551315
 30
0.0
 10
699.8360692684164
 20
-463.9177502936454
 30
0.0
 10
700.8083410925483
 20
-462.9454784695135
 30
0.0
 10
700.8083410925483
 20
-462.9454784695135
 30
0.0
 10
702.576108045514
 20
-461.1777115165469
 30
0.0
 10
702.576108045514
 20
-461.1777115165469
 30
0.0
 10
702.576108045514
 20
-461.1777115165469
 30
0.0
 10
700.8083410925483
 20
-459.4099445635802
 30
0.0
 10
700.8083410925483
 20
-459.4099445635802
 30
0.0
 10
699.8360692684164
 20
-458.4376727394492
 30
0.0
 10
699.8360692684164
 20
-456.8466824817797
 30
0.0
 10
700.8083410925483
 20
-455.8744106576478
 30
0.0
 10
701.7806129166802
 20
-454.9021388335168
 30
0.0
 10
703.3716031743497
 20
-454.9021388335159
 30
0.0
 10
704.3438749984816
 20
-455.8744106576478
 30
0.0
 10
704.3438749984816
 20
-455.8744106576478
 30
0.0
 10
706.1116419514474
 20
-457.6421776106145
 30
0.0
 10
706.1116419514474
 20
-457.6421776106145
 30
0.0
 10
706.1116419514474
 20
-457.6421776106145
 30
0.0
 10
707.8794089044131
 20
-455.8744106576478
 30
0.0
 10
707.8794089044131
 20
-455.8744106576478
 30
0.0
 10
708.851680728545
 20
-454.9021388335159
 30
0.0
 10
710.4426709862146
 20
-454.9021388335168
 30
0.0
 10
711.4149428103465
 20
-455.8744106576478
 30
0.0
 10
712.3872146344784
 20
-456.8466824817797
 30
0.0
 10
712.3872146344784
 20
-458.4376727394492
 30
0.0
 10
711.4149428103465
 20
-459.4099445635802
 30
0.0
  0
SPLINE
  5
CF
330
1F
100
AcDbEntity
  8
Layer 1
370
     0
100
AcDbSpline
210
0.0
220
0.0
230
1.0
 70
    11
 71
     3
 72
    59
 73
    55
 74
     0
 42
0.0000000001
 43
0.0000000001
 12
1.0
 22
0.0
 32
0.0
 13
1.0
 23
0.0
 33
0.0
 40
0.0
 40
0.0
 40
0.0
 40
0.0
 40
1.0
 40
1.0
 40
1.0
 40
2.0
 40
2.0
 40
2.0
 40
3.0
 40
3.0
 40
3.0
 40
4.0
 40
4.0
 40
4.0
 40
5.0
 40
5.0
 40
5.0
 40
6.0
 40
6.0
 40
6.0
 40
7.0
 40
7.0
 40
7.0
 40
8.0
 40
8.0
 40
8.0
 40
9.0
 40
9.0
 40
9.0
 40
10.0
 40
10.0
 40
10.0
 40
11.0
 40
11.0
 40
11.0
 40
12.0
 40
12.0
 40
12.0
 40
13.0
 40
13.0
 40
13.0
 40
14.0
 40
14.0
 40
14.0
 40
15.0
 40
15.0
 40
15.0
 40
16.0
 40
16.0
 40
16.0
 40
17.0
 40
17.0
 40
17.0
 40
18.0
 40
18.0
 40
18.0
 40
18.0
 10
710.6131897174455
 20
-437.8755996754198
 30
0.0
 10
710.6131897174455
 20
-437.8755996754198
 30
0.0
 10
708.8453796061058
 20
-439.6434097867605
 30
0.0
 10
708.8453796061058
 20
-439.6434097867605
 30
0.0
 10
708.8453796061058
 20
-439.6434097867605
 30
0.0
 10
710.6131465590715
 20
-441.4111767397253
 30
0.0
 10
710.6131465590715
 20
-441.4111767397253
 30
0.0
 10
711.5854183832034
 20
-442.3834485638572
 30
0.0
 10
711.5854615415756
 20
-443.9743956631537
 30
0.0
 10
710.6131897174455
 20
-444.9466674872856
 30
0.0
 10
710.6131897174455
 20
-444.9466674872856
 30
0.0
 10
710.6131465590715
 20
-444.9467106456586
 30
0.0
 10
710.6131465590715
 20
-444.9467106456586
 30
0.0
 10
709.6408747349396
 20
-445.9189824697896
 30
0.0
 10
708.0498844772701
 20
-445.9189824697896
 30
0.0
 10
707.0776126531382
 20
-444.9467106456586
 30
0.0
 10
707.0776126531382
 20
-444.9467106456586
 30
0.0
 10
705.3098457001724
 20
-443.178943692692
 30
0.0
 10
705.3098457001724
 20
-443.178943692692
 30
0.0
 10
705.3098457001724
 20
-443.178943692692
 30
0.0
 10
703.5420787472067
 20
-444.9467106456586
 30
0.0
 10
703.5420787472067
 20
-444.9467106456586
 30
0.0
 10
702.5698069230748
 20
-445.9189824697896
 30
0.0
 10
700.9788166654052
 20
-445.9189824697896
 30
0.0
 10
700.0065448412734
 20
-444.9467106456586
 30
0.0
 10
699.0342730171415
 20
-443.9744388215267
 30
0.0
 10
699.0342730171415
 20
-442.3834485638572
 30
0.0
 10
700.0065448412734
 20
-441.4111767397262
 30
0.0
 10
700.0065448412734
 20
-441.4111767397262
 30
0.0
 10
701.7743117942409
 20
-439.6434097867605
 30
0.0
 10
701.7743117942409
 20
-439.6434097867605
 30
0.0
 10
701.7743117942409
 20
-439.6434097867605
 30
0.0
 10
700.0065448412734
 20
-437.8756428337929
 30
0.0
 10
700.0065448412734
 20
-437.8756428337929
 30
0.0
 10
699.0342730171415
 20
-436.9033710096619
 30
0.0
 10
699.0342730171415
 20
-435.3123807519914
 30
0.0
 10
700.0065448412734
 20
-434.3401089278595
 30
0.0
 10
700.0065448412734
 20
-434.3401089278595
 30
0.0
 10
700.0065879996473
 20
-434.3400657694874
 30
0.0
 10
700.0065879996473
 20
-434.3400657694874
 30
0.0
 10
700.9788598237774
 20
-433.3677939453564
 30
0.0
 10
702.5698069230748
 20
-433.3678371037295
 30
0.0
 10
703.5420787472067
 20
-434.3401089278595
 30
0.0
 10
703.5420787472067
 20
-434.3401089278595
 30
0.0
 10
705.3098457001724
 20
-436.1078758808262
 30
0.0
 10
705.3098457001724
 20
-436.1078758808262
 30
0.0
 10
705.3098457001724
 20
-436.1078758808262
 30
0.0
 10
707.0776558115122
 20
-434.3400657694874
 30
0.0
 10
707.0776558115122
 20
-434.3400657694874
 30
0.0
 10
708.049927635644
 20
-433.3677939453564
 30
0.0
 10
709.6408747349396
 20
-433.3678371037295
 30
0.0
 10
710.6131465590715
 20
-434.3401089278595
 30
0.0
 10
711.5854183832034
 20
-435.3123807519914
 30
0.0
 10
711.5854615415756
 20
-436.9033278512889
 30
0.0
 10
710.6131897174455
 20
-437.8755996754198
 30
0.0
  0
HATCH
  5
D0
330
1F
100
AcDbEntity
  8
Layer 1
 62
     7
420
 16777215
100
AcDbHatch
 10
0.0
 20
0.0
 30
0.0
210
0.0
220
0.0
230
1.0
  2
SOLID
 70
     1
 71
     0
 91
       11
 92
        1
 93
        6
 72
     1
 10
550.0342633445835
 20
-325.4542531413335
 11
716.2043569234211
 21
-491.624346720173
 72
     1
 10
716.2043569234211
 20
-491.624346720173
 11
739.5388807025774
 21
-468.2898229410166
 72
     1
 10
739.5388807025774
 20
-468.2898229410166
 11
734.5891332342708
 21
-463.3400754727109
 72
     1
 10
734.5891332342708
 20
-463.3400754727109
 11
739.5388807025774
 21
-458.3903280044051
 72
     1
 10
739.5388807025774
 20
-458.3903280044051
 11
578.3185345920447
 21
-297.1699818938723
 72
     1
 10
578.3185345920447
 20
-297.1699818938723
 11
550.0342633445835
 21
-325.4542531413335
 97
        0
 92
        1
 93
        1
 72
     4
 94
        3
 73
     0
 74
     1
 95
       53
 96
       49
 40
0.0
 40
0.0
 40
0.0
 40
0.0
 40
1.0
 40
1.0
 40
1.0
 40
2.0
 40
2.0
 40
2.0
 40
3.0
 40
3.0
 40
3.0
 40
4.0
 40
4.0
 40
4.0
 40
5.0
 40
5.0
 40
5.0
 40
6.0
 40
6.0
 40
6.0
 40
7.0
 40
7.0
 40
7.0
 40
8.0
 40
8.0
 40
8.0
 40
9.0
 40
9.0
 40
9.0
 40
10.0
 40
10.0
 40
10.0
 40
11.0
 40
11.0
 40
11.0
 40
12.0
 40
12.0
 40
12.0
 40
13.0
 40
13.0
 40
13.0
 40
14.0
 40
14.0
 40
14.0
 40
15.0
 40
15.0
 40
15.0
 40
16.0
 40
16.0
 40
16.0
 40
16.0
 10
577.0075990159621
 20
-325.5575311276243
 10
577.0075990159621
 20
-325.5575311276243
 10
578.7753659689279
 20
-323.7897641746576
 10
578.7753659689279
 20
-323.7897641746576
 10
578.7753659689279
 20
-323.7897641746576
 10
577.0075990159621
 20
-322.0219972216919
 10
577.0075990159621
 20
-322.0219972216919
 10
576.0353271918302
 20
-321.04972539756
 10
576.0353271918302
 20
-319.4587351398895
 10
577.0075990159621
 20
-318.4864633157595
 10
577.9798708400922
 20
-317.5141914916276
 10
579.5708610977636
 20
-317.5141914916276
 10
580.5431329218936
 20
-318.4864633157595
 10
580.5431329218936
 20
-318.4864633157595
 10
582.3108998748612
 20
-320.2542302687252
 10
582.3108998748612
 20
-320.2542302687252
 10
582.3108998748612
 20
-320.2542302687252
 10
584.078666827827
 20
-318.4864633157595
 10
584.078666827827
 20
-318.4864633157595
 10
585.0509386519589
 20
-317.5141914916276
 10
586.6419289096284
 20
-317.5141914916276
 10
587.6142007337603
 20
-318.4864633157595
 10
588.5864725578904
 20
-319.4587351398895
 10
588.5864725578904
 20
-321.04972539756
 10
587.6142007337603
 20
-322.0219972216919
 10
587.6142007337603
 20
-322.0219972216919
 10
585.8464337807927
 20
-323.7897641746576
 10
585.8464337807927
 20
-323.7897641746576
 10
585.8464337807927
 20
-323.7897641746576
 10
587.6142007337603
 20
-325.5575311276243
 10
587.6142007337603
 20
-325.5575311276243
 10
588.5864725578904
 20
-326.5298029517562
 10
588.5864725578904
 20
-328.1207932094258
 10
587.6142007337603
 20
-329.0930650335567
 10
586.6419289096284
 20
-330.0653368576886
 10
585.0509386519589
 20
-330.0653368576886
 10
584.078666827827
 20
-329.0930650335567
 10
584.078666827827
 20
-329.0930650335567
 10
582.3108998748612
 20
-327.325298080591
 10
582.3108998748612
 20
-327.325298080591
 10
582.3108998748612
 20
-327.325298080591
 10
580.5431329218936
 20
-329.0930650335567
 10
580.5431329218936
 20
-329.0930650335567
 10
579.5708610977636
 20
-330.0653368576886
 10
577.9798708400922
 20
-330.0653368576886
 10
577.0075990159621
 20
-329.0930650335567
 10
576.0353271918302
 20
-328.1207932094258
 10
576.0353271918302
 20
-326.5298029517562
 10
577.0075990159621
 20
-325.5575311276243
 97
        0
 97
        0
 92
        1
 93
        1
 72
     4
 94
        3
 73
     0
 74
     1
 95
       53
 96
       49
 40
0.0
 40
0.0
 40
0.0
 40
0.0
 40
1.0
 40
1.0
 40
1.0
 40
2.0
 40
2.0
 40
2.0
 40
3.0
 40
3.0
 40
3.0
 40
4.0
 40
4.0
 40
4.0
 40
5.0
 40
5.0
 40
5.0
 40
6.0
 40
6.0
 40
6.0
 40
7.0
 40
7.0
 40
7.0
 40
8.0
 40
8.0
 40
8.0
 40
9.0
 40
9.0
 40
9.0
 40
10.0
 40
10.0
 40
10.0
 40
11.0
 40
11.0
 40
11.0
 40
12.0
 40
12.0
 40
12.0
 40
13.0
 40
13.0
 40
13.0
 40
14.0
 40
14.0
 40
14.0
 40
15.0
 40
15.0
 40
15.0
 40
16.0
 40
16.0
 40
16.0
 40
16.0
 10
682.4791527659618
 20
-431.8883680815688
 10
681.5068809418299
 20
-432.8606399056998
 10
679.9158906841603
 20
-432.8606399056998
 10
678.9436188600284
 20
-431.8883680815688
 10
677.9713470358965
 20
-430.9160962574369
 10
677.9713470358965
 20
-429.3251059997674
 10
678.9436188600284
 20
-428.3528341756364
 10
678.9436188600284
 20
-428.3528341756364
 10
680.7113858129942
 20
-426.5850672226697
 10
680.7113858129942
 20
-426.5850672226697
 10
680.7113858129942
 20
-426.5850672226697
 10
678.9436188600284
 20
-424.8173002697031
 10
678.9436188600284
 20
-424.8173002697031
 10
677.9713470358965
 20
-423.8450284455712
 10
677.9713470358965
 20
-422.2540381879016
 10
678.9436188600284
 20
-421.2817663637707
 10
679.9158906841603
 20
-420.3094945396388
 10
681.5068809418299
 20
-420.3094945396388
 10
682.4791527659618
 20
-421.2817663637707
 10
682.4791527659618
 20
-421.2817663637707
 10
684.2469197189275
 20
-423.0495333167364
 10
684.2469197189275
 20
-423.0495333167364
 10
684.2469197189275
 20
-423.0495333167364
 10
686.0146866718933
 20
-421.2817663637697
 10
686.0146866718933
 20
-421.2817663637697
 10
686.9869584960252
 20
-420.3094945396388
 10
688.5779487536947
 20
-420.3094945396388
 10
689.5502205778266
 20
-421.2817663637707
 10
690.5224924019585
 20
-422.2540381879016
 10
690.5224924019585
 20
-423.8450284455712
 10
689.5502205778266
 20
-424.8173002697031
 10
689.5502205778266
 20
-424.8173002697031
 10
687.7824536248609
 20
-426.5850672226697
 10
687.7824536248609
 20
-426.5850672226697
 10
687.7824536248609
 20
-426.5850672226697
 10
689.5502205778266
 20
-428.3528341756364
 10
689.5502205778266
 20
-428.3528341756364
 10
690.5224924019585
 20
-429.3251059997674
 10
690.5224924019585
 20
-430.9160962574369
 10
689.5502205778266
 20
-431.8883680815688
 10
688.5779487536947
 20
-432.8606399056998
 10
686.9869584960252
 20
-432.8606399056998
 10
686.0146866718933
 20
-431.8883680815688
 10
686.0146866718933
 20
-431.8883680815688
 10
684.2469197189275
 20
-430.1206011286022
 10
684.2469197189275
 20
-430.1206011286022
 10
684.2469197189275
 20
-430.1206011286022
 10
682.4791527659618
 20
-431.8883680815688
 10
682.4791527659618
 20
-431.8883680815688
 97
        0
 97
        0
 92
        1
 93
        1
 72
     4
 94
        3
 73
     0
 74
     1
 95
       23
 96
       19
 40
0.0
 40
0.0
 40
0.0
 40
0.0
 40
1.0
 40
1.0
 40
1.0
 40
2.0
 40
2.0
 40
2.0
 40
3.0
 40
3.0
 40
3.0
 40
4.0
 40
4.0
 40
4.0
 40
5.0
 40
5.0
 40
5.0
 40
6.0
 40
6.0
 40
6.0
 40
6.0
 10
663.4694000575055
 20
-410.0501882483668
 10
663.4694000575055
 20
-410.0501882483668
 10
621.7500568091273
 20
-368.3308449999877
 10
621.7500568091273
 20
-368.3308449999877
 10
621.1667282413455
 20
-367.7475164322068
 10
621.1667713997194
 20
-366.7928963825816
 10
621.7500999674994
 20
-366.2095678148007
 10
622.3334716936533
 20
-365.6261960886477
 10
623.2880485849055
 20
-365.6261960886477
 10
623.8713771526855
 20
-366.2095246564277
 10
623.8713771526855
 20
-366.2095246564277
 10
665.5907204010655
 20
-407.9288679048068
 10
665.5907204010655
 20
-407.9288679048068
 10
666.1740489688455
 20
-408.5121964725877
 10
666.1740921272194
 20
-409.4668165222138
 10
665.5907204010655
 20
-410.0501882483668
 10
665.0073918332855
 20
-410.6335168161477
 10
664.0527286252873
 20
-410.6335168161477
 10
663.4694000575055
 20
-410.0501882483668
 97
        0
 97
        0
 92
        1
 93
        1
 72
     4
 94
        3
 73
     0
 74
     1
 95
       29
 96
       25
 40
0.0
 40
0.0
 40
0.0
 40
0.0
 40
1.0
 40
1.0
 40
1.0
 40
2.0
 40
2.0
 40
2.0
 40
3.0
 40
3.0
 40
3.0
 40
4.0
 40
4.0
 40
4.0
 40
5.0
 40
5.0
 40
5.0
 40
6.0
 40
6.0
 40
6.0
 40
7.0
 40
7.0
 40
7.0
 40
8.0
 40
8.0
 40
8.0
 40
8.0
 10
672.6027907172102
 20
-409.0576751473573
 10
672.6027907172102
 20
-409.0576751473573
 10
596.9423651302495
 20
-333.3972495603966
 10
596.9423651302495
 20
-333.3972495603966
 10
596.3589934040974
 20
-332.8138778342427
 10
596.3590365624696
 20
-331.8592577846184
 10
596.9423651302495
 20
-331.2759292168366
 10
596.9423651302495
 20
-331.2759292168366
 10
596.9424082886235
 20
-331.2758860584636
 10
596.9424082886235
 20
-331.2758860584636
 10
597.5257368564035
 20
-330.6925574906836
 10
598.4803137476556
 20
-330.6925574906836
 10
599.0636854738095
 20
-331.2759292168366
 10
599.0636854738095
 20
-331.2759292168366
 10
674.7241110607702
 20
-406.9363548037973
 10
674.7241110607702
 20
-406.9363548037973
 10
675.307439628552
 20
-407.5196833715781
 10
675.3074827869241
 20
-408.4743034212033
 10
674.7241542191441
 20
-409.0576319889842
 10
674.7241542191441
 20
-409.0576319889842
 10
674.7241110607702
 20
-409.0576751473573
 10
674.7241110607702
 20
-409.0576751473573
 10
674.1407824929902
 20
-409.6410037151372
 10
673.186119284992
 20
-409.6410037151372
 10
672.6027907172102
 20
-409.0576751473573
 97
        0
 97
        0
 92
        1
 93
        1
 72
     4
 94
        3
 73
     0
 74
     1
 95
       53
 96
       49
 40
0.0
 40
0.0
 40
0.0
 40
0.0
 40
1.0
 40
1.0
 40
1.0
 40
2.0
 40
2.0
 40
2.0
 40
3.0
 40
3.0
 40
3.0
 40
4.0
 40
4.0
 40
4.0
 40
5.0
 40
5.0
 40
5.0
 40
6.0
 40
6.0
 40
6.0
 40
7.0
 40
7.0
 40
7.0
 40
8.0
 40
8.0
 40
8.0
 40
9.0
 40
9.0
 40
9.0
 40
10.0
 40
10.0
 40
10.0
 40
11.0
 40
11.0
 40
11.0
 40
12.0
 40
12.0
 40
12.0
 40
13.0
 40
13.0
 40
13.0
 40
14.0
 40
14.0
 40
14.0
 40
15.0
 40
15.0
 40
15.0
 40
16.0
 40
16.0
 40
16.0
 40
16.0
 10
590.1590341903429
 20
-349.3155680198042
 10
590.1590341903429
 20
-349.3155680198042
 10
591.9268011433087
 20
-347.5478010668376
 10
591.9268011433087
 20
-347.5478010668376
 10
591.9268011433087
 20
-347.5478010668376
 10
590.1590341903429
 20
-345.7800341138718
 10
590.1590341903429
 20
-345.7800341138718
 10
589.186762366211
 20
-344.8077622897399
 10
589.186762366211
 20
-343.2167720320704
 10
590.1590341903429
 20
-342.2445002079394
 10
591.1313060144748
 20
-341.2722283838084
 10
592.7222962721444
 20
-341.2722283838084
 10
593.6945680962763
 20
-342.2445002079394
 10
593.6945680962763
 20
-342.2445002079394
 10
595.462335049242
 20
-344.0122671609051
 10
595.462335049242
 20
-344.0122671609051
 10
595.462335049242
 20
-344.0122671609051
 10
597.2301020022096
 20
-342.2445002079394
 10
597.2301020022096
 20
-342.2445002079394
 10
598.2023738263397
 20
-341.2722283838084
 10
599.7933640840092
 20
-341.2722283838084
 10
600.7656359081411
 20
-342.2445002079394
 10
601.737907732273
 20
-343.2167720320704
 10
601.737907732273
 20
-344.8077622897399
 10
600.7656359081411
 20
-345.7800341138718
 10
600.7656359081411
 20
-345.7800341138718
 10
598.9978689551754
 20
-347.5478010668376
 10
598.9978689551754
 20
-347.5478010668376
 10
598.9978689551754
 20
-347.5478010668376
 10
600.7656359081411
 20
-349.3155680198042
 10
600.7656359081411
 20
-349.3155680198042
 10
601.737907732273
 20
-350.2878398439361
 10
601.737907732273
 20
-351.8788301016057
 10
600.7656359081411
 20
-352.8511019257367
 10
599.7933640840092
 20
-353.8233737498686
 10
598.2023738263397
 20
-353.8233737498686
 10
597.2301020022096
 20
-352.8511019257367
 10
597.2301020022096
 20
-352.8511019257367
 10
595.462335049242
 20
-351.0833349727709
 10
595.462335049242
 20
-351.0833349727709
 10
595.462335049242
 20
-351.0833349727709
 10
593.6945680962763
 20
-352.8511019257367
 10
593.6945680962763
 20
-352.8511019257367
 10
592.7222962721444
 20
-353.8233737498686
 10
591.1313060144748
 20
-353.8233737498686
 10
590.1590341903429
 20
-352.8511019257367
 10
589.186762366211
 20
-351.8788301016057
 10
589.186762366211
 20
-350.2878398439361
 10
590.1590341903429
 20
-349.3155680198042
 97
        0
 97
        0
 92
        1
 93
        1
 72
     4
 94
        3
 73
     0
 74
     1
 95
       23
 96
       19
 40
0.0
 40
0.0
 40
0.0
 40
0.0
 40
1.0
 40
1.0
 40
1.0
 40
2.0
 40
2.0
 40
2.0
 40
3.0
 40
3.0
 40
3.0
 40
4.0
 40
4.0
 40
4.0
 40
5.0
 40
5.0
 40
5.0
 40
6.0
 40
6.0
 40
6.0
 40
6.0
 10
608.8091050192579
 20
-362.6252217891461
 10
608.8091050192579
 20
-362.6252217891461
 10
623.6583474241743
 20
-377.4744641940642
 10
623.6583474241743
 20
-377.4744641940642
 10
624.2417191503282
 20
-378.0578359202173
 10
624.2417191503282
 20
-379.0124128114703
 10
623.6583474241743
 20
-379.5957845376233
 10
623.0749756980204
 20
-380.1791562637773
 10
622.1203988067682
 20
-380.1791562637773
 10
621.5370270806143
 20
-379.5957845376233
 10
621.5370270806143
 20
-379.5957845376233
 10
606.6877846756979
 20
-364.7465421327061
 10
606.6877846756979
 20
-364.7465421327061
 10
606.104412949544
 20
-364.1631704065521
 10
606.104412949544
 20
-363.2085935153
 10
606.6877846756979
 20
-362.6252217891461
 10
607.27115640185
 20
-362.041850062993
 10
608.225733293104
 20
-362.041850062993
 10
608.8091050192579
 20
-362.6252217891461
 97
        0
 97
        0
 92
        1
 93
        1
 72
     4
 94
        3
 73
     0
 74
     1
 95
       53
 96
       49
 40
0.0
 40
0.0
 40
0.0
 40
0.0
 40
1.0
 40
1.0
 40
1.0
 40
2.0
 40
2.0
 40
2.0
 40
3.0
 40
3.0
 40
3.0
 40
4.0
 40
4.0
 40
4.0
 40
5.0
 40
5.0
 40
5.0
 40
6.0
 40
6.0
 40
6.0
 40
7.0
 40
7.0
 40
7.0
 40
8.0
 40
8.0
 40
8.0
 40
9.0
 40
9.0
 40
9.0
 40
10.0
 40
10.0
 40
10.0
 40
11.0
 40
11.0
 40
11.0
 40
12.0
 40
12.0
 40
12.0
 40
13.0
 40
13.0
 40
13.0
 40
14.0
 40
14.0
 40
14.0
 40
15.0
 40
15.0
 40
15.0
 40
16.0
 40
16.0
 40
16.0
 40
16.0
 10
625.4394934727316
 20
-397.0464410259638
 10
624.4672216486015
 20
-396.0741692018328
 10
624.4672216486015
 20
-394.4831789441623
 10
625.4394934727316
 20
-393.5109071200313
 10
625.4394934727316
 20
-393.5109071200313
 10
627.2072604256991
 20
-391.7431401670647
 10
627.2072604256991
 20
-391.7431401670647
 10
627.2072604256991
 20
-391.7431401670647
 10
625.4394934727316
 20
-389.975373214098
 10
625.4394934727316
 20
-389.975373214098
 10
624.4672216486015
 20
-389.003101389967
 10
624.4672216486015
 20
-387.4121111322966
 10
625.4394934727316
 20
-386.4398393081656
 10
626.4117652968635
 20
-385.4675674840346
 10
628.002755554533
 20
-385.4675674840346
 10
628.9750273786649
 20
-386.4398393081656
 10
628.9750273786649
 20
-386.4398393081656
 10
630.7427943316306
 20
-388.2076062611322
 10
630.7427943316306
 20
-388.2076062611322
 10
630.7427943316306
 20
-388.2076062611322
 10
632.5105612845982
 20
-386.4398393081656
 10
632.5105612845982
 20
-386.4398393081656
 10
633.4828331087301
 20
-385.4675674840346
 10
635.0738233663997
 20
-385.4675674840346
 10
636.0460951905297
 20
-386.4398393081656
 10
637.0183670146616
 20
-387.4121111322966
 10
637.0183670146616
 20
-389.003101389967
 10
636.0460951905297
 20
-389.975373214098
 10
636.0460951905297
 20
-389.975373214098
 10
634.278328237564
 20
-391.7431401670647
 10
634.278328237564
 20
-391.7431401670647
 10
634.278328237564
 20
-391.7431401670647
 10
636.0460951905297
 20
-393.5109071200313
 10
636.0460951905297
 20
-393.5109071200313
 10
637.0183670146616
 20
-394.4831789441623
 10
637.0183670146616
 20
-396.0741692018328
 10
636.0460951905297
 20
-397.0464410259638
 10
635.0738233663997
 20
-398.0187128500957
 10
633.4828331087301
 20
-398.0187128500957
 10
632.5105612845982
 20
-397.0464410259638
 10
632.5105612845982
 20
-397.0464410259638
 10
630.7427943316306
 20
-395.2786740729971
 10
630.7427943316306
 20
-395.2786740729971
 10
630.7427943316306
 20
-395.2786740729971
 10
628.9750273786649
 20
-397.0464410259638
 10
628.9750273786649
 20
-397.0464410259638
 10
628.002755554533
 20
-398.0187128500957
 10
626.4117652968635
 20
-398.0187128500957
 10
625.4394934727316
 20
-397.0464410259638
 97
        0
 97
        0
 92
        1
 93
        1
 72
     4
 94
        3
 73
     0
 74
     1
 95
       23
 96
       19
 40
0.0
 40
0.0
 40
0.0
 40
0.0
 40
1.0
 40
1.0
 40
1.0
 40
2.0
 40
2.0
 40
2.0
 40
3.0
 40
3.0
 40
3.0
 40
4.0
 40
4.0
 40
4.0
 40
5.0
 40
5.0
 40
5.0
 40
6.0
 40
6.0
 40
6.0
 40
6.0
 10
641.7304413235452
 20
-398.2107244510171
 10
641.7304413235452
 20
-398.2107244510171
 10
696.1776634749076
 20
-452.6579466023813
 10
696.1776634749076
 20
-452.6579466023813
 10
696.7609920426894
 20
-453.2412751701613
 10
696.7610352010615
 20
-454.1958952197874
 10
696.1776634749076
 20
-454.7792669459395
 10
695.5943349071276
 20
-455.3625955137213
 10
694.6396716991294
 20
-455.3625955137213
 10
694.0563431313494
 20
-454.7792669459395
 10
694.0563431313494
 20
-454.7792669459395
 10
639.6091209799852
 20
-400.3320447945771
 10
639.6091209799852
 20
-400.3320447945771
 10
639.0257492538312
 20
-399.7486730684232
 10
639.0257924122034
 20
-398.794053018798
 10
639.6091209799852
 20
-398.2107244510171
 10
640.1924927061373
 20
-397.6273527248632
 10
641.1470695973912
 20
-397.6273527248632
 10
641.7304413235452
 20
-398.2107244510171
 97
        0
 97
        0
 92
        1
 93
        1
 72
     4
 94
        3
 73
     0
 74
     1
 95
       53
 96
       49
 40
0.0
 40
0.0
 40
0.0
 40
0.0
 40
1.0
 40
1.0
 40
1.0
 40
2.0
 40
2.0
 40
2.0
 40
3.0
 40
3.0
 40
3.0
 40
4.0
 40
4.0
 40
4.0
 40
5.0
 40
5.0
 40
5.0
 40
6.0
 40
6.0
 40
6.0
 40
7.0
 40
7.0
 40
7.0
 40
8.0
 40
8.0
 40
8.0
 40
9.0
 40
9.0
 40
9.0
 40
10.0
 40
10.0
 40
10.0
 40
11.0
 40
11.0
 40
11.0
 40
12.0
 40
12.0
 40
12.0
 40
13.0
 40
13.0
 40
13.0
 40
14.0
 40
14.0
 40
14.0
 40
15.0
 40
15.0
 40
15.0
 40
16.0
 40
16.0
 40
16.0
 40
16.0
 10
711.4149428103465
 20
-459.4099445635802
 10
711.4149428103465
 20
-459.4099445635802
 10
709.6471758573807
 20
-461.1777115165469
 10
709.6471758573807
 20
-461.1777115165469
 10
709.6471758573807
 20
-461.1777115165469
 10
711.4149428103465
 20
-462.9454784695135
 10
711.4149428103465
 20
-462.9454784695135
 10
712.3872146344784
 20
-463.9177502936454
 10
712.3872146344784
 20
-465.508740551315
 10
711.4149428103465
 20
-466.481012375446
 10
710.4426709862146
 20
-467.4532841995779
 10
708.851680728545
 20
-467.4532841995779
 10
707.8794089044131
 20
-466.481012375446
 10
707.8794089044131
 20
-466.481012375446
 10
706.1116419514474
 20
-464.7132454224793
 10
706.1116419514474
 20
-464.7132454224793
 10
706.1116419514474
 20
-464.7132454224793
 10
704.3438749984816
 20
-466.481012375446
 10
704.3438749984816
 20
-466.481012375446
 10
703.3716031743497
 20
-467.4532841995779
 10
701.7806129166802
 20
-467.4532841995779
 10
700.8083410925483
 20
-466.481012375446
 10
699.8360692684164
 20
-465.508740551315
 10
699.8360692684164
 20
-463.9177502936454
 10
700.8083410925483
 20
-462.9454784695135
 10
700.8083410925483
 20
-462.9454784695135
 10
702.576108045514
 20
-461.1777115165469
 10
702.576108045514
 20
-461.1777115165469
 10
702.576108045514
 20
-461.1777115165469
 10
700.8083410925483
 20
-459.4099445635802
 10
700.8083410925483
 20
-459.4099445635802
 10
699.8360692684164
 20
-458.4376727394492
 10
699.8360692684164
 20
-456.8466824817797
 10
700.8083410925483
 20
-455.8744106576478
 10
701.7806129166802
 20
-454.9021388335168
 10
703.3716031743497
 20
-454.9021388335159
 10
704.3438749984816
 20
-455.8744106576478
 10
704.3438749984816
 20
-455.8744106576478
 10
706.1116419514474
 20
-457.6421776106145
 10
706.1116419514474
 20
-457.6421776106145
 10
706.1116419514474
 20
-457.6421776106145
 10
707.8794089044131
 20
-455.8744106576478
 10
707.8794089044131
 20
-455.8744106576478
 10
708.851680728545
 20
-454.9021388335159
 10
710.4426709862146
 20
-454.9021388335168
 10
711.4149428103465
 20
-455.8744106576478
 10
712.3872146344784
 20
-456.8466824817797
 10
712.3872146344784
 20
-458.4376727394492
 10
711.4149428103465
 20
-459.4099445635802
 97
        0
 97
        0
 92
        1
 93
        1
 72
     4
 94
        3
 73
     0
 74
     1
 95
       59
 96
       55
 40
0.0
 40
0.0
 40
0.0
 40
0.0
 40
1.0
 40
1.0
 40
1.0
 40
2.0
 40
2.0
 40
2.0
 40
3.0
 40
3.0
 40
3.0
 40
4.0
 40
4.0
 40
4.0
 40
5.0
 40
5.0
 40
5.0
 40
6.0
 40
6.0
 40
6.0
 40
7.0
 40
7.0
 40
7.0
 40
8.0
 40
8.0
 40
8.0
 40
9.0
 40
9.0
 40
9.0
 40
10.0
 40
10.0
 40
10.0
 40
11.0
 40
11.0
 40
11.0
 40
12.0
 40
12.0
 40
12.0
 40
13.0
 40
13.0
 40
13.0
 40
14.0
 40
14.0
 40
14.0
 40
15.0
 40
15.0
 40
15.0
 40
16.0
 40
16.0
 40
16.0
 40
17.0
 40
17.0
 40
17.0
 40
18.0
 40
18.0
 40
18.0
 40
18.0
 10
710.6131897174455
 20
-437.8755996754198
 10
710.6131897174455
 20
-437.8755996754198
 10
708.8453796061058
 20
-439.6434097867605
 10
708.8453796061058
 20
-439.6434097867605
 10
708.8453796061058
 20
-439.6434097867605
 10
710.6131465590715
 20
-441.4111767397253
 10
710.6131465590715
 20
-441.4111767397253
 10
711.5854183832034
 20
-442.3834485638572
 10
711.5854615415756
 20
-443.9743956631537
 10
710.6131897174455
 20
-444.9466674872856
 10
710.6131897174455
 20
-444.9466674872856
 10
710.6131465590715
 20
-444.9467106456586
 10
710.6131465590715
 20
-444.9467106456586
 10
709.6408747349396
 20
-445.9189824697896
 10
708.0498844772701
 20
-445.9189824697896
 10
707.0776126531382
 20
-444.9467106456586
 10
707.0776126531382
 20
-444.9467106456586
 10
705.3098457001724
 20
-443.178943692692
 10
705.3098457001724
 20
-443.178943692692
 10
705.3098457001724
 20
-443.178943692692
 10
703.5420787472067
 20
-444.9467106456586
 10
703.5420787472067
 20
-444.9467106456586
 10
702.5698069230748
 20
-445.9189824697896
 10
700.9788166654052
 20
-445.9189824697896
 10
700.0065448412734
 20
-444.9467106456586
 10
699.0342730171415
 20
-443.9744388215267
 10
699.0342730171415
 20
-442.3834485638572
 10
700.0065448412734
 20
-441.4111767397262
 10
700.0065448412734
 20
-441.4111767397262
 10
701.7743117942409
 20
-439.6434097867605
 10
701.7743117942409
 20
-439.6434097867605
 10
701.7743117942409
 20
-439.6434097867605
 10
700.0065448412734
 20
-437.8756428337929
 10
700.0065448412734
 20
-437.8756428337929
 10
699.0342730171415
 20
-436.9033710096619
 10
699.0342730171415
 20
-435.3123807519914
 10
700.0065448412734
 20
-434.3401089278595
 10
700.0065448412734
 20
-434.3401089278595
 10
700.0065879996473
 20
-434.3400657694874
 10
700.0065879996473
 20
-434.3400657694874
 10
700.9788598237774
 20
-433.3677939453564
 10
702.5698069230748
 20
-433.3678371037295
 10
703.5420787472067
 20
-434.3401089278595
 10
703.5420787472067
 20
-434.3401089278595
 10
705.3098457001724
 20
-436.1078758808262
 10
705.3098457001724
 20
-436.1078758808262
 10
705.3098457001724
 20
-436.1078758808262
 10
707.0776558115122
 20
-434.3400657694874
 10
707.0776558115122
 20
-434.3400657694874
 10
708.049927635644
 20
-433.3677939453564
 10
709.6408747349396
 20
-433.3678371037295
 10
710.6131465590715
 20
-434.3401089278595
 10
711.5854183832034
 20
-435.3123807519914
 10
711.5854615415756
 20
-436.9033278512889
 10
710.6131897174455
 20
-437.8755996754198
 97
        0
 97
        0
 75
     2
 76
     1
 98
        0
  0
ENDSEC
  0
SECTION
  2
OBJECTS
  0
DICTIONARY
  5
C
330
0
100
AcDbDictionary
281
     1
  3
ACAD_GROUP
350
D
  3
ACAD_LAYOUT
350
1A
  3
ACAD_MATERIAL
350
3B
  3
ACAD_MLEADERSTYLE
350
D2
  3
ACAD_MLINESTYLE
350
17
  3
ACAD_PLOTSETTINGS
350
19
  3
ACAD_PLOTSTYLENAME
350
E
  3
ACAD_TABLESTYLE
350
D1
  3
ACAD_VISUALSTYLE
350
2A
  0
SUN
  5
3F
330
29
100
AcDbSun
 90
        1
290
     0
 63
     7
421
 16777215
 40
1.0
291
     1
 91
  2455826
 92
 54000000
292
     0
 70
     2
 71
   256
280
     1
  0
DICTIONARY
  5
D
102
{ACAD_REACTORS
330
C
102
}
330
C
100
AcDbDictionary
281
     1
  0
DICTIONARY
  5
1A
102
{ACAD_REACTORS
330
C
102
}
330
C
100
AcDbDictionary
281
     1
  3
Layout1
350
1E
  3
Layout2
350
26
  3
Model
350
22
  0
DICTIONARY
  5
3B
102
{ACAD_REACTORS
330
C
102
}
330
C
100
AcDbDictionary
281
     1
  3
ByBlock
350
3D
  3
ByLayer
350
3C
  3
Global
350
3E
  0
DICTIONARY
  5
D2
102
{ACAD_REACTORS
330
C
102
}
330
C
100
AcDbDictionary
281
     1
  0
DICTIONARY
  5
17
102
{ACAD_REACTORS
330
C
102
}
330
C
100
AcDbDictionary
281
     1
  3
Standard
350
18
  0
DICTIONARY
  5
19
102
{ACAD_REACTORS
330
C
102
}
330
C
100
AcDbDictionary
281
     1
  0
ACDBDICTIONARYWDFLT
  5
E
102
{ACAD_REACTORS
330
C
102
}
330
C
100
AcDbDictionary
281
     1
  3
Normal
350
F
100
AcDbDictionaryWithDefault
340
F
  0
DICTIONARY
  5
D1
102
{ACAD_REACTORS
330
C
102
}
330
C
100
AcDbDictionary
281
     1
  0
DICTIONARY
  5
2A
102
{ACAD_REACTORS
330
C
102
}
330
C
100
AcDbDictionary
281
     1
  3
2dWireframe
350
2F
  3
3D Hidden
350
31
  3
3dWireframe
350
30
  3
Basic
350
32
  3
Brighten
350
36
  3
ColorChange
350
3A
  3
Conceptual
350
34
  3
Dim
350
35
  3
Facepattern
350
39
  3
Flat
350
2B
  3
FlatWithEdges
350
2C
  3
Gouraud
350
2D
  3
GouraudWithEdges
350
2E
  3
Linepattern
350
38
  3
Realistic
350
33
  3
Thicken
350
37
  0
LAYOUT
  5
1E
102
{ACAD_REACTORS
330
1A
102
}
330
1A
100
AcDbPlotSettings
  1

  2
none_device
  4

  6

 40
0.0
 41
0.0
 42
0.0
 43
0.0
 44
0.0
 45
0.0
 46
0.0
 47
0.0
 48
0.0
 49
0.0
140
0.0
141
0.0
142
1.0
143
1.0
 70
   688
 72
     0
 73
     0
 74
     5
  7

 75
    16
 76
     0
 77
     2
 78
   300
147
1.0
148
0.0
149
0.0
100
AcDbLayout
  1
Layout1
 70
     1
 71
     1
 10
0.0
 20
0.0
 11
12.0
 21
9.0
 12
0.0
 22
0.0
 32
0.0
 14
1.000000000000000E+20
 24
1.000000000000000E+20
 34
1.000000000000000E+20
 15
-1.000000000000000E+20
 25
-1.000000000000000E+20
 35
-1.000000000000000E+20
146
0.0
 13
0.0
 23
0.0
 33
0.0
 16
1.0
 26
0.0
 36
0.0
 17
0.0
 27
1.0
 37
0.0
 76
     0
330
1B
  0
LAYOUT
  5
26
102
{ACAD_REACTORS
330
1A
102
}
330
1A
100
AcDbPlotSettings
  1

  2
none_device
  4

  6

 40
0.0
 41
0.0
 42
0.0
 43
0.0
 44
0.0
 45
0.0
 46
0.0
 47
0.0
 48
0.0
 49
0.0
140
0.0
141
0.0
142
1.0
143
1.0
 70
   688
 72
     0
 73
     0
 74
     5
  7

 75
    16
 76
     0
 77
     2
 78
   300
147
1.0
148
0.0
149
0.0
100
AcDbLayout
  1
Layout2
 70
     1
 71
     2
 10
0.0
 20
0.0
 11
0.0
 21
0.0
 12
0.0
 22
0.0
 32
0.0
 14
0.0
 24
0.0
 34
0.0
 15
0.0
 25
0.0
 35
0.0
146
0.0
 13
0.0
 23
0.0
 33
0.0
 16
1.0
 26
0.0
 36
0.0
 17
0.0
 27
1.0
 37
0.0
 76
     0
330
23
  0
LAYOUT
  5
22
102
{ACAD_REACTORS
330
1A
102
}
330
1A
100
AcDbPlotSettings
  1

  2
none_device
  4

  6

 40
0.0
 41
0.0
 42
0.0
 43
0.0
 44
0.0
 45
0.0
 46
0.0
 47
0.0
 48
0.0
 49
0.0
140
0.0
141
0.0
142
1.0
143
1.0
 70
  1712
 72
     0
 73
     0
 74
     0
  7

 75
     0
 76
     0
 77
     2
 78
   300
147
1.0
148
0.0
149
0.0
100
AcDbLayout
  1
Model
 70
     1
 71
     0
 10
0.0
 20
0.0
 11
12.0
 21
9.0
 12
0.0
 22
0.0
 32
0.0
 14
1.000000000000000E+20
 24
1.000000000000000E+20
 34
1.000000000000000E+20
 15
-1.000000000000000E+20
 25
-1.000000000000000E+20
 35
-1.000000000000000E+20
146
0.0
 13
0.0
 23
0.0
 33
0.0
 16
1.0
 26
0.0
 36
0.0
 17
0.0
 27
1.0
 37
0.0
 76
     0
330
1F
331
29
  0
MATERIAL
  5
3D
102
{ACAD_REACTORS
330
3B
102
}
330
3B
100
AcDbMaterial
  1
ByBlock
 72
     1
 94
      127
  0
MATERIAL
  5
3C
102
{ACAD_REACTORS
330
3B
102
}
330
3B
100
AcDbMaterial
  1
ByLayer
 72
     1
 94
      127
  0
MATERIAL
  5
3E
102
{ACAD_REACTORS
330
3B
102
}
330
3B
100
AcDbMaterial
  1
Global
 72
     1
 94
      127
  0
MLINESTYLE
  5
18
102
{ACAD_REACTORS
330
17
102
}
330
17
100
AcDbMlineStyle
  2
Standard
 70
     0
  3

 62
   256
 51
90.0
 52
90.0
 71
     2
 49
0.5
 62
   256
  6
BYLAYER
 49
-0.5
 62
   256
  6
BYLAYER
  0
ACDBPLACEHOLDER
  5
F
102
{ACAD_REACTORS
330
E
102
}
330
E
  0
VISUALSTYLE
  5
2F
102
{ACAD_REACTORS
330
2A
102
}
330
2A
100
AcDbVisualStyle
  2
2dWireframe
 70
     4
177
     2
291
     0
 71
     0
176
     1
 72
     2
176
     1
 73
     0
176
     1
 90
        0
176
     1
 40
-0.6
176
     1
 41
-30.0
176
     1
 62
     5
 63
     7
421
 16777215
176
     1
 74
     1
176
     1
 91
        4
176
     1
 64
     7
176
     1
 65
   257
176
     1
 75
     1
176
     1
175
     1
176
     1
 42
1.0
176
     1
 92
        0
176
     1
 66
   257
176
     1
 43
1.0
176
     1
 76
     1
176
     1
 77
     6
176
     1
 78
     2
176
     1
 67
     7
176
     1
 79
     5
176
     1
170
     0
176
     1
171
     0
176
     1
290
     0
176
     1
 93
        1
176
     1
 44
0.0
176
     1
173
     0
176
     1
  0
VISUALSTYLE
  5
31
102
{ACAD_REACTORS
330
2A
102
}
330
2A
100
AcDbVisualStyle
  2
3D Hidden
 70
     6
177
     2
291
     0
 71
     1
176
     1
 72
     2
176
     1
 73
     2
176
     1
 90
        0
176
     1
 40
-0.6
176
     1
 41
-30.0
176
     1
 62
     5
 63
     7
421
 16777215
176
     1
 74
     2
176
     1
 91
        2
176
     1
 64
     7
176
     1
 65
   257
176
     1
 75
     2
176
     1
175
     1
176
     1
 42
40.0
176
     1
 92
        0
176
     1
 66
   257
176
     1
 43
1.0
176
     1
 76
     1
176
     1
 77
     6
176
     1
 78
     2
176
     1
 67
     7
176
     1
 79
     3
176
     1
170
     0
176
     1
171
     0
176
     1
290
     0
176
     1
 93
        1
176
     1
 44
0.0
176
     1
173
     0
176
     1
  0
VISUALSTYLE
  5
30
102
{ACAD_REACTORS
330
2A
102
}
330
2A
100
AcDbVisualStyle
  2
3dWireframe
 70
     5
177
     2
291
     0
 71
     0
176
     1
 72
     2
176
     1
 73
     0
176
     1
 90
        0
176
     1
 40
-0.6
176
     1
 41
-30.0
176
     1
 62
     5
 63
     7
421
 16777215
176
     1
 74
     1
176
     1
 91
        4
176
     1
 64
     7
176
     1
 65
   257
176
     1
 75
     1
176
     1
175
     1
176
     1
 42
1.0
176
     1
 92
        0
176
     1
 66
   257
176
     1
 43
1.0
176
     1
 76
     1
176
     1
 77
     6
176
     1
 78
     2
176
     1
 67
     7
176
     1
 79
     5
176
     1
170
     0
176
     1
171
     0
176
     1
290
     0
176
     1
 93
        1
176
     1
 44
0.0
176
     1
173
     0
176
     1
  0
VISUALSTYLE
  5
32
102
{ACAD_REACTORS
330
2A
102
}
330
2A
100
AcDbVisualStyle
  2
Basic
 70
     7
177
     2
291
     1
 71
     1
176
     1
 72
     0
176
     1
 73
     1
176
     1
 90
        0
176
     1
 40
-0.6
176
     1
 41
-30.0
176
     1
 62
     5
 63
     7
421
 16777215
176
     1
 74
     0
176
     1
 91
        4
176
     1
 64
     7
176
     1
 65
   257
176
     1
 75
     1
176
     1
175
     1
176
     1
 42
1.0
176
     1
 92
        8
176
     1
 66
     7
176
     1
 43
1.0
176
     1
 76
     1
176
     1
 77
     6
176
     1
 78
     2
176
     1
 67
     7
176
     1
 79
     5
176
     1
170
     0
176
     1
171
     0
176
     1
290
     0
176
     1
 93
        1
176
     1
 44
0.0
176
     1
173
     0
176
     1
  0
VISUALSTYLE
  5
36
102
{ACAD_REACTORS
330
2A
102
}
330
2A
100
AcDbVisualStyle
  2
Brighten
 70
    12
177
     2
291
     1
 71
     2
176
     1
 72
     2
176
     1
 73
     0
176
     1
 90
        0
176
     1
 40
-0.6
176
     1
 41
-30.0
176
     1
 62
     5
 63
     7
421
 16777215
176
     1
 74
     1
176
     1
 91
        4
176
     1
 64
     7
176
     1
 65
   257
176
     1
 75
     1
176
     1
175
     1
176
     1
 42
1.0
176
     1
 92
        8
176
     1
 66
     7
176
     1
 43
1.0
176
     1
 76
     1
176
     1
 77
     6
176
     1
 78
     2
176
     1
 67
     7
176
     1
 79
     5
176
     1
170
     0
176
     1
171
     0
176
     1
290
     0
176
     1
 93
        1
176
     1
 44
50.0
176
     1
173
     0
176
     1
  0
VISUALSTYLE
  5
3A
102
{ACAD_REACTORS
330
2A
102
}
330
2A
100
AcDbVisualStyle
  2
ColorChange
 70
    16
177
     2
291
     1
 71
     2
176
     1
 72
     2
176
     1
 73
     3
176
     1
 90
        0
176
     1
 40
-0.6
176
     1
 41
-30.0
176
     1
 62
     5
 63
     8
421
  8421504
176
     1
 74
     1
176
     1
 91
        4
176
     1
 64
     7
176
     1
 65
   257
176
     1
 75
     1
176
     1
175
     1
176
     1
 42
1.0
176
     1
 92
        8
176
     1
 66
     8
424
  8421504
176
     1
 43
1.0
176
     1
 76
     1
176
     1
 77
     6
176
     1
 78
     2
176
     1
 67
     7
176
     1
 79
     5
176
     1
170
     0
176
     1
171
     0
176
     1
290
     0
176
     1
 93
        1
176
     1
 44
0.0
176
     1
173
     0
176
     1
  0
VISUALSTYLE
  5
34
102
{ACAD_REACTORS
330
2A
102
}
330
2A
100
AcDbVisualStyle
  2
Conceptual
 70
     9
177
     2
291
     0
 71
     3
176
     1
 72
     2
176
     1
 73
     0
176
     1
 90
        0
176
     1
 40
-0.6
176
     1
 41
-30.0
176
     1
 62
     5
 63
     7
421
 16777215
176
     1
 74
     2
176
     1
 91
        2
176
     1
 64
     7
176
     1
 65
   257
176
     1
 75
     1
176
     1
175
     1
176
     1
 42
40.0
176
     1
 92
        8
176
     1
 66
     7
176
     1
 43
1.0
176
     1
 76
     1
176
     1
 77
     6
176
     1
 78
     2
176
     1
 67
     7
176
     1
 79
     3
176
     1
170
     0
176
     1
171
     0
176
     1
290
     0
176
     1
 93
        1
176
     1
 44
0.0
176
     1
173
     0
176
     1
  0
VISUALSTYLE
  5
35
102
{ACAD_REACTORS
330
2A
102
}
330
2A
100
AcDbVisualStyle
  2
Dim
 70
    11
177
     2
291
     1
 71
     2
176
     1
 72
     2
176
     1
 73
     0
176
     1
 90
        0
176
     1
 40
-0.6
176
     1
 41
-30.0
176
     1
 62
     5
 63
     7
421
 16777215
176
     1
 74
     1
176
     1
 91
        4
176
     1
 64
     7
176
     1
 65
   257
176
     1
 75
     1
176
     1
175
     1
176
     1
 42
1.0
176
     1
 92
        8
176
     1
 66
     7
176
     1
 43
1.0
176
     1
 76
     1
176
     1
 77
     6
176
     1
 78
     2
176
     1
 67
     7
176
     1
 79
     5
176
     1
170
     0
176
     1
171
     0
176
     1
290
     0
176
     1
 93
        1
176
     1
 44
-50.0
176
     1
173
     0
176
     1
  0
VISUALSTYLE
  5
39
102
{ACAD_REACTORS
330
2A
102
}
330
2A
100
AcDbVisualStyle
  2
Facepattern
 70
    15
177
     2
291
     1
 71
     2
176
     1
 72
     2
176
     1
 73
     0
176
     1
 90
        0
176
     1
 40
-0.6
176
     1
 41
-30.0
176
     1
 62
     5
 63
     7
421
 16777215
176
     1
 74
     1
176
     1
 91
        4
176
     1
 64
     7
176
     1
 65
   257
176
     1
 75
     1
176
     1
175
     1
176
     1
 42
1.0
176
     1
 92
        8
176
     1
 66
     7
176
     1
 43
1.0
176
     1
 76
     1
176
     1
 77
     6
176
     1
 78
     2
176
     1
 67
     7
176
     1
 79
     5
176
     1
170
     0
176
     1
171
     0
176
     1
290
     0
176
     1
 93
        1
176
     1
 44
0.0
176
     1
173
     0
176
     1
  0
VISUALSTYLE
  5
2B
102
{ACAD_REACTORS
330
2A
102
}
330
2A
100
AcDbVisualStyle
  2
Flat
 70
     0
177
     2
291
     1
 71
     2
176
     1
 72
     1
176
     1
 73
     1
176
     1
 90
        2
176
     1
 40
-0.6
176
     1
 41
30.0
176
     1
 62
     5
 63
     7
421
 16777215
176
     1
 74
     0
176
     1
 91
        4
176
     1
 64
     7
176
     1
 65
   257
176
     1
 75
     1
176
     1
175
     1
176
     1
 42
1.0
176
     1
 92
        8
176
     1
 66
     7
176
     1
 43
1.0
176
     1
 76
     1
176
     1
 77
     6
176
     1
 78
     2
176
     1
 67
     7
176
     1
 79
     5
176
     1
170
     0
176
     1
171
     0
176
     1
290
     0
176
     1
 93
       13
176
     1
 44
0.0
176
     1
173
     0
176
     1
  0
VISUALSTYLE
  5
2C
102
{ACAD_REACTORS
330
2A
102
}
330
2A
100
AcDbVisualStyle
  2
FlatWithEdges
 70
     1
177
     2
291
     1
 71
     2
176
     1
 72
     1
176
     1
 73
     1
176
     1
 90
        2
176
     1
 40
-0.6
176
     1
 41
30.0
176
     1
 62
     5
 63
     7
421
 16777215
176
     1
 74
     1
176
     1
 91
        4
176
     1
 64
     7
176
     1
 65
   257
176
     1
 75
     1
176
     1
175
     1
176
     1
 42
1.0
176
     1
 92
        0
176
     1
 66
   257
176
     1
 43
1.0
176
     1
 76
     1
176
     1
 77
     6
176
     1
 78
     2
176
     1
 67
     7
176
     1
 79
     5
176
     1
170
     0
176
     1
171
     0
176
     1
290
     0
176
     1
 93
       13
176
     1
 44
0.0
176
     1
173
     0
176
     1
  0
VISUALSTYLE
  5
2D
102
{ACAD_REACTORS
330
2A
102
}
330
2A
100
AcDbVisualStyle
  2
Gouraud
 70
     2
177
     2
291
     1
 71
     2
176
     1
 72
     2
176
     1
 73
     1
176
     1
 90
        2
176
     1
 40
-0.6
176
     1
 41
30.0
176
     1
 62
     5
 63
     7
421
 16777215
176
     1
 74
     0
176
     1
 91
        4
176
     1
 64
     7
176
     1
 65
   257
176
     1
 75
     1
176
     1
175
     1
176
     1
 42
1.0
176
     1
 92
        0
176
     1
 66
     7
176
     1
 43
1.0
176
     1
 76
     1
176
     1
 77
     6
176
     1
 78
     2
176
     1
 67
     7
176
     1
 79
     5
176
     1
170
     0
176
     1
171
     0
176
     1
290
     0
176
     1
 93
       13
176
     1
 44
0.0
176
     1
173
     0
176
     1
  0
VISUALSTYLE
  5
2E
102
{ACAD_REACTORS
330
2A
102
}
330
2A
100
AcDbVisualStyle
  2
GouraudWithEdges
 70
     3
177
     2
291
     1
 71
     2
176
     1
 72
     2
176
     1
 73
     1
176
     1
 90
        2
176
     1
 40
-0.6
176
     1
 41
30.0
176
     1
 62
     5
 63
     7
421
 16777215
176
     1
 74
     1
176
     1
 91
        4
176
     1
 64
     7
176
     1
 65
   257
176
     1
 75
     1
176
     1
175
     1
176
     1
 42
1.0
176
     1
 92
        0
176
     1
 66
   257
176
     1
 43
1.0
176
     1
 76
     1
176
     1
 77
     6
176
     1
 78
     2
176
     1
 67
     7
176
     1
 79
     5
176
     1
170
     0
176
     1
171
     0
176
     1
290
     0
176
     1
 93
       13
176
     1
 44
0.0
176
     1
173
     0
176
     1
  0
VISUALSTYLE
  5
38
102
{ACAD_REACTORS
330
2A
102
}
330
2A
100
AcDbVisualStyle
  2
Linepattern
 70
    14
177
     2
291
     1
 71
     2
176
     1
 72
     2
176
     1
 73
     0
176
     1
 90
        0
176
     1
 40
-0.6
176
     1
 41
-30.0
176
     1
 62
     5
 63
     7
421
 16777215
176
     1
 74
     1
176
     1
 91
        4
176
     1
 64
     7
176
     1
 65
   257
176
     1
 75
     7
176
     1
175
     7
176
     1
 42
1.0
176
     1
 92
        8
176
     1
 66
     7
176
     1
 43
1.0
176
     1
 76
     1
176
     1
 77
     6
176
     1
 78
     2
176
     1
 67
     7
176
     1
 79
     5
176
     1
170
     0
176
     1
171
     0
176
     1
290
     0
176
     1
 93
        1
176
     1
 44
0.0
176
     1
173
     0
176
     1
  0
VISUALSTYLE
  5
33
102
{ACAD_REACTORS
330
2A
102
}
330
2A
100
AcDbVisualStyle
  2
Realistic
 70
     8
177
     2
291
     0
 71
     2
176
     1
 72
     2
176
     1
 73
     0
176
     1
 90
        0
176
     1
 40
-0.6
176
     1
 41
-30.0
176
     1
 62
     5
 63
     7
421
 16777215
176
     1
 74
     1
176
     1
 91
        0
176
     1
 64
     7
176
     1
 65
   257
176
     1
 75
     1
176
     1
175
     1
176
     1
 42
1.0
176
     1
 92
        8
176
     1
 66
     8
424
  7895160
176
     1
 43
1.0
176
     1
 76
     1
176
     1
 77
     6
176
     1
 78
     2
176
     1
 67
     7
176
     1
 79
     5
176
     1
170
     0
176
     1
171
     0
176
     1
290
     0
176
     1
 93
       13
176
     1
 44
0.0
176
     1
173
     0
176
     1
  0
VISUALSTYLE
  5
37
102
{ACAD_REACTORS
330
2A
102
}
330
2A
100
AcDbVisualStyle
  2
Thicken
 70
    13
177
     2
291
     1
 71
     2
176
     1
 72
     2
176
     1
 73
     0
176
     1
 90
        0
176
     1
 40
-0.6
176
     1
 41
-30.0
176
     1
 62
     5
 63
     7
421
 16777215
176
     1
 74
     1
176
     1
 91
        4
176
     1
 64
     7
176
     1
 65
   257
176
     1
 75
     1
176
     1
175
     1
176
     1
 42
1.0
176
     1
 92
       12
176
     1
 66
     7
176
     1
 43
1.0
176
     1
 76
     1
176
     1
 77
     6
176
     1
 78
     2
176
     1
 67
     7
176
     1
 79
     5
176
     1
170
     0
176
     1
171
     0
176
     1
290
     0
176
     1
 93
        1
176
     1
 44
0.0
176
     1
173
     0
176
     1
  0
ENDSEC
  0
EOF
