G04 #@! TF.GenerationSoftware,KiCad,Pcbnew,(5.1.11)-1*
G04 #@! TF.CreationDate,2022-08-10T17:44:51+07:00*
G04 #@! TF.ProjectId,Plate,506c6174-652e-46b6-9963-61645f706362,rev?*
G04 #@! TF.SameCoordinates,Original*
G04 #@! TF.FileFunction,Legend,Top*
G04 #@! TF.FilePolarity,Positive*
%FSLAX45Y45*%
G04 Gerber Fmt 4.5, Leading zero omitted, Abs format (unit mm)*
G04 Created by KiCad (PCBNEW (5.1.11)-1) date 2022-08-10 17:44:51*
%MOMM*%
%LPD*%
G01*
G04 APERTURE LIST*
%ADD10C,3.000000*%
G04 APERTURE END LIST*
D10*
X24959748Y-11765557D02*
X28879123Y-11765557D01*
X24959748Y-11765557D02*
X24909748Y-11815557D01*
X24909748Y-13115557D02*
X24909748Y-11815557D01*
X24909748Y-13115557D02*
X24959748Y-13165557D01*
X24968448Y-13165557D02*
X24959748Y-13165557D01*
X25018448Y-13215557D02*
X24968448Y-13165557D01*
X25018448Y-13315557D02*
X25018448Y-13215557D01*
X25018448Y-13315557D02*
X25068448Y-13365557D01*
X25668448Y-13365557D02*
X25068448Y-13365557D01*
X25668448Y-13365557D02*
X25718448Y-13315557D01*
X25718448Y-13215557D02*
X25718448Y-13315557D01*
X25768448Y-13165557D02*
X25718448Y-13215557D01*
X27356048Y-13165557D02*
X25768448Y-13165557D01*
X27406048Y-13215557D02*
X27356048Y-13165557D01*
X27406048Y-13315557D02*
X27406048Y-13215557D01*
X27406048Y-13315557D02*
X27456048Y-13365557D01*
X28056048Y-13365557D02*
X27456048Y-13365557D01*
X28056048Y-13365557D02*
X28106048Y-13315557D01*
X28106048Y-13215557D02*
X28106048Y-13315557D01*
X28156048Y-13165557D02*
X28106048Y-13215557D01*
X28879123Y-13165557D02*
X28156048Y-13165557D01*
X28879123Y-13165557D02*
X28929123Y-13115557D01*
X28929123Y-11815557D02*
X28929123Y-13115557D01*
X28929123Y-11815557D02*
X28879123Y-11765557D01*
X25674123Y-6050557D02*
X28879123Y-6050557D01*
X25674123Y-6050557D02*
X25624123Y-6100557D01*
X25624123Y-7400557D02*
X25624123Y-6100557D01*
X25624123Y-7400557D02*
X25674123Y-7450557D01*
X25682823Y-7450557D02*
X25674123Y-7450557D01*
X25732823Y-7500557D02*
X25682823Y-7450557D01*
X25732823Y-7600557D02*
X25732823Y-7500557D01*
X25732823Y-7600557D02*
X25782823Y-7650557D01*
X26382823Y-7650557D02*
X25782823Y-7650557D01*
X26382823Y-7650557D02*
X26432823Y-7600557D01*
X26432823Y-7500557D02*
X26432823Y-7600557D01*
X26482823Y-7450557D02*
X26432823Y-7500557D01*
X28070423Y-7450557D02*
X26482823Y-7450557D01*
X28120423Y-7500557D02*
X28070423Y-7450557D01*
X28120423Y-7600557D02*
X28120423Y-7500557D01*
X28120423Y-7600557D02*
X28170423Y-7650557D01*
X28770423Y-7650557D02*
X28170423Y-7650557D01*
X28770423Y-7650557D02*
X28820423Y-7600557D01*
X28820423Y-7500557D02*
X28820423Y-7600557D01*
X28870423Y-7450557D02*
X28820423Y-7500557D01*
X28879123Y-7450557D02*
X28870423Y-7450557D01*
X28879123Y-7450557D02*
X28929123Y-7400557D01*
X28929123Y-6100557D02*
X28929123Y-7400557D01*
X28929123Y-6100557D02*
X28879123Y-6050557D01*
X9479124Y-13396479D02*
X9529124Y-13446479D01*
X8879124Y-13396479D02*
X9479124Y-13396479D01*
X8829124Y-13446479D02*
X8879124Y-13396479D01*
X8829124Y-14915557D02*
X8829124Y-13446479D01*
X8879124Y-14965557D02*
X8829124Y-14915557D01*
X9479124Y-14965557D02*
X8879124Y-14965557D01*
X9529124Y-14915557D02*
X9479124Y-14965557D01*
X9529124Y-13446479D02*
X9529124Y-14915557D01*
X20909123Y-13396479D02*
X20959123Y-13446479D01*
X20309123Y-13396479D02*
X20909123Y-13396479D01*
X20259123Y-13446479D02*
X20309123Y-13396479D01*
X20259123Y-14915557D02*
X20259123Y-13446479D01*
X20309123Y-14965557D02*
X20259123Y-14915557D01*
X20909123Y-14965557D02*
X20309123Y-14965557D01*
X20959123Y-14915557D02*
X20909123Y-14965557D01*
X20959123Y-13446479D02*
X20959123Y-14915557D01*
X15553409Y-13655557D02*
X15604123Y-13706272D01*
X14234837Y-13655557D02*
X15553409Y-13655557D01*
X14184123Y-13706272D02*
X14234837Y-13655557D01*
X14184123Y-15024843D02*
X14184123Y-13706272D01*
X14234837Y-15075557D02*
X14184123Y-15024843D01*
X15553409Y-15075557D02*
X14234837Y-15075557D01*
X15604123Y-15024843D02*
X15553409Y-15075557D01*
X15604123Y-13706272D02*
X15604123Y-15024843D01*
X25069092Y-6040558D02*
X25129106Y-6100571D01*
X23769154Y-6040558D02*
X25069092Y-6040558D01*
X23709123Y-6100571D02*
X23769154Y-6040558D01*
X23709123Y-7400509D02*
X23709123Y-6100571D01*
X23769154Y-7460523D02*
X23709123Y-7400509D01*
X25069092Y-7460523D02*
X23769154Y-7460523D01*
X25129106Y-7400509D02*
X25069092Y-7460523D01*
X25129106Y-6100571D02*
X25129106Y-7400509D01*
X23164109Y-6040558D02*
X23224106Y-6100571D01*
X21864137Y-6040558D02*
X23164109Y-6040558D01*
X21804123Y-6100571D02*
X21864137Y-6040558D01*
X21804123Y-7400509D02*
X21804123Y-6100571D01*
X21864137Y-7460523D02*
X21804123Y-7400509D01*
X23164109Y-7460523D02*
X21864137Y-7460523D01*
X23224106Y-7400509D02*
X23164109Y-7460523D01*
X23224106Y-6100571D02*
X23224106Y-7400509D01*
X21259109Y-6040558D02*
X21319106Y-6100571D01*
X19959137Y-6040558D02*
X21259109Y-6040558D01*
X19899123Y-6100571D02*
X19959137Y-6040558D01*
X19899123Y-7400509D02*
X19899123Y-6100571D01*
X19959137Y-7460523D02*
X19899123Y-7400509D01*
X21259109Y-7460523D02*
X19959137Y-7460523D01*
X21319106Y-7400509D02*
X21259109Y-7460523D01*
X21319106Y-6100571D02*
X21319106Y-7400509D01*
X19354109Y-6040558D02*
X19414106Y-6100571D01*
X18054137Y-6040558D02*
X19354109Y-6040558D01*
X17994123Y-6100571D02*
X18054137Y-6040558D01*
X17994123Y-7400509D02*
X17994123Y-6100571D01*
X18054137Y-7460523D02*
X17994123Y-7400509D01*
X19354109Y-7460523D02*
X18054137Y-7460523D01*
X19414106Y-7400509D02*
X19354109Y-7460523D01*
X19414106Y-6100571D02*
X19414106Y-7400509D01*
X17449109Y-6040558D02*
X17509106Y-6100571D01*
X16149137Y-6040558D02*
X17449109Y-6040558D01*
X16089123Y-6100571D02*
X16149137Y-6040558D01*
X16089123Y-7400509D02*
X16089123Y-6100571D01*
X16149137Y-7460523D02*
X16089123Y-7400509D01*
X17449109Y-7460523D02*
X16149137Y-7460523D01*
X17509106Y-7400509D02*
X17449109Y-7460523D01*
X17509106Y-6100571D02*
X17509106Y-7400509D01*
X15544109Y-6040558D02*
X15604106Y-6100571D01*
X14244137Y-6040558D02*
X15544109Y-6040558D01*
X14184123Y-6100571D02*
X14244137Y-6040558D01*
X14184123Y-7400509D02*
X14184123Y-6100571D01*
X14244137Y-7460523D02*
X14184123Y-7400509D01*
X15544109Y-7460523D02*
X14244137Y-7460523D01*
X15604106Y-7400509D02*
X15544109Y-7460523D01*
X15604106Y-6100571D02*
X15604106Y-7400509D01*
X13639109Y-6040558D02*
X13699106Y-6100571D01*
X12338999Y-6040558D02*
X13639109Y-6040558D01*
X12278986Y-6100571D02*
X12338999Y-6040558D01*
X12278986Y-7400509D02*
X12278986Y-6100571D01*
X12338999Y-7460523D02*
X12278986Y-7400509D01*
X13639109Y-7460523D02*
X12338999Y-7460523D01*
X13699106Y-7400509D02*
X13639109Y-7460523D01*
X13699106Y-6100571D02*
X13699106Y-7400509D01*
X11734109Y-6040558D02*
X11794106Y-6100571D01*
X10433999Y-6040558D02*
X11734109Y-6040558D01*
X10373986Y-6100571D02*
X10433999Y-6040558D01*
X10373986Y-7400509D02*
X10373986Y-6100571D01*
X10433999Y-7460523D02*
X10373986Y-7400509D01*
X11734109Y-7460523D02*
X10433999Y-7460523D01*
X11794106Y-7400509D02*
X11734109Y-7460523D01*
X11794106Y-6100571D02*
X11794106Y-7400509D01*
X9829109Y-6040558D02*
X9889106Y-6100571D01*
X8529137Y-6040558D02*
X9829109Y-6040558D01*
X8469123Y-6100571D02*
X8529137Y-6040558D01*
X8469123Y-7400509D02*
X8469123Y-6100571D01*
X8529137Y-7460523D02*
X8469123Y-7400509D01*
X9829109Y-7460523D02*
X8529137Y-7460523D01*
X9889106Y-7400509D02*
X9829109Y-7460523D01*
X9889106Y-6100571D02*
X9889106Y-7400509D01*
X7924109Y-6040558D02*
X7984106Y-6100571D01*
X6624137Y-6040558D02*
X7924109Y-6040558D01*
X6564123Y-6100571D02*
X6624137Y-6040558D01*
X6564123Y-7400509D02*
X6564123Y-6100571D01*
X6624137Y-7460523D02*
X6564123Y-7400509D01*
X7924109Y-7460523D02*
X6624137Y-7460523D01*
X7984106Y-7400509D02*
X7924109Y-7460523D01*
X7984106Y-6100571D02*
X7984106Y-7400509D01*
X6019109Y-6040558D02*
X6079106Y-6100571D01*
X4719137Y-6040558D02*
X6019109Y-6040558D01*
X4659123Y-6100571D02*
X4719137Y-6040558D01*
X4659123Y-7400509D02*
X4659123Y-6100571D01*
X4719137Y-7460523D02*
X4659123Y-7400509D01*
X6019109Y-7460523D02*
X4719137Y-7460523D01*
X6079106Y-7400509D02*
X6019109Y-7460523D01*
X6079106Y-6100571D02*
X6079106Y-7400509D01*
X4114109Y-6040558D02*
X4174106Y-6100571D01*
X2814137Y-6040558D02*
X4114109Y-6040558D01*
X2754123Y-6100571D02*
X2814137Y-6040558D01*
X2754123Y-7400509D02*
X2754123Y-6100571D01*
X2814137Y-7460523D02*
X2754123Y-7400509D01*
X4114109Y-7460523D02*
X2814137Y-7460523D01*
X4174106Y-7400509D02*
X4114109Y-7460523D01*
X4174106Y-6100571D02*
X4174106Y-7400509D01*
X2209109Y-6040558D02*
X2269106Y-6100571D01*
X909137Y-6040558D02*
X2209109Y-6040558D01*
X849123Y-6100571D02*
X909137Y-6040558D01*
X849123Y-7400509D02*
X849123Y-6100571D01*
X909137Y-7460523D02*
X849123Y-7400509D01*
X2209109Y-7460523D02*
X909137Y-7460523D01*
X2269106Y-7400509D02*
X2209109Y-7460523D01*
X2269106Y-6100571D02*
X2269106Y-7400509D01*
X28402842Y-7945558D02*
X28462856Y-8005571D01*
X27102904Y-7945558D02*
X28402842Y-7945558D01*
X27042891Y-8005571D02*
X27102904Y-7945558D01*
X27042891Y-9305509D02*
X27042891Y-8005571D01*
X27102904Y-9365523D02*
X27042891Y-9305509D01*
X28402842Y-9365523D02*
X27102904Y-9365523D01*
X28462856Y-9305509D02*
X28402842Y-9365523D01*
X28462856Y-8005571D02*
X28462856Y-9305509D01*
X26021592Y-7945558D02*
X26081606Y-8005571D01*
X24721654Y-7945558D02*
X26021592Y-7945558D01*
X24661641Y-8005571D02*
X24721654Y-7945558D01*
X24661641Y-9305509D02*
X24661641Y-8005571D01*
X24721654Y-9365523D02*
X24661641Y-9305509D01*
X26021592Y-9365523D02*
X24721654Y-9365523D01*
X26081606Y-9305509D02*
X26021592Y-9365523D01*
X26081606Y-8005571D02*
X26081606Y-9305509D01*
X24116592Y-7945558D02*
X24176606Y-8005571D01*
X22816637Y-7945558D02*
X24116592Y-7945558D01*
X22756623Y-8005571D02*
X22816637Y-7945558D01*
X22756623Y-9305509D02*
X22756623Y-8005571D01*
X22816637Y-9365523D02*
X22756623Y-9305509D01*
X24116592Y-9365523D02*
X22816637Y-9365523D01*
X24176606Y-9305509D02*
X24116592Y-9365523D01*
X24176606Y-8005571D02*
X24176606Y-9305509D01*
X22211609Y-7945558D02*
X22271606Y-8005571D01*
X20911637Y-7945558D02*
X22211609Y-7945558D01*
X20851623Y-8005571D02*
X20911637Y-7945558D01*
X20851623Y-9305509D02*
X20851623Y-8005571D01*
X20911637Y-9365523D02*
X20851623Y-9305509D01*
X22211609Y-9365523D02*
X20911637Y-9365523D01*
X22271606Y-9305509D02*
X22211609Y-9365523D01*
X22271606Y-8005571D02*
X22271606Y-9305509D01*
X20306609Y-7945558D02*
X20366606Y-8005571D01*
X19006637Y-7945558D02*
X20306609Y-7945558D01*
X18946623Y-8005571D02*
X19006637Y-7945558D01*
X18946623Y-9305509D02*
X18946623Y-8005571D01*
X19006637Y-9365523D02*
X18946623Y-9305509D01*
X20306609Y-9365523D02*
X19006637Y-9365523D01*
X20366606Y-9305509D02*
X20306609Y-9365523D01*
X20366606Y-8005571D02*
X20366606Y-9305509D01*
X18401609Y-7945558D02*
X18461606Y-8005571D01*
X17101637Y-7945558D02*
X18401609Y-7945558D01*
X17041623Y-8005571D02*
X17101637Y-7945558D01*
X17041623Y-9305509D02*
X17041623Y-8005571D01*
X17101637Y-9365523D02*
X17041623Y-9305509D01*
X18401609Y-9365523D02*
X17101637Y-9365523D01*
X18461606Y-9305509D02*
X18401609Y-9365523D01*
X18461606Y-8005571D02*
X18461606Y-9305509D01*
X16496609Y-7945558D02*
X16556606Y-8005571D01*
X15196637Y-7945558D02*
X16496609Y-7945558D01*
X15136623Y-8005571D02*
X15196637Y-7945558D01*
X15136623Y-9305509D02*
X15136623Y-8005571D01*
X15196637Y-9365523D02*
X15136623Y-9305509D01*
X16496609Y-9365523D02*
X15196637Y-9365523D01*
X16556606Y-9305509D02*
X16496609Y-9365523D01*
X16556606Y-8005571D02*
X16556606Y-9305509D01*
X14591609Y-7945558D02*
X14651606Y-8005571D01*
X13291637Y-7945558D02*
X14591609Y-7945558D01*
X13231623Y-8005571D02*
X13291637Y-7945558D01*
X13231623Y-9305509D02*
X13231623Y-8005571D01*
X13291637Y-9365523D02*
X13231623Y-9305509D01*
X14591609Y-9365523D02*
X13291637Y-9365523D01*
X14651606Y-9305509D02*
X14591609Y-9365523D01*
X14651606Y-8005571D02*
X14651606Y-9305509D01*
X12686609Y-7945558D02*
X12746606Y-8005571D01*
X11386637Y-7945558D02*
X12686609Y-7945558D01*
X11326623Y-8005571D02*
X11386637Y-7945558D01*
X11326623Y-9305509D02*
X11326623Y-8005571D01*
X11386637Y-9365523D02*
X11326623Y-9305509D01*
X12686609Y-9365523D02*
X11386637Y-9365523D01*
X12746606Y-9305509D02*
X12686609Y-9365523D01*
X12746606Y-8005571D02*
X12746606Y-9305509D01*
X10781609Y-7945558D02*
X10841606Y-8005571D01*
X9481637Y-7945558D02*
X10781609Y-7945558D01*
X9421623Y-8005571D02*
X9481637Y-7945558D01*
X9421623Y-9305509D02*
X9421623Y-8005571D01*
X9481637Y-9365523D02*
X9421623Y-9305509D01*
X10781609Y-9365523D02*
X9481637Y-9365523D01*
X10841606Y-9305509D02*
X10781609Y-9365523D01*
X10841606Y-8005571D02*
X10841606Y-9305509D01*
X8876609Y-7945558D02*
X8936606Y-8005571D01*
X7576637Y-7945558D02*
X8876609Y-7945558D01*
X7516623Y-8005571D02*
X7576637Y-7945558D01*
X7516623Y-9305509D02*
X7516623Y-8005571D01*
X7576637Y-9365523D02*
X7516623Y-9305509D01*
X8876609Y-9365523D02*
X7576637Y-9365523D01*
X8936606Y-9305509D02*
X8876609Y-9365523D01*
X8936606Y-8005571D02*
X8936606Y-9305509D01*
X6971609Y-7945558D02*
X7031606Y-8005571D01*
X5671637Y-7945558D02*
X6971609Y-7945558D01*
X5611623Y-8005571D02*
X5671637Y-7945558D01*
X5611623Y-9305509D02*
X5611623Y-8005571D01*
X5671637Y-9365523D02*
X5611623Y-9305509D01*
X6971609Y-9365523D02*
X5671637Y-9365523D01*
X7031606Y-9305509D02*
X6971609Y-9365523D01*
X7031606Y-8005571D02*
X7031606Y-9305509D01*
X5066609Y-7945558D02*
X5126606Y-8005571D01*
X3766637Y-7945558D02*
X5066609Y-7945558D01*
X3706623Y-8005571D02*
X3766637Y-7945558D01*
X3706623Y-9305509D02*
X3706623Y-8005571D01*
X3766637Y-9365523D02*
X3706623Y-9305509D01*
X5066609Y-9365523D02*
X3766637Y-9365523D01*
X5126606Y-9305509D02*
X5066609Y-9365523D01*
X5126606Y-8005571D02*
X5126606Y-9305509D01*
X2685359Y-7945558D02*
X2745356Y-8005571D01*
X1385387Y-7945558D02*
X2685359Y-7945558D01*
X1325373Y-8005571D02*
X1385387Y-7945558D01*
X1325373Y-9305509D02*
X1325373Y-8005571D01*
X1385387Y-9365523D02*
X1325373Y-9305509D01*
X2685359Y-9365523D02*
X1385387Y-9365523D01*
X2745356Y-9305509D02*
X2685359Y-9365523D01*
X2745356Y-8005571D02*
X2745356Y-9305509D01*
X24592842Y-9850558D02*
X24652856Y-9910571D01*
X23292887Y-9850558D02*
X24592842Y-9850558D01*
X23232873Y-9910571D02*
X23292887Y-9850558D01*
X23232873Y-11210509D02*
X23232873Y-9910571D01*
X23292887Y-11270523D02*
X23232873Y-11210509D01*
X24592842Y-11270523D02*
X23292887Y-11270523D01*
X24652856Y-11210509D02*
X24592842Y-11270523D01*
X24652856Y-9910571D02*
X24652856Y-11210509D01*
X22687859Y-9850558D02*
X22747856Y-9910571D01*
X21387887Y-9850558D02*
X22687859Y-9850558D01*
X21327873Y-9910571D02*
X21387887Y-9850558D01*
X21327873Y-11210509D02*
X21327873Y-9910571D01*
X21387887Y-11270523D02*
X21327873Y-11210509D01*
X22687859Y-11270523D02*
X21387887Y-11270523D01*
X22747856Y-11210509D02*
X22687859Y-11270523D01*
X22747856Y-9910571D02*
X22747856Y-11210509D01*
X20782859Y-9850558D02*
X20842856Y-9910571D01*
X19482887Y-9850558D02*
X20782859Y-9850558D01*
X19422873Y-9910571D02*
X19482887Y-9850558D01*
X19422873Y-11210509D02*
X19422873Y-9910571D01*
X19482887Y-11270523D02*
X19422873Y-11210509D01*
X20782859Y-11270523D02*
X19482887Y-11270523D01*
X20842856Y-11210509D02*
X20782859Y-11270523D01*
X20842856Y-9910571D02*
X20842856Y-11210509D01*
X18877859Y-9850558D02*
X18937856Y-9910571D01*
X17577887Y-9850558D02*
X18877859Y-9850558D01*
X17517873Y-9910571D02*
X17577887Y-9850558D01*
X17517873Y-11210509D02*
X17517873Y-9910571D01*
X17577887Y-11270523D02*
X17517873Y-11210509D01*
X18877859Y-11270523D02*
X17577887Y-11270523D01*
X18937856Y-11210509D02*
X18877859Y-11270523D01*
X18937856Y-9910571D02*
X18937856Y-11210509D01*
X16972859Y-9850558D02*
X17032856Y-9910571D01*
X15672887Y-9850558D02*
X16972859Y-9850558D01*
X15612873Y-9910571D02*
X15672887Y-9850558D01*
X15612873Y-11210509D02*
X15612873Y-9910571D01*
X15672887Y-11270523D02*
X15612873Y-11210509D01*
X16972859Y-11270523D02*
X15672887Y-11270523D01*
X17032856Y-11210509D02*
X16972859Y-11270523D01*
X17032856Y-9910571D02*
X17032856Y-11210509D01*
X15067859Y-9850558D02*
X15127856Y-9910571D01*
X13767887Y-9850558D02*
X15067859Y-9850558D01*
X13707873Y-9910571D02*
X13767887Y-9850558D01*
X13707873Y-11210509D02*
X13707873Y-9910571D01*
X13767887Y-11270523D02*
X13707873Y-11210509D01*
X15067859Y-11270523D02*
X13767887Y-11270523D01*
X15127856Y-11210509D02*
X15067859Y-11270523D01*
X15127856Y-9910571D02*
X15127856Y-11210509D01*
X13162859Y-9850558D02*
X13222856Y-9910571D01*
X11862887Y-9850558D02*
X13162859Y-9850558D01*
X11802873Y-9910571D02*
X11862887Y-9850558D01*
X11802873Y-11210509D02*
X11802873Y-9910571D01*
X11862887Y-11270523D02*
X11802873Y-11210509D01*
X13162859Y-11270523D02*
X11862887Y-11270523D01*
X13222856Y-11210509D02*
X13162859Y-11270523D01*
X13222856Y-9910571D02*
X13222856Y-11210509D01*
X11257859Y-9850558D02*
X11317856Y-9910571D01*
X9957887Y-9850558D02*
X11257859Y-9850558D01*
X9897873Y-9910571D02*
X9957887Y-9850558D01*
X9897873Y-11210509D02*
X9897873Y-9910571D01*
X9957887Y-11270523D02*
X9897873Y-11210509D01*
X11257859Y-11270523D02*
X9957887Y-11270523D01*
X11317856Y-11210509D02*
X11257859Y-11270523D01*
X11317856Y-9910571D02*
X11317856Y-11210509D01*
X9352859Y-9850558D02*
X9412856Y-9910571D01*
X8052887Y-9850558D02*
X9352859Y-9850558D01*
X7992873Y-9910571D02*
X8052887Y-9850558D01*
X7992873Y-11210509D02*
X7992873Y-9910571D01*
X8052887Y-11270523D02*
X7992873Y-11210509D01*
X9352859Y-11270523D02*
X8052887Y-11270523D01*
X9412856Y-11210509D02*
X9352859Y-11270523D01*
X9412856Y-9910571D02*
X9412856Y-11210509D01*
X7447859Y-9850558D02*
X7507856Y-9910571D01*
X6147887Y-9850558D02*
X7447859Y-9850558D01*
X6087873Y-9910571D02*
X6147887Y-9850558D01*
X6087873Y-11210509D02*
X6087873Y-9910571D01*
X6147887Y-11270523D02*
X6087873Y-11210509D01*
X7447859Y-11270523D02*
X6147887Y-11270523D01*
X7507856Y-11210509D02*
X7447859Y-11270523D01*
X7507856Y-9910571D02*
X7507856Y-11210509D01*
X5542859Y-9850558D02*
X5602856Y-9910571D01*
X4242887Y-9850558D02*
X5542859Y-9850558D01*
X4182873Y-9910571D02*
X4242887Y-9850558D01*
X4182873Y-11210509D02*
X4182873Y-9910571D01*
X4242887Y-11270523D02*
X4182873Y-11210509D01*
X5542859Y-11270523D02*
X4242887Y-11270523D01*
X5602856Y-11210509D02*
X5542859Y-11270523D01*
X5602856Y-9910571D02*
X5602856Y-11210509D01*
X2923484Y-9850558D02*
X2983481Y-9910571D01*
X1623374Y-9850558D02*
X2923484Y-9850558D01*
X1563361Y-9910571D02*
X1623374Y-9850558D01*
X1563361Y-11210509D02*
X1563361Y-9910571D01*
X1623374Y-11270523D02*
X1563361Y-11210509D01*
X2923484Y-11270523D02*
X1623374Y-11270523D01*
X2983481Y-11210509D02*
X2923484Y-11270523D01*
X2983481Y-9910571D02*
X2983481Y-11210509D01*
X23640359Y-11755558D02*
X23700356Y-11815571D01*
X22340387Y-11755558D02*
X23640359Y-11755558D01*
X22280373Y-11815571D02*
X22340387Y-11755558D01*
X22280373Y-13115509D02*
X22280373Y-11815571D01*
X22340387Y-13175523D02*
X22280373Y-13115509D01*
X23640359Y-13175523D02*
X22340387Y-13175523D01*
X23700356Y-13115509D02*
X23640359Y-13175523D01*
X23700356Y-11815571D02*
X23700356Y-13115509D01*
X21735359Y-11755558D02*
X21795356Y-11815571D01*
X20435387Y-11755558D02*
X21735359Y-11755558D01*
X20375373Y-11815571D02*
X20435387Y-11755558D01*
X20375373Y-13115509D02*
X20375373Y-11815571D01*
X20435387Y-13175523D02*
X20375373Y-13115509D01*
X21735359Y-13175523D02*
X20435387Y-13175523D01*
X21795356Y-13115509D02*
X21735359Y-13175523D01*
X21795356Y-11815571D02*
X21795356Y-13115509D01*
X19830359Y-11755558D02*
X19890356Y-11815571D01*
X18530387Y-11755558D02*
X19830359Y-11755558D01*
X18470373Y-11815571D02*
X18530387Y-11755558D01*
X18470373Y-13115509D02*
X18470373Y-11815571D01*
X18530387Y-13175523D02*
X18470373Y-13115509D01*
X19830359Y-13175523D02*
X18530387Y-13175523D01*
X19890356Y-13115509D02*
X19830359Y-13175523D01*
X19890356Y-11815571D02*
X19890356Y-13115509D01*
X17925359Y-11755558D02*
X17985356Y-11815571D01*
X16625387Y-11755558D02*
X17925359Y-11755558D01*
X16565373Y-11815571D02*
X16625387Y-11755558D01*
X16565373Y-13115509D02*
X16565373Y-11815571D01*
X16625387Y-13175523D02*
X16565373Y-13115509D01*
X17925359Y-13175523D02*
X16625387Y-13175523D01*
X17985356Y-13115509D02*
X17925359Y-13175523D01*
X17985356Y-11815571D02*
X17985356Y-13115509D01*
X16020359Y-11755558D02*
X16080356Y-11815571D01*
X14720387Y-11755558D02*
X16020359Y-11755558D01*
X14660373Y-11815571D02*
X14720387Y-11755558D01*
X14660373Y-13115509D02*
X14660373Y-11815571D01*
X14720387Y-13175523D02*
X14660373Y-13115509D01*
X16020359Y-13175523D02*
X14720387Y-13175523D01*
X16080356Y-13115509D02*
X16020359Y-13175523D01*
X16080356Y-11815571D02*
X16080356Y-13115509D01*
X14115359Y-11755558D02*
X14175356Y-11815571D01*
X12815387Y-11755558D02*
X14115359Y-11755558D01*
X12755373Y-11815571D02*
X12815387Y-11755558D01*
X12755373Y-13115509D02*
X12755373Y-11815571D01*
X12815387Y-13175523D02*
X12755373Y-13115509D01*
X14115359Y-13175523D02*
X12815387Y-13175523D01*
X14175356Y-13115509D02*
X14115359Y-13175523D01*
X14175356Y-11815571D02*
X14175356Y-13115509D01*
X12210359Y-11755558D02*
X12270356Y-11815571D01*
X10910387Y-11755558D02*
X12210359Y-11755558D01*
X10850373Y-11815571D02*
X10910387Y-11755558D01*
X10850373Y-13115509D02*
X10850373Y-11815571D01*
X10910387Y-13175523D02*
X10850373Y-13115509D01*
X12210359Y-13175523D02*
X10910387Y-13175523D01*
X12270356Y-13115509D02*
X12210359Y-13175523D01*
X12270356Y-11815571D02*
X12270356Y-13115509D01*
X10305359Y-11755558D02*
X10365356Y-11815571D01*
X9005387Y-11755558D02*
X10305359Y-11755558D01*
X8945373Y-11815571D02*
X9005387Y-11755558D01*
X8945373Y-13115509D02*
X8945373Y-11815571D01*
X9005387Y-13175523D02*
X8945373Y-13115509D01*
X10305359Y-13175523D02*
X9005387Y-13175523D01*
X10365356Y-13115509D02*
X10305359Y-13175523D01*
X10365356Y-11815571D02*
X10365356Y-13115509D01*
X8400359Y-11755558D02*
X8460356Y-11815571D01*
X7100387Y-11755558D02*
X8400359Y-11755558D01*
X7040373Y-11815571D02*
X7100387Y-11755558D01*
X7040373Y-13115509D02*
X7040373Y-11815571D01*
X7100387Y-13175523D02*
X7040373Y-13115509D01*
X8400359Y-13175523D02*
X7100387Y-13175523D01*
X8460356Y-13115509D02*
X8400359Y-13175523D01*
X8460356Y-11815571D02*
X8460356Y-13115509D01*
X6495359Y-11755558D02*
X6555356Y-11815571D01*
X5195387Y-11755558D02*
X6495359Y-11755558D01*
X5135373Y-11815571D02*
X5195387Y-11755558D01*
X5135373Y-13115509D02*
X5135373Y-11815571D01*
X5195387Y-13175523D02*
X5135373Y-13115509D01*
X6495359Y-13175523D02*
X5195387Y-13175523D01*
X6555356Y-13115509D02*
X6495359Y-13175523D01*
X6555356Y-11815571D02*
X6555356Y-13115509D01*
X28402842Y-13660558D02*
X28462856Y-13720571D01*
X27102904Y-13660558D02*
X28402842Y-13660558D01*
X27042891Y-13720571D02*
X27102904Y-13660558D01*
X27042891Y-15020509D02*
X27042891Y-13720571D01*
X27102904Y-15080523D02*
X27042891Y-15020509D01*
X28402842Y-15080523D02*
X27102904Y-15080523D01*
X28462856Y-15020509D02*
X28402842Y-15080523D01*
X28462856Y-13720571D02*
X28462856Y-15020509D01*
X26021592Y-13660558D02*
X26081606Y-13720571D01*
X24721654Y-13660558D02*
X26021592Y-13660558D01*
X24661641Y-13720571D02*
X24721654Y-13660558D01*
X24661641Y-15020509D02*
X24661641Y-13720571D01*
X24721654Y-15080523D02*
X24661641Y-15020509D01*
X26021592Y-15080523D02*
X24721654Y-15080523D01*
X26081606Y-15020509D02*
X26021592Y-15080523D01*
X26081606Y-13720571D02*
X26081606Y-15020509D01*
X23640359Y-13660558D02*
X23700356Y-13720571D01*
X22340387Y-13660558D02*
X23640359Y-13660558D01*
X22280373Y-13720571D02*
X22340387Y-13660558D01*
X22280373Y-15020509D02*
X22280373Y-13720571D01*
X22340387Y-15080523D02*
X22280373Y-15020509D01*
X23640359Y-15080523D02*
X22340387Y-15080523D01*
X23700356Y-15020509D02*
X23640359Y-15080523D01*
X23700356Y-13720571D02*
X23700356Y-15020509D01*
X7447859Y-13660558D02*
X7507856Y-13720571D01*
X6147887Y-13660558D02*
X7447859Y-13660558D01*
X6087873Y-13720571D02*
X6147887Y-13660558D01*
X6087873Y-15020509D02*
X6087873Y-13720571D01*
X6147887Y-15080523D02*
X6087873Y-15020509D01*
X7447859Y-15080523D02*
X6147887Y-15080523D01*
X7507856Y-15020509D02*
X7447859Y-15080523D01*
X7507856Y-13720571D02*
X7507856Y-15020509D01*
X5066609Y-13660558D02*
X5126606Y-13720571D01*
X3766637Y-13660558D02*
X5066609Y-13660558D01*
X3706623Y-13720571D02*
X3766637Y-13660558D01*
X3706623Y-15020509D02*
X3706623Y-13720571D01*
X3766637Y-15080523D02*
X3706623Y-15020509D01*
X5066609Y-15080523D02*
X3766637Y-15080523D01*
X5126606Y-15020509D02*
X5066609Y-15080523D01*
X5126606Y-13720571D02*
X5126606Y-15020509D01*
X2685359Y-13660558D02*
X2745356Y-13720571D01*
X1385387Y-13660558D02*
X2685359Y-13660558D01*
X1325373Y-13720571D02*
X1385387Y-13660558D01*
X1325373Y-15020509D02*
X1325373Y-13720571D01*
X1385387Y-15080523D02*
X1325373Y-15020509D01*
X2685359Y-15080523D02*
X1385387Y-15080523D01*
X2745356Y-15020509D02*
X2685359Y-15080523D01*
X2745356Y-13720571D02*
X2745356Y-15020509D01*
X26194698Y-11310557D02*
X26194698Y-11410557D01*
X26244698Y-11260557D02*
X26194698Y-11310557D01*
X27832298Y-11260557D02*
X26244698Y-11260557D01*
X27882298Y-11310557D02*
X27832298Y-11260557D01*
X27882298Y-11410557D02*
X27882298Y-11310557D01*
X27882298Y-11410557D02*
X27932298Y-11460557D01*
X28532298Y-11460557D02*
X27932298Y-11460557D01*
X28532298Y-11460557D02*
X28582298Y-11410557D01*
X28582298Y-9710557D02*
X28582298Y-11410557D01*
X28582298Y-9710557D02*
X28532298Y-9660557D01*
X27932298Y-9660557D02*
X28532298Y-9660557D01*
X27932298Y-9660557D02*
X27882298Y-9710557D01*
X27882298Y-9810557D02*
X27882298Y-9710557D01*
X27832298Y-9860557D02*
X27882298Y-9810557D01*
X26244698Y-9860557D02*
X27832298Y-9860557D01*
X26194698Y-9810557D02*
X26244698Y-9860557D01*
X26194698Y-9710557D02*
X26194698Y-9810557D01*
X26194698Y-9710557D02*
X26144698Y-9660557D01*
X25544698Y-9660557D02*
X26144698Y-9660557D01*
X25544698Y-9660557D02*
X25494698Y-9710557D01*
X25494698Y-11410557D02*
X25494698Y-9710557D01*
X25494698Y-11410557D02*
X25544698Y-11460557D01*
X26144698Y-11460557D02*
X25544698Y-11460557D01*
X26144698Y-11460557D02*
X26194698Y-11410557D01*
X1905948Y-13215557D02*
X1905948Y-13315557D01*
X1955948Y-13165557D02*
X1905948Y-13215557D01*
X3543548Y-13165557D02*
X1955948Y-13165557D01*
X3593548Y-13215557D02*
X3543548Y-13165557D01*
X3593548Y-13315557D02*
X3593548Y-13215557D01*
X3593548Y-13315557D02*
X3643548Y-13365557D01*
X4243548Y-13365557D02*
X3643548Y-13365557D01*
X4243548Y-13365557D02*
X4293548Y-13315557D01*
X4293548Y-11815557D02*
X4293548Y-13315557D01*
X4293548Y-11815557D02*
X4243548Y-11765557D01*
X1255948Y-11765557D02*
X4243548Y-11765557D01*
X1255948Y-11765557D02*
X1205948Y-11815557D01*
X1205948Y-13315557D02*
X1205948Y-11815557D01*
X1205948Y-13315557D02*
X1255948Y-13365557D01*
X1855948Y-13365557D02*
X1255948Y-13365557D01*
X1855948Y-13365557D02*
X1905948Y-13315557D01*
M02*
