G04 #@! TF.GenerationSoftware,KiCad,Pcbnew,(5.1.11)-1*
G04 #@! TF.CreationDate,2022-09-06T16:53:54+07:00*
G04 #@! TF.ProjectId,Unified-Daughterboard,556e6966-6965-4642-9d44-617567687465,rev?*
G04 #@! TF.SameCoordinates,Original*
G04 #@! TF.FileFunction,Copper,L1,Top*
G04 #@! TF.FilePolarity,Positive*
%FSLAX46Y46*%
G04 Gerber Fmt 4.6, Leading zero omitted, Abs format (unit mm)*
G04 Created by KiCad (PCBNEW (5.1.11)-1) date 2022-09-06 16:53:54*
%MOMM*%
%LPD*%
G01*
G04 APERTURE LIST*
G04 #@! TA.AperFunction,SMDPad,CuDef*
%ADD10R,0.600000X1.550000*%
G04 #@! TD*
G04 #@! TA.AperFunction,SMDPad,CuDef*
%ADD11R,1.200000X1.800000*%
G04 #@! TD*
G04 #@! TA.AperFunction,SMDPad,CuDef*
%ADD12R,0.575000X1.450000*%
G04 #@! TD*
G04 #@! TA.AperFunction,SMDPad,CuDef*
%ADD13R,0.300000X1.450000*%
G04 #@! TD*
G04 #@! TA.AperFunction,ComponentPad*
%ADD14O,1.200000X2.300000*%
G04 #@! TD*
G04 #@! TA.AperFunction,ComponentPad*
%ADD15O,1.200000X1.800000*%
G04 #@! TD*
G04 #@! TA.AperFunction,ComponentPad*
%ADD16C,0.800000*%
G04 #@! TD*
G04 #@! TA.AperFunction,ComponentPad*
%ADD17C,6.400000*%
G04 #@! TD*
G04 #@! TA.AperFunction,ViaPad*
%ADD18C,0.800000*%
G04 #@! TD*
G04 #@! TA.AperFunction,Conductor*
%ADD19C,0.250000*%
G04 #@! TD*
G04 #@! TA.AperFunction,Conductor*
%ADD20C,0.350000*%
G04 #@! TD*
G04 #@! TA.AperFunction,Conductor*
%ADD21C,0.800000*%
G04 #@! TD*
G04 #@! TA.AperFunction,Conductor*
%ADD22C,0.254000*%
G04 #@! TD*
G04 #@! TA.AperFunction,Conductor*
%ADD23C,0.100000*%
G04 #@! TD*
G04 APERTURE END LIST*
D10*
X-9200000Y-3225000D03*
X-8200000Y-3225000D03*
X-10200000Y-3225000D03*
X-11200000Y-3225000D03*
D11*
X-12500000Y-7100000D03*
X-6900000Y-7100000D03*
G04 #@! TA.AperFunction,SMDPad,CuDef*
G36*
G01*
X12650000Y-4475000D02*
X12150000Y-4475000D01*
G75*
G02*
X11925000Y-4250000I0J225000D01*
G01*
X11925000Y-3800000D01*
G75*
G02*
X12150000Y-3575000I225000J0D01*
G01*
X12650000Y-3575000D01*
G75*
G02*
X12875000Y-3800000I0J-225000D01*
G01*
X12875000Y-4250000D01*
G75*
G02*
X12650000Y-4475000I-225000J0D01*
G01*
G37*
G04 #@! TD.AperFunction*
G04 #@! TA.AperFunction,SMDPad,CuDef*
G36*
G01*
X12650000Y-6025000D02*
X12150000Y-6025000D01*
G75*
G02*
X11925000Y-5800000I0J225000D01*
G01*
X11925000Y-5350000D01*
G75*
G02*
X12150000Y-5125000I225000J0D01*
G01*
X12650000Y-5125000D01*
G75*
G02*
X12875000Y-5350000I0J-225000D01*
G01*
X12875000Y-5800000D01*
G75*
G02*
X12650000Y-6025000I-225000J0D01*
G01*
G37*
G04 #@! TD.AperFunction*
D12*
X-3225000Y-7695000D03*
X3225000Y-7695000D03*
X-2450000Y-7695000D03*
X2450000Y-7695000D03*
D13*
X1750000Y-7695000D03*
X-1750000Y-7695000D03*
X1250000Y-7695000D03*
X-1250000Y-7695000D03*
X750000Y-7695000D03*
X-750000Y-7695000D03*
X-250000Y-7695000D03*
X250000Y-7695000D03*
D14*
X4320000Y-6780000D03*
X-4320000Y-6780000D03*
D15*
X4320000Y-2600000D03*
X-4320000Y-2600000D03*
D16*
X19697056Y-3952944D03*
X18000000Y-3250000D03*
X16302944Y-3952944D03*
X15600000Y-5650000D03*
X16302944Y-7347056D03*
X18000000Y-8050000D03*
X19697056Y-7347056D03*
X20400000Y-5650000D03*
D17*
X18000000Y-5650000D03*
G04 #@! TA.AperFunction,SMDPad,CuDef*
G36*
G01*
X8125000Y-5425000D02*
X8675000Y-5425000D01*
G75*
G02*
X8875000Y-5625000I0J-200000D01*
G01*
X8875000Y-6025000D01*
G75*
G02*
X8675000Y-6225000I-200000J0D01*
G01*
X8125000Y-6225000D01*
G75*
G02*
X7925000Y-6025000I0J200000D01*
G01*
X7925000Y-5625000D01*
G75*
G02*
X8125000Y-5425000I200000J0D01*
G01*
G37*
G04 #@! TD.AperFunction*
G04 #@! TA.AperFunction,SMDPad,CuDef*
G36*
G01*
X8125000Y-3775000D02*
X8675000Y-3775000D01*
G75*
G02*
X8875000Y-3975000I0J-200000D01*
G01*
X8875000Y-4375000D01*
G75*
G02*
X8675000Y-4575000I-200000J0D01*
G01*
X8125000Y-4575000D01*
G75*
G02*
X7925000Y-4375000I0J200000D01*
G01*
X7925000Y-3975000D01*
G75*
G02*
X8125000Y-3775000I200000J0D01*
G01*
G37*
G04 #@! TD.AperFunction*
D16*
X-16302944Y-3952944D03*
X-18000000Y-3250000D03*
X-19697056Y-3952944D03*
X-20400000Y-5650000D03*
X-19697056Y-7347056D03*
X-18000000Y-8050000D03*
X-16302944Y-7347056D03*
X-15600000Y-5650000D03*
D17*
X-18000000Y-5650000D03*
G04 #@! TA.AperFunction,SMDPad,CuDef*
G36*
G01*
X10850002Y-4400000D02*
X9949998Y-4400000D01*
G75*
G02*
X9700000Y-4150002I0J249998D01*
G01*
X9700000Y-3624998D01*
G75*
G02*
X9949998Y-3375000I249998J0D01*
G01*
X10850002Y-3375000D01*
G75*
G02*
X11100000Y-3624998I0J-249998D01*
G01*
X11100000Y-4150002D01*
G75*
G02*
X10850002Y-4400000I-249998J0D01*
G01*
G37*
G04 #@! TD.AperFunction*
G04 #@! TA.AperFunction,SMDPad,CuDef*
G36*
G01*
X10850002Y-6225000D02*
X9949998Y-6225000D01*
G75*
G02*
X9700000Y-5975002I0J249998D01*
G01*
X9700000Y-5449998D01*
G75*
G02*
X9949998Y-5200000I249998J0D01*
G01*
X10850002Y-5200000D01*
G75*
G02*
X11100000Y-5449998I0J-249998D01*
G01*
X11100000Y-5975002D01*
G75*
G02*
X10850002Y-6225000I-249998J0D01*
G01*
G37*
G04 #@! TD.AperFunction*
G04 #@! TA.AperFunction,SMDPad,CuDef*
G36*
G01*
X6325000Y-5425000D02*
X6875000Y-5425000D01*
G75*
G02*
X7075000Y-5625000I0J-200000D01*
G01*
X7075000Y-6025000D01*
G75*
G02*
X6875000Y-6225000I-200000J0D01*
G01*
X6325000Y-6225000D01*
G75*
G02*
X6125000Y-6025000I0J200000D01*
G01*
X6125000Y-5625000D01*
G75*
G02*
X6325000Y-5425000I200000J0D01*
G01*
G37*
G04 #@! TD.AperFunction*
G04 #@! TA.AperFunction,SMDPad,CuDef*
G36*
G01*
X6325000Y-3775000D02*
X6875000Y-3775000D01*
G75*
G02*
X7075000Y-3975000I0J-200000D01*
G01*
X7075000Y-4375000D01*
G75*
G02*
X6875000Y-4575000I-200000J0D01*
G01*
X6325000Y-4575000D01*
G75*
G02*
X6125000Y-4375000I0J200000D01*
G01*
X6125000Y-3975000D01*
G75*
G02*
X6325000Y-3775000I200000J0D01*
G01*
G37*
G04 #@! TD.AperFunction*
D18*
X-6600000Y-4800000D03*
X13800000Y-5400000D03*
X1800000Y-9200000D03*
X-10600000Y-8800000D03*
X-11000000Y-5200000D03*
X5800000Y-8600000D03*
X6200000Y-2600000D03*
X-5600000Y-8124990D03*
X1800000Y-3800000D03*
X-1400000Y-6075000D03*
X3000000Y-4900000D03*
X1200000Y-6200000D03*
D19*
X-8196446Y-8850000D02*
X-9450000Y-7596446D01*
X-9200000Y-4250000D02*
X-9200000Y-3225000D01*
X-750000Y-7695000D02*
X-750000Y-8613590D01*
X-750000Y-7695000D02*
X-750000Y-6734998D01*
X-986410Y-8850000D02*
X-8196446Y-8850000D01*
X-660001Y-6644999D02*
X160001Y-6644999D01*
X-750000Y-8613590D02*
X-986410Y-8850000D01*
X-750000Y-6734998D02*
X-660001Y-6644999D01*
X160001Y-6644999D02*
X250000Y-6734998D01*
X-9450000Y-4500000D02*
X-9200000Y-4250000D01*
X-9450000Y-7596446D02*
X-9450000Y-4500000D01*
X250000Y-6734998D02*
X250000Y-7695000D01*
D20*
X2795000Y-9200000D02*
X1800000Y-9200000D01*
X-3835010Y-8305010D02*
X-5419980Y-8305010D01*
X-3225000Y-7695000D02*
X-3835010Y-8305010D01*
X3225000Y-7695000D02*
X3225000Y-8770000D01*
X-5419980Y-8305010D02*
X-5600000Y-8124990D01*
X3225000Y-8770000D02*
X2795000Y-9200000D01*
D19*
X-250000Y-8750000D02*
X-800000Y-9300000D01*
X-160001Y-8745001D02*
X660001Y-8745001D01*
X-250000Y-7695000D02*
X-250000Y-8655002D01*
X-8453554Y-9300000D02*
X-9950000Y-7803554D01*
X-10200000Y-4387501D02*
X-10200000Y-3225000D01*
X-250000Y-8655002D02*
X-160001Y-8745001D01*
X-250000Y-7695000D02*
X-250000Y-8750000D01*
X-9950000Y-7803554D02*
X-9950000Y-4637501D01*
X660001Y-8745001D02*
X750000Y-8655002D01*
X750000Y-8655002D02*
X750000Y-7695000D01*
X-9950000Y-4637501D02*
X-10200000Y-4387501D01*
X-800000Y-9300000D02*
X-8453554Y-9300000D01*
D20*
X-2450000Y-7695000D02*
X-2450000Y-6846002D01*
X2450000Y-6846002D02*
X2450000Y-7695000D01*
X-2189999Y-5389999D02*
X-2100000Y-5300000D01*
X-11200000Y-3225000D02*
X-11200000Y-2549998D01*
X2189999Y-5989999D02*
X2189999Y-6586001D01*
X-11200000Y-2549998D02*
X-10725001Y-2074999D01*
X-7096129Y-2074999D02*
X-3871128Y-5300000D01*
X-3871128Y-5300000D02*
X-2100000Y-5300000D01*
X-2450000Y-6846002D02*
X-2189999Y-6586001D01*
X-1500000Y-5300000D02*
X1500000Y-5300000D01*
X-2189999Y-6586001D02*
X-2189999Y-5389999D01*
X-10725001Y-2074999D02*
X-7096129Y-2074999D01*
X-2100000Y-5300000D02*
X-1500000Y-5300000D01*
X1500000Y-5300000D02*
X2189999Y-5989999D01*
X2189999Y-6586001D02*
X2450000Y-6846002D01*
D19*
X6225000Y-3800000D02*
X6600000Y-4175000D01*
X4703151Y-3825010D02*
X4728161Y-3800000D01*
X-1750000Y-7695000D02*
X-1750000Y-6853122D01*
X3911839Y-3800000D02*
X3936849Y-3825010D01*
X-1750000Y-6853122D02*
X-1400000Y-6503122D01*
X1800000Y-3800000D02*
X3911839Y-3800000D01*
X4728161Y-3800000D02*
X6225000Y-3800000D01*
X-1400000Y-6503122D02*
X-1400000Y-6075000D01*
X3936849Y-3825010D02*
X4703151Y-3825010D01*
X7675000Y-4900000D02*
X8400000Y-4175000D01*
X3000000Y-4900000D02*
X7675000Y-4900000D01*
X1250000Y-7695000D02*
X1250000Y-6250000D01*
X1250000Y-6250000D02*
X1200000Y-6200000D01*
D21*
X12262500Y-3887500D02*
X12400000Y-4025000D01*
X12400000Y-4025000D02*
X16375000Y-4025000D01*
X16375000Y-4025000D02*
X18000000Y-5650000D01*
X10400000Y-3887500D02*
X12262500Y-3887500D01*
D22*
X-12030537Y-2095506D02*
X-12089502Y-2205820D01*
X-12125812Y-2325518D01*
X-12138072Y-2450000D01*
X-12138072Y-4000000D01*
X-12125812Y-4124482D01*
X-12089502Y-4244180D01*
X-12030537Y-4354494D01*
X-11951185Y-4451185D01*
X-11854494Y-4530537D01*
X-11744180Y-4589502D01*
X-11624482Y-4625812D01*
X-11500000Y-4638072D01*
X-10918188Y-4638072D01*
X-10907345Y-4673815D01*
X-10905546Y-4679747D01*
X-10834974Y-4811777D01*
X-10795165Y-4860284D01*
X-10740001Y-4927502D01*
X-10710998Y-4951304D01*
X-10709999Y-4952303D01*
X-10710000Y-7766231D01*
X-10713676Y-7803554D01*
X-10710000Y-7840876D01*
X-10710000Y-7840886D01*
X-10699003Y-7952539D01*
X-10659855Y-8081595D01*
X-10655546Y-8095800D01*
X-10584974Y-8227830D01*
X-10549932Y-8270528D01*
X-10490001Y-8343555D01*
X-10460997Y-8367358D01*
X-9538356Y-9290000D01*
X-16766400Y-9290000D01*
X-16183446Y-9048533D01*
X-15555330Y-8628839D01*
X-15021161Y-8094670D01*
X-14957905Y-8000000D01*
X-13738072Y-8000000D01*
X-13725812Y-8124482D01*
X-13689502Y-8244180D01*
X-13630537Y-8354494D01*
X-13551185Y-8451185D01*
X-13454494Y-8530537D01*
X-13344180Y-8589502D01*
X-13224482Y-8625812D01*
X-13100000Y-8638072D01*
X-12785750Y-8635000D01*
X-12627000Y-8476250D01*
X-12627000Y-7227000D01*
X-12373000Y-7227000D01*
X-12373000Y-8476250D01*
X-12214250Y-8635000D01*
X-11900000Y-8638072D01*
X-11775518Y-8625812D01*
X-11655820Y-8589502D01*
X-11545506Y-8530537D01*
X-11448815Y-8451185D01*
X-11369463Y-8354494D01*
X-11310498Y-8244180D01*
X-11274188Y-8124482D01*
X-11261928Y-8000000D01*
X-11265000Y-7385750D01*
X-11423750Y-7227000D01*
X-12373000Y-7227000D01*
X-12627000Y-7227000D01*
X-13576250Y-7227000D01*
X-13735000Y-7385750D01*
X-13738072Y-8000000D01*
X-14957905Y-8000000D01*
X-14601467Y-7466554D01*
X-14312377Y-6768628D01*
X-14199270Y-6200000D01*
X-13738072Y-6200000D01*
X-13735000Y-6814250D01*
X-13576250Y-6973000D01*
X-12627000Y-6973000D01*
X-12627000Y-5723750D01*
X-12373000Y-5723750D01*
X-12373000Y-6973000D01*
X-11423750Y-6973000D01*
X-11265000Y-6814250D01*
X-11261928Y-6200000D01*
X-11274188Y-6075518D01*
X-11310498Y-5955820D01*
X-11369463Y-5845506D01*
X-11448815Y-5748815D01*
X-11545506Y-5669463D01*
X-11655820Y-5610498D01*
X-11775518Y-5574188D01*
X-11900000Y-5561928D01*
X-12214250Y-5565000D01*
X-12373000Y-5723750D01*
X-12627000Y-5723750D01*
X-12785750Y-5565000D01*
X-13100000Y-5561928D01*
X-13224482Y-5574188D01*
X-13344180Y-5610498D01*
X-13454494Y-5669463D01*
X-13551185Y-5748815D01*
X-13630537Y-5845506D01*
X-13689502Y-5955820D01*
X-13725812Y-6075518D01*
X-13738072Y-6200000D01*
X-14199270Y-6200000D01*
X-14165000Y-6027715D01*
X-14165000Y-5272285D01*
X-14312377Y-4531372D01*
X-14601467Y-3833446D01*
X-15021161Y-3205330D01*
X-15555330Y-2671161D01*
X-16183446Y-2251467D01*
X-16766400Y-2010000D01*
X-11960364Y-2010000D01*
X-12030537Y-2095506D01*
G04 #@! TA.AperFunction,Conductor*
D23*
G36*
X-12030537Y-2095506D02*
G01*
X-12089502Y-2205820D01*
X-12125812Y-2325518D01*
X-12138072Y-2450000D01*
X-12138072Y-4000000D01*
X-12125812Y-4124482D01*
X-12089502Y-4244180D01*
X-12030537Y-4354494D01*
X-11951185Y-4451185D01*
X-11854494Y-4530537D01*
X-11744180Y-4589502D01*
X-11624482Y-4625812D01*
X-11500000Y-4638072D01*
X-10918188Y-4638072D01*
X-10907345Y-4673815D01*
X-10905546Y-4679747D01*
X-10834974Y-4811777D01*
X-10795165Y-4860284D01*
X-10740001Y-4927502D01*
X-10710998Y-4951304D01*
X-10709999Y-4952303D01*
X-10710000Y-7766231D01*
X-10713676Y-7803554D01*
X-10710000Y-7840876D01*
X-10710000Y-7840886D01*
X-10699003Y-7952539D01*
X-10659855Y-8081595D01*
X-10655546Y-8095800D01*
X-10584974Y-8227830D01*
X-10549932Y-8270528D01*
X-10490001Y-8343555D01*
X-10460997Y-8367358D01*
X-9538356Y-9290000D01*
X-16766400Y-9290000D01*
X-16183446Y-9048533D01*
X-15555330Y-8628839D01*
X-15021161Y-8094670D01*
X-14957905Y-8000000D01*
X-13738072Y-8000000D01*
X-13725812Y-8124482D01*
X-13689502Y-8244180D01*
X-13630537Y-8354494D01*
X-13551185Y-8451185D01*
X-13454494Y-8530537D01*
X-13344180Y-8589502D01*
X-13224482Y-8625812D01*
X-13100000Y-8638072D01*
X-12785750Y-8635000D01*
X-12627000Y-8476250D01*
X-12627000Y-7227000D01*
X-12373000Y-7227000D01*
X-12373000Y-8476250D01*
X-12214250Y-8635000D01*
X-11900000Y-8638072D01*
X-11775518Y-8625812D01*
X-11655820Y-8589502D01*
X-11545506Y-8530537D01*
X-11448815Y-8451185D01*
X-11369463Y-8354494D01*
X-11310498Y-8244180D01*
X-11274188Y-8124482D01*
X-11261928Y-8000000D01*
X-11265000Y-7385750D01*
X-11423750Y-7227000D01*
X-12373000Y-7227000D01*
X-12627000Y-7227000D01*
X-13576250Y-7227000D01*
X-13735000Y-7385750D01*
X-13738072Y-8000000D01*
X-14957905Y-8000000D01*
X-14601467Y-7466554D01*
X-14312377Y-6768628D01*
X-14199270Y-6200000D01*
X-13738072Y-6200000D01*
X-13735000Y-6814250D01*
X-13576250Y-6973000D01*
X-12627000Y-6973000D01*
X-12627000Y-5723750D01*
X-12373000Y-5723750D01*
X-12373000Y-6973000D01*
X-11423750Y-6973000D01*
X-11265000Y-6814250D01*
X-11261928Y-6200000D01*
X-11274188Y-6075518D01*
X-11310498Y-5955820D01*
X-11369463Y-5845506D01*
X-11448815Y-5748815D01*
X-11545506Y-5669463D01*
X-11655820Y-5610498D01*
X-11775518Y-5574188D01*
X-11900000Y-5561928D01*
X-12214250Y-5565000D01*
X-12373000Y-5723750D01*
X-12627000Y-5723750D01*
X-12785750Y-5565000D01*
X-13100000Y-5561928D01*
X-13224482Y-5574188D01*
X-13344180Y-5610498D01*
X-13454494Y-5669463D01*
X-13551185Y-5748815D01*
X-13630537Y-5845506D01*
X-13689502Y-5955820D01*
X-13725812Y-6075518D01*
X-13738072Y-6200000D01*
X-14199270Y-6200000D01*
X-14165000Y-6027715D01*
X-14165000Y-5272285D01*
X-14312377Y-4531372D01*
X-14601467Y-3833446D01*
X-15021161Y-3205330D01*
X-15555330Y-2671161D01*
X-16183446Y-2251467D01*
X-16766400Y-2010000D01*
X-11960364Y-2010000D01*
X-12030537Y-2095506D01*
G37*
G04 #@! TD.AperFunction*
D22*
X14165000Y-5272285D02*
X14165000Y-6027715D01*
X14312377Y-6768628D01*
X14601467Y-7466554D01*
X15021161Y-8094670D01*
X15555330Y-8628839D01*
X16183446Y-9048533D01*
X16766400Y-9290000D01*
X1193912Y-9290000D01*
X1200002Y-9285002D01*
X1223805Y-9255998D01*
X1260998Y-9218805D01*
X1290001Y-9195003D01*
X1384974Y-9079278D01*
X1396309Y-9058072D01*
X1400000Y-9058072D01*
X1500000Y-9048223D01*
X1600000Y-9058072D01*
X1900000Y-9058072D01*
X2024482Y-9045812D01*
X2031250Y-9043759D01*
X2038018Y-9045812D01*
X2162500Y-9058072D01*
X2737500Y-9058072D01*
X2837500Y-9048223D01*
X2937500Y-9058072D01*
X2939250Y-9055000D01*
X2988271Y-9005979D01*
X3091994Y-8950537D01*
X3188685Y-8871185D01*
X3268037Y-8774494D01*
X3327002Y-8664180D01*
X3352000Y-8581773D01*
X3352000Y-8896250D01*
X3510750Y-9055000D01*
X3512500Y-9058072D01*
X3636982Y-9045812D01*
X3756680Y-9009502D01*
X3866994Y-8950537D01*
X3963685Y-8871185D01*
X4043037Y-8774494D01*
X4102002Y-8664180D01*
X4135779Y-8552831D01*
X4320000Y-8570975D01*
X4562101Y-8547130D01*
X4794900Y-8476511D01*
X5009448Y-8361833D01*
X5197502Y-8207502D01*
X5351833Y-8019449D01*
X5466511Y-7804901D01*
X5537130Y-7572102D01*
X5555000Y-7390665D01*
X5555000Y-6505665D01*
X5594463Y-6579494D01*
X5673815Y-6676185D01*
X5770506Y-6755537D01*
X5880820Y-6814502D01*
X6000518Y-6850812D01*
X6125000Y-6863072D01*
X6314250Y-6860000D01*
X6473000Y-6701250D01*
X6473000Y-5952000D01*
X6727000Y-5952000D01*
X6727000Y-6701250D01*
X6885750Y-6860000D01*
X7075000Y-6863072D01*
X7199482Y-6850812D01*
X7319180Y-6814502D01*
X7429494Y-6755537D01*
X7500000Y-6697674D01*
X7570506Y-6755537D01*
X7680820Y-6814502D01*
X7800518Y-6850812D01*
X7925000Y-6863072D01*
X8114250Y-6860000D01*
X8273000Y-6701250D01*
X8273000Y-5952000D01*
X8527000Y-5952000D01*
X8527000Y-6701250D01*
X8685750Y-6860000D01*
X8875000Y-6863072D01*
X8999482Y-6850812D01*
X9119180Y-6814502D01*
X9229494Y-6755537D01*
X9287500Y-6707933D01*
X9345506Y-6755537D01*
X9455820Y-6814502D01*
X9575518Y-6850812D01*
X9700000Y-6863072D01*
X10114250Y-6860000D01*
X10273000Y-6701250D01*
X10273000Y-5839500D01*
X9223750Y-5839500D01*
X9111250Y-5952000D01*
X8527000Y-5952000D01*
X8273000Y-5952000D01*
X6727000Y-5952000D01*
X6473000Y-5952000D01*
X5648750Y-5952000D01*
X5543919Y-6056831D01*
X5537130Y-5987898D01*
X5466511Y-5755099D01*
X5415680Y-5660000D01*
X5610750Y-5660000D01*
X5648750Y-5698000D01*
X6473000Y-5698000D01*
X6473000Y-5678000D01*
X6727000Y-5678000D01*
X6727000Y-5698000D01*
X8273000Y-5698000D01*
X8273000Y-5678000D01*
X8527000Y-5678000D01*
X8527000Y-5698000D01*
X9351250Y-5698000D01*
X9463750Y-5585500D01*
X10273000Y-5585500D01*
X10273000Y-5565500D01*
X10527000Y-5565500D01*
X10527000Y-5585500D01*
X10547000Y-5585500D01*
X10547000Y-5839500D01*
X10527000Y-5839500D01*
X10527000Y-6701250D01*
X10685750Y-6860000D01*
X11100000Y-6863072D01*
X11224482Y-6850812D01*
X11344180Y-6814502D01*
X11454494Y-6755537D01*
X11551185Y-6676185D01*
X11625899Y-6585146D01*
X11680820Y-6614502D01*
X11800518Y-6650812D01*
X11925000Y-6663072D01*
X12114250Y-6660000D01*
X12273000Y-6501250D01*
X12273000Y-5702000D01*
X12527000Y-5702000D01*
X12527000Y-6501250D01*
X12685750Y-6660000D01*
X12875000Y-6663072D01*
X12999482Y-6650812D01*
X13119180Y-6614502D01*
X13229494Y-6555537D01*
X13326185Y-6476185D01*
X13405537Y-6379494D01*
X13464502Y-6269180D01*
X13500812Y-6149482D01*
X13513072Y-6025000D01*
X13510000Y-5860750D01*
X13351250Y-5702000D01*
X12527000Y-5702000D01*
X12273000Y-5702000D01*
X12253000Y-5702000D01*
X12253000Y-5448000D01*
X12273000Y-5448000D01*
X12273000Y-5428000D01*
X12527000Y-5428000D01*
X12527000Y-5448000D01*
X13351250Y-5448000D01*
X13510000Y-5289250D01*
X13513072Y-5125000D01*
X13506670Y-5060000D01*
X14207226Y-5060000D01*
X14165000Y-5272285D01*
G04 #@! TA.AperFunction,Conductor*
D23*
G36*
X14165000Y-5272285D02*
G01*
X14165000Y-6027715D01*
X14312377Y-6768628D01*
X14601467Y-7466554D01*
X15021161Y-8094670D01*
X15555330Y-8628839D01*
X16183446Y-9048533D01*
X16766400Y-9290000D01*
X1193912Y-9290000D01*
X1200002Y-9285002D01*
X1223805Y-9255998D01*
X1260998Y-9218805D01*
X1290001Y-9195003D01*
X1384974Y-9079278D01*
X1396309Y-9058072D01*
X1400000Y-9058072D01*
X1500000Y-9048223D01*
X1600000Y-9058072D01*
X1900000Y-9058072D01*
X2024482Y-9045812D01*
X2031250Y-9043759D01*
X2038018Y-9045812D01*
X2162500Y-9058072D01*
X2737500Y-9058072D01*
X2837500Y-9048223D01*
X2937500Y-9058072D01*
X2939250Y-9055000D01*
X2988271Y-9005979D01*
X3091994Y-8950537D01*
X3188685Y-8871185D01*
X3268037Y-8774494D01*
X3327002Y-8664180D01*
X3352000Y-8581773D01*
X3352000Y-8896250D01*
X3510750Y-9055000D01*
X3512500Y-9058072D01*
X3636982Y-9045812D01*
X3756680Y-9009502D01*
X3866994Y-8950537D01*
X3963685Y-8871185D01*
X4043037Y-8774494D01*
X4102002Y-8664180D01*
X4135779Y-8552831D01*
X4320000Y-8570975D01*
X4562101Y-8547130D01*
X4794900Y-8476511D01*
X5009448Y-8361833D01*
X5197502Y-8207502D01*
X5351833Y-8019449D01*
X5466511Y-7804901D01*
X5537130Y-7572102D01*
X5555000Y-7390665D01*
X5555000Y-6505665D01*
X5594463Y-6579494D01*
X5673815Y-6676185D01*
X5770506Y-6755537D01*
X5880820Y-6814502D01*
X6000518Y-6850812D01*
X6125000Y-6863072D01*
X6314250Y-6860000D01*
X6473000Y-6701250D01*
X6473000Y-5952000D01*
X6727000Y-5952000D01*
X6727000Y-6701250D01*
X6885750Y-6860000D01*
X7075000Y-6863072D01*
X7199482Y-6850812D01*
X7319180Y-6814502D01*
X7429494Y-6755537D01*
X7500000Y-6697674D01*
X7570506Y-6755537D01*
X7680820Y-6814502D01*
X7800518Y-6850812D01*
X7925000Y-6863072D01*
X8114250Y-6860000D01*
X8273000Y-6701250D01*
X8273000Y-5952000D01*
X8527000Y-5952000D01*
X8527000Y-6701250D01*
X8685750Y-6860000D01*
X8875000Y-6863072D01*
X8999482Y-6850812D01*
X9119180Y-6814502D01*
X9229494Y-6755537D01*
X9287500Y-6707933D01*
X9345506Y-6755537D01*
X9455820Y-6814502D01*
X9575518Y-6850812D01*
X9700000Y-6863072D01*
X10114250Y-6860000D01*
X10273000Y-6701250D01*
X10273000Y-5839500D01*
X9223750Y-5839500D01*
X9111250Y-5952000D01*
X8527000Y-5952000D01*
X8273000Y-5952000D01*
X6727000Y-5952000D01*
X6473000Y-5952000D01*
X5648750Y-5952000D01*
X5543919Y-6056831D01*
X5537130Y-5987898D01*
X5466511Y-5755099D01*
X5415680Y-5660000D01*
X5610750Y-5660000D01*
X5648750Y-5698000D01*
X6473000Y-5698000D01*
X6473000Y-5678000D01*
X6727000Y-5678000D01*
X6727000Y-5698000D01*
X8273000Y-5698000D01*
X8273000Y-5678000D01*
X8527000Y-5678000D01*
X8527000Y-5698000D01*
X9351250Y-5698000D01*
X9463750Y-5585500D01*
X10273000Y-5585500D01*
X10273000Y-5565500D01*
X10527000Y-5565500D01*
X10527000Y-5585500D01*
X10547000Y-5585500D01*
X10547000Y-5839500D01*
X10527000Y-5839500D01*
X10527000Y-6701250D01*
X10685750Y-6860000D01*
X11100000Y-6863072D01*
X11224482Y-6850812D01*
X11344180Y-6814502D01*
X11454494Y-6755537D01*
X11551185Y-6676185D01*
X11625899Y-6585146D01*
X11680820Y-6614502D01*
X11800518Y-6650812D01*
X11925000Y-6663072D01*
X12114250Y-6660000D01*
X12273000Y-6501250D01*
X12273000Y-5702000D01*
X12527000Y-5702000D01*
X12527000Y-6501250D01*
X12685750Y-6660000D01*
X12875000Y-6663072D01*
X12999482Y-6650812D01*
X13119180Y-6614502D01*
X13229494Y-6555537D01*
X13326185Y-6476185D01*
X13405537Y-6379494D01*
X13464502Y-6269180D01*
X13500812Y-6149482D01*
X13513072Y-6025000D01*
X13510000Y-5860750D01*
X13351250Y-5702000D01*
X12527000Y-5702000D01*
X12273000Y-5702000D01*
X12253000Y-5702000D01*
X12253000Y-5448000D01*
X12273000Y-5448000D01*
X12273000Y-5428000D01*
X12527000Y-5428000D01*
X12527000Y-5448000D01*
X13351250Y-5448000D01*
X13510000Y-5289250D01*
X13513072Y-5125000D01*
X13506670Y-5060000D01*
X14207226Y-5060000D01*
X14165000Y-5272285D01*
G37*
G04 #@! TD.AperFunction*
D22*
X-5069330Y-5247311D02*
X-5197501Y-5352498D01*
X-5351832Y-5540551D01*
X-5466511Y-5755099D01*
X-5537130Y-5987898D01*
X-5555000Y-6169335D01*
X-5555000Y-7390664D01*
X-5537130Y-7572101D01*
X-5466511Y-7804900D01*
X-5351833Y-8019448D01*
X-5293933Y-8090000D01*
X-5670792Y-8090000D01*
X-5661928Y-8000000D01*
X-5665000Y-7385750D01*
X-5823750Y-7227000D01*
X-6773000Y-7227000D01*
X-6773000Y-7247000D01*
X-7027000Y-7247000D01*
X-7027000Y-7227000D01*
X-7976250Y-7227000D01*
X-8135000Y-7385750D01*
X-8137244Y-7834401D01*
X-8690000Y-7281645D01*
X-8690000Y-6200000D01*
X-8138072Y-6200000D01*
X-8135000Y-6814250D01*
X-7976250Y-6973000D01*
X-7027000Y-6973000D01*
X-7027000Y-5723750D01*
X-6773000Y-5723750D01*
X-6773000Y-6973000D01*
X-5823750Y-6973000D01*
X-5665000Y-6814250D01*
X-5661928Y-6200000D01*
X-5674188Y-6075518D01*
X-5710498Y-5955820D01*
X-5769463Y-5845506D01*
X-5848815Y-5748815D01*
X-5945506Y-5669463D01*
X-6055820Y-5610498D01*
X-6175518Y-5574188D01*
X-6300000Y-5561928D01*
X-6614250Y-5565000D01*
X-6773000Y-5723750D01*
X-7027000Y-5723750D01*
X-7185750Y-5565000D01*
X-7500000Y-5561928D01*
X-7624482Y-5574188D01*
X-7744180Y-5610498D01*
X-7854494Y-5669463D01*
X-7951185Y-5748815D01*
X-8030537Y-5845506D01*
X-8089502Y-5955820D01*
X-8125812Y-6075518D01*
X-8138072Y-6200000D01*
X-8690000Y-6200000D01*
X-8690000Y-4814802D01*
X-8688997Y-4813799D01*
X-8659999Y-4790001D01*
X-8565026Y-4674276D01*
X-8543390Y-4633799D01*
X-8500000Y-4638072D01*
X-8485750Y-4635000D01*
X-8327000Y-4476250D01*
X-8327000Y-4275053D01*
X-8310498Y-4244180D01*
X-8274188Y-4124482D01*
X-8261928Y-4000000D01*
X-8261928Y-3352000D01*
X-8073000Y-3352000D01*
X-8073000Y-4476250D01*
X-7914250Y-4635000D01*
X-7900000Y-4638072D01*
X-7775518Y-4625812D01*
X-7655820Y-4589502D01*
X-7545506Y-4530537D01*
X-7448815Y-4451185D01*
X-7369463Y-4354494D01*
X-7310498Y-4244180D01*
X-7274188Y-4124482D01*
X-7261928Y-4000000D01*
X-7265000Y-3510750D01*
X-7423750Y-3352000D01*
X-8073000Y-3352000D01*
X-8261928Y-3352000D01*
X-8261928Y-3078000D01*
X-8073000Y-3078000D01*
X-8073000Y-3098000D01*
X-7423750Y-3098000D01*
X-7321195Y-2995445D01*
X-5069330Y-5247311D01*
G04 #@! TA.AperFunction,Conductor*
D23*
G36*
X-5069330Y-5247311D02*
G01*
X-5197501Y-5352498D01*
X-5351832Y-5540551D01*
X-5466511Y-5755099D01*
X-5537130Y-5987898D01*
X-5555000Y-6169335D01*
X-5555000Y-7390664D01*
X-5537130Y-7572101D01*
X-5466511Y-7804900D01*
X-5351833Y-8019448D01*
X-5293933Y-8090000D01*
X-5670792Y-8090000D01*
X-5661928Y-8000000D01*
X-5665000Y-7385750D01*
X-5823750Y-7227000D01*
X-6773000Y-7227000D01*
X-6773000Y-7247000D01*
X-7027000Y-7247000D01*
X-7027000Y-7227000D01*
X-7976250Y-7227000D01*
X-8135000Y-7385750D01*
X-8137244Y-7834401D01*
X-8690000Y-7281645D01*
X-8690000Y-6200000D01*
X-8138072Y-6200000D01*
X-8135000Y-6814250D01*
X-7976250Y-6973000D01*
X-7027000Y-6973000D01*
X-7027000Y-5723750D01*
X-6773000Y-5723750D01*
X-6773000Y-6973000D01*
X-5823750Y-6973000D01*
X-5665000Y-6814250D01*
X-5661928Y-6200000D01*
X-5674188Y-6075518D01*
X-5710498Y-5955820D01*
X-5769463Y-5845506D01*
X-5848815Y-5748815D01*
X-5945506Y-5669463D01*
X-6055820Y-5610498D01*
X-6175518Y-5574188D01*
X-6300000Y-5561928D01*
X-6614250Y-5565000D01*
X-6773000Y-5723750D01*
X-7027000Y-5723750D01*
X-7185750Y-5565000D01*
X-7500000Y-5561928D01*
X-7624482Y-5574188D01*
X-7744180Y-5610498D01*
X-7854494Y-5669463D01*
X-7951185Y-5748815D01*
X-8030537Y-5845506D01*
X-8089502Y-5955820D01*
X-8125812Y-6075518D01*
X-8138072Y-6200000D01*
X-8690000Y-6200000D01*
X-8690000Y-4814802D01*
X-8688997Y-4813799D01*
X-8659999Y-4790001D01*
X-8565026Y-4674276D01*
X-8543390Y-4633799D01*
X-8500000Y-4638072D01*
X-8485750Y-4635000D01*
X-8327000Y-4476250D01*
X-8327000Y-4275053D01*
X-8310498Y-4244180D01*
X-8274188Y-4124482D01*
X-8261928Y-4000000D01*
X-8261928Y-3352000D01*
X-8073000Y-3352000D01*
X-8073000Y-4476250D01*
X-7914250Y-4635000D01*
X-7900000Y-4638072D01*
X-7775518Y-4625812D01*
X-7655820Y-4589502D01*
X-7545506Y-4530537D01*
X-7448815Y-4451185D01*
X-7369463Y-4354494D01*
X-7310498Y-4244180D01*
X-7274188Y-4124482D01*
X-7261928Y-4000000D01*
X-7265000Y-3510750D01*
X-7423750Y-3352000D01*
X-8073000Y-3352000D01*
X-8261928Y-3352000D01*
X-8261928Y-3078000D01*
X-8073000Y-3078000D01*
X-8073000Y-3098000D01*
X-7423750Y-3098000D01*
X-7321195Y-2995445D01*
X-5069330Y-5247311D01*
G37*
G04 #@! TD.AperFunction*
D22*
X16183446Y-2251467D02*
X15555330Y-2671161D01*
X15236491Y-2990000D01*
X12938663Y-2990000D01*
X12818377Y-2953512D01*
X12686415Y-2940515D01*
X12660493Y-2926659D01*
X12465395Y-2867476D01*
X12313338Y-2852500D01*
X12313328Y-2852500D01*
X12262500Y-2847494D01*
X12211672Y-2852500D01*
X11279600Y-2852500D01*
X11189852Y-2804528D01*
X11023256Y-2753992D01*
X10850002Y-2736928D01*
X9949998Y-2736928D01*
X9776744Y-2753992D01*
X9610148Y-2804528D01*
X9456613Y-2886595D01*
X9322038Y-2997038D01*
X9211595Y-3131613D01*
X9134892Y-3275113D01*
X8995716Y-3200722D01*
X8838500Y-3153031D01*
X8675000Y-3136928D01*
X8125000Y-3136928D01*
X7961500Y-3153031D01*
X7804284Y-3200722D01*
X7659392Y-3278169D01*
X7532394Y-3382394D01*
X7500000Y-3421866D01*
X7467606Y-3382394D01*
X7340608Y-3278169D01*
X7195716Y-3200722D01*
X7038500Y-3153031D01*
X6875000Y-3136928D01*
X6596709Y-3136928D01*
X6517247Y-3094454D01*
X6373986Y-3050997D01*
X6262333Y-3040000D01*
X6262322Y-3040000D01*
X6225000Y-3036324D01*
X6187678Y-3040000D01*
X5547186Y-3040000D01*
X5555000Y-2960665D01*
X5555000Y-2239336D01*
X5537130Y-2057899D01*
X5522600Y-2010000D01*
X16766400Y-2010000D01*
X16183446Y-2251467D01*
G04 #@! TA.AperFunction,Conductor*
D23*
G36*
X16183446Y-2251467D02*
G01*
X15555330Y-2671161D01*
X15236491Y-2990000D01*
X12938663Y-2990000D01*
X12818377Y-2953512D01*
X12686415Y-2940515D01*
X12660493Y-2926659D01*
X12465395Y-2867476D01*
X12313338Y-2852500D01*
X12313328Y-2852500D01*
X12262500Y-2847494D01*
X12211672Y-2852500D01*
X11279600Y-2852500D01*
X11189852Y-2804528D01*
X11023256Y-2753992D01*
X10850002Y-2736928D01*
X9949998Y-2736928D01*
X9776744Y-2753992D01*
X9610148Y-2804528D01*
X9456613Y-2886595D01*
X9322038Y-2997038D01*
X9211595Y-3131613D01*
X9134892Y-3275113D01*
X8995716Y-3200722D01*
X8838500Y-3153031D01*
X8675000Y-3136928D01*
X8125000Y-3136928D01*
X7961500Y-3153031D01*
X7804284Y-3200722D01*
X7659392Y-3278169D01*
X7532394Y-3382394D01*
X7500000Y-3421866D01*
X7467606Y-3382394D01*
X7340608Y-3278169D01*
X7195716Y-3200722D01*
X7038500Y-3153031D01*
X6875000Y-3136928D01*
X6596709Y-3136928D01*
X6517247Y-3094454D01*
X6373986Y-3050997D01*
X6262333Y-3040000D01*
X6262322Y-3040000D01*
X6225000Y-3036324D01*
X6187678Y-3040000D01*
X5547186Y-3040000D01*
X5555000Y-2960665D01*
X5555000Y-2239336D01*
X5537130Y-2057899D01*
X5522600Y-2010000D01*
X16766400Y-2010000D01*
X16183446Y-2251467D01*
G37*
G04 #@! TD.AperFunction*
M02*
