G04 #@! TF.GenerationSoftware,KiCad,Pcbnew,(5.1.11)-1*
G04 #@! TF.CreationDate,2022-09-06T16:53:54+07:00*
G04 #@! TF.ProjectId,Unified-Daughterboard,556e6966-6965-4642-9d44-617567687465,rev?*
G04 #@! TF.SameCoordinates,Original*
G04 #@! TF.FileFunction,Soldermask,Top*
G04 #@! TF.FilePolarity,Negative*
%FSLAX46Y46*%
G04 Gerber Fmt 4.6, Leading zero omitted, Abs format (unit mm)*
G04 Created by KiCad (PCBNEW (5.1.11)-1) date 2022-09-06 16:53:54*
%MOMM*%
%LPD*%
G01*
G04 APERTURE LIST*
%ADD10R,0.600000X1.550000*%
%ADD11R,1.200000X1.800000*%
%ADD12R,0.575000X1.450000*%
%ADD13R,0.300000X1.450000*%
%ADD14C,0.650000*%
%ADD15O,1.200000X2.300000*%
%ADD16O,1.200000X1.800000*%
%ADD17C,0.800000*%
%ADD18C,6.400000*%
G04 APERTURE END LIST*
D10*
X-9200000Y-3225000D03*
X-8200000Y-3225000D03*
X-10200000Y-3225000D03*
X-11200000Y-3225000D03*
D11*
X-12500000Y-7100000D03*
X-6900000Y-7100000D03*
G36*
G01*
X12650000Y-4475000D02*
X12150000Y-4475000D01*
G75*
G02*
X11925000Y-4250000I0J225000D01*
G01*
X11925000Y-3800000D01*
G75*
G02*
X12150000Y-3575000I225000J0D01*
G01*
X12650000Y-3575000D01*
G75*
G02*
X12875000Y-3800000I0J-225000D01*
G01*
X12875000Y-4250000D01*
G75*
G02*
X12650000Y-4475000I-225000J0D01*
G01*
G37*
G36*
G01*
X12650000Y-6025000D02*
X12150000Y-6025000D01*
G75*
G02*
X11925000Y-5800000I0J225000D01*
G01*
X11925000Y-5350000D01*
G75*
G02*
X12150000Y-5125000I225000J0D01*
G01*
X12650000Y-5125000D01*
G75*
G02*
X12875000Y-5350000I0J-225000D01*
G01*
X12875000Y-5800000D01*
G75*
G02*
X12650000Y-6025000I-225000J0D01*
G01*
G37*
D12*
X-3225000Y-7695000D03*
X3225000Y-7695000D03*
X-2450000Y-7695000D03*
X2450000Y-7695000D03*
D13*
X1750000Y-7695000D03*
X-1750000Y-7695000D03*
X1250000Y-7695000D03*
X-1250000Y-7695000D03*
X750000Y-7695000D03*
X-750000Y-7695000D03*
X-250000Y-7695000D03*
X250000Y-7695000D03*
D14*
X-2890000Y-6250000D03*
X2890000Y-6250000D03*
D15*
X4320000Y-6780000D03*
X-4320000Y-6780000D03*
D16*
X4320000Y-2600000D03*
X-4320000Y-2600000D03*
D17*
X19697056Y-3952944D03*
X18000000Y-3250000D03*
X16302944Y-3952944D03*
X15600000Y-5650000D03*
X16302944Y-7347056D03*
X18000000Y-8050000D03*
X19697056Y-7347056D03*
X20400000Y-5650000D03*
D18*
X18000000Y-5650000D03*
G36*
G01*
X8125000Y-5425000D02*
X8675000Y-5425000D01*
G75*
G02*
X8875000Y-5625000I0J-200000D01*
G01*
X8875000Y-6025000D01*
G75*
G02*
X8675000Y-6225000I-200000J0D01*
G01*
X8125000Y-6225000D01*
G75*
G02*
X7925000Y-6025000I0J200000D01*
G01*
X7925000Y-5625000D01*
G75*
G02*
X8125000Y-5425000I200000J0D01*
G01*
G37*
G36*
G01*
X8125000Y-3775000D02*
X8675000Y-3775000D01*
G75*
G02*
X8875000Y-3975000I0J-200000D01*
G01*
X8875000Y-4375000D01*
G75*
G02*
X8675000Y-4575000I-200000J0D01*
G01*
X8125000Y-4575000D01*
G75*
G02*
X7925000Y-4375000I0J200000D01*
G01*
X7925000Y-3975000D01*
G75*
G02*
X8125000Y-3775000I200000J0D01*
G01*
G37*
D17*
X-16302944Y-3952944D03*
X-18000000Y-3250000D03*
X-19697056Y-3952944D03*
X-20400000Y-5650000D03*
X-19697056Y-7347056D03*
X-18000000Y-8050000D03*
X-16302944Y-7347056D03*
X-15600000Y-5650000D03*
D18*
X-18000000Y-5650000D03*
G36*
G01*
X10850002Y-4400000D02*
X9949998Y-4400000D01*
G75*
G02*
X9700000Y-4150002I0J249998D01*
G01*
X9700000Y-3624998D01*
G75*
G02*
X9949998Y-3375000I249998J0D01*
G01*
X10850002Y-3375000D01*
G75*
G02*
X11100000Y-3624998I0J-249998D01*
G01*
X11100000Y-4150002D01*
G75*
G02*
X10850002Y-4400000I-249998J0D01*
G01*
G37*
G36*
G01*
X10850002Y-6225000D02*
X9949998Y-6225000D01*
G75*
G02*
X9700000Y-5975002I0J249998D01*
G01*
X9700000Y-5449998D01*
G75*
G02*
X9949998Y-5200000I249998J0D01*
G01*
X10850002Y-5200000D01*
G75*
G02*
X11100000Y-5449998I0J-249998D01*
G01*
X11100000Y-5975002D01*
G75*
G02*
X10850002Y-6225000I-249998J0D01*
G01*
G37*
G36*
G01*
X6325000Y-5425000D02*
X6875000Y-5425000D01*
G75*
G02*
X7075000Y-5625000I0J-200000D01*
G01*
X7075000Y-6025000D01*
G75*
G02*
X6875000Y-6225000I-200000J0D01*
G01*
X6325000Y-6225000D01*
G75*
G02*
X6125000Y-6025000I0J200000D01*
G01*
X6125000Y-5625000D01*
G75*
G02*
X6325000Y-5425000I200000J0D01*
G01*
G37*
G36*
G01*
X6325000Y-3775000D02*
X6875000Y-3775000D01*
G75*
G02*
X7075000Y-3975000I0J-200000D01*
G01*
X7075000Y-4375000D01*
G75*
G02*
X6875000Y-4575000I-200000J0D01*
G01*
X6325000Y-4575000D01*
G75*
G02*
X6125000Y-4375000I0J200000D01*
G01*
X6125000Y-3975000D01*
G75*
G02*
X6325000Y-3775000I200000J0D01*
G01*
G37*
M02*
