G04 #@! TF.GenerationSoftware,KiCad,Pcbnew,(5.1.11)-1*
G04 #@! TF.CreationDate,2022-09-06T16:53:54+07:00*
G04 #@! TF.ProjectId,Unified-Daughterboard,556e6966-6965-4642-9d44-617567687465,rev?*
G04 #@! TF.SameCoordinates,Original*
G04 #@! TF.FileFunction,Copper,L2,Bot*
G04 #@! TF.FilePolarity,Positive*
%FSLAX46Y46*%
G04 Gerber Fmt 4.6, Leading zero omitted, Abs format (unit mm)*
G04 Created by KiCad (PCBNEW (5.1.11)-1) date 2022-09-06 16:53:54*
%MOMM*%
%LPD*%
G01*
G04 APERTURE LIST*
G04 #@! TA.AperFunction,ComponentPad*
%ADD10O,1.200000X2.300000*%
G04 #@! TD*
G04 #@! TA.AperFunction,ComponentPad*
%ADD11O,1.200000X1.800000*%
G04 #@! TD*
G04 #@! TA.AperFunction,ComponentPad*
%ADD12C,0.800000*%
G04 #@! TD*
G04 #@! TA.AperFunction,ComponentPad*
%ADD13C,6.400000*%
G04 #@! TD*
G04 #@! TA.AperFunction,ViaPad*
%ADD14C,0.800000*%
G04 #@! TD*
G04 #@! TA.AperFunction,Conductor*
%ADD15C,0.250000*%
G04 #@! TD*
G04 #@! TA.AperFunction,Conductor*
%ADD16C,0.800000*%
G04 #@! TD*
G04 #@! TA.AperFunction,Conductor*
%ADD17C,0.254000*%
G04 #@! TD*
G04 #@! TA.AperFunction,Conductor*
%ADD18C,0.100000*%
G04 #@! TD*
G04 APERTURE END LIST*
D10*
X4320000Y-6780000D03*
X-4320000Y-6780000D03*
D11*
X4320000Y-2600000D03*
X-4320000Y-2600000D03*
D12*
X19697056Y-3952944D03*
X18000000Y-3250000D03*
X16302944Y-3952944D03*
X15600000Y-5650000D03*
X16302944Y-7347056D03*
X18000000Y-8050000D03*
X19697056Y-7347056D03*
X20400000Y-5650000D03*
D13*
X18000000Y-5650000D03*
D12*
X-16302944Y-3952944D03*
X-18000000Y-3250000D03*
X-19697056Y-3952944D03*
X-20400000Y-5650000D03*
X-19697056Y-7347056D03*
X-18000000Y-8050000D03*
X-16302944Y-7347056D03*
X-15600000Y-5650000D03*
D13*
X-18000000Y-5650000D03*
D14*
X-6600000Y-4800000D03*
X13800000Y-5400000D03*
X1800000Y-9200000D03*
X-10600000Y-8800000D03*
X-11000000Y-5200000D03*
X5800000Y-8600000D03*
X6200000Y-2600000D03*
X-5600000Y-8124990D03*
X1800000Y-3800000D03*
X-1400000Y-6075000D03*
X3000000Y-4900000D03*
X1200000Y-6200000D03*
D15*
X-1400000Y-6075000D02*
X-1400000Y-6000000D01*
X-1400000Y-6000000D02*
X800000Y-3800000D01*
X800000Y-3800000D02*
X1800000Y-3800000D01*
X1200000Y-6200000D02*
X2500000Y-4900000D01*
X2500000Y-4900000D02*
X3000000Y-4900000D01*
D16*
X-4320000Y-2600000D02*
X4320000Y-2600000D01*
X16870000Y-6780000D02*
X18000000Y-5650000D01*
X-4320000Y-6780000D02*
X-16870000Y-6780000D01*
X-4320000Y-6780000D02*
X-4320000Y-2600000D01*
X4320000Y-2600000D02*
X4320000Y-6780000D01*
X-16870000Y-6780000D02*
X-18000000Y-5650000D01*
X4320000Y-6780000D02*
X16870000Y-6780000D01*
D17*
X1140226Y-4603937D02*
X1309744Y-4717205D01*
X1498102Y-4795226D01*
X1524685Y-4800514D01*
X1160199Y-5165000D01*
X1098061Y-5165000D01*
X898102Y-5204774D01*
X709744Y-5282795D01*
X540226Y-5396063D01*
X396063Y-5540226D01*
X282795Y-5709744D01*
X204774Y-5898102D01*
X165000Y-6098061D01*
X165000Y-6301939D01*
X204774Y-6501898D01*
X282795Y-6690256D01*
X396063Y-6859774D01*
X540226Y-7003937D01*
X709744Y-7117205D01*
X898102Y-7195226D01*
X1098061Y-7235000D01*
X1301939Y-7235000D01*
X1501898Y-7195226D01*
X1690256Y-7117205D01*
X1859774Y-7003937D01*
X2003937Y-6859774D01*
X2073396Y-6755821D01*
X2144319Y-6861964D01*
X2278036Y-6995681D01*
X2435269Y-7100741D01*
X2609978Y-7173108D01*
X2795448Y-7210000D01*
X2984552Y-7210000D01*
X3085000Y-7190020D01*
X3085000Y-7390664D01*
X3102870Y-7572101D01*
X3173489Y-7804900D01*
X3288167Y-8019448D01*
X3442498Y-8207502D01*
X3630551Y-8361833D01*
X3845099Y-8476511D01*
X4077898Y-8547130D01*
X4320000Y-8570975D01*
X4562101Y-8547130D01*
X4794900Y-8476511D01*
X5009448Y-8361833D01*
X5197502Y-8207502D01*
X5351833Y-8019449D01*
X5461113Y-7815000D01*
X14834291Y-7815000D01*
X15021161Y-8094670D01*
X15555330Y-8628839D01*
X16183446Y-9048533D01*
X16766400Y-9290000D01*
X-16766400Y-9290000D01*
X-16183446Y-9048533D01*
X-15555330Y-8628839D01*
X-15021161Y-8094670D01*
X-14834291Y-7815000D01*
X-5461112Y-7815000D01*
X-5351833Y-8019448D01*
X-5197502Y-8207502D01*
X-5009449Y-8361833D01*
X-4794901Y-8476511D01*
X-4562102Y-8547130D01*
X-4320000Y-8570975D01*
X-4077899Y-8547130D01*
X-3845100Y-8476511D01*
X-3630552Y-8361833D01*
X-3442498Y-8207502D01*
X-3288167Y-8019449D01*
X-3173489Y-7804901D01*
X-3102870Y-7572102D01*
X-3085000Y-7390665D01*
X-3085000Y-7190020D01*
X-2984552Y-7210000D01*
X-2795448Y-7210000D01*
X-2609978Y-7173108D01*
X-2435269Y-7100741D01*
X-2278036Y-6995681D01*
X-2144319Y-6861964D01*
X-2117253Y-6821458D01*
X-2059774Y-6878937D01*
X-1890256Y-6992205D01*
X-1701898Y-7070226D01*
X-1501939Y-7110000D01*
X-1298061Y-7110000D01*
X-1098102Y-7070226D01*
X-909744Y-6992205D01*
X-740226Y-6878937D01*
X-596063Y-6734774D01*
X-482795Y-6565256D01*
X-404774Y-6376898D01*
X-365000Y-6176939D01*
X-365000Y-6039801D01*
X1105545Y-4569256D01*
X1140226Y-4603937D01*
G04 #@! TA.AperFunction,Conductor*
D18*
G36*
X1140226Y-4603937D02*
G01*
X1309744Y-4717205D01*
X1498102Y-4795226D01*
X1524685Y-4800514D01*
X1160199Y-5165000D01*
X1098061Y-5165000D01*
X898102Y-5204774D01*
X709744Y-5282795D01*
X540226Y-5396063D01*
X396063Y-5540226D01*
X282795Y-5709744D01*
X204774Y-5898102D01*
X165000Y-6098061D01*
X165000Y-6301939D01*
X204774Y-6501898D01*
X282795Y-6690256D01*
X396063Y-6859774D01*
X540226Y-7003937D01*
X709744Y-7117205D01*
X898102Y-7195226D01*
X1098061Y-7235000D01*
X1301939Y-7235000D01*
X1501898Y-7195226D01*
X1690256Y-7117205D01*
X1859774Y-7003937D01*
X2003937Y-6859774D01*
X2073396Y-6755821D01*
X2144319Y-6861964D01*
X2278036Y-6995681D01*
X2435269Y-7100741D01*
X2609978Y-7173108D01*
X2795448Y-7210000D01*
X2984552Y-7210000D01*
X3085000Y-7190020D01*
X3085000Y-7390664D01*
X3102870Y-7572101D01*
X3173489Y-7804900D01*
X3288167Y-8019448D01*
X3442498Y-8207502D01*
X3630551Y-8361833D01*
X3845099Y-8476511D01*
X4077898Y-8547130D01*
X4320000Y-8570975D01*
X4562101Y-8547130D01*
X4794900Y-8476511D01*
X5009448Y-8361833D01*
X5197502Y-8207502D01*
X5351833Y-8019449D01*
X5461113Y-7815000D01*
X14834291Y-7815000D01*
X15021161Y-8094670D01*
X15555330Y-8628839D01*
X16183446Y-9048533D01*
X16766400Y-9290000D01*
X-16766400Y-9290000D01*
X-16183446Y-9048533D01*
X-15555330Y-8628839D01*
X-15021161Y-8094670D01*
X-14834291Y-7815000D01*
X-5461112Y-7815000D01*
X-5351833Y-8019448D01*
X-5197502Y-8207502D01*
X-5009449Y-8361833D01*
X-4794901Y-8476511D01*
X-4562102Y-8547130D01*
X-4320000Y-8570975D01*
X-4077899Y-8547130D01*
X-3845100Y-8476511D01*
X-3630552Y-8361833D01*
X-3442498Y-8207502D01*
X-3288167Y-8019449D01*
X-3173489Y-7804901D01*
X-3102870Y-7572102D01*
X-3085000Y-7390665D01*
X-3085000Y-7190020D01*
X-2984552Y-7210000D01*
X-2795448Y-7210000D01*
X-2609978Y-7173108D01*
X-2435269Y-7100741D01*
X-2278036Y-6995681D01*
X-2144319Y-6861964D01*
X-2117253Y-6821458D01*
X-2059774Y-6878937D01*
X-1890256Y-6992205D01*
X-1701898Y-7070226D01*
X-1501939Y-7110000D01*
X-1298061Y-7110000D01*
X-1098102Y-7070226D01*
X-909744Y-6992205D01*
X-740226Y-6878937D01*
X-596063Y-6734774D01*
X-482795Y-6565256D01*
X-404774Y-6376898D01*
X-365000Y-6176939D01*
X-365000Y-6039801D01*
X1105545Y-4569256D01*
X1140226Y-4603937D01*
G37*
G04 #@! TD.AperFunction*
D17*
X16183446Y-2251467D02*
X15555330Y-2671161D01*
X15021161Y-3205330D01*
X14601467Y-3833446D01*
X14312377Y-4531372D01*
X14165000Y-5272285D01*
X14165000Y-5745000D01*
X5461113Y-5745000D01*
X5355000Y-5546476D01*
X5355000Y-3583524D01*
X5466511Y-3374901D01*
X5537130Y-3142102D01*
X5555000Y-2960665D01*
X5555000Y-2239336D01*
X5537130Y-2057899D01*
X5522600Y-2010000D01*
X16766400Y-2010000D01*
X16183446Y-2251467D01*
G04 #@! TA.AperFunction,Conductor*
D18*
G36*
X16183446Y-2251467D02*
G01*
X15555330Y-2671161D01*
X15021161Y-3205330D01*
X14601467Y-3833446D01*
X14312377Y-4531372D01*
X14165000Y-5272285D01*
X14165000Y-5745000D01*
X5461113Y-5745000D01*
X5355000Y-5546476D01*
X5355000Y-3583524D01*
X5466511Y-3374901D01*
X5537130Y-3142102D01*
X5555000Y-2960665D01*
X5555000Y-2239336D01*
X5537130Y-2057899D01*
X5522600Y-2010000D01*
X16766400Y-2010000D01*
X16183446Y-2251467D01*
G37*
G04 #@! TD.AperFunction*
D17*
X-5537130Y-2057898D02*
X-5555000Y-2239335D01*
X-5555000Y-2960664D01*
X-5537130Y-3142101D01*
X-5466511Y-3374900D01*
X-5354999Y-3583524D01*
X-5355000Y-5546477D01*
X-5461113Y-5745000D01*
X-14165000Y-5745000D01*
X-14165000Y-5272285D01*
X-14312377Y-4531372D01*
X-14601467Y-3833446D01*
X-15021161Y-3205330D01*
X-15555330Y-2671161D01*
X-16183446Y-2251467D01*
X-16766400Y-2010000D01*
X-5522600Y-2010000D01*
X-5537130Y-2057898D01*
G04 #@! TA.AperFunction,Conductor*
D18*
G36*
X-5537130Y-2057898D02*
G01*
X-5555000Y-2239335D01*
X-5555000Y-2960664D01*
X-5537130Y-3142101D01*
X-5466511Y-3374900D01*
X-5354999Y-3583524D01*
X-5355000Y-5546477D01*
X-5461113Y-5745000D01*
X-14165000Y-5745000D01*
X-14165000Y-5272285D01*
X-14312377Y-4531372D01*
X-14601467Y-3833446D01*
X-15021161Y-3205330D01*
X-15555330Y-2671161D01*
X-16183446Y-2251467D01*
X-16766400Y-2010000D01*
X-5522600Y-2010000D01*
X-5537130Y-2057898D01*
G37*
G04 #@! TD.AperFunction*
M02*
