M48
; DRILL file {KiCad (5.1.10)-1} date 08/07/21 17:21:33
; FORMAT={-:-/ absolute / metric / decimal}
; #@! TF.CreationDate,2021-08-07T17:21:33+07:00
; #@! TF.GenerationSoftware,Kicad,Pcbnew,(5.1.10)-1
FMAT,2
METRIC
T1C0.300
T2C0.400
T3C0.600
T4C1.000
T5C1.040
T6C1.470
T7C1.500
T8C0.650
T9C1.750
T10C3.048
T11C3.988
%
G90
G05
T1
X187.706Y-63.5
X197.485Y-81.788
X197.575Y-138.266
X197.993Y-47.498
X198.069Y-97.485
X198.085Y-82.354
X198.882Y-94.361
X199.482Y-93.817
X201.105Y-105.156
X202.057Y-47.498
X209.55Y-55.959
X215.504Y-65.485
X215.504Y-79.772
X215.773Y-63.754
X215.962Y-155.972
X216.051Y-80.372
X217.153Y-136.922
X218.417Y-121.894
X218.417Y-124.258
X219.017Y-122.494
X219.017Y-123.694
X219.617Y-121.965
X220.218Y-122.494
X222.648Y-79.772
X222.71Y-55.959
X223.248Y-80.373
X223.266Y-65.485
X235.675Y-138.848
X236.412Y-100.33
X238.721Y-124.421
X239.141Y-105.156
X239.253Y-125.021
X240.538Y-68.707
T2
X187.706Y-65.151
X187.706Y-68.199
X187.706Y-70.358
X188.468Y-69.215
X201.105Y-102.044
X202.475Y-138.213
X206.753Y-101.984
X213.007Y-99.794
X213.007Y-106.398
X216.625Y-51.081
X219.354Y-96.902
X220.738Y-108.89
X220.953Y-51.081
X223.266Y-63.754
X226.62Y-99.326
X234.505Y-106.617
X235.712Y-68.707
X235.712Y-141.859
T4
X188.0Y-45.388
X188.0Y-59.888
X190.5Y-59.888
X193.0Y-45.388
X193.0Y-59.888
X245.15Y-45.388
X245.15Y-59.888
X247.65Y-59.888
X250.15Y-45.388
X250.15Y-59.888
T5
X189.23Y-81.28
X191.77Y-81.28
T6
X186.69Y-49.848
X186.69Y-73.66
X186.69Y-92.71
X186.69Y-111.76
X186.69Y-130.81
X193.04Y-47.308
X193.04Y-71.12
X193.04Y-90.17
X193.04Y-109.22
X193.04Y-128.27
X196.215Y-149.86
X202.565Y-147.32
X205.74Y-73.66
X205.74Y-92.71
X205.74Y-111.76
X205.74Y-130.81
X205.74Y-49.848
X212.09Y-71.12
X212.09Y-90.17
X212.09Y-109.22
X212.09Y-128.27
X212.09Y-47.308
X224.79Y-73.66
X224.79Y-92.71
X224.79Y-111.76
X224.79Y-130.81
X224.79Y-149.86
X224.79Y-49.848
X231.14Y-71.12
X231.14Y-90.17
X231.14Y-109.22
X231.14Y-128.27
X231.14Y-147.32
X231.14Y-47.308
X243.84Y-49.848
X243.84Y-73.66
X250.19Y-47.308
X250.19Y-71.12
X250.19Y-100.965
X250.19Y-139.065
X252.73Y-107.315
X252.73Y-145.415
T8
X216.185Y-46.731
X221.965Y-46.731
T9
X185.42Y-52.388
X185.42Y-76.2
X185.42Y-95.25
X185.42Y-114.3
X185.42Y-133.35
X194.945Y-152.4
X195.58Y-52.388
X195.58Y-76.2
X195.58Y-95.25
X195.58Y-114.3
X195.58Y-133.35
X204.47Y-76.2
X204.47Y-95.25
X204.47Y-114.3
X204.47Y-133.35
X204.47Y-52.388
X205.105Y-152.4
X214.63Y-76.2
X214.63Y-95.25
X214.63Y-114.3
X214.63Y-133.35
X214.63Y-52.388
X223.52Y-76.2
X223.52Y-95.25
X223.52Y-114.3
X223.52Y-133.35
X223.52Y-152.4
X223.52Y-52.388
X233.68Y-76.2
X233.68Y-95.25
X233.68Y-114.3
X233.68Y-133.35
X233.68Y-152.4
X233.68Y-52.388
X242.57Y-52.388
X242.57Y-76.2
X247.65Y-99.695
X247.65Y-109.855
X247.65Y-137.795
X247.65Y-147.955
X252.73Y-52.388
X252.73Y-76.2
T10
X188.119Y-159.385
X211.931Y-159.385
X254.635Y-92.869
X254.635Y-116.681
X254.635Y-130.969
X254.635Y-154.781
T11
X188.119Y-144.145
X190.5Y-52.388
X190.5Y-76.2
X190.5Y-95.25
X190.5Y-114.3
X190.5Y-133.35
X200.025Y-152.4
X209.55Y-76.2
X209.55Y-95.25
X209.55Y-114.3
X209.55Y-133.35
X209.55Y-52.388
X211.931Y-144.145
X228.6Y-76.2
X228.6Y-95.25
X228.6Y-114.3
X228.6Y-133.35
X228.6Y-152.4
X228.6Y-52.388
X239.395Y-92.869
X239.395Y-116.681
X239.395Y-130.969
X239.395Y-154.781
X247.65Y-52.388
X247.65Y-76.2
X247.65Y-104.775
X247.65Y-142.875
T3
G00X214.755Y-42.781
M15
G01X214.755Y-43.381
M16
G05
G00X214.755Y-46.711
M15
G01X214.755Y-47.811
M16
G05
G00X223.395Y-42.781
M15
G01X223.395Y-43.381
M16
G05
G00X223.395Y-46.711
M15
G01X223.395Y-47.811
M16
G05
T7
G00X184.9Y-53.038
M15
G01X184.9Y-51.738
M16
G05
G00X196.1Y-53.038
M15
G01X196.1Y-51.738
M16
G05
G00X242.05Y-53.038
M15
G01X242.05Y-51.738
M16
G05
G00X253.25Y-53.038
M15
G01X253.25Y-51.738
M16
G05
T0
M30
