M48
; DRILL file {KiCad (5.1.11)-1} date 09/06/22 18:15:01
; FORMAT={-:-/ absolute / metric / decimal}
; #@! TF.CreationDate,2022-09-06T18:15:01+07:00
; #@! TF.GenerationSoftware,Kicad,Pcbnew,(5.1.11)-1
; #@! TF.FileFunction,Plated,1,2,PTH
FMAT,2
METRIC
T1C0.300
T2C0.400
T3C0.600
T4C0.900
T5C1.000
T6C1.470
%
G90
G05
T1
X-31.873Y-54.761
X-31.873Y-84.824
X-31.873Y-94.785
X-31.873Y-122.925
X-30.384Y-133.045
X-30.384Y-158.346
X2.817Y-126.794
X204.628Y-137.969
X209.391Y-137.969
X212.342Y-120.543
X213.099Y-80.062
X225.005Y-99.112
X225.898Y-141.975
X225.898Y-148.225
X237.805Y-69.346
X238.102Y-141.975
X238.102Y-148.225
X248.98Y-63.393
X251.084Y-110.319
X251.219Y-131.239
X252.687Y-148.225
X252.985Y-103.279
X253.585Y-102.679
X254.152Y-91.647
X254.785Y-102.079
X255.462Y-121.936
X256.259Y-125.306
X256.667Y-49.705
X256.727Y-87.221
X256.855Y-119.65
X257.267Y-50.305
X257.455Y-115.781
X257.577Y-87.221
X258.255Y-50.305
X258.343Y-121.436
X258.918Y-131.239
X258.953Y-49.705
X259.534Y-125.306
X260.87Y-106.053
X261.022Y-164.894
X261.617Y-102.679
X262.152Y-91.694
X262.212Y-103.279
X262.212Y-131.839
X262.64Y-119.019
X262.648Y-118.059
X263.696Y-104.232
X263.697Y-61.603
X263.697Y-71.128
X263.697Y-80.653
X264.296Y-104.767
X264.296Y-131.839
X264.896Y-104.234
X264.897Y-72.793
X264.897Y-92.351
X265.496Y-104.771
X265.497Y-73.368
X265.497Y-91.821
X265.848Y-149.182
X266.486Y-85.519
X280.667Y-92.564
X280.667Y-120.704
X280.667Y-130.664
T2
X-29.587Y-86.217
X-29.587Y-92.17
X-29.587Y-124.317
X-29.587Y-130.271
X-28.036Y-141.119
X-14.804Y-54.166
X-13.636Y-141.119
X-11.43Y-161.121
X47.109Y-54.166
X82.034Y-161.121
X107.236Y-54.166
X152.876Y-161.121
X176.887Y-54.166
X193.358Y-161.121
X230.661Y-101.493
X233.591Y-101.493
X235.228Y-54.166
X242.865Y-54.166
X249.799Y-56.04
X250.008Y-74.704
X251.358Y-64.424
X253.283Y-88.992
X254.771Y-54.761
X258.247Y-164.097
X260.152Y-96.152
X260.152Y-101.523
X260.197Y-54.234
X278.381Y-85.217
X278.381Y-91.17
X278.381Y-123.317
X278.381Y-129.271
T4
X256.477Y-60.119
X256.477Y-69.644
X256.477Y-79.169
X259.017Y-60.119
X259.017Y-69.644
X259.017Y-79.169
T5
X280.37Y-63.512
X280.37Y-66.052
X280.37Y-68.592
X280.37Y-71.132
T6
X-27.646Y-57.579
X-27.646Y-76.629
X-27.646Y-152.829
X-25.265Y-114.729
X-25.265Y-133.779
X-25.265Y-152.829
X-22.884Y-95.679
X-22.884Y-152.829
X-21.296Y-55.039
X-21.296Y-74.089
X-21.296Y-150.289
X-20.502Y-114.729
X-18.915Y-112.189
X-18.915Y-131.239
X-18.915Y-150.289
X-16.534Y-93.139
X-16.534Y-150.289
X-15.74Y-133.779
X-14.152Y-112.189
X-9.39Y-131.239
X-8.596Y-76.629
X-8.596Y-152.829
X-3.834Y-57.579
X-3.834Y-133.779
X-3.834Y-152.829
X-2.246Y-74.089
X-2.246Y-150.289
X-1.452Y-152.829
X0.929Y-95.679
X0.929Y-152.829
X2.516Y-55.039
X2.516Y-131.239
X2.516Y-150.289
X4.898Y-150.289
X5.691Y-114.729
X5.691Y-152.829
X7.279Y-93.139
X7.279Y-150.289
X10.454Y-76.629
X10.454Y-152.829
X12.041Y-112.189
X12.041Y-150.289
X15.216Y-57.579
X15.216Y-133.779
X16.804Y-74.089
X16.804Y-150.289
X17.598Y-152.829
X19.979Y-95.679
X21.566Y-55.039
X21.566Y-131.239
X22.36Y-152.829
X23.948Y-150.289
X24.741Y-114.729
X24.741Y-152.829
X26.329Y-93.139
X28.71Y-150.289
X29.504Y-76.629
X29.504Y-152.829
X31.091Y-112.189
X31.091Y-150.289
X34.266Y-57.579
X34.266Y-133.779
X35.854Y-74.089
X35.854Y-150.289
X39.029Y-95.679
X40.616Y-55.039
X40.616Y-131.239
X43.791Y-114.729
X45.379Y-93.139
X48.554Y-76.629
X50.141Y-112.189
X53.316Y-57.579
X53.316Y-133.779
X54.904Y-74.089
X58.079Y-95.679
X59.666Y-55.039
X59.666Y-131.239
X62.841Y-114.729
X64.429Y-93.139
X67.604Y-76.629
X69.191Y-112.189
X72.366Y-133.779
X73.954Y-74.089
X77.129Y-57.579
X77.129Y-95.679
X78.716Y-131.239
X81.891Y-114.729
X83.479Y-55.039
X83.479Y-93.139
X86.654Y-76.629
X86.654Y-152.829
X88.241Y-112.189
X91.416Y-133.779
X93.004Y-74.089
X93.004Y-150.289
X93.798Y-152.829
X96.179Y-57.579
X96.179Y-95.679
X96.179Y-152.829
X97.766Y-131.239
X100.148Y-150.289
X100.941Y-114.729
X102.529Y-55.039
X102.529Y-93.139
X102.529Y-150.289
X105.704Y-76.629
X105.704Y-152.829
X107.291Y-112.189
X110.466Y-133.779
X112.054Y-74.089
X112.054Y-150.289
X115.229Y-57.579
X115.229Y-95.679
X116.816Y-131.239
X119.991Y-114.729
X121.579Y-55.039
X121.579Y-93.139
X124.754Y-76.629
X126.341Y-112.189
X129.516Y-133.779
X131.104Y-74.089
X134.279Y-57.579
X134.279Y-95.679
X135.866Y-131.239
X139.041Y-114.729
X140.629Y-55.039
X140.629Y-93.139
X143.804Y-76.629
X145.391Y-112.189
X148.566Y-133.779
X150.154Y-74.089
X153.329Y-95.679
X154.916Y-131.239
X158.091Y-57.579
X158.091Y-114.729
X159.679Y-93.139
X162.854Y-76.629
X162.854Y-152.829
X164.441Y-55.039
X164.441Y-112.189
X167.616Y-133.779
X167.617Y-152.829
X169.204Y-74.089
X169.204Y-150.289
X172.379Y-95.679
X173.966Y-131.239
X173.967Y-150.289
X174.76Y-152.829
X177.141Y-57.579
X177.141Y-114.729
X178.729Y-93.139
X181.11Y-150.289
X181.904Y-76.629
X181.904Y-152.829
X183.491Y-55.039
X183.491Y-112.189
X186.666Y-133.779
X188.254Y-74.089
X188.254Y-150.289
X191.429Y-95.679
X193.016Y-131.239
X196.191Y-57.579
X196.191Y-114.729
X196.191Y-152.829
X197.779Y-93.139
X198.573Y-152.829
X200.954Y-76.629
X200.954Y-152.829
X202.541Y-55.039
X202.541Y-112.189
X202.541Y-150.289
X204.923Y-150.289
X207.304Y-74.089
X207.304Y-150.289
X210.479Y-95.679
X212.86Y-133.779
X215.241Y-57.579
X215.241Y-114.729
X216.829Y-93.139
X219.21Y-131.239
X220.004Y-76.629
X221.591Y-55.039
X221.591Y-112.189
X225.362Y-158.187
X226.354Y-74.089
X227.148Y-114.729
X229.529Y-76.629
X231.712Y-155.647
X233.498Y-112.189
X234.291Y-95.679
X235.879Y-74.089
X239.054Y-57.579
X239.054Y-76.629
X240.641Y-93.139
X243.023Y-103.934
X244.412Y-139.137
X244.412Y-158.187
X245.404Y-55.039
X245.404Y-74.089
X245.563Y-110.284
X250.762Y-136.597
X250.762Y-155.647
X263.462Y-158.187
X268.82Y-57.579
X268.82Y-76.629
X268.82Y-95.679
X268.82Y-114.729
X268.82Y-133.779
X269.812Y-155.647
X275.17Y-55.039
X275.17Y-74.089
X275.17Y-93.139
X275.17Y-112.189
X275.17Y-131.239
T3
G00X253.427Y-47.35
M15
G01X253.427Y-46.75
M16
G05
G00X253.427Y-51.78
M15
G01X253.427Y-50.68
M16
G05
G00X262.067Y-47.35
M15
G01X262.067Y-46.75
M16
G05
G00X262.067Y-51.78
M15
G01X262.067Y-50.68
M16
G05
T0
M30
