M48
; DRILL file {KiCad (5.1.11)-1} date 09/06/22 18:15:01
; FORMAT={-:-/ absolute / metric / decimal}
; #@! TF.CreationDate,2022-09-06T18:15:01+07:00
; #@! TF.GenerationSoftware,Kicad,Pcbnew,(5.1.11)-1
; #@! TF.FileFunction,NonPlated,1,2,NPTH
FMAT,2
METRIC
T1C0.650
T2C1.750
T3C3.048
T4C3.988
%
G90
G05
T1
X254.857Y-50.7
X260.637Y-50.7
T2
X-28.916Y-60.119
X-28.916Y-79.169
X-28.916Y-155.369
X-26.535Y-117.269
X-26.535Y-136.319
X-26.535Y-155.369
X-24.154Y-98.219
X-24.154Y-155.369
X-21.772Y-117.269
X-18.756Y-60.119
X-18.756Y-79.169
X-18.756Y-155.369
X-17.01Y-136.319
X-16.375Y-117.269
X-16.375Y-136.319
X-16.375Y-155.369
X-13.994Y-98.219
X-13.994Y-155.369
X-11.612Y-117.269
X-9.866Y-79.169
X-9.866Y-155.369
X-6.85Y-136.319
X-5.104Y-60.119
X-5.104Y-136.319
X-5.104Y-155.369
X-2.722Y-155.369
X-0.341Y-98.219
X-0.341Y-155.369
X0.294Y-79.169
X0.294Y-155.369
X4.421Y-117.269
X4.421Y-155.369
X5.056Y-60.119
X5.056Y-136.319
X5.056Y-155.369
X7.438Y-155.369
X9.184Y-79.169
X9.184Y-155.369
X9.819Y-98.219
X9.819Y-155.369
X13.946Y-60.119
X13.946Y-136.319
X14.581Y-117.269
X14.581Y-155.369
X16.328Y-155.369
X18.709Y-98.219
X19.344Y-79.169
X19.344Y-155.369
X21.09Y-155.369
X23.471Y-117.269
X23.471Y-155.369
X24.106Y-60.119
X24.106Y-136.319
X26.488Y-155.369
X28.234Y-79.169
X28.234Y-155.369
X28.869Y-98.219
X31.25Y-155.369
X32.996Y-60.119
X32.996Y-136.319
X33.631Y-117.269
X33.631Y-155.369
X37.759Y-98.219
X38.394Y-79.169
X38.394Y-155.369
X42.521Y-117.269
X43.156Y-60.119
X43.156Y-136.319
X47.284Y-79.169
X47.919Y-98.219
X52.046Y-60.119
X52.046Y-136.319
X52.681Y-117.269
X56.809Y-98.219
X57.444Y-79.169
X61.571Y-117.269
X62.206Y-60.119
X62.206Y-136.319
X66.334Y-79.169
X66.969Y-98.219
X71.096Y-136.319
X71.731Y-117.269
X75.859Y-60.119
X75.859Y-98.219
X76.494Y-79.169
X80.621Y-117.269
X81.256Y-136.319
X85.384Y-79.169
X85.384Y-155.369
X86.019Y-60.119
X86.019Y-98.219
X90.146Y-136.319
X90.781Y-117.269
X92.528Y-155.369
X94.909Y-60.119
X94.909Y-98.219
X94.909Y-155.369
X95.544Y-79.169
X95.544Y-155.369
X99.671Y-117.269
X100.306Y-136.319
X102.688Y-155.369
X104.434Y-79.169
X104.434Y-155.369
X105.069Y-60.119
X105.069Y-98.219
X105.069Y-155.369
X109.196Y-136.319
X109.831Y-117.269
X113.959Y-60.119
X113.959Y-98.219
X114.594Y-79.169
X114.594Y-155.369
X118.721Y-117.269
X119.356Y-136.319
X123.484Y-79.169
X124.119Y-60.119
X124.119Y-98.219
X128.246Y-136.319
X128.881Y-117.269
X133.009Y-60.119
X133.009Y-98.219
X133.644Y-79.169
X137.771Y-117.269
X138.406Y-136.319
X142.534Y-79.169
X143.169Y-60.119
X143.169Y-98.219
X147.296Y-136.319
X147.931Y-117.269
X152.059Y-98.219
X152.694Y-79.169
X156.821Y-60.119
X156.821Y-117.269
X157.456Y-136.319
X161.584Y-79.169
X161.584Y-155.369
X162.219Y-98.219
X166.346Y-136.319
X166.347Y-155.369
X166.981Y-60.119
X166.981Y-117.269
X171.109Y-98.219
X171.744Y-79.169
X171.744Y-155.369
X173.49Y-155.369
X175.871Y-60.119
X175.871Y-117.269
X176.506Y-136.319
X176.507Y-155.369
X180.634Y-79.169
X180.634Y-155.369
X181.269Y-98.219
X183.65Y-155.369
X185.396Y-136.319
X186.031Y-60.119
X186.031Y-117.269
X190.159Y-98.219
X190.794Y-79.169
X190.794Y-155.369
X194.921Y-60.119
X194.921Y-117.269
X194.921Y-155.369
X195.556Y-136.319
X197.303Y-155.369
X199.684Y-79.169
X199.684Y-155.369
X200.319Y-98.219
X205.081Y-60.119
X205.081Y-117.269
X205.081Y-155.369
X207.463Y-155.369
X209.209Y-98.219
X209.844Y-79.169
X209.844Y-155.369
X211.59Y-136.319
X213.971Y-60.119
X213.971Y-117.269
X218.734Y-79.169
X219.369Y-98.219
X221.75Y-136.319
X224.092Y-160.727
X224.131Y-60.119
X224.131Y-117.269
X225.878Y-117.269
X228.259Y-79.169
X228.894Y-79.169
X233.021Y-98.219
X234.252Y-160.727
X236.038Y-117.269
X237.784Y-60.119
X237.784Y-79.169
X238.419Y-79.169
X240.483Y-102.664
X240.483Y-112.824
X243.142Y-141.677
X243.142Y-160.727
X243.181Y-98.219
X247.944Y-60.119
X247.944Y-79.169
X253.302Y-141.677
X253.302Y-160.727
X262.192Y-160.727
X267.55Y-60.119
X267.55Y-79.169
X267.55Y-98.219
X267.55Y-117.269
X267.55Y-136.319
X272.352Y-160.727
X277.71Y-60.119
X277.71Y-79.169
X277.71Y-98.219
X277.71Y-117.269
X277.71Y-136.319
T3
X-23.836Y-129.334
X-0.024Y-129.334
X33.314Y-162.354
X42.839Y-162.354
X47.608Y-162.354
X52.364Y-162.354
X147.608Y-162.354
X147.614Y-162.354
X157.139Y-162.354
X166.664Y-162.354
X219.051Y-124.254
X221.433Y-72.184
X242.864Y-124.254
X245.245Y-72.184
X247.468Y-95.806
X247.468Y-119.682
T4
X-23.836Y-60.119
X-23.836Y-79.169
X-23.836Y-144.574
X-23.836Y-155.369
X-21.455Y-117.269
X-21.455Y-136.319
X-21.455Y-155.369
X-19.074Y-98.219
X-19.074Y-155.369
X-16.692Y-117.269
X-11.93Y-136.319
X-4.786Y-79.169
X-4.786Y-155.369
X-0.024Y-60.119
X-0.024Y-136.319
X-0.024Y-144.574
X-0.024Y-155.369
X2.358Y-155.369
X4.739Y-98.219
X4.739Y-155.369
X9.501Y-117.269
X9.501Y-155.369
X14.264Y-79.169
X14.264Y-155.369
X19.026Y-60.119
X19.026Y-136.319
X21.408Y-155.369
X23.789Y-98.219
X26.17Y-155.369
X28.551Y-117.269
X28.551Y-155.369
X33.314Y-79.169
X33.314Y-147.114
X33.314Y-155.369
X38.076Y-60.119
X38.076Y-136.319
X42.839Y-98.219
X42.839Y-147.114
X47.601Y-117.269
X47.608Y-147.114
X52.364Y-79.169
X52.364Y-147.114
X57.126Y-60.119
X57.126Y-136.319
X61.889Y-98.219
X66.651Y-117.269
X71.414Y-79.169
X76.176Y-136.319
X80.939Y-60.119
X80.939Y-98.219
X85.701Y-117.269
X90.464Y-79.169
X90.464Y-155.369
X95.226Y-136.319
X97.608Y-155.369
X99.989Y-60.119
X99.989Y-98.219
X99.989Y-155.369
X104.751Y-117.269
X109.514Y-79.169
X109.514Y-155.369
X114.276Y-136.319
X119.039Y-60.119
X119.039Y-98.219
X123.801Y-117.269
X128.564Y-79.169
X133.326Y-136.319
X138.089Y-60.119
X138.089Y-98.219
X142.851Y-117.269
X147.608Y-147.114
X147.614Y-79.169
X147.614Y-147.114
X152.376Y-136.319
X157.139Y-98.219
X157.139Y-147.114
X161.901Y-60.119
X161.901Y-117.269
X166.664Y-79.169
X166.664Y-147.114
X166.664Y-155.369
X171.426Y-136.319
X171.427Y-155.369
X176.189Y-98.219
X178.57Y-155.369
X180.951Y-60.119
X180.951Y-117.269
X185.714Y-79.169
X185.714Y-155.369
X190.476Y-136.319
X195.239Y-98.219
X200.001Y-60.119
X200.001Y-117.269
X200.001Y-155.369
X202.383Y-155.369
X204.764Y-79.169
X204.764Y-155.369
X214.289Y-98.219
X216.67Y-136.319
X219.051Y-60.119
X219.051Y-109.014
X219.051Y-117.269
X221.433Y-87.424
X223.814Y-79.169
X229.172Y-160.727
X230.958Y-117.269
X232.228Y-95.806
X232.228Y-119.682
X233.339Y-79.169
X238.101Y-98.219
X240.483Y-107.744
X242.864Y-60.119
X242.864Y-79.169
X242.864Y-109.014
X245.245Y-87.424
X248.222Y-141.677
X248.222Y-160.727
X267.272Y-160.727
X272.63Y-60.119
X272.63Y-79.169
X272.63Y-98.219
X272.63Y-117.269
X272.63Y-136.319
T0
M30
