M48
; DRILL file {KiCad (5.1.10)-1} date 06/17/21 20:14:10
; FORMAT={-:-/ absolute / metric / decimal}
; #@! TF.CreationDate,2021-06-17T20:14:10+07:00
; #@! TF.GenerationSoftware,Kicad,Pcbnew,(5.1.10)-1
FMAT,2
METRIC
T1C0.300
T2C0.500
T3C0.700
T4C1.000
T5C1.040
T6C1.470
T7C1.500
T8C2.000
T9C1.702
T10C2.000
T11C3.048
T12C3.988
T13C4.500
T14C10.000
%
G90
G05
T1
X15.875Y-19.685
X16.764Y-37.592
X35.56Y-19.05
X39.116Y-38.1
X41.91Y-75.565
X54.61Y-19.05
X57.912Y-38.1
X66.675Y-75.565
X73.66Y-19.05
X77.216Y-38.1
X92.075Y-75.565
X92.71Y-19.05
X96.012Y-38.1
X111.76Y-19.05
X115.316Y-38.1
X130.81Y-19.05
X134.112Y-38.1
X135.89Y-75.565
X149.86Y-19.05
X153.416Y-38.1
X168.91Y-19.05
X168.91Y-75.565
X172.212Y-38.1
X186.69Y-80.01
X187.96Y-19.05
X191.008Y-38.1
X191.77Y-75.565
X207.01Y-19.05
X210.312Y-38.1
X216.535Y-79.375
X226.06Y-19.05
X229.108Y-38.1
X231.775Y-75.565
X245.11Y-19.05
X248.412Y-37.084
X250.19Y-75.565
X261.509Y-54.51
X262.89Y-75.565
X263.144Y-38.354
X264.922Y-36.576
X265.43Y-39.37
X266.446Y-35.052
X267.335Y-37.465
X269.113Y-35.687
X275.532Y-17.91
X275.742Y-16.71
X281.534Y-43.028
X282.341Y-42.428
X285.565Y-33.713
X287.274Y-17.272
X287.274Y-19.304
X287.274Y-21.336
X287.528Y-33.985
X287.528Y-36.017
X288.135Y-14.735
X289.154Y-23.571
X289.509Y-17.018
X291.295Y-9.695
X291.75Y-7.97
X292.71Y-23.927
X294.132Y-35.865
X295.907Y-14.735
X296.001Y-20.784
X296.316Y-27.229
X296.367Y-25.603
X296.799Y-36.906
X296.815Y-17.899
X298.285Y-69.494
X299.06Y-24.13
X299.117Y-69.478
X299.211Y-78.487
X300.011Y-78.484
X300.126Y-17.78
X301.605Y-38.608
X301.605Y-40.538
X301.625Y-52.705
X301.625Y-58.42
X301.625Y-63.5
X305.181Y-55.88
X305.181Y-61.468
T2
X5.016Y-71.438
X6.159Y-56.959
T4
X7.112Y-26.226
X7.112Y-28.765
X7.112Y-31.305
X7.112Y-33.846
X7.112Y-36.386
X7.112Y-38.925
T5
X11.284Y-53.605
X13.824Y-53.605
X16.364Y-53.605
X18.904Y-53.605
T6
X136.322Y-91.045
X141.322Y-90.545
X145.827Y-91.045
X150.827Y-90.545
X212.462Y-91.045
X217.462Y-90.545
X221.967Y-91.045
X226.967Y-90.545
X241.028Y-91.045
X246.028Y-90.545
T9
X5.425Y-10.505
X7.474Y-48.525
X7.801Y-67.535
X7.801Y-86.545
X10.178Y-29.515
X10.178Y-86.545
X12.554Y-48.525
X15.585Y-10.505
X17.306Y-67.535
X17.634Y-48.525
X17.961Y-67.535
X17.961Y-86.545
X20.337Y-29.515
X20.337Y-86.545
X22.714Y-48.525
X24.435Y-10.505
X27.466Y-67.535
X29.188Y-67.535
X29.188Y-86.545
X31.564Y-86.545
X33.94Y-29.515
X34.595Y-10.505
X38.692Y-48.525
X39.347Y-67.535
X39.347Y-86.545
X41.724Y-86.545
X43.445Y-10.505
X44.1Y-29.515
X48.197Y-67.535
X48.852Y-48.525
X50.574Y-86.545
X52.95Y-29.515
X53.605Y-10.505
X55.326Y-86.545
X57.703Y-48.525
X58.357Y-67.535
X60.734Y-86.545
X62.455Y-10.505
X63.11Y-29.515
X65.486Y-86.545
X67.207Y-67.535
X67.862Y-48.525
X71.96Y-29.515
X72.615Y-10.505
X76.712Y-48.525
X77.367Y-67.535
X81.465Y-10.505
X82.12Y-29.515
X86.218Y-67.535
X86.873Y-48.525
X90.97Y-29.515
X91.625Y-10.505
X95.722Y-48.525
X96.377Y-67.535
X100.475Y-10.505
X101.13Y-29.515
X105.227Y-67.535
X105.882Y-48.525
X109.98Y-29.515
X110.635Y-10.505
X114.733Y-48.525
X115.387Y-67.535
X119.485Y-10.505
X120.14Y-29.515
X121.861Y-86.545
X124.237Y-67.535
X124.892Y-48.525
X126.613Y-86.545
X128.99Y-29.515
X129.645Y-10.505
X132.021Y-86.545
X133.742Y-86.545
X133.743Y-48.525
X134.398Y-67.535
X136.773Y-86.545
X138.495Y-10.505
X139.15Y-29.515
X143.248Y-67.535
X143.902Y-86.545
X143.903Y-48.525
X148.0Y-29.515
X148.655Y-10.505
X152.752Y-48.525
X153.407Y-67.535
X157.505Y-10.505
X158.16Y-29.515
X162.257Y-67.535
X162.912Y-48.525
X167.01Y-29.515
X167.665Y-10.505
X171.762Y-48.525
X172.417Y-67.535
X176.515Y-10.505
X177.17Y-29.515
X181.267Y-67.535
X181.922Y-48.525
X186.02Y-29.515
X186.675Y-10.505
X190.772Y-48.525
X191.427Y-67.535
X193.199Y-86.545
X195.525Y-10.505
X196.18Y-29.515
X197.951Y-86.545
X200.278Y-67.535
X200.933Y-48.525
X203.359Y-86.545
X205.03Y-29.515
X205.685Y-10.505
X208.111Y-86.545
X209.782Y-48.525
X210.438Y-67.535
X214.535Y-10.505
X214.635Y-86.545
X215.19Y-29.515
X217.011Y-86.545
X219.287Y-67.535
X219.942Y-48.525
X221.763Y-86.545
X224.04Y-29.515
X224.695Y-10.505
X224.795Y-86.545
X227.171Y-86.545
X228.792Y-48.525
X229.447Y-67.535
X231.923Y-86.545
X233.545Y-10.505
X234.2Y-29.515
X238.952Y-48.525
X240.824Y-86.545
X243.05Y-29.515
X243.2Y-86.545
X243.705Y-10.505
X247.802Y-48.525
X250.179Y-67.535
X250.984Y-86.545
X252.555Y-10.505
X253.21Y-29.515
X253.36Y-86.545
X257.962Y-48.525
X259.684Y-48.525
X259.934Y-67.535
X260.339Y-67.535
X262.06Y-10.505
X262.26Y-86.545
X262.715Y-10.505
X266.812Y-29.515
X269.844Y-48.525
X270.094Y-67.535
X271.565Y-10.505
X272.22Y-10.505
X272.42Y-86.545
X274.269Y-33.94
X274.269Y-44.1
X276.972Y-29.515
X281.32Y-67.535
X281.32Y-86.545
X281.725Y-10.505
X291.48Y-67.535
X291.48Y-86.545
X300.38Y-10.505
X300.38Y-29.515
X300.38Y-86.545
X310.54Y-10.505
X310.54Y-29.515
X310.54Y-86.545
T11
X10.448Y-60.55
X34.324Y-60.55
X76.903Y-93.53
X81.655Y-93.53
X81.672Y-93.53
X176.979Y-93.53
X181.731Y-93.53
X195.972Y-93.53
X243.321Y-60.55
X252.826Y-41.54
X255.202Y-3.52
X267.197Y-60.55
X276.702Y-41.54
X279.078Y-3.52
X281.254Y-27.082
X281.254Y-50.958
T12
X10.448Y-75.79
X10.505Y-10.505
X12.554Y-48.525
X12.881Y-67.535
X12.881Y-86.545
X15.257Y-29.515
X15.257Y-86.545
X17.634Y-48.525
X22.386Y-67.535
X29.515Y-10.505
X34.267Y-67.535
X34.267Y-86.545
X34.324Y-75.79
X36.644Y-86.545
X39.02Y-29.515
X43.773Y-48.525
X48.525Y-10.505
X53.277Y-67.535
X55.654Y-86.545
X58.03Y-29.515
X60.406Y-86.545
X62.782Y-48.525
X67.535Y-10.505
X72.287Y-67.535
X76.903Y-78.29
X77.04Y-29.515
X81.655Y-78.29
X81.672Y-78.29
X81.792Y-48.525
X86.545Y-10.505
X91.297Y-67.535
X96.05Y-29.515
X100.802Y-48.525
X105.555Y-10.505
X110.307Y-67.535
X115.06Y-29.515
X119.812Y-48.525
X124.565Y-10.505
X126.941Y-86.545
X129.317Y-67.535
X131.694Y-86.545
X134.07Y-29.515
X138.822Y-86.545
X138.822Y-48.525
X143.575Y-10.505
X148.327Y-67.535
X153.08Y-29.515
X157.832Y-48.525
X162.585Y-10.505
X167.338Y-67.535
X172.09Y-29.515
X176.843Y-48.525
X176.979Y-78.29
X181.595Y-10.505
X181.731Y-78.29
X186.347Y-67.535
X191.1Y-29.515
X195.852Y-48.525
X195.972Y-78.29
X198.279Y-86.545
X200.605Y-10.505
X203.031Y-86.545
X205.357Y-67.535
X210.11Y-29.515
X214.862Y-48.525
X219.615Y-10.505
X219.715Y-86.545
X222.091Y-86.545
X224.367Y-67.535
X226.843Y-86.545
X229.12Y-29.515
X233.873Y-48.525
X238.625Y-10.505
X243.321Y-75.79
X245.904Y-86.545
X248.13Y-29.515
X248.28Y-86.545
X252.826Y-56.78
X252.882Y-48.525
X255.202Y-18.76
X255.259Y-67.535
X257.635Y-10.505
X264.764Y-48.525
X265.014Y-67.535
X266.014Y-27.082
X266.014Y-50.958
X267.14Y-10.505
X267.197Y-75.79
X267.34Y-86.545
X271.892Y-29.515
X274.269Y-39.02
X276.645Y-10.505
X276.702Y-56.78
X279.078Y-18.76
X286.4Y-67.535
X286.4Y-86.545
X305.46Y-10.505
X305.46Y-29.515
X305.46Y-86.545
T13
X110.308Y-48.525
X205.358Y-48.525
T14
X291.577Y-46.44
T3
G00X288.1Y-0.9
M15
G01X288.1Y-2.1
M16
G05
G00X288.1Y-5.4
M15
G01X288.1Y-6.6
M16
G05
G00X295.4Y-0.9
M15
G01X295.4Y-2.1
M16
G05
G00X295.4Y-5.4
M15
G01X295.4Y-6.6
M16
G05
T7
G00X7.854Y-6.036
M15
G01X6.646Y-7.934
M16
G05
G00X9.903Y-44.056
M15
G01X8.694Y-45.954
M16
G05
G00X10.231Y-63.066
M15
G01X9.022Y-64.964
M16
G05
G00X10.231Y-82.076
M15
G01X9.022Y-83.974
M16
G05
G00X12.607Y-25.046
M15
G01X11.398Y-26.944
M16
G05
G00X12.607Y-82.076
M15
G01X11.398Y-83.974
M16
G05
G00X13.045Y-5.426
M15
G01X13.005Y-6.004
M16
G05
G00X14.983Y-44.056
M15
G01X13.774Y-45.954
M16
G05
G00X15.093Y-43.446
M15
G01X15.054Y-44.024
M16
G05
G00X15.421Y-62.456
M15
G01X15.381Y-63.034
M16
G05
G00X15.421Y-81.466
M15
G01X15.381Y-82.044
M16
G05
G00X17.797Y-24.436
M15
G01X17.758Y-25.014
M16
G05
G00X17.797Y-81.466
M15
G01X17.758Y-82.044
M16
G05
G00X19.736Y-63.066
M15
G01X18.527Y-64.964
M16
G05
G00X20.173Y-43.446
M15
G01X20.134Y-44.024
M16
G05
G00X24.926Y-62.456
M15
G01X24.887Y-63.034
M16
G05
G00X26.864Y-6.036
M15
G01X25.656Y-7.934
M16
G05
G00X31.617Y-63.066
M15
G01X30.408Y-64.964
M16
G05
G00X31.617Y-82.076
M15
G01X30.408Y-83.974
M16
G05
G00X32.055Y-5.426
M15
G01X32.015Y-6.004
M16
G05
G00X33.993Y-82.076
M15
G01X32.784Y-83.974
M16
G05
G00X36.369Y-25.046
M15
G01X35.161Y-26.944
M16
G05
G00X36.807Y-62.456
M15
G01X36.768Y-63.034
M16
G05
G00X36.807Y-81.466
M15
G01X36.768Y-82.044
M16
G05
G00X39.183Y-81.466
M15
G01X39.144Y-82.044
M16
G05
G00X41.122Y-44.056
M15
G01X39.913Y-45.954
M16
G05
G00X41.56Y-24.436
M15
G01X41.52Y-25.014
M16
G05
G00X45.874Y-6.036
M15
G01X44.666Y-7.934
M16
G05
G00X46.312Y-43.446
M15
G01X46.273Y-44.024
M16
G05
G00X50.627Y-63.066
M15
G01X49.418Y-64.964
M16
G05
G00X51.065Y-5.426
M15
G01X51.025Y-6.004
M16
G05
G00X53.003Y-82.076
M15
G01X51.794Y-83.974
M16
G05
G00X55.379Y-25.046
M15
G01X54.171Y-26.944
M16
G05
G00X55.817Y-62.456
M15
G01X55.778Y-63.034
M16
G05
G00X57.756Y-82.076
M15
G01X56.547Y-83.974
M16
G05
G00X58.193Y-81.466
M15
G01X58.154Y-82.044
M16
G05
G00X60.132Y-44.056
M15
G01X58.923Y-45.954
M16
G05
G00X60.57Y-24.436
M15
G01X60.53Y-25.014
M16
G05
G00X62.946Y-81.466
M15
G01X62.906Y-82.044
M16
G05
G00X64.884Y-6.036
M15
G01X63.676Y-7.934
M16
G05
G00X65.322Y-43.446
M15
G01X65.283Y-44.024
M16
G05
G00X69.637Y-63.066
M15
G01X68.428Y-64.964
M16
G05
G00X70.075Y-5.426
M15
G01X70.035Y-6.004
M16
G05
G00X74.389Y-25.046
M15
G01X73.181Y-26.944
M16
G05
G00X74.827Y-62.456
M15
G01X74.788Y-63.034
M16
G05
G00X79.142Y-44.056
M15
G01X77.933Y-45.954
M16
G05
G00X79.58Y-24.436
M15
G01X79.54Y-25.014
M16
G05
G00X83.894Y-6.036
M15
G01X82.686Y-7.934
M16
G05
G00X84.332Y-43.446
M15
G01X84.293Y-44.024
M16
G05
G00X88.647Y-63.066
M15
G01X87.438Y-64.964
M16
G05
G00X89.085Y-5.426
M15
G01X89.045Y-6.004
M16
G05
G00X93.399Y-25.046
M15
G01X92.191Y-26.944
M16
G05
G00X93.837Y-62.456
M15
G01X93.798Y-63.034
M16
G05
G00X98.152Y-44.056
M15
G01X96.943Y-45.954
M16
G05
G00X98.59Y-24.436
M15
G01X98.55Y-25.014
M16
G05
G00X102.904Y-6.036
M15
G01X101.696Y-7.934
M16
G05
G00X103.342Y-43.446
M15
G01X103.303Y-44.024
M16
G05
G00X107.657Y-63.066
M15
G01X106.448Y-64.964
M16
G05
G00X108.095Y-5.426
M15
G01X108.055Y-6.004
M16
G05
G00X112.409Y-25.046
M15
G01X111.201Y-26.944
M16
G05
G00X112.847Y-62.456
M15
G01X112.808Y-63.034
M16
G05
G00X117.162Y-44.056
M15
G01X115.953Y-45.954
M16
G05
G00X117.6Y-24.436
M15
G01X117.56Y-25.014
M16
G05
G00X121.914Y-6.036
M15
G01X120.706Y-7.934
M16
G05
G00X122.352Y-43.446
M15
G01X122.313Y-44.024
M16
G05
G00X124.29Y-82.076
M15
G01X123.082Y-83.974
M16
G05
G00X126.667Y-63.066
M15
G01X125.458Y-64.964
M16
G05
G00X127.105Y-5.426
M15
G01X127.065Y-6.004
M16
G05
G00X129.043Y-82.076
M15
G01X127.834Y-83.974
M16
G05
G00X129.481Y-81.466
M15
G01X129.441Y-82.044
M16
G05
G00X131.419Y-25.046
M15
G01X130.211Y-26.944
M16
G05
G00X131.857Y-62.456
M15
G01X131.818Y-63.034
M16
G05
G00X134.233Y-81.466
M15
G01X134.194Y-82.044
M16
G05
G00X136.172Y-82.076
M15
G01X134.963Y-83.974
M16
G05
G00X136.172Y-44.056
M15
G01X134.963Y-45.954
M16
G05
G00X136.61Y-24.436
M15
G01X136.57Y-25.014
M16
G05
G00X140.924Y-6.036
M15
G01X139.716Y-7.934
M16
G05
G00X141.362Y-81.466
M15
G01X141.323Y-82.044
M16
G05
G00X141.362Y-43.446
M15
G01X141.323Y-44.024
M16
G05
G00X145.677Y-63.066
M15
G01X144.468Y-64.964
M16
G05
G00X146.115Y-5.426
M15
G01X146.075Y-6.004
M16
G05
G00X150.429Y-25.046
M15
G01X149.221Y-26.944
M16
G05
G00X150.867Y-62.456
M15
G01X150.828Y-63.034
M16
G05
G00X155.182Y-44.056
M15
G01X153.973Y-45.954
M16
G05
G00X155.62Y-24.436
M15
G01X155.58Y-25.014
M16
G05
G00X159.934Y-6.036
M15
G01X158.726Y-7.934
M16
G05
G00X160.372Y-43.446
M15
G01X160.333Y-44.024
M16
G05
G00X164.687Y-63.066
M15
G01X163.478Y-64.964
M16
G05
G00X165.125Y-5.426
M15
G01X165.085Y-6.004
M16
G05
G00X169.439Y-25.046
M15
G01X168.231Y-26.944
M16
G05
G00X169.877Y-62.456
M15
G01X169.838Y-63.034
M16
G05
G00X174.192Y-44.056
M15
G01X172.983Y-45.954
M16
G05
G00X174.63Y-24.436
M15
G01X174.59Y-25.014
M16
G05
G00X178.944Y-6.036
M15
G01X177.736Y-7.934
M16
G05
G00X179.382Y-43.446
M15
G01X179.343Y-44.024
M16
G05
G00X183.697Y-63.066
M15
G01X182.488Y-64.964
M16
G05
G00X184.135Y-5.426
M15
G01X184.095Y-6.004
M16
G05
G00X188.449Y-25.046
M15
G01X187.241Y-26.944
M16
G05
G00X188.887Y-62.456
M15
G01X188.848Y-63.034
M16
G05
G00X193.202Y-44.056
M15
G01X191.993Y-45.954
M16
G05
G00X193.64Y-24.436
M15
G01X193.6Y-25.014
M16
G05
G00X195.628Y-82.076
M15
G01X194.42Y-83.974
M16
G05
G00X197.954Y-6.036
M15
G01X196.746Y-7.934
M16
G05
G00X198.392Y-43.446
M15
G01X198.353Y-44.024
M16
G05
G00X200.381Y-82.076
M15
G01X199.172Y-83.974
M16
G05
G00X200.819Y-81.466
M15
G01X200.779Y-82.044
M16
G05
G00X202.707Y-63.066
M15
G01X201.498Y-64.964
M16
G05
G00X203.145Y-5.426
M15
G01X203.105Y-6.004
M16
G05
G00X205.571Y-81.466
M15
G01X205.532Y-82.044
M16
G05
G00X207.459Y-25.046
M15
G01X206.251Y-26.944
M16
G05
G00X207.897Y-62.456
M15
G01X207.858Y-63.034
M16
G05
G00X212.212Y-44.056
M15
G01X211.003Y-45.954
M16
G05
G00X212.65Y-24.436
M15
G01X212.61Y-25.014
M16
G05
G00X216.964Y-6.036
M15
G01X215.756Y-7.934
M16
G05
G00X217.064Y-82.076
M15
G01X215.855Y-83.974
M16
G05
G00X217.402Y-43.446
M15
G01X217.363Y-44.024
M16
G05
G00X219.44Y-82.076
M15
G01X218.232Y-83.974
M16
G05
G00X221.717Y-63.066
M15
G01X220.508Y-64.964
M16
G05
G00X222.155Y-5.426
M15
G01X222.115Y-6.004
M16
G05
G00X222.254Y-81.466
M15
G01X222.215Y-82.044
M16
G05
G00X224.193Y-82.076
M15
G01X222.984Y-83.974
M16
G05
G00X224.631Y-81.466
M15
G01X224.591Y-82.044
M16
G05
G00X226.469Y-25.046
M15
G01X225.261Y-26.944
M16
G05
G00X226.907Y-62.456
M15
G01X226.868Y-63.034
M16
G05
G00X229.383Y-81.466
M15
G01X229.344Y-82.044
M16
G05
G00X231.222Y-44.056
M15
G01X230.013Y-45.954
M16
G05
G00X231.66Y-24.436
M15
G01X231.62Y-25.014
M16
G05
G00X235.974Y-6.036
M15
G01X234.766Y-7.934
M16
G05
G00X236.412Y-43.446
M15
G01X236.373Y-44.024
M16
G05
G00X241.165Y-5.426
M15
G01X241.125Y-6.004
M16
G05
G00X243.253Y-82.076
M15
G01X242.045Y-83.974
M16
G05
G00X245.479Y-25.046
M15
G01X244.271Y-26.944
M16
G05
G00X245.63Y-82.076
M15
G01X244.421Y-83.974
M16
G05
G00X248.444Y-81.466
M15
G01X248.404Y-82.044
M16
G05
G00X250.231Y-44.056
M15
G01X249.023Y-45.954
M16
G05
G00X250.67Y-24.436
M15
G01X250.63Y-25.014
M16
G05
G00X250.82Y-81.466
M15
G01X250.781Y-82.044
M16
G05
G00X252.608Y-63.066
M15
G01X251.4Y-64.964
M16
G05
G00X254.984Y-6.036
M15
G01X253.776Y-7.934
M16
G05
G00X255.422Y-43.446
M15
G01X255.382Y-44.024
M16
G05
G00X257.799Y-62.456
M15
G01X257.759Y-63.034
M16
G05
G00X260.175Y-5.426
M15
G01X260.135Y-6.004
M16
G05
G00X262.113Y-44.056
M15
G01X260.905Y-45.954
M16
G05
G00X262.363Y-63.066
M15
G01X261.154Y-64.964
M16
G05
G00X264.489Y-6.036
M15
G01X263.281Y-7.934
M16
G05
G00X264.689Y-82.076
M15
G01X263.481Y-83.974
M16
G05
G00X267.304Y-43.446
M15
G01X267.264Y-44.024
M16
G05
G00X267.553Y-62.456
M15
G01X267.514Y-63.034
M16
G05
G00X269.241Y-25.046
M15
G01X268.033Y-26.944
M16
G05
G00X269.68Y-5.426
M15
G01X269.64Y-6.004
M16
G05
G00X269.88Y-81.466
M15
G01X269.84Y-82.044
M16
G05
G00X273.994Y-6.036
M15
G01X272.786Y-7.934
M16
G05
G00X274.432Y-24.436
M15
G01X274.392Y-25.014
M16
G05
G00X278.738Y-36.369
M15
G01X276.84Y-35.161
M16
G05
G00X279.348Y-41.56
M15
G01X278.77Y-41.52
M16
G05
G00X279.185Y-5.426
M15
G01X279.145Y-6.004
M16
G05
G00X283.749Y-63.066
M15
G01X282.541Y-64.964
M16
G05
G00X283.749Y-82.076
M15
G01X282.541Y-83.974
M16
G05
G00X288.94Y-62.456
M15
G01X288.9Y-63.034
M16
G05
G00X288.94Y-81.466
M15
G01X288.9Y-82.044
M16
G05
G00X302.809Y-6.036
M15
G01X301.601Y-7.934
M16
G05
G00X302.809Y-25.046
M15
G01X301.601Y-26.944
M16
G05
G00X302.809Y-82.076
M15
G01X301.601Y-83.974
M16
G05
G00X308.0Y-5.426
M15
G01X307.96Y-6.004
M16
G05
G00X308.0Y-24.436
M15
G01X307.96Y-25.014
M16
G05
G00X308.0Y-81.466
M15
G01X307.96Y-82.044
M16
G05
T8
G00X297.21Y-8.755
M15
G01X297.21Y-12.255
M16
G05
T10
G00X13.5Y0.0
M15
G01X14.5Y0.0
M16
G05
G00X18.755Y-8.755
M15
G01X18.755Y-12.255
M16
G05
G00X21.131Y-84.795
M15
G01X21.131Y-88.295
M16
G05
G00X80.537Y-65.785
M15
G01X80.537Y-69.285
M16
G05
G00X85.29Y-27.765
M15
G01X85.29Y-31.265
M16
G05
G00X85.5Y0.0
M15
G01X86.5Y0.0
M16
G05
G00X149.582Y-46.775
M15
G01X149.582Y-50.275
M16
G05
G00X157.5Y0.0
M15
G01X158.5Y0.0
M16
G05
G00X218.36Y-27.765
M15
G01X218.36Y-31.265
M16
G05
G00X229.5Y0.0
M15
G01X230.5Y0.0
M16
G05
G00X232.617Y-65.785
M15
G01X232.617Y-69.285
M16
G05
G00X297.21Y-84.795
M15
G01X297.21Y-88.295
M16
G05
G00X301.466Y0.0
M15
G01X302.466Y0.0
M16
G05
T0
M30
