G04 #@! TF.GenerationSoftware,KiCad,Pcbnew,(5.1.10)-1*
G04 #@! TF.CreationDate,2022-05-31T17:31:57+07:00*
G04 #@! TF.ProjectId,FR4 Plate,46523420-506c-4617-9465-2e6b69636164,rev?*
G04 #@! TF.SameCoordinates,Original*
G04 #@! TF.FileFunction,Profile,NP*
%FSLAX46Y46*%
G04 Gerber Fmt 4.6, Leading zero omitted, Abs format (unit mm)*
G04 Created by KiCad (PCBNEW (5.1.10)-1) date 2022-05-31 17:31:57*
%MOMM*%
%LPD*%
G01*
G04 APERTURE LIST*
G04 #@! TA.AperFunction,Profile*
%ADD10C,0.050000*%
G04 #@! TD*
G04 APERTURE END LIST*
D10*
X-26699999Y6024999D02*
G75*
G02*
X-25699999Y5024999I0J-1000000D01*
G01*
X-86700000Y6024999D02*
X-26699999Y6024999D01*
X-87700000Y5024999D02*
G75*
G02*
X-86700000Y6024999I1000000J0D01*
G01*
X-87700000Y1024999D02*
X-87700000Y5024999D01*
X-87700001Y1024999D02*
G75*
G02*
X-88700000Y25000I-999999J0D01*
G01*
X-120400000Y24999D02*
X-88700000Y25000D01*
X-120400000Y24999D02*
G75*
G02*
X-121400000Y1024999I0J1000000D01*
G01*
X-121400000Y5024999D02*
X-121400000Y1024999D01*
X-122399999Y6025000D02*
G75*
G02*
X-121400000Y5024999I-1J-1000000D01*
G01*
X-182400000Y6024999D02*
X-122400000Y6025000D01*
X-183400000Y5024999D02*
G75*
G02*
X-182400000Y6024999I1000000J0D01*
G01*
X-183400000Y1024999D02*
X-183400000Y5024999D01*
X-183400001Y1024999D02*
G75*
G02*
X-184400000Y25000I-999999J0D01*
G01*
X-216099999Y24999D02*
X-184400000Y25000D01*
X-216099999Y24999D02*
G75*
G02*
X-217099999Y1024999I0J1000000D01*
G01*
X-217099999Y5024999D02*
X-217099999Y1024999D01*
X-218100000Y6025000D02*
G75*
G02*
X-217099999Y5024999I0J-1000001D01*
G01*
X-278099999Y6024999D02*
X-218100000Y6024999D01*
X-279100000Y5025000D02*
G75*
G02*
X-278099999Y6024999I1000000J-1D01*
G01*
X-279100000Y1024999D02*
X-279100000Y5024999D01*
X-279100001Y1025000D02*
G75*
G02*
X-280099999Y25000I-999999J-1D01*
G01*
X-303800000Y25000D02*
X-280099999Y25000D01*
X-304799999Y-975001D02*
G75*
G02*
X-303800000Y25000I1000000J1D01*
G01*
X-304800000Y-15599999D02*
X-304800000Y-975000D01*
X-304800000Y-15599999D02*
G75*
G02*
X-305800000Y-16599999I-1000000J0D01*
G01*
X-309799999Y-16599999D02*
X-305800000Y-16599999D01*
X-310800000Y-17600000D02*
G75*
G02*
X-309799999Y-16599999I1000001J0D01*
G01*
X-310799999Y-77599999D02*
X-310799999Y-17599999D01*
X-309800000Y-78600000D02*
G75*
G02*
X-310799999Y-77599999I1J1000000D01*
G01*
X-305800000Y-78600000D02*
X-309799999Y-78600000D01*
X-305800000Y-78600000D02*
G75*
G02*
X-304800000Y-79600000I0J-1000000D01*
G01*
X-304800000Y-94225000D02*
X-304800000Y-79600000D01*
X-303799998Y-95225000D02*
G75*
G02*
X-304800000Y-94225000I-1J1000001D01*
G01*
X-280099999Y-95224999D02*
X-303800000Y-95225000D01*
X-280099998Y-95224999D02*
G75*
G02*
X-279099999Y-96225000I-1J-1000000D01*
G01*
X-279099999Y-100225000D02*
X-279099999Y-96225000D01*
X-278099998Y-101224999D02*
G75*
G02*
X-279099999Y-100225000I-1J1000000D01*
G01*
X-218100000Y-101225000D02*
X-278099999Y-101225000D01*
X-217099999Y-100224999D02*
G75*
G02*
X-218100000Y-101225000I-1000001J0D01*
G01*
X-217099999Y-96225000D02*
X-217099999Y-100224999D01*
X-217099998Y-96224999D02*
G75*
G02*
X-216099999Y-95225000I999999J0D01*
G01*
X-184400000Y-95224999D02*
X-216099999Y-95225000D01*
X-184399999Y-95224999D02*
G75*
G02*
X-183400000Y-96225000I-1J-1000000D01*
G01*
X-183400000Y-100225000D02*
X-183400000Y-96225000D01*
X-182399999Y-101224999D02*
G75*
G02*
X-183400000Y-100225000I-1J1000000D01*
G01*
X-122400000Y-101225000D02*
X-182400000Y-101225000D01*
X-121400000Y-100225000D02*
G75*
G02*
X-122400000Y-101225000I-1000000J0D01*
G01*
X-121400000Y-96225000D02*
X-121400000Y-100224999D01*
X-121399999Y-96224999D02*
G75*
G02*
X-120400000Y-95225000I999999J0D01*
G01*
X-88700000Y-95225000D02*
X-120400000Y-95225000D01*
X-88699999Y-95225000D02*
G75*
G02*
X-87699999Y-96225000I0J-1000000D01*
G01*
X-87699999Y-100225000D02*
X-87699999Y-96225000D01*
X-86699999Y-101225000D02*
G75*
G02*
X-87699999Y-100225000I0J1000000D01*
G01*
X-26700000Y-101225000D02*
X-86699999Y-101225000D01*
X-25699999Y-100224999D02*
G75*
G02*
X-26700000Y-101225000I-1000001J0D01*
G01*
X-25699999Y-96225000D02*
X-25699999Y-100224999D01*
X-25699998Y-96224999D02*
G75*
G02*
X-24699999Y-95225000I999999J0D01*
G01*
X-1000000Y-95225000D02*
X-24699999Y-95225000D01*
X0Y-94225000D02*
G75*
G02*
X-1000000Y-95225000I-1000000J0D01*
G01*
X0Y-79600000D02*
X0Y-94225000D01*
X0Y-79600000D02*
G75*
G02*
X1000000Y-78600000I1000000J0D01*
G01*
X4999999Y-78600000D02*
X1000000Y-78600000D01*
X5999999Y-77600000D02*
G75*
G02*
X4999999Y-78600000I-1000000J0D01*
G01*
X5999999Y-17599999D02*
X6000000Y-77599999D01*
X4999999Y-16599999D02*
G75*
G02*
X5999999Y-17599999I0J-1000000D01*
G01*
X1000000Y-16599999D02*
X4999999Y-16599999D01*
X1000000Y-16599999D02*
G75*
G02*
X0Y-15599999I0J1000000D01*
G01*
X0Y-975000D02*
X0Y-15599999D01*
X-1000000Y25000D02*
G75*
G02*
X0Y-975000I0J-1000000D01*
G01*
X-24699999Y24999D02*
X-1000000Y24999D01*
X-24699999Y24999D02*
G75*
G02*
X-25699999Y1024999I0J1000000D01*
G01*
X-25699999Y5024999D02*
X-25699999Y1024999D01*
X-235599999Y-73150000D02*
X-235599999Y-60150000D01*
X-235099997Y-73650000D02*
G75*
G02*
X-235599999Y-73150000I-1J500001D01*
G01*
X-222099999Y-73650000D02*
X-235099999Y-73650000D01*
X-221599998Y-73149999D02*
G75*
G02*
X-222099999Y-73650000I-500001J0D01*
G01*
X-221599999Y-60150000D02*
X-221599999Y-73150000D01*
X-222099999Y-59650000D02*
G75*
G02*
X-221599999Y-60150000I0J-500000D01*
G01*
X-235099999Y-59650000D02*
X-222099999Y-59650000D01*
X-235599999Y-60150000D02*
G75*
G02*
X-235099999Y-59650000I500000J0D01*
G01*
X-212074999Y-79200000D02*
X-212074999Y-92200000D01*
X-212574997Y-78700000D02*
G75*
G02*
X-212074999Y-79200000I-1J-499999D01*
G01*
X-225574999Y-78700000D02*
X-212574999Y-78700000D01*
X-226074998Y-79199999D02*
G75*
G02*
X-225574999Y-78700000I499999J0D01*
G01*
X-226074999Y-92200000D02*
X-226074998Y-79200000D01*
X-225574999Y-92700000D02*
G75*
G02*
X-226074999Y-92200000I0J500000D01*
G01*
X-212574999Y-92700000D02*
X-225574999Y-92700000D01*
X-212074999Y-92200000D02*
G75*
G02*
X-212574999Y-92700000I-500000J0D01*
G01*
X-69199999Y-73150001D02*
G75*
G02*
X-69700000Y-73650000I-500000J1D01*
G01*
X-82699999Y-73650000D02*
X-69700000Y-73650000D01*
X-82700000Y-73650000D02*
G75*
G02*
X-83200000Y-73150000I0J500000D01*
G01*
X-83200000Y-60150000D02*
X-83200000Y-73150000D01*
X-83200000Y-60149999D02*
G75*
G02*
X-82699999Y-59650000I500000J-1D01*
G01*
X-69700000Y-59650000D02*
X-82699999Y-59650000D01*
X-69700000Y-59650000D02*
G75*
G02*
X-69200000Y-60150000I0J-500000D01*
G01*
X-69200000Y-73150000D02*
X-69200000Y-60150000D01*
X-50650000Y-73650000D02*
X-63650000Y-73650000D01*
X-50149999Y-73150001D02*
G75*
G02*
X-50650000Y-73650000I-500000J1D01*
G01*
X-50150000Y-60150000D02*
X-50150000Y-73150000D01*
X-50649999Y-59650001D02*
G75*
G02*
X-50150000Y-60150000I0J-499999D01*
G01*
X-63650000Y-59650000D02*
X-50650000Y-59650000D01*
X-64150000Y-60150000D02*
G75*
G02*
X-63650000Y-59650000I500000J0D01*
G01*
X-64150000Y-73150000D02*
X-64150000Y-60150000D01*
X-63650000Y-73650000D02*
G75*
G02*
X-64150000Y-73150000I0J500000D01*
G01*
X-257030999Y-35050000D02*
X-257030998Y-22050000D01*
X-256530998Y-35549999D02*
G75*
G02*
X-257030999Y-35050000I-1J500000D01*
G01*
X-243530999Y-35550000D02*
X-256530999Y-35550000D01*
X-243030998Y-35049999D02*
G75*
G02*
X-243530999Y-35550000I-500001J0D01*
G01*
X-243030999Y-22050000D02*
X-243030999Y-35050000D01*
X-243530999Y-21550000D02*
G75*
G02*
X-243030999Y-22050000I0J-500000D01*
G01*
X-256530999Y-21550001D02*
X-243530999Y-21549999D01*
X-257030998Y-22050000D02*
G75*
G02*
X-256530999Y-21550001I499999J0D01*
G01*
X-73675000Y-92200000D02*
X-73675000Y-79200000D01*
X-73175000Y-92700000D02*
G75*
G02*
X-73675000Y-92200000I0J500000D01*
G01*
X-60175000Y-92700000D02*
X-73175000Y-92700000D01*
X-59675000Y-92200000D02*
G75*
G02*
X-60175000Y-92700000I-500000J0D01*
G01*
X-59675000Y-79200000D02*
X-59675000Y-92200000D01*
X-60174999Y-78700001D02*
G75*
G02*
X-59675000Y-79200000I0J-499999D01*
G01*
X-73175000Y-78700000D02*
X-60175000Y-78700000D01*
X-73675000Y-79200000D02*
G75*
G02*
X-73175000Y-78700000I500000J0D01*
G01*
X-254649999Y-60150000D02*
G75*
G02*
X-254149999Y-59650000I500000J0D01*
G01*
X-241149999Y-59650000D02*
X-254149999Y-59650000D01*
X-241149997Y-59650000D02*
G75*
G02*
X-240649999Y-60150000I-1J-499999D01*
G01*
X-240649999Y-73150000D02*
X-240649999Y-60150000D01*
X-240649999Y-73150000D02*
G75*
G02*
X-241149999Y-73650000I-500000J0D01*
G01*
X-254149999Y-73649999D02*
X-241149999Y-73650000D01*
X-254149999Y-73650000D02*
G75*
G02*
X-254649999Y-73150000I0J500000D01*
G01*
X-254649999Y-60150000D02*
X-254649999Y-73150000D01*
X-111275000Y-92700000D02*
G75*
G02*
X-111775000Y-92200000I0J500000D01*
G01*
X-111775000Y-79200000D02*
X-111775000Y-92200000D01*
X-111775000Y-79200000D02*
G75*
G02*
X-111275000Y-78700000I500000J0D01*
G01*
X-98275000Y-78700000D02*
X-111275000Y-78700000D01*
X-98275000Y-78700000D02*
G75*
G02*
X-97775000Y-79200000I0J-500000D01*
G01*
X-97775000Y-92200000D02*
X-97775000Y-79200000D01*
X-97775000Y-92200000D02*
G75*
G02*
X-98275000Y-92700000I-500000J0D01*
G01*
X-111275000Y-92700000D02*
X-98275000Y-92700000D01*
X-101749998Y-73650000D02*
G75*
G02*
X-102250000Y-73150000I-1J500001D01*
G01*
X-102250000Y-60150000D02*
X-102250000Y-73150000D01*
X-102250000Y-60150000D02*
G75*
G02*
X-101750000Y-59650000I500000J0D01*
G01*
X-88750000Y-59650000D02*
X-101750000Y-59650000D01*
X-88749998Y-59650000D02*
G75*
G02*
X-88250000Y-60150000I-1J-499999D01*
G01*
X-88250000Y-73150000D02*
X-88250000Y-60150000D01*
X-88250000Y-73150000D02*
G75*
G02*
X-88750000Y-73650000I-500000J0D01*
G01*
X-101750000Y-73650000D02*
X-88750000Y-73650000D01*
X-120800000Y-73650000D02*
G75*
G02*
X-121300000Y-73150000I0J500000D01*
G01*
X-121300000Y-60150000D02*
X-121300000Y-73150000D01*
X-121300000Y-60150000D02*
G75*
G02*
X-120800000Y-59650000I500000J0D01*
G01*
X-107800000Y-59650000D02*
X-120800000Y-59650000D01*
X-107799999Y-59649999D02*
G75*
G02*
X-107300000Y-60150000I-1J-500000D01*
G01*
X-107300000Y-73150000D02*
X-107300000Y-60150000D01*
X-107300000Y-73150000D02*
G75*
G02*
X-107800000Y-73650000I-500000J0D01*
G01*
X-120800000Y-73650000D02*
X-107800000Y-73650000D01*
X-193024998Y-92200001D02*
G75*
G02*
X-193524999Y-92700000I-500000J1D01*
G01*
X-206524999Y-92699999D02*
X-193524999Y-92700000D01*
X-206524999Y-92699999D02*
G75*
G02*
X-207024998Y-92200000I0J499999D01*
G01*
X-207024998Y-79200000D02*
X-207024998Y-92200000D01*
X-207024998Y-79200001D02*
G75*
G02*
X-206524999Y-78700000I500000J1D01*
G01*
X-193524999Y-78700000D02*
X-206524999Y-78700000D01*
X-193524997Y-78700000D02*
G75*
G02*
X-193024999Y-79200000I-1J-499999D01*
G01*
X-193024999Y-92200000D02*
X-193024999Y-79200000D01*
X-5405998Y-2500000D02*
G75*
G02*
X-4905999Y-3000001I-1J-500000D01*
G01*
X-4905999Y-16000001D02*
X-4905999Y-3000001D01*
X-4905999Y-16000001D02*
G75*
G02*
X-5405999Y-16500001I-500000J0D01*
G01*
X-20788000Y-16500001D02*
X-5405999Y-16500001D01*
X-20788000Y-16500001D02*
G75*
G02*
X-21288000Y-16000001I0J500000D01*
G01*
X-21288000Y-3000001D02*
X-21288000Y-16000001D01*
X-21288000Y-3000001D02*
G75*
G02*
X-20788000Y-2500001I500000J0D01*
G01*
X-5405999Y-2500001D02*
X-20788000Y-2500001D01*
X-202549999Y-73150000D02*
G75*
G02*
X-203049999Y-73650000I-500000J0D01*
G01*
X-216049999Y-73650000D02*
X-203049999Y-73650000D01*
X-216049998Y-73649999D02*
G75*
G02*
X-216549999Y-73150000I-1J500000D01*
G01*
X-216549999Y-60150000D02*
X-216549999Y-73150000D01*
X-216549998Y-60150001D02*
G75*
G02*
X-216049999Y-59650000I500000J1D01*
G01*
X-203049999Y-59650000D02*
X-216049999Y-59650000D01*
X-203049999Y-59650000D02*
G75*
G02*
X-202549999Y-60150000I0J-500000D01*
G01*
X-202549999Y-73150000D02*
X-202549999Y-60150000D01*
X-2524999Y-92199999D02*
G75*
G02*
X-3025000Y-92700000I-500001J0D01*
G01*
X-16024999Y-92700000D02*
X-3025000Y-92700000D01*
X-16025000Y-92699999D02*
G75*
G02*
X-16524999Y-92200000I0J499999D01*
G01*
X-16524999Y-79200000D02*
X-16524999Y-92200000D01*
X-16524999Y-79199998D02*
G75*
G02*
X-16024999Y-78700000I499999J-1D01*
G01*
X-3025000Y-78700000D02*
X-16024999Y-78700000D01*
X-3024999Y-78700000D02*
G75*
G02*
X-2524999Y-79200000I0J-500000D01*
G01*
X-2524999Y-92200000D02*
X-2524999Y-79200000D01*
X-288274999Y-35050000D02*
G75*
G02*
X-288774999Y-35550000I-500000J0D01*
G01*
X-301774999Y-35550000D02*
X-288774999Y-35550000D01*
X-301774999Y-35550000D02*
G75*
G02*
X-302274999Y-35050000I0J500000D01*
G01*
X-302274998Y-22050000D02*
X-302274999Y-35050000D01*
X-302274998Y-22050000D02*
G75*
G02*
X-301774999Y-21550001I499999J0D01*
G01*
X-288774999Y-21550000D02*
X-301774999Y-21550001D01*
X-288774999Y-21549999D02*
G75*
G02*
X-288274999Y-22049999I0J-500000D01*
G01*
X-288274999Y-35050000D02*
X-288274999Y-22049999D01*
X-40337000Y-35050000D02*
X-40336999Y-22050000D01*
X-39837000Y-35550000D02*
G75*
G02*
X-40337000Y-35050000I0J500000D01*
G01*
X-4786999Y-35550000D02*
X-39837000Y-35550000D01*
X-4286999Y-35050000D02*
G75*
G02*
X-4786999Y-35550000I-500000J0D01*
G01*
X-4286999Y-22050000D02*
X-4286999Y-35050000D01*
X-4786999Y-21550000D02*
G75*
G02*
X-4286999Y-22050000I0J-500000D01*
G01*
X-5330999Y-21550001D02*
X-4787000Y-21550000D01*
X-5330999Y-21080001D02*
X-5330999Y-21550001D01*
X-5831000Y-20580000D02*
G75*
G02*
X-5330999Y-21080001I0J-500001D01*
G01*
X-12355999Y-20580001D02*
X-5830999Y-20580001D01*
X-12855999Y-21080001D02*
G75*
G02*
X-12355999Y-20580001I500000J0D01*
G01*
X-12856000Y-21550001D02*
X-12855999Y-21080001D01*
X-30006000Y-21550001D02*
X-12856000Y-21550001D01*
X-30006000Y-21080001D02*
X-30006000Y-21550001D01*
X-30506000Y-20580001D02*
G75*
G02*
X-30006000Y-21080001I0J-500000D01*
G01*
X-37031000Y-20580001D02*
X-30506000Y-20580001D01*
X-37531000Y-21080001D02*
G75*
G02*
X-37031000Y-20580001I500000J0D01*
G01*
X-37530999Y-21550001D02*
X-37531000Y-21080001D01*
X-39837000Y-21550001D02*
X-37530999Y-21550001D01*
X-40336999Y-22050000D02*
G75*
G02*
X-39837000Y-21550001I499999J0D01*
G01*
X-22074999Y-92700000D02*
X-35074999Y-92700000D01*
X-21575000Y-92199999D02*
G75*
G02*
X-22074999Y-92700000I-500000J-1D01*
G01*
X-21574999Y-79200000D02*
X-21574999Y-92200000D01*
X-22074999Y-78700000D02*
G75*
G02*
X-21574999Y-79200000I0J-500000D01*
G01*
X-35075000Y-78700000D02*
X-22074999Y-78700000D01*
X-35574999Y-79199999D02*
G75*
G02*
X-35075000Y-78700000I499999J0D01*
G01*
X-35574999Y-92200000D02*
X-35574999Y-79200000D01*
X-35074999Y-92700000D02*
G75*
G02*
X-35574999Y-92200000I0J500000D01*
G01*
X-31600000Y-59650000D02*
G75*
G02*
X-31100000Y-60150000I0J-500000D01*
G01*
X-31100000Y-73150000D02*
X-31100000Y-60150000D01*
X-31099999Y-73150001D02*
G75*
G02*
X-31600000Y-73650000I-500000J1D01*
G01*
X-44600000Y-73650000D02*
X-31600000Y-73650000D01*
X-44599998Y-73649999D02*
G75*
G02*
X-45099999Y-73150000I-1J500000D01*
G01*
X-45099999Y-60150000D02*
X-45099999Y-73150000D01*
X-45099999Y-60149999D02*
G75*
G02*
X-44600000Y-59650000I499999J0D01*
G01*
X-31600000Y-59650000D02*
X-44600000Y-59650000D01*
X-52531000Y-3000001D02*
X-52531000Y-16000001D01*
X-53031000Y-2500001D02*
G75*
G02*
X-52531000Y-3000001I0J-500000D01*
G01*
X-68413000Y-2500001D02*
X-53031000Y-2500001D01*
X-68912999Y-3000000D02*
G75*
G02*
X-68413000Y-2500001I499999J0D01*
G01*
X-68913000Y-16762001D02*
X-68913000Y-3000001D01*
X-68413000Y-17262001D02*
G75*
G02*
X-68913000Y-16762001I0J500000D01*
G01*
X-62430065Y-17262001D02*
X-68413000Y-17262001D01*
X-61930065Y-16762001D02*
G75*
G02*
X-62430065Y-17262001I-500000J0D01*
G01*
X-61930065Y-16500001D02*
X-61930065Y-16762001D01*
X-53031000Y-16500001D02*
X-61930065Y-16500001D01*
X-52530999Y-16000002D02*
G75*
G02*
X-53031000Y-16500001I-500000J1D01*
G01*
X-288274999Y-3000000D02*
X-288274999Y-16000000D01*
X-288774998Y-2499999D02*
G75*
G02*
X-288274999Y-3000000I-1J-500000D01*
G01*
X-301774999Y-2500001D02*
X-288774999Y-2499999D01*
X-302274998Y-3000000D02*
G75*
G02*
X-301774999Y-2500001I499999J0D01*
G01*
X-302274999Y-16000000D02*
X-302274998Y-3000000D01*
X-301774999Y-16500000D02*
G75*
G02*
X-302274999Y-16000000I0J500000D01*
G01*
X-288774999Y-16500000D02*
X-301774999Y-16500000D01*
X-288274999Y-16000000D02*
G75*
G02*
X-288774999Y-16500000I-500000J0D01*
G01*
X-282724999Y-2500001D02*
X-269724999Y-2500000D01*
X-283224999Y-3000001D02*
G75*
G02*
X-282724999Y-2500001I500000J0D01*
G01*
X-283224999Y-16000001D02*
X-283224999Y-3000001D01*
X-282724998Y-16500000D02*
G75*
G02*
X-283224999Y-16000001I-1J500000D01*
G01*
X-269724999Y-16500001D02*
X-282724999Y-16500001D01*
X-269224998Y-16000000D02*
G75*
G02*
X-269724999Y-16500001I-500001J0D01*
G01*
X-269224999Y-3000001D02*
X-269224999Y-16000001D01*
X-269724998Y-2500000D02*
G75*
G02*
X-269224999Y-3000001I-1J-500000D01*
G01*
X-275774999Y-77730000D02*
G75*
G02*
X-275274999Y-78230000I0J-500000D01*
G01*
X-275274999Y-78700000D02*
X-275274999Y-78230000D01*
X-258124999Y-78700000D02*
X-275274999Y-78700000D01*
X-258124999Y-78230000D02*
X-258124999Y-78700000D01*
X-258124998Y-78230001D02*
G75*
G02*
X-257624999Y-77730000I500000J1D01*
G01*
X-251099998Y-77730000D02*
X-257624999Y-77730000D01*
X-251099999Y-77730000D02*
G75*
G02*
X-250599999Y-78230000I0J-500000D01*
G01*
X-250599999Y-78700000D02*
X-250599999Y-78230000D01*
X-250174999Y-78700000D02*
X-250599999Y-78700000D01*
X-250174999Y-92200000D02*
X-250174999Y-78700000D01*
X-250174998Y-92200001D02*
G75*
G02*
X-250674999Y-92700000I-500000J1D01*
G01*
X-282724999Y-92700000D02*
X-250674999Y-92700000D01*
X-282724998Y-92700001D02*
G75*
G02*
X-283224999Y-92200000I0J500001D01*
G01*
X-283224999Y-78700000D02*
X-283224999Y-92200000D01*
X-282799999Y-78700000D02*
X-283224999Y-78700000D01*
X-282799999Y-78230000D02*
X-282799999Y-78700000D01*
X-282799999Y-78230000D02*
G75*
G02*
X-282299999Y-77730000I500000J0D01*
G01*
X-275774999Y-77730000D02*
X-282299999Y-77730000D01*
X-288274998Y-92199999D02*
G75*
G02*
X-288774999Y-92700000I-500001J0D01*
G01*
X-301774999Y-92700000D02*
X-288774999Y-92700000D01*
X-301774999Y-92700000D02*
G75*
G02*
X-302274999Y-92200000I0J500000D01*
G01*
X-302274999Y-79200000D02*
X-302274999Y-92200000D01*
X-302274999Y-79200000D02*
G75*
G02*
X-301774999Y-78700000I500000J0D01*
G01*
X-288774999Y-78700000D02*
X-301774999Y-78700000D01*
X-288774998Y-78699999D02*
G75*
G02*
X-288274999Y-79200000I-1J-500000D01*
G01*
X-288274999Y-92200000D02*
X-288274999Y-79200000D01*
X-135586999Y-35050000D02*
X-135586998Y-22050000D01*
X-135086999Y-35550000D02*
G75*
G02*
X-135586999Y-35050000I0J500000D01*
G01*
X-122087000Y-35550000D02*
X-135086999Y-35550000D01*
X-121586999Y-35050001D02*
G75*
G02*
X-122087000Y-35550000I-500000J1D01*
G01*
X-121586999Y-22050000D02*
X-121587000Y-35050000D01*
X-122086999Y-21550000D02*
G75*
G02*
X-121586999Y-22050000I0J-500000D01*
G01*
X-135086999Y-21550001D02*
X-122087000Y-21550000D01*
X-135586998Y-22050000D02*
G75*
G02*
X-135086999Y-21550001I499999J0D01*
G01*
X-21287500Y-60149999D02*
G75*
G02*
X-20787499Y-59650000I500000J-1D01*
G01*
X-7787500Y-59650000D02*
X-20787499Y-59650000D01*
X-7787500Y-59649999D02*
G75*
G02*
X-7287499Y-60150000I0J-500001D01*
G01*
X-7287499Y-73150000D02*
X-7287499Y-60150000D01*
X-7287500Y-73149999D02*
G75*
G02*
X-7787499Y-73650000I-500000J-1D01*
G01*
X-20787499Y-73650000D02*
X-7787499Y-73650000D01*
X-20787499Y-73650001D02*
G75*
G02*
X-21287500Y-73150000I0J500001D01*
G01*
X-21287500Y-60150000D02*
X-21287500Y-73150000D01*
X-49863000Y-3000001D02*
G75*
G02*
X-49363000Y-2500001I500000J0D01*
G01*
X-29219000Y-2500001D02*
X-49363000Y-2500001D01*
X-29219000Y-2500001D02*
G75*
G02*
X-28719000Y-3000001I0J-500000D01*
G01*
X-28719000Y-16000001D02*
X-28719000Y-3000001D01*
X-28719000Y-16000002D02*
G75*
G02*
X-29219000Y-16500000I-499999J1D01*
G01*
X-49363000Y-16500001D02*
X-29219000Y-16500000D01*
X-49363000Y-16500001D02*
G75*
G02*
X-49863000Y-16000001I0J500000D01*
G01*
X-49863000Y-3000001D02*
X-49863000Y-16000001D01*
X-302274999Y-41100000D02*
G75*
G02*
X-301774999Y-40600000I500000J0D01*
G01*
X-288774999Y-40600000D02*
X-301774999Y-40600000D01*
X-288774998Y-40599999D02*
G75*
G02*
X-288274999Y-41100000I-1J-500000D01*
G01*
X-288274999Y-54100000D02*
X-288274999Y-41100000D01*
X-288274999Y-54100000D02*
G75*
G02*
X-288774999Y-54600000I-500000J0D01*
G01*
X-301774999Y-54600000D02*
X-288774999Y-54600000D01*
X-301774999Y-54600000D02*
G75*
G02*
X-302274999Y-54100000I0J500000D01*
G01*
X-302274999Y-41100000D02*
X-302274999Y-54100000D01*
X-5406192Y-54599708D02*
X-23168792Y-54599991D01*
X-4906199Y-54099709D02*
G75*
G02*
X-5406192Y-54599708I-500000J1D01*
G01*
X-4906200Y-41099708D02*
X-4906199Y-54099708D01*
X-5406208Y-40599708D02*
G75*
G02*
X-4906200Y-41099708I8J-500000D01*
G01*
X-23168808Y-40599992D02*
X-5406207Y-40599708D01*
X-23668799Y-41099993D02*
G75*
G02*
X-23168808Y-40599992I500000J1D01*
G01*
X-23668800Y-54099992D02*
X-23668800Y-41099992D01*
X-23168792Y-54599992D02*
G75*
G02*
X-23668800Y-54099992I-8J500000D01*
G01*
X-145112999Y-54100000D02*
X-145112999Y-41100000D01*
X-144612999Y-54600000D02*
G75*
G02*
X-145112999Y-54100000I0J500000D01*
G01*
X-131612999Y-54600000D02*
X-144612999Y-54600000D01*
X-131112999Y-54100000D02*
G75*
G02*
X-131612999Y-54600000I-500000J0D01*
G01*
X-131112999Y-41100000D02*
X-131112999Y-54100000D01*
X-131612999Y-40600000D02*
G75*
G02*
X-131112999Y-41100000I0J-500000D01*
G01*
X-144612999Y-40600000D02*
X-131612999Y-40599999D01*
X-145112999Y-41100000D02*
G75*
G02*
X-144612999Y-40600000I500000J0D01*
G01*
X-49862999Y-41099999D02*
G75*
G02*
X-49363000Y-40600000I499999J0D01*
G01*
X-36363000Y-40599999D02*
X-49363000Y-40600000D01*
X-36362999Y-40599999D02*
G75*
G02*
X-35863000Y-41100000I-1J-500000D01*
G01*
X-35863000Y-54100000D02*
X-35863000Y-41100000D01*
X-35862999Y-54100001D02*
G75*
G02*
X-36363000Y-54600000I-500000J1D01*
G01*
X-49363000Y-54600000D02*
X-36363000Y-54600000D01*
X-49363000Y-54600000D02*
G75*
G02*
X-49863000Y-54100000I0J500000D01*
G01*
X-49863000Y-41100000D02*
X-49863000Y-54100000D01*
X-58887000Y-21550001D02*
X-45887000Y-21550000D01*
X-59386999Y-22050000D02*
G75*
G02*
X-58887000Y-21550001I499999J0D01*
G01*
X-59387000Y-35050000D02*
X-59386999Y-22050000D01*
X-58887000Y-35550000D02*
G75*
G02*
X-59387000Y-35050000I0J500000D01*
G01*
X-45887000Y-35550000D02*
X-58887000Y-35550000D01*
X-45387000Y-35050000D02*
G75*
G02*
X-45887000Y-35550000I-500000J0D01*
G01*
X-45387000Y-22050000D02*
X-45387000Y-35050000D01*
X-45887000Y-21550000D02*
G75*
G02*
X-45387000Y-22050000I0J-500000D01*
G01*
X-107013000Y-54100000D02*
X-107013000Y-41100000D01*
X-106513000Y-54600000D02*
G75*
G02*
X-107013000Y-54100000I0J500000D01*
G01*
X-93513000Y-54600000D02*
X-106512999Y-54600000D01*
X-93013000Y-54100000D02*
G75*
G02*
X-93513000Y-54600000I-500000J0D01*
G01*
X-93013000Y-41100000D02*
X-93013000Y-54100000D01*
X-93512999Y-40600001D02*
G75*
G02*
X-93013000Y-41100000I0J-499999D01*
G01*
X-106513000Y-40600000D02*
X-93513000Y-40600000D01*
X-107013000Y-41100000D02*
G75*
G02*
X-106513000Y-40600000I500000J0D01*
G01*
X-173186999Y-21550001D02*
X-160186999Y-21550000D01*
X-173686998Y-22050000D02*
G75*
G02*
X-173186999Y-21550001I499999J0D01*
G01*
X-173686999Y-35050000D02*
X-173686998Y-22050000D01*
X-173186999Y-35550000D02*
G75*
G02*
X-173686999Y-35050000I0J500000D01*
G01*
X-160186999Y-35550000D02*
X-173186999Y-35550000D01*
X-159686999Y-35050000D02*
G75*
G02*
X-160186999Y-35550000I-500000J0D01*
G01*
X-159686999Y-22050000D02*
X-159686999Y-35050000D01*
X-160186999Y-21550000D02*
G75*
G02*
X-159686999Y-22050000I0J-500000D01*
G01*
X-163662999Y-54600000D02*
G75*
G02*
X-164162999Y-54100000I0J500000D01*
G01*
X-164162999Y-41100000D02*
X-164162999Y-54100000D01*
X-164162998Y-41099999D02*
G75*
G02*
X-163662999Y-40600000I499999J0D01*
G01*
X-150662999Y-40600000D02*
X-163662999Y-40600000D01*
X-150662999Y-40600000D02*
G75*
G02*
X-150162999Y-41100000I0J-500000D01*
G01*
X-150162999Y-54100000D02*
X-150162999Y-41100000D01*
X-150162999Y-54100000D02*
G75*
G02*
X-150662999Y-54600000I-500000J0D01*
G01*
X-163662999Y-54600000D02*
X-150662999Y-54600000D01*
X-155424999Y-78700000D02*
G75*
G02*
X-154924999Y-79200000I0J-500000D01*
G01*
X-154924999Y-92200000D02*
X-154924999Y-79200000D01*
X-154924999Y-92200000D02*
G75*
G02*
X-155424999Y-92700000I-500000J0D01*
G01*
X-168424999Y-92700000D02*
X-155424999Y-92700000D01*
X-168424999Y-92700000D02*
G75*
G02*
X-168924999Y-92200000I0J500000D01*
G01*
X-168924999Y-79200000D02*
X-168924999Y-92200000D01*
X-168924998Y-79199999D02*
G75*
G02*
X-168424999Y-78700000I499999J0D01*
G01*
X-155424999Y-78700000D02*
X-168424999Y-78700000D01*
X-148180999Y-16500001D02*
X-148180999Y-16762001D01*
X-119706000Y-16500001D02*
X-148180999Y-16500001D01*
X-119206000Y-16000001D02*
G75*
G02*
X-119706000Y-16500001I-500000J0D01*
G01*
X-119206000Y-3000001D02*
X-119206000Y-16000001D01*
X-119706000Y-2500001D02*
G75*
G02*
X-119206000Y-3000001I0J-500000D01*
G01*
X-184692999Y-2500001D02*
X-119706000Y-2500001D01*
X-185192998Y-3000000D02*
G75*
G02*
X-184692999Y-2500001I499999J0D01*
G01*
X-185192999Y-16762001D02*
X-185192998Y-3000001D01*
X-184692999Y-17262001D02*
G75*
G02*
X-185192999Y-16762001I0J500000D01*
G01*
X-173380999Y-17262001D02*
X-184692999Y-17262001D01*
X-172880997Y-16762001D02*
G75*
G02*
X-173380999Y-17262001I-500001J1D01*
G01*
X-172880999Y-16500001D02*
X-172880998Y-16762001D01*
X-160492999Y-16500001D02*
X-172880999Y-16500001D01*
X-160492999Y-16762001D02*
X-160492999Y-16500001D01*
X-159992998Y-17262000D02*
G75*
G02*
X-160492999Y-16762001I-1J500000D01*
G01*
X-148680999Y-17262000D02*
X-159992999Y-17262000D01*
X-148181000Y-16762001D02*
G75*
G02*
X-148680999Y-17262000I-499999J0D01*
G01*
X-173974998Y-92200001D02*
G75*
G02*
X-174474999Y-92700000I-500000J1D01*
G01*
X-187474999Y-92700000D02*
X-174474999Y-92700000D01*
X-187474999Y-92700000D02*
G75*
G02*
X-187974999Y-92200000I0J500000D01*
G01*
X-187974999Y-79200000D02*
X-187974999Y-92200000D01*
X-187974999Y-79200000D02*
G75*
G02*
X-187474999Y-78700000I500000J0D01*
G01*
X-174474999Y-78700000D02*
X-187474999Y-78700000D01*
X-174474997Y-78700000D02*
G75*
G02*
X-173974999Y-79200000I-1J-499999D01*
G01*
X-173974999Y-92200000D02*
X-173974999Y-79200000D01*
X-74462998Y-40600000D02*
G75*
G02*
X-73963000Y-41100000I-1J-499999D01*
G01*
X-73963000Y-54100000D02*
X-73963000Y-41100000D01*
X-73962999Y-54100001D02*
G75*
G02*
X-74463000Y-54600000I-500000J1D01*
G01*
X-87463000Y-54600000D02*
X-74463000Y-54600000D01*
X-87463000Y-54600000D02*
G75*
G02*
X-87963000Y-54100000I0J500000D01*
G01*
X-87963000Y-41100000D02*
X-87963000Y-54100000D01*
X-87962999Y-41099999D02*
G75*
G02*
X-87463000Y-40600000I499999J0D01*
G01*
X-74463000Y-40600000D02*
X-87463000Y-40600000D01*
X-126063000Y-41100000D02*
G75*
G02*
X-125563000Y-40600000I500000J0D01*
G01*
X-112563000Y-40600000D02*
X-125563000Y-40600000D01*
X-112563000Y-40600000D02*
G75*
G02*
X-112063000Y-41100000I0J-500000D01*
G01*
X-112063000Y-54100000D02*
X-112063000Y-41100000D01*
X-112062999Y-54099999D02*
G75*
G02*
X-112563000Y-54600000I-500001J0D01*
G01*
X-125563000Y-54600000D02*
X-112563000Y-54600000D01*
X-125563000Y-54600000D02*
G75*
G02*
X-126063000Y-54100000I0J500000D01*
G01*
X-126063000Y-41100000D02*
X-126063000Y-54100000D01*
X-216836999Y-22050000D02*
X-216836998Y-35049999D01*
X-217336998Y-21550001D02*
G75*
G02*
X-216836999Y-22050000I0J-499999D01*
G01*
X-230336999Y-21550001D02*
X-217336999Y-21550000D01*
X-230836998Y-22050000D02*
G75*
G02*
X-230336999Y-21550001I499999J0D01*
G01*
X-230836999Y-35050000D02*
X-230836998Y-22050000D01*
X-230336999Y-35550000D02*
G75*
G02*
X-230836999Y-35050000I0J500000D01*
G01*
X-217336999Y-35550000D02*
X-230336999Y-35550000D01*
X-216836998Y-35049999D02*
G75*
G02*
X-217336999Y-35550000I-500001J0D01*
G01*
X-245124999Y-92200000D02*
X-245124999Y-79200000D01*
X-244624998Y-92700001D02*
G75*
G02*
X-245124999Y-92200000I0J500001D01*
G01*
X-231624999Y-92700000D02*
X-244624999Y-92700000D01*
X-231124999Y-92200000D02*
G75*
G02*
X-231624999Y-92700000I-500000J0D01*
G01*
X-231124999Y-79200000D02*
X-231124999Y-92200000D01*
X-231624997Y-78700000D02*
G75*
G02*
X-231124999Y-79200000I-1J-499999D01*
G01*
X-244624999Y-78700000D02*
X-231624999Y-78700000D01*
X-245124998Y-79199999D02*
G75*
G02*
X-244624999Y-78700000I499999J0D01*
G01*
X-145899999Y-73650000D02*
X-158899999Y-73650000D01*
X-145399999Y-73150000D02*
G75*
G02*
X-145899999Y-73650000I-500000J0D01*
G01*
X-145399999Y-60150000D02*
X-145399999Y-73150000D01*
X-145899999Y-59650000D02*
G75*
G02*
X-145399999Y-60150000I0J-500000D01*
G01*
X-158899999Y-59650000D02*
X-145899999Y-59650000D01*
X-159399999Y-60150000D02*
G75*
G02*
X-158899999Y-59650000I500000J0D01*
G01*
X-159399999Y-73150000D02*
X-159399999Y-60150000D01*
X-158899999Y-73650000D02*
G75*
G02*
X-159399999Y-73150000I0J500000D01*
G01*
X-135874999Y-92200000D02*
G75*
G02*
X-136374999Y-92700000I-500000J0D01*
G01*
X-149374999Y-92700000D02*
X-136374999Y-92700000D01*
X-149374997Y-92700000D02*
G75*
G02*
X-149874999Y-92200000I-1J500001D01*
G01*
X-149874999Y-79200000D02*
X-149874999Y-92200000D01*
X-149874999Y-79200000D02*
G75*
G02*
X-149374999Y-78700000I500000J0D01*
G01*
X-136374999Y-78700000D02*
X-149374999Y-78700000D01*
X-136374999Y-78700000D02*
G75*
G02*
X-135874999Y-79200000I0J-500000D01*
G01*
X-135874999Y-92200000D02*
X-135874999Y-79200000D01*
X-68913000Y-41100000D02*
G75*
G02*
X-68413000Y-40600000I500000J0D01*
G01*
X-55413000Y-40600000D02*
X-68413000Y-40600000D01*
X-55413000Y-40600000D02*
G75*
G02*
X-54913000Y-41100000I0J-500000D01*
G01*
X-54913000Y-54100000D02*
X-54913000Y-41100000D01*
X-54913000Y-54100000D02*
G75*
G02*
X-55413000Y-54600000I-500000J0D01*
G01*
X-68413000Y-54600000D02*
X-55413000Y-54600000D01*
X-68413000Y-54600000D02*
G75*
G02*
X-68913000Y-54100000I0J500000D01*
G01*
X-68913000Y-41100000D02*
X-68913000Y-54100000D01*
X-126349999Y-73150000D02*
G75*
G02*
X-126849999Y-73650000I-500000J0D01*
G01*
X-139849999Y-73650000D02*
X-126849999Y-73650000D01*
X-139849999Y-73650000D02*
G75*
G02*
X-140349999Y-73150000I0J500000D01*
G01*
X-140349999Y-60150000D02*
X-140349999Y-73150000D01*
X-140349998Y-60149999D02*
G75*
G02*
X-139849999Y-59650000I499999J0D01*
G01*
X-126849999Y-59650001D02*
X-139849999Y-59650000D01*
X-126849998Y-59650000D02*
G75*
G02*
X-126350000Y-60150000I-1J-499999D01*
G01*
X-126349999Y-73150000D02*
X-126350000Y-60150000D01*
X-130324999Y-92700000D02*
G75*
G02*
X-130824999Y-92200000I0J500000D01*
G01*
X-130824998Y-79200000D02*
X-130824999Y-92200000D01*
X-130824998Y-79200001D02*
G75*
G02*
X-130324999Y-78700000I500000J1D01*
G01*
X-117325000Y-78700000D02*
X-130324999Y-78700000D01*
X-117325000Y-78700000D02*
G75*
G02*
X-116825000Y-79200000I0J-500000D01*
G01*
X-116825000Y-92200000D02*
X-116825000Y-79200000D01*
X-116825000Y-92200000D02*
G75*
G02*
X-117325000Y-92700000I-500000J0D01*
G01*
X-130324999Y-92700000D02*
X-117325000Y-92700000D01*
X-266844999Y-59650000D02*
X-264961999Y-59650000D01*
X-266844999Y-54600000D02*
X-266844999Y-59650000D01*
X-255743999Y-54599482D02*
X-266844999Y-54600000D01*
X-255743999Y-55068000D02*
X-255743999Y-54599482D01*
X-255243999Y-55568000D02*
G75*
G02*
X-255743999Y-55068000I0J500000D01*
G01*
X-248718999Y-55568000D02*
X-255243999Y-55567999D01*
X-248218998Y-55068001D02*
G75*
G02*
X-248718999Y-55568000I-500000J1D01*
G01*
X-248218999Y-54599131D02*
X-248218999Y-55068000D01*
X-245913976Y-54599024D02*
X-248218999Y-54599131D01*
X-245413997Y-54099024D02*
G75*
G02*
X-245913976Y-54599024I-500001J1D01*
G01*
X-245413999Y-41099000D02*
X-245413998Y-54099024D01*
X-245913998Y-40598999D02*
G75*
G02*
X-245413999Y-41099000I-1J-500000D01*
G01*
X-248218999Y-40599000D02*
X-245913999Y-40598999D01*
X-248218999Y-40130000D02*
X-248218999Y-40599000D01*
X-248718999Y-39630000D02*
G75*
G02*
X-248218999Y-40130000I0J-500000D01*
G01*
X-255243999Y-39630000D02*
X-248718999Y-39629999D01*
X-255743998Y-40129999D02*
G75*
G02*
X-255243999Y-39630000I499999J0D01*
G01*
X-255743999Y-40599000D02*
X-255743999Y-40130000D01*
X-272893999Y-40599000D02*
X-255743999Y-40599000D01*
X-272893999Y-40129999D02*
X-272893999Y-40599000D01*
X-273393999Y-39629999D02*
G75*
G02*
X-272893999Y-40129999I0J-500000D01*
G01*
X-279918999Y-39630000D02*
X-273393999Y-39629999D01*
X-280418999Y-40130000D02*
G75*
G02*
X-279918999Y-39630000I500000J0D01*
G01*
X-280418999Y-50124000D02*
X-280418999Y-40130000D01*
X-280844999Y-50124000D02*
X-280418999Y-50124000D01*
X-280844999Y-63624000D02*
X-280844999Y-50124000D01*
X-280344998Y-64123999D02*
G75*
G02*
X-280844999Y-63624000I-1J500000D01*
G01*
X-278461999Y-64124000D02*
X-280344999Y-64124000D01*
X-278461999Y-65699400D02*
X-278461999Y-64124000D01*
X-278874999Y-65699400D02*
X-278461999Y-65699400D01*
X-279374999Y-66199400D02*
G75*
G02*
X-278874999Y-65699400I500000J0D01*
G01*
X-279374999Y-72724400D02*
X-279374999Y-66199400D01*
X-278874999Y-73224400D02*
G75*
G02*
X-279374999Y-72724400I0J500000D01*
G01*
X-278461999Y-73224400D02*
X-278874999Y-73224400D01*
X-278461999Y-73650000D02*
X-278461999Y-73224400D01*
X-264961999Y-73650000D02*
X-278461999Y-73650000D01*
X-264461999Y-73150000D02*
G75*
G02*
X-264961999Y-73650000I-500000J0D01*
G01*
X-264461999Y-60150000D02*
X-264461999Y-73150000D01*
X-264961998Y-59649999D02*
G75*
G02*
X-264461999Y-60150000I-1J-500000D01*
G01*
X-202262999Y-54100000D02*
X-202262999Y-41100000D01*
X-201762999Y-54600000D02*
G75*
G02*
X-202262999Y-54100000I0J500000D01*
G01*
X-188762998Y-54600000D02*
X-201762999Y-54600000D01*
X-188262999Y-54099999D02*
G75*
G02*
X-188762998Y-54600000I-500000J-1D01*
G01*
X-188262999Y-41100000D02*
X-188262999Y-54100000D01*
X-188762999Y-40600000D02*
G75*
G02*
X-188262999Y-41100000I0J-500000D01*
G01*
X-201762999Y-40600000D02*
X-188762998Y-40600000D01*
X-202262998Y-41099999D02*
G75*
G02*
X-201762999Y-40600000I499999J0D01*
G01*
X-245124999Y-16000001D02*
X-245124998Y-3000001D01*
X-244624997Y-16500001D02*
G75*
G02*
X-245124999Y-16000001I-1J500001D01*
G01*
X-193524999Y-16500001D02*
X-244624999Y-16500001D01*
X-193024998Y-16000002D02*
G75*
G02*
X-193524999Y-16500001I-500000J1D01*
G01*
X-193024999Y-3000001D02*
X-193024999Y-16000001D01*
X-193524999Y-2500001D02*
G75*
G02*
X-193024999Y-3000001I0J-500000D01*
G01*
X-244624999Y-2500001D02*
X-193524999Y-2500001D01*
X-245124998Y-3000000D02*
G75*
G02*
X-244624999Y-2500001I499999J0D01*
G01*
X-226362999Y-41100000D02*
X-226362999Y-54100000D01*
X-226862997Y-40600000D02*
G75*
G02*
X-226362999Y-41100000I-1J-499999D01*
G01*
X-239862999Y-40600000D02*
X-226862999Y-40600000D01*
X-240362998Y-41099999D02*
G75*
G02*
X-239862999Y-40600000I499999J0D01*
G01*
X-240362999Y-54100000D02*
X-240362999Y-41100000D01*
X-239862999Y-54600000D02*
G75*
G02*
X-240362999Y-54100000I0J500000D01*
G01*
X-226862999Y-54600000D02*
X-239862999Y-54600000D01*
X-226362999Y-54100000D02*
G75*
G02*
X-226862999Y-54600000I-500000J0D01*
G01*
X-83487000Y-22050000D02*
X-83487000Y-35050000D01*
X-83987000Y-21550000D02*
G75*
G02*
X-83487000Y-22050000I0J-500000D01*
G01*
X-96987000Y-21550001D02*
X-83987000Y-21549999D01*
X-97486998Y-22049999D02*
G75*
G02*
X-96987000Y-21550001I499998J0D01*
G01*
X-97487000Y-35050000D02*
X-97486999Y-22050000D01*
X-96987000Y-35550000D02*
G75*
G02*
X-97487000Y-35050000I0J500000D01*
G01*
X-83987000Y-35550000D02*
X-96987000Y-35550000D01*
X-83487000Y-35050000D02*
G75*
G02*
X-83987000Y-35550000I-500000J0D01*
G01*
X-197786998Y-22050000D02*
X-197786998Y-35050000D01*
X-198286997Y-21549999D02*
G75*
G02*
X-197786998Y-22050000I-1J-500000D01*
G01*
X-211286999Y-21550001D02*
X-198286999Y-21550000D01*
X-211786997Y-22049999D02*
G75*
G02*
X-211286999Y-21550001I499998J0D01*
G01*
X-211786999Y-35050000D02*
X-211786998Y-22050000D01*
X-211286998Y-35550001D02*
G75*
G02*
X-211786999Y-35050000I0J500001D01*
G01*
X-198286999Y-35550000D02*
X-211286999Y-35550000D01*
X-197786997Y-35050000D02*
G75*
G02*
X-198286999Y-35550000I-500001J1D01*
G01*
X-220812999Y-40600000D02*
X-207812999Y-40599999D01*
X-221312999Y-41100000D02*
G75*
G02*
X-220812999Y-40600000I500000J0D01*
G01*
X-221312999Y-54100000D02*
X-221312999Y-41100000D01*
X-220812999Y-54600000D02*
G75*
G02*
X-221312999Y-54100000I0J500000D01*
G01*
X-207812999Y-54600000D02*
X-220812999Y-54599999D01*
X-207312999Y-54100000D02*
G75*
G02*
X-207812999Y-54600000I-500000J0D01*
G01*
X-207312999Y-41100000D02*
X-207312999Y-54100000D01*
X-207812998Y-40599999D02*
G75*
G02*
X-207312999Y-41100000I-1J-500000D01*
G01*
X-169212999Y-41100000D02*
X-169212999Y-54100000D01*
X-169712999Y-40600000D02*
G75*
G02*
X-169212999Y-41100000I0J-500000D01*
G01*
X-182712999Y-40600000D02*
X-169712999Y-40600000D01*
X-183212999Y-41100000D02*
G75*
G02*
X-182712999Y-40600000I500000J0D01*
G01*
X-183212999Y-54100000D02*
X-183212999Y-41100000D01*
X-182712999Y-54600000D02*
G75*
G02*
X-183212999Y-54100000I0J500000D01*
G01*
X-169712998Y-54600000D02*
X-182712999Y-54599999D01*
X-169212998Y-54100000D02*
G75*
G02*
X-169712998Y-54600000I-500000J0D01*
G01*
X-141136999Y-21550000D02*
G75*
G02*
X-140636999Y-22050000I0J-500000D01*
G01*
X-140636999Y-35050000D02*
X-140636999Y-22050000D01*
X-140636999Y-35050000D02*
G75*
G02*
X-141136999Y-35550000I-500000J0D01*
G01*
X-154136999Y-35550000D02*
X-141136999Y-35550000D01*
X-154136999Y-35550000D02*
G75*
G02*
X-154636999Y-35050000I0J500000D01*
G01*
X-154636998Y-22050000D02*
X-154636999Y-35050000D01*
X-154636998Y-22050000D02*
G75*
G02*
X-154136999Y-21550001I499999J0D01*
G01*
X-141136999Y-21550000D02*
X-154136999Y-21550001D01*
X-178736999Y-22050000D02*
X-178736998Y-35050000D01*
X-179236999Y-21550000D02*
G75*
G02*
X-178736999Y-22050000I0J-500000D01*
G01*
X-192236999Y-21550000D02*
X-179236999Y-21549999D01*
X-192736998Y-22049999D02*
G75*
G02*
X-192236999Y-21550000I499999J0D01*
G01*
X-192736999Y-35050000D02*
X-192736998Y-22050000D01*
X-192236997Y-35550000D02*
G75*
G02*
X-192736999Y-35050000I-1J500001D01*
G01*
X-179236999Y-35550000D02*
X-192236999Y-35550000D01*
X-178736998Y-35050001D02*
G75*
G02*
X-179236999Y-35550000I-500000J1D01*
G01*
X-78725000Y-79200000D02*
X-78725000Y-92200000D01*
X-79225000Y-78700000D02*
G75*
G02*
X-78725000Y-79200000I0J-500000D01*
G01*
X-92225000Y-78700000D02*
X-79225000Y-78700000D01*
X-92725000Y-79200000D02*
G75*
G02*
X-92225000Y-78700000I500000J0D01*
G01*
X-92725000Y-92200000D02*
X-92725000Y-79200000D01*
X-92225000Y-92700000D02*
G75*
G02*
X-92725000Y-92200000I0J500000D01*
G01*
X-79225000Y-92700000D02*
X-92225000Y-92700000D01*
X-78725000Y-92200000D02*
G75*
G02*
X-79225000Y-92700000I-500000J0D01*
G01*
X-164449999Y-60150000D02*
X-164449999Y-73150000D01*
X-164949999Y-59650000D02*
G75*
G02*
X-164449999Y-60150000I0J-500000D01*
G01*
X-177949999Y-59650000D02*
X-164949999Y-59650000D01*
X-178449999Y-60150000D02*
G75*
G02*
X-177949999Y-59650000I500000J0D01*
G01*
X-178449999Y-73150000D02*
X-178449999Y-60150000D01*
X-177949998Y-73650001D02*
G75*
G02*
X-178449999Y-73150000I0J500001D01*
G01*
X-164949999Y-73650000D02*
X-177949999Y-73650000D01*
X-164449999Y-73150000D02*
G75*
G02*
X-164949999Y-73650000I-500000J0D01*
G01*
X-77244000Y-2500001D02*
G75*
G02*
X-76744000Y-3000001I0J-500000D01*
G01*
X-76744000Y-16762001D02*
X-76744000Y-3000001D01*
X-76744000Y-16762001D02*
G75*
G02*
X-77244000Y-17262001I-500000J0D01*
G01*
X-88556000Y-17262001D02*
X-77244000Y-17262001D01*
X-88556000Y-17262001D02*
G75*
G02*
X-89056000Y-16762001I0J500000D01*
G01*
X-89056000Y-16500001D02*
X-89056000Y-16762001D01*
X-101444000Y-16500001D02*
X-89056000Y-16500001D01*
X-101444000Y-16762001D02*
X-101444000Y-16500001D01*
X-101444000Y-16762001D02*
G75*
G02*
X-101944000Y-17262001I-500000J0D01*
G01*
X-113256000Y-17262001D02*
X-101944000Y-17262001D01*
X-113256000Y-17262001D02*
G75*
G02*
X-113756000Y-16762001I0J500000D01*
G01*
X-113756000Y-3000001D02*
X-113756000Y-16762001D01*
X-113755999Y-3000002D02*
G75*
G02*
X-113256000Y-2500001I500000J1D01*
G01*
X-77244000Y-2500001D02*
X-113256000Y-2500001D01*
X-116037000Y-21550001D02*
X-103037000Y-21549999D01*
X-116536998Y-22049999D02*
G75*
G02*
X-116037000Y-21550001I499998J0D01*
G01*
X-116537000Y-35050000D02*
X-116536999Y-22050000D01*
X-116037000Y-35550000D02*
G75*
G02*
X-116537000Y-35050000I0J500000D01*
G01*
X-103037000Y-35550000D02*
X-116037000Y-35550000D01*
X-102536999Y-35050001D02*
G75*
G02*
X-103037000Y-35550000I-500000J1D01*
G01*
X-102537000Y-22050000D02*
X-102537000Y-35050000D01*
X-103037000Y-21550000D02*
G75*
G02*
X-102537000Y-22050000I0J-500000D01*
G01*
X-183999997Y-59650000D02*
G75*
G02*
X-183499999Y-60150000I-1J-499999D01*
G01*
X-183499999Y-73150000D02*
X-183499999Y-60150000D01*
X-183499998Y-73149999D02*
G75*
G02*
X-183999999Y-73650000I-500001J0D01*
G01*
X-196999999Y-73650000D02*
X-183999999Y-73650000D01*
X-196999999Y-73650000D02*
G75*
G02*
X-197499999Y-73150000I0J500000D01*
G01*
X-197499999Y-60150000D02*
X-197499999Y-73150000D01*
X-197499998Y-60150001D02*
G75*
G02*
X-196999999Y-59650000I500000J1D01*
G01*
X-183999999Y-59650000D02*
X-196999999Y-59650000D01*
X-264174998Y-3000001D02*
G75*
G02*
X-263674998Y-2500001I500000J0D01*
G01*
X-250674999Y-2500001D02*
X-263674998Y-2500001D01*
X-250674999Y-2500001D02*
G75*
G02*
X-250174999Y-3000001I0J-500000D01*
G01*
X-250174999Y-16000001D02*
X-250174999Y-3000001D01*
X-250174998Y-16000000D02*
G75*
G02*
X-250674999Y-16500001I-500001J0D01*
G01*
X-263674998Y-16500001D02*
X-250674999Y-16500001D01*
X-263674998Y-16500001D02*
G75*
G02*
X-264174999Y-16000000I0J500001D01*
G01*
X-264174999Y-3000001D02*
X-264174999Y-16000000D01*
X-288274999Y-73150000D02*
G75*
G02*
X-288774999Y-73650000I-500000J0D01*
G01*
X-301774999Y-73650000D02*
X-288774999Y-73650000D01*
X-301774999Y-73650000D02*
G75*
G02*
X-302274999Y-73150000I0J500000D01*
G01*
X-302274999Y-60150000D02*
X-302274999Y-73150000D01*
X-302274998Y-60149999D02*
G75*
G02*
X-301774999Y-59650000I499999J0D01*
G01*
X-288774999Y-59650000D02*
X-301774999Y-59650000D01*
X-288774999Y-59650000D02*
G75*
G02*
X-288274999Y-60150000I0J-500000D01*
G01*
X-288274999Y-73150000D02*
X-288274999Y-60150000D01*
X-77937000Y-21550001D02*
X-64937000Y-21550000D01*
X-78436999Y-22050000D02*
G75*
G02*
X-77937000Y-21550001I499999J0D01*
G01*
X-78437000Y-35050000D02*
X-78436999Y-22050000D01*
X-77937000Y-35550000D02*
G75*
G02*
X-78437000Y-35050000I0J500000D01*
G01*
X-64937000Y-35550000D02*
X-77937000Y-35550000D01*
X-64437000Y-35050000D02*
G75*
G02*
X-64937000Y-35550000I-500000J0D01*
G01*
X-64437000Y-22050000D02*
X-64437000Y-35050000D01*
X-64937000Y-21550000D02*
G75*
G02*
X-64437000Y-22050000I0J-500000D01*
G01*
X-40624999Y-92199999D02*
G75*
G02*
X-41125000Y-92700000I-500001J0D01*
G01*
X-54125000Y-92700000D02*
X-41125000Y-92700000D01*
X-54125000Y-92700000D02*
G75*
G02*
X-54625000Y-92200000I0J500000D01*
G01*
X-54625000Y-79200000D02*
X-54625000Y-92200000D01*
X-54625000Y-79200000D02*
G75*
G02*
X-54125000Y-78700000I500000J0D01*
G01*
X-41125000Y-78700000D02*
X-54125000Y-78700000D01*
X-41125000Y-78699999D02*
G75*
G02*
X-40624999Y-79200000I0J-500001D01*
G01*
X-40624999Y-92200000D02*
X-40624999Y-79200000D01*
X-283224999Y-35050000D02*
X-283224998Y-22050000D01*
X-282724998Y-35550001D02*
G75*
G02*
X-283224999Y-35050000I0J500001D01*
G01*
X-269724999Y-35550000D02*
X-282724999Y-35550000D01*
X-269224998Y-35049999D02*
G75*
G02*
X-269724999Y-35550000I-500001J0D01*
G01*
X-269224999Y-22050000D02*
X-269224999Y-35050000D01*
X-269724998Y-21549999D02*
G75*
G02*
X-269224999Y-22050000I-1J-500000D01*
G01*
X-282724999Y-21550001D02*
X-269724999Y-21549999D01*
X-283224997Y-22049999D02*
G75*
G02*
X-282724999Y-21550001I499998J0D01*
G01*
M02*
