G04 #@! TF.GenerationSoftware,KiCad,Pcbnew,(5.1.10)-1*
G04 #@! TF.CreationDate,2022-05-31T17:31:57+07:00*
G04 #@! TF.ProjectId,FR4 Plate,46523420-506c-4617-9465-2e6b69636164,rev?*
G04 #@! TF.SameCoordinates,Original*
G04 #@! TF.FileFunction,Soldermask,Top*
G04 #@! TF.FilePolarity,Negative*
%FSLAX46Y46*%
G04 Gerber Fmt 4.6, Leading zero omitted, Abs format (unit mm)*
G04 Created by KiCad (PCBNEW (5.1.10)-1) date 2022-05-31 17:31:57*
%MOMM*%
%LPD*%
G01*
G04 APERTURE LIST*
%ADD10C,2.000000*%
%ADD11C,0.010000*%
G04 APERTURE END LIST*
D10*
X-26699999Y6024999D02*
G75*
G02*
X-25699999Y5024999I0J-1000000D01*
G01*
X-86700000Y6024999D02*
X-26699999Y6024999D01*
X-87700000Y5024999D02*
G75*
G02*
X-86700000Y6024999I1000000J0D01*
G01*
X-87700000Y1024999D02*
X-87700000Y5024999D01*
X-87700001Y1024999D02*
G75*
G02*
X-88700000Y25000I-999999J0D01*
G01*
X-120400000Y24999D02*
X-88700000Y25000D01*
X-120400000Y24999D02*
G75*
G02*
X-121400000Y1024999I0J1000000D01*
G01*
X-121400000Y5024999D02*
X-121400000Y1024999D01*
X-122399999Y6025000D02*
G75*
G02*
X-121400000Y5024999I-1J-1000000D01*
G01*
X-182400000Y6024999D02*
X-122400000Y6025000D01*
X-183400000Y5024999D02*
G75*
G02*
X-182400000Y6024999I1000000J0D01*
G01*
X-183400000Y1024999D02*
X-183400000Y5024999D01*
X-183400001Y1024999D02*
G75*
G02*
X-184400000Y25000I-999999J0D01*
G01*
X-216099999Y24999D02*
X-184400000Y25000D01*
X-216099999Y24999D02*
G75*
G02*
X-217099999Y1024999I0J1000000D01*
G01*
X-217099999Y5024999D02*
X-217099999Y1024999D01*
X-218100000Y6025000D02*
G75*
G02*
X-217099999Y5024999I0J-1000001D01*
G01*
X-278099999Y6024999D02*
X-218100000Y6024999D01*
X-279100000Y5025000D02*
G75*
G02*
X-278099999Y6024999I1000000J-1D01*
G01*
X-279100000Y1024999D02*
X-279100000Y5024999D01*
X-279100001Y1025000D02*
G75*
G02*
X-280099999Y25000I-999999J-1D01*
G01*
X-303800000Y25000D02*
X-280099999Y25000D01*
X-304799999Y-975001D02*
G75*
G02*
X-303800000Y25000I1000000J1D01*
G01*
X-304800000Y-15599999D02*
X-304800000Y-975000D01*
X-304800000Y-15599999D02*
G75*
G02*
X-305800000Y-16599999I-1000000J0D01*
G01*
X-309799999Y-16599999D02*
X-305800000Y-16599999D01*
X-310800000Y-17600000D02*
G75*
G02*
X-309799999Y-16599999I1000001J0D01*
G01*
X-310799999Y-77599999D02*
X-310799999Y-17599999D01*
X-309800000Y-78600000D02*
G75*
G02*
X-310799999Y-77599999I1J1000000D01*
G01*
X-305800000Y-78600000D02*
X-309799999Y-78600000D01*
X-305800000Y-78600000D02*
G75*
G02*
X-304800000Y-79600000I0J-1000000D01*
G01*
X-304800000Y-94225000D02*
X-304800000Y-79600000D01*
X-303799998Y-95225000D02*
G75*
G02*
X-304800000Y-94225000I-1J1000001D01*
G01*
X-280099999Y-95224999D02*
X-303800000Y-95225000D01*
X-280099998Y-95224999D02*
G75*
G02*
X-279099999Y-96225000I-1J-1000000D01*
G01*
X-279099999Y-100225000D02*
X-279099999Y-96225000D01*
X-278099998Y-101224999D02*
G75*
G02*
X-279099999Y-100225000I-1J1000000D01*
G01*
X-218100000Y-101225000D02*
X-278099999Y-101225000D01*
X-217099999Y-100224999D02*
G75*
G02*
X-218100000Y-101225000I-1000001J0D01*
G01*
X-217099999Y-96225000D02*
X-217099999Y-100224999D01*
X-217099998Y-96224999D02*
G75*
G02*
X-216099999Y-95225000I999999J0D01*
G01*
X-184400000Y-95224999D02*
X-216099999Y-95225000D01*
X-184399999Y-95224999D02*
G75*
G02*
X-183400000Y-96225000I-1J-1000000D01*
G01*
X-183400000Y-100225000D02*
X-183400000Y-96225000D01*
X-182399999Y-101224999D02*
G75*
G02*
X-183400000Y-100225000I-1J1000000D01*
G01*
X-122400000Y-101225000D02*
X-182400000Y-101225000D01*
X-121400000Y-100225000D02*
G75*
G02*
X-122400000Y-101225000I-1000000J0D01*
G01*
X-121400000Y-96225000D02*
X-121400000Y-100224999D01*
X-121399999Y-96224999D02*
G75*
G02*
X-120400000Y-95225000I999999J0D01*
G01*
X-88700000Y-95225000D02*
X-120400000Y-95225000D01*
X-88699999Y-95225000D02*
G75*
G02*
X-87699999Y-96225000I0J-1000000D01*
G01*
X-87699999Y-100225000D02*
X-87699999Y-96225000D01*
X-86699999Y-101225000D02*
G75*
G02*
X-87699999Y-100225000I0J1000000D01*
G01*
X-26700000Y-101225000D02*
X-86699999Y-101225000D01*
X-25699999Y-100224999D02*
G75*
G02*
X-26700000Y-101225000I-1000001J0D01*
G01*
X-25699999Y-96225000D02*
X-25699999Y-100224999D01*
X-25699998Y-96224999D02*
G75*
G02*
X-24699999Y-95225000I999999J0D01*
G01*
X-1000000Y-95225000D02*
X-24699999Y-95225000D01*
X0Y-94225000D02*
G75*
G02*
X-1000000Y-95225000I-1000000J0D01*
G01*
X0Y-79600000D02*
X0Y-94225000D01*
X0Y-79600000D02*
G75*
G02*
X1000000Y-78600000I1000000J0D01*
G01*
X4999999Y-78600000D02*
X1000000Y-78600000D01*
X5999999Y-77600000D02*
G75*
G02*
X4999999Y-78600000I-1000000J0D01*
G01*
X5999999Y-17599999D02*
X6000000Y-77599999D01*
X4999999Y-16599999D02*
G75*
G02*
X5999999Y-17599999I0J-1000000D01*
G01*
X1000000Y-16599999D02*
X4999999Y-16599999D01*
X1000000Y-16599999D02*
G75*
G02*
X0Y-15599999I0J1000000D01*
G01*
X0Y-975000D02*
X0Y-15599999D01*
X-1000000Y25000D02*
G75*
G02*
X0Y-975000I0J-1000000D01*
G01*
X-24699999Y24999D02*
X-1000000Y24999D01*
X-24699999Y24999D02*
G75*
G02*
X-25699999Y1024999I0J1000000D01*
G01*
X-25699999Y5024999D02*
X-25699999Y1024999D01*
X-235599999Y-73150000D02*
X-235599999Y-60150000D01*
X-235099997Y-73650000D02*
G75*
G02*
X-235599999Y-73150000I-1J500001D01*
G01*
X-222099999Y-73650000D02*
X-235099999Y-73650000D01*
X-221599998Y-73149999D02*
G75*
G02*
X-222099999Y-73650000I-500001J0D01*
G01*
X-221599999Y-60150000D02*
X-221599999Y-73150000D01*
X-222099999Y-59650000D02*
G75*
G02*
X-221599999Y-60150000I0J-500000D01*
G01*
X-235099999Y-59650000D02*
X-222099999Y-59650000D01*
X-235599999Y-60150000D02*
G75*
G02*
X-235099999Y-59650000I500000J0D01*
G01*
X-212074999Y-79200000D02*
X-212074999Y-92200000D01*
X-212574997Y-78700000D02*
G75*
G02*
X-212074999Y-79200000I-1J-499999D01*
G01*
X-225574999Y-78700000D02*
X-212574999Y-78700000D01*
X-226074998Y-79199999D02*
G75*
G02*
X-225574999Y-78700000I499999J0D01*
G01*
X-226074999Y-92200000D02*
X-226074998Y-79200000D01*
X-225574999Y-92700000D02*
G75*
G02*
X-226074999Y-92200000I0J500000D01*
G01*
X-212574999Y-92700000D02*
X-225574999Y-92700000D01*
X-212074999Y-92200000D02*
G75*
G02*
X-212574999Y-92700000I-500000J0D01*
G01*
X-69199999Y-73150001D02*
G75*
G02*
X-69700000Y-73650000I-500000J1D01*
G01*
X-82699999Y-73650000D02*
X-69700000Y-73650000D01*
X-82700000Y-73650000D02*
G75*
G02*
X-83200000Y-73150000I0J500000D01*
G01*
X-83200000Y-60150000D02*
X-83200000Y-73150000D01*
X-83200000Y-60149999D02*
G75*
G02*
X-82699999Y-59650000I500000J-1D01*
G01*
X-69700000Y-59650000D02*
X-82699999Y-59650000D01*
X-69700000Y-59650000D02*
G75*
G02*
X-69200000Y-60150000I0J-500000D01*
G01*
X-69200000Y-73150000D02*
X-69200000Y-60150000D01*
X-50650000Y-73650000D02*
X-63650000Y-73650000D01*
X-50149999Y-73150001D02*
G75*
G02*
X-50650000Y-73650000I-500000J1D01*
G01*
X-50150000Y-60150000D02*
X-50150000Y-73150000D01*
X-50649999Y-59650001D02*
G75*
G02*
X-50150000Y-60150000I0J-499999D01*
G01*
X-63650000Y-59650000D02*
X-50650000Y-59650000D01*
X-64150000Y-60150000D02*
G75*
G02*
X-63650000Y-59650000I500000J0D01*
G01*
X-64150000Y-73150000D02*
X-64150000Y-60150000D01*
X-63650000Y-73650000D02*
G75*
G02*
X-64150000Y-73150000I0J500000D01*
G01*
X-257030999Y-35050000D02*
X-257030998Y-22050000D01*
X-256530998Y-35549999D02*
G75*
G02*
X-257030999Y-35050000I-1J500000D01*
G01*
X-243530999Y-35550000D02*
X-256530999Y-35550000D01*
X-243030998Y-35049999D02*
G75*
G02*
X-243530999Y-35550000I-500001J0D01*
G01*
X-243030999Y-22050000D02*
X-243030999Y-35050000D01*
X-243530999Y-21550000D02*
G75*
G02*
X-243030999Y-22050000I0J-500000D01*
G01*
X-256530999Y-21550001D02*
X-243530999Y-21549999D01*
X-257030998Y-22050000D02*
G75*
G02*
X-256530999Y-21550001I499999J0D01*
G01*
X-73675000Y-92200000D02*
X-73675000Y-79200000D01*
X-73175000Y-92700000D02*
G75*
G02*
X-73675000Y-92200000I0J500000D01*
G01*
X-60175000Y-92700000D02*
X-73175000Y-92700000D01*
X-59675000Y-92200000D02*
G75*
G02*
X-60175000Y-92700000I-500000J0D01*
G01*
X-59675000Y-79200000D02*
X-59675000Y-92200000D01*
X-60174999Y-78700001D02*
G75*
G02*
X-59675000Y-79200000I0J-499999D01*
G01*
X-73175000Y-78700000D02*
X-60175000Y-78700000D01*
X-73675000Y-79200000D02*
G75*
G02*
X-73175000Y-78700000I500000J0D01*
G01*
X-254649999Y-60150000D02*
G75*
G02*
X-254149999Y-59650000I500000J0D01*
G01*
X-241149999Y-59650000D02*
X-254149999Y-59650000D01*
X-241149997Y-59650000D02*
G75*
G02*
X-240649999Y-60150000I-1J-499999D01*
G01*
X-240649999Y-73150000D02*
X-240649999Y-60150000D01*
X-240649999Y-73150000D02*
G75*
G02*
X-241149999Y-73650000I-500000J0D01*
G01*
X-254149999Y-73649999D02*
X-241149999Y-73650000D01*
X-254149999Y-73650000D02*
G75*
G02*
X-254649999Y-73150000I0J500000D01*
G01*
X-254649999Y-60150000D02*
X-254649999Y-73150000D01*
X-111275000Y-92700000D02*
G75*
G02*
X-111775000Y-92200000I0J500000D01*
G01*
X-111775000Y-79200000D02*
X-111775000Y-92200000D01*
X-111775000Y-79200000D02*
G75*
G02*
X-111275000Y-78700000I500000J0D01*
G01*
X-98275000Y-78700000D02*
X-111275000Y-78700000D01*
X-98275000Y-78700000D02*
G75*
G02*
X-97775000Y-79200000I0J-500000D01*
G01*
X-97775000Y-92200000D02*
X-97775000Y-79200000D01*
X-97775000Y-92200000D02*
G75*
G02*
X-98275000Y-92700000I-500000J0D01*
G01*
X-111275000Y-92700000D02*
X-98275000Y-92700000D01*
X-101749998Y-73650000D02*
G75*
G02*
X-102250000Y-73150000I-1J500001D01*
G01*
X-102250000Y-60150000D02*
X-102250000Y-73150000D01*
X-102250000Y-60150000D02*
G75*
G02*
X-101750000Y-59650000I500000J0D01*
G01*
X-88750000Y-59650000D02*
X-101750000Y-59650000D01*
X-88749998Y-59650000D02*
G75*
G02*
X-88250000Y-60150000I-1J-499999D01*
G01*
X-88250000Y-73150000D02*
X-88250000Y-60150000D01*
X-88250000Y-73150000D02*
G75*
G02*
X-88750000Y-73650000I-500000J0D01*
G01*
X-101750000Y-73650000D02*
X-88750000Y-73650000D01*
X-120800000Y-73650000D02*
G75*
G02*
X-121300000Y-73150000I0J500000D01*
G01*
X-121300000Y-60150000D02*
X-121300000Y-73150000D01*
X-121300000Y-60150000D02*
G75*
G02*
X-120800000Y-59650000I500000J0D01*
G01*
X-107800000Y-59650000D02*
X-120800000Y-59650000D01*
X-107799999Y-59649999D02*
G75*
G02*
X-107300000Y-60150000I-1J-500000D01*
G01*
X-107300000Y-73150000D02*
X-107300000Y-60150000D01*
X-107300000Y-73150000D02*
G75*
G02*
X-107800000Y-73650000I-500000J0D01*
G01*
X-120800000Y-73650000D02*
X-107800000Y-73650000D01*
X-193024998Y-92200001D02*
G75*
G02*
X-193524999Y-92700000I-500000J1D01*
G01*
X-206524999Y-92699999D02*
X-193524999Y-92700000D01*
X-206524999Y-92699999D02*
G75*
G02*
X-207024998Y-92200000I0J499999D01*
G01*
X-207024998Y-79200000D02*
X-207024998Y-92200000D01*
X-207024998Y-79200001D02*
G75*
G02*
X-206524999Y-78700000I500000J1D01*
G01*
X-193524999Y-78700000D02*
X-206524999Y-78700000D01*
X-193524997Y-78700000D02*
G75*
G02*
X-193024999Y-79200000I-1J-499999D01*
G01*
X-193024999Y-92200000D02*
X-193024999Y-79200000D01*
X-5405998Y-2500000D02*
G75*
G02*
X-4905999Y-3000001I-1J-500000D01*
G01*
X-4905999Y-16000001D02*
X-4905999Y-3000001D01*
X-4905999Y-16000001D02*
G75*
G02*
X-5405999Y-16500001I-500000J0D01*
G01*
X-20788000Y-16500001D02*
X-5405999Y-16500001D01*
X-20788000Y-16500001D02*
G75*
G02*
X-21288000Y-16000001I0J500000D01*
G01*
X-21288000Y-3000001D02*
X-21288000Y-16000001D01*
X-21288000Y-3000001D02*
G75*
G02*
X-20788000Y-2500001I500000J0D01*
G01*
X-5405999Y-2500001D02*
X-20788000Y-2500001D01*
X-202549999Y-73150000D02*
G75*
G02*
X-203049999Y-73650000I-500000J0D01*
G01*
X-216049999Y-73650000D02*
X-203049999Y-73650000D01*
X-216049998Y-73649999D02*
G75*
G02*
X-216549999Y-73150000I-1J500000D01*
G01*
X-216549999Y-60150000D02*
X-216549999Y-73150000D01*
X-216549998Y-60150001D02*
G75*
G02*
X-216049999Y-59650000I500000J1D01*
G01*
X-203049999Y-59650000D02*
X-216049999Y-59650000D01*
X-203049999Y-59650000D02*
G75*
G02*
X-202549999Y-60150000I0J-500000D01*
G01*
X-202549999Y-73150000D02*
X-202549999Y-60150000D01*
X-2524999Y-92199999D02*
G75*
G02*
X-3025000Y-92700000I-500001J0D01*
G01*
X-16024999Y-92700000D02*
X-3025000Y-92700000D01*
X-16025000Y-92699999D02*
G75*
G02*
X-16524999Y-92200000I0J499999D01*
G01*
X-16524999Y-79200000D02*
X-16524999Y-92200000D01*
X-16524999Y-79199998D02*
G75*
G02*
X-16024999Y-78700000I499999J-1D01*
G01*
X-3025000Y-78700000D02*
X-16024999Y-78700000D01*
X-3024999Y-78700000D02*
G75*
G02*
X-2524999Y-79200000I0J-500000D01*
G01*
X-2524999Y-92200000D02*
X-2524999Y-79200000D01*
X-288274999Y-35050000D02*
G75*
G02*
X-288774999Y-35550000I-500000J0D01*
G01*
X-301774999Y-35550000D02*
X-288774999Y-35550000D01*
X-301774999Y-35550000D02*
G75*
G02*
X-302274999Y-35050000I0J500000D01*
G01*
X-302274998Y-22050000D02*
X-302274999Y-35050000D01*
X-302274998Y-22050000D02*
G75*
G02*
X-301774999Y-21550001I499999J0D01*
G01*
X-288774999Y-21550000D02*
X-301774999Y-21550001D01*
X-288774999Y-21549999D02*
G75*
G02*
X-288274999Y-22049999I0J-500000D01*
G01*
X-288274999Y-35050000D02*
X-288274999Y-22049999D01*
X-40337000Y-35050000D02*
X-40336999Y-22050000D01*
X-39837000Y-35550000D02*
G75*
G02*
X-40337000Y-35050000I0J500000D01*
G01*
X-4786999Y-35550000D02*
X-39837000Y-35550000D01*
X-4286999Y-35050000D02*
G75*
G02*
X-4786999Y-35550000I-500000J0D01*
G01*
X-4286999Y-22050000D02*
X-4286999Y-35050000D01*
X-4786999Y-21550000D02*
G75*
G02*
X-4286999Y-22050000I0J-500000D01*
G01*
X-5330999Y-21550001D02*
X-4787000Y-21550000D01*
X-5330999Y-21080001D02*
X-5330999Y-21550001D01*
X-5831000Y-20580000D02*
G75*
G02*
X-5330999Y-21080001I0J-500001D01*
G01*
X-12355999Y-20580001D02*
X-5830999Y-20580001D01*
X-12855999Y-21080001D02*
G75*
G02*
X-12355999Y-20580001I500000J0D01*
G01*
X-12856000Y-21550001D02*
X-12855999Y-21080001D01*
X-30006000Y-21550001D02*
X-12856000Y-21550001D01*
X-30006000Y-21080001D02*
X-30006000Y-21550001D01*
X-30506000Y-20580001D02*
G75*
G02*
X-30006000Y-21080001I0J-500000D01*
G01*
X-37031000Y-20580001D02*
X-30506000Y-20580001D01*
X-37531000Y-21080001D02*
G75*
G02*
X-37031000Y-20580001I500000J0D01*
G01*
X-37530999Y-21550001D02*
X-37531000Y-21080001D01*
X-39837000Y-21550001D02*
X-37530999Y-21550001D01*
X-40336999Y-22050000D02*
G75*
G02*
X-39837000Y-21550001I499999J0D01*
G01*
X-22074999Y-92700000D02*
X-35075000Y-92700000D01*
X-21575000Y-92199999D02*
G75*
G02*
X-22074999Y-92700000I-500000J-1D01*
G01*
X-21574999Y-79200000D02*
X-21574999Y-92200000D01*
X-22074999Y-78700000D02*
G75*
G02*
X-21574999Y-79200000I0J-500000D01*
G01*
X-35075000Y-78700000D02*
X-22074999Y-78700000D01*
X-35574999Y-79199999D02*
G75*
G02*
X-35075000Y-78700000I499999J0D01*
G01*
X-35574999Y-92200000D02*
X-35574999Y-79200000D01*
X-35074999Y-92700000D02*
G75*
G02*
X-35574999Y-92200000I0J500000D01*
G01*
X-31600000Y-59650000D02*
G75*
G02*
X-31100000Y-60150000I0J-500000D01*
G01*
X-31100000Y-73150000D02*
X-31100000Y-60150000D01*
X-31099999Y-73150001D02*
G75*
G02*
X-31600000Y-73650000I-500000J1D01*
G01*
X-44600000Y-73650000D02*
X-31600000Y-73650000D01*
X-44599998Y-73649999D02*
G75*
G02*
X-45099999Y-73150000I-1J500000D01*
G01*
X-45099999Y-60150000D02*
X-45099999Y-73150000D01*
X-45099999Y-60149999D02*
G75*
G02*
X-44600000Y-59650000I499999J0D01*
G01*
X-31600000Y-59650000D02*
X-44600000Y-59650000D01*
X-52531000Y-3000001D02*
X-52531000Y-16000001D01*
X-53031000Y-2500001D02*
G75*
G02*
X-52531000Y-3000001I0J-500000D01*
G01*
X-68413000Y-2500001D02*
X-53031000Y-2500001D01*
X-68912999Y-3000000D02*
G75*
G02*
X-68413000Y-2500001I499999J0D01*
G01*
X-68913000Y-16762001D02*
X-68913000Y-3000001D01*
X-68413000Y-17262001D02*
G75*
G02*
X-68913000Y-16762001I0J500000D01*
G01*
X-62430065Y-17262001D02*
X-68413000Y-17262001D01*
X-61930065Y-16762001D02*
G75*
G02*
X-62430065Y-17262001I-500000J0D01*
G01*
X-61930065Y-16500001D02*
X-61930065Y-16762001D01*
X-53031000Y-16500001D02*
X-61930065Y-16500001D01*
X-52530999Y-16000002D02*
G75*
G02*
X-53031000Y-16500001I-500000J1D01*
G01*
X-288274999Y-3000000D02*
X-288274999Y-16000000D01*
X-288774998Y-2499999D02*
G75*
G02*
X-288274999Y-3000000I-1J-500000D01*
G01*
X-301774999Y-2500001D02*
X-288774999Y-2499999D01*
X-302274998Y-3000000D02*
G75*
G02*
X-301774999Y-2500001I499999J0D01*
G01*
X-302274999Y-16000000D02*
X-302274998Y-3000000D01*
X-301774999Y-16500000D02*
G75*
G02*
X-302274999Y-16000000I0J500000D01*
G01*
X-288774999Y-16500000D02*
X-301774999Y-16500000D01*
X-288274999Y-16000000D02*
G75*
G02*
X-288774999Y-16500000I-500000J0D01*
G01*
X-282724999Y-2500001D02*
X-269724999Y-2500000D01*
X-283224999Y-3000001D02*
G75*
G02*
X-282724999Y-2500001I500000J0D01*
G01*
X-283224999Y-16000001D02*
X-283224999Y-3000001D01*
X-282724998Y-16500000D02*
G75*
G02*
X-283224999Y-16000001I-1J500000D01*
G01*
X-269724999Y-16500001D02*
X-282724999Y-16500001D01*
X-269224998Y-16000000D02*
G75*
G02*
X-269724999Y-16500001I-500001J0D01*
G01*
X-269224999Y-3000001D02*
X-269224999Y-16000001D01*
X-269724998Y-2500000D02*
G75*
G02*
X-269224999Y-3000001I-1J-500000D01*
G01*
X-275774999Y-77730000D02*
G75*
G02*
X-275274999Y-78230000I0J-500000D01*
G01*
X-275274999Y-78700000D02*
X-275274999Y-78230000D01*
X-258124999Y-78700000D02*
X-275274999Y-78700000D01*
X-258124999Y-78230000D02*
X-258124999Y-78700000D01*
X-258124998Y-78230001D02*
G75*
G02*
X-257624999Y-77730000I500000J1D01*
G01*
X-251099998Y-77730000D02*
X-257624999Y-77730000D01*
X-251099999Y-77730000D02*
G75*
G02*
X-250599999Y-78230000I0J-500000D01*
G01*
X-250599999Y-78700000D02*
X-250599999Y-78230000D01*
X-250174999Y-78700000D02*
X-250599999Y-78700000D01*
X-250174999Y-92200000D02*
X-250174999Y-78700000D01*
X-250174998Y-92200001D02*
G75*
G02*
X-250674999Y-92700000I-500000J1D01*
G01*
X-282724999Y-92700000D02*
X-250674999Y-92700000D01*
X-282724998Y-92700001D02*
G75*
G02*
X-283224999Y-92200000I0J500001D01*
G01*
X-283224999Y-78700000D02*
X-283224999Y-92200000D01*
X-282799999Y-78700000D02*
X-283224999Y-78700000D01*
X-282799999Y-78230000D02*
X-282799999Y-78700000D01*
X-282799999Y-78230000D02*
G75*
G02*
X-282299999Y-77730000I500000J0D01*
G01*
X-275774999Y-77730000D02*
X-282299999Y-77730000D01*
X-288274998Y-92199999D02*
G75*
G02*
X-288774999Y-92700000I-500001J0D01*
G01*
X-301774999Y-92700000D02*
X-288774999Y-92700000D01*
X-301774999Y-92700000D02*
G75*
G02*
X-302274999Y-92200000I0J500000D01*
G01*
X-302274999Y-79200000D02*
X-302274999Y-92200000D01*
X-302274999Y-79200000D02*
G75*
G02*
X-301774999Y-78700000I500000J0D01*
G01*
X-288774999Y-78700000D02*
X-301774999Y-78700000D01*
X-288774998Y-78699999D02*
G75*
G02*
X-288274999Y-79200000I-1J-500000D01*
G01*
X-288274999Y-92200000D02*
X-288274999Y-79200000D01*
X-135586999Y-35050000D02*
X-135586998Y-22050000D01*
X-135086999Y-35550000D02*
G75*
G02*
X-135586999Y-35050000I0J500000D01*
G01*
X-122087000Y-35550000D02*
X-135086999Y-35550000D01*
X-121586999Y-35050001D02*
G75*
G02*
X-122087000Y-35550000I-500000J1D01*
G01*
X-121586999Y-22050000D02*
X-121587000Y-35050000D01*
X-122086999Y-21550000D02*
G75*
G02*
X-121586999Y-22050000I0J-500000D01*
G01*
X-135086999Y-21550001D02*
X-122087000Y-21550000D01*
X-135586998Y-22050000D02*
G75*
G02*
X-135086999Y-21550001I499999J0D01*
G01*
X-21287500Y-60149999D02*
G75*
G02*
X-20787499Y-59650000I500000J-1D01*
G01*
X-7787500Y-59650000D02*
X-20787499Y-59650000D01*
X-7787500Y-59649999D02*
G75*
G02*
X-7287499Y-60150000I0J-500001D01*
G01*
X-7287499Y-73150000D02*
X-7287499Y-60150000D01*
X-7287500Y-73149999D02*
G75*
G02*
X-7787499Y-73650000I-500000J-1D01*
G01*
X-20787499Y-73650000D02*
X-7787499Y-73650000D01*
X-20787499Y-73650001D02*
G75*
G02*
X-21287500Y-73150000I0J500001D01*
G01*
X-21287500Y-60150000D02*
X-21287500Y-73150000D01*
X-49863000Y-3000001D02*
G75*
G02*
X-49363000Y-2500001I500000J0D01*
G01*
X-29219000Y-2500001D02*
X-49363000Y-2500001D01*
X-29219000Y-2500001D02*
G75*
G02*
X-28719000Y-3000001I0J-500000D01*
G01*
X-28719000Y-16000001D02*
X-28719000Y-3000001D01*
X-28719000Y-16000002D02*
G75*
G02*
X-29219000Y-16500000I-499999J1D01*
G01*
X-49363000Y-16500001D02*
X-29219000Y-16500000D01*
X-49363000Y-16500001D02*
G75*
G02*
X-49863000Y-16000001I0J500000D01*
G01*
X-49863000Y-3000001D02*
X-49863000Y-16000001D01*
X-302274999Y-41100000D02*
G75*
G02*
X-301774999Y-40600000I500000J0D01*
G01*
X-288774999Y-40600000D02*
X-301774999Y-40600000D01*
X-288774998Y-40599999D02*
G75*
G02*
X-288274999Y-41100000I-1J-500000D01*
G01*
X-288274999Y-54100000D02*
X-288274999Y-41100000D01*
X-288274999Y-54100000D02*
G75*
G02*
X-288774999Y-54600000I-500000J0D01*
G01*
X-301774999Y-54600000D02*
X-288774999Y-54600000D01*
X-301774999Y-54600000D02*
G75*
G02*
X-302274999Y-54100000I0J500000D01*
G01*
X-302274999Y-41100000D02*
X-302274999Y-54100000D01*
X-5406192Y-54599708D02*
X-23168792Y-54599991D01*
X-4906199Y-54099709D02*
G75*
G02*
X-5406192Y-54599708I-500000J1D01*
G01*
X-4906200Y-41099708D02*
X-4906199Y-54099708D01*
X-5406208Y-40599708D02*
G75*
G02*
X-4906200Y-41099708I8J-500000D01*
G01*
X-23168808Y-40599992D02*
X-5406207Y-40599708D01*
X-23668799Y-41099993D02*
G75*
G02*
X-23168808Y-40599992I500000J1D01*
G01*
X-23668800Y-54099992D02*
X-23668800Y-41099992D01*
X-23168792Y-54599992D02*
G75*
G02*
X-23668800Y-54099992I-8J500000D01*
G01*
X-145112999Y-54100000D02*
X-145112999Y-41100000D01*
X-144612999Y-54600000D02*
G75*
G02*
X-145112999Y-54100000I0J500000D01*
G01*
X-131612999Y-54600000D02*
X-144612999Y-54600000D01*
X-131112999Y-54100000D02*
G75*
G02*
X-131612999Y-54600000I-500000J0D01*
G01*
X-131112999Y-41100000D02*
X-131112999Y-54100000D01*
X-131612999Y-40600000D02*
G75*
G02*
X-131112999Y-41100000I0J-500000D01*
G01*
X-144612999Y-40600000D02*
X-131612999Y-40599999D01*
X-145112999Y-41100000D02*
G75*
G02*
X-144612999Y-40600000I500000J0D01*
G01*
X-49862999Y-41099999D02*
G75*
G02*
X-49363000Y-40600000I499999J0D01*
G01*
X-36363000Y-40599999D02*
X-49363000Y-40600000D01*
X-36362999Y-40599999D02*
G75*
G02*
X-35863000Y-41100000I-1J-500000D01*
G01*
X-35863000Y-54100000D02*
X-35863000Y-41100000D01*
X-35862999Y-54100001D02*
G75*
G02*
X-36363000Y-54600000I-500000J1D01*
G01*
X-49363000Y-54600000D02*
X-36363000Y-54600000D01*
X-49363000Y-54600000D02*
G75*
G02*
X-49863000Y-54100000I0J500000D01*
G01*
X-49863000Y-41100000D02*
X-49863000Y-54100000D01*
X-58887000Y-21550001D02*
X-45887000Y-21550000D01*
X-59386999Y-22050000D02*
G75*
G02*
X-58887000Y-21550001I499999J0D01*
G01*
X-59387000Y-35050000D02*
X-59386999Y-22050000D01*
X-58887000Y-35550000D02*
G75*
G02*
X-59387000Y-35050000I0J500000D01*
G01*
X-45887000Y-35550000D02*
X-58887000Y-35550000D01*
X-45387000Y-35050000D02*
G75*
G02*
X-45887000Y-35550000I-500000J0D01*
G01*
X-45387000Y-22050000D02*
X-45387000Y-35050000D01*
X-45887000Y-21550000D02*
G75*
G02*
X-45387000Y-22050000I0J-500000D01*
G01*
X-107013000Y-54100000D02*
X-107013000Y-41100000D01*
X-106513000Y-54600000D02*
G75*
G02*
X-107013000Y-54100000I0J500000D01*
G01*
X-93513000Y-54600000D02*
X-106512999Y-54600000D01*
X-93013000Y-54100000D02*
G75*
G02*
X-93513000Y-54600000I-500000J0D01*
G01*
X-93013000Y-41100000D02*
X-93013000Y-54100000D01*
X-93512999Y-40600001D02*
G75*
G02*
X-93013000Y-41100000I0J-499999D01*
G01*
X-106513000Y-40600000D02*
X-93513000Y-40600000D01*
X-107013000Y-41100000D02*
G75*
G02*
X-106513000Y-40600000I500000J0D01*
G01*
X-173186999Y-21550001D02*
X-160186999Y-21550000D01*
X-173686998Y-22050000D02*
G75*
G02*
X-173186999Y-21550001I499999J0D01*
G01*
X-173686999Y-35050000D02*
X-173686998Y-22050000D01*
X-173186999Y-35550000D02*
G75*
G02*
X-173686999Y-35050000I0J500000D01*
G01*
X-160186999Y-35550000D02*
X-173186999Y-35550000D01*
X-159686999Y-35050000D02*
G75*
G02*
X-160186999Y-35550000I-500000J0D01*
G01*
X-159686999Y-22050000D02*
X-159686999Y-35050000D01*
X-160186999Y-21550000D02*
G75*
G02*
X-159686999Y-22050000I0J-500000D01*
G01*
X-163662999Y-54600000D02*
G75*
G02*
X-164162999Y-54100000I0J500000D01*
G01*
X-164162999Y-41100000D02*
X-164162999Y-54100000D01*
X-164162998Y-41099999D02*
G75*
G02*
X-163662999Y-40600000I499999J0D01*
G01*
X-150662999Y-40600000D02*
X-163662999Y-40600000D01*
X-150662999Y-40600000D02*
G75*
G02*
X-150162999Y-41100000I0J-500000D01*
G01*
X-150162999Y-54100000D02*
X-150162999Y-41100000D01*
X-150162999Y-54100000D02*
G75*
G02*
X-150662999Y-54600000I-500000J0D01*
G01*
X-163662999Y-54600000D02*
X-150662999Y-54600000D01*
X-155424999Y-78700000D02*
G75*
G02*
X-154924999Y-79200000I0J-500000D01*
G01*
X-154924999Y-92200000D02*
X-154924999Y-79200000D01*
X-154924999Y-92200000D02*
G75*
G02*
X-155424999Y-92700000I-500000J0D01*
G01*
X-168424999Y-92700000D02*
X-155424999Y-92700000D01*
X-168424999Y-92700000D02*
G75*
G02*
X-168924999Y-92200000I0J500000D01*
G01*
X-168924999Y-79200000D02*
X-168924999Y-92200000D01*
X-168924998Y-79199999D02*
G75*
G02*
X-168424999Y-78700000I499999J0D01*
G01*
X-155424999Y-78700000D02*
X-168424999Y-78700000D01*
X-148180999Y-16500001D02*
X-148180999Y-16762001D01*
X-119706000Y-16500001D02*
X-148180999Y-16500001D01*
X-119206000Y-16000001D02*
G75*
G02*
X-119706000Y-16500001I-500000J0D01*
G01*
X-119206000Y-3000001D02*
X-119206000Y-16000001D01*
X-119706000Y-2500001D02*
G75*
G02*
X-119206000Y-3000001I0J-500000D01*
G01*
X-184692999Y-2500001D02*
X-119706000Y-2500001D01*
X-185192998Y-3000000D02*
G75*
G02*
X-184692999Y-2500001I499999J0D01*
G01*
X-185192999Y-16762001D02*
X-185192998Y-3000001D01*
X-184692999Y-17262001D02*
G75*
G02*
X-185192999Y-16762001I0J500000D01*
G01*
X-173380999Y-17262001D02*
X-184692999Y-17262001D01*
X-172880997Y-16762001D02*
G75*
G02*
X-173380999Y-17262001I-500001J1D01*
G01*
X-172880999Y-16500001D02*
X-172880998Y-16762001D01*
X-160492999Y-16500001D02*
X-172880999Y-16500001D01*
X-160492999Y-16762001D02*
X-160492999Y-16500001D01*
X-159992998Y-17262000D02*
G75*
G02*
X-160492999Y-16762001I-1J500000D01*
G01*
X-148680999Y-17262000D02*
X-159992999Y-17262000D01*
X-148181000Y-16762001D02*
G75*
G02*
X-148680999Y-17262000I-499999J0D01*
G01*
X-173974998Y-92200001D02*
G75*
G02*
X-174474999Y-92700000I-500000J1D01*
G01*
X-187474999Y-92700000D02*
X-174474999Y-92700000D01*
X-187474999Y-92700000D02*
G75*
G02*
X-187974999Y-92200000I0J500000D01*
G01*
X-187974999Y-79200000D02*
X-187974999Y-92200000D01*
X-187974999Y-79200000D02*
G75*
G02*
X-187474999Y-78700000I500000J0D01*
G01*
X-174474999Y-78700000D02*
X-187474999Y-78700000D01*
X-174474997Y-78700000D02*
G75*
G02*
X-173974999Y-79200000I-1J-499999D01*
G01*
X-173974999Y-92200000D02*
X-173974999Y-79200000D01*
X-74462998Y-40600000D02*
G75*
G02*
X-73963000Y-41100000I-1J-499999D01*
G01*
X-73963000Y-54100000D02*
X-73963000Y-41100000D01*
X-73962999Y-54100001D02*
G75*
G02*
X-74463000Y-54600000I-500000J1D01*
G01*
X-87463000Y-54600000D02*
X-74463000Y-54600000D01*
X-87463000Y-54600000D02*
G75*
G02*
X-87963000Y-54100000I0J500000D01*
G01*
X-87963000Y-41100000D02*
X-87963000Y-54100000D01*
X-87962999Y-41099999D02*
G75*
G02*
X-87463000Y-40600000I499999J0D01*
G01*
X-74463000Y-40600000D02*
X-87463000Y-40600000D01*
X-126063000Y-41100000D02*
G75*
G02*
X-125563000Y-40600000I500000J0D01*
G01*
X-112563000Y-40600000D02*
X-125563000Y-40600000D01*
X-112563000Y-40600000D02*
G75*
G02*
X-112063000Y-41100000I0J-500000D01*
G01*
X-112063000Y-54100000D02*
X-112063000Y-41100000D01*
X-112062999Y-54099999D02*
G75*
G02*
X-112563000Y-54600000I-500001J0D01*
G01*
X-125563000Y-54600000D02*
X-112563000Y-54600000D01*
X-125563000Y-54600000D02*
G75*
G02*
X-126063000Y-54100000I0J500000D01*
G01*
X-126063000Y-41100000D02*
X-126063000Y-54100000D01*
X-216836999Y-22050000D02*
X-216836998Y-35050000D01*
X-217336998Y-21550001D02*
G75*
G02*
X-216836999Y-22050000I0J-499999D01*
G01*
X-230336999Y-21550001D02*
X-217336999Y-21550000D01*
X-230836998Y-22050000D02*
G75*
G02*
X-230336999Y-21550001I499999J0D01*
G01*
X-230836999Y-35050000D02*
X-230836998Y-22050000D01*
X-230336999Y-35550000D02*
G75*
G02*
X-230836999Y-35050000I0J500000D01*
G01*
X-217336999Y-35550000D02*
X-230336999Y-35550000D01*
X-216836998Y-35049999D02*
G75*
G02*
X-217336999Y-35550000I-500001J0D01*
G01*
X-245124999Y-92200000D02*
X-245124999Y-79200000D01*
X-244624998Y-92700001D02*
G75*
G02*
X-245124999Y-92200000I0J500001D01*
G01*
X-231624999Y-92700000D02*
X-244624999Y-92700000D01*
X-231124999Y-92200000D02*
G75*
G02*
X-231624999Y-92700000I-500000J0D01*
G01*
X-231124999Y-79200000D02*
X-231124999Y-92200000D01*
X-231624997Y-78700000D02*
G75*
G02*
X-231124999Y-79200000I-1J-499999D01*
G01*
X-244624999Y-78700000D02*
X-231624999Y-78700000D01*
X-245124998Y-79199999D02*
G75*
G02*
X-244624999Y-78700000I499999J0D01*
G01*
X-145899999Y-73650000D02*
X-158899999Y-73650000D01*
X-145399999Y-73150000D02*
G75*
G02*
X-145899999Y-73650000I-500000J0D01*
G01*
X-145399999Y-60150000D02*
X-145399999Y-73150000D01*
X-145899999Y-59650000D02*
G75*
G02*
X-145399999Y-60150000I0J-500000D01*
G01*
X-158899999Y-59650000D02*
X-145899999Y-59650000D01*
X-159399999Y-60150000D02*
G75*
G02*
X-158899999Y-59650000I500000J0D01*
G01*
X-159399999Y-73150000D02*
X-159399999Y-60150000D01*
X-158899999Y-73650000D02*
G75*
G02*
X-159399999Y-73150000I0J500000D01*
G01*
X-135874999Y-92200000D02*
G75*
G02*
X-136374999Y-92700000I-500000J0D01*
G01*
X-149374999Y-92700000D02*
X-136374999Y-92700000D01*
X-149374997Y-92700000D02*
G75*
G02*
X-149874999Y-92200000I-1J500001D01*
G01*
X-149874999Y-79200000D02*
X-149874999Y-92200000D01*
X-149874999Y-79200000D02*
G75*
G02*
X-149374999Y-78700000I500000J0D01*
G01*
X-136374999Y-78700000D02*
X-149374999Y-78700000D01*
X-136374999Y-78700000D02*
G75*
G02*
X-135874999Y-79200000I0J-500000D01*
G01*
X-135874999Y-92200000D02*
X-135874999Y-79200000D01*
X-68913000Y-41100000D02*
G75*
G02*
X-68413000Y-40600000I500000J0D01*
G01*
X-55413000Y-40600000D02*
X-68413000Y-40600000D01*
X-55413000Y-40600000D02*
G75*
G02*
X-54913000Y-41100000I0J-500000D01*
G01*
X-54913000Y-54100000D02*
X-54913000Y-41100000D01*
X-54913000Y-54100000D02*
G75*
G02*
X-55413000Y-54600000I-500000J0D01*
G01*
X-68413000Y-54600000D02*
X-55413000Y-54600000D01*
X-68413000Y-54600000D02*
G75*
G02*
X-68913000Y-54100000I0J500000D01*
G01*
X-68913000Y-41100000D02*
X-68913000Y-54100000D01*
X-126349999Y-73150000D02*
G75*
G02*
X-126849999Y-73650000I-500000J0D01*
G01*
X-139849999Y-73650000D02*
X-126849999Y-73650000D01*
X-139849999Y-73650000D02*
G75*
G02*
X-140349999Y-73150000I0J500000D01*
G01*
X-140349999Y-60150000D02*
X-140349999Y-73150000D01*
X-140349998Y-60149999D02*
G75*
G02*
X-139849999Y-59650000I499999J0D01*
G01*
X-126849999Y-59650001D02*
X-139849999Y-59650000D01*
X-126849998Y-59650000D02*
G75*
G02*
X-126350000Y-60150000I-1J-499999D01*
G01*
X-126349999Y-73150000D02*
X-126350000Y-60150000D01*
X-130324999Y-92700000D02*
G75*
G02*
X-130824999Y-92200000I0J500000D01*
G01*
X-130824998Y-79200000D02*
X-130824999Y-92200000D01*
X-130824998Y-79200001D02*
G75*
G02*
X-130324999Y-78700000I500000J1D01*
G01*
X-117325000Y-78700000D02*
X-130324999Y-78700000D01*
X-117325000Y-78700000D02*
G75*
G02*
X-116825000Y-79200000I0J-500000D01*
G01*
X-116825000Y-92200000D02*
X-116825000Y-79200000D01*
X-116825000Y-92200000D02*
G75*
G02*
X-117325000Y-92700000I-500000J0D01*
G01*
X-130324999Y-92700000D02*
X-117325000Y-92700000D01*
X-266844999Y-59650000D02*
X-264961999Y-59650000D01*
X-266844999Y-54600000D02*
X-266844999Y-59650000D01*
X-255743999Y-54599482D02*
X-266844999Y-54600000D01*
X-255743999Y-55068000D02*
X-255743999Y-54599482D01*
X-255243999Y-55568000D02*
G75*
G02*
X-255743999Y-55068000I0J500000D01*
G01*
X-248718999Y-55568000D02*
X-255243999Y-55567999D01*
X-248218998Y-55068001D02*
G75*
G02*
X-248718999Y-55568000I-500000J1D01*
G01*
X-248218999Y-54599131D02*
X-248218999Y-55068000D01*
X-245913976Y-54599024D02*
X-248218999Y-54599131D01*
X-245413997Y-54099024D02*
G75*
G02*
X-245913976Y-54599024I-500001J1D01*
G01*
X-245413999Y-41099000D02*
X-245413998Y-54099024D01*
X-245913998Y-40598999D02*
G75*
G02*
X-245413999Y-41099000I-1J-500000D01*
G01*
X-248218999Y-40599000D02*
X-245913999Y-40598999D01*
X-248218999Y-40130000D02*
X-248218999Y-40599000D01*
X-248718999Y-39630000D02*
G75*
G02*
X-248218999Y-40130000I0J-500000D01*
G01*
X-255243999Y-39630000D02*
X-248718999Y-39629999D01*
X-255743998Y-40129999D02*
G75*
G02*
X-255243999Y-39630000I499999J0D01*
G01*
X-255743999Y-40599000D02*
X-255743999Y-40130000D01*
X-272893999Y-40599000D02*
X-255743999Y-40599000D01*
X-272893999Y-40129999D02*
X-272893999Y-40599000D01*
X-273393999Y-39629999D02*
G75*
G02*
X-272893999Y-40129999I0J-500000D01*
G01*
X-279918999Y-39630000D02*
X-273393999Y-39629999D01*
X-280418999Y-40130000D02*
G75*
G02*
X-279918999Y-39630000I500000J0D01*
G01*
X-280418999Y-50124000D02*
X-280418999Y-40130000D01*
X-280844999Y-50124000D02*
X-280418999Y-50124000D01*
X-280844999Y-63624000D02*
X-280844999Y-50124000D01*
X-280344998Y-64123999D02*
G75*
G02*
X-280844999Y-63624000I-1J500000D01*
G01*
X-278461999Y-64124000D02*
X-280344999Y-64124000D01*
X-278461999Y-65699400D02*
X-278461999Y-64124000D01*
X-278874999Y-65699400D02*
X-278461999Y-65699400D01*
X-279374999Y-66199400D02*
G75*
G02*
X-278874999Y-65699400I500000J0D01*
G01*
X-279374999Y-72724400D02*
X-279374999Y-66199400D01*
X-278874999Y-73224400D02*
G75*
G02*
X-279374999Y-72724400I0J500000D01*
G01*
X-278461999Y-73224400D02*
X-278874999Y-73224400D01*
X-278461999Y-73650000D02*
X-278461999Y-73224400D01*
X-264961999Y-73650000D02*
X-278461999Y-73650000D01*
X-264461999Y-73150000D02*
G75*
G02*
X-264961999Y-73650000I-500000J0D01*
G01*
X-264461999Y-60150000D02*
X-264461999Y-73150000D01*
X-264961998Y-59649999D02*
G75*
G02*
X-264461999Y-60150000I-1J-500000D01*
G01*
X-202262999Y-54100000D02*
X-202262999Y-41100000D01*
X-201762999Y-54600000D02*
G75*
G02*
X-202262999Y-54100000I0J500000D01*
G01*
X-188762998Y-54600000D02*
X-201762999Y-54600000D01*
X-188262999Y-54099999D02*
G75*
G02*
X-188762998Y-54600000I-500000J-1D01*
G01*
X-188262999Y-41100000D02*
X-188262999Y-54100000D01*
X-188762999Y-40600000D02*
G75*
G02*
X-188262999Y-41100000I0J-500000D01*
G01*
X-201762999Y-40600000D02*
X-188762998Y-40600000D01*
X-202262998Y-41099999D02*
G75*
G02*
X-201762999Y-40600000I499999J0D01*
G01*
X-245124999Y-16000001D02*
X-245124998Y-3000001D01*
X-244624997Y-16500001D02*
G75*
G02*
X-245124999Y-16000001I-1J500001D01*
G01*
X-193524999Y-16500001D02*
X-244624999Y-16500001D01*
X-193024998Y-16000002D02*
G75*
G02*
X-193524999Y-16500001I-500000J1D01*
G01*
X-193024999Y-3000001D02*
X-193024999Y-16000001D01*
X-193524999Y-2500001D02*
G75*
G02*
X-193024999Y-3000001I0J-500000D01*
G01*
X-244624999Y-2500001D02*
X-193524999Y-2500001D01*
X-245124998Y-3000000D02*
G75*
G02*
X-244624999Y-2500001I499999J0D01*
G01*
X-226362999Y-41100000D02*
X-226362999Y-54100000D01*
X-226862997Y-40600000D02*
G75*
G02*
X-226362999Y-41100000I-1J-499999D01*
G01*
X-239862999Y-40600000D02*
X-226862999Y-40600000D01*
X-240362998Y-41099999D02*
G75*
G02*
X-239862999Y-40600000I499999J0D01*
G01*
X-240362999Y-54100000D02*
X-240362999Y-41100000D01*
X-239862999Y-54600000D02*
G75*
G02*
X-240362999Y-54100000I0J500000D01*
G01*
X-226862999Y-54600000D02*
X-239862999Y-54600000D01*
X-226362999Y-54100000D02*
G75*
G02*
X-226862999Y-54600000I-500000J0D01*
G01*
X-83487000Y-22050000D02*
X-83487000Y-35050000D01*
X-83987000Y-21550000D02*
G75*
G02*
X-83487000Y-22050000I0J-500000D01*
G01*
X-96987000Y-21550001D02*
X-83987000Y-21549999D01*
X-97486998Y-22049999D02*
G75*
G02*
X-96987000Y-21550001I499998J0D01*
G01*
X-97487000Y-35050000D02*
X-97486999Y-22050000D01*
X-96987000Y-35550000D02*
G75*
G02*
X-97487000Y-35050000I0J500000D01*
G01*
X-83987000Y-35550000D02*
X-96987000Y-35550000D01*
X-83487000Y-35050000D02*
G75*
G02*
X-83987000Y-35550000I-500000J0D01*
G01*
X-197786998Y-22050000D02*
X-197786998Y-35050000D01*
X-198286997Y-21549999D02*
G75*
G02*
X-197786998Y-22050000I-1J-500000D01*
G01*
X-211286999Y-21550001D02*
X-198286999Y-21550000D01*
X-211786997Y-22049999D02*
G75*
G02*
X-211286999Y-21550001I499998J0D01*
G01*
X-211786999Y-35050000D02*
X-211786998Y-22050000D01*
X-211286998Y-35550001D02*
G75*
G02*
X-211786999Y-35050000I0J500001D01*
G01*
X-198286999Y-35550000D02*
X-211286999Y-35550000D01*
X-197786997Y-35050000D02*
G75*
G02*
X-198286999Y-35550000I-500001J1D01*
G01*
X-220812999Y-40600000D02*
X-207812999Y-40599999D01*
X-221312999Y-41100000D02*
G75*
G02*
X-220812999Y-40600000I500000J0D01*
G01*
X-221312999Y-54100000D02*
X-221312999Y-41100000D01*
X-220812999Y-54600000D02*
G75*
G02*
X-221312999Y-54100000I0J500000D01*
G01*
X-207812999Y-54600000D02*
X-220812999Y-54599999D01*
X-207312999Y-54100000D02*
G75*
G02*
X-207812999Y-54600000I-500000J0D01*
G01*
X-207312999Y-41100000D02*
X-207312999Y-54100000D01*
X-207812998Y-40599999D02*
G75*
G02*
X-207312999Y-41100000I-1J-500000D01*
G01*
X-169212999Y-41100000D02*
X-169212999Y-54100000D01*
X-169712999Y-40600000D02*
G75*
G02*
X-169212999Y-41100000I0J-500000D01*
G01*
X-182712999Y-40600000D02*
X-169712999Y-40600000D01*
X-183212999Y-41100000D02*
G75*
G02*
X-182712999Y-40600000I500000J0D01*
G01*
X-183212999Y-54100000D02*
X-183212999Y-41100000D01*
X-182712999Y-54600000D02*
G75*
G02*
X-183212999Y-54100000I0J500000D01*
G01*
X-169712998Y-54600000D02*
X-182712999Y-54599999D01*
X-169212998Y-54100000D02*
G75*
G02*
X-169712998Y-54600000I-500000J0D01*
G01*
X-141136999Y-21550000D02*
G75*
G02*
X-140636999Y-22050000I0J-500000D01*
G01*
X-140636999Y-35050000D02*
X-140636999Y-22050000D01*
X-140636999Y-35050000D02*
G75*
G02*
X-141136999Y-35550000I-500000J0D01*
G01*
X-154136999Y-35550000D02*
X-141136999Y-35550000D01*
X-154136999Y-35550000D02*
G75*
G02*
X-154636999Y-35050000I0J500000D01*
G01*
X-154636998Y-22050000D02*
X-154636999Y-35050000D01*
X-154636998Y-22050000D02*
G75*
G02*
X-154136999Y-21550001I499999J0D01*
G01*
X-141136999Y-21550000D02*
X-154136999Y-21550001D01*
X-178736999Y-22050000D02*
X-178736998Y-35050000D01*
X-179236999Y-21550000D02*
G75*
G02*
X-178736999Y-22050000I0J-500000D01*
G01*
X-192236999Y-21550000D02*
X-179236999Y-21549999D01*
X-192736998Y-22049999D02*
G75*
G02*
X-192236999Y-21550000I499999J0D01*
G01*
X-192736999Y-35050000D02*
X-192736998Y-22050000D01*
X-192236997Y-35550000D02*
G75*
G02*
X-192736999Y-35050000I-1J500001D01*
G01*
X-179236999Y-35550000D02*
X-192236999Y-35550000D01*
X-178736998Y-35050001D02*
G75*
G02*
X-179236999Y-35550000I-500000J1D01*
G01*
X-78725000Y-79200000D02*
X-78725000Y-92200000D01*
X-79225000Y-78700000D02*
G75*
G02*
X-78725000Y-79200000I0J-500000D01*
G01*
X-92225000Y-78700000D02*
X-79225000Y-78700000D01*
X-92725000Y-79200000D02*
G75*
G02*
X-92225000Y-78700000I500000J0D01*
G01*
X-92725000Y-92200000D02*
X-92725000Y-79200000D01*
X-92225000Y-92700000D02*
G75*
G02*
X-92725000Y-92200000I0J500000D01*
G01*
X-79225000Y-92700000D02*
X-92225000Y-92700000D01*
X-78725000Y-92200000D02*
G75*
G02*
X-79225000Y-92700000I-500000J0D01*
G01*
X-164449999Y-60150000D02*
X-164449999Y-73150000D01*
X-164949999Y-59650000D02*
G75*
G02*
X-164449999Y-60150000I0J-500000D01*
G01*
X-177949999Y-59650000D02*
X-164949999Y-59650000D01*
X-178449999Y-60150000D02*
G75*
G02*
X-177949999Y-59650000I500000J0D01*
G01*
X-178449999Y-73150000D02*
X-178449999Y-60150000D01*
X-177949998Y-73650001D02*
G75*
G02*
X-178449999Y-73150000I0J500001D01*
G01*
X-164949999Y-73650000D02*
X-177949999Y-73650000D01*
X-164449999Y-73150000D02*
G75*
G02*
X-164949999Y-73650000I-500000J0D01*
G01*
X-77244000Y-2500001D02*
G75*
G02*
X-76744000Y-3000001I0J-500000D01*
G01*
X-76744000Y-16762001D02*
X-76744000Y-3000001D01*
X-76744000Y-16762001D02*
G75*
G02*
X-77244000Y-17262001I-500000J0D01*
G01*
X-88556000Y-17262001D02*
X-77244000Y-17262001D01*
X-88556000Y-17262001D02*
G75*
G02*
X-89056000Y-16762001I0J500000D01*
G01*
X-89056000Y-16500001D02*
X-89056000Y-16762001D01*
X-101444000Y-16500001D02*
X-89056000Y-16500001D01*
X-101444000Y-16762001D02*
X-101444000Y-16500001D01*
X-101444000Y-16762001D02*
G75*
G02*
X-101944000Y-17262001I-500000J0D01*
G01*
X-113256000Y-17262001D02*
X-101944000Y-17262001D01*
X-113256000Y-17262001D02*
G75*
G02*
X-113756000Y-16762001I0J500000D01*
G01*
X-113756000Y-3000001D02*
X-113756000Y-16762001D01*
X-113755999Y-3000002D02*
G75*
G02*
X-113256000Y-2500001I500000J1D01*
G01*
X-77244000Y-2500001D02*
X-113256000Y-2500001D01*
X-116037000Y-21550001D02*
X-103037000Y-21549999D01*
X-116536998Y-22049999D02*
G75*
G02*
X-116037000Y-21550001I499998J0D01*
G01*
X-116537000Y-35050000D02*
X-116536999Y-22050000D01*
X-116037000Y-35550000D02*
G75*
G02*
X-116537000Y-35050000I0J500000D01*
G01*
X-103037000Y-35550000D02*
X-116037000Y-35550000D01*
X-102536999Y-35050001D02*
G75*
G02*
X-103037000Y-35550000I-500000J1D01*
G01*
X-102537000Y-22050000D02*
X-102537000Y-35050000D01*
X-103037000Y-21550000D02*
G75*
G02*
X-102537000Y-22050000I0J-500000D01*
G01*
X-183999997Y-59650000D02*
G75*
G02*
X-183499999Y-60150000I-1J-499999D01*
G01*
X-183499999Y-73150000D02*
X-183499999Y-60150000D01*
X-183499998Y-73149999D02*
G75*
G02*
X-183999999Y-73650000I-500001J0D01*
G01*
X-196999999Y-73650000D02*
X-183999999Y-73650000D01*
X-196999999Y-73650000D02*
G75*
G02*
X-197499999Y-73150000I0J500000D01*
G01*
X-197499999Y-60150000D02*
X-197499999Y-73150000D01*
X-197499998Y-60150001D02*
G75*
G02*
X-196999999Y-59650000I500000J1D01*
G01*
X-183999999Y-59650000D02*
X-196999999Y-59650000D01*
X-264174998Y-3000001D02*
G75*
G02*
X-263674998Y-2500001I500000J0D01*
G01*
X-250674999Y-2500001D02*
X-263674998Y-2500001D01*
X-250674999Y-2500001D02*
G75*
G02*
X-250174999Y-3000001I0J-500000D01*
G01*
X-250174999Y-16000001D02*
X-250174999Y-3000001D01*
X-250174998Y-16000000D02*
G75*
G02*
X-250674999Y-16500001I-500001J0D01*
G01*
X-263674998Y-16500001D02*
X-250674999Y-16500001D01*
X-263674998Y-16500001D02*
G75*
G02*
X-264174999Y-16000000I0J500001D01*
G01*
X-264174999Y-3000001D02*
X-264174999Y-16000000D01*
X-288274999Y-73150000D02*
G75*
G02*
X-288774999Y-73650000I-500000J0D01*
G01*
X-301774999Y-73650000D02*
X-288774999Y-73650000D01*
X-301774999Y-73650000D02*
G75*
G02*
X-302274999Y-73150000I0J500000D01*
G01*
X-302274999Y-60150000D02*
X-302274999Y-73150000D01*
X-302274998Y-60149999D02*
G75*
G02*
X-301774999Y-59650000I499999J0D01*
G01*
X-288774999Y-59650000D02*
X-301774999Y-59650000D01*
X-288774999Y-59650000D02*
G75*
G02*
X-288274999Y-60150000I0J-500000D01*
G01*
X-288274999Y-73150000D02*
X-288274999Y-60150000D01*
X-77937000Y-21550001D02*
X-64937000Y-21550000D01*
X-78436999Y-22050000D02*
G75*
G02*
X-77937000Y-21550001I499999J0D01*
G01*
X-78437000Y-35050000D02*
X-78436999Y-22050000D01*
X-77937000Y-35550000D02*
G75*
G02*
X-78437000Y-35050000I0J500000D01*
G01*
X-64937000Y-35550000D02*
X-77937000Y-35550000D01*
X-64437000Y-35050000D02*
G75*
G02*
X-64937000Y-35550000I-500000J0D01*
G01*
X-64437000Y-22050000D02*
X-64437000Y-35050000D01*
X-64937000Y-21550000D02*
G75*
G02*
X-64437000Y-22050000I0J-500000D01*
G01*
X-40624999Y-92199999D02*
G75*
G02*
X-41125000Y-92700000I-500001J0D01*
G01*
X-54125000Y-92700000D02*
X-41125000Y-92700000D01*
X-54125000Y-92700000D02*
G75*
G02*
X-54625000Y-92200000I0J500000D01*
G01*
X-54625000Y-79200000D02*
X-54625000Y-92200000D01*
X-54625000Y-79200000D02*
G75*
G02*
X-54125000Y-78700000I500000J0D01*
G01*
X-41125000Y-78700000D02*
X-54125000Y-78700000D01*
X-41125000Y-78699999D02*
G75*
G02*
X-40624999Y-79200000I0J-500001D01*
G01*
X-40624999Y-92200000D02*
X-40624999Y-79200000D01*
X-283224999Y-35050000D02*
X-283224998Y-22050000D01*
X-282724998Y-35550001D02*
G75*
G02*
X-283224999Y-35050000I0J500001D01*
G01*
X-269724999Y-35550000D02*
X-282724999Y-35550000D01*
X-269224998Y-35049999D02*
G75*
G02*
X-269724999Y-35550000I-500001J0D01*
G01*
X-269224999Y-22050000D02*
X-269224999Y-35050000D01*
X-269724998Y-21549999D02*
G75*
G02*
X-269224999Y-22050000I-1J-500000D01*
G01*
X-282724999Y-21550001D02*
X-269724999Y-21549999D01*
X-283224997Y-22049999D02*
G75*
G02*
X-282724999Y-21550001I499998J0D01*
G01*
D11*
G36*
X-28562730Y-54632098D02*
G01*
X-28595323Y-54620972D01*
X-28623391Y-54601216D01*
X-28637319Y-54585070D01*
X-28650591Y-54557730D01*
X-28657183Y-54525357D01*
X-28656426Y-54492620D01*
X-28652830Y-54476765D01*
X-28651163Y-54473847D01*
X-28647211Y-54468711D01*
X-28640770Y-54461151D01*
X-28631637Y-54450962D01*
X-28619607Y-54437938D01*
X-28604477Y-54421873D01*
X-28586043Y-54402562D01*
X-28564101Y-54379798D01*
X-28538447Y-54353376D01*
X-28508877Y-54323091D01*
X-28475187Y-54288736D01*
X-28437173Y-54250105D01*
X-28394631Y-54206994D01*
X-28347357Y-54159195D01*
X-28295148Y-54106505D01*
X-28237799Y-54048716D01*
X-28175107Y-53985623D01*
X-28106867Y-53917020D01*
X-28032876Y-53842702D01*
X-27952930Y-53762462D01*
X-27866824Y-53676096D01*
X-27774355Y-53583397D01*
X-27675319Y-53484159D01*
X-27569512Y-53378177D01*
X-27456730Y-53265246D01*
X-27336769Y-53145158D01*
X-27209425Y-53017710D01*
X-27074494Y-52882694D01*
X-26931773Y-52739905D01*
X-26869847Y-52677955D01*
X-25093887Y-50901372D01*
X-29802857Y-46192402D01*
X-32157347Y-48546897D01*
X-34511836Y-50901392D01*
X-32738663Y-52675111D01*
X-32619349Y-52794484D01*
X-32502048Y-52911884D01*
X-32387020Y-53027052D01*
X-32274525Y-53139726D01*
X-32164823Y-53249643D01*
X-32058173Y-53356544D01*
X-31954835Y-53460167D01*
X-31855069Y-53560250D01*
X-31759136Y-53656533D01*
X-31667294Y-53748754D01*
X-31579804Y-53836651D01*
X-31496925Y-53919964D01*
X-31418917Y-53998430D01*
X-31346040Y-54071790D01*
X-31278555Y-54139781D01*
X-31216720Y-54202143D01*
X-31160795Y-54258613D01*
X-31111040Y-54308931D01*
X-31067716Y-54352835D01*
X-31031082Y-54390065D01*
X-31001397Y-54420358D01*
X-30978922Y-54443454D01*
X-30963917Y-54459091D01*
X-30956640Y-54467008D01*
X-30955977Y-54467887D01*
X-30947304Y-54497092D01*
X-30947257Y-54529513D01*
X-30955171Y-54561733D01*
X-30970380Y-54590333D01*
X-30982477Y-54604098D01*
X-31009595Y-54622074D01*
X-31041904Y-54632043D01*
X-31076011Y-54633521D01*
X-31108520Y-54626024D01*
X-31115287Y-54623041D01*
X-31120727Y-54618665D01*
X-31132836Y-54607566D01*
X-31151676Y-54589679D01*
X-31177312Y-54564942D01*
X-31209809Y-54533290D01*
X-31249231Y-54494659D01*
X-31295640Y-54448987D01*
X-31349103Y-54396209D01*
X-31409682Y-54336261D01*
X-31477442Y-54269081D01*
X-31552447Y-54194604D01*
X-31634761Y-54112766D01*
X-31724448Y-54023503D01*
X-31821572Y-53926753D01*
X-31926198Y-53822452D01*
X-32038389Y-53710535D01*
X-32158209Y-53590938D01*
X-32285723Y-53463599D01*
X-32420995Y-53328454D01*
X-32564088Y-53185439D01*
X-32715068Y-53034489D01*
X-32873997Y-52875542D01*
X-32962974Y-52786536D01*
X-34787454Y-50961325D01*
X-34794341Y-50931359D01*
X-34798226Y-50906672D01*
X-34796831Y-50883928D01*
X-34794314Y-50871427D01*
X-34793284Y-50867275D01*
X-34791902Y-50863066D01*
X-34789780Y-50858397D01*
X-34786533Y-50852866D01*
X-34781773Y-50846074D01*
X-34775115Y-50837617D01*
X-34766172Y-50827094D01*
X-34754558Y-50814105D01*
X-34739886Y-50798246D01*
X-34721771Y-50779118D01*
X-34699824Y-50756318D01*
X-34673661Y-50729444D01*
X-34642895Y-50698096D01*
X-34607139Y-50661871D01*
X-34566007Y-50620369D01*
X-34519113Y-50573188D01*
X-34466070Y-50519925D01*
X-34406491Y-50460181D01*
X-34339991Y-50393552D01*
X-34266183Y-50319638D01*
X-34187377Y-50240737D01*
X-33587353Y-49640013D01*
X-33893303Y-49333186D01*
X-33950371Y-49275933D01*
X-33999908Y-49226163D01*
X-34042459Y-49183293D01*
X-34078570Y-49146741D01*
X-34108788Y-49115921D01*
X-34133657Y-49090250D01*
X-34153724Y-49069145D01*
X-34169534Y-49052022D01*
X-34181632Y-49038297D01*
X-34190565Y-49027387D01*
X-34196878Y-49018707D01*
X-34201117Y-49011676D01*
X-34203827Y-49005708D01*
X-34205555Y-49000220D01*
X-34205900Y-48998845D01*
X-34209542Y-48964441D01*
X-34204414Y-48931564D01*
X-34198228Y-48916106D01*
X-34193816Y-48911298D01*
X-34181566Y-48898655D01*
X-34161710Y-48878413D01*
X-34134485Y-48850805D01*
X-34100124Y-48816069D01*
X-34058863Y-48774440D01*
X-34010936Y-48726152D01*
X-33956577Y-48671441D01*
X-33896021Y-48610542D01*
X-33829504Y-48543692D01*
X-33757258Y-48471125D01*
X-33679520Y-48393076D01*
X-33596523Y-48309782D01*
X-33508502Y-48221477D01*
X-33415693Y-48128397D01*
X-33318329Y-48030777D01*
X-33216645Y-47928852D01*
X-33110875Y-47822859D01*
X-33001255Y-47713032D01*
X-32888019Y-47599606D01*
X-32771402Y-47482818D01*
X-32651637Y-47362902D01*
X-32528961Y-47240094D01*
X-32403607Y-47114629D01*
X-32275810Y-46986743D01*
X-32145804Y-46856670D01*
X-32031418Y-46742245D01*
X-31856204Y-46567001D01*
X-31688960Y-46399764D01*
X-31529602Y-46240450D01*
X-31378048Y-46088977D01*
X-31234213Y-45945261D01*
X-31098013Y-45809218D01*
X-30969365Y-45680766D01*
X-30848185Y-45559820D01*
X-30734389Y-45446299D01*
X-30627894Y-45340118D01*
X-30528616Y-45241194D01*
X-30436471Y-45149443D01*
X-30351374Y-45064784D01*
X-30273244Y-44987132D01*
X-30201995Y-44916403D01*
X-30137545Y-44852516D01*
X-30079809Y-44795385D01*
X-30028703Y-44744929D01*
X-29984144Y-44701064D01*
X-29946049Y-44663706D01*
X-29914333Y-44632773D01*
X-29888912Y-44608180D01*
X-29869704Y-44589845D01*
X-29856624Y-44577685D01*
X-29849588Y-44571615D01*
X-29848516Y-44570904D01*
X-29816710Y-44561974D01*
X-29781239Y-44562415D01*
X-29760044Y-44567058D01*
X-29756978Y-44569039D01*
X-29750830Y-44574153D01*
X-29741427Y-44582573D01*
X-29728597Y-44594470D01*
X-29712166Y-44610015D01*
X-29691962Y-44629381D01*
X-29667812Y-44652739D01*
X-29639544Y-44680261D01*
X-29606983Y-44712118D01*
X-29569958Y-44748482D01*
X-29528295Y-44789525D01*
X-29481822Y-44835418D01*
X-29430365Y-44886332D01*
X-29373753Y-44942440D01*
X-29311812Y-45003913D01*
X-29244369Y-45070923D01*
X-29171251Y-45143641D01*
X-29092286Y-45222240D01*
X-29007301Y-45306889D01*
X-28916122Y-45397762D01*
X-28818578Y-45495030D01*
X-28714495Y-45598864D01*
X-28603700Y-45709437D01*
X-28486020Y-45826919D01*
X-28361283Y-45951482D01*
X-28229316Y-46083299D01*
X-28089946Y-46222540D01*
X-27943000Y-46369377D01*
X-27788305Y-46523982D01*
X-27655246Y-46656981D01*
X-27522198Y-46789995D01*
X-27391537Y-46920659D01*
X-27263490Y-47048747D01*
X-27138285Y-47174031D01*
X-27016146Y-47296282D01*
X-26897303Y-47415273D01*
X-26781980Y-47530776D01*
X-26670406Y-47642564D01*
X-26562806Y-47750408D01*
X-26459408Y-47854080D01*
X-26360439Y-47953354D01*
X-26266125Y-48048001D01*
X-26176694Y-48137793D01*
X-26092371Y-48222502D01*
X-26013385Y-48301902D01*
X-25939961Y-48375763D01*
X-25872326Y-48443858D01*
X-25810708Y-48505959D01*
X-25755333Y-48561839D01*
X-25706428Y-48611269D01*
X-25664220Y-48654023D01*
X-25628935Y-48689871D01*
X-25600801Y-48718587D01*
X-25580044Y-48739942D01*
X-25566891Y-48753709D01*
X-25561569Y-48759659D01*
X-25561480Y-48759808D01*
X-25550295Y-48794582D01*
X-25550232Y-48812309D01*
X-25835898Y-48812309D01*
X-27816522Y-46831587D01*
X-27942581Y-46705537D01*
X-28066626Y-46581532D01*
X-28188414Y-46459815D01*
X-28307698Y-46340630D01*
X-28424234Y-46224221D01*
X-28537778Y-46110831D01*
X-28648084Y-46000706D01*
X-28754908Y-45894087D01*
X-28858005Y-45791220D01*
X-28957130Y-45692348D01*
X-29052038Y-45597715D01*
X-29142485Y-45507564D01*
X-29228227Y-45422141D01*
X-29309017Y-45341687D01*
X-29384611Y-45266448D01*
X-29454765Y-45196667D01*
X-29519234Y-45132588D01*
X-29577772Y-45074454D01*
X-29630136Y-45022511D01*
X-29676080Y-44977000D01*
X-29715360Y-44938167D01*
X-29747731Y-44906255D01*
X-29772947Y-44881508D01*
X-29790765Y-44864170D01*
X-29800939Y-44854485D01*
X-29803402Y-44852387D01*
X-29807788Y-44856483D01*
X-29819999Y-44868418D01*
X-29839794Y-44887953D01*
X-29866933Y-44914848D01*
X-29901177Y-44948864D01*
X-29942285Y-44989760D01*
X-29990017Y-45037296D01*
X-30044134Y-45091232D01*
X-30104394Y-45151330D01*
X-30170558Y-45217348D01*
X-30242386Y-45289048D01*
X-30319637Y-45366188D01*
X-30402073Y-45448530D01*
X-30489451Y-45535833D01*
X-30581533Y-45627858D01*
X-30678079Y-45724364D01*
X-30778848Y-45825113D01*
X-30883599Y-45929863D01*
X-30992094Y-46038375D01*
X-31104092Y-46150410D01*
X-31219353Y-46265727D01*
X-31337637Y-46384087D01*
X-31458703Y-46505250D01*
X-31582312Y-46628975D01*
X-31708223Y-46755023D01*
X-31836197Y-46883155D01*
X-31864996Y-46911992D01*
X-33920334Y-48970073D01*
X-33669549Y-49220809D01*
X-33418765Y-49471545D01*
X-31645056Y-47698033D01*
X-31489208Y-47542220D01*
X-31341292Y-47394377D01*
X-31201189Y-47254385D01*
X-31068778Y-47122124D01*
X-30943938Y-46997473D01*
X-30826549Y-46880313D01*
X-30716489Y-46770523D01*
X-30613638Y-46667985D01*
X-30517876Y-46572579D01*
X-30429081Y-46484183D01*
X-30347133Y-46402679D01*
X-30271911Y-46327947D01*
X-30203295Y-46259866D01*
X-30141163Y-46198317D01*
X-30085395Y-46143180D01*
X-30035870Y-46094336D01*
X-29992468Y-46051663D01*
X-29955068Y-46015043D01*
X-29923549Y-45984356D01*
X-29897790Y-45959481D01*
X-29877670Y-45940299D01*
X-29863070Y-45926689D01*
X-29853868Y-45918533D01*
X-29850127Y-45915766D01*
X-29825811Y-45909424D01*
X-29797191Y-45907247D01*
X-29769900Y-45909403D01*
X-29756135Y-45912982D01*
X-29750945Y-45917429D01*
X-29737920Y-45929727D01*
X-29717288Y-45949651D01*
X-29689279Y-45976971D01*
X-29654123Y-46011460D01*
X-29612047Y-46052890D01*
X-29563281Y-46101034D01*
X-29508055Y-46155664D01*
X-29446597Y-46216553D01*
X-29379137Y-46283472D01*
X-29305903Y-46356193D01*
X-29227125Y-46434490D01*
X-29143031Y-46518135D01*
X-29053852Y-46606899D01*
X-28959815Y-46700555D01*
X-28861150Y-46798875D01*
X-28758086Y-46901633D01*
X-28650852Y-47008599D01*
X-28539678Y-47119546D01*
X-28424792Y-47234247D01*
X-28306423Y-47352473D01*
X-28184801Y-47473998D01*
X-28060155Y-47598593D01*
X-28040548Y-47618196D01*
X-26341028Y-49317439D01*
X-25835898Y-48812309D01*
X-25550232Y-48812309D01*
X-25550170Y-48829615D01*
X-25553423Y-48845123D01*
X-25555216Y-48850628D01*
X-25558049Y-48856686D01*
X-25562469Y-48863880D01*
X-25569020Y-48872790D01*
X-25578247Y-48883997D01*
X-25590695Y-48898084D01*
X-25606909Y-48915630D01*
X-25627435Y-48937217D01*
X-25652817Y-48963427D01*
X-25683600Y-48994841D01*
X-25720330Y-49032039D01*
X-25763552Y-49075604D01*
X-25813810Y-49126116D01*
X-25866608Y-49179101D01*
X-26172520Y-49485955D01*
X-25497826Y-50160854D01*
X-25401968Y-50256794D01*
X-25314058Y-50344893D01*
X-25233920Y-50425329D01*
X-25161379Y-50498280D01*
X-25096261Y-50563926D01*
X-25038388Y-50622444D01*
X-24987587Y-50674014D01*
X-24943681Y-50718815D01*
X-24906494Y-50757024D01*
X-24875853Y-50788821D01*
X-24851580Y-50814385D01*
X-24833502Y-50833894D01*
X-24821441Y-50847526D01*
X-24815223Y-50855461D01*
X-24814375Y-50856974D01*
X-24806627Y-50889633D01*
X-24808317Y-50923946D01*
X-24816584Y-50949910D01*
X-24821466Y-50955777D01*
X-24834123Y-50969377D01*
X-24854243Y-50990397D01*
X-24881516Y-51018527D01*
X-24915628Y-51053455D01*
X-24956270Y-51094869D01*
X-25003129Y-51142458D01*
X-25055893Y-51195911D01*
X-25114251Y-51254916D01*
X-25177892Y-51319162D01*
X-25246503Y-51388338D01*
X-25319774Y-51462131D01*
X-25397393Y-51540231D01*
X-25479047Y-51622326D01*
X-25564427Y-51708105D01*
X-25653219Y-51797257D01*
X-25745112Y-51889469D01*
X-25839796Y-51984431D01*
X-25936958Y-52081830D01*
X-26036286Y-52181357D01*
X-26137469Y-52282698D01*
X-26240196Y-52385544D01*
X-26344155Y-52489582D01*
X-26449035Y-52594501D01*
X-26554523Y-52699989D01*
X-26660308Y-52805736D01*
X-26766079Y-52911430D01*
X-26871524Y-53016758D01*
X-26976331Y-53121411D01*
X-27080190Y-53225076D01*
X-27182787Y-53327442D01*
X-27283813Y-53428198D01*
X-27382955Y-53527033D01*
X-27479901Y-53623634D01*
X-27574340Y-53717690D01*
X-27665961Y-53808891D01*
X-27754451Y-53896924D01*
X-27839500Y-53981478D01*
X-27920796Y-54062242D01*
X-27998027Y-54138904D01*
X-28070881Y-54211153D01*
X-28139047Y-54278678D01*
X-28202214Y-54341167D01*
X-28260070Y-54398308D01*
X-28312302Y-54449791D01*
X-28358601Y-54495303D01*
X-28398654Y-54534534D01*
X-28432149Y-54567172D01*
X-28458775Y-54592906D01*
X-28478220Y-54611424D01*
X-28490174Y-54622414D01*
X-28494142Y-54625581D01*
X-28528155Y-54633874D01*
X-28562730Y-54632098D01*
G37*
X-28562730Y-54632098D02*
X-28595323Y-54620972D01*
X-28623391Y-54601216D01*
X-28637319Y-54585070D01*
X-28650591Y-54557730D01*
X-28657183Y-54525357D01*
X-28656426Y-54492620D01*
X-28652830Y-54476765D01*
X-28651163Y-54473847D01*
X-28647211Y-54468711D01*
X-28640770Y-54461151D01*
X-28631637Y-54450962D01*
X-28619607Y-54437938D01*
X-28604477Y-54421873D01*
X-28586043Y-54402562D01*
X-28564101Y-54379798D01*
X-28538447Y-54353376D01*
X-28508877Y-54323091D01*
X-28475187Y-54288736D01*
X-28437173Y-54250105D01*
X-28394631Y-54206994D01*
X-28347357Y-54159195D01*
X-28295148Y-54106505D01*
X-28237799Y-54048716D01*
X-28175107Y-53985623D01*
X-28106867Y-53917020D01*
X-28032876Y-53842702D01*
X-27952930Y-53762462D01*
X-27866824Y-53676096D01*
X-27774355Y-53583397D01*
X-27675319Y-53484159D01*
X-27569512Y-53378177D01*
X-27456730Y-53265246D01*
X-27336769Y-53145158D01*
X-27209425Y-53017710D01*
X-27074494Y-52882694D01*
X-26931773Y-52739905D01*
X-26869847Y-52677955D01*
X-25093887Y-50901372D01*
X-29802857Y-46192402D01*
X-32157347Y-48546897D01*
X-34511836Y-50901392D01*
X-32738663Y-52675111D01*
X-32619349Y-52794484D01*
X-32502048Y-52911884D01*
X-32387020Y-53027052D01*
X-32274525Y-53139726D01*
X-32164823Y-53249643D01*
X-32058173Y-53356544D01*
X-31954835Y-53460167D01*
X-31855069Y-53560250D01*
X-31759136Y-53656533D01*
X-31667294Y-53748754D01*
X-31579804Y-53836651D01*
X-31496925Y-53919964D01*
X-31418917Y-53998430D01*
X-31346040Y-54071790D01*
X-31278555Y-54139781D01*
X-31216720Y-54202143D01*
X-31160795Y-54258613D01*
X-31111040Y-54308931D01*
X-31067716Y-54352835D01*
X-31031082Y-54390065D01*
X-31001397Y-54420358D01*
X-30978922Y-54443454D01*
X-30963917Y-54459091D01*
X-30956640Y-54467008D01*
X-30955977Y-54467887D01*
X-30947304Y-54497092D01*
X-30947257Y-54529513D01*
X-30955171Y-54561733D01*
X-30970380Y-54590333D01*
X-30982477Y-54604098D01*
X-31009595Y-54622074D01*
X-31041904Y-54632043D01*
X-31076011Y-54633521D01*
X-31108520Y-54626024D01*
X-31115287Y-54623041D01*
X-31120727Y-54618665D01*
X-31132836Y-54607566D01*
X-31151676Y-54589679D01*
X-31177312Y-54564942D01*
X-31209809Y-54533290D01*
X-31249231Y-54494659D01*
X-31295640Y-54448987D01*
X-31349103Y-54396209D01*
X-31409682Y-54336261D01*
X-31477442Y-54269081D01*
X-31552447Y-54194604D01*
X-31634761Y-54112766D01*
X-31724448Y-54023503D01*
X-31821572Y-53926753D01*
X-31926198Y-53822452D01*
X-32038389Y-53710535D01*
X-32158209Y-53590938D01*
X-32285723Y-53463599D01*
X-32420995Y-53328454D01*
X-32564088Y-53185439D01*
X-32715068Y-53034489D01*
X-32873997Y-52875542D01*
X-32962974Y-52786536D01*
X-34787454Y-50961325D01*
X-34794341Y-50931359D01*
X-34798226Y-50906672D01*
X-34796831Y-50883928D01*
X-34794314Y-50871427D01*
X-34793284Y-50867275D01*
X-34791902Y-50863066D01*
X-34789780Y-50858397D01*
X-34786533Y-50852866D01*
X-34781773Y-50846074D01*
X-34775115Y-50837617D01*
X-34766172Y-50827094D01*
X-34754558Y-50814105D01*
X-34739886Y-50798246D01*
X-34721771Y-50779118D01*
X-34699824Y-50756318D01*
X-34673661Y-50729444D01*
X-34642895Y-50698096D01*
X-34607139Y-50661871D01*
X-34566007Y-50620369D01*
X-34519113Y-50573188D01*
X-34466070Y-50519925D01*
X-34406491Y-50460181D01*
X-34339991Y-50393552D01*
X-34266183Y-50319638D01*
X-34187377Y-50240737D01*
X-33587353Y-49640013D01*
X-33893303Y-49333186D01*
X-33950371Y-49275933D01*
X-33999908Y-49226163D01*
X-34042459Y-49183293D01*
X-34078570Y-49146741D01*
X-34108788Y-49115921D01*
X-34133657Y-49090250D01*
X-34153724Y-49069145D01*
X-34169534Y-49052022D01*
X-34181632Y-49038297D01*
X-34190565Y-49027387D01*
X-34196878Y-49018707D01*
X-34201117Y-49011676D01*
X-34203827Y-49005708D01*
X-34205555Y-49000220D01*
X-34205900Y-48998845D01*
X-34209542Y-48964441D01*
X-34204414Y-48931564D01*
X-34198228Y-48916106D01*
X-34193816Y-48911298D01*
X-34181566Y-48898655D01*
X-34161710Y-48878413D01*
X-34134485Y-48850805D01*
X-34100124Y-48816069D01*
X-34058863Y-48774440D01*
X-34010936Y-48726152D01*
X-33956577Y-48671441D01*
X-33896021Y-48610542D01*
X-33829504Y-48543692D01*
X-33757258Y-48471125D01*
X-33679520Y-48393076D01*
X-33596523Y-48309782D01*
X-33508502Y-48221477D01*
X-33415693Y-48128397D01*
X-33318329Y-48030777D01*
X-33216645Y-47928852D01*
X-33110875Y-47822859D01*
X-33001255Y-47713032D01*
X-32888019Y-47599606D01*
X-32771402Y-47482818D01*
X-32651637Y-47362902D01*
X-32528961Y-47240094D01*
X-32403607Y-47114629D01*
X-32275810Y-46986743D01*
X-32145804Y-46856670D01*
X-32031418Y-46742245D01*
X-31856204Y-46567001D01*
X-31688960Y-46399764D01*
X-31529602Y-46240450D01*
X-31378048Y-46088977D01*
X-31234213Y-45945261D01*
X-31098013Y-45809218D01*
X-30969365Y-45680766D01*
X-30848185Y-45559820D01*
X-30734389Y-45446299D01*
X-30627894Y-45340118D01*
X-30528616Y-45241194D01*
X-30436471Y-45149443D01*
X-30351374Y-45064784D01*
X-30273244Y-44987132D01*
X-30201995Y-44916403D01*
X-30137545Y-44852516D01*
X-30079809Y-44795385D01*
X-30028703Y-44744929D01*
X-29984144Y-44701064D01*
X-29946049Y-44663706D01*
X-29914333Y-44632773D01*
X-29888912Y-44608180D01*
X-29869704Y-44589845D01*
X-29856624Y-44577685D01*
X-29849588Y-44571615D01*
X-29848516Y-44570904D01*
X-29816710Y-44561974D01*
X-29781239Y-44562415D01*
X-29760044Y-44567058D01*
X-29756978Y-44569039D01*
X-29750830Y-44574153D01*
X-29741427Y-44582573D01*
X-29728597Y-44594470D01*
X-29712166Y-44610015D01*
X-29691962Y-44629381D01*
X-29667812Y-44652739D01*
X-29639544Y-44680261D01*
X-29606983Y-44712118D01*
X-29569958Y-44748482D01*
X-29528295Y-44789525D01*
X-29481822Y-44835418D01*
X-29430365Y-44886332D01*
X-29373753Y-44942440D01*
X-29311812Y-45003913D01*
X-29244369Y-45070923D01*
X-29171251Y-45143641D01*
X-29092286Y-45222240D01*
X-29007301Y-45306889D01*
X-28916122Y-45397762D01*
X-28818578Y-45495030D01*
X-28714495Y-45598864D01*
X-28603700Y-45709437D01*
X-28486020Y-45826919D01*
X-28361283Y-45951482D01*
X-28229316Y-46083299D01*
X-28089946Y-46222540D01*
X-27943000Y-46369377D01*
X-27788305Y-46523982D01*
X-27655246Y-46656981D01*
X-27522198Y-46789995D01*
X-27391537Y-46920659D01*
X-27263490Y-47048747D01*
X-27138285Y-47174031D01*
X-27016146Y-47296282D01*
X-26897303Y-47415273D01*
X-26781980Y-47530776D01*
X-26670406Y-47642564D01*
X-26562806Y-47750408D01*
X-26459408Y-47854080D01*
X-26360439Y-47953354D01*
X-26266125Y-48048001D01*
X-26176694Y-48137793D01*
X-26092371Y-48222502D01*
X-26013385Y-48301902D01*
X-25939961Y-48375763D01*
X-25872326Y-48443858D01*
X-25810708Y-48505959D01*
X-25755333Y-48561839D01*
X-25706428Y-48611269D01*
X-25664220Y-48654023D01*
X-25628935Y-48689871D01*
X-25600801Y-48718587D01*
X-25580044Y-48739942D01*
X-25566891Y-48753709D01*
X-25561569Y-48759659D01*
X-25561480Y-48759808D01*
X-25550295Y-48794582D01*
X-25550232Y-48812309D01*
X-25835898Y-48812309D01*
X-27816522Y-46831587D01*
X-27942581Y-46705537D01*
X-28066626Y-46581532D01*
X-28188414Y-46459815D01*
X-28307698Y-46340630D01*
X-28424234Y-46224221D01*
X-28537778Y-46110831D01*
X-28648084Y-46000706D01*
X-28754908Y-45894087D01*
X-28858005Y-45791220D01*
X-28957130Y-45692348D01*
X-29052038Y-45597715D01*
X-29142485Y-45507564D01*
X-29228227Y-45422141D01*
X-29309017Y-45341687D01*
X-29384611Y-45266448D01*
X-29454765Y-45196667D01*
X-29519234Y-45132588D01*
X-29577772Y-45074454D01*
X-29630136Y-45022511D01*
X-29676080Y-44977000D01*
X-29715360Y-44938167D01*
X-29747731Y-44906255D01*
X-29772947Y-44881508D01*
X-29790765Y-44864170D01*
X-29800939Y-44854485D01*
X-29803402Y-44852387D01*
X-29807788Y-44856483D01*
X-29819999Y-44868418D01*
X-29839794Y-44887953D01*
X-29866933Y-44914848D01*
X-29901177Y-44948864D01*
X-29942285Y-44989760D01*
X-29990017Y-45037296D01*
X-30044134Y-45091232D01*
X-30104394Y-45151330D01*
X-30170558Y-45217348D01*
X-30242386Y-45289048D01*
X-30319637Y-45366188D01*
X-30402073Y-45448530D01*
X-30489451Y-45535833D01*
X-30581533Y-45627858D01*
X-30678079Y-45724364D01*
X-30778848Y-45825113D01*
X-30883599Y-45929863D01*
X-30992094Y-46038375D01*
X-31104092Y-46150410D01*
X-31219353Y-46265727D01*
X-31337637Y-46384087D01*
X-31458703Y-46505250D01*
X-31582312Y-46628975D01*
X-31708223Y-46755023D01*
X-31836197Y-46883155D01*
X-31864996Y-46911992D01*
X-33920334Y-48970073D01*
X-33669549Y-49220809D01*
X-33418765Y-49471545D01*
X-31645056Y-47698033D01*
X-31489208Y-47542220D01*
X-31341292Y-47394377D01*
X-31201189Y-47254385D01*
X-31068778Y-47122124D01*
X-30943938Y-46997473D01*
X-30826549Y-46880313D01*
X-30716489Y-46770523D01*
X-30613638Y-46667985D01*
X-30517876Y-46572579D01*
X-30429081Y-46484183D01*
X-30347133Y-46402679D01*
X-30271911Y-46327947D01*
X-30203295Y-46259866D01*
X-30141163Y-46198317D01*
X-30085395Y-46143180D01*
X-30035870Y-46094336D01*
X-29992468Y-46051663D01*
X-29955068Y-46015043D01*
X-29923549Y-45984356D01*
X-29897790Y-45959481D01*
X-29877670Y-45940299D01*
X-29863070Y-45926689D01*
X-29853868Y-45918533D01*
X-29850127Y-45915766D01*
X-29825811Y-45909424D01*
X-29797191Y-45907247D01*
X-29769900Y-45909403D01*
X-29756135Y-45912982D01*
X-29750945Y-45917429D01*
X-29737920Y-45929727D01*
X-29717288Y-45949651D01*
X-29689279Y-45976971D01*
X-29654123Y-46011460D01*
X-29612047Y-46052890D01*
X-29563281Y-46101034D01*
X-29508055Y-46155664D01*
X-29446597Y-46216553D01*
X-29379137Y-46283472D01*
X-29305903Y-46356193D01*
X-29227125Y-46434490D01*
X-29143031Y-46518135D01*
X-29053852Y-46606899D01*
X-28959815Y-46700555D01*
X-28861150Y-46798875D01*
X-28758086Y-46901633D01*
X-28650852Y-47008599D01*
X-28539678Y-47119546D01*
X-28424792Y-47234247D01*
X-28306423Y-47352473D01*
X-28184801Y-47473998D01*
X-28060155Y-47598593D01*
X-28040548Y-47618196D01*
X-26341028Y-49317439D01*
X-25835898Y-48812309D01*
X-25550232Y-48812309D01*
X-25550170Y-48829615D01*
X-25553423Y-48845123D01*
X-25555216Y-48850628D01*
X-25558049Y-48856686D01*
X-25562469Y-48863880D01*
X-25569020Y-48872790D01*
X-25578247Y-48883997D01*
X-25590695Y-48898084D01*
X-25606909Y-48915630D01*
X-25627435Y-48937217D01*
X-25652817Y-48963427D01*
X-25683600Y-48994841D01*
X-25720330Y-49032039D01*
X-25763552Y-49075604D01*
X-25813810Y-49126116D01*
X-25866608Y-49179101D01*
X-26172520Y-49485955D01*
X-25497826Y-50160854D01*
X-25401968Y-50256794D01*
X-25314058Y-50344893D01*
X-25233920Y-50425329D01*
X-25161379Y-50498280D01*
X-25096261Y-50563926D01*
X-25038388Y-50622444D01*
X-24987587Y-50674014D01*
X-24943681Y-50718815D01*
X-24906494Y-50757024D01*
X-24875853Y-50788821D01*
X-24851580Y-50814385D01*
X-24833502Y-50833894D01*
X-24821441Y-50847526D01*
X-24815223Y-50855461D01*
X-24814375Y-50856974D01*
X-24806627Y-50889633D01*
X-24808317Y-50923946D01*
X-24816584Y-50949910D01*
X-24821466Y-50955777D01*
X-24834123Y-50969377D01*
X-24854243Y-50990397D01*
X-24881516Y-51018527D01*
X-24915628Y-51053455D01*
X-24956270Y-51094869D01*
X-25003129Y-51142458D01*
X-25055893Y-51195911D01*
X-25114251Y-51254916D01*
X-25177892Y-51319162D01*
X-25246503Y-51388338D01*
X-25319774Y-51462131D01*
X-25397393Y-51540231D01*
X-25479047Y-51622326D01*
X-25564427Y-51708105D01*
X-25653219Y-51797257D01*
X-25745112Y-51889469D01*
X-25839796Y-51984431D01*
X-25936958Y-52081830D01*
X-26036286Y-52181357D01*
X-26137469Y-52282698D01*
X-26240196Y-52385544D01*
X-26344155Y-52489582D01*
X-26449035Y-52594501D01*
X-26554523Y-52699989D01*
X-26660308Y-52805736D01*
X-26766079Y-52911430D01*
X-26871524Y-53016758D01*
X-26976331Y-53121411D01*
X-27080190Y-53225076D01*
X-27182787Y-53327442D01*
X-27283813Y-53428198D01*
X-27382955Y-53527033D01*
X-27479901Y-53623634D01*
X-27574340Y-53717690D01*
X-27665961Y-53808891D01*
X-27754451Y-53896924D01*
X-27839500Y-53981478D01*
X-27920796Y-54062242D01*
X-27998027Y-54138904D01*
X-28070881Y-54211153D01*
X-28139047Y-54278678D01*
X-28202214Y-54341167D01*
X-28260070Y-54398308D01*
X-28312302Y-54449791D01*
X-28358601Y-54495303D01*
X-28398654Y-54534534D01*
X-28432149Y-54567172D01*
X-28458775Y-54592906D01*
X-28478220Y-54611424D01*
X-28490174Y-54622414D01*
X-28494142Y-54625581D01*
X-28528155Y-54633874D01*
X-28562730Y-54632098D01*
G36*
X-30629658Y-52044898D02*
G01*
X-30677834Y-52027656D01*
X-30702924Y-52013386D01*
X-30734037Y-51991816D01*
X-30769634Y-51964199D01*
X-30808176Y-51931788D01*
X-30848124Y-51895834D01*
X-30887941Y-51857593D01*
X-30893329Y-51852215D01*
X-30963265Y-51778206D01*
X-31024599Y-51704513D01*
X-31079435Y-51628211D01*
X-31129873Y-51546373D01*
X-31178015Y-51456073D01*
X-31178432Y-51455238D01*
X-31231540Y-51336118D01*
X-31274010Y-51213394D01*
X-31305767Y-51087787D01*
X-31326735Y-50960021D01*
X-31336840Y-50830818D01*
X-31336006Y-50700902D01*
X-31324158Y-50570994D01*
X-31301222Y-50441818D01*
X-31288932Y-50390539D01*
X-31257633Y-50287179D01*
X-31216972Y-50182072D01*
X-31168194Y-50077696D01*
X-31112543Y-49976526D01*
X-31051263Y-49881041D01*
X-30995107Y-49805483D01*
X-30968196Y-49773683D01*
X-30934836Y-49737206D01*
X-30897487Y-49698510D01*
X-30858610Y-49660056D01*
X-30820665Y-49624304D01*
X-30786111Y-49593715D01*
X-30770337Y-49580694D01*
X-30677567Y-49512514D01*
X-30577647Y-49450030D01*
X-30472616Y-49394213D01*
X-30364513Y-49346033D01*
X-30255376Y-49306459D01*
X-30147244Y-49276462D01*
X-30116786Y-49269779D01*
X-30039015Y-49256155D01*
X-29956390Y-49245993D01*
X-29872449Y-49239540D01*
X-29790725Y-49237039D01*
X-29714756Y-49238736D01*
X-29691077Y-49240296D01*
X-29570796Y-49254362D01*
X-29453326Y-49277719D01*
X-29339005Y-49309825D01*
X-29214387Y-49355489D01*
X-29095661Y-49410698D01*
X-28983205Y-49475002D01*
X-28877397Y-49547951D01*
X-28778617Y-49629092D01*
X-28687243Y-49717975D01*
X-28603654Y-49814151D01*
X-28528227Y-49917167D01*
X-28461343Y-50026573D01*
X-28403378Y-50141918D01*
X-28354712Y-50262752D01*
X-28315724Y-50388624D01*
X-28286791Y-50519083D01*
X-28278010Y-50573191D01*
X-28273415Y-50614622D01*
X-28270166Y-50664535D01*
X-28268264Y-50720074D01*
X-28267710Y-50778385D01*
X-28268505Y-50836612D01*
X-28270648Y-50891901D01*
X-28274142Y-50941396D01*
X-28277916Y-50974954D01*
X-28301825Y-51106671D01*
X-28336355Y-51234811D01*
X-28381273Y-51358817D01*
X-28436344Y-51478130D01*
X-28501336Y-51592193D01*
X-28576013Y-51700449D01*
X-28589175Y-51717618D01*
X-28620756Y-51756045D01*
X-28657010Y-51796489D01*
X-28696486Y-51837614D01*
X-28737735Y-51878085D01*
X-28779306Y-51916566D01*
X-28819749Y-51951721D01*
X-28857615Y-51982215D01*
X-28891454Y-52006712D01*
X-28919815Y-52023877D01*
X-28923842Y-52025899D01*
X-28973492Y-52043864D01*
X-29024994Y-52051247D01*
X-29076604Y-52048223D01*
X-29126580Y-52034965D01*
X-29173180Y-52011644D01*
X-29190652Y-51999409D01*
X-29215181Y-51976243D01*
X-29239280Y-51945907D01*
X-29260159Y-51912396D01*
X-29275026Y-51879709D01*
X-29275809Y-51877438D01*
X-29286096Y-51829968D01*
X-29286942Y-51779610D01*
X-29278741Y-51729270D01*
X-29261884Y-51681859D01*
X-29245400Y-51652354D01*
X-29232387Y-51636054D01*
X-29213478Y-51616433D01*
X-29192020Y-51596877D01*
X-29183904Y-51590174D01*
X-29151415Y-51562562D01*
X-29115450Y-51529234D01*
X-29078190Y-51492445D01*
X-29041812Y-51454451D01*
X-29008494Y-51417508D01*
X-28980415Y-51383870D01*
X-28965208Y-51363730D01*
X-28917067Y-51288087D01*
X-28874213Y-51204891D01*
X-28838001Y-51117307D01*
X-28809785Y-51028497D01*
X-28795464Y-50967033D01*
X-28787768Y-50917039D01*
X-28782395Y-50859759D01*
X-28779494Y-50799112D01*
X-28779216Y-50739019D01*
X-28781711Y-50683399D01*
X-28783763Y-50661013D01*
X-28800926Y-50556233D01*
X-28828948Y-50454266D01*
X-28867466Y-50355844D01*
X-28916114Y-50261702D01*
X-28974528Y-50172575D01*
X-29042343Y-50089195D01*
X-29094975Y-50034870D01*
X-29173150Y-49967421D01*
X-29258940Y-49907603D01*
X-29350846Y-49856173D01*
X-29447368Y-49813890D01*
X-29547006Y-49781513D01*
X-29634471Y-49762094D01*
X-29668868Y-49757574D01*
X-29711225Y-49754273D01*
X-29758551Y-49752220D01*
X-29807852Y-49751446D01*
X-29856136Y-49751980D01*
X-29900411Y-49753851D01*
X-29937684Y-49757088D01*
X-29951258Y-49758980D01*
X-30058108Y-49781893D01*
X-30160774Y-49814990D01*
X-30258598Y-49857837D01*
X-30350922Y-49909997D01*
X-30437087Y-49971035D01*
X-30516435Y-50040517D01*
X-30588308Y-50118006D01*
X-30652046Y-50203068D01*
X-30673469Y-50236427D01*
X-30693172Y-50270862D01*
X-30714469Y-50312077D01*
X-30735549Y-50356238D01*
X-30754599Y-50399510D01*
X-30769809Y-50438057D01*
X-30773086Y-50447342D01*
X-30801528Y-50548101D01*
X-30819160Y-50651135D01*
X-30826090Y-50755389D01*
X-30822424Y-50859803D01*
X-30808271Y-50963322D01*
X-30783739Y-51064886D01*
X-30748934Y-51163440D01*
X-30703966Y-51257924D01*
X-30687566Y-51286925D01*
X-30641674Y-51358785D01*
X-30591924Y-51424159D01*
X-30536129Y-51485591D01*
X-30472101Y-51545626D01*
X-30446058Y-51567852D01*
X-30421092Y-51589397D01*
X-30397637Y-51610930D01*
X-30377963Y-51630278D01*
X-30364341Y-51645269D01*
X-30362012Y-51648265D01*
X-30339316Y-51687818D01*
X-30323794Y-51733192D01*
X-30316104Y-51781025D01*
X-30316905Y-51827952D01*
X-30321670Y-51854016D01*
X-30339961Y-51904624D01*
X-30366530Y-51948810D01*
X-30400123Y-51985965D01*
X-30439490Y-52015477D01*
X-30483379Y-52036736D01*
X-30530538Y-52049133D01*
X-30579715Y-52052057D01*
X-30629658Y-52044898D01*
G37*
X-30629658Y-52044898D02*
X-30677834Y-52027656D01*
X-30702924Y-52013386D01*
X-30734037Y-51991816D01*
X-30769634Y-51964199D01*
X-30808176Y-51931788D01*
X-30848124Y-51895834D01*
X-30887941Y-51857593D01*
X-30893329Y-51852215D01*
X-30963265Y-51778206D01*
X-31024599Y-51704513D01*
X-31079435Y-51628211D01*
X-31129873Y-51546373D01*
X-31178015Y-51456073D01*
X-31178432Y-51455238D01*
X-31231540Y-51336118D01*
X-31274010Y-51213394D01*
X-31305767Y-51087787D01*
X-31326735Y-50960021D01*
X-31336840Y-50830818D01*
X-31336006Y-50700902D01*
X-31324158Y-50570994D01*
X-31301222Y-50441818D01*
X-31288932Y-50390539D01*
X-31257633Y-50287179D01*
X-31216972Y-50182072D01*
X-31168194Y-50077696D01*
X-31112543Y-49976526D01*
X-31051263Y-49881041D01*
X-30995107Y-49805483D01*
X-30968196Y-49773683D01*
X-30934836Y-49737206D01*
X-30897487Y-49698510D01*
X-30858610Y-49660056D01*
X-30820665Y-49624304D01*
X-30786111Y-49593715D01*
X-30770337Y-49580694D01*
X-30677567Y-49512514D01*
X-30577647Y-49450030D01*
X-30472616Y-49394213D01*
X-30364513Y-49346033D01*
X-30255376Y-49306459D01*
X-30147244Y-49276462D01*
X-30116786Y-49269779D01*
X-30039015Y-49256155D01*
X-29956390Y-49245993D01*
X-29872449Y-49239540D01*
X-29790725Y-49237039D01*
X-29714756Y-49238736D01*
X-29691077Y-49240296D01*
X-29570796Y-49254362D01*
X-29453326Y-49277719D01*
X-29339005Y-49309825D01*
X-29214387Y-49355489D01*
X-29095661Y-49410698D01*
X-28983205Y-49475002D01*
X-28877397Y-49547951D01*
X-28778617Y-49629092D01*
X-28687243Y-49717975D01*
X-28603654Y-49814151D01*
X-28528227Y-49917167D01*
X-28461343Y-50026573D01*
X-28403378Y-50141918D01*
X-28354712Y-50262752D01*
X-28315724Y-50388624D01*
X-28286791Y-50519083D01*
X-28278010Y-50573191D01*
X-28273415Y-50614622D01*
X-28270166Y-50664535D01*
X-28268264Y-50720074D01*
X-28267710Y-50778385D01*
X-28268505Y-50836612D01*
X-28270648Y-50891901D01*
X-28274142Y-50941396D01*
X-28277916Y-50974954D01*
X-28301825Y-51106671D01*
X-28336355Y-51234811D01*
X-28381273Y-51358817D01*
X-28436344Y-51478130D01*
X-28501336Y-51592193D01*
X-28576013Y-51700449D01*
X-28589175Y-51717618D01*
X-28620756Y-51756045D01*
X-28657010Y-51796489D01*
X-28696486Y-51837614D01*
X-28737735Y-51878085D01*
X-28779306Y-51916566D01*
X-28819749Y-51951721D01*
X-28857615Y-51982215D01*
X-28891454Y-52006712D01*
X-28919815Y-52023877D01*
X-28923842Y-52025899D01*
X-28973492Y-52043864D01*
X-29024994Y-52051247D01*
X-29076604Y-52048223D01*
X-29126580Y-52034965D01*
X-29173180Y-52011644D01*
X-29190652Y-51999409D01*
X-29215181Y-51976243D01*
X-29239280Y-51945907D01*
X-29260159Y-51912396D01*
X-29275026Y-51879709D01*
X-29275809Y-51877438D01*
X-29286096Y-51829968D01*
X-29286942Y-51779610D01*
X-29278741Y-51729270D01*
X-29261884Y-51681859D01*
X-29245400Y-51652354D01*
X-29232387Y-51636054D01*
X-29213478Y-51616433D01*
X-29192020Y-51596877D01*
X-29183904Y-51590174D01*
X-29151415Y-51562562D01*
X-29115450Y-51529234D01*
X-29078190Y-51492445D01*
X-29041812Y-51454451D01*
X-29008494Y-51417508D01*
X-28980415Y-51383870D01*
X-28965208Y-51363730D01*
X-28917067Y-51288087D01*
X-28874213Y-51204891D01*
X-28838001Y-51117307D01*
X-28809785Y-51028497D01*
X-28795464Y-50967033D01*
X-28787768Y-50917039D01*
X-28782395Y-50859759D01*
X-28779494Y-50799112D01*
X-28779216Y-50739019D01*
X-28781711Y-50683399D01*
X-28783763Y-50661013D01*
X-28800926Y-50556233D01*
X-28828948Y-50454266D01*
X-28867466Y-50355844D01*
X-28916114Y-50261702D01*
X-28974528Y-50172575D01*
X-29042343Y-50089195D01*
X-29094975Y-50034870D01*
X-29173150Y-49967421D01*
X-29258940Y-49907603D01*
X-29350846Y-49856173D01*
X-29447368Y-49813890D01*
X-29547006Y-49781513D01*
X-29634471Y-49762094D01*
X-29668868Y-49757574D01*
X-29711225Y-49754273D01*
X-29758551Y-49752220D01*
X-29807852Y-49751446D01*
X-29856136Y-49751980D01*
X-29900411Y-49753851D01*
X-29937684Y-49757088D01*
X-29951258Y-49758980D01*
X-30058108Y-49781893D01*
X-30160774Y-49814990D01*
X-30258598Y-49857837D01*
X-30350922Y-49909997D01*
X-30437087Y-49971035D01*
X-30516435Y-50040517D01*
X-30588308Y-50118006D01*
X-30652046Y-50203068D01*
X-30673469Y-50236427D01*
X-30693172Y-50270862D01*
X-30714469Y-50312077D01*
X-30735549Y-50356238D01*
X-30754599Y-50399510D01*
X-30769809Y-50438057D01*
X-30773086Y-50447342D01*
X-30801528Y-50548101D01*
X-30819160Y-50651135D01*
X-30826090Y-50755389D01*
X-30822424Y-50859803D01*
X-30808271Y-50963322D01*
X-30783739Y-51064886D01*
X-30748934Y-51163440D01*
X-30703966Y-51257924D01*
X-30687566Y-51286925D01*
X-30641674Y-51358785D01*
X-30591924Y-51424159D01*
X-30536129Y-51485591D01*
X-30472101Y-51545626D01*
X-30446058Y-51567852D01*
X-30421092Y-51589397D01*
X-30397637Y-51610930D01*
X-30377963Y-51630278D01*
X-30364341Y-51645269D01*
X-30362012Y-51648265D01*
X-30339316Y-51687818D01*
X-30323794Y-51733192D01*
X-30316104Y-51781025D01*
X-30316905Y-51827952D01*
X-30321670Y-51854016D01*
X-30339961Y-51904624D01*
X-30366530Y-51948810D01*
X-30400123Y-51985965D01*
X-30439490Y-52015477D01*
X-30483379Y-52036736D01*
X-30530538Y-52049133D01*
X-30579715Y-52052057D01*
X-30629658Y-52044898D01*
G36*
X-29848713Y-52560956D02*
G01*
X-29890620Y-52549497D01*
X-29901880Y-52544937D01*
X-29945014Y-52520317D01*
X-29983513Y-52487434D01*
X-30015400Y-52448461D01*
X-30038699Y-52405573D01*
X-30045377Y-52387145D01*
X-30047108Y-52381309D01*
X-30048656Y-52375201D01*
X-30050030Y-52368182D01*
X-30051241Y-52359614D01*
X-30052299Y-52348857D01*
X-30053213Y-52335273D01*
X-30053995Y-52318222D01*
X-30054654Y-52297066D01*
X-30055201Y-52271165D01*
X-30055645Y-52239880D01*
X-30055996Y-52202573D01*
X-30056265Y-52158605D01*
X-30056463Y-52107336D01*
X-30056598Y-52048127D01*
X-30056682Y-51980340D01*
X-30056723Y-51903336D01*
X-30056734Y-51816474D01*
X-30056723Y-51719118D01*
X-30056714Y-51672780D01*
X-30056643Y-51564031D01*
X-30056479Y-51463335D01*
X-30056224Y-51371020D01*
X-30055881Y-51287409D01*
X-30055453Y-51212828D01*
X-30054943Y-51147601D01*
X-30054352Y-51092054D01*
X-30053684Y-51046510D01*
X-30052942Y-51011296D01*
X-30052127Y-50986735D01*
X-30051244Y-50973154D01*
X-30050924Y-50971078D01*
X-30037252Y-50930297D01*
X-30015071Y-50892034D01*
X-29986967Y-50858005D01*
X-29955740Y-50827941D01*
X-29925268Y-50806280D01*
X-29892129Y-50790798D01*
X-29874593Y-50785004D01*
X-29841788Y-50778538D01*
X-29804008Y-50776153D01*
X-29765894Y-50777799D01*
X-29732092Y-50783430D01*
X-29721312Y-50786614D01*
X-29674160Y-50808747D01*
X-29632526Y-50839925D01*
X-29597686Y-50878599D01*
X-29570921Y-50923217D01*
X-29553510Y-50972228D01*
X-29549028Y-50995573D01*
X-29548139Y-51007668D01*
X-29547325Y-51030256D01*
X-29546586Y-51062423D01*
X-29545922Y-51103254D01*
X-29545333Y-51151835D01*
X-29544819Y-51207252D01*
X-29544379Y-51268590D01*
X-29544014Y-51334935D01*
X-29543723Y-51405372D01*
X-29543507Y-51478988D01*
X-29543365Y-51554868D01*
X-29543298Y-51632098D01*
X-29543305Y-51709763D01*
X-29543386Y-51786948D01*
X-29543541Y-51862741D01*
X-29543770Y-51936225D01*
X-29544074Y-52006488D01*
X-29544451Y-52072614D01*
X-29544903Y-52133689D01*
X-29545428Y-52188799D01*
X-29546027Y-52237030D01*
X-29546700Y-52277467D01*
X-29547446Y-52309196D01*
X-29548266Y-52331302D01*
X-29549123Y-52342629D01*
X-29562068Y-52394104D01*
X-29584781Y-52441069D01*
X-29616111Y-52482346D01*
X-29654905Y-52516753D01*
X-29700011Y-52543111D01*
X-29750279Y-52560240D01*
X-29764257Y-52563072D01*
X-29804926Y-52565700D01*
X-29848713Y-52560956D01*
G37*
X-29848713Y-52560956D02*
X-29890620Y-52549497D01*
X-29901880Y-52544937D01*
X-29945014Y-52520317D01*
X-29983513Y-52487434D01*
X-30015400Y-52448461D01*
X-30038699Y-52405573D01*
X-30045377Y-52387145D01*
X-30047108Y-52381309D01*
X-30048656Y-52375201D01*
X-30050030Y-52368182D01*
X-30051241Y-52359614D01*
X-30052299Y-52348857D01*
X-30053213Y-52335273D01*
X-30053995Y-52318222D01*
X-30054654Y-52297066D01*
X-30055201Y-52271165D01*
X-30055645Y-52239880D01*
X-30055996Y-52202573D01*
X-30056265Y-52158605D01*
X-30056463Y-52107336D01*
X-30056598Y-52048127D01*
X-30056682Y-51980340D01*
X-30056723Y-51903336D01*
X-30056734Y-51816474D01*
X-30056723Y-51719118D01*
X-30056714Y-51672780D01*
X-30056643Y-51564031D01*
X-30056479Y-51463335D01*
X-30056224Y-51371020D01*
X-30055881Y-51287409D01*
X-30055453Y-51212828D01*
X-30054943Y-51147601D01*
X-30054352Y-51092054D01*
X-30053684Y-51046510D01*
X-30052942Y-51011296D01*
X-30052127Y-50986735D01*
X-30051244Y-50973154D01*
X-30050924Y-50971078D01*
X-30037252Y-50930297D01*
X-30015071Y-50892034D01*
X-29986967Y-50858005D01*
X-29955740Y-50827941D01*
X-29925268Y-50806280D01*
X-29892129Y-50790798D01*
X-29874593Y-50785004D01*
X-29841788Y-50778538D01*
X-29804008Y-50776153D01*
X-29765894Y-50777799D01*
X-29732092Y-50783430D01*
X-29721312Y-50786614D01*
X-29674160Y-50808747D01*
X-29632526Y-50839925D01*
X-29597686Y-50878599D01*
X-29570921Y-50923217D01*
X-29553510Y-50972228D01*
X-29549028Y-50995573D01*
X-29548139Y-51007668D01*
X-29547325Y-51030256D01*
X-29546586Y-51062423D01*
X-29545922Y-51103254D01*
X-29545333Y-51151835D01*
X-29544819Y-51207252D01*
X-29544379Y-51268590D01*
X-29544014Y-51334935D01*
X-29543723Y-51405372D01*
X-29543507Y-51478988D01*
X-29543365Y-51554868D01*
X-29543298Y-51632098D01*
X-29543305Y-51709763D01*
X-29543386Y-51786948D01*
X-29543541Y-51862741D01*
X-29543770Y-51936225D01*
X-29544074Y-52006488D01*
X-29544451Y-52072614D01*
X-29544903Y-52133689D01*
X-29545428Y-52188799D01*
X-29546027Y-52237030D01*
X-29546700Y-52277467D01*
X-29547446Y-52309196D01*
X-29548266Y-52331302D01*
X-29549123Y-52342629D01*
X-29562068Y-52394104D01*
X-29584781Y-52441069D01*
X-29616111Y-52482346D01*
X-29654905Y-52516753D01*
X-29700011Y-52543111D01*
X-29750279Y-52560240D01*
X-29764257Y-52563072D01*
X-29804926Y-52565700D01*
X-29848713Y-52560956D01*
M02*
