%TF.GenerationSoftware,KiCad,Pcbnew,(5.1.10)-1*%
%TF.CreationDate,2022-05-13T21:34:30+07:00*%
%TF.ProjectId,Parallel,50617261-6c6c-4656-9c2e-6b696361645f,rev?*%
%TF.SameCoordinates,Original*%
%TF.FileFunction,Profile,NP*%
%FSLAX46Y46*%
G04 Gerber Fmt 4.6, Leading zero omitted, Abs format (unit mm)*
G04 Created by KiCad (PCBNEW (5.1.10)-1) date 2022-05-13 21:34:30*
%MOMM*%
%LPD*%
G01*
G04 APERTURE LIST*
%TA.AperFunction,Profile*%
%ADD10C,0.050000*%
%TD*%
%TA.AperFunction,Profile*%
%ADD11C,0.200000*%
%TD*%
G04 APERTURE END LIST*
D10*
X40481394Y-91137752D02*
G75*
G02*
X40481394Y-89837752I0J650000D01*
G01*
X26193750Y-53012500D02*
G75*
G02*
X26193750Y-51762500I0J625000D01*
G01*
X245268750Y-51762500D02*
G75*
G02*
X245268750Y-53012500I0J-625000D01*
G01*
D11*
X-2856000Y-14050001D02*
X2144000Y-9050000D01*
X388143999Y-14080001D02*
X383060555Y-9050607D01*
X385763472Y-128939828D02*
X310456251Y-128885481D01*
X388144000Y-126559300D02*
X385763472Y-128939828D01*
X307777338Y-131564394D02*
X310456251Y-128885481D01*
X249436566Y-131564394D02*
X307777338Y-131564394D01*
X246757653Y-128885481D02*
X249436566Y-131564394D01*
X-528519Y-128885481D02*
X246757653Y-128885481D01*
X-2856000Y-126558000D02*
X-528519Y-128885481D01*
D10*
X40481352Y-91137728D02*
X230981832Y-91137728D01*
X230981832Y-89837728D02*
X40481352Y-89837728D01*
X230981832Y-89837728D02*
G75*
G02*
X230981832Y-91137728I0J-650000D01*
G01*
X245268750Y-51762500D02*
X26193750Y-51762500D01*
X26193750Y-53012500D02*
X245268750Y-53012500D01*
D11*
X388143999Y-14080001D02*
X388144000Y-126559300D01*
X200464000Y-9050000D02*
X383060555Y-9050607D01*
X200463999Y-9050001D02*
G75*
G02*
X198964000Y-7550000I1J1500000D01*
G01*
X198964000Y-3150000D02*
X198964000Y-7550000D01*
X197463999Y-1650001D02*
G75*
G02*
X198964000Y-3150000I1J-1500000D01*
G01*
X188454000Y-1650000D02*
X197464000Y-1650001D01*
X186954000Y-3150000D02*
G75*
G02*
X188454000Y-1650000I1500000J0D01*
G01*
X186953999Y-7550000D02*
X186954000Y-3150000D01*
X186953999Y-7550001D02*
G75*
G02*
X185454000Y-9050000I-1499999J0D01*
G01*
X2144000Y-9050000D02*
X185454000Y-9050000D01*
X-2856000Y-126558000D02*
X-2856000Y-14050001D01*
M02*
