G04 #@! TF.GenerationSoftware,KiCad,Pcbnew,(5.1.10)-1*
G04 #@! TF.CreationDate,2021-06-22T17:57:11+07:00*
G04 #@! TF.ProjectId,averange65,61766572-616e-4676-9536-352e6b696361,rev?*
G04 #@! TF.SameCoordinates,Original*
G04 #@! TF.FileFunction,Paste,Bot*
G04 #@! TF.FilePolarity,Positive*
%FSLAX46Y46*%
G04 Gerber Fmt 4.6, Leading zero omitted, Abs format (unit mm)*
G04 Created by KiCad (PCBNEW (5.1.10)-1) date 2021-06-22 17:57:11*
%MOMM*%
%LPD*%
G01*
G04 APERTURE LIST*
%ADD10R,1.800000X1.100000*%
%ADD11R,0.900000X1.200000*%
%ADD12R,0.700000X1.300000*%
%ADD13R,0.800000X0.750000*%
%ADD14R,0.700000X1.000000*%
%ADD15R,0.700000X0.600000*%
%ADD16R,0.750000X0.800000*%
%ADD17R,1.300000X0.700000*%
%ADD18R,1.200000X1.800000*%
%ADD19R,0.600000X1.550000*%
%ADD20R,1.200000X0.900000*%
%ADD21R,1.500000X1.000000*%
%ADD22R,1.000000X1.500000*%
%ADD23C,0.100000*%
%ADD24R,0.300000X1.450000*%
%ADD25R,0.600000X1.450000*%
%ADD26R,1.400000X1.200000*%
G04 APERTURE END LIST*
D10*
X40604845Y-69715910D03*
X34404845Y-66015910D03*
X40604845Y-66015910D03*
X34404845Y-69715910D03*
D11*
X185007020Y-127992725D03*
X181707020Y-127992725D03*
D12*
X51998347Y-102245523D03*
X50098347Y-102245523D03*
X51998347Y-100310746D03*
X50098347Y-100310746D03*
D13*
X50149518Y-98078311D03*
X51649518Y-98078311D03*
D11*
X269218325Y-127992725D03*
X272518325Y-127992725D03*
X266565175Y-127992725D03*
X263265175Y-127992725D03*
X79636265Y-127992725D03*
X76336265Y-127992725D03*
X54037720Y-127992725D03*
X50737720Y-127992725D03*
X302555965Y-123825520D03*
X305855965Y-123825520D03*
X242157260Y-127992725D03*
X238857260Y-127992725D03*
X293626240Y-123825520D03*
X296926240Y-123825520D03*
X101662920Y-127992725D03*
X98362920Y-127992725D03*
D12*
X42230000Y-107315000D03*
X44130000Y-107315000D03*
D14*
X48187600Y-60250000D03*
D15*
X46187600Y-60050000D03*
X48187600Y-61950000D03*
X46187600Y-61950000D03*
D13*
X66790000Y-97218500D03*
X65290000Y-97218500D03*
D16*
X65087500Y-104469500D03*
X65087500Y-105969500D03*
X53657500Y-103505000D03*
X53657500Y-105005000D03*
D17*
X71310500Y-110805000D03*
X71310500Y-108905000D03*
D18*
X48043940Y-81862840D03*
X42443940Y-81862840D03*
D19*
X43743940Y-85737840D03*
X44743940Y-85737840D03*
X46743940Y-85737840D03*
X45743940Y-85737840D03*
D20*
X315516950Y-115950480D03*
X315516950Y-112650480D03*
X242888520Y-115950480D03*
X242888520Y-112650480D03*
X261938600Y-115950480D03*
X261938600Y-112650480D03*
X204788360Y-115950480D03*
X204788360Y-112650480D03*
X147638120Y-115950480D03*
X147638120Y-112650480D03*
X128588040Y-115950480D03*
X128588040Y-112650480D03*
X166688200Y-115950480D03*
X166688200Y-112650480D03*
X313135690Y-115950480D03*
X313135690Y-112650480D03*
X185738280Y-115950480D03*
X185738280Y-112650480D03*
X109537960Y-115950480D03*
X109537960Y-112650480D03*
X90487880Y-115950480D03*
X90487880Y-112650480D03*
X71437800Y-115950480D03*
X71437800Y-112650480D03*
X295276240Y-115950480D03*
X295276240Y-112650480D03*
G36*
G01*
X55656500Y-102575420D02*
X55656500Y-102450420D01*
G75*
G02*
X55719000Y-102387920I62500J0D01*
G01*
X56469000Y-102387920D01*
G75*
G02*
X56531500Y-102450420I0J-62500D01*
G01*
X56531500Y-102575420D01*
G75*
G02*
X56469000Y-102637920I-62500J0D01*
G01*
X55719000Y-102637920D01*
G75*
G02*
X55656500Y-102575420I0J62500D01*
G01*
G37*
G36*
G01*
X55656500Y-102075420D02*
X55656500Y-101950420D01*
G75*
G02*
X55719000Y-101887920I62500J0D01*
G01*
X56469000Y-101887920D01*
G75*
G02*
X56531500Y-101950420I0J-62500D01*
G01*
X56531500Y-102075420D01*
G75*
G02*
X56469000Y-102137920I-62500J0D01*
G01*
X55719000Y-102137920D01*
G75*
G02*
X55656500Y-102075420I0J62500D01*
G01*
G37*
G36*
G01*
X55656500Y-101575420D02*
X55656500Y-101450420D01*
G75*
G02*
X55719000Y-101387920I62500J0D01*
G01*
X56469000Y-101387920D01*
G75*
G02*
X56531500Y-101450420I0J-62500D01*
G01*
X56531500Y-101575420D01*
G75*
G02*
X56469000Y-101637920I-62500J0D01*
G01*
X55719000Y-101637920D01*
G75*
G02*
X55656500Y-101575420I0J62500D01*
G01*
G37*
G36*
G01*
X55656500Y-101075420D02*
X55656500Y-100950420D01*
G75*
G02*
X55719000Y-100887920I62500J0D01*
G01*
X56469000Y-100887920D01*
G75*
G02*
X56531500Y-100950420I0J-62500D01*
G01*
X56531500Y-101075420D01*
G75*
G02*
X56469000Y-101137920I-62500J0D01*
G01*
X55719000Y-101137920D01*
G75*
G02*
X55656500Y-101075420I0J62500D01*
G01*
G37*
G36*
G01*
X55656500Y-100575420D02*
X55656500Y-100450420D01*
G75*
G02*
X55719000Y-100387920I62500J0D01*
G01*
X56469000Y-100387920D01*
G75*
G02*
X56531500Y-100450420I0J-62500D01*
G01*
X56531500Y-100575420D01*
G75*
G02*
X56469000Y-100637920I-62500J0D01*
G01*
X55719000Y-100637920D01*
G75*
G02*
X55656500Y-100575420I0J62500D01*
G01*
G37*
G36*
G01*
X55656500Y-100075420D02*
X55656500Y-99950420D01*
G75*
G02*
X55719000Y-99887920I62500J0D01*
G01*
X56469000Y-99887920D01*
G75*
G02*
X56531500Y-99950420I0J-62500D01*
G01*
X56531500Y-100075420D01*
G75*
G02*
X56469000Y-100137920I-62500J0D01*
G01*
X55719000Y-100137920D01*
G75*
G02*
X55656500Y-100075420I0J62500D01*
G01*
G37*
G36*
G01*
X55656500Y-99575420D02*
X55656500Y-99450420D01*
G75*
G02*
X55719000Y-99387920I62500J0D01*
G01*
X56469000Y-99387920D01*
G75*
G02*
X56531500Y-99450420I0J-62500D01*
G01*
X56531500Y-99575420D01*
G75*
G02*
X56469000Y-99637920I-62500J0D01*
G01*
X55719000Y-99637920D01*
G75*
G02*
X55656500Y-99575420I0J62500D01*
G01*
G37*
G36*
G01*
X55656500Y-99075420D02*
X55656500Y-98950420D01*
G75*
G02*
X55719000Y-98887920I62500J0D01*
G01*
X56469000Y-98887920D01*
G75*
G02*
X56531500Y-98950420I0J-62500D01*
G01*
X56531500Y-99075420D01*
G75*
G02*
X56469000Y-99137920I-62500J0D01*
G01*
X55719000Y-99137920D01*
G75*
G02*
X55656500Y-99075420I0J62500D01*
G01*
G37*
G36*
G01*
X55656500Y-98575420D02*
X55656500Y-98450420D01*
G75*
G02*
X55719000Y-98387920I62500J0D01*
G01*
X56469000Y-98387920D01*
G75*
G02*
X56531500Y-98450420I0J-62500D01*
G01*
X56531500Y-98575420D01*
G75*
G02*
X56469000Y-98637920I-62500J0D01*
G01*
X55719000Y-98637920D01*
G75*
G02*
X55656500Y-98575420I0J62500D01*
G01*
G37*
G36*
G01*
X55656500Y-98075420D02*
X55656500Y-97950420D01*
G75*
G02*
X55719000Y-97887920I62500J0D01*
G01*
X56469000Y-97887920D01*
G75*
G02*
X56531500Y-97950420I0J-62500D01*
G01*
X56531500Y-98075420D01*
G75*
G02*
X56469000Y-98137920I-62500J0D01*
G01*
X55719000Y-98137920D01*
G75*
G02*
X55656500Y-98075420I0J62500D01*
G01*
G37*
G36*
G01*
X55656500Y-97575420D02*
X55656500Y-97450420D01*
G75*
G02*
X55719000Y-97387920I62500J0D01*
G01*
X56469000Y-97387920D01*
G75*
G02*
X56531500Y-97450420I0J-62500D01*
G01*
X56531500Y-97575420D01*
G75*
G02*
X56469000Y-97637920I-62500J0D01*
G01*
X55719000Y-97637920D01*
G75*
G02*
X55656500Y-97575420I0J62500D01*
G01*
G37*
G36*
G01*
X56906500Y-96950420D02*
X56906500Y-96200420D01*
G75*
G02*
X56969000Y-96137920I62500J0D01*
G01*
X57094000Y-96137920D01*
G75*
G02*
X57156500Y-96200420I0J-62500D01*
G01*
X57156500Y-96950420D01*
G75*
G02*
X57094000Y-97012920I-62500J0D01*
G01*
X56969000Y-97012920D01*
G75*
G02*
X56906500Y-96950420I0J62500D01*
G01*
G37*
G36*
G01*
X57406500Y-96950420D02*
X57406500Y-96200420D01*
G75*
G02*
X57469000Y-96137920I62500J0D01*
G01*
X57594000Y-96137920D01*
G75*
G02*
X57656500Y-96200420I0J-62500D01*
G01*
X57656500Y-96950420D01*
G75*
G02*
X57594000Y-97012920I-62500J0D01*
G01*
X57469000Y-97012920D01*
G75*
G02*
X57406500Y-96950420I0J62500D01*
G01*
G37*
G36*
G01*
X57906500Y-96950420D02*
X57906500Y-96200420D01*
G75*
G02*
X57969000Y-96137920I62500J0D01*
G01*
X58094000Y-96137920D01*
G75*
G02*
X58156500Y-96200420I0J-62500D01*
G01*
X58156500Y-96950420D01*
G75*
G02*
X58094000Y-97012920I-62500J0D01*
G01*
X57969000Y-97012920D01*
G75*
G02*
X57906500Y-96950420I0J62500D01*
G01*
G37*
G36*
G01*
X58406500Y-96950420D02*
X58406500Y-96200420D01*
G75*
G02*
X58469000Y-96137920I62500J0D01*
G01*
X58594000Y-96137920D01*
G75*
G02*
X58656500Y-96200420I0J-62500D01*
G01*
X58656500Y-96950420D01*
G75*
G02*
X58594000Y-97012920I-62500J0D01*
G01*
X58469000Y-97012920D01*
G75*
G02*
X58406500Y-96950420I0J62500D01*
G01*
G37*
G36*
G01*
X58906500Y-96950420D02*
X58906500Y-96200420D01*
G75*
G02*
X58969000Y-96137920I62500J0D01*
G01*
X59094000Y-96137920D01*
G75*
G02*
X59156500Y-96200420I0J-62500D01*
G01*
X59156500Y-96950420D01*
G75*
G02*
X59094000Y-97012920I-62500J0D01*
G01*
X58969000Y-97012920D01*
G75*
G02*
X58906500Y-96950420I0J62500D01*
G01*
G37*
G36*
G01*
X59406500Y-96950420D02*
X59406500Y-96200420D01*
G75*
G02*
X59469000Y-96137920I62500J0D01*
G01*
X59594000Y-96137920D01*
G75*
G02*
X59656500Y-96200420I0J-62500D01*
G01*
X59656500Y-96950420D01*
G75*
G02*
X59594000Y-97012920I-62500J0D01*
G01*
X59469000Y-97012920D01*
G75*
G02*
X59406500Y-96950420I0J62500D01*
G01*
G37*
G36*
G01*
X59906500Y-96950420D02*
X59906500Y-96200420D01*
G75*
G02*
X59969000Y-96137920I62500J0D01*
G01*
X60094000Y-96137920D01*
G75*
G02*
X60156500Y-96200420I0J-62500D01*
G01*
X60156500Y-96950420D01*
G75*
G02*
X60094000Y-97012920I-62500J0D01*
G01*
X59969000Y-97012920D01*
G75*
G02*
X59906500Y-96950420I0J62500D01*
G01*
G37*
G36*
G01*
X60406500Y-96950420D02*
X60406500Y-96200420D01*
G75*
G02*
X60469000Y-96137920I62500J0D01*
G01*
X60594000Y-96137920D01*
G75*
G02*
X60656500Y-96200420I0J-62500D01*
G01*
X60656500Y-96950420D01*
G75*
G02*
X60594000Y-97012920I-62500J0D01*
G01*
X60469000Y-97012920D01*
G75*
G02*
X60406500Y-96950420I0J62500D01*
G01*
G37*
G36*
G01*
X60906500Y-96950420D02*
X60906500Y-96200420D01*
G75*
G02*
X60969000Y-96137920I62500J0D01*
G01*
X61094000Y-96137920D01*
G75*
G02*
X61156500Y-96200420I0J-62500D01*
G01*
X61156500Y-96950420D01*
G75*
G02*
X61094000Y-97012920I-62500J0D01*
G01*
X60969000Y-97012920D01*
G75*
G02*
X60906500Y-96950420I0J62500D01*
G01*
G37*
G36*
G01*
X61406500Y-96950420D02*
X61406500Y-96200420D01*
G75*
G02*
X61469000Y-96137920I62500J0D01*
G01*
X61594000Y-96137920D01*
G75*
G02*
X61656500Y-96200420I0J-62500D01*
G01*
X61656500Y-96950420D01*
G75*
G02*
X61594000Y-97012920I-62500J0D01*
G01*
X61469000Y-97012920D01*
G75*
G02*
X61406500Y-96950420I0J62500D01*
G01*
G37*
G36*
G01*
X61906500Y-96950420D02*
X61906500Y-96200420D01*
G75*
G02*
X61969000Y-96137920I62500J0D01*
G01*
X62094000Y-96137920D01*
G75*
G02*
X62156500Y-96200420I0J-62500D01*
G01*
X62156500Y-96950420D01*
G75*
G02*
X62094000Y-97012920I-62500J0D01*
G01*
X61969000Y-97012920D01*
G75*
G02*
X61906500Y-96950420I0J62500D01*
G01*
G37*
G36*
G01*
X62531500Y-97575420D02*
X62531500Y-97450420D01*
G75*
G02*
X62594000Y-97387920I62500J0D01*
G01*
X63344000Y-97387920D01*
G75*
G02*
X63406500Y-97450420I0J-62500D01*
G01*
X63406500Y-97575420D01*
G75*
G02*
X63344000Y-97637920I-62500J0D01*
G01*
X62594000Y-97637920D01*
G75*
G02*
X62531500Y-97575420I0J62500D01*
G01*
G37*
G36*
G01*
X62531500Y-98075420D02*
X62531500Y-97950420D01*
G75*
G02*
X62594000Y-97887920I62500J0D01*
G01*
X63344000Y-97887920D01*
G75*
G02*
X63406500Y-97950420I0J-62500D01*
G01*
X63406500Y-98075420D01*
G75*
G02*
X63344000Y-98137920I-62500J0D01*
G01*
X62594000Y-98137920D01*
G75*
G02*
X62531500Y-98075420I0J62500D01*
G01*
G37*
G36*
G01*
X62531500Y-98575420D02*
X62531500Y-98450420D01*
G75*
G02*
X62594000Y-98387920I62500J0D01*
G01*
X63344000Y-98387920D01*
G75*
G02*
X63406500Y-98450420I0J-62500D01*
G01*
X63406500Y-98575420D01*
G75*
G02*
X63344000Y-98637920I-62500J0D01*
G01*
X62594000Y-98637920D01*
G75*
G02*
X62531500Y-98575420I0J62500D01*
G01*
G37*
G36*
G01*
X62531500Y-99075420D02*
X62531500Y-98950420D01*
G75*
G02*
X62594000Y-98887920I62500J0D01*
G01*
X63344000Y-98887920D01*
G75*
G02*
X63406500Y-98950420I0J-62500D01*
G01*
X63406500Y-99075420D01*
G75*
G02*
X63344000Y-99137920I-62500J0D01*
G01*
X62594000Y-99137920D01*
G75*
G02*
X62531500Y-99075420I0J62500D01*
G01*
G37*
G36*
G01*
X62531500Y-99575420D02*
X62531500Y-99450420D01*
G75*
G02*
X62594000Y-99387920I62500J0D01*
G01*
X63344000Y-99387920D01*
G75*
G02*
X63406500Y-99450420I0J-62500D01*
G01*
X63406500Y-99575420D01*
G75*
G02*
X63344000Y-99637920I-62500J0D01*
G01*
X62594000Y-99637920D01*
G75*
G02*
X62531500Y-99575420I0J62500D01*
G01*
G37*
G36*
G01*
X62531500Y-100075420D02*
X62531500Y-99950420D01*
G75*
G02*
X62594000Y-99887920I62500J0D01*
G01*
X63344000Y-99887920D01*
G75*
G02*
X63406500Y-99950420I0J-62500D01*
G01*
X63406500Y-100075420D01*
G75*
G02*
X63344000Y-100137920I-62500J0D01*
G01*
X62594000Y-100137920D01*
G75*
G02*
X62531500Y-100075420I0J62500D01*
G01*
G37*
G36*
G01*
X62531500Y-100575420D02*
X62531500Y-100450420D01*
G75*
G02*
X62594000Y-100387920I62500J0D01*
G01*
X63344000Y-100387920D01*
G75*
G02*
X63406500Y-100450420I0J-62500D01*
G01*
X63406500Y-100575420D01*
G75*
G02*
X63344000Y-100637920I-62500J0D01*
G01*
X62594000Y-100637920D01*
G75*
G02*
X62531500Y-100575420I0J62500D01*
G01*
G37*
G36*
G01*
X62531500Y-101075420D02*
X62531500Y-100950420D01*
G75*
G02*
X62594000Y-100887920I62500J0D01*
G01*
X63344000Y-100887920D01*
G75*
G02*
X63406500Y-100950420I0J-62500D01*
G01*
X63406500Y-101075420D01*
G75*
G02*
X63344000Y-101137920I-62500J0D01*
G01*
X62594000Y-101137920D01*
G75*
G02*
X62531500Y-101075420I0J62500D01*
G01*
G37*
G36*
G01*
X62531500Y-101575420D02*
X62531500Y-101450420D01*
G75*
G02*
X62594000Y-101387920I62500J0D01*
G01*
X63344000Y-101387920D01*
G75*
G02*
X63406500Y-101450420I0J-62500D01*
G01*
X63406500Y-101575420D01*
G75*
G02*
X63344000Y-101637920I-62500J0D01*
G01*
X62594000Y-101637920D01*
G75*
G02*
X62531500Y-101575420I0J62500D01*
G01*
G37*
G36*
G01*
X62531500Y-102075420D02*
X62531500Y-101950420D01*
G75*
G02*
X62594000Y-101887920I62500J0D01*
G01*
X63344000Y-101887920D01*
G75*
G02*
X63406500Y-101950420I0J-62500D01*
G01*
X63406500Y-102075420D01*
G75*
G02*
X63344000Y-102137920I-62500J0D01*
G01*
X62594000Y-102137920D01*
G75*
G02*
X62531500Y-102075420I0J62500D01*
G01*
G37*
G36*
G01*
X62531500Y-102575420D02*
X62531500Y-102450420D01*
G75*
G02*
X62594000Y-102387920I62500J0D01*
G01*
X63344000Y-102387920D01*
G75*
G02*
X63406500Y-102450420I0J-62500D01*
G01*
X63406500Y-102575420D01*
G75*
G02*
X63344000Y-102637920I-62500J0D01*
G01*
X62594000Y-102637920D01*
G75*
G02*
X62531500Y-102575420I0J62500D01*
G01*
G37*
G36*
G01*
X61906500Y-103825420D02*
X61906500Y-103075420D01*
G75*
G02*
X61969000Y-103012920I62500J0D01*
G01*
X62094000Y-103012920D01*
G75*
G02*
X62156500Y-103075420I0J-62500D01*
G01*
X62156500Y-103825420D01*
G75*
G02*
X62094000Y-103887920I-62500J0D01*
G01*
X61969000Y-103887920D01*
G75*
G02*
X61906500Y-103825420I0J62500D01*
G01*
G37*
G36*
G01*
X61406500Y-103825420D02*
X61406500Y-103075420D01*
G75*
G02*
X61469000Y-103012920I62500J0D01*
G01*
X61594000Y-103012920D01*
G75*
G02*
X61656500Y-103075420I0J-62500D01*
G01*
X61656500Y-103825420D01*
G75*
G02*
X61594000Y-103887920I-62500J0D01*
G01*
X61469000Y-103887920D01*
G75*
G02*
X61406500Y-103825420I0J62500D01*
G01*
G37*
G36*
G01*
X60906500Y-103825420D02*
X60906500Y-103075420D01*
G75*
G02*
X60969000Y-103012920I62500J0D01*
G01*
X61094000Y-103012920D01*
G75*
G02*
X61156500Y-103075420I0J-62500D01*
G01*
X61156500Y-103825420D01*
G75*
G02*
X61094000Y-103887920I-62500J0D01*
G01*
X60969000Y-103887920D01*
G75*
G02*
X60906500Y-103825420I0J62500D01*
G01*
G37*
G36*
G01*
X60406500Y-103825420D02*
X60406500Y-103075420D01*
G75*
G02*
X60469000Y-103012920I62500J0D01*
G01*
X60594000Y-103012920D01*
G75*
G02*
X60656500Y-103075420I0J-62500D01*
G01*
X60656500Y-103825420D01*
G75*
G02*
X60594000Y-103887920I-62500J0D01*
G01*
X60469000Y-103887920D01*
G75*
G02*
X60406500Y-103825420I0J62500D01*
G01*
G37*
G36*
G01*
X59906500Y-103825420D02*
X59906500Y-103075420D01*
G75*
G02*
X59969000Y-103012920I62500J0D01*
G01*
X60094000Y-103012920D01*
G75*
G02*
X60156500Y-103075420I0J-62500D01*
G01*
X60156500Y-103825420D01*
G75*
G02*
X60094000Y-103887920I-62500J0D01*
G01*
X59969000Y-103887920D01*
G75*
G02*
X59906500Y-103825420I0J62500D01*
G01*
G37*
G36*
G01*
X59406500Y-103825420D02*
X59406500Y-103075420D01*
G75*
G02*
X59469000Y-103012920I62500J0D01*
G01*
X59594000Y-103012920D01*
G75*
G02*
X59656500Y-103075420I0J-62500D01*
G01*
X59656500Y-103825420D01*
G75*
G02*
X59594000Y-103887920I-62500J0D01*
G01*
X59469000Y-103887920D01*
G75*
G02*
X59406500Y-103825420I0J62500D01*
G01*
G37*
G36*
G01*
X58906500Y-103825420D02*
X58906500Y-103075420D01*
G75*
G02*
X58969000Y-103012920I62500J0D01*
G01*
X59094000Y-103012920D01*
G75*
G02*
X59156500Y-103075420I0J-62500D01*
G01*
X59156500Y-103825420D01*
G75*
G02*
X59094000Y-103887920I-62500J0D01*
G01*
X58969000Y-103887920D01*
G75*
G02*
X58906500Y-103825420I0J62500D01*
G01*
G37*
G36*
G01*
X58406500Y-103825420D02*
X58406500Y-103075420D01*
G75*
G02*
X58469000Y-103012920I62500J0D01*
G01*
X58594000Y-103012920D01*
G75*
G02*
X58656500Y-103075420I0J-62500D01*
G01*
X58656500Y-103825420D01*
G75*
G02*
X58594000Y-103887920I-62500J0D01*
G01*
X58469000Y-103887920D01*
G75*
G02*
X58406500Y-103825420I0J62500D01*
G01*
G37*
G36*
G01*
X57906500Y-103825420D02*
X57906500Y-103075420D01*
G75*
G02*
X57969000Y-103012920I62500J0D01*
G01*
X58094000Y-103012920D01*
G75*
G02*
X58156500Y-103075420I0J-62500D01*
G01*
X58156500Y-103825420D01*
G75*
G02*
X58094000Y-103887920I-62500J0D01*
G01*
X57969000Y-103887920D01*
G75*
G02*
X57906500Y-103825420I0J62500D01*
G01*
G37*
G36*
G01*
X57406500Y-103825420D02*
X57406500Y-103075420D01*
G75*
G02*
X57469000Y-103012920I62500J0D01*
G01*
X57594000Y-103012920D01*
G75*
G02*
X57656500Y-103075420I0J-62500D01*
G01*
X57656500Y-103825420D01*
G75*
G02*
X57594000Y-103887920I-62500J0D01*
G01*
X57469000Y-103887920D01*
G75*
G02*
X57406500Y-103825420I0J62500D01*
G01*
G37*
G36*
G01*
X56906500Y-103825420D02*
X56906500Y-103075420D01*
G75*
G02*
X56969000Y-103012920I62500J0D01*
G01*
X57094000Y-103012920D01*
G75*
G02*
X57156500Y-103075420I0J-62500D01*
G01*
X57156500Y-103825420D01*
G75*
G02*
X57094000Y-103887920I-62500J0D01*
G01*
X56969000Y-103887920D01*
G75*
G02*
X56906500Y-103825420I0J62500D01*
G01*
G37*
G36*
G01*
X57076500Y-102217920D02*
X57076500Y-101677920D01*
G75*
G02*
X57326500Y-101427920I250000J0D01*
G01*
X57866500Y-101427920D01*
G75*
G02*
X58116500Y-101677920I0J-250000D01*
G01*
X58116500Y-102217920D01*
G75*
G02*
X57866500Y-102467920I-250000J0D01*
G01*
X57326500Y-102467920D01*
G75*
G02*
X57076500Y-102217920I0J250000D01*
G01*
G37*
G36*
G01*
X57076500Y-100927920D02*
X57076500Y-100387920D01*
G75*
G02*
X57326500Y-100137920I250000J0D01*
G01*
X57866500Y-100137920D01*
G75*
G02*
X58116500Y-100387920I0J-250000D01*
G01*
X58116500Y-100927920D01*
G75*
G02*
X57866500Y-101177920I-250000J0D01*
G01*
X57326500Y-101177920D01*
G75*
G02*
X57076500Y-100927920I0J250000D01*
G01*
G37*
G36*
G01*
X57076500Y-99637920D02*
X57076500Y-99097920D01*
G75*
G02*
X57326500Y-98847920I250000J0D01*
G01*
X57866500Y-98847920D01*
G75*
G02*
X58116500Y-99097920I0J-250000D01*
G01*
X58116500Y-99637920D01*
G75*
G02*
X57866500Y-99887920I-250000J0D01*
G01*
X57326500Y-99887920D01*
G75*
G02*
X57076500Y-99637920I0J250000D01*
G01*
G37*
G36*
G01*
X57076500Y-98347920D02*
X57076500Y-97807920D01*
G75*
G02*
X57326500Y-97557920I250000J0D01*
G01*
X57866500Y-97557920D01*
G75*
G02*
X58116500Y-97807920I0J-250000D01*
G01*
X58116500Y-98347920D01*
G75*
G02*
X57866500Y-98597920I-250000J0D01*
G01*
X57326500Y-98597920D01*
G75*
G02*
X57076500Y-98347920I0J250000D01*
G01*
G37*
G36*
G01*
X58366500Y-102217920D02*
X58366500Y-101677920D01*
G75*
G02*
X58616500Y-101427920I250000J0D01*
G01*
X59156500Y-101427920D01*
G75*
G02*
X59406500Y-101677920I0J-250000D01*
G01*
X59406500Y-102217920D01*
G75*
G02*
X59156500Y-102467920I-250000J0D01*
G01*
X58616500Y-102467920D01*
G75*
G02*
X58366500Y-102217920I0J250000D01*
G01*
G37*
G36*
G01*
X58366500Y-100927920D02*
X58366500Y-100387920D01*
G75*
G02*
X58616500Y-100137920I250000J0D01*
G01*
X59156500Y-100137920D01*
G75*
G02*
X59406500Y-100387920I0J-250000D01*
G01*
X59406500Y-100927920D01*
G75*
G02*
X59156500Y-101177920I-250000J0D01*
G01*
X58616500Y-101177920D01*
G75*
G02*
X58366500Y-100927920I0J250000D01*
G01*
G37*
G36*
G01*
X58366500Y-99637920D02*
X58366500Y-99097920D01*
G75*
G02*
X58616500Y-98847920I250000J0D01*
G01*
X59156500Y-98847920D01*
G75*
G02*
X59406500Y-99097920I0J-250000D01*
G01*
X59406500Y-99637920D01*
G75*
G02*
X59156500Y-99887920I-250000J0D01*
G01*
X58616500Y-99887920D01*
G75*
G02*
X58366500Y-99637920I0J250000D01*
G01*
G37*
G36*
G01*
X58366500Y-98347920D02*
X58366500Y-97807920D01*
G75*
G02*
X58616500Y-97557920I250000J0D01*
G01*
X59156500Y-97557920D01*
G75*
G02*
X59406500Y-97807920I0J-250000D01*
G01*
X59406500Y-98347920D01*
G75*
G02*
X59156500Y-98597920I-250000J0D01*
G01*
X58616500Y-98597920D01*
G75*
G02*
X58366500Y-98347920I0J250000D01*
G01*
G37*
G36*
G01*
X59656500Y-102217920D02*
X59656500Y-101677920D01*
G75*
G02*
X59906500Y-101427920I250000J0D01*
G01*
X60446500Y-101427920D01*
G75*
G02*
X60696500Y-101677920I0J-250000D01*
G01*
X60696500Y-102217920D01*
G75*
G02*
X60446500Y-102467920I-250000J0D01*
G01*
X59906500Y-102467920D01*
G75*
G02*
X59656500Y-102217920I0J250000D01*
G01*
G37*
G36*
G01*
X59656500Y-100927920D02*
X59656500Y-100387920D01*
G75*
G02*
X59906500Y-100137920I250000J0D01*
G01*
X60446500Y-100137920D01*
G75*
G02*
X60696500Y-100387920I0J-250000D01*
G01*
X60696500Y-100927920D01*
G75*
G02*
X60446500Y-101177920I-250000J0D01*
G01*
X59906500Y-101177920D01*
G75*
G02*
X59656500Y-100927920I0J250000D01*
G01*
G37*
G36*
G01*
X59656500Y-99637920D02*
X59656500Y-99097920D01*
G75*
G02*
X59906500Y-98847920I250000J0D01*
G01*
X60446500Y-98847920D01*
G75*
G02*
X60696500Y-99097920I0J-250000D01*
G01*
X60696500Y-99637920D01*
G75*
G02*
X60446500Y-99887920I-250000J0D01*
G01*
X59906500Y-99887920D01*
G75*
G02*
X59656500Y-99637920I0J250000D01*
G01*
G37*
G36*
G01*
X59656500Y-98347920D02*
X59656500Y-97807920D01*
G75*
G02*
X59906500Y-97557920I250000J0D01*
G01*
X60446500Y-97557920D01*
G75*
G02*
X60696500Y-97807920I0J-250000D01*
G01*
X60696500Y-98347920D01*
G75*
G02*
X60446500Y-98597920I-250000J0D01*
G01*
X59906500Y-98597920D01*
G75*
G02*
X59656500Y-98347920I0J250000D01*
G01*
G37*
G36*
G01*
X60946500Y-102217920D02*
X60946500Y-101677920D01*
G75*
G02*
X61196500Y-101427920I250000J0D01*
G01*
X61736500Y-101427920D01*
G75*
G02*
X61986500Y-101677920I0J-250000D01*
G01*
X61986500Y-102217920D01*
G75*
G02*
X61736500Y-102467920I-250000J0D01*
G01*
X61196500Y-102467920D01*
G75*
G02*
X60946500Y-102217920I0J250000D01*
G01*
G37*
G36*
G01*
X60946500Y-100927920D02*
X60946500Y-100387920D01*
G75*
G02*
X61196500Y-100137920I250000J0D01*
G01*
X61736500Y-100137920D01*
G75*
G02*
X61986500Y-100387920I0J-250000D01*
G01*
X61986500Y-100927920D01*
G75*
G02*
X61736500Y-101177920I-250000J0D01*
G01*
X61196500Y-101177920D01*
G75*
G02*
X60946500Y-100927920I0J250000D01*
G01*
G37*
G36*
G01*
X60946500Y-99637920D02*
X60946500Y-99097920D01*
G75*
G02*
X61196500Y-98847920I250000J0D01*
G01*
X61736500Y-98847920D01*
G75*
G02*
X61986500Y-99097920I0J-250000D01*
G01*
X61986500Y-99637920D01*
G75*
G02*
X61736500Y-99887920I-250000J0D01*
G01*
X61196500Y-99887920D01*
G75*
G02*
X60946500Y-99637920I0J250000D01*
G01*
G37*
G36*
G01*
X60946500Y-98347920D02*
X60946500Y-97807920D01*
G75*
G02*
X61196500Y-97557920I250000J0D01*
G01*
X61736500Y-97557920D01*
G75*
G02*
X61986500Y-97807920I0J-250000D01*
G01*
X61986500Y-98347920D01*
G75*
G02*
X61736500Y-98597920I-250000J0D01*
G01*
X61196500Y-98597920D01*
G75*
G02*
X60946500Y-98347920I0J250000D01*
G01*
G37*
D12*
X46548000Y-103632000D03*
X48448000Y-103632000D03*
D21*
X311876320Y-125425520D03*
X311876320Y-122225520D03*
X316776320Y-125425520D03*
X316776320Y-122225520D03*
D22*
X274626160Y-132091190D03*
X277826160Y-132091190D03*
X274626160Y-136991190D03*
X277826160Y-136991190D03*
X238907260Y-132091190D03*
X242107260Y-132091190D03*
X238907260Y-136991190D03*
X242107260Y-136991190D03*
X198425840Y-132091190D03*
X201625840Y-132091190D03*
X198425840Y-136991190D03*
X201625840Y-136991190D03*
X147228750Y-132091190D03*
X150428750Y-132091190D03*
X147228750Y-136991190D03*
X150428750Y-136991190D03*
X117053630Y-132022450D03*
X120253630Y-132022450D03*
X117053630Y-136922450D03*
X120253630Y-136922450D03*
X75790950Y-132091190D03*
X78990950Y-132091190D03*
X75790950Y-136991190D03*
X78990950Y-136991190D03*
D21*
X50075200Y-122225520D03*
X50075200Y-125425520D03*
X45175200Y-122225520D03*
X45175200Y-125425520D03*
D22*
X36128270Y-103653550D03*
X32928270Y-103653550D03*
X36128270Y-98753550D03*
X32928270Y-98753550D03*
X36128270Y-85794100D03*
X32928270Y-85794100D03*
X36128270Y-80894100D03*
X32928270Y-80894100D03*
X325823250Y-101134810D03*
X329023250Y-101134810D03*
X325823250Y-106034810D03*
X329023250Y-106034810D03*
X325823250Y-82084730D03*
X329023250Y-82084730D03*
X325823250Y-86984730D03*
X329023250Y-86984730D03*
D21*
X311876320Y-68275280D03*
X311876320Y-65075280D03*
X316776320Y-68275280D03*
X316776320Y-65075280D03*
D22*
X277826160Y-58409610D03*
X274626160Y-58409610D03*
X277826160Y-53509610D03*
X274626160Y-53509610D03*
X239726000Y-58409610D03*
X236526000Y-58409610D03*
X239726000Y-53509610D03*
X236526000Y-53509610D03*
X201625840Y-58409610D03*
X198425840Y-58409610D03*
X201625840Y-53509610D03*
X198425840Y-53509610D03*
X163525680Y-58409610D03*
X160325680Y-58409610D03*
X163525680Y-53509610D03*
X160325680Y-53509610D03*
X125425520Y-58409610D03*
X122225520Y-58409610D03*
X125425520Y-53509610D03*
X122225520Y-53509610D03*
X87325360Y-58409610D03*
X84125360Y-58409610D03*
X87325360Y-53509610D03*
X84125360Y-53509610D03*
D21*
X45175200Y-68275280D03*
X45175200Y-65075280D03*
X50075200Y-68275280D03*
X50075200Y-65075280D03*
D23*
G36*
X315044878Y-53448160D02*
G01*
X314196350Y-54296688D01*
X313559954Y-53660292D01*
X314408482Y-52811764D01*
X315044878Y-53448160D01*
G37*
G36*
X312711426Y-51114708D02*
G01*
X311862898Y-51963236D01*
X311226502Y-51326840D01*
X312075030Y-50478312D01*
X312711426Y-51114708D01*
G37*
G36*
X313011736Y-54686818D02*
G01*
X312163208Y-55535346D01*
X311526812Y-54898950D01*
X312375340Y-54050422D01*
X313011736Y-54686818D01*
G37*
G36*
X315345188Y-57020270D02*
G01*
X314496660Y-57868798D01*
X313860264Y-57232402D01*
X314708792Y-56383874D01*
X315345188Y-57020270D01*
G37*
D20*
X265510490Y-77850320D03*
X265510490Y-74550320D03*
X223838440Y-115950480D03*
X223838440Y-112650480D03*
X315516950Y-96900400D03*
X315516950Y-93600400D03*
X313135690Y-96900400D03*
X313135690Y-93600400D03*
X270273010Y-96900400D03*
X270273010Y-93600400D03*
X252413560Y-96900400D03*
X252413560Y-93600400D03*
X233363480Y-96900400D03*
X233363480Y-93600400D03*
X214313400Y-96900400D03*
X214313400Y-93600400D03*
X195263320Y-96900400D03*
X195263320Y-93600400D03*
X176213240Y-96900400D03*
X176213240Y-93600400D03*
X139303710Y-96900400D03*
X139303710Y-93600400D03*
X136922450Y-96900400D03*
X136922450Y-93600400D03*
X119063000Y-96900400D03*
X119063000Y-93600400D03*
X100012920Y-96900400D03*
X100012920Y-93600400D03*
X79771875Y-93600000D03*
X79771875Y-96900000D03*
X82153125Y-96900000D03*
X82153125Y-93600000D03*
X315516950Y-77850320D03*
X315516950Y-74550320D03*
X272654270Y-96900400D03*
X272654270Y-93600400D03*
X267890850Y-77850000D03*
X267890850Y-74550000D03*
X248841670Y-77850320D03*
X248841670Y-74550320D03*
X246460410Y-77850320D03*
X246460410Y-74550320D03*
X228600960Y-77850320D03*
X228600960Y-74550320D03*
X209550176Y-77850000D03*
X209550176Y-74550000D03*
X190500800Y-77850320D03*
X190500800Y-74550320D03*
X171450144Y-77850000D03*
X171450144Y-74550000D03*
X152400128Y-77850000D03*
X152400128Y-74550000D03*
X133350112Y-77850000D03*
X133350112Y-74550000D03*
X114300096Y-77850000D03*
X114300096Y-74550000D03*
X95250080Y-77850000D03*
X95250080Y-74550000D03*
X76200320Y-77850320D03*
X76200320Y-74550320D03*
X34528270Y-77850320D03*
X34528270Y-74550320D03*
D24*
X46937600Y-53695000D03*
X47437600Y-53695000D03*
X47937600Y-53695000D03*
X46437600Y-53695000D03*
X48437600Y-53695000D03*
X45937600Y-53695000D03*
X48937600Y-53695000D03*
X45437600Y-53695000D03*
D25*
X44737600Y-53695000D03*
X49637600Y-53695000D03*
X43962600Y-53695000D03*
X50412600Y-53695000D03*
D26*
X60393130Y-91399630D03*
X58193130Y-91399630D03*
X58193130Y-93099630D03*
X60393130Y-93099630D03*
D17*
X51054000Y-82804000D03*
X51054000Y-84704000D03*
D12*
X67625280Y-53578350D03*
X65725280Y-53578350D03*
X67625280Y-51197090D03*
X65725280Y-51197090D03*
D20*
X258366710Y-55500240D03*
X258366710Y-58800240D03*
X255984590Y-55500000D03*
X255984590Y-58800000D03*
X220266550Y-55500000D03*
X220266550Y-58800000D03*
X217884558Y-55500000D03*
X217884558Y-58800000D03*
X182166390Y-55500000D03*
X182166390Y-58800000D03*
X179784526Y-55500000D03*
X179784526Y-58800000D03*
X144066230Y-55500000D03*
X144066230Y-58800000D03*
X141684494Y-55500000D03*
X141684494Y-58800000D03*
X105966070Y-55500240D03*
X105966070Y-58800240D03*
X103584462Y-55500000D03*
X103584462Y-58800000D03*
X67865910Y-55500240D03*
X67865910Y-58800240D03*
X65484650Y-58800240D03*
X65484650Y-55500240D03*
D11*
X36178270Y-61912760D03*
X32878270Y-61912760D03*
D13*
X54288630Y-93392630D03*
X55788630Y-93392630D03*
X54288630Y-91614630D03*
X55788630Y-91614630D03*
D16*
X62468130Y-91563130D03*
X62468130Y-93063130D03*
M02*
