0
SECTION
2
HEADER
9
$INSUNITS
70
4
9
$ACADVER
1
AC1014
9
$HANDSEED
5
FFFF
0
ENDSEC
0
SECTION
2
TABLES
0
TABLE
2
VPORT
5
8
100
AcDbSymbolTable
0
ENDTAB
0
TABLE
2
LTYPE
5
5
100
AcDbSymbolTable
0
LTYPE
5
14
100
AcDbSymbolTableRecord
100
AcDbLinetypeTableRecord
2
BYBLOCK
70
0
0
LTYPE
5
15
100
AcDbSymbolTableRecord
100
AcDbLinetypeTableRecord
2
BYLAYER
70
0
0
ENDTAB
0
TABLE
2
LAYER
5
2
100
AcDbSymbolTable
70
2
0
LAYER
5
50
100
AcDbSymbolTableRecord
100
AcDbLayerTableRecord
2
0
70
0
6
CONTINUOUS
0
ENDTAB
0
TABLE
2
STYLE
5
3
100
AcDbSymbolTable
70
1
0
STYLE
5
11
100
AcDbSymbolTableRecord
100
AcDbTextStyleTableRecord
2
STANDARD
70
0
0
ENDTAB
0
TABLE
2
VIEW
5
6
100
AcDbSymbolTable
70
0
0
ENDTAB
0
TABLE
2
UCS
5
7
100
AcDbSymbolTable
70
0
0
ENDTAB
0
TABLE
2
APPID
5
9
100
AcDbSymbolTable
70
2
0
APPID
5
12
100
AcDbSymbolTableRecord
100
AcDbRegAppTableRecord
2
ACAD
70
0
0
ENDTAB
0
TABLE
2
DIMSTYLE
5
A
100
AcDbSymbolTable
70
1
0
ENDTAB
0
TABLE
2
BLOCK_RECORD
5
1
100
AcDbSymbolTable
70
1
0
BLOCK_RECORD
5
1F
100
AcDbSymbolTableRecord
100
AcDbBlockTableRecord
2
*MODEL_SPACE
0
BLOCK_RECORD
5
1B
100
AcDbSymbolTableRecord
100
AcDbBlockTableRecord
2
*PAPER_SPACE
0
ENDTAB
0
ENDSEC
0
SECTION
2
BLOCKS
0
BLOCK
5
20
100
AcDbEntity
100
AcDbBlockBegin
2
*MODEL_SPACE
0
ENDBLK
5
21
100
AcDbEntity
100
AcDbBlockEnd
0
BLOCK
5
1C
100
AcDbEntity
100
AcDbBlockBegin
2
*PAPER_SPACE
0
ENDBLK
5
1D
100
AcDbEntity
100
AcDbBlockEnd
0
ENDSEC
0
SECTION
2
ENTITIES
0
LWPOLYLINE
5
100
100
AcDbEntity
8
0
100
AcDbPolyline
90
25
70
1
43
0.0
10
-162.11999511710002
20
-96.339996337889971
42
-0.41400146486114076
10
-163.11999511715996
20
-95.339996337890014
10
-163.11999511716641
20
-94.881964039348674
42
3.7054636070296629
10
-163.11999511709999
20
-94.35803340068
10
-163.11999511716641
20
-90.381965419348674
42
3.7054636070296629
10
-163.11999511709999
20
-89.858034780680001
10
-163.11999511716641
20
-85.881964259348678
42
3.7054636070296629
10
-163.11999511709999
20
-85.358033620680004
10
-163.11999511710226
20
-66.988627145086681
42
0.84292937069841312
10
-163.11999511709999
20
-65.311372414890002
10
-163.119995117168
20
-0.99999999999997546
42
-0.41400071980558006
10
-162.11999511710002
20
-2.9976021664880004e-15
10
0
20
0
10
1.0033640585049852e-12
20
5.9800000190730032
42
-0.41600018739707639
10
0.50000000000000044
20
6.4800000190729996
10
9.9999999999999964
20
6.4800000190740024
42
-0.4160003662115066
10
10.5
20
5.9800000190729996
10
10.500000000000007
20
0
10
173.11900329588997
20
-8.0278839131864288e-12
42
-0.41400071978801917
10
174.11900329589
20
-0.99999999999999645
10
174.11900329589
20
-95.33999633789
42
-0.41400146484357986
10
173.11900329589002
20
-96.339996337890014
10
99.928001403809006
20
-96.339996337890014
10
5.2500000000000036
20
-116.46399688720001
10
-89.428001403799996
20
-96.339996337890014
0
LWPOLYLINE
5
101
100
AcDbEntity
8
0
100
AcDbPolyline
90
32
70
1
43
0.0
10
142.5119934082
20
-68.290000915520011
10
142.54100036621
20
-68.512001037589997
10
142.62699890136
20
-68.719001770020014
10
142.76300048828
20
-68.897003173819996
10
142.94099426269
20
-69.032997131340011
10
143.14799499511
20
-69.119003295889996
10
143.36999511718
20
-69.148002624509999
10
143.59199523925
20
-69.119003295889996
10
143.68800354003
20
-69.07900238037
10
143.78300476074
20
-69.119003295889996
10
144.00500488281
20
-69.148002624509999
10
144.22700500488
20
-69.119003295889996
10
144.4340057373
20
-69.032997131340011
10
144.61199951171
20
-68.897003173819996
10
144.74800109863
20
-68.719001770020014
10
144.83399963378
20
-68.512001037589997
10
144.86300659179
20
-68.290000915520011
10
144.83399963378
20
-68.068000793449997
10
144.74800109863
20
-67.861000061029998
10
144.61199951171
20
-67.682998657219997
10
144.4340057373
20
-67.546997070309999
10
144.22700500488
20
-67.460998535149997
10
144.00500488281
20
-67.431999206539999
10
143.78300476074
20
-67.460998535149997
10
143.68800354003
20
-67.500999450679998
10
143.59199523925
20
-67.460998535149997
10
143.36999511718
20
-67.431999206539999
10
143.14799499511
20
-67.460998535149997
10
142.94099426269
20
-67.546997070309999
10
142.76300048828
20
-67.682998657219997
10
142.62699890136
20
-67.861000061029998
10
142.54100036621
20
-68.068000793449997
0
LWPOLYLINE
5
102
100
AcDbEntity
8
0
100
AcDbPolyline
90
55
70
1
43
0.0
10
-129.11099243160004
20
-51.205001831050005
10
-128.7200012207
20
-51.243999481200007
10
-128.32899475089999
20
-51.205001831050005
10
-127.9530029296
20
-51.090999603270006
10
-127.6070022583
20
-50.905998229980007
10
-127.30300140380001
20
-50.657001495359999
10
-127.05400085440002
20
-50.35300064086001
10
-126.8690032958
20
-50.006999969480006
10
-126.75499725340002
20
-49.631000518790003
10
-126.7160034179
20
-49.240001678459997
10
-126.75499725340002
20
-48.848999023430004
10
-126.8690032958
20
-48.472999572749998
10
-127.05400085440002
20
-48.126998901359997
10
-127.30300140380001
20
-47.823001861570006
10
-127.6070022583
20
-47.574001312250005
10
-127.84799957270002
20
-47.444999694819998
10
-127.7679977416
20
-47.456001281730011
10
-127.5719985961
20
-47.430000305169997
10
-127.38999938960001
20
-47.354999542230004
10
-127.23300170890001
20
-47.234001159660004
10
-127.1129989624
20
-47.077999114990007
10
-127.03800201410002
20
-46.895999908440004
10
-127.0120010375
20
-46.700000762930003
10
-127.03800201410002
20
-46.504001617429999
10
-127.1129989624
20
-46.321998596189999
10
-127.23300170890001
20
-46.166000366210007
10
-127.38999938960001
20
-46.044998168939998
10
-127.5719985961
20
-45.970001220699999
10
-127.7679977416
20
-45.94400024414
10
-127.96299743650002
20
-45.970001220699999
10
-128.14599609370001
20
-46.044998168939998
10
-128.30200195309999
20
-46.166000366210007
10
-128.42199707029999
20
-46.321998596189999
10
-128.49800109860001
20
-46.504001617429999
10
-128.52299499509999
20
-46.700000762930003
10
-128.49800109860001
20
-46.895999908440004
10
-128.42199707029999
20
-47.077999114990007
10
-128.30200195309999
20
-47.234001159660004
10
-128.19700622549999
20
-47.314998626700003
10
-128.32899475089999
20
-47.27500152587001
10
-128.7200012207
20
-47.236000061029998
10
-129.11099243160004
20
-47.27500152587001
10
-129.48699951169999
20
-47.388999938959998
10
-129.8329925537
20
-47.574001312250005
10
-130.1369934082
20
-47.823001861570006
10
-130.38600158689999
20
-48.126998901359997
10
-130.57099914550002
20
-48.472999572749998
10
-130.68499755849999
20
-48.848999023430004
10
-130.72399902340004
20
-49.240001678459997
10
-130.68499755849999
20
-49.631000518790003
10
-130.57099914550002
20
-50.006999969480006
10
-130.38600158689999
20
-50.35300064086001
10
-130.1369934082
20
-50.657001495359999
10
-129.8329925537
20
-50.905998229980007
10
-129.48699951169999
20
-51.090999603270006
0
LWPOLYLINE
5
103
100
AcDbEntity
8
0
100
AcDbPolyline
90
32
70
1
43
0.0
10
-122.2919998168
20
-50.35300064086001
10
-122.10700225830001
20
-50.006999969480006
10
-121.99299621580002
20
-49.631000518790003
10
-121.95400238030001
20
-49.240001678459997
10
-121.99299621580002
20
-48.848999023430004
10
-122.10700225830001
20
-48.472999572749998
10
-122.2919998168
20
-48.126998901359997
10
-122.54100036620001
20
-47.823001861570006
10
-122.8450012207
20
-47.574001312250005
10
-123.191001892
20
-47.388999938959998
10
-123.5670013427
20
-47.27500152587001
10
-123.9580001831
20
-47.236000061029998
10
-124.3489990234
20
-47.27500152587001
10
-124.72399902340001
20
-47.388999938959998
10
-125.0709991455
20
-47.574001312250005
10
-125.37400054930002
20
-47.823001861570006
10
-125.62400054930002
20
-48.126998901359997
10
-125.80899810790001
20
-48.472999572749998
10
-125.9229965209
20
-48.848999023430004
10
-125.9609985351
20
-49.240001678459997
10
-125.9229965209
20
-49.631000518790003
10
-125.80899810790001
20
-50.006999969480006
10
-125.62400054930002
20
-50.35300064086001
10
-125.37400054930002
20
-50.657001495359999
10
-125.0709991455
20
-50.905998229980007
10
-124.72399902340001
20
-51.090999603270006
10
-124.3489990234
20
-51.205001831050005
10
-123.9580001831
20
-51.243999481200007
10
-123.5670013427
20
-51.205001831050005
10
-123.191001892
20
-51.090999603270006
10
-122.8450012207
20
-50.905998229980007
10
-122.54100036620001
20
-50.657001495359999
0
LWPOLYLINE
5
104
100
AcDbEntity
8
0
100
AcDbPolyline
90
32
70
1
43
0.0
10
148.28700256347
20
-10.3109998703
10
148.0650024414
20
-10.281999588010001
10
147.84300231933
20
-10.3109998703
10
147.74800109863003
20
-10.35099983215
10
147.65199279785003
20
-10.3109998703
10
147.42999267578
20
-10.281999588010001
10
147.20799255371
20
-10.3109998703
10
147.00100708007
20
-10.397000312799999
10
146.82299804687
20
-10.53299999237
10
146.68699645996
20
-10.711000442500001
10
146.6009979248
20
-10.918000221250001
10
146.57200622558003
20
-11.140000343320001
10
146.6009979248
20
-11.36200046539
10
146.68699645996
20
-11.56900024414
10
146.82299804687
20
-11.7469997406
10
147.00100708007
20
-11.88300037384
10
147.20799255371
20
-11.96899986267
10
147.42999267578
20
-11.998000144950002
10
147.65199279785003
20
-11.96899986267
10
147.74800109863003
20
-11.92899990081
10
147.84300231933
20
-11.96899986267
10
148.0650024414
20
-11.998000144950002
10
148.28700256347
20
-11.96899986267
10
148.49400329589
20
-11.88300037384
10
148.67199707031
20
-11.7469997406
10
148.80799865722
20
-11.56900024414
10
148.89399719238
20
-11.36200046539
10
148.92300415039
20
-11.140000343320001
10
148.89399719238
20
-10.918000221250001
10
148.80799865722
20
-10.711000442500001
10
148.67199707031
20
-10.53299999237
10
148.49400329589
20
-10.397000312799999
0
LWPOLYLINE
5
105
100
AcDbEntity
8
0
100
AcDbPolyline
90
47
70
1
43
0.0
10
154.92300415039
20
-2.6240000724789998
10
154.62399291992
20
-2.6530001163480006
10
154.33700561523
20
-2.7400000095369998
10
154.07200622558003
20
-2.8819999694820004
10
153.83999633789
20
-3.0720000267029999
10
153.64999389648
20
-3.3039999008179999
10
153.50799560546
20
-3.5690000057220006
10
153.42100524902003
20
-3.8559999465939998
10
153.39199829101
20
-4.1550002098079997
10
153.42100524902003
20
-4.4539999961849999
10
153.50799560546
20
-4.7410001754759996
10
153.64999389648
20
-5.0060000419620012
10
153.83999633789
20
-5.2379999160770012
10
154.07200622558003
20
-5.427999973297001
10
154.33700561523
20
-5.5700001716610004
10
154.45399475097
20
-5.6050000190729996
10
154.39500427246
20
-5.6820001602170001
10
154.32000732421
20
-5.863999843597
10
154.29400634765
20
-6.0599999427800011
10
154.32000732421
20
-6.2560000419620012
10
154.39500427246
20
-6.4380002021790004
10
154.51600646972
20
-6.5939998626710006
10
154.67199707031
20
-6.7150001525879999
10
154.85400390625
20
-6.7899999618530007
10
155.05000305175
20
-6.8159999847410013
10
155.24600219726
20
-6.7899999618530007
10
155.42799377441
20
-6.7150001525879999
10
155.58399963378002
20
-6.5939998626710006
10
155.70500183105
20
-6.4380002021790004
10
155.77999877929
20
-6.2560000419620012
10
155.80599975585
20
-6.0599999427800011
10
155.77999877929
20
-5.863999843597
10
155.70500183105
20
-5.6820001602170001
10
155.58700561523
20
-5.5279998779300001
10
155.77400207519
20
-5.427999973297001
10
156.0059967041
20
-5.2379999160770012
10
156.19599914550002
20
-5.0060000419620012
10
156.33799743652
20
-4.7410001754759996
10
156.42500305175
20
-4.4539999961849999
10
156.45399475097003
20
-4.1550002098079997
10
156.42500305175
20
-3.8559999465939998
10
156.33799743652
20
-3.5690000057220006
10
156.19599914550002
20
-3.3039999008179999
10
156.0059967041
20
-3.0720000267029999
10
155.77400207519
20
-2.8819999694820004
10
155.50900268554
20
-2.7400000095369998
10
155.22200012207003
20
-2.6530001163480006
0
LWPOLYLINE
5
106
100
AcDbEntity
8
0
100
AcDbPolyline
90
90
70
1
43
0.0
10
-45.330001831049998
20
-94.582000732419999
10
-45.41600036621
20
-94.375
10
-45.551998138420004
20
-94.196998596189999
10
-45.729999542229997
20
-94.060997009269997
10
-45.937000274650003
20
-93.97499847412
10
-46.159000396720003
20
-93.945999145499997
10
-46.381000518790003
20
-93.97499847412
10
-46.58800125122
20
-94.060997009269997
10
-46.765998840329999
20
-94.196998596189999
10
-46.902000427240004
20
-94.375
10
-46.987998962399999
20
-94.582000732419999
10
-47.016998291009998
20
-94.804000854489999
10
-46.987998962399999
20
-95.026000976559999
10
-46.902000427240004
20
-95.233001708979998
10
-46.765998840329999
20
-95.411003112790013
10
-46.58800125122
20
-95.546997070309999
10
-46.381000518790003
20
-95.633003234860013
10
-46.159000396720003
20
-95.662002563470011
10
-45.937000274650003
20
-95.633003234860013
10
-45.729999542229997
20
-95.546997070309999
10
-45.551998138420004
20
-95.411003112790013
10
-45.479999542230004
20
-95.317001342770013
10
-45.485000610349999
20
-95.36799621582
10
-45.445999145499997
20
-95.759002685539997
10
-45.332000732419999
20
-96.13500213623
10
-45.14699935913
20
-96.481002807609997
10
-44.897998809809998
20
-96.78500366210001
10
-44.595001220699999
20
-97.033996582029999
10
-44.248001098629999
20
-97.21900177002
10
-43.87200164794001
20
-97.333000183100012
10
-43.480998992920007
20
-97.37200164794001
10
-43.090999603269999
20
-97.333000183100012
10
-42.715000152579996
20
-97.21900177002
10
-42.67200088501
20
-97.196998596189999
10
-42.606998443600006
20
-97.277000427240012
10
-42.30300140380001
20
-97.526000976559999
10
-41.957000732420006
20
-97.710998535149997
10
-41.581001281730003
20
-97.824996948239999
10
-41.18999862670001
20
-97.863998413079997
10
-40.798999786370004
20
-97.824996948239999
10
-40.423000335689999
20
-97.710998535149997
10
-40.076999664299997
20
-97.526000976559999
10
-39.772998809809998
20
-97.277000427240012
10
-39.523998260490004
20
-96.972999572749998
10
-39.342998504630003
20
-96.634002685539997
10
-39.340999603269999
20
-96.647003173819996
10
-39.256000518790003
20
-96.853996276850012
10
-39.118999481200007
20
-97.03099822998
10
-38.942001342769998
20
-97.167999267569996
10
-38.735000610349999
20
-97.25299835205
10
-38.512001037589997
20
-97.282997131339997
10
-38.290000915519997
20
-97.25299835205
10
-38.083000183099998
20
-97.167999267569996
10
-37.90599822998
20
-97.03099822998
10
-37.76900100708
20
-96.853996276850012
10
-37.682998657219997
20
-96.647003173819996
10
-37.653999328609999
20
-96.424003601070012
10
-37.682998657219997
20
-96.202003479000012
10
-37.76900100708
20
-95.995002746579999
10
-37.90599822998
20
-95.818000793449997
10
-38.083000183099998
20
-95.680999755849996
10
-38.290000915519997
20
-95.595001220699999
10
-38.512001037589997
20
-95.56600189209
10
-38.735000610349999
20
-95.595001220699999
10
-38.942001342769998
20
-95.680999755849996
10
-39.118999481200007
20
-95.818000793449997
10
-39.192001342769998
20
-95.912002563469997
10
-39.186000823969998
20
-95.860000610349999
10
-39.22499847412
20
-95.46900177002
10
-39.339000701899998
20
-95.093002319329997
10
-39.523998260490004
20
-94.747001647939996
10
-39.772998809809998
20
-94.443000793449997
10
-40.076999664299997
20
-94.194000244140014
10
-40.423000335689999
20
-94.009002685539997
10
-40.798999786370004
20
-93.894996643059997
10
-41.18999862670001
20
-93.856002807609997
10
-41.581001281730003
20
-93.894996643059997
10
-41.957000732420006
20
-94.009002685539997
10
-41.999000549309997
20
-94.031997680660012
10
-42.064998626700003
20
-93.952003478999998
10
-42.368000030510004
20
-93.702003479000012
10
-42.715000152579996
20
-93.516998291009998
10
-43.090999603269999
20
-93.402999877930014
10
-43.480998992920007
20
-93.364997863770014
10
-43.87200164794001
20
-93.402999877930014
10
-44.248001098629999
20
-93.516998291009998
10
-44.595001220699999
20
-93.702003479000012
10
-44.897998809809998
20
-93.952003478999998
10
-45.14699935913
20
-94.254997253409996
10
-45.327999114990007
20
-94.594001770020014
0
LWPOLYLINE
5
107
100
AcDbEntity
8
0
100
AcDbPolyline
90
52
70
1
43
0.0
10
-53.046001434320004
20
-101.06099700919999
10
-52.904998779290004
20
-100.7959976196
10
-52.817001342769998
20
-100.50900268550001
10
-52.787998199460006
20
-100.20999908440001
10
-52.817001342769998
20
-99.912002563469997
10
-52.904998779290004
20
-99.624000549310011
10
-53.046001434320004
20
-99.360000610350014
10
-53.23699951171001
20
-99.126998901359997
10
-53.46900177002
20
-98.936996459960014
10
-53.733001708979998
20
-98.795997619619996
10
-54.020999908440004
20
-98.708000183099998
10
-54.31900024414
20
-98.679000854490013
10
-54.618000030509997
20
-98.708000183099998
10
-54.904998779290004
20
-98.795997619619996
10
-55.169998168939998
20
-98.936996459960014
10
-55.261001586910005
20
-99.011001586910012
10
-55.33800125122
20
-98.86799621582
10
-55.527999877930007
20
-98.636001586909998
10
-55.759998321530006
20
-98.444999694820012
10
-56.02500152587001
20
-98.304000854489999
10
-56.312000274650003
20
-98.217002868650013
10
-56.611000061029998
20
-98.18699645996
10
-56.909999847410006
20
-98.217002868650013
10
-57.196998596189999
20
-98.304000854489999
10
-57.462001800530004
20
-98.444999694820012
10
-57.694000244140007
20
-98.636001586909998
10
-57.88399887085
20
-98.86799621582
10
-58.026000976560006
20
-99.133003234859999
10
-58.112998962400006
20
-99.419998168939998
10
-58.141998291009998
20
-99.71900177002
10
-58.112998962400006
20
-100.01699829099999
10
-58.026000976560006
20
-100.30500030509999
10
-57.88399887085
20
-100.5690002441
10
-57.694000244140007
20
-100.80100250240001
10
-57.462001800530004
20
-100.9919967651
10
-57.196998596189999
20
-101.13300323480001
10
-56.909999847410006
20
-101.2200012207
10
-56.611000061029998
20
-101.25
10
-56.312000274650003
20
-101.2200012207
10
-56.02500152587001
20
-101.13300323480001
10
-55.759998321530006
20
-100.9919967651
10
-55.668998718259999
20
-100.91699981680001
10
-55.592998504630003
20
-101.06099700919999
10
-55.402000427239997
20
-101.29299926750001
10
-55.169998168939998
20
-101.48400115960001
10
-54.904998779290004
20
-101.62500000000001
10
-54.618000030509997
20
-101.7119979858
10
-54.31900024414
20
-101.7419967651
10
-54.020999908440004
20
-101.7119979858
10
-53.733001708979998
20
-101.62500000000001
10
-53.46900177002
20
-101.48400115960001
10
-53.23699951171001
20
-101.29299926750001
0
LWPOLYLINE
5
108
100
AcDbEntity
8
0
100
AcDbPolyline
90
48
70
1
43
0.0
10
-29.278999328609999
20
-91.603996276850012
10
-29.212999343870003
20
-91.68399810791
10
-28.909999847410003
20
-91.932998657219997
10
-28.562999725339999
20
-92.117996215820014
10
-28.187000274650003
20
-92.2320022583
10
-27.797000885010004
20
-92.271003723139998
10
-27.40600013732
20
-92.2320022583
10
-27.030000686640001
20
-92.117996215820014
10
-26.683000564570001
20
-91.932998657219997
10
-26.379999160760001
20
-91.68399810791
10
-26.13100051879
20
-91.380996704099999
10
-25.945999145500004
20
-91.033996582030014
10
-25.832000732420003
20
-90.657997131339997
10
-25.792999267570003
20
-90.266998291009998
10
-25.832000732420003
20
-89.876998901359997
10
-25.945999145500004
20
-89.500999450680013
10
-26.13100051879
20
-89.153999328609999
10
-26.379999160760001
20
-88.850997924799998
10
-26.683000564570001
20
-88.601997375479996
10
-27.030000686640001
20
-88.416000366210014
10
-27.40600013732
20
-88.302001953120012
10
-27.797000885010004
20
-88.263999938960012
10
-28.187000274650003
20
-88.302001953120012
10
-28.562999725339999
20
-88.416000366210014
10
-28.606000900260003
20
-88.439002990720013
10
-28.67099952697
20
-88.359001159659996
10
-28.975000381470004
20
-88.110000610350014
10
-29.320999145500004
20
-87.925003051749997
10
-29.69700050354
20
-87.810997009269997
10
-30.087999343869999
20
-87.772003173819996
10
-30.479000091550002
20
-87.810997009269997
10
-30.854999542230001
20
-87.925003051749997
10
-31.201000213619999
20
-88.110000610350014
10
-31.504999160760004
20
-88.359001159659996
10
-31.753999710079999
20
-88.663002014160014
10
-31.938999176020001
20
-89.009002685539997
10
-32.053001403800003
20
-89.38500213623
10
-32.091999053949998
20
-89.776000976559999
10
-32.053001403800003
20
-90.166999816889998
10
-31.938999176020001
20
-90.541999816890012
10
-31.753999710079999
20
-90.888999938959998
10
-31.504999160760004
20
-91.192001342769998
10
-31.201000213619999
20
-91.442001342769998
10
-30.854999542230001
20
-91.626998901359997
10
-30.479000091550002
20
-91.740997314449999
10
-30.087999343869999
20
-91.778999328610013
10
-29.69700050354
20
-91.740997314449999
10
-29.320999145500004
20
-91.626998901359997
0
LWPOLYLINE
5
109
100
AcDbEntity
8
0
100
AcDbPolyline
90
48
70
1
43
0.0
10
-54.859001159660004
20
-83.394996643060011
10
-55.108001708980005
20
-83.697998046869998
10
-55.292999267570011
20
-84.044998168940012
10
-55.407001495360007
20
-84.420997619619996
10
-55.445999145499997
20
-84.81199645996
10
-55.407001495360007
20
-85.202003478999998
10
-55.292999267570011
20
-85.578002929679997
10
-55.108001708980005
20
-85.925003051749997
10
-54.859001159660004
20
-86.227996826169999
10
-54.555000305170005
20
-86.476997375480011
10
-54.20899963378001
20
-86.66300201416
10
-53.833000183099998
20
-86.777000427239997
10
-53.442001342769998
20
-86.815002441399997
10
-53.050998687740005
20
-86.777000427239997
10
-52.675998687739998
20
-86.66300201416
10
-52.632999420160004
20
-86.639999389639996
10
-52.568000793449997
20
-86.720001220700013
10
-52.263999938959998
20
-86.96900177002
10
-51.917999267570003
20
-87.153999328610013
10
-51.541999816890005
20
-87.26799774169001
10
-51.151000976560006
20
-87.306999206540013
10
-50.759998321530006
20
-87.26799774169001
10
-50.38399887085
20
-87.153999328610013
10
-50.037998199459999
20
-86.96900177002
10
-49.734001159660004
20
-86.720001220700013
10
-49.485000610349999
20
-86.41600036621
10
-49.29999923706
20
-86.069999694820012
10
-49.186000823969998
20
-85.69400024414
10
-49.14699935913
20
-85.303001403799996
10
-49.186000823969998
20
-84.912002563469997
10
-49.29999923706
20
-84.537002563469997
10
-49.485000610349999
20
-84.190002441399997
10
-49.734001159660004
20
-83.887001037589997
10
-50.037998199459999
20
-83.637001037589997
10
-50.38399887085
20
-83.452003479000012
10
-50.759998321530006
20
-83.337997436519998
10
-51.151000976560006
20
-83.300003051749997
10
-51.541999816890005
20
-83.337997436519998
10
-51.917999267570003
20
-83.452003479000012
10
-51.959999084469999
20
-83.474998474120014
10
-52.026000976559999
20
-83.394996643060011
10
-52.328998565670005
20
-83.146003723140012
10
-52.675998687739998
20
-82.960998535150011
10
-53.050998687740005
20
-82.84700012207
10
-53.442001342769998
20
-82.807998657220011
10
-53.833000183099998
20
-82.84700012207
10
-54.20899963378001
20
-82.960998535150011
10
-54.555000305170005
20
-83.146003723140012
0
LWPOLYLINE
5
110
100
AcDbEntity
8
0
100
AcDbPolyline
90
32
70
1
43
0.0
10
139.28300476074
20
-11.56900024414
10
139.36900329589002
20
-11.36200046539
10
139.39799499511
20
-11.140000343320001
10
139.36900329589002
20
-10.918000221250001
10
139.28300476074
20
-10.711000442500001
10
139.14700317382
20
-10.53299999237
10
138.96899414062
20
-10.397000312799999
10
138.7619934082
20
-10.3109998703
10
138.53999328613
20
-10.281999588010001
10
138.31799316406
20
-10.3109998703
10
138.22300720214
20
-10.35099983215
10
138.12699890136
20
-10.3109998703
10
137.90499877929
20
-10.281999588010001
10
137.68299865722
20
-10.3109998703
10
137.4759979248
20
-10.397000312799999
10
137.29800415039
20
-10.53299999237
10
137.16200256347003
20
-10.711000442500001
10
137.07600402832
20
-10.918000221250001
10
137.04699707031
20
-11.140000343320001
10
137.07600402832
20
-11.36200046539
10
137.16200256347003
20
-11.56900024414
10
137.29800415039
20
-11.7469997406
10
137.4759979248
20
-11.88300037384
10
137.68299865722
20
-11.96899986267
10
137.90499877929
20
-11.998000144950002
10
138.12699890136
20
-11.96899986267
10
138.22300720214
20
-11.92899990081
10
138.31799316406
20
-11.96899986267
10
138.53999328613
20
-11.998000144950002
10
138.7619934082
20
-11.96899986267
10
138.96899414062
20
-11.88300037384
10
139.14700317382
20
-11.7469997406
0
LWPOLYLINE
5
111
100
AcDbEntity
8
0
100
AcDbPolyline
90
18
70
1
43
0.0
10
9.3540000915530008
20
0.58099997043600005
10
9.4530000686650002
20
0.51499998569500005
10
9.5699996948240003
20
0.49200001359000001
10
9.6870002746580006
20
0.51499998569500005
10
9.78600025177
20
0.58099997043600005
10
9.8529996871950019
20
0.68000000715300002
10
9.8760004043580008
20
0.797999978065
10
9.8760004043580008
20
1.896999955177
10
9.8529996871950019
20
2.0150001049039998
10
9.78600025177
20
2.1140000820160001
10
9.6870002746580006
20
2.1800000667570001
10
9.5699996948240003
20
2.2030000686650002
10
9.4530000686650002
20
2.1800000667570001
10
9.3540000915530008
20
2.1140000820160001
10
9.2869997024540005
20
2.0150001049039998
10
9.2639999389650001
20
1.896999955177
10
9.2639999389650001
20
0.797999978065
10
9.2869997024540005
20
0.68000000715300002
0
LWPOLYLINE
5
112
100
AcDbEntity
8
0
100
AcDbPolyline
90
16
70
1
43
0.0
10
7.9060001373290012
20
1.643000006676
10
8.0129995346069993
20
1.5709999799730001
10
8.1400003433230026
20
1.5460000038150001
10
8.2670001983640002
20
1.5709999799730001
10
8.3739995956419992
20
1.643000006676
10
8.4460000991819992
20
1.7510000467300002
10
8.4709997177120009
20
1.8769999742510002
10
8.4460000991819992
20
2.0039999485019999
10
8.3739995956419992
20
2.1119999885560006
10
8.2670001983640002
20
2.184000015259
10
8.1400003433230026
20
2.209000110626
10
8.0129995346069993
20
2.184000015259
10
7.9060001373290012
20
2.1119999885560006
10
7.8340001106260004
20
2.0039999485019999
10
7.8090000152590004
20
1.8769999742510002
10
7.8340001106260004
20
1.7510000467300002
0
LWPOLYLINE
5
113
100
AcDbEntity
8
0
100
AcDbPolyline
90
16
70
1
43
0.0
10
2.5940001010890001
20
1.643000006676
10
2.665999889374
20
1.7510000467300002
10
2.690999984741
20
1.8769999742510002
10
2.665999889374
20
2.0039999485019999
10
2.5940001010890001
20
2.1119999885560006
10
2.4869999885560001
20
2.184000015259
10
2.3599998950960002
20
2.209000110626
10
2.2330000400540002
20
2.184000015259
10
2.1259999275210002
20
2.1119999885560006
10
2.0539999008179999
20
2.0039999485019999
10
2.0290000438689999
20
1.8769999742510002
10
2.0539999008179999
20
1.7510000467300002
10
2.1259999275210002
20
1.643000006676
10
2.2330000400540002
20
1.5709999799730001
10
2.3599998950960002
20
1.5460000038150001
10
2.4869999885560001
20
1.5709999799730001
0
LWPOLYLINE
5
114
100
AcDbEntity
8
0
100
AcDbPolyline
90
18
70
1
43
0.0
10
0.62400001287499995
20
0.797999978065
10
0.64700001478199998
20
0.68000000715300002
10
0.713999986649
20
0.58099997043600005
10
0.8130000233650001
20
0.51499998569500005
10
0.93000000715300013
20
0.49200001359000001
10
1.0470000505449999
20
0.51499998569500005
10
1.1460000276569999
20
0.58099997043600005
10
1.2130000591279999
20
0.68000000715300002
10
1.2359999418259999
20
0.797999978065
10
1.2359999418259999
20
1.896999955177
10
1.2130000591279999
20
2.0150001049039998
10
1.1460000276569999
20
2.1140000820160001
10
1.0470000505449999
20
2.1800000667570001
10
0.93000000715300013
20
2.2030000686650002
10
0.8130000233650001
20
2.1800000667570001
10
0.713999986649
20
2.1140000820160001
10
0.64700001478199998
20
2.0150001049039998
10
0.62400001287499995
20
1.896999955177
0
LWPOLYLINE
5
115
100
AcDbEntity
8
0
100
AcDbPolyline
90
20
70
1
43
0.0
10
-42.805000305169997
20
-100.39800262450001
10
-42.919998168939998
20
-100.22599792480001
10
-43.091999053950005
20
-100.11100006100001
10
-43.294998168939998
20
-100.0699996948
10
-43.300998687739998
20
-100.0709991455
10
-43.487998962399999
20
-100.03399658200001
10
-43.692001342770006
20
-100.0739974975
10
-43.863998413079997
20
-100.19000244140001
10
-43.979000091550006
20
-100.36199951170002
10
-44.019001007080007
20
-100.5650024414
10
-43.979000091550006
20
-100.76799774160001
10
-43.863998413079997
20
-100.9400024414
10
-43.692001342770006
20
-101.05500030510001
10
-43.487998962399999
20
-101.09600067130002
10
-43.483001708979998
20
-101.09500122070001
10
-43.294998168939998
20
-101.13200378409999
10
-43.091999053950005
20
-101.09200286860002
10
-42.919998168939998
20
-100.9769973754
10
-42.805000305169997
20
-100.80400085440002
10
-42.763999938959998
20
-100.60099792480001
0
LWPOLYLINE
5
116
100
AcDbEntity
8
0
100
AcDbPolyline
90
88
70
1
43
0.0
10
-7.9939999580380006
20
-102.03500366210001
10
-8.2159996032710012
20
-102.0059967041
10
-8.4379997253419994
20
-102.03500366210001
10
-8.6450004577640005
20
-102.1210021972
10
-8.8229999542240005
20
-102.25700378409999
10
-8.8680000305179991
20
-102.31600189200002
10
-8.8660001754759996
20
-102.30000305170002
10
-8.9049997329709996
20
-101.90899658200001
10
-9.0190000534059998
20
-101.53299713129999
10
-9.2040004730220009
20
-101.1869964599
10
-9.4530000686650002
20
-100.8830032348
10
-9.7569999694820009
20
-100.63400268549999
10
-10.10299968719
20
-100.44899749750002
10
-10.479000091550002
20
-100.3349990844
10
-10.86999988555
20
-100.2959976196
10
-11.260999679559999
20
-100.3349990844
10
-11.637000083920002
20
-100.44899749750002
10
-11.694999694820002
20
-100.4800033569
10
-11.76799964904
20
-100.39099884030001
10
-12.071999549859999
20
-100.14199829100001
10
-12.418000221250001
20
-99.957000732419999
10
-12.793999671930001
20
-99.843002319329997
10
-13.185000419610002
20
-99.804000854489999
10
-13.57600021362
20
-99.843002319329997
10
-13.951999664300001
20
-99.957000732419999
10
-14.298000335690002
20
-100.14199829100001
10
-14.602000236509999
20
-100.39099884030001
10
-14.85099983215
20
-100.6949996948
10
-15.01700019836
20
-101.00499725340001
10
-15.095999717710002
20
-100.81500244140001
10
-15.232000350950001
20
-100.63700103750001
10
-15.409999847410001
20
-100.50099945060001
10
-15.616999626160002
20
-100.4150009155
10
-15.83899974823
20
-100.38600158690001
10
-16.061000823970002
20
-100.4150009155
10
-16.26799964904
20
-100.50099945060001
10
-16.4459991455
20
-100.63700103750001
10
-16.582000732419999
20
-100.81500244140001
10
-16.667999267570003
20
-101.02200317380002
10
-16.69700050354
20
-101.2440032958
10
-16.667999267570003
20
-101.4660034179
10
-16.582000732419999
20
-101.67299652090001
10
-16.4459991455
20
-101.85099792480001
10
-16.26799964904
20
-101.98699951170001
10
-16.061000823970002
20
-102.0729980468
10
-15.83899974823
20
-102.10199737540002
10
-15.616999626160002
20
-102.0729980468
10
-15.409999847410001
20
-101.98699951170001
10
-15.232000350950001
20
-101.85099792480001
10
-15.18700027465
20
-101.7919998168
10
-15.189000129700002
20
-101.80799865720002
10
-15.149999618530002
20
-102.1989974975
10
-15.036000251770002
20
-102.5749969482
10
-14.85099983215
20
-102.92099761960002
10
-14.602000236509999
20
-103.2249984741
10
-14.298000335690002
20
-103.47399902340001
10
-13.951999664300001
20
-103.658996582
10
-13.57600021362
20
-103.77300262449999
10
-13.185000419610002
20
-103.81099700920001
10
-12.793999671930001
20
-103.77300262449999
10
-12.418000221250001
20
-103.658996582
10
-12.359999656670002
20
-103.62799835200001
10
-12.28699970245
20
-103.71700286860002
10
-11.982999801629999
20
-103.9660034179
10
-11.637000083920002
20
-104.1510009765
10
-11.260999679559999
20
-104.26499938960001
10
-10.86999988555
20
-104.3040008544
10
-10.479000091550002
20
-104.26499938960001
10
-10.10299968719
20
-104.1510009765
10
-9.7569999694820009
20
-103.9660034179
10
-9.4530000686650002
20
-103.71700286860002
10
-9.2040004730220009
20
-103.4130020141
10
-9.0380001068119995
20
-103.10299682610001
10
-8.9589996337890003
20
-103.29299926749999
10
-8.8229999542240005
20
-103.4710006713
10
-8.6450004577640005
20
-103.60700225830001
10
-8.4379997253419994
20
-103.6930007934
10
-8.2159996032710012
20
-103.722000122
10
-7.9939999580380006
20
-103.6930007934
10
-7.7870001792910006
20
-103.60700225830001
10
-7.6090002059939996
20
-103.4710006713
10
-7.4730000495909996
20
-103.29299926749999
10
-7.3870000839229997
20
-103.08599853510002
10
-7.3579998016360006
20
-102.86399841300002
10
-7.3870000839229997
20
-102.64199829100001
10
-7.4730000495909996
20
-102.43499755850002
10
-7.6090002059939996
20
-102.25700378409999
10
-7.7870001792910006
20
-102.1210021972
0
LWPOLYLINE
5
117
100
AcDbEntity
8
0
100
AcDbPolyline
90
52
70
1
43
0.0
10
-32.173999786369997
20
-103.59999847410002
10
-32.40599822998
20
-103.40899658200001
10
-32.671001434319997
20
-103.26799774160001
10
-32.958000183099998
20
-103.1809997558
10
-33.256999969479999
20
-103.15100097650001
10
-33.555000305169997
20
-103.1809997558
10
-33.842998504630003
20
-103.26799774160001
10
-34.106998443599998
20
-103.40899658200001
10
-34.339000701899998
20
-103.59999847410002
10
-34.529998779289997
20
-103.83200073240002
10
-34.671001434319997
20
-104.097000122
10
-34.75899887085
20
-104.38400268549999
10
-34.787998199459999
20
-104.6829986572
10
-34.75899887085
20
-104.98100280760001
10
-34.671001434319997
20
-105.26899719230002
10
-34.529998779289997
20
-105.53299713130001
10
-34.339000701899998
20
-105.76499938960001
10
-34.106998443599998
20
-105.9560012817
10
-33.842998504630003
20
-106.09700012200001
10
-33.555000305169997
20
-106.18499755850002
10
-33.256999969479999
20
-106.21399688720001
10
-32.958000183099998
20
-106.18499755850002
10
-32.671001434319997
20
-106.09700012200001
10
-32.40599822998
20
-105.9560012817
10
-32.314998626700003
20
-105.88200378410001
10
-32.237998962399999
20
-106.02500152579999
10
-32.048000335689999
20
-106.25700378410001
10
-31.815999984740003
20
-106.4479980468
10
-31.551000595089999
20
-106.5889968872
10
-31.263999938960005
20
-106.6760025024
10
-30.96500015258
20
-106.70600128170001
10
-30.666000366210003
20
-106.6760025024
10
-30.378999710080002
20
-106.5889968872
10
-30.114000320430002
20
-106.4479980468
10
-29.881999969479999
20
-106.25700378410001
10
-29.691999435420001
20
-106.02500152579999
10
-29.54999923706
20
-105.7600021362
10
-29.462999343869999
20
-105.4729995727
10
-29.43400001525
20
-105.174003601
10
-29.462999343869999
20
-104.87599945060001
10
-29.54999923706
20
-104.58799743650002
10
-29.691999435420001
20
-104.32399749750002
10
-29.881999969479999
20
-104.09200286860001
10
-30.114000320430002
20
-103.9010009765
10
-30.378999710080002
20
-103.76000213620001
10
-30.666000366210003
20
-103.67199707029999
10
-30.96500015258
20
-103.64299774160001
10
-31.263999938960005
20
-103.67199707029999
10
-31.551000595089999
20
-103.76000213620001
10
-31.815999984740003
20
-103.9010009765
10
-31.906999588009999
20
-103.97499847410002
10
-31.982999801630001
20
-103.83200073240002
0
LWPOLYLINE
5
118
100
AcDbEntity
8
0
100
AcDbPolyline
90
18
70
1
43
0.0
10
1.2359999418259999
20
5.8270001411439996
10
1.2130000591279999
20
5.9450001716610004
10
1.1460000276569999
20
6.0440001487729997
10
1.0470000505449999
20
6.1100001335140011
10
0.93000000715300013
20
6.1329998970029997
10
0.8130000233650001
20
6.1100001335140011
10
0.713999986649
20
6.0440001487729997
10
0.64700001478199998
20
5.9450001716610004
10
0.62400001287499995
20
5.8270001411439996
10
0.62400001287499995
20
5.2280001640320002
10
0.64700001478199998
20
5.1100001335140002
10
0.713999986649
20
5.011000156403
10
0.8130000233650001
20
4.9450001716610004
10
0.93000000715300013
20
4.9219999313349998
10
1.0470000505449999
20
4.9450001716610004
10
1.1460000276569999
20
5.011000156403
10
1.2130000591279999
20
5.1100001335140002
10
1.2359999418259999
20
5.2280001640320002
0
LWPOLYLINE
5
119
100
AcDbEntity
8
0
100
AcDbPolyline
90
18
70
1
43
0.0
10
9.78600025177
20
5.011000156403
10
9.8529996871950019
20
5.1100001335140002
10
9.8760004043580008
20
5.2280001640320002
10
9.8760004043580008
20
5.8270001411439996
10
9.8529996871950019
20
5.9450001716610004
10
9.78600025177
20
6.0440001487729997
10
9.6870002746580006
20
6.1100001335140011
10
9.5699996948240003
20
6.1329998970029997
10
9.4530000686650002
20
6.1100001335140011
10
9.3540000915530008
20
6.0440001487729997
10
9.2869997024540005
20
5.9450001716610004
10
9.2639999389650001
20
5.8270001411439996
10
9.2639999389650001
20
5.2280001640320002
10
9.2869997024540005
20
5.1100001335140002
10
9.3540000915530008
20
5.011000156403
10
9.4530000686650002
20
4.9450001716610004
10
9.5699996948240003
20
4.9219999313349998
10
9.6870002746580006
20
4.9450001716610004
0
LWPOLYLINE
5
120
100
AcDbEntity
8
0
100
AcDbPolyline
90
20
70
1
43
0.0
10
-12.79599952697
20
-106.5500030517
10
-12.96000003814
20
-106.5179977416
10
-12.965000152580002
20
-106.51399993890001
10
-13.168000221250002
20
-106.4739990234
10
-13.3719997406
20
-106.51399993890001
10
-13.543999671930003
20
-106.62999725340001
10
-13.65900039672
20
-106.8020019531
10
-13.699000358580001
20
-107.00499725340002
10
-13.65900039672
20
-107.20800018310001
10
-13.543999671930003
20
-107.37999725340002
10
-13.3719997406
20
-107.49500274650002
10
-13.20699977874
20
-107.5279998779
10
-13.201999664300001
20
-107.53099822990002
10
-12.998999595640001
20
-107.5719985961
10
-12.79599952697
20
-107.53099822990002
10
-12.623999595640001
20
-107.4160003662
10
-12.50800037384
20
-107.2440032958
10
-12.46800041198
20
-107.0410003662
10
-12.50800037384
20
-106.8379974365
10
-12.623999595640001
20
-106.6660003662
0
CIRCLE
5
121
100
AcDbEntity
8
0
100
AcDbCircle
10
-152.84999148
20
-52.17999978000001
30
-5.1545712143052924e-09
40
0.49530000000000007
210
0
220
0
230
1
0
CIRCLE
5
122
100
AcDbEntity
8
0
100
AcDbCircle
10
-127.44999147999999
20
-54.320000579999999
30
-5.1545712143052924e-09
40
0.49530000000000007
210
0
220
0
230
1
0
CIRCLE
5
123
100
AcDbEntity
8
0
100
AcDbCircle
10
-129.98999147999999
20
-54.320000579999999
30
-5.1545712143052924e-09
40
0.49530000000000007
210
0
220
0
230
1
0
CIRCLE
5
124
100
AcDbEntity
8
0
100
AcDbCircle
10
-122.68767182000002
20
-54.320000579999999
30
-5.1545712143052924e-09
40
0.49530000000000007
210
0
220
0
230
1
0
CIRCLE
5
125
100
AcDbEntity
8
0
100
AcDbCircle
10
-125.22767182000001
20
-54.320000579999999
30
-5.1545712143052924e-09
40
0.49530000000000007
210
0
220
0
230
1
0
CIRCLE
5
126
100
AcDbEntity
8
0
100
AcDbCircle
10
-77.073935260000013
20
-54.473038120000005
30
-5.1545712143052924e-09
40
0.49530000000000007
210
0
220
0
230
1
0
CIRCLE
5
127
100
AcDbEntity
8
0
100
AcDbCircle
10
-96.489992440000009
20
-54.320000579999999
30
-5.1545712143052924e-09
40
0.49530000000000007
210
0
220
0
230
1
0
CIRCLE
5
128
100
AcDbEntity
8
0
100
AcDbCircle
10
-128.43999203999999
20
-68.290000579999997
30
-5.1545712143052924e-09
40
0.85089999999999999
210
0
220
0
230
1
0
CIRCLE
5
129
100
AcDbEntity
8
0
100
AcDbCircle
10
-127.16999204000001
20
-65.750000580000005
30
-5.1545712143052924e-09
40
0.74929999999999997
210
0
220
0
230
1
0
CIRCLE
5
130
100
AcDbEntity
8
0
100
AcDbCircle
10
-153.10399147999999
20
-66.149999780000002
30
-5.1545712143052924e-09
40
0.85089999999999999
210
0
220
0
230
1
0
CIRCLE
5
131
100
AcDbEntity
8
0
100
AcDbCircle
10
-87.329990440000017
20
-68.290000579999997
30
-5.1545712143052924e-09
40
0.85089999999999999
210
0
220
0
230
1
0
CIRCLE
5
132
100
AcDbEntity
8
0
100
AcDbCircle
10
-135.29799204
20
-61.305000579999998
30
-5.1545712143052924e-09
40
1.524
210
0
220
0
230
1
0
CIRCLE
5
133
100
AcDbEntity
8
0
100
AcDbCircle
10
-120.81999204
20
-63.210000579999999
30
-5.1545712143052924e-09
40
0.74929999999999997
210
0
220
0
230
1
0
CIRCLE
5
134
100
AcDbEntity
8
0
100
AcDbCircle
10
-89.869990439999995
20
-63.210000579999999
30
-5.1545712143052924e-09
40
0.74929999999999997
210
0
220
0
230
1
0
CIRCLE
5
135
100
AcDbEntity
8
0
100
AcDbCircle
10
-111.42199204000001
20
-61.305000579999998
30
-5.1545712143052924e-09
40
1.524
210
0
220
0
230
1
0
CIRCLE
5
136
100
AcDbEntity
8
0
100
AcDbCircle
10
-63.59526778
20
-52.144526140000011
30
-5.1545712143052924e-09
40
0.85089999999999999
210
0
220
0
230
1
0
CIRCLE
5
137
100
AcDbEntity
8
0
100
AcDbCircle
10
-75.108638200000001
20
-66.573361899999995
30
-5.1545712143052924e-09
40
0.74929999999999997
210
0
220
0
230
1
0
CIRCLE
5
138
100
AcDbEntity
8
0
100
AcDbCircle
10
-66.941001499999999
20
-70.906190420000001
30
-5.1545712143052924e-09
40
0.85089999999999999
210
0
220
0
230
1
0
CIRCLE
5
139
100
AcDbEntity
8
0
100
AcDbCircle
10
-58.44022348
20
-58.433754100000002
30
-5.1545712143052924e-09
40
0.49530000000000007
210
0
220
0
230
1
0
CIRCLE
5
140
100
AcDbEntity
8
0
100
AcDbCircle
10
-60.924716859999997
20
-57.905657619999999
30
-5.1545712143052924e-09
40
0.49530000000000007
210
0
220
0
230
1
0
CIRCLE
5
141
100
AcDbEntity
8
0
100
AcDbCircle
10
-58.626278480000011
20
-53.200716559999996
30
-5.1545712143052924e-09
40
1.9939
210
0
220
0
230
1
0
CIRCLE
5
142
100
AcDbEntity
8
0
100
AcDbCircle
10
-44.961556000000009
20
-56.105244660000004
30
-5.1545712143052924e-09
40
0.85089999999999999
210
0
220
0
230
1
0
CIRCLE
5
143
100
AcDbEntity
8
0
100
AcDbCircle
10
-39.806511700000001
20
-62.394472620000002
30
-5.1545712143052924e-09
40
0.49530000000000007
210
0
220
0
230
1
0
CIRCLE
5
144
100
AcDbEntity
8
0
100
AcDbCircle
10
-42.291005080000005
20
-61.86637614
30
-5.1545712143052924e-09
40
0.49530000000000007
210
0
220
0
230
1
0
CIRCLE
5
145
100
AcDbEntity
8
0
100
AcDbCircle
10
-39.992566699999998
20
-57.161435080000004
30
-5.1545712143052924e-09
40
1.9939
210
0
220
0
230
1
0
CIRCLE
5
146
100
AcDbEntity
8
0
100
AcDbCircle
10
-43.191214100000003
20
-53.884796980000004
30
-5.1545712143052924e-09
40
0.74929999999999997
210
0
220
0
230
1
0
CIRCLE
5
147
100
AcDbEntity
8
0
100
AcDbCircle
10
73.18000858000002
20
-69.849999999999994
30
-5.1545712143052924e-09
40
1.9939
210
0
220
0
230
1
0
CIRCLE
5
148
100
AcDbEntity
8
0
100
AcDbCircle
10
74.608311540000017
20
-64.352914220000002
30
-5.1545712143052924e-09
40
0.74929999999999997
210
0
220
0
230
1
0
CIRCLE
5
149
100
AcDbEntity
8
0
100
AcDbCircle
10
62.204734620000011
20
-57.905657619999999
30
-5.1545712143052924e-09
40
0.49530000000000007
210
0
220
0
230
1
0
CIRCLE
5
150
100
AcDbEntity
8
0
100
AcDbCircle
10
59.720241240000007
20
-58.433754100000002
30
-5.1545712143052924e-09
40
0.49530000000000007
210
0
220
0
230
1
0
CIRCLE
5
151
100
AcDbEntity
8
0
100
AcDbCircle
10
42.700887420000001
20
-51.664349300000005
30
-5.1545712143052924e-09
40
0.74929999999999997
210
0
220
0
230
1
0
CIRCLE
5
152
100
AcDbEntity
8
0
100
AcDbCircle
10
43.571022839999998
20
-61.86637614
30
-5.1545712143052924e-09
40
0.49530000000000007
210
0
220
0
230
1
0
CIRCLE
5
153
100
AcDbEntity
8
0
100
AcDbCircle
10
41.272584459999997
20
-57.161435080000004
30
-5.1545712143052924e-09
40
1.9939
210
0
220
0
230
1
0
CIRCLE
5
154
100
AcDbEntity
8
0
100
AcDbCircle
10
46.241573760000001
20
-56.105244660000004
30
-5.1545712143052924e-09
40
0.85089999999999999
210
0
220
0
230
1
0
CIRCLE
5
155
100
AcDbEntity
8
0
100
AcDbCircle
10
41.086529460000001
20
-62.394472620000002
30
-5.1545712143052924e-09
40
0.49530000000000007
210
0
220
0
230
1
0
CIRCLE
5
156
100
AcDbEntity
8
0
100
AcDbCircle
10
27.607861979999999
20
-60.065963179999997
30
-5.1545712143052924e-09
40
0.85089999999999999
210
0
220
0
230
1
0
CIRCLE
5
157
100
AcDbEntity
8
0
100
AcDbCircle
10
36.30359516
20
-58.217625499999997
30
-5.1545712143052924e-09
40
0.85089999999999999
210
0
220
0
230
1
0
CIRCLE
5
158
100
AcDbEntity
8
0
100
AcDbCircle
10
24.937311060000003
20
-65.82709466
30
-5.1545712143052924e-09
40
0.49530000000000007
210
0
220
0
230
1
0
CIRCLE
5
159
100
AcDbEntity
8
0
100
AcDbCircle
10
22.638872679999999
20
-61.122153600000004
30
-5.1545712143052924e-09
40
1.9939
210
0
220
0
230
1
0
CIRCLE
5
160
100
AcDbEntity
8
0
100
AcDbCircle
10
-21.358854919999999
20
-61.122153600000004
30
-5.1545712143052924e-09
40
1.9939
210
0
220
0
230
1
0
CIRCLE
5
161
100
AcDbEntity
8
0
100
AcDbCircle
10
-16.389865619999998
20
-62.178344020000004
30
-5.1545712143052924e-09
40
0.85089999999999999
210
0
220
0
230
1
0
CIRCLE
5
162
100
AcDbEntity
8
0
100
AcDbCircle
10
17.669883380000002
20
-62.178344020000004
30
-5.1545712143052924e-09
40
0.85089999999999999
210
0
220
0
230
1
0
CIRCLE
5
163
100
AcDbEntity
8
0
100
AcDbCircle
10
18.38403486
20
-59.429802400000007
30
-5.1545712143052924e-09
40
0.74929999999999997
210
0
220
0
230
1
0
CIRCLE
5
164
100
AcDbEntity
8
0
100
AcDbCircle
10
-17.818168579999998
20
-56.681258240000005
30
-5.1545712143052924e-09
40
0.74929999999999997
210
0
220
0
230
1
0
CIRCLE
5
165
100
AcDbEntity
8
0
100
AcDbCircle
10
-24.557502320000001
20
-57.845515499999998
30
-5.1545712143052924e-09
40
0.74929999999999997
210
0
220
0
230
1
0
CIRCLE
5
166
100
AcDbEntity
8
0
100
AcDbCircle
10
-26.327844220000003
20
-60.065963179999997
30
-5.1545712143052924e-09
40
0.85089999999999999
210
0
220
0
230
1
0
CIRCLE
5
167
100
AcDbEntity
8
0
100
AcDbCircle
10
153.53000789999999
20
-68.290000579999997
30
-5.1545712143052924e-09
40
0.85089999999999999
210
0
220
0
230
1
0
CIRCLE
5
168
100
AcDbEntity
8
0
100
AcDbCircle
10
150.99000789999999
20
-63.210000579999999
30
-5.1545712143052924e-09
40
0.74929999999999997
210
0
220
0
230
1
0
CIRCLE
5
169
100
AcDbEntity
8
0
100
AcDbCircle
10
133.84500790000001
20
-68.290000579999997
30
-5.1545712143052924e-09
40
0.85089999999999999
210
0
220
0
230
1
0
CIRCLE
5
170
100
AcDbEntity
8
0
100
AcDbCircle
10
135.11500789999999
20
-65.750000580000005
30
-5.1545712143052924e-09
40
0.74929999999999997
210
0
220
0
230
1
0
CIRCLE
5
171
100
AcDbEntity
8
0
100
AcDbCircle
10
138.9250079
20
-68.290000579999997
30
-5.1545712143052924e-09
40
1.9939
210
0
220
0
230
1
0
CIRCLE
5
172
100
AcDbEntity
8
0
100
AcDbCircle
10
144.6400079
20
-65.750000580000005
30
-5.1545712143052924e-09
40
0.74929999999999997
210
0
220
0
230
1
0
CIRCLE
5
173
100
AcDbEntity
8
0
100
AcDbCircle
10
136.51200789999999
20
-61.305000579999998
30
-5.1545712143052924e-09
40
1.524
210
0
220
0
230
1
0
CIRCLE
5
174
100
AcDbEntity
8
0
100
AcDbCircle
10
141.46500789999999
20
-63.210000579999999
30
-5.1545712143052924e-09
40
0.74929999999999997
210
0
220
0
230
1
0
CIRCLE
5
175
100
AcDbEntity
8
0
100
AcDbCircle
10
112.73000822
20
-68.290000579999997
30
-5.1545712143052924e-09
40
1.9939
210
0
220
0
230
1
0
CIRCLE
5
176
100
AcDbEntity
8
0
100
AcDbCircle
10
117.81000822000001
20
-68.290000579999997
30
-5.1545712143052924e-09
40
0.85089999999999999
210
0
220
0
230
1
0
CIRCLE
5
177
100
AcDbEntity
8
0
100
AcDbCircle
10
115.27000821999999
20
-63.210000579999999
30
-5.1545712143052924e-09
40
0.74929999999999997
210
0
220
0
230
1
0
CIRCLE
5
178
100
AcDbEntity
8
0
100
AcDbCircle
10
147.77000925999999
20
-54.320000579999999
30
-5.1545712143052924e-09
40
0.49530000000000007
210
0
220
0
230
1
0
CIRCLE
5
179
100
AcDbEntity
8
0
100
AcDbCircle
10
116.82000766000002
20
-54.320000579999999
30
-5.1545712143052924e-09
40
0.49530000000000007
210
0
220
0
230
1
0
CIRCLE
5
180
100
AcDbEntity
8
0
100
AcDbCircle
10
119.36000765999999
20
-54.320000579999999
30
-5.1545712143052924e-09
40
0.49530000000000007
210
0
220
0
230
1
0
CIRCLE
5
181
100
AcDbEntity
8
0
100
AcDbCircle
10
108.92000822
20
-65.750000580000005
30
-5.1545712143052924e-09
40
0.74929999999999997
210
0
220
0
230
1
0
CIRCLE
5
182
100
AcDbEntity
8
0
100
AcDbCircle
10
98.760008220000017
20
-68.290000579999997
30
-5.1545712143052924e-09
40
0.85089999999999999
210
0
220
0
230
1
0
CIRCLE
5
183
100
AcDbEntity
8
0
100
AcDbCircle
10
100.31000766
20
-54.320000579999999
30
-5.1545712143052924e-09
40
0.49530000000000007
210
0
220
0
230
1
0
CIRCLE
5
184
100
AcDbEntity
8
0
100
AcDbCircle
10
97.770007660000005
20
-54.320000579999999
30
-5.1545712143052924e-09
40
0.49530000000000007
210
0
220
0
230
1
0
CIRCLE
5
185
100
AcDbEntity
8
0
100
AcDbCircle
10
78.148997879999996
20
-68.793809580000001
30
-5.1545712143052924e-09
40
0.85089999999999999
210
0
220
0
230
1
0
CIRCLE
5
186
100
AcDbEntity
8
0
100
AcDbCircle
10
89.870008220000003
20
-65.750000580000005
30
-5.1545712143052924e-09
40
0.74929999999999997
210
0
220
0
230
1
0
CIRCLE
5
187
100
AcDbEntity
8
0
100
AcDbCircle
10
80.838446400000009
20
-53.94494164000001
30
-5.1545712143052924e-09
40
0.49530000000000007
210
0
220
0
230
1
0
CIRCLE
5
188
100
AcDbEntity
8
0
100
AcDbCircle
10
96.220008220000011
20
-63.210000579999999
30
-5.1545712143052924e-09
40
0.74929999999999997
210
0
220
0
230
1
0
CIRCLE
5
189
100
AcDbEntity
8
0
100
AcDbCircle
10
-111.42199204000001
20
-76.545000580000007
30
-5.1545712143052924e-09
40
1.9939
210
0
220
0
230
1
0
CIRCLE
5
190
100
AcDbEntity
8
0
100
AcDbCircle
10
-74.208429179999996
20
-74.554941060000004
30
-5.1545712143052924e-09
40
0.49530000000000007
210
0
220
0
230
1
0
CIRCLE
5
191
100
AcDbEntity
8
0
100
AcDbCircle
10
-92.409990440000001
20
-68.290000579999997
30
-5.1545712143052924e-09
40
1.9939
210
0
220
0
230
1
0
CIRCLE
5
192
100
AcDbEntity
8
0
100
AcDbCircle
10
-76.878980100000007
20
-68.793809580000001
30
-5.1545712143052924e-09
40
0.85089999999999999
210
0
220
0
230
1
0
CIRCLE
5
193
100
AcDbEntity
8
0
100
AcDbCircle
10
-93.679990439999997
20
-73.370000579999996
30
-5.1545712143052924e-09
40
0.49530000000000007
210
0
220
0
230
1
0
CIRCLE
5
194
100
AcDbEntity
8
0
100
AcDbCircle
10
-91.13999044000002
20
-73.370000579999996
30
-5.1545712143052924e-09
40
0.49530000000000007
210
0
220
0
230
1
0
CIRCLE
5
195
100
AcDbEntity
8
0
100
AcDbCircle
10
-97.489990440000014
20
-68.290000579999997
30
-5.1545712143052924e-09
40
0.85089999999999999
210
0
220
0
230
1
0
CIRCLE
5
196
100
AcDbEntity
8
0
100
AcDbCircle
10
-96.219990440000004
20
-65.750000580000005
30
-5.1545712143052924e-09
40
0.74929999999999997
210
0
220
0
230
1
0
CIRCLE
5
197
100
AcDbEntity
8
0
100
AcDbCircle
10
-37.841214640000004
20
-74.494796399999998
30
-5.1545712143052924e-09
40
0.74929999999999997
210
0
220
0
230
1
0
CIRCLE
5
198
100
AcDbEntity
8
0
100
AcDbCircle
10
-53.276279019999997
20
-73.810718519999995
30
-5.1545712143052924e-09
40
1.9939
210
0
220
0
230
1
0
CIRCLE
5
199
100
AcDbEntity
8
0
100
AcDbCircle
10
-48.30728972
20
-74.866908940000002
30
-5.1545712143052924e-09
40
0.85089999999999999
210
0
220
0
230
1
0
CIRCLE
5
200
100
AcDbEntity
8
0
100
AcDbCircle
10
-49.735592680000011
20
-69.369823159999996
30
-5.1545712143052924e-09
40
0.74929999999999997
210
0
220
0
230
1
0
CIRCLE
5
201
100
AcDbEntity
8
0
100
AcDbCircle
10
-71.909990800000003
20
-69.849999999999994
30
-5.1545712143052924e-09
40
1.9939
210
0
220
0
230
1
0
CIRCLE
5
202
100
AcDbEntity
8
0
100
AcDbCircle
10
-58.245268320000001
20
-72.754528100000016
30
-5.1545712143052924e-09
40
0.85089999999999999
210
0
220
0
230
1
0
CIRCLE
5
203
100
AcDbEntity
8
0
100
AcDbCircle
10
-71.723935800000021
20
-75.083037540000007
30
-5.1545712143052924e-09
40
0.49530000000000007
210
0
220
0
230
1
0
CIRCLE
5
204
100
AcDbEntity
8
0
100
AcDbCircle
10
-56.474926420000003
20
-70.534080419999995
30
-5.1545712143052924e-09
40
0.74929999999999997
210
0
220
0
230
1
0
CIRCLE
5
205
100
AcDbEntity
8
0
100
AcDbCircle
10
-39.611556540000009
20
-76.715244080000005
30
-5.1545712143052924e-09
40
0.85089999999999999
210
0
220
0
230
1
0
CIRCLE
5
206
100
AcDbEntity
8
0
100
AcDbCircle
10
-55.574717400000004
20
-78.515659580000005
30
-5.1545712143052924e-09
40
0.49530000000000007
210
0
220
0
230
1
0
CIRCLE
5
207
100
AcDbEntity
8
0
100
AcDbCircle
10
-36.941005619999999
20
-82.476375559999994
30
-5.1545712143052924e-09
40
0.49530000000000007
210
0
220
0
230
1
0
CIRCLE
5
208
100
AcDbEntity
8
0
100
AcDbCircle
10
-34.456512240000009
20
-83.004472039999996
30
-5.1545712143052924e-09
40
0.49530000000000007
210
0
220
0
230
1
0
CIRCLE
5
209
100
AcDbEntity
8
0
100
AcDbCircle
10
-34.642567240000005
20
-77.771434499999998
30
-5.1545712143052924e-09
40
1.9939
210
0
220
0
230
1
0
CIRCLE
5
210
100
AcDbEntity
8
0
100
AcDbCircle
10
-53.090224020000001
20
-79.043756060000007
30
-5.1545712143052924e-09
40
0.49530000000000007
210
0
220
0
230
1
0
CIRCLE
5
211
100
AcDbEntity
8
0
100
AcDbCircle
10
-68.369304459999995
20
-65.409104639999995
30
-5.1545712143052924e-09
40
0.74929999999999997
210
0
220
0
230
1
0
CIRCLE
5
212
100
AcDbEntity
8
0
100
AcDbCircle
10
49.577307500000003
20
-74.866908940000002
30
-5.1545712143052924e-09
40
0.85089999999999999
210
0
220
0
230
1
0
CIRCLE
5
213
100
AcDbEntity
8
0
100
AcDbCircle
10
50.291458980000002
20
-72.118367320000004
30
-5.1545712143052924e-09
40
0.74929999999999997
210
0
220
0
230
1
0
CIRCLE
5
214
100
AcDbEntity
8
0
100
AcDbCircle
10
37.340887980000005
20
-72.274348720000006
30
-5.1545712143052924e-09
40
0.74929999999999997
210
0
220
0
230
1
0
CIRCLE
5
215
100
AcDbEntity
8
0
100
AcDbCircle
10
-31.101880900000005
20
-73.330539140000013
30
-5.1545712143052924e-09
40
0.74929999999999997
210
0
220
0
230
1
0
CIRCLE
5
216
100
AcDbEntity
8
0
100
AcDbCircle
10
35.912585020000009
20
-77.771434499999998
30
-5.1545712143052924e-09
40
1.9939
210
0
220
0
230
1
0
CIRCLE
5
217
100
AcDbEntity
8
0
100
AcDbCircle
10
31.657747199999999
20
-76.079083299999994
30
-5.1545712143052924e-09
40
0.74929999999999997
210
0
220
0
230
1
0
CIRCLE
5
218
100
AcDbEntity
8
0
100
AcDbCircle
10
30.943595720000001
20
-78.827624920000005
30
-5.1545712143052924e-09
40
0.85089999999999999
210
0
220
0
230
1
0
CIRCLE
5
219
100
AcDbEntity
8
0
100
AcDbCircle
10
38.211023400000002
20
-82.476375559999994
30
-5.1545712143052924e-09
40
0.49530000000000007
210
0
220
0
230
1
0
CIRCLE
5
220
100
AcDbEntity
8
0
100
AcDbCircle
10
17.278873240000003
20
-81.732153020000013
30
-5.1545712143052924e-09
40
1.9939
210
0
220
0
230
1
0
CIRCLE
5
221
100
AcDbEntity
8
0
100
AcDbCircle
10
22.24786254
20
-80.675962600000005
30
-5.1545712143052924e-09
40
0.85089999999999999
210
0
220
0
230
1
0
CIRCLE
5
222
100
AcDbEntity
8
0
100
AcDbCircle
10
18.707176199999999
20
-76.235067240000006
30
-5.1545712143052924e-09
40
0.74929999999999997
210
0
220
0
230
1
0
CIRCLE
5
223
100
AcDbEntity
8
0
100
AcDbCircle
10
-12.468169120000001
20
-77.291257659999999
30
-5.1545712143052924e-09
40
0.74929999999999997
210
0
220
0
230
1
0
CIRCLE
5
224
100
AcDbEntity
8
0
100
AcDbCircle
10
-11.039866160000001
20
-82.78834344000002
30
-5.1545712143052924e-09
40
0.85089999999999999
210
0
220
0
230
1
0
CIRCLE
5
225
100
AcDbEntity
8
0
100
AcDbCircle
10
40.881574319999999
20
-76.715244080000005
30
-5.1545712143052924e-09
40
0.85089999999999999
210
0
220
0
230
1
0
CIRCLE
5
226
100
AcDbEntity
8
0
100
AcDbCircle
10
-19.207502860000002
20
-78.455514919999999
30
-5.1545712143052924e-09
40
0.74929999999999997
210
0
220
0
230
1
0
CIRCLE
5
227
100
AcDbEntity
8
0
100
AcDbCircle
10
-20.977844760000004
20
-80.675962600000005
30
-5.1545712143052924e-09
40
0.85089999999999999
210
0
220
0
230
1
0
CIRCLE
5
228
100
AcDbEntity
8
0
100
AcDbCircle
10
-29.673577940000001
20
-78.827624920000005
30
-5.1545712143052924e-09
40
0.85089999999999999
210
0
220
0
230
1
0
CIRCLE
5
229
100
AcDbEntity
8
0
100
AcDbCircle
10
-21.172799919999999
20
-66.355191140000017
30
-5.1545712143052924e-09
40
0.49530000000000007
210
0
220
0
230
1
0
CIRCLE
5
230
100
AcDbEntity
8
0
100
AcDbCircle
10
-23.657293300000003
20
-65.82709466
30
-5.1545712143052924e-09
40
0.49530000000000007
210
0
220
0
230
1
0
CIRCLE
5
231
100
AcDbEntity
8
0
100
AcDbCircle
10
22.452817679999999
20
-66.355191140000017
30
-5.1545712143052924e-09
40
0.49530000000000007
210
0
220
0
230
1
0
CIRCLE
5
232
100
AcDbEntity
8
0
100
AcDbCircle
10
147.18000789999999
20
-73.370000579999996
30
-5.1545712143052924e-09
40
0.49530000000000007
210
0
220
0
230
1
0
CIRCLE
5
233
100
AcDbEntity
8
0
100
AcDbCircle
10
137.65500789999999
20
-73.370000579999996
30
-5.1545712143052924e-09
40
0.49530000000000007
210
0
220
0
230
1
0
CIRCLE
5
234
100
AcDbEntity
8
0
100
AcDbCircle
10
140.19500790000001
20
-73.370000579999996
30
-5.1545712143052924e-09
40
0.49530000000000007
210
0
220
0
230
1
0
CIRCLE
5
235
100
AcDbEntity
8
0
100
AcDbCircle
10
114.00000822000001
20
-73.370000579999996
30
-5.1545712143052924e-09
40
0.49530000000000007
210
0
220
0
230
1
0
CIRCLE
5
236
100
AcDbEntity
8
0
100
AcDbCircle
10
59.515286100000004
20
-72.754528100000016
30
-5.1545712143052924e-09
40
0.85089999999999999
210
0
220
0
230
1
0
CIRCLE
5
237
100
AcDbEntity
8
0
100
AcDbCircle
10
94.950008220000001
20
-73.370000579999996
30
-5.1545712143052924e-09
40
0.49530000000000007
210
0
220
0
230
1
0
CIRCLE
5
238
100
AcDbEntity
8
0
100
AcDbCircle
10
92.410008220000009
20
-73.370000579999996
30
-5.1545712143052924e-09
40
0.49530000000000007
210
0
220
0
230
1
0
CIRCLE
5
239
100
AcDbEntity
8
0
100
AcDbCircle
10
88.600008220000021
20
-68.290000579999997
30
-5.1545712143052924e-09
40
0.85089999999999999
210
0
220
0
230
1
0
CIRCLE
5
240
100
AcDbEntity
8
0
100
AcDbCircle
10
93.680008220000005
20
-68.290000579999997
30
-5.1545712143052924e-09
40
1.9939
210
0
220
0
230
1
0
CIRCLE
5
241
100
AcDbEntity
8
0
100
AcDbCircle
10
107.65000822000002
20
-68.290000579999997
30
-5.1545712143052924e-09
40
0.85089999999999999
210
0
220
0
230
1
0
CIRCLE
5
242
100
AcDbEntity
8
0
100
AcDbCircle
10
68.211019280000016
20
-70.906190420000001
30
-5.1545712143052924e-09
40
0.85089999999999999
210
0
220
0
230
1
0
CIRCLE
5
243
100
AcDbEntity
8
0
100
AcDbCircle
10
68.925170760000015
20
-68.157648800000004
30
-5.1545712143052924e-09
40
0.74929999999999997
210
0
220
0
230
1
0
CIRCLE
5
244
100
AcDbEntity
8
0
100
AcDbCircle
10
148.4500079
20
-68.290000579999997
30
-5.1545712143052924e-09
40
1.9939
210
0
220
0
230
1
0
CIRCLE
5
245
100
AcDbEntity
8
0
100
AcDbCircle
10
54.360241800000004
20
-79.043756060000007
30
-5.1545712143052924e-09
40
0.49530000000000007
210
0
220
0
230
1
0
CIRCLE
5
246
100
AcDbEntity
8
0
100
AcDbCircle
10
56.844735180000008
20
-78.515659580000005
30
-5.1545712143052924e-09
40
0.49530000000000007
210
0
220
0
230
1
0
CIRCLE
5
247
100
AcDbEntity
8
0
100
AcDbCircle
10
54.5462968
20
-73.810718519999995
30
-5.1545712143052924e-09
40
1.9939
210
0
220
0
230
1
0
CIRCLE
5
248
100
AcDbEntity
8
0
100
AcDbCircle
10
72.993953579999996
20
-75.083037540000007
30
-5.1545712143052924e-09
40
0.49530000000000007
210
0
220
0
230
1
0
CIRCLE
5
249
100
AcDbEntity
8
0
100
AcDbCircle
10
75.478446959999999
20
-74.554941060000004
30
-5.1545712143052924e-09
40
0.49530000000000007
210
0
220
0
230
1
0
CIRCLE
5
250
100
AcDbEntity
8
0
100
AcDbCircle
10
136.51200789999999
20
-76.545000580000007
30
-5.1545712143052924e-09
40
1.9939
210
0
220
0
230
1
0
CIRCLE
5
251
100
AcDbEntity
8
0
100
AcDbCircle
10
111.46000822000002
20
-73.370000579999996
30
-5.1545712143052924e-09
40
0.49530000000000007
210
0
220
0
230
1
0
CIRCLE
5
252
100
AcDbEntity
8
0
100
AcDbCircle
10
55.974599759999997
20
-68.313632740000003
30
-5.1545712143052924e-09
40
0.74929999999999997
210
0
220
0
230
1
0
CIRCLE
5
253
100
AcDbEntity
8
0
100
AcDbCircle
10
-124.62999204
20
-73.370000579999996
30
-5.1545712143052924e-09
40
0.49530000000000007
210
0
220
0
230
1
0
CIRCLE
5
254
100
AcDbEntity
8
0
100
AcDbCircle
10
-122.08999204000001
20
-73.370000579999996
30
-5.1545712143052924e-09
40
0.49530000000000007
210
0
220
0
230
1
0
CIRCLE
5
255
100
AcDbEntity
8
0
100
AcDbCircle
10
-123.35999204000001
20
-68.290000579999997
30
-5.1545712143052924e-09
40
1.9939
210
0
220
0
230
1
0
CIRCLE
5
256
100
AcDbEntity
8
0
100
AcDbCircle
10
-118.27999204000001
20
-68.290000579999997
30
-5.1545712143052924e-09
40
0.85089999999999999
210
0
220
0
230
1
0
CIRCLE
5
257
100
AcDbEntity
8
0
100
AcDbCircle
10
-127.95999046
20
-82.260000579999996
30
-5.1545712143052924e-09
40
0.74929999999999997
210
0
220
0
230
1
0
CIRCLE
5
258
100
AcDbEntity
8
0
100
AcDbCircle
10
-135.29799204
20
-76.545000580000007
30
-5.1545712143052924e-09
40
1.9939
210
0
220
0
230
1
0
CIRCLE
5
259
100
AcDbEntity
8
0
100
AcDbCircle
10
149.72000790000004
20
-73.370000579999996
30
-5.1545712143052924e-09
40
0.49530000000000007
210
0
220
0
230
1
0
CIRCLE
5
260
100
AcDbEntity
8
0
100
AcDbCircle
10
-8.7788572200000008
20
-24.842152500000001
30
-5.1545712143052924e-09
40
1.9939
210
0
220
0
230
1
0
CIRCLE
5
261
100
AcDbEntity
8
0
100
AcDbCircle
10
-74.419305059999999
20
-25.169103839999998
30
-5.1545712143052924e-09
40
0.74929999999999997
210
0
220
0
230
1
0
CIRCLE
5
262
100
AcDbEntity
8
0
100
AcDbCircle
10
-8.5928022199999994
20
-30.075190040000003
30
-5.1545712143052924e-09
40
0.49530000000000007
210
0
220
0
230
1
0
CIRCLE
5
263
100
AcDbEntity
8
0
100
AcDbCircle
10
-27.027845360000001
20
-40.435961800000008
30
-5.1545712143052924e-09
40
0.85089999999999999
210
0
220
0
230
1
0
CIRCLE
5
264
100
AcDbEntity
8
0
100
AcDbCircle
10
-45.661557139999999
20
-36.475245819999998
30
-5.1545712143052924e-09
40
0.85089999999999999
210
0
220
0
230
1
0
CIRCLE
5
265
100
AcDbEntity
8
0
100
AcDbCircle
10
-37.151881500000002
20
-33.090540879999999
30
-5.1545712143052924e-09
40
0.74929999999999997
210
0
220
0
230
1
0
CIRCLE
5
266
100
AcDbEntity
8
0
100
AcDbCircle
10
-59.326279620000008
20
-33.570717719999998
30
-5.1545712143052924e-09
40
1.9939
210
0
220
0
230
1
0
CIRCLE
5
267
100
AcDbEntity
8
0
100
AcDbCircle
10
-54.357290320000004
20
-34.626908139999998
30
-5.1545712143052924e-09
40
0.85089999999999999
210
0
220
0
230
1
0
CIRCLE
5
268
100
AcDbEntity
8
0
100
AcDbCircle
10
-61.624718000000001
20
-38.275658780000001
30
-5.1545712143052924e-09
40
0.49530000000000007
210
0
220
0
230
1
0
CIRCLE
5
269
100
AcDbEntity
8
0
100
AcDbCircle
10
-59.140224619999998
20
-38.803755260000003
30
-5.1545712143052924e-09
40
0.49530000000000007
210
0
220
0
230
1
0
CIRCLE
5
270
100
AcDbEntity
8
0
100
AcDbCircle
10
-77.259990259999995
20
-49.240000580000007
30
-5.1545712143052924e-09
40
1.9939
210
0
220
0
230
1
0
CIRCLE
5
271
100
AcDbEntity
8
0
100
AcDbCircle
10
-72.291000960000005
20
-50.296191000000007
30
-5.1545712143052924e-09
40
0.85089999999999999
210
0
220
0
230
1
0
CIRCLE
5
272
100
AcDbEntity
8
0
100
AcDbCircle
10
-61.824925880000009
20
-49.924078459999997
30
-5.1545712143052924e-09
40
0.74929999999999997
210
0
220
0
230
1
0
CIRCLE
5
273
100
AcDbEntity
8
0
100
AcDbCircle
10
-73.719303920000002
20
-44.799105220000001
30
-5.1545712143052924e-09
40
0.74929999999999997
210
0
220
0
230
1
0
CIRCLE
5
274
100
AcDbEntity
8
0
100
AcDbCircle
10
-42.991006220000003
20
-42.236377300000001
30
-5.1545712143052924e-09
40
0.49530000000000007
210
0
220
0
230
1
0
CIRCLE
5
275
100
AcDbEntity
8
0
100
AcDbCircle
10
-55.08559214000001
20
-48.759821199999998
30
-5.1545712143052924e-09
40
0.74929999999999997
210
0
220
0
230
1
0
CIRCLE
5
276
100
AcDbEntity
8
0
100
AcDbCircle
10
-21.87280106
20
-46.725189759999999
30
-5.1545712143052924e-09
40
0.49530000000000007
210
0
220
0
230
1
0
CIRCLE
5
277
100
AcDbEntity
8
0
100
AcDbCircle
10
-149.03999148
20
-47.099999779999997
30
-5.1545712143052924e-09
40
0.85089999999999999
210
0
220
0
230
1
0
CIRCLE
5
278
100
AcDbEntity
8
0
100
AcDbCircle
10
-123.53999168000001
20
-35.270000580000001
30
-5.1545712143052924e-09
40
0.49530000000000007
210
0
220
0
230
1
0
CIRCLE
5
279
100
AcDbEntity
8
0
100
AcDbCircle
10
-126.17999148000001
20
-44.160000580000009
30
-5.1545712143052924e-09
40
0.74929999999999997
210
0
220
0
230
1
0
CIRCLE
5
280
100
AcDbEntity
8
0
100
AcDbCircle
10
-132.52999148000001
20
-46.700000580000001
30
-5.1545712143052924e-09
40
0.74929999999999997
210
0
220
0
230
1
0
CIRCLE
5
281
100
AcDbEntity
8
0
100
AcDbCircle
10
-133.79999147999999
20
-49.240000580000007
30
-5.1545712143052924e-09
40
0.85089999999999999
210
0
220
0
230
1
0
CIRCLE
5
282
100
AcDbEntity
8
0
100
AcDbCircle
10
-95.219992439999999
20
-44.160000580000009
30
-5.1545712143052924e-09
40
0.74929999999999997
210
0
220
0
230
1
0
CIRCLE
5
283
100
AcDbEntity
8
0
100
AcDbCircle
10
-97.189991039999995
20
-35.270000580000001
30
-5.1545712143052924e-09
40
0.49530000000000007
210
0
220
0
230
1
0
CIRCLE
5
284
100
AcDbEntity
8
0
100
AcDbCircle
10
-120.99999167999999
20
-35.270000580000001
30
-5.1545712143052924e-09
40
0.49530000000000007
210
0
220
0
230
1
0
CIRCLE
5
285
100
AcDbEntity
8
0
100
AcDbCircle
10
-121.41767182000001
20
-44.160000580000009
30
-5.1545712143052924e-09
40
0.74929999999999997
210
0
220
0
230
1
0
CIRCLE
5
286
100
AcDbEntity
8
0
100
AcDbCircle
10
-101.56999243999999
20
-46.700000580000001
30
-5.1545712143052924e-09
40
0.74929999999999997
210
0
220
0
230
1
0
CIRCLE
5
287
100
AcDbEntity
8
0
100
AcDbCircle
10
-102.83999244
20
-49.240000580000007
30
-5.1545712143052924e-09
40
0.85089999999999999
210
0
220
0
230
1
0
CIRCLE
5
288
100
AcDbEntity
8
0
100
AcDbCircle
10
-97.759992440000019
20
-49.240000580000007
30
-5.1545712143052924e-09
40
1.9939
210
0
220
0
230
1
0
CIRCLE
5
289
100
AcDbEntity
8
0
100
AcDbCircle
10
-118.87767182000002
20
-49.240000580000007
30
-5.1545712143052924e-09
40
0.85089999999999999
210
0
220
0
230
1
0
CIRCLE
5
290
100
AcDbEntity
8
0
100
AcDbCircle
10
-147.50999200000001
20
-22.969999780000002
30
-5.1545712143052924e-09
40
0.74929999999999997
210
0
220
0
230
1
0
CIRCLE
5
291
100
AcDbEntity
8
0
100
AcDbCircle
10
-92.679992440000007
20
-49.240000580000007
30
-5.1545712143052924e-09
40
0.85089999999999999
210
0
220
0
230
1
0
CIRCLE
5
292
100
AcDbEntity
8
0
100
AcDbCircle
10
-82.228979559999999
20
-48.18381016
30
-5.1545712143052924e-09
40
0.85089999999999999
210
0
220
0
230
1
0
CIRCLE
5
293
100
AcDbEntity
8
0
100
AcDbCircle
10
-80.458637659999994
20
-45.963362480000001
30
-5.1545712143052924e-09
40
0.74929999999999997
210
0
220
0
230
1
0
CIRCLE
5
294
100
AcDbEntity
8
0
100
AcDbCircle
10
9.0498828400000004
20
-44.528343759999998
30
-5.1545712143052924e-09
40
0.85089999999999999
210
0
220
0
230
1
0
CIRCLE
5
295
100
AcDbEntity
8
0
100
AcDbCircle
10
-53.657289180000006
20
-54.256906980000004
30
-5.1545712143052924e-09
40
0.85089999999999999
210
0
220
0
230
1
0
CIRCLE
5
296
100
AcDbEntity
8
0
100
AcDbCircle
10
-79.558428640000017
20
-53.94494164000001
30
-5.1545712143052924e-09
40
0.49530000000000007
210
0
220
0
230
1
0
CIRCLE
5
297
100
AcDbEntity
8
0
100
AcDbCircle
10
-99.029992440000001
20
-54.320000579999999
30
-5.1545712143052924e-09
40
0.49530000000000007
210
0
220
0
230
1
0
CIRCLE
5
298
100
AcDbEntity
8
0
100
AcDbCircle
10
113.01000766000001
20
-49.240000580000007
30
-5.1545712143052924e-09
40
0.85089999999999999
210
0
220
0
230
1
0
CIRCLE
5
299
100
AcDbEntity
8
0
100
AcDbCircle
10
114.28000766
20
-46.700000580000001
30
-5.1545712143052924e-09
40
0.74929999999999997
210
0
220
0
230
1
0
CIRCLE
5
300
100
AcDbEntity
8
0
100
AcDbCircle
10
110.32000796
20
-35.270000580000001
30
-5.1545712143052924e-09
40
0.49530000000000007
210
0
220
0
230
1
0
CIRCLE
5
301
100
AcDbEntity
8
0
100
AcDbCircle
10
104.12000766
20
-49.240000580000007
30
-5.1545712143052924e-09
40
0.85089999999999999
210
0
220
0
230
1
0
CIRCLE
5
302
100
AcDbEntity
8
0
100
AcDbCircle
10
107.78000796000001
20
-35.270000580000001
30
-5.1545712143052924e-09
40
0.49530000000000007
210
0
220
0
230
1
0
CIRCLE
5
303
100
AcDbEntity
8
0
100
AcDbCircle
10
91.690009660000001
20
-34.21000016
30
-5.1545712143052924e-09
40
0.49530000000000007
210
0
220
0
230
1
0
CIRCLE
5
304
100
AcDbEntity
8
0
100
AcDbCircle
10
101.58000766000001
20
-44.160000580000009
30
-5.1545712143052924e-09
40
0.74929999999999997
210
0
220
0
230
1
0
CIRCLE
5
305
100
AcDbEntity
8
0
100
AcDbCircle
10
95.230007660000012
20
-46.700000580000001
30
-5.1545712143052924e-09
40
0.74929999999999997
210
0
220
0
230
1
0
CIRCLE
5
306
100
AcDbEntity
8
0
100
AcDbCircle
10
99.040007660000015
20
-49.240000580000007
30
-5.1545712143052924e-09
40
1.9939
210
0
220
0
230
1
0
CIRCLE
5
307
100
AcDbEntity
8
0
100
AcDbCircle
10
93.960007660000002
20
-49.240000580000007
30
-5.1545712143052924e-09
40
0.85089999999999999
210
0
220
0
230
1
0
CIRCLE
5
308
100
AcDbEntity
8
0
100
AcDbCircle
10
73.571018719999998
20
-50.296191000000007
30
-5.1545712143052924e-09
40
0.85089999999999999
210
0
220
0
230
1
0
CIRCLE
5
309
100
AcDbEntity
8
0
100
AcDbCircle
10
74.285170199999996
20
-47.547649380000003
30
-5.1545712143052924e-09
40
0.74929999999999997
210
0
220
0
230
1
0
CIRCLE
5
310
100
AcDbEntity
8
0
100
AcDbCircle
10
83.508997320000006
20
-48.18381016
30
-5.1545712143052924e-09
40
0.85089999999999999
210
0
220
0
230
1
0
CIRCLE
5
311
100
AcDbEntity
8
0
100
AcDbCircle
10
78.540008020000002
20
-49.240000580000007
30
-5.1545712143052924e-09
40
1.9939
210
0
220
0
230
1
0
CIRCLE
5
312
100
AcDbEntity
8
0
100
AcDbCircle
10
79.968310979999998
20
-43.742914800000001
30
-5.1545712143052924e-09
40
0.74929999999999997
210
0
220
0
230
1
0
CIRCLE
5
313
100
AcDbEntity
8
0
100
AcDbCircle
10
89.150009659999995
20
-34.21000016
30
-5.1545712143052924e-09
40
0.49530000000000007
210
0
220
0
230
1
0
CIRCLE
5
314
100
AcDbEntity
8
0
100
AcDbCircle
10
69.733952479999999
20
-36.823037859999999
30
-5.1545712143052924e-09
40
0.49530000000000007
210
0
220
0
230
1
0
CIRCLE
5
315
100
AcDbEntity
8
0
100
AcDbCircle
10
72.218445860000003
20
-36.294941379999997
30
-5.1545712143052924e-09
40
0.49530000000000007
210
0
220
0
230
1
0
CIRCLE
5
316
100
AcDbEntity
8
0
100
AcDbCircle
10
64.875285539999993
20
-52.144526140000011
30
-5.1545712143052924e-09
40
0.85089999999999999
210
0
220
0
230
1
0
CIRCLE
5
317
100
AcDbEntity
8
0
100
AcDbCircle
10
15.447175100000001
20
-37.975067559999999
30
-5.1545712143052924e-09
40
0.74929999999999997
210
0
220
0
230
1
0
CIRCLE
5
318
100
AcDbEntity
8
0
100
AcDbCircle
10
28.397746099999999
20
-37.819083620000001
30
-5.1545712143052924e-09
40
0.74929999999999997
210
0
220
0
230
1
0
CIRCLE
5
319
100
AcDbEntity
8
0
100
AcDbCircle
10
51.286295700000004
20
-35.550716299999998
30
-5.1545712143052924e-09
40
1.9939
210
0
220
0
230
1
0
CIRCLE
5
320
100
AcDbEntity
8
0
100
AcDbCircle
10
46.3173064
20
-36.606906719999998
30
-5.1545712143052924e-09
40
0.85089999999999999
210
0
220
0
230
1
0
CIRCLE
5
321
100
AcDbEntity
8
0
100
AcDbCircle
10
16.317310519999999
20
-48.177094400000009
30
-5.1545712143052924e-09
40
0.49530000000000007
210
0
220
0
230
1
0
CIRCLE
5
322
100
AcDbEntity
8
0
100
AcDbCircle
10
18.98786144
20
-42.415962919999998
30
-5.1545712143052924e-09
40
0.85089999999999999
210
0
220
0
230
1
0
CIRCLE
5
323
100
AcDbEntity
8
0
100
AcDbCircle
10
27.683594620000001
20
-40.567625239999998
30
-5.1545712143052924e-09
40
0.85089999999999999
210
0
220
0
230
1
0
CIRCLE
5
324
100
AcDbEntity
8
0
100
AcDbCircle
10
32.466528920000002
20
-44.744472360000003
30
-5.1545712143052924e-09
40
0.49530000000000007
210
0
220
0
230
1
0
CIRCLE
5
325
100
AcDbEntity
8
0
100
AcDbCircle
10
53.584734080000004
20
-40.255657360000001
30
-5.1545712143052924e-09
40
0.49530000000000007
210
0
220
0
230
1
0
CIRCLE
5
326
100
AcDbEntity
8
0
100
AcDbCircle
10
61.3345992
20
-47.703630779999997
30
-5.1545712143052924e-09
40
0.74929999999999997
210
0
220
0
230
1
0
CIRCLE
5
327
100
AcDbEntity
8
0
100
AcDbCircle
10
56.255285000000008
20
-34.494525879999998
30
-5.1545712143052924e-09
40
0.85089999999999999
210
0
220
0
230
1
0
CIRCLE
5
328
100
AcDbEntity
8
0
100
AcDbCircle
10
55.651458419999997
20
-51.508365359999999
30
-5.1545712143052924e-09
40
0.74929999999999997
210
0
220
0
230
1
0
CIRCLE
5
329
100
AcDbEntity
8
0
100
AcDbCircle
10
59.906296240000003
20
-53.200716559999996
30
-5.1545712143052924e-09
40
1.9939
210
0
220
0
230
1
0
CIRCLE
5
330
100
AcDbEntity
8
0
100
AcDbCircle
10
21.677312499999999
20
-27.56709498
30
-5.1545712143052924e-09
40
0.49530000000000007
210
0
220
0
230
1
0
CIRCLE
5
331
100
AcDbEntity
8
0
100
AcDbCircle
10
90.420009660000019
20
-29.130000160000002
30
-5.1545712143052924e-09
40
1.9939
210
0
220
0
230
1
0
CIRCLE
5
332
100
AcDbEntity
8
0
100
AcDbCircle
10
85.340009660000007
20
-29.130000160000002
30
-5.1545712143052924e-09
40
0.85089999999999999
210
0
220
0
230
1
0
CIRCLE
5
333
100
AcDbEntity
8
0
100
AcDbCircle
10
78.353953020000006
20
-54.473038120000005
30
-5.1545712143052924e-09
40
0.49530000000000007
210
0
220
0
230
1
0
CIRCLE
5
334
100
AcDbEntity
8
0
100
AcDbCircle
10
-36.451880359999997
20
-52.720539720000005
30
-5.1545712143052924e-09
40
0.74929999999999997
210
0
220
0
230
1
0
CIRCLE
5
335
100
AcDbEntity
8
0
100
AcDbCircle
10
-24.35729444
20
-46.197093279999997
30
-5.1545712143052924e-09
40
0.49530000000000007
210
0
220
0
230
1
0
CIRCLE
5
336
100
AcDbEntity
8
0
100
AcDbCircle
10
-25.257503460000002
20
-38.215514120000002
30
-5.1545712143052924e-09
40
0.74929999999999997
210
0
220
0
230
1
0
CIRCLE
5
337
100
AcDbEntity
8
0
100
AcDbCircle
10
-35.723578539999998
20
-38.587626659999998
30
-5.1545712143052924e-09
40
0.85089999999999999
210
0
220
0
230
1
0
CIRCLE
5
338
100
AcDbEntity
8
0
100
AcDbCircle
10
-18.51816972
20
-37.051256860000009
30
-5.1545712143052924e-09
40
0.74929999999999997
210
0
220
0
230
1
0
CIRCLE
5
339
100
AcDbEntity
8
0
100
AcDbCircle
10
-17.08986676
20
-42.548342640000001
30
-5.1545712143052924e-09
40
0.85089999999999999
210
0
220
0
230
1
0
CIRCLE
5
340
100
AcDbEntity
8
0
100
AcDbCircle
10
9.7640343200000004
20
-41.779802140000008
30
-5.1545712143052924e-09
40
0.74929999999999997
210
0
220
0
230
1
0
CIRCLE
5
341
100
AcDbEntity
8
0
100
AcDbCircle
10
13.83281714
20
-48.705190880000011
30
-5.1545712143052924e-09
40
0.49530000000000007
210
0
220
0
230
1
0
CIRCLE
5
342
100
AcDbEntity
8
0
100
AcDbCircle
10
14.018872140000001
20
-43.472153340000006
30
-5.1545712143052924e-09
40
1.9939
210
0
220
0
230
1
0
CIRCLE
5
343
100
AcDbEntity
8
0
100
AcDbCircle
10
54.937306939999999
20
-54.256906980000004
30
-5.1545712143052924e-09
40
0.85089999999999999
210
0
220
0
230
1
0
CIRCLE
5
344
100
AcDbEntity
8
0
100
AcDbCircle
10
34.951022299999998
20
-44.216375880000001
30
-5.1545712143052924e-09
40
0.49530000000000007
210
0
220
0
230
1
0
CIRCLE
5
345
100
AcDbEntity
8
0
100
AcDbCircle
10
151.92000858
20
-30.19000058
30
-5.1545712143052924e-09
40
1.9939
210
0
220
0
230
1
0
CIRCLE
5
346
100
AcDbEntity
8
0
100
AcDbCircle
10
133.18000796000001
20
-30.19000058
30
-5.1545712143052924e-09
40
0.85089999999999999
210
0
220
0
230
1
0
CIRCLE
5
347
100
AcDbEntity
8
0
100
AcDbCircle
10
150.65000857999999
20
-35.270000580000001
30
-5.1545712143052924e-09
40
0.49530000000000007
210
0
220
0
230
1
0
CIRCLE
5
348
100
AcDbEntity
8
0
100
AcDbCircle
10
126.83000796000002
20
-35.270000580000001
30
-5.1545712143052924e-09
40
0.49530000000000007
210
0
220
0
230
1
0
CIRCLE
5
349
100
AcDbEntity
8
0
100
AcDbCircle
10
143.96000925999999
20
-49.240000580000007
30
-5.1545712143052924e-09
40
0.85089999999999999
210
0
220
0
230
1
0
CIRCLE
5
350
100
AcDbEntity
8
0
100
AcDbCircle
10
145.23000926000003
20
-46.700000580000001
30
-5.1545712143052924e-09
40
0.74929999999999997
210
0
220
0
230
1
0
CIRCLE
5
351
100
AcDbEntity
8
0
100
AcDbCircle
10
149.04000926000003
20
-49.240000580000007
30
-5.1545712143052924e-09
40
1.9939
210
0
220
0
230
1
0
CIRCLE
5
352
100
AcDbEntity
8
0
100
AcDbCircle
10
154.12000925999999
20
-49.240000580000007
30
-5.1545712143052924e-09
40
0.85089999999999999
210
0
220
0
230
1
0
CIRCLE
5
353
100
AcDbEntity
8
0
100
AcDbCircle
10
137.10200925999999
20
-40.985000579999998
30
-5.1545712143052924e-09
40
1.9939
210
0
220
0
230
1
0
CIRCLE
5
354
100
AcDbEntity
8
0
100
AcDbCircle
10
118.09000766
20
-49.240000580000007
30
-5.1545712143052924e-09
40
1.9939
210
0
220
0
230
1
0
CIRCLE
5
355
100
AcDbEntity
8
0
100
AcDbCircle
10
123.17000766
20
-49.240000580000007
30
-5.1545712143052924e-09
40
0.85089999999999999
210
0
220
0
230
1
0
CIRCLE
5
356
100
AcDbEntity
8
0
100
AcDbCircle
10
120.63000766000002
20
-44.160000580000009
30
-5.1545712143052924e-09
40
0.74929999999999997
210
0
220
0
230
1
0
CIRCLE
5
357
100
AcDbEntity
8
0
100
AcDbCircle
10
150.31000925999999
20
-54.320000579999999
30
-5.1545712143052924e-09
40
0.49530000000000007
210
0
220
0
230
1
0
CIRCLE
5
358
100
AcDbEntity
8
0
100
AcDbCircle
10
137.10200925999999
20
-56.22500058
30
-5.1545712143052924e-09
40
1.524
210
0
220
0
230
1
0
CIRCLE
5
359
100
AcDbEntity
8
0
100
AcDbCircle
10
-35.023577400000001
20
-58.217625499999997
30
-5.1545712143052924e-09
40
0.85089999999999999
210
0
220
0
230
1
0
CIRCLE
5
360
100
AcDbEntity
8
0
100
AcDbCircle
10
37.017746639999999
20
-55.469083879999999
30
-5.1545712143052924e-09
40
0.74929999999999997
210
0
220
0
230
1
0
CIRCLE
5
361
100
AcDbEntity
8
0
100
AcDbCircle
10
24.067175640000002
20
-55.625067819999998
30
-5.1545712143052924e-09
40
0.74929999999999997
210
0
220
0
230
1
0
CIRCLE
5
362
100
AcDbEntity
8
0
100
AcDbCircle
10
-151.31999200000001
20
-33.129999779999999
30
-5.1545712143052924e-09
40
0.49530000000000007
210
0
220
0
230
1
0
CIRCLE
5
363
100
AcDbEntity
8
0
100
AcDbCircle
10
-151.57999147999999
20
-42.019999779999999
30
-5.1545712143052924e-09
40
0.74929999999999997
210
0
220
0
230
1
0
CIRCLE
5
364
100
AcDbEntity
8
0
100
AcDbCircle
10
-153.85999200000001
20
-25.509999780000001
30
-5.1545712143052924e-09
40
0.74929999999999997
210
0
220
0
230
1
0
CIRCLE
5
365
100
AcDbEntity
8
0
100
AcDbCircle
10
129.65000739999999
20
-8.6000005799999997
30
-5.1545712143052924e-09
40
0.74929999999999997
210
0
220
0
230
1
0
CIRCLE
5
366
100
AcDbEntity
8
0
100
AcDbCircle
10
119.49000740000001
20
-11.140000580000001
30
-5.1545712143052924e-09
40
0.85089999999999999
210
0
220
0
230
1
0
CIRCLE
5
367
100
AcDbEntity
8
0
100
AcDbCircle
10
71.025171639999996
20
-9.2876496999999993
30
-5.1545712143052924e-09
40
0.74929999999999997
210
0
220
0
230
1
0
CIRCLE
5
368
100
AcDbEntity
8
0
100
AcDbCircle
10
-144.61999270000001
20
-14.079999780000001
30
-5.1545712143052924e-09
40
0.49530000000000007
210
0
220
0
230
1
0
CIRCLE
5
369
100
AcDbEntity
8
0
100
AcDbCircle
10
-107.62999048
20
-8.6000005799999997
30
-5.1545712143052924e-09
40
0.74929999999999997
210
0
220
0
230
1
0
CIRCLE
5
370
100
AcDbEntity
8
0
100
AcDbCircle
10
-98.739990480000017
20
-11.140000580000001
30
-5.1545712143052924e-09
40
0.85089999999999999
210
0
220
0
230
1
0
CIRCLE
5
371
100
AcDbEntity
8
0
100
AcDbCircle
10
-86.449992200000011
20
-14.079999780000001
30
-5.1545712143052924e-09
40
0.49530000000000007
210
0
220
0
230
1
0
CIRCLE
5
372
100
AcDbEntity
8
0
100
AcDbCircle
10
-66.978430939999996
20
-17.66494054
30
-5.1545712143052924e-09
40
0.49530000000000007
210
0
220
0
230
1
0
CIRCLE
5
373
100
AcDbEntity
8
0
100
AcDbCircle
10
-124.13999048000001
20
-16.220000580000004
30
-5.1545712143052924e-09
40
0.49530000000000007
210
0
220
0
230
1
0
CIRCLE
5
374
100
AcDbEntity
8
0
100
AcDbCircle
10
-121.59999048000002
20
-16.220000580000004
30
-5.1545712143052924e-09
40
0.49530000000000007
210
0
220
0
230
1
0
CIRCLE
5
375
100
AcDbEntity
8
0
100
AcDbCircle
10
-102.54999048000002
20
-16.220000580000004
30
-5.1545712143052924e-09
40
0.49530000000000007
210
0
220
0
230
1
0
CIRCLE
5
376
100
AcDbEntity
8
0
100
AcDbCircle
10
-105.08999048
20
-16.220000580000004
30
-5.1545712143052924e-09
40
0.49530000000000007
210
0
220
0
230
1
0
CIRCLE
5
377
100
AcDbEntity
8
0
100
AcDbCircle
10
-119.72999168000001
20
-25.110000580000005
30
-5.1545712143052924e-09
40
0.74929999999999997
210
0
220
0
230
1
0
CIRCLE
5
378
100
AcDbEntity
8
0
100
AcDbCircle
10
154.92300739999999
20
-19.395000580000001
30
-5.1545712143052924e-09
40
1.9939
210
0
220
0
230
1
0
CIRCLE
5
379
100
AcDbEntity
8
0
100
AcDbCircle
10
154.46000857999999
20
-25.110000580000005
30
-5.1545712143052924e-09
40
0.74929999999999997
210
0
220
0
230
1
0
CIRCLE
5
380
100
AcDbEntity
8
0
100
AcDbCircle
10
111.59000796000001
20
-25.110000580000005
30
-5.1545712143052924e-09
40
0.74929999999999997
210
0
220
0
230
1
0
CIRCLE
5
381
100
AcDbEntity
8
0
100
AcDbCircle
10
131.04700740000001
20
-19.395000580000001
30
-5.1545712143052924e-09
40
1.9939
210
0
220
0
230
1
0
CIRCLE
5
382
100
AcDbEntity
8
0
100
AcDbCircle
10
130.64000795999999
20
-25.110000580000005
30
-5.1545712143052924e-09
40
0.74929999999999997
210
0
220
0
230
1
0
CIRCLE
5
383
100
AcDbEntity
8
0
100
AcDbCircle
10
92.960009659999997
20
-24.050000160000003
30
-5.1545712143052924e-09
40
0.74929999999999997
210
0
220
0
230
1
0
CIRCLE
5
384
100
AcDbEntity
8
0
100
AcDbCircle
10
19.378874119999999
20
-22.862153920000004
30
-5.1545712143052924e-09
40
1.9939
210
0
220
0
230
1
0
CIRCLE
5
385
100
AcDbEntity
8
0
100
AcDbCircle
10
24.347863420000003
20
-21.805963500000001
30
-5.1545712143052924e-09
40
0.85089999999999999
210
0
220
0
230
1
0
CIRCLE
5
386
100
AcDbEntity
8
0
100
AcDbCircle
10
20.807177079999999
20
-17.365068140000002
30
-5.1545712143052924e-09
40
0.74929999999999997
210
0
220
0
230
1
0
CIRCLE
5
387
100
AcDbEntity
8
0
100
AcDbCircle
10
38.012585899999998
20
-18.9014354
30
-5.1545712143052924e-09
40
1.9939
210
0
220
0
230
1
0
CIRCLE
5
388
100
AcDbEntity
8
0
100
AcDbCircle
10
40.311024279999998
20
-23.606376460000003
30
-5.1545712143052924e-09
40
0.49530000000000007
210
0
220
0
230
1
0
CIRCLE
5
389
100
AcDbEntity
8
0
100
AcDbCircle
10
37.826530900000002
20
-24.134472940000002
30
-5.1545712143052924e-09
40
0.49530000000000007
210
0
220
0
230
1
0
CIRCLE
5
390
100
AcDbEntity
8
0
100
AcDbCircle
10
33.043596600000001
20
-19.957625820000004
30
-5.1545712143052924e-09
40
0.85089999999999999
210
0
220
0
230
1
0
CIRCLE
5
391
100
AcDbEntity
8
0
100
AcDbCircle
10
33.757748079999999
20
-17.209084199999999
30
-5.1545712143052924e-09
40
0.74929999999999997
210
0
220
0
230
1
0
CIRCLE
5
392
100
AcDbEntity
8
0
100
AcDbCircle
10
56.460242680000007
20
-20.173754420000002
30
-5.1545712143052924e-09
40
0.49530000000000007
210
0
220
0
230
1
0
CIRCLE
5
393
100
AcDbEntity
8
0
100
AcDbCircle
10
42.981575200000002
20
-17.84524498
30
-5.1545712143052924e-09
40
0.85089999999999999
210
0
220
0
230
1
0
CIRCLE
5
394
100
AcDbEntity
8
0
100
AcDbCircle
10
58.944736059999997
20
-19.64565794
30
-5.1545712143052924e-09
40
0.49530000000000007
210
0
220
0
230
1
0
CIRCLE
5
395
100
AcDbEntity
8
0
100
AcDbCircle
10
-22.443579700000001
20
-21.937624400000001
30
-5.1545712143052924e-09
40
0.85089999999999999
210
0
220
0
230
1
0
CIRCLE
5
396
100
AcDbEntity
8
0
100
AcDbCircle
10
-5.2381708800000002
20
-20.401257139999998
30
-5.1545712143052924e-09
40
0.74929999999999997
210
0
220
0
230
1
0
CIRCLE
5
397
100
AcDbEntity
8
0
100
AcDbCircle
10
-11.977504619999999
20
-21.565514400000005
30
-5.1545712143052924e-09
40
0.74929999999999997
210
0
220
0
230
1
0
CIRCLE
5
398
100
AcDbEntity
8
0
100
AcDbCircle
10
15.1240363
20
-21.16980272
30
-5.1545712143052924e-09
40
0.74929999999999997
210
0
220
0
230
1
0
CIRCLE
5
399
100
AcDbEntity
8
0
100
AcDbCircle
10
-3.8098679200000003
20
-25.898342920000005
30
-5.1545712143052924e-09
40
0.85089999999999999
210
0
220
0
230
1
0
CIRCLE
5
400
100
AcDbEntity
8
0
100
AcDbCircle
10
-13.74784652
20
-23.785962080000004
30
-5.1545712143052924e-09
40
0.85089999999999999
210
0
220
0
230
1
0
CIRCLE
5
401
100
AcDbEntity
8
0
100
AcDbCircle
10
-23.871882660000004
20
-16.440538620000002
30
-5.1545712143052924e-09
40
0.74929999999999997
210
0
220
0
230
1
0
CIRCLE
5
402
100
AcDbEntity
8
0
100
AcDbCircle
10
132.19000740000001
20
-16.220000580000004
30
-5.1545712143052924e-09
40
0.49530000000000007
210
0
220
0
230
1
0
CIRCLE
5
403
100
AcDbEntity
8
0
100
AcDbCircle
10
144.25500740000001
20
-16.220000580000004
30
-5.1545712143052924e-09
40
0.49530000000000007
210
0
220
0
230
1
0
CIRCLE
5
404
100
AcDbEntity
8
0
100
AcDbCircle
10
153.78000739999999
20
-16.220000580000004
30
-5.1545712143052924e-09
40
0.49530000000000007
210
0
220
0
230
1
0
CIRCLE
5
405
100
AcDbEntity
8
0
100
AcDbCircle
10
128.38000740000001
20
-11.140000580000001
30
-5.1545712143052924e-09
40
0.85089999999999999
210
0
220
0
230
1
0
CIRCLE
5
406
100
AcDbEntity
8
0
100
AcDbCircle
10
141.71500739999999
20
-16.220000580000004
30
-5.1545712143052924e-09
40
0.49530000000000007
210
0
220
0
230
1
0
CIRCLE
5
407
100
AcDbEntity
8
0
100
AcDbCircle
10
134.73000740000001
20
-16.220000580000004
30
-5.1545712143052924e-09
40
0.49530000000000007
210
0
220
0
230
1
0
CIRCLE
5
408
100
AcDbEntity
8
0
100
AcDbCircle
10
115.68000740000001
20
-16.220000580000004
30
-5.1545712143052924e-09
40
0.49530000000000007
210
0
220
0
230
1
0
CIRCLE
5
409
100
AcDbEntity
8
0
100
AcDbCircle
10
109.3300074
20
-11.140000580000001
30
-5.1545712143052924e-09
40
0.85089999999999999
210
0
220
0
230
1
0
CIRCLE
5
410
100
AcDbEntity
8
0
100
AcDbCircle
10
113.1400074
20
-16.220000580000004
30
-5.1545712143052924e-09
40
0.49530000000000007
210
0
220
0
230
1
0
CIRCLE
5
411
100
AcDbEntity
8
0
100
AcDbCircle
10
52.391459860000005
20
-13.248365680000001
30
-5.1545712143052924e-09
40
0.74929999999999997
210
0
220
0
230
1
0
CIRCLE
5
412
100
AcDbEntity
8
0
100
AcDbCircle
10
51.677308380000007
20
-15.9969073
30
-5.1545712143052924e-09
40
0.85089999999999999
210
0
220
0
230
1
0
CIRCLE
5
413
100
AcDbEntity
8
0
100
AcDbCircle
10
56.646297680000011
20
-14.94071688
30
-5.1545712143052924e-09
40
1.9939
210
0
220
0
230
1
0
CIRCLE
5
414
100
AcDbEntity
8
0
100
AcDbCircle
10
61.615286980000008
20
-13.884526460000002
30
-5.1545712143052924e-09
40
0.85089999999999999
210
0
220
0
230
1
0
CIRCLE
5
415
100
AcDbEntity
8
0
100
AcDbCircle
10
70.311020159999998
20
-12.03619132
30
-5.1545712143052924e-09
40
0.85089999999999999
210
0
220
0
230
1
0
CIRCLE
5
416
100
AcDbEntity
8
0
100
AcDbCircle
10
97.050009100000011
20
-14.079999780000001
30
-5.1545712143052924e-09
40
0.49530000000000007
210
0
220
0
230
1
0
CIRCLE
5
417
100
AcDbEntity
8
0
100
AcDbCircle
10
75.093954460000006
20
-16.213038439999998
30
-5.1545712143052924e-09
40
0.49530000000000007
210
0
220
0
230
1
0
CIRCLE
5
418
100
AcDbEntity
8
0
100
AcDbCircle
10
77.578447839999995
20
-15.68494196
30
-5.1545712143052924e-09
40
0.49530000000000007
210
0
220
0
230
1
0
CIRCLE
5
419
100
AcDbEntity
8
0
100
AcDbCircle
10
95.780009100000001
20
-8.9999997799999996
30
-5.1545712143052924e-09
40
1.9939
210
0
220
0
230
1
0
CIRCLE
5
420
100
AcDbEntity
8
0
100
AcDbCircle
10
58.074600640000007
20
-9.4436310999999993
30
-5.1545712143052924e-09
40
0.74929999999999997
210
0
220
0
230
1
0
CIRCLE
5
421
100
AcDbEntity
8
0
100
AcDbCircle
10
39.440888860000001
20
-13.40434962
30
-5.1545712143052924e-09
40
0.74929999999999997
210
0
220
0
230
1
0
CIRCLE
5
422
100
AcDbEntity
8
0
100
AcDbCircle
10
152.51000740000001
20
-11.140000580000001
30
-5.1545712143052924e-09
40
1.9939
210
0
220
0
230
1
0
CIRCLE
5
423
100
AcDbEntity
8
0
100
AcDbCircle
10
151.2400074
20
-16.220000580000004
30
-5.1545712143052924e-09
40
0.49530000000000007
210
0
220
0
230
1
0
CIRCLE
5
424
100
AcDbEntity
8
0
100
AcDbCircle
10
157.59000739999999
20
-11.140000580000001
30
-5.1545712143052924e-09
40
0.85089999999999999
210
0
220
0
230
1
0
CIRCLE
5
425
100
AcDbEntity
8
0
100
AcDbCircle
10
148.7000074
20
-8.6000005799999997
30
-5.1545712143052924e-09
40
0.74929999999999997
210
0
220
0
230
1
0
CIRCLE
5
426
100
AcDbEntity
8
0
100
AcDbCircle
10
142.98500740000003
20
-11.140000580000001
30
-5.1545712143052924e-09
40
1.9939
210
0
220
0
230
1
0
CIRCLE
5
427
100
AcDbEntity
8
0
100
AcDbCircle
10
139.17500740000003
20
-8.6000005799999997
30
-5.1545712143052924e-09
40
0.74929999999999997
210
0
220
0
230
1
0
CIRCLE
5
428
100
AcDbEntity
8
0
100
AcDbCircle
10
110.6000074
20
-8.6000005799999997
30
-5.1545712143052924e-09
40
0.74929999999999997
210
0
220
0
230
1
0
CIRCLE
5
429
100
AcDbEntity
8
0
100
AcDbCircle
10
-81.158638800000006
20
-26.333361100000001
30
-5.1545712143052924e-09
40
0.74929999999999997
210
0
220
0
230
1
0
CIRCLE
5
430
100
AcDbEntity
8
0
100
AcDbCircle
10
-27.226514000000002
20
-26.114471520000002
30
-5.1545712143052924e-09
40
0.49530000000000007
210
0
220
0
230
1
0
CIRCLE
5
431
100
AcDbEntity
8
0
100
AcDbCircle
10
-48.344719159999997
20
-21.625659060000004
30
-5.1545712143052924e-09
40
0.49530000000000007
210
0
220
0
230
1
0
CIRCLE
5
432
100
AcDbEntity
8
0
100
AcDbCircle
10
-45.860225780000007
20
-22.153755539999999
30
-5.1545712143052924e-09
40
0.49530000000000007
210
0
220
0
230
1
0
CIRCLE
5
433
100
AcDbEntity
8
0
100
AcDbCircle
10
-27.412569000000001
20
-20.881433980000001
30
-5.1545712143052924e-09
40
1.9939
210
0
220
0
230
1
0
CIRCLE
5
434
100
AcDbEntity
8
0
100
AcDbCircle
10
-32.381558300000002
20
-19.825243560000001
30
-5.1545712143052924e-09
40
0.85089999999999999
210
0
220
0
230
1
0
CIRCLE
5
435
100
AcDbEntity
8
0
100
AcDbCircle
10
-46.046280780000004
20
-16.920718000000001
30
-5.1545712143052924e-09
40
1.9939
210
0
220
0
230
1
0
CIRCLE
5
436
100
AcDbEntity
8
0
100
AcDbCircle
10
-41.07729148
20
-17.976908420000001
30
-5.1545712143052924e-09
40
0.85089999999999999
210
0
220
0
230
1
0
CIRCLE
5
437
100
AcDbEntity
8
0
100
AcDbCircle
10
-30.6112164
20
-17.604795880000001
30
-5.1545712143052924e-09
40
0.74929999999999997
210
0
220
0
230
1
0
CIRCLE
5
438
100
AcDbEntity
8
0
100
AcDbCircle
10
-64.493937560000006
20
-18.193037019999998
30
-5.1545712143052924e-09
40
0.49530000000000007
210
0
220
0
230
1
0
CIRCLE
5
439
100
AcDbEntity
8
0
100
AcDbCircle
10
-51.015270080000008
20
-15.864527580000001
30
-5.1545712143052924e-09
40
0.85089999999999999
210
0
220
0
230
1
0
CIRCLE
5
440
100
AcDbEntity
8
0
100
AcDbCircle
10
-147.1599927
20
-14.079999780000001
30
-5.1545712143052924e-09
40
0.49530000000000007
210
0
220
0
230
1
0
CIRCLE
5
441
100
AcDbEntity
8
0
100
AcDbCircle
10
157.00000858000004
20
-30.19000058
30
-5.1545712143052924e-09
40
0.85089999999999999
210
0
220
0
230
1
0
CIRCLE
5
442
100
AcDbEntity
8
0
100
AcDbCircle
10
146.84000857999999
20
-30.19000058
30
-5.1545712143052924e-09
40
0.85089999999999999
210
0
220
0
230
1
0
CIRCLE
5
443
100
AcDbEntity
8
0
100
AcDbCircle
10
114.13000796
20
-30.19000058
30
-5.1545712143052924e-09
40
0.85089999999999999
210
0
220
0
230
1
0
CIRCLE
5
444
100
AcDbEntity
8
0
100
AcDbCircle
10
123.02000796000002
20
-30.19000058
30
-5.1545712143052924e-09
40
0.85089999999999999
210
0
220
0
230
1
0
CIRCLE
5
445
100
AcDbEntity
8
0
100
AcDbCircle
10
109.05000796000002
20
-30.19000058
30
-5.1545712143052924e-09
40
1.9939
210
0
220
0
230
1
0
CIRCLE
5
446
100
AcDbEntity
8
0
100
AcDbCircle
10
124.29000796
20
-27.65000058
30
-5.1545712143052924e-09
40
0.74929999999999997
210
0
220
0
230
1
0
CIRCLE
5
447
100
AcDbEntity
8
0
100
AcDbCircle
10
148.11000858
20
-27.65000058
30
-5.1545712143052924e-09
40
0.74929999999999997
210
0
220
0
230
1
0
CIRCLE
5
448
100
AcDbEntity
8
0
100
AcDbCircle
10
128.10000796
20
-30.19000058
30
-5.1545712143052924e-09
40
1.9939
210
0
220
0
230
1
0
CIRCLE
5
449
100
AcDbEntity
8
0
100
AcDbCircle
10
105.24000796000001
20
-27.65000058
30
-5.1545712143052924e-09
40
0.74929999999999997
210
0
220
0
230
1
0
CIRCLE
5
450
100
AcDbEntity
8
0
100
AcDbCircle
10
103.97000796
20
-30.19000058
30
-5.1545712143052924e-09
40
0.85089999999999999
210
0
220
0
230
1
0
CIRCLE
5
451
100
AcDbEntity
8
0
100
AcDbCircle
10
95.500009660000003
20
-29.130000160000002
30
-5.1545712143052924e-09
40
0.85089999999999999
210
0
220
0
230
1
0
CIRCLE
5
452
100
AcDbEntity
8
0
100
AcDbCircle
10
19.192819119999999
20
-28.095191459999999
30
-5.1545712143052924e-09
40
0.49530000000000007
210
0
220
0
230
1
0
CIRCLE
5
453
100
AcDbEntity
8
0
100
AcDbCircle
10
65.665169660000004
20
-29.897649120000001
30
-5.1545712143052924e-09
40
0.74929999999999997
210
0
220
0
230
1
0
CIRCLE
5
454
100
AcDbEntity
8
0
100
AcDbCircle
10
-77.959991400000007
20
-29.609999200000004
30
-5.1545712143052924e-09
40
1.9939
210
0
220
0
230
1
0
CIRCLE
5
455
100
AcDbEntity
8
0
100
AcDbCircle
10
-72.991002100000003
20
-30.666189620000001
30
-5.1545712143052924e-09
40
0.85089999999999999
210
0
220
0
230
1
0
CIRCLE
5
456
100
AcDbEntity
8
0
100
AcDbCircle
10
129.37000796000001
20
-35.270000580000001
30
-5.1545712143052924e-09
40
0.49530000000000007
210
0
220
0
230
1
0
CIRCLE
5
457
100
AcDbEntity
8
0
100
AcDbCircle
10
51.100240700000008
20
-40.783753840000003
30
-5.1545712143052924e-09
40
0.49530000000000007
210
0
220
0
230
1
0
CIRCLE
5
458
100
AcDbEntity
8
0
100
AcDbCircle
10
-40.692567840000002
20
-37.531436239999998
30
-5.1545712143052924e-09
40
1.9939
210
0
220
0
230
1
0
CIRCLE
5
459
100
AcDbEntity
8
0
100
AcDbCircle
10
-40.506512839999999
20
-42.764473780000003
30
-5.1545712143052924e-09
40
0.49530000000000007
210
0
220
0
230
1
0
CIRCLE
5
460
100
AcDbEntity
8
0
100
AcDbCircle
10
-22.058856060000004
20
-41.492152220000008
30
-5.1545712143052924e-09
40
1.9939
210
0
220
0
230
1
0
CIRCLE
5
461
100
AcDbEntity
8
0
100
AcDbCircle
10
32.652583919999998
20
-39.511434819999998
30
-5.1545712143052924e-09
40
1.9939
210
0
220
0
230
1
0
CIRCLE
5
462
100
AcDbEntity
8
0
100
AcDbCircle
10
37.621573220000002
20
-38.455244399999998
30
-5.1545712143052924e-09
40
0.85089999999999999
210
0
220
0
230
1
0
CIRCLE
5
463
100
AcDbEntity
8
0
100
AcDbCircle
10
153.19000858000004
20
-35.270000580000001
30
-5.1545712143052924e-09
40
0.49530000000000007
210
0
220
0
230
1
0
CIRCLE
5
464
100
AcDbEntity
8
0
100
AcDbCircle
10
151.58000926
20
-44.160000580000009
30
-5.1545712143052924e-09
40
0.74929999999999997
210
0
220
0
230
1
0
CIRCLE
5
465
100
AcDbEntity
8
0
100
AcDbCircle
10
-122.26999168
20
-30.19000058
30
-5.1545712143052924e-09
40
1.9939
210
0
220
0
230
1
0
CIRCLE
5
466
100
AcDbEntity
8
0
100
AcDbCircle
10
-82.928980699999997
20
-28.553808780000001
30
-5.1545712143052924e-09
40
0.85089999999999999
210
0
220
0
230
1
0
CIRCLE
5
467
100
AcDbEntity
8
0
100
AcDbCircle
10
-64.295268919999998
20
-32.514527299999997
30
-5.1545712143052924e-09
40
0.85089999999999999
210
0
220
0
230
1
0
CIRCLE
5
468
100
AcDbEntity
8
0
100
AcDbCircle
10
-43.891215240000001
20
-34.254798139999998
30
-5.1545712143052924e-09
40
0.74929999999999997
210
0
220
0
230
1
0
CIRCLE
5
469
100
AcDbEntity
8
0
100
AcDbCircle
10
-77.773936399999997
20
-34.843036740000002
30
-5.1545712143052924e-09
40
0.49530000000000007
210
0
220
0
230
1
0
CIRCLE
5
470
100
AcDbEntity
8
0
100
AcDbCircle
10
-99.729991040000016
20
-35.270000580000001
30
-5.1545712143052924e-09
40
0.49530000000000007
210
0
220
0
230
1
0
CIRCLE
5
471
100
AcDbEntity
8
0
100
AcDbCircle
10
-80.25842978
20
-34.31494026
30
-5.1545712143052924e-09
40
0.49530000000000007
210
0
220
0
230
1
0
CIRCLE
5
472
100
AcDbEntity
8
0
100
AcDbCircle
10
47.031457879999998
20
-33.8583651
30
-5.1545712143052924e-09
40
0.74929999999999997
210
0
220
0
230
1
0
CIRCLE
5
473
100
AcDbEntity
8
0
100
AcDbCircle
10
-144.96999199999999
20
-28.04999978
30
-5.1545712143052924e-09
40
0.85089999999999999
210
0
220
0
230
1
0
CIRCLE
5
474
100
AcDbEntity
8
0
100
AcDbCircle
10
-126.07999168000001
20
-27.65000058
30
-5.1545712143052924e-09
40
0.74929999999999997
210
0
220
0
230
1
0
CIRCLE
5
475
100
AcDbEntity
8
0
100
AcDbCircle
10
-127.34999168000002
20
-30.19000058
30
-5.1545712143052924e-09
40
0.85089999999999999
210
0
220
0
230
1
0
CIRCLE
5
476
100
AcDbEntity
8
0
100
AcDbCircle
10
-103.53999104000002
20
-30.19000058
30
-5.1545712143052924e-09
40
0.85089999999999999
210
0
220
0
230
1
0
CIRCLE
5
477
100
AcDbEntity
8
0
100
AcDbCircle
10
-117.18999168000002
20
-30.19000058
30
-5.1545712143052924e-09
40
0.85089999999999999
210
0
220
0
230
1
0
CIRCLE
5
478
100
AcDbEntity
8
0
100
AcDbCircle
10
-102.26999104000001
20
-27.65000058
30
-5.1545712143052924e-09
40
0.74929999999999997
210
0
220
0
230
1
0
CIRCLE
5
479
100
AcDbEntity
8
0
100
AcDbCircle
10
-95.919991040000014
20
-25.110000580000005
30
-5.1545712143052924e-09
40
0.74929999999999997
210
0
220
0
230
1
0
CIRCLE
5
480
100
AcDbEntity
8
0
100
AcDbCircle
10
-98.459991040000006
20
-30.19000058
30
-5.1545712143052924e-09
40
1.9939
210
0
220
0
230
1
0
CIRCLE
5
481
100
AcDbEntity
8
0
100
AcDbCircle
10
-55.785593280000008
20
-29.129822359999999
30
-5.1545712143052924e-09
40
0.74929999999999997
210
0
220
0
230
1
0
CIRCLE
5
482
100
AcDbEntity
8
0
100
AcDbCircle
10
-62.524927020000007
20
-30.294079620000005
30
-5.1545712143052924e-09
40
0.74929999999999997
210
0
220
0
230
1
0
CIRCLE
5
483
100
AcDbEntity
8
0
100
AcDbCircle
10
-93.379991039999993
20
-30.19000058
30
-5.1545712143052924e-09
40
0.85089999999999999
210
0
220
0
230
1
0
CIRCLE
5
484
100
AcDbEntity
8
0
100
AcDbCircle
10
-29.711007380000005
20
-25.58637504
30
-5.1545712143052924e-09
40
0.49530000000000007
210
0
220
0
230
1
0
CIRCLE
5
485
100
AcDbEntity
8
0
100
AcDbCircle
10
86.610009660000017
20
-26.590000160000002
30
-5.1545712143052924e-09
40
0.74929999999999997
210
0
220
0
230
1
0
CIRCLE
5
486
100
AcDbEntity
8
0
100
AcDbCircle
10
71.348310440000006
20
-26.092914540000002
30
-5.1545712143052924e-09
40
0.74929999999999997
210
0
220
0
230
1
0
CIRCLE
5
487
100
AcDbEntity
8
0
100
AcDbCircle
10
14.40988482
20
-23.918344340000001
30
-5.1545712143052924e-09
40
0.85089999999999999
210
0
220
0
230
1
0
CIRCLE
5
488
100
AcDbEntity
8
0
100
AcDbCircle
10
64.951018180000005
20
-32.646190740000009
30
-5.1545712143052924e-09
40
0.85089999999999999
210
0
220
0
230
1
0
CIRCLE
5
489
100
AcDbEntity
8
0
100
AcDbCircle
10
69.920007479999995
20
-31.590000320000001
30
-5.1545712143052924e-09
40
1.9939
210
0
220
0
230
1
0
CIRCLE
5
490
100
AcDbEntity
8
0
100
AcDbCircle
10
52.714598660000007
20
-30.053630519999999
30
-5.1545712143052924e-09
40
0.74929999999999997
210
0
220
0
230
1
0
CIRCLE
5
491
100
AcDbEntity
8
0
100
AcDbCircle
10
74.888996779999999
20
-30.533809900000005
30
-5.1545712143052924e-09
40
0.85089999999999999
210
0
220
0
230
1
0
CIRCLE
5
492
100
AcDbEntity
8
0
100
AcDbCircle
10
34.080886880000001
20
-34.014349039999999
30
-5.1545712143052924e-09
40
0.74929999999999997
210
0
220
0
230
1
0
CIRCLE
5
493
100
AcDbEntity
8
0
100
AcDbCircle
10
-11.077295599999999
20
-29.547093560000004
30
-5.1545712143052924e-09
40
0.49530000000000007
210
0
220
0
230
1
0
CIRCLE
5
494
100
AcDbEntity
8
0
100
AcDbCircle
10
-150.96999270000001
20
-8.9999997799999996
30
-5.1545712143052924e-09
40
0.85089999999999999
210
0
220
0
230
1
0
CIRCLE
5
495
100
AcDbEntity
8
0
100
AcDbCircle
10
-150.049992
20
-28.04999978
30
-5.1545712143052924e-09
40
1.9939
210
0
220
0
230
1
0
CIRCLE
5
496
100
AcDbEntity
8
0
100
AcDbCircle
10
-149.6999927
20
-6.4599997800000004
30
-5.1545712143052924e-09
40
0.74929999999999997
210
0
220
0
230
1
0
CIRCLE
5
497
100
AcDbEntity
8
0
100
AcDbCircle
10
-148.77999199999999
20
-33.129999779999999
30
-5.1545712143052924e-09
40
0.49530000000000007
210
0
220
0
230
1
0
CIRCLE
5
498
100
AcDbEntity
8
0
100
AcDbCircle
10
-76.533936339999997
20
-95.073038200000013
30
-5.1545712143052924e-09
40
0.49530000000000007
210
0
220
0
230
1
0
CIRCLE
5
499
100
AcDbEntity
8
0
100
AcDbCircle
10
-48.450421259999999
20
-94.312033880000001
30
-5.1545712143052924e-09
40
0.85089999999999999
210
0
220
0
230
1
0
CIRCLE
5
500
100
AcDbEntity
8
0
100
AcDbCircle
10
-36.221001979999997
20
-96.916189200000019
30
-5.1545712143052924e-09
40
0.85089999999999999
210
0
220
0
230
1
0
CIRCLE
5
501
100
AcDbEntity
8
0
100
AcDbCircle
10
33.325170839999998
20
-95.207648040000009
30
-5.1545712143052924e-09
40
0.74929999999999997
210
0
220
0
230
1
0
CIRCLE
5
502
100
AcDbEntity
8
0
100
AcDbCircle
10
-9.6442860199999991
20
-97.367039199999994
30
-5.1545712143052924e-09
40
0.74929999999999997
210
0
220
0
230
1
0
CIRCLE
5
503
100
AcDbEntity
8
0
100
AcDbCircle
10
-7.3293046200000012
20
-97.859103239999996
30
-5.1545712143052924e-09
40
0.74929999999999997
210
0
220
0
230
1
0
CIRCLE
5
504
100
AcDbEntity
8
0
100
AcDbCircle
10
-16.383619759999998
20
-98.531296459999993
30
-5.1545712143052924e-09
40
0.74929999999999997
210
0
220
0
230
1
0
CIRCLE
5
505
100
AcDbEntity
8
0
100
AcDbCircle
10
37.580008659999997
20
-96.89999924
30
-5.1545712143052924e-09
40
1.9939
210
0
220
0
230
1
0
CIRCLE
5
506
100
AcDbEntity
8
0
100
AcDbCircle
10
-39.940745620000001
20
-90.927328939999995
30
-5.1545712143052924e-09
40
0.74929999999999997
210
0
220
0
230
1
0
CIRCLE
5
507
100
AcDbEntity
8
0
100
AcDbCircle
10
39.008311620000001
20
-91.402913459999994
30
-5.1545712143052924e-09
40
0.74929999999999997
210
0
220
0
230
1
0
CIRCLE
5
508
100
AcDbEntity
8
0
100
AcDbCircle
10
-46.680079360000008
20
-92.091586199999995
30
-5.1545712143052924e-09
40
0.74929999999999997
210
0
220
0
230
1
0
CIRCLE
5
509
100
AcDbEntity
8
0
100
AcDbCircle
10
155.40560740000001
20
-92.467998960000003
30
-5.1545712143052924e-09
40
0.49530000000000007
210
0
220
0
230
1
0
CIRCLE
5
510
100
AcDbEntity
8
0
100
AcDbCircle
10
80.288447500000018
20
-94.544941719999997
30
-5.1545712143052924e-09
40
0.49530000000000007
210
0
220
0
230
1
0
CIRCLE
5
511
100
AcDbEntity
8
0
100
AcDbCircle
10
42.548997960000001
20
-95.843808820000021
30
-5.1545712143052924e-09
40
0.85089999999999999
210
0
220
0
230
1
0
CIRCLE
5
512
100
AcDbEntity
8
0
100
AcDbCircle
10
77.803954120000014
20
-95.073038200000013
30
-5.1545712143052924e-09
40
0.49530000000000007
210
0
220
0
230
1
0
CIRCLE
5
513
100
AcDbEntity
8
0
100
AcDbCircle
10
50.709398200000003
20
-101.25031058000002
30
-5.1545712143052924e-09
40
1.524
210
0
220
0
230
1
0
CIRCLE
5
514
100
AcDbEntity
8
0
100
AcDbCircle
10
77.990009119999996
20
-89.840000660000001
30
-5.1545712143052924e-09
40
1.9939
210
0
220
0
230
1
0
CIRCLE
5
515
100
AcDbEntity
8
0
100
AcDbCircle
10
97.198007280000013
20
-88.654001000000008
30
-5.1545712143052924e-09
40
0.37500052000000006
210
0
220
0
230
1
0
CIRCLE
5
516
100
AcDbEntity
8
0
100
AcDbCircle
10
97.198007280000013
20
-91.194001
30
-5.1545712143052924e-09
40
0.37500052000000006
210
0
220
0
230
1
0
CIRCLE
5
517
100
AcDbEntity
8
0
100
AcDbCircle
10
19.57731162
20
-86.437094079999994
30
-5.1545712143052924e-09
40
0.49530000000000007
210
0
220
0
230
1
0
CIRCLE
5
518
100
AcDbEntity
8
0
100
AcDbCircle
10
17.09281824
20
-86.965190559999996
30
-5.1545712143052924e-09
40
0.49530000000000007
210
0
220
0
230
1
0
CIRCLE
5
519
100
AcDbEntity
8
0
100
AcDbCircle
10
-15.822800460000002
20
-86.965190559999996
30
-5.1545712143052924e-09
40
0.49530000000000007
210
0
220
0
230
1
0
CIRCLE
5
520
100
AcDbEntity
8
0
100
AcDbCircle
10
12.309883940000002
20
-82.78834344000002
30
-5.1545712143052924e-09
40
0.85089999999999999
210
0
220
0
230
1
0
CIRCLE
5
521
100
AcDbEntity
8
0
100
AcDbCircle
10
13.024035420000002
20
-80.039801819999994
30
-5.1545712143052924e-09
40
0.74929999999999997
210
0
220
0
230
1
0
CIRCLE
5
522
100
AcDbEntity
8
0
100
AcDbCircle
10
-16.008855459999999
20
-81.732153020000013
30
-5.1545712143052924e-09
40
1.9939
210
0
220
0
230
1
0
CIRCLE
5
523
100
AcDbEntity
8
0
100
AcDbCircle
10
-18.30729384
20
-86.437094079999994
30
-5.1545712143052924e-09
40
0.49530000000000007
210
0
220
0
230
1
0
CIRCLE
5
524
100
AcDbEntity
8
0
100
AcDbCircle
10
-73.179304999999999
20
-85.399105300000002
30
-5.1545712143052924e-09
40
0.74929999999999997
210
0
220
0
230
1
0
CIRCLE
5
525
100
AcDbEntity
8
0
100
AcDbCircle
10
35.726530019999998
20
-83.004472039999996
30
-5.1545712143052924e-09
40
0.49530000000000007
210
0
220
0
230
1
0
CIRCLE
5
526
100
AcDbEntity
8
0
100
AcDbCircle
10
24.186570880000001
20
-91.307439939999995
30
-5.1545712143052924e-09
40
1.9939
210
0
220
0
230
1
0
CIRCLE
5
527
100
AcDbEntity
8
0
100
AcDbCircle
10
-44.38863868
20
-92.583360679999998
30
-5.1545712143052924e-09
40
0.74929999999999997
210
0
220
0
230
1
0
CIRCLE
5
528
100
AcDbEntity
8
0
100
AcDbCircle
10
-37.64930494
20
-91.419103420000013
30
-5.1545712143052924e-09
40
0.74929999999999997
210
0
220
0
230
1
0
CIRCLE
5
529
100
AcDbEntity
8
0
100
AcDbCircle
10
-71.751002040000003
20
-90.896191079999994
30
-5.1545712143052924e-09
40
0.85089999999999999
210
0
220
0
230
1
0
CIRCLE
5
530
100
AcDbEntity
8
0
100
AcDbCircle
10
152.86560739999999
20
-84.847998959999998
30
-5.1545712143052924e-09
40
0.74929999999999997
210
0
220
0
230
1
0
CIRCLE
5
531
100
AcDbEntity
8
0
100
AcDbCircle
10
151.59560740000001
20
-87.387998960000019
30
-5.1545712143052924e-09
40
0.85089999999999999
210
0
220
0
230
1
0
CIRCLE
5
532
100
AcDbEntity
8
0
100
AcDbCircle
10
73.735171300000005
20
-88.147649459999997
30
-5.1545712143052924e-09
40
0.74929999999999997
210
0
220
0
230
1
0
CIRCLE
5
533
100
AcDbEntity
8
0
100
AcDbCircle
10
82.95899842
20
-88.783810239999994
30
-5.1545712143052924e-09
40
0.85089999999999999
210
0
220
0
230
1
0
CIRCLE
5
534
100
AcDbEntity
8
0
100
AcDbCircle
10
79.418312080000007
20
-84.342914879999995
30
-5.1545712143052924e-09
40
0.74929999999999997
210
0
220
0
230
1
0
CIRCLE
5
535
100
AcDbEntity
8
0
100
AcDbCircle
10
97.198007280000013
20
-86.114001000000002
30
-5.1545712143052924e-09
40
0.37500052000000006
210
0
220
0
230
1
0
CIRCLE
5
536
100
AcDbEntity
8
0
100
AcDbCircle
10
97.198007280000013
20
-83.574000999999996
30
-5.1545712143052924e-09
40
0.37500052000000006
210
0
220
0
230
1
0
CIRCLE
5
537
100
AcDbEntity
8
0
100
AcDbCircle
10
47.540824400000005
20
-86.343340140000009
30
-5.1545712143052924e-09
40
1.9939
210
0
220
0
230
1
0
CIRCLE
5
538
100
AcDbEntity
8
0
100
AcDbCircle
10
73.021019820000006
20
-90.896191079999994
30
-5.1545712143052924e-09
40
0.85089999999999999
210
0
220
0
230
1
0
CIRCLE
5
539
100
AcDbEntity
8
0
100
AcDbCircle
10
-79.918638740000006
20
-86.563362560000016
30
-5.1545712143052924e-09
40
0.74929999999999997
210
0
220
0
230
1
0
CIRCLE
5
540
100
AcDbEntity
8
0
100
AcDbCircle
10
-76.719991340000007
20
-89.840000660000001
30
-5.1545712143052924e-09
40
1.9939
210
0
220
0
230
1
0
CIRCLE
5
541
100
AcDbEntity
8
0
100
AcDbCircle
10
-79.01842972
20
-94.544941719999997
30
-5.1545712143052924e-09
40
0.49530000000000007
210
0
220
0
230
1
0
CIRCLE
5
542
100
AcDbEntity
8
0
100
AcDbCircle
10
-131.76999046
20
-92.420000580000007
30
-5.1545712143052924e-09
40
0.49530000000000007
210
0
220
0
230
1
0
CIRCLE
5
543
100
AcDbEntity
8
0
100
AcDbCircle
10
-129.22999046000001
20
-92.420000580000007
30
-5.1545712143052924e-09
40
0.49530000000000007
210
0
220
0
230
1
0
CIRCLE
5
544
100
AcDbEntity
8
0
100
AcDbCircle
10
-130.49999045999999
20
-87.340000579999995
30
-5.1545712143052924e-09
40
1.9939
210
0
220
0
230
1
0
CIRCLE
5
545
100
AcDbEntity
8
0
100
AcDbCircle
10
-125.41999046000001
20
-87.340000579999995
30
-5.1545712143052924e-09
40
0.85089999999999999
210
0
220
0
230
1
0
CIRCLE
5
546
100
AcDbEntity
8
0
100
AcDbCircle
10
-81.688980640000011
20
-88.783810239999994
30
-5.1545712143052924e-09
40
0.85089999999999999
210
0
220
0
230
1
0
CIRCLE
5
547
100
AcDbEntity
8
0
100
AcDbCircle
10
-134.30999045999999
20
-84.800000580000003
30
-5.1545712143052924e-09
40
0.74929999999999997
210
0
220
0
230
1
0
CIRCLE
5
548
100
AcDbEntity
8
0
100
AcDbCircle
10
-135.57999046
20
-87.340000579999995
30
-5.1545712143052924e-09
40
0.85089999999999999
210
0
220
0
230
1
0
CIRCLE
5
549
100
AcDbEntity
8
0
100
AcDbCircle
10
157.94560740000003
20
-92.467998960000003
30
-5.1545712143052924e-09
40
0.49530000000000007
210
0
220
0
230
1
0
CIRCLE
5
550
100
AcDbEntity
8
0
100
AcDbCircle
10
32.61101936
20
-97.956189660000007
30
-5.1545712143052924e-09
40
0.85089999999999999
210
0
220
0
230
1
0
CIRCLE
5
551
100
AcDbEntity
8
0
100
AcDbCircle
10
45.06305694000001
20
-4.0776753599999997
30
-5.1545712143052924e-09
40
2.50000008
210
0
220
0
230
1
0
CIRCLE
5
552
100
AcDbEntity
8
0
100
AcDbCircle
10
-88.989992200000003
20
-6.4599997800000004
30
-5.1545712143052924e-09
40
0.74929999999999997
210
0
220
0
230
1
0
CIRCLE
5
553
100
AcDbEntity
8
0
100
AcDbCircle
10
-90.259992200000013
20
-8.9999997799999996
30
-5.1545712143052924e-09
40
0.85089999999999999
210
0
220
0
230
1
0
CIRCLE
5
554
100
AcDbEntity
8
0
100
AcDbCircle
10
-80.099992200000003
20
-8.9999997799999996
30
-5.1545712143052924e-09
40
0.85089999999999999
210
0
220
0
230
1
0
CIRCLE
5
555
100
AcDbEntity
8
0
100
AcDbCircle
10
-35.882242179999999
20
-5.7581393600000013
30
-5.1545712143052924e-09
40
2.50000008
210
0
220
0
230
1
0
CIRCLE
5
556
100
AcDbEntity
8
0
100
AcDbCircle
10
-143.3499927
20
-3.9199997800000004
30
-5.1545712143052924e-09
40
0.74929999999999997
210
0
220
0
230
1
0
CIRCLE
5
557
100
AcDbEntity
8
0
100
AcDbCircle
10
-140.80999270000001
20
-8.9999997799999996
30
-5.1545712143052924e-09
40
0.85089999999999999
210
0
220
0
230
1
0
CIRCLE
5
558
100
AcDbEntity
8
0
100
AcDbCircle
10
-145.88999269999999
20
-8.9999997799999996
30
-5.1545712143052924e-09
40
1.9939
210
0
220
0
230
1
0
CIRCLE
5
559
100
AcDbEntity
8
0
100
AcDbCircle
10
-126.67999048
20
-8.6000005799999997
30
-5.1545712143052924e-09
40
0.74929999999999997
210
0
220
0
230
1
0
CIRCLE
5
560
100
AcDbEntity
8
0
100
AcDbCircle
10
-127.94999048000001
20
-11.140000580000001
30
-5.1545712143052924e-09
40
0.85089999999999999
210
0
220
0
230
1
0
CIRCLE
5
561
100
AcDbEntity
8
0
100
AcDbCircle
10
-103.81999048
20
-11.140000580000001
30
-5.1545712143052924e-09
40
1.9939
210
0
220
0
230
1
0
CIRCLE
5
562
100
AcDbEntity
8
0
100
AcDbCircle
10
-108.89999048
20
-11.140000580000001
30
-5.1545712143052924e-09
40
0.85089999999999999
210
0
220
0
230
1
0
CIRCLE
5
563
100
AcDbEntity
8
0
100
AcDbCircle
10
-101.27999048
20
-6.0600005800000005
30
-5.1545712143052924e-09
40
0.74929999999999997
210
0
220
0
230
1
0
CIRCLE
5
564
100
AcDbEntity
8
0
100
AcDbCircle
10
-120.32999048000001
20
-6.0600005800000005
30
-5.1545712143052924e-09
40
0.74929999999999997
210
0
220
0
230
1
0
CIRCLE
5
565
100
AcDbEntity
8
0
100
AcDbCircle
10
-117.78999048000001
20
-11.140000580000001
30
-5.1545712143052924e-09
40
0.85089999999999999
210
0
220
0
230
1
0
CIRCLE
5
566
100
AcDbEntity
8
0
100
AcDbCircle
10
-122.86999048
20
-11.140000580000001
30
-5.1545712143052924e-09
40
1.9939
210
0
220
0
230
1
0
CIRCLE
5
567
100
AcDbEntity
8
0
100
AcDbCircle
10
-69.648981860000006
20
-11.90380906
30
-5.1545712143052924e-09
40
0.85089999999999999
210
0
220
0
230
1
0
CIRCLE
5
568
100
AcDbEntity
8
0
100
AcDbCircle
10
-85.179992200000001
20
-8.9999997799999996
30
-5.1545712143052924e-09
40
1.9939
210
0
220
0
230
1
0
CIRCLE
5
569
100
AcDbEntity
8
0
100
AcDbCircle
10
-82.639992200000009
20
-3.9199997800000004
30
-5.1545712143052924e-09
40
0.74929999999999997
210
0
220
0
230
1
0
CIRCLE
5
570
100
AcDbEntity
8
0
100
AcDbCircle
10
-64.679992560000002
20
-12.959999480000002
30
-5.1545712143052924e-09
40
1.9939
210
0
220
0
230
1
0
CIRCLE
5
571
100
AcDbEntity
8
0
100
AcDbCircle
10
-67.878639960000001
20
-9.6833613799999991
30
-5.1545712143052924e-09
40
0.74929999999999997
210
0
220
0
230
1
0
CIRCLE
5
572
100
AcDbEntity
8
0
100
AcDbCircle
10
-83.909992200000005
20
-14.079999780000001
30
-5.1545712143052924e-09
40
0.49530000000000007
210
0
220
0
230
1
0
CIRCLE
5
573
100
AcDbEntity
8
0
100
AcDbCircle
10
-42.505594440000003
20
-12.47982264
30
-5.1545712143052924e-09
40
0.74929999999999997
210
0
220
0
230
1
0
CIRCLE
5
574
100
AcDbEntity
8
0
100
AcDbCircle
10
-49.244928180000009
20
-13.644079900000001
30
-5.1545712143052924e-09
40
0.74929999999999997
210
0
220
0
230
1
0
CIRCLE
5
575
100
AcDbEntity
8
0
100
AcDbCircle
10
-59.711003259999998
20
-14.016189900000002
30
-5.1545712143052924e-09
40
0.85089999999999999
210
0
220
0
230
1
0
CIRCLE
5
576
100
AcDbEntity
8
0
100
AcDbCircle
10
-61.139306220000009
20
-8.5191041200000015
30
-5.1545712143052924e-09
40
0.74929999999999997
210
0
220
0
230
1
0
CIRCLE
5
577
100
AcDbEntity
8
0
100
AcDbCircle
10
136.00000739999999
20
-6.0600005800000005
30
-5.1545712143052924e-09
40
0.74929999999999997
210
0
220
0
230
1
0
CIRCLE
5
578
100
AcDbEntity
8
0
100
AcDbCircle
10
131.04700740000001
20
-4.1550005800000003
30
-5.1545712143052924e-09
40
1.524
210
0
220
0
230
1
0
CIRCLE
5
579
100
AcDbEntity
8
0
100
AcDbCircle
10
98.320009099999993
20
-3.9199997800000004
30
-5.1545712143052924e-09
40
0.74929999999999997
210
0
220
0
230
1
0
CIRCLE
5
580
100
AcDbEntity
8
0
100
AcDbCircle
10
116.9500074
20
-6.0600005800000005
30
-5.1545712143052924e-09
40
0.74929999999999997
210
0
220
0
230
1
0
CIRCLE
5
581
100
AcDbEntity
8
0
100
AcDbCircle
10
133.46000739999999
20
-11.140000580000001
30
-5.1545712143052924e-09
40
1.9939
210
0
220
0
230
1
0
CIRCLE
5
582
100
AcDbEntity
8
0
100
AcDbCircle
10
90.700009100000017
20
-8.9999997799999996
30
-5.1545712143052924e-09
40
0.85089999999999999
210
0
220
0
230
1
0
CIRCLE
5
583
100
AcDbEntity
8
0
100
AcDbCircle
10
100.86000910000001
20
-8.9999997799999996
30
-5.1545712143052924e-09
40
0.85089999999999999
210
0
220
0
230
1
0
CIRCLE
5
584
100
AcDbEntity
8
0
100
AcDbCircle
10
91.970009099999999
20
-6.4599997800000004
30
-5.1545712143052924e-09
40
0.74929999999999997
210
0
220
0
230
1
0
CIRCLE
5
585
100
AcDbEntity
8
0
100
AcDbCircle
10
114.4100074
20
-11.140000580000001
30
-5.1545712143052924e-09
40
1.9939
210
0
220
0
230
1
0
CIRCLE
5
586
100
AcDbEntity
8
0
100
AcDbCircle
10
76.708312419999999
20
-5.4829151200000004
30
-5.1545712143052924e-09
40
0.74929999999999997
210
0
220
0
230
1
0
CIRCLE
5
587
100
AcDbEntity
8
0
100
AcDbCircle
10
80.248998760000006
20
-9.9238104800000002
30
-5.1545712143052924e-09
40
0.85089999999999999
210
0
220
0
230
1
0
CIRCLE
5
588
100
AcDbEntity
8
0
100
AcDbCircle
10
75.280009460000002
20
-10.9800009
30
-5.1545712143052924e-09
40
1.9939
210
0
220
0
230
1
0
CIRCLE
5
589
100
AcDbEntity
8
0
100
AcDbCircle
10
94.510009100000019
20
-14.079999780000001
30
-5.1545712143052924e-09
40
0.49530000000000007
210
0
220
0
230
1
0
CIRCLE
5
590
100
AcDbEntity
8
0
100
AcDbCircle
10
145.52500739999999
20
-6.0600005800000005
30
-5.1545712143052924e-09
40
0.74929999999999997
210
0
220
0
230
1
0
CIRCLE
5
591
100
AcDbEntity
8
0
100
AcDbCircle
10
156.67560739999999
20
-87.387998960000019
30
-5.1545712143052924e-09
40
1.9939
210
0
220
0
230
1
0
CIRCLE
5
592
100
AcDbEntity
8
0
100
AcDbCircle
10
159.21560740000001
20
-82.307998960000006
30
-5.1545712143052924e-09
40
0.74929999999999997
210
0
220
0
230
1
0
CIRCLE
5
593
100
AcDbEntity
8
0
100
AcDbCircle
10
161.75560740000003
20
-87.387998960000019
30
-5.1545712143052924e-09
40
0.85089999999999999
210
0
220
0
230
1
0
CIRCLE
5
594
100
AcDbEntity
8
0
100
AcDbCircle
10
160.38800789999999
20
-76.545000580000007
30
-5.1545712143052924e-09
40
1.9939
210
0
220
0
230
1
0
CIRCLE
5
595
100
AcDbEntity
8
0
100
AcDbCircle
10
160.38800789999999
20
-61.305000579999998
30
-5.1545712143052924e-09
40
1.524
210
0
220
0
230
1
0
CIRCLE
5
596
100
AcDbEntity
8
0
100
AcDbCircle
10
160.03875790000001
20
-68.290000579999997
30
-5.1545712143052924e-09
40
0.85089999999999999
210
0
220
0
230
1
0
CIRCLE
5
597
100
AcDbEntity
8
0
100
AcDbCircle
10
161.30875790000002
20
-65.750000580000005
30
-5.1545712143052924e-09
40
0.74929999999999997
210
0
220
0
230
1
0
CIRCLE
5
598
100
AcDbEntity
8
0
100
AcDbCircle
10
160.97800926000002
20
-56.22500058
30
-5.1545712143052924e-09
40
1.524
210
0
220
0
230
1
0
CIRCLE
5
599
100
AcDbEntity
8
0
100
AcDbCircle
10
160.97800926000002
20
-40.985000579999998
30
-5.1545712143052924e-09
40
1.9939
210
0
220
0
230
1
0
CIRCLE
5
600
100
AcDbEntity
8
0
100
AcDbCircle
10
-159.19999147999999
20
-47.099999779999997
30
-5.1545712143052924e-09
40
0.85089999999999999
210
0
220
0
230
1
0
CIRCLE
5
601
100
AcDbEntity
8
0
100
AcDbCircle
10
-155.38999147999999
20
-52.17999978000001
30
-5.1545712143052924e-09
40
0.49530000000000007
210
0
220
0
230
1
0
CIRCLE
5
602
100
AcDbEntity
8
0
100
AcDbCircle
10
-158.18399148
20
-66.149999780000002
30
-5.1545712143052924e-09
40
1.9939
210
0
220
0
230
1
0
CIRCLE
5
603
100
AcDbEntity
8
0
100
AcDbCircle
10
-155.64399148000001
20
-61.069999780000011
30
-5.1545712143052924e-09
40
0.74929999999999997
210
0
220
0
230
1
0
CIRCLE
5
604
100
AcDbEntity
8
0
100
AcDbCircle
10
-156.91399147999999
20
-71.22999978
30
-5.1545712143052924e-09
40
0.49530000000000007
210
0
220
0
230
1
0
CIRCLE
5
605
100
AcDbEntity
8
0
100
AcDbCircle
10
-159.45399148000001
20
-71.22999978
30
-5.1545712143052924e-09
40
0.49530000000000007
210
0
220
0
230
1
0
CIRCLE
5
606
100
AcDbEntity
8
0
100
AcDbCircle
10
-160.12999216
20
-90.120000099999999
30
-5.1545712143052924e-09
40
0.52070000000000005
210
0
220
0
230
1
0
CIRCLE
5
607
100
AcDbEntity
8
0
100
AcDbCircle
10
-160.12999216
20
-85.619998940000016
30
-5.1545712143052924e-09
40
0.52070000000000005
210
0
220
0
230
1
0
CIRCLE
5
608
100
AcDbEntity
8
0
100
AcDbCircle
10
-155.12999199999999
20
-28.04999978
30
-5.1545712143052924e-09
40
0.85089999999999999
210
0
220
0
230
1
0
CIRCLE
5
609
100
AcDbEntity
8
0
100
AcDbCircle
10
-157.92999148000001
20
-44.559999780000005
30
-5.1545712143052924e-09
40
0.74929999999999997
210
0
220
0
230
1
0
CIRCLE
5
610
100
AcDbEntity
8
0
100
AcDbCircle
10
-154.11999148000001
20
-47.099999779999997
30
-5.1545712143052924e-09
40
1.9939
210
0
220
0
230
1
0
CIRCLE
5
611
100
AcDbEntity
8
0
100
AcDbCircle
10
-160.12999216
20
-94.619998719999998
30
-5.1545712143052924e-09
40
0.52070000000000005
210
0
220
0
230
1
0
CIRCLE
5
612
100
AcDbEntity
8
0
100
AcDbCircle
10
-18.15396166
20
-100.75174414000001
30
-5.1545712143052924e-09
40
0.85089999999999999
210
0
220
0
230
1
0
CIRCLE
5
613
100
AcDbEntity
8
0
100
AcDbCircle
10
-41.003936279999998
20
-101.09303632
30
-5.1545712143052924e-09
40
0.52070000000000005
210
0
220
0
230
1
0
CIRCLE
5
614
100
AcDbEntity
8
0
100
AcDbCircle
10
39.878447039999998
20
-101.60494030000001
30
-5.1545712143052924e-09
40
0.49530000000000007
210
0
220
0
230
1
0
CIRCLE
5
615
100
AcDbEntity
8
0
100
AcDbCircle
10
37.393953660000001
20
-102.13303678000001
30
-5.1545712143052924e-09
40
0.49530000000000007
210
0
220
0
230
1
0
CIRCLE
5
616
100
AcDbEntity
8
0
100
AcDbCircle
10
-45.779870340000002
20
-100.07316536000002
30
-5.1545712143052924e-09
40
0.52070000000000005
210
0
220
0
230
1
0
CIRCLE
5
617
100
AcDbEntity
8
0
100
AcDbCircle
10
-14.068638360000001
20
-99.02336050000001
30
-5.1545712143052924e-09
40
0.74929999999999997
210
0
220
0
230
1
0
CIRCLE
5
618
100
AcDbEntity
8
0
100
AcDbCircle
10
-5.9010016600000004
20
-103.35618902
30
-5.1545712143052924e-09
40
0.85089999999999999
210
0
220
0
230
1
0
CIRCLE
5
619
100
AcDbEntity
8
0
100
AcDbCircle
10
-15.48341074
20
-106.51287562
30
-5.1545712143052924e-09
40
0.52070000000000005
210
0
220
0
230
1
0
CIRCLE
5
620
100
AcDbEntity
8
0
100
AcDbCircle
10
-10.683935959999999
20
-107.53303614000001
30
-5.1545712143052924e-09
40
0.52070000000000005
210
0
220
0
230
1
0
CIRCLE
5
621
100
AcDbEntity
8
0
100
AcDbCircle
10
27.355144679999999
20
-106.21441038
30
-5.1545712143052924e-09
40
1.524
210
0
220
0
230
1
0
CIRCLE
5
622
100
AcDbEntity
8
0
100
AcDbCircle
10
-161.99399148000001
20
-63.60999978000001
30
-5.1545712143052924e-09
40
0.74929999999999997
210
0
220
0
230
1
0
CIRCLE
5
623
100
AcDbEntity
8
0
100
AcDbCircle
10
167.65875790000001
20
-63.210000579999999
30
-5.1545712143052924e-09
40
0.74929999999999997
210
0
220
0
230
1
0
CIRCLE
5
624
100
AcDbEntity
8
0
100
AcDbCircle
10
165.11875790000002
20
-68.290000579999997
30
-5.1545712143052924e-09
40
1.9939
210
0
220
0
230
1
0
CIRCLE
5
625
100
AcDbEntity
8
0
100
AcDbCircle
10
166.3887579
20
-73.370000579999996
30
-5.1545712143052924e-09
40
0.49530000000000007
210
0
220
0
230
1
0
CIRCLE
5
626
100
AcDbEntity
8
0
100
AcDbCircle
10
163.84875790000001
20
-73.370000579999996
30
-5.1545712143052924e-09
40
0.49530000000000007
210
0
220
0
230
1
0
CIRCLE
5
627
100
AcDbEntity
8
0
100
AcDbCircle
10
170.1987579
20
-68.290000579999997
30
-5.1545712143052924e-09
40
0.85089999999999999
210
0
220
0
230
1
0
ENDSEC
0
SECTION
2
OBJECTS
0
DICTIONARY
5
C
100
AcDbDictionary
3
ACAD_GROUP
350
D
3
ACAD_MLINESTYLE
350
17
0
DICTIONARY
5
D
100
AcDbDictionary
0
DICTIONARY
5
1A
330
C
100
AcDbDictionary
0
DICTIONARY
5
17
100
AcDbDictionary
0
ENDSEC
0
EOF
