M48
; DRILL file {KiCad (5.1.10)-1} date 09/30/21 22:09:16
; FORMAT={-:-/ absolute / metric / decimal}
; #@! TF.CreationDate,2021-09-30T22:09:16+07:00
; #@! TF.GenerationSoftware,Kicad,Pcbnew,(5.1.10)-1
FMAT,2
METRIC
T1C0.305
T2C0.600
T3C2.200
T4C0.500
T5C0.650
T6C2.200
%
G90
G05
T1
X72.552Y-65.239
X72.552Y-83.739
X72.552Y-102.239
X72.552Y-120.739
X72.552Y-139.239
X73.733Y-66.89
X73.733Y-85.39
X73.733Y-103.89
X73.733Y-122.39
X73.733Y-140.89
X74.504Y-68.018
X74.504Y-86.518
X74.504Y-105.018
X74.504Y-123.518
X74.504Y-142.018
X75.002Y-66.026
X75.002Y-84.526
X75.002Y-103.026
X75.002Y-121.526
X75.002Y-140.026
X75.502Y-68.016
X75.502Y-86.516
X75.502Y-105.016
X75.502Y-123.516
X75.502Y-142.016
X76.272Y-66.89
X76.272Y-85.39
X76.272Y-103.89
X76.272Y-122.39
X76.272Y-140.89
X77.453Y-65.239
X77.453Y-83.739
X77.453Y-102.239
X77.453Y-120.739
X77.453Y-139.239
X92.552Y-65.239
X92.552Y-83.739
X92.552Y-102.239
X92.552Y-120.739
X92.552Y-139.239
X93.733Y-66.89
X93.733Y-85.39
X93.733Y-103.89
X93.733Y-122.39
X93.733Y-140.89
X94.504Y-68.018
X94.504Y-86.518
X94.504Y-105.018
X94.504Y-123.518
X94.504Y-142.018
X95.002Y-66.026
X95.002Y-84.526
X95.002Y-103.026
X95.002Y-121.526
X95.002Y-140.026
X95.502Y-68.016
X95.502Y-86.516
X95.502Y-105.016
X95.502Y-123.516
X95.502Y-142.016
X96.272Y-66.89
X96.272Y-85.39
X96.272Y-103.89
X96.272Y-122.39
X96.272Y-140.89
X97.453Y-65.239
X97.453Y-83.739
X97.453Y-102.239
X97.453Y-120.739
X97.453Y-139.239
X112.552Y-65.239
X112.552Y-83.739
X112.552Y-102.239
X112.552Y-120.739
X112.552Y-139.239
X113.733Y-66.89
X113.733Y-85.39
X113.733Y-103.89
X113.733Y-122.39
X113.733Y-140.89
X114.504Y-68.018
X114.504Y-86.518
X114.504Y-105.018
X114.504Y-123.518
X114.504Y-142.018
X115.002Y-66.026
X115.002Y-84.526
X115.002Y-103.026
X115.002Y-121.526
X115.002Y-140.026
X115.502Y-68.016
X115.502Y-86.516
X115.502Y-105.016
X115.502Y-123.516
X115.502Y-142.016
X116.272Y-66.89
X116.272Y-85.39
X116.272Y-103.89
X116.272Y-122.39
X116.272Y-140.89
X117.453Y-65.239
X117.453Y-83.739
X117.453Y-102.239
X117.453Y-120.739
X117.453Y-139.239
X132.552Y-65.239
X132.552Y-83.739
X132.552Y-102.239
X132.552Y-120.739
X132.552Y-139.239
X133.732Y-66.89
X133.732Y-85.39
X133.732Y-103.89
X133.732Y-122.39
X133.732Y-140.89
X134.505Y-68.018
X134.505Y-86.518
X134.505Y-105.018
X134.505Y-123.518
X134.505Y-142.018
X135.002Y-66.026
X135.002Y-84.526
X135.002Y-103.026
X135.002Y-121.526
X135.002Y-140.026
X135.502Y-68.016
X135.502Y-86.516
X135.502Y-105.016
X135.502Y-123.516
X135.502Y-142.016
X136.273Y-66.89
X136.273Y-85.39
X136.273Y-103.89
X136.273Y-122.39
X136.273Y-140.89
X137.452Y-65.239
X137.452Y-83.739
X137.452Y-102.239
X137.452Y-120.739
X137.452Y-139.239
X152.552Y-65.239
X152.552Y-83.739
X152.552Y-102.239
X152.552Y-120.739
X152.552Y-139.239
X153.732Y-66.89
X153.732Y-85.39
X153.732Y-103.89
X153.732Y-122.39
X153.732Y-140.89
X154.504Y-68.018
X154.504Y-86.518
X154.504Y-105.018
X154.504Y-123.518
X154.504Y-142.018
X155.002Y-66.026
X155.002Y-84.526
X155.002Y-103.026
X155.002Y-121.526
X155.002Y-140.026
X155.502Y-68.016
X155.502Y-86.516
X155.502Y-105.016
X155.502Y-123.516
X155.502Y-142.016
X156.272Y-66.89
X156.272Y-85.39
X156.272Y-103.89
X156.272Y-122.39
X156.272Y-140.89
X157.452Y-65.239
X157.452Y-83.739
X157.452Y-102.239
X157.452Y-120.739
X157.452Y-139.239
T3
X82.004Y-58.543
X82.004Y-77.043
X82.004Y-95.543
X82.004Y-114.043
X82.004Y-132.543
X102.004Y-58.543
X102.004Y-77.043
X102.004Y-95.543
X102.004Y-114.043
X102.004Y-132.543
X122.004Y-58.543
X122.004Y-77.043
X122.004Y-95.543
X122.004Y-114.043
X122.004Y-132.543
X142.005Y-58.543
X142.005Y-77.043
X142.005Y-95.543
X142.005Y-114.043
X142.005Y-132.543
X162.004Y-58.543
X162.004Y-77.043
X162.004Y-95.543
X162.004Y-114.043
X162.004Y-132.543
T4
X73.48Y-147.293
X73.492Y-56.293
X73.492Y-73.293
X73.492Y-74.793
X73.492Y-91.793
X73.492Y-93.293
X73.492Y-110.293
X73.492Y-111.793
X73.492Y-128.793
X73.492Y-130.293
X74.242Y-56.293
X74.242Y-73.293
X74.242Y-74.793
X74.242Y-91.793
X74.242Y-93.293
X74.242Y-110.293
X74.242Y-111.793
X74.242Y-128.793
X74.242Y-130.293
X74.242Y-147.293
X74.992Y-56.293
X74.992Y-73.293
X74.992Y-74.793
X74.992Y-91.793
X74.992Y-93.293
X74.992Y-110.293
X74.992Y-111.793
X74.992Y-128.793
X74.992Y-130.293
X75.016Y-147.293
X75.766Y-56.293
X75.766Y-73.293
X75.766Y-74.793
X75.766Y-91.793
X75.766Y-93.293
X75.766Y-110.293
X75.766Y-111.793
X75.766Y-128.793
X75.766Y-130.293
X75.766Y-147.293
X76.516Y-147.293
X76.528Y-56.293
X76.528Y-73.293
X76.528Y-74.793
X76.528Y-91.793
X76.528Y-93.293
X76.528Y-110.293
X76.528Y-111.793
X76.528Y-128.793
X76.528Y-130.293
X84.254Y-63.269
X84.254Y-64.031
X84.254Y-64.805
X84.254Y-65.555
X84.254Y-66.305
X84.254Y-81.769
X84.254Y-82.531
X84.254Y-83.305
X84.254Y-84.055
X84.254Y-84.805
X84.254Y-100.269
X84.254Y-101.031
X84.254Y-101.805
X84.254Y-102.555
X84.254Y-103.305
X84.254Y-118.769
X84.254Y-119.531
X84.254Y-120.305
X84.254Y-121.055
X84.254Y-121.805
X84.254Y-137.269
X84.254Y-138.031
X84.254Y-138.805
X84.254Y-139.555
X84.254Y-140.305
X85.754Y-63.269
X85.754Y-64.031
X85.754Y-64.805
X85.754Y-65.555
X85.754Y-66.305
X85.754Y-81.769
X85.754Y-82.531
X85.754Y-83.305
X85.754Y-84.055
X85.754Y-84.805
X85.754Y-100.269
X85.754Y-101.031
X85.754Y-101.805
X85.754Y-102.555
X85.754Y-103.305
X85.754Y-118.769
X85.754Y-119.531
X85.754Y-120.305
X85.754Y-121.055
X85.754Y-121.805
X85.754Y-137.269
X85.754Y-138.031
X85.754Y-138.805
X85.754Y-139.555
X85.754Y-140.305
X93.48Y-147.293
X93.492Y-56.293
X93.492Y-73.293
X93.492Y-74.793
X93.492Y-91.793
X93.492Y-93.293
X93.492Y-110.293
X93.492Y-111.793
X93.492Y-128.793
X93.492Y-130.293
X94.242Y-56.293
X94.242Y-73.293
X94.242Y-74.793
X94.242Y-91.793
X94.242Y-93.293
X94.242Y-110.293
X94.242Y-111.793
X94.242Y-128.793
X94.242Y-130.293
X94.242Y-147.293
X94.992Y-56.293
X94.992Y-73.293
X94.992Y-74.793
X94.992Y-91.793
X94.992Y-93.293
X94.992Y-110.293
X94.992Y-111.793
X94.992Y-128.793
X94.992Y-130.293
X95.016Y-147.293
X95.766Y-56.293
X95.766Y-73.293
X95.766Y-74.793
X95.766Y-91.793
X95.766Y-93.293
X95.766Y-110.293
X95.766Y-111.793
X95.766Y-128.793
X95.766Y-130.293
X95.766Y-147.293
X96.516Y-147.293
X96.528Y-56.293
X96.528Y-73.293
X96.528Y-74.793
X96.528Y-91.793
X96.528Y-93.293
X96.528Y-110.293
X96.528Y-111.793
X96.528Y-128.793
X96.528Y-130.293
X104.254Y-63.269
X104.254Y-64.031
X104.254Y-64.805
X104.254Y-65.555
X104.254Y-66.305
X104.254Y-81.769
X104.254Y-82.531
X104.254Y-83.305
X104.254Y-84.055
X104.254Y-84.805
X104.254Y-100.269
X104.254Y-101.031
X104.254Y-101.805
X104.254Y-102.555
X104.254Y-103.305
X104.254Y-118.769
X104.254Y-119.531
X104.254Y-120.305
X104.254Y-121.055
X104.254Y-121.805
X104.254Y-137.269
X104.254Y-138.031
X104.254Y-138.805
X104.254Y-139.555
X104.254Y-140.305
X105.754Y-63.269
X105.754Y-64.031
X105.754Y-64.805
X105.754Y-65.555
X105.754Y-66.305
X105.754Y-81.769
X105.754Y-82.531
X105.754Y-83.305
X105.754Y-84.055
X105.754Y-84.805
X105.754Y-100.269
X105.754Y-101.031
X105.754Y-101.805
X105.754Y-102.555
X105.754Y-103.305
X105.754Y-118.769
X105.754Y-119.531
X105.754Y-120.305
X105.754Y-121.055
X105.754Y-121.805
X105.754Y-137.269
X105.754Y-138.031
X105.754Y-138.805
X105.754Y-139.555
X105.754Y-140.305
X113.48Y-147.293
X113.492Y-56.293
X113.492Y-73.293
X113.492Y-74.793
X113.492Y-91.793
X113.492Y-93.293
X113.492Y-110.293
X113.492Y-111.793
X113.492Y-128.793
X113.492Y-130.293
X114.242Y-56.293
X114.242Y-73.293
X114.242Y-74.793
X114.242Y-91.793
X114.242Y-93.293
X114.242Y-110.293
X114.242Y-111.793
X114.242Y-128.793
X114.242Y-130.293
X114.242Y-147.293
X114.992Y-56.293
X114.992Y-73.293
X114.992Y-74.793
X114.992Y-91.793
X114.992Y-93.293
X114.992Y-110.293
X114.992Y-111.793
X114.992Y-128.793
X114.992Y-130.293
X115.016Y-147.293
X115.766Y-56.293
X115.766Y-73.293
X115.766Y-74.793
X115.766Y-91.793
X115.766Y-93.293
X115.766Y-110.293
X115.766Y-111.793
X115.766Y-128.793
X115.766Y-130.293
X115.766Y-147.293
X116.516Y-147.293
X116.528Y-56.293
X116.528Y-73.293
X116.528Y-74.793
X116.528Y-91.793
X116.528Y-93.293
X116.528Y-110.293
X116.528Y-111.793
X116.528Y-128.793
X116.528Y-130.293
X124.254Y-63.269
X124.254Y-64.031
X124.254Y-64.805
X124.254Y-65.555
X124.254Y-66.305
X124.254Y-81.769
X124.254Y-82.531
X124.254Y-83.305
X124.254Y-84.055
X124.254Y-84.805
X124.254Y-100.269
X124.254Y-101.031
X124.254Y-101.805
X124.254Y-102.555
X124.254Y-103.305
X124.254Y-118.769
X124.254Y-119.531
X124.254Y-120.305
X124.254Y-121.055
X124.254Y-121.805
X124.254Y-137.269
X124.254Y-138.031
X124.254Y-138.805
X124.254Y-139.555
X124.254Y-140.305
X125.754Y-63.269
X125.754Y-64.031
X125.754Y-64.805
X125.754Y-65.555
X125.754Y-66.305
X125.754Y-81.769
X125.754Y-82.531
X125.754Y-83.305
X125.754Y-84.055
X125.754Y-84.805
X125.754Y-100.269
X125.754Y-101.031
X125.754Y-101.805
X125.754Y-102.555
X125.754Y-103.305
X125.754Y-118.769
X125.754Y-119.531
X125.754Y-120.305
X125.754Y-121.055
X125.754Y-121.805
X125.754Y-137.269
X125.754Y-138.031
X125.754Y-138.805
X125.754Y-139.555
X125.754Y-140.305
X133.481Y-147.293
X133.493Y-56.293
X133.493Y-73.293
X133.493Y-74.793
X133.493Y-91.793
X133.493Y-93.293
X133.493Y-110.293
X133.493Y-111.793
X133.493Y-128.793
X133.493Y-130.293
X134.243Y-56.293
X134.243Y-73.293
X134.243Y-74.793
X134.243Y-91.793
X134.243Y-93.293
X134.243Y-110.293
X134.243Y-111.793
X134.243Y-128.793
X134.243Y-130.293
X134.243Y-147.293
X134.993Y-56.293
X134.993Y-73.293
X134.993Y-74.793
X134.993Y-91.793
X134.993Y-93.293
X134.993Y-110.293
X134.993Y-111.793
X134.993Y-128.793
X134.993Y-130.293
X135.017Y-147.293
X135.767Y-56.293
X135.767Y-73.293
X135.767Y-74.793
X135.767Y-91.793
X135.767Y-93.293
X135.767Y-110.293
X135.767Y-111.793
X135.767Y-128.793
X135.767Y-130.293
X135.767Y-147.293
X136.517Y-147.293
X136.528Y-56.293
X136.528Y-73.293
X136.528Y-74.793
X136.528Y-91.793
X136.528Y-93.293
X136.528Y-110.293
X136.528Y-111.793
X136.528Y-128.793
X136.528Y-130.293
X144.255Y-63.269
X144.255Y-64.031
X144.255Y-64.805
X144.255Y-65.555
X144.255Y-66.305
X144.255Y-81.769
X144.255Y-82.531
X144.255Y-83.305
X144.255Y-84.055
X144.255Y-84.805
X144.255Y-100.269
X144.255Y-101.031
X144.255Y-101.805
X144.255Y-102.555
X144.255Y-103.305
X144.255Y-118.769
X144.255Y-119.531
X144.255Y-120.305
X144.255Y-121.055
X144.255Y-121.805
X144.255Y-137.269
X144.255Y-138.031
X144.255Y-138.805
X144.255Y-139.555
X144.255Y-140.305
X145.755Y-63.269
X145.755Y-64.031
X145.755Y-64.805
X145.755Y-65.555
X145.755Y-66.305
X145.755Y-81.769
X145.755Y-82.531
X145.755Y-83.305
X145.755Y-84.055
X145.755Y-84.805
X145.755Y-100.269
X145.755Y-101.031
X145.755Y-101.805
X145.755Y-102.555
X145.755Y-103.305
X145.755Y-118.769
X145.755Y-119.531
X145.755Y-120.305
X145.755Y-121.055
X145.755Y-121.805
X145.755Y-137.269
X145.755Y-138.031
X145.755Y-138.805
X145.755Y-139.555
X145.755Y-140.305
X153.481Y-147.293
X153.493Y-56.293
X153.493Y-73.293
X153.493Y-74.793
X153.493Y-91.793
X153.493Y-93.293
X153.493Y-110.293
X153.493Y-111.793
X153.493Y-128.793
X153.493Y-130.293
X154.243Y-56.293
X154.243Y-73.293
X154.243Y-74.793
X154.243Y-91.793
X154.243Y-93.293
X154.243Y-110.293
X154.243Y-111.793
X154.243Y-128.793
X154.243Y-130.293
X154.243Y-147.293
X154.993Y-56.293
X154.993Y-73.293
X154.993Y-74.793
X154.993Y-91.793
X154.993Y-93.293
X154.993Y-110.293
X154.993Y-111.793
X154.993Y-128.793
X154.993Y-130.293
X155.016Y-147.293
X155.766Y-56.293
X155.766Y-73.293
X155.766Y-74.793
X155.766Y-91.793
X155.766Y-93.293
X155.766Y-110.293
X155.766Y-111.793
X155.766Y-128.793
X155.766Y-130.293
X155.766Y-147.293
X156.516Y-147.293
X156.528Y-56.293
X156.528Y-73.293
X156.528Y-74.793
X156.528Y-91.793
X156.528Y-93.293
X156.528Y-110.293
X156.528Y-111.793
X156.528Y-128.793
X156.528Y-130.293
T5
X72.112Y-62.792
X72.112Y-81.292
X72.112Y-99.792
X72.112Y-118.292
X72.112Y-136.792
X77.892Y-62.792
X77.892Y-81.292
X77.892Y-99.792
X77.892Y-118.292
X77.892Y-136.792
X92.112Y-62.792
X92.112Y-81.292
X92.112Y-99.792
X92.112Y-118.292
X92.112Y-136.792
X97.892Y-62.792
X97.892Y-81.292
X97.892Y-99.792
X97.892Y-118.292
X97.892Y-136.792
X112.112Y-62.792
X112.112Y-81.292
X112.112Y-99.792
X112.112Y-118.292
X112.112Y-136.792
X117.892Y-62.792
X117.892Y-81.292
X117.892Y-99.792
X117.892Y-118.292
X117.892Y-136.792
X132.112Y-62.792
X132.112Y-81.292
X132.112Y-99.792
X132.112Y-118.292
X132.112Y-136.792
X137.892Y-62.792
X137.892Y-81.292
X137.892Y-99.792
X137.892Y-118.292
X137.892Y-136.792
X152.112Y-62.792
X152.112Y-81.292
X152.112Y-99.792
X152.112Y-118.292
X152.112Y-136.792
X157.892Y-62.792
X157.892Y-81.292
X157.892Y-99.792
X157.892Y-118.292
X157.892Y-136.792
T6
X68.004Y-58.543
X68.004Y-71.043
X68.004Y-77.043
X68.004Y-89.543
X68.004Y-95.543
X68.004Y-108.043
X68.004Y-114.043
X68.004Y-126.543
X68.004Y-132.543
X68.004Y-145.043
X82.004Y-71.043
X82.004Y-89.543
X82.004Y-108.043
X82.004Y-126.543
X82.004Y-145.043
X88.004Y-58.543
X88.004Y-71.043
X88.004Y-77.043
X88.004Y-89.543
X88.004Y-95.543
X88.004Y-108.043
X88.004Y-114.043
X88.004Y-126.543
X88.004Y-132.543
X88.004Y-145.043
X102.004Y-71.043
X102.004Y-89.543
X102.004Y-108.043
X102.004Y-126.543
X102.004Y-145.043
X108.004Y-58.543
X108.004Y-71.043
X108.004Y-77.043
X108.004Y-89.543
X108.004Y-95.543
X108.004Y-108.043
X108.004Y-114.043
X108.004Y-126.543
X108.004Y-132.543
X108.004Y-145.043
X122.004Y-71.043
X122.004Y-89.543
X122.004Y-108.043
X122.004Y-126.543
X122.004Y-145.043
X128.005Y-58.543
X128.005Y-71.043
X128.005Y-77.043
X128.005Y-89.543
X128.005Y-95.543
X128.005Y-108.043
X128.005Y-114.043
X128.005Y-126.543
X128.005Y-132.543
X128.005Y-145.043
X142.005Y-71.043
X142.005Y-89.543
X142.005Y-108.043
X142.005Y-126.543
X142.005Y-145.043
X148.005Y-58.543
X148.005Y-71.043
X148.005Y-77.043
X148.005Y-89.543
X148.005Y-95.543
X148.005Y-108.043
X148.005Y-114.043
X148.005Y-126.543
X148.005Y-132.543
X148.005Y-145.043
X162.004Y-71.043
X162.004Y-89.543
X162.004Y-108.043
X162.004Y-126.543
X162.004Y-145.043
T2
G00X70.703Y-59.443
M15
G01X70.703Y-58.843
M16
G05
G00X70.703Y-63.893
M15
G01X70.703Y-62.793
M16
G05
G00X70.703Y-77.943
M15
G01X70.703Y-77.343
M16
G05
G00X70.703Y-82.393
M15
G01X70.703Y-81.293
M16
G05
G00X70.703Y-96.443
M15
G01X70.703Y-95.843
M16
G05
G00X70.703Y-100.893
M15
G01X70.703Y-99.793
M16
G05
G00X70.703Y-114.943
M15
G01X70.703Y-114.343
M16
G05
G00X70.703Y-119.393
M15
G01X70.703Y-118.293
M16
G05
G00X70.703Y-133.443
M15
G01X70.703Y-132.843
M16
G05
G00X70.703Y-137.893
M15
G01X70.703Y-136.793
M16
G05
G00X79.302Y-59.443
M15
G01X79.302Y-58.843
M16
G05
G00X79.302Y-63.893
M15
G01X79.302Y-62.793
M16
G05
G00X79.302Y-77.943
M15
G01X79.302Y-77.343
M16
G05
G00X79.302Y-82.393
M15
G01X79.302Y-81.293
M16
G05
G00X79.302Y-96.443
M15
G01X79.302Y-95.843
M16
G05
G00X79.302Y-100.893
M15
G01X79.302Y-99.793
M16
G05
G00X79.302Y-114.943
M15
G01X79.302Y-114.343
M16
G05
G00X79.302Y-119.393
M15
G01X79.302Y-118.293
M16
G05
G00X79.302Y-133.443
M15
G01X79.302Y-132.843
M16
G05
G00X79.302Y-137.893
M15
G01X79.302Y-136.793
M16
G05
G00X90.703Y-59.443
M15
G01X90.703Y-58.843
M16
G05
G00X90.703Y-63.893
M15
G01X90.703Y-62.793
M16
G05
G00X90.703Y-77.943
M15
G01X90.703Y-77.343
M16
G05
G00X90.703Y-82.393
M15
G01X90.703Y-81.293
M16
G05
G00X90.703Y-96.443
M15
G01X90.703Y-95.843
M16
G05
G00X90.703Y-100.893
M15
G01X90.703Y-99.793
M16
G05
G00X90.703Y-114.943
M15
G01X90.703Y-114.343
M16
G05
G00X90.703Y-119.393
M15
G01X90.703Y-118.293
M16
G05
G00X90.703Y-133.443
M15
G01X90.703Y-132.843
M16
G05
G00X90.703Y-137.893
M15
G01X90.703Y-136.793
M16
G05
G00X99.302Y-59.443
M15
G01X99.302Y-58.843
M16
G05
G00X99.302Y-63.893
M15
G01X99.302Y-62.793
M16
G05
G00X99.302Y-77.943
M15
G01X99.302Y-77.343
M16
G05
G00X99.302Y-82.393
M15
G01X99.302Y-81.293
M16
G05
G00X99.302Y-96.443
M15
G01X99.302Y-95.843
M16
G05
G00X99.302Y-100.893
M15
G01X99.302Y-99.793
M16
G05
G00X99.302Y-114.943
M15
G01X99.302Y-114.343
M16
G05
G00X99.302Y-119.393
M15
G01X99.302Y-118.293
M16
G05
G00X99.302Y-133.443
M15
G01X99.302Y-132.843
M16
G05
G00X99.302Y-137.893
M15
G01X99.302Y-136.793
M16
G05
G00X110.703Y-59.443
M15
G01X110.703Y-58.843
M16
G05
G00X110.703Y-63.893
M15
G01X110.703Y-62.793
M16
G05
G00X110.703Y-77.943
M15
G01X110.703Y-77.343
M16
G05
G00X110.703Y-82.393
M15
G01X110.703Y-81.293
M16
G05
G00X110.703Y-96.443
M15
G01X110.703Y-95.843
M16
G05
G00X110.703Y-100.893
M15
G01X110.703Y-99.793
M16
G05
G00X110.703Y-114.943
M15
G01X110.703Y-114.343
M16
G05
G00X110.703Y-119.393
M15
G01X110.703Y-118.293
M16
G05
G00X110.703Y-133.443
M15
G01X110.703Y-132.843
M16
G05
G00X110.703Y-137.893
M15
G01X110.703Y-136.793
M16
G05
G00X119.302Y-59.443
M15
G01X119.302Y-58.843
M16
G05
G00X119.302Y-63.893
M15
G01X119.302Y-62.793
M16
G05
G00X119.302Y-77.943
M15
G01X119.302Y-77.343
M16
G05
G00X119.302Y-82.393
M15
G01X119.302Y-81.293
M16
G05
G00X119.302Y-96.443
M15
G01X119.302Y-95.843
M16
G05
G00X119.302Y-100.893
M15
G01X119.302Y-99.793
M16
G05
G00X119.302Y-114.943
M15
G01X119.302Y-114.343
M16
G05
G00X119.302Y-119.393
M15
G01X119.302Y-118.293
M16
G05
G00X119.302Y-133.443
M15
G01X119.302Y-132.843
M16
G05
G00X119.302Y-137.893
M15
G01X119.302Y-136.793
M16
G05
G00X130.702Y-59.443
M15
G01X130.702Y-58.843
M16
G05
G00X130.702Y-63.893
M15
G01X130.702Y-62.793
M16
G05
G00X130.702Y-77.943
M15
G01X130.702Y-77.343
M16
G05
G00X130.702Y-82.393
M15
G01X130.702Y-81.293
M16
G05
G00X130.702Y-96.443
M15
G01X130.702Y-95.843
M16
G05
G00X130.702Y-100.893
M15
G01X130.702Y-99.793
M16
G05
G00X130.702Y-114.943
M15
G01X130.702Y-114.343
M16
G05
G00X130.702Y-119.393
M15
G01X130.702Y-118.293
M16
G05
G00X130.702Y-133.443
M15
G01X130.702Y-132.843
M16
G05
G00X130.702Y-137.893
M15
G01X130.702Y-136.793
M16
G05
G00X139.302Y-59.443
M15
G01X139.302Y-58.843
M16
G05
G00X139.302Y-63.893
M15
G01X139.302Y-62.793
M16
G05
G00X139.302Y-77.943
M15
G01X139.302Y-77.343
M16
G05
G00X139.302Y-82.393
M15
G01X139.302Y-81.293
M16
G05
G00X139.302Y-96.443
M15
G01X139.302Y-95.843
M16
G05
G00X139.302Y-100.893
M15
G01X139.302Y-99.793
M16
G05
G00X139.302Y-114.943
M15
G01X139.302Y-114.343
M16
G05
G00X139.302Y-119.393
M15
G01X139.302Y-118.293
M16
G05
G00X139.302Y-133.443
M15
G01X139.302Y-132.843
M16
G05
G00X139.302Y-137.893
M15
G01X139.302Y-136.793
M16
G05
G00X150.702Y-59.443
M15
G01X150.702Y-58.843
M16
G05
G00X150.702Y-63.893
M15
G01X150.702Y-62.793
M16
G05
G00X150.702Y-77.943
M15
G01X150.702Y-77.343
M16
G05
G00X150.702Y-82.393
M15
G01X150.702Y-81.293
M16
G05
G00X150.702Y-96.443
M15
G01X150.702Y-95.843
M16
G05
G00X150.702Y-100.893
M15
G01X150.702Y-99.793
M16
G05
G00X150.702Y-114.943
M15
G01X150.702Y-114.343
M16
G05
G00X150.702Y-119.393
M15
G01X150.702Y-118.293
M16
G05
G00X150.702Y-133.443
M15
G01X150.702Y-132.843
M16
G05
G00X150.702Y-137.893
M15
G01X150.702Y-136.793
M16
G05
G00X159.302Y-59.443
M15
G01X159.302Y-58.843
M16
G05
G00X159.302Y-63.893
M15
G01X159.302Y-62.793
M16
G05
G00X159.302Y-77.943
M15
G01X159.302Y-77.343
M16
G05
G00X159.302Y-82.393
M15
G01X159.302Y-81.293
M16
G05
G00X159.302Y-96.443
M15
G01X159.302Y-95.843
M16
G05
G00X159.302Y-100.893
M15
G01X159.302Y-99.793
M16
G05
G00X159.302Y-114.943
M15
G01X159.302Y-114.343
M16
G05
G00X159.302Y-119.393
M15
G01X159.302Y-118.293
M16
G05
G00X159.302Y-133.443
M15
G01X159.302Y-132.843
M16
G05
G00X159.302Y-137.893
M15
G01X159.302Y-136.793
M16
G05
T0
M30
