%TF.GenerationSoftware,KiCad,Pcbnew,(5.1.10)-1*%
%TF.CreationDate,2021-07-26T00:02:16+07:00*%
%TF.ProjectId,Leopold Replacement,4c656f70-6f6c-4642-9052-65706c616365,rev?*%
%TF.SameCoordinates,Original*%
%TF.FileFunction,Paste,Bot*%
%TF.FilePolarity,Positive*%
%FSLAX46Y46*%
G04 Gerber Fmt 4.6, Leading zero omitted, Abs format (unit mm)*
G04 Created by KiCad (PCBNEW (5.1.10)-1) date 2021-07-26 00:02:16*
%MOMM*%
%LPD*%
G01*
G04 APERTURE LIST*
%ADD10R,0.500000X2.250000*%
%ADD11R,1.200000X0.900000*%
%ADD12R,1.400000X1.200000*%
%ADD13R,0.700000X1.000000*%
%ADD14R,0.700000X0.600000*%
%ADD15R,1.100000X1.800000*%
%ADD16C,0.100000*%
%ADD17R,0.750000X0.800000*%
%ADD18R,0.800000X0.750000*%
%ADD19R,0.900000X1.200000*%
%ADD20R,0.700000X1.300000*%
%ADD21R,1.300000X0.700000*%
G04 APERTURE END LIST*
D10*
%TO.C,J1*%
X293350000Y-6000000D03*
X292550000Y-6000000D03*
X291750000Y-6000000D03*
X290950000Y-6000000D03*
X290150000Y-6000000D03*
%TD*%
D11*
%TO.C,D44*%
X213717367Y-65885000D03*
X213717367Y-69185000D03*
%TD*%
%TO.C,D40*%
X194707367Y-65885000D03*
X194707367Y-69185000D03*
%TD*%
D12*
%TO.C,Y1*%
X307068400Y-34659200D03*
X304868400Y-34659200D03*
X304868400Y-36359200D03*
X307068400Y-36359200D03*
%TD*%
D13*
%TO.C,U1*%
X292750000Y-11250000D03*
D14*
X290750000Y-11050000D03*
X292750000Y-12950000D03*
X290750000Y-12950000D03*
%TD*%
D11*
%TO.C,D70*%
X116142000Y-81787000D03*
X116142000Y-78487000D03*
%TD*%
%TO.C,D69*%
X256717000Y-81787000D03*
X256717000Y-78487000D03*
%TD*%
%TO.C,D68*%
X234954500Y-81787000D03*
X234954500Y-78487000D03*
%TD*%
%TO.C,D67*%
X211192000Y-81787000D03*
X211192000Y-78487000D03*
%TD*%
%TO.C,D66*%
X276227000Y-81787000D03*
X276227000Y-78487000D03*
%TD*%
%TO.C,D65*%
X279227000Y-81787000D03*
X279227000Y-78487000D03*
%TD*%
%TO.C,D64*%
X260717000Y-81787000D03*
X260717000Y-78487000D03*
%TD*%
%TO.C,D63*%
X68617000Y-81787000D03*
X68617000Y-78487000D03*
%TD*%
%TO.C,D60*%
X44854500Y-81787000D03*
X44854500Y-78487000D03*
%TD*%
%TO.C,D59*%
X25844500Y-81787000D03*
X25844500Y-78487000D03*
%TD*%
D15*
%TO.C,SW1*%
X307850000Y-43400000D03*
X304150000Y-49600000D03*
X304150000Y-43400000D03*
X307850000Y-49600000D03*
%TD*%
D16*
%TO.C,D3*%
G36*
X23964908Y-42612597D02*
G01*
X24813436Y-43461125D01*
X24177040Y-44097521D01*
X23328512Y-43248993D01*
X23964908Y-42612597D01*
G37*
G36*
X26298360Y-40279145D02*
G01*
X27146888Y-41127673D01*
X26510492Y-41764069D01*
X25661964Y-40915541D01*
X26298360Y-40279145D01*
G37*
%TD*%
D11*
%TO.C,D24*%
X119812500Y-65885000D03*
X119812500Y-69185000D03*
%TD*%
D16*
%TO.C,D23*%
G36*
X126143708Y-42612597D02*
G01*
X126992236Y-43461125D01*
X126355840Y-44097521D01*
X125507312Y-43248993D01*
X126143708Y-42612597D01*
G37*
G36*
X128477160Y-40279145D02*
G01*
X129325688Y-41127673D01*
X128689292Y-41764069D01*
X127840764Y-40915541D01*
X128477160Y-40279145D01*
G37*
%TD*%
%TO.C,D35*%
G36*
X183173708Y-42612597D02*
G01*
X184022236Y-43461125D01*
X183385840Y-44097521D01*
X182537312Y-43248993D01*
X183173708Y-42612597D01*
G37*
G36*
X185507160Y-40279145D02*
G01*
X186355688Y-41127673D01*
X185719292Y-41764069D01*
X184870764Y-40915541D01*
X185507160Y-40279145D01*
G37*
%TD*%
%TO.C,D27*%
G36*
X145153708Y-42612597D02*
G01*
X146002236Y-43461125D01*
X145365840Y-44097521D01*
X144517312Y-43248993D01*
X145153708Y-42612597D01*
G37*
G36*
X147487160Y-40279145D02*
G01*
X148335688Y-41127673D01*
X147699292Y-41764069D01*
X146850764Y-40915541D01*
X147487160Y-40279145D01*
G37*
%TD*%
D11*
%TO.C,D20*%
X99302500Y-65885000D03*
X99302500Y-69185000D03*
%TD*%
%TO.C,D28*%
X138822500Y-65885000D03*
X138822500Y-69185000D03*
%TD*%
%TO.C,D12*%
X62782500Y-65885000D03*
X62782500Y-69185000D03*
%TD*%
D16*
%TO.C,D11*%
G36*
X69113708Y-42612597D02*
G01*
X69962236Y-43461125D01*
X69325840Y-44097521D01*
X68477312Y-43248993D01*
X69113708Y-42612597D01*
G37*
G36*
X71447160Y-40279145D02*
G01*
X72295688Y-41127673D01*
X71659292Y-41764069D01*
X70810764Y-40915541D01*
X71447160Y-40279145D01*
G37*
%TD*%
D11*
%TO.C,D16*%
X102302500Y-65885000D03*
X102302500Y-69185000D03*
%TD*%
%TO.C,D4*%
X45272500Y-65885000D03*
X45272500Y-69185000D03*
%TD*%
%TO.C,D8*%
X42272500Y-65885000D03*
X42272500Y-69185000D03*
%TD*%
D16*
%TO.C,D7*%
G36*
X50103708Y-42612597D02*
G01*
X50952236Y-43461125D01*
X50315840Y-44097521D01*
X49467312Y-43248993D01*
X50103708Y-42612597D01*
G37*
G36*
X52437160Y-40279145D02*
G01*
X53285688Y-41127673D01*
X52649292Y-41764069D01*
X51800764Y-40915541D01*
X52437160Y-40279145D01*
G37*
%TD*%
%TO.C,D15*%
G36*
X90457160Y-40279145D02*
G01*
X91305688Y-41127673D01*
X90669292Y-41764069D01*
X89820764Y-40915541D01*
X90457160Y-40279145D01*
G37*
G36*
X88123708Y-42612597D02*
G01*
X88972236Y-43461125D01*
X88335840Y-44097521D01*
X87487312Y-43248993D01*
X88123708Y-42612597D01*
G37*
%TD*%
%TO.C,D19*%
G36*
X107133708Y-42612597D02*
G01*
X107982236Y-43461125D01*
X107345840Y-44097521D01*
X106497312Y-43248993D01*
X107133708Y-42612597D01*
G37*
G36*
X109467160Y-40279145D02*
G01*
X110315688Y-41127673D01*
X109679292Y-41764069D01*
X108830764Y-40915541D01*
X109467160Y-40279145D01*
G37*
%TD*%
%TO.C,D31*%
G36*
X164163708Y-42612597D02*
G01*
X165012236Y-43461125D01*
X164375840Y-44097521D01*
X163527312Y-43248993D01*
X164163708Y-42612597D01*
G37*
G36*
X166497160Y-40279145D02*
G01*
X167345688Y-41127673D01*
X166709292Y-41764069D01*
X165860764Y-40915541D01*
X166497160Y-40279145D01*
G37*
%TD*%
D11*
%TO.C,D36*%
X176842500Y-65885000D03*
X176842500Y-69185000D03*
%TD*%
D16*
%TO.C,D39*%
G36*
X202183708Y-42612597D02*
G01*
X203032236Y-43461125D01*
X202395840Y-44097521D01*
X201547312Y-43248993D01*
X202183708Y-42612597D01*
G37*
G36*
X204517160Y-40279145D02*
G01*
X205365688Y-41127673D01*
X204729292Y-41764069D01*
X203880764Y-40915541D01*
X204517160Y-40279145D01*
G37*
%TD*%
D11*
%TO.C,D32*%
X157832500Y-65885000D03*
X157832500Y-69185000D03*
%TD*%
%TO.C,D58*%
X273018750Y-69185000D03*
X273018750Y-65885000D03*
%TD*%
%TO.C,D52*%
X275629919Y-65885000D03*
X275629919Y-69185000D03*
%TD*%
D16*
%TO.C,D43*%
G36*
X221193708Y-42612597D02*
G01*
X222042236Y-43461125D01*
X221405840Y-44097521D01*
X220557312Y-43248993D01*
X221193708Y-42612597D01*
G37*
G36*
X223527160Y-40279145D02*
G01*
X224375688Y-41127673D01*
X223739292Y-41764069D01*
X222890764Y-40915541D01*
X223527160Y-40279145D01*
G37*
%TD*%
%TO.C,D47*%
G36*
X240203708Y-42612597D02*
G01*
X241052236Y-43461125D01*
X240415840Y-44097521D01*
X239567312Y-43248993D01*
X240203708Y-42612597D01*
G37*
G36*
X242537160Y-40279145D02*
G01*
X243385688Y-41127673D01*
X242749292Y-41764069D01*
X241900764Y-40915541D01*
X242537160Y-40279145D01*
G37*
%TD*%
D11*
%TO.C,D48*%
X216098619Y-65885000D03*
X216098619Y-69185000D03*
%TD*%
D16*
%TO.C,D51*%
G36*
X259605864Y-40896792D02*
G01*
X260454392Y-40048264D01*
X261090788Y-40684660D01*
X260242260Y-41533188D01*
X259605864Y-40896792D01*
G37*
G36*
X257272412Y-38563340D02*
G01*
X258120940Y-37714812D01*
X258757336Y-38351208D01*
X257908808Y-39199736D01*
X257272412Y-38563340D01*
G37*
%TD*%
D11*
%TO.C,D56*%
X294084622Y-69185000D03*
X294084622Y-65885000D03*
%TD*%
D17*
%TO.C,C2*%
X308968400Y-34759200D03*
X308968400Y-36259200D03*
%TD*%
D18*
%TO.C,C3*%
X306718400Y-33009200D03*
X305218400Y-33009200D03*
%TD*%
D16*
%TO.C,D42*%
G36*
X213306688Y-32994708D02*
G01*
X212458160Y-33843236D01*
X211821764Y-33206840D01*
X212670292Y-32358312D01*
X213306688Y-32994708D01*
G37*
G36*
X215640140Y-35328160D02*
G01*
X214791612Y-36176688D01*
X214155216Y-35540292D01*
X215003744Y-34691764D01*
X215640140Y-35328160D01*
G37*
%TD*%
%TO.C,D14*%
G36*
X80236688Y-32994708D02*
G01*
X79388160Y-33843236D01*
X78751764Y-33206840D01*
X79600292Y-32358312D01*
X80236688Y-32994708D01*
G37*
G36*
X82570140Y-35328160D02*
G01*
X81721612Y-36176688D01*
X81085216Y-35540292D01*
X81933744Y-34691764D01*
X82570140Y-35328160D01*
G37*
%TD*%
%TO.C,D26*%
G36*
X137266688Y-32994708D02*
G01*
X136418160Y-33843236D01*
X135781764Y-33206840D01*
X136630292Y-32358312D01*
X137266688Y-32994708D01*
G37*
G36*
X139600140Y-35328160D02*
G01*
X138751612Y-36176688D01*
X138115216Y-35540292D01*
X138963744Y-34691764D01*
X139600140Y-35328160D01*
G37*
%TD*%
%TO.C,D22*%
G36*
X118256688Y-32994708D02*
G01*
X117408160Y-33843236D01*
X116771764Y-33206840D01*
X117620292Y-32358312D01*
X118256688Y-32994708D01*
G37*
G36*
X120590140Y-35328160D02*
G01*
X119741612Y-36176688D01*
X119105216Y-35540292D01*
X119953744Y-34691764D01*
X120590140Y-35328160D01*
G37*
%TD*%
%TO.C,D10*%
G36*
X61226688Y-32994708D02*
G01*
X60378160Y-33843236D01*
X59741764Y-33206840D01*
X60590292Y-32358312D01*
X61226688Y-32994708D01*
G37*
G36*
X63560140Y-35328160D02*
G01*
X62711612Y-36176688D01*
X62075216Y-35540292D01*
X62923744Y-34691764D01*
X63560140Y-35328160D01*
G37*
%TD*%
%TO.C,D6*%
G36*
X42216688Y-32994708D02*
G01*
X41368160Y-33843236D01*
X40731764Y-33206840D01*
X41580292Y-32358312D01*
X42216688Y-32994708D01*
G37*
G36*
X44550140Y-35328160D02*
G01*
X43701612Y-36176688D01*
X43065216Y-35540292D01*
X43913744Y-34691764D01*
X44550140Y-35328160D01*
G37*
%TD*%
%TO.C,D18*%
G36*
X99246688Y-32994708D02*
G01*
X98398160Y-33843236D01*
X97761764Y-33206840D01*
X98610292Y-32358312D01*
X99246688Y-32994708D01*
G37*
G36*
X101580140Y-35328160D02*
G01*
X100731612Y-36176688D01*
X100095216Y-35540292D01*
X100943744Y-34691764D01*
X101580140Y-35328160D01*
G37*
%TD*%
%TO.C,D2*%
G36*
X18454188Y-32994708D02*
G01*
X17605660Y-33843236D01*
X16969264Y-33206840D01*
X17817792Y-32358312D01*
X18454188Y-32994708D01*
G37*
G36*
X20787640Y-35328160D02*
G01*
X19939112Y-36176688D01*
X19302716Y-35540292D01*
X20151244Y-34691764D01*
X20787640Y-35328160D01*
G37*
%TD*%
%TO.C,D34*%
G36*
X175286688Y-32994708D02*
G01*
X174438160Y-33843236D01*
X173801764Y-33206840D01*
X174650292Y-32358312D01*
X175286688Y-32994708D01*
G37*
G36*
X177620140Y-35328160D02*
G01*
X176771612Y-36176688D01*
X176135216Y-35540292D01*
X176983744Y-34691764D01*
X177620140Y-35328160D01*
G37*
%TD*%
%TO.C,D30*%
G36*
X156276688Y-32994708D02*
G01*
X155428160Y-33843236D01*
X154791764Y-33206840D01*
X155640292Y-32358312D01*
X156276688Y-32994708D01*
G37*
G36*
X158610140Y-35328160D02*
G01*
X157761612Y-36176688D01*
X157125216Y-35540292D01*
X157973744Y-34691764D01*
X158610140Y-35328160D01*
G37*
%TD*%
%TO.C,D38*%
G36*
X194296688Y-32994708D02*
G01*
X193448160Y-33843236D01*
X192811764Y-33206840D01*
X193660292Y-32358312D01*
X194296688Y-32994708D01*
G37*
G36*
X196630140Y-35328160D02*
G01*
X195781612Y-36176688D01*
X195145216Y-35540292D01*
X195993744Y-34691764D01*
X196630140Y-35328160D01*
G37*
%TD*%
%TO.C,D50*%
G36*
X251326688Y-32994708D02*
G01*
X250478160Y-33843236D01*
X249841764Y-33206840D01*
X250690292Y-32358312D01*
X251326688Y-32994708D01*
G37*
G36*
X253660140Y-35328160D02*
G01*
X252811612Y-36176688D01*
X252175216Y-35540292D01*
X253023744Y-34691764D01*
X253660140Y-35328160D01*
G37*
%TD*%
D19*
%TO.C,D62*%
X304545000Y-19177000D03*
X301245000Y-19177000D03*
%TD*%
%TO.C,D54*%
X269264400Y-21132800D03*
X265964400Y-21132800D03*
%TD*%
D16*
%TO.C,D46*%
G36*
X232316688Y-32994708D02*
G01*
X231468160Y-33843236D01*
X230831764Y-33206840D01*
X231680292Y-32358312D01*
X232316688Y-32994708D01*
G37*
G36*
X234650140Y-35328160D02*
G01*
X233801612Y-36176688D01*
X233165216Y-35540292D01*
X234013744Y-34691764D01*
X234650140Y-35328160D01*
G37*
%TD*%
D20*
%TO.C,R8*%
X12258000Y-56959500D03*
X14158000Y-56959500D03*
%TD*%
%TO.C,U2*%
G36*
G01*
X293415000Y-30915000D02*
X293955000Y-30915000D01*
G75*
G02*
X294205000Y-31165000I0J-250000D01*
G01*
X294205000Y-31705000D01*
G75*
G02*
X293955000Y-31955000I-250000J0D01*
G01*
X293415000Y-31955000D01*
G75*
G02*
X293165000Y-31705000I0J250000D01*
G01*
X293165000Y-31165000D01*
G75*
G02*
X293415000Y-30915000I250000J0D01*
G01*
G37*
G36*
G01*
X292125000Y-30915000D02*
X292665000Y-30915000D01*
G75*
G02*
X292915000Y-31165000I0J-250000D01*
G01*
X292915000Y-31705000D01*
G75*
G02*
X292665000Y-31955000I-250000J0D01*
G01*
X292125000Y-31955000D01*
G75*
G02*
X291875000Y-31705000I0J250000D01*
G01*
X291875000Y-31165000D01*
G75*
G02*
X292125000Y-30915000I250000J0D01*
G01*
G37*
G36*
G01*
X290835000Y-30915000D02*
X291375000Y-30915000D01*
G75*
G02*
X291625000Y-31165000I0J-250000D01*
G01*
X291625000Y-31705000D01*
G75*
G02*
X291375000Y-31955000I-250000J0D01*
G01*
X290835000Y-31955000D01*
G75*
G02*
X290585000Y-31705000I0J250000D01*
G01*
X290585000Y-31165000D01*
G75*
G02*
X290835000Y-30915000I250000J0D01*
G01*
G37*
G36*
G01*
X289545000Y-30915000D02*
X290085000Y-30915000D01*
G75*
G02*
X290335000Y-31165000I0J-250000D01*
G01*
X290335000Y-31705000D01*
G75*
G02*
X290085000Y-31955000I-250000J0D01*
G01*
X289545000Y-31955000D01*
G75*
G02*
X289295000Y-31705000I0J250000D01*
G01*
X289295000Y-31165000D01*
G75*
G02*
X289545000Y-30915000I250000J0D01*
G01*
G37*
G36*
G01*
X293415000Y-29625000D02*
X293955000Y-29625000D01*
G75*
G02*
X294205000Y-29875000I0J-250000D01*
G01*
X294205000Y-30415000D01*
G75*
G02*
X293955000Y-30665000I-250000J0D01*
G01*
X293415000Y-30665000D01*
G75*
G02*
X293165000Y-30415000I0J250000D01*
G01*
X293165000Y-29875000D01*
G75*
G02*
X293415000Y-29625000I250000J0D01*
G01*
G37*
G36*
G01*
X292125000Y-29625000D02*
X292665000Y-29625000D01*
G75*
G02*
X292915000Y-29875000I0J-250000D01*
G01*
X292915000Y-30415000D01*
G75*
G02*
X292665000Y-30665000I-250000J0D01*
G01*
X292125000Y-30665000D01*
G75*
G02*
X291875000Y-30415000I0J250000D01*
G01*
X291875000Y-29875000D01*
G75*
G02*
X292125000Y-29625000I250000J0D01*
G01*
G37*
G36*
G01*
X290835000Y-29625000D02*
X291375000Y-29625000D01*
G75*
G02*
X291625000Y-29875000I0J-250000D01*
G01*
X291625000Y-30415000D01*
G75*
G02*
X291375000Y-30665000I-250000J0D01*
G01*
X290835000Y-30665000D01*
G75*
G02*
X290585000Y-30415000I0J250000D01*
G01*
X290585000Y-29875000D01*
G75*
G02*
X290835000Y-29625000I250000J0D01*
G01*
G37*
G36*
G01*
X289545000Y-29625000D02*
X290085000Y-29625000D01*
G75*
G02*
X290335000Y-29875000I0J-250000D01*
G01*
X290335000Y-30415000D01*
G75*
G02*
X290085000Y-30665000I-250000J0D01*
G01*
X289545000Y-30665000D01*
G75*
G02*
X289295000Y-30415000I0J250000D01*
G01*
X289295000Y-29875000D01*
G75*
G02*
X289545000Y-29625000I250000J0D01*
G01*
G37*
G36*
G01*
X293415000Y-28335000D02*
X293955000Y-28335000D01*
G75*
G02*
X294205000Y-28585000I0J-250000D01*
G01*
X294205000Y-29125000D01*
G75*
G02*
X293955000Y-29375000I-250000J0D01*
G01*
X293415000Y-29375000D01*
G75*
G02*
X293165000Y-29125000I0J250000D01*
G01*
X293165000Y-28585000D01*
G75*
G02*
X293415000Y-28335000I250000J0D01*
G01*
G37*
G36*
G01*
X292125000Y-28335000D02*
X292665000Y-28335000D01*
G75*
G02*
X292915000Y-28585000I0J-250000D01*
G01*
X292915000Y-29125000D01*
G75*
G02*
X292665000Y-29375000I-250000J0D01*
G01*
X292125000Y-29375000D01*
G75*
G02*
X291875000Y-29125000I0J250000D01*
G01*
X291875000Y-28585000D01*
G75*
G02*
X292125000Y-28335000I250000J0D01*
G01*
G37*
G36*
G01*
X290835000Y-28335000D02*
X291375000Y-28335000D01*
G75*
G02*
X291625000Y-28585000I0J-250000D01*
G01*
X291625000Y-29125000D01*
G75*
G02*
X291375000Y-29375000I-250000J0D01*
G01*
X290835000Y-29375000D01*
G75*
G02*
X290585000Y-29125000I0J250000D01*
G01*
X290585000Y-28585000D01*
G75*
G02*
X290835000Y-28335000I250000J0D01*
G01*
G37*
G36*
G01*
X289545000Y-28335000D02*
X290085000Y-28335000D01*
G75*
G02*
X290335000Y-28585000I0J-250000D01*
G01*
X290335000Y-29125000D01*
G75*
G02*
X290085000Y-29375000I-250000J0D01*
G01*
X289545000Y-29375000D01*
G75*
G02*
X289295000Y-29125000I0J250000D01*
G01*
X289295000Y-28585000D01*
G75*
G02*
X289545000Y-28335000I250000J0D01*
G01*
G37*
G36*
G01*
X293415000Y-27045000D02*
X293955000Y-27045000D01*
G75*
G02*
X294205000Y-27295000I0J-250000D01*
G01*
X294205000Y-27835000D01*
G75*
G02*
X293955000Y-28085000I-250000J0D01*
G01*
X293415000Y-28085000D01*
G75*
G02*
X293165000Y-27835000I0J250000D01*
G01*
X293165000Y-27295000D01*
G75*
G02*
X293415000Y-27045000I250000J0D01*
G01*
G37*
G36*
G01*
X292125000Y-27045000D02*
X292665000Y-27045000D01*
G75*
G02*
X292915000Y-27295000I0J-250000D01*
G01*
X292915000Y-27835000D01*
G75*
G02*
X292665000Y-28085000I-250000J0D01*
G01*
X292125000Y-28085000D01*
G75*
G02*
X291875000Y-27835000I0J250000D01*
G01*
X291875000Y-27295000D01*
G75*
G02*
X292125000Y-27045000I250000J0D01*
G01*
G37*
G36*
G01*
X290835000Y-27045000D02*
X291375000Y-27045000D01*
G75*
G02*
X291625000Y-27295000I0J-250000D01*
G01*
X291625000Y-27835000D01*
G75*
G02*
X291375000Y-28085000I-250000J0D01*
G01*
X290835000Y-28085000D01*
G75*
G02*
X290585000Y-27835000I0J250000D01*
G01*
X290585000Y-27295000D01*
G75*
G02*
X290835000Y-27045000I250000J0D01*
G01*
G37*
G36*
G01*
X289545000Y-27045000D02*
X290085000Y-27045000D01*
G75*
G02*
X290335000Y-27295000I0J-250000D01*
G01*
X290335000Y-27835000D01*
G75*
G02*
X290085000Y-28085000I-250000J0D01*
G01*
X289545000Y-28085000D01*
G75*
G02*
X289295000Y-27835000I0J250000D01*
G01*
X289295000Y-27295000D01*
G75*
G02*
X289545000Y-27045000I250000J0D01*
G01*
G37*
G36*
G01*
X287937500Y-26875000D02*
X288687500Y-26875000D01*
G75*
G02*
X288750000Y-26937500I0J-62500D01*
G01*
X288750000Y-27062500D01*
G75*
G02*
X288687500Y-27125000I-62500J0D01*
G01*
X287937500Y-27125000D01*
G75*
G02*
X287875000Y-27062500I0J62500D01*
G01*
X287875000Y-26937500D01*
G75*
G02*
X287937500Y-26875000I62500J0D01*
G01*
G37*
G36*
G01*
X287937500Y-27375000D02*
X288687500Y-27375000D01*
G75*
G02*
X288750000Y-27437500I0J-62500D01*
G01*
X288750000Y-27562500D01*
G75*
G02*
X288687500Y-27625000I-62500J0D01*
G01*
X287937500Y-27625000D01*
G75*
G02*
X287875000Y-27562500I0J62500D01*
G01*
X287875000Y-27437500D01*
G75*
G02*
X287937500Y-27375000I62500J0D01*
G01*
G37*
G36*
G01*
X287937500Y-27875000D02*
X288687500Y-27875000D01*
G75*
G02*
X288750000Y-27937500I0J-62500D01*
G01*
X288750000Y-28062500D01*
G75*
G02*
X288687500Y-28125000I-62500J0D01*
G01*
X287937500Y-28125000D01*
G75*
G02*
X287875000Y-28062500I0J62500D01*
G01*
X287875000Y-27937500D01*
G75*
G02*
X287937500Y-27875000I62500J0D01*
G01*
G37*
G36*
G01*
X287937500Y-28375000D02*
X288687500Y-28375000D01*
G75*
G02*
X288750000Y-28437500I0J-62500D01*
G01*
X288750000Y-28562500D01*
G75*
G02*
X288687500Y-28625000I-62500J0D01*
G01*
X287937500Y-28625000D01*
G75*
G02*
X287875000Y-28562500I0J62500D01*
G01*
X287875000Y-28437500D01*
G75*
G02*
X287937500Y-28375000I62500J0D01*
G01*
G37*
G36*
G01*
X287937500Y-28875000D02*
X288687500Y-28875000D01*
G75*
G02*
X288750000Y-28937500I0J-62500D01*
G01*
X288750000Y-29062500D01*
G75*
G02*
X288687500Y-29125000I-62500J0D01*
G01*
X287937500Y-29125000D01*
G75*
G02*
X287875000Y-29062500I0J62500D01*
G01*
X287875000Y-28937500D01*
G75*
G02*
X287937500Y-28875000I62500J0D01*
G01*
G37*
G36*
G01*
X287937500Y-29375000D02*
X288687500Y-29375000D01*
G75*
G02*
X288750000Y-29437500I0J-62500D01*
G01*
X288750000Y-29562500D01*
G75*
G02*
X288687500Y-29625000I-62500J0D01*
G01*
X287937500Y-29625000D01*
G75*
G02*
X287875000Y-29562500I0J62500D01*
G01*
X287875000Y-29437500D01*
G75*
G02*
X287937500Y-29375000I62500J0D01*
G01*
G37*
G36*
G01*
X287937500Y-29875000D02*
X288687500Y-29875000D01*
G75*
G02*
X288750000Y-29937500I0J-62500D01*
G01*
X288750000Y-30062500D01*
G75*
G02*
X288687500Y-30125000I-62500J0D01*
G01*
X287937500Y-30125000D01*
G75*
G02*
X287875000Y-30062500I0J62500D01*
G01*
X287875000Y-29937500D01*
G75*
G02*
X287937500Y-29875000I62500J0D01*
G01*
G37*
G36*
G01*
X287937500Y-30375000D02*
X288687500Y-30375000D01*
G75*
G02*
X288750000Y-30437500I0J-62500D01*
G01*
X288750000Y-30562500D01*
G75*
G02*
X288687500Y-30625000I-62500J0D01*
G01*
X287937500Y-30625000D01*
G75*
G02*
X287875000Y-30562500I0J62500D01*
G01*
X287875000Y-30437500D01*
G75*
G02*
X287937500Y-30375000I62500J0D01*
G01*
G37*
G36*
G01*
X287937500Y-30875000D02*
X288687500Y-30875000D01*
G75*
G02*
X288750000Y-30937500I0J-62500D01*
G01*
X288750000Y-31062500D01*
G75*
G02*
X288687500Y-31125000I-62500J0D01*
G01*
X287937500Y-31125000D01*
G75*
G02*
X287875000Y-31062500I0J62500D01*
G01*
X287875000Y-30937500D01*
G75*
G02*
X287937500Y-30875000I62500J0D01*
G01*
G37*
G36*
G01*
X287937500Y-31375000D02*
X288687500Y-31375000D01*
G75*
G02*
X288750000Y-31437500I0J-62500D01*
G01*
X288750000Y-31562500D01*
G75*
G02*
X288687500Y-31625000I-62500J0D01*
G01*
X287937500Y-31625000D01*
G75*
G02*
X287875000Y-31562500I0J62500D01*
G01*
X287875000Y-31437500D01*
G75*
G02*
X287937500Y-31375000I62500J0D01*
G01*
G37*
G36*
G01*
X287937500Y-31875000D02*
X288687500Y-31875000D01*
G75*
G02*
X288750000Y-31937500I0J-62500D01*
G01*
X288750000Y-32062500D01*
G75*
G02*
X288687500Y-32125000I-62500J0D01*
G01*
X287937500Y-32125000D01*
G75*
G02*
X287875000Y-32062500I0J62500D01*
G01*
X287875000Y-31937500D01*
G75*
G02*
X287937500Y-31875000I62500J0D01*
G01*
G37*
G36*
G01*
X289187500Y-32500000D02*
X289312500Y-32500000D01*
G75*
G02*
X289375000Y-32562500I0J-62500D01*
G01*
X289375000Y-33312500D01*
G75*
G02*
X289312500Y-33375000I-62500J0D01*
G01*
X289187500Y-33375000D01*
G75*
G02*
X289125000Y-33312500I0J62500D01*
G01*
X289125000Y-32562500D01*
G75*
G02*
X289187500Y-32500000I62500J0D01*
G01*
G37*
G36*
G01*
X289687500Y-32500000D02*
X289812500Y-32500000D01*
G75*
G02*
X289875000Y-32562500I0J-62500D01*
G01*
X289875000Y-33312500D01*
G75*
G02*
X289812500Y-33375000I-62500J0D01*
G01*
X289687500Y-33375000D01*
G75*
G02*
X289625000Y-33312500I0J62500D01*
G01*
X289625000Y-32562500D01*
G75*
G02*
X289687500Y-32500000I62500J0D01*
G01*
G37*
G36*
G01*
X290187500Y-32500000D02*
X290312500Y-32500000D01*
G75*
G02*
X290375000Y-32562500I0J-62500D01*
G01*
X290375000Y-33312500D01*
G75*
G02*
X290312500Y-33375000I-62500J0D01*
G01*
X290187500Y-33375000D01*
G75*
G02*
X290125000Y-33312500I0J62500D01*
G01*
X290125000Y-32562500D01*
G75*
G02*
X290187500Y-32500000I62500J0D01*
G01*
G37*
G36*
G01*
X290687500Y-32500000D02*
X290812500Y-32500000D01*
G75*
G02*
X290875000Y-32562500I0J-62500D01*
G01*
X290875000Y-33312500D01*
G75*
G02*
X290812500Y-33375000I-62500J0D01*
G01*
X290687500Y-33375000D01*
G75*
G02*
X290625000Y-33312500I0J62500D01*
G01*
X290625000Y-32562500D01*
G75*
G02*
X290687500Y-32500000I62500J0D01*
G01*
G37*
G36*
G01*
X291187500Y-32500000D02*
X291312500Y-32500000D01*
G75*
G02*
X291375000Y-32562500I0J-62500D01*
G01*
X291375000Y-33312500D01*
G75*
G02*
X291312500Y-33375000I-62500J0D01*
G01*
X291187500Y-33375000D01*
G75*
G02*
X291125000Y-33312500I0J62500D01*
G01*
X291125000Y-32562500D01*
G75*
G02*
X291187500Y-32500000I62500J0D01*
G01*
G37*
G36*
G01*
X291687500Y-32500000D02*
X291812500Y-32500000D01*
G75*
G02*
X291875000Y-32562500I0J-62500D01*
G01*
X291875000Y-33312500D01*
G75*
G02*
X291812500Y-33375000I-62500J0D01*
G01*
X291687500Y-33375000D01*
G75*
G02*
X291625000Y-33312500I0J62500D01*
G01*
X291625000Y-32562500D01*
G75*
G02*
X291687500Y-32500000I62500J0D01*
G01*
G37*
G36*
G01*
X292187500Y-32500000D02*
X292312500Y-32500000D01*
G75*
G02*
X292375000Y-32562500I0J-62500D01*
G01*
X292375000Y-33312500D01*
G75*
G02*
X292312500Y-33375000I-62500J0D01*
G01*
X292187500Y-33375000D01*
G75*
G02*
X292125000Y-33312500I0J62500D01*
G01*
X292125000Y-32562500D01*
G75*
G02*
X292187500Y-32500000I62500J0D01*
G01*
G37*
G36*
G01*
X292687500Y-32500000D02*
X292812500Y-32500000D01*
G75*
G02*
X292875000Y-32562500I0J-62500D01*
G01*
X292875000Y-33312500D01*
G75*
G02*
X292812500Y-33375000I-62500J0D01*
G01*
X292687500Y-33375000D01*
G75*
G02*
X292625000Y-33312500I0J62500D01*
G01*
X292625000Y-32562500D01*
G75*
G02*
X292687500Y-32500000I62500J0D01*
G01*
G37*
G36*
G01*
X293187500Y-32500000D02*
X293312500Y-32500000D01*
G75*
G02*
X293375000Y-32562500I0J-62500D01*
G01*
X293375000Y-33312500D01*
G75*
G02*
X293312500Y-33375000I-62500J0D01*
G01*
X293187500Y-33375000D01*
G75*
G02*
X293125000Y-33312500I0J62500D01*
G01*
X293125000Y-32562500D01*
G75*
G02*
X293187500Y-32500000I62500J0D01*
G01*
G37*
G36*
G01*
X293687500Y-32500000D02*
X293812500Y-32500000D01*
G75*
G02*
X293875000Y-32562500I0J-62500D01*
G01*
X293875000Y-33312500D01*
G75*
G02*
X293812500Y-33375000I-62500J0D01*
G01*
X293687500Y-33375000D01*
G75*
G02*
X293625000Y-33312500I0J62500D01*
G01*
X293625000Y-32562500D01*
G75*
G02*
X293687500Y-32500000I62500J0D01*
G01*
G37*
G36*
G01*
X294187500Y-32500000D02*
X294312500Y-32500000D01*
G75*
G02*
X294375000Y-32562500I0J-62500D01*
G01*
X294375000Y-33312500D01*
G75*
G02*
X294312500Y-33375000I-62500J0D01*
G01*
X294187500Y-33375000D01*
G75*
G02*
X294125000Y-33312500I0J62500D01*
G01*
X294125000Y-32562500D01*
G75*
G02*
X294187500Y-32500000I62500J0D01*
G01*
G37*
G36*
G01*
X294812500Y-31875000D02*
X295562500Y-31875000D01*
G75*
G02*
X295625000Y-31937500I0J-62500D01*
G01*
X295625000Y-32062500D01*
G75*
G02*
X295562500Y-32125000I-62500J0D01*
G01*
X294812500Y-32125000D01*
G75*
G02*
X294750000Y-32062500I0J62500D01*
G01*
X294750000Y-31937500D01*
G75*
G02*
X294812500Y-31875000I62500J0D01*
G01*
G37*
G36*
G01*
X294812500Y-31375000D02*
X295562500Y-31375000D01*
G75*
G02*
X295625000Y-31437500I0J-62500D01*
G01*
X295625000Y-31562500D01*
G75*
G02*
X295562500Y-31625000I-62500J0D01*
G01*
X294812500Y-31625000D01*
G75*
G02*
X294750000Y-31562500I0J62500D01*
G01*
X294750000Y-31437500D01*
G75*
G02*
X294812500Y-31375000I62500J0D01*
G01*
G37*
G36*
G01*
X294812500Y-30875000D02*
X295562500Y-30875000D01*
G75*
G02*
X295625000Y-30937500I0J-62500D01*
G01*
X295625000Y-31062500D01*
G75*
G02*
X295562500Y-31125000I-62500J0D01*
G01*
X294812500Y-31125000D01*
G75*
G02*
X294750000Y-31062500I0J62500D01*
G01*
X294750000Y-30937500D01*
G75*
G02*
X294812500Y-30875000I62500J0D01*
G01*
G37*
G36*
G01*
X294812500Y-30375000D02*
X295562500Y-30375000D01*
G75*
G02*
X295625000Y-30437500I0J-62500D01*
G01*
X295625000Y-30562500D01*
G75*
G02*
X295562500Y-30625000I-62500J0D01*
G01*
X294812500Y-30625000D01*
G75*
G02*
X294750000Y-30562500I0J62500D01*
G01*
X294750000Y-30437500D01*
G75*
G02*
X294812500Y-30375000I62500J0D01*
G01*
G37*
G36*
G01*
X294812500Y-29875000D02*
X295562500Y-29875000D01*
G75*
G02*
X295625000Y-29937500I0J-62500D01*
G01*
X295625000Y-30062500D01*
G75*
G02*
X295562500Y-30125000I-62500J0D01*
G01*
X294812500Y-30125000D01*
G75*
G02*
X294750000Y-30062500I0J62500D01*
G01*
X294750000Y-29937500D01*
G75*
G02*
X294812500Y-29875000I62500J0D01*
G01*
G37*
G36*
G01*
X294812500Y-29375000D02*
X295562500Y-29375000D01*
G75*
G02*
X295625000Y-29437500I0J-62500D01*
G01*
X295625000Y-29562500D01*
G75*
G02*
X295562500Y-29625000I-62500J0D01*
G01*
X294812500Y-29625000D01*
G75*
G02*
X294750000Y-29562500I0J62500D01*
G01*
X294750000Y-29437500D01*
G75*
G02*
X294812500Y-29375000I62500J0D01*
G01*
G37*
G36*
G01*
X294812500Y-28875000D02*
X295562500Y-28875000D01*
G75*
G02*
X295625000Y-28937500I0J-62500D01*
G01*
X295625000Y-29062500D01*
G75*
G02*
X295562500Y-29125000I-62500J0D01*
G01*
X294812500Y-29125000D01*
G75*
G02*
X294750000Y-29062500I0J62500D01*
G01*
X294750000Y-28937500D01*
G75*
G02*
X294812500Y-28875000I62500J0D01*
G01*
G37*
G36*
G01*
X294812500Y-28375000D02*
X295562500Y-28375000D01*
G75*
G02*
X295625000Y-28437500I0J-62500D01*
G01*
X295625000Y-28562500D01*
G75*
G02*
X295562500Y-28625000I-62500J0D01*
G01*
X294812500Y-28625000D01*
G75*
G02*
X294750000Y-28562500I0J62500D01*
G01*
X294750000Y-28437500D01*
G75*
G02*
X294812500Y-28375000I62500J0D01*
G01*
G37*
G36*
G01*
X294812500Y-27875000D02*
X295562500Y-27875000D01*
G75*
G02*
X295625000Y-27937500I0J-62500D01*
G01*
X295625000Y-28062500D01*
G75*
G02*
X295562500Y-28125000I-62500J0D01*
G01*
X294812500Y-28125000D01*
G75*
G02*
X294750000Y-28062500I0J62500D01*
G01*
X294750000Y-27937500D01*
G75*
G02*
X294812500Y-27875000I62500J0D01*
G01*
G37*
G36*
G01*
X294812500Y-27375000D02*
X295562500Y-27375000D01*
G75*
G02*
X295625000Y-27437500I0J-62500D01*
G01*
X295625000Y-27562500D01*
G75*
G02*
X295562500Y-27625000I-62500J0D01*
G01*
X294812500Y-27625000D01*
G75*
G02*
X294750000Y-27562500I0J62500D01*
G01*
X294750000Y-27437500D01*
G75*
G02*
X294812500Y-27375000I62500J0D01*
G01*
G37*
G36*
G01*
X294812500Y-26875000D02*
X295562500Y-26875000D01*
G75*
G02*
X295625000Y-26937500I0J-62500D01*
G01*
X295625000Y-27062500D01*
G75*
G02*
X295562500Y-27125000I-62500J0D01*
G01*
X294812500Y-27125000D01*
G75*
G02*
X294750000Y-27062500I0J62500D01*
G01*
X294750000Y-26937500D01*
G75*
G02*
X294812500Y-26875000I62500J0D01*
G01*
G37*
G36*
G01*
X294187500Y-25625000D02*
X294312500Y-25625000D01*
G75*
G02*
X294375000Y-25687500I0J-62500D01*
G01*
X294375000Y-26437500D01*
G75*
G02*
X294312500Y-26500000I-62500J0D01*
G01*
X294187500Y-26500000D01*
G75*
G02*
X294125000Y-26437500I0J62500D01*
G01*
X294125000Y-25687500D01*
G75*
G02*
X294187500Y-25625000I62500J0D01*
G01*
G37*
G36*
G01*
X293687500Y-25625000D02*
X293812500Y-25625000D01*
G75*
G02*
X293875000Y-25687500I0J-62500D01*
G01*
X293875000Y-26437500D01*
G75*
G02*
X293812500Y-26500000I-62500J0D01*
G01*
X293687500Y-26500000D01*
G75*
G02*
X293625000Y-26437500I0J62500D01*
G01*
X293625000Y-25687500D01*
G75*
G02*
X293687500Y-25625000I62500J0D01*
G01*
G37*
G36*
G01*
X293187500Y-25625000D02*
X293312500Y-25625000D01*
G75*
G02*
X293375000Y-25687500I0J-62500D01*
G01*
X293375000Y-26437500D01*
G75*
G02*
X293312500Y-26500000I-62500J0D01*
G01*
X293187500Y-26500000D01*
G75*
G02*
X293125000Y-26437500I0J62500D01*
G01*
X293125000Y-25687500D01*
G75*
G02*
X293187500Y-25625000I62500J0D01*
G01*
G37*
G36*
G01*
X292687500Y-25625000D02*
X292812500Y-25625000D01*
G75*
G02*
X292875000Y-25687500I0J-62500D01*
G01*
X292875000Y-26437500D01*
G75*
G02*
X292812500Y-26500000I-62500J0D01*
G01*
X292687500Y-26500000D01*
G75*
G02*
X292625000Y-26437500I0J62500D01*
G01*
X292625000Y-25687500D01*
G75*
G02*
X292687500Y-25625000I62500J0D01*
G01*
G37*
G36*
G01*
X292187500Y-25625000D02*
X292312500Y-25625000D01*
G75*
G02*
X292375000Y-25687500I0J-62500D01*
G01*
X292375000Y-26437500D01*
G75*
G02*
X292312500Y-26500000I-62500J0D01*
G01*
X292187500Y-26500000D01*
G75*
G02*
X292125000Y-26437500I0J62500D01*
G01*
X292125000Y-25687500D01*
G75*
G02*
X292187500Y-25625000I62500J0D01*
G01*
G37*
G36*
G01*
X291687500Y-25625000D02*
X291812500Y-25625000D01*
G75*
G02*
X291875000Y-25687500I0J-62500D01*
G01*
X291875000Y-26437500D01*
G75*
G02*
X291812500Y-26500000I-62500J0D01*
G01*
X291687500Y-26500000D01*
G75*
G02*
X291625000Y-26437500I0J62500D01*
G01*
X291625000Y-25687500D01*
G75*
G02*
X291687500Y-25625000I62500J0D01*
G01*
G37*
G36*
G01*
X291187500Y-25625000D02*
X291312500Y-25625000D01*
G75*
G02*
X291375000Y-25687500I0J-62500D01*
G01*
X291375000Y-26437500D01*
G75*
G02*
X291312500Y-26500000I-62500J0D01*
G01*
X291187500Y-26500000D01*
G75*
G02*
X291125000Y-26437500I0J62500D01*
G01*
X291125000Y-25687500D01*
G75*
G02*
X291187500Y-25625000I62500J0D01*
G01*
G37*
G36*
G01*
X290687500Y-25625000D02*
X290812500Y-25625000D01*
G75*
G02*
X290875000Y-25687500I0J-62500D01*
G01*
X290875000Y-26437500D01*
G75*
G02*
X290812500Y-26500000I-62500J0D01*
G01*
X290687500Y-26500000D01*
G75*
G02*
X290625000Y-26437500I0J62500D01*
G01*
X290625000Y-25687500D01*
G75*
G02*
X290687500Y-25625000I62500J0D01*
G01*
G37*
G36*
G01*
X290187500Y-25625000D02*
X290312500Y-25625000D01*
G75*
G02*
X290375000Y-25687500I0J-62500D01*
G01*
X290375000Y-26437500D01*
G75*
G02*
X290312500Y-26500000I-62500J0D01*
G01*
X290187500Y-26500000D01*
G75*
G02*
X290125000Y-26437500I0J62500D01*
G01*
X290125000Y-25687500D01*
G75*
G02*
X290187500Y-25625000I62500J0D01*
G01*
G37*
G36*
G01*
X289687500Y-25625000D02*
X289812500Y-25625000D01*
G75*
G02*
X289875000Y-25687500I0J-62500D01*
G01*
X289875000Y-26437500D01*
G75*
G02*
X289812500Y-26500000I-62500J0D01*
G01*
X289687500Y-26500000D01*
G75*
G02*
X289625000Y-26437500I0J62500D01*
G01*
X289625000Y-25687500D01*
G75*
G02*
X289687500Y-25625000I62500J0D01*
G01*
G37*
G36*
G01*
X289187500Y-25625000D02*
X289312500Y-25625000D01*
G75*
G02*
X289375000Y-25687500I0J-62500D01*
G01*
X289375000Y-26437500D01*
G75*
G02*
X289312500Y-26500000I-62500J0D01*
G01*
X289187500Y-26500000D01*
G75*
G02*
X289125000Y-26437500I0J62500D01*
G01*
X289125000Y-25687500D01*
G75*
G02*
X289187500Y-25625000I62500J0D01*
G01*
G37*
%TD*%
D16*
%TO.C,R6*%
G36*
X285747581Y-38716858D02*
G01*
X284828342Y-37797619D01*
X285323317Y-37302644D01*
X286242556Y-38221883D01*
X285747581Y-38716858D01*
G37*
G36*
X287091083Y-37373356D02*
G01*
X286171844Y-36454117D01*
X286666819Y-35959142D01*
X287586058Y-36878381D01*
X287091083Y-37373356D01*
G37*
%TD*%
D20*
%TO.C,R5*%
X306950000Y-40500000D03*
X305050000Y-40500000D03*
%TD*%
D21*
%TO.C,R4*%
X290750000Y-19450000D03*
X290750000Y-17550000D03*
%TD*%
%TO.C,R3*%
X292750000Y-19450000D03*
X292750000Y-17550000D03*
%TD*%
D19*
%TO.C,D61*%
X304545000Y-16177000D03*
X301245000Y-16177000D03*
%TD*%
D11*
%TO.C,D57*%
X246630000Y-8855000D03*
X246630000Y-12155000D03*
%TD*%
%TO.C,D53*%
X249630000Y-8855000D03*
X249630000Y-12155000D03*
%TD*%
%TO.C,D49*%
X230620000Y-8855000D03*
X230620000Y-12155000D03*
%TD*%
%TO.C,D45*%
X227620000Y-8855000D03*
X227620000Y-12155000D03*
%TD*%
%TO.C,D41*%
X210110000Y-8855000D03*
X210110000Y-12155000D03*
%TD*%
%TO.C,D37*%
X191100000Y-8855000D03*
X191100000Y-12155000D03*
%TD*%
%TO.C,D33*%
X172090000Y-8855000D03*
X172090000Y-12155000D03*
%TD*%
%TO.C,D29*%
X153080000Y-8855000D03*
X153080000Y-12155000D03*
%TD*%
%TO.C,D25*%
X134070000Y-8855000D03*
X134070000Y-12155000D03*
%TD*%
%TO.C,D21*%
X115060000Y-8855000D03*
X115060000Y-12155000D03*
%TD*%
%TO.C,D17*%
X96050000Y-8855000D03*
X96050000Y-12155000D03*
%TD*%
%TO.C,D13*%
X77040000Y-8855000D03*
X77040000Y-12155000D03*
%TD*%
%TO.C,D9*%
X58030000Y-8855000D03*
X58030000Y-12155000D03*
%TD*%
%TO.C,D5*%
X37520000Y-8855000D03*
X37520000Y-12155000D03*
%TD*%
%TO.C,D1*%
X40520000Y-8855000D03*
X40520000Y-12155000D03*
%TD*%
D17*
%TO.C,C7*%
X293601670Y-35867170D03*
X293601670Y-37367170D03*
%TD*%
%TO.C,C6*%
X294750000Y-17750000D03*
X294750000Y-19250000D03*
%TD*%
D18*
%TO.C,C5*%
X286604670Y-32448500D03*
X285104670Y-32448500D03*
%TD*%
D17*
%TO.C,C4*%
X297281600Y-25591200D03*
X297281600Y-24091200D03*
%TD*%
%TO.C,C1*%
X288290000Y-24245000D03*
X288290000Y-22745000D03*
%TD*%
M02*
