0
SECTION
2
HEADER
9
$INSUNITS
70
4
9
$ACADVER
1
AC1014
9
$HANDSEED
5
FFFF
0
ENDSEC
0
SECTION
2
TABLES
0
TABLE
2
VPORT
5
8
100
AcDbSymbolTable
0
ENDTAB
0
TABLE
2
LTYPE
5
5
100
AcDbSymbolTable
0
LTYPE
5
14
100
AcDbSymbolTableRecord
100
AcDbLinetypeTableRecord
2
BYBLOCK
70
0
0
LTYPE
5
15
100
AcDbSymbolTableRecord
100
AcDbLinetypeTableRecord
2
BYLAYER
70
0
0
ENDTAB
0
TABLE
2
LAYER
5
2
100
AcDbSymbolTable
70
2
0
LAYER
5
50
100
AcDbSymbolTableRecord
100
AcDbLayerTableRecord
2
0
70
0
6
CONTINUOUS
0
ENDTAB
0
TABLE
2
STYLE
5
3
100
AcDbSymbolTable
70
1
0
STYLE
5
11
100
AcDbSymbolTableRecord
100
AcDbTextStyleTableRecord
2
STANDARD
70
0
0
ENDTAB
0
TABLE
2
VIEW
5
6
100
AcDbSymbolTable
70
0
0
ENDTAB
0
TABLE
2
UCS
5
7
100
AcDbSymbolTable
70
0
0
ENDTAB
0
TABLE
2
APPID
5
9
100
AcDbSymbolTable
70
2
0
APPID
5
12
100
AcDbSymbolTableRecord
100
AcDbRegAppTableRecord
2
ACAD
70
0
0
ENDTAB
0
TABLE
2
DIMSTYLE
5
A
100
AcDbSymbolTable
70
1
0
ENDTAB
0
TABLE
2
BLOCK_RECORD
5
1
100
AcDbSymbolTable
70
1
0
BLOCK_RECORD
5
1F
100
AcDbSymbolTableRecord
100
AcDbBlockTableRecord
2
*MODEL_SPACE
0
BLOCK_RECORD
5
1B
100
AcDbSymbolTableRecord
100
AcDbBlockTableRecord
2
*PAPER_SPACE
0
ENDTAB
0
ENDSEC
0
SECTION
2
BLOCKS
0
BLOCK
5
20
100
AcDbEntity
100
AcDbBlockBegin
2
*MODEL_SPACE
0
ENDBLK
5
21
100
AcDbEntity
100
AcDbBlockEnd
0
BLOCK
5
1C
100
AcDbEntity
100
AcDbBlockBegin
2
*PAPER_SPACE
0
ENDBLK
5
1D
100
AcDbEntity
100
AcDbBlockEnd
0
ENDSEC
0
SECTION
2
ENTITIES
0
CIRCLE
5
100
100
AcDbEntity
8
0
100
AcDbCircle
10
206.83815072529157
20
2.8798432023271481
30
0
40
1.3499999999999623
210
0
220
0
230
1
0
CIRCLE
5
101
100
AcDbEntity
8
0
100
AcDbCircle
10
84.138800725291389
20
2.879843202327157
30
0
40
1.3499999999999623
210
0
220
0
230
1
0
CIRCLE
5
102
100
AcDbEntity
8
0
100
AcDbCircle
10
9.1388007252912473
20
2.8798432023271658
30
0
40
1.3500000000000734
210
0
220
0
230
1
0
LWPOLYLINE
5
103
100
AcDbEntity
8
0
100
AcDbPolyline
90
40
70
1
43
0.0
10
285.22968430171363
20
5.4798432023271193
10
289.83815072529137
20
5.4798432023271371
42
0.41421356237319129
10
290.83815072529137
20
6.4798432023271246
10
290.83815072529148
20
102.27917320232717
42
0.41421356237309509
10
289.83815072529137
20
103.27917320232726
10
285.22968430171363
20
103.27917320232727
42
-0.55007404733431298
10
284.32527534800101
20
104.70583986899385
42
1.5774574774057533
10
279.35102610258161
20
104.70583986899386
42
-0.55007404733451259
10
278.44661714886922
20
103.27917320232714
10
210.22968430171389
20
103.27917320232713
42
-0.55007404733405207
10
209.32527534800113
20
104.70583986899385
42
1.5774574774057413
10
204.35102610258201
20
104.70583986899391
42
-0.55007404733420628
10
203.44661714886925
20
103.27917320232714
10
87.530334301713566
20
103.27917320232703
42
-0.55007404733424803
10
86.625925348000891
20
104.70583986899393
42
1.5774574774057408
10
81.651676102581632
20
104.70583986899385
42
-0.55007404733424681
10
80.747267148869071
20
103.27917320232717
10
12.530334301713566
20
103.27917320232741
42
-0.55007404733424015
10
11.625925348001299
20
104.70583986899391
42
1.5774574774056827
10
6.6516761025817921
20
104.70583986899382
42
-0.55007404733419007
10
5.747267148869355
20
103.27917320232717
10
1.1388007252912757
20
103.27917320232726
42
0.41421356237300133
10
0.13880072529119047
20
102.2791732023272
10
0.13880072529125265
20
6.479843202327169
42
0.41421356237303264
10
1.1388007252912757
20
5.4798432023270749
10
5.747267148869355
20
5.4798432023271646
42
-0.55007404733425957
10
6.6516761025816127
20
4.0531765356604286
42
1.5774574774057089
10
11.625925348000678
20
4.0531765356602207
42
-0.55007404733420229
10
12.530334301713566
20
5.4798432023271726
10
80.747267148869071
20
5.479843202327082
42
-0.55007404733417964
10
81.651676102581533
20
4.0531765356604783
42
1.5774574774056487
10
86.625925348000976
20
4.0531765356604481
42
-0.55007404733407028
10
87.530334301713566
20
5.4798432023271637
10
203.44661714886925
20
5.4798432023271149
42
-0.55007404733421406
10
204.35102610258207
20
4.0531765356603202
42
1.5774574774056549
10
209.32527534800124
20
4.0531765356604463
42
-0.5500740473341339
10
210.22968430171389
20
5.4798432023271459
10
278.44661714886922
20
5.4798432023270909
42
-0.55007404733420362
10
279.3510261025819
20
4.0531765356604099
42
1.5774574774056984
10
284.3252753480009
20
4.0531765356602154
42
-0.55007404733426268
0
CIRCLE
5
104
100
AcDbEntity
8
0
100
AcDbCircle
10
9.1388007252912473
20
105.87917320232719
30
0
40
1.3500000000000734
210
0
220
0
230
1
0
CIRCLE
5
105
100
AcDbEntity
8
0
100
AcDbCircle
10
206.83815072529157
20
105.87917320232717
30
0
40
1.3499999999999623
210
0
220
0
230
1
0
CIRCLE
5
106
100
AcDbEntity
8
0
100
AcDbCircle
10
84.138800725291389
20
105.87917320232719
30
0
40
1.3499999999999623
210
0
220
0
230
1
0
CIRCLE
5
107
100
AcDbEntity
8
0
100
AcDbCircle
10
281.83815072529126
20
105.87917320232717
30
0
40
1.3499999999999623
210
0
220
0
230
1
0
CIRCLE
5
108
100
AcDbEntity
8
0
100
AcDbCircle
10
281.83815072529126
20
2.8798432023271303
30
0
40
1.3499999999999623
210
0
220
0
230
1
0
LINE
5
109
100
AcDbEntity
8
0
100
AcDbLine
10
12.530334301713566
20
103.27917320232726
30
0
11
80.747267148869071
21
103.27917320232717
31
0
0
LINE
5
110
100
AcDbEntity
8
0
100
AcDbLine
10
210.22968430171389
20
103.27917320232712
30
0
11
278.44661714886922
21
103.27917320232714
31
0
0
LINE
5
111
100
AcDbEntity
8
0
100
AcDbLine
10
1.1388007252912757
20
103.27917320232726
30
0
11
5.747267148869355
21
103.27917320232717
31
0
0
ARC
5
112
100
AcDbEntity
8
0
100
AcDbCircle
10
278.44661714886939
20
104.27917320232687
30
0
40
0.99999999999972999
210
0
220
0
230
1
100
AcDbArc
50
-90.000000000009777
51
25.256203661590092
0
ARC
5
113
100
AcDbEntity
8
0
100
AcDbCircle
10
210.22968430171403
20
4.4798432023270962
30
0
40
1.0000000000000497
210
0
220
0
230
1
100
AcDbArc
50
90.000000000008143
51
205.25620366155781
0
ARC
5
114
100
AcDbEntity
8
0
100
AcDbCircle
10
-9.1388007252911052
20
2.8798432023271126
30
0
40
2.7499999999998002
210
0
220
0
230
-1
100
AcDbArc
50
-205.25620366155988
51
25.256203661564513
0
ARC
5
115
100
AcDbEntity
8
0
100
AcDbCircle
10
-84.138800725291247
20
105.87917320232719
30
0
40
2.7499999999998992
210
-0
220
0
230
-1
100
AcDbArc
50
-25.25620366156426
51
205.25620366156213
0
ARC
5
116
100
AcDbEntity
8
0
100
AcDbCircle
10
210.22968430171389
20
104.27917320232716
30
0
40
0.99999999999995293
210
0
220
0
230
1
100
AcDbArc
50
154.74379633843873
51
270
0
ARC
5
117
100
AcDbEntity
8
0
100
AcDbCircle
10
87.530334301713424
20
104.27917320232712
30
0
40
1.000000000000044
210
0
220
0
230
1
100
AcDbArc
50
154.74379633842696
51
270.00000000000813
0
ARC
5
118
100
AcDbEntity
8
0
100
AcDbCircle
10
285.22968430171346
20
104.27917320232709
30
0
40
0.9999999999998852
210
0
220
0
230
1
100
AcDbArc
50
154.7437963384279
51
270.00000000000978
0
ARC
5
119
100
AcDbEntity
8
0
100
AcDbCircle
10
12.530334301713708
20
104.27917320232706
30
0
40
0.99999999999977174
210
0
220
0
230
1
100
AcDbArc
50
154.74379633842295
51
269.99999999999187
0
LINE
5
120
100
AcDbEntity
8
0
100
AcDbLine
10
285.22968430171363
20
103.27917320232726
30
0
11
289.83815072529137
21
103.27917320232726
31
0
0
LINE
5
121
100
AcDbEntity
8
0
100
AcDbLine
10
290.83815072529148
20
102.27917320232717
30
0
11
290.83815072529137
21
6.4798432023271246
31
0
0
ARC
5
122
100
AcDbEntity
8
0
100
AcDbCircle
10
-84.138800725291247
20
2.8798432023272635
30
0
40
2.7499999999999556
210
0
220
0
230
-1
100
AcDbArc
50
-205.25620366155982
51
25.256203661560662
0
ARC
5
123
100
AcDbEntity
8
0
100
AcDbCircle
10
80.747267148868929
20
104.27917320232723
30
0
40
1.0000000000000497
210
-0
220
0
230
1
100
AcDbArc
50
-89.999999999991857
51
25.256203661557798
0
LINE
5
124
100
AcDbEntity
8
0
100
AcDbLine
10
87.530334301713566
20
103.27917320232717
30
0
11
203.44661714886925
21
103.27917320232714
31
0
0
ARC
5
125
100
AcDbEntity
8
0
100
AcDbCircle
10
-281.83815072529126
20
105.87917320232722
30
0
40
2.7500000000000431
210
-0
220
0
230
-1
100
AcDbArc
50
-25.256203661563802
51
205.25620366156326
0
ARC
5
126
100
AcDbEntity
8
0
100
AcDbCircle
10
-9.1388007252913894
20
105.87917320232712
30
0
40
2.7499999999998836
210
-0
220
0
230
-1
100
AcDbArc
50
-25.256203661563443
51
205.25620366155914
0
ARC
5
127
100
AcDbEntity
8
0
100
AcDbCircle
10
-289.83815072529137
20
102.27917320232717
30
0
40
1.0000000000000853
210
0
220
0
230
-1
100
AcDbArc
50
90
51
180
0
ARC
5
128
100
AcDbEntity
8
0
100
AcDbCircle
10
-206.83815072529157
20
105.87917320232717
30
0
40
2.7499999999998685
210
-0
220
0
230
-1
100
AcDbArc
50
-25.256203661563191
51
205.25620366156377
0
ARC
5
129
100
AcDbEntity
8
0
100
AcDbCircle
10
87.530334301713424
20
4.4798432023272206
30
0
40
0.99999999999994316
210
0
220
-0
230
1
100
AcDbArc
50
89.999999999991857
51
205.25620366157304
0
ARC
5
130
100
AcDbEntity
8
0
100
AcDbCircle
10
-1.1388007252914178
20
102.27917320232703
30
0
40
1.0000000000002274
210
0
220
0
230
-1
100
AcDbArc
50
0
51
89.999999999991857
0
ARC
5
131
100
AcDbEntity
8
0
100
AcDbCircle
10
-289.83815072529154
20
6.4798432023269381
30
0
40
0.99999999999980105
210
0
220
0
230
-1
100
AcDbArc
50
180
51
270.00000000000978
0
LINE
5
132
100
AcDbEntity
8
0
100
AcDbLine
10
278.44661714886922
20
5.4798432023270927
30
0
11
210.22968430171389
21
5.4798432023271459
31
0
0
LINE
5
133
100
AcDbEntity
8
0
100
AcDbLine
10
80.747267148869071
20
5.4798432023271459
30
0
11
12.530334301713566
21
5.4798432023271726
31
0
0
LINE
5
134
100
AcDbEntity
8
0
100
AcDbLine
10
289.83815072529137
20
5.4798432023271193
30
0
11
285.22968430171363
21
5.4798432023271193
31
0
0
ARC
5
135
100
AcDbEntity
8
0
100
AcDbCircle
10
203.44661714886939
20
104.2791732023272
30
0
40
1.0000000000000497
210
0
220
0
230
1
100
AcDbArc
50
-90.000000000008143
51
25.256203661564211
0
ARC
5
136
100
AcDbEntity
8
0
100
AcDbCircle
10
278.44661714886939
20
4.4798432023270518
30
0
40
0.99999999999997558
210
-0
220
0
230
1
100
AcDbArc
50
-25.256203661564715
51
90.000000000009777
0
LINE
5
137
100
AcDbEntity
8
0
100
AcDbLine
10
0.13880072529119047
20
6.479843202327169
30
0
11
0.13880072529119047
21
102.2791732023272
31
0
0
ARC
5
138
100
AcDbEntity
8
0
100
AcDbCircle
10
5.747267148869355
20
4.4798432023273005
30
0
40
0.99999999999981337
210
-0
220
0
230
1
100
AcDbArc
50
-25.256203661582479
51
90
0
ARC
5
139
100
AcDbEntity
8
0
100
AcDbCircle
10
285.22968430171363
20
4.4798432023269452
30
0
40
1.0000000000001741
210
0
220
-0
230
1
100
AcDbArc
50
90
51
205.25620366156423
0
LINE
5
140
100
AcDbEntity
8
0
100
AcDbLine
10
203.44661714886925
20
5.4798432023271371
30
0
11
87.530334301713566
21
5.4798432023271637
31
0
0
ARC
5
141
100
AcDbEntity
8
0
100
AcDbCircle
10
5.7472671488692129
20
104.27917320232706
30
0
40
0.9999999999998721
210
-0
220
0
230
1
100
AcDbArc
50
-89.999999999991857
51
25.256203661568623
0
LINE
5
142
100
AcDbEntity
8
0
100
AcDbLine
10
5.747267148869355
20
5.4798432023271637
30
0
11
1.1388007252912757
21
5.4798432023270749
31
0
0
ARC
5
143
100
AcDbEntity
8
0
100
AcDbCircle
10
-281.83815072529143
20
2.8798432023271303
30
0
40
2.7499999999998042
210
0
220
0
230
-1
100
AcDbArc
50
-205.25620366156008
51
25.256203661563418
0
ARC
5
144
100
AcDbEntity
8
0
100
AcDbCircle
10
203.44661714886939
20
4.4798432023270607
30
0
40
0.99999999999999079
210
-0
220
0
230
1
100
AcDbArc
50
-25.256203661565888
51
90.000000000008143
0
ARC
5
145
100
AcDbEntity
8
0
100
AcDbCircle
10
-206.83815072529171
20
2.879843202327228
30
0
40
2.7499999999998574
210
0
220
0
230
-1
100
AcDbArc
50
-205.25620366156238
51
25.256203661558814
0
ARC
5
146
100
AcDbEntity
8
0
100
AcDbCircle
10
12.530334301713424
20
4.4798432023270074
30
0
40
1.0000000000001652
210
0
220
-0
230
1
100
AcDbArc
50
89.999999999991857
51
205.25620366156608
0
ARC
5
147
100
AcDbEntity
8
0
100
AcDbCircle
10
80.747267148868929
20
4.4798432023270696
30
0
40
0.99999999999993772
210
-0
220
0
230
1
100
AcDbArc
50
-25.256203661559425
51
89.999999999991857
0
ARC
5
148
100
AcDbEntity
8
0
100
AcDbCircle
10
-1.1388007252914178
20
6.4798432023272401
30
0
40
1.0000000000001652
210
-0
220
0
230
-1
100
AcDbArc
50
270.00000000000813
51
360
0
CIRCLE
5
149
100
AcDbEntity
8
0
100
AcDbCircle
10
84.138800725291389
20
105.87917320232719
30
0
40
1.3499999999999623
210
0
220
0
230
1
0
CIRCLE
5
150
100
AcDbEntity
8
0
100
AcDbCircle
10
281.83815072529126
20
105.87917320232717
30
0
40
1.3499999999999623
210
0
220
0
230
1
0
CIRCLE
5
151
100
AcDbEntity
8
0
100
AcDbCircle
10
206.83815072529157
20
105.87917320232717
30
0
40
1.3499999999999623
210
0
220
0
230
1
0
CIRCLE
5
152
100
AcDbEntity
8
0
100
AcDbCircle
10
206.83815072529157
20
2.8798432023271481
30
0
40
1.3499999999999623
210
0
220
0
230
1
0
CIRCLE
5
153
100
AcDbEntity
8
0
100
AcDbCircle
10
281.83815072529126
20
2.8798432023271303
30
0
40
1.3499999999999623
210
0
220
0
230
1
0
CIRCLE
5
154
100
AcDbEntity
8
0
100
AcDbCircle
10
9.1388007252912473
20
2.8798432023271658
30
0
40
1.3500000000000734
210
0
220
0
230
1
0
CIRCLE
5
155
100
AcDbEntity
8
0
100
AcDbCircle
10
9.1388007252912473
20
105.87917320232719
30
0
40
1.3500000000000734
210
0
220
0
230
1
0
CIRCLE
5
156
100
AcDbEntity
8
0
100
AcDbCircle
10
84.138800725291389
20
2.879843202327157
30
0
40
1.3499999999999623
210
0
220
0
230
1
0
LWPOLYLINE
5
157
100
AcDbEntity
8
0
100
AcDbPolyline
90
4
70
1
43
0.0
10
189.45520000000002
20
12.404499999999974
10
192.12220000000005
20
12.404499999999974
10
192.12220000000005
20
7.1967999999999677
10
189.45520000000002
20
7.1967999999999677
0
LWPOLYLINE
5
158
100
AcDbEntity
8
0
100
AcDbPolyline
90
4
70
1
43
0.0
10
189.45520000000002
20
20.156799999999926
10
189.45520000000002
20
25.364499999999968
10
192.12220000000005
20
25.364499999999968
10
192.12220000000005
20
20.156799999999926
0
LWPOLYLINE
5
159
100
AcDbEntity
8
0
100
AcDbPolyline
90
10
70
1
43
0.0
10
187.8387000000001
20
17.454500000000017
10
187.8387000000001
20
15.104500000000005
10
186.4613486275295
20
15.104500000000003
42
-0.44532950429857315
10
182.06370000000078
20
13.496179141744161
42
-0.44532950429869311
10
177.66605137247063
20
15.104500000000005
10
176.28870000000006
20
15.104500000000005
10
176.28870000000006
20
17.454500000000017
10
177.66605137247058
20
17.454500000000017
42
-0.4453295042986869
10
182.06370000000078
20
19.062820858255858
42
-0.44532950429857632
10
186.4613486275295
20
17.454500000000017
0
LWPOLYLINE
5
160
100
AcDbEntity
8
0
100
AcDbPolyline
90
4
70
1
43
0.0
10
202.03870000000006
20
20.155649999999934
10
202.03870000000006
20
25.363349999999976
10
204.70570000000006
20
25.363349999999976
10
204.70570000000006
20
20.155649999999934
0
LWPOLYLINE
5
161
100
AcDbEntity
8
0
100
AcDbPolyline
90
4
70
1
43
0.0
10
101.5222
20
25.364499999999968
10
101.5222
20
20.156799999999926
10
98.855199999999996
20
20.156799999999926
10
98.855199999999996
20
25.364499999999968
0
LWPOLYLINE
5
162
100
AcDbEntity
8
0
100
AcDbPolyline
90
4
70
1
43
0.0
10
102.53869999999999
20
17.454500000000017
10
102.53869999999999
20
15.104500000000005
10
100.1887
20
15.104500000000005
10
100.1887
20
17.454500000000017
0
LWPOLYLINE
5
163
100
AcDbEntity
8
0
100
AcDbPolyline
90
4
70
1
43
0.0
10
86.271699999999996
20
20.155649999999934
10
86.271699999999996
20
25.363349999999976
10
88.938699999999997
20
25.363349999999976
10
88.938699999999997
20
20.155649999999934
0
LWPOLYLINE
5
164
100
AcDbEntity
8
0
100
AcDbPolyline
90
4
70
1
43
0.0
10
86.271699999999996
20
12.403349999999982
10
88.938699999999997
20
12.403349999999982
10
88.938699999999997
20
7.1956499999999757
10
86.271699999999996
20
7.1956499999999757
0
LWPOLYLINE
5
165
100
AcDbEntity
8
0
100
AcDbPolyline
90
10
70
1
43
0.0
10
108.91370000000022
20
19.062820858255606
42
0.44532950429867441
10
104.51605137247036
20
17.454500000000071
10
103.13869999999996
20
17.454500000000017
10
103.13869999999996
20
15.104500000000005
10
104.51605137247051
20
15.104500000000009
42
0.4453295042986688
10
108.91370000000015
20
13.496179141744546
42
0.44532950429862184
10
113.31134862752945
20
15.104500000000005
10
114.68870000000001
20
15.104500000000005
10
114.68870000000001
20
17.454500000000017
10
113.31134862752945
20
17.454500000000021
42
0.44532950429862839
0
LWPOLYLINE
5
166
100
AcDbEntity
8
0
100
AcDbPolyline
90
8
70
1
43
0.0
10
134.18870000000001
20
14.279500000000009
10
134.18870000000001
20
18.279499999999977
42
0.41421356237309165
10
132.68869999999998
20
19.779500000000017
10
122.6887
20
19.779500000000017
42
0.41421356237308121
10
121.18869999999995
20
18.279500000000013
10
121.18870000000001
20
14.279500000000009
42
0.41421356237309853
10
122.6887
20
12.779500000000006
10
132.68869999999998
20
12.779500000000006
42
0.41421356237310542
0
LWPOLYLINE
5
167
100
AcDbEntity
8
0
100
AcDbPolyline
90
4
70
1
43
0.0
10
117.63869999999997
20
17.454500000000017
10
115.28869999999998
20
17.454500000000017
10
115.28869999999998
20
15.104500000000005
10
117.63869999999997
20
15.104500000000005
0
LWPOLYLINE
5
168
100
AcDbEntity
8
0
100
AcDbPolyline
90
8
70
1
43
0.0
10
158.28870000000001
20
19.779499999999981
42
0.41421356237308121
10
156.78870000000001
20
18.279499999999977
10
156.78870000000001
20
14.279500000000009
42
0.41421356237308821
10
158.28870000000001
20
12.779500000000006
10
168.28870000000009
20
12.779500000000006
42
0.41421356237309165
10
169.78870000000015
20
14.279500000000009
10
169.78870000000006
20
18.279499999999977
42
0.41421356237308465
10
168.28870000000012
20
19.779499999999963
0
LWPOLYLINE
5
169
100
AcDbEntity
8
0
100
AcDbPolyline
90
4
70
1
43
0.0
10
173.33870000000007
20
15.104500000000005
10
173.33870000000007
20
17.454500000000017
10
175.68870000000007
20
17.454500000000017
10
175.68870000000007
20
15.104500000000005
0
LWPOLYLINE
5
170
100
AcDbEntity
8
0
100
AcDbPolyline
90
4
70
1
43
0.0
10
204.70570000000006
20
12.403349999999982
10
204.70570000000006
20
7.1956499999999757
10
202.03870000000006
20
7.1956499999999757
10
202.03870000000006
20
12.403349999999982
0
LWPOLYLINE
5
171
100
AcDbEntity
8
0
100
AcDbPolyline
90
4
70
1
43
0.0
10
190.78870000000006
20
15.104500000000005
10
190.78870000000006
20
17.454500000000017
10
188.4387000000001
20
17.454500000000017
10
188.4387000000001
20
15.104500000000005
0
LWPOLYLINE
5
172
100
AcDbEntity
8
0
100
AcDbPolyline
90
4
70
1
43
0.0
10
98.855199999999996
20
12.404499999999974
10
101.5222
20
12.404499999999974
10
101.5222
20
7.1967999999999677
10
98.855199999999996
20
7.1967999999999677
0
LWPOLYLINE
5
173
100
AcDbEntity
8
0
100
AcDbPolyline
90
4
70
1
43
0.0
10
103.27169999999998
20
20.155649999999934
10
103.27169999999998
20
25.363349999999976
10
105.93869999999998
20
25.363349999999976
10
105.93869999999998
20
20.155649999999934
0
LWPOLYLINE
5
174
100
AcDbEntity
8
0
100
AcDbPolyline
90
4
70
1
43
0.0
10
105.93869999999998
20
12.403349999999982
10
105.93869999999998
20
7.1956499999999757
10
103.27169999999998
20
7.1956499999999757
10
103.27169999999998
20
12.403349999999982
0
LWPOLYLINE
5
175
100
AcDbEntity
8
0
100
AcDbPolyline
90
4
70
1
43
0.0
10
185.03870000000006
20
20.155649999999934
10
185.03870000000006
20
25.363349999999976
10
187.70570000000006
20
25.363349999999976
10
187.70570000000006
20
20.155649999999934
0
LWPOLYLINE
5
176
100
AcDbEntity
8
0
100
AcDbPolyline
90
4
70
1
43
0.0
10
187.70570000000006
20
7.1956499999999757
10
185.03870000000006
20
7.1956499999999757
10
185.03870000000006
20
12.403349999999982
10
187.70570000000006
20
12.403349999999982
0
LWPOLYLINE
5
177
100
AcDbEntity
8
0
100
AcDbPolyline
90
4
70
1
43
0.0
10
116.2717
20
7.1956499999999757
10
116.2717
20
12.403349999999982
10
118.9387
20
12.403349999999982
10
118.9387
20
7.1956499999999757
0
LWPOLYLINE
5
178
100
AcDbEntity
8
0
100
AcDbPolyline
90
4
70
1
43
0.0
10
116.2717
20
20.155649999999934
10
116.2717
20
25.363349999999976
10
118.9387
20
25.363349999999976
10
118.9387
20
20.155649999999934
0
LWPOLYLINE
5
179
100
AcDbEntity
8
0
100
AcDbPolyline
90
4
70
1
43
0.0
10
172.03870000000006
20
12.403349999999982
10
174.70570000000006
20
12.403349999999982
10
174.70570000000006
20
7.1956499999999757
10
172.03870000000006
20
7.1956499999999757
0
LWPOLYLINE
5
180
100
AcDbEntity
8
0
100
AcDbPolyline
90
4
70
1
43
0.0
10
172.03870000000006
20
25.363349999999976
10
174.70570000000006
20
25.363349999999976
10
174.70570000000006
20
20.155649999999934
10
172.03870000000006
20
20.155649999999934
0
LWPOLYLINE
5
181
100
AcDbEntity
8
0
100
AcDbPolyline
90
8
70
1
43
0.0
10
181.81400000000002
20
67.329000000000022
42
-0.41421356237309509
10
181.51400000000001
20
67.029000000000011
10
166.614
20
67.029000000000011
42
-0.41421356237309509
10
166.31399999999999
20
67.329000000000022
10
166.31399999999999
20
79.529000000000011
42
-0.41421356237309509
10
166.614
20
79.829000000000022
10
181.51400000000001
20
79.828999999999951
42
-0.41421356237309509
10
181.81399999999996
20
79.529000000000011
0
LWPOLYLINE
5
182
100
AcDbEntity
8
0
100
AcDbPolyline
90
8
70
1
43
0.0
10
167.22650000000002
20
60.779000000000032
42
-0.41421356237309509
10
167.52650000000003
20
60.479000000000021
10
167.52650000000003
20
48.279000000000011
42
-0.41421356237309509
10
167.22650000000002
20
47.979000000000021
10
152.32650000000001
20
47.979000000000021
42
-0.41421356237309509
10
152.02650000000003
20
48.279000000000011
10
152.02650000000003
20
60.479000000000021
42
-0.41421356237309509
10
152.32650000000001
20
60.779000000000011
0
LWPOLYLINE
5
183
100
AcDbEntity
8
0
100
AcDbPolyline
90
8
70
1
43
0.0
10
137.739
20
98.579000000000008
42
-0.41421356237309509
10
138.03900000000002
20
98.879000000000019
10
152.93899999999999
20
98.879000000000019
42
-0.41421356237309509
10
153.239
20
98.579000000000008
10
153.239
20
86.379000000000019
42
-0.41421356237309509
10
152.93899999999999
20
86.079000000000008
10
138.03900000000002
20
86.079000000000022
42
-0.41421356237309509
10
137.73900000000003
20
86.379000000000019
0
LWPOLYLINE
5
184
100
AcDbEntity
8
0
100
AcDbPolyline
90
8
70
1
43
0.0
10
85.651499999999999
20
28.929000000000009
42
-0.41421356237309509
10
85.351500000000001
20
29.229000000000003
10
85.351499999999987
20
41.429000000000009
42
-0.41421356237309509
10
85.651499999999999
20
41.729000000000013
10
100.5515
20
41.728999999999999
42
-0.41421356237309509
10
100.8515
20
41.429000000000009
10
100.8515
20
29.229000000000003
42
-0.41421356237309509
10
100.5515
20
28.929000000000009
0
LWPOLYLINE
5
185
100
AcDbEntity
8
0
100
AcDbPolyline
90
8
70
1
43
0.0
10
142.8015
20
28.928999999999991
42
-0.41421356237309509
10
142.50149999999999
20
29.229000000000003
10
142.50149999999999
20
41.429000000000009
42
-0.41421356237309509
10
142.8015
20
41.729000000000021
10
157.70150000000001
20
41.728999999999999
42
-0.41421356237309509
10
158.00149999999999
20
41.429000000000009
10
158.00149999999999
20
29.229000000000003
42
-0.41421356237309509
10
157.70150000000001
20
28.929000000000009
0
LWPOLYLINE
5
186
100
AcDbEntity
8
0
100
AcDbPolyline
90
4
70
1
43
0.0
10
8.6177500000000009
20
45.294000000000018
10
5.947750000000001
20
45.294000000000018
10
5.947750000000001
20
50.504000000000019
10
8.6177500000000009
20
50.504000000000019
0
LWPOLYLINE
5
187
100
AcDbEntity
8
0
100
AcDbPolyline
90
8
70
1
43
0.0
10
271.089
20
41.429000000000009
42
-0.41421356237309509
10
271.38900000000001
20
41.729000000000021
10
286.28899999999999
20
41.729000000000021
42
-0.41421356237309509
10
286.58900000000006
20
41.429000000000009
10
286.58900000000006
20
29.229000000000003
42
-0.41421356237309509
10
286.28899999999999
20
28.929000000000009
10
271.38900000000001
20
28.928999999999991
42
-0.41421356237309509
10
271.089
20
29.229000000000003
0
LWPOLYLINE
5
188
100
AcDbEntity
8
0
100
AcDbPolyline
90
8
70
1
43
0.0
10
95.789000000000016
20
86.079000000000008
10
80.88900000000001
20
86.079000000000022
42
-0.41421356237309509
10
80.589000000000013
20
86.379000000000019
10
80.588999999999999
20
98.579000000000008
42
-0.41421356237309509
10
80.88900000000001
20
98.879000000000019
10
95.789000000000016
20
98.879000000000005
42
-0.41421356237309509
10
96.088999999999999
20
98.579000000000008
10
96.089000000000027
20
86.379000000000019
42
-0.41421356237309509
0
LWPOLYLINE
5
189
100
AcDbEntity
8
0
100
AcDbPolyline
90
8
70
1
43
0.0
10
281.5265
20
22.679000000000027
42
-0.41421356237309509
10
281.82650000000001
20
22.379000000000016
10
281.82650000000001
20
10.179000000000009
42
-0.41421356237309509
10
281.5265
20
9.8790000000000155
10
266.62649999999996
20
9.8789999999999978
42
-0.41421356237309509
10
266.32650000000001
20
10.179000000000009
10
266.32650000000001
20
22.379000000000016
42
-0.41421356237309509
10
266.62649999999996
20
22.679000000000009
0
LWPOLYLINE
5
190
100
AcDbEntity
8
0
100
AcDbPolyline
90
8
70
1
43
0.0
10
286.58900000000006
20
86.379000000000019
42
-0.41421356237309509
10
286.28899999999999
20
86.079000000000008
10
271.38900000000001
20
86.079000000000008
42
-0.41421356237309509
10
271.089
20
86.379000000000019
10
271.089
20
98.579000000000008
42
-0.41421356237309509
10
271.38900000000001
20
98.879000000000019
10
286.28899999999999
20
98.879000000000019
42
-0.41421356237309509
10
286.58900000000006
20
98.579000000000008
0
LWPOLYLINE
5
191
100
AcDbEntity
8
0
100
AcDbPolyline
90
8
70
1
43
0.0
10
274.68275000000006
20
48.279000000000011
42
-0.41421356237309509
10
274.38275000000004
20
47.979000000000021
10
259.48275000000001
20
47.978999999999999
42
-0.41421356237309509
10
259.18275
20
48.279000000000011
10
259.18275
20
60.479000000000021
42
-0.41421356237309509
10
259.48275000000001
20
60.779000000000011
10
274.38275000000004
20
60.779000000000032
42
-0.41421356237309509
10
274.68275000000006
20
60.479000000000021
0
LWPOLYLINE
5
192
100
AcDbEntity
8
0
100
AcDbPolyline
90
8
70
1
43
0.0
10
42.789000000000001
20
86.079000000000022
42
-0.41421356237309509
10
42.489000000000004
20
86.379000000000019
10
42.48899999999999
20
98.579000000000008
42
-0.41421356237309509
10
42.789000000000001
20
98.879000000000019
10
57.689000000000007
20
98.879000000000019
42
-0.41421356237309509
10
57.989000000000004
20
98.579000000000008
10
57.989000000000019
20
86.379000000000019
42
-0.41421356237309509
10
57.689000000000007
20
86.079000000000008
0
LWPOLYLINE
5
193
100
AcDbEntity
8
0
100
AcDbPolyline
90
8
70
1
43
0.0
10
76.739000000000004
20
86.079000000000008
10
61.839000000000006
20
86.079000000000008
42
-0.41421356237309509
10
61.539000000000001
20
86.379000000000019
10
61.538999999999994
20
98.579000000000008
42
-0.41421356237309509
10
61.839000000000006
20
98.879000000000019
10
76.739000000000004
20
98.879000000000019
42
-0.41421356237309509
10
77.039000000000016
20
98.579000000000008
10
77.039000000000016
20
86.379000000000019
42
-0.41421356237309509
0
LWPOLYLINE
5
194
100
AcDbEntity
8
0
100
AcDbPolyline
90
4
70
1
43
0.0
10
278.00995818566088
20
78.395396001191855
10
278.00995818566093
20
80.528996001191686
10
280.19435818566092
20
80.528996001191643
10
280.19435818566086
20
78.395396001191827
0
LWPOLYLINE
5
195
100
AcDbEntity
8
0
100
AcDbPolyline
90
8
70
1
43
0.0
10
219.00150000000002
20
9.8789999999999978
42
-0.41421356237309509
10
218.70150000000001
20
10.179000000000009
10
218.70150000000001
20
22.379000000000016
42
-0.41421356237309509
10
219.00150000000002
20
22.679000000000009
10
233.9015
20
22.679000000000027
42
-0.41421356237309509
10
234.20150000000001
20
22.379000000000016
10
234.20150000000001
20
10.179000000000009
42
-0.41421356237309509
10
233.9015
20
9.8790000000000155
0
LWPOLYLINE
5
196
100
AcDbEntity
8
0
100
AcDbPolyline
90
8
70
1
43
0.0
10
62.751500000000007
20
29.229000000000003
10
62.751500000000007
20
41.429000000000009
42
0.41421356237309509
10
62.45150000000001
20
41.729000000000021
10
47.551500000000004
20
41.729000000000021
42
0.41421356237309509
10
47.2515
20
41.429000000000009
10
47.2515
20
29.229000000000003
42
0.41421356237309509
10
47.551500000000004
20
28.929000000000009
10
62.45150000000001
20
28.929000000000009
42
0.41421356237309509
0
LWPOLYLINE
5
197
100
AcDbEntity
8
0
100
AcDbPolyline
90
8
70
1
43
0.0
10
219.91400000000004
20
67.329000000000022
42
-0.41421356237309509
10
219.61400000000003
20
67.029000000000025
10
204.71400000000003
20
67.029000000000011
42
-0.41421356237309509
10
204.41400000000002
20
67.329000000000022
10
204.41400000000002
20
79.529000000000011
42
-0.41421356237309509
10
204.71400000000003
20
79.829000000000022
10
219.61400000000003
20
79.829000000000022
42
-0.41421356237309509
10
219.91400000000004
20
79.529000000000011
0
LWPOLYLINE
5
198
100
AcDbEntity
8
0
100
AcDbPolyline
90
8
70
1
43
0.0
10
245.19525000000002
20
28.928999999999991
42
-0.41421356237309509
10
244.89525
20
29.229000000000003
10
244.89525
20
41.429000000000009
42
-0.41421356237309509
10
245.19525000000002
20
41.729000000000013
10
260.09525000000002
20
41.729000000000021
42
-0.41421356237309509
10
260.39525000000003
20
41.429000000000009
10
260.39525000000003
20
29.229000000000003
42
-0.41421356237309509
10
260.09525000000002
20
28.929000000000009
0
LWPOLYLINE
5
199
100
AcDbEntity
8
0
100
AcDbPolyline
90
8
70
1
43
0.0
10
33.264000000000003
20
67.029000000000011
42
-0.41421356237309509
10
32.963999999999999
20
67.329000000000022
10
32.963999999999999
20
79.529000000000011
42
-0.41421356237309509
10
33.264000000000003
20
79.829000000000022
10
48.164000000000001
20
79.829000000000022
42
-0.41421356237309509
10
48.463999999999999
20
79.529000000000011
10
48.463999999999992
20
67.329000000000022
42
-0.41421356237309509
10
48.164000000000001
20
67.029000000000025
0
LWPOLYLINE
5
200
100
AcDbEntity
8
0
100
AcDbPolyline
90
8
70
1
43
0.0
10
71.064000000000007
20
67.329000000000022
10
71.063999999999993
20
79.529000000000011
42
-0.41421356237309509
10
71.364000000000004
20
79.829000000000022
10
86.26400000000001
20
79.829000000000008
42
-0.41421356237309509
10
86.563999999999993
20
79.529000000000011
10
86.564000000000021
20
67.329000000000022
42
-0.41421356237309509
10
86.26400000000001
20
67.029000000000011
10
71.364000000000004
20
67.029000000000025
42
-0.41421356237309509
0
LWPOLYLINE
5
201
100
AcDbEntity
8
0
100
AcDbPolyline
90
8
70
1
43
0.0
10
224.67649999999998
20
48.279000000000011
10
224.67649999999998
20
60.479000000000021
42
0.41421356237309509
10
224.37649999999996
20
60.779000000000025
10
209.47650000000004
20
60.779000000000025
42
0.41421356237309509
10
209.17650000000003
20
60.479000000000021
10
209.17650000000003
20
48.279000000000011
42
0.41421356237309509
10
209.47650000000004
20
47.979000000000021
10
224.37649999999996
20
47.979000000000021
42
0.41421356237309509
0
LWPOLYLINE
5
202
100
AcDbEntity
8
0
100
AcDbPolyline
90
8
70
1
43
0.0
10
124.664
20
67.329000000000022
42
-0.41421356237309509
10
124.364
20
67.029000000000025
10
109.464
20
67.029000000000025
42
-0.41421356237309509
10
109.16400000000002
20
67.329000000000022
10
109.16399999999999
20
79.529000000000011
42
-0.41421356237309509
10
109.464
20
79.829000000000022
10
124.364
20
79.829000000000008
42
-0.41421356237309509
10
124.664
20
79.529000000000011
0
LWPOLYLINE
5
203
100
AcDbEntity
8
0
100
AcDbPolyline
90
8
70
1
43
0.0
10
205.62650000000005
20
48.279000000000011
42
-0.41421356237309509
10
205.32650000000004
20
47.979000000000021
10
190.42650000000003
20
47.978999999999999
42
-0.41421356237309509
10
190.12650000000002
20
48.279000000000011
10
190.12650000000002
20
60.479000000000021
42
-0.41421356237309509
10
190.42650000000003
20
60.779000000000025
10
205.32650000000004
20
60.778999999999961
42
-0.41421356237309509
10
205.62649999999996
20
60.479000000000021
0
LWPOLYLINE
5
204
100
AcDbEntity
8
0
100
AcDbPolyline
90
8
70
1
43
0.0
10
232.98900000000003
20
86.379000000000019
10
232.98900000000003
20
98.579000000000008
42
-0.41421356237309509
10
233.28900000000004
20
98.879000000000019
10
248.18899999999999
20
98.879000000000019
42
-0.41421356237309509
10
248.489
20
98.579000000000008
10
248.489
20
86.379000000000019
42
-0.41421356237309509
10
248.18899999999999
20
86.079000000000008
10
233.28900000000004
20
86.079000000000008
42
-0.41421356237309509
0
LWPOLYLINE
5
205
100
AcDbEntity
8
0
100
AcDbPolyline
90
8
70
1
43
0.0
10
24.651499999999995
20
10.179000000000009
42
-0.41421356237309509
10
24.351500000000001
20
9.8790000000000155
10
9.4515000000000011
20
9.8790000000000084
42
-0.41421356237309509
10
9.1515000000000022
20
10.179000000000009
10
9.1515000000000075
20
22.379000000000016
42
-0.41421356237309509
10
9.4515000000000011
20
22.679000000000009
10
24.351500000000001
20
22.679000000000013
42
-0.41421356237309509
10
24.651499999999999
20
22.379000000000016
0
LWPOLYLINE
5
206
100
AcDbEntity
8
0
100
AcDbPolyline
90
8
70
1
43
0.0
10
90.114000000000004
20
67.329000000000022
10
90.113999999999976
20
79.529000000000011
42
-0.41421356237309509
10
90.413999999999987
20
79.829000000000022
10
105.31400000000002
20
79.829000000000008
42
-0.41421356237309509
10
105.614
20
79.529000000000011
10
105.61400000000003
20
67.329000000000022
42
-0.41421356237309509
10
105.31400000000002
20
67.029000000000011
10
90.413999999999987
20
67.029000000000025
42
-0.41421356237309509
0
LWPOLYLINE
5
207
100
AcDbEntity
8
0
100
AcDbPolyline
90
8
70
1
43
0.0
10
114.22650000000002
20
47.979000000000021
42
-0.41421356237309509
10
113.92650000000002
20
48.279000000000011
10
113.9265
20
60.479000000000021
42
-0.41421356237309509
10
114.22650000000002
20
60.779000000000025
10
129.12650000000002
20
60.779000000000011
42
-0.41421356237309509
10
129.4265
20
60.479000000000021
10
129.4265
20
48.279000000000011
42
-0.41421356237309509
10
129.12650000000002
20
47.979000000000021
0
LWPOLYLINE
5
208
100
AcDbEntity
8
0
100
AcDbPolyline
90
8
70
1
43
0.0
10
99.639000000000024
20
86.379000000000019
10
99.63900000000001
20
98.579000000000008
42
-0.41421356237309509
10
99.939000000000021
20
98.879000000000019
10
114.839
20
98.879000000000005
42
-0.41421356237309509
10
115.139
20
98.579000000000008
10
115.13900000000001
20
86.379000000000019
42
-0.41421356237309509
10
114.839
20
86.079000000000008
10
99.939000000000021
20
86.079000000000022
42
-0.41421356237309509
0
LWPOLYLINE
5
209
100
AcDbEntity
8
0
100
AcDbPolyline
90
8
70
1
43
0.0
10
195.80150000000003
20
41.729000000000021
42
-0.41421356237309509
10
196.10150000000004
20
41.429000000000009
10
196.10150000000004
20
29.229000000000003
42
-0.41421356237309509
10
195.80150000000003
20
28.929000000000009
10
180.9015
20
28.928999999999991
42
-0.41421356237309509
10
180.60149999999999
20
29.229000000000003
10
180.60149999999999
20
41.429000000000009
42
-0.41421356237309509
10
180.9015
20
41.729000000000013
0
LWPOLYLINE
5
210
100
AcDbEntity
8
0
100
AcDbPolyline
90
8
70
1
43
0.0
10
162.464
20
79.829000000000022
10
147.56399999999999
20
79.829000000000022
42
0.41421356237309509
10
147.26400000000001
20
79.529000000000011
10
147.26400000000001
20
67.329000000000022
42
0.41421356237309509
10
147.56399999999999
20
67.029000000000025
10
162.464
20
67.029000000000025
42
0.41421356237309509
10
162.76400000000001
20
67.329000000000022
10
162.76400000000001
20
79.529000000000011
42
0.41421356237309509
0
LWPOLYLINE
5
211
100
AcDbEntity
8
0
100
AcDbPolyline
90
8
70
1
43
0.0
10
186.27650000000003
20
60.779000000000025
10
171.37650000000002
20
60.779000000000011
42
0.41421356237309509
10
171.07650000000001
20
60.479000000000021
10
171.07650000000001
20
48.279000000000011
42
0.41421356237309509
10
171.37650000000002
20
47.979000000000013
10
186.27650000000003
20
47.979000000000013
42
0.41421356237309509
10
186.57650000000004
20
48.279000000000011
10
186.57650000000004
20
60.479000000000021
42
0.41421356237309509
0
LWPOLYLINE
5
212
100
AcDbEntity
8
0
100
AcDbPolyline
90
8
70
1
43
0.0
10
210.38900000000007
20
86.379000000000019
10
210.38900000000007
20
98.579000000000008
42
0.41421356237309509
10
210.08900000000006
20
98.879000000000019
10
195.18900000000002
20
98.879000000000019
42
0.41421356237309509
10
194.88900000000001
20
98.579000000000008
10
194.88900000000001
20
86.379000000000019
42
0.41421356237309509
10
195.18900000000002
20
86.079000000000008
10
210.08900000000006
20
86.079000000000008
42
0.41421356237309509
0
LWPOLYLINE
5
213
100
AcDbEntity
8
0
100
AcDbPolyline
90
8
70
1
43
0.0
10
214.23900000000003
20
86.079000000000008
42
-0.41421356237309509
10
213.93900000000002
20
86.379000000000019
10
213.93900000000002
20
98.579000000000008
42
-0.41421356237309509
10
214.23900000000003
20
98.879000000000019
10
229.13900000000007
20
98.878999999999948
42
-0.41421356237309509
10
229.43899999999999
20
98.579000000000008
10
229.43900000000008
20
86.379000000000019
42
-0.41421356237309509
10
229.13900000000007
20
86.079000000000008
0
LWPOLYLINE
5
214
100
AcDbEntity
8
0
100
AcDbPolyline
90
8
70
1
43
0.0
10
191.33900000000006
20
86.379000000000019
42
-0.41421356237309509
10
191.03900000000004
20
86.079000000000008
10
176.13900000000001
20
86.079000000000008
42
-0.41421356237309509
10
175.839
20
86.379000000000019
10
175.839
20
98.579000000000008
42
-0.41421356237309509
10
176.13900000000001
20
98.879000000000019
10
191.03900000000004
20
98.879000000000019
42
-0.41421356237309509
10
191.33900000000006
20
98.579000000000008
0
LWPOLYLINE
5
215
100
AcDbEntity
8
0
100
AcDbPolyline
90
8
70
1
43
0.0
10
148.1765
20
47.979000000000021
10
133.2765
20
47.979000000000042
42
-0.41421356237309509
10
132.97650000000002
20
48.279000000000011
10
132.97650000000002
20
60.479000000000021
42
-0.41421356237309509
10
133.2765
20
60.779000000000011
10
148.1765
20
60.779000000000011
42
-0.41421356237309509
10
148.47649999999999
20
60.479000000000021
10
148.47649999999999
20
48.279000000000011
42
-0.41421356237309509
0
LWPOLYLINE
5
216
100
AcDbEntity
8
0
100
AcDbPolyline
90
8
70
1
43
0.0
10
215.15150000000006
20
29.229000000000003
42
-0.41421356237309509
10
214.85150000000004
20
28.929000000000009
10
199.95150000000001
20
28.928999999999991
42
-0.41421356237309509
10
199.6515
20
29.229000000000003
10
199.6515
20
41.429000000000009
42
-0.41421356237309509
10
199.95150000000001
20
41.729000000000021
10
214.85150000000004
20
41.728999999999949
42
-0.41421356237309509
10
215.1515
20
41.429000000000009
0
LWPOLYLINE
5
217
100
AcDbEntity
8
0
100
AcDbPolyline
90
8
70
1
43
0.0
10
218.70150000000001
20
41.429000000000009
42
-0.41421356237309509
10
219.00150000000002
20
41.729000000000013
10
233.9015
20
41.729000000000021
42
-0.41421356237309509
10
234.20150000000001
20
41.429000000000009
10
234.20150000000001
20
29.229000000000003
42
-0.41421356237309509
10
233.9015
20
28.929000000000009
10
219.00150000000002
20
28.928999999999991
42
-0.41421356237309509
10
218.70150000000001
20
29.229000000000003
0
LWPOLYLINE
5
218
100
AcDbEntity
8
0
100
AcDbPolyline
90
4
70
1
43
0.0
10
278.00995818566093
20
80.528996001191686
10
280.19435818566092
20
80.528996001191643
10
280.19435818566086
20
78.395396001191827
10
278.00995818566088
20
78.395396001191855
0
LWPOLYLINE
5
219
100
AcDbEntity
8
0
100
AcDbPolyline
90
4
70
1
43
0.0
10
36.710250000000002
20
26.244000000000014
10
36.710250000000002
20
31.454000000000022
10
39.380250000000004
20
31.454000000000022
10
39.380250000000004
20
26.244000000000014
0
LWPOLYLINE
5
220
100
AcDbEntity
8
0
100
AcDbPolyline
90
4
70
1
43
0.0
10
282.26775000000004
20
45.294000000000018
10
279.59775000000002
20
45.294000000000018
10
279.59775000000002
20
50.504000000000019
10
282.26775000000004
20
50.504000000000019
0
LWPOLYLINE
5
221
100
AcDbEntity
8
0
100
AcDbPolyline
90
8
70
1
43
0.0
10
138.6515
20
41.729000000000021
42
-0.41421356237309509
10
138.95150000000001
20
41.429000000000009
10
138.95149999999998
20
29.229000000000003
42
-0.41421356237309509
10
138.6515
20
28.929000000000009
10
123.75150000000002
20
28.929000000000009
42
-0.41421356237309509
10
123.45150000000002
20
29.229000000000003
10
123.45150000000001
20
41.429000000000009
42
-0.41421356237309509
10
123.75150000000002
20
41.729000000000013
0
LWPOLYLINE
5
222
100
AcDbEntity
8
0
100
AcDbPolyline
90
8
70
1
43
0.0
10
252.03899999999999
20
98.579000000000008
42
-0.41421356237309509
10
252.339
20
98.879000000000019
10
267.23900000000003
20
98.879000000000019
42
-0.41421356237309509
10
267.53899999999999
20
98.579000000000008
10
267.53899999999999
20
86.379000000000019
42
-0.41421356237309509
10
267.23900000000003
20
86.079000000000008
10
252.339
20
86.079000000000008
42
-0.41421356237309509
10
252.03899999999999
20
86.379000000000019
0
LWPOLYLINE
5
223
100
AcDbEntity
8
0
100
AcDbPolyline
90
8
70
1
43
0.0
10
110.07650000000001
20
60.779000000000025
10
95.176500000000004
20
60.779000000000025
42
0.41421356237309509
10
94.876500000000007
20
60.479000000000021
10
94.876500000000007
20
48.279000000000011
42
0.41421356237309509
10
95.176500000000004
20
47.979000000000021
10
110.07650000000001
20
47.979000000000021
42
0.41421356237309509
10
110.37650000000001
20
48.279000000000011
10
110.37650000000001
20
60.479000000000021
42
0.41421356237309509
0
LWPOLYLINE
5
224
100
AcDbEntity
8
0
100
AcDbPolyline
90
8
70
1
43
0.0
10
16.295250000000003
20
29.229000000000003
10
16.295249999999989
20
41.429000000000009
42
-0.41421356237309509
10
16.59525
20
41.729000000000021
10
31.495250000000006
20
41.728999999999999
42
-0.41421356237309509
10
31.795249999999999
20
41.429000000000009
10
31.795249999999999
20
29.229000000000003
42
-0.41421356237309509
10
31.495250000000006
20
28.929000000000009
10
16.59525
20
28.929000000000002
42
-0.41421356237309509
0
LWPOLYLINE
5
225
100
AcDbEntity
8
0
100
AcDbPolyline
90
8
70
1
43
0.0
10
52.926500000000004
20
60.779000000000025
42
-0.41421356237309509
10
53.226500000000001
20
60.479000000000021
10
53.226499999999994
20
48.279000000000011
42
-0.41421356237309509
10
52.926500000000004
20
47.979000000000021
10
38.026500000000006
20
47.979000000000013
42
-0.41421356237309509
10
37.726500000000001
20
48.279000000000011
10
37.726500000000009
20
60.479000000000021
42
-0.41421356237309509
10
38.026500000000006
20
60.779000000000011
0
LWPOLYLINE
5
226
100
AcDbEntity
8
0
100
AcDbPolyline
90
8
70
1
43
0.0
10
119.6015
20
41.728999999999999
42
-0.41421356237309509
10
119.9015
20
41.429000000000009
10
119.9015
20
29.229000000000003
42
-0.41421356237309509
10
119.6015
20
28.929000000000009
10
104.70150000000002
20
28.928999999999991
42
-0.41421356237309509
10
104.40150000000001
20
29.229000000000003
10
104.40150000000003
20
41.429000000000009
42
-0.41421356237309509
10
104.70150000000002
20
41.729000000000013
0
LWPOLYLINE
5
227
100
AcDbEntity
8
0
100
AcDbPolyline
90
8
70
1
43
0.0
10
67.213999999999999
20
67.029000000000025
10
52.314000000000007
20
67.029000000000011
42
-0.41421356237309509
10
52.014000000000003
20
67.329000000000022
10
52.014000000000003
20
79.529000000000011
42
-0.41421356237309509
10
52.314000000000007
20
79.829000000000022
10
67.213999999999999
20
79.829000000000022
42
-0.41421356237309509
10
67.51400000000001
20
79.529000000000011
10
67.513999999999996
20
67.329000000000022
42
-0.41421356237309509
0
LWPOLYLINE
5
228
100
AcDbEntity
8
0
100
AcDbPolyline
90
8
70
1
43
0.0
10
238.66400000000004
20
79.829000000000022
10
223.76400000000004
20
79.829000000000022
42
0.41421356237309509
10
223.46400000000003
20
79.529000000000011
10
223.46400000000003
20
67.329000000000022
42
0.41421356237309509
10
223.76400000000004
20
67.029000000000025
10
238.66400000000004
20
67.029000000000025
42
0.41421356237309509
10
238.96400000000006
20
67.329000000000022
10
238.964
20
79.529000000000011
42
0.41421356237309509
0
LWPOLYLINE
5
229
100
AcDbEntity
8
0
100
AcDbPolyline
90
8
70
1
43
0.0
10
228.22650000000004
20
60.479000000000021
42
-0.41421356237309509
10
228.52650000000006
20
60.779000000000025
10
243.42649999999998
20
60.779000000000032
42
-0.41421356237309509
10
243.72649999999999
20
60.479000000000021
10
243.72649999999999
20
48.279000000000011
42
-0.41421356237309509
10
243.42649999999998
20
47.979000000000013
10
228.52650000000006
20
47.978999999999999
42
-0.41421356237309509
10
228.22650000000004
20
48.279000000000011
0
LWPOLYLINE
5
230
100
AcDbEntity
8
0
100
AcDbPolyline
90
8
70
1
43
0.0
10
57.076500000000003
20
9.8790000000000067
42
-0.41421356237309509
10
56.776499999999999
20
10.179000000000009
10
56.776500000000006
20
22.379000000000016
42
-0.41421356237309509
10
57.076500000000003
20
22.679000000000009
10
71.976500000000001
20
22.679000000000009
42
-0.41421356237309509
10
72.276499999999999
20
22.379000000000016
10
72.276499999999999
20
10.179000000000009
42
-0.41421356237309509
10
71.976500000000001
20
9.8790000000000155
0
LWPOLYLINE
5
231
100
AcDbEntity
8
0
100
AcDbPolyline
90
4
70
1
43
0.0
10
239.31025
20
26.244000000000014
10
239.31025
20
31.454000000000022
10
241.98025000000001
20
31.454000000000022
10
241.98025000000001
20
26.244000000000014
0
LWPOLYLINE
5
232
100
AcDbEntity
8
0
100
AcDbPolyline
90
4
70
1
43
0.0
10
251.59775000000002
20
45.294000000000018
10
251.59775000000002
20
50.504000000000019
10
254.26774999999998
20
50.504000000000019
10
254.26774999999998
20
45.294000000000018
0
LWPOLYLINE
5
233
100
AcDbEntity
8
0
100
AcDbPolyline
90
8
70
1
43
0.0
10
118.989
20
86.079000000000022
42
-0.41421356237309509
10
118.68900000000002
20
86.379000000000019
10
118.68899999999999
20
98.579000000000008
42
-0.41421356237309509
10
118.989
20
98.879000000000019
10
133.88900000000001
20
98.879000000000005
42
-0.41421356237309509
10
134.18900000000002
20
98.579000000000008
10
134.18900000000002
20
86.379000000000019
42
-0.41421356237309509
10
133.88900000000001
20
86.079000000000008
0
LWPOLYLINE
5
234
100
AcDbEntity
8
0
100
AcDbPolyline
90
8
70
1
43
0.0
10
128.21400000000003
20
67.329000000000022
10
128.214
20
79.529000000000011
42
-0.41421356237309509
10
128.51400000000001
20
79.829000000000022
10
143.41400000000002
20
79.828999999999994
42
-0.41421356237309509
10
143.714
20
79.529000000000011
10
143.714
20
67.329000000000022
42
-0.41421356237309509
10
143.41400000000002
20
67.029000000000011
10
128.51400000000001
20
67.029000000000025
42
-0.41421356237309509
0
LWPOLYLINE
5
235
100
AcDbEntity
8
0
100
AcDbPolyline
90
8
70
1
43
0.0
10
242.51399999999995
20
79.529000000000011
42
-0.41421356237309509
10
242.81399999999996
20
79.829000000000022
10
257.714
20
79.829000000000022
42
-0.41421356237309509
10
258.01400000000001
20
79.529000000000011
10
258.01400000000001
20
67.329000000000022
42
-0.41421356237309509
10
257.714
20
67.029000000000025
10
242.81399999999996
20
67.029000000000082
42
-0.41421356237309509
10
242.51400000000004
20
67.329000000000022
0
LWPOLYLINE
5
236
100
AcDbEntity
8
0
100
AcDbPolyline
90
8
70
1
43
0.0
10
176.75150000000002
20
28.929000000000009
10
161.85149999999999
20
28.928999999999991
42
-0.41421356237309509
10
161.55149999999998
20
29.229000000000003
10
161.55149999999998
20
41.429000000000009
42
-0.41421356237309509
10
161.85149999999999
20
41.729000000000013
10
176.75150000000002
20
41.729000000000021
42
-0.41421356237309509
10
177.05150000000003
20
41.429000000000009
10
177.05150000000003
20
29.229000000000003
42
-0.41421356237309509
0
LWPOLYLINE
5
237
100
AcDbEntity
8
0
100
AcDbPolyline
90
8
70
1
43
0.0
10
38.939000000000014
20
86.379000000000019
42
-0.41421356237309509
10
38.639000000000003
20
86.079000000000008
10
23.739000000000004
20
86.079000000000008
42
-0.41421356237309509
10
23.439
20
86.379000000000019
10
23.438999999999993
20
98.579000000000008
42
-0.41421356237309509
10
23.739000000000004
20
98.879000000000019
10
38.639000000000003
20
98.879000000000005
42
-0.41421356237309509
10
38.939
20
98.579000000000008
0
LWPOLYLINE
5
238
100
AcDbEntity
8
0
100
AcDbPolyline
90
8
70
1
43
0.0
10
153.23899999999998
20
10.179000000000009
42
-0.41421356237309509
10
152.93899999999999
20
9.8790000000000155
10
138.03900000000002
20
9.8789999999999978
42
-0.41421356237309509
10
137.739
20
10.179000000000009
10
137.73900000000003
20
22.379000000000016
42
-0.41421356237309509
10
138.03900000000002
20
22.679000000000009
10
152.93899999999999
20
22.679000000000027
42
-0.41421356237309509
10
153.239
20
22.379000000000016
0
LWPOLYLINE
5
239
100
AcDbEntity
8
0
100
AcDbPolyline
90
8
70
1
43
0.0
10
91.026499999999999
20
60.779000000000025
10
76.126500000000007
20
60.779000000000025
42
0.41421356237309509
10
75.82650000000001
20
60.479000000000021
10
75.82650000000001
20
48.279000000000011
42
0.41421356237309509
10
76.126500000000007
20
47.979000000000013
10
91.026499999999999
20
47.979000000000013
42
0.41421356237309509
10
91.326499999999996
20
48.279000000000011
10
91.32650000000001
20
60.479000000000021
42
0.41421356237309509
0
LWPOLYLINE
5
240
100
AcDbEntity
8
0
100
AcDbPolyline
90
8
70
1
43
0.0
10
71.976500000000001
20
60.779000000000011
42
-0.41421356237309509
10
72.276499999999999
20
60.479000000000021
10
72.276499999999999
20
48.279000000000011
42
-0.41421356237309509
10
71.976500000000001
20
47.979000000000013
10
57.076500000000003
20
47.979000000000013
42
-0.41421356237309509
10
56.776499999999999
20
48.279000000000011
10
56.776499999999999
20
60.479000000000021
42
-0.41421356237309509
10
57.076500000000003
20
60.779000000000025
0
LWPOLYLINE
5
241
100
AcDbEntity
8
0
100
AcDbPolyline
90
8
70
1
43
0.0
10
24.351500000000001
20
79.829000000000022
10
9.4515000000000011
20
79.829000000000022
42
0.41421356237309509
10
9.1515000000000022
20
79.529000000000011
10
9.1515000000000022
20
67.329000000000022
42
0.41421356237309509
10
9.4515000000000011
20
67.029000000000011
10
24.351500000000001
20
67.029000000000011
42
0.41421356237309509
10
24.651499999999999
20
67.329000000000022
10
24.651500000000006
20
79.529000000000011
42
0.41421356237309509
0
LWPOLYLINE
5
242
100
AcDbEntity
8
0
100
AcDbPolyline
90
8
70
1
43
0.0
10
26.732750000000003
20
60.779000000000011
42
-0.41421356237309509
10
27.03275
20
60.479000000000021
10
27.032750000000007
20
48.279000000000011
42
-0.41421356237309509
10
26.732750000000003
20
47.979000000000013
10
11.832750000000001
20
47.979000000000013
42
-0.41421356237309509
10
11.53275
20
48.279000000000011
10
11.532749999999998
20
60.479000000000021
42
-0.41421356237309509
10
11.832750000000001
20
60.779000000000025
0
LWPOLYLINE
5
243
100
AcDbEntity
8
0
100
AcDbPolyline
90
8
70
1
43
0.0
10
4.3889999999999896
20
98.579000000000008
42
-0.41421356237309509
10
4.6890000000000009
20
98.879000000000019
10
19.589000000000002
20
98.879000000000005
42
-0.41421356237309509
10
19.889000000000003
20
98.579000000000008
10
19.889000000000014
20
86.379000000000019
42
-0.41421356237309509
10
19.589000000000002
20
86.079000000000008
10
4.6890000000000009
20
86.079000000000022
42
-0.41421356237309509
10
4.3890000000000011
20
86.379000000000019
0
LWPOLYLINE
5
244
100
AcDbEntity
8
0
100
AcDbPolyline
90
4
70
1
43
0.0
10
32.617750000000001
20
45.294000000000018
10
29.947750000000003
20
45.294000000000018
10
29.947750000000003
20
50.504000000000019
10
32.617750000000001
20
50.504000000000019
0
LWPOLYLINE
5
245
100
AcDbEntity
8
0
100
AcDbPolyline
90
4
70
1
43
0.0
10
8.710250000000002
20
26.244000000000014
10
8.710250000000002
20
31.454000000000022
10
11.380250000000004
20
31.454000000000022
10
11.380250000000004
20
26.244000000000014
0
LWPOLYLINE
5
246
100
AcDbEntity
8
0
100
AcDbPolyline
90
8
70
1
43
0.0
10
81.501499999999993
20
28.929000000000009
10
66.601500000000001
20
28.929000000000009
42
-0.41421356237309509
10
66.301500000000004
20
29.229000000000003
10
66.30149999999999
20
41.429000000000009
42
-0.41421356237309509
10
66.601500000000001
20
41.729000000000021
10
81.501499999999993
20
41.729000000000021
42
-0.41421356237309509
10
81.801500000000004
20
41.429000000000009
10
81.80149999999999
20
29.229000000000003
42
-0.41421356237309509
0
LWPOLYLINE
5
247
100
AcDbEntity
8
0
100
AcDbPolyline
90
4
70
1
43
0.0
10
280.19435818566086
20
68.362078036115804
10
280.19435818566086
20
66.228478036115789
10
278.00995818566088
20
66.228478036115817
10
278.00995818566088
20
68.362078036115832
0
LWPOLYLINE
5
248
100
AcDbEntity
8
0
100
AcDbPolyline
90
4
70
1
43
0.0
10
278.00995818566088
20
66.228478036115817
10
278.00995818566088
20
68.362078036115832
10
280.19435818566086
20
68.362078036115804
10
280.19435818566086
20
66.228478036115789
0
LWPOLYLINE
5
249
100
AcDbEntity
8
0
100
AcDbPolyline
90
4
70
1
43
0.0
10
265.98025000000001
20
26.244000000000014
10
265.98025000000001
20
31.454000000000022
10
263.31025000000005
20
31.454000000000022
10
263.31025000000005
20
26.244000000000014
0
LWPOLYLINE
5
250
100
AcDbEntity
8
0
100
AcDbPolyline
90
8
70
1
43
0.0
10
185.364
20
67.329000000000022
10
185.364
20
79.529000000000011
42
-0.41421356237309509
10
185.66400000000002
20
79.829000000000022
10
200.56400000000002
20
79.829000000000022
42
-0.41421356237309509
10
200.86400000000003
20
79.529000000000011
10
200.86400000000003
20
67.329000000000022
42
-0.41421356237309509
10
200.56400000000002
20
67.029000000000011
10
185.66400000000002
20
67.029000000000011
42
-0.41421356237309509
0
LWPOLYLINE
5
251
100
AcDbEntity
8
0
100
AcDbPolyline
90
8
70
1
43
0.0
10
171.98900000000003
20
98.879000000000019
42
-0.41421356237309509
10
172.28900000000004
20
98.579000000000008
10
172.28900000000004
20
86.379000000000019
42
-0.41421356237309509
10
171.98900000000003
20
86.079000000000008
10
157.089
20
86.079000000000022
42
-0.41421356237309509
10
156.78900000000002
20
86.379000000000019
10
156.78899999999999
20
98.579000000000008
42
-0.41421356237309509
10
157.089
20
98.879000000000019
0
CIRCLE
5
252
100
AcDbEntity
8
0
100
AcDbCircle
10
279.00215691226595
20
73.37873701865378
30
0
40
3.2385000000000019
210
-0
220
0
230
1
0
CIRCLE
5
253
100
AcDbEntity
8
0
100
AcDbCircle
10
279.00215691226595
20
73.37873701865378
30
0
40
3.2385000000000019
210
-0
220
0
230
1
0
ENDSEC
0
SECTION
2
OBJECTS
0
DICTIONARY
5
C
100
AcDbDictionary
3
ACAD_GROUP
350
D
3
ACAD_MLINESTYLE
350
17
0
DICTIONARY
5
D
100
AcDbDictionary
0
DICTIONARY
5
1A
330
C
100
AcDbDictionary
0
DICTIONARY
5
17
100
AcDbDictionary
0
ENDSEC
0
EOF
