G04 #@! TF.GenerationSoftware,KiCad,Pcbnew,(5.1.10)-1*
G04 #@! TF.CreationDate,2021-10-10T16:54:22+07:00*
G04 #@! TF.ProjectId,averange65,61766572-616e-4676-9536-352e6b696361,rev?*
G04 #@! TF.SameCoordinates,Original*
G04 #@! TF.FileFunction,Paste,Bot*
G04 #@! TF.FilePolarity,Positive*
%FSLAX46Y46*%
G04 Gerber Fmt 4.6, Leading zero omitted, Abs format (unit mm)*
G04 Created by KiCad (PCBNEW (5.1.10)-1) date 2021-10-10 16:54:22*
%MOMM*%
%LPD*%
G01*
G04 APERTURE LIST*
%ADD10R,1.400000X1.200000*%
%ADD11R,0.700000X1.300000*%
%ADD12R,1.300000X0.700000*%
%ADD13R,0.800000X0.750000*%
%ADD14R,0.750000X0.800000*%
%ADD15R,1.500000X1.000000*%
%ADD16R,1.000000X1.500000*%
%ADD17R,1.800000X1.200000*%
%ADD18R,1.550000X0.600000*%
%ADD19R,2.030000X1.140000*%
%ADD20R,1.800000X1.100000*%
%ADD21R,0.700000X1.000000*%
%ADD22R,0.700000X0.600000*%
%ADD23R,0.600000X1.550000*%
%ADD24R,1.200000X1.800000*%
%ADD25R,0.300000X1.450000*%
%ADD26R,0.600000X1.450000*%
G04 APERTURE END LIST*
D10*
X31659380Y-83892130D03*
X29459380Y-83892130D03*
X29459380Y-82192130D03*
X31659380Y-82192130D03*
D11*
X19714250Y-94424500D03*
X17814250Y-94424500D03*
X19714250Y-96424500D03*
X17814250Y-96424500D03*
D12*
X42576750Y-99697500D03*
X42576750Y-101597500D03*
X22320250Y-75496500D03*
X22320250Y-73596500D03*
D11*
X21364597Y-93038023D03*
X23264597Y-93038023D03*
X21364597Y-91103246D03*
X23264597Y-91103246D03*
D12*
X14724071Y-51755008D03*
X14724071Y-53655008D03*
X12738132Y-51755008D03*
X12738132Y-53655008D03*
D13*
X38056250Y-88011000D03*
X36556250Y-88011000D03*
X21415768Y-88870811D03*
X22915768Y-88870811D03*
X25554880Y-84185130D03*
X27054880Y-84185130D03*
D14*
X36750706Y-95262000D03*
X36750706Y-96762000D03*
D13*
X25554880Y-82407130D03*
X27054880Y-82407130D03*
D14*
X33734380Y-82355630D03*
X33734380Y-83855630D03*
X24923750Y-94297500D03*
X24923750Y-95797500D03*
G36*
G01*
X265860218Y-127555072D02*
X265860218Y-127055072D01*
G75*
G02*
X266110218Y-126805072I250000J0D01*
G01*
X267110218Y-126805072D01*
G75*
G02*
X267360218Y-127055072I0J-250000D01*
G01*
X267360218Y-127555072D01*
G75*
G02*
X267110218Y-127805072I-250000J0D01*
G01*
X266110218Y-127805072D01*
G75*
G02*
X265860218Y-127555072I0J250000D01*
G01*
G37*
D15*
X266610218Y-130505072D03*
X261710218Y-127305072D03*
X261710218Y-130505072D03*
G36*
G01*
X244428950Y-127555072D02*
X244428950Y-127055072D01*
G75*
G02*
X244678950Y-126805072I250000J0D01*
G01*
X245678950Y-126805072D01*
G75*
G02*
X245928950Y-127055072I0J-250000D01*
G01*
X245928950Y-127555072D01*
G75*
G02*
X245678950Y-127805072I-250000J0D01*
G01*
X244678950Y-127805072D01*
G75*
G02*
X244428950Y-127555072I0J250000D01*
G01*
G37*
X245178950Y-130505072D03*
X240278950Y-127305072D03*
X240278950Y-130505072D03*
G36*
G01*
X212877361Y-126959759D02*
X212877361Y-126459759D01*
G75*
G02*
X213127361Y-126209759I250000J0D01*
G01*
X214127361Y-126209759D01*
G75*
G02*
X214377361Y-126459759I0J-250000D01*
G01*
X214377361Y-126959759D01*
G75*
G02*
X214127361Y-127209759I-250000J0D01*
G01*
X213127361Y-127209759D01*
G75*
G02*
X212877361Y-126959759I0J250000D01*
G01*
G37*
X213627361Y-129909759D03*
X208727361Y-126709759D03*
X208727361Y-129909759D03*
G36*
G01*
X155132000Y-123983194D02*
X155132000Y-123483194D01*
G75*
G02*
X155382000Y-123233194I250000J0D01*
G01*
X156382000Y-123233194D01*
G75*
G02*
X156632000Y-123483194I0J-250000D01*
G01*
X156632000Y-123983194D01*
G75*
G02*
X156382000Y-124233194I-250000J0D01*
G01*
X155382000Y-124233194D01*
G75*
G02*
X155132000Y-123983194I0J250000D01*
G01*
G37*
X155882000Y-126933194D03*
X150982000Y-123733194D03*
X150982000Y-126933194D03*
G36*
G01*
X116436655Y-123983194D02*
X116436655Y-123483194D01*
G75*
G02*
X116686655Y-123233194I250000J0D01*
G01*
X117686655Y-123233194D01*
G75*
G02*
X117936655Y-123483194I0J-250000D01*
G01*
X117936655Y-123983194D01*
G75*
G02*
X117686655Y-124233194I-250000J0D01*
G01*
X116686655Y-124233194D01*
G75*
G02*
X116436655Y-123983194I0J250000D01*
G01*
G37*
X117186655Y-126933194D03*
X112286655Y-123733194D03*
X112286655Y-126933194D03*
G36*
G01*
X83694440Y-122792568D02*
X83694440Y-122292568D01*
G75*
G02*
X83944440Y-122042568I250000J0D01*
G01*
X84944440Y-122042568D01*
G75*
G02*
X85194440Y-122292568I0J-250000D01*
G01*
X85194440Y-122792568D01*
G75*
G02*
X84944440Y-123042568I-250000J0D01*
G01*
X83944440Y-123042568D01*
G75*
G02*
X83694440Y-122792568I0J250000D01*
G01*
G37*
X84444440Y-125742568D03*
X79544440Y-122542568D03*
X79544440Y-125742568D03*
G36*
G01*
X47307200Y-123633690D02*
X46807200Y-123633690D01*
G75*
G02*
X46557200Y-123383690I0J250000D01*
G01*
X46557200Y-122383690D01*
G75*
G02*
X46807200Y-122133690I250000J0D01*
G01*
X47307200Y-122133690D01*
G75*
G02*
X47557200Y-122383690I0J-250000D01*
G01*
X47557200Y-123383690D01*
G75*
G02*
X47307200Y-123633690I-250000J0D01*
G01*
G37*
D16*
X50257200Y-122883690D03*
X47057200Y-127783690D03*
X50257200Y-127783690D03*
G36*
G01*
X20591450Y-113268020D02*
X20591450Y-112768020D01*
G75*
G02*
X20841450Y-112518020I250000J0D01*
G01*
X21841450Y-112518020D01*
G75*
G02*
X22091450Y-112768020I0J-250000D01*
G01*
X22091450Y-113268020D01*
G75*
G02*
X21841450Y-113518020I-250000J0D01*
G01*
X20841450Y-113518020D01*
G75*
G02*
X20591450Y-113268020I0J250000D01*
G01*
G37*
D15*
X21341450Y-116218020D03*
X16441450Y-113018020D03*
X16441450Y-116218020D03*
G36*
G01*
X7144376Y-107387865D02*
X7644376Y-107387865D01*
G75*
G02*
X7894376Y-107637865I0J-250000D01*
G01*
X7894376Y-108637865D01*
G75*
G02*
X7644376Y-108887865I-250000J0D01*
G01*
X7144376Y-108887865D01*
G75*
G02*
X6894376Y-108637865I0J250000D01*
G01*
X6894376Y-107637865D01*
G75*
G02*
X7144376Y-107387865I250000J0D01*
G01*
G37*
D16*
X4194376Y-108137865D03*
X7394376Y-103237865D03*
X4194376Y-103237865D03*
G36*
G01*
X7144520Y-75836600D02*
X7644520Y-75836600D01*
G75*
G02*
X7894520Y-76086600I0J-250000D01*
G01*
X7894520Y-77086600D01*
G75*
G02*
X7644520Y-77336600I-250000J0D01*
G01*
X7144520Y-77336600D01*
G75*
G02*
X6894520Y-77086600I0J250000D01*
G01*
X6894520Y-76086600D01*
G75*
G02*
X7144520Y-75836600I250000J0D01*
G01*
G37*
X4194520Y-76586600D03*
X7394520Y-71686600D03*
X4194520Y-71686600D03*
G36*
G01*
X278288356Y-111131621D02*
X277788356Y-111131621D01*
G75*
G02*
X277538356Y-110881621I0J250000D01*
G01*
X277538356Y-109881621D01*
G75*
G02*
X277788356Y-109631621I250000J0D01*
G01*
X278288356Y-109631621D01*
G75*
G02*
X278538356Y-109881621I0J-250000D01*
G01*
X278538356Y-110881621D01*
G75*
G02*
X278288356Y-111131621I-250000J0D01*
G01*
G37*
X281238356Y-110381621D03*
X278038356Y-115281621D03*
X281238356Y-115281621D03*
G36*
G01*
X279478982Y-70650337D02*
X278978982Y-70650337D01*
G75*
G02*
X278728982Y-70400337I0J250000D01*
G01*
X278728982Y-69400337D01*
G75*
G02*
X278978982Y-69150337I250000J0D01*
G01*
X279478982Y-69150337D01*
G75*
G02*
X279728982Y-69400337I0J-250000D01*
G01*
X279728982Y-70400337D01*
G75*
G02*
X279478982Y-70650337I-250000J0D01*
G01*
G37*
X282428982Y-69900337D03*
X279228982Y-74800337D03*
X282428982Y-74800337D03*
G36*
G01*
X263650844Y-58817512D02*
X263650844Y-59317512D01*
G75*
G02*
X263400844Y-59567512I-250000J0D01*
G01*
X262400844Y-59567512D01*
G75*
G02*
X262150844Y-59317512I0J250000D01*
G01*
X262150844Y-58817512D01*
G75*
G02*
X262400844Y-58567512I250000J0D01*
G01*
X263400844Y-58567512D01*
G75*
G02*
X263650844Y-58817512I0J-250000D01*
G01*
G37*
D15*
X262900844Y-55867512D03*
X267800844Y-59067512D03*
X267800844Y-55867512D03*
G36*
G01*
X248842410Y-48452110D02*
X249342410Y-48452110D01*
G75*
G02*
X249592410Y-48702110I0J-250000D01*
G01*
X249592410Y-49702110D01*
G75*
G02*
X249342410Y-49952110I-250000J0D01*
G01*
X248842410Y-49952110D01*
G75*
G02*
X248592410Y-49702110I0J250000D01*
G01*
X248592410Y-48702110D01*
G75*
G02*
X248842410Y-48452110I250000J0D01*
G01*
G37*
D16*
X245892410Y-49202110D03*
X249092410Y-44302110D03*
X245892410Y-44302110D03*
G36*
G01*
X210742250Y-48452110D02*
X211242250Y-48452110D01*
G75*
G02*
X211492250Y-48702110I0J-250000D01*
G01*
X211492250Y-49702110D01*
G75*
G02*
X211242250Y-49952110I-250000J0D01*
G01*
X210742250Y-49952110D01*
G75*
G02*
X210492250Y-49702110I0J250000D01*
G01*
X210492250Y-48702110D01*
G75*
G02*
X210742250Y-48452110I250000J0D01*
G01*
G37*
X207792250Y-49202110D03*
X210992250Y-44302110D03*
X207792250Y-44302110D03*
G36*
G01*
X172642090Y-48452110D02*
X173142090Y-48452110D01*
G75*
G02*
X173392090Y-48702110I0J-250000D01*
G01*
X173392090Y-49702110D01*
G75*
G02*
X173142090Y-49952110I-250000J0D01*
G01*
X172642090Y-49952110D01*
G75*
G02*
X172392090Y-49702110I0J250000D01*
G01*
X172392090Y-48702110D01*
G75*
G02*
X172642090Y-48452110I250000J0D01*
G01*
G37*
X169692090Y-49202110D03*
X172892090Y-44302110D03*
X169692090Y-44302110D03*
G36*
G01*
X134541930Y-48452110D02*
X135041930Y-48452110D01*
G75*
G02*
X135291930Y-48702110I0J-250000D01*
G01*
X135291930Y-49702110D01*
G75*
G02*
X135041930Y-49952110I-250000J0D01*
G01*
X134541930Y-49952110D01*
G75*
G02*
X134291930Y-49702110I0J250000D01*
G01*
X134291930Y-48702110D01*
G75*
G02*
X134541930Y-48452110I250000J0D01*
G01*
G37*
X131591930Y-49202110D03*
X134791930Y-44302110D03*
X131591930Y-44302110D03*
G36*
G01*
X96441770Y-48452110D02*
X96941770Y-48452110D01*
G75*
G02*
X97191770Y-48702110I0J-250000D01*
G01*
X97191770Y-49702110D01*
G75*
G02*
X96941770Y-49952110I-250000J0D01*
G01*
X96441770Y-49952110D01*
G75*
G02*
X96191770Y-49702110I0J250000D01*
G01*
X96191770Y-48702110D01*
G75*
G02*
X96441770Y-48452110I250000J0D01*
G01*
G37*
X93491770Y-49202110D03*
X96691770Y-44302110D03*
X93491770Y-44302110D03*
G36*
G01*
X58341610Y-48452110D02*
X58841610Y-48452110D01*
G75*
G02*
X59091610Y-48702110I0J-250000D01*
G01*
X59091610Y-49702110D01*
G75*
G02*
X58841610Y-49952110I-250000J0D01*
G01*
X58341610Y-49952110D01*
G75*
G02*
X58091610Y-49702110I0J250000D01*
G01*
X58091610Y-48702110D01*
G75*
G02*
X58341610Y-48452110I250000J0D01*
G01*
G37*
X55391610Y-49202110D03*
X58591610Y-44302110D03*
X55391610Y-44302110D03*
G36*
G01*
X17191450Y-58817780D02*
X17191450Y-59317780D01*
G75*
G02*
X16941450Y-59567780I-250000J0D01*
G01*
X15941450Y-59567780D01*
G75*
G02*
X15691450Y-59317780I0J250000D01*
G01*
X15691450Y-58817780D01*
G75*
G02*
X15941450Y-58567780I250000J0D01*
G01*
X16941450Y-58567780D01*
G75*
G02*
X17191450Y-58817780I0J-250000D01*
G01*
G37*
D15*
X16441450Y-55867780D03*
X21341450Y-59067780D03*
X21341450Y-55867780D03*
G36*
G01*
X243569576Y-108300369D02*
X244269576Y-108300369D01*
G75*
G02*
X244519576Y-108550369I0J-250000D01*
G01*
X244519576Y-109050369D01*
G75*
G02*
X244269576Y-109300369I-250000J0D01*
G01*
X243569576Y-109300369D01*
G75*
G02*
X243319576Y-109050369I0J250000D01*
G01*
X243319576Y-108550369D01*
G75*
G02*
X243569576Y-108300369I250000J0D01*
G01*
G37*
G36*
G01*
X243569576Y-111600369D02*
X244269576Y-111600369D01*
G75*
G02*
X244519576Y-111850369I0J-250000D01*
G01*
X244519576Y-112350369D01*
G75*
G02*
X244269576Y-112600369I-250000J0D01*
G01*
X243569576Y-112600369D01*
G75*
G02*
X243319576Y-112350369I0J250000D01*
G01*
X243319576Y-111850369D01*
G75*
G02*
X243569576Y-111600369I250000J0D01*
G01*
G37*
G36*
G01*
X241188324Y-108300369D02*
X241888324Y-108300369D01*
G75*
G02*
X242138324Y-108550369I0J-250000D01*
G01*
X242138324Y-109050369D01*
G75*
G02*
X241888324Y-109300369I-250000J0D01*
G01*
X241188324Y-109300369D01*
G75*
G02*
X240938324Y-109050369I0J250000D01*
G01*
X240938324Y-108550369D01*
G75*
G02*
X241188324Y-108300369I250000J0D01*
G01*
G37*
G36*
G01*
X241188324Y-111600369D02*
X241888324Y-111600369D01*
G75*
G02*
X242138324Y-111850369I0J-250000D01*
G01*
X242138324Y-112350369D01*
G75*
G02*
X241888324Y-112600369I-250000J0D01*
G01*
X241188324Y-112600369D01*
G75*
G02*
X240938324Y-112350369I0J250000D01*
G01*
X240938324Y-111850369D01*
G75*
G02*
X241188324Y-111600369I250000J0D01*
G01*
G37*
G36*
G01*
X211422674Y-118420690D02*
X212122674Y-118420690D01*
G75*
G02*
X212372674Y-118670690I0J-250000D01*
G01*
X212372674Y-119170690D01*
G75*
G02*
X212122674Y-119420690I-250000J0D01*
G01*
X211422674Y-119420690D01*
G75*
G02*
X211172674Y-119170690I0J250000D01*
G01*
X211172674Y-118670690D01*
G75*
G02*
X211422674Y-118420690I250000J0D01*
G01*
G37*
G36*
G01*
X211422674Y-121720690D02*
X212122674Y-121720690D01*
G75*
G02*
X212372674Y-121970690I0J-250000D01*
G01*
X212372674Y-122470690D01*
G75*
G02*
X212122674Y-122720690I-250000J0D01*
G01*
X211422674Y-122720690D01*
G75*
G02*
X211172674Y-122470690I0J250000D01*
G01*
X211172674Y-121970690D01*
G75*
G02*
X211422674Y-121720690I250000J0D01*
G01*
G37*
G36*
G01*
X209041422Y-118420690D02*
X209741422Y-118420690D01*
G75*
G02*
X209991422Y-118670690I0J-250000D01*
G01*
X209991422Y-119170690D01*
G75*
G02*
X209741422Y-119420690I-250000J0D01*
G01*
X209041422Y-119420690D01*
G75*
G02*
X208791422Y-119170690I0J250000D01*
G01*
X208791422Y-118670690D01*
G75*
G02*
X209041422Y-118420690I250000J0D01*
G01*
G37*
G36*
G01*
X209041422Y-121720690D02*
X209741422Y-121720690D01*
G75*
G02*
X209991422Y-121970690I0J-250000D01*
G01*
X209991422Y-122470690D01*
G75*
G02*
X209741422Y-122720690I-250000J0D01*
G01*
X209041422Y-122720690D01*
G75*
G02*
X208791422Y-122470690I0J250000D01*
G01*
X208791422Y-121970690D01*
G75*
G02*
X209041422Y-121720690I250000J0D01*
G01*
G37*
G36*
G01*
X155582000Y-120816003D02*
X155582000Y-121516003D01*
G75*
G02*
X155332000Y-121766003I-250000J0D01*
G01*
X154832000Y-121766003D01*
G75*
G02*
X154582000Y-121516003I0J250000D01*
G01*
X154582000Y-120816003D01*
G75*
G02*
X154832000Y-120566003I250000J0D01*
G01*
X155332000Y-120566003D01*
G75*
G02*
X155582000Y-120816003I0J-250000D01*
G01*
G37*
G36*
G01*
X152282000Y-120816003D02*
X152282000Y-121516003D01*
G75*
G02*
X152032000Y-121766003I-250000J0D01*
G01*
X151532000Y-121766003D01*
G75*
G02*
X151282000Y-121516003I0J250000D01*
G01*
X151282000Y-120816003D01*
G75*
G02*
X151532000Y-120566003I250000J0D01*
G01*
X152032000Y-120566003D01*
G75*
G02*
X152282000Y-120816003I0J-250000D01*
G01*
G37*
G36*
G01*
X70333857Y-117825377D02*
X71033857Y-117825377D01*
G75*
G02*
X71283857Y-118075377I0J-250000D01*
G01*
X71283857Y-118575377D01*
G75*
G02*
X71033857Y-118825377I-250000J0D01*
G01*
X70333857Y-118825377D01*
G75*
G02*
X70083857Y-118575377I0J250000D01*
G01*
X70083857Y-118075377D01*
G75*
G02*
X70333857Y-117825377I250000J0D01*
G01*
G37*
G36*
G01*
X70333857Y-121125377D02*
X71033857Y-121125377D01*
G75*
G02*
X71283857Y-121375377I0J-250000D01*
G01*
X71283857Y-121875377D01*
G75*
G02*
X71033857Y-122125377I-250000J0D01*
G01*
X70333857Y-122125377D01*
G75*
G02*
X70083857Y-121875377I0J250000D01*
G01*
X70083857Y-121375377D01*
G75*
G02*
X70333857Y-121125377I250000J0D01*
G01*
G37*
G36*
G01*
X51402515Y-118435225D02*
X51402515Y-119135225D01*
G75*
G02*
X51152515Y-119385225I-250000J0D01*
G01*
X50652515Y-119385225D01*
G75*
G02*
X50402515Y-119135225I0J250000D01*
G01*
X50402515Y-118435225D01*
G75*
G02*
X50652515Y-118185225I250000J0D01*
G01*
X51152515Y-118185225D01*
G75*
G02*
X51402515Y-118435225I0J-250000D01*
G01*
G37*
G36*
G01*
X48102515Y-118435225D02*
X48102515Y-119135225D01*
G75*
G02*
X47852515Y-119385225I-250000J0D01*
G01*
X47352515Y-119385225D01*
G75*
G02*
X47102515Y-119135225I0J250000D01*
G01*
X47102515Y-118435225D01*
G75*
G02*
X47352515Y-118185225I250000J0D01*
G01*
X47852515Y-118185225D01*
G75*
G02*
X48102515Y-118435225I0J-250000D01*
G01*
G37*
G36*
G01*
X25803970Y-118435225D02*
X25803970Y-119135225D01*
G75*
G02*
X25553970Y-119385225I-250000J0D01*
G01*
X25053970Y-119385225D01*
G75*
G02*
X24803970Y-119135225I0J250000D01*
G01*
X24803970Y-118435225D01*
G75*
G02*
X25053970Y-118185225I250000J0D01*
G01*
X25553970Y-118185225D01*
G75*
G02*
X25803970Y-118435225I0J-250000D01*
G01*
G37*
G36*
G01*
X22503970Y-118435225D02*
X22503970Y-119135225D01*
G75*
G02*
X22253970Y-119385225I-250000J0D01*
G01*
X21753970Y-119385225D01*
G75*
G02*
X21503970Y-119135225I0J250000D01*
G01*
X21503970Y-118435225D01*
G75*
G02*
X21753970Y-118185225I250000J0D01*
G01*
X22253970Y-118185225D01*
G75*
G02*
X22503970Y-118435225I0J-250000D01*
G01*
G37*
G36*
G01*
X72714745Y-117825377D02*
X73414745Y-117825377D01*
G75*
G02*
X73664745Y-118075377I0J-250000D01*
G01*
X73664745Y-118575377D01*
G75*
G02*
X73414745Y-118825377I-250000J0D01*
G01*
X72714745Y-118825377D01*
G75*
G02*
X72464745Y-118575377I0J250000D01*
G01*
X72464745Y-118075377D01*
G75*
G02*
X72714745Y-117825377I250000J0D01*
G01*
G37*
G36*
G01*
X72714745Y-121125377D02*
X73414745Y-121125377D01*
G75*
G02*
X73664745Y-121375377I0J-250000D01*
G01*
X73664745Y-121875377D01*
G75*
G02*
X73414745Y-122125377I-250000J0D01*
G01*
X72714745Y-122125377D01*
G75*
G02*
X72464745Y-121875377I0J250000D01*
G01*
X72464745Y-121375377D01*
G75*
G02*
X72714745Y-121125377I250000J0D01*
G01*
G37*
G36*
G01*
X268082096Y-112005056D02*
X267382096Y-112005056D01*
G75*
G02*
X267132096Y-111755056I0J250000D01*
G01*
X267132096Y-111255056D01*
G75*
G02*
X267382096Y-111005056I250000J0D01*
G01*
X268082096Y-111005056D01*
G75*
G02*
X268332096Y-111255056I0J-250000D01*
G01*
X268332096Y-111755056D01*
G75*
G02*
X268082096Y-112005056I-250000J0D01*
G01*
G37*
G36*
G01*
X268082096Y-108705056D02*
X267382096Y-108705056D01*
G75*
G02*
X267132096Y-108455056I0J250000D01*
G01*
X267132096Y-107955056D01*
G75*
G02*
X267382096Y-107705056I250000J0D01*
G01*
X268082096Y-107705056D01*
G75*
G02*
X268332096Y-107955056I0J-250000D01*
G01*
X268332096Y-108455056D01*
G75*
G02*
X268082096Y-108705056I-250000J0D01*
G01*
G37*
G36*
G01*
X241888324Y-106647239D02*
X241188324Y-106647239D01*
G75*
G02*
X240938324Y-106397239I0J250000D01*
G01*
X240938324Y-105897239D01*
G75*
G02*
X241188324Y-105647239I250000J0D01*
G01*
X241888324Y-105647239D01*
G75*
G02*
X242138324Y-105897239I0J-250000D01*
G01*
X242138324Y-106397239D01*
G75*
G02*
X241888324Y-106647239I-250000J0D01*
G01*
G37*
G36*
G01*
X241888324Y-103347239D02*
X241188324Y-103347239D01*
G75*
G02*
X240938324Y-103097239I0J250000D01*
G01*
X240938324Y-102597239D01*
G75*
G02*
X241188324Y-102347239I250000J0D01*
G01*
X241888324Y-102347239D01*
G75*
G02*
X242138324Y-102597239I0J-250000D01*
G01*
X242138324Y-103097239D01*
G75*
G02*
X241888324Y-103347239I-250000J0D01*
G01*
G37*
G36*
G01*
X239507072Y-106647239D02*
X238807072Y-106647239D01*
G75*
G02*
X238557072Y-106397239I0J250000D01*
G01*
X238557072Y-105897239D01*
G75*
G02*
X238807072Y-105647239I250000J0D01*
G01*
X239507072Y-105647239D01*
G75*
G02*
X239757072Y-105897239I0J-250000D01*
G01*
X239757072Y-106397239D01*
G75*
G02*
X239507072Y-106647239I-250000J0D01*
G01*
G37*
G36*
G01*
X239507072Y-103347239D02*
X238807072Y-103347239D01*
G75*
G02*
X238557072Y-103097239I0J250000D01*
G01*
X238557072Y-102597239D01*
G75*
G02*
X238807072Y-102347239I250000J0D01*
G01*
X239507072Y-102347239D01*
G75*
G02*
X239757072Y-102597239I0J-250000D01*
G01*
X239757072Y-103097239D01*
G75*
G02*
X239507072Y-103347239I-250000J0D01*
G01*
G37*
G36*
G01*
X214504770Y-107242980D02*
X213804770Y-107242980D01*
G75*
G02*
X213554770Y-106992980I0J250000D01*
G01*
X213554770Y-106492980D01*
G75*
G02*
X213804770Y-106242980I250000J0D01*
G01*
X214504770Y-106242980D01*
G75*
G02*
X214754770Y-106492980I0J-250000D01*
G01*
X214754770Y-106992980D01*
G75*
G02*
X214504770Y-107242980I-250000J0D01*
G01*
G37*
G36*
G01*
X214504770Y-103942980D02*
X213804770Y-103942980D01*
G75*
G02*
X213554770Y-103692980I0J250000D01*
G01*
X213554770Y-103192980D01*
G75*
G02*
X213804770Y-102942980I250000J0D01*
G01*
X214504770Y-102942980D01*
G75*
G02*
X214754770Y-103192980I0J-250000D01*
G01*
X214754770Y-103692980D01*
G75*
G02*
X214504770Y-103942980I-250000J0D01*
G01*
G37*
G36*
G01*
X195454690Y-107242980D02*
X194754690Y-107242980D01*
G75*
G02*
X194504690Y-106992980I0J250000D01*
G01*
X194504690Y-106492980D01*
G75*
G02*
X194754690Y-106242980I250000J0D01*
G01*
X195454690Y-106242980D01*
G75*
G02*
X195704690Y-106492980I0J-250000D01*
G01*
X195704690Y-106992980D01*
G75*
G02*
X195454690Y-107242980I-250000J0D01*
G01*
G37*
G36*
G01*
X195454690Y-103942980D02*
X194754690Y-103942980D01*
G75*
G02*
X194504690Y-103692980I0J250000D01*
G01*
X194504690Y-103192980D01*
G75*
G02*
X194754690Y-102942980I250000J0D01*
G01*
X195454690Y-102942980D01*
G75*
G02*
X195704690Y-103192980I0J-250000D01*
G01*
X195704690Y-103692980D01*
G75*
G02*
X195454690Y-103942980I-250000J0D01*
G01*
G37*
G36*
G01*
X176404610Y-107242980D02*
X175704610Y-107242980D01*
G75*
G02*
X175454610Y-106992980I0J250000D01*
G01*
X175454610Y-106492980D01*
G75*
G02*
X175704610Y-106242980I250000J0D01*
G01*
X176404610Y-106242980D01*
G75*
G02*
X176654610Y-106492980I0J-250000D01*
G01*
X176654610Y-106992980D01*
G75*
G02*
X176404610Y-107242980I-250000J0D01*
G01*
G37*
G36*
G01*
X176404610Y-103942980D02*
X175704610Y-103942980D01*
G75*
G02*
X175454610Y-103692980I0J250000D01*
G01*
X175454610Y-103192980D01*
G75*
G02*
X175704610Y-102942980I250000J0D01*
G01*
X176404610Y-102942980D01*
G75*
G02*
X176654610Y-103192980I0J-250000D01*
G01*
X176654610Y-103692980D01*
G75*
G02*
X176404610Y-103942980I-250000J0D01*
G01*
G37*
G36*
G01*
X157354530Y-107242980D02*
X156654530Y-107242980D01*
G75*
G02*
X156404530Y-106992980I0J250000D01*
G01*
X156404530Y-106492980D01*
G75*
G02*
X156654530Y-106242980I250000J0D01*
G01*
X157354530Y-106242980D01*
G75*
G02*
X157604530Y-106492980I0J-250000D01*
G01*
X157604530Y-106992980D01*
G75*
G02*
X157354530Y-107242980I-250000J0D01*
G01*
G37*
G36*
G01*
X157354530Y-103942980D02*
X156654530Y-103942980D01*
G75*
G02*
X156404530Y-103692980I0J250000D01*
G01*
X156404530Y-103192980D01*
G75*
G02*
X156654530Y-102942980I250000J0D01*
G01*
X157354530Y-102942980D01*
G75*
G02*
X157604530Y-103192980I0J-250000D01*
G01*
X157604530Y-103692980D01*
G75*
G02*
X157354530Y-103942980I-250000J0D01*
G01*
G37*
G36*
G01*
X138304450Y-107242980D02*
X137604450Y-107242980D01*
G75*
G02*
X137354450Y-106992980I0J250000D01*
G01*
X137354450Y-106492980D01*
G75*
G02*
X137604450Y-106242980I250000J0D01*
G01*
X138304450Y-106242980D01*
G75*
G02*
X138554450Y-106492980I0J-250000D01*
G01*
X138554450Y-106992980D01*
G75*
G02*
X138304450Y-107242980I-250000J0D01*
G01*
G37*
G36*
G01*
X138304450Y-103942980D02*
X137604450Y-103942980D01*
G75*
G02*
X137354450Y-103692980I0J250000D01*
G01*
X137354450Y-103192980D01*
G75*
G02*
X137604450Y-102942980I250000J0D01*
G01*
X138304450Y-102942980D01*
G75*
G02*
X138554450Y-103192980I0J-250000D01*
G01*
X138554450Y-103692980D01*
G75*
G02*
X138304450Y-103942980I-250000J0D01*
G01*
G37*
G36*
G01*
X119254370Y-107242980D02*
X118554370Y-107242980D01*
G75*
G02*
X118304370Y-106992980I0J250000D01*
G01*
X118304370Y-106492980D01*
G75*
G02*
X118554370Y-106242980I250000J0D01*
G01*
X119254370Y-106242980D01*
G75*
G02*
X119504370Y-106492980I0J-250000D01*
G01*
X119504370Y-106992980D01*
G75*
G02*
X119254370Y-107242980I-250000J0D01*
G01*
G37*
G36*
G01*
X119254370Y-103942980D02*
X118554370Y-103942980D01*
G75*
G02*
X118304370Y-103692980I0J250000D01*
G01*
X118304370Y-103192980D01*
G75*
G02*
X118554370Y-102942980I250000J0D01*
G01*
X119254370Y-102942980D01*
G75*
G02*
X119504370Y-103192980I0J-250000D01*
G01*
X119504370Y-103692980D01*
G75*
G02*
X119254370Y-103942980I-250000J0D01*
G01*
G37*
G36*
G01*
X100204290Y-107242980D02*
X99504290Y-107242980D01*
G75*
G02*
X99254290Y-106992980I0J250000D01*
G01*
X99254290Y-106492980D01*
G75*
G02*
X99504290Y-106242980I250000J0D01*
G01*
X100204290Y-106242980D01*
G75*
G02*
X100454290Y-106492980I0J-250000D01*
G01*
X100454290Y-106992980D01*
G75*
G02*
X100204290Y-107242980I-250000J0D01*
G01*
G37*
G36*
G01*
X100204290Y-103942980D02*
X99504290Y-103942980D01*
G75*
G02*
X99254290Y-103692980I0J250000D01*
G01*
X99254290Y-103192980D01*
G75*
G02*
X99504290Y-102942980I250000J0D01*
G01*
X100204290Y-102942980D01*
G75*
G02*
X100454290Y-103192980I0J-250000D01*
G01*
X100454290Y-103692980D01*
G75*
G02*
X100204290Y-103942980I-250000J0D01*
G01*
G37*
G36*
G01*
X81154210Y-107242980D02*
X80454210Y-107242980D01*
G75*
G02*
X80204210Y-106992980I0J250000D01*
G01*
X80204210Y-106492980D01*
G75*
G02*
X80454210Y-106242980I250000J0D01*
G01*
X81154210Y-106242980D01*
G75*
G02*
X81404210Y-106492980I0J-250000D01*
G01*
X81404210Y-106992980D01*
G75*
G02*
X81154210Y-107242980I-250000J0D01*
G01*
G37*
G36*
G01*
X81154210Y-103942980D02*
X80454210Y-103942980D01*
G75*
G02*
X80204210Y-103692980I0J250000D01*
G01*
X80204210Y-103192980D01*
G75*
G02*
X80454210Y-102942980I250000J0D01*
G01*
X81154210Y-102942980D01*
G75*
G02*
X81404210Y-103192980I0J-250000D01*
G01*
X81404210Y-103692980D01*
G75*
G02*
X81154210Y-103942980I-250000J0D01*
G01*
G37*
G36*
G01*
X62104130Y-107242980D02*
X61404130Y-107242980D01*
G75*
G02*
X61154130Y-106992980I0J250000D01*
G01*
X61154130Y-106492980D01*
G75*
G02*
X61404130Y-106242980I250000J0D01*
G01*
X62104130Y-106242980D01*
G75*
G02*
X62354130Y-106492980I0J-250000D01*
G01*
X62354130Y-106992980D01*
G75*
G02*
X62104130Y-107242980I-250000J0D01*
G01*
G37*
G36*
G01*
X62104130Y-103942980D02*
X61404130Y-103942980D01*
G75*
G02*
X61154130Y-103692980I0J250000D01*
G01*
X61154130Y-103192980D01*
G75*
G02*
X61404130Y-102942980I250000J0D01*
G01*
X62104130Y-102942980D01*
G75*
G02*
X62354130Y-103192980I0J-250000D01*
G01*
X62354130Y-103692980D01*
G75*
G02*
X62104130Y-103942980I-250000J0D01*
G01*
G37*
G36*
G01*
X154853878Y-119134751D02*
X154853878Y-118434751D01*
G75*
G02*
X155103878Y-118184751I250000J0D01*
G01*
X155603878Y-118184751D01*
G75*
G02*
X155853878Y-118434751I0J-250000D01*
G01*
X155853878Y-119134751D01*
G75*
G02*
X155603878Y-119384751I-250000J0D01*
G01*
X155103878Y-119384751D01*
G75*
G02*
X154853878Y-119134751I0J250000D01*
G01*
G37*
G36*
G01*
X158153878Y-119134751D02*
X158153878Y-118434751D01*
G75*
G02*
X158403878Y-118184751I250000J0D01*
G01*
X158903878Y-118184751D01*
G75*
G02*
X159153878Y-118434751I0J-250000D01*
G01*
X159153878Y-119134751D01*
G75*
G02*
X158903878Y-119384751I-250000J0D01*
G01*
X158403878Y-119384751D01*
G75*
G02*
X158153878Y-119134751I0J250000D01*
G01*
G37*
G36*
G01*
X43054050Y-107242980D02*
X42354050Y-107242980D01*
G75*
G02*
X42104050Y-106992980I0J250000D01*
G01*
X42104050Y-106492980D01*
G75*
G02*
X42354050Y-106242980I250000J0D01*
G01*
X43054050Y-106242980D01*
G75*
G02*
X43304050Y-106492980I0J-250000D01*
G01*
X43304050Y-106992980D01*
G75*
G02*
X43054050Y-107242980I-250000J0D01*
G01*
G37*
G36*
G01*
X43054050Y-103942980D02*
X42354050Y-103942980D01*
G75*
G02*
X42104050Y-103692980I0J250000D01*
G01*
X42104050Y-103192980D01*
G75*
G02*
X42354050Y-102942980I250000J0D01*
G01*
X43054050Y-102942980D01*
G75*
G02*
X43304050Y-103192980I0J-250000D01*
G01*
X43304050Y-103692980D01*
G75*
G02*
X43054050Y-103942980I-250000J0D01*
G01*
G37*
G36*
G01*
X274035226Y-88192900D02*
X273335226Y-88192900D01*
G75*
G02*
X273085226Y-87942900I0J250000D01*
G01*
X273085226Y-87442900D01*
G75*
G02*
X273335226Y-87192900I250000J0D01*
G01*
X274035226Y-87192900D01*
G75*
G02*
X274285226Y-87442900I0J-250000D01*
G01*
X274285226Y-87942900D01*
G75*
G02*
X274035226Y-88192900I-250000J0D01*
G01*
G37*
G36*
G01*
X274035226Y-84892900D02*
X273335226Y-84892900D01*
G75*
G02*
X273085226Y-84642900I0J250000D01*
G01*
X273085226Y-84142900D01*
G75*
G02*
X273335226Y-83892900I250000J0D01*
G01*
X274035226Y-83892900D01*
G75*
G02*
X274285226Y-84142900I0J-250000D01*
G01*
X274285226Y-84642900D01*
G75*
G02*
X274035226Y-84892900I-250000J0D01*
G01*
G37*
G36*
G01*
X241889260Y-88192900D02*
X241189260Y-88192900D01*
G75*
G02*
X240939260Y-87942900I0J250000D01*
G01*
X240939260Y-87442900D01*
G75*
G02*
X241189260Y-87192900I250000J0D01*
G01*
X241889260Y-87192900D01*
G75*
G02*
X242139260Y-87442900I0J-250000D01*
G01*
X242139260Y-87942900D01*
G75*
G02*
X241889260Y-88192900I-250000J0D01*
G01*
G37*
G36*
G01*
X241889260Y-84892900D02*
X241189260Y-84892900D01*
G75*
G02*
X240939260Y-84642900I0J250000D01*
G01*
X240939260Y-84142900D01*
G75*
G02*
X241189260Y-83892900I250000J0D01*
G01*
X241889260Y-83892900D01*
G75*
G02*
X242139260Y-84142900I0J-250000D01*
G01*
X242139260Y-84642900D01*
G75*
G02*
X241889260Y-84892900I-250000J0D01*
G01*
G37*
G36*
G01*
X224029810Y-88192900D02*
X223329810Y-88192900D01*
G75*
G02*
X223079810Y-87942900I0J250000D01*
G01*
X223079810Y-87442900D01*
G75*
G02*
X223329810Y-87192900I250000J0D01*
G01*
X224029810Y-87192900D01*
G75*
G02*
X224279810Y-87442900I0J-250000D01*
G01*
X224279810Y-87942900D01*
G75*
G02*
X224029810Y-88192900I-250000J0D01*
G01*
G37*
G36*
G01*
X224029810Y-84892900D02*
X223329810Y-84892900D01*
G75*
G02*
X223079810Y-84642900I0J250000D01*
G01*
X223079810Y-84142900D01*
G75*
G02*
X223329810Y-83892900I250000J0D01*
G01*
X224029810Y-83892900D01*
G75*
G02*
X224279810Y-84142900I0J-250000D01*
G01*
X224279810Y-84642900D01*
G75*
G02*
X224029810Y-84892900I-250000J0D01*
G01*
G37*
G36*
G01*
X204979730Y-88192900D02*
X204279730Y-88192900D01*
G75*
G02*
X204029730Y-87942900I0J250000D01*
G01*
X204029730Y-87442900D01*
G75*
G02*
X204279730Y-87192900I250000J0D01*
G01*
X204979730Y-87192900D01*
G75*
G02*
X205229730Y-87442900I0J-250000D01*
G01*
X205229730Y-87942900D01*
G75*
G02*
X204979730Y-88192900I-250000J0D01*
G01*
G37*
G36*
G01*
X204979730Y-84892900D02*
X204279730Y-84892900D01*
G75*
G02*
X204029730Y-84642900I0J250000D01*
G01*
X204029730Y-84142900D01*
G75*
G02*
X204279730Y-83892900I250000J0D01*
G01*
X204979730Y-83892900D01*
G75*
G02*
X205229730Y-84142900I0J-250000D01*
G01*
X205229730Y-84642900D01*
G75*
G02*
X204979730Y-84892900I-250000J0D01*
G01*
G37*
G36*
G01*
X185929650Y-88192900D02*
X185229650Y-88192900D01*
G75*
G02*
X184979650Y-87942900I0J250000D01*
G01*
X184979650Y-87442900D01*
G75*
G02*
X185229650Y-87192900I250000J0D01*
G01*
X185929650Y-87192900D01*
G75*
G02*
X186179650Y-87442900I0J-250000D01*
G01*
X186179650Y-87942900D01*
G75*
G02*
X185929650Y-88192900I-250000J0D01*
G01*
G37*
G36*
G01*
X185929650Y-84892900D02*
X185229650Y-84892900D01*
G75*
G02*
X184979650Y-84642900I0J250000D01*
G01*
X184979650Y-84142900D01*
G75*
G02*
X185229650Y-83892900I250000J0D01*
G01*
X185929650Y-83892900D01*
G75*
G02*
X186179650Y-84142900I0J-250000D01*
G01*
X186179650Y-84642900D01*
G75*
G02*
X185929650Y-84892900I-250000J0D01*
G01*
G37*
G36*
G01*
X166879570Y-88192900D02*
X166179570Y-88192900D01*
G75*
G02*
X165929570Y-87942900I0J250000D01*
G01*
X165929570Y-87442900D01*
G75*
G02*
X166179570Y-87192900I250000J0D01*
G01*
X166879570Y-87192900D01*
G75*
G02*
X167129570Y-87442900I0J-250000D01*
G01*
X167129570Y-87942900D01*
G75*
G02*
X166879570Y-88192900I-250000J0D01*
G01*
G37*
G36*
G01*
X166879570Y-84892900D02*
X166179570Y-84892900D01*
G75*
G02*
X165929570Y-84642900I0J250000D01*
G01*
X165929570Y-84142900D01*
G75*
G02*
X166179570Y-83892900I250000J0D01*
G01*
X166879570Y-83892900D01*
G75*
G02*
X167129570Y-84142900I0J-250000D01*
G01*
X167129570Y-84642900D01*
G75*
G02*
X166879570Y-84892900I-250000J0D01*
G01*
G37*
G36*
G01*
X147829490Y-88192900D02*
X147129490Y-88192900D01*
G75*
G02*
X146879490Y-87942900I0J250000D01*
G01*
X146879490Y-87442900D01*
G75*
G02*
X147129490Y-87192900I250000J0D01*
G01*
X147829490Y-87192900D01*
G75*
G02*
X148079490Y-87442900I0J-250000D01*
G01*
X148079490Y-87942900D01*
G75*
G02*
X147829490Y-88192900I-250000J0D01*
G01*
G37*
G36*
G01*
X147829490Y-84892900D02*
X147129490Y-84892900D01*
G75*
G02*
X146879490Y-84642900I0J250000D01*
G01*
X146879490Y-84142900D01*
G75*
G02*
X147129490Y-83892900I250000J0D01*
G01*
X147829490Y-83892900D01*
G75*
G02*
X148079490Y-84142900I0J-250000D01*
G01*
X148079490Y-84642900D01*
G75*
G02*
X147829490Y-84892900I-250000J0D01*
G01*
G37*
G36*
G01*
X110919464Y-88192500D02*
X110219464Y-88192500D01*
G75*
G02*
X109969464Y-87942500I0J250000D01*
G01*
X109969464Y-87442500D01*
G75*
G02*
X110219464Y-87192500I250000J0D01*
G01*
X110919464Y-87192500D01*
G75*
G02*
X111169464Y-87442500I0J-250000D01*
G01*
X111169464Y-87942500D01*
G75*
G02*
X110919464Y-88192500I-250000J0D01*
G01*
G37*
G36*
G01*
X110919464Y-84892500D02*
X110219464Y-84892500D01*
G75*
G02*
X109969464Y-84642500I0J250000D01*
G01*
X109969464Y-84142500D01*
G75*
G02*
X110219464Y-83892500I250000J0D01*
G01*
X110919464Y-83892500D01*
G75*
G02*
X111169464Y-84142500I0J-250000D01*
G01*
X111169464Y-84642500D01*
G75*
G02*
X110919464Y-84892500I-250000J0D01*
G01*
G37*
G36*
G01*
X108538212Y-88192500D02*
X107838212Y-88192500D01*
G75*
G02*
X107588212Y-87942500I0J250000D01*
G01*
X107588212Y-87442500D01*
G75*
G02*
X107838212Y-87192500I250000J0D01*
G01*
X108538212Y-87192500D01*
G75*
G02*
X108788212Y-87442500I0J-250000D01*
G01*
X108788212Y-87942500D01*
G75*
G02*
X108538212Y-88192500I-250000J0D01*
G01*
G37*
G36*
G01*
X108538212Y-84892500D02*
X107838212Y-84892500D01*
G75*
G02*
X107588212Y-84642500I0J250000D01*
G01*
X107588212Y-84142500D01*
G75*
G02*
X107838212Y-83892500I250000J0D01*
G01*
X108538212Y-83892500D01*
G75*
G02*
X108788212Y-84142500I0J-250000D01*
G01*
X108788212Y-84642500D01*
G75*
G02*
X108538212Y-84892500I-250000J0D01*
G01*
G37*
G36*
G01*
X90679250Y-88192900D02*
X89979250Y-88192900D01*
G75*
G02*
X89729250Y-87942900I0J250000D01*
G01*
X89729250Y-87442900D01*
G75*
G02*
X89979250Y-87192900I250000J0D01*
G01*
X90679250Y-87192900D01*
G75*
G02*
X90929250Y-87442900I0J-250000D01*
G01*
X90929250Y-87942900D01*
G75*
G02*
X90679250Y-88192900I-250000J0D01*
G01*
G37*
G36*
G01*
X90679250Y-84892900D02*
X89979250Y-84892900D01*
G75*
G02*
X89729250Y-84642900I0J250000D01*
G01*
X89729250Y-84142900D01*
G75*
G02*
X89979250Y-83892900I250000J0D01*
G01*
X90679250Y-83892900D01*
G75*
G02*
X90929250Y-84142900I0J-250000D01*
G01*
X90929250Y-84642900D01*
G75*
G02*
X90679250Y-84892900I-250000J0D01*
G01*
G37*
G36*
G01*
X71629170Y-88192900D02*
X70929170Y-88192900D01*
G75*
G02*
X70679170Y-87942900I0J250000D01*
G01*
X70679170Y-87442900D01*
G75*
G02*
X70929170Y-87192900I250000J0D01*
G01*
X71629170Y-87192900D01*
G75*
G02*
X71879170Y-87442900I0J-250000D01*
G01*
X71879170Y-87942900D01*
G75*
G02*
X71629170Y-88192900I-250000J0D01*
G01*
G37*
G36*
G01*
X71629170Y-84892900D02*
X70929170Y-84892900D01*
G75*
G02*
X70679170Y-84642900I0J250000D01*
G01*
X70679170Y-84142900D01*
G75*
G02*
X70929170Y-83892900I250000J0D01*
G01*
X71629170Y-83892900D01*
G75*
G02*
X71879170Y-84142900I0J-250000D01*
G01*
X71879170Y-84642900D01*
G75*
G02*
X71629170Y-84892900I-250000J0D01*
G01*
G37*
G36*
G01*
X51388125Y-88192500D02*
X50688125Y-88192500D01*
G75*
G02*
X50438125Y-87942500I0J250000D01*
G01*
X50438125Y-87442500D01*
G75*
G02*
X50688125Y-87192500I250000J0D01*
G01*
X51388125Y-87192500D01*
G75*
G02*
X51638125Y-87442500I0J-250000D01*
G01*
X51638125Y-87942500D01*
G75*
G02*
X51388125Y-88192500I-250000J0D01*
G01*
G37*
G36*
G01*
X51388125Y-84892500D02*
X50688125Y-84892500D01*
G75*
G02*
X50438125Y-84642500I0J250000D01*
G01*
X50438125Y-84142500D01*
G75*
G02*
X50688125Y-83892500I250000J0D01*
G01*
X51388125Y-83892500D01*
G75*
G02*
X51638125Y-84142500I0J-250000D01*
G01*
X51638125Y-84642500D01*
G75*
G02*
X51388125Y-84892500I-250000J0D01*
G01*
G37*
G36*
G01*
X265700844Y-112005056D02*
X265000844Y-112005056D01*
G75*
G02*
X264750844Y-111755056I0J250000D01*
G01*
X264750844Y-111255056D01*
G75*
G02*
X265000844Y-111005056I250000J0D01*
G01*
X265700844Y-111005056D01*
G75*
G02*
X265950844Y-111255056I0J-250000D01*
G01*
X265950844Y-111755056D01*
G75*
G02*
X265700844Y-112005056I-250000J0D01*
G01*
G37*
G36*
G01*
X265700844Y-108705056D02*
X265000844Y-108705056D01*
G75*
G02*
X264750844Y-108455056I0J250000D01*
G01*
X264750844Y-107955056D01*
G75*
G02*
X265000844Y-107705056I250000J0D01*
G01*
X265700844Y-107705056D01*
G75*
G02*
X265950844Y-107955056I0J-250000D01*
G01*
X265950844Y-108455056D01*
G75*
G02*
X265700844Y-108705056I-250000J0D01*
G01*
G37*
G36*
G01*
X244270520Y-88192900D02*
X243570520Y-88192900D01*
G75*
G02*
X243320520Y-87942900I0J250000D01*
G01*
X243320520Y-87442900D01*
G75*
G02*
X243570520Y-87192900I250000J0D01*
G01*
X244270520Y-87192900D01*
G75*
G02*
X244520520Y-87442900I0J-250000D01*
G01*
X244520520Y-87942900D01*
G75*
G02*
X244270520Y-88192900I-250000J0D01*
G01*
G37*
G36*
G01*
X244270520Y-84892900D02*
X243570520Y-84892900D01*
G75*
G02*
X243320520Y-84642900I0J250000D01*
G01*
X243320520Y-84142900D01*
G75*
G02*
X243570520Y-83892900I250000J0D01*
G01*
X244270520Y-83892900D01*
G75*
G02*
X244520520Y-84142900I0J-250000D01*
G01*
X244520520Y-84642900D01*
G75*
G02*
X244270520Y-84892900I-250000J0D01*
G01*
G37*
G36*
G01*
X53769375Y-88192500D02*
X53069375Y-88192500D01*
G75*
G02*
X52819375Y-87942500I0J250000D01*
G01*
X52819375Y-87442500D01*
G75*
G02*
X53069375Y-87192500I250000J0D01*
G01*
X53769375Y-87192500D01*
G75*
G02*
X54019375Y-87442500I0J-250000D01*
G01*
X54019375Y-87942500D01*
G75*
G02*
X53769375Y-88192500I-250000J0D01*
G01*
G37*
G36*
G01*
X53769375Y-84892500D02*
X53069375Y-84892500D01*
G75*
G02*
X52819375Y-84642500I0J250000D01*
G01*
X52819375Y-84142500D01*
G75*
G02*
X53069375Y-83892500I250000J0D01*
G01*
X53769375Y-83892500D01*
G75*
G02*
X54019375Y-84142500I0J-250000D01*
G01*
X54019375Y-84642500D01*
G75*
G02*
X53769375Y-84892500I-250000J0D01*
G01*
G37*
G36*
G01*
X239507100Y-69142500D02*
X238807100Y-69142500D01*
G75*
G02*
X238557100Y-68892500I0J250000D01*
G01*
X238557100Y-68392500D01*
G75*
G02*
X238807100Y-68142500I250000J0D01*
G01*
X239507100Y-68142500D01*
G75*
G02*
X239757100Y-68392500I0J-250000D01*
G01*
X239757100Y-68892500D01*
G75*
G02*
X239507100Y-69142500I-250000J0D01*
G01*
G37*
G36*
G01*
X239507100Y-65842500D02*
X238807100Y-65842500D01*
G75*
G02*
X238557100Y-65592500I0J250000D01*
G01*
X238557100Y-65092500D01*
G75*
G02*
X238807100Y-64842500I250000J0D01*
G01*
X239507100Y-64842500D01*
G75*
G02*
X239757100Y-65092500I0J-250000D01*
G01*
X239757100Y-65592500D01*
G75*
G02*
X239507100Y-65842500I-250000J0D01*
G01*
G37*
G36*
G01*
X220457920Y-69142820D02*
X219757920Y-69142820D01*
G75*
G02*
X219507920Y-68892820I0J250000D01*
G01*
X219507920Y-68392820D01*
G75*
G02*
X219757920Y-68142820I250000J0D01*
G01*
X220457920Y-68142820D01*
G75*
G02*
X220707920Y-68392820I0J-250000D01*
G01*
X220707920Y-68892820D01*
G75*
G02*
X220457920Y-69142820I-250000J0D01*
G01*
G37*
G36*
G01*
X220457920Y-65842820D02*
X219757920Y-65842820D01*
G75*
G02*
X219507920Y-65592820I0J250000D01*
G01*
X219507920Y-65092820D01*
G75*
G02*
X219757920Y-64842820I250000J0D01*
G01*
X220457920Y-64842820D01*
G75*
G02*
X220707920Y-65092820I0J-250000D01*
G01*
X220707920Y-65592820D01*
G75*
G02*
X220457920Y-65842820I-250000J0D01*
G01*
G37*
G36*
G01*
X218076660Y-69142820D02*
X217376660Y-69142820D01*
G75*
G02*
X217126660Y-68892820I0J250000D01*
G01*
X217126660Y-68392820D01*
G75*
G02*
X217376660Y-68142820I250000J0D01*
G01*
X218076660Y-68142820D01*
G75*
G02*
X218326660Y-68392820I0J-250000D01*
G01*
X218326660Y-68892820D01*
G75*
G02*
X218076660Y-69142820I-250000J0D01*
G01*
G37*
G36*
G01*
X218076660Y-65842820D02*
X217376660Y-65842820D01*
G75*
G02*
X217126660Y-65592820I0J250000D01*
G01*
X217126660Y-65092820D01*
G75*
G02*
X217376660Y-64842820I250000J0D01*
G01*
X218076660Y-64842820D01*
G75*
G02*
X218326660Y-65092820I0J-250000D01*
G01*
X218326660Y-65592820D01*
G75*
G02*
X218076660Y-65842820I-250000J0D01*
G01*
G37*
G36*
G01*
X200217210Y-69142820D02*
X199517210Y-69142820D01*
G75*
G02*
X199267210Y-68892820I0J250000D01*
G01*
X199267210Y-68392820D01*
G75*
G02*
X199517210Y-68142820I250000J0D01*
G01*
X200217210Y-68142820D01*
G75*
G02*
X200467210Y-68392820I0J-250000D01*
G01*
X200467210Y-68892820D01*
G75*
G02*
X200217210Y-69142820I-250000J0D01*
G01*
G37*
G36*
G01*
X200217210Y-65842820D02*
X199517210Y-65842820D01*
G75*
G02*
X199267210Y-65592820I0J250000D01*
G01*
X199267210Y-65092820D01*
G75*
G02*
X199517210Y-64842820I250000J0D01*
G01*
X200217210Y-64842820D01*
G75*
G02*
X200467210Y-65092820I0J-250000D01*
G01*
X200467210Y-65592820D01*
G75*
G02*
X200217210Y-65842820I-250000J0D01*
G01*
G37*
G36*
G01*
X181166426Y-69142500D02*
X180466426Y-69142500D01*
G75*
G02*
X180216426Y-68892500I0J250000D01*
G01*
X180216426Y-68392500D01*
G75*
G02*
X180466426Y-68142500I250000J0D01*
G01*
X181166426Y-68142500D01*
G75*
G02*
X181416426Y-68392500I0J-250000D01*
G01*
X181416426Y-68892500D01*
G75*
G02*
X181166426Y-69142500I-250000J0D01*
G01*
G37*
G36*
G01*
X181166426Y-65842500D02*
X180466426Y-65842500D01*
G75*
G02*
X180216426Y-65592500I0J250000D01*
G01*
X180216426Y-65092500D01*
G75*
G02*
X180466426Y-64842500I250000J0D01*
G01*
X181166426Y-64842500D01*
G75*
G02*
X181416426Y-65092500I0J-250000D01*
G01*
X181416426Y-65592500D01*
G75*
G02*
X181166426Y-65842500I-250000J0D01*
G01*
G37*
G36*
G01*
X162117050Y-69142820D02*
X161417050Y-69142820D01*
G75*
G02*
X161167050Y-68892820I0J250000D01*
G01*
X161167050Y-68392820D01*
G75*
G02*
X161417050Y-68142820I250000J0D01*
G01*
X162117050Y-68142820D01*
G75*
G02*
X162367050Y-68392820I0J-250000D01*
G01*
X162367050Y-68892820D01*
G75*
G02*
X162117050Y-69142820I-250000J0D01*
G01*
G37*
G36*
G01*
X162117050Y-65842820D02*
X161417050Y-65842820D01*
G75*
G02*
X161167050Y-65592820I0J250000D01*
G01*
X161167050Y-65092820D01*
G75*
G02*
X161417050Y-64842820I250000J0D01*
G01*
X162117050Y-64842820D01*
G75*
G02*
X162367050Y-65092820I0J-250000D01*
G01*
X162367050Y-65592820D01*
G75*
G02*
X162117050Y-65842820I-250000J0D01*
G01*
G37*
G36*
G01*
X143066394Y-69142500D02*
X142366394Y-69142500D01*
G75*
G02*
X142116394Y-68892500I0J250000D01*
G01*
X142116394Y-68392500D01*
G75*
G02*
X142366394Y-68142500I250000J0D01*
G01*
X143066394Y-68142500D01*
G75*
G02*
X143316394Y-68392500I0J-250000D01*
G01*
X143316394Y-68892500D01*
G75*
G02*
X143066394Y-69142500I-250000J0D01*
G01*
G37*
G36*
G01*
X143066394Y-65842500D02*
X142366394Y-65842500D01*
G75*
G02*
X142116394Y-65592500I0J250000D01*
G01*
X142116394Y-65092500D01*
G75*
G02*
X142366394Y-64842500I250000J0D01*
G01*
X143066394Y-64842500D01*
G75*
G02*
X143316394Y-65092500I0J-250000D01*
G01*
X143316394Y-65592500D01*
G75*
G02*
X143066394Y-65842500I-250000J0D01*
G01*
G37*
G36*
G01*
X124016378Y-69142500D02*
X123316378Y-69142500D01*
G75*
G02*
X123066378Y-68892500I0J250000D01*
G01*
X123066378Y-68392500D01*
G75*
G02*
X123316378Y-68142500I250000J0D01*
G01*
X124016378Y-68142500D01*
G75*
G02*
X124266378Y-68392500I0J-250000D01*
G01*
X124266378Y-68892500D01*
G75*
G02*
X124016378Y-69142500I-250000J0D01*
G01*
G37*
G36*
G01*
X124016378Y-65842500D02*
X123316378Y-65842500D01*
G75*
G02*
X123066378Y-65592500I0J250000D01*
G01*
X123066378Y-65092500D01*
G75*
G02*
X123316378Y-64842500I250000J0D01*
G01*
X124016378Y-64842500D01*
G75*
G02*
X124266378Y-65092500I0J-250000D01*
G01*
X124266378Y-65592500D01*
G75*
G02*
X124016378Y-65842500I-250000J0D01*
G01*
G37*
G36*
G01*
X104966362Y-69142500D02*
X104266362Y-69142500D01*
G75*
G02*
X104016362Y-68892500I0J250000D01*
G01*
X104016362Y-68392500D01*
G75*
G02*
X104266362Y-68142500I250000J0D01*
G01*
X104966362Y-68142500D01*
G75*
G02*
X105216362Y-68392500I0J-250000D01*
G01*
X105216362Y-68892500D01*
G75*
G02*
X104966362Y-69142500I-250000J0D01*
G01*
G37*
G36*
G01*
X104966362Y-65842500D02*
X104266362Y-65842500D01*
G75*
G02*
X104016362Y-65592500I0J250000D01*
G01*
X104016362Y-65092500D01*
G75*
G02*
X104266362Y-64842500I250000J0D01*
G01*
X104966362Y-64842500D01*
G75*
G02*
X105216362Y-65092500I0J-250000D01*
G01*
X105216362Y-65592500D01*
G75*
G02*
X104966362Y-65842500I-250000J0D01*
G01*
G37*
G36*
G01*
X85916346Y-69142500D02*
X85216346Y-69142500D01*
G75*
G02*
X84966346Y-68892500I0J250000D01*
G01*
X84966346Y-68392500D01*
G75*
G02*
X85216346Y-68142500I250000J0D01*
G01*
X85916346Y-68142500D01*
G75*
G02*
X86166346Y-68392500I0J-250000D01*
G01*
X86166346Y-68892500D01*
G75*
G02*
X85916346Y-69142500I-250000J0D01*
G01*
G37*
G36*
G01*
X85916346Y-65842500D02*
X85216346Y-65842500D01*
G75*
G02*
X84966346Y-65592500I0J250000D01*
G01*
X84966346Y-65092500D01*
G75*
G02*
X85216346Y-64842500I250000J0D01*
G01*
X85916346Y-64842500D01*
G75*
G02*
X86166346Y-65092500I0J-250000D01*
G01*
X86166346Y-65592500D01*
G75*
G02*
X85916346Y-65842500I-250000J0D01*
G01*
G37*
G36*
G01*
X66866330Y-69142500D02*
X66166330Y-69142500D01*
G75*
G02*
X65916330Y-68892500I0J250000D01*
G01*
X65916330Y-68392500D01*
G75*
G02*
X66166330Y-68142500I250000J0D01*
G01*
X66866330Y-68142500D01*
G75*
G02*
X67116330Y-68392500I0J-250000D01*
G01*
X67116330Y-68892500D01*
G75*
G02*
X66866330Y-69142500I-250000J0D01*
G01*
G37*
G36*
G01*
X66866330Y-65842500D02*
X66166330Y-65842500D01*
G75*
G02*
X65916330Y-65592500I0J250000D01*
G01*
X65916330Y-65092500D01*
G75*
G02*
X66166330Y-64842500I250000J0D01*
G01*
X66866330Y-64842500D01*
G75*
G02*
X67116330Y-65092500I0J-250000D01*
G01*
X67116330Y-65592500D01*
G75*
G02*
X66866330Y-65842500I-250000J0D01*
G01*
G37*
G36*
G01*
X47816570Y-69142820D02*
X47116570Y-69142820D01*
G75*
G02*
X46866570Y-68892820I0J250000D01*
G01*
X46866570Y-68392820D01*
G75*
G02*
X47116570Y-68142820I250000J0D01*
G01*
X47816570Y-68142820D01*
G75*
G02*
X48066570Y-68392820I0J-250000D01*
G01*
X48066570Y-68892820D01*
G75*
G02*
X47816570Y-69142820I-250000J0D01*
G01*
G37*
G36*
G01*
X47816570Y-65842820D02*
X47116570Y-65842820D01*
G75*
G02*
X46866570Y-65592820I0J250000D01*
G01*
X46866570Y-65092820D01*
G75*
G02*
X47116570Y-64842820I250000J0D01*
G01*
X47816570Y-64842820D01*
G75*
G02*
X48066570Y-65092820I0J-250000D01*
G01*
X48066570Y-65592820D01*
G75*
G02*
X47816570Y-65842820I-250000J0D01*
G01*
G37*
G36*
G01*
X6144520Y-69142820D02*
X5444520Y-69142820D01*
G75*
G02*
X5194520Y-68892820I0J250000D01*
G01*
X5194520Y-68392820D01*
G75*
G02*
X5444520Y-68142820I250000J0D01*
G01*
X6144520Y-68142820D01*
G75*
G02*
X6394520Y-68392820I0J-250000D01*
G01*
X6394520Y-68892820D01*
G75*
G02*
X6144520Y-69142820I-250000J0D01*
G01*
G37*
G36*
G01*
X6144520Y-65842820D02*
X5444520Y-65842820D01*
G75*
G02*
X5194520Y-65592820I0J250000D01*
G01*
X5194520Y-65092820D01*
G75*
G02*
X5444520Y-64842820I250000J0D01*
G01*
X6144520Y-64842820D01*
G75*
G02*
X6394520Y-65092820I0J-250000D01*
G01*
X6394520Y-65592820D01*
G75*
G02*
X6144520Y-65842820I-250000J0D01*
G01*
G37*
G36*
G01*
X238807072Y-108300369D02*
X239507072Y-108300369D01*
G75*
G02*
X239757072Y-108550369I0J-250000D01*
G01*
X239757072Y-109050369D01*
G75*
G02*
X239507072Y-109300369I-250000J0D01*
G01*
X238807072Y-109300369D01*
G75*
G02*
X238557072Y-109050369I0J250000D01*
G01*
X238557072Y-108550369D01*
G75*
G02*
X238807072Y-108300369I250000J0D01*
G01*
G37*
G36*
G01*
X238807072Y-111600369D02*
X239507072Y-111600369D01*
G75*
G02*
X239757072Y-111850369I0J-250000D01*
G01*
X239757072Y-112350369D01*
G75*
G02*
X239507072Y-112600369I-250000J0D01*
G01*
X238807072Y-112600369D01*
G75*
G02*
X238557072Y-112350369I0J250000D01*
G01*
X238557072Y-111850369D01*
G75*
G02*
X238807072Y-111600369I250000J0D01*
G01*
G37*
G36*
G01*
X262605531Y-53650321D02*
X262605531Y-52950321D01*
G75*
G02*
X262855531Y-52700321I250000J0D01*
G01*
X263355531Y-52700321D01*
G75*
G02*
X263605531Y-52950321I0J-250000D01*
G01*
X263605531Y-53650321D01*
G75*
G02*
X263355531Y-53900321I-250000J0D01*
G01*
X262855531Y-53900321D01*
G75*
G02*
X262605531Y-53650321I0J250000D01*
G01*
G37*
G36*
G01*
X265905531Y-53650321D02*
X265905531Y-52950321D01*
G75*
G02*
X266155531Y-52700321I250000J0D01*
G01*
X266655531Y-52700321D01*
G75*
G02*
X266905531Y-52950321I0J-250000D01*
G01*
X266905531Y-53650321D01*
G75*
G02*
X266655531Y-53900321I-250000J0D01*
G01*
X266155531Y-53900321D01*
G75*
G02*
X265905531Y-53650321I0J250000D01*
G01*
G37*
G36*
G01*
X237126740Y-69142820D02*
X236426740Y-69142820D01*
G75*
G02*
X236176740Y-68892820I0J250000D01*
G01*
X236176740Y-68392820D01*
G75*
G02*
X236426740Y-68142820I250000J0D01*
G01*
X237126740Y-68142820D01*
G75*
G02*
X237376740Y-68392820I0J-250000D01*
G01*
X237376740Y-68892820D01*
G75*
G02*
X237126740Y-69142820I-250000J0D01*
G01*
G37*
G36*
G01*
X237126740Y-65842820D02*
X236426740Y-65842820D01*
G75*
G02*
X236176740Y-65592820I0J250000D01*
G01*
X236176740Y-65092820D01*
G75*
G02*
X236426740Y-64842820I250000J0D01*
G01*
X237126740Y-64842820D01*
G75*
G02*
X237376740Y-65092820I0J-250000D01*
G01*
X237376740Y-65592820D01*
G75*
G02*
X237126740Y-65842820I-250000J0D01*
G01*
G37*
G36*
G01*
X229982960Y-50092740D02*
X229282960Y-50092740D01*
G75*
G02*
X229032960Y-49842740I0J250000D01*
G01*
X229032960Y-49342740D01*
G75*
G02*
X229282960Y-49092740I250000J0D01*
G01*
X229982960Y-49092740D01*
G75*
G02*
X230232960Y-49342740I0J-250000D01*
G01*
X230232960Y-49842740D01*
G75*
G02*
X229982960Y-50092740I-250000J0D01*
G01*
G37*
G36*
G01*
X229982960Y-46792740D02*
X229282960Y-46792740D01*
G75*
G02*
X229032960Y-46542740I0J250000D01*
G01*
X229032960Y-46042740D01*
G75*
G02*
X229282960Y-45792740I250000J0D01*
G01*
X229982960Y-45792740D01*
G75*
G02*
X230232960Y-46042740I0J-250000D01*
G01*
X230232960Y-46542740D01*
G75*
G02*
X229982960Y-46792740I-250000J0D01*
G01*
G37*
G36*
G01*
X227600840Y-50092500D02*
X226900840Y-50092500D01*
G75*
G02*
X226650840Y-49842500I0J250000D01*
G01*
X226650840Y-49342500D01*
G75*
G02*
X226900840Y-49092500I250000J0D01*
G01*
X227600840Y-49092500D01*
G75*
G02*
X227850840Y-49342500I0J-250000D01*
G01*
X227850840Y-49842500D01*
G75*
G02*
X227600840Y-50092500I-250000J0D01*
G01*
G37*
G36*
G01*
X227600840Y-46792500D02*
X226900840Y-46792500D01*
G75*
G02*
X226650840Y-46542500I0J250000D01*
G01*
X226650840Y-46042500D01*
G75*
G02*
X226900840Y-45792500I250000J0D01*
G01*
X227600840Y-45792500D01*
G75*
G02*
X227850840Y-46042500I0J-250000D01*
G01*
X227850840Y-46542500D01*
G75*
G02*
X227600840Y-46792500I-250000J0D01*
G01*
G37*
G36*
G01*
X191882800Y-50092500D02*
X191182800Y-50092500D01*
G75*
G02*
X190932800Y-49842500I0J250000D01*
G01*
X190932800Y-49342500D01*
G75*
G02*
X191182800Y-49092500I250000J0D01*
G01*
X191882800Y-49092500D01*
G75*
G02*
X192132800Y-49342500I0J-250000D01*
G01*
X192132800Y-49842500D01*
G75*
G02*
X191882800Y-50092500I-250000J0D01*
G01*
G37*
G36*
G01*
X191882800Y-46792500D02*
X191182800Y-46792500D01*
G75*
G02*
X190932800Y-46542500I0J250000D01*
G01*
X190932800Y-46042500D01*
G75*
G02*
X191182800Y-45792500I250000J0D01*
G01*
X191882800Y-45792500D01*
G75*
G02*
X192132800Y-46042500I0J-250000D01*
G01*
X192132800Y-46542500D01*
G75*
G02*
X191882800Y-46792500I-250000J0D01*
G01*
G37*
G36*
G01*
X189500808Y-50092500D02*
X188800808Y-50092500D01*
G75*
G02*
X188550808Y-49842500I0J250000D01*
G01*
X188550808Y-49342500D01*
G75*
G02*
X188800808Y-49092500I250000J0D01*
G01*
X189500808Y-49092500D01*
G75*
G02*
X189750808Y-49342500I0J-250000D01*
G01*
X189750808Y-49842500D01*
G75*
G02*
X189500808Y-50092500I-250000J0D01*
G01*
G37*
G36*
G01*
X189500808Y-46792500D02*
X188800808Y-46792500D01*
G75*
G02*
X188550808Y-46542500I0J250000D01*
G01*
X188550808Y-46042500D01*
G75*
G02*
X188800808Y-45792500I250000J0D01*
G01*
X189500808Y-45792500D01*
G75*
G02*
X189750808Y-46042500I0J-250000D01*
G01*
X189750808Y-46542500D01*
G75*
G02*
X189500808Y-46792500I-250000J0D01*
G01*
G37*
G36*
G01*
X153782640Y-50092500D02*
X153082640Y-50092500D01*
G75*
G02*
X152832640Y-49842500I0J250000D01*
G01*
X152832640Y-49342500D01*
G75*
G02*
X153082640Y-49092500I250000J0D01*
G01*
X153782640Y-49092500D01*
G75*
G02*
X154032640Y-49342500I0J-250000D01*
G01*
X154032640Y-49842500D01*
G75*
G02*
X153782640Y-50092500I-250000J0D01*
G01*
G37*
G36*
G01*
X153782640Y-46792500D02*
X153082640Y-46792500D01*
G75*
G02*
X152832640Y-46542500I0J250000D01*
G01*
X152832640Y-46042500D01*
G75*
G02*
X153082640Y-45792500I250000J0D01*
G01*
X153782640Y-45792500D01*
G75*
G02*
X154032640Y-46042500I0J-250000D01*
G01*
X154032640Y-46542500D01*
G75*
G02*
X153782640Y-46792500I-250000J0D01*
G01*
G37*
G36*
G01*
X151400776Y-50092500D02*
X150700776Y-50092500D01*
G75*
G02*
X150450776Y-49842500I0J250000D01*
G01*
X150450776Y-49342500D01*
G75*
G02*
X150700776Y-49092500I250000J0D01*
G01*
X151400776Y-49092500D01*
G75*
G02*
X151650776Y-49342500I0J-250000D01*
G01*
X151650776Y-49842500D01*
G75*
G02*
X151400776Y-50092500I-250000J0D01*
G01*
G37*
G36*
G01*
X151400776Y-46792500D02*
X150700776Y-46792500D01*
G75*
G02*
X150450776Y-46542500I0J250000D01*
G01*
X150450776Y-46042500D01*
G75*
G02*
X150700776Y-45792500I250000J0D01*
G01*
X151400776Y-45792500D01*
G75*
G02*
X151650776Y-46042500I0J-250000D01*
G01*
X151650776Y-46542500D01*
G75*
G02*
X151400776Y-46792500I-250000J0D01*
G01*
G37*
G36*
G01*
X115682480Y-50092500D02*
X114982480Y-50092500D01*
G75*
G02*
X114732480Y-49842500I0J250000D01*
G01*
X114732480Y-49342500D01*
G75*
G02*
X114982480Y-49092500I250000J0D01*
G01*
X115682480Y-49092500D01*
G75*
G02*
X115932480Y-49342500I0J-250000D01*
G01*
X115932480Y-49842500D01*
G75*
G02*
X115682480Y-50092500I-250000J0D01*
G01*
G37*
G36*
G01*
X115682480Y-46792500D02*
X114982480Y-46792500D01*
G75*
G02*
X114732480Y-46542500I0J250000D01*
G01*
X114732480Y-46042500D01*
G75*
G02*
X114982480Y-45792500I250000J0D01*
G01*
X115682480Y-45792500D01*
G75*
G02*
X115932480Y-46042500I0J-250000D01*
G01*
X115932480Y-46542500D01*
G75*
G02*
X115682480Y-46792500I-250000J0D01*
G01*
G37*
G36*
G01*
X113300744Y-50092500D02*
X112600744Y-50092500D01*
G75*
G02*
X112350744Y-49842500I0J250000D01*
G01*
X112350744Y-49342500D01*
G75*
G02*
X112600744Y-49092500I250000J0D01*
G01*
X113300744Y-49092500D01*
G75*
G02*
X113550744Y-49342500I0J-250000D01*
G01*
X113550744Y-49842500D01*
G75*
G02*
X113300744Y-50092500I-250000J0D01*
G01*
G37*
G36*
G01*
X113300744Y-46792500D02*
X112600744Y-46792500D01*
G75*
G02*
X112350744Y-46542500I0J250000D01*
G01*
X112350744Y-46042500D01*
G75*
G02*
X112600744Y-45792500I250000J0D01*
G01*
X113300744Y-45792500D01*
G75*
G02*
X113550744Y-46042500I0J-250000D01*
G01*
X113550744Y-46542500D01*
G75*
G02*
X113300744Y-46792500I-250000J0D01*
G01*
G37*
G36*
G01*
X77582320Y-50092740D02*
X76882320Y-50092740D01*
G75*
G02*
X76632320Y-49842740I0J250000D01*
G01*
X76632320Y-49342740D01*
G75*
G02*
X76882320Y-49092740I250000J0D01*
G01*
X77582320Y-49092740D01*
G75*
G02*
X77832320Y-49342740I0J-250000D01*
G01*
X77832320Y-49842740D01*
G75*
G02*
X77582320Y-50092740I-250000J0D01*
G01*
G37*
G36*
G01*
X77582320Y-46792740D02*
X76882320Y-46792740D01*
G75*
G02*
X76632320Y-46542740I0J250000D01*
G01*
X76632320Y-46042740D01*
G75*
G02*
X76882320Y-45792740I250000J0D01*
G01*
X77582320Y-45792740D01*
G75*
G02*
X77832320Y-46042740I0J-250000D01*
G01*
X77832320Y-46542740D01*
G75*
G02*
X77582320Y-46792740I-250000J0D01*
G01*
G37*
G36*
G01*
X75200712Y-50092500D02*
X74500712Y-50092500D01*
G75*
G02*
X74250712Y-49842500I0J250000D01*
G01*
X74250712Y-49342500D01*
G75*
G02*
X74500712Y-49092500I250000J0D01*
G01*
X75200712Y-49092500D01*
G75*
G02*
X75450712Y-49342500I0J-250000D01*
G01*
X75450712Y-49842500D01*
G75*
G02*
X75200712Y-50092500I-250000J0D01*
G01*
G37*
G36*
G01*
X75200712Y-46792500D02*
X74500712Y-46792500D01*
G75*
G02*
X74250712Y-46542500I0J250000D01*
G01*
X74250712Y-46042500D01*
G75*
G02*
X74500712Y-45792500I250000J0D01*
G01*
X75200712Y-45792500D01*
G75*
G02*
X75450712Y-46042500I0J-250000D01*
G01*
X75450712Y-46542500D01*
G75*
G02*
X75200712Y-46792500I-250000J0D01*
G01*
G37*
G36*
G01*
X39482160Y-50092740D02*
X38782160Y-50092740D01*
G75*
G02*
X38532160Y-49842740I0J250000D01*
G01*
X38532160Y-49342740D01*
G75*
G02*
X38782160Y-49092740I250000J0D01*
G01*
X39482160Y-49092740D01*
G75*
G02*
X39732160Y-49342740I0J-250000D01*
G01*
X39732160Y-49842740D01*
G75*
G02*
X39482160Y-50092740I-250000J0D01*
G01*
G37*
G36*
G01*
X39482160Y-46792740D02*
X38782160Y-46792740D01*
G75*
G02*
X38532160Y-46542740I0J250000D01*
G01*
X38532160Y-46042740D01*
G75*
G02*
X38782160Y-45792740I250000J0D01*
G01*
X39482160Y-45792740D01*
G75*
G02*
X39732160Y-46042740I0J-250000D01*
G01*
X39732160Y-46542740D01*
G75*
G02*
X39482160Y-46792740I-250000J0D01*
G01*
G37*
G36*
G01*
X37100900Y-50092740D02*
X36400900Y-50092740D01*
G75*
G02*
X36150900Y-49842740I0J250000D01*
G01*
X36150900Y-49342740D01*
G75*
G02*
X36400900Y-49092740I250000J0D01*
G01*
X37100900Y-49092740D01*
G75*
G02*
X37350900Y-49342740I0J-250000D01*
G01*
X37350900Y-49842740D01*
G75*
G02*
X37100900Y-50092740I-250000J0D01*
G01*
G37*
G36*
G01*
X37100900Y-46792740D02*
X36400900Y-46792740D01*
G75*
G02*
X36150900Y-46542740I0J250000D01*
G01*
X36150900Y-46042740D01*
G75*
G02*
X36400900Y-45792740I250000J0D01*
G01*
X37100900Y-45792740D01*
G75*
G02*
X37350900Y-46042740I0J-250000D01*
G01*
X37350900Y-46542740D01*
G75*
G02*
X37100900Y-46792740I-250000J0D01*
G01*
G37*
G36*
G01*
X7944520Y-52355260D02*
X7944520Y-53055260D01*
G75*
G02*
X7694520Y-53305260I-250000J0D01*
G01*
X7194520Y-53305260D01*
G75*
G02*
X6944520Y-53055260I0J250000D01*
G01*
X6944520Y-52355260D01*
G75*
G02*
X7194520Y-52105260I250000J0D01*
G01*
X7694520Y-52105260D01*
G75*
G02*
X7944520Y-52355260I0J-250000D01*
G01*
G37*
G36*
G01*
X4644520Y-52355260D02*
X4644520Y-53055260D01*
G75*
G02*
X4394520Y-53305260I-250000J0D01*
G01*
X3894520Y-53305260D01*
G75*
G02*
X3644520Y-53055260I0J250000D01*
G01*
X3644520Y-52355260D01*
G75*
G02*
X3894520Y-52105260I250000J0D01*
G01*
X4394520Y-52105260D01*
G75*
G02*
X4644520Y-52355260I0J-250000D01*
G01*
G37*
D17*
X34978750Y-59242500D03*
X34978750Y-53642500D03*
D18*
X31103750Y-54942500D03*
X31103750Y-55942500D03*
X31103750Y-57942500D03*
X31103750Y-56942500D03*
D19*
X22129750Y-50616000D03*
X22129750Y-53016000D03*
D20*
X11871095Y-60508410D03*
X5671095Y-56808410D03*
X11871095Y-56808410D03*
X5671095Y-60508410D03*
D21*
X19453850Y-51042500D03*
D22*
X17453850Y-50842500D03*
X19453850Y-52742500D03*
X17453850Y-52742500D03*
D23*
X17010190Y-76530340D03*
X18010190Y-76530340D03*
X16010190Y-76530340D03*
X15010190Y-76530340D03*
D24*
X13710190Y-72655340D03*
X19310190Y-72655340D03*
G36*
G01*
X32212750Y-89140420D02*
X32212750Y-88600420D01*
G75*
G02*
X32462750Y-88350420I250000J0D01*
G01*
X33002750Y-88350420D01*
G75*
G02*
X33252750Y-88600420I0J-250000D01*
G01*
X33252750Y-89140420D01*
G75*
G02*
X33002750Y-89390420I-250000J0D01*
G01*
X32462750Y-89390420D01*
G75*
G02*
X32212750Y-89140420I0J250000D01*
G01*
G37*
G36*
G01*
X32212750Y-90430420D02*
X32212750Y-89890420D01*
G75*
G02*
X32462750Y-89640420I250000J0D01*
G01*
X33002750Y-89640420D01*
G75*
G02*
X33252750Y-89890420I0J-250000D01*
G01*
X33252750Y-90430420D01*
G75*
G02*
X33002750Y-90680420I-250000J0D01*
G01*
X32462750Y-90680420D01*
G75*
G02*
X32212750Y-90430420I0J250000D01*
G01*
G37*
G36*
G01*
X32212750Y-91720420D02*
X32212750Y-91180420D01*
G75*
G02*
X32462750Y-90930420I250000J0D01*
G01*
X33002750Y-90930420D01*
G75*
G02*
X33252750Y-91180420I0J-250000D01*
G01*
X33252750Y-91720420D01*
G75*
G02*
X33002750Y-91970420I-250000J0D01*
G01*
X32462750Y-91970420D01*
G75*
G02*
X32212750Y-91720420I0J250000D01*
G01*
G37*
G36*
G01*
X32212750Y-93010420D02*
X32212750Y-92470420D01*
G75*
G02*
X32462750Y-92220420I250000J0D01*
G01*
X33002750Y-92220420D01*
G75*
G02*
X33252750Y-92470420I0J-250000D01*
G01*
X33252750Y-93010420D01*
G75*
G02*
X33002750Y-93260420I-250000J0D01*
G01*
X32462750Y-93260420D01*
G75*
G02*
X32212750Y-93010420I0J250000D01*
G01*
G37*
G36*
G01*
X30922750Y-89140420D02*
X30922750Y-88600420D01*
G75*
G02*
X31172750Y-88350420I250000J0D01*
G01*
X31712750Y-88350420D01*
G75*
G02*
X31962750Y-88600420I0J-250000D01*
G01*
X31962750Y-89140420D01*
G75*
G02*
X31712750Y-89390420I-250000J0D01*
G01*
X31172750Y-89390420D01*
G75*
G02*
X30922750Y-89140420I0J250000D01*
G01*
G37*
G36*
G01*
X30922750Y-90430420D02*
X30922750Y-89890420D01*
G75*
G02*
X31172750Y-89640420I250000J0D01*
G01*
X31712750Y-89640420D01*
G75*
G02*
X31962750Y-89890420I0J-250000D01*
G01*
X31962750Y-90430420D01*
G75*
G02*
X31712750Y-90680420I-250000J0D01*
G01*
X31172750Y-90680420D01*
G75*
G02*
X30922750Y-90430420I0J250000D01*
G01*
G37*
G36*
G01*
X30922750Y-91720420D02*
X30922750Y-91180420D01*
G75*
G02*
X31172750Y-90930420I250000J0D01*
G01*
X31712750Y-90930420D01*
G75*
G02*
X31962750Y-91180420I0J-250000D01*
G01*
X31962750Y-91720420D01*
G75*
G02*
X31712750Y-91970420I-250000J0D01*
G01*
X31172750Y-91970420D01*
G75*
G02*
X30922750Y-91720420I0J250000D01*
G01*
G37*
G36*
G01*
X30922750Y-93010420D02*
X30922750Y-92470420D01*
G75*
G02*
X31172750Y-92220420I250000J0D01*
G01*
X31712750Y-92220420D01*
G75*
G02*
X31962750Y-92470420I0J-250000D01*
G01*
X31962750Y-93010420D01*
G75*
G02*
X31712750Y-93260420I-250000J0D01*
G01*
X31172750Y-93260420D01*
G75*
G02*
X30922750Y-93010420I0J250000D01*
G01*
G37*
G36*
G01*
X29632750Y-89140420D02*
X29632750Y-88600420D01*
G75*
G02*
X29882750Y-88350420I250000J0D01*
G01*
X30422750Y-88350420D01*
G75*
G02*
X30672750Y-88600420I0J-250000D01*
G01*
X30672750Y-89140420D01*
G75*
G02*
X30422750Y-89390420I-250000J0D01*
G01*
X29882750Y-89390420D01*
G75*
G02*
X29632750Y-89140420I0J250000D01*
G01*
G37*
G36*
G01*
X29632750Y-90430420D02*
X29632750Y-89890420D01*
G75*
G02*
X29882750Y-89640420I250000J0D01*
G01*
X30422750Y-89640420D01*
G75*
G02*
X30672750Y-89890420I0J-250000D01*
G01*
X30672750Y-90430420D01*
G75*
G02*
X30422750Y-90680420I-250000J0D01*
G01*
X29882750Y-90680420D01*
G75*
G02*
X29632750Y-90430420I0J250000D01*
G01*
G37*
G36*
G01*
X29632750Y-91720420D02*
X29632750Y-91180420D01*
G75*
G02*
X29882750Y-90930420I250000J0D01*
G01*
X30422750Y-90930420D01*
G75*
G02*
X30672750Y-91180420I0J-250000D01*
G01*
X30672750Y-91720420D01*
G75*
G02*
X30422750Y-91970420I-250000J0D01*
G01*
X29882750Y-91970420D01*
G75*
G02*
X29632750Y-91720420I0J250000D01*
G01*
G37*
G36*
G01*
X29632750Y-93010420D02*
X29632750Y-92470420D01*
G75*
G02*
X29882750Y-92220420I250000J0D01*
G01*
X30422750Y-92220420D01*
G75*
G02*
X30672750Y-92470420I0J-250000D01*
G01*
X30672750Y-93010420D01*
G75*
G02*
X30422750Y-93260420I-250000J0D01*
G01*
X29882750Y-93260420D01*
G75*
G02*
X29632750Y-93010420I0J250000D01*
G01*
G37*
G36*
G01*
X28342750Y-89140420D02*
X28342750Y-88600420D01*
G75*
G02*
X28592750Y-88350420I250000J0D01*
G01*
X29132750Y-88350420D01*
G75*
G02*
X29382750Y-88600420I0J-250000D01*
G01*
X29382750Y-89140420D01*
G75*
G02*
X29132750Y-89390420I-250000J0D01*
G01*
X28592750Y-89390420D01*
G75*
G02*
X28342750Y-89140420I0J250000D01*
G01*
G37*
G36*
G01*
X28342750Y-90430420D02*
X28342750Y-89890420D01*
G75*
G02*
X28592750Y-89640420I250000J0D01*
G01*
X29132750Y-89640420D01*
G75*
G02*
X29382750Y-89890420I0J-250000D01*
G01*
X29382750Y-90430420D01*
G75*
G02*
X29132750Y-90680420I-250000J0D01*
G01*
X28592750Y-90680420D01*
G75*
G02*
X28342750Y-90430420I0J250000D01*
G01*
G37*
G36*
G01*
X28342750Y-91720420D02*
X28342750Y-91180420D01*
G75*
G02*
X28592750Y-90930420I250000J0D01*
G01*
X29132750Y-90930420D01*
G75*
G02*
X29382750Y-91180420I0J-250000D01*
G01*
X29382750Y-91720420D01*
G75*
G02*
X29132750Y-91970420I-250000J0D01*
G01*
X28592750Y-91970420D01*
G75*
G02*
X28342750Y-91720420I0J250000D01*
G01*
G37*
G36*
G01*
X28342750Y-93010420D02*
X28342750Y-92470420D01*
G75*
G02*
X28592750Y-92220420I250000J0D01*
G01*
X29132750Y-92220420D01*
G75*
G02*
X29382750Y-92470420I0J-250000D01*
G01*
X29382750Y-93010420D01*
G75*
G02*
X29132750Y-93260420I-250000J0D01*
G01*
X28592750Y-93260420D01*
G75*
G02*
X28342750Y-93010420I0J250000D01*
G01*
G37*
G36*
G01*
X28172750Y-94617920D02*
X28172750Y-93867920D01*
G75*
G02*
X28235250Y-93805420I62500J0D01*
G01*
X28360250Y-93805420D01*
G75*
G02*
X28422750Y-93867920I0J-62500D01*
G01*
X28422750Y-94617920D01*
G75*
G02*
X28360250Y-94680420I-62500J0D01*
G01*
X28235250Y-94680420D01*
G75*
G02*
X28172750Y-94617920I0J62500D01*
G01*
G37*
G36*
G01*
X28672750Y-94617920D02*
X28672750Y-93867920D01*
G75*
G02*
X28735250Y-93805420I62500J0D01*
G01*
X28860250Y-93805420D01*
G75*
G02*
X28922750Y-93867920I0J-62500D01*
G01*
X28922750Y-94617920D01*
G75*
G02*
X28860250Y-94680420I-62500J0D01*
G01*
X28735250Y-94680420D01*
G75*
G02*
X28672750Y-94617920I0J62500D01*
G01*
G37*
G36*
G01*
X29172750Y-94617920D02*
X29172750Y-93867920D01*
G75*
G02*
X29235250Y-93805420I62500J0D01*
G01*
X29360250Y-93805420D01*
G75*
G02*
X29422750Y-93867920I0J-62500D01*
G01*
X29422750Y-94617920D01*
G75*
G02*
X29360250Y-94680420I-62500J0D01*
G01*
X29235250Y-94680420D01*
G75*
G02*
X29172750Y-94617920I0J62500D01*
G01*
G37*
G36*
G01*
X29672750Y-94617920D02*
X29672750Y-93867920D01*
G75*
G02*
X29735250Y-93805420I62500J0D01*
G01*
X29860250Y-93805420D01*
G75*
G02*
X29922750Y-93867920I0J-62500D01*
G01*
X29922750Y-94617920D01*
G75*
G02*
X29860250Y-94680420I-62500J0D01*
G01*
X29735250Y-94680420D01*
G75*
G02*
X29672750Y-94617920I0J62500D01*
G01*
G37*
G36*
G01*
X30172750Y-94617920D02*
X30172750Y-93867920D01*
G75*
G02*
X30235250Y-93805420I62500J0D01*
G01*
X30360250Y-93805420D01*
G75*
G02*
X30422750Y-93867920I0J-62500D01*
G01*
X30422750Y-94617920D01*
G75*
G02*
X30360250Y-94680420I-62500J0D01*
G01*
X30235250Y-94680420D01*
G75*
G02*
X30172750Y-94617920I0J62500D01*
G01*
G37*
G36*
G01*
X30672750Y-94617920D02*
X30672750Y-93867920D01*
G75*
G02*
X30735250Y-93805420I62500J0D01*
G01*
X30860250Y-93805420D01*
G75*
G02*
X30922750Y-93867920I0J-62500D01*
G01*
X30922750Y-94617920D01*
G75*
G02*
X30860250Y-94680420I-62500J0D01*
G01*
X30735250Y-94680420D01*
G75*
G02*
X30672750Y-94617920I0J62500D01*
G01*
G37*
G36*
G01*
X31172750Y-94617920D02*
X31172750Y-93867920D01*
G75*
G02*
X31235250Y-93805420I62500J0D01*
G01*
X31360250Y-93805420D01*
G75*
G02*
X31422750Y-93867920I0J-62500D01*
G01*
X31422750Y-94617920D01*
G75*
G02*
X31360250Y-94680420I-62500J0D01*
G01*
X31235250Y-94680420D01*
G75*
G02*
X31172750Y-94617920I0J62500D01*
G01*
G37*
G36*
G01*
X31672750Y-94617920D02*
X31672750Y-93867920D01*
G75*
G02*
X31735250Y-93805420I62500J0D01*
G01*
X31860250Y-93805420D01*
G75*
G02*
X31922750Y-93867920I0J-62500D01*
G01*
X31922750Y-94617920D01*
G75*
G02*
X31860250Y-94680420I-62500J0D01*
G01*
X31735250Y-94680420D01*
G75*
G02*
X31672750Y-94617920I0J62500D01*
G01*
G37*
G36*
G01*
X32172750Y-94617920D02*
X32172750Y-93867920D01*
G75*
G02*
X32235250Y-93805420I62500J0D01*
G01*
X32360250Y-93805420D01*
G75*
G02*
X32422750Y-93867920I0J-62500D01*
G01*
X32422750Y-94617920D01*
G75*
G02*
X32360250Y-94680420I-62500J0D01*
G01*
X32235250Y-94680420D01*
G75*
G02*
X32172750Y-94617920I0J62500D01*
G01*
G37*
G36*
G01*
X32672750Y-94617920D02*
X32672750Y-93867920D01*
G75*
G02*
X32735250Y-93805420I62500J0D01*
G01*
X32860250Y-93805420D01*
G75*
G02*
X32922750Y-93867920I0J-62500D01*
G01*
X32922750Y-94617920D01*
G75*
G02*
X32860250Y-94680420I-62500J0D01*
G01*
X32735250Y-94680420D01*
G75*
G02*
X32672750Y-94617920I0J62500D01*
G01*
G37*
G36*
G01*
X33172750Y-94617920D02*
X33172750Y-93867920D01*
G75*
G02*
X33235250Y-93805420I62500J0D01*
G01*
X33360250Y-93805420D01*
G75*
G02*
X33422750Y-93867920I0J-62500D01*
G01*
X33422750Y-94617920D01*
G75*
G02*
X33360250Y-94680420I-62500J0D01*
G01*
X33235250Y-94680420D01*
G75*
G02*
X33172750Y-94617920I0J62500D01*
G01*
G37*
G36*
G01*
X33797750Y-93367920D02*
X33797750Y-93242920D01*
G75*
G02*
X33860250Y-93180420I62500J0D01*
G01*
X34610250Y-93180420D01*
G75*
G02*
X34672750Y-93242920I0J-62500D01*
G01*
X34672750Y-93367920D01*
G75*
G02*
X34610250Y-93430420I-62500J0D01*
G01*
X33860250Y-93430420D01*
G75*
G02*
X33797750Y-93367920I0J62500D01*
G01*
G37*
G36*
G01*
X33797750Y-92867920D02*
X33797750Y-92742920D01*
G75*
G02*
X33860250Y-92680420I62500J0D01*
G01*
X34610250Y-92680420D01*
G75*
G02*
X34672750Y-92742920I0J-62500D01*
G01*
X34672750Y-92867920D01*
G75*
G02*
X34610250Y-92930420I-62500J0D01*
G01*
X33860250Y-92930420D01*
G75*
G02*
X33797750Y-92867920I0J62500D01*
G01*
G37*
G36*
G01*
X33797750Y-92367920D02*
X33797750Y-92242920D01*
G75*
G02*
X33860250Y-92180420I62500J0D01*
G01*
X34610250Y-92180420D01*
G75*
G02*
X34672750Y-92242920I0J-62500D01*
G01*
X34672750Y-92367920D01*
G75*
G02*
X34610250Y-92430420I-62500J0D01*
G01*
X33860250Y-92430420D01*
G75*
G02*
X33797750Y-92367920I0J62500D01*
G01*
G37*
G36*
G01*
X33797750Y-91867920D02*
X33797750Y-91742920D01*
G75*
G02*
X33860250Y-91680420I62500J0D01*
G01*
X34610250Y-91680420D01*
G75*
G02*
X34672750Y-91742920I0J-62500D01*
G01*
X34672750Y-91867920D01*
G75*
G02*
X34610250Y-91930420I-62500J0D01*
G01*
X33860250Y-91930420D01*
G75*
G02*
X33797750Y-91867920I0J62500D01*
G01*
G37*
G36*
G01*
X33797750Y-91367920D02*
X33797750Y-91242920D01*
G75*
G02*
X33860250Y-91180420I62500J0D01*
G01*
X34610250Y-91180420D01*
G75*
G02*
X34672750Y-91242920I0J-62500D01*
G01*
X34672750Y-91367920D01*
G75*
G02*
X34610250Y-91430420I-62500J0D01*
G01*
X33860250Y-91430420D01*
G75*
G02*
X33797750Y-91367920I0J62500D01*
G01*
G37*
G36*
G01*
X33797750Y-90867920D02*
X33797750Y-90742920D01*
G75*
G02*
X33860250Y-90680420I62500J0D01*
G01*
X34610250Y-90680420D01*
G75*
G02*
X34672750Y-90742920I0J-62500D01*
G01*
X34672750Y-90867920D01*
G75*
G02*
X34610250Y-90930420I-62500J0D01*
G01*
X33860250Y-90930420D01*
G75*
G02*
X33797750Y-90867920I0J62500D01*
G01*
G37*
G36*
G01*
X33797750Y-90367920D02*
X33797750Y-90242920D01*
G75*
G02*
X33860250Y-90180420I62500J0D01*
G01*
X34610250Y-90180420D01*
G75*
G02*
X34672750Y-90242920I0J-62500D01*
G01*
X34672750Y-90367920D01*
G75*
G02*
X34610250Y-90430420I-62500J0D01*
G01*
X33860250Y-90430420D01*
G75*
G02*
X33797750Y-90367920I0J62500D01*
G01*
G37*
G36*
G01*
X33797750Y-89867920D02*
X33797750Y-89742920D01*
G75*
G02*
X33860250Y-89680420I62500J0D01*
G01*
X34610250Y-89680420D01*
G75*
G02*
X34672750Y-89742920I0J-62500D01*
G01*
X34672750Y-89867920D01*
G75*
G02*
X34610250Y-89930420I-62500J0D01*
G01*
X33860250Y-89930420D01*
G75*
G02*
X33797750Y-89867920I0J62500D01*
G01*
G37*
G36*
G01*
X33797750Y-89367920D02*
X33797750Y-89242920D01*
G75*
G02*
X33860250Y-89180420I62500J0D01*
G01*
X34610250Y-89180420D01*
G75*
G02*
X34672750Y-89242920I0J-62500D01*
G01*
X34672750Y-89367920D01*
G75*
G02*
X34610250Y-89430420I-62500J0D01*
G01*
X33860250Y-89430420D01*
G75*
G02*
X33797750Y-89367920I0J62500D01*
G01*
G37*
G36*
G01*
X33797750Y-88867920D02*
X33797750Y-88742920D01*
G75*
G02*
X33860250Y-88680420I62500J0D01*
G01*
X34610250Y-88680420D01*
G75*
G02*
X34672750Y-88742920I0J-62500D01*
G01*
X34672750Y-88867920D01*
G75*
G02*
X34610250Y-88930420I-62500J0D01*
G01*
X33860250Y-88930420D01*
G75*
G02*
X33797750Y-88867920I0J62500D01*
G01*
G37*
G36*
G01*
X33797750Y-88367920D02*
X33797750Y-88242920D01*
G75*
G02*
X33860250Y-88180420I62500J0D01*
G01*
X34610250Y-88180420D01*
G75*
G02*
X34672750Y-88242920I0J-62500D01*
G01*
X34672750Y-88367920D01*
G75*
G02*
X34610250Y-88430420I-62500J0D01*
G01*
X33860250Y-88430420D01*
G75*
G02*
X33797750Y-88367920I0J62500D01*
G01*
G37*
G36*
G01*
X33172750Y-87742920D02*
X33172750Y-86992920D01*
G75*
G02*
X33235250Y-86930420I62500J0D01*
G01*
X33360250Y-86930420D01*
G75*
G02*
X33422750Y-86992920I0J-62500D01*
G01*
X33422750Y-87742920D01*
G75*
G02*
X33360250Y-87805420I-62500J0D01*
G01*
X33235250Y-87805420D01*
G75*
G02*
X33172750Y-87742920I0J62500D01*
G01*
G37*
G36*
G01*
X32672750Y-87742920D02*
X32672750Y-86992920D01*
G75*
G02*
X32735250Y-86930420I62500J0D01*
G01*
X32860250Y-86930420D01*
G75*
G02*
X32922750Y-86992920I0J-62500D01*
G01*
X32922750Y-87742920D01*
G75*
G02*
X32860250Y-87805420I-62500J0D01*
G01*
X32735250Y-87805420D01*
G75*
G02*
X32672750Y-87742920I0J62500D01*
G01*
G37*
G36*
G01*
X32172750Y-87742920D02*
X32172750Y-86992920D01*
G75*
G02*
X32235250Y-86930420I62500J0D01*
G01*
X32360250Y-86930420D01*
G75*
G02*
X32422750Y-86992920I0J-62500D01*
G01*
X32422750Y-87742920D01*
G75*
G02*
X32360250Y-87805420I-62500J0D01*
G01*
X32235250Y-87805420D01*
G75*
G02*
X32172750Y-87742920I0J62500D01*
G01*
G37*
G36*
G01*
X31672750Y-87742920D02*
X31672750Y-86992920D01*
G75*
G02*
X31735250Y-86930420I62500J0D01*
G01*
X31860250Y-86930420D01*
G75*
G02*
X31922750Y-86992920I0J-62500D01*
G01*
X31922750Y-87742920D01*
G75*
G02*
X31860250Y-87805420I-62500J0D01*
G01*
X31735250Y-87805420D01*
G75*
G02*
X31672750Y-87742920I0J62500D01*
G01*
G37*
G36*
G01*
X31172750Y-87742920D02*
X31172750Y-86992920D01*
G75*
G02*
X31235250Y-86930420I62500J0D01*
G01*
X31360250Y-86930420D01*
G75*
G02*
X31422750Y-86992920I0J-62500D01*
G01*
X31422750Y-87742920D01*
G75*
G02*
X31360250Y-87805420I-62500J0D01*
G01*
X31235250Y-87805420D01*
G75*
G02*
X31172750Y-87742920I0J62500D01*
G01*
G37*
G36*
G01*
X30672750Y-87742920D02*
X30672750Y-86992920D01*
G75*
G02*
X30735250Y-86930420I62500J0D01*
G01*
X30860250Y-86930420D01*
G75*
G02*
X30922750Y-86992920I0J-62500D01*
G01*
X30922750Y-87742920D01*
G75*
G02*
X30860250Y-87805420I-62500J0D01*
G01*
X30735250Y-87805420D01*
G75*
G02*
X30672750Y-87742920I0J62500D01*
G01*
G37*
G36*
G01*
X30172750Y-87742920D02*
X30172750Y-86992920D01*
G75*
G02*
X30235250Y-86930420I62500J0D01*
G01*
X30360250Y-86930420D01*
G75*
G02*
X30422750Y-86992920I0J-62500D01*
G01*
X30422750Y-87742920D01*
G75*
G02*
X30360250Y-87805420I-62500J0D01*
G01*
X30235250Y-87805420D01*
G75*
G02*
X30172750Y-87742920I0J62500D01*
G01*
G37*
G36*
G01*
X29672750Y-87742920D02*
X29672750Y-86992920D01*
G75*
G02*
X29735250Y-86930420I62500J0D01*
G01*
X29860250Y-86930420D01*
G75*
G02*
X29922750Y-86992920I0J-62500D01*
G01*
X29922750Y-87742920D01*
G75*
G02*
X29860250Y-87805420I-62500J0D01*
G01*
X29735250Y-87805420D01*
G75*
G02*
X29672750Y-87742920I0J62500D01*
G01*
G37*
G36*
G01*
X29172750Y-87742920D02*
X29172750Y-86992920D01*
G75*
G02*
X29235250Y-86930420I62500J0D01*
G01*
X29360250Y-86930420D01*
G75*
G02*
X29422750Y-86992920I0J-62500D01*
G01*
X29422750Y-87742920D01*
G75*
G02*
X29360250Y-87805420I-62500J0D01*
G01*
X29235250Y-87805420D01*
G75*
G02*
X29172750Y-87742920I0J62500D01*
G01*
G37*
G36*
G01*
X28672750Y-87742920D02*
X28672750Y-86992920D01*
G75*
G02*
X28735250Y-86930420I62500J0D01*
G01*
X28860250Y-86930420D01*
G75*
G02*
X28922750Y-86992920I0J-62500D01*
G01*
X28922750Y-87742920D01*
G75*
G02*
X28860250Y-87805420I-62500J0D01*
G01*
X28735250Y-87805420D01*
G75*
G02*
X28672750Y-87742920I0J62500D01*
G01*
G37*
G36*
G01*
X28172750Y-87742920D02*
X28172750Y-86992920D01*
G75*
G02*
X28235250Y-86930420I62500J0D01*
G01*
X28360250Y-86930420D01*
G75*
G02*
X28422750Y-86992920I0J-62500D01*
G01*
X28422750Y-87742920D01*
G75*
G02*
X28360250Y-87805420I-62500J0D01*
G01*
X28235250Y-87805420D01*
G75*
G02*
X28172750Y-87742920I0J62500D01*
G01*
G37*
G36*
G01*
X26922750Y-88367920D02*
X26922750Y-88242920D01*
G75*
G02*
X26985250Y-88180420I62500J0D01*
G01*
X27735250Y-88180420D01*
G75*
G02*
X27797750Y-88242920I0J-62500D01*
G01*
X27797750Y-88367920D01*
G75*
G02*
X27735250Y-88430420I-62500J0D01*
G01*
X26985250Y-88430420D01*
G75*
G02*
X26922750Y-88367920I0J62500D01*
G01*
G37*
G36*
G01*
X26922750Y-88867920D02*
X26922750Y-88742920D01*
G75*
G02*
X26985250Y-88680420I62500J0D01*
G01*
X27735250Y-88680420D01*
G75*
G02*
X27797750Y-88742920I0J-62500D01*
G01*
X27797750Y-88867920D01*
G75*
G02*
X27735250Y-88930420I-62500J0D01*
G01*
X26985250Y-88930420D01*
G75*
G02*
X26922750Y-88867920I0J62500D01*
G01*
G37*
G36*
G01*
X26922750Y-89367920D02*
X26922750Y-89242920D01*
G75*
G02*
X26985250Y-89180420I62500J0D01*
G01*
X27735250Y-89180420D01*
G75*
G02*
X27797750Y-89242920I0J-62500D01*
G01*
X27797750Y-89367920D01*
G75*
G02*
X27735250Y-89430420I-62500J0D01*
G01*
X26985250Y-89430420D01*
G75*
G02*
X26922750Y-89367920I0J62500D01*
G01*
G37*
G36*
G01*
X26922750Y-89867920D02*
X26922750Y-89742920D01*
G75*
G02*
X26985250Y-89680420I62500J0D01*
G01*
X27735250Y-89680420D01*
G75*
G02*
X27797750Y-89742920I0J-62500D01*
G01*
X27797750Y-89867920D01*
G75*
G02*
X27735250Y-89930420I-62500J0D01*
G01*
X26985250Y-89930420D01*
G75*
G02*
X26922750Y-89867920I0J62500D01*
G01*
G37*
G36*
G01*
X26922750Y-90367920D02*
X26922750Y-90242920D01*
G75*
G02*
X26985250Y-90180420I62500J0D01*
G01*
X27735250Y-90180420D01*
G75*
G02*
X27797750Y-90242920I0J-62500D01*
G01*
X27797750Y-90367920D01*
G75*
G02*
X27735250Y-90430420I-62500J0D01*
G01*
X26985250Y-90430420D01*
G75*
G02*
X26922750Y-90367920I0J62500D01*
G01*
G37*
G36*
G01*
X26922750Y-90867920D02*
X26922750Y-90742920D01*
G75*
G02*
X26985250Y-90680420I62500J0D01*
G01*
X27735250Y-90680420D01*
G75*
G02*
X27797750Y-90742920I0J-62500D01*
G01*
X27797750Y-90867920D01*
G75*
G02*
X27735250Y-90930420I-62500J0D01*
G01*
X26985250Y-90930420D01*
G75*
G02*
X26922750Y-90867920I0J62500D01*
G01*
G37*
G36*
G01*
X26922750Y-91367920D02*
X26922750Y-91242920D01*
G75*
G02*
X26985250Y-91180420I62500J0D01*
G01*
X27735250Y-91180420D01*
G75*
G02*
X27797750Y-91242920I0J-62500D01*
G01*
X27797750Y-91367920D01*
G75*
G02*
X27735250Y-91430420I-62500J0D01*
G01*
X26985250Y-91430420D01*
G75*
G02*
X26922750Y-91367920I0J62500D01*
G01*
G37*
G36*
G01*
X26922750Y-91867920D02*
X26922750Y-91742920D01*
G75*
G02*
X26985250Y-91680420I62500J0D01*
G01*
X27735250Y-91680420D01*
G75*
G02*
X27797750Y-91742920I0J-62500D01*
G01*
X27797750Y-91867920D01*
G75*
G02*
X27735250Y-91930420I-62500J0D01*
G01*
X26985250Y-91930420D01*
G75*
G02*
X26922750Y-91867920I0J62500D01*
G01*
G37*
G36*
G01*
X26922750Y-92367920D02*
X26922750Y-92242920D01*
G75*
G02*
X26985250Y-92180420I62500J0D01*
G01*
X27735250Y-92180420D01*
G75*
G02*
X27797750Y-92242920I0J-62500D01*
G01*
X27797750Y-92367920D01*
G75*
G02*
X27735250Y-92430420I-62500J0D01*
G01*
X26985250Y-92430420D01*
G75*
G02*
X26922750Y-92367920I0J62500D01*
G01*
G37*
G36*
G01*
X26922750Y-92867920D02*
X26922750Y-92742920D01*
G75*
G02*
X26985250Y-92680420I62500J0D01*
G01*
X27735250Y-92680420D01*
G75*
G02*
X27797750Y-92742920I0J-62500D01*
G01*
X27797750Y-92867920D01*
G75*
G02*
X27735250Y-92930420I-62500J0D01*
G01*
X26985250Y-92930420D01*
G75*
G02*
X26922750Y-92867920I0J62500D01*
G01*
G37*
G36*
G01*
X26922750Y-93367920D02*
X26922750Y-93242920D01*
G75*
G02*
X26985250Y-93180420I62500J0D01*
G01*
X27735250Y-93180420D01*
G75*
G02*
X27797750Y-93242920I0J-62500D01*
G01*
X27797750Y-93367920D01*
G75*
G02*
X27735250Y-93430420I-62500J0D01*
G01*
X26985250Y-93430420D01*
G75*
G02*
X26922750Y-93367920I0J62500D01*
G01*
G37*
D25*
X18203850Y-44787500D03*
X18703850Y-44787500D03*
X19203850Y-44787500D03*
X17703850Y-44787500D03*
X19703850Y-44787500D03*
X17203850Y-44787500D03*
X20203850Y-44787500D03*
X16703850Y-44787500D03*
D26*
X16003850Y-44787500D03*
X20903850Y-44787500D03*
X15228850Y-44787500D03*
X21678850Y-44787500D03*
M02*
