0
SECTION
2
HEADER
9
$INSUNITS
70
4
9
$ACADVER
1
AC1014
9
$HANDSEED
5
FFFF
0
ENDSEC
0
SECTION
2
TABLES
0
TABLE
2
VPORT
5
8
100
AcDbSymbolTable
0
ENDTAB
0
TABLE
2
LTYPE
5
5
100
AcDbSymbolTable
0
LTYPE
5
14
100
AcDbSymbolTableRecord
100
AcDbLinetypeTableRecord
2
BYBLOCK
70
0
0
LTYPE
5
15
100
AcDbSymbolTableRecord
100
AcDbLinetypeTableRecord
2
BYLAYER
70
0
0
ENDTAB
0
TABLE
2
LAYER
5
2
100
AcDbSymbolTable
70
2
0
LAYER
5
50
100
AcDbSymbolTableRecord
100
AcDbLayerTableRecord
2
0
70
0
6
CONTINUOUS
0
ENDTAB
0
TABLE
2
STYLE
5
3
100
AcDbSymbolTable
70
1
0
STYLE
5
11
100
AcDbSymbolTableRecord
100
AcDbTextStyleTableRecord
2
STANDARD
70
0
0
ENDTAB
0
TABLE
2
VIEW
5
6
100
AcDbSymbolTable
70
0
0
ENDTAB
0
TABLE
2
UCS
5
7
100
AcDbSymbolTable
70
0
0
ENDTAB
0
TABLE
2
APPID
5
9
100
AcDbSymbolTable
70
2
0
APPID
5
12
100
AcDbSymbolTableRecord
100
AcDbRegAppTableRecord
2
ACAD
70
0
0
ENDTAB
0
TABLE
2
DIMSTYLE
5
A
100
AcDbSymbolTable
70
1
0
ENDTAB
0
TABLE
2
BLOCK_RECORD
5
1
100
AcDbSymbolTable
70
1
0
BLOCK_RECORD
5
1F
100
AcDbSymbolTableRecord
100
AcDbBlockTableRecord
2
*MODEL_SPACE
0
BLOCK_RECORD
5
1B
100
AcDbSymbolTableRecord
100
AcDbBlockTableRecord
2
*PAPER_SPACE
0
ENDTAB
0
ENDSEC
0
SECTION
2
BLOCKS
0
BLOCK
5
20
100
AcDbEntity
100
AcDbBlockBegin
2
*MODEL_SPACE
0
ENDBLK
5
21
100
AcDbEntity
100
AcDbBlockEnd
0
BLOCK
5
1C
100
AcDbEntity
100
AcDbBlockBegin
2
*PAPER_SPACE
0
ENDBLK
5
1D
100
AcDbEntity
100
AcDbBlockEnd
0
ENDSEC
0
SECTION
2
ENTITIES
0
LWPOLYLINE
5
100
100
AcDbEntity
8
0
100
AcDbPolyline
90
8
70
1
43
0.0
10
-283.22499800000003
20
-22.050000000000004
42
-0.41421356237312362
10
-282.72499900000003
20
-21.550001000000005
10
-269.72499900000003
20
-21.549999999999983
42
-0.41421356237310281
10
-269.22499900000003
20
-22.050000000000004
10
-269.22499900000003
20
-35.050000000000011
42
-0.41421356237304563
10
-269.72499900000003
20
-35.550000000000004
10
-282.72499900000003
20
-35.550000000000068
42
-0.41421356237306384
10
-283.22499900000003
20
-35.050000000000011
0
LWPOLYLINE
5
101
100
AcDbEntity
8
0
100
AcDbPolyline
90
8
70
1
43
0.0
10
-40.624999999999986
20
-92.200000000000017
10
-40.624999999999986
20
-79.200000000000003
42
0.41421356237307422
10
-41.125000000000028
20
-78.700000000000003
10
-54.125000000000021
20
-78.700000000000017
42
0.41421356237311063
10
-54.625000000000021
20
-79.200000000000003
10
-54.625000000000028
20
-92.200000000000017
42
0.41421356237309503
10
-54.125000000000021
20
-92.700000000000031
10
-41.125000000000028
20
-92.700000000000017
42
0.41421356237309503
0
LWPOLYLINE
5
102
100
AcDbEntity
8
0
100
AcDbPolyline
90
8
70
1
43
0.0
10
-64.936999999999998
20
-21.550000000000008
42
-0.41421356237309503
10
-64.436999999999998
20
-22.050000000000004
10
-64.436999999999998
20
-35.050000000000011
42
-0.41421356237309503
10
-64.936999999999998
20
-35.550000000000004
10
-77.937000000000012
20
-35.550000000000011
42
-0.41421356237309764
10
-78.437000000000012
20
-35.050000000000011
10
-78.436999000000014
20
-22.050000000000004
42
-0.41421356237309764
10
-77.937000000000012
20
-21.550001000000005
0
LWPOLYLINE
5
103
100
AcDbEntity
8
0
100
AcDbPolyline
90
8
70
1
43
0.0
10
-288.27499900000004
20
-73.15000000000002
10
-288.27499900000004
20
-60.150000000000006
42
0.41421356237310542
10
-288.77499900000004
20
-59.65000000000002
10
-301.77499900000004
20
-59.649999999999999
42
0.41421356237313667
10
-302.27499900000004
20
-60.150000000000006
10
-302.27499900000004
20
-73.15000000000002
42
0.41421356237313667
10
-301.77499900000004
20
-73.65000000000002
10
-288.77499899999998
20
-73.650000000000006
42
0.41421356237310542
0
LWPOLYLINE
5
104
100
AcDbEntity
8
0
100
AcDbPolyline
90
8
70
1
43
0.0
10
-264.17499900000001
20
-3.0000010000000077
10
-264.17499900000001
20
-16.000000999999983
42
0.41421356237306384
10
-263.67499899999996
20
-16.500001000000026
10
-250.67499900000001
20
-16.500001000000005
42
0.41421356237304691
10
-250.17499900000004
20
-16.000001000000005
10
-250.17499900000004
20
-3.0000010000000077
42
0.41421356237308299
10
-250.67499900000001
20
-2.5000010000000072
10
-263.67499899999996
20
-2.5000010000000072
42
0.41421356237309698
0
LWPOLYLINE
5
105
100
AcDbEntity
8
0
100
AcDbPolyline
90
8
70
1
43
0.0
10
-183.999999
20
-59.65000000000002
10
-196.999999
20
-59.65000000000002
42
0.41421356237298579
10
-197.49999900000006
20
-60.150000000000006
10
-197.49999900000003
20
-73.15000000000002
42
0.41421356237315227
10
-196.999999
20
-73.650000000000006
10
-183.999999
20
-73.650000000000006
42
0.41421356237307944
10
-183.499999
20
-73.15000000000002
10
-183.499999
20
-60.150000000000006
42
0.41421356237313667
0
LWPOLYLINE
5
106
100
AcDbEntity
8
0
100
AcDbPolyline
90
8
70
1
43
0.0
10
-103.03700000000001
20
-21.549999999999997
42
-0.41421356237307422
10
-102.53700000000001
20
-22.050000000000004
10
-102.53700000000002
20
-35.050000000000011
42
-0.41421356237310025
10
-103.03700000000001
20
-35.550000000000004
10
-116.03700000000002
20
-35.550000000000004
42
-0.41421356237309764
10
-116.53700000000001
20
-35.050000000000011
10
-116.53699900000001
20
-22.050000000000004
42
-0.41421356237309764
10
-116.03700000000002
20
-21.550001000000005
0
LWPOLYLINE
5
107
100
AcDbEntity
8
0
100
AcDbPolyline
90
14
70
1
43
0.0
10
-77.244
20
-2.5000010000000072
10
-113.25600000000001
20
-2.5000010000000072
42
0.41421356237306023
10
-113.756
20
-3.0000010000000077
10
-113.756
20
-16.762001000000005
42
0.41421356237310414
10
-113.25600000000001
20
-17.262001000000012
10
-101.94400000000002
20
-17.262001000000005
42
0.41421356237310675
10
-101.44400000000002
20
-16.762001000000005
10
-101.44400000000002
20
-16.500001000000005
10
-89.056000000000012
20
-16.500001000000005
10
-89.055999999999997
20
-16.762001000000005
42
0.41421356237310025
10
-88.556000000000012
20
-17.262001000000005
10
-77.244
20
-17.262001000000005
42
0.41421356237309631
10
-76.744
20
-16.762001000000005
10
-76.744
20
-3.0000010000000077
42
0.41421356237309764
0
LWPOLYLINE
5
108
100
AcDbEntity
8
0
100
AcDbPolyline
90
8
70
1
43
0.0
10
-164.44999899999999
20
-73.15000000000002
42
-0.41421356237312101
10
-164.94999900000005
20
-73.65000000000002
10
-177.94999899999999
20
-73.650000000000048
42
-0.4142135623730846
10
-178.44999899999999
20
-73.15000000000002
10
-178.44999900000005
20
-60.150000000000006
42
-0.41421356237312623
10
-177.94999899999999
20
-59.649999999999999
10
-164.94999900000005
20
-59.649999999999999
42
-0.41421356237307422
10
-164.44999900000005
20
-60.150000000000006
0
LWPOLYLINE
5
109
100
AcDbEntity
8
0
100
AcDbPolyline
90
8
70
1
43
0.0
10
-78.725000000000009
20
-92.200000000000017
42
-0.41421356237308982
10
-79.225000000000009
20
-92.700000000000031
10
-92.224999999999994
20
-92.700000000000031
42
-0.41421356237312623
10
-92.724999999999994
20
-92.200000000000017
10
-92.725000000000009
20
-79.200000000000003
42
-0.41421356237309503
10
-92.224999999999994
20
-78.700000000000003
10
-79.225000000000009
20
-78.700000000000017
42
-0.41421356237311063
10
-78.725000000000009
20
-79.200000000000003
0
LWPOLYLINE
5
110
100
AcDbEntity
8
0
100
AcDbPolyline
90
8
70
1
43
0.0
10
-178.73699899999997
20
-35.050000000000011
42
-0.41421356237311846
10
-179.23699900000003
20
-35.550000000000004
10
-192.236999
20
-35.550000000000004
42
-0.41421356237304563
10
-192.736999
20
-35.050000000000011
10
-192.73699800000003
20
-22.050000000000011
42
-0.41421356237312623
10
-192.236999
20
-21.550000999999984
10
-179.23699900000003
20
-21.549999999999997
42
-0.41421356237309764
10
-178.73699900000003
20
-22.050000000000011
0
LWPOLYLINE
5
111
100
AcDbEntity
8
0
100
AcDbPolyline
90
8
70
1
43
0.0
10
-141.136999
20
-21.550000000000008
10
-154.136999
20
-21.550001000000005
42
0.4142135623730846
10
-154.63699800000001
20
-22.050000000000011
10
-154.636999
20
-35.050000000000011
42
0.41421356237309243
10
-154.136999
20
-35.550000000000004
10
-141.136999
20
-35.550000000000004
42
0.4142135623730846
10
-140.636999
20
-35.050000000000011
10
-140.636999
20
-22.050000000000011
42
0.41421356237310542
0
LWPOLYLINE
5
112
100
AcDbEntity
8
0
100
AcDbPolyline
90
8
70
1
43
0.0
10
-169.21299900000002
20
-54.100000000000001
42
-0.41421356237310025
10
-169.71299899999994
20
-54.600000000000023
10
-182.71299900000002
20
-54.599999999999994
42
-0.41421356237312623
10
-183.21299900000002
20
-54.100000000000001
10
-183.212999
20
-41.100000000000009
42
-0.41421356237307422
10
-182.71299900000002
20
-40.600000000000023
10
-169.71299900000002
20
-40.600000000000037
42
-0.41421356237307422
10
-169.21299900000002
20
-41.100000000000009
0
LWPOLYLINE
5
113
100
AcDbEntity
8
0
100
AcDbPolyline
90
8
70
1
43
0.0
10
-207.81299899999999
20
-40.599999999999994
42
-0.41421356237307944
10
-207.31299900000005
20
-41.100000000000009
10
-207.31299900000008
20
-54.100000000000001
42
-0.41421356237304818
10
-207.81299899999999
20
-54.600000000000009
10
-220.81299900000002
20
-54.599999999999966
42
-0.41421356237315227
10
-221.31299900000002
20
-54.100000000000001
10
-221.31299900000002
20
-41.100000000000009
42
-0.41421356237304818
10
-220.81299900000002
20
-40.600000000000009
0
LWPOLYLINE
5
114
100
AcDbEntity
8
0
100
AcDbPolyline
90
8
70
1
43
0.0
10
-197.78699899999995
20
-35.050000000000011
42
-0.41421356237307683
10
-198.28699900000001
20
-35.550000000000004
10
-211.28699900000001
20
-35.550000000000068
42
-0.41421356237306384
10
-211.78699900000004
20
-35.050000000000011
10
-211.78699800000004
20
-22.050000000000004
42
-0.41421356237312362
10
-211.28699900000001
20
-21.550001000000005
10
-198.28699900000001
20
-21.550000000000004
42
-0.41421356237313406
10
-197.78699899999998
20
-22.050000000000004
0
LWPOLYLINE
5
115
100
AcDbEntity
8
0
100
AcDbPolyline
90
8
70
1
43
0.0
10
-83.487000000000009
20
-35.050000000000011
42
-0.41421356237310542
10
-83.987000000000023
20
-35.550000000000004
10
-96.987000000000009
20
-35.550000000000004
42
-0.41421356237309764
10
-97.486999999999995
20
-35.050000000000011
10
-97.486998999999997
20
-22.050000000000004
42
-0.41421356237309764
10
-96.987000000000009
20
-21.550001000000005
10
-83.987000000000023
20
-21.549999999999997
42
-0.41421356237309503
10
-83.487000000000009
20
-22.050000000000004
0
LWPOLYLINE
5
116
100
AcDbEntity
8
0
100
AcDbPolyline
90
8
70
1
43
0.0
10
-226.36299900000006
20
-54.100000000000001
42
-0.41421356237307944
10
-226.862999
20
-54.600000000000009
10
-239.86299900000003
20
-54.600000000000009
42
-0.41421356237313667
10
-240.36299900000003
20
-54.100000000000001
10
-240.36299900000003
20
-41.100000000000009
42
-0.41421356237315227
10
-239.86299900000003
20
-40.600000000000037
10
-226.862999
20
-40.600000000000009
42
-0.41421356237315748
10
-226.36299900000006
20
-41.100000000000009
0
LWPOLYLINE
5
117
100
AcDbEntity
8
0
100
AcDbPolyline
90
8
70
1
43
0.0
10
-245.12499899999997
20
-3.0000010000000077
42
-0.41421356237308299
10
-244.62499900000006
20
-2.5000010000000072
10
-193.52499900000001
20
-2.5000010000000095
42
-0.414213562373069
10
-193.02499900000004
20
-3.0000010000000077
10
-193.02499900000001
20
-16.000001000000008
42
-0.41421356237313406
10
-193.52499900000001
20
-16.500001000000019
10
-244.62499900000006
20
-16.500001000000026
42
-0.41421356237301699
10
-245.12499900000006
20
-16.000001000000008
0
LWPOLYLINE
5
118
100
AcDbEntity
8
0
100
AcDbPolyline
90
8
70
1
43
0.0
10
-202.26299900000001
20
-41.100000000000009
42
-0.41421356237315748
10
-201.76299900000001
20
-40.60000000000003
10
-188.76299899999998
20
-40.600000000000009
42
-0.41421356237307422
10
-188.26299900000004
20
-41.100000000000009
10
-188.26299900000006
20
-54.100000000000001
42
-0.41421356237304818
10
-188.76299899999998
20
-54.600000000000009
10
-201.76299900000001
20
-54.600000000000009
42
-0.41421356237313667
10
-202.26299900000001
20
-54.100000000000001
0
LWPOLYLINE
5
119
100
AcDbEntity
8
0
100
AcDbPolyline
90
39
70
1
43
0.0
10
-264.96199899999999
20
-59.650000000000027
42
-0.41421356237310025
10
-264.46199900000005
20
-60.150000000000006
10
-264.46199900000005
20
-73.15000000000002
42
-0.4142135623730846
10
-264.96199899999999
20
-73.650000000000006
10
-278.46199899999999
20
-73.650000000000006
10
-278.46199899999999
20
-73.224400000000017
10
-278.874999
20
-73.224400000000031
42
-0.41421356237310542
10
-279.374999
20
-72.724400000000017
10
-279.37499900000006
20
-66.199400000000011
42
-0.41421356237312101
10
-278.874999
20
-65.699400000000011
10
-278.46199899999999
20
-65.699400000000011
10
-278.46199899999999
20
-64.124000000000009
10
-280.34499900000003
20
-64.124000000000052
42
-0.4142135623730534
10
-280.84499900000003
20
-63.624000000000009
10
-280.84499900000003
20
-50.124000000000009
10
-280.41899899999999
20
-50.124000000000009
10
-280.41899900000004
20
-40.13000000000001
42
-0.41421356237312101
10
-279.91899899999999
20
-39.63000000000001
10
-273.39399900000001
20
-39.629999999999981
42
-0.41421356237310025
10
-272.89399900000001
20
-40.129999999999995
10
-272.89399900000001
20
-40.599000000000004
10
-255.74399900000003
20
-40.599000000000004
10
-255.74399900000003
20
-40.13000000000001
42
-0.41421356237313145
10
-255.24399900000003
20
-39.63000000000001
10
-248.71899900000003
20
-39.629999999999995
42
-0.41421356237307944
10
-248.218999
20
-40.13000000000001
10
-248.218999
20
-40.599000000000004
10
-245.91399899999999
20
-40.598999999999954
42
-0.41421356237305862
10
-245.41399900000002
20
-41.099000000000004
10
-245.41399899947004
20
-54.099024330689005
42
-0.41419989563798165
10
-245.91397599999999
20
-54.599024000000007
10
-248.218999
20
-54.599131000000014
10
-248.218999
20
-55.068000000000012
42
-0.41421356237312101
10
-248.71899900000003
20
-55.568000000000012
10
-255.24399900000003
20
-55.567999999999984
42
-0.41421356237315748
10
-255.74399900000003
20
-55.068000000000012
10
-255.74399900000003
20
-54.599482000000009
10
-266.84499900000003
20
-54.600000000000009
10
-266.84499900000003
20
-59.65000000000002
0
LWPOLYLINE
5
120
100
AcDbEntity
8
0
100
AcDbPolyline
90
8
70
1
43
0.0
10
-130.32499900000002
20
-92.700000000000031
10
-117.32500000000002
20
-92.700000000000031
42
0.41421356237309503
10
-116.82500000000002
20
-92.200000000000017
10
-116.82500000000002
20
-79.200000000000003
42
0.41421356237310542
10
-117.32500000000002
20
-78.700000000000017
10
-130.32499900000002
20
-78.700000000000031
42
0.4142135623730846
10
-130.82499899999999
20
-79.200000000000003
10
-130.82499900000002
20
-92.200000000000017
42
0.41421356237309503
0
LWPOLYLINE
5
121
100
AcDbEntity
8
0
100
AcDbPolyline
90
8
70
1
43
0.0
10
-126.34999900000003
20
-73.15000000000002
10
-126.35000000000002
20
-60.150000000000006
42
0.41421356237311063
10
-126.84999900000001
20
-59.650001000000017
10
-139.84999900000003
20
-59.65000000000002
42
0.41421356237311063
10
-140.349999
20
-60.150000000000006
10
-140.349999
20
-73.15000000000002
42
0.4142135623730846
10
-139.84999900000003
20
-73.650000000000006
10
-126.84999900000001
20
-73.650000000000006
42
0.41421356237310542
0
LWPOLYLINE
5
122
100
AcDbEntity
8
0
100
AcDbPolyline
90
8
70
1
43
0.0
10
-68.913000000000011
20
-41.100000000000009
10
-68.913000000000011
20
-54.100000000000001
42
0.41421356237311585
10
-68.413000000000011
20
-54.600000000000009
10
-55.413000000000004
20
-54.600000000000009
42
0.41421356237307944
10
-54.913000000000011
20
-54.100000000000001
10
-54.913000000000011
20
-41.100000000000009
42
0.41421356237309503
10
-55.413000000000004
20
-40.600000000000009
10
-68.413000000000011
20
-40.600000000000009
42
0.41421356237310025
0
LWPOLYLINE
5
123
100
AcDbEntity
8
0
100
AcDbPolyline
90
8
70
1
43
0.0
10
-135.874999
20
-92.200000000000045
10
-135.874999
20
-79.200000000000003
42
0.41421356237308982
10
-136.374999
20
-78.700000000000017
10
-149.374999
20
-78.700000000000017
42
0.41421356237307944
10
-149.874999
20
-79.200000000000003
10
-149.874999
20
-92.200000000000017
42
0.41421356237306384
10
-149.374999
20
-92.700000000000031
10
-136.374999
20
-92.700000000000031
42
0.41421356237309503
0
LWPOLYLINE
5
124
100
AcDbEntity
8
0
100
AcDbPolyline
90
8
70
1
43
0.0
10
-158.89999900000001
20
-73.650000000000006
42
-0.4142135623730846
10
-159.39999900000001
20
-73.150000000000034
10
-159.39999900000001
20
-60.150000000000006
42
-0.41421356237309503
10
-158.89999900000001
20
-59.65000000000002
10
-145.89999900000001
20
-59.65000000000002
42
-0.41421356237309503
10
-145.39999900000001
20
-60.150000000000006
10
-145.39999900000001
20
-73.15000000000002
42
-0.41421356237308982
10
-145.89999900000001
20
-73.650000000000006
0
LWPOLYLINE
5
125
100
AcDbEntity
8
0
100
AcDbPolyline
90
8
70
1
43
0.0
10
-245.124999
20
-79.200000000000003
42
-0.41421356237308982
10
-244.62499900000006
20
-78.700000000000045
10
-231.624999
20
-78.700000000000003
42
-0.41421356237315748
10
-231.12499900000003
20
-79.200000000000003
10
-231.12499900000003
20
-92.200000000000017
42
-0.4142135623730846
10
-231.624999
20
-92.700000000000031
10
-244.62499900000006
20
-92.700000000000045
42
-0.41421356237304302
10
-245.124999
20
-92.200000000000017
0
LWPOLYLINE
5
126
100
AcDbEntity
8
0
100
AcDbPolyline
90
8
70
1
43
0.0
10
-216.83699899999996
20
-35.050000000000011
42
-0.41421356237307683
10
-217.33699900000002
20
-35.550000000000004
10
-230.33699900000002
20
-35.550000000000026
42
-0.41421356237310025
10
-230.83699900000002
20
-35.050000000000011
10
-230.83699800000002
20
-22.050000000000011
42
-0.41421356237310281
10
-230.33699900000002
20
-21.550001000000005
10
-217.33699900000002
20
-21.550000000000018
42
-0.41421356237313406
10
-216.83699899999999
20
-22.050000000000022
0
LWPOLYLINE
5
127
100
AcDbEntity
8
0
100
AcDbPolyline
90
8
70
1
43
0.0
10
-126.06300000000002
20
-41.100000000000009
10
-126.06300000000002
20
-54.100000000000001
42
0.41421356237312101
10
-125.563
20
-54.600000000000009
10
-112.56300000000002
20
-54.600000000000009
42
0.41421356237307944
10
-112.063
20
-54.100000000000001
10
-112.063
20
-41.100000000000009
42
0.41421356237307944
10
-112.56300000000002
20
-40.600000000000009
10
-125.563
20
-40.600000000000023
42
0.41421356237310542
0
LWPOLYLINE
5
128
100
AcDbEntity
8
0
100
AcDbPolyline
90
8
70
1
43
0.0
10
-74.463000000000008
20
-40.600000000000009
10
-87.463000000000022
20
-40.600000000000009
42
0.41421356237310542
10
-87.963000000000008
20
-41.100000000000009
10
-87.963000000000008
20
-54.100000000000001
42
0.41421356237310542
10
-87.463000000000022
20
-54.600000000000009
10
-74.463000000000008
20
-54.600000000000009
42
0.41421356237311585
10
-73.962999999999994
20
-54.100000000000001
10
-73.962999999999994
20
-41.100000000000009
42
0.41421356237313145
0
LWPOLYLINE
5
129
100
AcDbEntity
8
0
100
AcDbPolyline
90
8
70
1
43
0.0
10
-173.974999
20
-92.200000000000017
10
-173.974999
20
-79.200000000000003
42
0.41421356237313145
10
-174.474999
20
-78.700000000000017
10
-187.47499900000003
20
-78.700000000000017
42
0.41421356237304818
10
-187.97499900000003
20
-79.200000000000003
10
-187.97499900000003
20
-92.200000000000017
42
0.41421356237310542
10
-187.47499900000003
20
-92.700000000000031
10
-174.474999
20
-92.700000000000031
42
0.41421356237313667
0
LWPOLYLINE
5
130
100
AcDbEntity
8
0
100
AcDbPolyline
90
17
70
1
43
0.0
10
-148.18099900000001
20
-16.762001000000005
42
-0.41421356237311585
10
-148.68099900000001
20
-17.262000999999998
10
-159.992999
20
-17.262000999999984
42
-0.4142135623730781
10
-160.492999
20
-16.762001000000005
10
-160.492999
20
-16.500001000000005
10
-172.88099900000003
20
-16.500001000000005
10
-172.88099899999997
20
-16.762001000000005
42
-0.41421356237312101
10
-173.38099900000003
20
-17.262001000000005
10
-184.69299900000004
20
-17.262001000000009
42
-0.41421356237307161
10
-185.19299899999999
20
-16.762001000000005
10
-185.19299899999996
20
-3.0000010000000077
42
-0.41421356237307877
10
-184.69299900000004
20
-2.5000010000000228
10
-119.70600000000002
20
-2.5000010000000028
42
-0.4142135623730937
10
-119.206
20
-3.0000010000000077
10
-119.206
20
-16.000001000000005
42
-0.4142135623730937
10
-119.70600000000002
20
-16.500001000000015
10
-148.18099900000001
20
-16.500001000000005
0
LWPOLYLINE
5
131
100
AcDbEntity
8
0
100
AcDbPolyline
90
8
70
1
43
0.0
10
-155.42499900000001
20
-78.700000000000017
10
-168.42499900000001
20
-78.700000000000003
42
0.41421356237312101
10
-168.92499900000001
20
-79.200000000000003
10
-168.92499900000001
20
-92.200000000000017
42
0.41421356237310542
10
-168.42499900000001
20
-92.700000000000031
10
-155.42499900000001
20
-92.700000000000017
42
0.41421356237312623
10
-154.92499900000001
20
-92.200000000000017
10
-154.92499900000001
20
-79.200000000000003
42
0.41421356237310025
0
LWPOLYLINE
5
132
100
AcDbEntity
8
0
100
AcDbPolyline
90
8
70
1
43
0.0
10
-163.66299900000001
20
-54.600000000000009
10
-150.66299900000001
20
-54.600000000000009
42
0.41421356237311063
10
-150.16299900000001
20
-54.100000000000001
10
-150.16299900000001
20
-41.100000000000009
42
0.41421356237310542
10
-150.66299900000001
20
-40.600000000000016
10
-163.66299900000001
20
-40.600000000000009
42
0.41421356237312623
10
-164.16299900000001
20
-41.100000000000009
10
-164.16299900000001
20
-54.100000000000001
42
0.41421356237312623
0
LWPOLYLINE
5
133
100
AcDbEntity
8
0
100
AcDbPolyline
90
8
70
1
43
0.0
10
-160.18699900000001
20
-21.550000000000008
42
-0.41421356237309243
10
-159.68699900000001
20
-22.050000000000011
10
-159.68699900000001
20
-35.050000000000011
42
-0.41421356237309243
10
-160.18699900000001
20
-35.550000000000004
10
-173.18699900000001
20
-35.550000000000004
42
-0.41421356237313145
10
-173.68699900000001
20
-35.050000000000011
10
-173.68699800000002
20
-22.050000000000011
42
-0.41421356237309764
10
-173.18699900000001
20
-21.550001000000005
0
LWPOLYLINE
5
134
100
AcDbEntity
8
0
100
AcDbPolyline
90
8
70
1
43
0.0
10
-107.01300000000001
20
-41.100000000000009
42
-0.41421356237309503
10
-106.51300000000001
20
-40.600000000000023
10
-93.513000000000019
20
-40.600000000000023
42
-0.41421356237310542
10
-93.013000000000005
20
-41.100000000000009
10
-93.013000000000005
20
-54.100000000000001
42
-0.41421356237310025
10
-93.513000000000019
20
-54.600000000000009
10
-106.51299999999999
20
-54.600000000000016
42
-0.41421356237311063
10
-107.01300000000001
20
-54.100000000000001
0
LWPOLYLINE
5
135
100
AcDbEntity
8
0
100
AcDbPolyline
90
8
70
1
43
0.0
10
-45.887000000000029
20
-21.550000000000004
42
-0.41421356237310281
10
-45.387000000000022
20
-22.050000000000004
10
-45.387000000000043
20
-35.050000000000011
42
-0.41421356237309764
10
-45.887000000000029
20
-35.550000000000004
10
-58.887000000000008
20
-35.550000000000004
42
-0.41421356237309503
10
-59.387000000000008
20
-35.050000000000011
10
-59.386999000000017
20
-22.050000000000004
42
-0.41421356237309243
10
-58.887000000000008
20
-21.550001000000005
0
LWPOLYLINE
5
136
100
AcDbEntity
8
0
100
AcDbPolyline
90
8
70
1
43
0.0
10
-49.863000000000028
20
-41.100000000000009
10
-49.863000000000028
20
-54.100000000000001
42
0.41421356237310542
10
-49.363000000000028
20
-54.600000000000001
10
-36.363
20
-54.600000000000009
42
0.41421356237311585
10
-35.863000000000014
20
-54.100000000000001
10
-35.863000000000014
20
-41.100000000000009
42
0.41421356237310025
10
-36.363
20
-40.599999999999994
10
-49.363000000000028
20
-40.600000000000009
42
0.41421356237311585
0
LWPOLYLINE
5
137
100
AcDbEntity
8
0
100
AcDbPolyline
90
8
70
1
43
0.0
10
-145.112999
20
-41.100000000000009
42
-0.41421356237310542
10
-144.612999
20
-40.600000000000023
10
-131.61299900000003
20
-40.599999999999994
42
-0.41421356237307944
10
-131.112999
20
-41.100000000000009
10
-131.11299900000003
20
-54.100000000000001
42
-0.41421356237307944
10
-131.612999
20
-54.600000000000009
10
-144.612999
20
-54.600000000000016
42
-0.41421356237312101
10
-145.112999
20
-54.100000000000001
0
LWPOLYLINE
5
138
100
AcDbEntity
8
0
100
AcDbPolyline
90
8
70
1
43
0.0
10
-23.168792000000007
20
-54.599991999936023
42
-0.41421824867237911
10
-23.668800000000015
20
-54.099992000000007
10
-23.668800000063975
20
-41.099992000000007
42
-0.41420887608936391
10
-23.168807999999999
20
-40.599992000000015
10
-5.4062079999999924
20
-40.599708000064005
42
-0.41421824867235441
10
-4.9062000000000001
20
-41.099708000000007
10
-4.9061999999359704
20
-54.099708000000021
42
-0.41420887608935159
10
-5.4061920000000008
20
-54.599708000000021
0
LWPOLYLINE
5
139
100
AcDbEntity
8
0
100
AcDbPolyline
90
8
70
1
43
0.0
10
-302.27499900000004
20
-41.100000000000009
10
-302.27499900000004
20
-54.100000000000001
42
0.41421356237310542
10
-301.77499900000004
20
-54.600000000000023
10
-288.77499900000004
20
-54.600000000000009
42
0.41421356237311063
10
-288.27499900000004
20
-54.100000000000001
10
-288.27499900000004
20
-41.100000000000009
42
0.41421356237315748
10
-288.77499900000004
20
-40.600000000000023
10
-301.77499900000004
20
-40.600000000000009
42
0.4142135623730846
0
LWPOLYLINE
5
140
100
AcDbEntity
8
0
100
AcDbPolyline
90
8
70
1
43
0.0
10
-49.863000000000028
20
-3.0000010000000077
10
-49.863000000000028
20
-16.000001000000008
42
0.41421356237310414
10
-49.363000000000028
20
-16.500001000000005
10
-29.219000000000008
20
-16.500000999999997
42
0.41421356237310153
10
-28.719000000000001
20
-16.000001000000005
10
-28.719000000000001
20
-3.0000010000000077
42
0.41421356237309115
10
-29.219000000000008
20
-2.5000010000000006
10
-49.363000000000028
20
-2.5000010000000072
42
0.41421356237309764
0
LWPOLYLINE
5
141
100
AcDbEntity
8
0
100
AcDbPolyline
90
8
70
1
43
0.0
10
-21.287500000000001
20
-60.150000000000006
10
-21.287500000000001
20
-73.15000000000002
42
0.41421356237308982
10
-20.787499999999994
20
-73.65000000000002
10
-7.7874999999999872
20
-73.65000000000002
42
0.41421356237306772
10
-7.2874999999999979
20
-73.15000000000002
10
-7.2874999999999979
20
-60.150000000000006
42
0.41421356237304102
10
-7.787500000000005
20
-59.65000000000002
10
-20.787499999999994
20
-59.65000000000002
42
0.41421356237310542
0
LWPOLYLINE
5
142
100
AcDbEntity
8
0
100
AcDbPolyline
90
8
70
1
43
0.0
10
-135.58699800000002
20
-22.050000000000004
42
-0.4142135623730846
10
-135.08699899999999
20
-21.550001000000016
10
-122.087
20
-21.550000000000008
42
-0.41421356237309243
10
-121.58699999999999
20
-22.050000000000011
10
-121.58700000000002
20
-35.050000000000011
42
-0.41421356237311324
10
-122.087
20
-35.549999999999997
10
-135.08699899999999
20
-35.549999999999997
42
-0.41421356237310542
10
-135.58699899999999
20
-35.050000000000011
0
LWPOLYLINE
5
143
100
AcDbEntity
8
0
100
AcDbPolyline
90
8
70
1
43
0.0
10
-288.27499899999998
20
-92.200000000000017
10
-288.27499900000004
20
-79.200000000000003
42
0.41421356237313145
10
-288.77499900000004
20
-78.700000000000017
10
-301.77499900000004
20
-78.700000000000017
42
0.41421356237310542
10
-302.27499900000004
20
-79.200000000000003
10
-302.27499900000004
20
-92.200000000000017
42
0.41421356237310542
10
-301.77499900000004
20
-92.700000000000031
10
-288.77499900000004
20
-92.700000000000031
42
0.4142135623730846
0
LWPOLYLINE
5
144
100
AcDbEntity
8
0
100
AcDbPolyline
90
18
70
1
43
0.0
10
-275.77499900000004
20
-77.730000000000004
10
-282.29999900000001
20
-77.730000000000018
42
0.41421356237307944
10
-282.79999900000001
20
-78.230000000000018
10
-282.79999900000001
20
-78.700000000000017
10
-283.22499900000003
20
-78.700000000000017
10
-283.22499900000003
20
-92.200000000000017
42
0.41421356237306384
10
-282.72499900000008
20
-92.700000000000045
10
-250.67499900000001
20
-92.700000000000031
42
0.41421356237316787
10
-250.17499900000004
20
-92.200000000000017
10
-250.17499900000004
20
-78.700000000000017
10
-250.59999900000003
20
-78.700000000000017
10
-250.59999900000003
20
-78.230000000000018
42
0.4142135623730534
10
-251.09999899999997
20
-77.730000000000004
10
-257.624999
20
-77.730000000000018
42
0.41421356237303258
10
-258.124999
20
-78.230000000000018
10
-258.124999
20
-78.700000000000017
10
-275.27499900000004
20
-78.700000000000017
10
-275.27499900000004
20
-78.230000000000018
42
0.41421356237311585
0
LWPOLYLINE
5
145
100
AcDbEntity
8
0
100
AcDbPolyline
90
8
70
1
43
0.0
10
-269.72499900000003
20
-2.5000009999999886
42
-0.4142135623731022
10
-269.22499900000003
20
-3.0000010000000077
10
-269.22499900000003
20
-16.000001000000008
42
-0.41421356237304563
10
-269.72499900000003
20
-16.500001000000005
10
-282.72499900000003
20
-16.500001000000019
42
-0.41421356237307683
10
-283.22499900000003
20
-16.000001000000008
10
-283.22499900000003
20
-3.0000010000000077
42
-0.41421356237309698
10
-282.72499900000003
20
-2.5000010000000072
0
LWPOLYLINE
5
146
100
AcDbEntity
8
0
100
AcDbPolyline
90
8
70
1
43
0.0
10
-288.27499899999998
20
-16.000000000000007
42
-0.41421356237312362
10
-288.77499900000004
20
-16.500000000000007
10
-301.77499900000004
20
-16.500000000000007
42
-0.41421356237313406
10
-302.27499900000004
20
-16.000000000000007
10
-302.27499799999998
20
-3.0000000000000071
42
-0.41421356237307067
10
-301.77499900000004
20
-2.5000010000000072
10
-288.77499900000004
20
-2.4999999999999889
42
-0.41421356237310153
10
-288.27499900000004
20
-3.0000000000000071
0
LWPOLYLINE
5
147
100
AcDbEntity
8
0
100
AcDbPolyline
90
11
70
1
43
0.0
10
-52.530999999999999
20
-16.000001000000005
42
-0.41421356237311713
10
-53.031000000000006
20
-16.500001000000001
10
-61.930065000000013
20
-16.500001000000005
10
-61.930065000000013
20
-16.762001000000005
42
-0.4142135623730937
10
-62.430065000000006
20
-17.262001000000005
10
-68.413000000000011
20
-17.262001000000005
42
-0.41421356237309631
10
-68.912999999999997
20
-16.762001000000005
10
-68.912999999999997
20
-3.0000010000000077
42
-0.41421356237309764
10
-68.413000000000011
20
-2.5000010000000072
10
-53.031000000000006
20
-2.5000010000000081
42
-0.41421356237310086
10
-52.530999999999999
20
-3.0000010000000077
0
LWPOLYLINE
5
148
100
AcDbEntity
8
0
100
AcDbPolyline
90
8
70
1
43
0.0
10
-31.600000000000001
20
-59.65000000000002
10
-44.600000000000009
20
-59.650000000000027
42
0.41421356237313145
10
-45.099999999999994
20
-60.150000000000006
10
-45.099999999999994
20
-73.15000000000002
42
0.41421356237305862
10
-44.600000000000009
20
-73.65000000000002
10
-31.600000000000001
20
-73.650000000000006
42
0.41421356237312362
10
-31.100000000000012
20
-73.15000000000002
10
-31.100000000000012
20
-60.150000000000006
42
0.4142135623730534
0
LWPOLYLINE
5
149
100
AcDbEntity
8
0
100
AcDbPolyline
90
8
70
1
43
0.0
10
-35.075000000000003
20
-92.700000000000031
42
-0.41421356237308721
10
-35.574999999999989
20
-92.200000000000017
10
-35.574999999999989
20
-79.200000000000017
42
-0.41421356237312362
10
-35.075000000000003
20
-78.700000000000017
10
-22.074999999999996
20
-78.700000000000003
42
-0.41421356237309503
10
-21.574999999999989
20
-79.200000000000003
10
-21.574999999999992
20
-92.200000000000017
42
-0.41421356237309243
10
-22.074999999999996
20
-92.700000000000031
0
LWPOLYLINE
5
150
100
AcDbEntity
8
0
100
AcDbPolyline
90
20
70
1
43
0.0
10
-40.336999000000006
20
-22.050000000000004
42
-0.41421356237309503
10
-39.837000000000003
20
-21.550001000000005
10
-37.530999999999977
20
-21.550001000000005
10
-37.531000000000013
20
-21.08000100000001
42
-0.41421356237310025
10
-37.031000000000006
20
-20.580001000000006
10
-30.506000000000011
20
-20.580001000000003
42
-0.41421356237308982
10
-30.006000000000004
20
-21.08000100000001
10
-30.006000000000004
20
-21.550001000000005
10
-12.856000000000005
20
-21.550001000000005
10
-12.855999999999984
20
-21.08000100000001
42
-0.41421356237309503
10
-12.35599999999998
20
-20.580001000000006
10
-5.8309999999999995
20
-20.580001000000003
42
-0.41421356237309048
10
-5.3309999999999924
20
-21.08000100000001
10
-5.3309999999999746
20
-21.550001000000005
10
-4.7870000000000168
20
-21.550000000000011
42
-0.41421356237311452
10
-4.2869999999999919
20
-22.050000000000004
10
-4.2869999999999822
20
-35.050000000000011
42
-0.4142135623730957
10
-4.7869999999999813
20
-35.550000000000004
10
-39.837000000000003
20
-35.550000000000033
42
-0.41421356237309503
10
-40.337000000000032
20
-35.050000000000011
0
LWPOLYLINE
5
151
100
AcDbEntity
8
0
100
AcDbPolyline
90
8
70
1
43
0.0
10
-288.27499899999998
20
-35.050000000000011
10
-288.27499900000004
20
-22.04999999999999
42
0.41421356237312623
10
-288.77499900000004
20
-21.550000000000008
10
-301.77499899999998
20
-21.550001000000005
42
0.41421356237309764
10
-302.27499799999998
20
-22.050000000000011
10
-302.27499900000004
20
-35.050000000000011
42
0.41421356237313928
10
-301.77499900000004
20
-35.550000000000026
10
-288.77499900000004
20
-35.550000000000004
42
0.41421356237310802
0
LWPOLYLINE
5
152
100
AcDbEntity
8
0
100
AcDbPolyline
90
8
70
1
43
0.0
10
-2.5249999999999773
20
-92.200000000000017
10
-2.5249999999999773
20
-79.200000000000003
42
0.41421356237311618
10
-3.0250000000000021
20
-78.700000000000017
10
-16.024999999999991
20
-78.700000000000017
42
0.41421356237311713
10
-16.524999999999981
20
-79.200000000000003
10
-16.524999999999981
20
-92.200000000000017
42
0.41421356237314444
10
-16.024999999999991
20
-92.700000000000031
10
-3.0250000000000021
20
-92.700000000000031
42
0.41421356237307388
0
LWPOLYLINE
5
153
100
AcDbEntity
8
0
100
AcDbPolyline
90
8
70
1
43
0.0
10
-202.54999900000004
20
-73.15000000000002
10
-202.54999900000004
20
-60.150000000000006
42
0.41421356237311063
10
-203.04999900000007
20
-59.65000000000002
10
-216.04999900000001
20
-59.649999999999999
42
0.41421356237304818
10
-216.54999900000001
20
-60.150000000000006
10
-216.54999900000001
20
-73.15000000000002
42
0.41421356237304818
10
-216.04999900000001
20
-73.65000000000002
10
-203.04999900000007
20
-73.650000000000034
42
0.41421356237312101
0
LWPOLYLINE
5
154
100
AcDbEntity
8
0
100
AcDbPolyline
90
8
70
1
43
0.0
10
-5.4059999999999775
20
-2.5000010000000006
10
-20.788000000000011
20
-2.5000010000000072
42
0.41421356237310347
10
-21.288000000000018
20
-3.0000010000000077
10
-21.288000000000018
20
-16.000001000000008
42
0.41421356237309892
10
-20.788000000000011
20
-16.500001000000015
10
-5.4059999999999775
20
-16.500001000000005
42
0.4142135623731204
10
-4.9059999999999881
20
-16.000001000000005
10
-4.905999999999981
20
-3.0000010000000077
42
0.41421356237310253
0
LWPOLYLINE
5
155
100
AcDbEntity
8
0
100
AcDbPolyline
90
8
70
1
43
0.0
10
-193.02499900000001
20
-92.200000000000017
10
-193.02499900000001
20
-79.200000000000003
42
0.41421356237313145
10
-193.52499900000001
20
-78.700000000000017
10
-206.52499900000004
20
-78.700000000000017
42
0.41421356237304302
10
-207.02499899999998
20
-79.200000000000003
10
-207.02499899999998
20
-92.200000000000017
42
0.41421356237309503
10
-206.52499900000004
20
-92.699999999999989
10
-193.52499900000001
20
-92.700000000000031
42
0.41421356237313667
0
LWPOLYLINE
5
156
100
AcDbEntity
8
0
100
AcDbPolyline
90
8
70
1
43
0.0
10
-120.80000000000001
20
-73.650000000000006
10
-107.80000000000001
20
-73.65000000000002
42
0.41421356237309503
10
-107.30000000000001
20
-73.15000000000002
10
-107.30000000000003
20
-60.150000000000006
42
0.41421356237311063
10
-107.80000000000001
20
-59.65000000000002
10
-120.80000000000001
20
-59.65000000000002
42
0.41421356237311063
10
-121.30000000000001
20
-60.150000000000006
10
-121.30000000000001
20
-73.15000000000002
42
0.41421356237311585
0
LWPOLYLINE
5
157
100
AcDbEntity
8
0
100
AcDbPolyline
90
8
70
1
43
0.0
10
-101.75
20
-73.650000000000006
10
-88.75
20
-73.650000000000006
42
0.4142135623730846
10
-88.250000000000014
20
-73.15000000000002
10
-88.250000000000014
20
-60.150000000000006
42
0.41421356237311063
10
-88.75
20
-59.65000000000002
10
-101.75
20
-59.65000000000002
42
0.41421356237311063
10
-102.25
20
-60.150000000000006
10
-102.25
20
-73.150000000000034
42
0.414213562373069
0
LWPOLYLINE
5
158
100
AcDbEntity
8
0
100
AcDbPolyline
90
8
70
1
43
0.0
10
-111.27500000000001
20
-92.700000000000031
10
-98.275000000000006
20
-92.700000000000031
42
0.41421356237309503
10
-97.775000000000006
20
-92.200000000000017
10
-97.775000000000006
20
-79.200000000000003
42
0.41421356237308982
10
-98.275000000000006
20
-78.700000000000017
10
-111.27500000000001
20
-78.700000000000017
42
0.41421356237311585
10
-111.77500000000001
20
-79.200000000000003
10
-111.77500000000001
20
-92.200000000000017
42
0.41421356237312623
0
LWPOLYLINE
5
159
100
AcDbEntity
8
0
100
AcDbPolyline
90
8
70
1
43
0.0
10
-254.64999900000004
20
-60.150000000000006
10
-254.64999900000004
20
-73.15000000000002
42
0.41421356237315748
10
-254.14999900000001
20
-73.649999999999991
10
-241.14999900000001
20
-73.650000000000006
42
0.4142135623730846
10
-240.64999900000004
20
-73.15000000000002
10
-240.64999900000001
20
-60.150000000000006
42
0.41421356237312623
10
-241.14999900000001
20
-59.65000000000002
10
-254.14999900000001
20
-59.65000000000002
42
0.41421356237307944
0
LWPOLYLINE
5
160
100
AcDbEntity
8
0
100
AcDbPolyline
90
8
70
1
43
0.0
10
-73.674999999999997
20
-79.200000000000003
42
-0.4142135623730846
10
-73.175000000000011
20
-78.700000000000017
10
-60.175000000000011
20
-78.700000000000017
42
-0.41421356237311063
10
-59.675000000000011
20
-79.200000000000003
10
-59.675000000000004
20
-92.200000000000017
42
-0.41421356237309503
10
-60.175000000000011
20
-92.700000000000031
10
-73.175000000000011
20
-92.700000000000031
42
-0.4142135623730846
10
-73.674999999999997
20
-92.200000000000017
0
LWPOLYLINE
5
161
100
AcDbEntity
8
0
100
AcDbPolyline
90
8
70
1
43
0.0
10
-257.03099800000007
20
-22.050000000000004
42
-0.41421356237312362
10
-256.53099900000001
20
-21.550001000000005
10
-243.53099900000004
20
-21.549999999999947
42
-0.41421356237306123
10
-243.03099900000001
20
-22.050000000000004
10
-243.03099900000004
20
-35.050000000000011
42
-0.41421356237304563
10
-243.53099900000004
20
-35.550000000000004
10
-256.53099900000001
20
-35.550000000000068
42
-0.41421356237306384
10
-257.03099900000007
20
-35.050000000000011
0
LWPOLYLINE
5
162
100
AcDbEntity
8
0
100
AcDbPolyline
90
8
70
1
43
0.0
10
-63.650000000000013
20
-73.650000000000006
42
-0.41421356237311063
10
-64.150000000000006
20
-73.15000000000002
10
-64.15000000000002
20
-60.150000000000006
42
-0.41421356237307422
10
-63.650000000000013
20
-59.65000000000002
10
-50.650000000000006
20
-59.65000000000002
42
-0.41421356237311063
10
-50.150000000000006
20
-60.150000000000006
10
-50.150000000000006
20
-73.15000000000002
42
-0.41421356237311063
10
-50.650000000000006
20
-73.650000000000006
0
LWPOLYLINE
5
163
100
AcDbEntity
8
0
100
AcDbPolyline
90
8
70
1
43
0.0
10
-69.200000000000003
20
-73.15000000000002
10
-69.200000000000003
20
-60.150000000000006
42
0.41421356237307422
10
-69.700000000000003
20
-59.65000000000002
10
-82.699999999999989
20
-59.65000000000002
42
0.41421356237310542
10
-83.200000000000003
20
-60.150000000000006
10
-83.200000000000003
20
-73.15000000000002
42
0.41421356237310542
10
-82.699999999999989
20
-73.650000000000006
10
-69.700000000000003
20
-73.650000000000006
42
0.41421356237311063
0
LWPOLYLINE
5
164
100
AcDbEntity
8
0
100
AcDbPolyline
90
8
70
1
43
0.0
10
-212.07499900000002
20
-92.200000000000017
42
-0.4142135623730846
10
-212.57499899999999
20
-92.700000000000031
10
-225.57499900000005
20
-92.700000000000045
42
-0.41421356237316787
10
-226.07499899999999
20
-92.200000000000017
10
-226.07499899999996
20
-79.200000000000003
42
-0.41421356237307422
10
-225.57499900000005
20
-78.700000000000031
10
-212.57499899999999
20
-78.700000000000003
42
-0.41421356237315748
10
-212.07499900000002
20
-79.200000000000003
0
LWPOLYLINE
5
165
100
AcDbEntity
8
0
100
AcDbPolyline
90
8
70
1
43
0.0
10
-235.59999900000003
20
-60.150000000000006
42
-0.41421356237310025
10
-235.09999900000003
20
-59.650000000000034
10
-222.099999
20
-59.650000000000006
42
-0.414213562373069
10
-221.59999900000003
20
-60.150000000000006
10
-221.59999900000003
20
-73.15000000000002
42
-0.41421356237306384
10
-222.099999
20
-73.650000000000006
10
-235.09999900000003
20
-73.650000000000063
42
-0.41421356237304818
10
-235.59999900000003
20
-73.15000000000002
0
LWPOLYLINE
5
166
100
AcDbEntity
8
0
100
AcDbPolyline
90
72
70
1
43
0.0
10
-25.699999999999996
20
5.0249999999999773
10
-25.699999999999996
20
1.0249999999999915
42
0.41421356237309503
10
-24.699999999999992
20
0.024999999999990585
10
-1.0000000000000007
20
0.024999999999998634
42
-0.41421356237309515
10
0
20
-0.97500000000000142
10
0
20
-15.599999999999987
42
0.41421356237309531
10
1.0000000000000009
20
-16.599999999999987
10
4.9999999999999787
20
-16.59999999999998
42
-0.4142135623730947
10
5.9999999999999787
20
-17.59999999999998
10
6.0000000000000124
20
-77.59999999999998
42
-0.41421356237309553
10
4.9999999999999964
20
-78.599999999999994
10
1.0000000000000002
20
-78.599999999999994
42
0.41421356237309509
10
-1.4155343563970747e-14
20
-79.600000000000009
10
1.1379786002407855e-14
20
-94.224999999999994
42
-0.41421356237309842
10
-1.0000000000000142
20
-95.225000000000009
10
-24.699999999999989
20
-95.225000000000009
42
0.41421356237309764
10
-25.699999999999974
20
-96.224999999999994
10
-25.699999999999982
20
-100.22499999999997
42
-0.41421356237309631
10
-26.699999999999999
20
-101.22499999999999
10
-86.699999999999989
20
-101.22500000000002
42
-0.41421356237309503
10
-87.699999999999989
20
-100.22500000000001
10
-87.699999999999989
20
-96.224999999999994
42
0.41421356237310025
10
-88.700000000000017
20
-95.224999999999994
10
-120.40000000000003
20
-95.225000000000009
42
0.41421356237309503
10
-121.40000000000001
20
-96.224999999999994
10
-121.40000000000002
20
-100.22499999999997
42
-0.41421356237311063
10
-122.40000000000002
20
-101.22499999999999
10
-182.40000000000003
20
-101.22499999999999
42
-0.4142135623730846
10
-183.40000000000003
20
-100.22500000000001
10
-183.40000000000003
20
-96.224999999999994
42
0.41421356237309503
10
-184.40000000000003
20
-95.224999999999966
10
-216.09999999999997
20
-95.225000000000009
42
0.41421356237309503
10
-217.09999999999994
20
-96.224999999999994
10
-217.09999999999997
20
-100.22499999999997
42
-0.41421356237307422
10
-218.09999999999999
20
-101.22499999999999
10
-278.09999999999997
20
-101.22499999999999
42
-0.4142135623730846
10
-279.09999999999997
20
-100.22500000000001
10
-279.09999999999997
20
-96.224999999999994
42
0.41421356237309503
10
-280.09999999999997
20
-95.224999999999966
10
-303.80000000000001
20
-95.225000000000009
42
-0.41421356237307422
10
-304.80000000000001
20
-94.224999999999994
10
-304.80000000000001
20
-79.600000000000009
42
0.41421356237309503
10
-305.80000000000001
20
-78.599999999999994
10
-309.79999999999995
20
-78.600000000000065
42
-0.4142135623730846
10
-310.79999999999995
20
-77.59999999999998
10
-310.79999999999995
20
-17.59999999999998
42
-0.41421356237307422
10
-309.79999999999995
20
-16.599999999999966
10
-305.80000000000007
20
-16.599999999999966
42
0.41421356237309503
10
-304.80000000000007
20
-15.599999999999987
10
-304.80000000000001
20
-0.97500000000000142
42
-0.41421356237307422
10
-303.80000000000001
20
0.02500000000001279
10
-280.09999999999997
20
0.02500000000001279
42
0.41421356237309503
10
-279.10000000000002
20
1.0249999999999915
10
-279.10000000000002
20
5.0249999999999773
42
-0.41421356237310542
10
-278.09999999999997
20
6.0249999999999915
10
-218.09999999999999
20
6.0249999999999915
42
-0.41421356237307422
10
-217.09999999999997
20
5.0249999999999773
10
-217.09999999999997
20
1.0249999999999917
42
0.41421356237309509
10
-216.09999999999997
20
0.024999999999977263
10
-184.40000000000003
20
0.02500000000001279
42
0.41421356237309503
10
-183.40000000000006
20
1.0249999999999915
10
-183.40000000000006
20
5.0249999999999773
42
-0.41421356237310542
10
-182.40000000000003
20
6.0249999999999915
10
-122.40000000000002
20
6.0250000000000092
42
-0.41421356237310542
10
-121.40000000000002
20
5.0249999999999773
10
-121.40000000000002
20
1.0249999999999917
42
0.41421356237309509
10
-120.40000000000003
20
0.024999999999995026
10
-88.700000000000017
20
0.02500000000001279
42
0.41421356237309503
10
-87.700000000000031
20
1.0249999999999915
10
-87.700000000000017
20
5.0249999999999773
42
-0.41421356237309503
10
-86.700000000000003
20
6.0249999999999915
10
-26.699999999999989
20
6.0249999999999782
42
-0.4142135623730937
0
ENDSEC
0
SECTION
2
OBJECTS
0
DICTIONARY
5
C
100
AcDbDictionary
3
ACAD_GROUP
350
D
3
ACAD_MLINESTYLE
350
17
0
DICTIONARY
5
D
100
AcDbDictionary
0
DICTIONARY
5
1A
330
C
100
AcDbDictionary
0
DICTIONARY
5
17
100
AcDbDictionary
0
ENDSEC
0
EOF
