  0
SECTION
  2
HEADER
  9
$ANGBASE
  50
0.0
  9
$ANGDIR
  70
1
  9
$MEASUREMENT
  70
1
  0
ENDSEC
  0
SECTION
  2
TABLES
  0
TABLE
  2
LTYPE
  70
4
  0
LTYPE
  5
40F
  2
CONTINUOUS
  70
0
  3
Solid line
  72
65
  73
0
  40
0.0
  0
LTYPE
  5
410
  2
DASHDOT
 70
0
  3
Dash Dot ____ _ ____ _
 72
65
 73
4
 40
2.0
 49
1.25
 49
-0.25
 49
0.25
 49
-0.25
  0
LTYPE
  5
411
  2
DASHED
 70
0
  3
Dashed __ __ __ __ __
 72
65
 73
2
 40
0.75
 49
0.5
 49
-0.25
  0
LTYPE
  5
43B
  2
DOTTED
 70
0
  3
Dotted .  .  .  .
 72
65
 73
2
 40
0.2
 49
0.0
 49
-0.2
  0
ENDTAB
  0
TABLE
  2
STYLE
  70
4
  0
STYLE
  2
KICAD
  70
0
  40
0
  41
1
  42
1
  50
0
  71
0
  3
isocp.shx
  0
STYLE
  2
KICADB
  70
0
  40
0
  41
1
  42
1
  50
0
  71
0
  3
isocp.shx
  0
STYLE
  2
KICADI
  70
0
  40
0
  41
1
  42
1
  50
15
  71
0
  3
isocp.shx
  0
STYLE
  2
KICADBI
  70
0
  40
0
  41
1
  42
1
  50
15
  71
0
  3
isocp.shx
  0
ENDTAB
  0
TABLE
  2
LAYER
  70
1
  0
LAYER
  2
BLACK
  70
0
  62
7
  6
CONTINUOUS
  0
ENDTAB
  0
ENDSEC
  0
SECTION
  2
ENTITIES
0
ARC
8
BLACK
10
12.675
20
-95.4595
40
3.2345
50
13.1254
51
166.875
0
LINE
8
BLACK
6
CONTINUOUS
10
96.325
20
-94.725
11
15.825
21
-94.725
0
LINE
8
BLACK
6
CONTINUOUS
10
183.125
20
-94.725
11
102.625
21
-94.725
0
ARC
8
BLACK
10
186.275
20
-95.4595
40
3.2345
50
13.1254
51
166.875
0
LINE
8
BLACK
6
CONTINUOUS
10
102.625
20
-0.525008
11
183.125
21
-0.525008
0
ARC
8
BLACK
10
273.075
20
0.209492
40
3.23472
50
-166.875
51
-13.1245
0
LINE
8
BLACK
6
CONTINUOUS
10
0.525008
20
-2.52501
11
0.525008
21
-92.725
0
ARC
8
BLACK
10
10.675
20
0.209492
40
3.2345
50
-166.875
51
-13.1254
0
ARC
8
BLACK
10
283.225
20
-2.52501
40
2
50
-0
51
90
0
LINE
8
BLACK
6
CONTINUOUS
10
269.925
20
-94.725
11
189.425
21
-94.725
0
ARC
8
BLACK
10
273.075
20
-95.4595
40
3.2345
50
13.1254
51
166.875
0
ARC
8
BLACK
10
283.225
20
-92.725
40
2
50
-90
51
-0
0
LINE
8
BLACK
6
CONTINUOUS
10
283.225
20
-94.725
11
276.225
21
-94.725
0
LINE
8
BLACK
6
CONTINUOUS
10
285.225
20
-92.725
11
285.225
21
-2.52501
0
ARC
8
BLACK
10
2.52501
20
-92.725
40
2
50
180
51
270
0
ARC
8
BLACK
10
99.475
20
-95.4595
40
3.2345
50
13.1254
51
166.875
0
LINE
8
BLACK
6
CONTINUOUS
10
9.52501
20
-94.725
11
2.52501
21
-94.725
0
ARC
8
BLACK
10
186.275
20
0.209491
40
3.2345
50
-166.875
51
-13.1254
0
LINE
8
BLACK
6
CONTINUOUS
10
189.425
20
-0.52501
11
269.925
21
-0.525059
0
LINE
8
BLACK
6
CONTINUOUS
10
276.225
20
-0.525009
11
283.225
21
-0.52501
0
ARC
8
BLACK
10
2.52501
20
-2.52501
40
2
50
90
51
180
0
ARC
8
BLACK
10
99.475
20
0.209492
40
3.2345
50
-166.875
51
-13.1254
0
LINE
8
BLACK
6
CONTINUOUS
10
2.52501
20
-0.525008
11
7.52501
21
-0.525008
0
LINE
8
BLACK
6
CONTINUOUS
10
13.825
20
-0.525008
11
96.325
21
-0.525008
0
LINE
8
BLACK
6
CONTINUOUS
10
4.9657
20
-6.2357
11
6.4643
21
-7.7343
0
LINE
8
BLACK
6
CONTINUOUS
10
6.4643
20
-6.2357
11
4.9657
21
-7.7343
0
LINE
8
BLACK
6
CONTINUOUS
10
11.3157
20
-3.6957
11
12.8143
21
-5.1943
0
LINE
8
BLACK
6
CONTINUOUS
10
12.8143
20
-3.6957
11
11.3157
21
-5.1943
0
CIRCLE
8
BLACK
10
4.445
20
-9.525
40
0.8509
0
CIRCLE
8
BLACK
10
14.605
20
-9.525
40
0.8509
0
LINE
8
BLACK
6
CONTINUOUS
10
9.525
20
-7.5311
11
9.525
21
-11.5189
0
LINE
8
BLACK
6
CONTINUOUS
10
7.5311
20
-9.525
11
11.5189
21
-9.525
0
LINE
8
BLACK
6
CONTINUOUS
10
2.9512
20
-97.9798
11
2.9512
21
-95.9798
0
LINE
8
BLACK
6
CONTINUOUS
10
2.9512
20
-95.9798
11
3.42739
21
-95.9798
0
LINE
8
BLACK
6
CONTINUOUS
10
3.42739
20
-95.9798
11
3.7131
21
-96.075
0
LINE
8
BLACK
6
CONTINUOUS
10
3.7131
20
-96.075
11
3.90358
21
-96.2655
0
LINE
8
BLACK
6
CONTINUOUS
10
3.90358
20
-96.2655
11
3.99882
21
-96.456
0
LINE
8
BLACK
6
CONTINUOUS
10
3.99882
20
-96.456
11
4.09405
21
-96.8369
0
LINE
8
BLACK
6
CONTINUOUS
10
4.09405
20
-96.8369
11
4.09405
21
-97.1226
0
LINE
8
BLACK
6
CONTINUOUS
10
4.09405
20
-97.1226
11
3.99882
21
-97.5036
0
LINE
8
BLACK
6
CONTINUOUS
10
3.99882
20
-97.5036
11
3.90358
21
-97.6941
0
LINE
8
BLACK
6
CONTINUOUS
10
3.90358
20
-97.6941
11
3.7131
21
-97.8845
0
LINE
8
BLACK
6
CONTINUOUS
10
3.7131
20
-97.8845
11
3.42739
21
-97.9798
0
LINE
8
BLACK
6
CONTINUOUS
10
3.42739
20
-97.9798
11
2.9512
21
-97.9798
0
LINE
8
BLACK
6
CONTINUOUS
10
4.9512
20
-97.9798
11
4.9512
21
-96.6464
0
LINE
8
BLACK
6
CONTINUOUS
10
4.9512
20
-97.0274
11
5.04644
21
-96.8369
0
LINE
8
BLACK
6
CONTINUOUS
10
5.04644
20
-96.8369
11
5.14167
21
-96.7417
0
LINE
8
BLACK
6
CONTINUOUS
10
5.14167
20
-96.7417
11
5.33215
21
-96.6464
0
LINE
8
BLACK
6
CONTINUOUS
10
5.33215
20
-96.6464
11
5.52263
21
-96.6464
0
LINE
8
BLACK
6
CONTINUOUS
10
6.18929
20
-97.9798
11
6.18929
21
-96.6464
0
LINE
8
BLACK
6
CONTINUOUS
10
6.18929
20
-95.9798
11
6.09405
21
-96.075
0
LINE
8
BLACK
6
CONTINUOUS
10
6.09405
20
-96.075
11
6.18929
21
-96.1702
0
LINE
8
BLACK
6
CONTINUOUS
10
6.18929
20
-96.1702
11
6.28453
21
-96.075
0
LINE
8
BLACK
6
CONTINUOUS
10
6.28453
20
-96.075
11
6.18929
21
-95.9798
0
LINE
8
BLACK
6
CONTINUOUS
10
6.18929
20
-95.9798
11
6.18929
21
-96.1702
0
LINE
8
BLACK
6
CONTINUOUS
10
7.42739
20
-97.9798
11
7.23691
21
-97.8845
0
LINE
8
BLACK
6
CONTINUOUS
10
7.23691
20
-97.8845
11
7.14167
21
-97.6941
0
LINE
8
BLACK
6
CONTINUOUS
10
7.14167
20
-97.6941
11
7.14167
21
-95.9798
0
LINE
8
BLACK
6
CONTINUOUS
10
8.47501
20
-97.9798
11
8.28453
21
-97.8845
0
LINE
8
BLACK
6
CONTINUOUS
10
8.28453
20
-97.8845
11
8.18929
21
-97.6941
0
LINE
8
BLACK
6
CONTINUOUS
10
8.18929
20
-97.6941
11
8.18929
21
-95.9798
0
LINE
8
BLACK
6
CONTINUOUS
10
10.7607
20
-97.9798
11
10.7607
21
-95.9798
0
LINE
8
BLACK
6
CONTINUOUS
10
10.7607
20
-95.9798
11
11.4274
21
-97.4083
0
LINE
8
BLACK
6
CONTINUOUS
10
11.4274
20
-97.4083
11
12.0941
21
-95.9798
0
LINE
8
BLACK
6
CONTINUOUS
10
12.0941
20
-95.9798
11
12.0941
21
-97.9798
0
LINE
8
BLACK
6
CONTINUOUS
10
13.9036
20
-97.9798
11
13.9036
21
-96.9321
0
LINE
8
BLACK
6
CONTINUOUS
10
13.9036
20
-96.9321
11
13.8083
21
-96.7417
0
LINE
8
BLACK
6
CONTINUOUS
10
13.8083
20
-96.7417
11
13.6179
21
-96.6464
0
LINE
8
BLACK
6
CONTINUOUS
10
13.6179
20
-96.6464
11
13.2369
21
-96.6464
0
LINE
8
BLACK
6
CONTINUOUS
10
13.2369
20
-96.6464
11
13.0464
21
-96.7417
0
LINE
8
BLACK
6
CONTINUOUS
10
13.9036
20
-97.8845
11
13.7131
21
-97.9798
0
LINE
8
BLACK
6
CONTINUOUS
10
13.7131
20
-97.9798
11
13.2369
21
-97.9798
0
LINE
8
BLACK
6
CONTINUOUS
10
13.2369
20
-97.9798
11
13.0464
21
-97.8845
0
LINE
8
BLACK
6
CONTINUOUS
10
13.0464
20
-97.8845
11
12.9512
21
-97.6941
0
LINE
8
BLACK
6
CONTINUOUS
10
12.9512
20
-97.6941
11
12.9512
21
-97.5036
0
LINE
8
BLACK
6
CONTINUOUS
10
12.9512
20
-97.5036
11
13.0464
21
-97.3131
0
LINE
8
BLACK
6
CONTINUOUS
10
13.0464
20
-97.3131
11
13.2369
21
-97.2179
0
LINE
8
BLACK
6
CONTINUOUS
10
13.2369
20
-97.2179
11
13.7131
21
-97.2179
0
LINE
8
BLACK
6
CONTINUOUS
10
13.7131
20
-97.2179
11
13.9036
21
-97.1226
0
LINE
8
BLACK
6
CONTINUOUS
10
14.856
20
-96.6464
11
14.856
21
-98.6464
0
LINE
8
BLACK
6
CONTINUOUS
10
14.856
20
-96.7417
11
15.0464
21
-96.6464
0
LINE
8
BLACK
6
CONTINUOUS
10
15.0464
20
-96.6464
11
15.4274
21
-96.6464
0
LINE
8
BLACK
6
CONTINUOUS
10
15.4274
20
-96.6464
11
15.6179
21
-96.7417
0
LINE
8
BLACK
6
CONTINUOUS
10
15.6179
20
-96.7417
11
15.7131
21
-96.8369
0
LINE
8
BLACK
6
CONTINUOUS
10
15.7131
20
-96.8369
11
15.8083
21
-97.0274
0
LINE
8
BLACK
6
CONTINUOUS
10
15.8083
20
-97.0274
11
15.8083
21
-97.5988
0
LINE
8
BLACK
6
CONTINUOUS
10
15.8083
20
-97.5988
11
15.7131
21
-97.7893
0
LINE
8
BLACK
6
CONTINUOUS
10
15.7131
20
-97.7893
11
15.6179
21
-97.8845
0
LINE
8
BLACK
6
CONTINUOUS
10
15.6179
20
-97.8845
11
15.4274
21
-97.9798
0
LINE
8
BLACK
6
CONTINUOUS
10
15.4274
20
-97.9798
11
15.0464
21
-97.9798
0
LINE
8
BLACK
6
CONTINUOUS
10
15.0464
20
-97.9798
11
14.856
21
-97.8845
0
LINE
8
BLACK
6
CONTINUOUS
10
16.6655
20
-97.7893
11
16.7607
21
-97.8845
0
LINE
8
BLACK
6
CONTINUOUS
10
16.7607
20
-97.8845
11
16.6655
21
-97.9798
0
LINE
8
BLACK
6
CONTINUOUS
10
16.6655
20
-97.9798
11
16.5702
21
-97.8845
0
LINE
8
BLACK
6
CONTINUOUS
10
16.5702
20
-97.8845
11
16.6655
21
-97.7893
0
LINE
8
BLACK
6
CONTINUOUS
10
16.6655
20
-97.7893
11
16.6655
21
-97.9798
0
LINE
8
BLACK
6
CONTINUOUS
10
16.6655
20
-96.7417
11
16.7607
21
-96.8369
0
LINE
8
BLACK
6
CONTINUOUS
10
16.7607
20
-96.8369
11
16.6655
21
-96.9321
0
LINE
8
BLACK
6
CONTINUOUS
10
16.6655
20
-96.9321
11
16.5702
21
-96.8369
0
LINE
8
BLACK
6
CONTINUOUS
10
16.5702
20
-96.8369
11
16.6655
21
-96.7417
0
LINE
8
BLACK
6
CONTINUOUS
10
16.6655
20
-96.7417
11
16.6655
21
-96.9321
0
LINE
8
BLACK
6
CONTINUOUS
10
-1.12359
20
-100.526
11
0.375008
21
-102.024
0
LINE
8
BLACK
6
CONTINUOUS
10
0.375008
20
-100.526
11
-1.12359
21
-102.024
0
LINE
8
BLACK
6
CONTINUOUS
10
3.99882
20
-102.18
11
2.85596
21
-102.18
0
LINE
8
BLACK
6
CONTINUOUS
10
3.42739
20
-102.18
11
3.42739
21
-100.18
0
LINE
8
BLACK
6
CONTINUOUS
10
3.42739
20
-100.18
11
3.23691
21
-100.465
0
LINE
8
BLACK
6
CONTINUOUS
10
3.23691
20
-100.465
11
3.04644
21
-100.656
0
LINE
8
BLACK
6
CONTINUOUS
10
3.04644
20
-100.656
11
2.85596
21
-100.751
0
LINE
8
BLACK
6
CONTINUOUS
10
4.85596
20
-101.989
11
4.9512
21
-102.085
0
LINE
8
BLACK
6
CONTINUOUS
10
4.9512
20
-102.085
11
4.85596
21
-102.18
0
LINE
8
BLACK
6
CONTINUOUS
10
4.85596
20
-102.18
11
4.76072
21
-102.085
0
LINE
8
BLACK
6
CONTINUOUS
10
4.76072
20
-102.085
11
4.85596
21
-101.989
0
LINE
8
BLACK
6
CONTINUOUS
10
4.85596
20
-101.989
11
4.85596
21
-102.18
0
LINE
8
BLACK
6
CONTINUOUS
10
6.66548
20
-100.846
11
6.66548
21
-102.18
0
LINE
8
BLACK
6
CONTINUOUS
10
6.18929
20
-100.085
11
5.7131
21
-101.513
0
LINE
8
BLACK
6
CONTINUOUS
10
5.7131
20
-101.513
11
6.9512
21
-101.513
0
LINE
8
BLACK
6
CONTINUOUS
10
7.80834
20
-102.18
11
8.18929
21
-102.18
0
LINE
8
BLACK
6
CONTINUOUS
10
8.18929
20
-102.18
11
8.37977
21
-102.085
0
LINE
8
BLACK
6
CONTINUOUS
10
8.37977
20
-102.085
11
8.47501
21
-101.989
0
LINE
8
BLACK
6
CONTINUOUS
10
8.47501
20
-101.989
11
8.66548
21
-101.704
0
LINE
8
BLACK
6
CONTINUOUS
10
8.66548
20
-101.704
11
8.76072
21
-101.323
0
LINE
8
BLACK
6
CONTINUOUS
10
8.76072
20
-101.323
11
8.76072
21
-100.561
0
LINE
8
BLACK
6
CONTINUOUS
10
8.76072
20
-100.561
11
8.66548
21
-100.37
0
LINE
8
BLACK
6
CONTINUOUS
10
8.66548
20
-100.37
11
8.57025
21
-100.275
0
LINE
8
BLACK
6
CONTINUOUS
10
8.57025
20
-100.275
11
8.37977
21
-100.18
0
LINE
8
BLACK
6
CONTINUOUS
10
8.37977
20
-100.18
11
7.99882
21
-100.18
0
LINE
8
BLACK
6
CONTINUOUS
10
7.99882
20
-100.18
11
7.80834
21
-100.275
0
LINE
8
BLACK
6
CONTINUOUS
10
7.80834
20
-100.275
11
7.7131
21
-100.37
0
LINE
8
BLACK
6
CONTINUOUS
10
7.7131
20
-100.37
11
7.61786
21
-100.561
0
LINE
8
BLACK
6
CONTINUOUS
10
7.61786
20
-100.561
11
7.61786
21
-101.037
0
LINE
8
BLACK
6
CONTINUOUS
10
7.61786
20
-101.037
11
7.7131
21
-101.227
0
LINE
8
BLACK
6
CONTINUOUS
10
7.7131
20
-101.227
11
7.80834
21
-101.323
0
LINE
8
BLACK
6
CONTINUOUS
10
7.80834
20
-101.323
11
7.99882
21
-101.418
0
LINE
8
BLACK
6
CONTINUOUS
10
7.99882
20
-101.418
11
8.37977
21
-101.418
0
LINE
8
BLACK
6
CONTINUOUS
10
8.37977
20
-101.418
11
8.57025
21
-101.323
0
LINE
8
BLACK
6
CONTINUOUS
10
8.57025
20
-101.323
11
8.66548
21
-101.227
0
LINE
8
BLACK
6
CONTINUOUS
10
8.66548
20
-101.227
11
8.76072
21
-101.037
0
LINE
8
BLACK
6
CONTINUOUS
10
9.7131
20
-102.18
11
10.0941
21
-102.18
0
LINE
8
BLACK
6
CONTINUOUS
10
10.0941
20
-102.18
11
10.2845
21
-102.085
0
LINE
8
BLACK
6
CONTINUOUS
10
10.2845
20
-102.085
11
10.3798
21
-101.989
0
LINE
8
BLACK
6
CONTINUOUS
10
10.3798
20
-101.989
11
10.5702
21
-101.704
0
LINE
8
BLACK
6
CONTINUOUS
10
10.5702
20
-101.704
11
10.6655
21
-101.323
0
LINE
8
BLACK
6
CONTINUOUS
10
10.6655
20
-101.323
11
10.6655
21
-100.561
0
LINE
8
BLACK
6
CONTINUOUS
10
10.6655
20
-100.561
11
10.5702
21
-100.37
0
LINE
8
BLACK
6
CONTINUOUS
10
10.5702
20
-100.37
11
10.475
21
-100.275
0
LINE
8
BLACK
6
CONTINUOUS
10
10.475
20
-100.275
11
10.2845
21
-100.18
0
LINE
8
BLACK
6
CONTINUOUS
10
10.2845
20
-100.18
11
9.90358
21
-100.18
0
LINE
8
BLACK
6
CONTINUOUS
10
9.90358
20
-100.18
11
9.7131
21
-100.275
0
LINE
8
BLACK
6
CONTINUOUS
10
9.7131
20
-100.275
11
9.61787
21
-100.37
0
LINE
8
BLACK
6
CONTINUOUS
10
9.61787
20
-100.37
11
9.52263
21
-100.561
0
LINE
8
BLACK
6
CONTINUOUS
10
9.52263
20
-100.561
11
9.52263
21
-101.037
0
LINE
8
BLACK
6
CONTINUOUS
10
9.52263
20
-101.037
11
9.61787
21
-101.227
0
LINE
8
BLACK
6
CONTINUOUS
10
9.61787
20
-101.227
11
9.7131
21
-101.323
0
LINE
8
BLACK
6
CONTINUOUS
10
9.7131
20
-101.323
11
9.90358
21
-101.418
0
LINE
8
BLACK
6
CONTINUOUS
10
9.90358
20
-101.418
11
10.2845
21
-101.418
0
LINE
8
BLACK
6
CONTINUOUS
10
10.2845
20
-101.418
11
10.475
21
-101.323
0
LINE
8
BLACK
6
CONTINUOUS
10
10.475
20
-101.323
11
10.5702
21
-101.227
0
LINE
8
BLACK
6
CONTINUOUS
10
10.5702
20
-101.227
11
10.6655
21
-101.037
0
LINE
8
BLACK
6
CONTINUOUS
10
11.5226
20
-102.18
11
11.5226
21
-100.846
0
LINE
8
BLACK
6
CONTINUOUS
10
11.5226
20
-101.037
11
11.6179
21
-100.942
0
LINE
8
BLACK
6
CONTINUOUS
10
11.6179
20
-100.942
11
11.8083
21
-100.846
0
LINE
8
BLACK
6
CONTINUOUS
10
11.8083
20
-100.846
11
12.0941
21
-100.846
0
LINE
8
BLACK
6
CONTINUOUS
10
12.0941
20
-100.846
11
12.2845
21
-100.942
0
LINE
8
BLACK
6
CONTINUOUS
10
12.2845
20
-100.942
11
12.3798
21
-101.132
0
LINE
8
BLACK
6
CONTINUOUS
10
12.3798
20
-101.132
11
12.3798
21
-102.18
0
LINE
8
BLACK
6
CONTINUOUS
10
12.3798
20
-101.132
11
12.475
21
-100.942
0
LINE
8
BLACK
6
CONTINUOUS
10
12.475
20
-100.942
11
12.6655
21
-100.846
0
LINE
8
BLACK
6
CONTINUOUS
10
12.6655
20
-100.846
11
12.9512
21
-100.846
0
LINE
8
BLACK
6
CONTINUOUS
10
12.9512
20
-100.846
11
13.1417
21
-100.942
0
LINE
8
BLACK
6
CONTINUOUS
10
13.1417
20
-100.942
11
13.2369
21
-101.132
0
LINE
8
BLACK
6
CONTINUOUS
10
13.2369
20
-101.132
11
13.2369
21
-102.18
0
LINE
8
BLACK
6
CONTINUOUS
10
14.1893
20
-102.18
11
14.1893
21
-100.846
0
LINE
8
BLACK
6
CONTINUOUS
10
14.1893
20
-101.037
11
14.2845
21
-100.942
0
LINE
8
BLACK
6
CONTINUOUS
10
14.2845
20
-100.942
11
14.475
21
-100.846
0
LINE
8
BLACK
6
CONTINUOUS
10
14.475
20
-100.846
11
14.7607
21
-100.846
0
LINE
8
BLACK
6
CONTINUOUS
10
14.7607
20
-100.846
11
14.9512
21
-100.942
0
LINE
8
BLACK
6
CONTINUOUS
10
14.9512
20
-100.942
11
15.0464
21
-101.132
0
LINE
8
BLACK
6
CONTINUOUS
10
15.0464
20
-101.132
11
15.0464
21
-102.18
0
LINE
8
BLACK
6
CONTINUOUS
10
15.0464
20
-101.132
11
15.1417
21
-100.942
0
LINE
8
BLACK
6
CONTINUOUS
10
15.1417
20
-100.942
11
15.3321
21
-100.846
0
LINE
8
BLACK
6
CONTINUOUS
10
15.3321
20
-100.846
11
15.6179
21
-100.846
0
LINE
8
BLACK
6
CONTINUOUS
10
15.6179
20
-100.846
11
15.8083
21
-100.942
0
LINE
8
BLACK
6
CONTINUOUS
10
15.8083
20
-100.942
11
15.9036
21
-101.132
0
LINE
8
BLACK
6
CONTINUOUS
10
15.9036
20
-101.132
11
15.9036
21
-102.18
0
LINE
8
BLACK
6
CONTINUOUS
10
19.8083
20
-100.085
11
18.0941
21
-102.656
0
LINE
8
BLACK
6
CONTINUOUS
10
22.3798
20
-100.18
11
22.5702
21
-100.18
0
LINE
8
BLACK
6
CONTINUOUS
10
22.5702
20
-100.18
11
22.7607
21
-100.275
0
LINE
8
BLACK
6
CONTINUOUS
10
22.7607
20
-100.275
11
22.856
21
-100.37
0
LINE
8
BLACK
6
CONTINUOUS
10
22.856
20
-100.37
11
22.9512
21
-100.561
0
LINE
8
BLACK
6
CONTINUOUS
10
22.9512
20
-100.561
11
23.0464
21
-100.942
0
LINE
8
BLACK
6
CONTINUOUS
10
23.0464
20
-100.942
11
23.0464
21
-101.418
0
LINE
8
BLACK
6
CONTINUOUS
10
23.0464
20
-101.418
11
22.9512
21
-101.799
0
LINE
8
BLACK
6
CONTINUOUS
10
22.9512
20
-101.799
11
22.856
21
-101.989
0
LINE
8
BLACK
6
CONTINUOUS
10
22.856
20
-101.989
11
22.7607
21
-102.085
0
LINE
8
BLACK
6
CONTINUOUS
10
22.7607
20
-102.085
11
22.5702
21
-102.18
0
LINE
8
BLACK
6
CONTINUOUS
10
22.5702
20
-102.18
11
22.3798
21
-102.18
0
LINE
8
BLACK
6
CONTINUOUS
10
22.3798
20
-102.18
11
22.1893
21
-102.085
0
LINE
8
BLACK
6
CONTINUOUS
10
22.1893
20
-102.085
11
22.0941
21
-101.989
0
LINE
8
BLACK
6
CONTINUOUS
10
22.0941
20
-101.989
11
21.9988
21
-101.799
0
LINE
8
BLACK
6
CONTINUOUS
10
21.9988
20
-101.799
11
21.9036
21
-101.418
0
LINE
8
BLACK
6
CONTINUOUS
10
21.9036
20
-101.418
11
21.9036
21
-100.942
0
LINE
8
BLACK
6
CONTINUOUS
10
21.9036
20
-100.942
11
21.9988
21
-100.561
0
LINE
8
BLACK
6
CONTINUOUS
10
21.9988
20
-100.561
11
22.0941
21
-100.37
0
LINE
8
BLACK
6
CONTINUOUS
10
22.0941
20
-100.37
11
22.1893
21
-100.275
0
LINE
8
BLACK
6
CONTINUOUS
10
22.1893
20
-100.275
11
22.3798
21
-100.18
0
LINE
8
BLACK
6
CONTINUOUS
10
23.9036
20
-101.989
11
23.9988
21
-102.085
0
LINE
8
BLACK
6
CONTINUOUS
10
23.9988
20
-102.085
11
23.9036
21
-102.18
0
LINE
8
BLACK
6
CONTINUOUS
10
23.9036
20
-102.18
11
23.8083
21
-102.085
0
LINE
8
BLACK
6
CONTINUOUS
10
23.8083
20
-102.085
11
23.9036
21
-101.989
0
LINE
8
BLACK
6
CONTINUOUS
10
23.9036
20
-101.989
11
23.9036
21
-102.18
0
LINE
8
BLACK
6
CONTINUOUS
10
25.2369
20
-100.18
11
25.4274
21
-100.18
0
LINE
8
BLACK
6
CONTINUOUS
10
25.4274
20
-100.18
11
25.6179
21
-100.275
0
LINE
8
BLACK
6
CONTINUOUS
10
25.6179
20
-100.275
11
25.7131
21
-100.37
0
LINE
8
BLACK
6
CONTINUOUS
10
25.7131
20
-100.37
11
25.8083
21
-100.561
0
LINE
8
BLACK
6
CONTINUOUS
10
25.8083
20
-100.561
11
25.9036
21
-100.942
0
LINE
8
BLACK
6
CONTINUOUS
10
25.9036
20
-100.942
11
25.9036
21
-101.418
0
LINE
8
BLACK
6
CONTINUOUS
10
25.9036
20
-101.418
11
25.8083
21
-101.799
0
LINE
8
BLACK
6
CONTINUOUS
10
25.8083
20
-101.799
11
25.7131
21
-101.989
0
LINE
8
BLACK
6
CONTINUOUS
10
25.7131
20
-101.989
11
25.6179
21
-102.085
0
LINE
8
BLACK
6
CONTINUOUS
10
25.6179
20
-102.085
11
25.4274
21
-102.18
0
LINE
8
BLACK
6
CONTINUOUS
10
25.4274
20
-102.18
11
25.2369
21
-102.18
0
LINE
8
BLACK
6
CONTINUOUS
10
25.2369
20
-102.18
11
25.0464
21
-102.085
0
LINE
8
BLACK
6
CONTINUOUS
10
25.0464
20
-102.085
11
24.9512
21
-101.989
0
LINE
8
BLACK
6
CONTINUOUS
10
24.9512
20
-101.989
11
24.856
21
-101.799
0
LINE
8
BLACK
6
CONTINUOUS
10
24.856
20
-101.799
11
24.7607
21
-101.418
0
LINE
8
BLACK
6
CONTINUOUS
10
24.7607
20
-101.418
11
24.7607
21
-100.942
0
LINE
8
BLACK
6
CONTINUOUS
10
24.7607
20
-100.942
11
24.856
21
-100.561
0
LINE
8
BLACK
6
CONTINUOUS
10
24.856
20
-100.561
11
24.9512
21
-100.37
0
LINE
8
BLACK
6
CONTINUOUS
10
24.9512
20
-100.37
11
25.0464
21
-100.275
0
LINE
8
BLACK
6
CONTINUOUS
10
25.0464
20
-100.275
11
25.2369
21
-100.18
0
LINE
8
BLACK
6
CONTINUOUS
10
27.7131
20
-100.18
11
26.7607
21
-100.18
0
LINE
8
BLACK
6
CONTINUOUS
10
26.7607
20
-100.18
11
26.6655
21
-101.132
0
LINE
8
BLACK
6
CONTINUOUS
10
26.6655
20
-101.132
11
26.7607
21
-101.037
0
LINE
8
BLACK
6
CONTINUOUS
10
26.7607
20
-101.037
11
26.9512
21
-100.942
0
LINE
8
BLACK
6
CONTINUOUS
10
26.9512
20
-100.942
11
27.4274
21
-100.942
0
LINE
8
BLACK
6
CONTINUOUS
10
27.4274
20
-100.942
11
27.6179
21
-101.037
0
LINE
8
BLACK
6
CONTINUOUS
10
27.6179
20
-101.037
11
27.7131
21
-101.132
0
LINE
8
BLACK
6
CONTINUOUS
10
27.7131
20
-101.132
11
27.8083
21
-101.323
0
LINE
8
BLACK
6
CONTINUOUS
10
27.8083
20
-101.323
11
27.8083
21
-101.799
0
LINE
8
BLACK
6
CONTINUOUS
10
27.8083
20
-101.799
11
27.7131
21
-101.989
0
LINE
8
BLACK
6
CONTINUOUS
10
27.7131
20
-101.989
11
27.6179
21
-102.085
0
LINE
8
BLACK
6
CONTINUOUS
10
27.6179
20
-102.085
11
27.4274
21
-102.18
0
LINE
8
BLACK
6
CONTINUOUS
10
27.4274
20
-102.18
11
26.9512
21
-102.18
0
LINE
8
BLACK
6
CONTINUOUS
10
26.9512
20
-102.18
11
26.7607
21
-102.085
0
LINE
8
BLACK
6
CONTINUOUS
10
26.7607
20
-102.085
11
26.6655
21
-101.989
0
LINE
8
BLACK
6
CONTINUOUS
10
28.7607
20
-102.18
11
29.1417
21
-102.18
0
LINE
8
BLACK
6
CONTINUOUS
10
29.1417
20
-102.18
11
29.3321
21
-102.085
0
LINE
8
BLACK
6
CONTINUOUS
10
29.3321
20
-102.085
11
29.4274
21
-101.989
0
LINE
8
BLACK
6
CONTINUOUS
10
29.4274
20
-101.989
11
29.6179
21
-101.704
0
LINE
8
BLACK
6
CONTINUOUS
10
29.6179
20
-101.704
11
29.7131
21
-101.323
0
LINE
8
BLACK
6
CONTINUOUS
10
29.7131
20
-101.323
11
29.7131
21
-100.561
0
LINE
8
BLACK
6
CONTINUOUS
10
29.7131
20
-100.561
11
29.6179
21
-100.37
0
LINE
8
BLACK
6
CONTINUOUS
10
29.6179
20
-100.37
11
29.5226
21
-100.275
0
LINE
8
BLACK
6
CONTINUOUS
10
29.5226
20
-100.275
11
29.3321
21
-100.18
0
LINE
8
BLACK
6
CONTINUOUS
10
29.3321
20
-100.18
11
28.9512
21
-100.18
0
LINE
8
BLACK
6
CONTINUOUS
10
28.9512
20
-100.18
11
28.7607
21
-100.275
0
LINE
8
BLACK
6
CONTINUOUS
10
28.7607
20
-100.275
11
28.6655
21
-100.37
0
LINE
8
BLACK
6
CONTINUOUS
10
28.6655
20
-100.37
11
28.5702
21
-100.561
0
LINE
8
BLACK
6
CONTINUOUS
10
28.5702
20
-100.561
11
28.5702
21
-101.037
0
LINE
8
BLACK
6
CONTINUOUS
10
28.5702
20
-101.037
11
28.6655
21
-101.227
0
LINE
8
BLACK
6
CONTINUOUS
10
28.6655
20
-101.227
11
28.7607
21
-101.323
0
LINE
8
BLACK
6
CONTINUOUS
10
28.7607
20
-101.323
11
28.9512
21
-101.418
0
LINE
8
BLACK
6
CONTINUOUS
10
28.9512
20
-101.418
11
29.3321
21
-101.418
0
LINE
8
BLACK
6
CONTINUOUS
10
29.3321
20
-101.418
11
29.5226
21
-101.323
0
LINE
8
BLACK
6
CONTINUOUS
10
29.5226
20
-101.323
11
29.6179
21
-101.227
0
LINE
8
BLACK
6
CONTINUOUS
10
29.6179
20
-101.227
11
29.7131
21
-101.037
0
LINE
8
BLACK
6
CONTINUOUS
10
30.9512
20
-100.18
11
31.1417
21
-100.18
0
LINE
8
BLACK
6
CONTINUOUS
10
31.1417
20
-100.18
11
31.3321
21
-100.275
0
LINE
8
BLACK
6
CONTINUOUS
10
31.3321
20
-100.275
11
31.4274
21
-100.37
0
LINE
8
BLACK
6
CONTINUOUS
10
31.4274
20
-100.37
11
31.5226
21
-100.561
0
LINE
8
BLACK
6
CONTINUOUS
10
31.5226
20
-100.561
11
31.6179
21
-100.942
0
LINE
8
BLACK
6
CONTINUOUS
10
31.6179
20
-100.942
11
31.6179
21
-101.418
0
LINE
8
BLACK
6
CONTINUOUS
10
31.6179
20
-101.418
11
31.5226
21
-101.799
0
LINE
8
BLACK
6
CONTINUOUS
10
31.5226
20
-101.799
11
31.4274
21
-101.989
0
LINE
8
BLACK
6
CONTINUOUS
10
31.4274
20
-101.989
11
31.3321
21
-102.085
0
LINE
8
BLACK
6
CONTINUOUS
10
31.3321
20
-102.085
11
31.1417
21
-102.18
0
LINE
8
BLACK
6
CONTINUOUS
10
31.1417
20
-102.18
11
30.9512
21
-102.18
0
LINE
8
BLACK
6
CONTINUOUS
10
30.9512
20
-102.18
11
30.7607
21
-102.085
0
LINE
8
BLACK
6
CONTINUOUS
10
30.7607
20
-102.085
11
30.6655
21
-101.989
0
LINE
8
BLACK
6
CONTINUOUS
10
30.6655
20
-101.989
11
30.5702
21
-101.799
0
LINE
8
BLACK
6
CONTINUOUS
10
30.5702
20
-101.799
11
30.475
21
-101.418
0
LINE
8
BLACK
6
CONTINUOUS
10
30.475
20
-101.418
11
30.475
21
-100.942
0
LINE
8
BLACK
6
CONTINUOUS
10
30.475
20
-100.942
11
30.5702
21
-100.561
0
LINE
8
BLACK
6
CONTINUOUS
10
30.5702
20
-100.561
11
30.6655
21
-100.37
0
LINE
8
BLACK
6
CONTINUOUS
10
30.6655
20
-100.37
11
30.7607
21
-100.275
0
LINE
8
BLACK
6
CONTINUOUS
10
30.7607
20
-100.275
11
30.9512
21
-100.18
0
LINE
8
BLACK
6
CONTINUOUS
10
32.3798
20
-100.18
11
32.3798
21
-100.561
0
LINE
8
BLACK
6
CONTINUOUS
10
33.1417
20
-100.18
11
33.1417
21
-100.561
0
LINE
8
BLACK
6
CONTINUOUS
10
36.0941
20
-102.942
11
35.9988
21
-102.846
0
LINE
8
BLACK
6
CONTINUOUS
10
35.9988
20
-102.846
11
35.8083
21
-102.561
0
LINE
8
BLACK
6
CONTINUOUS
10
35.8083
20
-102.561
11
35.7131
21
-102.37
0
LINE
8
BLACK
6
CONTINUOUS
10
35.7131
20
-102.37
11
35.6179
21
-102.085
0
LINE
8
BLACK
6
CONTINUOUS
10
35.6179
20
-102.085
11
35.5226
21
-101.608
0
LINE
8
BLACK
6
CONTINUOUS
10
35.5226
20
-101.608
11
35.5226
21
-101.227
0
LINE
8
BLACK
6
CONTINUOUS
10
35.5226
20
-101.227
11
35.6179
21
-100.751
0
LINE
8
BLACK
6
CONTINUOUS
10
35.6179
20
-100.751
11
35.7131
21
-100.465
0
LINE
8
BLACK
6
CONTINUOUS
10
35.7131
20
-100.465
11
35.8083
21
-100.275
0
LINE
8
BLACK
6
CONTINUOUS
10
35.8083
20
-100.275
11
35.9988
21
-99.9893
0
LINE
8
BLACK
6
CONTINUOUS
10
35.9988
20
-99.9893
11
36.0941
21
-99.8941
0
LINE
8
BLACK
6
CONTINUOUS
10
36.7607
20
-100.37
11
36.856
21
-100.275
0
LINE
8
BLACK
6
CONTINUOUS
10
36.856
20
-100.275
11
37.0464
21
-100.18
0
LINE
8
BLACK
6
CONTINUOUS
10
37.0464
20
-100.18
11
37.5226
21
-100.18
0
LINE
8
BLACK
6
CONTINUOUS
10
37.5226
20
-100.18
11
37.7131
21
-100.275
0
LINE
8
BLACK
6
CONTINUOUS
10
37.7131
20
-100.275
11
37.8083
21
-100.37
0
LINE
8
BLACK
6
CONTINUOUS
10
37.8083
20
-100.37
11
37.9036
21
-100.561
0
LINE
8
BLACK
6
CONTINUOUS
10
37.9036
20
-100.561
11
37.9036
21
-100.751
0
LINE
8
BLACK
6
CONTINUOUS
10
37.9036
20
-100.751
11
37.8083
21
-101.037
0
LINE
8
BLACK
6
CONTINUOUS
10
37.8083
20
-101.037
11
36.6655
21
-102.18
0
LINE
8
BLACK
6
CONTINUOUS
10
36.6655
20
-102.18
11
37.9036
21
-102.18
0
LINE
8
BLACK
6
CONTINUOUS
10
40.2845
20
-102.18
11
40.2845
21
-100.18
0
LINE
8
BLACK
6
CONTINUOUS
10
41.1417
20
-102.18
11
41.1417
21
-101.132
0
LINE
8
BLACK
6
CONTINUOUS
10
41.1417
20
-101.132
11
41.0464
21
-100.942
0
LINE
8
BLACK
6
CONTINUOUS
10
41.0464
20
-100.942
11
40.856
21
-100.846
0
LINE
8
BLACK
6
CONTINUOUS
10
40.856
20
-100.846
11
40.5702
21
-100.846
0
LINE
8
BLACK
6
CONTINUOUS
10
40.5702
20
-100.846
11
40.3798
21
-100.942
0
LINE
8
BLACK
6
CONTINUOUS
10
40.3798
20
-100.942
11
40.2845
21
-101.037
0
LINE
8
BLACK
6
CONTINUOUS
10
42.3798
20
-102.18
11
42.1893
21
-102.085
0
LINE
8
BLACK
6
CONTINUOUS
10
42.1893
20
-102.085
11
42.0941
21
-101.989
0
LINE
8
BLACK
6
CONTINUOUS
10
42.0941
20
-101.989
11
41.9988
21
-101.799
0
LINE
8
BLACK
6
CONTINUOUS
10
41.9988
20
-101.799
11
41.9988
21
-101.227
0
LINE
8
BLACK
6
CONTINUOUS
10
41.9988
20
-101.227
11
42.0941
21
-101.037
0
LINE
8
BLACK
6
CONTINUOUS
10
42.0941
20
-101.037
11
42.1893
21
-100.942
0
LINE
8
BLACK
6
CONTINUOUS
10
42.1893
20
-100.942
11
42.3798
21
-100.846
0
LINE
8
BLACK
6
CONTINUOUS
10
42.3798
20
-100.846
11
42.6655
21
-100.846
0
LINE
8
BLACK
6
CONTINUOUS
10
42.6655
20
-100.846
11
42.856
21
-100.942
0
LINE
8
BLACK
6
CONTINUOUS
10
42.856
20
-100.942
11
42.9512
21
-101.037
0
LINE
8
BLACK
6
CONTINUOUS
10
42.9512
20
-101.037
11
43.0464
21
-101.227
0
LINE
8
BLACK
6
CONTINUOUS
10
43.0464
20
-101.227
11
43.0464
21
-101.799
0
LINE
8
BLACK
6
CONTINUOUS
10
43.0464
20
-101.799
11
42.9512
21
-101.989
0
LINE
8
BLACK
6
CONTINUOUS
10
42.9512
20
-101.989
11
42.856
21
-102.085
0
LINE
8
BLACK
6
CONTINUOUS
10
42.856
20
-102.085
11
42.6655
21
-102.18
0
LINE
8
BLACK
6
CONTINUOUS
10
42.6655
20
-102.18
11
42.3798
21
-102.18
0
LINE
8
BLACK
6
CONTINUOUS
10
44.1893
20
-102.18
11
43.9988
21
-102.085
0
LINE
8
BLACK
6
CONTINUOUS
10
43.9988
20
-102.085
11
43.9036
21
-101.894
0
LINE
8
BLACK
6
CONTINUOUS
10
43.9036
20
-101.894
11
43.9036
21
-100.18
0
LINE
8
BLACK
6
CONTINUOUS
10
45.7131
20
-102.085
11
45.5226
21
-102.18
0
LINE
8
BLACK
6
CONTINUOUS
10
45.5226
20
-102.18
11
45.1417
21
-102.18
0
LINE
8
BLACK
6
CONTINUOUS
10
45.1417
20
-102.18
11
44.9512
21
-102.085
0
LINE
8
BLACK
6
CONTINUOUS
10
44.9512
20
-102.085
11
44.856
21
-101.894
0
LINE
8
BLACK
6
CONTINUOUS
10
44.856
20
-101.894
11
44.856
21
-101.132
0
LINE
8
BLACK
6
CONTINUOUS
10
44.856
20
-101.132
11
44.9512
21
-100.942
0
LINE
8
BLACK
6
CONTINUOUS
10
44.9512
20
-100.942
11
45.1417
21
-100.846
0
LINE
8
BLACK
6
CONTINUOUS
10
45.1417
20
-100.846
11
45.5226
21
-100.846
0
LINE
8
BLACK
6
CONTINUOUS
10
45.5226
20
-100.846
11
45.7131
21
-100.942
0
LINE
8
BLACK
6
CONTINUOUS
10
45.7131
20
-100.942
11
45.8083
21
-101.132
0
LINE
8
BLACK
6
CONTINUOUS
10
45.8083
20
-101.132
11
45.8083
21
-101.323
0
LINE
8
BLACK
6
CONTINUOUS
10
45.8083
20
-101.323
11
44.856
21
-101.513
0
LINE
8
BLACK
6
CONTINUOUS
10
46.5702
20
-102.085
11
46.7607
21
-102.18
0
LINE
8
BLACK
6
CONTINUOUS
10
46.7607
20
-102.18
11
47.1417
21
-102.18
0
LINE
8
BLACK
6
CONTINUOUS
10
47.1417
20
-102.18
11
47.3321
21
-102.085
0
LINE
8
BLACK
6
CONTINUOUS
10
47.3321
20
-102.085
11
47.4274
21
-101.894
0
LINE
8
BLACK
6
CONTINUOUS
10
47.4274
20
-101.894
11
47.4274
21
-101.799
0
LINE
8
BLACK
6
CONTINUOUS
10
47.4274
20
-101.799
11
47.3321
21
-101.608
0
LINE
8
BLACK
6
CONTINUOUS
10
47.3321
20
-101.608
11
47.1417
21
-101.513
0
LINE
8
BLACK
6
CONTINUOUS
10
47.1417
20
-101.513
11
46.856
21
-101.513
0
LINE
8
BLACK
6
CONTINUOUS
10
46.856
20
-101.513
11
46.6655
21
-101.418
0
LINE
8
BLACK
6
CONTINUOUS
10
46.6655
20
-101.418
11
46.5702
21
-101.227
0
LINE
8
BLACK
6
CONTINUOUS
10
46.5702
20
-101.227
11
46.5702
21
-101.132
0
LINE
8
BLACK
6
CONTINUOUS
10
46.5702
20
-101.132
11
46.6655
21
-100.942
0
LINE
8
BLACK
6
CONTINUOUS
10
46.6655
20
-100.942
11
46.856
21
-100.846
0
LINE
8
BLACK
6
CONTINUOUS
10
46.856
20
-100.846
11
47.1417
21
-100.846
0
LINE
8
BLACK
6
CONTINUOUS
10
47.1417
20
-100.846
11
47.3321
21
-100.942
0
LINE
8
BLACK
6
CONTINUOUS
10
48.0941
20
-102.942
11
48.1893
21
-102.846
0
LINE
8
BLACK
6
CONTINUOUS
10
48.1893
20
-102.846
11
48.3798
21
-102.561
0
LINE
8
BLACK
6
CONTINUOUS
10
48.3798
20
-102.561
11
48.475
21
-102.37
0
LINE
8
BLACK
6
CONTINUOUS
10
48.475
20
-102.37
11
48.5702
21
-102.085
0
LINE
8
BLACK
6
CONTINUOUS
10
48.5702
20
-102.085
11
48.6655
21
-101.608
0
LINE
8
BLACK
6
CONTINUOUS
10
48.6655
20
-101.608
11
48.6655
21
-101.227
0
LINE
8
BLACK
6
CONTINUOUS
10
48.6655
20
-101.227
11
48.5702
21
-100.751
0
LINE
8
BLACK
6
CONTINUOUS
10
48.5702
20
-100.751
11
48.475
21
-100.465
0
LINE
8
BLACK
6
CONTINUOUS
10
48.475
20
-100.465
11
48.3798
21
-100.275
0
LINE
8
BLACK
6
CONTINUOUS
10
48.3798
20
-100.275
11
48.1893
21
-99.9893
0
LINE
8
BLACK
6
CONTINUOUS
10
48.1893
20
-99.9893
11
48.0941
21
-99.8941
0
CIRCLE
8
BLACK
10
-0.475892
20
-103.974
40
0.8509
0
LINE
8
BLACK
6
CONTINUOUS
10
3.99882
20
-104.878
11
2.85596
21
-104.878
0
LINE
8
BLACK
6
CONTINUOUS
10
3.42739
20
-104.878
11
3.42739
21
-102.878
0
LINE
8
BLACK
6
CONTINUOUS
10
3.42739
20
-102.878
11
3.23691
21
-103.164
0
LINE
8
BLACK
6
CONTINUOUS
10
3.23691
20
-103.164
11
3.04644
21
-103.355
0
LINE
8
BLACK
6
CONTINUOUS
10
3.04644
20
-103.355
11
2.85596
21
-103.45
0
LINE
8
BLACK
6
CONTINUOUS
10
4.85596
20
-104.688
11
4.9512
21
-104.783
0
LINE
8
BLACK
6
CONTINUOUS
10
4.9512
20
-104.783
11
4.85596
21
-104.878
0
LINE
8
BLACK
6
CONTINUOUS
10
4.85596
20
-104.878
11
4.76072
21
-104.783
0
LINE
8
BLACK
6
CONTINUOUS
10
4.76072
20
-104.783
11
4.85596
21
-104.688
0
LINE
8
BLACK
6
CONTINUOUS
10
4.85596
20
-104.688
11
4.85596
21
-104.878
0
LINE
8
BLACK
6
CONTINUOUS
10
5.61787
20
-102.878
11
6.9512
21
-102.878
0
LINE
8
BLACK
6
CONTINUOUS
10
6.9512
20
-102.878
11
6.09405
21
-104.878
0
LINE
8
BLACK
6
CONTINUOUS
10
8.09405
20
-102.878
11
8.28453
21
-102.878
0
LINE
8
BLACK
6
CONTINUOUS
10
8.28453
20
-102.878
11
8.47501
21
-102.974
0
LINE
8
BLACK
6
CONTINUOUS
10
8.47501
20
-102.974
11
8.57025
21
-103.069
0
LINE
8
BLACK
6
CONTINUOUS
10
8.57025
20
-103.069
11
8.66548
21
-103.259
0
LINE
8
BLACK
6
CONTINUOUS
10
8.66548
20
-103.259
11
8.76072
21
-103.64
0
LINE
8
BLACK
6
CONTINUOUS
10
8.76072
20
-103.64
11
8.76072
21
-104.116
0
LINE
8
BLACK
6
CONTINUOUS
10
8.76072
20
-104.116
11
8.66548
21
-104.497
0
LINE
8
BLACK
6
CONTINUOUS
10
8.66548
20
-104.497
11
8.57025
21
-104.688
0
LINE
8
BLACK
6
CONTINUOUS
10
8.57025
20
-104.688
11
8.47501
21
-104.783
0
LINE
8
BLACK
6
CONTINUOUS
10
8.47501
20
-104.783
11
8.28453
21
-104.878
0
LINE
8
BLACK
6
CONTINUOUS
10
8.28453
20
-104.878
11
8.09405
21
-104.878
0
LINE
8
BLACK
6
CONTINUOUS
10
8.09405
20
-104.878
11
7.90358
21
-104.783
0
LINE
8
BLACK
6
CONTINUOUS
10
7.90358
20
-104.783
11
7.80834
21
-104.688
0
LINE
8
BLACK
6
CONTINUOUS
10
7.80834
20
-104.688
11
7.7131
21
-104.497
0
LINE
8
BLACK
6
CONTINUOUS
10
7.7131
20
-104.497
11
7.61786
21
-104.116
0
LINE
8
BLACK
6
CONTINUOUS
10
7.61786
20
-104.116
11
7.61786
21
-103.64
0
LINE
8
BLACK
6
CONTINUOUS
10
7.61786
20
-103.64
11
7.7131
21
-103.259
0
LINE
8
BLACK
6
CONTINUOUS
10
7.7131
20
-103.259
11
7.80834
21
-103.069
0
LINE
8
BLACK
6
CONTINUOUS
10
7.80834
20
-103.069
11
7.90358
21
-102.974
0
LINE
8
BLACK
6
CONTINUOUS
10
7.90358
20
-102.974
11
8.09405
21
-102.878
0
LINE
8
BLACK
6
CONTINUOUS
10
9.52263
20
-103.069
11
9.61787
21
-102.974
0
LINE
8
BLACK
6
CONTINUOUS
10
9.61787
20
-102.974
11
9.80834
21
-102.878
0
LINE
8
BLACK
6
CONTINUOUS
10
9.80834
20
-102.878
11
10.2845
21
-102.878
0
LINE
8
BLACK
6
CONTINUOUS
10
10.2845
20
-102.878
11
10.475
21
-102.974
0
LINE
8
BLACK
6
CONTINUOUS
10
10.475
20
-102.974
11
10.5702
21
-103.069
0
LINE
8
BLACK
6
CONTINUOUS
10
10.5702
20
-103.069
11
10.6655
21
-103.259
0
LINE
8
BLACK
6
CONTINUOUS
10
10.6655
20
-103.259
11
10.6655
21
-103.45
0
LINE
8
BLACK
6
CONTINUOUS
10
10.6655
20
-103.45
11
10.5702
21
-103.736
0
LINE
8
BLACK
6
CONTINUOUS
10
10.5702
20
-103.736
11
9.42739
21
-104.878
0
LINE
8
BLACK
6
CONTINUOUS
10
9.42739
20
-104.878
11
10.6655
21
-104.878
0
LINE
8
BLACK
6
CONTINUOUS
10
11.5226
20
-104.878
11
11.5226
21
-103.545
0
LINE
8
BLACK
6
CONTINUOUS
10
11.5226
20
-103.736
11
11.6179
21
-103.64
0
LINE
8
BLACK
6
CONTINUOUS
10
11.6179
20
-103.64
11
11.8083
21
-103.545
0
LINE
8
BLACK
6
CONTINUOUS
10
11.8083
20
-103.545
11
12.0941
21
-103.545
0
LINE
8
BLACK
6
CONTINUOUS
10
12.0941
20
-103.545
11
12.2845
21
-103.64
0
LINE
8
BLACK
6
CONTINUOUS
10
12.2845
20
-103.64
11
12.3798
21
-103.831
0
LINE
8
BLACK
6
CONTINUOUS
10
12.3798
20
-103.831
11
12.3798
21
-104.878
0
LINE
8
BLACK
6
CONTINUOUS
10
12.3798
20
-103.831
11
12.475
21
-103.64
0
LINE
8
BLACK
6
CONTINUOUS
10
12.475
20
-103.64
11
12.6655
21
-103.545
0
LINE
8
BLACK
6
CONTINUOUS
10
12.6655
20
-103.545
11
12.9512
21
-103.545
0
LINE
8
BLACK
6
CONTINUOUS
10
12.9512
20
-103.545
11
13.1417
21
-103.64
0
LINE
8
BLACK
6
CONTINUOUS
10
13.1417
20
-103.64
11
13.2369
21
-103.831
0
LINE
8
BLACK
6
CONTINUOUS
10
13.2369
20
-103.831
11
13.2369
21
-104.878
0
LINE
8
BLACK
6
CONTINUOUS
10
14.1893
20
-104.878
11
14.1893
21
-103.545
0
LINE
8
BLACK
6
CONTINUOUS
10
14.1893
20
-103.736
11
14.2845
21
-103.64
0
LINE
8
BLACK
6
CONTINUOUS
10
14.2845
20
-103.64
11
14.475
21
-103.545
0
LINE
8
BLACK
6
CONTINUOUS
10
14.475
20
-103.545
11
14.7607
21
-103.545
0
LINE
8
BLACK
6
CONTINUOUS
10
14.7607
20
-103.545
11
14.9512
21
-103.64
0
LINE
8
BLACK
6
CONTINUOUS
10
14.9512
20
-103.64
11
15.0464
21
-103.831
0
LINE
8
BLACK
6
CONTINUOUS
10
15.0464
20
-103.831
11
15.0464
21
-104.878
0
LINE
8
BLACK
6
CONTINUOUS
10
15.0464
20
-103.831
11
15.1417
21
-103.64
0
LINE
8
BLACK
6
CONTINUOUS
10
15.1417
20
-103.64
11
15.3321
21
-103.545
0
LINE
8
BLACK
6
CONTINUOUS
10
15.3321
20
-103.545
11
15.6179
21
-103.545
0
LINE
8
BLACK
6
CONTINUOUS
10
15.6179
20
-103.545
11
15.8083
21
-103.64
0
LINE
8
BLACK
6
CONTINUOUS
10
15.8083
20
-103.64
11
15.9036
21
-103.831
0
LINE
8
BLACK
6
CONTINUOUS
10
15.9036
20
-103.831
11
15.9036
21
-104.878
0
LINE
8
BLACK
6
CONTINUOUS
10
19.8083
20
-102.783
11
18.0941
21
-105.355
0
LINE
8
BLACK
6
CONTINUOUS
10
22.3798
20
-102.878
11
22.5702
21
-102.878
0
LINE
8
BLACK
6
CONTINUOUS
10
22.5702
20
-102.878
11
22.7607
21
-102.974
0
LINE
8
BLACK
6
CONTINUOUS
10
22.7607
20
-102.974
11
22.856
21
-103.069
0
LINE
8
BLACK
6
CONTINUOUS
10
22.856
20
-103.069
11
22.9512
21
-103.259
0
LINE
8
BLACK
6
CONTINUOUS
10
22.9512
20
-103.259
11
23.0464
21
-103.64
0
LINE
8
BLACK
6
CONTINUOUS
10
23.0464
20
-103.64
11
23.0464
21
-104.116
0
LINE
8
BLACK
6
CONTINUOUS
10
23.0464
20
-104.116
11
22.9512
21
-104.497
0
LINE
8
BLACK
6
CONTINUOUS
10
22.9512
20
-104.497
11
22.856
21
-104.688
0
LINE
8
BLACK
6
CONTINUOUS
10
22.856
20
-104.688
11
22.7607
21
-104.783
0
LINE
8
BLACK
6
CONTINUOUS
10
22.7607
20
-104.783
11
22.5702
21
-104.878
0
LINE
8
BLACK
6
CONTINUOUS
10
22.5702
20
-104.878
11
22.3798
21
-104.878
0
LINE
8
BLACK
6
CONTINUOUS
10
22.3798
20
-104.878
11
22.1893
21
-104.783
0
LINE
8
BLACK
6
CONTINUOUS
10
22.1893
20
-104.783
11
22.0941
21
-104.688
0
LINE
8
BLACK
6
CONTINUOUS
10
22.0941
20
-104.688
11
21.9988
21
-104.497
0
LINE
8
BLACK
6
CONTINUOUS
10
21.9988
20
-104.497
11
21.9036
21
-104.116
0
LINE
8
BLACK
6
CONTINUOUS
10
21.9036
20
-104.116
11
21.9036
21
-103.64
0
LINE
8
BLACK
6
CONTINUOUS
10
21.9036
20
-103.64
11
21.9988
21
-103.259
0
LINE
8
BLACK
6
CONTINUOUS
10
21.9988
20
-103.259
11
22.0941
21
-103.069
0
LINE
8
BLACK
6
CONTINUOUS
10
22.0941
20
-103.069
11
22.1893
21
-102.974
0
LINE
8
BLACK
6
CONTINUOUS
10
22.1893
20
-102.974
11
22.3798
21
-102.878
0
LINE
8
BLACK
6
CONTINUOUS
10
23.9036
20
-104.688
11
23.9988
21
-104.783
0
LINE
8
BLACK
6
CONTINUOUS
10
23.9988
20
-104.783
11
23.9036
21
-104.878
0
LINE
8
BLACK
6
CONTINUOUS
10
23.9036
20
-104.878
11
23.8083
21
-104.783
0
LINE
8
BLACK
6
CONTINUOUS
10
23.8083
20
-104.783
11
23.9036
21
-104.688
0
LINE
8
BLACK
6
CONTINUOUS
10
23.9036
20
-104.688
11
23.9036
21
-104.878
0
LINE
8
BLACK
6
CONTINUOUS
10
25.2369
20
-102.878
11
25.4274
21
-102.878
0
LINE
8
BLACK
6
CONTINUOUS
10
25.4274
20
-102.878
11
25.6179
21
-102.974
0
LINE
8
BLACK
6
CONTINUOUS
10
25.6179
20
-102.974
11
25.7131
21
-103.069
0
LINE
8
BLACK
6
CONTINUOUS
10
25.7131
20
-103.069
11
25.8083
21
-103.259
0
LINE
8
BLACK
6
CONTINUOUS
10
25.8083
20
-103.259
11
25.9036
21
-103.64
0
LINE
8
BLACK
6
CONTINUOUS
10
25.9036
20
-103.64
11
25.9036
21
-104.116
0
LINE
8
BLACK
6
CONTINUOUS
10
25.9036
20
-104.116
11
25.8083
21
-104.497
0
LINE
8
BLACK
6
CONTINUOUS
10
25.8083
20
-104.497
11
25.7131
21
-104.688
0
LINE
8
BLACK
6
CONTINUOUS
10
25.7131
20
-104.688
11
25.6179
21
-104.783
0
LINE
8
BLACK
6
CONTINUOUS
10
25.6179
20
-104.783
11
25.4274
21
-104.878
0
LINE
8
BLACK
6
CONTINUOUS
10
25.4274
20
-104.878
11
25.2369
21
-104.878
0
LINE
8
BLACK
6
CONTINUOUS
10
25.2369
20
-104.878
11
25.0464
21
-104.783
0
LINE
8
BLACK
6
CONTINUOUS
10
25.0464
20
-104.783
11
24.9512
21
-104.688
0
LINE
8
BLACK
6
CONTINUOUS
10
24.9512
20
-104.688
11
24.856
21
-104.497
0
LINE
8
BLACK
6
CONTINUOUS
10
24.856
20
-104.497
11
24.7607
21
-104.116
0
LINE
8
BLACK
6
CONTINUOUS
10
24.7607
20
-104.116
11
24.7607
21
-103.64
0
LINE
8
BLACK
6
CONTINUOUS
10
24.7607
20
-103.64
11
24.856
21
-103.259
0
LINE
8
BLACK
6
CONTINUOUS
10
24.856
20
-103.259
11
24.9512
21
-103.069
0
LINE
8
BLACK
6
CONTINUOUS
10
24.9512
20
-103.069
11
25.0464
21
-102.974
0
LINE
8
BLACK
6
CONTINUOUS
10
25.0464
20
-102.974
11
25.2369
21
-102.878
0
LINE
8
BLACK
6
CONTINUOUS
10
27.6179
20
-102.878
11
27.2369
21
-102.878
0
LINE
8
BLACK
6
CONTINUOUS
10
27.2369
20
-102.878
11
27.0464
21
-102.974
0
LINE
8
BLACK
6
CONTINUOUS
10
27.0464
20
-102.974
11
26.9512
21
-103.069
0
LINE
8
BLACK
6
CONTINUOUS
10
26.9512
20
-103.069
11
26.7607
21
-103.355
0
LINE
8
BLACK
6
CONTINUOUS
10
26.7607
20
-103.355
11
26.6655
21
-103.736
0
LINE
8
BLACK
6
CONTINUOUS
10
26.6655
20
-103.736
11
26.6655
21
-104.497
0
LINE
8
BLACK
6
CONTINUOUS
10
26.6655
20
-104.497
11
26.7607
21
-104.688
0
LINE
8
BLACK
6
CONTINUOUS
10
26.7607
20
-104.688
11
26.856
21
-104.783
0
LINE
8
BLACK
6
CONTINUOUS
10
26.856
20
-104.783
11
27.0464
21
-104.878
0
LINE
8
BLACK
6
CONTINUOUS
10
27.0464
20
-104.878
11
27.4274
21
-104.878
0
LINE
8
BLACK
6
CONTINUOUS
10
27.4274
20
-104.878
11
27.6179
21
-104.783
0
LINE
8
BLACK
6
CONTINUOUS
10
27.6179
20
-104.783
11
27.7131
21
-104.688
0
LINE
8
BLACK
6
CONTINUOUS
10
27.7131
20
-104.688
11
27.8083
21
-104.497
0
LINE
8
BLACK
6
CONTINUOUS
10
27.8083
20
-104.497
11
27.8083
21
-104.021
0
LINE
8
BLACK
6
CONTINUOUS
10
27.8083
20
-104.021
11
27.7131
21
-103.831
0
LINE
8
BLACK
6
CONTINUOUS
10
27.7131
20
-103.831
11
27.6179
21
-103.736
0
LINE
8
BLACK
6
CONTINUOUS
10
27.6179
20
-103.736
11
27.4274
21
-103.64
0
LINE
8
BLACK
6
CONTINUOUS
10
27.4274
20
-103.64
11
27.0464
21
-103.64
0
LINE
8
BLACK
6
CONTINUOUS
10
27.0464
20
-103.64
11
26.856
21
-103.736
0
LINE
8
BLACK
6
CONTINUOUS
10
26.856
20
-103.736
11
26.7607
21
-103.831
0
LINE
8
BLACK
6
CONTINUOUS
10
26.7607
20
-103.831
11
26.6655
21
-104.021
0
LINE
8
BLACK
6
CONTINUOUS
10
28.475
20
-102.878
11
29.8083
21
-102.878
0
LINE
8
BLACK
6
CONTINUOUS
10
29.8083
20
-102.878
11
28.9512
21
-104.878
0
LINE
8
BLACK
6
CONTINUOUS
10
30.9512
20
-102.878
11
31.1417
21
-102.878
0
LINE
8
BLACK
6
CONTINUOUS
10
31.1417
20
-102.878
11
31.3321
21
-102.974
0
LINE
8
BLACK
6
CONTINUOUS
10
31.3321
20
-102.974
11
31.4274
21
-103.069
0
LINE
8
BLACK
6
CONTINUOUS
10
31.4274
20
-103.069
11
31.5226
21
-103.259
0
LINE
8
BLACK
6
CONTINUOUS
10
31.5226
20
-103.259
11
31.6179
21
-103.64
0
LINE
8
BLACK
6
CONTINUOUS
10
31.6179
20
-103.64
11
31.6179
21
-104.116
0
LINE
8
BLACK
6
CONTINUOUS
10
31.6179
20
-104.116
11
31.5226
21
-104.497
0
LINE
8
BLACK
6
CONTINUOUS
10
31.5226
20
-104.497
11
31.4274
21
-104.688
0
LINE
8
BLACK
6
CONTINUOUS
10
31.4274
20
-104.688
11
31.3321
21
-104.783
0
LINE
8
BLACK
6
CONTINUOUS
10
31.3321
20
-104.783
11
31.1417
21
-104.878
0
LINE
8
BLACK
6
CONTINUOUS
10
31.1417
20
-104.878
11
30.9512
21
-104.878
0
LINE
8
BLACK
6
CONTINUOUS
10
30.9512
20
-104.878
11
30.7607
21
-104.783
0
LINE
8
BLACK
6
CONTINUOUS
10
30.7607
20
-104.783
11
30.6655
21
-104.688
0
LINE
8
BLACK
6
CONTINUOUS
10
30.6655
20
-104.688
11
30.5702
21
-104.497
0
LINE
8
BLACK
6
CONTINUOUS
10
30.5702
20
-104.497
11
30.475
21
-104.116
0
LINE
8
BLACK
6
CONTINUOUS
10
30.475
20
-104.116
11
30.475
21
-103.64
0
LINE
8
BLACK
6
CONTINUOUS
10
30.475
20
-103.64
11
30.5702
21
-103.259
0
LINE
8
BLACK
6
CONTINUOUS
10
30.5702
20
-103.259
11
30.6655
21
-103.069
0
LINE
8
BLACK
6
CONTINUOUS
10
30.6655
20
-103.069
11
30.7607
21
-102.974
0
LINE
8
BLACK
6
CONTINUOUS
10
30.7607
20
-102.974
11
30.9512
21
-102.878
0
LINE
8
BLACK
6
CONTINUOUS
10
32.3798
20
-102.878
11
32.3798
21
-103.259
0
LINE
8
BLACK
6
CONTINUOUS
10
33.1417
20
-102.878
11
33.1417
21
-103.259
0
LINE
8
BLACK
6
CONTINUOUS
10
36.0941
20
-105.64
11
35.9988
21
-105.545
0
LINE
8
BLACK
6
CONTINUOUS
10
35.9988
20
-105.545
11
35.8083
21
-105.259
0
LINE
8
BLACK
6
CONTINUOUS
10
35.8083
20
-105.259
11
35.7131
21
-105.069
0
LINE
8
BLACK
6
CONTINUOUS
10
35.7131
20
-105.069
11
35.6179
21
-104.783
0
LINE
8
BLACK
6
CONTINUOUS
10
35.6179
20
-104.783
11
35.5226
21
-104.307
0
LINE
8
BLACK
6
CONTINUOUS
10
35.5226
20
-104.307
11
35.5226
21
-103.926
0
LINE
8
BLACK
6
CONTINUOUS
10
35.5226
20
-103.926
11
35.6179
21
-103.45
0
LINE
8
BLACK
6
CONTINUOUS
10
35.6179
20
-103.45
11
35.7131
21
-103.164
0
LINE
8
BLACK
6
CONTINUOUS
10
35.7131
20
-103.164
11
35.8083
21
-102.974
0
LINE
8
BLACK
6
CONTINUOUS
10
35.8083
20
-102.974
11
35.9988
21
-102.688
0
LINE
8
BLACK
6
CONTINUOUS
10
35.9988
20
-102.688
11
36.0941
21
-102.593
0
LINE
8
BLACK
6
CONTINUOUS
10
36.7607
20
-103.069
11
36.856
21
-102.974
0
LINE
8
BLACK
6
CONTINUOUS
10
36.856
20
-102.974
11
37.0464
21
-102.878
0
LINE
8
BLACK
6
CONTINUOUS
10
37.0464
20
-102.878
11
37.5226
21
-102.878
0
LINE
8
BLACK
6
CONTINUOUS
10
37.5226
20
-102.878
11
37.7131
21
-102.974
0
LINE
8
BLACK
6
CONTINUOUS
10
37.7131
20
-102.974
11
37.8083
21
-103.069
0
LINE
8
BLACK
6
CONTINUOUS
10
37.8083
20
-103.069
11
37.9036
21
-103.259
0
LINE
8
BLACK
6
CONTINUOUS
10
37.9036
20
-103.259
11
37.9036
21
-103.45
0
LINE
8
BLACK
6
CONTINUOUS
10
37.9036
20
-103.45
11
37.8083
21
-103.736
0
LINE
8
BLACK
6
CONTINUOUS
10
37.8083
20
-103.736
11
36.6655
21
-104.878
0
LINE
8
BLACK
6
CONTINUOUS
10
36.6655
20
-104.878
11
37.9036
21
-104.878
0
LINE
8
BLACK
6
CONTINUOUS
10
40.2845
20
-104.878
11
40.2845
21
-102.878
0
LINE
8
BLACK
6
CONTINUOUS
10
41.1417
20
-104.878
11
41.1417
21
-103.831
0
LINE
8
BLACK
6
CONTINUOUS
10
41.1417
20
-103.831
11
41.0464
21
-103.64
0
LINE
8
BLACK
6
CONTINUOUS
10
41.0464
20
-103.64
11
40.856
21
-103.545
0
LINE
8
BLACK
6
CONTINUOUS
10
40.856
20
-103.545
11
40.5702
21
-103.545
0
LINE
8
BLACK
6
CONTINUOUS
10
40.5702
20
-103.545
11
40.3798
21
-103.64
0
LINE
8
BLACK
6
CONTINUOUS
10
40.3798
20
-103.64
11
40.2845
21
-103.736
0
LINE
8
BLACK
6
CONTINUOUS
10
42.3798
20
-104.878
11
42.1893
21
-104.783
0
LINE
8
BLACK
6
CONTINUOUS
10
42.1893
20
-104.783
11
42.0941
21
-104.688
0
LINE
8
BLACK
6
CONTINUOUS
10
42.0941
20
-104.688
11
41.9988
21
-104.497
0
LINE
8
BLACK
6
CONTINUOUS
10
41.9988
20
-104.497
11
41.9988
21
-103.926
0
LINE
8
BLACK
6
CONTINUOUS
10
41.9988
20
-103.926
11
42.0941
21
-103.736
0
LINE
8
BLACK
6
CONTINUOUS
10
42.0941
20
-103.736
11
42.1893
21
-103.64
0
LINE
8
BLACK
6
CONTINUOUS
10
42.1893
20
-103.64
11
42.3798
21
-103.545
0
LINE
8
BLACK
6
CONTINUOUS
10
42.3798
20
-103.545
11
42.6655
21
-103.545
0
LINE
8
BLACK
6
CONTINUOUS
10
42.6655
20
-103.545
11
42.856
21
-103.64
0
LINE
8
BLACK
6
CONTINUOUS
10
42.856
20
-103.64
11
42.9512
21
-103.736
0
LINE
8
BLACK
6
CONTINUOUS
10
42.9512
20
-103.736
11
43.0464
21
-103.926
0
LINE
8
BLACK
6
CONTINUOUS
10
43.0464
20
-103.926
11
43.0464
21
-104.497
0
LINE
8
BLACK
6
CONTINUOUS
10
43.0464
20
-104.497
11
42.9512
21
-104.688
0
LINE
8
BLACK
6
CONTINUOUS
10
42.9512
20
-104.688
11
42.856
21
-104.783
0
LINE
8
BLACK
6
CONTINUOUS
10
42.856
20
-104.783
11
42.6655
21
-104.878
0
LINE
8
BLACK
6
CONTINUOUS
10
42.6655
20
-104.878
11
42.3798
21
-104.878
0
LINE
8
BLACK
6
CONTINUOUS
10
44.1893
20
-104.878
11
43.9988
21
-104.783
0
LINE
8
BLACK
6
CONTINUOUS
10
43.9988
20
-104.783
11
43.9036
21
-104.593
0
LINE
8
BLACK
6
CONTINUOUS
10
43.9036
20
-104.593
11
43.9036
21
-102.878
0
LINE
8
BLACK
6
CONTINUOUS
10
45.7131
20
-104.783
11
45.5226
21
-104.878
0
LINE
8
BLACK
6
CONTINUOUS
10
45.5226
20
-104.878
11
45.1417
21
-104.878
0
LINE
8
BLACK
6
CONTINUOUS
10
45.1417
20
-104.878
11
44.9512
21
-104.783
0
LINE
8
BLACK
6
CONTINUOUS
10
44.9512
20
-104.783
11
44.856
21
-104.593
0
LINE
8
BLACK
6
CONTINUOUS
10
44.856
20
-104.593
11
44.856
21
-103.831
0
LINE
8
BLACK
6
CONTINUOUS
10
44.856
20
-103.831
11
44.9512
21
-103.64
0
LINE
8
BLACK
6
CONTINUOUS
10
44.9512
20
-103.64
11
45.1417
21
-103.545
0
LINE
8
BLACK
6
CONTINUOUS
10
45.1417
20
-103.545
11
45.5226
21
-103.545
0
LINE
8
BLACK
6
CONTINUOUS
10
45.5226
20
-103.545
11
45.7131
21
-103.64
0
LINE
8
BLACK
6
CONTINUOUS
10
45.7131
20
-103.64
11
45.8083
21
-103.831
0
LINE
8
BLACK
6
CONTINUOUS
10
45.8083
20
-103.831
11
45.8083
21
-104.021
0
LINE
8
BLACK
6
CONTINUOUS
10
45.8083
20
-104.021
11
44.856
21
-104.212
0
LINE
8
BLACK
6
CONTINUOUS
10
46.5702
20
-104.783
11
46.7607
21
-104.878
0
LINE
8
BLACK
6
CONTINUOUS
10
46.7607
20
-104.878
11
47.1417
21
-104.878
0
LINE
8
BLACK
6
CONTINUOUS
10
47.1417
20
-104.878
11
47.3321
21
-104.783
0
LINE
8
BLACK
6
CONTINUOUS
10
47.3321
20
-104.783
11
47.4274
21
-104.593
0
LINE
8
BLACK
6
CONTINUOUS
10
47.4274
20
-104.593
11
47.4274
21
-104.497
0
LINE
8
BLACK
6
CONTINUOUS
10
47.4274
20
-104.497
11
47.3321
21
-104.307
0
LINE
8
BLACK
6
CONTINUOUS
10
47.3321
20
-104.307
11
47.1417
21
-104.212
0
LINE
8
BLACK
6
CONTINUOUS
10
47.1417
20
-104.212
11
46.856
21
-104.212
0
LINE
8
BLACK
6
CONTINUOUS
10
46.856
20
-104.212
11
46.6655
21
-104.116
0
LINE
8
BLACK
6
CONTINUOUS
10
46.6655
20
-104.116
11
46.5702
21
-103.926
0
LINE
8
BLACK
6
CONTINUOUS
10
46.5702
20
-103.926
11
46.5702
21
-103.831
0
LINE
8
BLACK
6
CONTINUOUS
10
46.5702
20
-103.831
11
46.6655
21
-103.64
0
LINE
8
BLACK
6
CONTINUOUS
10
46.6655
20
-103.64
11
46.856
21
-103.545
0
LINE
8
BLACK
6
CONTINUOUS
10
46.856
20
-103.545
11
47.1417
21
-103.545
0
LINE
8
BLACK
6
CONTINUOUS
10
47.1417
20
-103.545
11
47.3321
21
-103.64
0
LINE
8
BLACK
6
CONTINUOUS
10
48.0941
20
-105.64
11
48.1893
21
-105.545
0
LINE
8
BLACK
6
CONTINUOUS
10
48.1893
20
-105.545
11
48.3798
21
-105.259
0
LINE
8
BLACK
6
CONTINUOUS
10
48.3798
20
-105.259
11
48.475
21
-105.069
0
LINE
8
BLACK
6
CONTINUOUS
10
48.475
20
-105.069
11
48.5702
21
-104.783
0
LINE
8
BLACK
6
CONTINUOUS
10
48.5702
20
-104.783
11
48.6655
21
-104.307
0
LINE
8
BLACK
6
CONTINUOUS
10
48.6655
20
-104.307
11
48.6655
21
-103.926
0
LINE
8
BLACK
6
CONTINUOUS
10
48.6655
20
-103.926
11
48.5702
21
-103.45
0
LINE
8
BLACK
6
CONTINUOUS
10
48.5702
20
-103.45
11
48.475
21
-103.164
0
LINE
8
BLACK
6
CONTINUOUS
10
48.475
20
-103.164
11
48.3798
21
-102.974
0
LINE
8
BLACK
6
CONTINUOUS
10
48.3798
20
-102.974
11
48.1893
21
-102.688
0
LINE
8
BLACK
6
CONTINUOUS
10
48.1893
20
-102.688
11
48.0941
21
-102.593
0
LINE
8
BLACK
6
CONTINUOUS
10
51.7131
20
-105.64
11
51.6179
21
-105.545
0
LINE
8
BLACK
6
CONTINUOUS
10
51.6179
20
-105.545
11
51.4274
21
-105.259
0
LINE
8
BLACK
6
CONTINUOUS
10
51.4274
20
-105.259
11
51.3321
21
-105.069
0
LINE
8
BLACK
6
CONTINUOUS
10
51.3321
20
-105.069
11
51.2369
21
-104.783
0
LINE
8
BLACK
6
CONTINUOUS
10
51.2369
20
-104.783
11
51.1417
21
-104.307
0
LINE
8
BLACK
6
CONTINUOUS
10
51.1417
20
-104.307
11
51.1417
21
-103.926
0
LINE
8
BLACK
6
CONTINUOUS
10
51.1417
20
-103.926
11
51.2369
21
-103.45
0
LINE
8
BLACK
6
CONTINUOUS
10
51.2369
20
-103.45
11
51.3321
21
-103.164
0
LINE
8
BLACK
6
CONTINUOUS
10
51.3321
20
-103.164
11
51.4274
21
-102.974
0
LINE
8
BLACK
6
CONTINUOUS
10
51.4274
20
-102.974
11
51.6179
21
-102.688
0
LINE
8
BLACK
6
CONTINUOUS
10
51.6179
20
-102.688
11
51.7131
21
-102.593
0
LINE
8
BLACK
6
CONTINUOUS
10
52.475
20
-103.545
11
52.475
21
-104.878
0
LINE
8
BLACK
6
CONTINUOUS
10
52.475
20
-103.736
11
52.5702
21
-103.64
0
LINE
8
BLACK
6
CONTINUOUS
10
52.5702
20
-103.64
11
52.7607
21
-103.545
0
LINE
8
BLACK
6
CONTINUOUS
10
52.7607
20
-103.545
11
53.0464
21
-103.545
0
LINE
8
BLACK
6
CONTINUOUS
10
53.0464
20
-103.545
11
53.2369
21
-103.64
0
LINE
8
BLACK
6
CONTINUOUS
10
53.2369
20
-103.64
11
53.3321
21
-103.831
0
LINE
8
BLACK
6
CONTINUOUS
10
53.3321
20
-103.831
11
53.3321
21
-104.878
0
LINE
8
BLACK
6
CONTINUOUS
10
54.5702
20
-104.878
11
54.3798
21
-104.783
0
LINE
8
BLACK
6
CONTINUOUS
10
54.3798
20
-104.783
11
54.2845
21
-104.688
0
LINE
8
BLACK
6
CONTINUOUS
10
54.2845
20
-104.688
11
54.1893
21
-104.497
0
LINE
8
BLACK
6
CONTINUOUS
10
54.1893
20
-104.497
11
54.1893
21
-103.926
0
LINE
8
BLACK
6
CONTINUOUS
10
54.1893
20
-103.926
11
54.2845
21
-103.736
0
LINE
8
BLACK
6
CONTINUOUS
10
54.2845
20
-103.736
11
54.3798
21
-103.64
0
LINE
8
BLACK
6
CONTINUOUS
10
54.3798
20
-103.64
11
54.5702
21
-103.545
0
LINE
8
BLACK
6
CONTINUOUS
10
54.5702
20
-103.545
11
54.856
21
-103.545
0
LINE
8
BLACK
6
CONTINUOUS
10
54.856
20
-103.545
11
55.0464
21
-103.64
0
LINE
8
BLACK
6
CONTINUOUS
10
55.0464
20
-103.64
11
55.1417
21
-103.736
0
LINE
8
BLACK
6
CONTINUOUS
10
55.1417
20
-103.736
11
55.2369
21
-103.926
0
LINE
8
BLACK
6
CONTINUOUS
10
55.2369
20
-103.926
11
55.2369
21
-104.497
0
LINE
8
BLACK
6
CONTINUOUS
10
55.2369
20
-104.497
11
55.1417
21
-104.688
0
LINE
8
BLACK
6
CONTINUOUS
10
55.1417
20
-104.688
11
55.0464
21
-104.783
0
LINE
8
BLACK
6
CONTINUOUS
10
55.0464
20
-104.783
11
54.856
21
-104.878
0
LINE
8
BLACK
6
CONTINUOUS
10
54.856
20
-104.878
11
54.5702
21
-104.878
0
LINE
8
BLACK
6
CONTINUOUS
10
55.8083
20
-103.545
11
56.5702
21
-103.545
0
LINE
8
BLACK
6
CONTINUOUS
10
56.0941
20
-102.878
11
56.0941
21
-104.593
0
LINE
8
BLACK
6
CONTINUOUS
10
56.0941
20
-104.593
11
56.1893
21
-104.783
0
LINE
8
BLACK
6
CONTINUOUS
10
56.1893
20
-104.783
11
56.3798
21
-104.878
0
LINE
8
BLACK
6
CONTINUOUS
10
56.3798
20
-104.878
11
56.5702
21
-104.878
0
LINE
8
BLACK
6
CONTINUOUS
10
58.7607
20
-103.545
11
58.7607
21
-105.545
0
LINE
8
BLACK
6
CONTINUOUS
10
58.7607
20
-103.64
11
58.9512
21
-103.545
0
LINE
8
BLACK
6
CONTINUOUS
10
58.9512
20
-103.545
11
59.3321
21
-103.545
0
LINE
8
BLACK
6
CONTINUOUS
10
59.3321
20
-103.545
11
59.5226
21
-103.64
0
LINE
8
BLACK
6
CONTINUOUS
10
59.5226
20
-103.64
11
59.6179
21
-103.736
0
LINE
8
BLACK
6
CONTINUOUS
10
59.6179
20
-103.736
11
59.7131
21
-103.926
0
LINE
8
BLACK
6
CONTINUOUS
10
59.7131
20
-103.926
11
59.7131
21
-104.497
0
LINE
8
BLACK
6
CONTINUOUS
10
59.7131
20
-104.497
11
59.6179
21
-104.688
0
LINE
8
BLACK
6
CONTINUOUS
10
59.6179
20
-104.688
11
59.5226
21
-104.783
0
LINE
8
BLACK
6
CONTINUOUS
10
59.5226
20
-104.783
11
59.3321
21
-104.878
0
LINE
8
BLACK
6
CONTINUOUS
10
59.3321
20
-104.878
11
58.9512
21
-104.878
0
LINE
8
BLACK
6
CONTINUOUS
10
58.9512
20
-104.878
11
58.7607
21
-104.783
0
LINE
8
BLACK
6
CONTINUOUS
10
60.856
20
-104.878
11
60.6655
21
-104.783
0
LINE
8
BLACK
6
CONTINUOUS
10
60.6655
20
-104.783
11
60.5702
21
-104.593
0
LINE
8
BLACK
6
CONTINUOUS
10
60.5702
20
-104.593
11
60.5702
21
-102.878
0
LINE
8
BLACK
6
CONTINUOUS
10
62.475
20
-104.878
11
62.475
21
-103.831
0
LINE
8
BLACK
6
CONTINUOUS
10
62.475
20
-103.831
11
62.3798
21
-103.64
0
LINE
8
BLACK
6
CONTINUOUS
10
62.3798
20
-103.64
11
62.1893
21
-103.545
0
LINE
8
BLACK
6
CONTINUOUS
10
62.1893
20
-103.545
11
61.8083
21
-103.545
0
LINE
8
BLACK
6
CONTINUOUS
10
61.8083
20
-103.545
11
61.6179
21
-103.64
0
LINE
8
BLACK
6
CONTINUOUS
10
62.475
20
-104.783
11
62.2845
21
-104.878
0
LINE
8
BLACK
6
CONTINUOUS
10
62.2845
20
-104.878
11
61.8083
21
-104.878
0
LINE
8
BLACK
6
CONTINUOUS
10
61.8083
20
-104.878
11
61.6179
21
-104.783
0
LINE
8
BLACK
6
CONTINUOUS
10
61.6179
20
-104.783
11
61.5226
21
-104.593
0
LINE
8
BLACK
6
CONTINUOUS
10
61.5226
20
-104.593
11
61.5226
21
-104.402
0
LINE
8
BLACK
6
CONTINUOUS
10
61.5226
20
-104.402
11
61.6179
21
-104.212
0
LINE
8
BLACK
6
CONTINUOUS
10
61.6179
20
-104.212
11
61.8083
21
-104.116
0
LINE
8
BLACK
6
CONTINUOUS
10
61.8083
20
-104.116
11
62.2845
21
-104.116
0
LINE
8
BLACK
6
CONTINUOUS
10
62.2845
20
-104.116
11
62.475
21
-104.021
0
LINE
8
BLACK
6
CONTINUOUS
10
63.1417
20
-103.545
11
63.9036
21
-103.545
0
LINE
8
BLACK
6
CONTINUOUS
10
63.4274
20
-102.878
11
63.4274
21
-104.593
0
LINE
8
BLACK
6
CONTINUOUS
10
63.4274
20
-104.593
11
63.5226
21
-104.783
0
LINE
8
BLACK
6
CONTINUOUS
10
63.5226
20
-104.783
11
63.7131
21
-104.878
0
LINE
8
BLACK
6
CONTINUOUS
10
63.7131
20
-104.878
11
63.9036
21
-104.878
0
LINE
8
BLACK
6
CONTINUOUS
10
65.3321
20
-104.783
11
65.1417
21
-104.878
0
LINE
8
BLACK
6
CONTINUOUS
10
65.1417
20
-104.878
11
64.7607
21
-104.878
0
LINE
8
BLACK
6
CONTINUOUS
10
64.7607
20
-104.878
11
64.5702
21
-104.783
0
LINE
8
BLACK
6
CONTINUOUS
10
64.5702
20
-104.783
11
64.475
21
-104.593
0
LINE
8
BLACK
6
CONTINUOUS
10
64.475
20
-104.593
11
64.475
21
-103.831
0
LINE
8
BLACK
6
CONTINUOUS
10
64.475
20
-103.831
11
64.5702
21
-103.64
0
LINE
8
BLACK
6
CONTINUOUS
10
64.5702
20
-103.64
11
64.7607
21
-103.545
0
LINE
8
BLACK
6
CONTINUOUS
10
64.7607
20
-103.545
11
65.1417
21
-103.545
0
LINE
8
BLACK
6
CONTINUOUS
10
65.1417
20
-103.545
11
65.3321
21
-103.64
0
LINE
8
BLACK
6
CONTINUOUS
10
65.3321
20
-103.64
11
65.4274
21
-103.831
0
LINE
8
BLACK
6
CONTINUOUS
10
65.4274
20
-103.831
11
65.4274
21
-104.021
0
LINE
8
BLACK
6
CONTINUOUS
10
65.4274
20
-104.021
11
64.475
21
-104.212
0
LINE
8
BLACK
6
CONTINUOUS
10
67.1417
20
-104.878
11
67.1417
21
-102.878
0
LINE
8
BLACK
6
CONTINUOUS
10
67.1417
20
-104.783
11
66.9512
21
-104.878
0
LINE
8
BLACK
6
CONTINUOUS
10
66.9512
20
-104.878
11
66.5702
21
-104.878
0
LINE
8
BLACK
6
CONTINUOUS
10
66.5702
20
-104.878
11
66.3798
21
-104.783
0
LINE
8
BLACK
6
CONTINUOUS
10
66.3798
20
-104.783
11
66.2845
21
-104.688
0
LINE
8
BLACK
6
CONTINUOUS
10
66.2845
20
-104.688
11
66.1893
21
-104.497
0
LINE
8
BLACK
6
CONTINUOUS
10
66.1893
20
-104.497
11
66.1893
21
-103.926
0
LINE
8
BLACK
6
CONTINUOUS
10
66.1893
20
-103.926
11
66.2845
21
-103.736
0
LINE
8
BLACK
6
CONTINUOUS
10
66.2845
20
-103.736
11
66.3798
21
-103.64
0
LINE
8
BLACK
6
CONTINUOUS
10
66.3798
20
-103.64
11
66.5702
21
-103.545
0
LINE
8
BLACK
6
CONTINUOUS
10
66.5702
20
-103.545
11
66.9512
21
-103.545
0
LINE
8
BLACK
6
CONTINUOUS
10
66.9512
20
-103.545
11
67.1417
21
-103.64
0
LINE
8
BLACK
6
CONTINUOUS
10
67.9036
20
-105.64
11
67.9988
21
-105.545
0
LINE
8
BLACK
6
CONTINUOUS
10
67.9988
20
-105.545
11
68.1893
21
-105.259
0
LINE
8
BLACK
6
CONTINUOUS
10
68.1893
20
-105.259
11
68.2845
21
-105.069
0
LINE
8
BLACK
6
CONTINUOUS
10
68.2845
20
-105.069
11
68.3798
21
-104.783
0
LINE
8
BLACK
6
CONTINUOUS
10
68.3798
20
-104.783
11
68.475
21
-104.307
0
LINE
8
BLACK
6
CONTINUOUS
10
68.475
20
-104.307
11
68.475
21
-103.926
0
LINE
8
BLACK
6
CONTINUOUS
10
68.475
20
-103.926
11
68.3798
21
-103.45
0
LINE
8
BLACK
6
CONTINUOUS
10
68.3798
20
-103.45
11
68.2845
21
-103.164
0
LINE
8
BLACK
6
CONTINUOUS
10
68.2845
20
-103.164
11
68.1893
21
-102.974
0
LINE
8
BLACK
6
CONTINUOUS
10
68.1893
20
-102.974
11
67.9988
21
-102.688
0
LINE
8
BLACK
6
CONTINUOUS
10
67.9988
20
-102.688
11
67.9036
21
-102.593
0
LINE
8
BLACK
6
CONTINUOUS
10
-0.624992
20
-105.875
11
-0.624992
21
-107.875
0
LINE
8
BLACK
6
CONTINUOUS
10
-1.62499
20
-106.875
11
0.375008
21
-106.875
0
LINE
8
BLACK
6
CONTINUOUS
10
2.76072
20
-105.78
11
3.99882
21
-105.78
0
LINE
8
BLACK
6
CONTINUOUS
10
3.99882
20
-105.78
11
3.33215
21
-106.542
0
LINE
8
BLACK
6
CONTINUOUS
10
3.33215
20
-106.542
11
3.61786
21
-106.542
0
LINE
8
BLACK
6
CONTINUOUS
10
3.61786
20
-106.542
11
3.80834
21
-106.637
0
LINE
8
BLACK
6
CONTINUOUS
10
3.80834
20
-106.637
11
3.90358
21
-106.733
0
LINE
8
BLACK
6
CONTINUOUS
10
3.90358
20
-106.733
11
3.99882
21
-106.923
0
LINE
8
BLACK
6
CONTINUOUS
10
3.99882
20
-106.923
11
3.99882
21
-107.399
0
LINE
8
BLACK
6
CONTINUOUS
10
3.99882
20
-107.399
11
3.90358
21
-107.59
0
LINE
8
BLACK
6
CONTINUOUS
10
3.90358
20
-107.59
11
3.80834
21
-107.685
0
LINE
8
BLACK
6
CONTINUOUS
10
3.80834
20
-107.685
11
3.61786
21
-107.78
0
LINE
8
BLACK
6
CONTINUOUS
10
3.61786
20
-107.78
11
3.04644
21
-107.78
0
LINE
8
BLACK
6
CONTINUOUS
10
3.04644
20
-107.78
11
2.85596
21
-107.685
0
LINE
8
BLACK
6
CONTINUOUS
10
2.85596
20
-107.685
11
2.76072
21
-107.59
0
LINE
8
BLACK
6
CONTINUOUS
10
4.85596
20
-107.59
11
4.9512
21
-107.685
0
LINE
8
BLACK
6
CONTINUOUS
10
4.9512
20
-107.685
11
4.85596
21
-107.78
0
LINE
8
BLACK
6
CONTINUOUS
10
4.85596
20
-107.78
11
4.76072
21
-107.685
0
LINE
8
BLACK
6
CONTINUOUS
10
4.76072
20
-107.685
11
4.85596
21
-107.59
0
LINE
8
BLACK
6
CONTINUOUS
10
4.85596
20
-107.59
11
4.85596
21
-107.78
0
LINE
8
BLACK
6
CONTINUOUS
10
5.90358
20
-107.78
11
6.28453
21
-107.78
0
LINE
8
BLACK
6
CONTINUOUS
10
6.28453
20
-107.78
11
6.47501
21
-107.685
0
LINE
8
BLACK
6
CONTINUOUS
10
6.47501
20
-107.685
11
6.57025
21
-107.59
0
LINE
8
BLACK
6
CONTINUOUS
10
6.57025
20
-107.59
11
6.76072
21
-107.304
0
LINE
8
BLACK
6
CONTINUOUS
10
6.76072
20
-107.304
11
6.85596
21
-106.923
0
LINE
8
BLACK
6
CONTINUOUS
10
6.85596
20
-106.923
11
6.85596
21
-106.161
0
LINE
8
BLACK
6
CONTINUOUS
10
6.85596
20
-106.161
11
6.76072
21
-105.971
0
LINE
8
BLACK
6
CONTINUOUS
10
6.76072
20
-105.971
11
6.66548
21
-105.875
0
LINE
8
BLACK
6
CONTINUOUS
10
6.66548
20
-105.875
11
6.47501
21
-105.78
0
LINE
8
BLACK
6
CONTINUOUS
10
6.47501
20
-105.78
11
6.09405
21
-105.78
0
LINE
8
BLACK
6
CONTINUOUS
10
6.09405
20
-105.78
11
5.90358
21
-105.875
0
LINE
8
BLACK
6
CONTINUOUS
10
5.90358
20
-105.875
11
5.80834
21
-105.971
0
LINE
8
BLACK
6
CONTINUOUS
10
5.80834
20
-105.971
11
5.7131
21
-106.161
0
LINE
8
BLACK
6
CONTINUOUS
10
5.7131
20
-106.161
11
5.7131
21
-106.637
0
LINE
8
BLACK
6
CONTINUOUS
10
5.7131
20
-106.637
11
5.80834
21
-106.828
0
LINE
8
BLACK
6
CONTINUOUS
10
5.80834
20
-106.828
11
5.90358
21
-106.923
0
LINE
8
BLACK
6
CONTINUOUS
10
5.90358
20
-106.923
11
6.09405
21
-107.018
0
LINE
8
BLACK
6
CONTINUOUS
10
6.09405
20
-107.018
11
6.47501
21
-107.018
0
LINE
8
BLACK
6
CONTINUOUS
10
6.47501
20
-107.018
11
6.66548
21
-106.923
0
LINE
8
BLACK
6
CONTINUOUS
10
6.66548
20
-106.923
11
6.76072
21
-106.828
0
LINE
8
BLACK
6
CONTINUOUS
10
6.76072
20
-106.828
11
6.85596
21
-106.637
0
LINE
8
BLACK
6
CONTINUOUS
10
7.99882
20
-106.637
11
7.80834
21
-106.542
0
LINE
8
BLACK
6
CONTINUOUS
10
7.80834
20
-106.542
11
7.7131
21
-106.447
0
LINE
8
BLACK
6
CONTINUOUS
10
7.7131
20
-106.447
11
7.61786
21
-106.256
0
LINE
8
BLACK
6
CONTINUOUS
10
7.61786
20
-106.256
11
7.61786
21
-106.161
0
LINE
8
BLACK
6
CONTINUOUS
10
7.61786
20
-106.161
11
7.7131
21
-105.971
0
LINE
8
BLACK
6
CONTINUOUS
10
7.7131
20
-105.971
11
7.80834
21
-105.875
0
LINE
8
BLACK
6
CONTINUOUS
10
7.80834
20
-105.875
11
7.99882
21
-105.78
0
LINE
8
BLACK
6
CONTINUOUS
10
7.99882
20
-105.78
11
8.37977
21
-105.78
0
LINE
8
BLACK
6
CONTINUOUS
10
8.37977
20
-105.78
11
8.57025
21
-105.875
0
LINE
8
BLACK
6
CONTINUOUS
10
8.57025
20
-105.875
11
8.66548
21
-105.971
0
LINE
8
BLACK
6
CONTINUOUS
10
8.66548
20
-105.971
11
8.76072
21
-106.161
0
LINE
8
BLACK
6
CONTINUOUS
10
8.76072
20
-106.161
11
8.76072
21
-106.256
0
LINE
8
BLACK
6
CONTINUOUS
10
8.76072
20
-106.256
11
8.66548
21
-106.447
0
LINE
8
BLACK
6
CONTINUOUS
10
8.66548
20
-106.447
11
8.57025
21
-106.542
0
LINE
8
BLACK
6
CONTINUOUS
10
8.57025
20
-106.542
11
8.37977
21
-106.637
0
LINE
8
BLACK
6
CONTINUOUS
10
8.37977
20
-106.637
11
7.99882
21
-106.637
0
LINE
8
BLACK
6
CONTINUOUS
10
7.99882
20
-106.637
11
7.80834
21
-106.733
0
LINE
8
BLACK
6
CONTINUOUS
10
7.80834
20
-106.733
11
7.7131
21
-106.828
0
LINE
8
BLACK
6
CONTINUOUS
10
7.7131
20
-106.828
11
7.61786
21
-107.018
0
LINE
8
BLACK
6
CONTINUOUS
10
7.61786
20
-107.018
11
7.61786
21
-107.399
0
LINE
8
BLACK
6
CONTINUOUS
10
7.61786
20
-107.399
11
7.7131
21
-107.59
0
LINE
8
BLACK
6
CONTINUOUS
10
7.7131
20
-107.59
11
7.80834
21
-107.685
0
LINE
8
BLACK
6
CONTINUOUS
10
7.80834
20
-107.685
11
7.99882
21
-107.78
0
LINE
8
BLACK
6
CONTINUOUS
10
7.99882
20
-107.78
11
8.37977
21
-107.78
0
LINE
8
BLACK
6
CONTINUOUS
10
8.37977
20
-107.78
11
8.57025
21
-107.685
0
LINE
8
BLACK
6
CONTINUOUS
10
8.57025
20
-107.685
11
8.66548
21
-107.59
0
LINE
8
BLACK
6
CONTINUOUS
10
8.66548
20
-107.59
11
8.76072
21
-107.399
0
LINE
8
BLACK
6
CONTINUOUS
10
8.76072
20
-107.399
11
8.76072
21
-107.018
0
LINE
8
BLACK
6
CONTINUOUS
10
8.76072
20
-107.018
11
8.66548
21
-106.828
0
LINE
8
BLACK
6
CONTINUOUS
10
8.66548
20
-106.828
11
8.57025
21
-106.733
0
LINE
8
BLACK
6
CONTINUOUS
10
8.57025
20
-106.733
11
8.37977
21
-106.637
0
LINE
8
BLACK
6
CONTINUOUS
10
9.90358
20
-106.637
11
9.7131
21
-106.542
0
LINE
8
BLACK
6
CONTINUOUS
10
9.7131
20
-106.542
11
9.61787
21
-106.447
0
LINE
8
BLACK
6
CONTINUOUS
10
9.61787
20
-106.447
11
9.52263
21
-106.256
0
LINE
8
BLACK
6
CONTINUOUS
10
9.52263
20
-106.256
11
9.52263
21
-106.161
0
LINE
8
BLACK
6
CONTINUOUS
10
9.52263
20
-106.161
11
9.61787
21
-105.971
0
LINE
8
BLACK
6
CONTINUOUS
10
9.61787
20
-105.971
11
9.7131
21
-105.875
0
LINE
8
BLACK
6
CONTINUOUS
10
9.7131
20
-105.875
11
9.90358
21
-105.78
0
LINE
8
BLACK
6
CONTINUOUS
10
9.90358
20
-105.78
11
10.2845
21
-105.78
0
LINE
8
BLACK
6
CONTINUOUS
10
10.2845
20
-105.78
11
10.475
21
-105.875
0
LINE
8
BLACK
6
CONTINUOUS
10
10.475
20
-105.875
11
10.5702
21
-105.971
0
LINE
8
BLACK
6
CONTINUOUS
10
10.5702
20
-105.971
11
10.6655
21
-106.161
0
LINE
8
BLACK
6
CONTINUOUS
10
10.6655
20
-106.161
11
10.6655
21
-106.256
0
LINE
8
BLACK
6
CONTINUOUS
10
10.6655
20
-106.256
11
10.5702
21
-106.447
0
LINE
8
BLACK
6
CONTINUOUS
10
10.5702
20
-106.447
11
10.475
21
-106.542
0
LINE
8
BLACK
6
CONTINUOUS
10
10.475
20
-106.542
11
10.2845
21
-106.637
0
LINE
8
BLACK
6
CONTINUOUS
10
10.2845
20
-106.637
11
9.90358
21
-106.637
0
LINE
8
BLACK
6
CONTINUOUS
10
9.90358
20
-106.637
11
9.7131
21
-106.733
0
LINE
8
BLACK
6
CONTINUOUS
10
9.7131
20
-106.733
11
9.61787
21
-106.828
0
LINE
8
BLACK
6
CONTINUOUS
10
9.61787
20
-106.828
11
9.52263
21
-107.018
0
LINE
8
BLACK
6
CONTINUOUS
10
9.52263
20
-107.018
11
9.52263
21
-107.399
0
LINE
8
BLACK
6
CONTINUOUS
10
9.52263
20
-107.399
11
9.61787
21
-107.59
0
LINE
8
BLACK
6
CONTINUOUS
10
9.61787
20
-107.59
11
9.7131
21
-107.685
0
LINE
8
BLACK
6
CONTINUOUS
10
9.7131
20
-107.685
11
9.90358
21
-107.78
0
LINE
8
BLACK
6
CONTINUOUS
10
9.90358
20
-107.78
11
10.2845
21
-107.78
0
LINE
8
BLACK
6
CONTINUOUS
10
10.2845
20
-107.78
11
10.475
21
-107.685
0
LINE
8
BLACK
6
CONTINUOUS
10
10.475
20
-107.685
11
10.5702
21
-107.59
0
LINE
8
BLACK
6
CONTINUOUS
10
10.5702
20
-107.59
11
10.6655
21
-107.399
0
LINE
8
BLACK
6
CONTINUOUS
10
10.6655
20
-107.399
11
10.6655
21
-107.018
0
LINE
8
BLACK
6
CONTINUOUS
10
10.6655
20
-107.018
11
10.5702
21
-106.828
0
LINE
8
BLACK
6
CONTINUOUS
10
10.5702
20
-106.828
11
10.475
21
-106.733
0
LINE
8
BLACK
6
CONTINUOUS
10
10.475
20
-106.733
11
10.2845
21
-106.637
0
LINE
8
BLACK
6
CONTINUOUS
10
11.5226
20
-107.78
11
11.5226
21
-106.447
0
LINE
8
BLACK
6
CONTINUOUS
10
11.5226
20
-106.637
11
11.6179
21
-106.542
0
LINE
8
BLACK
6
CONTINUOUS
10
11.6179
20
-106.542
11
11.8083
21
-106.447
0
LINE
8
BLACK
6
CONTINUOUS
10
11.8083
20
-106.447
11
12.0941
21
-106.447
0
LINE
8
BLACK
6
CONTINUOUS
10
12.0941
20
-106.447
11
12.2845
21
-106.542
0
LINE
8
BLACK
6
CONTINUOUS
10
12.2845
20
-106.542
11
12.3798
21
-106.733
0
LINE
8
BLACK
6
CONTINUOUS
10
12.3798
20
-106.733
11
12.3798
21
-107.78
0
LINE
8
BLACK
6
CONTINUOUS
10
12.3798
20
-106.733
11
12.475
21
-106.542
0
LINE
8
BLACK
6
CONTINUOUS
10
12.475
20
-106.542
11
12.6655
21
-106.447
0
LINE
8
BLACK
6
CONTINUOUS
10
12.6655
20
-106.447
11
12.9512
21
-106.447
0
LINE
8
BLACK
6
CONTINUOUS
10
12.9512
20
-106.447
11
13.1417
21
-106.542
0
LINE
8
BLACK
6
CONTINUOUS
10
13.1417
20
-106.542
11
13.2369
21
-106.733
0
LINE
8
BLACK
6
CONTINUOUS
10
13.2369
20
-106.733
11
13.2369
21
-107.78
0
LINE
8
BLACK
6
CONTINUOUS
10
14.1893
20
-107.78
11
14.1893
21
-106.447
0
LINE
8
BLACK
6
CONTINUOUS
10
14.1893
20
-106.637
11
14.2845
21
-106.542
0
LINE
8
BLACK
6
CONTINUOUS
10
14.2845
20
-106.542
11
14.475
21
-106.447
0
LINE
8
BLACK
6
CONTINUOUS
10
14.475
20
-106.447
11
14.7607
21
-106.447
0
LINE
8
BLACK
6
CONTINUOUS
10
14.7607
20
-106.447
11
14.9512
21
-106.542
0
LINE
8
BLACK
6
CONTINUOUS
10
14.9512
20
-106.542
11
15.0464
21
-106.733
0
LINE
8
BLACK
6
CONTINUOUS
10
15.0464
20
-106.733
11
15.0464
21
-107.78
0
LINE
8
BLACK
6
CONTINUOUS
10
15.0464
20
-106.733
11
15.1417
21
-106.542
0
LINE
8
BLACK
6
CONTINUOUS
10
15.1417
20
-106.542
11
15.3321
21
-106.447
0
LINE
8
BLACK
6
CONTINUOUS
10
15.3321
20
-106.447
11
15.6179
21
-106.447
0
LINE
8
BLACK
6
CONTINUOUS
10
15.6179
20
-106.447
11
15.8083
21
-106.542
0
LINE
8
BLACK
6
CONTINUOUS
10
15.8083
20
-106.542
11
15.9036
21
-106.733
0
LINE
8
BLACK
6
CONTINUOUS
10
15.9036
20
-106.733
11
15.9036
21
-107.78
0
LINE
8
BLACK
6
CONTINUOUS
10
19.8083
20
-105.685
11
18.0941
21
-108.256
0
LINE
8
BLACK
6
CONTINUOUS
10
22.3798
20
-105.78
11
22.5702
21
-105.78
0
LINE
8
BLACK
6
CONTINUOUS
10
22.5702
20
-105.78
11
22.7607
21
-105.875
0
LINE
8
BLACK
6
CONTINUOUS
10
22.7607
20
-105.875
11
22.856
21
-105.971
0
LINE
8
BLACK
6
CONTINUOUS
10
22.856
20
-105.971
11
22.9512
21
-106.161
0
LINE
8
BLACK
6
CONTINUOUS
10
22.9512
20
-106.161
11
23.0464
21
-106.542
0
LINE
8
BLACK
6
CONTINUOUS
10
23.0464
20
-106.542
11
23.0464
21
-107.018
0
LINE
8
BLACK
6
CONTINUOUS
10
23.0464
20
-107.018
11
22.9512
21
-107.399
0
LINE
8
BLACK
6
CONTINUOUS
10
22.9512
20
-107.399
11
22.856
21
-107.59
0
LINE
8
BLACK
6
CONTINUOUS
10
22.856
20
-107.59
11
22.7607
21
-107.685
0
LINE
8
BLACK
6
CONTINUOUS
10
22.7607
20
-107.685
11
22.5702
21
-107.78
0
LINE
8
BLACK
6
CONTINUOUS
10
22.5702
20
-107.78
11
22.3798
21
-107.78
0
LINE
8
BLACK
6
CONTINUOUS
10
22.3798
20
-107.78
11
22.1893
21
-107.685
0
LINE
8
BLACK
6
CONTINUOUS
10
22.1893
20
-107.685
11
22.0941
21
-107.59
0
LINE
8
BLACK
6
CONTINUOUS
10
22.0941
20
-107.59
11
21.9988
21
-107.399
0
LINE
8
BLACK
6
CONTINUOUS
10
21.9988
20
-107.399
11
21.9036
21
-107.018
0
LINE
8
BLACK
6
CONTINUOUS
10
21.9036
20
-107.018
11
21.9036
21
-106.542
0
LINE
8
BLACK
6
CONTINUOUS
10
21.9036
20
-106.542
11
21.9988
21
-106.161
0
LINE
8
BLACK
6
CONTINUOUS
10
21.9988
20
-106.161
11
22.0941
21
-105.971
0
LINE
8
BLACK
6
CONTINUOUS
10
22.0941
20
-105.971
11
22.1893
21
-105.875
0
LINE
8
BLACK
6
CONTINUOUS
10
22.1893
20
-105.875
11
22.3798
21
-105.78
0
LINE
8
BLACK
6
CONTINUOUS
10
23.9036
20
-107.59
11
23.9988
21
-107.685
0
LINE
8
BLACK
6
CONTINUOUS
10
23.9988
20
-107.685
11
23.9036
21
-107.78
0
LINE
8
BLACK
6
CONTINUOUS
10
23.9036
20
-107.78
11
23.8083
21
-107.685
0
LINE
8
BLACK
6
CONTINUOUS
10
23.8083
20
-107.685
11
23.9036
21
-107.59
0
LINE
8
BLACK
6
CONTINUOUS
10
23.9036
20
-107.59
11
23.9036
21
-107.78
0
LINE
8
BLACK
6
CONTINUOUS
10
25.9036
20
-107.78
11
24.7607
21
-107.78
0
LINE
8
BLACK
6
CONTINUOUS
10
25.3321
20
-107.78
11
25.3321
21
-105.78
0
LINE
8
BLACK
6
CONTINUOUS
10
25.3321
20
-105.78
11
25.1417
21
-106.066
0
LINE
8
BLACK
6
CONTINUOUS
10
25.1417
20
-106.066
11
24.9512
21
-106.256
0
LINE
8
BLACK
6
CONTINUOUS
10
24.9512
20
-106.256
11
24.7607
21
-106.352
0
LINE
8
BLACK
6
CONTINUOUS
10
27.7131
20
-105.78
11
26.7607
21
-105.78
0
LINE
8
BLACK
6
CONTINUOUS
10
26.7607
20
-105.78
11
26.6655
21
-106.733
0
LINE
8
BLACK
6
CONTINUOUS
10
26.6655
20
-106.733
11
26.7607
21
-106.637
0
LINE
8
BLACK
6
CONTINUOUS
10
26.7607
20
-106.637
11
26.9512
21
-106.542
0
LINE
8
BLACK
6
CONTINUOUS
10
26.9512
20
-106.542
11
27.4274
21
-106.542
0
LINE
8
BLACK
6
CONTINUOUS
10
27.4274
20
-106.542
11
27.6179
21
-106.637
0
LINE
8
BLACK
6
CONTINUOUS
10
27.6179
20
-106.637
11
27.7131
21
-106.733
0
LINE
8
BLACK
6
CONTINUOUS
10
27.7131
20
-106.733
11
27.8083
21
-106.923
0
LINE
8
BLACK
6
CONTINUOUS
10
27.8083
20
-106.923
11
27.8083
21
-107.399
0
LINE
8
BLACK
6
CONTINUOUS
10
27.8083
20
-107.399
11
27.7131
21
-107.59
0
LINE
8
BLACK
6
CONTINUOUS
10
27.7131
20
-107.59
11
27.6179
21
-107.685
0
LINE
8
BLACK
6
CONTINUOUS
10
27.6179
20
-107.685
11
27.4274
21
-107.78
0
LINE
8
BLACK
6
CONTINUOUS
10
27.4274
20
-107.78
11
26.9512
21
-107.78
0
LINE
8
BLACK
6
CONTINUOUS
10
26.9512
20
-107.78
11
26.7607
21
-107.685
0
LINE
8
BLACK
6
CONTINUOUS
10
26.7607
20
-107.685
11
26.6655
21
-107.59
0
LINE
8
BLACK
6
CONTINUOUS
10
28.475
20
-105.78
11
29.8083
21
-105.78
0
LINE
8
BLACK
6
CONTINUOUS
10
29.8083
20
-105.78
11
28.9512
21
-107.78
0
LINE
8
BLACK
6
CONTINUOUS
10
30.9512
20
-105.78
11
31.1417
21
-105.78
0
LINE
8
BLACK
6
CONTINUOUS
10
31.1417
20
-105.78
11
31.3321
21
-105.875
0
LINE
8
BLACK
6
CONTINUOUS
10
31.3321
20
-105.875
11
31.4274
21
-105.971
0
LINE
8
BLACK
6
CONTINUOUS
10
31.4274
20
-105.971
11
31.5226
21
-106.161
0
LINE
8
BLACK
6
CONTINUOUS
10
31.5226
20
-106.161
11
31.6179
21
-106.542
0
LINE
8
BLACK
6
CONTINUOUS
10
31.6179
20
-106.542
11
31.6179
21
-107.018
0
LINE
8
BLACK
6
CONTINUOUS
10
31.6179
20
-107.018
11
31.5226
21
-107.399
0
LINE
8
BLACK
6
CONTINUOUS
10
31.5226
20
-107.399
11
31.4274
21
-107.59
0
LINE
8
BLACK
6
CONTINUOUS
10
31.4274
20
-107.59
11
31.3321
21
-107.685
0
LINE
8
BLACK
6
CONTINUOUS
10
31.3321
20
-107.685
11
31.1417
21
-107.78
0
LINE
8
BLACK
6
CONTINUOUS
10
31.1417
20
-107.78
11
30.9512
21
-107.78
0
LINE
8
BLACK
6
CONTINUOUS
10
30.9512
20
-107.78
11
30.7607
21
-107.685
0
LINE
8
BLACK
6
CONTINUOUS
10
30.7607
20
-107.685
11
30.6655
21
-107.59
0
LINE
8
BLACK
6
CONTINUOUS
10
30.6655
20
-107.59
11
30.5702
21
-107.399
0
LINE
8
BLACK
6
CONTINUOUS
10
30.5702
20
-107.399
11
30.475
21
-107.018
0
LINE
8
BLACK
6
CONTINUOUS
10
30.475
20
-107.018
11
30.475
21
-106.542
0
LINE
8
BLACK
6
CONTINUOUS
10
30.475
20
-106.542
11
30.5702
21
-106.161
0
LINE
8
BLACK
6
CONTINUOUS
10
30.5702
20
-106.161
11
30.6655
21
-105.971
0
LINE
8
BLACK
6
CONTINUOUS
10
30.6655
20
-105.971
11
30.7607
21
-105.875
0
LINE
8
BLACK
6
CONTINUOUS
10
30.7607
20
-105.875
11
30.9512
21
-105.78
0
LINE
8
BLACK
6
CONTINUOUS
10
32.3798
20
-105.78
11
32.3798
21
-106.161
0
LINE
8
BLACK
6
CONTINUOUS
10
33.1417
20
-105.78
11
33.1417
21
-106.161
0
LINE
8
BLACK
6
CONTINUOUS
10
36.0941
20
-108.542
11
35.9988
21
-108.447
0
LINE
8
BLACK
6
CONTINUOUS
10
35.9988
20
-108.447
11
35.8083
21
-108.161
0
LINE
8
BLACK
6
CONTINUOUS
10
35.8083
20
-108.161
11
35.7131
21
-107.971
0
LINE
8
BLACK
6
CONTINUOUS
10
35.7131
20
-107.971
11
35.6179
21
-107.685
0
LINE
8
BLACK
6
CONTINUOUS
10
35.6179
20
-107.685
11
35.5226
21
-107.209
0
LINE
8
BLACK
6
CONTINUOUS
10
35.5226
20
-107.209
11
35.5226
21
-106.828
0
LINE
8
BLACK
6
CONTINUOUS
10
35.5226
20
-106.828
11
35.6179
21
-106.352
0
LINE
8
BLACK
6
CONTINUOUS
10
35.6179
20
-106.352
11
35.7131
21
-106.066
0
LINE
8
BLACK
6
CONTINUOUS
10
35.7131
20
-106.066
11
35.8083
21
-105.875
0
LINE
8
BLACK
6
CONTINUOUS
10
35.8083
20
-105.875
11
35.9988
21
-105.59
0
LINE
8
BLACK
6
CONTINUOUS
10
35.9988
20
-105.59
11
36.0941
21
-105.494
0
LINE
8
BLACK
6
CONTINUOUS
10
37.9036
20
-107.78
11
36.7607
21
-107.78
0
LINE
8
BLACK
6
CONTINUOUS
10
37.3321
20
-107.78
11
37.3321
21
-105.78
0
LINE
8
BLACK
6
CONTINUOUS
10
37.3321
20
-105.78
11
37.1417
21
-106.066
0
LINE
8
BLACK
6
CONTINUOUS
10
37.1417
20
-106.066
11
36.9512
21
-106.256
0
LINE
8
BLACK
6
CONTINUOUS
10
36.9512
20
-106.256
11
36.7607
21
-106.352
0
LINE
8
BLACK
6
CONTINUOUS
10
40.2845
20
-107.78
11
40.2845
21
-105.78
0
LINE
8
BLACK
6
CONTINUOUS
10
41.1417
20
-107.78
11
41.1417
21
-106.733
0
LINE
8
BLACK
6
CONTINUOUS
10
41.1417
20
-106.733
11
41.0464
21
-106.542
0
LINE
8
BLACK
6
CONTINUOUS
10
41.0464
20
-106.542
11
40.856
21
-106.447
0
LINE
8
BLACK
6
CONTINUOUS
10
40.856
20
-106.447
11
40.5702
21
-106.447
0
LINE
8
BLACK
6
CONTINUOUS
10
40.5702
20
-106.447
11
40.3798
21
-106.542
0
LINE
8
BLACK
6
CONTINUOUS
10
40.3798
20
-106.542
11
40.2845
21
-106.637
0
LINE
8
BLACK
6
CONTINUOUS
10
42.3798
20
-107.78
11
42.1893
21
-107.685
0
LINE
8
BLACK
6
CONTINUOUS
10
42.1893
20
-107.685
11
42.0941
21
-107.59
0
LINE
8
BLACK
6
CONTINUOUS
10
42.0941
20
-107.59
11
41.9988
21
-107.399
0
LINE
8
BLACK
6
CONTINUOUS
10
41.9988
20
-107.399
11
41.9988
21
-106.828
0
LINE
8
BLACK
6
CONTINUOUS
10
41.9988
20
-106.828
11
42.0941
21
-106.637
0
LINE
8
BLACK
6
CONTINUOUS
10
42.0941
20
-106.637
11
42.1893
21
-106.542
0
LINE
8
BLACK
6
CONTINUOUS
10
42.1893
20
-106.542
11
42.3798
21
-106.447
0
LINE
8
BLACK
6
CONTINUOUS
10
42.3798
20
-106.447
11
42.6655
21
-106.447
0
LINE
8
BLACK
6
CONTINUOUS
10
42.6655
20
-106.447
11
42.856
21
-106.542
0
LINE
8
BLACK
6
CONTINUOUS
10
42.856
20
-106.542
11
42.9512
21
-106.637
0
LINE
8
BLACK
6
CONTINUOUS
10
42.9512
20
-106.637
11
43.0464
21
-106.828
0
LINE
8
BLACK
6
CONTINUOUS
10
43.0464
20
-106.828
11
43.0464
21
-107.399
0
LINE
8
BLACK
6
CONTINUOUS
10
43.0464
20
-107.399
11
42.9512
21
-107.59
0
LINE
8
BLACK
6
CONTINUOUS
10
42.9512
20
-107.59
11
42.856
21
-107.685
0
LINE
8
BLACK
6
CONTINUOUS
10
42.856
20
-107.685
11
42.6655
21
-107.78
0
LINE
8
BLACK
6
CONTINUOUS
10
42.6655
20
-107.78
11
42.3798
21
-107.78
0
LINE
8
BLACK
6
CONTINUOUS
10
44.1893
20
-107.78
11
43.9988
21
-107.685
0
LINE
8
BLACK
6
CONTINUOUS
10
43.9988
20
-107.685
11
43.9036
21
-107.494
0
LINE
8
BLACK
6
CONTINUOUS
10
43.9036
20
-107.494
11
43.9036
21
-105.78
0
LINE
8
BLACK
6
CONTINUOUS
10
45.7131
20
-107.685
11
45.5226
21
-107.78
0
LINE
8
BLACK
6
CONTINUOUS
10
45.5226
20
-107.78
11
45.1417
21
-107.78
0
LINE
8
BLACK
6
CONTINUOUS
10
45.1417
20
-107.78
11
44.9512
21
-107.685
0
LINE
8
BLACK
6
CONTINUOUS
10
44.9512
20
-107.685
11
44.856
21
-107.494
0
LINE
8
BLACK
6
CONTINUOUS
10
44.856
20
-107.494
11
44.856
21
-106.733
0
LINE
8
BLACK
6
CONTINUOUS
10
44.856
20
-106.733
11
44.9512
21
-106.542
0
LINE
8
BLACK
6
CONTINUOUS
10
44.9512
20
-106.542
11
45.1417
21
-106.447
0
LINE
8
BLACK
6
CONTINUOUS
10
45.1417
20
-106.447
11
45.5226
21
-106.447
0
LINE
8
BLACK
6
CONTINUOUS
10
45.5226
20
-106.447
11
45.7131
21
-106.542
0
LINE
8
BLACK
6
CONTINUOUS
10
45.7131
20
-106.542
11
45.8083
21
-106.733
0
LINE
8
BLACK
6
CONTINUOUS
10
45.8083
20
-106.733
11
45.8083
21
-106.923
0
LINE
8
BLACK
6
CONTINUOUS
10
45.8083
20
-106.923
11
44.856
21
-107.114
0
LINE
8
BLACK
6
CONTINUOUS
10
46.475
20
-108.542
11
46.5702
21
-108.447
0
LINE
8
BLACK
6
CONTINUOUS
10
46.5702
20
-108.447
11
46.7607
21
-108.161
0
LINE
8
BLACK
6
CONTINUOUS
10
46.7607
20
-108.161
11
46.856
21
-107.971
0
LINE
8
BLACK
6
CONTINUOUS
10
46.856
20
-107.971
11
46.9512
21
-107.685
0
LINE
8
BLACK
6
CONTINUOUS
10
46.9512
20
-107.685
11
47.0464
21
-107.209
0
LINE
8
BLACK
6
CONTINUOUS
10
47.0464
20
-107.209
11
47.0464
21
-106.828
0
LINE
8
BLACK
6
CONTINUOUS
10
47.0464
20
-106.828
11
46.9512
21
-106.352
0
LINE
8
BLACK
6
CONTINUOUS
10
46.9512
20
-106.352
11
46.856
21
-106.066
0
LINE
8
BLACK
6
CONTINUOUS
10
46.856
20
-106.066
11
46.7607
21
-105.875
0
LINE
8
BLACK
6
CONTINUOUS
10
46.7607
20
-105.875
11
46.5702
21
-105.59
0
LINE
8
BLACK
6
CONTINUOUS
10
46.5702
20
-105.59
11
46.475
21
-105.494
0
LINE
8
BLACK
6
CONTINUOUS
10
50.0941
20
-108.542
11
49.9988
21
-108.447
0
LINE
8
BLACK
6
CONTINUOUS
10
49.9988
20
-108.447
11
49.8083
21
-108.161
0
LINE
8
BLACK
6
CONTINUOUS
10
49.8083
20
-108.161
11
49.7131
21
-107.971
0
LINE
8
BLACK
6
CONTINUOUS
10
49.7131
20
-107.971
11
49.6179
21
-107.685
0
LINE
8
BLACK
6
CONTINUOUS
10
49.6179
20
-107.685
11
49.5226
21
-107.209
0
LINE
8
BLACK
6
CONTINUOUS
10
49.5226
20
-107.209
11
49.5226
21
-106.828
0
LINE
8
BLACK
6
CONTINUOUS
10
49.5226
20
-106.828
11
49.6179
21
-106.352
0
LINE
8
BLACK
6
CONTINUOUS
10
49.6179
20
-106.352
11
49.7131
21
-106.066
0
LINE
8
BLACK
6
CONTINUOUS
10
49.7131
20
-106.066
11
49.8083
21
-105.875
0
LINE
8
BLACK
6
CONTINUOUS
10
49.8083
20
-105.875
11
49.9988
21
-105.59
0
LINE
8
BLACK
6
CONTINUOUS
10
49.9988
20
-105.59
11
50.0941
21
-105.494
0
LINE
8
BLACK
6
CONTINUOUS
10
50.856
20
-106.447
11
50.856
21
-107.78
0
LINE
8
BLACK
6
CONTINUOUS
10
50.856
20
-106.637
11
50.9512
21
-106.542
0
LINE
8
BLACK
6
CONTINUOUS
10
50.9512
20
-106.542
11
51.1417
21
-106.447
0
LINE
8
BLACK
6
CONTINUOUS
10
51.1417
20
-106.447
11
51.4274
21
-106.447
0
LINE
8
BLACK
6
CONTINUOUS
10
51.4274
20
-106.447
11
51.6179
21
-106.542
0
LINE
8
BLACK
6
CONTINUOUS
10
51.6179
20
-106.542
11
51.7131
21
-106.733
0
LINE
8
BLACK
6
CONTINUOUS
10
51.7131
20
-106.733
11
51.7131
21
-107.78
0
LINE
8
BLACK
6
CONTINUOUS
10
52.9512
20
-107.78
11
52.7607
21
-107.685
0
LINE
8
BLACK
6
CONTINUOUS
10
52.7607
20
-107.685
11
52.6655
21
-107.59
0
LINE
8
BLACK
6
CONTINUOUS
10
52.6655
20
-107.59
11
52.5702
21
-107.399
0
LINE
8
BLACK
6
CONTINUOUS
10
52.5702
20
-107.399
11
52.5702
21
-106.828
0
LINE
8
BLACK
6
CONTINUOUS
10
52.5702
20
-106.828
11
52.6655
21
-106.637
0
LINE
8
BLACK
6
CONTINUOUS
10
52.6655
20
-106.637
11
52.7607
21
-106.542
0
LINE
8
BLACK
6
CONTINUOUS
10
52.7607
20
-106.542
11
52.9512
21
-106.447
0
LINE
8
BLACK
6
CONTINUOUS
10
52.9512
20
-106.447
11
53.2369
21
-106.447
0
LINE
8
BLACK
6
CONTINUOUS
10
53.2369
20
-106.447
11
53.4274
21
-106.542
0
LINE
8
BLACK
6
CONTINUOUS
10
53.4274
20
-106.542
11
53.5226
21
-106.637
0
LINE
8
BLACK
6
CONTINUOUS
10
53.5226
20
-106.637
11
53.6179
21
-106.828
0
LINE
8
BLACK
6
CONTINUOUS
10
53.6179
20
-106.828
11
53.6179
21
-107.399
0
LINE
8
BLACK
6
CONTINUOUS
10
53.6179
20
-107.399
11
53.5226
21
-107.59
0
LINE
8
BLACK
6
CONTINUOUS
10
53.5226
20
-107.59
11
53.4274
21
-107.685
0
LINE
8
BLACK
6
CONTINUOUS
10
53.4274
20
-107.685
11
53.2369
21
-107.78
0
LINE
8
BLACK
6
CONTINUOUS
10
53.2369
20
-107.78
11
52.9512
21
-107.78
0
LINE
8
BLACK
6
CONTINUOUS
10
54.1893
20
-106.447
11
54.9512
21
-106.447
0
LINE
8
BLACK
6
CONTINUOUS
10
54.475
20
-105.78
11
54.475
21
-107.494
0
LINE
8
BLACK
6
CONTINUOUS
10
54.475
20
-107.494
11
54.5702
21
-107.685
0
LINE
8
BLACK
6
CONTINUOUS
10
54.5702
20
-107.685
11
54.7607
21
-107.78
0
LINE
8
BLACK
6
CONTINUOUS
10
54.7607
20
-107.78
11
54.9512
21
-107.78
0
LINE
8
BLACK
6
CONTINUOUS
10
57.1417
20
-106.447
11
57.1417
21
-108.447
0
LINE
8
BLACK
6
CONTINUOUS
10
57.1417
20
-106.542
11
57.3321
21
-106.447
0
LINE
8
BLACK
6
CONTINUOUS
10
57.3321
20
-106.447
11
57.7131
21
-106.447
0
LINE
8
BLACK
6
CONTINUOUS
10
57.7131
20
-106.447
11
57.9036
21
-106.542
0
LINE
8
BLACK
6
CONTINUOUS
10
57.9036
20
-106.542
11
57.9988
21
-106.637
0
LINE
8
BLACK
6
CONTINUOUS
10
57.9988
20
-106.637
11
58.0941
21
-106.828
0
LINE
8
BLACK
6
CONTINUOUS
10
58.0941
20
-106.828
11
58.0941
21
-107.399
0
LINE
8
BLACK
6
CONTINUOUS
10
58.0941
20
-107.399
11
57.9988
21
-107.59
0
LINE
8
BLACK
6
CONTINUOUS
10
57.9988
20
-107.59
11
57.9036
21
-107.685
0
LINE
8
BLACK
6
CONTINUOUS
10
57.9036
20
-107.685
11
57.7131
21
-107.78
0
LINE
8
BLACK
6
CONTINUOUS
10
57.7131
20
-107.78
11
57.3321
21
-107.78
0
LINE
8
BLACK
6
CONTINUOUS
10
57.3321
20
-107.78
11
57.1417
21
-107.685
0
LINE
8
BLACK
6
CONTINUOUS
10
59.2369
20
-107.78
11
59.0464
21
-107.685
0
LINE
8
BLACK
6
CONTINUOUS
10
59.0464
20
-107.685
11
58.9512
21
-107.494
0
LINE
8
BLACK
6
CONTINUOUS
10
58.9512
20
-107.494
11
58.9512
21
-105.78
0
LINE
8
BLACK
6
CONTINUOUS
10
60.856
20
-107.78
11
60.856
21
-106.733
0
LINE
8
BLACK
6
CONTINUOUS
10
60.856
20
-106.733
11
60.7607
21
-106.542
0
LINE
8
BLACK
6
CONTINUOUS
10
60.7607
20
-106.542
11
60.5702
21
-106.447
0
LINE
8
BLACK
6
CONTINUOUS
10
60.5702
20
-106.447
11
60.1893
21
-106.447
0
LINE
8
BLACK
6
CONTINUOUS
10
60.1893
20
-106.447
11
59.9988
21
-106.542
0
LINE
8
BLACK
6
CONTINUOUS
10
60.856
20
-107.685
11
60.6655
21
-107.78
0
LINE
8
BLACK
6
CONTINUOUS
10
60.6655
20
-107.78
11
60.1893
21
-107.78
0
LINE
8
BLACK
6
CONTINUOUS
10
60.1893
20
-107.78
11
59.9988
21
-107.685
0
LINE
8
BLACK
6
CONTINUOUS
10
59.9988
20
-107.685
11
59.9036
21
-107.494
0
LINE
8
BLACK
6
CONTINUOUS
10
59.9036
20
-107.494
11
59.9036
21
-107.304
0
LINE
8
BLACK
6
CONTINUOUS
10
59.9036
20
-107.304
11
59.9988
21
-107.114
0
LINE
8
BLACK
6
CONTINUOUS
10
59.9988
20
-107.114
11
60.1893
21
-107.018
0
LINE
8
BLACK
6
CONTINUOUS
10
60.1893
20
-107.018
11
60.6655
21
-107.018
0
LINE
8
BLACK
6
CONTINUOUS
10
60.6655
20
-107.018
11
60.856
21
-106.923
0
LINE
8
BLACK
6
CONTINUOUS
10
61.5226
20
-106.447
11
62.2845
21
-106.447
0
LINE
8
BLACK
6
CONTINUOUS
10
61.8083
20
-105.78
11
61.8083
21
-107.494
0
LINE
8
BLACK
6
CONTINUOUS
10
61.8083
20
-107.494
11
61.9036
21
-107.685
0
LINE
8
BLACK
6
CONTINUOUS
10
61.9036
20
-107.685
11
62.0941
21
-107.78
0
LINE
8
BLACK
6
CONTINUOUS
10
62.0941
20
-107.78
11
62.2845
21
-107.78
0
LINE
8
BLACK
6
CONTINUOUS
10
63.7131
20
-107.685
11
63.5226
21
-107.78
0
LINE
8
BLACK
6
CONTINUOUS
10
63.5226
20
-107.78
11
63.1417
21
-107.78
0
LINE
8
BLACK
6
CONTINUOUS
10
63.1417
20
-107.78
11
62.9512
21
-107.685
0
LINE
8
BLACK
6
CONTINUOUS
10
62.9512
20
-107.685
11
62.856
21
-107.494
0
LINE
8
BLACK
6
CONTINUOUS
10
62.856
20
-107.494
11
62.856
21
-106.733
0
LINE
8
BLACK
6
CONTINUOUS
10
62.856
20
-106.733
11
62.9512
21
-106.542
0
LINE
8
BLACK
6
CONTINUOUS
10
62.9512
20
-106.542
11
63.1417
21
-106.447
0
LINE
8
BLACK
6
CONTINUOUS
10
63.1417
20
-106.447
11
63.5226
21
-106.447
0
LINE
8
BLACK
6
CONTINUOUS
10
63.5226
20
-106.447
11
63.7131
21
-106.542
0
LINE
8
BLACK
6
CONTINUOUS
10
63.7131
20
-106.542
11
63.8083
21
-106.733
0
LINE
8
BLACK
6
CONTINUOUS
10
63.8083
20
-106.733
11
63.8083
21
-106.923
0
LINE
8
BLACK
6
CONTINUOUS
10
63.8083
20
-106.923
11
62.856
21
-107.114
0
LINE
8
BLACK
6
CONTINUOUS
10
65.5226
20
-107.78
11
65.5226
21
-105.78
0
LINE
8
BLACK
6
CONTINUOUS
10
65.5226
20
-107.685
11
65.3321
21
-107.78
0
LINE
8
BLACK
6
CONTINUOUS
10
65.3321
20
-107.78
11
64.9512
21
-107.78
0
LINE
8
BLACK
6
CONTINUOUS
10
64.9512
20
-107.78
11
64.7607
21
-107.685
0
LINE
8
BLACK
6
CONTINUOUS
10
64.7607
20
-107.685
11
64.6655
21
-107.59
0
LINE
8
BLACK
6
CONTINUOUS
10
64.6655
20
-107.59
11
64.5702
21
-107.399
0
LINE
8
BLACK
6
CONTINUOUS
10
64.5702
20
-107.399
11
64.5702
21
-106.828
0
LINE
8
BLACK
6
CONTINUOUS
10
64.5702
20
-106.828
11
64.6655
21
-106.637
0
LINE
8
BLACK
6
CONTINUOUS
10
64.6655
20
-106.637
11
64.7607
21
-106.542
0
LINE
8
BLACK
6
CONTINUOUS
10
64.7607
20
-106.542
11
64.9512
21
-106.447
0
LINE
8
BLACK
6
CONTINUOUS
10
64.9512
20
-106.447
11
65.3321
21
-106.447
0
LINE
8
BLACK
6
CONTINUOUS
10
65.3321
20
-106.447
11
65.5226
21
-106.542
0
LINE
8
BLACK
6
CONTINUOUS
10
66.2845
20
-108.542
11
66.3798
21
-108.447
0
LINE
8
BLACK
6
CONTINUOUS
10
66.3798
20
-108.447
11
66.5702
21
-108.161
0
LINE
8
BLACK
6
CONTINUOUS
10
66.5702
20
-108.161
11
66.6655
21
-107.971
0
LINE
8
BLACK
6
CONTINUOUS
10
66.6655
20
-107.971
11
66.7607
21
-107.685
0
LINE
8
BLACK
6
CONTINUOUS
10
66.7607
20
-107.685
11
66.856
21
-107.209
0
LINE
8
BLACK
6
CONTINUOUS
10
66.856
20
-107.209
11
66.856
21
-106.828
0
LINE
8
BLACK
6
CONTINUOUS
10
66.856
20
-106.828
11
66.7607
21
-106.352
0
LINE
8
BLACK
6
CONTINUOUS
10
66.7607
20
-106.352
11
66.6655
21
-106.066
0
LINE
8
BLACK
6
CONTINUOUS
10
66.6655
20
-106.066
11
66.5702
21
-105.875
0
LINE
8
BLACK
6
CONTINUOUS
10
66.5702
20
-105.875
11
66.3798
21
-105.59
0
LINE
8
BLACK
6
CONTINUOUS
10
66.3798
20
-105.59
11
66.2845
21
-105.494
  0
ENDSEC
  0
EOF
