G04 #@! TF.GenerationSoftware,KiCad,Pcbnew,(5.1.10)-1*
G04 #@! TF.CreationDate,2021-10-10T16:54:22+07:00*
G04 #@! TF.ProjectId,averange65,61766572-616e-4676-9536-352e6b696361,rev?*
G04 #@! TF.SameCoordinates,Original*
G04 #@! TF.FileFunction,Legend,Bot*
G04 #@! TF.FilePolarity,Positive*
%FSLAX46Y46*%
G04 Gerber Fmt 4.6, Leading zero omitted, Abs format (unit mm)*
G04 Created by KiCad (PCBNEW (5.1.10)-1) date 2021-10-10 16:54:22*
%MOMM*%
%LPD*%
G01*
G04 APERTURE LIST*
%ADD10C,0.187500*%
%ADD11C,2.000000*%
%ADD12C,0.120000*%
%ADD13C,0.100000*%
%ADD14C,0.150000*%
G04 APERTURE END LIST*
D10*
X17766219Y-70903995D02*
X17766219Y-70153995D01*
X17587647Y-70153995D01*
X17480505Y-70189710D01*
X17409076Y-70261138D01*
X17373362Y-70332567D01*
X17337647Y-70475424D01*
X17337647Y-70582567D01*
X17373362Y-70725424D01*
X17409076Y-70796852D01*
X17480505Y-70868281D01*
X17587647Y-70903995D01*
X17766219Y-70903995D01*
X17016219Y-70618281D02*
X16444790Y-70618281D01*
X16730505Y-70903995D02*
X16730505Y-70332567D01*
X15980274Y-70903995D02*
X15980274Y-70153995D01*
X15801702Y-70153995D01*
X15694560Y-70189710D01*
X15623131Y-70261138D01*
X15587417Y-70332567D01*
X15551702Y-70475424D01*
X15551702Y-70582567D01*
X15587417Y-70725424D01*
X15623131Y-70796852D01*
X15694560Y-70868281D01*
X15801702Y-70903995D01*
X15980274Y-70903995D01*
X15230274Y-70618281D02*
X14658845Y-70618281D01*
X20653508Y-77333490D02*
X20724937Y-77297775D01*
X20832080Y-77297775D01*
X20939222Y-77333490D01*
X21010651Y-77404918D01*
X21046365Y-77476347D01*
X21082080Y-77619204D01*
X21082080Y-77726347D01*
X21046365Y-77869204D01*
X21010651Y-77940632D01*
X20939222Y-78012061D01*
X20832080Y-78047775D01*
X20760651Y-78047775D01*
X20653508Y-78012061D01*
X20617794Y-77976347D01*
X20617794Y-77726347D01*
X20760651Y-77726347D01*
X20296365Y-78047775D02*
X20296365Y-77297775D01*
X19867794Y-78047775D01*
X19867794Y-77297775D01*
X19510651Y-78047775D02*
X19510651Y-77297775D01*
X19332080Y-77297775D01*
X19224937Y-77333490D01*
X19153508Y-77404918D01*
X19117794Y-77476347D01*
X19082080Y-77619204D01*
X19082080Y-77726347D01*
X19117794Y-77869204D01*
X19153508Y-77940632D01*
X19224937Y-78012061D01*
X19332080Y-78047775D01*
X19510651Y-78047775D01*
X13938300Y-77297775D02*
X13688300Y-78047775D01*
X13438300Y-77297775D01*
X12759728Y-77976347D02*
X12795442Y-78012061D01*
X12902585Y-78047775D01*
X12974014Y-78047775D01*
X13081157Y-78012061D01*
X13152585Y-77940632D01*
X13188300Y-77869204D01*
X13224014Y-77726347D01*
X13224014Y-77619204D01*
X13188300Y-77476347D01*
X13152585Y-77404918D01*
X13081157Y-77333490D01*
X12974014Y-77297775D01*
X12902585Y-77297775D01*
X12795442Y-77333490D01*
X12759728Y-77369204D01*
X12009728Y-77976347D02*
X12045442Y-78012061D01*
X12152585Y-78047775D01*
X12224014Y-78047775D01*
X12331157Y-78012061D01*
X12402585Y-77940632D01*
X12438300Y-77869204D01*
X12474014Y-77726347D01*
X12474014Y-77619204D01*
X12438300Y-77476347D01*
X12402585Y-77404918D01*
X12331157Y-77333490D01*
X12224014Y-77297775D01*
X12152585Y-77297775D01*
X12045442Y-77333490D01*
X12009728Y-77369204D01*
D11*
X124304601Y-38942500D02*
G75*
G02*
X125635679Y-39748951I1044J-1500000D01*
G01*
X131221822Y-39748952D02*
G75*
G02*
X132551856Y-38942500I1330034J-693548D01*
G01*
X277039856Y-133142500D02*
X282816250Y-133142500D01*
X8392645Y-133142500D02*
X2616250Y-133142500D01*
X95192645Y-133142500D02*
X56351856Y-133142500D01*
X229080645Y-133142500D02*
X190238856Y-133142500D01*
X270123679Y-132336048D02*
G75*
G02*
X268793645Y-133142500I-1330034J693548D01*
G01*
X270123677Y-132336048D02*
G75*
G02*
X275709822Y-132336048I2793073J-1456452D01*
G01*
X277039856Y-133142500D02*
G75*
G02*
X275709822Y-132336048I0J1500000D01*
G01*
X183322679Y-132336048D02*
G75*
G02*
X181992645Y-133142500I-1330034J693548D01*
G01*
X183322677Y-132336048D02*
G75*
G02*
X188908822Y-132336048I2793073J-1456452D01*
G01*
X190238856Y-133142500D02*
G75*
G02*
X188908822Y-132336048I0J1500000D01*
G01*
X103438856Y-133142500D02*
G75*
G02*
X102108822Y-132336048I0J1500000D01*
G01*
X96522677Y-132336048D02*
G75*
G02*
X102108822Y-132336048I2793073J-1456452D01*
G01*
X96522679Y-132336048D02*
G75*
G02*
X95192645Y-133142500I-1330034J693548D01*
G01*
X16638856Y-133142500D02*
G75*
G02*
X15308822Y-132336048I0J1500000D01*
G01*
X9722677Y-132336048D02*
G75*
G02*
X15308822Y-132336048I2793073J-1456452D01*
G01*
X9722679Y-132336048D02*
G75*
G02*
X8392645Y-133142500I-1330034J693548D01*
G01*
X14639356Y-38942500D02*
X33818144Y-38942500D01*
X124305644Y-38942500D02*
X103438932Y-38942500D01*
X181993720Y-38942500D02*
X132551932Y-38942500D01*
X277039532Y-38942500D02*
X282816250Y-38942500D01*
X275709497Y-39748951D02*
G75*
G02*
X270123355Y-39748951I-2793071J1456451D01*
G01*
X268793320Y-38942500D02*
G75*
G02*
X270123355Y-39748951I1J-1500000D01*
G01*
X275709498Y-39748952D02*
G75*
G02*
X277039532Y-38942500I1330034J-693548D01*
G01*
X188909897Y-39748951D02*
G75*
G02*
X183323755Y-39748951I-2793071J1456451D01*
G01*
X181993720Y-38942500D02*
G75*
G02*
X183323755Y-39748951I1J-1500000D01*
G01*
X188909898Y-39748952D02*
G75*
G02*
X190239932Y-38942500I1330034J-693548D01*
G01*
X102108897Y-39748951D02*
G75*
G02*
X96522755Y-39748951I-2793071J1456451D01*
G01*
X95192720Y-38942500D02*
G75*
G02*
X96522755Y-39748951I1J-1500000D01*
G01*
X102108898Y-39748952D02*
G75*
G02*
X103438932Y-38942500I1330034J-693548D01*
G01*
X13309321Y-39748951D02*
G75*
G02*
X7723179Y-39748951I-2793071J1456451D01*
G01*
X6393144Y-38942500D02*
G75*
G02*
X7723179Y-39748951I1J-1500000D01*
G01*
X13309322Y-39748952D02*
G75*
G02*
X14639356Y-38942500I1330034J-693548D01*
G01*
X285066250Y-130892500D02*
G75*
G02*
X282816250Y-133142500I-2250000J0D01*
G01*
X282816250Y-38942500D02*
G75*
G02*
X285066250Y-41192500I0J-2250000D01*
G01*
X250284322Y-39748952D02*
G75*
G02*
X251614356Y-38942500I1330034J-693548D01*
G01*
X230410677Y-132336048D02*
G75*
G02*
X235996822Y-132336048I2793073J-1456452D01*
G01*
X237326856Y-133142500D02*
G75*
G02*
X235996822Y-132336048I0J1500000D01*
G01*
X243368144Y-38942500D02*
G75*
G02*
X244698179Y-39748951I1J-1500000D01*
G01*
X33818144Y-38942500D02*
G75*
G02*
X35148179Y-39748951I1J-1500000D01*
G01*
X181992645Y-133142500D02*
X103438856Y-133142500D01*
X268793645Y-133142500D02*
X237326856Y-133142500D01*
X268793320Y-38942500D02*
X251614356Y-38942500D01*
X366250Y-41192500D02*
G75*
G02*
X2616250Y-38942500I2250000J0D01*
G01*
X243368144Y-38942500D02*
X190239932Y-38942500D01*
X366250Y-130892500D02*
X366250Y-41192500D01*
X40734321Y-39748951D02*
G75*
G02*
X35148179Y-39748951I-2793071J1456451D01*
G01*
X49435677Y-132336048D02*
G75*
G02*
X55021822Y-132336048I2793073J-1456452D01*
G01*
X2616250Y-133142500D02*
G75*
G02*
X366250Y-130892500I0J2250000D01*
G01*
X95192720Y-38942500D02*
X42064356Y-38942500D01*
X48105645Y-133142500D02*
X16638856Y-133142500D01*
X40734322Y-39748952D02*
G75*
G02*
X42064356Y-38942500I1330034J-693548D01*
G01*
X49435679Y-132336048D02*
G75*
G02*
X48105645Y-133142500I-1330034J693548D01*
G01*
X56351856Y-133142500D02*
G75*
G02*
X55021822Y-132336048I0J1500000D01*
G01*
X285066250Y-130892500D02*
X285066250Y-41192500D01*
X250284321Y-39748951D02*
G75*
G02*
X244698179Y-39748951I-2793071J1456451D01*
G01*
X6393144Y-38942500D02*
X2616250Y-38942500D01*
X131221821Y-39748951D02*
G75*
G02*
X125635679Y-39748951I-2793071J1456451D01*
G01*
X230410679Y-132336048D02*
G75*
G02*
X229080645Y-133142500I-1330034J693548D01*
G01*
D12*
X32559380Y-81392130D02*
X32559380Y-84692130D01*
X32559380Y-84692130D02*
X28559380Y-84692130D01*
X19364250Y-93544500D02*
X18164250Y-93544500D01*
X18164250Y-95304500D02*
X19364250Y-95304500D01*
D13*
X18914250Y-94624500D02*
X19014250Y-94224500D01*
X18814250Y-94224500D02*
X18914250Y-94624500D01*
X18614250Y-94224500D02*
X18714250Y-94624500D01*
X18414250Y-94224500D02*
X18514250Y-94624500D01*
X18514250Y-94624500D02*
X18614250Y-94224500D01*
X19014250Y-94224500D02*
X19114250Y-94624500D01*
X18714250Y-94624500D02*
X18814250Y-94224500D01*
D12*
X19364250Y-95544500D02*
X18164250Y-95544500D01*
X18164250Y-97304500D02*
X19364250Y-97304500D01*
D13*
X18914250Y-96624500D02*
X19014250Y-96224500D01*
X18814250Y-96224500D02*
X18914250Y-96624500D01*
X18614250Y-96224500D02*
X18714250Y-96624500D01*
X18414250Y-96224500D02*
X18514250Y-96624500D01*
X18514250Y-96624500D02*
X18614250Y-96224500D01*
X19014250Y-96224500D02*
X19114250Y-96624500D01*
X18714250Y-96624500D02*
X18814250Y-96224500D01*
D12*
X41696750Y-100047500D02*
X41696750Y-101247500D01*
X43456750Y-101247500D02*
X43456750Y-100047500D01*
D13*
X42776750Y-100497500D02*
X42376750Y-100397500D01*
X42376750Y-100597500D02*
X42776750Y-100497500D01*
X42376750Y-100797500D02*
X42776750Y-100697500D01*
X42376750Y-100997500D02*
X42776750Y-100897500D01*
X42776750Y-100897500D02*
X42376750Y-100797500D01*
X42376750Y-100397500D02*
X42776750Y-100297500D01*
X42776750Y-100697500D02*
X42376750Y-100597500D01*
D12*
X23200250Y-75146500D02*
X23200250Y-73946500D01*
X21440250Y-73946500D02*
X21440250Y-75146500D01*
D13*
X22120250Y-74696500D02*
X22520250Y-74796500D01*
X22520250Y-74596500D02*
X22120250Y-74696500D01*
X22520250Y-74396500D02*
X22120250Y-74496500D01*
X22520250Y-74196500D02*
X22120250Y-74296500D01*
X22120250Y-74296500D02*
X22520250Y-74396500D01*
X22520250Y-74796500D02*
X22120250Y-74896500D01*
X22120250Y-74496500D02*
X22520250Y-74596500D01*
D12*
X21714597Y-93918023D02*
X22914597Y-93918023D01*
X22914597Y-92158023D02*
X21714597Y-92158023D01*
D13*
X22164597Y-92838023D02*
X22064597Y-93238023D01*
X22264597Y-93238023D02*
X22164597Y-92838023D01*
X22464597Y-93238023D02*
X22364597Y-92838023D01*
X22664597Y-93238023D02*
X22564597Y-92838023D01*
X22564597Y-92838023D02*
X22464597Y-93238023D01*
X22064597Y-93238023D02*
X21964597Y-92838023D01*
X22364597Y-92838023D02*
X22264597Y-93238023D01*
D12*
X21714597Y-91983246D02*
X22914597Y-91983246D01*
X22914597Y-90223246D02*
X21714597Y-90223246D01*
D13*
X22164597Y-90903246D02*
X22064597Y-91303246D01*
X22264597Y-91303246D02*
X22164597Y-90903246D01*
X22464597Y-91303246D02*
X22364597Y-90903246D01*
X22664597Y-91303246D02*
X22564597Y-90903246D01*
X22564597Y-90903246D02*
X22464597Y-91303246D01*
X22064597Y-91303246D02*
X21964597Y-90903246D01*
X22364597Y-90903246D02*
X22264597Y-91303246D01*
D12*
X13844071Y-52105008D02*
X13844071Y-53305008D01*
X15604071Y-53305008D02*
X15604071Y-52105008D01*
D13*
X14924071Y-52555008D02*
X14524071Y-52455008D01*
X14524071Y-52655008D02*
X14924071Y-52555008D01*
X14524071Y-52855008D02*
X14924071Y-52755008D01*
X14524071Y-53055008D02*
X14924071Y-52955008D01*
X14924071Y-52955008D02*
X14524071Y-52855008D01*
X14524071Y-52455008D02*
X14924071Y-52355008D01*
X14924071Y-52755008D02*
X14524071Y-52655008D01*
D12*
X11858132Y-52105008D02*
X11858132Y-53305008D01*
X13618132Y-53305008D02*
X13618132Y-52105008D01*
D13*
X12938132Y-52555008D02*
X12538132Y-52455008D01*
X12538132Y-52655008D02*
X12938132Y-52555008D01*
X12538132Y-52855008D02*
X12938132Y-52755008D01*
X12538132Y-53055008D02*
X12938132Y-52955008D01*
X12938132Y-52955008D02*
X12538132Y-52855008D01*
X12538132Y-52455008D02*
X12938132Y-52355008D01*
X12938132Y-52755008D02*
X12538132Y-52655008D01*
D12*
X37656250Y-87411000D02*
X36956250Y-87411000D01*
X36956250Y-88611000D02*
X37656250Y-88611000D01*
X21815768Y-89470811D02*
X22515768Y-89470811D01*
X22515768Y-88270811D02*
X21815768Y-88270811D01*
X25954880Y-84785130D02*
X26654880Y-84785130D01*
X26654880Y-83585130D02*
X25954880Y-83585130D01*
X36150706Y-95662000D02*
X36150706Y-96362000D01*
X37350706Y-96362000D02*
X37350706Y-95662000D01*
X25954880Y-83007130D02*
X26654880Y-83007130D01*
X26654880Y-81807130D02*
X25954880Y-81807130D01*
X33134380Y-82755630D02*
X33134380Y-83455630D01*
X34334380Y-83455630D02*
X34334380Y-82755630D01*
X24323750Y-94697500D02*
X24323750Y-95397500D01*
X25523750Y-95397500D02*
X25523750Y-94697500D01*
D14*
X266110218Y-128055072D02*
X267110218Y-128055072D01*
X267610218Y-127555072D02*
X267610218Y-127055072D01*
X267110218Y-126555072D02*
X266110218Y-126555072D01*
X265610218Y-127055072D02*
X265610218Y-127555072D01*
D13*
G36*
X259960218Y-131105072D02*
G01*
X260760218Y-131105072D01*
X260760218Y-131905072D01*
X259960218Y-131105072D01*
G37*
X259960218Y-131105072D02*
X260760218Y-131105072D01*
X260760218Y-131905072D01*
X259960218Y-131105072D01*
D14*
X267610218Y-127055072D02*
G75*
G03*
X267110218Y-126555072I-500000J0D01*
G01*
X266110218Y-126555072D02*
G75*
G03*
X265610218Y-127055072I0J-500000D01*
G01*
X265610218Y-127555072D02*
G75*
G03*
X266110218Y-128055072I500000J0D01*
G01*
X267110218Y-128055072D02*
G75*
G03*
X267610218Y-127555072I0J500000D01*
G01*
X244678950Y-128055072D02*
X245678950Y-128055072D01*
X246178950Y-127555072D02*
X246178950Y-127055072D01*
X245678950Y-126555072D02*
X244678950Y-126555072D01*
X244178950Y-127055072D02*
X244178950Y-127555072D01*
D13*
G36*
X238528950Y-131105072D02*
G01*
X239328950Y-131105072D01*
X239328950Y-131905072D01*
X238528950Y-131105072D01*
G37*
X238528950Y-131105072D02*
X239328950Y-131105072D01*
X239328950Y-131905072D01*
X238528950Y-131105072D01*
D14*
X246178950Y-127055072D02*
G75*
G03*
X245678950Y-126555072I-500000J0D01*
G01*
X244678950Y-126555072D02*
G75*
G03*
X244178950Y-127055072I0J-500000D01*
G01*
X244178950Y-127555072D02*
G75*
G03*
X244678950Y-128055072I500000J0D01*
G01*
X245678950Y-128055072D02*
G75*
G03*
X246178950Y-127555072I0J500000D01*
G01*
X213127361Y-127459759D02*
X214127361Y-127459759D01*
X214627361Y-126959759D02*
X214627361Y-126459759D01*
X214127361Y-125959759D02*
X213127361Y-125959759D01*
X212627361Y-126459759D02*
X212627361Y-126959759D01*
D13*
G36*
X206977361Y-130509759D02*
G01*
X207777361Y-130509759D01*
X207777361Y-131309759D01*
X206977361Y-130509759D01*
G37*
X206977361Y-130509759D02*
X207777361Y-130509759D01*
X207777361Y-131309759D01*
X206977361Y-130509759D01*
D14*
X214627361Y-126459759D02*
G75*
G03*
X214127361Y-125959759I-500000J0D01*
G01*
X213127361Y-125959759D02*
G75*
G03*
X212627361Y-126459759I0J-500000D01*
G01*
X212627361Y-126959759D02*
G75*
G03*
X213127361Y-127459759I500000J0D01*
G01*
X214127361Y-127459759D02*
G75*
G03*
X214627361Y-126959759I0J500000D01*
G01*
X155382000Y-124483194D02*
X156382000Y-124483194D01*
X156882000Y-123983194D02*
X156882000Y-123483194D01*
X156382000Y-122983194D02*
X155382000Y-122983194D01*
X154882000Y-123483194D02*
X154882000Y-123983194D01*
D13*
G36*
X149232000Y-127533194D02*
G01*
X150032000Y-127533194D01*
X150032000Y-128333194D01*
X149232000Y-127533194D01*
G37*
X149232000Y-127533194D02*
X150032000Y-127533194D01*
X150032000Y-128333194D01*
X149232000Y-127533194D01*
D14*
X156882000Y-123483194D02*
G75*
G03*
X156382000Y-122983194I-500000J0D01*
G01*
X155382000Y-122983194D02*
G75*
G03*
X154882000Y-123483194I0J-500000D01*
G01*
X154882000Y-123983194D02*
G75*
G03*
X155382000Y-124483194I500000J0D01*
G01*
X156382000Y-124483194D02*
G75*
G03*
X156882000Y-123983194I0J500000D01*
G01*
X116686655Y-124483194D02*
X117686655Y-124483194D01*
X118186655Y-123983194D02*
X118186655Y-123483194D01*
X117686655Y-122983194D02*
X116686655Y-122983194D01*
X116186655Y-123483194D02*
X116186655Y-123983194D01*
D13*
G36*
X110536655Y-127533194D02*
G01*
X111336655Y-127533194D01*
X111336655Y-128333194D01*
X110536655Y-127533194D01*
G37*
X110536655Y-127533194D02*
X111336655Y-127533194D01*
X111336655Y-128333194D01*
X110536655Y-127533194D01*
D14*
X118186655Y-123483194D02*
G75*
G03*
X117686655Y-122983194I-500000J0D01*
G01*
X116686655Y-122983194D02*
G75*
G03*
X116186655Y-123483194I0J-500000D01*
G01*
X116186655Y-123983194D02*
G75*
G03*
X116686655Y-124483194I500000J0D01*
G01*
X117686655Y-124483194D02*
G75*
G03*
X118186655Y-123983194I0J500000D01*
G01*
X83944440Y-123292568D02*
X84944440Y-123292568D01*
X85444440Y-122792568D02*
X85444440Y-122292568D01*
X84944440Y-121792568D02*
X83944440Y-121792568D01*
X83444440Y-122292568D02*
X83444440Y-122792568D01*
D13*
G36*
X77794440Y-126342568D02*
G01*
X78594440Y-126342568D01*
X78594440Y-127142568D01*
X77794440Y-126342568D01*
G37*
X77794440Y-126342568D02*
X78594440Y-126342568D01*
X78594440Y-127142568D01*
X77794440Y-126342568D01*
D14*
X85444440Y-122292568D02*
G75*
G03*
X84944440Y-121792568I-500000J0D01*
G01*
X83944440Y-121792568D02*
G75*
G03*
X83444440Y-122292568I0J-500000D01*
G01*
X83444440Y-122792568D02*
G75*
G03*
X83944440Y-123292568I500000J0D01*
G01*
X84944440Y-123292568D02*
G75*
G03*
X85444440Y-122792568I0J500000D01*
G01*
X47807200Y-123383690D02*
X47807200Y-122383690D01*
X47307200Y-121883690D02*
X46807200Y-121883690D01*
X46307200Y-122383690D02*
X46307200Y-123383690D01*
X46807200Y-123883690D02*
X47307200Y-123883690D01*
D13*
G36*
X50857200Y-129533690D02*
G01*
X50857200Y-128733690D01*
X51657200Y-128733690D01*
X50857200Y-129533690D01*
G37*
X50857200Y-129533690D02*
X50857200Y-128733690D01*
X51657200Y-128733690D01*
X50857200Y-129533690D01*
D14*
X46807200Y-121883690D02*
G75*
G03*
X46307200Y-122383690I0J-500000D01*
G01*
X46307200Y-123383690D02*
G75*
G03*
X46807200Y-123883690I500000J0D01*
G01*
X47307200Y-123883690D02*
G75*
G03*
X47807200Y-123383690I0J500000D01*
G01*
X47807200Y-122383690D02*
G75*
G03*
X47307200Y-121883690I-500000J0D01*
G01*
X20841450Y-113768020D02*
X21841450Y-113768020D01*
X22341450Y-113268020D02*
X22341450Y-112768020D01*
X21841450Y-112268020D02*
X20841450Y-112268020D01*
X20341450Y-112768020D02*
X20341450Y-113268020D01*
D13*
G36*
X14691450Y-116818020D02*
G01*
X15491450Y-116818020D01*
X15491450Y-117618020D01*
X14691450Y-116818020D01*
G37*
X14691450Y-116818020D02*
X15491450Y-116818020D01*
X15491450Y-117618020D01*
X14691450Y-116818020D01*
D14*
X22341450Y-112768020D02*
G75*
G03*
X21841450Y-112268020I-500000J0D01*
G01*
X20841450Y-112268020D02*
G75*
G03*
X20341450Y-112768020I0J-500000D01*
G01*
X20341450Y-113268020D02*
G75*
G03*
X20841450Y-113768020I500000J0D01*
G01*
X21841450Y-113768020D02*
G75*
G03*
X22341450Y-113268020I0J500000D01*
G01*
X6644376Y-107637865D02*
X6644376Y-108637865D01*
X7144376Y-109137865D02*
X7644376Y-109137865D01*
X8144376Y-108637865D02*
X8144376Y-107637865D01*
X7644376Y-107137865D02*
X7144376Y-107137865D01*
D13*
G36*
X3594376Y-101487865D02*
G01*
X3594376Y-102287865D01*
X2794376Y-102287865D01*
X3594376Y-101487865D01*
G37*
X3594376Y-101487865D02*
X3594376Y-102287865D01*
X2794376Y-102287865D01*
X3594376Y-101487865D01*
D14*
X7644376Y-109137865D02*
G75*
G03*
X8144376Y-108637865I0J500000D01*
G01*
X8144376Y-107637865D02*
G75*
G03*
X7644376Y-107137865I-500000J0D01*
G01*
X7144376Y-107137865D02*
G75*
G03*
X6644376Y-107637865I0J-500000D01*
G01*
X6644376Y-108637865D02*
G75*
G03*
X7144376Y-109137865I500000J0D01*
G01*
X6644520Y-76086600D02*
X6644520Y-77086600D01*
X7144520Y-77586600D02*
X7644520Y-77586600D01*
X8144520Y-77086600D02*
X8144520Y-76086600D01*
X7644520Y-75586600D02*
X7144520Y-75586600D01*
D13*
G36*
X3594520Y-69936600D02*
G01*
X3594520Y-70736600D01*
X2794520Y-70736600D01*
X3594520Y-69936600D01*
G37*
X3594520Y-69936600D02*
X3594520Y-70736600D01*
X2794520Y-70736600D01*
X3594520Y-69936600D01*
D14*
X7644520Y-77586600D02*
G75*
G03*
X8144520Y-77086600I0J500000D01*
G01*
X8144520Y-76086600D02*
G75*
G03*
X7644520Y-75586600I-500000J0D01*
G01*
X7144520Y-75586600D02*
G75*
G03*
X6644520Y-76086600I0J-500000D01*
G01*
X6644520Y-77086600D02*
G75*
G03*
X7144520Y-77586600I500000J0D01*
G01*
X278788356Y-110881621D02*
X278788356Y-109881621D01*
X278288356Y-109381621D02*
X277788356Y-109381621D01*
X277288356Y-109881621D02*
X277288356Y-110881621D01*
X277788356Y-111381621D02*
X278288356Y-111381621D01*
D13*
G36*
X281838356Y-117031621D02*
G01*
X281838356Y-116231621D01*
X282638356Y-116231621D01*
X281838356Y-117031621D01*
G37*
X281838356Y-117031621D02*
X281838356Y-116231621D01*
X282638356Y-116231621D01*
X281838356Y-117031621D01*
D14*
X277788356Y-109381621D02*
G75*
G03*
X277288356Y-109881621I0J-500000D01*
G01*
X277288356Y-110881621D02*
G75*
G03*
X277788356Y-111381621I500000J0D01*
G01*
X278288356Y-111381621D02*
G75*
G03*
X278788356Y-110881621I0J500000D01*
G01*
X278788356Y-109881621D02*
G75*
G03*
X278288356Y-109381621I-500000J0D01*
G01*
X279978982Y-70400337D02*
X279978982Y-69400337D01*
X279478982Y-68900337D02*
X278978982Y-68900337D01*
X278478982Y-69400337D02*
X278478982Y-70400337D01*
X278978982Y-70900337D02*
X279478982Y-70900337D01*
D13*
G36*
X283028982Y-76550337D02*
G01*
X283028982Y-75750337D01*
X283828982Y-75750337D01*
X283028982Y-76550337D01*
G37*
X283028982Y-76550337D02*
X283028982Y-75750337D01*
X283828982Y-75750337D01*
X283028982Y-76550337D01*
D14*
X278978982Y-68900337D02*
G75*
G03*
X278478982Y-69400337I0J-500000D01*
G01*
X278478982Y-70400337D02*
G75*
G03*
X278978982Y-70900337I500000J0D01*
G01*
X279478982Y-70900337D02*
G75*
G03*
X279978982Y-70400337I0J500000D01*
G01*
X279978982Y-69400337D02*
G75*
G03*
X279478982Y-68900337I-500000J0D01*
G01*
X263400844Y-58317512D02*
X262400844Y-58317512D01*
X261900844Y-58817512D02*
X261900844Y-59317512D01*
X262400844Y-59817512D02*
X263400844Y-59817512D01*
X263900844Y-59317512D02*
X263900844Y-58817512D01*
D13*
G36*
X269550844Y-55267512D02*
G01*
X268750844Y-55267512D01*
X268750844Y-54467512D01*
X269550844Y-55267512D01*
G37*
X269550844Y-55267512D02*
X268750844Y-55267512D01*
X268750844Y-54467512D01*
X269550844Y-55267512D01*
D14*
X261900844Y-59317512D02*
G75*
G03*
X262400844Y-59817512I500000J0D01*
G01*
X263400844Y-59817512D02*
G75*
G03*
X263900844Y-59317512I0J500000D01*
G01*
X263900844Y-58817512D02*
G75*
G03*
X263400844Y-58317512I-500000J0D01*
G01*
X262400844Y-58317512D02*
G75*
G03*
X261900844Y-58817512I0J-500000D01*
G01*
X248342410Y-48702110D02*
X248342410Y-49702110D01*
X248842410Y-50202110D02*
X249342410Y-50202110D01*
X249842410Y-49702110D02*
X249842410Y-48702110D01*
X249342410Y-48202110D02*
X248842410Y-48202110D01*
D13*
G36*
X245292410Y-42552110D02*
G01*
X245292410Y-43352110D01*
X244492410Y-43352110D01*
X245292410Y-42552110D01*
G37*
X245292410Y-42552110D02*
X245292410Y-43352110D01*
X244492410Y-43352110D01*
X245292410Y-42552110D01*
D14*
X249342410Y-50202110D02*
G75*
G03*
X249842410Y-49702110I0J500000D01*
G01*
X249842410Y-48702110D02*
G75*
G03*
X249342410Y-48202110I-500000J0D01*
G01*
X248842410Y-48202110D02*
G75*
G03*
X248342410Y-48702110I0J-500000D01*
G01*
X248342410Y-49702110D02*
G75*
G03*
X248842410Y-50202110I500000J0D01*
G01*
X210242250Y-48702110D02*
X210242250Y-49702110D01*
X210742250Y-50202110D02*
X211242250Y-50202110D01*
X211742250Y-49702110D02*
X211742250Y-48702110D01*
X211242250Y-48202110D02*
X210742250Y-48202110D01*
D13*
G36*
X207192250Y-42552110D02*
G01*
X207192250Y-43352110D01*
X206392250Y-43352110D01*
X207192250Y-42552110D01*
G37*
X207192250Y-42552110D02*
X207192250Y-43352110D01*
X206392250Y-43352110D01*
X207192250Y-42552110D01*
D14*
X211242250Y-50202110D02*
G75*
G03*
X211742250Y-49702110I0J500000D01*
G01*
X211742250Y-48702110D02*
G75*
G03*
X211242250Y-48202110I-500000J0D01*
G01*
X210742250Y-48202110D02*
G75*
G03*
X210242250Y-48702110I0J-500000D01*
G01*
X210242250Y-49702110D02*
G75*
G03*
X210742250Y-50202110I500000J0D01*
G01*
X172142090Y-48702110D02*
X172142090Y-49702110D01*
X172642090Y-50202110D02*
X173142090Y-50202110D01*
X173642090Y-49702110D02*
X173642090Y-48702110D01*
X173142090Y-48202110D02*
X172642090Y-48202110D01*
D13*
G36*
X169092090Y-42552110D02*
G01*
X169092090Y-43352110D01*
X168292090Y-43352110D01*
X169092090Y-42552110D01*
G37*
X169092090Y-42552110D02*
X169092090Y-43352110D01*
X168292090Y-43352110D01*
X169092090Y-42552110D01*
D14*
X173142090Y-50202110D02*
G75*
G03*
X173642090Y-49702110I0J500000D01*
G01*
X173642090Y-48702110D02*
G75*
G03*
X173142090Y-48202110I-500000J0D01*
G01*
X172642090Y-48202110D02*
G75*
G03*
X172142090Y-48702110I0J-500000D01*
G01*
X172142090Y-49702110D02*
G75*
G03*
X172642090Y-50202110I500000J0D01*
G01*
X134041930Y-48702110D02*
X134041930Y-49702110D01*
X134541930Y-50202110D02*
X135041930Y-50202110D01*
X135541930Y-49702110D02*
X135541930Y-48702110D01*
X135041930Y-48202110D02*
X134541930Y-48202110D01*
D13*
G36*
X130991930Y-42552110D02*
G01*
X130991930Y-43352110D01*
X130191930Y-43352110D01*
X130991930Y-42552110D01*
G37*
X130991930Y-42552110D02*
X130991930Y-43352110D01*
X130191930Y-43352110D01*
X130991930Y-42552110D01*
D14*
X135041930Y-50202110D02*
G75*
G03*
X135541930Y-49702110I0J500000D01*
G01*
X135541930Y-48702110D02*
G75*
G03*
X135041930Y-48202110I-500000J0D01*
G01*
X134541930Y-48202110D02*
G75*
G03*
X134041930Y-48702110I0J-500000D01*
G01*
X134041930Y-49702110D02*
G75*
G03*
X134541930Y-50202110I500000J0D01*
G01*
X95941770Y-48702110D02*
X95941770Y-49702110D01*
X96441770Y-50202110D02*
X96941770Y-50202110D01*
X97441770Y-49702110D02*
X97441770Y-48702110D01*
X96941770Y-48202110D02*
X96441770Y-48202110D01*
D13*
G36*
X92891770Y-42552110D02*
G01*
X92891770Y-43352110D01*
X92091770Y-43352110D01*
X92891770Y-42552110D01*
G37*
X92891770Y-42552110D02*
X92891770Y-43352110D01*
X92091770Y-43352110D01*
X92891770Y-42552110D01*
D14*
X96941770Y-50202110D02*
G75*
G03*
X97441770Y-49702110I0J500000D01*
G01*
X97441770Y-48702110D02*
G75*
G03*
X96941770Y-48202110I-500000J0D01*
G01*
X96441770Y-48202110D02*
G75*
G03*
X95941770Y-48702110I0J-500000D01*
G01*
X95941770Y-49702110D02*
G75*
G03*
X96441770Y-50202110I500000J0D01*
G01*
X57841610Y-48702110D02*
X57841610Y-49702110D01*
X58341610Y-50202110D02*
X58841610Y-50202110D01*
X59341610Y-49702110D02*
X59341610Y-48702110D01*
X58841610Y-48202110D02*
X58341610Y-48202110D01*
D13*
G36*
X54791610Y-42552110D02*
G01*
X54791610Y-43352110D01*
X53991610Y-43352110D01*
X54791610Y-42552110D01*
G37*
X54791610Y-42552110D02*
X54791610Y-43352110D01*
X53991610Y-43352110D01*
X54791610Y-42552110D01*
D14*
X58841610Y-50202110D02*
G75*
G03*
X59341610Y-49702110I0J500000D01*
G01*
X59341610Y-48702110D02*
G75*
G03*
X58841610Y-48202110I-500000J0D01*
G01*
X58341610Y-48202110D02*
G75*
G03*
X57841610Y-48702110I0J-500000D01*
G01*
X57841610Y-49702110D02*
G75*
G03*
X58341610Y-50202110I500000J0D01*
G01*
X16941450Y-58317780D02*
X15941450Y-58317780D01*
X15441450Y-58817780D02*
X15441450Y-59317780D01*
X15941450Y-59817780D02*
X16941450Y-59817780D01*
X17441450Y-59317780D02*
X17441450Y-58817780D01*
D13*
G36*
X23091450Y-55267780D02*
G01*
X22291450Y-55267780D01*
X22291450Y-54467780D01*
X23091450Y-55267780D01*
G37*
X23091450Y-55267780D02*
X22291450Y-55267780D01*
X22291450Y-54467780D01*
X23091450Y-55267780D01*
D14*
X15441450Y-59317780D02*
G75*
G03*
X15941450Y-59817780I500000J0D01*
G01*
X16941450Y-59817780D02*
G75*
G03*
X17441450Y-59317780I0J500000D01*
G01*
X17441450Y-58817780D02*
G75*
G03*
X16941450Y-58317780I-500000J0D01*
G01*
X15941450Y-58317780D02*
G75*
G03*
X15441450Y-58817780I0J-500000D01*
G01*
D13*
G36*
X243919576Y-110050369D02*
G01*
X243319576Y-110850369D01*
X244519576Y-110850369D01*
X243919576Y-110050369D01*
G37*
X243919576Y-110050369D02*
X243319576Y-110850369D01*
X244519576Y-110850369D01*
X243919576Y-110050369D01*
D14*
X244819576Y-109050331D02*
X244819576Y-108550369D01*
X243519576Y-108050369D02*
X244319576Y-108050369D01*
X243019576Y-108550407D02*
X243019576Y-109050369D01*
X243519576Y-109550369D02*
X244319576Y-109550369D01*
X243019576Y-109050369D02*
G75*
G03*
X243519576Y-109550369I500000J0D01*
G01*
X243519576Y-108050369D02*
G75*
G03*
X243019576Y-108550369I0J-500000D01*
G01*
X244819576Y-108550369D02*
G75*
G03*
X244319576Y-108050369I-500000J0D01*
G01*
X244319576Y-109550369D02*
G75*
G03*
X244819576Y-109050369I0J500000D01*
G01*
D13*
G36*
X241538324Y-110050369D02*
G01*
X240938324Y-110850369D01*
X242138324Y-110850369D01*
X241538324Y-110050369D01*
G37*
X241538324Y-110050369D02*
X240938324Y-110850369D01*
X242138324Y-110850369D01*
X241538324Y-110050369D01*
D14*
X242438324Y-109050331D02*
X242438324Y-108550369D01*
X241138324Y-108050369D02*
X241938324Y-108050369D01*
X240638324Y-108550407D02*
X240638324Y-109050369D01*
X241138324Y-109550369D02*
X241938324Y-109550369D01*
X240638324Y-109050369D02*
G75*
G03*
X241138324Y-109550369I500000J0D01*
G01*
X241138324Y-108050369D02*
G75*
G03*
X240638324Y-108550369I0J-500000D01*
G01*
X242438324Y-108550369D02*
G75*
G03*
X241938324Y-108050369I-500000J0D01*
G01*
X241938324Y-109550369D02*
G75*
G03*
X242438324Y-109050369I0J500000D01*
G01*
D13*
G36*
X211772674Y-120170690D02*
G01*
X211172674Y-120970690D01*
X212372674Y-120970690D01*
X211772674Y-120170690D01*
G37*
X211772674Y-120170690D02*
X211172674Y-120970690D01*
X212372674Y-120970690D01*
X211772674Y-120170690D01*
D14*
X212672674Y-119170652D02*
X212672674Y-118670690D01*
X211372674Y-118170690D02*
X212172674Y-118170690D01*
X210872674Y-118670728D02*
X210872674Y-119170690D01*
X211372674Y-119670690D02*
X212172674Y-119670690D01*
X210872674Y-119170690D02*
G75*
G03*
X211372674Y-119670690I500000J0D01*
G01*
X211372674Y-118170690D02*
G75*
G03*
X210872674Y-118670690I0J-500000D01*
G01*
X212672674Y-118670690D02*
G75*
G03*
X212172674Y-118170690I-500000J0D01*
G01*
X212172674Y-119670690D02*
G75*
G03*
X212672674Y-119170690I0J500000D01*
G01*
D13*
G36*
X209391422Y-120170690D02*
G01*
X208791422Y-120970690D01*
X209991422Y-120970690D01*
X209391422Y-120170690D01*
G37*
X209391422Y-120170690D02*
X208791422Y-120970690D01*
X209991422Y-120970690D01*
X209391422Y-120170690D01*
D14*
X210291422Y-119170652D02*
X210291422Y-118670690D01*
X208991422Y-118170690D02*
X209791422Y-118170690D01*
X208491422Y-118670728D02*
X208491422Y-119170690D01*
X208991422Y-119670690D02*
X209791422Y-119670690D01*
X208491422Y-119170690D02*
G75*
G03*
X208991422Y-119670690I500000J0D01*
G01*
X208991422Y-118170690D02*
G75*
G03*
X208491422Y-118670690I0J-500000D01*
G01*
X210291422Y-118670690D02*
G75*
G03*
X209791422Y-118170690I-500000J0D01*
G01*
X209791422Y-119670690D02*
G75*
G03*
X210291422Y-119170690I0J500000D01*
G01*
D13*
G36*
X153832000Y-121166003D02*
G01*
X153032000Y-120566003D01*
X153032000Y-121766003D01*
X153832000Y-121166003D01*
G37*
X153832000Y-121166003D02*
X153032000Y-120566003D01*
X153032000Y-121766003D01*
X153832000Y-121166003D01*
D14*
X154832038Y-122066003D02*
X155332000Y-122066003D01*
X155832000Y-120766003D02*
X155832000Y-121566003D01*
X155331962Y-120266003D02*
X154832000Y-120266003D01*
X154332000Y-120766003D02*
X154332000Y-121566003D01*
X154832000Y-120266003D02*
G75*
G03*
X154332000Y-120766003I0J-500000D01*
G01*
X155832000Y-120766003D02*
G75*
G03*
X155332000Y-120266003I-500000J0D01*
G01*
X155332000Y-122066003D02*
G75*
G03*
X155832000Y-121566003I0J500000D01*
G01*
X154332000Y-121566003D02*
G75*
G03*
X154832000Y-122066003I500000J0D01*
G01*
D13*
G36*
X70683857Y-119575377D02*
G01*
X70083857Y-120375377D01*
X71283857Y-120375377D01*
X70683857Y-119575377D01*
G37*
X70683857Y-119575377D02*
X70083857Y-120375377D01*
X71283857Y-120375377D01*
X70683857Y-119575377D01*
D14*
X71583857Y-118575339D02*
X71583857Y-118075377D01*
X70283857Y-117575377D02*
X71083857Y-117575377D01*
X69783857Y-118075415D02*
X69783857Y-118575377D01*
X70283857Y-119075377D02*
X71083857Y-119075377D01*
X69783857Y-118575377D02*
G75*
G03*
X70283857Y-119075377I500000J0D01*
G01*
X70283857Y-117575377D02*
G75*
G03*
X69783857Y-118075377I0J-500000D01*
G01*
X71583857Y-118075377D02*
G75*
G03*
X71083857Y-117575377I-500000J0D01*
G01*
X71083857Y-119075377D02*
G75*
G03*
X71583857Y-118575377I0J500000D01*
G01*
D13*
G36*
X49652515Y-118785225D02*
G01*
X48852515Y-118185225D01*
X48852515Y-119385225D01*
X49652515Y-118785225D01*
G37*
X49652515Y-118785225D02*
X48852515Y-118185225D01*
X48852515Y-119385225D01*
X49652515Y-118785225D01*
D14*
X50652553Y-119685225D02*
X51152515Y-119685225D01*
X51652515Y-118385225D02*
X51652515Y-119185225D01*
X51152477Y-117885225D02*
X50652515Y-117885225D01*
X50152515Y-118385225D02*
X50152515Y-119185225D01*
X50652515Y-117885225D02*
G75*
G03*
X50152515Y-118385225I0J-500000D01*
G01*
X51652515Y-118385225D02*
G75*
G03*
X51152515Y-117885225I-500000J0D01*
G01*
X51152515Y-119685225D02*
G75*
G03*
X51652515Y-119185225I0J500000D01*
G01*
X50152515Y-119185225D02*
G75*
G03*
X50652515Y-119685225I500000J0D01*
G01*
D13*
G36*
X24053970Y-118785225D02*
G01*
X23253970Y-118185225D01*
X23253970Y-119385225D01*
X24053970Y-118785225D01*
G37*
X24053970Y-118785225D02*
X23253970Y-118185225D01*
X23253970Y-119385225D01*
X24053970Y-118785225D01*
D14*
X25054008Y-119685225D02*
X25553970Y-119685225D01*
X26053970Y-118385225D02*
X26053970Y-119185225D01*
X25553932Y-117885225D02*
X25053970Y-117885225D01*
X24553970Y-118385225D02*
X24553970Y-119185225D01*
X25053970Y-117885225D02*
G75*
G03*
X24553970Y-118385225I0J-500000D01*
G01*
X26053970Y-118385225D02*
G75*
G03*
X25553970Y-117885225I-500000J0D01*
G01*
X25553970Y-119685225D02*
G75*
G03*
X26053970Y-119185225I0J500000D01*
G01*
X24553970Y-119185225D02*
G75*
G03*
X25053970Y-119685225I500000J0D01*
G01*
D13*
G36*
X73064745Y-119575377D02*
G01*
X72464745Y-120375377D01*
X73664745Y-120375377D01*
X73064745Y-119575377D01*
G37*
X73064745Y-119575377D02*
X72464745Y-120375377D01*
X73664745Y-120375377D01*
X73064745Y-119575377D01*
D14*
X73964745Y-118575339D02*
X73964745Y-118075377D01*
X72664745Y-117575377D02*
X73464745Y-117575377D01*
X72164745Y-118075415D02*
X72164745Y-118575377D01*
X72664745Y-119075377D02*
X73464745Y-119075377D01*
X72164745Y-118575377D02*
G75*
G03*
X72664745Y-119075377I500000J0D01*
G01*
X72664745Y-117575377D02*
G75*
G03*
X72164745Y-118075377I0J-500000D01*
G01*
X73964745Y-118075377D02*
G75*
G03*
X73464745Y-117575377I-500000J0D01*
G01*
X73464745Y-119075377D02*
G75*
G03*
X73964745Y-118575377I0J500000D01*
G01*
D13*
G36*
X267732096Y-110255056D02*
G01*
X268332096Y-109455056D01*
X267132096Y-109455056D01*
X267732096Y-110255056D01*
G37*
X267732096Y-110255056D02*
X268332096Y-109455056D01*
X267132096Y-109455056D01*
X267732096Y-110255056D01*
D14*
X266832096Y-111255094D02*
X266832096Y-111755056D01*
X268132096Y-112255056D02*
X267332096Y-112255056D01*
X268632096Y-111755018D02*
X268632096Y-111255056D01*
X268132096Y-110755056D02*
X267332096Y-110755056D01*
X268632096Y-111255056D02*
G75*
G03*
X268132096Y-110755056I-500000J0D01*
G01*
X268132096Y-112255056D02*
G75*
G03*
X268632096Y-111755056I0J500000D01*
G01*
X266832096Y-111755056D02*
G75*
G03*
X267332096Y-112255056I500000J0D01*
G01*
X267332096Y-110755056D02*
G75*
G03*
X266832096Y-111255056I0J-500000D01*
G01*
D13*
G36*
X241538324Y-104897239D02*
G01*
X242138324Y-104097239D01*
X240938324Y-104097239D01*
X241538324Y-104897239D01*
G37*
X241538324Y-104897239D02*
X242138324Y-104097239D01*
X240938324Y-104097239D01*
X241538324Y-104897239D01*
D14*
X240638324Y-105897277D02*
X240638324Y-106397239D01*
X241938324Y-106897239D02*
X241138324Y-106897239D01*
X242438324Y-106397201D02*
X242438324Y-105897239D01*
X241938324Y-105397239D02*
X241138324Y-105397239D01*
X242438324Y-105897239D02*
G75*
G03*
X241938324Y-105397239I-500000J0D01*
G01*
X241938324Y-106897239D02*
G75*
G03*
X242438324Y-106397239I0J500000D01*
G01*
X240638324Y-106397239D02*
G75*
G03*
X241138324Y-106897239I500000J0D01*
G01*
X241138324Y-105397239D02*
G75*
G03*
X240638324Y-105897239I0J-500000D01*
G01*
D13*
G36*
X239157072Y-104897239D02*
G01*
X239757072Y-104097239D01*
X238557072Y-104097239D01*
X239157072Y-104897239D01*
G37*
X239157072Y-104897239D02*
X239757072Y-104097239D01*
X238557072Y-104097239D01*
X239157072Y-104897239D01*
D14*
X238257072Y-105897277D02*
X238257072Y-106397239D01*
X239557072Y-106897239D02*
X238757072Y-106897239D01*
X240057072Y-106397201D02*
X240057072Y-105897239D01*
X239557072Y-105397239D02*
X238757072Y-105397239D01*
X240057072Y-105897239D02*
G75*
G03*
X239557072Y-105397239I-500000J0D01*
G01*
X239557072Y-106897239D02*
G75*
G03*
X240057072Y-106397239I0J500000D01*
G01*
X238257072Y-106397239D02*
G75*
G03*
X238757072Y-106897239I500000J0D01*
G01*
X238757072Y-105397239D02*
G75*
G03*
X238257072Y-105897239I0J-500000D01*
G01*
D13*
G36*
X214154770Y-105492980D02*
G01*
X214754770Y-104692980D01*
X213554770Y-104692980D01*
X214154770Y-105492980D01*
G37*
X214154770Y-105492980D02*
X214754770Y-104692980D01*
X213554770Y-104692980D01*
X214154770Y-105492980D01*
D14*
X213254770Y-106493018D02*
X213254770Y-106992980D01*
X214554770Y-107492980D02*
X213754770Y-107492980D01*
X215054770Y-106992942D02*
X215054770Y-106492980D01*
X214554770Y-105992980D02*
X213754770Y-105992980D01*
X215054770Y-106492980D02*
G75*
G03*
X214554770Y-105992980I-500000J0D01*
G01*
X214554770Y-107492980D02*
G75*
G03*
X215054770Y-106992980I0J500000D01*
G01*
X213254770Y-106992980D02*
G75*
G03*
X213754770Y-107492980I500000J0D01*
G01*
X213754770Y-105992980D02*
G75*
G03*
X213254770Y-106492980I0J-500000D01*
G01*
D13*
G36*
X195104690Y-105492980D02*
G01*
X195704690Y-104692980D01*
X194504690Y-104692980D01*
X195104690Y-105492980D01*
G37*
X195104690Y-105492980D02*
X195704690Y-104692980D01*
X194504690Y-104692980D01*
X195104690Y-105492980D01*
D14*
X194204690Y-106493018D02*
X194204690Y-106992980D01*
X195504690Y-107492980D02*
X194704690Y-107492980D01*
X196004690Y-106992942D02*
X196004690Y-106492980D01*
X195504690Y-105992980D02*
X194704690Y-105992980D01*
X196004690Y-106492980D02*
G75*
G03*
X195504690Y-105992980I-500000J0D01*
G01*
X195504690Y-107492980D02*
G75*
G03*
X196004690Y-106992980I0J500000D01*
G01*
X194204690Y-106992980D02*
G75*
G03*
X194704690Y-107492980I500000J0D01*
G01*
X194704690Y-105992980D02*
G75*
G03*
X194204690Y-106492980I0J-500000D01*
G01*
D13*
G36*
X176054610Y-105492980D02*
G01*
X176654610Y-104692980D01*
X175454610Y-104692980D01*
X176054610Y-105492980D01*
G37*
X176054610Y-105492980D02*
X176654610Y-104692980D01*
X175454610Y-104692980D01*
X176054610Y-105492980D01*
D14*
X175154610Y-106493018D02*
X175154610Y-106992980D01*
X176454610Y-107492980D02*
X175654610Y-107492980D01*
X176954610Y-106992942D02*
X176954610Y-106492980D01*
X176454610Y-105992980D02*
X175654610Y-105992980D01*
X176954610Y-106492980D02*
G75*
G03*
X176454610Y-105992980I-500000J0D01*
G01*
X176454610Y-107492980D02*
G75*
G03*
X176954610Y-106992980I0J500000D01*
G01*
X175154610Y-106992980D02*
G75*
G03*
X175654610Y-107492980I500000J0D01*
G01*
X175654610Y-105992980D02*
G75*
G03*
X175154610Y-106492980I0J-500000D01*
G01*
D13*
G36*
X157004530Y-105492980D02*
G01*
X157604530Y-104692980D01*
X156404530Y-104692980D01*
X157004530Y-105492980D01*
G37*
X157004530Y-105492980D02*
X157604530Y-104692980D01*
X156404530Y-104692980D01*
X157004530Y-105492980D01*
D14*
X156104530Y-106493018D02*
X156104530Y-106992980D01*
X157404530Y-107492980D02*
X156604530Y-107492980D01*
X157904530Y-106992942D02*
X157904530Y-106492980D01*
X157404530Y-105992980D02*
X156604530Y-105992980D01*
X157904530Y-106492980D02*
G75*
G03*
X157404530Y-105992980I-500000J0D01*
G01*
X157404530Y-107492980D02*
G75*
G03*
X157904530Y-106992980I0J500000D01*
G01*
X156104530Y-106992980D02*
G75*
G03*
X156604530Y-107492980I500000J0D01*
G01*
X156604530Y-105992980D02*
G75*
G03*
X156104530Y-106492980I0J-500000D01*
G01*
D13*
G36*
X137954450Y-105492980D02*
G01*
X138554450Y-104692980D01*
X137354450Y-104692980D01*
X137954450Y-105492980D01*
G37*
X137954450Y-105492980D02*
X138554450Y-104692980D01*
X137354450Y-104692980D01*
X137954450Y-105492980D01*
D14*
X137054450Y-106493018D02*
X137054450Y-106992980D01*
X138354450Y-107492980D02*
X137554450Y-107492980D01*
X138854450Y-106992942D02*
X138854450Y-106492980D01*
X138354450Y-105992980D02*
X137554450Y-105992980D01*
X138854450Y-106492980D02*
G75*
G03*
X138354450Y-105992980I-500000J0D01*
G01*
X138354450Y-107492980D02*
G75*
G03*
X138854450Y-106992980I0J500000D01*
G01*
X137054450Y-106992980D02*
G75*
G03*
X137554450Y-107492980I500000J0D01*
G01*
X137554450Y-105992980D02*
G75*
G03*
X137054450Y-106492980I0J-500000D01*
G01*
D13*
G36*
X118904370Y-105492980D02*
G01*
X119504370Y-104692980D01*
X118304370Y-104692980D01*
X118904370Y-105492980D01*
G37*
X118904370Y-105492980D02*
X119504370Y-104692980D01*
X118304370Y-104692980D01*
X118904370Y-105492980D01*
D14*
X118004370Y-106493018D02*
X118004370Y-106992980D01*
X119304370Y-107492980D02*
X118504370Y-107492980D01*
X119804370Y-106992942D02*
X119804370Y-106492980D01*
X119304370Y-105992980D02*
X118504370Y-105992980D01*
X119804370Y-106492980D02*
G75*
G03*
X119304370Y-105992980I-500000J0D01*
G01*
X119304370Y-107492980D02*
G75*
G03*
X119804370Y-106992980I0J500000D01*
G01*
X118004370Y-106992980D02*
G75*
G03*
X118504370Y-107492980I500000J0D01*
G01*
X118504370Y-105992980D02*
G75*
G03*
X118004370Y-106492980I0J-500000D01*
G01*
D13*
G36*
X99854290Y-105492980D02*
G01*
X100454290Y-104692980D01*
X99254290Y-104692980D01*
X99854290Y-105492980D01*
G37*
X99854290Y-105492980D02*
X100454290Y-104692980D01*
X99254290Y-104692980D01*
X99854290Y-105492980D01*
D14*
X98954290Y-106493018D02*
X98954290Y-106992980D01*
X100254290Y-107492980D02*
X99454290Y-107492980D01*
X100754290Y-106992942D02*
X100754290Y-106492980D01*
X100254290Y-105992980D02*
X99454290Y-105992980D01*
X100754290Y-106492980D02*
G75*
G03*
X100254290Y-105992980I-500000J0D01*
G01*
X100254290Y-107492980D02*
G75*
G03*
X100754290Y-106992980I0J500000D01*
G01*
X98954290Y-106992980D02*
G75*
G03*
X99454290Y-107492980I500000J0D01*
G01*
X99454290Y-105992980D02*
G75*
G03*
X98954290Y-106492980I0J-500000D01*
G01*
D13*
G36*
X80804210Y-105492980D02*
G01*
X81404210Y-104692980D01*
X80204210Y-104692980D01*
X80804210Y-105492980D01*
G37*
X80804210Y-105492980D02*
X81404210Y-104692980D01*
X80204210Y-104692980D01*
X80804210Y-105492980D01*
D14*
X79904210Y-106493018D02*
X79904210Y-106992980D01*
X81204210Y-107492980D02*
X80404210Y-107492980D01*
X81704210Y-106992942D02*
X81704210Y-106492980D01*
X81204210Y-105992980D02*
X80404210Y-105992980D01*
X81704210Y-106492980D02*
G75*
G03*
X81204210Y-105992980I-500000J0D01*
G01*
X81204210Y-107492980D02*
G75*
G03*
X81704210Y-106992980I0J500000D01*
G01*
X79904210Y-106992980D02*
G75*
G03*
X80404210Y-107492980I500000J0D01*
G01*
X80404210Y-105992980D02*
G75*
G03*
X79904210Y-106492980I0J-500000D01*
G01*
D13*
G36*
X61754130Y-105492980D02*
G01*
X62354130Y-104692980D01*
X61154130Y-104692980D01*
X61754130Y-105492980D01*
G37*
X61754130Y-105492980D02*
X62354130Y-104692980D01*
X61154130Y-104692980D01*
X61754130Y-105492980D01*
D14*
X60854130Y-106493018D02*
X60854130Y-106992980D01*
X62154130Y-107492980D02*
X61354130Y-107492980D01*
X62654130Y-106992942D02*
X62654130Y-106492980D01*
X62154130Y-105992980D02*
X61354130Y-105992980D01*
X62654130Y-106492980D02*
G75*
G03*
X62154130Y-105992980I-500000J0D01*
G01*
X62154130Y-107492980D02*
G75*
G03*
X62654130Y-106992980I0J500000D01*
G01*
X60854130Y-106992980D02*
G75*
G03*
X61354130Y-107492980I500000J0D01*
G01*
X61354130Y-105992980D02*
G75*
G03*
X60854130Y-106492980I0J-500000D01*
G01*
D13*
G36*
X156603878Y-118784751D02*
G01*
X157403878Y-119384751D01*
X157403878Y-118184751D01*
X156603878Y-118784751D01*
G37*
X156603878Y-118784751D02*
X157403878Y-119384751D01*
X157403878Y-118184751D01*
X156603878Y-118784751D01*
D14*
X155603840Y-117884751D02*
X155103878Y-117884751D01*
X154603878Y-119184751D02*
X154603878Y-118384751D01*
X155103916Y-119684751D02*
X155603878Y-119684751D01*
X156103878Y-119184751D02*
X156103878Y-118384751D01*
X155603878Y-119684751D02*
G75*
G03*
X156103878Y-119184751I0J500000D01*
G01*
X154603878Y-119184751D02*
G75*
G03*
X155103878Y-119684751I500000J0D01*
G01*
X155103878Y-117884751D02*
G75*
G03*
X154603878Y-118384751I0J-500000D01*
G01*
X156103878Y-118384751D02*
G75*
G03*
X155603878Y-117884751I-500000J0D01*
G01*
D13*
G36*
X42704050Y-105492980D02*
G01*
X43304050Y-104692980D01*
X42104050Y-104692980D01*
X42704050Y-105492980D01*
G37*
X42704050Y-105492980D02*
X43304050Y-104692980D01*
X42104050Y-104692980D01*
X42704050Y-105492980D01*
D14*
X41804050Y-106493018D02*
X41804050Y-106992980D01*
X43104050Y-107492980D02*
X42304050Y-107492980D01*
X43604050Y-106992942D02*
X43604050Y-106492980D01*
X43104050Y-105992980D02*
X42304050Y-105992980D01*
X43604050Y-106492980D02*
G75*
G03*
X43104050Y-105992980I-500000J0D01*
G01*
X43104050Y-107492980D02*
G75*
G03*
X43604050Y-106992980I0J500000D01*
G01*
X41804050Y-106992980D02*
G75*
G03*
X42304050Y-107492980I500000J0D01*
G01*
X42304050Y-105992980D02*
G75*
G03*
X41804050Y-106492980I0J-500000D01*
G01*
D13*
G36*
X273685226Y-86442900D02*
G01*
X274285226Y-85642900D01*
X273085226Y-85642900D01*
X273685226Y-86442900D01*
G37*
X273685226Y-86442900D02*
X274285226Y-85642900D01*
X273085226Y-85642900D01*
X273685226Y-86442900D01*
D14*
X272785226Y-87442938D02*
X272785226Y-87942900D01*
X274085226Y-88442900D02*
X273285226Y-88442900D01*
X274585226Y-87942862D02*
X274585226Y-87442900D01*
X274085226Y-86942900D02*
X273285226Y-86942900D01*
X274585226Y-87442900D02*
G75*
G03*
X274085226Y-86942900I-500000J0D01*
G01*
X274085226Y-88442900D02*
G75*
G03*
X274585226Y-87942900I0J500000D01*
G01*
X272785226Y-87942900D02*
G75*
G03*
X273285226Y-88442900I500000J0D01*
G01*
X273285226Y-86942900D02*
G75*
G03*
X272785226Y-87442900I0J-500000D01*
G01*
D13*
G36*
X241539260Y-86442900D02*
G01*
X242139260Y-85642900D01*
X240939260Y-85642900D01*
X241539260Y-86442900D01*
G37*
X241539260Y-86442900D02*
X242139260Y-85642900D01*
X240939260Y-85642900D01*
X241539260Y-86442900D01*
D14*
X240639260Y-87442938D02*
X240639260Y-87942900D01*
X241939260Y-88442900D02*
X241139260Y-88442900D01*
X242439260Y-87942862D02*
X242439260Y-87442900D01*
X241939260Y-86942900D02*
X241139260Y-86942900D01*
X242439260Y-87442900D02*
G75*
G03*
X241939260Y-86942900I-500000J0D01*
G01*
X241939260Y-88442900D02*
G75*
G03*
X242439260Y-87942900I0J500000D01*
G01*
X240639260Y-87942900D02*
G75*
G03*
X241139260Y-88442900I500000J0D01*
G01*
X241139260Y-86942900D02*
G75*
G03*
X240639260Y-87442900I0J-500000D01*
G01*
D13*
G36*
X223679810Y-86442900D02*
G01*
X224279810Y-85642900D01*
X223079810Y-85642900D01*
X223679810Y-86442900D01*
G37*
X223679810Y-86442900D02*
X224279810Y-85642900D01*
X223079810Y-85642900D01*
X223679810Y-86442900D01*
D14*
X222779810Y-87442938D02*
X222779810Y-87942900D01*
X224079810Y-88442900D02*
X223279810Y-88442900D01*
X224579810Y-87942862D02*
X224579810Y-87442900D01*
X224079810Y-86942900D02*
X223279810Y-86942900D01*
X224579810Y-87442900D02*
G75*
G03*
X224079810Y-86942900I-500000J0D01*
G01*
X224079810Y-88442900D02*
G75*
G03*
X224579810Y-87942900I0J500000D01*
G01*
X222779810Y-87942900D02*
G75*
G03*
X223279810Y-88442900I500000J0D01*
G01*
X223279810Y-86942900D02*
G75*
G03*
X222779810Y-87442900I0J-500000D01*
G01*
D13*
G36*
X204629730Y-86442900D02*
G01*
X205229730Y-85642900D01*
X204029730Y-85642900D01*
X204629730Y-86442900D01*
G37*
X204629730Y-86442900D02*
X205229730Y-85642900D01*
X204029730Y-85642900D01*
X204629730Y-86442900D01*
D14*
X203729730Y-87442938D02*
X203729730Y-87942900D01*
X205029730Y-88442900D02*
X204229730Y-88442900D01*
X205529730Y-87942862D02*
X205529730Y-87442900D01*
X205029730Y-86942900D02*
X204229730Y-86942900D01*
X205529730Y-87442900D02*
G75*
G03*
X205029730Y-86942900I-500000J0D01*
G01*
X205029730Y-88442900D02*
G75*
G03*
X205529730Y-87942900I0J500000D01*
G01*
X203729730Y-87942900D02*
G75*
G03*
X204229730Y-88442900I500000J0D01*
G01*
X204229730Y-86942900D02*
G75*
G03*
X203729730Y-87442900I0J-500000D01*
G01*
D13*
G36*
X185579650Y-86442900D02*
G01*
X186179650Y-85642900D01*
X184979650Y-85642900D01*
X185579650Y-86442900D01*
G37*
X185579650Y-86442900D02*
X186179650Y-85642900D01*
X184979650Y-85642900D01*
X185579650Y-86442900D01*
D14*
X184679650Y-87442938D02*
X184679650Y-87942900D01*
X185979650Y-88442900D02*
X185179650Y-88442900D01*
X186479650Y-87942862D02*
X186479650Y-87442900D01*
X185979650Y-86942900D02*
X185179650Y-86942900D01*
X186479650Y-87442900D02*
G75*
G03*
X185979650Y-86942900I-500000J0D01*
G01*
X185979650Y-88442900D02*
G75*
G03*
X186479650Y-87942900I0J500000D01*
G01*
X184679650Y-87942900D02*
G75*
G03*
X185179650Y-88442900I500000J0D01*
G01*
X185179650Y-86942900D02*
G75*
G03*
X184679650Y-87442900I0J-500000D01*
G01*
D13*
G36*
X166529570Y-86442900D02*
G01*
X167129570Y-85642900D01*
X165929570Y-85642900D01*
X166529570Y-86442900D01*
G37*
X166529570Y-86442900D02*
X167129570Y-85642900D01*
X165929570Y-85642900D01*
X166529570Y-86442900D01*
D14*
X165629570Y-87442938D02*
X165629570Y-87942900D01*
X166929570Y-88442900D02*
X166129570Y-88442900D01*
X167429570Y-87942862D02*
X167429570Y-87442900D01*
X166929570Y-86942900D02*
X166129570Y-86942900D01*
X167429570Y-87442900D02*
G75*
G03*
X166929570Y-86942900I-500000J0D01*
G01*
X166929570Y-88442900D02*
G75*
G03*
X167429570Y-87942900I0J500000D01*
G01*
X165629570Y-87942900D02*
G75*
G03*
X166129570Y-88442900I500000J0D01*
G01*
X166129570Y-86942900D02*
G75*
G03*
X165629570Y-87442900I0J-500000D01*
G01*
D13*
G36*
X147479490Y-86442900D02*
G01*
X148079490Y-85642900D01*
X146879490Y-85642900D01*
X147479490Y-86442900D01*
G37*
X147479490Y-86442900D02*
X148079490Y-85642900D01*
X146879490Y-85642900D01*
X147479490Y-86442900D01*
D14*
X146579490Y-87442938D02*
X146579490Y-87942900D01*
X147879490Y-88442900D02*
X147079490Y-88442900D01*
X148379490Y-87942862D02*
X148379490Y-87442900D01*
X147879490Y-86942900D02*
X147079490Y-86942900D01*
X148379490Y-87442900D02*
G75*
G03*
X147879490Y-86942900I-500000J0D01*
G01*
X147879490Y-88442900D02*
G75*
G03*
X148379490Y-87942900I0J500000D01*
G01*
X146579490Y-87942900D02*
G75*
G03*
X147079490Y-88442900I500000J0D01*
G01*
X147079490Y-86942900D02*
G75*
G03*
X146579490Y-87442900I0J-500000D01*
G01*
D13*
G36*
X110569464Y-86442500D02*
G01*
X111169464Y-85642500D01*
X109969464Y-85642500D01*
X110569464Y-86442500D01*
G37*
X110569464Y-86442500D02*
X111169464Y-85642500D01*
X109969464Y-85642500D01*
X110569464Y-86442500D01*
D14*
X109669464Y-87442538D02*
X109669464Y-87942500D01*
X110969464Y-88442500D02*
X110169464Y-88442500D01*
X111469464Y-87942462D02*
X111469464Y-87442500D01*
X110969464Y-86942500D02*
X110169464Y-86942500D01*
X111469464Y-87442500D02*
G75*
G03*
X110969464Y-86942500I-500000J0D01*
G01*
X110969464Y-88442500D02*
G75*
G03*
X111469464Y-87942500I0J500000D01*
G01*
X109669464Y-87942500D02*
G75*
G03*
X110169464Y-88442500I500000J0D01*
G01*
X110169464Y-86942500D02*
G75*
G03*
X109669464Y-87442500I0J-500000D01*
G01*
D13*
G36*
X108188212Y-86442500D02*
G01*
X108788212Y-85642500D01*
X107588212Y-85642500D01*
X108188212Y-86442500D01*
G37*
X108188212Y-86442500D02*
X108788212Y-85642500D01*
X107588212Y-85642500D01*
X108188212Y-86442500D01*
D14*
X107288212Y-87442538D02*
X107288212Y-87942500D01*
X108588212Y-88442500D02*
X107788212Y-88442500D01*
X109088212Y-87942462D02*
X109088212Y-87442500D01*
X108588212Y-86942500D02*
X107788212Y-86942500D01*
X109088212Y-87442500D02*
G75*
G03*
X108588212Y-86942500I-500000J0D01*
G01*
X108588212Y-88442500D02*
G75*
G03*
X109088212Y-87942500I0J500000D01*
G01*
X107288212Y-87942500D02*
G75*
G03*
X107788212Y-88442500I500000J0D01*
G01*
X107788212Y-86942500D02*
G75*
G03*
X107288212Y-87442500I0J-500000D01*
G01*
D13*
G36*
X90329250Y-86442900D02*
G01*
X90929250Y-85642900D01*
X89729250Y-85642900D01*
X90329250Y-86442900D01*
G37*
X90329250Y-86442900D02*
X90929250Y-85642900D01*
X89729250Y-85642900D01*
X90329250Y-86442900D01*
D14*
X89429250Y-87442938D02*
X89429250Y-87942900D01*
X90729250Y-88442900D02*
X89929250Y-88442900D01*
X91229250Y-87942862D02*
X91229250Y-87442900D01*
X90729250Y-86942900D02*
X89929250Y-86942900D01*
X91229250Y-87442900D02*
G75*
G03*
X90729250Y-86942900I-500000J0D01*
G01*
X90729250Y-88442900D02*
G75*
G03*
X91229250Y-87942900I0J500000D01*
G01*
X89429250Y-87942900D02*
G75*
G03*
X89929250Y-88442900I500000J0D01*
G01*
X89929250Y-86942900D02*
G75*
G03*
X89429250Y-87442900I0J-500000D01*
G01*
D13*
G36*
X71279170Y-86442900D02*
G01*
X71879170Y-85642900D01*
X70679170Y-85642900D01*
X71279170Y-86442900D01*
G37*
X71279170Y-86442900D02*
X71879170Y-85642900D01*
X70679170Y-85642900D01*
X71279170Y-86442900D01*
D14*
X70379170Y-87442938D02*
X70379170Y-87942900D01*
X71679170Y-88442900D02*
X70879170Y-88442900D01*
X72179170Y-87942862D02*
X72179170Y-87442900D01*
X71679170Y-86942900D02*
X70879170Y-86942900D01*
X72179170Y-87442900D02*
G75*
G03*
X71679170Y-86942900I-500000J0D01*
G01*
X71679170Y-88442900D02*
G75*
G03*
X72179170Y-87942900I0J500000D01*
G01*
X70379170Y-87942900D02*
G75*
G03*
X70879170Y-88442900I500000J0D01*
G01*
X70879170Y-86942900D02*
G75*
G03*
X70379170Y-87442900I0J-500000D01*
G01*
D13*
G36*
X51038125Y-86442500D02*
G01*
X51638125Y-85642500D01*
X50438125Y-85642500D01*
X51038125Y-86442500D01*
G37*
X51038125Y-86442500D02*
X51638125Y-85642500D01*
X50438125Y-85642500D01*
X51038125Y-86442500D01*
D14*
X50138125Y-87442538D02*
X50138125Y-87942500D01*
X51438125Y-88442500D02*
X50638125Y-88442500D01*
X51938125Y-87942462D02*
X51938125Y-87442500D01*
X51438125Y-86942500D02*
X50638125Y-86942500D01*
X51938125Y-87442500D02*
G75*
G03*
X51438125Y-86942500I-500000J0D01*
G01*
X51438125Y-88442500D02*
G75*
G03*
X51938125Y-87942500I0J500000D01*
G01*
X50138125Y-87942500D02*
G75*
G03*
X50638125Y-88442500I500000J0D01*
G01*
X50638125Y-86942500D02*
G75*
G03*
X50138125Y-87442500I0J-500000D01*
G01*
D13*
G36*
X265350844Y-110255056D02*
G01*
X265950844Y-109455056D01*
X264750844Y-109455056D01*
X265350844Y-110255056D01*
G37*
X265350844Y-110255056D02*
X265950844Y-109455056D01*
X264750844Y-109455056D01*
X265350844Y-110255056D01*
D14*
X264450844Y-111255094D02*
X264450844Y-111755056D01*
X265750844Y-112255056D02*
X264950844Y-112255056D01*
X266250844Y-111755018D02*
X266250844Y-111255056D01*
X265750844Y-110755056D02*
X264950844Y-110755056D01*
X266250844Y-111255056D02*
G75*
G03*
X265750844Y-110755056I-500000J0D01*
G01*
X265750844Y-112255056D02*
G75*
G03*
X266250844Y-111755056I0J500000D01*
G01*
X264450844Y-111755056D02*
G75*
G03*
X264950844Y-112255056I500000J0D01*
G01*
X264950844Y-110755056D02*
G75*
G03*
X264450844Y-111255056I0J-500000D01*
G01*
D13*
G36*
X243920520Y-86442900D02*
G01*
X244520520Y-85642900D01*
X243320520Y-85642900D01*
X243920520Y-86442900D01*
G37*
X243920520Y-86442900D02*
X244520520Y-85642900D01*
X243320520Y-85642900D01*
X243920520Y-86442900D01*
D14*
X243020520Y-87442938D02*
X243020520Y-87942900D01*
X244320520Y-88442900D02*
X243520520Y-88442900D01*
X244820520Y-87942862D02*
X244820520Y-87442900D01*
X244320520Y-86942900D02*
X243520520Y-86942900D01*
X244820520Y-87442900D02*
G75*
G03*
X244320520Y-86942900I-500000J0D01*
G01*
X244320520Y-88442900D02*
G75*
G03*
X244820520Y-87942900I0J500000D01*
G01*
X243020520Y-87942900D02*
G75*
G03*
X243520520Y-88442900I500000J0D01*
G01*
X243520520Y-86942900D02*
G75*
G03*
X243020520Y-87442900I0J-500000D01*
G01*
D13*
G36*
X53419375Y-86442500D02*
G01*
X54019375Y-85642500D01*
X52819375Y-85642500D01*
X53419375Y-86442500D01*
G37*
X53419375Y-86442500D02*
X54019375Y-85642500D01*
X52819375Y-85642500D01*
X53419375Y-86442500D01*
D14*
X52519375Y-87442538D02*
X52519375Y-87942500D01*
X53819375Y-88442500D02*
X53019375Y-88442500D01*
X54319375Y-87942462D02*
X54319375Y-87442500D01*
X53819375Y-86942500D02*
X53019375Y-86942500D01*
X54319375Y-87442500D02*
G75*
G03*
X53819375Y-86942500I-500000J0D01*
G01*
X53819375Y-88442500D02*
G75*
G03*
X54319375Y-87942500I0J500000D01*
G01*
X52519375Y-87942500D02*
G75*
G03*
X53019375Y-88442500I500000J0D01*
G01*
X53019375Y-86942500D02*
G75*
G03*
X52519375Y-87442500I0J-500000D01*
G01*
D13*
G36*
X239157100Y-67392500D02*
G01*
X239757100Y-66592500D01*
X238557100Y-66592500D01*
X239157100Y-67392500D01*
G37*
X239157100Y-67392500D02*
X239757100Y-66592500D01*
X238557100Y-66592500D01*
X239157100Y-67392500D01*
D14*
X238257100Y-68392538D02*
X238257100Y-68892500D01*
X239557100Y-69392500D02*
X238757100Y-69392500D01*
X240057100Y-68892462D02*
X240057100Y-68392500D01*
X239557100Y-67892500D02*
X238757100Y-67892500D01*
X240057100Y-68392500D02*
G75*
G03*
X239557100Y-67892500I-500000J0D01*
G01*
X239557100Y-69392500D02*
G75*
G03*
X240057100Y-68892500I0J500000D01*
G01*
X238257100Y-68892500D02*
G75*
G03*
X238757100Y-69392500I500000J0D01*
G01*
X238757100Y-67892500D02*
G75*
G03*
X238257100Y-68392500I0J-500000D01*
G01*
D13*
G36*
X220107920Y-67392820D02*
G01*
X220707920Y-66592820D01*
X219507920Y-66592820D01*
X220107920Y-67392820D01*
G37*
X220107920Y-67392820D02*
X220707920Y-66592820D01*
X219507920Y-66592820D01*
X220107920Y-67392820D01*
D14*
X219207920Y-68392858D02*
X219207920Y-68892820D01*
X220507920Y-69392820D02*
X219707920Y-69392820D01*
X221007920Y-68892782D02*
X221007920Y-68392820D01*
X220507920Y-67892820D02*
X219707920Y-67892820D01*
X221007920Y-68392820D02*
G75*
G03*
X220507920Y-67892820I-500000J0D01*
G01*
X220507920Y-69392820D02*
G75*
G03*
X221007920Y-68892820I0J500000D01*
G01*
X219207920Y-68892820D02*
G75*
G03*
X219707920Y-69392820I500000J0D01*
G01*
X219707920Y-67892820D02*
G75*
G03*
X219207920Y-68392820I0J-500000D01*
G01*
D13*
G36*
X217726660Y-67392820D02*
G01*
X218326660Y-66592820D01*
X217126660Y-66592820D01*
X217726660Y-67392820D01*
G37*
X217726660Y-67392820D02*
X218326660Y-66592820D01*
X217126660Y-66592820D01*
X217726660Y-67392820D01*
D14*
X216826660Y-68392858D02*
X216826660Y-68892820D01*
X218126660Y-69392820D02*
X217326660Y-69392820D01*
X218626660Y-68892782D02*
X218626660Y-68392820D01*
X218126660Y-67892820D02*
X217326660Y-67892820D01*
X218626660Y-68392820D02*
G75*
G03*
X218126660Y-67892820I-500000J0D01*
G01*
X218126660Y-69392820D02*
G75*
G03*
X218626660Y-68892820I0J500000D01*
G01*
X216826660Y-68892820D02*
G75*
G03*
X217326660Y-69392820I500000J0D01*
G01*
X217326660Y-67892820D02*
G75*
G03*
X216826660Y-68392820I0J-500000D01*
G01*
D13*
G36*
X199867210Y-67392820D02*
G01*
X200467210Y-66592820D01*
X199267210Y-66592820D01*
X199867210Y-67392820D01*
G37*
X199867210Y-67392820D02*
X200467210Y-66592820D01*
X199267210Y-66592820D01*
X199867210Y-67392820D01*
D14*
X198967210Y-68392858D02*
X198967210Y-68892820D01*
X200267210Y-69392820D02*
X199467210Y-69392820D01*
X200767210Y-68892782D02*
X200767210Y-68392820D01*
X200267210Y-67892820D02*
X199467210Y-67892820D01*
X200767210Y-68392820D02*
G75*
G03*
X200267210Y-67892820I-500000J0D01*
G01*
X200267210Y-69392820D02*
G75*
G03*
X200767210Y-68892820I0J500000D01*
G01*
X198967210Y-68892820D02*
G75*
G03*
X199467210Y-69392820I500000J0D01*
G01*
X199467210Y-67892820D02*
G75*
G03*
X198967210Y-68392820I0J-500000D01*
G01*
D13*
G36*
X180816426Y-67392500D02*
G01*
X181416426Y-66592500D01*
X180216426Y-66592500D01*
X180816426Y-67392500D01*
G37*
X180816426Y-67392500D02*
X181416426Y-66592500D01*
X180216426Y-66592500D01*
X180816426Y-67392500D01*
D14*
X179916426Y-68392538D02*
X179916426Y-68892500D01*
X181216426Y-69392500D02*
X180416426Y-69392500D01*
X181716426Y-68892462D02*
X181716426Y-68392500D01*
X181216426Y-67892500D02*
X180416426Y-67892500D01*
X181716426Y-68392500D02*
G75*
G03*
X181216426Y-67892500I-500000J0D01*
G01*
X181216426Y-69392500D02*
G75*
G03*
X181716426Y-68892500I0J500000D01*
G01*
X179916426Y-68892500D02*
G75*
G03*
X180416426Y-69392500I500000J0D01*
G01*
X180416426Y-67892500D02*
G75*
G03*
X179916426Y-68392500I0J-500000D01*
G01*
D13*
G36*
X161767050Y-67392820D02*
G01*
X162367050Y-66592820D01*
X161167050Y-66592820D01*
X161767050Y-67392820D01*
G37*
X161767050Y-67392820D02*
X162367050Y-66592820D01*
X161167050Y-66592820D01*
X161767050Y-67392820D01*
D14*
X160867050Y-68392858D02*
X160867050Y-68892820D01*
X162167050Y-69392820D02*
X161367050Y-69392820D01*
X162667050Y-68892782D02*
X162667050Y-68392820D01*
X162167050Y-67892820D02*
X161367050Y-67892820D01*
X162667050Y-68392820D02*
G75*
G03*
X162167050Y-67892820I-500000J0D01*
G01*
X162167050Y-69392820D02*
G75*
G03*
X162667050Y-68892820I0J500000D01*
G01*
X160867050Y-68892820D02*
G75*
G03*
X161367050Y-69392820I500000J0D01*
G01*
X161367050Y-67892820D02*
G75*
G03*
X160867050Y-68392820I0J-500000D01*
G01*
D13*
G36*
X142716394Y-67392500D02*
G01*
X143316394Y-66592500D01*
X142116394Y-66592500D01*
X142716394Y-67392500D01*
G37*
X142716394Y-67392500D02*
X143316394Y-66592500D01*
X142116394Y-66592500D01*
X142716394Y-67392500D01*
D14*
X141816394Y-68392538D02*
X141816394Y-68892500D01*
X143116394Y-69392500D02*
X142316394Y-69392500D01*
X143616394Y-68892462D02*
X143616394Y-68392500D01*
X143116394Y-67892500D02*
X142316394Y-67892500D01*
X143616394Y-68392500D02*
G75*
G03*
X143116394Y-67892500I-500000J0D01*
G01*
X143116394Y-69392500D02*
G75*
G03*
X143616394Y-68892500I0J500000D01*
G01*
X141816394Y-68892500D02*
G75*
G03*
X142316394Y-69392500I500000J0D01*
G01*
X142316394Y-67892500D02*
G75*
G03*
X141816394Y-68392500I0J-500000D01*
G01*
D13*
G36*
X123666378Y-67392500D02*
G01*
X124266378Y-66592500D01*
X123066378Y-66592500D01*
X123666378Y-67392500D01*
G37*
X123666378Y-67392500D02*
X124266378Y-66592500D01*
X123066378Y-66592500D01*
X123666378Y-67392500D01*
D14*
X122766378Y-68392538D02*
X122766378Y-68892500D01*
X124066378Y-69392500D02*
X123266378Y-69392500D01*
X124566378Y-68892462D02*
X124566378Y-68392500D01*
X124066378Y-67892500D02*
X123266378Y-67892500D01*
X124566378Y-68392500D02*
G75*
G03*
X124066378Y-67892500I-500000J0D01*
G01*
X124066378Y-69392500D02*
G75*
G03*
X124566378Y-68892500I0J500000D01*
G01*
X122766378Y-68892500D02*
G75*
G03*
X123266378Y-69392500I500000J0D01*
G01*
X123266378Y-67892500D02*
G75*
G03*
X122766378Y-68392500I0J-500000D01*
G01*
D13*
G36*
X104616362Y-67392500D02*
G01*
X105216362Y-66592500D01*
X104016362Y-66592500D01*
X104616362Y-67392500D01*
G37*
X104616362Y-67392500D02*
X105216362Y-66592500D01*
X104016362Y-66592500D01*
X104616362Y-67392500D01*
D14*
X103716362Y-68392538D02*
X103716362Y-68892500D01*
X105016362Y-69392500D02*
X104216362Y-69392500D01*
X105516362Y-68892462D02*
X105516362Y-68392500D01*
X105016362Y-67892500D02*
X104216362Y-67892500D01*
X105516362Y-68392500D02*
G75*
G03*
X105016362Y-67892500I-500000J0D01*
G01*
X105016362Y-69392500D02*
G75*
G03*
X105516362Y-68892500I0J500000D01*
G01*
X103716362Y-68892500D02*
G75*
G03*
X104216362Y-69392500I500000J0D01*
G01*
X104216362Y-67892500D02*
G75*
G03*
X103716362Y-68392500I0J-500000D01*
G01*
D13*
G36*
X85566346Y-67392500D02*
G01*
X86166346Y-66592500D01*
X84966346Y-66592500D01*
X85566346Y-67392500D01*
G37*
X85566346Y-67392500D02*
X86166346Y-66592500D01*
X84966346Y-66592500D01*
X85566346Y-67392500D01*
D14*
X84666346Y-68392538D02*
X84666346Y-68892500D01*
X85966346Y-69392500D02*
X85166346Y-69392500D01*
X86466346Y-68892462D02*
X86466346Y-68392500D01*
X85966346Y-67892500D02*
X85166346Y-67892500D01*
X86466346Y-68392500D02*
G75*
G03*
X85966346Y-67892500I-500000J0D01*
G01*
X85966346Y-69392500D02*
G75*
G03*
X86466346Y-68892500I0J500000D01*
G01*
X84666346Y-68892500D02*
G75*
G03*
X85166346Y-69392500I500000J0D01*
G01*
X85166346Y-67892500D02*
G75*
G03*
X84666346Y-68392500I0J-500000D01*
G01*
D13*
G36*
X66516330Y-67392500D02*
G01*
X67116330Y-66592500D01*
X65916330Y-66592500D01*
X66516330Y-67392500D01*
G37*
X66516330Y-67392500D02*
X67116330Y-66592500D01*
X65916330Y-66592500D01*
X66516330Y-67392500D01*
D14*
X65616330Y-68392538D02*
X65616330Y-68892500D01*
X66916330Y-69392500D02*
X66116330Y-69392500D01*
X67416330Y-68892462D02*
X67416330Y-68392500D01*
X66916330Y-67892500D02*
X66116330Y-67892500D01*
X67416330Y-68392500D02*
G75*
G03*
X66916330Y-67892500I-500000J0D01*
G01*
X66916330Y-69392500D02*
G75*
G03*
X67416330Y-68892500I0J500000D01*
G01*
X65616330Y-68892500D02*
G75*
G03*
X66116330Y-69392500I500000J0D01*
G01*
X66116330Y-67892500D02*
G75*
G03*
X65616330Y-68392500I0J-500000D01*
G01*
D13*
G36*
X47466570Y-67392820D02*
G01*
X48066570Y-66592820D01*
X46866570Y-66592820D01*
X47466570Y-67392820D01*
G37*
X47466570Y-67392820D02*
X48066570Y-66592820D01*
X46866570Y-66592820D01*
X47466570Y-67392820D01*
D14*
X46566570Y-68392858D02*
X46566570Y-68892820D01*
X47866570Y-69392820D02*
X47066570Y-69392820D01*
X48366570Y-68892782D02*
X48366570Y-68392820D01*
X47866570Y-67892820D02*
X47066570Y-67892820D01*
X48366570Y-68392820D02*
G75*
G03*
X47866570Y-67892820I-500000J0D01*
G01*
X47866570Y-69392820D02*
G75*
G03*
X48366570Y-68892820I0J500000D01*
G01*
X46566570Y-68892820D02*
G75*
G03*
X47066570Y-69392820I500000J0D01*
G01*
X47066570Y-67892820D02*
G75*
G03*
X46566570Y-68392820I0J-500000D01*
G01*
D13*
G36*
X5794520Y-67392820D02*
G01*
X6394520Y-66592820D01*
X5194520Y-66592820D01*
X5794520Y-67392820D01*
G37*
X5794520Y-67392820D02*
X6394520Y-66592820D01*
X5194520Y-66592820D01*
X5794520Y-67392820D01*
D14*
X4894520Y-68392858D02*
X4894520Y-68892820D01*
X6194520Y-69392820D02*
X5394520Y-69392820D01*
X6694520Y-68892782D02*
X6694520Y-68392820D01*
X6194520Y-67892820D02*
X5394520Y-67892820D01*
X6694520Y-68392820D02*
G75*
G03*
X6194520Y-67892820I-500000J0D01*
G01*
X6194520Y-69392820D02*
G75*
G03*
X6694520Y-68892820I0J500000D01*
G01*
X4894520Y-68892820D02*
G75*
G03*
X5394520Y-69392820I500000J0D01*
G01*
X5394520Y-67892820D02*
G75*
G03*
X4894520Y-68392820I0J-500000D01*
G01*
D13*
G36*
X239157072Y-110050369D02*
G01*
X238557072Y-110850369D01*
X239757072Y-110850369D01*
X239157072Y-110050369D01*
G37*
X239157072Y-110050369D02*
X238557072Y-110850369D01*
X239757072Y-110850369D01*
X239157072Y-110050369D01*
D14*
X240057072Y-109050331D02*
X240057072Y-108550369D01*
X238757072Y-108050369D02*
X239557072Y-108050369D01*
X238257072Y-108550407D02*
X238257072Y-109050369D01*
X238757072Y-109550369D02*
X239557072Y-109550369D01*
X238257072Y-109050369D02*
G75*
G03*
X238757072Y-109550369I500000J0D01*
G01*
X238757072Y-108050369D02*
G75*
G03*
X238257072Y-108550369I0J-500000D01*
G01*
X240057072Y-108550369D02*
G75*
G03*
X239557072Y-108050369I-500000J0D01*
G01*
X239557072Y-109550369D02*
G75*
G03*
X240057072Y-109050369I0J500000D01*
G01*
D13*
G36*
X264355531Y-53300321D02*
G01*
X265155531Y-53900321D01*
X265155531Y-52700321D01*
X264355531Y-53300321D01*
G37*
X264355531Y-53300321D02*
X265155531Y-53900321D01*
X265155531Y-52700321D01*
X264355531Y-53300321D01*
D14*
X263355493Y-52400321D02*
X262855531Y-52400321D01*
X262355531Y-53700321D02*
X262355531Y-52900321D01*
X262855569Y-54200321D02*
X263355531Y-54200321D01*
X263855531Y-53700321D02*
X263855531Y-52900321D01*
X263355531Y-54200321D02*
G75*
G03*
X263855531Y-53700321I0J500000D01*
G01*
X262355531Y-53700321D02*
G75*
G03*
X262855531Y-54200321I500000J0D01*
G01*
X262855531Y-52400321D02*
G75*
G03*
X262355531Y-52900321I0J-500000D01*
G01*
X263855531Y-52900321D02*
G75*
G03*
X263355531Y-52400321I-500000J0D01*
G01*
D13*
G36*
X236776740Y-67392820D02*
G01*
X237376740Y-66592820D01*
X236176740Y-66592820D01*
X236776740Y-67392820D01*
G37*
X236776740Y-67392820D02*
X237376740Y-66592820D01*
X236176740Y-66592820D01*
X236776740Y-67392820D01*
D14*
X235876740Y-68392858D02*
X235876740Y-68892820D01*
X237176740Y-69392820D02*
X236376740Y-69392820D01*
X237676740Y-68892782D02*
X237676740Y-68392820D01*
X237176740Y-67892820D02*
X236376740Y-67892820D01*
X237676740Y-68392820D02*
G75*
G03*
X237176740Y-67892820I-500000J0D01*
G01*
X237176740Y-69392820D02*
G75*
G03*
X237676740Y-68892820I0J500000D01*
G01*
X235876740Y-68892820D02*
G75*
G03*
X236376740Y-69392820I500000J0D01*
G01*
X236376740Y-67892820D02*
G75*
G03*
X235876740Y-68392820I0J-500000D01*
G01*
D13*
G36*
X229632960Y-48342740D02*
G01*
X230232960Y-47542740D01*
X229032960Y-47542740D01*
X229632960Y-48342740D01*
G37*
X229632960Y-48342740D02*
X230232960Y-47542740D01*
X229032960Y-47542740D01*
X229632960Y-48342740D01*
D14*
X228732960Y-49342778D02*
X228732960Y-49842740D01*
X230032960Y-50342740D02*
X229232960Y-50342740D01*
X230532960Y-49842702D02*
X230532960Y-49342740D01*
X230032960Y-48842740D02*
X229232960Y-48842740D01*
X230532960Y-49342740D02*
G75*
G03*
X230032960Y-48842740I-500000J0D01*
G01*
X230032960Y-50342740D02*
G75*
G03*
X230532960Y-49842740I0J500000D01*
G01*
X228732960Y-49842740D02*
G75*
G03*
X229232960Y-50342740I500000J0D01*
G01*
X229232960Y-48842740D02*
G75*
G03*
X228732960Y-49342740I0J-500000D01*
G01*
D13*
G36*
X227250840Y-48342500D02*
G01*
X227850840Y-47542500D01*
X226650840Y-47542500D01*
X227250840Y-48342500D01*
G37*
X227250840Y-48342500D02*
X227850840Y-47542500D01*
X226650840Y-47542500D01*
X227250840Y-48342500D01*
D14*
X226350840Y-49342538D02*
X226350840Y-49842500D01*
X227650840Y-50342500D02*
X226850840Y-50342500D01*
X228150840Y-49842462D02*
X228150840Y-49342500D01*
X227650840Y-48842500D02*
X226850840Y-48842500D01*
X228150840Y-49342500D02*
G75*
G03*
X227650840Y-48842500I-500000J0D01*
G01*
X227650840Y-50342500D02*
G75*
G03*
X228150840Y-49842500I0J500000D01*
G01*
X226350840Y-49842500D02*
G75*
G03*
X226850840Y-50342500I500000J0D01*
G01*
X226850840Y-48842500D02*
G75*
G03*
X226350840Y-49342500I0J-500000D01*
G01*
D13*
G36*
X191532800Y-48342500D02*
G01*
X192132800Y-47542500D01*
X190932800Y-47542500D01*
X191532800Y-48342500D01*
G37*
X191532800Y-48342500D02*
X192132800Y-47542500D01*
X190932800Y-47542500D01*
X191532800Y-48342500D01*
D14*
X190632800Y-49342538D02*
X190632800Y-49842500D01*
X191932800Y-50342500D02*
X191132800Y-50342500D01*
X192432800Y-49842462D02*
X192432800Y-49342500D01*
X191932800Y-48842500D02*
X191132800Y-48842500D01*
X192432800Y-49342500D02*
G75*
G03*
X191932800Y-48842500I-500000J0D01*
G01*
X191932800Y-50342500D02*
G75*
G03*
X192432800Y-49842500I0J500000D01*
G01*
X190632800Y-49842500D02*
G75*
G03*
X191132800Y-50342500I500000J0D01*
G01*
X191132800Y-48842500D02*
G75*
G03*
X190632800Y-49342500I0J-500000D01*
G01*
D13*
G36*
X189150808Y-48342500D02*
G01*
X189750808Y-47542500D01*
X188550808Y-47542500D01*
X189150808Y-48342500D01*
G37*
X189150808Y-48342500D02*
X189750808Y-47542500D01*
X188550808Y-47542500D01*
X189150808Y-48342500D01*
D14*
X188250808Y-49342538D02*
X188250808Y-49842500D01*
X189550808Y-50342500D02*
X188750808Y-50342500D01*
X190050808Y-49842462D02*
X190050808Y-49342500D01*
X189550808Y-48842500D02*
X188750808Y-48842500D01*
X190050808Y-49342500D02*
G75*
G03*
X189550808Y-48842500I-500000J0D01*
G01*
X189550808Y-50342500D02*
G75*
G03*
X190050808Y-49842500I0J500000D01*
G01*
X188250808Y-49842500D02*
G75*
G03*
X188750808Y-50342500I500000J0D01*
G01*
X188750808Y-48842500D02*
G75*
G03*
X188250808Y-49342500I0J-500000D01*
G01*
D13*
G36*
X153432640Y-48342500D02*
G01*
X154032640Y-47542500D01*
X152832640Y-47542500D01*
X153432640Y-48342500D01*
G37*
X153432640Y-48342500D02*
X154032640Y-47542500D01*
X152832640Y-47542500D01*
X153432640Y-48342500D01*
D14*
X152532640Y-49342538D02*
X152532640Y-49842500D01*
X153832640Y-50342500D02*
X153032640Y-50342500D01*
X154332640Y-49842462D02*
X154332640Y-49342500D01*
X153832640Y-48842500D02*
X153032640Y-48842500D01*
X154332640Y-49342500D02*
G75*
G03*
X153832640Y-48842500I-500000J0D01*
G01*
X153832640Y-50342500D02*
G75*
G03*
X154332640Y-49842500I0J500000D01*
G01*
X152532640Y-49842500D02*
G75*
G03*
X153032640Y-50342500I500000J0D01*
G01*
X153032640Y-48842500D02*
G75*
G03*
X152532640Y-49342500I0J-500000D01*
G01*
D13*
G36*
X151050776Y-48342500D02*
G01*
X151650776Y-47542500D01*
X150450776Y-47542500D01*
X151050776Y-48342500D01*
G37*
X151050776Y-48342500D02*
X151650776Y-47542500D01*
X150450776Y-47542500D01*
X151050776Y-48342500D01*
D14*
X150150776Y-49342538D02*
X150150776Y-49842500D01*
X151450776Y-50342500D02*
X150650776Y-50342500D01*
X151950776Y-49842462D02*
X151950776Y-49342500D01*
X151450776Y-48842500D02*
X150650776Y-48842500D01*
X151950776Y-49342500D02*
G75*
G03*
X151450776Y-48842500I-500000J0D01*
G01*
X151450776Y-50342500D02*
G75*
G03*
X151950776Y-49842500I0J500000D01*
G01*
X150150776Y-49842500D02*
G75*
G03*
X150650776Y-50342500I500000J0D01*
G01*
X150650776Y-48842500D02*
G75*
G03*
X150150776Y-49342500I0J-500000D01*
G01*
D13*
G36*
X115332480Y-48342500D02*
G01*
X115932480Y-47542500D01*
X114732480Y-47542500D01*
X115332480Y-48342500D01*
G37*
X115332480Y-48342500D02*
X115932480Y-47542500D01*
X114732480Y-47542500D01*
X115332480Y-48342500D01*
D14*
X114432480Y-49342538D02*
X114432480Y-49842500D01*
X115732480Y-50342500D02*
X114932480Y-50342500D01*
X116232480Y-49842462D02*
X116232480Y-49342500D01*
X115732480Y-48842500D02*
X114932480Y-48842500D01*
X116232480Y-49342500D02*
G75*
G03*
X115732480Y-48842500I-500000J0D01*
G01*
X115732480Y-50342500D02*
G75*
G03*
X116232480Y-49842500I0J500000D01*
G01*
X114432480Y-49842500D02*
G75*
G03*
X114932480Y-50342500I500000J0D01*
G01*
X114932480Y-48842500D02*
G75*
G03*
X114432480Y-49342500I0J-500000D01*
G01*
D13*
G36*
X112950744Y-48342500D02*
G01*
X113550744Y-47542500D01*
X112350744Y-47542500D01*
X112950744Y-48342500D01*
G37*
X112950744Y-48342500D02*
X113550744Y-47542500D01*
X112350744Y-47542500D01*
X112950744Y-48342500D01*
D14*
X112050744Y-49342538D02*
X112050744Y-49842500D01*
X113350744Y-50342500D02*
X112550744Y-50342500D01*
X113850744Y-49842462D02*
X113850744Y-49342500D01*
X113350744Y-48842500D02*
X112550744Y-48842500D01*
X113850744Y-49342500D02*
G75*
G03*
X113350744Y-48842500I-500000J0D01*
G01*
X113350744Y-50342500D02*
G75*
G03*
X113850744Y-49842500I0J500000D01*
G01*
X112050744Y-49842500D02*
G75*
G03*
X112550744Y-50342500I500000J0D01*
G01*
X112550744Y-48842500D02*
G75*
G03*
X112050744Y-49342500I0J-500000D01*
G01*
D13*
G36*
X77232320Y-48342740D02*
G01*
X77832320Y-47542740D01*
X76632320Y-47542740D01*
X77232320Y-48342740D01*
G37*
X77232320Y-48342740D02*
X77832320Y-47542740D01*
X76632320Y-47542740D01*
X77232320Y-48342740D01*
D14*
X76332320Y-49342778D02*
X76332320Y-49842740D01*
X77632320Y-50342740D02*
X76832320Y-50342740D01*
X78132320Y-49842702D02*
X78132320Y-49342740D01*
X77632320Y-48842740D02*
X76832320Y-48842740D01*
X78132320Y-49342740D02*
G75*
G03*
X77632320Y-48842740I-500000J0D01*
G01*
X77632320Y-50342740D02*
G75*
G03*
X78132320Y-49842740I0J500000D01*
G01*
X76332320Y-49842740D02*
G75*
G03*
X76832320Y-50342740I500000J0D01*
G01*
X76832320Y-48842740D02*
G75*
G03*
X76332320Y-49342740I0J-500000D01*
G01*
D13*
G36*
X74850712Y-48342500D02*
G01*
X75450712Y-47542500D01*
X74250712Y-47542500D01*
X74850712Y-48342500D01*
G37*
X74850712Y-48342500D02*
X75450712Y-47542500D01*
X74250712Y-47542500D01*
X74850712Y-48342500D01*
D14*
X73950712Y-49342538D02*
X73950712Y-49842500D01*
X75250712Y-50342500D02*
X74450712Y-50342500D01*
X75750712Y-49842462D02*
X75750712Y-49342500D01*
X75250712Y-48842500D02*
X74450712Y-48842500D01*
X75750712Y-49342500D02*
G75*
G03*
X75250712Y-48842500I-500000J0D01*
G01*
X75250712Y-50342500D02*
G75*
G03*
X75750712Y-49842500I0J500000D01*
G01*
X73950712Y-49842500D02*
G75*
G03*
X74450712Y-50342500I500000J0D01*
G01*
X74450712Y-48842500D02*
G75*
G03*
X73950712Y-49342500I0J-500000D01*
G01*
D13*
G36*
X39132160Y-48342740D02*
G01*
X39732160Y-47542740D01*
X38532160Y-47542740D01*
X39132160Y-48342740D01*
G37*
X39132160Y-48342740D02*
X39732160Y-47542740D01*
X38532160Y-47542740D01*
X39132160Y-48342740D01*
D14*
X38232160Y-49342778D02*
X38232160Y-49842740D01*
X39532160Y-50342740D02*
X38732160Y-50342740D01*
X40032160Y-49842702D02*
X40032160Y-49342740D01*
X39532160Y-48842740D02*
X38732160Y-48842740D01*
X40032160Y-49342740D02*
G75*
G03*
X39532160Y-48842740I-500000J0D01*
G01*
X39532160Y-50342740D02*
G75*
G03*
X40032160Y-49842740I0J500000D01*
G01*
X38232160Y-49842740D02*
G75*
G03*
X38732160Y-50342740I500000J0D01*
G01*
X38732160Y-48842740D02*
G75*
G03*
X38232160Y-49342740I0J-500000D01*
G01*
D13*
G36*
X36750900Y-48342740D02*
G01*
X37350900Y-47542740D01*
X36150900Y-47542740D01*
X36750900Y-48342740D01*
G37*
X36750900Y-48342740D02*
X37350900Y-47542740D01*
X36150900Y-47542740D01*
X36750900Y-48342740D01*
D14*
X35850900Y-49342778D02*
X35850900Y-49842740D01*
X37150900Y-50342740D02*
X36350900Y-50342740D01*
X37650900Y-49842702D02*
X37650900Y-49342740D01*
X37150900Y-48842740D02*
X36350900Y-48842740D01*
X37650900Y-49342740D02*
G75*
G03*
X37150900Y-48842740I-500000J0D01*
G01*
X37150900Y-50342740D02*
G75*
G03*
X37650900Y-49842740I0J500000D01*
G01*
X35850900Y-49842740D02*
G75*
G03*
X36350900Y-50342740I500000J0D01*
G01*
X36350900Y-48842740D02*
G75*
G03*
X35850900Y-49342740I0J-500000D01*
G01*
D13*
G36*
X6194520Y-52705260D02*
G01*
X5394520Y-52105260D01*
X5394520Y-53305260D01*
X6194520Y-52705260D01*
G37*
X6194520Y-52705260D02*
X5394520Y-52105260D01*
X5394520Y-53305260D01*
X6194520Y-52705260D01*
D14*
X7194558Y-53605260D02*
X7694520Y-53605260D01*
X8194520Y-52305260D02*
X8194520Y-53105260D01*
X7694482Y-51805260D02*
X7194520Y-51805260D01*
X6694520Y-52305260D02*
X6694520Y-53105260D01*
X7194520Y-51805260D02*
G75*
G03*
X6694520Y-52305260I0J-500000D01*
G01*
X8194520Y-52305260D02*
G75*
G03*
X7694520Y-51805260I-500000J0D01*
G01*
X7694520Y-53605260D02*
G75*
G03*
X8194520Y-53105260I0J500000D01*
G01*
X6694520Y-53105260D02*
G75*
G03*
X7194520Y-53605260I500000J0D01*
G01*
X31478750Y-58442500D02*
X31478750Y-59442500D01*
X31478750Y-59442500D02*
X33878750Y-59442500D01*
X35678750Y-58442500D02*
X35678750Y-54442500D01*
X33878750Y-53442500D02*
X31478750Y-53442500D01*
X31478750Y-53442500D02*
X31478750Y-54442500D01*
D12*
X23199750Y-52816000D02*
X23199750Y-50816000D01*
X21059750Y-50816000D02*
X21059750Y-52816000D01*
D14*
X11371095Y-56058410D02*
X6171095Y-56058410D01*
X6171095Y-56058410D02*
X6171095Y-61258410D01*
X6171095Y-61258410D02*
X11371095Y-61258410D01*
X11371095Y-61258410D02*
X11371095Y-56058410D01*
X9771095Y-58658410D02*
G75*
G03*
X9771095Y-58658410I-1000000J0D01*
G01*
X17803850Y-50342500D02*
X17803850Y-53242500D01*
X17803850Y-50342500D02*
X19103850Y-50342500D01*
X19103850Y-50342500D02*
X19103850Y-53242500D01*
X19103850Y-53242500D02*
X17803850Y-53242500D01*
X13510190Y-76155340D02*
X14510190Y-76155340D01*
X13510190Y-73755340D02*
X13510190Y-76155340D01*
X18510190Y-71955340D02*
X14510190Y-71955340D01*
X19510190Y-76155340D02*
X19510190Y-73755340D01*
X18510190Y-76155340D02*
X19510190Y-76155340D01*
D12*
X33682750Y-94415420D02*
X34407750Y-94415420D01*
X34407750Y-94415420D02*
X34407750Y-93690420D01*
X27912750Y-87195420D02*
X27187750Y-87195420D01*
X27187750Y-87195420D02*
X27187750Y-87920420D01*
X33682750Y-87195420D02*
X34407750Y-87195420D01*
X34407750Y-87195420D02*
X34407750Y-87920420D01*
X27912750Y-94415420D02*
X27187750Y-94415420D01*
D14*
X14859085Y-92717928D02*
X15620990Y-92717928D01*
X15240038Y-93098880D02*
X15240038Y-92336976D01*
X12636581Y-92717928D02*
X13398486Y-92717928D01*
X13017534Y-93098880D02*
X13017534Y-92336976D01*
X31559654Y-95077800D02*
X31559654Y-95887324D01*
X31512035Y-95982562D01*
X31464416Y-96030181D01*
X31369178Y-96077800D01*
X31178702Y-96077800D01*
X31083464Y-96030181D01*
X31035845Y-95982562D01*
X30988226Y-95887324D01*
X30988226Y-95077800D01*
X30559654Y-95173039D02*
X30512035Y-95125420D01*
X30416797Y-95077800D01*
X30178702Y-95077800D01*
X30083464Y-95125420D01*
X30035845Y-95173039D01*
X29988226Y-95268277D01*
X29988226Y-95363515D01*
X30035845Y-95506372D01*
X30607273Y-96077800D01*
X29988226Y-96077800D01*
M02*
