0
SECTION
2
HEADER
9
$INSUNITS
70
4
9
$ACADVER
1
AC1014
9
$HANDSEED
5
FFFF
0
ENDSEC
0
SECTION
2
TABLES
0
TABLE
2
VPORT
5
8
100
AcDbSymbolTable
0
ENDTAB
0
TABLE
2
LTYPE
5
5
100
AcDbSymbolTable
0
LTYPE
5
14
100
AcDbSymbolTableRecord
100
AcDbLinetypeTableRecord
2
BYBLOCK
70
0
0
LTYPE
5
15
100
AcDbSymbolTableRecord
100
AcDbLinetypeTableRecord
2
BYLAYER
70
0
0
ENDTAB
0
TABLE
2
LAYER
5
2
100
AcDbSymbolTable
70
2
0
LAYER
5
50
100
AcDbSymbolTableRecord
100
AcDbLayerTableRecord
2
0
70
0
6
CONTINUOUS
0
ENDTAB
0
TABLE
2
STYLE
5
3
100
AcDbSymbolTable
70
1
0
STYLE
5
11
100
AcDbSymbolTableRecord
100
AcDbTextStyleTableRecord
2
STANDARD
70
0
0
ENDTAB
0
TABLE
2
VIEW
5
6
100
AcDbSymbolTable
70
0
0
ENDTAB
0
TABLE
2
UCS
5
7
100
AcDbSymbolTable
70
0
0
ENDTAB
0
TABLE
2
APPID
5
9
100
AcDbSymbolTable
70
2
0
APPID
5
12
100
AcDbSymbolTableRecord
100
AcDbRegAppTableRecord
2
ACAD
70
0
0
ENDTAB
0
TABLE
2
DIMSTYLE
5
A
100
AcDbSymbolTable
70
1
0
ENDTAB
0
TABLE
2
BLOCK_RECORD
5
1
100
AcDbSymbolTable
70
1
0
BLOCK_RECORD
5
1F
100
AcDbSymbolTableRecord
100
AcDbBlockTableRecord
2
*MODEL_SPACE
0
BLOCK_RECORD
5
1B
100
AcDbSymbolTableRecord
100
AcDbBlockTableRecord
2
*PAPER_SPACE
0
ENDTAB
0
ENDSEC
0
SECTION
2
BLOCKS
0
BLOCK
5
20
100
AcDbEntity
100
AcDbBlockBegin
2
*MODEL_SPACE
0
ENDBLK
5
21
100
AcDbEntity
100
AcDbBlockEnd
0
BLOCK
5
1C
100
AcDbEntity
100
AcDbBlockBegin
2
*PAPER_SPACE
0
ENDBLK
5
1D
100
AcDbEntity
100
AcDbBlockEnd
0
ENDSEC
0
SECTION
2
ENTITIES
0
ARC
5
100
100
AcDbEntity
8
0
100
AcDbCircle
10
228.60000000000002
20
-88.737499999999997
30
0
40
0.74999999999999289
210
0
220
0
230
1
100
AcDbArc
50
-90
51
90
0
LINE
5
101
100
AcDbEntity
8
0
100
AcDbLine
10
228.60000000000002
20
-89.487499999999983
30
0
11
193.58256990350583
21
-89.487499999999983
31
0
0
ARC
5
102
100
AcDbEntity
8
0
100
AcDbCircle
10
193.58256990350586
20
-88.48749999999994
30
0
40
1.0000000000000608
210
0
220
0
230
1
100
AcDbArc
50
226.68999934002034
51
269.99999999999835
0
ARC
5
103
100
AcDbEntity
8
0
100
AcDbCircle
10
190.5
20
-91.757500000000007
30
0
40
3.4939000000000018
210
0
220
-0
230
1
100
AcDbArc
50
46.689999340019945
51
133.31000065997972
0
ARC
5
104
100
AcDbEntity
8
0
100
AcDbCircle
10
187.41743009649414
20
-88.48749999999994
30
0
40
1.0000000000000497
210
0
220
0
230
1
100
AcDbArc
50
270.00000000000159
51
313.31000065998086
0
LINE
5
105
100
AcDbEntity
8
0
100
AcDbLine
10
187.41743009649417
20
-89.487499999999983
30
0
11
174.52621990350588
21
-89.487499999999983
31
0
0
ARC
5
106
100
AcDbEntity
8
0
100
AcDbCircle
10
174.5262199035059
20
-88.48749999999994
30
0
40
1.0000000000000608
210
0
220
0
230
1
100
AcDbArc
50
226.68999934001914
51
269.99999999999835
0
ARC
5
107
100
AcDbEntity
8
0
100
AcDbCircle
10
171.44365000000005
20
-91.757500000000007
30
0
40
3.4939000000000018
210
0
220
-0
230
1
100
AcDbArc
50
46.689999340020272
51
90
0
LINE
5
108
100
AcDbEntity
8
0
100
AcDbLine
10
166.71925000000002
20
-88.263599999999997
30
0
11
171.44365000000005
21
-88.263599999999997
31
0
0
ARC
5
109
100
AcDbEntity
8
0
100
AcDbCircle
10
166.71925000000002
20
-91.757500000000007
30
0
40
3.4939000000000142
210
0
220
-0
230
1
100
AcDbArc
50
90
51
133.31000065998086
0
ARC
5
110
100
AcDbEntity
8
0
100
AcDbCircle
10
163.63668009649413
20
-88.487499999999812
30
0
40
1.0000000000001741
210
0
220
0
230
1
100
AcDbArc
50
270.00000000000159
51
313.31000065997301
0
LINE
5
111
100
AcDbEntity
8
0
100
AcDbLine
10
163.63668009649416
20
-89.487499999999983
30
0
11
145.92581990350584
21
-89.487499999999983
31
0
0
ARC
5
112
100
AcDbEntity
8
0
100
AcDbCircle
10
145.92581990350581
20
-88.487500000000026
30
0
40
0.9999999999999476
210
0
220
0
230
1
100
AcDbArc
50
226.68999934001931
51
270.00000000000159
0
ARC
5
113
100
AcDbEntity
8
0
100
AcDbCircle
10
142.84325000000001
20
-91.757500000000007
30
0
40
3.4939000000000018
210
0
220
-0
230
1
100
AcDbArc
50
46.689999340019945
51
133.31000065997972
0
ARC
5
114
100
AcDbEntity
8
0
100
AcDbCircle
10
139.76068009649424
20
-88.487500000000026
30
0
40
0.99999999999996092
210
0
220
0
230
1
100
AcDbArc
50
269.99999999999835
51
313.31000065998063
0
LINE
5
115
100
AcDbEntity
8
0
100
AcDbLine
10
139.76068009649421
20
-89.487499999999983
30
0
11
122.17681990350584
21
-89.487499999999983
31
0
0
ARC
5
116
100
AcDbEntity
8
0
100
AcDbCircle
10
122.17681990350587
20
-88.48749999999994
30
0
40
1.0000000000000608
210
0
220
0
230
1
100
AcDbArc
50
226.68999934002034
51
269.99999999999835
0
ARC
5
117
100
AcDbEntity
8
0
100
AcDbCircle
10
119.09425000000002
20
-91.757500000000007
30
0
40
3.4939000000000018
210
0
220
-0
230
1
100
AcDbArc
50
46.689999340019945
51
133.31000065997972
0
ARC
5
118
100
AcDbEntity
8
0
100
AcDbCircle
10
116.01168009649416
20
-88.48749999999994
30
0
40
1.0000000000000497
210
0
220
0
230
1
100
AcDbArc
50
270.00000000000244
51
313.31000065998086
0
LINE
5
119
100
AcDbEntity
8
0
100
AcDbLine
10
116.0116800964942
20
-89.487499999999983
30
0
11
98.300819903505811
21
-89.487499999999983
31
0
0
ARC
5
120
100
AcDbEntity
8
0
100
AcDbCircle
10
98.300819903505783
20
-88.487500000000026
30
0
40
0.99999999999996048
210
0
220
0
230
1
100
AcDbArc
50
226.68999934002045
51
270.00000000000159
0
ARC
5
121
100
AcDbEntity
8
0
100
AcDbCircle
10
95.218249999999998
20
-91.757500000000007
30
0
40
3.4938999999999893
210
0
220
-0
230
1
100
AcDbArc
50
46.689999340019789
51
133.31000065998023
0
ARC
5
122
100
AcDbEntity
8
0
100
AcDbCircle
10
92.135680096494241
20
-88.487500000000068
30
0
40
0.99999999999992539
210
0
220
0
230
1
100
AcDbArc
50
269.99999999999835
51
313.31000065998001
0
LINE
5
123
100
AcDbEntity
8
0
100
AcDbLine
10
92.135680096494212
20
-89.487499999999983
30
0
11
79.282569903505845
21
-89.487499999999983
31
0
0
ARC
5
124
100
AcDbEntity
8
0
100
AcDbCircle
10
79.282569903505816
20
-88.487500000000026
30
0
40
0.9999999999999597
210
0
220
0
230
1
100
AcDbArc
50
226.68999934001874
51
270.00000000000159
0
ARC
5
125
100
AcDbEntity
8
0
100
AcDbCircle
10
76.200000000000003
20
-91.757500000000007
30
0
40
3.4939000000000142
210
0
220
-0
230
1
100
AcDbArc
50
46.689999340019945
51
90
0
LINE
5
126
100
AcDbEntity
8
0
100
AcDbLine
10
71.443850000000012
20
-88.263600000000011
30
0
11
76.200000000000003
21
-88.263600000000011
31
0
0
ARC
5
127
100
AcDbEntity
8
0
100
AcDbCircle
10
71.443850000000012
20
-91.757500000000007
30
0
40
3.4938999999999965
210
0
220
-0
230
1
100
AcDbArc
50
90
51
133.31000065998023
0
ARC
5
128
100
AcDbEntity
8
0
100
AcDbCircle
10
68.361280096494184
20
-88.48749999999994
30
0
40
1.0000000000000497
210
0
220
0
230
1
100
AcDbArc
50
270
51
313.31000065997796
0
LINE
5
129
100
AcDbEntity
8
0
100
AcDbLine
10
68.361280096494184
20
-89.487499999999983
30
0
11
30.95624999999999
21
-89.487499999999983
31
0
0
ARC
5
130
100
AcDbEntity
8
0
100
AcDbCircle
10
30.95624999999999
20
-88.737499999999997
30
0
40
0.74999999999999289
210
0
220
-0
230
1
100
AcDbArc
50
90
51
270
0
ARC
5
131
100
AcDbEntity
8
0
100
AcDbCircle
10
193.58256990350586
20
-86.987499999999955
30
0
40
1.0000000000000608
210
0
220
0
230
1
100
AcDbArc
50
226.68999934002034
51
269.99999999999835
0
ARC
5
132
100
AcDbEntity
8
0
100
AcDbCircle
10
190.5
20
-90.257500000000022
30
0
40
3.4939000000000018
210
0
220
-0
230
1
100
AcDbArc
50
46.689999340019945
51
133.31000065997972
0
ARC
5
133
100
AcDbEntity
8
0
100
AcDbCircle
10
187.41743009649414
20
-86.987499999999955
30
0
40
1.0000000000000497
210
0
220
0
230
1
100
AcDbArc
50
270.00000000000159
51
313.31000065998086
0
LINE
5
134
100
AcDbEntity
8
0
100
AcDbLine
10
187.41743009649417
20
-87.987499999999997
30
0
11
174.52621990350588
21
-87.987499999999997
31
0
0
ARC
5
135
100
AcDbEntity
8
0
100
AcDbCircle
10
174.5262199035059
20
-86.987499999999955
30
0
40
1.0000000000000608
210
0
220
0
230
1
100
AcDbArc
50
226.68999934001914
51
269.99999999999835
0
ARC
5
136
100
AcDbEntity
8
0
100
AcDbCircle
10
171.44365000000005
20
-90.257500000000022
30
0
40
3.4939000000000018
210
0
220
-0
230
1
100
AcDbArc
50
46.689999340020272
51
90
0
LINE
5
137
100
AcDbEntity
8
0
100
AcDbLine
10
166.71925000000002
20
-86.763600000000011
30
0
11
171.44365000000005
21
-86.763600000000011
31
0
0
ARC
5
138
100
AcDbEntity
8
0
100
AcDbCircle
10
166.71925000000002
20
-90.257500000000022
30
0
40
3.4939000000000142
210
0
220
-0
230
1
100
AcDbArc
50
90
51
133.31000065998086
0
ARC
5
139
100
AcDbEntity
8
0
100
AcDbCircle
10
163.63668009649413
20
-86.987499999999827
30
0
40
1.0000000000001741
210
0
220
0
230
1
100
AcDbArc
50
270.00000000000159
51
313.31000065997301
0
LINE
5
140
100
AcDbEntity
8
0
100
AcDbLine
10
163.63668009649416
20
-87.987499999999997
30
0
11
145.92581990350584
21
-87.987499999999997
31
0
0
ARC
5
141
100
AcDbEntity
8
0
100
AcDbCircle
10
145.92581990350581
20
-86.98750000000004
30
0
40
0.9999999999999476
210
0
220
0
230
1
100
AcDbArc
50
226.68999934001931
51
270.00000000000159
0
ARC
5
142
100
AcDbEntity
8
0
100
AcDbCircle
10
142.84325000000001
20
-90.257500000000022
30
0
40
3.4939000000000018
210
0
220
-0
230
1
100
AcDbArc
50
46.689999340019945
51
133.31000065997972
0
ARC
5
143
100
AcDbEntity
8
0
100
AcDbCircle
10
139.76068009649424
20
-86.98750000000004
30
0
40
0.99999999999996092
210
0
220
0
230
1
100
AcDbArc
50
269.99999999999835
51
313.31000065998063
0
LINE
5
144
100
AcDbEntity
8
0
100
AcDbLine
10
139.76068009649421
20
-87.987499999999997
30
0
11
122.17681990350584
21
-87.987499999999997
31
0
0
ARC
5
145
100
AcDbEntity
8
0
100
AcDbCircle
10
122.17681990350587
20
-86.987499999999955
30
0
40
1.0000000000000608
210
0
220
0
230
1
100
AcDbArc
50
226.68999934002034
51
269.99999999999835
0
ARC
5
146
100
AcDbEntity
8
0
100
AcDbCircle
10
119.09425000000002
20
-90.257500000000022
30
0
40
3.4939000000000018
210
0
220
-0
230
1
100
AcDbArc
50
46.689999340019945
51
133.31000065997972
0
ARC
5
147
100
AcDbEntity
8
0
100
AcDbCircle
10
116.01168009649416
20
-86.987499999999955
30
0
40
1.0000000000000497
210
0
220
0
230
1
100
AcDbArc
50
270.00000000000244
51
313.31000065998086
0
LINE
5
148
100
AcDbEntity
8
0
100
AcDbLine
10
116.0116800964942
20
-87.987499999999997
30
0
11
98.300819903505811
21
-87.987499999999997
31
0
0
ARC
5
149
100
AcDbEntity
8
0
100
AcDbCircle
10
98.300819903505783
20
-86.98750000000004
30
0
40
0.99999999999996048
210
0
220
0
230
1
100
AcDbArc
50
226.68999934001991
51
270.00000000000159
0
ARC
5
150
100
AcDbEntity
8
0
100
AcDbCircle
10
95.218249999999998
20
-90.257500000000022
30
0
40
3.4938999999999893
210
0
220
-0
230
1
100
AcDbArc
50
46.689999340019945
51
133.31000065998006
0
ARC
5
151
100
AcDbEntity
8
0
100
AcDbCircle
10
92.135680096494241
20
-86.987500000000068
30
0
40
0.99999999999992539
210
0
220
0
230
1
100
AcDbArc
50
269.99999999999835
51
313.31000065998001
0
LINE
5
152
100
AcDbEntity
8
0
100
AcDbLine
10
92.135680096494212
20
-87.987499999999997
30
0
11
79.282569903505845
21
-87.987499999999997
31
0
0
ARC
5
153
100
AcDbEntity
8
0
100
AcDbCircle
10
79.282569903505816
20
-86.98750000000004
30
0
40
0.9999999999999597
210
0
220
0
230
1
100
AcDbArc
50
226.68999934001874
51
270.00000000000159
0
ARC
5
154
100
AcDbEntity
8
0
100
AcDbCircle
10
76.200000000000003
20
-90.257500000000022
30
0
40
3.4939000000000142
210
0
220
-0
230
1
100
AcDbArc
50
46.689999340019945
51
90
0
LINE
5
155
100
AcDbEntity
8
0
100
AcDbLine
10
71.443850000000012
20
-86.763600000000025
30
0
11
76.200000000000003
21
-86.763600000000025
31
0
0
ARC
5
156
100
AcDbEntity
8
0
100
AcDbCircle
10
71.443850000000012
20
-90.257500000000022
30
0
40
3.4938999999999965
210
0
220
-0
230
1
100
AcDbArc
50
90
51
133.31000065998006
0
ARC
5
157
100
AcDbEntity
8
0
100
AcDbCircle
10
68.361280096494184
20
-86.987499999999955
30
0
40
1.0000000000000497
210
0
220
0
230
1
100
AcDbArc
50
270
51
313.31000065997853
0
LINE
5
158
100
AcDbEntity
8
0
100
AcDbLine
10
68.361280096494184
20
-87.987499999999997
30
0
11
30.95624999999999
21
-87.987499999999997
31
0
0
LINE
5
159
100
AcDbEntity
8
0
100
AcDbLine
10
228.60000000000002
20
-87.987499999999997
30
0
11
193.58256990350583
21
-87.987499999999997
31
0
0
CIRCLE
5
160
100
AcDbEntity
8
0
100
AcDbCircle
10
0
20
0
30
0
40
1.9939
210
0
220
0
230
1
0
ENDSEC
0
SECTION
2
OBJECTS
0
DICTIONARY
5
C
100
AcDbDictionary
3
ACAD_GROUP
350
D
3
ACAD_MLINESTYLE
350
17
0
DICTIONARY
5
D
100
AcDbDictionary
0
DICTIONARY
5
1A
330
C
100
AcDbDictionary
0
DICTIONARY
5
17
100
AcDbDictionary
0
ENDSEC
0
EOF
